<?xml version="1.0" encoding="UTF-8" standalone="no"?>
<svg
   xmlns:dc="http://purl.org/dc/elements/1.1/"
   xmlns:cc="http://creativecommons.org/ns#"
   xmlns:rdf="http://www.w3.org/1999/02/22-rdf-syntax-ns#"
   xmlns:svg="http://www.w3.org/2000/svg"
   xmlns="http://www.w3.org/2000/svg"
   xmlns:sodipodi="http://sodipodi.sourceforge.net/DTD/sodipodi-0.dtd"
   xmlns:inkscape="http://www.inkscape.org/namespaces/inkscape"
   width="48"
   height="48"
   viewBox="0 0 48 48"
   id="svg2989"
   version="1.1"
   inkscape:version="0.48.4 r9939"
   sodipodi:docname="contact-new.svg">
  <metadata
     id="metadata2999">
    <rdf:RDF>
      <cc:Work
         rdf:about="">
        <dc:format>image/svg+xml</dc:format>
        <dc:type
           rdf:resource="http://purl.org/dc/dcmitype/StillImage" />
      </cc:Work>
    </rdf:RDF>
  </metadata>
  <defs
     id="defs2997" />
  <sodipodi:namedview
     pagecolor="#ffffff"
     bordercolor="#666666"
     borderopacity="1"
     objecttolerance="10"
     gridtolerance="10"
     guidetolerance="10"
     inkscape:pageopacity="0"
     inkscape:pageshadow="2"
     inkscape:window-width="640"
     inkscape:window-height="480"
     id="namedview2995"
     showgrid="false"
     inkscape:zoom="3.4766083"
     inkscape:cx="-16.512627"
     inkscape:cy="21.445741"
     inkscape:window-x="0"
     inkscape:window-y="0"
     inkscape:window-maximized="0"
     inkscape:current-layer="svg2989" />
  <path
     style="fill:#6c71c4"
     d="M 14.011719 9.703125 C 12.414062 15.363281 12.378906 23.195312 15.222656 27.058594 C 16.417969 28.894531 18.050781 31.304688 16.773438 33.496094 C 14.410156 36.917969 10.46875 38.765625 6.878906 40.628906 C 5.660156 40.753906 6.097656 41.882812 6.019531 42.71875 C 6.015625 43.378906 5.816406 44.246094 6.792969 43.933594 L 41.207031 43.933594 C 42.183594 44.246094 41.984375 43.378906 41.980469 42.71875 C 41.902344 41.882812 42.339844 40.753906 41.121094 40.628906 C 37.53125 38.765625 33.589844 36.917969 31.226562 33.496094 C 29.949219 31.304688 31.582031 28.894531 32.777344 27.058594 C 35.78125 22.855469 36.171875 13.703125 33.980469 9.578125 C 32 6 30 4.136719 24 4 C 17.992188 4.242188 16 6 14.011719 9.703125 Z "
     id="path2991" />
</svg>
