<?xml version="1.0" encoding="UTF-8" standalone="no"?>
<svg
   xmlns:dc="http://purl.org/dc/elements/1.1/"
   xmlns:cc="http://creativecommons.org/ns#"
   xmlns:rdf="http://www.w3.org/1999/02/22-rdf-syntax-ns#"
   xmlns:svg="http://www.w3.org/2000/svg"
   xmlns="http://www.w3.org/2000/svg"
   xmlns:sodipodi="http://sodipodi.sourceforge.net/DTD/sodipodi-0.dtd"
   xmlns:inkscape="http://www.inkscape.org/namespaces/inkscape"
   width="48"
   height="48"
   viewBox="0 0 48 48"
   id="svg3113"
   version="1.1"
   inkscape:version="0.48.4 r9939"
   sodipodi:docname="document-print-preview.svg">
  <metadata
     id="metadata3135">
    <rdf:RDF>
      <cc:Work
         rdf:about="">
        <dc:format>image/svg+xml</dc:format>
        <dc:type
           rdf:resource="http://purl.org/dc/dcmitype/StillImage" />
      </cc:Work>
    </rdf:RDF>
  </metadata>
  <defs
     id="defs3133" />
  <sodipodi:namedview
     pagecolor="#ffffff"
     bordercolor="#666666"
     borderopacity="1"
     objecttolerance="10"
     gridtolerance="10"
     guidetolerance="10"
     inkscape:pageopacity="0"
     inkscape:pageshadow="2"
     inkscape:window-width="640"
     inkscape:window-height="480"
     id="namedview3131"
     showgrid="false"
     inkscape:zoom="1.2291667"
     inkscape:cx="16.001026"
     inkscape:cy="34.038417"
     inkscape:window-x="0"
     inkscape:window-y="0"
     inkscape:window-maximized="0"
     inkscape:current-layer="svg3113" />
  <path
     style="fill:#aaaaaa;fill-opacity:0.94100001;fill-rule:evenodd"
     d="M 14.6875 4 C 12.007812 4.0546875 12 4.5 12 8 L 12 16 L 8 16 C 7.5 16 7.0703125 15.992188 6.6875 16 C 4.0078125 16.054688 4 16.5 4 20 L 4 32 C 4 36 4 36 8 36 L 12 36 L 12 25.3125 C 12.023438 26.460938 12.125 27.125 12.5 27.5 C 12.500713 27.502338 12.530536 27.497663 12.53125 27.5 C 14.033213 32.414955 18.59287 36 24 36 C 29.40713 36 33.967745 32.414955 35.46875 27.5 C 35.474803 27.494227 35.494088 27.505912 35.5 27.5 C 35.875 27.125 35.976562 26.460938 36 25.3125 L 36 36 L 40 36 C 44 36 44 36 44 32 L 44 20 C 44 16 44 16 40 16 L 36 16 L 36 8 C 36 3.601562 36 4 32 4 L 16 4 C 15.5 4 15.070312 3.9921875 14.6875 4 z M 36 36 L 24 36 L 12 36 L 12 44 L 36 44 L 36 36 z M 24 16 C 28.417969 16 32 19.582031 32 24 C 32 28.417969 28.417969 32 24 32 C 19.582031 32 16 28.417969 16 24 C 16 19.582031 19.582031 16 24 16 z M 27 18 C 25.34375 18 24 19.34375 24 21 C 24 22.65625 25.34375 24 27 24 C 28.65625 24 30 22.65625 30 21 C 30 19.34375 28.65625 18 27 18 z "
     id="path3117" />
</svg>
