<?xml version="1.0" encoding="UTF-8" standalone="no"?>
<svg
   xmlns:dc="http://purl.org/dc/elements/1.1/"
   xmlns:cc="http://creativecommons.org/ns#"
   xmlns:rdf="http://www.w3.org/1999/02/22-rdf-syntax-ns#"
   xmlns:svg="http://www.w3.org/2000/svg"
   xmlns="http://www.w3.org/2000/svg"
   xmlns:sodipodi="http://sodipodi.sourceforge.net/DTD/sodipodi-0.dtd"
   xmlns:inkscape="http://www.inkscape.org/namespaces/inkscape"
   width="48"
   height="48"
   viewBox="0 0 48 48"
   id="svg3183"
   version="1.1"
   inkscape:version="0.48.4 r9939"
   sodipodi:docname="document-save-as.svg">
  <metadata
     id="metadata3199">
    <rdf:RDF>
      <cc:Work
         rdf:about="">
        <dc:format>image/svg+xml</dc:format>
        <dc:type
           rdf:resource="http://purl.org/dc/dcmitype/StillImage" />
      </cc:Work>
    </rdf:RDF>
  </metadata>
  <defs
     id="defs3197" />
  <sodipodi:namedview
     pagecolor="#ffffff"
     bordercolor="#666666"
     borderopacity="1"
     objecttolerance="10"
     gridtolerance="10"
     guidetolerance="10"
     inkscape:pageopacity="0"
     inkscape:pageshadow="2"
     inkscape:window-width="1280"
     inkscape:window-height="998"
     id="namedview3195"
     showgrid="false"
     inkscape:zoom="1.7383042"
     inkscape:cx="-21.541416"
     inkscape:cy="-54.813234"
     inkscape:window-x="0"
     inkscape:window-y="0"
     inkscape:window-maximized="1"
     inkscape:current-layer="svg3183" />
  <path
     style="fill:#268bd2;fill-rule:evenodd"
     d="M 14 4 C 8 4 6 6 6 12 L 6 36 C 6 42 8 44 14 44 L 34 44 C 40 44 42 42 42 36 L 42 12 C 42 6 40 4 34 4 L 14 4 z M 20 13 L 28 13 L 28 15 L 20 15 L 20 13 z M 20 17 L 28 17 L 28 21 L 20 21 L 20 17 z M 15 23 L 33 23 L 24 33 L 15 23 z "
     id="path3187" />
</svg>
