<?xml version="1.0" encoding="UTF-8" standalone="no"?>
<svg
   xmlns:dc="http://purl.org/dc/elements/1.1/"
   xmlns:cc="http://creativecommons.org/ns#"
   xmlns:rdf="http://www.w3.org/1999/02/22-rdf-syntax-ns#"
   xmlns:svg="http://www.w3.org/2000/svg"
   xmlns="http://www.w3.org/2000/svg"
   xmlns:sodipodi="http://sodipodi.sourceforge.net/DTD/sodipodi-0.dtd"
   xmlns:inkscape="http://www.inkscape.org/namespaces/inkscape"
   width="48"
   height="48"
   viewBox="0 0 48 48"
   id="svg3023"
   version="1.1"
   inkscape:version="0.48.4 r9939"
   sodipodi:docname="document-export.svg">
  <metadata
     id="metadata3035">
    <rdf:RDF>
      <cc:Work
         rdf:about="">
        <dc:format>image/svg+xml</dc:format>
        <dc:type
           rdf:resource="http://purl.org/dc/dcmitype/StillImage" />
      </cc:Work>
    </rdf:RDF>
  </metadata>
  <defs
     id="defs3033" />
  <sodipodi:namedview
     pagecolor="#ffffff"
     bordercolor="#666666"
     borderopacity="1"
     objecttolerance="10"
     gridtolerance="10"
     guidetolerance="10"
     inkscape:pageopacity="0"
     inkscape:pageshadow="2"
     inkscape:window-width="672"
     inkscape:window-height="480"
     id="namedview3031"
     showgrid="false"
     inkscape:zoom="1.7383042"
     inkscape:cx="-10.13031"
     inkscape:cy="-4.5700195"
     inkscape:window-x="0"
     inkscape:window-y="0"
     inkscape:window-maximized="0"
     inkscape:current-layer="svg3023" />
  <path
     style="fill:#268bd2;fill-rule:evenodd;fill-opacity:1"
     d="M 6.6875 6 C 4.0078125 6.0546875 4 6.5 4 10 L 4 38 C 4 42 4 42 8 42 L 28 42 C 32 42 32 42 32 38 L 32 36.53125 L 29.90625 38.21875 C 27.992188 39.574218 28 36.46875 28 34.46875 C 27.96094 33.140624 28 32.4375 28 30.46875 C 19.75 30.296874 13.414062 32.726563 8 38.3125 C 7.914062 27.226563 14.335938 18.46875 28 18.46875 C 27.91406 16.46875 27.96094 14.90625 28 13.53125 C 28 9.734376 27.992188 9.183593 29.90625 10.71875 L 32 12.40625 L 32 10 C 32 6 32 6 28 6 L 8 6 C 7.5 6 7.0703125 5.9921875 6.6875 6 z M 32 12.40625 L 32 36.53125 L 43.65625 27.21875 C 46.414063 24.460937 46.40625 24.46875 43.65625 21.71875 L 32 12.40625 z "
     id="path3027" />
</svg>
