<?xml version="1.0" encoding="UTF-8" standalone="no"?>
<svg
   xmlns:dc="http://purl.org/dc/elements/1.1/"
   xmlns:cc="http://creativecommons.org/ns#"
   xmlns:rdf="http://www.w3.org/1999/02/22-rdf-syntax-ns#"
   xmlns:svg="http://www.w3.org/2000/svg"
   xmlns="http://www.w3.org/2000/svg"
   xmlns:sodipodi="http://sodipodi.sourceforge.net/DTD/sodipodi-0.dtd"
   xmlns:inkscape="http://www.inkscape.org/namespaces/inkscape"
   width="48"
   height="48"
   viewBox="0 0 48 48"
   id="svg3153"
   version="1.1"
   inkscape:version="0.48.4 r9939"
   sodipodi:docname="document-revert.svg">
  <metadata
     id="metadata3163">
    <rdf:RDF>
      <cc:Work
         rdf:about="">
        <dc:format>image/svg+xml</dc:format>
        <dc:type
           rdf:resource="http://purl.org/dc/dcmitype/StillImage" />
      </cc:Work>
    </rdf:RDF>
  </metadata>
  <defs
     id="defs3161" />
  <sodipodi:namedview
     pagecolor="#ffffff"
     bordercolor="#666666"
     borderopacity="1"
     objecttolerance="10"
     gridtolerance="10"
     guidetolerance="10"
     inkscape:pageopacity="0"
     inkscape:pageshadow="2"
     inkscape:window-width="640"
     inkscape:window-height="480"
     id="namedview3159"
     showgrid="false"
     inkscape:zoom="3.4766083"
     inkscape:cx="26.286815"
     inkscape:cy="19.204271"
     inkscape:window-x="0"
     inkscape:window-y="0"
     inkscape:window-maximized="0"
     inkscape:current-layer="svg3153" />
  <path
     style="fill:#859900;fill-rule:evenodd;fill-opacity:1"
     d="M 8.6875 4 C 6.0078125 4.0546875 6 4.5 6 8 L 6 36 C 6 40 6 40 10 40 L 19 40 L 14 36 C 13.347656 35.476562 13.347656 34.523438 14 34 L 24 26 C 26 26 26 28 26 30 C 33 30 33.890625 29.988281 34 25.96875 L 34 36 C 34 39.5 33.992188 39.945312 31.3125 40 L 34 40 C 34 40 40 40.507813 40 32.6875 C 40 24.863282 34 24 34 24 L 34 8 C 34 4 34 4 30 4 L 10 4 C 9.5 4 9.0703125 3.9921875 8.6875 4 z M 19 40 L 24 44 C 26 44 26 41.945312 26 40 L 19 40 z "
     id="path3155" />
</svg>
