<?xml version="1.0" encoding="UTF-8" standalone="no"?>
<svg
   xmlns:dc="http://purl.org/dc/elements/1.1/"
   xmlns:cc="http://creativecommons.org/ns#"
   xmlns:rdf="http://www.w3.org/1999/02/22-rdf-syntax-ns#"
   xmlns:svg="http://www.w3.org/2000/svg"
   xmlns="http://www.w3.org/2000/svg"
   xmlns:sodipodi="http://sodipodi.sourceforge.net/DTD/sodipodi-0.dtd"
   xmlns:inkscape="http://www.inkscape.org/namespaces/inkscape"
   width="48"
   height="48"
   viewBox="0 0 48 48"
   id="svg3037"
   version="1.1"
   inkscape:version="0.48.4 r9939"
   sodipodi:docname="document-new.svg">
  <metadata
     id="metadata3047">
    <rdf:RDF>
      <cc:Work
         rdf:about="">
        <dc:format>image/svg+xml</dc:format>
        <dc:type
           rdf:resource="http://purl.org/dc/dcmitype/StillImage" />
      </cc:Work>
    </rdf:RDF>
  </metadata>
  <defs
     id="defs3045" />
  <sodipodi:namedview
     pagecolor="#ffffff"
     bordercolor="#666666"
     borderopacity="1"
     objecttolerance="10"
     gridtolerance="10"
     guidetolerance="10"
     inkscape:pageopacity="0"
     inkscape:pageshadow="2"
     inkscape:window-width="640"
     inkscape:window-height="480"
     id="namedview3043"
     showgrid="true"
     inkscape:zoom="1.7383042"
     inkscape:cx="71.746834"
     inkscape:cy="20.302561"
     inkscape:window-x="0"
     inkscape:window-y="0"
     inkscape:window-maximized="0"
     inkscape:current-layer="svg3037">
    <inkscape:grid
       type="xygrid"
       id="grid12402" />
  </sodipodi:namedview>
  <path
     style="fill:#859900;fill-rule:evenodd;fill-opacity:1"
     d="M 12.6875 6 C 10.007812 6.0546875 10 6.5 10 10 L 10 38 C 10 42 10 42 14 42 L 34 42 C 38 42 38 42 38 38 L 38 10 C 38 6 38 6 34 6 L 14 6 C 13.5 6 13.070312 5.9921875 12.6875 6 z M 20 12 L 28 12 L 28 20 L 36 20 L 36 28 L 28 28 L 28 36 L 20 36 L 20 28 L 12 28 L 12 20 L 20 20 L 20 12 z "
     id="path3039" />
</svg>
