<?xml version="1.0" encoding="UTF-8" standalone="no"?>
<svg
   xmlns:dc="http://purl.org/dc/elements/1.1/"
   xmlns:cc="http://creativecommons.org/ns#"
   xmlns:rdf="http://www.w3.org/1999/02/22-rdf-syntax-ns#"
   xmlns:svg="http://www.w3.org/2000/svg"
   xmlns="http://www.w3.org/2000/svg"
   xmlns:sodipodi="http://sodipodi.sourceforge.net/DTD/sodipodi-0.dtd"
   xmlns:inkscape="http://www.inkscape.org/namespaces/inkscape"
   width="48"
   height="48"
   viewBox="0 0 48 48"
   id="svg3061"
   version="1.1"
   inkscape:version="0.48.4 r9939"
   sodipodi:docname="document-open-recent.svg">
  <metadata
     id="metadata3075">
    <rdf:RDF>
      <cc:Work
         rdf:about="">
        <dc:format>image/svg+xml</dc:format>
        <dc:type
           rdf:resource="http://purl.org/dc/dcmitype/StillImage" />
      </cc:Work>
    </rdf:RDF>
  </metadata>
  <defs
     id="defs3073" />
  <sodipodi:namedview
     pagecolor="#ffffff"
     bordercolor="#666666"
     borderopacity="1"
     objecttolerance="10"
     gridtolerance="10"
     guidetolerance="10"
     inkscape:pageopacity="0"
     inkscape:pageshadow="2"
     inkscape:window-width="1280"
     inkscape:window-height="998"
     id="namedview3071"
     showgrid="false"
     inkscape:zoom="2.4583333"
     inkscape:cx="1.7419889"
     inkscape:cy="5.7443087"
     inkscape:window-x="0"
     inkscape:window-y="0"
     inkscape:window-maximized="1"
     inkscape:current-layer="svg3061">
    <inkscape:grid
       type="xygrid"
       id="grid12398" />
  </sodipodi:namedview>
  <path
     style="fill:#a57953;stroke:#a57953;stroke-width:1.88600004"
     d="M 10.0625 8.9375 C 9.472656 8.9375 8.9375 9.628906 8.9375 10.375 L 8.9375 18 L 5.5 18 L 5.375 18 L 5.34375 18 C 4.605469 18 4 18.558594 4 19.125 L 4 40.875 C 4 41.496094 4.710938 42 5.5 42 L 42.5 42 C 43.300781 42 44 41.496094 44 40.875 L 44 21.15625 C 44 20.554688 43.300781 20 42.5 20 L 39.0625 20 L 39.0625 10.375 C 39.0625 9.628906 38.535156 8.9375 37.9375 8.9375 L 10.0625 8.9375 z M 23.75 19.28125 C 25.456543 19.28125 27.164062 19.740234 28.6875 20.625 C 31.738281 22.394531 33.60156 25.65625 33.53125 29.15625 C 33.601562 32.652344 31.738281 35.917968 28.6875 37.6875 C 25.640625 39.457031 21.863281 39.457031 18.8125 37.6875 C 15.761719 35.917968 13.92578 32.652344 14 29.15625 C 13.925782 25.65625 15.761719 22.394531 18.8125 20.625 C 20.337891 19.740234 22.043457 19.28125 23.75 19.28125 z M 29.09375 22.9375 C 28.886719 23.011719 28.710938 23.160157 28.59375 23.34375 L 23.28125 28.5625 L 19.96875 25.34375 C 19.835937 24.902344 19.402344 24.60156 18.9375 24.625 C 18.476563 24.652343 18.08594 25.015625 18 25.46875 C 17.917969 25.925781 18.167969 26.378907 18.59375 26.5625 L 22.59375 30.5625 C 22.976563 30.921875 23.585937 30.921875 23.96875 30.5625 L 29.96875 24.5625 C 30.203124 24.253907 30.214843 23.8125 30.03125 23.46875 C 29.847656 23.125 29.480469 22.91406 29.09375 22.9375 z "
     id="path3063" />
</svg>
