<?xml version="1.0" encoding="UTF-8" standalone="no"?>
<svg
   xmlns:dc="http://purl.org/dc/elements/1.1/"
   xmlns:cc="http://creativecommons.org/ns#"
   xmlns:rdf="http://www.w3.org/1999/02/22-rdf-syntax-ns#"
   xmlns:svg="http://www.w3.org/2000/svg"
   xmlns="http://www.w3.org/2000/svg"
   xmlns:sodipodi="http://sodipodi.sourceforge.net/DTD/sodipodi-0.dtd"
   xmlns:inkscape="http://www.inkscape.org/namespaces/inkscape"
   width="48"
   height="48"
   viewBox="0 0 48 48"
   id="svg3305"
   version="1.1"
   inkscape:version="0.48.4 r9939"
   sodipodi:docname="edit-find-replace.svg">
  <metadata
     id="metadata3327">
    <rdf:RDF>
      <cc:Work
         rdf:about="">
        <dc:format>image/svg+xml</dc:format>
        <dc:type
           rdf:resource="http://purl.org/dc/dcmitype/StillImage" />
      </cc:Work>
    </rdf:RDF>
  </metadata>
  <defs
     id="defs3325" />
  <sodipodi:namedview
     pagecolor="#ffffff"
     bordercolor="#666666"
     borderopacity="1"
     objecttolerance="10"
     gridtolerance="10"
     guidetolerance="10"
     inkscape:pageopacity="0"
     inkscape:pageshadow="2"
     inkscape:window-width="640"
     inkscape:window-height="480"
     id="namedview3323"
     showgrid="false"
     inkscape:zoom="2.4583333"
     inkscape:cx="0.26528649"
     inkscape:cy="15.029348"
     inkscape:window-x="0"
     inkscape:window-y="0"
     inkscape:window-maximized="0"
     inkscape:current-layer="svg3305" />
  <path
     style="fill:#2aa198;fill-rule:evenodd;fill-opacity:1"
     d="M 20 5.53125 C 12.112853 6.5210341 6 13.210951 6 21.375 C 6 30.214844 13.160156 37.375 22 37.375 C 24.441406 37.375 26.734375 36.835938 28.8125 35.875 L 34.8125 41.875 C 37.632812 44.714844 37.660156 44.714844 40.5 41.875 C 43.320312 39.054688 43.320312 39.027344 40.5 36.1875 L 35 30.6875 C 36.397622 28.723275 37.371759 26.466013 37.78125 24 L 29.53125 24 C 28.443152 27.124828 25.496408 29.375 22 29.375 C 17.582031 29.375 14 25.792969 14 21.375 C 13.996647 17.660908 16.543014 14.519824 20 13.625 L 20 5.53125 z "
     id="path3309" />
  <path
     style="fill:#2aa198;fill-opacity:1"
     inkscape:connector-curvature="0"
     id="path3319"
     d="m 24,8 0,4 16,0 0,-4 z" />
  <path
     style="fill:#2aa198;fill-opacity:1"
     inkscape:connector-curvature="0"
     id="path3321"
     d="m 24,16 0,4 16,0 0,-4 z" />
  <path
     id="path11805"
     d="M 20 5.53125 C 12.112853 6.5210341 6 13.210951 6 21.375 C 6 30.214844 13.160156 37.375 22 37.375 C 24.441406 37.375 26.734375 36.835938 28.8125 35.875 L 34.8125 41.875 C 37.632812 44.714844 37.660156 44.714844 40.5 41.875 C 43.320312 39.054688 43.320312 39.027344 40.5 36.1875 L 35 30.6875 C 36.397622 28.723275 37.371759 26.466013 37.78125 24 L 29.53125 24 C 28.443152 27.124828 25.496408 29.375 22 29.375 C 17.582031 29.375 14 25.792969 14 21.375 C 13.996647 17.660908 16.543014 14.519824 20 13.625 L 20 5.53125 z "
     style="fill:#2aa198;fill-rule:evenodd;fill-opacity:1" />
</svg>
