<?xml version="1.0" encoding="UTF-8" standalone="no"?>
<svg
   xmlns:dc="http://purl.org/dc/elements/1.1/"
   xmlns:cc="http://creativecommons.org/ns#"
   xmlns:rdf="http://www.w3.org/1999/02/22-rdf-syntax-ns#"
   xmlns:svg="http://www.w3.org/2000/svg"
   xmlns="http://www.w3.org/2000/svg"
   xmlns:sodipodi="http://sodipodi.sourceforge.net/DTD/sodipodi-0.dtd"
   xmlns:inkscape="http://www.inkscape.org/namespaces/inkscape"
   width="48"
   height="48"
   viewBox="0 0 48 48"
   id="svg3269"
   version="1.1"
   inkscape:version="0.48.4 r9939"
   sodipodi:docname="edit-delete.svg">
  <metadata
     id="metadata3287">
    <rdf:RDF>
      <cc:Work
         rdf:about="">
        <dc:format>image/svg+xml</dc:format>
        <dc:type
           rdf:resource="http://purl.org/dc/dcmitype/StillImage" />
      </cc:Work>
    </rdf:RDF>
  </metadata>
  <defs
     id="defs3285" />
  <sodipodi:namedview
     pagecolor="#ffffff"
     bordercolor="#666666"
     borderopacity="1"
     objecttolerance="10"
     gridtolerance="10"
     guidetolerance="10"
     inkscape:pageopacity="0"
     inkscape:pageshadow="2"
     inkscape:window-width="640"
     inkscape:window-height="480"
     id="namedview3283"
     showgrid="false"
     inkscape:zoom="4.9166667"
     inkscape:cx="24"
     inkscape:cy="24"
     inkscape:window-x="0"
     inkscape:window-y="0"
     inkscape:window-maximized="0"
     inkscape:current-layer="svg3269" />
  <path
     style="fill:#dc322f"
     d="M 10 16 L 10 40 C 10 44 10 44 14 44 L 34 44 C 38 44 38 44 38 40 L 38 16 L 10 16 z M 14 20 L 18 20 L 18 40 L 14 40 L 14 20 z M 22 20 L 26 20 L 26 40 L 22 40 L 22 20 z M 30 20 L 34 20 L 34 40 L 30 40 L 30 20 z "
     id="path3271" />
  <path
     style="fill:#dc322f"
     d="M 10 12 L 38 12 L 38 8 L 30 8 L 30 4 L 18 4 L 18 8 L 10 8 Z "
     id="path3281" />
</svg>
