<?xml version="1.0" encoding="UTF-8" standalone="no"?>
<svg
   xmlns:dc="http://purl.org/dc/elements/1.1/"
   xmlns:cc="http://creativecommons.org/ns#"
   xmlns:rdf="http://www.w3.org/1999/02/22-rdf-syntax-ns#"
   xmlns:svg="http://www.w3.org/2000/svg"
   xmlns="http://www.w3.org/2000/svg"
   xmlns:sodipodi="http://sodipodi.sourceforge.net/DTD/sodipodi-0.dtd"
   xmlns:inkscape="http://www.inkscape.org/namespaces/inkscape"
   width="48"
   height="48"
   viewBox="0 0 48 48"
   id="svg3257"
   version="1.1"
   inkscape:version="0.48.4 r9939"
   sodipodi:docname="edit-cut.svg">
  <metadata
     id="metadata3267">
    <rdf:RDF>
      <cc:Work
         rdf:about="">
        <dc:format>image/svg+xml</dc:format>
        <dc:type
           rdf:resource="http://purl.org/dc/dcmitype/StillImage" />
      </cc:Work>
    </rdf:RDF>
  </metadata>
  <defs
     id="defs3265" />
  <sodipodi:namedview
     pagecolor="#ffffff"
     bordercolor="#666666"
     borderopacity="1"
     objecttolerance="10"
     gridtolerance="10"
     guidetolerance="10"
     inkscape:pageopacity="0"
     inkscape:pageshadow="2"
     inkscape:window-width="640"
     inkscape:window-height="480"
     id="namedview3263"
     showgrid="false"
     inkscape:zoom="4.9166667"
     inkscape:cx="24"
     inkscape:cy="24"
     inkscape:window-x="0"
     inkscape:window-y="0"
     inkscape:window-maximized="0"
     inkscape:current-layer="svg3257" />
  <path
     style="fill:#aaaaaa;fill-opacity:1"
     d="M 8 4 C 8 15.993034 10.986514 20.246382 15.5625 23.15625 L 7.8125 29.25 C 6.253907 30.25 5.035156 31.675782 4.4375 33.4375 L 4 34 L 4.3125 33.9375 C 4.132813 34.597656 4 35.28125 4 36 C 4 40.421875 7.578125 44 12 44 C 16.421875 44 20 40.421875 20 36 C 20 34.21875 19.417969 32.632813 18.4375 31.3125 C 20.349555 29.770708 22.211458 28.615772 24 27.625 C 25.788542 28.615772 27.650445 29.770708 29.5625 31.3125 C 28.582031 32.632813 28 34.21875 28 36 C 28 40.421875 31.578125 44 36 44 C 40.421875 44 44 40.421875 44 36 C 44 35.28125 43.808593 34.597656 43.6875 33.9375 L 44 34 L 43.5625 33.4375 C 42.964844 31.675782 41.746093 30.25 40.1875 29.25 L 32.4375 23.15625 C 37.013486 20.246382 40 15.993034 40 4 L 24 16.5625 L 8 4 z M 12 32 C 14.199219 32 16 33.800781 16 36 C 16 38.199219 14.199219 40 12 40 C 9.800781 40 8 38.199219 8 36 C 8 33.800781 9.800781 32 12 32 z M 36 32 C 38.199219 32 40 33.800781 40 36 C 40 38.199219 38.199219 40 36 40 C 33.800781 40 32 38.199219 32 36 C 32 33.800781 33.800781 32 36 32 z "
     id="path3259" />
</svg>
