<?xml version="1.0" encoding="UTF-8" standalone="no"?>
<svg
   xmlns:dc="http://purl.org/dc/elements/1.1/"
   xmlns:cc="http://creativecommons.org/ns#"
   xmlns:rdf="http://www.w3.org/1999/02/22-rdf-syntax-ns#"
   xmlns:svg="http://www.w3.org/2000/svg"
   xmlns="http://www.w3.org/2000/svg"
   xmlns:sodipodi="http://sodipodi.sourceforge.net/DTD/sodipodi-0.dtd"
   xmlns:inkscape="http://www.inkscape.org/namespaces/inkscape"
   width="48"
   height="48"
   viewBox="0 0 48 48"
   id="svg3289"
   version="1.1"
   inkscape:version="0.48.4 r9939"
   sodipodi:docname="edit-find.svg">
  <metadata
     id="metadata3303">
    <rdf:RDF>
      <cc:Work
         rdf:about="">
        <dc:format>image/svg+xml</dc:format>
        <dc:type
           rdf:resource="http://purl.org/dc/dcmitype/StillImage" />
      </cc:Work>
    </rdf:RDF>
  </metadata>
  <defs
     id="defs3301" />
  <sodipodi:namedview
     pagecolor="#ffffff"
     bordercolor="#666666"
     borderopacity="1"
     objecttolerance="10"
     gridtolerance="10"
     guidetolerance="10"
     inkscape:pageopacity="0"
     inkscape:pageshadow="2"
     inkscape:window-width="640"
     inkscape:window-height="480"
     id="namedview3299"
     showgrid="false"
     inkscape:zoom="4.9166667"
     inkscape:cx="24"
     inkscape:cy="24"
     inkscape:window-x="0"
     inkscape:window-y="0"
     inkscape:window-maximized="0"
     inkscape:current-layer="svg3289" />
  <path
     inkscape:connector-curvature="0"
     id="path3293"
     d="m 22,5.375 c -8.839844,0 -16,7.152344 -16,16 0,8.839844 7.160156,16 16,16 2.441406,0 4.734375,-0.539062 6.8125,-1.5 l 6,6 c 2.820312,2.839844 2.847656,2.839844 5.6875,0 2.820312,-2.820312 2.820312,-2.847656 0,-5.6875 l -5.5,-5.5 c 1.878906,-2.640625 3,-5.832031 3,-9.3125 0,-8.847656 -7.160156,-16 -16,-16 z m -0.25,8 c 2.164062,-0.06641 4.265625,0.746094 5.820312,2.253906 C 29.125,17.136719 30,19.210938 30,21.375 c 0,4.417969 -3.582031,7.996094 -8,7.996094 -4.417969,0 -8,-3.578125 -8,-7.996094 -0.0039,-4.320312 3.429688,-7.863281 7.75,-8 z"
     style="fill:#2aa198;fill-rule:evenodd" />
  <path
     inkscape:connector-curvature="0"
     id="path3295"
     d="m 14,21.371094 c 0,4.417968 3.582031,8 8,8 4.417969,0 8,-3.582032 8,-8 C 30,16.953125 26.417969,13.375 22,13.375 c -4.417969,0 -8,3.578125 -8,7.996094 z"
     style="fill:#ffffff;fill-rule:evenodd" />
</svg>
