<?xml version="1.0" encoding="UTF-8" standalone="no"?>
<svg
   xmlns:dc="http://purl.org/dc/elements/1.1/"
   xmlns:cc="http://creativecommons.org/ns#"
   xmlns:rdf="http://www.w3.org/1999/02/22-rdf-syntax-ns#"
   xmlns:svg="http://www.w3.org/2000/svg"
   xmlns="http://www.w3.org/2000/svg"
   xmlns:sodipodi="http://sodipodi.sourceforge.net/DTD/sodipodi-0.dtd"
   xmlns:inkscape="http://www.inkscape.org/namespaces/inkscape"
   width="48"
   height="48"
   viewBox="0 0 48 48"
   id="svg3591"
   version="1.1"
   inkscape:version="0.48.4 r9939"
   sodipodi:docname="format-text-strikethrough.svg">
  <metadata
     id="metadata3605">
    <rdf:RDF>
      <cc:Work
         rdf:about="">
        <dc:format>image/svg+xml</dc:format>
        <dc:type
           rdf:resource="http://purl.org/dc/dcmitype/StillImage" />
      </cc:Work>
    </rdf:RDF>
  </metadata>
  <defs
     id="defs3603" />
  <sodipodi:namedview
     pagecolor="#ffffff"
     bordercolor="#666666"
     borderopacity="1"
     objecttolerance="10"
     gridtolerance="10"
     guidetolerance="10"
     inkscape:pageopacity="0"
     inkscape:pageshadow="2"
     inkscape:window-width="672"
     inkscape:window-height="480"
     id="namedview3601"
     showgrid="false"
     inkscape:zoom="4.9166667"
     inkscape:cx="17.694915"
     inkscape:cy="24"
     inkscape:window-x="0"
     inkscape:window-y="0"
     inkscape:window-maximized="0"
     inkscape:current-layer="svg3591" />
  <path
     style="fill:#268bd2"
     inkscape:connector-curvature="0"
     id="path3595"
     d="m 12,8 0,6 18,0 c 1.222656,0 2,2.765625 2,4 l 6,0 C 38,12.769531 34.515625,8 29.714844,8 z" />
  <path
     style="fill:#268bd2"
     inkscape:connector-curvature="0"
     id="path3597"
     d="m 10,32 c 0,4 0.484375,5.046875 1.945312,6.898438 C 13.410156,40.75 15.40625,42 18,42 c 6.667969,0 13.332031,0 20,0 0,-3.199219 0,-6.800781 0,-10 l -6,0 0,4 -14,0 C 16.863281,36 16.664062,35.25 16.230469,34.699219 15.796875,34.152344 16.007812,32.894531 16,32 z" />
  <path
     style="fill:#268bd2"
     inkscape:connector-curvature="0"
     id="path3599"
     d="m 4,22 0,6 40,0 0,-6 z" />
</svg>
