<?xml version="1.0" encoding="UTF-8" standalone="no"?>
<svg
   xmlns:dc="http://purl.org/dc/elements/1.1/"
   xmlns:cc="http://creativecommons.org/ns#"
   xmlns:rdf="http://www.w3.org/1999/02/22-rdf-syntax-ns#"
   xmlns:svg="http://www.w3.org/2000/svg"
   xmlns="http://www.w3.org/2000/svg"
   xmlns:sodipodi="http://sodipodi.sourceforge.net/DTD/sodipodi-0.dtd"
   xmlns:inkscape="http://www.inkscape.org/namespaces/inkscape"
   width="48"
   height="48"
   viewBox="0 0 48 48"
   id="svg3607"
   version="1.1"
   inkscape:version="0.48.4 r9939"
   sodipodi:docname="format-text-underline.svg">
  <metadata
     id="metadata3619">
    <rdf:RDF>
      <cc:Work
         rdf:about="">
        <dc:format>image/svg+xml</dc:format>
        <dc:type
           rdf:resource="http://purl.org/dc/dcmitype/StillImage" />
      </cc:Work>
    </rdf:RDF>
  </metadata>
  <defs
     id="defs3617" />
  <sodipodi:namedview
     pagecolor="#ffffff"
     bordercolor="#666666"
     borderopacity="1"
     objecttolerance="10"
     gridtolerance="10"
     guidetolerance="10"
     inkscape:pageopacity="0"
     inkscape:pageshadow="2"
     inkscape:window-width="640"
     inkscape:window-height="480"
     id="namedview3615"
     showgrid="false"
     inkscape:zoom="4.9166667"
     inkscape:cx="24"
     inkscape:cy="24"
     inkscape:window-x="0"
     inkscape:window-y="0"
     inkscape:window-maximized="0"
     inkscape:current-layer="svg3607" />
  <path
     style="fill:#268bd2"
     inkscape:connector-curvature="0"
     id="path3611"
     d="m 12,6 0,6 18,0 c 1.371094,0 4.132812,0.929688 4,2 l 0,2 -16,0 C 10,16 8,20 8,25.601562 8,30 10,34 17.601562,34 L 40,34 40,14.398438 C 40,9.824219 35.777344,6 30.398438,6 z m 6,16 16,0 0,6 -16,0 C 16,28 14,28 14,25.121094 14,22 16,22 18,22 z" />
  <path
     style="fill:#268bd2"
     inkscape:connector-curvature="0"
     id="path3613"
     d="m 4,38 0,6 40,0 0,-6 z" />
</svg>
