<?xml version="1.0" encoding="UTF-8" standalone="no"?>
<svg
   xmlns:dc="http://purl.org/dc/elements/1.1/"
   xmlns:cc="http://creativecommons.org/ns#"
   xmlns:rdf="http://www.w3.org/1999/02/22-rdf-syntax-ns#"
   xmlns:svg="http://www.w3.org/2000/svg"
   xmlns="http://www.w3.org/2000/svg"
   xmlns:sodipodi="http://sodipodi.sourceforge.net/DTD/sodipodi-0.dtd"
   xmlns:inkscape="http://www.inkscape.org/namespaces/inkscape"
   width="48"
   height="48"
   viewBox="0 0 48 48"
   id="svg3621"
   version="1.1"
   inkscape:version="0.48.4 r9939"
   sodipodi:docname="go-bottom.svg">
  <metadata
     id="metadata3635">
    <rdf:RDF>
      <cc:Work
         rdf:about="">
        <dc:format>image/svg+xml</dc:format>
        <dc:type
           rdf:resource="http://purl.org/dc/dcmitype/StillImage" />
      </cc:Work>
    </rdf:RDF>
  </metadata>
  <defs
     id="defs3633" />
  <sodipodi:namedview
     pagecolor="#ffffff"
     bordercolor="#666666"
     borderopacity="1"
     objecttolerance="10"
     gridtolerance="10"
     guidetolerance="10"
     inkscape:pageopacity="0"
     inkscape:pageshadow="2"
     inkscape:window-width="640"
     inkscape:window-height="480"
     id="namedview3631"
     showgrid="false"
     inkscape:zoom="4.9166667"
     inkscape:cx="24"
     inkscape:cy="24"
     inkscape:window-x="0"
     inkscape:window-y="0"
     inkscape:window-maximized="0"
     inkscape:current-layer="svg3621" />
  <path
     style="fill:#268bd2;fill-rule:evenodd"
     d="M 24 4 C 12.957031 4 4 12.957031 4 24 C 4 28.503049 5.487134 32.656548 8 36 C 8.00378 36.005029 8.0274654 35.994974 8.03125 36 L 24 36 C 23.390624 36 22.808593 35.738281 22.375 35.3125 L 14.6875 27.875 C 13.789062 27 13.789062 25.5625 14.6875 24.6875 C 15.589843 23.8125 17.039062 23.8125 17.9375 24.6875 L 22 28.625 L 22 12 L 26 12 L 26 28.625 L 30.0625 24.6875 C 30.722656 24.019531 31.75 23.824219 32.625 24.1875 C 33.503906 24.550781 34.03125 25.382812 34 26.3125 C 33.984374 26.898438 33.738281 27.472656 33.3125 27.875 L 25.625 35.3125 C 25.195312 35.738281 24.613281 36 24 36 L 39.96875 36 C 39.972535 35.994974 39.99622 36.005029 40 36 C 42.512866 32.656548 44 28.503049 44 24 C 44 12.957031 35.042969 4 24 4 z "
     id="path3625" />
</svg>
