<?xml version="1.0" encoding="UTF-8" standalone="no"?>
<svg
   xmlns:dc="http://purl.org/dc/elements/1.1/"
   xmlns:cc="http://creativecommons.org/ns#"
   xmlns:rdf="http://www.w3.org/1999/02/22-rdf-syntax-ns#"
   xmlns:svg="http://www.w3.org/2000/svg"
   xmlns="http://www.w3.org/2000/svg"
   xmlns:sodipodi="http://sodipodi.sourceforge.net/DTD/sodipodi-0.dtd"
   xmlns:inkscape="http://www.inkscape.org/namespaces/inkscape"
   width="48"
   height="48"
   viewBox="0 0 48 48"
   id="svg3749"
   version="1.1"
   inkscape:version="0.48.4 r9939"
   sodipodi:docname="go-up.svg">
  <metadata
     id="metadata3759">
    <rdf:RDF>
      <cc:Work
         rdf:about="">
        <dc:format>image/svg+xml</dc:format>
        <dc:type
           rdf:resource="http://purl.org/dc/dcmitype/StillImage" />
      </cc:Work>
    </rdf:RDF>
  </metadata>
  <defs
     id="defs3757" />
  <sodipodi:namedview
     pagecolor="#ffffff"
     bordercolor="#666666"
     borderopacity="1"
     objecttolerance="10"
     gridtolerance="10"
     guidetolerance="10"
     inkscape:pageopacity="0"
     inkscape:pageshadow="2"
     inkscape:window-width="640"
     inkscape:window-height="480"
     id="namedview3755"
     showgrid="false"
     inkscape:zoom="4.9166667"
     inkscape:cx="24"
     inkscape:cy="24"
     inkscape:window-x="454"
     inkscape:window-y="307"
     inkscape:window-maximized="0"
     inkscape:current-layer="svg3749" />
  <path
     style="fill:#268bd2;fill-rule:evenodd"
     d="M 24 4 C 12.957031 4 4 12.957031 4 24 C 4 35.042969 12.957031 44 24 44 C 35.042969 44 44 35.042969 44 24 C 44 12.957031 35.042969 4 24 4 z M 24 12 C 24.609376 12 25.191407 12.261719 25.625 12.6875 L 33.3125 20.125 C 34.210938 21 34.210938 22.4375 33.3125 23.3125 C 32.410157 24.1875 30.960938 24.1875 30.0625 23.3125 L 26 19.375 L 26 36 L 22 36 L 22 19.375 L 17.9375 23.3125 C 17.277344 23.980469 16.25 24.175781 15.375 23.8125 C 14.496094 23.449219 13.96875 22.617188 14 21.6875 C 14.015626 21.101562 14.261719 20.527344 14.6875 20.125 L 22.375 12.6875 C 22.804688 12.261719 23.386719 12 24 12 z "
     id="path3751" />
</svg>
