<?xml version="1.0" encoding="UTF-8" standalone="no"?>
<svg
   xmlns:dc="http://purl.org/dc/elements/1.1/"
   xmlns:cc="http://creativecommons.org/ns#"
   xmlns:rdf="http://www.w3.org/1999/02/22-rdf-syntax-ns#"
   xmlns:svg="http://www.w3.org/2000/svg"
   xmlns="http://www.w3.org/2000/svg"
   xmlns:sodipodi="http://sodipodi.sourceforge.net/DTD/sodipodi-0.dtd"
   xmlns:inkscape="http://www.inkscape.org/namespaces/inkscape"
   width="48"
   height="48"
   viewBox="0 0 48 48"
   id="svg3795"
   version="1.1"
   inkscape:version="0.48.4 r9939"
   sodipodi:docname="help-faq.svg">
  <metadata
     id="metadata3807">
    <rdf:RDF>
      <cc:Work
         rdf:about="">
        <dc:format>image/svg+xml</dc:format>
        <dc:type
           rdf:resource="http://purl.org/dc/dcmitype/StillImage" />
      </cc:Work>
    </rdf:RDF>
  </metadata>
  <defs
     id="defs3805" />
  <sodipodi:namedview
     pagecolor="#ffffff"
     bordercolor="#666666"
     borderopacity="1"
     objecttolerance="10"
     gridtolerance="10"
     guidetolerance="10"
     inkscape:pageopacity="0"
     inkscape:pageshadow="2"
     inkscape:window-width="640"
     inkscape:window-height="480"
     id="namedview3803"
     showgrid="false"
     inkscape:zoom="4.9166667"
     inkscape:cx="24"
     inkscape:cy="24"
     inkscape:window-x="0"
     inkscape:window-y="0"
     inkscape:window-maximized="0"
     inkscape:current-layer="svg3795" />
  <path
     style="fill:#268bd2;fill-rule:evenodd"
     d="M 24 4 C 12.953125 4 4 12.953125 4 24 C 4 35.042969 12.957031 44 24 44 C 35.042969 44 44 35.042969 44 24 C 44 12.953125 35.046875 4 24 4 z M 24.21875 12 C 26.601563 12 28.476563 12.511719 29.875 13.5625 C 31.285157 14.609375 32 16.03125 32 17.78125 C 32 18.945313 31.703126 19.933594 31.125 20.78125 C 30.546876 21.628907 29.460937 22.597656 27.84375 23.65625 C 26.730468 24.410156 26.019531 24.984374 25.71875 25.375 C 25.429688 25.765624 25.28125 26.269532 25.28125 26.90625 L 25.28125 27.875 L 20.6875 27.875 L 20.6875 26.6875 C 20.6875 25.667969 20.929687 24.785156 21.40625 24.03125 C 21.878906 23.28125 22.738281 22.472657 24 21.625 C 25.214844 20.828126 26.023438 20.1875 26.40625 19.6875 C 26.800781 19.191406 27 18.644531 27 18.03125 C 27 17.34375 26.710937 16.800781 26.15625 16.4375 C 25.601562 16.078125 24.804687 15.90625 23.8125 15.90625 C 22.074219 15.90625 20.097656 16.429688 17.875 17.46875 L 16 14 C 18.578125 12.675781 21.328125 12 24.21875 12 z M 23.1875 30.59375 C 24.148437 30.59375 24.886719 30.84375 25.40625 31.3125 C 25.9375 31.777344 26.1875 32.445313 26.1875 33.3125 C 26.1875 34.152344 25.9375 34.792969 25.40625 35.28125 C 24.875 35.757813 24.136718 36 23.1875 36 C 22.214844 36 21.46875 35.777344 20.9375 35.3125 C 20.402343 34.835938 20.125 34.171875 20.125 33.3125 C 20.125 32.421875 20.386719 31.734375 20.90625 31.28125 C 21.429688 30.824219 22.195312 30.59375 23.1875 30.59375 z "
     id="path3797" />
  <path
     style="fill:#fff"
     d="M 20.683594 27.863281 L 20.683594 26.6875 C 20.683594 25.667969 20.921875 24.785156 21.398438 24.03125 C 21.871094 23.28125 22.738281 22.480469 24 21.632812 C 25.214844 20.835938 26.011719 20.191406 26.394531 19.691406 C 26.789062 19.195312 26.984375 18.636719 26.984375 18.023438 C 26.984375 17.335938 26.707031 16.8125 26.152344 16.449219 C 25.597656 16.089844 24.820312 15.910156 23.828125 15.910156 C 22.089844 15.910156 20.113281 16.429688 17.890625 17.46875 L 16 13.988281 C 18.578125 12.664062 21.316406 12 24.207031 12 C 26.589844 12 28.484375 12.523438 29.882812 13.574219 C 31.292969 14.621094 32 16.019531 32 17.769531 C 32 18.933594 31.710938 19.941406 31.132812 20.789062 C 30.554688 21.636719 29.453125 22.589844 27.835938 23.648438 C 26.722656 24.402344 26.019531 24.976562 25.71875 25.367188 C 25.429688 25.757812 25.285156 26.273438 25.285156 26.910156 L 25.285156 27.863281 L 20.683594 27.863281 M 20.128906 33.296875 C 20.128906 32.40625 20.390625 31.734375 20.910156 31.28125 C 21.433594 30.824219 22.191406 30.597656 23.183594 30.597656 C 24.144531 30.597656 24.886719 30.828125 25.40625 31.296875 C 25.9375 31.761719 26.203125 32.429688 26.203125 33.296875 C 26.203125 34.136719 25.9375 34.796875 25.40625 35.285156 C 24.875 35.761719 24.132812 36 23.183594 36 C 22.210938 36 21.460938 35.765625 20.929688 35.300781 C 20.394531 34.824219 20.128906 34.15625 20.128906 33.296875 "
     id="path3799" />
</svg>
