<?xml version="1.0" encoding="UTF-8" standalone="no"?>
<svg
   xmlns:dc="http://purl.org/dc/elements/1.1/"
   xmlns:cc="http://creativecommons.org/ns#"
   xmlns:rdf="http://www.w3.org/1999/02/22-rdf-syntax-ns#"
   xmlns:svg="http://www.w3.org/2000/svg"
   xmlns="http://www.w3.org/2000/svg"
   xmlns:sodipodi="http://sodipodi.sourceforge.net/DTD/sodipodi-0.dtd"
   xmlns:inkscape="http://www.inkscape.org/namespaces/inkscape"
   width="48"
   height="48"
   viewBox="0 0 48 48"
   id="svg3965"
   version="1.1"
   inkscape:version="0.48.4 r9939"
   sodipodi:docname="mail-mark-notjunk.svg">
  <metadata
     id="metadata3987">
    <rdf:RDF>
      <cc:Work
         rdf:about="">
        <dc:format>image/svg+xml</dc:format>
        <dc:type
           rdf:resource="http://purl.org/dc/dcmitype/StillImage" />
      </cc:Work>
    </rdf:RDF>
  </metadata>
  <defs
     id="defs3985" />
  <sodipodi:namedview
     pagecolor="#ffffff"
     bordercolor="#666666"
     borderopacity="1"
     objecttolerance="10"
     gridtolerance="10"
     guidetolerance="10"
     inkscape:pageopacity="0"
     inkscape:pageshadow="2"
     inkscape:window-width="1280"
     inkscape:window-height="998"
     id="namedview3983"
     showgrid="true"
     inkscape:zoom="3.4766083"
     inkscape:cx="-14.474839"
     inkscape:cy="-24.823698"
     inkscape:window-x="0"
     inkscape:window-y="0"
     inkscape:window-maximized="1"
     inkscape:current-layer="svg3965">
    <inkscape:grid
       type="xygrid"
       id="grid9622" />
  </sodipodi:namedview>
  <path
     style="fill:#dc322f;fill-opacity:1"
     d="M 23.59375 2 C 19.59375 3.9726444 17.59375 7.9297111 17.59375 11.875 L 17.59375 14.4375 L 35.4375 14.4375 C 34.159879 12.35336 32.260549 10.160813 29.59375 7.90625 C 29.59375 13.824184 25.59375 13.84375 25.59375 13.84375 C 23.59375 11.871105 23.59375 9.8788944 23.59375 7.90625 L 23.59375 2 z M 35.4375 14.4375 C 40.867054 23.294552 35.59375 30.368732 35.59375 33.5625 C 31.59375 27.644566 29.59375 31.59375 29.59375 31.59375 C 29.59375 33.566395 31.59375 33.550817 29.59375 39.46875 C 20.286318 32.124648 9.2718239 33.322236 12.625 14.4375 L 6 14.4375 C 2 14.4375 2 14.429711 2 18.375 L 2 42.0625 C 2 46.007789 2 46 6 46 L 42 46 C 46 46 46 46.007789 46 42.0625 L 46 18.375 C 46 14.429711 46 14.4375 42 14.4375 L 35.4375 14.4375 z M 12.625 14.4375 L 15.8125 14.4375 C 15.154278 13.576975 14.36801 12.166011 13.59375 9.875 C 13.178209 11.514427 12.87451 13.032284 12.625 14.4375 z M 15.8125 14.4375 C 16.854538 15.799806 17.59375 15.8125 17.59375 15.8125 L 17.59375 14.4375 L 15.8125 14.4375 z "
     id="path3969" />
  <path
     style="fill:#dc322f;fill-rule:evenodd"
     d="m 18,28.99051 c 0,0.276994 0.03693,0.597075 0.09848,0.954091 0.504698,0.07387 0.929383,0.04924 1.30483,0 0.123096,0 0.240039,0.01847 0.350826,0 0.375447,-0.04309 0.738582,-0.178509 1.058635,-0.449347 0.104633,-0.09233 0.196955,-0.178507 0.295433,-0.301615 0.590867,-0.547832 1.144804,-1.138752 1.711051,-1.711206 l 1.704895,-1.705051 c 0.560092,0.572454 1.138648,1.132597 1.704895,1.705051 0.566246,0.572454 1.126339,1.151063 1.704895,1.711206 0.08617,0.116953 0.203111,0.215439 0.301588,0.301615 0.116942,0.104643 0.22773,0.184663 0.350827,0.252373 0.233885,0.116952 0.492389,0.166195 0.750893,0.196974 0.166178,0.02462 0.33236,0.0554 0.504696,0.0554 0.08001,0 0.166181,0 0.252348,0 0.289279,-0.01231 0.566247,-0.04924 0.849371,-0.0554 0.04308,-0.283151 0.04924,-0.560144 0.0554,-0.800206 0,-0.04924 0,-0.104642 0,-0.153885 -0.0061,-0.110797 -0.04309,-0.196973 -0.0554,-0.301616 0,-0.01847 0.0061,-0.03078 0,-0.04924 -0.01846,-0.517056 -0.08617,-1.003334 -0.449304,-1.409592 -0.09232,-0.104642 -0.178491,-0.196973 -0.301589,-0.301615 l -3.40979,-3.416258 3.40979,-3.416256 c 0.116943,-0.08618 0.215421,-0.209285 0.301589,-0.301615 0.104632,-0.116953 0.184645,-0.227751 0.252349,-0.35086 0.116941,-0.22775 0.166181,-0.461656 0.196955,-0.707873 0.03692,-0.276994 0.06155,-0.560142 0.0554,-0.855602 -0.0061,-0.240062 -0.01231,-0.510901 -0.0554,-0.800206 -0.523163,-0.09233 -0.941693,-0.09849 -1.30483,-0.04924 -0.135407,0 -0.264659,0.02462 -0.400065,0.04924 -0.48008,0.07387 -0.960158,0.270839 -1.30483,0.750962 -0.590866,0.547832 -1.138649,1.138752 -1.704895,1.711206 l -1.704895,1.711207 -3.415946,-3.422413 c -0.09848,-0.123107 -0.1908,-0.209284 -0.295433,-0.301615 -0.116942,-0.09849 -0.233884,-0.184662 -0.356981,-0.252372 -0.203111,-0.104641 -0.41853,-0.166196 -0.64626,-0.196974 -0.01846,-0.0061 -0.03693,0 -0.05539,0 -0.461614,-0.110796 -0.990931,-0.09233 -1.655656,0 -0.08617,0.529367 -0.09232,0.94178 -0.04924,1.304949 0.01847,0.129265 0.01231,0.28315 0.04924,0.400103 0.01846,0.0554 0.03693,0.104643 0.04924,0.153886 0.09232,0.424723 0.270814,0.843292 0.707809,1.157218 0.547782,0.59092 1.132493,1.138753 1.704895,1.705051 0.572401,0.566298 1.132494,1.151064 1.704895,1.711205 -0.572401,0.547833 -1.144803,1.095665 -1.704895,1.661964 -0.01231,0.0061 0.0061,0.03692 0,0.04924 -0.572402,0.566298 -1.157113,1.120286 -1.704895,1.705051 -0.123097,0.08618 -0.21542,0.209285 -0.301588,0.301615 -0.06155,0.06771 -0.104633,0.129264 -0.153873,0.203129 -0.02462,0.03693 -0.08001,0.06156 -0.09848,0.09849 -0.0061,0.01847 0.0061,0.03693 0,0.0554 -0.104633,0.20313 -0.166182,0.424724 -0.203111,0.652476 0,0.03078 0.0061,0.06771 0,0.09849 -0.04924,0.20313 -0.09848,0.412412 -0.09848,0.652474 z"
     id="path3981"
     inkscape:connector-curvature="0" />
</svg>
