<?xml version="1.0" encoding="UTF-8" standalone="no"?>
<svg
   xmlns:dc="http://purl.org/dc/elements/1.1/"
   xmlns:cc="http://creativecommons.org/ns#"
   xmlns:rdf="http://www.w3.org/1999/02/22-rdf-syntax-ns#"
   xmlns:svg="http://www.w3.org/2000/svg"
   xmlns="http://www.w3.org/2000/svg"
   xmlns:sodipodi="http://sodipodi.sourceforge.net/DTD/sodipodi-0.dtd"
   xmlns:inkscape="http://www.inkscape.org/namespaces/inkscape"
   width="48"
   height="48"
   viewBox="0 0 48 48"
   id="svg4033"
   version="1.1"
   inkscape:version="0.48.4 r9939"
   sodipodi:docname="mail-message-new.svg">
  <metadata
     id="metadata4055">
    <rdf:RDF>
      <cc:Work
         rdf:about="">
        <dc:format>image/svg+xml</dc:format>
        <dc:type
           rdf:resource="http://purl.org/dc/dcmitype/StillImage" />
      </cc:Work>
    </rdf:RDF>
  </metadata>
  <defs
     id="defs4053" />
  <sodipodi:namedview
     pagecolor="#ffffff"
     bordercolor="#666666"
     borderopacity="1"
     objecttolerance="10"
     gridtolerance="10"
     guidetolerance="10"
     inkscape:pageopacity="0"
     inkscape:pageshadow="2"
     inkscape:window-width="1280"
     inkscape:window-height="998"
     id="namedview4051"
     showgrid="true"
     inkscape:zoom="6.9532167"
     inkscape:cx="50.019042"
     inkscape:cy="7.3691135"
     inkscape:window-x="0"
     inkscape:window-y="0"
     inkscape:window-maximized="1"
     inkscape:current-layer="svg4033">
    <inkscape:grid
       type="xygrid"
       id="grid9602" />
  </sodipodi:namedview>
  <path
     style="fill:#268bd2;fill-opacity:1"
     d="M 24 2 L 14.5625 8 L 33.4375 8 L 24 2 z M 24.03125 9 C 23.290557 8.931102 22.55472 10.574173 20.9375 14.09375 C 13.759093 15.073255 13.087242 14.593681 19 19.90625 C 17.64486 27.45674 17.3976 27.133837 23.96875 23.53125 C 30.233077 26.838325 30.68114 27.814753 29 19.96875 C 34.516442 14.725909 34.69972 15.034777 27.125 14.125 C 25.504584 10.834525 24.771943 9.068898 24.03125 9 z M 8 12.1875 L 2 16 L 2 18 L 2 42 C 2 46 2 46 6 46 L 42 46 C 42.5 46 42.929688 46.007812 43.3125 46 C 45.992188 45.945312 46 45.5 46 42 L 46 18 L 46 16 L 40 12.1875 L 40 21.28125 L 24 30 L 8 21.28125 L 8 12.1875 z "
     id="path4035" />
</svg>
