<?xml version="1.0" encoding="UTF-8" standalone="no"?>
<svg
   xmlns:dc="http://purl.org/dc/elements/1.1/"
   xmlns:cc="http://creativecommons.org/ns#"
   xmlns:rdf="http://www.w3.org/1999/02/22-rdf-syntax-ns#"
   xmlns:svg="http://www.w3.org/2000/svg"
   xmlns="http://www.w3.org/2000/svg"
   xmlns:sodipodi="http://sodipodi.sourceforge.net/DTD/sodipodi-0.dtd"
   xmlns:inkscape="http://www.inkscape.org/namespaces/inkscape"
   width="48"
   height="48"
   viewBox="0 0 48 48"
   id="svg4179"
   version="1.1"
   inkscape:version="0.48.4 r9939"
   sodipodi:docname="media-playlist-shuffle.svg">
  <metadata
     id="metadata4193">
    <rdf:RDF>
      <cc:Work
         rdf:about="">
        <dc:format>image/svg+xml</dc:format>
        <dc:type
           rdf:resource="http://purl.org/dc/dcmitype/StillImage" />
      </cc:Work>
    </rdf:RDF>
  </metadata>
  <defs
     id="defs4191" />
  <sodipodi:namedview
     pagecolor="#ffffff"
     bordercolor="#666666"
     borderopacity="1"
     objecttolerance="10"
     gridtolerance="10"
     guidetolerance="10"
     inkscape:pageopacity="0"
     inkscape:pageshadow="2"
     inkscape:window-width="640"
     inkscape:window-height="480"
     id="namedview4189"
     showgrid="false"
     inkscape:zoom="4.9166667"
     inkscape:cx="24"
     inkscape:cy="24"
     inkscape:window-x="0"
     inkscape:window-y="0"
     inkscape:window-maximized="0"
     inkscape:current-layer="svg4179" />
  <path
     style="fill:#268bd0;fill-opacity:1"
     inkscape:connector-curvature="0"
     id="path4183"
     d="m 2,38 c 0,-1.835938 0,-4.164062 0,-6 2.9375,-0.03125 7.0625,0.117188 10,0 3.96875,0 5.121094,0 6,-2 l 4,-12 c 2.75,-8.25 2.734375,-8 6,-8 3.09375,0 4.90625,0 8,0 C 34.96875,9.117188 34.554688,8.0625 35.09375,6.632812 35.664062,4.5625 38.664062,4.039062 39.945312,5.742188 42.34375,8.15625 43.671875,10.523438 46,13 c -2.46875,2.609375 -3.929688,5.125 -6.476562,7.664062 -1.671876,1.546876 -4.765626,0.15625 -4.632813,-2.140624 C 34.835938,17.320312 35.21875,16.757812 36,16 c -3.453125,0.03125 -0.554688,-0.125 -4,0 -4,0 -3.054688,0 -4,2 l -4,12 c -2.75,8.25 -2.5,8 -8,8 -2.578125,0 -11.421875,0 -14,0 z" />
  <path
     style="fill-opacity:1;fill:#268bd0"
     inkscape:connector-curvature="0"
     id="path4185"
     d="m 2,38 c 0,-1.835938 0,-4.164062 0,-6 2.9375,-0.03125 7.0625,0.117188 10,0 3.96875,0 5.121094,0 6,-2 l 4,-12 c 2.75,-8.25 2.734375,-8 6,-8 3.09375,0 4.90625,0 8,0 C 34.96875,9.117188 34.554688,8.0625 35.09375,6.632812 35.664062,4.5625 38.664062,4.039062 39.945312,5.742188 42.34375,8.15625 43.671875,10.523438 46,13 c -2.46875,2.609375 -3.929688,5.125 -6.476562,7.664062 -1.671876,1.546876 -4.765626,0.15625 -4.632813,-2.140624 C 34.835938,17.320312 35.21875,16.757812 36,16 c -3.453125,0.03125 -0.554688,-0.125 -4,0 -4,0 -3.054688,0 -4,2 l -4,12 c -2.75,8.25 -2.5,8 -8,8 -2.578125,0 -11.421875,0 -14,0 z" />
  <path
     style="fill:#268bd0;fill-opacity:1"
     inkscape:connector-curvature="0"
     id="path4187"
     d="m 2,10 c 0,1.835938 0,4.164062 0,6 2.9375,0.03125 7.0625,-0.117188 10,0 3.96875,0 5.121094,0 6,2 l 4,12 c 2.75,8.25 2.734375,8 6,8 3.09375,0 4.90625,0 8,0 -1.03125,0.882812 -1.445312,1.9375 -0.90625,3.367188 0.570312,2.070312 3.570312,2.59375 4.851562,0.890624 C 42.34375,39.84375 43.671875,37.476562 46,35 43.53125,32.390625 42.070312,29.875 39.523438,27.335938 37.851562,25.789062 34.757812,27.179688 34.890625,29.476562 34.835938,30.679688 35.21875,31.242188 36,32 c -3.453125,-0.03125 -0.554688,0.125 -4,0 -4,0 -3.054688,0 -4,-2 L 24,18 C 21.25,9.75 21.5,10 16,10 13.421875,10 4.578125,10 2,10 z" />
</svg>
