<?xml version="1.0" encoding="UTF-8" standalone="no"?>
<svg
   xmlns:dc="http://purl.org/dc/elements/1.1/"
   xmlns:cc="http://creativecommons.org/ns#"
   xmlns:rdf="http://www.w3.org/1999/02/22-rdf-syntax-ns#"
   xmlns:svg="http://www.w3.org/2000/svg"
   xmlns="http://www.w3.org/2000/svg"
   xmlns:sodipodi="http://sodipodi.sourceforge.net/DTD/sodipodi-0.dtd"
   xmlns:inkscape="http://www.inkscape.org/namespaces/inkscape"
   width="48"
   height="48"
   viewBox="0 0 48 48"
   id="svg4392"
   version="1.1"
   inkscape:version="0.48.4 r9939"
   sodipodi:docname="system-lock-screen.svg">
  <metadata
     id="metadata4402">
    <rdf:RDF>
      <cc:Work
         rdf:about="">
        <dc:format>image/svg+xml</dc:format>
        <dc:type
           rdf:resource="http://purl.org/dc/dcmitype/StillImage" />
      </cc:Work>
    </rdf:RDF>
  </metadata>
  <defs
     id="defs4400" />
  <sodipodi:namedview
     pagecolor="#ffffff"
     bordercolor="#666666"
     borderopacity="1"
     objecttolerance="10"
     gridtolerance="10"
     guidetolerance="10"
     inkscape:pageopacity="0"
     inkscape:pageshadow="2"
     inkscape:window-width="640"
     inkscape:window-height="480"
     id="namedview4398"
     showgrid="false"
     inkscape:zoom="4.9166667"
     inkscape:cx="24"
     inkscape:cy="24"
     inkscape:window-x="0"
     inkscape:window-y="0"
     inkscape:window-maximized="0"
     inkscape:current-layer="svg4392" />
  <path
     style="fill:#268bd2"
     d="M 24 4 C 18 4 10 4 10 14 L 10 20 C 8 20 4 19.996094 4 24 L 4 40 C 4 44 7.84375 44 10 44 L 38 44 C 40.15625 44 44 44 44 40 L 44 24 C 44 19.996094 40 20 38 20 L 38 14 C 38 4 30 4 24 4 z M 23.09375 10 C 23.449219 9.9882812 23.75 10 24 10 C 26 10 32 10 32 16 L 32 20 L 16 20 L 16 16 C 16 10.75 20.605469 10.082031 23.09375 10 z M 24 28 C 26.210938 28 28 29.789062 28 32 C 28 33.480469 27.195312 34.746094 26 35.4375 L 26 42 L 22 42 L 22 35.4375 C 20.804688 34.746094 20 33.480469 20 32 C 20 29.789062 21.789062 28 24 28 z "
     id="path4394" />
</svg>
