<?xml version="1.0" encoding="UTF-8" standalone="no"?>
<svg
   xmlns:dc="http://purl.org/dc/elements/1.1/"
   xmlns:cc="http://creativecommons.org/ns#"
   xmlns:rdf="http://www.w3.org/1999/02/22-rdf-syntax-ns#"
   xmlns:svg="http://www.w3.org/2000/svg"
   xmlns="http://www.w3.org/2000/svg"
   xmlns:sodipodi="http://sodipodi.sourceforge.net/DTD/sodipodi-0.dtd"
   xmlns:inkscape="http://www.inkscape.org/namespaces/inkscape"
   width="48"
   height="48"
   viewBox="0 0 48 48"
   id="svg4574"
   version="1.1"
   inkscape:version="0.48.4 r9939"
   sodipodi:docname="view-sort-descending.svg">
  <metadata
     id="metadata4590">
    <rdf:RDF>
      <cc:Work
         rdf:about="">
        <dc:format>image/svg+xml</dc:format>
        <dc:type
           rdf:resource="http://purl.org/dc/dcmitype/StillImage" />
      </cc:Work>
    </rdf:RDF>
  </metadata>
  <defs
     id="defs4588" />
  <sodipodi:namedview
     pagecolor="#ffffff"
     bordercolor="#666666"
     borderopacity="1"
     objecttolerance="10"
     gridtolerance="10"
     guidetolerance="10"
     inkscape:pageopacity="0"
     inkscape:pageshadow="2"
     inkscape:window-width="640"
     inkscape:window-height="480"
     id="namedview4586"
     showgrid="false"
     inkscape:zoom="4.9166667"
     inkscape:cx="24"
     inkscape:cy="24"
     inkscape:window-x="0"
     inkscape:window-y="0"
     inkscape:window-maximized="0"
     inkscape:current-layer="svg4574" />
  <path
     style="fill:#268bd2;fill-rule:evenodd;fill-opacity:1"
     d="M 16 38 C 16 40.210938 14.210938 42 12 42 C 9.789062 42 8 40.210938 8 38 C 8 35.789062 9.789062 34 12 34 C 14.210938 34 16 35.789062 16 38 Z "
     id="path4576" />
  <path
     style="fill:#268bd2;fill-opacity:1"
     d="M 30 6 C 30.609375 6 31.191406 6.261719 31.625 6.6875 L 39.3125 14.125 C 39.738281 14.527344 39.980469 15.101562 40 15.6875 C 40.027344 16.617188 39.5 17.449219 38.625 17.8125 C 37.746094 18.175781 36.722656 17.980469 36.0625 17.3125 L 32 13.375 L 32 42 L 28 42 L 28 13.375 L 23.9375 17.3125 C 23.035156 18.1875 21.585938 18.1875 20.6875 17.3125 C 19.785156 16.4375 19.785156 15 20.6875 14.125 L 28.375 6.6875 C 28.804688 6.261719 29.386719 6 30 6 Z "
     id="path4578" />
  <path
     style="fill:#268bd2;fill-rule:evenodd;fill-opacity:1"
     inkscape:connector-curvature="0"
     id="path4582"
     d="m 16,26 c 0,2.210938 -1.789062,4 -4,4 -2.210938,0 -4,-1.789062 -4,-4 0,-2.210938 1.789062,-4 4,-4 2.210938,0 4,1.789062 4,4 z" />
  <path
     style="fill:#268bd2;fill-rule:evenodd;fill-opacity:1"
     inkscape:connector-curvature="0"
     id="path4584"
     d="m 16,14 c 0,2.210938 -1.789062,4 -4,4 -2.210938,0 -4,-1.789062 -4,-4 0,-2.210938 1.789062,-4 4,-4 2.210938,0 4,1.789062 4,4 z" />
</svg>
