<?xml version="1.0" encoding="UTF-8" standalone="no"?>
<svg
   xmlns:dc="http://purl.org/dc/elements/1.1/"
   xmlns:cc="http://creativecommons.org/ns#"
   xmlns:rdf="http://www.w3.org/1999/02/22-rdf-syntax-ns#"
   xmlns:svg="http://www.w3.org/2000/svg"
   xmlns="http://www.w3.org/2000/svg"
   xmlns:sodipodi="http://sodipodi.sourceforge.net/DTD/sodipodi-0.dtd"
   xmlns:inkscape="http://www.inkscape.org/namespaces/inkscape"
   width="48"
   height="48"
   viewBox="0 0 48 48"
   id="svg4556"
   version="1.1"
   inkscape:version="0.48.4 r9939"
   sodipodi:docname="view-sort-ascending.svg">
  <metadata
     id="metadata4572">
    <rdf:RDF>
      <cc:Work
         rdf:about="">
        <dc:format>image/svg+xml</dc:format>
        <dc:type
           rdf:resource="http://purl.org/dc/dcmitype/StillImage" />
      </cc:Work>
    </rdf:RDF>
  </metadata>
  <defs
     id="defs4570" />
  <sodipodi:namedview
     pagecolor="#ffffff"
     bordercolor="#666666"
     borderopacity="1"
     objecttolerance="10"
     gridtolerance="10"
     guidetolerance="10"
     inkscape:pageopacity="0"
     inkscape:pageshadow="2"
     inkscape:window-width="672"
     inkscape:window-height="480"
     id="namedview4568"
     showgrid="false"
     inkscape:zoom="4.9166667"
     inkscape:cx="27.254237"
     inkscape:cy="24"
     inkscape:window-x="0"
     inkscape:window-y="0"
     inkscape:window-maximized="0"
     inkscape:current-layer="svg4556" />
  <path
     style="fill:#268bd2;fill-rule:evenodd;fill-opacity:1"
     d="M 16 10 C 16 7.789062 14.210938 6 12 6 C 9.789062 6 8 7.789062 8 10 C 8 12.210938 9.789062 14 12 14 C 14.210938 14 16 12.210938 16 10 Z "
     id="path4558" />
  <path
     style="fill:#268bd2;fill-opacity:1"
     d="M 30 42 C 30.609375 42 31.191406 41.738281 31.625 41.3125 L 39.3125 33.875 C 39.738281 33.472656 39.980469 32.898438 40 32.3125 C 40.027344 31.382812 39.5 30.550781 38.625 30.1875 C 37.746094 29.824219 36.722656 30.019531 36.0625 30.6875 L 32 34.625 L 32 6 L 28 6 L 28 34.625 L 23.9375 30.6875 C 23.035156 29.8125 21.585938 29.8125 20.6875 30.6875 C 19.785156 31.5625 19.785156 33 20.6875 33.875 L 28.375 41.3125 C 28.804688 41.738281 29.386719 42 30 42 Z "
     id="path4560" />
  <path
     style="fill:#268bd2;fill-rule:evenodd;fill-opacity:1"
     inkscape:connector-curvature="0"
     id="path4564"
     d="m 16,22 c 0,-2.210938 -1.789062,-4 -4,-4 -2.210938,0 -4,1.789062 -4,4 0,2.210938 1.789062,4 4,4 2.210938,0 4,-1.789062 4,-4 z" />
  <path
     style="fill:#268bd2;fill-rule:evenodd;fill-opacity:1"
     inkscape:connector-curvature="0"
     id="path4566"
     d="m 16,34 c 0,-2.210938 -1.789062,-4 -4,-4 -2.210938,0 -4,1.789062 -4,4 0,2.210938 1.789062,4 4,4 2.210938,0 4,-1.789062 4,-4 z" />
</svg>
