
<svg xmlns="http://www.w3.org/2000/svg" xmlns:xlink="http://www.w3.org/1999/xlink" width="48px" height="48px" viewBox="0 0 48 48" version="1.1">
<defs>
<linearGradient id="linear0" gradientUnits="userSpaceOnUse" x1="0" y1="279.1" x2="0" y2="268.33" gradientTransform="matrix(3.916275,0,0,3.916275,-475.796185,-1047.985911)">
<stop offset="0" style="stop-color:rgb(87.058824%,87.058824%,87.058824%);stop-opacity:1;"/>
<stop offset="1" style="stop-color:rgb(97.647059%,97.647059%,97.647059%);stop-opacity:1;"/>
</linearGradient>
</defs>
<g id="surface1">
<path style=" stroke:none;fill-rule:evenodd;fill:rgb(100%,100%,100%);fill-opacity:0.501961;" d="M 24 1 C 36.699219 1 47 11.296875 47 24 C 47 36.699219 36.699219 47 24 47 C 11.296875 47 1 36.699219 1 24 C 1 11.296875 11.296875 1 24 1 Z "/>
<path style=" stroke:none;fill-rule:evenodd;fill:url(#linear0);" d="M 24 3 L 24.003906 3 C 35.597656 3 45 12.402344 45 24 L 45 24.003906 C 45 35.597656 35.597656 45 24.003906 45 L 24 45 C 12.402344 45 3 35.597656 3 24.003906 L 3 24 C 3 12.402344 12.402344 3 24 3 Z "/>
<path style=" stroke:none;fill-rule:nonzero;fill:rgb(40%,80%,20%);fill-opacity:0.941176;" d="M 26.21875 23.320312 L 22.792969 19.199219 L 22.382812 14.984375 L 27.324219 13.632812 L 30.578125 14.625 L 31.730469 17.164062 L 30.832031 18.878906 L 26.851562 23.359375 Z "/>
<path style=" stroke:none;fill-rule:nonzero;fill:rgb(40%,80%,20%);fill-opacity:1;" d="M 18 29 L 36 29 L 36 27.617188 C 35.527344 25.539062 33.113281 23.148438 30.105469 21.914062 L 28.136719 23.824219 L 27.515625 23.414062 L 25.792969 23.375 L 25.238281 24.011719 L 23.148438 21.9375 C 20.847656 22.953125 18.472656 25.175781 18 27.617188 Z "/>
<path style=" stroke:none;fill-rule:nonzero;fill:rgb(40%,80%,20%);fill-opacity:1;" d="M 26.621094 12.617188 C 28.621094 12.617188 30.242188 14.300781 30.242188 16.375 L 30.242188 18.074219 C 30.242188 20.148438 28.621094 21.832031 26.621094 21.832031 C 24.621094 21.832031 23 20.148438 23 18.074219 L 23 16.375 C 23 14.300781 24.621094 12.617188 26.621094 12.617188 Z "/>
<path style=" stroke:none;fill-rule:nonzero;fill:rgb(40%,80%,20%);fill-opacity:1;" d="M 29.136719 20.789062 C 29.523438 20.410156 30.523438 19.609375 30.632812 19.082031 L 30.59375 16.054688 L 24.828125 13.910156 L 23.890625 14.707031 L 22.335938 16.730469 L 22.714844 19.011719 L 22.917969 19.597656 L 24.09375 20.785156 Z "/>
<path style=" stroke:none;fill-rule:nonzero;fill:rgb(40%,80%,20%);fill-opacity:1;" d="M 22.949219 19.609375 L 22.949219 16.789062 C 23.238281 15.558594 24.429688 14.316406 25.023438 14.332031 C 26.035156 14.457031 26.746094 15.355469 27.351562 16.226562 C 28.113281 16.878906 30.023438 16.917969 30.519531 16.226562 C 30.519531 17.277344 30.519531 18.328125 30.519531 19.382812 C 31.082031 19.164062 31.789062 18.320312 31.910156 17.597656 C 31.765625 8.855469 21.980469 9.019531 21.714844 16.789062 C 21.796875 17.769531 22.382812 19.144531 22.949219 19.609375 Z "/>
<path style=" stroke:none;fill-rule:nonzero;fill:rgb(40%,80%,20%);fill-opacity:1;" d="M 26.621094 23.390625 L 29.140625 20.78125 L 30.398438 22.085938 L 27.878906 24.695312 Z "/>
<path style=" stroke:none;fill-rule:nonzero;fill:rgb(40%,80%,20%);fill-opacity:1;" d="M 24.105469 20.78125 L 26.621094 23.390625 L 25.363281 24.695312 L 22.847656 22.085938 Z "/>
<path style=" stroke:none;fill-rule:nonzero;fill:rgb(60%,80%,100%);fill-opacity:0.941176;" d="M 20.84375 17 C 18.347656 16.917969 15.851562 18.894531 15.71875 22.78125 C 15.800781 23.738281 16.351562 25.074219 16.90625 25.5625 L 16.90625 25.59375 C 16.914062 25.597656 16.929688 25.589844 16.9375 25.59375 L 18.0625 26.75 L 18.09375 26.78125 C 18.109375 26.796875 18.140625 26.796875 18.15625 26.8125 L 18.1875 26.90625 L 18.09375 26.78125 L 16.84375 28.09375 C 14.644531 29.164062 12.453125 31.292969 12 33.625 L 12 35 L 30 35 L 30 33.625 C 29.542969 31.609375 27.234375 29.289062 24.34375 28.03125 L 23.125 26.78125 L 23.15625 26.75 C 23.164062 26.742188 23.179688 26.757812 23.1875 26.75 L 23.21875 26.6875 C 23.238281 26.667969 23.289062 26.648438 23.3125 26.625 C 23.675781 26.289062 24.265625 25.8125 24.53125 25.375 C 25.097656 25.15625 25.789062 24.316406 25.90625 23.59375 C 25.835938 19.222656 23.339844 17.082031 20.84375 17 Z M 20.59375 29.34375 L 20.65625 29.34375 L 20.625 29.375 Z "/>
</g>
</svg>
