<!-- color: #bb9e69 -->
<svg xmlns="http://www.w3.org/2000/svg" xmlns:xlink="http://www.w3.org/1999/xlink" width="48px" height="48px" viewBox="0 0 48 48" version="1.1">
<g id="surface1">
<path style=" stroke:none;fill-rule:nonzero;fill:rgb(83.921569%,72.54902%,53.333333%);fill-opacity:1;" d="M 37 24 C 37 31.179688 31.179688 37 24 37 C 16.820312 37 11 31.179688 11 24 C 11 16.820312 16.820312 11 24 11 C 31.179688 11 37 16.820312 37 24 M 37 24 "/>
<path style=" stroke:none;fill-rule:nonzero;fill:rgb(50.588235%,35.686275%,12.941176%);fill-opacity:1;" d="M 24 9 C 15.714844 9 9 15.714844 9 24 C 9 32.285156 15.714844 39 24 39 C 32.285156 39 39 32.285156 39 24 C 39 15.714844 32.285156 9 24 9 M 22.71875 11.59375 C 22.730469 11.59375 22.988281 11.566406 23 11.566406 L 23 23 L 11.59375 23 C 12.175781 17.097656 16.824219 12.191406 22.71875 11.59375 M 25 11.566406 C 30.914062 12.148438 35.824219 17.089844 36.40625 23.007812 L 25 23.007812 M 11.59375 25.007812 L 23 25.007812 L 23 36.445312 C 17.085938 35.863281 12.175781 30.921875 11.59375 25.007812 M 25 25.007812 L 36.40625 25.007812 C 35.824219 30.914062 30.914062 35.859375 25 36.445312 M 25 25.007812 "/>
</g>
</svg>
