<!-- color: #48428a -->
<svg xmlns="http://www.w3.org/2000/svg" xmlns:xlink="http://www.w3.org/1999/xlink" width="48px" height="48px" viewBox="0 0 48 48" version="1.1">
<defs>
<clipPath id="clip1">
  <path d="M 26 20 L 36 20 L 36 32 L 26 32 Z M 26 20 "/>
</clipPath>
<clipPath id="clip2">
  <path d="M 26.128906 25.824219 C 26.128906 29.089844 28.117188 31.234375 31.496094 31.234375 C 32.996094 31.234375 34.234375 30.925781 35.132812 30.554688 L 34.75 28.695312 C 33.957031 29 33.082031 29.175781 31.863281 29.175781 C 30.191406 29.175781 28.714844 28.34375 28.652344 26.417969 L 35.628906 26.417969 C 35.671875 26.175781 35.710938 25.78125 35.710938 25.277344 C 35.710938 22.933594 34.621094 20.089844 31.21875 20.089844 C 27.882812 20.089844 26.128906 22.863281 26.128906 25.816406 M 31.070312 21.921875 C 32.824219 21.921875 33.253906 23.539062 33.230469 24.527344 L 28.652344 24.527344 C 28.757812 23.429688 29.445312 21.921875 31.070312 21.921875 "/>
</clipPath>
</defs>
<g id="surface1">
<path style=" stroke:none;fill-rule:nonzero;fill:rgb(78.431373%,53.333333%,98.823529%);fill-opacity:1;" d="M 17.121094 16.234375 L 12.5 30.992188 L 15.21875 30.992188 L 16.457031 26.8125 L 21.035156 26.8125 L 22.339844 30.992188 L 25.164062 30.992188 L 20.480469 16.234375 M 18 21.140625 C 18.253906 20.265625 18.472656 19.234375 18.683594 18.378906 L 18.726562 18.378906 C 18.9375 19.234375 19.175781 20.238281 19.453125 21.140625 L 20.585938 24.773438 L 16.886719 24.773438 M 18 21.140625 "/>
<g clip-path="url(#clip1)" clip-rule="nonzero">
<g clip-path="url(#clip2)" clip-rule="nonzero">
<path style=" stroke:none;fill-rule:nonzero;fill:rgb(78.431373%,53.333333%,98.823529%);fill-opacity:1;" d="M 26.128906 25.824219 C 26.128906 29.089844 28.117188 31.234375 31.496094 31.234375 C 32.996094 31.234375 34.234375 30.925781 35.132812 30.554688 L 34.75 28.695312 C 33.957031 29 33.082031 29.175781 31.863281 29.175781 C 30.191406 29.175781 28.714844 28.34375 28.652344 26.417969 L 35.628906 26.417969 C 35.671875 26.175781 35.710938 25.78125 35.710938 25.277344 C 35.710938 22.933594 34.621094 20.089844 31.21875 20.089844 C 27.882812 20.089844 26.128906 22.863281 26.128906 25.816406 M 31.070312 21.921875 C 32.824219 21.921875 33.253906 23.539062 33.230469 24.527344 L 28.652344 24.527344 C 28.757812 23.429688 29.445312 21.921875 31.070312 21.921875 "/>
</g>
</g>
</g>
</svg>
