<!-- color: #c34545 -->
<svg xmlns="http://www.w3.org/2000/svg" xmlns:xlink="http://www.w3.org/1999/xlink" width="48px" height="48px" viewBox="0 0 48 48" version="1.1">
<g id="surface1">
<path style=" stroke:none;fill-rule:nonzero;fill:rgb(97.647059%,97.647059%,97.647059%);fill-opacity:1;" d="M 26.160156 11.019531 C 24.003906 11.183594 22.445312 12.566406 21.558594 15.160156 C 20.269531 18.902344 18.09375 21.128906 14.277344 22.582031 C 12.019531 23.4375 11.226562 24.011719 10.523438 25.363281 C 9.957031 26.449219 9.839844 28.042969 10.207031 29.375 C 10.453125 30.261719 11.730469 31.726562 12.730469 32.246094 C 13.671875 32.742188 15.445312 32.804688 18.058594 32.40625 C 19.589844 32.171875 19.960938 32.160156 21.371094 32.4375 C 23.351562 32.828125 25.222656 33.773438 26.824219 35.15625 C 28.304688 36.4375 28.894531 36.742188 30.039062 36.925781 C 31.148438 37.097656 32.003906 36.988281 33.128906 36.515625 C 34.128906 36.09375 35.234375 34.964844 35.683594 33.921875 C 35.851562 33.539062 35.996094 32.6875 36 31.996094 C 36.003906 30.503906 35.546875 29.484375 34.359375 28.109375 C 33.199219 26.769531 32.375 25.433594 31.898438 24.128906 C 31.335938 22.582031 31.214844 19.472656 31.648438 17.527344 C 32.132812 15.347656 31.726562 13.835938 30.292969 12.476562 C 29.28125 11.519531 28.464844 11.132812 27.105469 11.023438 C 26.773438 10.996094 26.46875 11 26.160156 11.023438 M 24.078125 20.878906 C 25.183594 20.851562 26.328125 21.265625 27.234375 22.140625 C 29.476562 24.316406 28.945312 27.816406 26.160156 29.21875 C 25.28125 29.660156 23.847656 29.757812 22.851562 29.4375 C 21.910156 29.136719 20.78125 28.1875 20.265625 27.226562 C 20.042969 26.820312 19.953125 26.15625 19.949219 25.265625 C 19.945312 24.148438 20.03125 23.828125 20.484375 23.054688 C 21.296875 21.667969 22.65625 20.910156 24.078125 20.878906 M 24.078125 20.878906 "/>
</g>
</svg>
