<!-- color: #3d3d3d -->
<svg xmlns="http://www.w3.org/2000/svg" xmlns:xlink="http://www.w3.org/1999/xlink" width="48px" height="48px" viewBox="0 0 48 48" version="1.1">
<g id="surface1">
<path style=" stroke:none;fill-rule:evenodd;fill:rgb(80%,0%,0%);fill-opacity:1;" d="M 12 12 C 12 20.078125 12 28.898438 12 36 L 36 36 C 36 12 36 21.757812 36 12 M 12 12 "/>
<path style=" stroke:none;fill-rule:evenodd;fill:rgb(97.647059%,97.647059%,97.647059%);fill-opacity:1;" d="M 13 31 C 13 32.347656 13 33.816406 13 35 L 35 35 C 35 31 35 32.625 35 31 M 13 31 "/>
<path style=" stroke:none;fill-rule:evenodd;fill:rgb(66.666667%,0%,0%);fill-opacity:1;" d="M 12 12 C 12 18.058594 12 24.671875 12 30 L 36 30 C 36 12 36 19.300781 36 12 M 12 12 "/>
<path style=" stroke:none;fill-rule:evenodd;fill:rgb(60%,60%,60%);fill-opacity:1;" d="M 29 20 C 29 20.671875 29 21.40625 29 21.996094 L 36 21.996094 C 36 20 36 20.808594 36 20 M 29 20 "/>
<path style=" stroke:none;fill-rule:nonzero;fill:rgb(100%,100%,0%);fill-opacity:1;" d="M 30.5625 19.953125 C 30.5625 19.953125 32.503906 19.992188 32.507812 21.339844 L 32.507812 22.453125 C 32.507812 22.453125 33.0625 22.425781 33.0625 22.730469 L 33.0625 25.578125 C 33.0625 25.835938 32.808594 26.066406 32.527344 26.066406 L 28.597656 26.066406 C 28.316406 26.066406 28.0625 25.835938 28.0625 25.578125 L 28.0625 22.730469 C 28.0625 22.421875 28.621094 22.453125 28.621094 22.453125 L 28.621094 21.339844 C 28.632812 19.988281 30.566406 19.953125 30.566406 19.953125 M 30.5625 20.785156 C 30.5625 20.785156 29.449219 20.742188 29.449219 21.757812 L 29.449219 22.449219 L 31.671875 22.449219 L 31.671875 21.757812 C 31.671875 20.742188 30.558594 20.785156 30.558594 20.785156 M 30.5625 20.785156 "/>
<path style=" stroke:none;fill-rule:evenodd;fill:rgb(89.803922%,89.803922%,89.803922%);fill-opacity:1;" d="M 13 31.996094 C 13 32.332031 13 32.703125 13 32.996094 L 35 32.996094 C 35 31.996094 35 32.398438 35 31.996094 M 13 31.996094 "/>
<path style=" stroke:none;fill-rule:evenodd;fill:rgb(89.803922%,89.803922%,89.803922%);fill-opacity:1;" d="M 13 34 C 13 34.339844 13 34.707031 13 35 L 35 35 C 35 34 35 34.40625 35 34 M 13 34 "/>
</g>
</svg>
