<!-- color: #eea53a -->
<svg xmlns="http://www.w3.org/2000/svg" xmlns:xlink="http://www.w3.org/1999/xlink" width="48px" height="48px" viewBox="0 0 48 48" version="1.1">
<g id="surface1">
<path style=" stroke:none;fill-rule:nonzero;fill:rgb(100%,100%,100%);fill-opacity:1;" d="M 23.992188 9.539062 C 22.066406 9.539062 20.507812 11.097656 20.507812 13.023438 C 20.507812 14.644531 21.644531 15.984375 23.144531 16.375 L 23.144531 18.164062 C 19.695312 18.582031 17.027344 21.5 17.027344 25.0625 C 17.027344 26.023438 17.226562 26.929688 17.578125 27.761719 L 16.40625 28.445312 C 15.316406 27.371094 13.628906 27.09375 12.238281 27.894531 C 10.574219 28.851562 10.007812 30.980469 10.96875 32.644531 C 11.929688 34.308594 14.054688 34.875 15.722656 33.914062 C 17.148438 33.085938 17.769531 31.421875 17.316406 29.914062 L 18.453125 29.261719 C 19.726562 30.9375 21.71875 32.027344 23.984375 32.027344 C 26.40625 32.027344 28.527344 30.808594 29.777344 28.9375 L 31.242188 29.785156 C 30.707031 31.332031 31.300781 33.070312 32.773438 33.917969 C 34.4375 34.878906 36.558594 34.3125 37.523438 32.648438 C 38.484375 30.984375 37.921875 28.859375 36.253906 27.898438 C 34.90625 27.117188 33.277344 27.351562 32.1875 28.355469 L 30.527344 27.410156 C 30.792969 26.679688 30.949219 25.890625 30.949219 25.070312 C 30.949219 21.527344 28.296875 18.601562 24.867188 18.171875 L 24.867188 16.382812 C 26.367188 15.992188 27.472656 14.652344 27.472656 13.027344 C 27.472656 11.105469 25.914062 9.550781 23.988281 9.550781 M 24.96875 20.867188 C 25.445312 20.867188 25.84375 20.910156 26.175781 21.03125 C 26.507812 21.148438 26.777344 21.304688 26.988281 21.488281 C 27.207031 21.679688 27.382812 21.90625 27.476562 22.140625 C 27.574219 22.367188 27.609375 22.597656 27.609375 22.824219 C 27.609375 23.214844 27.53125 23.554688 27.351562 23.863281 C 27.171875 24.179688 26.890625 24.460938 26.503906 24.679688 C 26.117188 24.898438 25.609375 25.046875 25.007812 25.167969 C 24.40625 25.289062 23.703125 25.363281 22.863281 25.363281 L 21.949219 25.363281 C 21.910156 25.550781 21.871094 25.707031 21.851562 25.882812 C 21.839844 26.0625 21.851562 26.253906 21.851562 26.40625 C 21.851562 26.972656 21.996094 27.40625 22.273438 27.707031 C 22.558594 28.007812 23.011719 28.128906 23.640625 28.128906 C 24.003906 28.128906 24.328125 28.113281 24.617188 28.0625 C 24.910156 28.007812 25.15625 27.964844 25.367188 27.898438 C 25.582031 27.835938 25.753906 27.753906 25.886719 27.710938 C 26.023438 27.648438 26.128906 27.644531 26.179688 27.644531 C 26.230469 27.644531 26.257812 27.671875 26.28125 27.710938 C 26.308594 27.742188 26.3125 27.773438 26.3125 27.839844 C 26.3125 27.898438 26.324219 27.984375 26.3125 28.066406 C 26.300781 28.144531 26.269531 28.210938 26.25 28.292969 C 26.226562 28.371094 26.191406 28.449219 26.148438 28.519531 C 26.113281 28.59375 26.097656 28.667969 26.050781 28.714844 C 25.984375 28.78125 25.871094 28.84375 25.691406 28.910156 C 25.523438 28.972656 25.3125 29.046875 25.074219 29.105469 C 24.839844 29.15625 24.578125 29.199219 24.296875 29.238281 C 24.011719 29.273438 23.734375 29.269531 23.449219 29.269531 C 22.945312 29.269531 22.496094 29.21875 22.113281 29.105469 C 21.734375 28.992188 21.425781 28.820312 21.171875 28.585938 C 20.921875 28.347656 20.710938 28.054688 20.585938 27.703125 C 20.460938 27.351562 20.421875 26.941406 20.421875 26.46875 C 20.421875 26.101562 20.453125 25.6875 20.523438 25.265625 C 20.597656 24.839844 20.695312 24.441406 20.847656 24.027344 C 21 23.613281 21.191406 23.203125 21.433594 22.824219 C 21.679688 22.445312 21.980469 22.105469 22.3125 21.8125 C 22.652344 21.523438 23.042969 21.304688 23.484375 21.128906 C 23.929688 20.949219 24.425781 20.867188 24.980469 20.867188 M 24.871094 21.972656 C 24.503906 21.972656 24.175781 22.035156 23.890625 22.167969 C 23.609375 22.292969 23.332031 22.441406 23.113281 22.65625 C 22.898438 22.871094 22.71875 23.148438 22.558594 23.4375 C 22.40625 23.71875 22.296875 23.996094 22.203125 24.316406 L 23.058594 24.316406 C 23.652344 24.316406 24.15625 24.289062 24.550781 24.214844 C 24.949219 24.140625 25.28125 24.046875 25.527344 23.921875 C 25.769531 23.785156 25.917969 23.632812 26.015625 23.464844 C 26.117188 23.289062 26.179688 23.132812 26.179688 22.941406 C 26.179688 22.652344 26.046875 22.40625 25.820312 22.226562 C 25.59375 22.046875 25.300781 21.96875 24.882812 21.96875 M 24.871094 21.972656 "/>
</g>
</svg>
