<!-- color: #3d3d3d -->
<svg xmlns="http://www.w3.org/2000/svg" xmlns:xlink="http://www.w3.org/1999/xlink" width="48px" height="48px" viewBox="0 0 48 48" version="1.1">
<g id="surface1">
<path style=" stroke:none;fill-rule:nonzero;fill:rgb(47.45098%,81.176471%,100%);fill-opacity:1;" d="M 32.019531 12.019531 C 31.367188 12.199219 30.273438 13.640625 29.71875 13.746094 C 29.082031 13.867188 27.183594 12.613281 26.742188 13.078125 C 26.304688 13.546875 27.695312 15.382812 27.617188 16.019531 C 27.535156 16.652344 25.71875 18.085938 26.03125 18.644531 C 26.34375 19.199219 28.539062 18.453125 29.121094 18.722656 C 29.707031 18.992188 30.511719 21.113281 31.144531 20.992188 C 31.777344 20.871094 31.734375 18.601562 32.175781 18.132812 C 32.617188 17.667969 34.914062 17.554688 34.992188 16.917969 C 35.070312 16.285156 32.886719 15.636719 32.570312 15.078125 C 32.257812 14.519531 32.839844 12.289062 32.253906 12.019531 C 32.183594 11.988281 32.109375 11.996094 32.015625 12.019531 M 32.019531 12.019531 "/>
<path style=" stroke:none;fill-rule:nonzero;fill:rgb(47.45098%,81.176471%,100%);fill-opacity:1;" d="M 21.070312 20 C 19.800781 20.175781 19.632812 24.789062 18.707031 25.679688 C 17.78125 26.570312 13.238281 26.53125 13.011719 27.800781 C 12.785156 29.066406 17.050781 30.664062 17.613281 31.832031 C 18.171875 32.992188 16.734375 37.328125 17.863281 37.933594 C 18.996094 38.542969 21.828125 34.933594 23.097656 34.757812 C 24.367188 34.582031 28.039062 37.300781 28.960938 36.410156 C 29.890625 35.519531 27.34375 31.703125 27.570312 30.433594 C 27.796875 29.160156 31.503906 26.507812 30.945312 25.351562 C 30.386719 24.191406 26 25.449219 24.871094 24.839844 C 23.738281 24.230469 22.34375 19.828125 21.070312 20.011719 M 21.070312 20.003906 "/>
</g>
</svg>
