<!-- color: #ef772a -->
<svg xmlns="http://www.w3.org/2000/svg" xmlns:xlink="http://www.w3.org/1999/xlink" width="48px" height="48px" viewBox="0 0 48 48" version="1.1">
<g id="surface1">
<path style=" stroke:none;fill-rule:nonzero;fill:rgb(97.647059%,97.647059%,97.647059%);fill-opacity:1;" d="M 19.179688 14.949219 L 20.710938 14.949219 L 24.523438 24.949219 L 23.117188 24.949219 L 22.210938 22.386719 L 17.710938 22.386719 L 16.769531 24.949219 L 15.363281 24.949219 M 19.929688 16.292969 L 18.117188 21.261719 L 21.773438 21.261719 M 19.929688 16.292969 "/>
<path style=" stroke:none;fill-rule:nonzero;fill:rgb(97.647059%,97.647059%,97.647059%);fill-opacity:1;" d="M 30.121094 32.269531 L 32.265625 30.125 L 37.003906 34.859375 L 34.859375 37.003906 M 30.121094 32.269531 "/>
<path style=" stroke:none;fill-rule:nonzero;fill:rgb(97.647059%,97.647059%,97.647059%);fill-opacity:1;" d="M 25.574219 27.078125 L 27.078125 25.574219 L 31.8125 30.308594 L 30.308594 31.8125 M 25.574219 27.078125 "/>
<path style=" stroke:none;fill-rule:nonzero;fill:rgb(97.647059%,97.647059%,97.647059%);fill-opacity:1;" d="M 19.929688 10.964844 C 17.636719 10.964844 15.363281 11.878906 13.621094 13.621094 C 10.132812 17.105469 10.132812 22.753906 13.621094 26.246094 C 17.105469 29.730469 22.753906 29.730469 26.246094 26.246094 C 29.730469 22.757812 29.730469 17.109375 26.246094 13.621094 C 24.503906 11.878906 22.226562 10.964844 19.933594 10.964844 M 19.929688 12.515625 C 21.839844 12.515625 23.78125 13.15625 25.246094 14.621094 C 28.171875 17.546875 28.171875 22.324219 25.246094 25.25 C 22.320312 28.175781 17.542969 28.175781 14.617188 25.25 C 11.6875 22.324219 11.6875 17.546875 14.617188 14.621094 C 16.078125 13.15625 18.019531 12.515625 19.929688 12.515625 M 19.929688 12.515625 "/>
</g>
</svg>
