<!-- color: #f8523f -->
<svg xmlns="http://www.w3.org/2000/svg" xmlns:xlink="http://www.w3.org/1999/xlink" width="48px" height="48px" viewBox="0 0 48 48" version="1.1">
<g id="surface1">
<path style=" stroke:none;fill-rule:nonzero;fill:rgb(97.647059%,97.647059%,97.647059%);fill-opacity:1;" d="M 23 10 L 20 17 L 10 16 L 15.996094 22 L 8.996094 26 L 16.996094 27 L 11 35 L 20 32 L 20.996094 38 L 25.996094 33 L 33.996094 38 L 30.996094 29 L 38.996094 28 L 31.996094 24 L 36.996094 22 L 32.996094 20.003906 L 37.996094 11.003906 L 26.996094 16 M 22.53125 17 L 25.46875 17 C 25.761719 17 26 17.238281 26 17.53125 L 26 25.46875 C 26 25.761719 25.761719 26 25.46875 26 L 22.53125 26 C 22.238281 26 22 25.761719 22 25.46875 L 22 17.53125 C 22 17.238281 22.238281 17 22.53125 17 M 22.53125 27 L 25.46875 27 C 25.761719 27 26 27.238281 26 27.53125 L 26 30.46875 C 26 30.761719 25.761719 31 25.46875 31 L 22.53125 31 C 22.238281 31 22 30.761719 22 30.46875 L 22 27.53125 C 22 27.238281 22.238281 27 22.53125 27 M 22.53125 27 "/>
</g>
</svg>
