<!-- color: #d84d4d -->
<svg xmlns="http://www.w3.org/2000/svg" xmlns:xlink="http://www.w3.org/1999/xlink" width="48px" height="48px" viewBox="0 0 48 48" version="1.1">
<g id="surface1">
<path style=" stroke:none;fill-rule:nonzero;fill:rgb(49.803922%,0%,0%);fill-opacity:1;" d="M 19.8125 12 C 19.015625 12 18.34375 13.523438 19.90625 13.1875 C 20.515625 12.988281 20.441406 12 19.8125 12 M 29 13 C 28.535156 13 28.09375 13.539062 28.3125 13.84375 C 28.371094 13.925781 28.679688 14.011719 28.96875 14.03125 C 29.367188 14.058594 29.46875 13.9375 29.46875 13.53125 C 29.46875 13.15625 29.339844 13 29 13 M 22.15625 13.3125 C 21.226562 13.242188 20.175781 14.058594 20 15.003906 C 19.886719 15.597656 19.976562 15.953125 19.46875 15.816406 C 19.15625 15.730469 18.4375 15.0625 18 15.003906 C 17.3125 15.105469 16.503906 15.898438 17 17.003906 C 17.492188 17.578125 17.660156 17.996094 17 18.003906 C 15.515625 18.394531 14.96875 18.726562 15.46875 20.40625 C 15.566406 20.691406 15.53125 21.054688 15.125 21.472656 C 14.523438 22.101562 14.480469 22.132812 13.5625 21.847656 C 12.269531 21.449219 10.859375 23.03125 13.46875 23.003906 C 15.117188 22.808594 15.296875 23.195312 13.875 23.941406 C 12.910156 24.445312 12.601562 24.648438 12.59375 25.222656 C 12.585938 25.785156 12.847656 25.964844 13.5625 26.253906 C 15.140625 26.8125 15.808594 27.023438 16 29.003906 C 16 29.601562 15.90625 30.628906 16.46875 30.972656 C 17.015625 31.308594 17.152344 31.546875 17.0625 31.941406 C 16.910156 32.636719 17.382812 32.835938 18.3125 32.507812 C 19.355469 32.136719 19.5 32.402344 18.6875 33.132812 C 18.242188 33.527344 18.03125 33.984375 18.03125 34.445312 C 18.042969 35.472656 21.167969 36.191406 20.65625 34.007812 C 20.421875 33.015625 19.921875 32.277344 21.003906 32.007812 C 21.71875 31.742188 22.386719 32.816406 23.003906 33.007812 C 24.441406 33.449219 25.511719 32.8125 26.378906 32.066406 C 26.902344 31.613281 27.453125 31.679688 27.78125 31.753906 C 28.992188 32.003906 33.691406 32.414062 31.90625 29.472656 C 31.171875 28.402344 31.320312 28.191406 32.8125 28.222656 C 34.039062 28.246094 34.140625 28.199219 34.21875 27.722656 C 34.265625 27.4375 34.148438 26.984375 33.96875 26.691406 C 33.699219 26.253906 33.710938 26.128906 34 25.972656 C 34.273438 25.824219 34.070312 25.035156 33.75 24.28125 C 33.089844 22.152344 35.191406 18.433594 33.09375 17.753906 C 31.828125 17.296875 33.511719 14.8125 31.59375 15.40625 C 31.039062 15.566406 30.648438 15.28125 30 14.84375 C 29.070312 14.375 28.785156 14.355469 27.625 14.40625 C 26.636719 14.445312 26.171875 13.140625 25 14 C 24.015625 15.03125 24.253906 14.523438 23 13.71875 C 22.75 13.46875 22.46875 13.335938 22.15625 13.3125 M 35.246094 21.253906 C 35.089844 21.289062 34.949219 21.398438 34.777344 21.53125 C 34.304688 21.898438 34.277344 21.929688 34.683594 22.3125 C 35.269531 22.871094 35.898438 22.726562 35.996094 22 C 36.074219 21.429688 35.714844 21.132812 35.246094 21.25 M 23.808594 33.78125 C 23.640625 33.816406 23.601562 34.003906 23.652344 34.3125 C 23.699219 34.582031 23.910156 34.8125 24.121094 34.8125 C 24.347656 34.8125 24.511719 35.050781 24.558594 35.40625 C 24.605469 35.738281 24.757812 36 24.871094 36 C 24.988281 36 25.136719 35.738281 25.21875 35.40625 C 25.328125 34.933594 25.257812 34.542969 24.71875 34.15625 C 24.285156 33.847656 23.980469 33.746094 23.8125 33.78125 M 26.183594 34.09375 C 26.027344 34.074219 25.871094 34.152344 25.871094 34.34375 C 25.871094 34.535156 26.054688 34.6875 26.277344 34.6875 C 26.496094 34.6875 26.644531 34.585938 26.589844 34.4375 C 26.511719 34.238281 26.339844 34.113281 26.183594 34.09375 M 22.339844 34.46875 C 22.199219 34.46875 21.988281 34.671875 21.996094 35 C 22.011719 35.53125 22.148438 35.636719 22.339844 35.25 C 22.636719 34.65625 22.636719 34.46875 22.339844 34.46875 M 22.339844 34.46875 "/>
<path style=" stroke:none;fill-rule:nonzero;fill:rgb(90.196078%,90.196078%,90.196078%);fill-opacity:1;" d="M 24.011719 32 L 24.011719 24 L 17.070312 20 L 17.070312 28 M 24.011719 32 "/>
<path style=" stroke:none;fill-rule:nonzero;fill:rgb(75.686275%,75.686275%,75.686275%);fill-opacity:1;" d="M 30.921875 20 L 24.007812 24 L 24.007812 32 L 30.921875 28 M 30.921875 20 "/>
<path style=" stroke:none;fill-rule:nonzero;fill:rgb(97.647059%,97.647059%,97.647059%);fill-opacity:1;" d="M 24.011719 16 L 17.070312 20 L 24.011719 24 L 30.929688 20 M 24.011719 16 "/>
</g>
</svg>
