<!-- color: #3d3d3d -->
<svg xmlns="http://www.w3.org/2000/svg" xmlns:xlink="http://www.w3.org/1999/xlink" width="48px" height="48px" viewBox="0 0 48 48" version="1.1">
<g id="surface1">
<path style=" stroke:none;fill-rule:nonzero;fill:rgb(80%,57.647059%,100%);fill-opacity:1;" d="M 24.03125 9 L 24.34375 12.375 L 23.0625 14.46875 L 25.9375 17.75 L 24.90625 19.40625 C 27.054688 19.832031 28.6875 21.730469 28.6875 24 C 28.6875 26.582031 26.582031 28.6875 24 28.6875 C 21.414062 28.6875 19.3125 26.582031 19.3125 24 C 19.3125 21.472656 21.332031 19.429688 23.84375 19.34375 L 24.34375 18.125 L 21.1875 14.59375 L 22.6875 11.875 L 21.34375 9.25 C 14.320312 10.503906 8.988281 16.621094 8.988281 24 C 8.988281 32.285156 15.714844 39 23.988281 39 C 32.273438 39 38.988281 32.285156 38.988281 24 C 38.988281 15.726562 32.296875 9.015625 24.019531 9 M 23.992188 20.25 C 21.921875 20.25 20.242188 21.921875 20.242188 24 C 20.242188 26.078125 21.921875 27.75 23.992188 27.75 C 26.066406 27.75 27.742188 26.078125 27.742188 24 C 27.742188 21.921875 26.066406 20.25 23.992188 20.25 M 23.992188 21.65625 C 25.285156 21.65625 26.34375 22.703125 26.34375 24 C 26.34375 25.292969 25.285156 26.34375 23.992188 26.34375 C 22.695312 26.34375 21.648438 25.292969 21.648438 24 C 21.648438 22.707031 22.695312 21.65625 23.992188 21.65625 M 23.992188 21.65625 "/>
</g>
</svg>
