<!-- color: #eeeeee -->
<svg xmlns="http://www.w3.org/2000/svg" xmlns:xlink="http://www.w3.org/1999/xlink" width="48px" height="48px" viewBox="0 0 48 48" version="1.1">
<g id="surface1">
<path style=" stroke:none;fill-rule:nonzero;fill:rgb(17.647059%,29.803922%,47.45098%);fill-opacity:1;" d="M 36 13.976562 C 36 13.976562 34 16.976562 31 16.976562 C 28.203125 16.4375 27.09375 16.894531 27 16.976562 L 27 29.078125 C 26.867188 31.628906 24.777344 34.183594 21.664062 35.359375 C 17.714844 36.851562 13.539062 35.554688 12.332031 32.453125 C 11.121094 29.355469 13.332031 25.605469 17.285156 24.113281 C 20.34375 22.957031 23.152344 23.242188 25 24.976562 L 25 12.976562 C 29 10.316406 32.71875 13.9375 36 13.976562 M 36 13.976562 "/>
<path style=" stroke:none;fill-rule:nonzero;fill:rgb(100%,43.529412%,1.176471%);fill-opacity:1;" d="M 17.96875 22 L 31.742188 22 L 31.742188 26 L 17.96875 26 M 17.96875 22 "/>
<path style=" stroke:none;fill-rule:nonzero;fill:rgb(100%,17.647059%,36.078431%);fill-opacity:1;" d="M 31 22 L 31 26 L 33.4375 26 C 33.4375 26 34 25.675781 34 24.003906 C 34 22.390625 33.378906 22.003906 33.378906 22.003906 L 31.003906 22.003906 M 31 22 "/>
<path style=" stroke:none;fill-rule:nonzero;fill:rgb(100%,75.686275%,23.921569%);fill-opacity:1;" d="M 18 22 L 14 24 L 18 25.996094 L 18 21.996094 M 18 22 "/>
<path style=" stroke:none;fill-rule:nonzero;fill:rgb(17.647059%,17.647059%,17.647059%);fill-opacity:1;" d="M 16 22.980469 L 14.003906 24 L 16 25.015625 M 16 22.980469 "/>
</g>
</svg>
