<!-- color: #4d4d4d -->
<svg xmlns="http://www.w3.org/2000/svg" xmlns:xlink="http://www.w3.org/1999/xlink" width="48px" height="48px" viewBox="0 0 48 48" version="1.1">
<g id="surface1">
<path style=" stroke:none;fill-rule:evenodd;fill:rgb(17.647059%,17.647059%,17.647059%);fill-opacity:1;" d="M 48 0 C 44.183594 0 5 0 0 0 C 0 3 0 10 0 13 L 48 13 C 48 9 48 8 48 0 M 48 0 "/>
<path style=" stroke:none;fill-rule:evenodd;fill:rgb(97.647059%,97.647059%,97.647059%);fill-opacity:1;" d="M 17.453125 7 L 18.683594 9 L 17.453125 11 L 14.992188 11 L 16.222656 9 L 14.992188 7 M 17.453125 7 "/>
<path style=" stroke:none;fill-rule:evenodd;fill:rgb(97.647059%,97.647059%,97.647059%);fill-opacity:1;" d="M 22.328125 7 L 23.558594 9 L 22.328125 11 L 19.867188 11 L 21.097656 9 L 19.867188 7 M 22.328125 7 "/>
<path style=" stroke:none;fill-rule:evenodd;fill:rgb(97.647059%,97.647059%,97.647059%);fill-opacity:1;" d="M 27.039062 7 L 28.269531 9 L 27.039062 11 L 24.578125 11 L 25.808594 9 L 24.578125 7 M 27.039062 7 "/>
<path style=" stroke:none;fill-rule:evenodd;fill:rgb(97.647059%,97.647059%,97.647059%);fill-opacity:1;" d="M 31.757812 7 L 32.988281 9 L 31.757812 11 L 29.296875 11 L 30.527344 9 L 29.296875 7 M 31.757812 7 "/>
<path style=" stroke:none;fill-rule:evenodd;fill:rgb(17.647059%,17.647059%,17.647059%);fill-opacity:1;" d="M 0 48 C 0 44 0 39 0 35 L 48 35 C 48 38 48 44 48 48 C 38.003906 48 6.003906 48 0 48 M 0 48 "/>
<path style=" stroke:none;fill-rule:evenodd;fill:rgb(97.647059%,97.647059%,97.647059%);fill-opacity:1;" d="M 17.453125 41.191406 L 18.683594 39.191406 L 17.453125 37.191406 L 14.992188 37.191406 L 16.222656 39.191406 L 14.992188 41.191406 M 17.453125 41.191406 "/>
<path style=" stroke:none;fill-rule:evenodd;fill:rgb(97.647059%,97.647059%,97.647059%);fill-opacity:1;" d="M 22.328125 41.191406 L 23.558594 39.191406 L 22.328125 37.191406 L 19.867188 37.191406 L 21.097656 39.191406 L 19.867188 41.191406 M 22.328125 41.191406 "/>
<path style=" stroke:none;fill-rule:evenodd;fill:rgb(97.647059%,97.647059%,97.647059%);fill-opacity:1;" d="M 27.039062 41.191406 L 28.269531 39.191406 L 27.039062 37.191406 L 24.578125 37.191406 L 25.808594 39.191406 L 24.578125 41.191406 M 27.039062 41.191406 "/>
<path style=" stroke:none;fill-rule:evenodd;fill:rgb(97.647059%,97.647059%,97.647059%);fill-opacity:1;" d="M 31.757812 41.191406 L 32.988281 39.191406 L 31.757812 37.191406 L 29.296875 37.191406 L 30.527344 39.191406 L 29.296875 41.191406 M 31.757812 41.191406 "/>
<path style=" stroke:none;fill-rule:nonzero;fill:rgb(27.45098%,67.058824%,77.254902%);fill-opacity:1;" d="M 16.800781 15 C 16.800781 24.898438 21.300781 23.101562 26.503906 27.292969 C 26.0625 27.886719 25.800781 28.597656 25.800781 29.398438 C 25.800781 31.390625 27.410156 33 29.398438 33 C 31.390625 33 33 31.390625 33 29.398438 C 33 29.074219 32.910156 28.769531 32.855469 28.472656 L 33 28.5 L 32.800781 28.246094 C 32.53125 27.457031 31.984375 26.808594 31.28125 26.359375 M 29.398438 27.601562 C 30.390625 27.601562 31.199219 28.410156 31.199219 29.398438 C 31.199219 30.390625 30.390625 31.199219 29.398438 31.199219 C 28.410156 31.199219 27.601562 30.390625 27.601562 29.398438 C 27.601562 28.410156 28.410156 27.601562 29.398438 27.601562 M 29.398438 27.601562 "/>
<path style=" stroke:none;fill-rule:nonzero;fill:rgb(87.45098%,34.509804%,72.54902%);fill-opacity:1;" d="M 31.199219 15 C 31.199219 24.898438 26.699219 23.097656 21.496094 27.292969 C 21.9375 27.890625 22.199219 28.597656 22.199219 29.398438 C 22.199219 31.386719 20.585938 33 18.597656 33 C 16.609375 33 15 31.386719 15 29.398438 C 15 29.078125 15.0625 28.769531 15.144531 28.46875 L 15 28.5 L 15.195312 28.246094 C 15.464844 27.453125 16.015625 26.808594 16.71875 26.359375 M 18.597656 27.597656 C 17.609375 27.597656 16.796875 28.410156 16.796875 29.398438 C 16.796875 30.386719 17.609375 31.199219 18.597656 31.199219 C 19.585938 31.199219 20.398438 30.386719 20.398438 29.398438 C 20.398438 28.410156 19.585938 27.597656 18.597656 27.597656 M 18.597656 27.597656 "/>
</g>
</svg>
