<!-- color: #5aa9e3 -->
<svg xmlns="http://www.w3.org/2000/svg" xmlns:xlink="http://www.w3.org/1999/xlink" width="48px" height="48px" viewBox="0 0 48 48" version="1.1">
<g id="surface1">
<path style=" stroke:none;fill-rule:nonzero;fill:rgb(17.647059%,17.647059%,17.647059%);fill-opacity:1;" d="M 9 30 L 8 35 L 40 35 L 39 30 M 9 30 "/>
<path style=" stroke:none;fill-rule:nonzero;fill:rgb(97.647059%,97.647059%,97.647059%);fill-opacity:1;" d="M 13.328125 26 L 16.671875 26 C 17.40625 26 18 26.59375 18 27.328125 L 18 30.671875 C 18 31.40625 17.40625 32 16.671875 32 L 13.328125 32 C 12.597656 32 12 31.40625 12 30.671875 L 12 27.328125 C 12 26.59375 12.597656 26 13.328125 26 M 13.328125 26 "/>
<path style=" stroke:none;fill-rule:nonzero;fill:rgb(97.647059%,97.647059%,97.647059%);fill-opacity:1;" d="M 22.328125 26 L 25.671875 26 C 26.40625 26 27 26.59375 27 27.328125 L 27 30.671875 C 27 31.40625 26.40625 32 25.671875 32 L 22.328125 32 C 21.597656 32 21 31.40625 21 30.671875 L 21 27.328125 C 21 26.59375 21.597656 26 22.328125 26 M 22.328125 26 "/>
<path style=" stroke:none;fill-rule:nonzero;fill:rgb(97.647059%,97.647059%,97.647059%);fill-opacity:1;" d="M 31.328125 26 L 34.679688 26 C 35.40625 26 36.007812 26.59375 36.007812 27.328125 L 36.007812 30.671875 C 36.007812 31.40625 35.40625 32 34.679688 32 L 31.328125 32 C 30.601562 32 30.007812 31.40625 30.007812 30.671875 L 30.007812 27.328125 C 30.007812 26.59375 30.605469 26 31.328125 26 M 31.328125 26 "/>
<path style=" stroke:none;fill-rule:evenodd;fill:rgb(100%,100%,100%);fill-opacity:1;" d="M 24 10.011719 C 20.121094 10.011719 17 13.128906 17 17.003906 C 17 20.878906 20.121094 23.992188 24 23.992188 C 27.875 23.992188 31 20.878906 31 17.003906 C 31 13.128906 27.878906 10.011719 24 10.011719 M 24 11.53125 C 27.035156 11.53125 29.476562 13.972656 29.476562 17.003906 C 29.476562 20.039062 27.03125 22.480469 24 22.480469 C 20.960938 22.480469 18.519531 20.039062 18.519531 17.003906 C 18.519531 13.972656 20.964844 11.53125 24 11.53125 M 24 11.53125 "/>
<path style=" stroke:none;fill-rule:nonzero;fill:rgb(100%,100%,100%);fill-opacity:1;" d="M 23.523438 16.929688 L 21.949219 15.355469 C 21.839844 15.246094 21.839844 15.074219 21.949219 14.964844 L 21.953125 14.960938 C 22.058594 14.855469 22.234375 14.855469 22.34375 14.960938 L 23.917969 16.539062 C 24.027344 16.644531 24.027344 16.820312 23.917969 16.929688 C 23.808594 17.039062 23.632812 17.039062 23.523438 16.929688 M 23.523438 16.929688 "/>
<path style=" stroke:none;fill-rule:nonzero;fill:rgb(100%,100%,100%);fill-opacity:1;" d="M 23.976562 16.707031 L 27.972656 16.707031 C 28.132812 16.707031 28.257812 16.832031 28.257812 16.988281 L 28.257812 17.03125 C 28.257812 17.1875 28.132812 17.316406 27.972656 17.316406 L 23.976562 17.316406 C 23.820312 17.316406 23.695312 17.1875 23.695312 17.03125 L 23.695312 16.988281 C 23.695312 16.832031 23.820312 16.707031 23.976562 16.707031 M 23.976562 16.707031 "/>
<path style=" stroke:none;fill-rule:nonzero;fill:rgb(100%,100%,100%);fill-opacity:1;" d="M 21.734375 20.734375 L 23.882812 16.78125 C 23.921875 16.707031 24.011719 16.683594 24.078125 16.726562 C 24.148438 16.769531 24.171875 16.859375 24.132812 16.933594 L 21.984375 20.886719 C 21.941406 20.960938 21.855469 20.984375 21.789062 20.941406 C 21.71875 20.898438 21.695312 20.808594 21.734375 20.734375 M 21.734375 20.734375 "/>
<path style=" stroke:none;fill-rule:nonzero;fill:rgb(100%,100%,100%);fill-opacity:1;" d="M 24.910156 17.011719 C 24.878906 17.488281 24.480469 17.863281 23.996094 17.863281 C 23.515625 17.863281 23.113281 17.488281 23.085938 17.011719 C 23.0625 16.671875 23.234375 16.351562 23.523438 16.175781 C 23.816406 15.992188 24.179688 15.992188 24.46875 16.175781 C 24.761719 16.351562 24.929688 16.671875 24.910156 17.011719 M 24.910156 17.011719 "/>
</g>
</svg>
