<!-- color: #eea53a -->
<svg xmlns="http://www.w3.org/2000/svg" xmlns:xlink="http://www.w3.org/1999/xlink" width="48px" height="48px" viewBox="0 0 48 48" version="1.1">
<g id="surface1">
<path style=" stroke:none;fill-rule:nonzero;fill:rgb(97.647059%,97.647059%,97.647059%);fill-opacity:1;" d="M 29.667969 23.109375 C 31 22.453125 31.835938 21.304688 31.640625 19.386719 C 31.378906 16.765625 28.964844 16.25 26 16 L 26 12 L 24 12 L 24 16 C 23.394531 16 22.613281 16.011719 22 16.023438 L 22 12.003906 L 20 12.003906 L 20 16.003906 C 18.324219 16.003906 16.496094 15.988281 15 15.988281 L 15 18.007812 C 15 18.007812 16.695312 17.976562 16.667969 18.007812 C 17.597656 18.007812 17.914062 18.527344 18 18.976562 L 18 28.9375 C 17.960938 29.21875 17.652344 30.003906 17 30.003906 C 17.03125 30.027344 16 30.003906 16 30.003906 L 15 32.003906 L 17.988281 31.992188 C 18.546875 31.992188 19.460938 32 19.996094 32.003906 L 19.996094 36.003906 L 21.996094 36.003906 L 21.996094 31.984375 C 22.636719 31.996094 23.402344 32 23.996094 32 L 23.996094 36 L 25.996094 36 L 25.996094 32 C 29.859375 31.785156 32.632812 31.179688 32.96875 27.683594 C 33.238281 24.871094 31.863281 23.613281 29.675781 23.109375 M 21.996094 18.164062 C 23.300781 18.164062 27.351562 17.765625 27.351562 20.375 C 27.351562 22.875 23.292969 22.582031 21.996094 22.582031 M 21.996094 29.683594 L 21.996094 24.8125 C 23.5625 24.8125 28.429688 24.382812 28.429688 27.25 C 28.429688 29.996094 23.5625 29.683594 21.996094 29.683594 M 21.996094 29.683594 "/>
</g>
</svg>
