<!-- color: #5086b4 -->
<svg xmlns="http://www.w3.org/2000/svg" xmlns:xlink="http://www.w3.org/1999/xlink" width="48px" height="48px" viewBox="0 0 48 48" version="1.1">
<defs>
<linearGradient id="linear0" gradientUnits="userSpaceOnUse" x1="7.823" y1="10.169" x2="7.771" y2="3.03" gradientTransform="matrix(3.543307,0,0,3.543307,0,0)">
<stop offset="0" style="stop-color:rgb(96.078431%,52.156863%,21.960784%);stop-opacity:1;"/>
<stop offset="1" style="stop-color:rgb(98.431373%,69.803922%,44.313725%);stop-opacity:1;"/>
</linearGradient>
</defs>
<g id="surface1">
<path style=" stroke:none;fill-rule:nonzero;fill:rgb(97.647059%,97.647059%,97.647059%);fill-opacity:1;" d="M 35.640625 26.898438 C 35.691406 29.789062 34.179688 32.484375 31.683594 33.9375 C 29.1875 35.398438 26.097656 35.398438 23.605469 33.9375 C 21.109375 32.480469 19.59375 29.785156 19.644531 26.898438 C 19.597656 24.007812 21.109375 21.316406 23.605469 19.859375 C 26.101562 18.402344 29.191406 18.402344 31.683594 19.859375 C 34.179688 21.320312 35.695312 24.011719 35.640625 26.898438 M 35.640625 26.898438 "/>
<path style=" stroke:none;fill-rule:evenodd;fill:url(#linear0);" d="M 24.683594 12 C 24.253906 12 23.816406 12.160156 23.457031 12.449219 C 23.09375 12.734375 22.859375 13.113281 22.824219 13.558594 C 22.796875 14.007812 22.964844 14.460938 23.296875 14.769531 L 23.296875 14.800781 C 24.082031 15.5 24.894531 16.21875 25.6875 16.933594 L 16.820312 16.933594 C 16.1875 16.933594 15.65625 17.082031 15.246094 17.410156 C 14.839844 17.742188 14.578125 18.234375 14.492188 18.78125 C 14.320312 19.851562 15.070312 21.070312 16.285156 21.070312 L 20.15625 21.070312 L 12.066406 27.820312 C 12.066406 27.820312 12.0625 27.800781 12.035156 27.820312 C 11.542969 28.246094 11.191406 28.839844 11.0625 29.441406 C 10.929688 30.046875 10.996094 30.683594 11.34375 31.191406 C 12.058594 32.222656 13.492188 32.191406 14.492188 31.289062 L 18.738281 27.371094 C 18.742188 27.828125 18.851562 28.542969 19.019531 29.15625 C 19.367188 30.410156 19.960938 31.574219 20.78125 32.589844 C 21.621094 33.636719 22.644531 34.480469 23.832031 35.074219 C 25.082031 35.699219 26.425781 36 27.824219 36 C 29.226562 36 30.570312 35.675781 31.820312 35.042969 C 33.003906 34.445312 34.0625 33.609375 34.902344 32.558594 C 35.714844 31.539062 36.28125 30.375 36.628906 29.121094 C 36.808594 28.488281 36.929688 27.828125 36.976562 27.179688 C 37.019531 26.542969 36.996094 25.90625 36.914062 25.269531 C 36.757812 24.03125 36.398438 22.863281 35.8125 21.800781 C 35.355469 20.972656 34.746094 20.25 34.082031 19.605469 L 34.113281 19.574219 L 33.765625 19.285156 L 25.90625 12.476562 C 25.90625 12.476562 25.875 12.449219 25.871094 12.445312 C 25.871094 12.445312 25.84375 12.445312 25.839844 12.445312 C 25.5 12.152344 25.101562 11.996094 24.679688 11.996094 M 27.730469 19.160156 C 31.792969 19.160156 35.089844 22.492188 35.089844 26.605469 C 35.089844 30.71875 31.792969 34.054688 27.730469 34.054688 C 23.664062 34.054688 20.371094 30.71875 20.371094 26.605469 C 20.371094 22.492188 23.664062 19.160156 27.730469 19.160156 M 27.730469 19.160156 "/>
<path style=" stroke:none;fill-rule:nonzero;fill:rgb(18.431373%,43.921569%,63.921569%);fill-opacity:1;" d="M 31.648438 26.601562 C 31.648438 28.839844 29.859375 30.652344 27.648438 30.652344 C 25.441406 30.652344 23.648438 28.839844 23.648438 26.601562 C 23.648438 24.367188 25.4375 22.554688 27.648438 22.554688 C 29.855469 22.554688 31.648438 24.367188 31.648438 26.601562 M 31.648438 26.601562 "/>
</g>
</svg>
