<!-- color: #acd5ff -->
<svg xmlns="http://www.w3.org/2000/svg" xmlns:xlink="http://www.w3.org/1999/xlink" width="48px" height="48px" viewBox="0 0 48 48" version="1.1">
<g id="surface1">
<path style=" stroke:none;fill-rule:nonzero;fill:rgb(43.921569%,63.921569%,84.705882%);fill-opacity:1;" d="M 36.640625 12.5 C 36.640625 12.5 29.886719 13.675781 31.578125 20.199219 C 31.722656 20.765625 31.964844 27.949219 31.964844 27.949219 C 32.582031 29.449219 34.457031 30.476562 37.003906 30.085938 C 35.984375 28.582031 33.359375 26.179688 35.253906 21.566406 C 36.621094 19.171875 34.453125 14.066406 36.644531 12.496094 M 36.644531 12.5 "/>
<path style=" stroke:none;fill-rule:nonzero;fill:rgb(35.686275%,53.333333%,75.294118%);fill-opacity:1;" d="M 13.867188 30.945312 L 16.074219 30.738281 L 19.863281 30.550781 L 19.710938 29.300781 L 24.851562 27.128906 L 24.972656 28.566406 L 21.726562 32.484375 C 21.726562 32.484375 20.6875 31.785156 20.496094 31.785156 C 20.308594 31.785156 14.46875 31.921875 14.46875 31.921875 M 13.863281 30.945312 "/>
<path style=" stroke:none;fill-rule:nonzero;fill:rgb(97.647059%,97.647059%,97.647059%);fill-opacity:1;" d="M 12.425781 20.300781 L 13.695312 22.988281 L 14.429688 22.242188 L 17.441406 15.878906 L 14.0625 15.886719 L 12.34375 17.867188 M 12.425781 20.300781 "/>
<path style=" stroke:none;fill-rule:nonzero;fill:rgb(17.647059%,17.647059%,17.647059%);fill-opacity:1;" d="M 15.410156 18.808594 C 15.421875 19.089844 15.277344 19.351562 15.035156 19.496094 C 14.796875 19.636719 14.496094 19.636719 14.253906 19.496094 C 14.015625 19.351562 13.871094 19.089844 13.878906 18.808594 C 13.871094 18.527344 14.015625 18.265625 14.253906 18.121094 C 14.496094 17.980469 14.796875 17.980469 15.035156 18.121094 C 15.277344 18.265625 15.421875 18.527344 15.410156 18.808594 M 15.410156 18.808594 "/>
<path style=" stroke:none;fill-rule:nonzero;fill:rgb(97.647059%,97.647059%,97.647059%);fill-opacity:1;" d="M 24.210938 14.996094 C 24.210938 14.996094 20.960938 16.691406 20.824219 17.109375 C 20.683594 17.527344 20.378906 25.457031 20.378906 25.457031 L 24.960938 27.429688 L 29.765625 25.648438 L 29.40625 20.949219 L 26.769531 16.1875 M 24.210938 14.996094 "/>
<path style=" stroke:none;fill-rule:nonzero;fill:rgb(43.529412%,63.529412%,83.921569%);fill-opacity:1;" d="M 21.140625 23.578125 C 21.390625 29.230469 30.46875 27.769531 29.230469 22.101562 C 28.007812 24.039062 25.511719 27.222656 21.140625 23.578125 M 21.140625 23.578125 "/>
<path style=" stroke:none;fill-rule:nonzero;fill:rgb(43.529412%,63.529412%,83.921569%);fill-opacity:1;" d="M 20.90625 18.917969 C 22.613281 17.617188 26.410156 17.511719 28.746094 19.871094 C 27.234375 13.898438 21.832031 13.75 20.90625 18.917969 M 20.90625 18.917969 "/>
<path style=" stroke:none;fill-rule:nonzero;fill:rgb(17.647059%,17.647059%,17.647059%);fill-opacity:1;" d="M 26.457031 20.933594 C 26.472656 21.355469 26.257812 21.75 25.894531 21.960938 C 25.535156 22.175781 25.085938 22.175781 24.722656 21.960938 C 24.363281 21.75 24.148438 21.355469 24.160156 20.933594 C 24.148438 20.511719 24.363281 20.117188 24.722656 19.902344 C 25.085938 19.691406 25.535156 19.691406 25.894531 19.902344 C 26.257812 20.117188 26.472656 20.511719 26.457031 20.933594 M 26.457031 20.933594 "/>
<path style=" stroke:none;fill-rule:nonzero;fill:rgb(43.529412%,63.921569%,83.921569%);fill-opacity:1;" d="M 17.65625 16.292969 L 19.25 15.105469 C 11.910156 12.414062 8.140625 19.753906 13.566406 23.625 L 13.882812 22.660156 C 10.957031 17.859375 13.667969 15.765625 17.65625 16.292969 M 17.65625 16.292969 "/>
<path style=" stroke:none;fill-rule:nonzero;fill:rgb(18.039216%,41.176471%,69.019608%);fill-opacity:1;" d="M 31.746094 18.789062 C 29.574219 15.808594 25.46875 14.464844 22.214844 14.464844 C 14.039062 14.929688 13.382812 23.191406 13.222656 24.730469 C 13.222656 26.148438 13.484375 27.53125 13.941406 28.761719 C 13.285156 29.097656 12.632812 29.902344 13.777344 30.703125 C 13.695312 30.738281 13.628906 30.769531 13.585938 30.828125 C 13.015625 31.558594 14.304688 32.128906 14.878906 32.570312 C 15.1875 32.808594 16.054688 33.1875 17.246094 33.308594 C 18.667969 34.390625 20.382812 34.996094 22.21875 34.996094 C 25.882812 34.996094 30.480469 30.726562 32.453125 27.273438 C 34.265625 24.523438 33.949219 21.183594 31.75 18.785156 M 24.394531 15.316406 C 27.171875 15.09375 33.042969 24.679688 25.726562 26.953125 C 20.308594 28.214844 18.640625 16.613281 24.394531 15.316406 M 24.445312 27.523438 C 24.484375 27.539062 24.535156 27.570312 24.566406 27.628906 C 24.816406 28.035156 24.402344 28.863281 23.394531 30.007812 C 22.382812 31.148438 21.574219 31.800781 21.574219 31.800781 C 21.574219 31.800781 22.847656 30.484375 22.390625 30.320312 C 21.9375 30.171875 21.28125 31.277344 18.589844 31.449219 C 16.90625 31.558594 14.164062 31.011719 14.164062 31.011719 C 14.164062 31.011719 16.796875 31.398438 18.683594 31.109375 C 20.753906 30.796875 22.976562 29.558594 21.867188 29.609375 C 20.765625 29.664062 20.117188 29.636719 20.117188 29.636719 C 20.117188 29.636719 21.640625 29.226562 22.804688 28.65625 C 23.675781 28.226562 24.074219 27.644531 24.328125 27.554688 C 24.371094 27.53125 24.410156 27.515625 24.449219 27.527344 M 24.445312 27.527344 "/>
</g>
</svg>
