<!-- color: #659eb9 -->
<svg xmlns="http://www.w3.org/2000/svg" xmlns:xlink="http://www.w3.org/1999/xlink" width="48px" height="48px" viewBox="0 0 48 48" version="1.1">
<g id="surface1">
<path style=" stroke:none;fill-rule:evenodd;fill:rgb(97.647059%,97.647059%,97.647059%);fill-opacity:1;" d="M 23.472656 18.550781 L 23.472656 22.894531 L 21.042969 21.078125 L 20.222656 21.722656 L 23.242188 24 L 20.171875 26.277344 L 21.132812 26.988281 L 23.472656 25.140625 L 23.472656 29.449219 L 27.824219 26.277344 L 24.941406 24.035156 L 27.730469 21.824219 L 23.472656 18.550781 M 24.660156 20.652344 L 26.089844 21.859375 L 24.660156 22.929688 M 24.613281 25.175781 L 26.136719 26.242188 L 24.714844 27.203125 M 24.613281 25.175781 "/>
<path style=" stroke:none;fill-rule:nonzero;fill:rgb(97.647059%,97.647059%,97.647059%);fill-opacity:1;" d="M 18.960938 19.078125 C 16.183594 21.800781 16.171875 26.21875 18.949219 28.929688 L 20.269531 27.636719 C 18.210938 25.625 18.21875 22.394531 20.285156 20.367188 M 27.71875 20.355469 C 29.777344 22.378906 29.792969 25.628906 27.730469 27.644531 L 29.050781 28.933594 C 31.832031 26.21875 31.816406 21.777344 29.039062 19.066406 M 27.71875 20.355469 "/>
<path style=" stroke:none;fill-rule:nonzero;fill:rgb(97.647059%,97.647059%,97.647059%);fill-opacity:1;" d="M 14.8125 15.019531 C 9.742188 19.972656 9.726562 28.03125 14.789062 32.976562 L 17.199219 30.621094 C 13.4375 26.945312 13.457031 21.050781 17.222656 17.375 L 14.808594 15.019531 M 30.78125 17.351562 C 34.539062 21.027344 34.566406 26.960938 30.800781 30.640625 L 33.210938 32.996094 C 38.28125 28.042969 38.253906 19.945312 33.191406 14.996094 M 30.78125 17.351562 "/>
</g>
</svg>
