<!-- color: #7b7b7b -->
<svg xmlns="http://www.w3.org/2000/svg" xmlns:xlink="http://www.w3.org/1999/xlink" width="48px" height="48px" viewBox="0 0 48 48" version="1.1">
<g id="surface1">
<path style=" stroke:none;fill-rule:evenodd;fill:rgb(100%,100%,100%);fill-opacity:0.247059;" d="M 24 9 L 24.003906 9 C 32.285156 9 39 15.714844 39 24 L 39 24.003906 C 39 32.285156 32.285156 39 24.003906 39 L 24 39 C 15.714844 39 9 32.285156 9 24.003906 L 9 24 C 9 15.714844 15.714844 9 24 9 M 24 9 "/>
<path style=" stroke:none;fill-rule:nonzero;fill:rgb(97.647059%,97.647059%,97.647059%);fill-opacity:1;" d="M 14 31.667969 L 16.988281 31.667969 L 16.988281 33.996094 L 14 33.996094 M 14 31.667969 "/>
<path style=" stroke:none;fill-rule:nonzero;fill:rgb(97.647059%,97.647059%,97.647059%);fill-opacity:1;" d="M 16.992188 29.351562 L 19.980469 29.351562 L 19.980469 31.683594 L 16.992188 31.683594 M 16.992188 29.351562 "/>
<path style=" stroke:none;fill-rule:nonzero;fill:rgb(97.647059%,97.647059%,97.647059%);fill-opacity:1;" d="M 34 31.664062 L 31.015625 31.664062 L 31.015625 33.996094 L 34 33.996094 M 34 31.664062 "/>
<path style=" stroke:none;fill-rule:nonzero;fill:rgb(97.647059%,97.647059%,97.647059%);fill-opacity:1;" d="M 31.011719 29.347656 L 28.023438 29.347656 L 28.023438 31.679688 L 31.011719 31.679688 M 31.011719 29.347656 "/>
<path style=" stroke:none;fill-rule:nonzero;fill:rgb(97.647059%,97.647059%,97.647059%);fill-opacity:1;" d="M 20 27 L 28.039062 27 L 28.039062 29.332031 L 20 29.332031 M 20 27 "/>
<path style=" stroke:none;fill-rule:nonzero;fill:rgb(97.647059%,97.647059%,97.647059%);fill-opacity:1;" d="M 15 13 L 17 13 L 17 19 L 15 19 M 15 13 "/>
<path style=" stroke:none;fill-rule:nonzero;fill:rgb(97.647059%,97.647059%,97.647059%);fill-opacity:1;" d="M 13 15 L 19 15 L 19 17 L 13 17 M 13 15 "/>
<path style=" stroke:none;fill-rule:nonzero;fill:rgb(97.647059%,97.647059%,97.647059%);fill-opacity:1;" d="M 31 13 L 33 13 L 33 19 L 31 19 M 31 13 "/>
<path style=" stroke:none;fill-rule:nonzero;fill:rgb(97.647059%,97.647059%,97.647059%);fill-opacity:1;" d="M 29 15 L 34.996094 15 L 34.996094 16.996094 L 29 16.996094 M 29 15 "/>
</g>
</svg>
