<!-- color: #004794 -->
<svg xmlns="http://www.w3.org/2000/svg" xmlns:xlink="http://www.w3.org/1999/xlink" width="48px" height="48px" viewBox="0 0 48 48" version="1.1">
<g id="surface1">
<path style=" stroke:none;fill-rule:nonzero;fill:rgb(97.647059%,97.647059%,97.647059%);fill-opacity:1;" d="M 34.554688 19.613281 C 32.726562 15.59375 28.636719 13 24.027344 13 C 19.308594 13 14.988281 15.832031 13.296875 20.039062 L 16.871094 21.363281 C 18.003906 18.554688 20.882812 16.675781 24.027344 16.675781 C 27.058594 16.675781 29.742188 18.355469 30.984375 20.976562 L 28.378906 21.976562 L 35.046875 25.660156 L 37 18.6875 M 34.554688 19.617188 "/>
<path style=" stroke:none;fill-rule:nonzero;fill:rgb(97.647059%,97.647059%,97.647059%);fill-opacity:1;" d="M 24.03125 31.339844 C 21.019531 31.339844 18.28125 29.605469 17.054688 26.996094 L 19.617188 26.046875 L 13.019531 22.441406 L 10.996094 29.234375 L 13.464844 28.324219 C 15.253906 32.335938 19.441406 35.003906 24.027344 35.003906 C 28.757812 35.003906 32.949219 32.285156 34.703125 28.078125 L 31.144531 26.722656 C 29.976562 29.527344 27.179688 31.339844 24.027344 31.339844 M 24.027344 31.339844 "/>
</g>
</svg>
