<!-- color: #eeeeee -->
<svg xmlns="http://www.w3.org/2000/svg" xmlns:xlink="http://www.w3.org/1999/xlink" width="48px" height="48px" viewBox="0 0 48 48" version="1.1">
<g id="surface1">
<path style=" stroke:none;fill-rule:nonzero;fill:rgb(17.647059%,17.647059%,17.647059%);fill-opacity:1;" d="M 11.785156 11.78125 C 11.105469 12.457031 10.660156 13.117188 11.335938 13.800781 L 34.136719 36.613281 C 34.8125 37.289062 35.652344 37.019531 36.332031 36.34375 C 37.011719 35.667969 37.285156 34.832031 36.609375 34.15625 L 13.808594 11.34375 C 13.132812 10.664062 12.464844 11.113281 11.789062 11.785156 M 16.128906 16.132812 C 16.476562 15.785156 16.800781 15.574219 17.148438 15.921875 L 35.988281 34.765625 C 36.335938 35.113281 36.0625 35.378906 35.714844 35.726562 C 35.371094 36.074219 35.101562 36.339844 34.757812 35.996094 L 15.917969 17.148438 C 15.570312 16.800781 15.785156 16.480469 16.132812 16.132812 M 16.128906 16.132812 "/>
<path style=" stroke:none;fill-rule:nonzero;fill:rgb(0%,60%,100%);fill-opacity:1;" d="M 17.5 24.804688 L 16.6875 27.234375 L 14.25 28.046875 L 16.6875 28.855469 L 17.5 31.289062 L 18.3125 28.855469 L 20.75 28.046875 L 18.3125 27.234375 M 17.5 24.804688 "/>
<path style=" stroke:none;fill-rule:nonzero;fill:rgb(83.137255%,12.54902%,57.647059%);fill-opacity:1;" d="M 31.71875 11.4375 L 30.5 15.082031 L 26.84375 16.300781 L 30.5 17.515625 L 31.71875 21.160156 L 32.9375 17.515625 L 36.59375 16.300781 L 32.9375 15.082031 M 31.71875 11.4375 "/>
<path style=" stroke:none;fill-rule:nonzero;fill:rgb(100%,35.686275%,0%);fill-opacity:1;" d="M 21.5625 11.03125 L 20.75 13.460938 L 18.3125 14.273438 L 20.75 15.082031 L 21.5625 17.515625 L 22.371094 15.082031 L 24.808594 14.273438 L 22.371094 13.460938 M 21.5625 11.03125 "/>
</g>
</svg>
