<!-- color: #f4b46d -->
<svg xmlns="http://www.w3.org/2000/svg" xmlns:xlink="http://www.w3.org/1999/xlink" width="48px" height="48px" viewBox="0 0 48 48" version="1.1">
<g id="surface1">
<path style=" stroke:none;fill-rule:nonzero;fill:rgb(66.27451%,50.588235%,33.333333%);fill-opacity:1;" d="M 13.773438 18 L 34.226562 18 C 35.207031 18 36 18.792969 36 19.773438 L 36 34.226562 C 36 35.207031 35.207031 36 34.226562 36 L 13.773438 36 C 12.792969 36 12 35.207031 12 34.226562 L 12 19.773438 C 12 18.792969 12.792969 18 13.773438 18 M 13.773438 18 "/>
<path style=" stroke:none;fill-rule:nonzero;fill:rgb(66.27451%,50.588235%,33.333333%);fill-opacity:1;" d="M 18 20 L 18 12 L 30 12 L 30 20 L 28.003906 20 L 28.003906 14 L 20.003906 14 L 20.003906 20 M 18.003906 20 "/>
<path style=" stroke:none;fill-rule:nonzero;fill:rgb(100%,89.411765%,32.54902%);fill-opacity:1;" d="M 14 18 L 15.996094 18 L 15.996094 20 L 14 20 M 14 18 "/>
<path style=" stroke:none;fill-rule:nonzero;fill:rgb(100%,89.411765%,32.54902%);fill-opacity:1;" d="M 31.996094 18 L 33.996094 18 L 33.996094 20 L 31.996094 20 M 31.996094 18 "/>
<path style=" stroke:none;fill-rule:nonzero;fill:rgb(47.058824%,31.764706%,18.431373%);fill-opacity:1;" d="M 14 20 L 16 20 L 16 36 L 14 36 M 14 20 "/>
<path style=" stroke:none;fill-rule:nonzero;fill:rgb(47.058824%,31.764706%,18.431373%);fill-opacity:1;" d="M 31.996094 20 L 33.996094 20 L 33.996094 36 L 31.996094 36 M 31.996094 20 "/>
<path style=" stroke:none;fill-rule:nonzero;fill:rgb(0%,0%,0%);fill-opacity:0.101961;" d="M 36 20 L 14 36 L 34.21875 36 C 35.199219 36 36 35.199219 36 34.21875 M 36 20 "/>
</g>
</svg>
