<!-- color: #c84c53 -->
<svg xmlns="http://www.w3.org/2000/svg" xmlns:xlink="http://www.w3.org/1999/xlink" width="48px" height="48px" viewBox="0 0 48 48" version="1.1">
<g id="surface1">
<path style="fill:none;stroke-width:0.564;stroke-linecap:butt;stroke-linejoin:miter;stroke:rgb(97.647059%,97.647059%,97.647059%);stroke-opacity:1;stroke-miterlimit:4;" d="M 4.84849 9.020087 C 4.688637 8.85362 4.267509 7.833872 3.912526 6.75349 C 3.359106 5.082205 3.295165 4.742656 3.481476 4.514453 C 3.751571 4.174905 4.21349 4.16388 4.472561 4.492405 C 4.581702 4.628004 4.794471 5.162682 4.945504 5.685235 C 5.096537 6.204479 5.289462 6.633325 5.375452 6.63553 C 5.463646 6.63553 5.689644 6.161485 5.880365 5.580504 C 6.469063 3.759288 7.093038 3.783542 7.73796 5.655469 C 7.951832 6.27724 8.180035 6.784358 8.247283 6.784358 C 8.313429 6.784358 8.496432 6.290469 8.65408 5.688542 C 8.957248 4.534297 9.2075 4.181519 9.663906 4.270816 C 10.334184 4.407517 10.330877 4.842978 9.648472 6.879167 C 8.9352 9.011268 8.65849 9.419167 8.031207 9.256007 C 7.661893 9.160096 7.367544 8.601163 7.011459 7.331163 C 6.884679 6.870347 6.625608 7.161389 6.376458 8.044436 C 6.035807 9.253802 5.440495 9.636346 4.851797 9.015677 M 4.84849 9.015677 " transform="matrix(3.543307,0,0,3.543307,0,0)"/>
<path style=" stroke:none;fill-rule:nonzero;fill:rgb(100%,60%,0%);fill-opacity:1;" d="M 17.179688 31.960938 C 16.621094 31.371094 15.128906 27.757812 13.863281 23.929688 C 11.902344 18.007812 11.675781 16.808594 12.335938 16.003906 C 13.300781 14.800781 14.929688 14.761719 15.855469 15.917969 C 16.242188 16.398438 16.992188 18.300781 17.523438 20.144531 C 18.058594 21.984375 18.742188 23.503906 19.054688 23.511719 C 19.367188 23.515625 20.167969 21.835938 20.835938 19.773438 C 22.921875 13.320312 25.132812 13.40625 27.417969 20.046875 C 28.175781 22.242188 28.984375 24.039062 29.222656 24.039062 C 29.457031 24.039062 30.105469 22.296875 30.664062 20.160156 C 31.738281 16.066406 32.625 14.816406 34.242188 15.140625 C 36.617188 15.621094 36.605469 17.167969 34.1875 24.382812 C 31.652344 31.9375 30.671875 33.382812 28.449219 32.804688 C 27.140625 32.464844 26.097656 30.484375 24.84375 25.984375 C 24.394531 24.355469 23.476562 25.386719 22.59375 28.515625 C 21.386719 32.804688 19.277344 34.152344 17.191406 31.960938 M 17.179688 31.960938 "/>
</g>
</svg>
