<!-- color: #eeeeee -->
<svg xmlns="http://www.w3.org/2000/svg" xmlns:xlink="http://www.w3.org/1999/xlink" width="48px" height="48px" viewBox="0 0 48 48" version="1.1">
<defs>
<linearGradient id="linear0" gradientUnits="userSpaceOnUse" x1="0" y1="3" x2="0" y2="45" >
<stop offset="0" style="stop-color:rgb(98.823529%,45.882353%,23.921569%);stop-opacity:1;"/>
<stop offset="1" style="stop-color:rgb(100%,30.196078%,41.568627%);stop-opacity:1;"/>
</linearGradient>
</defs>
<g id="surface1">
<path style=" stroke:none;fill-rule:evenodd;fill:rgb(100%,100%,100%);fill-opacity:0.501961;" d="M 24 1 C 36.699219 1 47 11.296875 47 24 C 47 36.699219 36.699219 47 24 47 C 11.296875 47 1 36.699219 1 24 C 1 11.296875 11.296875 1 24 1 M 24 1 "/>
<path style=" stroke:none;fill-rule:evenodd;fill:url(#linear0);" d="M 48 0 C 44.808594 0 4 0 0 0 C 0 3 0 15.558594 0 24 L 48 24 C 48 12.367188 48 6 48 0 M 0 27 C 0 28 0 30 0 31 L 48 31 C 48 30 48 28 48 27 M 0 34 C 0 35 0 37 0 38 L 48 38 C 48 36 48 36 48 34 M 0 41 C 0 44 0 45 0 48 C 1.660156 48 42 48 48 48 C 48 46 48 43 48 41 M 0 41 "/>
</g>
</svg>
