<!-- color: #78a5f0 -->
<svg xmlns="http://www.w3.org/2000/svg" xmlns:xlink="http://www.w3.org/1999/xlink" width="48px" height="48px" viewBox="0 0 48 48" version="1.1">
<g id="surface1">
<path style=" stroke:none;fill-rule:nonzero;fill:rgb(85.882353%,36.078431%,23.921569%);fill-opacity:1;" d="M 11.53125 13 C 11.234375 13.03125 11 13.296875 11 13.59375 L 11 24.410156 C 11 24.726562 11.277344 25.003906 11.59375 25.003906 L 17 25.003906 L 17 27.003906 L 13 27.003906 L 13 29.003906 L 20.28125 29.003906 L 20.28125 23.003906 L 13.441406 23.003906 C 13.230469 23.003906 13.03125 22.808594 13.03125 22.59375 L 13.03125 15.410156 C 13.027344 15.222656 13.160156 15.039062 13.34375 15.003906 C 13.367188 15 13.410156 15 13.4375 15.003906 L 24.5625 15.003906 C 24.769531 15.003906 24.96875 15.195312 24.96875 15.410156 L 24.96875 18.285156 L 27 18.285156 L 27 13.59375 C 27 13.28125 26.71875 13 26.40625 13 M 11.53125 13 "/>
<path style=" stroke:none;fill-rule:nonzero;fill:rgb(87.058824%,69.803922%,21.176471%);fill-opacity:1;" d="M 21.535156 19 C 21.242188 19.03125 20.996094 19.304688 20.996094 19.597656 L 20.996094 30.40625 C 20.996094 30.71875 21.285156 31.003906 21.597656 31.003906 L 26.996094 31.003906 L 26.996094 33.996094 L 30.996094 33.996094 L 30.996094 31.003906 L 36.398438 31.003906 C 36.710938 31.003906 36.996094 30.71875 36.996094 30.40625 L 36.996094 19.597656 C 36.996094 19.28125 36.707031 19 36.398438 19 M 23.347656 21 C 23.371094 20.996094 23.394531 20.996094 23.421875 21 L 34.566406 21 C 34.777344 21 34.96875 21.191406 34.96875 21.402344 L 34.96875 28.605469 C 34.96875 28.8125 34.777344 29.003906 34.566406 29.003906 L 23.421875 29.003906 C 23.210938 29.003906 23.019531 28.8125 23.019531 28.605469 L 23.019531 21.402344 C 23.015625 21.214844 23.164062 21.035156 23.347656 21 M 22.996094 33 L 22.996094 35 L 34.996094 35 L 34.996094 33 M 22.996094 33 "/>
</g>
</svg>
