<!-- color: #eeeeee -->
<svg xmlns="http://www.w3.org/2000/svg" xmlns:xlink="http://www.w3.org/1999/xlink" width="48px" height="48px" viewBox="0 0 48 48" version="1.1">
<g id="surface1">
<path style=" stroke:none;fill-rule:evenodd;fill:rgb(46.27451%,64.705882%,98.039216%);fill-opacity:1;" d="M 24 13 C 18.078125 13 13.050781 16.640625 11 21.8125 L 22 25.9375 L 25 13.03125 C 24.667969 13.007812 24.339844 13 24 13 M 25 13.03125 C 8.332031 36.34375 16.667969 24.6875 25 13.03125 M 25 13.03125 "/>
<path style=" stroke:none;fill-rule:nonzero;fill:rgb(25.882353%,49.803922%,92.54902%);fill-opacity:1;" d="M 25 13.03125 L 26 26 L 26.09375 26 L 37 21.8125 C 35.066406 16.933594 30.480469 13.414062 25 13.03125 M 25 13.03125 "/>
<path style=" stroke:none;fill-rule:nonzero;fill:rgb(60%,60%,60%);fill-opacity:1;" d="M 24 25.019531 C 21.238281 25.019531 19 27.257812 19 30.019531 C 19 32.78125 21.238281 35.019531 24 35.019531 C 26.757812 35.019531 29 32.78125 29 30.019531 C 29 27.257812 26.757812 25.019531 24 25.019531 M 24 28.019531 C 25.105469 28.019531 25.996094 28.917969 25.996094 30.019531 C 25.996094 31.125 25.101562 32.019531 24 32.019531 C 22.894531 32.019531 22 31.121094 22 30.019531 C 22 28.914062 22.898438 28.019531 24 28.019531 M 24 28.019531 "/>
</g>
</svg>
