<!-- color: #fac82a -->
<svg xmlns="http://www.w3.org/2000/svg" xmlns:xlink="http://www.w3.org/1999/xlink" width="48px" height="48px" viewBox="0 0 48 48" version="1.1">
<g id="surface1">
<path style=" stroke:none;fill-rule:nonzero;fill:rgb(24.705882%,24.705882%,24.705882%);fill-opacity:1;" d="M 11.96875 20 C 11.398438 20.027344 11 20.175781 11 20.78125 L 11 33.53125 C 11 34.339844 11.6875 35 12.5625 35 L 35.40625 35 C 36.285156 35 37 34.339844 37 33.53125 L 37 20.78125 C 37 19.972656 36.285156 20 35.40625 20 L 12.5625 20 C 12.34375 20 12.160156 19.988281 11.96875 20 M 30 22 L 31.5 23 L 21 32.5 L 16 28.554688 L 17 27 L 21 30 M 30 22 "/>
<path style=" stroke:none;fill-rule:nonzero;fill:rgb(24.705882%,24.705882%,24.705882%);fill-opacity:1;" d="M 15.050781 13.402344 L 11.800781 18 L 23 18 L 23 11 L 17.488281 11 C 16.679688 11 15.050781 13.402344 15.050781 13.402344 M 24.992188 11 L 24.992188 18 L 36.175781 18 L 32.925781 13.402344 C 32.925781 13.402344 31.300781 11 30.484375 11 M 24.992188 11 "/>
</g>
</svg>
