<!-- color: #59bed7 -->
<svg xmlns="http://www.w3.org/2000/svg" xmlns:xlink="http://www.w3.org/1999/xlink" width="48px" height="48px" viewBox="0 0 48 48" version="1.1">
<g id="surface1">
<path style=" stroke:none;fill-rule:nonzero;fill:rgb(17.647059%,17.647059%,17.647059%);fill-opacity:1;" d="M 29.59375 12 C 27.488281 12 25.605469 13.011719 24.4375 14.5625 C 25.265625 15.703125 25.75 17.113281 25.75 18.625 C 25.75 19.433594 25.601562 20.1875 25.34375 20.90625 C 26.847656 22.066406 28.171875 23.554688 29.5 25 C 32.914062 24.859375 36 21.796875 36 18.375 C 36 14.863281 33.136719 12 29.59375 12 M 29.78125 15.875 C 31.15625 15.875 32.257812 16.972656 32.257812 18.34375 C 32.257812 19.71875 31.15625 20.84375 29.78125 20.84375 C 28.410156 20.84375 27.28125 19.71875 27.28125 18.34375 C 27.28125 16.972656 28.410156 15.875 29.78125 15.875 M 29.78125 15.875 "/>
<path style=" stroke:none;fill-rule:nonzero;fill:rgb(17.647059%,17.647059%,17.647059%);fill-opacity:1;" d="M 23.535156 29.058594 L 19.453125 36 C 18.238281 34.050781 16.289062 27.757812 21.203125 25.011719 M 23.535156 29.058594 "/>
<path style=" stroke:none;fill-rule:nonzero;fill:rgb(17.647059%,17.647059%,17.647059%);fill-opacity:1;" d="M 29.367188 36 L 20.621094 21.542969 L 22.953125 19.230469 C 25.316406 21.902344 27.683594 23.363281 30.039062 27.089844 C 31.890625 29.5 30.359375 35.566406 29.367188 36 M 29.367188 36 "/>
<path style=" stroke:none;fill-rule:nonzero;fill:rgb(17.647059%,17.647059%,17.647059%);fill-opacity:1;" d="M 18.414062 12.089844 C 14.871094 12.089844 12 14.9375 12 18.449219 C 12 21.964844 14.871094 24.8125 18.414062 24.8125 C 21.957031 24.8125 24.828125 21.964844 24.828125 18.449219 C 24.828125 14.9375 21.957031 12.089844 18.414062 12.089844 M 18.542969 16.011719 C 19.925781 16.011719 21.039062 17.117188 21.039062 18.488281 C 21.039062 19.859375 19.925781 20.964844 18.542969 20.964844 C 17.160156 20.964844 16.027344 19.859375 16.027344 18.488281 C 16.027344 17.117188 17.160156 16.011719 18.542969 16.011719 M 18.542969 16.011719 "/>
</g>
</svg>
