<!-- color: #f2b700 -->
<svg xmlns="http://www.w3.org/2000/svg" xmlns:xlink="http://www.w3.org/1999/xlink" width="48px" height="48px" viewBox="0 0 48 48" version="1.1">
<g id="surface1">
<path style=" stroke:none;fill-rule:nonzero;fill:rgb(94.901961%,94.901961%,94.901961%);fill-opacity:1;" d="M 19.875 9 C 19.382812 9 19 9.382812 19 9.875 L 19 13 L 17.34375 13 C 14.945312 13 13.03125 14.914062 13.03125 17.3125 L 13.03125 18 L 9.875 18 C 9.382812 18 9 18.386719 9 18.875 L 9 19.125 C 9 19.617188 9.382812 20 9.875 20 L 13.03125 20 L 13.03125 22 L 9.875 22 C 9.382812 22 9 22.386719 9 22.875 L 9 23.125 C 9 23.617188 9.382812 24 9.875 24 L 13.03125 24 L 13.03125 26 L 9.875 26 C 9.382812 26 9 26.386719 9 26.875 L 9 27.125 C 9 27.617188 9.382812 28 9.875 28 L 13.03125 28 L 13.03125 30.6875 C 13.03125 33.085938 14.945312 35.003906 17.34375 35.003906 L 19 35.003906 L 19 38.128906 C 19 38.617188 19.382812 39.003906 19.875 39.003906 L 20.125 39.003906 C 20.617188 39.003906 21 38.617188 21 38.128906 L 21 35.003906 L 23 35.003906 L 23 38.128906 C 23 38.617188 23.382812 39.003906 23.875 39.003906 L 24.125 39.003906 C 24.617188 39.003906 25 38.617188 25 38.128906 L 25 35.003906 L 27 35.003906 L 27 38.128906 C 27 38.617188 27.382812 39.003906 27.875 39.003906 L 28.125 39.003906 C 28.617188 39.003906 29 38.617188 29 38.128906 L 29 35.003906 L 30.6875 35.003906 C 33.085938 35.003906 35 33.089844 35 30.6875 L 35 28 L 38.125 28 C 38.617188 28 39 27.617188 39 27.125 L 39 26.875 C 39 26.386719 38.617188 26 38.125 26 L 35 26 L 35 24 L 38.125 24 C 38.617188 24 39 23.617188 39 23.125 L 39 22.875 C 39 22.386719 38.617188 22 38.125 22 L 35 22 L 35 20 L 38.125 20 C 38.617188 20 39 19.617188 39 19.125 L 39 18.875 C 39 18.386719 38.617188 18 38.125 18 L 35 18 L 35 17.3125 C 35 14.914062 33.085938 13 30.6875 13 L 29 13 L 29 9.875 C 29 9.382812 28.617188 9 28.125 9 L 27.875 9 C 27.382812 9 27 9.382812 27 9.875 L 27 13 L 25 13 L 25 9.875 C 25 9.382812 24.617188 9 24.125 9 L 23.875 9 C 23.382812 9 23 9.382812 23 9.875 L 23 13 L 21 13 L 21 9.875 C 21 9.382812 20.617188 9 20.125 9 M 18.53125 15 L 29.46875 15 C 31.429688 15 33 16.570312 33 18.53125 L 33 29.46875 C 33 31.429688 31.429688 33 29.46875 33 L 18.53125 33 C 16.570312 33 15.03125 31.429688 15.03125 29.46875 L 15.03125 18.53125 C 15.03125 16.570312 16.570312 15 18.53125 15 M 18.53125 15 "/>
<path style=" stroke:none;fill-rule:nonzero;fill:rgb(94.901961%,94.901961%,94.901961%);fill-opacity:1;" d="M 19.761719 17 C 18.234375 17 17.015625 18.21875 17.015625 19.746094 L 17.015625 28.246094 C 17.015625 29.773438 18.234375 30.992188 19.761719 30.992188 L 28.261719 30.992188 C 29.789062 30.992188 31.007812 29.773438 31.007812 28.246094 L 31.007812 19.746094 C 31.007812 18.21875 29.789062 17 28.261719 17 M 19.761719 17 "/>
</g>
</svg>
