<!-- color: #7b8c99 -->
<svg xmlns="http://www.w3.org/2000/svg" xmlns:xlink="http://www.w3.org/1999/xlink" width="48px" height="48px" viewBox="0 0 48 48" version="1.1">
<g id="surface1">
<path style=" stroke:none;fill-rule:nonzero;fill:rgb(97.647059%,97.647059%,97.647059%);fill-opacity:0.941176;" d="M 13.804688 29.140625 C 13.804688 29.140625 11.410156 23.066406 13.371094 18.519531 C 15.328125 13.976562 18.421875 13.582031 20.625 14.613281 C 22.820312 15.644531 22.976562 20.15625 21.726562 24.421875 C 20.472656 28.691406 19.957031 30.183594 19.957031 30.183594 M 13.804688 29.140625 "/>
<path style=" stroke:none;fill-rule:nonzero;fill:rgb(97.647059%,97.647059%,97.647059%);fill-opacity:0.941176;" d="M 13.75 30.25 L 19.640625 31.25 C 19.640625 31.25 20.144531 34.5 18.785156 35.519531 C 17.425781 36.539062 14.105469 35.910156 13.460938 33.890625 C 12.8125 31.871094 13.746094 30.25 13.746094 30.25 M 13.75 30.25 "/>
<path style=" stroke:none;fill-rule:nonzero;fill:rgb(97.647059%,97.647059%,97.647059%);fill-opacity:1;" d="M 31.476562 27.992188 C 31.476562 27.992188 35.746094 23.046875 35.398438 18.113281 C 35.050781 13.175781 32.257812 11.78125 29.84375 12.027344 C 27.425781 12.277344 25.789062 16.480469 25.5625 20.921875 C 25.335938 25.367188 25.328125 26.941406 25.328125 26.941406 M 31.476562 27.992188 "/>
<path style=" stroke:none;fill-rule:nonzero;fill:rgb(97.647059%,97.647059%,97.647059%);fill-opacity:1;" d="M 31.171875 29.058594 L 25.273438 28.058594 C 25.273438 28.058594 23.726562 30.960938 24.671875 32.371094 C 25.613281 33.785156 28.960938 34.289062 30.234375 32.601562 C 31.511719 30.90625 31.171875 29.070312 31.171875 29.070312 M 31.171875 29.066406 "/>
</g>
</svg>
