<!-- color: #2c66b7 -->
<svg xmlns="http://www.w3.org/2000/svg" xmlns:xlink="http://www.w3.org/1999/xlink" width="48px" height="48px" viewBox="0 0 48 48" version="1.1">
<g id="surface1">
<path style=" stroke:none;fill-rule:nonzero;fill:rgb(97.647059%,97.647059%,97.647059%);fill-opacity:1;" d="M 23.835938 11 C 20.859375 15.0625 10.746094 26.523438 15.050781 33.140625 C 18.386719 38.265625 29.71875 38.292969 33.011719 33.140625 C 37.300781 26.441406 26.371094 15.058594 23.835938 11 M 23.835938 11 "/>
<path style=" stroke:none;fill-rule:nonzero;fill:rgb(80%,80%,80%);fill-opacity:1;" d="M 22.820312 19.40625 C 21.691406 19.46875 20.464844 19.847656 19.351562 20.375 C 16.707031 24.464844 14.929688 28.597656 17.222656 32.125 C 19.691406 35.917969 26.8125 36.703125 31.222656 34.496094 C 30.449219 33.671875 29.375 32.828125 27.972656 32.46875 C 24.824219 31.65625 20.113281 26.78125 22.476562 23.53125 C 24.839844 20.28125 28.757812 23.53125 28.757812 23.53125 C 28.757812 23.53125 27.972656 20.28125 24.039062 19.46875 C 23.792969 19.417969 23.511719 19.414062 23.257812 19.402344 C 23.097656 19.394531 22.980469 19.394531 22.824219 19.402344 M 22.820312 19.40625 "/>
</g>
</svg>
