<!-- color: #1756b6 -->
<svg xmlns="http://www.w3.org/2000/svg" xmlns:xlink="http://www.w3.org/1999/xlink" width="48px" height="48px" viewBox="0 0 48 48" version="1.1">
<g id="surface1">
<path style=" stroke:none;fill-rule:evenodd;fill:rgb(97.647059%,97.647059%,97.647059%);fill-opacity:1;" d="M 25.078125 12 C 22.300781 12.085938 32.511719 25.609375 24.640625 24.742188 C 31.195312 26.484375 32.703125 18.363281 31.359375 14.390625 C 30.03125 10.453125 29.339844 12.910156 25.390625 12.035156 C 25.273438 12.011719 25.171875 11.996094 25.078125 12 M 17.269531 13.886719 C 12.960938 13.878906 15.183594 15.269531 13.09375 18.609375 C 11.097656 21.796875 28.839844 16.085938 25.449219 23.21875 C 29.199219 17.773438 21.617188 13.894531 17.265625 13.886719 M 20.304688 19.988281 C 16.855469 19.980469 13.386719 23.738281 12.414062 26.59375 C 11.078125 30.527344 13.140625 28.925781 15.804688 31.863281 C 18.34375 34.671875 18.167969 16.703125 24.191406 22.007812 C 23 20.570312 21.652344 19.988281 20.304688 19.988281 M 35.238281 20.625 C 33.097656 20.464844 24.328125 31.328125 22.882812 24.476562 C 23.179688 31 31.691406 29.863281 35.214844 27.410156 C 38.703125 24.984375 36.054688 25.113281 35.703125 21.234375 C 35.667969 20.839844 35.503906 20.644531 35.238281 20.632812 M 22.597656 22.785156 C 16.226562 25.074219 19.988281 32.496094 23.503906 34.953125 C 26.984375 37.394531 26.039062 35.019531 29.769531 33.492188 C 33.347656 32.039062 15.492188 26.644531 22.59375 22.789062 M 22.597656 22.785156 "/>
</g>
</svg>
