<!-- color: #a8a2f5 -->
<svg xmlns="http://www.w3.org/2000/svg" xmlns:xlink="http://www.w3.org/1999/xlink" width="48px" height="48px" viewBox="0 0 48 48" version="1.1">
<g id="surface1">
<path style=" stroke:none;fill-rule:evenodd;fill:rgb(100%,100%,100%);fill-opacity:1;" d="M 21.511719 12.011719 C 16.339844 12.257812 12.289062 16.929688 12.492188 19.472656 C 12.695312 21.945312 18.984375 24.117188 18.914062 24.191406 C 17.628906 25.273438 16.777344 26.003906 15.703125 26.984375 C 13.121094 29.335938 11.335938 31.078125 12.238281 33.527344 C 13.285156 36.351562 15.566406 36.234375 18.246094 35.710938 C 25.175781 34.347656 36.5625 25.628906 35.972656 22.414062 C 35.496094 19.8125 29.136719 14.667969 25.367188 12.824219 C 24.191406 12.25 22.855469 11.949219 21.492188 12.011719 M 22.578125 16.476562 C 23.226562 16.410156 23.976562 16.578125 24.820312 16.984375 C 26.65625 17.867188 28.558594 20.214844 24.820312 21.550781 C 23.804688 21.90625 20.550781 20.675781 20.644531 18.964844 C 20.730469 17.378906 21.5 16.570312 22.578125 16.476562 M 22.578125 16.476562 "/>
</g>
</svg>
