<!-- color: #f5cb47 -->
<svg xmlns="http://www.w3.org/2000/svg" xmlns:xlink="http://www.w3.org/1999/xlink" width="48px" height="48px" viewBox="0 0 48 48" version="1.1">
<g id="surface1">
<path style=" stroke:none;fill-rule:nonzero;fill:rgb(97.647059%,97.647059%,97.647059%);fill-opacity:1;" d="M 34.25 15.984375 L 32.015625 13.75 C 29.691406 11.425781 25.921875 11.425781 23.597656 13.75 L 13.75 23.597656 C 11.425781 25.921875 11.425781 29.691406 13.75 32.015625 L 15.988281 34.25 C 18.3125 36.574219 22.082031 36.574219 24.40625 34.25 L 34.25 24.40625 C 36.578125 22.078125 36.578125 18.308594 34.25 15.984375 M 34.25 15.984375 "/>
<path style=" stroke:none;fill-rule:nonzero;fill:rgb(95.294118%,34.901961%,23.921569%);fill-opacity:0.941176;" d="M 34.25 15.984375 C 36.582031 18.316406 36.582031 22.070312 34.25 24.402344 L 33.894531 24.761719 L 23.238281 14.105469 L 23.597656 13.75 C 25.929688 11.417969 29.683594 11.417969 32.015625 13.75 M 34.25 15.984375 "/>
<path style=" stroke:none;fill-rule:nonzero;fill:rgb(97.647059%,97.647059%,97.647059%);fill-opacity:1;" d="M 30.289062 16.292969 C 29.898438 16.683594 29.898438 17.316406 30.289062 17.707031 C 30.679688 18.097656 31.3125 18.097656 31.703125 17.707031 C 32.09375 17.316406 32.09375 16.683594 31.703125 16.292969 C 31.3125 15.902344 30.679688 15.902344 30.289062 16.292969 M 30.289062 16.292969 "/>
<path style="fill:none;stroke-width:0.282;stroke-linecap:butt;stroke-linejoin:round;stroke:rgb(52.54902%,52.54902%,52.54902%);stroke-opacity:1;stroke-miterlimit:4;" d="M 8.809523 4.797778 C 9.756511 5.074488 9.110486 6.333464 9.756511 7.292578 C 9.813837 9.971485 5.894696 11.069505 9.282466 8.124913 C 10.620816 6.515365 9.360738 5.291667 8.809523 4.797778 M 8.809523 4.797778 " transform="matrix(3.543307,0,0,3.543307,0,0)"/>
</g>
</svg>
