<!-- color: #7f7bc5 -->
<svg xmlns="http://www.w3.org/2000/svg" xmlns:xlink="http://www.w3.org/1999/xlink" width="48px" height="48px" viewBox="0 0 48 48" version="1.1">
<g id="surface1">
<path style=" stroke:none;fill-rule:evenodd;fill:rgb(97.647059%,97.647059%,97.647059%);fill-opacity:1;" d="M 16.070312 35.832031 C 16.070312 35.832031 17.628906 36.285156 19.699219 36.542969 C 20.539062 36.644531 23.738281 37.011719 26.183594 37 C 26.183594 37 29.167969 37.003906 30.8125 36.769531 C 32.535156 36.523438 33.511719 36.214844 34.054688 35.59375 C 34.070312 35.445312 34.316406 34.960938 33.648438 34.496094 C 31.933594 33.3125 29.722656 32.984375 25.421875 31.96875 C 20.667969 30.777344 19.246094 29.640625 18.539062 28.8125 C 17.863281 27.988281 18.664062 26.273438 22.496094 25.429688 C 24.433594 24.960938 31.660156 24.875 31.660156 24.875 C 29.585938 23.238281 25.695312 20.304688 24.902344 19.683594 C 24.203125 19.136719 23.082031 18.296875 22.960938 17.546875 C 22.796875 16.816406 23.953125 16.464844 24.5625 16.421875 C 26.53125 16.289062 29.222656 16.519531 31.613281 16.988281 C 32.816406 17.226562 33.027344 17.191406 33.027344 17.191406 C 34.738281 17.273438 36.070312 16.378906 36 14.503906 C 35.984375 12.597656 34.074219 11.070312 31.953125 11.003906 C 29.957031 10.9375 25.039062 11.285156 25.039062 11.285156 C 30.773438 12.460938 31.710938 12.761719 32.007812 13.445312 C 32.183594 13.851562 31.710938 14.253906 30.132812 14.175781 C 28.414062 14.089844 24.886719 13.675781 24.886719 13.675781 C 21.53125 13.15625 19.199219 12.679688 18.175781 14.003906 C 17.511719 14.859375 18.273438 15.921875 18.570312 16.535156 C 19.902344 18.851562 22.203125 20.433594 23.664062 21.558594 C 24.210938 21.980469 25.890625 22.90625 25.890625 22.90625 C 20.675781 21.488281 16.519531 22.289062 13.882812 23.664062 C 10.851562 25.453125 11.363281 28.460938 16.179688 31.277344 C 19.015625 32.9375 20.429688 33.738281 25.074219 34.304688 C 27.796875 34.738281 28.199219 34.914062 28.179688 35.140625 C 28.152344 35.457031 24.964844 35.574219 24.085938 35.636719 C 21.855469 35.789062 16.097656 35.828125 16.0625 35.828125 M 16.066406 35.832031 "/>
</g>
</svg>
