<!-- color: #6cce3d -->
<svg xmlns="http://www.w3.org/2000/svg" xmlns:xlink="http://www.w3.org/1999/xlink" width="48px" height="48px" viewBox="0 0 48 48" version="1.1">
<g id="surface1">
<path style=" stroke:none;fill-rule:nonzero;fill:rgb(17.647059%,17.647059%,17.647059%);fill-opacity:1;" d="M 15.199219 16.039062 L 17.667969 16.039062 C 17.808594 16.039062 17.921875 15.925781 17.921875 15.785156 C 17.921875 15.785156 17.890625 13.695312 17.890625 13.113281 L 17.890625 13.105469 C 17.890625 12.628906 17.992188 12.210938 18.171875 11.863281 L 18.253906 11.707031 C 18.246094 11.707031 18.234375 11.710938 18.226562 11.722656 L 13.429688 16.421875 C 13.421875 16.429688 13.417969 16.441406 13.414062 16.453125 C 13.511719 16.402344 13.648438 16.335938 13.667969 16.328125 C 14.085938 16.140625 14.589844 16.039062 15.199219 16.039062 M 34.398438 15.527344 C 34.203125 14.488281 33.582031 13.980469 33.015625 13.777344 C 32.40625 13.558594 31.171875 13.335938 29.625 13.15625 C 28.375 13.007812 26.910156 13.019531 26.023438 13.046875 C 25.917969 12.328125 25.40625 11.671875 24.835938 11.441406 C 23.3125 10.839844 20.960938 10.984375 20.355469 11.152344 C 19.878906 11.28125 19.34375 11.554688 19.050781 11.972656 C 18.851562 12.253906 18.722656 12.613281 18.722656 13.113281 C 18.722656 13.394531 18.730469 14.0625 18.738281 14.65625 C 18.746094 15.257812 18.753906 15.785156 18.753906 15.785156 C 18.753906 16.316406 18.320312 16.746094 17.78125 16.757812 L 15.3125 16.757812 C 14.785156 16.757812 14.382812 16.84375 14.078125 16.980469 C 13.769531 17.121094 13.550781 17.304688 13.386719 17.527344 C 13.054688 17.964844 13 18.503906 13 19.054688 C 13 19.054688 13.003906 19.496094 13.113281 20.371094 C 13.207031 21.050781 13.945312 25.761719 14.648438 27.1875 C 14.921875 27.746094 15.101562 27.976562 15.636719 28.222656 C 16.828125 28.726562 19.554688 29.289062 20.828125 29.449219 C 22.105469 29.609375 22.902344 29.949219 23.378906 28.96875 C 23.382812 28.96875 23.476562 28.722656 23.605469 28.363281 C 24.019531 27.125 24.074219 26.023438 24.074219 25.226562 C 24.074219 25.148438 24.195312 25.144531 24.195312 25.226562 C 24.195312 25.789062 24.085938 27.777344 25.605469 28.3125 C 26.207031 28.523438 27.449219 28.710938 28.714844 28.855469 C 29.859375 28.984375 30.6875 29.429688 30.6875 32.332031 C 30.6875 34.097656 30.3125 34.332031 28.355469 34.332031 C 26.765625 34.332031 26.160156 34.375 26.160156 33.125 C 26.160156 32.113281 27.171875 32.226562 27.917969 32.226562 C 28.25 32.226562 28.007812 31.980469 28.007812 31.359375 C 28.007812 30.742188 28.398438 30.382812 28.027344 30.375 C 25.445312 30.304688 23.921875 30.371094 23.921875 33.566406 C 23.921875 36.46875 25.046875 37.007812 28.714844 37.007812 C 31.589844 37.007812 32.605469 36.910156 33.792969 33.269531 C 34.027344 32.550781 34.597656 30.355469 34.941406 26.667969 C 35.15625 24.339844 34.734375 17.308594 34.398438 15.527344 M 29.390625 23.300781 C 29.035156 23.285156 28.691406 23.3125 28.367188 23.363281 C 28.464844 22.644531 28.761719 21.765625 29.8125 21.804688 C 30.988281 21.84375 31.152344 22.941406 31.15625 23.683594 C 30.660156 23.464844 30.054688 23.324219 29.386719 23.300781 M 29.386719 23.300781 "/>
</g>
</svg>
