<!-- color: #edc53a -->
<svg xmlns="http://www.w3.org/2000/svg" xmlns:xlink="http://www.w3.org/1999/xlink" width="48px" height="48px" viewBox="0 0 48 48" version="1.1">
<g id="surface1">
<path style=" stroke:none;fill-rule:evenodd;fill:rgb(27.058824%,27.058824%,27.058824%);fill-opacity:1;" d="M 27 13 C 20.929688 13 16 17.929688 16 24 C 16 30.070312 20.929688 34.996094 27 34.996094 C 33.070312 34.996094 38 30.070312 38 24 C 38 17.929688 33.070312 13 27 13 M 27 20.625 C 28.859375 20.625 30.375 22.136719 30.375 24 C 30.375 25.859375 28.859375 27.371094 27 27.371094 C 25.140625 27.371094 23.625 25.859375 23.625 24 C 23.625 22.136719 25.140625 20.625 27 20.625 M 27 20.625 "/>
<path style=" stroke:none;fill-rule:evenodd;fill:rgb(27.058824%,27.058824%,27.058824%);fill-opacity:1;" d="M 29 24 C 29 25.105469 28.101562 25.996094 27 25.996094 C 25.894531 25.996094 25 25.101562 25 24 C 25 22.894531 25.898438 22 27 22 C 28.105469 22 29 22.898438 29 24 M 29 24 "/>
<path style=" stroke:none;fill-rule:evenodd;fill:rgb(12.156863%,61.176471%,80.784314%);fill-opacity:1;" d="M 22 28.800781 C 15.398438 28.800781 16.601562 25.800781 13.804688 22.332031 C 13.40625 22.628906 12.933594 22.800781 12.402344 22.800781 C 11.078125 22.800781 10.003906 21.726562 10.003906 20.402344 C 10.003906 19.078125 11.078125 18.003906 12.402344 18.003906 C 12.617188 18.003906 12.824219 18.046875 13.019531 18.097656 L 13 18.003906 L 13.167969 18.132812 C 13.695312 18.316406 14.128906 18.679688 14.429688 19.148438 M 13.597656 20.398438 C 13.597656 19.738281 13.0625 19.199219 12.398438 19.199219 C 11.738281 19.199219 11.195312 19.734375 11.195312 20.398438 C 11.195312 21.058594 11.734375 21.601562 12.398438 21.601562 C 13.058594 21.601562 13.597656 21.0625 13.597656 20.398438 M 13.597656 20.398438 "/>
<path style=" stroke:none;fill-rule:evenodd;fill:rgb(12.156863%,61.176471%,80.784314%);fill-opacity:1;" d="M 22 19.199219 C 15.398438 19.199219 16.601562 22.199219 13.804688 25.664062 C 13.40625 25.371094 12.933594 25.195312 12.402344 25.195312 C 11.078125 25.195312 10.003906 26.269531 10.003906 27.59375 C 10.003906 28.921875 11.078125 29.992188 12.402344 29.992188 C 12.617188 29.992188 12.824219 29.933594 13.019531 29.898438 L 13 29.992188 L 13.167969 29.863281 C 13.695312 29.683594 14.128906 29.316406 14.429688 28.847656 M 13.597656 27.597656 C 13.597656 28.257812 13.0625 28.800781 12.398438 28.800781 C 11.738281 28.800781 11.195312 28.261719 11.195312 27.597656 C 11.195312 26.9375 11.734375 26.398438 12.398438 26.398438 C 13.058594 26.398438 13.597656 26.9375 13.597656 27.597656 M 13.597656 27.597656 "/>
</g>
</svg>
