<!-- color: #eeeeee -->
<svg xmlns="http://www.w3.org/2000/svg" xmlns:xlink="http://www.w3.org/1999/xlink" width="48px" height="48px" viewBox="0 0 48 48" version="1.1">
<g id="surface1">
<path style=" stroke:none;fill-rule:nonzero;fill:rgb(35.686275%,35.686275%,35.686275%);fill-opacity:1;" d="M 30.480469 35.589844 L 29.804688 32.289062 L 29.640625 32.289062 C 28.523438 33.742188 27.402344 34.726562 26.28125 35.253906 C 25.179688 35.757812 23.789062 36.015625 22.125 36.015625 C 19.898438 36.015625 18.152344 35.421875 16.882812 34.234375 C 15.625 33.050781 15 31.363281 15 29.175781 C 15 24.492188 18.625 22.035156 25.871094 21.808594 L 29.679688 21.683594 L 29.679688 20.242188 C 29.679688 18.421875 29.300781 17.082031 28.535156 16.222656 C 27.78125 15.347656 26.574219 14.910156 24.910156 14.910156 C 23.039062 14.910156 20.921875 15.503906 18.5625 16.6875 L 17.515625 14 C 18.621094 13.378906 19.828125 12.890625 21.140625 12.539062 C 22.464844 12.183594 23.789062 12.007812 25.113281 12.007812 C 27.789062 12.007812 29.769531 12.621094 31.050781 13.847656 C 32.351562 15.078125 32.996094 17.042969 32.996094 19.753906 L 32.996094 35.582031 L 30.480469 35.582031 M 22.800781 33.105469 C 24.917969 33.105469 26.574219 32.503906 27.777344 31.304688 C 28.992188 30.105469 29.597656 28.429688 29.597656 26.261719 L 29.597656 24.167969 L 26.203125 24.316406 C 23.5 24.414062 21.546875 24.851562 20.34375 25.628906 C 19.15625 26.390625 18.566406 27.582031 18.566406 29.203125 C 18.566406 30.472656 18.933594 31.441406 19.667969 32.101562 C 20.421875 32.765625 21.464844 33.09375 22.804688 33.09375 "/>
</g>
</svg>
