<!-- color: #8345a5 -->
<svg xmlns="http://www.w3.org/2000/svg" xmlns:xlink="http://www.w3.org/1999/xlink" width="48px" height="48px" viewBox="0 0 48 48" version="1.1">
<g id="surface1">
<path style=" stroke:none;fill-rule:nonzero;fill:rgb(97.647059%,97.647059%,97.647059%);fill-opacity:1;" d="M 18 33 C 18 34.65625 16.65625 36 15 36 C 13.34375 36 12 34.65625 12 33 C 12 31.34375 13.34375 30 15 30 C 16.65625 30 18 31.34375 18 33 M 18 33 "/>
<path style=" stroke:none;fill-rule:nonzero;fill:rgb(97.647059%,97.647059%,97.647059%);fill-opacity:1;" d="M 24 33 C 24 34.65625 22.65625 36 21 36 C 19.34375 36 18 34.65625 18 33 C 18 31.34375 19.34375 30 21 30 C 22.65625 30 24 31.34375 24 33 M 24 33 "/>
<path style=" stroke:none;fill-rule:nonzero;fill:rgb(97.647059%,97.647059%,97.647059%);fill-opacity:1;" d="M 30 33 C 30 34.65625 28.65625 36 27 36 C 25.34375 36 24 34.65625 24 33 C 24 31.34375 25.34375 30 27 30 C 28.65625 30 30 31.34375 30 33 M 30 33 "/>
<path style=" stroke:none;fill-rule:nonzero;fill:rgb(97.647059%,97.647059%,97.647059%);fill-opacity:1;" d="M 36 33 C 36 34.65625 34.65625 36 33 36 C 31.34375 36 30 34.65625 30 33 C 30 31.34375 31.34375 30 33 30 C 34.65625 30 36 31.34375 36 33 M 36 33 "/>
<path style=" stroke:none;fill-rule:nonzero;fill:rgb(52.156863%,60%,0%);fill-opacity:1;" d="M 18 27 C 18 28.65625 16.65625 30 15 30 C 13.34375 30 12 28.65625 12 27 C 12 25.34375 13.34375 24 15 24 C 16.65625 24 18 25.34375 18 27 M 18 27 "/>
<path style=" stroke:none;fill-rule:nonzero;fill:rgb(97.647059%,97.647059%,97.647059%);fill-opacity:1;" d="M 24 27 C 24 28.65625 22.65625 30 21 30 C 19.34375 30 18 28.65625 18 27 C 18 25.34375 19.34375 24 21 24 C 22.65625 24 24 25.34375 24 27 M 24 27 "/>
<path style=" stroke:none;fill-rule:nonzero;fill:rgb(52.156863%,60%,0%);fill-opacity:1;" d="M 30 27 C 30 28.65625 28.65625 30 27 30 C 25.34375 30 24 28.65625 24 27 C 24 25.34375 25.34375 24 27 24 C 28.65625 24 30 25.34375 30 27 M 30 27 "/>
<path style=" stroke:none;fill-rule:nonzero;fill:rgb(52.156863%,60%,0%);fill-opacity:1;" d="M 36 27 C 36 28.65625 34.65625 30 33 30 C 31.34375 30 30 28.65625 30 27 C 30 25.34375 31.34375 24 33 24 C 34.65625 24 36 25.34375 36 27 M 36 27 "/>
<path style=" stroke:none;fill-rule:nonzero;fill:rgb(97.647059%,97.647059%,97.647059%);fill-opacity:1;" d="M 30 21 C 30 22.65625 28.65625 24 27 24 C 25.34375 24 24 22.65625 24 21 C 24 19.34375 25.34375 18 27 18 C 28.65625 18 30 19.34375 30 21 M 30 21 "/>
<path style=" stroke:none;fill-rule:nonzero;fill:rgb(52.156863%,60%,0%);fill-opacity:1;" d="M 36 21 C 36 22.65625 34.65625 24 33 24 C 31.34375 24 30 22.65625 30 21 C 30 19.34375 31.34375 18 33 18 C 34.65625 18 36 19.34375 36 21 M 36 21 "/>
<path style=" stroke:none;fill-rule:nonzero;fill:rgb(97.647059%,97.647059%,97.647059%);fill-opacity:1;" d="M 36 15 C 36 16.65625 34.65625 18 33 18 C 31.34375 18 30 16.65625 30 15 C 30 13.34375 31.34375 12 33 12 C 34.65625 12 36 13.34375 36 15 M 36 15 "/>
</g>
</svg>
