<!-- color: #eeeeee -->
<svg xmlns="http://www.w3.org/2000/svg" xmlns:xlink="http://www.w3.org/1999/xlink" width="48px" height="48px" viewBox="0 0 48 48" version="1.1">
<g id="surface1">
<path style="fill:none;stroke-width:0.273;stroke-linecap:round;stroke-linejoin:round;stroke:rgb(32.54902%,33.333333%,32.54902%);stroke-opacity:1;stroke-miterlimit:4;" d="M 3.29737 6.727031 C 3.26099 6.774436 3.246658 6.833967 3.241146 6.91224 L 3.309497 8.231849 C 3.326033 8.537222 3.438481 8.701485 3.61046 8.810625 C 3.783542 8.921971 4.00954 8.987014 4.268611 9.123716 C 4.817622 9.41145 5.666493 9.455547 5.666493 9.455547 L 7.212101 9.458854 C 7.377465 9.434601 7.541728 9.306719 7.680634 9.218525 C 7.809618 9.13033 7.907735 9.005755 7.925373 8.860235 L 7.938603 7.9375 C 7.9375 7.887891 7.920964 7.845998 7.893403 7.81954 C 7.862535 7.788672 7.82395 7.776545 7.784262 7.766623 C 7.644254 7.765521 7.504245 7.756702 7.364236 7.754497 C 7.198872 7.754497 7.087526 7.851511 6.979488 7.959549 C 6.876962 8.058768 6.757899 8.172318 6.498828 8.226337 C 6.295981 8.228542 6.155972 8.152474 6.012656 8.056563 C 5.871545 7.961754 5.720512 7.825052 5.518767 7.78757 C 5.190243 7.780955 4.626901 7.756702 4.299479 7.755599 L 3.951111 6.839479 C 3.791259 6.783255 3.631406 6.721519 3.470451 6.6675 C 3.395486 6.648759 3.335955 6.686241 3.29737 6.731441 M 3.298472 6.729236 " transform="matrix(3.543307,0,0,3.543307,0,0)"/>
<path style="fill:none;stroke-width:0.273;stroke-linecap:round;stroke-linejoin:round;stroke:rgb(32.54902%,33.333333%,32.54902%);stroke-opacity:1;stroke-miterlimit:4;" d="M 3.815512 4.80329 C 3.656762 4.977474 3.535495 5.160478 3.471554 5.318125 C 3.439583 5.3975 3.423047 5.470261 3.426354 5.537509 C 3.427457 5.603655 3.449505 5.676415 3.511241 5.717205 L 4.542014 6.111875 L 4.796675 6.98059 C 4.806597 7.011459 4.837465 7.033507 4.870538 7.03461 C 4.870538 7.03461 5.508846 7.065478 5.508846 7.065478 C 5.530894 7.06658 5.55184 7.057761 5.567274 7.044531 C 5.567274 7.044531 5.680825 6.934288 5.806502 6.818533 C 5.871545 6.761207 5.935486 6.699471 5.992813 6.656476 C 6.081007 6.579306 6.153768 6.591432 6.258498 6.63553 C 6.323542 6.670807 6.398507 6.723724 6.503238 6.721519 C 6.601354 6.718212 6.6675 6.658681 6.704983 6.622301 C 6.765616 6.546233 6.808611 6.570486 6.887986 6.612379 C 6.943108 6.645452 7.002639 6.690651 7.057761 6.742465 C 7.170209 6.839479 7.262813 6.946415 7.262813 6.946415 C 7.276042 6.958542 7.293681 6.968464 7.314627 6.969566 L 7.808516 7.011459 C 7.958446 7.011459 8.000339 6.977283 8.026797 6.87145 C 8.05987 6.796485 8.06428 6.710495 8.071997 6.602457 L 8.130426 5.572787 C 8.140347 5.061259 7.931988 4.709583 7.691658 4.506736 C 7.413846 4.269714 7.076502 4.105451 6.778846 4.09553 C 6.226528 4.094427 5.672005 4.093325 5.118585 4.088915 C 4.579497 4.138524 4.191441 4.452717 3.815512 4.804392 M 3.815512 4.80329 " transform="matrix(3.543307,0,0,3.543307,0,0)"/>
<path style="fill:none;stroke-width:0.41;stroke-linecap:round;stroke-linejoin:round;stroke:rgb(43.921569%,61.568627%,81.176471%);stroke-opacity:1;stroke-miterlimit:4;" d="M 9.229549 5.485695 C 10.550261 6.047934 10.597665 8.368551 9.229549 9.185452 " transform="matrix(3.543307,0,0,3.543307,0,0)"/>
<path style="fill:none;stroke-width:0.41;stroke-linecap:round;stroke-linejoin:round;stroke:rgb(43.921569%,61.568627%,81.176471%);stroke-opacity:1;stroke-miterlimit:4;" d="M 8.700382 6.474575 C 9.401528 6.755695 9.324358 7.90553 8.700382 8.194367 " transform="matrix(3.543307,0,0,3.543307,0,0)"/>
<path style=" stroke:none;fill-rule:nonzero;fill:rgb(32.54902%,33.333333%,32.54902%);fill-opacity:1;" d="M 24 18.917969 C 24.007812 19.367188 24.265625 19.773438 24.671875 19.980469 C 25.082031 20.191406 25.574219 20.171875 25.964844 19.929688 C 26.351562 19.6875 26.574219 19.261719 26.542969 18.816406 C 26.535156 18.371094 26.277344 17.964844 25.871094 17.753906 C 25.460938 17.542969 24.96875 17.5625 24.578125 17.804688 C 24.191406 18.046875 23.96875 18.472656 24 18.917969 M 24 18.917969 "/>
<path style=" stroke:none;fill-rule:nonzero;fill:rgb(32.54902%,33.333333%,32.54902%);fill-opacity:1;" d="M 17.949219 19.019531 C 17.957031 19.464844 18.21875 19.871094 18.625 20.082031 C 19.03125 20.292969 19.527344 20.269531 19.914062 20.03125 C 20.304688 19.789062 20.527344 19.363281 20.496094 18.917969 C 20.488281 18.46875 20.230469 18.0625 19.820312 17.851562 C 19.414062 17.644531 18.917969 17.664062 18.53125 17.90625 C 18.144531 18.148438 17.921875 18.574219 17.949219 19.019531 M 17.949219 19.019531 "/>
</g>
</svg>
