<!-- color: #415f82 -->
<svg xmlns="http://www.w3.org/2000/svg" xmlns:xlink="http://www.w3.org/1999/xlink" width="48px" height="48px" viewBox="0 0 48 48" version="1.1">
<g id="surface1">
<path style="fill-rule:nonzero;fill:rgb(14.901961%,58.431373%,25.882353%);fill-opacity:1;stroke-width:0.282;stroke-linecap:butt;stroke-linejoin:miter;stroke:rgb(14.901961%,58.431373%,25.882353%);stroke-opacity:1;stroke-miterlimit:4;" d="M 4.639816 2.806208 L 10.211501 2.805847 C 10.466548 2.807563 10.67093 3.051582 10.67073 3.354124 L 10.670758 8.748541 C 10.67067 9.05218 10.464896 9.294775 10.21249 9.297223 L 4.640582 9.29539 C 4.385647 9.294772 4.182249 9.049543 4.181576 8.749306 L 4.182309 3.351488 C 4.18251 3.048946 4.388171 2.805254 4.639593 2.804014 M 4.639593 2.804014 " transform="matrix(3.525055,0.359186,-0.359186,3.525055,0,0)"/>
<path style="fill-rule:nonzero;fill:rgb(81.568627%,78.431373%,21.568627%);fill-opacity:1;stroke-width:0.282;stroke-linecap:butt;stroke-linejoin:miter;stroke:rgb(81.568627%,78.431373%,21.568627%);stroke-opacity:1;stroke-miterlimit:4;" d="M -8.769088 -10.725401 L -3.197515 -10.725307 C -2.943559 -10.724822 -2.73562 -10.479876 -2.738175 -10.177344 L -2.737539 -4.782055 C -2.735712 -4.479036 -2.941578 -4.23348 -3.195534 -4.233965 L -8.769298 -4.234302 C -9.022402 -4.232475 -9.229002 -4.479491 -9.226447 -4.782022 L -9.229274 -10.177555 C -9.229032 -10.479234 -9.023409 -10.722599 -8.769088 -10.725401 M -8.769088 -10.725401 " transform="matrix(-3.521637,0.391275,-0.391275,-3.521637,0,0)"/>
<path style=" stroke:none;fill-rule:nonzero;fill:rgb(23.921569%,80.392157%,95.686275%);fill-opacity:1;" d="M 13 13 L 35 13 L 35 35 L 13 35 M 13 13 "/>
<path style=" stroke:none;fill-rule:nonzero;fill:rgb(9.803922%,21.176471%,38.823529%);fill-opacity:1;" d="M 27 18 L 22 28 L 17 23 L 13 29 L 12.5 30 L 12.5 33.5625 C 12.5 34.636719 13.222656 35.5 14.125 35.5 L 33.875 35.5 C 34.777344 35.5 35.5 34.636719 35.5 33.5625 L 35.5 23.21875 L 35 22 L 32 25 M 27 18 "/>
<path style="fill:none;stroke-width:0.282;stroke-linecap:butt;stroke-linejoin:miter;stroke:rgb(97.647059%,97.647059%,97.647059%);stroke-opacity:1;stroke-miterlimit:4;" d="M 3.987491 3.527778 L 9.559176 3.527778 C 9.812735 3.527778 10.018889 3.77362 10.018889 4.075686 L 10.018889 9.470981 C 10.018889 9.77415 9.812735 10.018889 9.559176 10.018889 L 3.987491 10.018889 C 3.731728 10.018889 3.525573 9.77415 3.525573 9.470981 L 3.525573 4.075686 C 3.525573 3.77362 3.731728 3.527778 3.987491 3.527778 M 3.987491 3.527778 " transform="matrix(3.543307,0,0,3.543307,0,0)"/>
<path style=" stroke:none;fill-rule:nonzero;fill:rgb(100%,100%,100%);fill-opacity:1;" d="M 17 23 L 20 26 C 19 27 18 28 17 27 C 18.046875 25.777344 18 25 17 23 M 17 23 "/>
<path style=" stroke:none;fill-rule:nonzero;fill:rgb(100%,100%,100%);fill-opacity:1;" d="M 27 18 L 30 22 C 30 23 29 24 28 24 C 27 24 27 23 28 22 C 27.667969 22 27.332031 22 27 22 C 27 21 27.667969 21.332031 28 21 C 27.453125 21 27 20.460938 27 20 M 27 18 "/>
<path style=" stroke:none;fill-rule:nonzero;fill:rgb(100%,100%,100%);fill-opacity:0.45098;" d="M 13 13 L 13 16 C 14.25 16.164062 15 15 15 14 C 16 14 16.484375 14 16.40625 13 M 13 13 "/>
<path style=" stroke:none;fill-rule:nonzero;fill:rgb(100%,100%,100%);fill-opacity:0.45098;" d="M 30 13 C 29 13 29 14 30 14 C 28 15 30 18 32 16 C 33 18 35 17 35 16 L 35 13 M 30 13 "/>
</g>
</svg>
