<!-- color: #474747 -->
<svg xmlns="http://www.w3.org/2000/svg" xmlns:xlink="http://www.w3.org/1999/xlink" width="48px" height="48px" viewBox="0 0 48 48" version="1.1">
<g id="surface1">
<path style=" stroke:none;fill-rule:nonzero;fill:rgb(89.411765%,78.823529%,18.823529%);fill-opacity:1;" d="M 17.019531 32 L 20.976562 32 C 20.988281 32 20.996094 32.003906 20.996094 32.003906 L 20.996094 33.996094 C 20.996094 33.996094 20.988281 34 20.976562 34 L 17.019531 34 C 17.007812 34 16.996094 33.996094 16.996094 33.996094 L 16.996094 32.003906 C 16.996094 32.003906 17.007812 32 17.019531 32 M 17.019531 32 "/>
<path style=" stroke:none;fill-rule:nonzero;fill:rgb(89.411765%,78.823529%,18.823529%);fill-opacity:0.901961;" d="M 17.019531 28.984375 L 20.976562 28.984375 C 20.988281 28.984375 20.996094 28.988281 20.996094 28.988281 L 20.996094 30.980469 C 20.996094 30.980469 20.988281 30.984375 20.976562 30.984375 L 17.019531 30.984375 C 17.007812 30.984375 16.996094 30.980469 16.996094 30.980469 L 16.996094 28.988281 C 16.996094 28.988281 17.007812 28.984375 17.019531 28.984375 M 17.019531 28.984375 "/>
<path style=" stroke:none;fill-rule:nonzero;fill:rgb(89.411765%,78.823529%,18.823529%);fill-opacity:0.8;" d="M 17.019531 26.019531 L 20.976562 26.019531 C 20.988281 26.019531 20.996094 26.019531 20.996094 26.023438 L 20.996094 27.988281 C 20.996094 27.992188 20.988281 27.992188 20.976562 27.992188 L 17.019531 27.992188 C 17.007812 27.992188 16.996094 27.992188 16.996094 27.988281 L 16.996094 26.023438 C 16.996094 26.019531 17.007812 26.019531 17.019531 26.019531 M 17.019531 26.019531 "/>
<path style=" stroke:none;fill-rule:nonzero;fill:rgb(89.411765%,78.823529%,18.823529%);fill-opacity:0.701961;" d="M 17.019531 23 L 20.976562 23 C 20.988281 23 20.996094 23.003906 20.996094 23.003906 L 20.996094 24.957031 C 20.996094 24.957031 20.988281 24.960938 20.976562 24.960938 L 17.019531 24.960938 C 17.007812 24.960938 16.996094 24.957031 16.996094 24.957031 L 16.996094 23.003906 C 16.996094 23.003906 17.007812 23 17.019531 23 M 17.019531 23 "/>
<path style=" stroke:none;fill-rule:nonzero;fill:rgb(89.411765%,78.823529%,18.823529%);fill-opacity:0.6;" d="M 17.019531 20 L 20.976562 20 C 20.988281 20 20.996094 20 20.996094 20.003906 L 20.996094 21.945312 C 20.996094 21.945312 20.988281 21.949219 20.976562 21.949219 L 17.019531 21.949219 C 17.007812 21.949219 16.996094 21.945312 16.996094 21.945312 L 16.996094 20.003906 C 16.996094 20 17.007812 20 17.019531 20 M 17.019531 20 "/>
<path style=" stroke:none;fill-rule:nonzero;fill:rgb(24.705882%,55.294118%,93.333333%);fill-opacity:1;" d="M 27.019531 32.011719 L 30.980469 32.011719 C 30.992188 32.011719 31 32.011719 31 32.015625 L 31 33.992188 C 31 33.992188 30.992188 33.996094 30.980469 33.996094 L 27.019531 33.996094 C 27.007812 33.996094 27 33.992188 27 33.992188 L 27 32.015625 C 27 32.011719 27.007812 32.011719 27.019531 32.011719 M 27.019531 32.011719 "/>
<path style=" stroke:none;fill-rule:nonzero;fill:rgb(24.705882%,55.294118%,93.333333%);fill-opacity:0.901961;" d="M 27.019531 29.019531 L 30.980469 29.019531 C 30.992188 29.019531 31 29.023438 31 29.023438 L 31 30.988281 C 31 30.992188 30.992188 30.992188 30.980469 30.992188 L 27.019531 30.992188 C 27.007812 30.992188 27 30.992188 27 30.988281 L 27 29.023438 C 27 29.023438 27.007812 29.019531 27.019531 29.019531 M 27.019531 29.019531 "/>
<path style=" stroke:none;fill-rule:nonzero;fill:rgb(24.705882%,55.294118%,93.333333%);fill-opacity:0.8;" d="M 27.019531 26.050781 L 30.980469 26.050781 C 30.992188 26.050781 31 26.054688 31 26.054688 L 31 28.011719 C 31 28.011719 30.992188 28.015625 30.980469 28.015625 L 27.019531 28.015625 C 27.007812 28.015625 27 28.011719 27 28.011719 L 27 26.054688 C 27 26.054688 27.007812 26.050781 27.019531 26.050781 M 27.019531 26.050781 "/>
<path style=" stroke:none;fill-rule:nonzero;fill:rgb(24.705882%,55.294118%,93.333333%);fill-opacity:0.701961;" d="M 27.019531 23.050781 L 30.980469 23.050781 C 30.992188 23.050781 31 23.050781 31 23.054688 L 31 24.996094 C 31 24.996094 30.992188 25 30.980469 25 L 27.019531 25 C 27.007812 25 27 24.996094 27 24.996094 L 27 23.054688 C 27 23.050781 27.007812 23.050781 27.019531 23.050781 M 27.019531 23.050781 "/>
<path style=" stroke:none;fill-rule:nonzero;fill:rgb(24.705882%,55.294118%,93.333333%);fill-opacity:0.6;" d="M 27.019531 20.058594 L 30.980469 20.058594 C 30.992188 20.058594 31 20.0625 31 20.0625 L 31 21.988281 C 31 21.992188 30.992188 21.992188 30.980469 21.992188 L 27.019531 21.992188 C 27.007812 21.992188 27 21.992188 27 21.988281 L 27 20.0625 C 27 20.0625 27.007812 20.058594 27.019531 20.058594 M 27.019531 20.058594 "/>
<path style=" stroke:none;fill-rule:nonzero;fill:rgb(24.705882%,55.294118%,93.333333%);fill-opacity:0.501961;" d="M 27.019531 17 L 30.980469 17 C 30.992188 17 31 17.003906 31 17.003906 L 31 18.996094 C 31 19 30.992188 19 30.980469 19 L 27.019531 19 C 27.007812 19 27 19 27 18.996094 L 27 17.003906 C 27 17.003906 27.007812 17 27.019531 17 M 27.019531 17 "/>
<path style=" stroke:none;fill-rule:nonzero;fill:rgb(85.882353%,30.588235%,85.882353%);fill-opacity:1;" d="M 32.019531 32 L 35.980469 32 C 35.992188 32 36 32.003906 36 32.003906 L 36 33.996094 C 36 33.996094 35.992188 34 35.980469 34 L 32.019531 34 C 32.007812 34 32 33.996094 32 33.996094 L 32 32.003906 C 32 32.003906 32.007812 32 32.019531 32 M 32.019531 32 "/>
<path style=" stroke:none;fill-rule:nonzero;fill:rgb(85.882353%,30.588235%,85.882353%);fill-opacity:0.901961;" d="M 32.019531 29 L 35.980469 29 C 35.992188 29 36 29 36 29.003906 L 36 30.984375 C 36 30.984375 35.992188 30.988281 35.980469 30.988281 L 32.019531 30.988281 C 32.007812 30.988281 32 30.984375 32 30.984375 L 32 29.003906 C 32 29 32.007812 29 32.019531 29 M 32.019531 29 "/>
<path style=" stroke:none;fill-rule:nonzero;fill:rgb(85.882353%,30.588235%,85.882353%);fill-opacity:0.8;" d="M 32.019531 26.019531 L 35.980469 26.019531 C 35.992188 26.019531 36 26.019531 36 26.023438 L 36 27.988281 C 36 27.992188 35.992188 27.992188 35.980469 27.992188 L 32.019531 27.992188 C 32.007812 27.992188 32 27.992188 32 27.988281 L 32 26.023438 C 32 26.019531 32.007812 26.019531 32.019531 26.019531 M 32.019531 26.019531 "/>
<path style=" stroke:none;fill-rule:nonzero;fill:rgb(85.882353%,30.588235%,85.882353%);fill-opacity:0.701961;" d="M 32.019531 23 L 35.980469 23 C 35.992188 23 36 23.003906 36 23.003906 L 36 24.957031 C 36 24.957031 35.992188 24.960938 35.980469 24.960938 L 32.019531 24.960938 C 32.007812 24.960938 32 24.957031 32 24.957031 L 32 23.003906 C 32 23.003906 32.007812 23 32.019531 23 M 32.019531 23 "/>
<path style=" stroke:none;fill-rule:nonzero;fill:rgb(85.882353%,30.588235%,85.882353%);fill-opacity:0.6;" d="M 32.019531 20 L 35.980469 20 C 35.992188 20 36 20 36 20.003906 L 36 21.945312 C 36 21.945312 35.992188 21.949219 35.980469 21.949219 L 32.019531 21.949219 C 32.007812 21.949219 32 21.945312 32 21.945312 L 32 20.003906 C 32 20 32.007812 20 32.019531 20 M 32.019531 20 "/>
<path style=" stroke:none;fill-rule:nonzero;fill:rgb(49.803922%,81.176471%,36.078431%);fill-opacity:1;" d="M 22.019531 32 L 25.976562 32 C 25.988281 32 25.996094 32.003906 25.996094 32.003906 L 25.996094 33.996094 C 25.996094 33.996094 25.988281 34 25.976562 34 L 22.019531 34 C 22.007812 34 21.996094 33.996094 21.996094 33.996094 L 21.996094 32.003906 C 21.996094 32.003906 22.007812 32 22.019531 32 M 22.019531 32 "/>
<path style=" stroke:none;fill-rule:nonzero;fill:rgb(49.803922%,81.176471%,36.078431%);fill-opacity:0.901961;" d="M 22.019531 29 L 25.976562 29 C 25.988281 29 25.996094 29 25.996094 29.003906 L 25.996094 30.984375 C 25.996094 30.984375 25.988281 30.988281 25.976562 30.988281 L 22.019531 30.988281 C 22.007812 30.988281 21.996094 30.984375 21.996094 30.984375 L 21.996094 29.003906 C 21.996094 29 22.007812 29 22.019531 29 M 22.019531 29 "/>
<path style=" stroke:none;fill-rule:nonzero;fill:rgb(49.803922%,81.176471%,36.078431%);fill-opacity:0.8;" d="M 22.019531 26.019531 L 25.976562 26.019531 C 25.988281 26.019531 25.996094 26.019531 25.996094 26.023438 L 25.996094 27.988281 C 25.996094 27.992188 25.988281 27.992188 25.976562 27.992188 L 22.019531 27.992188 C 22.007812 27.992188 21.996094 27.992188 21.996094 27.988281 L 21.996094 26.023438 C 21.996094 26.019531 22.007812 26.019531 22.019531 26.019531 M 22.019531 26.019531 "/>
<path style=" stroke:none;fill-rule:nonzero;fill:rgb(77.254902%,18.431373%,18.431373%);fill-opacity:1;" d="M 12.019531 32 L 15.976562 32 C 15.988281 32 15.996094 32.003906 15.996094 32.003906 L 15.996094 33.996094 C 15.996094 33.996094 15.988281 34 15.976562 34 L 12.019531 34 C 12.007812 34 11.996094 33.996094 11.996094 33.996094 L 11.996094 32.003906 C 11.996094 32.003906 12.007812 32 12.019531 32 M 12.019531 32 "/>
<path style=" stroke:none;fill-rule:nonzero;fill:rgb(77.254902%,18.431373%,18.431373%);fill-opacity:0.901961;" d="M 12.019531 29.019531 L 15.976562 29.019531 C 15.988281 29.019531 15.996094 29.023438 15.996094 29.023438 L 15.996094 30.992188 C 15.996094 30.992188 15.988281 30.992188 15.976562 30.992188 L 12.019531 30.992188 C 12.007812 30.992188 11.996094 30.992188 11.996094 30.992188 L 11.996094 29.023438 C 11.996094 29.023438 12.007812 29.019531 12.019531 29.019531 M 12.019531 29.019531 "/>
<path style=" stroke:none;fill-rule:nonzero;fill:rgb(77.254902%,18.431373%,18.431373%);fill-opacity:0.8;" d="M 12.019531 26.039062 L 15.976562 26.039062 C 15.988281 26.039062 15.996094 26.039062 15.996094 26.039062 L 15.996094 27.996094 C 15.996094 28 15.988281 28 15.976562 28 L 12.019531 28 C 12.007812 28 11.996094 28 11.996094 27.996094 L 11.996094 26.039062 C 11.996094 26.039062 12.007812 26.039062 12.019531 26.039062 M 12.019531 26.039062 "/>
<path style=" stroke:none;fill-rule:nonzero;fill:rgb(77.254902%,18.431373%,18.431373%);fill-opacity:0.701961;" d="M 12.019531 23.050781 L 15.976562 23.050781 C 15.988281 23.050781 15.996094 23.050781 15.996094 23.054688 L 15.996094 24.996094 C 15.996094 24.996094 15.988281 25 15.976562 25 L 12.019531 25 C 12.007812 25 11.996094 24.996094 11.996094 24.996094 L 11.996094 23.054688 C 11.996094 23.050781 12.007812 23.050781 12.019531 23.050781 M 12.019531 23.050781 "/>
<path style=" stroke:none;fill-rule:nonzero;fill:rgb(77.254902%,18.431373%,18.431373%);fill-opacity:0.6;" d="M 12.019531 20.058594 L 15.976562 20.058594 C 15.988281 20.058594 15.996094 20.0625 15.996094 20.0625 L 15.996094 21.992188 C 15.996094 21.992188 15.988281 21.992188 15.976562 21.992188 L 12.019531 21.992188 C 12.007812 21.992188 11.996094 21.992188 11.996094 21.992188 L 11.996094 20.0625 C 11.996094 20.0625 12.007812 20.058594 12.019531 20.058594 M 12.019531 20.058594 "/>
<path style=" stroke:none;fill-rule:nonzero;fill:rgb(77.254902%,18.431373%,18.431373%);fill-opacity:0.501961;" d="M 12.019531 17 L 15.976562 17 C 15.988281 17 15.996094 17 15.996094 17.003906 L 15.996094 18.992188 C 15.996094 18.996094 15.988281 18.996094 15.976562 18.996094 L 12.019531 18.996094 C 12.007812 18.996094 11.996094 18.996094 11.996094 18.992188 L 11.996094 17.003906 C 11.996094 17 12.007812 17 12.019531 17 M 12.019531 17 "/>
<path style=" stroke:none;fill-rule:nonzero;fill:rgb(77.254902%,18.431373%,18.431373%);fill-opacity:0.4;" d="M 12.019531 14 L 15.976562 14 C 15.988281 14 15.996094 14.003906 15.996094 14.003906 L 15.996094 15.996094 C 15.996094 15.996094 15.988281 16 15.976562 16 L 12.019531 16 C 12.007812 16 11.996094 15.996094 11.996094 15.996094 L 11.996094 14.003906 C 11.996094 14.003906 12.007812 14 12.019531 14 M 12.019531 14 "/>
<path style=" stroke:none;fill-rule:nonzero;fill:rgb(85.882353%,30.588235%,85.882353%);fill-opacity:1;" d="M 7.019531 32 L 10.976562 32 C 10.988281 32 10.996094 32.003906 10.996094 32.003906 L 10.996094 33.996094 C 10.996094 33.996094 10.988281 34 10.976562 34 L 7.019531 34 C 7.007812 34 6.996094 33.996094 6.996094 33.996094 L 6.996094 32.003906 C 6.996094 32.003906 7.007812 32 7.019531 32 M 7.019531 32 "/>
<path style=" stroke:none;fill-rule:nonzero;fill:rgb(85.882353%,30.588235%,85.882353%);fill-opacity:0.901961;" d="M 7.019531 29 L 10.976562 29 C 10.988281 29 10.996094 29 10.996094 29.003906 L 10.996094 30.984375 C 10.996094 30.984375 10.988281 30.988281 10.976562 30.988281 L 7.019531 30.988281 C 7.007812 30.988281 6.996094 30.984375 6.996094 30.984375 L 6.996094 29.003906 C 6.996094 29 7.007812 29 7.019531 29 M 7.019531 29 "/>
<path style=" stroke:none;fill-rule:nonzero;fill:rgb(85.882353%,30.588235%,85.882353%);fill-opacity:0.8;" d="M 7.019531 26.019531 L 10.976562 26.019531 C 10.988281 26.019531 10.996094 26.019531 10.996094 26.023438 L 10.996094 27.988281 C 10.996094 27.992188 10.988281 27.992188 10.976562 27.992188 L 7.019531 27.992188 C 7.007812 27.992188 6.996094 27.992188 6.996094 27.988281 L 6.996094 26.023438 C 6.996094 26.019531 7.007812 26.019531 7.019531 26.019531 M 7.019531 26.019531 "/>
<path style=" stroke:none;fill-rule:nonzero;fill:rgb(85.882353%,30.588235%,85.882353%);fill-opacity:0.701961;" d="M 7.019531 23 L 10.976562 23 C 10.988281 23 10.996094 23.003906 10.996094 23.003906 L 10.996094 24.957031 C 10.996094 24.957031 10.988281 24.960938 10.976562 24.960938 L 7.019531 24.960938 C 7.007812 24.960938 6.996094 24.957031 6.996094 24.957031 L 6.996094 23.003906 C 6.996094 23.003906 7.007812 23 7.019531 23 M 7.019531 23 "/>
<path style=" stroke:none;fill-rule:nonzero;fill:rgb(85.882353%,30.588235%,85.882353%);fill-opacity:0.6;" d="M 7.019531 20 L 10.976562 20 C 10.988281 20 10.996094 20 10.996094 20.003906 L 10.996094 21.945312 C 10.996094 21.945312 10.988281 21.949219 10.976562 21.949219 L 7.019531 21.949219 C 7.007812 21.949219 6.996094 21.945312 6.996094 21.945312 L 6.996094 20.003906 C 6.996094 20 7.007812 20 7.019531 20 M 7.019531 20 "/>
<path style=" stroke:none;fill-rule:nonzero;fill:rgb(24.705882%,55.294118%,93.333333%);fill-opacity:0.501961;" d="M 2 17 L 2 19 L 5.96875 19 C 5.980469 19 6 19 6 19 L 6 17 C 6 16.996094 5.980469 17 5.96875 17 M 2 20 L 2 22 L 5.96875 22 C 5.980469 22 6 22 6 22 L 6 20.0625 C 6 20.058594 5.980469 20.0625 5.96875 20.0625 M 2 23 C 2 24 2 24.273438 2 25 L 5.96875 25 C 5.980469 25 6 25 6 25 L 6 23.0625 C 6 23.058594 5.980469 23.0625 5.96875 23.0625 M 2 26 C 2 26.675781 2 27.429688 2 28 L 5.96875 28 C 5.980469 28 6 28 6 28 L 6 26.03125 C 6 26.027344 5.980469 26.03125 5.96875 26.03125 M 2 29 C 2 30 2 30.398438 2 31 L 5.96875 31 C 5.980469 31 6 31 6 31 L 6 29.03125 C 6 29.027344 5.980469 29.03125 5.96875 29.03125 M 2 32 C 2 32.683594 2 33.300781 2 34 L 5.96875 34 C 5.980469 34 6 34 6 34 L 6 32 C 6 31.996094 5.980469 32 5.96875 32 M 2 32 "/>
<path style=" stroke:none;fill-rule:nonzero;fill:rgb(77.254902%,18.431373%,18.431373%);fill-opacity:1;" d="M 37.019531 32 L 40.980469 32 C 40.992188 32 41 32.003906 41 32.003906 L 41 33.996094 C 41 33.996094 40.992188 34 40.980469 34 L 37.019531 34 C 37.007812 34 37 33.996094 37 33.996094 L 37 32.003906 C 37 32.003906 37.007812 32 37.019531 32 M 37.019531 32 "/>
<path style=" stroke:none;fill-rule:nonzero;fill:rgb(77.254902%,18.431373%,18.431373%);fill-opacity:0.901961;" d="M 37.019531 29.019531 L 40.980469 29.019531 C 40.992188 29.019531 41 29.023438 41 29.023438 L 41 30.992188 C 41 30.992188 40.992188 30.992188 40.980469 30.992188 L 37.019531 30.992188 C 37.007812 30.992188 37 30.992188 37 30.992188 L 37 29.023438 C 37 29.023438 37.007812 29.019531 37.019531 29.019531 M 37.019531 29.019531 "/>
<path style=" stroke:none;fill-rule:nonzero;fill:rgb(77.254902%,18.431373%,18.431373%);fill-opacity:0.8;" d="M 37.019531 26.039062 L 40.980469 26.039062 C 40.992188 26.039062 41 26.039062 41 26.039062 L 41 27.996094 C 41 28 40.992188 28 40.980469 28 L 37.019531 28 C 37.007812 28 37 28 37 27.996094 L 37 26.039062 C 37 26.039062 37.007812 26.039062 37.019531 26.039062 M 37.019531 26.039062 "/>
<path style=" stroke:none;fill-rule:nonzero;fill:rgb(77.254902%,18.431373%,18.431373%);fill-opacity:0.701961;" d="M 37.019531 23.050781 L 40.980469 23.050781 C 40.992188 23.050781 41 23.050781 41 23.054688 L 41 24.996094 C 41 24.996094 40.992188 25 40.980469 25 L 37.019531 25 C 37.007812 25 37 24.996094 37 24.996094 L 37 23.054688 C 37 23.050781 37.007812 23.050781 37.019531 23.050781 M 37.019531 23.050781 "/>
<path style=" stroke:none;fill-rule:nonzero;fill:rgb(77.254902%,18.431373%,18.431373%);fill-opacity:0.6;" d="M 37.019531 20.058594 L 40.980469 20.058594 C 40.992188 20.058594 41 20.0625 41 20.0625 L 41 21.992188 C 41 21.992188 40.992188 21.992188 40.980469 21.992188 L 37.019531 21.992188 C 37.007812 21.992188 37 21.992188 37 21.992188 L 37 20.0625 C 37 20.0625 37.007812 20.058594 37.019531 20.058594 M 37.019531 20.058594 "/>
<path style=" stroke:none;fill-rule:nonzero;fill:rgb(77.254902%,18.431373%,18.431373%);fill-opacity:0.501961;" d="M 37.019531 17 L 40.980469 17 C 40.992188 17 41 17 41 17.003906 L 41 18.992188 C 41 18.996094 40.992188 18.996094 40.980469 18.996094 L 37.019531 18.996094 C 37.007812 18.996094 37 18.996094 37 18.992188 L 37 17.003906 C 37 17 37.007812 17 37.019531 17 M 37.019531 17 "/>
<path style=" stroke:none;fill-rule:nonzero;fill:rgb(77.254902%,18.431373%,18.431373%);fill-opacity:0.4;" d="M 37.019531 14 L 40.980469 14 C 40.992188 14 41 14.003906 41 14.003906 L 41 15.996094 C 41 15.996094 40.992188 16 40.980469 16 L 37.019531 16 C 37.007812 16 37 15.996094 37 15.996094 L 37 14.003906 C 37 14.003906 37.007812 14 37.019531 14 M 37.019531 14 "/>
<path style="fill-rule:nonzero;fill:rgb(97.647059%,97.647059%,97.647059%);fill-opacity:1;stroke-width:0.176;stroke-linecap:butt;stroke-linejoin:miter;stroke:rgb(97.647059%,97.647059%,97.647059%);stroke-opacity:1;stroke-miterlimit:4;" d="M 3.547769 5.847269 L 3.975512 5.847269 C 4.082448 5.847269 4.16954 5.935464 4.16954 6.053424 L 4.16954 7.732426 C 4.16954 7.842669 4.082448 7.937478 3.975512 7.937478 L 3.547769 7.937478 C 3.439731 7.937478 3.352639 7.843771 3.352639 7.732426 L 3.352639 6.053424 C 3.352639 5.936566 3.439731 5.847269 3.547769 5.847269 M 3.547769 5.847269 " transform="matrix(3.543307,0,0,3.543307,-0.566929,-0.421795)"/>
<path style="fill-rule:nonzero;fill:rgb(97.647059%,97.647059%,97.647059%);fill-opacity:1;stroke-width:0.128;stroke-linecap:round;stroke-linejoin:round;stroke:rgb(97.647059%,97.647059%,97.647059%);stroke-opacity:1;stroke-miterlimit:4;" d="M 4.085755 5.943181 L 6.500078 3.749344 L 6.500078 6.527469 L 6.794427 6.979465 L 6.500078 7.316809 L 6.500078 10.029891 L 4.076936 7.912122 M 4.085755 5.940976 " transform="matrix(3.543307,0,0,3.543307,-0.566929,-0.421795)"/>
<path style="fill:none;stroke-width:0.589;stroke-linecap:butt;stroke-linejoin:round;stroke:rgb(97.647059%,97.647059%,97.647059%);stroke-opacity:1;stroke-miterlimit:4;" d="M 7.290521 5.623476 C 7.957491 6.323519 7.957491 7.460125 7.290521 8.161271 " transform="matrix(3.543307,0,0,3.543307,-0.566929,-0.421795)"/>
<path style="fill:none;stroke-width:0.589;stroke-linecap:butt;stroke-linejoin:round;stroke:rgb(97.647059%,97.647059%,97.647059%);stroke-opacity:1;stroke-miterlimit:4;" d="M 8.172465 4.737122 C 9.303559 5.926644 9.303559 7.857 8.172465 9.047625 " transform="matrix(3.543307,0,0,3.543307,-0.566929,-0.421795)"/>
<path style="fill:none;stroke-width:0.589;stroke-linecap:butt;stroke-linejoin:round;stroke:rgb(97.647059%,97.647059%,97.647059%);stroke-opacity:1;stroke-miterlimit:4;" d="M 9.089688 3.800056 C 10.716875 5.506618 10.716875 8.277026 9.089688 9.983589 " transform="matrix(3.543307,0,0,3.543307,-0.566929,-0.421795)"/>
<path style=" stroke:none;fill-rule:nonzero;fill:rgb(89.411765%,78.823529%,18.823529%);fill-opacity:0.6;" d="M 42 20 L 42 21.9375 C 42 21.941406 42.019531 21.9375 42.03125 21.9375 L 46 22 L 46 20 L 42.03125 20 C 42.019531 20 42 20 42 20 M 42 23 L 42 24.96875 C 42 24.972656 42.019531 24.96875 42.03125 24.96875 L 46 24.96875 L 46 23 L 42.03125 23 C 42.019531 23 42 22.996094 42 23 M 42 26 L 42 27.96875 C 42 27.972656 42.019531 27.96875 42.03125 27.96875 L 46 28 L 46 26 L 42.03125 26 C 42.019531 26 42 25.996094 42 26 M 42 29 L 42 30.96875 C 42 30.972656 42.019531 30.96875 42.03125 30.96875 L 46 31 L 46 29 L 42.03125 29 C 42.019531 29 42 28.996094 42 29 M 42 32 L 42 34 C 42 34 42.019531 34 42.03125 34 L 46 34 L 46 32 L 42.03125 32 C 42.019531 32 42 31.996094 42 32 M 42 32 "/>
</g>
</svg>
