<!-- color: #63c038 -->
<svg xmlns="http://www.w3.org/2000/svg" xmlns:xlink="http://www.w3.org/1999/xlink" width="48px" height="48px" viewBox="0 0 48 48" version="1.1">
<g id="surface1">
<path style=" stroke:none;fill-rule:nonzero;fill:rgb(52.54902%,54.509804%,92.54902%);fill-opacity:1;" d="M 25.375 29.128906 L 1.253906 48.003906 L 41.253906 48.003906 M 25.378906 29.128906 "/>
<path style=" stroke:none;fill-rule:nonzero;fill:rgb(52.54902%,54.509804%,92.54902%);fill-opacity:1;" d="M 25.070312 28.910156 L 9.265625 41.675781 C 13.25 44.996094 18.386719 47 24.011719 47 C 28.867188 47 33.34375 45.515625 37.050781 42.96875 M 25.074219 28.910156 "/>
<path style=" stroke:none;fill-rule:nonzero;fill:rgb(100%,90.588235%,56.078431%);fill-opacity:1;" d="M 48 7 L 0 46 C 0 46.59375 0 47.507812 0 48 C 1 48 3 48 4 48 L 48 12 M 48 7 "/>
<path style=" stroke:none;fill-rule:nonzero;fill:rgb(100%,90.588235%,56.078431%);fill-opacity:1;" d="M 26.984375 27.828125 L 24.351562 30.320312 L 39 48 C 40 48 42 48 43 48 M 26.980469 27.828125 "/>
<path style=" stroke:none;fill-rule:evenodd;fill:rgb(95.294118%,32.54902%,23.921569%);fill-opacity:1;" d="M 15.863281 34.949219 C 15.414062 32.738281 14.617188 30.898438 13.652344 29.195312 C 12.9375 27.933594 12.109375 26.765625 11.34375 25.539062 C 11.089844 25.128906 10.867188 24.699219 10.625 24.273438 C 10.132812 23.425781 9.734375 22.441406 9.757812 21.164062 C 9.78125 19.914062 10.144531 18.914062 10.667969 18.09375 C 11.523438 16.75 12.960938 15.644531 14.890625 15.355469 C 16.464844 15.117188 17.945312 15.519531 18.992188 16.132812 C 19.847656 16.628906 20.511719 17.296875 21.015625 18.085938 C 21.542969 18.90625 21.90625 19.875 21.9375 21.140625 C 21.953125 21.789062 21.84375 22.390625 21.695312 22.886719 C 21.542969 23.390625 21.300781 23.8125 21.082031 24.261719 C 20.660156 25.140625 20.128906 25.945312 19.59375 26.75 C 18.007812 29.148438 16.515625 31.597656 15.863281 34.949219 M 15.863281 34.949219 "/>
<path style=" stroke:none;fill-rule:evenodd;fill:rgb(75.686275%,18.431373%,12.54902%);fill-opacity:1;" d="M 18.515625 21.292969 C 18.515625 22.800781 17.292969 24.023438 15.78125 24.023438 C 14.269531 24.023438 13.042969 22.800781 13.042969 21.292969 C 13.042969 19.785156 14.269531 18.5625 15.78125 18.5625 C 17.292969 18.5625 18.515625 19.785156 18.515625 21.292969 M 18.515625 21.292969 "/>
</g>
</svg>
