<!-- color: #474747 -->
<svg xmlns="http://www.w3.org/2000/svg" xmlns:xlink="http://www.w3.org/1999/xlink" width="48px" height="48px" viewBox="0 0 48 48" version="1.1">
<g id="surface1">
<path style=" stroke:none;fill-rule:nonzero;fill:rgb(92.941176%,23.921569%,23.921569%);fill-opacity:1;" d="M 24 9 C 23.476562 9 23.054688 9.414062 23.054688 9.9375 L 23.054688 10.902344 C 18.886719 11.195312 15.277344 13.417969 13.058594 16.644531 L 12.171875 16.148438 C 11.71875 15.890625 11.160156 16.050781 10.898438 16.5 C 10.636719 16.949219 10.769531 17.53125 11.222656 17.789062 L 12.082031 18.285156 C 11.234375 20.015625 10.75 21.949219 10.75 24 C 10.75 26.050781 11.234375 27.984375 12.082031 29.714844 L 11.222656 30.210938 C 10.769531 30.46875 10.636719 31.050781 10.898438 31.5 C 11.160156 31.949219 11.71875 32.109375 12.171875 31.851562 L 13.058594 31.351562 C 15.277344 34.582031 18.886719 36.804688 23.054688 37.097656 L 23.054688 38.0625 C 23.054688 38.585938 23.476562 39.003906 24 39.003906 C 24.523438 39.003906 24.945312 38.589844 24.945312 38.0625 L 24.945312 37.097656 C 29.109375 36.804688 32.722656 34.582031 34.941406 31.351562 L 35.828125 31.851562 C 36.28125 32.109375 36.839844 31.949219 37.097656 31.5 C 37.363281 31.050781 37.230469 30.46875 36.773438 30.210938 L 35.917969 29.714844 C 36.765625 27.984375 37.25 26.050781 37.25 24 C 37.25 21.949219 36.765625 20.015625 35.917969 18.285156 L 36.773438 17.789062 C 37.230469 17.53125 37.363281 16.949219 37.097656 16.5 C 36.835938 16.050781 36.28125 15.890625 35.828125 16.148438 L 34.941406 16.644531 C 32.722656 13.417969 29.109375 11.195312 24.945312 10.902344 L 24.945312 9.9375 C 24.945312 9.414062 24.523438 9 24 9 M 19.148438 14.914062 C 19.515625 14.871094 19.898438 15.046875 20.09375 15.382812 L 21.039062 17.023438 C 21.300781 17.472656 21.136719 18.023438 20.683594 18.285156 C 20.230469 18.542969 19.644531 18.410156 19.382812 17.960938 L 18.4375 16.320312 C 18.171875 15.871094 18.335938 15.289062 18.789062 15.03125 C 18.902344 14.96875 19.023438 14.929688 19.144531 14.914062 M 28.609375 14.945312 C 28.703125 14.929688 28.785156 14.933594 28.875 14.945312 C 29 14.957031 29.117188 14.996094 29.230469 15.0625 C 29.683594 15.320312 29.847656 15.898438 29.585938 16.347656 L 28.640625 17.960938 C 28.375 18.410156 27.792969 18.570312 27.335938 18.3125 C 26.882812 18.054688 26.71875 17.472656 26.984375 17.023438 L 27.929688 15.414062 C 28.074219 15.160156 28.335938 14.988281 28.605469 14.945312 M 14.585938 23.027344 L 16.480469 23.027344 C 17.003906 23.027344 17.425781 23.445312 17.425781 23.96875 C 17.425781 24.488281 17.003906 24.90625 16.480469 24.90625 L 14.585938 24.90625 C 14.0625 24.90625 13.640625 24.488281 13.640625 23.96875 C 13.640625 23.445312 14.0625 23.027344 14.585938 23.027344 M 31.5625 23.027344 L 33.453125 23.027344 C 33.976562 23.027344 34.398438 23.445312 34.398438 23.96875 C 34.398438 24.488281 33.976562 24.90625 33.453125 24.90625 L 31.5625 24.90625 C 31.039062 24.90625 30.617188 24.488281 30.617188 23.96875 C 30.617188 23.445312 31.039062 23.027344 31.5625 23.027344 M 23.992188 23.058594 C 24.515625 23.058594 24.9375 23.480469 24.9375 23.996094 C 24.9375 24.515625 24.515625 24.933594 23.992188 24.933594 C 23.472656 24.933594 23.050781 24.515625 23.050781 23.996094 C 23.050781 23.480469 23.472656 23.058594 23.992188 23.058594 M 20.089844 29.621094 C 20.179688 29.601562 20.265625 29.609375 20.359375 29.621094 C 20.480469 29.632812 20.597656 29.699219 20.710938 29.765625 C 21.167969 30.023438 21.328125 30.574219 21.066406 31.023438 L 20.121094 32.664062 C 19.859375 33.113281 19.273438 33.246094 18.820312 32.988281 C 18.363281 32.726562 18.230469 32.179688 18.492188 31.730469 L 19.4375 30.089844 C 19.585938 29.835938 19.824219 29.664062 20.089844 29.621094 M 27.65625 29.648438 C 28.023438 29.601562 28.40625 29.753906 28.601562 30.089844 L 29.546875 31.730469 C 29.8125 32.179688 29.648438 32.757812 29.191406 33.015625 C 28.734375 33.273438 28.152344 33.113281 27.886719 32.660156 L 26.941406 31.019531 C 26.679688 30.570312 26.839844 30.019531 27.296875 29.761719 C 27.410156 29.695312 27.53125 29.65625 27.648438 29.644531 M 27.652344 29.644531 "/>
</g>
</svg>
