<!-- color: #7eba45 -->
<svg xmlns="http://www.w3.org/2000/svg" xmlns:xlink="http://www.w3.org/1999/xlink" width="48px" height="48px" viewBox="0 0 48 48" version="1.1">
<g id="surface1">
<path style=" stroke:none;fill-rule:nonzero;fill:rgb(97.647059%,97.647059%,97.647059%);fill-opacity:1;" d="M 34 14 C 34 21.039062 34 27.894531 34 34 C 26.980469 34 20.074219 34 14.003906 34 C 14.003906 26.960938 14.003906 20.101562 14.003906 14 C 20.945312 14 28.054688 14 34 14 M 32 16 L 23 16 L 23 20 L 32 20 M 21 16 L 16.003906 16 L 16.003906 20 L 21 20 M 32 21.996094 L 23 21.996094 L 23 25.996094 L 32 25.996094 M 21 21.996094 L 16.003906 21.996094 L 16.003906 25.996094 L 21 25.996094 M 32 27.996094 L 23 27.996094 L 23 31.996094 L 32 31.996094 M 21 27.996094 L 16.003906 27.996094 L 16.003906 31.996094 L 21 31.996094 M 21 27.996094 "/>
</g>
</svg>
