<!-- color: #eeeeee -->
<svg xmlns="http://www.w3.org/2000/svg" xmlns:xlink="http://www.w3.org/1999/xlink" width="48px" height="48px" viewBox="0 0 48 48" version="1.1">
<g id="surface1">
<path style=" stroke:none;fill-rule:evenodd;fill:rgb(21.176471%,52.156863%,83.921569%);fill-opacity:1;" d="M 0 0 L 0 17 L 48 17 L 48 0 M 0 0 "/>
<path style=" stroke:none;fill-rule:nonzero;fill:rgb(12.54902%,31.764706%,50.196078%);fill-opacity:1;" d="M 31 12 C 31 13.105469 30.109375 14 29.003906 14 C 27.894531 14 27.003906 13.105469 27.003906 12 C 27.003906 10.898438 27.894531 10.003906 29.003906 10.003906 C 30.109375 10.003906 31 10.902344 31 12 M 31 12 "/>
<path style=" stroke:none;fill-rule:nonzero;fill:rgb(12.54902%,31.764706%,50.196078%);fill-opacity:1;" d="M 36 12 C 36 13.105469 35.105469 14 34 14 C 32.894531 14 32.003906 13.105469 32.003906 12 C 32.003906 10.898438 32.894531 10.003906 34 10.003906 C 35.105469 10.003906 36 10.902344 36 12 M 36 12 "/>
<path style=" stroke:none;fill-rule:nonzero;fill:rgb(86.27451%,86.27451%,86.27451%);fill-opacity:1;" d="M 34 13 C 35 13 35 12 35 12 C 35 12 35 11.003906 34 11.003906 L 29.003906 11.003906 C 28.003906 11.003906 28.003906 12 28.003906 12 C 28.003906 12 28.003906 13 29.003906 13 M 34 13 "/>
<path style=" stroke:none;fill-rule:nonzero;fill:rgb(12.54902%,31.764706%,50.196078%);fill-opacity:1;" d="M 16 12 C 16 13.105469 15.109375 14 14.003906 14 C 12.898438 14 12.003906 13.105469 12.003906 12 C 12.003906 10.898438 12.898438 10.003906 14.003906 10.003906 C 15.109375 10.003906 16 10.902344 16 12 M 16 12 "/>
<path style=" stroke:none;fill-rule:nonzero;fill:rgb(12.54902%,31.764706%,50.196078%);fill-opacity:1;" d="M 21 12 C 21 13.105469 20.109375 14 19.003906 14 C 17.898438 14 17.003906 13.105469 17.003906 12 C 17.003906 10.898438 17.898438 10.003906 19.003906 10.003906 C 20.109375 10.003906 21 10.902344 21 12 M 21 12 "/>
<path style=" stroke:none;fill-rule:nonzero;fill:rgb(86.27451%,86.27451%,86.27451%);fill-opacity:1;" d="M 14 13 C 13 13 13 12 13 12 C 13 12 13 11.003906 14 11.003906 L 19 11.003906 C 20 11.003906 20 12 20 12 C 20 12 20 13 19 13 M 14 13 "/>
<path style=" stroke:none;fill-rule:nonzero;fill:rgb(52.54902%,52.54902%,52.54902%);fill-opacity:1;" d="M 19.160156 34.816406 L 17.570312 34.816406 L 17.570312 25.109375 C 17.570312 24.300781 17.601562 23.539062 17.648438 22.816406 C 17.511719 22.945312 17.359375 23.085938 17.1875 23.226562 C 17.023438 23.371094 16.242188 23.976562 14.863281 25.042969 L 14 23.984375 L 17.785156 21.199219 L 19.15625 21.199219 L 19.15625 34.816406 "/>
<path style=" stroke:none;fill-rule:nonzero;fill:rgb(52.54902%,52.54902%,52.54902%);fill-opacity:1;" d="M 34 27.011719 C 34 32.339844 31.835938 35.003906 27.511719 35.003906 C 26.753906 35.003906 26.152344 34.9375 25.710938 34.8125 L 25.710938 33.480469 C 26.234375 33.640625 26.828125 33.722656 27.492188 33.722656 C 29.054688 33.722656 30.238281 33.261719 31.03125 32.34375 C 31.832031 31.417969 32.269531 30.003906 32.34375 28.09375 L 32.226562 28.09375 C 31.867188 28.613281 31.390625 29.003906 30.796875 29.277344 C 30.203125 29.550781 29.535156 29.683594 28.796875 29.683594 C 27.53125 29.683594 26.527344 29.324219 25.785156 28.601562 C 25.039062 27.882812 24.675781 26.875 24.675781 25.582031 C 24.675781 24.164062 25.089844 23.046875 25.914062 22.226562 C 26.757812 21.40625 27.851562 21 29.195312 21 C 30.175781 21 31.019531 21.238281 31.742188 21.71875 C 32.472656 22.191406 33.035156 22.886719 33.433594 23.796875 C 33.820312 24.699219 34.015625 25.773438 34.015625 27.007812 M 29.199219 22.320312 C 28.273438 22.320312 27.554688 22.601562 27.039062 23.175781 C 26.53125 23.75 26.277344 24.542969 26.277344 25.566406 C 26.277344 26.457031 26.511719 27.164062 26.980469 27.675781 C 27.445312 28.1875 28.164062 28.441406 29.121094 28.441406 C 29.71875 28.441406 30.265625 28.324219 30.761719 28.09375 C 31.261719 27.863281 31.652344 27.550781 31.945312 27.152344 C 32.226562 26.757812 32.371094 26.339844 32.371094 25.902344 C 32.371094 25.253906 32.234375 24.648438 31.96875 24.097656 C 31.703125 23.539062 31.328125 23.109375 30.84375 22.792969 C 30.367188 22.476562 29.816406 22.320312 29.199219 22.320312 "/>
</g>
</svg>
