<!-- color: #eeeeee -->
<svg xmlns="http://www.w3.org/2000/svg" xmlns:xlink="http://www.w3.org/1999/xlink" width="48px" height="48px" viewBox="0 0 48 48" version="1.1">
<g id="surface1">
<path style=" stroke:none;fill-rule:nonzero;fill:rgb(12.54902%,61.176471%,78.431373%);fill-opacity:1;" d="M 31.996094 24 C 31.996094 28.417969 28.417969 32 23.996094 32 C 19.578125 32 15.996094 28.421875 15.996094 24 C 15.996094 19.582031 19.574219 16 23.996094 16 C 28.414062 16 31.996094 19.582031 31.996094 24 M 31.996094 24 "/>
<path style=" stroke:none;fill-rule:nonzero;fill:rgb(97.647059%,97.647059%,97.647059%);fill-opacity:1;" d="M 33.964844 24 C 33.964844 29.503906 29.503906 33.964844 24 33.964844 C 18.492188 33.964844 14.03125 29.503906 14.03125 24 C 14.03125 18.492188 18.492188 14.03125 24 14.03125 C 29.503906 14.03125 33.964844 18.492188 33.964844 24 M 33.964844 24 "/>
<path style=" stroke:none;fill-rule:nonzero;fill:rgb(12.941176%,61.960784%,78.823529%);fill-opacity:1;" d="M 31.960938 24 C 31.871094 28.335938 28.324219 31.808594 23.988281 31.808594 C 19.648438 31.808594 16.105469 28.335938 16.011719 24 C 15.953125 21.109375 17.457031 18.414062 19.949219 16.949219 C 22.441406 15.484375 25.53125 15.484375 28.019531 16.949219 C 30.511719 18.410156 32.019531 21.105469 31.957031 24 M 31.957031 24 "/>
<path style=" stroke:none;fill-rule:nonzero;fill:rgb(85.882353%,44.705882%,34.509804%);fill-opacity:1;" d="M 31.363281 19.039062 L 48 19 C 48 13 48 6 48 0 C 32.667969 0 17.332031 0 2.003906 0 L 15.144531 22.664062 C 15.347656 21.363281 15.8125 20.113281 16.550781 19.007812 C 17.289062 17.90625 18.289062 16.964844 19.519531 16.257812 C 20.597656 15.636719 21.734375 15.242188 22.894531 15.101562 C 24.050781 14.957031 25.25 15.050781 26.363281 15.351562 C 27.476562 15.652344 28.523438 16.148438 29.457031 16.851562 C 30.214844 17.425781 30.800781 18.21875 31.363281 19.039062 M 31.363281 19.039062 "/>
<path style=" stroke:none;fill-rule:nonzero;fill:rgb(85.882353%,80.784314%,32.54902%);fill-opacity:1;" d="M 24.675781 32.894531 L 16 47.996094 C 25 47.996094 45 47.996094 47.996094 47.996094 C 47.996094 43.996094 47.996094 22.976562 47.996094 16.996094 L 29.554688 16.996094 C 30.578125 17.824219 31.519531 18.894531 32.105469 20.082031 C 32.695312 21.273438 33.003906 22.609375 33.003906 24.03125 C 33.003906 25.273438 32.773438 26.453125 32.316406 27.53125 C 31.859375 28.609375 31.175781 29.597656 30.363281 30.414062 C 29.546875 31.226562 28.59375 31.886719 27.515625 32.339844 C 26.640625 32.710938 25.660156 32.820312 24.667969 32.894531 M 24.675781 32.894531 "/>
<path style=" stroke:none;fill-rule:nonzero;fill:rgb(50.196078%,69.803922%,29.803922%);fill-opacity:1;" d="M 16.019531 20.179688 L 4 0 C 2.003906 0 1 0 0 0 C 0 8 0 41 0 48 C 7 48 12 48 18 48 L 27.261719 32.410156 C 26.035156 32.886719 24.71875 33.105469 23.394531 33.019531 C 22.066406 32.933594 20.757812 32.535156 19.527344 31.824219 C 18.449219 31.203125 17.542969 30.414062 16.835938 29.476562 C 16.132812 28.542969 15.617188 27.457031 15.320312 26.347656 C 15.023438 25.234375 14.929688 24.082031 15.074219 22.917969 C 15.191406 21.976562 15.582031 21.070312 16.015625 20.171875 M 16.015625 20.175781 "/>
<path style=" stroke:none;fill-rule:nonzero;fill:rgb(97.647059%,97.647059%,97.647059%);fill-opacity:1;" d="M 33 24 C 33 28.96875 28.96875 33 24 33 C 19.027344 33 15 28.96875 15 24 C 15 19.027344 19.03125 15 24 15 C 28.96875 15 33 19.03125 33 24 M 33 24 "/>
<path style=" stroke:none;fill-rule:nonzero;fill:rgb(21.176471%,65.882353%,69.803922%);fill-opacity:1;" d="M 31 24 C 30.914062 27.804688 27.804688 30.84375 24 30.84375 C 20.195312 30.84375 17.085938 27.804688 17 24 C 16.945312 21.460938 18.265625 19.089844 20.453125 17.804688 C 22.644531 16.519531 25.359375 16.519531 27.546875 17.804688 C 29.734375 19.089844 31.058594 21.460938 31 24 M 31 24 "/>
</g>
</svg>
