<!-- color: #eeeeee -->
<svg xmlns="http://www.w3.org/2000/svg" xmlns:xlink="http://www.w3.org/1999/xlink" width="48px" height="48px" viewBox="0 0 48 48" version="1.1">
<g id="surface1">
<path style=" stroke:none;fill-rule:nonzero;fill:rgb(97.647059%,67.058824%,49.019608%);fill-opacity:1;" d="M 31.699219 28.011719 C 34.730469 26.324219 37.046875 25.035156 37.261719 24.925781 C 37.886719 24.570312 38.546875 23.6875 37.261719 22.976562 C 36.847656 22.746094 34.59375 21.496094 31.695312 19.894531 L 27.710938 23.96875 M 31.699219 28.007812 "/>
<path style=" stroke:none;fill-rule:nonzero;fill:rgb(81.176471%,26.27451%,35.294118%);fill-opacity:1;" d="M 27.710938 23.96875 L 14.96875 36.988281 C 15.257812 37.023438 15.605469 36.949219 16 36.726562 C 16.828125 36.269531 25.679688 31.355469 31.703125 28.007812 M 27.710938 23.96875 "/>
<path style=" stroke:none;fill-rule:nonzero;fill:rgb(58.431373%,87.058824%,69.803922%);fill-opacity:1;" d="M 27.710938 23.96875 L 31.695312 19.894531 C 31.695312 19.894531 16.886719 11.699219 15.996094 11.210938 C 15.65625 11.023438 15.285156 10.957031 14.957031 11.03125 L 27.707031 23.96875 M 27.710938 23.96875 "/>
<path style=" stroke:none;fill-rule:nonzero;fill:rgb(26.27451%,63.529412%,67.45098%);fill-opacity:1;" d="M 27.710938 23.96875 L 14.960938 11.03125 C 14.433594 11.152344 14.003906 11.613281 14.003906 12.539062 C 14.003906 14.050781 14.003906 34.171875 14.003906 35.4375 C 14.003906 36.3125 14.34375 36.929688 14.96875 36.988281 L 27.714844 23.96875 M 27.710938 23.972656 "/>
</g>
</svg>
