<!-- color: #db5441 -->
<svg xmlns="http://www.w3.org/2000/svg" xmlns:xlink="http://www.w3.org/1999/xlink" width="48px" height="48px" viewBox="0 0 48 48" version="1.1">
<g id="surface1">
<path style=" stroke:none;fill-rule:nonzero;fill:rgb(97.647059%,97.647059%,97.647059%);fill-opacity:1;" d="M 21.039062 13.148438 C 21.230469 13.296875 21.457031 13.496094 21.714844 13.746094 C 21.972656 13.976562 22.222656 14.273438 22.457031 14.628906 C 22.695312 14.964844 22.898438 15.363281 23.070312 15.828125 C 23.242188 16.289062 23.328125 16.8125 23.328125 17.402344 C 23.328125 17.988281 23.253906 18.503906 23.101562 18.945312 C 22.953125 19.386719 22.746094 19.785156 22.488281 20.140625 C 22.230469 20.476562 21.941406 20.792969 21.617188 21.085938 C 21.296875 21.359375 20.960938 21.621094 20.617188 21.875 C 20.402344 22.082031 20.199219 22.304688 20.003906 22.535156 C 19.8125 22.765625 19.714844 23.058594 19.714844 23.417969 C 19.714844 23.773438 19.8125 24.058594 20.003906 24.265625 C 20.199219 24.457031 20.382812 24.625 20.554688 24.773438 L 21.714844 25.652344 C 22.058594 25.949219 22.394531 26.242188 22.714844 26.535156 C 23.058594 26.828125 23.351562 27.144531 23.585938 27.480469 C 23.84375 27.816406 24.050781 28.195312 24.199219 28.613281 C 24.351562 29.035156 24.425781 29.515625 24.425781 30.0625 C 24.425781 30.796875 24.242188 31.523438 23.878906 32.238281 C 23.511719 32.949219 22.972656 33.582031 22.265625 34.125 C 21.554688 34.691406 20.660156 35.144531 19.585938 35.480469 C 18.53125 35.835938 17.316406 36.015625 15.941406 36.015625 C 14.777344 36.015625 13.757812 35.890625 12.875 35.636719 C 12.015625 35.386719 11.292969 35.050781 10.714844 34.625 C 10.132812 34.207031 9.703125 33.722656 9.421875 33.175781 C 9.144531 32.652344 9.003906 32.097656 9.003906 31.507812 C 9.003906 30.941406 9.1875 30.289062 9.550781 29.554688 C 9.898438 28.839844 10.542969 28.210938 11.488281 27.664062 C 11.984375 27.371094 12.511719 27.128906 13.070312 26.941406 C 13.648438 26.773438 14.21875 26.636719 14.777344 26.53125 C 15.34375 26.425781 15.863281 26.351562 16.359375 26.3125 C 16.855469 26.269531 17.285156 26.238281 17.648438 26.214844 C 17.414062 25.921875 17.1875 25.613281 16.972656 25.304688 C 16.777344 24.96875 16.683594 24.558594 16.683594 24.074219 C 16.683594 23.800781 16.714844 23.582031 16.777344 23.414062 C 16.84375 23.222656 16.925781 23.035156 17.007812 22.847656 C 16.835938 22.867188 16.660156 22.886719 16.488281 22.910156 C 16.316406 22.910156 16.144531 22.910156 15.972656 22.910156 C 15.113281 22.910156 14.347656 22.773438 13.683594 22.503906 C 13.015625 22.210938 12.457031 21.828125 12.003906 21.367188 C 11.550781 20.902344 11.207031 20.382812 10.972656 19.789062 C 10.734375 19.1875 10.617188 18.574219 10.617188 17.96875 C 10.617188 17.234375 10.789062 16.496094 11.136719 15.761719 C 11.480469 15.007812 11.992188 14.335938 12.6875 13.738281 C 13.609375 13.007812 14.578125 12.53125 15.589844 12.320312 C 16.617188 12.113281 17.574219 12.007812 18.460938 12.007812 L 25.105469 12.007812 L 23.039062 13.140625 L 21.039062 13.140625 M 17.488281 22.023438 C 17.898438 22.023438 18.304688 21.9375 18.683594 21.769531 C 19.089844 21.601562 19.425781 21.394531 19.683594 21.140625 C 20.046875 20.785156 20.273438 20.386719 20.359375 19.945312 C 20.445312 19.507812 20.488281 19.136719 20.488281 18.84375 C 20.488281 18.273438 20.402344 17.65625 20.230469 16.984375 C 20.058594 16.3125 19.800781 15.683594 19.460938 15.09375 C 19.113281 14.507812 18.6875 14.023438 18.171875 13.644531 C 17.675781 13.246094 17.09375 13.046875 16.429688 13.046875 C 15.996094 13.046875 15.574219 13.140625 15.171875 13.332031 C 14.761719 13.519531 14.429688 13.769531 14.171875 14.085938 C 13.894531 14.421875 13.695312 14.789062 13.59375 15.1875 C 13.507812 15.585938 13.464844 15.996094 13.464844 16.417969 C 13.464844 16.941406 13.535156 17.53125 13.691406 18.179688 C 13.863281 18.832031 14.109375 19.441406 14.433594 20.007812 C 14.777344 20.574219 15.195312 21.058594 15.691406 21.457031 C 16.210938 21.835938 16.808594 22.023438 17.496094 22.023438 M 22.273438 31.285156 C 22.273438 30.882812 22.195312 30.515625 22.046875 30.179688 C 21.914062 29.867188 21.710938 29.550781 21.433594 29.234375 C 21.152344 28.921875 20.785156 28.597656 20.335938 28.261719 C 19.882812 27.925781 19.355469 27.546875 18.753906 27.125 C 18.621094 27.105469 18.507812 27.09375 18.398438 27.09375 C 18.3125 27.09375 18.183594 27.09375 18.011719 27.09375 C 17.945312 27.09375 17.796875 27.09375 17.5625 27.09375 C 17.324219 27.117188 17.046875 27.136719 16.722656 27.15625 C 16.398438 27.199219 16.054688 27.257812 15.691406 27.316406 C 15.324219 27.398438 14.96875 27.492188 14.628906 27.597656 C 14.453125 27.660156 14.210938 27.757812 13.886719 27.882812 C 13.585938 28.027344 13.28125 28.226562 12.984375 28.480469 C 12.683594 28.730469 12.414062 29.046875 12.175781 29.425781 C 11.960938 29.804688 11.855469 30.277344 11.855469 30.84375 C 11.855469 31.976562 12.359375 32.902344 13.371094 33.613281 C 14.402344 34.328125 15.789062 34.683594 17.53125 34.683594 C 19.082031 34.683594 20.253906 34.359375 21.050781 33.707031 C 21.867188 33.078125 22.277344 32.269531 22.277344 31.285156 "/>
<path style=" stroke:none;fill-rule:nonzero;fill:rgb(97.647059%,97.647059%,97.647059%);fill-opacity:1;" d="M 34 16.738281 L 34 22 L 39 22 L 39 24 L 34 24 L 34 29 L 32 29 L 32 24 L 27 24 L 27 22 L 32 22 L 32 16.738281 "/>
</g>
</svg>
