<!-- color: #1f4a5e -->
<svg xmlns="http://www.w3.org/2000/svg" xmlns:xlink="http://www.w3.org/1999/xlink" width="48px" height="48px" viewBox="0 0 48 48" version="1.1">
<defs>
<clipPath id="clip1">
  <path d="M 9 9 L 39 9 L 39 36 L 9 36 Z M 9 9 "/>
</clipPath>
<clipPath id="clip2">
  <path d="M 24 9 C 15.714844 9 9 15.714844 9 24 C 9 32.28125 15.714844 39 24 39 C 32.285156 39 39 32.28125 39 24 C 39 15.714844 32.285156 9 24 9 M 24 18.640625 C 26.949219 18.640625 29.347656 21.011719 29.355469 23.964844 L 29.355469 24 C 29.355469 26.957031 26.957031 29.355469 24 29.355469 C 21.042969 29.355469 18.640625 26.957031 18.640625 24 C 18.640625 21.039062 21.042969 18.640625 24 18.640625 M 24 18.640625 "/>
</clipPath>
<clipPath id="clip3">
  <path d="M 9 24 L 33 24 L 33 39 L 9 39 Z M 9 24 "/>
</clipPath>
<clipPath id="clip4">
  <path d="M 24 9 C 15.714844 9 9 15.714844 9 24 C 9 32.28125 15.714844 39 24 39 C 32.285156 39 39 32.28125 39 24 C 39 15.714844 32.285156 9 24 9 M 24 18.640625 C 26.949219 18.640625 29.347656 21.011719 29.355469 23.964844 L 29.355469 24 C 29.355469 26.957031 26.957031 29.355469 24 29.355469 C 21.042969 29.355469 18.640625 26.957031 18.640625 24 C 18.640625 21.039062 21.042969 18.640625 24 18.640625 M 24 18.640625 "/>
</clipPath>
<clipPath id="clip5">
  <path d="M 24 22 L 39 22 L 39 39 L 24 39 Z M 24 22 "/>
</clipPath>
<clipPath id="clip6">
  <path d="M 24 9 C 15.714844 9 9 15.714844 9 24 C 9 32.28125 15.714844 39 24 39 C 32.285156 39 39 32.28125 39 24 C 39 15.714844 32.285156 9 24 9 M 24 18.640625 C 26.949219 18.640625 29.347656 21.011719 29.355469 23.964844 L 29.355469 24 C 29.355469 26.957031 26.957031 29.355469 24 29.355469 C 21.042969 29.355469 18.640625 26.957031 18.640625 24 C 18.640625 21.039062 21.042969 18.640625 24 18.640625 M 24 18.640625 "/>
</clipPath>
</defs>
<g id="surface1">
<g clip-path="url(#clip1)" clip-rule="nonzero">
<g clip-path="url(#clip2)" clip-rule="nonzero">
<path style=" stroke:none;fill-rule:nonzero;fill:rgb(89.019608%,54.901961%,32.54902%);fill-opacity:1;" d="M 24 24 L 5.785156 35.785156 L 5.785156 2.574219 L 45.429688 2.574219 L 45.429688 24.003906 M 24 24.003906 "/>
</g>
</g>
<g clip-path="url(#clip3)" clip-rule="nonzero">
<g clip-path="url(#clip4)" clip-rule="nonzero">
<path style=" stroke:none;fill-rule:nonzero;fill:rgb(65.882353%,81.176471%,21.176471%);fill-opacity:1;" d="M 5.785156 41.140625 L 5.785156 35.785156 L 24 24 L 32.570312 39 L 32.570312 41.140625 M 5.785156 41.140625 "/>
</g>
</g>
<g clip-path="url(#clip5)" clip-rule="nonzero">
<g clip-path="url(#clip6)" clip-rule="nonzero">
<path style=" stroke:none;fill-rule:nonzero;fill:rgb(34.901961%,63.921569%,78.431373%);fill-opacity:1;" d="M 24 41.140625 L 45.429688 41.140625 L 45.429688 22.925781 L 24 22.925781 M 24 41.140625 "/>
</g>
</g>
<path style=" stroke:none;fill-rule:nonzero;fill:rgb(97.647059%,97.647059%,97.647059%);fill-opacity:1;" d="M 23.445312 22.558594 C 23.445312 22.558594 20.144531 14.648438 17.90625 11.183594 C 16.816406 9.882812 14.875 9.714844 13.582031 10.804688 C 12.285156 11.894531 12.113281 13.824219 13.203125 15.125 C 16.222656 17.929688 23.445312 22.558594 23.445312 22.558594 M 23.445312 22.558594 "/>
<path style=" stroke:none;fill-rule:nonzero;fill:rgb(52.54902%,52.54902%,52.54902%);fill-opacity:1;" d="M 16.5 13 C 16.5 13.550781 16.054688 14 15.5 14 C 14.949219 14 14.5 13.550781 14.5 13 C 14.5 12.449219 14.949219 12 15.5 12 C 16.054688 12 16.5 12.449219 16.5 13 M 16.5 13 "/>
</g>
</svg>
