<!-- color: #a5ce4c -->
<svg xmlns="http://www.w3.org/2000/svg" xmlns:xlink="http://www.w3.org/1999/xlink" width="48px" height="48px" viewBox="0 0 48 48" version="1.1">
<g id="surface1">
<path style="fill-rule:nonzero;fill:rgb(83.921569%,28.627451%,21.176471%);fill-opacity:1;stroke-width:0.213;stroke-linecap:butt;stroke-linejoin:miter;stroke:rgb(17.647059%,17.647059%,17.647059%);stroke-opacity:1;stroke-miterlimit:4;" d="M 6.105261 8.215313 C 5.957535 8.152474 5.917847 7.9375 6.097544 7.751189 C 6.280547 7.564879 6.681832 7.409436 7.121702 7.215408 C 7.561571 7.02138 8.035617 6.78546 8.350912 6.796485 C 8.666207 6.807509 8.936302 7.098551 8.963863 7.474479 C 8.990321 7.851511 8.904332 8.349809 8.801806 8.705894 C 8.69928 9.061979 8.687153 9.236163 8.548247 9.299002 C 8.408238 9.361841 8.152474 9.391606 8.162396 9.055365 C 8.171215 8.721328 8.311224 8.045538 8.356424 7.754497 C 8.400521 7.463455 8.208698 7.442509 8.054358 7.485504 C 7.898915 7.528498 7.686146 7.612283 7.459045 7.718117 C 7.231945 7.82395 6.98941 7.955139 6.74467 8.066485 C 6.498828 8.17783 6.248577 8.272639 6.104158 8.213108 " transform="matrix(3.543307,0,0,3.543307,0,0)"/>
<path style="fill-rule:evenodd;fill:rgb(83.921569%,28.627451%,21.176471%);fill-opacity:1;stroke-width:0.213;stroke-linecap:butt;stroke-linejoin:miter;stroke:rgb(17.647059%,17.647059%,17.647059%);stroke-opacity:1;stroke-miterlimit:4;" d="M 6.733646 4.72171 C 6.247474 5.113073 5.817526 5.606962 5.501129 6.079905 C 5.183629 6.551745 4.979679 7.001537 4.859514 7.407231 C 4.738247 7.811823 4.698559 8.172318 4.773524 8.526198 C 4.84849 8.880078 5.035903 9.227344 5.363325 9.351919 C 5.688542 9.476493 6.15046 9.379479 6.538516 9.232856 C 6.925469 9.08954 7.237457 8.895512 7.450226 8.584627 C 7.661893 8.273742 7.775443 7.844896 7.915452 7.672917 C 8.056563 7.500938 8.228542 7.586927 8.251693 7.849306 C 8.277049 8.109479 8.155781 8.548247 7.970573 8.877873 C 7.786467 9.2075 7.53842 9.427986 7.199974 9.614297 C 6.864835 9.799505 6.443707 9.950538 6.020373 10.014479 C 5.598142 10.07842 5.171502 10.054167 4.841875 9.885495 C 4.511146 9.722335 4.273021 9.413655 4.158368 8.947327 C 4.041511 8.476589 4.051432 7.849306 4.193646 7.248481 C 4.338064 6.645452 4.616979 6.074393 5.08441 5.491207 C 5.549636 4.908021 6.204479 4.314913 6.765616 3.965443 C 7.327856 3.612665 7.798594 3.509037 8.17342 3.4925 C 8.547144 3.481476 8.820547 3.557543 9.034419 3.676606 C 9.249393 3.797873 9.40263 3.961033 9.433498 4.105451 C 9.465469 4.246563 9.373967 4.37224 9.164505 4.310504 C 8.958351 4.246563 8.634236 4.000721 8.195469 4.021667 C 7.763316 4.041511 7.215408 4.33145 6.730339 4.719505 " transform="matrix(3.543307,0,0,3.543307,0,0)"/>
<path style="fill-rule:nonzero;fill:rgb(83.921569%,28.627451%,21.176471%);fill-opacity:1;stroke-width:0.213;stroke-linecap:butt;stroke-linejoin:miter;stroke:rgb(17.647059%,17.647059%,17.647059%);stroke-opacity:1;stroke-miterlimit:4;" d="M 6.733646 4.72171 C 6.247474 5.113073 5.741458 5.606962 5.422856 6.079905 C 5.106458 6.551745 4.914636 6.964054 4.794471 7.368646 C 4.676511 7.776545 4.665486 8.210903 4.740452 8.564783 C 4.815417 8.918663 4.988498 9.29349 5.311511 9.416962 C 5.636728 9.541537 6.180226 9.431294 6.564974 9.28467 C 6.951927 9.142457 7.238559 8.895512 7.451328 8.584627 C 7.662995 8.273742 7.657483 7.872457 7.797492 7.700478 C 7.939705 7.528498 8.228542 7.589132 8.252795 7.851511 C 8.278151 8.110582 8.156884 8.550452 7.971676 8.880078 C 7.786467 9.209705 7.539523 9.430191 7.201077 9.616502 C 6.865938 9.799505 6.444809 9.950538 6.020373 10.014479 C 5.599245 10.079523 5.253082 10.079523 4.92125 9.916363 C 4.589419 9.749896 4.261997 9.32546 4.147344 8.860235 C 4.030486 8.389497 4.015052 7.903325 4.157266 7.3025 C 4.299479 6.699471 4.620287 6.075495 5.08441 5.494514 C 5.550738 4.911328 6.204479 4.318221 6.766719 3.966545 C 7.328959 3.615972 7.799696 3.512344 8.17342 3.495807 C 8.548247 3.481476 8.820547 3.558646 9.035521 3.679913 C 9.250495 3.801181 9.45224 3.97316 9.480903 4.116476 C 9.511771 4.258689 9.347509 4.472561 9.138047 4.410825 C 8.929688 4.350191 8.641953 4.041511 8.204288 4.062457 C 7.771033 4.083403 7.214306 4.33145 6.728134 4.72171 " transform="matrix(3.543307,0,0,3.543307,0,0)"/>
</g>
</svg>
