<!-- color: #eeeeee -->
<svg xmlns="http://www.w3.org/2000/svg" xmlns:xlink="http://www.w3.org/1999/xlink" width="48px" height="48px" viewBox="0 0 48 48" version="1.1">
<g id="surface1">
<path style=" stroke:none;fill-rule:nonzero;fill:rgb(58.823529%,38.431373%,4.313725%);fill-opacity:0.713725;" d="M 15.949219 13.03125 L 32.058594 13.03125 C 32.582031 13.03125 33.003906 13.464844 33.003906 14.003906 L 33.003906 34.03125 C 33.003906 34.570312 32.582031 35.007812 32.058594 35.007812 L 15.949219 35.007812 C 15.425781 35.007812 15.003906 34.570312 15.003906 34.03125 L 15.003906 14.003906 C 15.003906 13.464844 15.425781 13.03125 15.949219 13.03125 M 15.949219 13.03125 "/>
<path style=" stroke:none;fill-rule:nonzero;fill:rgb(92.54902%,92.54902%,92.54902%);fill-opacity:1;" d="M 17 15 L 31 15 L 31 28 L 26 33 L 17 33.027344 M 17 14.996094 "/>
<path style=" stroke:none;fill-rule:nonzero;fill:rgb(32.54902%,33.333333%,32.54902%);fill-opacity:1;" d="M 19 13 L 29 13 L 29 16 L 19 16 M 19 13 "/>
<path style=" stroke:none;fill-rule:nonzero;fill:rgb(64.313725%,64.313725%,64.313725%);fill-opacity:1;" d="M 26 28 L 26 33 L 31 28 M 26 28 "/>
<path style=" stroke:none;fill-rule:evenodd;fill:rgb(32.54902%,32.54902%,32.54902%);fill-opacity:1;" d="M 19.148438 24.566406 L 21.359375 27.492188 C 22.019531 28.164062 22.765625 28.164062 23.019531 27.492188 C 24.085938 25.007812 26.953125 20.382812 28.84375 19.023438 C 29.347656 18.476562 28.519531 17.730469 27.882812 18.09375 C 26.515625 18.742188 22.578125 24.335938 22.070312 25.917969 L 20.398438 23.609375 C 19.785156 22.722656 18.578125 23.714844 19.148438 24.5625 M 19.148438 24.566406 "/>
<path style=" stroke:none;fill-rule:nonzero;fill:rgb(32.54902%,33.333333%,32.54902%);fill-opacity:1;" d="M 22 13 L 22 12 L 26 12 L 26 13 M 22 13 "/>
</g>
</svg>
