<!-- color: #e6dd60 -->
<svg xmlns="http://www.w3.org/2000/svg" xmlns:xlink="http://www.w3.org/1999/xlink" width="48px" height="48px" viewBox="0 0 48 48" version="1.1">
<g id="surface1">
<path style=" stroke:none;fill-rule:nonzero;fill:rgb(56.078431%,61.960784%,63.529412%);fill-opacity:1;" d="M 13.613281 21.199219 L 13.21875 27.339844 L 14.199219 32.183594 L 27.246094 33.195312 L 34.90625 32.78125 L 34.882812 27.34375 L 34.734375 16.175781 L 27.246094 15.164062 M 13.613281 21.203125 "/>
<path style=" stroke:none;fill-rule:nonzero;fill:rgb(27.058824%,63.921569%,27.45098%);fill-opacity:1;" d="M 26.4375 23.75 L 25.5625 24.25 C 27.039062 26.714844 27.792969 28.667969 28.15625 30 C 28.515625 31.328125 28.5 32 28.5 32 L 29.496094 32 C 29.496094 32 29.480469 31.171875 29.089844 29.75 C 28.703125 28.328125 27.957031 26.289062 26.433594 23.75 M 26.4375 23.75 "/>
<path style=" stroke:none;fill-rule:nonzero;fill:rgb(97.254902%,86.666667%,92.156863%);fill-opacity:1;" d="M 18.496094 15.578125 L 14.136719 19.746094 L 12.84375 24.535156 C 14.121094 25.453125 15.6875 26 17.410156 26 C 20.867188 26 23.796875 23.808594 24.730469 20.789062 C 25.566406 21.421875 26.609375 21.832031 27.761719 21.832031 C 29.921875 21.832031 31.738281 20.488281 32.394531 18.636719 C 32.652344 18.691406 32.933594 18.703125 33.210938 18.703125 C 33.5625 18.703125 33.902344 18.65625 34.230469 18.570312 L 34.195312 16.03125 M 18.5 15.578125 "/>
<path style=" stroke:none;fill-rule:nonzero;fill:rgb(92.156863%,89.803922%,81.176471%);fill-opacity:1;" d="M 19 14 L 12 21 L 12 31.488281 C 12 32.90625 13.179688 34 14.546875 34 L 33.457031 34 C 34.824219 34 36 32.90625 36 31.488281 L 36 16.511719 C 36 15.09375 34.824219 14 33.457031 14 M 18.003906 15.996094 L 32.003906 15.996094 C 32.828125 15.996094 34 17.1875 34 17.996094 L 34 29.996094 C 34 30.996094 33.003906 31.996094 32.003906 31.996094 L 16.003906 31.996094 C 15.007812 31.996094 14.007812 30.996094 14.007812 29.996094 L 14.007812 19 C 14.007812 19 17.226562 16 18.007812 16 M 18.007812 16 "/>
<path style=" stroke:none;fill-rule:nonzero;fill:rgb(27.058824%,63.921569%,27.45098%);fill-opacity:1;" d="M 22.230469 32.410156 C 22.230469 32.410156 22.230469 29.757812 23.558594 28.429688 C 24.886719 27.097656 27.542969 27.097656 27.542969 27.097656 C 27.542969 27.097656 27.542969 29.753906 26.214844 31.082031 C 24.882812 32.410156 22.230469 32.410156 22.230469 32.410156 M 22.230469 32.410156 "/>
<path style=" stroke:none;fill-rule:nonzero;fill:rgb(27.058824%,63.921569%,27.45098%);fill-opacity:1;" d="M 27.980469 27.609375 C 27.980469 27.609375 28.597656 25.3125 30.050781 24.472656 C 31.507812 23.632812 33.800781 24.246094 33.800781 24.246094 C 33.800781 24.246094 33.183594 26.542969 31.730469 27.382812 C 30.273438 28.222656 27.980469 27.609375 27.980469 27.609375 M 27.980469 27.609375 "/>
<path style=" stroke:none;fill-rule:nonzero;fill:rgb(89.803922%,86.666667%,37.647059%);fill-opacity:1;" d="M 25.078125 18.078125 C 23.703125 18.078125 22.59375 19.195312 22.59375 20.574219 C 22.59375 20.597656 22.59375 20.632812 22.59375 20.652344 C 22.570312 20.644531 22.5625 20.632812 22.53125 20.632812 C 21.199219 20.277344 19.820312 21.070312 19.46875 22.402344 C 19.109375 23.734375 19.902344 25.113281 21.234375 25.46875 C 21.257812 25.472656 21.269531 25.464844 21.289062 25.46875 C 21.277344 25.488281 21.269531 25.496094 21.269531 25.523438 C 20.578125 26.71875 21.007812 28.265625 22.203125 28.957031 C 23.398438 29.648438 24.921875 29.214844 25.609375 28.019531 C 25.617188 27.996094 25.625 27.984375 25.632812 27.96875 C 25.652344 27.984375 25.664062 27.996094 25.6875 28.019531 C 26.660156 28.996094 28.222656 28.996094 29.199219 28.019531 C 30.171875 27.039062 30.171875 25.453125 29.199219 24.484375 C 29.179688 24.46875 29.164062 24.449219 29.144531 24.433594 C 29.164062 24.410156 29.199219 24.414062 29.222656 24.40625 C 30.414062 23.714844 30.820312 22.195312 30.132812 21 C 29.574219 20.039062 28.484375 19.609375 27.449219 19.832031 C 27.128906 18.832031 26.195312 18.089844 25.085938 18.089844 M 24.386719 22.972656 C 24.613281 23.039062 24.839844 23.074219 25.085938 23.074219 C 25.261719 23.074219 25.441406 23.058594 25.605469 23.023438 C 25.65625 23.175781 25.726562 23.339844 25.8125 23.488281 C 25.9375 23.707031 26.085938 23.898438 26.257812 24.058594 C 26.046875 24.171875 25.859375 24.300781 25.6875 24.472656 C 25.503906 24.65625 25.355469 24.859375 25.242188 25.074219 C 25.078125 24.898438 24.914062 24.730469 24.695312 24.605469 C 24.476562 24.476562 24.230469 24.398438 23.996094 24.347656 C 24.121094 24.144531 24.242188 23.9375 24.3125 23.699219 C 24.378906 23.453125 24.394531 23.214844 24.390625 22.972656 M 24.386719 22.972656 "/>
<path style=" stroke:none;fill-rule:nonzero;fill:rgb(69.803922%,47.45098%,1.960784%);fill-opacity:1;" d="M 25.484375 22.230469 C 26.519531 22.507812 27.132812 23.570312 26.855469 24.601562 C 26.578125 25.632812 25.515625 26.246094 24.484375 25.96875 C 23.449219 25.695312 22.839844 24.632812 23.113281 23.597656 C 23.390625 22.566406 24.453125 21.953125 25.484375 22.230469 M 25.484375 22.230469 "/>
<path style=" stroke:none;fill-rule:nonzero;fill:rgb(50.588235%,58.039216%,58.431373%);fill-opacity:1;" d="M 16.191406 21 C 17.6875 21 19 19.855469 19 18.34375 L 19 14.003906 L 12 21.003906 L 16.191406 21.003906 M 16.195312 21 "/>
</g>
</svg>
