<!-- color: #eeeeee -->
<svg xmlns="http://www.w3.org/2000/svg" xmlns:xlink="http://www.w3.org/1999/xlink" width="48px" height="48px" viewBox="0 0 48 48" version="1.1">
<g id="surface1">
<path style=" stroke:none;fill-rule:evenodd;fill:rgb(32.54902%,32.54902%,32.54902%);fill-opacity:1;" d="M 18.65625 11.03125 C 17.195312 11.03125 16 12 16 13.1875 L 16 34.84375 C 16 36.027344 17.195312 37.03125 18.65625 37.03125 L 29.3125 37.03125 C 30.773438 37.03125 32 36.03125 32 34.84375 L 32 13.1875 C 32 11.996094 30.773438 11.03125 29.3125 11.03125 M 19 13 L 29 13 C 29.921875 13 30 13.25 30 14 L 30 24 C 30 24.75 29.921875 25 29 25 L 19 25 C 18.078125 25 18 24.75 18 24 L 18 14 C 18 13.34375 18.242188 13.015625 19 13 M 24 27 C 26.210938 27 28 28.789062 28 31 C 28 33.207031 26.210938 35 24 35 C 21.789062 35 20 33.207031 20 31 C 20 28.789062 21.789062 27 24 27 M 24 27 "/>
<path style=" stroke:none;fill-rule:evenodd;fill:rgb(32.54902%,32.54902%,32.54902%);fill-opacity:1;" d="M 26 31 C 26 32.105469 25.105469 33 24.003906 33 C 22.898438 33 22.003906 32.101562 22.003906 31 C 22.003906 29.894531 22.902344 29.003906 24.003906 29.003906 C 25.109375 29.003906 26 29.898438 26 31 M 26 31 "/>
</g>
</svg>
