<!-- color: #474747 -->
<svg xmlns="http://www.w3.org/2000/svg" xmlns:xlink="http://www.w3.org/1999/xlink" width="48px" height="48px" viewBox="0 0 48 48" version="1.1">
<g id="surface1">
<path style=" stroke:none;fill-rule:nonzero;fill:rgb(100%,100%,100%);fill-opacity:0.301961;" d="M 14 24 L 19 24 L 19 11 L 28 11 L 28 24 L 33.996094 24 L 23.5 37 M 14 24 "/>
<path style=" stroke:none;fill-rule:nonzero;fill:rgb(97.647059%,97.647059%,97.647059%);fill-opacity:1;" d="M 36 34 L 36 30 L 24 30 L 24 34 M 36 34 "/>
<path style=" stroke:none;fill-rule:nonzero;fill:rgb(97.647059%,97.647059%,97.647059%);fill-opacity:1;" d="M 14.742188 30 L 12 27.09375 L 18.171875 22 L 12 16.910156 L 14.742188 14 L 24.003906 22 M 14.742188 30 "/>
<path style=" stroke:none;fill-rule:nonzero;fill:rgb(10.196078%,78.039216%,0%);fill-opacity:1;" d="M 23.25 16 L 23.25 32 L 24.75 32 L 24.75 16 M 23.25 16 "/>
<path style=" stroke:none;fill-rule:nonzero;fill:rgb(10.196078%,78.039216%,0%);fill-opacity:1;" d="M 26.5 28.5 C 26.5 29.328125 25.382812 30 24 30 C 22.617188 30 21.5 29.328125 21.5 28.5 C 21.5 27.671875 22.617188 27 24 27 C 25.382812 27 26.5 27.671875 26.5 28.5 M 26.5 28.5 "/>
<path style=" stroke:none;fill-rule:nonzero;fill:rgb(10.196078%,78.039216%,0%);fill-opacity:1;" d="M 19.25 31 L 19.25 17 L 17.75 17 L 17.75 31 M 19.25 31 "/>
<path style=" stroke:none;fill-rule:nonzero;fill:rgb(10.196078%,78.039216%,0%);fill-opacity:1;" d="M 21 21.5 C 21 22.328125 19.882812 23 18.5 23 C 17.117188 23 16 22.328125 16 21.5 C 16 20.671875 17.117188 20 18.5 20 C 19.882812 20 21 20.671875 21 21.5 M 21 21.5 "/>
<path style=" stroke:none;fill-rule:nonzero;fill:rgb(10.196078%,78.039216%,0%);fill-opacity:1;" d="M 30.25 31 L 30.25 17 L 28.75 17 L 28.75 31 M 30.25 31 "/>
<path style=" stroke:none;fill-rule:nonzero;fill:rgb(10.196078%,78.039216%,0%);fill-opacity:1;" d="M 32 21.5 C 32 22.328125 30.882812 23 29.5 23 C 28.117188 23 27 22.328125 27 21.5 C 27 20.671875 28.117188 20 29.5 20 C 30.882812 20 32 20.671875 32 21.5 M 32 21.5 "/>
</g>
</svg>
