<!-- color: #eeeeee -->
<svg xmlns="http://www.w3.org/2000/svg" xmlns:xlink="http://www.w3.org/1999/xlink" width="48px" height="48px" viewBox="0 0 48 48" version="1.1">
<g id="surface1">
<path style="fill-rule:nonzero;fill:rgb(0%,24.705882%,43.921569%);fill-opacity:1;stroke-width:0.282;stroke-linecap:butt;stroke-linejoin:miter;stroke:rgb(80.784314%,12.941176%,23.921569%);stroke-opacity:1;stroke-miterlimit:4;" d="M 4.102144 3.527778 C 4.087813 4.527682 4.088915 5.537509 4.102144 6.538516 C 4.115373 7.50645 4.158368 8.260512 4.543116 8.852518 C 5.00724 9.562483 5.778941 10.076216 6.773333 10.581129 C 7.765521 10.077318 8.54053 9.562483 9.003551 8.852518 C 9.388299 8.260512 9.431294 7.50645 9.444523 6.538516 C 9.455547 5.537509 9.455547 4.527682 9.444523 3.527778 M 8.417057 3.611563 L 9.368455 3.611563 C 9.37066 3.987491 9.376172 4.362318 9.377275 4.733837 L 5.300486 9.584531 C 5.018264 9.349714 4.775729 9.099462 4.590521 8.809523 C 4.505634 8.683846 4.439488 8.550452 4.385469 8.411545 C 4.385469 8.411545 4.385469 8.410443 4.385469 8.410443 L 8.415955 3.611563 M 8.414853 3.611563 " transform="matrix(3.543307,0,0,3.543307,0,0)"/>
</g>
</svg>
