<!-- color: #91c8ff -->
<svg xmlns="http://www.w3.org/2000/svg" xmlns:xlink="http://www.w3.org/1999/xlink" width="48px" height="48px" viewBox="0 0 48 48" version="1.1">
<g id="surface1">
<path style=" stroke:none;fill-rule:nonzero;fill:rgb(97.647059%,97.647059%,97.647059%);fill-opacity:1;" d="M 24 18 C 24 21.3125 21.3125 24 18 24 C 14.6875 24 12 21.3125 12 18 C 12 14.6875 14.6875 12 18 12 C 21.3125 12 24 14.6875 24 18 M 24 18 "/>
<path style=" stroke:none;fill-rule:nonzero;fill:rgb(97.647059%,97.647059%,97.647059%);fill-opacity:1;" d="M 36 30 C 36 33.3125 33.3125 36 30 36 C 26.6875 36 24 33.3125 24 30 C 24 26.6875 26.6875 24 30 24 C 33.3125 24 36 26.6875 36 30 M 36 30 "/>
<path style=" stroke:none;fill-rule:nonzero;fill:rgb(29.803922%,29.803922%,29.803922%);fill-opacity:1;" d="M 24 30 C 24 33.3125 21.3125 36 18 36 C 14.6875 36 12 33.3125 12 30 C 12 26.6875 14.6875 24 18 24 C 21.3125 24 24 26.6875 24 30 M 24 30 "/>
<path style=" stroke:none;fill-rule:nonzero;fill:rgb(100%,81.176471%,21.176471%);fill-opacity:1;" d="M 20.554688 34 L 17.972656 32.617188 L 15.371094 33.957031 L 15.890625 31.074219 L 13.808594 29.015625 L 16.710938 28.617188 L 18.027344 26 L 19.304688 28.636719 L 22.199219 29.082031 L 20.082031 31.109375 M 20.554688 34 "/>
<path style=" stroke:none;fill-rule:nonzero;fill:rgb(29.803922%,29.803922%,29.803922%);fill-opacity:1;" d="M 36 18 C 36 21.3125 33.3125 24 30 24 C 26.6875 24 24 21.3125 24 18 C 24 14.6875 26.6875 12 30 12 C 33.3125 12 36 14.6875 36 18 M 36 18 "/>
<path style=" stroke:none;fill-rule:nonzero;fill:rgb(100%,81.176471%,21.176471%);fill-opacity:1;" d="M 32.554688 22 L 29.972656 20.617188 L 27.371094 21.957031 L 27.890625 19.074219 L 25.808594 17.015625 L 28.710938 16.617188 L 30.027344 14 L 31.304688 16.636719 L 34.199219 17.082031 L 32.082031 19.109375 M 32.554688 22 "/>
</g>
</svg>
