<!-- color: #eeeeee -->
<svg xmlns="http://www.w3.org/2000/svg" xmlns:xlink="http://www.w3.org/1999/xlink" width="48px" height="48px" viewBox="0 0 48 48" version="1.1">
<g id="surface1">
<path style=" stroke:none;fill-rule:nonzero;fill:rgb(98.431373%,92.54902%,77.647059%);fill-opacity:1;" d="M 13.359375 13.972656 L 9.78125 19.449219 C 9.457031 20.460938 9.238281 21.515625 9.132812 22.609375 L 9.867188 28.886719 C 9.960938 29.160156 10.070312 29.425781 10.179688 29.6875 L 29.796875 35.769531 L 33.882812 32.007812 L 34.265625 18.820312 L 13.359375 13.96875 M 13.359375 13.972656 "/>
<path style=" stroke:none;fill-rule:nonzero;fill:rgb(97.647059%,97.647059%,97.647059%);fill-opacity:1;" d="M 18.820312 17.320312 C 18.785156 17.976562 18.3125 18.488281 17.734375 18.488281 C 17.160156 18.488281 16.6875 17.976562 16.652344 17.320312 C 16.628906 16.859375 16.832031 16.425781 17.175781 16.1875 C 17.519531 15.949219 17.953125 15.949219 18.296875 16.1875 C 18.640625 16.425781 18.839844 16.859375 18.820312 17.320312 M 18.820312 17.320312 "/>
<path style=" stroke:none;fill-rule:nonzero;fill:rgb(34.509804%,34.509804%,34.509804%);fill-opacity:1;" d="M 17.925781 17.128906 C 17.925781 17.328125 17.765625 17.488281 17.570312 17.488281 C 17.371094 17.488281 17.214844 17.328125 17.214844 17.128906 C 17.214844 16.929688 17.371094 16.769531 17.570312 16.769531 C 17.765625 16.769531 17.925781 16.929688 17.925781 17.128906 M 17.925781 17.128906 "/>
<path style=" stroke:none;fill-rule:nonzero;fill:rgb(69.803922%,83.921569%,87.058824%);fill-opacity:1;" d="M 24 9 C 15.730469 9 9 15.753906 9 24.058594 C 9 24.3125 9.082031 24.570312 9.09375 24.816406 C 9.09375 24.824219 9.09375 24.839844 9.09375 24.839844 C 9.101562 25.078125 9.113281 25.3125 9.136719 25.550781 C 9.144531 25.632812 9.152344 25.714844 9.160156 25.796875 C 9.175781 25.957031 9.203125 26.125 9.226562 26.285156 C 9.230469 26.304688 9.246094 26.332031 9.246094 26.351562 C 9.285156 26.597656 9.332031 26.84375 9.382812 27.089844 C 9.476562 27.535156 9.589844 27.972656 9.714844 28.402344 C 9.828125 28.777344 9.953125 29.15625 10.09375 29.519531 C 10.125 29.601562 10.152344 29.6875 10.183594 29.765625 C 10.203125 29.808594 10.230469 29.851562 10.25 29.898438 C 10.421875 30.304688 10.601562 30.695312 10.808594 31.082031 C 10.976562 31.40625 11.167969 31.710938 11.363281 32.015625 C 11.421875 32.109375 11.460938 32.214844 11.519531 32.308594 C 11.71875 32.609375 11.945312 32.890625 12.164062 33.175781 C 12.230469 33.265625 12.296875 33.355469 12.363281 33.445312 C 12.625 33.773438 12.894531 34.101562 13.183594 34.40625 C 13.199219 34.425781 13.214844 34.433594 13.230469 34.453125 C 13.433594 34.664062 13.605469 34.84375 13.785156 35.015625 C 13.863281 35.089844 13.957031 35.164062 14.03125 35.238281 C 14.183594 35.378906 14.339844 35.507812 14.5 35.640625 C 15.46875 36.445312 16.421875 37.054688 17.445312 37.535156 C 17.457031 37.550781 17.484375 37.519531 17.496094 37.527344 C 17.589844 37.554688 17.667969 37.5625 17.675781 37.507812 C 17.726562 37.308594 16.777344 35.824219 17.320312 36.078125 C 18.117188 36.453125 18.355469 36.433594 17.742188 36.03125 C 16.882812 35.464844 16.097656 34.664062 15.839844 34.089844 C 15.464844 33.261719 15.109375 32.257812 15.164062 32.195312 C 15.195312 32.164062 15.511719 32.382812 15.855469 32.683594 C 16.574219 33.308594 17.796875 33.929688 18.519531 34.042969 C 18.8125 34.007812 18.761719 33.84375 18.65625 33.664062 C 17.597656 32.304688 17.046875 32.234375 23.257812 34.246094 C 26.3125 35.234375 28.828125 36.058594 28.855469 36.074219 C 28.882812 36.09375 28.742188 36.304688 28.546875 36.542969 C 28.0625 37.132812 26.589844 38.269531 25.496094 38.882812 C 25.4375 38.917969 25.398438 38.960938 25.347656 38.992188 C 25.371094 38.992188 25.40625 38.976562 25.433594 38.972656 C 25.46875 38.96875 25.507812 38.976562 25.539062 38.972656 C 25.835938 38.945312 26.121094 38.882812 26.410156 38.839844 C 26.617188 38.804688 26.824219 38.765625 27.03125 38.726562 C 27.273438 38.679688 27.511719 38.632812 27.746094 38.574219 C 27.863281 38.539062 27.980469 38.515625 28.101562 38.484375 C 28.21875 38.453125 28.339844 38.410156 28.453125 38.375 C 28.6875 38.300781 28.933594 38.210938 29.164062 38.128906 C 29.390625 38.046875 29.597656 37.953125 29.8125 37.859375 C 29.820312 37.855469 29.828125 37.863281 29.835938 37.859375 C 29.847656 37.855469 29.847656 37.84375 29.855469 37.839844 C 30.230469 37.679688 30.609375 37.515625 30.964844 37.324219 C 31.023438 37.292969 31.085938 37.269531 31.144531 37.238281 C 31.394531 37.097656 31.636719 36.964844 31.871094 36.8125 C 31.949219 36.761719 32.019531 36.707031 32.097656 36.65625 C 32.289062 36.527344 32.488281 36.410156 32.675781 36.277344 C 32.878906 36.132812 33.085938 35.980469 33.277344 35.828125 C 33.355469 35.761719 33.4375 35.695312 33.519531 35.628906 C 33.695312 35.484375 33.863281 35.332031 34.03125 35.179688 C 34.082031 35.132812 34.132812 35.074219 34.1875 35.027344 C 34.394531 34.832031 34.613281 34.632812 34.808594 34.421875 C 34.984375 34.242188 35.15625 34.058594 35.320312 33.867188 C 35.394531 33.777344 35.46875 33.691406 35.542969 33.597656 C 35.65625 33.460938 35.769531 33.3125 35.875 33.171875 C 35.957031 33.066406 36.023438 32.945312 36.101562 32.839844 C 36.246094 32.640625 36.386719 32.441406 36.523438 32.238281 C 36.5625 32.171875 36.613281 32.121094 36.65625 32.058594 C 36.828125 31.78125 36.988281 31.503906 37.144531 31.214844 C 37.167969 31.175781 37.191406 31.136719 37.210938 31.101562 C 37.417969 30.714844 37.59375 30.304688 37.769531 29.898438 C 37.851562 29.703125 37.917969 29.515625 37.992188 29.316406 C 38.003906 29.285156 38.023438 29.261719 38.039062 29.230469 C 38.148438 28.925781 38.257812 28.601562 38.351562 28.289062 C 38.394531 28.128906 38.441406 27.96875 38.484375 27.804688 C 38.542969 27.5625 38.589844 27.335938 38.640625 27.09375 C 38.679688 26.902344 38.695312 26.71875 38.730469 26.53125 C 38.738281 26.472656 38.765625 26.414062 38.773438 26.355469 C 38.816406 26.078125 38.859375 25.789062 38.886719 25.507812 C 38.929688 25.027344 39.023438 24.546875 39.023438 24.058594 C 39.023438 15.757812 32.292969 8.996094 24.023438 8.996094 M 12.898438 16.289062 C 12.9375 16.28125 12.980469 16.285156 13.03125 16.289062 C 13.105469 16.292969 13.191406 16.296875 13.300781 16.308594 C 14.445312 16.484375 14.613281 16.769531 14.613281 18.292969 C 14.613281 18.753906 14.550781 19.175781 14.460938 19.292969 C 14.308594 19.492188 14.296875 19.496094 14.105469 19.292969 C 13.996094 19.171875 13.585938 18.574219 13.175781 17.953125 C 12.449219 16.863281 12.429688 16.804688 12.617188 16.523438 C 12.714844 16.382812 12.785156 16.300781 12.90625 16.28125 M 17.726562 16.441406 C 17.800781 16.4375 17.871094 16.445312 17.949219 16.460938 C 18.171875 16.519531 18.21875 16.617188 18.21875 16.976562 C 18.21875 17.253906 18.140625 17.496094 17.992188 17.625 C 17.867188 17.734375 17.59375 17.824219 17.367188 17.824219 C 16.96875 17.824219 16.953125 17.8125 16.988281 17.246094 C 17.019531 16.773438 17.21875 16.628906 17.476562 16.507812 C 17.566406 16.46875 17.648438 16.445312 17.722656 16.441406 M 12.078125 17.644531 C 12.222656 17.644531 13.847656 19.894531 14.074219 20.410156 C 14.167969 20.613281 14.265625 20.898438 14.300781 21.058594 C 14.433594 21.710938 14.566406 21.871094 14.8125 21.636719 C 14.894531 21.558594 15.558594 22.425781 16.789062 24.183594 C 17.8125 25.632812 18.507812 26.652344 18.8125 26.882812 C 19.039062 27.050781 21.46875 25.992188 24.542969 24.832031 C 27.617188 23.667969 30.261719 22.734375 30.40625 22.757812 C 30.652344 22.792969 30.683594 22.867188 30.722656 23.757812 C 30.765625 24.90625 30.488281 26.242188 30.054688 27.078125 C 29.886719 27.414062 29.792969 27.714844 29.855469 27.769531 C 29.917969 27.828125 30.347656 27.703125 30.8125 27.480469 C 31.570312 27.117188 32.136719 26.621094 32.746094 25.808594 C 32.957031 25.527344 32.964844 25.539062 32.96875 26.078125 C 32.890625 27.285156 32.597656 28.410156 32.167969 29.535156 C 31.824219 30.839844 31.238281 32.285156 30.457031 33.753906 C 30.042969 34.519531 29.632812 35.214844 29.523438 35.316406 C 29.34375 35.46875 28.34375 35.195312 20.324219 32.640625 C 15.382812 31.0625 11.304688 29.71875 11.265625 29.671875 C 11.222656 29.628906 11.042969 29.214844 10.863281 28.738281 C 10.46875 27.652344 10.066406 25.84375 9.953125 24.523438 L 9.867188 23.523438 L 10.355469 24.035156 C 10.871094 24.585938 11.371094 24.882812 11.777344 24.882812 L 12.019531 24.882812 L 11.777344 24.414062 C 11.03125 23.007812 10.949219 20.492188 11.597656 18.660156 C 11.796875 18.101562 12.023438 17.660156 12.085938 17.660156 M 21.882812 17.933594 C 22.425781 17.933594 23.453125 18.050781 24.171875 18.179688 C 27.835938 18.832031 29.441406 19.144531 29.523438 19.226562 C 29.667969 19.371094 30.371094 21.4375 30.367188 21.707031 C 30.367188 21.910156 29.5625 22.242188 24.878906 24 C 21.859375 25.136719 19.097656 26.285156 19.019531 26.207031 C 18.59375 25.792969 15.296875 21.09375 15.484375 20.878906 C 15.59375 20.535156 15.828125 20.574219 16.171875 20.390625 C 16.460938 20.226562 16.671875 20.117188 16.816406 19.964844 C 17.847656 19.148438 18.945312 18.632812 20.148438 18.292969 C 20.78125 18 21.046875 17.933594 21.882812 17.933594 M 21.886719 17.933594 "/>
<path style=" stroke:none;fill-rule:nonzero;fill:rgb(98.431373%,85.882353%,52.54902%);fill-opacity:1;" d="M 12.585938 16.546875 C 12.34375 16.953125 12.113281 17.332031 12.011719 17.703125 C 14.132812 20.910156 16.460938 23.984375 18.765625 27.011719 C 19.734375 26.980469 26.675781 23.824219 30.617188 22.863281 C 30.570312 22.542969 30.460938 22.078125 30.355469 21.695312 L 19.003906 26.007812 M 12.585938 16.546875 "/>
<path style=" stroke:none;fill-rule:nonzero;fill:rgb(69.803922%,83.921569%,87.058824%);fill-opacity:1;" d="M 14.453125 19.296875 L 14.273438 21.007812 L 14.753906 21.691406 L 15.496094 20.828125 M 14.453125 19.296875 "/>
</g>
</svg>
