<!-- color: #6cb427 -->
<svg xmlns="http://www.w3.org/2000/svg" xmlns:xlink="http://www.w3.org/1999/xlink" width="48px" height="48px" viewBox="0 0 48 48" version="1.1">
<g id="surface1">
<path style=" stroke:none;fill-rule:nonzero;fill:rgb(97.647059%,97.647059%,97.647059%);fill-opacity:1;" d="M 18.8125 11 C 17.804688 11 16.996094 11.652344 16.996094 12.46875 L 16.996094 32.28125 C 16.996094 33.101562 17.992188 33.996094 18.996094 33.996094 L 28.996094 33.996094 C 29.996094 33.996094 30.992188 33.097656 30.992188 32.28125 L 30.992188 12.46875 C 30.992188 11.652344 30.183594 11 29.179688 11 M 18.8125 11 "/>
<path style=" stroke:none;fill-rule:nonzero;fill:rgb(97.647059%,97.647059%,97.647059%);fill-opacity:1;" d="M 19 32.9375 L 19 37.003906 L 29 37.003906 L 29 32.9375 M 20 34.003906 L 21.996094 34.003906 L 21.996094 36.003906 L 20 36.003906 M 25.996094 34.003906 L 27.996094 34.003906 L 27.996094 36.003906 L 25.996094 36.003906 M 25.996094 34.003906 "/>
<path style=" stroke:none;fill-rule:nonzero;fill:rgb(43.137255%,72.54902%,15.294118%);fill-opacity:1;" d="M 25.285156 15.703125 C 25.300781 16.070312 25.609375 16.351562 25.976562 16.339844 C 26.152344 16.335938 26.316406 16.261719 26.441406 16.132812 C 26.5625 16.003906 26.625 15.835938 26.617188 15.660156 C 26.601562 15.296875 26.292969 15.011719 25.929688 15.023438 C 25.753906 15.03125 25.589844 15.105469 25.464844 15.234375 C 25.34375 15.359375 25.28125 15.53125 25.289062 15.707031 M 25.886719 15.550781 C 25.886719 15.386719 25.976562 15.257812 26.085938 15.257812 C 26.195312 15.257812 26.28125 15.386719 26.28125 15.550781 C 26.28125 15.714844 26.191406 15.84375 26.085938 15.84375 C 25.976562 15.84375 25.886719 15.714844 25.886719 15.550781 "/>
<path style=" stroke:none;fill-rule:evenodd;fill:rgb(43.137255%,72.54902%,15.294118%);fill-opacity:1;" d="M 21.367188 23.21875 L 21.371094 23.195312 L 21.398438 23.191406 C 21.417969 23.199219 21.441406 23.214844 21.71875 23.234375 C 21.960938 23.257812 22.632812 23.289062 22.96875 22.953125 C 23.097656 22.820312 23.210938 22.632812 23.25 22.476562 C 23.410156 21.828125 23.300781 21.078125 22.46875 20.367188 C 22.039062 20 21.84375 19.816406 21.757812 19.730469 L 21.726562 19.699219 L 21.699219 19.660156 C 21.679688 19.628906 21.128906 18.433594 21.128906 18.433594 L 21.136719 18.40625 L 21.160156 18.40625 C 21.171875 18.414062 22.144531 19.167969 22.949219 19.03125 C 23.589844 18.925781 23.535156 18.417969 23.453125 17.71875 C 23.429688 17.488281 23.394531 17.230469 23.390625 16.953125 C 23.386719 16.203125 23.523438 15.390625 23.742188 14.890625 C 23.886719 14.570312 23.980469 14.363281 24.097656 14.234375 C 24.136719 14.1875 24.199219 14.164062 24.269531 14.136719 L 24.3125 14.121094 C 24.367188 14.097656 24.484375 14.070312 24.546875 14.054688 C 24.578125 14.050781 24.605469 14.050781 24.621094 14.066406 L 24.609375 14.136719 C 24.476562 14.355469 24.222656 14.902344 24.214844 15.417969 C 24.191406 16.050781 24.859375 17.332031 24.929688 17.46875 L 24.945312 17.480469 C 25.023438 17.515625 25.480469 17.710938 25.574219 17.753906 C 24.960938 16.828125 24.625 16.0625 24.574219 15.480469 C 24.515625 14.828125 24.875 14.320312 25.027344 14.101562 C 25.054688 14.058594 25.078125 14.027344 25.082031 14.015625 L 25.105469 13.996094 C 25.335938 14.03125 26.449219 14.371094 26.71875 14.632812 C 26.785156 14.699219 26.863281 14.761719 26.933594 14.878906 C 27.476562 15.808594 27.8125 18.019531 27.824219 18.121094 L 27.820312 18.140625 L 27.808594 18.148438 C 27.808594 18.148438 27.347656 18.160156 27.285156 18.160156 C 27.359375 18.390625 27.894531 20.027344 27.949219 21.566406 C 28.003906 22.867188 28.171875 24.769531 26.605469 27.285156 L 26.558594 27.363281 C 25.816406 28.546875 24.898438 29.363281 23.832031 29.796875 C 23.492188 29.929688 22.734375 30.109375 22.019531 29.933594 C 21.710938 29.855469 21.398438 29.714844 21.117188 29.519531 C 20.484375 29.078125 20.066406 28.351562 20 27.558594 C 19.894531 26.441406 20.398438 25.597656 21.347656 25.296875 C 22 25.089844 22.960938 25.296875 23.449219 26.089844 C 23.847656 26.734375 23.761719 27.425781 23.488281 27.824219 C 23.257812 28.179688 22.894531 28.371094 22.496094 28.367188 C 21.789062 28.359375 21.414062 27.757812 21.414062 27.324219 C 21.414062 27.195312 21.4375 27.070312 21.484375 26.929688 C 21.496094 26.878906 21.519531 26.828125 21.550781 26.777344 L 21.5625 26.757812 L 21.566406 26.746094 L 21.5625 26.753906 C 21.632812 26.648438 21.742188 26.59375 21.863281 26.59375 C 21.894531 26.59375 21.929688 26.597656 21.964844 26.605469 C 22.140625 26.65625 22.253906 26.832031 22.21875 27.015625 L 22.214844 27.035156 L 22.199219 27.066406 L 22.179688 27.117188 C 22.15625 27.21875 22.152344 27.289062 22.152344 27.308594 C 22.15625 27.359375 22.230469 27.609375 22.507812 27.609375 L 22.511719 27.609375 C 22.609375 27.609375 22.683594 27.570312 22.722656 27.546875 C 22.847656 27.46875 22.96875 27.253906 22.9375 26.96875 C 22.90625 26.59375 22.710938 26.320312 22.34375 26.140625 C 22.003906 25.972656 21.582031 26.015625 21.273438 26.253906 C 20.96875 26.480469 20.835938 26.902344 20.898438 27.453125 C 20.964844 28.015625 21.285156 28.484375 21.789062 28.753906 C 22.285156 29.011719 22.871094 29.023438 23.320312 28.785156 C 24.398438 28.222656 24.386719 27.148438 24.285156 26.5625 C 24.136719 25.695312 23.324219 24.710938 22.394531 24.355469 C 22.246094 24.300781 22.128906 24.269531 22.019531 24.246094 L 21.859375 24.210938 L 21.378906 23.230469 L 21.367188 23.214844 M 26.628906 16.328125 C 26.449219 16.515625 26.21875 16.617188 25.960938 16.628906 C 25.4375 16.644531 24.992188 16.234375 24.972656 15.71875 C 24.964844 15.464844 25.054688 15.226562 25.226562 15.035156 C 25.402344 14.851562 25.640625 14.742188 25.890625 14.734375 C 26.410156 14.714844 26.859375 15.121094 26.878906 15.648438 C 26.886719 15.898438 26.796875 16.140625 26.621094 16.324219 "/>
</g>
</svg>
