<!-- color: #f78c46 -->
<svg xmlns="http://www.w3.org/2000/svg" xmlns:xlink="http://www.w3.org/1999/xlink" width="48px" height="48px" viewBox="0 0 48 48" version="1.1">
<g id="surface1">
<path style=" stroke:none;fill-rule:nonzero;fill:rgb(100%,100%,100%);fill-opacity:1;" d="M 18.6875 35.496094 C 17.988281 35.238281 16.503906 35.058594 15.386719 35.097656 C 14.269531 35.136719 13.070312 35.148438 12.71875 35.125 C 11.585938 35.046875 12.050781 34.222656 13.480469 33.769531 L 14.878906 33.328125 L 13.324219 33 C 12.136719 32.75 11.613281 32.269531 11.109375 30.972656 C 10.359375 29.035156 10.578125 28.773438 13.609375 27.972656 C 15.171875 27.5625 15.488281 27.207031 16.230469 25.011719 L 17.074219 22.515625 L 15.40625 20.621094 C 14.488281 19.578125 12.910156 17.882812 11.894531 16.851562 C 9.6875 14.609375 9.347656 12.367188 11.195312 12.246094 C 11.824219 12.207031 13.367188 12.105469 14.625 12.027344 C 16.28125 11.917969 17.289062 12.132812 18.285156 12.808594 C 19.039062 13.324219 19.90625 13.742188 20.203125 13.742188 C 20.765625 13.742188 26.472656 15.832031 27.84375 16.539062 C 28.269531 16.761719 29.414062 17.101562 30.378906 17.296875 C 31.347656 17.488281 32.371094 17.816406 32.648438 18.019531 C 32.929688 18.226562 33.726562 18.46875 34.425781 18.558594 C 35.453125 18.691406 35.699219 18.996094 35.71875 20.144531 C 35.738281 21.347656 35.941406 21.566406 37.03125 21.566406 C 38.578125 21.566406 40.015625 22.566406 40 23.640625 C 39.980469 24.988281 38.121094 28.3125 36.5 29.898438 C 35.636719 30.738281 34.933594 31.910156 34.933594 32.484375 C 34.933594 33.066406 34.605469 33.800781 34.207031 34.105469 C 33.625 34.554688 33.367188 34.472656 32.921875 33.691406 C 32.265625 32.546875 31.023438 32.453125 29.632812 33.4375 C 28.527344 34.21875 26.808594 34.371094 26.808594 33.6875 C 26.808594 33.441406 27.039062 33.109375 27.316406 32.949219 C 27.597656 32.785156 27.839844 32.1875 27.839844 31.617188 C 27.847656 30.996094 28.542969 30.097656 29.566406 29.390625 C 30.507812 28.738281 31.175781 28.046875 31.046875 27.851562 C 30.621094 27.203125 28.839844 27.480469 28.839844 28.195312 C 28.839844 29.148438 21.664062 36.035156 20.714844 36.007812 C 20.296875 35.984375 19.386719 35.765625 18.6875 35.496094 M 20.71875 33.894531 C 20.71875 33.503906 20.273438 33.183594 19.730469 33.183594 C 19.191406 33.183594 18.628906 33 18.476562 32.773438 C 18.324219 32.546875 17.605469 32.46875 16.875 32.601562 C 15.90625 32.773438 15.730469 32.949219 16.226562 33.242188 C 16.601562 33.472656 16.679688 33.664062 16.402344 33.683594 C 15.402344 33.765625 17.953125 34.542969 19.320312 34.574219 C 20.238281 34.597656 20.71875 34.363281 20.71875 33.894531 M 32.257812 30.722656 C 32.304688 30.171875 32.074219 30.011719 31.515625 30.210938 C 30.957031 30.410156 30.824219 30.320312 31.09375 29.910156 C 31.394531 29.460938 31.242188 29.464844 30.4375 29.933594 C 29.75 30.332031 29.585938 30.65625 29.960938 30.871094 C 30.328125 31.085938 30.007812 31.628906 29.054688 32.40625 L 27.574219 33.609375 L 29.886719 32.566406 C 31.175781 31.984375 32.222656 31.171875 32.261719 30.722656 M 33.71875 31.882812 C 33.171875 31.375 32.882812 32.085938 33.265625 33 C 33.621094 33.851562 33.652344 33.855469 33.828125 33.027344 C 33.929688 32.550781 33.882812 32.035156 33.71875 31.882812 M 24.019531 30.933594 C 25.40625 29.695312 26.828125 28.742188 27.1875 28.820312 C 28.609375 29.125 27.695312 26.832031 25.066406 23.515625 C 22.523438 20.304688 22.359375 19.953125 23.066406 19.136719 C 23.792969 18.289062 23.8125 18.300781 23.503906 19.347656 C 23.0625 20.828125 24.554688 22.429688 25.792969 21.8125 C 26.355469 21.53125 26.863281 21.558594 27.21875 21.890625 C 27.535156 22.183594 28.164062 22.246094 28.691406 22.035156 C 29.199219 21.832031 30.222656 21.710938 30.964844 21.765625 C 31.773438 21.828125 32.503906 21.554688 32.777344 21.101562 C 33.175781 20.441406 33.3125 20.492188 33.789062 21.46875 C 34.277344 22.46875 34.175781 22.695312 32.886719 23.40625 C 31.617188 24.101562 31.46875 24.40625 31.738281 25.734375 C 32.492188 29.460938 34.210938 30.230469 36.546875 27.898438 C 39.085938 25.355469 39.898438 22.277344 38.023438 22.277344 C 37.484375 22.277344 36.878906 22.519531 36.683594 22.816406 C 36.078125 23.722656 34.445312 21.261719 34.785156 19.972656 C 35.039062 19.019531 34.933594 18.898438 34.070312 19.152344 C 33.449219 19.339844 32.808594 19.175781 32.414062 18.734375 C 32.0625 18.335938 31.21875 18.011719 30.519531 18.011719 C 29.828125 18.011719 28.65625 17.710938 27.914062 17.34375 C 25.394531 16.097656 20.15625 14.21875 19.210938 14.21875 C 18.6875 14.21875 18.320312 14.773438 17.9375 15.164062 C 16.816406 16.3125 14.226562 15.734375 14.777344 13.777344 C 14.925781 13.261719 14.742188 12.75 14.371094 12.617188 C 13.558594 12.328125 10.785156 12.980469 10.960938 13.421875 C 11.027344 13.597656 11.089844 13.9375 11.089844 14.175781 C 11.089844 14.921875 18.859375 18.28125 19.089844 17.636719 C 19.339844 16.9375 20.734375 16.867188 20.734375 17.554688 C 20.734375 17.824219 20.355469 18.582031 19.894531 19.238281 C 18.953125 20.578125 18.777344 20.25 22.941406 24.839844 L 24.894531 26.996094 L 22.8125 29.90625 C 21.664062 31.507812 20.730469 32.898438 20.730469 33 C 20.730469 33.59375 21.808594 32.917969 24.027344 30.929688 M 21.878906 29.996094 C 23.542969 27.582031 23.675781 27.175781 23.070312 26.320312 C 22.117188 24.976562 20.980469 24.894531 19.714844 26.074219 C 18.960938 26.777344 18.683594 27.542969 18.792969 28.59375 C 18.894531 29.511719 18.726562 30.101562 18.363281 30.101562 C 18.039062 30.101562 17.609375 30.253906 17.414062 30.433594 C 17.21875 30.617188 16.421875 30.648438 15.644531 30.503906 C 14.867188 30.359375 13.84375 30.445312 13.367188 30.695312 C 12.65625 31.066406 12.875 31.234375 14.585938 31.640625 C 15.753906 31.917969 16.671875 31.949219 16.671875 31.710938 C 16.671875 31.03125 18.011719 31.222656 18.703125 32 C 19.050781 32.390625 19.484375 32.710938 19.671875 32.710938 C 19.855469 32.710938 20.847656 31.488281 21.878906 29.996094 M 17.023438 29.242188 C 17.3125 29.078125 17.441406 28.402344 17.308594 27.75 C 17.171875 27.09375 17.429688 25.703125 17.878906 24.65625 C 18.328125 23.609375 18.5 22.753906 18.261719 22.753906 C 18.019531 22.753906 17.441406 23.898438 16.96875 25.296875 C 16.367188 27.085938 15.746094 27.992188 14.871094 28.367188 C 14.183594 28.660156 13.625 29.0625 13.625 29.261719 C 13.625 29.695312 16.265625 29.683594 17.023438 29.242188 M 17.773438 13.261719 C 17.394531 12.5625 16.125 12.296875 15.570312 12.988281 C 14.871094 13.851562 15.019531 14.835938 16.382812 15.070312 C 17.351562 15.234375 18.304688 14.238281 17.773438 13.257812 M 17.773438 13.261719 "/>
<path style=" stroke:none;fill-rule:nonzero;fill:rgb(100%,100%,100%);fill-opacity:0.941176;" d="M 16.960938 13.820312 C 16.960938 14.082031 16.746094 14.296875 16.484375 14.296875 C 16.21875 14.296875 16.003906 14.082031 16.003906 13.820312 C 16.003906 13.554688 16.21875 13.339844 16.484375 13.339844 C 16.746094 13.339844 16.960938 13.554688 16.960938 13.820312 M 16.960938 13.820312 "/>
</g>
</svg>
