<!-- color: #266597 -->
<svg xmlns="http://www.w3.org/2000/svg" xmlns:xlink="http://www.w3.org/1999/xlink" width="48px" height="48px" viewBox="0 0 48 48" version="1.1">
<g id="surface1">
<path style=" stroke:none;fill-rule:nonzero;fill:rgb(97.647059%,97.647059%,97.647059%);fill-opacity:1;" d="M 31.941406 18.308594 C 31.296875 18.460938 30.691406 18.769531 30.160156 19.152344 C 29.289062 20.34375 28.082031 21.304688 26.476562 21.683594 C 25.867188 21.238281 25.125 20.722656 24.617188 20.136719 C 22.292969 20.402344 19.09375 20.917969 18.542969 23.15625 C 17.96875 25.480469 19.492188 28.515625 20.730469 28.691406 C 21.90625 28.855469 25.6875 27.804688 27.515625 27.3125 C 25.984375 26.117188 24.222656 25.59375 23.261719 25.53125 C 22.128906 25.441406 21.152344 25.644531 20.136719 25.90625 C 21.621094 24.949219 22.964844 24.234375 24.292969 23.96875 C 25.289062 23.78125 26.835938 23.773438 28.695312 24.46875 C 31 25.332031 31.550781 26.5625 33.167969 27.117188 C 34.238281 26.949219 33.695312 25.761719 33.472656 24.9375 C 33.324219 24.488281 33.207031 24.148438 33.160156 24 C 33.078125 23.75 31.921875 20.792969 31.753906 20.03125 C 31.640625 19.511719 31.738281 18.835938 31.941406 18.308594 M 31.941406 18.308594 "/>
<path style=" stroke:none;fill-rule:nonzero;fill:rgb(97.647059%,97.647059%,97.647059%);fill-opacity:1;" d="M 26.359375 13.65625 C 24.746094 14.335938 24.691406 15.621094 24.601562 17.015625 C 25.277344 16.402344 27.402344 15.953125 27.976562 15.457031 C 29.671875 13.988281 30.328125 10.953125 29.972656 11.402344 C 28.820312 12.859375 26.953125 13.328125 26.359375 13.65625 M 26.359375 13.65625 "/>
<path style=" stroke:none;fill-rule:nonzero;fill:rgb(97.647059%,97.647059%,97.647059%);fill-opacity:1;" d="M 17.476562 34.050781 C 17.476562 34.050781 15.875 32.988281 15.90625 32.648438 C 16.957031 26.949219 13.332031 31.003906 13.058594 33.554688 C 12.769531 36.003906 13.671875 38.828125 13.804688 39 C 14.019531 37 14.210938 35.890625 17.476562 34.046875 M 17.476562 34.050781 "/>
<path style=" stroke:none;fill-rule:nonzero;fill:rgb(97.647059%,97.647059%,97.647059%);fill-opacity:1;" d="M 34.988281 21.492188 C 34.90625 19.371094 33.574219 17.90625 32.667969 18.25 C 32.28125 18.394531 32.027344 19.382812 32.160156 19.996094 C 32.605469 22.175781 34.4375 24.695312 33.984375 26.851562 C 33.644531 27.882812 30.636719 28.523438 30.636719 28.523438 C 30.636719 28.523438 30.578125 29.40625 30.464844 30.007812 C 30.328125 30.738281 30.050781 31.316406 30.050781 31.316406 C 30.050781 31.316406 30.765625 31.957031 30.792969 31.957031 C 30.824219 31.957031 35.292969 29.636719 34.988281 21.492188 M 34.988281 21.492188 "/>
<path style=" stroke:none;fill-rule:nonzero;fill:rgb(97.647059%,97.647059%,97.647059%);fill-opacity:1;" d="M 33 27.332031 C 32.257812 27.03125 32 26.902344 31.03125 26.183594 C 25.675781 22.183594 20.746094 25.648438 20.84375 25.613281 C 21.730469 25.332031 22.734375 25.078125 24.035156 25.160156 C 25.085938 25.230469 26.484375 25.894531 28.210938 27.328125 C 29.371094 28.347656 31.128906 28.476562 32.996094 27.332031 M 33 27.332031 "/>
<path style=" stroke:none;fill-rule:nonzero;fill:rgb(97.647059%,97.647059%,97.647059%);fill-opacity:1;" d="M 27.972656 15.902344 C 25.992188 16.539062 24.921875 17.085938 24.601562 17.339844 C 23.945312 19.011719 25.269531 20.269531 26.476562 21.152344 C 28.0625 20.777344 29.382812 19.601562 29.972656 18.308594 C 29.664062 18.351562 29.335938 18.292969 28.972656 18.089844 C 28.265625 17.691406 27.835938 16.734375 27.972656 15.902344 M 27.972656 15.902344 "/>
<path style=" stroke:none;fill-rule:nonzero;fill:rgb(97.647059%,97.647059%,97.647059%);fill-opacity:1;" d="M 30.855469 15.585938 C 30.726562 15.078125 30.3125 14.425781 30.199219 14.425781 C 30.097656 14.425781 28.996094 15.246094 28.710938 15.527344 C 28.066406 16.171875 28.378906 17.347656 29.09375 17.746094 C 30.304688 18.425781 31.199219 16.933594 30.855469 15.585938 M 30.855469 15.585938 "/>
<path style=" stroke:none;fill-rule:nonzero;fill:rgb(97.647059%,97.647059%,97.647059%);fill-opacity:1;" d="M 29.914062 13.867188 C 30.398438 13.402344 31.042969 12.640625 31.210938 11.480469 C 31.308594 10.441406 31.054688 9.800781 30.742188 9.003906 C 30.589844 10.558594 30.363281 12.289062 29.304688 14.125 C 28.972656 14.703125 29.152344 14.597656 29.914062 13.867188 M 29.914062 13.867188 "/>
<path style=" stroke:none;fill-rule:nonzero;fill:rgb(97.647059%,97.647059%,97.647059%);fill-opacity:1;" d="M 16.328125 29.96875 C 16.496094 30.390625 16.484375 31.191406 16.234375 32.5625 C 16.230469 32.574219 16.234375 32.582031 16.234375 32.59375 C 16.410156 32.839844 16.773438 33.136719 17.136719 33.40625 C 18.386719 32.824219 19.957031 31.734375 19.855469 31.71875 C 19.1875 31.605469 17.121094 31.101562 16.328125 29.96875 M 16.328125 29.96875 "/>
<path style=" stroke:none;fill-rule:nonzero;fill:rgb(97.647059%,97.647059%,97.647059%);fill-opacity:1;" d="M 27.753906 27.527344 C 27.699219 27.527344 27.65625 27.527344 27.535156 27.558594 C 25.980469 27.992188 22.007812 29.007812 21.386719 29.683594 C 21.144531 30.199219 20.90625 32.257812 17.417969 33.5625 C 17.320312 33.597656 20.347656 35.554688 20.511719 35.5625 C 30.394531 35.976562 30.382812 28.886719 30.253906 28.5625 C 29.292969 28.578125 28.476562 28.242188 27.847656 27.625 C 27.816406 27.59375 27.789062 27.5625 27.753906 27.53125 M 27.753906 27.53125 "/>
</g>
</svg>
