<!-- color: #5a7fba -->
<svg xmlns="http://www.w3.org/2000/svg" xmlns:xlink="http://www.w3.org/1999/xlink" width="48px" height="48px" viewBox="0 0 48 48" version="1.1">
<g id="surface1">
<path style=" stroke:none;fill-rule:nonzero;fill:rgb(97.647059%,97.647059%,97.647059%);fill-opacity:1;" d="M 24 12 C 17.371094 12 12 17.1875 12 23.585938 C 12 27.445312 13.96875 30.84375 16.96875 32.949219 C 16.859375 33.390625 16.722656 33.859375 16.5 34.34375 C 15.75 36 15.003906 36 15.003906 36 C 15.003906 36 17.253906 36 18.75 35.171875 C 19.066406 34.996094 19.347656 34.710938 19.59375 34.371094 C 20.960938 34.890625 22.445312 35.171875 24.003906 35.171875 C 30.628906 35.171875 36.003906 29.984375 36.003906 23.585938 C 36.003906 17.183594 30.632812 11.996094 24.003906 11.996094 M 24.003906 12 "/>
<path style=" stroke:none;fill-rule:nonzero;fill:rgb(35.294118%,49.803922%,72.54902%);fill-opacity:1;" d="M 29 27.070312 L 26.171875 27.070312 L 25.382812 31.003906 L 23.996094 31.003906 L 24.800781 27.070312 L 21.917969 27.070312 L 21.132812 31.003906 L 19.742188 31.003906 L 20.558594 27.070312 L 19.003906 27.070312 L 19.003906 25.703125 L 20.8125 25.703125 L 21.507812 22.339844 L 19.003906 22.339844 L 19.003906 20.972656 L 21.773438 20.972656 L 22.578125 17 L 23.941406 17 L 23.15625 20.972656 L 26.027344 20.972656 L 26.832031 17 L 28.199219 17 L 27.410156 20.972656 L 29.003906 20.972656 L 29.003906 22.339844 L 27.128906 22.339844 L 26.460938 25.703125 L 29.003906 25.703125 M 25.761719 22.34375 L 22.867188 22.34375 L 22.203125 25.707031 L 25.066406 25.707031 M 25.761719 22.34375 "/>
</g>
</svg>
