<!-- color: #d95555 -->
<svg xmlns="http://www.w3.org/2000/svg" xmlns:xlink="http://www.w3.org/1999/xlink" width="48px" height="48px" viewBox="0 0 48 48" version="1.1">
<g id="surface1">
<path style=" stroke:none;fill-rule:nonzero;fill:rgb(86.27451%,86.27451%,86.27451%);fill-opacity:1;" d="M 26.070312 13.03125 C 25.617188 12.90625 25.144531 13.183594 25.023438 13.640625 L 20.535156 31.035156 C 20.417969 31.492188 20.691406 31.980469 21.144531 32.105469 L 31.433594 34.96875 C 31.886719 35.09375 32.359375 34.816406 32.480469 34.355469 L 36.96875 16.960938 C 37.085938 16.496094 36.8125 16.015625 36.359375 15.890625 M 26.070312 13.027344 "/>
<path style=" stroke:none;fill-rule:nonzero;fill:rgb(87.058824%,43.921569%,43.921569%);fill-opacity:1;" d="M 29.742188 20.179688 L 26 23.226562 L 27.769531 27.808594 L 31.511719 24.765625 M 29.742188 20.179688 "/>
<path style=" stroke:none;fill-rule:nonzero;fill:rgb(97.647059%,97.647059%,97.647059%);fill-opacity:1;" d="M 11.710938 15.535156 C 11.25 15.621094 10.933594 16.082031 11.011719 16.546875 L 14.023438 34.285156 C 14.105469 34.753906 14.550781 35.070312 15.015625 34.988281 L 25.503906 33.066406 C 25.964844 32.984375 26.273438 32.523438 26.195312 32.054688 L 23.1875 14.320312 C 23.105469 13.851562 22.660156 13.53125 22.199219 13.617188 M 11.707031 15.535156 "/>
<path style=" stroke:none;fill-rule:nonzero;fill:rgb(83.137255%,24.313725%,24.313725%);fill-opacity:1;" d="M 19.710938 21.101562 C 19.378906 21.1875 19.035156 21.382812 18.773438 21.566406 C 18.527344 21.738281 18.28125 22.363281 18.28125 22.363281 C 18.28125 22.363281 17.84375 21.867188 17.550781 21.789062 C 16.914062 21.691406 16.199219 21.542969 15.695312 22.128906 C 15.226562 22.890625 15.707031 24.09375 16.164062 24.890625 C 16.816406 26.015625 19.105469 27.21875 19.105469 27.21875 C 19.105469 27.21875 20.859375 25.273438 21.097656 23.988281 C 21.269531 23.074219 21.320312 21.773438 20.628906 21.226562 C 20.367188 21.023438 20.046875 21.011719 19.710938 21.101562 M 19.710938 21.101562 "/>
</g>
</svg>
