<!-- color: #d5b47c -->
<svg xmlns="http://www.w3.org/2000/svg" xmlns:xlink="http://www.w3.org/1999/xlink" width="48px" height="48px" viewBox="0 0 48 48" version="1.1">
<g id="surface1">
<path style=" stroke:none;fill-rule:nonzero;fill:rgb(21.568627%,70.196078%,29.411765%);fill-opacity:1;" d="M 23.953125 34.171875 L 20.917969 31.574219 C 19.355469 31.046875 18.351562 32.730469 18.820312 34.007812 C 19.667969 36.277344 23.269531 36.402344 23.953125 34.171875 M 23.953125 34.171875 "/>
<path style=" stroke:none;fill-rule:nonzero;fill:rgb(85.882353%,12.156863%,15.294118%);fill-opacity:1;" d="M 21.9375 18.636719 L 22.976562 18.636719 L 25.566406 17.148438 C 25.171875 12.21875 20.609375 14.285156 21.9375 18.636719 M 21.9375 18.636719 "/>
<path style=" stroke:none;fill-rule:nonzero;fill:rgb(15.294118%,32.54902%,63.921569%);fill-opacity:1;" d="M 12.453125 24.503906 C 12.792969 28.617188 18.082031 27.558594 18.695312 24.03125 C 18.941406 22.597656 17.472656 20.195312 15.707031 21.234375 M 12.453125 24.503906 "/>
<path style=" stroke:none;fill-rule:nonzero;fill:rgb(97.254902%,87.058824%,27.058824%);fill-opacity:1;" d="M 35.992188 21.613281 L 30.960938 17.324219 C 28.367188 16.433594 26.707031 19.242188 27.484375 21.34375 C 28.882812 25.113281 34.859375 25.316406 35.988281 21.613281 M 35.988281 21.613281 "/>
<path style=" stroke:none;fill-rule:nonzero;fill:rgb(95.686275%,69.803922%,10.588235%);fill-opacity:1;" d="M 12.078125 36 C 15.996094 35.003906 17.273438 33.875 16.925781 31.214844 C 14.179688 30.976562 13.609375 32.140625 11.996094 35.292969 L 12.980469 34.515625 M 12.078125 36 "/>
<path style=" stroke:none;fill-rule:nonzero;fill:rgb(32.941176%,23.529412%,21.568627%);fill-opacity:1;" d="M 16.925781 31.328125 C 21.8125 32.179688 33.964844 15.664062 35.996094 12.007812 C 32.140625 13.984375 15.847656 26.613281 16.925781 31.328125 M 16.925781 31.328125 "/>
<path style=" stroke:none;fill-rule:nonzero;fill:rgb(97.647059%,97.647059%,97.647059%);fill-opacity:1;" d="M 16.925781 31.328125 C 18.246094 31.558594 20.097656 30.476562 22.136719 28.765625 L 19.316406 26.128906 C 17.65625 28.195312 16.640625 30.050781 16.925781 31.328125 M 16.925781 31.328125 "/>
<path style=" stroke:none;fill-rule:nonzero;fill:rgb(20.784314%,20.784314%,20.784314%);fill-opacity:1;" d="M 33.011719 30.566406 C 32.113281 29.027344 30.800781 28.164062 28.851562 28.351562 C 26.230469 29.28125 28.660156 31.546875 28.425781 32.089844 C 29.445312 34.859375 33.402344 31.988281 33.011719 30.566406 M 33.011719 30.566406 "/>
</g>
</svg>
