<!-- color: #48a62a -->
<svg xmlns="http://www.w3.org/2000/svg" xmlns:xlink="http://www.w3.org/1999/xlink" width="48px" height="48px" viewBox="0 0 48 48" version="1.1">
<g id="surface1">
<path style=" stroke:none;fill-rule:nonzero;fill:rgb(89.411765%,92.156863%,92.54902%);fill-opacity:1;" d="M 19.3125 16.210938 L 23.117188 12.328125 C 23.5625 11.875 24.300781 11.894531 24.773438 12.371094 L 31.082031 18.757812 C 31.550781 19.234375 31.570312 19.988281 31.125 20.441406 L 27.320312 24.320312 C 26.875 24.777344 26.136719 24.757812 25.664062 24.28125 L 19.355469 17.894531 C 18.886719 17.417969 18.867188 16.664062 19.3125 16.210938 M 19.3125 16.210938 "/>
<path style=" stroke:none;fill-rule:nonzero;fill:rgb(89.411765%,92.156863%,92.54902%);fill-opacity:1;" d="M 17.449219 28.972656 L 20.632812 25.746094 C 21.007812 25.367188 21.628906 25.378906 22.023438 25.777344 L 27.308594 31.097656 C 27.703125 31.492188 27.71875 32.117188 27.34375 32.496094 L 24.160156 35.722656 C 23.789062 36.101562 23.167969 36.089844 22.773438 35.691406 L 17.484375 30.375 C 17.09375 29.976562 17.078125 29.351562 17.449219 28.972656 M 17.449219 28.972656 "/>
<path style=" stroke:none;fill-rule:nonzero;fill:rgb(89.411765%,92.156863%,92.54902%);fill-opacity:1;" d="M 17.359375 19.160156 L 19.84375 21.667969 C 20.136719 21.960938 20.128906 22.453125 19.824219 22.765625 L 15.773438 26.96875 C 15.472656 27.285156 14.992188 27.300781 14.699219 27.007812 L 12.214844 24.5 C 11.921875 24.207031 11.929688 23.714844 12.234375 23.402344 L 16.285156 19.195312 C 16.585938 18.882812 17.066406 18.867188 17.359375 19.160156 M 17.359375 19.160156 "/>
<path style=" stroke:none;fill-rule:nonzero;fill:rgb(89.411765%,92.156863%,92.54902%);fill-opacity:1;" d="M 33.871094 21.597656 L 35.710938 23.4375 C 36.054688 23.78125 36.097656 24.304688 35.804688 24.609375 L 30 30.621094 C 29.707031 30.921875 29.191406 30.890625 28.84375 30.546875 L 27.003906 28.707031 C 26.660156 28.363281 26.617188 27.839844 26.910156 27.535156 L 32.714844 21.523438 C 33.007812 21.222656 33.523438 21.253906 33.871094 21.597656 M 33.871094 21.597656 "/>
</g>
</svg>
