<!-- color: #40acc1 -->
<svg xmlns="http://www.w3.org/2000/svg" xmlns:xlink="http://www.w3.org/1999/xlink" width="48px" height="48px" viewBox="0 0 48 48" version="1.1">
<g id="surface1">
<path style=" stroke:none;fill-rule:nonzero;fill:rgb(92.54902%,94.901961%,94.901961%);fill-opacity:1;" d="M 14.78125 11 C 13.800781 11 13 11.800781 13 12.78125 L 13 35.21875 C 13 36.199219 13.800781 37 14.78125 37 L 35.21875 37 C 36.203125 37 37.003906 36.199219 37.003906 35.21875 L 37.003906 16.996094 L 31.003906 11 M 14.78125 11 "/>
<path style=" stroke:none;fill-rule:nonzero;fill:rgb(0%,0%,0%);fill-opacity:0.2;" d="M 37 17 L 31 17 L 37 23 M 37 17 "/>
<path style=" stroke:none;fill-rule:nonzero;fill:rgb(35.686275%,63.921569%,92.54902%);fill-opacity:1;" d="M 16.355469 14 L 31.648438 14 C 31.84375 14 32.003906 14.160156 32.003906 14.355469 L 32.003906 15.644531 C 32.003906 15.839844 31.84375 15.996094 31.648438 15.996094 L 16.355469 15.996094 C 16.160156 15.996094 16 15.839844 16 15.644531 L 16 14.355469 C 16 14.160156 16.160156 14 16.355469 14 M 16.355469 14 "/>
<path style=" stroke:none;fill-rule:nonzero;fill:rgb(100%,100%,100%);fill-opacity:1;" d="M 37 17 L 31 17 L 31 11.003906 M 37 17 "/>
<path style=" stroke:none;fill-rule:nonzero;fill:rgb(35.686275%,63.921569%,92.54902%);fill-opacity:1;" d="M 16.355469 20 L 31.648438 20 C 31.84375 20 32.003906 20.15625 32.003906 20.351562 L 32.003906 21.640625 C 32.003906 21.839844 31.84375 21.996094 31.648438 21.996094 L 16.355469 21.996094 C 16.160156 21.996094 16 21.839844 16 21.640625 L 16 20.351562 C 16 20.15625 16.160156 20 16.355469 20 M 16.355469 20 "/>
<path style=" stroke:none;fill-rule:nonzero;fill:rgb(35.686275%,63.921569%,92.54902%);fill-opacity:1;" d="M 16.355469 26 L 31.648438 26 C 31.84375 26 32.003906 26.160156 32.003906 26.355469 L 32.003906 27.644531 C 32.003906 27.839844 31.84375 28 31.648438 28 L 16.355469 28 C 16.160156 28 16 27.839844 16 27.644531 L 16 26.355469 C 16 26.160156 16.160156 26 16.355469 26 M 16.355469 26 "/>
<path style=" stroke:none;fill-rule:nonzero;fill:rgb(35.686275%,63.921569%,92.54902%);fill-opacity:1;" d="M 16.355469 31.996094 L 31.648438 31.996094 C 31.84375 31.996094 32.003906 32.15625 32.003906 32.351562 L 32.003906 33.640625 C 32.003906 33.835938 31.84375 33.996094 31.648438 33.996094 L 16.355469 33.996094 C 16.160156 33.996094 16 33.835938 16 33.640625 L 16 32.351562 C 16 32.15625 16.160156 31.996094 16.355469 31.996094 M 16.355469 31.996094 "/>
</g>
</svg>
