<!-- color: #b9e85a -->
<svg xmlns="http://www.w3.org/2000/svg" xmlns:xlink="http://www.w3.org/1999/xlink" width="48px" height="48px" viewBox="0 0 48 48" version="1.1">
<g id="surface1">
<path style=" stroke:none;fill-rule:nonzero;fill:rgb(74.509804%,23.921569%,15.294118%);fill-opacity:1;" d="M 25.019531 10 L 25.019531 13.226562 C 25.019531 14.207031 24.574219 15 24.019531 15 C 23.46875 15 23.019531 14.207031 23.019531 13.226562 L 23.019531 10 M 25.019531 10 "/>
<path style=" stroke:none;fill-rule:nonzero;fill:rgb(74.509804%,23.921569%,15.294118%);fill-opacity:1;" d="M 25 10 C 25 10.550781 24.550781 11 24 11 C 23.449219 11 23 10.550781 23 10 C 23 9.449219 23.449219 9 24 9 C 24.550781 9 25 9.449219 25 10 M 25 10 "/>
<path style=" stroke:none;fill-rule:nonzero;fill:rgb(92.156863%,92.941176%,94.509804%);fill-opacity:1;" d="M 22 22 L 13 39 L 19.5 19.003906 M 22 22 "/>
<path style=" stroke:none;fill-rule:nonzero;fill:rgb(92.156863%,92.941176%,94.509804%);fill-opacity:1;" d="M 26 22 L 35 39 L 28.503906 19.003906 M 26 22 "/>
<path style=" stroke:none;fill-rule:nonzero;fill:rgb(74.509804%,23.921569%,15.294118%);fill-opacity:1;" d="M 24 13 C 21.238281 13 19 15.238281 19 18 C 19 20.761719 21.238281 23 24 23 C 26.757812 23 29 20.761719 29 18 C 29 15.238281 26.757812 13 24 13 M 24 15 C 25.65625 15 27 16.339844 27 18 C 27 19.660156 25.65625 21 24 21 C 22.339844 21 21 19.660156 21 18 C 21 16.339844 22.34375 15 24 15 M 24 15 "/>
</g>
</svg>
