<!-- color: #474747 -->
<svg xmlns="http://www.w3.org/2000/svg" xmlns:xlink="http://www.w3.org/1999/xlink" width="48px" height="48px" viewBox="0 0 48 48" version="1.1">
<g id="surface1">
<path style=" stroke:none;fill-rule:nonzero;fill:rgb(55.686275%,84.313725%,0%);fill-opacity:1;" d="M 24 11 C 16.820312 11 11 16.8125 11 23.996094 C 11 31.175781 16.820312 36.996094 24 36.996094 C 31.175781 36.996094 37 31.171875 37 23.996094 C 37 16.8125 31.175781 11 24 11 M 24 14.121094 C 29.457031 14.121094 33.878906 18.539062 33.878906 23.996094 C 33.878906 29.453125 29.457031 33.886719 24 33.886719 C 18.542969 33.886719 14.121094 29.457031 14.121094 23.996094 C 14.121094 18.539062 18.542969 14.121094 24 14.121094 M 24 14.121094 "/>
<path style=" stroke:none;fill-rule:nonzero;fill:rgb(97.647059%,97.647059%,97.647059%);fill-opacity:1;" d="M 11.339844 21 C 10.902344 23 10.871094 25.125 11.339844 27 L 17.253906 27 L 17.253906 26 L 36.871094 25.988281 C 37.046875 24.65625 37.023438 23.332031 36.886719 22 L 17.257812 22 L 17.257812 21 M 11.339844 21 "/>
<path style=" stroke:none;fill-rule:nonzero;fill:rgb(55.686275%,84.313725%,0%);fill-opacity:1;" d="M 33.847656 11 L 37.003906 11 L 37.003906 14.15625 L 33.847656 14.15625 M 33.847656 11 "/>
<path style=" stroke:none;fill-rule:nonzero;fill:rgb(55.686275%,84.313725%,0%);fill-opacity:1;" d="M 33.847656 33.847656 L 37.003906 33.847656 L 37.003906 37.003906 L 33.847656 37.003906 M 33.847656 33.847656 "/>
<path style=" stroke:none;fill-rule:nonzero;fill:rgb(55.686275%,84.313725%,0%);fill-opacity:1;" d="M 11 11 L 14.15625 11 L 14.15625 14.15625 L 11 14.15625 M 11 11 "/>
<path style=" stroke:none;fill-rule:nonzero;fill:rgb(55.686275%,84.313725%,0%);fill-opacity:1;" d="M 11 33.847656 L 14.15625 33.847656 L 14.15625 37.003906 L 11 37.003906 M 11 33.847656 "/>
</g>
</svg>
