<!-- color: #eaebe1 -->
<svg xmlns="http://www.w3.org/2000/svg" xmlns:xlink="http://www.w3.org/1999/xlink" width="48px" height="48px" viewBox="0 0 48 48" version="1.1">
<defs>
<linearGradient id="linear0" gradientUnits="userSpaceOnUse" x1="0" y1="34" x2="0" y2="19" gradientTransform="matrix(1,0,0,1.090909,0.00000295276,-3.090907)">
<stop offset="0" style="stop-color:rgb(0%,0%,0%);stop-opacity:0.0588235;"/>
<stop offset="1" style="stop-color:rgb(0%,0%,0%);stop-opacity:0;"/>
</linearGradient>
</defs>
<g id="surface1">
<path style=" stroke:none;fill-rule:nonzero;fill:rgb(63.137255%,48.627451%,35.686275%);fill-opacity:1;" d="M 9 15 L 39 15 L 39 24.996094 L 9 24.996094 M 9 15 "/>
<path style=" stroke:none;fill-rule:nonzero;fill:rgb(76.078431%,60.392157%,41.568627%);fill-opacity:1;" d="M 9 15 L 12 18 L 11.335938 21 L 9 22 M 9 15 "/>
<path style=" stroke:none;fill-rule:nonzero;fill:rgb(81.960784%,69.019608%,57.254902%);fill-opacity:1;" d="M 8 23 L 12 23 L 12 22.285156 C 12 21.09375 12 15.792969 12 17.996094 L 8 21.996094 M 8 22.996094 "/>
<path style=" stroke:none;fill-rule:nonzero;fill:rgb(76.078431%,60.392157%,41.568627%);fill-opacity:1;" d="M 39.011719 15 L 36.011719 18 L 36.675781 21 L 39.011719 22 M 39.011719 15 "/>
<path style=" stroke:none;fill-rule:nonzero;fill:rgb(81.960784%,69.019608%,57.254902%);fill-opacity:1;" d="M 40 23 L 36 23 L 36 22.285156 C 36 21.09375 36 15.792969 36 17.996094 L 40 21.925781 M 40 23 "/>
<path style=" stroke:none;fill-rule:nonzero;fill:rgb(76.078431%,60.392157%,41.568627%);fill-opacity:1;" d="M 8 34 L 8 48 L 40 48 L 40 34 M 8 34 "/>
<path style=" stroke:none;fill-rule:nonzero;fill:rgb(0%,40.784314%,78.431373%);fill-opacity:1;" d="M 24 10 C 18.476562 10 14 14.476562 14 20 C 14 25.523438 18.476562 29.996094 24 29.996094 C 29.523438 29.996094 33.996094 25.519531 33.996094 20 C 33.996094 14.472656 29.519531 10 24 10 M 24 10 "/>
<path style=" stroke:none;fill-rule:nonzero;fill:rgb(91.764706%,92.156863%,87.45098%);fill-opacity:1;" d="M 28.558594 13 C 28.460938 12.941406 28.0625 13.136719 27.476562 13.375 C 26.9375 13.59375 26.660156 13.863281 26.519531 13.875 C 25.285156 14.003906 16.050781 20.679688 16.019531 20.75 C 16.109375 20.800781 18.847656 19.4375 21.144531 18.875 C 21.679688 18.742188 22.042969 18.855469 21.101562 20.207031 C 20.007812 21.777344 17.632812 25.566406 17.558594 25.875 C 17.769531 25.9375 20.808594 21.679688 21.847656 20.539062 C 22.414062 19.917969 22.789062 19.664062 22.972656 19.664062 C 23.101562 19.664062 23.136719 19.542969 22.054688 21.375 C 21.148438 22.898438 17.929688 28.164062 17.929688 28.582031 C 18.121094 28.460938 18.261719 28.257812 18.515625 27.957031 C 19.371094 26.914062 24.070312 20.347656 24.84375 19.207031 C 26.152344 17.289062 27.03125 18.027344 28.011719 19.164062 C 29.917969 21.375 31.8125 28.46875 32.011719 29 C 31.972656 28.523438 31.839844 27.730469 31.675781 26.664062 C 30.996094 22.179688 30.0625 16.59375 27.675781 14.957031 C 27.800781 14.789062 27.921875 14.28125 27.929688 13.957031 C 27.929688 13.757812 28.125 13.617188 28.550781 13 M 28.554688 13 "/>
<path style=" stroke:none;fill-rule:nonzero;fill:rgb(76.078431%,60.392157%,41.568627%);fill-opacity:1;" d="M 8 22 L 8 46 L 40 46 L 40 22 M 8 22 "/>
<path style=" stroke:none;fill-rule:nonzero;fill:rgb(0%,0%,0%);fill-opacity:0.25098;" d="M 16.886719 28.382812 C 16.886719 29.210938 16.214844 29.882812 15.386719 29.882812 C 14.558594 29.882812 13.886719 29.210938 13.886719 28.382812 C 13.886719 27.554688 14.558594 26.882812 15.386719 26.882812 C 16.214844 26.882812 16.886719 27.554688 16.886719 28.382812 M 16.886719 28.382812 "/>
<path style=" stroke:none;fill-rule:nonzero;fill:rgb(0%,0%,0%);fill-opacity:0.25098;" d="M 35.050781 28.488281 C 35.050781 29.316406 34.378906 29.988281 33.550781 29.988281 C 32.722656 29.988281 32.050781 29.316406 32.050781 28.488281 C 32.050781 27.660156 32.722656 26.988281 33.550781 26.988281 C 34.378906 26.988281 35.050781 27.660156 35.050781 28.488281 M 35.050781 28.488281 "/>
<path style=" stroke:none;fill-rule:nonzero;fill:rgb(100%,100%,100%);fill-opacity:1;" d="M 15 29 C 18 45 31 45 33.996094 29 C 34.207031 27.65625 33.285156 27.628906 33 29 C 31 43.578125 18 43.5 16 29 C 15.816406 27.683594 14.820312 27.738281 15.003906 29 M 15.003906 29 "/>
<path style=" stroke:none;fill-rule:nonzero;fill:url(#linear0);" d="M 8 22 L 8 34 L 39.996094 34 L 39.996094 22 M 8 22 "/>
</g>
</svg>
