<!-- color: #c85637 -->
<svg xmlns="http://www.w3.org/2000/svg" xmlns:xlink="http://www.w3.org/1999/xlink" width="48px" height="48px" viewBox="0 0 48 48" version="1.1">
<g id="surface1">
<path style=" stroke:none;fill-rule:nonzero;fill:rgb(72.941176%,63.921569%,64.313725%);fill-opacity:1;" d="M 14.75 13.089844 C 14.355469 13.089844 14 13.519531 14 13.964844 L 14 18.996094 L 17.75 18.996094 L 17.75 16.996094 L 19.25 16.996094 L 19.25 18.996094 L 23.25 18.996094 L 23.25 15.996094 L 24.75 15.996094 L 24.75 18.996094 L 28.75 18.996094 L 28.75 16.996094 L 30.25 16.996094 L 30.25 18.996094 L 34 18.996094 L 34 13.964844 C 34 13.515625 33.644531 13.089844 33.25 13.089844 M 14.75 13.089844 "/>
<path style=" stroke:none;fill-rule:nonzero;fill:rgb(92.54902%,93.333333%,94.509804%);fill-opacity:1;" d="M 12.8125 15 C 12.371094 15.042969 11.996094 15.449219 12 15.875 L 12 32.125 C 12 32.574219 12.433594 33 12.90625 33 L 35.097656 33 C 35.566406 33 36.003906 32.574219 36.003906 32.125 L 36.003906 17.875 C 36.003906 17.425781 35.5625 17.03125 35.097656 17.03125 L 30.253906 17.03125 L 30.253906 20.09375 C 31.261719 20.285156 32.003906 20.832031 32.003906 21.5 C 32.003906 22.167969 31.261719 22.714844 30.253906 22.90625 L 30.253906 31 L 28.753906 31 L 28.753906 22.90625 C 27.734375 22.714844 27.003906 22.167969 27.003906 21.5 C 27.003906 20.832031 27.734375 20.285156 28.753906 20.09375 L 28.753906 17.03125 L 25.972656 17.03125 L 25.972656 15.875 C 25.972656 15.425781 25.53125 15 25.066406 15 M 23.25 16 L 24.75 16 L 24.75 27.089844 C 25.761719 27.28125 26.5 27.828125 26.5 28.496094 C 26.5 29.164062 25.757812 29.710938 24.75 29.902344 L 24.75 31.996094 L 23.25 31.996094 L 23.25 29.902344 C 22.238281 29.710938 21.5 29.164062 21.5 28.496094 C 21.5 27.828125 22.242188 27.28125 23.25 27.089844 M 17.75 17 L 19.25 17 L 19.25 20.09375 C 20.261719 20.285156 21 20.832031 21 21.5 C 21 22.167969 20.257812 22.714844 19.25 22.90625 L 19.25 31 L 17.75 31 L 17.75 22.90625 C 16.738281 22.714844 16 22.167969 16 21.5 C 16 20.832031 16.742188 20.285156 17.75 20.09375 M 17.75 17 "/>
</g>
</svg>
