<!-- color: #47648e -->
<svg xmlns="http://www.w3.org/2000/svg" xmlns:xlink="http://www.w3.org/1999/xlink" width="48px" height="48px" viewBox="0 0 48 48" version="1.1">
<g id="surface1">
<path style=" stroke:none;fill-rule:nonzero;fill:rgb(97.254902%,52.941176%,32.941176%);fill-opacity:1;" d="M 12.71875 20 L 14.28125 20 C 14.675781 20 15 20.351562 15 20.785156 L 15 27.214844 C 15 27.648438 14.675781 28 14.28125 28 L 12.71875 28 C 12.320312 28 12 27.648438 12 27.214844 L 12 20.785156 C 12 20.351562 12.320312 20 12.71875 20 M 12.71875 20 "/>
<path style=" stroke:none;fill-rule:nonzero;fill:rgb(97.254902%,52.941176%,32.941176%);fill-opacity:1;" d="M 13.910156 20.636719 L 22 13 L 22 22 L 24 24 L 22 26 L 22 35 L 13.878906 27.625 M 13.910156 20.636719 "/>
<path style="fill:none;stroke-width:0.589;stroke-linecap:butt;stroke-linejoin:round;stroke:rgb(97.254902%,52.941176%,32.941176%);stroke-opacity:1;stroke-miterlimit:4;" d="M 7.289452 5.623484 C 7.957525 6.323528 7.957525 7.460134 7.289452 8.161279 " transform="matrix(3.543307,0,0,3.543307,-0.567047,-0.421825)"/>
<path style="fill:none;stroke-width:0.589;stroke-linecap:butt;stroke-linejoin:round;stroke:rgb(97.254902%,52.941176%,32.941176%);stroke-opacity:1;stroke-miterlimit:4;" d="M 8.172499 4.73713 C 9.303593 5.926653 9.303593 7.857009 8.172499 9.047634 " transform="matrix(3.543307,0,0,3.543307,-0.567047,-0.421825)"/>
<path style="fill:none;stroke-width:0.589;stroke-linecap:butt;stroke-linejoin:round;stroke:rgb(97.254902%,52.941176%,32.941176%);stroke-opacity:1;stroke-miterlimit:4;" d="M 9.089721 3.800064 C 10.716909 5.506627 10.716909 8.277035 9.089721 9.983597 " transform="matrix(3.543307,0,0,3.543307,-0.567047,-0.421825)"/>
</g>
</svg>
