<!-- color: #474747 -->
<svg xmlns="http://www.w3.org/2000/svg" xmlns:xlink="http://www.w3.org/1999/xlink" width="48px" height="48px" viewBox="0 0 48 48" version="1.1">
<g id="surface1">
<path style=" stroke:none;fill-rule:nonzero;fill:rgb(0%,81.176471%,100%);fill-opacity:1;" d="M 34.9375 11 L 32.460938 11.5625 L 17.964844 14.921875 L 16.40625 15.289062 L 16.40625 31.820312 L 20.445312 31.820312 L 20.445312 18.488281 L 30.890625 16.078125 L 30.890625 30.285156 L 34.941406 30.285156 M 34.941406 11 "/>
<path style=" stroke:none;fill-rule:nonzero;fill:rgb(0%,81.176471%,100%);fill-opacity:1;" d="M 20.078125 30.714844 C 21.078125 32.511719 20.179688 35 18.058594 36.273438 C 15.9375 37.546875 13.40625 37.121094 12.40625 35.324219 C 11.40625 33.527344 12.3125 31.035156 14.433594 29.761719 C 16.554688 28.492188 19.078125 28.914062 20.078125 30.714844 M 20.078125 30.714844 "/>
<path style=" stroke:none;fill-rule:nonzero;fill:rgb(0%,81.176471%,100%);fill-opacity:1;" d="M 34.59375 29.261719 C 35.59375 31.058594 34.6875 33.546875 32.566406 34.820312 C 30.445312 36.09375 27.914062 35.667969 26.910156 33.871094 C 25.910156 32.074219 26.816406 29.582031 28.9375 28.308594 C 31.058594 27.035156 33.59375 27.464844 34.59375 29.261719 M 34.59375 29.261719 "/>
</g>
</svg>
