<!-- color: #f6b953 -->
<svg xmlns="http://www.w3.org/2000/svg" xmlns:xlink="http://www.w3.org/1999/xlink" width="48px" height="48px" viewBox="0 0 48 48" version="1.1">
<g id="surface1">
<path style=" stroke:none;fill-rule:nonzero;fill:rgb(0%,32.54902%,41.176471%);fill-opacity:1;" d="M 34.109375 30.558594 C 32.800781 30.527344 31.789062 30.660156 30.941406 31.023438 C 30.695312 31.125 30.304688 31.125 30.269531 31.441406 C 30.402344 31.574219 30.417969 31.789062 30.53125 31.972656 C 30.726562 32.304688 31.070312 32.753906 31.382812 32.988281 C 31.722656 33.253906 32.066406 33.519531 32.425781 33.75 C 33.0625 34.152344 33.78125 34.382812 34.402344 34.78125 C 34.761719 35.015625 35.121094 35.316406 35.480469 35.5625 C 35.660156 35.695312 35.773438 35.914062 36.003906 35.996094 C 36.003906 35.980469 36.003906 35.964844 36.003906 35.945312 C 35.890625 35.796875 35.855469 35.582031 35.742188 35.414062 C 35.578125 35.246094 35.414062 35.097656 35.253906 34.933594 C 34.777344 34.285156 34.191406 33.71875 33.558594 33.253906 C 33.035156 32.886719 31.890625 32.386719 31.679688 31.773438 C 31.679688 31.773438 31.660156 31.757812 31.644531 31.738281 C 32.003906 31.714844 32.429688 31.574219 32.773438 31.472656 C 33.328125 31.324219 33.839844 31.355469 34.40625 31.207031 C 34.671875 31.140625 34.929688 31.058594 35.1875 30.976562 C 35.1875 30.925781 35.1875 30.875 35.1875 30.824219 C 34.894531 30.527344 34.683594 30.132812 34.371094 29.847656 C 33.539062 29.117188 32.628906 28.402344 31.683594 27.804688 C 31.175781 27.472656 30.523438 27.253906 29.984375 26.972656 C 29.789062 26.867188 29.460938 26.820312 29.347656 26.65625 C 29.054688 26.289062 28.890625 25.808594 28.679688 25.378906 C 28.203125 24.464844 27.746094 23.445312 27.339844 22.484375 C 27.046875 21.839844 26.863281 21.1875 26.507812 20.589844 C 24.820312 17.765625 22.992188 16.050781 20.1875 14.371094 C 19.585938 14.019531 18.867188 13.871094 18.097656 13.6875 C 17.691406 13.671875 17.28125 13.636719 16.871094 13.621094 C 16.609375 13.507812 16.351562 13.1875 16.121094 13.039062 C 15.1875 12.441406 12.789062 11.144531 12.101562 12.855469 C 11.660156 13.9375 12.757812 15.003906 13.132812 15.550781 C 13.40625 15.933594 13.769531 16.363281 13.964844 16.796875 C 14.074219 17.074219 14.109375 17.378906 14.226562 17.679688 C 14.488281 18.40625 14.730469 19.222656 15.074219 19.90625 C 15.257812 20.257812 15.449219 20.621094 15.679688 20.9375 C 15.808594 21.121094 16.035156 21.203125 16.085938 21.503906 C 15.855469 21.835938 15.84375 22.328125 15.710938 22.746094 C 15.121094 24.628906 15.351562 26.953125 16.183594 28.335938 C 16.445312 28.746094 17.066406 29.660156 17.898438 29.3125 C 18.632812 29.011719 18.46875 28.066406 18.683594 27.234375 C 18.730469 27.035156 18.699219 26.902344 18.796875 26.769531 C 18.796875 26.785156 18.796875 26.800781 18.796875 26.800781 C 19.023438 27.265625 19.253906 27.714844 19.464844 28.183594 C 19.972656 28.996094 20.855469 29.84375 21.589844 30.410156 C 21.980469 30.714844 22.285156 31.226562 22.777344 31.40625 C 22.777344 31.390625 22.777344 31.382812 22.777344 31.355469 C 22.761719 31.355469 22.761719 31.355469 22.742188 31.355469 C 22.644531 31.210938 22.507812 31.140625 22.367188 31.023438 C 22.074219 30.726562 21.757812 30.359375 21.519531 30.027344 C 20.832031 29.097656 20.230469 28.066406 19.691406 27 C 19.429688 26.484375 19.199219 25.921875 18.988281 25.40625 C 18.890625 25.207031 18.890625 24.90625 18.726562 24.808594 C 18.484375 25.171875 18.125 25.488281 17.945312 25.9375 C 17.632812 26.652344 17.601562 27.535156 17.488281 28.449219 C 17.425781 28.464844 17.453125 28.449219 17.425781 28.480469 C 16.902344 28.347656 16.722656 27.800781 16.527344 27.332031 C 16.039062 26.152344 15.960938 24.257812 16.382812 22.894531 C 16.496094 22.546875 16.984375 21.449219 16.789062 21.117188 C 16.691406 20.800781 16.363281 20.617188 16.1875 20.367188 C 15.976562 20.050781 15.746094 19.652344 15.601562 19.304688 C 15.203125 18.363281 15.011719 17.339844 14.589844 16.40625 C 14.390625 15.972656 14.050781 15.523438 13.773438 15.128906 C 13.460938 14.679688 13.117188 14.363281 12.875 13.828125 C 12.792969 13.644531 12.679688 13.351562 12.808594 13.148438 C 12.839844 13.015625 12.90625 12.964844 13.039062 12.929688 C 13.25 12.746094 13.855469 12.980469 14.066406 13.078125 C 14.667969 13.328125 15.175781 13.558594 15.683594 13.910156 C 15.910156 14.074219 16.15625 14.390625 16.449219 14.476562 C 16.5625 14.476562 16.679688 14.476562 16.792969 14.476562 C 17.316406 14.59375 17.902344 14.511719 18.394531 14.660156 C 19.257812 14.945312 20.042969 15.359375 20.742188 15.808594 C 22.882812 17.1875 24.644531 19.148438 25.835938 21.496094 C 26.035156 21.878906 26.113281 22.226562 26.292969 22.628906 C 26.636719 23.441406 27.0625 24.273438 27.40625 25.070312 C 27.746094 25.851562 28.074219 26.648438 28.5625 27.300781 C 28.808594 27.648438 29.789062 27.824219 30.230469 28.015625 C 30.554688 28.160156 31.0625 28.296875 31.355469 28.480469 C 31.910156 28.828125 32.464844 29.230469 32.988281 29.613281 C 33.25 29.8125 34.066406 30.226562 34.113281 30.558594 M 34.117188 30.558594 "/>
<path style=" stroke:none;fill-rule:nonzero;fill:rgb(0%,32.54902%,41.176471%);fill-opacity:1;" d="M 17.453125 16.109375 C 17.175781 16.109375 16.980469 16.144531 16.785156 16.195312 C 16.785156 16.195312 16.785156 16.210938 16.785156 16.226562 C 16.800781 16.226562 16.800781 16.226562 16.816406 16.226562 C 16.949219 16.492188 17.175781 16.675781 17.339844 16.910156 C 17.472656 17.175781 17.585938 17.441406 17.714844 17.707031 C 17.730469 17.691406 17.75 17.675781 17.75 17.675781 C 17.976562 17.507812 18.089844 17.242188 18.089844 16.84375 C 17.992188 16.726562 17.976562 16.609375 17.894531 16.492188 C 17.796875 16.328125 17.585938 16.242188 17.453125 16.109375 M 17.453125 16.109375 "/>
</g>
</svg>
