<!-- color: #474747 -->
<svg xmlns="http://www.w3.org/2000/svg" xmlns:xlink="http://www.w3.org/1999/xlink" width="48px" height="48px" viewBox="0 0 48 48" version="1.1">
<g id="surface1">
<path style=" stroke:none;fill-rule:nonzero;fill:rgb(87.058824%,83.921569%,18.823529%);fill-opacity:1;" d="M 21.941406 34.921875 C 18.878906 34.570312 16.449219 33.042969 15.769531 31.042969 C 15.445312 30.082031 15.4375 27.960938 15.753906 26.734375 C 16.609375 23.421875 18.84375 21.488281 22.273438 21.09375 C 24.074219 20.882812 26.335938 21.003906 27.558594 21.371094 C 30.03125 22.105469 32.429688 24.039062 33.355469 26.03125 C 34.027344 27.472656 34.011719 27.957031 33.277344 29.460938 C 31.855469 32.367188 28.980469 34.152344 24.675781 34.804688 C 23.144531 35.039062 22.992188 35.042969 21.941406 34.921875 M 21.941406 34.921875 "/>
<path style=" stroke:none;fill-rule:nonzero;fill:rgb(27.45098%,87.058824%,15.686275%);fill-opacity:1;" d="M 33.605469 25.425781 C 32.921875 24.253906 31.15625 22.746094 29.347656 21.792969 C 28.457031 21.320312 27.722656 20.898438 27.722656 20.859375 C 27.722656 20.652344 31.160156 15.171875 31.441406 14.929688 C 32.078125 14.382812 32.59375 14.554688 33.578125 15.65625 C 35.484375 17.777344 36.253906 20.191406 35.929688 23.007812 C 35.722656 24.761719 35.46875 25.496094 34.933594 25.875 C 34.34375 26.292969 34.050781 26.195312 33.609375 25.429688 M 33.605469 25.425781 "/>
<path style=" stroke:none;fill-rule:nonzero;fill:rgb(27.058824%,72.941176%,83.137255%);fill-opacity:1;" d="M 13.507812 25.050781 C 11.816406 24.625 11.515625 22.519531 12.765625 19.886719 C 14.273438 16.726562 16.429688 14.816406 19.777344 13.695312 C 22.566406 12.757812 24.601562 12.777344 25.433594 13.75 C 25.761719 14.132812 25.800781 14.347656 25.785156 15.75 C 25.777344 17.519531 25.554688 20.453125 25.402344 20.597656 C 25.347656 20.652344 24.5625 20.675781 23.648438 20.652344 C 20.105469 20.574219 17.46875 21.851562 16.210938 24.285156 L 15.753906 25.167969 L 14.789062 25.152344 C 14.257812 25.140625 13.679688 25.097656 13.503906 25.050781 M 13.503906 25.050781 "/>
</g>
</svg>
