<!-- color: #e87e0b -->
<svg xmlns="http://www.w3.org/2000/svg" xmlns:xlink="http://www.w3.org/1999/xlink" width="48px" height="48px" viewBox="0 0 48 48" version="1.1">
<g id="surface1">
<path style=" stroke:none;fill-rule:nonzero;fill:rgb(97.647059%,97.647059%,97.647059%);fill-opacity:1;" d="M 20.839844 27.984375 C 19.820312 27.910156 18.996094 27.597656 18.324219 27.039062 C 18.023438 26.789062 17.699219 26.390625 17.507812 26.039062 C 17.460938 25.957031 17.402344 25.878906 17.394531 25.867188 L 17.394531 27.816406 L 14.527344 27.816406 L 14.519531 25.566406 C 14.511719 23.234375 14.511719 23.121094 14.445312 22.839844 C 14.328125 22.328125 13.90625 22.132812 13.460938 22.132812 C 12.945312 22.117188 12.554688 22.34375 12.324219 22.863281 C 12.226562 23.140625 12.234375 22.984375 12.226562 25.507812 L 12.222656 27.820312 L 9.34375 27.820312 C 9.300781 25.695312 9.386719 23.570312 9.308594 21.453125 C 9.277344 21.109375 9.210938 20.824219 9.074219 20.421875 L 9 20.195312 L 11.800781 20.207031 L 11.871094 20.363281 C 11.914062 20.457031 11.953125 20.578125 11.96875 20.65625 C 11.984375 20.730469 12 20.796875 12.007812 20.796875 C 12.015625 20.796875 12.109375 20.726562 12.222656 20.652344 C 12.652344 20.339844 13.09375 20.160156 13.652344 20.074219 C 13.949219 20.027344 14.695312 20.03125 15.007812 20.082031 C 15.695312 20.199219 16.257812 20.457031 16.6875 20.859375 C 17 21.15625 17.226562 21.613281 17.328125 22.148438 L 17.363281 22.339844 L 17.4375 22.191406 C 17.578125 21.898438 17.75 21.648438 17.980469 21.394531 C 18.667969 20.625 19.617188 20.175781 20.839844 20.035156 C 21.121094 20.003906 21.867188 20.003906 22.164062 20.039062 C 22.785156 20.117188 23.300781 20.273438 23.765625 20.535156 C 24.132812 20.742188 24.40625 20.960938 24.695312 21.277344 C 24.964844 21.574219 25.199219 21.945312 25.355469 22.296875 L 25.410156 22.417969 L 25.410156 22.0625 C 25.410156 21.3125 25.375 20.898438 25.269531 20.464844 L 25.203125 20.1875 L 28.035156 20.210938 L 28.070312 20.339844 C 28.128906 20.535156 28.171875 20.789062 28.183594 21.003906 L 28.195312 21.203125 L 28.296875 21.054688 C 28.632812 20.5625 29.046875 20.257812 29.566406 20.117188 C 29.816406 20.046875 30.042969 20.027344 30.386719 20.035156 C 30.675781 20.039062 30.863281 20.070312 31.195312 20.15625 L 31.28125 20.175781 C 31.28125 20.476562 31.28125 20.78125 31.28125 21.082031 C 31.285156 21.082031 31.359375 21.039062 31.421875 20.992188 C 32.496094 20.160156 34.035156 19.820312 35.492188 20.089844 C 36.296875 20.238281 37.054688 20.574219 37.628906 21.039062 C 38.625 21.84375 39.117188 23.058594 38.992188 24.417969 C 38.90625 25.347656 38.503906 26.179688 37.835938 26.792969 C 36.953125 27.605469 35.691406 28.039062 34.3125 28 C 33.414062 27.972656 32.652344 27.773438 31.949219 27.375 C 31.375 27.058594 30.886719 26.589844 30.523438 26.015625 C 29.878906 24.972656 29.792969 23.570312 30.304688 22.402344 C 30.34375 22.308594 30.378906 22.230469 30.378906 22.226562 C 30.089844 22.121094 29.78125 22.125 29.492188 22.191406 C 29.3125 22.25 29.199219 22.3125 29.042969 22.441406 C 28.667969 22.746094 28.445312 23.191406 28.355469 23.839844 C 28.304688 24.179688 28.296875 24.507812 28.296875 26.160156 L 28.296875 27.820312 L 25.421875 27.820312 L 25.421875 25.964844 L 25.335938 26.117188 C 25.207031 26.351562 25.058594 26.554688 24.867188 26.757812 C 24.183594 27.492188 23.214844 27.894531 21.917969 27.988281 C 21.648438 28.007812 21.121094 28.007812 20.851562 27.988281 M 22.964844 25.429688 L 25.421875 25.476562 L 25.421875 24.613281 L 19.855469 24.613281 L 19.867188 24.726562 C 19.875 24.789062 19.894531 24.910156 19.914062 24.996094 C 20.050781 25.574219 20.460938 25.933594 21.113281 26.046875 C 21.847656 26.121094 22.460938 26.082031 22.964844 25.429688 M 35.257812 25.875 C 35.730469 25.558594 36.019531 24.960938 36.074219 24.1875 C 36.113281 23.625 35.984375 23.03125 35.722656 22.621094 C 35.640625 22.484375 35.457031 22.285156 35.351562 22.207031 C 34.96875 21.921875 34.5 21.886719 34.054688 21.988281 C 33.367188 22.214844 32.949219 22.910156 32.914062 23.875 C 32.890625 24.582031 33.070312 25.1875 33.433594 25.59375 C 33.664062 25.847656 33.867188 25.972656 34.1875 26.046875 C 34.550781 26.109375 34.925781 26.0625 35.257812 25.875 M 22.734375 22.933594 C 22.757812 22.90625 22.667969 22.570312 22.597656 22.421875 C 22.523438 22.269531 22.335938 22.089844 22.15625 21.996094 C 21.632812 21.722656 20.84375 21.777344 20.402344 22.113281 C 20.179688 22.289062 20.003906 22.558594 19.910156 22.882812 L 19.890625 22.957031 L 21.304688 22.949219 C 22.085938 22.945312 22.726562 22.9375 22.734375 22.933594 M 22.734375 22.933594 "/>
</g>
</svg>
