<!-- color: #37b8d5 -->
<svg xmlns="http://www.w3.org/2000/svg" xmlns:xlink="http://www.w3.org/1999/xlink" width="48px" height="48px" viewBox="0 0 48 48" version="1.1">
<g id="surface1">
<path style=" stroke:none;fill-rule:nonzero;fill:rgb(97.647059%,97.647059%,97.647059%);fill-opacity:1;" d="M 13.4375 13 C 12.628906 13 12 13.628906 12 14.4375 L 12 30.3125 C 12 31.121094 12.628906 31.75 13.4375 31.75 L 18 31.75 L 18 37 L 24 31.75 L 34.5625 31.75 C 35.371094 31.75 36.003906 31.121094 36.003906 30.3125 L 36.003906 14.4375 C 36.003906 13.628906 35.34375 13 34.53125 13 M 23.25 14 L 24.75 14 L 24.75 25.089844 C 25.761719 25.28125 26.5 25.828125 26.5 26.496094 C 26.5 27.164062 25.757812 27.710938 24.75 27.902344 L 24.75 29.996094 L 23.25 29.996094 L 23.25 27.902344 C 22.242188 27.710938 21.5 27.164062 21.5 26.496094 C 21.5 25.828125 22.242188 25.28125 23.25 25.089844 M 17.75 15 L 19.25 15 L 19.25 18.09375 C 20.261719 18.285156 21 18.832031 21 19.5 C 21 20.167969 20.257812 20.714844 19.25 20.90625 L 19.25 29 L 17.75 29 L 17.75 20.90625 C 16.742188 20.714844 16 20.167969 16 19.5 C 16 18.832031 16.742188 18.285156 17.75 18.09375 M 28.75 15 L 30.25 15 L 30.25 18.09375 C 31.261719 18.285156 32 18.832031 32 19.5 C 32 20.167969 31.257812 20.714844 30.25 20.90625 L 30.25 29 L 28.75 29 L 28.75 20.90625 C 27.742188 20.714844 27 20.167969 27 19.5 C 27 18.832031 27.742188 18.285156 28.75 18.09375 M 28.75 15 "/>
</g>
</svg>
