<!-- color: #ff8c32 -->
<svg xmlns="http://www.w3.org/2000/svg" xmlns:xlink="http://www.w3.org/1999/xlink" width="48px" height="48px" viewBox="0 0 48 48" version="1.1">
<g id="surface1">
<path style=" stroke:none;fill-rule:nonzero;fill:rgb(20%,20%,20%);fill-opacity:1;" d="M 22.367188 14.828125 L 25.636719 14.828125 C 30.53125 14.828125 30.433594 19.679688 30.433594 19.679688 L 30.433594 23.835938 C 30.433594 25.417969 27.578125 28.6875 27.578125 28.6875 L 27.578125 30.765625 L 34.003906 34.230469 L 34.003906 37.003906 L 14.015625 37.003906 L 14.015625 34.230469 L 20.445312 30.765625 L 20.445312 28.6875 C 20.445312 28.6875 17.578125 25.417969 17.59375 23.835938 L 17.59375 19.679688 C 17.59375 19.679688 17.488281 14.828125 22.390625 14.828125 M 22.367188 14.828125 "/>
<path style=" stroke:none;fill-rule:nonzero;fill:rgb(20%,20%,20%);fill-opacity:1;" d="M 18.585938 17.9375 L 19.574219 17.9375 C 20.011719 17.9375 20.367188 18.324219 20.367188 18.804688 L 20.367188 25.441406 C 20.367188 25.917969 20.011719 26.308594 19.574219 26.308594 L 18.585938 26.308594 C 18.148438 26.308594 17.789062 25.917969 17.789062 25.441406 L 17.789062 18.804688 C 17.789062 18.324219 18.148438 17.9375 18.585938 17.9375 M 18.585938 17.9375 "/>
<path style=" stroke:none;fill-rule:nonzero;fill:rgb(20%,20%,20%);fill-opacity:1;" d="M 19.265625 22.121094 C 19.265625 24.007812 18.617188 25.535156 17.820312 25.535156 C 17.023438 25.535156 16.378906 24.007812 16.378906 22.121094 C 16.378906 20.234375 17.023438 18.707031 17.820312 18.707031 C 18.617188 18.707031 19.265625 20.234375 19.265625 22.121094 M 19.265625 22.121094 "/>
<path style=" stroke:none;fill-rule:nonzero;fill:rgb(20%,20%,20%);fill-opacity:1;" d="M 16.753906 21.9375 C 16.753906 22.289062 16.460938 22.574219 16.101562 22.574219 C 15.742188 22.574219 15.449219 22.289062 15.449219 21.9375 C 15.449219 21.585938 15.742188 21.300781 16.101562 21.300781 C 16.460938 21.300781 16.753906 21.585938 16.753906 21.9375 M 16.753906 21.9375 "/>
<path style=" stroke:none;fill-rule:nonzero;fill:rgb(20%,20%,20%);fill-opacity:1;" d="M 23.996094 10.992188 C 19.214844 10.992188 15.339844 15.21875 15.339844 20.433594 C 15.339844 20.957031 15.382812 21.472656 15.457031 21.972656 L 16.765625 21.972656 C 16.679688 21.476562 16.628906 20.960938 16.628906 20.433594 C 16.628906 15.996094 19.925781 12.394531 23.996094 12.394531 C 28.0625 12.394531 31.359375 15.992188 31.359375 20.433594 C 31.359375 20.960938 31.3125 21.476562 31.222656 21.972656 L 32.53125 21.972656 C 32.609375 21.472656 32.648438 20.957031 32.648438 20.433594 C 32.648438 15.21875 28.773438 10.992188 23.996094 10.992188 M 23.996094 10.992188 "/>
<path style=" stroke:none;fill-rule:nonzero;fill:rgb(20%,20%,20%);fill-opacity:1;" d="M 32.539062 21.871094 C 32.539062 22.222656 32.253906 22.507812 31.894531 22.507812 C 31.539062 22.507812 31.25 22.222656 31.25 21.871094 C 31.25 21.519531 31.539062 21.234375 31.894531 21.234375 C 32.253906 21.234375 32.539062 21.519531 32.539062 21.871094 M 32.539062 21.871094 "/>
<path style=" stroke:none;fill-rule:nonzero;fill:rgb(20%,20%,20%);fill-opacity:1;" d="M 29.40625 17.9375 L 28.417969 17.9375 C 27.976562 17.9375 27.621094 18.324219 27.621094 18.804688 L 27.621094 25.441406 C 27.621094 25.917969 27.976562 26.308594 28.417969 26.308594 L 29.40625 26.308594 C 29.84375 26.308594 30.199219 25.917969 30.199219 25.441406 L 30.199219 18.804688 C 30.199219 18.324219 29.84375 17.9375 29.40625 17.9375 M 29.40625 17.9375 "/>
<path style=" stroke:none;fill-rule:nonzero;fill:rgb(20%,20%,20%);fill-opacity:1;" d="M 28.726562 22.121094 C 28.726562 24.007812 29.371094 25.535156 30.167969 25.535156 C 30.964844 25.535156 31.609375 24.007812 31.609375 22.121094 C 31.609375 20.234375 30.964844 18.707031 30.167969 18.707031 C 29.371094 18.707031 28.726562 20.234375 28.726562 22.121094 M 28.726562 22.121094 "/>
</g>
</svg>
