<!-- color: #474747 -->
<svg xmlns="http://www.w3.org/2000/svg" xmlns:xlink="http://www.w3.org/1999/xlink" width="48px" height="48px" viewBox="0 0 48 48" version="1.1">
<g id="surface1">
<path style=" stroke:none;fill-rule:nonzero;fill:rgb(63.921569%,63.921569%,63.921569%);fill-opacity:1;" d="M 18 10.996094 L 30 10.996094 C 30.550781 10.996094 31 11.445312 31 11.996094 L 31 23.996094 C 31 24.550781 30.550781 24.996094 30 24.996094 L 18 24.996094 C 17.445312 24.996094 17 24.550781 17 23.996094 L 17 11.996094 C 17 11.445312 17.445312 10.996094 18 10.996094 M 18 10.996094 "/>
<path style=" stroke:none;fill-rule:nonzero;fill:rgb(83.529412%,83.529412%,83.529412%);fill-opacity:1;" d="M 13 18.996094 L 35 18.996094 C 35.550781 18.996094 36 19.445312 36 19.996094 L 36 29.996094 C 36 30.546875 35.550781 30.996094 35 30.996094 L 13 30.996094 C 12.449219 30.996094 12 30.546875 12 29.996094 L 12 19.996094 C 12 19.445312 12.449219 18.996094 13 18.996094 M 13 18.996094 "/>
<path style=" stroke:none;fill-rule:nonzero;fill:rgb(97.647059%,97.647059%,97.647059%);fill-opacity:1;" d="M 17 25.019531 L 31 25.019531 L 31 37.019531 L 17 37.019531 M 17 25.019531 "/>
</g>
</svg>
