<!-- color: #dbdbdb -->
<svg xmlns="http://www.w3.org/2000/svg" xmlns:xlink="http://www.w3.org/1999/xlink" width="48px" height="48px" viewBox="0 0 48 48" version="1.1">
<g id="surface1">
<path style=" stroke:none;fill-rule:nonzero;fill:rgb(17.647059%,17.647059%,17.647059%);fill-opacity:1;" d="M 11.875 12 C 11.398438 12.054688 11 12.511719 11 13 L 11 30.789062 C 11 31.3125 11.460938 31.785156 11.972656 31.785156 L 20.746094 31.785156 L 20.746094 33.566406 L 27.246094 33.566406 L 27.246094 31.785156 L 36.019531 31.785156 C 36.527344 31.785156 36.992188 31.3125 36.992188 30.789062 L 36.992188 13 C 36.992188 12.476562 36.527344 12 36.019531 12 M 13.160156 13.558594 C 13.199219 13.554688 13.242188 13.554688 13.28125 13.558594 L 34.796875 13.558594 C 35.140625 13.558594 35.445312 13.878906 35.445312 14.226562 L 35.445312 29.554688 C 35.445312 29.902344 35.140625 30.222656 34.796875 30.222656 L 13.28125 30.222656 C 12.941406 30.222656 12.632812 29.902344 12.632812 29.554688 L 12.632812 14.226562 C 12.625 13.914062 12.863281 13.617188 13.160156 13.558594 M 15.984375 34.371094 L 15.984375 36 L 32.234375 36 L 32.234375 34.371094 M 15.984375 34.371094 "/>
<path style=" stroke:none;fill-rule:nonzero;fill:rgb(81.960784%,27.45098%,21.176471%);fill-opacity:1;" d="M 18.613281 23.601562 L 18.613281 25 L 28.613281 25 L 28.613281 23.601562 M 18.613281 23.601562 "/>
<path style=" stroke:none;fill-rule:nonzero;fill:rgb(81.960784%,27.45098%,21.176471%);fill-opacity:1;" d="M 17.847656 23.601562 L 17.847656 25 L 16.308594 25 L 16.308594 23.601562 M 17.847656 23.601562 "/>
<path style=" stroke:none;fill-rule:nonzero;fill:rgb(81.960784%,27.45098%,21.176471%);fill-opacity:1;" d="M 15.539062 23.601562 L 15.539062 25 L 14 25 L 14 23.601562 M 15.539062 23.601562 "/>
<path style=" stroke:none;fill-rule:nonzero;fill:rgb(81.960784%,27.45098%,21.176471%);fill-opacity:1;" d="M 32.460938 23.601562 L 32.460938 25 L 31.691406 25 L 31.691406 23.601562 M 32.460938 23.601562 "/>
<path style=" stroke:none;fill-rule:nonzero;fill:rgb(81.960784%,27.45098%,21.176471%);fill-opacity:1;" d="M 30.921875 23.601562 L 30.921875 25 L 29.382812 25 L 29.382812 23.601562 M 30.921875 23.601562 "/>
<path style=" stroke:none;fill-rule:nonzero;fill:rgb(81.960784%,27.45098%,21.176471%);fill-opacity:1;" d="M 34 23.601562 L 34 25 L 33.230469 25 L 33.230469 23.601562 M 34 23.601562 "/>
<path style=" stroke:none;fill-rule:nonzero;fill:rgb(81.960784%,27.45098%,21.176471%);fill-opacity:1;" d="M 30.921875 18 L 32.460938 18 L 32.460938 22.199219 L 30.921875 22.199219 M 30.921875 18 "/>
<path style=" stroke:none;fill-rule:nonzero;fill:rgb(81.960784%,27.45098%,21.176471%);fill-opacity:1;" d="M 30.160156 20.800781 L 30.160156 22.199219 L 28.621094 22.199219 L 28.621094 20.800781 M 30.160156 20.800781 "/>
<path style=" stroke:none;fill-rule:nonzero;fill:rgb(81.960784%,27.45098%,21.176471%);fill-opacity:1;" d="M 27.847656 20.800781 L 27.847656 22.199219 L 26.308594 22.199219 L 26.308594 20.800781 M 27.847656 20.800781 "/>
<path style=" stroke:none;fill-rule:nonzero;fill:rgb(81.960784%,27.45098%,21.176471%);fill-opacity:1;" d="M 25.539062 20.800781 L 25.539062 22.199219 L 24 22.199219 L 24 20.800781 M 25.539062 20.800781 "/>
<path style=" stroke:none;fill-rule:nonzero;fill:rgb(81.960784%,27.45098%,21.176471%);fill-opacity:1;" d="M 23.230469 20.800781 L 23.230469 22.199219 L 21.691406 22.199219 L 21.691406 20.800781 M 23.230469 20.800781 "/>
<path style=" stroke:none;fill-rule:nonzero;fill:rgb(81.960784%,27.45098%,21.176471%);fill-opacity:1;" d="M 20.925781 20.800781 L 20.925781 22.199219 L 19.386719 22.199219 L 19.386719 20.800781 M 20.925781 20.800781 "/>
<path style=" stroke:none;fill-rule:nonzero;fill:rgb(81.960784%,27.45098%,21.176471%);fill-opacity:1;" d="M 18.613281 20.800781 L 18.613281 22.199219 L 17.078125 22.199219 L 17.078125 20.800781 M 18.613281 20.800781 "/>
<path style=" stroke:none;fill-rule:nonzero;fill:rgb(81.960784%,27.45098%,21.176471%);fill-opacity:1;" d="M 16.308594 20.800781 L 16.308594 22.199219 L 14 22.199219 L 14 20.800781 M 16.308594 20.800781 "/>
<path style=" stroke:none;fill-rule:nonzero;fill:rgb(81.960784%,27.45098%,21.176471%);fill-opacity:1;" d="M 34 20.800781 L 34 22.199219 L 33.230469 22.199219 L 33.230469 20.800781 M 34 20.800781 "/>
<path style=" stroke:none;fill-rule:nonzero;fill:rgb(81.960784%,27.45098%,21.176471%);fill-opacity:1;" d="M 34 18 L 34 19.398438 L 33.230469 19.398438 L 33.230469 18 M 34 18 "/>
<path style=" stroke:none;fill-rule:nonzero;fill:rgb(81.960784%,27.45098%,21.176471%);fill-opacity:1;" d="M 29.382812 18 L 29.382812 19.398438 L 27.847656 19.398438 L 27.847656 18 M 29.382812 18 "/>
<path style=" stroke:none;fill-rule:nonzero;fill:rgb(81.960784%,27.45098%,21.176471%);fill-opacity:1;" d="M 27.078125 18 L 27.078125 19.398438 L 25.539062 19.398438 L 25.539062 18 M 27.078125 18 "/>
<path style=" stroke:none;fill-rule:nonzero;fill:rgb(81.960784%,27.45098%,21.176471%);fill-opacity:1;" d="M 24.769531 18 L 24.769531 19.398438 L 23.230469 19.398438 L 23.230469 18 M 24.769531 18 "/>
<path style=" stroke:none;fill-rule:nonzero;fill:rgb(81.960784%,27.45098%,21.176471%);fill-opacity:1;" d="M 22.460938 18 L 22.460938 19.398438 L 20.925781 19.398438 L 20.925781 18 M 22.460938 18 "/>
<path style=" stroke:none;fill-rule:nonzero;fill:rgb(81.960784%,27.45098%,21.176471%);fill-opacity:1;" d="M 20.148438 18 L 20.148438 19.398438 L 18.609375 19.398438 L 18.609375 18 M 20.148438 18 "/>
<path style=" stroke:none;fill-rule:nonzero;fill:rgb(81.960784%,27.45098%,21.176471%);fill-opacity:1;" d="M 17.847656 18 L 17.847656 19.398438 L 16.308594 19.398438 L 16.308594 18 M 17.847656 18 "/>
<path style=" stroke:none;fill-rule:nonzero;fill:rgb(81.960784%,27.45098%,21.176471%);fill-opacity:1;" d="M 15.539062 18 L 15.539062 19.398438 L 14 19.398438 L 14 18 M 15.539062 18 "/>
<path style=" stroke:none;fill-rule:nonzero;fill:rgb(81.960784%,27.45098%,21.176471%);fill-opacity:1;" d="M 30.921875 18 L 30.921875 19.398438 L 30.152344 19.398438 L 30.152344 18 M 30.921875 18 "/>
</g>
</svg>
