<!-- color: #eeeeee -->
<svg xmlns="http://www.w3.org/2000/svg" xmlns:xlink="http://www.w3.org/1999/xlink" width="48px" height="48px" viewBox="0 0 48 48" version="1.1">
<g id="surface1">
<path style="fill:none;stroke-width:0.213;stroke-linecap:round;stroke-linejoin:round;stroke:rgb(20%,20%,20%);stroke-opacity:1;stroke-miterlimit:4;" d="M 7.514167 6.773333 C 7.514167 7.181233 7.182335 7.513064 6.774436 7.513064 C 6.365434 7.513064 6.0325 7.181233 6.0325 6.773333 C 6.0325 6.364332 6.365434 6.0325 6.774436 6.0325 C 7.182335 6.0325 7.514167 6.364332 7.514167 6.773333 M 7.514167 6.773333 " transform="matrix(3.543307,0,0,3.543307,0,0)"/>
<path style="fill-rule:nonzero;fill:rgb(98.431373%,48.627451%,18.039216%);fill-opacity:1;stroke-width:0.282;stroke-linecap:round;stroke-linejoin:round;stroke:rgb(98.431373%,48.627451%,18.039216%);stroke-opacity:1;stroke-miterlimit:4;" d="M 8.040026 3.951111 C 8.040026 4.652257 7.471172 5.221111 6.770026 5.221111 C 6.06888 5.221111 5.500026 4.652257 5.500026 3.951111 C 5.500026 3.249965 6.06888 2.681111 6.770026 2.681111 C 7.471172 2.681111 8.040026 3.249965 8.040026 3.951111 M 8.040026 3.951111 " transform="matrix(3.543307,0,0,3.543307,0,0)"/>
<path style="fill-rule:nonzero;fill:rgb(12.941176%,78.823529%,20.392157%);fill-opacity:1;stroke-width:0.282;stroke-linecap:round;stroke-linejoin:round;stroke:rgb(12.941176%,78.823529%,20.392157%);stroke-opacity:1;stroke-miterlimit:4;" d="M 5.221111 6.773333 C 5.221111 7.474479 4.652257 8.043334 3.951111 8.043334 C 3.249965 8.043334 2.681111 7.474479 2.681111 6.773333 C 2.681111 6.071085 3.249965 5.503333 3.951111 5.503333 C 4.652257 5.503333 5.221111 6.071085 5.221111 6.773333 M 5.221111 6.773333 " transform="matrix(3.543307,0,0,3.543307,0,0)"/>
<path style="fill-rule:nonzero;fill:rgb(94.901961%,14.901961%,58.431373%);fill-opacity:1;stroke-width:0.282;stroke-linecap:round;stroke-linejoin:round;stroke:rgb(94.901961%,14.901961%,58.431373%);stroke-opacity:1;stroke-miterlimit:4;" d="M 8.040026 9.595556 C 8.040026 10.297804 7.471172 10.865556 6.770026 10.865556 C 6.06888 10.865556 5.500026 10.297804 5.500026 9.595556 C 5.500026 8.895512 6.06888 8.325556 6.770026 8.325556 C 7.471172 8.325556 8.040026 8.895512 8.040026 9.595556 M 8.040026 9.595556 " transform="matrix(3.543307,0,0,3.543307,0,0)"/>
<path style="fill-rule:nonzero;fill:rgb(15.294118%,69.411765%,75.686275%);fill-opacity:1;stroke-width:0.282;stroke-linecap:round;stroke-linejoin:round;stroke:rgb(15.294118%,69.411765%,75.686275%);stroke-opacity:1;stroke-miterlimit:4;" d="M 10.865556 6.774436 C 10.865556 7.474479 10.297804 8.044436 9.595556 8.044436 C 8.895512 8.044436 8.325556 7.474479 8.325556 6.774436 C 8.325556 6.072188 8.895512 5.504436 9.595556 5.504436 C 10.297804 5.504436 10.865556 6.072188 10.865556 6.774436 M 10.865556 6.774436 " transform="matrix(3.543307,0,0,3.543307,0,0)"/>
</g>
</svg>
