<!-- color: #62bed6 -->
<svg xmlns="http://www.w3.org/2000/svg" xmlns:xlink="http://www.w3.org/1999/xlink" width="48px" height="48px" viewBox="0 0 48 48" version="1.1">
<g id="surface1">
<path style=" stroke:none;fill-rule:nonzero;fill:rgb(17.647059%,17.647059%,17.647059%);fill-opacity:1;" d="M 22.648438 31.960938 L 21.320312 29.839844 L 22.578125 27.769531 C 23.273438 26.628906 23.875 25.632812 23.917969 25.558594 C 23.96875 25.464844 24.445312 26.160156 25.328125 27.609375 C 26.058594 28.8125 26.65625 29.816406 26.65625 29.84375 C 26.65625 29.90625 24.148438 33.910156 24.042969 34.007812 C 24.007812 34.046875 23.375 33.125 22.644531 31.960938 M 15.703125 33.070312 L 14.054688 32.261719 L 14.742188 30.980469 C 15.121094 30.273438 15.390625 29.664062 15.347656 29.625 C 15.296875 29.585938 14.890625 29.285156 14.441406 28.964844 C 9.558594 25.417969 9.925781 19.644531 15.238281 16.304688 C 19.652344 13.539062 26.554688 13.234375 31.445312 15.597656 C 33.851562 16.761719 35.476562 18.261719 36.371094 20.167969 C 36.828125 21.140625 36.996094 21.847656 37.007812 22.847656 C 37.019531 25.398438 35.546875 27.777344 32.859375 29.53125 L 32.597656 29.699219 L 33.230469 30.894531 C 33.578125 31.550781 33.878906 32.125 33.890625 32.167969 C 33.925781 32.246094 30.644531 33.886719 30.453125 33.886719 C 30.40625 33.886719 28.949219 31.234375 27.226562 27.988281 C 25.496094 24.742188 24.054688 22.089844 24.015625 22.089844 C 23.980469 22.089844 22.535156 24.730469 20.808594 27.964844 C 18.976562 31.398438 17.601562 33.847656 17.511719 33.859375 C 17.425781 33.882812 16.613281 33.519531 15.699219 33.074219 M 20.144531 21.109375 C 21.757812 18.152344 23.054688 15.714844 23.035156 15.691406 C 23.015625 15.671875 22.558594 15.714844 22.015625 15.773438 C 14.929688 16.648438 11.347656 21.253906 14.929688 24.921875 C 15.636719 25.644531 17.042969 26.636719 17.179688 26.511719 C 17.195312 26.492188 18.53125 24.0625 20.144531 21.109375 M 32.214844 25.6875 C 33.402344 24.84375 34.234375 23.628906 34.421875 22.472656 C 34.917969 19.367188 31.457031 16.535156 26.285156 15.8125 C 25.621094 15.722656 25.054688 15.667969 25.023438 15.695312 C 24.976562 15.738281 29.261719 23.71875 30.519531 25.925781 L 30.882812 26.566406 L 31.21875 26.367188 C 31.402344 26.261719 31.851562 25.949219 32.214844 25.6875 M 32.214844 25.6875 "/>
</g>
</svg>
