<!-- color: #56656d -->
<svg xmlns="http://www.w3.org/2000/svg" xmlns:xlink="http://www.w3.org/1999/xlink" width="48px" height="48px" viewBox="0 0 48 48" version="1.1">
<g id="surface1">
<path style=" stroke:none;fill-rule:nonzero;fill:rgb(91.764706%,91.764706%,91.764706%);fill-opacity:1;" d="M 23.53125 16.070312 C 22.136719 16.496094 23.359375 18.484375 21.367188 19.460938 C 19.085938 20.570312 17.949219 17.761719 16.582031 19.769531 C 15.210938 21.769531 18.472656 21.460938 18.382812 23.824219 C 18.289062 26.183594 15.066406 25.683594 16.273438 27.769531 C 17.484375 29.851562 18.828125 27.117188 21.019531 28.363281 C 23.207031 29.609375 21.113281 31.90625 23.695312 31.996094 C 26.273438 32.074219 24.359375 29.648438 26.636719 28.539062 C 28.921875 27.425781 30.054688 30.234375 31.421875 28.230469 C 32.792969 26.222656 29.535156 26.535156 29.621094 24.171875 C 29.714844 21.8125 32.9375 22.3125 31.730469 20.226562 C 30.519531 18.144531 29.175781 20.878906 26.984375 19.632812 C 24.796875 18.386719 26.890625 16.089844 24.3125 16 C 23.988281 15.992188 23.734375 16.007812 23.53125 16.070312 M 23.53125 16.070312 "/>
<path style=" stroke:none;fill-rule:evenodd;fill:rgb(9.019608%,57.647059%,81.176471%);fill-opacity:1;" d="M 24 9 C 22.839844 11.839844 22.136719 13.695312 20.847656 16.449219 C 21.640625 17.285156 22.609375 18.257812 24.183594 19.355469 C 22.488281 18.660156 21.335938 17.960938 20.472656 17.238281 C 18.824219 20.679688 16.238281 25.578125 10.996094 34.988281 C 15.117188 32.613281 18.308594 31.144531 21.285156 30.585938 C 21.15625 30.035156 21.089844 29.441406 21.09375 28.820312 L 21.097656 28.691406 C 21.160156 26.050781 22.535156 24.019531 24.160156 24.160156 C 25.789062 24.296875 27.058594 26.550781 26.988281 29.191406 C 26.980469 29.6875 26.917969 30.164062 26.824219 30.605469 C 29.765625 31.183594 32.929688 32.644531 36.996094 34.988281 C 36.195312 33.515625 35.476562 32.183594 34.792969 30.917969 C 33.714844 30.085938 32.59375 29 30.300781 27.824219 C 31.875 28.234375 33.003906 28.707031 33.882812 29.234375 C 26.9375 16.304688 26.371094 14.585938 23.992188 8.992188 M 24 9 "/>
</g>
</svg>
