<!-- color: #eeeeee -->
<svg xmlns="http://www.w3.org/2000/svg" xmlns:xlink="http://www.w3.org/1999/xlink" width="48px" height="48px" viewBox="0 0 48 48" version="1.1">
<g id="surface1">
<path style=" stroke:none;fill-rule:nonzero;fill:rgb(32.54902%,32.54902%,32.54902%);fill-opacity:1;" d="M 23.980469 14.320312 C 19.773438 14.320312 16.375 17.546875 16.375 21.53125 C 16.375 25.515625 19.777344 28.765625 23.980469 28.765625 C 28.1875 28.765625 31.589844 25.515625 31.589844 21.53125 C 31.589844 17.546875 28.183594 14.320312 23.980469 14.320312 M 23.980469 20.207031 C 24.757812 20.207031 25.378906 20.796875 25.378906 21.53125 C 25.378906 22.265625 24.753906 22.875 23.980469 22.875 C 23.207031 22.875 22.585938 22.265625 22.585938 21.53125 C 22.585938 20.796875 23.210938 20.207031 23.980469 20.207031 M 23.980469 20.207031 "/>
<path style="fill:none;stroke-width:0.483;stroke-linecap:butt;stroke-linejoin:miter;stroke:rgb(32.54902%,32.54902%,32.54902%);stroke-opacity:1;stroke-miterlimit:4;" d="M 4.309456 286.660525 L 9.238509 286.660525 C 9.442703 286.660525 9.613047 286.82757 9.613047 287.033516 L 9.613047 293.40641 C 9.613047 293.613501 9.444887 293.780546 9.238509 293.780546 L 4.309456 293.780546 C 4.103078 293.780546 3.932734 293.613501 3.932734 293.40641 L 3.932734 287.033516 C 3.932734 286.82757 4.100894 286.660525 4.309456 286.660525 M 4.309456 286.660525 " transform="matrix(3.577323,0,0,3.414118,-0.232724,-966.864732)"/>
<path style=" stroke:none;fill-rule:nonzero;fill:rgb(32.54902%,32.54902%,32.54902%);fill-opacity:1;" d="M 26.5625 29.683594 L 29.980469 33.734375 L 31.691406 33.734375 L 31.691406 32.113281 M 26.5625 29.683594 "/>
</g>
</svg>
