<!-- color: #474747 -->
<svg xmlns="http://www.w3.org/2000/svg" xmlns:xlink="http://www.w3.org/1999/xlink" width="48px" height="48px" viewBox="0 0 48 48" version="1.1">
<defs>
<clipPath id="clip1">
  <path d="M 21 25 L 26 25 L 26 30 L 21 30 Z M 21 25 "/>
</clipPath>
<clipPath id="clip2">
  <path d="M 21.703125 25.21875 L 25.15625 25.21875 C 25.199219 25.21875 25.234375 25.253906 25.234375 25.296875 L 25.234375 29.328125 C 25.234375 29.371094 25.199219 29.40625 25.15625 29.40625 L 21.703125 29.40625 C 21.660156 29.40625 21.625 29.371094 21.625 29.328125 L 21.625 25.296875 C 21.625 25.253906 21.660156 25.21875 21.703125 25.21875 M 21.703125 25.21875 "/>
</clipPath>
</defs>
<g id="surface1">
<path style=" stroke:none;fill-rule:nonzero;fill:rgb(97.647059%,97.647059%,97.647059%);fill-opacity:1;" d="M 14.148438 11 C 14.148438 11 12.996094 11 12.996094 12.082031 L 12.996094 35.914062 C 12.996094 35.914062 12.996094 37 14.148438 37 L 34.847656 37 C 34.847656 37 36 37 36 35.914062 L 36 19.664062 L 26.800781 11 C 22.527344 10.996094 16.753906 10.996094 14.152344 10.996094 M 14.148438 11 "/>
<path style=" stroke:none;fill-rule:nonzero;fill:rgb(87.058824%,87.058824%,87.058824%);fill-opacity:1;" d="M 36 19.664062 L 26.800781 11 C 26.796875 15.332031 26.800781 17.496094 26.800781 18.582031 C 26.800781 19.664062 26.800781 19.664062 27.953125 19.664062 C 29.105469 19.664062 32.664062 19.679688 36.003906 19.664062 M 36 19.664062 "/>
<path style=" stroke:none;fill-rule:nonzero;fill:rgb(69.803922%,1.960784%,1.960784%);fill-opacity:1;" d="M 25.535156 24.980469 C 24.453125 24.75 23.394531 25.441406 23.167969 26.523438 L 21.929688 32.394531 C 21.699219 33.480469 22.390625 34.535156 23.472656 34.765625 L 25.429688 35.179688 C 26.515625 35.410156 27.570312 34.71875 27.800781 33.632812 L 29.039062 27.761719 C 29.269531 26.675781 28.578125 25.621094 27.492188 25.390625 M 25.71875 26.550781 L 26.695312 26.753906 C 27.238281 26.867188 27.582031 27.398438 27.46875 27.9375 L 26.4375 32.832031 C 26.324219 33.375 25.796875 33.71875 25.253906 33.605469 L 24.273438 33.398438 C 23.734375 33.285156 23.390625 32.757812 23.503906 32.214844 L 24.535156 27.324219 C 24.648438 26.78125 25.175781 26.4375 25.71875 26.550781 M 25.71875 26.550781 "/>
<path style=" stroke:none;fill-rule:nonzero;fill:rgb(63.529412%,1.568627%,1.568627%);fill-opacity:1;" d="M 20.011719 20.949219 C 19.152344 21.644531 19.023438 22.902344 19.722656 23.761719 L 23.503906 28.417969 C 24.191406 29.277344 25.449219 29.40625 26.316406 28.707031 L 27.867188 27.445312 C 28.730469 26.75 28.855469 25.492188 28.160156 24.632812 L 24.378906 19.976562 C 23.679688 19.117188 22.425781 18.988281 21.566406 19.6875 M 21.34375 21.796875 L 22.113281 21.167969 C 22.550781 20.816406 23.175781 20.882812 23.519531 21.3125 L 26.671875 25.191406 C 27.023438 25.621094 26.957031 26.25 26.527344 26.597656 L 25.753906 27.230469 C 25.324219 27.582031 24.695312 27.515625 24.34375 27.085938 L 21.191406 23.207031 C 20.839844 22.777344 20.910156 22.148438 21.339844 21.796875 M 21.339844 21.796875 "/>
<path style=" stroke:none;fill-rule:nonzero;fill:rgb(69.803922%,1.960784%,1.960784%);fill-opacity:1;" d="M 23.46875 13.441406 C 22.453125 13 21.277344 13.457031 20.832031 14.472656 L 18.421875 19.964844 C 17.980469 20.980469 18.4375 22.15625 19.449219 22.601562 L 21.28125 23.40625 C 22.292969 23.851562 23.472656 23.394531 23.917969 22.378906 L 26.328125 16.882812 C 26.769531 15.871094 26.3125 14.695312 25.300781 14.246094 M 23.320312 15.015625 L 24.234375 15.417969 C 24.742188 15.640625 24.972656 16.226562 24.75 16.734375 L 22.75 21.3125 C 22.523438 21.820312 21.9375 22.050781 21.429688 21.828125 L 20.515625 21.425781 C 20.007812 21.203125 19.777344 20.613281 20.003906 20.109375 L 22.003906 15.53125 C 22.226562 15.023438 22.816406 14.792969 23.320312 15.015625 M 23.320312 15.015625 "/>
<path style=" stroke:none;fill-rule:nonzero;fill:rgb(63.529412%,1.568627%,1.568627%);fill-opacity:1;" d="M 23.59375 19.375 L 22.90625 20.96875 C 23.136719 21.011719 23.371094 21.117188 23.53125 21.3125 L 24.097656 22.011719 L 24.761719 20.453125 L 24.375 19.96875 C 24.15625 19.699219 23.886719 19.496094 23.59375 19.375 M 23.59375 19.375 "/>
<g clip-path="url(#clip1)" clip-rule="nonzero">
<g clip-path="url(#clip2)" clip-rule="nonzero">
<path style=" stroke:none;fill-rule:nonzero;fill:rgb(69.803922%,1.960784%,1.960784%);fill-opacity:1;" d="M 25.535156 24.980469 C 24.453125 24.75 23.394531 25.441406 23.167969 26.523438 L 21.929688 32.394531 C 21.699219 33.480469 22.390625 34.535156 23.472656 34.765625 L 25.429688 35.179688 C 26.515625 35.410156 27.570312 34.71875 27.800781 33.632812 L 29.039062 27.761719 C 29.269531 26.675781 28.578125 25.621094 27.492188 25.390625 M 25.71875 26.550781 L 26.695312 26.753906 C 27.238281 26.867188 27.582031 27.398438 27.46875 27.9375 L 26.4375 32.832031 C 26.324219 33.375 25.796875 33.71875 25.253906 33.605469 L 24.273438 33.398438 C 23.734375 33.285156 23.390625 32.757812 23.503906 32.214844 L 24.535156 27.324219 C 24.648438 26.78125 25.175781 26.4375 25.71875 26.550781 M 25.71875 26.550781 "/>
</g>
</g>
</g>
</svg>
