<!-- color: #474747 -->
<svg xmlns="http://www.w3.org/2000/svg" xmlns:xlink="http://www.w3.org/1999/xlink" width="48px" height="48px" viewBox="0 0 48 48" version="1.1">
<g id="surface1">
<path style=" stroke:none;fill-rule:nonzero;fill:rgb(97.647059%,97.647059%,97.647059%);fill-opacity:1;" d="M 14.148438 11 C 14.148438 11 12.996094 11 12.996094 12.082031 L 12.996094 35.914062 C 12.996094 35.914062 12.996094 37 14.148438 37 L 34.847656 37 C 34.847656 37 36 37 36 35.914062 L 36 19.664062 L 26.800781 11 C 22.527344 10.996094 16.753906 10.996094 14.152344 10.996094 M 14.148438 11 "/>
<path style=" stroke:none;fill-rule:nonzero;fill:rgb(100%,43.529412%,1.176471%);fill-opacity:1;" d="M 38.433594 33.628906 C 38.433594 33.628906 38.996094 33.304688 38.996094 31.628906 C 38.996094 30.019531 38.363281 29.632812 38.363281 29.632812 L 23.292969 29.632812 L 18.996094 31.628906 L 23.292969 33.628906 M 38.433594 33.628906 "/>
<path style=" stroke:none;fill-rule:nonzero;fill:rgb(100%,75.686275%,23.921569%);fill-opacity:1;" d="M 23 29.789062 L 19 31.632812 L 23 33.476562 M 23 29.789062 "/>
<path style=" stroke:none;fill-rule:nonzero;fill:rgb(17.647059%,17.647059%,17.647059%);fill-opacity:1;" d="M 21 30.6875 L 19 31.625 L 21 32.5625 M 21 30.6875 "/>
<path style=" stroke:none;fill-rule:nonzero;fill:rgb(100%,17.647059%,36.078431%);fill-opacity:1;" d="M 36 29.628906 L 36 33.628906 L 38.4375 33.628906 C 38.4375 33.628906 39 33.304688 39 31.628906 C 39 30.015625 38.375 29.628906 38.375 29.628906 M 36 29.628906 "/>
<path style=" stroke:none;fill-rule:nonzero;fill:rgb(78.039216%,18.823529%,18.823529%);fill-opacity:1;" d="M 24.53125 13.019531 C 24.53125 13.019531 25.222656 19.390625 20.339844 27.796875 C 15.457031 36.207031 14.023438 35.078125 13.511719 34.789062 C 12.996094 34.496094 12.335938 33.550781 14.503906 31.65625 C 16.667969 29.765625 17.515625 29.800781 17.515625 29.800781 C 17.515625 29.800781 15.535156 31 14.761719 32.167969 C 13.988281 33.332031 13.363281 34.058594 13.550781 34.386719 C 13.734375 34.714844 15.945312 33.046875 16.863281 31.625 C 18.320312 29.371094 21.074219 25.175781 22.359375 21.171875 C 23.644531 17.171875 24.53125 13.019531 24.53125 13.019531 M 24.535156 13.019531 "/>
<path style=" stroke:none;fill-rule:nonzero;fill:rgb(78.039216%,18.823529%,18.823529%);fill-opacity:1;" d="M 23.375 11 C 23.183594 11.035156 23.015625 11.21875 22.8125 11.5625 C 22.40625 12.253906 22.199219 14.175781 22.53125 16.03125 C 22.859375 17.890625 24.21875 22.160156 25.90625 24.125 C 27.59375 26.089844 30.972656 27.804688 33.46875 28.3125 C 34.757812 28.578125 35.546875 28.398438 36 28.1875 L 36 27.96875 C 35.800781 27.988281 35.527344 27.96875 35.15625 27.9375 C 33.871094 27.828125 28.898438 26.269531 26.21875 23.0625 C 23.539062 19.859375 23.308594 15.449219 23.125 13.15625 C 22.941406 10.863281 23.945312 11.492188 24.09375 11.78125 C 24.207031 11.886719 24.316406 12.101562 24.375 12.28125 C 24.320312 11.976562 24.242188 11.554688 23.96875 11.28125 C 23.765625 11.089844 23.566406 10.96875 23.375 11.007812 M 23.375 11.007812 "/>
<path style=" stroke:none;fill-rule:nonzero;fill:rgb(78.039216%,18.823529%,18.823529%);fill-opacity:1;" d="M 32.53125 25.75 C 28.898438 25.859375 28.621094 26.003906 25.28125 26.625 C 21.941406 27.242188 20.3125 28.59375 20.3125 28.59375 C 20.3125 28.59375 25.160156 27.03125 29.75 26.59375 C 33.613281 26.226562 35.308594 26.519531 36 26.8125 L 36 25.9375 C 35.402344 25.769531 34.378906 25.695312 32.53125 25.75 M 32.53125 25.75 "/>
<path style=" stroke:none;fill-rule:nonzero;fill:rgb(87.058824%,87.058824%,87.058824%);fill-opacity:1;" d="M 36 19.664062 L 26.800781 11 C 26.796875 15.332031 26.800781 17.496094 26.800781 18.582031 C 26.800781 19.664062 26.800781 19.664062 27.953125 19.664062 C 29.105469 19.664062 32.664062 19.679688 36.003906 19.664062 M 36 19.664062 "/>
</g>
</svg>
