<!-- color: #bd82e6 -->
<svg xmlns="http://www.w3.org/2000/svg" xmlns:xlink="http://www.w3.org/1999/xlink" width="48px" height="48px" viewBox="0 0 48 48" version="1.1">
<g id="surface1">
<path style=" stroke:none;fill-rule:nonzero;fill:rgb(97.647059%,97.647059%,97.647059%);fill-opacity:1;" d="M 23.773438 24 L 24.230469 24 C 25.207031 24 26 24.792969 26 25.769531 L 26 34.226562 C 26 35.207031 25.207031 36 24.230469 36 L 23.773438 36 C 22.792969 36 22 35.207031 22 34.226562 L 22 25.769531 C 22 24.792969 22.792969 24 23.773438 24 M 23.773438 24 "/>
<path style=" stroke:none;fill-rule:nonzero;fill:rgb(97.647059%,97.647059%,97.647059%);fill-opacity:1;" d="M 19.058594 23 C 21.179688 20.878906 26.824219 20.878906 28.941406 23 L 30.351562 21.585938 C 27.527344 18.761719 20.46875 18.761719 17.644531 21.585938 M 19.058594 23 "/>
<path style=" stroke:none;fill-rule:nonzero;fill:rgb(97.647059%,97.647059%,97.647059%);fill-opacity:1;" d="M 16.234375 20.179688 L 14.824219 18.765625 C 19.058594 14.527344 28.945312 14.527344 33.179688 18.765625 C 32.707031 19.238281 35.742188 16.203125 31.769531 20.179688 C 28.238281 16.648438 19.769531 16.648438 16.238281 20.179688 M 16.234375 20.179688 "/>
<path style=" stroke:none;fill-rule:nonzero;fill:rgb(97.647059%,97.647059%,97.647059%);fill-opacity:1;" d="M 13.410156 17.351562 L 12 15.9375 C 17.648438 10.285156 30.355469 10.285156 36 15.9375 L 34.589844 17.351562 C 29.648438 12.410156 18.355469 12.410156 13.410156 17.351562 M 13.40625 17.351562 "/>
</g>
</svg>
