<!-- color: #5490db -->
<svg xmlns="http://www.w3.org/2000/svg" xmlns:xlink="http://www.w3.org/1999/xlink" width="48px" height="48px" viewBox="0 0 48 48" version="1.1">
<g id="surface1">
<path style=" stroke:none;fill-rule:nonzero;fill:rgb(0%,100%,12.54902%);fill-opacity:0.666667;" d="M 16 1.90625 L 15.160156 2.15625 L 14.191406 2.222656 L 13.59375 2.65625 L 12.816406 2.625 L 12.878906 3.125 L 14.003906 3.09375 L 14.410156 4.1875 L 14.566406 4.785156 L 13.941406 5.128906 L 13.691406 5.59375 L 13.878906 6.65625 L 14.628906 6.78125 L 15.347656 6.09375 L 15.972656 5.4375 L 16.941406 5.1875 L 18.160156 4.59375 L 18.878906 3.71875 L 19.910156 2.464844 L 20.628906 2.277344 L 20.597656 2 L 19.472656 2 L 16.003906 1.90625 M 13.785156 1.96875 L 12.972656 2.003906 L 11.566406 2.378906 L 10.753906 2.628906 L 9.816406 2.253906 L 9.691406 2.816406 L 10.8125 3.472656 C 10.8125 3.472656 12.859375 2.347656 12.972656 2.347656 M 34.84375 2.191406 L 34.65625 2.507812 L 35.8125 2.65625 L 35.875 2.386719 M 25.96875 2.386719 C 25.914062 2.40625 24.4375 2.410156 24.4375 2.410156 L 24.0625 2.507812 L 24.5625 3.105469 L 25.09375 2.605469 L 25.4375 2.824219 L 25.9375 2.574219 C 25.9375 2.574219 26.027344 2.363281 25.96875 2.386719 M 31.59375 2.851562 L 31.128906 2.914062 L 30.71875 3.164062 L 30.253906 3.511719 L 29.972656 4.011719 L 30.410156 4.449219 L 30.785156 4.480469 L 30.941406 4.226562 L 30.566406 3.914062 L 30.785156 3.726562 L 30.816406 3.574219 L 31.285156 3.261719 C 31.285156 3.261719 31.894531 3.269531 31.9375 3.261719 C 31.988281 3.25 32.128906 3.070312 32.128906 3.070312 L 31.972656 2.847656 M 5.722656 3.035156 L 5.628906 3.351562 L 6.097656 3.507812 L 6.628906 3.257812 M 37.503906 3.132812 L 35.375 3.226562 L 34.8125 3.601562 L 34.1875 3.976562 L 33.65625 4.414062 L 33.722656 4.601562 L 33.441406 4.632812 L 33.441406 4.636719 L 29.355469 5.316406 L 25.777344 8.007812 L 25.402344 8.289062 L 25.371094 8.289062 L 25.117188 8.195312 C 25.117188 8.195312 24.960938 8.203125 24.898438 8.261719 C 24.835938 8.3125 24.777344 8.363281 24.585938 8.382812 C 24.394531 8.402344 24.019531 8.382812 23.984375 8.382812 L 23.765625 8.382812 L 23.796875 8.15625 L 23.953125 7.90625 L 23.671875 7.683594 C 23.671875 7.683594 23.492188 7.914062 23.484375 7.964844 C 23.476562 8.019531 23.609375 8.246094 23.609375 8.246094 C 23.609375 8.246094 23.546875 8.425781 23.515625 8.464844 C 23.484375 8.503906 23.203125 8.589844 23.203125 8.589844 L 22.769531 8.371094 C 22.769531 8.371094 22.585938 8.332031 22.613281 8.433594 C 22.636719 8.535156 22.832031 8.628906 22.832031 8.714844 C 22.832031 8.796875 22.707031 8.992188 22.707031 8.992188 L 22.550781 9.179688 L 22.300781 9.433594 L 21.957031 9.523438 C 21.957031 9.523438 21.710938 9.59375 21.644531 9.617188 C 21.582031 9.640625 21.394531 9.683594 21.394531 9.683594 L 21.140625 9.714844 L 20.984375 9.9375 L 21.265625 10.128906 L 21.453125 10.4375 C 21.453125 10.4375 21.578125 10.660156 21.609375 10.660156 C 21.640625 10.660156 21.703125 10.878906 21.703125 10.878906 L 21.515625 11.128906 L 21.417969 11.128906 L 20.761719 11.253906 L 20.640625 10.972656 L 20.203125 11.410156 L 20.015625 12.128906 L 20.015625 12.726562 L 20.765625 13.132812 L 21.363281 12.914062 L 21.957031 11.847656 L 22.488281 11.195312 L 23.457031 11.039062 L 23.675781 10.851562 L 24.769531 12.132812 L 24.894531 12.570312 L 25.207031 12.414062 L 25.113281 12.039062 L 25.300781 12.039062 L 25.179688 11.785156 L 24.113281 10.785156 L 24.207031 10.597656 L 24.550781 10.566406 L 25.300781 11.316406 L 25.675781 11.757812 L 25.675781 12.445312 L 25.867188 12.570312 L 26.242188 12.945312 L 26.519531 12.851562 L 26.363281 12.285156 L 26.457031 11.941406 L 26.644531 11.722656 L 27.085938 11.878906 L 27.238281 11.941406 L 27.207031 11.441406 L 27.460938 10.972656 L 27.613281 10.285156 L 28.179688 10.378906 L 28.273438 10.691406 L 28.492188 10.847656 L 28.742188 10.628906 L 28.585938 10.285156 L 29.242188 10.285156 L 29.023438 10.660156 L 29.457031 11.035156 L 29.835938 11.222656 L 30.054688 11.660156 L 29.554688 11.78125 L 28.835938 11.625 L 28.210938 11.625 L 27.617188 11.941406 L 27.492188 12.128906 L 27.054688 12.222656 L 27.242188 12.691406 L 27.585938 13.097656 L 28.210938 12.878906 L 28.367188 13.15625 L 28.648438 12.9375 L 29.023438 13 L 29.054688 13.410156 L 28.929688 14.1875 L 28.585938 14.15625 L 28.179688 14.09375 L 27.988281 14.558594 L 26.613281 14.308594 L 26.363281 13.992188 L 26.050781 14.273438 L 25.707031 14.742188 L 24.832031 14.242188 L 23.957031 13.714844 L 23.957031 12.773438 L 23.390625 12.804688 L 23.359375 13.117188 L 21.984375 13.054688 L 21.550781 13.457031 L 20.707031 13.488281 L 20.144531 13.988281 L 19.800781 14.957031 L 18.925781 15.648438 L 18.300781 16.492188 L 18.269531 18.117188 L 18.082031 18.617188 L 18.015625 19.214844 L 18.394531 19.867188 L 18.613281 20.492188 L 19.363281 21.398438 L 19.800781 21.773438 L 20.234375 21.867188 L 20.332031 21.492188 L 21.894531 21.492188 L 22.300781 21.304688 L 22.800781 21.367188 L 22.957031 21.679688 L 23.484375 21.710938 L 23.832031 21.960938 L 23.832031 22.492188 L 23.707031 22.929688 L 23.582031 23.273438 L 23.894531 23.839844 L 24.304688 24.308594 L 24.492188 25.496094 L 24.523438 26.273438 L 24.242188 26.929688 L 24.214844 27.554688 L 24.433594 28.710938 L 24.621094 28.898438 L 24.902344 29.992188 L 24.933594 30.460938 L 25.496094 31.210938 L 25.5625 31.804688 L 25.652344 32.492188 L 25.996094 32.148438 L 26.871094 32.058594 L 27.402344 32.058594 L 28.371094 30.558594 L 28.433594 29.964844 L 29.089844 29.308594 L 29.121094 28.558594 L 29.464844 27.804688 L 30.277344 27.027344 L 30.277344 26.152344 L 30.089844 25.339844 L 29.964844 24.214844 L 30.5625 23.277344 L 31.625 21.964844 L 32.03125 21.558594 L 32.1875 21.027344 L 32.4375 20.558594 L 32.503906 19.867188 L 31.90625 19.867188 L 31.628906 20.148438 L 31.0625 19.992188 L 30.71875 19.429688 L 30.441406 18.867188 L 29.785156 18.367188 L 29.628906 17.554688 L 29.347656 17.082031 L 29.039062 16.488281 L 28.628906 15.769531 L 28.539062 15.300781 L 28.972656 15.238281 L 29.226562 15.769531 L 29.726562 16.707031 L 30.101562 17.394531 L 30.507812 18.144531 L 30.945312 18.867188 L 31.539062 19.464844 L 32.070312 18.964844 L 32.664062 18.808594 L 33.105469 18.277344 L 33.699219 17.933594 L 34.042969 17.339844 L 34.078125 16.839844 L 33.796875 16.523438 L 33.421875 16.085938 L 33.167969 16.242188 L 33.011719 16.496094 L 32.605469 16.308594 L 32.480469 15.996094 L 32.203125 15.585938 L 31.765625 15.179688 L 31.765625 14.367188 L 32.046875 14.898438 L 32.390625 15.433594 L 32.984375 15.777344 L 33.390625 15.683594 L 33.644531 15.964844 L 35.425781 15.929688 L 35.394531 15.964844 L 35.960938 16.464844 L 36.367188 17.027344 L 36.488281 17.304688 L 36.769531 17.304688 L 36.863281 16.996094 L 36.953125 17.460938 L 37.109375 18.304688 L 37.453125 19.117188 L 37.644531 19.804688 L 37.925781 20.460938 L 38.144531 20.738281 L 38.457031 20.550781 L 38.546875 20.238281 L 38.671875 19.460938 L 38.640625 18.773438 L 38.890625 18.457031 C 38.890625 18.457031 39.15625 18.097656 39.203125 18.082031 C 39.25 18.070312 39.828125 17.429688 39.828125 17.429688 L 40.105469 17.082031 L 40.417969 16.894531 L 40.792969 16.675781 L 40.949219 16.675781 L 41.015625 17.019531 L 41.171875 17.425781 L 41.671875 18.078125 L 41.671875 18.328125 L 41.761719 18.609375 L 42.105469 18.453125 L 42.074219 18.078125 L 42.390625 18.144531 L 42.453125 18.488281 L 42.421875 19.019531 L 42.515625 19.394531 L 42.792969 19.460938 L 42.886719 19.144531 L 43.230469 19.363281 L 43.292969 19.679688 L 43.605469 20.148438 L 43.921875 20.492188 L 44.140625 20.683594 L 44.671875 20.214844 L 44.890625 19.773438 L 44.800781 19.273438 L 44.703125 18.617188 L 44.109375 18.054688 L 44.015625 17.488281 L 44.269531 17.089844 C 44.269531 17.089844 44.425781 16.769531 44.578125 16.933594 C 44.730469 17.101562 44.804688 17.121094 44.734375 17.308594 C 44.671875 17.492188 44.546875 17.90625 44.546875 17.90625 L 44.921875 18.0625 L 45.078125 17.53125 L 44.921875 17.152344 L 45.296875 16.996094 L 45.984375 16.652344 L 46.425781 16.121094 L 46.769531 15.3125 L 46.738281 14.714844 L 46.394531 13.9375 L 45.703125 13.121094 L 45.265625 12.71875 L 45.046875 12.09375 L 45.453125 11.996094 C 45.453125 11.996094 45.6875 11.597656 45.890625 11.808594 C 46.09375 12.027344 46.390625 12.339844 46.390625 12.339844 C 46.390625 12.339844 46.746094 12.902344 46.796875 12.964844 C 46.847656 13.027344 47.214844 13.367188 47.265625 13.433594 C 47.316406 13.496094 47.546875 13.746094 47.546875 13.746094 L 47.921875 13.21875 L 48.011719 13.121094 L 48.011719 12.933594 L 47.480469 12.617188 L 47.015625 12.183594 L 47.355469 11.429688 L 47.921875 11.152344 L 48.011719 10.898438 L 48.011719 9.429688 L 47.734375 8.867188 L 47.421875 8.429688 C 47.421875 8.429688 47.097656 8.382812 47.015625 8.398438 C 46.929688 8.414062 46.234375 7.898438 46.234375 7.898438 L 46.300781 7.398438 L 46.554688 6.960938 L 47.742188 6.808594 L 48.019531 6.839844 L 48.019531 6.527344 L 46.300781 4.277344 L 44.648438 4.089844 L 43.363281 3.773438 C 43.363281 3.773438 42.976562 4.070312 42.769531 4.089844 C 42.566406 4.105469 41.863281 4.214844 41.863281 4.214844 L 41.144531 3.773438 L 39.644531 3.648438 L 39.578125 3.617188 L 38.296875 3.554688 L 37.519531 3.117188 M 25.785156 8.011719 L 29.363281 5.308594 L 28.144531 5.964844 L 27.835938 5.742188 L 27.679688 5.492188 L 27.742188 5.238281 L 28.433594 5.273438 L 28.746094 5.148438 L 28.121094 4.835938 L 27.246094 4.519531 L 26.371094 4.363281 L 25.433594 4.554688 L 24.460938 5.335938 L 24.019531 5.773438 L 23.367188 6.492188 L 23.113281 6.523438 L 23.023438 6.867188 L 23.144531 7.210938 C 23.144531 7.210938 23.28125 7.367188 23.300781 7.367188 C 23.324219 7.367188 23.554688 7.242188 23.554688 7.242188 C 23.554688 7.242188 23.582031 7.125 23.710938 7.085938 C 23.839844 7.046875 23.960938 7.023438 23.960938 7.023438 L 24.148438 7.398438 L 24.367188 7.710938 L 24.46875 7.960938 C 24.46875 7.960938 24.824219 7.738281 24.84375 7.710938 C 24.855469 7.679688 24.867188 7.300781 24.867188 7.300781 L 25.148438 7.113281 C 25.148438 7.113281 25.222656 6.980469 25.214844 6.957031 C 25.199219 6.9375 25.023438 6.738281 25.023438 6.738281 L 24.867188 6.675781 L 24.933594 6.359375 C 24.933594 6.359375 25.054688 6.308594 25.054688 6.265625 C 25.054688 6.226562 25.242188 6.078125 25.242188 6.078125 L 25.472656 5.800781 L 25.621094 5.613281 L 25.847656 5.457031 L 26.097656 5.644531 L 26.097656 5.769531 L 25.871094 6.019531 L 25.808594 6.269531 L 25.808594 6.613281 L 25.996094 6.769531 L 26.347656 6.738281 L 26.65625 6.675781 L 26.9375 6.832031 L 26.871094 7.050781 C 26.871094 7.050781 26.679688 7.238281 26.617188 7.269531 C 26.5625 7.300781 26.207031 7.207031 26.121094 7.238281 C 26.03125 7.269531 25.808594 7.554688 25.808594 7.554688 C 25.808594 7.554688 25.78125 7.804688 25.808594 7.867188 C 25.816406 7.890625 25.804688 7.9375 25.796875 7.996094 M 29.359375 5.316406 L 33.449219 4.621094 L 33.421875 4.464844 L 33.105469 4.027344 L 32.449219 3.964844 C 32.449219 3.964844 32.605469 4.628906 32.605469 4.714844 C 32.605469 4.796875 32.171875 4.742188 32.171875 4.742188 L 31.417969 4.777344 C 31.417969 4.777344 30.335938 5.027344 30.199219 5.027344 C 30.070312 5.027344 29.4375 5.289062 29.390625 5.308594 L 29.363281 5.3125 M 4.3125 3.488281 L 3.8125 4.054688 L 4.253906 4.273438 L 4.816406 4.019531 L 4.847656 4.644531 L 5.316406 4.960938 L 5.816406 4.488281 L 6.503906 4.613281 L 6.785156 3.960938 L 5.660156 3.863281 M 7.441406 3.585938 L 7.878906 4.679688 L 7.351562 4.742188 L 6.945312 5.242188 L 6.035156 4.964844 L 5.226562 5.277344 L 4.445312 5.089844 L 3.539062 4.523438 L 2.289062 4.554688 L 1.191406 5.023438 L 0.472656 4.679688 L 0.0351562 4.648438 L 0.0351562 18.242188 L 0.878906 18.710938 L 1.375 18.644531 L 2.101562 18.988281 L 3.195312 19.585938 L 3.351562 20.308594 L 4.226562 21.148438 L 4.726562 20.773438 L 5.128906 21.089844 L 5.066406 20.367188 L 4.285156 20.558594 L 4.035156 19.652344 L 3.941406 19.242188 L 3.253906 18.621094 L 3.253906 18.183594 L 3.78125 17.617188 L 3.4375 17.214844 L 2.875 17.304688 L 2.03125 18.148438 L 1.34375 18.058594 C 1.34375 18.058594 1.03125 17.527344 0.96875 17.402344 C 0.90625 17.277344 1.15625 16.839844 1.15625 16.839844 L 1.09375 15.554688 L 1.8125 15.054688 L 2.375 14.863281 L 3.1875 14.863281 L 4.3125 14.613281 L 4.722656 15.144531 L 4.65625 15.769531 L 5.128906 16.175781 L 5.191406 15.734375 C 5.191406 15.734375 5.164062 15.015625 5.101562 14.828125 C 5.035156 14.640625 5.664062 14.203125 5.664062 14.203125 L 6.164062 13.589844 L 6.761719 12.863281 L 7.039062 12.300781 L 7.980469 11.804688 L 8.605469 11.113281 C 8.605469 11.113281 9.539062 10.964844 9.730469 10.859375 C 9.917969 10.769531 9.792969 10.425781 9.605469 10.109375 C 9.414062 9.796875 9.695312 9.484375 9.695312 9.484375 L 10.414062 9.050781 L 11.039062 9.171875 L 11.101562 9.925781 C 11.101562 9.925781 11.691406 10.488281 11.882812 10.390625 C 12.074219 10.300781 12.164062 9.984375 12.164062 9.984375 L 11.851562 9.171875 L 12.039062 8.363281 L 11.195312 8.484375 L 11.195312 7.109375 L 10.945312 7.363281 L 10.289062 7.394531 L 10.195312 6.707031 L 9.761719 6.175781 C 9.761719 6.175781 9.324219 6.425781 8.910156 6.582031 C 8.496094 6.738281 8.597656 7.050781 8.597656 7.050781 L 8.566406 7.894531 L 7.878906 8.457031 L 7.441406 9.113281 C 7.441406 9.113281 7.164062 8.925781 7.164062 8.800781 C 7.164062 8.675781 7.097656 8.332031 7.097656 8.332031 L 6.378906 7.769531 C 6.378906 7.769531 5.816406 7.363281 5.785156 7.238281 C 5.753906 7.113281 6.128906 6.550781 6.128906 6.550781 C 6.128906 6.550781 6.9375 6.050781 7.128906 5.894531 C 7.320312 5.738281 8.34375 6.238281 8.46875 6.148438 C 8.597656 6.054688 9.09375 5.273438 9.09375 5.273438 L 9.53125 4.675781 L 9.09375 5.175781 L 8.34375 4.457031 L 8.464844 3.738281 L 7.433594 3.582031 M 9.941406 3.617188 L 9.6875 4.242188 L 9.84375 4.585938 L 10.40625 4.519531 L 10.660156 4.988281 L 10.160156 5.519531 L 9.597656 5.582031 L 10.097656 5.804688 L 10.628906 6.269531 L 11.160156 6.394531 L 11.347656 5.675781 L 11.378906 5.238281 L 12.003906 5.332031 C 12.003906 5.332031 11.816406 5.644531 11.910156 5.644531 C 12.007812 5.644531 12.378906 5.238281 12.378906 5.238281 L 11.316406 4.140625 C 11.316406 4.140625 10.878906 3.796875 10.75 3.890625 C 10.625 3.980469 10.285156 3.953125 10.285156 3.953125 L 9.941406 3.609375 M 18.628906 5.398438 L 18.503906 5.808594 C 18.957031 6.15625 19.128906 6.152344 19.128906 6.152344 L 19.660156 6.027344 L 20.003906 5.683594 L 19.785156 5.402344 L 18.628906 5.402344 M 21.410156 7.183594 L 21.160156 7.402344 C 21.085938 7.707031 21.003906 8.023438 21.003906 8.023438 L 21.46875 8.246094 L 21.535156 8.523438 L 21.28125 8.777344 L 21.0625 9.152344 L 21.21875 9.308594 L 21.78125 9.214844 L 22.28125 8.996094 L 22 8.621094 L 21.910156 7.964844 L 21.566406 7.589844 M 20.628906 8.367188 L 20.351562 8.835938 L 20.726562 8.992188 L 20.882812 8.710938 M 5.191406 9.464844 L 5.847656 9.742188 L 6.285156 10.308594 L 6.5625 10.742188 C 6.5625 10.742188 6.316406 11.585938 6.25 11.742188 C 6.1875 11.898438 6 11.429688 6 11.429688 L 5.84375 10.617188 L 5.3125 10.839844 L 4.90625 11.804688 L 4.996094 10.996094 L 5.121094 10.429688 L 4.464844 10.179688 L 5.03125 9.648438 L 5.183594 9.460938 M 31.570312 10.214844 C 31.703125 10.171875 31.945312 10.371094 31.945312 10.371094 L 31.691406 10.589844 L 31.785156 10.902344 L 32.066406 11.652344 L 32.34375 12.121094 L 32.71875 12.714844 L 32.3125 12.90625 L 31.78125 12.5625 L 31.5625 11.90625 C 31.5625 11.90625 31.261719 11.5 31.125 11.4375 C 30.992188 11.371094 30.875 11.15625 30.875 11.15625 L 31 10.625 C 31 10.625 31.425781 10.265625 31.5625 10.21875 M 23.664062 11.402344 L 23.289062 12.121094 L 23.566406 12.402344 L 23.820312 12.179688 L 23.851562 11.871094 M 22.414062 12.152344 L 22.414062 12.339844 L 22.570312 12.308594 M 24.570312 12.621094 L 24.382812 12.683594 L 24.695312 13.214844 L 24.976562 12.996094 M 4.445312 16.808594 L 4.132812 16.964844 L 4.664062 17.246094 L 5.257812 17.367188 L 5.601562 17.835938 L 6.011719 17.585938 L 5.945312 17.304688 L 5.257812 16.804688 L 4.449219 16.804688 M 6.132812 19.902344 L 5.320312 20.34375 L 5.226562 21.246094 L 5.035156 22.246094 L 4.472656 22.996094 L 4.503906 24.121094 L 4.972656 25.277344 L 5.472656 26.683594 L 6.78125 27.996094 L 6.847656 28.746094 L 6.9375 32.128906 L 7.40625 34.03125 C 7.40625 34.03125 7.695312 35.132812 7.625 35.21875 C 7.5625 35.308594 8 36.128906 8 36.128906 L 8.882812 37.503906 L 10.101562 38.03125 L 9.601562 37.433594 L 9.347656 36.746094 L 9.601562 36.027344 L 8.945312 35.683594 C 8.945312 35.683594 9.378906 35.398438 9.445312 35.308594 C 9.511719 35.21875 9.351562 34.839844 9.351562 34.839844 L 9.160156 34.375 L 9.660156 33.71875 L 10.441406 33.53125 L 10.5625 32.933594 L 10.097656 32.714844 L 10.285156 32.214844 L 11.035156 32.121094 L 11.691406 30.523438 L 12.15625 29.429688 L 13.125 28.960938 C 13.125 28.960938 13.441406 28.03125 13.441406 27.894531 C 13.441406 27.765625 13.535156 26.363281 13.535156 26.363281 L 14.285156 25.339844 L 14.375 24.648438 L 13.8125 24.304688 L 13.34375 23.738281 L 12.5 23.804688 L 11.15625 23.023438 L 10.875 22.367188 C 10.875 22.367188 10.402344 21.554688 10.3125 21.554688 C 10.222656 21.554688 9.65625 21.589844 9.65625 21.589844 L 9.125 21.058594 L 8.78125 20.402344 L 7.4375 20.121094 L 7.003906 19.902344 L 6.128906 19.902344 M 42.5625 20.394531 C 42.675781 20.523438 43.378906 22.613281 43.46875 22.613281 C 43.558594 22.613281 44.09375 22.679688 44.09375 22.679688 L 43.8125 21.835938 M 38.96875 20.460938 L 38.65625 20.867188 L 38.8125 21.464844 L 39.152344 21.089844 L 39.089844 20.617188 M 47.058594 21.179688 L 45.589844 21.992188 C 45.589844 22.085938 44.871094 22.683594 44.871094 22.683594 L 45.058594 23.308594 L 45.464844 23.773438 L 45.746094 24.460938 L 47.621094 23.242188 L 47.054688 21.179688 M 42.46875 21.617188 L 42.03125 21.683594 L 44.03125 24.683594 L 44.5625 25.277344 L 45.871094 25.339844 L 46.683594 25.59375 L 45.808594 24.96875 L 44.558594 24.625 L 44.246094 23.46875 L 43.558594 22.90625 L 42.464844 21.625 M 31.96875 26.492188 L 31.96875 26.929688 C 31.945312 26.996094 31.5625 27.304688 31.5625 27.304688 L 31.09375 27.523438 L 30.75 27.804688 L 31 28.148438 L 31.15625 28.304688 L 30.75 28.648438 L 30.75 29.210938 L 30.90625 29.804688 L 31.25 29.898438 L 31.65625 29.273438 L 31.910156 28.867188 L 31.84375 28.367188 L 32.21875 27.773438 L 32.34375 27.492188 L 32.34375 26.929688 L 32.25 26.492188 M 48.03125 27.210938 C 48.027344 27.210938 48 27.242188 48 27.242188 L 47.5 28.273438 C 47.5 28.273438 46.398438 28.4375 46.371094 28.527344 C 46.351562 28.613281 45.808594 28.902344 45.808594 28.902344 C 45.695312 28.902344 45.339844 29.558594 45.339844 29.558594 L 45.273438 31.621094 L 45.148438 32.371094 L 45.464844 32.777344 L 46.992188 32.246094 L 47.492188 31.683594 L 48.023438 31.683594 L 48.023438 27.214844 M 11.496094 35.960938 L 11.273438 36.117188 L 11.183594 36.148438 L 11.683594 36.398438 L 11.492188 35.964844 M 10.648438 36.148438 L 10.429688 36.648438 L 10.863281 36.554688 L 10.644531 36.148438 M 12.144531 40.273438 L 11.679688 40.992188 L 10.804688 41.398438 L 11.304688 42.023438 L 10.550781 42.398438 L 8.082031 42.273438 L 7.332031 41.523438 L 6.675781 41.398438 L 7.332031 42.773438 L 6.175781 42.554688 L 2.207031 42.679688 L 1.363281 43.773438 L 0.144531 43.648438 L 0.0195312 43.902344 L 0.0195312 47.992188 L 45.300781 47.992188 L 48.019531 46.210938 L 48.019531 44.304688 L 47.894531 43.117188 L 46.925781 42.898438 L 45.707031 43.054688 L 44.832031 43.824219 L 43.359375 44.429688 L 43.984375 43.675781 L 45.324219 42.898438 L 47.484375 42.398438 L 47.734375 41.523438 L 46.734375 41.523438 C 46.734375 41.523438 45.394531 40.855469 45.394531 40.679688 C 45.394531 40.503906 43.894531 40.554688 43.894531 40.554688 L 42.175781 40.742188 L 40.519531 40.652344 L 37.203125 40.777344 L 34.144531 41.398438 C 34.144531 41.398438 32.664062 42.191406 32.488281 42.152344 C 32.308594 42.109375 33.113281 41.121094 33.113281 41.121094 L 31.675781 41.210938 L 30.769531 40.460938 L 29.863281 41.082031 C 29.863281 41.082031 28.648438 41.175781 28.335938 41.175781 C 28.019531 41.175781 27.613281 41.738281 27.613281 41.738281 L 25.144531 41.648438 L 20.894531 41.835938 L 19.769531 42.800781 L 19.492188 42.835938 L 16.273438 42.613281 L 14.054688 42.835938 L 13.277344 42.457031 L 13.308594 42.394531 C 13.308594 42.394531 12.652344 41.074219 12.652344 40.894531 C 12.652344 40.71875 12.152344 40.273438 12.152344 40.273438 M 12.484375 43.460938 L 13.832031 43.898438 L 12.179688 43.898438 L 11.523438 43.554688 M 12.488281 43.460938 "/>
<path style=" stroke:none;fill-rule:evenodd;fill:rgb(97.647059%,97.647059%,97.647059%);fill-opacity:1;" d="M 29.011719 13.039062 C 30.933594 14.171875 32.128906 15.855469 31.988281 17.097656 L 24.148438 12.472656 C 24.121094 12.457031 24.097656 12.445312 24.078125 12.433594 C 25.058594 11.6875 27.085938 11.90625 29.015625 13.039062 M 29.011719 13.039062 "/>
<path style=" stroke:none;fill-rule:evenodd;fill:rgb(97.647059%,97.647059%,97.647059%);fill-opacity:1;" d="M 30.84375 16.980469 L 30.351562 16.6875 C 29.808594 16.367188 29.117188 16.558594 28.804688 17.109375 L 22.679688 27.949219 C 22.367188 28.5 22.554688 29.207031 23.09375 29.527344 L 23.589844 29.820312 C 24.128906 30.136719 24.824219 29.949219 25.136719 29.394531 L 31.257812 18.558594 C 31.570312 18.003906 31.386719 17.296875 30.84375 16.980469 M 30.84375 16.980469 "/>
<path style=" stroke:none;fill-rule:evenodd;fill:rgb(97.647059%,97.647059%,97.647059%);fill-opacity:1;" d="M 28.050781 15.328125 L 27.558594 15.039062 C 27.015625 14.71875 26.324219 14.90625 26.011719 15.460938 L 19.886719 26.296875 C 19.574219 26.851562 19.761719 27.558594 20.300781 27.878906 L 20.796875 28.167969 C 21.335938 28.488281 22.03125 28.300781 22.34375 27.746094 L 28.464844 16.910156 C 28.777344 16.355469 28.59375 15.648438 28.050781 15.328125 M 28.050781 15.328125 "/>
<path style=" stroke:none;fill-rule:evenodd;fill:rgb(97.647059%,97.647059%,97.647059%);fill-opacity:1;" d="M 25.25 13.679688 L 24.757812 13.386719 C 24.214844 13.070312 23.523438 13.257812 23.210938 13.8125 L 17.085938 24.648438 C 16.773438 25.203125 16.960938 25.910156 17.5 26.226562 L 17.996094 26.519531 C 18.535156 26.839844 19.226562 26.648438 19.542969 26.097656 L 25.664062 15.257812 C 25.976562 14.707031 25.792969 14 25.25 13.679688 M 25.25 13.679688 "/>
<path style=" stroke:none;fill-rule:evenodd;fill:rgb(97.647059%,97.647059%,97.647059%);fill-opacity:1;" d="M 24.28125 30.875 C 24.285156 30.679688 16.457031 26.066406 16.292969 26.167969 C 16.128906 26.273438 15.894531 35.90625 16.054688 36 C 16.214844 36.09375 24.273438 31.074219 24.28125 30.875 M 24.28125 30.875 "/>
</g>
</svg>
