<!-- color: #d8404d -->
<svg xmlns="http://www.w3.org/2000/svg" xmlns:xlink="http://www.w3.org/1999/xlink" width="48px" height="48px" viewBox="0 0 48 48" version="1.1">
<g id="surface1">
<path style=" stroke:none;fill-rule:nonzero;fill:rgb(95.686275%,90.196078%,83.921569%);fill-opacity:1;" d="M 20.996094 23 C 20.996094 25.757812 18.757812 28 15.996094 28 C 13.238281 28 10.996094 25.757812 10.996094 23 C 10.996094 20.238281 13.238281 18 15.996094 18 C 18.757812 18 20.996094 20.242188 20.996094 23 M 20.996094 23 "/>
<path style=" stroke:none;fill-rule:nonzero;fill:rgb(95.686275%,90.196078%,83.921569%);fill-opacity:1;" d="M 34.996094 20.996094 C 34.996094 25.414062 31.414062 28.996094 26.996094 28.996094 C 22.578125 28.996094 18.996094 25.414062 18.996094 20.996094 C 18.996094 16.578125 22.578125 12.996094 26.996094 12.996094 C 31.414062 12.996094 34.996094 16.578125 34.996094 20.996094 M 34.996094 20.996094 "/>
<path style=" stroke:none;fill-rule:nonzero;fill:rgb(95.686275%,90.196078%,83.921569%);fill-opacity:1;" d="M 36.996094 29 C 36.996094 31.757812 34.757812 34 31.996094 34 C 29.238281 34 26.996094 31.757812 26.996094 29 C 26.996094 26.238281 29.238281 24 31.996094 24 C 34.757812 24 36.996094 26.242188 36.996094 29 M 36.996094 29 "/>
<path style=" stroke:none;fill-rule:nonzero;fill:rgb(95.686275%,90.196078%,83.921569%);fill-opacity:1;" d="M 22.996094 30 C 22.996094 32.757812 20.757812 35 17.996094 35 C 15.238281 35 12.996094 32.757812 12.996094 30 C 12.996094 27.238281 15.238281 25 17.996094 25 C 20.757812 25 22.996094 27.242188 22.996094 30 M 22.996094 30 "/>
<path style=" stroke:none;fill-rule:nonzero;fill:rgb(95.686275%,90.196078%,83.921569%);fill-opacity:1;" d="M 20 24 L 29.996094 24 L 29.996094 33 C 26.996094 34.996094 22.996094 34.996094 20 33 M 20 24 "/>
<path style=" stroke:none;fill-rule:nonzero;fill:rgb(17.647059%,17.647059%,17.647059%);fill-opacity:1;" d="M 21 23.5 C 21 24.878906 19.878906 26 18.5 26 C 17.117188 26 16 24.878906 16 23.5 C 16 22.117188 17.117188 21 18.5 21 C 19.878906 21 21 22.117188 21 23.5 M 21 23.5 "/>
<path style=" stroke:none;fill-rule:nonzero;fill:rgb(17.647059%,17.647059%,17.647059%);fill-opacity:1;" d="M 31 23.5 C 31 24.878906 29.878906 26 28.5 26 C 27.117188 26 26 24.878906 26 23.5 C 26 22.117188 27.117188 21 28.5 21 C 29.878906 21 31 22.117188 31 23.5 M 31 23.5 "/>
<path style=" stroke:none;fill-rule:nonzero;fill:rgb(89.803922%,1.960784%,24.705882%);fill-opacity:1;" d="M 21.5 27 L 26.5 27 C 26.5 33 21.5 33 21.5 27 M 21.5 27 "/>
<path style=" stroke:none;fill-rule:nonzero;fill:rgb(97.647059%,97.647059%,97.647059%);fill-opacity:1;" d="M 19.5 24 C 19.5 24.550781 19.050781 25 18.5 25 C 17.949219 25 17.5 24.550781 17.5 24 C 17.5 23.449219 17.949219 23 18.5 23 C 19.050781 23 19.5 23.449219 19.5 24 M 19.5 24 "/>
<path style=" stroke:none;fill-rule:nonzero;fill:rgb(97.647059%,97.647059%,97.647059%);fill-opacity:1;" d="M 29.5 24 C 29.5 24.550781 29.050781 25 28.5 25 C 27.949219 25 27.5 24.550781 27.5 24 C 27.5 23.449219 27.949219 23 28.5 23 C 29.050781 23 29.5 23.449219 29.5 24 M 29.5 24 "/>
</g>
</svg>
