<!-- color: #ecf0f1 --><svg xmlns="http://www.w3.org/2000/svg" viewBox="0 0 48 48"><g><path d="m 19 32 c -1.656 0 -3 1.344 -3 3 c 0 1.656 1.344 3 3 3 c 1.656 0 3 -1.344 3 -3 c 0 -1.656 -1.344 -3 -3 -3 m 0 1.5 c 0.828 0 1.5 0.672 1.5 1.5 c 0 0.828 -0.672 1.5 -1.5 1.5 c -0.828 0 -1.5 -0.672 -1.5 -1.5 c 0 -0.828 0.672 -1.5 1.5 -1.5 m 0 0" fill="#3497db" stroke="none" fill-rule="nonzero" fill-opacity="1"/><path d="m 35 17 c -1.656 0 -3 1.344 -3 3 c 0 1.656 1.344 3 3 3 c 1.656 0 3 -1.344 3 -3 c 0 -1.656 -1.344 -3 -3 -3 m 0 1.5 c 0.828 0 1.5 0.672 1.5 1.5 c 0 0.828 -0.672 1.5 -1.5 1.5 c -0.828 0 -1.5 -0.672 -1.5 -1.5 c 0 -0.828 0.672 -1.5 1.5 -1.5 m 0 0" fill="#fd7c60" stroke="none" fill-rule="nonzero" fill-opacity="1"/><path d="m 32 29 c -1.656 0 -3 1.344 -3 3 c 0 1.656 1.344 3 3 3 c 1.656 0 3 -1.344 3 -3 c 0 -1.656 -1.344 -3 -3 -3 m 0 1.5 c 0.828 0 1.5 0.672 1.5 1.5 c 0 0.828 -0.672 1.5 -1.5 1.5 c -0.828 0 -1.5 -0.672 -1.5 -1.5 c 0 -0.828 0.672 -1.5 1.5 -1.5 m 0 0" fill="#f8c82d" stroke="none" fill-rule="nonzero" fill-opacity="1"/><path d="m 18 33 l 0 -8 l 2 0 l 0 8 m -2 0" fill="#3497db" stroke="none" fill-rule="nonzero" fill-opacity="1"/><path d="m 25 19 l 8 0 l 0 2 l -8 0 m 0 -2" fill="#fd7c60" stroke="none" fill-rule="nonzero" fill-opacity="1"/><path d="M 30 31.5 L 31.5 30 L 24 22.5 L 22.5 24 Z M 30 31.5 " fill="#f8c82d" stroke="none" fill-rule="nonzero" fill-opacity="1"/><path d="m 19 12 c -3.867 0 -7 3.133 -7 7 c 0 3.867 3.133 7 7 7 c 3.867 0 7 -3.133 7 -7 c 0 -3.867 -3.133 -7 -7 -7 m 0 2 c 2.762 0 5 2.238 5 5 c 0 2.762 -2.238 5 -5 5 c -2.762 0 -5 -2.238 -5 -5 c 0 -2.762 2.238 -5 5 -5 m 0 0" fill="#25cf7f" stroke="none" fill-rule="nonzero" fill-opacity="1"/></g></svg>