<!-- color: #e5373b --><svg xmlns="http://www.w3.org/2000/svg" viewBox="0 0 48 48"><g><path d="m 13.453 13 c -0.809 0 -1.453 0.645 -1.453 1.453 l 0 15.844 c 0 0.809 0.645 1.746 1.453 1.703 l 4.547 0 l 0 5 l 6 -5 l 10.547 0 c 0.809 0 1.453 -0.895 1.453 -1.703 l 0 -15.844 c 0 -0.809 -0.645 -1.453 -1.453 -1.453 m -11.547 4 l 2 0 l 0 4 l 3 -2 l 1 1.5 l -3 2 l 3 2 l -1 1.5 l -3 -2 l 0 4 l -2 0 l -0.008 -4.03 l -2.992 2.031 l -1 -1.5 l 3 -2 l -3 -2 l 1 -1.5 l 3 2 m 0 -4" fill="#f9f9f9" stroke="none" fill-rule="nonzero" fill-opacity="1"/></g></svg>