<!-- color: #eeeeee -->
<svg xmlns="http://www.w3.org/2000/svg" xmlns:xlink="http://www.w3.org/1999/xlink" width="48px" height="48px" viewBox="0 0 48 48" version="1.1">
<g id="surface1">
<path style=" stroke:none;fill-rule:nonzero;fill:rgb(35.294118%,69.803922%,98.431373%);fill-opacity:1;" d="M 12.8125 12 C 12.375 12.046875 11.996094 12.464844 12 12.90625 L 12 27.996094 C 12 28.46875 12.527344 28.996094 13 28.996094 L 22 28.996094 L 22 32.996094 L 15 32.996094 L 15 35.996094 L 33 35.996094 L 33 32.996094 L 26 32.996094 L 26 28.996094 L 35 28.996094 C 35.472656 28.996094 36 28.46875 36 27.996094 L 36 12.90625 C 36 12.433594 35.566406 12 35.09375 12 M 12.8125 12 "/>
<path style=" stroke:none;fill-rule:nonzero;fill:rgb(97.647059%,97.647059%,97.647059%);fill-opacity:1;" d="M 13.8125 13 C 13.371094 13.046875 12.996094 13.464844 13 13.90625 L 13 17 C 15.207031 17 17 15.210938 17 13 M 13.8125 13 "/>
<path style=" stroke:none;fill-rule:nonzero;fill:rgb(97.647059%,97.647059%,97.647059%);fill-opacity:1;" d="M 35 24 C 32.792969 24 31 25.789062 31 28 L 34 28 C 34.472656 28 35 27.472656 35 27 M 35 24 "/>
</g>
</svg>
