<!-- color: #40bae7 --><svg xmlns="http://www.w3.org/2000/svg" viewBox="0 0 48 48"><g><path d="m 24 12 c -0.672 0 -1.594 0.664 -1.594 0.688 l -1.406 2.313 l -7.75 0.938 l -2.781 2.656 l -1.469 13.06 l 4 -8.656 l 7 0 l 3.219 6.125 l -4.219 6.875 l 2.781 0 l 1.438 -3.344 l 0.563 -1.281 l 0.219 -0.375 l 0.219 0.375 l 0.563 1.281 l 1.438 3.344 l 2.781 0 l -4.219 -6.875 l 3.219 -6.125 l 7 0 l 4 8.656 l -1.469 -13.06 l -2.781 -2.656 l -7.75 -0.938 l -1.406 -2.313 c 0 -0.012 -0.922 -0.688 -1.594 -0.688 m 0 0" fill="#e5efe7" stroke="none" fill-rule="nonzero" fill-opacity="1"/></g></svg>