<!-- color: #acc1dd -->
<svg xmlns="http://www.w3.org/2000/svg" xmlns:xlink="http://www.w3.org/1999/xlink" width="48px" height="48px" viewBox="0 0 48 48" version="1.1">
<g id="surface1">
<path style=" stroke:none;fill-rule:nonzero;fill:rgb(92.54902%,92.54902%,92.54902%);fill-opacity:1;" d="M 24 16 C 17.371094 16 12 19.582031 12 24 C 12 28.417969 17.371094 32 24 32 C 30.628906 32 36 28.417969 36 24 C 36 19.582031 30.628906 16 24 16 M 25.5 18 C 30.746094 18 35 20.6875 35 24 C 35 27.3125 30.746094 30 25.5 30 C 20.253906 30 16 27.3125 16 24 C 16 20.6875 20.253906 18 25.5 18 M 25.5 18 "/>
<path style=" stroke:none;fill-rule:nonzero;fill:rgb(32.54902%,33.333333%,32.54902%);fill-opacity:1;" d="M 24.5 17 C 18.699219 17 14 20.132812 14 24 C 14 27.867188 18.699219 31 24.5 31 C 29.671875 31 33.941406 28.5 34.8125 25.21875 C 33.925781 27.953125 30.089844 30 25.5 30 C 20.253906 30 16 27.3125 16 24 C 16 20.6875 20.253906 18 25.5 18 C 30.089844 18 33.925781 20.046875 34.8125 22.78125 C 33.945312 19.5 29.671875 17 24.5 17 M 34.8125 22.78125 C 34.875 22.976562 34.90625 23.171875 34.9375 23.375 C 34.910156 23.171875 34.863281 22.980469 34.8125 22.78125 M 34.8125 25.21875 C 34.863281 25.019531 34.910156 24.828125 34.9375 24.625 C 34.90625 24.828125 34.875 25.023438 34.8125 25.21875 M 34.8125 25.21875 "/>
<path style=" stroke:none;fill-rule:nonzero;fill:rgb(92.54902%,92.54902%,92.54902%);fill-opacity:1;" d="M 20.992188 20 L 20.992188 34.996094 L 23.992188 34.996094 L 23.992188 29.996094 L 24.992188 29.996094 L 27.992188 34.996094 L 30.992188 34.996094 L 27.992188 29.996094 L 27.773438 29.652344 C 29.648438 28.933594 30.988281 27.128906 30.988281 24.996094 C 30.988281 22.238281 28.75 20 25.988281 20 M 23.992188 23 L 25.988281 23 C 27.09375 23 27.988281 23.894531 27.988281 24.996094 C 27.988281 26.105469 27.089844 26.996094 25.988281 26.996094 L 23.992188 26.996094 L 23.992188 22.996094 M 23.992188 23 "/>
<path style=" stroke:none;fill-rule:nonzero;fill:rgb(32.54902%,33.333333%,32.54902%);fill-opacity:1;" d="M 22 19 L 22 33.996094 L 25 33.996094 L 25 29 L 26 29 L 29 33.996094 L 32 33.996094 L 29 29 L 28.777344 28.65625 C 30.652344 27.933594 31.996094 26.128906 31.996094 24 C 31.996094 21.238281 29.757812 19 26.996094 19 M 24.996094 22 L 26.996094 22 C 28.101562 22 28.996094 22.898438 28.996094 24 C 28.996094 25.105469 28.097656 25.996094 26.996094 25.996094 L 24.996094 25.996094 L 24.996094 21.996094 M 24.996094 22 "/>
</g>
</svg>
