<!-- color: #eeeeee -->
<svg xmlns="http://www.w3.org/2000/svg" xmlns:xlink="http://www.w3.org/1999/xlink" width="48px" height="48px" viewBox="0 0 48 48" version="1.1">
<g id="surface1">
<path style=" stroke:none;fill-rule:nonzero;fill:rgb(66.27451%,15.686275%,9.803922%);fill-opacity:1;" d="M 24 36 L 24 24 L 13.59375 18 L 13.59375 30 M 24 36 "/>
<path style=" stroke:none;fill-rule:nonzero;fill:rgb(86.666667%,23.921569%,15.686275%);fill-opacity:1;" d="M 34.40625 18 L 24 24 L 24 36 L 34.40625 30 M 34.40625 18 "/>
<path style=" stroke:none;fill-rule:nonzero;fill:rgb(89.803922%,49.803922%,45.882353%);fill-opacity:1;" d="M 24 12 L 13.59375 18 L 24 24 L 34.40625 18 M 24 12 "/>
<path style=" stroke:none;fill-rule:nonzero;fill:rgb(86.666667%,23.921569%,15.686275%);fill-opacity:1;" d="M 24 16 L 24 24 L 17.0625 28 L 17.0625 20 M 24 16 "/>
<path style=" stroke:none;fill-rule:nonzero;fill:rgb(66.27451%,15.686275%,9.803922%);fill-opacity:1;" d="M 30.9375 28 L 24 24 L 24 16 L 30.9375 20 M 30.9375 28 "/>
<path style=" stroke:none;fill-rule:nonzero;fill:rgb(83.921569%,28.627451%,21.176471%);fill-opacity:1;" d="M 24 32 L 17.0625 28 L 24 24 L 30.9375 28 M 24 32 "/>
<path style=" stroke:none;fill-rule:nonzero;fill:rgb(66.27451%,15.686275%,9.803922%);fill-opacity:1;" d="M 24 30 L 24 24 L 18.8125 21 L 18.8125 27 M 24 30 "/>
<path style=" stroke:none;fill-rule:nonzero;fill:rgb(86.666667%,23.921569%,15.686275%);fill-opacity:1;" d="M 26 22.847656 L 24 24.003906 L 24 30.003906 L 29.1875 27.003906 L 29.1875 25.160156 L 26 27.003906 M 26 22.847656 "/>
<path style=" stroke:none;fill-rule:nonzero;fill:rgb(83.921569%,28.627451%,21.176471%);fill-opacity:1;" d="M 26 23.316406 L 26 27.003906 L 29.1875 25.160156 M 26 23.316406 "/>
<path style=" stroke:none;fill-rule:nonzero;fill:rgb(86.666667%,23.921569%,15.686275%);fill-opacity:1;" d="M 25.59375 22.628906 L 25.59375 18.9375 L 22.40625 20.785156 M 25.59375 22.628906 "/>
<path style=" stroke:none;fill-rule:nonzero;fill:rgb(89.803922%,49.803922%,45.882353%);fill-opacity:1;" d="M 26.011719 22.847656 L 24.011719 24.003906 L 18.816406 21.003906 L 24.007812 18.007812 L 25.605469 18.929688 L 22.414062 20.769531 L 26.015625 22.84375 M 26.011719 22.847656 "/>
</g>
</svg>
