<!-- color: #e8e8e8 -->
<svg xmlns="http://www.w3.org/2000/svg" xmlns:xlink="http://www.w3.org/1999/xlink" width="48px" height="48px" viewBox="0 0 48 48" version="1.1">
<g id="surface1">
<path style=" stroke:none;fill-rule:nonzero;fill:rgb(30.588235%,60.392157%,87.058824%);fill-opacity:1;" d="M 20.222656 16.785156 C 16.375 16.785156 13.257812 19.984375 13.257812 23.929688 C 13.257812 24.09375 13.261719 24.253906 13.273438 24.414062 C 11.917969 25.082031 11 26.425781 11 27.980469 C 11 30.207031 12.886719 32 15.230469 32 L 32.773438 32 C 35.117188 32 37.003906 30.207031 37.003906 27.980469 C 37.003906 26.324219 35.960938 24.910156 34.464844 24.292969 C 34.5 24.042969 34.523438 23.785156 34.523438 23.523438 C 34.523438 20.699219 32.285156 18.40625 29.53125 18.40625 C 28.144531 18.40625 26.890625 18.984375 25.988281 19.917969 C 24.734375 18.027344 22.621094 16.785156 20.222656 16.785156 M 17.339844 18.964844 C 18.09375 18.964844 18.703125 19.558594 18.703125 20.296875 C 18.703125 21.035156 18.09375 21.632812 17.339844 21.632812 C 16.585938 21.632812 15.976562 21.035156 15.976562 20.296875 C 15.976562 19.558594 16.585938 18.964844 17.339844 18.964844 M 24 20.945312 C 26.46875 20.945312 28.484375 23.019531 28.484375 25.550781 C 28.484375 28.074219 26.464844 30.152344 24 30.152344 C 21.535156 30.152344 19.515625 28.078125 19.515625 25.550781 C 19.515625 23.019531 21.535156 20.945312 24 20.945312 M 24 22.921875 C 22.578125 22.921875 21.445312 24.085938 21.445312 25.550781 C 21.445312 27.015625 22.578125 28.175781 24 28.175781 C 25.421875 28.175781 26.554688 27.015625 26.554688 25.550781 C 26.554688 24.085938 25.421875 22.921875 24 22.921875 M 24 22.921875 "/>
<path style=" stroke:none;fill-rule:nonzero;fill:rgb(30.588235%,60.392157%,87.058824%);fill-opacity:1;" d="M 32.300781 18.3125 L 31.777344 17.804688 L 31.074219 17.957031 L 31.382812 17.292969 L 31.023438 16.65625 L 31.738281 16.75 L 32.21875 16.203125 L 32.351562 16.925781 L 33.007812 17.226562 L 32.375 17.578125 M 32.300781 18.3125 "/>
<path style=" stroke:none;fill-rule:nonzero;fill:rgb(30.588235%,60.392157%,87.058824%);fill-opacity:1;" d="M 32.882812 16.964844 L 32.910156 16.621094 L 32.648438 16.402344 L 32.976562 16.324219 L 33.101562 16 L 33.273438 16.296875 L 33.609375 16.316406 L 33.390625 16.578125 L 33.476562 16.910156 L 33.167969 16.777344 M 32.882812 16.964844 "/>
<path style=" stroke:none;fill-rule:nonzero;fill:rgb(30.588235%,60.392157%,87.058824%);fill-opacity:1;" d="M 33.199219 18.96875 L 33.136719 18.445312 L 32.679688 18.203125 L 33.144531 17.976562 L 33.230469 17.457031 L 33.582031 17.84375 L 34.089844 17.765625 L 33.839844 18.226562 L 34.070312 18.699219 L 33.566406 18.597656 M 33.199219 18.96875 "/>
</g>
</svg>
