<!-- color: #f26c31 -->
<svg xmlns="http://www.w3.org/2000/svg" xmlns:xlink="http://www.w3.org/1999/xlink" width="48px" height="48px" viewBox="0 0 48 48" version="1.1">
<g id="surface1">
<path style=" stroke:none;fill-rule:nonzero;fill:rgb(97.647059%,97.647059%,97.647059%);fill-opacity:1;" d="M 12 34 L 12 27.042969 C 15 26.5625 15.316406 25.609375 15.542969 20.957031 C 15.324219 17.34375 20.214844 13.9375 24.992188 14.003906 L 24.992188 20.003906 C 22.40625 20.460938 21.738281 22.132812 21.765625 24.433594 C 22.007812 31.75 16.378906 34 11.992188 34 M 12 34 "/>
<path style=" stroke:none;fill-rule:nonzero;fill:rgb(97.647059%,97.647059%,97.647059%);fill-opacity:1;" d="M 23 34 L 23 27 L 26 27 C 28 27 29 25 29 23.566406 C 29 22 28 19.988281 26 19.988281 L 26 13.988281 C 35 13.988281 36 20.988281 35.996094 23.550781 C 36 31.285156 30.742188 33.988281 26 33.988281 C 25 33.988281 23.921875 33.996094 23 33.988281 M 23 34 "/>
</g>
</svg>
