<!-- color: #f7b754 -->
<svg xmlns="http://www.w3.org/2000/svg" xmlns:xlink="http://www.w3.org/1999/xlink" width="48px" height="48px" viewBox="0 0 48 48" version="1.1">
<g id="surface1">
<path style=" stroke:none;fill-rule:nonzero;fill:rgb(97.254902%,92.54902%,87.058824%);fill-opacity:1;" d="M 11.078125 15 C 10.492188 14.96875 9.933594 15.648438 10.011719 16.097656 C 11.019531 22.777344 11.074219 29.015625 10.011719 35.898438 C 9.9375 36.351562 10.492188 37.019531 11.078125 36.996094 C 19.695312 36.996094 28.304688 36.996094 36.914062 36.996094 C 37.511719 37.019531 38.0625 36.351562 37.992188 35.898438 C 36.929688 29.019531 36.914062 22.699219 37.992188 16.097656 C 38.070312 15.644531 37.511719 14.964844 36.914062 15 C 28.175781 15.472656 19.59375 15.394531 11.078125 15 M 11.078125 15 "/>
<path style=" stroke:none;fill-rule:nonzero;fill:rgb(66.27451%,58.039216%,43.529412%);fill-opacity:1;" d="M 17 19.5 C 17 20.328125 16.328125 21 15.5 21 C 14.671875 21 14 20.328125 14 19.5 C 14 18.671875 14.671875 18 15.5 18 C 16.328125 18 17 18.671875 17 19.5 M 17 19.5 "/>
<path style=" stroke:none;fill-rule:nonzero;fill:rgb(66.27451%,58.039216%,43.529412%);fill-opacity:1;" d="M 34 19.5 C 34 20.328125 33.328125 21 32.5 21 C 31.671875 21 31 20.328125 31 19.5 C 31 18.671875 31.671875 18 32.5 18 C 33.328125 18 34 18.671875 34 19.5 M 34 19.5 "/>
<path style=" stroke:none;fill-rule:nonzero;fill:rgb(90.196078%,83.921569%,74.509804%);fill-opacity:1;" d="M 15.5 20 C 15 20 15 19.421875 15 19 C 15 14.988281 18 10 24 10 C 29.996094 10 33 14.988281 33 19 C 33 19.421875 33 20 32.5 20 C 32 20 32 19.421875 32 19 C 32 15.832031 29 11 24 11 C 19 11 16 15.832031 16 19 C 16 19.421875 16 20 15.503906 20 M 15.503906 20 "/>
<path style=" stroke:none;fill-rule:nonzero;fill:rgb(86.666667%,27.45098%,7.058824%);fill-opacity:1;" d="M 27.3125 20.039062 C 26.882812 20.074219 26.480469 20.300781 26.25 20.695312 C 25.878906 21.335938 26.109375 22.140625 26.75 22.511719 C 27.386719 22.878906 28.195312 22.679688 28.5625 22.042969 C 28.929688 21.40625 28.699219 20.570312 28.0625 20.199219 C 27.820312 20.0625 27.570312 20.027344 27.3125 20.042969 M 24 21.449219 C 23.074219 21.449219 22.210938 21.65625 21.4375 22.042969 L 22.375 23.730469 C 22.875 23.496094 23.414062 23.355469 24.003906 23.355469 C 26.039062 23.355469 27.703125 24.921875 27.878906 26.933594 L 29.785156 26.902344 C 29.691406 25.429688 29.054688 24.089844 28.066406 23.121094 C 27.558594 23.3125 26.980469 23.285156 26.472656 22.996094 C 25.964844 22.703125 25.652344 22.21875 25.566406 21.683594 C 25.074219 21.546875 24.539062 21.464844 24.003906 21.464844 M 20.78125 22.445312 C 19.613281 23.226562 18.738281 24.390625 18.375 25.792969 C 18.796875 26.136719 19.09375 26.675781 19.09375 27.261719 C 19.09375 27.851562 18.796875 28.390625 18.375 28.734375 C 18.738281 30.132812 19.613281 31.292969 20.78125 32.078125 L 21.75 30.453125 C 20.75 29.746094 20.09375 28.582031 20.09375 27.261719 C 20.09375 25.945312 20.746094 24.75 21.75 24.042969 M 17.203125 25.914062 C 16.464844 25.914062 15.859375 26.523438 15.859375 27.257812 C 15.859375 27.996094 16.464844 28.570312 17.203125 28.570312 C 17.941406 28.570312 18.515625 27.996094 18.515625 27.257812 C 18.515625 26.523438 17.941406 25.914062 17.203125 25.914062 M 27.867188 27.601562 C 27.695312 29.59375 26.027344 31.179688 23.992188 31.179688 C 23.402344 31.179688 22.863281 31.039062 22.367188 30.804688 L 21.425781 32.492188 C 22.203125 32.882812 23.066406 33.09375 23.988281 33.09375 C 24.527344 33.09375 25.058594 33.015625 25.550781 32.867188 C 25.640625 32.339844 25.953125 31.847656 26.457031 31.558594 C 26.964844 31.261719 27.546875 31.210938 28.050781 31.402344 C 29.039062 30.429688 29.679688 29.121094 29.769531 27.652344 M 27.210938 31.824219 C 27.039062 31.847656 26.90625 31.925781 26.746094 32.015625 C 26.105469 32.382812 25.875 33.1875 26.246094 33.828125 C 26.613281 34.46875 27.417969 34.695312 28.058594 34.328125 C 28.695312 33.964844 28.925781 33.128906 28.558594 32.484375 C 28.28125 32.007812 27.730469 31.765625 27.214844 31.828125 M 27.210938 31.828125 "/>
</g>
</svg>
