<!-- color: #eeeeee -->
<svg xmlns="http://www.w3.org/2000/svg" xmlns:xlink="http://www.w3.org/1999/xlink" width="48px" height="48px" viewBox="0 0 48 48" version="1.1">
<g id="surface1">
<path style=" stroke:none;fill-rule:nonzero;fill:rgb(92.156863%,50.588235%,37.254902%);fill-opacity:1;" d="M 17 28 L 11 23 L 19 21 L 17 28 "/>
<path style=" stroke:none;fill-rule:nonzero;fill:rgb(92.156863%,50.588235%,37.254902%);fill-opacity:1;" d="M 31 28 L 37 23 L 29 21 L 30.996094 28 "/>
<path style=" stroke:none;fill-rule:nonzero;fill:rgb(92.156863%,50.588235%,37.254902%);fill-opacity:1;" d="M 15 16 L 16.234375 23 L 22 20 L 15 16 "/>
<path style=" stroke:none;fill-rule:nonzero;fill:rgb(92.156863%,50.588235%,37.254902%);fill-opacity:1;" d="M 33 16 L 31.765625 23 L 26 20 L 33 16 "/>
<path style=" stroke:none;fill-rule:nonzero;fill:rgb(92.156863%,50.588235%,37.254902%);fill-opacity:1;" d="M 24 13 L 19 21 L 29 21 L 24 13 "/>
<path style=" stroke:none;fill-rule:nonzero;fill:rgb(100%,80%,0%);fill-opacity:1;" d="M 33 27 C 33 31.96875 28.96875 36 24 36 C 19.03125 36 15 31.96875 15 27 C 15 22.03125 19.03125 18 24 18 C 28.96875 18 33 22.03125 33 27 M 33 27 "/>
<path style=" stroke:none;fill-rule:nonzero;fill:rgb(17.647059%,17.647059%,17.647059%);fill-opacity:1;" d="M 21.992188 25 C 21.992188 25.550781 21.546875 26 20.996094 26 C 20.445312 26 20 25.550781 20 25 C 20 24.449219 20.445312 24 20.996094 24 C 21.546875 24 21.992188 24.449219 21.992188 25 M 21.992188 25 "/>
<path style=" stroke:none;fill-rule:nonzero;fill:rgb(17.647059%,17.647059%,17.647059%);fill-opacity:1;" d="M 27 24 C 26.449219 24 26 24.449219 26 25 L 28 25 C 28 24.449219 27.550781 24 27 24 M 27 24 "/>
<path style="fill:none;stroke-width:0.282;stroke-linecap:butt;stroke-linejoin:miter;stroke:rgb(17.647059%,17.647059%,17.647059%);stroke-opacity:1;stroke-miterlimit:4;" d="M 5.672005 8.38178 C 5.785556 8.601163 5.969662 8.781962 6.19125 8.891103 C 6.409531 9.000243 6.6675 9.037726 6.910035 8.995834 C 7.154774 8.953941 7.387387 8.830469 7.549445 8.640851 C 7.688351 8.479896 7.772136 8.275946 7.810721 8.067587 C 7.831667 7.962856 7.841589 7.85592 7.840486 7.747882 " transform="matrix(3.543307,0,0,3.543307,0,0)"/>
<path style="fill:none;stroke-width:1;stroke-linecap:butt;stroke-linejoin:miter;stroke:rgb(17.647059%,17.647059%,17.647059%);stroke-opacity:1;stroke-miterlimit:4;" d="M 21 21.25 C 20.640625 21.324219 20.296875 21.488281 20.019531 21.726562 C 19.917969 21.8125 19.824219 21.90625 19.738281 22.003906 C 19.265625 22.554688 18.996094 23.277344 19 24 "/>
</g>
</svg>
