<!-- color: #595959 -->
<svg xmlns="http://www.w3.org/2000/svg" xmlns:xlink="http://www.w3.org/1999/xlink" width="48px" height="48px" viewBox="0 0 48 48" version="1.1">
<g id="surface1">
<path style=" stroke:none;fill-rule:nonzero;fill:rgb(92.941176%,63.921569%,4.313725%);fill-opacity:1;" d="M 21.347656 13.152344 C 23.449219 12.996094 25.824219 13.082031 28.246094 13.082031 C 30.417969 13.082031 33.285156 12.773438 34.792969 13.359375 C 36.136719 13.882812 37.199219 15.011719 36.976562 16.972656 C 36.863281 17.957031 36.191406 19 35.851562 19.820312 C 34.71875 22.539062 33.410156 25.644531 32.328125 28.230469 C 30.664062 32.207031 26.886719 35.347656 21.207031 34.972656 C 18.128906 34.765625 15.683594 33.265625 14.027344 31.566406 C 12.289062 29.777344 10.996094 27.332031 10.996094 24.0625 C 10.996094 20.921875 12.324219 18.363281 14.027344 16.554688 C 15.691406 14.789062 18.101562 13.390625 21.347656 13.152344 M 34.300781 15.792969 C 34.492188 13.839844 31.375 13.660156 31.414062 15.722656 L 32.46875 15.722656 C 32.3125 14.820312 33.1875 14.839844 33.316406 15.445312 C 33.585938 16.726562 30.914062 17.777344 31.34375 19.335938 C 32.355469 19.332031 33.382812 19.316406 34.300781 19.40625 C 34.410156 19.246094 34.410156 18.730469 34.300781 18.570312 L 32.46875 18.570312 C 32.992188 17.796875 34.1875 16.972656 34.300781 15.792969 M 15.644531 17.8125 C 14.328125 19.140625 13.304688 20.757812 13.113281 23.09375 C 12.75 27.480469 15.042969 30.269531 17.476562 31.710938 C 20 33.199219 23.527344 33.425781 26.34375 31.917969 C 28.929688 30.53125 30.519531 28.3125 30.992188 25.523438 C 31.570312 22.109375 29.972656 18.992188 28.246094 17.464844 C 26.675781 16.070312 24.34375 14.886719 20.996094 15.242188 C 18.597656 15.492188 16.871094 16.574219 15.644531 17.8125 "/>
<path style=" stroke:none;fill-rule:nonzero;fill:rgb(92.941176%,63.921569%,4.313725%);fill-opacity:1;" d="M 19.101562 17.527344 L 22.339844 17.527344 C 23.476562 20.804688 24.859375 23.839844 25.992188 27.117188 C 26.601562 26.976562 27.148438 26.777344 27.683594 26.5625 C 28.019531 27.0625 28.070312 27.847656 28.386719 28.367188 C 27.265625 28.90625 25.921875 29.21875 24.585938 29.550781 C 23.929688 27.558594 23.101562 25.734375 22.402344 23.78125 C 21.148438 25.464844 20.101562 27.347656 18.882812 29.0625 L 16.488281 29.0625 C 16.464844 28.734375 16.730469 28.382812 16.910156 28.089844 C 18.292969 25.824219 19.886719 23.273438 21.273438 20.933594 C 21.152344 20.359375 20.867188 19.945312 20.710938 19.402344 L 19.09375 19.402344 M 19.09375 17.527344 "/>
</g>
</svg>
