<!-- color: #3d3d3d -->
<svg xmlns="http://www.w3.org/2000/svg" xmlns:xlink="http://www.w3.org/1999/xlink" width="48px" height="48px" viewBox="0 0 48 48" version="1.1">
<g id="surface1">
<path style=" stroke:none;fill-rule:nonzero;fill:rgb(97.647059%,97.647059%,97.647059%);fill-opacity:1;" d="M 31.308594 12 C 28.179688 12 25.617188 14.476562 25.617188 17.5 C 25.617188 20.519531 28.183594 23.003906 31.308594 23.003906 C 34.433594 23.003906 36.996094 20.523438 36.996094 17.5 C 36.996094 14.480469 34.433594 12 31.308594 12 M 31.308594 13.847656 C 33.410156 13.847656 35.085938 15.46875 35.085938 17.5 C 35.085938 19.535156 33.410156 21.15625 31.308594 21.15625 C 29.203125 21.15625 27.527344 19.535156 27.527344 17.5 C 27.527344 15.46875 29.203125 13.847656 31.308594 13.847656 M 31.308594 13.847656 "/>
<path style=" stroke:none;fill-rule:nonzero;fill:rgb(97.647059%,97.647059%,97.647059%);fill-opacity:1;" d="M 33.746094 17.496094 C 33.746094 18.796875 32.65625 19.851562 31.308594 19.851562 C 29.964844 19.851562 28.871094 18.796875 28.871094 17.496094 C 28.871094 16.191406 29.964844 15.136719 31.308594 15.136719 C 32.65625 15.136719 33.746094 16.191406 33.746094 17.496094 M 33.746094 17.496094 "/>
<path style=" stroke:none;fill-rule:nonzero;fill:rgb(97.647059%,97.647059%,97.647059%);fill-opacity:1;" d="M 26.433594 19.851562 L 26.433594 26.921875 L 30.496094 27.707031 L 33.96875 21.839844 L 30.34375 21.839844 M 26.433594 19.847656 "/>
<path style=" stroke:none;fill-rule:nonzero;fill:rgb(97.647059%,97.647059%,97.647059%);fill-opacity:1;" d="M 27.25 26.140625 C 25.019531 26.140625 23.1875 27.910156 23.1875 30.070312 C 23.1875 32.230469 25.019531 34 27.25 34 C 29.484375 34 31.316406 32.230469 31.316406 30.070312 C 31.316406 27.910156 29.484375 26.140625 27.25 26.140625 M 27.25 27.460938 C 28.753906 27.460938 29.949219 28.617188 29.949219 30.070312 C 29.949219 31.523438 28.753906 32.679688 27.25 32.679688 C 25.75 32.679688 24.550781 31.523438 24.550781 30.070312 C 24.550781 28.617188 25.75 27.460938 27.25 27.460938 M 27.25 27.460938 "/>
<path style=" stroke:none;fill-rule:nonzero;fill:rgb(97.647059%,97.647059%,97.647059%);fill-opacity:1;" d="M 15.058594 20.636719 C 12.828125 20.636719 10.996094 22.410156 10.996094 24.566406 C 10.996094 26.726562 12.828125 28.5 15.058594 28.5 C 17.292969 28.5 19.125 26.726562 19.125 24.566406 C 19.125 22.410156 17.292969 20.636719 15.058594 20.636719 M 15.050781 22.210938 C 16.679688 22.210938 17.492188 22.996094 17.492188 24.566406 C 17.492188 26.140625 16.679688 26.925781 15.050781 26.925781 C 13.425781 26.925781 12.613281 26.140625 12.613281 24.566406 C 12.613281 22.996094 13.425781 22.210938 15.050781 22.210938 M 15.050781 22.210938 "/>
<path style=" stroke:none;fill-rule:nonzero;fill:rgb(97.647059%,97.647059%,97.647059%);fill-opacity:1;" d="M 15.953125 23.160156 C 15.03125 22.78125 13.96875 23.195312 13.578125 24.089844 C 13.1875 24.980469 13.617188 26.011719 14.539062 26.386719 L 26.609375 31.636719 C 27.53125 32.015625 28.597656 31.601562 28.988281 30.707031 C 29.378906 29.816406 28.949219 28.785156 28.027344 28.410156 M 15.945312 23.160156 "/>
</g>
</svg>
