<!-- color: #36a5f2 -->
<svg xmlns="http://www.w3.org/2000/svg" xmlns:xlink="http://www.w3.org/1999/xlink" width="48px" height="48px" viewBox="0 0 48 48" version="1.1">
<g id="surface1">
<path style=" stroke:none;fill-rule:nonzero;fill:rgb(100%,100%,100%);fill-opacity:1;" d="M 23.265625 12 C 20.726562 12.03125 18.246094 13.621094 17.214844 15.964844 C 16.261719 17.894531 16.316406 20.320312 16.535156 22.191406 C 16.753906 24.0625 17.195312 25.570312 18.449219 26.714844 C 19.746094 28.085938 21.671875 28.695312 23.511719 28.753906 C 25.046875 28.617188 26.917969 28.195312 27.589844 26.632812 C 27.507812 27.832031 27.871094 29.117188 27.398438 30.261719 C 26.28125 32.296875 23.265625 32.855469 21.449219 31.519531 C 20.640625 30.957031 20.46875 29.867188 20.300781 29.003906 L 16.359375 29.003906 C 16.183594 31.792969 18.101562 34.488281 20.675781 35.410156 C 23.605469 36.46875 27.152344 36.132812 29.640625 34.179688 C 31.148438 33 32.035156 31.097656 32.015625 29.199219 L 32.015625 12.503906 C 30.589844 12.476562 29.160156 12.503906 27.742188 12.503906 C 27.742188 13.175781 27.742188 13.871094 27.769531 14.542969 C 27.070312 13.03125 25.414062 12.058594 23.777344 12 C 23.609375 12 23.4375 12 23.273438 12 M 24.328125 15.742188 C 25.558594 15.742188 26.785156 16.441406 27.257812 17.613281 C 27.929688 19.347656 28.042969 21.328125 27.398438 23.089844 C 26.835938 24.261719 25.722656 25.378906 24.324219 25.238281 C 22.539062 25.378906 21.253906 23.648438 20.945312 22.058594 C 20.691406 20.574219 20.722656 18.957031 21.363281 17.5625 C 21.894531 16.359375 23.066406 15.773438 24.320312 15.746094 M 24.328125 15.742188 "/>
</g>
</svg>
