<!-- color: #f3ca66 -->
<svg xmlns="http://www.w3.org/2000/svg" xmlns:xlink="http://www.w3.org/1999/xlink" width="48px" height="48px" viewBox="0 0 48 48" version="1.1">
<g id="surface1">
<path style=" stroke:none;fill-rule:nonzero;fill:rgb(17.647059%,17.647059%,17.647059%);fill-opacity:1;" d="M 31.761719 13 C 30.585938 13.003906 29.328125 13.082031 28.242188 13.082031 C 25.820312 13.082031 23.445312 12.996094 21.34375 13.152344 C 18.09375 13.386719 15.683594 14.789062 14.019531 16.554688 C 12.320312 18.363281 11 20.921875 11 24.058594 C 11 27.332031 12.285156 29.773438 14.019531 31.5625 C 15.675781 33.261719 18.125 34.761719 21.203125 34.964844 C 26.878906 35.34375 30.65625 32.207031 32.324219 28.230469 C 33.40625 25.644531 34.714844 22.542969 35.84375 19.824219 C 36.1875 19.003906 36.859375 17.957031 36.972656 16.972656 C 37.199219 15.011719 36.136719 13.882812 34.792969 13.363281 C 34.035156 13.070312 32.941406 12.996094 31.765625 13 M 22.199219 15.171875 C 24.910156 15.179688 26.871094 16.242188 28.246094 17.457031 C 29.976562 18.988281 31.566406 22.105469 30.988281 25.515625 C 30.515625 28.304688 28.933594 30.515625 26.347656 31.90625 C 23.535156 33.414062 19.996094 33.191406 17.476562 31.699219 C 15.042969 30.261719 12.753906 27.472656 13.113281 23.089844 C 13.304688 20.757812 14.328125 19.136719 15.644531 17.8125 C 16.871094 16.574219 18.597656 15.492188 20.996094 15.238281 C 21.414062 15.195312 21.816406 15.175781 22.203125 15.175781 M 21.742188 17.402344 C 21.558594 17.414062 21.351562 17.457031 21.136719 17.539062 C 20.5625 17.75 20.710938 18.507812 20.761719 19.027344 C 20.726562 19.074219 20.660156 19.058594 20.613281 19.058594 C 19.992188 19.089844 19.714844 19.734375 19.585938 20.246094 C 19.613281 20.71875 19.550781 21.230469 19.46875 21.683594 C 19.386719 22.136719 19.226562 22.492188 19.210938 22.925781 C 19.175781 23.3125 19.320312 23.765625 19.289062 24.117188 C 18.945312 25.117188 18.699219 25.777344 18.519531 26.84375 C 18.386719 27.082031 17.933594 27.601562 17.753906 27.714844 C 17.703125 27.792969 17.78125 27.972656 17.703125 28.082031 C 17.554688 28.292969 17.324219 28.40625 17.195312 28.636719 C 17.226562 28.683594 17 28.730469 17.019531 28.808594 C 17.035156 28.890625 17.148438 29.101562 17.195312 29.148438 C 17.210938 29.183594 17.375 29.101562 17.375 29.148438 C 17.441406 29.34375 17.589844 29.746094 17.753906 29.839844 C 18.472656 29.917969 18.472656 29.917969 18.765625 29.839844 C 18.925781 29.371094 18.210938 29.582031 18.277344 28.953125 C 19.257812 28.765625 19.566406 28.484375 19.960938 27.472656 C 20.140625 26.730469 20.382812 26 20.761719 25.292969 C 20.824219 25.242188 20.808594 25.117188 20.921875 25.066406 C 21.359375 25.792969 22.160156 26.308594 22.558594 27.066406 C 22.65625 28.046875 22.851562 28.582031 23.191406 28.761719 C 23.273438 28.789062 23.191406 29.097656 23.257812 29.160156 C 23.257812 29.261719 23.289062 29.367188 23.238281 29.480469 C 23.210938 29.5625 23.226562 29.65625 23.226562 29.738281 L 23.226562 29.835938 C 23.242188 29.980469 23.273438 29.984375 23.421875 30.097656 C 23.84375 30.371094 24.414062 30.808594 24.984375 30.484375 C 25.246094 30.066406 24.695312 29.535156 24.300781 29.261719 C 24.171875 29.160156 23.941406 28.921875 23.972656 28.761719 C 24.1875 28.550781 24.332031 27.632812 24.25 26.921875 C 24.21875 26.761719 24.1875 26.597656 24.121094 26.46875 C 23.925781 26.097656 23.484375 25.585938 23.109375 25.214844 C 23.15625 25.160156 23.222656 25.097656 23.304688 25.066406 C 23.304688 24.714844 23.15625 24.601562 22.960938 24.34375 C 22.796875 24.085938 22.421875 23.578125 22.144531 23.421875 C 22.144531 23.421875 22.140625 23.402344 21.863281 23.402344 C 21.847656 23.226562 21.898438 23.078125 21.949219 22.886719 C 21.949219 22.742188 22.066406 22.824219 22.097656 22.5 C 22.179688 22.226562 22.140625 22.386719 22.207031 22.109375 C 22.273438 21.984375 22.3125 21.851562 22.3125 21.644531 C 22.554688 21.722656 23.046875 21.707031 23.257812 21.644531 L 23.304688 21.675781 C 23.367188 21.691406 23.386719 21.59375 23.433594 21.578125 C 23.808594 21.386719 23.941406 21.046875 24.246094 21.015625 C 24.246094 21.015625 24.414062 20.933594 24.65625 21.015625 C 24.757812 21.015625 24.839844 21.035156 24.839844 20.9375 C 24.855469 20.789062 24.855469 20.675781 24.9375 20.582031 C 25.003906 20.96875 25.183594 21.402344 25.507812 21.820312 L 25.835938 21.597656 C 25.519531 21.226562 25.324219 20.808594 25.296875 20.324219 C 25.3125 20.355469 25.324219 20.386719 25.359375 20.417969 C 25.476562 20.417969 25.539062 20.179688 25.671875 20.195312 C 25.6875 20.164062 25.722656 20.015625 25.753906 19.902344 L 26.976562 19.902344 L 27.417969 19.804688 L 27.417969 19.578125 L 27.09375 19.546875 L 27.09375 19.289062 L 27.007812 19.289062 L 27.007812 18.996094 L 26.8125 18.996094 L 26.8125 19.269531 L 26.308594 19.238281 L 26.308594 19.058594 L 26.113281 19.058594 L 26.113281 19.222656 L 25.59375 19.171875 L 25.59375 18.929688 L 25.394531 18.929688 L 25.394531 19.15625 L 24.628906 19.105469 L 24.628906 19.027344 L 24.054688 19.027344 L 24.054688 18.882812 L 23.746094 18.882812 L 23.746094 18.957031 C 23.710938 18.976562 23.679688 19.007812 23.648438 19.023438 L 23.613281 19.023438 C 23.074219 18.605469 23.042969 19.460938 22.683594 19.265625 C 22.648438 19.089844 22.664062 18.929688 22.664062 18.71875 C 23.285156 18.703125 23.0625 18.539062 22.882812 18.332031 C 22.816406 18.25 22.777344 18.121094 22.765625 18.042969 C 22.65625 17.644531 22.285156 17.359375 21.738281 17.386719 M 22.839844 19.871094 C 22.917969 19.871094 22.960938 19.898438 22.960938 19.898438 C 23.15625 19.867188 23.335938 19.914062 23.648438 19.898438 C 23.597656 20.429688 23.210938 20.203125 22.785156 20.496094 C 22.675781 20.480469 22.539062 20.476562 22.359375 20.476562 C 22.324219 20.121094 22.460938 20.058594 22.519531 19.996094 C 22.652344 19.898438 22.761719 19.871094 22.839844 19.871094 M 22.839844 19.871094 "/>
</g>
</svg>
