<!-- color: #eeeeee -->
<svg xmlns="http://www.w3.org/2000/svg" xmlns:xlink="http://www.w3.org/1999/xlink" width="48px" height="48px" viewBox="0 0 48 48" version="1.1">
<g id="surface1">
<path style=" stroke:none;fill-rule:nonzero;fill:rgb(100%,60%,20%);fill-opacity:1;" d="M 24 9.03125 C 24.257812 9.972656 23.796875 10.242188 23.46875 10.625 C 24.144531 10.953125 24.550781 11.199219 24.59375 10.5 C 24.539062 10.15625 24.332031 10.1875 24 9.03125 M 20.875 11.40625 C 21.914062 12.261719 22.8125 13.15625 21.875 14.433594 C 21.140625 15.035156 19.613281 15.410156 19.65625 13.558594 C 19.277344 14.179688 19.273438 14.953125 19.46875 15.808594 C 19.519531 16.023438 19.613281 16.195312 19.71875 16.339844 C 21.515625 17.671875 21.613281 17.945312 21.875 18.464844 C 23.535156 21.429688 20.894531 23.53125 20.71875 23.808594 L 20.59375 24.058594 C 22.488281 26.84375 24.285156 26.625 25.40625 26.621094 C 26.722656 26.519531 29.828125 24.640625 28.4375 20.996094 C 28.398438 22.910156 26.851562 21.890625 26.53125 21.246094 C 26.253906 20.945312 25.851562 18.535156 27.09375 18.476562 C 27.398438 18.328125 26.847656 16.160156 25.03125 15.121094 C 27.5625 17.0625 24.136719 20.027344 23.28125 16.996094 C 23.230469 16.820312 23.289062 12.507812 25.15625 13.496094 C 24.265625 12.027344 22.867188 11.300781 20.875 11.402344 M 26.625 11.40625 C 25.484375 11.929688 25.933594 14.722656 26.6875 14.78125 C 26.402344 14.03125 26.078125 13.636719 26.625 11.40625 M 19.46875 16.847656 C 19.269531 17.960938 19.257812 19.132812 19.71875 19.628906 C 20.265625 20.273438 20.597656 20.117188 20.96875 20.097656 C 21.132812 20.015625 20.992188 19.898438 20.78125 19.753906 C 20.808594 19.695312 21.035156 19.671875 21.21875 19.65625 C 21.285156 19.59375 21.347656 19.53125 21.3125 19.40625 C 21.28125 19.507812 21.195312 19.554688 21.0625 19.597656 M 28.40625 19.941406 C 28.347656 19.972656 28.332031 20.078125 28.375 20.160156 C 28.421875 20.242188 28.503906 20.285156 28.5625 20.253906 C 28.621094 20.222656 28.609375 20.117188 28.5625 20.035156 C 28.519531 19.953125 28.464844 19.910156 28.40625 19.941406 M 20.96875 25.597656 C 20.941406 25.601562 21.679688 26.535156 21.65625 26.472656 C 21.648438 26.441406 21.945312 26.113281 22 26.15625 C 21.738281 26.011719 21.371094 25.808594 20.96875 25.59375 M 20.96875 25.59375 "/>
<path style=" stroke:none;fill-rule:nonzero;fill:rgb(18.431373%,18.431373%,18.431373%);fill-opacity:1;" d="M 23.90625 20.84375 C 23.398438 20.878906 23.117188 21.207031 22.96875 21.65625 L 24.8125 21.8125 C 24.765625 21.378906 24.574219 20.992188 23.90625 20.84375 M 22.8125 22.6875 C 22.804688 22.804688 22.785156 22.910156 22.78125 23.03125 L 22.78125 23.21875 L 24.78125 23.3125 L 24.8125 22.96875 C 24.808594 22.933594 24.8125 22.886719 24.8125 22.84375 M 22.75 23.8125 L 22.71875 24.4375 L 24.625 24.53125 L 24.6875 23.90625 M 22.6875 24.757812 L 22.0625 38.785156 C 22.699219 38.398438 23.007812 36.882812 23.375 35.535156 L 24.59375 24.847656 M 22.6875 24.753906 "/>
</g>
</svg>
