<!-- color: #b0b9b0 -->
<svg xmlns="http://www.w3.org/2000/svg" xmlns:xlink="http://www.w3.org/1999/xlink" width="48px" height="48px" viewBox="0 0 48 48" version="1.1">
<g id="surface1">
<path style=" stroke:none;fill-rule:nonzero;fill:rgb(58.039216%,50.196078%,38.431373%);fill-opacity:1;" d="M 9.46875 0 L 8.9375 48 L 14.875 48 L 14.21875 0 M 9.46875 0 "/>
<path style=" stroke:none;fill-rule:nonzero;fill:rgb(97.647059%,97.647059%,97.647059%);fill-opacity:1;" d="M 7.398438 20.464844 C 7.398438 23.765625 9.269531 25.023438 11.972656 25.144531 C 14.582031 25.101562 16.394531 24.03125 16.5 20.746094 C 16.511719 17.058594 14.25 16.386719 11.796875 15.964844 C 7.277344 16.589844 7.507812 17.898438 7.398438 20.464844 M 7.398438 20.464844 "/>
<path style=" stroke:none;fill-rule:nonzero;fill:rgb(58.039216%,50.196078%,38.431373%);fill-opacity:1;" d="M 33.71875 0 L 33.1875 48 L 38.875 48 L 38.3125 0 M 33.71875 0 "/>
<path style=" stroke:none;fill-rule:nonzero;fill:rgb(17.647059%,17.647059%,17.647059%);fill-opacity:1;" d="M 15.460938 30.992188 C 19.027344 40.296875 30.039062 39.257812 32.035156 30.886719 C 26.648438 30.460938 21.132812 30.460938 15.460938 30.992188 M 15.460938 30.992188 "/>
<path style=" stroke:none;fill-rule:nonzero;fill:rgb(97.647059%,97.647059%,97.647059%);fill-opacity:1;" d="M 40.449219 20.546875 C 40.449219 23.847656 38.566406 25.105469 35.847656 25.226562 C 33.226562 25.183594 31.402344 24.113281 31.292969 20.828125 C 31.28125 16.441406 33.558594 16.46875 36.023438 16.046875 C 40.570312 16.675781 40.335938 17.980469 40.449219 20.546875 M 40.449219 20.546875 "/>
<path style=" stroke:none;fill-rule:nonzero;fill:rgb(17.647059%,17.647059%,17.647059%);fill-opacity:1;" d="M 34.71875 17.5 C 34.472656 17.5 34.25 17.902344 34.09375 18.53125 C 34.179688 18.476562 34.265625 18.40625 34.375 18.40625 C 34.675781 18.40625 34.90625 18.667969 34.90625 18.96875 C 34.90625 19.269531 34.675781 19.5 34.375 19.5 C 34.191406 19.5 34.035156 19.421875 33.9375 19.28125 C 33.875 19.738281 33.84375 20.230469 33.84375 20.78125 C 33.84375 22.605469 34.242188 24.09375 34.71875 24.09375 C 35.195312 24.09375 35.5625 22.605469 35.5625 20.78125 C 35.5625 18.957031 35.195312 17.5 34.71875 17.5 M 34.5625 20.34375 C 34.722656 20.34375 34.875 20.464844 34.875 20.625 C 34.875 20.785156 34.726562 20.9375 34.5625 20.9375 C 34.402344 20.9375 34.28125 20.785156 34.28125 20.625 C 34.28125 20.464844 34.402344 20.34375 34.5625 20.34375 M 35.15625 21.25 C 35.28125 21.25 35.375 21.34375 35.375 21.46875 C 35.375 21.59375 35.285156 21.71875 35.15625 21.71875 C 35.03125 21.71875 34.90625 21.59375 34.90625 21.46875 C 34.90625 21.34375 35.03125 21.25 35.15625 21.25 M 35.15625 21.25 "/>
<path style=" stroke:none;fill-rule:nonzero;fill:rgb(17.647059%,17.647059%,17.647059%);fill-opacity:1;" d="M 12.785156 17.40625 C 12.539062 17.40625 12.316406 17.804688 12.160156 18.4375 C 12.246094 18.382812 12.335938 18.3125 12.441406 18.3125 C 12.742188 18.3125 12.972656 18.574219 12.972656 18.875 C 12.972656 19.175781 12.742188 19.40625 12.441406 19.40625 C 12.257812 19.40625 12.101562 19.328125 12.003906 19.1875 C 11.941406 19.644531 11.914062 20.132812 11.914062 20.6875 C 11.914062 22.511719 12.308594 24 12.789062 24 C 13.265625 24 13.632812 22.511719 13.632812 20.6875 C 13.632812 18.859375 13.265625 17.40625 12.789062 17.40625 M 12.628906 20.25 C 12.792969 20.25 12.941406 20.371094 12.941406 20.53125 C 12.941406 20.691406 12.789062 20.839844 12.628906 20.839844 C 12.464844 20.839844 12.347656 20.6875 12.347656 20.53125 C 12.347656 20.367188 12.46875 20.25 12.628906 20.25 M 13.222656 21.15625 C 13.351562 21.15625 13.441406 21.25 13.441406 21.375 C 13.441406 21.503906 13.351562 21.628906 13.222656 21.628906 C 13.097656 21.628906 12.972656 21.503906 12.972656 21.375 C 12.972656 21.25 13.097656 21.15625 13.222656 21.15625 M 13.222656 21.15625 "/>
<path style=" stroke:none;fill-rule:nonzero;fill:rgb(17.647059%,17.647059%,17.647059%);fill-opacity:1;" d="M 7.382812 19.300781 C 8.214844 18.261719 9.648438 16.511719 12.046875 16.386719 C 14.214844 16.433594 15.890625 18.089844 16.441406 19.019531 L 16.480469 17.261719 C 15.902344 16.078125 14.253906 15.28125 11.878906 15.414062 C 7.382812 15.796875 7.066406 17.617188 6.742188 18.285156 M 7.382812 19.300781 "/>
<path style=" stroke:none;fill-rule:nonzero;fill:rgb(17.647059%,17.647059%,17.647059%);fill-opacity:1;" d="M 31.339844 19.019531 L 31.324219 17.246094 C 32.074219 15.957031 33.628906 15.277344 36.253906 15.402344 C 38.175781 15.765625 40.136719 16.058594 41.003906 18.324219 L 40.394531 19.277344 C 39.113281 17.59375 37.703125 16.5625 36.128906 16.417969 C 32.953125 16.453125 32.117188 17.878906 31.339844 19.019531 M 31.339844 19.019531 "/>
</g>
</svg>
