<!-- color: #c14836 -->
<svg xmlns="http://www.w3.org/2000/svg" xmlns:xlink="http://www.w3.org/1999/xlink" width="48px" height="48px" viewBox="0 0 48 48" version="1.1">
<g id="surface1">
<path style=" stroke:none;fill-rule:nonzero;fill:rgb(97.647059%,97.647059%,97.647059%);fill-opacity:1;" d="M 24.03125 12 C 23.777344 11.996094 23.46875 12.007812 23.34375 12.03125 C 22.695312 12.144531 21.894531 12.839844 20.902344 14.15625 C 20.335938 14.910156 19.5625 15.445312 19.214844 15.3125 C 19.046875 15.25 18.949219 15.023438 18.898438 14.5625 C 18.808594 13.773438 18.613281 13.664062 18.023438 14.0625 C 17.808594 14.210938 17.335938 14.75 17.117188 15.125 C 16.929688 15.449219 16.828125 15.90625 16.867188 16.125 C 16.890625 16.210938 16.972656 16.394531 17.089844 16.53125 C 17.335938 16.824219 17.359375 16.894531 17.242188 17.6875 C 17.140625 18.386719 17.054688 18.648438 16.929688 18.6875 C 16.691406 18.761719 16.238281 18.609375 15.992188 18.34375 C 15.871094 18.21875 15.828125 18.128906 15.804688 17.90625 C 15.78125 17.753906 15.738281 17.585938 15.710938 17.53125 C 15.652344 17.433594 15.664062 17.421875 15.585938 17.53125 C 15.261719 17.953125 14.992188 18.726562 14.988281 19.28125 C 14.988281 20.148438 15.574219 21.261719 16.425781 22 C 16.789062 22.3125 16.84375 22.496094 16.738281 22.84375 C 16.632812 23.199219 16.644531 23.265625 16.863281 23.46875 C 16.972656 23.566406 17.078125 23.65625 17.113281 23.65625 C 17.148438 23.65625 17.296875 23.578125 17.394531 23.46875 C 17.632812 23.230469 17.863281 23.09375 18.085938 23.09375 C 18.28125 23.09375 18.503906 23.300781 18.648438 23.625 L 18.773438 23.84375 L 19.339844 23.84375 C 20.03125 23.84375 20.507812 23.796875 20.714844 23.65625 C 20.804688 23.597656 20.9375 23.40625 21.027344 23.25 C 21.425781 22.570312 21.519531 22.480469 21.808594 22.34375 C 22.308594 22.105469 23.027344 21.304688 23.027344 21 C 23.027344 20.777344 22.535156 20.257812 21.871094 19.75 C 21.726562 19.636719 21.644531 19.539062 21.652344 19.53125 C 21.726562 19.453125 22.738281 20.257812 22.996094 20.59375 L 23.121094 20.78125 L 23.277344 20.59375 C 23.457031 20.390625 23.75 20.238281 24.183594 20.1875 L 24.433594 20.1875 L 24.433594 19.6875 C 24.433594 19.425781 24.421875 19.082031 24.402344 18.90625 C 24.371094 18.605469 24.390625 18.566406 24.46875 18.59375 C 24.90625 18.777344 25.195312 18.828125 25.363281 18.71875 C 25.425781 18.683594 25.675781 18.351562 25.929688 17.96875 C 26.183594 17.585938 26.476562 17.183594 26.585938 17.09375 C 26.96875 16.746094 27.496094 16.5625 28.304688 16.5 C 28.695312 16.472656 28.75 16.503906 28.929688 16.59375 C 29.183594 16.722656 29.441406 17.019531 29.617188 17.4375 C 29.742188 17.746094 29.765625 17.808594 30.058594 18 C 30.546875 18.316406 30.902344 18.820312 31.027344 19.375 C 31.070312 19.554688 31.105469 19.636719 31.183594 19.65625 C 31.347656 19.699219 32.027344 19.675781 32.308594 19.625 C 32.917969 19.515625 33.648438 19.027344 34.277344 18.3125 C 34.628906 17.917969 34.914062 17.480469 34.871094 17.4375 C 34.851562 17.414062 34.433594 17.394531 33.96875 17.375 C 33.238281 17.339844 33.113281 17.324219 33.027344 17.25 C 32.90625 17.140625 32.894531 16.882812 32.996094 16.6875 C 33.105469 16.480469 33.4375 16.1875 33.8125 15.996094 C 34.476562 15.65625 35 15.070312 35 14.652344 C 35 14.40625 34.777344 14.027344 34.59375 13.964844 C 34.320312 13.882812 33.832031 14.015625 32.75 14.464844 C 32.402344 14.609375 32.007812 14.742188 31.875 14.777344 C 31.5 14.863281 30.804688 14.847656 30.5 14.746094 L 30.25 14.652344 L 30.21875 14.402344 C 30.1875 14.105469 30.070312 13.910156 29.875 13.808594 C 29.703125 13.726562 29.617188 13.730469 29.375 13.839844 C 29.082031 13.972656 28.835938 14.179688 28.5 14.652344 C 27.742188 15.746094 27.007812 16.164062 25.6875 16.183594 C 25.257812 16.195312 25.183594 16.175781 25.0625 16.089844 C 24.78125 15.886719 24.71875 15.734375 24.71875 15.058594 C 24.722656 14.425781 24.78125 14.105469 25.03125 13.433594 C 25.277344 12.765625 25.179688 12.347656 24.71875 12.117188 C 24.519531 12.023438 24.402344 12.007812 24.027344 11.992188 M 28.558594 16.652344 C 28.425781 16.65625 28.226562 16.6875 27.867188 16.746094 C 27.46875 16.8125 27.226562 16.871094 27.054688 16.96875 C 26.699219 17.15625 26.269531 17.621094 26.023438 18.09375 C 25.796875 18.53125 25.617188 18.734375 25.398438 18.84375 C 25.226562 18.933594 24.898438 18.933594 24.679688 18.84375 L 24.523438 18.777344 L 24.554688 18.933594 C 24.582031 19.019531 24.617188 19.332031 24.617188 19.621094 L 24.617188 20.152344 L 24.773438 20.152344 C 24.933594 20.152344 25.007812 20.101562 25.242188 19.839844 C 25.871094 19.140625 26.488281 18.546875 26.808594 18.339844 C 27.460938 17.90625 28.375 17.6875 29.183594 17.746094 C 29.582031 17.773438 29.589844 17.757812 29.558594 17.652344 C 29.441406 17.277344 29.117188 16.84375 28.867188 16.714844 C 28.785156 16.671875 28.691406 16.644531 28.554688 16.648438 M 28.808594 18.027344 C 28.527344 18.03125 28.226562 18.050781 28.058594 18.089844 C 27.742188 18.160156 27.332031 18.363281 26.992188 18.589844 C 26.863281 18.675781 26.378906 19.109375 25.898438 19.558594 L 25.054688 20.371094 L 24.613281 20.371094 C 23.800781 20.371094 23.386719 20.617188 23.300781 21.09375 C 23.277344 21.238281 23.191406 21.421875 23.113281 21.53125 C 22.933594 21.789062 22.164062 22.460938 21.550781 22.878906 L 21.425781 22.941406 L 21.613281 22.910156 C 22.304688 22.800781 23.742188 22.171875 24.207031 21.785156 C 24.351562 21.664062 24.707031 21.449219 24.988281 21.316406 C 25.480469 21.078125 25.515625 21.054688 25.675781 20.785156 C 26.425781 19.507812 27.402344 18.722656 28.394531 18.597656 C 28.691406 18.558594 29.292969 18.59375 29.394531 18.660156 C 29.433594 18.683594 29.585938 18.980469 29.585938 19.035156 C 29.585938 19.050781 29.476562 19.003906 29.335938 18.910156 C 29.191406 18.8125 29.0625 18.738281 29.054688 18.757812 C 29.046875 18.765625 29.148438 18.960938 29.273438 19.195312 L 29.492188 19.601562 L 29.304688 19.382812 C 29.207031 19.261719 29.046875 19.089844 28.929688 18.976562 L 28.710938 18.757812 L 28.394531 18.785156 C 27.960938 18.828125 27.707031 18.980469 27.707031 19.191406 C 27.707031 19.242188 28.183594 19.597656 28.832031 19.972656 C 29.023438 20.085938 29.183594 20.179688 29.175781 20.191406 C 29.167969 20.199219 29.039062 20.148438 28.863281 20.097656 C 28.695312 20.042969 28.550781 20.003906 28.550781 20.003906 C 28.546875 20.003906 28.539062 20.148438 28.550781 20.316406 C 28.5625 20.550781 28.539062 20.65625 28.457031 20.847656 C 28.320312 21.148438 27.941406 21.523438 27.582031 21.691406 C 27.34375 21.796875 27.265625 21.8125 26.988281 21.785156 C 26.8125 21.769531 26.40625 21.710938 26.113281 21.632812 C 25.527344 21.476562 25.261719 21.464844 25.050781 21.632812 C 24.875 21.765625 24.890625 22.027344 25.082031 22.285156 C 25.265625 22.53125 25.378906 22.601562 25.734375 22.691406 C 26.484375 22.886719 27.371094 22.691406 28.175781 22.160156 C 28.296875 22.078125 28.398438 22.007812 28.425781 22.007812 C 28.597656 22.007812 28.136719 22.492188 27.800781 22.660156 C 27.101562 23.007812 26.046875 23.085938 25.425781 22.816406 C 25.121094 22.691406 24.78125 22.335938 24.703125 22.066406 C 24.671875 21.964844 24.621094 21.847656 24.601562 21.847656 C 24.59375 21.847656 24.53125 21.90625 24.453125 21.972656 C 24.296875 22.105469 23.539062 22.480469 23.015625 22.691406 C 22.828125 22.765625 22.6875 22.839844 22.671875 22.847656 C 22.652344 22.855469 22.714844 22.9375 22.796875 23.003906 C 23.105469 23.257812 23.234375 23.605469 23.109375 23.847656 C 23.0625 23.929688 23.054688 23.941406 23.484375 23.941406 C 24.308594 23.941406 24.515625 24.085938 24.515625 24.632812 C 24.515625 24.976562 24.550781 25.074219 24.765625 25.132812 C 24.921875 25.164062 25.007812 25.078125 25.078125 24.851562 C 25.132812 24.679688 25.144531 24.648438 25.203125 24.726562 C 25.394531 24.976562 25.152344 25.414062 24.828125 25.414062 C 24.671875 25.414062 24.601562 25.394531 24.300781 25.195312 C 24.121094 25.082031 23.984375 25.074219 23.578125 25.195312 C 23.386719 25.246094 23.140625 25.472656 23.140625 25.601562 C 23.140625 25.644531 23.234375 25.746094 23.328125 25.851562 C 23.5625 26.117188 23.644531 26.335938 23.644531 26.726562 C 23.648438 27.105469 23.621094 27.285156 23.328125 27.882812 C 22.890625 28.796875 22.351562 30.269531 22.140625 31.285156 C 21.984375 32.050781 21.941406 32.988281 22.046875 33.476562 C 22.234375 34.363281 22.714844 34.886719 23.445312 35.039062 C 23.691406 35.089844 24.386719 35.414062 24.386719 35.476562 C 24.386719 35.519531 23.605469 35.3125 23.261719 35.195312 C 22.554688 34.945312 22.140625 34.550781 21.945312 33.976562 C 21.84375 33.652344 21.804688 32.425781 21.882812 31.851562 C 22 31.003906 22.515625 29.167969 23.132812 27.414062 C 23.394531 26.667969 23.421875 26.589844 23.320312 26.351562 C 23.238281 26.152344 22.96875 26.035156 22.570312 26.007812 C 22.277344 25.984375 22.289062 25.984375 22.132812 26.160156 C 21.953125 26.371094 21.820312 26.746094 21.664062 27.476562 L 21.539062 28.007812 L 21.570312 27.566406 C 21.597656 27.089844 21.777344 25.742188 21.820312 25.597656 C 21.847656 25.511719 21.511719 25.816406 21.351562 26.035156 C 21.269531 26.148438 21.058594 26.285156 20.914062 26.285156 C 20.773438 26.285156 20.5625 26.089844 20.476562 25.882812 L 20.414062 25.757812 L 19.597656 25.785156 C 19.148438 25.800781 18.765625 25.8125 18.753906 25.816406 C 18.75 25.824219 18.6875 26.039062 18.628906 26.316406 C 18.351562 27.734375 17.683594 29.511719 16.816406 31.035156 C 16.0625 32.367188 15.972656 32.644531 16.003906 33.410156 C 16.019531 33.828125 16.023438 33.914062 16.152344 34.191406 C 16.550781 34.988281 17.742188 35.675781 18.683594 35.632812 C 18.980469 35.613281 19.105469 35.566406 19.375 35.441406 C 19.761719 35.261719 20.21875 34.925781 20.5 34.597656 L 20.71875 34.347656 L 20.71875 33.65625 C 20.71875 33.277344 20.765625 32.671875 20.8125 32.28125 C 20.863281 31.894531 20.878906 31.335938 20.878906 31.03125 C 20.863281 29.644531 20.476562 27.78125 20.0625 27.1875 C 19.835938 26.855469 19.828125 26.859375 19.9375 26.9375 C 20.40625 27.257812 20.765625 28.402344 20.96875 30.128906 C 21.011719 30.488281 21.054688 30.808594 21.0625 30.816406 C 21.085938 30.839844 21.394531 30.464844 21.53125 30.253906 C 21.660156 30.058594 21.660156 30.101562 21.40625 30.691406 C 21.019531 31.589844 20.886719 32.273438 20.90625 33.441406 C 20.925781 34.175781 20.9375 34.246094 21.0625 34.507812 C 21.445312 35.265625 22.835938 36.007812 23.878906 36.007812 C 24.730469 36.007812 25.761719 35.59375 26.503906 34.910156 C 26.828125 34.613281 26.847656 34.574219 26.941406 34.257812 C 27.214844 33.367188 27.414062 31.652344 27.382812 30.566406 C 27.359375 29.972656 27.316406 29.769531 27.191406 29.347656 C 27.003906 28.71875 26.597656 27.746094 26.253906 27.066406 C 26.03125 26.632812 25.855469 26.054688 25.90625 26.003906 C 25.921875 25.996094 26.003906 26.140625 26.097656 26.316406 C 26.210938 26.519531 26.273438 26.609375 26.285156 26.566406 C 26.300781 26.527344 26.414062 26.109375 26.535156 25.660156 C 26.753906 24.851562 26.765625 24.847656 26.691406 24.632812 C 26.550781 24.195312 26.496094 23.859375 26.566406 23.785156 C 26.644531 23.683594 26.695312 23.722656 26.816406 24.132812 C 26.871094 24.324219 26.914062 24.519531 26.941406 24.535156 C 26.960938 24.558594 27.113281 24.4375 27.257812 24.285156 L 27.507812 24.035156 L 27.382812 24.226562 C 27.316406 24.34375 27.183594 24.621094 27.066406 24.820312 C 26.863281 25.175781 26.714844 25.621094 26.535156 26.507812 L 26.472656 26.882812 L 26.753906 27.539062 C 26.914062 27.898438 27.066406 28.277344 27.097656 28.382812 C 27.152344 28.617188 27.265625 28.761719 27.378906 28.726562 C 27.492188 28.6875 27.714844 28.789062 28.003906 29.039062 C 28.285156 29.292969 28.515625 29.386719 28.847656 29.355469 C 29.394531 29.3125 30.058594 28.847656 30.320312 28.324219 C 30.445312 28.078125 30.445312 28.03125 30.445312 27.480469 L 30.445312 26.886719 L 29.878906 25.695312 C 29.566406 25.050781 29.300781 24.425781 29.285156 24.320312 C 29.222656 23.84375 29.519531 22.96875 30.035156 22.195312 C 30.449219 21.578125 30.535156 21.410156 30.660156 20.664062 C 30.78125 19.945312 30.761719 19.238281 30.628906 18.914062 C 30.421875 18.394531 30.128906 18.160156 29.566406 18.070312 C 29.355469 18.039062 29.066406 18.035156 28.785156 18.039062 M 31.015625 19.941406 C 31.007812 19.964844 31.015625 20 31.015625 20.066406 C 31.015625 20.3125 30.847656 21.132812 30.734375 21.441406 C 30.679688 21.578125 30.460938 21.984375 30.234375 22.316406 C 29.769531 23.007812 29.523438 23.535156 29.484375 24.007812 C 29.445312 24.445312 29.539062 24.730469 29.828125 25.160156 C 30.398438 26.015625 30.671875 26.816406 30.671875 27.566406 C 30.671875 28.179688 30.601562 28.46875 30.296875 28.757812 C 30.011719 29.027344 30.0625 29.019531 30.671875 28.726562 C 31.945312 28.121094 32.886719 27.09375 33.171875 26.007812 C 33.335938 25.363281 33.230469 24.9375 32.734375 24.066406 C 31.988281 22.773438 31.476562 21.519531 31.203125 20.410156 C 31.105469 20.015625 31.03125 19.875 31.015625 19.941406 M 21.824219 23.035156 C 21.503906 23.078125 21.347656 23.183594 21.136719 23.476562 C 20.964844 23.722656 20.804688 23.839844 20.414062 23.945312 C 20.101562 24.03125 18.816406 24.074219 18.726562 24.007812 C 18.699219 23.988281 18.558594 23.847656 18.445312 23.695312 C 18.21875 23.390625 18.109375 23.304688 17.914062 23.351562 C 17.714844 23.402344 17.382812 23.746094 17.195312 24.101562 C 17.03125 24.40625 16.691406 25.371094 16.726562 25.414062 C 16.742188 25.421875 17.210938 25.265625 17.789062 25.070312 C 19.117188 24.628906 19.871094 24.445312 20.789062 24.351562 C 21.921875 24.238281 22.34375 24.175781 22.570312 24.035156 C 22.933594 23.824219 23.046875 23.414062 22.789062 23.191406 C 22.5625 22.980469 22.425781 22.957031 21.820312 23.035156 M 23.601562 24.132812 C 23.417969 24.136719 23.21875 24.152344 22.949219 24.195312 C 22.636719 24.242188 22.21875 24.308594 22.046875 24.351562 C 21.605469 24.453125 20.972656 24.570312 20.355469 24.632812 C 19.382812 24.734375 18.785156 24.9375 18.386719 25.320312 L 18.136719 25.539062 L 19.324219 25.570312 L 20.515625 25.570312 L 20.578125 25.726562 C 20.613281 25.816406 20.699219 25.945312 20.765625 26.007812 C 20.871094 26.109375 20.875 26.097656 21.015625 26.035156 C 21.117188 25.992188 21.253906 25.875 21.390625 25.660156 C 21.746094 25.117188 21.898438 25.070312 22.078125 25.441406 C 22.171875 25.640625 22.222656 25.683594 22.328125 25.691406 C 22.527344 25.714844 22.730469 25.589844 22.921875 25.316406 C 23.015625 25.179688 23.175781 24.976562 23.265625 24.878906 L 23.421875 24.6875 L 23.609375 24.78125 C 23.835938 24.886719 23.988281 24.851562 24.109375 24.65625 C 24.339844 24.300781 24.167969 24.117188 23.609375 24.128906 M 27.457031 28.972656 C 27.433594 28.972656 27.457031 29.203125 27.519531 29.472656 C 27.585938 29.742188 27.660156 30.179688 27.675781 30.441406 C 27.707031 30.964844 27.765625 31.101562 27.988281 31.285156 C 28.144531 31.414062 28.386719 31.4375 28.554688 31.351562 C 28.742188 31.257812 28.996094 30.539062 29.085938 29.820312 L 29.113281 29.539062 L 28.925781 29.570312 C 28.550781 29.628906 27.855469 29.371094 27.582031 29.070312 C 27.527344 29.019531 27.472656 28.976562 27.457031 28.976562 M 27.457031 28.976562 "/>
</g>
</svg>
