<!-- color: #eeeeee -->
<svg xmlns="http://www.w3.org/2000/svg" xmlns:xlink="http://www.w3.org/1999/xlink" width="48px" height="48px" viewBox="0 0 48 48" version="1.1">
<defs>
<linearGradient id="linear0" gradientUnits="userSpaceOnUse" x1="0" y1="133" x2="0" y2="43" gradientTransform="matrix(0.3614,0,0,0.375,-170.8326,136.93135)">
<stop offset="0" style="stop-color:rgb(54.509804%,16.078431%,15.686275%);stop-opacity:1;"/>
<stop offset="1" style="stop-color:rgb(78.823529%,17.254902%,18.431373%);stop-opacity:1;"/>
</linearGradient>
<linearGradient id="linear1" gradientUnits="userSpaceOnUse" x1="0" y1="133" x2="0" y2="43" gradientTransform="matrix(0.361397,0,0,0.374997,-103.210142,-9.001114)">
<stop offset="0" style="stop-color:rgb(54.509804%,16.078431%,15.686275%);stop-opacity:1;"/>
<stop offset="1" style="stop-color:rgb(78.823529%,17.254902%,18.431373%);stop-opacity:1;"/>
</linearGradient>
</defs>
<g id="surface1">
<path style="fill-rule:nonzero;fill:url(#linear0);stroke-width:2;stroke-linecap:butt;stroke-linejoin:miter;stroke:rgb(12.156863%,0%,0%);stroke-opacity:1;stroke-miterlimit:4;" d="M -43.621458 157.928739 C -43.621458 157.928739 -45.191783 160.452197 -46.465231 160.881888 C -47.734772 161.311579 -50.418387 160.225633 -50.418387 160.225633 C -50.418387 160.225633 -50.266042 163.217844 -51.051205 164.338947 C -51.836367 165.460049 -54.621546 166.225681 -54.621546 166.225681 C -54.621546 166.225681 -52.7895 168.542105 -52.7895 169.928835 C -52.7895 171.315565 -54.621546 173.63199 -54.621546 173.63199 C -54.621546 173.63199 -51.836367 174.397621 -51.051205 175.518724 C -50.266042 176.643733 -50.418387 179.632038 -50.418387 179.632038 C -50.418387 179.632038 -47.738678 178.549998 -46.465231 178.975783 C -45.191783 179.405473 -43.621458 181.928931 -43.621458 181.928931 C -43.621458 181.928931 -42.051133 179.405473 -40.773779 178.975783 C -39.504238 178.549998 -36.820622 179.632038 -36.820622 179.632038 C -36.820622 179.632038 -36.976874 176.643733 -36.191711 175.518724 C -35.406549 174.401527 -32.62137 173.63199 -32.62137 173.63199 C -32.62137 173.63199 -34.44951 171.315565 -34.44951 169.928835 C -34.44951 168.542105 -32.62137 166.225681 -32.62137 166.225681 C -32.62137 166.225681 -35.402642 165.460049 -36.191711 164.338947 C -36.976874 163.217844 -36.820622 160.225633 -36.820622 160.225633 C -36.820622 160.225633 -39.504238 161.311579 -40.773779 160.881888 C -42.051133 160.452197 -43.621458 157.928739 -43.621458 157.928739 M -43.621458 157.928739 " transform="matrix(0.999992,0,0,0.999992,67.621109,-145.931382)"/>
<path style=" stroke:none;fill-rule:evenodd;fill:rgb(12.156863%,0%,0%);fill-opacity:1;" d="M 21.742188 17.738281 C 21.542969 17.71875 21.332031 17.746094 21.121094 17.832031 C 20.648438 18.019531 20.3125 18.339844 20.09375 18.734375 C 19.871094 19.128906 19.765625 19.605469 19.730469 20.117188 C 19.664062 21.136719 19.871094 22.332031 20.082031 23.492188 C 20.292969 24.652344 20.503906 25.773438 20.464844 26.621094 C 20.445312 27.042969 20.363281 27.390625 20.207031 27.640625 C 20.046875 27.886719 19.824219 28.050781 19.449219 28.121094 C 19.222656 28.164062 19.019531 28.046875 18.804688 27.769531 C 18.589844 27.492188 18.398438 27.066406 18.238281 26.644531 C 17.921875 25.792969 17.753906 24.910156 17.753906 24.910156 C 17.734375 24.8125 17.628906 24.742188 17.535156 24.761719 C 17.4375 24.785156 17.371094 24.894531 17.390625 24.992188 C 17.390625 24.992188 17.570312 25.894531 17.902344 26.785156 C 18.066406 27.230469 18.265625 27.671875 18.523438 28.003906 C 18.777344 28.335938 19.125 28.570312 19.515625 28.496094 C 19.964844 28.410156 20.300781 28.179688 20.507812 27.851562 C 20.71875 27.523438 20.804688 27.105469 20.824219 26.644531 C 20.867188 25.71875 20.652344 24.582031 20.441406 23.421875 C 20.230469 22.261719 20.027344 21.085938 20.089844 20.140625 C 20.125 19.667969 20.214844 19.25 20.394531 18.921875 C 20.578125 18.59375 20.851562 18.34375 21.253906 18.183594 C 21.585938 18.050781 21.863281 18.09375 22.136719 18.242188 C 22.410156 18.386719 22.667969 18.648438 22.878906 18.933594 C 22.941406 19.015625 22.996094 19.09375 23.050781 19.179688 L 21.390625 20.433594 L 22.519531 22.050781 C 22.125 22.796875 21.910156 23.671875 21.910156 24.582031 C 21.910156 27.480469 24.171875 29.832031 26.96875 29.832031 C 29.761719 29.832031 32.027344 27.480469 32.027344 24.582031 C 32.027344 21.683594 29.761719 19.332031 26.96875 19.332031 C 26.652344 19.332031 26.34375 19.367188 26.042969 19.425781 L 24.902344 17.785156 L 23.332031 18.96875 C 23.273438 18.878906 23.226562 18.789062 23.164062 18.699219 C 22.929688 18.386719 22.648438 18.097656 22.304688 17.914062 C 22.132812 17.820312 21.9375 17.753906 21.738281 17.738281 M 24.507812 20.984375 C 24.511719 20.984375 24.515625 20.984375 24.519531 20.984375 C 24.527344 20.984375 24.535156 20.984375 24.542969 20.984375 C 24.582031 20.984375 24.625 21 24.65625 21.03125 L 26.101562 22.15625 C 26.179688 22.214844 26.195312 22.34375 26.136719 22.425781 C 26.078125 22.503906 25.953125 22.519531 25.875 22.460938 L 24.429688 21.335938 C 24.3125 21.253906 24.359375 21.023438 24.496094 20.996094 C 24.5 20.992188 24.503906 20.988281 24.507812 20.984375 M 28.855469 20.984375 C 28.863281 20.984375 28.871094 20.984375 28.878906 20.984375 C 29.046875 20.953125 29.144531 21.253906 28.992188 21.335938 L 27.546875 22.460938 C 27.46875 22.519531 27.34375 22.503906 27.285156 22.425781 C 27.226562 22.34375 27.242188 22.21875 27.320312 22.15625 L 28.765625 21.03125 C 28.789062 21.011719 28.816406 21 28.84375 20.996094 C 28.847656 20.992188 28.851562 20.988281 28.855469 20.984375 M 25.265625 22.496094 C 25.765625 22.496094 26.167969 22.914062 26.167969 23.433594 C 26.167969 23.949219 25.761719 24.371094 25.265625 24.371094 C 24.765625 24.371094 24.363281 23.949219 24.363281 23.433594 C 24.363281 22.914062 24.765625 22.496094 25.265625 22.496094 M 28.15625 22.496094 C 28.65625 22.496094 29.058594 22.914062 29.058594 23.433594 C 29.058594 23.949219 28.65625 24.371094 28.15625 24.371094 C 27.65625 24.371094 27.253906 23.949219 27.253906 23.433594 C 27.253906 22.914062 27.660156 22.496094 28.15625 22.496094 M 17.066406 23.058594 C 16.976562 23.09375 16.929688 23.210938 16.964844 23.304688 L 17.324219 24.429688 C 17.34375 24.535156 17.460938 24.609375 17.558594 24.574219 C 17.660156 24.542969 17.710938 24.40625 17.660156 24.3125 L 17.300781 23.1875 C 17.277344 23.09375 17.175781 23.035156 17.085938 23.058594 C 17.078125 23.058594 17.070312 23.058594 17.0625 23.058594 M 18.554688 23.199219 C 18.542969 23.203125 18.53125 23.203125 18.519531 23.210938 C 18.46875 23.226562 18.425781 23.265625 18.40625 23.316406 L 17.898438 24.371094 C 17.839844 24.457031 17.871094 24.59375 17.964844 24.644531 C 18.054688 24.691406 18.179688 24.644531 18.21875 24.546875 L 18.738281 23.480469 C 18.808594 23.359375 18.691406 23.179688 18.558594 23.199219 M 16.003906 23.996094 C 15.988281 24 15.980469 24 15.972656 24.007812 C 15.824219 24.042969 15.804688 24.292969 15.9375 24.359375 L 16.953125 24.886719 C 17.035156 24.949219 17.167969 24.914062 17.214844 24.820312 C 17.265625 24.726562 17.21875 24.597656 17.121094 24.558594 L 16.09375 24.019531 C 16.066406 24.003906 16.035156 23.996094 16.003906 23.996094 M 19.484375 24.359375 C 19.46875 24.359375 19.453125 24.363281 19.4375 24.371094 C 19.433594 24.375 19.429688 24.378906 19.425781 24.382812 L 18.34375 24.757812 C 18.238281 24.773438 18.164062 24.898438 18.199219 25 C 18.230469 25.101562 18.359375 25.160156 18.453125 25.109375 L 19.535156 24.734375 C 19.636719 24.71875 19.703125 24.613281 19.6875 24.515625 C 19.671875 24.417969 19.574219 24.34375 19.480469 24.359375 M 16.949219 25.109375 C 16.933594 25.109375 16.921875 25.113281 16.90625 25.121094 C 16.902344 25.125 16.898438 25.128906 16.894531 25.132812 L 15.808594 25.507812 C 15.703125 25.523438 15.636719 25.648438 15.664062 25.75 C 15.699219 25.851562 15.828125 25.910156 15.921875 25.859375 L 17.007812 25.484375 C 17.101562 25.46875 17.171875 25.363281 17.15625 25.265625 C 17.140625 25.167969 17.039062 25.09375 16.945312 25.109375 M 29.777344 25.121094 L 29.777344 26.996094 C 29.050781 26.996094 27.609375 26.246094 23.453125 26.058594 C 27.609375 25.871094 29.058594 25.121094 29.777344 25.121094 M 18.246094 25.332031 C 18.105469 25.375 18.089844 25.621094 18.226562 25.683594 L 19.253906 26.222656 C 19.339844 26.265625 19.449219 26.222656 19.492188 26.132812 C 19.535156 26.046875 19.492188 25.925781 19.40625 25.882812 L 18.390625 25.355469 C 18.355469 25.332031 18.308594 25.324219 18.269531 25.332031 C 18.261719 25.332031 18.253906 25.332031 18.246094 25.332031 M 17.253906 25.589844 C 17.195312 25.601562 17.148438 25.640625 17.128906 25.695312 L 16.605469 26.761719 C 16.566406 26.847656 16.605469 26.96875 16.691406 27.011719 C 16.777344 27.054688 16.894531 27.011719 16.933594 26.925781 L 17.441406 25.871094 C 17.507812 25.753906 17.402344 25.578125 17.273438 25.589844 C 17.265625 25.589844 17.257812 25.589844 17.253906 25.589844 M 17.253906 25.589844 "/>
<path style=" stroke:none;fill-rule:nonzero;fill:url(#linear1);" d="M 24 11.996094 C 24 11.996094 22.429688 14.519531 21.15625 14.949219 C 19.886719 15.378906 17.203125 14.292969 17.203125 14.292969 C 17.203125 14.292969 17.355469 17.285156 16.570312 18.40625 C 15.785156 19.527344 13 20.292969 13 20.292969 C 13 20.292969 14.832031 22.609375 14.832031 23.996094 C 14.832031 25.382812 13 27.699219 13 27.699219 C 13 27.699219 15.785156 28.464844 16.570312 29.585938 C 17.355469 30.710938 17.203125 33.699219 17.203125 33.699219 C 17.203125 33.699219 19.882812 32.617188 21.15625 33.042969 C 22.429688 33.472656 24 35.996094 24 35.996094 C 24 35.996094 25.570312 33.472656 26.847656 33.042969 C 28.117188 32.617188 30.800781 33.699219 30.800781 33.699219 C 30.800781 33.699219 30.644531 30.710938 31.429688 29.585938 C 32.214844 28.46875 35 27.699219 35 27.699219 C 35 27.699219 33.171875 25.382812 33.171875 23.996094 C 33.171875 22.609375 35 20.292969 35 20.292969 C 35 20.292969 32.21875 19.527344 31.429688 18.40625 C 30.644531 17.285156 30.800781 14.292969 30.800781 14.292969 C 30.800781 14.292969 28.117188 15.378906 26.847656 14.949219 C 25.570312 14.519531 24 11.996094 24 11.996094 M 24 11.996094 "/>
<path style=" stroke:none;fill-rule:evenodd;fill:rgb(12.156863%,0%,0%);fill-opacity:1;" d="M 21.742188 17.738281 C 21.542969 17.71875 21.332031 17.746094 21.121094 17.832031 C 20.648438 18.019531 20.3125 18.339844 20.09375 18.734375 C 19.871094 19.128906 19.765625 19.605469 19.730469 20.117188 C 19.664062 21.136719 19.871094 22.332031 20.082031 23.492188 C 20.292969 24.652344 20.503906 25.773438 20.464844 26.621094 C 20.445312 27.042969 20.363281 27.390625 20.207031 27.640625 C 20.046875 27.886719 19.824219 28.050781 19.449219 28.121094 C 19.222656 28.164062 19.019531 28.046875 18.804688 27.769531 C 18.589844 27.492188 18.398438 27.066406 18.238281 26.644531 C 17.921875 25.792969 17.753906 24.910156 17.753906 24.910156 C 17.734375 24.8125 17.628906 24.742188 17.535156 24.761719 C 17.4375 24.785156 17.371094 24.894531 17.390625 24.992188 C 17.390625 24.992188 17.570312 25.894531 17.902344 26.785156 C 18.066406 27.230469 18.265625 27.671875 18.523438 28.003906 C 18.777344 28.335938 19.125 28.570312 19.515625 28.496094 C 19.964844 28.410156 20.300781 28.179688 20.507812 27.851562 C 20.71875 27.523438 20.804688 27.105469 20.824219 26.644531 C 20.867188 25.71875 20.652344 24.582031 20.441406 23.421875 C 20.230469 22.261719 20.027344 21.085938 20.089844 20.140625 C 20.125 19.667969 20.214844 19.25 20.394531 18.921875 C 20.578125 18.59375 20.851562 18.34375 21.253906 18.183594 C 21.585938 18.050781 21.863281 18.09375 22.136719 18.242188 C 22.410156 18.386719 22.667969 18.648438 22.878906 18.933594 C 22.941406 19.015625 22.996094 19.09375 23.050781 19.179688 L 21.390625 20.433594 L 22.519531 22.050781 C 22.125 22.796875 21.910156 23.671875 21.910156 24.582031 C 21.910156 27.480469 24.171875 29.832031 26.96875 29.832031 C 29.761719 29.832031 32.027344 27.480469 32.027344 24.582031 C 32.027344 21.683594 29.761719 19.332031 26.96875 19.332031 C 26.652344 19.332031 26.34375 19.367188 26.042969 19.425781 L 24.902344 17.785156 L 23.332031 18.96875 C 23.273438 18.878906 23.226562 18.789062 23.164062 18.699219 C 22.929688 18.386719 22.648438 18.097656 22.304688 17.914062 C 22.132812 17.820312 21.9375 17.753906 21.738281 17.738281 M 24.507812 20.984375 C 24.511719 20.984375 24.515625 20.984375 24.519531 20.984375 C 24.527344 20.984375 24.535156 20.984375 24.542969 20.984375 C 24.582031 20.984375 24.625 21 24.65625 21.03125 L 26.101562 22.15625 C 26.179688 22.214844 26.195312 22.34375 26.136719 22.425781 C 26.078125 22.503906 25.953125 22.519531 25.875 22.460938 L 24.429688 21.335938 C 24.3125 21.253906 24.359375 21.023438 24.496094 20.996094 C 24.5 20.992188 24.503906 20.988281 24.507812 20.984375 M 28.855469 20.984375 C 28.863281 20.984375 28.871094 20.984375 28.878906 20.984375 C 29.046875 20.953125 29.144531 21.253906 28.992188 21.335938 L 27.546875 22.460938 C 27.46875 22.519531 27.34375 22.503906 27.285156 22.425781 C 27.226562 22.34375 27.242188 22.21875 27.320312 22.15625 L 28.765625 21.03125 C 28.789062 21.011719 28.816406 21 28.84375 20.996094 C 28.847656 20.992188 28.851562 20.988281 28.855469 20.984375 M 25.265625 22.496094 C 25.765625 22.496094 26.167969 22.914062 26.167969 23.433594 C 26.167969 23.949219 25.761719 24.371094 25.265625 24.371094 C 24.765625 24.371094 24.363281 23.949219 24.363281 23.433594 C 24.363281 22.914062 24.765625 22.496094 25.265625 22.496094 M 28.15625 22.496094 C 28.65625 22.496094 29.058594 22.914062 29.058594 23.433594 C 29.058594 23.949219 28.65625 24.371094 28.15625 24.371094 C 27.65625 24.371094 27.253906 23.949219 27.253906 23.433594 C 27.253906 22.914062 27.660156 22.496094 28.15625 22.496094 M 17.066406 23.058594 C 16.976562 23.09375 16.929688 23.210938 16.964844 23.304688 L 17.324219 24.429688 C 17.34375 24.535156 17.460938 24.609375 17.558594 24.574219 C 17.660156 24.542969 17.710938 24.40625 17.660156 24.3125 L 17.300781 23.1875 C 17.277344 23.09375 17.175781 23.035156 17.085938 23.058594 C 17.078125 23.058594 17.070312 23.058594 17.0625 23.058594 M 18.554688 23.199219 C 18.542969 23.203125 18.53125 23.203125 18.519531 23.210938 C 18.46875 23.226562 18.425781 23.265625 18.40625 23.316406 L 17.898438 24.371094 C 17.839844 24.457031 17.871094 24.59375 17.964844 24.644531 C 18.054688 24.691406 18.179688 24.644531 18.21875 24.546875 L 18.738281 23.480469 C 18.808594 23.359375 18.691406 23.179688 18.558594 23.199219 M 16.003906 23.996094 C 15.988281 24 15.980469 24 15.972656 24.007812 C 15.824219 24.042969 15.804688 24.292969 15.9375 24.359375 L 16.953125 24.886719 C 17.035156 24.949219 17.167969 24.914062 17.214844 24.820312 C 17.265625 24.726562 17.21875 24.597656 17.121094 24.558594 L 16.09375 24.019531 C 16.066406 24.003906 16.035156 23.996094 16.003906 23.996094 M 19.484375 24.359375 C 19.46875 24.359375 19.453125 24.363281 19.4375 24.371094 C 19.433594 24.375 19.429688 24.378906 19.425781 24.382812 L 18.34375 24.757812 C 18.238281 24.773438 18.164062 24.898438 18.199219 25 C 18.230469 25.101562 18.359375 25.160156 18.453125 25.109375 L 19.535156 24.734375 C 19.636719 24.71875 19.703125 24.613281 19.6875 24.515625 C 19.671875 24.417969 19.574219 24.34375 19.480469 24.359375 M 16.949219 25.109375 C 16.933594 25.109375 16.921875 25.113281 16.90625 25.121094 C 16.902344 25.125 16.898438 25.128906 16.894531 25.132812 L 15.808594 25.507812 C 15.703125 25.523438 15.636719 25.648438 15.664062 25.75 C 15.699219 25.851562 15.828125 25.910156 15.921875 25.859375 L 17.007812 25.484375 C 17.101562 25.46875 17.171875 25.363281 17.15625 25.265625 C 17.140625 25.167969 17.039062 25.09375 16.945312 25.109375 M 29.777344 25.121094 L 29.777344 26.996094 C 29.050781 26.996094 27.609375 26.246094 23.453125 26.058594 C 27.609375 25.871094 29.058594 25.121094 29.777344 25.121094 M 18.246094 25.332031 C 18.105469 25.375 18.089844 25.621094 18.226562 25.683594 L 19.253906 26.222656 C 19.339844 26.265625 19.449219 26.222656 19.492188 26.132812 C 19.535156 26.046875 19.492188 25.925781 19.40625 25.882812 L 18.390625 25.355469 C 18.355469 25.332031 18.308594 25.324219 18.269531 25.332031 C 18.261719 25.332031 18.253906 25.332031 18.246094 25.332031 M 17.253906 25.589844 C 17.195312 25.601562 17.148438 25.640625 17.128906 25.695312 L 16.605469 26.761719 C 16.566406 26.847656 16.605469 26.96875 16.691406 27.011719 C 16.777344 27.054688 16.894531 27.011719 16.933594 26.925781 L 17.441406 25.871094 C 17.507812 25.753906 17.402344 25.578125 17.273438 25.589844 C 17.265625 25.589844 17.257812 25.589844 17.253906 25.589844 M 17.253906 25.589844 "/>
<path style=" stroke:none;fill-rule:nonzero;fill:rgb(12.156863%,0%,0%);fill-opacity:1;" d="M 24 11.308594 L 23.695312 11.800781 C 23.695312 11.800781 23.316406 12.414062 22.78125 13.078125 C 22.246094 13.742188 21.523438 14.4375 21.042969 14.597656 C 20.5625 14.761719 19.597656 14.632812 18.792969 14.421875 C 17.988281 14.210938 17.335938 13.941406 17.335938 13.941406 L 16.804688 13.730469 L 16.839844 14.316406 C 16.839844 14.316406 16.875 15.039062 16.816406 15.898438 C 16.757812 16.761719 16.574219 17.761719 16.277344 18.183594 C 15.980469 18.609375 15.125 19.105469 14.355469 19.425781 C 13.585938 19.75 12.910156 19.929688 12.910156 19.929688 L 12.367188 20.082031 L 12.71875 20.527344 C 12.71875 20.527344 13.164062 21.097656 13.609375 21.828125 C 14.054688 22.558594 14.46875 23.472656 14.46875 23.996094 C 14.46875 24.519531 14.054688 25.433594 13.609375 26.164062 C 13.164062 26.894531 12.71875 27.464844 12.71875 27.464844 L 12.367188 27.910156 L 12.910156 28.0625 C 12.910156 28.0625 13.585938 28.246094 14.355469 28.566406 C 15.125 28.890625 15.980469 29.386719 16.277344 29.808594 C 16.574219 30.234375 16.757812 31.230469 16.816406 32.09375 C 16.875 32.957031 16.839844 33.675781 16.839844 33.675781 L 16.804688 34.261719 L 17.335938 34.050781 C 17.335938 34.050781 17.988281 33.78125 18.792969 33.570312 C 19.597656 33.359375 20.5625 33.234375 21.042969 33.394531 C 21.523438 33.558594 22.246094 34.253906 22.78125 34.917969 C 23.316406 35.582031 23.695312 36.195312 23.695312 36.195312 L 24 36.6875 L 24.304688 36.195312 C 24.304688 36.195312 24.683594 35.582031 25.21875 34.917969 C 25.757812 34.253906 26.476562 33.558594 26.960938 33.394531 C 27.4375 33.234375 28.402344 33.359375 29.207031 33.570312 C 30.011719 33.78125 30.664062 34.050781 30.664062 34.050781 L 31.195312 34.261719 L 31.160156 33.675781 C 31.160156 33.675781 31.125 32.957031 31.183594 32.09375 C 31.242188 31.230469 31.429688 30.234375 31.726562 29.808594 C 32.019531 29.386719 32.875 28.890625 33.644531 28.566406 C 34.417969 28.246094 35.089844 28.0625 35.089844 28.0625 L 35.632812 27.910156 L 35.285156 27.464844 C 35.285156 27.464844 34.835938 26.894531 34.390625 26.164062 C 33.949219 25.433594 33.535156 24.519531 33.535156 23.996094 C 33.535156 23.476562 33.949219 22.558594 34.390625 21.828125 C 34.835938 21.097656 35.285156 20.527344 35.285156 20.527344 L 35.632812 20.082031 L 35.089844 19.929688 C 35.089844 19.929688 34.417969 19.75 33.644531 19.425781 C 32.875 19.105469 32.019531 18.605469 31.726562 18.183594 C 31.429688 17.761719 31.242188 16.761719 31.183594 15.898438 C 31.125 15.039062 31.160156 14.316406 31.160156 14.316406 L 31.195312 13.730469 L 30.664062 13.941406 C 30.664062 13.941406 30.011719 14.210938 29.207031 14.421875 C 28.402344 14.632812 27.4375 14.761719 26.960938 14.597656 C 26.476562 14.4375 25.757812 13.742188 25.21875 13.078125 C 24.683594 12.410156 24.304688 11.800781 24.304688 11.800781 M 24 12.621094 C 24.15625 12.859375 24.277344 13.074219 24.667969 13.558594 C 25.234375 14.261719 25.9375 15.039062 26.734375 15.304688 C 27.523438 15.570312 28.535156 15.375 29.386719 15.152344 C 29.972656 15 30.1875 14.910156 30.449219 14.8125 C 30.441406 15.101562 30.417969 15.339844 30.460938 15.960938 C 30.519531 16.875 30.648438 17.933594 31.136719 18.632812 C 31.628906 19.332031 32.558594 19.78125 33.375 20.121094 C 33.933594 20.351562 34.15625 20.402344 34.425781 20.484375 C 34.253906 20.710938 34.105469 20.898438 33.78125 21.433594 C 33.308594 22.207031 32.808594 23.132812 32.808594 24 C 32.808594 24.863281 33.308594 25.789062 33.78125 26.5625 C 34.105469 27.097656 34.253906 27.285156 34.425781 27.511719 C 34.15625 27.59375 33.933594 27.644531 33.375 27.875 C 32.558594 28.21875 31.628906 28.667969 31.136719 29.363281 C 30.648438 30.0625 30.523438 31.121094 30.460938 32.035156 C 30.417969 32.660156 30.441406 32.894531 30.449219 33.183594 C 30.1875 33.085938 29.972656 32.992188 29.386719 32.84375 C 28.535156 32.613281 27.523438 32.425781 26.734375 32.691406 C 25.9375 32.960938 25.234375 33.734375 24.667969 34.4375 C 24.277344 34.921875 24.15625 35.136719 24 35.375 C 23.84375 35.136719 23.726562 34.921875 23.335938 34.4375 C 22.765625 33.734375 22.0625 32.960938 21.265625 32.691406 C 20.476562 32.425781 19.46875 32.621094 18.613281 32.84375 C 18.027344 32.988281 17.8125 33.085938 17.550781 33.183594 C 17.558594 32.894531 17.582031 32.65625 17.539062 32.035156 C 17.480469 31.121094 17.351562 30.0625 16.863281 29.363281 C 16.375 28.667969 15.445312 28.21875 14.625 27.875 C 14.070312 27.644531 13.84375 27.59375 13.578125 27.511719 C 13.746094 27.285156 13.894531 27.097656 14.21875 26.5625 C 14.691406 25.789062 15.191406 24.863281 15.191406 24 C 15.191406 23.132812 14.691406 22.207031 14.21875 21.433594 C 13.894531 20.898438 13.746094 20.710938 13.578125 20.484375 C 13.84375 20.402344 14.070312 20.351562 14.625 20.121094 C 15.445312 19.78125 16.375 19.328125 16.863281 18.632812 C 17.351562 17.933594 17.476562 16.875 17.539062 15.960938 C 17.582031 15.339844 17.558594 15.101562 17.550781 14.8125 C 17.8125 14.910156 18.027344 15 18.613281 15.152344 C 19.46875 15.375 20.476562 15.570312 21.265625 15.304688 C 22.0625 15.039062 22.765625 14.261719 23.335938 13.558594 C 23.726562 13.074219 23.84375 12.859375 24 12.621094 M 24 12.621094 "/>
</g>
</svg>
