<!-- color: #a9b5e4 -->
<svg xmlns="http://www.w3.org/2000/svg" xmlns:xlink="http://www.w3.org/1999/xlink" width="48px" height="48px" viewBox="0 0 48 48" version="1.1">
<g id="surface1">
<path style=" stroke:none;fill-rule:nonzero;fill:rgb(52.156863%,12.54902%,12.54902%);fill-opacity:1;" d="M 24 10 C 23.292969 10 22.582031 10.066406 21.875 10.15625 L 24 13 L 23 14 L 27 17 L 19 14 L 21 13 L 17.53125 11.28125 C 15.988281 11.890625 14.472656 12.699219 13 13.75 C 15 20.75 15 28.75 13 35.75 C 15.878906 36.984375 18.921875 37.6875 22 37.90625 C 22.984375 31.945312 22.996094 26.96875 22 21 C 20 21 19 21 17 22 L 17 18 L 31 18 L 31 22 C 29 21 28 21 26 21 C 25.003906 26.96875 25.015625 31.949219 26 37.90625 C 29.078125 37.6875 32.121094 36.984375 35 35.75 C 33 28.75 33 20.75 35 13.75 C 31.5 11.25 27.75 10 24 10 M 24 10 "/>
</g>
</svg>
