<!-- color: #4d4d4d -->
<svg xmlns="http://www.w3.org/2000/svg" xmlns:xlink="http://www.w3.org/1999/xlink" width="48px" height="48px" viewBox="0 0 48 48" version="1.1">
<g id="surface1">
<path style=" stroke:none;fill-rule:nonzero;fill:rgb(97.647059%,97.647059%,97.647059%);fill-opacity:1;" d="M 23.257812 18.199219 L 27.074219 14.304688 L 30.71875 14.722656 L 32.234375 17.675781 L 32.234375 22.597656 L 33.984375 24.570312 L 31.199219 26.539062 L 31.199219 29.007812 L 30.167969 29.308594 L 29.136719 29.308594 L 22.585938 28.117188 L 19.347656 26.261719 L 21.34375 20.636719 M 23.257812 18.199219 "/>
<path style=" stroke:none;fill-rule:nonzero;fill:rgb(80%,17.647059%,17.647059%);fill-opacity:1;" d="M 12.511719 35.753906 C 12.34375 35.613281 12.222656 35.375 12.183594 35.128906 C 12.128906 34.792969 12.15625 34.691406 12.371094 34.503906 C 12.949219 33.984375 13.679688 34.179688 13.570312 34.820312 C 13.363281 36.015625 13.097656 36.246094 12.515625 35.753906 M 18.910156 32.230469 C 18.628906 31.921875 18.324219 31.675781 18.210938 31.675781 C 18.101562 31.675781 17.867188 31.5 17.679688 31.285156 C 17.445312 31.007812 17.253906 30.878906 17.03125 30.859375 C 16.714844 30.828125 16.644531 30.761719 16.429688 30.195312 C 16.339844 29.957031 16.175781 29.804688 15.855469 29.664062 C 15.578125 29.539062 15.371094 29.363281 15.304688 29.195312 C 15.113281 28.722656 15.070312 28.101562 15.199219 27.820312 C 15.316406 27.574219 15.304688 27.53125 14.949219 27.222656 C 14.460938 26.789062 14.390625 26.574219 14.65625 26.253906 C 14.949219 25.894531 14.929688 25.773438 14.445312 25.199219 C 14.132812 24.816406 13.898438 24.652344 13.484375 24.511719 C 13.117188 24.386719 12.886719 24.234375 12.777344 24.050781 C 12.683594 23.894531 12.476562 23.734375 12.300781 23.695312 C 11.992188 23.617188 11.984375 23.59375 12.015625 23.085938 C 12.066406 22.199219 12.484375 21.679688 13.144531 21.679688 C 13.914062 21.679688 14.328125 22.003906 14.824219 22.984375 C 15.03125 23.394531 15.140625 23.472656 15.765625 23.730469 C 16.460938 24.007812 16.472656 24.011719 16.8125 23.835938 C 17 23.738281 17.316406 23.625 17.507812 23.589844 C 17.796875 23.535156 17.863281 23.472656 17.894531 23.226562 C 17.957031 22.683594 18.101562 22.640625 18.554688 23.027344 C 19.019531 23.429688 18.976562 23.414062 19.304688 23.269531 C 19.5625 23.15625 19.902344 22.699219 19.902344 22.460938 C 19.902344 22.386719 19.738281 22.09375 19.539062 21.804688 C 19.335938 21.519531 19.171875 21.203125 19.171875 21.101562 C 19.171875 20.996094 19.324219 20.78125 19.503906 20.621094 C 19.683594 20.460938 19.925781 20.125 20.039062 19.878906 C 20.152344 19.628906 20.3125 19.355469 20.390625 19.273438 C 20.496094 19.15625 20.503906 19.03125 20.429688 18.785156 C 20.328125 18.449219 20.378906 18.371094 20.992188 17.902344 C 21.101562 17.816406 21.136719 17.679688 21.097656 17.496094 C 21.058594 17.308594 21.09375 17.175781 21.203125 17.085938 C 21.402344 16.929688 21.421875 16.492188 21.246094 16.125 C 21.132812 15.882812 21.152344 15.84375 21.457031 15.617188 C 21.847656 15.320312 21.867188 15.199219 21.570312 14.839844 C 21.292969 14.507812 21.351562 14.433594 21.746094 14.625 C 22.019531 14.761719 22.074219 14.757812 22.363281 14.582031 C 22.535156 14.472656 22.859375 14.292969 23.078125 14.179688 C 23.296875 14.066406 23.519531 13.863281 23.570312 13.734375 C 23.625 13.601562 23.757812 13.46875 23.871094 13.433594 C 24.132812 13.355469 24.230469 13.117188 24.09375 12.875 C 24.039062 12.773438 23.992188 12.527344 23.992188 12.328125 C 23.992188 12.03125 24.027344 11.96875 24.175781 11.996094 C 24.320312 12.027344 24.355469 12.117188 24.328125 12.410156 L 24.296875 12.785156 L 24.800781 12.773438 C 25.542969 12.757812 25.976562 12.871094 26.15625 13.140625 C 26.34375 13.414062 26.476562 13.441406 26.710938 13.234375 C 26.898438 13.074219 27.648438 13.015625 28.132812 13.121094 C 28.398438 13.179688 28.492188 13.140625 28.753906 12.882812 C 28.925781 12.714844 29.117188 12.574219 29.179688 12.574219 C 29.472656 12.574219 30.101562 13.527344 30.195312 14.121094 C 30.214844 14.230469 30.351562 14.382812 30.503906 14.464844 C 30.765625 14.601562 30.808594 14.59375 31.195312 14.339844 C 31.421875 14.191406 31.664062 13.953125 31.726562 13.820312 C 31.792969 13.683594 31.917969 13.570312 32.007812 13.570312 C 32.261719 13.570312 32.324219 13.875 32.128906 14.195312 C 31.863281 14.636719 31.910156 14.789062 32.503906 15.402344 C 33.121094 16.035156 33.472656 16.140625 33.585938 15.71875 C 33.632812 15.539062 33.726562 15.464844 33.898438 15.464844 C 34.222656 15.464844 34.28125 15.578125 34.320312 16.277344 C 34.347656 16.773438 34.40625 16.929688 34.714844 17.292969 C 35.207031 17.871094 35.625 18.65625 35.625 19 C 35.625 19.15625 35.722656 19.398438 35.835938 19.542969 C 36.039062 19.785156 36.046875 19.886719 35.984375 21.507812 C 35.949219 22.445312 35.914062 23.28125 35.914062 23.363281 C 35.914062 23.445312 35.78125 23.808594 35.621094 24.164062 C 35.4375 24.578125 35.304688 25.097656 35.257812 25.601562 C 35.1875 26.308594 34.914062 27.039062 34.691406 27.078125 C 34.652344 27.09375 34.484375 27.105469 34.3125 27.132812 C 34.144531 27.148438 33.804688 27.300781 33.558594 27.464844 C 33.316406 27.621094 32.910156 27.816406 32.667969 27.871094 C 32.417969 27.9375 32.15625 28.03125 32.085938 28.09375 C 31.871094 28.261719 31.9375 28.644531 32.214844 28.855469 C 32.496094 29.066406 32.550781 29.265625 32.363281 29.441406 C 32.277344 29.523438 32.144531 29.488281 31.875 29.3125 C 31.414062 29.011719 31.382812 29.011719 30.769531 29.324219 C 30.328125 29.550781 30.246094 29.5625 30.058594 29.4375 C 29.875 29.316406 29.664062 29.289062 29.8125 29.234375 C 29.90625 29.199219 30.300781 29.167969 30.4375 29.167969 C 30.59375 29.167969 30.757812 29.066406 30.875 28.894531 C 31.03125 28.667969 31.058594 28.441406 31.027344 27.445312 C 30.984375 25.980469 31.09375 25.761719 32.054688 25.324219 C 32.867188 24.957031 33.175781 24.429688 32.933594 23.820312 C 32.855469 23.628906 32.152344 23.265625 31.859375 23.265625 C 31.746094 23.265625 31.53125 23.128906 31.382812 22.957031 C 31.164062 22.710938 31.109375 22.546875 31.109375 22.101562 C 31.109375 21.800781 31.160156 21.464844 31.21875 21.359375 C 31.402344 21.035156 31.476562 19.292969 31.320312 19.015625 C 31.21875 18.832031 31.199219 18.484375 31.25 17.679688 C 31.3125 16.6875 31.300781 16.566406 31.105469 16.359375 C 30.992188 16.234375 30.902344 16.042969 30.902344 15.941406 C 30.902344 15.835938 30.769531 15.625 30.613281 15.472656 C 30.355469 15.230469 30.199219 15.1875 29.109375 15.066406 C 27.132812 14.851562 26.636719 15.007812 25.921875 16.066406 C 25.664062 16.449219 25.457031 16.800781 25.457031 16.847656 C 25.457031 16.964844 24.292969 18.355469 23.9375 18.660156 C 23.628906 18.925781 22.941406 20.183594 22.941406 20.480469 C 22.941406 20.578125 22.714844 20.875 22.433594 21.144531 C 21.929688 21.625 21.71875 22.042969 21.421875 23.109375 C 21.347656 23.386719 21.210938 23.78125 21.109375 23.996094 C 20.820312 24.65625 20.882812 24.996094 21.347656 25.351562 C 21.664062 25.589844 21.921875 25.6875 22.476562 25.757812 C 22.867188 25.808594 23.5 25.898438 23.871094 25.957031 C 24.246094 26.019531 25.089844 26.109375 25.742188 26.152344 C 27.214844 26.261719 27.390625 26.375 27.46875 27.242188 C 27.492188 27.554688 27.585938 28.050781 27.664062 28.359375 C 27.808594 28.878906 27.835938 28.910156 28.226562 28.992188 C 28.453125 29.039062 28.886719 29.097656 29.1875 29.125 C 29.488281 29.15625 29.882812 29.207031 29.882812 29.242188 C 29.882812 29.277344 29.585938 29.386719 29.40625 29.484375 C 29.164062 29.617188 29.09375 29.714844 29.136719 29.859375 C 29.203125 30.121094 29.0625 30.195312 28.785156 30.035156 C 28.597656 29.925781 28.546875 29.933594 28.414062 30.105469 C 28.335938 30.207031 28.265625 30.375 28.265625 30.484375 C 28.265625 30.585938 28.183594 30.691406 28.078125 30.722656 C 27.976562 30.742188 27.769531 30.828125 27.617188 30.910156 C 27.054688 31.203125 26.621094 31.015625 25.929688 30.183594 C 25.832031 30.0625 25.65625 29.953125 25.550781 29.953125 C 25.441406 29.953125 25.183594 29.890625 24.972656 29.808594 C 24.730469 29.703125 24.378906 29.660156 23.992188 29.691406 C 23.476562 29.726562 23.339844 29.695312 23.046875 29.484375 C 22.433594 29.042969 22.0625 29.3125 22.035156 30.207031 C 22.027344 30.492188 22.007812 30.507812 21.554688 30.507812 C 20.953125 30.511719 20.265625 30.972656 20.332031 31.332031 C 20.367188 31.519531 20.335938 31.542969 20.152344 31.5 C 19.851562 31.429688 19.355469 31.613281 19.355469 31.796875 C 19.355469 31.988281 19.695312 32.089844 20.402344 32.097656 C 20.875 32.105469 20.984375 32.140625 21.015625 32.292969 C 21.070312 32.570312 20.949219 32.628906 20.140625 32.703125 L 19.402344 32.769531 M 28.691406 31.175781 C 28.691406 31.109375 28.734375 31.097656 28.796875 31.132812 C 28.851562 31.160156 28.902344 31.214844 28.902344 31.234375 C 28.902344 31.257812 28.855469 31.277344 28.796875 31.277344 C 28.738281 31.277344 28.691406 31.230469 28.691406 31.175781 M 25.863281 22.902344 C 25.613281 22.820312 25.339844 22.554688 25.339844 22.410156 C 25.339844 22.34375 25.507812 21.933594 25.722656 21.496094 C 26.003906 20.925781 26.210938 20.644531 26.515625 20.433594 C 26.917969 20.15625 26.933594 20.152344 27.113281 20.339844 C 27.214844 20.441406 27.40625 20.808594 27.539062 21.160156 C 27.695312 21.570312 27.886719 21.867188 28.078125 22.003906 C 28.4375 22.257812 28.46875 22.605469 28.140625 22.820312 C 27.972656 22.933594 27.660156 22.972656 26.960938 22.972656 C 26.441406 22.96875 25.945312 22.9375 25.859375 22.90625 M 25.863281 22.902344 "/>
<path style=" stroke:none;fill-rule:nonzero;fill:rgb(75.294118%,9.803922%,9.803922%);fill-opacity:0.501961;" d="M 12.53125 35.714844 C 12.445312 35.621094 12.339844 35.410156 12.304688 35.242188 C 12.25 34.984375 12.292969 34.90625 12.621094 34.652344 C 13.105469 34.285156 13.289062 34.277344 13.488281 34.609375 C 13.617188 34.816406 13.625 34.921875 13.53125 35.105469 C 13.46875 35.234375 13.386719 35.464844 13.351562 35.613281 C 13.300781 35.832031 13.230469 35.890625 12.992188 35.890625 C 12.832031 35.890625 12.625 35.8125 12.535156 35.714844 M 19.054688 32.28125 C 18.804688 32 18.441406 31.707031 18.25 31.628906 C 18.058594 31.550781 17.824219 31.367188 17.722656 31.214844 C 17.625 31.0625 17.527344 30.917969 17.515625 30.898438 C 17.496094 30.875 17.308594 30.832031 17.09375 30.792969 C 16.757812 30.742188 16.683594 30.683594 16.59375 30.382812 C 16.4375 29.882812 16.359375 29.796875 15.910156 29.621094 C 15.457031 29.449219 15.386719 29.34375 15.277344 28.632812 C 15.21875 28.253906 15.238281 28.089844 15.355469 27.96875 C 15.570312 27.738281 15.449219 27.449219 15.019531 27.171875 C 14.535156 26.855469 14.503906 26.71875 14.816406 26.363281 C 15.132812 26 15.09375 25.820312 14.5625 25.195312 C 14.3125 24.90625 13.96875 24.660156 13.539062 24.46875 C 13.15625 24.304688 12.867188 24.105469 12.828125 23.988281 C 12.792969 23.878906 12.597656 23.734375 12.390625 23.664062 C 12.066406 23.546875 12.03125 23.503906 12.074219 23.261719 C 12.195312 22.683594 12.449219 22.285156 12.859375 22.023438 C 13.589844 21.5625 14.136719 21.851562 14.8125 23.058594 C 15.074219 23.53125 15.195312 23.648438 15.539062 23.753906 C 15.769531 23.824219 16.03125 23.949219 16.128906 24.03125 C 16.359375 24.234375 16.742188 24.210938 17.113281 23.976562 C 17.289062 23.867188 17.511719 23.777344 17.601562 23.777344 C 17.878906 23.777344 18.128906 23.472656 18.078125 23.207031 C 18.007812 22.84375 18.183594 22.828125 18.589844 23.167969 C 19.0625 23.566406 19.273438 23.554688 19.664062 23.125 C 20.089844 22.667969 20.074219 22.367188 19.621094 21.777344 C 19.425781 21.515625 19.261719 21.25 19.261719 21.183594 C 19.261719 21.121094 19.433594 20.925781 19.644531 20.75 C 19.851562 20.574219 20.09375 20.269531 20.179688 20.078125 C 20.265625 19.882812 20.402344 19.648438 20.492188 19.554688 C 20.613281 19.429688 20.632812 19.269531 20.578125 18.933594 C 20.539062 18.683594 20.546875 18.476562 20.59375 18.476562 C 20.640625 18.476562 20.8125 18.363281 20.972656 18.21875 C 21.183594 18.03125 21.261719 17.882812 21.234375 17.675781 C 21.21875 17.511719 21.28125 17.3125 21.394531 17.195312 C 21.566406 17.011719 21.570312 16.953125 21.433594 16.4375 C 21.324219 16.03125 21.316406 15.878906 21.40625 15.878906 C 21.472656 15.878906 21.632812 15.785156 21.757812 15.667969 C 22.015625 15.441406 21.988281 15.175781 21.683594 14.839844 C 21.519531 14.65625 21.523438 14.65625 21.855469 14.816406 C 22.222656 15 22.363281 14.964844 22.960938 14.539062 C 23.785156 13.953125 24.289062 13.441406 24.289062 13.1875 C 24.289062 12.941406 24.3125 12.925781 24.839844 12.9375 C 25.917969 12.953125 25.964844 12.964844 26.066406 13.21875 C 26.210938 13.578125 26.527344 13.632812 26.96875 13.371094 C 27.269531 13.195312 27.425781 13.167969 27.78125 13.222656 C 28.660156 13.367188 28.726562 13.34375 29.070312 12.808594 C 29.183594 12.632812 29.191406 12.632812 29.414062 12.820312 C 29.710938 13.070312 30.152344 13.921875 30.152344 14.230469 C 30.152344 14.5 30.425781 14.675781 30.839844 14.675781 C 31.117188 14.675781 31.519531 14.359375 31.851562 13.875 C 31.984375 13.679688 32.054688 13.652344 32.152344 13.746094 C 32.25 13.835938 32.230469 13.9375 32.050781 14.222656 C 31.84375 14.542969 31.824219 14.621094 31.945312 14.890625 C 32.019531 15.054688 32.1875 15.261719 32.320312 15.34375 C 32.453125 15.425781 32.589844 15.578125 32.625 15.6875 C 32.703125 15.917969 33.257812 16.214844 33.472656 16.136719 C 33.550781 16.109375 33.664062 15.964844 33.722656 15.828125 C 33.777344 15.691406 33.890625 15.578125 33.96875 15.578125 C 34.148438 15.578125 34.242188 15.878906 34.246094 16.441406 C 34.246094 16.773438 34.332031 16.957031 34.675781 17.371094 C 35.164062 17.964844 35.605469 18.816406 35.609375 19.164062 C 35.609375 19.300781 35.695312 19.496094 35.796875 19.601562 C 35.996094 19.8125 36 19.921875 35.902344 22.175781 C 35.84375 23.472656 35.804688 23.6875 35.550781 24.21875 C 35.339844 24.65625 35.253906 25.007812 35.226562 25.566406 C 35.183594 26.488281 34.855469 27.074219 34.378906 27.074219 C 34.21875 27.074219 33.851562 27.230469 33.554688 27.417969 C 33.261719 27.605469 32.84375 27.792969 32.628906 27.832031 C 32.195312 27.910156 31.839844 28.183594 31.839844 28.433594 C 31.839844 28.523438 31.984375 28.722656 32.15625 28.875 C 32.328125 29.027344 32.472656 29.199219 32.472656 29.257812 C 32.472656 29.476562 32.230469 29.488281 31.945312 29.285156 C 31.558594 29.011719 31.203125 29.015625 30.691406 29.300781 C 30.367188 29.480469 30.257812 29.496094 30.152344 29.398438 C 30.050781 29.300781 30.085938 29.273438 30.34375 29.273438 C 30.539062 29.273438 30.742188 29.183594 30.90625 29.015625 C 31.148438 28.769531 31.15625 28.707031 31.136719 27.542969 C 31.101562 26.074219 31.179688 25.898438 32.109375 25.421875 C 32.589844 25.179688 32.808594 24.988281 33.035156 24.617188 C 33.308594 24.175781 33.320312 24.105469 33.191406 23.878906 C 33.101562 23.726562 32.738281 23.484375 32.246094 23.253906 L 31.441406 22.882812 L 31.308594 22.324219 C 31.210938 21.90625 31.203125 21.679688 31.289062 21.445312 C 31.402344 21.136719 31.464844 20.734375 31.585938 19.550781 C 31.628906 19.125 31.605469 18.964844 31.507812 18.925781 C 31.402344 18.886719 31.371094 18.601562 31.398438 17.71875 C 31.421875 16.6875 31.40625 16.535156 31.214844 16.304688 C 31.097656 16.164062 30.992188 15.976562 30.988281 15.886719 C 30.984375 15.800781 30.878906 15.570312 30.742188 15.378906 C 30.507812 15.03125 30.492188 15.027344 29.621094 14.988281 C 29.144531 14.96875 28.3125 14.949219 27.78125 14.949219 C 26.867188 14.949219 26.800781 14.964844 26.460938 15.238281 C 26.261719 15.398438 25.992188 15.710938 25.871094 15.929688 C 25.300781 16.929688 25.164062 17.113281 24.945312 17.191406 C 24.789062 17.246094 24.714844 17.359375 24.714844 17.519531 C 24.714844 17.675781 24.539062 17.925781 24.226562 18.21875 C 23.953125 18.472656 23.703125 18.679688 23.660156 18.679688 C 23.617188 18.679688 23.523438 18.839844 23.460938 19.03125 C 23.394531 19.226562 23.222656 19.507812 23.085938 19.644531 C 22.90625 19.824219 22.828125 20.019531 22.828125 20.289062 C 22.828125 20.621094 22.761719 20.742188 22.3125 21.148438 C 21.953125 21.480469 21.695312 21.84375 21.472656 22.339844 C 21.296875 22.734375 21.148438 23.113281 21.148438 23.191406 C 21.148438 23.265625 21.054688 23.558594 20.941406 23.851562 C 20.609375 24.683594 20.65625 24.992188 21.160156 25.410156 C 21.507812 25.691406 21.714844 25.773438 22.183594 25.820312 C 22.511719 25.851562 22.964844 25.921875 23.195312 25.96875 C 23.753906 26.089844 24.511719 26.175781 25.34375 26.226562 C 27.109375 26.328125 27.320312 26.449219 27.351562 27.398438 C 27.378906 28.378906 27.390625 28.511719 27.460938 28.671875 C 27.496094 28.753906 27.546875 28.886719 27.570312 28.972656 C 27.617188 29.121094 27.734375 29.148438 28.90625 29.214844 C 29.769531 29.265625 29.746094 29.253906 29.402344 29.429688 C 29.207031 29.53125 29.117188 29.65625 29.117188 29.828125 C 29.117188 30.054688 29.089844 30.0625 28.898438 29.96875 C 28.578125 29.804688 28.40625 29.910156 28.28125 30.367188 C 28.199219 30.65625 28.109375 30.769531 27.96875 30.769531 C 27.859375 30.769531 27.628906 30.847656 27.449219 30.941406 C 27.152344 31.105469 27.109375 31.105469 26.839844 30.953125 C 26.683594 30.863281 26.4375 30.632812 26.300781 30.433594 C 25.980469 29.980469 25.054688 29.667969 24.027344 29.667969 C 23.441406 29.667969 23.285156 29.628906 23.027344 29.414062 C 22.640625 29.105469 22.574219 29.105469 22.242188 29.421875 C 22.011719 29.644531 21.984375 29.738281 22.039062 30.070312 L 22.109375 30.464844 L 21.585938 30.464844 C 21.15625 30.464844 21.003906 30.519531 20.695312 30.777344 C 20.492188 30.945312 20.320312 31.175781 20.320312 31.277344 C 20.320312 31.425781 20.246094 31.46875 20 31.46875 C 19.609375 31.46875 19.273438 31.625 19.273438 31.808594 C 19.273438 32.0625 19.585938 32.1875 20.285156 32.199219 C 21.21875 32.222656 21.363281 32.554688 20.472656 32.621094 C 20.28125 32.640625 19.988281 32.679688 19.828125 32.714844 C 19.5625 32.773438 19.476562 32.71875 19.074219 32.261719 M 25.777344 22.664062 C 25.558594 22.4375 25.492188 22.039062 25.660156 21.9375 C 25.714844 21.90625 25.835938 21.660156 25.929688 21.386719 C 26.097656 20.90625 26.582031 20.386719 26.867188 20.386719 C 27.082031 20.386719 27.296875 20.699219 27.511719 21.332031 C 27.65625 21.757812 27.796875 21.96875 28 22.082031 C 28.324219 22.257812 28.371094 22.496094 28.125 22.730469 C 27.996094 22.851562 27.730469 22.886719 26.976562 22.886719 C 26.097656 22.886719 25.96875 22.859375 25.777344 22.667969 M 24.070312 12.539062 C 24.035156 12.371094 24.050781 12.195312 24.101562 12.144531 C 24.265625 11.988281 24.324219 12.152344 24.226562 12.503906 L 24.136719 12.839844 M 24.070312 12.535156 "/>
<path style=" stroke:none;fill-rule:nonzero;fill:rgb(72.54902%,9.019608%,9.019608%);fill-opacity:0.501961;" d="M 12.523438 35.714844 C 12.265625 35.445312 12.296875 35.351562 12.828125 34.828125 C 13.289062 34.371094 13.3125 34.359375 13.453125 34.542969 C 13.628906 34.769531 13.640625 34.933594 13.503906 35.175781 C 13.449219 35.269531 13.378906 35.472656 13.34375 35.625 C 13.292969 35.847656 13.226562 35.902344 12.984375 35.902344 C 12.824219 35.902344 12.609375 35.820312 12.519531 35.714844 M 19.054688 32.289062 C 18.804688 32.007812 18.441406 31.710938 18.25 31.632812 C 18.058594 31.558594 17.824219 31.371094 17.722656 31.21875 C 17.625 31.066406 17.527344 30.925781 17.515625 30.90625 C 17.496094 30.882812 17.304688 30.835938 17.089844 30.800781 C 16.765625 30.753906 16.6875 30.695312 16.664062 30.492188 C 16.609375 30.066406 16.414062 29.804688 16.046875 29.6875 C 15.59375 29.546875 15.386719 29.34375 15.386719 29.039062 C 15.386719 28.765625 15.464844 28.742188 15.851562 28.910156 C 16.082031 29.007812 16.144531 29 16.265625 28.839844 C 16.386719 28.679688 16.433594 28.671875 16.574219 28.785156 C 16.722656 28.902344 16.746094 28.890625 16.746094 28.707031 C 16.746094 28.488281 16.585938 28.441406 15.988281 28.488281 C 15.769531 28.507812 15.699219 28.464844 15.699219 28.320312 C 15.699219 28.21875 15.75 28.085938 15.8125 28.027344 C 15.878906 27.96875 15.914062 27.816406 15.890625 27.6875 C 15.867188 27.515625 15.769531 27.4375 15.53125 27.390625 C 15.144531 27.316406 14.660156 26.992188 14.65625 26.820312 C 14.652344 26.667969 15.152344 26.464844 15.347656 26.539062 C 15.441406 26.574219 15.488281 26.507812 15.488281 26.347656 C 15.488281 26.019531 15.632812 25.960938 15.855469 26.199219 C 16.03125 26.382812 16.035156 26.410156 15.871094 26.578125 C 15.671875 26.789062 15.644531 27.054688 15.808594 27.152344 C 15.875 27.1875 15.976562 27.171875 16.035156 27.109375 C 16.117188 27.03125 16.1875 27.03125 16.289062 27.109375 C 16.390625 27.191406 16.46875 27.1875 16.578125 27.097656 C 16.714844 26.992188 16.710938 26.945312 16.570312 26.738281 C 16.417969 26.519531 16.417969 26.492188 16.570312 26.4375 C 16.664062 26.402344 16.714844 26.335938 16.683594 26.289062 C 16.601562 26.15625 15.6875 25.789062 15.585938 25.847656 C 15.539062 25.875 15.46875 25.851562 15.433594 25.796875 C 15.398438 25.742188 15.277344 25.695312 15.171875 25.695312 C 15.0625 25.695312 14.796875 25.488281 14.578125 25.230469 C 14.308594 24.917969 13.972656 24.679688 13.53125 24.484375 C 13.148438 24.316406 12.859375 24.121094 12.820312 24.003906 C 12.785156 23.890625 12.59375 23.746094 12.394531 23.679688 C 12.195312 23.613281 12.03125 23.523438 12.03125 23.480469 C 12.03125 23.441406 12.171875 23.316406 12.339844 23.199219 C 12.511719 23.085938 12.664062 22.890625 12.679688 22.765625 C 12.707031 22.59375 12.792969 22.535156 13.050781 22.511719 C 13.296875 22.488281 13.367188 22.441406 13.328125 22.328125 C 13.253906 22.144531 13.59375 21.894531 13.8125 21.964844 C 14.136719 22.074219 14.472656 22.453125 14.820312 23.109375 C 15.179688 23.78125 15.164062 23.964844 14.761719 23.839844 C 14.519531 23.769531 14.09375 23.957031 14.183594 24.09375 C 14.21875 24.148438 14.359375 24.191406 14.496094 24.191406 C 14.640625 24.191406 14.777344 24.234375 14.8125 24.289062 C 14.914062 24.449219 15.210938 24.410156 15.144531 24.246094 C 15.082031 24.082031 15.351562 23.820312 15.46875 23.933594 C 15.511719 23.972656 15.542969 24.105469 15.542969 24.226562 C 15.542969 24.460938 15.738281 24.507812 16.621094 24.496094 C 17.078125 24.488281 17.097656 24.503906 17.214844 25.003906 C 17.261719 25.226562 17.21875 25.304688 16.910156 25.476562 C 16.472656 25.722656 16.457031 25.820312 16.808594 25.972656 C 17.03125 26.070312 17.085938 26.0625 17.140625 25.914062 C 17.238281 25.660156 17.914062 24.953125 18.136719 24.867188 C 18.34375 24.789062 18.386719 24.636719 18.226562 24.539062 C 18.171875 24.507812 18.152344 24.335938 18.1875 24.160156 C 18.222656 23.984375 18.253906 23.65625 18.261719 23.429688 C 18.273438 23.019531 18.277344 23.015625 18.507812 23.175781 C 18.660156 23.28125 18.734375 23.429688 18.71875 23.585938 C 18.703125 23.800781 18.742188 23.84375 19.027344 23.867188 C 19.207031 23.886719 19.382812 23.960938 19.414062 24.035156 C 19.457031 24.136719 19.351562 24.164062 18.976562 24.15625 C 18.542969 24.140625 18.480469 24.164062 18.453125 24.363281 C 18.414062 24.628906 18.652344 24.667969 18.859375 24.429688 C 18.941406 24.339844 19.085938 24.296875 19.222656 24.328125 C 19.347656 24.355469 19.554688 24.3125 19.6875 24.222656 C 19.886719 24.085938 19.941406 24.082031 20.023438 24.199219 C 20.101562 24.3125 20.148438 24.304688 20.273438 24.144531 C 20.414062 23.96875 20.414062 23.9375 20.269531 23.863281 C 20.183594 23.816406 20.058594 23.8125 19.996094 23.847656 C 19.859375 23.925781 19.695312 23.71875 19.695312 23.464844 C 19.691406 23.265625 20.007812 23.230469 20.320312 23.390625 C 20.625 23.546875 20.671875 23.332031 20.382812 23.113281 C 20.140625 22.933594 20.132812 22.898438 20.257812 22.558594 C 20.429688 22.074219 20.492188 22.03125 20.636719 22.289062 C 20.726562 22.449219 20.726562 22.539062 20.644531 22.621094 C 20.457031 22.796875 20.511719 22.890625 20.804688 22.890625 C 21.023438 22.890625 21.0625 22.925781 20.996094 23.0625 C 20.957031 23.160156 20.894531 23.363281 20.871094 23.519531 C 20.839844 23.675781 20.753906 23.828125 20.675781 23.855469 C 20.582031 23.890625 20.53125 24.070312 20.53125 24.355469 C 20.53125 24.722656 20.492188 24.8125 20.320312 24.855469 C 20.191406 24.886719 20.113281 24.992188 20.113281 25.121094 C 20.113281 25.300781 20.050781 25.335938 19.773438 25.324219 C 19.335938 25.308594 19.167969 25.371094 19.167969 25.546875 C 19.167969 25.625 19.097656 25.683594 19.011719 25.683594 C 18.929688 25.683594 18.859375 25.734375 18.859375 25.796875 C 18.859375 25.867188 18.976562 25.882812 19.199219 25.839844 C 19.390625 25.804688 19.660156 25.777344 19.8125 25.78125 C 19.964844 25.785156 20.148438 25.71875 20.222656 25.632812 C 20.339844 25.496094 20.367188 25.5 20.488281 25.652344 C 20.605469 25.804688 20.652344 25.808594 20.890625 25.6875 C 21.128906 25.570312 21.183594 25.570312 21.355469 25.71875 C 21.460938 25.808594 21.632812 25.882812 21.730469 25.882812 C 21.847656 25.882812 21.902344 25.945312 21.878906 26.058594 C 21.855469 26.175781 21.765625 26.21875 21.605469 26.203125 C 21.320312 26.164062 21.292969 26.445312 21.539062 26.898438 C 21.660156 27.121094 21.765625 27.1875 21.90625 27.152344 C 22.179688 27.089844 22.179688 27.390625 21.914062 27.621094 C 21.734375 27.777344 21.71875 27.777344 21.558594 27.601562 C 21.453125 27.5 21.382812 27.324219 21.382812 27.210938 C 21.382812 27.09375 21.328125 26.96875 21.277344 26.9375 C 21.21875 26.902344 21.199219 26.828125 21.230469 26.78125 C 21.292969 26.679688 20.992188 26.527344 20.902344 26.617188 C 20.84375 26.683594 21.070312 27.101562 21.21875 27.214844 C 21.363281 27.316406 21.195312 27.601562 21.027344 27.53125 C 20.941406 27.507812 20.808594 27.316406 20.726562 27.121094 C 20.617188 26.859375 20.480469 26.734375 20.195312 26.644531 C 19.777344 26.507812 19.703125 26.535156 19.703125 26.824219 C 19.703125 26.980469 19.757812 27.007812 19.957031 26.960938 C 20.15625 26.910156 20.222656 26.945312 20.269531 27.117188 C 20.300781 27.238281 20.285156 27.386719 20.238281 27.441406 C 20.1875 27.496094 20.136719 27.589844 20.128906 27.644531 C 20.117188 27.742188 19.925781 27.738281 19.621094 27.636719 C 19.523438 27.605469 19.492188 27.46875 19.515625 27.191406 C 19.550781 26.835938 19.53125 26.796875 19.324219 26.796875 C 19.167969 26.796875 19.085938 26.863281 19.058594 27.019531 C 19.039062 27.164062 18.941406 27.253906 18.789062 27.277344 C 18.574219 27.304688 18.546875 27.34375 18.5625 27.570312 C 18.5625 27.613281 18.679688 27.632812 18.824219 27.613281 C 18.964844 27.597656 19.082031 27.632812 19.082031 27.6875 C 19.082031 27.75 19.015625 27.789062 18.9375 27.789062 C 18.847656 27.789062 18.773438 27.933594 18.746094 28.144531 C 18.71875 28.363281 18.746094 28.496094 18.824219 28.496094 C 18.890625 28.496094 19.027344 28.585938 19.132812 28.695312 C 19.234375 28.804688 19.398438 28.894531 19.492188 28.894531 C 19.902344 28.894531 20.050781 29.347656 19.726562 29.621094 C 19.445312 29.863281 19.367188 29.828125 19.445312 29.488281 C 19.5 29.257812 19.476562 29.1875 19.351562 29.1875 C 19.257812 29.1875 19.183594 29.253906 19.183594 29.324219 C 19.183594 29.402344 19.113281 29.492188 19.027344 29.523438 C 18.929688 29.558594 18.871094 29.523438 18.871094 29.425781 C 18.871094 29.335938 18.804688 29.28125 18.6875 29.308594 C 18.578125 29.328125 18.449219 29.242188 18.371094 29.097656 C 18.261719 28.890625 18.269531 28.824219 18.414062 28.671875 C 18.5625 28.523438 18.5625 28.480469 18.441406 28.476562 C 18.363281 28.472656 18.203125 28.460938 18.089844 28.453125 C 17.777344 28.433594 17.769531 28.109375 18.074219 27.882812 C 18.285156 27.726562 18.324219 27.636719 18.253906 27.460938 C 18.152344 27.1875 18.214844 26.980469 18.441406 26.8125 C 18.582031 26.707031 18.589844 26.671875 18.464844 26.597656 C 18.378906 26.546875 18.34375 26.421875 18.375 26.300781 C 18.40625 26.183594 18.386719 26.089844 18.328125 26.089844 C 18.265625 26.089844 18.292969 25.980469 18.390625 25.84375 C 18.597656 25.535156 18.605469 25.324219 18.40625 25.253906 C 18.238281 25.191406 18.09375 25.347656 18.09375 25.589844 C 18.09375 25.679688 17.972656 25.753906 17.792969 25.769531 C 17.355469 25.820312 16.695312 26.492188 17.09375 26.492188 C 17.148438 26.492188 17.195312 26.445312 17.195312 26.390625 C 17.195312 26.140625 17.390625 26.324219 17.449219 26.644531 C 17.488281 26.835938 17.5625 26.992188 17.609375 26.992188 C 17.660156 26.992188 17.757812 27.15625 17.828125 27.351562 C 17.984375 27.8125 17.832031 28.011719 17.488281 27.800781 C 17.324219 27.703125 17.246094 27.695312 17.21875 27.777344 C 17.195312 27.84375 17.027344 27.890625 16.839844 27.890625 C 16.648438 27.890625 16.464844 27.914062 16.429688 27.953125 C 16.367188 28.019531 16.828125 28.488281 16.957031 28.488281 C 16.992188 28.488281 17.078125 28.566406 17.152344 28.664062 C 17.28125 28.828125 17.296875 28.824219 17.441406 28.644531 C 17.589844 28.453125 17.59375 28.453125 17.710938 28.664062 C 17.867188 28.9375 17.859375 28.988281 17.671875 28.988281 C 17.449219 28.988281 17.476562 29.152344 17.726562 29.390625 C 17.847656 29.503906 17.996094 29.566406 18.066406 29.523438 C 18.140625 29.480469 18.132812 29.535156 18.039062 29.644531 C 17.953125 29.746094 17.882812 29.847656 17.871094 29.863281 C 17.867188 29.882812 17.6875 29.820312 17.480469 29.738281 C 16.984375 29.539062 16.988281 29.539062 16.988281 29.894531 C 16.988281 30.183594 17.011719 30.199219 17.292969 30.140625 C 17.464844 30.105469 17.625 30.117188 17.664062 30.179688 C 17.746094 30.300781 18.328125 30.203125 18.609375 30.023438 C 19.101562 29.699219 19.101562 29.960938 18.613281 30.460938 C 18.308594 30.769531 18.273438 30.847656 18.40625 30.914062 C 18.675781 31.0625 19.25 30.964844 19.203125 30.789062 C 19.089844 30.367188 19.105469 30.003906 19.246094 29.953125 C 19.332031 29.925781 19.398438 29.941406 19.398438 29.996094 C 19.398438 30.050781 19.566406 30.09375 19.765625 30.09375 C 19.96875 30.09375 20.128906 30.054688 20.128906 30.007812 C 20.128906 29.964844 20.261719 29.921875 20.417969 29.914062 C 20.578125 29.910156 20.847656 29.882812 21.023438 29.847656 C 21.3125 29.78125 21.339844 29.746094 21.300781 29.4375 C 21.277344 29.246094 21.214844 29.097656 21.160156 29.097656 C 21.109375 29.097656 21.070312 28.941406 21.070312 28.742188 C 21.070312 28.339844 20.839844 28.265625 20.640625 28.613281 C 20.535156 28.800781 20.550781 28.855469 20.742188 29.007812 C 20.996094 29.199219 21.03125 29.351562 20.824219 29.429688 C 20.609375 29.503906 20.34375 29.132812 20.34375 28.753906 C 20.34375 28.5625 20.277344 28.398438 20.210938 28.367188 C 19.96875 28.289062 19.714844 28.414062 19.714844 28.605469 C 19.714844 28.710938 19.664062 28.796875 19.609375 28.796875 C 19.550781 28.796875 19.503906 28.714844 19.503906 28.613281 C 19.503906 28.511719 19.449219 28.386719 19.386719 28.320312 C 19.183594 28.132812 19.394531 27.972656 19.761719 28.035156 C 20.011719 28.085938 20.167969 28.046875 20.367188 27.894531 C 20.625 27.699219 20.648438 27.699219 20.984375 27.863281 C 21.421875 28.089844 21.589844 28.28125 21.59375 28.566406 C 21.597656 28.691406 21.644531 28.789062 21.699219 28.789062 C 21.839844 28.789062 21.835938 28.425781 21.699219 28.34375 C 21.632812 28.300781 21.636719 28.214844 21.703125 28.089844 C 21.847656 27.835938 22.019531 27.839844 22.019531 28.09375 C 22.019531 28.351562 22.230469 28.359375 22.300781 28.101562 C 22.363281 27.867188 22.863281 27.742188 23.15625 27.890625 C 23.429688 28.027344 23.410156 28.03125 23.695312 27.789062 C 23.890625 27.636719 23.910156 27.5625 23.808594 27.46875 C 23.703125 27.367188 23.636719 27.398438 23.476562 27.597656 L 23.277344 27.847656 L 23.273438 27.570312 C 23.273438 27.402344 23.324219 27.292969 23.421875 27.292969 C 23.566406 27.292969 23.738281 27.007812 23.648438 26.921875 C 23.628906 26.898438 23.492188 26.914062 23.359375 26.953125 C 23.222656 26.996094 23.046875 27.035156 22.960938 27.039062 C 22.863281 27.042969 22.785156 27.160156 22.769531 27.320312 C 22.730469 27.644531 22.578125 27.679688 22.484375 27.386719 C 22.445312 27.257812 22.480469 27.113281 22.585938 27.003906 C 22.804688 26.773438 22.796875 26.59375 22.566406 26.59375 C 22.417969 26.589844 22.433594 26.554688 22.644531 26.394531 C 22.976562 26.148438 23.914062 26.117188 24.113281 26.34375 C 24.257812 26.511719 24.792969 26.558594 24.691406 26.394531 C 24.65625 26.339844 24.695312 26.296875 24.789062 26.296875 C 24.878906 26.296875 25.007812 26.382812 25.078125 26.484375 C 25.171875 26.632812 25.246094 26.652344 25.394531 26.578125 C 25.496094 26.527344 25.558594 26.4375 25.527344 26.390625 C 25.453125 26.277344 25.6875 26.265625 25.871094 26.378906 C 26.042969 26.480469 25.777344 26.84375 25.382812 27.035156 C 25.136719 27.160156 25.054688 27.160156 24.8125 27.046875 C 24.660156 26.972656 24.535156 26.945312 24.535156 27.003906 C 24.535156 27.058594 24.582031 27.101562 24.640625 27.101562 C 24.695312 27.101562 24.746094 27.1875 24.746094 27.296875 C 24.746094 27.53125 24.613281 27.558594 24.429688 27.347656 C 24.316406 27.214844 24.28125 27.21875 24.160156 27.367188 C 23.972656 27.597656 23.976562 27.695312 24.167969 27.695312 C 24.253906 27.695312 24.324219 27.742188 24.324219 27.796875 C 24.324219 27.855469 24.421875 27.898438 24.535156 27.898438 C 24.652344 27.898438 24.742188 27.964844 24.742188 28.046875 C 24.742188 28.128906 24.789062 28.191406 24.847656 28.191406 C 24.90625 28.191406 24.953125 28.148438 24.953125 28.09375 C 24.953125 28.039062 24.90625 27.976562 24.847656 27.9375 C 24.601562 27.789062 24.761719 27.664062 25.117188 27.71875 C 25.628906 27.796875 25.792969 27.714844 25.792969 27.378906 C 25.792969 27.1875 25.839844 27.105469 25.921875 27.140625 C 26.066406 27.195312 26.316406 27.648438 26.316406 27.851562 C 26.316406 28.097656 26.558594 28.113281 26.746094 27.871094 C 26.925781 27.648438 26.945312 27.644531 27.109375 27.804688 C 27.273438 27.953125 27.269531 27.980469 27.0625 28.152344 C 26.945312 28.25 26.839844 28.371094 26.839844 28.417969 C 26.839844 28.464844 27.007812 28.707031 27.207031 28.960938 C 27.652344 29.515625 27.683594 29.789062 27.304688 29.789062 C 27.089844 29.789062 26.46875 30.167969 26.636719 30.195312 C 27.339844 30.324219 27.496094 30.261719 27.777344 29.730469 C 28 29.304688 28.039062 29.277344 28.34375 29.328125 C 28.523438 29.359375 28.855469 29.34375 29.082031 29.292969 C 29.597656 29.179688 29.789062 29.273438 29.421875 29.457031 C 29.234375 29.546875 29.144531 29.675781 29.144531 29.847656 C 29.144531 30.070312 29.121094 30.082031 28.929688 29.984375 C 28.605469 29.820312 28.433594 29.929688 28.308594 30.382812 C 28.226562 30.675781 28.136719 30.789062 27.996094 30.789062 C 27.886719 30.789062 27.65625 30.867188 27.480469 30.960938 C 27.179688 31.125 27.136719 31.125 26.871094 30.972656 C 26.710938 30.882812 26.464844 30.648438 26.328125 30.453125 C 26.007812 30 25.082031 29.6875 24.054688 29.6875 C 23.46875 29.6875 23.3125 29.648438 23.054688 29.433594 C 22.667969 29.117188 22.601562 29.117188 22.269531 29.441406 C 22.039062 29.660156 22.011719 29.757812 22.070312 30.089844 L 22.136719 30.484375 L 21.613281 30.484375 C 21.183594 30.484375 21.03125 30.535156 20.722656 30.796875 C 20.519531 30.964844 20.351562 31.191406 20.351562 31.296875 C 20.351562 31.441406 20.277344 31.488281 20.027344 31.488281 C 19.371094 31.488281 19.117188 31.796875 19.507812 32.132812 C 19.664062 32.269531 19.851562 32.296875 20.359375 32.273438 C 21.257812 32.226562 21.386719 32.578125 20.496094 32.644531 C 20.304688 32.660156 20.015625 32.699219 19.851562 32.734375 C 19.589844 32.789062 19.496094 32.738281 19.097656 32.28125 M 19.902344 30.40625 C 19.902344 30.347656 19.832031 30.304688 19.746094 30.304688 C 19.664062 30.304688 19.59375 30.351562 19.59375 30.40625 C 19.59375 30.460938 19.664062 30.503906 19.746094 30.503906 C 19.832031 30.503906 19.902344 30.460938 19.902344 30.40625 M 26.457031 29.414062 C 26.378906 29.289062 26.085938 29.265625 26.085938 29.386719 C 26.085938 29.429688 26.144531 29.519531 26.210938 29.582031 C 26.355469 29.722656 26.566406 29.582031 26.457031 29.414062 M 16.761719 29.203125 C 16.761719 29.148438 16.710938 29.105469 16.652344 29.105469 C 16.589844 29.105469 16.570312 29.152344 16.605469 29.203125 C 16.640625 29.261719 16.691406 29.304688 16.714844 29.304688 C 16.738281 29.304688 16.761719 29.257812 16.761719 29.203125 M 25.570312 29.164062 C 25.421875 28.992188 24.964844 28.875 24.808594 28.96875 C 24.628906 29.074219 25.027344 29.304688 25.386719 29.304688 C 25.636719 29.304688 25.667969 29.277344 25.570312 29.164062 M 26.921875 29.238281 C 26.921875 28.996094 26.640625 28.496094 26.476562 28.445312 C 26.234375 28.371094 26.234375 28.371094 26.160156 28.820312 C 26.109375 29.140625 26.128906 29.175781 26.308594 29.128906 C 26.414062 29.101562 26.507812 29.128906 26.507812 29.191406 C 26.507812 29.25 26.605469 29.304688 26.71875 29.304688 C 26.835938 29.304688 26.925781 29.273438 26.925781 29.238281 M 18.964844 28.835938 C 18.964844 28.636719 18.714844 28.726562 18.671875 28.9375 C 18.644531 29.054688 18.6875 29.085938 18.800781 29.046875 C 18.894531 29.011719 18.964844 28.917969 18.964844 28.835938 M 24.050781 29 C 24.089844 28.9375 24.097656 28.871094 24.070312 28.847656 C 23.996094 28.777344 23.679688 28.914062 23.679688 29.015625 C 23.679688 29.140625 23.964844 29.128906 24.050781 29 M 23.53125 28.65625 C 23.5625 28.574219 23.65625 28.507812 23.734375 28.507812 C 23.8125 28.507812 23.925781 28.417969 23.988281 28.308594 C 24.132812 28.058594 23.9375 28.035156 23.601562 28.257812 C 23.40625 28.390625 23.359375 28.390625 23.222656 28.261719 C 23.054688 28.097656 22.941406 28.15625 22.941406 28.402344 C 22.941406 28.746094 23.410156 28.953125 23.53125 28.65625 M 22.679688 28.605469 C 22.714844 28.550781 22.671875 28.507812 22.585938 28.507812 C 22.5 28.507812 22.398438 28.550781 22.363281 28.605469 C 22.328125 28.664062 22.371094 28.703125 22.453125 28.703125 C 22.539062 28.703125 22.644531 28.660156 22.679688 28.605469 M 24.492188 28.53125 C 24.449219 28.324219 24.265625 28.335938 24.21875 28.554688 C 24.195312 28.648438 24.257812 28.707031 24.359375 28.707031 C 24.464844 28.707031 24.519531 28.644531 24.496094 28.535156 M 25.859375 28.386719 C 25.898438 28.0625 25.753906 28.03125 25.402344 28.292969 C 25.210938 28.441406 25.183594 28.511719 25.28125 28.601562 C 25.496094 28.8125 25.820312 28.691406 25.855469 28.390625 M 20.117188 27.410156 C 20.117188 27.351562 20.070312 27.308594 20.015625 27.308594 C 19.949219 27.308594 19.90625 27.355469 19.90625 27.410156 C 19.90625 27.472656 19.953125 27.515625 20.015625 27.515625 C 20.070312 27.515625 20.117188 27.46875 20.117188 27.410156 M 17.34375 27.105469 C 17.375 27.050781 17.308594 27.007812 17.1875 27.007812 C 17.066406 27.007812 16.996094 27.054688 17.03125 27.105469 C 17.066406 27.164062 17.136719 27.210938 17.1875 27.210938 C 17.238281 27.210938 17.308594 27.160156 17.34375 27.105469 M 18.875 26.460938 C 18.875 26.40625 18.824219 26.355469 18.761719 26.328125 C 18.699219 26.308594 18.648438 26.367188 18.648438 26.460938 C 18.648438 26.558594 18.699219 26.605469 18.761719 26.597656 C 18.824219 26.574219 18.875 26.519531 18.875 26.460938 M 16.027344 25.234375 C 16.105469 25.144531 16.105469 25.046875 16.03125 24.914062 C 15.933594 24.738281 15.894531 24.730469 15.585938 24.851562 C 15.148438 25.027344 15.109375 25.164062 15.410156 25.46875 C 15.640625 25.703125 15.664062 25.707031 15.785156 25.539062 C 15.859375 25.4375 15.972656 25.300781 16.027344 25.234375 M 16.738281 25.1875 C 16.910156 25.023438 16.898438 24.707031 16.726562 24.707031 C 16.527344 24.707031 16.203125 25.074219 16.285156 25.199219 C 16.378906 25.34375 16.585938 25.335938 16.738281 25.1875 M 19.796875 25.121094 C 19.796875 25 19.582031 24.847656 19.304688 24.761719 C 19.039062 24.683594 18.976562 24.878906 19.195312 25.085938 C 19.339844 25.226562 19.796875 25.25 19.796875 25.121094 M 13.667969 23.707031 C 13.636719 23.648438 13.535156 23.605469 13.453125 23.605469 C 13.371094 23.605469 13.304688 23.652344 13.304688 23.707031 C 13.304688 23.761719 13.398438 23.804688 13.519531 23.804688 C 13.636719 23.804688 13.707031 23.757812 13.667969 23.707031 M 14.453125 23.707031 C 14.453125 23.648438 14.40625 23.605469 14.347656 23.605469 C 14.285156 23.605469 14.265625 23.652344 14.296875 23.707031 C 14.335938 23.761719 14.386719 23.804688 14.410156 23.804688 C 14.433594 23.804688 14.453125 23.757812 14.453125 23.707031 M 13.253906 23.296875 C 13.292969 23.238281 13.394531 23.214844 13.476562 23.246094 C 13.664062 23.316406 13.789062 23.027344 13.636719 22.878906 C 13.546875 22.796875 13.445312 22.839844 13.253906 23.042969 C 13.109375 23.191406 12.988281 23.335938 12.988281 23.363281 C 12.988281 23.449219 13.1875 23.402344 13.253906 23.300781 M 29.988281 29.332031 C 29.949219 29.277344 30.179688 29.304688 30.359375 29.304688 C 30.589844 29.304688 30.765625 29.199219 31.039062 28.898438 C 31.355469 28.558594 31.402344 28.441406 31.355469 28.164062 C 31.320312 27.960938 31.347656 27.800781 31.421875 27.757812 C 31.511719 27.707031 31.496094 27.652344 31.371094 27.5625 C 31.226562 27.460938 31.214844 27.402344 31.3125 27.222656 C 31.464844 26.949219 31.746094 26.945312 31.816406 27.214844 C 31.851562 27.339844 31.929688 27.398438 32.027344 27.363281 C 32.109375 27.332031 32.195312 27.304688 32.222656 27.304688 C 32.355469 27.304688 32.234375 26.988281 32.078125 26.9375 C 31.980469 26.902344 31.816406 26.8125 31.726562 26.734375 C 31.609375 26.640625 31.53125 26.628906 31.484375 26.699219 C 31.265625 27.039062 31.113281 26.570312 31.324219 26.199219 C 31.449219 25.980469 31.636719 25.941406 31.636719 26.136719 C 31.636719 26.300781 32.160156 26.675781 32.519531 26.761719 C 32.667969 26.796875 32.820312 26.875 32.855469 26.925781 C 32.933594 27.042969 33.417969 26.625 33.417969 26.441406 C 33.417969 26.367188 33.488281 26.308594 33.578125 26.308594 C 33.804688 26.308594 33.890625 26.039062 33.726562 25.851562 C 33.644531 25.761719 33.632812 25.664062 33.691406 25.609375 C 33.75 25.550781 33.867188 25.628906 33.996094 25.8125 C 34.230469 26.148438 34.355469 26.148438 34.480469 25.824219 C 34.554688 25.632812 34.539062 25.609375 34.375 25.65625 C 34.152344 25.726562 33.863281 25.46875 34.042969 25.363281 C 34.105469 25.328125 34.246094 25.328125 34.359375 25.359375 C 34.628906 25.441406 34.742188 25.183594 34.585938 24.851562 C 34.488281 24.652344 34.496094 24.589844 34.625 24.546875 C 34.851562 24.464844 34.816406 24.34375 34.5625 24.277344 C 34.441406 24.242188 34.359375 24.167969 34.386719 24.09375 C 34.433594 23.953125 34.113281 23.605469 33.945312 23.605469 C 33.890625 23.605469 33.835938 23.570312 33.828125 23.53125 C 33.722656 22.855469 33.730469 22.839844 34.054688 22.886719 C 34.273438 22.910156 34.363281 22.984375 34.363281 23.113281 C 34.363281 23.21875 34.433594 23.328125 34.511719 23.359375 C 34.960938 23.523438 35.351562 22.785156 35.042969 22.367188 L 34.882812 22.148438 L 34.816406 22.386719 C 34.757812 22.605469 34.71875 22.617188 34.21875 22.558594 C 33.925781 22.519531 33.636719 22.445312 33.570312 22.398438 C 33.402344 22.261719 32.777344 22.511719 32.816406 22.699219 C 32.863281 22.933594 33.179688 22.9375 33.242188 22.714844 C 33.3125 22.441406 33.527344 22.441406 33.527344 22.703125 C 33.527344 22.8125 33.480469 22.902344 33.417969 22.902344 C 33.359375 22.902344 33.320312 22.976562 33.335938 23.074219 C 33.355469 23.175781 33.332031 23.304688 33.285156 23.382812 C 33.152344 23.578125 32.917969 23.527344 32.878906 23.277344 C 32.863281 23.148438 32.757812 23.035156 32.640625 23.015625 C 32.453125 22.976562 32.449219 22.992188 32.585938 23.15625 C 32.726562 23.320312 32.722656 23.328125 32.53125 23.261719 C 32.414062 23.21875 32.191406 23.136719 32.035156 23.085938 C 31.773438 22.992188 31.359375 22.4375 31.472656 22.324219 C 31.550781 22.253906 31.75 22.40625 31.691406 22.496094 C 31.664062 22.546875 31.722656 22.679688 31.824219 22.796875 C 32.023438 23.027344 32.375 22.988281 32.375 22.738281 C 32.375 22.660156 32.417969 22.597656 32.480469 22.597656 C 32.535156 22.597656 32.585938 22.53125 32.585938 22.445312 C 32.585938 22.324219 32.542969 22.316406 32.375 22.40625 C 32.195312 22.496094 32.125 22.476562 31.957031 22.285156 C 31.699219 21.988281 31.699219 21.882812 31.957031 21.726562 C 32.074219 21.660156 32.167969 21.496094 32.167969 21.371094 C 32.167969 21.222656 32.261719 21.101562 32.433594 21.023438 C 32.710938 20.902344 32.949219 20.460938 32.859375 20.238281 C 32.773438 20.027344 32.566406 20.085938 32.640625 20.304688 C 32.703125 20.492188 32.507812 20.90625 32.359375 20.90625 C 32.222656 20.90625 32.050781 20.496094 32.003906 20.039062 C 31.960938 19.636719 31.976562 19.601562 32.160156 19.65625 C 32.292969 19.695312 32.398438 19.660156 32.460938 19.554688 C 32.597656 19.324219 32.988281 19.453125 33.027344 19.742188 C 33.050781 19.886719 33.136719 19.964844 33.269531 19.964844 C 33.386719 19.964844 33.480469 20.03125 33.480469 20.113281 C 33.480469 20.195312 33.417969 20.25 33.347656 20.234375 C 33.171875 20.199219 33.179688 20.429688 33.367188 20.667969 C 33.519531 20.855469 33.523438 20.855469 33.523438 20.636719 C 33.527344 20.402344 33.675781 20.335938 33.792969 20.515625 C 33.832031 20.574219 33.941406 20.613281 34.035156 20.605469 C 34.363281 20.574219 34.472656 20.613281 34.472656 20.761719 C 34.472656 20.84375 34.542969 20.910156 34.628906 20.910156 C 34.710938 20.910156 34.78125 20.867188 34.78125 20.808594 C 34.78125 20.757812 34.898438 20.683594 35.046875 20.652344 C 35.242188 20.605469 35.308594 20.523438 35.308594 20.316406 C 35.308594 20.035156 35.140625 19.808594 34.929688 19.808594 C 34.855469 19.808594 34.824219 19.890625 34.855469 19.996094 C 34.882812 20.097656 34.855469 20.214844 34.792969 20.25 C 34.726562 20.289062 34.628906 20.140625 34.550781 19.859375 C 34.464844 19.550781 34.367188 19.40625 34.25 19.40625 C 34.058594 19.40625 33.777344 19.136719 33.867188 19.046875 C 33.902344 19.015625 34.121094 18.964844 34.355469 18.9375 C 34.589844 18.902344 34.78125 18.824219 34.78125 18.757812 C 34.78125 18.621094 33.757812 18.394531 33.675781 18.515625 C 33.605469 18.625 33.027344 18.734375 32.902344 18.664062 C 32.71875 18.554688 32.910156 18.308594 33.179688 18.308594 C 33.433594 18.308594 33.445312 18.289062 33.375 17.898438 C 33.316406 17.546875 33.332031 17.492188 33.476562 17.546875 C 33.566406 17.582031 33.664062 17.605469 33.6875 17.605469 C 33.796875 17.605469 33.714844 18.195312 33.597656 18.242188 C 33.519531 18.273438 33.535156 18.296875 33.644531 18.300781 C 33.742188 18.304688 33.851562 18.265625 33.886719 18.210938 C 33.921875 18.148438 34.066406 18.105469 34.207031 18.105469 C 34.550781 18.105469 34.527344 18.019531 34.054688 17.527344 C 33.707031 17.175781 33.625 17.132812 33.519531 17.261719 C 33.363281 17.441406 33.101562 17.453125 33.101562 17.28125 C 33.101562 17.070312 32.515625 16.882812 32.265625 17.007812 C 32.148438 17.070312 32.050781 17.175781 32.050781 17.238281 C 32.050781 17.304688 31.957031 17.527344 31.84375 17.734375 C 31.726562 17.941406 31.632812 18.132812 31.632812 18.160156 C 31.632812 18.1875 31.730469 18.214844 31.84375 18.214844 C 31.957031 18.214844 32.050781 18.277344 32.050781 18.359375 C 32.050781 18.558594 31.910156 18.550781 31.699219 18.328125 C 31.492188 18.105469 31.445312 17.054688 31.652344 17.175781 C 31.734375 17.226562 31.75 17.1875 31.691406 17.054688 C 31.503906 16.621094 31.519531 16.507812 31.792969 16.164062 C 32.027344 15.871094 32.054688 15.78125 31.949219 15.660156 C 31.746094 15.429688 31.574219 15.480469 31.578125 15.78125 C 31.582031 16.171875 31.292969 16.191406 31.144531 15.816406 C 31.011719 15.488281 31.050781 15.410156 31.335938 15.410156 C 31.570312 15.410156 31.578125 15.328125 31.367188 15.105469 C 31.222656 14.949219 31.242188 14.878906 31.640625 14.3125 C 31.9375 13.886719 32.109375 13.71875 32.183594 13.789062 C 32.253906 13.863281 32.210938 14.015625 32.046875 14.265625 C 31.820312 14.617188 31.820312 14.644531 31.984375 14.976562 C 32.078125 15.164062 32.226562 15.34375 32.304688 15.371094 C 32.492188 15.441406 32.90625 16.097656 32.824219 16.21875 C 32.789062 16.269531 32.902344 16.445312 33.066406 16.613281 C 33.390625 16.933594 33.53125 16.996094 33.445312 16.78125 C 33.421875 16.707031 33.46875 16.589844 33.550781 16.519531 C 33.640625 16.449219 33.761719 16.21875 33.820312 16.003906 C 34.011719 15.34375 34.234375 15.605469 34.238281 16.480469 C 34.238281 16.804688 34.316406 16.992188 34.605469 17.332031 C 35.0625 17.871094 35.601562 18.882812 35.601562 19.207031 C 35.601562 19.339844 35.683594 19.535156 35.785156 19.640625 C 35.988281 19.855469 35.992188 19.960938 35.890625 22.214844 C 35.835938 23.511719 35.796875 23.726562 35.539062 24.257812 C 35.328125 24.699219 35.242188 25.046875 35.21875 25.605469 C 35.171875 26.53125 34.847656 27.113281 34.367188 27.113281 C 34.207031 27.113281 33.839844 27.269531 33.546875 27.457031 C 33.25 27.648438 32.832031 27.832031 32.617188 27.871094 C 32.183594 27.949219 31.832031 28.226562 31.832031 28.476562 C 31.832031 28.5625 31.972656 28.761719 32.144531 28.914062 C 32.320312 29.066406 32.460938 29.238281 32.460938 29.300781 C 32.460938 29.519531 32.21875 29.527344 31.933594 29.324219 C 31.558594 29.058594 31.140625 29.054688 30.734375 29.316406 C 30.386719 29.535156 30.078125 29.492188 29.976562 29.34375 M 35.027344 23.75 C 35.105469 23.554688 34.785156 23.429688 34.667969 23.609375 C 34.621094 23.683594 34.605469 23.78125 34.632812 23.824219 C 34.722656 23.960938 34.960938 23.914062 35.027344 23.75 M 32.738281 21.992188 C 32.835938 21.714844 32.652344 21.546875 32.476562 21.75 C 32.335938 21.910156 32.394531 22.207031 32.5625 22.207031 C 32.621094 22.207031 32.695312 22.109375 32.734375 21.996094 M 34.320312 21.929688 C 34.460938 21.765625 34.472656 21.765625 34.574219 21.929688 C 34.761719 22.21875 34.960938 22.132812 35.023438 21.738281 C 35.097656 21.300781 35.035156 21.175781 34.777344 21.257812 C 34.644531 21.292969 34.566406 21.25 34.519531 21.109375 C 34.480469 20.992188 34.359375 20.902344 34.242188 20.902344 C 33.929688 20.902344 34.027344 21.328125 34.359375 21.402344 C 34.527344 21.4375 34.578125 21.488281 34.503906 21.535156 C 34.4375 21.574219 34.226562 21.515625 34.027344 21.40625 C 33.621094 21.167969 33.511719 21.152344 33.589844 21.34375 C 33.625 21.441406 33.570312 21.464844 33.390625 21.433594 C 33.21875 21.402344 33.113281 21.441406 33.070312 21.550781 C 32.992188 21.746094 33.445312 21.945312 33.753906 21.851562 C 33.871094 21.8125 33.972656 21.847656 34.011719 21.949219 C 34.09375 22.148438 34.152344 22.144531 34.324219 21.929688 M 32.804688 21.273438 C 32.671875 21.148438 32.53125 21.246094 32.636719 21.398438 C 32.675781 21.464844 32.753906 21.480469 32.8125 21.445312 C 32.882812 21.402344 32.882812 21.34375 32.804688 21.273438 M 32.585938 16.457031 C 32.585938 16.3125 32.523438 16.203125 32.445312 16.203125 C 32.226562 16.203125 32.164062 16.3125 32.277344 16.519531 C 32.425781 16.785156 32.589844 16.746094 32.589844 16.453125 M 26.976562 27.402344 C 26.878906 27.25 27.011719 27.148438 27.148438 27.277344 C 27.222656 27.347656 27.226562 27.40625 27.15625 27.445312 C 27.09375 27.484375 27.015625 27.464844 26.976562 27.402344 M 26.855469 26.949219 C 26.765625 26.722656 26.96875 26.566406 27.128906 26.75 C 27.265625 26.90625 27.199219 27.105469 27.023438 27.105469 C 26.964844 27.105469 26.890625 27.035156 26.855469 26.949219 M 26.164062 26.945312 C 26.125 26.90625 26.089844 26.765625 26.089844 26.632812 C 26.089844 26.441406 26.132812 26.398438 26.324219 26.421875 C 26.5 26.449219 26.5625 26.523438 26.5625 26.703125 C 26.5625 26.945312 26.320312 27.089844 26.164062 26.941406 M 31.847656 26.007812 C 31.847656 25.953125 31.894531 25.910156 31.957031 25.910156 C 32.011719 25.910156 32.0625 25.957031 32.0625 26.007812 C 32.0625 26.066406 32.015625 26.109375 31.957031 26.109375 C 31.898438 26.109375 31.847656 26.0625 31.847656 26.007812 M 32.453125 25.9375 C 32.039062 25.878906 32.078125 25.582031 32.539062 25.347656 C 32.75 25.242188 32.957031 25.054688 33.011719 24.929688 C 33.089844 24.738281 33.132812 24.722656 33.304688 24.824219 C 33.46875 24.921875 33.5625 24.910156 33.789062 24.769531 C 33.945312 24.671875 34.136719 24.621094 34.222656 24.652344 C 34.355469 24.699219 34.335938 24.757812 34.136719 25.003906 C 33.863281 25.332031 33.679688 25.382812 33.59375 25.160156 C 33.488281 24.902344 33.296875 24.992188 33.328125 25.28125 C 33.339844 25.433594 33.289062 25.65625 33.207031 25.78125 C 33.058594 26.003906 33.007812 26.015625 32.453125 25.933594 M 17.203125 24.292969 C 17.257812 24.136719 17.492188 24.109375 17.503906 24.257812 C 17.507812 24.316406 17.429688 24.375 17.332031 24.394531 C 17.222656 24.414062 17.175781 24.378906 17.203125 24.292969 M 26.039062 22.71875 C 25.964844 22.601562 26.355469 22.472656 26.503906 22.558594 C 26.558594 22.59375 26.609375 22.664062 26.609375 22.714844 C 26.609375 22.832031 26.117188 22.835938 26.039062 22.714844 M 27.007812 22.6875 C 27.234375 22.476562 27.160156 22.28125 26.886719 22.347656 C 26.734375 22.382812 26.585938 22.355469 26.511719 22.269531 C 26.417969 22.15625 26.460938 22.101562 26.734375 21.96875 L 27.074219 21.804688 L 27.519531 22.234375 C 27.765625 22.46875 27.964844 22.695312 27.96875 22.738281 C 27.972656 22.78125 27.730469 22.8125 27.425781 22.8125 C 27.003906 22.8125 26.910156 22.785156 27.007812 22.691406 M 21.007812 22.21875 C 21.042969 22.109375 21.019531 21.996094 20.960938 21.960938 C 20.804688 21.871094 20.828125 21.710938 20.996094 21.710938 C 21.265625 21.710938 21.402344 21.972656 21.25 22.203125 C 21.082031 22.464844 20.921875 22.476562 21.007812 22.222656 M 25.777344 22.308594 C 25.777344 22.253906 25.824219 22.210938 25.882812 22.210938 C 25.941406 22.210938 25.988281 22.257812 25.988281 22.308594 C 25.988281 22.367188 25.941406 22.410156 25.882812 22.410156 C 25.824219 22.410156 25.777344 22.363281 25.777344 22.308594 M 19.710938 21.855469 C 19.535156 21.660156 19.382812 21.4375 19.382812 21.359375 C 19.382812 21.15625 19.796875 20.964844 19.933594 21.09375 C 19.992188 21.152344 20.183594 21.171875 20.347656 21.140625 C 20.640625 21.082031 20.652344 21.09375 20.613281 21.414062 C 20.574219 21.746094 20.324219 21.964844 20.324219 21.667969 C 20.324219 21.578125 20.285156 21.507812 20.238281 21.507812 C 20.191406 21.507812 20.171875 21.640625 20.195312 21.796875 C 20.261719 22.226562 20.070312 22.25 19.707031 21.851562 M 25.992188 21.550781 C 25.996094 21.433594 26.019531 21.410156 26.058594 21.492188 C 26.09375 21.5625 26.082031 21.648438 26.054688 21.683594 C 26.019531 21.714844 25.988281 21.65625 25.992188 21.550781 M 26.933594 21.519531 C 26.933594 21.414062 27.320312 21.214844 27.394531 21.28125 C 27.519531 21.402344 27.453125 21.488281 27.195312 21.535156 C 27.046875 21.558594 26.933594 21.554688 26.933594 21.519531 M 20.957031 21.261719 C 20.957031 21.148438 21.03125 21.109375 21.195312 21.128906 C 21.324219 21.148438 21.433594 21.203125 21.433594 21.261719 C 21.433594 21.316406 21.324219 21.371094 21.195312 21.390625 C 21.03125 21.410156 20.957031 21.371094 20.957031 21.261719 M 31.695312 21.210938 C 31.730469 21.148438 31.777344 21.109375 31.804688 21.109375 C 31.824219 21.109375 31.851562 21.152344 31.851562 21.210938 C 31.851562 21.269531 31.800781 21.308594 31.738281 21.308594 C 31.679688 21.308594 31.660156 21.265625 31.695312 21.210938 M 26.59375 20.910156 C 26.480469 20.789062 26.449219 20.691406 26.519531 20.652344 C 26.699219 20.546875 26.933594 20.691406 26.933594 20.902344 C 26.933594 21.15625 26.820312 21.160156 26.59375 20.910156 M 22.195312 20.847656 C 22.175781 20.757812 21.996094 20.632812 21.792969 20.570312 C 21.335938 20.429688 21.222656 19.992188 21.59375 19.804688 C 21.710938 19.738281 21.820312 19.699219 21.835938 19.722656 C 21.855469 19.742188 21.941406 19.882812 22.042969 20.035156 C 22.144531 20.1875 22.34375 20.355469 22.484375 20.40625 C 22.78125 20.511719 22.808594 20.628906 22.578125 20.847656 C 22.367188 21.046875 22.242188 21.039062 22.199219 20.84375 M 31.546875 20.484375 C 31.550781 20.109375 31.566406 20.082031 31.6875 20.234375 C 31.832031 20.417969 31.792969 20.90625 31.632812 20.90625 C 31.585938 20.90625 31.542969 20.714844 31.546875 20.480469 M 34.632812 20.507812 C 34.667969 20.449219 34.714844 20.40625 34.742188 20.40625 C 34.765625 20.40625 34.789062 20.453125 34.789062 20.507812 C 34.789062 20.566406 34.738281 20.609375 34.675781 20.609375 C 34.617188 20.609375 34.597656 20.5625 34.632812 20.507812 M 20.613281 20.441406 C 20.574219 20.40625 20.542969 20.273438 20.542969 20.140625 C 20.542969 19.90625 20.6875 19.851562 21.003906 19.96875 C 21.148438 20.019531 21.148438 20.050781 21 20.269531 C 20.832031 20.515625 20.734375 20.558594 20.613281 20.441406 M 22.535156 20.160156 C 22.535156 20.078125 22.582031 20.011719 22.640625 20.011719 C 22.699219 20.011719 22.742188 20.078125 22.742188 20.160156 C 22.742188 20.238281 22.699219 20.308594 22.640625 20.308594 C 22.578125 20.308594 22.535156 20.238281 22.535156 20.160156 M 33.921875 20.144531 C 33.785156 20.011719 33.851562 19.910156 34.070312 19.910156 C 34.1875 19.910156 34.265625 19.964844 34.246094 20.03125 C 34.195312 20.175781 34.019531 20.238281 33.921875 20.148438 M 22.324219 19.660156 C 22.398438 19.578125 22.496094 19.511719 22.550781 19.511719 C 22.597656 19.511719 22.640625 19.578125 22.640625 19.660156 C 22.640625 19.742188 22.546875 19.808594 22.417969 19.808594 C 22.234375 19.808594 22.214844 19.78125 22.324219 19.660156 M 21.148438 19.585938 C 20.820312 19.34375 20.886719 18.972656 21.371094 18.375 C 21.84375 17.792969 22.234375 17.636719 22.371094 17.976562 C 22.515625 18.328125 22.128906 18.78125 21.789062 18.664062 C 21.710938 18.636719 21.5625 18.675781 21.457031 18.753906 C 21.273438 18.890625 21.273438 18.902344 21.488281 19.101562 C 21.671875 19.28125 21.683594 19.339844 21.574219 19.511719 C 21.421875 19.742188 21.378906 19.75 21.15625 19.585938 M 21.90625 18.210938 C 21.90625 18.152344 21.863281 18.109375 21.800781 18.109375 C 21.746094 18.109375 21.695312 18.15625 21.695312 18.210938 C 21.695312 18.265625 21.742188 18.308594 21.800781 18.308594 C 21.859375 18.308594 21.90625 18.261719 21.90625 18.210938 M 33.398438 19.542969 C 33.359375 19.507812 33.328125 19.410156 33.328125 19.328125 C 33.328125 19.210938 33.355469 19.210938 33.484375 19.308594 C 33.570312 19.375 33.640625 19.472656 33.640625 19.519531 C 33.640625 19.625 33.492188 19.636719 33.394531 19.542969 M 22.996094 19.296875 C 22.921875 19.175781 23.152344 18.992188 23.28125 19.066406 C 23.386719 19.125 23.273438 19.40625 23.15625 19.40625 C 23.105469 19.40625 23.035156 19.359375 22.996094 19.296875 M 31.96875 19.261719 C 31.96875 19.09375 32.277344 18.914062 32.445312 18.980469 C 32.511719 19 32.539062 19.105469 32.511719 19.214844 C 32.449219 19.449219 31.960938 19.492188 31.960938 19.265625 M 22.214844 19.210938 C 22.214844 19.152344 22.261719 19.109375 22.320312 19.109375 C 22.378906 19.109375 22.429688 19.15625 22.429688 19.210938 C 22.429688 19.265625 22.382812 19.308594 22.320312 19.308594 C 22.265625 19.308594 22.214844 19.261719 22.214844 19.210938 M 22.976562 18.6875 L 22.746094 18.453125 L 23.0625 18.324219 C 23.234375 18.257812 23.378906 18.117188 23.378906 18.027344 C 23.378906 17.914062 23.46875 17.859375 23.640625 17.859375 C 23.824219 17.859375 23.902344 17.914062 23.902344 18.039062 C 23.902344 18.285156 23.710938 18.605469 23.570312 18.605469 C 23.507812 18.605469 23.398438 18.675781 23.335938 18.761719 C 23.230469 18.902344 23.191406 18.890625 22.988281 18.683594 M 22.328125 18.609375 C 22.328125 18.554688 22.402344 18.511719 22.492188 18.511719 C 22.582031 18.511719 22.628906 18.558594 22.59375 18.609375 C 22.554688 18.667969 22.480469 18.714844 22.429688 18.714844 C 22.375 18.714844 22.328125 18.664062 22.328125 18.609375 M 32.355469 18.546875 C 32.269531 18.464844 32.363281 18.308594 32.496094 18.308594 C 32.550781 18.308594 32.597656 18.375 32.597656 18.457031 C 32.597656 18.613281 32.472656 18.65625 32.359375 18.542969 M 32.761719 17.976562 C 32.640625 17.890625 32.609375 17.816406 32.679688 17.773438 C 32.839844 17.679688 33.117188 17.804688 33.117188 17.96875 C 33.117188 18.144531 33.007812 18.144531 32.761719 17.972656 M 24.261719 17.769531 C 24.160156 17.53125 24.382812 17.328125 24.554688 17.492188 C 24.65625 17.589844 24.644531 17.644531 24.503906 17.777344 C 24.34375 17.933594 24.320312 17.933594 24.261719 17.769531 M 22.019531 17.433594 C 22.019531 17.328125 22.445312 16.90625 22.839844 16.617188 C 23.019531 16.488281 23.171875 16.304688 23.171875 16.207031 C 23.171875 16.019531 23.484375 15.707031 23.683594 15.707031 C 23.753906 15.707031 23.929688 15.636719 24.070312 15.550781 C 24.390625 15.347656 24.464844 15.402344 24.332031 15.742188 C 24.273438 15.898438 24.148438 16.007812 24.03125 16.007812 C 23.816406 16.007812 23.507812 16.464844 23.636719 16.578125 C 23.683594 16.621094 23.785156 16.558594 23.878906 16.433594 C 24.066406 16.160156 24.222656 16.144531 24.222656 16.386719 C 24.222656 16.636719 23.824219 16.851562 23.644531 16.703125 C 23.539062 16.621094 23.445312 16.621094 23.285156 16.699219 C 23.054688 16.820312 23.011719 16.957031 23.175781 17.054688 C 23.433594 17.203125 23.261719 17.328125 22.867188 17.277344 C 22.574219 17.238281 22.441406 17.265625 22.402344 17.367188 C 22.34375 17.515625 22.023438 17.566406 22.023438 17.433594 M 32.40625 17.417969 C 32.453125 17.289062 32.59375 17.269531 32.609375 17.386719 C 32.613281 17.425781 32.558594 17.480469 32.492188 17.496094 C 32.421875 17.519531 32.386719 17.484375 32.40625 17.417969 M 24.039062 17.246094 C 23.742188 17.136719 23.914062 16.941406 24.300781 16.964844 C 24.824219 16.992188 24.828125 16.996094 24.59375 17.164062 C 24.386719 17.316406 24.265625 17.332031 24.039062 17.246094 M 21.957031 16.773438 C 21.925781 16.691406 21.929688 16.574219 21.96875 16.511719 C 22.007812 16.449219 21.984375 16.34375 21.917969 16.265625 C 21.824219 16.15625 21.855469 16.089844 22.066406 15.953125 C 22.214844 15.859375 22.410156 15.8125 22.5 15.851562 C 22.742188 15.9375 22.632812 16.257812 22.351562 16.289062 C 22.152344 16.316406 22.117188 16.367188 22.171875 16.5625 C 22.242188 16.824219 22.054688 17.007812 21.960938 16.769531 M 21.496094 16.269531 C 21.496094 16.183594 21.542969 16.113281 21.605469 16.113281 C 21.660156 16.113281 21.710938 16.15625 21.710938 16.207031 C 21.710938 16.265625 21.660156 16.328125 21.605469 16.363281 C 21.546875 16.398438 21.496094 16.355469 21.496094 16.269531 M 24.550781 16.316406 C 24.578125 16.25 24.625 16.199219 24.667969 16.203125 C 24.792969 16.21875 24.769531 16.351562 24.632812 16.394531 C 24.5625 16.414062 24.527344 16.382812 24.546875 16.3125 M 24.957031 16.214844 C 24.957031 16.160156 25.097656 16.097656 25.269531 16.0625 C 25.625 15.988281 25.695312 15.722656 25.382812 15.644531 C 25.273438 15.617188 25.125 15.453125 25.050781 15.289062 C 24.941406 15.035156 24.945312 14.972656 25.078125 14.875 C 25.167969 14.816406 25.296875 14.664062 25.363281 14.539062 C 25.53125 14.230469 25.636719 14.257812 25.902344 14.664062 C 26.027344 14.855469 26.179688 14.984375 26.234375 14.949219 C 26.296875 14.914062 26.324219 14.972656 26.300781 15.074219 C 26.277344 15.179688 26.152344 15.304688 26.027344 15.359375 C 25.847656 15.4375 25.800781 15.519531 25.84375 15.714844 C 25.871094 15.855469 25.839844 16.027344 25.769531 16.109375 C 25.632812 16.269531 24.960938 16.355469 24.960938 16.214844 M 22.402344 15.441406 C 22.285156 15.328125 22.324219 15.214844 22.492188 15.214844 C 22.578125 15.214844 22.648438 15.277344 22.648438 15.359375 C 22.648438 15.515625 22.523438 15.558594 22.402344 15.445312 M 23.066406 15.011719 C 23.066406 14.710938 23.316406 14.585938 23.410156 14.835938 C 23.449219 14.9375 23.484375 14.9375 23.601562 14.835938 C 23.757812 14.695312 24.222656 14.664062 24.222656 14.789062 C 24.222656 14.839844 24.304688 14.867188 24.40625 14.863281 C 24.503906 14.859375 24.589844 14.898438 24.589844 14.960938 C 24.589844 15.015625 24.484375 15.050781 24.351562 15.027344 C 24.222656 15.011719 24.089844 15.058594 24.0625 15.132812 C 24.03125 15.210938 23.816406 15.277344 23.542969 15.28125 C 23.089844 15.304688 23.074219 15.296875 23.074219 15.007812 M 29.042969 14.90625 C 29.042969 14.78125 29.253906 14.78125 29.460938 14.90625 C 29.582031 14.980469 29.550781 15.007812 29.328125 15.011719 C 29.167969 15.011719 29.042969 14.96875 29.042969 14.90625 M 26.371094 14.808594 C 26.332031 14.75 26.335938 14.609375 26.375 14.492188 C 26.433594 14.324219 26.410156 14.289062 26.277344 14.34375 C 26.160156 14.386719 26.105469 14.351562 26.105469 14.226562 C 26.105469 13.980469 25.992188 13.894531 25.835938 14.023438 C 25.6875 14.136719 25.480469 14.066406 25.480469 13.90625 C 25.480469 13.851562 25.546875 13.808594 25.625 13.808594 C 25.722656 13.808594 25.765625 13.703125 25.757812 13.492188 C 25.730469 13.023438 25.960938 13.039062 26.195312 13.527344 C 26.542969 14.238281 26.597656 14.289062 26.777344 14.058594 C 26.898438 13.902344 26.957031 13.882812 27.058594 13.980469 C 27.164062 14.074219 27.152344 14.113281 27.015625 14.164062 C 26.792969 14.246094 26.78125 14.707031 26.996094 14.707031 C 27.082031 14.707031 27.152344 14.640625 27.152344 14.558594 C 27.152344 14.453125 27.25 14.414062 27.488281 14.4375 C 27.738281 14.453125 27.835938 14.414062 27.863281 14.289062 C 27.894531 14.15625 27.835938 14.113281 27.640625 14.113281 C 27.386719 14.113281 27.382812 14.105469 27.535156 13.8125 C 27.726562 13.445312 27.992188 13.414062 27.992188 13.761719 C 27.992188 14.058594 28.074219 14.074219 28.265625 13.832031 C 28.390625 13.683594 28.402344 13.691406 28.40625 13.988281 C 28.410156 14.25 28.449219 14.316406 28.59375 14.289062 C 28.71875 14.265625 28.777344 14.15625 28.785156 13.945312 C 28.789062 13.777344 28.894531 13.507812 29.023438 13.339844 C 29.152344 13.164062 29.253906 12.980469 29.253906 12.917969 C 29.253906 12.765625 29.339844 12.78125 29.554688 12.984375 C 30.046875 13.445312 30.460938 14.753906 30.148438 14.867188 C 30.066406 14.902344 29.855469 14.828125 29.6875 14.714844 C 29.515625 14.601562 29.304688 14.507812 29.210938 14.507812 C 29.113281 14.507812 29.039062 14.4375 29.039062 14.351562 C 29.039062 14.136719 28.84375 14.277344 28.722656 14.574219 C 28.628906 14.808594 28.578125 14.824219 28.003906 14.789062 C 27.660156 14.773438 27.347656 14.789062 27.304688 14.832031 C 27.1875 14.941406 26.449219 14.925781 26.367188 14.808594 M 24.601562 14.292969 C 24.527344 14.023438 24.523438 14.023438 24.871094 14.085938 C 25.1875 14.140625 25.265625 14.359375 24.992188 14.453125 C 24.722656 14.554688 24.664062 14.527344 24.601562 14.292969 M 24.113281 12.441406 C 24.113281 12.265625 24.152344 12.117188 24.21875 12.117188 C 24.34375 12.117188 24.34375 12.289062 24.21875 12.566406 C 24.144531 12.730469 24.117188 12.714844 24.113281 12.441406 M 24.113281 12.441406 "/>
</g>
</svg>
