<!-- color: #3d3d3d -->
<svg xmlns="http://www.w3.org/2000/svg" xmlns:xlink="http://www.w3.org/1999/xlink" width="48px" height="48px" viewBox="0 0 48 48" version="1.1">
<g id="surface1">
<path style=" stroke:none;fill-rule:nonzero;fill:rgb(90.588235%,75.686275%,11.764706%);fill-opacity:1;" d="M 22 9.125 C 15.316406 10.015625 10.015625 15.316406 9.125 22 L 20.5625 22 C 20.914062 21.394531 21.394531 20.914062 22 20.5625 M 26 9.125 L 26 20.5625 C 26.605469 20.914062 27.085938 21.394531 27.4375 22 L 38.878906 22 C 37.984375 15.316406 32.6875 10.015625 26.003906 9.125 M 9.128906 26 C 10.019531 32.683594 15.316406 37.984375 22.003906 38.875 L 22.003906 27.4375 C 21.398438 27.085938 20.914062 26.605469 20.5625 26 M 27.4375 26 C 27.085938 26.605469 26.605469 27.085938 26 27.4375 L 26 38.875 C 32.683594 37.984375 37.984375 32.683594 38.875 26 M 27.4375 26 "/>
</g>
</svg>
