<!-- color: #c11717 -->
<svg xmlns="http://www.w3.org/2000/svg" xmlns:xlink="http://www.w3.org/1999/xlink" width="48px" height="48px" viewBox="0 0 48 48" version="1.1">
<g id="surface1">
<path style=" stroke:none;fill-rule:nonzero;fill:rgb(0%,0%,0%);fill-opacity:1;" d="M 22.734375 9.019531 C 22.636719 9.039062 22.265625 9.085938 21.914062 9.136719 C 21.082031 9.257812 19.542969 9.640625 18.726562 9.941406 C 16.714844 10.675781 14.859375 11.878906 13.289062 13.46875 C 11.339844 15.453125 10.132812 17.609375 9.449219 20.332031 C 9.066406 21.863281 9 22.417969 9 24.035156 C 9 25.570312 9.070312 26.132812 9.441406 27.648438 C 10.109375 30.382812 11.359375 32.585938 13.386719 34.617188 C 15.425781 36.648438 17.605469 37.878906 20.359375 38.558594 C 21.878906 38.929688 22.433594 39 24 39 C 25.242188 39 25.550781 38.976562 26.199219 38.863281 C 29.105469 38.339844 30.972656 37.546875 33.246094 35.863281 C 33.871094 35.398438 35.445312 33.808594 35.9375 33.140625 C 37.5625 30.925781 38.34375 29.074219 38.859375 26.199219 C 38.972656 25.554688 38.996094 25.242188 38.996094 24.03125 C 38.996094 22.421875 38.933594 21.859375 38.550781 20.335938 C 37.863281 17.605469 36.65625 15.449219 34.710938 13.472656 C 33.140625 11.882812 31.28125 10.679688 29.269531 9.945312 C 28.503906 9.667969 26.976562 9.273438 26.117188 9.136719 C 25.527344 9.035156 23.160156 8.964844 22.730469 9.023438 M 25.753906 10.550781 C 27.234375 10.738281 28.578125 11.152344 29.980469 11.847656 C 30.753906 12.21875 32.132812 13.058594 32.132812 13.148438 C 32.132812 13.164062 32.097656 13.160156 32.0625 13.136719 C 32.011719 13.105469 32.015625 13.117188 32.070312 13.191406 C 32.109375 13.25 32.179688 13.285156 32.21875 13.277344 C 32.253906 13.273438 32.410156 13.390625 32.570312 13.542969 C 32.722656 13.691406 32.886719 13.808594 32.921875 13.800781 C 32.953125 13.796875 32.984375 13.820312 32.988281 13.855469 C 32.988281 13.882812 33.214844 14.121094 33.488281 14.375 C 34.148438 14.980469 34.304688 15.140625 34.195312 15.09375 C 34.148438 15.070312 34.21875 15.144531 34.34375 15.269531 C 34.472656 15.386719 34.535156 15.46875 34.488281 15.445312 C 34.441406 15.421875 34.492188 15.488281 34.605469 15.59375 C 34.71875 15.691406 34.769531 15.757812 34.722656 15.742188 C 34.675781 15.71875 34.71875 15.765625 34.8125 15.847656 C 34.910156 15.929688 34.964844 16 34.929688 16 C 34.898438 16 34.917969 16.027344 34.976562 16.0625 C 35.03125 16.101562 35.066406 16.148438 35.046875 16.175781 C 35.03125 16.207031 35.070312 16.257812 35.136719 16.292969 C 35.199219 16.328125 35.242188 16.382812 35.222656 16.40625 C 35.207031 16.433594 35.234375 16.476562 35.289062 16.496094 C 35.34375 16.519531 35.371094 16.546875 35.355469 16.566406 C 35.335938 16.589844 35.367188 16.652344 35.425781 16.71875 C 35.582031 16.890625 36.113281 17.855469 36.398438 18.515625 C 36.867188 19.578125 37.347656 21.242188 37.46875 22.273438 C 37.546875 22.898438 37.5625 24.925781 37.492188 25.335938 C 37.457031 25.5625 37.421875 25.835938 37.417969 25.945312 C 37.417969 26.042969 37.386719 26.132812 37.359375 26.132812 C 37.328125 26.132812 37.316406 26.191406 37.332031 26.261719 C 37.398438 26.496094 37.039062 27.894531 36.6875 28.8125 C 36.402344 29.542969 35.847656 30.679688 35.535156 31.152344 L 35.28125 31.546875 L 35.300781 30.585938 C 35.316406 29.632812 35.316406 29.625 35.171875 29.449219 C 35.03125 29.285156 35.03125 29.265625 35.117188 29.136719 C 35.210938 29 35.207031 28.988281 35.007812 28.820312 C 34.800781 28.640625 34.792969 28.625 34.871094 28.453125 C 34.945312 28.269531 34.933594 28.253906 34.453125 27.570312 C 34.179688 27.179688 33.9375 26.828125 33.914062 26.78125 C 33.890625 26.734375 33.839844 26.664062 33.785156 26.625 C 33.65625 26.527344 33.699219 25.867188 33.84375 25.625 C 33.933594 25.480469 33.949219 25.40625 33.902344 25.324219 C 33.863281 25.246094 33.863281 25.152344 33.910156 25.035156 C 33.96875 24.871094 33.957031 24.828125 33.761719 24.558594 C 33.644531 24.398438 33.542969 24.234375 33.542969 24.1875 C 33.542969 24.144531 33.503906 24.066406 33.449219 24.007812 C 33.375 23.921875 33.367188 23.867188 33.421875 23.714844 C 33.460938 23.589844 33.460938 23.496094 33.421875 23.421875 C 33.390625 23.359375 33.378906 23.308594 33.398438 23.308594 C 33.414062 23.308594 33.355469 23.238281 33.265625 23.15625 C 33.179688 23.074219 33.136719 23.019531 33.179688 23.042969 C 33.289062 23.101562 33.261719 23.042969 33.089844 22.890625 C 33.007812 22.8125 32.953125 22.789062 32.976562 22.835938 C 33.003906 22.882812 32.972656 22.859375 32.914062 22.785156 C 32.796875 22.625 32.777344 22.476562 32.867188 22.414062 C 32.902344 22.390625 32.878906 22.332031 32.808594 22.277344 C 32.742188 22.222656 32.726562 22.195312 32.765625 22.21875 C 32.882812 22.277344 32.847656 22.222656 32.648438 22.035156 C 32.546875 21.941406 32.484375 21.90625 32.507812 21.953125 C 32.546875 22.03125 32.542969 22.03125 32.472656 21.953125 C 32.371094 21.835938 32.101562 21.71875 31.929688 21.71875 C 31.839844 21.71875 31.777344 21.675781 31.765625 21.613281 C 31.746094 21.554688 31.5625 21.394531 31.359375 21.257812 C 30.746094 20.859375 30.378906 20.945312 30.0625 21.582031 C 29.984375 21.734375 29.914062 21.875 29.90625 21.886719 C 29.902344 21.898438 29.785156 21.8125 29.648438 21.6875 C 29.3125 21.386719 29.125 21.429688 28.582031 21.914062 C 28.210938 22.246094 28.074219 22.390625 28.257812 22.273438 C 28.296875 22.242188 28.25 22.296875 28.152344 22.382812 C 28.058594 22.476562 28.015625 22.535156 28.0625 22.511719 C 28.109375 22.488281 28.085938 22.53125 27.992188 22.605469 C 27.890625 22.695312 27.816406 22.835938 27.800781 22.976562 C 27.765625 23.191406 27.769531 23.207031 27.886719 23.171875 C 27.949219 23.15625 28.011719 23.171875 28.011719 23.207031 C 28.011719 23.242188 28.03125 23.25 28.039062 23.230469 C 28.09375 23.183594 28.425781 23.375 28.425781 23.445312 C 28.425781 23.46875 28.445312 23.472656 28.484375 23.457031 C 28.519531 23.4375 28.542969 23.445312 28.542969 23.480469 C 28.542969 23.515625 28.414062 23.660156 28.246094 23.816406 C 27.859375 24.179688 27.839844 24.257812 28.078125 24.621094 C 28.582031 25.421875 28.660156 25.578125 28.660156 25.765625 C 28.660156 26.007812 28.785156 26.308594 28.929688 26.4375 C 28.996094 26.488281 29.148438 26.546875 29.273438 26.566406 C 29.402344 26.589844 29.65625 26.679688 29.832031 26.765625 C 30.097656 26.902344 30.167969 26.960938 30.179688 27.089844 C 30.203125 27.296875 29.550781 28.585938 29.300781 28.824219 C 29.132812 28.988281 29.109375 28.992188 28.464844 28.992188 C 28.101562 28.992188 27.730469 29.015625 27.632812 29.046875 L 27.464844 29.097656 L 27.5 28.628906 L 27.535156 28.152344 L 26.960938 27.601562 C 26.644531 27.296875 26.214844 26.929688 26.007812 26.789062 C 25.519531 26.441406 24.722656 26.019531 24.574219 26.019531 C 24.480469 26.019531 24.46875 25.988281 24.5 25.851562 C 24.523438 25.765625 24.550781 25.453125 24.574219 25.15625 C 24.621094 24.386719 24.476562 23.832031 24.097656 23.386719 C 24.015625 23.28125 23.960938 23.195312 23.980469 23.179688 C 23.992188 23.15625 23.957031 23.113281 23.902344 23.066406 C 23.804688 22.988281 23.804688 22.996094 23.878906 23.101562 C 23.921875 23.164062 23.84375 23.101562 23.710938 22.953125 C 23.574219 22.808594 23.480469 22.730469 23.503906 22.777344 C 23.527344 22.832031 23.507812 22.832031 23.457031 22.761719 C 23.410156 22.699219 23.34375 22.65625 23.308594 22.65625 C 23.277344 22.65625 23.230469 22.613281 23.214844 22.5625 C 23.195312 22.515625 23.15625 22.492188 23.121094 22.507812 C 23.089844 22.527344 23.0625 22.515625 23.0625 22.480469 C 23.0625 22.445312 23.039062 22.425781 23.007812 22.449219 C 22.972656 22.472656 22.917969 22.429688 22.882812 22.363281 C 22.847656 22.300781 22.789062 22.242188 22.75 22.253906 C 22.578125 22.273438 22.304688 22.171875 22.335938 22.09375 C 22.371094 21.996094 22.53125 21.984375 22.53125 22.070312 C 22.53125 22.105469 22.636719 22.125 22.765625 22.117188 C 22.90625 22.105469 22.992188 22.070312 22.992188 22.023438 C 22.992188 21.988281 23.023438 21.953125 23.058594 21.953125 C 23.09375 21.953125 23.113281 21.917969 23.09375 21.871094 C 23.078125 21.824219 23.101562 21.769531 23.152344 21.753906 C 23.199219 21.730469 23.230469 21.675781 23.214844 21.628906 C 23.152344 21.492188 23.21875 21.523438 23.496094 21.78125 C 23.644531 21.917969 23.769531 22.011719 23.769531 21.988281 C 23.769531 21.972656 23.820312 22.007812 23.890625 22.078125 C 23.953125 22.140625 24.050781 22.183594 24.097656 22.164062 C 24.144531 22.148438 24.175781 22.152344 24.15625 22.175781 C 24.144531 22.199219 24.234375 22.222656 24.363281 22.21875 C 24.488281 22.21875 24.59375 22.195312 24.59375 22.171875 C 24.59375 22.140625 24.613281 22.136719 24.652344 22.160156 C 24.683594 22.175781 24.757812 22.148438 24.816406 22.089844 C 24.875 22.03125 24.957031 21.976562 25.003906 21.964844 C 25.046875 21.960938 25.164062 21.882812 25.269531 21.800781 C 25.417969 21.6875 25.476562 21.589844 25.507812 21.40625 C 25.542969 21.207031 25.628906 21.070312 25.953125 20.734375 C 26.171875 20.5 26.398438 20.226562 26.449219 20.132812 C 26.53125 19.960938 26.53125 19.933594 26.421875 19.714844 L 26.300781 19.484375 L 26.445312 19.386719 C 26.566406 19.308594 26.597656 19.238281 26.609375 18.964844 L 26.625 18.644531 L 26.785156 18.765625 C 27.003906 18.941406 27.117188 18.914062 27.214844 18.679688 C 27.359375 18.335938 27.5 17.816406 27.511719 17.574219 C 27.515625 17.449219 27.546875 17.335938 27.570312 17.308594 C 27.597656 17.285156 27.597656 17.308594 27.570312 17.355469 C 27.546875 17.402344 27.585938 17.378906 27.667969 17.296875 C 27.746094 17.214844 27.804688 17.128906 27.792969 17.113281 C 27.789062 17.089844 27.804688 16.929688 27.835938 16.757812 C 27.953125 16.128906 27.957031 16.011719 27.980469 14.890625 C 28.003906 14.160156 27.988281 13.765625 27.953125 13.789062 C 27.921875 13.8125 27.894531 13.703125 27.894531 13.511719 C 27.886719 12.894531 27.511719 11.585938 27.261719 11.34375 C 27.179688 11.269531 27.175781 11.269531 27.210938 11.371094 C 27.261719 11.527344 27.375 12.617188 27.351562 12.742188 C 27.332031 12.800781 27.292969 12.6875 27.25 12.496094 C 27.210938 12.300781 27.121094 12.023438 27.050781 11.875 L 26.925781 11.609375 L 26.890625 12.289062 C 26.84375 13.203125 26.84375 13.203125 26.332031 12.988281 C 26.109375 12.894531 25.882812 12.820312 25.84375 12.820312 C 25.800781 12.820312 25.664062 12.753906 25.535156 12.671875 C 25.40625 12.589844 25.003906 12.382812 24.640625 12.207031 C 24.273438 12.027344 23.761719 11.746094 23.503906 11.582031 C 23.109375 11.328125 23 11.285156 22.832031 11.308594 C 22.617188 11.34375 22.292969 11.605469 22.113281 11.90625 C 21.941406 12.179688 21.722656 12.148438 21.5 11.816406 C 21.222656 11.410156 21.097656 11.363281 20.613281 11.492188 C 20.226562 11.597656 19.703125 11.894531 19.652344 12.035156 C 19.636719 12.097656 19.742188 12.113281 20.039062 12.113281 C 20.414062 12.113281 20.9375 12.269531 20.9375 12.386719 C 20.9375 12.40625 20.675781 12.40625 20.34375 12.398438 L 19.75 12.367188 L 19.789062 12.570312 C 19.808594 12.679688 19.882812 12.894531 19.949219 13.046875 C 20.019531 13.199219 20.078125 13.339844 20.078125 13.363281 C 20.097656 13.503906 20.308594 13.648438 20.496094 13.648438 C 20.625 13.648438 20.699219 13.625 20.675781 13.589844 C 20.632812 13.515625 20.703125 13.511719 20.804688 13.574219 C 20.863281 13.609375 20.863281 13.644531 20.785156 13.738281 C 20.738281 13.800781 20.710938 13.808594 20.734375 13.761719 C 20.75 13.714844 20.6875 13.765625 20.578125 13.878906 C 20.480469 13.988281 20.414062 14.039062 20.4375 13.992188 C 20.496094 13.890625 20.265625 14.0625 20.0625 14.289062 C 19.984375 14.371094 19.941406 14.394531 19.964844 14.351562 C 19.984375 14.304688 19.945312 14.320312 19.890625 14.390625 C 19.824219 14.460938 19.761719 14.503906 19.738281 14.484375 C 19.71875 14.464844 19.703125 14.480469 19.703125 14.519531 C 19.703125 14.5625 19.679688 14.578125 19.640625 14.554688 C 19.613281 14.535156 19.535156 14.574219 19.472656 14.640625 C 19.40625 14.703125 19.34375 14.738281 19.324219 14.714844 C 19.304688 14.695312 19.289062 14.714844 19.289062 14.746094 C 19.289062 14.78125 19.246094 14.804688 19.1875 14.777344 C 19.121094 14.757812 19.105469 14.757812 19.136719 14.804688 C 19.15625 14.851562 19.148438 14.863281 19.09375 14.839844 C 19.039062 14.824219 18.96875 14.851562 18.910156 14.898438 C 18.863281 14.945312 18.808594 14.96875 18.785156 14.953125 C 18.769531 14.933594 18.757812 14.945312 18.757812 14.988281 C 18.757812 15.035156 18.722656 15.054688 18.65625 15.03125 C 18.597656 15.011719 18.578125 15.019531 18.609375 15.066406 C 18.636719 15.113281 18.621094 15.117188 18.554688 15.09375 C 18.496094 15.078125 18.457031 15.082031 18.457031 15.117188 C 18.457031 15.152344 18.433594 15.164062 18.402344 15.140625 C 18.367188 15.125 18.351562 15.242188 18.355469 15.4375 C 18.363281 15.613281 18.386719 15.761719 18.410156 15.761719 C 18.425781 15.761719 18.433594 15.859375 18.414062 15.988281 C 18.398438 16.125 18.410156 16.230469 18.449219 16.253906 C 18.519531 16.300781 18.539062 16.527344 18.472656 16.527344 C 18.445312 16.527344 18.378906 16.445312 18.320312 16.335938 C 18.230469 16.191406 18.203125 16.167969 18.15625 16.238281 C 18.074219 16.367188 18.089844 16.515625 18.207031 16.585938 C 18.289062 16.632812 18.277344 16.636719 18.148438 16.609375 C 17.902344 16.554688 17.9375 16.691406 18.25 16.996094 C 18.402344 17.144531 18.492188 17.28125 18.46875 17.320312 C 18.445312 17.355469 18.273438 17.527344 18.085938 17.699219 C 17.808594 17.945312 17.726562 17.992188 17.660156 17.941406 C 17.558594 17.855469 17.511719 17.890625 16.871094 18.476562 C 16.523438 18.800781 16.445312 18.894531 16.480469 18.996094 C 16.511719 19.09375 16.476562 19.140625 16.304688 19.242188 C 16.15625 19.328125 16.097656 19.402344 16.117188 19.476562 C 16.132812 19.542969 16.023438 19.699219 15.78125 19.953125 C 15.566406 20.171875 15.324219 20.507812 15.191406 20.765625 C 15.0625 21.007812 14.9375 21.222656 14.90625 21.226562 C 14.882812 21.238281 14.871094 21.273438 14.894531 21.304688 C 14.914062 21.332031 14.894531 21.355469 14.867188 21.355469 C 14.832031 21.355469 14.808594 21.378906 14.8125 21.398438 C 14.835938 21.46875 14.679688 21.828125 14.625 21.828125 C 14.605469 21.828125 14.582031 21.863281 14.582031 21.898438 C 14.582031 22.003906 14.105469 23.058594 13.976562 23.242188 C 13.683594 23.660156 13.121094 24.933594 12.9375 25.597656 C 12.863281 25.875 12.773438 26.105469 12.734375 26.121094 C 12.6875 26.132812 12.6875 26.152344 12.726562 26.179688 C 12.769531 26.203125 12.773438 26.300781 12.738281 26.453125 C 12.644531 26.859375 12.675781 27.71875 12.792969 28.042969 C 12.980469 28.5625 13.117188 28.867188 13.164062 28.886719 C 13.191406 28.898438 13.199219 28.933594 13.175781 28.960938 C 13.15625 28.992188 13.175781 29.015625 13.210938 29.015625 C 13.246094 29.015625 13.261719 29.039062 13.238281 29.074219 C 13.222656 29.101562 13.257812 29.179688 13.328125 29.253906 C 13.394531 29.316406 13.429688 29.367188 13.40625 29.367188 C 13.375 29.367188 13.40625 29.398438 13.464844 29.433594 C 13.515625 29.46875 13.550781 29.515625 13.535156 29.550781 C 13.511719 29.582031 13.527344 29.605469 13.558594 29.605469 C 13.59375 29.605469 13.617188 29.621094 13.609375 29.644531 C 13.597656 29.675781 13.640625 29.746094 13.699219 29.808594 C 13.753906 29.875 13.800781 29.945312 13.804688 29.96875 C 13.804688 29.992188 13.859375 30.074219 13.917969 30.144531 C 13.980469 30.222656 14.1875 30.492188 14.382812 30.753906 C 15.113281 31.738281 15.75 32.371094 15.992188 32.371094 C 16.058594 32.371094 16.386719 32.601562 16.730469 32.886719 C 17.234375 33.304688 17.34375 33.414062 17.316406 33.527344 C 17.300781 33.632812 17.355469 33.714844 17.542969 33.863281 C 17.777344 34.058594 17.878906 34.253906 18.195312 35.101562 C 18.226562 35.175781 18.144531 35.292969 17.867188 35.554688 C 17.667969 35.75 17.496094 35.90625 17.476562 35.90625 C 17.464844 35.90625 17.234375 35.777344 16.953125 35.613281 C 15.371094 34.675781 13.777344 33.144531 12.65625 31.46875 C 12.21875 30.808594 11.597656 29.644531 11.65625 29.585938 C 11.679688 29.5625 11.664062 29.550781 11.621094 29.550781 C 11.578125 29.550781 11.5625 29.523438 11.578125 29.492188 C 11.601562 29.464844 11.589844 29.429688 11.554688 29.414062 C 11.519531 29.402344 11.488281 29.320312 11.488281 29.234375 C 11.484375 29.144531 11.464844 29.089844 11.441406 29.101562 C 11.414062 29.121094 11.40625 29.074219 11.429688 29.003906 C 11.449219 28.925781 11.4375 28.890625 11.402344 28.914062 C 11.289062 28.984375 10.558594 26.445312 10.644531 26.304688 C 10.664062 26.269531 10.664062 26.210938 10.632812 26.175781 C 10.609375 26.132812 10.578125 26.035156 10.570312 25.953125 C 10.558594 25.867188 10.53125 25.582031 10.503906 25.304688 C 10.421875 24.554688 10.433594 22.996094 10.53125 22.359375 C 10.570312 22.050781 10.613281 21.757812 10.617188 21.714844 C 10.648438 21.347656 11.011719 20.035156 11.300781 19.234375 C 11.59375 18.410156 12.34375 16.929688 12.589844 16.683594 C 12.644531 16.636719 12.6875 16.578125 12.679688 16.558594 C 12.675781 16.488281 13.109375 15.886719 13.191406 15.859375 C 13.238281 15.839844 13.261719 15.800781 13.238281 15.769531 C 13.222656 15.734375 13.273438 15.664062 13.359375 15.609375 C 13.433594 15.558594 13.488281 15.492188 13.476562 15.464844 C 13.453125 15.441406 13.511719 15.367188 13.59375 15.316406 C 13.675781 15.261719 13.738281 15.1875 13.738281 15.152344 C 13.738281 15.109375 14.019531 14.820312 14.367188 14.507812 C 14.722656 14.1875 15.007812 13.894531 15.007812 13.859375 C 15.015625 13.824219 15.039062 13.800781 15.074219 13.804688 C 15.109375 13.8125 15.269531 13.695312 15.425781 13.546875 C 15.585938 13.394531 15.742188 13.273438 15.777344 13.273438 C 15.8125 13.28125 15.882812 13.253906 15.925781 13.1875 C 15.980469 13.125 15.984375 13.101562 15.9375 13.132812 C 15.898438 13.15625 15.863281 13.160156 15.863281 13.144531 C 15.863281 13.054688 17.246094 12.214844 18.015625 11.84375 C 19.382812 11.171875 20.761719 10.746094 22.199219 10.550781 C 23.03125 10.441406 24.890625 10.433594 25.746094 10.546875 M 33.378906 28.320312 C 33.367188 28.347656 33.390625 28.367188 33.425781 28.367188 C 33.460938 28.367188 33.480469 28.390625 33.457031 28.417969 C 33.4375 28.449219 33.492188 28.550781 33.574219 28.636719 C 33.710938 28.785156 33.746094 28.863281 33.726562 28.96875 C 33.726562 28.996094 33.746094 29.015625 33.769531 29.015625 C 33.878906 29.015625 34.5625 30.875 34.558594 31.148438 C 34.558594 31.253906 34.574219 31.300781 34.617188 31.277344 C 34.664062 31.253906 34.671875 31.269531 34.640625 31.34375 C 34.617188 31.40625 34.628906 31.46875 34.671875 31.488281 C 34.703125 31.511719 34.738281 31.671875 34.738281 31.84375 C 34.742188 32.007812 34.777344 32.144531 34.808594 32.144531 C 34.84375 32.144531 34.824219 32.175781 34.777344 32.203125 C 34.730469 32.234375 34.714844 32.261719 34.738281 32.261719 C 34.90625 32.261719 33.328125 33.910156 32.566406 34.53125 C 31.808594 35.136719 30.921875 35.707031 30.003906 36.164062 C 29.566406 36.386719 29.183594 36.5625 29.160156 36.5625 C 29.132812 36.5625 29.027344 36.605469 28.925781 36.652344 C 28.5 36.847656 27.433594 37.15625 26.699219 37.304688 L 25.917969 37.464844 L 25.75 37.277344 C 25.613281 37.121094 25.582031 37.039062 25.582031 36.773438 C 25.582031 36.582031 25.625 36.386719 25.683594 36.273438 C 25.785156 36.105469 25.785156 36.089844 25.667969 35.960938 C 25.449219 35.726562 25.113281 35.183594 25.113281 35.066406 C 25.113281 35.007812 24.929688 34.660156 24.707031 34.28125 C 24.417969 33.808594 24.328125 33.617188 24.40625 33.640625 C 24.511719 33.675781 25.8125 34.375 26.773438 34.917969 C 27.246094 35.183594 27.304688 35.199219 27.621094 35.183594 C 27.953125 35.164062 27.96875 35.152344 28.117188 34.917969 C 28.199219 34.789062 28.488281 34.511719 28.765625 34.300781 C 29.320312 33.886719 29.519531 33.65625 29.714844 33.222656 C 29.980469 32.613281 30.210938 32.167969 30.246094 32.148438 C 30.277344 32.136719 30.28125 32.101562 30.261719 32.070312 C 30.242188 32.050781 30.261719 32.019531 30.296875 32.019531 C 30.335938 32.019531 30.347656 31.988281 30.324219 31.960938 C 30.304688 31.925781 30.3125 31.902344 30.339844 31.902344 C 30.367188 31.902344 30.398438 31.84375 30.398438 31.773438 C 30.40625 31.695312 30.441406 31.628906 30.476562 31.617188 C 30.503906 31.605469 30.523438 31.570312 30.496094 31.542969 C 30.476562 31.511719 30.484375 31.488281 30.515625 31.488281 C 30.535156 31.488281 30.570312 31.425781 30.570312 31.347656 C 30.59375 31.011719 31.535156 29.308594 31.914062 28.933594 C 32.042969 28.800781 32.148438 28.671875 32.144531 28.644531 C 32.132812 28.621094 32.15625 28.609375 32.195312 28.613281 C 32.230469 28.625 32.296875 28.566406 32.339844 28.492188 C 32.425781 28.320312 32.53125 28.25 32.636719 28.289062 C 32.679688 28.308594 32.734375 28.277344 32.75 28.226562 C 32.769531 28.171875 32.808594 28.148438 32.839844 28.167969 C 32.867188 28.183594 32.890625 28.167969 32.890625 28.132812 C 32.890625 28.097656 32.921875 28.082031 32.949219 28.101562 C 32.984375 28.121094 33.027344 28.097656 33.050781 28.046875 C 33.074219 27.972656 33.113281 27.984375 33.238281 28.113281 C 33.328125 28.207031 33.386719 28.296875 33.378906 28.320312 M 33.378906 28.320312 "/>
</g>
</svg>
