<!-- color: #b4c7dc -->
<svg xmlns="http://www.w3.org/2000/svg" xmlns:xlink="http://www.w3.org/1999/xlink" width="48px" height="48px" viewBox="0 0 48 48" version="1.1">
<g id="surface1">
<path style=" stroke:none;fill-rule:nonzero;fill:rgb(17.647059%,17.647059%,17.647059%);fill-opacity:1;" d="M 39 24 C 39 32.28125 32.285156 39 24 39 C 15.714844 39 9 32.28125 9 24 C 9 15.714844 15.714844 9 24 9 C 32.285156 9 39 15.714844 39 24 M 39 24 "/>
<path style=" stroke:none;fill-rule:nonzero;fill:rgb(32.54902%,80.392157%,92.941176%);fill-opacity:1;" d="M 15.320312 11.765625 C 13.636719 12.964844 12.210938 14.5 11.140625 16.273438 L 18 18 M 15.320312 11.765625 "/>
<path style=" stroke:none;fill-rule:nonzero;fill:rgb(32.54902%,80.392157%,92.941176%);fill-opacity:1;" d="M 32.269531 11.488281 L 30.5 18.496094 L 36.613281 15.871094 C 35.484375 14.140625 33.996094 12.640625 32.269531 11.484375 M 32.269531 11.488281 "/>
<path style=" stroke:none;fill-rule:nonzero;fill:rgb(32.54902%,80.392157%,92.941176%);fill-opacity:1;" d="M 32.5 27.5 L 34.363281 34.84375 C 35.851562 33.421875 37.035156 31.710938 37.84375 29.78125 M 32.5 27.5 "/>
<path style=" stroke:none;fill-rule:nonzero;fill:rgb(32.54902%,80.392157%,92.941176%);fill-opacity:1;" d="M 16 28 L 10.050781 29.519531 C 10.78125 31.371094 11.859375 33.027344 13.222656 34.433594 M 16 28 "/>
<path style=" stroke:none;fill-rule:nonzero;fill:rgb(12.54902%,69.019608%,83.921569%);fill-opacity:1;" d="M 22 13 L 26 13 L 26 12 L 24 9 L 22 12 M 22 13 "/>
<path style=" stroke:none;fill-rule:nonzero;fill:rgb(32.54902%,80.392157%,92.941176%);fill-opacity:1;" d="M 22 12 L 22 38.875 C 22.65625 38.960938 23.320312 39 24 39 C 24.679688 39 25.34375 38.960938 26 38.875 L 26 12 M 22 12 "/>
<path style=" stroke:none;fill-rule:nonzero;fill:rgb(0%,43.921569%,72.54902%);fill-opacity:1;" d="M 24 35 L 22 38.875 C 22.65625 38.960938 23.320312 39 24 39 C 24.679688 39 25.34375 38.960938 26 38.875 M 24 35 "/>
</g>
</svg>
