<!-- color: #ebebeb -->
<svg xmlns="http://www.w3.org/2000/svg" xmlns:xlink="http://www.w3.org/1999/xlink" width="48px" height="48px" viewBox="0 0 48 48" version="1.1">
<g id="surface1">
<path style=" stroke:none;fill-rule:nonzero;fill:rgb(49.803922%,67.058824%,86.666667%);fill-opacity:1;" d="M 16.585938 15.652344 L 32.433594 15.652344 L 32.433594 31.410156 L 16.585938 31.410156 M 16.585938 15.652344 "/>
<path style=" stroke:none;fill-rule:nonzero;fill:rgb(17.647059%,17.647059%,17.647059%);fill-opacity:1;" d="M 48 30.996094 L 0 30.996094 L 0 31.996094 L 48 31.996094 M 48 30.996094 "/>
<path style=" stroke:none;fill-rule:nonzero;fill:rgb(17.647059%,17.647059%,17.647059%);fill-opacity:1;" d="M 48 15 L 0 15 L 0 16 L 48 16 M 48 15 "/>
<path style=" stroke:none;fill-rule:nonzero;fill:rgb(17.647059%,17.647059%,17.647059%);fill-opacity:1;" d="M 32 0 L 32 48 L 33 48 L 33 0 M 32 0 "/>
<path style=" stroke:none;fill-rule:nonzero;fill:rgb(17.647059%,17.647059%,17.647059%);fill-opacity:1;" d="M 28 13.011719 L 22.003906 13.011719 L 22.003906 12.144531 L 24.40625 9.796875 C 25.140625 9.070312 25.621094 8.566406 25.855469 8.257812 C 26.089844 7.945312 26.261719 7.648438 26.378906 7.359375 C 26.496094 7.070312 26.554688 6.753906 26.554688 6.421875 C 26.554688 5.941406 26.410156 5.566406 26.113281 5.300781 C 25.820312 5.019531 25.410156 4.878906 24.882812 4.878906 C 24.507812 4.878906 24.144531 4.9375 23.800781 5.0625 C 23.464844 5.183594 23.085938 5.402344 22.675781 5.722656 L 22.125 5.03125 C 22.964844 4.351562 23.882812 4.011719 24.871094 4.011719 C 25.730469 4.011719 26.402344 4.226562 26.890625 4.65625 C 27.378906 5.085938 27.621094 5.652344 27.621094 6.378906 C 27.621094 6.941406 27.457031 7.492188 27.132812 8.046875 C 26.808594 8.601562 26.199219 9.296875 25.308594 10.136719 L 23.3125 12.035156 L 23.3125 12.085938 L 28.003906 12.085938 L 28.003906 13.023438 "/>
<path style=" stroke:none;fill-rule:nonzero;fill:rgb(17.647059%,17.647059%,17.647059%);fill-opacity:1;" d="M 24.761719 22.453125 C 25.773438 22.453125 26.554688 22.6875 27.132812 23.152344 C 27.707031 23.613281 28 24.246094 28 25.050781 C 28 25.972656 27.683594 26.695312 27.050781 27.214844 C 26.421875 27.738281 25.558594 27.996094 24.453125 27.996094 C 23.382812 27.996094 22.558594 27.835938 21.996094 27.519531 L 21.996094 26.546875 C 22.300781 26.726562 22.679688 26.863281 23.128906 26.976562 C 23.582031 27.078125 24.027344 27.128906 24.464844 27.128906 C 25.230469 27.128906 25.824219 26.960938 26.246094 26.617188 C 26.671875 26.28125 26.886719 25.804688 26.886719 25.160156 C 26.886719 23.929688 26.070312 23.308594 24.441406 23.308594 C 24.027344 23.308594 23.472656 23.367188 22.785156 23.484375 L 22.222656 23.152344 L 22.582031 18.996094 L 27.324219 18.996094 L 27.324219 19.929688 L 23.507812 19.929688 L 23.265625 22.597656 C 23.765625 22.503906 24.265625 22.453125 24.757812 22.453125 "/>
<path style=" stroke:none;fill-rule:nonzero;fill:rgb(17.647059%,17.647059%,17.647059%);fill-opacity:1;" d="M 28 40.941406 L 26.601562 40.941406 L 26.601562 42.996094 L 25.574219 42.996094 L 25.574219 40.941406 L 20.996094 40.941406 L 20.996094 40.054688 L 25.46875 33.992188 L 26.601562 33.992188 L 26.601562 40.015625 L 28 40.015625 L 28 40.941406 M 25.578125 40.015625 L 25.578125 37.035156 C 25.578125 36.449219 25.601562 35.796875 25.644531 35.058594 L 25.59375 35.058594 C 25.386719 35.449219 25.195312 35.773438 25.015625 36.03125 L 22.074219 40.011719 L 25.582031 40.011719 "/>
<path style=" stroke:none;fill-rule:nonzero;fill:rgb(17.647059%,17.647059%,17.647059%);fill-opacity:1;" d="M 16 0 L 16 48 L 17 48 L 17 0 M 16 0 "/>
</g>
</svg>
