<!-- color: #72a2cf --><svg xmlns="http://www.w3.org/2000/svg" viewBox="0 0 48 48"><g><path d="m 12 20 l 1.75 -7 c 0.25 -0.539 0.25 -1 1.25 -1 c 3.492 0 12.938 0 18 0 c 1 0 1 0.52 1.25 1 l 1.75 7 l -12 3 m -12 -3" fill="#f5d653" stroke="none" fill-rule="nonzero" fill-opacity="1"/><path d="m 36 20 l 0 15.11 c 0 0.492 -0.395 0.887 -0.887 0.887 l -22.23 0 c -0.492 0 -0.887 -0.395 -0.887 -0.887 c 0 -4.371 0 9.18 0 -15.11 m 24 0" fill="#f4bc3f" stroke="none" fill-rule="nonzero" fill-opacity="1"/><path d="m 21.5 12 l 5.102 0 l 0.398 13 l -3 -3 l -3 3 m 0.5 -13" fill="#fff4d6" stroke="none" fill-rule="nonzero" fill-opacity="0.8"/><path d="m 21.19 20 l -0.188 5 l 3 -3 l 3 3 l -0.156 -5 m -5.656 0" fill="#000" stroke="none" fill-rule="nonzero" fill-opacity="0.051"/></g></svg>