<!-- color: #63acdd -->
<svg xmlns="http://www.w3.org/2000/svg" xmlns:xlink="http://www.w3.org/1999/xlink" width="48px" height="48px" viewBox="0 0 48 48" version="1.1">
<g id="surface1">
<path style=" stroke:none;fill-rule:nonzero;fill:rgb(81.176471%,56.078431%,57.254902%);fill-opacity:0.941176;" d="M 22.78125 28.160156 L 17.453125 21.753906 L 16.816406 15.199219 L 24.5 13.09375 L 29.566406 14.636719 L 31.351562 18.589844 L 29.960938 21.253906 L 23.769531 28.226562 M 22.78125 28.160156 "/>
<path style=" stroke:none;fill-rule:nonzero;fill:rgb(81.176471%,21.176471%,17.647059%);fill-opacity:1;" d="M 10 37 L 38 37 L 38 34.847656 C 37.265625 31.613281 33.511719 27.894531 28.828125 25.980469 L 25.769531 28.949219 L 24.804688 28.308594 L 22.121094 28.25 L 21.261719 29.238281 L 18.011719 26.015625 C 14.429688 27.59375 10.738281 31.046875 10 34.84375 M 10 37 "/>
<path style=" stroke:none;fill-rule:nonzero;fill:rgb(100%,80.392157%,80.784314%);fill-opacity:1;" d="M 23.410156 11.511719 C 26.519531 11.511719 29.042969 14.132812 29.042969 17.363281 L 29.042969 20.003906 C 29.042969 23.234375 26.519531 25.851562 23.410156 25.851562 C 20.296875 25.851562 17.773438 23.234375 17.773438 20.003906 L 17.773438 17.363281 C 17.773438 14.132812 20.296875 11.511719 23.410156 11.511719 M 23.410156 11.511719 "/>
<path style=" stroke:none;fill-rule:nonzero;fill:rgb(100%,80.392157%,80.784314%);fill-opacity:1;" d="M 27.324219 24.230469 C 27.929688 23.636719 29.480469 22.390625 29.648438 21.570312 L 29.589844 16.863281 L 20.621094 13.53125 L 19.164062 14.765625 L 16.746094 17.914062 L 17.339844 21.464844 L 17.652344 22.375 L 19.480469 24.222656 M 27.324219 24.230469 "/>
<path style=" stroke:none;fill-rule:nonzero;fill:rgb(81.960784%,21.568627%,17.647059%);fill-opacity:1;" d="M 17.699219 22.390625 L 17.699219 18.007812 C 18.144531 16.09375 20 14.15625 20.921875 14.179688 C 22.5 14.378906 23.601562 15.777344 24.546875 17.132812 C 25.734375 18.144531 28.699219 18.203125 29.472656 17.132812 C 29.472656 18.765625 29.472656 20.402344 29.472656 22.039062 C 30.351562 21.695312 31.449219 20.386719 31.636719 19.261719 C 31.414062 5.667969 16.191406 5.921875 15.777344 18.007812 C 15.90625 19.527344 16.816406 21.671875 17.699219 22.390625 M 17.699219 22.390625 "/>
<path style=" stroke:none;fill-rule:nonzero;fill:rgb(70.196078%,83.137255%,81.176471%);fill-opacity:1;" d="M 23.414062 28.269531 L 27.328125 24.210938 L 29.285156 26.242188 L 25.371094 30.300781 M 23.414062 28.269531 "/>
<path style=" stroke:none;fill-rule:nonzero;fill:rgb(70.196078%,83.137255%,81.176471%);fill-opacity:1;" d="M 19.496094 24.21875 L 23.414062 28.273438 L 21.453125 30.304688 L 17.539062 26.246094 M 19.496094 24.21875 "/>
</g>
</svg>
