<!-- color: #5b92d9 -->
<svg xmlns="http://www.w3.org/2000/svg" xmlns:xlink="http://www.w3.org/1999/xlink" width="48px" height="48px" viewBox="0 0 48 48" version="1.1">
<g id="surface1">
<path style=" stroke:none;fill-rule:nonzero;fill:rgb(97.647059%,97.647059%,97.647059%);fill-opacity:1;" d="M 24 9 C 15.707031 9 9 15.707031 9 24 C 9 32.289062 15.707031 38.996094 24 38.996094 C 32.289062 38.996094 38.996094 32.289062 38.996094 24 C 38.996094 15.707031 32.289062 9 24 9 M 24 9 "/>
<path style=" stroke:none;fill-rule:nonzero;fill:rgb(29.019608%,52.54902%,83.921569%);fill-opacity:1;" d="M 20 19 L 20 22 L 28 22 L 28 19 L 31.886719 21.5 L 36 24.003906 L 31.886719 26.503906 L 28 29.003906 L 28 26.003906 L 20 26.003906 L 20 29.003906 L 16.113281 26.503906 L 11.996094 24.003906 L 16.113281 21.5 M 20 19 "/>
</g>
</svg>
