<!-- color: #616161 -->
<svg xmlns="http://www.w3.org/2000/svg" xmlns:xlink="http://www.w3.org/1999/xlink" width="48px" height="48px" viewBox="0 0 48 48" version="1.1">
<g id="surface1">
<path style=" stroke:none;fill-rule:nonzero;fill:rgb(97.647059%,97.647059%,97.647059%);fill-opacity:1;" d="M 20.199219 17.019531 L 11.261719 17.019531 L 11 20.457031 L 11.277344 20.457031 C 11.476562 17.882812 11.699219 17.429688 14.097656 17.429688 C 14.378906 17.429688 14.828125 17.429688 14.953125 17.429688 C 15.246094 17.476562 15.246094 17.660156 15.246094 18.023438 L 15.246094 26.496094 C 15.246094 27.058594 15.199219 27.230469 13.898438 27.230469 L 13.457031 27.230469 L 13.457031 27.605469 C 14.203125 27.589844 14.972656 27.578125 15.730469 27.578125 C 16.492188 27.578125 17.265625 27.589844 18.007812 27.605469 L 18.007812 27.230469 L 17.566406 27.230469 C 16.28125 27.230469 16.234375 27.058594 16.234375 26.496094 L 16.234375 18.023438 C 16.234375 17.679688 16.234375 17.492188 16.515625 17.429688 L 17.363281 17.429688 C 19.730469 17.429688 19.96875 17.878906 20.171875 20.457031 L 20.445312 20.457031 "/>
<path style=" stroke:none;fill-rule:nonzero;fill:rgb(97.647059%,97.647059%,97.647059%);fill-opacity:1;" d="M 27.96875 27.070312 L 27.6875 27.070312 C 27.347656 29.378906 27.148438 30.648438 24.425781 30.648438 L 22.277344 30.648438 C 21.660156 30.648438 21.628906 30.570312 21.628906 30.035156 L 21.628906 25.6875 L 23.089844 25.6875 C 24.546875 25.6875 24.6875 26.222656 24.6875 27.535156 L 24.933594 27.535156 L 24.933594 23.488281 L 24.6875 23.488281 C 24.6875 24.777344 24.546875 25.308594 23.089844 25.308594 L 21.628906 25.308594 L 21.628906 21.453125 C 21.628906 20.925781 21.65625 20.847656 22.277344 20.847656 L 24.390625 20.847656 C 26.789062 20.847656 27.066406 21.804688 27.285156 23.867188 L 27.5625 23.867188 L 27.191406 20.429688 L 19.355469 20.429688 L 19.355469 20.855469 C 20.449219 20.855469 20.625 20.855469 20.625 21.554688 L 20.625 29.953125 C 20.625 30.648438 20.453125 30.648438 19.355469 30.648438 L 19.355469 31.027344 L 27.40625 31.027344 "/>
<path style=" stroke:none;fill-rule:nonzero;fill:rgb(97.647059%,97.647059%,97.647059%);fill-opacity:1;" d="M 32.140625 21.71875 L 34.429688 18.394531 C 34.660156 18.066406 35.125 17.394531 36.398438 17.375 L 36.398438 17 C 36.042969 17.027344 35.453125 17.027344 35.082031 17.027344 C 34.574219 17.027344 33.9375 17.027344 33.550781 17 L 33.550781 17.375 C 34.046875 17.421875 34.167969 17.734375 34.167969 17.984375 C 34.167969 18.171875 34.09375 18.296875 33.984375 18.453125 L 31.941406 21.433594 L 29.652344 18.0625 C 29.542969 17.894531 29.527344 17.84375 29.527344 17.796875 C 29.527344 17.65625 29.695312 17.394531 30.207031 17.378906 L 30.207031 17.003906 C 29.710938 17.03125 28.953125 17.03125 28.441406 17.03125 C 28.042969 17.03125 27.269531 17.03125 26.894531 17.003906 L 26.894531 17.378906 C 27.746094 17.378906 28.019531 17.410156 28.363281 17.894531 L 31.351562 22.300781 L 28.660156 26.257812 C 27.992188 27.222656 26.988281 27.242188 26.691406 27.242188 L 26.691406 27.617188 C 27.046875 27.589844 27.632812 27.589844 28.007812 27.589844 C 28.425781 27.589844 29.152344 27.589844 29.539062 27.617188 L 29.539062 27.242188 C 29.058594 27.195312 28.921875 26.882812 28.921875 26.632812 C 28.921875 26.429688 28.996094 26.320312 29.074219 26.210938 L 31.550781 22.578125 L 34.242188 26.558594 C 34.363281 26.730469 34.363281 26.777344 34.363281 26.824219 C 34.363281 26.945312 34.226562 27.210938 33.683594 27.246094 L 33.683594 27.621094 C 34.179688 27.589844 34.9375 27.589844 35.449219 27.589844 C 35.847656 27.589844 36.621094 27.589844 37 27.621094 L 37 27.246094 C 36.007812 27.246094 35.851562 27.171875 35.542969 26.730469 "/>
</g>
</svg>
