<!-- color: #fff772 -->
<svg xmlns="http://www.w3.org/2000/svg" xmlns:xlink="http://www.w3.org/1999/xlink" width="48px" height="48px" viewBox="0 0 48 48" version="1.1">
<defs>
<linearGradient id="linear0" gradientUnits="userSpaceOnUse" x1="0" y1="279.1" x2="0" y2="268.33" gradientTransform="matrix(6.776435,0,0,20.145321,-840.811444,-5436.430732)">
<stop offset="0" style="stop-color:rgb(30.588235%,12.941176%,3.921569%);stop-opacity:1;"/>
<stop offset="1" style="stop-color:rgb(52.156863%,21.960784%,6.666667%);stop-opacity:1;"/>
</linearGradient>
</defs>
<g id="surface1">
<path style=" stroke:none;fill-rule:evenodd;fill:rgb(23.921569%,58.431373%,75.686275%);fill-opacity:0.533333;" d="M 0 44 L 48 44 L 48 43 L 0 43 M 0 44 "/>
<path style=" stroke:none;fill-rule:evenodd;fill:rgb(23.921569%,58.431373%,75.686275%);fill-opacity:0.533333;" d="M 0 39.011719 L 48 39.011719 L 48 38.011719 L 0 38.011719 M 0 39.011719 "/>
<path style=" stroke:none;fill-rule:evenodd;fill:rgb(23.921569%,58.431373%,75.686275%);fill-opacity:0.533333;" d="M 0 34 L 48 34 L 48 33.003906 L 0 33.003906 M 0 34 "/>
<path style=" stroke:none;fill-rule:evenodd;fill:rgb(23.921569%,58.431373%,75.686275%);fill-opacity:0.533333;" d="M 0 29 L 48 29 L 48 28 L 0 28 M 0 29 "/>
<path style=" stroke:none;fill-rule:evenodd;fill:rgb(23.921569%,58.431373%,75.686275%);fill-opacity:0.533333;" d="M 0 24 L 48 24 L 48 23 L 0 23 M 0 24 "/>
<path style=" stroke:none;fill-rule:evenodd;fill:url(#linear0);" d="M 48 0 L 0 0 L 0 11 L 48 11 M 48 0 "/>
<path style=" stroke:none;fill-rule:evenodd;fill:rgb(23.921569%,58.431373%,75.686275%);fill-opacity:0.533333;" d="M 0 19 L 48 19 L 48 18 L 0 18 M 0 19 "/>
<path style=" stroke:none;fill-rule:evenodd;fill:rgb(83.921569%,28.627451%,21.176471%);fill-opacity:0.533333;" d="M 15 11 L 15 47.996094 L 15.996094 47.996094 L 15.996094 11 M 15 11 "/>
</g>
</svg>
