<!-- color: #f3ce2d -->
<svg xmlns="http://www.w3.org/2000/svg" xmlns:xlink="http://www.w3.org/1999/xlink" width="48px" height="48px" viewBox="0 0 48 48" version="1.1">
<g id="surface1">
<path style=" stroke:none;fill-rule:nonzero;fill:rgb(85.882353%,24.313725%,18.431373%);fill-opacity:1;" d="M 11 12 L 21.527344 38 L 26.46875 38 C 25.515625 36.621094 26.167969 35.195312 27.433594 34.34375 C 26.726562 33.910156 26.28125 33.308594 26.28125 32.625 C 26.28125 31.820312 26.898438 31.09375 27.839844 30.65625 C 27.644531 30.183594 27.617188 29.722656 27.804688 29.28125 C 28.144531 28.492188 29.074219 28.011719 30.207031 27.96875 C 29.65625 26.796875 30.355469 25.929688 31.207031 26.308594 L 36.996094 11.992188 L 32.492188 11.992188 C 29.042969 20.847656 26.820312 26.601562 25.824219 29.242188 C 24.84375 31.867188 24.25 33.589844 24.0625 34.429688 L 23.859375 34.429688 C 23.625 33.351562 22.84375 31.003906 21.488281 27.398438 L 15.5 11.992188 M 11 11.996094 "/>
</g>
</svg>
