<!-- color: #eeeeee -->
<svg xmlns="http://www.w3.org/2000/svg" xmlns:xlink="http://www.w3.org/1999/xlink" width="48px" height="48px" viewBox="0 0 48 48" version="1.1">
<g id="surface1">
<path style=" stroke:none;fill-rule:nonzero;fill:rgb(95.294118%,43.529412%,12.941176%);fill-opacity:1;" d="M 22.761719 13.199219 C 22.761719 14.414062 21.785156 15.398438 20.578125 15.398438 C 19.375 15.398438 18.398438 14.414062 18.398438 13.199219 C 18.398438 11.984375 19.371094 11 20.578125 11 C 21.785156 11 22.761719 11.984375 22.761719 13.199219 M 22.761719 13.199219 "/>
<path style=" stroke:none;fill-rule:nonzero;fill:rgb(95.294118%,43.529412%,12.941176%);fill-opacity:1;" d="M 26.371094 19.308594 C 26.371094 20.320312 25.558594 21.140625 24.554688 21.140625 C 23.554688 21.140625 22.734375 20.320312 22.734375 19.308594 C 22.734375 18.296875 23.546875 17.476562 24.554688 17.476562 C 25.554688 17.476562 26.371094 18.296875 26.371094 19.308594 M 26.371094 19.308594 "/>
<path style=" stroke:none;fill-rule:nonzero;fill:rgb(95.294118%,43.529412%,12.941176%);fill-opacity:1;" d="M 36 20.867188 C 36 22.894531 34.375 24.535156 32.363281 24.535156 C 30.351562 24.535156 28.726562 22.894531 28.726562 20.867188 C 28.726562 18.84375 30.351562 17.203125 32.363281 17.203125 C 34.371094 17.203125 36 18.84375 36 20.867188 M 36 20.867188 "/>
<path style=" stroke:none;fill-rule:nonzero;fill:rgb(95.294118%,43.529412%,12.941176%);fill-opacity:1;" d="M 25.089844 26.734375 C 25.089844 30.378906 22.164062 33.335938 18.542969 33.335938 C 14.929688 33.335938 11.996094 30.378906 11.996094 26.734375 C 11.996094 23.089844 14.921875 20.136719 18.542969 20.136719 C 22.160156 20.136719 25.089844 23.089844 25.089844 26.734375 M 25.089844 26.734375 "/>
<path style=" stroke:none;fill-rule:nonzero;fill:rgb(95.294118%,43.529412%,12.941176%);fill-opacity:1;" d="M 25.816406 35.535156 C 25.816406 36.34375 25.167969 37 24.363281 37 C 23.558594 37 22.910156 36.34375 22.910156 35.535156 C 22.910156 34.722656 23.558594 34.066406 24.363281 34.066406 C 25.167969 34.066406 25.816406 34.722656 25.816406 35.535156 M 25.816406 35.535156 "/>
<path style=" stroke:none;fill-rule:nonzero;fill:rgb(95.294118%,43.529412%,12.941176%);fill-opacity:1;" d="M 19.703125 14.234375 L 18.679688 21.542969 L 19.40625 21.636719 L 20.429688 14.328125 M 19.703125 14.234375 "/>
<path style=" stroke:none;fill-rule:nonzero;fill:rgb(95.294118%,43.529412%,12.941176%);fill-opacity:1;" d="M 23.417969 19.835938 L 22.371094 22.675781 L 23.09375 22.921875 L 24.140625 20.078125 M 23.417969 19.835938 "/>
<path style=" stroke:none;fill-rule:nonzero;fill:rgb(95.294118%,43.529412%,12.941176%);fill-opacity:1;" d="M 29.941406 21.621094 L 23.578125 26.898438 L 24.0625 27.46875 L 30.425781 22.191406 M 29.941406 21.621094 "/>
<path style=" stroke:none;fill-rule:nonzero;fill:rgb(95.294118%,43.529412%,12.941176%);fill-opacity:1;" d="M 22.933594 29.25 L 22.289062 29.414062 L 23.578125 34.527344 L 24.222656 34.363281 M 22.933594 29.25 "/>
</g>
</svg>
