<!-- color: #0a99d6 -->
<svg xmlns="http://www.w3.org/2000/svg" xmlns:xlink="http://www.w3.org/1999/xlink" width="48px" height="48px" viewBox="0 0 48 48" version="1.1">
<g id="surface1">
<path style=" stroke:none;fill-rule:nonzero;fill:rgb(97.647059%,97.647059%,97.647059%);fill-opacity:1;" d="M 17.976562 14.207031 C 11.28125 17.6875 9.9375 26.738281 15.347656 31.894531 C 18.457031 34.859375 22.632812 35.738281 26.980469 34.328125 C 31.140625 32.976562 34 28.78125 34 24.472656 C 34 22.824219 34.1875 22.339844 35.648438 21.882812 C 37.003906 21.464844 38.003906 19.988281 38.003906 18.980469 C 35.484375 19.089844 31.003906 16.984375 29.003906 14.480469 L 29.003906 19.480469 C 29.003906 24.828125 28.089844 26.011719 25.972656 27.511719 C 24.265625 28.71875 21.160156 28.929688 19.625 27.949219 C 17.285156 26.453125 17.304688 23.59375 19.683594 21.171875 C 21.9375 19.382812 23.578125 19.269531 25.996094 19.433594 L 25.996094 13.394531 C 23.394531 12.625 20.316406 13.03125 17.976562 14.207031 M 17.980469 14.207031 "/>
</g>
</svg>
