<!-- color: #eeeeee -->
<svg xmlns="http://www.w3.org/2000/svg" xmlns:xlink="http://www.w3.org/1999/xlink" width="48px" height="48px" viewBox="0 0 48 48" version="1.1">
<g id="surface1">
<path style=" stroke:none;fill-rule:evenodd;fill:rgb(49.803922%,80%,15.686275%);fill-opacity:1;" d="M 24 0 L 24 24 L 48 24 L 48 0 M 24 0 "/>
<path style=" stroke:none;fill-rule:evenodd;fill:rgb(98.431373%,72.941176%,3.529412%);fill-opacity:1;" d="M 24 24 L 24 48 L 48 48 L 48 24 M 24 24 "/>
<path style=" stroke:none;fill-rule:evenodd;fill:rgb(0%,67.058824%,92.941176%);fill-opacity:1;" d="M 0 24 L 0 48 L 24 48 L 24 24 M 0 24 "/>
<path style=" stroke:none;fill-rule:evenodd;fill:rgb(94.509804%,31.764706%,9.803922%);fill-opacity:1;" d="M 0 0 L 0 24 L 24 24 L 24 0 M 0 0 "/>
<path style=" stroke:none;fill-rule:nonzero;fill:rgb(55.686275%,1.176471%,9.019608%);fill-opacity:1;" d="M 32.394531 12.011719 C 31.433594 12.03125 30.484375 12.660156 30.332031 13.855469 C 30.089844 15.757812 31.910156 15.042969 33.363281 15.042969 C 34.816406 15.042969 35.304688 18.132812 34.9375 19.796875 C 34.574219 21.460938 30.710938 25.386719 21.96875 21.460938 C 14.773438 18.226562 11.179688 22.53125 10.992188 22.617188 C 11.679688 29.042969 17.226562 36.007812 23.96875 36.007812 C 31.15625 36.007812 36.996094 28.328125 36.996094 21.277344 C 36.996094 20.46875 36.902344 19.667969 36.753906 18.902344 C 36.621094 18.511719 36.488281 18.125 36.390625 17.773438 C 36.214844 17.140625 36.015625 16.605469 35.84375 16.109375 C 35.835938 16.09375 35.851562 16.066406 35.84375 16.050781 C 35.15625 14.550781 34.191406 13.199219 32.996094 12.070312 C 32.992188 12.058594 32.96875 12.078125 32.964844 12.070312 C 32.777344 12.023438 32.582031 12.007812 32.390625 12.007812 M 32.390625 12.011719 "/>
<path style=" stroke:none;fill-rule:nonzero;fill:rgb(55.686275%,1.176471%,9.019608%);fill-opacity:1;" d="M 30.394531 16.527344 C 30.394531 16.921875 30.066406 17.242188 29.667969 17.242188 C 29.265625 17.242188 28.9375 16.921875 28.9375 16.527344 C 28.9375 16.136719 29.265625 15.816406 29.667969 15.816406 C 30.066406 15.816406 30.394531 16.136719 30.394531 16.527344 M 30.394531 16.527344 "/>
<path style=" stroke:none;fill-rule:nonzero;fill:rgb(55.686275%,1.176471%,9.019608%);fill-opacity:1;" d="M 28.9375 13.945312 C 28.9375 14.222656 28.707031 14.449219 28.421875 14.449219 C 28.136719 14.449219 27.90625 14.222656 27.90625 13.945312 C 27.90625 13.664062 28.136719 13.4375 28.421875 13.4375 C 28.707031 13.4375 28.9375 13.664062 28.9375 13.945312 M 28.9375 13.945312 "/>
</g>
</svg>
