<!-- color: #eeeeee -->
<svg xmlns="http://www.w3.org/2000/svg" xmlns:xlink="http://www.w3.org/1999/xlink" width="48px" height="48px" viewBox="0 0 48 48" version="1.1">
<g id="surface1">
<path style=" stroke:none;fill-rule:evenodd;fill:rgb(49.803922%,80%,15.686275%);fill-opacity:1;" d="M 24 0 L 24 24 L 47.996094 24 L 47.996094 0 M 24 0 "/>
<path style=" stroke:none;fill-rule:evenodd;fill:rgb(98.431373%,72.941176%,3.529412%);fill-opacity:1;" d="M 24 24 L 24 47.996094 L 47.996094 47.996094 L 47.996094 24 M 24 24 "/>
<path style=" stroke:none;fill-rule:evenodd;fill:rgb(0%,67.058824%,92.941176%);fill-opacity:1;" d="M 0 24 L 0 47.996094 L 24 47.996094 L 24 24 M 0 24 "/>
<path style=" stroke:none;fill-rule:evenodd;fill:rgb(94.509804%,31.764706%,9.803922%);fill-opacity:1;" d="M 0 0 L 0 24 L 24 24 L 24 0 M 0 0 "/>
<path style=" stroke:none;fill-rule:nonzero;fill:rgb(55.686275%,1.176471%,9.019608%);fill-opacity:1;" d="M 32.394531 12 C 31.433594 12.015625 30.484375 12.65625 30.332031 13.84375 C 30.089844 15.746094 31.910156 15.03125 33.363281 15.03125 C 34.816406 15.03125 35.304688 18.121094 34.9375 19.785156 C 34.574219 21.445312 30.710938 25.375 21.96875 21.445312 C 14.773438 18.210938 11.179688 22.519531 10.992188 22.605469 C 11.679688 29.03125 17.226562 35.996094 23.96875 35.996094 C 31.15625 35.996094 36.996094 28.316406 36.996094 21.265625 C 36.996094 20.457031 36.902344 19.65625 36.753906 18.890625 C 36.621094 18.5 36.488281 18.113281 36.390625 17.761719 C 36.214844 17.128906 36.015625 16.59375 35.84375 16.097656 C 35.835938 16.082031 35.851562 16.054688 35.84375 16.035156 C 35.15625 14.535156 34.191406 13.183594 32.996094 12.054688 C 32.992188 12.046875 32.96875 12.066406 32.964844 12.054688 C 32.777344 12.011719 32.582031 11.992188 32.390625 11.996094 M 32.390625 12 "/>
<path style=" stroke:none;fill-rule:nonzero;fill:rgb(55.686275%,1.176471%,9.019608%);fill-opacity:1;" d="M 30.394531 16.515625 C 30.394531 16.910156 30.066406 17.230469 29.667969 17.230469 C 29.265625 17.230469 28.9375 16.910156 28.9375 16.515625 C 28.9375 16.121094 29.265625 15.804688 29.667969 15.804688 C 30.066406 15.804688 30.394531 16.121094 30.394531 16.515625 M 30.394531 16.515625 "/>
<path style=" stroke:none;fill-rule:nonzero;fill:rgb(55.686275%,1.176471%,9.019608%);fill-opacity:1;" d="M 28.9375 13.933594 C 28.9375 14.210938 28.707031 14.4375 28.421875 14.4375 C 28.136719 14.4375 27.90625 14.210938 27.90625 13.933594 C 27.90625 13.652344 28.136719 13.425781 28.421875 13.425781 C 28.707031 13.425781 28.9375 13.652344 28.9375 13.933594 M 28.9375 13.933594 "/>
<path style=" stroke:none;fill-rule:nonzero;fill:rgb(97.647059%,97.647059%,97.647059%);fill-opacity:1;" d="M 23.25 20 L 23.25 36 L 24.75 36 L 24.75 20 M 23.25 20 "/>
<path style=" stroke:none;fill-rule:nonzero;fill:rgb(97.647059%,97.647059%,97.647059%);fill-opacity:1;" d="M 26.5 32.5 C 26.5 33.328125 25.382812 34 24 34 C 22.617188 34 21.5 33.328125 21.5 32.5 C 21.5 31.671875 22.617188 31 24 31 C 25.382812 31 26.5 31.671875 26.5 32.5 M 26.5 32.5 "/>
<path style=" stroke:none;fill-rule:nonzero;fill:rgb(97.647059%,97.647059%,97.647059%);fill-opacity:1;" d="M 19.25 35 L 19.25 21 L 17.75 21 L 17.75 35 M 19.25 35 "/>
<path style=" stroke:none;fill-rule:nonzero;fill:rgb(97.647059%,97.647059%,97.647059%);fill-opacity:1;" d="M 21 25.5 C 21 26.328125 19.882812 27 18.5 27 C 17.117188 27 16 26.328125 16 25.5 C 16 24.671875 17.117188 24 18.5 24 C 19.882812 24 21 24.671875 21 25.5 M 21 25.5 "/>
<path style=" stroke:none;fill-rule:nonzero;fill:rgb(97.647059%,97.647059%,97.647059%);fill-opacity:1;" d="M 30.25 35 L 30.25 21 L 28.75 21 L 28.75 35 M 30.25 35 "/>
<path style=" stroke:none;fill-rule:nonzero;fill:rgb(97.647059%,97.647059%,97.647059%);fill-opacity:1;" d="M 32 25.5 C 32 26.328125 30.882812 27 29.5 27 C 28.117188 27 27 26.328125 27 25.5 C 27 24.671875 28.117188 24 29.5 24 C 30.882812 24 32 24.671875 32 25.5 M 32 25.5 "/>
</g>
</svg>
