<!-- color: #2b94cb -->
<svg xmlns="http://www.w3.org/2000/svg" xmlns:xlink="http://www.w3.org/1999/xlink" width="48px" height="48px" viewBox="0 0 48 48" version="1.1">
<g id="surface1">
<path style=" stroke:none;fill-rule:nonzero;fill:rgb(9.803922%,32.54902%,43.529412%);fill-opacity:1;" d="M 33.65625 11.96875 C 24.339844 12.109375 19.125 17.421875 16.375 22.59375 C 13.859375 27.328125 13.480469 31.242188 13.40625 32 L 0 32 L 0 34 L 14.1875 34 C 14.472656 34 14.75 33.871094 14.9375 33.65625 C 15.042969 33.53125 15.121094 33.378906 15.15625 33.21875 C 15.160156 33.175781 15.160156 33.132812 15.15625 33.09375 C 15.15625 33.09375 15.625 28.355469 18.15625 23.59375 C 20.519531 19.152344 24.71875 14.859375 32.21875 14.1875 C 27.757812 23.117188 32.441406 33.4375 32.441406 33.4375 C 32.476562 33.480469 32.519531 33.523438 32.566406 33.5625 C 32.738281 33.816406 33.035156 33.984375 33.34375 34 L 48.003906 34 L 48.003906 32 L 34.09375 32 C 33.710938 31.144531 29.398438 21.28125 34.566406 13.5 C 34.699219 13.265625 34.734375 12.976562 34.660156 12.71875 C 34.625 12.558594 34.546875 12.40625 34.441406 12.28125 C 34.242188 12.070312 33.949219 11.953125 33.660156 11.96875 M 33.660156 11.96875 "/>
</g>
</svg>
