<!-- color: #4e4e4e -->
<svg xmlns="http://www.w3.org/2000/svg" xmlns:xlink="http://www.w3.org/1999/xlink" width="48px" height="48px" viewBox="0 0 48 48" version="1.1">
<g id="surface1">
<path style=" stroke:none;fill-rule:nonzero;fill:rgb(98.039216%,69.803922%,40.784314%);fill-opacity:1;" d="M 27.65625 16.160156 C 23.054688 17.386719 19.515625 21.5 15.4375 24.347656 C 17.175781 23.636719 19.359375 22.519531 20.25 22.441406 L 17.375 25.628906 L 19.59375 24.660156 C 18.601562 27.609375 17.425781 30.363281 14.5625 31.441406 L 16.0625 33.753906 C 16.0625 33.753906 23.609375 38.503906 23.8125 38.503906 C 24.015625 38.503906 26.128906 36.628906 26.128906 36.628906 L 33.878906 30.941406 C 30.019531 31.046875 26.589844 30.59375 26.222656 26.160156 C 26.128906 25.628906 26.265625 21.941406 31.566406 20.253906 C 31.03125 19.886719 29.238281 20.132812 27.972656 20.128906 C 27.917969 19.628906 28.226562 17.464844 32.316406 17.222656 C 31.289062 16.167969 29.996094 16.085938 28.160156 16.660156 C 27.964844 16.472656 27.851562 16.492188 27.660156 16.160156 M 26.597656 17.753906 C 26.859375 17.867188 26.894531 18.039062 26.941406 18.222656 C 26.484375 18.316406 25.839844 18.535156 25.660156 18.285156 C 25.578125 18.199219 26.136719 17.882812 26.601562 17.761719 M 26.601562 17.761719 "/>
<path style=" stroke:none;fill-rule:nonzero;fill:rgb(46.666667%,60%,72.54902%);fill-opacity:1;" d="M 17.6875 10.40625 C 12.558594 12.785156 9 17.972656 9 24 C 9 32.28125 15.714844 38.996094 24 38.996094 C 32.28125 38.996094 38.996094 32.28125 38.996094 24 C 38.996094 18.046875 35.523438 12.910156 30.496094 10.5 L 30.339844 10.65625 C 34.308594 12.882812 37 17.121094 37 21.996094 C 37 28.542969 32.167969 33.933594 25.875 34.839844 L 24 38 L 22.125 34.839844 C 15.832031 33.933594 11 28.542969 11 21.996094 C 11 17.070312 13.746094 12.796875 17.78125 10.589844 C 17.753906 10.53125 17.714844 10.464844 17.6875 10.402344 M 17.6875 10.40625 "/>
</g>
</svg>
