<!-- color: #6c99ca -->
<svg xmlns="http://www.w3.org/2000/svg" xmlns:xlink="http://www.w3.org/1999/xlink" width="48px" height="48px" viewBox="0 0 48 48" version="1.1">
<g id="surface1">
<path style=" stroke:none;fill-rule:nonzero;fill:rgb(80%,80%,80%);fill-opacity:1;" d="M 17 22 L 31 22 C 31.539062 22 32 22.453125 32 23 L 32 31 C 32 31.546875 31.539062 32 31 32 L 17 32 C 16.460938 32 16 31.546875 16 31 L 16 23 C 16 22.453125 16.460938 22 17 22 M 17 22 "/>
<path style=" stroke:none;fill-rule:nonzero;fill:rgb(80%,80%,80%);fill-opacity:1;" d="M 18.5 17.597656 L 15.996094 20.996094 L 22.996094 20.996094 L 22.996094 15.996094 L 19.996094 15.996094 C 19.496094 15.996094 18.496094 17.597656 18.496094 17.597656 M 24.992188 15.996094 L 24.992188 20.996094 L 31.992188 20.996094 L 29.488281 17.597656 C 29.488281 17.597656 28.492188 15.996094 27.992188 15.996094 M 24.992188 15.996094 "/>
<path style=" stroke:none;fill-rule:nonzero;fill:rgb(97.647059%,97.647059%,97.647059%);fill-opacity:1;" d="M 37 11 L 37 12 C 36.03125 12.078125 35.195312 12.164062 34.480469 12.769531 C 33.792969 13.34375 32.878906 14.496094 31.730469 16.226562 L 26 25.003906 L 26 35.003906 C 26.457031 35.425781 28.292969 35.976562 30 36.003906 L 30 37 L 18 37 L 18 36.003906 C 19.726562 35.921875 21.589844 35.421875 22 35.003906 L 22 25.003906 L 17.222656 17.914062 C 15.238281 15.085938 13.929688 13.359375 13.289062 12.730469 C 12.652344 12.101562 12 12 10.996094 12 L 10.996094 11 L 21.996094 11 L 21.996094 12 C 21.714844 12.023438 21.398438 12.039062 21.042969 12.039062 C 19.871094 12.117188 18.976562 12.230469 18.976562 12.882812 C 18.976562 13.457031 19.191406 14.039062 19.625 14.613281 L 25 23 L 30.738281 14.496094 C 31.121094 13.894531 31.3125 13.34375 31.3125 13.003906 C 31.3125 12.507812 30.929688 12.1875 30.523438 12.003906 L 29 12.003906 L 29 11.003906 L 37 11.003906 "/>
</g>
</svg>
