<!-- color: #e33a31 -->
<svg xmlns="http://www.w3.org/2000/svg" xmlns:xlink="http://www.w3.org/1999/xlink" width="48px" height="48px" viewBox="0 0 48 48" version="1.1">
<g id="surface1">
<path style=" stroke:none;fill-rule:nonzero;fill:rgb(97.647059%,97.647059%,97.647059%);fill-opacity:1;" d="M 24.160156 15 C 21.121094 15 16.660156 15.175781 15.316406 15.21875 C 13.855469 15.347656 13.304688 15.421875 12.503906 16.09375 C 11.285156 17.160156 11.003906 19.265625 11.003906 22.46875 L 11.003906 25.53125 C 11.003906 29.191406 11.503906 31.039062 12.316406 31.71875 C 13.253906 32.511719 13.878906 32.5625 14.503906 32.65625 C 14.746094 32.691406 16.453125 33.011719 24.066406 33.011719 C 28.8125 33.011719 32.894531 32.78125 33.316406 32.730469 C 33.996094 32.644531 34.957031 32.535156 35.691406 31.730469 C 36.78125 30.511719 37.003906 28.472656 37.003906 25.539062 L 37.003906 22.011719 C 37.003906 20.113281 36.890625 17.414062 35.691406 16.289062 C 34.785156 15.535156 34.445312 15.320312 32.566406 15.226562 C 32.035156 15.203125 27.398438 15.007812 24.160156 15.007812 M 21.003906 18.007812 L 27.003906 18.007812 L 27.003906 25.007812 L 29.472656 25.007812 L 24.003906 30.632812 L 18.535156 25.007812 L 21.003906 25.007812 M 21.003906 18.007812 "/>
</g>
</svg>
