<!-- color: #e33a31 -->
<svg xmlns="http://www.w3.org/2000/svg" xmlns:xlink="http://www.w3.org/1999/xlink" width="48px" height="48px" viewBox="0 0 48 48" version="1.1">
<g id="surface1">
<path style=" stroke:none;fill-rule:nonzero;fill:rgb(97.647059%,97.647059%,97.647059%);fill-opacity:1;" d="M 24.160156 15 C 21.121094 15 16.660156 15.175781 15.316406 15.21875 C 13.855469 15.347656 13.304688 15.421875 12.503906 16.09375 C 11.285156 17.160156 11.003906 19.265625 11.003906 22.46875 L 11.003906 25.53125 C 11.003906 29.191406 11.503906 31.039062 12.316406 31.71875 C 13.253906 32.511719 13.878906 32.5625 14.503906 32.65625 C 14.746094 32.691406 16.453125 33.011719 24.066406 33.011719 C 28.8125 33.011719 32.894531 32.78125 33.316406 32.730469 C 33.996094 32.644531 34.957031 32.535156 35.691406 31.730469 C 36.78125 30.511719 37.003906 28.472656 37.003906 25.539062 L 37.003906 22.011719 C 37.003906 20.113281 36.890625 17.414062 35.691406 16.289062 C 34.785156 15.535156 34.445312 15.320312 32.566406 15.226562 C 32.035156 15.203125 27.398438 15.007812 24.160156 15.007812 M 27.628906 17.007812 C 29.316406 16.941406 30.878906 18.144531 32.316406 18.15625 C 32.316406 18.15625 31.164062 19.90625 29.410156 19.90625 C 27.777344 19.59375 27.058594 19.953125 27.011719 20.007812 L 27.011719 27.007812 C 26.9375 28.488281 25.800781 29.945312 23.980469 30.632812 C 21.671875 31.496094 19.214844 30.746094 18.511719 28.941406 C 17.804688 27.132812 19.109375 24.941406 21.414062 24.066406 C 23.203125 23.390625 24.929688 23.59375 26.011719 24.601562 L 26.011719 17.558594 C 26.59375 17.171875 27.074219 17.015625 27.636719 16.996094 M 27.632812 17 "/>
</g>
</svg>
