<?xml version="1.0" encoding="UTF-8" standalone="no"?>
<!-- Created with Inkscape (http://www.inkscape.org/) -->

<svg
   xmlns:dc="http://purl.org/dc/elements/1.1/"
   xmlns:cc="http://creativecommons.org/ns#"
   xmlns:rdf="http://www.w3.org/1999/02/22-rdf-syntax-ns#"
   xmlns:svg="http://www.w3.org/2000/svg"
   xmlns="http://www.w3.org/2000/svg"
   xmlns:xlink="http://www.w3.org/1999/xlink"
   xmlns:sodipodi="http://sodipodi.sourceforge.net/DTD/sodipodi-0.dtd"
   xmlns:inkscape="http://www.inkscape.org/namespaces/inkscape"
   sodipodi:docname="gnome-mime-application-x-7zip.svg"
   inkscape:version="0.48.4 r9939"
   version="1.1"
   id="svg2"
   height="96"
   width="96">
  <sodipodi:namedview
     id="base"
     pagecolor="#ffffff"
     bordercolor="#000000"
     borderopacity="1"
     inkscape:pageopacity="0"
     inkscape:pageshadow="2"
     inkscape:zoom="5.90625"
     inkscape:cx="37.296491"
     inkscape:cy="41.610593"
     inkscape:document-units="px"
     inkscape:current-layer="layer1"
     showgrid="true"
     inkscape:snap-page="true"
     inkscape:snap-bbox="true"
     inkscape:window-width="1301"
     inkscape:window-height="744"
     inkscape:window-x="65"
     inkscape:window-y="24"
     inkscape:window-maximized="1"
     showguides="true"
     inkscape:guide-bbox="true">
    <inkscape:grid
       snapvisiblegridlinesonly="true"
       enabled="true"
       visible="true"
       empspacing="6"
       id="grid2985"
       type="xygrid" />
    <sodipodi:guide
       id="guide3779"
       position="90,60"
       orientation="0,1" />
    <sodipodi:guide
       id="guide3781"
       position="54,24"
       orientation="0,1" />
    <sodipodi:guide
       id="guide3783"
       position="78,54"
       orientation="1,0" />
    <sodipodi:guide
       id="guide3785"
       position="42,54"
       orientation="1,0" />
  </sodipodi:namedview>
  <defs
     id="defs4">
    <linearGradient
       id="linearGradient4013"
       inkscape:collect="always">
      <stop
         id="stop4015"
         offset="0"
         style="stop-color:#000000;stop-opacity:1;" />
      <stop
         id="stop4017"
         offset="1"
         style="stop-color:#000000;stop-opacity:0;" />
    </linearGradient>
    <linearGradient
       id="linearGradient4005"
       inkscape:collect="always">
      <stop
         id="stop4007"
         offset="0"
         style="stop-color:#000000;stop-opacity:1;" />
      <stop
         id="stop4009"
         offset="1"
         style="stop-color:#000000;stop-opacity:0;" />
    </linearGradient>
    <linearGradient
       gradientUnits="userSpaceOnUse"
       y2="48"
       x2="30"
       y1="-1.4210855e-14"
       x1="30"
       id="linearGradient4011"
       xlink:href="#linearGradient4005"
       inkscape:collect="always" />
    <linearGradient
       gradientUnits="userSpaceOnUse"
       y2="956.36218"
       x2="54"
       y1="956.36218"
       x1="12"
       id="linearGradient4019"
       xlink:href="#linearGradient4013"
       inkscape:collect="always" />
  </defs>
  <metadata
     id="metadata7">
    <rdf:RDF>
      <cc:Work
         rdf:about="">
        <dc:format>image/svg+xml</dc:format>
        <dc:type
           rdf:resource="http://purl.org/dc/dcmitype/StillImage" />
        <dc:title />
      </cc:Work>
    </rdf:RDF>
  </metadata>
  <g
     transform="translate(0,-956.36218)"
     id="layer1"
     inkscape:groupmode="layer"
     inkscape:label="Layer 1">
    <path
       style="fill:#949ace;fill-opacity:1;stroke:none"
       d="m 18,956.36218 c -3.324,0 -6,2.676 -6,6 l 0,66.00002 12,12 12,12 42,0 c 3.324,0 6,-2.676 6,-6 l 0,-84.00002 c 0,-3.324 -2.676,-6 -6,-6 l -60,0 z"
       id="rect3856"
       inkscape:connector-curvature="0" />
    <path
       id="path3887"
       transform="translate(0,956.36218)"
       d="M 34.25 73.75 C 35.3345 74.8345 36 76.338 36 78 L 36 96 L 56.5 96 L 34.25 73.75 z "
       style="opacity:0.5;fill:#000000;fill-opacity:1;stroke:none" />
    <path
       style="opacity:0.5;fill:#ffffff;fill-opacity:1;stroke:none"
       d="m 12,1028.3622 12,12 12,12 0,-18 c 0,-3.324 -2.676,-6 -6,-6 l -18,0 z"
       id="path3859"
       inkscape:connector-curvature="0" />
    <path
       inkscape:connector-curvature="0"
       id="path3944"
       d="m 12,962.36218 0,36 21,-21 21,-21 -36,0 c -3.324,0 -6,2.676 -6,6 z"
       style="fill:url(#linearGradient4019);fill-opacity:1;stroke:none;opacity:0.1" />
    <path
       transform="translate(0,956.36218)"
       sodipodi:nodetypes="sccccs"
       inkscape:connector-curvature="0"
       id="path3939"
       d="M 12,6 12,48 60,48 33,21 13.75,1.75 C 12.6655,2.8345 12,4.338 12,6 z"
       style="opacity:0.1;fill:url(#linearGradient4011);fill-opacity:1;stroke:none" />
    <rect
       style="opacity:1;fill:#f0f1f8;fill-opacity:1;stroke:none"
       id="rect3002"
       width="36"
       height="24"
       x="42"
       y="48"
       transform="translate(0,956.36218)" />
    <path
       style="fill:#c7cae5;fill-opacity:1;stroke:none"
       d="M 48 36 L 46 40 L 74 40 L 72 36 L 48 36 z M 45 42 L 42 48 L 78 48 L 75 42 L 45 42 z "
       transform="translate(0,956.36218)"
       id="rect3004" />
    <rect
       style="fill:#3d3d3d;fill-opacity:1;stroke:none"
       id="rect3778"
       width="3"
       height="2"
       x="57"
       y="48"
       transform="translate(0,956.36218)" />
    <rect
       style="fill:#3d3d3d;fill-opacity:1;stroke:none"
       id="rect3780"
       width="3"
       height="2"
       x="60"
       y="1006.3622" />
    <rect
       y="1008.3622"
       x="57"
       height="2"
       width="3"
       id="rect3782"
       style="fill:#3d3d3d;fill-opacity:1;stroke:none" />
    <rect
       y="1010.3622"
       x="60"
       height="2"
       width="3"
       id="rect3784"
       style="fill:#3d3d3d;fill-opacity:1;stroke:none" />
    <rect
       style="fill:#3d3d3d;fill-opacity:1;stroke:none"
       id="rect3786"
       width="3"
       height="2"
       x="57"
       y="1012.3622" />
    <rect
       style="fill:#3d3d3d;fill-opacity:1;stroke:none"
       id="rect3788"
       width="3"
       height="2"
       x="60"
       y="1014.3622" />
    <rect
       y="1016.3622"
       x="57"
       height="2"
       width="3"
       id="rect3790"
       style="fill:#3d3d3d;fill-opacity:1;stroke:none" />
    <rect
       y="1018.3622"
       x="60"
       height="2"
       width="3"
       id="rect3792"
       style="fill:#3d3d3d;fill-opacity:1;stroke:none" />
    <rect
       style="fill:#3d3d3d;fill-opacity:1;stroke:none"
       id="rect3794"
       width="3"
       height="2"
       x="57"
       y="1020.3622" />
    <rect
       style="fill:#3d3d3d;fill-opacity:1;stroke:none"
       id="rect3796"
       width="3"
       height="2"
       x="60"
       y="1022.3622" />
    <rect
       y="1024.3622"
       x="57"
       height="3.9999974"
       width="6"
       id="rect3798"
       style="fill:#3d3d3d;fill-opacity:1;stroke:none" />
  </g>
</svg>
