<?xml version="1.0" encoding="UTF-8" standalone="no"?>
<!-- Created with Inkscape (http://www.inkscape.org/) -->

<svg
   xmlns:dc="http://purl.org/dc/elements/1.1/"
   xmlns:cc="http://creativecommons.org/ns#"
   xmlns:rdf="http://www.w3.org/1999/02/22-rdf-syntax-ns#"
   xmlns:svg="http://www.w3.org/2000/svg"
   xmlns="http://www.w3.org/2000/svg"
   xmlns:xlink="http://www.w3.org/1999/xlink"
   xmlns:sodipodi="http://sodipodi.sourceforge.net/DTD/sodipodi-0.dtd"
   xmlns:inkscape="http://www.inkscape.org/namespaces/inkscape"
   sodipodi:docname="application-x-php.svg"
   inkscape:version="0.48.4 r9939"
   version="1.1"
   id="svg2"
   height="96"
   width="96">
  <sodipodi:namedview
     id="base"
     pagecolor="#ffffff"
     bordercolor="#000000"
     borderopacity="1"
     inkscape:pageopacity="0"
     inkscape:pageshadow="2"
     inkscape:zoom="4.1763494"
     inkscape:cx="1.4908417"
     inkscape:cy="40.093061"
     inkscape:document-units="px"
     inkscape:current-layer="layer1"
     showgrid="true"
     inkscape:snap-page="true"
     inkscape:snap-bbox="true"
     inkscape:window-width="1301"
     inkscape:window-height="744"
     inkscape:window-x="65"
     inkscape:window-y="24"
     inkscape:window-maximized="1"
     showguides="true"
     inkscape:guide-bbox="true">
    <inkscape:grid
       snapvisiblegridlinesonly="true"
       enabled="true"
       visible="true"
       empspacing="6"
       id="grid2985"
       type="xygrid" />
    <sodipodi:guide
       id="guide3779"
       position="90,60"
       orientation="0,1" />
    <sodipodi:guide
       id="guide3781"
       position="54,24"
       orientation="0,1" />
    <sodipodi:guide
       id="guide3783"
       position="78,54"
       orientation="1,0" />
    <sodipodi:guide
       id="guide3785"
       position="42,54"
       orientation="1,0" />
  </sodipodi:namedview>
  <defs
     id="defs4">
    <linearGradient
       id="linearGradient4013"
       inkscape:collect="always">
      <stop
         id="stop4015"
         offset="0"
         style="stop-color:#000000;stop-opacity:1;" />
      <stop
         id="stop4017"
         offset="1"
         style="stop-color:#000000;stop-opacity:0;" />
    </linearGradient>
    <linearGradient
       id="linearGradient4005"
       inkscape:collect="always">
      <stop
         id="stop4007"
         offset="0"
         style="stop-color:#000000;stop-opacity:1;" />
      <stop
         id="stop4009"
         offset="1"
         style="stop-color:#000000;stop-opacity:0;" />
    </linearGradient>
    <linearGradient
       gradientUnits="userSpaceOnUse"
       y2="48"
       x2="30"
       y1="-1.4210855e-14"
       x1="30"
       id="linearGradient4011"
       xlink:href="#linearGradient4005"
       inkscape:collect="always" />
    <linearGradient
       gradientUnits="userSpaceOnUse"
       y2="956.36218"
       x2="54"
       y1="956.36218"
       x1="12"
       id="linearGradient4019"
       xlink:href="#linearGradient4013"
       inkscape:collect="always" />
  </defs>
  <metadata
     id="metadata7">
    <rdf:RDF>
      <cc:Work
         rdf:about="">
        <dc:format>image/svg+xml</dc:format>
        <dc:type
           rdf:resource="http://purl.org/dc/dcmitype/StillImage" />
        <dc:title />
      </cc:Work>
    </rdf:RDF>
  </metadata>
  <g
     transform="translate(0,-956.36218)"
     id="layer1"
     inkscape:groupmode="layer"
     inkscape:label="Layer 1">
    <path
       style="fill:#65c4ff;fill-opacity:1;stroke:none"
       d="m 18,956.36218 c -3.324,0 -6,2.676 -6,6 l 0,66.00002 12,12 12,12 42,0 c 3.324,0 6,-2.676 6,-6 l 0,-84.00002 c 0,-3.324 -2.676,-6 -6,-6 l -60,0 z"
       id="rect3856"
       inkscape:connector-curvature="0" />
    <path
       id="path3887"
       transform="translate(0,956.36218)"
       d="M 34.25 73.75 C 35.3345 74.8345 36 76.338 36 78 L 36 96 L 56.5 96 L 34.25 73.75 z "
       style="opacity:0.5;fill:#000000;fill-opacity:1;stroke:none" />
    <path
       style="opacity:0.5;fill:#ffffff;fill-opacity:1;stroke:none"
       d="m 12,1028.3622 12,12 12,12 0,-18 c 0,-3.324 -2.676,-6 -6,-6 l -18,0 z"
       id="path3859"
       inkscape:connector-curvature="0" />
    <path
       inkscape:connector-curvature="0"
       id="path3944"
       d="m 12,962.36218 0,36 21,-21 21,-21 -36,0 c -3.324,0 -6,2.676 -6,6 z"
       style="fill:url(#linearGradient4019);fill-opacity:1;stroke:none;opacity:0.1" />
    <path
       transform="translate(0,956.36218)"
       sodipodi:nodetypes="sccccs"
       inkscape:connector-curvature="0"
       id="path3939"
       d="M 12,6 12,48 60,48 33,21 13.75,1.75 C 12.6655,2.8345 12,4.338 12,6 z"
       style="opacity:0.1;fill:url(#linearGradient4011);fill-opacity:1;stroke:none" />
    <path
       id="path3775"
       d="m 58.40625,1006.8934 0,18.5625 3.65625,0 0,-9.0312 c -5e-6,-0.5706 0.06162,-0.9838 0.1875,-1.2188 0.125869,-0.2433 0.331288,-0.375 0.625,-0.375 0.285309,0 0.476261,0.1172 0.59375,0.3438 0.117476,0.2266 0.187494,0.6542 0.1875,1.25 l 0,9.0312 3.65625,0 0,-9.4375 c -1e-5,-1.4517 -0.184887,-2.4545 -0.5625,-3 -0.36924,-0.5454 -1.014432,-0.8125 -1.9375,-0.8125 -0.520287,0 -1.01561,0.1438 -1.46875,0.4375 -0.444761,0.2937 -0.861675,0.7541 -1.28125,1.375 l 0,-7.125 -3.65625,0 z m -4.78125,5.3125 c -0.53707,0 -1.017926,0.1438 -1.4375,0.4375 -0.411194,0.2937 -0.789341,0.7541 -1.125,1.375 l -0.09375,-1.5 -3.53125,0 0,17.8438 3.625,0 0,-6.4063 c 0.335659,0.621 0.713806,1.0813 1.125,1.375 0.419574,0.2937 0.90043,0.4375 1.4375,0.4375 0.914677,0 1.586486,-0.302 2.03125,-0.9062 0.444745,-0.6042 0.68749,-1.5309 0.6875,-2.7813 l 0,-6.2187 c -1e-5,-1.242 -0.242755,-2.1542 -0.6875,-2.75 -0.444764,-0.6042 -1.116573,-0.9063 -2.03125,-0.9063 z m 22,0 c -0.53707,0 -1.017926,0.1438 -1.4375,0.4375 -0.411194,0.2937 -0.758091,0.7541 -1.09375,1.375 l -0.125,-1.5 -3.53125,0 0,17.8438 3.65625,0 0,-6.4063 c 0.335659,0.621 0.682556,1.0813 1.09375,1.375 0.419574,0.2937 0.90043,0.4375 1.4375,0.4375 0.914677,0 1.617736,-0.302 2.0625,-0.9062 0.444745,-0.6042 0.65624,-1.5309 0.65625,-2.7813 l 0,-6.2187 c -1e-5,-1.242 -0.211505,-2.1542 -0.65625,-2.75 -0.444764,-0.6042 -1.147823,-0.9063 -2.0625,-0.9063 z m -23.71875,2.625 c 0.285309,0 0.476261,0.1172 0.59375,0.3438 0.117476,0.2266 0.187494,0.6542 0.1875,1.25 l 0,5.1562 c -6e-6,0.6126 -0.06163,1.0319 -0.1875,1.25 -0.117489,0.2182 -0.3313,0.3125 -0.625,0.3125 -0.28532,0 -0.499131,-0.1004 -0.625,-0.3437 -0.117487,-0.2434 -0.187505,-0.6565 -0.1875,-1.2188 l 0,-5.1562 c -5e-6,-0.5706 0.06162,-0.9838 0.1875,-1.2188 0.125869,-0.2433 0.362538,-0.375 0.65625,-0.375 z m 22,0 c 0.285309,0 0.476261,0.1172 0.59375,0.3438 0.117476,0.2266 0.187494,0.6542 0.1875,1.25 l 0,5.1562 c -6e-6,0.6126 -0.06163,1.0319 -0.1875,1.25 -0.117489,0.2182 -0.3313,0.3125 -0.625,0.3125 -0.28532,0 -0.499131,-0.1004 -0.625,-0.3437 -0.117487,-0.2434 -0.156255,-0.6565 -0.15625,-1.2188 l 0,-5.1562 c -5e-6,-0.5706 0.06162,-0.9838 0.1875,-1.2188 0.125869,-0.2433 0.331288,-0.375 0.625,-0.375 z M 42,1022.0497 l 0,3.4062 3,0 0,-3.4062 -3,0 z"
       style="font-size:25.77902031px;font-style:normal;font-variant:normal;font-weight:normal;font-stretch:condensed;text-align:center;line-height:621.00000381%;letter-spacing:0px;word-spacing:0px;writing-mode:lr-tb;text-anchor:middle;opacity:0.4;fill:#000000;fill-opacity:1;stroke:none;font-family:Zurich BdXCn BT;-inkscape-font-specification:Zurich BdXCn BT Condensed"
       inkscape:connector-curvature="0" />
    <path
       style="font-size:25.77902030999999994px;font-style:normal;font-variant:normal;font-weight:normal;font-stretch:condensed;text-align:center;line-height:621.00000380999995286%;letter-spacing:0px;word-spacing:0px;writing-mode:lr-tb;text-anchor:middle;fill:#f1faff;fill-opacity:1;stroke:none;font-family:Zurich BdXCn BT;-inkscape-font-specification:Zurich BdXCn BT Condensed"
       d="M 58.40625 48.53125 L 58.40625 67.09375 L 62.0625 67.09375 L 62.0625 58.0625 C 62.062495 57.49188 62.124121 57.078725 62.25 56.84375 C 62.375869 56.600404 62.581288 56.468761 62.875 56.46875 C 63.160309 56.468761 63.351261 56.585937 63.46875 56.8125 C 63.586226 57.039083 63.656244 57.466705 63.65625 58.0625 L 63.65625 67.09375 L 67.3125 67.09375 L 67.3125 57.65625 C 67.31249 56.204513 67.127613 55.201716 66.75 54.65625 C 66.38076 54.110808 65.735568 53.843763 64.8125 53.84375 C 64.292213 53.843763 63.79689 53.987557 63.34375 54.28125 C 62.898989 54.574969 62.482075 55.035283 62.0625 55.65625 L 62.0625 48.53125 L 58.40625 48.53125 z M 53.625 53.84375 C 53.08793 53.843763 52.607074 53.987557 52.1875 54.28125 C 51.776306 54.574969 51.398159 55.035283 51.0625 55.65625 L 50.96875 54.15625 L 47.4375 54.15625 L 47.4375 72 L 51.0625 72 L 51.0625 65.59375 C 51.398159 66.21473 51.776306 66.675044 52.1875 66.96875 C 52.607074 67.262456 53.08793 67.40625 53.625 67.40625 C 54.539677 67.40625 55.211486 67.104196 55.65625 66.5 C 56.100995 65.895805 56.34374 64.969102 56.34375 63.71875 L 56.34375 57.5 C 56.34374 56.258053 56.100995 55.345816 55.65625 54.75 C 55.211486 54.145817 54.539677 53.843763 53.625 53.84375 z M 75.625 53.84375 C 75.08793 53.843763 74.607074 53.987557 74.1875 54.28125 C 73.776306 54.574969 73.429409 55.035283 73.09375 55.65625 L 72.96875 54.15625 L 69.4375 54.15625 L 69.4375 72 L 73.09375 72 L 73.09375 65.59375 C 73.429409 66.21473 73.776306 66.675044 74.1875 66.96875 C 74.607074 67.262456 75.08793 67.40625 75.625 67.40625 C 76.539677 67.40625 77.242736 67.104196 77.6875 66.5 C 78.132245 65.895805 78.34374 64.969102 78.34375 63.71875 L 78.34375 57.5 C 78.34374 56.258053 78.132245 55.345816 77.6875 54.75 C 77.242736 54.145817 76.539677 53.843763 75.625 53.84375 z M 51.90625 56.46875 C 52.191559 56.468761 52.382511 56.585937 52.5 56.8125 C 52.617476 57.039083 52.687494 57.466705 52.6875 58.0625 L 52.6875 63.21875 C 52.687494 63.831341 52.625868 64.250571 52.5 64.46875 C 52.382511 64.686934 52.1687 64.781252 51.875 64.78125 C 51.58968 64.781252 51.375869 64.680859 51.25 64.4375 C 51.132513 64.194146 51.062495 63.780991 51.0625 63.21875 L 51.0625 58.0625 C 51.062495 57.49188 51.124121 57.078725 51.25 56.84375 C 51.375869 56.600404 51.612538 56.468761 51.90625 56.46875 z M 73.90625 56.46875 C 74.191559 56.468761 74.382511 56.585937 74.5 56.8125 C 74.617476 57.039083 74.687494 57.466705 74.6875 58.0625 L 74.6875 63.21875 C 74.687494 63.831341 74.625868 64.250571 74.5 64.46875 C 74.382511 64.686934 74.1687 64.781252 73.875 64.78125 C 73.58968 64.781252 73.375869 64.680859 73.25 64.4375 C 73.132513 64.194146 73.093745 63.780991 73.09375 63.21875 L 73.09375 58.0625 C 73.093745 57.49188 73.155371 57.078725 73.28125 56.84375 C 73.407119 56.600404 73.612538 56.468761 73.90625 56.46875 z M 42 63.6875 L 42 67.09375 L 45 67.09375 L 45 63.6875 L 42 63.6875 z "
       transform="translate(0,956.36218)"
       id="text3002" />
  </g>
</svg>
