<?xml version="1.0" encoding="UTF-8" standalone="no"?>
<!-- Created with Inkscape (http://www.inkscape.org/) -->

<svg
   xmlns:dc="http://purl.org/dc/elements/1.1/"
   xmlns:cc="http://creativecommons.org/ns#"
   xmlns:rdf="http://www.w3.org/1999/02/22-rdf-syntax-ns#"
   xmlns:svg="http://www.w3.org/2000/svg"
   xmlns="http://www.w3.org/2000/svg"
   xmlns:xlink="http://www.w3.org/1999/xlink"
   xmlns:sodipodi="http://sodipodi.sourceforge.net/DTD/sodipodi-0.dtd"
   xmlns:inkscape="http://www.inkscape.org/namespaces/inkscape"
   sodipodi:docname="text-x-csharp.svg"
   inkscape:version="0.48.4 r9939"
   version="1.1"
   id="svg2"
   height="96"
   width="96">
  <sodipodi:namedview
     id="base"
     pagecolor="#ffffff"
     bordercolor="#000000"
     borderopacity="1"
     inkscape:pageopacity="0"
     inkscape:pageshadow="2"
     inkscape:zoom="4.1763494"
     inkscape:cx="11.15166"
     inkscape:cy="24.317185"
     inkscape:document-units="px"
     inkscape:current-layer="layer1"
     showgrid="true"
     inkscape:snap-page="true"
     inkscape:snap-bbox="true"
     inkscape:window-width="1301"
     inkscape:window-height="744"
     inkscape:window-x="65"
     inkscape:window-y="24"
     inkscape:window-maximized="1"
     showguides="true"
     inkscape:guide-bbox="true">
    <inkscape:grid
       snapvisiblegridlinesonly="true"
       enabled="true"
       visible="true"
       empspacing="6"
       id="grid2985"
       type="xygrid" />
    <sodipodi:guide
       id="guide3779"
       position="90,60"
       orientation="0,1" />
    <sodipodi:guide
       id="guide3781"
       position="54,24"
       orientation="0,1" />
    <sodipodi:guide
       id="guide3783"
       position="78,54"
       orientation="1,0" />
    <sodipodi:guide
       id="guide3785"
       position="42,54"
       orientation="1,0" />
  </sodipodi:namedview>
  <defs
     id="defs4">
    <linearGradient
       id="linearGradient4013"
       inkscape:collect="always">
      <stop
         id="stop4015"
         offset="0"
         style="stop-color:#000000;stop-opacity:1;" />
      <stop
         id="stop4017"
         offset="1"
         style="stop-color:#000000;stop-opacity:0;" />
    </linearGradient>
    <linearGradient
       id="linearGradient4005"
       inkscape:collect="always">
      <stop
         id="stop4007"
         offset="0"
         style="stop-color:#000000;stop-opacity:1;" />
      <stop
         id="stop4009"
         offset="1"
         style="stop-color:#000000;stop-opacity:0;" />
    </linearGradient>
    <linearGradient
       gradientUnits="userSpaceOnUse"
       y2="48"
       x2="30"
       y1="-1.4210855e-14"
       x1="30"
       id="linearGradient4011"
       xlink:href="#linearGradient4005"
       inkscape:collect="always" />
    <linearGradient
       gradientUnits="userSpaceOnUse"
       y2="956.36218"
       x2="54"
       y1="956.36218"
       x1="12"
       id="linearGradient4019"
       xlink:href="#linearGradient4013"
       inkscape:collect="always" />
  </defs>
  <metadata
     id="metadata7">
    <rdf:RDF>
      <cc:Work
         rdf:about="">
        <dc:format>image/svg+xml</dc:format>
        <dc:type
           rdf:resource="http://purl.org/dc/dcmitype/StillImage" />
        <dc:title />
      </cc:Work>
    </rdf:RDF>
  </metadata>
  <g
     transform="translate(0,-956.36218)"
     id="layer1"
     inkscape:groupmode="layer"
     inkscape:label="Layer 1">
    <path
       style="fill:#ad65ff;fill-opacity:1;stroke:none"
       d="m 18,956.36218 c -3.324,0 -6,2.676 -6,6 l 0,66.00002 12,12 12,12 42,0 c 3.324,0 6,-2.676 6,-6 l 0,-84.00002 c 0,-3.324 -2.676,-6 -6,-6 l -60,0 z"
       id="rect3856"
       inkscape:connector-curvature="0" />
    <path
       id="path3887"
       transform="translate(0,956.36218)"
       d="M 34.25 73.75 C 35.3345 74.8345 36 76.338 36 78 L 36 96 L 56.5 96 L 34.25 73.75 z "
       style="opacity:0.5;fill:#000000;fill-opacity:1;stroke:none" />
    <path
       style="opacity:0.5;fill:#ffffff;fill-opacity:1;stroke:none"
       d="m 12,1028.3622 12,12 12,12 0,-18 c 0,-3.324 -2.676,-6 -6,-6 l -18,0 z"
       id="path3859"
       inkscape:connector-curvature="0" />
    <path
       inkscape:connector-curvature="0"
       id="path3944"
       d="m 12,962.36218 0,36 21,-21 21,-21 -36,0 c -3.324,0 -6,2.676 -6,6 z"
       style="fill:url(#linearGradient4019);fill-opacity:1;stroke:none;opacity:0.1" />
    <path
       transform="translate(0,956.36218)"
       sodipodi:nodetypes="sccccs"
       inkscape:connector-curvature="0"
       id="path3939"
       d="M 12,6 12,48 60,48 33,21 13.75,1.75 C 12.6655,2.8345 12,4.338 12,6 z"
       style="opacity:0.1;fill:url(#linearGradient4011);fill-opacity:1;stroke:none" />
    <path
       id="path3775"
       d="m 54.638943,1005.5592 0,3.0792 3.824038,0 0,-3.0792 -3.824038,0 z m 21.918268,2.3547 -3.824038,1.4491 0,1.9472 -1.445673,0 0,2.2642 1.445673,0 0,6.9282 c -2e-6,1.8025 0.222215,2.9829 0.699519,3.5321 0.4773,0.5493 1.378963,0.8604 2.704808,0.8604 0.274002,0 0.628203,-0.039 1.025962,-0.09 0.406584,-0.052 0.868694,-0.1319 1.399038,-0.2265 l 0,-2.6264 c -0.22982,0.052 -0.447157,0.1188 -0.60625,0.1362 -0.150268,0.017 -0.269456,-0.014 -0.419712,0 -0.362402,0 -0.604737,-0.086 -0.746154,-0.3171 -0.141426,-0.2402 -0.233178,-0.7475 -0.233173,-1.4942 l 0,-6.7019 1.772116,0 0,-2.2642 -1.772116,0 0,-3.3963 z m -47.847115,3.0792 c -1.484946,0 -2.675578,0.3026 -3.497596,0.8605 -0.822023,0.5493 -1.212501,1.2771 -1.2125,2.2642 l 0,1.0414 c -1e-6,0.6952 0.188378,1.2488 0.559615,1.7207 0.380073,0.4721 1.041841,0.9771 2.005289,1.4491 l 1.772115,0.8605 c 0.441941,0.2059 0.758347,0.4522 0.979327,0.7697 0.229806,0.3091 0.373071,0.6834 0.373077,1.0868 l 0,0.4528 c -6e-6,0.412 -0.111883,0.6888 -0.279807,0.8605 -0.159107,0.1715 -0.41272,0.2717 -0.792789,0.2717 -0.441953,0 -0.764757,-0.1189 -0.932693,-0.3171 -0.167944,-0.2059 -0.233177,-0.5913 -0.233173,-1.132 l 0,-0.8604 -3.404327,0 0,0.4076 c -1e-6,1.6135 0.322805,2.6852 0.932693,3.2604 0.618723,0.5749 1.733763,0.9056 3.404327,0.9056 1.714746,0 2.990729,-0.294 3.777404,-0.8604 0.786655,-0.5665 1.165855,-1.4897 1.165865,-2.717 l 0,-0.6792 c -1e-5,-0.781 -0.18839,-1.4627 -0.559615,-2.0378 -0.362406,-0.5835 -0.898589,-1.0261 -1.632212,-1.4037 l -1.865385,-0.9962 c -0.654087,-0.3433 -1.093639,-0.6286 -1.305769,-0.8605 -0.2033,-0.2317 -0.326446,-0.4974 -0.326442,-0.8151 l 0,-0.4074 c -4e-6,-0.3004 0.10058,-0.4881 0.233173,-0.634 0.141426,-0.1545 0.361194,-0.2265 0.652885,-0.2265 0.380068,0 0.604725,0.046 0.746153,0.2265 0.150256,0.1716 0.233168,0.5374 0.233173,1.0868 l 0,0.6339 3.544232,0 0,-0.4981 c -1.1e-5,-1.339 -0.354212,-2.2949 -1.025962,-2.8528 -0.662929,-0.5664 -1.746573,-0.8605 -3.311058,-0.8605 z m 11.51875,0 c -1.847343,0 -3.116926,0.4269 -3.824038,1.268 -0.707117,0.8412 -1.072598,2.3898 -1.072596,4.6642 l 0,1.9925 c -2e-6,2.2744 0.365479,3.8682 1.072596,4.7094 0.707112,0.841 1.976695,1.2679 3.824038,1.2679 1.652874,0 2.81059,-0.344 3.544231,-0.9962 0.74246,-0.6524 1.11922,-1.7108 1.119231,-3.1698 l 0,-1.0416 -3.824039,0 0,1.0868 c -7e-6,0.6952 -0.08292,1.1378 -0.233173,1.4038 -0.141426,0.2661 -0.383763,0.4075 -0.746153,0.4075 -0.344725,0 -0.558103,-0.1043 -0.69952,-0.3623 -0.141426,-0.2575 -0.233178,-0.7367 -0.233173,-1.449 l 0,-5.6603 c -5e-6,-0.6953 0.09175,-1.183 0.233173,-1.4491 0.150256,-0.2747 0.39259,-0.4076 0.746154,-0.4076 0.380068,0 0.633681,0.1501 0.792788,0.4076 0.167933,0.2575 0.233166,0.6757 0.233173,1.2679 l 0,0.7698 3.73077,0 0,-0.5434 c -1.1e-5,-1.4676 -0.376771,-2.526 -1.119231,-3.1698 -0.733641,-0.6522 -1.891357,-0.9963 -3.544231,-0.9963 z m 27.001442,0 c -0.565699,0 -1.050366,0.1525 -1.492307,0.4529 -0.433114,0.3004 -0.812314,0.7687 -1.165866,1.4038 l -0.139903,-1.5396 -3.684135,0 0,18.249 3.824038,0 0,-6.5208 c 0.353552,0.6352 0.732752,1.1035 1.165866,1.4039 0.441941,0.3004 0.926608,0.4528 1.492307,0.4528 0.963436,0 1.67672,-0.333 2.145193,-0.951 0.468453,-0.6179 0.746143,-1.574 0.746154,-2.8528 l 0,-6.3396 c -1.1e-5,-1.2702 -0.277701,-2.1982 -0.746154,-2.8075 -0.468473,-0.6181 -1.181757,-0.9511 -2.145193,-0.9511 z m -14.083654,0.2717 c -0.468471,0 -0.879066,0.1131 -1.259134,0.3623 -0.371241,0.2404 -0.75928,0.6844 -1.165865,1.2679 l -0.09327,-1.5848 -3.730769,0 0,13.2227 3.824039,0 0,-7.6076 c -5e-6,-1.0214 0.208492,-1.7702 0.60625,-2.1736 0.406585,-0.4034 1.082072,-0.6169 2.098558,-0.6339 l 0.04664,-2.8076 c -0.03537,0 -0.115832,-0.036 -0.186537,-0.045 -0.06189,-0.014 -0.104547,0 -0.139905,0 z m 1.492309,0.045 0,13.2226 3.824038,0 0,-13.2226 -3.824038,0 z m 10.772595,2.3547 c 0.300519,0 0.529134,0.1304 0.652885,0.3622 0.123742,0.2318 0.186532,0.6585 0.186539,1.268 l 0,5.298 c -7e-6,0.6266 -0.05396,1.0448 -0.186539,1.2679 -0.123757,0.2232 -0.343527,0.3171 -0.652885,0.3171 -0.30053,0 -0.520306,-0.113 -0.652884,-0.3623 -0.123757,-0.2489 -0.186543,-0.6475 -0.186539,-1.2227 l 0,-5.298 c -4e-6,-0.5837 0.05394,-0.9823 0.186539,-1.2227 0.132576,-0.2488 0.343515,-0.4075 0.652884,-0.4075 z"
       style="font-size:18.19545937px;font-style:normal;font-weight:normal;text-align:center;line-height:621.00000381%;letter-spacing:0px;word-spacing:0px;text-anchor:middle;opacity:0.4;fill:#000000;fill-opacity:1;stroke:none;font-family:Sans"
       inkscape:connector-curvature="0" />
    <path
       style="font-size:18.19545937px;font-style:normal;font-weight:normal;text-align:center;line-height:621.00000381%;letter-spacing:0px;word-spacing:0px;text-anchor:middle;fill:#f6efff;fill-opacity:1;stroke:none;font-family:Sans"
       d="m 54.638943,1004.3622 0,3.0792 3.824038,0 0,-3.0792 -3.824038,0 z m 21.918268,2.3547 -3.824038,1.4491 0,1.9471 -1.445673,0 0,2.2642 1.445673,0 0,6.9283 c -2e-6,1.8024 0.222215,2.9828 0.699519,3.5321 0.4773,0.5492 1.378963,0.8603 2.704808,0.8603 0.274002,0 0.628203,-0.039 1.025962,-0.091 0.406584,-0.051 0.868694,-0.132 1.399038,-0.2265 l 0,-2.6264 c -0.22982,0.052 -0.447157,0.1187 -0.60625,0.1359 -0.150268,0.017 -0.269456,-0.01 -0.419712,0 -0.362402,0 -0.604737,-0.085 -0.746154,-0.317 -0.141426,-0.2403 -0.233178,-0.7476 -0.233173,-1.4943 l 0,-6.7019 1.772116,0 0,-2.2642 -1.772116,0 0,-3.3962 z m -47.847115,3.0792 c -1.484946,10e-5 -2.675578,0.3026 -3.497596,0.8604 -0.822023,0.5493 -1.212501,1.2772 -1.2125,2.2642 l 0,1.0415 c -1e-6,0.6952 0.188378,1.2487 0.559615,1.7207 0.380073,0.4721 1.041841,0.977 2.005289,1.4491 l 1.772115,0.8604 c 0.441941,0.206 0.758347,0.4522 0.979327,0.7698 0.229806,0.309 0.373071,0.6834 0.373077,1.0868 l 0,0.4528 c -6e-6,0.412 -0.111883,0.6887 -0.279807,0.8604 -0.159107,0.1716 -0.41272,0.2717 -0.792789,0.2717 -0.441953,0 -0.764757,-0.1196 -0.932693,-0.317 -0.167944,-0.206 -0.233177,-0.5914 -0.233173,-1.1321 l 0,-0.8604 -3.404327,0 0,0.4076 c -1e-6,1.6136 0.322805,2.6853 0.932693,3.2604 0.618723,0.575 1.733763,0.9056 3.404327,0.9056 1.714746,0 2.990729,-0.2939 3.777404,-0.8603 0.786655,-0.5665 1.165855,-1.4897 1.165865,-2.717 l 0,-0.6793 c -1e-5,-0.781 -0.18839,-1.4627 -0.559615,-2.0377 -0.362406,-0.5836 -0.898589,-1.0261 -1.632212,-1.4038 l -1.865385,-0.9962 c -0.654087,-0.3433 -1.093639,-0.6286 -1.305769,-0.8604 -0.2033,-0.2317 -0.326446,-0.4975 -0.326442,-0.8151 l 0,-0.4075 c -4e-6,-0.3004 0.10058,-0.4881 0.233173,-0.634 0.141426,-0.1545 0.361194,-0.2264 0.652885,-0.2264 0.380068,0 0.604725,0.046 0.746153,0.2264 0.150256,0.1717 0.233168,0.5375 0.233173,1.0868 l 0,0.634 3.544232,0 0,-0.4982 c -1.1e-5,-1.3388 -0.354212,-2.2949 -1.025962,-2.8528 -0.662929,-0.5664 -1.746573,-0.8603 -3.311058,-0.8604 z m 11.51875,0 c -1.847343,10e-5 -3.116926,0.4269 -3.824038,1.268 -0.707117,0.8411 -1.072598,2.3897 -1.072596,4.6641 l 0,1.9925 c -2e-6,2.2744 0.365479,3.8683 1.072596,4.7094 0.707112,0.8411 1.976695,1.2679 3.824038,1.2679 1.652874,0 2.81059,-0.3439 3.544231,-0.9962 0.74246,-0.6523 1.11922,-1.7107 1.119231,-3.1698 l 0,-1.0415 -3.824039,0 0,1.0868 c -7e-6,0.6952 -0.08292,1.1377 -0.233173,1.4037 -0.141426,0.2661 -0.383763,0.4076 -0.746153,0.4076 -0.344725,0 -0.558103,-0.1048 -0.69952,-0.3623 -0.141426,-0.2574 -0.233178,-0.7367 -0.233173,-1.449 l 0,-5.6604 c -5e-6,-0.6952 0.09175,-1.183 0.233173,-1.4491 0.150256,-0.2746 0.39259,-0.4075 0.746154,-0.4075 0.380068,0 0.633681,0.1501 0.792788,0.4075 0.167933,0.2575 0.233166,0.6758 0.233173,1.268 l 0,0.7698 3.73077,0 0,-0.5434 c -1.1e-5,-1.4677 -0.376771,-2.5261 -1.119231,-3.1698 -0.733641,-0.6523 -1.891357,-0.9962 -3.544231,-0.9963 z m 27.001442,0 c -0.565699,10e-5 -1.050366,0.1525 -1.492307,0.4529 -0.433114,0.3004 -0.812314,0.7686 -1.165866,1.4037 l -0.139903,-1.5396 -3.684135,0 0,18.2491 3.824038,0 0,-6.5208 c 0.353552,0.6352 0.732752,1.1034 1.165866,1.4038 0.441941,0.3004 0.926608,0.4528 1.492307,0.4528 0.963436,0 1.67672,-0.333 2.145193,-0.9509 0.468453,-0.618 0.746143,-1.574 0.746154,-2.8528 l 0,-6.3397 c -1.1e-5,-1.2702 -0.277701,-2.1981 -0.746154,-2.8075 -0.468473,-0.618 -1.181757,-0.9509 -2.145193,-0.951 z m -14.083654,0.2717 c -0.468471,10e-5 -0.879066,0.1134 -1.259134,0.3623 -0.371241,0.2403 -0.75928,0.6843 -1.165865,1.2679 l -0.09327,-1.5849 -3.730769,0 0,13.2227 3.824039,0 0,-7.6076 c -5e-6,-1.0213 0.208492,-1.7702 0.60625,-2.1736 0.406585,-0.4033 1.082072,-0.6168 2.098558,-0.6339 l 0.04664,-2.8076 c -0.03537,0 -0.115832,-0.037 -0.186537,-0.045 -0.06189,-0.01 -0.104547,1e-4 -0.139905,0 z m 1.492309,0.045 0,13.2227 3.824038,0 0,-13.2227 -3.824038,0 z m 10.772595,2.3547 c 0.300519,10e-5 0.529134,0.1306 0.652885,0.3623 0.123742,0.2317 0.186532,0.6586 0.186539,1.2679 l 0,5.2981 c -7e-6,0.6266 -0.05396,1.0448 -0.186539,1.268 -0.123757,0.2231 -0.343527,0.317 -0.652885,0.3169 -0.30053,1e-4 -0.520306,-0.1133 -0.652884,-0.3622 -0.123757,-0.2489 -0.186543,-0.6476 -0.186539,-1.2227 l 0,-5.2981 c -4e-6,-0.5836 0.05394,-0.9823 0.186539,-1.2226 0.132576,-0.2489 0.343515,-0.4075 0.652884,-0.4076 z"
       id="text3002"
       inkscape:connector-curvature="0" />
  </g>
</svg>
