<?xml version="1.0" encoding="UTF-8" standalone="no"?>
<!-- Created with Inkscape (http://www.inkscape.org/) -->

<svg
   xmlns:dc="http://purl.org/dc/elements/1.1/"
   xmlns:cc="http://creativecommons.org/ns#"
   xmlns:rdf="http://www.w3.org/1999/02/22-rdf-syntax-ns#"
   xmlns:svg="http://www.w3.org/2000/svg"
   xmlns="http://www.w3.org/2000/svg"
   xmlns:xlink="http://www.w3.org/1999/xlink"
   xmlns:sodipodi="http://sodipodi.sourceforge.net/DTD/sodipodi-0.dtd"
   xmlns:inkscape="http://www.inkscape.org/namespaces/inkscape"
   sodipodi:docname="application-x-python-bytecode.svg"
   inkscape:version="0.48.4 r9939"
   version="1.1"
   id="svg2"
   height="96"
   width="96">
  <sodipodi:namedview
     id="base"
     pagecolor="#ffffff"
     bordercolor="#000000"
     borderopacity="1"
     inkscape:pageopacity="0"
     inkscape:pageshadow="2"
     inkscape:zoom="5.90625"
     inkscape:cx="38.773309"
     inkscape:cy="45.389551"
     inkscape:document-units="px"
     inkscape:current-layer="layer1"
     showgrid="true"
     inkscape:snap-page="true"
     inkscape:snap-bbox="true"
     inkscape:window-width="1301"
     inkscape:window-height="744"
     inkscape:window-x="65"
     inkscape:window-y="24"
     inkscape:window-maximized="1"
     showguides="true"
     inkscape:guide-bbox="true">
    <inkscape:grid
       snapvisiblegridlinesonly="true"
       enabled="true"
       visible="true"
       empspacing="6"
       id="grid2985"
       type="xygrid" />
    <sodipodi:guide
       id="guide3779"
       position="90,60"
       orientation="0,1" />
    <sodipodi:guide
       id="guide3781"
       position="54,24"
       orientation="0,1" />
    <sodipodi:guide
       id="guide3783"
       position="78,54"
       orientation="1,0" />
    <sodipodi:guide
       id="guide3785"
       position="42,54"
       orientation="1,0" />
  </sodipodi:namedview>
  <defs
     id="defs4">
    <linearGradient
       id="linearGradient4013"
       inkscape:collect="always">
      <stop
         id="stop4015"
         offset="0"
         style="stop-color:#000000;stop-opacity:1;" />
      <stop
         id="stop4017"
         offset="1"
         style="stop-color:#000000;stop-opacity:0;" />
    </linearGradient>
    <linearGradient
       id="linearGradient4005"
       inkscape:collect="always">
      <stop
         id="stop4007"
         offset="0"
         style="stop-color:#000000;stop-opacity:1;" />
      <stop
         id="stop4009"
         offset="1"
         style="stop-color:#000000;stop-opacity:0;" />
    </linearGradient>
    <linearGradient
       gradientUnits="userSpaceOnUse"
       y2="48"
       x2="30"
       y1="-1.4210855e-14"
       x1="30"
       id="linearGradient4011"
       xlink:href="#linearGradient4005"
       inkscape:collect="always" />
    <linearGradient
       gradientUnits="userSpaceOnUse"
       y2="956.36218"
       x2="54"
       y1="956.36218"
       x1="12"
       id="linearGradient4019"
       xlink:href="#linearGradient4013"
       inkscape:collect="always" />
  </defs>
  <metadata
     id="metadata7">
    <rdf:RDF>
      <cc:Work
         rdf:about="">
        <dc:format>image/svg+xml</dc:format>
        <dc:type
           rdf:resource="http://purl.org/dc/dcmitype/StillImage" />
        <dc:title />
      </cc:Work>
    </rdf:RDF>
  </metadata>
  <g
     transform="translate(0,-956.36218)"
     id="layer1"
     inkscape:groupmode="layer"
     inkscape:label="Layer 1">
    <path
       style="fill:#65c4ff;fill-opacity:1;stroke:none"
       d="m 18,956.36218 c -3.324,0 -6,2.676 -6,6 l 0,66.00002 12,12 12,12 42,0 c 3.324,0 6,-2.676 6,-6 l 0,-84.00002 c 0,-3.324 -2.676,-6 -6,-6 l -60,0 z"
       id="rect3856"
       inkscape:connector-curvature="0" />
    <path
       id="path3887"
       transform="translate(0,956.36218)"
       d="M 34.25 73.75 C 35.3345 74.8345 36 76.338 36 78 L 36 96 L 56.5 96 L 34.25 73.75 z "
       style="opacity:0.5;fill:#000000;fill-opacity:1;stroke:none" />
    <path
       style="opacity:0.5;fill:#ffffff;fill-opacity:1;stroke:none"
       d="m 12,1028.3622 12,12 12,12 0,-18 c 0,-3.324 -2.676,-6 -6,-6 l -18,0 z"
       id="path3859"
       inkscape:connector-curvature="0" />
    <path
       inkscape:connector-curvature="0"
       id="path3944"
       d="m 12,962.36218 0,36 21,-21 21,-21 -36,0 c -3.324,0 -6,2.676 -6,6 z"
       style="fill:url(#linearGradient4019);fill-opacity:1;stroke:none;opacity:0.1" />
    <path
       transform="translate(0,956.36218)"
       sodipodi:nodetypes="sccccs"
       inkscape:connector-curvature="0"
       id="path3939"
       d="M 12,6 12,48 60,48 33,21 13.75,1.75 C 12.6655,2.8345 12,4.338 12,6 z"
       style="opacity:0.1;fill:url(#linearGradient4011);fill-opacity:1;stroke:none" />
    <path
       style="opacity:0.4;fill:#000000;fill-opacity:1;stroke:none"
       d="m 59.84375,994.36218 c -0.773821,-0.01 -1.574976,0.0565 -2.40625,0.1875 -0.01539,0.003 -0.01585,-0.003 -0.03125,0 -0.684394,0.0577 -1.32674,0.14444 -1.9375,0.25 -2.473936,0.42692 -3.567413,1.17043 -4,2.375 -0.46348,0.56097 -0.75,1.22373 -0.75,2.03125 l 0,3.90627 0.5,0 0,0.031 -0.5,0 -3.8125,0 c -1.948336,0 -2.937271,1.2384 -3.6875,3 -0.03487,0.082 -0.05982,0.1659 -0.09375,0.25 -0.03066,0.065 -0.09638,0.12 -0.125,0.1875 -0.0188,0.049 -0.01268,0.1077 -0.03125,0.1563 -0.103116,0.2621 -0.209848,0.5213 -0.28125,0.8125 -0.01188,0.035 -0.0194,0.06 -0.03125,0.094 -0.887808,2.6019 -0.85003,5.131 0,8.4688 0.610758,2.4032 1.775476,4.2187 4.25,4.2187 l 3.71875,0 0,-3.375 c 0,-2.8595 3.121158,-5.25 5.34375,-5.25 l 7.9375,0 c 1.654038,0 3.080968,-1.1652 3.78125,-2.6562 0.04385,-0.081 0.0864,-0.1662 0.125,-0.25 0.01617,-0.04 0.01617,-0.085 0.03125,-0.125 0.03944,-0.093 0.06099,-0.1848 0.09375,-0.2813 0.144354,-0.4254 0.25,-0.9024 0.25,-1.375 l 0,-7.90622 c 0,-2.25103 -1.942342,-3.9368 -4.25,-4.3125 -0.682467,-0.11096 -1.371572,-0.19389 -2.0625,-0.25 -0.0481,-0.007 -0.07685,-0.024 -0.125,-0.0312 -0.008,-6.1e-4 -0.02324,6e-4 -0.03125,0 -0.616063,-0.0915 -1.240104,-0.14824 -1.875,-0.15625 z m -4.5,1.75 c 0.852212,0 1.5625,0.67007 1.5625,1.5 0,0.82697 -0.710288,1.5 -1.5625,1.5 -0.855253,0 -1.53125,-0.67303 -1.53125,-1.5 0,-0.82993 0.675997,-1.5 1.53125,-1.5 z m 14,8.31252 0,2.8125 0,0.031 -0.21875,0.9688 c 0,0.1382 0.0085,0.2733 0,0.4062 -0.606973,1.9607 -2.40911,3.6936 -4.375,4.1875 -0.01677,8e-4 -0.04565,0 -0.0625,0 l -0.21875,0 -2.375,0.1563 -6,0.031 c -2.265711,0 -4.25,1.4596 -4.25,4.1563 l 0,0.4375 0,7.9062 c 0,2.2511 2.002142,3.5731 4.25,4.2188 2.691758,0.7732 5.279344,0.9129 8.5,0 0.274779,-0.077 0.543152,-0.1823 0.8125,-0.2813 1.919446,-0.6707 3.84375,-1.8401 3.84375,-3.9375 l 0,-3.9062 3.84375,0 c 1.853527,0 2.825512,-1.1556 3.5625,-2.7813 0.0031,-0.01 -0.0031,-0.024 0,-0.031 0.24566,-0.5138 0.472633,-1.087 0.6875,-1.7188 0.887809,-2.6019 0.850023,-5.0998 0,-8.4375 -0.610758,-2.4032 -1.775476,-4.2187 -4.25,-4.2187 l -3.1875,0 -0.5625,0 z m -4.65625,19.6562 c 0.881513,0 1.59375,0.69 1.59375,1.5625 0,0.8756 -0.712237,1.5938 -1.59375,1.5938 -0.878363,0 -1.59375,-0.7182 -1.59375,-1.5938 0,-0.8725 0.715387,-1.5625 1.59375,-1.5625 z"
       id="path3785"
       inkscape:connector-curvature="0" />
    <path
       inkscape:connector-curvature="0"
       style="fill:#dfe592;fill-opacity:1;stroke:none"
       d="m 69.33453,1002.4298 0,2.8137 0,0.024 -0.194057,0.9703 c 0,0.1382 -0.01572,0.2795 -0.02425,0.4124 -0.606973,1.9607 -2.400382,3.6783 -4.366272,4.1722 -0.01677,8e-4 -0.03166,0.024 -0.04851,0.024 -0.08229,0 -0.158527,0 -0.242571,0 l -2.352935,0.1456 -6.015753,0.024 c -2.265711,0 -4.244987,1.4756 -4.244987,4.1723 l 0,0.4123 0,7.9078 c 0,2.2511 1.997129,3.575 4.244987,4.2207 2.691758,0.7732 5.269318,0.9129 8.489974,0 0.274779,-0.077 0.555392,-0.1678 0.82474,-0.2668 1.919446,-0.6707 3.856874,-1.8565 3.856874,-3.9539 l 0,-3.9053 3.832616,0 c 1.853527,0 2.828802,-1.1397 3.56579,-2.7654 0.0031,-0.01 -0.0031,-0.017 0,-0.024 0.24566,-0.5138 0.46433,-1.1147 0.679197,-1.7465 0.887809,-2.6019 0.850023,-5.0795 0,-8.4172 -0.610758,-2.4032 -1.770463,-4.2208 -4.244987,-4.2208 l -3.201933,0 -0.557912,0 z m -4.6331,19.6482 c 0.881513,0 1.576709,0.7042 1.576709,1.5767 0,0.8756 -0.695196,1.5767 -1.576709,1.5767 -0.878363,0 -1.600966,-0.7011 -1.600966,-1.5767 0,-0.8725 0.722603,-1.5767 1.600966,-1.5767 z"
       id="path2732" />
    <path
       inkscape:connector-curvature="0"
       style="fill:#f1faff;fill-opacity:1;stroke:none"
       d="m 59.850016,992.36304 c -0.773821,-0.01 -1.570176,0.0631 -2.40145,0.19406 -0.01539,0.003 -0.03311,-0.003 -0.04851,0 -0.684394,0.0577 -1.329805,0.13701 -1.940565,0.24257 -2.473936,0.42692 -3.545572,1.17262 -3.978159,2.37719 -0.46348,0.56097 -0.75197,1.23007 -0.75197,2.03759 l 0,3.90535 0.485142,0 0,0.024 -0.485142,0 -3.832616,0 c -1.948336,0 -2.912588,1.2463 -3.662817,3.0079 -0.03487,0.082 -0.08736,0.1585 -0.121286,0.2426 -0.03066,0.065 -0.06841,0.1265 -0.09703,0.194 -0.0188,0.049 -0.02994,0.097 -0.04851,0.1456 -0.103116,0.2621 -0.195426,0.5335 -0.266828,0.8247 -0.01188,0.035 -0.03666,0.063 -0.04851,0.097 -0.887808,2.6019 -0.85003,5.1037 0,8.4415 0.610758,2.4032 1.770463,4.2208 4.244987,4.2208 l 3.735588,0 0,-3.3476 c 0,-2.8595 3.113963,-5.2637 5.336555,-5.2637 l 7.932062,0 c 1.654038,0 3.08382,-1.1773 3.784102,-2.6683 0.04385,-0.081 0.08269,-0.1588 0.121285,-0.2426 0.01617,-0.04 0.03343,-0.081 0.04851,-0.1213 0.03944,-0.093 0.06427,-0.1945 0.09703,-0.291 0.144354,-0.4254 0.242571,-0.8859 0.242571,-1.3585 l 0,-7.90774 c 0,-2.25103 -1.937329,-3.94206 -4.244987,-4.31776 -0.682467,-0.11096 -1.370923,-0.18646 -2.061851,-0.24257 -0.0481,-0.007 -0.09739,-0.017 -0.145542,-0.0243 -0.008,-6.1e-4 -0.01624,6e-4 -0.02425,0 -0.616063,-0.0915 -1.232898,-0.16179 -1.867794,-0.1698 z m -4.511815,1.74651 c 0.852212,0 1.552453,0.67401 1.552453,1.50394 0,0.82697 -0.700241,1.50393 -1.552453,1.50393 -0.855253,0 -1.528195,-0.67696 -1.528195,-1.50393 0,-0.82993 0.672942,-1.50394 1.528195,-1.50394 z"
       id="path2730" />
  </g>
</svg>
