<?xml version="1.0" encoding="UTF-8" standalone="no"?>
<!-- Created with Inkscape (http://www.inkscape.org/) -->

<svg
   xmlns:dc="http://purl.org/dc/elements/1.1/"
   xmlns:cc="http://creativecommons.org/ns#"
   xmlns:rdf="http://www.w3.org/1999/02/22-rdf-syntax-ns#"
   xmlns:svg="http://www.w3.org/2000/svg"
   xmlns="http://www.w3.org/2000/svg"
   xmlns:xlink="http://www.w3.org/1999/xlink"
   xmlns:sodipodi="http://sodipodi.sourceforge.net/DTD/sodipodi-0.dtd"
   xmlns:inkscape="http://www.inkscape.org/namespaces/inkscape"
   sodipodi:docname="gnome-mime-application-vnd.oasis.opendocument.text-web.svg"
   inkscape:version="0.48.4 r9939"
   version="1.1"
   id="svg2"
   height="96"
   width="96">
  <sodipodi:namedview
     id="base"
     pagecolor="#ffffff"
     bordercolor="#000000"
     borderopacity="1"
     inkscape:pageopacity="0"
     inkscape:pageshadow="2"
     inkscape:zoom="5.90625"
     inkscape:cx="3.6229844"
     inkscape:cy="37.377788"
     inkscape:document-units="px"
     inkscape:current-layer="layer1"
     showgrid="true"
     inkscape:snap-page="true"
     inkscape:snap-bbox="true"
     inkscape:window-width="1301"
     inkscape:window-height="744"
     inkscape:window-x="65"
     inkscape:window-y="24"
     inkscape:window-maximized="1"
     showguides="true"
     inkscape:guide-bbox="true">
    <inkscape:grid
       snapvisiblegridlinesonly="true"
       enabled="true"
       visible="true"
       empspacing="6"
       id="grid2985"
       type="xygrid" />
    <sodipodi:guide
       id="guide3779"
       position="90,60"
       orientation="0,1" />
    <sodipodi:guide
       id="guide3781"
       position="54,24"
       orientation="0,1" />
    <sodipodi:guide
       id="guide3783"
       position="78,54"
       orientation="1,0" />
    <sodipodi:guide
       id="guide3785"
       position="42,54"
       orientation="1,0" />
  </sodipodi:namedview>
  <defs
     id="defs4">
    <linearGradient
       id="linearGradient4013"
       inkscape:collect="always">
      <stop
         id="stop4015"
         offset="0"
         style="stop-color:#000000;stop-opacity:1;" />
      <stop
         id="stop4017"
         offset="1"
         style="stop-color:#000000;stop-opacity:0;" />
    </linearGradient>
    <linearGradient
       id="linearGradient4005"
       inkscape:collect="always">
      <stop
         id="stop4007"
         offset="0"
         style="stop-color:#000000;stop-opacity:1;" />
      <stop
         id="stop4009"
         offset="1"
         style="stop-color:#000000;stop-opacity:0;" />
    </linearGradient>
    <linearGradient
       gradientUnits="userSpaceOnUse"
       y2="48"
       x2="30"
       y1="-1.4210855e-14"
       x1="30"
       id="linearGradient4011"
       xlink:href="#linearGradient4005"
       inkscape:collect="always" />
    <linearGradient
       gradientUnits="userSpaceOnUse"
       y2="956.36218"
       x2="54"
       y1="956.36218"
       x1="12"
       id="linearGradient4019"
       xlink:href="#linearGradient4013"
       inkscape:collect="always" />
  </defs>
  <metadata
     id="metadata7">
    <rdf:RDF>
      <cc:Work
         rdf:about="">
        <dc:format>image/svg+xml</dc:format>
        <dc:type
           rdf:resource="http://purl.org/dc/dcmitype/StillImage" />
        <dc:title />
      </cc:Work>
    </rdf:RDF>
  </metadata>
  <g
     transform="translate(0,-956.36218)"
     id="layer1"
     inkscape:groupmode="layer"
     inkscape:label="Layer 1">
    <path
       style="fill:#656bff;fill-opacity:1;stroke:none"
       d="m 18,956.36218 c -3.324,0 -6,2.676 -6,6 l 0,66.00002 12,12 12,12 42,0 c 3.324,0 6,-2.676 6,-6 l 0,-84.00002 c 0,-3.324 -2.676,-6 -6,-6 l -60,0 z"
       id="rect3856"
       inkscape:connector-curvature="0" />
    <path
       id="path3887"
       transform="translate(0,956.36218)"
       d="M 34.25 73.75 C 35.3345 74.8345 36 76.338 36 78 L 36 96 L 56.5 96 L 34.25 73.75 z "
       style="opacity:0.5;fill:#000000;fill-opacity:1;stroke:none" />
    <path
       style="opacity:0.5;fill:#ffffff;fill-opacity:1;stroke:none"
       d="m 12,1028.3622 12,12 12,12 0,-18 c 0,-3.324 -2.676,-6 -6,-6 l -18,0 z"
       id="path3859"
       inkscape:connector-curvature="0" />
    <path
       inkscape:connector-curvature="0"
       id="path3944"
       d="m 12,962.36218 0,36 21,-21 21,-21 -36,0 c -3.324,0 -6,2.676 -6,6 z"
       style="fill:url(#linearGradient4019);fill-opacity:1;stroke:none;opacity:0.1" />
    <path
       transform="translate(0,956.36218)"
       sodipodi:nodetypes="sccccs"
       inkscape:connector-curvature="0"
       id="path3939"
       d="M 12,6 12,48 60,48 33,21 13.75,1.75 C 12.6655,2.8345 12,4.338 12,6 z"
       style="opacity:0.1;fill:url(#linearGradient4011);fill-opacity:1;stroke:none" />
    <path
       inkscape:connector-curvature="0"
       id="path3788"
       d="m 60.191978,994.36218 -0.940051,1.58882 -0.794409,-0.62228 -1.297537,0.34424 -0.489885,1.27105 -3.005517,0.55608 -0.556085,2.27729 -0.979773,-0.55602 -0.105921,-1.84042 -1.535858,-0.90034 c -0.173758,0.10896 -0.373144,0.17663 -0.542847,0.29129 -0.957956,0.64718 -1.859871,1.38323 -2.674512,2.19786 -0.02433,0.0244 -0.04201,0.055 -0.06619,0.0795 l 0.291282,0.17216 1.58882,-0.0795 0.489886,0.90029 -1.218095,1.43 1.085693,0.8341 -0.728209,2.0125 2.012505,1.1651 2.51563,0.3443 1.085693,1.3902 2.661272,1.6683 -0.83413,1.8933 2.144906,1.2975 -0.926812,2.2377 1.549099,0.887 2.290547,4.8989 -1.880102,0.715 -1.800662,2.4626 -8.460461,2.648 c 0.298062,0.2299 0.561407,0.504 0.87385,0.7151 0.957957,0.6471 1.981334,1.1994 3.058478,1.6551 1.07714,0.4555 2.204053,0.806 3.376239,1.0459 1.172188,0.2397 2.384707,0.3707 3.627804,0.3707 1.243096,0 2.455616,-0.131 3.627804,-0.3707 1.172187,-0.2399 2.299099,-0.5904 3.37624,-1.0459 1.07714,-0.4557 2.100519,-1.008 3.058477,-1.6551 0.957958,-0.6473 1.859872,-1.3832 2.674512,-2.1979 0.701739,-0.7017 1.314621,-1.4944 1.893342,-2.3037 l -2.52887,-1.6022 -1.138653,-3.4688 2.46267,-4.6342 L 78,1011.5347 c -0.01134,-1.1816 -0.128971,-2.339 -0.357484,-3.4556 -0.239865,-1.1722 -0.59038,-2.2991 -1.045973,-3.3764 -0.455593,-1.077 -1.007836,-2.1004 -1.655019,-3.0584 -0.647185,-0.9579 -1.383228,-1.85989 -2.197868,-2.67451 -0.814639,-0.81463 -1.716553,-1.55068 -2.674512,-2.19786 -0.957957,-0.64719 -1.981334,-1.19943 -3.058475,-1.65502 -0.768325,-0.32497 -1.591266,-0.52448 -2.40971,-0.74144 l -4.408971,-0.0132 z m -5.732988,5.05772 0.251562,2.3304 -0.781169,-1.3109 0.529606,-1.0195 z m -2.806914,0.45021 1.880103,1.94639 -0.83413,0.7546 -1.919824,-1.8139 0.873851,-0.88709 z m -6.077232,1.15189 c -0.159048,0.2143 -0.353524,0.4008 -0.503127,0.6223 -0.647183,0.958 -1.199427,1.9814 -1.65502,3.0584 -0.455592,1.0773 -0.806107,2.2042 -1.045974,3.3763 C 42.130859,1009.2512 42,1010.4637 42,1011.7068 c 0,1.2431 0.130859,2.4557 0.370723,3.6278 0.239867,1.1722 0.590382,2.2992 1.045974,3.3763 0.271616,0.6422 0.638329,1.2256 0.979772,1.8271 l 2.992276,-3.6939 -1.403457,-2.0125 0.92681,-6.3157 1.602061,-0.8208 0.860609,-1.5094 -2.052225,-1.1783 0.172123,-2.2642 -1.257814,-0.5825 -0.662008,-1.1387 z m 8.698783,1.814 3.031996,4.144 -0.834129,-0.1059 -2.873115,-3.4423 0.675248,-0.5958 z"
       style="opacity:0.4;fill:#000000;fill-opacity:1;stroke:none" />
    <path
       style="fill:#eaebff;fill-opacity:1;stroke:none"
       d="m 60.191978,992.36218 -0.940051,1.58882 -0.794409,-0.62228 -1.297537,0.34424 -0.489885,1.27105 -3.005517,0.55608 -0.556085,2.27729 -0.979773,-0.55602 -0.105921,-1.84042 -1.535858,-0.90034 c -0.173758,0.10896 -0.373144,0.17663 -0.542847,0.29129 -0.957956,0.64718 -1.859871,1.38323 -2.674512,2.19786 -0.02433,0.0244 -0.04201,0.055 -0.06619,0.0795 l 0.291282,0.17216 1.58882,-0.0795 0.489886,0.90034 -1.218095,1.42992 1.085693,0.83413 -0.728209,2.0125 2.012505,1.1651 2.51563,0.3443 1.085693,1.3902 2.661272,1.6683 -0.83413,1.8933 2.144906,1.2975 -0.926812,2.2377 1.549099,0.887 2.290547,4.8989 -1.880102,0.715 -1.800662,2.4626 -8.460461,2.648 c 0.298062,0.2299 0.561407,0.504 0.87385,0.7151 0.957957,0.6471 1.981334,1.1994 3.058478,1.6551 1.07714,0.4555 2.204053,0.806 3.376239,1.0459 1.172188,0.2397 2.384707,0.3707 3.627804,0.3707 1.243096,0 2.455616,-0.131 3.627804,-0.3707 1.172187,-0.2399 2.299099,-0.5904 3.37624,-1.0459 1.07714,-0.4557 2.100519,-1.008 3.058477,-1.6551 0.957958,-0.6473 1.859872,-1.3832 2.674512,-2.1979 0.701739,-0.7017 1.314621,-1.4944 1.893342,-2.3037 l -2.52887,-1.6022 -1.138653,-3.4688 2.46267,-4.6342 L 78,1009.5347 c -0.01134,-1.1816 -0.128971,-2.339 -0.357484,-3.4556 -0.239865,-1.1722 -0.59038,-2.2991 -1.045973,-3.3764 -0.455593,-1.077 -1.007836,-2.1004 -1.655019,-3.05842 -0.647185,-0.95791 -1.383228,-1.85987 -2.197868,-2.67449 -0.814639,-0.81463 -1.716553,-1.55068 -2.674512,-2.19786 -0.957957,-0.64719 -1.981334,-1.19943 -3.058475,-1.65502 -0.768325,-0.32497 -1.591266,-0.52448 -2.40971,-0.74144 l -4.408971,-0.0132 z m -5.732988,5.05772 0.251562,2.33037 -0.781169,-1.31088 0.529606,-1.01949 z m -2.806914,0.45021 1.880103,1.94637 -0.83413,0.75462 -1.919824,-1.81393 0.873851,-0.88706 z m -6.077232,1.1519 c -0.159048,0.21425 -0.353524,0.40084 -0.503127,0.62227 -0.647183,0.95802 -1.199427,1.98142 -1.65502,3.05842 -0.455592,1.0773 -0.806107,2.2042 -1.045974,3.3763 C 42.130859,1007.2512 42,1008.4637 42,1009.7068 c 0,1.2431 0.130859,2.4557 0.370723,3.6278 0.239867,1.1722 0.590382,2.2992 1.045974,3.3763 0.271616,0.6422 0.638329,1.2256 0.979772,1.8271 l 2.992276,-3.6939 -1.403457,-2.0125 0.92681,-6.3157 1.602061,-0.8208 0.860609,-1.5094 -2.052225,-1.1783 0.172123,-2.2642 -1.257814,-0.5825 -0.662008,-1.13869 z m 8.698783,1.81399 3.031996,4.144 -0.834129,-0.1059 -2.873115,-3.4423 0.675248,-0.5958 z"
       id="path3025"
       inkscape:connector-curvature="0" />
  </g>
</svg>
