<!-- color: #d93f3f -->
<svg xmlns="http://www.w3.org/2000/svg" xmlns:xlink="http://www.w3.org/1999/xlink" width="48px" height="48px" viewBox="0 0 48 48" version="1.1">
<g id="surface1">
<path style=" stroke:none;fill-rule:nonzero;fill:rgb(97.647059%,97.647059%,97.647059%);fill-opacity:1;" d="M 12 28.363281 C 12 28.363281 12 33.816406 18 33.816406 L 30 33.816406 C 36 33.816406 36 28.363281 36 28.363281 L 36 17.453125 C 36 12 30 12 30 12 L 18 12 C 12 12 12 17.453125 12 17.453125 M 12 28.363281 "/>
<path style=" stroke:none;fill-rule:nonzero;fill:rgb(86.27451%,86.27451%,86.27451%);fill-opacity:1;" d="M 30 36 C 36 36 36 28.363281 36 28.363281 C 36 28.363281 36 33.816406 30 33.816406 L 18 33.816406 C 12 33.816406 12 28.363281 12 28.363281 C 12 28.363281 12 36 18 36 M 30 36 "/>
<path style=" stroke:none;fill-rule:nonzero;fill:rgb(52.54902%,52.54902%,52.54902%);fill-opacity:1;" d="M 23.898438 27.867188 L 22.613281 24.742188 L 18.480469 24.742188 L 17.210938 27.867188 L 16 27.867188 L 20.074219 18 L 21.085938 18 L 25.140625 27.867188 L 23.898438 27.867188 M 22.242188 23.710938 L 21.042969 20.667969 C 20.886719 20.28125 20.726562 19.808594 20.5625 19.25 C 20.457031 19.679688 20.3125 20.152344 20.117188 20.667969 L 18.90625 23.710938 L 22.242188 23.710938 "/>
<path style=" stroke:none;fill-rule:nonzero;fill:rgb(52.54902%,52.54902%,52.54902%);fill-opacity:1;" d="M 31.128906 27.867188 L 30.894531 26.816406 L 30.839844 26.816406 C 30.453125 27.277344 30.070312 27.59375 29.683594 27.757812 C 29.300781 27.917969 28.824219 28 28.25 28 C 27.484375 28 26.882812 27.8125 26.445312 27.433594 C 26.015625 27.058594 25.796875 26.523438 25.796875 25.828125 C 25.796875 24.34375 27.046875 23.5625 29.542969 23.492188 L 30.855469 23.449219 L 30.855469 22.992188 C 30.855469 22.414062 30.722656 21.992188 30.460938 21.714844 C 30.199219 21.4375 29.785156 21.300781 29.214844 21.300781 C 28.566406 21.300781 27.84375 21.488281 27.023438 21.863281 L 26.664062 21.011719 C 27.054688 20.8125 27.46875 20.660156 27.914062 20.546875 C 28.371094 20.433594 28.824219 20.378906 29.28125 20.378906 C 30.203125 20.378906 30.886719 20.574219 31.328125 20.964844 C 31.773438 21.351562 31.996094 21.976562 31.996094 22.839844 L 31.996094 27.871094 L 31.136719 27.871094 M 28.488281 27.082031 C 29.21875 27.082031 29.789062 26.894531 30.203125 26.511719 C 30.621094 26.132812 30.828125 25.597656 30.828125 24.914062 L 30.828125 24.246094 L 29.660156 24.292969 C 28.726562 24.324219 28.058594 24.464844 27.640625 24.710938 C 27.234375 24.953125 27.027344 25.332031 27.027344 25.847656 C 27.027344 26.25 27.15625 26.558594 27.410156 26.765625 C 27.667969 26.976562 28.027344 27.082031 28.488281 27.082031 "/>
</g>
</svg>
