<!-- color: #bebebe -->
<svg xmlns="http://www.w3.org/2000/svg" xmlns:xlink="http://www.w3.org/1999/xlink" width="48px" height="48px" viewBox="0 0 48 48" version="1.1">
<g id="surface1">
<path style=" stroke:none;fill-rule:nonzero;fill:rgb(80%,80%,80%);fill-opacity:1;" d="M 23 32 C 23 34.207031 21.207031 36 19 36 C 16.789062 36 15 34.207031 15 32 C 15 29.789062 16.789062 28 19 28 C 21.207031 28 23 29.789062 23 32 M 23 32 "/>
<path style=" stroke:none;fill-rule:nonzero;fill:rgb(20%,20%,20%);fill-opacity:1;" d="M 25 27 C 25 30.3125 22.3125 33 19 33 C 15.683594 33 13 30.3125 13 27 C 13 23.683594 15.683594 21 19 21 C 22.3125 21 25 23.683594 25 27 M 25 27 "/>
<path style=" stroke:none;fill-rule:nonzero;fill:rgb(80%,80%,80%);fill-opacity:1;" d="M 25 32 C 25 34.207031 26.789062 36 29 36 C 31.207031 36 33 34.207031 33 32 C 33 29.789062 31.207031 28 29 28 C 26.789062 28 25 29.789062 25 32 M 25 32 "/>
<path style=" stroke:none;fill-rule:nonzero;fill:rgb(20%,20%,20%);fill-opacity:1;" d="M 35 27 C 35 30.3125 32.3125 33 29 33 C 25.683594 33 23 30.3125 23 27 C 23 23.683594 25.683594 21 29 21 C 32.3125 21 35 23.683594 35 27 M 35 27 "/>
<path style=" stroke:none;fill-rule:nonzero;fill:rgb(29.803922%,29.803922%,29.803922%);fill-opacity:1;" d="M 30 21 C 30 24.3125 27.3125 27 24 27 C 20.6875 27 18 24.3125 18 21 C 18 17.6875 20.6875 15 24 15 C 27.3125 15 30 17.6875 30 21 M 30 21 "/>
<path style=" stroke:none;fill-rule:nonzero;fill:rgb(89.803922%,89.803922%,89.803922%);fill-opacity:1;" d="M 19 27 C 19 29.207031 17.207031 31 15 31 C 12.789062 31 11 29.207031 11 27 C 11 24.789062 12.789062 23 15 23 C 17.207031 23 19 24.789062 19 27 M 19 27 "/>
<path style=" stroke:none;fill-rule:nonzero;fill:rgb(89.803922%,89.803922%,89.803922%);fill-opacity:1;" d="M 29 27 C 29 29.207031 30.789062 31 33 31 C 35.207031 31 37 29.207031 37 27 C 37 24.789062 35.207031 23 33 23 C 30.789062 23 29 24.789062 29 27 M 29 27 "/>
<path style=" stroke:none;fill-rule:nonzero;fill:rgb(41.176471%,0%,50.196078%);fill-opacity:1;" d="M 29 17 C 29 19.761719 26.761719 22 24 22 C 21.238281 22 19 19.761719 19 17 C 19 14.238281 21.238281 12 24 12 C 26.761719 12 29 14.238281 29 17 M 29 17 "/>
</g>
</svg>
