<!-- color: #935235 -->
<svg xmlns="http://www.w3.org/2000/svg" xmlns:xlink="http://www.w3.org/1999/xlink" width="48px" height="48px" viewBox="0 0 48 48" version="1.1">
<defs>
<clipPath id="clip1">
  <path d="M 15.5 16.976562 L 23.59375 16.976562 L 23.59375 19.078125 L 15.5 19.078125 Z M 15.5 19.078125 L 18.058594 19.078125 L 18.058594 22.949219 L 15.5 22.949219 Z M 15.5 22.949219 L 23.21875 22.949219 L 23.21875 25.050781 L 15.5 25.050781 Z M 15.5 25.050781 L 18.058594 25.050781 L 18.058594 31 L 15.5 31 Z M 15.5 25.050781 "/>
</clipPath>
<clipPath id="clip2">
  <path d="M 25 16 L 35 16 L 35 32 L 25 32 Z M 25 16 "/>
</clipPath>
<clipPath id="clip3">
  <path d="M 25.089844 16.320312 L 25.089844 28.242188 C 25.089844 29.285156 25.054688 30.40625 25.015625 31.09375 L 27.109375 31.09375 L 27.203125 29.492188 L 27.242188 29.492188 C 27.796875 30.613281 28.917969 31.320312 30.273438 31.320312 C 32.480469 31.320312 34.234375 29.261719 34.234375 26.140625 C 34.253906 22.75 32.308594 20.730469 30.082031 20.730469 C 28.804688 20.730469 27.890625 21.316406 27.472656 22.0625 L 27.433594 22.0625 L 27.433594 16.320312 M 27.511719 27.453125 C 27.453125 27.222656 27.433594 26.972656 27.433594 26.703125 L 27.433594 25.183594 C 27.433594 24.976562 27.453125 24.726562 27.492188 24.519531 C 27.699219 23.519531 28.441406 22.707031 29.511719 22.707031 C 31.011719 22.707031 31.851562 24.164062 31.851562 26.058594 C 31.851562 27.910156 31.015625 29.261719 29.527344 29.261719 C 28.578125 29.261719 27.738281 28.554688 27.507812 27.453125 "/>
</clipPath>
</defs>
<g id="surface1">
<g clip-path="url(#clip1)" clip-rule="nonzero">
<path style=" stroke:none;fill-rule:nonzero;fill:rgb(98.431373%,50.196078%,20.784314%);fill-opacity:1;" d="M 15.5 16.976562 L 15.5 30.996094 L 18.058594 30.996094 L 18.058594 25.046875 L 23.21875 25.046875 L 23.21875 22.945312 L 18.058594 22.945312 L 18.058594 19.074219 L 23.59375 19.074219 L 23.59375 16.972656 M 15.5 16.972656 "/>
</g>
<g clip-path="url(#clip2)" clip-rule="nonzero">
<g clip-path="url(#clip3)" clip-rule="nonzero">
<path style=" stroke:none;fill-rule:nonzero;fill:rgb(98.431373%,50.196078%,20.784314%);fill-opacity:1;" d="M 25.089844 16.320312 L 25.089844 28.242188 C 25.089844 29.285156 25.054688 30.40625 25.015625 31.09375 L 27.109375 31.09375 L 27.203125 29.492188 L 27.242188 29.492188 C 27.796875 30.613281 28.917969 31.320312 30.273438 31.320312 C 32.480469 31.320312 34.234375 29.261719 34.234375 26.140625 C 34.253906 22.75 32.308594 20.730469 30.082031 20.730469 C 28.804688 20.730469 27.890625 21.316406 27.472656 22.0625 L 27.433594 22.0625 L 27.433594 16.320312 M 27.511719 27.453125 C 27.453125 27.222656 27.433594 26.972656 27.433594 26.703125 L 27.433594 25.183594 C 27.433594 24.976562 27.453125 24.726562 27.492188 24.519531 C 27.699219 23.519531 28.441406 22.707031 29.511719 22.707031 C 31.011719 22.707031 31.851562 24.164062 31.851562 26.058594 C 31.851562 27.910156 31.015625 29.261719 29.527344 29.261719 C 28.578125 29.261719 27.738281 28.554688 27.507812 27.453125 "/>
</g>
</g>
</g>
</svg>
