<!-- color: #eeeeee -->
<svg xmlns="http://www.w3.org/2000/svg" xmlns:xlink="http://www.w3.org/1999/xlink" width="48px" height="48px" viewBox="0 0 48 48" version="1.1">
<g id="surface1">
<path style=" stroke:none;fill-rule:nonzero;fill:rgb(97.647059%,97.647059%,97.647059%);fill-opacity:1;" d="M 15 12 C 15 12 14 12 14 13 L 14 35 C 14 35 14 36 15 36 L 33 36 C 33 36 33.996094 36 33.996094 35 L 33.996094 20.003906 L 25.996094 12.003906 C 22.285156 12 17.253906 12 15 12 M 15 12.003906 "/>
<path style=" stroke:none;fill-rule:nonzero;fill:rgb(23.137255%,67.058824%,91.764706%);fill-opacity:1;" d="M 24.5 24 C 22.011719 24 20 25.789062 20 28 C 20 30.210938 22.011719 32 24.5 32 C 26.984375 32 29 30.210938 29 28 C 29 25.789062 26.980469 24 24.5 24 M 24.5 24 "/>
<path style=" stroke:none;fill-rule:nonzero;fill:rgb(92.54902%,29.019608%,29.019608%);fill-opacity:1;" d="M 32.8125 27.535156 C 32.625 27.316406 32.414062 27.109375 32.207031 26.90625 C 31.089844 25.8125 29.800781 24.839844 28.390625 24.128906 C 27.488281 23.675781 26.523438 23.3125 25.527344 23.136719 C 25.019531 23.050781 24.519531 23.003906 24.007812 23.003906 C 23.492188 23.003906 22.984375 23.050781 22.484375 23.136719 C 21.484375 23.3125 20.523438 23.675781 19.621094 24.128906 C 18.210938 24.839844 16.921875 25.8125 15.800781 26.90625 C 15.589844 27.109375 15.386719 27.316406 15.199219 27.535156 C 14.945312 27.828125 14.945312 28.171875 15.199219 28.46875 C 15.773438 29.136719 16.457031 29.730469 17.148438 30.273438 C 18.644531 31.445312 20.355469 32.425781 22.25 32.820312 C 22.832031 32.941406 23.417969 33.003906 24.007812 33.003906 C 24.601562 33.003906 25.183594 32.941406 25.769531 32.820312 C 27.65625 32.429688 29.371094 31.445312 30.871094 30.273438 C 31.566406 29.730469 32.25 29.136719 32.824219 28.46875 C 33.074219 28.171875 33.074219 27.828125 32.824219 27.535156 M 24.003906 31.40625 C 22.09375 31.402344 20.542969 29.878906 20.542969 28 C 20.542969 26.121094 22.09375 24.597656 24.003906 24.59375 C 25.929688 24.597656 27.460938 26.121094 27.460938 28 C 27.460938 29.878906 25.929688 31.402344 24.003906 31.40625 M 24.003906 31.40625 "/>
<path style=" stroke:none;fill-rule:nonzero;fill:rgb(17.647059%,17.647059%,17.647059%);fill-opacity:1;" d="M 24 26.5 C 23.167969 26.5 22.5 27.171875 22.5 28 C 22.5 28.828125 23.167969 29.496094 24 29.496094 C 24.828125 29.496094 25.496094 28.828125 25.496094 28 C 25.496094 27.171875 24.824219 26.5 24 26.5 M 24 26.5 "/>
<path style=" stroke:none;fill-rule:nonzero;fill:rgb(87.058824%,87.058824%,87.058824%);fill-opacity:1;" d="M 34 20 L 26 12 C 25.996094 16 26 18 26 19 C 26 20 26 20 27 20 C 28 20 31.097656 20.007812 34 20 M 34 20 "/>
</g>
</svg>
