<!-- color: #3d3d3d -->
<svg xmlns="http://www.w3.org/2000/svg" xmlns:xlink="http://www.w3.org/1999/xlink" width="48px" height="48px" viewBox="0 0 48 48" version="1.1">
<defs>
<linearGradient id="linear0" gradientUnits="userSpaceOnUse" x1="89.34" y1="93.88" x2="94.27" y2="34.86" gradientTransform="matrix(0.0290589,0,0,0.0604545,21.404909,24.768589)">
<stop offset="0" style="stop-color:rgb(84.313725%,76.078431%,53.333333%);stop-opacity:1;"/>
<stop offset="1" style="stop-color:rgb(100%,86.666667%,36.078431%);stop-opacity:0;"/>
</linearGradient>
<linearGradient id="linear1" gradientUnits="userSpaceOnUse" x1="89.34" y1="93.88" x2="94.27" y2="34.86" gradientTransform="matrix(0.0213498,0,0,0.0444165,22.078489,25.91912)">
<stop offset="0" style="stop-color:rgb(84.313725%,76.078431%,53.333333%);stop-opacity:1;"/>
<stop offset="1" style="stop-color:rgb(100%,86.666667%,36.078431%);stop-opacity:0;"/>
</linearGradient>
<linearGradient id="linear2" gradientUnits="userSpaceOnUse" x1="89.34" y1="93.88" x2="94.27" y2="34.86" gradientTransform="matrix(0.0131873,0,0,0.027435,22.791692,27.13754)">
<stop offset="0" style="stop-color:rgb(84.313725%,76.078431%,53.333333%);stop-opacity:1;"/>
<stop offset="1" style="stop-color:rgb(100%,86.666667%,36.078431%);stop-opacity:0;"/>
</linearGradient>
</defs>
<g id="surface1">
<path style=" stroke:none;fill-rule:nonzero;fill:rgb(55.686275%,44.705882%,32.54902%);fill-opacity:1;" d="M 24 13.601562 C 24 13.601562 19.597656 11.105469 18.292969 12.347656 C 17.640625 12.96875 16.816406 14.183594 16.933594 15.347656 C 17.148438 17.554688 18.75 22.230469 19.089844 22.609375 C 19.429688 22.988281 19.828125 23.179688 19.941406 23.027344 C 20.054688 22.875 20.339844 22.34375 19.941406 22.304688 C 19.542969 22.265625 18.238281 18.808594 18.125 18.046875 C 18.011719 17.285156 17.171875 15.261719 17.90625 13.855469 C 18.644531 12.449219 18.859375 12.492188 19.714844 12.492188 C 20.566406 12.492188 24.003906 14.207031 24.003906 14.207031 M 24 13.597656 "/>
<path style=" stroke:none;fill-rule:nonzero;fill:rgb(55.686275%,45.882353%,32.54902%);fill-opacity:1;" d="M 21.78125 24.199219 L 26.21875 24.199219 C 27.753906 24.199219 29 24.417969 29 24.683594 L 29 35.519531 C 29 35.785156 27.753906 36 26.21875 36 L 21.78125 36 C 20.246094 36 19 35.785156 19 35.519531 L 19 24.683594 C 19 24.417969 20.246094 24.199219 21.78125 24.199219 M 21.78125 24.199219 "/>
<path style=" stroke:none;fill-rule:nonzero;fill:rgb(47.058824%,38.431373%,27.058824%);fill-opacity:1;" d="M 16 24.050781 C 16 25.3125 31.847656 25.132812 32 24.59375 C 30.726562 22.15625 26.886719 16.960938 24.113281 17.011719 C 21.488281 16.792969 16.136719 23.085938 16 24.050781 M 15.996094 24.050781 "/>
<path style=" stroke:none;fill-rule:nonzero;fill:rgb(9.019608%,7.45098%,6.27451%);fill-opacity:1;" d="M 28.058594 22.695312 C 28.058594 23.042969 27.6875 23.324219 27.226562 23.324219 C 26.765625 23.324219 26.394531 23.042969 26.394531 22.695312 C 26.394531 22.347656 26.765625 22.0625 27.226562 22.0625 C 27.6875 22.0625 28.058594 22.347656 28.058594 22.695312 M 28.058594 22.695312 "/>
<path style=" stroke:none;fill-rule:nonzero;fill:rgb(55.686275%,44.705882%,32.54902%);fill-opacity:1;" d="M 24 13.597656 C 24 13.597656 27.382812 11.203125 28.773438 12.347656 C 29.691406 13.101562 30.050781 13.652344 30.136719 15.347656 C 30.246094 17.558594 28.316406 22.230469 27.976562 22.609375 C 27.636719 22.988281 27.242188 23.179688 27.128906 23.027344 C 27.015625 22.875 26.996094 22.277344 27.394531 22.238281 C 27.789062 22.199219 28.671875 19.78125 29.078125 18.113281 C 29.585938 16.007812 29.566406 14.796875 29.15625 13.859375 C 28.53125 12.398438 28.203125 12.496094 27.351562 12.496094 C 26.5 12.496094 23.992188 14.21875 23.992188 14.21875 M 24 13.59375 "/>
<path style=" stroke:none;fill-rule:nonzero;fill:rgb(0%,0%,0%);fill-opacity:0.603922;" d="M 23.429688 26 L 24.570312 26 C 26.464844 26 28 26.21875 28 26.484375 L 28 34.515625 C 28 34.785156 26.464844 34.992188 24.570312 34.992188 L 23.429688 34.992188 C 21.535156 34.992188 20 34.777344 20 34.515625 L 20 26.484375 C 20 26.21875 21.535156 26 23.429688 26 M 23.429688 26 "/>
<path style=" stroke:none;fill-rule:nonzero;fill:rgb(55.686275%,44.705882%,32.54902%);fill-opacity:0.556863;" d="M 28 34.601562 C 28 34.929688 26.207031 35.199219 24 35.199219 C 21.789062 35.199219 20 34.929688 20 34.601562 C 20 34.269531 21.789062 34 24 34 C 26.207031 34 28 34.269531 28 34.601562 M 28 34.601562 "/>
<path style=" stroke:none;fill-rule:nonzero;fill:rgb(78.039216%,72.54902%,66.27451%);fill-opacity:1;" d="M 24 29.671875 C 24.550781 29.671875 24.996094 29.804688 24.996094 29.972656 L 24.996094 34.398438 C 24.996094 34.566406 24.550781 34.699219 24 34.699219 C 23.445312 34.699219 23 34.566406 23 34.398438 L 23 29.972656 C 23 29.804688 23.445312 29.671875 24 29.671875 M 24 29.671875 "/>
<path style=" stroke:none;fill-rule:nonzero;fill:url(#linear0);" d="M 24.65625 29.109375 C 24.65625 29.886719 24.335938 30.515625 23.941406 30.515625 C 23.546875 30.515625 23.226562 29.886719 23.226562 29.109375 C 23.226562 28.332031 23.546875 27.703125 23.941406 27.703125 C 24.335938 27.703125 24.65625 28.332031 24.65625 29.109375 M 24.65625 29.109375 "/>
<path style=" stroke:none;fill-rule:nonzero;fill:url(#linear1);" d="M 24.46875 29.109375 C 24.46875 29.679688 24.234375 30.144531 23.945312 30.144531 C 23.652344 30.144531 23.417969 29.679688 23.417969 29.109375 C 23.417969 28.539062 23.652344 28.074219 23.945312 28.074219 C 24.234375 28.074219 24.46875 28.539062 24.46875 29.109375 M 24.46875 29.109375 "/>
<path style=" stroke:none;fill-rule:nonzero;fill:url(#linear2);" d="M 24.269531 29.109375 C 24.25 29.433594 24.109375 29.679688 23.945312 29.679688 C 23.777344 29.679688 23.636719 29.433594 23.621094 29.109375 C 23.605469 28.867188 23.664062 28.628906 23.769531 28.5 C 23.875 28.371094 24.011719 28.371094 24.117188 28.5 C 24.222656 28.628906 24.28125 28.867188 24.269531 29.109375 M 24.269531 29.109375 "/>
</g>
</svg>
