<!-- color: #3d3d3d -->
<svg xmlns="http://www.w3.org/2000/svg" xmlns:xlink="http://www.w3.org/1999/xlink" width="48px" height="48px" viewBox="0 0 48 48" version="1.1">
<g id="surface1">
<path style=" stroke:none;fill-rule:nonzero;fill:rgb(30.588235%,87.058824%,35.686275%);fill-opacity:1;" d="M 31.128906 20.058594 C 32.214844 20.40625 31.261719 22.023438 32.820312 22.8125 C 34.597656 23.714844 35.484375 21.433594 36.550781 23.0625 C 37.617188 24.691406 35.074219 24.441406 35.144531 26.359375 C 35.21875 28.277344 37.734375 27.867188 36.789062 29.5625 C 35.847656 31.253906 34.800781 29.035156 33.089844 30.046875 C 31.382812 31.0625 33.015625 32.933594 31.003906 33 C 28.996094 33.0625 30.488281 31.09375 28.707031 30.1875 C 26.929688 29.285156 26.042969 31.566406 24.976562 29.9375 C 23.910156 28.308594 26.449219 28.558594 26.378906 26.640625 C 26.308594 24.726562 23.792969 25.132812 24.734375 23.4375 C 25.679688 21.746094 26.726562 23.96875 28.433594 22.953125 C 30.144531 21.941406 28.511719 20.066406 30.523438 20.003906 C 30.773438 19.996094 30.972656 20.007812 31.128906 20.058594 M 31.105469 24.941406 C 30.210938 24.757812 29.328125 25.304688 29.136719 26.171875 C 28.945312 27.027344 29.519531 27.878906 30.417969 28.058594 C 31.3125 28.242188 32.195312 27.695312 32.386719 26.828125 C 32.578125 25.976562 32.003906 25.121094 31.105469 24.941406 M 31.105469 24.941406 "/>
<path style=" stroke:none;fill-rule:nonzero;fill:rgb(98.431373%,34.901961%,41.176471%);fill-opacity:1;" d="M 22.484375 12.058594 C 23.574219 12.40625 22.621094 14.019531 24.175781 14.8125 C 25.953125 15.714844 26.839844 13.433594 27.90625 15.0625 C 28.972656 16.691406 26.433594 16.441406 26.503906 18.359375 C 26.574219 20.273438 29.089844 19.867188 28.148438 21.5625 C 27.207031 23.253906 26.15625 21.03125 24.449219 22.046875 C 22.742188 23.058594 24.375 24.933594 22.363281 24.996094 C 20.34375 25.0625 21.84375 23.089844 20.066406 22.1875 C 18.285156 21.285156 17.402344 23.566406 16.335938 21.9375 C 15.269531 20.308594 17.808594 20.558594 17.738281 18.640625 C 17.667969 16.722656 15.152344 17.132812 16.09375 15.4375 C 17.035156 13.746094 18.085938 15.964844 19.792969 14.953125 C 21.5 13.9375 19.867188 12.066406 21.878906 12 C 22.132812 11.992188 22.328125 12.007812 22.484375 12.058594 M 22.464844 16.941406 C 21.566406 16.757812 20.6875 17.304688 20.488281 18.171875 C 20.300781 19.027344 20.878906 19.878906 21.765625 20.058594 C 22.664062 20.242188 23.542969 19.695312 23.734375 18.828125 C 23.925781 17.976562 23.351562 17.121094 22.464844 16.941406 M 22.464844 16.941406 "/>
<path style=" stroke:none;fill-rule:nonzero;fill:rgb(17.254902%,69.019608%,87.058824%);fill-opacity:1;" d="M 19.605469 23.050781 C 20.691406 23.398438 19.738281 25.015625 21.296875 25.804688 C 23.074219 26.710938 23.960938 24.425781 25.027344 26.058594 C 26.09375 27.6875 23.550781 27.433594 23.625 29.351562 C 23.695312 31.269531 26.210938 30.863281 25.265625 32.554688 C 24.324219 34.25 23.277344 32.027344 21.566406 33.039062 C 19.859375 34.054688 21.492188 35.929688 19.480469 35.992188 C 17.46875 36.054688 18.964844 34.085938 17.183594 33.183594 C 15.40625 32.277344 14.519531 34.5625 13.453125 32.929688 C 12.386719 31.300781 14.929688 31.554688 14.855469 29.636719 C 14.785156 27.71875 12.269531 28.117188 13.214844 26.433594 C 14.15625 24.738281 15.203125 26.960938 16.914062 25.949219 C 18.621094 24.933594 16.988281 23.058594 19 22.996094 C 19.25 22.988281 19.449219 23.003906 19.605469 23.050781 M 19.582031 27.933594 C 18.6875 27.75 17.804688 28.300781 17.613281 29.160156 C 17.421875 30.023438 17.996094 30.867188 18.894531 31.050781 C 19.789062 31.234375 20.671875 30.683594 20.863281 29.824219 C 21.054688 28.960938 20.480469 28.117188 19.582031 27.933594 M 19.582031 27.933594 "/>
</g>
</svg>
