<!-- color: #93c0ec -->
<svg xmlns="http://www.w3.org/2000/svg" xmlns:xlink="http://www.w3.org/1999/xlink" width="48px" height="48px" viewBox="0 0 48 48" version="1.1">
<g id="surface1">
<path style=" stroke:none;fill-rule:evenodd;fill:rgb(100%,100%,100%);fill-opacity:1;" d="M 23.347656 10.84375 C 23.289062 11.171875 23.226562 11.503906 23.160156 11.835938 C 17.84375 12.171875 12.398438 16.347656 12.089844 23.128906 L 11.976562 23.128906 L 11.976562 24.367188 C 10.789062 24.777344 10.328125 26.703125 10.476562 27.796875 C 10.582031 29.207031 10.933594 30.261719 12.386719 30.738281 C 12.398438 30.59375 12.414062 30.4375 12.425781 30.289062 L 12.445312 30.792969 C 12.886719 30.882812 13.195312 30.921875 13.402344 30.851562 L 13.417969 31.546875 C 13.789062 31.695312 13.996094 31.726562 14.113281 31.453125 C 14.117188 31.53125 14.128906 31.617188 14.132812 31.699219 C 14.59375 31.921875 15.367188 31.976562 15.835938 31.789062 C 15.988281 31.695312 16.09375 31.378906 16.191406 30.945312 C 18.726562 34.65625 23.683594 35.789062 28.164062 34.035156 C 29.539062 33.585938 30.921875 32.675781 31.890625 31.488281 C 31.96875 31.71875 32.050781 31.910156 32.152344 31.976562 C 32.621094 32.160156 33.390625 32.101562 33.855469 31.882812 C 33.859375 31.804688 33.871094 31.71875 33.878906 31.636719 C 33.992188 31.910156 34.195312 31.878906 34.570312 31.730469 L 34.589844 31.035156 C 34.796875 31.105469 35.105469 31.066406 35.546875 30.980469 L 35.566406 30.472656 C 35.574219 30.621094 35.59375 30.777344 35.605469 30.921875 C 37.058594 30.449219 37.410156 29.386719 37.515625 27.980469 C 37.660156 26.886719 37.199219 24.960938 36.015625 24.550781 L 36.015625 23.316406 L 35.921875 23.316406 C 35.71875 20.777344 34.835938 18.214844 33.226562 16.15625 C 31.246094 13.625 28.160156 11.851562 23.972656 11.808594 C 23.898438 11.808594 23.820312 11.808594 23.742188 11.808594 C 23.601562 11.488281 23.472656 11.167969 23.351562 10.835938 M 24.023438 12.414062 C 28.015625 12.46875 30.867188 14.144531 32.738281 16.535156 C 34.261719 18.476562 35.097656 20.90625 35.304688 23.320312 L 35.175781 23.320312 L 35.175781 24.425781 C 34.980469 24.394531 34.796875 24.359375 34.765625 24.359375 C 34.742188 24.382812 34.726562 24.394531 34.703125 24.425781 L 34.726562 23.535156 C 34.726562 23.535156 34.140625 23.347656 34.085938 23.347656 C 34.078125 23.351562 34.070312 23.375 34.066406 23.386719 C 34.050781 23.375 34.039062 23.351562 34.027344 23.347656 L 32.808594 23.347656 C 32.414062 23.519531 32.195312 23.910156 32.039062 24.339844 C 29.957031 20.183594 26.109375 16.703125 24.019531 12.40625 M 22.914062 12.464844 C 22.949219 12.464844 22.988281 12.464844 23.027344 12.464844 C 22.941406 12.84375 22.847656 13.214844 22.746094 13.585938 C 21.929688 17.574219 18.746094 20.390625 16.585938 23.6875 C 16.398438 23.960938 16.230469 24.265625 16.074219 24.570312 C 15.914062 23.980469 15.691406 23.390625 15.179688 23.160156 L 13.960938 23.160156 C 13.941406 23.167969 13.9375 23.191406 13.921875 23.199219 C 13.910156 23.191406 13.902344 23.171875 13.902344 23.160156 C 13.847656 23.160156 13.261719 23.351562 13.261719 23.351562 L 13.28125 24.230469 C 13.261719 24.210938 13.246094 24.1875 13.222656 24.175781 C 13.191406 24.175781 13.003906 24.203125 12.8125 24.230469 L 12.8125 23.125 L 12.679688 23.125 C 12.984375 16.78125 17.980469 12.90625 22.910156 12.460938 M 24.226562 24.570312 C 26.699219 24.570312 29.167969 24.789062 31.792969 25.132812 C 31.765625 25.238281 31.742188 25.351562 31.71875 25.449219 C 31.683594 25.609375 31.652344 25.808594 31.628906 26.015625 C 31.382812 25.988281 31.136719 25.96875 30.898438 25.941406 C 31.261719 26.578125 31.199219 28.023438 30.804688 28.636719 C 30.308594 29.402344 29.332031 29.984375 28.085938 30.0625 C 27.515625 30.085938 26.886719 30.0625 26.308594 29.929688 C 25.734375 29.796875 25.21875 29.546875 24.902344 29.105469 L 24.902344 29.085938 C 24.542969 28.636719 24.4375 28.128906 24.433594 27.625 C 24.429688 27.117188 24.507812 25.894531 24.492188 25.472656 C 24.179688 25.472656 23.867188 25.484375 23.554688 25.488281 C 23.535156 25.90625 23.597656 27.125 23.59375 27.621094 C 23.589844 28.132812 23.511719 28.652344 23.144531 29.105469 C 22.828125 29.554688 22.296875 29.796875 21.71875 29.929688 C 21.144531 30.066406 20.511719 30.085938 19.941406 30.0625 C 18.703125 29.984375 17.71875 29.40625 17.222656 28.636719 C 16.863281 28.078125 16.769531 26.707031 17.03125 26.109375 C 16.816406 26.148438 16.609375 26.179688 16.394531 26.222656 C 16.363281 25.878906 16.335938 25.570312 16.28125 25.324219 C 19.066406 24.789062 21.648438 24.570312 24.226562 24.570312 M 25.605469 25.484375 C 25.316406 25.523438 25.070312 25.574219 24.894531 25.636719 C 24.894531 26.054688 24.835938 26.484375 24.839844 26.890625 C 24.839844 27.355469 24.925781 27.773438 25.214844 28.125 L 25.214844 28.144531 C 25.441406 28.464844 25.871094 28.679688 26.394531 28.800781 C 26.917969 28.917969 27.515625 28.957031 28.0625 28.929688 C 29.1875 28.863281 30.050781 28.332031 30.460938 27.695312 C 30.851562 27.085938 30.84375 26.433594 30.3125 25.859375 C 28.699219 25.675781 27.148438 25.53125 25.609375 25.484375 M 22.308594 25.503906 C 20.761719 25.574219 19.179688 25.742188 17.550781 26.011719 C 17.546875 26.019531 17.554688 26.023438 17.550781 26.027344 C 17.164062 26.558594 17.199219 27.152344 17.550781 27.699219 C 17.960938 28.34375 18.820312 28.867188 19.949219 28.933594 C 20.492188 28.957031 21.09375 28.921875 21.617188 28.804688 C 22.136719 28.683594 22.570312 28.46875 22.796875 28.148438 L 22.796875 28.128906 C 23.085938 27.773438 23.164062 27.359375 23.171875 26.894531 C 23.175781 26.488281 23.132812 26.058594 23.132812 25.636719 C 22.972656 25.582031 22.742188 25.542969 22.476562 25.507812 L 22.308594 25.507812 M 22.308594 25.503906 "/>
</g>
</svg>
