<!-- color: #0055b5 -->
<svg xmlns="http://www.w3.org/2000/svg" xmlns:xlink="http://www.w3.org/1999/xlink" width="48px" height="48px" viewBox="0 0 48 48" version="1.1">
<g id="surface1">
<path style=" stroke:none;fill-rule:nonzero;fill:rgb(100%,100%,100%);fill-opacity:1;" d="M 31.347656 35.988281 L 23.980469 15.054688 L 16.652344 35.988281 L 13 35.988281 L 22.335938 9.988281 L 25.667969 9.988281 L 35 35.988281 L 31.347656 35.988281 "/>
<path style=" stroke:none;fill-rule:nonzero;fill:rgb(100%,100%,100%);fill-opacity:1;" d="M 27.199219 23.988281 C 26.007812 23.648438 24.699219 23.75 23.574219 24.261719 C 22.453125 24.777344 21.507812 25.742188 21.167969 27.078125 C 20.964844 27.894531 21.042969 28.773438 21.398438 29.53125 C 21.757812 30.292969 22.425781 30.941406 23.34375 31.152344 C 23.882812 31.273438 24.457031 31.207031 24.957031 30.953125 C 25.460938 30.703125 25.902344 30.21875 26.023438 29.574219 C 26.09375 29.203125 26.039062 28.824219 25.863281 28.476562 C 25.679688 28.132812 25.328125 27.816406 24.867188 27.746094 C 24.605469 27.707031 24.355469 27.753906 24.117188 27.890625 C 23.875 28.027344 23.636719 28.3125 23.605469 28.667969 L 24.832031 28.785156 C 24.824219 28.871094 24.746094 28.960938 24.722656 28.976562 C 24.695312 28.992188 24.714844 28.984375 24.6875 28.980469 C 24.726562 28.988281 24.734375 28.992188 24.769531 29.0625 C 24.808594 29.132812 24.828125 29.261719 24.8125 29.34375 C 24.769531 29.570312 24.636719 29.726562 24.410156 29.839844 C 24.179688 29.949219 23.863281 29.984375 23.613281 29.9375 C 23.09375 29.816406 22.742188 29.480469 22.515625 28.996094 C 22.289062 28.519531 22.234375 27.90625 22.363281 27.390625 C 22.605469 26.441406 23.242188 25.785156 24.085938 25.398438 C 24.929688 25.011719 25.964844 24.929688 26.867188 25.1875 C 29.484375 25.929688 30.90625 28.832031 30.558594 31.5 L 31.78125 31.660156 C 32.195312 28.441406 30.496094 24.925781 27.199219 23.988281 M 27.199219 23.988281 "/>
</g>
</svg>
