<!-- color: #5aa9e3 -->
<svg xmlns="http://www.w3.org/2000/svg" xmlns:xlink="http://www.w3.org/1999/xlink" width="48px" height="48px" viewBox="0 0 48 48" version="1.1">
<g id="surface1">
<path style=" stroke:none;fill-rule:nonzero;fill:rgb(17.647059%,17.647059%,17.647059%);fill-opacity:1;" d="M 9 30 L 8 35 L 40 35 L 39 30 M 9 30 "/>
<path style=" stroke:none;fill-rule:nonzero;fill:rgb(97.647059%,97.647059%,97.647059%);fill-opacity:1;" d="M 13.328125 26 L 16.671875 26 C 17.40625 26 18 26.59375 18 27.328125 L 18 30.671875 C 18 31.40625 17.40625 32 16.671875 32 L 13.328125 32 C 12.597656 32 12 31.40625 12 30.671875 L 12 27.328125 C 12 26.59375 12.597656 26 13.328125 26 M 13.328125 26 "/>
<path style=" stroke:none;fill-rule:nonzero;fill:rgb(97.647059%,97.647059%,97.647059%);fill-opacity:1;" d="M 22.328125 26 L 25.671875 26 C 26.40625 26 27 26.59375 27 27.328125 L 27 30.671875 C 27 31.40625 26.40625 32 25.671875 32 L 22.328125 32 C 21.597656 32 21 31.40625 21 30.671875 L 21 27.328125 C 21 26.59375 21.597656 26 22.328125 26 M 22.328125 26 "/>
<path style=" stroke:none;fill-rule:nonzero;fill:rgb(97.647059%,97.647059%,97.647059%);fill-opacity:1;" d="M 31.328125 26 L 34.679688 26 C 35.40625 26 36.007812 26.59375 36.007812 27.328125 L 36.007812 30.671875 C 36.007812 31.40625 35.40625 32 34.679688 32 L 31.328125 32 C 30.601562 32 30.007812 31.40625 30.007812 30.671875 L 30.007812 27.328125 C 30.007812 26.59375 30.605469 26 31.328125 26 M 31.328125 26 "/>
</g>
</svg>
