<!-- color: #5173bf -->
<svg xmlns="http://www.w3.org/2000/svg" xmlns:xlink="http://www.w3.org/1999/xlink" width="48px" height="48px" viewBox="0 0 48 48" version="1.1">
<defs>
<linearGradient id="linear0" gradientUnits="userSpaceOnUse" x1="23.295" y1="36.865" x2="23.668" y2="3.621" >
<stop offset="0" style="stop-color:rgb(85.882353%,20.392157%,20.392157%);stop-opacity:1;"/>
<stop offset="1" style="stop-color:rgb(98.431373%,35.686275%,35.686275%);stop-opacity:1;"/>
</linearGradient>
</defs>
<g id="surface1">
<path style=" stroke:none;fill-rule:nonzero;fill:url(#linear0);" d="M 11.675781 33.578125 L 19.523438 14.183594 L 23.800781 11.441406 L 27.886719 13.671875 L 34.585938 21.648438 L 35.289062 28.925781 L 32.609375 32.304688 M 11.675781 33.578125 "/>
<path style=" stroke:none;fill-rule:nonzero;fill:rgb(69.411765%,18.431373%,4.705882%);fill-opacity:1;" d="M 23.78125 11.15625 L 23.660156 11.222656 L 19.378906 13.972656 L 19.316406 14.003906 L 19.28125 14.09375 L 11.4375 33.503906 L 11.28125 33.84375 L 11.6875 33.84375 L 32.625 32.5625 L 32.71875 32.53125 L 32.8125 32.46875 L 35.46875 29.0625 L 35.53125 29 L 35.53125 28.90625 L 34.84375 21.625 L 34.8125 21.53125 L 34.78125 21.5 L 28.0625 13.5 L 28 13.4375 L 23.90625 11.21875 M 23.816406 11.722656 L 27.691406 13.847656 L 34.347656 21.753906 L 35.035156 28.867188 L 32.472656 32.058594 L 12.070312 33.308594 L 19.726562 14.367188 L 23.816406 11.71875 M 23.816406 11.722656 "/>
<path style=" stroke:none;fill-rule:nonzero;fill:rgb(69.411765%,18.431373%,4.705882%);fill-opacity:1;" d="M 19.28125 14.625 L 19.21875 22.253906 L 11.75 33.3125 L 12.15625 33.59375 L 19.660156 22.503906 L 19.722656 22.441406 L 19.722656 22.347656 L 19.785156 14.628906 M 19.28125 14.628906 "/>
<path style=" stroke:none;fill-rule:nonzero;fill:rgb(69.411765%,18.431373%,4.705882%);fill-opacity:1;" d="M 25.6875 14 L 25.34375 18.75 L 19.46875 22.472656 L 19.21875 22.59375 L 19.40625 22.816406 L 24.6875 29.597656 L 12.09375 33.003906 L 12.21875 33.46875 L 25.21875 30 L 25.5625 29.910156 L 25.339844 29.597656 L 19.964844 22.722656 L 25.71875 19.128906 L 25.808594 19.066406 L 25.839844 18.910156 L 26.183594 14.035156 L 25.683594 14.003906 M 25.6875 14 "/>
<path style=" stroke:none;fill-rule:nonzero;fill:rgb(69.411765%,18.431373%,4.705882%);fill-opacity:1;" d="M 27.96875 13.59375 L 19.402344 14.15625 L 19.433594 14.65625 L 28 14.089844 M 27.96875 13.59375 "/>
<path style=" stroke:none;fill-rule:nonzero;fill:rgb(69.411765%,18.431373%,4.705882%);fill-opacity:1;" d="M 25.75 18.84375 L 25.3125 19.09375 L 28.53125 24.5625 L 25.1875 29.75 L 25.59375 30 L 29.0625 24.722656 L 29.125 24.597656 L 29.0625 24.472656 L 25.75 18.847656 M 25.75 18.84375 "/>
<path style=" stroke:none;fill-rule:nonzero;fill:rgb(69.411765%,18.431373%,4.705882%);fill-opacity:1;" d="M 34.160156 21.472656 L 32.164062 32.207031 L 32.664062 32.300781 L 34.660156 21.566406 M 34.160156 21.472656 "/>
<path style=" stroke:none;fill-rule:nonzero;fill:rgb(69.411765%,18.431373%,4.705882%);fill-opacity:1;" d="M 29.058594 24.40625 L 28.871094 24.875 L 33.371094 26.46875 L 33.558594 26 M 29.058594 24.40625 "/>
<path style=" stroke:none;fill-rule:nonzero;fill:rgb(69.411765%,18.431373%,4.705882%);fill-opacity:1;" d="M 25.355469 29.566406 L 25.023438 30.007812 L 27.460938 31.890625 L 28.679688 32.777344 L 29.011719 32.332031 L 27.683594 31.445312 L 25.359375 29.566406 M 25.355469 29.566406 "/>
</g>
</svg>
