<!-- color: #e9af4b -->
<svg xmlns="http://www.w3.org/2000/svg" xmlns:xlink="http://www.w3.org/1999/xlink" width="48px" height="48px" viewBox="0 0 48 48" version="1.1">
<g id="surface1">
<path style=" stroke:none;fill-rule:nonzero;fill:rgb(97.647059%,97.647059%,97.647059%);fill-opacity:1;" d="M 34 24 C 34 29.523438 29.523438 34 24 34 C 18.476562 34 14 29.523438 14 24 C 14 18.476562 18.476562 14 24 14 C 29.523438 14 34 18.476562 34 24 M 34 24 "/>
<path style=" stroke:none;fill-rule:nonzero;fill:rgb(0%,0%,0%);fill-opacity:1;" d="M 16.058594 27.21875 L 18.320312 27.21875 L 18.320312 20.757812 L 16.007812 21.238281 L 16.007812 19.484375 L 18.3125 19.003906 L 20.746094 19.003906 L 20.746094 27.21875 L 23.007812 27.21875 L 23.007812 29 L 16.066406 29 L 16.066406 27.21875 "/>
<path style=" stroke:none;fill-rule:nonzero;fill:rgb(0%,0%,0%);fill-opacity:1;" d="M 30.078125 23.617188 C 30.714844 23.78125 31.183594 24.078125 31.511719 24.496094 C 31.828125 24.910156 31.996094 25.433594 31.996094 26.074219 C 31.996094 27.03125 31.644531 27.757812 30.9375 28.257812 C 30.230469 28.753906 29.203125 29 27.851562 29 C 27.371094 29 26.894531 28.960938 26.410156 28.878906 C 25.933594 28.800781 25.46875 28.683594 24.996094 28.523438 L 24.996094 26.605469 C 25.441406 26.839844 25.894531 27.015625 26.328125 27.132812 C 26.769531 27.25 27.214844 27.308594 27.640625 27.308594 C 28.277344 27.308594 28.761719 27.195312 29.097656 26.964844 C 29.4375 26.738281 29.609375 26.40625 29.609375 25.984375 C 29.609375 25.542969 29.433594 25.214844 29.085938 24.988281 C 28.742188 24.761719 28.230469 24.644531 27.554688 24.644531 L 26.597656 24.644531 L 26.597656 23.042969 L 27.597656 23.042969 C 28.203125 23.042969 28.648438 22.945312 28.941406 22.75 C 29.238281 22.554688 29.386719 22.253906 29.386719 21.855469 C 29.386719 21.484375 29.242188 21.199219 28.957031 20.996094 C 28.667969 20.796875 28.265625 20.691406 27.746094 20.691406 C 27.359375 20.691406 26.96875 20.738281 26.574219 20.828125 C 26.183594 20.917969 25.789062 21.050781 25.398438 21.226562 L 25.398438 19.40625 C 25.871094 19.269531 26.339844 19.164062 26.804688 19.097656 C 27.269531 19.03125 27.726562 18.996094 28.164062 18.996094 C 29.382812 18.996094 30.273438 19.199219 30.871094 19.617188 C 31.476562 20.023438 31.777344 20.644531 31.777344 21.46875 C 31.777344 22.03125 31.632812 22.496094 31.347656 22.859375 C 31.058594 23.214844 30.640625 23.46875 30.078125 23.613281 "/>
<path style=" stroke:none;fill-rule:nonzero;fill:rgb(97.647059%,97.647059%,97.647059%);fill-opacity:1;" d="M 48 12 C 48 10 48 1 48 0 C 33 0 16 0 0 0 C 0 1 0 11 0 12 Z M 48 12 "/>
<path style=" stroke:none;fill-rule:nonzero;fill:rgb(97.647059%,97.647059%,97.647059%);fill-opacity:1;" d="M 48 48 C 48 46.003906 48 37.003906 48 36 C 33.003906 36 16.003906 36 0 36 C 0 37 0 47 0 48 M 48 48 "/>
</g>
</svg>
