<!-- color: #eeeeee --><svg xmlns="http://www.w3.org/2000/svg" viewBox="0 0 48 48"><defs><clipPath id="clip1"><path d="m 17 10 l 14 0 l 0 20 l -14 0 m 0 -20"/></clipPath><clipPath id="clip2"><path d="m 41.895 19.992 c 0 10.582 -8.02 19.16 -17.895 19.16 c -9.875 0 -17.891 -8.574 -17.891 -19.16 c 0 -10.586 8.02 -19.16 17.891 -19.16 c 9.879 0 17.895 8.574 17.895 19.16 m 0 0"/></clipPath></defs><g><g clip-path="url(#clip1)"><g clip-path="url(#clip2)"><path d="m 29.04 29.645 l -0.527 -2.75 l -0.125 0 c -0.871 1.211 -1.742 2.031 -2.613 2.473 c -0.859 0.418 -1.938 0.633 -3.234 0.633 c -1.727 0 -3.09 -0.496 -4.066 -1.484 c -0.98 -0.984 -1.477 -2.391 -1.477 -4.215 c 0 -3.902 2.82 -5.945 8.457 -6.137 l 2.977 -0.102 l 0 -1.203 c 0 -1.516 -0.309 -2.633 -0.898 -3.348 c -0.59 -0.73 -1.52 -1.094 -2.813 -1.094 c -1.457 0 -3.105 0.496 -4.941 1.48 l -0.816 -2.238 c 0.859 -0.52 1.805 -0.926 2.82 -1.219 c 1.027 -0.293 2.063 -0.441 3.09 -0.441 c 2.082 0 3.621 0.512 4.621 1.531 c 1.012 1.027 1.512 2.664 1.512 4.922 l 0 13.184 l -1.957 0 m -5.977 -2.063 c 1.648 0 2.941 -0.5 3.875 -1.5 c 0.945 -1 1.414 -2.395 1.414 -4.199 l 0 -1.742 l -2.641 0.121 c -2.105 0.082 -3.621 0.445 -4.566 1.094 c -0.926 0.637 -1.383 1.629 -1.383 2.977 c 0 1.059 0.285 1.867 0.859 2.414 c 0.586 0.555 1.398 0.828 2.438 0.828" fill="#5b5b5b" stroke="none" fill-rule="nonzero" fill-opacity="1"/></g></g><path d="m 33.434 37 c 0 0 0.563 -0.324 0.563 -1.996 c 0 -1.613 -0.633 -2 -0.633 -2 l -15.07 0 l -4.297 2 l 4.297 1.996 m 15.14 0" fill="#ff6f03" stroke="none" fill-rule="nonzero" fill-opacity="1"/><path d="m 18 33.16 l -4 1.844 l 4 1.844 m 0 -3.688" fill="#ffc13d" stroke="none" fill-rule="nonzero" fill-opacity="1"/><path d="m 16 34.06 l -2 0.938 l 2 0.941 m 0 -1.879" fill="#2d2d2d" stroke="none" fill-rule="nonzero" fill-opacity="1"/><path d="m 31 33 l 0 4 l 2.438 0 c 0 0 0.563 -0.324 0.563 -2 c 0 -1.613 -0.625 -2 -0.625 -2 m -2.375 0" fill="#ff2d5b" stroke="none" fill-rule="nonzero" fill-opacity="1"/></g></svg>