<!-- color: #eeeeee -->
<svg xmlns="http://www.w3.org/2000/svg" xmlns:xlink="http://www.w3.org/1999/xlink" width="48px" height="48px" viewBox="0 0 48 48" version="1.1">
<g id="surface1">
<path style=" stroke:none;fill-rule:nonzero;fill:rgb(85.882353%,0%,0%);fill-opacity:1;" d="M 22.9375 34.210938 L 22.9375 28.429688 L 17.140625 28.429688 L 18.152344 26.78125 L 20.007812 26.78125 L 17.316406 22.378906 L 11.433594 22.378906 L 12.71875 23.078125 L 11.003906 25.878906 L 15.605469 33.40625 L 16.046875 34.121094 L 16.152344 34.300781 M 22.9375 34.210938 "/>
<path style=" stroke:none;fill-rule:nonzero;fill:rgb(78.431373%,0%,0%);fill-opacity:1;" d="M 33.519531 20.675781 L 28.222656 23.5625 L 31.121094 28.304688 L 29.101562 28.304688 L 28.171875 26.789062 L 25.484375 31.1875 L 28.425781 36 L 28.425781 34.601562 L 31.851562 34.601562 L 36.453125 27.074219 L 36.894531 26.359375 L 37.003906 26.179688 M 33.519531 20.675781 "/>
<path style=" stroke:none;fill-rule:nonzero;fill:rgb(69.803922%,0%,0%);fill-opacity:1;" d="M 15.804688 17.597656 L 21.101562 20.488281 L 24 15.746094 L 25.011719 17.398438 L 24.085938 18.914062 L 29.464844 18.914062 L 32.402344 14.101562 L 31.121094 14.800781 L 29.40625 11.996094 L 19.113281 11.996094 M 15.808594 17.597656 "/>
</g>
</svg>
