<!-- color: #3c4350 -->
<svg xmlns="http://www.w3.org/2000/svg" xmlns:xlink="http://www.w3.org/1999/xlink" width="48px" height="48px" viewBox="0 0 48 48" version="1.1">
<g id="surface1">
<path style=" stroke:none;fill-rule:nonzero;fill:rgb(43.921569%,75.686275%,100%);fill-opacity:1;" d="M 11 25.019531 L 11 23.019531 L 15.996094 20.019531 L 15.996094 21.019531 L 11.496094 24.019531 L 15.996094 27.019531 L 15.996094 28.015625 M 11 25.015625 "/>
<path style=" stroke:none;fill-rule:nonzero;fill:rgb(35.686275%,100%,28.627451%);fill-opacity:0.705882;" d="M 17 24 C 16.996094 24.550781 16.550781 24.992188 16 24.992188 C 15.449219 24.992188 15.003906 24.542969 15.003906 23.992188 C 15.003906 23.441406 15.449219 22.996094 16 22.992188 C 16.550781 22.992188 16.996094 23.4375 17 23.988281 "/>
<path style=" stroke:none;fill-rule:nonzero;fill:rgb(43.921569%,75.686275%,100%);fill-opacity:1;" d="M 32 25 L 32 23 L 37 20 L 37 21 L 33 24 L 37 27 L 37 28 M 31 28 L 31 27 L 35 24 L 31 21 L 31 20 L 36 23 L 36 25 M 31 28 "/>
<path style=" stroke:none;fill-rule:nonzero;fill:rgb(43.921569%,75.686275%,100%);fill-opacity:1;" d="M 20.03125 29 C 19.851562 28.609375 19.699219 28.226562 19.570312 27.839844 C 19.441406 27.453125 19.332031 27.058594 19.246094 26.65625 C 19.164062 26.253906 19.101562 25.832031 19.058594 25.394531 C 19.019531 24.957031 18.992188 24.488281 18.992188 23.992188 C 18.992188 23.492188 19.015625 23.027344 19.058594 22.59375 C 19.101562 22.15625 19.160156 21.734375 19.246094 21.335938 C 19.332031 20.929688 19.441406 20.535156 19.570312 20.15625 C 19.699219 19.769531 19.851562 19.382812 20.03125 18.996094 L 21 18.996094 C 20.816406 19.398438 20.660156 19.800781 20.527344 20.195312 C 20.394531 20.589844 20.285156 20.992188 20.199219 21.398438 C 20.117188 21.800781 20.058594 22.21875 20.015625 22.648438 C 19.976562 23.074219 19.949219 23.523438 19.949219 23.996094 C 19.949219 24.46875 19.972656 24.921875 20.015625 25.351562 C 20.058594 25.777344 20.117188 26.191406 20.199219 26.597656 C 20.285156 27.003906 20.394531 27.402344 20.527344 27.792969 C 20.660156 28.1875 20.816406 28.589844 21 29 M 20.03125 29 "/>
<path style=" stroke:none;fill-rule:nonzero;fill:rgb(43.921569%,75.686275%,100%);fill-opacity:1;" d="M 24.03125 29 C 23.855469 28.609375 23.699219 28.226562 23.570312 27.839844 C 23.441406 27.453125 23.332031 27.058594 23.246094 26.65625 C 23.164062 26.253906 23.101562 25.832031 23.058594 25.394531 C 23.019531 24.957031 22.992188 24.488281 22.992188 23.992188 C 22.992188 23.492188 23.015625 23.027344 23.058594 22.59375 C 23.101562 22.15625 23.160156 21.734375 23.246094 21.335938 C 23.332031 20.929688 23.441406 20.535156 23.570312 20.15625 C 23.699219 19.769531 23.855469 19.382812 24.03125 18.996094 L 25 18.996094 C 24.816406 19.398438 24.660156 19.800781 24.527344 20.195312 C 24.394531 20.589844 24.285156 20.992188 24.199219 21.398438 C 24.117188 21.800781 24.058594 22.21875 24.015625 22.648438 C 23.976562 23.074219 23.949219 23.523438 23.949219 23.996094 C 23.949219 24.46875 23.972656 24.921875 24.015625 25.351562 C 24.058594 25.777344 24.117188 26.191406 24.199219 26.597656 C 24.285156 27.003906 24.394531 27.402344 24.527344 27.792969 C 24.660156 28.1875 24.816406 28.589844 25 29 M 24.03125 29 "/>
<path style=" stroke:none;fill-rule:nonzero;fill:rgb(43.921569%,75.686275%,100%);fill-opacity:1;" d="M 28.03125 29 C 27.855469 28.609375 27.699219 28.226562 27.570312 27.839844 C 27.441406 27.453125 27.332031 27.058594 27.25 26.65625 C 27.164062 26.253906 27.101562 25.832031 27.0625 25.394531 C 27.019531 24.957031 26.996094 24.488281 26.996094 23.992188 C 26.996094 23.492188 27.019531 23.027344 27.0625 22.59375 C 27.101562 22.15625 27.164062 21.734375 27.25 21.335938 C 27.332031 20.929688 27.441406 20.535156 27.570312 20.15625 C 27.699219 19.769531 27.855469 19.382812 28.03125 18.996094 L 29.003906 18.996094 C 28.816406 19.398438 28.660156 19.800781 28.527344 20.195312 C 28.394531 20.589844 28.285156 20.992188 28.203125 21.398438 C 28.117188 21.800781 28.058594 22.21875 28.015625 22.648438 C 27.976562 23.074219 27.949219 23.523438 27.949219 23.996094 C 27.949219 24.46875 27.972656 24.921875 28.015625 25.351562 C 28.058594 25.777344 28.117188 26.191406 28.203125 26.597656 C 28.285156 27.003906 28.394531 27.402344 28.527344 27.792969 C 28.660156 28.1875 28.816406 28.589844 29.003906 29 M 28.03125 29 "/>
</g>
</svg>
