<!-- color: #c42e46 -->
<svg xmlns="http://www.w3.org/2000/svg" xmlns:xlink="http://www.w3.org/1999/xlink" width="48px" height="48px" viewBox="0 0 48 48" version="1.1">
<g id="surface1">
<path style=" stroke:none;fill-rule:nonzero;fill:rgb(97.647059%,97.647059%,97.647059%);fill-opacity:1;" d="M 20.304688 27.585938 C 20.316406 29.261719 19.429688 30.8125 17.988281 31.652344 C 16.542969 32.492188 14.761719 32.492188 13.316406 31.652344 C 11.871094 30.8125 10.988281 29.261719 11 27.585938 C 10.988281 25.910156 11.871094 24.359375 13.316406 23.519531 C 14.761719 22.675781 16.542969 22.675781 17.988281 23.519531 C 19.429688 24.359375 20.316406 25.910156 20.304688 27.585938 M 20.304688 27.585938 "/>
<path style=" stroke:none;fill-rule:nonzero;fill:rgb(97.647059%,97.647059%,97.647059%);fill-opacity:1;" d="M 37 24.210938 C 37.007812 25.746094 36.199219 27.171875 34.875 27.941406 C 33.550781 28.710938 31.917969 28.710938 30.59375 27.941406 C 29.269531 27.171875 28.457031 25.746094 28.46875 24.210938 C 28.457031 22.675781 29.269531 21.253906 30.59375 20.484375 C 31.917969 19.710938 33.550781 19.710938 34.875 20.484375 C 36.199219 21.253906 37.007812 22.675781 37 24.210938 M 37 24.210938 "/>
<path style=" stroke:none;fill-rule:nonzero;fill:rgb(97.647059%,97.647059%,97.647059%);fill-opacity:1;" d="M 17.058594 16.335938 C 15.628906 16.335938 14.472656 17.496094 14.472656 18.929688 C 14.472656 20.359375 15.632812 21.523438 17.058594 21.523438 C 17.25 21.523438 17.488281 21.496094 17.667969 21.457031 C 18.113281 20.507812 18.792969 19.828125 19.664062 19.261719 C 19.671875 19.195312 19.640625 19 19.640625 18.933594 C 19.640625 17.5 18.480469 16.339844 17.058594 16.339844 M 17.058594 16.335938 "/>
<path style="fill:none;stroke-width:0.141;stroke-linecap:butt;stroke-linejoin:miter;stroke:rgb(97.647059%,97.647059%,97.647059%);stroke-opacity:1;stroke-miterlimit:4;" d="M 6.401814 5.146146 C 5.529792 5.146146 4.822031 5.855009 4.822031 6.727031 C 4.822031 7.600156 5.528689 8.310122 6.401814 8.310122 C 7.273837 8.310122 7.980495 7.599054 7.980495 6.727031 C 7.980495 5.853906 7.274939 5.146146 6.401814 5.146146 M 6.401814 5.217804 C 7.231945 5.217804 7.90553 5.892491 7.90553 6.727031 C 7.90553 7.562674 7.235252 8.238464 6.401814 8.238464 C 5.571684 8.238464 4.896997 7.560469 4.896997 6.727031 C 4.896997 5.891389 5.571684 5.217804 6.401814 5.217804 M 6.401814 5.217804 " transform="matrix(3.543307,0,0,3.543307,0,0)"/>
<path style=" stroke:none;fill-rule:nonzero;fill:rgb(97.647059%,97.647059%,97.647059%);fill-opacity:1;" d="M 26.5 27.566406 C 3.542969 27.019531 15.023438 27.292969 26.5 27.566406 M 26.726562 27.566406 C 25.792969 28.589844 24.554688 29.207031 23.085938 29.3125 C 22.902344 29.722656 22.800781 30.285156 22.800781 30.757812 C 22.800781 32.546875 24.242188 34 26.027344 34 C 27.808594 34 29.25 32.546875 29.25 30.757812 C 29.25 29.238281 28.136719 27.914062 26.730469 27.566406 M 26.726562 27.566406 "/>
<path style=" stroke:none;fill-rule:nonzero;fill:rgb(97.647059%,97.647059%,97.647059%);fill-opacity:1;" d="M 18.660156 22.191406 C 19.914062 22.683594 21.066406 23.632812 21.949219 24.792969 L 29.074219 16.152344 L 28.160156 20.425781 C 38.339844 5.054688 23.246094 13.839844 18.644531 22.191406 M 18.660156 22.191406 "/>
</g>
</svg>
