<!-- color: #3d3d3d -->
<svg xmlns="http://www.w3.org/2000/svg" xmlns:xlink="http://www.w3.org/1999/xlink" width="48px" height="48px" viewBox="0 0 48 48" version="1.1">
<g id="surface1">
<path style=" stroke:none;fill-rule:nonzero;fill:rgb(87.058824%,23.529412%,15.686275%);fill-opacity:1;" d="M 12.996094 17 L 34.996094 17 C 35.550781 17 35.996094 17.449219 35.996094 18 L 35.996094 35 C 35.996094 35.550781 35.550781 36 34.996094 36 L 12.996094 36 C 12.445312 36 11.996094 35.550781 11.996094 35 L 11.996094 18 C 11.996094 17.449219 12.445312 17 12.996094 17 M 12.996094 17 "/>
<path style=" stroke:none;fill-rule:nonzero;fill:rgb(20%,20%,20%);fill-opacity:1;" d="M 11.996094 20.996094 L 35.996094 20.996094 L 35.996094 21.996094 L 11.996094 21.996094 M 11.996094 20.996094 "/>
<path style=" stroke:none;fill-rule:nonzero;fill:rgb(20%,20%,20%);fill-opacity:1;" d="M 13.5 34 C 13.222656 34 13 34.222656 13 34.5 C 13 34.777344 13.222656 35 13.5 35 L 34.5 35 C 34.777344 35 35 34.777344 35 34.5 C 35 34.222656 34.777344 34 34.5 34 M 13.5 34 "/>
<path style=" stroke:none;fill-rule:nonzero;fill:rgb(20%,20%,20%);fill-opacity:1;" d="M 13.332031 32 C 13.058594 32 12.832031 32.222656 12.832031 32.5 C 12.832031 32.773438 13.058594 33 13.332031 33 L 34.332031 33 C 34.609375 33 34.832031 32.773438 34.832031 32.5 C 34.832031 32.222656 34.609375 32 34.332031 32 M 13.332031 32 "/>
<path style=" stroke:none;fill-rule:nonzero;fill:rgb(69.803922%,69.803922%,69.803922%);fill-opacity:1;" d="M 23 20 L 25 20 C 25.550781 20 26 20.445312 26 21 L 26 25 C 26 25.550781 25.550781 26 25 26 L 23 26 C 22.445312 26 22 25.550781 22 25 L 22 21 C 22 20.445312 22.445312 20 23 20 M 23 20 "/>
<path style=" stroke:none;fill-rule:nonzero;fill:rgb(20%,20%,20%);fill-opacity:1;" d="M 24 21 C 24.550781 21 25 21.445312 25 22 L 25 24 C 25 24.550781 24.550781 25 24 25 C 23.445312 25 23 24.550781 23 24 L 23 22 C 23 21.445312 23.445312 21 24 21 M 24 21 "/>
<path style=" stroke:none;fill-rule:nonzero;fill:rgb(69.803922%,69.803922%,69.803922%);fill-opacity:1;" d="M 18 11.996094 C 17.445312 11.996094 17 12.445312 17 12.996094 L 17 16.996094 L 19 16.996094 L 19 15 C 19 14.445312 19.445312 14 20 14 L 28 14 C 28.550781 14 29 14.445312 29 15 L 29 16.996094 L 30.996094 16.996094 L 30.996094 12.996094 C 30.996094 12.445312 30.550781 11.996094 29.996094 11.996094 M 18 11.996094 "/>
</g>
</svg>
