<!-- color: #eeeeee -->
<svg xmlns="http://www.w3.org/2000/svg" xmlns:xlink="http://www.w3.org/1999/xlink" width="48px" height="48px" viewBox="0 0 48 48" version="1.1">
<g id="surface1">
<path style=" stroke:none;fill-rule:nonzero;fill:rgb(4.313725%,78.823529%,9.803922%);fill-opacity:1;" d="M 27.101562 20 L 34.898438 20 C 35.507812 20 36 20.554688 36 21.242188 L 36 28.753906 C 36 29.441406 35.507812 29.996094 34.898438 29.996094 L 27.101562 29.996094 C 26.496094 29.996094 25.996094 29.441406 25.996094 28.753906 L 25.996094 21.242188 C 25.996094 20.554688 26.492188 20 27.101562 20 M 27.101562 20 "/>
<path style=" stroke:none;fill-rule:nonzero;fill:rgb(90.196078%,71.764706%,0%);fill-opacity:1;" d="M 21.109375 26 L 28.902344 26 C 29.511719 26 30.003906 26.558594 30.003906 27.246094 L 30.003906 34.757812 C 30.003906 35.441406 29.511719 36 28.902344 36 L 21.109375 36 C 20.5 36 20.007812 35.441406 20.007812 34.757812 L 20.007812 27.246094 C 20.007812 26.558594 20.5 26 21.109375 26 M 21.109375 26 "/>
<path style=" stroke:none;fill-rule:nonzero;fill:rgb(16.078431%,55.294118%,83.921569%);fill-opacity:1;" d="M 21.109375 12 L 28.902344 12 C 29.511719 12 30.003906 12.558594 30.003906 13.246094 L 30.003906 20.757812 C 30.003906 21.445312 29.511719 22 28.902344 22 L 21.109375 22 C 20.5 22 20.007812 21.445312 20.007812 20.757812 L 20.007812 13.246094 C 20.007812 12.558594 20.5 12 21.109375 12 M 21.109375 12 "/>
<path style=" stroke:none;fill-rule:nonzero;fill:rgb(92.54902%,10.588235%,24.705882%);fill-opacity:1;" d="M 13.101562 19 L 20.898438 19 C 21.507812 19 22 19.554688 22 20.242188 L 22 27.753906 C 22 28.441406 21.507812 29 20.898438 29 L 13.101562 29 C 12.496094 29 11.996094 28.441406 11.996094 27.753906 L 11.996094 20.242188 C 11.996094 19.554688 12.492188 19 13.101562 19 M 13.101562 19 "/>
</g>
</svg>
