<!-- color: #eeeeee -->
<svg xmlns="http://www.w3.org/2000/svg" xmlns:xlink="http://www.w3.org/1999/xlink" width="48px" height="48px" viewBox="0 0 48 48" version="1.1">
<g id="surface1">
<path style=" stroke:none;fill-rule:nonzero;fill:rgb(100%,52.54902%,0%);fill-opacity:1;" d="M 19.96875 9.554688 C 22.535156 8.835938 25.300781 8.796875 28 9.546875 L 26.597656 12.945312 C 24.84375 12.527344 23.058594 12.550781 21.378906 12.949219 M 19.96875 9.554688 "/>
<path style=" stroke:none;fill-rule:nonzero;fill:rgb(86.27451%,17.254902%,18.039216%);fill-opacity:1;" d="M 29.960938 14.332031 C 31.496094 15.273438 32.746094 16.546875 33.652344 18.019531 L 37.046875 16.609375 C 35.738281 14.289062 33.804688 12.304688 31.363281 10.933594 M 29.960938 14.332031 "/>
<path style=" stroke:none;fill-rule:nonzero;fill:rgb(78.039216%,41.568627%,100%);fill-opacity:1;" d="M 37.070312 31.367188 L 33.671875 29.960938 C 32.730469 31.496094 31.457031 32.746094 29.988281 33.65625 L 31.398438 37.046875 C 33.714844 35.738281 35.699219 33.804688 37.070312 31.367188 M 37.070312 31.367188 "/>
<path style=" stroke:none;fill-rule:nonzero;fill:rgb(87.058824%,16.078431%,69.411765%);fill-opacity:1;" d="M 35.050781 21.378906 C 35.449219 23.058594 35.472656 24.84375 35.058594 26.597656 L 38.457031 28 C 39.207031 25.304688 39.164062 22.53125 38.445312 19.96875 M 35.050781 21.378906 "/>
<path style=" stroke:none;fill-rule:nonzero;fill:rgb(89.803922%,84.705882%,9.019608%);fill-opacity:1;" d="M 14.332031 18.039062 C 15.273438 16.503906 16.546875 15.253906 18.015625 14.347656 L 16.605469 10.953125 C 14.289062 12.261719 12.304688 14.199219 10.933594 16.636719 M 14.332031 18.039062 "/>
<path style=" stroke:none;fill-rule:nonzero;fill:rgb(12.941176%,72.54902%,80.784314%);fill-opacity:1;" d="M 26.621094 35.050781 C 24.941406 35.449219 23.15625 35.472656 21.40625 35.058594 L 20 38.457031 C 22.699219 39.207031 25.46875 39.164062 28.03125 38.445312 M 26.621094 35.050781 "/>
<path style=" stroke:none;fill-rule:nonzero;fill:rgb(12.54902%,75.686275%,27.058824%);fill-opacity:1;" d="M 18.039062 33.667969 C 16.503906 32.726562 15.253906 31.453125 14.347656 29.984375 L 10.953125 31.394531 C 12.261719 33.710938 14.199219 35.695312 16.636719 37.066406 M 18.039062 33.667969 "/>
<path style=" stroke:none;fill-rule:nonzero;fill:rgb(63.529412%,83.921569%,12.941176%);fill-opacity:1;" d="M 12.949219 26.621094 C 12.550781 24.941406 12.527344 23.15625 12.945312 21.40625 L 9.546875 20.003906 C 8.792969 22.699219 8.835938 25.46875 9.554688 28.035156 M 12.949219 26.625 "/>
<path style=" stroke:none;fill-rule:nonzero;fill:rgb(60%,60%,60%);fill-opacity:1;" d="M 24.128906 10.5625 L 23.003906 15.0625 C 18.496094 15.554688 15.003906 19.363281 15.003906 24 C 15.003906 28.972656 19.035156 33 24.003906 33 C 27.515625 33 30.488281 30.933594 31.972656 28 L 28.441406 26.21875 C 27.617188 27.847656 25.964844 29 24.003906 29 C 21.242188 29 19.003906 26.761719 19.003906 24 C 19.003906 21.238281 21.242188 19 24.003906 19 C 25.953125 19 27.617188 20.152344 28.441406 21.78125 L 31.941406 20.03125 C 30.636719 17.464844 28.226562 15.542969 25.253906 15.125 M 24.128906 10.5625 "/>
</g>
</svg>
