<!-- color: #eeeeee -->
<svg xmlns="http://www.w3.org/2000/svg" xmlns:xlink="http://www.w3.org/1999/xlink" width="48px" height="48px" viewBox="0 0 48 48" version="1.1">
<defs>
<linearGradient id="linear0" gradientUnits="userSpaceOnUse" x1="0" y1="10.126" x2="0" y2="3.669" gradientTransform="matrix(3.543307,0,0,3.543307,0,0)">
<stop offset="0" style="stop-color:rgb(0%,56.078431%,95.294118%);stop-opacity:1;"/>
<stop offset="1" style="stop-color:rgb(0%,83.137255%,100%);stop-opacity:1;"/>
</linearGradient>
</defs>
<g id="surface1">
<path style=" stroke:none;fill-rule:nonzero;fill:url(#linear0);" d="M 27.9375 12 C 26.976562 12.035156 26 12.304688 25 12.96875 L 25 24.96875 C 23.152344 23.238281 20.339844 22.972656 17.28125 24.125 C 13.328125 25.617188 11.136719 29.339844 12.34375 32.4375 C 13.550781 35.535156 17.703125 36.835938 21.65625 35.34375 C 24.769531 34.167969 26.867188 31.644531 27 29.09375 L 27 16.972656 C 27.09375 16.894531 28.203125 16.433594 31 16.972656 C 34 16.972656 36 13.972656 36 13.972656 C 33.539062 13.941406 30.824219 11.902344 27.941406 12.003906 M 19 26 C 21.429688 26.011719 22.996094 28.171875 23 30 C 23 33 20 34 19 34 L 19 32 C 22.355469 31.664062 21.257812 27.128906 18 28 L 18 34 L 16 34 L 16 27.5625 C 16 27.015625 17 26 19 26 M 19 26 "/>
</g>
</svg>
