<!-- color: #45a9f9 -->
<svg xmlns="http://www.w3.org/2000/svg" xmlns:xlink="http://www.w3.org/1999/xlink" width="48px" height="48px" viewBox="0 0 48 48" version="1.1">
<g id="surface1">
<path style=" stroke:none;fill-rule:evenodd;fill:rgb(100%,100%,100%);fill-opacity:1;" d="M 25.910156 12 L 21.738281 12.296875 L 21.738281 28.914062 L 25.910156 28.40625 L 25.910156 21.152344 C 27.71875 23.882812 29.171875 26.421875 31.59375 29.0625 L 35.914062 27.820312 C 33.601562 25.140625 31.875 22.78125 30.296875 20.207031 C 31.9375 17.789062 33.992188 15.359375 36 13.1875 L 31.523438 12.089844 C 29.433594 14.445312 27.574219 16.878906 25.910156 19.324219 M 16.40625 15.410156 C 16.347656 15.417969 16.277344 15.453125 16.222656 15.507812 C 15.730469 15.972656 15.265625 16.4375 14.777344 16.902344 C 14.5625 17.109375 14.78125 17.355469 14.875 17.527344 L 15.867188 18.898438 L 16.609375 19.898438 C 16.714844 20.042969 16.746094 20.058594 16.691406 20.160156 C 16.625 20.265625 16.570312 20.351562 16.507812 20.457031 C 15.542969 22.078125 16.21875 22.203125 14.152344 22.730469 L 12.570312 22.992188 C 12.335938 23.070312 12.03125 23.0625 12.015625 23.386719 C 12.015625 24.042969 11.996094 24.695312 11.996094 25.347656 C 11.984375 25.648438 12.320312 25.675781 12.519531 25.726562 L 14.203125 26.019531 L 15.464844 26.25 C 15.636719 26.273438 15.675781 26.234375 15.714844 26.363281 C 16.230469 28.539062 16.90625 28.039062 15.78125 29.941406 L 14.875 31.203125 C 14.753906 31.421875 14.53125 31.636719 14.757812 31.859375 C 15.234375 32.332031 15.691406 32.808594 16.171875 33.28125 C 16.382812 33.488281 16.65625 33.277344 16.828125 33.183594 L 18.222656 32.214844 L 19.265625 31.511719 C 19.410156 31.394531 19.429688 31.367188 19.535156 31.429688 C 21.625 32.707031 21.699219 31.785156 22.308594 33.933594 L 22.609375 35.472656 C 22.6875 35.703125 22.695312 36 23.015625 36.011719 L 25.046875 36.011719 C 25.351562 36.011719 25.378906 35.664062 25.417969 35.472656 L 25.703125 33.835938 L 25.90625 32.625 C 25.917969 32.507812 25.914062 32.449219 25.9375 32.410156 C 28.386719 31.90625 27.777344 31.195312 29.769531 32.328125 L 31.0625 33.210938 C 31.300781 33.328125 31.527344 33.53125 31.753906 33.3125 C 32.234375 32.859375 32.710938 32.402344 33.191406 31.953125 C 33.40625 31.734375 33.195312 31.484375 33.09375 31.316406 L 33.074219 31.316406 L 32.132812 30.023438 L 31.511719 30.234375 C 31.351562 30.339844 31.140625 30.300781 30.953125 30.054688 L 29.59375 28.304688 C 28.324219 30.015625 26.269531 31.121094 23.941406 31.121094 C 20.109375 31.121094 16.980469 28.078125 16.980469 24.34375 C 16.980469 21.691406 18.558594 19.394531 20.847656 18.28125 L 20.847656 16.722656 C 20.769531 16.761719 20.679688 16.78125 20.613281 16.804688 C 19.71875 17.167969 19.660156 17.332031 18.195312 16.511719 L 16.902344 15.613281 C 16.722656 15.535156 16.5625 15.386719 16.398438 15.425781 M 20.839844 18.910156 C 18.894531 19.980469 17.574219 22.03125 17.574219 24.363281 C 17.574219 27.804688 20.457031 30.617188 24.003906 30.617188 C 26.195312 30.617188 28.117188 29.535156 29.277344 27.890625 L 29.214844 27.757812 C 27.855469 29.226562 26.320312 30.179688 23.984375 30.230469 C 21.074219 30.28125 18.128906 27.757812 18.113281 24.433594 C 18.089844 22.289062 19.105469 20.847656 20.835938 19.820312 L 20.835938 18.917969 M 20.839844 18.917969 "/>
</g>
</svg>
