<!-- color: #722953 -->
<svg xmlns="http://www.w3.org/2000/svg" xmlns:xlink="http://www.w3.org/1999/xlink" width="48px" height="48px" viewBox="0 0 48 48" version="1.1">
<g id="surface1">
<path style=" stroke:none;fill-rule:nonzero;fill:rgb(97.647059%,97.647059%,97.647059%);fill-opacity:1;" d="M 14 13 L 14 26.21875 C 14 27.820312 14.1875 29.269531 14.535156 30.59375 C 14.886719 31.890625 15.457031 33.035156 16.25 33.996094 C 17.042969 34.960938 18.058594 35.691406 19.359375 36.234375 C 20.664062 36.746094 22.28125 36.996094 24.1875 36.996094 C 26.378906 36.996094 28.324219 36.910156 29.976562 36.640625 C 31.660156 36.367188 32.976562 36.066406 33.996094 35.828125 L 33.996094 12.996094 L 29.996094 12.996094 L 29.996094 32.789062 C 29.839844 32.851562 29.121094 32.96875 28.742188 33.03125 C 28.390625 33.0625 28.011719 33.121094 27.5625 33.183594 C 27.117188 33.210938 26.675781 33.253906 26.171875 33.285156 C 25.664062 33.3125 25.148438 33.335938 24.667969 33.335938 C 22.414062 33.335938 20.796875 32.691406 19.84375 31.453125 C 18.890625 30.21875 17.996094 28.25 17.996094 25.394531 L 17.996094 12.996094 M 14 13.003906 "/>
</g>
</svg>
