<!-- color: #43587a -->
<svg xmlns="http://www.w3.org/2000/svg" xmlns:xlink="http://www.w3.org/1999/xlink" width="48px" height="48px" viewBox="0 0 48 48" version="1.1">
<g id="surface1">
<path style=" stroke:none;fill-rule:nonzero;fill:rgb(100%,100%,100%);fill-opacity:1;" d="M 24 36 C 19.589844 36 16 32.214844 16 27.5625 C 16 25.007812 17.085938 22.613281 18.972656 21.003906 C 19.402344 20.636719 20.03125 20.636719 20.464844 21.003906 C 21.480469 21.871094 22.703125 22.328125 24 22.328125 C 25.300781 22.328125 26.523438 21.871094 27.539062 21.003906 C 27.96875 20.636719 28.597656 20.636719 29.027344 21.003906 C 30.917969 22.613281 32 25.003906 32 27.5625 C 32 32.214844 28.410156 36 24 36 M 19.835938 23.449219 C 18.867188 24.566406 18.328125 26.023438 18.328125 27.566406 C 18.328125 30.910156 20.871094 33.632812 24 33.632812 C 27.125 33.632812 29.671875 30.910156 29.671875 27.566406 C 29.671875 26.023438 29.132812 24.566406 28.167969 23.449219 C 26.917969 24.253906 25.472656 24.6875 24 24.6875 C 22.527344 24.6875 21.082031 24.253906 19.835938 23.449219 M 19.835938 23.449219 "/>
<path style=" stroke:none;fill-rule:nonzero;fill:rgb(100%,100%,100%);fill-opacity:1;" d="M 22.089844 21.089844 C 21.300781 21.089844 20.65625 20.4375 20.65625 19.640625 C 20.65625 18.835938 21.300781 18.183594 22.089844 18.183594 C 22.878906 18.183594 23.523438 18.832031 23.523438 19.632812 C 23.523438 20.4375 22.882812 21.089844 22.089844 21.089844 M 22.089844 21.089844 "/>
<path style=" stroke:none;fill-rule:nonzero;fill:rgb(100%,100%,100%);fill-opacity:1;" d="M 23.761719 17.820312 C 23.105469 17.820312 22.570312 17.277344 22.566406 16.609375 C 22.566406 16.28125 22.691406 15.980469 22.917969 15.75 C 23.140625 15.519531 23.441406 15.394531 23.761719 15.394531 C 24.421875 15.394531 24.953125 15.9375 24.957031 16.605469 C 24.957031 16.929688 24.832031 17.234375 24.605469 17.460938 C 24.382812 17.691406 24.082031 17.816406 23.761719 17.820312 M 23.761719 17.820312 "/>
<path style=" stroke:none;fill-rule:nonzero;fill:rgb(100%,100%,100%);fill-opacity:1;" d="M 26.386719 20.121094 C 25.664062 20.121094 25.074219 19.523438 25.074219 18.789062 C 25.074219 18.054688 25.664062 17.457031 26.386719 17.457031 C 27.113281 17.457031 27.699219 18.050781 27.703125 18.785156 C 27.703125 19.523438 27.113281 20.121094 26.390625 20.121094 M 26.386719 20.121094 "/>
<path style=" stroke:none;fill-rule:nonzero;fill:rgb(100%,100%,100%);fill-opacity:1;" d="M 23.160156 13.941406 C 22.632812 13.941406 22.203125 13.503906 22.203125 12.972656 C 22.203125 12.710938 22.304688 12.46875 22.484375 12.285156 C 22.664062 12.101562 22.902344 12 23.160156 12 C 23.6875 12 24.113281 12.433594 24.117188 12.96875 C 24.117188 13.503906 23.6875 13.941406 23.160156 13.941406 M 23.160156 13.941406 "/>
<path style=" stroke:none;fill-rule:nonzero;fill:rgb(100%,100%,100%);fill-opacity:1;" d="M 26.03125 15.636719 C 25.4375 15.636719 24.957031 15.148438 24.957031 14.546875 C 24.957031 13.945312 25.4375 13.457031 26.03125 13.457031 C 26.621094 13.457031 27.105469 13.945312 27.105469 14.542969 C 27.105469 14.835938 26.996094 15.109375 26.789062 15.316406 C 26.589844 15.523438 26.316406 15.636719 26.027344 15.636719 M 26.027344 15.636719 "/>
</g>
</svg>
