<!-- color: #ce6137 -->
<svg xmlns="http://www.w3.org/2000/svg" xmlns:xlink="http://www.w3.org/1999/xlink" width="48px" height="48px" viewBox="0 0 48 48" version="1.1">
<g id="surface1">
<path style=" stroke:none;fill-rule:nonzero;fill:rgb(91.764706%,55.686275%,21.176471%);fill-opacity:1;" d="M 13 15 L 35 15 L 35 24 L 13 24 M 13 15 "/>
<path style=" stroke:none;fill-rule:nonzero;fill:rgb(91.764706%,55.686275%,21.176471%);fill-opacity:1;" d="M 16 16.25 C 16 15.125 16 14 17.273438 14 L 21.726562 14 C 23 14 23 15.125 23 16.25 M 16 16.25 "/>
<path style=" stroke:none;fill-rule:nonzero;fill:rgb(83.921569%,83.921569%,83.921569%);fill-opacity:1;" d="M 15 16 L 32 16 L 32 28 L 15 28 M 15 16 "/>
<path style=" stroke:none;fill-rule:nonzero;fill:rgb(58.431373%,58.431373%,61.176471%);fill-opacity:1;" d="M 16 17 L 34 17 L 34 21 L 16 21 M 16 17 "/>
<path style=" stroke:none;fill-rule:nonzero;fill:rgb(97.647059%,97.647059%,97.647059%);fill-opacity:1;" d="M 17 18 L 33 18 L 33 30 L 17 30 M 17 18 "/>
<path style=" stroke:none;fill-rule:nonzero;fill:rgb(94.901961%,72.54902%,38.431373%);fill-opacity:1;" d="M 11 19 L 37 19 L 35 33 L 13 33 M 11 19 "/>
<path style=" stroke:none;fill-rule:nonzero;fill:rgb(100%,100%,100%);fill-opacity:0.729412;" d="M 27.191406 19.960938 C 27.144531 19.960938 27.113281 19.972656 27.089844 20.011719 C 26.964844 20.230469 27.210938 20.941406 27.023438 21.3125 C 26.839844 21.683594 26.839844 21.777344 25.355469 21.59375 C 23.871094 21.410156 21.644531 22.058594 20.84375 22.859375 C 20.03125 23.664062 18.648438 25.703125 18.363281 26.878906 C 18.089844 28.054688 18.214844 28.117188 18.585938 27.933594 C 18.953125 27.746094 19.265625 26.105469 21.453125 25.027344 C 23.652344 23.945312 24.675781 24.808594 24.675781 24.808594 C 24.675781 24.808594 22.785156 24.558594 21.398438 25.703125 C 20.007812 26.851562 19.140625 27.742188 19.171875 28.09375 C 19.203125 28.433594 19.324219 28.363281 19.546875 28.09375 C 19.761719 27.8125 21.058594 26.113281 22.605469 25.554688 C 24.152344 24.992188 24.800781 25.03125 25.386719 25.339844 C 25.976562 25.648438 26.101562 25.949219 25.269531 26.164062 C 24.429688 26.386719 24.089844 26.289062 24.089844 26.289062 C 24.089844 26.289062 24.800781 26.9375 25.816406 26.9375 C 26.839844 26.9375 27.460938 26.875 27.460938 26.875 C 27.460938 26.875 29.992188 29.503906 30.644531 30.03125 C 31.289062 30.554688 32.007812 30.308594 32.007812 29.996094 C 32.007812 29.6875 31.695312 28.820312 31.695312 28.820312 C 31.695312 28.820312 32.34375 27.363281 31.597656 25.726562 C 30.855469 24.085938 28.816406 22.390625 28.816406 22.390625 C 28.816406 22.390625 28.601562 21.460938 28.140625 20.84375 C 27.765625 20.34375 27.386719 19.964844 27.191406 19.957031 M 16.660156 27.449219 C 16.570312 27.453125 16.476562 27.476562 16.390625 27.527344 C 15.679688 27.929688 16.050781 28.644531 16.671875 28.644531 C 17.289062 28.644531 17.96875 28.394531 17.96875 28.394531 C 17.96875 28.394531 17.304688 27.425781 16.660156 27.453125 M 18.027344 28.644531 C 18.027344 28.644531 16.640625 28.855469 16.484375 29.507812 C 16.328125 30.15625 17.066406 30.34375 17.53125 30.003906 C 17.996094 29.664062 18.027344 28.644531 18.027344 28.644531 M 18.027344 28.644531 "/>
</g>
</svg>
