<!-- color: #c55036 -->
<svg xmlns="http://www.w3.org/2000/svg" xmlns:xlink="http://www.w3.org/1999/xlink" width="48px" height="48px" viewBox="0 0 48 48" version="1.1">
<g id="surface1">
<path style=" stroke:none;fill-rule:nonzero;fill:rgb(92.54902%,93.333333%,94.509804%);fill-opacity:1;" d="M 10 12 C 5.816406 12 2.148438 14.132812 0 17.375 L 0 30.625 C 2.148438 33.867188 5.816406 36 10 36 C 16.628906 36 22 30.628906 22 24 C 22 17.371094 16.628906 12 10 12 M 10.0625 14.90625 C 15.0625 14.90625 19.09375 18.9375 19.09375 23.9375 C 19.09375 28.933594 15.0625 32.996094 10.0625 32.996094 C 5.0625 32.996094 1.003906 28.933594 1.003906 23.9375 C 1.003906 18.9375 5.066406 14.90625 10.0625 14.90625 M 10.0625 14.90625 "/>
<path style=" stroke:none;fill-rule:nonzero;fill:rgb(92.54902%,93.333333%,94.509804%);fill-opacity:1;" d="M 38 12 C 31.371094 12 26 17.371094 26 24 C 26 30.628906 31.371094 36 38 36 C 42.183594 36 45.851562 33.867188 48 30.625 L 48 17.375 C 45.851562 14.132812 42.183594 12 38 12 M 38 15 C 42.972656 15 47 19.03125 47 24 C 47 28.972656 42.96875 33 38 33 C 33.027344 33 29 28.96875 29 24 C 29 19.027344 33.03125 15 38 15 M 38 15 "/>
</g>
</svg>
