<!-- color: #ef555c -->
<svg xmlns="http://www.w3.org/2000/svg" xmlns:xlink="http://www.w3.org/1999/xlink" width="48px" height="48px" viewBox="0 0 48 48" version="1.1">
<g id="surface1">
<path style=" stroke:none;fill-rule:nonzero;fill:rgb(97.647059%,97.647059%,97.647059%);fill-opacity:1;" d="M 12.996094 14 L 30.996094 14 C 31.546875 14 31.996094 14.445312 31.996094 15 L 31.996094 33 C 31.996094 33.550781 31.546875 33.996094 30.996094 33.996094 L 12.996094 33.996094 C 12.445312 33.996094 11.996094 33.550781 11.996094 33 L 11.996094 15 C 11.996094 14.445312 12.445312 14 12.996094 14 M 12.996094 14 "/>
<path style=" stroke:none;fill-rule:nonzero;fill:rgb(97.647059%,97.647059%,97.647059%);fill-opacity:1;" d="M 31.996094 22 L 37.996094 18 L 37.996094 30 L 31.996094 26 L 30.996094 26 L 30.996094 23 M 31.996094 22 "/>
<path style=" stroke:none;fill-rule:nonzero;fill:rgb(92.941176%,32.54902%,35.686275%);fill-opacity:1;" d="M 27 24 C 27 26.757812 24.761719 29 22 29 C 19.238281 29 17 26.757812 17 24 C 17 21.238281 19.238281 19 22 19 C 24.761719 19 27 21.238281 27 24 M 27 24 "/>
</g>
</svg>
