<!-- color: #26cd93 --><svg xmlns="http://www.w3.org/2000/svg" viewBox="0 0 48 48"><g><path d="m 13.773 13 c 3.227 -1 6.227 -1.5 10.227 -1.5 c 4 0 7 0.5 10.227 1.5 c 0.938 0.289 1.441 0.848 1.773 1.773 c 1 2.789 1.5 5.227 1.5 7.727 c 0 2.5 -0.5 4.5 -1.5 7.73 c -0.289 0.938 -0.816 1.543 -1.773 1.77 c -4.227 1 -6.227 1.5 -10.227 1.5 c -4 0 -6 -0.5 -10.227 -1.5 c -0.957 -0.227 -1.484 -0.832 -1.773 -1.77 c -1 -3.23 -1.5 -5.23 -1.5 -7.73 c 0 -3.5 0.5 -5.5 1.5 -7.727 c 0.402 -0.898 0.836 -1.484 1.773 -1.773 m 0 0" fill="#ebeef2" stroke="none" fill-rule="nonzero" fill-opacity="1"/><path d="m 23 32.898 c 0 2 -4 4.254 -8 4.102 c 2 -0.848 3 -3 3 -5 m 5 0.898" fill="#ebeef2" stroke="none" fill-rule="nonzero" fill-opacity="1"/><path d="m 20 22 c 0 1.105 -0.895 2 -2 2 c -1.105 0 -2 -0.895 -2 -2 c 0 -1.105 0.895 -2 2 -2 c 1.105 0 2 0.895 2 2 m 0 0" fill="#437fa2" stroke="none" fill-rule="nonzero" fill-opacity="1"/><path d="m 26 22 c 0 1.105 -0.895 2 -2 2 c -1.105 0 -2 -0.895 -2 -2 c 0 -1.105 0.895 -2 2 -2 c 1.105 0 2 0.895 2 2 m 0 0" fill="#437fa2" stroke="none" fill-rule="nonzero" fill-opacity="1"/><path d="m 32 22 c 0 1.105 -0.895 2 -2 2 c -1.105 0 -2 -0.895 -2 -2 c 0 -1.105 0.895 -2 2 -2 c 1.105 0 2 0.895 2 2 m 0 0" fill="#437fa2" stroke="none" fill-rule="nonzero" fill-opacity="1"/></g></svg>