<!-- color: #294172 -->
<svg xmlns="http://www.w3.org/2000/svg" xmlns:xlink="http://www.w3.org/1999/xlink" width="48px" height="48px" viewBox="0 0 48 48" version="1.1">
<g id="surface1">
<path style=" stroke:none;fill-rule:nonzero;fill:rgb(0.392157%,69.411765%,84.705882%);fill-opacity:1;" d="M 28.390625 11.128906 L 28.390625 12.40625 C 28.039062 12.476562 27.695312 12.570312 27.363281 12.695312 C 27.035156 12.820312 26.722656 12.976562 26.421875 13.152344 C 26.121094 13.332031 25.839844 13.535156 25.574219 13.757812 C 25.3125 13.984375 25.066406 14.226562 24.847656 14.492188 C 24.625 14.757812 24.421875 15.042969 24.246094 15.34375 C 24.070312 15.644531 23.917969 15.960938 23.796875 16.292969 C 23.675781 16.625 23.578125 16.972656 23.515625 17.324219 C 23.449219 17.679688 23.417969 18.042969 23.417969 18.417969 C 23.417969 18.796875 23.453125 19.171875 23.519531 19.535156 C 23.585938 19.898438 23.683594 20.25 23.8125 20.589844 C 23.941406 20.925781 24.097656 21.246094 24.28125 21.550781 C 24.464844 21.855469 24.671875 22.144531 24.90625 22.414062 C 25.136719 22.683594 25.390625 22.929688 25.667969 23.152344 C 25.941406 23.378906 26.234375 23.578125 26.542969 23.753906 C 26.855469 23.929688 27.183594 24.078125 27.523438 24.195312 C 27.867188 24.316406 28.222656 24.40625 28.589844 24.460938 L 28.589844 25.71875 L 29.636719 25.71875 C 30.066406 25.71875 30.480469 25.660156 30.890625 25.589844 L 30.890625 24.382812 C 31.183594 24.316406 31.472656 24.230469 31.75 24.121094 L 32.363281 25.179688 C 33.085938 24.890625 33.734375 24.472656 34.324219 23.980469 L 33.703125 22.902344 C 33.917969 22.707031 34.117188 22.492188 34.300781 22.265625 L 35.386719 22.886719 C 35.863281 22.285156 36.25 21.621094 36.519531 20.890625 L 35.386719 20.238281 C 35.46875 19.96875 35.53125 19.695312 35.578125 19.414062 L 36.894531 19.414062 C 36.945312 19.066406 37 18.722656 37 18.363281 C 37 17.9375 36.945312 17.519531 36.871094 17.113281 L 35.519531 17.113281 C 35.460938 16.839844 35.386719 16.570312 35.289062 16.3125 L 36.464844 15.636719 C 36.171875 14.914062 35.753906 14.269531 35.261719 13.679688 L 34.105469 14.34375 C 33.914062 14.136719 33.71875 13.941406 33.507812 13.757812 L 34.164062 12.613281 C 33.5625 12.136719 32.898438 11.753906 32.171875 11.480469 L 31.511719 12.625 C 31.242188 12.535156 30.972656 12.460938 30.691406 12.40625 L 30.691406 11.109375 C 30.34375 11.058594 29.996094 11 29.636719 11 C 29.210938 11 28.796875 11.058594 28.390625 11.128906 M 29.636719 14.445312 C 31.820312 14.445312 33.554688 16.183594 33.554688 18.363281 C 33.554688 20.542969 31.820312 22.28125 29.636719 22.28125 L 25.71875 22.28125 L 25.71875 18.363281 C 25.71875 16.183594 27.453125 14.445312 29.636719 14.445312 M 29.636719 14.445312 "/>
<path style="fill:none;stroke-width:26.484;stroke-linecap:butt;stroke-linejoin:miter;stroke:rgb(0.392157%,69.411765%,84.705882%);stroke-opacity:1;stroke-miterlimit:4;" d="M 84.621116 -79.997408 C 84.621116 -79.997408 127.997526 -79.997408 127.997526 -79.997408 C 127.997526 -79.997408 127.997526 -36.60932 127.997526 -36.60932 C 127.997526 -12.661739 108.562251 6.748721 84.621116 6.748721 C 60.679981 6.748721 41.244705 -12.661739 41.244705 -36.60932 C 41.244705 -60.5569 60.679981 -79.997408 84.621116 -79.997408 M 84.621116 -79.997408 " transform="matrix(0.130039,0,0,0.130004,7.359236,34.399983)"/>
<path style=" stroke:none;fill-rule:nonzero;fill:rgb(100%,100%,100%);fill-opacity:1;" d="M 25.730469 22.28125 L 25.730469 29.632812 C 25.730469 33.699219 22.429688 36.996094 18.363281 36.996094 C 17.746094 36.996094 17.308594 36.925781 16.734375 36.777344 C 15.902344 36.558594 15.222656 35.875 15.222656 35.082031 C 15.222656 34.121094 15.917969 33.421875 16.960938 33.421875 C 17.457031 33.421875 17.636719 33.519531 18.363281 33.519531 C 20.507812 33.519531 22.25 31.78125 22.25 29.636719 L 22.25 26.257812 C 22.25 25.957031 22.003906 25.710938 21.703125 25.710938 L 19.148438 25.710938 C 18.195312 25.710938 17.425781 24.953125 17.425781 24 C 17.425781 23.039062 18.195312 22.28125 19.160156 22.28125 "/>
<path style=" stroke:none;fill-rule:nonzero;fill:rgb(100%,100%,100%);fill-opacity:1;" d="M 22.277344 25.714844 L 22.277344 18.367188 C 22.277344 14.300781 25.578125 11.003906 29.644531 11.003906 C 30.261719 11.003906 30.703125 11.074219 31.273438 11.222656 C 32.105469 11.441406 32.785156 12.121094 32.785156 12.917969 C 32.785156 13.878906 32.089844 14.574219 31.046875 14.574219 C 30.550781 14.574219 30.371094 14.480469 29.644531 14.480469 C 27.5 14.480469 25.761719 16.21875 25.757812 18.363281 L 25.757812 21.738281 C 25.757812 22.042969 26.003906 22.289062 26.304688 22.289062 L 28.859375 22.289062 C 29.8125 22.289062 30.582031 23.046875 30.582031 24 C 30.582031 24.960938 29.804688 25.714844 28.84375 25.714844 "/>
</g>
</svg>
