<!-- color: #e27e6a -->
<svg xmlns="http://www.w3.org/2000/svg" xmlns:xlink="http://www.w3.org/1999/xlink" width="48px" height="48px" viewBox="0 0 48 48" version="1.1">
<g id="surface1">
<path style=" stroke:none;fill-rule:nonzero;fill:rgb(90.196078%,61.176471%,55.686275%);fill-opacity:1;" d="M 16 1.90625 L 15.15625 2.15625 L 14.1875 2.21875 L 13.59375 2.65625 L 12.8125 2.625 L 12.875 3.125 L 14 3.09375 L 14.40625 4.1875 L 14.5625 4.78125 L 13.9375 5.136719 L 13.6875 5.605469 L 13.875 6.667969 L 14.625 6.792969 L 15.34375 6.105469 L 15.96875 5.449219 L 16.9375 5.199219 L 18.15625 4.605469 L 18.875 3.730469 L 19.90625 2.480469 L 20.625 2.289062 L 20.59375 2.011719 L 19.46875 2.011719 M 13.78125 1.976562 L 12.96875 2.007812 L 11.5625 2.382812 L 10.75 2.632812 L 9.8125 2.257812 L 9.6875 2.820312 L 10.8125 3.476562 C 10.8125 3.476562 12.855469 2.351562 12.96875 2.351562 M 34.839844 2.195312 L 34.652344 2.507812 L 35.808594 2.664062 L 35.871094 2.382812 M 25.964844 2.382812 C 25.910156 2.40625 24.433594 2.414062 24.433594 2.414062 L 24.058594 2.507812 L 24.558594 3.101562 L 25.089844 2.601562 L 25.433594 2.820312 L 25.933594 2.570312 C 25.933594 2.570312 26.023438 2.363281 25.964844 2.382812 M 31.589844 2.851562 L 31.121094 2.914062 L 30.714844 3.164062 L 30.246094 3.511719 L 29.964844 4.011719 L 30.402344 4.449219 L 30.777344 4.480469 L 30.933594 4.230469 L 30.558594 3.914062 L 30.777344 3.726562 L 30.808594 3.570312 L 31.277344 3.257812 C 31.277344 3.257812 31.886719 3.265625 31.933594 3.257812 C 31.984375 3.25 32.121094 3.070312 32.121094 3.070312 L 31.96875 2.851562 M 5.71875 3.039062 L 5.625 3.355469 L 6.09375 3.511719 L 6.625 3.261719 M 37.5 3.136719 L 35.375 3.230469 L 34.8125 3.605469 L 34.1875 3.980469 L 33.65625 4.417969 L 33.71875 4.605469 L 33.4375 4.636719 L 33.4375 4.667969 L 29.4375 5.324219 L 25.78125 8.011719 L 25.40625 8.292969 L 25.375 8.292969 L 25.125 8.199219 C 25.125 8.199219 24.972656 8.207031 24.90625 8.261719 C 24.84375 8.316406 24.785156 8.363281 24.59375 8.386719 C 24.402344 8.410156 24.03125 8.386719 24 8.386719 L 23.78125 8.386719 L 23.8125 8.167969 L 23.96875 7.917969 L 23.6875 7.699219 C 23.6875 7.699219 23.507812 7.925781 23.5 7.980469 C 23.492188 8.035156 23.625 8.261719 23.625 8.261719 C 23.625 8.261719 23.5625 8.441406 23.53125 8.480469 C 23.5 8.519531 23.21875 8.605469 23.21875 8.605469 L 22.777344 8.386719 C 22.777344 8.386719 22.597656 8.347656 22.621094 8.449219 C 22.644531 8.550781 22.84375 8.644531 22.84375 8.730469 C 22.84375 8.816406 22.71875 9.011719 22.71875 9.011719 L 22.5625 9.199219 L 22.3125 9.449219 L 21.96875 9.542969 C 21.96875 9.542969 21.71875 9.613281 21.652344 9.636719 C 21.589844 9.660156 21.402344 9.699219 21.402344 9.699219 L 21.152344 9.730469 L 20.996094 9.949219 L 21.277344 10.136719 L 21.46875 10.449219 C 21.46875 10.449219 21.59375 10.671875 21.621094 10.671875 C 21.652344 10.671875 21.71875 10.894531 21.71875 10.894531 L 21.527344 11.144531 L 21.433594 11.144531 L 20.777344 11.269531 L 20.652344 10.988281 L 20.214844 11.425781 L 20.023438 12.148438 L 20.023438 12.742188 L 20.773438 13.148438 L 21.367188 12.925781 L 21.96875 11.863281 L 22.492188 11.207031 L 23.46875 11.050781 L 23.6875 10.863281 L 24.78125 12.144531 L 24.90625 12.582031 L 25.21875 12.425781 L 25.125 12.050781 L 25.3125 12.050781 L 25.1875 11.800781 L 24.125 10.800781 L 24.21875 10.613281 L 24.5625 10.582031 L 25.3125 11.332031 L 25.6875 11.773438 L 25.6875 12.460938 L 25.878906 12.585938 L 26.253906 12.960938 L 26.53125 12.867188 L 26.378906 12.300781 L 26.472656 11.957031 L 26.660156 11.738281 L 27.097656 11.894531 L 27.253906 11.957031 L 27.222656 11.457031 L 27.472656 10.988281 L 27.628906 10.296875 L 28.191406 10.394531 L 28.285156 10.707031 L 28.507812 10.863281 L 28.757812 10.644531 L 28.605469 10.296875 L 29.257812 10.296875 L 29.035156 10.671875 L 29.476562 11.046875 L 29.851562 11.238281 L 30.070312 11.675781 L 29.570312 11.800781 L 28.851562 11.648438 L 28.226562 11.648438 L 27.628906 11.960938 L 27.503906 12.148438 L 27.066406 12.242188 L 27.253906 12.710938 L 27.601562 13.117188 L 28.226562 12.898438 L 28.378906 13.179688 L 28.660156 12.960938 L 29.035156 13.023438 L 29.066406 13.429688 L 28.941406 14.210938 L 28.597656 14.179688 L 28.191406 14.117188 L 28.003906 14.585938 L 26.628906 14.335938 L 26.378906 14.023438 L 26.0625 14.300781 L 25.71875 14.773438 L 24.84375 14.273438 L 23.96875 13.742188 L 23.96875 12.800781 L 23.40625 12.832031 L 23.375 13.148438 L 22 13.082031 L 21.5625 13.488281 L 20.71875 13.519531 L 20.152344 14.019531 L 19.808594 14.988281 L 18.933594 15.675781 L 18.308594 16.523438 L 18.277344 18.148438 L 18.089844 18.648438 L 18.023438 19.242188 L 18.398438 19.898438 L 18.617188 20.523438 L 19.367188 21.425781 L 19.808594 21.800781 L 20.246094 21.898438 L 20.34375 21.523438 L 21.90625 21.523438 L 22.3125 21.332031 L 22.8125 21.398438 L 22.96875 21.710938 L 23.496094 21.742188 L 23.84375 21.992188 L 23.84375 22.523438 L 23.71875 22.960938 L 23.59375 23.304688 L 23.90625 23.867188 L 24.3125 24.339844 L 24.503906 25.527344 L 24.53125 26.308594 L 24.253906 26.960938 L 24.222656 27.585938 L 24.441406 28.742188 L 24.628906 28.933594 L 24.910156 30.027344 L 24.941406 30.496094 L 25.503906 31.246094 L 25.566406 31.839844 L 25.660156 32.527344 L 26.003906 32.183594 L 26.878906 32.089844 L 27.410156 32.089844 L 28.378906 30.589844 L 28.445312 29.996094 L 29.101562 29.339844 L 29.128906 28.589844 L 29.476562 27.839844 L 30.289062 27.058594 L 30.289062 26.183594 L 30.101562 25.371094 L 29.976562 24.246094 L 30.570312 23.308594 L 31.632812 21.992188 L 32.039062 21.585938 L 32.195312 21.058594 L 32.445312 20.585938 L 32.507812 19.898438 L 31.914062 19.898438 L 31.632812 20.179688 L 31.070312 20.023438 L 30.726562 19.460938 L 30.445312 18.898438 L 29.789062 18.398438 L 29.632812 17.582031 L 29.351562 17.113281 L 29.039062 16.519531 L 28.632812 15.800781 L 28.539062 15.332031 L 28.976562 15.269531 L 29.226562 15.800781 L 29.726562 16.738281 L 30.101562 17.425781 L 30.507812 18.175781 L 30.945312 18.894531 L 31.539062 19.488281 L 32.070312 18.988281 L 32.664062 18.832031 L 33.105469 18.300781 L 33.699219 17.957031 L 34.042969 17.363281 L 34.074219 16.863281 L 33.792969 16.550781 L 33.417969 16.113281 L 33.167969 16.269531 L 33.011719 16.519531 L 32.605469 16.328125 L 32.480469 16.015625 L 32.199219 15.609375 L 31.761719 15.203125 L 31.761719 14.390625 L 32.042969 14.917969 L 32.386719 15.449219 L 32.980469 15.792969 L 33.386719 15.699219 L 33.636719 15.980469 L 35.417969 15.949219 L 35.386719 15.980469 L 35.949219 16.480469 L 36.355469 17.042969 L 36.480469 17.324219 L 36.761719 17.324219 L 36.855469 17.011719 L 36.949219 17.480469 L 37.105469 18.324219 L 37.449219 19.140625 L 37.640625 19.828125 L 37.917969 20.484375 L 38.140625 20.765625 L 38.453125 20.574219 L 38.550781 20.261719 L 38.675781 19.480469 L 38.644531 18.789062 L 38.894531 18.476562 C 38.894531 18.476562 39.160156 18.113281 39.207031 18.101562 C 39.253906 18.089844 39.832031 17.445312 39.832031 17.445312 L 40.113281 17.101562 L 40.425781 16.914062 L 40.800781 16.695312 L 40.957031 16.695312 L 41.019531 17.039062 L 41.175781 17.445312 L 41.675781 18.101562 L 41.675781 18.351562 L 41.769531 18.632812 L 42.113281 18.476562 L 42.082031 18.101562 L 42.398438 18.164062 L 42.460938 18.507812 L 42.429688 19.039062 L 42.527344 19.414062 L 42.804688 19.476562 L 42.902344 19.164062 L 43.246094 19.382812 L 43.308594 19.695312 L 43.621094 20.164062 L 43.9375 20.515625 L 44.15625 20.703125 L 44.6875 20.234375 L 44.90625 19.796875 L 44.8125 19.296875 L 44.71875 18.644531 L 44.121094 18.078125 L 44.027344 17.515625 L 44.277344 17.109375 C 44.277344 17.109375 44.4375 16.789062 44.59375 16.953125 C 44.742188 17.121094 44.816406 17.148438 44.746094 17.328125 C 44.679688 17.511719 44.558594 17.921875 44.558594 17.921875 L 44.933594 18.078125 L 45.089844 17.546875 L 44.933594 17.171875 L 45.308594 17.019531 L 45.996094 16.671875 L 46.4375 16.144531 L 46.78125 15.328125 L 46.75 14.734375 L 46.40625 13.953125 L 45.71875 13.140625 L 45.277344 12.734375 L 45.058594 12.109375 L 45.464844 12.015625 C 45.464844 12.015625 45.699219 11.613281 45.902344 11.828125 C 46.105469 12.042969 46.402344 12.359375 46.402344 12.359375 C 46.402344 12.359375 46.757812 12.917969 46.808594 12.984375 C 46.859375 13.050781 47.226562 13.386719 47.277344 13.453125 C 47.328125 13.519531 47.558594 13.765625 47.558594 13.765625 L 47.933594 13.234375 L 48.027344 13.140625 L 48.027344 12.953125 L 47.496094 12.640625 L 47.027344 12.199219 L 47.371094 11.449219 L 47.9375 11.171875 L 48.03125 10.921875 L 48.03125 9.449219 L 47.75 8.886719 L 47.4375 8.445312 C 47.4375 8.445312 47.117188 8.394531 47.03125 8.414062 C 46.945312 8.4375 46.25 7.914062 46.25 7.914062 L 46.316406 7.414062 L 46.566406 6.976562 L 47.753906 6.820312 L 48.035156 6.851562 L 48.035156 6.535156 L 46.316406 4.285156 L 44.660156 4.097656 L 43.378906 3.785156 C 43.378906 3.785156 42.988281 4.082031 42.785156 4.097656 C 42.582031 4.117188 41.878906 4.222656 41.878906 4.222656 L 41.160156 3.785156 L 39.660156 3.660156 L 39.597656 3.628906 L 38.316406 3.566406 L 37.535156 3.128906 M 25.804688 8.011719 L 29.367188 5.320312 L 28.148438 5.976562 L 27.835938 5.757812 L 27.679688 5.507812 L 27.742188 5.257812 L 28.429688 5.289062 L 28.746094 5.164062 L 28.121094 4.851562 L 27.246094 4.539062 L 26.371094 4.382812 L 25.429688 4.570312 L 24.460938 5.351562 L 24.023438 5.789062 L 23.367188 6.507812 L 23.117188 6.539062 L 23.023438 6.882812 L 23.148438 7.226562 C 23.148438 7.226562 23.285156 7.382812 23.304688 7.382812 C 23.328125 7.382812 23.554688 7.257812 23.554688 7.257812 C 23.554688 7.257812 23.582031 7.140625 23.710938 7.101562 C 23.839844 7.0625 23.960938 7.039062 23.960938 7.039062 L 24.148438 7.414062 L 24.367188 7.726562 L 24.460938 7.976562 C 24.460938 7.976562 24.828125 7.753906 24.835938 7.726562 C 24.847656 7.699219 24.867188 7.320312 24.867188 7.320312 L 25.148438 7.132812 C 25.148438 7.132812 25.222656 7 25.210938 6.976562 C 25.203125 6.957031 25.023438 6.757812 25.023438 6.757812 L 24.867188 6.695312 L 24.929688 6.382812 C 24.929688 6.382812 25.054688 6.332031 25.054688 6.289062 C 25.054688 6.246094 25.246094 6.101562 25.246094 6.101562 L 25.464844 5.820312 L 25.621094 5.632812 L 25.839844 5.476562 L 26.089844 5.664062 L 26.089844 5.789062 L 25.871094 6.039062 L 25.804688 6.289062 L 25.804688 6.632812 L 25.996094 6.789062 L 26.339844 6.757812 L 26.652344 6.695312 L 26.933594 6.851562 L 26.871094 7.070312 C 26.871094 7.070312 26.675781 7.257812 26.621094 7.289062 C 26.5625 7.320312 26.207031 7.226562 26.121094 7.257812 C 26.03125 7.289062 25.804688 7.570312 25.804688 7.570312 C 25.804688 7.570312 25.78125 7.820312 25.804688 7.882812 C 25.816406 7.910156 25.816406 7.949219 25.804688 8.007812 M 29.460938 5.320312 L 33.460938 4.632812 L 33.429688 4.476562 L 33.117188 4.039062 L 32.460938 3.976562 C 32.460938 3.976562 32.617188 4.644531 32.617188 4.726562 C 32.617188 4.808594 32.179688 4.757812 32.179688 4.757812 L 31.429688 4.785156 C 31.429688 4.785156 30.34375 5.035156 30.210938 5.035156 C 30.082031 5.035156 29.449219 5.300781 29.398438 5.316406 M 4.296875 3.503906 L 3.796875 4.066406 L 4.234375 4.285156 L 4.796875 4.035156 L 4.828125 4.660156 L 5.296875 4.976562 L 5.796875 4.507812 L 6.488281 4.632812 L 6.765625 3.976562 L 5.640625 3.882812 L 4.296875 3.507812 M 7.421875 3.597656 L 7.859375 4.691406 L 7.328125 4.757812 L 6.921875 5.257812 L 6.015625 4.976562 L 5.203125 5.289062 L 4.421875 5.101562 L 3.515625 4.535156 L 2.265625 4.566406 L 1.171875 5.035156 L 0.453125 4.691406 L 0.015625 4.660156 L 0.015625 18.261719 L 0.859375 18.730469 L 1.359375 18.664062 L 2.078125 19.011719 L 3.171875 19.605469 L 3.328125 20.324219 L 4.203125 21.167969 L 4.703125 20.792969 L 5.109375 21.105469 L 5.046875 20.386719 L 4.265625 20.574219 L 4.015625 19.671875 L 3.921875 19.265625 L 3.234375 18.640625 L 3.234375 18.199219 L 3.765625 17.636719 L 3.417969 17.230469 L 2.855469 17.324219 L 2.011719 18.171875 L 1.320312 18.074219 C 1.320312 18.074219 1.007812 17.546875 0.945312 17.421875 C 0.882812 17.296875 1.136719 16.855469 1.136719 16.855469 L 1.070312 15.574219 L 1.789062 15.074219 L 2.355469 14.886719 L 3.167969 14.886719 L 4.292969 14.636719 L 4.699219 15.167969 L 4.636719 15.792969 L 5.105469 16.199219 L 5.167969 15.761719 C 5.167969 15.761719 5.140625 15.039062 5.074219 14.855469 C 5.007812 14.667969 5.640625 14.230469 5.640625 14.230469 L 6.140625 13.605469 L 6.734375 12.886719 L 7.015625 12.320312 L 7.953125 11.820312 L 8.578125 11.132812 C 8.578125 11.132812 9.511719 10.976562 9.703125 10.882812 C 9.894531 10.789062 9.769531 10.445312 9.578125 10.132812 C 9.386719 9.820312 9.671875 9.507812 9.671875 9.507812 L 10.390625 9.070312 L 11.015625 9.195312 L 11.078125 9.945312 C 11.078125 9.945312 11.667969 10.507812 11.859375 10.414062 C 12.050781 10.320312 12.140625 10.007812 12.140625 10.007812 L 11.828125 9.195312 L 12.015625 8.382812 L 11.171875 8.507812 L 11.171875 7.132812 L 10.921875 7.382812 L 10.265625 7.410156 L 10.171875 6.722656 L 9.734375 6.191406 C 9.734375 6.191406 9.300781 6.441406 8.890625 6.597656 C 8.476562 6.753906 8.574219 7.066406 8.574219 7.066406 L 8.542969 7.910156 L 7.855469 8.476562 L 7.414062 9.132812 C 7.414062 9.132812 7.136719 8.941406 7.136719 8.816406 C 7.136719 8.691406 7.070312 8.347656 7.070312 8.347656 L 6.351562 7.78125 C 6.351562 7.78125 5.789062 7.378906 5.753906 7.253906 C 5.722656 7.128906 6.101562 6.5625 6.101562 6.5625 C 6.101562 6.5625 6.910156 6.0625 7.101562 5.90625 C 7.289062 5.753906 8.316406 6.253906 8.445312 6.15625 C 8.570312 6.0625 9.070312 5.28125 9.070312 5.28125 L 9.511719 4.6875 L 9.070312 5.1875 L 8.320312 4.46875 L 8.445312 3.746094 M 9.914062 3.625 L 9.664062 4.25 L 9.820312 4.59375 L 10.386719 4.53125 L 10.636719 5 L 10.136719 5.53125 L 9.570312 5.59375 L 10.070312 5.8125 L 10.601562 6.28125 L 11.132812 6.40625 L 11.320312 5.6875 L 11.351562 5.25 L 11.976562 5.34375 C 11.976562 5.34375 11.789062 5.65625 11.882812 5.65625 C 11.980469 5.65625 12.351562 5.257812 12.351562 5.257812 L 11.289062 4.15625 C 11.289062 4.15625 10.855469 3.8125 10.726562 3.90625 C 10.597656 4.007812 10.257812 3.972656 10.257812 3.972656 L 9.914062 3.628906 M 18.601562 5.40625 L 18.476562 5.8125 C 18.929688 6.164062 19.101562 6.15625 19.101562 6.15625 L 19.628906 6.03125 L 19.976562 5.6875 L 19.753906 5.40625 M 21.378906 7.1875 L 21.128906 7.40625 C 21.0625 7.710938 20.976562 8.03125 20.976562 8.03125 L 21.445312 8.25 L 21.507812 8.53125 L 21.257812 8.78125 L 21.039062 9.15625 L 21.195312 9.3125 L 21.757812 9.21875 L 22.257812 9 L 21.980469 8.625 L 21.882812 7.96875 L 21.539062 7.59375 M 20.601562 8.375 L 20.320312 8.84375 L 20.695312 9 L 20.851562 8.71875 M 5.160156 9.46875 L 5.816406 9.75 L 6.253906 10.3125 L 6.535156 10.75 C 6.535156 10.75 6.285156 11.59375 6.222656 11.75 C 6.160156 11.90625 5.972656 11.4375 5.972656 11.4375 L 5.816406 10.625 L 5.285156 10.84375 L 4.878906 11.8125 L 4.976562 11 L 5.101562 10.4375 L 4.445312 10.1875 L 5.011719 9.65625 M 31.539062 10.21875 C 31.679688 10.175781 31.914062 10.375 31.914062 10.375 L 31.664062 10.59375 L 31.761719 10.90625 L 32.039062 11.65625 L 32.320312 12.125 L 32.695312 12.71875 L 32.289062 12.90625 L 31.761719 12.5625 L 31.539062 11.90625 C 31.539062 11.90625 31.238281 11.511719 31.101562 11.4375 C 30.960938 11.371094 30.851562 11.15625 30.851562 11.15625 L 30.976562 10.632812 C 30.976562 10.632812 31.402344 10.269531 31.539062 10.226562 M 23.636719 11.410156 L 23.261719 12.132812 L 23.539062 12.410156 L 23.789062 12.191406 L 23.820312 11.878906 M 22.382812 12.15625 L 22.382812 12.347656 L 22.535156 12.316406 M 24.535156 12.632812 L 24.347656 12.695312 L 24.660156 13.226562 L 24.941406 13.007812 M 4.414062 16.820312 L 4.101562 16.976562 L 4.632812 17.257812 L 5.226562 17.382812 L 5.570312 17.851562 L 5.976562 17.601562 L 5.914062 17.320312 L 5.226562 16.820312 M 6.105469 19.914062 L 5.289062 20.355469 L 5.195312 21.261719 L 5.007812 22.261719 L 4.445312 23.011719 L 4.476562 24.136719 L 4.945312 25.28125 L 5.445312 26.6875 L 6.757812 28.003906 L 6.820312 28.753906 L 6.914062 32.128906 L 7.382812 34.03125 C 7.382812 34.03125 7.671875 35.132812 7.605469 35.222656 C 7.535156 35.308594 7.980469 36.128906 7.980469 36.128906 L 8.855469 37.503906 L 10.074219 38.03125 L 9.574219 37.4375 L 9.324219 36.75 L 9.574219 36.03125 L 8.921875 35.6875 C 8.921875 35.6875 9.355469 35.402344 9.421875 35.3125 C 9.484375 35.226562 9.324219 34.84375 9.324219 34.84375 L 9.136719 34.367188 L 9.636719 33.71875 L 10.414062 33.527344 L 10.539062 32.933594 L 10.070312 32.714844 L 10.261719 32.214844 L 11.011719 32.117188 L 11.664062 30.523438 L 12.136719 29.429688 L 13.109375 28.960938 C 13.109375 28.960938 13.421875 28.027344 13.421875 27.894531 C 13.421875 27.761719 13.515625 26.363281 13.515625 26.363281 L 14.265625 25.339844 L 14.359375 24.648438 L 13.796875 24.304688 L 13.328125 23.738281 L 12.484375 23.804688 L 11.136719 23.023438 L 10.859375 22.367188 C 10.859375 22.367188 10.386719 21.554688 10.292969 21.554688 C 10.203125 21.554688 9.636719 21.585938 9.636719 21.585938 L 9.109375 21.054688 L 8.761719 20.398438 L 7.417969 20.117188 L 6.980469 19.898438 L 6.105469 19.898438 M 42.542969 20.402344 C 42.65625 20.535156 43.359375 22.628906 43.449219 22.628906 C 43.539062 22.628906 44.074219 22.691406 44.074219 22.691406 L 43.792969 21.847656 M 38.949219 20.472656 L 38.636719 20.878906 L 38.789062 21.472656 L 39.136719 21.097656 L 39.070312 20.628906 L 38.945312 20.472656 M 47.042969 21.191406 L 45.574219 22.003906 C 45.574219 22.089844 44.855469 22.691406 44.855469 22.691406 L 45.042969 23.316406 L 45.449219 23.785156 L 45.730469 24.472656 L 47.605469 23.253906 L 47.039062 21.191406 M 42.449219 21.628906 L 42.011719 21.691406 L 44.011719 24.691406 L 44.539062 25.285156 L 45.855469 25.351562 L 46.667969 25.601562 L 45.792969 24.976562 L 44.542969 24.632812 L 44.230469 23.476562 L 43.539062 22.910156 L 42.445312 21.632812 M 31.949219 26.507812 L 31.949219 26.945312 C 31.929688 27.011719 31.542969 27.320312 31.542969 27.320312 L 31.074219 27.539062 L 30.730469 27.820312 L 30.980469 28.164062 L 31.132812 28.320312 L 30.730469 28.664062 L 30.730469 29.230469 L 30.882812 29.824219 L 31.230469 29.917969 L 31.632812 29.292969 L 31.882812 28.886719 L 31.820312 28.386719 L 32.195312 27.792969 L 32.320312 27.511719 L 32.320312 26.949219 L 32.226562 26.511719 L 31.945312 26.511719 M 48.003906 27.230469 C 48 27.230469 47.976562 27.261719 47.976562 27.261719 L 47.476562 28.285156 C 47.476562 28.285156 46.371094 28.445312 46.351562 28.535156 C 46.328125 28.621094 45.785156 28.910156 45.785156 28.910156 C 45.671875 28.910156 45.316406 29.566406 45.316406 29.566406 L 45.253906 31.632812 L 45.128906 32.382812 L 45.441406 32.785156 L 46.972656 32.257812 L 47.472656 31.691406 L 48.003906 31.691406 M 11.472656 35.972656 L 11.253906 36.128906 L 11.160156 36.160156 L 11.660156 36.410156 M 10.628906 36.160156 L 10.410156 36.660156 L 10.847656 36.566406 M 12.128906 40.285156 L 11.660156 41.003906 L 10.785156 41.410156 L 11.285156 42.035156 L 10.535156 42.410156 L 8.066406 42.285156 L 7.316406 41.535156 L 6.660156 41.410156 L 7.316406 42.785156 L 6.160156 42.566406 L 2.191406 42.691406 L 1.347656 43.785156 L 0.128906 43.660156 L 0.00390625 43.910156 L 0.00390625 48.003906 L 45.28125 48.003906 L 48.003906 46.222656 L 48.003906 44.316406 L 47.878906 43.128906 L 46.90625 42.910156 L 45.6875 43.066406 L 44.8125 43.847656 L 43.34375 44.441406 L 43.96875 43.691406 L 45.3125 42.910156 L 47.46875 42.410156 L 47.71875 41.535156 L 46.71875 41.535156 C 46.71875 41.535156 45.371094 40.867188 45.371094 40.691406 C 45.371094 40.515625 43.871094 40.566406 43.871094 40.566406 L 42.152344 40.753906 L 40.496094 40.660156 L 37.183594 40.785156 L 34.121094 41.410156 C 34.121094 41.410156 32.644531 42.203125 32.464844 42.160156 C 32.285156 42.117188 33.089844 41.128906 33.089844 41.128906 L 31.652344 41.222656 L 30.746094 40.472656 L 29.839844 41.097656 C 29.839844 41.097656 28.625 41.191406 28.308594 41.191406 C 27.992188 41.191406 27.589844 41.757812 27.589844 41.757812 L 25.121094 41.660156 L 20.871094 41.851562 L 19.746094 42.820312 L 19.464844 42.851562 L 16.246094 42.632812 L 14.027344 42.851562 L 13.246094 42.476562 L 13.277344 42.410156 C 13.277344 42.410156 12.621094 41.09375 12.621094 40.910156 C 12.621094 40.734375 12.121094 40.285156 12.121094 40.285156 M 12.46875 43.476562 L 13.8125 43.914062 L 12.15625 43.914062 L 11.5 43.570312 M 12.472656 43.476562 "/>
<path style=" stroke:none;fill-rule:nonzero;fill:rgb(12.156863%,32.54902%,63.921569%);fill-opacity:1;" d="M 29.148438 6.816406 C 30.289062 7.035156 31.265625 7.289062 32.046875 7.632812 C 33.253906 8.148438 34.023438 8.832031 34.394531 9.617188 C 33.273438 9.417969 32.285156 9.46875 31.398438 9.804688 C 37.777344 12.238281 40.800781 15.144531 40.449219 18.488281 C 39.980469 17.789062 39.351562 17.335938 38.558594 17.105469 C 39.535156 20.773438 39.644531 23.777344 38.851562 26.164062 C 38.308594 24.570312 37.800781 23.636719 37.355469 23.300781 C 37.972656 28.21875 37.136719 31.851562 34.84375 34.21875 C 35.28125 32.773438 35.464844 31.597656 35.367188 30.664062 C 32.675781 34.554688 29.609375 36.546875 26.179688 36.675781 C 24.824219 36.660156 23.542969 36.488281 22.335938 36.109375 C 20.570312 35.539062 18.972656 34.539062 17.546875 33.152344 C 19.769531 33.328125 21.789062 32.953125 23.574219 32.082031 L 26.515625 30.257812 C 26.882812 29.992188 27.242188 30.019531 27.589844 30.183594 C 28.304688 30.085938 28.484375 29.878906 28.277344 29.230469 C 27.824219 28.847656 27.425781 28.34375 26.746094 27.976562 C 25.28125 27.242188 23.769531 27.191406 22.183594 28.3125 C 20.660156 29.140625 19.203125 29.097656 17.785156 28.21875 C 16.851562 27.601562 15.949219 26.769531 15.085938 25.730469 L 14.757812 25.261719 L 14.757812 25.222656 C 14.800781 24.195312 15.214844 23.648438 16.0625 23.523438 C 17.015625 23.605469 18.113281 23.808594 19.351562 24.152344 C 19.558594 23.011719 19.285156 21.824219 18.535156 20.597656 L 18.558594 20.460938 C 19.71875 19.425781 20.679688 18.800781 21.558594 18.316406 C 21.871094 17.902344 22.011719 17.753906 22.242188 17.382812 C 22.191406 17.273438 22.296875 17.214844 22.359375 17.269531 C 22.425781 16.957031 22.429688 16.996094 22.140625 16.59375 C 21.285156 16.796875 20.324219 16.554688 19.675781 16.390625 C 19.339844 16.296875 18.882812 16.089844 18.359375 15.609375 L 17.023438 14.351562 L 16.675781 13.917969 L 16.699219 13.757812 C 16.851562 12.769531 17.347656 11.964844 17.742188 11.210938 C 18.183594 10.519531 18.992188 9.773438 20.222656 8.976562 C 17.941406 9.25 15.898438 10.234375 14.066406 11.933594 C 12.546875 11.398438 10.730469 11.515625 8.660156 12.28125 L 8.09375 12.371094 C 8.0625 12.386719 8.363281 12.488281 8.335938 12.503906 L 8.660156 12.28125 C 7.371094 11.695312 7.433594 10.894531 7.011719 8.214844 C -0.636719 16.394531 -0.71875 28.675781 5.339844 37.558594 C 9.929688 43.292969 15.691406 46.339844 22.636719 46.746094 C 38.789062 47.46875 49.367188 33.550781 46.777344 19.433594 C 46.714844 18.316406 45.332031 13.476562 42.800781 10.195312 C 43.242188 11.894531 43.277344 13.75 43.285156 14.714844 C 42.339844 11.503906 39.707031 8.847656 35.890625 7.730469 C 34.003906 7.183594 31.742188 6.890625 29.148438 6.816406 M 29.152344 6.816406 "/>
<path style=" stroke:none;fill-rule:nonzero;fill:rgb(92.54902%,49.803922%,26.27451%);fill-opacity:1;" d="M 41.039062 15.417969 C 41.09375 15.515625 41.136719 15.613281 41.1875 15.707031 C 41.183594 15.726562 41.191406 15.75 41.1875 15.761719 C 41.175781 15.746094 41.15625 15.722656 41.15625 15.707031 C 41.113281 15.609375 41.085938 15.515625 41.039062 15.417969 M 41.039062 15.417969 "/>
<path style=" stroke:none;fill-rule:nonzero;fill:rgb(98.823529%,96.078431%,80.784314%);fill-opacity:1;" d="M 26.597656 30.160156 C 26.925781 29.976562 27.34375 30.078125 27.65625 30.160156 C 27.964844 30.132812 28.566406 29.964844 28.328125 29.1875 C 27.929688 28.71875 27.328125 28.160156 26.140625 27.75 M 26.597656 30.160156 "/>
<path style=" stroke:none;fill-rule:nonzero;fill:rgb(17.647059%,17.647059%,17.647059%);fill-opacity:1;" d="M 19.773438 16.464844 L 21.496094 18.269531 C 21.738281 18.109375 22.03125 17.976562 22.148438 17.417969 C 22.171875 17.378906 22.203125 17.355469 22.257812 17.347656 C 22.464844 16.9375 22.257812 16.796875 22.003906 16.601562 C 21.273438 16.613281 20.746094 16.578125 19.773438 16.464844 M 19.773438 16.464844 "/>
<path style=" stroke:none;fill-rule:nonzero;fill:rgb(98.823529%,96.078431%,80.784314%);fill-opacity:1;" d="M 18.660156 20.464844 C 18.445312 19.960938 18.054688 19.269531 17.582031 18.890625 L 20.550781 17.414062 L 21.464844 18.363281 C 20.421875 18.996094 19.476562 19.644531 18.660156 20.464844 M 18.660156 20.464844 "/>
<path style=" stroke:none;fill-rule:nonzero;fill:rgb(30.196078%,53.333333%,81.176471%);fill-opacity:1;" d="M 17.039062 14.050781 C 16.511719 15.84375 16.839844 17.464844 17.632812 18.953125 L 20.609375 17.355469 C 20.214844 16.890625 19.804688 16.441406 19.804688 16.441406 C 19.5 16.347656 19.109375 16.078125 18.632812 15.605469 L 17.414062 14.351562 M 17.039062 14.050781 "/>
</g>
</svg>
