<!-- color: #eeeeee -->
<svg xmlns="http://www.w3.org/2000/svg" xmlns:xlink="http://www.w3.org/1999/xlink" width="48px" height="48px" viewBox="0 0 48 48" version="1.1">
<g id="surface1">
<path style=" stroke:none;fill-rule:nonzero;fill:rgb(60.784314%,72.941176%,5.882353%);fill-opacity:1;" d="M 16 12 L 28 12 L 28 33.996094 L 16 33.996094 M 16 12 "/>
<path style=" stroke:none;fill-rule:nonzero;fill:rgb(18.431373%,38.431373%,18.431373%);fill-opacity:1;" d="M 16 12 L 16 14 L 26 14 L 26 12 M 16 14 L 14.003906 14 L 14.003906 20 L 16 20 M 14.003906 20 L 12.003906 20 L 12.003906 21.996094 L 14.003906 21.996094 M 28.003906 14 L 28.003906 18 L 30 18 L 30 14 M 28.003906 18 L 26.003906 18 L 26.003906 22 L 28.003906 22 M 28.003906 18 "/>
<path style=" stroke:none;fill-rule:nonzero;fill:rgb(60.784314%,72.941176%,5.882353%);fill-opacity:1;" d="M 28 24 L 34 24 L 34 32 L 28 32 M 28 24 "/>
<path style=" stroke:none;fill-rule:nonzero;fill:rgb(60.784314%,72.941176%,5.882353%);fill-opacity:1;" d="M 23.996094 31.996094 L 27.992188 31.996094 L 27.992188 35.992188 L 23.996094 35.992188 M 23.996094 31.996094 "/>
<path style=" stroke:none;fill-rule:nonzero;fill:rgb(60.784314%,72.941176%,5.882353%);fill-opacity:1;" d="M 14 20 L 15.996094 20 L 15.996094 26 L 14 26 M 14 20 "/>
<path style=" stroke:none;fill-rule:nonzero;fill:rgb(60.784314%,72.941176%,5.882353%);fill-opacity:1;" d="M 16 33.992188 L 18 33.992188 L 18 35.988281 L 16 35.988281 M 16 33.992188 "/>
<path style=" stroke:none;fill-rule:nonzero;fill:rgb(5.882353%,21.176471%,5.882353%);fill-opacity:1;" d="M 14 9.996094 L 14 13.992188 L 15.996094 13.992188 L 15.996094 11.996094 L 17.996094 11.996094 L 17.996094 9.996094 M 25.996094 9.996094 L 25.996094 11.996094 L 27.996094 11.996094 L 27.996094 13.992188 L 29.992188 13.992188 L 29.992188 9.996094 M 15.996094 15.996094 L 15.996094 19.992188 L 17.996094 19.992188 L 17.996094 15.996094 M 21.996094 15.996094 L 21.996094 19.992188 L 23.992188 19.992188 L 23.992188 15.996094 M 11.996094 17.992188 L 11.996094 19.992188 L 13.996094 19.992188 L 13.996094 17.992188 M 11.996094 21.992188 L 11.996094 27.984375 L 15.992188 27.984375 L 15.992188 31.984375 L 17.992188 31.984375 L 17.992188 21.984375 L 11.996094 21.984375 M 15.992188 31.984375 L 13.996094 31.984375 L 13.996094 37.980469 L 19.988281 37.980469 L 19.988281 33.984375 L 17.992188 33.984375 L 17.992188 35.984375 L 15.992188 35.984375 M 19.988281 33.984375 L 21.988281 33.984375 L 21.988281 35.984375 L 23.988281 35.984375 L 23.988281 31.984375 L 19.988281 31.984375 M 23.988281 35.984375 L 23.988281 37.980469 L 27.984375 37.980469 L 27.984375 35.984375 M 27.984375 35.984375 L 29.980469 35.984375 L 29.980469 33.984375 L 33.980469 33.984375 L 33.980469 31.984375 L 35.976562 31.984375 L 35.976562 23.984375 L 31.980469 23.984375 L 31.980469 21.988281 L 25.980469 21.988281 L 25.980469 23.984375 L 29.980469 23.984375 L 29.980469 25.984375 L 25.980469 25.984375 L 25.980469 33.976562 L 27.980469 33.976562 L 27.980469 35.976562 M 13.984375 23.984375 L 15.984375 23.984375 L 15.984375 25.984375 L 13.984375 25.984375 M 31.984375 25.984375 L 33.984375 25.984375 L 33.984375 29.980469 L 31.984375 29.980469 L 31.984375 31.980469 L 27.988281 31.980469 L 27.988281 29.980469 L 29.984375 29.980469 L 29.984375 27.980469 L 31.984375 27.980469 M 31.984375 25.984375 "/>
<path style=" stroke:none;fill-rule:nonzero;fill:rgb(5.882353%,21.176471%,5.882353%);fill-opacity:1;" d="M 12 24 L 12 22 L 18 22 L 18 24 M 12 24 "/>
</g>
</svg>
