<!-- color: #d90606 -->
<svg xmlns="http://www.w3.org/2000/svg" xmlns:xlink="http://www.w3.org/1999/xlink" width="48px" height="48px" viewBox="0 0 48 48" version="1.1">
<g id="surface1">
<path style="fill:none;stroke-width:0.282;stroke-linecap:butt;stroke-linejoin:miter;stroke:rgb(100%,100%,100%);stroke-opacity:1;stroke-miterlimit:4;" d="M 8.184445 7.059965 C 8.184445 7.059965 9.594453 3.391076 6.773333 3.391076 C 6.773333 3.391076 8.748889 5.08441 5.362222 7.059965 " transform="matrix(3.543307,0,0,3.543307,0,0)"/>
<path style=" stroke:none;fill-rule:nonzero;fill:rgb(100%,100%,100%);fill-opacity:1;" d="M 19 24 C 15.6875 24 13 26.6875 13 30 C 13 33.3125 15.6875 36 19 36 C 20.714844 36 22.25 35.277344 23.34375 34.125 C 22.492188 32.964844 22 31.546875 22 30 C 22 28.453125 22.492188 27.035156 23.34375 25.875 C 22.25 24.722656 20.714844 24 19 24 M 19 24 "/>
<path style=" stroke:none;fill-rule:nonzero;fill:rgb(100%,100%,100%);fill-opacity:1;" d="M 24 12 C 25.578125 18.792969 20.902344 17.628906 16 22.40625 C 14.003906 17.40625 18.9375 8.492188 24 12 M 24 12 "/>
<path style=" stroke:none;fill-rule:nonzero;fill:rgb(100%,100%,100%);fill-opacity:1;" d="M 35 30 C 35 33.3125 32.3125 36 29 36 C 25.6875 36 23 33.3125 23 30 C 23 26.6875 25.6875 24 29 24 C 32.3125 24 35 26.6875 35 30 M 35 30 "/>
</g>
</svg>
