<!-- color: #797093 -->
<svg xmlns="http://www.w3.org/2000/svg" xmlns:xlink="http://www.w3.org/1999/xlink" width="48px" height="48px" viewBox="0 0 48 48" version="1.1">
<g id="surface1">
<path style="fill:none;stroke-width:0.419;stroke-linecap:round;stroke-linejoin:miter;stroke:rgb(97.647059%,97.647059%,97.647059%);stroke-opacity:1;stroke-miterlimit:4;" d="M 8.119401 6.548438 C 8.280356 6.287162 8.374063 5.978481 8.374063 5.649957 C 8.374063 5.314818 8.277049 5.00283 8.111684 4.740452 " transform="matrix(3.543307,0,0,3.543307,0,0)"/>
<path style="fill:none;stroke-width:0.419;stroke-linecap:round;stroke-linejoin:miter;stroke:rgb(97.647059%,97.647059%,97.647059%);stroke-opacity:1;stroke-miterlimit:4;" d="M 8.698177 4.146241 C 9.005755 4.566267 9.185452 5.085512 9.185452 5.649957 C 9.185452 6.207787 9.006858 6.723724 8.703689 7.141545 " transform="matrix(3.543307,0,0,3.543307,0,0)"/>
<path style="fill:none;stroke-width:0.419;stroke-linecap:round;stroke-linejoin:miter;stroke:rgb(97.647059%,97.647059%,97.647059%);stroke-opacity:1;stroke-miterlimit:4;" d="M 9.250495 7.692761 C 9.689262 7.130521 9.950538 6.421658 9.950538 5.649957 C 9.950538 4.872743 9.682648 4.159471 9.239471 3.596129 " transform="matrix(3.543307,0,0,3.543307,0,0)"/>
<path style="fill:none;stroke-width:0.419;stroke-linecap:round;stroke-linejoin:miter;stroke:rgb(97.647059%,97.647059%,97.647059%);stroke-opacity:1;stroke-miterlimit:4;" d="M 5.428368 6.548438 C 5.267413 6.287162 5.171502 5.978481 5.171502 5.649957 C 5.171502 5.314818 5.268516 5.00283 5.432778 4.740452 " transform="matrix(3.543307,0,0,3.543307,0,0)"/>
<path style="fill:none;stroke-width:0.419;stroke-linecap:round;stroke-linejoin:miter;stroke:rgb(97.647059%,97.647059%,97.647059%);stroke-opacity:1;stroke-miterlimit:4;" d="M 4.84849 4.146241 C 4.538707 4.566267 4.359011 5.085512 4.359011 5.649957 C 4.359011 6.207787 4.537604 6.723724 4.840773 7.141545 " transform="matrix(3.543307,0,0,3.543307,0,0)"/>
<path style="fill:none;stroke-width:0.419;stroke-linecap:round;stroke-linejoin:miter;stroke:rgb(97.647059%,97.647059%,97.647059%);stroke-opacity:1;stroke-miterlimit:4;" d="M 4.297274 7.692761 C 3.858507 7.130521 3.596129 6.421658 3.596129 5.649957 C 3.596129 4.872743 3.861814 4.159471 4.304991 3.596129 " transform="matrix(3.543307,0,0,3.543307,0,0)"/>
<path style=" stroke:none;fill-rule:nonzero;fill:rgb(97.647059%,97.647059%,97.647059%);fill-opacity:1;" d="M 26 20 C 26 21.105469 25.105469 22 24 22 C 22.894531 22 22 21.105469 22 20 C 22 18.894531 22.894531 18 24 18 C 25.105469 18 26 18.894531 26 20 M 26 20 "/>
<path style=" stroke:none;fill-rule:nonzero;fill:rgb(97.647059%,97.647059%,97.647059%);fill-opacity:1;" d="M 24 20 C 24.550781 20 24.996094 20.472656 24.996094 21.0625 L 24.996094 36.933594 C 24.996094 37.523438 24.550781 38 24 38 C 23.445312 38 23 37.523438 23 36.933594 L 23 21.0625 C 23 20.472656 23.445312 20 24 20 M 24 20 "/>
</g>
</svg>
