<!-- color: #ec8430 -->
<svg xmlns="http://www.w3.org/2000/svg" xmlns:xlink="http://www.w3.org/1999/xlink" width="48px" height="48px" viewBox="0 0 48 48" version="1.1">
<g id="surface1">
<path style=" stroke:none;fill-rule:nonzero;fill:rgb(97.647059%,97.647059%,97.647059%);fill-opacity:1;" d="M 12.058594 20.875 C 11.550781 16.960938 14.25 12 18.523438 12 C 30.980469 12 19.964844 27.050781 20.988281 28.121094 C 21.988281 29.121094 23.773438 27.496094 24.964844 25.679688 C 25.984375 24.089844 26.820312 22.402344 28.691406 23.320312 C 30.777344 24.347656 30.789062 26.320312 31.820312 28.464844 C 32.851562 30.605469 33.902344 31.78125 34.949219 32.578125 C 38.527344 36.472656 31.984375 37.1875 30.027344 33.992188 C 27.992188 31.136719 28.992188 29.125 25.125 33.558594 C 18.996094 41.210938 13.003906 29.121094 12.0625 20.875 M 12.066406 20.875 "/>
</g>
</svg>
