<!-- color: #f45b55 -->
<svg xmlns="http://www.w3.org/2000/svg" xmlns:xlink="http://www.w3.org/1999/xlink" width="48px" height="48px" viewBox="0 0 48 48" version="1.1">
<g id="surface1">
<path style="fill:none;stroke-width:4;stroke-linecap:butt;stroke-linejoin:round;stroke:rgb(97.647059%,97.647059%,97.647059%);stroke-opacity:1;stroke-miterlimit:5.8;" d="M 35.002088 24.499987 C 35.002088 31.404992 29.404967 37.002113 22.499962 37.002113 C 15.594958 37.002113 9.997837 31.404992 9.997837 24.499987 C 9.997837 17.594983 15.594958 11.997862 22.499962 11.997862 C 29.404967 11.997862 35.002088 17.594983 35.002088 24.499987 M 35.002088 24.499987 " transform="matrix(0.758621,0,0,0.758621,6.931056,5.413795)"/>
<path style="fill:none;stroke-width:0.594;stroke-linecap:butt;stroke-linejoin:miter;stroke:rgb(97.647059%,97.647059%,97.647059%);stroke-opacity:1;stroke-miterlimit:5.8;" d="M 6.506475 9.609887 L 7.041154 9.609901 L 7.04114 10.144579 L 6.506461 10.144566 M 6.506475 9.609887 " transform="matrix(0.000088201,3.543307,-3.543307,0.000088201,47.999426,-0.000597679)"/>
<path style="fill:none;stroke-width:0.594;stroke-linecap:butt;stroke-linejoin:miter;stroke:rgb(97.647059%,97.647059%,97.647059%);stroke-opacity:1;stroke-miterlimit:5.8;" d="M 6.505527 3.400998 L 7.043513 3.401012 L 7.0435 3.935691 L 6.505514 3.935677 M 6.505527 3.400998 " transform="matrix(0.000088201,3.543307,-3.543307,0.000088201,47.999426,-0.000597679)"/>
<path style="fill:none;stroke-width:0.594;stroke-linecap:butt;stroke-linejoin:miter;stroke:rgb(97.647059%,97.647059%,97.647059%);stroke-opacity:1;stroke-miterlimit:5.8;" d="M 6.506539 9.609887 L 7.043423 9.609887 L 7.043423 10.144566 L 6.506539 10.144566 M 6.506539 9.609887 " transform="matrix(3.543307,0,0,3.543307,0.0000210374,0.000000433596)"/>
<path style="fill:none;stroke-width:0.594;stroke-linecap:butt;stroke-linejoin:miter;stroke:rgb(97.647059%,97.647059%,97.647059%);stroke-opacity:1;stroke-miterlimit:5.8;" d="M 6.506539 3.400998 L 7.043423 3.400998 L 7.043423 3.935677 L 6.506539 3.935677 M 6.506539 3.400998 " transform="matrix(3.543307,0,0,3.543307,0.0000210374,0.000000433596)"/>
<path style="fill:none;stroke-width:0.594;stroke-linecap:butt;stroke-linejoin:miter;stroke:rgb(97.647059%,97.647059%,97.647059%);stroke-opacity:1;stroke-miterlimit:5.8;" d="M 6.50595 9.610063 L 7.040711 9.610063 L 7.040711 10.144824 L 6.50595 10.144824 M 6.50595 9.610063 " transform="matrix(2.505496,-2.505496,2.505496,2.505496,-9.941104,24.000001)"/>
<path style="fill:none;stroke-width:0.594;stroke-linecap:butt;stroke-linejoin:miter;stroke:rgb(97.647059%,97.647059%,97.647059%);stroke-opacity:1;stroke-miterlimit:5.8;" d="M 6.50595 3.400277 L 7.041491 3.401056 L 7.041491 3.935818 L 6.50595 3.936598 M 6.50595 3.400277 " transform="matrix(2.505496,-2.505496,2.505496,2.505496,-9.941104,24.000001)"/>
<path style="fill:none;stroke-width:0.594;stroke-linecap:butt;stroke-linejoin:miter;stroke:rgb(97.647059%,97.647059%,97.647059%);stroke-opacity:1;stroke-miterlimit:5.8;" d="M 6.505949 9.610072 L 7.040711 9.610072 L 7.040711 10.144833 L 6.505949 10.144833 M 6.505949 9.610072 " transform="matrix(2.505496,2.505496,-2.505496,2.505496,24.000022,-9.941126)"/>
<path style="fill:none;stroke-width:0.594;stroke-linecap:butt;stroke-linejoin:miter;stroke:rgb(97.647059%,97.647059%,97.647059%);stroke-opacity:1;stroke-miterlimit:5.8;" d="M 6.50595 3.400277 L 7.041491 3.401056 L 7.041491 3.935818 L 6.50595 3.936598 M 6.50595 3.400277 " transform="matrix(2.505496,2.505496,-2.505496,2.505496,23.999999,-9.941104)"/>
<path style=" stroke:none;fill-rule:nonzero;fill:rgb(97.647059%,97.647059%,97.647059%);fill-opacity:1;" d="M 27.039062 24.019531 C 27.039062 25.648438 25.679688 27.039062 24.019531 27.039062 C 22.359375 27.039062 21 25.710938 21 24.019531 C 21 22.390625 22.359375 21 24.019531 21 C 25.683594 21 27.039062 22.328125 27.039062 24.019531 M 27.039062 24.019531 "/>
</g>
</svg>
