<!-- color: #8cbacc -->
<svg xmlns="http://www.w3.org/2000/svg" xmlns:xlink="http://www.w3.org/1999/xlink" width="48px" height="48px" viewBox="0 0 48 48" version="1.1">
<g id="surface1">
<path style=" stroke:none;fill-rule:nonzero;fill:rgb(97.647059%,97.647059%,97.647059%);fill-opacity:1;" d="M 24 12 C 18.414062 12 13.742188 15.832031 12.40625 21 L 35.597656 21 C 34.257812 15.832031 29.585938 12 24.003906 12 M 12.398438 27 C 13.734375 32.167969 18.410156 36 23.992188 36 C 29.585938 36 34.257812 32.167969 35.59375 27 L 12.402344 27 M 12.40625 27 "/>
<path style=" stroke:none;fill-rule:nonzero;fill:rgb(20%,20%,20%);fill-opacity:1;" d="M 13 21 L 35 21 L 35 27 L 13 27 M 13 21 "/>
<path style=" stroke:none;fill-rule:nonzero;fill:rgb(86.27451%,18.823529%,18.431373%);fill-opacity:1;" d="M 26 24 C 26 25.105469 25.105469 26 24 26 C 22.894531 26 22 25.105469 22 24 C 22 22.894531 22.894531 22 24 22 C 25.105469 22 26 22.894531 26 24 M 26 24 "/>
<path style=" stroke:none;fill-rule:nonzero;fill:rgb(86.27451%,18.823529%,18.431373%);fill-opacity:1;" d="M 19 24 C 19 25.105469 18.105469 26 17 26 C 15.894531 26 15 25.105469 15 24 C 15 22.894531 15.894531 22 17 22 C 18.105469 22 19 22.894531 19 24 M 19 24 "/>
<path style=" stroke:none;fill-rule:nonzero;fill:rgb(86.27451%,18.823529%,18.431373%);fill-opacity:1;" d="M 33 24 C 33 25.105469 32.105469 26 31 26 C 29.894531 26 29 25.105469 29 24 C 29 22.894531 29.894531 22 31 22 C 32.105469 22 33 22.894531 33 24 M 33 24 "/>
</g>
</svg>
