<!-- color: #9d8fa7 -->
<svg xmlns="http://www.w3.org/2000/svg" xmlns:xlink="http://www.w3.org/1999/xlink" width="48px" height="48px" viewBox="0 0 48 48" version="1.1">
<g id="surface1">
<path style=" stroke:none;fill-rule:nonzero;fill:rgb(94.509804%,92.941176%,89.803922%);fill-opacity:1;" d="M 13 12 C 12.667969 12 12 12.5625 12 13 L 12 26 C 12 26.464844 12.328125 26.996094 13 27 L 15.03125 27 L 15.03125 28.53125 L 15.410156 30 L 16.8125 31.28125 L 18.308594 32.6875 L 19.539062 32.851562 L 21.070312 32.851562 L 21.03125 31.839844 C 21.03125 32.289062 21.03125 32.730469 21.0625 32.839844 C 21.183594 33.285156 21.714844 33.835938 22.15625 33.964844 C 22.253906 33.992188 24.910156 34 28.59375 33.996094 L 34.875 33.996094 L 35.09375 33.871094 C 35.386719 33.714844 33.71875 35.382812 33.875 35.089844 L 34 34.871094 L 34 22.152344 L 33.875 21.933594 C 33.71875 21.636719 35.386719 23.308594 35.09375 23.152344 L 34.875 23.027344 L 30.9375 23.027344 L 27.03125 22.996094 L 27 12.996094 C 27 12.605469 26.9375 11.996094 26 11.996094 M 17.777344 26.996094 L 21.03125 26.996094 L 21.03125 28.496094 L 21 30.25 L 19.5 30.25 L 17.777344 29.996094 M 17.777344 26.996094 "/>
<path style=" stroke:none;fill-rule:nonzero;fill:rgb(32.941176%,32.941176%,32.156863%);fill-opacity:1;" d="M 15.261719 23.539062 C 15.058594 23.304688 14.890625 23.097656 14.890625 23.082031 C 14.886719 23.058594 15.078125 22.96875 15.3125 22.867188 C 16.230469 22.492188 17.136719 21.957031 18.203125 21.164062 C 18.453125 20.976562 18.660156 20.800781 18.660156 20.765625 C 18.660156 20.734375 18.597656 20.652344 18.519531 20.578125 C 18.25 20.328125 17.5625 19.480469 17.28125 19.042969 C 17.003906 18.617188 16.570312 17.761719 16.570312 17.640625 C 16.570312 17.601562 16.796875 17.582031 17.28125 17.582031 L 17.988281 17.582031 L 18.175781 17.996094 C 18.402344 18.496094 18.863281 19.203125 19.25 19.644531 C 19.40625 19.820312 19.550781 19.972656 19.574219 19.980469 C 19.621094 20 20.128906 19.429688 20.460938 18.988281 C 20.976562 18.304688 21.449219 17.132812 21.449219 16.527344 L 21.449219 15.996094 L 15 15.996094 L 15 15 L 16.730469 15.007812 L 19 15 L 19 14 L 20 14 L 20 15 L 24 15.007812 L 24 15.996094 L 22.742188 15.996094 L 22.707031 16.605469 C 22.566406 17.832031 21.8125 19.226562 20.605469 20.480469 L 20.367188 20.726562 L 20.597656 20.914062 C 20.726562 21.015625 20.964844 21.191406 21.136719 21.300781 C 21.304688 21.414062 21.445312 21.515625 21.445312 21.527344 C 21.445312 21.542969 21.382812 21.632812 21.308594 21.726562 C 21.160156 21.925781 21.015625 22.300781 21.015625 22.488281 C 21.015625 22.558594 21 22.617188 20.984375 22.617188 C 20.964844 22.617188 20.675781 22.40625 20.335938 22.148438 C 19.996094 21.890625 19.671875 21.644531 19.617188 21.605469 C 19.5 21.523438 19.59375 21.464844 18.695312 22.148438 C 18.355469 22.40625 17.804688 22.785156 17.472656 22.992188 C 16.878906 23.359375 15.765625 23.957031 15.667969 23.957031 C 15.644531 23.957031 15.457031 23.765625 15.253906 23.535156 M 15.261719 23.539062 "/>
<path style=" stroke:none;fill-rule:nonzero;fill:rgb(32.54902%,32.54902%,30.196078%);fill-opacity:1;" d="M 20.808594 22.507812 L 20.679688 22.398438 L 20.925781 22.148438 L 21.175781 21.902344 L 21.101562 22.109375 C 21.058594 22.226562 21.027344 22.386719 21.023438 22.46875 C 21.019531 22.640625 20.984375 22.648438 20.808594 22.503906 M 20.808594 22.507812 "/>
<path style=" stroke:none;fill-rule:nonzero;fill:rgb(21.176471%,49.803922%,95.294118%);fill-opacity:1;" d="M 22 36 C 21.5625 35.871094 21.125 35.445312 21 35 C 20.96875 34.890625 21.023438 34.285156 21.023438 33.835938 L 21.023438 33.015625 L 18.046875 33.015625 L 16.53125 31.503906 L 15.019531 29.992188 L 15.019531 27.015625 L 13.921875 27.015625 L 16.523438 24.414062 L 19.125 27.015625 L 18.023438 27.015625 L 18.023438 30.011719 L 21.007812 30.011719 L 21.007812 21.992188 C 21.007812 21.3125 21.351562 20.992188 22.007812 20.992188 L 35.007812 20.992188 C 35.636719 20.992188 36.007812 21.464844 36.007812 21.992188 L 36.007812 34.992188 C 36.007812 35.476562 35.566406 35.992188 35.007812 35.992188 M 26.753906 29.996094 L 30.253906 29.996094 L 31.003906 31.996094 L 32.003906 31.996094 L 29.003906 23.996094 L 28.003906 23.996094 L 25.003906 31.996094 L 26.003906 31.996094 M 27.003906 29 L 28.535156 25 L 30.003906 29 M 27.003906 29 "/>
</g>
</svg>
