<!-- color: #f9f9f9 -->
<svg xmlns="http://www.w3.org/2000/svg" xmlns:xlink="http://www.w3.org/1999/xlink" width="48px" height="48px" viewBox="0 0 48 48" version="1.1">
<g id="surface1">
<path style=" stroke:none;fill-rule:nonzero;fill:rgb(12.54902%,61.176471%,78.431373%);fill-opacity:1;" d="M 32 24 C 32 28.417969 28.417969 32 24 32 C 19.582031 32 16 28.417969 16 24 C 16 19.582031 19.582031 16 24 16 C 28.417969 16 32 19.582031 32 24 M 32 24 "/>
<path style=" stroke:none;fill-rule:nonzero;fill:rgb(97.647059%,97.647059%,97.647059%);fill-opacity:1;" d="M 33.96875 24 C 33.96875 29.503906 29.503906 33.96875 24 33.96875 C 18.496094 33.96875 14.03125 29.503906 14.03125 24 C 14.03125 18.496094 18.496094 14.03125 24 14.03125 C 29.503906 14.03125 33.96875 18.496094 33.96875 24 M 33.96875 24 "/>
<path style=" stroke:none;fill-rule:nonzero;fill:rgb(12.941176%,61.960784%,78.823529%);fill-opacity:1;" d="M 31.972656 24 C 31.972656 28.402344 28.402344 31.972656 24 31.972656 C 19.597656 31.972656 16.027344 28.402344 16.027344 24 C 16.027344 19.597656 19.597656 16.027344 24 16.027344 C 28.402344 16.027344 31.972656 19.597656 31.972656 24 M 31.972656 24 "/>
<path style=" stroke:none;fill-rule:nonzero;fill:rgb(84.705882%,26.27451%,21.176471%);fill-opacity:1;" d="M 31.359375 19.039062 L 48 19 C 48 13 48 6 48 0 C 32.667969 0 17.332031 0 2 0 L 15.140625 22.664062 C 15.34375 21.363281 15.8125 20.109375 16.546875 19.007812 C 17.285156 17.902344 18.289062 16.964844 19.515625 16.257812 C 20.59375 15.632812 21.730469 15.242188 22.890625 15.101562 C 24.050781 14.957031 25.246094 15.050781 26.359375 15.351562 C 27.472656 15.648438 28.519531 16.144531 29.453125 16.851562 C 30.214844 17.421875 30.800781 18.214844 31.359375 19.039062 M 31.359375 19.039062 "/>
<path style=" stroke:none;fill-rule:nonzero;fill:rgb(89.019608%,64.705882%,0%);fill-opacity:1;" d="M 24.675781 32.898438 L 16 47.996094 C 25 47.996094 45 47.996094 48 47.996094 C 48 43.996094 48 22.996094 48 16.996094 L 29.554688 16.996094 C 30.582031 17.820312 31.519531 18.894531 32.109375 20.089844 C 32.695312 21.277344 33.003906 22.609375 33.003906 24.027344 C 33.003906 25.269531 32.773438 26.449219 32.320312 27.527344 C 31.863281 28.605469 31.183594 29.59375 30.367188 30.40625 C 29.554688 31.222656 28.597656 31.886719 27.523438 32.34375 C 26.644531 32.714844 25.667969 32.820312 24.675781 32.902344 M 24.675781 32.902344 "/>
<path style=" stroke:none;fill-rule:nonzero;fill:rgb(5.882353%,55.686275%,32.156863%);fill-opacity:1;" d="M 16.019531 20.179688 L 4 0 C 2 0 1 0 0 0 C 0 8 0 41 0 48 C 7 48 12 48 18 48 L 27.261719 32.410156 C 26.035156 32.886719 24.71875 33.105469 23.394531 33.019531 C 22.070312 32.933594 20.753906 32.535156 19.527344 31.824219 C 18.453125 31.203125 17.542969 30.414062 16.839844 29.480469 C 16.132812 28.546875 15.617188 27.460938 15.320312 26.351562 C 15.023438 25.238281 14.929688 24.082031 15.074219 22.921875 C 15.191406 21.976562 15.582031 21.074219 16.015625 20.175781 M 16.015625 20.175781 "/>
<path style=" stroke:none;fill-rule:nonzero;fill:rgb(97.647059%,97.647059%,97.647059%);fill-opacity:1;" d="M 33 24 C 33 28.972656 28.96875 33 24 33 C 19.03125 33 15 28.96875 15 24 C 15 19.03125 19.03125 15 24 15 C 28.972656 15 33 19.03125 33 24 M 33 24 "/>
<path style=" stroke:none;fill-rule:nonzero;fill:rgb(23.921569%,49.019608%,89.803922%);fill-opacity:1;" d="M 31 24 C 31 27.867188 27.867188 31 24 31 C 20.132812 31 17 27.867188 17 24 C 17 20.132812 20.132812 17 24 17 C 27.867188 17 31 20.132812 31 24 M 31 24 "/>
</g>
</svg>
