<!-- color: #527ab9 --><svg xmlns="http://www.w3.org/2000/svg" viewBox="0 0 48 48"><g><path d="m 29.25 9.969 c -0.32 0.086 -0.699 0.156 -1.188 0.188 c 3.137 0.785 1.625 5.117 -1.625 5.313 c 3.066 1.145 2.094 7.164 -2.125 5.469 c 2.773 4.309 -2.395 7.859 -5.188 4.781 c 0.949 3.844 -5.219 4.809 -5.938 0.063 c 0.223 2.828 -1.25 4.066 -3 4.066 c 2.277 5.383 7.598 9.156 13.813 9.156 c 8.285 0 15 -6.719 15 -15 c 0 -6.441 -4.055 -11.902 -9.75 -14.03 m 0 0" fill="#cfa159" stroke="none" fill-rule="nonzero" fill-opacity="1"/><path d="m 11.531 16.945 l 0 2 l 4 -1 m -4 -1" fill="#cea159" stroke="none" fill-rule="nonzero" fill-opacity="0.886"/><path d="m 24.836 11.371 l 0 2 l 3 -1 m -3 -1" fill="#cea159" stroke="none" fill-rule="nonzero" fill-opacity="0.886"/><path d="m 21.758 16.938 l 1 3 l 1.996 -2 m -2.996 -1" fill="#cea159" stroke="none" fill-rule="nonzero" fill-opacity="0.886"/><path d="m 31.621 14.5 l -1 4 l 3 -1 m -2 -3" fill="#855920" stroke="none" fill-rule="nonzero" fill-opacity="1"/><path d="m 16.625 21.301 l 0 4 l 2 -3 m -2 -1" fill="#cea159" stroke="none" fill-rule="nonzero" fill-opacity="0.886"/><path d="m 25.508 27.801 l 0 1.996 l 3 -1 l -2 -3 m -1 2" fill="#855920" stroke="none" fill-rule="nonzero" fill-opacity="1"/><path d="m 18.05 11.938 l 0 1 l 1 0.996 m -1 -1.996" fill="#cea159" stroke="none" fill-rule="nonzero" fill-opacity="0.886"/><path d="m 33.371 21.633 l -3 1 l 2 2 l 1 -2 l 0 -1 m 0.004 0" fill="#855920" stroke="none" fill-rule="nonzero" fill-opacity="1"/><path d="m 34.637 26.883 c -0.523 1.664 -0.957 3.043 -1 3.01 l 3 -1" fill="#855920" stroke="none" fill-rule="nonzero" fill-opacity="1"/><path d="m 27.984 32.17 l -2 1.988 l 3 2 l 2 -2 m -3 -1.988" fill="#855920" stroke="none" fill-rule="nonzero" fill-opacity="1"/><path d="m 20.703 34.3 l -2 0 l 3 2 l 1 -1 m -2 -1" fill="#855920" stroke="none" fill-rule="nonzero" fill-opacity="1"/><path d="m 13.188 31.23 l 4 -0.988 l 0 1.988 l -3 0 m -1 -1" fill="#855920" stroke="none" fill-rule="nonzero" fill-opacity="1"/></g></svg>