<!-- color: #eeeeee -->
<svg xmlns="http://www.w3.org/2000/svg" xmlns:xlink="http://www.w3.org/1999/xlink" width="48px" height="48px" viewBox="0 0 48 48" version="1.1">
<g id="surface1">
<path style=" stroke:none;fill-rule:nonzero;fill:rgb(100%,18.431373%,18.431373%);fill-opacity:1;" d="M 25.050781 18.859375 C 23.207031 18.859375 20.515625 17.28125 17.894531 17.28125 C 15.269531 17.28125 13.703125 18.859375 13.429688 19.070312 C 13.15625 19.285156 12.984375 20.109375 13.804688 19.855469 C 14.625 19.605469 15.304688 19.605469 16.601562 19.605469 C 17.898438 19.605469 20.996094 21.46875 24.132812 21.46875 C 27.269531 21.46875 29.894531 18.929688 30.476562 18.03125 C 31.058594 17.136719 30.511719 16.847656 30.070312 17.066406 C 29.625 17.28125 26.761719 18.855469 25.058594 18.855469 M 25.050781 18.859375 "/>
<path style=" stroke:none;fill-rule:nonzero;fill:rgb(18.431373%,58.823529%,18.431373%);fill-opacity:1;" d="M 33.039062 23.765625 C 31.101562 23.765625 28.273438 22.1875 25.515625 22.1875 C 22.757812 22.1875 21.109375 23.765625 20.824219 23.976562 C 20.535156 24.195312 20.359375 25.015625 21.222656 24.765625 C 22.078125 24.511719 22.796875 24.511719 24.160156 24.511719 C 25.519531 24.511719 28.777344 26.375 32.074219 26.375 C 35.371094 26.375 38.125 23.835938 38.734375 22.9375 C 39.34375 22.042969 38.769531 21.757812 38.308594 21.972656 C 37.84375 22.1875 34.835938 23.761719 33.039062 23.761719 M 33.039062 23.765625 "/>
<path style=" stroke:none;fill-rule:nonzero;fill:rgb(18.823529%,18.823529%,80%);fill-opacity:1;" d="M 21.910156 29.179688 C 19.910156 29.179688 16.972656 27.480469 14.113281 27.480469 C 11.253906 27.480469 9.546875 29.179688 9.246094 29.414062 C 8.949219 29.644531 8.765625 30.53125 9.65625 30.265625 C 10.546875 29.996094 11.289062 29.996094 12.703125 29.996094 C 14.113281 29.996094 17.492188 32.007812 20.914062 32.007812 C 24.328125 32.007812 27.191406 29.261719 27.820312 28.292969 C 28.453125 27.328125 27.859375 27.019531 27.375 27.25 C 26.894531 27.480469 23.773438 29.183594 21.914062 29.183594 M 21.910156 29.179688 "/>
</g>
</svg>
