<!-- color: #eeeeee -->
<svg xmlns="http://www.w3.org/2000/svg" xmlns:xlink="http://www.w3.org/1999/xlink" width="48px" height="48px" viewBox="0 0 48 48" version="1.1">
<g id="surface1">
<path style=" stroke:none;fill-rule:nonzero;fill:rgb(37.647059%,78.431373%,88.627451%);fill-opacity:1;" d="M 22.9375 22.914062 L 12.9375 17.191406 L 24.96875 12.457031 L 35.066406 17.816406 L 22.9375 22.910156 M 22.9375 22.914062 "/>
<path style=" stroke:none;fill-rule:nonzero;fill:rgb(54.509804%,88.627451%,37.647059%);fill-opacity:1;" d="M 23.570312 22.929688 L 35.445312 17.921875 L 33.738281 29.378906 L 22.554688 35.523438 L 23.570312 22.925781 M 23.570312 22.921875 "/>
<path style=" stroke:none;fill-rule:nonzero;fill:rgb(100%,46.27451%,46.27451%);fill-opacity:1;" d="M 22.800781 35.25 L 12.761719 29.328125 L 12.804688 17.925781 L 23.222656 23.105469 L 22.800781 35.253906 M 22.800781 35.25 "/>
<path style=" stroke:none;fill-rule:nonzero;fill:rgb(17.647059%,17.647059%,17.647059%);fill-opacity:1;" d="M 22.160156 35.679688 C 21.871094 35.519531 20.328125 34.550781 18.742188 33.535156 C 14.972656 31.125 13.835938 30.425781 13.039062 30.039062 C 11.960938 29.515625 12.0625 30.125 12.027344 23.957031 C 11.996094 18.195312 11.921875 17.191406 12.488281 17.339844 C 12.042969 16.9375 14.128906 16.308594 17.394531 14.917969 C 20.582031 13.554688 24.105469 12.183594 24.882812 11.996094 C 25.089844 11.949219 25.59375 12.148438 27.480469 13.050781 C 31.636719 15.027344 35.0625 16.847656 35.5 17.308594 C 35.601562 17.414062 35.738281 17.5 35.808594 17.5 C 36.007812 17.5 36.0625 17.878906 35.949219 18.574219 C 35.898438 18.925781 35.507812 21.210938 35.085938 23.652344 C 34.664062 26.09375 34.289062 28.339844 34.253906 28.644531 C 34.128906 29.726562 34.164062 29.6875 32.441406 30.699219 C 31.585938 31.207031 29.40625 32.425781 27.605469 33.40625 C 25.804688 34.386719 24.011719 35.371094 23.621094 35.597656 C 23.230469 35.816406 22.863281 35.992188 22.800781 35.988281 C 22.742188 35.984375 22.453125 35.847656 22.164062 35.683594 M 22.582031 33.289062 C 22.613281 32.464844 22.675781 30.101562 22.714844 28.042969 C 22.8125 23.46875 22.835938 23.609375 21.824219 22.960938 C 20.582031 22.164062 19.242188 21.417969 16.957031 20.269531 C 15.710938 19.644531 14.347656 18.933594 13.921875 18.6875 C 13.398438 18.382812 13.121094 18.277344 13.054688 18.339844 C 12.929688 18.457031 12.921875 23.242188 13.039062 26.589844 L 13.121094 28.972656 L 13.808594 29.355469 C 14.398438 29.6875 17.851562 31.910156 21.191406 34.117188 C 21.757812 34.488281 22.277344 34.789062 22.363281 34.792969 C 22.507812 34.796875 22.527344 34.605469 22.578125 33.292969 M 16.664062 29.191406 L 16.8125 24.574219 L 14.980469 23.648438 L 15.21875 21.742188 L 21.015625 24.386719 L 20.90625 26.175781 L 18.800781 25.339844 C 18.527344 26.371094 18.484375 28.445312 18.328125 30.027344 L 16.664062 29.191406 M 27.605469 32.429688 C 31.8125 30.117188 33.234375 29.269531 33.285156 29.027344 C 33.3125 28.917969 33.398438 28.367188 33.488281 27.808594 C 33.574219 27.246094 33.945312 25.042969 34.3125 22.910156 C 34.921875 19.332031 35.050781 18.421875 34.933594 18.421875 C 34.808594 18.421875 32.554688 19.394531 29.679688 20.6875 C 27.902344 21.488281 25.929688 22.371094 25.296875 22.652344 C 24.660156 22.933594 24.089844 23.21875 24.019531 23.269531 C 23.824219 23.441406 23.371094 34.035156 23.546875 34.460938 C 23.601562 34.601562 23.671875 34.585938 24.160156 34.316406 C 24.46875 34.152344 26.015625 33.300781 27.601562 32.429688 M 25.496094 30.839844 C 25.464844 28.390625 25.269531 25.96875 25.839844 23.402344 L 27.03125 23.382812 L 27.136719 26.902344 L 31.292969 22.039062 L 33.253906 21.550781 L 29.597656 26.359375 L 32.984375 27.914062 L 31.589844 28.777344 L 28.136719 27.304688 L 26.882812 27.898438 L 26.839844 30.265625 M 24.203125 22.175781 C 24.484375 22.058594 26.53125 21.125 28.761719 20.113281 C 30.988281 19.09375 33.089844 18.144531 33.433594 18.003906 C 34.347656 17.625 34.386719 17.574219 33.945312 17.292969 C 33.273438 16.871094 29.847656 15.121094 27.445312 13.976562 L 25.0625 12.839844 L 24.261719 13.097656 C 23.136719 13.464844 19.925781 14.75 17.175781 15.941406 C 14.28125 17.1875 13.894531 17.375 13.894531 17.523438 C 13.894531 17.589844 14.53125 17.980469 15.316406 18.398438 C 17.824219 19.730469 23.28125 22.398438 23.5 22.398438 C 23.617188 22.398438 23.941406 22.300781 24.222656 22.179688 M 22.695312 20.695312 C 21.300781 20.367188 19.714844 19.589844 19.300781 19.042969 C 18.976562 18.605469 18.699219 17.902344 18.699219 17.511719 C 18.699219 17.039062 19.007812 16.371094 19.410156 15.96875 C 19.921875 15.460938 20.632812 15.246094 22.480469 15.039062 C 24.316406 14.832031 25.898438 14.894531 26.84375 15.210938 C 27.738281 15.507812 28.097656 15.691406 28.28125 15.949219 C 28.761719 16.609375 29.101562 17.164062 29.101562 17.277344 C 29.101562 17.445312 28.65625 17.609375 28.339844 17.554688 C 28.203125 17.527344 27.933594 17.484375 27.734375 17.453125 C 27.441406 17.410156 27.339844 17.328125 27.160156 17.027344 C 26.910156 16.609375 26.265625 16.175781 25.640625 16.015625 C 24.679688 15.769531 22.039062 15.976562 21.230469 16.355469 C 20.773438 16.570312 20.527344 17.042969 20.460938 17.828125 C 20.410156 18.367188 20.429688 18.449219 20.640625 18.664062 C 20.921875 18.953125 21.703125 19.339844 22.578125 19.621094 C 23.0625 19.777344 23.34375 19.816406 23.679688 19.773438 C 24.460938 19.667969 24.550781 19.472656 24.089844 18.917969 C 23.6875 18.4375 23.59375 18.175781 23.722656 17.941406 C 23.816406 17.773438 23.894531 17.753906 24.328125 17.796875 C 24.949219 17.859375 26.261719 18.335938 26.566406 18.617188 C 26.839844 18.859375 26.882812 19.433594 26.640625 19.660156 C 26.375 19.921875 25.179688 20.558594 24.710938 20.691406 C 24.167969 20.847656 23.359375 20.847656 22.699219 20.691406 M 22.691406 20.695312 "/>
<path style=" stroke:none;fill-rule:nonzero;fill:rgb(97.647059%,97.647059%,97.647059%);fill-opacity:1;" d="M 29.761719 16 C 30.5625 15.972656 31.363281 16.453125 31.746094 17.195312 C 32.128906 17.9375 32.074219 18.90625 31.617188 19.601562 L 24.382812 31.039062 C 23.667969 32.164062 21.933594 32.335938 21.035156 31.375 L 16.691406 26.796875 C 15.808594 25.972656 15.765625 24.339844 16.601562 23.460938 C 17.441406 22.582031 18.988281 22.640625 19.769531 23.582031 L 22.234375 26.179688 L 28 17.050781 C 28.378906 16.425781 29.058594 16.023438 29.761719 16 M 29.761719 16 "/>
</g>
</svg>
