<!-- color: #eeeeee -->
<svg xmlns="http://www.w3.org/2000/svg" xmlns:xlink="http://www.w3.org/1999/xlink" width="48px" height="48px" viewBox="0 0 48 48" version="1.1">
<g id="surface1">
<path style=" stroke:none;fill-rule:nonzero;fill:rgb(23.921569%,60.392157%,87.058824%);fill-opacity:1;" d="M 24 9 C 15.714844 9 9 15.714844 9 24 C 9 32.285156 15.714844 39 24 39 C 32.285156 39 39 32.285156 39 24 C 39 15.714844 32.285156 9 24 9 M 24 11.53125 C 30.886719 11.53125 36.46875 17.113281 36.46875 24 C 36.46875 30.886719 30.886719 36.46875 24 36.46875 C 17.113281 36.46875 11.53125 30.886719 11.53125 24 C 11.53125 17.113281 17.113281 11.53125 24 11.53125 M 24 11.53125 "/>
<path style=" stroke:none;fill-rule:nonzero;fill:rgb(0%,40%,80%);fill-opacity:1;" d="M 24 10 C 16.269531 10 10 16.269531 10 24 C 10 31.730469 16.269531 38 24 38 C 31.730469 38 38 31.730469 38 24 C 38 16.269531 31.730469 10 24 10 M 24 13 C 30.074219 13 35 17.925781 35 24 C 35 30.074219 30.074219 35 24 35 C 17.925781 35 13 30.074219 13 24 C 13 17.925781 17.925781 13 24 13 M 24 13 "/>
<path style=" stroke:none;fill-rule:nonzero;fill:rgb(0%,40%,80%);fill-opacity:1;" d="M 13.792969 31.019531 L 31.769531 13.625 L 34.550781 16.5 L 16.574219 33.894531 M 13.792969 31.019531 "/>
<path style=" stroke:none;fill-rule:nonzero;fill:rgb(85.882353%,85.882353%,85.882353%);fill-opacity:1;" d="M 25 24 C 25 24.554688 24.550781 25 24 25 C 23.449219 25 23 24.554688 23 24 C 23 23.449219 23.449219 23 24 23 C 24.550781 23 25 23.449219 25 24 M 25 24 "/>
<path style=" stroke:none;fill-rule:nonzero;fill:rgb(89.019608%,89.019608%,89.019608%);fill-opacity:1;" d="M 23 11 L 24.996094 11 L 24.996094 11.996094 L 23 11.996094 M 23 11 "/>
<path style=" stroke:none;fill-rule:nonzero;fill:rgb(81.960784%,81.960784%,81.960784%);fill-opacity:1;" d="M 23 36 L 24.996094 36 L 24.996094 37 L 23 37 M 23 36 "/>
<path style=" stroke:none;fill-rule:nonzero;fill:rgb(86.27451%,86.27451%,86.27451%);fill-opacity:1;" d="M 37 23 L 37 24.996094 L 36 24.996094 L 36 23 M 37 23 "/>
<path style=" stroke:none;fill-rule:nonzero;fill:rgb(86.27451%,86.27451%,86.27451%);fill-opacity:1;" d="M 12 23 L 12 24.996094 L 11.003906 24.996094 L 11.003906 23 M 12 23 "/>
<path style=" stroke:none;fill-rule:nonzero;fill:rgb(87.45098%,87.45098%,87.45098%);fill-opacity:1;" d="M 14.101562 15.515625 L 15.515625 14.101562 L 16.21875 14.808594 L 14.808594 16.21875 M 14.101562 15.515625 "/>
<path style=" stroke:none;fill-rule:nonzero;fill:rgb(83.921569%,83.921569%,83.921569%);fill-opacity:1;" d="M 31.78125 33.191406 L 33.191406 31.78125 L 33.898438 32.484375 L 32.484375 33.898438 M 31.78125 33.191406 "/>
<path style=" stroke:none;fill-rule:nonzero;fill:rgb(87.45098%,87.45098%,87.45098%);fill-opacity:1;" d="M 32.484375 14.101562 L 33.898438 15.515625 L 33.191406 16.21875 L 31.78125 14.808594 M 32.484375 14.101562 "/>
<path style=" stroke:none;fill-rule:nonzero;fill:rgb(83.921569%,83.921569%,83.921569%);fill-opacity:1;" d="M 14.808594 31.78125 L 16.21875 33.191406 L 15.515625 33.898438 L 14.101562 32.484375 M 14.808594 31.78125 "/>
</g>
</svg>
