<!-- color: #41a8d8 --><svg xmlns="http://www.w3.org/2000/svg" viewBox="0 0 48 48"><g><path d="m 24 9 c -8.285 0 -15 6.715 -15 15 c 0 8.285 6.715 15 15 15 c 8.285 0 15 -6.715 15 -15 c 0 -8.285 -6.715 -15 -15 -15 m 0 6 c 4.969 0 9 4.03 9 9 c 0 4.969 -4.03 9 -9 9 c -4.969 0 -9 -4.03 -9 -9 c 0 -4.969 4.03 -9 9 -9 m 0 0" fill="#ea5c53" stroke="none" fill-rule="nonzero" fill-opacity="1"/><path d="m 10.375 17.781 c -0.867 1.895 -1.375 4 -1.375 6.219 c 0 2.219 0.508 4.324 1.375 6.219 l 5.25 -3 c -0.383 -1 -0.625 -2.082 -0.625 -3.219 c 0 -1.137 0.242 -2.219 0.625 -3.219 m -5.25 -3" fill="#eeece0" stroke="none" fill-rule="nonzero" fill-opacity="1"/><path d="m 37.625 17.781 l -5.25 3 c 0.383 1 0.625 2.082 0.625 3.219 c 0 1.137 -0.242 2.219 -0.625 3.219 l 5.25 3 c 0.867 -1.895 1.375 -4 1.375 -6.219 c 0 -2.219 -0.508 -4.324 -1.375 -6.219 m 0 0" fill="#eeece0" stroke="none" fill-rule="nonzero" fill-opacity="1"/><path d="m 20.781 32.375 l -3 5.25 c 1.895 0.867 4 1.375 6.219 1.375 c 2.219 0 4.324 -0.508 6.219 -1.375 l -3 -5.25 c -1 0.383 -2.082 0.625 -3.219 0.625 c -1.137 0 -2.219 -0.242 -3.219 -0.625 m 0 0" fill="#eeece0" stroke="none" fill-rule="nonzero" fill-opacity="1"/><path d="m 24 9 c -2.219 0 -4.324 0.508 -6.219 1.375 l 3 5.25 c 1 -0.383 2.082 -0.625 3.219 -0.625 c 1.137 0 2.219 0.242 3.219 0.625 l 3 -5.25 c -1.895 -0.867 -4 -1.375 -6.219 -1.375 m 0 0" fill="#eeece0" stroke="none" fill-rule="nonzero" fill-opacity="1"/><path d="m 24 9 c -8.285 0 -15 6.715 -15 15 c 0 4.398 1.922 8.32 4.938 11.06 c -2.426 -2.664 -3.938 -6.176 -3.938 -10.06 c 0 -8.285 6.715 -15 15 -15 c 3.887 0 7.398 1.512 10.06 3.938 c -2.742 -3.02 -6.664 -4.938 -11.06 -4.938 m 0 0" fill="#000" stroke="none" fill-rule="nonzero" fill-opacity="0.149"/><path d="m 30.844 18.16 c 1.344 1.574 2.156 3.613 2.156 5.844 c 0 4.969 -4.03 9 -9 9 c -2.23 0 -4.27 -0.813 -5.844 -2.156 c 1.652 1.93 4.105 3.156 6.844 3.156 c 4.969 0 9 -4.03 9 -9 c 0 -2.738 -1.227 -5.191 -3.156 -6.844 m 0 0" fill="#000" stroke="none" fill-rule="nonzero" fill-opacity="0.149"/></g></svg>