<!-- color: #eeeeee -->
<svg xmlns="http://www.w3.org/2000/svg" xmlns:xlink="http://www.w3.org/1999/xlink" width="48px" height="48px" viewBox="0 0 48 48" version="1.1">
<g id="surface1">
<path style=" stroke:none;fill-rule:nonzero;fill:rgb(18.431373%,21.176471%,47.058824%);fill-opacity:1;" d="M 13.46875 15.96875 C 12.65625 15.96875 12 16.625 12 17.4375 L 12 30 C 12 30.8125 12.65625 31.46875 13.46875 31.46875 L 34.527344 31.46875 C 35.34375 31.46875 35.996094 30.8125 35.996094 30 L 35.996094 17.4375 C 35.996094 16.625 35.347656 15.96875 34.527344 15.96875 M 20.007812 19 C 22.769531 19 25.007812 21.238281 25.007812 24 C 25.007812 26.761719 22.769531 29 20.007812 29 C 17.238281 29 15.007812 26.761719 15.007812 24 C 15.007812 21.238281 17.238281 19 20.007812 19 M 30.007812 20 C 32.214844 20 34.007812 21.789062 34.007812 24 C 34.007812 26.207031 32.214844 28 30.007812 28 C 27.789062 28 26.007812 26.207031 26.007812 24 C 26.007812 21.789062 27.789062 20 30.007812 20 M 30.007812 20 "/>
<path style=" stroke:none;fill-rule:nonzero;fill:rgb(18.431373%,21.176471%,47.058824%);fill-opacity:1;" d="M 23.4375 27.59375 C 22.539062 28.453125 21.34375 29 20 29 C 18.863281 29 17.839844 28.609375 17 27.96875 L 17 37 L 24.5 27.625 M 23.4375 27.59375 "/>
<path style=" stroke:none;fill-rule:nonzero;fill:rgb(18.431373%,21.176471%,47.058824%);fill-opacity:1;" d="M 18.46875 11 C 17.65625 11 17 11.652344 17 12.46875 L 17 20.03125 C 17.839844 19.390625 18.863281 19 20 19 L 20 12.46875 C 20 11.65625 19.347656 11 18.53125 11 M 18.46875 11 "/>
<path style=" stroke:none;fill-rule:nonzero;fill:rgb(18.431373%,21.176471%,47.058824%);fill-opacity:1;" d="M 24.46875 11 C 23.65625 11 23 11.652344 23 12.46875 L 23 20.03125 C 23.925781 20.738281 24.617188 21.761719 24.875 22.9375 C 25.511719 22.777344 26 22.21875 26 21.53125 L 26 12.472656 C 26 11.65625 25.347656 11.003906 24.53125 11.003906 L 24.46875 11.003906 M 24.46875 11 "/>
</g>
</svg>
