<!-- color: #71a337 -->
<svg xmlns="http://www.w3.org/2000/svg" xmlns:xlink="http://www.w3.org/1999/xlink" width="48px" height="48px" viewBox="0 0 48 48" version="1.1">
<g id="surface1">
<path style=" stroke:none;fill-rule:nonzero;fill:rgb(100%,100%,100%);fill-opacity:1;" d="M 12 12.996094 C 12 19.773438 12 26.550781 12 33.328125 L 12 33.992188 C 19 33.992188 27.195312 34.003906 34 33.992188 C 34.011719 26.796875 33.992188 19.160156 34 12.996094 C 26.453125 12.972656 18.457031 13.015625 12 12.996094 M 13 13.996094 L 33 13.996094 L 33 32.996094 L 13 32.996094 M 13 13.996094 "/>
<path style=" stroke:none;fill-rule:nonzero;fill:rgb(100%,100%,100%);fill-opacity:1;" d="M 32.996094 12 L 32.996094 36 L 35.996094 36 L 35.996094 34 L 34.996094 34 L 34.996094 12 M 32.996094 12 "/>
<path style=" stroke:none;fill-rule:nonzero;fill:rgb(100%,100%,100%);fill-opacity:1;" d="M 16.457031 16 L 23.539062 16 C 24.34375 16 25 16.675781 25 17.507812 L 25 24.496094 C 25 25.328125 24.34375 26 23.539062 26 L 16.457031 26 C 15.652344 26 15 25.328125 15 24.496094 L 15 17.507812 C 15 16.675781 15.652344 16 16.457031 16 M 16.457031 16 "/>
<path style=" stroke:none;fill-rule:nonzero;fill:rgb(100%,100%,100%);fill-opacity:1;" d="M 26 16 L 28 16 L 28 20 L 26 20 M 26 16 "/>
<path style=" stroke:none;fill-rule:nonzero;fill:rgb(100%,100%,100%);fill-opacity:1;" d="M 29 16 L 31 16 L 31 20 L 29 20 M 29 16 "/>
<path style=" stroke:none;fill-rule:nonzero;fill:rgb(100%,100%,100%);fill-opacity:1;" d="M 26 21 L 31 21 L 31 23 L 26 23 M 26 21 "/>
<path style=" stroke:none;fill-rule:nonzero;fill:rgb(100%,100%,100%);fill-opacity:1;" d="M 26 24 L 31 24 L 31 26 L 26 26 M 26 24 "/>
<path style=" stroke:none;fill-rule:nonzero;fill:rgb(100%,100%,100%);fill-opacity:1;" d="M 15 27 L 31 27 L 31 29 L 15 29 M 15 27 "/>
<path style=" stroke:none;fill-rule:nonzero;fill:rgb(100%,100%,100%);fill-opacity:1;" d="M 15 30 L 17.996094 30 L 17.996094 31 L 15 31 M 15 30 "/>
<path style=" stroke:none;fill-rule:nonzero;fill:rgb(100%,100%,100%);fill-opacity:1;" d="M 19 30 L 22 30 L 22 31 L 19 31 M 19 30 "/>
<path style=" stroke:none;fill-rule:nonzero;fill:rgb(100%,100%,100%);fill-opacity:1;" d="M 23 30 L 25 30 L 25 31 L 23 31 M 23 30 "/>
<path style=" stroke:none;fill-rule:nonzero;fill:rgb(100%,100%,100%);fill-opacity:1;" d="M 26 30 L 28 30 L 28 31 L 26 31 M 26 30 "/>
<path style=" stroke:none;fill-rule:nonzero;fill:rgb(100%,100%,100%);fill-opacity:1;" d="M 29 30 L 31 30 L 31 31 L 29 31 M 29 30 "/>
</g>
</svg>
