<!-- color: #98cbd4 -->
<svg xmlns="http://www.w3.org/2000/svg" xmlns:xlink="http://www.w3.org/1999/xlink" width="48px" height="48px" viewBox="0 0 48 48" version="1.1">
<g id="surface1">
<path style=" stroke:none;fill-rule:nonzero;fill:rgb(97.647059%,97.647059%,97.647059%);fill-opacity:1;" d="M 16 1.90625 L 15.160156 2.15625 L 14.191406 2.222656 L 13.59375 2.65625 L 12.816406 2.625 L 12.878906 3.125 L 14.003906 3.09375 L 14.410156 4.1875 L 14.566406 4.785156 L 13.941406 5.128906 L 13.691406 5.59375 L 13.878906 6.65625 L 14.628906 6.78125 L 15.347656 6.09375 L 15.972656 5.4375 L 16.941406 5.1875 L 18.160156 4.59375 L 18.878906 3.71875 L 19.910156 2.464844 L 20.628906 2.277344 L 20.597656 2 L 19.472656 2 L 16.003906 1.90625 M 13.785156 1.96875 L 12.972656 2.003906 L 11.566406 2.378906 L 10.753906 2.628906 L 9.816406 2.253906 L 9.691406 2.816406 L 10.8125 3.472656 C 10.8125 3.472656 12.859375 2.34375 12.972656 2.34375 M 34.84375 2.191406 L 34.65625 2.503906 L 35.8125 2.65625 L 35.875 2.382812 M 25.96875 2.382812 C 25.914062 2.402344 24.4375 2.410156 24.4375 2.410156 L 24.0625 2.503906 L 24.5625 3.101562 L 25.09375 2.601562 L 25.4375 2.820312 L 25.9375 2.570312 C 25.9375 2.570312 26.027344 2.359375 25.96875 2.382812 M 31.59375 2.847656 L 31.128906 2.910156 L 30.71875 3.160156 L 30.253906 3.507812 L 29.972656 4.007812 L 30.410156 4.445312 L 30.785156 4.476562 L 30.941406 4.222656 L 30.566406 3.910156 L 30.785156 3.722656 L 30.816406 3.570312 L 31.285156 3.257812 C 31.285156 3.257812 31.894531 3.265625 31.9375 3.257812 C 31.988281 3.246094 32.128906 3.066406 32.128906 3.066406 L 31.972656 2.84375 M 5.722656 3.03125 L 5.628906 3.347656 L 6.097656 3.503906 L 6.628906 3.253906 M 37.503906 3.128906 L 35.375 3.222656 L 34.8125 3.597656 L 34.191406 3.972656 L 33.660156 4.410156 L 33.722656 4.597656 L 33.441406 4.628906 L 33.441406 4.632812 L 29.355469 5.3125 L 25.777344 8.003906 L 25.402344 8.285156 L 25.371094 8.285156 L 25.117188 8.191406 C 25.117188 8.191406 24.96875 8.199219 24.898438 8.257812 C 24.835938 8.308594 24.777344 8.359375 24.585938 8.378906 C 24.394531 8.402344 24.023438 8.378906 23.992188 8.378906 L 23.773438 8.378906 L 23.804688 8.15625 L 23.960938 7.90625 L 23.679688 7.683594 C 23.679688 7.683594 23.496094 7.914062 23.488281 7.964844 C 23.480469 8.019531 23.613281 8.246094 23.613281 8.246094 C 23.613281 8.246094 23.550781 8.425781 23.519531 8.464844 C 23.488281 8.503906 23.207031 8.589844 23.207031 8.589844 L 22.773438 8.371094 C 22.773438 8.371094 22.59375 8.332031 22.617188 8.433594 C 22.640625 8.535156 22.835938 8.628906 22.835938 8.714844 C 22.835938 8.796875 22.710938 8.992188 22.710938 8.992188 L 22.558594 9.179688 L 22.304688 9.433594 L 21.960938 9.523438 C 21.960938 9.523438 21.714844 9.59375 21.648438 9.617188 C 21.585938 9.640625 21.398438 9.683594 21.398438 9.683594 L 21.144531 9.714844 L 20.992188 9.9375 L 21.269531 10.125 L 21.457031 10.433594 C 21.457031 10.433594 21.582031 10.65625 21.613281 10.65625 C 21.644531 10.65625 21.707031 10.875 21.707031 10.875 L 21.519531 11.125 L 21.421875 11.125 L 20.765625 11.25 L 20.644531 10.96875 L 20.203125 11.40625 L 20.015625 12.128906 L 20.015625 12.726562 L 20.765625 13.132812 L 21.363281 12.910156 L 21.960938 11.847656 L 22.488281 11.195312 L 23.460938 11.039062 L 23.679688 10.851562 L 24.773438 12.132812 L 24.898438 12.570312 L 25.214844 12.414062 L 25.117188 12.039062 L 25.308594 12.039062 L 25.1875 11.785156 L 24.121094 10.785156 L 24.214844 10.597656 L 24.558594 10.566406 L 25.308594 11.316406 L 25.6875 11.757812 L 25.6875 12.445312 L 25.875 12.570312 L 26.25 12.945312 L 26.527344 12.851562 L 26.375 12.285156 L 26.464844 11.941406 L 26.652344 11.722656 L 27.089844 11.878906 L 27.246094 11.941406 L 27.214844 11.441406 L 27.464844 10.972656 L 27.621094 10.28125 L 28.183594 10.378906 L 28.277344 10.691406 L 28.496094 10.847656 L 28.746094 10.628906 L 28.59375 10.28125 L 29.246094 10.28125 L 29.027344 10.65625 L 29.46875 11.03125 L 29.84375 11.222656 L 30.0625 11.660156 L 29.5625 11.78125 L 28.84375 11.625 L 28.21875 11.625 L 27.621094 11.941406 L 27.496094 12.128906 L 27.0625 12.222656 L 27.25 12.691406 L 27.597656 13.097656 L 28.21875 12.878906 L 28.371094 13.15625 L 28.652344 12.9375 L 29.027344 13 L 29.058594 13.410156 L 28.933594 14.1875 L 28.589844 14.15625 L 28.183594 14.09375 L 27.996094 14.558594 L 26.621094 14.308594 L 26.371094 13.992188 L 26.058594 14.273438 L 25.714844 14.742188 L 24.839844 14.242188 L 23.964844 13.714844 L 23.964844 12.773438 L 23.398438 12.804688 L 23.367188 13.117188 L 21.992188 13.054688 L 21.558594 13.457031 L 20.714844 13.488281 L 20.148438 13.988281 L 19.804688 14.957031 L 18.929688 15.648438 L 18.304688 16.492188 L 18.273438 18.117188 L 18.085938 18.617188 L 18.019531 19.214844 L 18.398438 19.867188 L 18.617188 20.492188 L 19.367188 21.398438 L 19.808594 21.773438 L 20.242188 21.867188 L 20.335938 21.492188 L 21.898438 21.492188 L 22.304688 21.304688 L 22.804688 21.367188 L 22.960938 21.679688 L 23.492188 21.710938 L 23.835938 21.960938 L 23.835938 22.492188 L 23.710938 22.929688 L 23.589844 23.273438 L 23.898438 23.835938 L 24.308594 24.304688 L 24.496094 25.492188 L 24.527344 26.269531 L 24.246094 26.925781 L 24.21875 27.550781 L 24.4375 28.707031 L 24.625 28.894531 L 24.90625 29.988281 L 24.9375 30.457031 L 25.5 31.207031 L 25.566406 31.800781 L 25.65625 32.488281 L 26 32.144531 L 26.875 32.054688 L 27.410156 32.054688 L 28.375 30.554688 L 28.4375 29.960938 L 29.09375 29.304688 L 29.125 28.554688 L 29.46875 27.800781 L 30.28125 27.023438 L 30.28125 26.148438 L 30.09375 25.335938 L 29.96875 24.210938 L 30.566406 23.273438 L 31.632812 21.960938 L 32.035156 21.554688 L 32.191406 21.023438 L 32.441406 20.554688 L 32.507812 19.867188 L 31.910156 19.867188 L 31.632812 20.148438 L 31.070312 19.992188 L 30.726562 19.429688 L 30.445312 18.867188 L 29.789062 18.367188 L 29.632812 17.554688 L 29.351562 17.078125 L 29.042969 16.484375 L 28.632812 15.765625 L 28.542969 15.296875 L 28.976562 15.234375 L 29.230469 15.765625 L 29.730469 16.703125 L 30.105469 17.390625 L 30.511719 18.140625 L 30.949219 18.863281 L 31.546875 19.464844 L 32.074219 18.964844 L 32.675781 18.808594 L 33.109375 18.277344 L 33.703125 17.933594 L 34.046875 17.339844 L 34.082031 16.839844 L 33.800781 16.523438 L 33.425781 16.085938 L 33.171875 16.238281 L 33.019531 16.492188 L 32.609375 16.304688 L 32.484375 15.992188 L 32.207031 15.585938 L 31.769531 15.179688 L 31.769531 14.363281 L 32.050781 14.894531 L 32.394531 15.429688 L 32.988281 15.773438 L 33.398438 15.679688 L 33.648438 15.960938 L 35.429688 15.925781 L 35.398438 15.960938 L 35.960938 16.460938 L 36.371094 17.023438 L 36.492188 17.300781 L 36.773438 17.300781 L 36.867188 16.992188 L 36.957031 17.457031 L 37.113281 18.300781 L 37.457031 19.113281 L 37.648438 19.804688 L 37.929688 20.460938 L 38.148438 20.734375 L 38.460938 20.546875 L 38.550781 20.234375 L 38.675781 19.457031 L 38.644531 18.769531 L 38.894531 18.453125 C 38.894531 18.453125 39.160156 18.09375 39.207031 18.078125 C 39.253906 18.066406 39.832031 17.425781 39.832031 17.425781 L 40.113281 17.078125 L 40.421875 16.890625 L 40.800781 16.671875 L 40.953125 16.671875 L 41.019531 17.015625 L 41.175781 17.421875 L 41.675781 18.078125 L 41.675781 18.328125 L 41.765625 18.609375 L 42.109375 18.453125 L 42.078125 18.078125 L 42.390625 18.140625 L 42.453125 18.484375 L 42.425781 19.015625 L 42.519531 19.390625 L 42.796875 19.457031 L 42.890625 19.144531 L 43.234375 19.363281 L 43.296875 19.675781 L 43.613281 20.144531 L 43.925781 20.488281 L 44.144531 20.679688 L 44.675781 20.210938 L 44.894531 19.773438 L 44.804688 19.273438 L 44.710938 18.617188 L 44.117188 18.054688 L 44.023438 17.488281 L 44.277344 17.085938 C 44.277344 17.085938 44.433594 16.765625 44.585938 16.929688 C 44.738281 17.097656 44.8125 17.117188 44.742188 17.304688 C 44.675781 17.488281 44.550781 17.902344 44.550781 17.902344 L 44.925781 18.058594 L 45.082031 17.527344 L 44.925781 17.148438 L 45.308594 16.992188 L 45.996094 16.648438 L 46.429688 16.117188 L 46.773438 15.308594 L 46.742188 14.710938 L 46.398438 13.933594 L 45.710938 13.117188 L 45.273438 12.714844 L 45.050781 12.089844 L 45.457031 11.992188 C 45.457031 11.992188 45.691406 11.59375 45.898438 11.804688 C 46.101562 12.023438 46.398438 12.335938 46.398438 12.335938 C 46.398438 12.335938 46.75 12.898438 46.800781 12.960938 C 46.855469 13.027344 47.222656 13.367188 47.273438 13.429688 C 47.324219 13.496094 47.550781 13.742188 47.550781 13.742188 L 47.925781 13.214844 L 48.019531 13.117188 L 48.019531 12.929688 L 47.488281 12.617188 L 47.023438 12.183594 L 47.367188 11.429688 L 47.929688 11.152344 L 48.019531 10.898438 L 48.019531 9.429688 L 47.742188 8.867188 L 47.429688 8.429688 C 47.429688 8.429688 47.105469 8.382812 47.023438 8.398438 C 46.9375 8.414062 46.242188 7.898438 46.242188 7.898438 L 46.304688 7.398438 L 46.558594 6.960938 L 47.746094 6.808594 L 48.023438 6.839844 L 48.023438 6.523438 L 46.304688 4.273438 L 44.652344 4.085938 L 43.367188 3.769531 C 43.367188 3.769531 42.980469 4.066406 42.773438 4.085938 C 42.570312 4.101562 41.867188 4.210938 41.867188 4.210938 L 41.148438 3.769531 L 39.648438 3.644531 L 39.585938 3.613281 L 38.300781 3.550781 L 37.523438 3.113281 M 25.777344 8.015625 L 29.355469 5.3125 L 28.136719 5.96875 L 27.828125 5.742188 L 27.671875 5.492188 L 27.734375 5.238281 L 28.421875 5.273438 L 28.738281 5.148438 L 28.113281 4.835938 L 27.238281 4.523438 L 26.363281 4.367188 L 25.421875 4.554688 L 24.453125 5.335938 L 24.019531 5.773438 L 23.363281 6.492188 L 23.109375 6.523438 L 23.019531 6.867188 L 23.140625 7.214844 C 23.140625 7.214844 23.277344 7.367188 23.296875 7.367188 C 23.320312 7.367188 23.550781 7.242188 23.550781 7.242188 C 23.550781 7.242188 23.578125 7.128906 23.707031 7.089844 C 23.835938 7.050781 23.957031 7.023438 23.957031 7.023438 L 24.144531 7.398438 L 24.363281 7.714844 L 24.457031 7.964844 C 24.457031 7.964844 24.820312 7.738281 24.832031 7.714844 C 24.847656 7.683594 24.863281 7.304688 24.863281 7.304688 L 25.144531 7.113281 C 25.144531 7.113281 25.21875 6.980469 25.207031 6.960938 C 25.199219 6.9375 25.019531 6.738281 25.019531 6.738281 L 24.863281 6.675781 L 24.929688 6.363281 C 24.929688 6.363281 25.050781 6.3125 25.050781 6.269531 C 25.050781 6.230469 25.238281 6.082031 25.238281 6.082031 L 25.460938 5.804688 L 25.617188 5.617188 L 25.835938 5.460938 L 26.085938 5.648438 L 26.085938 5.773438 L 25.867188 6.023438 L 25.804688 6.273438 L 25.804688 6.617188 L 25.992188 6.773438 L 26.335938 6.742188 L 26.652344 6.679688 L 26.925781 6.835938 L 26.863281 7.054688 C 26.863281 7.054688 26.667969 7.242188 26.609375 7.273438 C 26.554688 7.304688 26.199219 7.210938 26.113281 7.242188 C 26.023438 7.273438 25.800781 7.554688 25.800781 7.554688 C 25.800781 7.554688 25.773438 7.804688 25.800781 7.867188 C 25.808594 7.890625 25.796875 7.9375 25.789062 8 M 29.355469 5.320312 L 33.445312 4.625 L 33.414062 4.46875 L 33.101562 4.03125 L 32.445312 3.96875 C 32.445312 3.96875 32.601562 4.632812 32.601562 4.71875 C 32.601562 4.800781 32.164062 4.75 32.164062 4.75 L 31.414062 4.78125 C 31.414062 4.78125 30.328125 5.03125 30.191406 5.03125 C 30.0625 5.03125 29.429688 5.296875 29.382812 5.3125 L 29.355469 5.316406 M 4.308594 3.496094 L 3.808594 4.0625 L 4.246094 4.28125 L 4.808594 4.027344 L 4.839844 4.652344 L 5.308594 4.964844 L 5.808594 4.496094 L 6.496094 4.621094 L 6.777344 3.964844 L 5.648438 3.871094 L 4.304688 3.496094 M 7.433594 3.589844 L 7.871094 4.683594 L 7.339844 4.746094 L 6.933594 5.246094 L 6.023438 4.972656 L 5.214844 5.285156 L 4.433594 5.09375 L 3.527344 4.53125 L 2.277344 4.5625 L 1.179688 5.03125 L 0.460938 4.6875 L 0.0273438 4.65625 L 0.0273438 18.25 L 0.871094 18.714844 L 1.371094 18.652344 L 2.089844 18.996094 L 3.183594 19.589844 L 3.339844 20.3125 L 4.214844 21.152344 L 4.714844 20.777344 L 5.121094 21.09375 L 5.058594 20.371094 L 4.277344 20.5625 L 4.027344 19.65625 L 3.933594 19.246094 L 3.242188 18.625 L 3.242188 18.1875 L 3.773438 17.621094 L 3.429688 17.21875 L 2.867188 17.308594 L 2.023438 18.152344 L 1.335938 18.0625 C 1.335938 18.0625 1.023438 17.53125 0.960938 17.40625 C 0.898438 17.28125 1.148438 16.84375 1.148438 16.84375 L 1.085938 15.558594 L 1.804688 15.058594 L 2.367188 14.867188 L 3.179688 14.867188 L 4.304688 14.617188 L 4.714844 15.148438 L 4.648438 15.773438 L 5.117188 16.179688 L 5.183594 15.742188 C 5.183594 15.742188 5.15625 15.023438 5.089844 14.835938 C 5.027344 14.648438 5.65625 14.210938 5.65625 14.210938 L 6.15625 13.589844 L 6.75 12.871094 L 7.03125 12.304688 L 7.96875 11.808594 L 8.59375 11.121094 C 8.59375 11.121094 9.53125 10.964844 9.71875 10.867188 C 9.910156 10.777344 9.785156 10.433594 9.59375 10.117188 C 9.402344 9.804688 9.683594 9.492188 9.683594 9.492188 L 10.40625 9.058594 L 11.027344 9.179688 L 11.09375 9.933594 C 11.09375 9.933594 11.679688 10.496094 11.871094 10.398438 C 12.0625 10.308594 12.152344 9.992188 12.152344 9.992188 L 11.835938 9.179688 L 12.027344 8.371094 L 11.183594 8.492188 L 11.183594 7.117188 L 10.933594 7.371094 L 10.277344 7.402344 L 10.183594 6.714844 L 9.742188 6.183594 C 9.742188 6.183594 9.3125 6.433594 8.898438 6.589844 C 8.484375 6.742188 8.585938 7.058594 8.585938 7.058594 L 8.554688 7.902344 L 7.867188 8.464844 L 7.429688 9.117188 C 7.429688 9.117188 7.152344 8.929688 7.152344 8.804688 C 7.152344 8.679688 7.085938 8.335938 7.085938 8.335938 L 6.367188 7.773438 C 6.367188 7.773438 5.804688 7.367188 5.773438 7.242188 C 5.742188 7.117188 6.117188 6.554688 6.117188 6.554688 C 6.117188 6.554688 6.925781 6.054688 7.117188 5.898438 C 7.308594 5.742188 8.332031 6.242188 8.457031 6.152344 C 8.585938 6.058594 9.082031 5.277344 9.082031 5.277344 L 9.519531 4.679688 L 9.082031 5.179688 L 8.332031 4.460938 L 8.453125 3.738281 L 7.425781 3.585938 M 9.933594 3.621094 L 9.679688 4.246094 L 9.832031 4.589844 L 10.398438 4.523438 L 10.648438 4.992188 L 10.148438 5.523438 L 9.585938 5.589844 L 10.085938 5.8125 L 10.617188 6.277344 L 11.148438 6.402344 L 11.335938 5.683594 L 11.367188 5.242188 L 11.992188 5.339844 C 11.992188 5.339844 11.804688 5.652344 11.898438 5.652344 C 11.996094 5.652344 12.367188 5.246094 12.367188 5.246094 L 11.304688 4.148438 C 11.304688 4.148438 10.867188 3.804688 10.742188 3.898438 C 10.613281 3.988281 10.273438 3.960938 10.273438 3.960938 L 9.929688 3.617188 M 18.617188 5.40625 L 18.492188 5.816406 C 18.945312 6.164062 19.117188 6.160156 19.117188 6.160156 L 19.648438 6.035156 L 19.992188 5.691406 L 19.773438 5.410156 L 18.617188 5.410156 M 21.398438 7.191406 L 21.148438 7.410156 C 21.078125 7.714844 20.992188 8.03125 20.992188 8.03125 L 21.464844 8.253906 L 21.527344 8.53125 L 21.273438 8.785156 L 21.054688 9.160156 L 21.210938 9.316406 L 21.773438 9.222656 L 22.273438 9.003906 L 21.996094 8.628906 L 21.902344 7.972656 L 21.558594 7.597656 M 20.621094 8.371094 L 20.34375 8.84375 L 20.71875 8.996094 L 20.871094 8.71875 M 5.183594 9.472656 L 5.839844 9.746094 L 6.277344 10.3125 L 6.554688 10.746094 C 6.554688 10.746094 6.308594 11.59375 6.242188 11.746094 C 6.179688 11.902344 5.988281 11.433594 5.988281 11.433594 L 5.835938 10.617188 L 5.304688 10.847656 L 4.898438 11.8125 L 4.988281 11.003906 L 5.113281 10.4375 L 4.457031 10.1875 L 5.023438 9.65625 L 5.179688 9.46875 M 31.5625 10.222656 C 31.695312 10.179688 31.9375 10.378906 31.9375 10.378906 L 31.683594 10.597656 L 31.777344 10.910156 L 32.058594 11.660156 L 32.335938 12.128906 L 32.714844 12.722656 L 32.304688 12.914062 L 31.773438 12.570312 L 31.554688 11.914062 C 31.554688 11.914062 31.253906 11.507812 31.113281 11.445312 C 30.980469 11.378906 30.863281 11.164062 30.863281 11.164062 L 30.988281 10.632812 C 30.988281 10.632812 31.414062 10.273438 31.554688 10.226562 M 23.65625 11.410156 L 23.28125 12.128906 L 23.558594 12.410156 L 23.8125 12.1875 L 23.84375 11.878906 M 22.402344 12.160156 L 22.402344 12.347656 L 22.558594 12.316406 M 24.558594 12.628906 L 24.371094 12.691406 L 24.683594 13.222656 L 24.964844 13.003906 M 4.4375 16.816406 L 4.125 16.972656 L 4.65625 17.253906 L 5.253906 17.375 L 5.597656 17.84375 L 6.003906 17.59375 L 5.941406 17.3125 L 5.253906 16.8125 L 4.441406 16.8125 M 6.125 19.910156 L 5.3125 20.347656 L 5.21875 21.253906 L 5.03125 22.253906 L 4.46875 23.003906 L 4.496094 24.128906 L 4.96875 25.285156 L 5.46875 26.691406 L 6.78125 28.003906 L 6.84375 28.753906 L 6.933594 32.132812 L 7.402344 34.039062 C 7.402344 34.039062 7.691406 35.136719 7.621094 35.222656 C 7.554688 35.3125 8 36.132812 8 36.132812 L 8.875 37.507812 L 10.09375 38.039062 L 9.59375 37.441406 L 9.339844 36.753906 L 9.59375 36.035156 L 8.9375 35.691406 C 8.9375 35.691406 9.371094 35.40625 9.4375 35.316406 C 9.503906 35.226562 9.34375 34.847656 9.34375 34.847656 L 9.15625 34.382812 L 9.65625 33.726562 L 10.4375 33.539062 L 10.558594 32.941406 L 10.09375 32.722656 L 10.28125 32.222656 L 11.03125 32.132812 L 11.6875 30.527344 L 12.15625 29.433594 L 13.121094 28.964844 C 13.121094 28.964844 13.433594 28.039062 13.433594 27.902344 C 13.433594 27.773438 13.527344 26.371094 13.527344 26.371094 L 14.277344 25.339844 L 14.371094 24.652344 L 13.808594 24.308594 L 13.34375 23.746094 L 12.496094 23.8125 L 11.152344 23.03125 L 10.871094 22.375 C 10.871094 22.375 10.402344 21.5625 10.308594 21.5625 C 10.21875 21.5625 9.652344 21.597656 9.652344 21.597656 L 9.121094 21.066406 L 8.777344 20.410156 L 7.433594 20.128906 L 7 19.910156 L 6.125 19.910156 M 42.558594 20.40625 C 42.671875 20.535156 43.375 22.625 43.46875 22.625 C 43.554688 22.625 44.089844 22.6875 44.089844 22.6875 L 43.808594 21.84375 M 38.96875 20.46875 L 38.65625 20.878906 L 38.8125 21.472656 L 39.15625 21.097656 L 39.089844 20.628906 M 47.058594 21.1875 L 45.589844 22.003906 C 45.589844 22.09375 44.871094 22.691406 44.871094 22.691406 L 45.058594 23.316406 L 45.464844 23.78125 L 45.746094 24.46875 L 47.621094 23.25 L 47.054688 21.1875 M 42.46875 21.628906 L 42.03125 21.691406 L 44.03125 24.691406 L 44.5625 25.285156 L 45.871094 25.347656 L 46.683594 25.601562 L 45.808594 24.976562 L 44.558594 24.632812 L 44.246094 23.476562 L 43.558594 22.914062 L 42.464844 21.632812 M 31.96875 26.503906 L 31.96875 26.941406 C 31.945312 27.007812 31.5625 27.316406 31.5625 27.316406 L 31.09375 27.535156 L 30.746094 27.816406 L 30.996094 28.160156 L 31.152344 28.316406 L 30.746094 28.660156 L 30.746094 29.226562 L 30.902344 29.820312 L 31.246094 29.914062 L 31.652344 29.289062 L 31.90625 28.882812 L 31.84375 28.382812 L 32.21875 27.789062 L 32.34375 27.507812 L 32.34375 26.945312 L 32.253906 26.507812 M 48.027344 27.226562 C 48.023438 27.226562 47.996094 27.257812 47.996094 27.257812 L 47.496094 28.28125 C 47.496094 28.28125 46.394531 28.445312 46.367188 28.535156 C 46.347656 28.628906 45.804688 28.910156 45.804688 28.910156 C 45.691406 28.910156 45.335938 29.566406 45.335938 29.566406 L 45.269531 31.632812 L 45.144531 32.382812 L 45.460938 32.785156 L 46.988281 32.257812 L 47.488281 31.691406 L 48.019531 31.691406 L 48.019531 27.222656 M 11.496094 35.972656 L 11.277344 36.128906 L 11.183594 36.15625 L 11.683594 36.40625 L 11.492188 35.972656 M 10.652344 36.160156 L 10.433594 36.660156 L 10.867188 36.566406 L 10.648438 36.160156 M 12.152344 40.285156 L 11.683594 41.003906 L 10.808594 41.410156 L 11.308594 42.035156 L 10.554688 42.410156 L 8.085938 42.285156 L 7.335938 41.535156 L 6.679688 41.410156 L 7.335938 42.785156 L 6.179688 42.566406 L 2.210938 42.691406 L 1.363281 43.785156 L 0.144531 43.660156 L 0.0234375 43.914062 L 0.0234375 48.003906 L 45.304688 48.003906 L 48.023438 46.222656 L 48.023438 44.316406 L 47.898438 43.128906 L 46.933594 42.910156 L 45.714844 43.066406 L 44.835938 43.84375 L 43.363281 44.441406 L 43.988281 43.6875 L 45.328125 42.910156 L 47.488281 42.410156 L 47.738281 41.535156 L 46.738281 41.535156 C 46.738281 41.535156 45.398438 40.867188 45.398438 40.691406 C 45.398438 40.515625 43.898438 40.566406 43.898438 40.566406 L 42.179688 40.753906 L 40.523438 40.664062 L 37.210938 40.789062 L 34.152344 41.410156 C 34.152344 41.410156 32.671875 42.203125 32.496094 42.164062 C 32.316406 42.121094 33.121094 41.132812 33.121094 41.132812 L 31.679688 41.222656 L 30.773438 40.472656 L 29.867188 41.09375 C 29.867188 41.09375 28.652344 41.1875 28.339844 41.1875 C 28.023438 41.1875 27.617188 41.753906 27.617188 41.753906 L 25.148438 41.660156 L 20.898438 41.851562 L 19.777344 42.816406 L 19.496094 42.851562 L 16.277344 42.628906 L 14.058594 42.851562 L 13.28125 42.472656 L 13.3125 42.40625 C 13.3125 42.40625 12.65625 41.089844 12.65625 40.90625 C 12.65625 40.730469 12.15625 40.285156 12.15625 40.285156 M 12.492188 43.476562 L 13.835938 43.914062 L 12.183594 43.914062 L 11.527344 43.570312 M 12.496094 43.476562 "/>
<path style=" stroke:none;fill-rule:nonzero;fill:rgb(27.45098%,27.45098%,27.45098%);fill-opacity:1;" d="M 22.46875 12 C 21.839844 12.003906 21.289062 12.507812 21.0625 13.4375 C 20.972656 13.804688 20.417969 14.644531 19.84375 15.28125 C 18.183594 17.121094 17.542969 19.886719 18.09375 22.71875 C 18.511719 24.863281 19.417969 26.28125 20.78125 27 C 21.144531 27.191406 21.382812 27.566406 21.46875 28 C 21.667969 29.011719 22.703125 29.90625 24.09375 30.3125 C 25.726562 30.792969 26.535156 31.675781 26.5625 32.96875 C 26.589844 34.128906 26.210938 34.65625 25.375 34.65625 C 24.652344 34.65625 23.679688 35.386719 23.90625 35.761719 C 24.003906 35.910156 24.726562 36.011719 25.75 36.011719 C 27.308594 36.011719 27.429688 35.972656 28 35.355469 C 28.71875 34.578125 28.949219 33.664062 28.6875 32.636719 C 28.246094 30.867188 28.25 30.695312 28.59375 30.355469 C 28.785156 30.160156 29.207031 30.011719 29.5625 30.011719 C 29.921875 30.011719 32.078125 29.601562 34.34375 29.105469 C 38.878906 28.113281 41.960938 27.820312 43.9375 28.199219 C 44.21875 28.25 47.78125 28.957031 48.003906 29.011719 C 48.003906 27.636719 48.003906 25.011719 48.003906 24.011719 C 48.003906 23.273438 48.074219 22.464844 48.003906 21.746094 C 46.054688 21.730469 41.457031 21.792969 38.503906 21.792969 L 25.1875 21.792969 L 24.71875 21.199219 C 24.171875 20.496094 24.148438 19.558594 24.625 18.542969 C 24.996094 17.753906 25.128906 17.683594 26.625 17.449219 C 27.78125 17.265625 28.71875 16.566406 28.625 15.949219 C 28.5625 15.511719 27.191406 14.609375 25.03125 13.574219 C 24.542969 13.339844 23.914062 12.886719 23.625 12.574219 C 23.265625 12.183594 22.847656 12.007812 22.46875 12.011719 M 25.15625 14.65625 C 25.414062 14.65625 25.585938 14.789062 25.53125 14.9375 C 25.429688 15.261719 25.078125 15.394531 24.878906 15.1875 C 24.59375 14.898438 24.699219 14.65625 25.15625 14.65625 M 24.503906 16.5625 C 24.65625 16.5625 24.871094 16.597656 25.128906 16.6875 C 25.953125 16.976562 26.015625 17.34375 25.253906 17.34375 C 24.570312 17.34375 24.039062 18.121094 23.878906 19.34375 C 23.730469 20.433594 23.480469 20.65625 23.28125 19.875 C 23.117188 19.203125 23.6875 17.054688 24.128906 16.6875 C 24.234375 16.59375 24.347656 16.5625 24.503906 16.5625 M 18.6875 20.09375 C 18.800781 20.019531 18.992188 20.339844 19.21875 21.0625 C 19.648438 22.417969 20.5625 24.019531 21.1875 24.46875 C 21.511719 24.699219 22.1875 24.949219 22.6875 25.03125 C 23.449219 25.152344 23.671875 25.289062 24.003906 25.96875 C 24.890625 27.800781 27.132812 28.054688 33.847656 27.03125 C 38.011719 26.398438 40.914062 26.296875 42.847656 26.753906 C 45.066406 27.277344 44.714844 27.472656 41.503906 27.472656 C 38.847656 27.476562 38.113281 27.566406 35.5625 28.191406 C 33.964844 28.589844 31.6875 29.039062 30.5 29.222656 C 27.515625 29.683594 24.511719 29.824219 23.84375 29.535156 C 22.96875 29.160156 22.300781 28.441406 22.15625 27.660156 C 22.050781 27.101562 21.785156 26.785156 20.9375 26.261719 C 19.523438 25.371094 18.726562 23.726562 18.59375 21.480469 C 18.542969 20.640625 18.574219 20.179688 18.6875 20.105469 M 20.15625 28.503906 C 20.050781 28.503906 19.9375 28.53125 19.78125 28.566406 C 18.046875 28.941406 17 30.011719 17 31.378906 C 17 31.941406 17.148438 32.367188 17.4375 32.660156 C 17.964844 33.191406 19.378906 33.277344 19.5625 32.785156 C 19.632812 32.605469 19.539062 32.25 19.34375 31.972656 C 19.152344 31.695312 18.96875 31.375 18.96875 31.285156 C 18.96875 31.035156 20.214844 30.441406 20.71875 30.441406 C 21.40625 30.441406 21.492188 30.074219 20.96875 29.222656 C 20.644531 28.691406 20.472656 28.492188 20.15625 28.492188 M 20.15625 28.503906 "/>
</g>
</svg>
