<!-- color: #eeeeee -->
<svg xmlns="http://www.w3.org/2000/svg" xmlns:xlink="http://www.w3.org/1999/xlink" width="48px" height="48px" viewBox="0 0 48 48" version="1.1">
<g id="surface1">
<path style=" stroke:none;fill-rule:nonzero;fill:rgb(100%,44.313725%,21.176471%);fill-opacity:1;" d="M 22.285156 20.457031 L 24.941406 20.316406 L 26.347656 18.203125 L 27.3125 20.613281 L 29.871094 21.527344 L 27.898438 23.101562 L 27.855469 25.65625 L 25.761719 24.316406 L 22.960938 25.21875 L 23.746094 22.742188 M 22.285156 20.457031 "/>
<path style=" stroke:none;fill-rule:nonzero;fill:rgb(100%,88.627451%,21.176471%);fill-opacity:1;" d="M 21.886719 28.140625 L 24.382812 27.222656 L 25.097656 24.785156 L 26.730469 26.792969 L 29.445312 26.910156 L 28.03125 28.996094 L 28.746094 31.449219 L 26.351562 30.792969 L 23.945312 32.484375 L 23.960938 29.886719 M 21.886719 28.140625 "/>
<path style=" stroke:none;fill-rule:nonzero;fill:rgb(100%,18.431373%,74.901961%);fill-opacity:1;" d="M 15.425781 24.910156 L 18.078125 25.109375 L 19.738281 23.1875 L 20.390625 25.699219 L 22.8125 26.933594 L 20.65625 28.242188 L 20.289062 30.769531 L 18.386719 29.179688 L 15.492188 29.71875 L 16.582031 27.363281 M 15.425781 24.910156 "/>
<path style=" stroke:none;fill-rule:nonzero;fill:rgb(17.647059%,17.647059%,17.647059%);fill-opacity:1;" d="M 26.359375 12.089844 C 23.878906 12.410156 21.214844 13.617188 19.046875 17.1875 C 14.089844 25.347656 14.441406 28.1875 13.652344 29.105469 C 12.859375 30.019531 10.722656 30.515625 11.03125 31.554688 C 11.339844 32.589844 11.652344 32.457031 11.652344 32.457031 C 11.652344 32.457031 14.773438 36.976562 23.824219 35.804688 C 32.871094 34.632812 34.128906 32.722656 34.046875 31.773438 C 33.964844 30.824219 32.054688 30.132812 32.054688 30.132812 C 32.054688 30.132812 30.640625 25.148438 31.003906 23.105469 C 31.367188 21.058594 32.746094 18.074219 34.109375 17.433594 C 35.46875 16.785156 36.148438 19.601562 36.851562 18.90625 C 37.550781 18.210938 35.671875 12.84375 33.59375 12.804688 C 32.429688 12.78125 29.535156 11.683594 26.359375 12.097656 M 26.367188 18.945312 L 27.058594 20.988281 L 29.15625 21.582031 L 27.382812 22.84375 L 27.460938 24.988281 L 25.6875 23.726562 L 23.597656 24.457031 L 24.269531 22.4375 L 22.921875 20.742188 L 25.125 20.722656 M 19.285156 24.949219 L 19.359375 26.429688 L 20.683594 27.222656 L 19.253906 27.738281 L 18.894531 29.203125 L 17.921875 28.0625 L 16.398438 28.160156 L 17.214844 26.925781 L 16.632812 25.539062 L 18.109375 25.921875 M 25.191406 25.257812 L 26.609375 27.15625 L 29.003906 27.0625 L 27.613281 28.984375 L 28.429688 31.171875 L 26.132812 30.460938 L 24.246094 31.917969 L 24.230469 29.558594 L 22.242188 28.261719 L 24.519531 27.515625 M 25.191406 25.257812 "/>
</g>
</svg>
