<!-- color: #4eca95 --><svg xmlns="http://www.w3.org/2000/svg" viewBox="0 0 48 48"><g><path d="m 24 12 l 0 10 l -8 0 l 0 -3 c 0 -3 4 -7 8 -7" fill="#eede4a" stroke="none" fill-rule="nonzero" fill-opacity="1"/><path d="m 16 23 l 0 6 c 0 4 3 7 8 7 c 5 0 8 -3 8 -7 l 0 -6 m -16 0" fill="#eaeced" stroke="none" fill-rule="nonzero" fill-opacity="1"/><path d="m 16 22 l 16 0 l 0 1 l -16 0 m 0 -1" fill="#9cbbc9" stroke="none" fill-rule="nonzero" fill-opacity="1"/><path d="m 24 12 l 0 10 l 8 0 l 0 -3 c 0 -3 -4 -7 -8 -7 m 0 0" fill="#eec74a" stroke="none" fill-rule="nonzero" fill-opacity="1"/><path d="m 24 19 c 0.551 0 1 0.672 1 1.5 l 0 4 c 0 0.828 -0.449 1.5 -1 1.5 c -0.551 0 -1 -0.672 -1 -1.5 l 0 -4 c 0 -0.828 0.449 -1.5 1 -1.5 m 0 0" fill="#315d78" stroke="none" fill-rule="nonzero" fill-opacity="1"/></g></svg>