<!-- color: #db281f -->
<svg xmlns="http://www.w3.org/2000/svg" xmlns:xlink="http://www.w3.org/1999/xlink" width="48px" height="48px" viewBox="0 0 48 48" version="1.1">
<g id="surface1">
<path style=" stroke:none;fill-rule:nonzero;fill:rgb(100%,80%,0%);fill-opacity:1;" d="M 23.804688 23.574219 C 23.804688 23.222656 23.742188 22.839844 23.535156 22.546875 C 23.128906 21.957031 22.253906 21.773438 21.644531 22.140625 C 21.339844 22.328125 21.164062 22.65625 21.070312 22.992188 C 20.878906 23.660156 20.964844 24.421875 21.101562 25.089844 C 21.144531 25.308594 21.1875 25.523438 21.246094 25.730469 C 21.269531 25.804688 21.277344 25.921875 21.328125 25.980469 C 21.414062 26.09375 21.625 26.121094 21.753906 26.101562 C 22.140625 26.035156 22.046875 25.398438 22.03125 25.125 C 22 24.496094 21.8125 23.878906 21.996094 23.246094 C 22.070312 22.980469 22.222656 22.679688 22.492188 22.5625 C 22.734375 22.457031 22.980469 22.585938 23.074219 22.824219 C 23.230469 23.210938 23.195312 23.652344 23.292969 24.054688 C 23.324219 24.1875 23.359375 24.324219 23.421875 24.453125 C 23.4375 24.488281 23.464844 24.5625 23.515625 24.5625 C 23.640625 24.550781 23.820312 24.339844 23.914062 24.261719 C 24.214844 24.011719 24.527344 23.742188 24.878906 23.554688 C 25.042969 23.46875 25.3125 23.328125 25.480469 23.476562 C 25.527344 23.515625 25.558594 23.558594 25.589844 23.605469 C 25.789062 23.917969 25.589844 24.160156 25.464844 24.449219 C 25.296875 24.832031 25.125 25.207031 24.886719 25.546875 C 24.679688 25.839844 24.394531 26.097656 24.230469 26.417969 C 24.125 26.625 24.0625 26.847656 24.109375 27.082031 C 24.144531 27.269531 24.289062 27.382812 24.480469 27.339844 C 24.625 27.304688 24.722656 27.183594 24.804688 27.066406 C 24.949219 26.867188 25.085938 26.65625 25.230469 26.453125 C 25.507812 26.0625 25.839844 25.691406 26.078125 25.269531 C 26.359375 24.761719 26.496094 24.183594 26.496094 23.605469 C 26.496094 23.132812 26.324219 22.40625 25.769531 22.308594 C 25.667969 22.289062 25.546875 22.300781 25.445312 22.316406 C 25.320312 22.339844 25.1875 22.382812 25.070312 22.441406 C 24.757812 22.589844 24.484375 22.816406 24.253906 23.074219 C 24.109375 23.234375 23.980469 23.4375 23.804688 23.570312 "/>
<path style=" stroke:none;fill-rule:nonzero;fill:rgb(100%,80%,0%);fill-opacity:1;" d="M 23.285156 11.847656 C 22.851562 11.90625 22.410156 11.902344 21.972656 11.96875 C 21.132812 12.097656 20.332031 12.359375 19.546875 12.671875 C 19.261719 12.789062 18.976562 12.914062 18.699219 13.050781 C 18.597656 13.101562 18.441406 13.140625 18.359375 13.21875 C 18.316406 13.261719 18.320312 13.359375 18.3125 13.414062 C 18.300781 13.574219 18.28125 13.726562 18.265625 13.886719 C 18.199219 14.488281 18.160156 15.117188 18.242188 15.71875 C 18.273438 15.914062 18.34375 16.265625 18.574219 16.304688 C 18.945312 16.363281 19.230469 15.910156 19.410156 15.65625 C 19.84375 15.074219 20.316406 14.527344 21.015625 14.265625 C 21.832031 13.953125 22.769531 13.882812 23.632812 13.824219 C 26.0625 13.65625 28.710938 14.101562 30.5 15.886719 C 30.753906 16.140625 30.988281 16.414062 31.195312 16.707031 C 32 17.867188 32.421875 19.183594 32.625 20.566406 C 32.722656 21.21875 32.785156 21.875 32.640625 22.523438 C 32.382812 23.644531 31.710938 24.621094 30.933594 25.453125 C 30.402344 26.023438 29.804688 26.535156 29.183594 27.003906 C 28.839844 27.265625 28.449219 27.488281 28.125 27.773438 C 27.742188 28.101562 27.433594 28.515625 27.191406 28.953125 C 26.554688 30.144531 26.382812 31.558594 26.570312 32.871094 C 26.609375 33.144531 26.644531 33.414062 26.710938 33.6875 C 26.730469 33.765625 26.730469 33.902344 26.777344 33.96875 C 26.878906 34.089844 27.136719 34.15625 27.285156 34.160156 C 27.441406 34.171875 27.546875 34.054688 27.585938 33.910156 C 27.648438 33.679688 27.605469 33.414062 27.566406 33.179688 C 27.492188 32.691406 27.421875 32.199219 27.441406 31.703125 C 27.484375 30.789062 27.839844 29.941406 28.46875 29.277344 C 29.109375 28.605469 29.980469 28.21875 30.710938 27.65625 C 32.1875 26.519531 33.507812 24.984375 34.015625 23.164062 C 34.195312 22.511719 34.253906 21.820312 34.171875 21.144531 C 34.066406 20.292969 33.757812 19.445312 33.464844 18.644531 C 32.574219 16.207031 31.042969 13.890625 28.613281 12.777344 C 27.648438 12.335938 26.640625 12.132812 25.59375 11.984375 C 25.101562 11.921875 24.613281 11.878906 24.121094 11.855469 C 23.847656 11.84375 23.546875 11.8125 23.277344 11.847656 "/>
<path style=" stroke:none;fill-rule:nonzero;fill:rgb(100%,80%,0%);fill-opacity:1;" d="M 19.484375 27.628906 C 19.011719 27.699219 18.875 28.078125 18.960938 28.507812 C 19.074219 29.054688 19.507812 29.472656 19.929688 29.800781 C 21.027344 30.644531 22.4375 31.097656 23.816406 31.039062 C 24.355469 31.019531 24.941406 30.925781 25.433594 30.699219 C 25.699219 30.578125 25.976562 30.136719 25.613281 29.949219 C 25.566406 29.921875 25.5 29.90625 25.445312 29.898438 C 25.289062 29.871094 25.113281 29.941406 24.964844 29.984375 C 24.699219 30.058594 24.4375 30.136719 24.164062 30.179688 C 23.359375 30.308594 22.484375 30.121094 21.8125 29.644531 C 21.273438 29.257812 20.832031 28.746094 20.421875 28.230469 C 20.167969 27.914062 19.9375 27.566406 19.484375 27.628906 "/>
<path style=" stroke:none;fill-rule:nonzero;fill:rgb(100%,80%,0%);fill-opacity:1;" d="M 18.871094 30.308594 C 18.75 30.324219 18.609375 30.316406 18.507812 30.394531 C 18.292969 30.554688 18.53125 30.871094 18.644531 31.011719 C 18.972656 31.429688 19.402344 31.777344 19.835938 32.082031 C 21.039062 32.933594 22.402344 33.421875 23.867188 33.523438 C 24.285156 33.554688 24.714844 33.523438 25.132812 33.453125 C 25.285156 33.429688 25.472656 33.417969 25.617188 33.351562 C 26.015625 33.167969 25.898438 32.414062 25.542969 32.246094 C 25.390625 32.171875 25.140625 32.269531 24.976562 32.289062 C 24.589844 32.34375 24.203125 32.351562 23.816406 32.339844 C 22.800781 32.316406 21.722656 32.003906 20.835938 31.511719 C 20.488281 31.316406 20.171875 31.082031 19.871094 30.816406 C 19.691406 30.65625 19.503906 30.394531 19.269531 30.316406 C 19.160156 30.277344 18.984375 30.296875 18.871094 30.308594 "/>
<path style=" stroke:none;fill-rule:nonzero;fill:rgb(100%,80%,0%);fill-opacity:1;" d="M 19.109375 32.566406 C 18.941406 32.585938 18.808594 32.675781 18.699219 32.800781 C 18.621094 32.890625 18.546875 32.96875 18.5 33.082031 C 18.253906 33.6875 18.910156 34.261719 19.367188 34.550781 C 19.867188 34.871094 20.421875 35.109375 20.980469 35.308594 C 22.246094 35.757812 23.734375 36.046875 25.046875 35.644531 C 25.4375 35.523438 25.824219 35.304688 26.105469 35.011719 C 26.265625 34.84375 26.378906 34.589844 26.085938 34.484375 C 25.910156 34.421875 25.699219 34.582031 25.542969 34.644531 C 25.167969 34.796875 24.78125 34.910156 24.382812 34.957031 C 23.855469 35.019531 23.382812 34.90625 22.875 34.777344 C 22.441406 34.671875 22.003906 34.5625 21.582031 34.40625 C 21.222656 34.273438 20.871094 34.113281 20.554688 33.894531 C 20.460938 33.824219 20.351562 33.769531 20.273438 33.679688 C 20.019531 33.398438 19.832031 33.070312 19.566406 32.800781 C 19.449219 32.683594 19.285156 32.546875 19.105469 32.566406 "/>
</g>
</svg>
