<!-- color: #eeeeee -->
<svg xmlns="http://www.w3.org/2000/svg" xmlns:xlink="http://www.w3.org/1999/xlink" width="48px" height="48px" viewBox="0 0 48 48" version="1.1">
<g id="surface1">
<path style=" stroke:none;fill-rule:evenodd;fill:rgb(100%,49.803922%,15.686275%);fill-opacity:1;" d="M 25.261719 23.4375 C 26.570312 24.878906 24.910156 26.179688 24.910156 26.179688 C 24.910156 26.179688 28.234375 24.53125 26.714844 22.476562 C 25.28125 20.554688 24.191406 19.605469 30.109375 16.304688 C 30.109375 16.304688 20.824219 18.527344 25.257812 23.425781 "/>
<path style=" stroke:none;fill-rule:evenodd;fill:rgb(20.392157%,20.392157%,78.823529%);fill-opacity:1;" d="M 32.28125 33.210938 C 32.28125 33.210938 33.050781 33.816406 31.4375 34.285156 C 28.371094 35.171875 18.683594 35.441406 15.992188 34.316406 C 15.027344 33.914062 16.839844 33.359375 17.410156 33.238281 C 18.007812 33.113281 18.34375 33.136719 18.34375 33.136719 C 17.273438 32.40625 11.390625 34.566406 15.359375 35.179688 C 26.183594 36.863281 35.089844 34.421875 32.28125 33.210938 "/>
<path style=" stroke:none;fill-rule:evenodd;fill:rgb(20.392157%,20.392157%,78.823529%);fill-opacity:1;" d="M 20.9375 25.308594 C 20.9375 25.308594 16.007812 26.429688 19.191406 26.839844 C 20.539062 27.011719 23.210938 26.972656 25.710938 26.773438 C 27.753906 26.609375 29.800781 26.257812 29.800781 26.257812 C 29.800781 26.257812 29.078125 26.554688 28.558594 26.894531 C 23.558594 28.15625 13.890625 27.566406 16.667969 26.277344 C 19.023438 25.1875 20.9375 25.3125 20.9375 25.3125 "/>
<path style=" stroke:none;fill-rule:evenodd;fill:rgb(20.392157%,20.392157%,78.823529%);fill-opacity:1;" d="M 29.78125 30.050781 C 34.867188 27.515625 32.515625 25.082031 30.875 25.410156 C 30.472656 25.492188 30.292969 25.558594 30.292969 25.558594 C 30.292969 25.558594 30.4375 25.335938 30.722656 25.238281 C 33.976562 24.144531 36.46875 28.46875 29.675781 30.179688 C 29.675781 30.179688 29.753906 30.113281 29.777344 30.050781 "/>
<path style=" stroke:none;fill-rule:evenodd;fill:rgb(100%,49.803922%,15.686275%);fill-opacity:1;" d="M 26.710938 11 C 26.710938 11 29.527344 13.703125 24.035156 17.859375 C 19.636719 21.191406 23.035156 23.09375 24.035156 25.261719 C 21.46875 23.042969 19.582031 21.085938 20.847656 19.261719 C 22.703125 16.589844 27.847656 15.296875 26.710938 11.003906 "/>
<path style=" stroke:none;fill-rule:evenodd;fill:rgb(20.392157%,20.392157%,78.823529%);fill-opacity:1;" d="M 21.4375 36.917969 C 26.320312 37.21875 33.820312 36.75 34 34.539062 C 34 34.539062 33.65625 35.375 29.960938 36.042969 C 25.792969 36.792969 20.652344 36.707031 17.601562 36.226562 C 17.601562 36.226562 18.226562 36.71875 21.4375 36.917969 "/>
</g>
</svg>
