<!-- color: #43a2f4 -->
<svg xmlns="http://www.w3.org/2000/svg" xmlns:xlink="http://www.w3.org/1999/xlink" width="48px" height="48px" viewBox="0 0 48 48" version="1.1">
<g id="surface1">
<path style=" stroke:none;fill-rule:nonzero;fill:rgb(97.647059%,97.647059%,97.647059%);fill-opacity:1;" d="M 15 12 C 14.96875 12 14.929688 12.007812 14.90625 12.03125 L 14.03125 12.90625 C 13.984375 12.953125 13.984375 13.046875 14.03125 13.09375 L 15.25 14.3125 L 14.90625 14.65625 C 14.828125 14.734375 14.816406 14.84375 14.875 14.9375 L 17.03125 18.5 C 16.667969 19.121094 16.394531 19.777344 16.1875 20.46875 L 12.1875 21.3125 C 12.078125 21.335938 12 21.421875 12 21.53125 L 12 24.136719 C 12 24.238281 12.082031 24.324219 12.1875 24.355469 L 16.0625 25.292969 C 16.261719 26.097656 16.570312 26.867188 16.96875 27.574219 L 14.71875 30.980469 C 14.65625 31.070312 14.671875 31.207031 14.75 31.292969 L 16.5625 33.105469 C 16.640625 33.183594 16.78125 33.191406 16.875 33.136719 L 20.375 31.011719 C 21.035156 31.394531 21.746094 31.707031 22.5 31.917969 L 23.3125 35.824219 C 23.335938 35.933594 23.421875 36.011719 23.53125 36.011719 L 26.125 36.011719 C 26.234375 36.011719 26.320312 35.929688 26.34375 35.824219 L 27.3125 31.949219 C 28.113281 31.738281 28.855469 31.449219 29.5625 31.042969 L 32.96875 33.230469 C 33.0625 33.289062 33.171875 33.277344 33.25 33.199219 L 33.71875 32.730469 L 34.90625 33.917969 C 34.953125 33.964844 35.054688 33.964844 35.097656 33.917969 L 35.972656 33.042969 C 36.015625 32.996094 36.015625 32.933594 35.972656 32.886719 L 34.78125 31.699219 L 35.0625 31.386719 C 35.140625 31.308594 35.183594 31.195312 35.128906 31.105469 L 32.972656 27.605469 C 33.207031 27.183594 33.425781 26.722656 33.597656 26.261719 C 33.605469 26.230469 33.609375 26.195312 33.597656 26.167969 C 33.582031 26.136719 33.535156 26.113281 33.503906 26.105469 L 32.40625 25.824219 C 32.402344 25.820312 32.382812 25.824219 32.378906 25.824219 C 32.6875 24.976562 32.878906 24.058594 32.878906 23.105469 C 32.878906 18.789062 29.363281 15.261719 25.03125 15.261719 C 24.0625 15.261719 23.113281 15.433594 22.253906 15.761719 C 22.257812 15.738281 22.257812 15.738281 22.253906 15.730469 L 22.003906 14.574219 C 21.996094 14.539062 21.96875 14.527344 21.9375 14.511719 C 21.910156 14.488281 21.878906 14.492188 21.84375 14.511719 C 21.386719 14.675781 20.953125 14.863281 20.53125 15.105469 C 20.527344 15.101562 20.539062 15.074219 20.53125 15.074219 L 17.03125 12.792969 C 16.9375 12.730469 16.800781 12.742188 16.71875 12.824219 L 16.3125 13.261719 L 15.0625 12.042969 C 15.039062 12.019531 15.03125 12.011719 15 12.011719 M 25.40625 15.820312 C 26.765625 15.910156 28.03125 16.371094 29.09375 17.101562 C 28.835938 17.070312 28.5625 17.027344 28.40625 16.882812 L 28.34375 16.882812 C 28.207031 16.996094 27.957031 17.042969 27.78125 17.070312 L 27.46875 17.507812 L 27.09375 17.820312 C 27.027344 17.964844 27.117188 18.179688 27.15625 18.320312 L 27.5625 18.132812 C 27.617188 18.328125 27.761719 18.371094 27.90625 18.476562 C 28.136719 18.039062 27.945312 17.617188 28.5 17.382812 L 28.25 17.726562 L 28.3125 17.976562 L 28.34375 17.664062 C 28.445312 18.015625 28.320312 18.5 27.9375 18.632812 L 27.5625 18.601562 L 27.5625 18.351562 C 27.339844 18.398438 27.347656 18.535156 27.40625 18.726562 C 27.257812 18.683594 27.171875 18.675781 27.0625 18.789062 C 26.941406 18.667969 26.828125 18.589844 26.8125 18.414062 C 26.734375 18.339844 26.695312 18.273438 26.6875 18.164062 L 26.4375 18.136719 L 26.53125 18.761719 C 26.503906 18.707031 26.46875 18.699219 26.4375 18.664062 L 26.5 19.105469 L 26.84375 19.039062 C 26.746094 19.136719 26.667969 19.136719 26.53125 19.136719 L 26.59375 19.261719 L 26.375 19.261719 L 26.65625 19.730469 C 26.019531 19.734375 26.007812 20.046875 26.03125 20.574219 C 26.15625 20.585938 26.226562 20.609375 26.3125 20.699219 C 26.828125 20.429688 26.949219 19.921875 27.5625 19.761719 C 27.660156 20.070312 27.96875 20.074219 27.875 20.449219 C 28.175781 20.386719 28.253906 20.117188 28.0625 19.886719 C 28.320312 20.039062 28.386719 20.335938 28.5625 20.574219 C 28.6875 20.410156 28.648438 20.261719 28.84375 20.136719 L 28.84375 20.230469 C 29.175781 20.523438 29.394531 20.585938 29.8125 20.730469 C 29.671875 20.933594 29.519531 21.152344 29.25 21.136719 C 28.921875 21.113281 28.476562 20.78125 28.25 21.164062 L 27.625 20.664062 C 27.277344 20.519531 26.953125 20.675781 26.59375 20.636719 L 26.4375 20.699219 L 26.5 20.730469 C 25.785156 21.050781 25.386719 21.902344 25.3125 22.605469 L 25.1875 23.074219 C 25.265625 23.53125 25.644531 24.015625 25.96875 24.324219 C 26.199219 24.546875 26.375 24.105469 26.59375 24.324219 C 26.882812 24.222656 27.300781 24.019531 27.5625 24.324219 C 27.738281 24.523438 27.566406 24.703125 27.625 24.921875 C 27.730469 25.285156 27.96875 25.734375 27.96875 26.144531 L 27.875 27.113281 C 27.960938 27.707031 28.308594 28.210938 28.3125 28.832031 C 28.792969 28.78125 29.328125 28.523438 29.59375 28.113281 L 29.6875 27.769531 L 29.878906 27.519531 L 29.8125 27.144531 C 29.925781 26.871094 30.371094 26.84375 30.4375 26.546875 C 30.53125 26.148438 30.296875 25.683594 30.4375 25.269531 C 30.660156 24.621094 31.296875 24.179688 31.3125 23.453125 L 30.84375 23.484375 C 31.265625 22.964844 32.144531 22.703125 31.6875 21.917969 L 31.5 22.144531 L 31.40625 22.144531 C 31.257812 21.828125 31.03125 21.816406 31.03125 21.417969 C 31.398438 21.734375 31.777344 21.734375 32.125 22.109375 C 32.191406 22.070312 32.226562 22.023438 32.25 21.953125 C 32.335938 22.402344 32.375 22.886719 32.375 23.359375 C 32.367188 27.527344 29.019531 30.898438 24.90625 30.890625 C 22.078125 30.882812 19.601562 29.277344 18.34375 26.914062 C 18.3125 26.855469 18.28125 26.789062 18.25 26.726562 C 18.164062 26.582031 18.109375 26.417969 18.03125 26.257812 C 17.921875 26.035156 17.800781 25.8125 17.71875 25.570312 C 17.304688 24.378906 17.40625 22.929688 17.40625 22.820312 C 17.40625 22.761719 17.453125 22.683594 17.5 22.601562 C 17.527344 22.304688 17.59375 22.015625 17.65625 21.726562 C 17.640625 21.710938 17.625 21.683594 17.625 21.664062 C 17.625 21.652344 17.683594 21.492188 17.71875 21.382812 C 17.691406 21.496094 17.671875 21.609375 17.65625 21.726562 C 17.621094 21.933594 17.601562 22.144531 17.59375 22.351562 C 17.574219 22.65625 17.839844 22.777344 17.96875 23.007812 L 17.988281 23.445312 L 18.09375 23.039062 L 18.9375 23.382812 L 19.53125 23.945312 L 20.03125 24.011719 C 19.847656 24.417969 19.496094 25.085938 19.5625 25.539062 C 19.601562 25.804688 19.875 26.167969 20.03125 26.386719 C 20.246094 26.6875 20.640625 26.878906 20.75 27.261719 L 20.78125 27.886719 L 20.90625 28.355469 C 20.882812 28.550781 20.6875 28.890625 20.8125 29.074219 C 20.945312 29.273438 21.453125 29.511719 21.6875 29.574219 C 21.90625 29.636719 21.933594 29.433594 21.84375 29.296875 L 22.113281 28.890625 L 22.488281 28.609375 L 22.738281 27.734375 L 23.304688 27.359375 C 23.53125 27.019531 23.34375 26.738281 23.429688 26.390625 L 23.804688 25.359375 C 23.382812 25.199219 22.789062 24.988281 22.488281 24.640625 L 22.394531 24.671875 L 22.332031 24.324219 L 21.863281 24.105469 L 21.769531 24.171875 L 21.675781 23.640625 L 21.050781 23.574219 L 20.582031 23.324219 C 20.378906 23.296875 20.09375 23.636719 20.019531 23.796875 L 19.769531 23.730469 L 19.832031 23.664062 L 19.613281 23.515625 L 19.644531 23.664062 C 19.476562 23.492188 19.445312 23.273438 19.488281 23.039062 L 19.207031 22.914062 L 19.175781 23.039062 C 19.128906 22.851562 19.15625 22.59375 19.300781 22.445312 C 19.085938 22.300781 18.917969 22.4375 18.769531 22.601562 L 18.457031 21.976562 C 18.371094 22.167969 18.410156 22.367188 18.425781 22.570312 L 18.363281 22.570312 C 18.347656 22.355469 18.285156 22.121094 18.394531 21.914062 C 18.601562 21.53125 19.230469 21.367188 19.613281 21.445312 L 19.550781 21.511719 L 19.925781 21.824219 C 19.925781 21.226562 20.15625 21.164062 20.488281 20.730469 L 20.707031 20.324219 C 20.964844 20.046875 21.363281 19.855469 21.707031 19.730469 L 22.144531 19.449219 C 22.007812 19.210938 21.628906 19.277344 21.394531 19.296875 C 21.816406 19.054688 22.386719 19.195312 22.675781 18.765625 C 22.359375 18.535156 22.367188 17.925781 21.863281 18.171875 L 21.925781 17.949219 L 21.519531 17.730469 L 21.207031 18.386719 L 20.769531 18.914062 L 20.738281 18.636719 C 20.574219 18.558594 20.121094 18.414062 20.113281 18.195312 C 20.101562 17.964844 20.8125 17.621094 20.988281 17.476562 L 20.925781 17.664062 L 21.238281 17.640625 C 21.300781 17.597656 21.910156 16.757812 21.988281 17.289062 C 22.410156 17.449219 22.4375 17.617188 22.863281 17.355469 L 22.613281 17.230469 C 22.570312 16.84375 22.214844 16.855469 21.894531 16.855469 L 22.925781 16.386719 C 23.039062 16.660156 23.375 16.722656 23.488281 16.980469 C 23.570312 17.160156 23.328125 17.242188 23.332031 17.421875 C 23.339844 17.632812 23.546875 17.921875 23.644531 18.109375 L 24.238281 17.453125 C 24.5625 17.28125 25.074219 17.265625 25.332031 16.984375 C 25.632812 16.660156 25.464844 16.140625 26.019531 16.140625 C 25.90625 16.09375 25.742188 16.058594 25.644531 16.140625 L 25.519531 16.046875 L 25.675781 16.046875 C 25.597656 15.933594 25.53125 15.851562 25.394531 15.824219 M 26.429688 18.664062 C 26.347656 18.578125 26.273438 18.535156 26.117188 18.570312 L 26.242188 19.039062 L 26.367188 18.976562 L 26.273438 18.945312 M 26.429688 18.664062 "/>
</g>
</svg>
