<!-- color: #e35e97 -->
<svg xmlns="http://www.w3.org/2000/svg" xmlns:xlink="http://www.w3.org/1999/xlink" width="48px" height="48px" viewBox="0 0 48 48" version="1.1">
<g id="surface1">
<path style=" stroke:none;fill-rule:nonzero;fill:rgb(91.764706%,91.764706%,91.764706%);fill-opacity:1;" d="M 13.886719 11 L 34.113281 11 C 34.605469 11 35 11.394531 35 11.882812 L 35 36.113281 C 35 36.601562 34.605469 37 34.113281 37 L 13.886719 37 C 13.398438 37 13 36.601562 13 36.113281 L 13 11.882812 C 13 11.394531 13.398438 11 13.886719 11 M 13.886719 11 "/>
<path style=" stroke:none;fill-rule:nonzero;fill:rgb(58.431373%,60.392157%,60.784314%);fill-opacity:1;" d="M 15.441406 31 L 18.554688 31 C 18.800781 31 19 31.199219 19 31.441406 L 19 34.558594 C 19 34.800781 18.800781 35 18.554688 35 L 15.441406 35 C 15.195312 35 15 34.800781 15 34.558594 L 15 31.441406 C 15 31.199219 15.195312 31 15.441406 31 M 15.441406 31 "/>
<path style=" stroke:none;fill-rule:nonzero;fill:rgb(58.431373%,60.392157%,60.784314%);fill-opacity:1;" d="M 15.441406 25.019531 L 18.554688 25.019531 C 18.800781 25.019531 19 25.21875 19 25.460938 L 19 28.578125 C 19 28.820312 18.800781 29.019531 18.554688 29.019531 L 15.441406 29.019531 C 15.195312 29.019531 15 28.820312 15 28.578125 L 15 25.460938 C 15 25.21875 15.195312 25.019531 15.441406 25.019531 M 15.441406 25.019531 "/>
<path style=" stroke:none;fill-rule:nonzero;fill:rgb(58.431373%,60.392157%,60.784314%);fill-opacity:1;" d="M 15.441406 19 L 18.554688 19 C 18.800781 19 19 19.199219 19 19.441406 L 19 22.558594 C 19 22.800781 18.800781 23 18.554688 23 L 15.441406 23 C 15.195312 23 15 22.800781 15 22.558594 L 15 19.441406 C 15 19.199219 15.195312 19 15.441406 19 M 15.441406 19 "/>
<path style=" stroke:none;fill-rule:nonzero;fill:rgb(46.27451%,64.313725%,81.176471%);fill-opacity:1;" d="M 15.441406 13 L 32.550781 13 C 32.796875 13 32.996094 13.199219 32.996094 13.441406 L 32.996094 16.558594 C 32.996094 16.800781 32.796875 17 32.550781 17 L 15.441406 17 C 15.195312 17 15 16.800781 15 16.558594 L 15 13.441406 C 15 13.199219 15.195312 13 15.441406 13 M 15.441406 13 "/>
<path style=" stroke:none;fill-rule:nonzero;fill:rgb(58.431373%,60.392157%,60.784314%);fill-opacity:1;" d="M 22.441406 31 L 25.558594 31 C 25.800781 31 26 31.199219 26 31.441406 L 26 34.558594 C 26 34.800781 25.800781 35 25.558594 35 L 22.441406 35 C 22.199219 35 22 34.800781 22 34.558594 L 22 31.441406 C 22 31.199219 22.199219 31 22.441406 31 M 22.441406 31 "/>
<path style=" stroke:none;fill-rule:nonzero;fill:rgb(58.431373%,60.392157%,60.784314%);fill-opacity:1;" d="M 22.441406 25.019531 L 25.558594 25.019531 C 25.800781 25.019531 26 25.21875 26 25.460938 L 26 28.578125 C 26 28.820312 25.800781 29.019531 25.558594 29.019531 L 22.441406 29.019531 C 22.199219 29.019531 22 28.820312 22 28.578125 L 22 25.460938 C 22 25.21875 22.199219 25.019531 22.441406 25.019531 M 22.441406 25.019531 "/>
<path style=" stroke:none;fill-rule:nonzero;fill:rgb(58.431373%,60.392157%,60.784314%);fill-opacity:1;" d="M 22.441406 19 L 25.558594 19 C 25.800781 19 26 19.199219 26 19.441406 L 26 22.558594 C 26 22.800781 25.800781 23 25.558594 23 L 22.441406 23 C 22.199219 23 22 22.800781 22 22.558594 L 22 19.441406 C 22 19.199219 22.199219 19 22.441406 19 M 22.441406 19 "/>
<path style=" stroke:none;fill-rule:nonzero;fill:rgb(58.431373%,60.392157%,60.784314%);fill-opacity:1;" d="M 29.441406 19 L 32.554688 19 C 32.800781 19 33 19.199219 33 19.441406 L 33 22.558594 C 33 22.800781 32.800781 23 32.554688 23 L 29.441406 23 C 29.195312 23 29 22.800781 29 22.558594 L 29 19.441406 C 29 19.199219 29.195312 19 29.441406 19 M 29.441406 19 "/>
<path style=" stroke:none;fill-rule:nonzero;fill:rgb(92.54902%,49.803922%,12.54902%);fill-opacity:1;" d="M 29.441406 25.019531 L 32.554688 25.019531 C 32.800781 25.019531 33 25.21875 33 25.460938 L 33 34.574219 C 33 34.820312 32.800781 35.019531 32.554688 35.019531 L 29.441406 35.019531 C 29.195312 35.019531 29 34.820312 29 34.574219 L 29 25.460938 C 29 25.21875 29.195312 25.019531 29.441406 25.019531 M 29.441406 25.019531 "/>
</g>
</svg>
