<!-- color: #1ca6bf -->
<svg xmlns="http://www.w3.org/2000/svg" xmlns:xlink="http://www.w3.org/1999/xlink" width="48px" height="48px" viewBox="0 0 48 48" version="1.1">
<g id="surface1">
<path style=" stroke:none;fill-rule:nonzero;fill:rgb(97.647059%,97.647059%,97.647059%);fill-opacity:1;" d="M 13 13.992188 C 13 11.375 15 11.300781 15 13.992188 L 14.996094 33.003906 C 14.996094 33.613281 15.21875 33.992188 15.992188 33.992188 L 24.011719 33.992188 C 26.714844 33.992188 26.59375 35.992188 24.011719 35.992188 L 13.992188 35.992188 C 13.324219 35.992188 12.992188 35.511719 12.992188 34.992188 M 12.996094 13.984375 "/>
<path style=" stroke:none;fill-rule:nonzero;fill:rgb(97.647059%,97.647059%,97.647059%);fill-opacity:1;" d="M 35 34.011719 C 35 36.632812 33 36.699219 33 34.011719 L 33.003906 15 C 33.003906 14.378906 32.777344 14 32.003906 14 L 23.984375 14 C 21.28125 14 21.40625 12 23.984375 12 L 34.003906 12 C 34.671875 12 35.003906 12.492188 35.003906 13 M 35 34.011719 "/>
</g>
</svg>
