<!-- color: #a71816 -->
<svg xmlns="http://www.w3.org/2000/svg" xmlns:xlink="http://www.w3.org/1999/xlink" width="48px" height="48px" viewBox="0 0 48 48" version="1.1">
<g id="surface1">
<path style=" stroke:none;fill-rule:nonzero;fill:rgb(100%,100%,100%);fill-opacity:1;" d="M 26 18 C 26 20 25.789062 21.863281 25.640625 23.5625 C 25.492188 25.230469 25.222656 27.332031 25 29.003906 L 23 29.003906 C 22.777344 27.335938 22.507812 25.230469 22.359375 23.5625 C 22.191406 21.855469 22 19.996094 22 18 L 22 11 L 26 11 "/>
<path style=" stroke:none;fill-rule:nonzero;fill:rgb(97.647059%,97.647059%,97.647059%);fill-opacity:1;" d="M 26 35 C 26.015625 35.722656 25.636719 36.398438 25.011719 36.765625 C 24.386719 37.132812 23.613281 37.132812 22.988281 36.765625 C 22.363281 36.398438 21.988281 35.722656 22 35 C 21.984375 34.277344 22.363281 33.601562 22.988281 33.234375 C 23.613281 32.867188 24.386719 32.867188 25.011719 33.234375 C 25.636719 33.601562 26.011719 34.277344 26 35 M 26 35 "/>
</g>
</svg>
