<!-- color: #a71816 -->
<svg xmlns="http://www.w3.org/2000/svg" xmlns:xlink="http://www.w3.org/1999/xlink" width="48px" height="48px" viewBox="0 0 48 48" version="1.1">
<g id="surface1">
<path style=" stroke:none;fill-rule:nonzero;fill:rgb(100%,100%,100%);fill-opacity:1;" d="M 34.507812 35.886719 L 33.148438 32.273438 L 28.84375 32.273438 L 27.484375 35.886719 L 25.160156 35.886719 L 29.917969 23.015625 L 32.078125 23.015625 L 36.835938 35.886719 L 34.507812 35.886719 M 31.027344 26.589844 L 29.605469 30.199219 L 32.367188 30.199219 L 31.027344 26.589844 "/>
<path style=" stroke:none;fill-rule:nonzero;fill:rgb(100%,100%,100%);fill-opacity:1;" d="M 12.847656 12.398438 L 14.992188 12.398438 C 14.835938 11.933594 14.664062 11.507812 14.472656 11.121094 L 15.628906 10.71875 C 15.898438 11.261719 16.113281 11.820312 16.265625 12.398438 L 18.410156 12.398438 L 18.410156 13.5 L 12.851562 13.5 L 12.851562 12.398438 M 13.429688 14.660156 L 17.890625 14.660156 L 17.890625 15.699219 L 13.429688 15.699219 L 13.429688 14.660156 M 13.429688 16.859375 L 17.890625 16.859375 L 17.890625 17.902344 L 13.429688 17.902344 L 13.429688 16.859375 M 17.945312 19.058594 L 17.945312 24.042969 L 16.84375 24.042969 L 16.84375 23.285156 L 14.644531 23.285156 L 14.644531 24.042969 L 13.484375 24.042969 L 13.484375 19.058594 L 17.945312 19.058594 M 14.644531 22.1875 L 16.84375 22.1875 L 16.84375 20.101562 L 14.644531 20.101562 L 14.644531 22.1875 M 18.988281 11.238281 L 25.707031 11.238281 L 25.707031 12.28125 L 22.289062 12.28125 L 21.996094 13.785156 L 25.183594 13.785156 L 25.183594 16.855469 L 26.222656 16.855469 L 26.222656 17.898438 L 18.695312 17.898438 L 18.695312 16.855469 L 20.199219 16.855469 L 20.605469 14.828125 L 19.273438 14.828125 L 19.273438 13.785156 L 20.839844 13.785156 L 21.128906 12.28125 L 18.980469 12.28125 L 18.980469 11.238281 M 21.355469 16.859375 L 24.078125 16.859375 L 24.078125 14.832031 L 21.765625 14.832031 L 21.363281 16.859375 M 25.589844 19.003906 L 25.589844 24.046875 L 24.433594 24.046875 L 24.433594 23.230469 L 20.492188 23.230469 L 20.492188 24.046875 L 19.332031 24.046875 L 19.332031 19.003906 L 25.589844 19.003906 M 20.492188 22.1875 L 24.433594 22.1875 L 24.433594 20.042969 L 20.492188 20.042969 L 20.492188 22.1875 "/>
<path style=" stroke:none;fill-rule:nonzero;fill:rgb(100%,100%,100%);fill-opacity:1;" d="M 25.109375 34.128906 L 23.804688 30.894531 L 23.253906 31.441406 C 19.84375 27.589844 19.84375 27.589844 21.488281 25.941406 L 20.640625 24.976562 C 18.449219 27.171875 18.449219 27.171875 22.707031 31.996094 L 22.160156 32.554688 M 25.109375 34.140625 "/>
<path style=" stroke:none;fill-rule:nonzero;fill:rgb(100%,100%,100%);fill-opacity:1;" d="M 25.527344 19.300781 L 27.476562 20.574219 L 27.460938 19.695312 C 30.539062 19.613281 30.539062 19.613281 30.59375 22.265625 L 31.363281 22.246094 C 31.289062 18.707031 31.289062 18.707031 27.441406 18.8125 L 27.425781 17.929688 M 25.527344 19.300781 "/>
</g>
</svg>
