<!-- color: #d8466e -->
<svg xmlns="http://www.w3.org/2000/svg" xmlns:xlink="http://www.w3.org/1999/xlink" width="48px" height="48px" viewBox="0 0 48 48" version="1.1">
<g id="surface1">
<path style=" stroke:none;fill-rule:nonzero;fill:rgb(97.647059%,97.647059%,97.647059%);fill-opacity:1;" d="M 29.230469 12.058594 C 28.804688 12.398438 27.550781 14.777344 26.296875 17.613281 C 25.789062 18.769531 25.070312 20.28125 24.707031 20.976562 C 23.628906 23.035156 20.996094 26.78125 19.777344 27.976562 L 18.640625 29.101562 L 19.488281 30.027344 C 20.007812 30.597656 20.695312 31.78125 21.265625 33.105469 C 22.347656 35.628906 22.535156 35.992188 22.742188 35.992188 C 22.839844 35.992188 23.394531 35.679688 24.011719 35.285156 C 25.390625 34.390625 26.679688 33.1875 28.433594 31.140625 C 31.171875 27.949219 33.226562 27.273438 35.757812 28.738281 C 36.441406 29.136719 37.003906 29.386719 37.003906 29.292969 C 37.003906 29.195312 36.65625 28.234375 36.238281 27.152344 C 35.820312 26.070312 34.679688 23.015625 33.710938 20.363281 C 33.019531 19.199219 30.761719 11.246094 29.230469 12.066406 M 23.773438 18.59375 C 23.761719 18.59375 23.746094 18.59375 23.730469 18.601562 C 21.414062 19.640625 20.578125 20.113281 19.894531 20.773438 C 19.445312 21.214844 19.078125 21.683594 19.078125 21.820312 C 19.078125 22.246094 20.902344 23.382812 21.203125 23.144531 C 21.347656 23.027344 21.917969 22.191406 22.46875 21.28125 C 23.441406 19.660156 23.945312 18.617188 23.773438 18.59375 M 17.289062 23.183594 C 16.894531 23.183594 11.296875 25.351562 11.03125 25.609375 C 10.953125 25.683594 11.035156 25.820312 11.214844 25.921875 C 11.394531 26.027344 12.417969 26.726562 13.503906 27.480469 C 14.585938 28.234375 15.527344 28.847656 15.59375 28.851562 C 15.660156 28.851562 16.15625 28.585938 16.6875 28.257812 C 17.804688 27.570312 19.960938 25.441406 19.949219 25.035156 C 19.941406 24.671875 17.792969 23.179688 17.285156 23.179688 M 17.289062 23.183594 "/>
</g>
</svg>
