<!-- color: #474747 -->
<svg xmlns="http://www.w3.org/2000/svg" xmlns:xlink="http://www.w3.org/1999/xlink" width="48px" height="48px" viewBox="0 0 48 48" version="1.1">
<g id="surface1">
<path style=" stroke:none;fill-rule:nonzero;fill:rgb(97.647059%,97.647059%,97.647059%);fill-opacity:1;" d="M 14.148438 11 C 14.148438 11 12.996094 11 12.996094 12.082031 L 12.996094 35.914062 C 12.996094 35.914062 12.996094 37 14.148438 37 L 34.847656 37 C 34.847656 37 36 37 36 35.914062 L 36 19.664062 L 26.800781 11 C 22.527344 10.996094 16.753906 10.996094 14.152344 10.996094 M 14.148438 11 "/>
<path style=" stroke:none;fill-rule:nonzero;fill:rgb(87.058824%,87.058824%,87.058824%);fill-opacity:1;" d="M 36 19.664062 L 26.800781 11 C 26.796875 15.332031 26.800781 17.496094 26.800781 18.582031 C 26.800781 19.664062 26.800781 19.664062 27.953125 19.664062 C 29.105469 19.664062 32.664062 19.679688 36.003906 19.664062 M 36 19.664062 "/>
<path style=" stroke:none;fill-rule:nonzero;fill:rgb(69.803922%,1.960784%,1.960784%);fill-opacity:1;" d="M 20.90625 12.53125 C 20.714844 12.566406 20.515625 12.746094 20.3125 13.09375 C 19.90625 13.785156 19.730469 15.707031 20.0625 17.5625 C 20.355469 19.207031 21.484375 22.722656 22.90625 24.875 C 21.503906 28.003906 19.578125 30.984375 18.4375 32.75 C 17.519531 34.171875 15.308594 35.828125 15.125 35.5 C 14.941406 35.171875 15.539062 34.445312 16.3125 33.28125 C 17.082031 32.117188 19.0625 30.90625 19.0625 30.90625 C 19.0625 30.90625 18.226562 30.890625 16.0625 32.78125 C 13.894531 34.675781 14.546875 35.617188 15.0625 35.90625 C 15.433594 36.117188 16.304688 36.746094 18.59375 33.90625 C 20.3125 33.417969 23.554688 32.585938 26.75 32.28125 C 31.335938 31.84375 32.90625 32.296875 33.3125 32.625 C 33.714844 32.953125 33.71875 33.34375 33.71875 33.34375 C 33.71875 33.34375 34.210938 32.832031 33.875 32.3125 C 33.585938 31.777344 33.164062 31.328125 29.53125 31.4375 C 25.894531 31.546875 25.621094 31.695312 22.28125 32.3125 C 20.894531 32.570312 19.835938 32.953125 19.03125 33.3125 C 19.824219 32.261719 20.769531 30.859375 21.90625 28.90625 C 22.542969 27.808594 23.070312 26.769531 23.53125 25.761719 C 25.242188 27.6875 28.539062 29.351562 31 29.855469 C 33.359375 30.332031 33.996094 29.457031 34.0625 29.355469 C 33.972656 29.429688 33.648438 29.5625 32.6875 29.480469 C 31.429688 29.371094 26.65625 27.882812 23.9375 24.824219 C 26.554688 18.539062 26.09375 14.136719 26.09375 14.136719 C 26.09375 14.136719 25.191406 18.28125 23.90625 22.28125 C 23.71875 22.863281 23.519531 23.449219 23.28125 24.03125 C 21.023438 20.894531 20.828125 16.847656 20.65625 14.6875 C 20.472656 12.394531 21.476562 13.054688 21.625 13.34375 C 21.738281 13.441406 21.847656 13.632812 21.90625 13.8125 C 21.851562 13.507812 21.773438 13.085938 21.5 12.8125 C 21.296875 12.613281 21.097656 12.496094 20.90625 12.53125 M 20.90625 12.53125 "/>
<path style=" stroke:none;fill-rule:nonzero;fill:rgb(87.058824%,73.333333%,26.27451%);fill-opacity:1;" d="M 32.140625 20.808594 C 30.8125 17.882812 27.835938 16 24.484375 16 C 21.054688 16 17.914062 18.058594 16.683594 21.117188 L 19.28125 22.082031 C 20.105469 20.039062 22.199219 18.667969 24.484375 18.667969 C 26.6875 18.667969 28.640625 19.890625 29.546875 21.796875 L 27.652344 22.523438 L 32.503906 25.203125 L 33.925781 20.128906 M 32.140625 20.808594 "/>
<path style=" stroke:none;fill-rule:nonzero;fill:rgb(20.784314%,32.54902%,58.431373%);fill-opacity:1;" d="M 24.472656 29.335938 C 22.285156 29.335938 20.292969 28.074219 19.398438 26.179688 L 21.265625 25.488281 L 16.46875 22.863281 L 15 27.804688 L 16.792969 27.140625 C 18.09375 30.0625 21.144531 32 24.472656 32 C 27.917969 32 30.960938 30.023438 32.242188 26.960938 L 29.652344 25.972656 C 28.804688 28.011719 26.769531 29.332031 24.476562 29.332031 M 24.472656 29.332031 "/>
<path style=" stroke:none;fill-rule:nonzero;fill:rgb(97.647059%,97.647059%,97.647059%);fill-opacity:1;" d="M 14.148438 11 C 14.148438 11 12.996094 11 12.996094 12.082031 L 12.996094 35.914062 C 12.996094 35.914062 12.996094 37 14.148438 37 L 34.847656 37 C 34.847656 37 36 37 36 35.914062 L 36 19.664062 L 26.800781 11 C 22.527344 10.996094 16.753906 10.996094 14.152344 10.996094 M 14.148438 11 "/>
<path style=" stroke:none;fill-rule:nonzero;fill:rgb(87.058824%,87.058824%,87.058824%);fill-opacity:1;" d="M 36 19.664062 L 26.800781 11 C 26.796875 15.332031 26.800781 17.496094 26.800781 18.582031 C 26.800781 19.664062 26.800781 19.664062 27.953125 19.664062 C 29.105469 19.664062 32.664062 19.679688 36.003906 19.664062 M 36 19.664062 "/>
<path style=" stroke:none;fill-rule:nonzero;fill:rgb(69.803922%,1.960784%,1.960784%);fill-opacity:1;" d="M 20.90625 12.53125 C 20.714844 12.566406 20.515625 12.746094 20.3125 13.09375 C 19.90625 13.785156 19.730469 15.707031 20.0625 17.5625 C 20.355469 19.207031 21.484375 22.722656 22.90625 24.875 C 21.503906 28.003906 19.578125 30.984375 18.4375 32.75 C 17.519531 34.171875 15.308594 35.828125 15.125 35.5 C 14.941406 35.171875 15.539062 34.445312 16.3125 33.28125 C 17.082031 32.117188 19.0625 30.90625 19.0625 30.90625 C 19.0625 30.90625 18.226562 30.890625 16.0625 32.78125 C 13.894531 34.675781 14.546875 35.617188 15.0625 35.90625 C 15.433594 36.117188 16.304688 36.746094 18.59375 33.90625 C 20.3125 33.417969 23.554688 32.585938 26.75 32.28125 C 31.335938 31.84375 32.90625 32.296875 33.3125 32.625 C 33.714844 32.953125 33.71875 33.34375 33.71875 33.34375 C 33.71875 33.34375 34.210938 32.832031 33.875 32.3125 C 33.585938 31.777344 33.164062 31.328125 29.53125 31.4375 C 25.894531 31.546875 25.621094 31.695312 22.28125 32.3125 C 20.894531 32.570312 19.835938 32.953125 19.03125 33.3125 C 19.824219 32.261719 20.769531 30.859375 21.90625 28.90625 C 22.542969 27.808594 23.070312 26.769531 23.53125 25.761719 C 25.242188 27.6875 28.539062 29.351562 31 29.855469 C 33.359375 30.332031 33.996094 29.457031 34.0625 29.355469 C 33.972656 29.429688 33.648438 29.5625 32.6875 29.480469 C 31.429688 29.371094 26.65625 27.882812 23.9375 24.824219 C 26.554688 18.539062 26.09375 14.136719 26.09375 14.136719 C 26.09375 14.136719 25.191406 18.28125 23.90625 22.28125 C 23.71875 22.863281 23.519531 23.449219 23.28125 24.03125 C 21.023438 20.894531 20.828125 16.847656 20.65625 14.6875 C 20.472656 12.394531 21.476562 13.054688 21.625 13.34375 C 21.738281 13.441406 21.847656 13.632812 21.90625 13.8125 C 21.851562 13.507812 21.773438 13.085938 21.5 12.8125 C 21.296875 12.613281 21.097656 12.496094 20.90625 12.53125 M 20.90625 12.53125 "/>
</g>
</svg>
