<!-- color: #cdcdcd -->
<svg xmlns="http://www.w3.org/2000/svg" xmlns:xlink="http://www.w3.org/1999/xlink" width="48px" height="48px" viewBox="0 0 48 48" version="1.1">
<g id="surface1">
<path style=" stroke:none;fill-rule:nonzero;fill:rgb(17.647059%,17.647059%,17.647059%);fill-opacity:1;" d="M 23.847656 11 C 22.773438 11 21.75 11.09375 20.847656 11.25 C 18.195312 11.714844 17.714844 12.683594 17.714844 14.472656 L 17.714844 16.835938 L 23.984375 16.835938 L 23.984375 17.625 L 15.359375 17.625 C 13.539062 17.625 11.941406 18.707031 11.441406 20.769531 C 10.863281 23.132812 10.839844 24.609375 11.441406 27.074219 C 11.886719 28.910156 12.949219 30.21875 14.777344 30.21875 L 16.625 30.21875 L 16.625 27.082031 C 16.625 25.03125 18.414062 23.230469 20.542969 23.230469 L 27.117188 23.230469 C 28.859375 23.230469 30.507812 21.808594 30.507812 20.074219 L 30.507812 14.472656 C 30.507812 12.792969 28.816406 11.53125 27.117188 11.25 C 26.039062 11.074219 24.921875 10.992188 23.851562 11 M 20.457031 12.902344 C 21.105469 12.902344 21.632812 13.433594 21.632812 14.085938 C 21.632812 14.738281 21.105469 15.269531 20.457031 15.269531 C 19.808594 15.269531 19.277344 14.738281 19.277344 14.085938 C 19.277344 13.433594 19.808594 12.902344 20.457031 12.902344 M 20.457031 12.902344 "/>
<path style=" stroke:none;fill-rule:nonzero;fill:rgb(97.647059%,97.647059%,97.647059%);fill-opacity:1;" d="M 21.863281 13.984375 C 21.863281 14.8125 21.191406 15.484375 20.363281 15.484375 C 19.535156 15.484375 18.863281 14.8125 18.863281 13.984375 C 18.863281 13.15625 19.535156 12.484375 20.363281 12.484375 C 21.191406 12.484375 21.863281 13.15625 21.863281 13.984375 M 21.863281 13.984375 "/>
<path style=" stroke:none;fill-rule:nonzero;fill:rgb(84.705882%,15.294118%,20.784314%);fill-opacity:1;" d="M 32.070312 12.144531 C 31.128906 12.296875 30.582031 13.042969 30.269531 13.679688 C 29.628906 13.742188 29.753906 13.15625 29.445312 12.832031 C 28.691406 13.035156 28.574219 12.855469 28.257812 12.175781 L 27.789062 12.175781 C 28.652344 12.757812 29.261719 13.597656 29.261719 14.613281 L 29.261719 15.613281 L 29.949219 15.113281 C 31.5625 16.144531 32.355469 15.210938 33.292969 14.015625 L 31.949219 14.015625 C 32.347656 13.324219 32.289062 12.875 32.074219 12.144531 M 32.070312 12.144531 "/>
<path style=" stroke:none;fill-rule:nonzero;fill:rgb(84.705882%,15.294118%,20.784314%);fill-opacity:1;" d="M 18.65625 12.03125 C 17.898438 12.585938 17.710938 13.367188 17.714844 14.46875 L 17.714844 16 L 30.503906 16 L 30.503906 14.46875 C 30.503906 13.453125 29.875 12.570312 29.058594 12.035156 M 20.46875 12.90625 C 21.117188 12.90625 21.625 13.4375 21.625 14.09375 C 21.625 14.746094 21.117188 15.25 20.46875 15.25 C 19.820312 15.25 19.28125 14.742188 19.28125 14.09375 C 19.28125 13.4375 19.816406 12.90625 20.46875 12.90625 M 20.46875 12.90625 "/>
<path style=" stroke:none;fill-rule:nonzero;fill:rgb(17.647059%,17.647059%,17.647059%);fill-opacity:1;" d="M 31.390625 17.628906 L 31.390625 20.382812 C 31.390625 22.519531 29.558594 24.058594 27.472656 24.058594 L 20.589844 24.058594 C 18.875 24.058594 17.453125 25.765625 17.453125 27.464844 L 17.453125 33.371094 C 17.453125 35.050781 18.933594 36.039062 20.589844 36.523438 C 22.574219 37.101562 24.734375 37.203125 27.109375 36.523438 C 28.691406 36.070312 30.246094 35.164062 30.246094 33.371094 L 30.246094 31.007812 L 23.980469 31.007812 L 23.980469 30.222656 L 33.382812 30.222656 C 35.203125 30.222656 35.882812 28.964844 36.515625 27.074219 C 37.171875 25.132812 37.144531 23.261719 36.515625 20.769531 C 36.066406 18.976562 35.207031 17.625 33.382812 17.625 M 27.507812 32.585938 C 28.15625 32.585938 28.683594 33.113281 28.683594 33.765625 C 28.683594 34.417969 28.15625 34.953125 27.507812 34.953125 C 26.859375 34.953125 26.332031 34.417969 26.332031 33.765625 C 26.332031 33.113281 26.859375 32.585938 27.507812 32.585938 M 27.507812 32.585938 "/>
<path style=" stroke:none;fill-rule:nonzero;fill:rgb(97.647059%,97.647059%,97.647059%);fill-opacity:1;" d="M 29.078125 33.78125 C 29.078125 34.609375 28.40625 35.28125 27.578125 35.28125 C 26.757812 35.28125 26.078125 34.609375 26.078125 33.78125 C 26.078125 32.953125 26.757812 32.28125 27.578125 32.28125 C 28.40625 32.28125 29.078125 32.953125 29.078125 33.78125 M 29.078125 33.78125 "/>
<path style=" stroke:none;fill-rule:nonzero;fill:rgb(84.705882%,15.294118%,20.784314%);fill-opacity:1;" d="M 17.457031 32.03125 L 17.457031 33.375 C 17.457031 34.597656 18.214844 35.445312 19.25 36 L 28.46875 36 C 29.480469 35.464844 30.25 34.636719 30.25 33.375 L 30.25 32.03125 M 27.566406 32.5 C 28.257812 32.5 28.816406 33.058594 28.816406 33.75 C 28.816406 34.4375 28.257812 35 27.566406 35 C 26.875 35 26.316406 34.4375 26.316406 33.75 C 26.316406 33.058594 26.875 32.5 27.566406 32.5 M 27.566406 32.5 "/>
<path style=" stroke:none;fill-rule:nonzero;fill:rgb(84.705882%,15.294118%,20.784314%);fill-opacity:1;" d="M 15.886719 35.890625 C 16.832031 35.738281 17.375 34.988281 17.6875 34.351562 C 18.328125 34.292969 18.207031 34.875 18.515625 35.203125 C 19.269531 34.996094 19.386719 35.179688 19.699219 35.859375 L 20.167969 35.859375 C 19.308594 35.273438 18.699219 34.433594 18.699219 33.421875 L 18.699219 32.421875 L 18.011719 32.921875 C 16.398438 31.890625 15.605469 32.820312 14.664062 34.015625 L 16.007812 34.015625 C 15.613281 34.710938 15.667969 35.15625 15.882812 35.890625 M 15.886719 35.890625 "/>
<path style=" stroke:none;fill-rule:nonzero;fill:rgb(84.705882%,15.294118%,20.784314%);fill-opacity:1;" d="M 19.269531 15.25 C 19.3125 15.085938 21.601562 12.652344 21.601562 12.652344 L 18.816406 12.835938 M 19.269531 15.25 "/>
<path style=" stroke:none;fill-rule:nonzero;fill:rgb(84.705882%,15.294118%,20.784314%);fill-opacity:1;" d="M 28.714844 32.269531 L 26.074219 35.417969 L 29.253906 35.167969 M 28.714844 32.269531 "/>
</g>
</svg>
