<!-- color: #9dc851 -->
<svg xmlns="http://www.w3.org/2000/svg" xmlns:xlink="http://www.w3.org/1999/xlink" width="48px" height="48px" viewBox="0 0 48 48" version="1.1">
<g id="surface1">
<path style=" stroke:none;fill-rule:evenodd;fill:rgb(17.647059%,17.647059%,17.647059%);fill-opacity:1;" d="M 0 0 L 0 48 L 24 48 L 24 30.8125 C 16.222656 30.078125 13.46875 22.0625 13.46875 22.0625 C 13.46875 22.0625 18.347656 17.265625 24 16.8125 L 24 0 M 24 16.8125 L 24 18.1875 C 24.125 18.179688 24.246094 18.160156 24.375 18.15625 C 28.996094 18.011719 32.03125 22.125 32.03125 22.125 C 32.03125 22.125 28.761719 26.65625 25.25 26.65625 C 24.792969 26.65625 24.375 26.582031 24 26.46875 L 24 27.78125 C 24.367188 27.839844 24.742188 27.90625 25.15625 27.90625 C 30.164062 27.90625 34.96875 22.0625 34.96875 22.0625 C 34.96875 22.0625 30.804688 16.566406 24.375 16.78125 C 24.25 16.785156 24.125 16.804688 24 16.8125 M 24 27.78125 C 19.6875 27.011719 18.5 22.53125 18.5 22.53125 C 18.5 22.53125 20.558594 20.246094 24 19.875 L 24 18.1875 C 18.894531 18.578125 16.34375 22.34375 16.34375 22.34375 C 16.34375 22.34375 18.292969 28.65625 24 29.371094 M 24 29.371094 L 24 30.8125 C 24.335938 30.84375 24.679688 30.878906 25.03125 30.878906 C 29.132812 30.878906 36.363281 28.757812 39.46875 26.152344 C 39.011719 25.691406 36.792969 24.648438 36.25 24.214844 C 32.984375 27.035156 29.601562 29.433594 24.9375 29.433594 C 24.609375 29.433594 24.304688 29.40625 24 29.371094 M 24 19.871094 L 24 21.308594 C 25.683594 21.550781 26.070312 22.398438 27.125 24.152344 L 29.53125 22.128906 C 29.53125 22.128906 27.773438 19.8125 24.8125 19.8125 C 24.535156 19.8125 24.261719 19.851562 23.996094 19.878906 M 23.996094 21.3125 C 23.769531 21.285156 23.554688 21.289062 23.34375 21.3125 C 21.863281 21.492188 20.777344 22.78125 20.777344 22.78125 C 20.777344 22.78125 21.5625 25.652344 23.996094 26.472656 M 23.996094 21.3125 "/>
</g>
</svg>
