<!-- color: #474747 -->
<svg xmlns="http://www.w3.org/2000/svg" xmlns:xlink="http://www.w3.org/1999/xlink" width="48px" height="48px" viewBox="0 0 48 48" version="1.1">
<g id="surface1">
<path style=" stroke:none;fill-rule:nonzero;fill:rgb(61.176471%,61.176471%,61.176471%);fill-opacity:1;" d="M 23 33 L 24 33 L 24 36 L 23 36 M 23 33 "/>
<path style=" stroke:none;fill-rule:nonzero;fill:rgb(61.176471%,61.176471%,61.176471%);fill-opacity:1;" d="M 25 33 L 26 33 L 26 36 L 25 36 M 25 33 "/>
<path style=" stroke:none;fill-rule:nonzero;fill:rgb(7.058824%,7.058824%,7.058824%);fill-opacity:1;" d="M 23 27 L 23 29 L 22 29 L 22 33 L 27 33 L 27 29 L 26 29 L 26 27 L 25 27 L 25 29 L 24 29 L 24 27 M 23 27 "/>
<path style=" stroke:none;fill-rule:nonzero;fill:rgb(52.941176%,52.941176%,52.941176%);fill-opacity:1;" d="M 23 34 L 24 34 L 24 35 L 23 35 M 23 34 "/>
<path style=" stroke:none;fill-rule:nonzero;fill:rgb(52.941176%,52.941176%,52.941176%);fill-opacity:1;" d="M 25 34 L 26 34 L 26 35 L 25 35 M 25 34 "/>
<path style=" stroke:none;fill-rule:nonzero;fill:rgb(61.176471%,61.176471%,61.176471%);fill-opacity:1;" d="M 15 22 L 15 23 L 12 23 L 12 22 M 15 22 "/>
<path style=" stroke:none;fill-rule:nonzero;fill:rgb(61.176471%,61.176471%,61.176471%);fill-opacity:1;" d="M 15 24 L 15 24.996094 L 12 24.996094 L 12 24 M 15 24 "/>
<path style=" stroke:none;fill-rule:nonzero;fill:rgb(7.058824%,7.058824%,7.058824%);fill-opacity:1;" d="M 15 21 L 15 26 L 19 26 L 19 25 L 21 25 L 21 24 L 19 24 L 19 23 L 21 23 L 21 22 L 19 22 L 19 21 M 15 21 "/>
<path style=" stroke:none;fill-rule:nonzero;fill:rgb(52.941176%,52.941176%,52.941176%);fill-opacity:1;" d="M 14 22 L 14 23 L 13 23 L 13 22 M 14 22 "/>
<path style=" stroke:none;fill-rule:nonzero;fill:rgb(52.941176%,52.941176%,52.941176%);fill-opacity:1;" d="M 14 24 L 14 24.996094 L 13 24.996094 L 13 24 M 14 24 "/>
<path style=" stroke:none;fill-rule:nonzero;fill:rgb(44.313725%,75.686275%,14.901961%);fill-opacity:1;" d="M 29.5 12 C 24.78125 11.992188 23 15.382812 23 18 L 23 24 L 21 24 L 21 25 L 23 25 L 23 27 L 24 27 L 24 25 L 30 25 C 32.867188 24.929688 36.039062 23.472656 36 18.5625 C 36 16 33.902344 11.984375 29.5 12 M 29.5 13 C 32 13 35 15.269531 35 18.53125 C 34.945312 22.121094 33.085938 23.910156 29.53125 24 L 24 24 L 24 18.5 C 23.960938 14.792969 26.699219 12.976562 29.5 13 M 29.5 13 "/>
<path style=" stroke:none;fill-rule:nonzero;fill:rgb(97.647059%,97.647059%,97.647059%);fill-opacity:1;" d="M 29.40625 14 C 27.160156 14.015625 25 16 25 18 L 25 22 L 21 22 L 21 23 L 25 23 L 25 27 L 26 27 L 26 23 L 29 23 C 30.574219 23.066406 34 22.453125 34 18.53125 C 34 16.777344 32.222656 14 29.40625 14 M 29.4375 15 C 31.164062 15 33 16.867188 33 18.46875 C 33.042969 21.65625 30.796875 22 28.5625 22 L 26 22 L 26 18.5625 C 26 16.335938 27.734375 15 29.4375 15 M 29.4375 15 "/>
</g>
</svg>
