<!-- color: #28557c -->
<svg xmlns="http://www.w3.org/2000/svg" xmlns:xlink="http://www.w3.org/1999/xlink" width="48px" height="48px" viewBox="0 0 48 48" version="1.1">
<g id="surface1">
<path style=" stroke:none;fill-rule:nonzero;fill:rgb(61.176471%,78.039216%,89.803922%);fill-opacity:1;" d="M 36.480469 16.121094 C 36.558594 16.609375 36.59375 17.121094 36.589844 17.667969 C 36.589844 17.671875 36.589844 17.675781 36.589844 17.679688 C 36.59375 20.785156 35.230469 23.429688 32.667969 25.3125 C 30.082031 27.210938 26.5625 28.105469 22.160156 28.105469 L 21.148438 28.105469 C 20.839844 28.105469 20.386719 28.488281 20.328125 28.765625 L 20.328125 28.777344 L 19.121094 33.976562 C 18.847656 35.164062 17.796875 35.976562 16.589844 35.976562 L 13.554688 35.976562 C 13.5625 36.554688 14.011719 37 14.644531 36.996094 L 18.164062 36.984375 C 18.910156 36.992188 19.671875 36.394531 19.847656 35.667969 L 21.039062 30.457031 C 21.210938 29.726562 21.964844 29.113281 22.722656 29.125 L 23.734375 29.125 C 28.027344 29.125 31.351562 28.246094 33.730469 26.492188 C 36.109375 24.730469 37.308594 22.421875 37.308594 19.546875 C 37.300781 18.289062 37.078125 17.226562 36.636719 16.390625 C 36.589844 16.296875 36.535156 16.207031 36.488281 16.121094 M 23.867188 16.320312 C 23.574219 16.320312 23.109375 16.703125 23.050781 16.980469 L 23.039062 16.992188 L 21.988281 21.535156 C 21.957031 21.679688 21.992188 21.71875 22.015625 21.75 C 22.035156 21.777344 22.066406 21.816406 22.21875 21.816406 L 23.035156 21.816406 L 23.761719 18.660156 C 23.921875 17.9375 24.6875 17.335938 25.429688 17.34375 L 26.585938 17.328125 C 27.152344 17.332031 27.652344 17.371094 28.105469 17.449219 C 28.003906 17.199219 27.839844 17.019531 27.597656 16.859375 C 27.121094 16.546875 26.273438 16.320312 25.03125 16.320312 M 23.867188 16.320312 "/>
<path style=" stroke:none;fill-rule:nonzero;fill:rgb(97.647059%,97.647059%,97.647059%);fill-opacity:1;" d="M 35.058594 14.511719 C 34.625 13.664062 33.972656 12.972656 33.136719 12.449219 C 32.273438 11.917969 31.265625 11.550781 30.097656 11.328125 C 28.917969 11.117188 27.539062 11.015625 25.960938 11 L 18.644531 11.003906 C 17.882812 11.015625 17.140625 11.609375 16.964844 12.339844 L 12.035156 33.78125 C 11.863281 34.515625 12.339844 35.121094 13.09375 35.121094 L 16.601562 35.121094 C 17.359375 35.121094 18.109375 34.53125 18.28125 33.78125 L 19.484375 28.578125 C 19.644531 27.847656 20.398438 27.25 21.15625 27.25 L 22.15625 27.25 C 26.441406 27.242188 29.769531 26.367188 32.15625 24.613281 C 34.550781 22.859375 35.734375 20.539062 35.726562 17.667969 C 35.734375 16.40625 35.515625 15.351562 35.058594 14.507812 M 27.5 21.519531 C 26.441406 22.289062 24.972656 22.679688 23.078125 22.679688 L 22.21875 22.679688 C 21.464844 22.679688 20.984375 22.074219 21.152344 21.339844 L 22.203125 16.785156 C 22.363281 16.058594 23.121094 15.445312 23.886719 15.460938 L 25.03125 15.445312 C 26.371094 15.445312 27.390625 15.675781 28.074219 16.136719 C 28.75 16.574219 29.097656 17.28125 29.085938 18.222656 C 29.105469 19.640625 28.566406 20.75 27.503906 21.511719 "/>
</g>
</svg>
