<!-- color: #eeeeee -->
<svg xmlns="http://www.w3.org/2000/svg" xmlns:xlink="http://www.w3.org/1999/xlink" width="48px" height="48px" viewBox="0 0 48 48" version="1.1">
<g id="surface1">
<path style=" stroke:none;fill-rule:nonzero;fill:rgb(31.764706%,31.764706%,31.764706%);fill-opacity:1;" d="M 36.726562 23.253906 C 36.453125 22.902344 36.15625 22.574219 35.855469 22.253906 C 34.234375 20.5 32.375 18.9375 30.335938 17.808594 C 29.039062 17.085938 27.644531 16.5 26.203125 16.222656 C 25.46875 16.078125 24.75 16.003906 23.996094 16.003906 C 23.261719 16.003906 22.527344 16.078125 21.792969 16.222656 C 20.351562 16.5 18.964844 17.085938 17.664062 17.808594 C 15.625 18.941406 13.765625 20.5 12.144531 22.253906 C 11.84375 22.574219 11.546875 22.90625 11.273438 23.253906 C 10.914062 23.722656 10.914062 24.277344 11.273438 24.746094 C 12.105469 25.816406 13.09375 26.765625 14.09375 27.636719 C 16.257812 29.511719 18.730469 31.078125 21.457031 31.710938 C 22.300781 31.90625 23.148438 32.003906 24 32.003906 C 24.855469 32.003906 25.699219 31.90625 26.542969 31.710938 C 29.269531 31.082031 31.746094 29.511719 33.914062 27.636719 C 34.914062 26.765625 35.90625 25.816406 36.734375 24.746094 C 37.09375 24.277344 37.09375 23.722656 36.734375 23.253906 M 36.726562 23.253906 "/>
<path style=" stroke:none;fill-rule:nonzero;fill:rgb(51.764706%,90.196078%,35.686275%);fill-opacity:1;" d="M 23.648438 18.050781 C 22.601562 18.371094 23.519531 19.863281 22.023438 20.59375 C 20.3125 21.429688 19.464844 19.320312 18.4375 20.824219 C 17.410156 22.328125 19.847656 22.09375 19.78125 23.867188 C 19.710938 25.636719 17.292969 25.261719 18.203125 26.824219 C 19.109375 28.386719 20.117188 26.332031 21.746094 27.269531 C 23.386719 28.203125 21.816406 29.933594 23.746094 29.992188 C 25.679688 30.050781 24.246094 28.234375 25.957031 27.398438 C 27.664062 26.558594 28.515625 28.667969 29.542969 27.167969 C 30.570312 25.660156 28.128906 25.894531 28.199219 24.125 C 28.269531 22.355469 30.683594 22.730469 29.777344 21.167969 C 28.871094 19.605469 27.859375 21.65625 26.234375 20.722656 C 24.59375 19.78125 26.164062 18.054688 24.234375 17.996094 C 23.992188 17.988281 23.796875 18.003906 23.648438 18.046875 M 23.664062 22.554688 C 24.53125 22.386719 25.378906 22.894531 25.5625 23.691406 C 25.746094 24.484375 25.191406 25.265625 24.332031 25.433594 C 23.46875 25.605469 22.621094 25.097656 22.4375 24.300781 C 22.253906 23.507812 22.804688 22.726562 23.664062 22.554688 M 23.664062 22.554688 "/>
</g>
</svg>
