<!-- color: #619f2b -->
<svg xmlns="http://www.w3.org/2000/svg" xmlns:xlink="http://www.w3.org/1999/xlink" width="48px" height="48px" viewBox="0 0 48 48" version="1.1">
<g id="surface1">
<path style=" stroke:none;fill-rule:nonzero;fill:rgb(100%,100%,100%);fill-opacity:1;" d="M 23.265625 9.019531 C 22.03125 9.027344 20.871094 9.691406 20.320312 10.835938 C 19.515625 12.5 20.289062 14.558594 22.042969 15.453125 C 23.796875 16.347656 25.867188 15.730469 26.671875 14.066406 C 27.476562 12.402344 26.714844 10.328125 24.960938 9.433594 C 24.414062 9.15625 23.828125 9.019531 23.265625 9.019531 M 22.417969 10.777344 C 22.8125 10.738281 23.222656 10.816406 23.613281 11.015625 C 24.648438 11.542969 25.105469 12.761719 24.632812 13.746094 C 24.160156 14.726562 22.941406 15.097656 21.90625 14.570312 C 20.871094 14.042969 20.410156 12.824219 20.882812 11.839844 C 21.179688 11.226562 21.765625 10.84375 22.417969 10.777344 M 22.417969 10.777344 "/>
<path style=" stroke:none;fill-rule:nonzero;fill:rgb(86.27451%,72.54902%,3.921569%);fill-opacity:1;" d="M 19.03125 22.996094 C 15.300781 24.945312 10.941406 27.886719 12.230469 30.546875 C 13.980469 34.136719 22.457031 35.234375 26.804688 33.394531 C 24.671875 31.078125 18.230469 27.757812 18.824219 23.878906 C 18.871094 23.574219 18.945312 23.28125 19.027344 22.992188 M 19.027344 22.996094 "/>
<path style=" stroke:none;fill-rule:nonzero;fill:rgb(100%,92.54902%,0%);fill-opacity:1;" d="M 28.078125 17.070312 C 25.144531 16.289062 20.347656 19.347656 19.640625 23.613281 C 18.933594 27.878906 27.367188 31.480469 28.742188 33.796875 C 30.109375 36.113281 29.402344 38.992188 29.402344 38.992188 C 29.402344 38.992188 35.355469 34.15625 35.957031 27.753906 C 36.5625 21.355469 31.105469 17.878906 28.089844 17.074219 M 28.085938 17.070312 "/>
<path style=" stroke:none;fill-rule:nonzero;fill:rgb(27.45098%,27.45098%,27.45098%);fill-opacity:1;" d="M 24.820312 14.019531 C 24.261719 14.984375 22.917969 15.222656 21.808594 14.550781 C 20.703125 13.878906 20.257812 12.550781 20.8125 11.585938 C 21.371094 10.625 22.714844 10.386719 23.824219 11.058594 C 24.929688 11.730469 25.375 13.054688 24.820312 14.019531 M 24.820312 14.019531 "/>
</g>
</svg>
