<!-- color: #eeeeee -->
<svg xmlns="http://www.w3.org/2000/svg" xmlns:xlink="http://www.w3.org/1999/xlink" width="48px" height="48px" viewBox="0 0 48 48" version="1.1">
<g id="surface1">
<path style=" stroke:none;fill-rule:nonzero;fill:rgb(94.901961%,55.686275%,3.921569%);fill-opacity:1;" d="M 11.128906 36.898438 C 11.058594 36.824219 11 33.214844 11.003906 28.878906 C 11.003906 20.039062 11.085938 19.261719 12.242188 16.859375 C 13.9375 13.328125 17.882812 10.917969 21.816406 11.003906 C 22.398438 11.015625 23.121094 11.078125 23.425781 11.148438 C 23.96875 11.269531 23.957031 11.285156 22.484375 12.4375 C 18.171875 15.8125 15.863281 21.675781 17.753906 24.429688 C 18.066406 24.882812 18.6875 25.519531 19.136719 25.839844 C 19.824219 26.332031 20.167969 26.4375 21.335938 26.496094 C 22.53125 26.558594 22.847656 26.5 23.699219 26.058594 C 26.652344 23.816406 27.242188 19.035156 31.164062 18.933594 C 31.839844 18.933594 31.890625 18.976562 32.03125 19.660156 C 32.285156 20.898438 32.175781 23.617188 31.820312 24.859375 C 30.480469 29.535156 26.324219 32.714844 21.527344 32.730469 C 20.886719 32.734375 19.699219 32.558594 18.882812 32.34375 C 18.0625 32.128906 17.328125 31.949219 17.242188 31.949219 C 17.15625 31.949219 17.066406 33.066406 17.035156 34.429688 L 16.984375 36.90625 L 14.125 36.964844 C 12.550781 36.988281 11.203125 36.953125 11.128906 36.882812 M 20.148438 24.84375 C 40.972656 32.574219 30.558594 28.703125 20.148438 24.84375 M 20.148438 24.84375 "/>
<path style=" stroke:none;fill-rule:nonzero;fill:rgb(27.058824%,43.921569%,24.705882%);fill-opacity:1;" d="M 29.523438 36.902344 C 27.472656 36.488281 26.898438 36.324219 25.886719 35.859375 C 24.363281 35.15625 23.195312 34.339844 23.550781 34.238281 C 26.542969 33.363281 27.667969 32.832031 29.242188 31.558594 L 30.273438 30.726562 L 32.539062 30.785156 C 33.785156 30.816406 34.988281 30.910156 35.214844 31 C 35.847656 31.25 36.804688 32.472656 36.9375 33.21875 C 37.199219 34.636719 36.496094 36.074219 35.261719 36.644531 C 34.605469 36.949219 34.046875 37.011719 32.179688 37 C 30.925781 36.988281 29.726562 36.945312 29.519531 36.902344 M 20.089844 24.554688 C 19.230469 24.042969 18.597656 22.929688 18.597656 21.914062 C 18.597656 21 19.078125 19.511719 19.925781 17.78125 C 20.820312 15.957031 23.355469 13.4375 25.246094 12.492188 C 27.554688 11.34375 28.648438 11.140625 32.164062 11.210938 C 34.867188 11.265625 35.285156 11.316406 35.742188 11.660156 C 36.363281 12.128906 37.078125 13.523438 36.992188 14.113281 C 36.894531 14.78125 35.714844 15.113281 33.957031 14.96875 C 32.246094 14.820312 32.003906 15.007812 32.800781 15.820312 C 33.195312 16.226562 33.613281 16.421875 34.285156 16.511719 C 34.796875 16.578125 35.347656 16.65625 35.503906 16.679688 C 35.699219 16.714844 35.636719 16.816406 35.3125 17.007812 C 34.988281 17.195312 33.976562 17.320312 32.082031 17.390625 C 29.636719 17.480469 29.207031 17.550781 28.28125 17.992188 C 27.167969 18.53125 25.78125 19.816406 25.304688 20.765625 C 25.144531 21.085938 24.847656 21.828125 24.648438 22.421875 C 24.0625 24.152344 23.078125 24.980469 21.59375 24.96875 C 21.113281 24.964844 20.492188 24.796875 20.082031 24.554688 M 34.335938 13.65625 C 34.898438 13.078125 34.351562 11.753906 33.550781 11.753906 C 32.652344 11.753906 32.144531 12.941406 32.773438 13.585938 C 33.125 13.941406 34.011719 13.984375 34.335938 13.652344 M 34.335938 13.65625 "/>
</g>
</svg>
