<!-- color: #cfcfcf -->
<svg xmlns="http://www.w3.org/2000/svg" xmlns:xlink="http://www.w3.org/1999/xlink" width="48px" height="48px" viewBox="0 0 48 48" version="1.1">
<defs>
<linearGradient id="linear0" gradientUnits="userSpaceOnUse" x1="5.08" y1="0" x2="8.467" y2="0" gradientTransform="matrix(3.543307,0,0,3.543307,0,0)">
<stop offset="0" style="stop-color:rgb(23.529412%,72.54902%,26.27451%);stop-opacity:1;"/>
<stop offset="1" style="stop-color:rgb(23.529412%,72.54902%,26.27451%);stop-opacity:0;"/>
</linearGradient>
<linearGradient id="linear1" gradientUnits="userSpaceOnUse" x1="4.798" y1="0" x2="9.596" y2="0" gradientTransform="matrix(3.543307,0,0,3.543307,0,0)">
<stop offset="0" style="stop-color:rgb(52.54902%,54.509804%,92.54902%);stop-opacity:1;"/>
<stop offset="1" style="stop-color:rgb(52.54902%,54.509804%,92.54902%);stop-opacity:0;"/>
</linearGradient>
</defs>
<g id="surface1">
<rect x="0" y="0" width="48" height="48" style="fill:url(#linear0);stroke:none;"/>
<path style=" stroke:none;fill-rule:nonzero;fill:url(#linear1);" d="M 25.375 29.128906 L 1.246094 48.003906 L 41.246094 48.003906 M 25.375 29.128906 "/>
<path style=" stroke:none;fill-rule:nonzero;fill:rgb(100%,90.588235%,56.078431%);fill-opacity:1;" d="M 48 7 L 0 46 C 0 46.59375 0 47.507812 0 48 C 1 48 3 48 4 48 L 48 12 M 48 7 "/>
<path style=" stroke:none;fill-rule:nonzero;fill:rgb(100%,90.588235%,56.078431%);fill-opacity:1;" d="M 26.984375 27.828125 L 24.351562 30.320312 L 39 48 C 40 48 42 48 43 48 M 26.980469 27.828125 "/>
<path style=" stroke:none;fill-rule:nonzero;fill:rgb(100%,43.529412%,1.176471%);fill-opacity:1;" d="M 17.964844 23 L 31.738281 23 L 31.738281 27 L 17.964844 27 M 17.964844 23 "/>
<path style=" stroke:none;fill-rule:nonzero;fill:rgb(100%,17.647059%,36.078431%);fill-opacity:1;" d="M 31 23 L 31 27 L 33.4375 27 C 33.4375 27 34 26.675781 34 25 C 34 23.390625 33.378906 23.003906 33.378906 23.003906 L 31.003906 23.003906 M 31 23 "/>
<path style=" stroke:none;fill-rule:nonzero;fill:rgb(100%,75.686275%,23.921569%);fill-opacity:1;" d="M 18 23 L 14 24.996094 L 18 26.996094 L 18 22.996094 M 18 23 "/>
<path style=" stroke:none;fill-rule:nonzero;fill:rgb(17.647059%,17.647059%,17.647059%);fill-opacity:1;" d="M 16 23.980469 L 14.003906 24.996094 L 16 26.015625 M 16 23.980469 "/>
</g>
</svg>
