<!-- color: #665850 -->
<svg xmlns="http://www.w3.org/2000/svg" xmlns:xlink="http://www.w3.org/1999/xlink" width="48px" height="48px" viewBox="0 0 48 48" version="1.1">
<g id="surface1">
<path style=" stroke:none;fill-rule:nonzero;fill:rgb(95.686275%,55.686275%,31.764706%);fill-opacity:1;" d="M 23.835938 11 C 20.859375 15.0625 10.746094 26.523438 15.050781 33.140625 C 18.386719 38.265625 29.71875 38.292969 33.011719 33.140625 C 37.300781 26.441406 26.371094 15.058594 23.835938 11 M 23.835938 11 "/>
<path style=" stroke:none;fill-rule:nonzero;fill:rgb(100%,77.647059%,45.882353%);fill-opacity:1;" d="M 22.820312 19.40625 C 16.980469 19.78125 14.988281 28.265625 17.222656 32.128906 C 19.691406 35.921875 26.8125 36.707031 31.222656 34.5 C 30.449219 33.675781 29.375 32.832031 27.972656 32.472656 C 24.824219 31.660156 20.113281 26.785156 22.476562 23.535156 C 24.839844 20.285156 28.757812 23.535156 28.757812 23.535156 C 28.757812 23.535156 27.972656 20.285156 24.039062 19.46875 C 23.792969 19.421875 23.511719 19.417969 23.257812 19.40625 C 23.097656 19.398438 22.980469 19.398438 22.824219 19.40625 M 22.820312 19.40625 "/>
</g>
</svg>
