<!-- color: #68a635 -->
<svg xmlns="http://www.w3.org/2000/svg" xmlns:xlink="http://www.w3.org/1999/xlink" width="48px" height="48px" viewBox="0 0 48 48" version="1.1">
<g id="surface1">
<path style=" stroke:none;fill-rule:nonzero;fill:rgb(100%,100%,100%);fill-opacity:1;" d="M 19.585938 33.210938 C 19.527344 35.351562 17.78125 37.039062 15.6875 36.976562 C 13.59375 36.914062 11.945312 35.128906 12.007812 32.988281 C 12.066406 30.847656 13.8125 29.160156 15.90625 29.222656 C 18 29.285156 19.648438 31.070312 19.585938 33.210938 M 19.585938 33.210938 "/>
<path style=" stroke:none;fill-rule:nonzero;fill:rgb(100%,100%,100%);fill-opacity:1;" d="M 22.921875 36.984375 L 27.917969 36.984375 C 27.644531 25.816406 19.796875 20.542969 12 19.75 L 12 25.042969 C 18.277344 25.558594 22.851562 29.660156 22.921875 36.984375 M 22.921875 36.984375 "/>
<path style=" stroke:none;fill-rule:nonzero;fill:rgb(100%,100%,100%);fill-opacity:1;" d="M 31.824219 36.992188 L 35.972656 36.980469 C 36.667969 22.191406 23.84375 11.480469 12.003906 10.992188 L 12.003906 15.828125 C 22.863281 17.027344 31.871094 26.195312 31.828125 36.988281 M 31.824219 36.988281 "/>
</g>
</svg>
