<!-- color: #eeeeee -->
<svg xmlns="http://www.w3.org/2000/svg" xmlns:xlink="http://www.w3.org/1999/xlink" width="48px" height="48px" viewBox="0 0 48 48" version="1.1">
<g id="surface1">
<path style=" stroke:none;fill-rule:nonzero;fill:rgb(10.196078%,57.647059%,84.705882%);fill-opacity:1;" d="M 19.03125 19.355469 C 19.085938 20.757812 17.601562 20.820312 17.90625 19.199219 C 18.253906 17.339844 17.015625 16.503906 15.832031 15.832031 C 18.238281 18.988281 15.355469 18.996094 14.242188 23.050781 C 13.863281 24.425781 13.554688 25.84375 14.09375 27.0625 C 14.25 27.410156 14.664062 27.828125 14.625 28.246094 C 14.585938 28.683594 14.355469 29.019531 14.167969 29.402344 C 13.878906 29.988281 13.339844 30.515625 13.097656 31.035156 C 12.960938 31.324219 13.292969 31.542969 13.535156 31.679688 C 13.902344 31.890625 14.402344 31.957031 14.617188 32.347656 C 14.765625 32.617188 14.726562 32.902344 14.597656 33.164062 C 14.480469 33.410156 14.394531 33.777344 14.636719 33.941406 C 14.816406 34.0625 15.050781 34.125 15.175781 34.335938 C 15.292969 34.535156 15.238281 34.773438 15.425781 34.929688 C 15.738281 35.1875 16.253906 35.164062 16.492188 35.707031 C 16.601562 35.957031 16.675781 36.238281 16.820312 36.484375 C 17.042969 36.863281 17.664062 36.976562 18.09375 36.9375 C 18.554688 36.890625 18.894531 36.746094 19.335938 36.613281 C 20.480469 36.257812 21.5625 35.789062 22.585938 35.144531 C 23.445312 34.59375 23.96875 34.28125 24.742188 33.828125 C 25.308594 33.507812 26.113281 33.613281 26.738281 33.453125 C 27.511719 33.253906 28.441406 32.941406 28.988281 32.398438 C 29.566406 31.828125 29.804688 31.375 29.980469 30.324219 C 29.730469 30.667969 29.085938 31.457031 28.445312 31.667969 C 27.742188 31.898438 27.492188 31.777344 27.277344 31.488281 C 27.097656 31.242188 27.050781 30.914062 27.058594 30.609375 C 27.476562 29.234375 29.277344 29.808594 30.484375 29.332031 C 32.6875 28.46875 33.191406 26.503906 33.339844 24.964844 C 33.40625 24.125 33.515625 23.558594 34.933594 21.867188 C 33.160156 22.628906 32.425781 23.324219 32.015625 24.21875 C 31.632812 25.058594 30.421875 26.042969 29.695312 25.21875 C 28.773438 24.167969 30.835938 22.761719 32.34375 22.386719 C 33.546875 22.085938 34.65625 20.882812 34.90625 19.722656 C 35.511719 15.691406 33.617188 13.902344 35.058594 10.9375 C 30.769531 14.289062 34.410156 16.113281 31.671875 18.871094 C 30.105469 20.4375 28.464844 19.605469 29.074219 18.265625 C 29.476562 17.402344 30.4375 17.925781 30.757812 15.929688 C 29.863281 17.222656 26.992188 16.347656 26.179688 18.449219 C 24.738281 22.105469 22.757812 18.589844 26.019531 16.835938 C 27.394531 16.09375 30.707031 16.335938 31.507812 11.0625 C 29.898438 14.183594 25.941406 13.6875 22.765625 15.035156 C 21.117188 15.730469 18.949219 17.351562 19.03125 19.355469 M 19.03125 19.355469 "/>
</g>
</svg>
