<!-- color: #353b47 -->
<svg xmlns="http://www.w3.org/2000/svg" xmlns:xlink="http://www.w3.org/1999/xlink" width="48px" height="48px" viewBox="0 0 48 48" version="1.1">
<g id="surface1">
<path style=" stroke:none;fill-rule:nonzero;fill:rgb(46.27451%,58.823529%,83.921569%);fill-opacity:1;" d="M 18.960938 15.101562 C 16.183594 17.828125 16.171875 22.28125 18.949219 25.007812 L 20.269531 23.699219 C 18.210938 21.679688 18.21875 18.429688 20.28125 16.394531 M 27.714844 16.378906 C 29.777344 18.40625 29.792969 21.679688 27.726562 23.710938 L 29.046875 25.011719 C 31.824219 22.28125 31.8125 17.8125 29.039062 15.078125 M 27.714844 16.378906 "/>
<path style=" stroke:none;fill-rule:nonzero;fill:rgb(46.27451%,58.823529%,83.921569%);fill-opacity:1;" d="M 14.8125 11.019531 C 9.742188 15.972656 9.726562 24.03125 14.789062 28.976562 L 17.199219 26.621094 C 13.441406 22.945312 13.457031 17.054688 17.21875 13.375 M 30.777344 13.355469 C 34.535156 17.027344 34.566406 22.964844 30.800781 26.644531 L 33.210938 29 C 38.277344 24.046875 38.253906 15.949219 33.1875 11 L 30.777344 13.359375 M 30.777344 13.355469 "/>
<path style=" stroke:none;fill-rule:nonzero;fill:rgb(91.764706%,91.764706%,91.764706%);fill-opacity:1;" d="M 23.96875 20 C 23.421875 20.007812 22.988281 20.445312 23 20.976562 L 23.015625 36.988281 C 23.015625 37.519531 23.457031 37.949219 24.007812 37.949219 C 24.554688 37.949219 24.996094 37.519531 24.996094 36.988281 L 24.980469 20.976562 C 24.984375 20.714844 24.878906 20.464844 24.691406 20.28125 C 24.5 20.09375 24.238281 19.992188 23.96875 20 M 23.96875 20 "/>
</g>
</svg>
