<!-- color: #2f95ee -->
<svg xmlns="http://www.w3.org/2000/svg" xmlns:xlink="http://www.w3.org/1999/xlink" width="48px" height="48px" viewBox="0 0 48 48" version="1.1">
<g id="surface1">
<path style="fill:none;stroke-width:2.235;stroke-linecap:butt;stroke-linejoin:miter;stroke:rgb(89.803922%,92.54902%,95.686275%);stroke-opacity:1;stroke-miterlimit:4;" d="M -24.000362 24.000002 C -24.000362 25.101413 -25.123255 25.999726 -26.500019 25.999726 C -27.876783 25.999726 -28.999675 25.101413 -28.999675 24.000002 C -28.999675 22.898591 -27.876783 22.000278 -26.500019 22.000278 C -25.123255 22.000278 -24.000362 22.898591 -24.000362 24.000002 M -24.000362 24.000002 " transform="matrix(0.400055,0,0,0.500069,24.101465,18.498343)"/>
<path style=" stroke:none;fill-rule:nonzero;fill:rgb(100%,100%,100%);fill-opacity:1;" d="M 9.386719 31.867188 C 7.703125 31.472656 7.554688 30.386719 8.941406 28.601562 C 9.570312 27.785156 12.789062 25.339844 13.222656 25.339844 C 13.316406 25.339844 12.9375 25.925781 12.382812 26.636719 C 11.179688 28.1875 11.140625 28.582031 12.109375 29.203125 C 12.699219 29.582031 13.25 29.644531 14.925781 29.496094 C 20.402344 29.03125 28.875 25.683594 33.8125 22.042969 L 35.210938 21.015625 L 34.054688 22.207031 C 30.960938 25.390625 22.921875 29.328125 15.851562 31.089844 C 12.347656 31.96875 10.675781 32.167969 9.386719 31.863281 M 18.164062 31.328125 C 18.480469 31.183594 20.820312 30.414062 23.363281 29.613281 C 30.308594 27.429688 34.832031 25.128906 37.039062 22.660156 C 38.289062 21.261719 38.246094 20.410156 36.894531 19.710938 C 36.546875 19.53125 35.898438 19.382812 35.445312 19.378906 C 34.703125 19.371094 34.683594 19.34375 35.191406 19.050781 C 35.5 18.875 36.886719 18.722656 38.269531 18.707031 C 41.164062 18.671875 42 19.105469 42 20.621094 C 42 23.296875 32.878906 28.15625 23.609375 30.421875 C 19.980469 31.308594 17.140625 31.785156 18.160156 31.332031 M 14.929688 25.992188 C 14.089844 25.835938 13.855469 24.679688 14.246094 22.59375 C 14.890625 19.152344 16.863281 16.574219 20.085938 14.957031 C 22.265625 13.863281 25.5625 13.6875 28.363281 14.523438 C 30.671875 15.210938 32.851562 16.914062 34.097656 19.003906 L 34.847656 20.261719 L 34.1875 20.949219 C 33.3125 21.859375 28.886719 23.957031 25.914062 24.867188 C 22.449219 25.929688 17.351562 26.445312 14.929688 25.984375 M 14.929688 25.988281 "/>
</g>
</svg>
