<!-- color: #eeeeee -->
<svg xmlns="http://www.w3.org/2000/svg" xmlns:xlink="http://www.w3.org/1999/xlink" width="48px" height="48px" viewBox="0 0 48 48" version="1.1">
<g id="surface1">
<path style=" stroke:none;fill-rule:nonzero;fill:rgb(46.666667%,46.666667%,46.666667%);fill-opacity:1;" d="M 11 18 L 11 30 L 27 30 L 27 28 L 13 28 L 13 20 L 27 20 L 27 18 M 31 18 L 31 20 L 35 20 L 35 28 L 31 28 L 31 30 L 37 30 L 37 18 M 31 18 "/>
<path style=" stroke:none;fill-rule:nonzero;fill:rgb(15.686275%,15.686275%,15.686275%);fill-opacity:1;" d="M 14 22 L 23 22 L 23 26 L 14 26 M 14 22 "/>
<path style=" stroke:none;fill-rule:nonzero;fill:rgb(100%,61.176471%,21.176471%);fill-opacity:1;" d="M 28 34 L 28 14.003906 L 29.996094 14.003906 L 29.996094 34 M 28 34 "/>
<path style=" stroke:none;fill-rule:nonzero;fill:rgb(100%,61.176471%,21.176471%);fill-opacity:1;" d="M 25.019531 14 L 33.019531 14 L 33.019531 15.996094 L 25.019531 15.996094 M 25.019531 14 "/>
<path style=" stroke:none;fill-rule:nonzero;fill:rgb(100%,61.176471%,21.176471%);fill-opacity:1;" d="M 25.019531 31.996094 L 33.019531 31.996094 L 33.019531 33.996094 L 25.019531 33.996094 M 25.019531 31.996094 "/>
</g>
</svg>
