<!-- color: #3297ee -->
<svg xmlns="http://www.w3.org/2000/svg" xmlns:xlink="http://www.w3.org/1999/xlink" width="48px" height="48px" viewBox="0 0 48 48" version="1.1">
<g id="surface1">
<path style=" stroke:none;fill-rule:nonzero;fill:rgb(89.803922%,92.54902%,95.686275%);fill-opacity:1;" d="M 32.84375 31 L 36 33 L 14 33 C 13.382812 33 13 32.582031 13 32 C 13 31.476562 13.441406 31 14 31 M 32.84375 31 "/>
<path style="fill:none;stroke-width:2.235;stroke-linecap:butt;stroke-linejoin:miter;stroke:rgb(89.803922%,92.54902%,95.686275%);stroke-opacity:1;stroke-miterlimit:4;" d="M -24.000362 24.000002 C -24.000362 25.101413 -25.123255 25.999726 -26.500019 25.999726 C -27.876783 25.999726 -28.999675 25.101413 -28.999675 24.000002 C -28.999675 22.898591 -27.876783 22.000278 -26.500019 22.000278 C -25.123255 22.000278 -24.000362 22.898591 -24.000362 24.000002 M -24.000362 24.000002 " transform="matrix(0.400055,0,0,0.500069,24.101465,18.498343)"/>
<path style=" stroke:none;fill-rule:nonzero;fill:rgb(89.803922%,92.54902%,95.686275%);fill-opacity:1;" d="M 16 28 L 32 28 L 32 29 L 16 29 M 16 28 "/>
<path style=" stroke:none;fill-rule:nonzero;fill:rgb(89.803922%,92.54902%,95.686275%);fill-opacity:1;" d="M 12 30 L 29 15.003906 C 28 15.003906 27.203125 15.003906 26.496094 15.503906 L 12.496094 27.503906 C 11.996094 28.003906 11.996094 29.003906 11.996094 30.003906 M 11.996094 30 "/>
<path style=" stroke:none;fill-rule:nonzero;fill:rgb(89.803922%,92.54902%,95.686275%);fill-opacity:1;" d="M 12 29.5 L 13 29.5 L 13 30.5 L 12 30.5 M 12 29.5 "/>
</g>
</svg>
