<!-- color: #f2f2b3 -->
<svg xmlns="http://www.w3.org/2000/svg" xmlns:xlink="http://www.w3.org/1999/xlink" width="48px" height="48px" viewBox="0 0 48 48" version="1.1">
<g id="surface1">
<path style=" stroke:none;fill-rule:nonzero;fill:rgb(17.647059%,17.647059%,17.647059%);fill-opacity:0.835294;" d="M 24 12 C 17.371094 12 12 17.371094 12 24 L 19 24 C 19 21.238281 21.238281 19 24 19 L 34 19 C 35.109375 19 36 18.109375 36 17 L 36 14 C 36 12.890625 35.109375 12 34 12 M 29 24 C 29 26.761719 26.761719 29 24 29 L 14 29 C 12.890625 29 12 29.890625 12 31 L 12 34 C 12 35.109375 12.890625 36 14 36 L 24 36 C 30.628906 36 36 30.628906 36 24 M 29 24 "/>
</g>
</svg>
