<!-- color: #7b7b7b -->
<svg xmlns="http://www.w3.org/2000/svg" xmlns:xlink="http://www.w3.org/1999/xlink" width="48px" height="48px" viewBox="0 0 48 48" version="1.1">
<g id="surface1">
<path style=" stroke:none;fill-rule:evenodd;fill:rgb(98.823529%,75.686275%,20.392157%);fill-opacity:1;" d="M 24 9 C 15.691406 9 9 15.691406 9 24 C 9 32.308594 15.691406 39 24 39 C 27.382812 39 30.496094 37.875 33 36 C 32.496094 35.929688 32.03125 35.6875 31.6875 35.3125 L 23.03125 26.65625 C 21.050781 27.429688 18.722656 27.035156 17.125 25.4375 C 15.527344 23.839844 15.101562 21.480469 15.875 19.5 L 19.1875 22.8125 C 20.050781 23.675781 21.449219 23.675781 22.3125 22.8125 C 23.175781 21.949219 23.175781 20.550781 22.3125 19.6875 L 19 16.375 C 19.617188 16.132812 20.28125 16.007812 20.9375 16 C 22.378906 15.976562 23.839844 16.492188 24.9375 17.59375 C 26.535156 19.191406 26.929688 21.550781 26.15625 23.53125 L 34.8125 32.1875 C 35.21875 32.570312 35.464844 33.097656 35.5 33.65625 C 37.6875 31.050781 39 27.683594 39 24 C 39 15.691406 32.308594 9 24 9 M 33.21875 32.96875 C 32.804688 32.96875 32.46875 33.304688 32.46875 33.71875 C 32.46875 34.132812 32.804688 34.46875 33.21875 34.46875 C 33.632812 34.46875 33.96875 34.132812 33.96875 33.71875 C 33.96875 33.304688 33.632812 32.96875 33.21875 32.96875 M 33.21875 32.96875 "/>
</g>
</svg>
