<!-- color: #eaebe1 -->
<svg xmlns="http://www.w3.org/2000/svg" xmlns:xlink="http://www.w3.org/1999/xlink" width="48px" height="48px" viewBox="0 0 48 48" version="1.1">
<defs>
<linearGradient id="linear0" gradientUnits="userSpaceOnUse" x1="0" y1="34" x2="0" y2="19" gradientTransform="matrix(1,0,0,1.090909,0.00000295276,-3.090906)">
<stop offset="0" style="stop-color:rgb(0%,0%,0%);stop-opacity:0.0588235;"/>
<stop offset="1" style="stop-color:rgb(0%,0%,0%);stop-opacity:0;"/>
</linearGradient>
</defs>
<g id="surface1">
<path style=" stroke:none;fill-rule:nonzero;fill:rgb(63.137255%,48.627451%,35.686275%);fill-opacity:1;" d="M 9 15 L 39 15 L 39 24.996094 L 9 24.996094 M 9 15 "/>
<path style=" stroke:none;fill-rule:nonzero;fill:rgb(91.764706%,92.156863%,87.45098%);fill-opacity:1;" d="M 33 20 C 33 24.96875 28.96875 29 24 29 C 19.03125 29 15 24.96875 15 20 C 15 15.03125 19.03125 11 24 11 C 28.96875 11 33 15.03125 33 20 M 33 20 "/>
<path style=" stroke:none;fill-rule:nonzero;fill:rgb(86.666667%,27.45098%,7.058824%);fill-opacity:1;" d="M 24 10 C 18.476562 10 14 14.476562 14 20 C 14 25.523438 18.480469 29.996094 24 29.996094 C 29.523438 29.996094 34 25.519531 34 20 C 34 14.472656 29.519531 10 24 10 M 27.304688 12.785156 C 27.5625 12.765625 27.824219 12.800781 28.0625 12.941406 C 28.699219 13.308594 28.925781 14.152344 28.558594 14.789062 C 28.1875 15.425781 27.375 15.625 26.734375 15.257812 C 26.097656 14.890625 25.871094 14.074219 26.238281 13.4375 C 26.46875 13.035156 26.882812 12.816406 27.304688 12.785156 M 24 14.191406 C 24.539062 14.191406 25.070312 14.261719 25.5625 14.398438 C 25.652344 14.933594 25.96875 15.433594 26.472656 15.730469 C 26.980469 16.023438 27.554688 16.050781 28.0625 15.859375 C 29.050781 16.832031 29.6875 18.167969 29.78125 19.636719 L 27.875 19.660156 C 27.703125 17.671875 26.035156 16.082031 23.996094 16.082031 C 23.410156 16.082031 22.855469 16.214844 22.355469 16.449219 L 21.417969 14.78125 C 22.191406 14.398438 23.070312 14.183594 23.996094 14.183594 M 20.773438 15.179688 L 21.761719 16.796875 C 20.761719 17.5 20.09375 18.679688 20.09375 20 C 20.09375 21.316406 20.757812 22.496094 21.761719 23.203125 L 20.773438 24.816406 C 19.601562 24.039062 18.738281 22.855469 18.378906 21.457031 C 18.796875 21.113281 19.078125 20.585938 19.078125 20 C 19.078125 19.410156 18.796875 18.882812 18.378906 18.539062 C 18.738281 17.140625 19.601562 15.960938 20.773438 15.179688 M 17.195312 18.667969 C 17.929688 18.667969 18.523438 19.261719 18.523438 20 C 18.523438 20.734375 17.929688 21.328125 17.195312 21.328125 C 16.457031 21.328125 15.863281 20.734375 15.863281 20 C 15.863281 19.261719 16.457031 18.667969 17.195312 18.667969 M 27.859375 20.335938 L 29.761719 20.359375 C 29.667969 21.832031 29.03125 23.167969 28.042969 24.136719 C 27.535156 23.945312 26.960938 23.972656 26.457031 24.269531 C 25.949219 24.5625 25.628906 25.058594 25.546875 25.597656 C 25.054688 25.734375 24.519531 25.804688 23.984375 25.804688 C 23.058594 25.804688 22.179688 25.589844 21.402344 25.199219 L 22.34375 23.535156 C 22.839844 23.769531 23.394531 23.898438 23.984375 23.898438 C 26.019531 23.898438 27.6875 22.320312 27.863281 20.320312 M 27.207031 24.550781 C 27.722656 24.484375 28.257812 24.75 28.535156 25.226562 C 28.90625 25.867188 28.679688 26.679688 28.039062 27.050781 C 27.402344 27.417969 26.585938 27.195312 26.21875 26.554688 C 25.851562 25.910156 26.074219 25.101562 26.714844 24.730469 C 26.875 24.640625 27.035156 24.574219 27.210938 24.550781 M 27.207031 24.550781 "/>
<path style=" stroke:none;fill-rule:nonzero;fill:rgb(76.078431%,60.392157%,41.568627%);fill-opacity:1;" d="M 9 15 L 12 18 L 11.335938 21 L 9 22 M 9 15 "/>
<path style=" stroke:none;fill-rule:nonzero;fill:rgb(81.960784%,69.019608%,57.254902%);fill-opacity:1;" d="M 8 23 L 12 23 L 12 22.285156 C 12 21.09375 12 15.792969 12 17.996094 L 8 21.996094 M 8 22.996094 "/>
<path style=" stroke:none;fill-rule:nonzero;fill:rgb(76.078431%,60.392157%,41.568627%);fill-opacity:1;" d="M 39.011719 15 L 36.011719 18 L 36.675781 21 L 39.011719 22 M 39.011719 15 "/>
<path style=" stroke:none;fill-rule:nonzero;fill:rgb(81.960784%,69.019608%,57.254902%);fill-opacity:1;" d="M 40 23 L 36 23 L 36 22.285156 C 36 21.09375 36 15.792969 36 17.996094 L 40 21.925781 M 40 23 "/>
<path style=" stroke:none;fill-rule:nonzero;fill:rgb(76.078431%,60.392157%,41.568627%);fill-opacity:1;" d="M 8 34 L 8 48 L 40 48 L 40 34 M 8 34 "/>
<path style=" stroke:none;fill-rule:nonzero;fill:rgb(76.078431%,60.392157%,41.568627%);fill-opacity:1;" d="M 8 22 L 8 46 L 40 46 L 40 22 M 8 22 "/>
<path style=" stroke:none;fill-rule:nonzero;fill:rgb(0%,0%,0%);fill-opacity:0.25098;" d="M 16.886719 28.382812 C 16.886719 29.210938 16.214844 29.882812 15.386719 29.882812 C 14.558594 29.882812 13.886719 29.210938 13.886719 28.382812 C 13.886719 27.554688 14.558594 26.882812 15.386719 26.882812 C 16.214844 26.882812 16.886719 27.554688 16.886719 28.382812 M 16.886719 28.382812 "/>
<path style=" stroke:none;fill-rule:nonzero;fill:rgb(0%,0%,0%);fill-opacity:0.25098;" d="M 35.050781 28.488281 C 35.050781 29.316406 34.378906 29.988281 33.550781 29.988281 C 32.722656 29.988281 32.050781 29.316406 32.050781 28.488281 C 32.050781 27.660156 32.722656 26.988281 33.550781 26.988281 C 34.378906 26.988281 35.050781 27.660156 35.050781 28.488281 M 35.050781 28.488281 "/>
<path style=" stroke:none;fill-rule:nonzero;fill:rgb(100%,100%,100%);fill-opacity:1;" d="M 15 29 C 18 45 31 45 33.996094 29 C 34.207031 27.65625 33.285156 27.628906 33 29 C 31 43.578125 18 43.5 16 29 C 15.816406 27.683594 14.820312 27.738281 15.003906 29 M 15.003906 29 "/>
<path style=" stroke:none;fill-rule:nonzero;fill:url(#linear0);" d="M 8 22 L 8 34 L 39.996094 34 L 39.996094 22 M 8 22 "/>
</g>
</svg>
