<!-- color: #eeeeee -->
<svg xmlns="http://www.w3.org/2000/svg" xmlns:xlink="http://www.w3.org/1999/xlink" width="48px" height="48px" viewBox="0 0 48 48" version="1.1">
<g id="surface1">
<path style=" stroke:none;fill-rule:nonzero;fill:rgb(4.313725%,63.921569%,92.941176%);fill-opacity:1;" d="M 21.140625 36.816406 C 14.9375 35.835938 12 33.289062 12 32.496094 L 12 28.253906 L 12.683594 29.394531 C 14.828125 32.953125 24.085938 34.671875 30.136719 32.628906 C 33.101562 31.632812 34.855469 30.269531 34.855469 28.96875 C 33.144531 25.015625 26.746094 25.308594 24.835938 24.164062 L 24.972656 21.128906 C 25.007812 20.351562 30.273438 21.925781 32.191406 22.917969 C 35.015625 24.375 35.730469 25.414062 35.917969 28.289062 C 36.125 31.542969 35.308594 33.460938 33.199219 34.699219 C 30.144531 36.496094 24.910156 37.410156 21.148438 36.8125 M 18 28.988281 C 13.527344 27.554688 12.007812 25.71875 12.007812 21.757812 C 12.007812 18.773438 12.960938 17.261719 15.761719 15.824219 C 19.34375 13.988281 23.84375 13.554688 28.628906 14.578125 C 33.5 15.625 36.015625 16.976562 35.957031 18.167969 C 35.941406 19.105469 36.070312 22.699219 35.957031 22.40625 C 34.003906 17.414062 21.289062 15.746094 15.003906 19.640625 C 11.417969 21.859375 13.46875 24.742188 19.414062 25.847656 C 20.597656 26.066406 22.996094 26.316406 23.46875 26.40625 L 23.46875 29.554688 C 22.496094 29.539062 18.929688 29.285156 18.003906 28.988281 M 18 28.988281 "/>
<path style=" stroke:none;fill-rule:nonzero;fill:rgb(0%,0%,0%);fill-opacity:1;" d="M 21.140625 33.78125 C 14.9375 32.796875 12 30.25 12 29.457031 L 12 25.214844 L 12.683594 26.355469 C 14.828125 29.917969 24.085938 31.636719 30.136719 29.59375 C 33.101562 28.59375 34.855469 27.234375 34.855469 25.933594 C 33.144531 21.980469 26.878906 22.269531 24.96875 21.128906 L 24.96875 18.308594 C 24.96875 17.53125 30.269531 18.890625 32.1875 19.878906 C 35.011719 21.335938 35.726562 22.375 35.914062 25.253906 C 36.121094 28.507812 35.304688 30.425781 33.195312 31.664062 C 30.140625 33.457031 24.90625 34.375 21.144531 33.777344 M 17.996094 25.953125 C 13.523438 24.515625 12.003906 22.683594 12.003906 18.722656 C 12.003906 15.734375 12.957031 14.222656 15.757812 12.785156 C 19.339844 10.949219 23.839844 10.515625 28.625 11.542969 C 33.496094 12.585938 36.011719 13.941406 35.953125 15.128906 C 35.9375 16.070312 36.066406 19.660156 35.953125 19.371094 C 34 14.375 21.285156 12.710938 15 16.601562 C 11.414062 18.820312 13.464844 21.703125 19.410156 22.808594 C 20.59375 23.027344 22.992188 23.28125 23.464844 23.367188 L 23.464844 26.515625 C 22.492188 26.503906 18.925781 26.246094 18 25.949219 M 17.996094 25.953125 "/>
</g>
</svg>
