<!-- color: #4d4d4d -->
<svg xmlns="http://www.w3.org/2000/svg" xmlns:xlink="http://www.w3.org/1999/xlink" width="48px" height="48px" viewBox="0 0 48 48" version="1.1">
<g id="surface1">
<path style=" stroke:none;fill-rule:nonzero;fill:rgb(9.019608%,75.294118%,90.588235%);fill-opacity:1;" d="M 21.632812 36.9375 C 20.410156 36.703125 18.765625 35.398438 17.769531 33.878906 C 17.226562 33.050781 16.578125 31.652344 16.371094 30.867188 C 16.035156 29.597656 15.890625 26.1875 16.09375 24.074219 C 16.382812 20.992188 17.507812 17.613281 19.023438 15.257812 C 19.613281 14.339844 20.296875 13.484375 20.4375 13.484375 C 20.652344 13.484375 20.601562 13.808594 20.296875 14.347656 C 20.117188 14.664062 19.964844 14.949219 19.964844 14.976562 C 19.964844 15.003906 20.273438 14.644531 20.652344 14.183594 C 21.394531 13.265625 22.007812 12.6875 22.902344 12.054688 C 24.664062 10.8125 26.777344 10.660156 28.304688 11.664062 C 29.890625 12.714844 31.210938 15.039062 31.75 17.757812 C 31.976562 18.898438 31.996094 19.160156 32 21.519531 C 32.007812 24.320312 31.90625 25.128906 31.296875 27.257812 C 29.972656 31.886719 26.859375 36.003906 24.035156 36.859375 C 23.558594 37.007812 22.195312 37.050781 21.632812 36.9375 M 23.238281 35.203125 C 23.265625 35.15625 23.046875 35.027344 22.75 34.914062 C 21.476562 34.4375 20.609375 33.601562 19.929688 32.210938 C 19.539062 31.402344 19.085938 29.769531 19.15625 29.398438 C 19.230469 29.003906 19.429688 29.203125 19.824219 30.078125 C 21.097656 32.859375 22.804688 34.050781 24.410156 33.269531 C 25.347656 32.816406 26.640625 31.371094 27.742188 29.566406 C 28.882812 27.714844 29.8125 24.480469 29.992188 21.835938 C 30.058594 20.808594 29.96875 18.960938 29.847656 19.09375 C 29.808594 19.140625 29.726562 19.5625 29.667969 20.035156 C 29.4375 21.835938 28.800781 23.8125 28.453125 23.8125 C 28.238281 23.8125 28.238281 23.792969 28.453125 22.617188 C 29.152344 18.8125 28.828125 15.730469 27.589844 14.414062 C 27.011719 13.804688 26.410156 13.546875 25.554688 13.535156 C 24.867188 13.53125 24.769531 13.558594 24.121094 13.910156 C 23.253906 14.390625 22.144531 15.515625 21.433594 16.640625 C 20.171875 18.628906 18.925781 21.8125 18.332031 24.546875 C 18.113281 25.566406 18.089844 25.867188 18.089844 27.589844 C 18.089844 29.34375 18.109375 29.578125 18.324219 30.414062 C 18.609375 31.503906 18.980469 32.382812 19.5625 33.332031 C 20.019531 34.082031 20.460938 34.476562 21.296875 34.871094 C 22.027344 35.21875 23.121094 35.410156 23.238281 35.210938 M 23.238281 35.203125 "/>
</g>
</svg>
