<!-- color: #eeeeee -->
<svg xmlns="http://www.w3.org/2000/svg" xmlns:xlink="http://www.w3.org/1999/xlink" width="48px" height="48px" viewBox="0 0 48 48" version="1.1">
<g id="surface1">
<path style=" stroke:none;fill-rule:nonzero;fill:rgb(17.647059%,17.647059%,17.647059%);fill-opacity:1;" d="M 33.078125 20.9375 C 33.078125 25.871094 29.078125 29.871094 24.144531 29.871094 C 19.207031 29.871094 15.207031 25.871094 15.207031 20.9375 C 15.207031 16 19.207031 12 24.144531 12 C 28.941406 12 32.878906 15.785156 33.074219 20.578125 "/>
<path style=" stroke:none;fill-rule:nonzero;fill:rgb(17.647059%,17.647059%,17.647059%);fill-opacity:1;" d="M 17.589844 26.804688 L 17.730469 26.761719 C 19.34375 26.242188 21.074219 27.132812 21.589844 28.746094 L 22.617188 31.945312 C 23.132812 33.558594 22.246094 35.289062 20.628906 35.804688 L 20.488281 35.851562 C 18.875 36.367188 17.148438 35.480469 16.628906 33.867188 L 15.605469 30.664062 C 15.085938 29.050781 15.976562 27.324219 17.589844 26.804688 M 17.589844 26.804688 "/>
<path style=" stroke:none;fill-rule:nonzero;fill:rgb(17.647059%,17.647059%,17.647059%);fill-opacity:1;" d="M 30.441406 26.804688 L 30.300781 26.761719 C 28.6875 26.242188 26.960938 27.132812 26.441406 28.746094 L 25.417969 31.945312 C 24.898438 33.558594 25.789062 35.289062 27.402344 35.804688 L 27.542969 35.851562 C 29.15625 36.367188 30.886719 35.480469 31.402344 33.863281 L 32.429688 30.664062 C 32.945312 29.050781 32.058594 27.324219 30.441406 26.804688 M 30.441406 26.804688 "/>
<path style=" stroke:none;fill-rule:nonzero;fill:rgb(17.647059%,17.647059%,17.647059%);fill-opacity:1;" d="M 10.910156 26.191406 L 10.960938 26.050781 C 11.53125 24.449219 13.289062 23.617188 14.882812 24.195312 L 18.046875 25.328125 C 19.644531 25.898438 20.472656 27.65625 19.902344 29.253906 L 19.851562 29.390625 C 19.28125 30.988281 17.523438 31.816406 15.929688 31.246094 L 12.765625 30.113281 C 11.171875 29.542969 10.339844 27.789062 10.910156 26.191406 M 10.910156 26.191406 "/>
<path style=" stroke:none;fill-rule:nonzero;fill:rgb(17.647059%,17.647059%,17.647059%);fill-opacity:1;" d="M 37.089844 26.191406 L 37.039062 26.054688 C 36.46875 24.449219 34.710938 23.617188 33.117188 24.195312 L 29.953125 25.328125 C 28.355469 25.898438 27.527344 27.65625 28.097656 29.253906 L 28.148438 29.390625 C 28.71875 30.988281 30.476562 31.816406 32.070312 31.246094 L 35.234375 30.117188 C 36.828125 29.542969 37.660156 27.789062 37.089844 26.191406 M 37.089844 26.191406 "/>
<path style=" stroke:none;fill-rule:nonzero;fill:rgb(97.647059%,97.647059%,97.647059%);fill-opacity:1;" d="M 24.140625 13.882812 C 20.242188 13.882812 17.089844 17.039062 17.089844 20.933594 C 17.089844 24.828125 20.246094 27.984375 24.140625 27.984375 C 28.035156 27.984375 31.191406 24.828125 31.191406 20.933594 L 31.1875 20.648438 C 31.035156 16.867188 27.925781 13.878906 24.136719 13.878906 M 24.136719 14.777344 C 27.4375 14.777344 30.15625 17.382812 30.285156 20.683594 L 30.289062 20.933594 C 30.289062 24.328125 27.535156 27.085938 24.132812 27.085938 C 20.734375 27.085938 17.980469 24.324219 17.980469 20.933594 C 17.980469 17.53125 20.734375 14.777344 24.132812 14.777344 M 24.136719 14.777344 "/>
<path style=" stroke:none;fill-rule:nonzero;fill:rgb(97.647059%,97.647059%,97.647059%);fill-opacity:1;" d="M 18.351562 29.414062 L 18.589844 29.335938 C 19.199219 29.140625 19.851562 29.476562 20.046875 30.089844 L 20.8125 32.46875 C 21.007812 33.078125 20.671875 33.730469 20.058594 33.925781 L 19.820312 34.003906 C 19.210938 34.199219 18.558594 33.863281 18.363281 33.253906 L 17.597656 30.875 C 17.402344 30.261719 17.738281 29.609375 18.351562 29.414062 M 18.351562 29.414062 "/>
<path style=" stroke:none;fill-rule:nonzero;fill:rgb(97.647059%,97.647059%,97.647059%);fill-opacity:1;" d="M 29.644531 29.414062 L 29.40625 29.335938 C 28.796875 29.140625 28.140625 29.476562 27.945312 30.089844 L 27.183594 32.46875 C 26.988281 33.078125 27.324219 33.730469 27.933594 33.925781 L 28.171875 34.003906 C 28.785156 34.199219 29.4375 33.863281 29.632812 33.253906 L 30.394531 30.875 C 30.59375 30.261719 30.253906 29.609375 29.644531 29.414062 M 29.644531 29.414062 "/>
<path style=" stroke:none;fill-rule:nonzero;fill:rgb(97.647059%,97.647059%,97.647059%);fill-opacity:1;" d="M 12.855469 26.96875 C 13.039062 26.296875 13.734375 25.902344 14.402344 26.085938 L 16.617188 26.699219 C 17.289062 26.882812 17.679688 27.578125 17.496094 28.246094 C 17.3125 28.917969 16.617188 29.3125 15.949219 29.125 L 13.734375 28.515625 C 13.0625 28.332031 12.667969 27.636719 12.855469 26.96875 M 12.855469 26.96875 "/>
<path style=" stroke:none;fill-rule:nonzero;fill:rgb(97.647059%,97.647059%,97.647059%);fill-opacity:1;" d="M 35.210938 26.964844 C 35.027344 26.296875 34.332031 25.902344 33.664062 26.085938 L 31.449219 26.699219 C 30.777344 26.882812 30.382812 27.578125 30.570312 28.246094 C 30.753906 28.917969 31.449219 29.308594 32.117188 29.125 L 34.332031 28.515625 C 35.003906 28.332031 35.394531 27.636719 35.210938 26.964844 M 35.210938 26.964844 "/>
<path style=" stroke:none;fill-rule:nonzero;fill:rgb(97.647059%,97.647059%,97.647059%);fill-opacity:1;" d="M 24.019531 18.617188 L 24.136719 18.617188 C 24.761719 18.621094 25.269531 19.128906 25.265625 19.753906 L 25.253906 22.355469 C 25.25 22.980469 24.742188 23.488281 24.117188 23.484375 L 24 23.484375 C 23.375 23.480469 22.871094 22.972656 22.871094 22.347656 L 22.882812 19.742188 C 22.886719 19.117188 23.394531 18.613281 24.019531 18.617188 M 24.019531 18.617188 "/>
<path style=" stroke:none;fill-rule:nonzero;fill:rgb(97.647059%,97.647059%,97.647059%);fill-opacity:1;" d="M 21.550781 24.101562 C 21.53125 24.101562 21.511719 24.101562 21.492188 24.101562 C 21.210938 24.113281 20.9375 24.226562 20.722656 24.4375 L 20.144531 25.007812 C 20.730469 25.585938 21.445312 26.027344 22.238281 26.316406 L 22.410156 26.148438 C 22.867188 25.695312 22.871094 24.960938 22.421875 24.503906 L 22.363281 24.441406 C 22.140625 24.214844 21.84375 24.097656 21.550781 24.09375 M 19.554688 25.582031 L 19.429688 25.703125 C 20.011719 26.277344 20.699219 26.746094 21.457031 27.078125 L 21.585938 26.949219 C 20.824219 26.625 20.136719 26.15625 19.554688 25.582031 M 18.753906 26.414062 C 18.476562 26.859375 18.53125 27.449219 18.914062 27.839844 L 18.972656 27.898438 C 19.421875 28.355469 20.15625 28.359375 20.613281 27.910156 L 20.714844 27.8125 C 19.988281 27.449219 19.328125 26.976562 18.753906 26.417969 M 18.753906 26.417969 "/>
<path style=" stroke:none;fill-rule:nonzero;fill:rgb(97.647059%,97.647059%,97.647059%);fill-opacity:1;" d="M 26.507812 24.101562 C 26.210938 24.105469 25.914062 24.21875 25.691406 24.449219 L 25.632812 24.503906 C 25.183594 24.964844 25.1875 25.695312 25.648438 26.148438 L 25.878906 26.375 C 26.6875 26.117188 27.417969 25.683594 28.023438 25.121094 L 27.332031 24.4375 C 27.101562 24.210938 26.804688 24.101562 26.507812 24.101562 M 28.617188 25.703125 C 28.019531 26.265625 27.3125 26.71875 26.535156 27.023438 L 26.667969 27.152344 C 27.441406 26.839844 28.140625 26.386719 28.738281 25.824219 M 29.375 26.570312 C 28.800781 27.105469 28.140625 27.554688 27.417969 27.894531 L 27.441406 27.917969 C 27.898438 28.371094 28.632812 28.363281 29.085938 27.90625 L 29.140625 27.847656 C 29.484375 27.492188 29.5625 26.992188 29.375 26.570312 M 29.375 26.570312 "/>
</g>
</svg>
