<!-- color: #eeeeee -->
<svg xmlns="http://www.w3.org/2000/svg" xmlns:xlink="http://www.w3.org/1999/xlink" width="48px" height="48px" viewBox="0 0 48 48" version="1.1">
<g id="surface1">
<path style=" stroke:none;fill-rule:nonzero;fill:rgb(97.647059%,97.647059%,97.647059%);fill-opacity:1;" d="M 22.171875 16.472656 C 22.152344 19.257812 19.847656 21.503906 16.992188 21.503906 C 14.144531 21.496094 11.847656 19.242188 11.847656 16.453125 C 11.847656 13.671875 14.152344 11.414062 16.992188 11.414062 C 19.847656 11.40625 22.152344 13.65625 22.171875 16.433594 "/>
<path style=" stroke:none;fill-rule:nonzero;fill:rgb(97.647059%,97.647059%,97.647059%);fill-opacity:1;" d="M 35.109375 17.039062 C 35.097656 20.136719 32.570312 22.636719 29.464844 22.632812 C 26.355469 22.625 23.839844 20.113281 23.839844 17.019531 C 23.839844 13.921875 26.355469 11.410156 29.464844 11.40625 C 32.570312 11.398438 35.097656 13.898438 35.109375 16.996094 "/>
<path style=" stroke:none;fill-rule:nonzero;fill:rgb(17.647059%,17.647059%,17.647059%);fill-opacity:1;" d="M 24.011719 11 C 22.320312 11 20.714844 11.328125 19.238281 11.914062 C 18.464844 11.46875 17.570312 11.199219 16.617188 11.199219 C 13.707031 11.199219 11.332031 13.574219 11.332031 16.488281 C 11.332031 17.410156 11.574219 18.273438 11.992188 19.027344 C 11.351562 20.566406 11 22.242188 11 24.007812 C 11 31.179688 16.835938 36.996094 24.007812 36.996094 C 31.179688 36.996094 36.996094 31.179688 36.996094 24.007812 C 36.996094 21.867188 36.4375 19.867188 35.523438 18.089844 C 35.5625 17.804688 35.597656 17.519531 35.597656 17.222656 C 35.597656 13.824219 32.824219 11.046875 29.421875 11.046875 C 28.679688 11.046875 27.976562 11.210938 27.316406 11.457031 C 27.308594 11.453125 27.296875 11.460938 27.289062 11.457031 C 27.261719 11.4375 27.246094 11.414062 27.210938 11.40625 C 26.191406 11.148438 25.121094 11 24.007812 11 M 29.425781 11.863281 C 32.390625 11.863281 34.789062 14.265625 34.789062 17.222656 C 34.789062 17.550781 34.765625 17.878906 34.710938 18.191406 C 34.121094 20.460938 32.082031 22.15625 29.625 22.15625 C 26.710938 22.15625 24.339844 19.785156 24.339844 16.871094 C 24.339844 15.640625 24.773438 14.53125 25.484375 13.640625 C 25.550781 13.574219 25.601562 13.5 25.660156 13.441406 C 26.632812 12.46875 27.941406 11.863281 29.429688 11.863281 M 16.617188 12.015625 C 17.40625 12.015625 18.140625 12.246094 18.78125 12.601562 C 18.808594 12.667969 18.863281 12.71875 18.933594 12.753906 C 19.269531 12.945312 19.574219 13.171875 19.847656 13.441406 C 20.054688 13.644531 20.238281 13.882812 20.40625 14.128906 C 20.84375 14.816406 21.097656 15.617188 21.097656 16.492188 C 21.097656 18.964844 19.097656 20.960938 16.621094 20.960938 C 15.539062 20.960938 14.550781 20.582031 13.777344 19.945312 C 13.683594 19.871094 13.585938 19.800781 13.496094 19.714844 C 13.488281 19.707031 13.480469 19.695312 13.476562 19.691406 C 13.46875 19.683594 13.453125 19.671875 13.449219 19.664062 C 13.199219 19.394531 12.992188 19.097656 12.816406 18.777344 C 12.796875 18.738281 12.773438 18.703125 12.738281 18.671875 C 12.71875 18.660156 12.710938 18.632812 12.6875 18.625 C 12.34375 17.988281 12.152344 17.261719 12.152344 16.488281 C 12.152344 14.015625 14.152344 12.015625 16.625 12.015625 M 16.621094 12.015625 "/>
<path style=" stroke:none;fill-rule:nonzero;fill:rgb(0.784314%,67.058824%,78.431373%);fill-opacity:1;" d="M 19 16 C 19 17.105469 18.101562 18 17 18 C 15.894531 18 15.003906 17.105469 15.003906 16 C 15.003906 14.894531 15.898438 14.003906 17 14.003906 C 18.105469 14.003906 19 14.898438 19 16 M 19 16 "/>
<path style=" stroke:none;fill-rule:nonzero;fill:rgb(0.784314%,67.058824%,78.431373%);fill-opacity:1;" d="M 33 15.5 C 33 16.878906 31.878906 18 30.496094 18 C 29.117188 18 27.996094 16.878906 27.996094 15.5 C 27.996094 14.117188 29.117188 12.996094 30.496094 12.996094 C 31.878906 12.996094 33 14.117188 33 15.5 M 33 15.5 "/>
</g>
</svg>
