<!-- color: #1b354a -->
<svg xmlns="http://www.w3.org/2000/svg" xmlns:xlink="http://www.w3.org/1999/xlink" width="48px" height="48px" viewBox="0 0 48 48" version="1.1">
<g id="surface1">
<path style=" stroke:none;fill-rule:nonzero;fill:rgb(60%,80%,100%);fill-opacity:1;" d="M 20 14 L 20 17 L 21 17 L 21 19 L 22 19 L 22 21 L 21 21 L 21 19 L 19 19 L 19 24 L 20 24 L 20 25 L 22 25 L 22 26 L 20 26 L 20 27 L 19 27 L 19 33 L 20 33 L 20 34 L 28 34 L 28 33 L 29 33 L 29 27 L 28 27 L 28 26 L 26 26 L 26 25 L 28 25 L 28 24 L 29 24 L 28.84375 19 L 27 19 L 27 21 L 26 21 L 26 19 L 27 19 L 27 17 L 28 17 L 28 14 L 25 14 L 25 18 L 23 18 L 23 14 M 23 27 L 27 27 L 27 28 L 28 28 L 28 29 L 22 29 L 22 28 L 23 28 M 22 30 L 24 30 L 24 32 L 22 32 M 26 30 L 28 30 L 28 32 L 26 32 M 26 30 "/>
</g>
</svg>
