<!-- color: #f4c211 -->
<svg xmlns="http://www.w3.org/2000/svg" xmlns:xlink="http://www.w3.org/1999/xlink" width="48px" height="48px" viewBox="0 0 48 48" version="1.1">
<g id="surface1">
<path style="fill-rule:nonzero;fill:rgb(50.588235%,12.54902%,12.54902%);fill-opacity:1;stroke-width:0.4;stroke-linecap:butt;stroke-linejoin:miter;stroke:rgb(17.647059%,17.647059%,17.647059%);stroke-opacity:1;stroke-miterlimit:4;" d="M 25 15.40625 C 23.640625 17.132812 22.722656 19.140625 22.125 21.15625 L 22.3125 19.625 C 22.738281 18.414062 19.636719 17.433594 19.34375 18.59375 C 18.875 20.28125 17.589844 22.480469 17.9375 23.65625 C 18.664062 26.167969 19.980469 25.214844 21 26 L 21.070312 26.050781 C 20.804688 28.601562 20.988281 30.816406 21 32 L 26 32 L 26 28.28125 C 28.425781 27.847656 31.175781 27.945312 32 25 C 32.1875 23.734375 32.027344 21.960938 31.46875 20.40625 C 30.375 18.761719 28.664062 19.480469 28.375 20.53125 L 28 23.6875 C 27.699219 23.648438 27.390625 23.613281 27.09375 23.625 C 27.324219 22.21875 27.871094 20.476562 28.6875 18.34375 M 25 15.40625 "/>
<path style="fill-rule:nonzero;fill:rgb(50.588235%,12.54902%,12.54902%);fill-opacity:1;stroke-width:0.4;stroke-linecap:butt;stroke-linejoin:miter;stroke:rgb(17.647059%,17.647059%,17.647059%);stroke-opacity:1;stroke-miterlimit:4;" d="M 24.269531 12 C 17.644531 12 12 17.371094 12 24 C 12 30.628906 17.371094 36 24 36 C 30.628906 36 36 30.628906 36 24 L 36 23.53125 C 35.964844 22.660156 35.949219 20.671875 35.738281 19.859375 L 38.6875 19 L 38.390625 16.296875 L 32.589844 16.816406 C 32.878906 17.640625 32.960938 22.710938 33 23.625 L 33 24 C 33 28.972656 28.96875 33 24 33 C 19.027344 33 15 28.972656 15 24 C 15 19.027344 19.027344 14.515625 24 14.515625 L 27.796875 14.273438 L 27.167969 8.660156 L 24.523438 8.742188 M 24.269531 12.007812 "/>
<path style="fill-rule:nonzero;fill:rgb(97.647059%,97.647059%,97.647059%);fill-opacity:1;stroke-width:0.1;stroke-linecap:butt;stroke-linejoin:miter;stroke:rgb(17.647059%,17.647059%,17.647059%);stroke-opacity:1;stroke-miterlimit:4;" d="M 23.191406 15 C 23.046875 16.421875 25.0625 16.519531 26 17.277344 L 27.738281 15.605469 L 26.515625 14.722656 C 24.484375 13.265625 23.195312 14.234375 23.191406 15 M 23.191406 15 "/>
<path style="fill-rule:nonzero;fill:rgb(97.647059%,97.647059%,97.647059%);fill-opacity:1;stroke-width:0.1;stroke-linecap:butt;stroke-linejoin:miter;stroke:rgb(17.647059%,17.647059%,17.647059%);stroke-opacity:1;stroke-miterlimit:4;" d="M 25.78125 15.160156 C 26.46875 14.851562 26.53125 14.257812 28 14.308594 C 28.464844 14.777344 29.835938 15.859375 29.835938 16.996094 L 28.730469 18.492188 L 26.441406 16.996094 M 25.78125 15.160156 "/>
<path style=" stroke:none;fill-rule:nonzero;fill:rgb(17.647059%,17.647059%,17.647059%);fill-opacity:1;" d="M 25.796875 15.101562 C 25.492188 15.238281 25.167969 15.515625 25 15.6875 L 25.71875 16.625 C 26.210938 16.726562 26.636719 16.824219 27 16.96875 C 26.390625 16.433594 26.050781 15.765625 25.796875 15.101562 M 25.796875 15.101562 "/>
<path style=" stroke:none;fill-rule:nonzero;fill:rgb(17.647059%,17.647059%,17.647059%);fill-opacity:1;" d="M 24 14.492188 C 24.835938 14.351562 25.390625 14.722656 26 15 L 26.300781 14.835938 C 24.8125 14.164062 24.316406 14.257812 24 14.492188 M 24 14.492188 "/>
<path style=" stroke:none;fill-rule:nonzero;fill:rgb(17.647059%,17.647059%,17.647059%);fill-opacity:1;" d="M 27.367188 14.566406 C 27.886719 14.957031 28.496094 15.214844 29.09375 15.484375 C 28.945312 15.246094 28.691406 15.023438 28.460938 14.796875 C 28.132812 14.773438 27.789062 14.71875 27.425781 14.621094 M 27.367188 14.566406 "/>
<path style="fill-rule:nonzero;fill:rgb(97.647059%,97.647059%,97.647059%);fill-opacity:1;stroke-width:0.1;stroke-linecap:butt;stroke-linejoin:miter;stroke:rgb(17.647059%,17.647059%,17.647059%);stroke-opacity:1;stroke-miterlimit:4;" d="M 24.058594 16.3125 C 25.054688 16.964844 25.589844 17.558594 26.53125 18.21875 C 27.613281 19.015625 27.824219 20.097656 28.4375 20.375 C 28.632812 19.914062 29.109375 19.5625 29.65625 19.46875 C 29.429688 19 29.035156 18.390625 28.011719 17.53125 C 27.242188 16.890625 26.070312 16.519531 24.070312 16.3125 M 24.066406 16.3125 "/>
</g>
</svg>
