<!-- color: #3f2811 -->
<svg xmlns="http://www.w3.org/2000/svg" xmlns:xlink="http://www.w3.org/1999/xlink" width="48px" height="48px" viewBox="0 0 48 48" version="1.1">
<g id="surface1">
<path style=" stroke:none;fill-rule:nonzero;fill:rgb(15.686275%,34.901961%,20.784314%);fill-opacity:1;" d="M 0 0 L 0 5.1875 L 6.78125 3.75 C 6.953125 2.4375 7.261719 1.042969 8 0 M 21 0 C 18.386719 1.378906 16.347656 4.214844 14.375 6.125 C 13.167969 7.308594 11.527344 8.726562 9.9375 9.34375 L 9.1875 13.125 C 12.664062 13.507812 13.269531 15.9375 10.6875 20.652344 L 9.84375 31.742188 C 9.179688 34.660156 4.703125 38.304688 2.21875 39.867188 C 1.105469 39.550781 0.441406 39.09375 0 38.558594 L 0 42.589844 C 0.664062 42.109375 1.304688 41.519531 2.15625 41.339844 C 4.210938 42.070312 7.078125 45.765625 8.816406 47.988281 L 30.753906 47.988281 C 30.800781 46.800781 31.03125 45.574219 31.75 44.613281 C 32.664062 43.429688 34.378906 42.175781 34.597656 40.675781 C 34.726562 39.746094 33.828125 39.101562 33.035156 38.550781 C 31.976562 37.835938 31.628906 36.226562 32.472656 35.144531 L 32.847656 32.082031 C 33.0625 28.539062 31.609375 25.917969 28.847656 24.054688 L 23.378906 11.964844 C 25.027344 10.464844 26.300781 9.816406 27.691406 9.113281 C 27.613281 6.398438 27.425781 1.84375 25.753906 -0.0117188 M 33.902344 -0.0078125 C 34.300781 1.21875 35.300781 2.746094 38.527344 4.214844 C 39.238281 4.027344 39.953125 3.910156 40.683594 3.21875 L 44.933594 8.152344 C 43.507812 8.417969 40.820312 8.183594 38.058594 7.902344 C 35.277344 11.902344 38.914062 14.71875 40.621094 17.902344 C 42.597656 18.242188 44.011719 18.820312 47.992188 18.367188 L 47.992188 -0.0078125 L 33.902344 -0.0078125 M 17.464844 39.320312 C 23.207031 39.328125 22.132812 42.023438 18.871094 45.195312 C 16.238281 45.464844 15.265625 45.34375 14.371094 45.195312 C 13.90625 43.308594 14.144531 41.550781 16.214844 39.351562 C 16.660156 39.328125 17.082031 39.320312 17.464844 39.320312 M 37.246094 39.917969 C 37.039062 39.921875 36.816406 39.9375 36.625 39.980469 C 36.292969 42.085938 37.984375 41.761719 38.21875 43.796875 C 38.375 45.429688 37.84375 46.753906 37.089844 47.984375 L 47.996094 47.984375 L 47.996094 43.984375 C 45.496094 43.617188 43.644531 42.789062 41.46875 41.425781 C 40.425781 40.769531 38.71875 39.902344 37.246094 39.925781 M 37.246094 39.917969 "/>
<path style=" stroke:none;fill-rule:nonzero;fill:rgb(69.019608%,47.058824%,27.45098%);fill-opacity:1;" d="M 0 0 L 0 3.53125 C 0.261719 2.246094 0.621094 1.339844 0.875 0.59375 C 0.9375 0.414062 1.054688 0.207031 1.15625 0 M 39.96875 0 C 40.101562 0.988281 40.394531 1.96875 40.46875 2.96875 C 40.632812 4.835938 41.371094 6.183594 43.09375 6.996094 C 44.804688 7.816406 46.605469 9.402344 48 10.878906 L 48 0.00390625 L 39.96875 0.00390625 M 3.96875 2.5625 C 2.992188 2.621094 1.625 3.148438 0.84375 3.871094 C 0.59375 4.09375 0.300781 4.230469 0 4.371094 L 0 18.308594 C 0.636719 18.492188 1.28125 18.648438 1.9375 18.742188 C 2.816406 18.882812 3.699219 18.949219 4.59375 18.898438 C 6.566406 16.382812 8.667969 14.617188 9.59375 11.652344 C 10.207031 9.683594 10.210938 7.035156 8.972656 5.398438 C 7.980469 4.097656 6.226562 3.296875 4.785156 2.652344 C 4.582031 2.5625 4.292969 2.535156 3.972656 2.558594 M 21.1875 11.75 C 20.878906 11.765625 20.574219 11.804688 20.25 11.875 C 19.074219 12.839844 18.578125 14.320312 18.03125 15.6875 C 17.371094 17.335938 18.546875 19.15625 17.71875 20.652344 C 17.175781 21.152344 16.335938 21.304688 15.65625 21.121094 C 12.976562 20.390625 10.007812 20.402344 7.4375 21.652344 L 7.46875 22.152344 C 7.796875 24.488281 8.15625 26.898438 9.21875 28.996094 C 9.910156 30.363281 10.210938 31.949219 10.371094 33.433594 C 10.589844 35.335938 9.699219 37.128906 9.746094 38.996094 C 13.371094 38.8125 17.804688 38.875 19.277344 40.339844 C 20.839844 41.910156 18.734375 45.628906 16.996094 47.996094 L 25.4375 47.996094 C 25.949219 47.121094 26.246094 45.976562 26.3125 45.183594 C 26.429688 43.734375 25.347656 43.371094 25.28125 42.089844 C 25.183594 39.984375 27.058594 38.714844 28.21875 37.214844 C 29.507812 35.527344 28.878906 32.984375 27.1875 31.648438 C 27.78125 29.183594 28.015625 26.585938 28.8125 24.121094 C 29.726562 21.339844 33.84375 18.738281 31.75 15.871094 C 30.03125 15.6875 28.472656 14.886719 27.03125 13.96875 C 25.292969 12.84375 23.371094 11.65625 21.1875 11.746094 M 37.5625 18.625 C 37.628906 19.339844 38.171875 19.925781 38.71875 20.34375 C 39.113281 20.644531 39.550781 19.976562 39.183594 19.589844 C 38.757812 19.160156 38.238281 18.554688 37.558594 18.625 M 40.40625 26.371094 C 36.484375 26.6875 33.582031 30.648438 32.160156 33.996094 C 32.40625 34.730469 32.621094 35.582031 33.066406 36.214844 C 33.613281 36.980469 35 37.949219 36.160156 38.496094 C 38.574219 36.316406 41.527344 34.066406 42.472656 30.71875 C 42.988281 28.898438 42.53125 26.1875 40.410156 26.371094 M 2.199219 43.308594 C 1.472656 43.316406 0.742188 43.367188 0.015625 43.402344 L 0.015625 47.992188 L 6.265625 47.992188 C 6.160156 46.429688 5.792969 44.929688 5.359375 43.46875 C 4.304688 43.328125 3.261719 43.304688 2.203125 43.3125 M 2.199219 43.3125 "/>
<path style=" stroke:none;fill-rule:nonzero;fill:rgb(92.941176%,92.941176%,92.156863%);fill-opacity:1;" d="M 14 30 L 22 21 L 24 12 L 25.996094 21 L 33.996094 30 L 25.996094 30 L 25.996094 33 L 28.996094 36 L 25.996094 36 L 24.996094 35 L 24.996094 36 L 23 36 L 23 35 L 22 36 L 19 36 L 22 33 L 22 30 M 14 30 "/>
</g>
</svg>
