<!-- color: #30bd65 -->
<svg xmlns="http://www.w3.org/2000/svg" xmlns:xlink="http://www.w3.org/1999/xlink" width="48px" height="48px" viewBox="0 0 48 48" version="1.1">
<g id="surface1">
<path style=" stroke:none;fill-rule:nonzero;fill:rgb(97.647059%,97.647059%,97.647059%);fill-opacity:1;" d="M 34.558594 19.613281 C 32.730469 15.59375 28.636719 13 24.027344 13 C 19.3125 13 14.996094 15.832031 13.296875 20.039062 L 16.875 21.363281 C 18.007812 18.554688 20.886719 16.675781 24.027344 16.675781 C 27.0625 16.675781 29.746094 18.355469 30.988281 20.976562 L 28.378906 21.976562 L 35.050781 25.664062 L 37.003906 18.6875 M 34.558594 19.617188 "/>
<path style=" stroke:none;fill-rule:nonzero;fill:rgb(97.647059%,97.647059%,97.647059%);fill-opacity:1;" d="M 24.03125 31.328125 C 21.019531 31.328125 18.28125 29.601562 17.054688 26.984375 L 19.617188 26.039062 L 13.019531 22.4375 L 11 29.230469 L 13.460938 28.320312 C 15.253906 32.328125 19.441406 35 24.023438 35 C 28.757812 35 32.945312 32.28125 34.710938 28.074219 L 31.144531 26.71875 C 29.976562 29.527344 27.179688 31.339844 24.023438 31.339844 M 24.023438 31.335938 "/>
</g>
</svg>
