<!-- color: #ffbe34 -->
<svg xmlns="http://www.w3.org/2000/svg" xmlns:xlink="http://www.w3.org/1999/xlink" width="48px" height="48px" viewBox="0 0 48 48" version="1.1">
<g id="surface1">
<path style=" stroke:none;fill-rule:nonzero;fill:rgb(17.647059%,17.647059%,17.647059%);fill-opacity:1;" d="M 24.039062 17 C 19.859375 17 16.703125 19.238281 14.582031 20.359375 C 12.464844 21.484375 11.320312 22.664062 11.320312 22.664062 C 11.007812 22.980469 11.007812 23.578125 11.320312 23.894531 C 11.320312 23.894531 11.746094 24.308594 12.484375 24.859375 L 11.21875 26.199219 C 10.917969 26.523438 10.921875 27.105469 11.226562 27.421875 C 11.53125 27.742188 12.082031 27.730469 12.378906 27.402344 L 13.898438 25.796875 C 14.113281 25.925781 14.339844 26.070312 14.582031 26.199219 C 15.175781 26.515625 15.875 26.824219 16.628906 27.109375 L 16.148438 29.039062 C 16.039062 29.472656 16.316406 29.96875 16.726562 30.082031 C 17.136719 30.195312 17.609375 29.902344 17.710938 29.464844 L 18.195312 27.621094 C 19.644531 28.03125 21.324219 28.328125 23.226562 28.394531 L 23.226562 30.136719 C 23.21875 30.589844 23.609375 31.003906 24.035156 31.003906 C 24.460938 31.003906 24.847656 30.589844 24.839844 30.136719 L 24.839844 28.394531 C 26.824219 28.324219 28.5625 28.027344 30.050781 27.589844 L 30.53125 29.496094 C 30.640625 29.929688 31.121094 30.222656 31.53125 30.101562 C 31.941406 29.980469 32.214844 29.472656 32.097656 29.035156 L 31.589844 27.058594 C 32.289062 26.785156 32.933594 26.492188 33.488281 26.203125 C 33.726562 26.074219 33.957031 25.929688 34.171875 25.800781 L 35.589844 27.300781 C 35.886719 27.621094 36.433594 27.625 36.734375 27.308594 C 37.035156 26.992188 37.042969 26.417969 36.75 26.097656 L 35.589844 24.863281 C 36.328125 24.3125 36.75 23.898438 36.75 23.898438 C 37.0625 23.582031 37.0625 22.984375 36.75 22.667969 C 36.75 22.667969 35.609375 21.488281 33.488281 20.363281 C 31.367188 19.238281 28.210938 17.003906 24.03125 17.003906 M 24.039062 18.714844 C 27.953125 18.714844 30.867188 20.894531 32.792969 21.910156 C 34.113281 22.609375 34.320312 22.925781 34.714844 23.277344 C 34.316406 23.628906 34.113281 23.941406 32.792969 24.640625 C 30.894531 25.640625 28.027344 26.675781 24.191406 26.703125 C 24.09375 26.679688 23.992188 26.679688 23.886719 26.703125 C 20.054688 26.675781 17.191406 25.644531 15.289062 24.640625 C 13.96875 23.941406 13.761719 23.625 13.367188 23.277344 C 13.765625 22.921875 13.96875 22.609375 15.289062 21.910156 C 17.214844 20.890625 20.128906 18.714844 24.039062 18.714844 M 24.039062 18.714844 "/>
</g>
</svg>
