<!-- color: #e57e29 -->
<svg xmlns="http://www.w3.org/2000/svg" xmlns:xlink="http://www.w3.org/1999/xlink" width="48px" height="48px" viewBox="0 0 48 48" version="1.1">
<g id="surface1">
<path style=" stroke:none;fill-rule:nonzero;fill:rgb(89.411765%,52.54902%,27.058824%);fill-opacity:1;" d="M 17.402344 7.625 C 12.679688 7.625 8.300781 9.054688 4.652344 11.46875 C 3.203125 13.707031 2.167969 16.214844 1.558594 18.90625 C 3.652344 16.414062 5.484375 14.636719 7.339844 13.40625 C 10.964844 23.285156 11.152344 23.324219 8.464844 12.75 C 11.121094 11.285156 13.871094 10.804688 17.402344 10.78125 C 17.714844 10.777344 18.003906 10.800781 18.308594 10.8125 C 18.265625 16.320312 17.410156 27.671875 14.339844 31.8125 C 9.90625 20.402344 10.445312 22.433594 13.433594 32.15625 C 13.222656 32.261719 13.023438 32.417969 12.808594 32.59375 L 11.433594 31.5625 L 12.125 33.53125 C 9.191406 33.976562 6.285156 33.242188 3.375 34.3125 C 3.761719 35.085938 4.160156 35.8125 4.625 36.53125 C 7.382812 35.90625 9.390625 33.570312 12.152344 35.136719 C 12.195312 35.351562 12.308594 35.539062 12.402344 35.730469 L 5.964844 38.324219 C 6.117188 38.515625 6.246094 38.703125 6.402344 38.886719 C 8.582031 37.859375 10.804688 37.453125 12.84375 36.355469 C 13.046875 36.535156 13.3125 36.664062 13.59375 36.761719 L 9.6875 42.042969 C 9.910156 42.21875 10.148438 42.40625 10.375 42.574219 C 11.78125 40.824219 12.433594 38.828125 14.25 36.886719 C 14.488281 36.90625 14.757812 36.945312 15.03125 36.90625 C 14.683594 39.746094 14.929688 42.679688 15.625 45.4375 C 16.527344 45.789062 17.480469 46.078125 18.4375 46.3125 C 17.726562 43.089844 15.796875 40.105469 15.96875 36.71875 C 16.855469 37.058594 17.320312 37.5 18.3125 38.1875 C 17.867188 37.519531 17.320312 37.085938 16.9375 36.25 C 17.023438 36.109375 17.105469 35.96875 17.15625 35.8125 C 21.710938 37.546875 25.972656 38.035156 30.59375 40.8125 L 33.125 42.6875 C 32.089844 44.195312 30.769531 45.492188 29.097656 46.4375 C 31.816406 45.820312 34.34375 44.730469 36.597656 43.25 C 39.03125 39.605469 40.472656 35.230469 40.472656 30.5625 C 40.472656 17.96875 30.191406 7.625 17.410156 7.625 M 21.183594 11.15625 C 28.808594 12.65625 35.460938 18.640625 36.902344 25.65625 L 36.558594 26.09375 C 35.917969 27.203125 29.898438 29.121094 27.714844 29.8125 C 23.546875 30.703125 20.5625 32.820312 16.558594 32.96875 C 16.3125 32.644531 16.027344 32.351562 15.683594 32.15625 C 18.121094 27.828125 17.316406 16.261719 21.183594 11.15625 M 36.3125 27.59375 L 37.21875 28.46875 C 37.21875 29.167969 37.144531 29.855469 37.03125 30.5625 C 36.433594 34.304688 35.683594 38.003906 34.125 41.03125 L 30.808594 39.9375 C 27.035156 38.097656 21.371094 36.902344 17.339844 34.25 C 23.117188 30.933594 29.972656 29.597656 36.308594 27.59375 M 21.59375 43.753906 C 22.050781 45.082031 23.175781 45.96875 24 47.003906 C 24.375 47.003906 24.753906 46.992188 25.125 46.972656 C 23.800781 45.902344 22.691406 44.972656 21.59375 43.753906 M 21.59375 43.753906 "/>
<path style=" stroke:none;fill-rule:nonzero;fill:rgb(97.647059%,97.647059%,97.647059%);fill-opacity:1;" d="M 30.5 12 C 28.015625 12 26 14.019531 26 16.5 C 26 16.6875 26.027344 16.878906 26.046875 17.066406 L 18.640625 20.765625 C 17.828125 19.980469 16.722656 19.503906 15.503906 19.503906 C 13.019531 19.503906 11.003906 21.523438 11.003906 24.003906 C 11.003906 26.484375 13.023438 28.503906 15.503906 28.503906 C 16.722656 28.503906 17.828125 28.023438 18.640625 27.238281 L 26.046875 30.941406 C 26.023438 31.121094 26 31.316406 26 31.503906 C 26 33.988281 28.019531 36.003906 30.5 36.003906 C 32.984375 36.003906 35 33.984375 35 31.503906 C 35 29.019531 32.980469 27.003906 30.5 27.003906 C 29.289062 27.003906 28.191406 27.488281 27.382812 28.269531 L 19.953125 24.566406 C 19.976562 24.386719 20 24.191406 20 24.003906 C 20 23.816406 19.972656 23.625 19.953125 23.4375 L 27.382812 19.734375 C 28.191406 20.515625 29.285156 21 30.5 21 C 32.984375 21 35 18.980469 35 16.5 C 35 14.015625 32.980469 12 30.5 12 M 30.5 12 "/>
</g>
</svg>
