<!-- color: #ffd000 -->
<svg xmlns="http://www.w3.org/2000/svg" xmlns:xlink="http://www.w3.org/1999/xlink" width="48px" height="48px" viewBox="0 0 48 48" version="1.1">
<g id="surface1">
<path style=" stroke:none;fill-rule:nonzero;fill:rgb(20%,20%,20%);fill-opacity:1;" d="M 15.640625 36.953125 C 13.207031 36.65625 12.316406 35.640625 12.511719 33.375 C 12.605469 32.3125 12.929688 31.601562 13.710938 30.792969 C 14.054688 30.4375 14.335938 30.097656 14.335938 30.042969 C 14.335938 29.992188 14.109375 29.59375 13.832031 29.160156 C 12.421875 26.96875 11.746094 23.9375 12.089844 21.386719 C 12.957031 14.980469 18.695312 10.449219 25.171875 11.054688 C 30.191406 11.523438 34.359375 15.011719 35.679688 19.839844 C 35.949219 20.839844 35.992188 21.269531 36.003906 22.835938 C 36.007812 24.449219 35.96875 24.808594 35.679688 25.835938 C 35.261719 27.339844 34.882812 28.164062 34.027344 29.457031 L 33.328125 30.507812 L 34.054688 31.144531 C 35.28125 32.21875 35.753906 33.40625 35.453125 34.652344 C 35.261719 35.472656 34.957031 35.882812 34.269531 36.28125 C 33.175781 36.910156 32.578125 36.992188 28.996094 36.996094 C 27.183594 37 25.144531 36.980469 24.464844 36.957031 C 23.777344 36.933594 21.683594 36.941406 19.804688 36.976562 C 17.925781 37.011719 16.050781 37 15.640625 36.949219 M 23.023438 35.722656 C 24.402344 35.492188 25.09375 34.898438 25.074219 33.964844 C 25.058594 33.34375 24.597656 32.488281 24.011719 32.011719 C 22.179688 30.488281 17.828125 29.882812 15.644531 30.824219 C 14.390625 31.367188 13.597656 32.523438 13.597656 33.804688 C 13.59375 35.40625 14.171875 35.730469 17.261719 35.84375 C 19.628906 35.933594 22.019531 35.875 23.023438 35.710938 M 30.988281 35.847656 C 32.757812 35.722656 33.53125 35.503906 34.042969 34.976562 C 34.355469 34.652344 34.402344 34.515625 34.402344 33.890625 C 34.402344 33.292969 34.34375 33.089844 34.023438 32.648438 C 33.660156 32.144531 32.457031 31.203125 32.171875 31.203125 C 32.097656 31.203125 31.59375 31.53125 31.046875 31.9375 C 29.921875 32.765625 28.425781 33.523438 27.316406 33.824219 C 25.96875 34.191406 25.761719 34.269531 25.761719 34.425781 C 25.761719 34.507812 25.648438 34.785156 25.515625 35.054688 C 25.101562 35.851562 25.074219 35.828125 27.097656 35.871094 C 28.109375 35.894531 29.042969 35.925781 29.179688 35.9375 C 29.316406 35.949219 30.125 35.910156 30.980469 35.851562 M 27.367188 33.144531 C 29.117188 32.613281 30.671875 31.636719 32.0625 30.191406 C 34.804688 27.355469 35.722656 23.203125 34.445312 19.40625 C 33.941406 17.914062 33.203125 16.699219 32.09375 15.53125 C 30.046875 13.371094 27.554688 12.214844 24.6875 12.066406 C 21.488281 11.90625 18.730469 12.90625 16.503906 15.023438 C 14.777344 16.671875 13.679688 18.648438 13.253906 20.882812 C 13.019531 22.09375 13.09375 24.425781 13.402344 25.585938 C 13.703125 26.71875 14.722656 28.71875 15.347656 29.414062 L 15.886719 30.007812 L 16.621094 29.871094 C 17.734375 29.671875 19.597656 29.714844 20.863281 29.96875 C 22.972656 30.398438 24.785156 31.492188 25.414062 32.726562 C 25.878906 33.621094 25.808594 33.613281 27.363281 33.136719 M 22.132812 22.40625 C 21.503906 22.054688 21.113281 20.304688 21.410156 19.15625 C 21.992188 16.867188 23.789062 17.617188 23.789062 20.148438 C 23.789062 21.804688 22.988281 22.894531 22.132812 22.40625 M 26.535156 22.261719 C 26.09375 21.796875 25.871094 21.113281 25.871094 20.15625 C 25.871094 17.996094 27.203125 16.972656 28.007812 18.515625 C 28.964844 20.359375 27.730469 23.507812 26.535156 22.257812 M 26.535156 22.257812 "/>
</g>
</svg>
