<!-- color: #c8c8c8 -->
<svg xmlns="http://www.w3.org/2000/svg" xmlns:xlink="http://www.w3.org/1999/xlink" width="48px" height="48px" viewBox="0 0 48 48" version="1.1">
<g id="surface1">
<path style=" stroke:none;fill-rule:nonzero;fill:rgb(97.647059%,97.647059%,97.647059%);fill-opacity:1;" d="M 15 12 C 15 12 14 12 14 13 L 14 35 C 14 35 14 36 15 36 L 33 36 C 33 36 33.996094 36 33.996094 35 L 33.996094 20.003906 L 25.996094 12.003906 C 22.285156 12 17.253906 12 15 12 M 15 12.003906 "/>
<path style=" stroke:none;fill-rule:nonzero;fill:rgb(66.666667%,66.666667%,66.666667%);fill-opacity:1;" d="M 19 21 L 19 22 L 29 22 L 29 21 M 19 21 "/>
<path style=" stroke:none;fill-rule:nonzero;fill:rgb(66.666667%,66.666667%,66.666667%);fill-opacity:1;" d="M 19 23 L 19 24 L 29 24 L 29 23 M 19 23 "/>
<path style=" stroke:none;fill-rule:nonzero;fill:rgb(66.666667%,66.666667%,66.666667%);fill-opacity:1;" d="M 19 25 L 19 26 L 29 26 L 29 25 M 19 25 "/>
<path style=" stroke:none;fill-rule:nonzero;fill:rgb(87.058824%,87.058824%,87.058824%);fill-opacity:1;" d="M 34 20 L 26 12 C 25.996094 16 26 18 26 19 C 26 20 26 20 27 20 C 28 20 31.097656 20.007812 34 20 M 34 20 "/>
<path style=" stroke:none;fill-rule:nonzero;fill:rgb(100%,43.529412%,1.176471%);fill-opacity:1;" d="M 19.964844 28 L 33.738281 28 L 33.738281 32 L 19.964844 32 M 19.964844 28 "/>
<path style=" stroke:none;fill-rule:nonzero;fill:rgb(100%,17.647059%,36.078431%);fill-opacity:1;" d="M 33 28 L 33 32 L 35.4375 32 C 35.4375 32 36 31.671875 36 30 C 36 28.390625 35.375 28.003906 35.375 28.003906 L 33.003906 28.003906 M 33 28 "/>
<path style=" stroke:none;fill-rule:nonzero;fill:rgb(100%,75.686275%,23.921569%);fill-opacity:1;" d="M 20 28 L 16 29.996094 L 20 31.996094 L 20 27.996094 M 20 28 "/>
<path style=" stroke:none;fill-rule:nonzero;fill:rgb(17.647059%,17.647059%,17.647059%);fill-opacity:1;" d="M 18 28.984375 L 16 30 L 18 31.019531 M 18 28.984375 "/>
</g>
</svg>
