<!-- color: #e1e1dd -->
<svg xmlns="http://www.w3.org/2000/svg" xmlns:xlink="http://www.w3.org/1999/xlink" width="48px" height="48px" viewBox="0 0 48 48" version="1.1">
<g id="surface1">
<path style=" stroke:none;fill-rule:nonzero;fill:rgb(89.803922%,32.54902%,32.54902%);fill-opacity:1;" d="M 18.886719 28 L 23.113281 28 C 23.601562 28 24 28.394531 24 28.886719 L 24 29.113281 C 24 29.601562 23.601562 29.996094 23.113281 29.996094 L 18.886719 29.996094 C 18.398438 29.996094 18 29.601562 18 29.113281 L 18 28.886719 C 18 28.394531 18.398438 28 18.886719 28 M 18.886719 28 "/>
<path style=" stroke:none;fill-rule:nonzero;fill:rgb(78.431373%,24.705882%,26.666667%);fill-opacity:1;" d="M 12 23 L 24 14 L 36 23 L 36 26 L 12 26 M 11.996094 23 "/>
<path style=" stroke:none;fill-rule:nonzero;fill:rgb(95.294118%,95.294118%,95.294118%);fill-opacity:1;" d="M 14.886719 16 L 33.113281 16 C 33.601562 16 33.996094 16.398438 33.996094 16.886719 L 33.996094 35.113281 C 33.996094 35.601562 33.601562 36 33.113281 36 L 14.886719 36 C 14.394531 36 14 35.601562 14 35.113281 L 14 16.886719 C 14 16.398438 14.394531 16 14.886719 16 M 14.886719 16 "/>
<path style=" stroke:none;fill-rule:nonzero;fill:rgb(14.901961%,64.313725%,81.176471%);fill-opacity:1;" d="M 19 30 C 19 30 20.460938 26.5 20.800781 25.863281 C 20.800781 25.863281 19.789062 22.886719 21.832031 20.269531 L 22.671875 18.933594 C 22.671875 18.933594 22.210938 20.167969 22.800781 21.171875 C 22.800781 21.171875 22.820312 19.082031 23.332031 18.152344 C 23.332031 18.152344 25.738281 14.929688 28.617188 13.164062 C 28.617188 13.164062 28.140625 14.183594 28.28125 15.070312 C 28.28125 15.070312 29.21875 12.402344 30.019531 12.097656 C 30.019531 12.097656 32.5 9.949219 35 9.992188 C 35 9.992188 30.835938 14 28.316406 17.464844 C 28.316406 17.464844 26.769531 19.683594 26.066406 19.921875 C 26.066406 19.921875 25.019531 20.410156 24.664062 20.425781 C 24.664062 20.425781 25.691406 20.460938 26.289062 20.285156 C 26.289062 20.285156 25.265625 21.8125 24.941406 22.664062 C 24.941406 22.664062 24.070312 24.3125 23.402344 24.824219 C 23.402344 24.824219 22.269531 25.742188 21.421875 25.980469 L 20.582031 27.898438 C 20.582031 27.898438 19.59375 28.964844 19 29.988281 M 19 29.992188 "/>
<path style=" stroke:none;fill-rule:nonzero;fill:rgb(98.039216%,32.941176%,35.294118%);fill-opacity:1;" d="M 12 23 L 12 37 L 36 37 L 36 23 L 24 29 M 12 23 "/>
</g>
</svg>
