<!-- color: #efc07d --><svg xmlns="http://www.w3.org/2000/svg" viewBox="0 0 48 48"><g><path d="m 0 30.1 l 0 13.563 l 2.512 4.34 l 2.332 0 l 4.125 -2.387 m -8.969 -15.516" fill="#853009" stroke="none" fill-rule="nonzero" fill-opacity="1"/><path d="m 3.523 22.641 l 5.875 -3.395 l 11.316 19.578 l -5.875 3.395 m -11.316 -19.578" fill="#853009" stroke="none" fill-rule="nonzero" fill-opacity="1"/><path d="m 15.27 15.852 l 5.875 -3.395 l 11.316 19.578 l -5.875 3.395 m -11.316 -19.578" fill="#853009" stroke="none" fill-rule="nonzero" fill-opacity="1"/><path d="m 42.691 0 l -3.926 2.266 l 9.234 15.977 l 0 -13.551 l -2.711 -4.691 m -2.598 0" fill="#853009" stroke="none" fill-rule="nonzero" fill-opacity="1"/><path d="m 27.02 9.06 l 5.875 -3.395 l 11.316 19.578 l -5.871 3.398 m -11.32 -19.582" fill="#853009" stroke="none" fill-rule="nonzero" fill-opacity="1"/><path d="m 0 45.563 l 48 -27.938 l 0 2.719 l -47.531 27.656 l -0.469 0 m 0 -2.438" fill="#7f7f7f" stroke="none" fill-rule="nonzero" fill-opacity="1"/><path d="m 0 27.19 l 46.688 -27.19 l 1.313 0 l 0 1.969 l -48 27.844 m 0 -2.625" fill="#7f7f7f" stroke="none" fill-rule="nonzero" fill-opacity="1"/></g></svg>