<!-- color: #e85856 -->
<svg xmlns="http://www.w3.org/2000/svg" xmlns:xlink="http://www.w3.org/1999/xlink" width="48px" height="48px" viewBox="0 0 48 48" version="1.1">
<g id="surface1">
<path style=" stroke:none;fill-rule:nonzero;fill:rgb(17.647059%,17.647059%,17.647059%);fill-opacity:1;" d="M 15.808594 26.453125 C 15.664062 26.453125 15.523438 26.390625 15.429688 26.28125 L 12.121094 22.503906 C 11.941406 22.296875 11.964844 21.980469 12.175781 21.800781 C 12.386719 21.617188 12.703125 21.640625 12.886719 21.847656 L 15.75 25.125 L 18.121094 21.484375 C 18.273438 21.25 18.585938 21.183594 18.820312 21.332031 C 19.054688 21.484375 19.121094 21.792969 18.96875 22.023438 L 16.234375 26.222656 C 16.148438 26.355469 16.003906 26.441406 15.84375 26.453125 C 15.832031 26.453125 15.820312 26.453125 15.808594 26.453125 M 15.808594 26.453125 "/>
<path style=" stroke:none;fill-rule:nonzero;fill:rgb(17.647059%,17.647059%,17.647059%);fill-opacity:1;" d="M 35.496094 27.691406 C 35.332031 27.691406 35.175781 27.613281 35.078125 27.472656 L 32.640625 23.875 L 29.835938 27.199219 C 29.65625 27.410156 29.339844 27.4375 29.125 27.261719 C 28.910156 27.085938 28.882812 26.769531 29.0625 26.558594 L 32.296875 22.722656 C 32.398438 22.601562 32.546875 22.53125 32.710938 22.542969 C 32.859375 22.550781 33.015625 22.632812 33.101562 22.761719 L 35.914062 26.914062 C 36.070312 27.144531 36.007812 27.453125 35.777344 27.605469 C 35.691406 27.664062 35.59375 27.691406 35.496094 27.691406 M 35.496094 27.691406 "/>
<path style=" stroke:none;fill-rule:nonzero;fill:rgb(17.647059%,17.647059%,17.647059%);fill-opacity:1;" d="M 24.140625 33 C 21.785156 33 19.507812 32.089844 17.777344 30.402344 C 17.578125 30.207031 17.578125 29.890625 17.773438 29.695312 C 17.96875 29.5 18.289062 29.496094 18.484375 29.691406 C 20.480469 31.640625 23.296875 32.417969 26.019531 31.785156 C 30 30.851562 32.652344 27.117188 32.1875 23.101562 C 32.15625 22.824219 32.355469 22.578125 32.628906 22.546875 C 32.910156 22.511719 33.15625 22.710938 33.1875 22.988281 C 33.710938 27.511719 30.730469 31.707031 26.253906 32.757812 C 25.550781 32.921875 24.84375 33 24.140625 33 M 24.140625 33 "/>
<path style=" stroke:none;fill-rule:nonzero;fill:rgb(17.647059%,17.647059%,17.647059%);fill-opacity:1;" d="M 15.808594 26.453125 C 15.582031 26.453125 15.375 26.296875 15.320312 26.070312 C 14.761719 23.730469 15.15625 21.316406 16.429688 19.269531 C 17.703125 17.226562 19.707031 15.796875 22.066406 15.238281 C 25.332031 14.476562 28.742188 15.546875 30.964844 18.035156 C 31.148438 18.242188 31.128906 18.558594 30.921875 18.742188 C 30.714844 18.921875 30.394531 18.902344 30.210938 18.699219 C 28.230469 16.484375 25.199219 15.53125 22.300781 16.210938 C 20.199219 16.703125 18.421875 17.972656 17.289062 19.792969 C 16.15625 21.609375 15.8125 23.753906 16.308594 25.835938 C 16.371094 26.105469 16.203125 26.367188 15.933594 26.4375 C 15.894531 26.445312 15.855469 26.449219 15.816406 26.449219 M 15.816406 26.449219 "/>
</g>
</svg>
