<!-- color: #ffbf00 -->
<svg xmlns="http://www.w3.org/2000/svg" xmlns:xlink="http://www.w3.org/1999/xlink" width="48px" height="48px" viewBox="0 0 48 48" version="1.1">
<g id="surface1">
<path style=" stroke:none;fill-rule:nonzero;fill:rgb(0.784314%,32.941176%,66.27451%);fill-opacity:1;" d="M 28.109375 35.679688 C 25.269531 34.914062 23.101562 33.289062 21.886719 31.019531 C 21.273438 29.875 21.195312 29.460938 21.191406 27.324219 C 21.1875 24.609375 21.421875 24.882812 18.773438 24.539062 C 17.121094 24.328125 14.699219 23.128906 13.257812 21.8125 C 9.433594 18.3125 10.628906 13.328125 15.539062 12.296875 C 18.875 11.597656 21.816406 12.210938 23.617188 13.980469 C 25.351562 15.679688 25.761719 17.613281 24.972656 20.535156 C 24.761719 21.316406 24.59375 22.0625 24.59375 22.195312 C 24.59375 22.328125 25.304688 22.433594 26.171875 22.4375 C 30.855469 22.449219 34.613281 24.316406 36.203125 27.421875 C 37.503906 29.96875 37.195312 32.378906 35.339844 34.195312 C 33.613281 35.890625 30.914062 36.441406 28.105469 35.683594 M 33.390625 32.101562 C 34.707031 31.441406 35.316406 30.375 35.132812 29.035156 C 35.058594 28.492188 34.816406 27.875 34.601562 27.660156 C 34.238281 27.304688 34.203125 27.320312 34.203125 27.839844 C 34.203125 28.15625 34.03125 28.769531 33.820312 29.203125 C 32.617188 31.6875 27.714844 31.453125 25.941406 28.824219 C 25.34375 27.941406 25.300781 27.707031 25.441406 26.105469 L 25.589844 24.347656 L 24.8125 24.5 C 24.382812 24.582031 23.863281 24.652344 23.652344 24.652344 C 23.085938 24.652344 23.382812 27.972656 24.066406 29.289062 C 25.625 32.28125 30.25 33.671875 33.398438 32.097656 M 32.125 27.078125 C 33.320312 25.910156 30.074219 23.089844 28.765625 24.160156 C 27.59375 25.109375 29.0625 27.371094 30.84375 27.371094 C 31.382812 27.371094 31.960938 27.238281 32.125 27.074219 M 23.023438 21.234375 C 23.222656 20.648438 23.328125 20.113281 23.257812 20.042969 C 23.1875 19.976562 22.660156 20.042969 22.082031 20.195312 C 18.753906 21.074219 14.351562 17.074219 15.773438 14.472656 C 16.171875 13.742188 15.929688 13.679688 15.128906 14.296875 C 12.109375 16.628906 14.882812 20.921875 20.148438 22.0625 C 22.363281 22.539062 22.597656 22.476562 23.019531 21.234375 M 22.949219 16.824219 C 23.515625 16.265625 23.25 15.300781 22.289062 14.433594 C 21.660156 13.863281 21.332031 13.742188 20.472656 13.8125 C 19.585938 13.875 19.382812 13.992188 19.179688 14.566406 C 18.589844 16.214844 21.683594 18.058594 22.949219 16.820312 M 22.949219 16.824219 "/>
</g>
</svg>
