<!-- color: #4e4e4e -->
<svg xmlns="http://www.w3.org/2000/svg" xmlns:xlink="http://www.w3.org/1999/xlink" width="48px" height="48px" viewBox="0 0 48 48" version="1.1">
<g id="surface1">
<path style=" stroke:none;fill-rule:nonzero;fill:rgb(58.431373%,87.058824%,98.431373%);fill-opacity:1;" d="M 24 12 C 17.925781 12 13 17.371094 13 24 C 13 30.628906 17.925781 36 24 36 C 26.671875 36 29.125 34.949219 31.03125 33.21875 L 48 44 L 48 41 L 32.96875 30.941406 C 34.246094 28.980469 35 26.589844 35 24.003906 C 35 17.367188 30.074219 12.003906 24 12.003906 M 24 15.992188 C 27.867188 15.992188 31 19.574219 31 23.992188 C 31 28.410156 27.867188 31.992188 24 31.992188 C 20.132812 31.992188 17 28.410156 17 23.992188 C 17 19.574219 20.132812 15.992188 24 15.992188 M 24 15.992188 "/>
</g>
</svg>
