<!-- color: #6bc260 -->
<svg xmlns="http://www.w3.org/2000/svg" xmlns:xlink="http://www.w3.org/1999/xlink" width="48px" height="48px" viewBox="0 0 48 48" version="1.1">
<g id="surface1">
<path style=" stroke:none;fill-rule:nonzero;fill:rgb(97.647059%,97.647059%,97.647059%);fill-opacity:1;" d="M 13.78125 20 C 12.796875 20 11.996094 20.6875 11.996094 21.5625 L 11.996094 34.4375 C 11.996094 35.308594 12.796875 36 13.78125 36 L 34.21875 36 C 35.199219 36 36 35.308594 36 34.4375 L 36 21.5625 C 36 20.6875 35.199219 20 34.21875 20 M 23 21.996094 L 24.996094 21.996094 C 27.996094 21.996094 27.996094 24.5 27.996094 24.5 L 27.996094 27 C 27.996094 28 25.996094 29.5 25.996094 29.5 L 25.996094 31 L 28.996094 32 L 28.996094 33.996094 L 18.996094 33.996094 L 18.996094 32 L 21.996094 31 L 21.996094 29.5 C 21.996094 29.5 19.996094 28.003906 19.996094 27 L 19.996094 24.5 C 19.996094 24.5 19.996094 21.996094 22.996094 21.996094 M 22.988281 21.996094 "/>
<path style="fill:none;stroke-width:4.307;stroke-linecap:butt;stroke-linejoin:miter;stroke:rgb(97.647059%,97.647059%,97.647059%);stroke-opacity:1;stroke-miterlimit:4;" d="M -7.525424 14.338972 C -7.525424 20.012193 -12.578628 24.610151 -18.813558 24.610151 C -25.048489 24.610151 -30.101693 20.012193 -30.101693 14.338972 C -30.101693 8.66575 -25.048489 4.067792 -18.813558 4.067792 C -12.578628 4.067792 -7.525424 8.66575 -7.525424 14.338972 M -7.525424 14.338972 " transform="matrix(0.442943,0,0,0.486799,32.333334,9.019803)"/>
</g>
</svg>
