<!-- color: #dfdfdf -->
<svg xmlns="http://www.w3.org/2000/svg" xmlns:xlink="http://www.w3.org/1999/xlink" width="48px" height="48px" viewBox="0 0 48 48" version="1.1">
<defs>
<linearGradient id="linear0" gradientUnits="userSpaceOnUse" x1="24.737" y1="38.11" x2="24.701" y2="9.03" >
<stop offset="0" style="stop-color:rgb(98.431373%,74.901961%,9.803922%);stop-opacity:1;"/>
<stop offset="1" style="stop-color:rgb(100%,92.156863%,21.960784%);stop-opacity:1;"/>
</linearGradient>
</defs>
<g id="surface1">
<path style=" stroke:none;fill-rule:nonzero;fill:url(#linear0);" d="M 14 12 C 13 12 12 13 12 14 L 12 21 C 12 22 13 23 14 23 C 15 23 16 22 16 21 L 16 18 L 18 20 L 18 23 L 21 23 L 21 22 C 20.96875 21.335938 21.300781 21.003906 22 21 L 23 21 L 23 18 L 20 18 L 18 16 L 21 16 C 22 16 23 15 23 14 C 23 13 22 12 21 12 M 27 12 C 26 12 25 13 25 14 C 25 15 26 16 27 16 L 30 16 L 28 18 L 25 18 L 25 21 L 26 21 C 26.664062 20.96875 26.996094 21.300781 27 22 L 27 23 L 30 23 L 30 20 L 32 18 L 32 21 C 32 22 33 23 34 23 C 35 23 36 22 36 21 L 36 14 C 36 13 35 12 34 12 M 18 25 L 18 28 C 18 29 19 30 20 30 L 23 30 L 23 27 L 22 27 C 21.335938 27.03125 21.003906 26.699219 21 26 L 21 25 M 27 25 L 27 26 C 27.03125 26.664062 26.699219 26.996094 26 27 L 25 27 L 25 30 L 28 30 L 30 32 L 27 32 C 26 32 25 33 25 34 C 25 35 26 36 27 36 L 34 36 C 35 36 36 35 36 34 L 36 27 C 36 26 35 25 34 25 C 33 25 32 26 32 27 L 32 30 L 30 28 L 30 25 M 27 25 "/>
</g>
</svg>
