<!-- color: #eeeeee -->
<svg xmlns="http://www.w3.org/2000/svg" xmlns:xlink="http://www.w3.org/1999/xlink" width="48px" height="48px" viewBox="0 0 48 48" version="1.1">
<g id="surface1">
<path style="fill:none;stroke-width:0.564;stroke-linecap:butt;stroke-linejoin:miter;stroke:rgb(96.078431%,63.921569%,0%);stroke-opacity:1;stroke-miterlimit:4;" d="M 3.912526 4.797778 L 8.507457 4.797778 C 8.639748 4.797778 8.751094 4.945504 8.751094 5.128507 L 8.751094 9.550356 C 8.751094 9.732257 8.641953 9.879983 8.507457 9.879983 L 3.912526 9.879983 C 3.780234 9.879983 3.668889 9.732257 3.668889 9.550356 L 3.668889 5.128507 C 3.668889 4.945504 3.77803 4.797778 3.912526 4.797778 M 3.912526 4.797778 " transform="matrix(3.543307,0,0,3.543307,0,0)"/>
<path style="fill:none;stroke-width:0.564;stroke-linecap:butt;stroke-linejoin:miter;stroke:rgb(27.058824%,67.058824%,89.411765%);stroke-opacity:1;stroke-miterlimit:4;" d="M 5.040313 3.668889 L 9.631936 3.668889 C 9.766433 3.668889 9.875573 3.816615 9.875573 3.998516 L 9.875573 8.421467 C 9.875573 8.603368 9.767535 8.751094 9.631936 8.751094 L 5.040313 8.751094 C 4.902509 8.751094 4.794471 8.603368 4.794471 8.421467 L 4.794471 3.998516 C 4.794471 3.816615 4.902509 3.668889 5.040313 3.668889 M 5.040313 3.668889 " transform="matrix(3.543307,0,0,3.543307,0,0)"/>
</g>
</svg>
