<!-- color: #4d8bc7 -->
<svg xmlns="http://www.w3.org/2000/svg" xmlns:xlink="http://www.w3.org/1999/xlink" width="48px" height="48px" viewBox="0 0 48 48" version="1.1">
<g id="surface1">
<path style=" stroke:none;fill-rule:nonzero;fill:rgb(97.647059%,97.647059%,97.647059%);fill-opacity:1;" d="M 16 11 L 16 12.996094 C 16 13.996094 17 14.996094 18 14.996094 L 18 32.996094 C 17 32.996094 16 33.996094 16 34.992188 L 16 36.992188 L 24 36.992188 L 24 34.992188 C 24 33.996094 23 32.996094 22 32.996094 L 22 25.996094 L 26 25.996094 C 36 25.996094 36 11 26 11 M 22 13 C 23.511719 13 24.503906 13 26 13 C 28.449219 13 31 15.464844 31 18.5 C 31 21.535156 28.449219 24 26 24 C 24.5 24 23.515625 24 22 24 M 22 13 "/>
</g>
</svg>
