<!-- color: #cfe4f8 -->
<svg xmlns="http://www.w3.org/2000/svg" xmlns:xlink="http://www.w3.org/1999/xlink" width="48px" height="48px" viewBox="0 0 48 48" version="1.1">
<g id="surface1">
<path style="fill-rule:nonzero;fill:rgb(100%,100%,100%);fill-opacity:1;stroke-width:9.295;stroke-linecap:butt;stroke-linejoin:miter;stroke:rgb(0%,0%,0%);stroke-opacity:1;stroke-miterlimit:4;" d="M 369.284132 125.29881 C 369.355296 134.263452 364.800774 142.561302 357.364093 147.080667 C 349.927412 151.562988 340.782786 151.562988 333.346105 147.080667 C 325.909424 142.561302 321.390484 134.263452 321.426066 125.29881 C 321.390484 116.334169 325.909424 107.999275 333.346105 103.516954 C 340.782786 98.997589 349.927412 98.997589 357.364093 103.516954 C 364.800774 107.999275 369.355296 116.334169 369.284132 125.29881 M 369.284132 125.29881 " transform="matrix(0.109781,0,0,0.105449,-23.786475,10.103772)"/>
<path style="fill-rule:nonzero;fill:rgb(100%,100%,100%);fill-opacity:1;stroke-width:9.295;stroke-linecap:butt;stroke-linejoin:miter;stroke:rgb(0%,0%,0%);stroke-opacity:1;stroke-miterlimit:4;" d="M 369.279019 125.300297 C 369.350184 134.264939 364.795661 142.562789 357.358981 147.082153 C 349.957882 151.564474 340.777673 151.564474 333.340993 147.082153 C 325.939894 142.562789 321.385372 134.264939 321.420954 125.300297 C 321.385372 116.335655 325.939894 108.000761 333.340993 103.51844 C 340.777673 98.999075 349.957882 98.999075 357.358981 103.51844 C 364.795661 108.000761 369.350184 116.335655 369.279019 125.300297 M 369.279019 125.300297 " transform="matrix(0.109781,0,0,0.105449,-4.03982,10.162209)"/>
<path style="fill:none;stroke-width:7.847;stroke-linecap:butt;stroke-linejoin:miter;stroke:rgb(0%,0%,0%);stroke-opacity:1;stroke-miterlimit:4;" d="M 169.02 -152.098323 C 153.734347 -158.355031 138.208449 -165.769229 126.526487 -157.666793 C 113.012648 -151.441369 113.673325 -131.075787 114.694371 -110.303519 " transform="matrix(0.130075,0,0,0.124866,7.350661,33.988003)"/>
<path style="fill-rule:nonzero;fill:rgb(100%,100%,100%);fill-opacity:1;stroke-width:7.767;stroke-linecap:round;stroke-linejoin:miter;stroke:rgb(0%,0%,0%);stroke-opacity:1;stroke-miterlimit:4;" d="M 497.868432 154.194583 C 497.868432 186.360714 460.914928 212.427974 415.369659 212.427974 C 369.794661 212.427974 332.870886 186.360714 332.870886 154.194583 C 332.870886 122.059411 369.794661 95.992152 415.369659 95.992152 C 460.914928 95.992152 497.868432 122.059411 497.868432 154.194583 M 497.868432 154.194583 " transform="matrix(0.131394,0,0,0.126176,-30.514581,7.696688)"/>
<path style="fill-rule:nonzero;fill:rgb(100%,100%,100%);fill-opacity:1;stroke-width:8.05;stroke-linecap:round;stroke-linejoin:miter;stroke:rgb(0%,0%,0%);stroke-opacity:1;stroke-miterlimit:4;" d="M 509.304136 71.34821 C 509.304136 82.197478 501.141409 90.992446 491.068911 90.992446 C 481.027217 90.992446 472.86449 82.197478 472.86449 71.34821 C 472.86449 60.498942 481.027217 51.703973 491.068911 51.703973 C 501.141409 51.703973 509.304136 60.498942 509.304136 71.34821 M 509.304136 71.34821 " transform="matrix(0.126815,0,0,0.121696,-31.196779,7.203927)"/>
<path style=" stroke:none;fill-rule:nonzero;fill:rgb(100%,27.058824%,0%);fill-opacity:1;" d="M 21.121094 25.675781 C 21.121094 26.515625 20.429688 27.199219 19.574219 27.199219 C 18.71875 27.199219 18.023438 26.515625 18.023438 25.675781 C 18.023438 24.835938 18.71875 24.15625 19.574219 24.15625 C 20.429688 24.15625 21.121094 24.835938 21.121094 25.675781 M 21.121094 25.675781 "/>
<path style=" stroke:none;fill-rule:nonzero;fill:rgb(100%,27.058824%,0%);fill-opacity:1;" d="M 29.171875 25.546875 C 29.171875 26.386719 28.476562 27.066406 27.617188 27.066406 C 26.765625 27.066406 26.066406 26.386719 26.066406 25.546875 C 26.066406 24.707031 26.761719 24.023438 27.617188 24.023438 C 28.472656 24.023438 29.171875 24.707031 29.171875 25.546875 M 29.171875 25.546875 "/>
<path style="fill:none;stroke-width:7.847;stroke-linecap:round;stroke-linejoin:miter;stroke:rgb(0%,0%,0%);stroke-opacity:1;stroke-miterlimit:4;" d="M 93.192352 -34.190676 C 119.619414 -15.514405 139.529802 -22.89732 158.62936 -33.502439 " transform="matrix(0.130075,0,0,0.124866,7.350661,33.988003)"/>
</g>
</svg>
