<!-- color: #f8f8f8 -->
<svg xmlns="http://www.w3.org/2000/svg" xmlns:xlink="http://www.w3.org/1999/xlink" width="48px" height="48px" viewBox="0 0 48 48" version="1.1">
<g id="surface1">
<path style=" stroke:none;fill-rule:nonzero;fill:rgb(49.803922%,92.156863%,72.156863%);fill-opacity:1;" d="M 14 0 C 12 0 2 0 0 0 C 0 3 0 10 0 12 L 14 12 Z M 14 0 "/>
<path style=" stroke:none;fill-rule:nonzero;fill:rgb(29.803922%,72.156863%,69.803922%);fill-opacity:1;" d="M 24 0 C 20.414062 0 17 0 14 0 L 14 12 L 24 12 M 24 0 "/>
<path style=" stroke:none;fill-rule:nonzero;fill:rgb(92.156863%,23.921569%,31.764706%);fill-opacity:1;" d="M 24 0 L 24 12 L 34 12 L 34 0 C 31 0 27 0 24 0 M 24 0 "/>
<path style=" stroke:none;fill-rule:nonzero;fill:rgb(98.039216%,69.803922%,29.019608%);fill-opacity:1;" d="M 34 0 L 34 12 L 48 12 C 48 10 48 2 48 0 C 45 0 37 0 34 0 M 34 0 "/>
<path style=" stroke:none;fill-rule:nonzero;fill:rgb(92.156863%,23.921569%,31.764706%);fill-opacity:1;" d="M 14.402344 17 C 13.316406 17 12.269531 17.167969 11.648438 17.925781 C 10.695312 19.085938 11 21 11 22.816406 C 11 24.957031 10.933594 27.246094 11.347656 29.359375 C 11.789062 31.617188 13.34375 34.082031 15.101562 35.613281 C 16.375 36.722656 17.738281 37.511719 19.316406 38.152344 C 20.859375 38.722656 22.335938 38.984375 23.886719 39 C 25.308594 39 26.738281 38.84375 28.089844 38.382812 C 29.464844 37.914062 30.859375 37.246094 32.019531 36.382812 C 33.226562 35.402344 34.191406 34.433594 34.957031 33.21875 C 35.515625 32.3125 35.984375 31.328125 36.332031 30.328125 C 37.191406 27.839844 37 24.921875 37 22.335938 C 37 21.167969 37.238281 19.054688 36.492188 18.066406 C 35.367188 16.574219 32.851562 17.003906 31 17.003906 L 17 17.003906 C 16.296875 17.003906 15.246094 17.003906 14.402344 17.003906 M 30.160156 23.382812 C 30.460938 23.382812 30.773438 23.464844 31.101562 23.671875 C 31.84375 24.144531 32.082031 25.28125 31.558594 25.988281 C 29.417969 28.007812 26.632812 31.492188 24 32.402344 C 21 30.589844 18.632812 28.3125 16.429688 25.917969 C 15.769531 24.847656 16.535156 23.570312 17.742188 23.402344 C 18.515625 23.292969 19.0625 23.757812 19.601562 24.214844 C 20.980469 25.53125 22.792969 27.488281 24 28.003906 C 25.464844 27.429688 26.566406 25.949219 27.816406 24.816406 C 28.472656 24.191406 29.257812 23.390625 30.160156 23.382812 M 30.160156 23.382812 "/>
</g>
</svg>
