<!-- color: #e2513d -->
<svg xmlns="http://www.w3.org/2000/svg" xmlns:xlink="http://www.w3.org/1999/xlink" width="48px" height="48px" viewBox="0 0 48 48" version="1.1">
<g id="surface1">
<path style=" stroke:none;fill-rule:nonzero;fill:rgb(87.058824%,87.058824%,87.058824%);fill-opacity:1;" d="M 12.984375 12 L 35.023438 12 C 35.566406 12 36.003906 12.515625 36.003906 13.148438 L 36.003906 34.851562 C 36.003906 35.484375 35.566406 36 35.023438 36 L 12.984375 36 C 12.441406 36 12 35.484375 12 34.851562 L 12 13.148438 C 12 12.515625 12.441406 12 12.984375 12 M 12.984375 12 "/>
<path style=" stroke:none;fill-rule:nonzero;fill:rgb(17.647059%,17.647059%,17.647059%);fill-opacity:1;" d="M 12.96875 12 C 12.425781 12 12 12.519531 12 13.15625 L 12 16 L 36 16 L 36 13.15625 C 36 12.519531 35.574219 12 35.03125 12 M 12.972656 12 "/>
</g>
</svg>
