<!-- color: #52525d -->
<svg xmlns="http://www.w3.org/2000/svg" xmlns:xlink="http://www.w3.org/1999/xlink" width="48px" height="48px" viewBox="0 0 48 48" version="1.1">
<g id="surface1">
<path style=" stroke:none;fill-rule:nonzero;fill:rgb(87.058824%,87.058824%,87.058824%);fill-opacity:1;" d="M 12.808594 13 C 12.371094 13.046875 12 13.480469 12.003906 13.941406 L 12.003906 34.0625 C 12.003906 34.554688 12.433594 35.003906 12.902344 35.003906 L 35.101562 35.003906 C 35.570312 35.003906 36 34.554688 36 34.0625 L 36 13.941406 C 36 13.449219 35.570312 13 35.101562 13 L 12.902344 13 C 12.871094 13 12.839844 13 12.808594 13 M 32.007812 14.214844 C 32.339844 14.214844 32.757812 14.652344 32.757812 15 C 32.757812 15.347656 32.339844 15.785156 32.007812 15.785156 C 31.675781 15.785156 31.257812 15.347656 31.257812 15 C 31.257812 14.652344 31.675781 14.214844 32.007812 14.214844 M 14.007812 16.917969 L 34.007812 16.917969 L 34.007812 33.402344 L 14.007812 33.402344 M 14.007812 16.917969 "/>
<path style=" stroke:none;fill-rule:nonzero;fill:rgb(97.647059%,97.647059%,97.647059%);fill-opacity:1;" d="M 21.550781 21 L 29.113281 21 C 30.703125 21 31.996094 22.292969 31.996094 23.886719 L 31.996094 26.117188 C 31.996094 27.710938 30.703125 29.003906 29.113281 29.003906 L 21.550781 29.003906 C 19.957031 29.003906 18.667969 27.710938 18.667969 26.117188 L 18.667969 23.886719 C 18.667969 22.292969 19.957031 21 21.550781 21 M 21.550781 21 "/>
<path style=" stroke:none;fill-rule:nonzero;fill:rgb(35.686275%,80.784314%,72.54902%);fill-opacity:1;" d="M 25.019531 25.019531 C 25.019531 27.503906 23 29.519531 20.519531 29.519531 C 18.035156 29.519531 16.019531 27.5 16.019531 25.019531 C 16.019531 22.535156 18.039062 20.519531 20.519531 20.519531 C 23.003906 20.519531 25.019531 22.539062 25.019531 25.019531 M 25.019531 25.019531 "/>
<path style=" stroke:none;fill-rule:nonzero;fill:rgb(9.019608%,47.058824%,40.784314%);fill-opacity:1;" d="M 23 25.019531 C 22.949219 26.363281 21.84375 27.425781 20.5 27.425781 C 19.15625 27.425781 18.050781 26.363281 18 25.019531 C 17.964844 24.105469 18.433594 23.242188 19.222656 22.773438 C 20.007812 22.308594 20.988281 22.308594 21.777344 22.773438 C 22.566406 23.242188 23.035156 24.105469 23 25.019531 M 23 25.019531 "/>
</g>
</svg>
