<!-- color: #79cbe0 -->
<svg xmlns="http://www.w3.org/2000/svg" xmlns:xlink="http://www.w3.org/1999/xlink" width="48px" height="48px" viewBox="0 0 48 48" version="1.1">
<g id="surface1">
<path style=" stroke:none;fill-rule:evenodd;fill:rgb(17.647059%,17.647059%,17.647059%);fill-opacity:1;" d="M 19.230469 15.488281 C 17.714844 15.3125 16.683594 16.324219 16.019531 17.613281 C 15.101562 16.34375 14 15.652344 12.441406 15.414062 C 11.917969 15.335938 11.230469 15.296875 10.886719 15.78125 C 10.507812 16.316406 11.023438 17.523438 11.378906 17.976562 C 11.621094 18.289062 11.917969 18.664062 12.289062 18.832031 C 12.820312 19.082031 13.40625 18.976562 13.878906 19.34375 C 13.691406 19.289062 13.535156 19.226562 13.335938 19.226562 C 12.25 19.21875 12.359375 20.261719 11.832031 20.941406 C 11.003906 22.007812 9.929688 22.933594 10.003906 24.398438 C 10.085938 26.035156 11.648438 27.511719 13.210938 27.808594 C 13.9375 27.945312 14.742188 27.859375 15.484375 27.859375 L 15.484375 27.992188 C 14.589844 28.039062 13.566406 28.023438 13.023438 28.386719 C 12.707031 28.992188 13.027344 29.378906 13.148438 29.851562 C 12.933594 29.949219 12.632812 30.019531 12.503906 30.261719 C 12.222656 30.71875 12.335938 31.152344 12.480469 31.703125 C 12.601562 32.167969 12.878906 32.535156 13.195312 32.875 C 13.558594 33.179688 14.21875 33.050781 14.804688 32.96875 C 15.339844 32.894531 16.269531 32.664062 16.796875 32.546875 C 17.898438 32.285156 18.332031 32.183594 19.484375 32.226562 C 20.183594 32.25 20.570312 32.84375 21.089844 33.238281 C 21.761719 33.753906 22.632812 34.082031 23.5 33.988281 C 24.007812 33.929688 24.453125 33.644531 24.8125 33.296875 C 25.007812 33.109375 25.1875 32.808594 25.460938 32.722656 C 25.828125 32.605469 26.472656 32.941406 26.84375 33.015625 C 28.011719 33.253906 29.488281 33.019531 30.054688 31.847656 L 32.863281 31.984375 L 34.210938 32.300781 C 35.230469 32.464844 36.765625 32.757812 37.113281 32.46875 C 37.492188 32.277344 38.109375 30.910156 37.96875 29.894531 C 37.832031 29.535156 37.535156 29.453125 37.152344 29.328125 C 37.285156 28.746094 37.519531 28.03125 37.234375 27.75 C 36.714844 27.324219 34.878906 27.332031 33.535156 27.203125 C 34.257812 26.367188 34.984375 25.414062 34.546875 24.277344 C 34.347656 23.761719 33.882812 23.335938 33.742188 22.8125 C 33.546875 22.101562 33.890625 21.308594 33.664062 20.550781 C 33.558594 20.1875 33.421875 19.808594 33.183594 19.507812 C 32.984375 19.242188 32.632812 19.089844 32.492188 18.78125 C 32.253906 18.269531 32.6875 17.652344 32.46875 17.09375 C 31.910156 15.695312 29.613281 15.011719 28.320312 15.628906 C 27.855469 14.015625 24.558594 13.597656 24.226562 14.425781 C 23.753906 14.03125 23.378906 14.007812 22.972656 14.0625 C 22.558594 14.121094 21.886719 14.378906 21.578125 14.746094 C 21.050781 14.34375 19.578125 14.269531 19.222656 15.496094 M 19.234375 15.492188 "/>
<path style=" stroke:none;fill-rule:evenodd;fill:rgb(100%,100%,100%);fill-opacity:1;" d="M 21.367188 15.753906 C 21.316406 15.640625 21.28125 15.472656 21.1875 15.375 C 20.671875 14.835938 20.050781 15.257812 19.714844 15.757812 C 19.585938 15.949219 19.460938 16.277344 19.203125 16.335938 C 18.96875 16.386719 18.824219 16.152344 18.691406 16.015625 C 17.914062 16.175781 17.058594 16.917969 16.816406 17.746094 C 17.96875 17.796875 18.800781 16.820312 20.027344 17.082031 C 20.765625 17.242188 22.070312 17.789062 22.109375 18.675781 C 22.144531 19.429688 21.285156 20.089844 20.691406 20.425781 C 19.964844 20.839844 19.183594 20.507812 18.417969 20.671875 C 18.683594 21.261719 19.316406 22.039062 19.367188 22.667969 C 19.460938 23.777344 18.757812 24.542969 18.324219 25.457031 C 18.097656 25.941406 18.261719 26.457031 18.085938 26.941406 C 17.8125 27.679688 16.835938 27.789062 16.144531 27.851562 C 16.246094 28.363281 16.5625 28.703125 16.746094 29.179688 C 16.863281 29.480469 16.855469 29.808594 16.984375 30.109375 C 17.472656 31.261719 18.386719 31.382812 19.488281 31.441406 C 19.660156 31.222656 19.898438 30.847656 20.230469 31.027344 C 20.539062 31.195312 20.585938 31.699219 20.769531 31.96875 C 21.269531 32.695312 22.460938 33.375 23.367188 33.230469 C 23.863281 33.152344 24.40625 32.855469 24.578125 32.359375 C 24.691406 32.046875 24.4375 31.367188 24.867188 31.230469 C 25.269531 31.101562 25.644531 31.777344 25.925781 31.972656 C 26.539062 32.394531 27.332031 32.472656 28.050781 32.351562 C 28.460938 32.28125 29.191406 32.125 29.34375 31.671875 C 29.460938 31.332031 28.878906 30.628906 29.421875 30.46875 C 29.839844 30.347656 30.175781 30.871094 30.472656 31.070312 C 31.101562 31.488281 32.21875 31.46875 32.808594 30.964844 C 33.558594 30.320312 33.925781 28.964844 33.3125 28.125 C 33.085938 27.816406 32.371094 27.5 32.4375 27.058594 C 32.484375 26.742188 32.910156 26.613281 33.132812 26.445312 C 33.597656 26.085938 33.96875 25.527344 33.90625 24.921875 C 33.84375 24.324219 33.394531 23.789062 32.964844 23.402344 C 32.75 23.214844 32.441406 23.054688 32.320312 22.78125 C 32.113281 22.308594 32.667969 22.175781 33.003906 22.128906 C 33.136719 21.226562 32.9375 20.171875 32.054688 19.695312 C 31.578125 19.433594 30.972656 19.390625 30.457031 19.203125 C 30.78125 18.796875 31.378906 18.578125 31.617188 18.125 C 32.261719 16.890625 29.996094 16.101562 29.097656 16.179688 C 28.765625 16.207031 28.414062 16.492188 28.082031 16.425781 C 27.667969 16.347656 27.511719 15.691406 27.214844 15.429688 C 26.710938 14.984375 25.425781 14.375 24.777344 14.84375 C 24.507812 15.039062 24.414062 15.457031 24.304688 15.75 C 24.113281 15.472656 23.945312 15.117188 23.6875 14.898438 C 22.835938 14.1875 21.949219 15.277344 21.359375 15.75 M 21.367188 15.753906 "/>
<path style=" stroke:none;fill-rule:evenodd;fill:rgb(89.411765%,72.54902%,71.764706%);fill-opacity:1;" d="M 15.484375 18.546875 C 15.191406 17.449219 14.039062 16.503906 12.945312 16.242188 C 12.570312 16.152344 11.769531 15.996094 11.578125 16.457031 C 11.402344 16.890625 11.808594 17.421875 12.078125 17.722656 C 12.628906 18.34375 13.144531 18.296875 13.882812 18.46875 C 14.53125 18.617188 14.828125 18.777344 15.488281 18.546875 M 15.484375 18.546875 "/>
<path style=" stroke:none;fill-rule:evenodd;fill:rgb(89.411765%,72.54902%,71.764706%);fill-opacity:1;" d="M 17.222656 18.546875 C 17.433594 19.007812 17.753906 19.574219 18.195312 19.855469 C 19.140625 20.46875 20.964844 20.386719 21.277344 19.078125 C 21.59375 17.753906 19.382812 17.488281 18.558594 17.789062 C 18.078125 17.96875 17.660156 18.285156 17.21875 18.546875 M 17.222656 18.546875 "/>
<path style=" stroke:none;fill-rule:evenodd;fill:rgb(89.411765%,72.54902%,71.764706%);fill-opacity:1;" d="M 16.128906 18.769531 L 16.128906 18.84375 C 16.128906 18.914062 16.691406 19.621094 16.480469 20.9375 C 16.296875 21.585938 15.9375 22.175781 15.578125 22.789062 C 15.390625 22.988281 15.234375 23.128906 14.851562 23.125 C 14.269531 22.9375 14.324219 22.492188 14.152344 22.136719 C 13.816406 22.34375 13.390625 23.050781 12.964844 22.980469 C 12.480469 22.90625 12.363281 21.90625 11.777344 22.160156 C 11.441406 22.308594 11.023438 22.886719 10.867188 23.183594 C 10.015625 24.832031 11.191406 26.625 12.878906 27.128906 C 13.929688 27.4375 15.207031 27.53125 16.269531 27.300781 C 16.636719 27.21875 17.085938 27.230469 17.417969 26.929688 C 17.878906 26.5625 17.773438 25.597656 18.015625 25.113281 C 18.371094 24.390625 18.84375 23.925781 18.886719 23.070312 C 18.914062 22.539062 18.480469 22.175781 18.246094 21.742188 C 17.6875 20.722656 17.144531 19.488281 16.140625 18.777344 M 16.132812 18.769531 "/>
<path style=" stroke:none;fill-rule:evenodd;fill:rgb(100%,100%,100%);fill-opacity:1;" d="M 14.546875 21.871094 L 14.683594 21.871094 C 15.039062 21.628906 15.175781 21.71875 15.488281 22.003906 C 15.964844 21.492188 16.105469 20.765625 15.949219 20.199219 C 15.269531 19.183594 14.671875 20.257812 14.558594 20.804688 C 14.484375 21.175781 14.484375 21.507812 14.546875 21.871094 M 14.546875 21.871094 "/>
<path style=" stroke:none;fill-rule:evenodd;fill:rgb(100%,100%,100%);fill-opacity:1;" d="M 12.539062 21.734375 L 12.675781 21.734375 C 13.027344 21.492188 13.167969 21.585938 13.480469 21.871094 C 13.6875 21.4375 14.359375 19.660156 13.34375 19.71875 C 12.558594 19.765625 12.546875 21.191406 12.539062 21.738281 M 12.539062 21.738281 "/>
<path style=" stroke:none;fill-rule:evenodd;fill:rgb(89.411765%,72.54902%,71.764706%);fill-opacity:1;" d="M 33.628906 27.636719 C 33.925781 27.964844 34.003906 28.277344 34.113281 28.699219 L 36.777344 29.179688 C 36.863281 28.972656 37.152344 28.335938 36.890625 28.050781 C 36.410156 27.730469 34.625 27.742188 33.625 27.636719 M 33.628906 27.636719 "/>
<path style=" stroke:none;fill-rule:evenodd;fill:rgb(89.411765%,72.54902%,71.764706%);fill-opacity:1;" d="M 13.296875 28.664062 C 13.089844 29.054688 13.375 29.253906 13.519531 29.703125 C 14.601562 29.578125 15.574219 29.363281 16.285156 29.335938 L 15.847656 28.316406 C 14.867188 28.402344 13.625 28.277344 13.296875 28.667969 M 13.296875 28.664062 "/>
<path style=" stroke:none;fill-rule:evenodd;fill:rgb(89.411765%,72.54902%,71.764706%);fill-opacity:1;" d="M 34.160156 29.121094 C 34.324219 29.867188 33.75 30.78125 32.972656 31.480469 C 34.167969 31.835938 36.300781 32.3125 36.785156 32.152344 C 37.269531 31.945312 37.84375 30.441406 37.585938 29.984375 C 37.195312 29.582031 35.273438 29.335938 34.15625 29.121094 M 34.160156 29.121094 "/>
<path style=" stroke:none;fill-rule:evenodd;fill:rgb(89.411765%,72.54902%,71.764706%);fill-opacity:1;" d="M 12.761719 30.464844 C 12.542969 30.957031 12.816406 32.253906 13.480469 32.628906 C 14.875 32.777344 16.46875 32.199219 17.863281 31.839844 C 17.089844 31.289062 16.488281 30.695312 16.421875 29.757812 C 15.175781 29.980469 13.488281 29.941406 12.761719 30.464844 M 12.761719 30.464844 "/>
</g>
</svg>
