<!-- color: #ffbe33 --><svg xmlns="http://www.w3.org/2000/svg" viewBox="0 0 48 48"><g><path d="m 23.781 12 c -1.902 0.043 -3.977 0.633 -6.25 1.969 l 4.469 7.406 c 1.477 -0.844 2.82 -0.684 4.125 0 l 4.375 -7.406 c -2.086 -1.195 -4.273 -2.027 -6.719 -1.969 m 0.25 10.438 c -1.309 0 -2.375 1.094 -2.375 2.438 c 0 1.344 1.066 2.438 2.375 2.438 c 1.309 0 2.375 -1.094 2.375 -2.438 c 0 -1.344 -1.066 -2.438 -2.375 -2.438 m -12.531 1.844 c -0.051 5.09 1.914 8.914 5.906 11.469 l 4.531 -7.375 c -1.387 -0.996 -1.84 -2.277 -1.813 -3.781 m 16.375 -0.219 l -8.5 0.313 c -0.023 1.738 -0.805 2.836 -2.031 3.656 l 4.344 7.656 c 5.266 -3.395 6.207 -7.445 6.188 -11.625 m 0 0" fill="#2d2d2d" stroke="none" fill-rule="nonzero" fill-opacity="1"/></g></svg>