<!-- color: #6ba1cf -->
<svg xmlns="http://www.w3.org/2000/svg" xmlns:xlink="http://www.w3.org/1999/xlink" width="48px" height="48px" viewBox="0 0 48 48" version="1.1">
<g id="surface1">
<path style=" stroke:none;fill-rule:nonzero;fill:rgb(100%,100%,100%);fill-opacity:1;" d="M 24 11.984375 C 16.820312 11.984375 11 17.171875 11 23.570312 C 11 27.429688 13.128906 30.828125 16.382812 32.921875 C 16.265625 33.363281 16.113281 33.832031 15.875 34.316406 C 15.066406 35.972656 14.25 35.972656 14.25 35.972656 C 14.25 35.972656 16.6875 35.972656 18.3125 35.144531 C 18.65625 34.96875 18.957031 34.683594 19.230469 34.34375 C 20.710938 34.867188 22.300781 35.144531 24.003906 35.144531 C 31.183594 35.144531 37.003906 29.957031 37.003906 23.554688 C 37.003906 17.160156 31.183594 11.96875 24.003906 11.96875 M 19.558594 16.125 L 24 20.675781 L 28.441406 16.125 L 31.3125 19.046875 L 26.871094 23.570312 L 31.3125 28.125 L 28.441406 31.019531 L 24 26.496094 L 19.558594 31.019531 L 16.6875 28.125 L 21.128906 23.570312 L 16.6875 19.046875 M 19.558594 16.125 "/>
</g>
</svg>
