<!-- color: #82a5dc -->
<svg xmlns="http://www.w3.org/2000/svg" xmlns:xlink="http://www.w3.org/1999/xlink" width="48px" height="48px" viewBox="0 0 48 48" version="1.1">
<g id="surface1">
<path style=" stroke:none;fill-rule:nonzero;fill:rgb(17.647059%,17.647059%,17.647059%);fill-opacity:1;" d="M 21.523438 13.359375 C 20.804688 14.15625 20.488281 15.226562 20.335938 15.675781 C 19.875 16.925781 21.105469 16.824219 21.921875 15.527344 C 23.203125 13.582031 23.714844 15.277344 23.765625 21.414062 C 23.816406 26.605469 23.664062 27.605469 22.589844 29.699219 C 21.101562 32.695312 19.414062 33.894531 17.722656 33.144531 C 16.800781 32.746094 16.289062 32.796875 15.625 33.246094 C 14.855469 33.792969 14.804688 33.992188 15.421875 34.941406 C 17.261719 37.785156 21.71875 34.792969 26.941406 27.15625 C 30.292969 22.316406 31.425781 16.015625 31.71875 15.074219 C 31.972656 14.066406 32.265625 12.09375 31.550781 12.09375 C 29.097656 13.695312 27.339844 24.96875 26.164062 25.101562 C 26.039062 20.117188 26.097656 7.953125 21.519531 13.363281 M 21.523438 13.367188 "/>
</g>
</svg>
