<!-- color: #e5e5e5 -->
<svg xmlns="http://www.w3.org/2000/svg" xmlns:xlink="http://www.w3.org/1999/xlink" width="48px" height="48px" viewBox="0 0 48 48" version="1.1">
<g id="surface1">
<path style=" stroke:none;fill-rule:nonzero;fill:rgb(18.431373%,57.647059%,71.764706%);fill-opacity:1;" d="M 36.726562 23.253906 C 36.453125 22.902344 36.15625 22.574219 35.855469 22.253906 C 34.234375 20.5 32.375 18.9375 30.335938 17.808594 C 29.039062 17.085938 27.644531 16.5 26.203125 16.222656 C 25.46875 16.078125 24.75 16.003906 23.996094 16.003906 C 23.261719 16.003906 22.527344 16.078125 21.792969 16.222656 C 20.351562 16.5 18.964844 17.085938 17.664062 17.808594 C 15.625 18.941406 13.765625 20.5 12.144531 22.253906 C 11.84375 22.574219 11.546875 22.90625 11.273438 23.253906 C 10.914062 23.722656 10.914062 24.277344 11.273438 24.746094 C 12.105469 25.816406 13.09375 26.765625 14.09375 27.636719 C 16.257812 29.511719 18.730469 31.078125 21.457031 31.710938 C 22.300781 31.90625 23.148438 32.003906 24 32.003906 C 24.855469 32.003906 25.699219 31.90625 26.542969 31.710938 C 29.269531 31.082031 31.746094 29.511719 33.914062 27.636719 C 34.914062 26.765625 35.90625 25.816406 36.734375 24.746094 C 37.09375 24.277344 37.09375 23.722656 36.734375 23.253906 M 23.992188 29.449219 C 21.230469 29.441406 19 27.007812 19 24.003906 C 19 20.992188 21.234375 18.5625 23.992188 18.554688 C 26.777344 18.5625 28.984375 20.996094 28.984375 24.003906 C 28.984375 27.003906 26.773438 29.441406 23.992188 29.449219 M 23.992188 29.449219 "/>
<path style=" stroke:none;fill-rule:nonzero;fill:rgb(89.019608%,26.666667%,27.45098%);fill-opacity:1;" d="M 24.011719 17.128906 C 20.195312 17.128906 17.085938 20.234375 17.085938 24.035156 C 17.085938 27.839844 20.191406 30.945312 24.011719 30.945312 C 27.824219 30.945312 30.933594 27.839844 30.933594 24.035156 C 30.933594 20.234375 27.820312 17.128906 24.011719 17.128906 M 24.011719 19.257812 C 26.660156 19.257812 28.800781 21.382812 28.800781 24.035156 C 28.800781 26.6875 26.660156 28.816406 24.011719 28.816406 C 21.351562 28.816406 19.21875 26.6875 19.21875 24.035156 C 19.21875 21.382812 21.351562 19.257812 24.011719 19.257812 M 24.011719 19.257812 "/>
<path style=" stroke:none;fill-rule:nonzero;fill:rgb(89.019608%,26.666667%,27.45098%);fill-opacity:1;" d="M 27.128906 23.4375 C 26.9375 23.457031 26.769531 23.582031 26.691406 23.757812 C 26.617188 23.9375 26.640625 24.144531 26.761719 24.296875 C 26.878906 24.453125 27.070312 24.53125 27.261719 24.503906 L 31.457031 24.503906 C 31.75 24.503906 31.988281 24.265625 31.988281 23.96875 C 31.988281 23.675781 31.75 23.4375 31.457031 23.4375 L 27.261719 23.4375 C 27.21875 23.429688 27.171875 23.429688 27.128906 23.4375 M 27.128906 23.4375 "/>
<path style=" stroke:none;fill-rule:nonzero;fill:rgb(89.019608%,26.666667%,27.45098%);fill-opacity:1;" d="M 16.488281 23.46875 C 16.191406 23.496094 15.976562 23.757812 16.003906 24.050781 C 16.03125 24.347656 16.292969 24.5625 16.585938 24.535156 L 20.8125 24.535156 C 21.109375 24.535156 21.347656 24.296875 21.347656 24 C 21.347656 23.707031 21.109375 23.46875 20.8125 23.46875 L 16.585938 23.46875 C 16.554688 23.464844 16.519531 23.464844 16.488281 23.46875 M 16.488281 23.46875 "/>
<path style=" stroke:none;fill-rule:nonzero;fill:rgb(89.019608%,26.666667%,27.45098%);fill-opacity:1;" d="M 23.910156 16.011719 C 23.65625 16.0625 23.472656 16.28125 23.476562 16.546875 L 23.476562 20.839844 C 23.476562 21.132812 23.714844 21.367188 24.011719 21.367188 C 24.304688 21.367188 24.542969 21.132812 24.542969 20.839844 L 24.539062 16.546875 C 24.542969 16.386719 24.472656 16.230469 24.351562 16.128906 C 24.230469 16.023438 24.066406 15.980469 23.910156 16.011719 M 23.910156 16.011719 "/>
<path style=" stroke:none;fill-rule:nonzero;fill:rgb(89.019608%,26.666667%,27.45098%);fill-opacity:1;" d="M 23.945312 26.699219 C 23.664062 26.730469 23.457031 26.980469 23.476562 27.261719 L 23.476562 31.460938 C 23.476562 31.753906 23.714844 31.992188 24.007812 31.992188 C 24.304688 31.992188 24.542969 31.753906 24.542969 31.460938 L 24.542969 27.261719 C 24.554688 27.105469 24.492188 26.949219 24.375 26.839844 C 24.261719 26.730469 24.101562 26.675781 23.945312 26.699219 M 23.945312 26.699219 "/>
<path style=" stroke:none;fill-rule:nonzero;fill:rgb(89.019608%,26.666667%,27.45098%);fill-opacity:1;" d="M 25.605469 24 C 25.605469 24.882812 24.890625 25.597656 24.007812 25.597656 C 23.125 25.597656 22.410156 24.882812 22.410156 24 C 22.410156 23.117188 23.125 22.402344 24.007812 22.402344 C 24.890625 22.402344 25.605469 23.117188 25.605469 24 M 25.605469 24 "/>
</g>
</svg>
