<?xml version="1.0" encoding="UTF-8" standalone="no"?>
<svg
   xmlns:dc="http://purl.org/dc/elements/1.1/"
   xmlns:cc="http://creativecommons.org/ns#"
   xmlns:rdf="http://www.w3.org/1999/02/22-rdf-syntax-ns#"
   xmlns:svg="http://www.w3.org/2000/svg"
   xmlns="http://www.w3.org/2000/svg"
   xmlns:xlink="http://www.w3.org/1999/xlink"
   xmlns:sodipodi="http://sodipodi.sourceforge.net/DTD/sodipodi-0.dtd"
   xmlns:inkscape="http://www.inkscape.org/namespaces/inkscape"
   width="48"
   viewBox="0 0 13.546667 13.546667"
   height="48"
   id="svg2"
   version="1.1"
   inkscape:version="0.48.4 r9939"
   sodipodi:docname="darktable.svg"
   inkscape:export-filename="/media/Data/Main/Visuals/Icons/Numix/Desktop/repos/numix-wiki/Joern/image-viewer-icons/darktable.png"
   inkscape:export-xdpi="450"
   inkscape:export-ydpi="450">
  <metadata
     id="metadata34">
    <rdf:RDF>
      <cc:Work
         rdf:about="">
        <dc:format>image/svg+xml</dc:format>
        <dc:type
           rdf:resource="http://purl.org/dc/dcmitype/StillImage" />
        <dc:title></dc:title>
      </cc:Work>
    </rdf:RDF>
  </metadata>
  <sodipodi:namedview
     pagecolor="#333333"
     bordercolor="#666666"
     borderopacity="1"
     objecttolerance="10"
     gridtolerance="10"
     guidetolerance="10"
     inkscape:pageopacity="1"
     inkscape:pageshadow="2"
     inkscape:window-width="1366"
     inkscape:window-height="740"
     id="namedview32"
     showgrid="false"
     inkscape:zoom="11.081706"
     inkscape:cx="24.180478"
     inkscape:cy="24"
     inkscape:window-x="0"
     inkscape:window-y="28"
     inkscape:window-maximized="1"
     inkscape:current-layer="svg2" />
  <defs
     id="defs4">
    <linearGradient
       id="linearGradient4460">
      <stop
         offset="0"
         style="stop-color:#2d2d2d"
         id="stop7" />
      <stop
         offset="1"
         style="stop-color:#4b4b4b"
         id="stop9" />
    </linearGradient>
    <linearGradient
       gradientTransform="matrix(1.10525 0 0 1.10525 -134.27874 -295.76183)"
       xlink:href="#linearGradient4460"
       id="linearGradient3032"
       y1="279.096"
       y2="268.33"
       gradientUnits="userSpaceOnUse"
       x2="0" />
  </defs>
  <g
     style="fill-rule:evenodd"
     id="g12">
    <rect
       width="12.982"
       x=".282"
       y=".282"
       rx="6.491"
       height="12.982"
       style="opacity:.5;fill:#fff"
       id="rect14" />
    <rect
       width="11.853"
       x=".847"
       y=".847"
       rx="5.926"
       height="11.853"
       style="fill:url(#linearGradient3032)"
       id="rect16" />
  </g>
  <path
     style="fill:#d6721a;filter:url(#filter3903)"
     d="M 7.6419838,2.7212628 6.6212263,5.586276 10.640998,4.9194892 C 10.045601,3.7921355 8.9487377,2.9637125 7.6419838,2.7212628 z"
     id="path18" />
  <path
     style="fill:#f1e627;filter:url(#filter3903)"
     d="M 10.766876,5.4890003 7.7399545,6.0499289 10.335523,9.1488365 c 0.69254,-1.0720597 0.871767,-2.4228351 0.431353,-3.6598362 z"
     id="path20" />
  <path
     style="fill:#25a334;filter:url(#filter3903)"
     d="M 9.8982248,9.5410711 7.8920619,7.2369864 6.4678584,11.002681 c 1.2879366,0.05533 2.5640272,-0.467059 3.4303664,-1.4616099 z"
     id="path22" />
  <path
     style="fill:#2a7dda;filter:url(#filter3903)"
     d="M 5.9046828,10.825413 6.9254406,7.9603911 2.9056689,8.627178 c 0.5953974,1.1273627 1.6922604,1.955777 2.9990139,2.198235 z"
     id="path24" />
  <path
     style="fill:#bb22c4;filter:url(#filter3903)"
     d="M 2.7797915,8.0576668 5.8067121,7.4967383 3.211144,4.3978306 C 2.5186045,5.4698903 2.3393772,6.8206658 2.7797915,8.0576668 z"
     id="path26" />
  <path
     style="fill:#b21628;filter:url(#filter3903)"
     d="M 3.6484419,4.0055961 5.6546052,6.3096807 7.0788086,2.5439862 C 5.7908716,2.4886558 4.5147813,3.0110447 3.6484419,4.0055961 z"
     id="path28" />
  <path
     style="fill:#f9f9f9"
     d="m 7.3622764,6.7732879 c 0,0.3206611 -0.2636523,0.5806047 -0.5888838,0.5806047 -0.3252315,0 -0.5888838,-0.2599436 -0.5888838,-0.5806047 0,-0.3206519 0.2636523,-0.5805955 0.5888838,-0.5805955 0.3252315,0 0.5888838,0.2599436 0.5888838,0.5805955 z"
     id="path30" />
</svg>
