<?xml version="1.0" encoding="UTF-8" standalone="no"?>
<!-- Created with Inkscape (http://www.inkscape.org/) -->

<svg
   xmlns:dc="http://purl.org/dc/elements/1.1/"
   xmlns:cc="http://creativecommons.org/ns#"
   xmlns:rdf="http://www.w3.org/1999/02/22-rdf-syntax-ns#"
   xmlns:svg="http://www.w3.org/2000/svg"
   xmlns="http://www.w3.org/2000/svg"
   xmlns:sodipodi="http://sodipodi.sourceforge.net/DTD/sodipodi-0.dtd"
   xmlns:inkscape="http://www.inkscape.org/namespaces/inkscape"
   width="48"
   height="48"
   id="svg2"
   version="1.1"
   inkscape:version="0.48.4 r9939"
   sodipodi:docname="gtk-missing-image.svg">
  <defs
     id="defs4" />
  <sodipodi:namedview
     id="base"
     pagecolor="#ffffff"
     bordercolor="#666666"
     borderopacity="1.0"
     inkscape:pageopacity="0.0"
     inkscape:pageshadow="2"
     inkscape:zoom="11.583333"
     inkscape:cx="0.010848871"
     inkscape:cy="23.916062"
     inkscape:document-units="px"
     inkscape:current-layer="layer1"
     showgrid="true"
     inkscape:snap-bbox="true"
     inkscape:window-width="1301"
     inkscape:window-height="744"
     inkscape:window-x="65"
     inkscape:window-y="24"
     inkscape:window-maximized="1"
     inkscape:object-nodes="false"
     inkscape:snap-nodes="true"
     showguides="true"
     inkscape:guide-bbox="true">
    <inkscape:grid
       type="xygrid"
       id="grid3005"
       empspacing="6"
       visible="true"
       enabled="true"
       snapvisiblegridlinesonly="true" />
    <sodipodi:guide
       orientation="0,1"
       position="18,42"
       id="guide2989" />
    <sodipodi:guide
       orientation="0,1"
       position="17,6"
       id="guide2991" />
    <sodipodi:guide
       orientation="1,0"
       position="3,38"
       id="guide2993" />
    <sodipodi:guide
       orientation="1,0"
       position="45,33"
       id="guide2995" />
  </sodipodi:namedview>
  <metadata
     id="metadata7">
    <rdf:RDF>
      <cc:Work
         rdf:about="">
        <dc:format>image/svg+xml</dc:format>
        <dc:type
           rdf:resource="http://purl.org/dc/dcmitype/StillImage" />
        <dc:title />
      </cc:Work>
    </rdf:RDF>
  </metadata>
  <g
     inkscape:label="Layer 1"
     inkscape:groupmode="layer"
     id="layer1"
     transform="translate(0,-1004.3622)">
    <rect
       style="fill:#b2ebf2;fill-opacity:1;stroke:none"
       id="rect2990"
       width="36"
       height="36"
       x="6"
       y="6"
       transform="translate(0,1004.3622)"
       ry="3" />
    <path
       style="fill:#ffffff;fill-opacity:1;stroke:none"
       d="M 18 13 L 16 15 L 16 21 L 21 21 L 21 18 L 26 18 L 26 20 L 21 25 L 21 30 L 27 30 L 27 26 L 31 22 L 31 15 L 29 13 L 18 13 z M 21 33 L 21 37 L 27 37 L 27 33 L 21 33 z "
       transform="translate(0,1004.3622)"
       id="path2990" />
    <path
       style="fill:#000000;fill-opacity:1;stroke:none;opacity:0.1"
       d="M 31 15 L 31 22 L 27 26 L 27 30 L 22 30 L 22 31 L 28 31 L 28 27 L 32 23 L 32 16 L 31 15 z M 21 18 L 21 21 L 17 21 L 17 22 L 22 22 L 22 19 L 26 19 L 26 18 L 21 18 z M 27 34 L 27 37 L 22 37 L 22 38 L 28 38 L 28 34 L 27 34 z "
       transform="translate(0,1004.3622)"
       id="path3765" />
  </g>
</svg>
