<!-- color: #00c9d4 -->
<svg xmlns="http://www.w3.org/2000/svg" width="48" height="48" viewBox="0 0 48 48">
 <g>
  <path d="M 23.535156 9.003906 C 22.304688 9.023438 21.128906 9.128906 20.429688 9.320312 C 17.648438 10.074219 15.828125 11.078125 13.785156 12.984375 C 10.234375 16.300781 8.671875 20.421875 9.058594 25.445312 C 9.195312 27.25 10.074219 30.015625 11.003906 31.546875 C 12.945312 34.761719 15.757812 37.023438 19.273438 38.183594 C 20.929688 38.734375 23.277344 39.09375 24.40625 38.976562 C 24.699219 38.945312 25.449219 38.875 26.070312 38.816406 C 27.636719 38.667969 29.289062 38.128906 31.164062 37.160156 C 32.476562 36.484375 33.089844 36.011719 34.546875 34.558594 C 36.84375 32.261719 37.839844 30.578125 38.679688 27.527344 C 39.117188 25.945312 39.105469 21.886719 38.65625 20.273438 C 37.148438 14.808594 33.179688 10.851562 27.699219 9.335938 C 26.796875 9.089844 25.117188 8.976562 23.535156 9.003906 Z M 22.789062 14.660156 C 23 14.640625 23.613281 14.734375 24.269531 14.886719 C 25.425781 15.160156 25.65625 15.273438 25.800781 15.664062 C 25.941406 16.027344 26.199219 16.1875 27.085938 16.441406 C 28.230469 16.769531 29.753906 17.648438 30.078125 18.171875 C 30.222656 18.40625 30.050781 18.742188 29.242188 19.8125 C 28.683594 20.554688 28.144531 21.160156 28.046875 21.160156 C 27.949219 21.160156 27.382812 20.914062 26.785156 20.617188 C 25.347656 19.894531 23.925781 19.644531 22.984375 19.949219 C 22.46875 20.121094 22.257812 20.296875 22.21875 20.589844 C 22.144531 21.097656 22.703125 21.339844 25.273438 21.949219 C 29.25 22.882812 30.730469 24.21875 30.722656 26.851562 C 30.714844 29.234375 29.164062 31.128906 26.675781 31.796875 C 26.101562 31.949219 25.917969 32.082031 25.917969 32.355469 C 25.917969 32.957031 25.582031 33.40625 25.15625 33.371094 C 24.941406 33.355469 24.367188 33.308594 23.878906 33.269531 C 22.867188 33.195312 22.539062 32.988281 22.539062 32.441406 C 22.539062 32.109375 22.335938 31.992188 21.160156 31.652344 C 19.699219 31.226562 17.382812 29.984375 17.382812 29.621094 C 17.382812 29.304688 19.316406 26.484375 19.535156 26.484375 C 19.636719 26.484375 19.992188 26.6875 20.324219 26.9375 C 21.761719 28.035156 24.949219 28.632812 25.878906 27.980469 C 26.371094 27.640625 26.402344 26.914062 25.9375 26.667969 C 25.746094 26.566406 24.582031 26.242188 23.351562 25.953125 C 20.730469 25.328125 19.609375 24.808594 18.765625 23.828125 C 17.570312 22.433594 17.417969 20.75 18.320312 19.007812 C 18.972656 17.757812 19.898438 16.941406 21.238281 16.445312 C 22.378906 16.027344 22.539062 15.882812 22.539062 15.292969 C 22.539062 15.019531 22.621094 14.738281 22.722656 14.675781 C 22.734375 14.667969 22.761719 14.664062 22.789062 14.660156 Z M 22.789062 14.660156 " fill="#f9f9f9"/>
 </g>
</svg>
