<!-- color: #e56447 -->
<svg xmlns="http://www.w3.org/2000/svg" width="48" height="48" viewBox="0 0 48 48">
 <g>
  <path d="M 25.839844 13 C 23.667969 13.109375 21.238281 12.898438 19.421875 14.324219 C 16.445312 16.503906 16.496094 21.542969 19.503906 23.675781 C 21.609375 25.320312 24.332031 25.972656 26.375 27.714844 C 27.007812 28.691406 26.898438 30.144531 25.941406 30.878906 C 23.8125 31.929688 20.882812 31.367188 19.019531 30.269531 C 17.832031 30.3125 17.402344 31.789062 17 32.679688 C 17.089844 33.757812 18.359375 33.976562 19.1875 34.316406 C 21.488281 35.109375 24.039062 35.234375 26.390625 34.574219 C 28.878906 33.457031 31.132812 30.886719 30.992188 28.457031 C 31.039062 27.203125 30.398438 26.113281 29.617188 25.183594 C 28.667969 23.730469 27.035156 22.992188 25.546875 22.21875 C 24.316406 21.585938 23.019531 21.023438 21.949219 20.144531 C 20.84375 18.929688 21.691406 16.617188 23.375 16.507812 C 24.527344 16.300781 25.695312 16.535156 26.816406 16.792969 C 27.660156 17.503906 29.199219 17.382812 29.40625 16.167969 C 30.210938 15.429688 29.277344 14.722656 28.609375 14.382812 C 27.546875 13.933594 26.355469 14.109375 25.234375 14.078125 C 23.980469 14.152344 22.65625 14.519531 21.789062 15.472656 C 21.726562 16.359375 20.34375 17.777344 19.765625 16.519531 C 19.546875 15.230469 21.050781 14.703125 22.050781 14.4375 C 23.332031 14 24.597656 13.527344 25.839844 13 Z M 25.839844 13 " fill="#ffffff"/>
 </g>
</svg>
