<!-- color: #ff7e31 -->
<svg xmlns="http://www.w3.org/2000/svg" width="48" height="48" viewBox="0 0 48 48">
 <g>
  <path d="M 18.5 12 C 19.328125 12 20.074219 12.671875 19.996094 13.5 L 18 34.5 C 17.917969 35.328125 17.332031 36 16.5 36 C 15.671875 36 14.925781 35.328125 15.003906 34.5 L 17 13.5 C 17.082031 12.671875 17.667969 12 18.5 12 Z M 18.5 12 " fill="#f9f9f9"/>
  <path d="M 18.5 11.996094 L 32.5 11.996094 C 33.328125 11.996094 34 12.667969 34 13.496094 C 34 14.328125 33.328125 14.996094 32.5 14.996094 L 18.5 14.996094 C 17.671875 14.996094 17 14.328125 17 13.496094 C 17 12.667969 17.671875 11.996094 18.5 11.996094 Z M 18.5 11.996094 " fill="#f9f9f9"/>
  <path d="M 16.5 32.996094 L 30.5 32.996094 C 31.328125 32.996094 32 33.667969 32 34.496094 C 32 35.328125 31.328125 35.996094 30.5 35.996094 L 16.5 35.996094 C 15.671875 35.996094 15 35.328125 15 34.496094 C 15 33.667969 15.671875 32.996094 16.5 32.996094 Z M 16.5 32.996094 " fill="#f9f9f9"/>
  <path d="M 17.5 22.996094 L 29.5 22.996094 C 30.328125 22.996094 31 23.667969 31 24.496094 C 31 25.328125 30.328125 25.996094 29.5 25.996094 L 17.5 25.996094 C 16.671875 25.996094 16 25.328125 16 24.496094 C 16 23.667969 16.671875 22.996094 17.5 22.996094 Z M 17.5 22.996094 " fill="#f9f9f9"/>
 </g>
</svg>
