<!-- color: #e7e7e7 -->
<svg xmlns="http://www.w3.org/2000/svg" width="48" height="48" viewBox="0 0 48 48">
 <g>
  <path d="M 22 6.003906 L 15 18.003906 L 33 18.003906 L 26 6.003906 Z M 24 9.003906 L 28 15.003906 L 20 15.003906 Z M 24 9.003906 " fill="#535353"/>
  <path d="M 15 18.003906 L 27 18.003906 L 27 24.003906 L 21 24.003906 L 21 30.003906 L 15 30.003906 Z M 15 18.003906 " fill="#eb5b5b"/>
  <path d="M 27 18 L 33 18 L 33 24 L 27 24 Z M 27 18 " fill="#f49c71"/>
  <path d="M 15 30 L 21 30 L 21 36 L 15 36 Z M 15 30 " fill="#f49c71"/>
  <path d="M 27 24 L 33 24 L 33 30 L 27 30 Z M 27 24 " fill="#fade7f"/>
  <path d="M 21 24 L 27 24 L 27 30 L 21 30 Z M 21 24 " fill="#f49c71"/>
  <path d="M 21 30 L 27 30 L 27 36 L 21 36 Z M 21 30 " fill="#fade7f"/>
  <path d="M 15 36 L 21 36 L 21 42 L 15 42 Z M 15 36 " fill="#fade7f"/>
 </g>
</svg>
