<!-- color: #edea43 -->
<svg xmlns="http://www.w3.org/2000/svg" width="48" height="48" viewBox="0 0 48 48">
 <g>
  <path d="M 28.257812 36.949219 C 29.351562 37.359375 34.957031 35.203125 35.082031 34.511719 C 35.394531 34.101562 34.976562 33.238281 34.976562 33.238281 L 30.867188 21.625 C 30.28125 20.183594 28.378906 19.921875 27.988281 19.019531 L 25.230469 13.140625 C 25.792969 12.671875 25.007812 12.058594 24.800781 11.835938 C 25.019531 11.226562 24.578125 11.339844 24.460938 11.300781 C 23.261719 11.636719 22.722656 11.847656 21.476562 12.402344 C 21.476562 12.402344 21.105469 12.902344 21.671875 12.960938 C 21.84375 13.082031 21.210938 14.285156 22.167969 14.265625 L 23.824219 20.613281 C 24.035156 21.710938 22.914062 22.757812 23.273438 24.148438 L 27.804688 36.269531 C 27.804688 36.269531 28.011719 36.839844 28.257812 36.945312 Z M 28.257812 36.949219 " fill="#634520"/>
  <path d="M 13.039062 33.941406 C 13.609375 34.960938 19.289062 36.910156 19.832031 36.460938 C 20.332031 36.347656 20.566406 35.417969 20.566406 35.417969 L 24.882812 23.878906 C 25.359375 22.398438 24.070312 20.976562 24.351562 20.035156 L 26.019531 13.757812 C 26.75 13.761719 26.542969 12.785156 26.527344 12.480469 C 27.085938 12.15625 26.679688 11.957031 26.613281 11.851562 C 25.480469 11.339844 24.929688 11.15625 23.617188 10.777344 C 23.617188 10.777344 23.015625 10.925781 23.410156 11.332031 C 23.460938 11.535156 22.207031 12.050781 22.949219 12.652344 L 20.140625 18.578125 C 19.597656 19.554688 18.0625 19.632812 17.445312 20.933594 L 13.125 33.128906 C 13.125 33.128906 12.917969 33.699219 13.039062 33.941406 Z M 13.039062 33.941406 " fill="#369c20"/>
 </g>
</svg>
