<!-- color: #e0f5f8 -->
<svg xmlns="http://www.w3.org/2000/svg" width="48" height="48" viewBox="0 0 48 48">
 <g>
  <path d="M 19.21875 15 C 17.058594 14.949219 14.96875 15.664062 13.421875 16.980469 C 11.871094 18.300781 11 20.109375 11 22 C 11.007812 23.648438 11.683594 25.242188 12.90625 26.5 L 12 31 L 15.5625 28.3125 C 18.039062 29.34375 20.949219 29.191406 23.269531 27.914062 C 25.589844 26.632812 26.996094 24.398438 27 22 C 27 18.207031 23.550781 15.105469 19.21875 15 Z M 19.21875 15 " fill="#95b9ed"/>
  <path d="M 30.5625 19 C 27.421875 19.191406 24.992188 21.375 25 24 C 25 25.617188 25.941406 27.132812 27.523438 28.070312 C 29.105469 29.007812 31.136719 29.25 32.96875 28.71875 L 36 31 L 35.3125 27.5 C 36.402344 26.5625 37.007812 25.304688 37 24 C 37.003906 22.609375 36.3125 21.277344 35.089844 20.328125 C 33.871094 19.378906 32.226562 18.898438 30.5625 19 Z M 30.5625 19 " fill="#a2c1e5"/>
  <path d="M 17 19.5 C 17 20.328125 16.328125 21 15.5 21 C 14.671875 21 14 20.328125 14 19.5 C 14 18.671875 14.671875 18 15.5 18 C 16.328125 18 17 18.671875 17 19.5 Z M 17 19.5 " fill="#353535"/>
  <path d="M 23 19.5 C 23 20.328125 22.328125 21 21.5 21 C 20.671875 21 20 20.328125 20 19.5 C 20 18.671875 20.671875 18 21.5 18 C 22.328125 18 23 18.671875 23 19.5 Z M 23 19.5 " fill="#353535"/>
  <path d="M 30 22 C 30 22.550781 29.550781 23 29 23 C 28.449219 23 28 22.550781 28 22 C 28 21.449219 28.449219 21 29 21 C 29.550781 21 30 21.449219 30 22 Z M 30 22 " fill="#353535"/>
  <path d="M 34 22 C 34 22.550781 33.550781 23 33 23 C 32.449219 23 32 22.550781 32 22 C 32 21.449219 32.449219 21 33 21 C 33.550781 21 34 21.449219 34 22 Z M 34 22 " fill="#353535"/>
 </g>
</svg>
