<!-- color: #89c646 -->
<svg xmlns="http://www.w3.org/2000/svg" width="48" height="48" viewBox="0 0 48 48">
 <g>
  <path d="M 15.980469 12.003906 C 14.679688 12.074219 12.882812 13.535156 12.230469 15.109375 C 11.851562 16.023438 11.902344 16.402344 12.683594 18.113281 C 15.808594 24.9375 20.855469 30.1875 28.46875 34.523438 C 31.492188 36.246094 31.707031 36.28125 33.136719 35.542969 C 34.628906 34.773438 36 32.980469 36 31.796875 C 36 30.917969 35.570312 30.449219 33.082031 28.625 C 31.480469 27.449219 29.992188 26.484375 29.777344 26.484375 C 29.5625 26.484375 28.851562 27.042969 28.191406 27.726562 C 27.527344 28.410156 26.6875 28.96875 26.328125 28.96875 C 23.886719 28.96875 18.960938 24.046875 18.960938 21.605469 C 18.960938 21.246094 19.523438 20.40625 20.203125 19.742188 C 20.886719 19.082031 21.4375 18.296875 21.425781 17.992188 C 21.414062 17.6875 20.492188 16.242188 19.371094 14.777344 C 17.707031 12.59375 17.144531 12.09375 16.234375 12.003906 C 16.152344 11.996094 16.066406 12 15.980469 12.003906 Z M 15.980469 12.003906 " fill="#f9f9f9"/>
 </g>
</svg>
