<!-- color: #d83f3d -->
<svg xmlns="http://www.w3.org/2000/svg" width="48" height="48" viewBox="0 0 48 48">
 <g>
  <path d="M 13 15 L 35 15 L 35 24 L 13 24 Z M 13 15 " fill="#ffb75a"/>
  <path d="M 16 16.25 C 16 15.125 16 14 17.273438 14 L 21.726562 14 C 23 14 23 15.125 23 16.25 Z M 16 16.25 " fill="#ffb75a"/>
  <path d="M 15 16 L 32 16 L 32 28.003906 L 15 28.003906 Z M 15 16 " fill="#d6d6d8"/>
  <path d="M 16 17 L 34 17 L 34 21 L 16 21 Z M 16 17 " fill="#959a9d"/>
  <path d="M 17 18 L 33.003906 18 L 33.003906 30 L 17 30 Z M 17 18 " fill="#f9f9f9"/>
  <path d="M 11 19 L 37 19 L 35 33 L 13 33 Z M 11 19 " fill="#ffd86b"/>
 </g>
</svg>
