<!-- color: #e20711 -->
<svg xmlns="http://www.w3.org/2000/svg" width="48" height="48" viewBox="0 0 48 48">
 <g>
  <path d="M 22 18 L 16 28 L 21 29 L 25 18 Z M 22 18 " fill="#f9f9f9"/>
  <path d="M 25 18 L 31 23 L 32 22 L 26 17 Z M 25 18 " fill="#f9f9f9"/>
  <path d="M 30 17 L 31 22 L 33 22 L 32 17 Z M 30 17 " fill="#f9f9f9"/>
  <path d="M 23 31 C 23 33.761719 20.761719 36 18 36 C 15.238281 36 13 33.761719 13 31 C 13 28.238281 15.238281 26 18 26 C 20.761719 26 23 28.238281 23 31 Z M 23 31 " fill="#f9f9f9"/>
  <path d="M 27 16 C 27 17.65625 25.65625 19 24 19 C 22.34375 19 21 17.65625 21 16 C 21 14.34375 22.34375 13 24 13 C 25.65625 13 27 14.34375 27 16 Z M 27 16 " fill="#f9f9f9"/>
  <path d="M 34 23 C 34 24.105469 33.105469 25 32 25 C 30.894531 25 30 24.105469 30 23 C 30 21.894531 30.894531 21 32 21 C 33.105469 21 34 21.894531 34 23 Z M 34 23 " fill="#f9f9f9"/>
  <path d="M 33 16 C 33 17.105469 32.105469 18 31 18 C 29.894531 18 29 17.105469 29 16 C 29 14.894531 29.894531 14 31 14 C 32.105469 14 33 14.894531 33 16 Z M 33 16 " fill="#f9f9f9"/>
 </g>
</svg>
