<!-- color: #b21327 -->
<svg xmlns="http://www.w3.org/2000/svg" width="48" height="48" viewBox="0 0 48 48">
 <g>
  <path d="M 26 34 C 26 35.105469 25.105469 36 24 36 C 22.894531 36 22 35.105469 22 34 C 22 32.894531 22.894531 32 24 32 C 25.105469 32 26 32.894531 26 34 Z M 26 34 " fill="#f9f9f9"/>
  <path d="M 29 30 C 29 31.105469 28.105469 32 27 32 C 25.894531 32 25 31.105469 25 30 C 25 28.894531 25.894531 28 27 28 C 28.105469 28 29 28.894531 29 30 Z M 29 30 " fill="#f9f9f9"/>
  <path d="M 23 30 C 23 31.105469 22.105469 32 21 32 C 19.894531 32 19 31.105469 19 30 C 19 28.894531 19.894531 28 21 28 C 22.105469 28 23 28.894531 23 30 Z M 23 30 " fill="#f9f9f9"/>
  <path d="M 26 26 C 26 27.105469 25.105469 28 24 28 C 22.894531 28 22 27.105469 22 26 C 22 24.894531 22.894531 24 24 24 C 25.105469 24 26 24.894531 26 26 Z M 26 26 " fill="#f9f9f9"/>
  <path d="M 21 26 C 21 27.105469 20.105469 28 19 28 C 17.894531 28 17 27.105469 17 26 C 17 24.894531 17.894531 24 19 24 C 20.105469 24 21 24.894531 21 26 Z M 21 26 " fill="#f9f9f9"/>
  <path d="M 31 26 C 31 27.105469 30.105469 28 29 28 C 27.894531 28 27 27.105469 27 26 C 27 24.894531 27.894531 24 29 24 C 30.105469 24 31 24.894531 31 26 Z M 31 26 " fill="#f9f9f9"/>
  <path d="M 29 22 C 29 23.105469 28.105469 24 27 24 C 25.894531 24 25 23.105469 25 22 C 25 20.894531 25.894531 20 27 20 C 28.105469 20 29 20.894531 29 22 Z M 29 22 " fill="#f9f9f9"/>
  <path d="M 23 22 C 23 23.105469 22.105469 24 21 24 C 19.894531 24 19 23.105469 19 22 C 19 20.894531 19.894531 20 21 20 C 22.105469 20 23 20.894531 23 22 Z M 23 22 " fill="#f9f9f9"/>
  <path d="M 26 18 C 26 19.105469 25.105469 20 24 20 C 22.894531 20 22 19.105469 22 18 C 22 16.894531 22.894531 16 24 16 C 25.105469 16 26 16.894531 26 18 Z M 26 18 " fill="#f9f9f9"/>
  <path d="M 28 14 C 28 15.105469 27.105469 16 26 16 C 24.894531 16 24 15.105469 24 14 C 24 12.894531 24.894531 12 26 12 C 27.105469 12 28 12.894531 28 14 Z M 28 14 " fill="#f9f9f9"/>
 </g>
</svg>
