<!-- color: #eeeeee -->
<svg xmlns="http://www.w3.org/2000/svg" xmlns:xlink="http://www.w3.org/1999/xlink" width="48px" height="48px" viewBox="0 0 48 48" version="1.1">
<g id="surface1">
<path style=" stroke:none;fill-rule:nonzero;fill:rgb(50.196078%,35.294118%,67.45098%);fill-opacity:1;" d="M 14 12 L 36 12 L 36 36 L 14 36 M 14 12 "/>
<path style=" stroke:none;fill-rule:nonzero;fill:rgb(92.54902%,92.54902%,92.156863%);fill-opacity:1;" d="M 33.8125 23.441406 C 33.621094 23.175781 33.414062 22.929688 33.207031 22.6875 C 32.085938 21.371094 30.796875 20.203125 29.386719 19.351562 C 28.484375 18.8125 27.523438 18.371094 26.523438 18.164062 C 26.015625 18.054688 25.511719 18 24.996094 18 C 24.488281 18 23.980469 18.054688 23.476562 18.164062 C 22.476562 18.371094 21.515625 18.8125 20.613281 19.351562 C 19.203125 20.203125 17.921875 21.371094 16.796875 22.6875 C 16.589844 22.929688 16.382812 23.175781 16.191406 23.441406 C 15.941406 23.792969 15.941406 24.207031 16.191406 24.558594 C 16.765625 25.359375 17.449219 26.074219 18.144531 26.726562 C 19.640625 28.132812 21.351562 29.308594 23.242188 29.78125 C 23.824219 29.929688 24.414062 30 25.003906 30 C 25.597656 30 26.179688 29.929688 26.765625 29.78125 C 28.65625 29.308594 30.367188 28.132812 31.867188 26.726562 C 32.5625 26.074219 33.246094 25.363281 33.820312 24.558594 C 34.070312 24.207031 34.070312 23.792969 33.820312 23.441406 M 33.820312 23.441406 "/>
<path style=" stroke:none;fill-rule:nonzero;fill:rgb(27.058824%,52.941176%,97.647059%);fill-opacity:1;" d="M 29.5 24 C 29.5 26.488281 27.480469 28.5 25 28.5 C 22.515625 28.5 20.5 26.488281 20.5 24 C 20.5 21.515625 22.519531 19.503906 25 19.503906 C 27.484375 19.503906 29.5 21.515625 29.5 24 M 29.5 24 "/>
<path style=" stroke:none;fill-rule:nonzero;fill:rgb(0%,0%,0%);fill-opacity:1;" d="M 27.5 24 C 27.5 25.382812 26.378906 26.5 25 26.5 C 23.621094 26.5 22.5 25.382812 22.5 24 C 22.5 22.621094 23.621094 21.5 25 21.5 C 26.378906 21.5 27.5 22.621094 27.5 24 M 27.5 24 "/>
<path style=" stroke:none;fill-rule:nonzero;fill:rgb(100%,100%,100%);fill-opacity:1;" d="M 27 23 C 27 23.550781 26.550781 24 26 24 C 25.449219 24 25 23.550781 25 23 C 25 22.449219 25.449219 22 26 22 C 26.550781 22 27 22.449219 27 23 M 27 23 "/>
<path style=" stroke:none;fill-rule:nonzero;fill:rgb(90.196078%,26.666667%,26.666667%);fill-opacity:1;" d="M 28.492188 18.859375 L 20.367188 28.496094 C 20.738281 28.734375 21.113281 28.949219 21.503906 29.140625 L 29.625 19.503906 C 29.265625 19.25 28.84375 19.039062 28.492188 18.859375 M 28.492188 18.859375 "/>
<path style=" stroke:none;fill-rule:nonzero;fill:rgb(90.196078%,26.666667%,26.666667%);fill-opacity:1;" d="M 12 14 L 16 14 L 16 16 L 12 16 M 12 14 "/>
<path style=" stroke:none;fill-rule:nonzero;fill:rgb(100%,80%,0%);fill-opacity:1;" d="M 12 14 L 16 14 L 16 16 L 12 16 M 12 14 "/>
<path style=" stroke:none;fill-rule:nonzero;fill:rgb(100%,80%,0%);fill-opacity:1;" d="M 12 19 L 16 19 L 16 21 L 12 21 M 12 19 "/>
<path style=" stroke:none;fill-rule:nonzero;fill:rgb(100%,80%,0%);fill-opacity:1;" d="M 12 27 L 16 27 L 16 29 L 12 29 M 12 27 "/>
<path style=" stroke:none;fill-rule:nonzero;fill:rgb(100%,80%,0%);fill-opacity:1;" d="M 12 32 L 16 32 L 16 34 L 12 34 M 12 32 "/>
</g>
</svg>
