<!-- color: #3f5685 -->
<svg xmlns="http://www.w3.org/2000/svg" xmlns:xlink="http://www.w3.org/1999/xlink" width="48px" height="48px" viewBox="0 0 48 48" version="1.1">
<defs>
<clipPath id="clip1">
  <path d="M 13 16 L 23 16 L 23 31 L 13 31 Z M 13 16 "/>
</clipPath>
<clipPath id="clip2">
  <path d="M 13.734375 20.128906 C 13.734375 22.191406 15.242188 23.445312 17.601562 24.292969 C 19.425781 24.953125 20.148438 25.585938 20.148438 26.671875 C 20.148438 27.839844 19.214844 28.625 17.535156 28.625 C 16.199219 28.625 14.925781 28.199219 14.074219 27.710938 L 13.5 29.878906 C 14.289062 30.34375 15.859375 30.789062 17.367188 30.789062 C 21.0625 30.789062 22.804688 28.769531 22.804688 26.480469 C 22.804688 24.421875 21.59375 23.167969 19.109375 22.234375 C 17.199219 21.488281 16.371094 20.980469 16.371094 19.875 C 16.371094 19.046875 17.089844 18.152344 18.746094 18.152344 C 20.085938 18.152344 21.082031 18.558594 21.59375 18.832031 L 22.230469 16.730469 C 21.488281 16.347656 20.339844 16.007812 18.789062 16.007812 C 15.691406 16.007812 13.742188 17.792969 13.742188 20.128906 "/>
</clipPath>
<clipPath id="clip3">
  <path d="M 24 19 L 35 19 L 35 35 L 24 35 Z M 24 19 "/>
</clipPath>
<clipPath id="clip4">
  <path d="M 24.394531 25.445312 C 24.394531 28.375 26.222656 30.496094 28.792969 30.496094 C 30.152344 30.496094 31.210938 29.878906 31.8125 28.964844 L 31.851562 28.964844 L 31.851562 29.855469 C 31.851562 32.085938 30.578125 32.980469 28.878906 32.980469 C 27.628906 32.980469 26.523438 32.574219 25.859375 32.195312 L 25.289062 34.167969 C 26.179688 34.722656 27.582031 34.996094 28.898438 34.996094 C 30.320312 34.996094 31.808594 34.699219 32.890625 33.742188 C 33.972656 32.765625 34.417969 31.21875 34.417969 29.050781 L 34.417969 23.1875 C 34.417969 21.765625 34.460938 20.917969 34.503906 20.214844 L 32.230469 20.214844 L 32.125 21.597656 L 32.082031 21.597656 C 31.59375 20.746094 30.660156 19.980469 29.089844 19.980469 C 26.605469 19.980469 24.394531 22.042969 24.394531 25.441406 M 27.050781 25.355469 C 27.050781 23.253906 28.132812 21.980469 29.597656 21.980469 C 30.703125 21.980469 31.445312 22.699219 31.722656 23.65625 C 31.785156 23.867188 31.808594 24.125 31.808594 24.355469 L 31.808594 26.035156 C 31.808594 26.332031 31.765625 26.691406 31.699219 26.96875 C 31.402344 27.902344 30.554688 28.539062 29.578125 28.539062 C 27.941406 28.539062 27.050781 27.117188 27.050781 25.355469 "/>
</clipPath>
</defs>
<g id="surface1">
<g clip-path="url(#clip1)" clip-rule="nonzero">
<g clip-path="url(#clip2)" clip-rule="nonzero">
<path style=" stroke:none;fill-rule:nonzero;fill:rgb(17.254902%,80%,75.686275%);fill-opacity:1;" d="M 13.734375 20.128906 C 13.734375 22.191406 15.242188 23.445312 17.601562 24.292969 C 19.425781 24.953125 20.148438 25.585938 20.148438 26.671875 C 20.148438 27.839844 19.214844 28.625 17.535156 28.625 C 16.199219 28.625 14.925781 28.199219 14.074219 27.710938 L 13.5 29.878906 C 14.289062 30.34375 15.859375 30.789062 17.367188 30.789062 C 21.0625 30.789062 22.804688 28.769531 22.804688 26.480469 C 22.804688 24.421875 21.59375 23.167969 19.109375 22.234375 C 17.199219 21.488281 16.371094 20.980469 16.371094 19.875 C 16.371094 19.046875 17.089844 18.152344 18.746094 18.152344 C 20.085938 18.152344 21.082031 18.558594 21.59375 18.832031 L 22.230469 16.730469 C 21.488281 16.347656 20.339844 16.007812 18.789062 16.007812 C 15.691406 16.007812 13.742188 17.792969 13.742188 20.128906 "/>
</g>
</g>
<g clip-path="url(#clip3)" clip-rule="nonzero">
<g clip-path="url(#clip4)" clip-rule="nonzero">
<path style=" stroke:none;fill-rule:nonzero;fill:rgb(17.254902%,80%,75.686275%);fill-opacity:1;" d="M 24.394531 25.445312 C 24.394531 28.375 26.222656 30.496094 28.792969 30.496094 C 30.152344 30.496094 31.210938 29.878906 31.8125 28.964844 L 31.851562 28.964844 L 31.851562 29.855469 C 31.851562 32.085938 30.578125 32.980469 28.878906 32.980469 C 27.628906 32.980469 26.523438 32.574219 25.859375 32.195312 L 25.289062 34.167969 C 26.179688 34.722656 27.582031 34.996094 28.898438 34.996094 C 30.320312 34.996094 31.808594 34.699219 32.890625 33.742188 C 33.972656 32.765625 34.417969 31.21875 34.417969 29.050781 L 34.417969 23.1875 C 34.417969 21.765625 34.460938 20.917969 34.503906 20.214844 L 32.230469 20.214844 L 32.125 21.597656 L 32.082031 21.597656 C 31.59375 20.746094 30.660156 19.980469 29.089844 19.980469 C 26.605469 19.980469 24.394531 22.042969 24.394531 25.441406 M 27.050781 25.355469 C 27.050781 23.253906 28.132812 21.980469 29.597656 21.980469 C 30.703125 21.980469 31.445312 22.699219 31.722656 23.65625 C 31.785156 23.867188 31.808594 24.125 31.808594 24.355469 L 31.808594 26.035156 C 31.808594 26.332031 31.765625 26.691406 31.699219 26.96875 C 31.402344 27.902344 30.554688 28.539062 29.578125 28.539062 C 27.941406 28.539062 27.050781 27.117188 27.050781 25.355469 "/>
</g>
</g>
</g>
</svg>
