<!-- color: #765a36 -->
<svg xmlns="http://www.w3.org/2000/svg" xmlns:xlink="http://www.w3.org/1999/xlink" width="48px" height="48px" viewBox="0 0 48 48" version="1.1">
<defs>
<clipPath id="clip1">
  <path d="M 15 16 L 26 16 L 26 32 L 15 32 Z M 15 16 "/>
</clipPath>
<clipPath id="clip2">
  <path d="M 15 16.457031 L 15 30.953125 C 15.679688 31.039062 16.816406 31.148438 18.300781 31.148438 C 20.992188 31.148438 22.71875 30.691406 23.769531 29.773438 C 24.621094 29.074219 25.191406 28.042969 25.191406 26.734375 C 25.191406 24.699219 23.769531 23.476562 22.214844 23.082031 L 22.214844 23.039062 C 23.8125 22.445312 24.667969 21.199219 24.667969 19.84375 C 24.667969 18.597656 24.054688 17.636719 23.136719 17.089844 C 22.128906 16.390625 20.90625 16.148438 18.914062 16.148438 C 17.40625 16.148438 15.855469 16.28125 15 16.457031 M 17.671875 18.25 C 17.953125 18.183594 18.414062 18.140625 19.199219 18.140625 C 20.90625 18.140625 21.957031 18.773438 21.957031 20.152344 C 21.957031 21.398438 20.90625 22.273438 19.046875 22.273438 L 17.671875 22.273438 M 17.671875 29.050781 L 17.671875 24.242188 L 19.003906 24.242188 C 20.863281 24.242188 22.347656 24.941406 22.347656 26.644531 C 22.347656 28.460938 20.816406 29.117188 19.089844 29.117188 C 18.480469 29.117188 18.019531 29.117188 17.667969 29.050781 "/>
</clipPath>
<clipPath id="clip3">
  <path d="M 27 20 L 34 20 L 34 31 L 27 31 Z M 27 20 "/>
</clipPath>
<clipPath id="clip4">
  <path d="M 29.910156 22.382812 L 29.824219 22.382812 L 29.738281 20.347656 L 27.398438 20.347656 C 27.460938 21.308594 27.484375 22.339844 27.484375 23.78125 L 27.484375 30.996094 L 30.175781 30.996094 L 30.175781 25.484375 C 30.175781 25.179688 30.21875 24.894531 30.261719 24.65625 C 30.503906 23.453125 31.375 22.621094 32.667969 22.621094 C 32.996094 22.621094 33.234375 22.664062 33.453125 22.707031 L 33.453125 20.171875 C 33.234375 20.128906 33.082031 20.105469 32.820312 20.105469 C 31.683594 20.105469 30.4375 20.871094 29.910156 22.378906 "/>
</clipPath>
</defs>
<g id="surface1">
<g clip-path="url(#clip1)" clip-rule="nonzero">
<g clip-path="url(#clip2)" clip-rule="nonzero">
<path style=" stroke:none;fill-rule:nonzero;fill:rgb(92.54902%,74.901961%,1.176471%);fill-opacity:1;" d="M 15 16.457031 L 15 30.953125 C 15.679688 31.039062 16.816406 31.148438 18.300781 31.148438 C 20.992188 31.148438 22.71875 30.691406 23.769531 29.773438 C 24.621094 29.074219 25.191406 28.042969 25.191406 26.734375 C 25.191406 24.699219 23.769531 23.476562 22.214844 23.082031 L 22.214844 23.039062 C 23.8125 22.445312 24.667969 21.199219 24.667969 19.84375 C 24.667969 18.597656 24.054688 17.636719 23.136719 17.089844 C 22.128906 16.390625 20.90625 16.148438 18.914062 16.148438 C 17.40625 16.148438 15.855469 16.28125 15 16.457031 M 17.671875 18.25 C 17.953125 18.183594 18.414062 18.140625 19.199219 18.140625 C 20.90625 18.140625 21.957031 18.773438 21.957031 20.152344 C 21.957031 21.398438 20.90625 22.273438 19.046875 22.273438 L 17.671875 22.273438 M 17.671875 29.050781 L 17.671875 24.242188 L 19.003906 24.242188 C 20.863281 24.242188 22.347656 24.941406 22.347656 26.644531 C 22.347656 28.460938 20.816406 29.117188 19.089844 29.117188 C 18.480469 29.117188 18.019531 29.117188 17.667969 29.050781 "/>
</g>
</g>
<g clip-path="url(#clip3)" clip-rule="nonzero">
<g clip-path="url(#clip4)" clip-rule="nonzero">
<path style=" stroke:none;fill-rule:nonzero;fill:rgb(92.54902%,74.901961%,1.176471%);fill-opacity:1;" d="M 29.910156 22.382812 L 29.824219 22.382812 L 29.738281 20.347656 L 27.398438 20.347656 C 27.460938 21.308594 27.484375 22.339844 27.484375 23.78125 L 27.484375 30.996094 L 30.175781 30.996094 L 30.175781 25.484375 C 30.175781 25.179688 30.21875 24.894531 30.261719 24.65625 C 30.503906 23.453125 31.375 22.621094 32.667969 22.621094 C 32.996094 22.621094 33.234375 22.664062 33.453125 22.707031 L 33.453125 20.171875 C 33.234375 20.128906 33.082031 20.105469 32.820312 20.105469 C 31.683594 20.105469 30.4375 20.871094 29.910156 22.378906 "/>
</g>
</g>
</g>
</svg>
