<!-- color: #1d394e -->
<svg xmlns="http://www.w3.org/2000/svg" xmlns:xlink="http://www.w3.org/1999/xlink" width="48px" height="48px" viewBox="0 0 48 48" version="1.1">
<g id="surface1">
<path style=" stroke:none;fill-rule:nonzero;fill:rgb(32.54902%,66.666667%,100%);fill-opacity:1;" d="M 24 9 C 15.714844 9 9 15.714844 9 24 C 9 32.28125 15.714844 38.996094 24 38.996094 C 32.28125 38.996094 38.996094 32.28125 38.996094 24 C 38.996094 15.714844 32.28125 9 24 9 M 24.027344 9.839844 C 31.84375 9.839844 38.175781 16.175781 38.175781 23.988281 C 38.175781 31.804688 31.839844 38.140625 24.027344 38.140625 C 16.210938 38.140625 9.878906 31.804688 9.878906 23.988281 C 9.878906 16.175781 16.214844 9.839844 24.027344 9.839844 M 24.027344 9.839844 "/>
<path style=" stroke:none;fill-rule:nonzero;fill:rgb(26.27451%,61.176471%,83.529412%);fill-opacity:0.388235;" d="M 24.03125 9.839844 C 16.214844 9.839844 9.878906 16.175781 9.878906 23.988281 C 9.878906 31.804688 16.214844 38.140625 24.03125 38.140625 C 31.847656 38.140625 38.179688 31.804688 38.179688 23.988281 C 38.179688 16.175781 31.84375 9.839844 24.03125 9.839844 M 23.949219 17.378906 C 27.578125 17.378906 30.523438 20.320312 30.523438 23.953125 C 30.523438 27.582031 27.582031 30.527344 23.949219 30.527344 C 20.320312 30.527344 17.375 27.582031 17.375 23.953125 C 17.375 20.324219 20.320312 17.378906 23.949219 17.378906 M 23.949219 17.378906 "/>
<path style=" stroke:none;fill-rule:nonzero;fill:rgb(32.54902%,66.666667%,100%);fill-opacity:1;" d="M 24.03125 14.394531 C 18.753906 14.394531 14.472656 18.671875 14.472656 23.949219 C 14.472656 29.226562 18.753906 33.503906 24.03125 33.503906 C 29.308594 33.503906 33.582031 29.226562 33.582031 23.949219 C 33.582031 18.671875 29.308594 14.394531 24.03125 14.394531 M 24.03125 15.441406 C 28.75 15.441406 32.578125 19.269531 32.578125 23.992188 C 32.578125 28.710938 28.75 32.539062 24.03125 32.539062 C 19.3125 32.539062 15.480469 28.710938 15.480469 23.992188 C 15.480469 19.273438 19.308594 15.441406 24.03125 15.441406 M 24.03125 15.441406 "/>
</g>
</svg>
