<!-- color: #563c47 -->
<svg xmlns="http://www.w3.org/2000/svg" xmlns:xlink="http://www.w3.org/1999/xlink" width="48px" height="48px" viewBox="0 0 48 48" version="1.1">
<g id="surface1">
<path style=" stroke:none;fill-rule:nonzero;fill:rgb(97.647059%,97.647059%,97.647059%);fill-opacity:1;" d="M 23.863281 10 C 22.886719 10 21.882812 10.132812 20.894531 10.394531 C 14.574219 12.054688 10.835938 18.378906 12.527344 24.558594 L 14.460938 24.078125 C 14.242188 23.273438 14.097656 22.4375 14.097656 21.570312 C 14.097656 16.238281 18.496094 11.933594 23.953125 11.933594 C 29.40625 11.933594 33.851562 16.238281 33.851562 21.570312 C 33.851562 22.4375 33.714844 23.277344 33.492188 24.078125 L 35.425781 24.558594 C 35.964844 22.59375 35.964844 20.539062 35.425781 18.574219 C 33.996094 13.359375 29.140625 9.945312 23.851562 9.996094 M 23.863281 10 "/>
<path style=" stroke:none;fill-rule:nonzero;fill:rgb(97.647059%,97.647059%,97.647059%);fill-opacity:1;" d="M 26.339844 24.695312 C 26.25 24.679688 26.167969 24.738281 26.113281 24.78125 C 26.0625 24.828125 26.046875 24.867188 26.023438 24.914062 C 25.980469 25.007812 25.960938 25.128906 25.9375 25.265625 C 25.882812 25.542969 25.828125 25.910156 25.800781 26.367188 C 25.746094 27.28125 25.699219 28.496094 25.667969 29.710938 C 25.636719 30.929688 25.605469 32.148438 25.53125 33.054688 C 25.496094 33.507812 25.457031 33.90625 25.398438 34.15625 C 25.390625 34.1875 25.359375 34.179688 25.351562 34.199219 C 25.300781 34.011719 25.246094 33.722656 25.21875 33.363281 C 25.152344 32.644531 25.152344 31.691406 25.128906 30.722656 C 25.101562 29.75 25.058594 28.777344 24.988281 28.039062 C 24.960938 27.667969 24.925781 27.351562 24.851562 27.113281 C 24.820312 26.992188 24.773438 26.894531 24.71875 26.804688 C 24.660156 26.71875 24.589844 26.628906 24.449219 26.628906 C 24.339844 26.628906 24.203125 26.695312 24.132812 26.757812 C 24.0625 26.824219 24.039062 26.894531 24 26.976562 C 23.925781 27.148438 23.898438 27.347656 23.863281 27.59375 C 23.796875 28.082031 23.753906 28.722656 23.730469 29.351562 C 23.707031 29.980469 23.699219 30.609375 23.640625 31.066406 C 23.609375 31.292969 23.550781 31.488281 23.507812 31.597656 C 23.484375 31.648438 23.46875 31.675781 23.460938 31.683594 C 23.449219 31.683594 23.429688 31.65625 23.414062 31.640625 C 23.386719 31.613281 23.347656 31.527344 23.324219 31.421875 C 23.277344 31.214844 23.253906 30.90625 23.238281 30.585938 C 23.222656 30.269531 23.226562 29.933594 23.148438 29.660156 C 23.109375 29.523438 23.066406 29.414062 22.96875 29.308594 C 22.867188 29.203125 22.679688 29.125 22.519531 29.132812 C 22.324219 29.148438 22.195312 29.289062 22.113281 29.4375 C 22.035156 29.589844 21.96875 29.761719 21.933594 29.96875 C 21.863281 30.378906 21.863281 30.910156 21.847656 31.417969 C 21.828125 31.929688 21.816406 32.429688 21.757812 32.78125 C 21.730469 32.945312 21.65625 33.058594 21.621094 33.136719 C 21.609375 33.105469 21.59375 33.09375 21.578125 33.046875 C 21.523438 32.859375 21.476562 32.59375 21.441406 32.257812 C 21.371094 31.570312 21.339844 30.660156 21.308594 29.742188 C 21.277344 28.820312 21.28125 27.890625 21.21875 27.1875 C 21.1875 26.839844 21.140625 26.53125 21.085938 26.308594 C 21.054688 26.199219 21.003906 26.128906 20.941406 26.046875 C 20.886719 25.960938 20.816406 25.828125 20.671875 25.828125 C 20.539062 25.828125 20.410156 25.921875 20.359375 26.003906 C 20.304688 26.082031 20.296875 26.164062 20.269531 26.269531 C 20.210938 26.472656 20.164062 26.742188 20.136719 27.058594 C 20.070312 27.691406 20.035156 28.519531 20 29.347656 C 19.964844 30.171875 19.933594 30.984375 19.867188 31.589844 C 19.832031 31.890625 19.78125 32.136719 19.730469 32.289062 C 19.699219 32.210938 19.621094 32.121094 19.597656 31.984375 C 19.539062 31.636719 19.535156 31.191406 19.507812 30.710938 C 19.480469 30.226562 19.449219 29.730469 19.375 29.347656 C 19.335938 29.15625 19.273438 28.957031 19.191406 28.816406 C 19.113281 28.675781 18.976562 28.550781 18.789062 28.550781 C 18.65625 28.550781 18.53125 28.644531 18.472656 28.726562 C 18.417969 28.8125 18.371094 28.886719 18.339844 28.992188 C 18.277344 29.214844 18.230469 29.503906 18.203125 29.839844 C 18.152344 30.503906 18.175781 31.386719 18.160156 32.257812 C 18.144531 33.128906 18.097656 33.984375 18.023438 34.632812 C 17.988281 34.945312 17.945312 35.214844 17.890625 35.382812 C 17.867188 35.4375 17.863281 35.484375 17.84375 35.511719 C 17.820312 35.472656 17.777344 35.425781 17.753906 35.335938 C 17.71875 35.214844 17.6875 34.980469 17.664062 34.804688 L 17.753906 34.804688 L 17.617188 34.363281 C 17.609375 34.339844 17.617188 34.296875 17.617188 34.273438 C 17.546875 33.457031 17.503906 32.371094 17.476562 31.285156 C 17.457031 30.167969 17.441406 29.050781 17.390625 28.207031 C 17.367188 27.785156 17.355469 27.410156 17.300781 27.152344 C 17.273438 27.019531 17.214844 26.941406 17.167969 26.84375 C 17.144531 26.796875 17.128906 26.753906 17.078125 26.714844 C 17.027344 26.671875 16.9375 26.613281 16.851562 26.617188 C 16.695312 26.617188 16.628906 26.742188 16.582031 26.84375 C 16.53125 26.9375 16.519531 27.027344 16.492188 27.152344 C 16.441406 27.402344 16.386719 27.722656 16.359375 28.117188 C 16.332031 28.496094 16.328125 29.019531 16.3125 29.480469 L 15.234375 25.433594 L 12.804688 26.09375 C 11.480469 26.441406 10.738281 27.742188 11.09375 29.035156 L 12.351562 33.699219 C 12.707031 34.992188 14.042969 35.765625 15.371094 35.421875 C 16.078125 35.308594 16.542969 35.132812 17.257812 34.9375 C 17.289062 35.097656 17.3125 35.296875 17.347656 35.421875 C 17.386719 35.558594 17.417969 35.675781 17.480469 35.773438 C 17.546875 35.867188 17.695312 35.996094 17.84375 35.992188 C 17.96875 35.992188 18.085938 35.898438 18.160156 35.816406 C 18.230469 35.730469 18.253906 35.617188 18.292969 35.507812 C 18.375 35.28125 18.433594 35.007812 18.472656 34.671875 C 18.550781 33.996094 18.550781 33.121094 18.5625 32.253906 C 18.578125 31.382812 18.601562 30.515625 18.652344 29.871094 C 18.675781 29.558594 18.691406 29.289062 18.738281 29.128906 C 18.753906 29.066406 18.769531 29.023438 18.785156 28.992188 C 18.789062 28.992188 18.789062 28.96875 18.832031 29.035156 C 18.875 29.105469 18.890625 29.265625 18.917969 29.433594 C 18.988281 29.773438 19.027344 30.230469 19.054688 30.710938 C 19.082031 31.1875 19.128906 31.6875 19.1875 32.066406 C 19.21875 32.261719 19.253906 32.410156 19.328125 32.550781 C 19.359375 32.621094 19.398438 32.714844 19.464844 32.769531 C 19.527344 32.828125 19.597656 32.855469 19.691406 32.859375 C 19.824219 32.859375 19.949219 32.761719 20.007812 32.683594 C 20.066406 32.601562 20.109375 32.519531 20.140625 32.417969 C 20.203125 32.214844 20.242188 31.941406 20.277344 31.625 C 20.351562 30.996094 20.378906 30.210938 20.410156 29.386719 C 20.445312 28.558594 20.484375 27.707031 20.546875 27.097656 C 20.574219 26.851562 20.601562 26.679688 20.632812 26.523438 C 20.671875 26.703125 20.742188 26.945312 20.769531 27.226562 C 20.832031 27.90625 20.871094 28.816406 20.902344 29.734375 C 20.933594 30.65625 20.964844 31.585938 21.039062 32.285156 C 21.074219 32.640625 21.109375 32.9375 21.171875 33.164062 C 21.207031 33.28125 21.25 33.347656 21.308594 33.433594 C 21.363281 33.519531 21.4375 33.648438 21.578125 33.652344 C 21.769531 33.671875 21.949219 33.492188 22.027344 33.347656 C 22.101562 33.199219 22.128906 33.019531 22.160156 32.816406 C 22.226562 32.421875 22.277344 31.921875 22.296875 31.40625 C 22.316406 30.898438 22.324219 30.40625 22.382812 30.050781 C 22.414062 29.863281 22.429688 29.734375 22.472656 29.652344 C 22.515625 29.574219 22.554688 29.566406 22.5625 29.566406 C 22.609375 29.566406 22.628906 29.582031 22.648438 29.609375 C 22.675781 29.632812 22.714844 29.683594 22.738281 29.785156 C 22.804688 29.980469 22.8125 30.300781 22.828125 30.621094 C 22.847656 30.9375 22.851562 31.273438 22.921875 31.546875 C 22.953125 31.683594 23.015625 31.789062 23.101562 31.898438 C 23.191406 32.007812 23.347656 32.074219 23.507812 32.074219 C 23.609375 32.074219 23.710938 32.058594 23.777344 31.988281 C 23.839844 31.921875 23.875 31.808594 23.910156 31.722656 C 23.980469 31.554688 24.015625 31.351562 24.042969 31.109375 C 24.109375 30.617188 24.15625 29.980469 24.179688 29.351562 C 24.203125 28.722656 24.207031 28.085938 24.269531 27.632812 C 24.296875 27.40625 24.355469 27.253906 24.402344 27.152344 C 24.414062 27.179688 24.4375 27.199219 24.449219 27.238281 C 24.5 27.425781 24.550781 27.714844 24.582031 28.074219 C 24.648438 28.792969 24.648438 29.746094 24.671875 30.71875 C 24.699219 31.6875 24.742188 32.660156 24.804688 33.398438 C 24.839844 33.769531 24.875 34.089844 24.941406 34.324219 C 24.972656 34.445312 25.015625 34.546875 25.074219 34.636719 C 25.132812 34.722656 25.25 34.8125 25.390625 34.8125 C 25.472656 34.8125 25.519531 34.765625 25.570312 34.722656 C 25.621094 34.683594 25.679688 34.644531 25.707031 34.59375 C 25.757812 34.492188 25.804688 34.386719 25.839844 34.238281 C 25.910156 33.949219 25.9375 33.558594 25.976562 33.09375 C 26.050781 32.164062 26.082031 30.925781 26.109375 29.707031 C 26.140625 28.488281 26.1875 27.261719 26.242188 26.363281 C 26.265625 26.03125 26.265625 25.800781 26.296875 25.574219 C 26.339844 25.84375 26.398438 26.164062 26.433594 26.585938 C 26.496094 27.570312 26.574219 28.890625 26.613281 30.195312 C 26.652344 31.5 26.683594 32.820312 26.746094 33.804688 C 26.78125 34.292969 26.828125 34.695312 26.882812 34.988281 C 26.910156 35.140625 26.929688 35.238281 26.972656 35.34375 C 26.992188 35.390625 27.015625 35.46875 27.058594 35.519531 C 27.105469 35.566406 27.191406 35.609375 27.285156 35.605469 C 27.421875 35.59375 27.503906 35.511719 27.554688 35.429688 C 27.605469 35.351562 27.660156 35.269531 27.691406 35.164062 C 27.75 34.960938 27.789062 34.691406 27.824219 34.375 C 27.894531 33.746094 27.921875 32.910156 27.957031 32.085938 C 27.996094 31.265625 28.027344 30.449219 28.09375 29.84375 C 28.128906 29.542969 28.183594 29.300781 28.226562 29.144531 C 28.253906 29.21875 28.296875 29.277344 28.316406 29.40625 C 28.382812 29.75 28.382812 30.242188 28.40625 30.730469 C 28.433594 31.214844 28.46875 31.703125 28.539062 32.089844 C 28.578125 32.285156 28.644531 32.476562 28.726562 32.621094 C 28.808594 32.761719 28.988281 32.886719 29.175781 32.886719 C 29.277344 32.886719 29.371094 32.820312 29.445312 32.753906 C 29.515625 32.691406 29.542969 32.621094 29.582031 32.535156 C 29.65625 32.363281 29.726562 32.167969 29.761719 31.921875 C 29.835938 31.429688 29.832031 30.792969 29.851562 30.164062 C 29.871094 29.535156 29.925781 28.90625 29.984375 28.449219 C 30.015625 28.222656 30.03125 28.027344 30.074219 27.917969 C 30.085938 27.941406 30.109375 27.933594 30.121094 27.960938 C 30.167969 28.105469 30.222656 28.371094 30.253906 28.664062 C 30.316406 29.25 30.324219 30.019531 30.34375 30.820312 C 30.363281 31.621094 30.367188 32.449219 30.429688 33.0625 C 30.457031 33.296875 30.511719 33.464844 30.566406 33.632812 L 30.25 34.820312 L 32.632812 35.433594 C 33.957031 35.78125 35.292969 35.011719 35.652344 33.71875 L 36.914062 29.054688 C 37.269531 27.765625 36.523438 26.449219 35.203125 26.105469 L 32.773438 25.445312 L 32.367188 26.945312 C 32.351562 26.902344 32.347656 26.847656 32.324219 26.8125 C 32.261719 26.714844 32.152344 26.636719 32.011719 26.636719 C 31.871094 26.636719 31.757812 26.730469 31.695312 26.8125 C 31.632812 26.898438 31.59375 26.964844 31.5625 27.078125 C 31.496094 27.300781 31.460938 27.617188 31.425781 27.957031 C 31.363281 28.644531 31.355469 29.523438 31.339844 30.421875 C 31.332031 30.582031 31.34375 30.703125 31.339844 30.863281 L 30.886719 32.535156 C 30.855469 32.011719 30.8125 31.445312 30.800781 30.820312 C 30.777344 30.019531 30.726562 29.234375 30.660156 28.621094 C 30.636719 28.3125 30.597656 28.035156 30.527344 27.832031 C 30.492188 27.730469 30.457031 27.644531 30.390625 27.566406 C 30.328125 27.484375 30.246094 27.433594 30.125 27.433594 C 30.015625 27.433594 29.875 27.453125 29.808594 27.523438 C 29.742188 27.59375 29.707031 27.703125 29.671875 27.789062 C 29.605469 27.957031 29.570312 28.160156 29.539062 28.402344 C 29.476562 28.894531 29.46875 29.53125 29.449219 30.160156 C 29.429688 30.789062 29.382812 31.421875 29.316406 31.875 C 29.28125 32.101562 29.273438 32.257812 29.226562 32.359375 C 29.207031 32.398438 29.152344 32.390625 29.140625 32.402344 C 29.097656 32.328125 29.039062 32.179688 29.003906 32.007812 C 28.933594 31.660156 28.898438 31.171875 28.871094 30.6875 C 28.84375 30.199219 28.796875 29.746094 28.734375 29.367188 C 28.703125 29.175781 28.671875 28.976562 28.601562 28.835938 C 28.566406 28.765625 28.53125 28.714844 28.464844 28.660156 C 28.398438 28.605469 28.289062 28.566406 28.195312 28.570312 C 28.058594 28.570312 27.972656 28.667969 27.925781 28.746094 C 27.867188 28.828125 27.859375 28.910156 27.835938 29.011719 C 27.769531 29.214844 27.730469 29.488281 27.699219 29.804688 C 27.632812 30.433594 27.554688 31.269531 27.515625 32.089844 C 27.476562 32.914062 27.449219 33.730469 27.382812 34.332031 C 27.355469 34.558594 27.324219 34.710938 27.292969 34.863281 C 27.246094 34.597656 27.191406 34.226562 27.160156 33.761719 C 27.09375 32.796875 27.058594 31.503906 27.023438 30.195312 C 26.984375 28.890625 26.960938 27.589844 26.890625 26.589844 C 26.855469 26.089844 26.8125 25.664062 26.753906 25.359375 C 26.726562 25.203125 26.710938 25.070312 26.667969 24.964844 C 26.644531 24.90625 26.617188 24.878906 26.578125 24.828125 C 26.539062 24.78125 26.445312 24.714844 26.351562 24.699219 M 26.347656 24.691406 "/>
</g>
</svg>
