<!-- color: #79cbe2 -->
<svg xmlns="http://www.w3.org/2000/svg" xmlns:xlink="http://www.w3.org/1999/xlink" width="48px" height="48px" viewBox="0 0 48 48" version="1.1">
<g id="surface1">
<path style=" stroke:none;fill-rule:nonzero;fill:rgb(52.54902%,78.431373%,87.058824%);fill-opacity:1;" d="M 23.53125 31.28125 C 12.398438 31.28125 5.007812 32.546875 0 34.34375 L 0 48 L 48 48 L 48 34.28125 C 42.863281 32.527344 35.183594 31.28125 23.53125 31.28125 M 23.53125 31.28125 "/>
<path style=" stroke:none;fill-rule:nonzero;fill:rgb(75.686275%,49.019608%,6.666667%);fill-opacity:1;" d="M 24.019531 23.566406 L 24.019531 23.570312 C 24.105469 23.578125 25.167969 23.664062 26.351562 23.855469 C 27.488281 24.039062 28.199219 24.3125 28.199219 24.3125 C 28.199219 24.3125 28.097656 25.199219 26.460938 26.152344 C 25.230469 26.867188 24.542969 26.992188 24.15625 27 C 24.101562 27 24.058594 26.996094 24.015625 26.992188 C 24.015625 26.992188 24.011719 26.992188 24.011719 26.992188 C 23.667969 27.015625 22.972656 26.980469 21.542969 26.148438 C 19.90625 25.195312 19.808594 24.3125 19.808594 24.3125 C 19.808594 24.3125 20.515625 24.035156 21.652344 23.855469 C 22.835938 23.664062 23.898438 23.574219 23.984375 23.566406 L 23.984375 23.5625 C 23.984375 23.5625 24 23.5625 24 23.5625 C 24 23.5625 24.015625 23.5625 24.015625 23.5625 M 24.019531 23.566406 "/>
<path style=" stroke:none;fill-rule:nonzero;fill:rgb(98.431373%,83.921569%,11.764706%);fill-opacity:1;" d="M 19 24.199219 C 19 24.199219 19.117188 22.484375 21.066406 20.65625 C 23.015625 18.8125 23.824219 19 24.164062 19.042969 C 24.503906 19.089844 24.082031 21.375 24.082031 21.375 L 24.015625 25.664062 C 24.015625 25.664062 22.671875 25.488281 21.199219 25.105469 C 19.847656 24.753906 19 24.21875 19 24.21875 M 19 24.199219 "/>
<path style=" stroke:none;fill-rule:nonzero;fill:rgb(91.764706%,66.666667%,8.627451%);fill-opacity:1;" d="M 24.179688 19 C 24.640625 19.011719 25.464844 19.257812 26.929688 20.644531 C 28.882812 22.488281 29 24.1875 29 24.1875 C 29 24.1875 28.152344 24.722656 26.796875 25.074219 C 25.328125 25.457031 23.980469 25.632812 23.980469 25.632812 L 23.953125 23.84375 L 23.953125 19.003906 C 24.015625 18.996094 24.089844 18.980469 24.183594 18.984375 M 24.179688 19 "/>
<path style=" stroke:none;fill-rule:evenodd;fill:rgb(10.196078%,12.54902%,15.686275%);fill-opacity:1;" d="M 10.050781 14.984375 C 10.371094 17.125 12.289062 18.421875 14.335938 17.875 C 16.378906 17.332031 17.777344 15.15625 17.457031 13.015625 C 17.136719 10.875 15.21875 9.582031 13.171875 10.125 C 11.128906 10.667969 9.730469 12.84375 10.050781 14.984375 M 10.050781 14.984375 "/>
<path style=" stroke:none;fill-rule:evenodd;fill:rgb(100%,100%,100%);fill-opacity:0.764706;" d="M 13.804688 13.175781 C 13.214844 13.601562 12.519531 13.640625 12.253906 13.261719 C 11.984375 12.882812 12.246094 12.230469 12.835938 11.804688 C 13.425781 11.378906 14.117188 11.339844 14.386719 11.714844 C 14.652344 12.09375 14.394531 12.746094 13.804688 13.175781 M 13.804688 13.175781 "/>
<path style=" stroke:none;fill-rule:evenodd;fill:rgb(100%,100%,100%);fill-opacity:0.101961;" d="M 11.433594 12.839844 C 11.109375 13.375 10.957031 14 11.046875 14.617188 C 11.253906 15.976562 12.570312 16.773438 13.988281 16.398438 C 15.40625 16.019531 16.390625 14.613281 16.183594 13.25 C 16.101562 12.695312 15.832031 12.230469 15.445312 11.902344 C 16.148438 12.28125 16.65625 12.960938 16.789062 13.828125 C 17.03125 15.464844 15.847656 17.160156 14.144531 17.609375 C 12.4375 18.0625 10.859375 17.105469 10.613281 15.46875 C 10.472656 14.53125 10.804688 13.570312 11.433594 12.839844 M 11.433594 12.839844 "/>
<path style=" stroke:none;fill-rule:evenodd;fill:rgb(10.196078%,12.54902%,15.686275%);fill-opacity:1;" d="M 35.457031 14.984375 C 35.136719 17.125 33.21875 18.421875 31.175781 17.875 C 29.128906 17.332031 27.730469 15.15625 28.050781 13.015625 C 28.371094 10.875 30.289062 9.582031 32.335938 10.125 C 34.382812 10.667969 35.78125 12.84375 35.457031 14.984375 M 35.457031 14.984375 "/>
<path style=" stroke:none;fill-rule:evenodd;fill:rgb(100%,100%,100%);fill-opacity:0.764706;" d="M 29.972656 12.058594 C 30.34375 11.433594 30.964844 11.121094 31.363281 11.359375 C 31.757812 11.597656 31.777344 12.300781 31.410156 12.929688 C 31.039062 13.554688 30.417969 13.867188 30.023438 13.628906 C 29.625 13.386719 29.605469 12.6875 29.972656 12.058594 M 29.972656 12.058594 "/>
<path style=" stroke:none;fill-rule:evenodd;fill:rgb(100%,100%,100%);fill-opacity:0.101961;" d="M 33.65625 12.421875 C 33.976562 12.957031 34.132812 13.582031 34.039062 14.195312 C 33.835938 15.558594 32.519531 16.355469 31.097656 15.976562 C 29.679688 15.601562 28.699219 14.191406 28.902344 12.832031 C 28.984375 12.273438 29.253906 11.808594 29.640625 11.484375 C 28.9375 11.859375 28.429688 12.539062 28.300781 13.410156 C 28.054688 15.046875 29.238281 16.738281 30.945312 17.191406 C 32.648438 17.644531 34.230469 16.6875 34.472656 15.050781 C 34.617188 14.109375 34.285156 13.152344 33.65625 12.421875 M 33.65625 12.421875 "/>
</g>
</svg>
