<!-- color: #fc7b01 -->
<svg xmlns="http://www.w3.org/2000/svg" xmlns:xlink="http://www.w3.org/1999/xlink" width="48px" height="48px" viewBox="0 0 48 48" version="1.1">
<g id="surface1">
<path style=" stroke:none;fill-rule:nonzero;fill:rgb(100%,100%,100%);fill-opacity:1;" d="M 23.5 12 C 22.976562 11.996094 22.328125 12 21.503906 12.007812 C 18.4375 12.035156 18.4375 12.035156 17.726562 12.226562 C 16.273438 12.617188 14.742188 13.628906 13.800781 14.734375 C 12.761719 15.953125 11.996094 17.335938 11.996094 19 C 11.996094 19.789062 11.996094 24.554688 11.996094 27.542969 C 12.160156 33.996094 15.921875 35.839844 18.996094 36 C 19.652344 36 27.996094 36 28.996094 36 C 32.820312 35.691406 35.898438 32.128906 35.996094 29.5625 L 35.996094 25.984375 C 36.007812 23.019531 36.007812 21.996094 35.671875 21.597656 C 35.320312 21.179688 35.054688 20.984375 33.992188 20.984375 C 32.957031 20.984375 32.585938 21.03125 32.246094 20.773438 C 31.816406 20.449219 31.707031 20.164062 31.636719 19.238281 C 31.402344 15.925781 29.34375 13.273438 26.269531 12.308594 C 25.515625 12.070312 25.0625 11.996094 23.492188 11.984375 M 19.597656 18.003906 L 24 18.003906 C 24.882812 18.003906 25.601562 18.714844 25.601562 19.605469 C 25.601562 20.492188 24.886719 21.003906 24 21.003906 L 19.597656 21.003906 C 18.710938 21.003906 17.996094 20.492188 17.996094 19.605469 C 17.996094 18.71875 18.707031 18.003906 19.597656 18.003906 M 19.597656 27.003906 L 28.398438 27.003906 C 29.285156 27.003906 30 27.519531 30 28.402344 C 30 29.289062 29.289062 30.003906 28.398438 30.003906 L 19.597656 30.003906 C 18.710938 30.003906 17.996094 29.292969 17.996094 28.402344 C 17.996094 27.519531 18.707031 27.003906 19.597656 27.003906 M 19.597656 27.003906 "/>
</g>
</svg>
