<!-- color: #b0d0da -->
<svg xmlns="http://www.w3.org/2000/svg" xmlns:xlink="http://www.w3.org/1999/xlink" width="48px" height="48px" viewBox="0 0 48 48" version="1.1">
<g id="surface1">
<path style=" stroke:none;fill-rule:nonzero;fill:rgb(97.647059%,73.333333%,9.411765%);fill-opacity:1;" d="M 28.570312 24 C 28.570312 26.523438 26.523438 28.570312 24 28.570312 C 21.476562 28.570312 19.429688 26.523438 19.429688 24 C 19.429688 21.476562 21.476562 19.429688 24 19.429688 C 26.523438 19.429688 28.570312 21.476562 28.570312 24 M 28.570312 24 "/>
<path style=" stroke:none;fill-rule:nonzero;fill:rgb(9.019608%,27.058824%,45.882353%);fill-opacity:1;" d="M 12.617188 11 L 11 12.617188 L 16.785156 18.40625 L 16.785156 18.429688 L 18.40625 20.046875 C 19.648438 18.292969 21.6875 17.140625 24 17.140625 C 24.894531 17.140625 25.742188 17.332031 26.523438 17.640625 L 28.238281 15.929688 C 26.96875 15.253906 25.539062 14.855469 24 14.855469 C 21.890625 14.855469 19.953125 15.585938 18.40625 16.785156 M 35.382812 11 L 29.59375 16.785156 C 29.585938 16.777344 29.582031 16.769531 29.570312 16.761719 L 27.953125 18.378906 C 29.714844 19.621094 30.855469 21.683594 30.855469 24 C 30.855469 24.902344 30.671875 25.757812 30.355469 26.546875 L 32.070312 28.261719 C 32.75 26.988281 33.144531 25.542969 33.144531 24 C 33.144531 21.890625 32.414062 19.953125 31.214844 18.40625 L 37 12.621094 L 35.378906 11 M 15.929688 19.738281 C 15.246094 21.011719 14.855469 22.453125 14.855469 24 C 14.855469 26.109375 15.585938 28.046875 16.785156 29.59375 L 11 35.378906 L 12.617188 37 L 14.332031 35.285156 L 14.308594 35.261719 L 20 29.570312 C 18.269531 28.324219 17.140625 26.292969 17.140625 23.996094 C 17.140625 23.097656 17.328125 22.238281 17.640625 21.449219 L 15.929688 19.734375 M 29.59375 27.953125 C 28.351562 29.707031 26.3125 30.855469 24 30.855469 C 23.078125 30.855469 22.207031 30.660156 21.40625 30.332031 L 19.691406 32.046875 C 20.976562 32.742188 22.4375 33.140625 24 33.140625 C 26.109375 33.140625 28.046875 32.414062 29.59375 31.214844 L 35.378906 37 L 37 35.378906 L 33.59375 31.949219 L 31.214844 29.59375 C 31.21875 29.589844 31.210938 29.574219 31.214844 29.570312 L 29.59375 27.949219 M 29.59375 27.953125 "/>
</g>
</svg>
