<!-- color: #266318 -->
<svg xmlns="http://www.w3.org/2000/svg" xmlns:xlink="http://www.w3.org/1999/xlink" width="48px" height="48px" viewBox="0 0 48 48" version="1.1">
<g id="surface1">
<path style=" stroke:none;fill-rule:nonzero;fill:rgb(97.647059%,97.647059%,97.647059%);fill-opacity:1;" d="M 25.996094 37 L 25.996094 19 L 21.996094 19 L 21.996094 37 M 20.996094 18 L 11.996094 13 L 11.996094 30 L 20.996094 36 M 35.996094 30 L 35.996094 13 L 26.996094 18 L 26.996094 36 M 33.996094 13 C 29.996094 13 27.996094 13.519531 23.996094 17 C 19.996094 13.605469 17.996094 13 13.996094 13 L 21.996094 18 L 25.996094 18 M 33.996094 13 "/>
<path style="fill-rule:nonzero;fill:rgb(100%,100%,100%);fill-opacity:1;stroke-width:0.254;stroke-linecap:butt;stroke-linejoin:miter;stroke:rgb(14.509804%,38.039216%,6.27451%);stroke-opacity:1;stroke-miterlimit:4;" d="M 10.475295 10.319853 L 8.892205 8.736762 C 8.529505 8.877873 8.103967 8.806215 7.811823 8.514071 C 7.519679 8.221927 7.442509 7.789774 7.582518 7.42928 L 8.188854 8.034514 C 8.487613 8.335478 9.059775 7.763316 8.759913 7.463455 L 8.153577 6.858221 C 8.269332 6.814123 8.389497 6.790972 8.507457 6.788768 C 8.774245 6.78546 9.037726 6.879167 9.239471 7.079809 C 9.530512 7.371953 9.605478 7.804106 9.464367 8.164601 L 11.047457 9.747691 C 11.296606 10.104879 10.811537 10.565695 10.476398 10.31875 M 10.4775 10.319853 " transform="matrix(3.543307,0,0,3.543307,0,0)"/>
</g>
</svg>
