<!-- color: #eeeeee -->
<svg xmlns="http://www.w3.org/2000/svg" xmlns:xlink="http://www.w3.org/1999/xlink" width="48px" height="48px" viewBox="0 0 48 48" version="1.1">
<g id="surface1">
<path style=" stroke:none;fill-rule:nonzero;fill:rgb(0%,20.784314%,37.254902%);fill-opacity:1;" d="M 12 13.75 C 20 8.753906 28 8.753906 36 13.75 L 34 15.75 C 27 11.75 21 11.75 14.003906 15.75 M 12.003906 13.75 "/>
<path style=" stroke:none;fill-rule:nonzero;fill:rgb(97.647059%,97.647059%,97.647059%);fill-opacity:1;" d="M 21.953125 15.296875 C 21.953125 16.125 21.28125 16.796875 20.453125 16.796875 C 19.621094 16.796875 18.953125 16.125 18.953125 15.296875 C 18.953125 14.46875 19.621094 13.796875 20.453125 13.796875 C 21.28125 13.796875 21.953125 14.46875 21.953125 15.296875 M 21.953125 15.296875 "/>
<path style=" stroke:none;fill-rule:nonzero;fill:rgb(58.431373%,63.137255%,66.666667%);fill-opacity:1;" d="M 23.855469 12 C 22.867188 12.003906 21.921875 12.089844 21.089844 12.234375 C 18.640625 12.664062 18.195312 13.558594 18.195312 15.210938 L 18.195312 17.394531 L 23.984375 17.394531 L 23.984375 18.121094 L 16.023438 18.121094 C 14.339844 18.121094 12.867188 19.121094 12.40625 21.023438 C 11.875 23.203125 11.847656 24.566406 12.40625 26.839844 C 12.816406 28.535156 13.796875 29.742188 15.480469 29.742188 L 17.183594 29.742188 L 17.183594 26.84375 C 17.183594 24.957031 18.839844 23.300781 20.804688 23.300781 L 26.863281 23.300781 C 28.472656 23.300781 29.996094 21.988281 29.996094 20.390625 L 29.996094 15.222656 C 29.996094 13.671875 28.4375 12.503906 26.863281 12.246094 C 25.871094 12.082031 24.839844 12.007812 23.851562 12.011719 M 20.722656 13.753906 C 21.320312 13.753906 21.808594 14.246094 21.808594 14.851562 C 21.808594 15.453125 21.320312 15.9375 20.722656 15.9375 C 20.121094 15.9375 19.632812 15.453125 19.632812 14.851562 C 19.632812 14.246094 20.117188 13.753906 20.722656 13.753906 M 20.722656 13.753906 "/>
<path style=" stroke:none;fill-rule:nonzero;fill:rgb(97.647059%,97.647059%,97.647059%);fill-opacity:1;" d="M 28.953125 33.300781 C 28.953125 34.128906 28.28125 34.800781 27.453125 34.800781 C 26.625 34.800781 25.953125 34.128906 25.953125 33.300781 C 25.953125 32.472656 26.625 31.800781 27.453125 31.800781 C 28.28125 31.800781 28.953125 32.472656 28.953125 33.300781 M 28.953125 33.300781 "/>
<path style=" stroke:none;fill-rule:nonzero;fill:rgb(58.431373%,63.137255%,66.666667%);fill-opacity:1;" d="M 30.820312 18.121094 L 30.820312 20.664062 C 30.820312 22.632812 29.128906 24.058594 27.203125 24.058594 L 20.851562 24.058594 C 19.269531 24.058594 17.957031 25.636719 17.957031 27.203125 L 17.957031 32.65625 C 17.957031 34.207031 19.320312 35.117188 20.851562 35.5625 C 22.683594 36.09375 24.679688 36.195312 26.871094 35.5625 C 28.328125 35.144531 29.765625 34.304688 29.765625 32.65625 L 29.765625 30.472656 L 23.984375 30.472656 L 23.984375 29.746094 L 32.664062 29.746094 C 34.34375 29.746094 34.972656 28.582031 35.558594 26.84375 C 36.164062 25.050781 36.132812 23.324219 35.558594 21.027344 C 35.140625 19.367188 34.347656 18.125 32.664062 18.125 M 27.238281 31.929688 C 27.835938 31.929688 28.324219 32.414062 28.324219 33.015625 C 28.324219 33.617188 27.839844 34.113281 27.238281 34.113281 C 26.636719 34.113281 26.148438 33.617188 26.148438 33.015625 C 26.148438 32.414062 26.636719 31.929688 27.238281 31.929688 M 27.238281 31.929688 "/>
</g>
</svg>
