<!-- color: #eeeeee -->
<svg xmlns="http://www.w3.org/2000/svg" xmlns:xlink="http://www.w3.org/1999/xlink" width="48px" height="48px" viewBox="0 0 48 48" version="1.1">
<g id="surface1">
<path style=" stroke:none;fill-rule:nonzero;fill:rgb(52.54902%,23.921569%,72.54902%);fill-opacity:1;" d="M 24 11 L 11 33 L 37 33 M 24 20 C 25.660156 20 27 20.992188 27 22.21875 L 27 27.78125 C 27 29.007812 25.660156 30 24 30 C 22.339844 30 21 29.007812 21 27.78125 L 21 22.21875 C 21 20.992188 22.339844 20 24 20 M 24 20 "/>
<path style=" stroke:none;fill-rule:nonzero;fill:rgb(52.54902%,23.921569%,72.54902%);fill-opacity:1;" d="M 18 29 L 18.003906 29 C 19.105469 29 20.003906 29.792969 20.003906 30.769531 L 20.003906 35.226562 C 20.003906 36.207031 19.105469 37 18.003906 37 L 18 37 C 16.894531 37 16 36.207031 16 35.226562 L 16 30.769531 C 16 29.792969 16.894531 29 18 29 M 18 29 "/>
<path style=" stroke:none;fill-rule:nonzero;fill:rgb(52.54902%,23.921569%,72.54902%);fill-opacity:1;" d="M 29.996094 29 L 30 29 C 31.105469 29 32 29.792969 32 30.769531 L 32 35.226562 C 32 36.207031 31.105469 37 30 37 L 29.996094 37 C 28.894531 37 28 36.207031 28 35.226562 L 28 30.769531 C 28 29.792969 28.894531 29 29.996094 29 M 29.996094 29 "/>
<path style=" stroke:none;fill-rule:nonzero;fill:rgb(52.54902%,23.921569%,72.54902%);fill-opacity:1;" d="M 24 21 L 24.003906 21 C 25.105469 21 26 21.792969 26 22.773438 L 26 27.230469 C 26 28.207031 25.105469 29.003906 24.003906 29.003906 L 24 29.003906 C 22.894531 29.003906 22 28.207031 22 27.230469 L 22 22.773438 C 22 21.792969 22.894531 21 24 21 M 24 21 "/>
<path style=" stroke:none;fill-rule:nonzero;fill:rgb(52.54902%,23.921569%,72.54902%);fill-opacity:1;" d="M 15.5 18 L 15.503906 18 C 16.328125 18 17 18.792969 17 19.773438 L 17 28.230469 C 17 29.207031 16.328125 30 15.503906 30 L 15.5 30 C 14.671875 30 14 29.207031 14 28.230469 L 14 19.773438 C 14 18.792969 14.671875 18 15.5 18 M 15.5 18 "/>
<path style=" stroke:none;fill-rule:nonzero;fill:rgb(52.54902%,23.921569%,72.54902%);fill-opacity:1;" d="M 32.5 18 L 32.503906 18 C 33.332031 18 34 18.792969 34 19.773438 L 34 28.230469 C 34 29.207031 33.332031 30 32.503906 30 L 32.5 30 C 31.671875 30 31 29.207031 31 28.230469 L 31 19.773438 C 31 18.792969 31.671875 18 32.5 18 M 32.5 18 "/>
</g>
</svg>
