<!-- color: #3d3d3d -->
<svg xmlns="http://www.w3.org/2000/svg" xmlns:xlink="http://www.w3.org/1999/xlink" width="48px" height="48px" viewBox="0 0 48 48" version="1.1">
<g id="surface1">
<path style=" stroke:none;fill-rule:nonzero;fill:rgb(87.058824%,87.058824%,87.058824%);fill-opacity:1;" d="M 20.253906 19 L 27.742188 19 C 27.886719 19 28 19.089844 28 19.203125 L 28 28.796875 C 28 28.90625 27.886719 29 27.742188 29 L 20.253906 29 C 20.113281 29 20 28.90625 20 28.796875 L 20 19.203125 C 20 19.089844 20.113281 19 20.253906 19 M 20.253906 19 "/>
<path style=" stroke:none;fill-rule:nonzero;fill:rgb(92.156863%,12.54902%,20.784314%);fill-opacity:1;" d="M 26 29 L 36 35 L 24 11 M 26 29 "/>
<path style=" stroke:none;fill-rule:nonzero;fill:rgb(28.627451%,81.176471%,23.921569%);fill-opacity:1;" d="M 12 35 L 36 35 L 20 25 M 12 35 "/>
<path style=" stroke:none;fill-rule:nonzero;fill:rgb(24.313725%,69.803922%,80%);fill-opacity:1;" d="M 24 11 L 25 19.421875 L 12 35 M 24 11 "/>
</g>
</svg>
