<!-- color: #4b9ed7 -->
<svg xmlns="http://www.w3.org/2000/svg" xmlns:xlink="http://www.w3.org/1999/xlink" width="48px" height="48px" viewBox="0 0 48 48" version="1.1">
<g id="surface1">
<path style="fill-rule:nonzero;fill:rgb(100%,89.019608%,17.647059%);fill-opacity:1;stroke-width:0.564;stroke-linecap:butt;stroke-linejoin:miter;stroke:rgb(17.647059%,17.647059%,17.647059%);stroke-opacity:1;stroke-miterlimit:4;" d="M 6.773333 3.386667 C 6.763412 3.386667 6.75349 3.389974 6.743568 3.394384 C 6.7127 3.395486 6.682934 3.40651 6.655373 3.423047 C 6.655373 3.423047 6.652066 3.426354 6.650964 3.428559 C 6.570486 3.461632 6.520877 3.514549 6.482292 3.561953 C 6.424965 3.631406 6.374254 3.710781 6.323542 3.801181 C 6.215504 3.984184 6.107465 4.215695 6.00053 4.446103 C 5.890287 4.679818 5.780044 4.914636 5.690747 5.094332 C 5.646649 5.182526 5.604757 5.257491 5.572787 5.311511 C 5.566172 5.32474 5.55625 5.332457 5.548533 5.343481 C 5.537509 5.346788 5.526485 5.3523 5.509948 5.354505 C 5.453724 5.367735 5.373247 5.388681 5.277335 5.40632 C 5.085512 5.439392 4.838568 5.468056 4.597136 5.505538 C 4.350191 5.545226 4.110964 5.588221 3.911424 5.634523 C 3.81441 5.655469 3.727318 5.677517 3.649045 5.709488 C 3.607153 5.730434 3.568568 5.745868 3.526675 5.776736 C 3.485886 5.807604 3.429662 5.850599 3.399896 5.948715 C 3.369028 6.050139 3.387769 6.120695 3.404306 6.172509 C 3.421945 6.226528 3.439583 6.261806 3.46053 6.301493 C 3.504627 6.376458 3.565261 6.452526 3.631406 6.529696 C 3.763698 6.689549 3.942292 6.87145 4.116476 7.054453 C 4.297274 7.236354 4.471458 7.410538 4.610365 7.551649 C 4.677613 7.625512 4.738247 7.691658 4.773524 7.73796 C 4.784549 7.751189 4.787856 7.758906 4.794471 7.772136 C 4.794471 7.785365 4.794471 7.795287 4.794471 7.808516 C 4.792266 7.870252 4.783446 7.955139 4.77132 8.054358 C 4.739349 8.255 4.695252 8.511867 4.652257 8.76763 C 4.610365 9.024497 4.57178 9.281363 4.553038 9.489722 C 4.543116 9.594453 4.535399 9.684853 4.543116 9.777457 C 4.545321 9.820452 4.553038 9.870061 4.568472 9.91967 C 4.582804 9.971485 4.604853 10.03763 4.68533 10.100469 C 4.763603 10.161103 4.835261 10.163308 4.887075 10.161103 C 4.935582 10.161103 4.976372 10.154488 5.018264 10.143464 C 5.102049 10.122518 5.182526 10.086137 5.277335 10.044245 C 5.462544 9.959358 5.687439 9.84691 5.907925 9.72454 C 6.127309 9.604375 6.342283 9.476493 6.515365 9.382787 C 6.601354 9.336485 6.678524 9.301207 6.731441 9.276953 C 6.745773 9.270339 6.755695 9.270339 6.767821 9.268134 C 6.779948 9.270339 6.78987 9.270339 6.803099 9.276953 C 6.857118 9.300104 6.934288 9.336485 7.020278 9.382787 C 7.19336 9.476493 7.408334 9.601068 7.629922 9.72454 C 7.849306 9.843603 8.073099 9.959358 8.258307 10.044245 C 8.353117 10.086137 8.433594 10.121415 8.517379 10.143464 C 8.559271 10.154488 8.600061 10.161103 8.648568 10.161103 C 8.700382 10.16441 8.769835 10.161103 8.851415 10.100469 C 8.928585 10.036528 8.950634 9.971485 8.96717 9.91967 C 8.984809 9.867856 8.990321 9.820452 8.992526 9.777457 C 9.000243 9.687058 8.992526 9.595556 8.982604 9.489722 C 8.962761 9.279158 8.923073 9.024497 8.883386 8.76763 C 8.841493 8.510764 8.796294 8.253898 8.765426 8.054358 C 8.752196 7.954037 8.744479 7.870252 8.74007 7.808516 C 8.74007 7.795287 8.74007 7.785365 8.74007 7.772136 C 8.747787 7.758906 8.751094 7.751189 8.762118 7.73796 C 8.797396 7.691658 8.856927 7.625512 8.925278 7.551649 C 9.063082 7.410538 9.239471 7.233047 9.419167 7.054453 C 9.594453 6.87145 9.770842 6.689549 9.905339 6.529696 C 9.970382 6.452526 10.029913 6.376458 10.075113 6.301493 C 10.096059 6.261806 10.115903 6.226528 10.131337 6.172509 C 10.150078 6.120695 10.166615 6.051241 10.137952 5.948715 C 10.107084 5.850599 10.051962 5.807604 10.01007 5.776736 C 9.968177 5.745868 9.927387 5.728229 9.8877 5.709488 C 9.81053 5.677517 9.723438 5.655469 9.623117 5.634523 C 9.426884 5.588221 9.185452 5.545226 8.938507 5.505538 C 8.693768 5.465851 8.446823 5.439392 8.258307 5.40632 C 8.162396 5.387578 8.083021 5.369939 8.024592 5.354505 C 8.010261 5.3523 7.997031 5.346788 7.984905 5.343481 C 7.977188 5.332457 7.967266 5.32474 7.961754 5.311511 C 7.929783 5.257491 7.887891 5.182526 7.843794 5.094332 C 7.755599 4.913533 7.646459 4.677613 7.536215 4.446103 C 7.425972 4.215695 7.319037 3.984184 7.213203 3.801181 C 7.161389 3.710781 7.108472 3.631406 7.053351 3.561953 C 6.999332 3.493603 6.958542 3.388872 6.763412 3.388872 M 6.764514 3.388872 " transform="matrix(3.543307,0,0,3.543307,0,0)"/>
</g>
</svg>
