<!-- color: #005e9d -->
<svg xmlns="http://www.w3.org/2000/svg" xmlns:xlink="http://www.w3.org/1999/xlink" width="48px" height="48px" viewBox="0 0 48 48" version="1.1">
<g id="surface1">
<path style=" stroke:none;fill-rule:nonzero;fill:rgb(100%,72.54902%,6.666667%);fill-opacity:1;" d="M 25.4375 7.507812 C 43.527344 29.5 38.527344 38.160156 10.4375 33.488281 C 29.296875 32.828125 34.296875 24.167969 25.4375 7.507812 M 25.4375 7.507812 "/>
<path style=" stroke:none;fill-rule:nonzero;fill:rgb(0%,66.666667%,86.666667%);fill-opacity:0.941176;" d="M 24.191406 13.28125 C 10.835938 13.507812 8.425781 20.027344 16.875 32.84375 C 17.675781 32.703125 18.4375 32.558594 19.15625 32.375 C 15.929688 21.015625 22.0625 15.042969 37.5625 14.5 C 32.296875 13.625 27.832031 13.21875 24.1875 13.28125 M 17.972656 34.472656 C 19.285156 36.355469 20.808594 38.367188 22.566406 40.5 C 21.457031 38.417969 20.554688 36.460938 19.875 34.625 C 19.261719 34.589844 18.621094 34.527344 17.972656 34.46875 M 17.972656 34.472656 "/>
<path style=" stroke:none;fill-rule:nonzero;fill:rgb(100%,43.529412%,1.176471%);fill-opacity:1;" d="M 35.433594 32 C 35.433594 32 35.996094 31.675781 35.996094 30.003906 C 35.996094 28.390625 35.363281 28.003906 35.363281 28.003906 L 20.292969 28.003906 L 15.996094 30.003906 L 20.292969 32 M 35.433594 32 "/>
<path style=" stroke:none;fill-rule:nonzero;fill:rgb(100%,75.686275%,23.921569%);fill-opacity:1;" d="M 20 28.160156 L 16 30.003906 L 20 31.847656 M 20 28.160156 "/>
<path style=" stroke:none;fill-rule:nonzero;fill:rgb(17.647059%,17.647059%,17.647059%);fill-opacity:1;" d="M 18 29.058594 L 16 29.996094 L 18 30.9375 M 18 29.058594 "/>
<path style=" stroke:none;fill-rule:nonzero;fill:rgb(100%,17.647059%,36.078431%);fill-opacity:1;" d="M 33 28 L 33 32 L 35.4375 32 C 35.4375 32 36 31.675781 36 30 C 36 28.386719 35.375 28 35.375 28 M 33 28 "/>
</g>
</svg>
