<!-- color: #dd4814 -->
<svg xmlns="http://www.w3.org/2000/svg" xmlns:xlink="http://www.w3.org/1999/xlink" width="48px" height="48px" viewBox="0 0 48 48" version="1.1">
<g id="surface1">
<path style=" stroke:none;fill-rule:nonzero;fill:rgb(97.647059%,97.647059%,97.647059%);fill-opacity:1;" d="M 24 12 C 17.371094 12 12 17.371094 12 24 C 12 30.625 17.375 36 24 36 C 30.625 36 36 30.628906 36 24 C 36 17.371094 30.628906 12 24 12 M 28.125 15.332031 C 28.382812 15.339844 28.640625 15.40625 28.878906 15.542969 C 29.644531 15.988281 29.910156 16.972656 29.464844 17.738281 C 29.023438 18.503906 28.046875 18.761719 27.28125 18.320312 C 26.515625 17.875 26.25 16.898438 26.691406 16.132812 C 26.996094 15.605469 27.554688 15.316406 28.125 15.332031 M 24 17.039062 C 24.644531 17.039062 25.269531 17.132812 25.863281 17.292969 C 25.96875 17.941406 26.347656 18.53125 26.957031 18.882812 C 27.566406 19.234375 28.269531 19.269531 28.878906 19.039062 C 30.0625 20.203125 30.832031 21.785156 30.945312 23.550781 L 28.664062 23.589844 C 28.457031 21.199219 26.445312 19.320312 24.003906 19.320312 C 23.296875 19.320312 22.632812 19.480469 22.03125 19.757812 L 20.917969 17.761719 C 21.847656 17.300781 22.894531 17.035156 24.003906 17.035156 M 20.136719 18.210938 L 21.3125 20.171875 C 20.109375 21.019531 19.316406 22.417969 19.316406 24.003906 C 19.316406 25.585938 20.109375 26.984375 21.3125 27.832031 L 20.136719 29.796875 C 18.734375 28.859375 17.695312 27.421875 17.261719 25.746094 C 17.769531 25.335938 18.089844 24.707031 18.089844 24.003906 C 18.089844 23.296875 17.769531 22.671875 17.261719 22.257812 C 17.695312 20.582031 18.738281 19.144531 20.136719 18.210938 M 15.835938 22.40625 C 16.722656 22.40625 17.441406 23.121094 17.441406 24.007812 C 17.441406 24.890625 16.71875 25.609375 15.835938 25.609375 C 14.949219 25.609375 14.234375 24.890625 14.234375 24.007812 C 14.234375 23.121094 14.949219 22.40625 15.835938 22.40625 M 28.660156 24.414062 L 30.945312 24.453125 C 30.832031 26.214844 30.058594 27.800781 28.875 28.964844 C 28.265625 28.734375 27.5625 28.769531 26.953125 29.121094 C 26.34375 29.472656 25.964844 30.066406 25.859375 30.710938 C 25.265625 30.871094 24.640625 30.964844 23.996094 30.964844 C 22.886719 30.964844 21.835938 30.699219 20.910156 30.238281 L 22.027344 28.242188 C 22.628906 28.523438 23.292969 28.679688 24 28.679688 C 26.445312 28.679688 28.453125 26.800781 28.660156 24.410156 M 28.039062 29.460938 C 28.605469 29.449219 29.164062 29.742188 29.46875 30.269531 C 29.914062 31.035156 29.648438 32.015625 28.882812 32.457031 C 28.117188 32.898438 27.136719 32.632812 26.695312 31.867188 C 26.253906 31.101562 26.519531 30.121094 27.285156 29.683594 C 27.523438 29.542969 27.78125 29.46875 28.039062 29.460938 M 28.039062 29.460938 "/>
</g>
</svg>
