<!-- color: #eeeeee -->
<svg xmlns="http://www.w3.org/2000/svg" xmlns:xlink="http://www.w3.org/1999/xlink" width="48px" height="48px" viewBox="0 0 48 48" version="1.1">
<g id="surface1">
<path style=" stroke:none;fill-rule:evenodd;fill:rgb(100%,100%,100%);fill-opacity:0.501961;" d="M 24 9 L 24.003906 9 C 32.285156 9 39 15.714844 39 24 L 39 24.003906 C 39 32.285156 32.285156 39 24.003906 39 L 24 39 C 15.714844 39 9 32.285156 9 24.003906 L 9 24 C 9 15.714844 15.714844 9 24 9 M 24 9 "/>
<path style=" stroke:none;fill-rule:nonzero;fill:rgb(27.058824%,34.509804%,95.686275%);fill-opacity:1;" d="M 37.695312 24 C 37.695312 31.5625 31.566406 37.695312 24 37.695312 C 16.4375 37.695312 10.304688 31.5625 10.304688 24 C 10.304688 16.433594 16.4375 10.300781 24 10.300781 C 31.566406 10.300781 37.695312 16.433594 37.695312 24 M 37.695312 24 "/>
<path style=" stroke:none;fill-rule:nonzero;fill:rgb(97.647059%,97.647059%,97.647059%);fill-opacity:1;" d="M 24 37.398438 C 19.160156 37.476562 14.652344 34.941406 12.210938 30.765625 C 9.769531 26.585938 9.769531 21.414062 12.210938 17.238281 C 14.652344 13.058594 19.160156 10.523438 24 10.601562 C 27.699219 10.601562 30.699219 13.601562 30.699219 17.300781 C 30.699219 21.003906 27.699219 24.003906 24 24.003906 M 24 37.398438 "/>
<path style=" stroke:none;fill-rule:nonzero;fill:rgb(27.058824%,34.509804%,95.686275%);fill-opacity:1;" d="M 30.699219 30.699219 C 30.699219 34.398438 27.699219 37.398438 24 37.398438 C 20.300781 37.398438 17.300781 34.398438 17.300781 30.699219 C 17.300781 26.996094 20.300781 24 24 24 C 27.699219 24 30.699219 26.996094 30.699219 30.699219 M 30.699219 30.699219 "/>
<path style=" stroke:none;fill-rule:nonzero;fill:rgb(27.058824%,34.509804%,95.686275%);fill-opacity:1;" d="M 25.78125 17.296875 C 25.78125 18.28125 24.984375 19.078125 24 19.078125 C 23.019531 19.078125 22.222656 18.28125 22.222656 17.296875 C 22.222656 16.316406 23.019531 15.519531 24 15.519531 C 24.984375 15.519531 25.78125 16.316406 25.78125 17.296875 M 25.78125 17.296875 "/>
<path style=" stroke:none;fill-rule:nonzero;fill:rgb(97.647059%,97.647059%,97.647059%);fill-opacity:1;" d="M 25.78125 30.699219 C 25.78125 31.679688 24.984375 32.476562 24 32.476562 C 23.019531 32.476562 22.222656 31.679688 22.222656 30.699219 C 22.222656 29.714844 23.019531 28.917969 24 28.917969 C 24.984375 28.917969 25.78125 29.714844 25.78125 30.699219 M 25.78125 30.699219 "/>
</g>
</svg>
