<!-- color: #eeeeee -->
<svg xmlns="http://www.w3.org/2000/svg" xmlns:xlink="http://www.w3.org/1999/xlink" width="48px" height="48px" viewBox="0 0 48 48" version="1.1">
<g id="surface1">
<path style=" stroke:none;fill-rule:evenodd;fill:rgb(13.333333%,43.529412%,67.45098%);fill-opacity:1;" d="M 11 20.058594 L 11 27.941406 C 11 29.078125 11.921875 30.007812 13.058594 30.007812 L 32.9375 30.007812 C 34.074219 30.007812 34.996094 29.078125 34.996094 27.941406 L 34.996094 20.058594 C 34.996094 18.921875 34.074219 18 32.9375 18 L 13.058594 18 C 11.921875 18 11 18.921875 11 20.058594 M 11 20.058594 "/>
<path style="fill-rule:nonzero;fill:rgb(91.764706%,91.764706%,91.764706%);fill-opacity:1;stroke-width:1.5;stroke-linecap:round;stroke-linejoin:miter;stroke:rgb(80%,80%,80%);stroke-opacity:1;stroke-miterlimit:4;" d="M 328.311706 157.219875 C 328.311706 153.414287 325.225369 150.328775 321.418763 150.328775 C 317.608425 150.328775 314.52582 153.414287 314.52582 157.219875 C 314.52582 161.025464 317.608425 164.110975 321.418763 164.110975 C 325.225369 164.110975 328.311706 161.025464 328.311706 157.219875 M 328.311706 157.219875 " transform="matrix(-1.0467,0,0,1.04698,365.425113,-140.606065)"/>
</g>
</svg>
