<!-- color: #71cae3 -->
<svg xmlns="http://www.w3.org/2000/svg" xmlns:xlink="http://www.w3.org/1999/xlink" width="48px" height="48px" viewBox="0 0 48 48" version="1.1">
<g id="surface1">
<path style=" stroke:none;fill-rule:nonzero;fill:rgb(68.627451%,85.882353%,92.941176%);fill-opacity:1;" d="M 16 1.90625 L 15.15625 2.15625 L 14.1875 2.21875 L 13.59375 2.65625 L 12.8125 2.625 L 12.875 3.125 L 14 3.09375 L 14.40625 4.1875 L 14.5625 4.78125 L 13.9375 5.132812 L 13.6875 5.601562 L 13.875 6.664062 L 14.625 6.789062 L 15.34375 6.101562 L 15.96875 5.445312 L 16.9375 5.195312 L 18.15625 4.601562 L 18.875 3.726562 L 19.90625 2.476562 L 20.625 2.285156 L 20.59375 2.007812 L 19.46875 2.007812 M 13.78125 1.976562 L 12.96875 2.007812 L 11.5625 2.382812 L 10.75 2.632812 L 9.8125 2.257812 L 9.6875 2.820312 L 10.8125 3.476562 C 10.8125 3.476562 12.855469 2.351562 12.96875 2.351562 M 34.84375 2.195312 L 34.65625 2.507812 L 35.8125 2.664062 L 35.875 2.382812 M 25.96875 2.382812 C 25.914062 2.40625 24.4375 2.414062 24.4375 2.414062 L 24.0625 2.507812 L 24.5625 3.101562 L 25.09375 2.601562 L 25.4375 2.820312 L 25.9375 2.570312 C 25.9375 2.570312 26.023438 2.359375 25.96875 2.382812 M 31.59375 2.851562 L 31.125 2.914062 L 30.71875 3.164062 L 30.25 3.507812 L 29.96875 4.007812 L 30.40625 4.445312 L 30.78125 4.476562 L 30.9375 4.226562 L 30.5625 3.914062 L 30.78125 3.726562 L 30.8125 3.570312 L 31.28125 3.257812 C 31.28125 3.257812 31.890625 3.265625 31.9375 3.257812 C 31.984375 3.25 32.125 3.070312 32.125 3.070312 L 31.96875 2.851562 M 5.71875 3.039062 L 5.625 3.351562 L 6.09375 3.507812 L 6.625 3.257812 M 37.5 3.132812 L 35.375 3.226562 L 34.8125 3.601562 L 34.1875 3.976562 L 33.65625 4.414062 L 33.71875 4.601562 L 33.4375 4.632812 L 33.4375 4.664062 L 29.4375 5.320312 L 25.78125 8.007812 L 25.40625 8.289062 L 25.375 8.289062 L 25.125 8.195312 C 25.125 8.195312 24.96875 8.203125 24.90625 8.257812 C 24.84375 8.3125 24.785156 8.359375 24.59375 8.382812 C 24.402344 8.40625 24.03125 8.382812 24 8.382812 L 23.78125 8.382812 L 23.8125 8.164062 L 23.96875 7.914062 L 23.6875 7.695312 C 23.6875 7.695312 23.507812 7.921875 23.5 7.976562 C 23.492188 8.03125 23.625 8.257812 23.625 8.257812 C 23.625 8.257812 23.5625 8.4375 23.53125 8.476562 C 23.5 8.515625 23.21875 8.601562 23.21875 8.601562 L 22.777344 8.382812 C 22.777344 8.382812 22.597656 8.34375 22.621094 8.445312 C 22.644531 8.546875 22.84375 8.640625 22.84375 8.726562 C 22.84375 8.8125 22.71875 9.007812 22.71875 9.007812 L 22.5625 9.195312 L 22.3125 9.445312 L 21.96875 9.539062 C 21.96875 9.539062 21.71875 9.609375 21.652344 9.632812 C 21.589844 9.65625 21.402344 9.695312 21.402344 9.695312 L 21.152344 9.726562 L 20.996094 9.945312 L 21.277344 10.136719 L 21.46875 10.449219 C 21.46875 10.449219 21.59375 10.667969 21.621094 10.667969 C 21.652344 10.667969 21.71875 10.890625 21.71875 10.890625 L 21.527344 11.140625 L 21.433594 11.140625 L 20.777344 11.265625 L 20.652344 10.984375 L 20.214844 11.421875 L 20.027344 12.140625 L 20.027344 12.734375 L 20.777344 13.140625 L 21.371094 12.921875 L 21.964844 11.859375 L 22.496094 11.203125 L 23.464844 11.046875 L 23.683594 10.859375 L 24.777344 12.140625 L 24.902344 12.578125 L 25.21875 12.421875 L 25.121094 12.046875 L 25.3125 12.046875 L 25.1875 11.796875 L 24.121094 10.796875 L 24.21875 10.609375 L 24.5625 10.578125 L 25.3125 11.328125 L 25.6875 11.765625 L 25.6875 12.453125 L 25.875 12.578125 L 26.25 12.953125 L 26.53125 12.859375 L 26.375 12.296875 L 26.46875 11.953125 L 26.65625 11.734375 L 27.09375 11.890625 L 27.25 11.953125 L 27.21875 11.453125 L 27.46875 10.984375 L 27.625 10.292969 L 28.1875 10.390625 L 28.28125 10.703125 L 28.503906 10.859375 L 28.753906 10.640625 L 28.597656 10.292969 L 29.253906 10.292969 L 29.03125 10.667969 L 29.472656 11.042969 L 29.847656 11.234375 L 30.066406 11.671875 L 29.566406 11.796875 L 28.847656 11.640625 L 28.222656 11.640625 L 27.628906 11.953125 L 27.503906 12.140625 L 27.0625 12.234375 L 27.253906 12.703125 L 27.597656 13.109375 L 28.222656 12.890625 L 28.378906 13.171875 L 28.65625 12.953125 L 29.03125 13.015625 L 29.0625 13.421875 L 28.9375 14.203125 L 28.59375 14.171875 L 28.1875 14.109375 L 28 14.578125 L 26.625 14.328125 L 26.375 14.015625 L 26.0625 14.296875 L 25.71875 14.765625 L 24.84375 14.265625 L 23.96875 13.734375 L 23.96875 12.796875 L 23.40625 12.828125 L 23.375 13.140625 L 22 13.078125 L 21.5625 13.484375 L 20.71875 13.515625 L 20.152344 14.015625 L 19.808594 14.984375 L 18.933594 15.671875 L 18.308594 16.515625 L 18.277344 18.140625 L 18.089844 18.640625 L 18.027344 19.234375 L 18.402344 19.890625 L 18.621094 20.515625 L 19.371094 21.421875 L 19.808594 21.796875 L 20.246094 21.890625 L 20.34375 21.515625 L 21.90625 21.515625 L 22.3125 21.328125 L 22.8125 21.390625 L 22.96875 21.703125 L 23.496094 21.734375 L 23.84375 21.984375 L 23.84375 22.515625 L 23.71875 22.953125 L 23.59375 23.296875 L 23.90625 23.859375 L 24.3125 24.328125 L 24.5 25.519531 L 24.53125 26.300781 L 24.25 26.953125 L 24.21875 27.578125 L 24.4375 28.734375 L 24.628906 28.925781 L 24.90625 30.019531 L 24.9375 30.488281 L 25.503906 31.238281 L 25.566406 31.832031 L 25.660156 32.523438 L 26.003906 32.175781 L 26.878906 32.078125 L 27.410156 32.078125 L 28.378906 30.578125 L 28.441406 29.984375 L 29.097656 29.328125 L 29.128906 28.578125 L 29.472656 27.828125 L 30.285156 27.050781 L 30.285156 26.175781 L 30.097656 25.359375 L 29.972656 24.234375 L 30.566406 23.296875 L 31.632812 21.984375 L 32.035156 21.578125 L 32.191406 21.046875 L 32.441406 20.578125 L 32.507812 19.890625 L 31.90625 19.890625 L 31.632812 20.171875 L 31.066406 20.015625 L 30.722656 19.453125 L 30.441406 18.890625 L 29.785156 18.390625 L 29.632812 17.578125 L 29.351562 17.109375 L 29.035156 16.515625 L 28.632812 15.789062 L 28.535156 15.320312 L 28.976562 15.257812 L 29.226562 15.789062 L 29.726562 16.726562 L 30.101562 17.414062 L 30.507812 18.164062 L 30.945312 18.890625 L 31.539062 19.484375 L 32.070312 18.984375 L 32.664062 18.828125 L 33.101562 18.296875 L 33.695312 17.953125 L 34.039062 17.359375 L 34.070312 16.859375 L 33.789062 16.542969 L 33.414062 16.105469 L 33.164062 16.261719 L 33.007812 16.511719 L 32.601562 16.320312 L 32.476562 16.007812 L 32.195312 15.601562 L 31.757812 15.195312 L 31.757812 14.382812 L 32.039062 14.914062 L 32.382812 15.445312 L 32.976562 15.789062 L 33.382812 15.695312 L 33.632812 15.976562 L 35.414062 15.945312 L 35.382812 15.976562 L 35.945312 16.476562 L 36.351562 17.039062 L 36.476562 17.320312 L 36.757812 17.320312 L 36.851562 17.007812 L 36.945312 17.476562 L 37.101562 18.320312 L 37.445312 19.132812 L 37.636719 19.820312 L 37.914062 20.476562 L 38.136719 20.757812 L 38.449219 20.570312 L 38.542969 20.257812 L 38.667969 19.476562 L 38.640625 18.789062 L 38.890625 18.476562 C 38.890625 18.476562 39.15625 18.113281 39.203125 18.101562 C 39.25 18.089844 39.828125 17.445312 39.828125 17.445312 L 40.109375 17.101562 L 40.421875 16.910156 L 40.796875 16.691406 L 40.953125 16.691406 L 41.015625 17.035156 L 41.171875 17.441406 L 41.671875 18.097656 L 41.671875 18.347656 L 41.765625 18.628906 L 42.109375 18.472656 L 42.078125 18.097656 L 42.390625 18.160156 L 42.453125 18.507812 L 42.425781 19.035156 L 42.519531 19.410156 L 42.800781 19.476562 L 42.894531 19.160156 L 43.238281 19.382812 L 43.300781 19.695312 L 43.617188 20.164062 L 43.929688 20.507812 L 44.148438 20.695312 L 44.679688 20.226562 L 44.898438 19.789062 L 44.804688 19.289062 L 44.710938 18.632812 L 44.117188 18.070312 L 44.023438 17.507812 L 44.273438 17.101562 C 44.273438 17.101562 44.433594 16.78125 44.585938 16.945312 C 44.738281 17.109375 44.808594 17.136719 44.742188 17.320312 C 44.675781 17.503906 44.550781 17.914062 44.550781 17.914062 L 44.925781 18.070312 L 45.082031 17.539062 L 44.925781 17.164062 L 45.300781 17.007812 L 45.992188 16.664062 L 46.429688 16.132812 L 46.773438 15.320312 L 46.742188 14.726562 L 46.398438 13.945312 L 45.710938 13.132812 L 45.273438 12.726562 L 45.050781 12.101562 L 45.453125 12.007812 C 45.453125 12.007812 45.6875 11.605469 45.894531 11.816406 C 46.097656 12.03125 46.394531 12.347656 46.394531 12.347656 C 46.394531 12.347656 46.746094 12.90625 46.796875 12.972656 C 46.851562 13.039062 47.21875 13.375 47.269531 13.441406 C 47.320312 13.507812 47.546875 13.757812 47.546875 13.757812 L 47.921875 13.226562 L 48.019531 13.132812 L 48.019531 12.941406 L 47.488281 12.628906 L 47.019531 12.191406 L 47.363281 11.441406 L 47.929688 11.160156 L 48.023438 10.910156 L 48.023438 9.441406 L 47.742188 8.878906 L 47.429688 8.441406 C 47.429688 8.441406 47.109375 8.394531 47.023438 8.410156 C 46.9375 8.425781 46.242188 7.910156 46.242188 7.910156 L 46.304688 7.410156 L 46.554688 6.972656 L 47.742188 6.816406 L 48.023438 6.847656 L 48.023438 6.53125 L 46.304688 4.28125 L 44.648438 4.09375 L 43.367188 3.777344 C 43.367188 3.777344 42.976562 4.074219 42.773438 4.09375 C 42.570312 4.109375 41.867188 4.21875 41.867188 4.21875 L 41.148438 3.777344 L 39.648438 3.652344 L 39.585938 3.621094 L 38.304688 3.558594 M 25.804688 7.996094 L 29.367188 5.308594 L 28.148438 5.964844 L 27.835938 5.746094 L 27.679688 5.496094 L 27.742188 5.246094 L 28.429688 5.277344 L 28.742188 5.152344 L 28.117188 4.839844 L 27.242188 4.527344 L 26.367188 4.371094 L 25.429688 4.558594 L 24.460938 5.339844 L 24.023438 5.777344 L 23.367188 6.496094 L 23.117188 6.527344 L 23.023438 6.871094 L 23.148438 7.214844 C 23.148438 7.214844 23.28125 7.371094 23.304688 7.371094 C 23.328125 7.371094 23.554688 7.246094 23.554688 7.246094 C 23.554688 7.246094 23.582031 7.128906 23.710938 7.089844 C 23.839844 7.050781 23.960938 7.027344 23.960938 7.027344 L 24.148438 7.402344 L 24.367188 7.714844 L 24.460938 7.964844 C 24.460938 7.964844 24.824219 7.742188 24.835938 7.714844 C 24.847656 7.6875 24.867188 7.308594 24.867188 7.308594 L 25.148438 7.121094 C 25.148438 7.121094 25.222656 6.988281 25.210938 6.964844 C 25.199219 6.941406 25.023438 6.746094 25.023438 6.746094 L 24.867188 6.683594 L 24.929688 6.371094 C 24.929688 6.371094 25.054688 6.320312 25.054688 6.277344 C 25.054688 6.234375 25.242188 6.089844 25.242188 6.089844 L 25.460938 5.808594 L 25.617188 5.621094 L 25.835938 5.464844 L 26.085938 5.652344 L 26.085938 5.777344 L 25.867188 6.027344 L 25.804688 6.277344 L 25.804688 6.621094 L 25.992188 6.777344 L 26.335938 6.746094 L 26.652344 6.683594 L 26.933594 6.839844 L 26.867188 7.058594 C 26.867188 7.058594 26.671875 7.246094 26.617188 7.277344 C 26.5625 7.308594 26.203125 7.214844 26.117188 7.246094 C 26.03125 7.277344 25.804688 7.558594 25.804688 7.558594 C 25.804688 7.558594 25.78125 7.808594 25.804688 7.871094 C 25.8125 7.894531 25.8125 7.933594 25.804688 7.996094 M 29.460938 5.308594 L 33.460938 4.621094 L 33.429688 4.464844 L 33.117188 4.027344 L 32.460938 3.964844 C 32.460938 3.964844 32.617188 4.632812 32.617188 4.714844 C 32.617188 4.796875 32.179688 4.746094 32.179688 4.746094 L 31.429688 4.777344 C 31.429688 4.777344 30.347656 5.027344 30.210938 5.027344 C 30.082031 5.027344 29.449219 5.289062 29.398438 5.308594 M 4.308594 3.492188 L 3.808594 4.058594 L 4.246094 4.277344 L 4.808594 4.027344 L 4.839844 4.652344 L 5.308594 4.964844 L 5.808594 4.496094 L 6.496094 4.621094 L 6.777344 3.964844 L 5.652344 3.871094 M 7.433594 3.589844 L 7.871094 4.683594 L 7.339844 4.746094 L 6.933594 5.246094 L 6.027344 4.964844 L 5.214844 5.277344 L 4.433594 5.089844 L 3.527344 4.527344 L 2.277344 4.558594 L 1.183594 5.027344 L 0.464844 4.683594 L 0.0273438 4.652344 L 0.0273438 18.246094 L 0.871094 18.714844 L 1.371094 18.652344 L 2.089844 18.996094 L 3.183594 19.589844 L 3.339844 20.308594 L 4.214844 21.152344 L 4.714844 20.777344 L 5.121094 21.089844 L 5.058594 20.371094 L 4.277344 20.558594 L 4.027344 19.652344 L 3.933594 19.246094 L 3.246094 18.621094 L 3.246094 18.183594 L 3.777344 17.621094 L 3.433594 17.214844 L 2.867188 17.308594 L 2.023438 18.152344 L 1.335938 18.058594 C 1.335938 18.058594 1.019531 17.527344 0.960938 17.402344 C 0.894531 17.277344 1.148438 16.839844 1.148438 16.839844 L 1.085938 15.558594 L 1.808594 15.058594 L 2.371094 14.871094 L 3.183594 14.871094 L 4.308594 14.621094 L 4.714844 15.152344 L 4.652344 15.777344 L 5.121094 16.183594 L 5.183594 15.746094 C 5.183594 15.746094 5.152344 15.027344 5.089844 14.839844 C 5.027344 14.652344 5.652344 14.214844 5.652344 14.214844 L 6.152344 13.589844 L 6.746094 12.871094 L 7.027344 12.308594 L 7.964844 11.808594 L 8.589844 11.121094 C 8.589844 11.121094 9.523438 10.964844 9.714844 10.871094 C 9.90625 10.777344 9.78125 10.433594 9.589844 10.121094 C 9.398438 9.808594 9.683594 9.496094 9.683594 9.496094 L 10.402344 9.058594 L 11.027344 9.183594 L 11.089844 9.933594 C 11.089844 9.933594 11.679688 10.496094 11.871094 10.402344 C 12.0625 10.308594 12.152344 9.996094 12.152344 9.996094 L 11.839844 9.183594 L 12.027344 8.367188 L 11.183594 8.492188 L 11.183594 7.117188 L 10.933594 7.367188 L 10.277344 7.398438 L 10.183594 6.710938 L 9.746094 6.179688 C 9.746094 6.179688 9.316406 6.429688 8.902344 6.585938 C 8.488281 6.738281 8.589844 7.054688 8.589844 7.054688 L 8.558594 7.898438 L 7.871094 8.464844 L 7.433594 9.113281 C 7.433594 9.113281 7.152344 8.925781 7.152344 8.800781 C 7.152344 8.675781 7.085938 8.332031 7.085938 8.332031 L 6.367188 7.769531 C 6.367188 7.769531 5.804688 7.363281 5.773438 7.238281 C 5.742188 7.113281 6.117188 6.550781 6.117188 6.550781 C 6.117188 6.550781 6.925781 6.050781 7.117188 5.894531 C 7.308594 5.738281 8.332031 6.238281 8.460938 6.144531 C 8.589844 6.050781 9.085938 5.269531 9.085938 5.269531 L 9.527344 4.675781 L 9.085938 5.175781 L 8.335938 4.457031 L 8.460938 3.738281 M 9.933594 3.613281 L 9.683594 4.238281 L 9.835938 4.582031 L 10.402344 4.519531 L 10.652344 4.988281 L 10.152344 5.519531 L 9.585938 5.582031 L 10.085938 5.800781 L 10.617188 6.269531 L 11.148438 6.394531 L 11.335938 5.675781 L 11.367188 5.238281 L 11.992188 5.332031 C 11.992188 5.332031 11.804688 5.644531 11.898438 5.644531 C 11.992188 5.644531 12.367188 5.238281 12.367188 5.238281 L 11.304688 4.144531 C 11.304688 4.144531 10.867188 3.800781 10.738281 3.894531 C 10.609375 3.988281 10.269531 3.957031 10.269531 3.957031 M 18.613281 5.394531 L 18.488281 5.800781 C 18.941406 6.152344 19.113281 6.144531 19.113281 6.144531 L 19.644531 6.019531 L 19.988281 5.675781 L 19.769531 5.394531 M 21.394531 7.175781 L 21.144531 7.394531 C 21.074219 7.699219 20.988281 8.019531 20.988281 8.019531 L 21.460938 8.238281 L 21.523438 8.519531 L 21.273438 8.769531 L 21.054688 9.144531 L 21.210938 9.300781 L 21.773438 9.207031 L 22.273438 8.988281 L 21.992188 8.613281 L 21.898438 7.957031 L 21.554688 7.582031 M 20.613281 8.363281 L 20.335938 8.832031 L 20.710938 8.988281 L 20.863281 8.707031 M 5.175781 9.457031 L 5.832031 9.738281 L 6.269531 10.300781 L 6.550781 10.738281 C 6.550781 10.738281 6.300781 11.585938 6.238281 11.738281 C 6.175781 11.894531 5.988281 11.425781 5.988281 11.425781 L 5.832031 10.613281 L 5.300781 10.832031 L 4.894531 11.800781 L 4.988281 10.988281 L 5.113281 10.425781 L 4.460938 10.175781 L 5.023438 9.644531 M 31.554688 10.207031 C 31.691406 10.164062 31.929688 10.363281 31.929688 10.363281 L 31.679688 10.582031 L 31.773438 10.894531 L 32.054688 11.644531 L 32.335938 12.113281 L 32.710938 12.710938 L 32.304688 12.898438 L 31.773438 12.554688 L 31.554688 11.898438 C 31.554688 11.898438 31.253906 11.496094 31.113281 11.429688 C 30.976562 11.363281 30.863281 11.148438 30.863281 11.148438 L 30.988281 10.617188 C 30.988281 10.617188 31.414062 10.257812 31.554688 10.214844 M 23.648438 11.402344 L 23.273438 12.121094 L 23.554688 12.402344 L 23.804688 12.183594 L 23.835938 11.867188 M 22.394531 12.148438 L 22.394531 12.339844 L 22.550781 12.308594 M 24.550781 12.621094 L 24.363281 12.683594 L 24.675781 13.214844 L 24.957031 12.996094 M 4.425781 16.808594 L 4.113281 16.964844 L 4.644531 17.246094 L 5.238281 17.371094 L 5.582031 17.839844 L 5.988281 17.589844 L 5.925781 17.308594 L 5.238281 16.808594 M 6.113281 19.902344 L 5.296875 20.339844 L 5.203125 21.246094 L 5.015625 22.246094 L 4.453125 22.996094 L 4.484375 24.121094 L 4.953125 25.277344 L 5.453125 26.683594 L 6.765625 27.996094 L 6.828125 28.746094 L 6.921875 32.121094 L 7.394531 34.027344 C 7.394531 34.027344 7.679688 35.125 7.613281 35.214844 C 7.546875 35.304688 7.988281 36.121094 7.988281 36.121094 L 8.863281 37.496094 L 10.082031 38.027344 L 9.582031 37.433594 L 9.332031 36.746094 L 9.582031 36.027344 L 8.925781 35.683594 C 8.925781 35.683594 9.359375 35.398438 9.425781 35.308594 C 9.492188 35.21875 9.332031 34.839844 9.332031 34.839844 L 9.144531 34.367188 L 9.644531 33.714844 L 10.421875 33.523438 L 10.546875 32.929688 L 10.078125 32.710938 L 10.269531 32.210938 L 11.019531 32.113281 L 11.671875 30.519531 L 12.144531 29.425781 L 13.113281 28.957031 C 13.113281 28.957031 13.425781 28.027344 13.425781 27.894531 C 13.425781 27.761719 13.519531 26.363281 13.519531 26.363281 L 14.269531 25.332031 L 14.363281 24.644531 L 13.800781 24.300781 L 13.332031 23.738281 L 12.488281 23.800781 L 11.144531 23.019531 L 10.863281 22.363281 C 10.863281 22.363281 10.390625 21.550781 10.296875 21.550781 C 10.207031 21.550781 9.644531 21.582031 9.644531 21.582031 L 9.113281 21.050781 L 8.769531 20.394531 L 7.421875 20.113281 L 6.984375 19.894531 M 42.546875 20.394531 C 42.660156 20.527344 43.363281 22.613281 43.453125 22.613281 C 43.542969 22.613281 44.078125 22.675781 44.078125 22.675781 L 43.796875 21.832031 M 38.953125 20.457031 L 38.640625 20.863281 L 38.796875 21.457031 L 39.140625 21.082031 L 39.078125 20.613281 M 47.046875 21.175781 L 45.578125 21.988281 C 45.578125 22.082031 44.859375 22.679688 44.859375 22.679688 L 45.046875 23.304688 L 45.453125 23.773438 L 45.734375 24.460938 L 47.609375 23.242188 M 42.453125 21.617188 L 42.015625 21.679688 L 44.015625 24.679688 L 44.546875 25.273438 L 45.859375 25.339844 L 46.671875 25.589844 L 45.796875 24.964844 L 44.546875 24.617188 L 44.234375 23.464844 L 43.546875 22.898438 M 31.949219 26.492188 L 31.949219 26.933594 C 31.929688 26.996094 31.546875 27.308594 31.546875 27.308594 L 31.074219 27.527344 L 30.730469 27.808594 L 30.980469 28.152344 L 31.136719 28.308594 L 30.730469 28.652344 L 30.730469 29.214844 L 30.886719 29.808594 L 31.230469 29.902344 L 31.636719 29.277344 L 31.886719 28.871094 L 31.824219 28.371094 L 32.199219 27.777344 L 32.324219 27.496094 L 32.324219 26.933594 L 32.230469 26.496094 M 48.011719 27.214844 C 48.007812 27.214844 47.980469 27.246094 47.980469 27.246094 L 47.480469 28.277344 C 47.480469 28.277344 46.375 28.4375 46.355469 28.527344 C 46.332031 28.617188 45.789062 28.902344 45.789062 28.902344 C 45.679688 28.902344 45.320312 29.558594 45.320312 29.558594 L 45.257812 31.621094 L 45.132812 32.371094 L 45.445312 32.777344 L 46.976562 32.246094 L 47.476562 31.683594 L 48.007812 31.683594 M 11.476562 35.964844 L 11.257812 36.117188 L 11.164062 36.148438 L 11.664062 36.398438 M 10.632812 36.148438 L 10.414062 36.648438 L 10.851562 36.554688 M 12.132812 40.273438 L 11.664062 40.992188 L 10.789062 41.398438 L 11.289062 42.023438 L 10.539062 42.398438 L 8.070312 42.273438 L 7.320312 41.523438 L 6.664062 41.398438 L 7.320312 42.773438 L 6.164062 42.554688 L 2.195312 42.679688 L 1.351562 43.773438 L 0.132812 43.648438 L 0.0078125 43.898438 L 0.0078125 47.992188 L 45.285156 47.992188 L 48.007812 46.214844 L 48.007812 44.308594 L 47.882812 43.117188 L 46.910156 42.898438 L 45.691406 43.054688 L 44.816406 43.835938 L 43.347656 44.429688 L 43.972656 43.679688 L 45.316406 42.898438 L 47.472656 42.398438 L 47.722656 41.523438 L 46.722656 41.523438 C 46.722656 41.523438 45.378906 40.855469 45.378906 40.679688 C 45.378906 40.503906 43.878906 40.554688 43.878906 40.554688 L 42.15625 40.742188 L 40.503906 40.648438 L 37.1875 40.773438 L 34.125 41.398438 C 34.125 41.398438 32.648438 42.191406 32.46875 42.148438 C 32.289062 42.105469 33.09375 41.117188 33.09375 41.117188 L 31.65625 41.214844 L 30.75 40.464844 L 29.84375 41.089844 C 29.84375 41.089844 28.628906 41.183594 28.3125 41.183594 C 27.996094 41.183594 27.59375 41.746094 27.59375 41.746094 L 25.125 41.652344 L 20.875 41.839844 L 19.75 42.808594 L 19.46875 42.839844 L 16.25 42.621094 L 14.03125 42.839844 L 13.25 42.464844 L 13.28125 42.402344 C 13.28125 42.402344 12.625 41.078125 12.625 40.902344 C 12.625 40.726562 12.125 40.277344 12.125 40.277344 M 12.46875 43.464844 L 13.8125 43.902344 L 12.15625 43.902344 L 11.507812 43.558594 M 12.476562 43.464844 "/>
<path style=" stroke:none;fill-rule:nonzero;fill:rgb(35.294118%,35.294118%,35.294118%);fill-opacity:1;" d="M 29.148438 6.816406 C 30.289062 7.035156 31.265625 7.289062 32.046875 7.632812 C 33.253906 8.148438 34.023438 8.832031 34.394531 9.617188 C 33.273438 9.417969 32.285156 9.46875 31.398438 9.804688 C 37.777344 12.238281 40.800781 15.144531 40.449219 18.488281 C 39.980469 17.789062 39.351562 17.335938 38.558594 17.105469 C 39.535156 20.773438 39.644531 23.777344 38.851562 26.164062 C 38.308594 24.570312 37.800781 23.636719 37.355469 23.300781 C 37.972656 28.21875 37.136719 31.851562 34.84375 34.21875 C 35.28125 32.773438 35.464844 31.597656 35.367188 30.664062 C 32.675781 34.554688 29.609375 36.546875 26.179688 36.675781 C 24.824219 36.660156 23.542969 36.488281 22.335938 36.109375 C 20.570312 35.539062 18.972656 34.539062 17.546875 33.152344 C 19.769531 33.328125 21.789062 32.953125 23.574219 32.082031 L 26.515625 30.257812 C 26.882812 29.992188 27.242188 30.019531 27.589844 30.183594 C 28.304688 30.085938 28.484375 29.878906 28.277344 29.230469 C 27.824219 28.847656 27.425781 28.34375 26.746094 27.976562 C 25.28125 27.242188 23.765625 27.191406 22.183594 28.3125 C 20.660156 29.140625 19.203125 29.097656 17.785156 28.21875 C 16.851562 27.601562 15.949219 26.769531 15.082031 25.730469 L 14.753906 25.261719 L 14.753906 25.222656 C 14.796875 24.195312 15.210938 23.648438 16.058594 23.523438 C 17.011719 23.605469 18.109375 23.808594 19.347656 24.152344 C 19.554688 23.011719 19.28125 21.824219 18.535156 20.597656 L 18.558594 20.460938 C 19.71875 19.425781 20.679688 18.800781 21.558594 18.316406 C 21.871094 17.902344 22.011719 17.753906 22.242188 17.382812 C 22.191406 17.273438 22.292969 17.214844 22.359375 17.269531 C 22.425781 16.957031 22.429688 16.996094 22.140625 16.59375 C 21.285156 16.796875 20.324219 16.554688 19.675781 16.390625 C 19.339844 16.296875 18.882812 16.089844 18.359375 15.609375 L 17.023438 14.351562 L 16.675781 13.917969 L 16.699219 13.757812 C 16.851562 12.769531 17.347656 11.964844 17.742188 11.210938 C 18.183594 10.519531 18.992188 9.773438 20.222656 8.976562 C 17.941406 9.25 15.898438 10.234375 14.066406 11.933594 C 12.546875 11.398438 10.730469 11.515625 8.660156 12.28125 L 8.09375 12.371094 C 8.0625 12.386719 8.363281 12.488281 8.335938 12.503906 L 8.660156 12.28125 C 7.371094 11.695312 7.433594 10.894531 7.011719 8.214844 C -0.636719 16.394531 -0.71875 28.675781 5.339844 37.558594 C 9.929688 43.292969 15.691406 46.339844 22.636719 46.746094 C 38.785156 47.46875 49.367188 33.550781 46.773438 19.433594 C 46.710938 18.316406 45.328125 13.476562 42.796875 10.195312 C 43.238281 11.894531 43.273438 13.75 43.28125 14.714844 C 42.335938 11.503906 39.703125 8.847656 35.886719 7.730469 C 34 7.183594 31.738281 6.890625 29.144531 6.816406 M 29.144531 6.816406 "/>
<path style=" stroke:none;fill-rule:nonzero;fill:rgb(92.54902%,49.803922%,26.27451%);fill-opacity:1;" d="M 41.039062 15.417969 C 41.09375 15.515625 41.136719 15.613281 41.1875 15.707031 C 41.183594 15.726562 41.191406 15.75 41.1875 15.761719 C 41.175781 15.746094 41.15625 15.722656 41.15625 15.707031 C 41.113281 15.609375 41.085938 15.515625 41.039062 15.417969 M 41.039062 15.417969 "/>
<path style=" stroke:none;fill-rule:nonzero;fill:rgb(60%,60%,60%);fill-opacity:1;" d="M 26.597656 30.160156 C 26.925781 29.976562 27.34375 30.078125 27.65625 30.160156 C 27.964844 30.132812 28.566406 29.964844 28.328125 29.1875 C 27.929688 28.71875 27.328125 28.160156 26.140625 27.75 M 26.597656 30.160156 "/>
<path style=" stroke:none;fill-rule:nonzero;fill:rgb(17.647059%,17.647059%,17.647059%);fill-opacity:1;" d="M 19.773438 16.464844 L 21.496094 18.269531 C 21.738281 18.109375 22.03125 17.976562 22.148438 17.417969 C 22.171875 17.378906 22.203125 17.355469 22.257812 17.347656 C 22.464844 16.9375 22.257812 16.796875 22.003906 16.601562 C 21.273438 16.613281 20.746094 16.578125 19.773438 16.464844 M 19.773438 16.464844 "/>
<path style=" stroke:none;fill-rule:nonzero;fill:rgb(60%,60%,60%);fill-opacity:1;" d="M 18.660156 20.464844 C 18.445312 19.960938 18.054688 19.269531 17.582031 18.890625 L 20.550781 17.414062 L 21.464844 18.363281 C 20.421875 18.996094 19.476562 19.644531 18.660156 20.464844 M 18.660156 20.464844 "/>
<path style=" stroke:none;fill-rule:nonzero;fill:rgb(83.921569%,83.921569%,83.921569%);fill-opacity:1;" d="M 17.039062 14.050781 C 16.511719 15.84375 16.839844 17.464844 17.632812 18.953125 L 20.609375 17.355469 C 20.214844 16.890625 19.804688 16.441406 19.804688 16.441406 C 19.5 16.347656 19.109375 16.078125 18.632812 15.605469 L 17.414062 14.351562 M 17.039062 14.050781 "/>
</g>
</svg>
