<!-- color: #eeeeee -->
<svg xmlns="http://www.w3.org/2000/svg" xmlns:xlink="http://www.w3.org/1999/xlink" width="48px" height="48px" viewBox="0 0 48 48" version="1.1">
<g id="surface1">
<path style=" stroke:none;fill-rule:nonzero;fill:rgb(83.921569%,18.431373%,18.823529%);fill-opacity:1;" d="M 22.109375 11.765625 C 22.152344 12.722656 21.980469 13.828125 21.816406 14.777344 C 21.617188 15.867188 21.1875 17.460938 21.347656 18.535156 C 21.609375 20.308594 22.832031 21.035156 23.8125 22.292969 C 22.8125 22.210938 22.089844 22.015625 21.179688 21.582031 C 20.511719 21.261719 19.851562 20.890625 19.3125 20.378906 C 16.863281 18.042969 17.515625 14.679688 18.238281 11.761719 C 18.433594 10.960938 18.929688 8.933594 18.882812 8.179688 C 18.804688 7 18.195312 6.140625 17.605469 5.167969 C 20.699219 5.5 22.003906 9.042969 22.113281 11.753906 M 22.109375 11.761719 "/>
<path style=" stroke:none;fill-rule:nonzero;fill:rgb(29.803922%,51.764706%,75.686275%);fill-opacity:1;" d="M 31.25 12.144531 C 30.421875 13.441406 29.203125 14.472656 27.949219 15.339844 C 26.628906 16.25 25.144531 17.121094 24.574219 18.726562 C 24.226562 19.753906 24.378906 20.878906 24.574219 21.921875 C 23.582031 21.355469 23.109375 20.160156 22.824219 19.101562 C 22.667969 18.527344 22.484375 17.433594 22.515625 16.84375 C 22.738281 12 27.722656 10.964844 30.199219 8.554688 C 31.21875 7.558594 31.59375 6.578125 31.710938 5.183594 C 33.367188 7.0625 32.457031 10.257812 31.25 12.144531 M 31.25 12.144531 "/>
<path style=" stroke:none;fill-rule:nonzero;fill:rgb(17.254902%,61.960784%,27.058824%);fill-opacity:1;" d="M 14.03125 14.574219 C 17.664062 17.703125 17.449219 23.785156 22.878906 22.863281 C 21.722656 24.660156 17.40625 24.539062 15.722656 23.527344 C 12.742188 21.730469 12.105469 17.058594 10.382812 14.972656 C 9.574219 14 8.753906 13.710938 7.636719 13.273438 C 9.554688 12.03125 12.472656 13.242188 14.019531 14.574219 M 14.03125 14.574219 "/>
<path style=" stroke:none;fill-rule:nonzero;fill:rgb(17.254902%,61.960784%,27.058824%);fill-opacity:1;" d="M 39.65625 16.8125 C 37.105469 19.574219 33.785156 19.28125 30.398438 19.289062 C 28.863281 19.292969 27.980469 19.453125 26.859375 20.621094 C 26.292969 21.214844 25.988281 22.015625 25.320312 22.484375 C 25.320312 21.296875 25.347656 20.640625 25.703125 19.476562 C 25.914062 18.785156 26.175781 18.1875 26.597656 17.597656 C 29.042969 14.160156 33.234375 15.347656 36.789062 15.339844 C 38.917969 15.335938 39.40625 14.941406 40.929688 13.449219 C 41.3125 14.605469 40.417969 15.980469 39.65625 16.804688 M 39.65625 16.808594 "/>
<path style=" stroke:none;fill-rule:nonzero;fill:rgb(83.921569%,18.431373%,18.823529%);fill-opacity:1;" d="M 27.199219 21.902344 C 27.929688 21.472656 28.621094 21.171875 29.457031 20.988281 C 32.925781 20.226562 34.925781 22.519531 37.164062 24.742188 C 38.054688 25.628906 39.332031 26.878906 40.550781 27.257812 C 41.371094 27.515625 41.972656 27.46875 42.804688 27.375 C 42.121094 28.558594 40.515625 28.902344 39.226562 29.007812 C 36.277344 29.242188 33.773438 27.253906 31.707031 25.429688 C 30.917969 24.738281 30.257812 24 29.261719 23.597656 C 27.703125 22.972656 26.589844 23.585938 25.121094 23.976562 C 25.667969 22.960938 26.195312 22.464844 27.191406 21.886719 M 27.199219 21.902344 "/>
<path style=" stroke:none;fill-rule:nonzero;fill:rgb(29.803922%,51.764706%,75.686275%);fill-opacity:1;" d="M 8.207031 23.847656 C 10.886719 22.996094 13.417969 23.617188 15.917969 24.71875 C 16.945312 25.171875 17.960938 25.765625 19.113281 25.835938 C 20.65625 25.921875 21.726562 24.699219 23.0625 24.179688 C 22.699219 25.226562 22.351562 25.933594 21.648438 26.8125 C 21.179688 27.402344 20.6875 27.832031 20.054688 28.242188 C 17.246094 30.058594 14.070312 28.660156 11.40625 27.328125 C 10.472656 26.867188 8.851562 26.023438 7.828125 25.945312 C 6.996094 25.878906 5.960938 26.320312 5.195312 26.625 C 5.546875 25.191406 6.84375 24.277344 8.203125 23.847656 M 8.214844 23.847656 "/>
<path style=" stroke:none;fill-rule:nonzero;fill:rgb(29.803922%,51.764706%,75.686275%);fill-opacity:1;" d="M 26.824219 24.179688 C 27.738281 24.191406 28.40625 24.308594 29.269531 24.644531 C 29.824219 24.863281 30.492188 25.199219 30.960938 25.570312 C 34.320312 28.238281 32.609375 32.917969 33.503906 36.40625 C 33.847656 37.769531 34.703125 38.339844 35.476562 39.417969 C 31.117188 39.320312 29.101562 34.769531 29.078125 30.957031 C 29.074219 29.828125 29.046875 28.441406 28.613281 27.378906 C 28.269531 26.542969 27.550781 25.765625 26.824219 25.242188 C 26.253906 24.835938 25.75 24.765625 25.316406 24.183594 C 25.316406 24.183594 26.824219 24.183594 26.824219 24.183594 M 26.824219 24.183594 "/>
<path style=" stroke:none;fill-rule:nonzero;fill:rgb(83.921569%,18.431373%,18.823529%);fill-opacity:1;" d="M 24.378906 27.941406 C 24.367188 28.738281 24.300781 29.25 24.046875 30.011719 C 22.542969 34.566406 17.007812 34.007812 14.035156 35.445312 C 12.558594 36.171875 12.359375 37.074219 11.402344 38.097656 C 11.175781 34.261719 12.914062 31.910156 16.480469 30.472656 C 19.335938 29.320312 22.109375 29.703125 23.355469 26.25 C 23.570312 25.648438 23.59375 25.367188 23.628906 24.742188 C 24.480469 25.664062 24.390625 26.75 24.378906 27.9375 M 24.382812 27.941406 "/>
<path style=" stroke:none;fill-rule:nonzero;fill:rgb(17.254902%,61.960784%,27.058824%);fill-opacity:1;" d="M 26.953125 26.4375 C 27.402344 26.96875 27.859375 27.671875 28.125 28.316406 C 29.972656 32.835938 25.644531 35.867188 24.1875 39.601562 C 23.664062 40.921875 23.949219 41.484375 24.1875 42.796875 C 21.039062 41.289062 21.710938 36.167969 22.9375 33.578125 C 22.9375 33.578125 24.042969 31.699219 24.042969 31.699219 C 24.640625 30.738281 25.441406 29.636719 25.609375 28.503906 C 25.800781 27.144531 24.988281 25.882812 24.386719 24.742188 C 25.527344 24.976562 26.214844 25.554688 26.949219 26.4375 M 26.945312 26.4375 "/>
<path style=" stroke:none;fill-rule:nonzero;fill:rgb(20%,20%,20%);fill-opacity:1;" d="M 16.058594 36.875 L 16.058594 11.117188 L 36.238281 23.996094 M 16.058594 36.875 "/>
</g>
</svg>
