<!-- color: #87b1df -->
<svg xmlns="http://www.w3.org/2000/svg" xmlns:xlink="http://www.w3.org/1999/xlink" width="48px" height="48px" viewBox="0 0 48 48" version="1.1">
<defs>
<clipPath id="clip1">
  <path d="M 12 11 L 38 11 L 38 34 L 12 34 Z M 12 11 "/>
</clipPath>
<clipPath id="clip2">
  <path d="M 23.867188 11.59375 C -5.636719 17.589844 29.917969 51.523438 37.335938 22.761719 C 37.335938 16.59375 31.304688 11.59375 23.867188 11.59375 M 23.867188 11.59375 "/>
</clipPath>
</defs>
<g id="surface1">
<path style="fill-rule:nonzero;fill:rgb(92.54902%,92.54902%,90.588235%);fill-opacity:1;stroke-width:1.735;stroke-linecap:round;stroke-linejoin:round;stroke:rgb(92.54902%,92.54902%,90.588235%);stroke-opacity:1;stroke-miterlimit:4;" d="M -239.209434 989.549344 L -231.705716 989.552517 C -225.834281 989.550479 -221.074212 994.311084 -221.074317 1000.180042 C -221.071192 1006.054514 -225.8352 1010.814274 -231.705473 1010.811977 L -239.205959 1010.814316 C -245.081787 1010.815177 -249.841857 1006.054572 -249.840589 1000.181278 C -249.840484 994.312319 -245.080868 989.551382 -239.209434 989.549344 M -239.209434 989.549344 " transform="matrix(0.829703,-0.225244,0.222318,0.840621,-3.002315,-871.958636)"/>
<path style=" stroke:none;fill-rule:nonzero;fill:rgb(92.54902%,92.54902%,90.588235%);fill-opacity:1;" d="M 14.242188 37 L 15.839844 30.949219 L 22.710938 32.308594 M 14.242188 36.996094 "/>
<g clip-path="url(#clip1)" clip-rule="nonzero">
<g clip-path="url(#clip2)" clip-rule="nonzero">
<path style=" stroke:none;fill-rule:nonzero;fill:rgb(58.823529%,58.823529%,58.823529%);fill-opacity:1;" d="M 18.914062 21.785156 L 18.902344 21.714844 M 17.886719 22.3125 L 17.867188 22.265625 L 17.886719 22.3125 M 17.816406 22.308594 L 17.757812 22.257812 M 17.640625 22.234375 L 17.648438 22.234375 M 17.417969 20.613281 L 17.371094 20.589844 M 17.363281 20.753906 L 17.378906 20.738281 M 17.265625 20.839844 L 17.351562 20.792969 L 17.265625 20.839844 M 18.945312 22.460938 L 18.980469 22.425781 M 18.894531 21.398438 L 18.878906 21.378906 M 18.886719 21.488281 L 18.882812 21.460938 M 18.773438 22.640625 C 18.824219 22.390625 19.054688 22.644531 18.773438 22.640625 M 17.242188 20.554688 L 17.214844 20.523438 M 17.210938 20.316406 L 17.214844 20.339844 L 17.210938 20.316406 M 17.210938 20.632812 C 17.316406 20.640625 17.257812 20.414062 17.210938 20.632812 M 17.160156 20.394531 L 17.148438 20.390625 M 17.09375 20.390625 L 17.121094 20.496094 L 17.09375 20.390625 M 17.082031 20.316406 L 17.066406 20.222656 M 17.054688 20.433594 L 17.042969 20.429688 M 16.992188 20.386719 L 17.027344 20.421875 M 16.957031 20.101562 C 17.058594 20.089844 16.976562 20.316406 16.957031 20.101562 M 16.882812 20.023438 L 16.875 19.855469 L 16.882812 20.023438 M 16.820312 20.171875 L 16.851562 20.15625 M 16.761719 20.382812 L 16.753906 20.296875 L 16.761719 20.382812 M 16.730469 20.3125 L 16.746094 20.300781 M 16.722656 20.136719 C 16.902344 20.277344 16.566406 20.296875 16.722656 20.136719 M 16.691406 19.921875 C 16.65625 19.785156 17.070312 19.945312 16.691406 19.921875 M 16.539062 21.28125 C 16.976562 21.136719 16.761719 21.519531 16.539062 21.28125 M 18.765625 21.476562 L 18.761719 21.460938 M 18.757812 21.457031 L 18.730469 21.429688 M 17.589844 20.71875 L 17.578125 20.707031 M 17.566406 20.707031 L 17.550781 20.695312 M 17.535156 20.691406 L 17.527344 20.675781 M 17.476562 20.707031 L 17.492188 20.691406 L 17.476562 20.707031 M 18.699219 21.296875 L 18.726562 21.28125 M 18.550781 21.210938 L 18.53125 21.203125 M 18.460938 21.273438 L 18.4375 21.269531 M 18.4375 21.378906 L 18.484375 21.359375 M 17.367188 20.988281 L 17.378906 20.988281 L 17.367188 20.988281 M 17.335938 21.210938 L 17.273438 21.164062 M 17.210938 21.3125 L 17.191406 21.308594 M 16.128906 21.101562 L 16.160156 21.101562 L 16.128906 21.101562 M 18.8125 18.957031 L 18.828125 18.945312 M 18.820312 22.308594 L 18.832031 22.273438 M 18.359375 21.300781 L 18.386719 21.292969 M 18.296875 21.324219 C 17.808594 21.4375 18.433594 21.082031 18.296875 21.324219 M 16.316406 20.195312 L 16.304688 20.203125 M 16.25 20.199219 L 16.261719 20.214844 M 16.484375 19.6875 L 16.5 19.785156 M 16.472656 19.605469 L 16.476562 19.585938 L 16.472656 19.605469 M 16.472656 19.171875 L 16.457031 19.203125 M 16.433594 20.101562 L 16.382812 20.160156 M 16.234375 19.902344 L 16.265625 19.875 M 16.210938 19.910156 L 16.207031 19.878906 M 16.195312 19.90625 L 16.214844 19.917969 M 16.195312 19.859375 L 16.191406 19.871094 M 18.945312 22.027344 L 18.945312 21.972656 M 18.648438 22.5625 L 18.667969 22.59375 M 18.46875 22.5 C 18.335938 22.476562 18.628906 22.410156 18.46875 22.5 M 16.707031 20.671875 L 16.679688 20.648438 M 16.691406 20.636719 L 16.675781 20.605469 M 16.671875 20.609375 L 16.636719 20.585938 M 16.613281 20.585938 C 16.515625 20.5625 16.695312 20.574219 16.613281 20.585938 M 16.59375 20.902344 L 16.570312 20.886719 M 16.378906 20.496094 L 16.378906 20.496094 M 16.273438 20.472656 L 16.296875 20.460938 M 15.96875 20.75 C 15.839844 20.644531 16.152344 20.695312 15.96875 20.75 M 18.921875 22.789062 L 18.933594 22.777344 M 18.910156 22.796875 L 18.882812 22.824219 M 18.90625 22.789062 L 18.921875 22.777344 M 18.898438 22.871094 L 18.921875 22.867188 M 18.867188 22.890625 L 18.882812 22.867188 L 18.867188 22.890625 M 18.863281 22.859375 L 18.902344 22.839844 M 18.847656 22.894531 L 18.808594 22.882812 M 18.902344 22.121094 L 18.90625 22.078125 M 17.929688 21.300781 L 17.902344 21.285156 M 19.148438 22.136719 L 19.132812 22.09375 M 15.359375 20.941406 L 15.402344 20.886719 M 15.277344 21.023438 L 15.285156 21.007812 M 18.972656 21.910156 L 18.933594 21.84375 L 18.972656 21.910156 M 18.933594 21.664062 L 18.941406 21.648438 M 18.898438 21.597656 C 18.902344 21.480469 19.007812 21.679688 18.898438 21.597656 M 18.898438 21.601562 L 18.867188 21.632812 M 18.699219 21.304688 L 18.71875 21.308594 M 17.15625 21.027344 C 16.699219 21.777344 18.65625 21.019531 17.15625 21.027344 M 15.894531 20.488281 C 15.09375 20.601562 18.191406 21.410156 16.339844 20.566406 L 16.085938 20.488281 M 16.589844 20.933594 L 16.484375 20.933594 M 9.8125 14.695312 C 9.160156 14.839844 9.449219 15.085938 9.851562 14.753906 M 18.269531 12.433594 C 17.929688 12.378906 17.296875 12.84375 17.988281 12.574219 M 18.296875 12.566406 L 18.238281 12.582031 M 15.773438 12.386719 C 14.804688 12.839844 16.308594 12.800781 16.160156 13.1875 C 17.125 13.441406 14.820312 12.933594 14.273438 12.988281 C 12.769531 13.128906 11.074219 12.394531 9.816406 13.566406 C 9.460938 13.882812 10.171875 13.765625 9.242188 14.054688 C 8.167969 14.574219 9.882812 14.855469 8.457031 15.066406 C 7.054688 15.742188 9.914062 14.484375 10.4375 14.535156 C 12.511719 14.0625 11.828125 16.832031 11.03125 17.882812 C 11.0625 18.621094 12.351562 21.664062 11.75 19.464844 C 12.019531 19.035156 12.535156 22.046875 13.882812 21.777344 C 14.8125 21.882812 16.632812 24.113281 15.511719 22.359375 C 15.882812 21.550781 14.269531 21.796875 15.144531 20.820312 C 13.636719 22.222656 13.171875 19.492188 14.875 19.398438 C 15.65625 18.902344 15.871094 19.589844 16.300781 20.074219 C 16.5625 18.597656 17.933594 17.214844 19.402344 16.945312 C 20.816406 16.699219 17.96875 16.082031 19.847656 16.007812 C 21.074219 15.261719 19.707031 17.113281 20.972656 16.386719 C 20.6875 15.769531 20.738281 14.347656 19.832031 14.410156 C 18.753906 12.972656 18.078125 17.160156 17.351562 15.089844 C 15.863281 13.875 18.925781 14.140625 18.9375 13.441406 C 19.660156 12.917969 19.875 13.070312 20.105469 13.347656 C 18.921875 13.71875 19.8125 13.917969 20.496094 14.25 C 19.964844 13.46875 21.984375 13.804688 20.851562 12.933594 C 19.902344 12.058594 18.890625 12.546875 18.539062 13.351562 C 18.492188 12.582031 19.113281 12.070312 18.035156 12.863281 C 17.273438 13.363281 16.25 13.386719 17.414062 12.78125 C 17.402344 12.4375 16.121094 12.511719 15.773438 12.386719 M 19.449219 12.558594 C 19.15625 12.824219 19.535156 12.71875 19.449219 12.558594 M 19.980469 12.589844 L 20.085938 12.625 M 19.273438 12.695312 L 19.246094 12.742188 M 20.402344 12.722656 L 20.359375 12.738281 M 20.679688 12.878906 C 20.585938 13.003906 20.609375 12.804688 20.679688 12.878906 M 20.878906 12.960938 C 20.910156 13.109375 20.59375 12.980469 20.878906 12.960938 M 18.976562 12.96875 L 18.941406 12.964844 M 20.792969 12.984375 L 20.730469 12.992188 M 14.359375 13.007812 L 14.324219 13.003906 M 19.324219 13.011719 C 19.285156 13.101562 19.222656 12.925781 19.324219 13.011719 M 19.609375 13.007812 L 19.542969 13.007812 M 14.210938 13.03125 L 14.15625 13.046875 M 18.371094 13.03125 L 18.335938 13.03125 M 18.046875 13.074219 C 17.664062 13.585938 17.613281 13.101562 18.046875 13.074219 M 13.792969 13.101562 C 13.558594 13.195312 13.851562 12.996094 13.792969 13.101562 M 20.949219 13.085938 L 20.816406 13.078125 M 18.4375 13.152344 C 18.308594 13.425781 18.425781 13 18.4375 13.152344 M 19.925781 13.148438 C 19.859375 13.234375 19.898438 13.070312 19.925781 13.148438 M 19.34375 13.167969 L 19.320312 13.167969 M 20.042969 13.160156 L 20.011719 13.160156 M 18.722656 13.28125 L 18.691406 13.292969 M 17.53125 13.292969 L 17.476562 13.304688 M 20.085938 13.296875 L 20.019531 13.296875 M 16.3125 13.390625 L 16.246094 13.382812 M 17.640625 13.410156 L 17.605469 13.410156 M 14.984375 13.4375 C 14.785156 13.894531 14.296875 13.523438 14.683594 13.484375 M 20.296875 13.4375 C 20.605469 13.546875 20 13.546875 20.296875 13.4375 M 21.28125 13.457031 L 21.242188 13.445312 M 10.484375 13.488281 L 10.453125 13.488281 M 18.652344 13.558594 C 18.5625 13.703125 18.542969 13.328125 18.652344 13.558594 M 18.191406 13.625 C 18.167969 13.71875 18.058594 13.511719 18.191406 13.625 M 10.082031 13.75 L 10.046875 13.761719 M 19.652344 13.769531 C 19.613281 13.847656 19.578125 13.675781 19.652344 13.769531 M 19.890625 13.921875 L 19.84375 13.921875 M 14.941406 14.148438 C 15.605469 14.207031 13.617188 14.382812 14.941406 14.148438 M 20.484375 14.21875 L 20.449219 14.21875 M 10.644531 14.296875 L 10.585938 14.285156 M 10.484375 14.316406 L 10.449219 14.316406 M 10.40625 14.34375 C 10.203125 14.570312 10.363281 14.257812 10.40625 14.34375 M 9.789062 14.53125 L 9.734375 14.53125 M 9.898438 14.523438 L 9.835938 14.535156 M 11.835938 14.679688 L 11.8125 14.648438 M 11.863281 14.730469 C 11.839844 14.808594 11.800781 14.648438 11.863281 14.730469 M 11.765625 14.769531 C 11.851562 14.929688 11.660156 14.777344 11.765625 14.769531 M 9.3125 14.792969 L 9.292969 14.792969 M 11.929688 14.878906 L 11.84375 14.882812 M 11.90625 14.945312 C 11.800781 15.09375 11.820312 14.863281 11.90625 14.945312 M 11.777344 15.011719 L 11.742188 15.035156 M 11.855469 15.089844 C 11.835938 15.191406 11.8125 14.984375 11.855469 15.089844 M 11.984375 15.070312 L 11.949219 15.070312 M 11.761719 15.21875 C 11.695312 15.386719 11.761719 15.046875 11.761719 15.21875 M 15.761719 15.445312 C 15.867188 16.144531 15.363281 15.410156 15.761719 15.445312 M 20.535156 15.433594 L 20.449219 15.453125 M 11.800781 15.503906 L 11.777344 15.503906 M 15.714844 15.839844 L 15.617188 15.921875 M 12.003906 16.070312 C 12.308594 16.335938 11.957031 16.242188 12.003906 16.070312 M 16.730469 16.246094 C 16.84375 16.882812 15.222656 16.347656 16.730469 16.246094 M 12.058594 16.3125 C 11.933594 16.417969 11.980469 16.222656 12.058594 16.3125 M 19.386719 16.367188 C 19.308594 16.441406 19.34375 16.269531 19.386719 16.367188 M 19.585938 16.636719 L 19.519531 16.621094 M 17.078125 16.671875 L 16.914062 16.664062 M 16.722656 16.691406 C 16.210938 17.894531 15.660156 17.015625 16.722656 16.691406 M 17.046875 16.753906 C 17.445312 17.242188 16.183594 16.839844 17.046875 16.753906 M 17.09375 16.726562 L 17.050781 16.722656 M 17.714844 17.023438 C 17.195312 17.351562 17.144531 16.929688 17.714844 17.023438 M 17.277344 17.214844 C 16.546875 17.558594 16.660156 17.277344 17.277344 17.214844 M 16.789062 17.316406 L 16.703125 17.316406 M 17.324219 18.015625 L 17.289062 18.003906 M 17.324219 18.339844 L 17.292969 18.328125 M 15.074219 19.308594 L 15.035156 19.308594 M 15.289062 22.445312 C 15.148438 22.597656 15.199219 22.15625 15.289062 22.445312 M 16.914062 11.996094 C 15.003906 12.335938 19.203125 12.382812 17.113281 12.039062 C 17.3125 11.976562 16.929688 12.011719 16.914062 11.996094 M 16.875 12.175781 C 17.035156 12.3125 16.324219 12.054688 16.875 12.175781 M 16.941406 12.132812 C 16.824219 12.226562 16.871094 12.046875 16.941406 12.132812 M 16.925781 12.308594 L 16.859375 12.304688 M 17.722656 11.851562 C 17.0625 12.101562 18.261719 11.886719 17.722656 11.851562 M 18.515625 11.765625 C 18.070312 12.175781 19.359375 11.746094 18.515625 11.765625 M 24.984375 11.324219 C 23.242188 11.65625 20.90625 10.984375 19.5625 11.808594 C 20.667969 12.316406 16.585938 12.070312 18.894531 12.296875 C 19.109375 12.324219 20.933594 12.363281 19.5 12.15625 C 20.25 12.394531 23.601562 11.046875 21.585938 11.878906 C 20.910156 12.007812 23.242188 12.519531 22.433594 13.015625 C 21.636719 13.671875 22.816406 15.257812 23.484375 13.757812 C 25.035156 13.511719 26.277344 12.21875 26.847656 11.503906 C 26.214844 11.476562 25.640625 11.210938 24.984375 11.324219 M 24.234375 11.46875 C 24.136719 11.5625 24.230469 11.359375 24.234375 11.46875 M 26.074219 11.476562 C 25.976562 11.601562 26 11.402344 26.074219 11.476562 M 20.304688 11.507812 L 20.269531 11.507812 M 20.402344 11.648438 C 20.292969 11.839844 20.15625 11.53125 20.402344 11.648438 M 20.703125 11.632812 C 20.703125 11.78125 20.5625 11.574219 20.703125 11.632812 M 20.386719 11.761719 C 20.316406 11.828125 20.351562 11.648438 20.386719 11.761719 M 20.351562 11.792969 L 20.3125 11.808594 M 19.988281 11.875 L 19.945312 11.898438 M 21.84375 11.992188 L 21.796875 11.992188 M 21.558594 12.011719 L 21.511719 12.011719 M 18.414062 12.136719 L 18.378906 12.125 M 18.113281 12.164062 L 18.078125 12.164062 M 25.664062 12.5 L 25.636719 12.503906 M 25.621094 12.558594 C 25.675781 12.839844 25.398438 12.449219 25.621094 12.558594 M 25.792969 12.554688 L 25.738281 12.550781 M 25.800781 12.589844 L 25.765625 12.589844 M 22.210938 13.8125 L 22.179688 13.792969 M 14.726562 24.453125 L 14.757812 24.40625 M 14.597656 24.519531 L 14.609375 24.503906 M 14.613281 24.421875 L 14.605469 24.378906 M 14.589844 24.25 L 14.582031 24.238281 M 14.574219 24.355469 L 14.546875 24.324219 M 14.429688 24.292969 C 14.441406 24.535156 14.664062 24.417969 14.429688 24.292969 M 14.445312 24.375 L 14.445312 24.339844 M 17.199219 22.292969 C 15.816406 22.65625 16.570312 23.71875 15.847656 24.652344 C 15.992188 26.617188 18.390625 27.84375 17.691406 30.15625 C 19.738281 36.433594 18.792969 32.34375 19.917969 30.417969 C 19.667969 30.140625 20.953125 29.527344 20.835938 28.714844 C 22.453125 27.894531 23.207031 24.496094 20.640625 24.519531 C 19.917969 23.242188 18.507812 22.625 17.203125 22.292969 M 17.28125 22.746094 C 17.097656 23.058594 17.25 22.328125 17.28125 22.746094 M 17.640625 26.988281 C 17.777344 27.191406 17.410156 26.894531 17.640625 26.988281 M 21.328125 28.238281 L 21.300781 28.238281 M 20.617188 29.496094 L 20.613281 29.460938 M 19.238281 31.503906 L 19.171875 31.503906 M 18.207031 31.824219 C 18.140625 31.90625 18.210938 31.726562 18.207031 31.824219 M 18.171875 31.890625 C 18.195312 32.050781 18.089844 31.742188 18.171875 31.890625 M 18.257812 31.957031 L 18.199219 31.96875 M 27.957031 17.886719 L 27.972656 17.878906 M 24.382812 18.167969 L 24.363281 18.15625 M 24.339844 18.042969 C 24.179688 17.980469 24.5 18.011719 24.339844 18.042969 M 24.132812 17.890625 L 24.117188 17.859375 M 24.042969 17.902344 L 23.984375 17.878906 M 24.03125 17.824219 L 24.027344 17.8125 M 23.976562 17.929688 C 23.84375 17.902344 24.078125 17.925781 23.976562 17.929688 M 23.929688 17.910156 L 23.910156 17.890625 M 23.601562 17.769531 L 23.609375 17.746094 M 30.933594 18.386719 C 31.085938 18.722656 31.613281 18.304688 30.933594 18.386719 M 28.988281 17.179688 C 28.613281 17.78125 29.210938 18.179688 28.988281 17.179688 M 26.886719 15.179688 C 25.597656 16.207031 28.046875 15.457031 26.886719 15.179688 M 27.511719 14.570312 C 26.800781 14.761719 27.398438 15.855469 27.382812 15.984375 C 28.472656 15.90625 27.546875 15.089844 27.511719 14.570312 M 27.148438 14.839844 L 27.121094 14.839844 M 27.101562 14.097656 C 27.046875 14.390625 27.320312 14.074219 27.101562 14.097656 M 25.460938 13.492188 C 25.03125 14.488281 27.4375 13.214844 25.691406 13.574219 L 25.566406 13.558594 M 30.664062 12.828125 C 29.84375 12.933594 28.472656 13.824219 28.664062 14.570312 C 29.4375 14.691406 29.394531 15.085938 28.84375 14.984375 C 28.757812 15.96875 26.9375 16.046875 27.242188 16.894531 C 25.453125 17.382812 27.367188 19.222656 27.910156 17.542969 C 28.503906 16.285156 30.226562 17.890625 29.714844 18.066406 C 31.007812 17.863281 28.609375 16.300781 29.980469 17.144531 C 30.421875 17.90625 31.132812 18.679688 31.003906 17.558594 C 31.773438 17.609375 31.566406 16.082031 32.566406 16.910156 C 33.394531 16.945312 34.597656 18.132812 34.132812 16.5 C 36.796875 12.316406 33.160156 13.394531 30.664062 12.824219 M 30.75 12.863281 L 30.726562 12.863281 M 30.960938 12.851562 L 30.894531 12.863281 M 30.082031 13.039062 L 30.027344 13.027344 M 29.890625 13.074219 L 29.855469 13.085938 M 29.691406 13.203125 L 29.667969 13.203125 M 29.839844 13.1875 L 29.792969 13.183594 M 30.691406 13.609375 C 29.40625 14.59375 32.152344 14.40625 30.519531 14.667969 C 31.175781 15.265625 28.277344 15.726562 29.984375 14.769531 C 29.933594 14.273438 30.089844 13.613281 30.691406 13.609375 M 29.207031 13.800781 C 29.097656 14.144531 29.023438 13.753906 29.207031 13.800781 M 28.855469 14.019531 L 28.820312 14.019531 M 29.261719 15.226562 C 29.191406 15.316406 29.179688 15.109375 29.261719 15.226562 M 30.40625 15.230469 C 30.328125 15.253906 30.484375 15.140625 30.40625 15.230469 M 29.164062 15.261719 C 29.21875 15.414062 28.976562 15.183594 29.164062 15.261719 M 28.507812 15.609375 L 28.476562 15.628906 M 32.753906 16.542969 C 32.507812 17.105469 32.023438 16.464844 32.753906 16.542969 M 30.597656 17.960938 C 30.578125 18.160156 30.445312 17.8125 30.597656 17.960938 M 30.960938 17.917969 L 30.921875 17.925781 M 30.839844 17.988281 L 30.804688 17.984375 M 30.878906 18.054688 L 30.871094 18.019531 M 29.773438 11.667969 C 28.136719 12.003906 30.960938 12.101562 30.449219 11.6875 L 30.09375 11.65625 M 29.945312 11.765625 C 29.863281 11.851562 29.863281 11.648438 29.945312 11.765625 M 29.566406 11.894531 L 29.496094 11.878906 M 29.433594 11.941406 L 29.398438 11.941406 M 7.671875 25.929688 L 7.691406 25.90625 M 7.574219 25.78125 L 7.589844 25.769531 M 7.515625 25.863281 L 7.503906 25.847656 M 7.492188 25.78125 C 7.570312 25.769531 7.421875 25.722656 7.492188 25.78125 M 32.378906 18.410156 C 31.628906 18.410156 32.570312 18.691406 32.378906 18.410156 M 35.097656 15.847656 C 33.078125 15.308594 36.070312 19.488281 34.234375 17.589844 C 33.117188 16.515625 32.890625 17.796875 31.464844 17.5 C 30.589844 18.695312 33.464844 17.683594 32.382812 19.214844 C 33.117188 20.003906 33.640625 23.34375 35.324219 21.597656 C 36.636719 21.28125 35.933594 19.5625 34.96875 20.226562 C 33.519531 18.457031 36.234375 20.65625 37.109375 20.179688 C 60.066406 18.671875 31.652344 6.160156 35.109375 15.847656 M 35.710938 16.632812 L 35.675781 16.632812 M 35.566406 16.71875 C 35.933594 16.886719 35.304688 17.261719 35.566406 16.71875 M 35.5 16.816406 C 35.519531 17.015625 35.378906 16.667969 35.5 16.816406 M 35.441406 16.964844 L 35.394531 16.839844 M 34.917969 17.398438 C 35.320312 17.765625 34.527344 17.375 34.917969 17.398438 M 32.550781 19.609375 C 32.507812 19.714844 32.53125 19.503906 32.550781 19.609375 M 33.703125 21.605469 L 33.671875 21.605469 M 35.390625 22.257812 C 35.746094 22.238281 35.203125 22.128906 35.390625 22.257812 M 35.191406 22.28125 L 35.164062 22.273438 M 24.417969 21.546875 L 24.417969 21.507812 M 24.429688 21.648438 L 24.417969 21.605469 M 24.320312 21.828125 L 24.296875 21.757812 M 24.214844 21.566406 C 24.355469 21.578125 24.148438 21.488281 24.214844 21.566406 M 24.195312 21.84375 L 24.203125 21.808594 M 24.082031 21.496094 L 24.121094 21.457031 M 25.804688 19.519531 L 25.839844 19.476562 L 25.804688 19.519531 M 25.722656 19.648438 C 25.6875 19.414062 25.902344 19.605469 25.722656 19.648438 M 25.542969 19.703125 C 25.433594 19.582031 25.664062 19.65625 25.542969 19.703125 M 25.394531 19.660156 C 25.253906 19.496094 25.722656 19.570312 25.394531 19.660156 M 25.316406 19.65625 L 25.324219 19.625 M 25.246094 19.570312 L 25.230469 19.53125 L 25.246094 19.570312 M 25.210938 19.71875 L 25.226562 19.6875 M 25.414062 18.890625 C 25.296875 18.871094 25.488281 18.824219 25.414062 18.890625 M 28.941406 18.148438 C 26.976562 18 25.304688 19.550781 25.230469 21.558594 C 24.898438 23.578125 27.34375 23.640625 28.648438 23.546875 C 29.660156 25.019531 29.402344 26.882812 29.660156 28.585938 C 29.78125 30.371094 31.566406 30.585938 32.3125 28.984375 C 32.855469 27.609375 33.710938 26.550781 33.484375 24.859375 C 34.214844 24.25 36.007812 22.117188 33.980469 22.492188 C 32.816406 21.425781 32.503906 17.9375 30.359375 19.289062 C 29.492188 19.011719 29.28125 18.613281 28.945312 18.144531 M 32.589844 24.386719 C 32.53125 25.335938 31.828125 24.210938 32.589844 24.386719 M 31.929688 25.128906 C 32.347656 25.96875 31.898438 25.78125 31.929688 25.128906 M 32.617188 26.011719 C 32.84375 26.636719 32.558594 27.054688 32.617188 26.011719 M 32.617188 26.011719 "/>
</g>
</g>
</g>
</svg>
