<!-- color: #474747 -->
<svg xmlns="http://www.w3.org/2000/svg" xmlns:xlink="http://www.w3.org/1999/xlink" width="48px" height="48px" viewBox="0 0 48 48" version="1.1">
<defs>
<clipPath id="clip1">
  <path d="M 13 24 L 35 24 L 35 35 L 13 35 Z M 13 24 "/>
</clipPath>
<clipPath id="clip2">
  <path d="M 34.652344 27.648438 C 34.652344 31.425781 29.914062 34.492188 24.066406 34.492188 C 18.222656 34.492188 13.484375 31.425781 13.484375 27.648438 C 13.484375 23.867188 18.222656 20.804688 24.066406 20.804688 C 29.914062 20.804688 34.652344 23.867188 34.652344 27.648438 M 34.652344 27.648438 "/>
</clipPath>
</defs>
<g id="surface1">
<path style="fill-rule:nonzero;fill:rgb(0%,60%,0%);fill-opacity:1;stroke-width:0.409;stroke-linecap:butt;stroke-linejoin:miter;stroke:rgb(27.058824%,18.431373%,34.509804%);stroke-opacity:1;stroke-miterlimit:4;" d="M 4.468151 9.272544 C 4.687535 9.404835 4.915738 9.525 5.149453 9.631936 C 5.286155 9.694775 5.426163 9.754306 5.569479 9.800608 C 6.302596 10.04645 7.113985 9.982509 7.862535 9.779662 C 8.012465 9.739974 8.160191 9.693672 8.303507 9.64296 C 8.766528 9.479801 9.215217 9.244983 9.534922 8.877873 C 9.695877 8.693768 9.822656 8.478794 9.89211 8.243976 C 9.959358 8.010261 9.96928 7.755599 9.905339 7.520781 C 9.862344 7.364236 9.787379 7.216511 9.701389 7.077604 C 9.562483 6.856016 9.396016 6.649861 9.192066 6.486702 C 8.988117 6.323542 8.745582 6.204479 8.487613 6.161485 C 8.383985 6.141641 8.275946 6.139436 8.174523 6.107465 C 8.123811 6.093134 8.077509 6.071085 8.034514 6.040217 C 7.991519 6.009349 7.955139 5.967457 7.93309 5.91895 C 7.900018 5.846189 7.903325 5.7602 7.920964 5.681927 C 7.939705 5.603655 7.972778 5.529792 8.001441 5.453724 C 8.138143 5.08 8.130426 4.658872 8.001441 4.28184 C 7.954037 4.146241 7.892301 4.01395 7.804106 3.901502 C 7.715912 3.785747 7.601259 3.693142 7.467865 3.640226 C 7.3025 3.57408 7.110677 3.57849 6.940903 3.635816 C 6.771129 3.693142 6.622301 3.802283 6.502136 3.93678 C 6.454731 3.989696 6.412839 4.04592 6.363229 4.09553 C 6.312518 4.145139 6.252986 4.188134 6.183533 4.202465 C 6.121797 4.215695 6.061163 4.20908 6.00053 4.191441 C 5.872648 4.156163 5.763507 4.080096 5.655469 4.004028 C 5.547431 3.92796 5.436085 3.85079 5.310408 3.811103 C 5.146146 3.760391 4.964245 3.780234 4.805495 3.85079 C 4.647847 3.92355 4.516658 4.041511 4.418542 4.181519 C 4.220104 4.461537 4.150651 4.814314 4.105451 5.152761 C 4.062457 5.464748 4.031589 5.787761 4.116476 6.092031 C 4.138524 6.176919 4.170495 6.260703 4.194748 6.344488 C 4.220104 6.429375 4.237743 6.516467 4.235538 6.604662 C 4.224514 6.768924 4.134115 6.917752 4.030486 7.048941 C 3.931267 7.179028 3.815512 7.303603 3.740547 7.450226 C 3.629201 7.679531 3.630304 7.955139 3.707474 8.199879 C 3.812205 8.520686 4.038203 8.784167 4.264201 9.035521 C 4.353498 9.13474 4.445 9.232856 4.536502 9.32987 " transform="matrix(3.543307,0,0,3.543307,0,0)"/>
<path style=" stroke:none;fill-rule:nonzero;fill:rgb(40%,80%,20%);fill-opacity:1;" d="M 28.019531 21.296875 C 27.363281 22.722656 26.296875 23.664062 25.078125 23.664062 C 24 23.664062 23.050781 22.910156 22.382812 21.753906 C 21.777344 24.164062 20.273438 25.867188 18.5 25.867188 C 17.269531 25.867188 16.171875 25.039062 15.410156 23.730469 C 14.210938 24.839844 13.484375 26.203125 13.484375 27.660156 C 13.484375 31.441406 18.21875 34.488281 24.066406 34.488281 C 29.914062 34.488281 34.648438 31.441406 34.648438 27.660156 C 34.648438 24.78125 31.910156 22.304688 28.023438 21.292969 M 28.019531 21.296875 "/>
<path style=" stroke:none;fill-rule:nonzero;fill:rgb(97.647059%,97.647059%,97.647059%);fill-opacity:1;" d="M 20.3125 14.34375 C 20.441406 14.457031 20.570312 14.585938 20.6875 14.71875 C 20.566406 14.585938 20.445312 14.457031 20.3125 14.34375 M 23 14.46875 C 22.878906 14.640625 22.761719 14.832031 22.65625 15.03125 C 22.761719 14.828125 22.878906 14.644531 23 14.46875 M 21.46875 15.9375 C 21.574219 16.152344 21.667969 16.386719 21.75 16.625 C 21.664062 16.386719 21.574219 16.15625 21.46875 15.9375 M 15.21875 16.6875 C 15.113281 16.996094 15.046875 17.320312 14.96875 17.65625 C 15.039062 17.316406 15.117188 16.996094 15.21875 16.6875 M 14.96875 17.65625 C 14.847656 18.207031 14.75 18.792969 14.75 19.40625 C 14.75 22.609375 16.433594 25.1875 18.5 25.1875 C 20.464844 25.1875 22.0625 22.851562 22.21875 19.875 C 22.695312 21.601562 23.808594 22.8125 25.09375 22.8125 C 26.648438 22.8125 27.902344 21.058594 28.125 18.75 L 15.066406 18.75 C 14.984375 18.75 14.894531 18.722656 14.816406 18.71875 C 14.84375 18.359375 14.902344 17.996094 14.972656 17.65625 M 21.785156 16.75 C 21.863281 16.988281 21.949219 17.246094 22.007812 17.5 C 21.945312 17.238281 21.867188 16.992188 21.785156 16.75 M 21.785156 16.75 "/>
<path style=" stroke:none;fill-rule:nonzero;fill:rgb(43.921569%,36.078431%,63.137255%);fill-opacity:1;" d="M 25.417969 20.128906 C 25.417969 20.875 24.933594 21.476562 24.335938 21.476562 C 23.738281 21.476562 23.253906 20.875 23.253906 20.128906 C 23.253906 19.382812 23.738281 18.777344 24.335938 18.777344 C 24.933594 18.777344 25.417969 19.382812 25.417969 20.128906 M 25.417969 20.128906 "/>
<path style=" stroke:none;fill-rule:nonzero;fill:rgb(40%,80%,20%);fill-opacity:1;" d="M 25.089844 13.214844 C 23.492188 13.214844 22.1875 15.105469 22.027344 17.515625 C 21.519531 15.242188 20.152344 13.605469 18.515625 13.605469 C 16.601562 13.605469 15.050781 15.835938 14.828125 18.707031 C 14.910156 18.710938 14.996094 18.730469 15.078125 18.730469 L 28.15625 18.730469 C 28.175781 18.496094 28.203125 18.261719 28.203125 18.019531 C 28.203125 15.367188 26.800781 13.214844 25.089844 13.214844 M 25.085938 13.214844 "/>
<path style=" stroke:none;fill-rule:nonzero;fill:rgb(43.921569%,36.078431%,63.137255%);fill-opacity:1;" d="M 21.796875 20.523438 C 21.796875 21.269531 21.3125 21.875 20.714844 21.875 C 20.117188 21.875 19.632812 21.269531 19.632812 20.523438 C 19.632812 19.777344 20.117188 19.175781 20.714844 19.175781 C 21.3125 19.175781 21.796875 19.777344 21.796875 20.523438 M 21.796875 20.523438 "/>
<g clip-path="url(#clip1)" clip-rule="nonzero">
<g clip-path="url(#clip2)" clip-rule="nonzero">
<path style="fill:none;stroke-width:1;stroke-linecap:butt;stroke-linejoin:miter;stroke:rgb(27.058824%,18.431373%,34.509804%);stroke-opacity:1;stroke-miterlimit:4;" d="M 42.859934 13.194709 L 45.80715 10.608755 L 49.040694 14.129263 L 52.565504 10.964523 L 55.803985 14.851418 L 60.118669 10.964523 L 63.283099 13.338078 L 65.583606 11.038862 L 68.313606 13.01948 " transform="matrix(0.791266,0,0,0.735645,-19.855015,20.551191)"/>
</g>
</g>
</g>
</svg>
