<!-- color: #f6a56f -->
<svg xmlns="http://www.w3.org/2000/svg" xmlns:xlink="http://www.w3.org/1999/xlink" width="48px" height="48px" viewBox="0 0 48 48" version="1.1">
<g id="surface1">
<path style=" stroke:none;fill-rule:nonzero;fill:rgb(10.196078%,52.54902%,92.54902%);fill-opacity:0.776471;" d="M 16.96875 25.40625 C 16.773438 24.855469 16.871094 24.417969 17.09375 24.03125 C 18.171875 23.503906 19.105469 23.660156 20.0625 23.6875 L 21.625 18.53125 C 21.972656 17.453125 22.8125 16.402344 24.65625 15.40625 C 25.894531 14.773438 28.371094 15.089844 29.65625 15.59375 C 32.027344 17.175781 31.976562 18.738281 31.984375 20.351562 C 31.894531 23.5 29.917969 25.253906 28.8125 25.75 C 28.171875 26.011719 26.351562 25.976562 25.34375 25.0625 L 24.28125 25.1875 L 24.96875 26.15625 C 25.238281 26.539062 25.492188 27.050781 25.625 27.5 C 25.304688 28.089844 24.890625 28.128906 24.40625 27.71875 C 24.40625 27.71875 24.0625 26.25 23.84375 26.40625 C 23.324219 28.394531 22.515625 30.226562 21.652344 32.09375 C 19.996094 35 17.996094 33 19.152344 31.9375 C 19.433594 31.65625 19.996094 30.75 19.808594 30.6875 C 19.617188 30.625 18.277344 29.78125 18.277344 29.78125 C 18.277344 29.78125 17.308594 30.71875 17.183594 30.84375 C 15.992188 32 15.058594 31.058594 15.714844 29.90625 L 17.683594 28.3125 L 18.996094 26.9375 C 19.59375 26.066406 19.679688 25.570312 19.546875 24.90625 C 19.355469 25 17.621094 25.46875 17.621094 25.46875 C 17.273438 25.710938 17.136719 25.523438 16.96875 25.40625 M 16.96875 25.40625 "/>
<path style=" stroke:none;fill-rule:nonzero;fill:rgb(98.431373%,86.666667%,29.803922%);fill-opacity:1;" d="M 28 16.71875 C 26.6875 16.914062 25.511719 18.429688 25.21875 20.40625 C 24.886719 22.664062 25.855469 24.652344 27.375 24.875 C 28.894531 25.101562 30.386719 23.476562 30.71875 21.21875 C 31.050781 18.960938 30.085938 16.945312 28.5625 16.71875 C 28.371094 16.691406 28.1875 16.691406 28 16.71875 M 27.90625 19.34375 C 27.980469 19.320312 28.0625 19.316406 28.125 19.34375 C 28.378906 19.453125 28.40625 19.929688 28.1875 20.4375 C 27.96875 20.945312 27.566406 21.265625 27.3125 21.15625 C 27.058594 21.054688 27.03125 20.570312 27.25 20.0625 C 27.414062 19.683594 27.679688 19.410156 27.90625 19.34375 M 29.875 19.71875 C 30.136719 19.804688 30.230469 20.316406 30.0625 20.84375 C 29.894531 21.371094 29.511719 21.710938 29.25 21.625 C 28.988281 21.539062 28.925781 21.058594 29.09375 20.53125 C 29.265625 20.003906 29.613281 19.632812 29.875 19.71875 M 29.875 19.71875 "/>
</g>
</svg>
