<!-- color: #f7d53d -->
<svg xmlns="http://www.w3.org/2000/svg" xmlns:xlink="http://www.w3.org/1999/xlink" width="48px" height="48px" viewBox="0 0 48 48" version="1.1">
<g id="surface1">
<path style=" stroke:none;fill-rule:nonzero;fill:rgb(87.058824%,13.333333%,13.333333%);fill-opacity:1;" d="M 23.675781 16.996094 L 22.917969 17.859375 L 23.675781 18.722656 L 24.429688 17.859375 M 24.035156 19.683594 C 22.332031 20.742188 23.410156 22.714844 22.65625 24.03125 C 21.582031 24.953125 20.828125 23.8125 20.277344 22.792969 C 19.875 22.054688 19.378906 21.699219 18.820312 21.699219 C 18.621094 21.699219 18.457031 21.714844 18.3125 21.75 C 17.914062 21.824219 17.53125 22.125 17.152344 22.636719 C 16.90625 22.964844 16.769531 23.304688 16.769531 23.65625 C 16.769531 23.988281 16.875 24.320312 17.082031 24.640625 C 17.382812 24.957031 17.644531 25.109375 17.851562 25.480469 C 17.851562 25.660156 17.632812 25.894531 17.195312 26.171875 C 16.910156 26.351562 16.417969 26.480469 15.710938 26.558594 C 15.34375 26.601562 14.957031 26.621094 14.523438 26.621094 C 13.675781 26.621094 13.078125 26.546875 12.765625 26.378906 C 11.976562 25.953125 11.578125 25.429688 11.578125 24.808594 C 11.578125 23.976562 11.730469 23.304688 12.042969 22.816406 C 9.71875 25.257812 11.679688 28.589844 14.027344 28.589844 C 16.566406 28.589844 18.847656 27.894531 19.183594 25.480469 C 19.273438 24.820312 18.988281 24.390625 18.644531 24.230469 C 18.332031 24.085938 18.179688 23.882812 18.179688 23.621094 C 18.179688 23.433594 18.28125 23.289062 18.496094 23.195312 C 19.179688 23.015625 19.746094 22.839844 19.984375 23.96875 C 20.566406 26.722656 22.628906 26.613281 23.605469 24.808594 C 24.636719 26.722656 26.398438 26.347656 26.722656 24.5625 C 26.722656 24.5625 27.949219 26.433594 29.847656 26.433594 C 33.058594 26.433594 33.210938 22.28125 37.003906 21.390625 C 33.898438 18.269531 31.449219 21.046875 29.402344 19.726562 C 31.449219 22.113281 33.378906 20.574219 34.929688 21.441406 C 33.335938 21.632812 31.757812 24.835938 29.882812 24.835938 C 28.765625 24.835938 28.214844 24.578125 27.371094 23.605469 C 26.835938 22.21875 26.601562 21.15625 27.136719 19.824219 C 25.980469 20.9375 26.148438 21.597656 26.101562 22.777344 C 26.046875 24.09375 25.191406 25.140625 24.371094 23.738281 C 23.675781 22.464844 23.351562 21.121094 24.027344 19.691406 M 34.503906 25.339844 L 33.746094 26.199219 L 34.503906 27.066406 L 35.261719 26.199219 M 25.839844 26.871094 L 25.078125 27.734375 L 25.839844 28.609375 L 26.597656 27.734375 M 28.003906 26.871094 L 27.246094 27.734375 L 28.003906 28.609375 L 28.761719 27.734375 M 12.839844 29.273438 L 12.078125 30.140625 L 12.839844 31.003906 L 13.597656 30.140625 M 15.007812 29.273438 L 14.246094 30.140625 L 15.007812 31.003906 L 15.761719 30.140625 M 15.007812 29.273438 "/>
</g>
</svg>
