<!-- color: #685180 -->
<svg xmlns="http://www.w3.org/2000/svg" xmlns:xlink="http://www.w3.org/1999/xlink" width="48px" height="48px" viewBox="0 0 48 48" version="1.1">
<g id="surface1">
<path style=" stroke:none;fill-rule:nonzero;fill:rgb(78.431373%,58.823529%,89.411765%);fill-opacity:1;" d="M 18.664062 10 C 19.996094 11.339844 19.988281 12.40625 19.988281 14.019531 L 19.988281 17.355469 C 15.328125 18.917969 11.996094 23.125 11.996094 28.089844 C 11.996094 32.347656 14.464844 36.0625 18.113281 38.015625 L 29.882812 38.015625 C 33.53125 36.0625 36 32.347656 36 28.089844 C 36 23.136719 32.65625 18.933594 28 17.355469 L 28 14.019531 C 28 12.414062 27.992188 11.34375 29.324219 10 L 18.660156 10 M 18.667969 10 "/>
<path style=" stroke:none;fill-rule:nonzero;fill:rgb(100%,57.254902%,16.078431%);fill-opacity:1;" d="M 13.25 23 C 12.449219 24.523438 12 26.242188 12 28.0625 C 12 32.316406 14.476562 36.046875 18.125 38 L 29.875 38 C 33.523438 36.046875 36 32.316406 36 28.0625 C 36 26.242188 35.550781 24.523438 34.75 23 M 13.25 23 "/>
<path style=" stroke:none;fill-rule:nonzero;fill:rgb(97.647059%,97.647059%,97.647059%);fill-opacity:1;" d="M 27 35.5 C 27 35.777344 26.777344 36 26.5 36 C 26.222656 36 26 35.773438 26 35.5 C 26 35.222656 26.222656 35 26.5 35 C 26.777344 35 27 35.222656 27 35.5 M 27 35.5 "/>
<path style=" stroke:none;fill-rule:nonzero;fill:rgb(97.647059%,97.647059%,97.647059%);fill-opacity:1;" d="M 25.5 33.25 C 25.5 33.664062 25.164062 34 24.75 34 C 24.335938 34 24 33.664062 24 33.25 C 24 32.835938 24.335938 32.5 24.75 32.5 C 25.164062 32.5 25.5 32.835938 25.5 33.25 M 25.5 33.25 "/>
<path style=" stroke:none;fill-rule:nonzero;fill:rgb(97.647059%,97.647059%,97.647059%);fill-opacity:1;" d="M 27 30 C 27 30.550781 26.550781 31 26 31 C 25.449219 31 25 30.550781 25 30 C 25 29.445312 25.449219 29 26 29 C 26.550781 29 27 29.449219 27 30 M 27 30 "/>
<path style=" stroke:none;fill-rule:nonzero;fill:rgb(97.647059%,97.647059%,97.647059%);fill-opacity:1;" d="M 27 22.5 C 27 23.328125 26.328125 24 25.5 24 C 24.671875 24 24 23.324219 24 22.5 C 24 21.671875 24.671875 21 25.5 21 C 26.328125 21 27 21.671875 27 22.5 M 27 22.5 "/>
<path style=" stroke:none;fill-rule:nonzero;fill:rgb(97.647059%,97.647059%,97.647059%);fill-opacity:1;" d="M 24.5 26.75 C 24.5 27.441406 23.941406 28 23.25 28 C 22.558594 28 22 27.4375 22 26.75 C 22 26.058594 22.558594 25.5 23.25 25.5 C 23.941406 25.5 24.5 26.0625 24.5 26.75 M 24.5 26.75 "/>
</g>
</svg>
