<!-- color: #475b74 -->
<svg xmlns="http://www.w3.org/2000/svg" xmlns:xlink="http://www.w3.org/1999/xlink" width="48px" height="48px" viewBox="0 0 48 48" version="1.1">
<g id="surface1">
<path style=" stroke:none;fill-rule:nonzero;fill:rgb(14.901961%,54.509804%,81.568627%);fill-opacity:1;" d="M 15.332031 14 L 20.667969 14 C 21.402344 14 22 14.597656 22 15.332031 L 22 20.667969 C 22 21.402344 21.402344 22 20.667969 22 L 15.332031 22 C 14.597656 22 14 21.402344 14 20.667969 L 14 15.332031 C 14 14.597656 14.597656 14 15.332031 14 M 15.332031 14 "/>
<path style=" stroke:none;fill-rule:nonzero;fill:rgb(14.901961%,54.509804%,81.568627%);fill-opacity:1;" d="M 27.332031 26 L 32.667969 26 C 33.40625 26 34 26.597656 34 27.332031 L 34 32.667969 C 34 33.40625 33.40625 34 32.667969 34 L 27.332031 34 C 26.597656 34 26 33.40625 26 32.667969 L 26 27.332031 C 26 26.597656 26.597656 26 27.332031 26 M 27.332031 26 "/>
<path style=" stroke:none;fill-rule:nonzero;fill:rgb(100%,81.176471%,21.176471%);fill-opacity:1;" d="M 14 24 C 12.890625 24 12 24.890625 12 26 L 12 34 C 12 35.109375 12.890625 36 14 36 L 22 36 C 23.109375 36 24 35.109375 24 34 L 24 26 C 24 24.890625 23.109375 24 22 24 M 14 25 L 22 25 C 22.554688 25 23 25.445312 23 26 L 23 34 C 23 34.554688 22.554688 35 22 35 L 14 35 C 13.445312 35 13 34.554688 13 34 L 13 26 C 13 25.445312 13.445312 25 14 25 M 14 25 "/>
<path style=" stroke:none;fill-rule:nonzero;fill:rgb(100%,81.176471%,21.176471%);fill-opacity:1;" d="M 15 26 L 21 26 C 21.550781 26 22 26.449219 22 27 L 22 33 C 22 33.550781 21.550781 34 21 34 L 15 34 C 14.449219 34 14 33.550781 14 33 L 14 27 C 14 26.449219 14.449219 26 15 26 M 15 26 "/>
<path style=" stroke:none;fill-rule:nonzero;fill:rgb(100%,81.176471%,21.176471%);fill-opacity:1;" d="M 26 12 C 24.890625 12 24 12.890625 24 14 L 24 22 C 24 23.109375 24.890625 24 26 24 L 34 24 C 35.109375 24 36 23.109375 36 22 L 36 14 C 36 12.890625 35.109375 12 34 12 M 26 13 L 34 13 C 34.554688 13 35 13.445312 35 14 L 35 22 C 35 22.554688 34.554688 23 34 23 L 26 23 C 25.445312 23 25 22.554688 25 22 L 25 14 C 25 13.445312 25.445312 13 26 13 M 26 13 "/>
<path style=" stroke:none;fill-rule:nonzero;fill:rgb(100%,81.176471%,21.176471%);fill-opacity:1;" d="M 27 14 L 33 14 C 33.550781 14 34 14.449219 34 15 L 34 21 C 34 21.550781 33.550781 22 33 22 L 27 22 C 26.449219 22 26 21.550781 26 21 L 26 15 C 26 14.449219 26.449219 14 27 14 M 27 14 "/>
</g>
</svg>
