<!-- color: #18b25b --><svg xmlns="http://www.w3.org/2000/svg" viewBox="0 0 48 48"><g><path d="m 14.781 11 c -0.98 0 -1.781 0.801 -1.781 1.781 l 0 22.438 c 0 0.98 0.801 1.781 1.781 1.781 l 20.438 0 c 0.98 0 1.781 -0.801 1.781 -1.781 l 0 -19.219 l -5 -5 m -17.219 0" fill="#ecf2ed" stroke="none" fill-rule="nonzero" fill-opacity="1"/><path d="m 32 11 l 0 5 l 5 0 m -5 -5" fill="#fff" stroke="none" fill-rule="nonzero" fill-opacity="1"/><path d="m 37 21 l 0 -5 l -5 0 m 5 5" fill="#000" stroke="none" fill-rule="nonzero" fill-opacity="0.2"/><path d="m 17 20 l 0 14 l 1 0 l 0 -14 m -1 0" fill="#13a553" stroke="none" fill-rule="nonzero" fill-opacity="1"/><path d="m 32 20 l 0 14 l 1 0 l 0 -14 m -1 0" fill="#13a553" stroke="none" fill-rule="nonzero" fill-opacity="1"/><path d="m 17 19 l 16 0 l 0 1 l -16 0 m 0 -1" fill="#13a553" stroke="none" fill-rule="nonzero" fill-opacity="1"/><path d="m 17 33 l 16 0 l 0 1 l -16 0 m 0 -1" fill="#13a553" stroke="none" fill-rule="nonzero" fill-opacity="1"/><path d="m 22 20 l 0 14 l 1 0 l 0 -14 m -1 0" fill="#13a553" stroke="none" fill-rule="nonzero" fill-opacity="1"/><path d="m 17 24 l 16 0 l 0 1 l -16 0 m 0 -1" fill="#13a553" stroke="none" fill-rule="nonzero" fill-opacity="1"/><path d="m 17 28 l 16 0 l 0 1 l -16 0 m 0 -1" fill="#13a553" stroke="none" fill-rule="nonzero" fill-opacity="1"/></g></svg>