<!-- color: #f4b400 -->
<svg xmlns="http://www.w3.org/2000/svg" xmlns:xlink="http://www.w3.org/1999/xlink" width="48px" height="48px" viewBox="0 0 48 48" version="1.1">
<g id="surface1">
<path style=" stroke:none;fill-rule:nonzero;fill:rgb(97.647059%,97.647059%,97.647059%);fill-opacity:1;" d="M 24.011719 12 C 21.113281 12.003906 18.277344 13.296875 16.53125 15.691406 C 13.816406 19.429688 14.800781 24.492188 18.675781 27.132812 L 18.675781 35.003906 L 20.003906 35.003906 L 20.003906 36.003906 L 28.003906 36.003906 L 28.003906 35.003906 L 29.316406 35.003906 L 29.316406 27.132812 C 30.148438 26.5625 30.882812 25.875 31.460938 25.074219 C 34.230469 21.246094 33.152344 16.03125 29.03125 13.441406 C 27.488281 12.472656 25.742188 12 24.003906 12 M 23.992188 13.523438 C 25.410156 13.523438 26.84375 13.90625 28.113281 14.703125 C 31.492188 16.828125 32.378906 21.070312 30.097656 24.214844 C 29.570312 24.9375 28.902344 25.570312 28.121094 26.0625 L 27.988281 28.003906 L 19.988281 28.003906 L 19.871094 26.0625 C 16.484375 23.9375 15.601562 19.695312 17.890625 16.550781 C 19.316406 14.585938 21.632812 13.519531 23.992188 13.53125 M 19.992188 29.007812 L 27.992188 29.007812 L 27.992188 31.003906 L 19.992188 31.003906 M 19.992188 32.003906 L 27.992188 32.003906 L 27.992188 33.71875 L 19.992188 33.71875 M 19.992188 32.003906 "/>
</g>
</svg>
