<!-- color: #eeeeee -->
<svg xmlns="http://www.w3.org/2000/svg" xmlns:xlink="http://www.w3.org/1999/xlink" width="48px" height="48px" viewBox="0 0 48 48" version="1.1">
<g id="surface1">
<path style=" stroke:none;fill-rule:nonzero;fill:rgb(24.313725%,49.803922%,90.588235%);fill-opacity:1;" d="M 20 11.28125 L 19 17.28125 L 12.65625 17.28125 L 12 21.28125 L 18.3125 21.28125 L 17.65625 25.28125 L 12.65625 25.28125 L 12 29.28125 L 17 29.28125 L 16 35.28125 L 20 35.28125 L 21 29.28125 L 25 29.28125 L 24 35.28125 L 28 35.28125 L 29 29.28125 L 35.34375 29.28125 L 36 25.28125 L 29.6875 25.28125 L 30.34375 21.28125 L 35.34375 21.28125 L 36 17.28125 L 31 17.28125 L 32 11.28125 L 28 11.28125 L 27 17.28125 L 23 17.28125 L 24 11.28125 M 22.3125 21.28125 L 26.34375 21.28125 L 25.6875 25.28125 L 21.65625 25.28125 M 22.3125 21.28125 "/>
</g>
</svg>
