<!-- color: #3eacf1 -->
<svg xmlns="http://www.w3.org/2000/svg" xmlns:xlink="http://www.w3.org/1999/xlink" width="48px" height="48px" viewBox="0 0 48 48" version="1.1">
<g id="surface1">
<path style=" stroke:none;fill-rule:nonzero;fill:rgb(97.647059%,97.647059%,97.647059%);fill-opacity:1;" d="M 23.773438 27 L 24.230469 27 C 25.207031 27 26 27.792969 26 28.773438 L 26 37.230469 C 26 38.207031 25.207031 39 24.230469 39 L 23.773438 39 C 22.792969 39 22 38.207031 22 37.230469 L 22 28.773438 C 22 27.792969 22.792969 27 23.773438 27 M 23.773438 27 "/>
<path style=" stroke:none;fill-rule:nonzero;fill:rgb(97.647059%,97.647059%,97.647059%);fill-opacity:1;" d="M 26 23 C 26 24.105469 25.105469 25 24 25 C 22.894531 25 22 24.105469 22 23 C 22 21.894531 22.894531 21 24 21 C 25.105469 21 26 21.894531 26 23 M 26 23 "/>
<path style=" stroke:none;fill-rule:nonzero;fill:rgb(97.647059%,97.647059%,97.647059%);fill-opacity:1;" d="M 19 26 C 19 23 23 19 26 19 L 26 17 C 22 17 17 22 17 26 M 19 26 "/>
<path style=" stroke:none;fill-rule:nonzero;fill:rgb(97.647059%,97.647059%,97.647059%);fill-opacity:1;" d="M 15 26 L 13 26 C 13 20.003906 20 13 26 13 C 26 13.667969 26 9.371094 26 15 C 21 15 15.003906 20.996094 15.003906 25.996094 M 15 26 "/>
<path style=" stroke:none;fill-rule:nonzero;fill:rgb(97.647059%,97.647059%,97.647059%);fill-opacity:1;" d="M 11 26 L 9 26 C 9 18 18 9 26 9 L 26 11 C 19 11 11.003906 19 11.003906 25.996094 M 11 26 "/>
</g>
</svg>
