<!-- color: #e8a23b -->
<svg xmlns="http://www.w3.org/2000/svg" xmlns:xlink="http://www.w3.org/1999/xlink" width="48px" height="48px" viewBox="0 0 48 48" version="1.1">
<g id="surface1">
<path style=" stroke:none;fill-rule:nonzero;fill:rgb(17.647059%,17.647059%,17.647059%);fill-opacity:1;" d="M 17.609375 10 C 16.691406 10.015625 15.765625 10.1875 14.898438 10.523438 L 19.554688 15.179688 C 20.371094 15.949219 20.707031 17.105469 20.425781 18.199219 C 20.144531 19.292969 19.292969 20.140625 18.203125 20.421875 C 17.113281 20.703125 15.957031 20.371094 15.183594 19.550781 L 10.53125 14.898438 C 9.449219 17.667969 10.019531 20.96875 12.257812 23.199219 C 14.496094 25.4375 17.789062 26.007812 20.558594 24.925781 L 32.65625 37.035156 C 33.429688 37.855469 34.59375 38.1875 35.679688 37.910156 C 36.769531 37.636719 37.617188 36.777344 37.902344 35.6875 C 38.183594 34.597656 37.851562 33.4375 37.03125 32.667969 L 24.929688 20.570312 C 26.011719 17.800781 25.441406 14.5 23.203125 12.269531 C 21.667969 10.730469 19.632812 9.984375 17.613281 10.015625 M 34.828125 33.78125 C 35.40625 33.78125 35.875 34.25 35.875 34.828125 C 35.875 35.410156 35.40625 35.878906 34.828125 35.878906 C 34.25 35.878906 33.777344 35.410156 33.777344 34.828125 C 33.777344 34.25 34.246094 33.78125 34.828125 33.78125 M 34.828125 33.78125 "/>
</g>
</svg>
