<!-- color: #01b0ec -->
<svg xmlns="http://www.w3.org/2000/svg" xmlns:xlink="http://www.w3.org/1999/xlink" width="48px" height="48px" viewBox="0 0 48 48" version="1.1">
<g id="surface1">
<path style=" stroke:none;fill-rule:nonzero;fill:rgb(100%,78.823529%,27.058824%);fill-opacity:1;" d="M 21.058594 9 C 20.609375 12.714844 18.46875 13.585938 15.539062 11.273438 C 16.539062 14.875 14.898438 16.496094 11.308594 15.480469 C 13.613281 18.421875 12.71875 20.539062 9.011719 20.976562 C 12.265625 22.8125 12.257812 25.117188 9 26.941406 C 12.714844 27.390625 13.585938 29.53125 11.273438 32.460938 C 14.875 31.449219 16.496094 33.097656 15.480469 36.691406 C 18.421875 34.382812 20.539062 35.28125 20.976562 38.988281 C 22.8125 35.730469 25.117188 35.742188 26.941406 38.996094 C 27.386719 35.285156 29.53125 34.414062 32.460938 36.722656 C 31.453125 33.121094 33.097656 31.5 36.691406 32.515625 C 34.382812 29.574219 35.28125 27.457031 38.988281 27.019531 C 35.730469 25.1875 35.742188 22.878906 38.996094 21.058594 C 35.285156 20.613281 34.414062 18.46875 36.722656 15.539062 C 33.121094 16.539062 31.5 14.898438 32.515625 11.308594 C 29.574219 13.613281 27.457031 12.71875 27.019531 9.011719 C 25.1875 12.265625 22.878906 12.257812 21.058594 9 M 21.058594 9 "/>
<path style=" stroke:none;fill-rule:nonzero;fill:rgb(97.647059%,97.647059%,97.647059%);fill-opacity:1;" d="M 32 20 C 32.019531 21.808594 31.453125 23.492188 30.515625 24.40625 C 29.578125 25.320312 28.417969 25.320312 27.484375 24.40625 C 26.546875 23.492188 25.980469 21.808594 26.007812 20 C 25.984375 18.191406 26.554688 16.507812 27.484375 15.59375 C 28.425781 14.679688 29.578125 14.679688 30.515625 15.59375 C 31.453125 16.507812 32.019531 18.191406 32 20 M 32 20 "/>
<path style=" stroke:none;fill-rule:nonzero;fill:rgb(97.647059%,97.647059%,97.647059%);fill-opacity:1;" d="M 22 20 C 22.019531 21.808594 21.453125 23.492188 20.515625 24.40625 C 19.578125 25.320312 18.417969 25.320312 17.484375 24.40625 C 16.546875 23.492188 15.980469 21.808594 16.007812 20 C 15.984375 18.191406 16.554688 16.507812 17.484375 15.59375 C 18.425781 14.679688 19.578125 14.679688 20.515625 15.59375 C 21.453125 16.507812 22.019531 18.191406 22 20 M 22 20 "/>
<path style=" stroke:none;fill-rule:nonzero;fill:rgb(17.647059%,17.647059%,17.647059%);fill-opacity:1;" d="M 31 22 C 31.011719 22.722656 30.636719 23.398438 30.011719 23.761719 C 29.386719 24.128906 28.613281 24.128906 27.988281 23.761719 C 27.363281 23.398438 26.988281 22.722656 27 22 C 26.988281 21.277344 27.363281 20.601562 27.988281 20.238281 C 28.613281 19.871094 29.386719 19.871094 30.011719 20.238281 C 30.636719 20.601562 31.011719 21.277344 31 22 M 31 22 "/>
<path style=" stroke:none;fill-rule:nonzero;fill:rgb(17.647059%,17.647059%,17.647059%);fill-opacity:1;" d="M 21 22 C 21.011719 22.722656 20.636719 23.398438 20.011719 23.761719 C 19.386719 24.128906 18.613281 24.128906 17.988281 23.761719 C 17.363281 23.398438 16.988281 22.722656 17 22 C 16.988281 21.277344 17.363281 20.601562 17.988281 20.238281 C 18.613281 19.871094 19.386719 19.871094 20.011719 20.238281 C 20.636719 20.601562 21.011719 21.277344 21 22 M 21 22 "/>
<path style=" stroke:none;fill-rule:nonzero;fill:rgb(81.176471%,15.686275%,0%);fill-opacity:1;" d="M 18 28 C 21 29.996094 27 29.996094 30 28 C 29.003906 35 19.003906 35 18 28 M 18 28 "/>
</g>
</svg>
