<!-- color: #eeeeee -->
<svg xmlns="http://www.w3.org/2000/svg" xmlns:xlink="http://www.w3.org/1999/xlink" width="48px" height="48px" viewBox="0 0 48 48" version="1.1">
<defs>
<radialGradient id="radial0" gradientUnits="userSpaceOnUse" cx="6.773" cy="6.773" fx="6.773" fy="6.773" r="3.669" gradientTransform="matrix(3.543307,0,0,3.543307,0,0)">
<stop offset="0" style="stop-color:rgb(0%,0%,0%);stop-opacity:1;"/>
<stop offset="1" style="stop-color:rgb(0%,0%,0%);stop-opacity:0;"/>
</radialGradient>
<radialGradient id="radial1" gradientUnits="userSpaceOnUse" cx="6.773" cy="6.773" fx="6.773" fy="6.773" r="3.669" gradientTransform="matrix(3.543307,0,0,3.543307,0,0)">
<stop offset="0" style="stop-color:rgb(0%,0%,0%);stop-opacity:0.25098;"/>
<stop offset="1" style="stop-color:rgb(0%,0%,0%);stop-opacity:0;"/>
</radialGradient>
<radialGradient id="radial2" gradientUnits="userSpaceOnUse" cx="6.209" cy="5.927" fx="6.209" fy="5.927" r="0.282" gradientTransform="matrix(5.31496,0,0,5.31496,-10.999999,-10.499999)">
<stop offset="0" style="stop-color:rgb(100%,100%,100%);stop-opacity:0.74902;"/>
<stop offset="1" style="stop-color:rgb(100%,100%,100%);stop-opacity:0;"/>
</radialGradient>
<radialGradient id="radial3" gradientUnits="userSpaceOnUse" cx="6.209" cy="5.927" fx="6.209" fy="5.927" r="0.282" gradientTransform="matrix(5.31496,0,0,5.31496,-8.999999,-4.499999)">
<stop offset="0" style="stop-color:rgb(100%,100%,100%);stop-opacity:0.74902;"/>
<stop offset="1" style="stop-color:rgb(100%,100%,100%);stop-opacity:0;"/>
</radialGradient>
</defs>
<g id="surface1">
<path style=" stroke:none;fill-rule:evenodd;fill:rgb(100%,44.313725%,44.313725%);fill-opacity:1;" d="M 15 9 L 15.003906 9 C 16.105469 9 17 9.894531 17 11 L 17 11.003906 C 17 12.105469 16.105469 13 15.003906 13 L 15 13 C 13.894531 13 13 12.105469 13 11.003906 L 13 11 C 13 9.894531 13.894531 9 15 9 M 15 9 "/>
<path style=" stroke:none;fill-rule:nonzero;fill:rgb(58.431373%,41.568627%,69.803922%);fill-opacity:1;" d="M 0 15 L 0 21 L 48 21 L 48 15 M 0 15 "/>
<path style=" stroke:none;fill-rule:nonzero;fill:rgb(87.058824%,86.666667%,55.686275%);fill-opacity:1;" d="M 0 21 L 0 27 L 48 27 L 48 21 M 0 21 "/>
<path style=" stroke:none;fill-rule:evenodd;fill:url(#radial0);" d="M 24 11 C 31.179688 11 37 16.820312 37 24 C 37 31.179688 31.179688 37 24 37 C 16.820312 37 11 31.179688 11 24 C 11 16.820312 16.820312 11 24 11 M 24 11 "/>
<path style=" stroke:none;fill-rule:nonzero;fill:rgb(58.431373%,41.568627%,69.803922%);fill-opacity:1;" d="M 0 27 L 0 33 L 48 33 L 48 27 M 0 27 "/>
<path style=" stroke:none;fill-rule:evenodd;fill:url(#radial1);" d="M 24 11 C 31.179688 11 37 16.820312 37 24 C 37 31.179688 31.179688 37 24 37 C 16.820312 37 11 31.179688 11 24 C 11 16.820312 16.820312 11 24 11 M 24 11 "/>
<path style=" stroke:none;fill-rule:evenodd;fill:rgb(95.686275%,98.431373%,89.803922%);fill-opacity:1;" d="M 24 12 C 30.628906 12 36 17.375 36 24 C 36 30.628906 30.628906 36 24 36 C 17.375 36 12 30.628906 12 24 C 12 17.375 17.375 12 24 12 M 24 12 "/>
<path style=" stroke:none;fill-rule:evenodd;fill:rgb(43.921569%,31.764706%,47.45098%);fill-opacity:1;" d="M 24 14 C 29.519531 14 33.996094 18.476562 33.996094 24 C 33.996094 29.519531 29.519531 33.996094 24 33.996094 C 18.476562 33.996094 14 29.519531 14 24 C 14 18.476562 18.476562 14 24 14 M 24 14 "/>
<path style=" stroke:none;fill-rule:evenodd;fill:rgb(89.411765%,90.588235%,83.529412%);fill-opacity:1;" d="M 24 16 C 28.417969 16 32 19.582031 32 24 C 32 28.417969 28.417969 32 24 32 C 19.578125 32 16 28.417969 16 24 C 16 19.578125 19.582031 16 24 16 M 24 16 "/>
<path style=" stroke:none;fill-rule:evenodd;fill:rgb(29.411765%,18.431373%,32.156863%);fill-opacity:1;" d="M 24 18 L 24.003906 18 C 27.316406 18 30 20.6875 30 24 L 30 24.003906 C 30 27.316406 27.316406 30 24.003906 30 L 24 30 C 20.6875 30 18 27.316406 18 24.003906 L 18 24 C 18 20.6875 20.6875 18 24 18 M 24 18 "/>
<path style=" stroke:none;fill-rule:nonzero;fill:rgb(100%,100%,100%);fill-opacity:0.14902;" d="M 28.71875 20.3125 C 27.054688 25.476562 18.894531 23 19 27.3125 C 20.074219 28.929688 21.90625 30 24 30 C 27.324219 30 30 27.324219 30 24 C 30 22.601562 29.515625 21.332031 28.71875 20.3125 M 28.71875 20.3125 "/>
<path style=" stroke:none;fill-rule:evenodd;fill:url(#radial2);" d="M 22 19.5 L 22.003906 19.5 C 22.832031 19.5 23.503906 20.167969 23.503906 20.996094 L 23.503906 21 C 23.503906 21.828125 22.832031 22.5 22.003906 22.5 L 22 22.5 C 21.171875 22.5 20.5 21.828125 20.5 21 L 20.5 20.996094 C 20.5 20.167969 21.171875 19.5 22 19.5 M 22 19.5 "/>
<path style=" stroke:none;fill-rule:evenodd;fill:url(#radial3);" d="M 24 25.5 L 24.003906 25.5 C 24.832031 25.5 25.5 26.171875 25.5 27 L 25.5 27.003906 C 25.5 27.832031 24.832031 28.503906 24.003906 28.503906 L 24 28.503906 C 23.171875 28.503906 22.5 27.832031 22.5 27.003906 L 22.5 27 C 22.5 26.171875 23.171875 25.5 24 25.5 M 24 25.5 "/>
</g>
</svg>
