<!-- color: #428585 -->
<svg xmlns="http://www.w3.org/2000/svg" xmlns:xlink="http://www.w3.org/1999/xlink" width="48px" height="48px" viewBox="0 0 48 48" version="1.1">
<g id="surface1">
<path style=" stroke:none;fill-rule:nonzero;fill:rgb(97.647059%,97.647059%,97.647059%);fill-opacity:1;" d="M 23.96875 14.3125 C 19.765625 14.3125 16.375 17.546875 16.375 21.53125 C 16.375 25.519531 19.761719 28.78125 23.96875 28.78125 C 28.175781 28.78125 31.59375 25.519531 31.59375 21.53125 C 31.59375 17.546875 28.175781 14.3125 23.96875 14.3125 M 24 17 C 24.359375 17 25 17.320312 25 17.65625 L 25 20.875 C 25.011719 21.199219 24.410156 21.503906 24.0625 21.53125 C 24.039062 21.53125 24.019531 21.53125 24 21.53125 C 23.632812 21.535156 22.984375 21.21875 23 20.875 L 23 17.65625 C 23 17.320312 23.640625 17 24 17 M 21.5 17.75 C 21.890625 17.75 22.058594 18.109375 22 18.46875 L 22 20.75 C 22.015625 21.070312 22 21.492188 21.5 21.40625 C 21.113281 21.441406 21.015625 21.113281 21.03125 20.75 L 21.03125 18.46875 C 20.972656 18.109375 21.109375 17.75 21.5 17.75 M 26.5 18.5 C 26.859375 18.5 27 18.820312 27 19.15625 L 27 20.75 C 27 21.003906 27.105469 21.371094 26.5 21.40625 C 26.105469 21.414062 26 21.003906 26 20.75 L 26 19.15625 C 26 18.820312 26.140625 18.5 26.5 18.5 M 20.96875 22.09375 C 21.222656 22.082031 21.460938 22.132812 21.65625 22.28125 L 24 24.511719 L 26.21875 22.386719 C 26.503906 22.105469 26.992188 22.015625 27.375 22.15625 C 27.757812 22.308594 28.019531 22.714844 28 23.097656 C 27.992188 23.34375 27.878906 23.578125 27.6875 23.753906 L 24.6875 26.722656 C 24.515625 26.878906 24.304688 26.984375 24.0625 27.003906 C 23.765625 27.027344 23.460938 26.914062 23.25 26.722656 L 20.21875 23.65625 C 19.894531 23.304688 19.925781 22.71875 20.28125 22.386719 C 20.460938 22.214844 20.71875 22.113281 20.972656 22.105469 M 20.96875 22.101562 "/>
<path style="fill:none;stroke-width:0.564;stroke-linecap:butt;stroke-linejoin:miter;stroke:rgb(97.647059%,97.647059%,97.647059%);stroke-opacity:1;stroke-miterlimit:4;" d="M 4.323733 3.386667 L 9.221832 3.386667 C 9.427986 3.386667 9.594453 3.556441 9.594453 3.761493 L 9.594453 9.791788 C 9.594453 9.997943 9.430191 10.165512 9.221832 10.165512 L 4.323733 10.165512 C 4.117578 10.165512 3.951111 10.000148 3.951111 9.791788 L 3.951111 3.761493 C 3.951111 3.556441 4.116476 3.386667 4.323733 3.386667 M 4.323733 3.386667 " transform="matrix(3.543307,0,0,3.543307,0,0)"/>
<path style=" stroke:none;fill-rule:nonzero;fill:rgb(97.647059%,97.647059%,97.647059%);fill-opacity:1;" d="M 26.5625 29.671875 L 29.984375 33.726562 L 31.695312 33.726562 L 31.695312 32.105469 M 26.5625 29.671875 "/>
</g>
</svg>
