<!-- color: #bc4142 -->
<svg xmlns="http://www.w3.org/2000/svg" xmlns:xlink="http://www.w3.org/1999/xlink" width="48px" height="48px" viewBox="0 0 48 48" version="1.1">
<g id="surface1">
<path style=" stroke:none;fill-rule:evenodd;fill:rgb(97.647059%,97.647059%,97.647059%);fill-opacity:1;" d="M 30.996094 13.308594 C 32.992188 14.605469 34.183594 16.421875 33.976562 17.6875 L 25.832031 12.386719 C 25.808594 12.371094 25.78125 12.359375 25.753906 12.339844 C 26.84375 11.648438 28.996094 12.007812 30.996094 13.308594 M 30.996094 13.308594 "/>
<path style=" stroke:none;fill-rule:evenodd;fill:rgb(97.647059%,97.647059%,97.647059%);fill-opacity:1;" d="M 32.769531 17.5 L 32.25 17.164062 C 31.691406 16.796875 30.941406 16.945312 30.582031 17.488281 L 23.492188 28.199219 C 23.132812 28.746094 23.292969 29.484375 23.855469 29.847656 L 24.375 30.183594 C 24.933594 30.550781 25.683594 30.402344 26.042969 29.859375 L 33.132812 19.148438 C 33.492188 18.601562 33.332031 17.863281 32.769531 17.5 M 32.769531 17.5 "/>
<path style=" stroke:none;fill-rule:evenodd;fill:rgb(97.647059%,97.647059%,97.647059%);fill-opacity:1;" d="M 29.859375 15.605469 L 29.339844 15.269531 C 28.78125 14.902344 28.03125 15.050781 27.671875 15.597656 L 20.582031 26.304688 C 20.222656 26.851562 20.382812 27.589844 20.945312 27.953125 L 21.464844 28.292969 C 22.023438 28.65625 22.773438 28.511719 23.132812 27.964844 L 30.222656 17.253906 C 30.582031 16.710938 30.421875 15.972656 29.859375 15.605469 M 29.859375 15.605469 "/>
<path style=" stroke:none;fill-rule:evenodd;fill:rgb(97.647059%,97.647059%,97.647059%);fill-opacity:1;" d="M 26.949219 13.714844 L 26.429688 13.375 C 25.871094 13.011719 25.121094 13.15625 24.761719 13.703125 L 17.671875 24.414062 C 17.3125 24.957031 17.472656 25.695312 18.035156 26.0625 L 18.554688 26.398438 C 19.113281 26.761719 19.863281 26.617188 20.222656 26.070312 L 27.3125 15.363281 C 27.671875 14.816406 27.511719 14.078125 26.949219 13.714844 M 26.949219 13.714844 "/>
<path style=" stroke:none;fill-rule:evenodd;fill:rgb(97.647059%,97.647059%,97.647059%);fill-opacity:1;" d="M 25.058594 31.308594 C 25.074219 31.105469 16.941406 25.8125 16.757812 25.90625 C 16.578125 26.007812 15.855469 35.886719 16.019531 35.996094 C 16.1875 36.101562 25.050781 31.519531 25.0625 31.308594 M 25.0625 31.308594 "/>
</g>
</svg>
