<!-- color: #474747 -->
<svg xmlns="http://www.w3.org/2000/svg" xmlns:xlink="http://www.w3.org/1999/xlink" width="48px" height="48px" viewBox="0 0 48 48" version="1.1">
<g id="surface1">
<path style=" stroke:none;fill-rule:evenodd;fill:rgb(97.647059%,97.647059%,97.647059%);fill-opacity:1;" d="M 13.171875 12 L 34.832031 12 C 35.476562 12 36 12.742188 36 13.660156 L 36 34.339844 C 36 35.257812 35.476562 36 34.832031 36 L 13.171875 36 C 12.523438 36 12 35.257812 12 34.339844 L 12 13.660156 C 12 12.742188 12.523438 12 13.171875 12 M 13.171875 12 "/>
<path style=" stroke:none;fill-rule:evenodd;fill:rgb(45.882353%,29.019608%,5.882353%);fill-opacity:1;" d="M 25.191406 22.703125 L 26.828125 24.226562 C 29.714844 21.390625 33.984375 14.605469 33.984375 14.605469 C 34.15625 14.113281 33.546875 13.804688 33.242188 14.132812 C 33.242188 14.132812 27.742188 19.789062 25.199219 22.699219 M 25.183594 22.703125 "/>
<path style=" stroke:none;fill-rule:evenodd;fill:rgb(17.647059%,17.647059%,17.647059%);fill-opacity:1;" d="M 22.140625 26.808594 L 23.042969 27.585938 L 26.453125 24.628906 L 26.566406 24.347656 L 27.003906 24.339844 C 26.828125 23.710938 25.820312 22.582031 25.070312 22.582031 L 25.101562 23.015625 L 24.828125 23.167969 M 22.140625 26.808594 "/>
<path style=" stroke:none;fill-rule:evenodd;fill:rgb(21.176471%,49.411765%,81.960784%);fill-opacity:1;" d="M 18 29.980469 C 20.652344 29.980469 22.671875 30.296875 23.050781 28.367188 C 23.359375 26.8125 21.21875 26.066406 20.15625 27.457031 C 19.136719 28.792969 18 29.980469 18 29.980469 M 18 29.980469 "/>
<path style=" stroke:none;fill-rule:evenodd;fill:rgb(21.176471%,49.411765%,81.960784%);fill-opacity:1;" d="M 16.1875 14.6875 C 16.027344 14.679688 15.878906 14.710938 15.71875 14.75 C 15.042969 14.917969 14.519531 15.390625 14.15625 16 C 14.015625 16.234375 13.980469 16.570312 13.875 16.84375 C 13.8125 16.675781 13.765625 16.417969 13.6875 16.28125 C 13.574219 16.078125 13.4375 15.890625 13.15625 15.78125 C 12.875 15.671875 12.523438 15.816406 12.34375 16 C 12.207031 16.136719 12.09375 16.308594 12 16.5 L 12 20.9375 C 12.191406 19.710938 12.386719 18.679688 12.5625 18 C 12.707031 17.429688 12.804688 17.296875 12.90625 17.09375 C 13.011719 17.355469 13.140625 17.628906 13.25 18.125 C 13.316406 18.441406 13.3125 18.96875 13.375 19.34375 C 13.214844 20.757812 13.097656 22.265625 13.1875 23.71875 C 13.300781 25.558594 13.523438 27.21875 13.75 28.1875 C 13.804688 28.429688 13.878906 28.617188 13.9375 28.78125 C 13.96875 28.863281 13.988281 28.953125 14.03125 29.03125 C 14.074219 29.109375 14.113281 29.222656 14.34375 29.3125 C 14.460938 29.363281 14.652344 29.347656 14.78125 29.28125 C 14.914062 29.21875 14.972656 29.136719 15.007812 29.0625 C 15.078125 28.9375 15.078125 28.871094 15.105469 28.78125 C 15.132812 28.605469 15.167969 28.410156 15.167969 28.132812 C 15.167969 25.859375 14.84375 21.800781 14.355469 18.980469 C 14.375 18.808594 14.355469 18.578125 14.382812 18.414062 C 14.527344 17.65625 14.769531 16.996094 15.03125 16.539062 C 15.304688 16.082031 15.601562 15.820312 15.972656 15.726562 C 16.125 15.6875 16.164062 15.714844 16.191406 15.726562 C 16.214844 15.738281 16.265625 15.769531 16.316406 15.882812 C 16.414062 16.109375 16.464844 16.613281 16.441406 17.226562 C 16.398438 18.4375 16.117188 19.992188 16.128906 21.070312 C 16.152344 24.023438 16.21875 25.832031 16.316406 26.851562 C 16.363281 27.363281 16.371094 27.640625 16.535156 27.945312 C 16.574219 28.023438 16.648438 28.113281 16.816406 28.195312 C 16.980469 28.28125 17.222656 28.246094 17.347656 28.164062 C 17.589844 28 17.609375 27.886719 17.660156 27.757812 C 17.851562 27.253906 17.972656 26.386719 18.136719 25.257812 C 18.160156 25.042969 18.199219 24.773438 18.230469 24.539062 C 18.183594 26.179688 18.15625 27.492188 18.074219 29.914062 L 19.074219 29.945312 C 19.222656 25.679688 19.320312 22.546875 19.355469 20.570312 C 19.371094 19.582031 19.363281 18.855469 19.355469 18.320312 C 19.347656 17.785156 19.339844 17.496094 19.289062 17.257812 C 19.277344 17.191406 19.285156 17.148438 19.226562 17.03125 C 19.195312 16.976562 19.140625 16.886719 19.003906 16.8125 C 18.867188 16.738281 18.621094 16.746094 18.503906 16.8125 C 18.265625 16.941406 18.277344 17.035156 18.253906 17.09375 C 18.230469 17.15625 18.203125 17.195312 18.1875 17.25 C 18.128906 17.46875 18.09375 17.753906 18.03125 18.15625 C 17.914062 18.960938 17.777344 20.148438 17.628906 21.40625 C 17.503906 22.441406 17.386719 23.496094 17.253906 24.46875 C 17.214844 23.457031 17.144531 22.824219 17.128906 21.0625 C 17.121094 20.183594 17.398438 18.578125 17.441406 17.25 C 17.464844 16.585938 17.445312 15.980469 17.222656 15.46875 C 17.109375 15.210938 16.9375 14.953125 16.65625 14.8125 C 16.519531 14.742188 16.347656 14.695312 16.1875 14.6875 M 16.1875 14.6875 "/>
</g>
</svg>
