<!-- color: #474747 -->
<svg xmlns="http://www.w3.org/2000/svg" xmlns:xlink="http://www.w3.org/1999/xlink" width="48px" height="48px" viewBox="0 0 48 48" version="1.1">
<g id="surface1">
<path style=" stroke:none;fill-rule:nonzero;fill:rgb(87.058824%,87.058824%,87.058824%);fill-opacity:1;" d="M 35 30 C 35 33.867188 31.867188 37 28 37 C 24.132812 37 21 33.867188 21 30 C 21 26.132812 24.132812 23 28 23 C 31.867188 23 35 26.132812 35 30 M 35 30 "/>
<path style=" stroke:none;fill-rule:nonzero;fill:rgb(87.058824%,87.058824%,87.058824%);fill-opacity:1;" d="M 26 14 C 26 16.761719 23.761719 19 21 19 C 18.238281 19 16 16.761719 16 14 C 16 11.238281 18.238281 9 21 9 C 23.761719 9 26 11.238281 26 14 M 26 14 "/>
<path style=" stroke:none;fill-rule:nonzero;fill:rgb(87.058824%,87.058824%,87.058824%);fill-opacity:1;" d="M 37 16 C 37 17.65625 35.65625 19 34 19 C 32.34375 19 31 17.65625 31 16 C 31 14.34375 32.34375 13 34 13 C 35.65625 13 37 14.34375 37 16 M 37 16 "/>
<path style=" stroke:none;fill-rule:nonzero;fill:rgb(87.058824%,87.058824%,87.058824%);fill-opacity:1;" d="M 18 28.5 C 18 30.433594 16.433594 32 14.5 32 C 12.566406 32 11 30.433594 11 28.5 C 11 26.566406 12.566406 25 14.5 25 C 16.433594 25 18 26.566406 18 28.5 M 18 28.5 "/>
<path style=" stroke:none;fill-rule:nonzero;fill:rgb(87.058824%,87.058824%,87.058824%);fill-opacity:1;" d="M 29.210938 24.644531 L 33.375 16.320312 L 34.765625 17.246094 L 30.601562 25.265625 M 29.210938 24.648438 "/>
<path style=" stroke:none;fill-rule:nonzero;fill:rgb(87.058824%,87.058824%,87.058824%);fill-opacity:1;" d="M 20.882812 16.320312 L 25.507812 26.648438 L 27.972656 25.109375 L 22.734375 15.394531 M 20.882812 16.320312 "/>
<path style=" stroke:none;fill-rule:nonzero;fill:rgb(87.058824%,87.058824%,87.058824%);fill-opacity:1;" d="M 22.734375 28.039062 L 15.796875 27.730469 L 15.796875 29.425781 L 22.882812 29.582031 M 22.734375 28.039062 "/>
<path style=" stroke:none;fill-rule:nonzero;fill:rgb(1.176471%,58.431373%,78.431373%);fill-opacity:1;" d="M 33 30 C 33 32.761719 30.761719 35 28 35 C 25.238281 35 23 32.761719 23 30 C 23 27.238281 25.238281 25 28 25 C 30.761719 25 33 27.238281 33 30 M 33 30 "/>
<path style=" stroke:none;fill-rule:nonzero;fill:rgb(87.058824%,24.313725%,90.588235%);fill-opacity:1;" d="M 24 14 C 24 15.65625 22.65625 17 21 17 C 19.34375 17 18 15.65625 18 14 C 18 12.34375 19.34375 11 21 11 C 22.65625 11 24 12.34375 24 14 M 24 14 "/>
<path style=" stroke:none;fill-rule:nonzero;fill:rgb(92.156863%,61.176471%,0%);fill-opacity:1;" d="M 35.5 16 C 35.5 16.828125 34.828125 17.5 34 17.5 C 33.171875 17.5 32.5 16.828125 32.5 16 C 32.5 15.171875 33.171875 14.5 34 14.5 C 34.828125 14.5 35.5 15.171875 35.5 16 M 35.5 16 "/>
<path style=" stroke:none;fill-rule:nonzero;fill:rgb(17.647059%,69.803922%,0%);fill-opacity:1;" d="M 16.5 28.5 C 16.5 29.605469 15.605469 30.5 14.5 30.5 C 13.394531 30.5 12.5 29.605469 12.5 28.5 C 12.5 27.394531 13.394531 26.5 14.5 26.5 C 15.605469 26.5 16.5 27.394531 16.5 28.5 M 16.5 28.5 "/>
</g>
</svg>
