<!-- color: #db0103 -->
<svg xmlns="http://www.w3.org/2000/svg" xmlns:xlink="http://www.w3.org/1999/xlink" width="48px" height="48px" viewBox="0 0 48 48" version="1.1">
<g id="surface1">
<path style=" stroke:none;fill-rule:nonzero;fill:rgb(0%,0%,0%);fill-opacity:1;" d="M 24.25 11 L 24.25 11.449219 C 24.25 11.449219 24.246094 12.242188 24.246094 12.933594 C 23.480469 12.167969 22.316406 11 22.316406 11 L 16.996094 11 L 17 34.816406 L 20.066406 37 L 23.257812 36.636719 C 23.257812 36.636719 23.273438 35.378906 23.28125 34.527344 C 24.328125 35.304688 25.761719 36.367188 25.761719 36.367188 L 30.988281 35.886719 L 30.988281 13.449219 L 28.152344 11.003906 L 24.238281 11.003906 M 24.246094 11 "/>
<path style=" stroke:none;fill-rule:nonzero;fill:rgb(100%,100%,100%);fill-opacity:1;" d="M 25.121094 29.683594 L 24.945312 29.699219 L 21.890625 11.640625 L 17.824219 11.636719 L 17.828125 34.304688 C 17.828125 34.304688 18.632812 34.199219 20.351562 34.027344 L 20.175781 16.796875 L 20.351562 16.78125 L 23.257812 33.757812 C 23.257812 33.757812 24.242188 33.652344 27.628906 33.347656 L 27.628906 11.640625 L 25.027344 11.640625 L 25.113281 29.691406 M 25.113281 29.6875 "/>
</g>
</svg>
