<!-- color: #834a18 -->
<svg xmlns="http://www.w3.org/2000/svg" xmlns:xlink="http://www.w3.org/1999/xlink" width="48px" height="48px" viewBox="0 0 48 48" version="1.1">
<g id="surface1">
<path style=" stroke:none;fill-rule:nonzero;fill:rgb(100%,100%,100%);fill-opacity:1;" d="M 23.351562 38.835938 C 22.476562 38.480469 22.015625 37.148438 22.34375 35.910156 C 22.527344 35.222656 22.363281 35.113281 21.796875 35.519531 C 21.613281 35.648438 20.851562 35.972656 20.089844 36.238281 C 18.195312 36.90625 16.433594 36.929688 15.359375 36.308594 C 14.003906 35.515625 13.507812 34.148438 13.863281 32.128906 C 13.96875 31.542969 14.101562 30.925781 14.160156 30.757812 C 14.226562 30.59375 13.933594 30.777344 13.515625 31.171875 C 12.703125 31.941406 12.164062 32.167969 11.523438 32 C 10.355469 31.695312 10.066406 29.371094 10.9375 27.261719 C 11.226562 26.558594 11.226562 26.527344 10.929688 26.148438 C 10.035156 24.996094 10.171875 23.46875 11.363281 21.296875 C 12.179688 19.816406 12.21875 19.753906 12.347656 19.894531 C 12.398438 19.945312 12.257812 20.292969 12.03125 20.664062 C 11.546875 21.472656 10.867188 23.113281 10.714844 23.894531 C 10.53125 24.75 10.878906 25.453125 11.472656 25.453125 C 11.738281 25.453125 12.171875 25.332031 12.441406 25.1875 C 12.925781 24.925781 14.609375 23.4375 16.339844 21.734375 L 17.234375 20.855469 L 16.664062 20.359375 C 16.351562 20.085938 15.359375 19.34375 14.464844 18.707031 C 12.671875 17.433594 12.425781 17.0625 12.679688 15.996094 C 12.820312 15.402344 12.941406 15.300781 14.421875 14.515625 L 16.007812 13.679688 L 15.667969 13.300781 C 15.410156 13.015625 15.355469 12.800781 15.4375 12.414062 C 15.496094 12.132812 15.632812 11.828125 15.738281 11.734375 C 16.363281 11.195312 22.769531 8.84375 22.988281 9.070312 C 23.167969 9.253906 22.792969 9.445312 20.988281 10.089844 C 18.988281 10.804688 16 12.027344 15.800781 12.214844 C 15.730469 12.28125 15.804688 12.59375 15.964844 12.914062 C 16.125 13.230469 16.265625 13.511719 16.277344 13.542969 C 16.292969 13.570312 17.277344 13.246094 18.480469 12.824219 C 21.308594 11.828125 24.964844 10.859375 25.894531 10.859375 C 26.464844 10.859375 26.722656 10.957031 27.046875 11.292969 C 27.398438 11.664062 27.445312 11.820312 27.351562 12.355469 C 27.21875 13.082031 26.671875 13.886719 25.730469 14.738281 C 25.363281 15.066406 24.558594 15.875 23.941406 16.535156 L 22.816406 17.734375 L 23.234375 16.886719 C 23.734375 15.867188 24.390625 15.117188 25.757812 14.011719 C 26.316406 13.558594 26.777344 13.085938 26.777344 12.957031 C 26.777344 12.453125 26.140625 12.050781 25.347656 12.050781 C 23.734375 12.050781 18.972656 13.511719 15.441406 15.09375 C 12.855469 16.25 12.804688 16.3125 13.90625 16.890625 C 14.945312 17.441406 18.097656 19.445312 18.496094 19.8125 C 18.75 20.046875 18.859375 20.035156 19.617188 19.707031 C 20.082031 19.507812 20.566406 19.34375 20.699219 19.34375 C 20.878906 19.34375 20.917969 19.226562 20.839844 18.878906 C 20.785156 18.621094 20.636719 17.761719 20.511719 16.96875 C 20.386719 16.175781 20.242188 15.335938 20.1875 15.105469 C 20.136719 14.871094 20.148438 14.414062 20.21875 14.089844 L 20.34375 13.5 L 20.949219 14.511719 C 21.59375 15.585938 21.761719 16.171875 21.308594 15.78125 C 20.910156 15.441406 20.835938 15.71875 21.027344 16.804688 C 21.292969 18.277344 21.539062 18.703125 22.414062 19.183594 C 23.246094 19.636719 23.425781 19.929688 23.261719 20.589844 C 23.164062 20.988281 23.144531 20.996094 22.683594 20.761719 C 22.125 20.472656 20.597656 20.414062 20.164062 20.664062 C 19.898438 20.820312 19.953125 20.902344 20.652344 21.410156 C 21.085938 21.726562 22.328125 22.640625 23.414062 23.449219 C 25.347656 24.894531 25.390625 24.914062 25.445312 24.476562 C 25.472656 24.230469 25.417969 22.363281 25.320312 20.324219 C 25.167969 17.214844 25.179688 16.550781 25.371094 16.164062 L 25.597656 15.714844 L 25.875 16.386719 C 26.828125 18.726562 26.960938 19.464844 26.277344 18.65625 L 25.9375 18.25 L 26.03125 20.878906 C 26.085938 22.324219 26.175781 23.988281 26.230469 24.578125 C 26.328125 25.605469 26.355469 25.660156 26.953125 25.976562 C 27.695312 26.371094 28.21875 26.394531 28.980469 26.0625 C 29.53125 25.824219 29.546875 25.789062 29.546875 24.867188 C 29.546875 24.347656 29.441406 22.835938 29.3125 21.507812 C 29.183594 20.183594 28.996094 17.875 28.894531 16.382812 C 28.792969 14.890625 28.644531 12.996094 28.566406 12.175781 C 28.46875 11.160156 28.476562 10.535156 28.597656 10.222656 C 28.769531 9.777344 28.789062 9.800781 29.398438 11.125 C 29.746094 11.871094 30.027344 12.632812 30.027344 12.820312 C 30.023438 13.113281 29.972656 13.09375 29.609375 12.648438 L 29.195312 12.140625 L 29.289062 13.242188 C 29.339844 13.851562 29.570312 16.539062 29.800781 19.21875 C 30.328125 25.40625 30.199219 26.539062 28.871094 27.257812 C 28.367188 27.527344 27.46875 27.523438 26.632812 27.238281 C 26.304688 27.128906 26.261719 27.152344 26.339844 27.429688 C 26.390625 27.605469 26.476562 28.589844 26.535156 29.617188 C 26.648438 31.550781 26.457031 33.683594 26.082031 34.628906 C 25.90625 35.085938 25.878906 34.824219 25.878906 32.640625 C 25.878906 31.257812 25.816406 29.304688 25.738281 28.300781 L 25.601562 26.472656 L 24.488281 25.585938 C 23.875 25.097656 22.636719 24.097656 21.730469 23.367188 C 20.828125 22.640625 20.085938 22.089844 20.085938 22.140625 C 20.085938 22.191406 20.324219 22.671875 20.613281 23.203125 C 21.011719 23.941406 21.136719 24.371094 21.132812 25.023438 C 21.125 26.644531 20.433594 27.402344 18.503906 27.90625 C 17.226562 28.238281 15.765625 28.980469 15.082031 29.648438 C 14.164062 30.539062 13.96875 32.949219 14.710938 34.203125 C 15.539062 35.601562 18.027344 35.972656 20.386719 35.058594 C 22.488281 34.242188 24.328125 32.980469 24.328125 32.351562 C 24.328125 32.140625 24.027344 31.140625 23.664062 30.128906 C 23.132812 28.664062 23.019531 28.160156 23.109375 27.679688 L 23.21875 27.070312 L 23.933594 27.917969 C 24.722656 28.859375 24.816406 29.097656 24.328125 28.9375 C 23.957031 28.816406 23.925781 28.96875 24.183594 29.648438 C 25.019531 31.839844 24.890625 33.003906 23.671875 34.183594 C 22.820312 35.007812 22.53125 35.707031 22.527344 36.925781 C 22.527344 37.6875 22.890625 38.183594 23.460938 38.183594 C 23.980469 38.183594 25.054688 37.273438 26.113281 35.921875 C 27.28125 34.4375 28.046875 33.855469 29.785156 33.089844 C 30.507812 32.773438 31.152344 32.460938 31.230469 32.394531 C 31.308594 32.328125 31.386719 31.75 31.40625 31.113281 C 31.449219 29.835938 31.765625 29.011719 32.386719 28.589844 C 32.6875 28.386719 32.855469 28.363281 33.109375 28.507812 C 33.421875 28.675781 33.777344 29.605469 33.777344 30.226562 C 33.78125 30.871094 33.222656 32.199219 32.777344 32.613281 L 32.296875 33.058594 L 32.660156 33.414062 C 33.132812 33.863281 33.503906 33.863281 34.390625 33.421875 C 34.835938 33.191406 35.128906 32.921875 35.191406 32.664062 C 35.242188 32.445312 35.210938 30.867188 35.109375 29.160156 C 34.949219 26.390625 34.328125 16.191406 34.253906 15.109375 C 34.234375 14.875 34.277344 14.425781 34.351562 14.113281 C 34.503906 13.425781 34.5625 13.5 35.269531 15.253906 C 35.808594 16.589844 35.800781 16.933594 35.253906 16.277344 L 34.90625 15.871094 L 35.003906 17.144531 C 35.050781 17.84375 35.171875 19.636719 35.265625 21.132812 C 35.359375 22.625 35.472656 24.035156 35.511719 24.269531 C 35.71875 25.519531 35.78125 31.382812 35.589844 32.328125 C 35.273438 33.933594 34.289062 34.960938 33.089844 34.960938 C 32.660156 34.960938 32.09375 34.398438 31.925781 33.8125 C 31.777344 33.304688 31.601562 33.324219 30.011719 34.054688 C 28.230469 34.875 27.15625 35.714844 26.039062 37.167969 C 24.8125 38.769531 24.164062 39.167969 23.351562 38.839844 M 32.816406 31.625 C 33.253906 31.242188 33.316406 31.089844 33.234375 30.660156 C 33.085938 29.875 32.6875 29.5 32.261719 29.730469 C 31.757812 30.007812 31.660156 30.222656 31.769531 30.886719 C 31.984375 32.257812 32.042969 32.300781 32.816406 31.625 M 12.6875 30.609375 C 13.039062 30.367188 13.800781 29.691406 14.386719 29.105469 C 15.652344 27.84375 16.601562 27.3125 18.679688 26.714844 C 20.171875 26.285156 20.90625 25.847656 20.90625 25.402344 C 20.90625 24.984375 19.699219 23.085938 18.9375 22.304688 L 18.152344 21.496094 L 17.695312 21.8125 C 17.445312 21.980469 16.46875 22.871094 15.515625 23.785156 C 13.363281 25.867188 12.644531 26.4375 11.996094 26.570312 C 11.542969 26.660156 11.4375 26.796875 11.117188 27.710938 C 10.695312 28.914062 10.609375 30.359375 10.9375 30.773438 C 11.265625 31.183594 11.964844 31.117188 12.6875 30.609375 M 13.351562 28.566406 C 13.152344 28.359375 13.238281 27.210938 13.496094 26.566406 C 13.636719 26.214844 13.785156 25.964844 13.824219 26.007812 C 13.863281 26.050781 13.777344 26.382812 13.632812 26.75 C 13.484375 27.113281 13.378906 27.441406 13.390625 27.476562 C 13.40625 27.511719 13.496094 27.699219 13.59375 27.890625 C 13.769531 28.226562 13.78125 28.226562 13.996094 27.917969 C 14.269531 27.53125 14.285156 27.671875 14.03125 28.25 C 13.847656 28.671875 13.570312 28.800781 13.351562 28.570312 M 16.257812 25.609375 C 15.988281 25.398438 15.746094 25.210938 15.714844 25.1875 C 15.613281 25.113281 16.21875 24.273438 16.375 24.273438 C 16.464844 24.273438 16.742188 24.425781 16.996094 24.613281 L 17.453125 24.953125 L 17.773438 24.496094 C 18.089844 24.046875 18.101562 24.042969 18.53125 24.335938 C 19.121094 24.738281 19.199219 25.027344 18.84375 25.515625 L 18.546875 25.925781 L 17.492188 25.089844 L 16.742188 25.996094 L 16.257812 25.613281 M 27.074219 38.582031 C 27.503906 37.9375 27.550781 37.46875 27.167969 37.621094 C 26.945312 37.710938 26.933594 37.671875 27.09375 37.359375 C 27.484375 36.597656 27.929688 37.167969 27.597656 38.003906 C 27.488281 38.277344 27.246094 38.636719 27.058594 38.808594 C 26.726562 39.109375 26.726562 39.101562 27.074219 38.582031 M 29.953125 37.644531 C 29.734375 37.164062 29.488281 36.890625 29.21875 36.824219 C 28.757812 36.714844 28.519531 35.808594 28.953125 35.808594 C 29.207031 35.808594 30.203125 36.894531 30.203125 37.171875 C 30.203125 37.261719 30.277344 37.335938 30.367188 37.335938 C 30.457031 37.335938 30.53125 37.160156 30.53125 36.949219 C 30.53125 36.535156 31.09375 35.46875 31.308594 35.46875 C 31.570312 35.46875 31.835938 35.882812 31.835938 36.289062 C 31.835938 36.695312 31.828125 36.699219 31.503906 36.394531 C 31.082031 35.996094 30.941406 36.148438 30.574219 37.382812 L 30.285156 38.359375 M 12.496094 34.136719 C 12.824219 33.46875 12.824219 33.089844 12.488281 33.089844 C 12.273438 33.089844 12.261719 33.042969 12.425781 32.835938 C 12.65625 32.542969 13.015625 32.503906 13.15625 32.75 C 13.277344 32.949219 12.703125 34.351562 12.429688 34.527344 C 12.308594 34.605469 12.335938 34.449219 12.492188 34.136719 M 16.476562 33.472656 C 16.351562 33.132812 16.351562 32.75 16.480469 32.082031 C 16.578125 31.578125 16.628906 31.128906 16.585938 31.085938 C 16.546875 31.046875 16.253906 31.171875 15.9375 31.363281 C 15.5 31.636719 15.359375 31.664062 15.359375 31.480469 C 15.359375 31.351562 16.035156 30.839844 16.863281 30.339844 C 18.695312 29.238281 18.644531 29.261719 18.519531 29.597656 C 18.464844 29.75 18.109375 30.058594 17.730469 30.292969 C 17.210938 30.609375 16.996094 30.875 16.851562 31.367188 C 16.613281 32.191406 16.613281 32.671875 16.847656 33.128906 C 17.027344 33.476562 17.035156 33.476562 17.257812 33.167969 C 17.519531 32.792969 17.535156 32.898438 17.320312 33.5 C 17.113281 34.070312 16.703125 34.054688 16.476562 33.46875 M 19.359375 32.171875 C 18.921875 31.808594 18.894531 31.730469 19.070312 31.324219 C 19.300781 30.800781 19.539062 30.773438 20.089844 31.210938 C 20.433594 31.488281 20.46875 31.597656 20.328125 32 C 20.117188 32.621094 19.9375 32.652344 19.359375 32.171875 M 21.714844 32.046875 C 21.488281 31.617188 21.636719 30.464844 21.984375 29.863281 L 22.230469 29.4375 L 22.132812 29.863281 C 21.863281 31.003906 21.851562 31.398438 22.058594 31.65625 C 22.253906 31.90625 22.292969 31.902344 22.484375 31.625 C 22.738281 31.265625 22.757812 31.378906 22.539062 31.972656 C 22.351562 32.5 21.964844 32.539062 21.714844 32.046875 M 27.933594 31.539062 C 28.023438 31.363281 28.179688 31.21875 28.277344 31.21875 C 28.378906 31.21875 28.332031 31.070312 28.171875 30.882812 C 27.898438 30.570312 27.894531 30.523438 28.148438 30.125 C 28.507812 29.550781 29.164062 29.125 29.484375 29.25 C 29.878906 29.410156 29.652344 29.785156 29.191406 29.730469 C 28.964844 29.707031 28.6875 29.804688 28.570312 29.953125 C 28.226562 30.382812 28.625 30.617188 29.632812 30.574219 C 30.371094 30.542969 30.507812 30.582031 30.429688 30.792969 C 30.375 30.933594 30.175781 31.050781 29.984375 31.054688 C 29.796875 31.054688 29.214844 31.238281 28.703125 31.457031 C 27.847656 31.824219 27.78125 31.832031 27.933594 31.539062 M 37.023438 29.910156 C 37.054688 28.832031 36.960938 25.917969 36.8125 23.433594 C 36.46875 17.664062 36.453125 16.84375 36.667969 16.617188 C 36.796875 16.488281 37.011719 16.851562 37.441406 17.914062 C 38.050781 19.429688 38.085938 19.921875 37.53125 19.171875 L 37.222656 18.75 L 37.21875 19.429688 C 37.21875 19.800781 37.324219 21.632812 37.457031 23.5 C 37.769531 27.867188 37.765625 29.746094 37.453125 30.84375 C 37.316406 31.324219 37.152344 31.75 37.085938 31.789062 C 37.023438 31.832031 36.996094 30.984375 37.023438 29.910156 M 19.117188 29.746094 C 19.121094 29.667969 19.664062 29.160156 20.328125 28.613281 C 20.992188 28.0625 21.773438 27.355469 22.070312 27.039062 C 22.539062 26.535156 22.582031 26.414062 22.410156 26.128906 C 22.140625 25.683594 22.15625 25.199219 22.449219 24.949219 C 22.78125 24.660156 23.027344 24.875 23.027344 25.453125 C 23.027344 25.71875 23.097656 25.988281 23.1875 26.046875 C 23.484375 26.234375 23.375 26.667969 23.058594 26.566406 C 22.855469 26.5 22.683594 26.621094 22.480469 26.976562 C 22.117188 27.621094 19.101562 30.097656 19.117188 29.75 M 22.78125 25.457031 C 22.726562 25.359375 22.609375 25.28125 22.527344 25.28125 C 22.441406 25.28125 22.375 25.359375 22.375 25.457031 C 22.375 25.546875 22.488281 25.625 22.628906 25.625 C 22.765625 25.625 22.835938 25.546875 22.78125 25.457031 M 29.996094 28.476562 C 30.523438 28.203125 30.449219 27.945312 29.875 28.03125 C 29.328125 28.117188 29.230469 27.925781 29.6875 27.667969 C 30.007812 27.492188 31.179688 27.613281 31.179688 27.824219 C 31.179688 28.058594 30.601562 28.460938 30.117188 28.5625 C 29.671875 28.65625 29.660156 28.648438 29.992188 28.476562 M 9.390625 27.246094 C 9.882812 26.371094 9.898438 26.300781 9.570312 26.300781 C 9.257812 26.300781 9.253906 26.0625 9.5625 25.796875 C 9.851562 25.546875 10.140625 25.703125 10.140625 26.105469 C 10.140625 26.414062 9.242188 27.996094 9.066406 27.996094 C 9.011719 27.996094 9.160156 27.65625 9.390625 27.246094 M 31.527344 27.09375 L 31.164062 26.695312 L 31.515625 26.230469 L 31.867188 25.769531 L 32.640625 26.527344 L 33.058594 26.121094 C 33.496094 25.691406 33.820312 25.761719 34.179688 26.351562 C 34.3125 26.570312 34.269531 26.71875 33.996094 27 L 33.644531 27.363281 L 33.171875 27.011719 L 32.691406 26.65625 L 32.296875 27.078125 L 31.890625 27.496094 M 32.035156 23.816406 C 32.015625 22.914062 31.953125 22.136719 31.902344 22.078125 C 31.847656 22.023438 31.515625 22.152344 31.164062 22.363281 C 30.277344 22.894531 30.355469 22.59375 31.257812 22 C 31.828125 21.625 31.972656 21.4375 31.917969 21.152344 C 31.878906 20.949219 31.804688 19.945312 31.75 18.917969 C 31.695312 17.894531 31.582031 15.957031 31.496094 14.621094 C 31.347656 12.34375 31.394531 11.367188 31.640625 11.371094 C 31.746094 11.375 32.503906 13.148438 32.726562 13.914062 C 32.847656 14.339844 32.847656 14.339844 32.5 14.015625 C 32.308594 13.835938 32.125 13.722656 32.089844 13.761719 C 32.058594 13.800781 32.09375 14.59375 32.167969 15.527344 C 32.246094 16.464844 32.351562 17.949219 32.40625 18.839844 C 32.535156 20.925781 32.5625 21.003906 32.972656 20.613281 C 33.265625 20.34375 33.273438 20.277344 33.050781 20.023438 C 32.910156 19.867188 32.804688 19.628906 32.804688 19.484375 C 32.804688 19.144531 33.390625 18.601562 33.609375 18.742188 C 33.816406 18.878906 33.800781 20.53125 33.59375 20.53125 C 33.507812 20.53125 33.265625 20.742188 33.046875 21.003906 C 32.714844 21.394531 32.648438 21.648438 32.648438 22.601562 C 32.640625 23.71875 32.347656 25.453125 32.164062 25.453125 C 32.113281 25.453125 32.054688 24.71875 32.035156 23.816406 M 33.519531 19.429688 C 33.414062 19.160156 33.132812 19.074219 33.132812 19.316406 C 33.132812 19.496094 33.3125 19.683594 33.480469 19.683594 C 33.550781 19.683594 33.570312 19.570312 33.515625 19.429688 M 38.257812 25.09375 C 37.941406 24.578125 38.441406 22.058594 38.851562 22.058594 C 38.925781 22.058594 38.84375 22.382812 38.671875 22.78125 C 38.316406 23.585938 38.273438 24.054688 38.515625 24.433594 C 38.660156 24.660156 38.695312 24.660156 38.835938 24.433594 C 39.035156 24.105469 39.046875 24.292969 38.84375 24.847656 C 38.675781 25.308594 38.441406 25.40625 38.257812 25.09375 M 27.574219 24 C 27.488281 23.757812 27.421875 23.496094 27.421875 23.410156 C 27.421875 23.128906 28.105469 21.355469 28.1875 21.4375 C 28.226562 21.480469 28.136719 21.894531 27.976562 22.351562 C 27.671875 23.246094 27.753906 23.855469 28.160156 23.691406 C 28.453125 23.578125 28.484375 23.941406 28.207031 24.230469 C 27.914062 24.535156 27.757812 24.480469 27.582031 24 M 23.839844 22.746094 C 23.644531 22.363281 24.023438 20.957031 24.441406 20.53125 C 24.664062 20.304688 24.667969 20.320312 24.488281 20.683594 C 24.113281 21.445312 23.996094 22.105469 24.191406 22.351562 C 24.34375 22.539062 24.402344 22.542969 24.511719 22.363281 C 24.617188 22.195312 24.648438 22.203125 24.648438 22.40625 C 24.652344 22.683594 24.347656 23.078125 24.136719 23.078125 C 24.066406 23.078125 23.933594 22.929688 23.839844 22.746094 M 13.640625 22.5 C 13.390625 22.109375 13.390625 22.003906 13.625 21.175781 C 13.769531 20.679688 13.957031 20.164062 14.046875 20.023438 C 14.261719 19.683594 14.25 19.796875 13.976562 20.730469 C 13.660156 21.828125 13.851562 22.535156 14.335938 22.035156 C 14.472656 21.890625 14.5 21.933594 14.429688 22.199219 C 14.265625 22.851562 13.9375 22.976562 13.640625 22.503906 M 8.992188 21.570312 C 8.992188 21.480469 9.335938 21.203125 9.757812 20.945312 C 10.179688 20.691406 10.839844 20.175781 11.230469 19.800781 C 11.910156 19.148438 11.925781 19.113281 11.652344 18.800781 C 11.394531 18.507812 11.390625 18.433594 11.613281 18.023438 C 11.75 17.773438 11.984375 17.546875 12.140625 17.511719 C 12.359375 17.46875 12.417969 17.582031 12.417969 18.054688 C 12.417969 18.382812 12.492188 18.695312 12.582031 18.753906 C 12.84375 18.925781 12.769531 19.378906 12.488281 19.320312 C 12.347656 19.289062 11.871094 19.625 11.433594 20.0625 C 10.648438 20.851562 8.992188 21.875 8.992188 21.574219 M 12.027344 18.035156 C 11.863281 17.863281 11.726562 18.125 11.863281 18.351562 C 11.964844 18.527344 12.003906 18.527344 12.058594 18.351562 C 12.09375 18.234375 12.082031 18.09375 12.027344 18.035156 M 10.246094 19.234375 C 10.074219 19.058594 10.117188 18.191406 10.296875 18.074219 C 10.390625 18.015625 10.460938 18.164062 10.460938 18.425781 C 10.460938 18.808594 10.5 18.847656 10.707031 18.667969 C 10.839844 18.550781 10.949219 18.53125 10.949219 18.621094 C 10.949219 18.863281 10.371094 19.367188 10.246094 19.234375 M 17.804688 18 C 17.613281 17.515625 16.988281 16.789062 16.988281 17.050781 C 16.988281 17.125 16.875 17.089844 16.742188 16.972656 C 16.414062 16.691406 16.429688 16.125 16.761719 16.125 C 16.90625 16.125 17.265625 16.398438 17.5625 16.734375 L 18.097656 17.34375 L 18.289062 16.398438 C 18.496094 15.34375 18.726562 15.074219 19.039062 15.519531 C 19.289062 15.875 19.15625 16.414062 18.890625 16.136719 C 18.570312 15.800781 18.496094 15.945312 18.382812 17.136719 C 18.257812 18.476562 18.09375 18.71875 17.804688 18 M 27.269531 16.988281 C 27.078125 16.613281 27.234375 15.566406 27.570312 15.007812 C 27.746094 14.71875 27.761719 14.726562 27.644531 15.105469 C 27.417969 15.890625 27.480469 16.550781 27.777344 16.527344 C 27.988281 16.511719 28.023438 16.585938 27.925781 16.855469 C 27.753906 17.34375 27.480469 17.398438 27.269531 16.988281 M 30.226562 16.933594 C 29.976562 16.675781 30 16.023438 30.28125 15.273438 L 30.511719 14.679688 L 30.414062 15.394531 C 30.304688 16.257812 30.453125 16.847656 30.691406 16.457031 C 30.820312 16.246094 30.84375 16.25 30.847656 16.484375 C 30.851562 16.898438 30.460938 17.179688 30.226562 16.933594 M 22.859375 15.105469 C 22.722656 14.84375 22.761719 14.578125 23.035156 13.925781 C 23.226562 13.460938 23.484375 12.992188 23.609375 12.882812 C 23.929688 12.609375 23.894531 12.761719 23.449219 13.578125 C 23.035156 14.335938 23.035156 15.105469 23.449219 14.75 C 23.71875 14.519531 23.738281 14.664062 23.507812 15.117188 C 23.289062 15.535156 23.078125 15.53125 22.859375 15.105469 M 12.851562 14.820312 C 12.65625 14.617188 12.742188 13.570312 12.992188 13.0625 C 13.351562 12.339844 13.4375 12.445312 13.132812 13.238281 C 12.871094 13.921875 12.925781 14.539062 13.234375 14.34375 C 13.324219 14.28125 13.398438 14.308594 13.398438 14.394531 C 13.398438 14.625 12.980469 14.953125 12.851562 14.820312 M 25.996094 9.964844 C 26.675781 9.683594 26.535156 9.449219 25.75 9.558594 L 25.058594 9.652344 L 25.441406 9.324219 C 26.007812 8.847656 27.097656 8.917969 27.097656 9.4375 C 27.097656 9.707031 26.265625 10.195312 25.839844 10.167969 C 25.636719 10.15625 25.683594 10.09375 25.996094 9.964844 M 25.996094 9.964844 "/>
</g>
</svg>
