<!-- color: #808080 -->
<svg xmlns="http://www.w3.org/2000/svg" xmlns:xlink="http://www.w3.org/1999/xlink" width="48px" height="48px" viewBox="0 0 48 48" version="1.1">
<g id="surface1">
<path style=" stroke:none;fill-rule:nonzero;fill:rgb(100%,100%,100%);fill-opacity:1;" d="M 11.199219 12.050781 C 10.695312 12.101562 10.273438 12.574219 10.277344 13.078125 L 10.277344 35.023438 C 10.277344 35.5625 10.765625 36.050781 11.304688 36.050781 L 36.652344 36.050781 C 37.191406 36.050781 37.683594 35.5625 37.683594 35.023438 L 37.683594 13.078125 C 37.683594 12.539062 37.191406 12.050781 36.652344 12.050781 L 11.304688 12.050781 C 11.269531 12.050781 11.234375 12.050781 11.199219 12.050781 M 35.113281 13.753906 C 35.492188 13.753906 35.96875 14.230469 35.96875 14.609375 C 35.96875 14.988281 35.492188 15.464844 35.113281 15.464844 C 34.734375 15.464844 34.257812 14.984375 34.257812 14.609375 C 34.257812 14.230469 34.734375 13.753906 35.113281 13.753906 M 11.992188 16.324219 L 35.972656 16.324219 L 35.972656 34.308594 L 11.992188 34.308594 M 11.992188 16.324219 "/>
<path style=" stroke:none;fill-rule:nonzero;fill:rgb(87.058824%,87.058824%,87.058824%);fill-opacity:1;" d="M 13.03125 14 C 12.492188 14 12 14.355469 12 14.75 L 12 33.3125 C 12.050781 33.679688 12.527344 34.003906 13.03125 34 L 34.96875 34 C 35.507812 34 36 33.644531 36 33.25 L 36 14.75 C 36 14.359375 35.507812 14 34.96875 14 M 16 16 L 34 16 L 34 32 L 16 32 M 15 22 L 15 26 L 13 24 M 15 22 "/>
</g>
</svg>
