<!-- color: #474747 -->
<svg xmlns="http://www.w3.org/2000/svg" xmlns:xlink="http://www.w3.org/1999/xlink" width="48px" height="48px" viewBox="0 0 48 48" version="1.1">
<g id="surface1">
<path style=" stroke:none;fill-rule:nonzero;fill:rgb(49.803922%,80%,15.686275%);fill-opacity:1;" d="M 27.71875 11.652344 C 23.242188 9.066406 23.214844 15.019531 23.214844 15.019531 L 24 24 L 32.167969 20.1875 C 32.167969 20.1875 37.3125 17.1875 32.835938 14.601562 C 31.453125 13.804688 30.4375 13.785156 29.6875 14.144531 C 29.621094 13.320312 29.101562 12.449219 27.71875 11.648438 M 27.71875 11.652344 "/>
<path style=" stroke:none;fill-rule:nonzero;fill:rgb(98.431373%,72.941176%,3.529412%);fill-opacity:1;" d="M 24 24 L 27.8125 32.167969 C 27.8125 32.167969 30.8125 37.3125 33.394531 32.835938 C 34.191406 31.453125 34.207031 30.4375 33.851562 29.6875 C 34.679688 29.621094 35.550781 29.101562 36.351562 27.71875 C 38.933594 23.242188 32.980469 23.214844 32.980469 23.214844 L 24.003906 24 M 24 24 "/>
<path style=" stroke:none;fill-rule:nonzero;fill:rgb(0%,67.058824%,92.941176%);fill-opacity:1;" d="M 24 24 L 15.828125 27.8125 C 15.828125 27.8125 10.6875 30.8125 15.160156 33.394531 C 16.542969 34.191406 17.5625 34.207031 18.308594 33.851562 C 18.375 34.679688 18.894531 35.550781 20.277344 36.351562 C 24.753906 38.933594 24.78125 32.980469 24.78125 32.980469 L 24 24.003906 M 24 24 "/>
<path style=" stroke:none;fill-rule:nonzero;fill:rgb(94.509804%,31.764706%,9.803922%);fill-opacity:1;" d="M 24 24 L 20.1875 15.828125 C 20.1875 15.828125 17.1875 10.6875 14.601562 15.160156 C 13.804688 16.542969 13.789062 17.5625 14.144531 18.308594 C 13.320312 18.375 12.449219 18.894531 11.648438 20.277344 C 9.0625 24.753906 15.015625 24.78125 15.015625 24.78125 L 23.996094 24 M 24 24 "/>
</g>
</svg>
