<!-- color: #4fb215 -->
<svg xmlns="http://www.w3.org/2000/svg" xmlns:xlink="http://www.w3.org/1999/xlink" width="48px" height="48px" viewBox="0 0 48 48" version="1.1">
<g id="surface1">
<path style=" stroke:none;fill-rule:nonzero;fill:rgb(100%,100%,100%);fill-opacity:1;" d="M 29.199219 28.550781 C 29.199219 26.863281 29.199219 21.453125 29.199219 21.453125 L 27.765625 21.453125 L 27.765625 19.085938 C 29.914062 19.085938 29.199219 19.085938 30.273438 15.03125 L 33.136719 15.03125 L 33.136719 19.085938 L 36.003906 19.085938 L 36.003906 21.453125 L 33.136719 21.453125 L 33.136719 27.535156 C 33.136719 28.167969 33.277344 28.640625 33.554688 28.960938 C 33.828125 29.277344 34.195312 29.441406 34.648438 29.441406 C 35.222656 29.492188 36.003906 29.226562 36.003906 29.226562 L 36.003906 31.589844 C 35.933594 31.640625 32.476562 32.632812 30.632812 31.589844 C 28.839844 30.578125 29.199219 28.550781 29.199219 28.550781 M 29.199219 28.550781 "/>
<path style=" stroke:none;fill-rule:nonzero;fill:rgb(100%,100%,100%);fill-opacity:1;" d="M 19.199219 12.011719 C 16.777344 12.011719 14.972656 12.878906 13.78125 14.613281 C 12.59375 16.332031 12 18.820312 12 22.078125 C 12 25.40625 12.59375 27.933594 13.78125 29.683594 C 14.609375 30.902344 15.722656 31.691406 17.113281 32.058594 C 17.113281 32.058594 17.394531 32.046875 17.417969 32.328125 C 17.898438 36.007812 20.332031 36.011719 23.105469 36.011719 C 23.105469 36.011719 23.464844 36.011719 23.464844 35.675781 L 23.464844 33.648438 C 23.464844 33.308594 23.105469 33.308594 23.105469 33.308594 C 21.71875 33.308594 21.359375 33.394531 20.992188 32.082031 C 21.46875 31.972656 21.894531 31.824219 22.308594 31.628906 C 23.222656 31.179688 23.976562 30.527344 24.566406 29.664062 C 25.164062 28.796875 25.601562 27.726562 25.886719 26.453125 C 26.183594 25.183594 26.328125 23.726562 26.328125 22.078125 C 26.328125 18.785156 25.726562 16.28125 24.515625 14.578125 C 23.308594 12.867188 21.53125 12.011719 19.199219 12.011719 M 19.179688 13.660156 C 19.691406 13.660156 20.074219 13.828125 20.402344 14.179688 C 20.59375 14.378906 20.761719 14.636719 20.921875 14.949219 C 21.007812 15.175781 21.097656 15.421875 21.164062 15.699219 C 21.355469 16.445312 21.488281 17.347656 21.566406 18.421875 C 21.644531 19.496094 21.675781 20.714844 21.675781 22.078125 C 21.675781 23.449219 21.644531 24.683594 21.566406 25.773438 C 21.488281 26.859375 21.351562 27.773438 21.164062 28.539062 C 21.09375 28.824219 21.011719 29.085938 20.921875 29.324219 C 20.902344 29.351562 20.894531 29.386719 20.878906 29.417969 C 20.730469 29.691406 20.578125 29.925781 20.402344 30.113281 C 20.078125 30.480469 19.6875 30.652344 19.179688 30.652344 C 18.675781 30.652344 18.28125 30.480469 17.960938 30.113281 C 17.640625 29.738281 17.378906 29.195312 17.1875 28.464844 C 16.996094 27.722656 16.863281 26.820312 16.785156 25.75 C 16.710938 24.671875 16.660156 23.441406 16.660156 22.074219 C 16.660156 20.71875 16.703125 19.511719 16.785156 18.449219 C 16.863281 17.390625 16.996094 16.496094 17.1875 15.777344 C 17.378906 15.058594 17.644531 14.523438 17.960938 14.171875 C 18.28125 13.824219 18.671875 13.652344 19.179688 13.652344 M 19.179688 13.660156 "/>
</g>
</svg>
