<!-- color: #693434 -->
<svg xmlns="http://www.w3.org/2000/svg" xmlns:xlink="http://www.w3.org/1999/xlink" width="48px" height="48px" viewBox="0 0 48 48" version="1.1">
<g id="surface1">
<path style=" stroke:none;fill-rule:nonzero;fill:rgb(97.647059%,97.647059%,97.647059%);fill-opacity:0.301961;" d="M 24.867188 12.246094 L 31.050781 14.664062 L 31.183594 20.175781 L 28.628906 24.34375 L 26.882812 27.839844 L 25.808594 28.78125 L 22.042969 29.183594 L 20.699219 27.03125 L 17.609375 21.789062 L 16.132812 17.890625 L 17.339844 14.664062 L 21.105469 12.785156 M 24.867188 12.246094 "/>
<path style=" stroke:none;fill-rule:nonzero;fill:rgb(91.764706%,89.411765%,89.411765%);fill-opacity:1;" d="M 30.75 18.582031 C 30.75 17.769531 30.546875 17.015625 30.144531 16.316406 C 29.738281 15.617188 29.210938 15.042969 28.5625 14.597656 C 27.910156 14.152344 27.191406 13.800781 26.398438 13.546875 C 25.609375 13.292969 24.808594 13.167969 24 13.167969 C 23.191406 13.167969 22.390625 13.292969 21.601562 13.546875 C 20.808594 13.800781 20.089844 14.152344 19.4375 14.597656 C 18.789062 15.042969 18.261719 15.617188 17.855469 16.316406 C 17.453125 17.015625 17.253906 17.769531 17.253906 18.582031 C 17.253906 19.722656 17.648438 20.738281 18.445312 21.628906 C 18.5625 21.753906 18.742188 21.941406 18.980469 22.1875 C 19.222656 22.4375 19.398438 22.625 19.519531 22.746094 C 21.015625 24.472656 21.84375 26.15625 21.996094 27.796875 L 26.007812 27.796875 C 26.160156 26.160156 26.988281 24.476562 28.488281 22.746094 C 28.605469 22.625 28.78125 22.4375 29.023438 22.1875 C 29.261719 21.941406 29.441406 21.753906 29.558594 21.628906 C 30.355469 20.738281 30.753906 19.722656 30.753906 18.582031 M 33.003906 18.582031 C 33.003906 20.332031 32.398438 21.84375 31.191406 23.121094 C 30.664062 23.671875 30.226562 24.164062 29.878906 24.59375 C 29.53125 25.019531 29.1875 25.558594 28.835938 26.207031 C 28.480469 26.859375 28.28125 27.464844 28.234375 28.027344 C 28.78125 28.34375 29.058594 28.808594 29.058594 29.417969 C 29.058594 29.835938 28.914062 30.195312 28.621094 30.5 C 28.914062 30.804688 29.058594 31.164062 29.058594 31.582031 C 29.058594 32.171875 28.796875 32.628906 28.269531 32.953125 C 28.421875 33.214844 28.5 33.480469 28.5 33.75 C 28.5 34.269531 28.3125 34.667969 27.941406 34.953125 C 27.574219 35.234375 27.125 35.375 26.585938 35.375 C 26.351562 35.871094 26 36.265625 25.527344 36.558594 C 25.054688 36.851562 24.550781 37 24 37 C 23.445312 37 22.9375 36.851562 22.472656 36.558594 C 22 36.265625 21.648438 35.871094 21.417969 35.375 C 20.875 35.375 20.421875 35.234375 20.054688 34.953125 C 19.683594 34.667969 19.5 34.269531 19.5 33.75 C 19.5 33.480469 19.570312 33.214844 19.726562 32.953125 C 19.199219 32.628906 18.933594 32.171875 18.933594 31.582031 C 18.933594 31.164062 19.082031 30.804688 19.375 30.5 C 19.078125 30.195312 18.933594 29.835938 18.933594 29.417969 C 18.933594 28.808594 19.210938 28.34375 19.761719 28.027344 C 19.710938 27.464844 19.515625 26.859375 19.164062 26.207031 C 18.8125 25.558594 18.460938 25.019531 18.117188 24.59375 C 17.769531 24.164062 17.335938 23.671875 16.808594 23.121094 C 15.597656 21.84375 14.996094 20.332031 14.996094 18.582031 C 14.996094 17.464844 15.257812 16.425781 15.777344 15.460938 C 16.300781 14.496094 16.984375 13.695312 17.835938 13.054688 C 18.683594 12.417969 19.644531 11.917969 20.71875 11.550781 C 21.789062 11.183594 22.882812 11 23.996094 11 C 25.109375 11 26.203125 11.183594 27.273438 11.550781 C 28.347656 11.917969 29.308594 12.417969 30.15625 13.054688 C 31.007812 13.695312 31.691406 14.496094 32.214844 15.460938 C 32.734375 16.425781 32.996094 17.460938 32.996094 18.582031 M 32.996094 18.582031 "/>
</g>
</svg>
