<!-- color: #974d7d -->
<svg xmlns="http://www.w3.org/2000/svg" xmlns:xlink="http://www.w3.org/1999/xlink" width="48px" height="48px" viewBox="0 0 48 48" version="1.1">
<g id="surface1">
<path style=" stroke:none;fill-rule:nonzero;fill:rgb(97.647059%,97.647059%,97.647059%);fill-opacity:1;" d="M 35.328125 24.765625 C 34.746094 24.101562 34.058594 23.566406 33.304688 23.175781 C 33.894531 20.789062 33.847656 17.679688 32.148438 15.21875 C 32.339844 14.6875 32.222656 14.074219 31.792969 13.65625 C 29.972656 11.894531 27.289062 11 24.003906 11 C 20.71875 11 18.035156 11.894531 16.214844 13.65625 C 15.785156 14.074219 15.664062 14.6875 15.859375 15.21875 C 14.160156 17.679688 14.117188 20.789062 14.703125 23.179688 C 13.9375 23.566406 13.25 24.101562 12.671875 24.765625 C 11.480469 26.128906 10.894531 27.878906 11.019531 29.683594 C 11.261719 33.226562 14.226562 36 17.769531 36 C 17.925781 36 18.082031 35.996094 18.238281 35.984375 C 18.472656 35.96875 18.6875 35.859375 18.84375 35.683594 C 18.996094 35.507812 19.074219 35.277344 19.058594 35.042969 L 18.253906 23.277344 C 18.21875 22.789062 17.796875 22.425781 17.3125 22.457031 C 16.996094 22.480469 16.683594 22.53125 16.375 22.59375 C 15.941406 20.664062 15.980469 18.105469 17.335938 16.171875 C 17.667969 16.148438 17.996094 16.019531 18.253906 15.769531 C 19.507812 14.554688 21.503906 13.9375 24 13.9375 C 26.496094 13.9375 28.492188 14.554688 29.746094 15.769531 C 30.007812 16.019531 30.332031 16.148438 30.664062 16.171875 C 32.023438 18.105469 32.0625 20.664062 31.625 22.59375 C 31.320312 22.53125 31.007812 22.480469 30.691406 22.457031 C 30.207031 22.425781 29.785156 22.789062 29.75 23.277344 L 28.945312 35.042969 C 28.929688 35.277344 29.007812 35.507812 29.160156 35.683594 C 29.3125 35.859375 29.53125 35.96875 29.765625 35.984375 C 29.921875 35.996094 30.078125 36 30.234375 36 C 33.777344 36 36.742188 33.226562 36.984375 29.683594 C 37.109375 27.878906 36.523438 26.128906 35.332031 24.765625 M 35.335938 24.765625 "/>
<path style=" stroke:none;fill-rule:nonzero;fill:rgb(97.647059%,97.647059%,97.647059%);fill-opacity:1;" d="M 19.707031 23.03125 C 19.222656 23.0625 18.855469 23.484375 18.890625 23.96875 L 19.617188 34.589844 C 19.648438 35.058594 20.035156 35.414062 20.496094 35.414062 C 20.515625 35.414062 20.535156 35.410156 20.554688 35.410156 C 21.042969 35.378906 21.40625 34.957031 21.375 34.46875 L 20.648438 23.847656 C 20.613281 23.363281 20.191406 23 19.707031 23.03125 M 19.707031 23.03125 "/>
<path style=" stroke:none;fill-rule:nonzero;fill:rgb(97.647059%,97.647059%,97.647059%);fill-opacity:1;" d="M 28.289062 23.03125 C 27.8125 23 27.382812 23.363281 27.351562 23.847656 L 26.625 34.46875 C 26.589844 34.949219 26.957031 35.378906 27.441406 35.40625 C 27.464844 35.410156 27.484375 35.410156 27.503906 35.410156 C 27.964844 35.410156 28.351562 35.058594 28.382812 34.589844 L 29.109375 23.96875 C 29.140625 23.484375 28.777344 23.0625 28.289062 23.027344 M 28.289062 23.027344 "/>
</g>
</svg>
