<!-- color: #ac1917 -->
<svg xmlns="http://www.w3.org/2000/svg" xmlns:xlink="http://www.w3.org/1999/xlink" width="48px" height="48px" viewBox="0 0 48 48" version="1.1">
<g id="surface1">
<path style=" stroke:none;fill-rule:nonzero;fill:rgb(97.647059%,97.647059%,97.647059%);fill-opacity:1;" d="M 34.421875 33.785156 C 35.019531 33.609375 35.484375 33.234375 35.769531 32.71875 C 36.003906 32.296875 36.015625 32.230469 35.992188 31.675781 C 35.960938 30.890625 35.753906 30.488281 34.574219 28.953125 C 33.082031 26.996094 32.578125 26.320312 32.578125 26.265625 C 32.578125 26.238281 32.828125 26.023438 33.136719 25.789062 C 34.269531 24.921875 35.210938 23.53125 35.605469 22.136719 C 35.777344 21.542969 35.804688 21.296875 35.804688 20.402344 C 35.808594 19.171875 35.660156 18.484375 35.183594 17.539062 C 34.414062 16.003906 32.984375 14.886719 31.132812 14.363281 C 30.539062 14.199219 29.726562 14.054688 29.386719 14.050781 L 29.222656 14.050781 L 29.222656 18.605469 L 29.582031 18.757812 C 30.085938 18.972656 30.46875 19.339844 30.738281 19.875 C 30.9375 20.269531 30.96875 20.410156 30.96875 20.917969 C 30.972656 21.425781 30.945312 21.566406 30.765625 21.898438 C 30.484375 22.433594 29.992188 22.871094 29.027344 23.457031 C 28.09375 24.019531 27.722656 24.382812 27.496094 24.941406 C 27.195312 25.679688 27.320312 26.828125 27.78125 27.585938 C 27.890625 27.753906 28.699219 28.863281 29.589844 30.046875 C 30.480469 31.230469 31.332031 32.386719 31.484375 32.617188 C 31.964844 33.3125 32.394531 33.679688 32.945312 33.835938 C 33.273438 33.925781 34.035156 33.902344 34.425781 33.789062 M 34.429688 33.785156 "/>
<path style=" stroke:none;fill-rule:nonzero;fill:rgb(97.647059%,97.647059%,97.647059%);fill-opacity:1;" d="M 16.921875 34 L 16.921875 26.878906 C 16.921875 20.3125 16.921875 20.289062 17.082031 19.890625 C 17.425781 19.035156 18.328125 18.507812 19.347656 18.566406 C 20.621094 18.628906 21.421875 19.507812 21.472656 20.167969 L 21.472656 33.988281 C 21.203125 33.988281 26.402344 33.988281 26.386719 33.988281 L 26.410156 26.824219 L 26.429688 20.179688 L 26.613281 19.832031 C 26.859375 19.367188 27.402344 18.875 27.828125 18.722656 L 28.179688 18.597656 L 28.179688 13.992188 L 27.722656 14.050781 C 26.609375 14.191406 25.300781 14.691406 24.402344 15.316406 L 23.941406 15.636719 L 23.472656 15.304688 C 21.234375 13.734375 18.164062 13.554688 15.691406 14.839844 C 14.28125 15.578125 13.050781 16.894531 12.488281 18.265625 C 12.027344 19.410156 12.050781 18.964844 12.023438 26.589844 L 11.996094 33.988281 M 16.929688 34 "/>
</g>
</svg>
