<!-- color: #e9ece8 -->
<svg xmlns="http://www.w3.org/2000/svg" xmlns:xlink="http://www.w3.org/1999/xlink" width="48px" height="48px" viewBox="0 0 48 48" version="1.1">
<g id="surface1">
<path style=" stroke:none;fill-rule:nonzero;fill:rgb(87.45098%,49.803922%,9.803922%);fill-opacity:1;" d="M 12 11.996094 L 14 11.996094 L 14 35.996094 L 12 35.996094 M 12 11.996094 "/>
<path style=" stroke:none;fill-rule:nonzero;fill:rgb(87.45098%,49.803922%,9.803922%);fill-opacity:1;" d="M 34 11.996094 L 36 11.996094 L 36 35.996094 L 34 35.996094 M 34 11.996094 "/>
<path style=" stroke:none;fill-rule:nonzero;fill:rgb(87.45098%,49.803922%,9.803922%);fill-opacity:1;" d="M 13 11.996094 L 18 11.996094 C 18.550781 11.996094 19 12.445312 19 12.996094 C 19 13.550781 18.550781 13.996094 18 13.996094 L 13 13.996094 C 12.449219 13.996094 12 13.550781 12 12.996094 C 12 12.445312 12.449219 11.996094 13 11.996094 M 13 11.996094 "/>
<path style=" stroke:none;fill-rule:nonzero;fill:rgb(87.45098%,49.803922%,9.803922%);fill-opacity:1;" d="M 13 33.996094 L 18 33.996094 C 18.550781 33.996094 19 34.445312 19 34.996094 C 19 35.550781 18.550781 35.996094 18 35.996094 L 13 35.996094 C 12.449219 35.996094 12 35.550781 12 34.996094 C 12 34.445312 12.449219 33.996094 13 33.996094 M 13 33.996094 "/>
<path style=" stroke:none;fill-rule:nonzero;fill:rgb(87.45098%,49.803922%,9.803922%);fill-opacity:1;" d="M 35 33.996094 L 30 33.996094 C 29.449219 33.996094 29 34.445312 29 34.996094 C 29 35.550781 29.449219 35.996094 30 35.996094 L 35 35.996094 C 35.550781 35.996094 36 35.550781 36 34.996094 C 36 34.445312 35.550781 33.996094 35 33.996094 M 35 33.996094 "/>
<path style=" stroke:none;fill-rule:nonzero;fill:rgb(87.45098%,49.803922%,9.803922%);fill-opacity:1;" d="M 35 11.996094 L 30 11.996094 C 29.449219 11.996094 29 12.445312 29 12.996094 C 29 13.550781 29.449219 13.996094 30 13.996094 L 35 13.996094 C 35.550781 13.996094 36 13.550781 36 12.996094 C 36 12.445312 35.550781 11.996094 35 11.996094 M 35 11.996094 "/>
</g>
</svg>
