<!-- color: #cccdb6 --><svg xmlns="http://www.w3.org/2000/svg" viewBox="0 0 48 48"><g><path d="m 36.602 19.898 c 0 4.699 -3.805 8.504 -8.5 8.504 c -4.699 0 -8.504 -3.805 -8.5 -8.504 c -0.004 -4.695 3.801 -8.504 8.5 -8.504 c 4.695 0 8.5 3.809 8.5 8.504 m 0 0" fill="#82c3ec" stroke="none" fill-rule="nonzero" fill-opacity="1"/><path d="m 28.09 10.898 c -2.309 0 -4.598 0.887 -6.352 2.641 c -3.512 3.508 -3.512 9.223 0 12.73 c 3.508 3.508 9.223 3.508 12.734 0 c 3.508 -3.508 3.508 -9.223 0 -12.73 c -1.758 -1.754 -4.078 -2.641 -6.383 -2.641 m 0 1.48 c 1.922 0 3.84 0.727 5.313 2.199 c 2.941 2.941 2.941 7.68 0 10.621 c -2.945 2.941 -7.684 2.941 -10.629 0 c -2.941 -2.941 -2.941 -7.68 0 -10.621 c 1.473 -1.473 3.391 -2.199 5.316 -2.199 m 0 0" fill="#e6e6e6" stroke="none" fill-rule="nonzero" fill-opacity="1"/><path d="m 17.879 32.27 l -2.145 -2.145 l -4.734 4.734 l 2.145 2.145 m 4.734 -4.734" fill="#3f525b" stroke="none" fill-rule="nonzero" fill-opacity="1"/><path d="m 22.422 27.07 l -1.504 -1.504 l -4.734 4.734 l 1.504 1.504 m 4.734 -4.734" fill="#d24c37" stroke="none" fill-rule="nonzero" fill-opacity="1"/><path d="m 33 22 c 0 1.656 -1.344 3 -3 3 c -1.656 0 -3 -1.344 -3 -3 c 0 -1.656 1.344 -3 3 -3 c 1.656 0 3 1.344 3 3 m 0 0" fill="#b9def8" stroke="none" fill-rule="nonzero" fill-opacity="1"/><path d="m 31 17 c 0 0.551 -0.449 1 -1 1 c -0.551 0 -1 -0.449 -1 -1 c 0 -0.551 0.449 -1 1 -1 c 0.551 0 1 0.449 1 1 m 0 0" fill="#b9def8" stroke="none" fill-rule="nonzero" fill-opacity="1"/></g></svg>