<!-- color: #eeeeee -->
<svg xmlns="http://www.w3.org/2000/svg" xmlns:xlink="http://www.w3.org/1999/xlink" width="48px" height="48px" viewBox="0 0 48 48" version="1.1">
<defs>
<linearGradient id="linear0" gradientUnits="userSpaceOnUse" x1="19.54" y1="0" x2="26.06" y2="0" gradientTransform="matrix(2.109118,0,0,2.14076,-18.761917,-596.802139)">
<stop offset="0" style="stop-color:rgb(21.176471%,61.960784%,81.568627%);stop-opacity:1;"/>
<stop offset="1" style="stop-color:rgb(6.666667%,41.176471%,58.823529%);stop-opacity:1;"/>
</linearGradient>
<linearGradient id="linear1" gradientUnits="userSpaceOnUse" x1="18.15" y1="0" x2="26.439" y2="0" gradientTransform="matrix(2.109118,0,0,2.14076,-18.761917,-596.802139)">
<stop offset="0" style="stop-color:rgb(21.176471%,61.960784%,81.568627%);stop-opacity:1;"/>
<stop offset="1" style="stop-color:rgb(6.666667%,41.176471%,58.823529%);stop-opacity:1;"/>
</linearGradient>
<linearGradient id="linear2" gradientUnits="userSpaceOnUse" x1="15.448" y1="0" x2="18.59" y2="0" gradientTransform="matrix(2.109118,0,0,2.14076,-18.761917,-596.802139)">
<stop offset="0" style="stop-color:rgb(47.058824%,47.058824%,47.058824%);stop-opacity:1;"/>
<stop offset="1" style="stop-color:rgb(61.176471%,61.176471%,61.176471%);stop-opacity:1;"/>
</linearGradient>
<linearGradient id="linear3" gradientUnits="userSpaceOnUse" x1="14.11" y1="0" x2="19.854" y2="0" gradientTransform="matrix(2.109118,0,0,2.14076,-18.761917,-596.802139)">
<stop offset="0" style="stop-color:rgb(47.058824%,47.058824%,47.058824%);stop-opacity:1;"/>
<stop offset="1" style="stop-color:rgb(61.176471%,61.176471%,61.176471%);stop-opacity:1;"/>
</linearGradient>
<linearGradient id="linear4" gradientUnits="userSpaceOnUse" x1="15.259" y1="0" x2="21.51" y2="0" gradientTransform="matrix(2.109118,0,0,2.14076,-18.761917,-596.802139)">
<stop offset="0" style="stop-color:rgb(21.176471%,61.960784%,81.568627%);stop-opacity:1;"/>
<stop offset="1" style="stop-color:rgb(6.666667%,41.176471%,58.823529%);stop-opacity:1;"/>
</linearGradient>
<linearGradient id="linear5" gradientUnits="userSpaceOnUse" x1="19.678" y1="0" x2="23.508" y2="0" gradientTransform="matrix(2.109118,0,0,2.14076,-18.761917,-596.802139)">
<stop offset="0" style="stop-color:rgb(21.176471%,61.960784%,81.568627%);stop-opacity:1;"/>
<stop offset="1" style="stop-color:rgb(6.666667%,41.176471%,58.823529%);stop-opacity:1;"/>
</linearGradient>
<linearGradient id="linear6" gradientUnits="userSpaceOnUse" x1="21.358" y1="0" x2="25.532" y2="0" gradientTransform="matrix(2.109118,0,0,2.14076,-18.761917,-596.802139)">
<stop offset="0" style="stop-color:rgb(21.176471%,61.960784%,81.568627%);stop-opacity:1;"/>
<stop offset="1" style="stop-color:rgb(6.666667%,41.176471%,58.823529%);stop-opacity:1;"/>
</linearGradient>
</defs>
<g id="surface1">
<path style=" stroke:none;fill-rule:nonzero;fill:url(#linear0);" d="M 29.433594 17.402344 C 26.679688 17.601562 21.835938 22.308594 22.515625 22.28125 C 28.148438 22.085938 31.667969 22.410156 36.0625 23.78125 C 36.714844 23.984375 35.359375 17.863281 29.433594 17.402344 M 29.433594 17.402344 "/>
<path style=" stroke:none;fill-rule:nonzero;fill:url(#linear1);" d="M 21.050781 13.527344 C 19.484375 15.8125 19.285156 24.753906 19.691406 24.203125 C 23.023438 19.664062 31.011719 14.058594 35.78125 11.804688 C 41.667969 9.011719 24.542969 9.355469 21.054688 13.527344 M 21.054688 13.527344 "/>
<path style=" stroke:none;fill-rule:nonzero;fill:url(#linear2);" d="M 13.960938 23.269531 C 14.863281 25.890625 20.640625 29.375 20.441406 28.71875 C 18.800781 23.308594 18.207031 19.808594 18.390625 15.195312 C 18.417969 14.511719 12.875 17.402344 13.960938 23.265625 M 13.960938 23.265625 "/>
<path style=" stroke:none;fill-rule:nonzero;fill:url(#linear3);" d="M 14.714844 31.875 C 17.273438 32.921875 23.691406 30.859375 23.070312 30.574219 C 17.933594 28.25 14.921875 26.390625 11.585938 23.210938 C 11.09375 22.738281 9.605469 28.828125 14.714844 31.875 M 14.714844 31.875 "/>
<path style=" stroke:none;fill-rule:nonzero;fill:url(#linear4);" d="M 22.121094 36.777344 C 24.566406 35.488281 27.128906 29.234375 26.519531 29.527344 C 21.433594 31.96875 18.078125 33.085938 13.496094 33.589844 C 12.820312 33.667969 16.496094 38.734375 22.113281 36.777344 M 22.113281 36.777344 "/>
<path style=" stroke:none;fill-rule:nonzero;fill:url(#linear5);" d="M 30.742188 34.121094 C 31.339844 31.414062 28.234375 25.410156 28.066406 26.070312 C 26.640625 31.542969 25.324219 34.835938 22.761719 38.671875 C 22.378906 39.238281 28.609375 39.6875 30.742188 34.117188 M 30.742188 34.117188 "/>
<path style=" stroke:none;fill-rule:nonzero;fill:url(#linear6);" d="M 34.128906 25.601562 C 32.46875 23.386719 25.90625 21.855469 26.296875 22.417969 C 29.515625 27.058594 31.152344 30.203125 32.390625 34.652344 C 32.574219 35.3125 36.960938 30.847656 34.128906 25.601562 M 34.128906 25.601562 "/>
</g>
</svg>
