<!-- color: #eaebe1 -->
<svg xmlns="http://www.w3.org/2000/svg" xmlns:xlink="http://www.w3.org/1999/xlink" width="48px" height="48px" viewBox="0 0 48 48" version="1.1">
<defs>
<linearGradient id="linear0" gradientUnits="userSpaceOnUse" x1="0" y1="34" x2="0" y2="19" gradientTransform="matrix(1,0,0,1.090909,0.00000295276,-3.090906)">
<stop offset="0" style="stop-color:rgb(0%,0%,0%);stop-opacity:0.0588235;"/>
<stop offset="1" style="stop-color:rgb(0%,0%,0%);stop-opacity:0;"/>
</linearGradient>
</defs>
<g id="surface1">
<path style=" stroke:none;fill-rule:nonzero;fill:rgb(63.137255%,48.627451%,35.686275%);fill-opacity:1;" d="M 9 15 L 39 15 L 39 24.996094 L 9 24.996094 M 9 15 "/>
<path style=" stroke:none;fill-rule:nonzero;fill:rgb(76.078431%,60.392157%,41.568627%);fill-opacity:1;" d="M 9 15 L 12 18 L 11.335938 21 L 9 22 M 9 15 "/>
<path style=" stroke:none;fill-rule:nonzero;fill:rgb(81.960784%,69.019608%,57.254902%);fill-opacity:1;" d="M 8 23 L 12 23 L 12 22.285156 C 12 21.09375 12 15.792969 12 17.996094 L 8 21.996094 M 8 22.996094 "/>
<path style=" stroke:none;fill-rule:nonzero;fill:rgb(76.078431%,60.392157%,41.568627%);fill-opacity:1;" d="M 39.011719 15 L 36.011719 18 L 36.675781 21 L 39.011719 22 M 39.011719 15 "/>
<path style=" stroke:none;fill-rule:nonzero;fill:rgb(81.960784%,69.019608%,57.254902%);fill-opacity:1;" d="M 40 23 L 36 23 L 36 22.285156 C 36 21.09375 36 15.792969 36 17.996094 L 40 21.925781 M 40 23 "/>
<path style=" stroke:none;fill-rule:nonzero;fill:rgb(76.078431%,60.392157%,41.568627%);fill-opacity:1;" d="M 8 34 L 8 48 L 40 48 L 40 34 M 8 34 "/>
<path style=" stroke:none;fill-rule:nonzero;fill:rgb(76.078431%,60.392157%,41.568627%);fill-opacity:1;" d="M 8 22 L 8 46 L 40 46 L 40 22 M 8 22 "/>
<path style=" stroke:none;fill-rule:nonzero;fill:rgb(0%,0%,0%);fill-opacity:0.25098;" d="M 16.886719 28.382812 C 16.886719 29.210938 16.214844 29.882812 15.386719 29.882812 C 14.558594 29.882812 13.886719 29.210938 13.886719 28.382812 C 13.886719 27.554688 14.558594 26.882812 15.386719 26.882812 C 16.214844 26.882812 16.886719 27.554688 16.886719 28.382812 M 16.886719 28.382812 "/>
<path style=" stroke:none;fill-rule:nonzero;fill:rgb(0%,0%,0%);fill-opacity:0.25098;" d="M 35.050781 28.488281 C 35.050781 29.316406 34.378906 29.988281 33.550781 29.988281 C 32.722656 29.988281 32.050781 29.316406 32.050781 28.488281 C 32.050781 27.660156 32.722656 26.988281 33.550781 26.988281 C 34.378906 26.988281 35.050781 27.660156 35.050781 28.488281 M 35.050781 28.488281 "/>
<path style=" stroke:none;fill-rule:nonzero;fill:rgb(100%,100%,100%);fill-opacity:1;" d="M 15 29 C 18 45 31 45 33.996094 29 C 34.207031 27.65625 33.285156 27.628906 33 29 C 31 43.578125 18 43.5 16 29 C 15.816406 27.683594 14.820312 27.738281 15.003906 29 M 15.003906 29 "/>
<path style=" stroke:none;fill-rule:nonzero;fill:url(#linear0);" d="M 8 22 L 8 34 L 39.996094 34 L 39.996094 22 M 8 22 "/>
</g>
</svg>
