<!-- color: #86b4c9 -->
<svg xmlns="http://www.w3.org/2000/svg" xmlns:xlink="http://www.w3.org/1999/xlink" width="48px" height="48px" viewBox="0 0 48 48" version="1.1">
<g id="surface1">
<path style=" stroke:none;fill-rule:nonzero;fill:rgb(97.647059%,97.647059%,97.647059%);fill-opacity:1;" d="M 21.078125 12.175781 C 19.203125 12.390625 16.371094 12.554688 14.648438 12.554688 C 13.136719 12.554688 13.050781 12.59375 13.128906 13.335938 C 13.179688 13.933594 13.335938 14.0625 13.980469 14.0625 C 14.527344 14.0625 14.960938 14.242188 15.113281 14.554688 C 15.339844 14.980469 15.46875 16.472656 15.570312 19.734375 C 15.742188 25.128906 15.578125 32.824219 15.277344 33.804688 C 15.152344 34.199219 14.664062 34.4375 13.785156 34.53125 C 13.433594 34.570312 13.117188 34.644531 13.089844 34.699219 C 12.945312 34.898438 13.007812 35.765625 13.15625 35.890625 C 13.265625 35.992188 14.03125 36.015625 16.734375 35.992188 C 18.632812 35.976562 21.453125 35.953125 23.007812 35.945312 C 25.953125 35.929688 26.289062 35.890625 28.050781 35.417969 C 31.535156 34.5 34.527344 32.058594 35.960938 28.949219 C 36.679688 27.402344 37.011719 25.8125 37.011719 23.941406 C 37.011719 20.238281 35.550781 17.1875 32.722656 14.976562 C 30.6875 13.378906 28.023438 12.371094 25.164062 12.085938 C 23.847656 11.949219 22.925781 11.980469 21.089844 12.183594 M 26.828125 12.734375 C 30.101562 13.433594 33.226562 15.390625 34.617188 17.609375 C 34.746094 17.820312 34.890625 18.019531 34.949219 18.054688 C 34.992188 18.09375 35.015625 18.136719 34.992188 18.160156 C 34.96875 18.183594 34.847656 18.128906 34.726562 18.015625 C 34.609375 17.921875 34.554688 17.835938 34.589844 17.835938 C 34.636719 17.835938 34.480469 17.734375 34.238281 17.609375 C 34.003906 17.484375 33.734375 17.316406 33.652344 17.230469 C 33.578125 17.144531 33.363281 16.957031 33.179688 16.816406 C 32.988281 16.675781 32.675781 16.402344 32.476562 16.210938 C 32.277344 16.011719 32.066406 15.851562 32.003906 15.851562 C 31.949219 15.851562 31.886719 15.8125 31.863281 15.765625 C 31.765625 15.5 29.074219 13.886719 28.121094 13.539062 C 26.101562 12.785156 25.25 12.613281 23.351562 12.613281 C 21.222656 12.613281 19.609375 12.90625 18.242188 13.539062 C 17.765625 13.753906 17.601562 13.78125 17.007812 13.753906 C 16.550781 13.726562 16.195312 13.652344 15.941406 13.515625 C 15.722656 13.402344 15.347656 13.261719 15.09375 13.195312 C 14.4375 13.023438 14.695312 12.925781 15.835938 12.925781 C 17.121094 12.925781 19.722656 12.757812 21.027344 12.597656 C 22.566406 12.40625 25.625 12.472656 26.820312 12.726562 M 25.519531 13.910156 C 29.214844 14.804688 32.058594 17.613281 32.992188 21.289062 C 33.183594 22.035156 33.210938 22.355469 33.210938 23.9375 C 33.210938 25.914062 33.101562 26.660156 32.597656 28.144531 C 32.085938 29.648438 31.566406 30.539062 30.664062 31.535156 C 29.488281 32.8125 28.183594 33.617188 26.539062 34.070312 C 25.699219 34.308594 25.496094 34.3125 23.628906 34.324219 C 21.492188 34.335938 21.3125 34.308594 19.378906 33.65625 L 18.960938 33.523438 L 18.894531 32.945312 C 18.75 31.433594 18.90625 15.542969 19.078125 14.703125 C 19.144531 14.390625 19.390625 14.265625 20.535156 13.976562 C 21.949219 13.605469 24.121094 13.578125 25.519531 13.914062 M 29.972656 32.957031 C 29.972656 33.171875 28.128906 34.164062 27.191406 34.460938 C 25.550781 34.96875 22.96875 35.082031 20.558594 34.753906 C 19.300781 34.574219 18.769531 34.425781 18.460938 34.128906 C 18.175781 33.863281 18.449219 33.816406 19.109375 34.015625 C 21.5625 34.765625 21.710938 34.792969 23.5 34.800781 C 25.769531 34.808594 26.9375 34.574219 28.519531 33.777344 C 29.269531 33.398438 29.394531 33.324219 29.652344 33.089844 C 29.726562 33.019531 29.800781 33.003906 29.835938 33.03125 C 29.859375 33.070312 29.886719 33.042969 29.886719 32.984375 C 29.886719 32.917969 29.90625 32.871094 29.933594 32.871094 C 29.960938 32.871094 29.980469 32.910156 29.980469 32.957031 M 29.980469 32.957031 "/>
</g>
</svg>
