<!-- color: #d46d38 -->
<svg xmlns="http://www.w3.org/2000/svg" xmlns:xlink="http://www.w3.org/1999/xlink" width="48px" height="48px" viewBox="0 0 48 48" version="1.1">
<g id="surface1">
<path style=" stroke:none;fill-rule:nonzero;fill:rgb(17.647059%,17.647059%,17.647059%);fill-opacity:1;" d="M 16.5 12 C 16.5 12 15.453125 13.769531 15.003906 18 L 16.5 21 L 22.5 22.5 L 22.5 30 C 20.164062 31.1875 19.007812 30.996094 16.5 30 L 15.003906 33 C 17.566406 33.675781 20.042969 32.648438 22.503906 33 C 22.503906 33.527344 22.269531 36 24.003906 36 C 25.5 36 25.5 33.53125 25.5 33 C 25.5 32.84375 25.558594 32.144531 25.5 31.5 C 27.519531 30.699219 30.410156 30.816406 31.5 31.21875 L 31.5 28.503906 C 30.855469 27.28125 26.875 28.015625 25.5 28.503906 L 25.5 22.503906 L 31.5 21.003906 C 32.398438 18.890625 33 18.003906 33 18.003906 C 32.546875 13.769531 31.5 12.003906 31.5 12.003906 L 16.5 12.003906 M 16.5 11.996094 "/>
</g>
</svg>
