<!-- color: #c01800 -->
<svg xmlns="http://www.w3.org/2000/svg" xmlns:xlink="http://www.w3.org/1999/xlink" width="48px" height="48px" viewBox="0 0 48 48" version="1.1">
<g id="surface1">
<path style=" stroke:none;fill-rule:nonzero;fill:rgb(0%,0%,0%);fill-opacity:1;" d="M 30.464844 22.296875 C 32.398438 22.328125 30.769531 22.253906 35.464844 22.554688 C 36.253906 22.074219 36.808594 20.203125 35.414062 18.359375 C 33.882812 16.300781 31.414062 17.1875 30.414062 18.742188 C 29.558594 20.488281 30.144531 21.378906 30.464844 22.285156 M 30.464844 22.296875 "/>
<path style=" stroke:none;fill-rule:nonzero;fill:rgb(0%,0%,0%);fill-opacity:1;" d="M 11.933594 22.671875 C 13.921875 22.496094 13.914062 22.476562 17.445312 22.214844 C 17.828125 21.222656 18.175781 20.628906 16.78125 18.78125 C 15.246094 16.722656 12.78125 17.609375 11.78125 19.164062 C 10.925781 20.910156 11.15625 22.007812 11.933594 22.671875 M 11.933594 22.671875 "/>
<path style=" stroke:none;fill-rule:nonzero;fill:rgb(58.431373%,18.823529%,31.764706%);fill-opacity:1;" d="M 11.796875 22.765625 L 11.796875 22.828125 C 11.773438 22.90625 11.773438 22.992188 11.796875 23.070312 C 11.820312 23.167969 11.875 23.246094 11.933594 23.324219 C 12.152344 23.59375 12.488281 23.761719 12.832031 23.800781 C 13.179688 23.839844 13.535156 23.757812 13.84375 23.589844 C 14.113281 23.445312 14.347656 23.242188 14.617188 23.09375 C 14.878906 22.957031 15.160156 22.882812 15.460938 22.863281 C 15.890625 22.84375 16.320312 22.953125 16.757812 22.90625 C 16.972656 22.886719 17.183594 22.824219 17.359375 22.695312 C 17.445312 22.632812 17.523438 22.554688 17.578125 22.46875 C 17.640625 22.367188 17.675781 22.269531 17.683594 22.15625 C 17.695312 22.023438 17.660156 21.894531 17.605469 21.773438 C 17.550781 21.65625 17.464844 21.550781 17.371094 21.460938 C 17.179688 21.277344 16.949219 21.144531 16.730469 20.996094 C 16.613281 20.914062 16.492188 20.824219 16.347656 20.78125 C 16.179688 20.730469 15.992188 20.765625 15.8125 20.742188 C 15.621094 20.722656 15.449219 20.644531 15.269531 20.59375 C 14.902344 20.484375 14.511719 20.476562 14.132812 20.546875 C 13.757812 20.613281 13.402344 20.769531 13.078125 20.976562 C 12.769531 21.171875 12.484375 21.429688 12.34375 21.761719 C 12.316406 21.828125 12.296875 21.898438 12.265625 21.964844 C 12.15625 22.257812 11.992188 22.527344 11.796875 22.765625 "/>
<path style=" stroke:none;fill-rule:nonzero;fill:rgb(87.058824%,100%,100%);fill-opacity:1;" d="M 13.71875 18.679688 C 13.71875 18.925781 13.457031 19.128906 13.132812 19.128906 C 12.808594 19.128906 12.546875 18.925781 12.546875 18.679688 C 12.546875 18.433594 12.808594 18.230469 13.132812 18.230469 C 13.457031 18.230469 13.71875 18.433594 13.71875 18.679688 M 13.71875 18.679688 "/>
<path style=" stroke:none;fill-rule:nonzero;fill:rgb(87.058824%,100%,100%);fill-opacity:1;" d="M 32.230469 18.898438 C 32.230469 19.148438 31.96875 19.347656 31.644531 19.347656 C 31.324219 19.347656 31.0625 19.148438 31.0625 18.898438 C 31.0625 18.652344 31.324219 18.449219 31.644531 18.449219 C 31.96875 18.449219 32.230469 18.652344 32.230469 18.898438 M 32.230469 18.898438 "/>
<path style=" stroke:none;fill-rule:nonzero;fill:rgb(63.921569%,7.058824%,0%);fill-opacity:1;" d="M 30.070312 31.011719 C 30.070312 31.558594 27.367188 32.003906 24.03125 32.003906 C 20.695312 32.003906 17.988281 31.558594 17.988281 31.011719 C 17.988281 30.460938 20.6875 30.015625 24.03125 30.015625 C 27.363281 30.015625 30.070312 30.460938 30.070312 31.011719 M 30.070312 31.011719 "/>
<path style=" stroke:none;fill-rule:nonzero;fill:rgb(55.686275%,5.882353%,0%);fill-opacity:1;" d="M 28.824219 31.011719 C 28.824219 31.4375 26.847656 31.78125 24.414062 31.78125 C 21.980469 31.78125 20.007812 31.433594 20.007812 31.011719 C 20.007812 30.574219 21.980469 30.234375 24.414062 30.234375 C 26.847656 30.234375 28.824219 30.582031 28.824219 31.011719 M 28.824219 31.011719 "/>
<path style=" stroke:none;fill-rule:nonzero;fill:rgb(40%,3.137255%,0%);fill-opacity:1;" d="M 26.773438 31.011719 C 26.773438 31.238281 25.71875 31.425781 24.414062 31.425781 C 23.109375 31.425781 22.054688 31.234375 22.054688 31.011719 C 22.054688 30.78125 23.109375 30.597656 24.414062 30.597656 C 25.71875 30.597656 26.773438 30.78125 26.773438 31.011719 M 26.773438 31.011719 "/>
<path style=" stroke:none;fill-rule:nonzero;fill:rgb(0%,0%,0%);fill-opacity:1;" d="M 12 24 C 19.972656 23.625 27.960938 23.433594 36 24 C 34.675781 30.117188 29.828125 30.183594 25 30.28125 C 19.570312 30.546875 12.960938 28.699219 12 24 M 12 24 "/>
<path style=" stroke:none;fill-rule:nonzero;fill:rgb(100%,95.686275%,95.294118%);fill-opacity:1;" d="M 14.140625 25.890625 C 14.230469 26.339844 13.964844 27.003906 14.367188 27.289062 C 16.863281 29.046875 21.546875 29.828125 24.726562 29.894531 C 28.933594 29.917969 32.25 29.546875 33.378906 28.015625 C 33.625 27.679688 33.382812 26.746094 33.402344 26.246094 L 31.121094 26.1875 L 33.410156 25.960938 L 33.179688 24.128906 L 22.273438 24.128906 L 22.246094 26.214844 L 19.804688 26.136719 L 19.90625 24.230469 L 14.117188 24.035156 L 14.148438 25.691406 L 15.941406 25.753906 M 14.140625 25.890625 "/>
</g>
</svg>
