<!-- color: #93c849 -->
<svg xmlns="http://www.w3.org/2000/svg" xmlns:xlink="http://www.w3.org/1999/xlink" width="48px" height="48px" viewBox="0 0 48 48" version="1.1">
<g id="surface1">
<path style=" stroke:none;fill-rule:nonzero;fill:rgb(67.058824%,61.176471%,66.666667%);fill-opacity:1;" d="M 11 26 L 10 15.003906 L 11 15.003906 L 12.996094 26 M 11 26 "/>
<path style=" stroke:none;fill-rule:nonzero;fill:rgb(54.509804%,10.196078%,15.686275%);fill-opacity:1;" d="M 16 26 C 15.996094 27.644531 14.664062 28.980469 13.019531 28.988281 C 11.375 29 10.027344 27.683594 10 26.039062 C 9.972656 24.394531 11.277344 23.039062 12.921875 22.992188 C 14.566406 22.945312 15.941406 24.234375 15.996094 25.878906 "/>
<path style=" stroke:none;fill-rule:nonzero;fill:rgb(67.058824%,61.176471%,66.666667%);fill-opacity:1;" d="M 37 26 L 38 15.003906 L 37 15.003906 L 35 26 M 37 26 "/>
<path style=" stroke:none;fill-rule:nonzero;fill:rgb(54.509804%,10.196078%,15.686275%);fill-opacity:1;" d="M 38 26 C 37.996094 27.644531 36.664062 28.980469 35.019531 28.988281 C 33.375 29 32.027344 27.683594 32 26.039062 C 31.972656 24.394531 33.277344 23.039062 34.921875 22.992188 C 36.566406 22.945312 37.941406 24.234375 37.996094 25.878906 "/>
<path style=" stroke:none;fill-rule:nonzero;fill:rgb(61.176471%,27.058824%,20.392157%);fill-opacity:1;" d="M 36 26 C 36 31.523438 30.628906 36 24.003906 36 C 17.375 36 12.003906 31.523438 12.003906 26 C 12.003906 20.476562 17.375 16 24.003906 16 C 30.628906 16 36 20.476562 36 26 M 36 26 "/>
<path style=" stroke:none;fill-rule:nonzero;fill:rgb(92.54902%,67.058824%,34.509804%);fill-opacity:1;" d="M 33 26 C 33 29.867188 28.96875 33 24 33 C 19.03125 33 15.003906 29.867188 15.003906 26 C 15.003906 22.132812 19.035156 19 24 19 C 28.972656 19 33 22.132812 33 26 M 33 26 "/>
<path style=" stroke:none;fill-rule:nonzero;fill:rgb(58.039216%,38.431373%,35.686275%);fill-opacity:1;" d="M 28 22 L 28.003906 22 C 29.105469 22 30 22.894531 30 24 L 30 29 C 30 30.101562 29.105469 30.996094 28.003906 30.996094 L 28 30.996094 C 26.894531 30.996094 26 30.101562 26 29 L 26 24 C 26 22.894531 26.894531 22 28 22 M 28 22 "/>
<path style=" stroke:none;fill-rule:nonzero;fill:rgb(58.039216%,38.431373%,35.686275%);fill-opacity:1;" d="M 20 22 L 20.003906 22 C 21.105469 22 22 22.894531 22 24 L 22 29 C 22 30.101562 21.105469 30.996094 20.003906 30.996094 L 20 30.996094 C 18.894531 30.996094 18 30.101562 18 29 L 18 24 C 18 22.894531 18.894531 22 20 22 M 20 22 "/>
<path style=" stroke:none;fill-rule:nonzero;fill:rgb(97.647059%,97.647059%,97.647059%);fill-opacity:1;" d="M 28 24 C 28.550781 24 29 24.445312 29 24.996094 L 29 27.996094 C 29 28.546875 28.550781 28.996094 28 28.996094 C 27.449219 28.996094 27 28.546875 27 27.996094 L 27 24.996094 C 27 24.445312 27.449219 24 28 24 M 28 24 "/>
<path style=" stroke:none;fill-rule:nonzero;fill:rgb(97.647059%,97.647059%,97.647059%);fill-opacity:1;" d="M 20 24 C 20.550781 24 20.996094 24.445312 20.996094 24.996094 L 20.996094 27.996094 C 20.996094 28.546875 20.550781 28.996094 20 28.996094 C 19.445312 28.996094 19 28.546875 19 27.996094 L 19 24.996094 C 19 24.445312 19.445312 24 20 24 M 20 24 "/>
<path style=" stroke:none;fill-rule:nonzero;fill:rgb(17.647059%,17.647059%,17.647059%);fill-opacity:1;" d="M 20.496094 26 C 20.773438 26 20.996094 26.222656 20.996094 26.5 L 20.996094 27.5 C 20.996094 27.777344 20.773438 28 20.496094 28 C 20.222656 28 20 27.777344 20 27.5 L 20 26.5 C 20 26.222656 20.222656 26 20.496094 26 M 20.496094 26 "/>
<path style=" stroke:none;fill-rule:nonzero;fill:rgb(17.647059%,17.647059%,17.647059%);fill-opacity:1;" d="M 27.5 26 C 27.777344 26 28 26.222656 28 26.5 L 28 27.5 C 28 27.777344 27.777344 28 27.5 28 C 27.222656 28 27 27.777344 27 27.5 L 27 26.5 C 27 26.222656 27.222656 26 27.5 26 M 27.5 26 "/>
<path style=" stroke:none;fill-rule:nonzero;fill:rgb(54.509804%,10.196078%,15.686275%);fill-opacity:1;" d="M 39 14.5 C 38.996094 15.324219 38.332031 15.988281 37.511719 15.996094 C 36.6875 16 36.015625 15.34375 36 14.519531 C 35.988281 13.699219 36.636719 13.015625 37.460938 12.996094 C 38.28125 12.972656 38.96875 13.617188 39 14.441406 "/>
<path style=" stroke:none;fill-rule:nonzero;fill:rgb(54.509804%,10.196078%,15.686275%);fill-opacity:1;" d="M 12 14.5 C 11.996094 15.324219 11.332031 15.988281 10.511719 15.996094 C 9.6875 16 9.015625 15.34375 9 14.519531 C 8.988281 13.699219 9.636719 13.015625 10.460938 12.996094 C 11.28125 12.972656 11.96875 13.617188 12 14.441406 "/>
</g>
</svg>
