<!-- color: #ac74b6 --><svg xmlns="http://www.w3.org/2000/svg" viewBox="0 0 48 48"><g><path d="m 15.875 11 c -0.492 0 -0.875 0.383 -0.875 0.875 l 0 24.25 c 0 0.492 0.383 0.875 0.875 0.875 l 18.25 0 c 0.492 0 0.875 -0.383 0.875 -0.875 l 0 -20.12 l -5 -5 m -14.12 0" fill="#ececde" stroke="none" fill-rule="nonzero" fill-opacity="1"/><path d="m 17 29 l 10 0 l 0 -2 l -10 0 m 0 2" fill="#8d758e" stroke="none" fill-rule="nonzero" fill-opacity="1"/><path d="m 17 25 l 13 0 l 0 -2 l -13 0 m 0 2" fill="#8d758e" stroke="none" fill-rule="nonzero" fill-opacity="1"/><path d="m 17 21 l 8 0 l 0 -2 l -8 0 m 0 2" fill="#8d758e" stroke="none" fill-rule="nonzero" fill-opacity="1"/><path d="m 17 17 l 11 0 l 0 -2 l -11 0 m 0 2" fill="#8d758e" stroke="none" fill-rule="nonzero" fill-opacity="1"/><path d="m 17 34 l 16 0 l 0 -2 l -16 0 m 0 2" fill="#8d758e" stroke="none" fill-rule="nonzero" fill-opacity="1"/><path d="m 30 11 l 0 5 l 5 0 m -5 -5" fill="#fff" stroke="none" fill-rule="nonzero" fill-opacity="1"/><path d="m 35 21 l 0 -5 l -5 0 m 5 5" fill="#000" stroke="none" fill-rule="nonzero" fill-opacity="0.2"/></g></svg>