<!-- color: #555555 -->
<svg xmlns="http://www.w3.org/2000/svg" xmlns:xlink="http://www.w3.org/1999/xlink" width="48px" height="48px" viewBox="0 0 48 48" version="1.1">
<g id="surface1">
<path style=" stroke:none;fill-rule:nonzero;fill:rgb(89.803922%,89.803922%,89.803922%);fill-opacity:1;" d="M 21.191406 15 C 20.621094 15.015625 20.042969 15.109375 19.472656 15.3125 C 17.027344 16.175781 15.171875 18.675781 14.628906 21.78125 C 13.023438 22.183594 11.632812 23.636719 11.148438 25.75 C 10.476562 28.75 11.886719 31.875 14.273438 32.71875 C 14.3125 32.730469 14.339844 32.742188 14.378906 32.75 C 14.699219 32.898438 15.097656 33 15.472656 33 L 32.785156 33 C 33.402344 33 33.957031 32.765625 34.441406 32.375 C 36.375 31.214844 37.449219 28.433594 36.847656 25.75 C 36.402344 23.769531 35.15625 22.347656 33.691406 21.84375 C 33.675781 21.777344 33.671875 21.722656 33.660156 21.65625 C 33.980469 17.171875 29.589844 16.207031 26.847656 18 C 25.53125 15.78125 23.421875 14.9375 21.191406 15 M 24.972656 19 L 27.847656 19 L 29.003906 31 L 26.6875 31 L 26.496094 28.15625 L 22.808594 28.15625 L 21.492188 31 L 18.992188 31 M 26.09375 20.8125 C 25.863281 21.46875 25.585938 22.144531 25.246094 22.875 L 23.808594 26.03125 L 26.371094 26.03125 L 26.183594 23.15625 C 26.132812 22.441406 26.089844 21.757812 26.089844 21.09375 M 26.09375 20.8125 "/>
</g>
</svg>
