<!-- color: #515151 -->
<svg xmlns="http://www.w3.org/2000/svg" xmlns:xlink="http://www.w3.org/1999/xlink" width="48px" height="48px" viewBox="0 0 48 48" version="1.1">
<g id="surface1">
<path style=" stroke:none;fill-rule:nonzero;fill:rgb(100%,100%,100%);fill-opacity:1;" d="M 33.339844 13 C 31.273438 13 30.226562 13.722656 29.402344 14.722656 C 28.578125 15.722656 28.085938 17.054688 27.523438 18.199219 C 27.144531 18.96875 26.296875 21.828125 25.511719 24.527344 C 25.121094 25.878906 24.734375 27.21875 24.367188 28.335938 C 24.003906 29.453125 23.726562 30.289062 23.304688 30.929688 C 22.609375 31.984375 21.492188 32.582031 20.367188 32.582031 C 19.972656 32.582031 19.578125 32.507812 19.199219 32.363281 C 20.535156 34.242188 23.613281 37.289062 27.210938 32.210938 C 29.695312 28.691406 30.527344 21.113281 32.296875 18.257812 C 34.527344 14.628906 35.652344 15.484375 35.929688 15.789062 C 35.980469 15.492188 36.007812 15.183594 35.992188 14.886719 C 35.96875 14.339844 35.832031 13.921875 35.511719 13.613281 C 35.191406 13.300781 34.589844 13.007812 33.335938 13.007812 M 33.335938 13.007812 "/>
<path style=" stroke:none;fill-rule:nonzero;fill:rgb(100%,100%,100%);fill-opacity:1;" d="M 16.523438 16.199219 C 17.054688 16.808594 17.480469 17.582031 17.738281 18.492188 C 18.3125 20.53125 18.421875 23.0625 18.550781 25.289062 C 18.617188 26.40625 18.683594 27.441406 18.789062 28.253906 C 18.894531 29.066406 19.097656 29.671875 19.160156 29.761719 C 19.5 30.28125 19.9375 30.476562 20.371094 30.476562 C 20.804688 30.476562 21.242188 30.28125 21.582031 29.761719 C 21.671875 29.625 22 28.867188 22.324219 27.910156 C 21.777344 27.675781 20.984375 26.378906 20.371094 21.410156 C 20.019531 18.542969 17.949219 16.960938 16.523438 16.199219 M 16.523438 16.199219 "/>
<path style=" stroke:none;fill-rule:nonzero;fill:rgb(100%,100%,100%);fill-opacity:1;" d="M 13.25 16.710938 C 12.988281 16.710938 12.765625 16.785156 12.589844 16.910156 C 12.355469 17.074219 12.152344 17.34375 12.058594 17.902344 L 12 17.890625 C 12.039062 19.421875 13.035156 20.433594 13.035156 20.433594 C 13.035156 20.433594 13.035156 19.378906 14.070312 18.855469 C 14.632812 18.570312 15.328125 19.03125 15.855469 19.515625 C 15.820312 19.363281 15.78125 19.214844 15.742188 19.070312 C 15.320312 17.574219 14.3125 16.859375 13.53125 16.734375 C 13.433594 16.71875 13.339844 16.710938 13.25 16.710938 M 13.25 16.710938 "/>
</g>
</svg>
