<!-- color: #ee5150 -->
<svg xmlns="http://www.w3.org/2000/svg" xmlns:xlink="http://www.w3.org/1999/xlink" width="48px" height="48px" viewBox="0 0 48 48" version="1.1">
<g id="surface1">
<path style=" stroke:none;fill-rule:nonzero;fill:rgb(97.647059%,97.647059%,97.647059%);fill-opacity:1;" d="M 12 13 C 11.449219 13 11.003906 13.445312 11.003906 14 L 11.003906 33.996094 C 11.003906 34.550781 11.449219 34.996094 12 34.996094 L 36 34.996094 C 36.554688 34.996094 37 34.550781 37 33.996094 L 37 14 C 37 13.445312 36.554688 13 36 13 M 14 16 L 18 16 L 18 20 L 14 20 M 30 16 L 34 16 L 34 20 L 30 20 M 14 21.996094 L 18 21.996094 L 18 25.996094 L 14 25.996094 M 30 21.996094 L 34 21.996094 L 34 25.996094 L 30 25.996094 M 14 27.996094 L 18 27.996094 L 18 31.996094 L 14 31.996094 M 30 27.996094 L 34 27.996094 L 34 31.996094 L 30 31.996094 M 30 27.996094 "/>
</g>
</svg>
