<!-- color: #3a569c -->
<svg xmlns="http://www.w3.org/2000/svg" xmlns:xlink="http://www.w3.org/1999/xlink" width="48px" height="48px" viewBox="0 0 48 48" version="1.1">
<g id="surface1">
<path style=" stroke:none;fill-rule:nonzero;fill:rgb(97.647059%,97.647059%,97.647059%);fill-opacity:1;" d="M 17 19 L 20 19 L 20 17 C 20 15.441406 20.222656 14.367188 20.585938 13.597656 C 20.964844 12.832031 21.644531 12.210938 22.632812 11.730469 C 23.632812 11.246094 24.894531 11 26.417969 11 C 27.976562 11 29.613281 11.402344 31 12 L 30 15 C 29.128906 14.8125 28.546875 14.765625 27.742188 14.765625 C 26.949219 14.765625 26.378906 14.933594 26.027344 15.273438 C 25.6875 15.597656 25 16.058594 25 17.003906 L 25 19.003906 L 30 19.003906 L 30 22.003906 L 25 22.003906 L 25 37.003906 L 20.039062 37.003906 L 20 22.003906 L 17 22.003906 "/>
</g>
</svg>
