<!-- color: #5686b3 -->
<svg xmlns="http://www.w3.org/2000/svg" xmlns:xlink="http://www.w3.org/1999/xlink" width="48px" height="48px" viewBox="0 0 48 48" version="1.1">
<g id="surface1">
<path style=" stroke:none;fill-rule:nonzero;fill:rgb(100%,100%,100%);fill-opacity:1;" d="M 26.976562 14.753906 C 26.976562 16.273438 25.703125 17.5 24.136719 17.5 C 22.566406 17.5 21.292969 16.273438 21.292969 14.753906 C 21.292969 13.238281 22.566406 12.003906 24.136719 12.003906 C 25.703125 12.003906 26.976562 13.238281 26.976562 14.753906 M 34.070312 17.675781 C 33.941406 17.695312 33.816406 17.746094 33.707031 17.824219 L 24 19.289062 L 14.347656 17.804688 C 14.097656 17.628906 13.746094 17.578125 13.46875 17.707031 C 13.191406 17.835938 13.007812 18.144531 13.003906 18.4375 C 13 18.734375 13.191406 18.984375 13.46875 19.121094 L 21.03125 21.441406 L 20.980469 26.769531 L 18.308594 34.75 C 18.054688 35.109375 18.132812 35.578125 18.515625 35.820312 C 18.902344 36.066406 19.449219 35.992188 19.707031 35.628906 L 24.015625 27.011719 L 28.242188 35.609375 C 28.472656 35.988281 28.980469 36.117188 29.390625 35.902344 C 29.785156 35.6875 29.929688 35.207031 29.699219 34.828125 L 27.078125 26.816406 L 26.976562 21.796875 L 34.644531 19.09375 C 34.957031 18.890625 35.089844 18.503906 34.957031 18.167969 C 34.824219 17.835938 34.453125 17.640625 34.078125 17.679688 M 34.078125 17.671875 "/>
</g>
</svg>
