<!-- color: #5f4371 -->
<svg xmlns="http://www.w3.org/2000/svg" xmlns:xlink="http://www.w3.org/1999/xlink" width="48px" height="48px" viewBox="0 0 48 48" version="1.1">
<defs>
<clipPath id="clip1">
  <path d="M 16 16 L 27 16 L 27 31 L 16 31 Z M 16 16 "/>
</clipPath>
<clipPath id="clip2">
  <path d="M 16 16.308594 L 16 31 L 18.695312 31 L 18.695312 25.390625 C 19.050781 25.457031 19.511719 25.480469 20.019531 25.480469 C 21.941406 25.480469 23.644531 24.972656 24.726562 23.886719 C 25.566406 23.09375 26.007812 21.921875 26.007812 20.507812 C 26.007812 19.117188 25.433594 17.945312 24.546875 17.21875 C 23.597656 16.421875 22.140625 16 20.152344 16 C 18.320312 16 16.972656 16.132812 16 16.3125 M 18.695312 23.25 L 18.695312 18.210938 C 18.984375 18.144531 19.511719 18.078125 20.265625 18.078125 C 22.140625 18.078125 23.292969 18.960938 23.292969 20.621094 C 23.292969 22.363281 22.054688 23.359375 20.023438 23.359375 C 19.46875 23.359375 19.027344 23.335938 18.695312 23.25 "/>
</clipPath>
<clipPath id="clip3">
  <path d="M 27 20 L 35 20 L 35 31 L 27 31 Z M 27 20 "/>
</clipPath>
<clipPath id="clip4">
  <path d="M 30.425781 22.296875 L 30.335938 22.296875 L 30.25 20.242188 L 27.886719 20.242188 C 27.953125 21.214844 27.972656 22.253906 27.972656 23.710938 L 27.972656 31 L 30.691406 31 L 30.691406 25.433594 C 30.691406 25.125 30.734375 24.839844 30.777344 24.59375 C 31.023438 23.378906 31.90625 22.539062 33.207031 22.539062 C 33.539062 22.539062 33.785156 22.585938 34.003906 22.628906 L 34.003906 20.066406 C 33.785156 20.023438 33.628906 20 33.363281 20 C 32.214844 20 30.957031 20.773438 30.425781 22.296875 "/>
</clipPath>
</defs>
<g id="surface1">
<g clip-path="url(#clip1)" clip-rule="nonzero">
<g clip-path="url(#clip2)" clip-rule="nonzero">
<path style=" stroke:none;fill-rule:nonzero;fill:rgb(84.705882%,48.627451%,98.431373%);fill-opacity:1;" d="M 16 16.308594 L 16 31 L 18.695312 31 L 18.695312 25.390625 C 19.050781 25.457031 19.511719 25.480469 20.019531 25.480469 C 21.941406 25.480469 23.644531 24.972656 24.726562 23.886719 C 25.566406 23.09375 26.007812 21.921875 26.007812 20.507812 C 26.007812 19.117188 25.433594 17.945312 24.546875 17.21875 C 23.597656 16.421875 22.140625 16 20.152344 16 C 18.320312 16 16.972656 16.132812 16 16.3125 M 18.695312 23.25 L 18.695312 18.210938 C 18.984375 18.144531 19.511719 18.078125 20.265625 18.078125 C 22.140625 18.078125 23.292969 18.960938 23.292969 20.621094 C 23.292969 22.363281 22.054688 23.359375 20.023438 23.359375 C 19.46875 23.359375 19.027344 23.335938 18.695312 23.25 "/>
</g>
</g>
<g clip-path="url(#clip3)" clip-rule="nonzero">
<g clip-path="url(#clip4)" clip-rule="nonzero">
<path style=" stroke:none;fill-rule:nonzero;fill:rgb(84.705882%,48.627451%,98.431373%);fill-opacity:1;" d="M 30.425781 22.296875 L 30.335938 22.296875 L 30.25 20.242188 L 27.886719 20.242188 C 27.953125 21.214844 27.972656 22.253906 27.972656 23.710938 L 27.972656 31 L 30.691406 31 L 30.691406 25.433594 C 30.691406 25.125 30.734375 24.839844 30.777344 24.59375 C 31.023438 23.378906 31.90625 22.539062 33.207031 22.539062 C 33.539062 22.539062 33.785156 22.585938 34.003906 22.628906 L 34.003906 20.066406 C 33.785156 20.023438 33.628906 20 33.363281 20 C 32.214844 20 30.957031 20.773438 30.425781 22.296875 "/>
</g>
</g>
</g>
</svg>
