<!-- color: #e59735 -->
<svg xmlns="http://www.w3.org/2000/svg" xmlns:xlink="http://www.w3.org/1999/xlink" width="48px" height="48px" viewBox="0 0 48 48" version="1.1">
<g id="surface1">
<path style=" stroke:none;fill-rule:nonzero;fill:rgb(97.647059%,97.647059%,97.647059%);fill-opacity:1;" d="M 28.417969 35.957031 C 26.445312 35.632812 23.882812 33.371094 21.542969 29.898438 C 20.5625 28.441406 19.558594 26.640625 18.902344 25.164062 C 18.773438 24.867188 18.722656 24.796875 18.683594 24.839844 C 18.605469 24.921875 18.03125 26.164062 17.730469 26.90625 C 17.222656 28.15625 16.867188 29.34375 16.664062 30.488281 C 16.53125 31.207031 16.523438 32.597656 16.644531 33.03125 C 16.925781 34.03125 17.539062 34.453125 18.496094 34.289062 C 19.1875 34.171875 20.019531 33.796875 20.90625 33.195312 C 21.296875 32.929688 21.402344 32.882812 21.554688 32.882812 C 21.789062 32.882812 21.960938 33.007812 22.042969 33.234375 C 22.097656 33.386719 22.097656 33.433594 22.042969 33.578125 C 21.988281 33.722656 21.898438 33.804688 21.484375 34.082031 C 20.910156 34.472656 19.925781 34.972656 19.429688 35.132812 C 18.113281 35.554688 17.089844 35.398438 16.363281 34.671875 C 15.699219 34.003906 15.425781 32.925781 15.511719 31.417969 C 15.617188 29.460938 16.488281 26.785156 17.847656 24.160156 L 18.1875 23.503906 L 17.929688 22.804688 C 17.679688 22.136719 17.195312 20.589844 17.195312 20.472656 C 17.195312 20.386719 17.046875 20.40625 16.390625 20.566406 C 14.890625 20.933594 13.777344 21.40625 12.980469 22.003906 C 11.410156 23.183594 11.824219 24.511719 14.175781 25.835938 C 14.550781 26.050781 14.636719 26.164062 14.636719 26.445312 C 14.636719 26.589844 14.609375 26.648438 14.488281 26.769531 C 14.230469 27.027344 13.992188 26.972656 13.195312 26.480469 C 12.046875 25.765625 11.320312 24.957031 11.0625 24.097656 C 10.96875 23.785156 10.96875 23.15625 11.0625 22.839844 C 11.195312 22.382812 11.425781 22.019531 11.839844 21.605469 C 12.761719 20.675781 14.296875 19.960938 16.398438 19.480469 C 16.828125 19.382812 16.925781 19.347656 16.910156 19.292969 C 16.898438 19.253906 16.847656 19.011719 16.796875 18.746094 C 16.511719 17.214844 16.503906 15.457031 16.777344 14.480469 C 17.09375 13.359375 17.664062 12.6875 18.574219 12.375 C 18.945312 12.25 19.691406 12.269531 20.195312 12.421875 C 20.710938 12.574219 21.34375 12.886719 21.910156 13.265625 C 22.578125 13.714844 22.777344 13.902344 22.804688 14.121094 C 22.867188 14.621094 22.355469 14.890625 21.933594 14.574219 C 20.613281 13.59375 19.671875 13.214844 18.914062 13.375 C 18.363281 13.492188 17.945312 14.054688 17.734375 14.960938 C 17.648438 15.320312 17.636719 15.492188 17.636719 16.386719 C 17.636719 17.40625 17.652344 17.566406 17.835938 18.632812 L 17.929688 19.167969 L 18.148438 19.140625 C 19.160156 19.019531 20.03125 18.933594 20.566406 18.902344 L 21.203125 18.867188 L 21.300781 18.742188 C 22.378906 17.359375 23.941406 15.742188 25.128906 14.789062 C 27.398438 12.96875 29.34375 12.335938 30.683594 12.984375 C 31.441406 13.347656 31.917969 14.097656 32.105469 15.207031 C 32.226562 15.929688 32.128906 17.644531 31.941406 18.128906 C 31.878906 18.292969 31.667969 18.414062 31.441406 18.414062 C 31.300781 18.414062 31.226562 18.386719 31.117188 18.285156 C 30.984375 18.171875 30.976562 18.136719 30.976562 17.90625 C 30.976562 17.769531 31.011719 17.371094 31.058594 17.027344 C 31.183594 16.027344 31.09375 15.089844 30.824219 14.554688 C 30.6875 14.292969 30.417969 14.015625 30.179688 13.902344 C 30.003906 13.8125 29.914062 13.800781 29.5 13.800781 C 29.070312 13.800781 28.984375 13.816406 28.554688 13.964844 C 27.230469 14.414062 25.714844 15.503906 24.082031 17.164062 C 23.773438 17.484375 23.304688 17.984375 23.046875 18.285156 L 22.574219 18.824219 L 22.984375 18.835938 C 28.726562 18.972656 33.566406 20.292969 35.847656 22.339844 C 36.359375 22.800781 36.804688 23.488281 36.929688 24.023438 C 36.992188 24.296875 36.992188 24.824219 36.933594 25.105469 C 36.703125 26.144531 35.554688 27.171875 33.882812 27.832031 C 33.609375 27.9375 33.566406 27.945312 33.421875 27.902344 C 33.1875 27.832031 33.027344 27.636719 33.027344 27.402344 C 33.027344 27.125 33.15625 26.992188 33.636719 26.789062 C 34.671875 26.355469 35.476562 25.746094 35.78125 25.160156 C 35.890625 24.960938 35.902344 24.882812 35.902344 24.558594 C 35.902344 24.226562 35.890625 24.160156 35.757812 23.910156 C 35.574219 23.550781 34.960938 22.9375 34.453125 22.601562 C 31.960938 20.957031 27.261719 19.882812 22.515625 19.882812 L 21.734375 19.882812 L 21.441406 20.28125 C 20.996094 20.878906 20.039062 22.335938 19.660156 22.988281 L 19.324219 23.5625 L 19.554688 24.09375 C 21.871094 29.40625 25.464844 33.898438 28.117188 34.796875 C 28.695312 34.984375 29.132812 34.988281 29.484375 34.816406 C 30.140625 34.492188 30.484375 33.652344 30.542969 32.253906 C 30.628906 29.90625 29.785156 26.660156 28.210938 23.304688 C 28.046875 22.957031 27.949219 22.691406 27.949219 22.59375 C 27.949219 22.3125 28.183594 22.089844 28.472656 22.09375 C 28.730469 22.09375 28.84375 22.195312 29.042969 22.613281 C 30.324219 25.285156 31.171875 27.96875 31.492188 30.308594 C 31.597656 31.09375 31.597656 32.699219 31.492188 33.273438 C 31.320312 34.191406 31.015625 34.851562 30.554688 35.320312 C 29.992188 35.886719 29.257812 36.101562 28.390625 35.960938 M 19.234375 21.679688 C 19.398438 21.410156 19.714844 20.933594 19.9375 20.609375 C 20.160156 20.28125 20.339844 20.003906 20.339844 19.984375 C 20.339844 19.925781 18.292969 20.136719 18.234375 20.195312 C 18.199219 20.234375 18.316406 20.6875 18.589844 21.527344 C 18.789062 22.136719 18.84375 22.261719 18.886719 22.214844 C 18.917969 22.179688 19.074219 21.941406 19.234375 21.679688 M 23.605469 25.566406 C 22.953125 25.332031 22.574219 24.789062 22.582031 24.105469 C 22.582031 23.746094 22.664062 23.503906 22.875 23.214844 C 23.40625 22.492188 24.492188 22.410156 25.140625 23.042969 C 25.894531 23.769531 25.671875 25.070312 24.71875 25.5 C 24.394531 25.648438 23.917969 25.679688 23.601562 25.5625 M 23.605469 25.566406 "/>
</g>
</svg>
