<!-- color: #3d3d3d -->
<svg xmlns="http://www.w3.org/2000/svg" xmlns:xlink="http://www.w3.org/1999/xlink" width="48px" height="48px" viewBox="0 0 48 48" version="1.1">
<g id="surface1">
<path style=" stroke:none;fill-rule:nonzero;fill:rgb(100%,32.54902%,32.54902%);fill-opacity:1;" d="M 12 35 L 24 13 L 36 35 C 35.609375 34.980469 35.160156 34.695312 34.730469 34.652344 C 34.445312 34.621094 34.164062 34.816406 33.890625 34.800781 C 33.652344 34.789062 33.449219 34.035156 33.207031 34 C 32.933594 33.960938 32.769531 34.628906 32.34375 34.574219 C 31.828125 34.503906 32.167969 33.179688 31.652344 33.179688 C 31.285156 33.179688 31.3125 34.300781 30.855469 34.3125 C 30.234375 34.328125 30.675781 31.996094 30.128906 31.996094 C 29.59375 31.996094 29.859375 34.023438 29.300781 34.003906 C 28.804688 33.988281 29 30.671875 28.539062 30.71875 C 28.140625 30.753906 28.296875 33.730469 27.789062 33.695312 C 27.199219 33.65625 27.4375 29.386719 27 29.367188 C 26.644531 29.355469 26.742188 33.398438 26.253906 33.378906 C 25.632812 33.359375 25.984375 27.738281 25.507812 27.859375 C 25 27.984375 25.164062 33.066406 24.683594 33.0625 C 24.238281 33.058594 24.402344 26.609375 24 26.59375 C 23.515625 26.570312 23.804688 32.78125 23.144531 32.78125 C 22.613281 32.785156 23.003906 25.769531 22.433594 25.800781 C 22 25.816406 22.207031 32.648438 21.671875 32.582031 C 21.003906 32.503906 21.367188 25.609375 20.835938 25.605469 C 20.320312 25.601562 20.554688 32.546875 20.222656 32.644531 C 19.511719 32.722656 19.882812 26.191406 19.339844 26.1875 C 19 26.183594 19.128906 32.730469 18.574219 32.984375 C 18.269531 33.125 18.285156 27.832031 17.796875 27.71875 C 17.523438 27.65625 17.753906 33.210938 17.042969 33.441406 C 16.421875 33.640625 16.71875 30.300781 16.273438 30.292969 C 15.820312 30.289062 16.214844 33.792969 15.589844 33.988281 C 14.992188 34.171875 15.265625 32.503906 14.699219 32.535156 C 14.191406 32.5625 14.679688 34.375 14.054688 34.546875 C 13.691406 34.648438 13.511719 34.042969 13.21875 34.097656 C 12.800781 34.179688 12.332031 34.988281 11.988281 34.988281 M 11.992188 34.996094 "/>
</g>
</svg>
