<!-- color: #d8b5ae -->
<svg xmlns="http://www.w3.org/2000/svg" xmlns:xlink="http://www.w3.org/1999/xlink" width="48px" height="48px" viewBox="0 0 48 48" version="1.1">
<g id="surface1">
<path style=" stroke:none;fill-rule:nonzero;fill:rgb(100%,80%,63.921569%);fill-opacity:1;" d="M 11.5 11.882812 L 11.796875 36.226562 L 20.390625 35.300781 L 28.382812 36.5 L 36.140625 35.957031 L 36.5 12.210938 L 28.863281 11.554688 L 20.269531 12.808594 M 11.5 11.882812 "/>
<path style="fill:none;stroke-width:2.364;stroke-linecap:butt;stroke-linejoin:miter;stroke:rgb(29.803922%,26.27451%,21.176471%);stroke-opacity:1;stroke-miterlimit:4;" d="M 204.418206 10.350092 L 164.427831 -23.113756 L 139.984137 -34.719892 L 125.884375 -64.335551 L 101.902464 -86.224048 L 101.440681 -99.09239 L 109.414128 -130.00104 " transform="matrix(0.126886,0,0,0.126886,7.757504,34.151562)"/>
<path style="fill:none;stroke-width:2.364;stroke-linecap:butt;stroke-linejoin:miter;stroke:rgb(29.803922%,26.27451%,21.176471%);stroke-opacity:1;stroke-miterlimit:4;" d="M 162.549915 -24.837744 L 200.169806 -43.309049 " transform="matrix(0.126886,0,0,0.126886,7.757504,34.151562)"/>
<path style="fill:none;stroke-width:2.364;stroke-linecap:butt;stroke-linejoin:miter;stroke:rgb(29.803922%,26.27451%,21.176471%);stroke-opacity:1;stroke-miterlimit:4;" d="M 155.992602 -28.285721 L 186.531826 -54.022406 " transform="matrix(0.126886,0,0,0.126886,7.757504,34.151562)"/>
<path style="fill:none;stroke-width:2.364;stroke-linecap:butt;stroke-linejoin:miter;stroke:rgb(29.803922%,26.27451%,21.176471%);stroke-opacity:1;stroke-miterlimit:4;" d="M 147.495801 -31.702912 L 121.174192 -13.262393 " transform="matrix(0.126886,0,0,0.126886,7.757504,34.151562)"/>
<path style="fill:none;stroke-width:2.364;stroke-linecap:butt;stroke-linejoin:miter;stroke:rgb(29.803922%,26.27451%,21.176471%);stroke-opacity:1;stroke-miterlimit:4;" d="M 138.444862 -39.799501 L 109.568055 -26.684875 L 92.2666 -41.030921 L 46.088337 -38.167869 " transform="matrix(0.126886,0,0,0.126886,7.757504,34.151562)"/>
<path style="fill:none;stroke-width:2.364;stroke-linecap:butt;stroke-linejoin:miter;stroke:rgb(29.803922%,26.27451%,21.176471%);stroke-opacity:1;stroke-miterlimit:4;" d="M 124.930024 -66.05954 L 146.572236 -91.796225 L 188.409742 -119.687895 L 203.002073 -121.842881 L 203.463855 -121.842881 " transform="matrix(0.126886,0,0,0.126886,7.757504,34.151562)"/>
<path style="fill:none;stroke-width:2.364;stroke-linecap:butt;stroke-linejoin:miter;stroke:rgb(29.803922%,26.27451%,21.176471%);stroke-opacity:1;stroke-miterlimit:4;" d="M 136.228305 -80.220873 L 131.518123 -98.230396 L 152.205984 -109.405535 " transform="matrix(0.126886,0,0,0.126886,7.757504,34.151562)"/>
<path style="fill:none;stroke-width:2.364;stroke-linecap:butt;stroke-linejoin:miter;stroke:rgb(29.803922%,26.27451%,21.176471%);stroke-opacity:1;stroke-miterlimit:4;" d="M 143.278187 -104.264355 L 142.816404 -123.135872 L 155.961816 -122.273878 L 193.581707 -154.475519 " transform="matrix(0.126886,0,0,0.126886,7.757504,34.151562)"/>
<path style="fill:none;stroke-width:2.364;stroke-linecap:butt;stroke-linejoin:miter;stroke:rgb(29.803922%,26.27451%,21.176471%);stroke-opacity:1;stroke-miterlimit:4;" d="M 101.440681 -97.368402 L 124.006459 -117.994692 " transform="matrix(0.126886,0,0,0.126886,7.757504,34.151562)"/>
<path style="fill:none;stroke-width:2.364;stroke-linecap:butt;stroke-linejoin:miter;stroke:rgb(29.803922%,26.27451%,21.176471%);stroke-opacity:1;stroke-miterlimit:4;" d="M 100.948113 -93.520213 L 80.752819 -85.79305 L 57.232691 -104.264355 L 48.766676 -105.526561 " transform="matrix(0.126886,0,0,0.126886,7.757504,34.151562)"/>
<path style="fill:none;stroke-width:2.364;stroke-linecap:butt;stroke-linejoin:miter;stroke:rgb(29.803922%,26.27451%,21.176471%);stroke-opacity:1;stroke-miterlimit:4;" d="M 102.364246 -102.971364 L 69.916321 -120.118892 L 50.18281 -119.256898 L 53.476859 -133.880014 " transform="matrix(0.126886,0,0,0.126886,7.757504,34.151562)"/>
<path style="fill:none;stroke-width:7.881;stroke-linecap:butt;stroke-linejoin:miter;stroke:rgb(17.647059%,17.647059%,17.647059%);stroke-opacity:1;stroke-miterlimit:4;" d="M 29.494948 -175.502021 L 31.834647 16.353266 L 99.562765 9.0571 L 162.549915 18.508252 L 223.689934 14.229066 L 226.522201 -172.916039 L 166.336532 -178.088004 L 98.608414 -168.205856 M 29.494948 -175.502021 " transform="matrix(0.126886,0,0,0.126886,7.757504,34.151562)"/>
<path style="fill:none;stroke-width:7.881;stroke-linecap:butt;stroke-linejoin:miter;stroke:rgb(17.647059%,17.647059%,17.647059%);stroke-opacity:1;stroke-miterlimit:4;" d="M 98.608414 -168.205856 L 98.608414 9.488098 " transform="matrix(0.126886,0,0,0.126886,7.757504,34.151562)"/>
<path style="fill:none;stroke-width:7.881;stroke-linecap:butt;stroke-linejoin:miter;stroke:rgb(17.647059%,17.647059%,17.647059%);stroke-opacity:1;stroke-miterlimit:4;" d="M 164.304689 -178.519001 L 164.304689 17.646257 " transform="matrix(0.126886,0,0,0.126886,7.757504,34.151562)"/>
<path style="fill-rule:nonzero;fill:rgb(66.666667%,0%,0%);fill-opacity:1;stroke-width:2.587;stroke-linecap:butt;stroke-linejoin:miter;stroke:rgb(66.666667%,0%,0%);stroke-opacity:1;stroke-miterlimit:4;" d="M 17097.2014 140.571954 C 17097.2014 146.00113 17093.017797 150.443183 17087.868746 150.443183 C 17082.719696 150.443183 17078.536092 146.00113 17078.536092 140.571954 C 17078.536092 135.142777 17082.719696 130.771233 17087.868746 130.771233 C 17093.017797 130.771233 17097.2014 135.142777 17097.2014 140.571954 M 17097.2014 140.571954 " transform="matrix(0.0606908,0,0,0.0554009,-1002.631112,10.630156)"/>
<path style="fill-rule:nonzero;fill:rgb(66.666667%,0%,0%);fill-opacity:1;stroke-width:2.587;stroke-linecap:butt;stroke-linejoin:miter;stroke:rgb(66.666667%,0%,0%);stroke-opacity:1;stroke-miterlimit:4;" d="M 17064.796003 167.635133 C 17064.796003 170.596502 17063.50874 173.416853 17061.320394 174.897538 C 17059.19641 176.448731 17056.557522 176.448731 17054.433539 174.897538 C 17052.309555 173.416853 17050.957929 170.596502 17051.022293 167.635133 C 17050.957929 164.603256 17052.309555 161.782904 17054.433539 160.30222 C 17056.557522 158.751027 17059.19641 158.751027 17061.320394 160.30222 C 17063.50874 161.782904 17064.796003 164.603256 17064.796003 167.635133 M 17064.796003 167.635133 " transform="matrix(0.0606908,0,0,0.0554009,-1001.43784,10.466769)"/>
<path style="fill-rule:nonzero;fill:rgb(66.666667%,0%,0%);fill-opacity:1;stroke-width:2.587;stroke-linecap:butt;stroke-linejoin:miter;stroke:rgb(66.666667%,0%,0%);stroke-opacity:1;stroke-miterlimit:4;" d="M 17046.060931 147.467045 C 17046.125294 151.345028 17043.872584 154.940976 17040.203886 156.915222 C 17036.535187 158.889467 17032.029768 158.889467 17028.36107 156.915222 C 17024.692371 154.940976 17022.439661 151.345028 17022.504024 147.467045 C 17022.439661 143.589062 17024.692371 139.993114 17028.36107 138.018868 C 17032.029768 136.044622 17036.535187 136.044622 17040.203886 138.018868 C 17043.872584 139.993114 17046.125294 143.589062 17046.060931 147.467045 M 17046.060931 147.467045 " transform="matrix(0.0606908,0,0,0.0554009,-1001.199231,9.486443)"/>
<path style="fill-rule:nonzero;fill:rgb(66.666667%,0%,0%);fill-opacity:1;stroke-width:2.587;stroke-linecap:butt;stroke-linejoin:miter;stroke:rgb(66.666667%,0%,0%);stroke-opacity:1;stroke-miterlimit:4;" d="M 17067.736193 110.09739 C 17067.736193 113.270285 17066.44893 116.231654 17064.324947 117.853356 C 17062.136601 119.475058 17059.497712 119.475058 17057.373729 117.853356 C 17055.249745 116.231654 17053.89812 113.270285 17053.962483 110.09739 C 17053.89812 106.924495 17055.249745 103.963126 17057.373729 102.341424 C 17059.497712 100.719722 17062.136601 100.719722 17064.324947 102.341424 C 17066.44893 103.963126 17067.736193 106.924495 17067.736193 110.09739 M 17067.736193 110.09739 " transform="matrix(0.0606908,0,0,0.0554009,-1003.10847,9.486443)"/>
<path style="fill-rule:nonzero;fill:rgb(66.666667%,0%,0%);fill-opacity:1;stroke-width:2.587;stroke-linecap:butt;stroke-linejoin:miter;stroke:rgb(66.666667%,0%,0%);stroke-opacity:1;stroke-miterlimit:4;" d="M 17030.352096 110.106952 C 17030.352096 115.536128 17025.717951 119.907673 17020.053995 119.907673 C 17014.325676 119.907673 17009.691531 115.536128 17009.691531 110.106952 C 17009.691531 104.677776 17014.325676 100.235723 17020.053995 100.235723 C 17025.717951 100.235723 17030.352096 104.677776 17030.352096 110.106952 M 17030.352096 110.106952 " transform="matrix(0.0606908,0,0,0.0554009,-1002.273193,8.669507)"/>
<path style="fill-rule:nonzero;fill:rgb(66.666667%,0%,0%);fill-opacity:1;stroke-width:2.587;stroke-linecap:butt;stroke-linejoin:miter;stroke:rgb(66.666667%,0%,0%);stroke-opacity:1;stroke-miterlimit:4;" d="M 17026.425681 256.591071 C 17026.425681 259.270404 17023.979882 261.526685 17021.019178 261.526685 C 17018.058474 261.526685 17015.612675 259.270404 17015.612675 256.591071 C 17015.612675 253.841228 17018.058474 251.655456 17021.019178 251.655456 C 17023.979882 251.655456 17026.425681 253.841228 17026.425681 256.591071 M 17026.425681 256.591071 " transform="matrix(0.0606908,0,0,0.0554009,-1001.616927,13.897905)"/>
<path style="fill-rule:nonzero;fill:rgb(66.666667%,0%,0%);fill-opacity:1;stroke-width:2.587;stroke-linecap:butt;stroke-linejoin:miter;stroke:rgb(66.666667%,0%,0%);stroke-opacity:1;stroke-miterlimit:4;" d="M 17037.238688 282.663395 C 17037.238688 287.810536 17032.604542 291.970555 17026.940587 291.970555 C 17021.212268 291.970555 17016.578122 287.810536 17016.578122 282.663395 C 17016.578122 277.445745 17021.212268 273.285727 17026.940587 273.285727 C 17032.604542 273.285727 17037.238688 277.445745 17037.238688 282.663395 M 17037.238688 282.663395 " transform="matrix(0.0606908,0,0,0.0554009,-1001.616927,10.848006)"/>
<path style="fill-rule:nonzero;fill:rgb(66.666667%,0%,0%);fill-opacity:1;stroke-width:2.587;stroke-linecap:butt;stroke-linejoin:miter;stroke:rgb(66.666667%,0%,0%);stroke-opacity:1;stroke-miterlimit:4;" d="M 17051.039107 307.201909 C 17051.039107 310.938875 17049.172576 314.393805 17046.147509 316.227033 C 17043.058079 318.060262 17039.260654 318.060262 17036.235587 316.227033 C 17033.146156 314.393805 17031.279626 310.938875 17031.343989 307.201909 C 17031.279626 303.464944 17033.146156 300.010013 17036.235587 298.176785 C 17039.260654 296.273048 17043.058079 296.273048 17046.147509 298.176785 C 17049.172576 300.010013 17051.039107 303.464944 17051.039107 307.201909 M 17051.039107 307.201909 " transform="matrix(0.0606908,0,0,0.0554009,-1003.884173,9.922144)"/>
<path style="fill-rule:nonzero;fill:rgb(66.666667%,0%,0%);fill-opacity:1;stroke-width:2.587;stroke-linecap:butt;stroke-linejoin:miter;stroke:rgb(66.666667%,0%,0%);stroke-opacity:1;stroke-miterlimit:4;" d="M 17088.343279 335.72807 C 17088.407642 338.689439 17086.154932 341.50979 17082.486233 342.990475 C 17078.817535 344.541668 17074.312116 344.541668 17070.643417 342.990475 C 17066.974719 341.50979 17064.722009 338.689439 17064.786372 335.72807 C 17064.722009 332.696193 17066.974719 329.94635 17070.643417 328.395157 C 17074.312116 326.914473 17078.817535 326.914473 17082.486233 328.395157 C 17086.154932 329.94635 17088.407642 332.696193 17088.343279 335.72807 M 17088.343279 335.72807 " transform="matrix(0.0606908,0,0,0.0554009,-1002.273193,10.466769)"/>
<path style="fill-rule:nonzero;fill:rgb(66.666667%,0%,0%);fill-opacity:1;stroke-width:2.587;stroke-linecap:butt;stroke-linejoin:miter;stroke:rgb(66.666667%,0%,0%);stroke-opacity:1;stroke-miterlimit:4;" d="M 17035.292268 360.744862 C 17035.292268 362.930634 17032.846469 364.693353 17029.885765 364.693353 C 17026.860698 364.693353 17024.479262 362.930634 17024.479262 360.744862 C 17024.479262 358.629598 17026.860698 356.866879 17029.885765 356.866879 C 17032.846469 356.866879 17035.292268 358.629598 17035.292268 360.744862 M 17035.292268 360.744862 " transform="matrix(0.0606908,0,0,0.0554009,-1006.151141,0.82691)"/>
<path style="fill-rule:nonzero;fill:rgb(66.666667%,0%,0%);fill-opacity:1;stroke-width:2.587;stroke-linecap:butt;stroke-linejoin:miter;stroke:rgb(66.666667%,0%,0%);stroke-opacity:1;stroke-miterlimit:4;" d="M 17051.004493 354.882145 C 17051.004493 358.68962 17047.271432 361.792006 17042.637286 361.792006 C 17038.067504 361.792006 17034.270079 358.68962 17034.270079 354.882145 C 17034.270079 351.074671 17038.067504 347.972285 17042.637286 347.972285 C 17047.271432 347.972285 17051.004493 351.074671 17051.004493 354.882145 M 17051.004493 354.882145 " transform="matrix(0.0606908,0,0,0.0554009,-1001.378166,10.139991)"/>
<path style="fill-rule:nonzero;fill:rgb(66.666667%,0%,0%);fill-opacity:1;stroke-width:2.587;stroke-linecap:butt;stroke-linejoin:miter;stroke:rgb(66.666667%,0%,0%);stroke-opacity:1;stroke-miterlimit:4;" d="M 16905.549527 414.364505 C 16905.549527 419.511646 16901.365924 423.671664 16896.15251 423.671664 C 16891.003459 423.671664 16886.819856 419.511646 16886.819856 414.364505 C 16886.819856 409.217364 16891.003459 404.986837 16896.15251 404.986837 C 16901.365924 404.986837 16905.549527 409.217364 16905.549527 414.364505 M 16905.549527 414.364505 " transform="matrix(0.0606908,0,0,0.0554009,-1002.929294,8.832896)"/>
<path style="fill-rule:nonzero;fill:rgb(66.666667%,0%,0%);fill-opacity:1;stroke-width:2.587;stroke-linecap:butt;stroke-linejoin:miter;stroke:rgb(66.666667%,0%,0%);stroke-opacity:1;stroke-miterlimit:4;" d="M 16959.609014 339.17717 C 16959.609014 342.70261 16958.579204 346.016522 16956.905762 347.779242 C 16955.232321 349.541961 16953.108338 349.541961 16951.434896 347.779242 C 16949.761455 346.016522 16948.731645 342.70261 16948.796008 339.17717 C 16948.731645 335.581223 16949.761455 332.337819 16951.434896 330.50459 C 16953.108338 328.741871 16955.232321 328.741871 16956.905762 330.50459 C 16958.579204 332.337819 16959.609014 335.581223 16959.609014 339.17717 M 16959.609014 339.17717 " transform="matrix(0.0606908,0,0,0.0554009,-1005.077395,14.170217)"/>
<path style="fill-rule:nonzero;fill:rgb(66.666667%,0%,0%);fill-opacity:1;stroke-width:2.587;stroke-linecap:butt;stroke-linejoin:miter;stroke:rgb(66.666667%,0%,0%);stroke-opacity:1;stroke-miterlimit:4;" d="M 16923.198112 338.672129 C 16923.198112 342.761638 16919.014509 346.005042 16913.865458 346.005042 C 16908.716408 346.005042 16904.532804 342.761638 16904.532804 338.672129 C 16904.532804 334.58262 16908.716408 331.268707 16913.865458 331.268707 C 16919.014509 331.268707 16923.198112 334.58262 16923.198112 338.672129 M 16923.198112 338.672129 " transform="matrix(0.0606908,0,0,0.0554009,-994.457432,-4.891647)"/>
<path style="fill-rule:nonzero;fill:rgb(66.666667%,0%,0%);fill-opacity:1;stroke-width:2.587;stroke-linecap:butt;stroke-linejoin:miter;stroke:rgb(66.666667%,0%,0%);stroke-opacity:1;stroke-miterlimit:4;" d="M 16962.514838 287.537549 C 16962.579201 290.921971 16960.970122 294.024357 16958.395597 295.716568 C 16955.756709 297.408779 16952.538552 297.408779 16949.964027 295.716568 C 16947.389501 294.024357 16945.780423 290.921971 16945.844786 287.537549 C 16945.780423 284.153127 16947.389501 281.050741 16949.964027 279.35853 C 16952.538552 277.66632 16955.756709 277.66632 16958.395597 279.35853 C 16960.970122 281.050741 16962.579201 284.153127 16962.514838 287.537549 M 16962.514838 287.537549 " transform="matrix(0.0606908,0,0,0.0554009,-1004.898283,2.460786)"/>
<path style="fill-rule:nonzero;fill:rgb(66.666667%,0%,0%);fill-opacity:1;stroke-width:2.587;stroke-linecap:butt;stroke-linejoin:miter;stroke:rgb(66.666667%,0%,0%);stroke-opacity:1;stroke-miterlimit:4;" d="M 16931.067312 260.022558 C 16931.067312 265.169699 16927.784792 269.329718 16923.665551 269.329718 C 16919.610674 269.329718 16916.328154 265.169699 16916.328154 260.022558 C 16916.328154 254.875417 16919.610674 250.715399 16923.665551 250.715399 C 16927.784792 250.715399 16931.067312 254.875417 16931.067312 260.022558 M 16931.067312 260.022558 " transform="matrix(0.0606908,0,0,0.0554009,-1000.18502,5.074985)"/>
<path style="fill-rule:nonzero;fill:rgb(66.666667%,0%,0%);fill-opacity:1;stroke-width:2.587;stroke-linecap:butt;stroke-linejoin:miter;stroke:rgb(66.666667%,0%,0%);stroke-opacity:1;stroke-miterlimit:4;" d="M 16927.154004 211.371196 C 16927.154004 214.191547 16925.480563 216.800372 16922.712948 218.210548 C 16920.009697 219.691232 16916.598451 219.691232 16913.830836 218.210548 C 16911.063221 216.800372 16909.38978 214.191547 16909.454143 211.371196 C 16909.38978 208.550845 16911.063221 205.871511 16913.830836 204.461335 C 16916.598451 203.05116 16920.009697 203.05116 16922.712948 204.461335 C 16925.480563 205.871511 16927.154004 208.550845 16927.154004 211.371196 M 16927.154004 211.371196 " transform="matrix(0.0606908,0,0,0.0554009,-1002.631112,7.907033)"/>
<path style="fill-rule:nonzero;fill:rgb(66.666667%,0%,0%);fill-opacity:1;stroke-width:3.339;stroke-linecap:butt;stroke-linejoin:miter;stroke:rgb(66.666667%,0%,0%);stroke-opacity:1;stroke-miterlimit:4;" d="M 16904.516687 131.739909 C 16904.645416 135.265309 16902.19956 138.555684 16898.208954 140.318384 C 16894.218348 142.081085 16889.326637 142.081085 16885.336031 140.318384 C 16881.345424 138.555684 16879.028298 135.265309 16879.028298 131.739909 C 16879.028298 128.214508 16881.345424 124.924133 16885.336031 123.161433 C 16889.326637 121.339976 16894.218348 121.339976 16898.208954 123.161433 C 16902.19956 124.924133 16904.645416 128.214508 16904.516687 131.739909 M 16904.516687 131.739909 " transform="matrix(0.0303447,0,0,0.0664818,-491.329675,8.02685)"/>
<path style="fill-rule:nonzero;fill:rgb(66.666667%,0%,0%);fill-opacity:1;stroke-width:2.587;stroke-linecap:butt;stroke-linejoin:miter;stroke:rgb(66.666667%,0%,0%);stroke-opacity:1;stroke-miterlimit:4;" d="M 16769.828677 129.254042 C 16769.89304 134.048639 16768.026509 138.490692 16764.937079 140.887991 C 16761.912011 143.28529 16758.114587 143.28529 16755.089519 140.887991 C 16752.000089 138.490692 16750.133558 134.048639 16750.197921 129.254042 C 16750.133558 124.529953 16752.000089 120.0879 16755.089519 117.690602 C 16758.114587 115.293303 16761.912011 115.293303 16764.937079 117.690602 C 16768.026509 120.0879 16769.89304 124.529953 16769.828677 129.254042 M 16769.828677 129.254042 " transform="matrix(0.0606908,0,0,0.0554009,-1003.645412,10.139991)"/>
<path style="fill-rule:nonzero;fill:rgb(66.666667%,0%,0%);fill-opacity:1;stroke-width:3.473;stroke-linecap:butt;stroke-linejoin:miter;stroke:rgb(66.666667%,0%,0%);stroke-opacity:1;stroke-miterlimit:4;" d="M 16819.990546 191.164093 C 16819.990546 197.99455 16813.38086 203.502982 16805.211586 203.502982 C 16797.116578 203.502982 16790.506892 197.99455 16790.506892 191.164093 C 16790.506892 184.443805 16797.116578 178.935372 16805.211586 178.935372 C 16813.38086 178.935372 16819.990546 184.443805 16819.990546 191.164093 M 16819.990546 191.164093 " transform="matrix(0.052598,0,0,0.035457,-869.326769,13.272676)"/>
<path style="fill-rule:nonzero;fill:rgb(66.666667%,0%,0%);fill-opacity:1;stroke-width:2.587;stroke-linecap:butt;stroke-linejoin:miter;stroke:rgb(66.666667%,0%,0%);stroke-opacity:1;stroke-miterlimit:4;" d="M 16774.772799 220.659213 C 16774.772799 226.370424 16769.23757 231.024004 16762.479441 231.024004 C 16755.721312 231.024004 16750.186083 226.370424 16750.186083 220.659213 C 16750.186083 215.018511 16755.721312 210.364931 16762.479441 210.364931 C 16769.23757 210.364931 16774.772799 215.018511 16774.772799 220.659213 M 16774.772799 220.659213 " transform="matrix(0.0606908,0,0,0.0554009,-1003.168131,9.540906)"/>
<path style="fill-rule:nonzero;fill:rgb(66.666667%,0%,0%);fill-opacity:1;stroke-width:2.587;stroke-linecap:butt;stroke-linejoin:miter;stroke:rgb(66.666667%,0%,0%);stroke-opacity:1;stroke-miterlimit:4;" d="M 16826.889632 308.653961 C 16826.889632 311.121769 16825.21619 313.448559 16822.448575 314.717717 C 16819.745324 315.916366 16816.334078 315.916366 16813.566463 314.717717 C 16810.798848 313.448559 16809.125407 311.121769 16809.18977 308.653961 C 16809.125407 306.186154 16810.798848 303.929873 16813.566463 302.660715 C 16816.334078 301.391557 16819.745324 301.391557 16822.448575 302.660715 C 16825.21619 303.929873 16826.889632 306.186154 16826.889632 308.653961 M 16826.889632 308.653961 " transform="matrix(0.0606908,0,0,0.0554009,-1006.389737,-0.861426)"/>
<path style="fill-rule:nonzero;fill:rgb(66.666667%,0%,0%);fill-opacity:1;stroke-width:2.587;stroke-linecap:butt;stroke-linejoin:miter;stroke:rgb(66.666667%,0%,0%);stroke-opacity:1;stroke-miterlimit:4;" d="M 16837.669923 331.307258 C 16837.669923 336.736434 16834.837945 341.107978 16831.297973 341.107978 C 16827.758 341.107978 16824.926023 336.736434 16824.926023 331.307258 C 16824.926023 325.878081 16827.758 321.436028 16831.297973 321.436028 C 16834.837945 321.436028 16837.669923 325.878081 16837.669923 331.307258 M 16837.669923 331.307258 " transform="matrix(0.0606908,0,0,0.0554009,-1008.239314,2.242936)"/>
<path style="fill-rule:nonzero;fill:rgb(66.666667%,0%,0%);fill-opacity:1;stroke-width:2.587;stroke-linecap:butt;stroke-linejoin:miter;stroke:rgb(66.666667%,0%,0%);stroke-opacity:1;stroke-miterlimit:4;" d="M 16817.060423 382.883446 C 16817.060423 386.408885 16814.164083 389.299745 16810.62411 389.299745 C 16807.148501 389.299745 16804.25216 386.408885 16804.25216 382.883446 C 16804.25216 379.358007 16807.148501 376.537656 16810.62411 376.537656 C 16814.164083 376.537656 16817.060423 379.358007 16817.060423 382.883446 M 16817.060423 382.883446 " transform="matrix(0.0606908,0,0,0.0554009,-992.488507,-1.079275)"/>
<path style="fill-rule:nonzero;fill:rgb(66.666667%,0%,0%);fill-opacity:1;stroke-width:2.587;stroke-linecap:butt;stroke-linejoin:miter;stroke:rgb(66.666667%,0%,0%);stroke-opacity:1;stroke-miterlimit:4;" d="M 16835.710264 393.727223 C 16835.774627 396.688592 16834.101186 399.508943 16831.333571 400.989627 C 16828.565956 402.540821 16825.15471 402.540821 16822.451459 400.989627 C 16819.683844 399.508943 16818.010403 396.688592 16818.010403 393.727223 C 16818.010403 390.695345 16819.683844 387.945503 16822.451459 386.394309 C 16825.15471 384.913625 16828.565956 384.913625 16831.333571 386.394309 C 16834.101186 387.945503 16835.774627 390.695345 16835.710264 393.727223 M 16835.710264 393.727223 " transform="matrix(0.0606908,0,0,0.0554009,-1008.358662,8.179345)"/>
<path style="fill-rule:nonzero;fill:rgb(66.666667%,0%,0%);fill-opacity:1;stroke-width:4.533;stroke-linecap:butt;stroke-linejoin:miter;stroke:rgb(66.666667%,0%,0%);stroke-opacity:1;stroke-miterlimit:4;" d="M 16793.400038 385.398475 C 16793.663624 389.629006 16789.578043 393.64801 16782.988397 395.763276 C 16776.398751 397.984304 16768.22759 397.984304 16761.637944 395.763276 C 16755.048297 393.64801 16750.962717 389.629006 16751.226303 385.398475 C 16750.962717 381.062181 16755.048297 377.043177 16761.637944 374.927912 C 16768.22759 372.812646 16776.398751 372.812646 16782.988397 374.927912 C 16789.578043 377.043177 16793.663624 381.062181 16793.400038 385.398475 M 16793.400038 385.398475 " transform="matrix(0.0296393,0,0,0.0369339,-482.670403,15.949325)"/>
<path style="fill-rule:nonzero;fill:rgb(66.666667%,0%,0%);fill-opacity:1;stroke-width:2.587;stroke-linecap:butt;stroke-linejoin:miter;stroke:rgb(66.666667%,0%,0%);stroke-opacity:1;stroke-miterlimit:4;" d="M 16796.398779 348.952688 C 16796.463142 351.77304 16794.596611 354.452374 16791.507181 355.862549 C 16788.482113 357.272725 16784.684689 357.272725 16781.595258 355.862549 C 16778.570191 354.452374 16776.70366 351.77304 16776.768023 348.952688 C 16776.70366 346.132337 16778.570191 343.523512 16781.595258 342.113337 C 16784.684689 340.703161 16788.482113 340.703161 16791.507181 342.113337 C 16794.596611 343.523512 16796.463142 346.132337 16796.398779 348.952688 M 16796.398779 348.952688 " transform="matrix(0.0606908,0,0,0.0554009,-1005.136879,9.105207)"/>
<path style="fill-rule:nonzero;fill:rgb(66.666667%,0%,0%);fill-opacity:1;stroke-width:2.587;stroke-linecap:butt;stroke-linejoin:miter;stroke:rgb(66.666667%,0%,0%);stroke-opacity:1;stroke-miterlimit:4;" d="M 16805.242294 333.755088 C 16805.242294 337.844597 16802.410316 341.088001 16798.870344 341.088001 C 16795.330371 341.088001 16792.498393 337.844597 16792.498393 333.755088 C 16792.498393 329.665579 16795.330371 326.351666 16798.870344 326.351666 C 16802.410316 326.351666 16805.242294 329.665579 16805.242294 333.755088 M 16805.242294 333.755088 " transform="matrix(0.0606908,0,0,0.0554009,-997.142349,-0.861426)"/>
<path style="fill-rule:nonzero;fill:rgb(66.666667%,0%,0%);fill-opacity:1;stroke-width:2.684;stroke-linecap:butt;stroke-linejoin:miter;stroke:rgb(66.666667%,0%,0%);stroke-opacity:1;stroke-miterlimit:4;" d="M 16774.748634 341.120329 C 16774.748634 345.459257 16770.130578 349.017178 16764.442485 349.017178 C 16758.754392 349.017178 16754.136336 345.459257 16754.136336 341.120329 C 16754.136336 336.781401 16758.754392 333.22348 16764.442485 333.22348 C 16770.130578 333.22348 16774.748634 336.781401 16774.748634 341.120329 M 16774.748634 341.120329 " transform="matrix(0.0693609,0,0,0.045014,-1140.25385,1.293247)"/>
<path style="fill-rule:nonzero;fill:rgb(66.666667%,0%,0%);fill-opacity:1;stroke-width:2.587;stroke-linecap:butt;stroke-linejoin:miter;stroke:rgb(66.666667%,0%,0%);stroke-opacity:1;stroke-miterlimit:4;" d="M 16895.697771 284.111021 C 16895.697771 286.931372 16894.410508 289.540197 16892.286524 291.020881 C 16890.162541 292.431057 16887.45929 292.431057 16885.335306 291.020881 C 16883.211323 289.540197 16881.92406 286.931372 16881.92406 284.111021 C 16881.92406 281.290669 16883.211323 278.611336 16885.335306 277.20116 C 16887.45929 275.790984 16890.162541 275.790984 16892.286524 277.20116 C 16894.410508 278.611336 16895.697771 281.290669 16895.697771 284.111021 M 16895.697771 284.111021 " transform="matrix(0.0606908,0,0,0.0554009,-1002.034508,2.842025)"/>
<path style="fill-rule:nonzero;fill:rgb(66.666667%,0%,0%);fill-opacity:1;stroke-width:2.587;stroke-linecap:butt;stroke-linejoin:miter;stroke:rgb(66.666667%,0%,0%);stroke-opacity:1;stroke-miterlimit:4;" d="M 17088.376224 289.970465 C 17088.376224 298.149484 17083.291537 304.77731 17077.048313 304.77731 C 17070.805089 304.77731 17065.720402 298.149484 17065.720402 289.970465 C 17065.720402 281.861955 17070.805089 275.23413 17077.048313 275.23413 C 17083.291537 275.23413 17088.376224 281.861955 17088.376224 289.970465 M 17088.376224 289.970465 " transform="matrix(0.0606908,0,0,0.0554009,-1003.04863,11.447094)"/>
<path style="fill-rule:nonzero;fill:rgb(66.666667%,0%,0%);fill-opacity:1;stroke-width:2.587;stroke-linecap:butt;stroke-linejoin:miter;stroke:rgb(66.666667%,0%,0%);stroke-opacity:1;stroke-miterlimit:4;" d="M 16837.686025 146.991168 C 16837.686025 149.599993 16835.497678 152.0678 16831.82898 153.407467 C 16828.160281 154.747134 16823.590499 154.747134 16819.9218 153.407467 C 16816.317465 152.0678 16814.064755 149.599993 16814.064755 146.991168 C 16814.064755 144.311834 16816.317465 141.844027 16819.9218 140.50436 C 16823.590499 139.164693 16828.160281 139.164693 16831.82898 140.50436 C 16835.497678 141.844027 16837.686025 144.311834 16837.686025 146.991168 M 16837.686025 146.991168 " transform="matrix(0.0606908,0,0,0.0554009,-1005.673885,8.778432)"/>
<path style="fill-rule:nonzero;fill:rgb(66.666667%,0%,0%);fill-opacity:1;stroke-width:2.587;stroke-linecap:butt;stroke-linejoin:miter;stroke:rgb(66.666667%,0%,0%);stroke-opacity:1;stroke-miterlimit:4;" d="M 16945.802997 414.324993 C 16945.86736 416.651783 16944.387008 418.767046 16941.941209 419.965696 C 16939.49541 421.093836 16936.470342 421.093836 16934.024543 419.965696 C 16931.578744 418.767046 16930.034029 416.651783 16930.098392 414.324993 C 16930.034029 412.068712 16931.578744 409.953448 16934.024543 408.754799 C 16936.470342 407.626659 16939.49541 407.626659 16941.941209 408.754799 C 16944.387008 409.953448 16945.86736 412.068712 16945.802997 414.324993 M 16945.802997 414.324993 " transform="matrix(0.0606908,0,0,0.0554009,-1005.196528,10.19446)"/>
</g>
</svg>
