<!-- color: #0a6161 -->
<svg xmlns="http://www.w3.org/2000/svg" xmlns:xlink="http://www.w3.org/1999/xlink" width="48px" height="48px" viewBox="0 0 48 48" version="1.1">
<g id="surface1">
<path style=" stroke:none;fill-rule:nonzero;fill:rgb(97.647059%,97.647059%,97.647059%);fill-opacity:1;" d="M 12 13 L 12 30 L 21 36 L 21 18 M 14 13 L 22 18 L 26 18 L 34 13 C 30 13 28 13.519531 24 17 C 20 13.605469 18 13 14 13 M 36 13 L 27 18 L 27 24.5625 C 27.234375 24.160156 27.527344 23.785156 27.875 23.4375 C 30.054688 21.261719 33.570312 21.261719 35.75 23.4375 C 35.835938 23.523438 35.921875 23.601562 36 23.6875 M 22 19 L 22 37 L 26 37 L 26 19 M 27 30.1875 L 27 36 L 31.59375 32.9375 C 30.242188 32.886719 28.90625 32.347656 27.875 31.3125 C 27.527344 30.96875 27.234375 30.589844 27 30.1875 M 27 30.1875 "/>
<path style=" stroke:none;fill-rule:nonzero;fill:rgb(100%,100%,100%);fill-opacity:1;" d="M 36.902344 33.425781 L 37.964844 32.363281 L 40.308594 34.707031 L 39.246094 35.769531 M 36.902344 33.425781 "/>
<path style=" stroke:none;fill-rule:nonzero;fill:rgb(100%,100%,100%);fill-opacity:1;" d="M 34.652344 30.859375 L 35.398438 30.113281 L 37.742188 32.457031 L 36.996094 33.203125 M 34.652344 30.859375 "/>
<path style="fill:none;stroke-width:2.156;stroke-linecap:butt;stroke-linejoin:miter;stroke:rgb(100%,100%,100%);stroke-opacity:1;stroke-miterlimit:4;" d="M 28.369393 19.875605 C 28.375678 24.985635 24.2336 29.127713 19.12357 29.121428 C 14.013541 29.127713 9.871462 24.985635 9.877748 19.875605 C 9.871462 14.765576 14.013541 10.623498 19.12357 10.629783 C 24.2336 10.623498 28.375678 14.765576 28.369393 19.875605 M 28.369393 19.875605 " transform="matrix(0.31074,-0.31074,0.31074,0.31074,19.785693,27.131547)"/>
</g>
</svg>
