<!-- color: #7394bd -->
<svg xmlns="http://www.w3.org/2000/svg" xmlns:xlink="http://www.w3.org/1999/xlink" width="48px" height="48px" viewBox="0 0 48 48" version="1.1">
<g id="surface1">
<path style=" stroke:none;fill-rule:nonzero;fill:rgb(100%,100%,100%);fill-opacity:1;" d="M 25.140625 29.957031 C 25.058594 27.234375 25.71875 24.59375 28.503906 22.722656 C 31.445312 20.605469 34.28125 17.957031 33.980469 14.835938 C 33.914062 11.824219 30.117188 9.46875 26.023438 9.128906 C 21.417969 8.539062 15.84375 9.996094 14.300781 13.316406 C 13.519531 14.929688 14.242188 17.828125 16.871094 17.828125 C 18.40625 17.828125 19.113281 16.910156 19.226562 16.074219 C 19.316406 15.4375 19.035156 14.871094 18.867188 14.347656 C 18.679688 13.75 19.488281 12.59375 20.371094 12.125 C 21.109375 11.730469 21.878906 11.597656 21.992188 11.574219 C 24.640625 10.984375 27.28125 12.28125 28.378906 13.863281 C 29.480469 15.441406 28.269531 17.835938 26.527344 20.164062 C 24.785156 22.496094 22.914062 25.140625 22.921875 27.949219 C 22.921875 29.019531 22.820312 29.382812 22.890625 29.816406 C 22.949219 30.160156 24.191406 30.121094 25.140625 29.957031 M 23.933594 33.621094 C 21.402344 33.496094 19.648438 36.144531 21.167969 37.832031 C 22.527344 39.695312 26.335938 39.234375 26.988281 37.125 C 27.667969 35.484375 26.035156 33.59375 23.933594 33.621094 M 23.933594 33.621094 "/>
</g>
</svg>
