<!-- color: #dd232b -->
<svg xmlns="http://www.w3.org/2000/svg" width="48" height="48" viewBox="0 0 48 48">
 <g>
  <path d="M 24.605469 11 C 17.554688 11 14 16.085938 14 20.328125 C 14 22.898438 14.964844 25.183594 17.039062 26.035156 C 17.378906 26.175781 17.683594 26.039062 17.78125 25.660156 C 17.851562 25.398438 18.011719 24.738281 18.085938 24.460938 C 18.183594 24.085938 18.144531 23.957031 17.871094 23.628906 C 17.273438 22.921875 16.890625 22.003906 16.890625 20.699219 C 16.890625 16.925781 19.695312 13.546875 24.199219 13.546875 C 28.183594 13.546875 30.371094 16 30.371094 19.269531 C 30.371094 23.578125 28.480469 27.210938 25.667969 27.210938 C 24.113281 27.210938 22.953125 25.921875 23.324219 24.335938 C 23.769531 22.445312 24.636719 20.402344 24.636719 19.035156 C 24.636719 17.8125 23.984375 16.792969 22.632812 16.792969 C 21.046875 16.792969 19.773438 18.445312 19.773438 20.660156 C 19.773438 22.070312 20.246094 23.023438 20.246094 23.023438 C 20.246094 23.023438 18.621094 29.949219 18.335938 31.160156 C 17.769531 33.574219 18.25 36.535156 18.292969 36.835938 C 18.316406 37.011719 18.542969 37.054688 18.644531 36.921875 C 18.792969 36.730469 20.683594 34.378906 21.324219 32.035156 C 21.507812 31.371094 22.367188 27.929688 22.367188 27.929688 C 22.882812 28.917969 24.390625 29.789062 25.992188 29.789062 C 30.761719 29.789062 34 25.414062 34 19.554688 C 34 15.125 30.273438 11 24.605469 11 Z M 24.605469 11 " fill="#f9f9f9"/>
 </g>
</svg>
