<!-- color: #f8bd5a -->
<svg xmlns="http://www.w3.org/2000/svg" width="48" height="48" viewBox="0 0 48 48">
 <g>
  <path d="M 23.671875 8 C 16.09375 8 9.832031 14.140625 9.054688 22.074219 C 9.054688 22.097656 9.058594 22.125 9.054688 22.144531 C 9.054688 22.152344 9.058594 22.160156 9.054688 22.167969 C 9.054688 22.191406 9.058594 22.214844 9.054688 22.238281 C 8.972656 23.382812 8.992188 24.320312 9.054688 25.382812 C 12.019531 38.28125 20.886719 37.277344 20.886719 33.523438 L 16.875 26.601562 C 16.003906 26.015625 15.109375 27.019531 14.285156 27.566406 C 13.21875 28.269531 13.128906 28.375 12.519531 26.765625 C 11.800781 24.867188 11.4375 21.789062 12.519531 19.261719 C 14.765625 14.015625 18.980469 11.085938 23.671875 11.003906 C 23.90625 11.003906 24.136719 11.003906 24.371094 11.003906 C 29.046875 11.101562 33.242188 14.03125 35.480469 19.261719 C 36.5625 21.789062 36.199219 24.867188 35.480469 26.765625 C 34.871094 28.375 34.78125 28.269531 33.714844 27.566406 C 32.890625 27.019531 31.996094 26.015625 31.125 26.601562 L 27.113281 33.523438 C 27.113281 37.277344 35.980469 38.28125 38.945312 25.382812 C 39.007812 24.320312 39.027344 23.382812 38.945312 22.238281 C 38.941406 22.214844 38.945312 22.191406 38.945312 22.167969 C 38.941406 22.160156 38.945312 22.152344 38.945312 22.144531 C 38.941406 22.125 38.945312 22.097656 38.945312 22.074219 C 38.167969 14.140625 31.953125 8 24.371094 8 C 23.671875 8 24.371094 8 23.671875 8 Z M 23.671875 8 " fill="#eaeaea"/>
 </g>
</svg>
