<!-- color: #ffd401 -->
<svg xmlns="http://www.w3.org/2000/svg" width="48" height="48" viewBox="0 0 48 48">
 <g>
  <path d="M 11 11 L 11 37 L 37 37 L 37 11 Z M 12 12 L 36 12 L 36 36 L 12 36 Z M 12 12 " fill="#b9b095"/>
  <path d="M 12 11.996094 L 24.003906 11.996094 L 24.003906 24 L 12 24 Z M 12 11.996094 " fill="#ececd4"/>
  <path d="M 24 11.996094 L 36 11.996094 L 36 24 L 24 24 Z M 24 11.996094 " fill="#e5d6ab"/>
  <path d="M 12 24 L 24.003906 24 L 24.003906 36 L 12 36 Z M 12 24 " fill="#ffcf53"/>
  <path d="M 24 24 L 36 24 L 36 36 L 24 36 Z M 24 24 " fill="#ffb95c"/>
  <path d="M 22 33 L 21 33 L 21 35 L 19 35 L 19 33 L 15 33 L 15 31 L 18.5 25 L 21 25 L 21 31 L 22 31 L 22 33 M 19 31 L 19 27 L 17 31 " fill="#96814d"/>
  <path d="M 21 23 L 15 23 L 15 21 C 18.117188 17.882812 19.890625 16.765625 18.539062 15.417969 C 17.910156 14.789062 17.203125 15.304688 16 16 L 15 14 C 16.769531 12.828125 18.695312 12.675781 20 14 C 22.691406 16.730469 18.875 19.367188 17.441406 21 C 18.945312 21 19.496094 21 21 21 " fill="#96814d"/>
  <path d="M 30 25 C 28.34375 25 27 26.34375 27 28 C 27 28.773438 27.519531 29.46875 28 30 C 27.519531 30.53125 27 31.226562 27 32 C 27 33.65625 28.34375 35 30 35 C 31.65625 35 33 33.65625 33 32 C 33 31.226562 32.480469 30.53125 32 30 C 32.480469 29.46875 33 28.773438 33 28 C 33 26.34375 31.65625 25 30 25 Z M 30 27 C 30.550781 27 31 27.449219 31 28 C 31 28.550781 30.335938 29 30 29 C 29.664062 29 29 28.550781 29 28 C 29 27.449219 29.449219 27 30 27 Z M 30 31 C 30.367188 31 31 31.449219 31 32 C 31 32.550781 30.550781 33 30 33 C 29.449219 33 29 32.550781 29 32 C 29 31.449219 29.632812 31 30 31 Z M 30 31 " fill="#96814d"/>
 </g>
</svg>
