<!-- color: #5584bb -->
<svg xmlns="http://www.w3.org/2000/svg" xmlns:xlink="http://www.w3.org/1999/xlink" width="48px" height="48px" viewBox="0 0 48 48" version="1.1">
<defs>
<linearGradient id="linear0" gradientUnits="userSpaceOnUse" x1="-8.847" y1="0" x2="52.37" y2="0" gradientTransform="matrix(0,1,-3.594686,0,25.625751,-36.083997)">
<stop offset="0" style="stop-color:rgb(91.764706%,41.176471%,63.529412%);stop-opacity:1;"/>
<stop offset="1" style="stop-color:rgb(89.803922%,27.058824%,53.333333%);stop-opacity:1;"/>
</linearGradient>
<clipPath id="clip1">
  <path d="M 0 0 L 48 0 L 48 16 L 0 16 Z M 0 0 "/>
</clipPath>
<clipPath id="clip2">
  <path d="M 0.0703125 0.0351562 L 0.0703125 15.074219 C 7.667969 17.121094 16.121094 18.257812 25.054688 18.257812 C 34.003906 18.257812 42.496094 17.09375 50.105469 15.042969 L 50.105469 0.0429688 M 0.0742188 0.0429688 "/>
</clipPath>
<linearGradient id="linear1" gradientUnits="userSpaceOnUse" x1="0" y1="105.44" x2="0" y2="132.01" gradientTransform="matrix(0.363154,0,0,0.360673,-46.756204,-8.052959)">
<stop offset="0" style="stop-color:rgb(92.54902%,83.137255%,0%);stop-opacity:1;"/>
<stop offset="1" style="stop-color:rgb(98.431373%,90.588235%,30.196078%);stop-opacity:1;"/>
</linearGradient>
</defs>
<g id="surface1">
<path style=" stroke:none;fill-rule:nonzero;fill:url(#linear0);" d="M 0 0 L 0 13.4375 C 7.285156 15.265625 15.398438 16.28125 23.96875 16.28125 C 32.554688 16.28125 40.703125 15.242188 48 13.40625 L 48 0 M 0 0 "/>
<g clip-path="url(#clip1)" clip-rule="nonzero">
<g clip-path="url(#clip2)" clip-rule="nonzero">
<path style=" stroke:none;fill-rule:nonzero;fill:rgb(58.823529%,18.431373%,36.078431%);fill-opacity:1;" d="M 25.078125 -2.332031 C 22.78125 -2.332031 20.804688 -1.378906 19.808594 0.015625 C 18.910156 -0.339844 17.890625 -0.542969 16.808594 -0.542969 C 13.996094 -0.542969 11.613281 0.804688 10.730469 2.679688 C 9.757812 1.460938 8.109375 0.660156 6.242188 0.660156 C 3.253906 0.660156 0.824219 2.710938 0.824219 5.238281 C 0.824219 5.460938 0.847656 5.683594 0.886719 5.898438 C -0.390625 7.082031 -1.183594 8.75 -1.183594 10.601562 C -1.183594 11.417969 -1.027344 12.199219 -0.742188 12.921875 C -0.761719 12.742188 -0.769531 12.566406 -0.769531 12.382812 C -0.769531 10.53125 0.0234375 8.859375 1.300781 7.679688 C 1.261719 7.460938 1.234375 7.238281 1.234375 7.015625 C 1.234375 4.488281 3.664062 2.441406 6.652344 2.441406 C 8.523438 2.441406 10.175781 3.242188 11.144531 4.460938 C 12.027344 2.585938 14.414062 1.234375 17.222656 1.234375 C 18.308594 1.234375 19.324219 1.4375 20.222656 1.789062 C 21.214844 0.398438 23.199219 -0.554688 25.492188 -0.554688 C 28.191406 -0.554688 30.464844 0.761719 31.1875 2.558594 C 31.289062 2.550781 31.398438 2.550781 31.503906 2.550781 L 30.96875 2.933594 C 30.96875 2.933594 30.96875 2.933594 30.972656 2.933594 C 31.113281 2.839844 31.253906 2.765625 31.410156 2.703125 C 31.59375 2.632812 31.777344 2.578125 31.964844 2.550781 C 32.519531 2.570312 33.046875 2.652344 33.53125 2.773438 C 34.597656 3.234375 35.554688 4.296875 36.054688 5.734375 C 36.519531 7.074219 36.484375 8.449219 36.054688 9.519531 C 35.011719 8.847656 33.617188 8.660156 32.199219 9.011719 L 32.234375 8.867188 C 32.226562 8.875 32.222656 8.878906 32.214844 8.882812 C 31.878906 7.320312 30.765625 5.789062 29.109375 4.851562 C 26.464844 3.367188 23.425781 3.972656 22.339844 6.210938 C 22.234375 6.410156 22.160156 6.621094 22.105469 6.832031 C 22.105469 6.832031 22.125 6.855469 22.125 6.855469 L 21.695312 8.613281 C 21.695312 8.613281 21.699219 8.613281 21.699219 8.613281 C 21.765625 8.402344 21.839844 8.195312 21.9375 7.992188 C 23.03125 5.753906 26.0625 5.144531 28.714844 6.632812 C 29.882812 7.285156 30.777344 8.242188 31.320312 9.296875 C 31.078125 9.398438 30.84375 9.511719 30.601562 9.644531 C 28.945312 10.578125 27.832031 12.105469 27.496094 13.664062 C 27.488281 13.660156 27.484375 13.65625 27.476562 13.652344 L 27.886719 15.441406 C 27.890625 15.445312 27.894531 15.445312 27.898438 15.449219 C 28.234375 13.886719 29.347656 12.355469 31.003906 11.421875 C 33.65625 9.9375 36.6875 10.542969 37.78125 12.78125 C 37.878906 12.980469 37.953125 13.191406 38.019531 13.402344 L 37.597656 11.644531 C 37.597656 11.644531 37.621094 11.621094 37.621094 11.621094 C 37.621094 11.621094 37.621094 11.621094 37.617188 11.621094 C 37.558594 11.410156 37.480469 11.203125 37.382812 11.003906 C 37.105469 10.433594 36.703125 9.972656 36.214844 9.617188 L 37.03125 9.019531 C 37.023438 9.019531 37.019531 9.019531 37.015625 9.015625 C 37.585938 7.910156 37.683594 6.382812 37.160156 4.898438 C 36.914062 4.1875 36.550781 3.566406 36.117188 3.0625 C 36.660156 2.804688 37.253906 2.640625 37.867188 2.566406 C 39.726562 2.617188 41.617188 4.207031 42.472656 6.644531 C 43.121094 8.523438 43.007812 10.464844 42.28125 11.867188 C 42.285156 11.867188 42.285156 11.867188 42.289062 11.871094 L 43.710938 10.832031 C 43.699219 10.832031 43.691406 10.832031 43.6875 10.828125 C 44.03125 10.160156 44.234375 9.371094 44.289062 8.527344 C 45.945312 9.097656 47 11.535156 47.640625 12.980469 C 47.703125 12.816406 47.746094 13.597656 47.773438 13.429688 C 48.359375 9.589844 46.1875 7.679688 44.203125 6.878906 L 43.699219 6.71875 C 43.714844 5.847656 43.507812 4.679688 43.261719 4.265625 C 42.425781 2.199219 40.414062 0.757812 38.074219 0.757812 C 36.894531 0.757812 35.800781 1.117188 34.894531 1.742188 C 34.019531 1.140625 32.707031 0.757812 31.242188 0.757812 C 31.085938 0.757812 30.929688 0.765625 30.769531 0.773438 C 30.042969 -1.027344 27.769531 -2.34375 25.078125 -2.34375 M 12.609375 4.824219 C 11.839844 4.820312 11.023438 4.992188 10.230469 5.355469 C 9.488281 5.691406 8.847656 6.164062 8.335938 6.707031 C 6.1875 6.203125 4.105469 6.953125 3.234375 8.726562 C 3.136719 8.925781 3.058594 9.136719 2.996094 9.34375 C 2.996094 9.34375 3.023438 9.367188 3.023438 9.367188 L 2.59375 11.125 C 2.59375 11.125 2.597656 11.125 2.597656 11.125 C 2.65625 10.914062 2.734375 10.710938 2.835938 10.507812 C 3.929688 8.265625 6.964844 7.660156 9.613281 9.148438 C 10.699219 9.757812 11.550781 10.625 12.105469 11.59375 C 12.070312 11.609375 12.039062 11.621094 12.007812 11.636719 L 12.476562 12.371094 C 12.578125 12.636719 12.664062 12.902344 12.722656 13.175781 C 12.726562 13.171875 12.730469 13.171875 12.734375 13.167969 L 12.800781 12.871094 L 12.898438 13.027344 C 13.695312 12.804688 14.585938 12.757812 15.503906 12.9375 C 17.199219 13.265625 18.570312 14.285156 19.269531 15.566406 C 19.273438 15.5625 19.273438 15.5625 19.277344 15.558594 L 19.183594 13.867188 C 19.179688 13.871094 19.175781 13.878906 19.171875 13.882812 C 18.472656 12.605469 17.097656 11.585938 15.398438 11.257812 C 14.59375 11.097656 13.8125 11.117188 13.089844 11.277344 C 12.726562 9.761719 11.636719 8.296875 10.035156 7.390625 C 10.382812 7.128906 10.765625 6.902344 11.179688 6.710938 C 12.765625 5.992188 14.4375 6.03125 15.667969 6.6875 C 15.667969 6.683594 15.667969 6.679688 15.667969 6.675781 L 14.71875 5.316406 C 14.71875 5.324219 14.71875 5.328125 14.71875 5.335938 C 14.101562 5.007812 13.375 4.832031 12.609375 4.828125 M 12.605469 4.824219 "/>
</g>
</g>
<path style=" stroke:none;fill-rule:nonzero;fill:rgb(97.647059%,97.647059%,97.647059%);fill-opacity:1;" d="M 16.46875 9 C 11.242188 9 6.996094 13.871094 6.996094 19.878906 C 6.996094 25.878906 11.242188 30.757812 16.46875 30.757812 C 19.542969 30.757812 22.265625 29.074219 23.996094 26.464844 C 25.722656 29.074219 28.457031 30.757812 31.527344 30.757812 C 36.753906 30.757812 41 25.882812 41 19.878906 C 41 13.867188 36.753906 9 31.527344 9 C 28.457031 9 25.722656 10.683594 23.996094 13.289062 C 22.265625 10.683594 19.542969 9 16.46875 9 M 16.46875 9 "/>
<path style=" stroke:none;fill-rule:nonzero;fill:url(#linear1);" d="M 23.945312 26.4375 C 20.546875 26.4375 16.851562 29.820312 17 31.957031 C 17.144531 34.09375 23.058594 42.996094 24.390625 42.996094 C 25.722656 42.996094 30.894531 34.269531 30.746094 31.773438 C 30.597656 29.28125 26.164062 26.253906 23.945312 26.433594 M 23.945312 26.433594 "/>
<path style=" stroke:none;fill-rule:nonzero;fill:rgb(92.54902%,75.686275%,0%);fill-opacity:1;" d="M 30.4375 30.683594 C 29.628906 33.960938 25.398438 40.875 24.214844 40.875 C 23.058594 40.875 18.449219 34.160156 17.164062 30.992188 C 17.042969 31.328125 16.988281 31.65625 17.007812 31.957031 C 17.15625 34.09375 23.070312 42.996094 24.398438 42.996094 C 25.730469 42.996094 30.90625 34.269531 30.757812 31.78125 C 30.734375 31.421875 30.621094 31.054688 30.445312 30.679688 M 30.441406 30.683594 "/>
<path style=" stroke:none;fill-rule:nonzero;fill:rgb(1.176471%,29.803922%,46.666667%);fill-opacity:1;" d="M 19.605469 17.371094 C 17.804688 17.371094 16.339844 18.828125 16.339844 20.613281 C 16.339844 22.402344 17.808594 23.859375 19.605469 23.859375 C 21.402344 23.859375 22.871094 22.402344 22.871094 20.613281 C 22.871094 18.828125 21.402344 17.371094 19.605469 17.371094 M 18.617188 18.953125 C 19.011719 18.953125 19.328125 19.269531 19.328125 19.660156 C 19.328125 20.046875 19.011719 20.363281 18.617188 20.363281 C 18.222656 20.363281 17.90625 20.046875 17.90625 19.660156 C 17.90625 19.269531 18.222656 18.953125 18.617188 18.953125 M 18.617188 18.953125 "/>
<path style=" stroke:none;fill-rule:nonzero;fill:rgb(1.176471%,29.803922%,46.666667%);fill-opacity:1;" d="M 28.847656 17.371094 C 27.050781 17.371094 25.582031 18.828125 25.582031 20.613281 C 25.582031 22.402344 27.054688 23.859375 28.847656 23.859375 C 30.644531 23.859375 32.117188 22.402344 32.117188 20.613281 C 32.117188 18.828125 30.644531 17.371094 28.847656 17.371094 M 27.859375 18.953125 C 28.253906 18.953125 28.574219 19.269531 28.574219 19.660156 C 28.574219 20.046875 28.253906 20.363281 27.859375 20.363281 C 27.46875 20.363281 27.148438 20.046875 27.148438 19.660156 C 27.148438 19.269531 27.46875 18.953125 27.859375 18.953125 M 27.859375 18.953125 "/>
</g>
</svg>
