<!-- color: #709f39 -->
<svg xmlns="http://www.w3.org/2000/svg" xmlns:xlink="http://www.w3.org/1999/xlink" width="48px" height="48px" viewBox="0 0 48 48" version="1.1">
<g id="surface1">
<path style=" stroke:none;fill-rule:nonzero;fill:rgb(97.647059%,97.647059%,97.647059%);fill-opacity:1;" d="M 23 11 L 11 21 C 10.125 21.773438 9.785156 22.441406 10.3125 23 C 10.867188 23.558594 11.53125 23.46875 12 23 L 12 34 C 12 34.492188 12.484375 35 13 35 L 35 35 C 35.515625 35 36 34.492188 36 34 L 36 23 C 36.46875 23.46875 37.128906 23.558594 37.6875 23 C 38.214844 22.441406 37.875 21.773438 37 21 L 25 11 M 23.5 22 C 24.148438 22 24.695312 22.421875 24.90625 23 L 26.09375 23 C 26.296875 22.414062 26.84375 22 27.5 22 C 28.148438 22 28.695312 22.421875 28.90625 23 L 30.09375 23 C 30.296875 22.414062 30.84375 22 31.5 22 C 32.304688 22 32.96875 22.632812 33 23.4375 L 33 23.5 C 33 24.15625 32.585938 24.703125 32 24.90625 L 32 26.09375 C 32.558594 26.296875 32.976562 26.8125 33 27.4375 L 33 27.503906 C 33 28.15625 32.585938 28.703125 32 28.90625 L 32 30.097656 C 32.558594 30.296875 32.976562 30.8125 33 31.441406 L 33 31.503906 C 33 32.332031 32.328125 33.003906 31.5 33.003906 C 30.84375 33.003906 30.296875 32.589844 30.09375 32.003906 L 28.90625 32.003906 C 28.703125 32.589844 28.15625 33.003906 27.5 33.003906 C 26.84375 33.003906 26.296875 32.589844 26.09375 32.003906 L 24.90625 32.003906 C 24.703125 32.589844 24.15625 33.003906 23.5 33.003906 C 22.671875 33.003906 22 32.332031 22 31.503906 C 22 30.847656 22.414062 30.300781 23 30.097656 L 23 28.910156 C 22.414062 28.703125 22 28.160156 22 27.503906 C 22 26.847656 22.414062 26.300781 23 26.097656 L 23 24.910156 C 22.414062 24.703125 22 24.160156 22 23.503906 C 22 22.675781 22.671875 22.003906 23.5 22.003906 M 24.90625 24 C 24.757812 24.433594 24.433594 24.757812 24 24.90625 L 24 26.09375 C 24.417969 26.242188 24.753906 26.578125 24.90625 27 L 26.09375 27 C 26.242188 26.566406 26.566406 26.242188 27 26.09375 L 27 24.90625 C 26.566406 24.757812 26.242188 24.433594 26.09375 24 M 28.90625 24 C 28.757812 24.433594 28.433594 24.757812 28 24.90625 L 28 26.09375 C 28.417969 26.242188 28.753906 26.578125 28.90625 27 L 30.09375 27 C 30.242188 26.566406 30.566406 26.242188 31 26.09375 L 31 24.90625 C 30.566406 24.757812 30.242188 24.433594 30.09375 24 M 24.90625 28 C 24.757812 28.433594 24.433594 28.757812 24 28.90625 L 24 30.09375 C 24.417969 30.242188 24.753906 30.578125 24.90625 31 L 26.09375 31 C 26.242188 30.566406 26.566406 30.242188 27 30.09375 L 27 28.90625 C 26.566406 28.757812 26.242188 28.433594 26.09375 28 M 28.90625 28 C 28.761719 28.433594 28.433594 28.757812 28.007812 28.90625 L 28.007812 30.09375 C 28.425781 30.242188 28.761719 30.578125 28.90625 31 L 30.097656 31 C 30.242188 30.566406 30.570312 30.242188 31.003906 30.09375 L 31.003906 28.90625 C 30.566406 28.757812 30.242188 28.433594 30.097656 28 M 28.90625 28 "/>
</g>
</svg>
