<!-- color: #2c65b5 -->
<svg xmlns="http://www.w3.org/2000/svg" xmlns:xlink="http://www.w3.org/1999/xlink" width="48px" height="48px" viewBox="0 0 48 48" version="1.1">
<g id="surface1">
<path style=" stroke:none;fill-rule:nonzero;fill:rgb(97.647059%,97.647059%,97.647059%);fill-opacity:1;" d="M 6.28125 14.5 C 6.207031 14.644531 6.132812 14.789062 6.0625 14.933594 C 7.1875 15.558594 10.429688 17.1875 11.96875 18.152344 C 13.914062 19.34375 16.542969 21.773438 16.75 22.183594 C 14.726562 25.707031 15.644531 28.824219 15.40625 29.15625 C 15.234375 29.433594 13.644531 31.179688 14.15625 31.4375 C 14.664062 31.691406 15.472656 31.292969 15.59375 31.214844 C 15.847656 31.058594 16.109375 30.832031 16 31.28125 C 15.785156 32.199219 14.808594 34.40625 16.15625 33.9375 C 16.320312 33.84375 18.488281 31.453125 18.75 31.371094 C 23.0625 32.496094 27.886719 31.980469 28.777344 31.5625 C 29.242188 31.59375 30.558594 32.421875 31.308594 32.816406 C 32.058594 33.207031 34.101562 34.1875 33.496094 32.40625 C 33.308594 31.84375 31.964844 30.40625 32.183594 30.3125 C 32.664062 30.121094 33.851562 30.808594 34.308594 30.9375 C 35.675781 31.320312 35.859375 30.789062 34.996094 29.621094 C 34.144531 28.453125 34.015625 28.632812 33.746094 28.09375 C 33.535156 27.660156 33.746094 27.179688 33.902344 27.0625 C 34.179688 26.851562 38.261719 24.585938 39.21875 23.71875 C 40.636719 22.429688 39.21875 20.820312 38.871094 20.59375 C 35.929688 18.476562 32.910156 18.929688 32.871094 18.59375 C 32.851562 18.210938 32.859375 17.105469 32.808594 16.722656 C 32.515625 14.128906 31.316406 14.78125 31.152344 14.78125 C 29.953125 14.96875 30.394531 16.804688 30.902344 18.53125 C 30.941406 18.972656 30.484375 18.777344 30.214844 18.3125 C 29.292969 15.839844 28.90625 15.882812 28.652344 15.808594 C 28.40625 15.753906 27.539062 16.28125 27.554688 17.28125 C 27.558594 17.566406 27.898438 18.925781 27.898438 19.34375 C 27.332031 19.839844 27.304688 20.964844 26.710938 21.375 C 24.980469 21.734375 20.824219 20.519531 20.304688 20.464844 C 18.507812 20.128906 17.722656 21.476562 17.433594 21.152344 C 15.101562 18.480469 11.539062 16.496094 9.996094 16.152344 C 9.398438 16.023438 7.378906 15.132812 6.652344 14.683594 C 6.535156 14.613281 6.402344 14.5625 6.273438 14.496094 M 38.34375 16.839844 C 37.78125 17.445312 37.878906 19.707031 37.996094 19.6875 C 38.570312 19.570312 38.515625 16.65625 38.34375 16.839844 M 39.972656 17.183594 C 39.90625 17 38.425781 19.078125 38.6875 19.84375 C 38.804688 20.175781 40.171875 17.765625 39.972656 17.183594 M 32.28125 20.71875 C 32.300781 20.699219 32.324219 20.726562 32.347656 20.75 C 32.519531 21.320312 32.710938 21.863281 33.84375 22 C 33.976562 22.015625 33.214844 22.460938 32.691406 22.1875 C 32.214844 21.898438 32.171875 20.847656 32.28125 20.71875 M 35.21875 23.589844 C 35.324219 23.574219 35.398438 23.578125 35.472656 23.589844 C 35.75 23.660156 33.460938 24.851562 33.285156 24.6875 C 33.175781 24.582031 34.503906 23.722656 35.222656 23.589844 M 35.816406 24.34375 C 36.054688 24.363281 34.492188 25.980469 34.316406 25.8125 C 34.1875 25.695312 35.328125 24.304688 35.816406 24.34375 M 35.816406 24.34375 "/>
</g>
</svg>
