<!-- color: #4c6392 -->
<svg xmlns="http://www.w3.org/2000/svg" xmlns:xlink="http://www.w3.org/1999/xlink" width="48px" height="48px" viewBox="0 0 48 48" version="1.1">
<g id="surface1">
<path style="fill:none;stroke-width:4.803;stroke-linecap:butt;stroke-linejoin:miter;stroke:rgb(95.686275%,95.686275%,100%);stroke-opacity:1;stroke-miterlimit:4;" d="M -49.63336 28.067854 C -49.63336 35.48326 -54.042395 41.504316 -59.49159 41.504316 C -64.940785 41.504316 -69.349821 35.48326 -69.349821 28.067854 C -69.349821 20.652448 -64.940785 14.652518 -59.49159 14.652518 C -54.042395 14.652518 -49.63336 20.652448 -49.63336 28.067854 M -49.63336 28.067854 " transform="matrix(0.251614,0,0,0.184898,29.968917,27.81031)"/>
<path style="fill:none;stroke-width:4.803;stroke-linecap:butt;stroke-linejoin:miter;stroke:rgb(95.686275%,95.686275%,100%);stroke-opacity:1;stroke-miterlimit:4;" d="M -49.633356 28.067864 C -49.633356 35.483271 -54.042391 41.504327 -59.491586 41.504327 C -64.940781 41.504327 -69.349817 35.483271 -69.349817 28.067864 C -69.349817 20.652458 -64.940781 14.652529 -59.491586 14.652529 C -54.042391 14.652529 -49.633356 20.652458 -49.633356 28.067864 M -49.633356 28.067864 " transform="matrix(0.251614,0,0,0.184898,29.968916,9.810308)"/>
<path style="fill:none;stroke-width:4.803;stroke-linecap:butt;stroke-linejoin:miter;stroke:rgb(95.686275%,95.686275%,100%);stroke-opacity:1;stroke-miterlimit:4;" d="M -49.63332 28.067854 C -49.63332 35.48326 -54.042356 41.504316 -59.491551 41.504316 C -64.940746 41.504316 -69.349781 35.48326 -69.349781 28.067854 C -69.349781 20.652448 -64.940746 14.652518 -59.491551 14.652518 C -54.042356 14.652518 -49.63332 20.652448 -49.63332 28.067854 M -49.63332 28.067854 " transform="matrix(0.251614,0,0,0.184898,47.968907,27.81031)"/>
<path style=" stroke:none;fill-rule:nonzero;fill:rgb(95.686275%,95.686275%,100%);fill-opacity:1;" d="M 14 17.433594 L 14 30.6875 L 16 30.660156 L 16 17.378906 M 14 17.433594 "/>
<path style=" stroke:none;fill-rule:nonzero;fill:rgb(95.686275%,95.686275%,100%);fill-opacity:1;" d="M 20 17 L 30.996094 17 C 31.574219 17 31.996094 17.453125 31.996094 18 L 31.996094 30.6875 L 33.996094 30.660156 L 33.996094 15.996094 C 33.996094 15.414062 33.527344 15 32.996094 15 L 19.996094 15 M 20 17 "/>
<path style=" stroke:none;fill-rule:nonzero;fill:rgb(95.686275%,95.686275%,100%);fill-opacity:1;" d="M 21 13 L 17 16 L 21 19 M 21 13 "/>
</g>
</svg>
