<!-- color: #eeeeee -->
<svg xmlns="http://www.w3.org/2000/svg" xmlns:xlink="http://www.w3.org/1999/xlink" width="48px" height="48px" viewBox="0 0 48 48" version="1.1">
<g id="surface1">
<path style=" stroke:none;fill-rule:nonzero;fill:rgb(32.54902%,32.54902%,37.254902%);fill-opacity:0.941176;" d="M 36 32.320312 C 36 33.648438 35.546875 34.761719 34.644531 35.65625 C 33.742188 36.550781 32.625 37 31.289062 37 C 29.746094 37 28.402344 36.433594 27.261719 35.296875 L 13.941406 22.09375 C 12.652344 20.789062 12.003906 19.253906 12.003906 17.484375 C 12.003906 15.679688 12.632812 14.144531 13.890625 12.886719 C 15.148438 11.628906 16.683594 11 18.492188 11 C 20.304688 11 21.855469 11.640625 23.179688 12.921875 L 33.550781 23.234375 C 33.65625 23.347656 33.722656 23.472656 33.722656 23.609375 C 33.722656 23.789062 33.546875 24.054688 33.199219 24.398438 C 32.847656 24.742188 32.582031 24.917969 32.398438 24.917969 C 32.25 24.917969 32.121094 24.859375 32.007812 24.746094 L 21.609375 14.417969 C 20.714844 13.542969 19.671875 13.105469 18.507812 13.105469 C 17.292969 13.105469 16.273438 13.53125 15.4375 14.382812 C 14.605469 15.234375 14.1875 16.257812 14.1875 17.460938 C 14.1875 18.652344 14.628906 19.679688 15.492188 20.539062 L 28.800781 33.761719 C 29.519531 34.476562 30.351562 34.835938 31.28125 34.835938 C 32.011719 34.835938 32.617188 34.59375 33.097656 34.117188 C 33.578125 33.640625 33.816406 33.039062 33.816406 32.316406 C 33.816406 31.382812 33.464844 30.5625 32.734375 29.847656 L 22.777344 19.964844 C 22.476562 19.691406 22.136719 19.554688 21.757812 19.554688 C 21.425781 19.554688 21.152344 19.664062 20.933594 19.878906 C 20.71875 20.09375 20.609375 20.367188 20.609375 20.695312 C 20.609375 21.058594 20.75 21.394531 21.035156 21.695312 L 28.0625 28.671875 C 28.175781 28.785156 28.234375 28.910156 28.234375 29.046875 C 28.234375 29.230469 28.054688 29.496094 27.703125 29.847656 C 27.351562 30.199219 27.078125 30.375 26.898438 30.375 C 26.761719 30.375 26.636719 30.320312 26.523438 30.207031 L 19.496094 23.230469 C 18.773438 22.539062 18.414062 21.691406 18.414062 20.691406 C 18.414062 19.761719 18.742188 18.972656 19.394531 18.324219 C 20.039062 17.679688 20.839844 17.355469 21.773438 17.355469 C 22.78125 17.355469 23.632812 17.710938 24.328125 18.429688 L 34.289062 28.3125 C 35.433594 29.425781 36.003906 30.761719 36.003906 32.3125 M 36.003906 32.3125 "/>
</g>
</svg>
