<!-- color: #0079c1 -->
<svg xmlns="http://www.w3.org/2000/svg" xmlns:xlink="http://www.w3.org/1999/xlink" width="48px" height="48px" viewBox="0 0 48 48" version="1.1">
<g id="surface1">
<path style=" stroke:none;fill-rule:evenodd;fill:rgb(97.647059%,97.647059%,97.647059%);fill-opacity:1;" d="M 23.253906 12 C 23.242188 12 23.230469 12.003906 23.21875 12.007812 L 21.050781 12.53125 C 20.957031 12.554688 20.894531 12.636719 20.894531 12.730469 L 21.851562 17.121094 L 21.890625 17.140625 C 22.621094 16.898438 23.394531 16.765625 24.207031 16.765625 C 27.867188 16.765625 30.898438 19.445312 31.425781 22.9375 L 35.886719 21.964844 C 35.976562 21.921875 36.019531 21.828125 35.996094 21.734375 L 35.46875 19.578125 C 35.445312 19.484375 35.363281 19.421875 35.269531 19.421875 L 31.726562 19.417969 C 31.425781 18.855469 31.054688 18.324219 30.617188 17.839844 L 31.78125 14.589844 C 31.8125 14.5 31.777344 14.398438 31.695312 14.351562 L 29.785156 13.199219 C 29.703125 13.148438 29.605469 13.164062 29.535156 13.226562 L 27.136719 15.609375 C 26.425781 15.382812 25.695312 15.257812 24.96875 15.234375 L 23.476562 12.113281 C 23.445312 12.050781 23.382812 12.011719 23.316406 11.996094 C 23.304688 11.996094 23.289062 11.996094 23.28125 11.996094 M 23.261719 12.007812 "/>
<path style=" stroke:none;fill-rule:evenodd;fill:rgb(97.647059%,97.647059%,97.647059%);fill-opacity:1;" d="M 16.214844 15.179688 C 16.167969 15.183594 16.125 15.203125 16.089844 15.238281 L 14.511719 16.808594 C 14.445312 16.875 14.433594 16.980469 14.484375 17.058594 L 16.335938 20.089844 C 16.003906 20.640625 15.742188 21.230469 15.554688 21.855469 L 12.160156 22.558594 C 12.066406 22.574219 11.996094 22.660156 11.996094 22.753906 L 11.996094 24.976562 C 11.996094 25.074219 12.0625 25.15625 12.148438 25.175781 L 15.445312 25.972656 C 15.621094 26.695312 15.894531 27.378906 16.253906 28.011719 L 14.347656 30.90625 C 14.292969 30.988281 14.304688 31.09375 14.375 31.160156 L 15.953125 32.730469 C 16.019531 32.796875 16.121094 32.808594 16.203125 32.757812 L 19.253906 29.402344 L 19.253906 29.351562 C 17.8125 28.027344 16.910156 26.136719 16.910156 24.027344 C 16.910156 21.691406 18.019531 19.621094 19.742188 18.289062 L 16.347656 15.214844 C 16.308594 15.191406 16.261719 15.179688 16.214844 15.183594 M 16.214844 15.183594 "/>
<path style=" stroke:none;fill-rule:evenodd;fill:rgb(97.647059%,97.647059%,97.647059%);fill-opacity:1;" d="M 31.328125 25.589844 C 30.609375 28.847656 27.695312 31.289062 24.214844 31.289062 C 23.289062 31.289062 22.410156 31.117188 21.609375 30.808594 L 21.585938 30.824219 L 20.421875 35.214844 C 20.414062 35.308594 20.476562 35.394531 20.574219 35.417969 L 22.726562 35.996094 C 22.820312 36.019531 22.914062 35.980469 22.953125 35.902344 L 24.664062 32.792969 C 25.3125 32.800781 25.953125 32.734375 26.597656 32.585938 L 28.902344 35.160156 C 28.96875 35.230469 29.078125 35.25 29.160156 35.199219 L 31.09375 34.089844 C 31.175781 34.042969 31.214844 33.945312 31.1875 33.855469 L 30.238281 30.617188 C 30.78125 30.109375 31.238281 29.53125 31.609375 28.90625 L 35.078125 29.105469 C 35.175781 29.113281 35.265625 29.046875 35.289062 28.960938 L 35.867188 26.8125 C 35.890625 26.722656 35.851562 26.625 35.769531 26.578125 L 31.339844 25.601562 M 31.335938 25.597656 "/>
</g>
</svg>
