<!-- color: #3d3d3d -->
<svg xmlns="http://www.w3.org/2000/svg" xmlns:xlink="http://www.w3.org/1999/xlink" width="48px" height="48px" viewBox="0 0 48 48" version="1.1">
<g id="surface1">
<path style=" stroke:none;fill-rule:evenodd;fill:rgb(100%,29.803922%,29.803922%);fill-opacity:1;" d="M 15.378906 31.960938 C 15.542969 31.820312 15.800781 31.625 16.136719 31.652344 C 16.472656 31.679688 17.230469 31.738281 17.511719 31.679688 C 17.789062 31.625 18.015625 31.710938 18.097656 31.484375 C 18.183594 31.261719 18.210938 30.53125 18.4375 30.253906 C 18.660156 29.972656 19.277344 29.664062 19.359375 29.382812 C 19.445312 29.105469 19.472656 28.992188 19.359375 28.710938 C 19.246094 28.429688 18.996094 28.179688 18.628906 28.011719 C 18.265625 27.84375 17.929688 27.730469 17.929688 27.730469 C 17.929688 27.730469 17.199219 28.402344 17.171875 28.570312 C 17.140625 28.734375 17.226562 28.90625 17.058594 28.992188 C 16.890625 29.078125 16.609375 28.824219 16.554688 28.375 C 16.496094 27.929688 16.695312 27.394531 16.667969 27.089844 C 16.640625 26.78125 16.445312 26.5 16.609375 26.191406 C 16.777344 25.882812 17.171875 25.410156 17.480469 25.191406 C 17.789062 24.964844 18.320312 24.9375 18.402344 24.660156 C 18.488281 24.386719 17.871094 23.316406 17.871094 23.0625 C 17.871094 22.8125 17.957031 22.335938 17.757812 21.945312 C 17.5625 21.550781 17.335938 20.71875 16.496094 20.179688 C 15.65625 19.648438 15.066406 19.425781 14.929688 19.03125 C 14.785156 18.636719 14.898438 18.636719 15.070312 18.527344 C 15.234375 18.414062 14.621094 17.773438 14.425781 17.15625 C 14.230469 16.539062 13.894531 15.3125 14.03125 15.199219 C 14.171875 15.09375 14.589844 15.199219 14.675781 15.429688 C 14.761719 15.652344 15.097656 17.023438 15.097656 17.023438 C 15.097656 17.023438 15.011719 15.988281 15.15625 15.679688 C 15.304688 15.363281 15.472656 15.0625 15.636719 15.148438 C 15.804688 15.234375 15.722656 17.050781 15.722656 17.050781 C 15.722656 17.050781 15.886719 16.621094 15.996094 16.371094 C 16.113281 16.117188 16.191406 15.894531 16.339844 16.035156 C 16.480469 16.183594 16.363281 17.519531 16.363281 17.519531 C 16.363281 17.519531 16.589844 17.183594 16.761719 17.097656 C 16.925781 17.011719 17.011719 16.957031 17.121094 17.152344 C 17.234375 17.347656 17.210938 17.601562 17.210938 17.601562 C 17.210938 17.601562 17.296875 17.320312 17.484375 17.320312 C 17.679688 17.320312 17.9375 17.40625 17.851562 17.636719 C 17.765625 17.859375 18.609375 17.65625 18.554688 18.058594 C 18.496094 18.449219 18.554688 18.8125 18.777344 18.8125 C 19.003906 18.8125 19.140625 19.121094 19.589844 19.007812 C 19.867188 19.175781 19.445312 20.203125 19.648438 20.070312 C 19.84375 19.929688 20.292969 19.820312 20.460938 20.128906 C 20.625 20.433594 20.234375 20.800781 20.460938 21.082031 C 20.683594 21.359375 20.460938 21.613281 20.796875 21.835938 C 21.132812 22.058594 21.160156 21.890625 21.246094 22.394531 C 21.332031 22.898438 21.332031 23.121094 21.46875 23.320312 C 21.609375 23.515625 21.777344 23.65625 21.75 24.074219 C 21.722656 24.496094 21.46875 24.886719 21.804688 24.828125 C 22.140625 24.773438 22.285156 24.4375 22.535156 24.296875 C 22.789062 24.15625 22.84375 24.132812 23.179688 23.875 C 23.515625 23.625 23.574219 23.289062 23.769531 23.203125 C 23.964844 23.117188 24.132812 23.144531 24.414062 23.035156 C 24.695312 22.921875 24.976562 22.671875 25.117188 22.5625 C 25.261719 22.449219 25.261719 22.394531 25.511719 22.167969 C 25.765625 21.945312 26.015625 21.804688 26.1875 21.441406 C 26.351562 21.078125 26.328125 21.042969 26.523438 20.515625 C 26.71875 19.984375 26.664062 19.816406 26.773438 19.59375 C 26.886719 19.363281 26.886719 19.164062 27.082031 18.976562 C 27.277344 18.78125 27.445312 18.554688 27.476562 18.746094 C 27.503906 18.9375 27.503906 19.226562 27.503906 19.394531 C 27.503906 19.558594 27.753906 19.140625 27.980469 18.71875 C 28.207031 18.296875 28.09375 18.242188 28.175781 17.878906 C 28.261719 17.515625 28.175781 17.265625 28.207031 16.84375 C 28.234375 16.425781 28.289062 16.398438 28.320312 15.78125 C 28.347656 15.167969 28.398438 15.0625 28.398438 14.617188 C 28.398438 14.171875 28.378906 13.984375 28.375 13.65625 C 28.472656 13.402344 28.582031 13.324219 28.65625 13.347656 C 28.746094 13.371094 28.867188 13.371094 28.941406 13.714844 C 29 14.074219 29.046875 14.347656 29.105469 15.027344 C 29.046875 15.699219 29.019531 16.289062 29.132812 16.457031 C 29.242188 16.621094 29.324219 16.597656 29.410156 16.398438 C 29.496094 16.203125 29.496094 16.121094 29.605469 15.78125 C 29.71875 15.445312 29.710938 15.226562 29.769531 14.757812 C 29.738281 14.058594 29.773438 13.742188 29.800781 13.207031 C 29.828125 12.675781 29.796875 12.660156 29.855469 12.339844 C 29.90625 12.035156 29.976562 11.964844 30.222656 12 C 30.363281 12.167969 30.386719 12.589844 30.445312 12.953125 C 30.503906 13.320312 30.503906 13.292969 30.53125 13.964844 C 30.558594 14.636719 30.53125 14.902344 30.476562 15.132812 C 30.460938 15.378906 30.414062 15.628906 30.445312 15.730469 C 30.609375 15.617188 30.609375 15.421875 30.78125 15.027344 C 30.949219 14.636719 31.09375 14.300781 31.144531 13.851562 C 31.203125 13.40625 31.351562 13.238281 31.445312 12.746094 C 31.675781 12.273438 31.71875 12.15625 31.878906 12.144531 C 32.039062 12.261719 32.117188 12.367188 32.101562 12.730469 C 32.019531 13.125 32.019531 13.320312 31.878906 13.714844 C 31.734375 14.105469 31.765625 14.273438 31.566406 14.695312 C 31.445312 15.0625 31.433594 15.1875 31.371094 15.3125 C 31.652344 15.339844 31.648438 15.230469 31.824219 15.03125 C 32.105469 14.492188 32.003906 14.605469 32.101562 14.445312 C 32.257812 14.117188 32.394531 13.996094 32.523438 14.050781 C 32.671875 14.273438 32.71875 14.328125 32.609375 14.578125 C 32.496094 14.828125 32.585938 14.664062 32.414062 15.023438 C 32.246094 15.390625 32.078125 15.527344 32.304688 15.503906 C 32.527344 15.476562 32.554688 15.503906 32.699219 15.277344 C 32.839844 15.050781 32.699219 15.023438 33.007812 14.882812 C 33.316406 14.742188 33.511719 14.488281 33.59375 14.6875 C 33.679688 14.882812 33.707031 14.855469 33.511719 15.132812 C 33.316406 15.414062 33.117188 15.5 33.203125 15.636719 C 33.285156 15.777344 33.511719 15.804688 33.679688 15.804688 C 33.847656 15.804688 33.875 15.832031 33.792969 16.113281 C 33.707031 16.390625 33.679688 16.390625 33.652344 16.535156 C 33.625 16.679688 33.765625 16.785156 33.765625 16.785156 C 33.765625 16.785156 34.015625 16.617188 33.820312 17.035156 C 33.625 17.460938 33.511719 17.347656 33.398438 17.539062 C 33.285156 17.734375 33.175781 17.9375 33.34375 17.9375 C 33.511719 17.9375 33.679688 17.910156 33.652344 18.050781 C 33.625 18.191406 33.371094 18.328125 33.511719 18.410156 C 33.652344 18.496094 33.761719 18.386719 33.871094 18.496094 C 33.984375 18.609375 33.871094 18.808594 33.871094 18.941406 C 33.871094 19.089844 33.847656 19.195312 33.898438 19.339844 C 33.960938 19.480469 34.066406 19.617188 33.984375 19.761719 C 33.898438 19.902344 34.011719 19.929688 33.789062 20.070312 C 33.566406 20.210938 33.429688 20.183594 33.429688 20.320312 C 33.429688 20.464844 33.398438 20.433594 33.539062 20.546875 C 33.683594 20.660156 33.851562 20.574219 33.734375 20.824219 C 33.621094 21.078125 33.648438 21.046875 33.589844 21.273438 C 33.535156 21.496094 33.621094 21.386719 33.367188 21.917969 C 33.117188 22.449219 32.863281 22.839844 32.609375 22.980469 C 32.359375 23.121094 32.414062 23.425781 32.582031 23.484375 C 32.746094 23.539062 32.777344 23.789062 32.609375 24.15625 C 32.441406 24.519531 32.246094 24.996094 32.1875 25.246094 C 32.132812 25.5 32.074219 25.527344 31.789062 25.839844 C 31.515625 26.148438 31.289062 26.425781 31.03125 26.511719 C 30.78125 26.597656 30.757812 26.875 30.585938 27.015625 C 30.414062 27.15625 30.359375 27.238281 29.992188 27.238281 C 29.632812 27.238281 29.632812 27.152344 29.265625 27.265625 C 28.898438 27.375 28.734375 27.492188 28.703125 27.660156 C 28.675781 27.828125 28.5625 27.910156 28.339844 27.855469 C 28.117188 27.792969 28.28125 27.96875 28.003906 28.078125 C 27.722656 28.191406 27.808594 28.332031 27.472656 28.300781 C 27.132812 28.273438 26.96875 28.023438 26.882812 28.300781 C 26.796875 28.582031 26.769531 28.804688 26.40625 28.554688 C 26.039062 28.300781 25.84375 27.628906 25.644531 28.332031 C 25.453125 29.03125 25.453125 29.199219 25.675781 29.394531 C 25.898438 29.589844 25.953125 29.757812 26.460938 29.953125 C 26.964844 30.148438 26.964844 30.378906 27.328125 30.515625 C 27.695312 30.660156 27.722656 30.710938 28.28125 30.992188 C 28.84375 31.273438 28.984375 31.355469 29.320312 31.550781 C 29.65625 31.746094 29.742188 31.945312 29.824219 32.140625 C 29.910156 32.335938 30.273438 32.5625 30.132812 32.839844 C 29.992188 33.121094 29.710938 32.953125 29.710938 33.09375 C 29.710938 33.234375 29.765625 33.34375 29.652344 33.625 C 29.539062 33.902344 29.570312 34.015625 29.175781 34.128906 C 28.777344 34.242188 28.558594 34.292969 28.359375 34.210938 C 28.164062 34.128906 28.109375 34.464844 27.910156 34.378906 C 27.71875 34.292969 27.632812 34.042969 27.488281 34.183594 C 27.347656 34.324219 27.601562 34.40625 27.265625 34.492188 C 26.929688 34.578125 26.902344 34.351562 26.867188 34.554688 C 26.847656 34.742188 26.960938 34.945312 26.597656 34.742188 C 26.230469 34.554688 26.34375 34.15625 26.066406 34.4375 C 25.785156 34.714844 25.921875 35.050781 25.417969 34.773438 C 24.917969 34.492188 25.082031 34.464844 24.691406 34.492188 C 24.296875 34.519531 24.296875 34.554688 24.160156 34.242188 C 24.015625 33.933594 24.300781 34.015625 23.679688 33.988281 C 23.0625 33.960938 23.371094 34.355469 22.976562 33.824219 C 22.585938 33.292969 22.5 32.761719 22.332031 33.347656 C 22.167969 33.9375 22.332031 34.074219 22.082031 34.246094 C 21.832031 34.410156 20.539062 34.359375 20.539062 34.359375 C 20.539062 34.359375 20.511719 35.003906 20.398438 35.113281 C 20.285156 35.226562 20.003906 35 19.753906 35.226562 C 19.503906 35.449219 19.660156 35.589844 19.4375 35.785156 C 19.214844 35.980469 18.765625 36.007812 18.765625 36.007812 C 18.765625 36.007812 19.074219 35.757812 19.15625 35.535156 C 19.242188 35.3125 19.351562 34.917969 19.351562 34.917969 C 19.351562 34.917969 18.902344 35.085938 18.707031 35.113281 C 18.511719 35.140625 18.203125 35.085938 18.203125 35.085938 L 18.289062 35.730469 C 18.289062 35.730469 17.757812 35.730469 17.757812 35.503906 C 17.757812 35.28125 17.925781 34.664062 18.066406 34.582031 C 18.214844 34.496094 18.402344 34.523438 18.402344 34.523438 C 18.402344 34.523438 18.347656 34.246094 18.488281 34.1875 C 18.636719 34.132812 18.71875 34.1875 18.9375 34.1875 C 19.160156 34.1875 20.171875 33.878906 20.171875 33.878906 C 20.171875 33.878906 20.144531 33.152344 20.257812 32.84375 C 20.371094 32.535156 20.902344 31.667969 20.648438 31.53125 C 20.398438 31.386719 20.199219 31.5 20.0625 31.644531 C 19.917969 31.785156 19.667969 32.203125 19.136719 32.316406 C 18.605469 32.429688 18.183594 32.484375 18.183594 32.484375 C 18.183594 32.484375 18.070312 32.539062 18.070312 32.761719 C 18.070312 32.988281 18.265625 33.210938 17.984375 33.488281 C 17.714844 33.769531 17.480469 34.019531 17.171875 33.882812 C 16.867188 33.742188 16.808594 33.574219 16.808594 33.574219 C 16.808594 33.574219 17.03125 33.714844 17.398438 33.632812 C 17.761719 33.546875 17.628906 32.847656 17.589844 32.707031 C 17.5625 32.566406 17.285156 32.425781 17.113281 32.566406 C 16.945312 32.707031 16.71875 33.066406 16.863281 33.210938 C 17.003906 33.351562 16.46875 32.902344 16.496094 32.707031 C 16.523438 32.511719 16.609375 32.371094 16.609375 32.371094 C 16.609375 32.371094 16.246094 32.371094 16.023438 32.339844 C 15.800781 32.3125 15.628906 32.199219 15.628906 32.371094 C 15.628906 32.535156 15.742188 33.292969 15.488281 32.816406 C 15.234375 32.339844 15.121094 32.226562 15.375 31.976562 M 15.371094 31.980469 "/>
</g>
</svg>
