<!-- color: #ff7700 -->
<svg xmlns="http://www.w3.org/2000/svg" width="48" height="48" viewBox="0 0 48 48">
 <g>
  <path d="M 14 11 C 12.339844 11 11 12.339844 11 14 L 11 34 C 11 35.660156 12.339844 37 14 37 L 34 37 C 35.660156 37 37 35.660156 37 34 L 37 14 C 37 12.339844 35.660156 11 34 11 Z M 18 18 L 32 18 L 32 21 C 32 22 31 23 30 23 L 27 23 L 27 34 L 23 34 C 22 34 21 33 21 32 L 21 23 L 16 23 L 16 20 C 16 19 17 18 18 18 Z M 18 18 " fill="#f9f9f9"/>
  <path d="M 32 18 L 20 14 C 20 15 21 18 22 18 Z M 32 18 " fill="#ffb47f"/>
 </g>
</svg>
