<!-- color: #39597b -->
<svg xmlns="http://www.w3.org/2000/svg" xmlns:xlink="http://www.w3.org/1999/xlink" width="48px" height="48px" viewBox="0 0 48 48" version="1.1">
<g id="surface1">
<path style=" stroke:none;fill-rule:nonzero;fill:rgb(67.058824%,23.921569%,23.921569%);fill-opacity:1;" d="M 13.777344 34 L 34.222656 34 C 36 34 36 34 36 32.285156 L 36 17.714844 L 24 10.003906 L 12 17.714844 L 12 32.285156 C 12 34 12 34 13.78125 34 M 13.78125 34 "/>
<path style=" stroke:none;fill-rule:nonzero;fill:rgb(97.647059%,97.647059%,97.647059%);fill-opacity:1;" d="M 14 12 L 14 32 L 33.996094 32 L 33.996094 12 M 14 12 "/>
<path style=" stroke:none;fill-rule:nonzero;fill:rgb(83.137255%,29.803922%,29.803922%);fill-opacity:1;" d="M 13.777344 34 L 34.222656 34 C 36 34 36 34 36 32.320312 L 36 18.003906 L 12 32.320312 C 12 34 12 34 13.78125 34 M 13.777344 34 "/>
<path style=" stroke:none;fill-rule:nonzero;fill:rgb(98.039216%,35.294118%,35.294118%);fill-opacity:1;" d="M 34.21875 34 L 13.773438 34 C 11.992188 34 11.992188 34 11.992188 32.320312 L 11.992188 18.003906 L 35.992188 32.320312 C 35.992188 34 35.992188 34 34.222656 34 M 34.226562 34 "/>
</g>
</svg>
