<!-- color: #294172 -->
<svg xmlns="http://www.w3.org/2000/svg" xmlns:xlink="http://www.w3.org/1999/xlink" width="48px" height="48px" viewBox="0 0 48 48" version="1.1">
<g id="surface1">
<path style=" stroke:none;fill-rule:nonzero;fill:rgb(97.647059%,97.647059%,97.647059%);fill-opacity:1;" d="M 12 28.347656 C 12 28.347656 12 33.800781 18 33.800781 L 30 33.800781 C 36 33.800781 36 28.347656 36 28.347656 L 36 17.4375 C 36 11.984375 30 11.984375 30 11.984375 L 18 11.984375 C 12 11.984375 12 17.4375 12 17.4375 M 12 28.347656 "/>
<path style=" stroke:none;fill-rule:nonzero;fill:rgb(86.27451%,86.27451%,86.27451%);fill-opacity:1;" d="M 30 36 C 36 36 36 28.363281 36 28.363281 C 36 28.363281 36 33.816406 30 33.816406 L 18 33.816406 C 12 33.816406 12 28.363281 12 28.363281 C 12 28.363281 12 36 18 36 M 30 36 "/>
<path style=" stroke:none;fill-rule:nonzero;fill:rgb(52.54902%,52.54902%,52.54902%);fill-opacity:1;" d="M 24.984375 22.078125 L 24.984375 26.035156 C 24.984375 28.226562 23.105469 30.007812 20.789062 30.007812 C 20.4375 30.007812 20.1875 29.972656 19.863281 29.890625 C 19.390625 29.773438 19.003906 29.40625 19.003906 28.976562 C 19.003906 28.453125 19.402344 28.078125 19.992188 28.078125 C 20.277344 28.078125 20.378906 28.136719 20.792969 28.136719 C 22.015625 28.136719 23.007812 27.195312 23.007812 26.039062 L 23.007812 24.226562 C 23.007812 24.0625 22.867188 23.933594 22.695312 23.933594 L 21.238281 23.933594 C 20.699219 23.933594 20.257812 23.523438 20.257812 23.011719 C 20.257812 22.488281 20.699219 22.078125 21.25 22.078125 "/>
<path style=" stroke:none;fill-rule:nonzero;fill:rgb(52.54902%,52.54902%,52.54902%);fill-opacity:1;" d="M 23.019531 23.910156 L 23.019531 19.949219 C 23.019531 17.757812 24.894531 15.984375 27.210938 15.984375 C 27.566406 15.984375 27.8125 16.023438 28.140625 16.101562 C 28.613281 16.21875 29 16.589844 29 17.015625 C 29 17.53125 28.601562 17.910156 28.007812 17.910156 C 27.726562 17.910156 27.625 17.859375 27.207031 17.859375 C 25.988281 17.859375 24.996094 18.796875 24.996094 19.949219 L 24.996094 21.765625 C 24.996094 21.929688 25.136719 22.0625 25.308594 22.0625 L 26.765625 22.0625 C 27.304688 22.0625 27.746094 22.472656 27.746094 22.984375 C 27.746094 23.5 27.304688 23.910156 26.753906 23.910156 "/>
</g>
</svg>
