<!-- color: #ffce7b -->
<svg xmlns="http://www.w3.org/2000/svg" xmlns:xlink="http://www.w3.org/1999/xlink" width="48px" height="48px" viewBox="0 0 48 48" version="1.1">
<g id="surface1">
<path style=" stroke:none;fill-rule:nonzero;fill:rgb(100%,61.568627%,18.431373%);fill-opacity:1;" d="M 38.996094 24 C 38.996094 27.3125 36.3125 30 32.996094 30 C 29.683594 30 26.996094 27.3125 26.996094 24 C 26.996094 20.6875 29.683594 18 32.996094 18 C 36.3125 18 38.996094 20.6875 38.996094 24 M 38.996094 24 "/>
<path style=" stroke:none;fill-rule:nonzero;fill:rgb(52.54902%,61.568627%,78.823529%);fill-opacity:1;" d="M 17.8125 16.78125 C 10.972656 16.859375 4.214844 22.992188 0 30 C 0 34 0 45 0 48 C 5 48 41.410156 48 48 48 C 48 44 48 41 48 36 C 39.738281 27.441406 24.652344 16.703125 17.808594 16.78125 M 17.8125 16.78125 "/>
</g>
</svg>
