<!-- color: #4b9cbf -->
<svg xmlns="http://www.w3.org/2000/svg" xmlns:xlink="http://www.w3.org/1999/xlink" width="48px" height="48px" viewBox="0 0 48 48" version="1.1">
<g id="surface1">
<path style=" stroke:none;fill-rule:nonzero;fill:rgb(97.647059%,97.647059%,97.647059%);fill-opacity:1;" d="M 12.425781 23.160156 L 14.171875 25.777344 L 17.148438 25.628906 L 21.09375 22.183594 L 21.070312 18.269531 L 23.808594 15.800781 L 23.855469 14.121094 L 21.398438 12.789062 L 18.183594 13.132812 L 14.78125 15.703125 L 11.992188 19.40625 M 12.425781 23.160156 "/>
<path style=" stroke:none;fill-rule:nonzero;fill:rgb(97.647059%,97.647059%,97.647059%);fill-opacity:1;" d="M 18.425781 28.148438 L 22.394531 29.53125 L 25.324219 28.84375 L 29.71875 26.671875 L 30.851562 24.546875 L 29.90625 21.980469 L 27.308594 20.449219 L 22.632812 22.472656 L 18.566406 24.941406 M 18.425781 28.152344 "/>
<path style=" stroke:none;fill-rule:nonzero;fill:rgb(97.647059%,97.647059%,97.647059%);fill-opacity:1;" d="M 36 25.285156 L 31.652344 25.53125 L 31.226562 21.730469 L 29.003906 19.851562 L 33.683594 19.703125 L 35.335938 20.542969 M 36 25.285156 "/>
<path style=" stroke:none;fill-rule:nonzero;fill:rgb(97.647059%,97.647059%,97.647059%);fill-opacity:1;" d="M 21.921875 21.960938 L 21.785156 18.460938 L 25.046875 15.851562 L 24.761719 13.976562 C 24.761719 13.976562 22.472656 12.726562 22.660156 12.777344 C 22.847656 12.828125 27.972656 13.582031 27.972656 13.582031 L 32.464844 15.851562 L 34.683594 18.570312 L 33.550781 18.925781 L 29.53125 18.527344 L 24.855469 20.457031 M 21.917969 21.96875 "/>
<path style=" stroke:none;fill-rule:nonzero;fill:rgb(97.647059%,97.647059%,97.647059%);fill-opacity:1;" d="M 26.671875 29.148438 L 30.613281 26.664062 L 35.191406 26.234375 C 35.191406 26.234375 34.277344 29.097656 34.226562 29.390625 C 34.183594 29.6875 33.09375 30.484375 33.09375 30.484375 L 30.800781 31.363281 L 28.582031 31.484375 M 26.671875 29.148438 "/>
<path style=" stroke:none;fill-rule:nonzero;fill:rgb(97.647059%,97.647059%,97.647059%);fill-opacity:1;" d="M 23.386719 30.519531 L 27.257812 36 L 29.480469 34.417969 L 25.984375 30.027344 M 23.386719 30.519531 "/>
</g>
</svg>
