<!-- color: #71435e -->
<svg xmlns="http://www.w3.org/2000/svg" xmlns:xlink="http://www.w3.org/1999/xlink" width="48px" height="48px" viewBox="0 0 48 48" version="1.1">
<g id="surface1">
<path style=" stroke:none;fill-rule:nonzero;fill:rgb(81.568627%,58.431373%,9.803922%);fill-opacity:1;" d="M 13.777344 35 L 34.222656 35 C 36 35 36 35 36 33.285156 L 36 18.714844 L 24 11.003906 L 12 18.714844 L 12 33.285156 C 12 35 12 35 13.78125 35 M 13.78125 35 "/>
<path style=" stroke:none;fill-rule:nonzero;fill:rgb(97.647059%,97.647059%,97.647059%);fill-opacity:1;" d="M 14 13 L 14 33 L 33.996094 33 L 33.996094 13 M 14 13 "/>
<path style=" stroke:none;fill-rule:nonzero;fill:rgb(95.294118%,69.803922%,21.176471%);fill-opacity:1;" d="M 13.777344 34 L 34.222656 34 C 36 34 36 34 36 32.320312 L 36 18.003906 L 12 32.320312 C 12 34 12 34 13.78125 34 M 13.777344 34 "/>
<path style=" stroke:none;fill-rule:nonzero;fill:rgb(98.431373%,83.921569%,35.294118%);fill-opacity:1;" d="M 34.21875 35 L 13.773438 35 C 11.992188 35 11.992188 35 11.992188 33.316406 L 11.992188 19.003906 L 35.992188 33.316406 C 35.992188 35 35.992188 35 34.222656 35 M 34.226562 35 "/>
</g>
</svg>
