<!-- color: #eeeeee -->
<svg xmlns="http://www.w3.org/2000/svg" xmlns:xlink="http://www.w3.org/1999/xlink" width="48px" height="48px" viewBox="0 0 48 48" version="1.1">
<g id="surface1">
<path style=" stroke:none;fill-rule:nonzero;fill:rgb(40%,40%,40%);fill-opacity:1;" d="M 20.800781 14.28125 C 14.335938 16.632812 10.78125 22.917969 12.882812 28.289062 C 14.988281 33.664062 21.964844 36.121094 28.425781 33.769531 C 34.886719 31.417969 38.445312 25.128906 36.339844 19.75 C 34.234375 14.375 27.261719 11.921875 20.796875 14.273438 M 21.523438 16.121094 C 26.789062 14.203125 32.414062 16.183594 34.125 20.554688 C 35.835938 24.921875 32.972656 29.996094 27.703125 31.914062 C 22.433594 33.832031 16.804688 31.847656 15.097656 27.476562 C 13.386719 23.109375 16.253906 18.039062 21.523438 16.121094 M 21.523438 16.121094 "/>
<path style=" stroke:none;fill-rule:nonzero;fill:rgb(60%,60%,100%);fill-opacity:1;" d="M 26 14.5 C 26 15.878906 24.878906 17 23.5 17 C 22.121094 17 21 15.878906 21 14.5 C 21 13.121094 22.121094 12 23.5 12 C 24.878906 12 26 13.121094 26 14.5 M 26 14.5 "/>
<path style=" stroke:none;fill-rule:nonzero;fill:rgb(60%,60%,100%);fill-opacity:1;" d="M 37 18.5 C 37 19.878906 35.878906 21 34.5 21 C 33.121094 21 32 19.878906 32 18.5 C 32 17.121094 33.121094 16 34.5 16 C 35.878906 16 37 17.121094 37 18.5 M 37 18.5 "/>
<path style=" stroke:none;fill-rule:nonzero;fill:rgb(60%,60%,100%);fill-opacity:1;" d="M 35 29.5 C 35 30.878906 33.878906 32 32.5 32 C 31.121094 32 30 30.878906 30 29.5 C 30 28.121094 31.121094 27 32.5 27 C 33.878906 27 35 28.121094 35 29.5 M 35 29.5 "/>
<path style=" stroke:none;fill-rule:nonzero;fill:rgb(60%,60%,100%);fill-opacity:1;" d="M 22 33.5 C 22 34.878906 20.878906 36 19.5 36 C 18.121094 36 17 34.878906 17 33.5 C 17 32.121094 18.121094 31 19.5 31 C 20.878906 31 22 32.121094 22 33.5 M 22 33.5 "/>
<path style=" stroke:none;fill-rule:nonzero;fill:rgb(60%,60%,100%);fill-opacity:1;" d="M 16 23.5 C 16 24.878906 14.878906 26 13.5 26 C 12.121094 26 11 24.878906 11 23.5 C 11 22.121094 12.121094 21 13.5 21 C 14.878906 21 16 22.121094 16 23.5 M 16 23.5 "/>
</g>
</svg>
