<!-- color: #f8bd5a -->
<svg xmlns="http://www.w3.org/2000/svg" xmlns:xlink="http://www.w3.org/1999/xlink" width="48px" height="48px" viewBox="0 0 48 48" version="1.1">
<g id="surface1">
<path style=" stroke:none;fill-rule:nonzero;fill:rgb(91.764706%,91.764706%,91.764706%);fill-opacity:1;" d="M 23.671875 9 C 16.089844 9 9.832031 15.140625 9.058594 23.070312 C 9.054688 23.089844 9.058594 23.117188 9.058594 23.140625 C 9.058594 23.148438 9.058594 23.15625 9.058594 23.164062 C 9.054688 23.191406 9.058594 23.210938 9.058594 23.238281 C 8.972656 24.378906 8.992188 25.316406 9.058594 26.378906 C 12.019531 39.277344 20.882812 38.273438 20.882812 34.519531 L 16.871094 27.597656 C 16.007812 27.011719 15.109375 28.015625 14.277344 28.558594 C 13.214844 29.265625 13.132812 29.371094 12.515625 27.761719 C 11.796875 25.863281 11.429688 22.78125 12.515625 20.253906 C 14.761719 15.003906 18.972656 12.078125 23.667969 11.992188 C 23.902344 11.992188 24.132812 11.992188 24.367188 11.992188 C 29.039062 12.09375 33.234375 15.019531 35.476562 20.253906 C 36.558594 22.78125 36.195312 25.859375 35.476562 27.761719 C 34.867188 29.371094 34.777344 29.265625 33.710938 28.558594 C 32.886719 28.011719 31.988281 27.011719 31.117188 27.597656 L 27.109375 34.519531 C 27.109375 38.269531 35.976562 39.277344 38.9375 26.378906 C 39 25.316406 39.023438 24.378906 38.9375 23.238281 C 38.933594 23.210938 38.941406 23.191406 38.9375 23.164062 C 38.9375 23.160156 38.9375 23.152344 38.9375 23.140625 C 38.933594 23.121094 38.941406 23.09375 38.9375 23.070312 C 38.160156 15.132812 31.945312 9 24.363281 9 C 23.664062 9 24.363281 9 23.664062 9 M 23.667969 9 "/>
<path style=" stroke:none;fill-rule:nonzero;fill:rgb(100%,27.058824%,27.058824%);fill-opacity:1;" d="M 34.199219 24.179688 C 33.03125 24.472656 32.054688 25.539062 32.054688 25.539062 L 32.085938 25.574219 L 33.949219 32.507812 C 32.617188 31.78125 30.710938 31.964844 29.132812 33.105469 C 27.097656 34.578125 26.386719 37.089844 27.566406 38.707031 C 28.746094 40.324219 31.351562 40.4375 33.386719 38.964844 C 34.992188 37.804688 35.890625 35.972656 35.566406 34.46875 C 35.554688 34.421875 35.542969 34.378906 35.527344 34.332031 L 33.738281 27.402344 C 33.78125 27.34375 34.300781 27.101562 35.992188 26.988281 C 37.785156 26.867188 38.992188 24 38.992188 24 C 38.992188 24 36.984375 24.769531 35.398438 24.210938 C 35 24.070312 34.585938 24.078125 34.195312 24.175781 M 34.199219 24.179688 "/>
</g>
</svg>
