<!-- color: #509af6 -->
<svg xmlns="http://www.w3.org/2000/svg" xmlns:xlink="http://www.w3.org/1999/xlink" width="48px" height="48px" viewBox="0 0 48 48" version="1.1">
<g id="surface1">
<path style=" stroke:none;fill-rule:evenodd;fill:rgb(63.921569%,86.27451%,100%);fill-opacity:0.501961;" d="M 24 9 L 24.003906 9 C 32.285156 9 39 15.714844 39 24 L 39 24.003906 C 39 32.285156 32.285156 39 24.003906 39 L 24 39 C 15.714844 39 9 32.285156 9 24.003906 L 9 24 C 9 15.714844 15.714844 9 24 9 M 24 9 "/>
<path style=" stroke:none;fill-rule:nonzero;fill:rgb(97.647059%,97.647059%,97.647059%);fill-opacity:1;" d="M 14 33 L 26 33 L 26 31 L 14 31 M 14 33 "/>
<path style=" stroke:none;fill-rule:nonzero;fill:rgb(97.647059%,97.647059%,97.647059%);fill-opacity:1;" d="M 14 29 L 33.996094 29 L 33.996094 27.003906 L 14 27.003906 M 14 29 "/>
<path style=" stroke:none;fill-rule:nonzero;fill:rgb(97.647059%,97.647059%,97.647059%);fill-opacity:1;" d="M 14 25 L 33.996094 25 L 33.996094 23.003906 L 14 23.003906 M 14 25 "/>
<path style=" stroke:none;fill-rule:nonzero;fill:rgb(97.647059%,97.647059%,97.647059%);fill-opacity:1;" d="M 14 21 L 33.996094 21 L 33.996094 19.003906 L 14 19.003906 M 14 21 "/>
<path style=" stroke:none;fill-rule:nonzero;fill:rgb(97.647059%,97.647059%,97.647059%);fill-opacity:1;" d="M 14 17 L 33.996094 17 L 33.996094 15 L 14 15 M 14 17 "/>
</g>
</svg>
