<!-- color: #394a6f -->
<svg xmlns="http://www.w3.org/2000/svg" xmlns:xlink="http://www.w3.org/1999/xlink" width="48px" height="48px" viewBox="0 0 48 48" version="1.1">
<defs>
<linearGradient id="linear0" gradientUnits="userSpaceOnUse" x1="13" y1="28" x2="15" y2="29" >
<stop offset="0" style="stop-color:rgb(20.784314%,34.509804%,48.627451%);stop-opacity:1;"/>
<stop offset="1" style="stop-color:rgb(20%,32.156863%,46.27451%);stop-opacity:1;"/>
</linearGradient>
<linearGradient id="linear1" gradientUnits="userSpaceOnUse" x1="12.906" y1="27.547" x2="24" y2="28" >
<stop offset="0" style="stop-color:rgb(23.921569%,37.647059%,51.764706%);stop-opacity:1;"/>
<stop offset="1" style="stop-color:rgb(18.823529%,31.764706%,45.882353%);stop-opacity:1;"/>
</linearGradient>
<linearGradient id="linear2" gradientUnits="userSpaceOnUse" x1="27" y1="35" x2="35" y2="24" >
<stop offset="0" style="stop-color:rgb(21.960784%,36.078431%,50.588235%);stop-opacity:1;"/>
<stop offset="1" style="stop-color:rgb(23.921569%,38.039216%,52.156863%);stop-opacity:1;"/>
</linearGradient>
</defs>
<g id="surface1">
<path style=" stroke:none;fill-rule:nonzero;fill:rgb(61.176471%,74.509804%,96.078431%);fill-opacity:1;" d="M 12.898438 12.898438 L 35.097656 12.898438 L 35.097656 35.097656 L 12.898438 35.097656 M 12.898438 12.898438 "/>
<path style=" stroke:none;fill-rule:nonzero;fill:rgb(97.647059%,97.647059%,97.647059%);fill-opacity:1;" d="M 23 22 C 23 23.105469 22.105469 24 21 24 C 19.894531 24 19 23.105469 19 22 C 19 20.894531 19.894531 20 21 20 C 22.105469 20 23 20.894531 23 22 M 23 22 "/>
<path style=" stroke:none;fill-rule:nonzero;fill:url(#linear0);" d="M 12.90625 24.28125 L 12.898438 35.101562 L 27.996094 35.101562 M 12.90625 24.28125 "/>
<path style=" stroke:none;fill-rule:nonzero;fill:url(#linear1);" d="M 24 20 L 13 31 L 12.90625 31.125 L 12.90625 35.09375 L 35.097656 35.09375 L 35.097656 32.03125 L 24.007812 20 M 23.992188 20 "/>
<path style=" stroke:none;fill-rule:nonzero;fill:url(#linear2);" d="M 35.089844 21.160156 L 24.308594 35.097656 L 35.089844 35.097656 M 35.089844 21.160156 "/>
<path style=" stroke:none;fill-rule:nonzero;fill:rgb(0%,0%,0%);fill-opacity:0.101961;" d="M 14.25 13 C 13.5625 13 13 13.5625 13 14.25 L 13 15.25 C 13 14.5625 13.5625 14 14.25 14 L 33.75 14 C 34.4375 14 35 14.5625 35 15.25 L 35 14.25 C 35 13.5625 34.4375 13 33.75 13 M 14.25 13 "/>
<path style="fill:none;stroke-width:0.282;stroke-linecap:butt;stroke-linejoin:miter;stroke:rgb(91.764706%,91.764706%,91.764706%);stroke-opacity:1;stroke-miterlimit:4;" d="M 3.987491 3.527778 L 9.559176 3.527778 C 9.812735 3.527778 10.018889 3.77362 10.018889 4.075686 L 10.018889 9.470981 C 10.018889 9.77415 9.812735 10.018889 9.559176 10.018889 L 3.987491 10.018889 C 3.731728 10.018889 3.525573 9.77415 3.525573 9.470981 L 3.525573 4.075686 C 3.525573 3.77362 3.731728 3.527778 3.987491 3.527778 M 3.987491 3.527778 " transform="matrix(3.543307,0,0,3.543307,0,0)"/>
</g>
</svg>
