<!-- color: #015ca7 -->
<svg xmlns="http://www.w3.org/2000/svg" xmlns:xlink="http://www.w3.org/1999/xlink" width="48px" height="48px" viewBox="0 0 48 48" version="1.1">
<g id="surface1">
<path style=" stroke:none;fill-rule:nonzero;fill:rgb(97.254902%,97.254902%,97.254902%);fill-opacity:1;" d="M 19 0 C 15.277344 10.3125 11.527344 22.265625 7.804688 32.578125 C 8.042969 32.648438 8.277344 32.621094 8.523438 32.625 C 9.878906 32.617188 11.238281 32.628906 12.597656 32.625 C 12.78125 32.625 12.757812 32.359375 12.835938 32.242188 C 14.46875 27.632812 16.128906 23.046875 17.769531 18.441406 C 17.867188 18.15625 17.976562 17.851562 18.105469 17.578125 C 18.957031 17.59375 19.796875 17.566406 20.644531 17.578125 C 18.863281 22.574219 17.089844 27.597656 15.277344 32.578125 C 15.46875 32.652344 15.65625 32.621094 15.855469 32.625 C 17.277344 32.613281 18.695312 32.644531 20.117188 32.625 C 21.726562 28.085938 23.390625 23.554688 25.007812 19.015625 C 25.351562 18.089844 25.363281 16.996094 24.8125 16.140625 C 24.335938 15.382812 23.429688 14.980469 22.5625 14.945312 C 21.375 14.910156 20.203125 14.210938 19.015625 14.191406 C 20.648438 9.566406 22.378906 4.628906 24 0 M 29.460938 14.847656 C 29.425781 14.921875 29.402344 15.109375 29.367188 15.183594 C 25.675781 25.539062 21.207031 37.648438 17.5 48 C 18.5 48 20.972656 48 21.5 48 C 23.117188 43.457031 25.625 37.835938 27.253906 33.296875 C 29.03125 33.261719 30.796875 33.28125 32.578125 33.246094 C 33.707031 33.207031 35.414062 32.527344 35.789062 31.425781 C 37.289062 27.203125 38.789062 23.019531 40.242188 18.777344 C 40.480469 18.136719 40.625 17.433594 40.433594 16.769531 C 40.179688 15.917969 39.402344 15.269531 38.566406 15.042969 C 37.839844 14.816406 37.109375 14.914062 36.363281 14.898438 C 34.082031 14.894531 31.742188 14.875 29.460938 14.851562 M 33.535156 17.535156 C 33.675781 17.492188 33.824219 17.554688 33.964844 17.535156 C 34.625 17.546875 35.273438 17.519531 35.929688 17.535156 C 34.398438 21.90625 32.839844 26.28125 31.332031 30.664062 C 30.476562 30.722656 29.597656 30.667969 28.742188 30.664062 C 30.300781 26.320312 31.835938 21.976562 33.390625 17.625 C 33.425781 17.585938 33.488281 17.542969 33.535156 17.53125 M 33.535156 17.53125 "/>
</g>
</svg>
