<!-- color: #474747 -->
<svg xmlns="http://www.w3.org/2000/svg" xmlns:xlink="http://www.w3.org/1999/xlink" width="48px" height="48px" viewBox="0 0 48 48" version="1.1">
<g id="surface1">
<path style=" stroke:none;fill-rule:nonzero;fill:rgb(91.764706%,29.803922%,77.254902%);fill-opacity:1;" d="M 33.613281 23.574219 C 33.613281 17.183594 28.300781 12 21.75 12 C 15.199219 12 11 17.183594 11 23.574219 C 11 19.011719 13.679688 15.308594 18.359375 15.308594 C 23.039062 15.308594 26.828125 19.007812 26.828125 23.574219 L 26.828125 25.226562 L 23.441406 25.226562 L 30.222656 31.839844 L 37 25.226562 L 33.613281 25.226562 M 33.613281 23.574219 "/>
<path style=" stroke:none;fill-rule:nonzero;fill:rgb(100%,30.588235%,36.078431%);fill-opacity:1;" d="M 18.8125 16.089844 C 15.054688 16.089844 12 19.078125 12 22.746094 C 12 26.273438 14.816406 29.125 18.375 29.339844 C 18.375 25.351562 21.566406 22.097656 25.53125 21.746094 C 25.039062 18.546875 22.222656 16.089844 18.8125 16.089844 M 18.8125 20.652344 C 19.984375 20.652344 20.9375 21.601562 20.9375 22.746094 C 20.9375 23.890625 19.984375 24.808594 18.8125 24.808594 C 17.640625 24.808594 16.6875 23.890625 16.6875 22.746094 C 16.6875 21.601562 17.640625 20.652344 18.8125 20.652344 M 18.8125 21.089844 C 17.871094 21.089844 17.09375 21.828125 17.09375 22.746094 C 17.09375 23.667969 17.871094 24.402344 18.8125 24.402344 C 19.753906 24.402344 20.5 23.667969 20.5 22.746094 C 20.5 21.828125 19.753906 21.089844 18.8125 21.089844 M 18.8125 21.714844 C 19.398438 21.714844 19.875 22.171875 19.875 22.746094 C 19.875 23.320312 19.402344 23.777344 18.8125 23.777344 C 18.226562 23.777344 17.75 23.320312 17.75 22.746094 C 17.75 22.171875 18.226562 21.714844 18.8125 21.714844 M 18.8125 21.714844 "/>
<path style=" stroke:none;fill-rule:nonzero;fill:rgb(30.196078%,64.313725%,89.803922%);fill-opacity:1;" d="M 26.21875 22.710938 C 22.460938 22.710938 19.414062 25.683594 19.414062 29.355469 C 19.414062 33.027344 22.460938 36 26.21875 36 C 29.980469 36 33.027344 33.027344 33.027344 29.355469 C 33.027344 25.683594 29.980469 22.710938 26.21875 22.710938 M 26.21875 27.28125 C 27.394531 27.28125 28.347656 28.210938 28.347656 29.355469 C 28.347656 30.5 27.394531 31.433594 26.21875 31.433594 C 25.046875 31.433594 24.09375 30.5 24.09375 29.355469 C 24.09375 28.210938 25.046875 27.28125 26.21875 27.28125 M 26.21875 27.695312 C 25.277344 27.695312 24.519531 28.433594 24.519531 29.355469 C 24.519531 30.277344 25.277344 31.019531 26.21875 31.019531 C 27.164062 31.019531 27.921875 30.277344 27.921875 29.355469 C 27.921875 28.433594 27.164062 27.695312 26.21875 27.695312 M 26.21875 28.316406 C 26.808594 28.316406 27.285156 28.78125 27.285156 29.355469 C 27.285156 29.929688 26.808594 30.394531 26.21875 30.394531 C 25.632812 30.394531 25.15625 29.929688 25.15625 29.355469 C 25.15625 28.78125 25.632812 28.316406 26.21875 28.316406 M 26.21875 28.316406 "/>
<path style=" stroke:none;fill-rule:nonzero;fill:rgb(91.764706%,29.803922%,77.254902%);fill-opacity:1;" d="M 33.613281 23.574219 C 33.613281 17.183594 28.300781 12 21.75 12 C 15.199219 12 11 17.183594 11 23.574219 C 11 19.011719 13.679688 15.308594 18.359375 15.308594 C 23.039062 15.308594 26.828125 19.007812 26.828125 23.574219 L 26.828125 25.226562 L 23.441406 25.226562 L 30.222656 31.839844 L 37 25.226562 L 33.613281 25.226562 M 33.613281 23.574219 "/>
</g>
</svg>
