<!-- color: #eeeeee -->
<svg xmlns="http://www.w3.org/2000/svg" xmlns:xlink="http://www.w3.org/1999/xlink" width="48px" height="48px" viewBox="0 0 48 48" version="1.1">
<g id="surface1">
<path style=" stroke:none;fill-rule:nonzero;fill:rgb(21.176471%,58.431373%,73.333333%);fill-opacity:1;" d="M 22.980469 11 L 13.046875 16.617188 L 17.847656 19.332031 L 22.980469 16.4375 M 22.980469 11 "/>
<path style=" stroke:none;fill-rule:nonzero;fill:rgb(55.686275%,70.588235%,20.784314%);fill-opacity:1;" d="M 25.039062 11 L 25.039062 16.433594 L 30.167969 19.339844 L 34.972656 16.625 L 25.042969 11 M 25.039062 11 "/>
<path style=" stroke:none;fill-rule:nonzero;fill:rgb(21.176471%,24.313725%,74.509804%);fill-opacity:1;" d="M 12 18.375 L 11.996094 29.613281 L 16.796875 26.902344 L 16.796875 21.089844 M 12 18.375 "/>
<path style=" stroke:none;fill-rule:nonzero;fill:rgb(81.176471%,54.901961%,23.137255%);fill-opacity:1;" d="M 36 18.382812 L 31.199219 21.097656 L 31.199219 26.90625 L 35.996094 29.621094 M 36 18.382812 "/>
<path style=" stroke:none;fill-rule:nonzero;fill:rgb(72.54902%,21.960784%,50.588235%);fill-opacity:1;" d="M 17.824219 28.65625 L 13.023438 31.375 L 22.953125 37 L 22.953125 31.566406 M 17.824219 28.65625 "/>
<path style=" stroke:none;fill-rule:nonzero;fill:rgb(61.960784%,17.254902%,20.392157%);fill-opacity:1;" d="M 30.160156 28.664062 L 25.03125 31.558594 L 25.03125 36.996094 L 34.960938 31.378906 L 30.160156 28.660156 M 30.160156 28.664062 "/>
<path style=" stroke:none;fill-rule:nonzero;fill:rgb(97.254902%,75.686275%,0%);fill-opacity:1;" d="M 29.757812 20.742188 L 29.757812 27.261719 L 23.996094 30.519531 L 18.238281 27.257812 L 18.242188 20.738281 L 24.003906 17.480469 M 29.757812 20.742188 "/>
</g>
</svg>
