<!-- color: #7f827d -->
<svg xmlns="http://www.w3.org/2000/svg" xmlns:xlink="http://www.w3.org/1999/xlink" width="48px" height="48px" viewBox="0 0 48 48" version="1.1">
<g id="surface1">
<path style=" stroke:none;fill-rule:nonzero;fill:rgb(97.647059%,97.647059%,97.647059%);fill-opacity:1;" d="M 12.804688 12 C 12.367188 12.046875 11.996094 12.460938 12 12.902344 L 12 28.003906 C 12 28.476562 12.527344 29.003906 13 29.003906 L 22 29.003906 L 22 35.003906 L 26 35.003906 L 26 29.003906 L 35 29.003906 C 35.472656 29.003906 36 28.476562 36 28.003906 L 36 12.902344 C 36 12.429688 35.570312 12 35.101562 12 M 15.003906 14 L 33.003906 14 C 33.472656 14 34.003906 14.585938 34.003906 15 L 34.003906 26 C 34.003906 26.46875 33.4375 27 33.003906 27 L 15.003906 27 C 14.476562 27 14.003906 26.519531 14.003906 26 L 14.003906 15 C 14.003906 14.59375 14.515625 14 15.003906 14 M 15.003906 33 L 15.003906 36 L 33.003906 36 L 33.003906 33 M 15.003906 33 "/>
<path style=" stroke:none;fill-rule:nonzero;fill:rgb(97.647059%,97.647059%,97.647059%);fill-opacity:1;" d="M 21 15 L 22 15 L 22 24 L 21 24 M 21 15 "/>
<path style=" stroke:none;fill-rule:nonzero;fill:rgb(97.647059%,97.647059%,97.647059%);fill-opacity:1;" d="M 23 24.5 C 23 25.328125 22.328125 26 21.5 26 C 20.671875 26 20 25.328125 20 24.5 C 20 23.671875 20.671875 23 21.5 23 C 22.328125 23 23 23.671875 23 24.5 M 23 24.5 "/>
<path style=" stroke:none;fill-rule:nonzero;fill:rgb(97.647059%,97.647059%,97.647059%);fill-opacity:1;" d="M 27 26 L 26 26 L 26 17 L 27 17 M 27 26 "/>
<path style=" stroke:none;fill-rule:nonzero;fill:rgb(97.647059%,97.647059%,97.647059%);fill-opacity:1;" d="M 25 16.5 C 25 15.671875 25.671875 15 26.5 15 C 27.328125 15 28 15.671875 28 16.5 C 28 17.328125 27.328125 18 26.5 18 C 25.671875 18 25 17.328125 25 16.5 M 25 16.5 "/>
<path style=" stroke:none;fill-rule:nonzero;fill:rgb(97.647059%,97.647059%,97.647059%);fill-opacity:1;" d="M 31 15 L 32 15 L 32 24 L 31 24 M 31 15 "/>
<path style=" stroke:none;fill-rule:nonzero;fill:rgb(97.647059%,97.647059%,97.647059%);fill-opacity:1;" d="M 33 24.5 C 33 25.328125 32.328125 26 31.5 26 C 30.671875 26 30 25.328125 30 24.5 C 30 23.671875 30.671875 23 31.5 23 C 32.328125 23 33 23.671875 33 24.5 M 33 24.5 "/>
<path style=" stroke:none;fill-rule:nonzero;fill:rgb(97.647059%,97.647059%,97.647059%);fill-opacity:1;" d="M 17 26 L 16 26 L 16 17 L 17 17 M 17 26 "/>
<path style=" stroke:none;fill-rule:nonzero;fill:rgb(97.647059%,97.647059%,97.647059%);fill-opacity:1;" d="M 15 16.5 C 15 15.671875 15.671875 15 16.5 15 C 17.328125 15 18 15.671875 18 16.5 C 18 17.328125 17.328125 18 16.5 18 C 15.671875 18 15 17.328125 15 16.5 M 15 16.5 "/>
</g>
</svg>
