<!-- color: #858587 -->
<svg xmlns="http://www.w3.org/2000/svg" xmlns:xlink="http://www.w3.org/1999/xlink" width="48px" height="48px" viewBox="0 0 48 48" version="1.1">
<defs>
<linearGradient id="linear0" gradientUnits="userSpaceOnUse" x1="-8.184" y1="0" x2="-5.362" y2="0" gradientTransform="matrix(0,-3.543307,-3.543307,0,0,0)">
<stop offset="0" style="stop-color:rgb(78.039216%,72.54902%,32.941176%);stop-opacity:1;"/>
<stop offset="1" style="stop-color:rgb(87.058824%,49.019608%,32.54902%);stop-opacity:1;"/>
</linearGradient>
<linearGradient id="linear1" gradientUnits="userSpaceOnUse" x1="0" y1="-4.219" x2="0" y2="12.607" gradientTransform="matrix(0.377409,0,0,0.356586,25.072993,22.504552)">
<stop offset="0" style="stop-color:rgb(100%,100%,100%);stop-opacity:0.6;"/>
<stop offset="1" style="stop-color:rgb(0%,0%,0%);stop-opacity:0;"/>
</linearGradient>
</defs>
<g id="surface1">
<path style=" stroke:none;fill-rule:evenodd;fill:rgb(15.686275%,15.686275%,15.686275%);fill-opacity:1;" d="M 39.011719 24.011719 L 39.011719 24.007812 C 39.011719 15.726562 32.296875 9.011719 24.011719 9.011719 L 24.007812 9.011719 C 15.726562 9.011719 9.011719 15.726562 9.011719 24.007812 L 9.011719 24.011719 C 9.011719 32.296875 15.726562 39.011719 24.007812 39.011719 L 24.011719 39.011719 C 32.296875 39.011719 39.011719 32.296875 39.011719 24.011719 M 39.011719 24.011719 "/>
<path style=" stroke:none;fill-rule:evenodd;fill:rgb(18.431373%,18.431373%,18.431373%);fill-opacity:1;" d="M 37 24 C 37 16.820312 31.179688 11 24 11 C 16.820312 11 11 16.820312 11 24 C 11 31.179688 16.820312 37 24 37 C 31.179688 37 37 31.179688 37 24 M 37 24 "/>
<path style=" stroke:none;fill-rule:evenodd;fill:rgb(20%,20%,20%);fill-opacity:1;" d="M 35 24 L 35 23.996094 C 35 17.921875 30.078125 12.996094 24.003906 12.996094 L 24 12.996094 C 17.925781 12.996094 13 17.921875 13 23.996094 L 13 24 C 13 30.074219 17.925781 34.996094 24 34.996094 L 24.003906 34.996094 C 30.078125 34.996094 35 30.074219 35 24 M 35 24 "/>
<path style=" stroke:none;fill-rule:evenodd;fill:rgb(26.666667%,26.666667%,26.666667%);fill-opacity:1;" d="M 33 24 C 33 19.027344 28.96875 15 24 15 C 19.027344 15 15 19.03125 15 24 C 15 28.96875 19.03125 33 24 33 C 28.96875 33 33 28.96875 33 24 M 33 24 "/>
<path style=" stroke:none;fill-rule:evenodd;fill:rgb(32.54902%,32.54902%,32.54902%);fill-opacity:1;" d="M 31 24 L 31 23.996094 C 31 20.128906 27.867188 16.996094 24.003906 16.996094 L 24 16.996094 C 20.132812 16.996094 17 20.128906 17 23.996094 L 17 24 C 17 27.863281 20.132812 30.996094 24 30.996094 L 24.003906 30.996094 C 27.867188 30.996094 31 27.863281 31 24 M 31 24 "/>
<path style=" stroke:none;fill-rule:evenodd;fill:url(#linear0);" d="M 29 24 C 29 21.238281 26.761719 19 24 19 C 21.238281 19 19 21.238281 19 24 C 19 26.761719 21.238281 29 24 29 C 26.761719 29 29 26.761719 29 24 M 29 24 "/>
<path style=" stroke:none;fill-rule:nonzero;fill:url(#linear1);" d="M 27 24 C 27 25.65625 25.65625 27 24 27 C 22.34375 27 21 25.65625 21 24 C 21 22.34375 22.34375 21 24 21 C 25.65625 21 27 22.34375 27 24 M 27 24 "/>
<path style=" stroke:none;fill-rule:nonzero;fill:rgb(0%,0%,0%);fill-opacity:0.301961;" d="M 24 0 L 24 24 L 48 31.75 L 48 0 M 24 0 "/>
<path style=" stroke:none;fill-rule:nonzero;fill:rgb(100%,100%,100%);fill-opacity:0.301961;" d="M 0 0 L 0 32 L 24 24 L 24 0 M 0 0 "/>
<path style=" stroke:none;fill-rule:nonzero;fill:rgb(66.666667%,66.666667%,68.627451%);fill-opacity:0.282353;" d="M 24 24 L 0 32 L 0 48 L 48 48 L 48 31.75 L 24.003906 24.003906 M 24 24 "/>
</g>
</svg>
