<!-- color: #474747 -->
<svg xmlns="http://www.w3.org/2000/svg" xmlns:xlink="http://www.w3.org/1999/xlink" width="48px" height="48px" viewBox="0 0 48 48" version="1.1">
<g id="surface1">
<path style=" stroke:none;fill-rule:nonzero;fill:rgb(97.647059%,97.647059%,97.647059%);fill-opacity:1;" d="M 15.542969 12 L 32.457031 12 C 34.414062 12 36 13.585938 36 15.542969 L 36 32.457031 C 36 34.414062 34.414062 36 32.457031 36 L 15.542969 36 C 13.585938 36 12 34.414062 12 32.457031 L 12 15.542969 C 12 13.585938 13.585938 12 15.542969 12 M 15.542969 12 "/>
<path style=" stroke:none;fill-rule:nonzero;fill:rgb(78.431373%,13.333333%,9.803922%);fill-opacity:1;" d="M 18 19 L 18 29 L 21 29 L 21 22 L 22 22 L 22 29 L 26 29 L 26 22 L 27 22 L 27 29 L 30 29 L 30 20.75 C 30 19.769531 29.230469 19 28.25 19 M 18 19 "/>
</g>
</svg>
