<!-- color: #ae1a18 -->
<svg xmlns="http://www.w3.org/2000/svg" xmlns:xlink="http://www.w3.org/1999/xlink" width="48px" height="48px" viewBox="0 0 48 48" version="1.1">
<g id="surface1">
<path style=" stroke:none;fill-rule:nonzero;fill:rgb(97.647059%,97.647059%,97.647059%);fill-opacity:1;" d="M 14.773438 11 L 15.230469 11 C 16.207031 11 17 11.792969 17 12.769531 L 17 35.226562 C 17 36.207031 16.207031 37 15.230469 37 L 14.773438 37 C 13.792969 37 13 36.207031 13 35.226562 L 13 12.769531 C 13 11.792969 13.792969 11 14.773438 11 M 14.773438 11 "/>
<path style=" stroke:none;fill-rule:nonzero;fill:rgb(69.803922%,69.803922%,69.803922%);fill-opacity:1;" d="M 23.773438 17 L 24.230469 17 C 25.207031 17 26 17.613281 26 18.363281 L 26 35.636719 C 26 36.386719 25.207031 37 24.230469 37 L 23.773438 37 C 22.792969 37 22 36.386719 22 35.636719 L 22 18.363281 C 22 17.613281 22.792969 17 23.773438 17 M 23.773438 17 "/>
<path style=" stroke:none;fill-rule:nonzero;fill:rgb(97.647059%,97.647059%,97.647059%);fill-opacity:1;" d="M 32.773438 11 L 33.230469 11 C 34.207031 11 35 11.792969 35 12.769531 L 35 35.226562 C 35 36.207031 34.207031 37 33.230469 37 L 32.773438 37 C 31.792969 37 31 36.207031 31 35.226562 L 31 12.769531 C 31 11.792969 31.792969 11 32.773438 11 M 32.773438 11 "/>
</g>
</svg>
