<!-- color: #474747 -->
<svg xmlns="http://www.w3.org/2000/svg" xmlns:xlink="http://www.w3.org/1999/xlink" width="48px" height="48px" viewBox="0 0 48 48" version="1.1">
<g id="surface1">
<path style=" stroke:none;fill-rule:nonzero;fill:rgb(97.647059%,97.647059%,97.647059%);fill-opacity:1;" d="M 13.773438 20 L 34.226562 20 C 35.207031 20 36 20.703125 36 21.570312 L 36 34.425781 C 36 35.296875 35.207031 36 34.226562 36 L 13.773438 36 C 12.792969 36 12 35.296875 12 34.425781 L 12 21.570312 C 12 20.703125 12.792969 20 13.773438 20 M 13.773438 20 "/>
<path style=" stroke:none;fill-rule:nonzero;fill:rgb(97.647059%,97.647059%,97.647059%);fill-opacity:1;" d="M 12 20 L 35 16.164062 C 36 15.929688 36 15.605469 36 14.996094 L 36 12.996094 C 36 12.550781 35.542969 12.230469 35 12.226562 L 13 15.65625 C 12 15.996094 12 16.472656 12 16.992188 M 12 20.003906 "/>
<path style=" stroke:none;fill-rule:nonzero;fill:rgb(97.647059%,97.647059%,97.647059%);fill-opacity:1;" d="M 12.5 18 L 14.5 18 C 14.777344 18 15 18.199219 15 18.445312 L 15 23.554688 C 15 23.800781 14.777344 24 14.5 24 L 12.5 24 C 12.222656 24 12 23.800781 12 23.554688 L 12 18.445312 C 12 18.199219 12.222656 18 12.5 18 M 12.5 18 "/>
<path style=" stroke:none;fill-rule:nonzero;fill:rgb(100%,47.058824%,29.411765%);fill-opacity:1;" d="M 33.4375 30 C 33.4375 30 34 29.675781 34 28.003906 C 34 26.390625 33.367188 26.003906 33.367188 26.003906 L 18.296875 26.003906 L 14 28.003906 L 18.296875 30 M 33.4375 30 "/>
<path style=" stroke:none;fill-rule:nonzero;fill:rgb(100%,100%,60%);fill-opacity:1;" d="M 18 26.089844 L 14 27.996094 L 18 29.902344 L 18 26.085938 M 18 26.089844 "/>
<path style=" stroke:none;fill-rule:nonzero;fill:rgb(29.803922%,29.803922%,29.803922%);fill-opacity:1;" d="M 16 27.058594 L 14.003906 28 L 16 28.9375 M 16 27.058594 "/>
</g>
</svg>
