<!-- color: #d95419 -->
<svg xmlns="http://www.w3.org/2000/svg" xmlns:xlink="http://www.w3.org/1999/xlink" width="48px" height="48px" viewBox="0 0 48 48" version="1.1">
<g id="surface1">
<path style=" stroke:none;fill-rule:nonzero;fill:rgb(97.647059%,97.647059%,97.647059%);fill-opacity:0.901961;" d="M 28.488281 36.824219 C 28.042969 36.617188 27.75 36.324219 27.582031 35.917969 C 27.328125 35.328125 27.394531 35.050781 28.324219 32.511719 C 30.574219 26.382812 31.015625 25.226562 31.136719 25.050781 C 31.214844 24.949219 31.441406 24.753906 31.648438 24.621094 C 31.984375 24.402344 32.074219 24.378906 32.550781 24.386719 C 32.84375 24.386719 33.148438 24.40625 33.226562 24.425781 C 33.433594 24.464844 33.476562 24.242188 33.488281 23.09375 C 33.496094 21.972656 33.375 21.148438 33.050781 20.164062 C 32.121094 17.328125 29.859375 15.0625 27.011719 14.113281 C 23.066406 12.800781 18.648438 14.242188 16.257812 17.621094 C 15.480469 18.714844 14.886719 20.140625 14.65625 21.46875 C 14.539062 22.144531 14.503906 23.589844 14.585938 24.222656 L 14.636719 24.574219 L 14.90625 24.511719 C 15.390625 24.398438 16.054688 24.449219 16.378906 24.617188 C 17.019531 24.953125 17.085938 25.074219 18.246094 28.121094 C 21.070312 35.535156 20.804688 34.773438 20.769531 35.316406 C 20.746094 35.707031 20.691406 35.863281 20.515625 36.121094 C 19.929688 36.953125 18.808594 37.160156 17.972656 36.589844 C 17.820312 36.488281 17.664062 36.402344 17.625 36.402344 C 17.585938 36.402344 17.398438 36.503906 17.203125 36.625 C 16.765625 36.902344 16.304688 36.976562 15.765625 36.855469 C 15.3125 36.757812 15.035156 36.519531 14.242188 35.550781 C 12.605469 33.554688 11.796875 31.886719 11.265625 29.398438 C 10.980469 28.070312 10.949219 27.585938 11.144531 27.214844 C 11.316406 26.878906 11.699219 26.503906 12.023438 26.351562 C 12.273438 26.230469 12.273438 26.242188 12.109375 25.464844 C 11.414062 22.164062 12.203125 18.625 14.253906 15.875 C 17.796875 11.101562 24.375 9.625 29.707031 12.398438 C 33.019531 14.121094 35.386719 17.367188 36.015625 21.046875 C 36.257812 22.484375 36.230469 24.1875 35.941406 25.453125 C 35.789062 26.140625 35.796875 26.195312 36.117188 26.359375 C 36.449219 26.527344 36.746094 26.828125 36.921875 27.179688 C 37.089844 27.519531 37.046875 28.238281 36.785156 29.410156 C 36.179688 32.136719 35.5625 33.398438 33.628906 35.933594 C 33.042969 36.707031 32.71875 36.921875 32.078125 36.984375 C 31.710938 37.015625 31.574219 36.992188 31.238281 36.835938 C 31.015625 36.730469 30.777344 36.597656 30.710938 36.550781 C 30.605469 36.472656 30.53125 36.484375 30.289062 36.65625 C 29.71875 37.054688 29.101562 37.109375 28.503906 36.824219 M 28.488281 36.8125 "/>
</g>
</svg>
