<!-- color: #9dc851 -->
<svg xmlns="http://www.w3.org/2000/svg" xmlns:xlink="http://www.w3.org/1999/xlink" width="48px" height="48px" viewBox="0 0 48 48" version="1.1">
<g id="surface1">
<path style=" stroke:none;fill-rule:evenodd;fill:rgb(17.647059%,17.647059%,17.647059%);fill-opacity:1;" d="M 0 0 L 0 48 L 24 48 L 24 35 L 8 35 L 9 32 L 24 32 L 24 31 L 22.34375 31 C 21.609375 31 21 30.425781 21 29.6875 L 21 26.34375 C 21 25.605469 21.609375 25.03125 22.34375 25.03125 L 24 25.03125 L 24 0 M 24 25.03125 L 24 31 L 25.65625 31 C 26.390625 31 27 30.421875 27 29.6875 L 27 26.34375 C 27 25.605469 26.390625 25.027344 25.65625 25.027344 L 24 25.027344 M 24 32 L 24 35 L 40 35 L 39 32 M 13.0625 25.03125 C 13.148438 25.011719 13.25 25.03125 13.34375 25.03125 L 16.65625 25.03125 C 17.390625 25.03125 18 25.605469 18 26.34375 L 18 29.6875 C 18 30.421875 17.390625 31 16.65625 31 L 13.34375 31 C 12.605469 31 12 30.425781 12 29.6875 L 12 26.34375 C 12 25.699219 12.453125 25.152344 13.0625 25.03125 M 31.0625 25.03125 C 30.453125 25.152344 30 25.699219 30 26.34375 L 30 29.6875 C 30 30.421875 30.605469 31 31.34375 31 L 34.65625 31 C 35.390625 31 36 30.425781 36 29.6875 L 36 26.34375 C 36 25.605469 35.390625 25.03125 34.65625 25.03125 L 31.34375 25.03125 C 31.25 25.03125 31.148438 25.011719 31.0625 25.03125 M 31.0625 25.03125 "/>
</g>
</svg>
