<!-- color: #eeeeee -->
<svg xmlns="http://www.w3.org/2000/svg" xmlns:xlink="http://www.w3.org/1999/xlink" width="48px" height="48px" viewBox="0 0 48 48" version="1.1">
<g id="surface1">
<path style=" stroke:none;fill-rule:nonzero;fill:rgb(17.647059%,17.647059%,17.647059%);fill-opacity:1;" d="M 36.179688 16 C 34.597656 15.976562 33.09375 16.390625 31.800781 17.132812 C 30.789062 16.5625 29.636719 16.191406 28.402344 16.074219 C 26.703125 15.917969 25.074219 16.265625 23.664062 16.996094 C 23.648438 17.003906 23.632812 17.011719 23.621094 17.019531 C 23.585938 17.046875 23.5625 17.089844 23.5625 17.136719 C 23.5625 17.21875 23.628906 17.277344 23.707031 17.277344 C 23.714844 17.277344 23.726562 17.277344 23.734375 17.277344 C 23.738281 17.277344 23.742188 17.273438 23.742188 17.273438 C 24.503906 17.136719 25.292969 17.097656 26.101562 17.171875 C 28.359375 17.382812 30.332031 18.078125 31.714844 19.632812 C 31.785156 19.707031 31.847656 19.699219 31.917969 19.628906 C 33.660156 17.632812 36.324219 16.839844 39.1875 17.109375 C 39.347656 17.125 39.507812 17.140625 39.664062 17.167969 C 39.71875 17.175781 39.804688 17.1875 39.855469 17.191406 C 39.949219 17.203125 40 17.128906 40 17.050781 C 40 16.988281 39.976562 16.945312 39.921875 16.921875 C 39.867188 16.894531 39.8125 16.859375 39.757812 16.839844 C 38.871094 16.410156 37.894531 16.140625 36.859375 16.03125 C 36.632812 16.011719 36.402344 15.992188 36.175781 15.988281 M 36.179688 15.992188 "/>
<path style=" stroke:none;fill-rule:nonzero;fill:rgb(17.647059%,17.647059%,17.647059%);fill-opacity:1;" d="M 30.9375 22.839844 C 27.746094 22.839844 24.796875 23.851562 22.382812 25.550781 C 20.539062 24.730469 18.5 24.273438 16.351562 24.273438 C 13.296875 24.273438 10.464844 25.195312 8.109375 26.773438 C 8.105469 26.777344 8.09375 26.785156 8.089844 26.789062 C 8.035156 26.828125 8.007812 26.886719 8.007812 26.957031 C 8.007812 27.078125 8.105469 27.175781 8.222656 27.175781 C 8.238281 27.175781 8.253906 27.171875 8.265625 27.171875 C 8.277344 27.171875 8.285156 27.167969 8.289062 27.164062 C 9.640625 26.757812 11.074219 26.542969 12.558594 26.542969 C 16.492188 26.542969 20.007812 27.46875 22.648438 29.933594 C 22.65625 29.9375 22.664062 29.945312 22.671875 29.949219 C 22.710938 29.984375 22.757812 29.996094 22.816406 29.996094 C 22.882812 29.996094 22.941406 29.976562 22.980469 29.925781 C 22.980469 29.925781 23.066406 29.8125 23.109375 29.746094 C 25.800781 26.105469 30.230469 24.308594 35.152344 24.308594 C 35.503906 24.308594 35.855469 24.316406 36.203125 24.34375 C 36.300781 24.347656 36.515625 24.367188 36.519531 24.367188 C 36.636719 24.367188 36.734375 24.269531 36.734375 24.148438 C 36.734375 24.0625 36.683594 23.992188 36.609375 23.960938 C 36.601562 23.957031 36.59375 23.953125 36.585938 23.949219 C 34.84375 23.238281 32.945312 22.835938 30.953125 22.835938 M 30.945312 22.839844 "/>
</g>
</svg>
