<!-- color: #eeeeee -->
<svg xmlns="http://www.w3.org/2000/svg" xmlns:xlink="http://www.w3.org/1999/xlink" width="48px" height="48px" viewBox="0 0 48 48" version="1.1">
<g id="surface1">
<path style=" stroke:none;fill-rule:nonzero;fill:rgb(72.54902%,46.27451%,58.431373%);fill-opacity:1;" d="M 12 12 L 12 23 L 18 23 L 18 25 L 12 25 L 12 36 L 23 36 L 23 30 L 25 30 L 25 36 L 36 36 L 36 25 L 30 25 L 30 23 L 36 23 L 36 12 L 25 12 L 25 18 L 23 18 L 23 12 M 12 12 "/>
<path style=" stroke:none;fill-rule:nonzero;fill:rgb(93.333333%,83.921569%,89.803922%);fill-opacity:1;" d="M 13 35 L 13 26 L 19 26 L 19 22 L 13 22 L 13 13 L 22 13 L 22 19 L 26 19 L 26 13 L 35 13 L 35 22 L 29 22 L 29 26 L 35 26 L 35 35 L 26 35 L 26 29 L 22 29 L 22 35 M 13 35 "/>
<path style=" stroke:none;fill-rule:nonzero;fill:rgb(55.686275%,35.686275%,44.313725%);fill-opacity:1;" d="M 14 14 L 14 21 L 20 21 L 20 27 L 14 27 L 14 34 L 21 34 L 21 28 L 27 28 L 27 34 L 34 34 L 34 27 L 28 27 L 28 21 L 34 21 L 34 14 L 27 14 L 27 20 L 21 20 L 21 14 M 14 14 "/>
<path style=" stroke:none;fill-rule:nonzero;fill:rgb(92.941176%,86.666667%,89.803922%);fill-opacity:0.8;" d="M 15 28 L 20 28 L 20 33 L 15 33 M 15 28 "/>
<path style=" stroke:none;fill-rule:nonzero;fill:rgb(92.941176%,86.666667%,89.803922%);fill-opacity:0.8;" d="M 28 28 L 33 28 L 33 33 L 28 33 M 28 28 "/>
<path style=" stroke:none;fill-rule:nonzero;fill:rgb(92.941176%,86.666667%,89.803922%);fill-opacity:0.8;" d="M 28 15 L 33 15 L 33 20 L 28 20 M 28 15 "/>
<path style=" stroke:none;fill-rule:nonzero;fill:rgb(92.941176%,86.666667%,89.803922%);fill-opacity:0.8;" d="M 15 15 L 20 15 L 20 20 L 15 20 M 15 15 "/>
<path style=" stroke:none;fill-rule:nonzero;fill:rgb(92.941176%,86.666667%,89.803922%);fill-opacity:0.8;" d="M 21 21 L 27 21 L 27 27 L 21 27 M 21 21 "/>
</g>
</svg>
