<!-- color: #1d384d -->
<svg xmlns="http://www.w3.org/2000/svg" xmlns:xlink="http://www.w3.org/1999/xlink" width="48px" height="48px" viewBox="0 0 48 48" version="1.1">
<g id="surface1">
<path style=" stroke:none;fill-rule:nonzero;fill:rgb(97.647059%,97.647059%,97.647059%);fill-opacity:1;" d="M 11 13 L 11 35 C 11 35 12.597656 35 14 35 L 14 34 L 18 34 L 18 35 L 30 35 L 30 34 L 34 34 L 34 35 C 35 35 36 35 37 35 L 37 13 C 36 13 35 13 34 13 L 34 14 L 30 14 L 30 13 L 18 13 L 18 14 L 14 14 L 14 13 C 13 13 11 13 11 13 M 14 16 L 18 16 L 18 20 L 14 20 M 30 16 L 34 16 L 34 20 L 30 20 M 14 22 L 18 22 L 18 26 L 14 26 M 30 22 L 34 22 L 34 26 L 30 26 M 14 28 L 18 28 L 18 32 L 14 32 M 30 28 L 34 28 L 34 32 L 30 32 M 30 28 "/>
</g>
</svg>
