<!-- color: #67b8d3 -->
<svg xmlns="http://www.w3.org/2000/svg" xmlns:xlink="http://www.w3.org/1999/xlink" width="48px" height="48px" viewBox="0 0 48 48" version="1.1">
<defs>
<linearGradient id="linear0" gradientUnits="userSpaceOnUse" x1="6.905" y1="10.308" x2="6.712" y2="4.634" gradientTransform="matrix(1.026316,0,0,1.02,-0.178246,-0.135467)">
<stop offset="0" style="stop-color:rgb(83.529412%,92.54902%,94.509804%);stop-opacity:1;"/>
<stop offset="1" style="stop-color:rgb(97.647059%,97.647059%,97.647059%);stop-opacity:1;"/>
</linearGradient>
</defs>
<g id="surface1">
<path style="fill-rule:nonzero;fill:url(#linear0);stroke-width:0.141;stroke-linecap:butt;stroke-linejoin:miter;stroke:rgb(17.647059%,17.647059%,17.647059%);stroke-opacity:1;stroke-miterlimit:4;" d="M 4.437283 8.430287 C 5.621294 8.468872 5.231033 8.311224 5.27954 7.309115 C 6.256294 6.567179 6.054549 6.398507 5.20678 7.256198 C 4.495712 7.222023 3.666684 7.410538 4.178212 6.849401 L 5.815321 5.339071 C 5.178116 3.200356 7.094141 2.339358 8.107275 4.189236 C 8.84921 4.411927 9.081823 4.513351 9.018985 5.003932 C 7.869149 5.364427 7.525191 4.922353 7.569288 5.746971 C 7.657483 6.278342 10.369462 7.174618 8.549349 7.161389 L 8.73566 8.192162 C 10.394818 8.883386 9.058672 9.721233 8.080816 10.251502 C 7.546137 9.8425 7.373056 10.03763 6.771129 10.370564 C 5.167092 10.28678 4.252075 9.768637 4.433976 8.432492 M 4.432873 8.430287 " transform="matrix(3.543307,0,0,3.543307,0,0)"/>
<path style="fill:none;stroke-width:0.141;stroke-linecap:butt;stroke-linejoin:miter;stroke:rgb(17.647059%,17.647059%,17.647059%);stroke-opacity:1;stroke-miterlimit:4;" d="M 5.239853 8.389497 C 5.145044 8.408238 5.060156 8.417057 4.977474 8.421467 C 4.965347 8.421467 4.945504 8.42257 4.933377 8.423672 C 4.908021 8.424775 4.882665 8.426979 4.859514 8.428082 C 4.827544 8.429184 4.786754 8.430287 4.751476 8.431389 C 4.729427 8.431389 4.697457 8.431389 4.667691 8.431389 C 4.594931 8.431389 4.528785 8.430287 4.439488 8.428082 C 4.384366 8.842596 4.428464 9.178837 4.570677 9.44783 L 4.602648 9.441216 C 4.989601 9.282466 5.153863 8.839288 5.23875 8.387292 M 5.239853 8.387292 " transform="matrix(3.543307,0,0,3.543307,0,0)"/>
<path style="fill:none;stroke-width:0.141;stroke-linecap:butt;stroke-linejoin:miter;stroke:rgb(17.647059%,17.647059%,17.647059%);stroke-opacity:1;stroke-miterlimit:4;" d="M 7.463455 6.616788 C 6.621198 6.589228 5.942101 8.124913 7.357622 9.971485 C 7.560469 9.479801 7.796389 8.368551 8.69487 8.163498 C 8.402726 7.076502 7.903325 6.634427 7.462353 6.616788 M 7.46125 6.616788 " transform="matrix(3.543307,0,0,3.543307,0,0)"/>
<path style="fill:none;stroke-width:0.141;stroke-linecap:butt;stroke-linejoin:miter;stroke:rgb(17.647059%,17.647059%,17.647059%);stroke-opacity:1;stroke-miterlimit:4;" d="M 8.088533 4.153958 L 8.06428 4.180417 C 7.495426 4.261997 6.849401 5.106458 7.679531 5.215599 L 7.797492 5.207882 C 8.012465 5.154965 8.399419 5.196858 9.022292 5.001728 C 9.08513 4.514453 8.852518 4.407517 8.109479 4.184826 C 8.10066 4.173802 8.097353 4.162778 8.088533 4.151754 M 8.088533 4.151754 " transform="matrix(3.543307,0,0,3.543307,0,0)"/>
<path style=" stroke:none;fill-rule:nonzero;fill:rgb(17.647059%,17.647059%,17.647059%);fill-opacity:1;" d="M 26 15 C 26.007812 15.363281 25.816406 15.699219 25.503906 15.882812 C 25.191406 16.066406 24.804688 16.066406 24.492188 15.882812 C 24.179688 15.699219 23.992188 15.363281 24 15 C 23.992188 14.636719 24.179688 14.300781 24.492188 14.117188 C 24.804688 13.933594 25.191406 13.933594 25.503906 14.117188 C 25.816406 14.300781 26.007812 14.636719 26 15 M 26 15 "/>
</g>
</svg>
