<!-- color: #ab8746 -->
<svg xmlns="http://www.w3.org/2000/svg" xmlns:xlink="http://www.w3.org/1999/xlink" width="48px" height="48px" viewBox="0 0 48 48" version="1.1">
<g id="surface1">
<path style=" stroke:none;fill-rule:nonzero;fill:rgb(12.54902%,35.686275%,12.54902%);fill-opacity:1;" d="M 22 34 L 22 32 C 18.464844 32.496094 16.476562 31.515625 14 31 C 15.796875 29.464844 18.113281 28.445312 19 26 C 17.957031 25.828125 16.820312 26.011719 16 25 C 17.960938 23.847656 19.882812 22.671875 21 21 C 19.78125 20.871094 18.5625 20.738281 18 20 C 20.992188 18.308594 22.507812 16.160156 24 14 C 25.363281 16.160156 26.660156 18.351562 29 20 C 28.898438 20.65625 28.105469 20.917969 27 21 C 28.109375 22.800781 30.046875 23.902344 32 25 C 31.023438 25.246094 30.023438 26.28125 29 26 C 30.042969 28.367188 32.214844 29.070312 34 31 C 31.757812 31.449219 30.496094 32.167969 26 32 L 26 34 M 22 34 "/>
</g>
</svg>
