<!-- color: #eeeeee -->
<svg xmlns="http://www.w3.org/2000/svg" xmlns:xlink="http://www.w3.org/1999/xlink" width="48px" height="48px" viewBox="0 0 48 48" version="1.1">
<g id="surface1">
<path style=" stroke:none;fill-rule:nonzero;fill:rgb(75.686275%,49.803922%,24.705882%);fill-opacity:1;" d="M 34 17.996094 L 34 29.996094 L 24.007812 35.996094 L 14.007812 30 L 14.003906 18 L 24 12 M 34 17.996094 "/>
<path style=" stroke:none;fill-rule:nonzero;fill:rgb(100%,84.705882%,72.54902%);fill-opacity:1;" d="M 27.457031 18 C 27.351562 18.011719 27.21875 18.050781 27.144531 18.125 L 19.292969 25.976562 C 19.242188 26.023438 19.222656 26.085938 19.199219 26.148438 L 18.023438 29.398438 C 17.902344 29.722656 18.300781 30.097656 18.625 29.972656 L 21.855469 28.820312 C 21.917969 28.796875 22 28.773438 22.046875 28.722656 L 29.898438 20.84375 C 29.992188 20.746094 30.015625 20.605469 29.992188 20.46875 C 29.992188 20.46875 29.996094 20.394531 29.96875 20.320312 C 29.941406 20.242188 29.875 20.140625 29.804688 20.019531 C 29.660156 19.78125 29.433594 19.464844 28.988281 19.019531 C 28.527344 18.5625 28.21875 18.308594 27.976562 18.171875 C 27.855469 18.097656 27.746094 18.046875 27.664062 18.019531 C 27.585938 17.992188 27.472656 17.996094 27.472656 17.996094 L 27.449219 17.996094 M 27.453125 18 "/>
</g>
</svg>
