<!-- color: #70bdea -->
<svg xmlns="http://www.w3.org/2000/svg" xmlns:xlink="http://www.w3.org/1999/xlink" width="48px" height="48px" viewBox="0 0 48 48" version="1.1">
<g id="surface1">
<path style=" stroke:none;fill-rule:nonzero;fill:rgb(23.921569%,38.431373%,45.882353%);fill-opacity:1;" d="M 24 11 C 22.339844 11 21 12.292969 21 13.886719 C 21 15.089844 21.914062 16.082031 23 16.515625 L 23 18.996094 L 18.371094 18.996094 C 18.171875 18.996094 17.996094 19.25 17.996094 19.453125 L 17.996094 20.535156 C 17.996094 20.742188 18.164062 21.039062 18.371094 20.992188 L 23 20.992188 L 23 32.660156 C 23 33.035156 22.230469 33.039062 21.867188 33.078125 C 21.332031 33.078125 21.003906 32.945312 20.496094 32.8125 C 19.339844 32.484375 18.238281 32.035156 17.179688 31.488281 C 16.730469 31.25 16.296875 31.019531 15.898438 30.710938 C 15.730469 30.566406 15.53125 30.367188 15.546875 30.136719 C 15.570312 29.957031 15.664062 29.773438 15.863281 29.742188 C 16.042969 29.714844 16.207031 29.808594 16.367188 29.867188 C 16.503906 29.921875 16.601562 29.761719 16.578125 29.652344 C 16.558594 29.363281 16.457031 29.09375 16.300781 28.84375 C 15.972656 28.324219 15.46875 27.941406 14.949219 27.613281 C 14.394531 27.273438 13.800781 26.898438 13.445312 26.347656 C 13.375 26.25 13.296875 26.078125 13.140625 26.132812 C 12.921875 26.199219 12.800781 26.40625 12.695312 26.582031 C 12.394531 27.128906 12.246094 27.726562 12.109375 28.332031 C 12 28.8125 11.980469 29.320312 12.019531 29.808594 C 12.058594 30.296875 12.09375 30.792969 12.296875 31.253906 C 12.429688 31.554688 12.65625 31.796875 12.882812 32.035156 C 13.027344 31.886719 13.179688 31.726562 13.328125 31.585938 C 13.519531 31.398438 13.761719 31.277344 14.046875 31.316406 C 14.429688 31.363281 14.777344 31.589844 15.078125 31.800781 C 15.503906 32.113281 15.898438 32.445312 16.332031 32.761719 C 17.015625 33.265625 17.769531 33.632812 18.546875 33.988281 C 19.191406 34.277344 19.855469 34.5625 20.527344 34.800781 C 20.648438 34.851562 20.777344 34.847656 20.902344 34.890625 C 22.109375 35.367188 23.128906 35.9375 23.964844 36.945312 C 23.964844 36.960938 23.964844 36.988281 23.964844 37.003906 C 23.972656 36.992188 23.988281 36.976562 24 36.96875 C 24.007812 36.980469 24.023438 36.996094 24.035156 37.003906 C 24.042969 36.972656 24.027344 36.9375 24.035156 36.910156 C 24.867188 35.914062 25.894531 35.371094 27.09375 34.890625 C 27.21875 34.847656 27.351562 34.851562 27.472656 34.800781 C 28.140625 34.566406 28.808594 34.277344 29.453125 33.988281 C 30.226562 33.632812 30.984375 33.261719 31.667969 32.761719 C 32.097656 32.445312 32.496094 32.113281 32.921875 31.800781 C 33.222656 31.589844 33.570312 31.359375 33.953125 31.316406 C 34.234375 31.28125 34.472656 31.402344 34.667969 31.585938 C 34.816406 31.730469 34.96875 31.890625 35.113281 32.035156 C 35.339844 31.800781 35.570312 31.554688 35.699219 31.253906 C 35.90625 30.796875 35.941406 30.300781 35.980469 29.808594 C 36.019531 29.320312 35.996094 28.808594 35.886719 28.332031 C 35.753906 27.726562 35.597656 27.132812 35.300781 26.582031 C 35.195312 26.40625 35.070312 26.199219 34.855469 26.132812 C 34.699219 26.078125 34.621094 26.246094 34.550781 26.347656 C 34.195312 26.894531 33.605469 27.269531 33.046875 27.613281 C 32.523438 27.941406 32.023438 28.324219 31.691406 28.84375 C 31.535156 29.09375 31.433594 29.363281 31.410156 29.652344 C 31.390625 29.761719 31.484375 29.925781 31.632812 29.871094 C 31.78125 29.8125 31.945312 29.71875 32.132812 29.746094 C 32.335938 29.777344 32.429688 29.964844 32.445312 30.140625 C 32.46875 30.371094 32.265625 30.574219 32.09375 30.714844 C 31.695312 31.019531 31.261719 31.253906 30.816406 31.492188 C 29.757812 32.039062 28.65625 32.488281 27.503906 32.8125 C 26.984375 32.949219 26.660156 33.082031 26.132812 33.082031 C 25.671875 33.160156 24.988281 32.921875 24.988281 32.664062 L 24.988281 20.996094 L 29.617188 20.996094 C 29.800781 20.996094 29.992188 20.757812 29.992188 20.539062 L 29.992188 19.457031 C 29.992188 19.246094 29.8125 19.042969 29.617188 19 L 24.988281 19 L 24.988281 16.519531 C 26.089844 16.085938 26.988281 15.09375 26.988281 13.890625 C 26.988281 12.292969 25.644531 11 23.988281 11 M 23.925781 12.410156 C 24.730469 12.410156 25.394531 13.019531 25.394531 13.796875 C 25.394531 14.570312 24.734375 15.207031 23.925781 15.207031 C 23.121094 15.207031 22.449219 14.570312 22.449219 13.796875 C 22.449219 13.023438 23.117188 12.410156 23.925781 12.410156 M 23.925781 12.410156 "/>
<path style=" stroke:none;fill-rule:nonzero;fill:rgb(97.647059%,97.647059%,97.647059%);fill-opacity:1;" d="M 23.25 16 L 23.25 32 L 24.75 32 L 24.75 16 M 23.25 16 "/>
<path style=" stroke:none;fill-rule:nonzero;fill:rgb(97.647059%,97.647059%,97.647059%);fill-opacity:1;" d="M 26.5 28.5 C 26.5 29.328125 25.382812 30 24 30 C 22.617188 30 21.5 29.328125 21.5 28.5 C 21.5 27.671875 22.617188 27 24 27 C 25.382812 27 26.5 27.671875 26.5 28.5 M 26.5 28.5 "/>
<path style=" stroke:none;fill-rule:nonzero;fill:rgb(97.647059%,97.647059%,97.647059%);fill-opacity:1;" d="M 19.25 31 L 19.25 17 L 17.75 17 L 17.75 31 M 19.25 31 "/>
<path style=" stroke:none;fill-rule:nonzero;fill:rgb(97.647059%,97.647059%,97.647059%);fill-opacity:1;" d="M 21 21.5 C 21 22.328125 19.882812 23 18.5 23 C 17.117188 23 16 22.328125 16 21.5 C 16 20.671875 17.117188 20 18.5 20 C 19.882812 20 21 20.671875 21 21.5 M 21 21.5 "/>
<path style=" stroke:none;fill-rule:nonzero;fill:rgb(97.647059%,97.647059%,97.647059%);fill-opacity:1;" d="M 30.25 31 L 30.25 17 L 28.75 17 L 28.75 31 M 30.25 31 "/>
<path style=" stroke:none;fill-rule:nonzero;fill:rgb(97.647059%,97.647059%,97.647059%);fill-opacity:1;" d="M 32 21.5 C 32 22.328125 30.882812 23 29.5 23 C 28.117188 23 27 22.328125 27 21.5 C 27 20.671875 28.117188 20 29.5 20 C 30.882812 20 32 20.671875 32 21.5 M 32 21.5 "/>
</g>
</svg>
