<!-- color: #f9f9f9 -->
<svg xmlns="http://www.w3.org/2000/svg" xmlns:xlink="http://www.w3.org/1999/xlink" width="48px" height="48px" viewBox="0 0 48 48" version="1.1">
<g id="surface1">
<path style=" stroke:none;fill-rule:nonzero;fill:rgb(92.54902%,32.54902%,43.921569%);fill-opacity:1;" d="M 12.804688 12 C 12.367188 12.046875 11.996094 12.460938 12 12.902344 L 12 28.003906 C 12 28.476562 12.527344 29.003906 13 29.003906 L 22 29.003906 L 22 35.003906 L 26 35.003906 L 26 29.003906 L 35 29.003906 C 35.472656 29.003906 36 28.476562 36 28.003906 L 36 12.902344 C 36 12.429688 35.570312 12 35.101562 12 M 15.003906 14 L 33.003906 14 C 33.472656 14 34.003906 14.585938 34.003906 15 L 34.003906 26 C 34.003906 26.46875 33.4375 27 33.003906 27 L 15.003906 27 C 14.476562 27 14.003906 26.519531 14.003906 26 L 14.003906 15 C 14.003906 14.59375 14.515625 14 15.003906 14 M 15.003906 33 L 15.003906 36 L 33.003906 36 L 33.003906 33 M 15.003906 33 "/>
<path style=" stroke:none;fill-rule:nonzero;fill:rgb(92.54902%,32.54902%,43.921569%);fill-opacity:1;" d="M 13.5 12.5 L 13.5 28.5 L 34.5 28.5 L 34.5 12.5 M 26 14 L 34 22 L 26 22 M 26 14 "/>
</g>
</svg>
