<!-- color: #eeeeee -->
<svg xmlns="http://www.w3.org/2000/svg" xmlns:xlink="http://www.w3.org/1999/xlink" width="48px" height="48px" viewBox="0 0 48 48" version="1.1">
<g id="surface1">
<path style=" stroke:none;fill-rule:nonzero;fill:rgb(80%,0%,0%);fill-opacity:1;" d="M 8.25 11.996094 L 15.75 11.996094 C 16.441406 11.996094 17 12.59375 17 13.332031 L 17 18.664062 C 17 19.402344 16.441406 19.996094 15.75 19.996094 L 8.25 19.996094 C 7.558594 19.996094 7 19.402344 7 18.664062 L 7 13.332031 C 7 12.59375 7.558594 11.996094 8.25 11.996094 M 8.25 11.996094 "/>
<path style=" stroke:none;fill-rule:nonzero;fill:rgb(67.058824%,67.058824%,67.058824%);fill-opacity:1;" d="M 9 12.996094 L 15 12.996094 C 15.550781 12.996094 16 13.445312 16 13.996094 L 16 17.996094 C 16 18.550781 15.550781 18.996094 15 18.996094 L 9 18.996094 C 8.449219 18.996094 8 18.550781 8 17.996094 L 8 13.996094 C 8 13.445312 8.449219 12.996094 9 12.996094 M 9 12.996094 "/>
<path style=" stroke:none;fill-rule:nonzero;fill:rgb(67.058824%,67.058824%,67.058824%);fill-opacity:1;" d="M 21 12.996094 L 27 12.996094 C 27.550781 12.996094 28 13.445312 28 13.996094 L 28 17.996094 C 28 18.550781 27.550781 18.996094 27 18.996094 L 21 18.996094 C 20.449219 18.996094 20 18.550781 20 17.996094 L 20 13.996094 C 20 13.445312 20.449219 12.996094 21 12.996094 M 21 12.996094 "/>
<path style=" stroke:none;fill-rule:nonzero;fill:rgb(67.058824%,67.058824%,67.058824%);fill-opacity:1;" d="M 33 12.996094 L 39 12.996094 C 39.550781 12.996094 40 13.445312 40 13.996094 L 40 17.996094 C 40 18.550781 39.550781 18.996094 39 18.996094 L 33 18.996094 C 32.449219 18.996094 32 18.550781 32 17.996094 L 32 13.996094 C 32 13.445312 32.449219 12.996094 33 12.996094 M 33 12.996094 "/>
<path style=" stroke:none;fill-rule:nonzero;fill:rgb(80%,0%,0%);fill-opacity:1;" d="M 10.144531 20.996094 L 23.855469 20.996094 C 24.488281 20.996094 25 21.59375 25 22.332031 L 25 27.664062 C 25 28.402344 24.488281 28.996094 23.855469 28.996094 L 10.144531 28.996094 C 9.511719 28.996094 9 28.402344 9 27.664062 L 9 22.332031 C 9 21.59375 9.511719 20.996094 10.144531 20.996094 M 10.144531 20.996094 "/>
<path style=" stroke:none;fill-rule:nonzero;fill:rgb(67.058824%,67.058824%,67.058824%);fill-opacity:1;" d="M 11 21.996094 L 23 21.996094 C 23.550781 21.996094 24 22.445312 24 22.996094 L 24 26.996094 C 24 27.550781 23.550781 27.996094 23 27.996094 L 11 27.996094 C 10.449219 27.996094 10 27.550781 10 26.996094 L 10 22.996094 C 10 22.445312 10.449219 21.996094 11 21.996094 M 11 21.996094 "/>
<path style=" stroke:none;fill-rule:nonzero;fill:rgb(29.411765%,61.176471%,96.078431%);fill-opacity:1;" d="M 28.25 20.996094 L 35.75 20.996094 C 36.441406 20.996094 37 21.59375 37 22.332031 L 37 27.664062 C 37 28.402344 36.441406 28.996094 35.75 28.996094 L 28.25 28.996094 C 27.558594 28.996094 27 28.402344 27 27.664062 L 27 22.332031 C 27 21.59375 27.558594 20.996094 28.25 20.996094 M 28.25 20.996094 "/>
<path style=" stroke:none;fill-rule:nonzero;fill:rgb(67.058824%,67.058824%,67.058824%);fill-opacity:1;" d="M 29 21.996094 L 35 21.996094 C 35.550781 21.996094 36 22.445312 36 22.996094 L 36 26.996094 C 36 27.550781 35.550781 27.996094 35 27.996094 L 29 27.996094 C 28.449219 27.996094 28 27.550781 28 26.996094 L 28 22.996094 C 28 22.445312 28.449219 21.996094 29 21.996094 M 29 21.996094 "/>
<path style=" stroke:none;fill-rule:nonzero;fill:rgb(67.058824%,67.058824%,67.058824%);fill-opacity:1;" d="M 9 30.996094 L 15 30.996094 C 15.550781 30.996094 16 31.445312 16 31.996094 L 16 35.996094 C 16 36.550781 15.550781 36.996094 15 36.996094 L 9 36.996094 C 8.449219 36.996094 8 36.550781 8 35.996094 L 8 31.996094 C 8 31.445312 8.449219 30.996094 9 30.996094 M 9 30.996094 "/>
<path style=" stroke:none;fill-rule:nonzero;fill:rgb(67.058824%,67.058824%,67.058824%);fill-opacity:1;" d="M 21 30.996094 L 27 30.996094 C 27.550781 30.996094 28 31.445312 28 31.996094 L 28 35.996094 C 28 36.550781 27.550781 36.996094 27 36.996094 L 21 36.996094 C 20.449219 36.996094 20 36.550781 20 35.996094 L 20 31.996094 C 20 31.445312 20.449219 30.996094 21 30.996094 M 21 30.996094 "/>
<path style=" stroke:none;fill-rule:nonzero;fill:rgb(29.411765%,61.176471%,96.078431%);fill-opacity:1;" d="M 32.25 29.996094 L 39.75 29.996094 C 40.441406 29.996094 41 30.59375 41 31.332031 L 41 36.664062 C 41 37.402344 40.441406 37.996094 39.75 37.996094 L 32.25 37.996094 C 31.558594 37.996094 31 37.402344 31 36.664062 L 31 31.332031 C 31 30.59375 31.558594 29.996094 32.25 29.996094 M 32.25 29.996094 "/>
<path style=" stroke:none;fill-rule:nonzero;fill:rgb(67.058824%,67.058824%,67.058824%);fill-opacity:1;" d="M 33 30.996094 L 39 30.996094 C 39.550781 30.996094 40 31.445312 40 31.996094 L 40 35.996094 C 40 36.550781 39.550781 36.996094 39 36.996094 L 33 36.996094 C 32.449219 36.996094 32 36.550781 32 35.996094 L 32 31.996094 C 32 31.445312 32.449219 30.996094 33 30.996094 M 33 30.996094 "/>
<path style=" stroke:none;fill-rule:nonzero;fill:rgb(80%,0%,0%);fill-opacity:1;" d="M 8 17 L 5 17 L 5 24 L 10 24 L 10 25 L 4 25 L 4 16 L 8 16 M 8 17 "/>
<path style=" stroke:none;fill-rule:nonzero;fill:rgb(29.411765%,61.176471%,96.078431%);fill-opacity:1;" d="M 40.5 34 L 42 34 L 42 25 L 36 25 L 36 24 L 43 24 L 43 35 L 40.5 35 M 40.5 34 "/>
</g>
</svg>
