<!-- color: #dedede -->
<svg xmlns="http://www.w3.org/2000/svg" xmlns:xlink="http://www.w3.org/1999/xlink" width="48px" height="48px" viewBox="0 0 48 48" version="1.1">
<g id="surface1">
<path style=" stroke:none;fill-rule:nonzero;fill:rgb(32.941176%,52.941176%,78.431373%);fill-opacity:1;" d="M 12.804688 11.996094 C 12.367188 12.042969 11.996094 12.457031 12 12.898438 L 12 27.996094 C 12 28.476562 12.527344 28.996094 13 28.996094 L 22 28.996094 L 22 34.996094 L 26 34.996094 L 26 28.996094 L 35 28.996094 C 35.472656 28.996094 36 28.476562 36 27.996094 L 36 12.898438 C 36 12.429688 35.570312 11.996094 35.101562 11.996094 M 15.003906 13.996094 L 33.003906 13.996094 C 33.472656 13.996094 34.003906 14.585938 34.003906 14.996094 L 34.003906 25.996094 C 34.003906 26.464844 33.4375 26.996094 33.003906 26.996094 L 15.003906 26.996094 C 14.476562 26.996094 14.003906 26.519531 14.003906 25.996094 L 14.003906 14.996094 C 14.003906 14.59375 14.515625 13.996094 15.003906 13.996094 M 15.003906 32.996094 L 15.003906 35.996094 L 33.003906 35.996094 L 33.003906 32.996094 M 15.003906 32.996094 "/>
</g>
</svg>
