<!-- color: #ffc972 -->
<svg xmlns="http://www.w3.org/2000/svg" xmlns:xlink="http://www.w3.org/1999/xlink" width="48px" height="48px" viewBox="0 0 48 48" version="1.1">
<g id="surface1">
<path style=" stroke:none;fill-rule:nonzero;fill:rgb(94.509804%,43.529412%,40%);fill-opacity:1;" d="M 10.058594 15 L 37.933594 15 C 38.519531 15 38.996094 15.445312 38.996094 15.996094 C 38.996094 16.550781 38.519531 16.996094 37.933594 16.996094 L 10.058594 16.996094 C 9.472656 16.996094 8.996094 16.550781 8.996094 15.996094 C 8.996094 15.445312 9.472656 15 10.058594 15 M 10.058594 15 "/>
<path style=" stroke:none;fill-rule:nonzero;fill:rgb(97.647059%,97.647059%,97.647059%);fill-opacity:1;" d="M 33 16 C 33 17.660156 34.339844 19 36 19 C 37.660156 19 39 17.65625 39 16 C 39 14.34375 37.660156 13 36 13 C 34.339844 13 33 14.34375 33 16 M 33 16 "/>
<path style=" stroke:none;fill-rule:nonzero;fill:rgb(94.509804%,43.529412%,40%);fill-opacity:1;" d="M 10.058594 23 L 37.933594 23 C 38.523438 23 38.996094 23.445312 38.996094 24 C 38.996094 24.550781 38.523438 24.996094 37.933594 24.996094 L 10.058594 24.996094 C 9.472656 24.996094 8.996094 24.550781 8.996094 24 C 8.996094 23.445312 9.472656 23 10.058594 23 M 10.058594 23 "/>
<path style=" stroke:none;fill-rule:nonzero;fill:rgb(78.431373%,60.392157%,31.764706%);fill-opacity:1;" d="M 24 23 L 37.933594 23 C 38.523438 23 38.996094 23.445312 38.996094 24 C 38.996094 24.550781 38.523438 24.996094 37.933594 24.996094 L 24 24.996094 C 23.410156 24.996094 22.9375 24.550781 22.9375 24 C 22.9375 23.445312 23.410156 23 24 23 M 24 23 "/>
<path style=" stroke:none;fill-rule:nonzero;fill:rgb(97.647059%,97.647059%,97.647059%);fill-opacity:1;" d="M 21 24 C 21 25.65625 22.34375 27 24 27 C 25.65625 27 27 25.65625 27 24 C 27 22.339844 25.65625 21 24 21 C 22.339844 21 21 22.34375 21 24 M 21 24 "/>
<path style=" stroke:none;fill-rule:nonzero;fill:rgb(78.431373%,60.392157%,31.764706%);fill-opacity:1;" d="M 10.058594 31 L 37.933594 31 C 38.519531 31 38.996094 31.449219 38.996094 32 C 38.996094 32.550781 38.519531 33 37.933594 33 L 10.058594 33 C 9.472656 33 8.996094 32.550781 8.996094 32 C 8.996094 31.449219 9.472656 31 10.058594 31 M 10.058594 31 "/>
<path style=" stroke:none;fill-rule:nonzero;fill:rgb(97.647059%,97.647059%,97.647059%);fill-opacity:1;" d="M 9 32 C 9 33.65625 10.34375 35 12 35 C 13.65625 35 15 33.65625 15 32 C 15 30.339844 13.65625 29 12 29 C 10.339844 29 9 30.34375 9 32 M 9 32 "/>
</g>
</svg>
