<!-- color: #4fb215 -->
<svg xmlns="http://www.w3.org/2000/svg" xmlns:xlink="http://www.w3.org/1999/xlink" width="48px" height="48px" viewBox="0 0 48 48" version="1.1">
<g id="surface1">
<path style=" stroke:none;fill-rule:nonzero;fill:rgb(94.509804%,29.803922%,29.803922%);fill-opacity:1;" d="M 11.636719 24 L 18.363281 24 C 18.714844 24 19 24.351562 19 24.789062 L 19 33.207031 C 19 33.644531 18.714844 33.996094 18.363281 33.996094 L 11.636719 33.996094 C 11.285156 33.996094 11 33.644531 11 33.207031 L 11 24.789062 C 11 24.351562 11.285156 24 11.636719 24 M 11.636719 24 "/>
<path style=" stroke:none;fill-rule:nonzero;fill:rgb(14.901961%,69.803922%,11.764706%);fill-opacity:1;" d="M 20.636719 18 L 27.363281 18 C 27.714844 18 28 18.566406 28 19.269531 L 28 32.734375 C 28 33.433594 27.714844 34 27.363281 34 L 20.636719 34 C 20.285156 34 20 33.433594 20 32.734375 L 20 19.269531 C 20 18.566406 20.285156 18 20.636719 18 M 20.636719 18 "/>
<path style=" stroke:none;fill-rule:nonzero;fill:rgb(13.333333%,61.960784%,78.823529%);fill-opacity:1;" d="M 29.636719 14 L 36.363281 14 C 36.714844 14 37 14.707031 37 15.582031 L 37 32.414062 C 37 33.289062 36.714844 33.996094 36.363281 33.996094 L 29.636719 33.996094 C 29.285156 33.996094 29 33.289062 29 32.414062 L 29 15.582031 C 29 14.707031 29.285156 14 29.636719 14 M 29.636719 14 "/>
</g>
</svg>
