<!-- color: #eeeeee -->
<svg xmlns="http://www.w3.org/2000/svg" width="48" height="48" viewBox="0 0 48 48">
 <g>
  <path d="M 28.710938 24.96875 L 32.695312 20.894531 C 32.695312 20.894531 17.886719 12.699219 17 12.210938 C 16.660156 12.019531 16.289062 11.957031 15.957031 12.03125 Z M 28.710938 24.96875 " fill-opacity="0.102"/>
  <path d="M 31.699219 28.015625 C 34.734375 26.332031 37.050781 25.042969 37.261719 24.925781 C 37.890625 24.578125 38.546875 23.6875 37.261719 22.976562 C 36.847656 22.746094 34.59375 21.5 31.695312 19.894531 L 27.710938 23.96875 Z M 31.699219 28.015625 " fill="#f9ab7d"/>
  <path d="M 27.710938 23.96875 L 14.96875 36.992188 C 15.253906 37.027344 15.601562 36.949219 16 36.730469 C 16.824219 36.273438 25.675781 31.359375 31.699219 28.015625 Z M 27.710938 23.96875 " fill="#b25367"/>
  <path d="M 27.710938 23.96875 L 31.695312 19.894531 C 31.695312 19.894531 16.886719 11.699219 16 11.210938 C 15.660156 11.019531 15.289062 10.957031 14.957031 11.03125 Z M 27.710938 23.96875 " fill="#95deb2"/>
  <path d="M 27.710938 23.96875 L 14.957031 11.03125 C 14.433594 11.148438 14 11.613281 14 12.542969 C 14 14.050781 14 34.171875 14 35.4375 C 14 36.3125 14.339844 36.929688 14.96875 36.992188 Z M 27.710938 23.96875 " fill="#43a2ac"/>
 </g>
</svg>
