<!-- color: #eeeeee -->
<svg xmlns="http://www.w3.org/2000/svg" width="48" height="48" viewBox="0 0 48 48">
 <g>
  <path d="M 5 18 L 10 24 L 38 36 L 43 30 L 38 24 L 10 12 Z M 5 18 " fill="#85ced5" fill-opacity="0.8"/>
  <path d="M 5 30 L 10 24 L 38 12 L 43 18 L 38 24 L 10 36 Z M 5 30 " fill="#2cafed" fill-opacity="0.8"/>
  <path d="M 14 16 L 24 5 L 34 16 L 34 32 L 24 43 L 14 32 Z M 14 16 " fill="#e73621"/>
  <path d="M 14 16 L 34 16 L 34 32 L 27 32 L 27 35 L 30 32 L 14 32 Z M 14 16 " fill-opacity="0.2"/>
  <path d="M 17 30.003906 L 31 30.003906 L 31 28.003906 L 17 28.003906 Z M 17 30.003906 " fill="#f9f9f9"/>
  <path d="M 27 27 C 27.550781 27 28 27.449219 28 28 L 28 30 C 28 30.554688 27.550781 31 27 31 C 26.449219 31 26 30.554688 26 30 L 26 28 C 26 27.449219 26.449219 27 27 27 Z M 27 27 " fill="#f9f9f9"/>
  <path d="M 17 25.003906 L 31 25.003906 L 31 23.003906 L 17 23.003906 Z M 17 25.003906 " fill="#f9f9f9"/>
  <path d="M 20.996094 22 C 21.550781 22 21.996094 22.449219 21.996094 23 L 21.996094 25 C 21.996094 25.554688 21.550781 26 20.996094 26 C 20.445312 26 20 25.554688 20 25 L 20 23 C 20 22.449219 20.445312 22 20.996094 22 Z M 20.996094 22 " fill="#f9f9f9"/>
  <path d="M 17 20.003906 L 31 20.003906 L 31 18.003906 L 17 18.003906 Z M 17 20.003906 " fill="#f9f9f9"/>
  <path d="M 27 17 C 27.550781 17 28 17.449219 28 18 L 28 20.003906 C 28 20.554688 27.550781 21 27 21 C 26.449219 21 26 20.554688 26 20.003906 L 26 18 C 26 17.449219 26.449219 17 27 17 Z M 27 17 " fill="#f9f9f9"/>
 </g>
</svg>
