<!-- color: #f4f4f4 -->
<svg xmlns="http://www.w3.org/2000/svg" width="48" height="48" viewBox="0 0 48 48">
 <defs>
  <linearGradient id="0" gradientUnits="userSpaceOnUse" y1="1009.36" x2="0" y2="1039.36" gradientTransform="matrix(1,0,0,1,-0.0000000472441,-1006.3622)">
   <stop stop-color="#f45c45"/>
   <stop offset="0.5" stop-color="#db3d28"/>
   <stop offset="1" stop-color="#f45c45"/>
  </linearGradient>
 </defs>
 <g>
  <path d="M 24 1 C 11.296875 1 1 11.296875 1 24 C 1 36.703125 11.296875 47 24 47 C 36.703125 47 47 36.703125 47 24 C 47 11.296875 36.703125 1 24 1 Z M 24 3 C 35.597656 3 45 12.402344 45 24 C 45 35.597656 35.597656 45 24 45 C 12.402344 45 3 35.597656 3 24 C 3 12.402344 12.402344 3 24 3 Z M 24 3 " fill="#f45c45"/>
  <path d="M 16 3 L 16 33 L 16.054688 33 L 24 25.1875 L 31.945312 33 L 32 33 L 32 3 Z M 24 11 L 26 15 L 31 15 L 27 19 L 29 24 L 24 20.5 L 19 24 L 21 19 L 17 15 L 22 15 Z M 24 11 " fill="url(#0)"/>
  <path d="M 16 21 L 16 33 L 16.0625 33 L 24 25.1875 L 31.9375 33 L 32 33 L 32 21 L 27.8125 21 L 29 24 L 24.71875 21 L 23.28125 21 L 19 24 L 20.1875 21 Z M 16 21 " fill="url(#0)"/>
 </g>
</svg>
