<!-- color: #569dcb -->
<svg xmlns="http://www.w3.org/2000/svg" xmlns:xlink="http://www.w3.org/1999/xlink" width="48px" height="48px" viewBox="0 0 48 48" version="1.1">
<g id="surface1">
<path style=" stroke:none;fill-rule:nonzero;fill:rgb(97.647059%,97.647059%,97.647059%);fill-opacity:1;" d="M 19.199219 12.871094 C 20.460938 12.570312 21.574219 12.421875 22.835938 12.421875 C 26.691406 12.421875 28.847656 14.21875 28.847656 17.398438 C 28.847656 20.839844 26.140625 23.007812 21.835938 23.007812 C 21.578125 23.007812 21.242188 23.007812 20.761719 22.972656 C 20.6875 23.121094 20.613281 23.269531 20.539062 23.421875 C 23.964844 27.949219 27.578125 32.472656 31.007812 37 C 32.75 36.886719 32.929688 36.886719 33.335938 36.886719 C 33.671875 36.886719 33.671875 36.886719 36.007812 37 C 36.007812 36.625 36.007812 36.375 36.007812 36 C 34.820312 35.886719 34.226562 35.542969 33.746094 34.90625 C 30.9375 31.214844 28.132812 27.523438 25.324219 23.835938 C 27.402344 23.3125 28.363281 22.902344 29.589844 22.039062 C 31.519531 20.65625 32.558594 18.785156 32.558594 16.617188 C 32.558594 13.023438 29.960938 11.003906 25.359375 11.003906 C 20.539062 11.003906 19.945312 11.117188 18.683594 11.117188 C 17.457031 11.117188 17.199219 11.117188 12.003906 11.003906 C 12.003906 11.378906 12.003906 11.628906 12.003906 12.003906 C 12.511719 12.042969 13.554688 12.203125 14.058594 12.238281 C 15.765625 12.351562 16.003906 12.6875 16.003906 15.605469 C 16.003906 21.203125 16.003906 26.804688 16.003906 32.402344 C 16.003906 35.359375 15.492188 35.835938 13.785156 35.949219 C 13.191406 35.988281 12.597656 36.023438 12.007812 36.0625 C 12.007812 36.433594 12.007812 36.632812 12.007812 37.003906 C 14.195312 36.929688 15.492188 36.894531 17.421875 36.894531 C 19.351562 36.894531 20.816406 36.929688 23.007812 37.003906 C 23.007812 36.632812 22.875 36.433594 22.875 36.0625 C 22.28125 36.023438 21.6875 35.988281 21.09375 35.949219 C 19.386719 35.835938 19.007812 35.359375 19.007812 32.402344 C 19.007812 25.894531 19.203125 19.382812 19.203125 12.875 "/>
</g>
</svg>
