<!-- color: #295dab -->
<svg xmlns="http://www.w3.org/2000/svg" width="48" height="48" viewBox="0 0 48 48">
 <g>
  <path d="M 28.488281 23.875 C 28.34375 20.878906 26.207031 19.078125 23.632812 19.078125 L 23.535156 19.078125 C 20.5625 19.078125 18.910156 21.515625 18.910156 24.285156 C 18.910156 27.382812 20.90625 29.34375 23.523438 29.34375 C 26.441406 29.34375 28.359375 27.117188 28.496094 24.480469 Z M 23.550781 16.398438 C 25.535156 16.398438 27.40625 17.3125 28.777344 18.746094 L 28.777344 18.753906 C 28.777344 18.0625 29.21875 17.546875 29.835938 17.546875 L 29.992188 17.542969 C 30.957031 17.542969 31.15625 18.496094 31.15625 18.796875 L 31.160156 29.496094 C 31.09375 30.195312 31.855469 30.558594 32.277344 30.109375 C 33.925781 28.34375 35.898438 21.03125 31.25 16.796875 C 26.921875 12.847656 21.113281 13.5 18.027344 15.71875 C 14.742188 18.078125 12.640625 23.304688 14.683594 28.210938 C 16.90625 33.5625 23.273438 35.160156 27.058594 33.566406 C 28.972656 32.761719 29.859375 35.460938 27.867188 36.34375 C 24.863281 37.675781 16.492188 37.542969 12.582031 30.484375 C 9.941406 25.71875 10.082031 17.332031 17.085938 12.984375 C 22.445312 9.660156 29.511719 10.582031 33.773438 15.21875 C 38.226562 20.070312 37.96875 29.148438 33.625 32.679688 C 31.65625 34.28125 28.730469 32.722656 28.75 30.382812 L 28.730469 29.621094 C 27.359375 31.039062 25.535156 31.863281 23.550781 31.863281 C 19.621094 31.863281 16.167969 28.265625 16.167969 24.171875 C 16.167969 20.039062 19.621094 16.398438 23.550781 16.398438 " fill="#ffb400" fill-rule="evenodd"/>
 </g>
</svg>
