<!-- color: #97769c -->
<svg xmlns="http://www.w3.org/2000/svg" xmlns:xlink="http://www.w3.org/1999/xlink" width="48px" height="48px" viewBox="0 0 48 48" version="1.1">
<g id="surface1">
<path style=" stroke:none;fill-rule:nonzero;fill:rgb(0%,0%,0%);fill-opacity:0.643137;" d="M 31.59375 14 L 30.625 14.75 C 28.65625 14.226562 28.308594 15.808594 28.53125 16.511719 L 22.902344 21.144531 C 19.625 18.796875 16.890625 21.566406 18.3125 25.023438 L 15.996094 26.785156 C 15.0625 27.40625 13.148438 27.507812 11.996094 23.65625 L 8.996094 24.695312 C 9.398438 30.191406 12.539062 32 13.996094 32 L 37.996094 32 L 36.210938 27 L 23.242188 27.011719 L 27.996094 23.324219 L 30.335938 24.335938 L 30.246094 21.566406 L 32.996094 22.605469 L 32.652344 19.929688 L 33.410156 19.203125 M 21.21875 22.023438 C 21.550781 22.023438 21.84375 22.15625 22.027344 22.410156 C 22.398438 22.925781 22.179688 23.738281 21.527344 24.234375 C 20.878906 24.734375 20.050781 24.71875 19.6875 24.203125 C 19.316406 23.691406 19.535156 22.878906 20.1875 22.378906 C 20.511719 22.128906 20.882812 22.015625 21.21875 22.023438 M 20.652344 22.707031 C 20.402344 22.707031 20.1875 22.933594 20.1875 23.195312 C 20.1875 23.457031 20.402344 23.683594 20.652344 23.683594 C 20.90625 23.683594 21.089844 23.457031 21.089844 23.195312 C 21.089844 22.933594 20.90625 22.707031 20.652344 22.707031 M 20.652344 22.707031 "/>
</g>
</svg>
