<!-- color: #8cbbcd -->
<svg xmlns="http://www.w3.org/2000/svg" xmlns:xlink="http://www.w3.org/1999/xlink" width="48px" height="48px" viewBox="0 0 48 48" version="1.1">
<g id="surface1">
<path style=" stroke:none;fill-rule:nonzero;fill:rgb(17.647059%,17.647059%,17.647059%);fill-opacity:1;" d="M 19.378906 34.320312 C 19.125 33.898438 18.910156 33.484375 18.910156 33.390625 C 18.910156 33.300781 18.390625 33.160156 17.753906 33.078125 C 17.027344 32.980469 16.605469 32.8125 16.605469 32.617188 C 16.605469 32.445312 17.21875 31.898438 17.964844 31.390625 C 19.667969 30.234375 20.804688 28.910156 20.535156 28.40625 C 20.425781 28.203125 19.46875 27.535156 18.414062 26.914062 C 16.234375 25.640625 14.714844 24.511719 13.765625 23.472656 C 12.445312 22.019531 11.480469 19.199219 12.308594 19.199219 C 12.484375 19.199219 13.492188 19.601562 14.554688 20.097656 C 16.574219 21.035156 19.738281 21.953125 20.96875 21.953125 C 22.3125 21.953125 22.460938 20.15625 21.195312 19.222656 C 20.613281 18.789062 20.523438 18.578125 20.523438 17.605469 C 20.523438 16.59375 20.441406 16.421875 19.679688 15.8125 L 18 14.503906 L 19.832031 14.585938 C 20.460938 14.613281 20.863281 13.824219 21 13.570312 C 21.140625 13.320312 20.96875 12.058594 21 12.003906 C 21.03125 11.953125 21.777344 12.808594 22 13.003906 C 22.222656 13.203125 22.625 13.792969 23.082031 13.980469 C 24.125 14.410156 24.742188 15.070312 25.378906 16.417969 C 25.648438 16.996094 26.234375 17.980469 26.675781 18.589844 C 27.636719 19.933594 27.46875 20.238281 26 19.800781 C 24.726562 19.417969 24.441406 19.605469 24.441406 20.835938 C 24.441406 21.878906 24.703125 22.089844 25.253906 21.488281 C 25.488281 21.226562 25.960938 21.03125 26.351562 21.03125 C 27.414062 21.03125 31.5 19.699219 33.472656 18.707031 C 41.054688 17.605469 29.386719 26.589844 26.441406 27.746094 C 24.769531 28.355469 23.246094 29.949219 21.546875 32.890625 C 20.90625 34 20.257812 34.949219 20.109375 34.996094 C 19.960938 35.046875 19.625 34.742188 19.371094 34.324219 M 25.058594 17.457031 C 25.226562 17.027344 24.59375 16.320312 24.234375 16.542969 C 23.964844 16.714844 23.894531 17.425781 24.136719 17.667969 C 24.414062 17.945312 24.917969 17.828125 25.058594 17.457031 M 25.058594 17.457031 "/>
</g>
</svg>
