<!-- color: #5d5d5d -->
<svg xmlns="http://www.w3.org/2000/svg" xmlns:xlink="http://www.w3.org/1999/xlink" width="48px" height="48px" viewBox="0 0 48 48" version="1.1">
<g id="surface1">
<path style="fill-rule:nonzero;fill:rgb(17.647059%,17.647059%,17.647059%);fill-opacity:1;stroke-width:7.842;stroke-linecap:round;stroke-linejoin:round;stroke:rgb(87.058824%,87.058824%,87.058824%);stroke-opacity:1;stroke-miterlimit:4;" d="M 52.912716 -8.453677 L 83.485343 36.39697 L 67.491099 88.286976 L 16.937786 108.127003 L -30.09406 80.990954 L -38.178447 27.293213 L -1.26501 -12.509625 M 52.912716 -8.453677 " transform="matrix(0.168475,-0.0117646,0.011881,0.169667,19.791437,15.916182)"/>
<path style="fill-rule:nonzero;fill:rgb(17.647059%,17.647059%,17.647059%);fill-opacity:1;stroke-width:18.471;stroke-linecap:round;stroke-linejoin:round;stroke:rgb(87.058824%,87.058824%,87.058824%);stroke-opacity:1;stroke-miterlimit:4;" d="M 52.905821 -8.477057 L 82.845521 58.729031 L 28.145268 107.973023 L -35.560477 71.180498 L -20.274627 -0.753042 M 52.905821 -8.477057 " transform="matrix(0.0715256,-0.00499456,0.00504439,0.0720313,21.914891,19.988136)"/>
<path style=" stroke:none;fill-rule:nonzero;fill:rgb(87.058824%,87.058824%,87.058824%);fill-opacity:1;" d="M 29.828125 11 C 29.828125 11 28.046875 13.582031 24.976562 18.925781 L 26.0625 19.546875 C 29.117188 14.238281 30.859375 11.714844 30.859375 11.714844 L 29.824219 11 M 19.609375 11.324219 L 18.371094 11.507812 C 19.160156 16.839844 19.570312 18.945312 19.71875 19.664062 C 13.542969 20.4375 11.210938 20.066406 11.210938 20.066406 L 10.996094 21.296875 C 10.996094 21.296875 13.691406 21.75 20.546875 20.832031 L 20.46875 20.210938 L 21.078125 20.074219 C 21.078125 20.074219 20.554688 17.730469 19.609375 11.320312 M 36.519531 19.429688 C 36.519531 19.429688 33.960938 20.488281 27.953125 23.027344 L 27.3125 23.296875 L 27.648438 23.90625 C 30.621094 29.304688 34.050781 32.046875 34.050781 32.046875 L 34.832031 31.074219 C 34.832031 31.074219 31.875 28.691406 29.101562 23.910156 C 34.160156 21.773438 36.996094 20.59375 36.996094 20.59375 L 36.515625 19.4375 M 19.40625 24.835938 C 15.300781 29.613281 12.335938 31.207031 12.335938 31.207031 L 12.925781 32.308594 C 12.925781 32.308594 16.136719 30.554688 20.347656 25.648438 L 19.398438 24.835938 M 23.832031 27.3125 C 23.359375 33.882812 23.007812 36.855469 23.007812 36.855469 L 24.246094 37.003906 C 24.246094 37.003906 24.601562 33.992188 25.082031 27.398438 L 23.835938 27.3125 M 23.832031 27.3125 "/>
<path style=" stroke:none;fill-rule:nonzero;fill:rgb(100%,12.54902%,12.54902%);fill-opacity:1;" d="M 20.382812 19.171875 C 19.246094 19.179688 18.117188 19.613281 17.277344 20.464844 L 13.214844 24.554688 L 15.003906 26.355469 L 18.839844 22.492188 L 19.0625 22.265625 C 19.683594 21.640625 21.0625 21.585938 21.742188 22.273438 L 23.824219 24.371094 L 25.609375 22.5625 L 23.527344 20.472656 C 22.65625 19.59375 21.519531 19.160156 20.378906 19.171875 M 20.382812 19.171875 "/>
<path style=" stroke:none;fill-rule:nonzero;fill:rgb(100%,12.54902%,12.54902%);fill-opacity:1;" d="M 34.28125 20.425781 L 30.222656 24.515625 C 29.601562 25.140625 28.222656 25.195312 27.535156 24.507812 L 25.460938 22.410156 L 23.660156 24.214844 L 25.742188 26.3125 C 27.484375 28.070312 30.320312 28.015625 32.007812 26.320312 L 36.066406 22.226562 M 34.28125 20.425781 "/>
<path style=" stroke:none;fill-rule:nonzero;fill:rgb(100%,12.54902%,12.54902%);fill-opacity:1;" d="M 36.433594 20 C 35.785156 19.34375 34.875 19.371094 34.210938 19.578125 C 33.546875 19.785156 32.957031 20.175781 32.421875 20.714844 C 31.890625 21.25 31.5 21.847656 31.296875 22.515625 C 31.089844 23.183594 31.0625 24.101562 31.714844 24.753906 C 32.363281 25.410156 33.269531 25.378906 33.933594 25.171875 C 34.59375 24.964844 35.1875 24.574219 35.722656 24.039062 C 36.253906 23.5 36.644531 22.902344 36.847656 22.234375 C 37.050781 21.566406 37.082031 20.652344 36.433594 20 M 36.433594 20 "/>
</g>
</svg>
