<!-- color: #b7cfcb -->
<svg xmlns="http://www.w3.org/2000/svg" xmlns:xlink="http://www.w3.org/1999/xlink" width="48px" height="48px" viewBox="0 0 48 48" version="1.1">
<g id="surface1">
<path style=" stroke:none;fill-rule:nonzero;fill:rgb(100%,80%,0.392157%);fill-opacity:1;" d="M 24 12 L 24 17 L 16 17 L 16 21 L 12 21 L 12 27 L 14 27 L 14 23 L 16 23 L 16 32 L 20 32 L 20 34 L 16 34 L 16 36 L 22 36 L 22 32 L 32 32 L 32 31 L 34 31 L 34 35 L 36 35 L 36 29 L 32 29 L 32 26 L 36 26 L 36 20 L 34 20 L 34 24 L 32 24 L 32 12 M 24 12 "/>
</g>
</svg>
