<!-- color: #d0d9e4 -->
<svg xmlns="http://www.w3.org/2000/svg" xmlns:xlink="http://www.w3.org/1999/xlink" width="48px" height="48px" viewBox="0 0 48 48" version="1.1">
<g id="surface1">
<path style=" stroke:none;fill-rule:nonzero;fill:rgb(7.058824%,9.803922%,10.196078%);fill-opacity:1;" d="M 22.480469 12.15625 C 19.273438 12.875 16.816406 16.148438 16.746094 20.140625 C 16.738281 20.707031 16.769531 21.261719 16.855469 21.796875 C 16.855469 21.800781 16.859375 21.804688 16.859375 21.8125 C 16.335938 22.988281 16.011719 24.289062 15.988281 25.691406 C 15.902344 30.671875 19.425781 34.769531 23.839844 34.84375 C 28.253906 34.921875 31.898438 30.953125 32 25.964844 C 32.03125 24.113281 31.582031 22.375 30.761719 20.925781 C 30.773438 20.738281 30.785156 20.570312 30.789062 20.382812 C 30.863281 15.816406 27.789062 12.054688 23.917969 11.984375 C 23.433594 11.976562 22.957031 12.039062 22.5 12.140625 M 22.480469 12.148438 "/>
<path style=" stroke:none;fill-rule:nonzero;fill:rgb(92.54902%,92.54902%,92.54902%);fill-opacity:1;" d="M 21.039062 14.761719 C 20.003906 15.113281 19.226562 16.226562 19.191406 17.566406 C 19.164062 18.726562 19.6875 19.742188 20.492188 20.257812 C 18.699219 21.554688 17.472656 23.859375 17.40625 26.519531 C 17.296875 30.683594 20.058594 34.121094 23.570312 34.210938 C 27.078125 34.296875 30.011719 31.003906 30.121094 26.839844 C 30.203125 23.757812 28.703125 21.074219 26.503906 19.851562 C 27.746094 19.707031 28.699219 18.855469 28.691406 17.84375 C 28.679688 16.734375 27.527344 15.863281 26.121094 15.878906 C 25.289062 15.886719 24.558594 16.199219 24.101562 16.691406 C 23.785156 15.523438 22.886719 14.660156 21.785156 14.632812 C 21.519531 14.621094 21.277344 14.664062 21.035156 14.753906 M 23.980469 18.902344 C 24.050781 18.992188 24.128906 19.066406 24.210938 19.148438 C 24.121094 19.140625 24.039062 19.132812 23.953125 19.128906 C 23.929688 19.128906 23.898438 19.125 23.867188 19.121094 C 23.90625 19.046875 23.949219 18.980469 23.980469 18.902344 M 23.980469 18.902344 "/>
<path style=" stroke:none;fill-rule:nonzero;fill:rgb(18.039216%,20.392157%,21.176471%);fill-opacity:1;" d="M 23.742188 18.03125 C 23.789062 18.546875 23.535156 18.992188 23.175781 19.023438 C 22.8125 19.054688 22.484375 18.660156 22.4375 18.140625 C 22.394531 17.617188 22.648438 17.175781 23.007812 17.144531 C 23.367188 17.117188 23.699219 17.511719 23.742188 18.03125 M 23.742188 18.03125 "/>
<path style=" stroke:none;fill-rule:nonzero;fill:rgb(18.039216%,20.392157%,21.176471%);fill-opacity:1;" d="M 25.496094 18 C 25.542969 18.351562 25.453125 18.695312 25.261719 18.894531 C 25.070312 19.09375 24.808594 19.117188 24.585938 18.953125 C 24.363281 18.789062 24.210938 18.46875 24.195312 18.117188 C 24.148438 17.769531 24.238281 17.425781 24.429688 17.226562 C 24.621094 17.027344 24.882812 17.003906 25.105469 17.164062 C 25.332031 17.328125 25.480469 17.652344 25.496094 18 M 25.496094 18 "/>
<path style=" stroke:none;fill-rule:nonzero;fill:rgb(100%,70.588235%,4.313725%);fill-opacity:1;" d="M 21.355469 20.089844 C 21.355469 20.089844 22.914062 19.21875 24.023438 19.328125 C 25.128906 19.433594 26.085938 20.269531 26.085938 20.269531 C 26.085938 20.269531 25.179688 23.171875 23.492188 22.925781 C 21.804688 22.675781 21.351562 20.089844 21.351562 20.089844 M 21.355469 20.089844 "/>
<path style=" stroke:none;fill-rule:nonzero;fill:rgb(7.058824%,9.803922%,10.196078%);fill-opacity:1;" d="M 17.078125 22.039062 C 17.078125 22.039062 17.742188 23.613281 18.617188 24.90625 C 19.492188 26.203125 20.511719 28.386719 18.945312 27.585938 C 17.386719 26.789062 16.300781 25.542969 16.519531 24.105469 C 16.746094 22.667969 17.085938 22.035156 17.085938 22.035156 M 17.078125 22.039062 "/>
<path style=" stroke:none;fill-rule:nonzero;fill:rgb(7.058824%,9.803922%,10.196078%);fill-opacity:1;" d="M 30.171875 20.585938 C 30.171875 20.585938 29.300781 22.636719 28.148438 24.320312 C 27.003906 26.007812 25.675781 28.847656 27.710938 27.8125 C 29.742188 26.78125 31.175781 25.160156 30.882812 23.289062 C 30.589844 21.414062 30.15625 20.585938 30.15625 20.585938 M 30.160156 20.585938 "/>
<path style=" stroke:none;fill-rule:nonzero;fill:rgb(100%,70.588235%,4.313725%);fill-opacity:1;" d="M 17.941406 33.300781 C 17.476562 34.410156 18.203125 35.578125 19.5625 35.910156 C 20.921875 36.238281 22.402344 35.609375 22.867188 34.496094 C 23.332031 33.386719 22.605469 32.21875 21.246094 31.886719 C 19.886719 31.558594 18.40625 32.191406 17.941406 33.300781 M 17.941406 33.300781 "/>
<path style=" stroke:none;fill-rule:nonzero;fill:rgb(100%,70.588235%,4.313725%);fill-opacity:1;" d="M 29.988281 33.308594 C 30.433594 34.308594 29.738281 35.367188 28.429688 35.667969 C 27.125 35.964844 25.703125 35.394531 25.257812 34.390625 C 24.8125 33.390625 25.511719 32.328125 26.816406 32.03125 C 28.121094 31.730469 29.542969 32.304688 29.988281 33.308594 M 29.988281 33.308594 "/>
</g>
</svg>
