<!-- color: #52bfb9 -->
<svg xmlns="http://www.w3.org/2000/svg" xmlns:xlink="http://www.w3.org/1999/xlink" width="48px" height="48px" viewBox="0 0 48 48" version="1.1">
<g id="surface1">
<path style=" stroke:none;fill-rule:nonzero;fill:rgb(95.294118%,95.294118%,95.294118%);fill-opacity:1;" d="M 21.058594 9 C 20.609375 12.714844 18.46875 13.585938 15.539062 11.273438 C 16.539062 14.875 14.898438 16.496094 11.308594 15.480469 C 13.613281 18.421875 12.71875 20.539062 9.011719 20.976562 C 12.265625 22.8125 12.257812 25.117188 9 26.941406 C 12.714844 27.390625 13.585938 29.53125 11.273438 32.460938 C 14.875 31.449219 16.496094 33.097656 15.480469 36.691406 C 18.421875 34.382812 20.539062 35.28125 20.976562 38.988281 C 22.8125 35.730469 25.117188 35.742188 26.941406 38.996094 C 27.386719 35.285156 29.53125 34.414062 32.460938 36.722656 C 31.453125 33.121094 33.097656 31.5 36.691406 32.515625 C 34.382812 29.574219 35.28125 27.457031 38.988281 27.019531 C 35.730469 25.1875 35.742188 22.878906 38.996094 21.058594 C 35.285156 20.613281 34.414062 18.46875 36.722656 15.539062 C 33.121094 16.539062 31.5 14.898438 32.515625 11.308594 C 29.574219 13.613281 27.457031 12.71875 27.019531 9.011719 C 25.1875 12.265625 22.878906 12.257812 21.058594 9 M 21.058594 9 "/>
<path style=" stroke:none;fill-rule:nonzero;fill:rgb(89.803922%,35.686275%,25.882353%);fill-opacity:1;" d="M 21 14 L 27 14 L 27 27 L 32 27 L 24 34 L 16 27 L 21 27 M 21.003906 14 "/>
</g>
</svg>
