<!-- color: #697682 -->
<svg xmlns="http://www.w3.org/2000/svg" xmlns:xlink="http://www.w3.org/1999/xlink" width="48px" height="48px" viewBox="0 0 48 48" version="1.1">
<g id="surface1">
<path style=" stroke:none;fill-rule:nonzero;fill:rgb(97.647059%,97.647059%,97.647059%);fill-opacity:1;" d="M 15.542969 12 L 32.457031 12 C 34.414062 12 36 13.585938 36 15.542969 L 36 32.457031 C 36 34.414062 34.414062 36 32.457031 36 L 15.542969 36 C 13.585938 36 12 34.414062 12 32.457031 L 12 15.542969 C 12 13.585938 13.585938 12 15.542969 12 M 15.542969 12 "/>
<path style=" stroke:none;fill-rule:nonzero;fill:rgb(17.647059%,17.647059%,17.647059%);fill-opacity:1;" d="M 17 23 L 19 23 C 19.550781 23 20 23.445312 20 24 L 20 26 C 20 26.550781 19.550781 27 19 27 L 17 27 C 16.449219 27 16 26.550781 16 26 L 16 24 C 16 23.445312 16.449219 23 17 23 M 17 23 "/>
<path style=" stroke:none;fill-rule:nonzero;fill:rgb(17.647059%,17.647059%,17.647059%);fill-opacity:1;" d="M 23 23 L 25 23 C 25.554688 23 26 23.445312 26 24 L 26 26 C 26 26.550781 25.554688 27 25 27 L 23 27 C 22.449219 27 22 26.550781 22 26 L 22 24 C 22 23.445312 22.449219 23 23 23 M 23 23 "/>
<path style=" stroke:none;fill-rule:nonzero;fill:rgb(17.647059%,17.647059%,17.647059%);fill-opacity:1;" d="M 29 23 L 31 23 C 31.550781 23 32 23.445312 32 24 L 32 26 C 32 26.550781 31.550781 27 31 27 L 29 27 C 28.445312 27 28 26.550781 28 26 L 28 24 C 28 23.445312 28.445312 23 29 23 M 29 23 "/>
<path style=" stroke:none;fill-rule:nonzero;fill:rgb(17.647059%,17.647059%,17.647059%);fill-opacity:1;" d="M 14.910156 29 L 33.089844 29 C 33.59375 29 34 29.445312 34 29.996094 L 34 31.996094 C 34 32.546875 33.59375 32.996094 33.089844 32.996094 L 14.910156 32.996094 C 14.40625 32.996094 14 32.546875 14 31.996094 L 14 29.996094 C 14 29.445312 14.40625 29 14.910156 29 M 14.910156 29 "/>
</g>
</svg>
