<!-- color: #aade54 -->
<svg xmlns="http://www.w3.org/2000/svg" xmlns:xlink="http://www.w3.org/1999/xlink" width="48px" height="48px" viewBox="0 0 48 48" version="1.1">
<g id="surface1">
<path style=" stroke:none;fill-rule:nonzero;fill:rgb(17.647059%,17.647059%,17.647059%);fill-opacity:1;" d="M 20.199219 17.019531 L 11.261719 17.019531 L 11 20.460938 L 11.277344 20.460938 C 11.476562 17.882812 11.699219 17.429688 14.097656 17.429688 C 14.375 17.429688 14.828125 17.429688 14.953125 17.429688 C 15.25 17.476562 15.25 17.667969 15.25 18.023438 L 15.25 26.496094 C 15.25 27.0625 15.203125 27.230469 13.898438 27.230469 L 13.457031 27.230469 L 13.457031 27.605469 C 14.203125 27.589844 14.976562 27.574219 15.734375 27.574219 C 16.492188 27.574219 17.269531 27.597656 18.011719 27.605469 L 18.011719 27.230469 L 17.570312 27.230469 C 16.285156 27.230469 16.238281 27.058594 16.238281 26.496094 L 16.238281 18.023438 C 16.238281 17.679688 16.238281 17.496094 16.519531 17.429688 L 17.367188 17.429688 C 19.734375 17.429688 19.972656 17.878906 20.175781 20.460938 L 20.445312 20.460938 "/>
<path style=" stroke:none;fill-rule:nonzero;fill:rgb(17.647059%,17.647059%,17.647059%);fill-opacity:1;" d="M 27.96875 27.070312 L 27.691406 27.070312 C 27.351562 29.378906 27.148438 30.632812 24.425781 30.632812 L 22.277344 30.632812 C 21.660156 30.632812 21.632812 30.554688 21.632812 30.019531 L 21.632812 25.667969 L 23.089844 25.667969 C 24.550781 25.667969 24.691406 26.207031 24.691406 27.519531 L 24.941406 27.519531 L 24.941406 23.472656 L 24.691406 23.472656 C 24.691406 24.761719 24.550781 25.292969 23.089844 25.292969 L 21.632812 25.292969 L 21.632812 21.433594 C 21.632812 20.910156 21.660156 20.832031 22.277344 20.832031 L 24.394531 20.832031 C 26.789062 20.832031 27.070312 21.789062 27.285156 23.84375 L 27.566406 23.84375 L 27.195312 20.402344 L 19.355469 20.402344 L 19.355469 20.832031 C 20.453125 20.832031 20.628906 20.832031 20.628906 21.53125 L 20.628906 29.929688 C 20.628906 30.628906 20.453125 30.628906 19.355469 30.628906 L 19.355469 31.003906 L 27.40625 31.003906 "/>
<path style=" stroke:none;fill-rule:nonzero;fill:rgb(17.647059%,17.647059%,17.647059%);fill-opacity:1;" d="M 32.140625 21.71875 L 34.429688 18.390625 C 34.660156 18.066406 35.128906 17.394531 36.398438 17.375 L 36.398438 17 C 36.042969 17.03125 35.453125 17.03125 35.082031 17.03125 C 34.574219 17.03125 33.9375 17.03125 33.550781 17 L 33.550781 17.375 C 34.046875 17.421875 34.171875 17.734375 34.171875 17.984375 C 34.171875 18.171875 34.09375 18.296875 33.984375 18.449219 L 31.941406 21.429688 L 29.652344 18.0625 C 29.542969 17.890625 29.527344 17.84375 29.527344 17.796875 C 29.527344 17.65625 29.695312 17.390625 30.210938 17.375 L 30.210938 17 C 29.714844 17.03125 28.960938 17.03125 28.445312 17.03125 C 28.046875 17.03125 27.273438 17.03125 26.898438 17 L 26.898438 17.375 C 27.75 17.375 28.027344 17.40625 28.367188 17.890625 L 31.355469 22.300781 L 28.660156 26.257812 C 27.996094 27.222656 26.992188 27.242188 26.695312 27.242188 L 26.695312 27.617188 C 27.050781 27.585938 27.636719 27.585938 28.011719 27.585938 C 28.425781 27.585938 29.15625 27.585938 29.539062 27.617188 L 29.539062 27.242188 C 29.0625 27.195312 28.921875 26.882812 28.921875 26.632812 C 28.921875 26.429688 29 26.320312 29.078125 26.210938 L 31.554688 22.578125 L 34.246094 26.554688 C 34.367188 26.726562 34.367188 26.773438 34.367188 26.820312 C 34.367188 26.945312 34.230469 27.210938 33.6875 27.242188 L 33.6875 27.621094 C 34.183594 27.589844 34.9375 27.589844 35.449219 27.589844 C 35.851562 27.589844 36.625 27.589844 37 27.621094 L 37 27.242188 C 36.007812 27.242188 35.851562 27.167969 35.546875 26.726562 "/>
</g>
</svg>
