<!-- color: #25d3e8 -->
<svg xmlns="http://www.w3.org/2000/svg" xmlns:xlink="http://www.w3.org/1999/xlink" width="48px" height="48px" viewBox="0 0 48 48" version="1.1">
<defs>
<linearGradient id="linear0" gradientUnits="userSpaceOnUse" x1="-26.468" y1="66.3" x2="-176.39" y2="2.033" gradientTransform="matrix(0.189487,0,0,0.18661,38.746625,18.717954)">
<stop offset="0" style="stop-color:rgb(89.019608%,7.058824%,0%);stop-opacity:1;"/>
<stop offset="1" style="stop-color:rgb(98.039216%,63.921569%,0%);stop-opacity:1;"/>
</linearGradient>
</defs>
<g id="surface1">
<path style=" stroke:none;fill-rule:nonzero;fill:url(#linear0);" d="M 18.972656 17.894531 C 4.933594 30.644531 24.023438 43.707031 34.15625 30.492188 C 40.800781 18.222656 27.984375 8.472656 18.972656 17.894531 M 18.972656 17.894531 "/>
<path style=" stroke:none;fill-rule:nonzero;fill:rgb(98.431373%,84.313725%,47.058824%);fill-opacity:1;" d="M 23.484375 19.25 C 23.492188 20.164062 22.996094 21.011719 22.179688 21.472656 C 21.367188 21.929688 20.359375 21.929688 19.546875 21.472656 C 18.730469 21.011719 18.234375 20.164062 18.242188 19.25 C 18.234375 18.335938 18.730469 17.488281 19.546875 17.027344 C 20.359375 16.566406 21.367188 16.566406 22.179688 17.027344 C 22.996094 17.488281 23.492188 18.335938 23.484375 19.25 M 23.484375 19.25 "/>
<path style=" stroke:none;fill-rule:nonzero;fill:rgb(72.54902%,1.568627%,1.568627%);fill-opacity:1;" d="M 18.246094 19.171875 C 16.226562 21.679688 16.410156 24.5625 16.703125 27.261719 C 16.972656 24.773438 17.9375 22.355469 18.554688 19.78125 C 18.117188 23.566406 18.679688 25.261719 19.4375 27.484375 C 19.351562 24.425781 19.257812 21.855469 19.976562 18.300781 C 23.574219 17.769531 27.4375 17.921875 30.535156 19.320312 C 28.363281 17.765625 27.390625 15.867188 22.058594 16.476562 M 18.246094 19.167969 "/>
<path style=" stroke:none;fill-rule:nonzero;fill:rgb(3.529412%,23.137255%,5.882353%);fill-opacity:1;" d="M 13.464844 18.945312 C 13.464844 18.945312 15.429688 19.515625 15.429688 19.363281 C 14.757812 18.058594 14.3125 15.96875 14.683594 16.058594 C 15.300781 16.207031 15.105469 17.667969 16.472656 18.492188 C 16.449219 17.796875 16.382812 17.101562 16.164062 16.40625 L 18.363281 17.886719 C 17.886719 16.925781 17.871094 16.074219 15.390625 15.574219 C 14.941406 14.902344 14.414062 14.421875 13.8125 14.128906 L 12 14.089844 L 12.578125 12.722656 C 13.527344 12.5625 13.976562 12.699219 14.390625 13.253906 C 16.390625 13.367188 16.703125 14.015625 16.933594 14.738281 C 18.359375 15.027344 18.742188 15.847656 19.628906 16.746094 C 19.488281 15.417969 19 14.125 18.167969 12.757812 C 19.359375 13.402344 20.324219 14.125 21.058594 15.152344 L 20.59375 12.007812 C 24.234375 14.609375 23.28125 16.109375 20.207031 19.09375 C 16.664062 21.425781 14.5 20.53125 13.464844 18.941406 M 13.464844 18.949219 "/>
</g>
</svg>
