<!-- color: #ed5656 -->
<svg xmlns="http://www.w3.org/2000/svg" xmlns:xlink="http://www.w3.org/1999/xlink" width="48px" height="48px" viewBox="0 0 48 48" version="1.1">
<g id="surface1">
<path style=" stroke:none;fill-rule:nonzero;fill:rgb(97.647059%,97.647059%,97.647059%);fill-opacity:1;" d="M 22.515625 12 C 21.324219 12.023438 20.203125 12.605469 19.625 13.574219 C 19.269531 14.179688 19.117188 15.207031 19.285156 15.941406 C 19.492188 16.875 20.117188 17.652344 21 18.066406 C 21.660156 18.371094 22.035156 18.449219 22.753906 18.425781 C 23.289062 18.402344 23.425781 18.378906 24.082031 18.164062 C 25.21875 17.789062 25.363281 17.789062 26 18.183594 C 27.171875 18.894531 28.171875 18.925781 29.183594 18.261719 C 29.578125 18.007812 29.96875 17.539062 30.144531 17.109375 C 30.324219 16.683594 30.332031 15.921875 30.152344 15.425781 C 29.835938 14.554688 29.046875 13.945312 28.027344 13.789062 C 27.769531 13.746094 27.566406 13.753906 27.171875 13.816406 C 26.605469 13.902344 26.113281 13.878906 25.859375 13.75 C 25.773438 13.710938 25.40625 13.402344 25.039062 13.066406 C 24.347656 12.4375 24.039062 12.242188 23.488281 12.109375 C 23.207031 12.039062 22.914062 12.003906 22.632812 12 C 22.59375 12 22.554688 12 22.519531 12 M 27.046875 20.246094 C 26.5 20.246094 25.816406 20.246094 24.949219 20.246094 C 22.628906 20.246094 20.839844 20.269531 20.742188 20.300781 C 20.390625 20.398438 20.382812 20.425781 20.34375 22.902344 C 20.308594 24.867188 20.292969 25.203125 20.1875 25.773438 C 19.808594 27.824219 18.941406 29.679688 17.3125 31.9375 C 16.992188 32.378906 16.679688 32.839844 16.613281 32.960938 L 16.507812 33.175781 L 16.691406 33.542969 C 17.125 34.414062 18.417969 35.867188 18.855469 36 L 18.972656 36 C 19.3125 35.898438 20.316406 35.050781 21.074219 34.210938 C 22.941406 32.140625 24.054688 30.054688 24.792969 27.246094 C 25.03125 26.332031 25.136719 26.117188 25.351562 26.09375 C 25.484375 26.078125 25.515625 26.105469 25.609375 26.296875 C 25.660156 26.421875 25.808594 26.984375 25.933594 27.554688 C 26.203125 28.804688 26.3125 29.226562 26.519531 29.804688 C 27.039062 31.261719 27.695312 32.496094 27.9375 32.496094 C 28.082031 32.496094 28.722656 32.25 29.238281 32 C 30.390625 31.4375 31.507812 30.628906 31.507812 30.359375 C 31.507812 30.296875 31.421875 30.105469 31.3125 29.933594 C 30.070312 27.964844 29.542969 25.800781 29.457031 22.328125 C 29.425781 20.976562 29.40625 20.757812 29.320312 20.585938 C 29.269531 20.476562 29.167969 20.355469 29.105469 20.3125 C 29.039062 20.265625 28.6875 20.242188 27.054688 20.238281 M 27.054688 20.242188 "/>
</g>
</svg>
