<!-- color: #7de21b -->
<svg xmlns="http://www.w3.org/2000/svg" xmlns:xlink="http://www.w3.org/1999/xlink" width="48px" height="48px" viewBox="0 0 48 48" version="1.1">
<g id="surface1">
<path style=" stroke:none;fill-rule:nonzero;fill:rgb(9.803922%,9.803922%,9.803922%);fill-opacity:1;" d="M 33.824219 24.25 C 33.886719 27.746094 31.96875 31 28.804688 32.765625 C 25.644531 34.53125 21.734375 34.53125 18.574219 32.765625 C 15.414062 31 13.496094 27.746094 13.554688 24.25 C 13.496094 20.753906 15.414062 17.5 18.574219 15.734375 C 21.734375 13.96875 25.644531 13.96875 28.804688 15.734375 C 31.964844 17.5 33.882812 20.753906 33.824219 24.25 M 33.824219 24.25 "/>
<path style=" stroke:none;fill-rule:nonzero;fill:rgb(38.039216%,69.803922%,7.058824%);fill-opacity:1;" d="M 21.253906 9 C 20.941406 9 20.667969 9.378906 20.667969 9.878906 L 20.667969 12.832031 C 20.667969 12.875 20.695312 12.910156 20.699219 12.953125 C 19.835938 13.195312 19.003906 13.546875 18.230469 13.964844 L 16.3125 12.109375 C 16.1875 11.984375 16.066406 11.921875 15.921875 11.855469 C 15.605469 11.648438 15.292969 11.585938 15.113281 11.761719 L 11.179688 15.5625 C 10.949219 15.777344 11.074219 16.246094 11.4375 16.601562 L 13.457031 18.550781 C 13.484375 18.574219 13.496094 18.589844 13.523438 18.613281 C 13.226562 19.144531 12.949219 19.699219 12.742188 20.277344 L 10.046875 20.277344 C 9.675781 20.277344 9.367188 20.449219 9.234375 20.6875 C 9.097656 20.804688 9.007812 20.960938 9.007812 21.128906 L 9.007812 27.566406 C 9.007812 27.9375 9.386719 28.226562 9.886719 28.226562 L 12.648438 28.226562 C 12.753906 28.226562 12.851562 28.1875 12.945312 28.160156 C 13.164062 28.703125 13.425781 29.226562 13.722656 29.726562 C 13.6875 29.757812 13.65625 29.792969 13.617188 29.824219 L 11.640625 31.742188 C 11.351562 32.015625 11.242188 32.320312 11.3125 32.558594 C 11.277344 32.730469 11.308594 32.898438 11.414062 33 L 15.316406 36.800781 C 15.539062 37.015625 16.023438 36.898438 16.386719 36.550781 L 18.40625 34.601562 C 18.515625 34.492188 18.570312 34.375 18.632812 34.253906 C 19.289062 34.574219 19.988281 34.835938 20.710938 35.039062 C 20.707031 35.082031 20.679688 35.121094 20.679688 35.164062 L 20.679688 38.082031 C 20.679688 38.582031 20.953125 38.992188 21.265625 38.992188 L 26.757812 38.992188 C 27.066406 38.992188 27.308594 38.582031 27.308594 38.082031 L 27.308594 35.164062 C 27.308594 35.121094 27.3125 35.082031 27.308594 35.039062 C 28.132812 34.808594 28.9375 34.519531 29.683594 34.128906 C 29.738281 34.289062 29.824219 34.457031 29.976562 34.601562 L 31.996094 36.550781 C 32.359375 36.902344 32.816406 37.015625 33.039062 36.800781 L 36.972656 33 C 37.082031 32.890625 37.113281 32.710938 37.070312 32.527344 C 37.117188 32.292969 36.980469 32.003906 36.714844 31.742188 L 34.730469 29.824219 C 34.628906 29.726562 34.515625 29.628906 34.402344 29.574219 C 34.664062 29.117188 34.886719 28.652344 35.09375 28.160156 C 35.1875 28.183594 35.28125 28.222656 35.386719 28.222656 L 38.113281 28.222656 C 38.613281 28.222656 39.023438 27.929688 39.023438 27.5625 L 39.023438 21.125 C 39.023438 20.949219 38.914062 20.804688 38.765625 20.6875 C 38.761719 20.679688 38.769531 20.660156 38.765625 20.652344 C 38.753906 20.648438 38.742188 20.628906 38.734375 20.621094 C 38.589844 20.417969 38.289062 20.273438 37.953125 20.273438 L 35.289062 20.273438 C 35.113281 19.773438 34.851562 19.296875 34.605469 18.828125 C 34.730469 18.769531 34.847656 18.6875 34.960938 18.578125 L 36.980469 16.628906 C 37.34375 16.277344 37.429688 15.808594 37.210938 15.589844 L 33.308594 11.789062 C 33.140625 11.625 32.828125 11.652344 32.527344 11.820312 C 32.359375 11.875 32.199219 11.953125 32.039062 12.105469 L 30.058594 14.019531 C 30.039062 14.039062 30.039062 14.066406 30.027344 14.085938 C 29.191406 13.609375 28.28125 13.21875 27.332031 12.953125 C 27.335938 12.910156 27.332031 12.871094 27.332031 12.832031 L 27.332031 9.878906 C 27.332031 9.378906 27.089844 9 26.777344 9 M 27.769531 16 C 28.085938 15.980469 28.421875 16.058594 28.710938 16.222656 C 29.492188 16.65625 29.742188 17.632812 29.296875 18.390625 C 28.847656 19.148438 27.867188 19.390625 27.085938 18.957031 C 26.304688 18.519531 26.015625 17.578125 26.46875 16.820312 C 26.753906 16.34375 27.242188 16.039062 27.769531 16 M 23.996094 17.539062 C 24.527344 17.539062 25.054688 17.582031 25.558594 17.695312 C 25.601562 18.433594 26.015625 19.152344 26.730469 19.546875 C 27.445312 19.949219 28.289062 19.949219 28.972656 19.613281 C 30.035156 20.707031 30.660156 22.082031 30.789062 23.570312 L 27.992188 23.570312 C 27.71875 21.675781 26.03125 20.238281 23.996094 20.238281 C 23.46875 20.238281 22.96875 20.339844 22.503906 20.523438 L 21.070312 18.167969 C 21.96875 17.757812 22.972656 17.539062 23.996094 17.539062 M 20.097656 18.703125 L 21.492188 21.058594 C 20.554688 21.773438 19.933594 22.890625 19.933594 24.136719 C 19.933594 25.382812 20.550781 26.492188 21.492188 27.214844 L 20.097656 29.566406 C 19.773438 29.34375 19.445312 29.09375 19.15625 28.8125 C 18.34375 28.03125 17.789062 27.085938 17.464844 26.050781 C 18.109375 25.644531 18.539062 24.933594 18.539062 24.132812 C 18.539062 23.335938 18.113281 22.652344 17.464844 22.242188 C 17.789062 21.214844 18.34375 20.234375 19.15625 19.449219 C 19.445312 19.171875 19.769531 18.921875 20.097656 18.695312 M 16.164062 22.554688 C 17.066406 22.554688 17.820312 23.253906 17.820312 24.125 C 17.820312 24.996094 17.066406 25.695312 16.164062 25.695312 C 15.261719 25.695312 14.535156 24.996094 14.535156 24.125 C 14.535156 23.253906 15.261719 22.554688 16.164062 22.554688 M 27.992188 24.691406 L 30.789062 24.691406 C 30.660156 26.183594 30.039062 27.554688 28.972656 28.648438 C 28.285156 28.3125 27.441406 28.3125 26.730469 28.714844 C 26.011719 29.113281 25.597656 29.828125 25.558594 30.566406 C 25.050781 30.679688 24.53125 30.722656 23.996094 30.722656 C 22.976562 30.722656 21.972656 30.503906 21.070312 30.097656 L 22.46875 27.769531 C 22.933594 27.960938 23.464844 28.054688 23.992188 28.054688 C 26.027344 28.054688 27.71875 26.589844 27.988281 24.691406 M 28.023438 29.089844 C 28.550781 29.125 29.046875 29.402344 29.324219 29.875 C 29.777344 30.628906 29.492188 31.605469 28.710938 32.042969 C 27.929688 32.480469 26.921875 32.234375 26.46875 31.476562 C 26.019531 30.71875 26.304688 29.75 27.085938 29.308594 C 27.378906 29.144531 27.714844 29.066406 28.023438 29.089844 M 28.023438 29.089844 "/>
</g>
</svg>
