<!-- color: #f89799 -->
<svg xmlns="http://www.w3.org/2000/svg" xmlns:xlink="http://www.w3.org/1999/xlink" width="48px" height="48px" viewBox="0 0 48 48" version="1.1">
<g id="surface1">
<path style=" stroke:none;fill-rule:nonzero;fill:rgb(97.647059%,97.647059%,97.647059%);fill-opacity:1;" d="M 20.328125 18 L 31.671875 18 C 34.0625 18 36 19.9375 36 22.328125 L 36 25.675781 C 36 28.0625 34.0625 30 31.671875 30 L 20.328125 30 C 17.9375 30 16 28.0625 16 25.675781 L 16 22.328125 C 16 19.9375 17.9375 18 20.328125 18 M 20.328125 18 "/>
<path style=" stroke:none;fill-rule:nonzero;fill:rgb(89.803922%,52.941176%,67.058824%);fill-opacity:1;" d="M 26 24 C 26 27.867188 22.867188 31 19 31 C 15.132812 31 12 27.867188 12 24 C 12 20.132812 15.132812 17 19 17 C 22.867188 17 26 20.132812 26 24 M 26 24 "/>
<path style=" stroke:none;fill-rule:nonzero;fill:rgb(83.921569%,21.176471%,41.568627%);fill-opacity:1;" d="M 23 24 C 23 26.210938 21.210938 28 19 28 C 16.789062 28 15 26.210938 15 24 C 15 21.789062 16.789062 20 19 20 C 21.210938 20 23 21.789062 23 24 M 23 24 "/>
<path style=" stroke:none;fill-rule:nonzero;fill:rgb(90.196078%,18.431373%,43.529412%);fill-opacity:1;" d="M 15 18 L 35 18 C 36.105469 18 37 18.894531 37 20 L 37 28 C 37 29.101562 36.105469 29.996094 35 29.996094 L 15 29.996094 C 13.894531 29.996094 13 29.101562 13 28 L 13 20 C 13 18.894531 13.894531 18 15 18 M 15 18 "/>
<path style=" stroke:none;fill-rule:nonzero;fill:rgb(97.647059%,97.647059%,97.647059%);fill-opacity:1;" d="M 12.75 17 L 23.246094 17 C 24.214844 17 24.996094 17.785156 24.996094 18.75 L 24.996094 29.25 C 24.996094 30.214844 24.214844 31 23.246094 31 L 12.75 31 C 11.78125 31 11 30.214844 11 29.25 L 11 18.75 C 11 17.785156 11.78125 17 12.75 17 M 12.75 17 "/>
<path style=" stroke:none;fill-rule:nonzero;fill:rgb(78.431373%,78.431373%,78.431373%);fill-opacity:1;" d="M 14 19 L 22 19 L 22 20.996094 L 14 20.996094 M 14 19 "/>
<path style=" stroke:none;fill-rule:nonzero;fill:rgb(78.431373%,78.431373%,78.431373%);fill-opacity:1;" d="M 14 23 L 22 23 L 22 24.996094 L 14 24.996094 M 14 23 "/>
<path style=" stroke:none;fill-rule:nonzero;fill:rgb(78.431373%,78.431373%,78.431373%);fill-opacity:1;" d="M 14 27 L 22 27 L 22 29 L 14 29 M 14 27 "/>
</g>
</svg>
