<!-- color: #3469a7 -->
<svg xmlns="http://www.w3.org/2000/svg" xmlns:xlink="http://www.w3.org/1999/xlink" width="48px" height="48px" viewBox="0 0 48 48" version="1.1">
<g id="surface1">
<path style=" stroke:none;fill-rule:evenodd;fill:rgb(97.254902%,61.176471%,4.705882%);fill-opacity:1;" d="M 28.492188 23.875 C 28.34375 20.878906 26.207031 19.078125 23.632812 19.078125 L 23.535156 19.078125 C 20.5625 19.078125 18.910156 21.515625 18.910156 24.285156 C 18.910156 27.382812 20.90625 29.34375 23.523438 29.34375 C 26.441406 29.34375 28.359375 27.113281 28.496094 24.480469 M 23.550781 16.390625 C 25.535156 16.390625 27.40625 17.308594 28.777344 18.742188 L 28.777344 18.746094 C 28.777344 18.058594 29.21875 17.539062 29.835938 17.539062 L 29.992188 17.539062 C 30.957031 17.539062 31.15625 18.488281 31.15625 18.792969 L 31.160156 29.488281 C 31.09375 30.191406 31.855469 30.550781 32.277344 30.101562 C 33.925781 28.335938 35.898438 21.03125 31.253906 16.792969 C 26.921875 12.84375 21.113281 13.492188 18.027344 15.710938 C 14.742188 18.074219 12.640625 23.296875 14.683594 28.207031 C 16.90625 33.558594 23.273438 35.152344 27.058594 33.5625 C 28.976562 32.753906 29.859375 35.457031 27.871094 36.335938 C 24.863281 37.671875 16.492188 37.539062 12.582031 30.476562 C 9.941406 25.710938 10.082031 17.324219 17.085938 12.980469 C 22.449219 9.65625 29.511719 10.574219 33.773438 15.214844 C 38.230469 20.0625 37.96875 29.144531 33.628906 32.671875 C 31.65625 34.273438 28.734375 32.714844 28.753906 30.378906 L 28.730469 29.613281 C 27.359375 31.03125 25.535156 31.859375 23.550781 31.859375 C 19.625 31.859375 16.167969 28.257812 16.167969 24.167969 C 16.167969 20.035156 19.625 16.390625 23.550781 16.390625 "/>
</g>
</svg>
