<!-- color: #5f4371 --><svg xmlns="http://www.w3.org/2000/svg" viewBox="0 0 48 48"><defs><clipPath id="clip1"><path d="m 16 16 l 11 0 l 0 15 l -11 0 m 0 -15"/></clipPath><clipPath id="clip2"><path d="m 16 16.309 l 0 14.691 l 2.695 0 l 0 -5.609 c 0.355 0.066 0.816 0.09 1.324 0.09 c 1.922 0 3.625 -0.508 4.707 -1.594 c 0.84 -0.793 1.281 -1.965 1.281 -3.379 c 0 -1.391 -0.574 -2.563 -1.461 -3.289 c -0.949 -0.797 -2.406 -1.219 -4.395 -1.219 c -1.832 0 -3.18 0.133 -4.152 0.313 m 2.695 6.938 l 0 -5.04 c 0.289 -0.066 0.816 -0.133 1.57 -0.133 c 1.875 0 3.03 0.883 3.03 2.543 c 0 1.742 -1.238 2.738 -3.27 2.738 c -0.555 0 -0.996 -0.023 -1.328 -0.109"/></clipPath><clipPath id="clip3"><path d="m 27 20 l 8 0 l 0 11 l -8 0 m 0 -11"/></clipPath><clipPath id="clip4"><path d="m 30.426 22.297 l -0.09 0 l -0.086 -2.055 l -2.363 0 c 0.066 0.973 0.086 2.01 0.086 3.469 l 0 7.289 l 2.719 0 l 0 -5.566 c 0 -0.309 0.043 -0.594 0.086 -0.84 c 0.246 -1.215 1.129 -2.055 2.43 -2.055 c 0.332 0 0.578 0.047 0.797 0.09 l 0 -2.563 c -0.219 -0.043 -0.375 -0.066 -0.641 -0.066 c -1.148 0 -2.406 0.773 -2.938 2.297"/></clipPath></defs><g><g clip-path="url(#clip1)"><g clip-path="url(#clip2)"><path d="m 16 16.309 l 0 14.691 l 2.695 0 l 0 -5.609 c 0.355 0.066 0.816 0.09 1.324 0.09 c 1.922 0 3.625 -0.508 4.707 -1.594 c 0.84 -0.793 1.281 -1.965 1.281 -3.379 c 0 -1.391 -0.574 -2.563 -1.461 -3.289 c -0.949 -0.797 -2.406 -1.219 -4.395 -1.219 c -1.832 0 -3.18 0.133 -4.152 0.313 m 2.695 6.938 l 0 -5.04 c 0.289 -0.066 0.816 -0.133 1.57 -0.133 c 1.875 0 3.03 0.883 3.03 2.543 c 0 1.742 -1.238 2.738 -3.27 2.738 c -0.555 0 -0.996 -0.023 -1.328 -0.109" fill="#fc3e92" stroke="none" fill-rule="nonzero" fill-opacity="1"/></g></g><g clip-path="url(#clip3)"><g clip-path="url(#clip4)"><path d="m 30.426 22.297 l -0.09 0 l -0.086 -2.055 l -2.363 0 c 0.066 0.973 0.086 2.01 0.086 3.469 l 0 7.289 l 2.719 0 l 0 -5.566 c 0 -0.309 0.043 -0.594 0.086 -0.84 c 0.246 -1.215 1.129 -2.055 2.43 -2.055 c 0.332 0 0.578 0.047 0.797 0.09 l 0 -2.563 c -0.219 -0.043 -0.375 -0.066 -0.641 -0.066 c -1.148 0 -2.406 0.773 -2.938 2.297" fill="#fc3e92" stroke="none" fill-rule="nonzero" fill-opacity="1"/></g></g></g></svg>