<!-- color: #334189 --><svg xmlns="http://www.w3.org/2000/svg" viewBox="0 0 48 48"><defs><clipPath id="clip1"><path d="m 17 16 l 10 0 l 0 15 l -10 0 m 0 -15"/></clipPath><clipPath id="clip2"><path d="m 17 16.949 l 0 14.05 l 2.578 0 l 0 -5.363 c 0.336 0.063 0.781 0.082 1.266 0.082 c 1.84 0 3.465 -0.484 4.504 -1.52 c 0.801 -0.762 1.223 -1.883 1.223 -3.234 c 0 -1.328 -0.547 -2.449 -1.395 -3.148 c -0.906 -0.758 -2.301 -1.16 -4.203 -1.16 c -1.754 0 -3.043 0.125 -3.973 0.297 m 2.578 6.633 l 0 -4.816 c 0.277 -0.063 0.781 -0.129 1.5 -0.129 c 1.797 0 2.895 0.848 2.895 2.43 c 0 1.672 -1.184 2.621 -3.129 2.621 c -0.527 0 -0.949 -0.02 -1.266 -0.105"/></clipPath><clipPath id="clip3"><path d="m 28.641 16 l 2.621 0 l 0 15 l -2.621 0 m 0 -15"/></clipPath></defs><g><g clip-path="url(#clip1)"><g clip-path="url(#clip2)"><path d="m 17 16.949 l 0 14.05 l 2.578 0 l 0 -5.363 c 0.336 0.063 0.781 0.082 1.266 0.082 c 1.84 0 3.465 -0.484 4.504 -1.52 c 0.801 -0.762 1.223 -1.883 1.223 -3.234 c 0 -1.328 -0.547 -2.449 -1.395 -3.148 c -0.906 -0.758 -2.301 -1.16 -4.203 -1.16 c -1.754 0 -3.043 0.125 -3.973 0.297 m 2.578 6.633 l 0 -4.816 c 0.277 -0.063 0.781 -0.129 1.5 -0.129 c 1.797 0 2.895 0.848 2.895 2.43 c 0 1.672 -1.184 2.621 -3.129 2.621 c -0.527 0 -0.949 -0.02 -1.266 -0.105" fill="#fc3e92" stroke="none" fill-rule="nonzero" fill-opacity="1"/></g></g><g clip-path="url(#clip3)"><path d="m 28.641 31 l 2.621 0 l 0 -15 l -2.621 0 m 0 15" fill="#fc3e92" stroke="none" fill-rule="nonzero" fill-opacity="1"/></g></g></svg>