<!-- color: #48428a --><svg xmlns="http://www.w3.org/2000/svg" viewBox="0 0 48 48"><defs><clipPath id="clip1"><path d="m 26 20 l 10 0 l 0 12 l -10 0 m 0 -12"/></clipPath><clipPath id="clip2"><path d="m 26.13 25.824 c 0 3.266 1.988 5.41 5.367 5.41 c 1.5 0 2.738 -0.309 3.637 -0.68 l -0.383 -1.859 c -0.793 0.305 -1.668 0.48 -2.887 0.48 c -1.672 0 -3.148 -0.832 -3.211 -2.758 l 6.977 0 c 0.043 -0.242 0.082 -0.637 0.082 -1.141 c 0 -2.344 -1.09 -5.188 -4.492 -5.188 c -3.336 0 -5.09 2.773 -5.09 5.727 m 4.941 -3.895 c 1.754 0 2.184 1.617 2.16 2.605 l -4.578 0 c 0.105 -1.098 0.793 -2.605 2.418 -2.605"/></clipPath></defs><g><path d="m 17.12 16.234 l -4.621 14.758 l 2.719 0 l 1.238 -4.18 l 4.578 0 l 1.305 4.18 l 2.824 0 l -4.684 -14.758 m -2.48 4.906 c 0.254 -0.875 0.473 -1.906 0.684 -2.762 l 0.043 0 c 0.211 0.855 0.449 1.859 0.727 2.762 l 1.133 3.633 l -3.699 0 m 1.113 -3.633" fill="#fc3e92" stroke="none" fill-rule="nonzero" fill-opacity="1"/><g clip-path="url(#clip1)"><g clip-path="url(#clip2)"><path d="m 26.13 25.824 c 0 3.266 1.988 5.41 5.367 5.41 c 1.5 0 2.738 -0.309 3.637 -0.68 l -0.383 -1.859 c -0.793 0.305 -1.668 0.48 -2.887 0.48 c -1.672 0 -3.148 -0.832 -3.211 -2.758 l 6.977 0 c 0.043 -0.242 0.082 -0.637 0.082 -1.141 c 0 -2.344 -1.09 -5.188 -4.492 -5.188 c -3.336 0 -5.09 2.773 -5.09 5.727 m 4.941 -3.895 c 1.754 0 2.184 1.617 2.16 2.605 l -4.578 0 c 0.105 -1.098 0.793 -2.605 2.418 -2.605" fill="#fc3e92" stroke="none" fill-rule="nonzero" fill-opacity="1"/></g></g></g></svg>