<!-- color: #445e86 --><svg xmlns="http://www.w3.org/2000/svg" viewBox="0 0 48 48"><defs><clipPath id="clip1"><path d="m 25 20 l 11 0 l 0 12 l -11 0 m 0 -12"/></clipPath><clipPath id="clip2"><path d="m 32.754 20.5 l 0 6.336 c 0 0.301 -0.066 0.582 -0.152 0.82 c -0.277 0.668 -0.969 1.422 -2.023 1.422 c -1.402 0 -1.961 -1.121 -1.961 -2.867 l 0 -5.711 l -2.652 0 l 0 6.164 c 0 3.426 1.746 4.57 3.664 4.57 c 1.875 0 2.91 -1.078 3.363 -1.832 l 0.043 0 l 0.129 1.594 l 2.328 0 c -0.043 -0.863 -0.086 -1.898 -0.086 -3.148 l 0 -7.348 m -2.652 0"/></clipPath></defs><g><path d="m 16.832 16.234 l -4.633 14.762 l 2.723 0 l 1.242 -4.184 l 4.59 0 l 1.309 4.184 l 2.824 0 l -4.695 -14.762 l -3.363 0 m 0.883 4.91 c 0.258 -0.875 0.469 -1.906 0.688 -2.762 l 0.039 0 c 0.219 0.855 0.453 1.859 0.73 2.762 l 1.141 3.633 l -3.711 0 l 1.117 -3.633 m -0.004 0" fill="#fc3e92" stroke="none" fill-rule="nonzero" fill-opacity="1"/><g clip-path="url(#clip1)"><g clip-path="url(#clip2)"><path d="m 32.754 20.5 l 0 6.336 c 0 0.301 -0.066 0.582 -0.152 0.82 c -0.277 0.668 -0.969 1.422 -2.023 1.422 c -1.402 0 -1.961 -1.121 -1.961 -2.867 l 0 -5.711 l -2.652 0 l 0 6.164 c 0 3.426 1.746 4.57 3.664 4.57 c 1.875 0 2.91 -1.078 3.363 -1.832 l 0.043 0 l 0.129 1.594 l 2.328 0 c -0.043 -0.863 -0.086 -1.898 -0.086 -3.148 l 0 -7.348 m -2.652 0" fill="#fc3e92" stroke="none" fill-rule="nonzero" fill-opacity="1"/></g></g></g></svg>