<!-- color: #464c6a --><svg xmlns="http://www.w3.org/2000/svg" viewBox="0 0 48 48"><defs><clipPath id="clip1"><path d="m 16 16 l 2.734 0 l 0 12.707 l -2.734 0 m 0 0 l 8.902 0 l 0 2.293 l -8.902 0 m 0 -2.293"/></clipPath><clipPath id="clip2"><path d="m 26 19 l 7 0 l 0 12 l -7 0 m 0 -12"/></clipPath><clipPath id="clip3"><path d="m 29.332 22.23 l -0.09 0 l -0.09 -2.07 l -2.379 0 c 0.066 0.98 0.09 2.027 0.09 3.496 l 0 7.344 l 2.734 0 l 0 -5.609 c 0 -0.309 0.047 -0.602 0.09 -0.844 c 0.246 -1.227 1.137 -2.07 2.449 -2.07 c 0.332 0 0.578 0.043 0.801 0.09 l 0 -2.582 c -0.223 -0.043 -0.379 -0.066 -0.645 -0.066 c -1.156 0 -2.426 0.777 -2.961 2.313"/></clipPath></defs><g><g clip-path="url(#clip1)"><path d="m 16 16 l 0 15 l 8.902 0 l 0 -2.293 l -6.168 0 l 0 -12.707 m -2.734 0" fill="#fc3e92" stroke="none" fill-rule="nonzero" fill-opacity="1"/></g><g clip-path="url(#clip2)"><g clip-path="url(#clip3)"><path d="m 29.332 22.23 l -0.09 0 l -0.09 -2.07 l -2.379 0 c 0.066 0.98 0.09 2.027 0.09 3.496 l 0 7.344 l 2.734 0 l 0 -5.609 c 0 -0.309 0.047 -0.602 0.09 -0.844 c 0.246 -1.227 1.137 -2.07 2.449 -2.07 c 0.332 0 0.578 0.043 0.801 0.09 l 0 -2.582 c -0.223 -0.043 -0.379 -0.066 -0.645 -0.066 c -1.156 0 -2.426 0.777 -2.961 2.313" fill="#fc3e92" stroke="none" fill-rule="nonzero" fill-opacity="1"/></g></g></g></svg>