<!-- color: #846228 --><svg xmlns="http://www.w3.org/2000/svg" viewBox="0 0 48 48"><defs><clipPath id="clip1"><path d="m 15 16 l 13 0 l 0 15 l -13 0 m 0 -15"/></clipPath><clipPath id="clip2"><path d="m 19.695 16.332 l -4.695 14.652 l 2.762 0 l 1.262 -4.152 l 4.652 0 l 1.324 4.152 l 2.871 0 l -4.762 -14.652 m -2.523 4.871 c 0.262 -0.871 0.48 -1.895 0.699 -2.742 l 0.043 0 c 0.215 0.848 0.457 1.848 0.738 2.742 l 1.152 3.605 l -3.762 0 l 1.129 -3.609 m 0 0.004"/></clipPath><clipPath id="clip3"><path d="m 28 15 l 4 0 l 0 16 l -4 0 m 0 -16"/></clipPath><clipPath id="clip4"><path d="m 28.762 17.441 c 0 0.805 0.586 1.434 1.477 1.434 c 0.934 0 1.523 -0.629 1.523 -1.434 c -0.023 -0.828 -0.59 -1.457 -1.5 -1.457 c -0.891 0 -1.5 0.629 -1.5 1.457 m 0.152 13.543 l 2.695 0 l 0 -10.586 l -2.695 0 m 0 10.586"/></clipPath></defs><g><g clip-path="url(#clip1)"><g clip-path="url(#clip2)"><path d="m 19.695 16.332 l -4.695 14.652 l 2.762 0 l 1.262 -4.152 l 4.652 0 l 1.324 4.152 l 2.871 0 l -4.762 -14.652 m -2.523 4.871 c 0.262 -0.871 0.48 -1.895 0.699 -2.742 l 0.043 0 c 0.215 0.848 0.457 1.848 0.738 2.742 l 1.152 3.605 l -3.762 0 l 1.129 -3.609 m 0 0.004" fill="#fc3e92" stroke="none" fill-rule="nonzero" fill-opacity="1"/></g></g><g clip-path="url(#clip3)"><g clip-path="url(#clip4)"><path d="m 28.762 17.441 c 0 0.805 0.586 1.434 1.477 1.434 c 0.934 0 1.523 -0.629 1.523 -1.434 c -0.023 -0.828 -0.59 -1.457 -1.5 -1.457 c -0.891 0 -1.5 0.629 -1.5 1.457 m 0.152 13.543 l 2.695 0 l 0 -10.586 l -2.695 0 m 0 10.586" fill="#fc3e92" stroke="none" fill-rule="nonzero" fill-opacity="1"/></g></g></g></svg>