<!-- color: #dcdee0 -->
<svg xmlns="http://www.w3.org/2000/svg" width="48" height="48" viewBox="0 0 48 48">
 <g>
  <path d="M 23.800781 12 C 23.800781 12 20.800781 14 13.800781 16 C 13.800781 16 10.800781 32 23.800781 38 L 23.800781 37.84375 C 23.902344 37.894531 24.003906 37.949219 24.113281 38 L 24.113281 12 C 24.113281 12 23.90625 12.121094 23.800781 12.1875 Z M 24.488281 12 L 24.488281 38 C 24.59375 37.949219 24.695312 37.894531 24.800781 37.84375 L 24.800781 38 C 37.800781 32 34.800781 16 34.800781 16 C 27.800781 14 24.800781 12 24.800781 12 L 24.800781 12.1875 C 24.691406 12.121094 24.488281 12 24.488281 12 Z M 24.488281 12 " fill-opacity="0.102"/>
  <path d="M 23.980469 11 C 23.980469 11 20.195312 13.152344 11.375 15.308594 C 11.375 15.308594 7.601562 32.539062 23.980469 39 C 40.394531 32.539062 36.628906 15.308594 36.628906 15.308594 C 27.792969 13.152344 23.980469 11 23.980469 11 Z M 23.980469 11 " fill="#8795a4"/>
  <path d="M 16.625 21.1875 C 15.011719 21.21875 13.050781 21.8125 11.1875 22.65625 C 11.863281 28.148438 14.644531 35.320312 23.96875 39 C 31.980469 35.847656 35.195312 30.125 36.375 25.09375 C 32.53125 25.992188 28.640625 26.726562 26.34375 26.4375 C 23.011719 26.019531 21.601562 23.722656 19.09375 21.84375 C 18.46875 21.375 17.613281 21.167969 16.625 21.1875 Z M 16.625 21.1875 " fill="#ecd04c"/>
 </g>
</svg>
