<!-- color: #9ccd57 -->
<svg xmlns="http://www.w3.org/2000/svg" width="48" height="48" viewBox="0 0 48 48">
 <path d="m 12.023438,13.976562 -0.902344,10 0.902344,10 12,0.902344 12,-0.902344 0.898437,-10 -0.898437,-10 -12,-0.898437 z m 0,0" fill="#2c86d5"/>
 <path d="m 20.554688,13.320312 -8.53125,0.65625 -0.875,9.78125 c 0.597656,0.144532 1.230468,0.21875 1.875,0.21875 4.417968,0 8,-3.582031 8,-8 0,-0.929687 -0.175782,-1.824218 -0.46875,-2.65625 z m 0,0" fill="#ffffff" fill-opacity="0.2"/>
 <path d="m 11.921875,13.976562 0,5.65625 c 0.453125,0.214844 1.066406,0.34375 1.601563,0.34375 1.933593,0 3.5,-1.566406 3.5,-3.5 0,-0.980468 -0.410157,-1.863281 -1.0625,-2.5 z m 0,0" fill="#fbc06e"/>
 <path d="m 17.023438,25.976562 -5.101563,5 0,3.101563 11.101563,0 0,-2.101563 z m 0,0" fill="#f5f5f5"/>
 <path d="m 17.023438,25.976562 1,4 -2,2.5 1,1.601563 6,0 0,-2.101563 z m 0,0" fill="#dedede"/>
 <path d="m 30.023438,21.976562 -9,12.101563 15.097656,0 0,-5.445313 z m 0,0" fill="#f5f5f5"/>
 <path d="m 30.023438,21.976562 1.5,5 -1.5,4.5 1.78125,2.601563 4.316406,0 0,-5.445313 z m 0,0" fill="#dedede"/>
 <path d="M 13.28125,13 C 12.034292,13 11,14.030136 11,15.28125 l 0,17.4375 C 11,33.96704 12.034292,35 13.28125,35 L 34.75,35 C 35.996958,35 37,33.96704 37,32.71875 l 0,-17.4375 C 37,14.030136 35.996958,13 34.75,13 l -21.46875,0 z m 0,1 21.46875,0 c 0.706166,0 1.28125,0.571426 1.28125,1.28125 l 0,17.4375 C 36.03125,33.423584 35.456166,34 34.75,34 L 13.28125,34 C 12.575084,34 12,33.423584 12,32.71875 l 0,-17.4375 C 12,14.571426 12.575084,14 13.28125,14 z" color="#000000" fill="#ffffff"/>
</svg>
