<!-- color: #94ca4e -->
<svg xmlns="http://www.w3.org/2000/svg" width="48" height="48" viewBox="0 0 48 48">
 <g>
  <path d="M 38 24.003906 C 37.996094 31.734375 31.730469 38 24 38 C 16.269531 38 10.003906 31.734375 10 24.003906 C 9.996094 16.269531 16.265625 10 24 10 C 31.734375 10 38.003906 16.269531 38 24.003906 Z M 38 24.003906 " fill="none" stroke="#f9f9f9" stroke-width="1.998"/>
  <path d="M 26 24.003906 C 26 25.109375 25.105469 26.003906 24 26.003906 C 22.894531 26.003906 22 25.109375 22 24.003906 C 22 22.898438 22.894531 22.003906 24 22.003906 C 25.105469 22.003906 26 22.898438 26 24.003906 Z M 26 24.003906 " fill="#f9f9f9"/>
  <path d="M 26 18.003906 C 26 19.109375 25.105469 20.003906 24 20.003906 C 22.894531 20.003906 22 19.109375 22 18.003906 C 22 16.898438 22.894531 16.003906 24 16.003906 C 25.105469 16.003906 26 16.898438 26 18.003906 Z M 26 18.003906 " fill="#f9f9f9"/>
  <path d="M 20 18.003906 C 20 19.109375 19.105469 20.003906 18 20.003906 C 16.894531 20.003906 16 19.109375 16 18.003906 C 16 16.898438 16.894531 16.003906 18 16.003906 C 19.105469 16.003906 20 16.898438 20 18.003906 Z M 20 18.003906 " fill="#f9f9f9"/>
  <path d="M 32 18.003906 C 32 19.109375 31.105469 20.003906 30 20.003906 C 28.894531 20.003906 28 19.109375 28 18.003906 C 28 16.898438 28.894531 16.003906 30 16.003906 C 31.105469 16.003906 32 16.898438 32 18.003906 Z M 32 18.003906 " fill="#f9f9f9"/>
  <path d="M 32 30.003906 C 32 31.109375 31.105469 32.003906 30 32.003906 C 28.894531 32.003906 28 31.109375 28 30.003906 C 28 28.898438 28.894531 28.003906 30 28.003906 C 31.105469 28.003906 32 28.898438 32 30.003906 Z M 32 30.003906 " fill="#f9f9f9"/>
  <path d="M 26 30.003906 C 26 31.109375 25.105469 32.003906 24 32.003906 C 22.894531 32.003906 22 31.109375 22 30.003906 C 22 28.898438 22.894531 28.003906 24 28.003906 C 25.105469 28.003906 26 28.898438 26 30.003906 Z M 26 30.003906 " fill="#f9f9f9"/>
  <path d="M 20 30.003906 C 20 31.109375 19.105469 32.003906 18 32.003906 C 16.894531 32.003906 16 31.109375 16 30.003906 C 16 28.898438 16.894531 28.003906 18 28.003906 C 19.105469 28.003906 20 28.898438 20 30.003906 Z M 20 30.003906 " fill="#f9f9f9"/>
  <path d="M 18 17.003906 L 30 17.003906 L 30 19.003906 L 18 19.003906 Z M 18 17.003906 " fill="#f9f9f9"/>
  <path d="M 18 29.003906 L 30 29.003906 L 30 31.003906 L 18 31.003906 Z M 18 29.003906 " fill="#f9f9f9"/>
  <path d="M 18 29.003906 L 30 17.003906 L 30 19.003906 L 18 31.003906 Z M 18 29.003906 " fill="#f9f9f9"/>
 </g>
</svg>
