<!-- color: #e17527 -->
<svg xmlns="http://www.w3.org/2000/svg" width="48" height="48" viewBox="0 0 48 48">
 <defs>
  <clipPath id="0">
   <path d="M 9 9 L 39 9 L 39 39 L 9 39 Z M 9 9 "/>
  </clipPath>
  <clipPath id="1">
   <path d="M 24 9 L 20.839844 16.371094 L 13.394531 13.394531 L 16.375 20.839844 L 9 24 L 16.375 27.160156 L 13.394531 34.605469 L 20.839844 31.625 L 24 39 L 27.160156 31.625 L 34.605469 34.605469 L 31.628906 27.160156 L 39 24 L 31.628906 20.839844 L 34.605469 13.394531 L 27.160156 16.371094 Z M 20.894531 16.5 L 27.105469 16.5 L 31.5 20.894531 L 31.5 27.105469 L 27.105469 31.5 L 20.894531 31.5 L 16.5 27.105469 L 16.5 20.894531 Z M 20.894531 16.5 "/>
  </clipPath>
 </defs>
 <g>
  <path d="M 31.5 24.132812 C 31.5 28.273438 28.144531 31.632812 24 31.632812 C 19.859375 31.632812 16.5 28.273438 16.5 24.132812 C 16.5 19.992188 19.859375 16.632812 24 16.632812 C 28.144531 16.632812 31.5 19.992188 31.5 24.132812 Z M 31.5 24.132812 " fill="#fbe569"/>
  <g clip-path="url(#0)">
   <g clip-path="url(#1)">
    <path d="M 24 9 C 15.726562 9 9 15.726562 9 24 C 9 32.273438 15.726562 39 24 39 C 32.273438 39 39 32.273438 39 24 C 39 15.726562 32.273438 9 24 9 Z M 24 10.875 C 31.261719 10.875 37.125 16.738281 37.125 24 C 37.125 31.257812 31.261719 37.125 24 37.125 C 16.742188 37.125 10.875 31.257812 10.875 24 C 10.875 16.738281 16.742188 10.875 24 10.875 Z M 24 11.675781 C 17.203125 11.675781 11.679688 17.203125 11.679688 24 C 11.679688 30.796875 17.203125 36.320312 24 36.320312 C 30.796875 36.320312 36.324219 30.796875 36.324219 24 C 36.324219 17.203125 30.796875 11.675781 24 11.675781 Z M 24 13.015625 C 30.074219 13.015625 34.984375 17.925781 34.984375 24 C 34.984375 30.074219 30.074219 34.980469 24 34.980469 C 17.925781 34.980469 13.019531 30.074219 13.019531 24 C 13.019531 17.925781 17.925781 13.015625 24 13.015625 Z M 24 14.222656 C 18.535156 14.222656 14.089844 18.667969 14.089844 24.132812 C 14.089844 29.597656 18.535156 34.042969 24 34.042969 C 29.46875 34.042969 33.914062 29.597656 33.914062 24.132812 C 33.914062 18.667969 29.46875 14.222656 24 14.222656 Z M 24 15.5625 C 28.742188 15.5625 32.574219 19.390625 32.574219 24.132812 C 32.574219 28.875 28.742188 32.703125 24 32.703125 C 19.257812 32.703125 15.429688 28.875 15.429688 24.132812 C 15.429688 19.390625 19.257812 15.5625 24 15.5625 Z M 24 15.5625 " fill="#fbe569"/>
   </g>
  </g>
 </g>
</svg>
