<!-- color: #e56447 -->
<svg xmlns="http://www.w3.org/2000/svg" width="48" height="48" viewBox="0 0 48 48">
 <defs>
  <clipPath>
   <rect width="48" height="48"/>
  </clipPath>
 </defs>
 <path d="m 18.332031,36.398438 0.332031,0 c 0.3125,0 0.546876,-0.0625 0.703126,-0.183594 0.152343,-0.125 0.230468,-0.304688 0.230468,-0.542969 0,-0.234375 -0.06641,-0.410156 -0.195312,-0.527344 -0.128906,-0.113281 -0.332032,-0.167969 -0.609375,-0.167969 l -0.460938,0 0,1.421876 M 20.625,35.636719 c 0,0.515625 -0.164062,0.910156 -0.484375,1.183593 -0.324219,0.273438 -0.78125,0.410157 -1.375,0.410157 l -0.433594,0 0,1.703125 -1.015625,0 0,-4.789063 1.527344,0 c 0.582031,0 1.023438,0.125 1.324219,0.375 0.304687,0.25 0.457031,0.621094 0.457031,1.117188" fill="#ffffff"/>
 <path d="m 22.550781,36.269531 0.328125,0 c 0.320313,0 0.558594,-0.05469 0.710938,-0.160156 0.152344,-0.105469 0.230468,-0.273437 0.230468,-0.503906 0,-0.226563 -0.07812,-0.390625 -0.238281,-0.484375 -0.152343,-0.09766 -0.394531,-0.144532 -0.722656,-0.144532 l -0.308594,0 0,1.292969 m 0,0.828125 0,1.835938 -1.015625,0 0,-4.789063 1.394532,0 c 0.652343,0 1.132812,0.117188 1.445312,0.355469 0.3125,0.238281 0.46875,0.597656 0.46875,1.078125 0,0.28125 -0.07422,0.535156 -0.230469,0.753906 -0.15625,0.21875 -0.375,0.390625 -0.660156,0.515625 0.722656,1.078125 1.191406,1.773438 1.410156,2.085938 l -1.128906,0 -1.140625,-1.835938 -0.542969,0" fill="#ffffff"/>
 <path d="m 30.316406,36.53125 c 0,0.792969 -0.199218,1.402344 -0.589844,1.828125 C 29.332031,38.785156 28.769531,39 28.035156,39 c -0.734375,0 -1.300781,-0.214844 -1.691406,-0.640625 -0.394531,-0.425781 -0.589844,-1.035156 -0.589844,-1.832031 0,-0.800782 0.195313,-1.40625 0.589844,-1.828125 0.394531,-0.421875 0.960938,-0.632813 1.695312,-0.632813 0.738282,0 1.300782,0.214844 1.6875,0.636719 0.390626,0.425781 0.589844,1.035156 0.589844,1.828125 m -3.5,0 c 0,0.535156 0.101563,0.941406 0.304688,1.210938 0.203125,0.269531 0.507812,0.40625 0.914062,0.40625 0.808594,0 1.214844,-0.539063 1.214844,-1.617188 0,-1.078125 -0.402344,-1.617188 -1.210938,-1.617188 -0.402343,0 -0.707031,0.136719 -0.914062,0.410157 -0.203125,0.269531 -0.308594,0.671875 -0.308594,1.207031" fill="#ffffff"/>
 <path d="m 25.839844,10 c -2.171875,0.109375 -4.601563,-0.101562 -6.417969,1.324219 -2.976563,2.179687 -2.925781,7.21875 0.08203,9.351562 2.105469,1.644531 4.828125,2.296875 6.871094,4.039063 0.632812,0.976562 0.523438,2.429687 -0.433594,3.164062 -2.128906,1.050782 -5.058594,0.488282 -6.921875,-0.609375 -1.1875,0.04297 -1.617187,1.519531 -2.019531,2.410157 0.08984,1.078124 1.359375,1.296874 2.1875,1.636718 2.300781,0.792969 4.851562,0.917969 7.203125,0.257813 2.488281,-1.117188 4.742187,-3.6875 4.601563,-6.117188 0.04687,-1.253906 -0.59375,-2.34375 -1.375,-3.273437 -0.949219,-1.453125 -2.582032,-2.191406 -4.070313,-2.964844 -1.230469,-0.632812 -2.527344,-1.195312 -3.597656,-2.074219 -1.105469,-1.214843 -0.257813,-3.527343 1.425781,-3.636719 1.152344,-0.207031 2.320312,0.02734 3.441406,0.285157 0.84375,0.710937 2.382813,0.589843 2.589844,-0.625 0.804688,-0.738281 -0.128906,-1.445313 -0.796875,-1.785157 -1.0625,-0.449218 -2.253906,-0.273437 -3.375,-0.304687 -1.253906,0.07422 -2.578125,0.441406 -3.445313,1.394531 -0.0625,0.886719 -1.445312,2.304688 -2.023437,1.046875 C 19.546874,12.230469 21.05078,11.703125 22.05078,11.4375 23.332031,11 24.597656,10.527344 25.839844,10 z m 0,0" fill="#ffffff"/>
</svg>
