<!-- color: #e57e29 -->
<svg xmlns="http://www.w3.org/2000/svg" width="48" height="48" viewBox="0 0 48 48">
 <g>
  <path d="M 17.4375 7.625 C 12.714844 7.625 8.335938 9.054688 4.6875 11.46875 C 3.234375 13.707031 2.199219 16.214844 1.59375 18.90625 C 3.6875 16.414062 5.519531 14.636719 7.375 13.40625 C 11 23.285156 11.1875 23.324219 8.5 12.75 C 11.15625 11.285156 13.90625 10.804688 17.4375 10.78125 C 17.746094 10.777344 18.035156 10.800781 18.34375 10.8125 C 18.300781 16.320312 17.441406 27.671875 14.375 31.8125 C 9.941406 20.402344 10.480469 22.433594 13.46875 32.15625 C 13.257812 32.261719 13.058594 32.417969 12.84375 32.59375 L 11.46875 31.5625 L 12.15625 33.53125 C 9.226562 33.976562 6.316406 33.242188 3.40625 34.3125 C 3.792969 35.082031 4.191406 35.8125 4.65625 36.53125 C 7.414062 35.90625 9.421875 33.570312 12.1875 35.125 C 12.230469 35.339844 12.34375 35.539062 12.4375 35.71875 L 6 38.3125 C 6.152344 38.503906 6.28125 38.691406 6.4375 38.875 C 8.613281 37.847656 10.839844 37.441406 12.875 36.34375 C 13.078125 36.523438 13.34375 36.652344 13.625 36.75 L 9.71875 42.03125 C 9.941406 42.207031 10.179688 42.394531 10.40625 42.5625 C 11.8125 40.8125 12.464844 38.816406 14.28125 36.875 C 14.519531 36.898438 14.789062 36.933594 15.0625 36.90625 C 14.714844 39.746094 14.960938 42.679688 15.65625 45.4375 C 16.558594 45.789062 17.511719 46.078125 18.46875 46.3125 C 17.757812 43.089844 15.828125 40.105469 16 36.71875 C 16.886719 37.058594 17.351562 37.5 18.34375 38.1875 C 17.898438 37.519531 17.351562 37.082031 16.96875 36.25 C 17.054688 36.109375 17.136719 35.96875 17.1875 35.8125 C 21.742188 37.546875 26.003906 38.035156 30.625 40.8125 L 33.15625 42.6875 C 32.121094 44.195312 30.800781 45.492188 29.125 46.4375 C 31.84375 45.820312 34.371094 44.730469 36.625 43.25 C 39.058594 39.605469 40.5 35.230469 40.5 30.5625 C 40.5 17.96875 30.21875 7.625 17.4375 7.625 Z M 21.21875 11.15625 C 28.84375 12.65625 35.496094 18.640625 36.9375 25.65625 L 36.59375 26.09375 C 35.953125 27.203125 29.933594 29.121094 27.75 29.8125 C 23.582031 30.703125 20.597656 32.820312 16.59375 32.96875 C 16.347656 32.644531 16.0625 32.351562 15.71875 32.15625 C 18.152344 27.828125 17.351562 16.261719 21.21875 11.15625 Z M 36.34375 27.59375 L 37.25 28.46875 C 37.25 29.167969 37.175781 29.855469 37.0625 30.5625 C 36.46875 34.304688 35.71875 38.003906 34.15625 41.03125 L 30.84375 39.9375 C 27.066406 38.097656 21.402344 36.902344 17.375 34.25 C 23.152344 30.933594 30.007812 29.597656 36.34375 27.59375 Z M 21.625 43.75 C 22.082031 45.078125 23.207031 45.964844 24.03125 47 C 24.40625 47 24.785156 46.988281 25.15625 46.96875 C 23.832031 45.898438 22.726562 44.96875 21.625 43.75 Z M 21.625 43.75 " fill="#f9f9f9"/>
 </g>
</svg>
