<!-- color: #00adef -->
<svg xmlns="http://www.w3.org/2000/svg" width="48" height="48" viewBox="0 0 48 48">
 <g>
  <path d="M 34 18 L 14 18 L 24 35 Z M 25 30 L 25 24.5 L 30 21.5 Z M 29 20 L 24 23 L 19 20 Z M 18 21.5 L 23 24.5 L 23 30 Z M 18 21.5 " fill="#f9f9f9"/>
  <path d="M 24 8.5 L 10 16 L 10 32 L 24 39.5 L 38 32 L 38 16 Z M 31.5 27 L 30.5 28.5 L 35.25 31.25 L 24 37.5 L 12.75 31.25 L 17.5 28.5 L 16.5 27 L 12 30 L 12 17 L 23 11 L 23 16 L 25 16 L 25 11 L 36 17 L 36 30 Z M 31.5 27 " fill="#f9f9f9"/>
 </g>
</svg>
