<!-- color: #eeeeee -->
<svg xmlns="http://www.w3.org/2000/svg" width="48" height="48" viewBox="0 0 48 48">
 <path d="M 9,0 0,0 0,48 9,48 z" fill="#47a6eb"/>
 <path d="m 39,6.5625 c 4.898438,4.21875 8,10.46875 8,17.4375 0,6.96875 -3.101562,13.21875 -8,17.4375 z m 0,0" fill="#5c4f3a"/>
 <path d="m 39,0 0,15 9,0 C 48,13 48,1 48,0 46,0 39.465305,0 39,0 z" fill="#f8e87d"/>
 <path d="m 39,15 0,9 9,0 c 0,-3.199219 0,-8 0,-9 z" fill="#59e394"/>
 <path d="m 39,24 0,9 9,0 0,-9 z" fill="#38c7d9"/>
 <path d="m 39,33 0,15 9,0 0,-15 z" fill="#ee6682"/>
 <path d="m 23.128906,26.6875 -3.800781,-4.578125 -0.457031,-4.679687 5.488281,-1.507813 3.617187,1.105469 L 29,20 l -0.742188,1.753906 -4.421874,4.980469 z m 0,0" fill="#cf8f91" fill-opacity="0.941"/>
 <path d="m 14,33 20,0 0,-1 C 33.476562,29.691406 30.792969,26.496094 27.449219,25.128906 L 25.265625,27.25 24.574219,26.792969 22.65625,26.75 22.042969,27.457031 19.722656,25.15625 C 17.164062,26.28125 14.527344,29.289062 14,32 z m 0,0" fill="#cf352b"/>
 <path d="m 23.574219,14.796875 0.0039,0 c 2.21875,0 4.019531,2.292969 4.019531,5.121094 l 0,0.0039 c 0,2.828125 -1.800781,5.117187 -4.019531,5.117187 l -0.0039,0 c -2.222657,0 -4.023438,-2.289062 -4.023438,-5.117187 l 0,-0.0039 c 0,-2.828125 1.800781,-5.121094 4.023438,-5.121094 z m 0,0" fill="#ffcccc"/>
 <path d="M 26.375,23.878906 C 26.804688,23.457031 27.878906,22.585938 28,22 l 0.800781,-2 -0.808593,-1.382812 -6.40625,-2.382813 -1.042969,0.882813 -1.726563,2.25 0.425782,2.535156 0.222656,0.648437 1.304687,1.324219 z m 0,0" fill="#ffcccc"/>
 <path d="m 19.5,22.566406 0,-3.132812 c 0.320312,-1.367188 1.644531,-2.75 2.300781,-2.734375 1.128907,0.144531 1.917969,1.140625 2.589844,2.109375 0.671875,0.800781 3.058594,0.6875 3.609375,-0.07813 0,1.167969 0,2.101562 0,3.269531 0.628906,-0.242188 0.867188,-1.195312 1,-2 0,-9.15625 -11,-9.292969 -11,-0.566406 0.09375,1.085937 0.867188,2.617187 1.5,3.132812 z m 0,0" fill="#d1382b"/>
 <path d="m 23.578125,26.765625 2.796875,-2.898437 1.398438,1.449218 -2.800782,2.898438 z m 0,0" fill="#b3d4cf"/>
 <path d="m 20.78125,23.871094 2.796875,2.898437 -1.398437,1.449219 -2.796876,-2.902344 z m 0,0" fill="#b3d4cf"/>
</svg>
