<!-- color: #d96b42 -->
<svg xmlns="http://www.w3.org/2000/svg" width="48" height="48" viewBox="0 0 48 48">
 <g>
  <path d="M 23.410156 36.886719 C 23.367188 36.824219 23.230469 36.8125 23.105469 36.859375 C 22.578125 37.054688 19.683594 33.925781 17.765625 31.085938 C 16.386719 29.042969 14.300781 25.015625 13.695312 23.226562 C 12.761719 20.472656 12.765625 18.71875 13.710938 16.851562 C 14.257812 15.773438 15.640625 14.398438 16.628906 13.949219 C 18.742188 12.988281 24.996094 12.683594 28.300781 13.378906 C 31.511719 14.054688 33.367188 15.328125 34.492188 17.632812 C 34.949219 18.570312 35.003906 18.847656 35 20.144531 C 34.992188 21.390625 34.902344 21.867188 34.367188 23.386719 C 33.46875 25.960938 31.328125 30.046875 29.84375 32.03125 C 28.101562 34.351562 26.277344 36.386719 25.644531 36.710938 C 25.113281 36.984375 23.550781 37.105469 23.410156 36.886719 Z M 23.410156 36.886719 " fill="#ffece5"/>
 </g>
</svg>
