<!-- color: #b4c5e5 -->
<svg xmlns="http://www.w3.org/2000/svg" width="48" height="48" viewBox="0 0 48 48">
 <g>
  <path d="M 20 12 L 14 18 L 14 34.21875 C 14 35.199219 14.800781 36 15.78125 36 L 32.21875 36 C 33.199219 36 34 35.199219 34 34.21875 L 34 13.78125 C 34 12.800781 33.199219 12 32.21875 12 Z M 20 12 " fill="#df765c"/>
  <path d="M 16.886719 23 L 20 23 L 20 28 L 16 28 L 16 23.886719 C 16 23.394531 16.394531 23 16.886719 23 Z M 16.886719 23 " fill="#f3eb5f"/>
  <path d="M 16 30 L 18 30 L 18 35 L 16.355469 35 C 16.15625 35 16 34.84375 16 34.644531 Z M 16 30 " fill="#f3eb5f"/>
  <path d="M 30 23 L 31.644531 23 C 31.84375 23 32 23.15625 32 23.355469 L 32 28 L 30 28 Z M 30 23 " fill="#f3eb5f"/>
  <path d="M 19.875 30 C 19.382812 30 19 30.382812 19 30.875 L 19 34.125 C 19 34.617188 19.382812 35 19.875 35 L 23 35 L 23 32 L 21.875 32 C 21.382812 32 21 31.617188 21 31.125 L 21 30 Z M 28 30 L 28 31.125 C 28 31.617188 27.617188 32 27.125 32 L 26 32 L 26 35 L 31.125 35 C 31.617188 35 32 34.617188 32 34.125 L 32 30.875 C 32 30.382812 31.617188 30 31.125 30 Z M 28 30 " fill="#f3eb5f"/>
  <path d="M 21.886719 23 L 27.117188 23 C 27.605469 23 28.003906 23.394531 28.003906 23.886719 L 28.003906 27.113281 C 28.003906 27.601562 27.605469 28 27.117188 28 L 21.886719 28 C 21.398438 28 21 27.601562 21 27.113281 L 21 23.886719 C 21 23.394531 21.398438 23 21.886719 23 Z M 21.886719 23 " fill="#f3eb5f"/>
 </g>
</svg>
