<!-- color: #d9d9d9 -->
<svg xmlns="http://www.w3.org/2000/svg" width="48" height="48" viewBox="0 0 48 48">
 <g>
  <path d="M 11.984375 15 L 36.015625 15 C 36.558594 15 37 15.441406 37 15.984375 L 37 32.015625 C 37 32.558594 36.558594 33 36.015625 33 L 11.984375 33 C 11.4375 33 11 32.558594 11 32.015625 L 11 15.984375 C 11 15.441406 11.4375 15 11.984375 15 Z M 11.984375 15 " fill="#f9f9f9"/>
  <path d="M 37 17 L 24 25.65625 L 35 33 L 36 33 C 36.546875 33 37 32.546875 37 32 Z M 37 17 " fill="#cccccc"/>
  <path d="M 35 15 L 35 33 L 36 33 C 36.546875 33 37 32.546875 37 32 L 37 16 C 37 15.453125 36.546875 15 36 15 Z M 35 15 " fill="#c02c1f"/>
  <path d="M 12 15 C 11.457031 15 11 15.453125 11 16 L 11 32 C 11 32.546875 11.457031 33 12 33 L 13 33 L 13 15 Z M 12 15 " fill="#ff493c"/>
  <path d="M 12 15 C 11.457031 15 11 15.453125 11 16 L 11 17 L 24 25.65625 L 24 22.34375 L 13 15 Z M 12 15 " fill="#ff493c"/>
  <path d="M 36 15 C 36.546875 15 37 15.453125 37 16 L 37 17 L 24 25.65625 L 24 22.34375 L 35 15 Z M 36 15 " fill="#ff493c"/>
 </g>
</svg>
