<!-- color: #ebebeb -->
<svg xmlns="http://www.w3.org/2000/svg" width="48" height="48" viewBox="0 0 48 48">
 <g>
  <path d="M 39 24.003906 C 38.996094 32.289062 32.28125 39 24 39 C 15.71875 39 9.003906 32.289062 9 24.003906 C 8.996094 15.71875 15.714844 9 24 9 C 32.285156 9 39.003906 15.71875 39 24.003906 Z M 39 24.003906 " fill="#2d2d2d"/>
  <path d="M 32 24 C 32 28.417969 28.417969 32 24 32 C 19.582031 32 16 28.417969 16 24 C 16 19.582031 19.582031 16 24 16 C 28.417969 16 32 19.582031 32 24 Z M 32 24 " fill="#f9f9f9"/>
  <path d="M 24 19 C 27 19 28 22 25 23.75 C 26.457031 24.351562 27 24.890625 27 26.5 C 27 28 26 29 24 29 C 22 29 21 28 21 26.5 C 21 25.496094 21.726562 24.308594 23 23.75 C 20 22 21 19 24 19 M 22 26.5 C 22 29 26 29 26 26.5 C 26 25 25 24.277344 24 24.214844 C 22.628906 24.292969 22 25 22 26.5 M 23.988281 19.75 C 21 20 22 23 24.046875 23.363281 C 26 23 27 20 24 19.75 " fill="#2d2d2d"/>
 </g>
</svg>
