<?xml version="1.0" encoding="UTF-8" standalone="no"?>
<svg
   xmlns:dc="http://purl.org/dc/elements/1.1/"
   xmlns:cc="http://creativecommons.org/ns#"
   xmlns:rdf="http://www.w3.org/1999/02/22-rdf-syntax-ns#"
   xmlns:svg="http://www.w3.org/2000/svg"
   xmlns="http://www.w3.org/2000/svg"
   xmlns:sodipodi="http://sodipodi.sourceforge.net/DTD/sodipodi-0.dtd"
   xmlns:inkscape="http://www.inkscape.org/namespaces/inkscape"
   width="48"
   viewBox="0 0 48 48"
   height="48"
   id="svg3097"
   version="1.1"
   inkscape:version="0.48.4 r9939"
   sodipodi:docname="application-image-png.svg">
  <metadata
     id="metadata3125">
    <rdf:RDF>
      <cc:Work
         rdf:about="">
        <dc:format>image/svg+xml</dc:format>
        <dc:type
           rdf:resource="http://purl.org/dc/dcmitype/StillImage" />
      </cc:Work>
    </rdf:RDF>
  </metadata>
  <defs
     id="defs3123" />
  <sodipodi:namedview
     pagecolor="#ffffff"
     bordercolor="#666666"
     borderopacity="1"
     objecttolerance="10"
     gridtolerance="10"
     guidetolerance="10"
     inkscape:pageopacity="0"
     inkscape:pageshadow="2"
     inkscape:window-width="640"
     inkscape:window-height="480"
     id="namedview3121"
     showgrid="false"
     inkscape:zoom="4.9166667"
     inkscape:cx="24"
     inkscape:cy="24"
     inkscape:window-x="0"
     inkscape:window-y="0"
     inkscape:window-maximized="0"
     inkscape:current-layer="svg3097" />
  <path
     style="fill:#39a34f"
     d="M 8 1 C 6.9714285 1 6 1.9714285 6 3 L 6 45 C 6 45.971429 7.0285714 47 8 47 L 40 47 C 40.971429 47 42 45.971429 42 45 L 42 14 L 29 1 L 8 1 z M 17.03125 16 L 17.125 16 L 30.90625 16 C 31.498065 16.0069 32.008433 16.61825 32 17.28125 L 32 30.75 C 31.993906 31.4026 31.488764 31.99 30.90625 32 L 17.125 32 C 16.533199 32.0095 16.0061 31.413 16 30.75 L 16 26.4375 L 16 26.40625 L 16 25.875 L 16 25.84375 L 16 17.28125 C 15.989958 16.64805 16.468013 16.054 17.03125 16 z M 18 18 L 18 23.9375 C 18.827639 23.104408 19.801497 22.122187 21.125 20.75 C 22.111782 22.1448 22.838622 23.1524 23.375 23.8125 C 23.899035 24.4698 24.17952 24.7649 24.25 24.6875 C 24.807832 24.1904 25.282979 23.7451 25.6875 23.375 C 26.08589 23.0049 26.379755 22.71175 26.625 22.46875 C 27.850816 24.00435 28.889473 25.27485 29.78125 26.34375 C 29.871835 26.453378 29.91325 26.489563 30 26.59375 L 30 18 L 18 18 z M 31.59375 37 C 31.934172 37.000007 32.23522 37.01297 32.5 37.0625 C 32.774227 37.10379 33.020162 37.160963 33.21875 37.21875 C 33.417326 37.27655 33.564563 37.34021 33.6875 37.40625 L 34 37.5625 L 33.53125 38.78125 C 33.323206 38.665673 33.083845 38.559571 32.78125 38.46875 C 32.478644 38.37794 32.165258 38.312507 31.84375 38.3125 C 31.427669 38.312507 31.064934 38.399157 30.78125 38.53125 C 30.497558 38.663351 30.282872 38.854334 30.09375 39.09375 C 29.914079 39.324923 29.772603 39.607267 29.6875 39.9375 C 29.61185 40.259485 29.562498 40.603719 29.5625 41 C 29.562498 41.916411 29.731528 42.593688 30.0625 43.03125 C 30.393468 43.460561 30.88822 43.687502 31.53125 43.6875 C 31.635265 43.687502 31.752064 43.66453 31.875 43.65625 C 31.997926 43.64805 32.114727 43.64151 32.21875 43.625 L 32.21875 40.8125 L 33.96875 40.8125 L 33.96875 44.65625 C 33.760705 44.7223 33.41319 44.792441 32.96875 44.875 C 32.533757 44.95756 31.99911 44.999999 31.375 45 C 30.826532 44.999999 30.350691 44.915119 29.90625 44.75 C 29.471259 44.576625 29.093306 44.330238 28.78125 44 C 28.469193 43.661508 28.232712 43.245358 28.0625 42.75 C 27.892287 42.24639 27.8125 41.660478 27.8125 41 C 27.8125 40.347785 27.895157 39.776611 28.09375 39.28125 C 28.29233 38.777643 28.565824 38.3385 28.90625 38 C 29.246675 37.661514 29.66164 37.415127 30.125 37.25 C 30.588355 37.076634 31.064194 37.000007 31.59375 37 z M 15.84375 37.09375 C 16.051784 37.08555 16.24549 37.09375 16.40625 37.09375 C 17.522087 37.093758 18.385337 37.282967 19 37.6875 C 19.614652 38.083792 19.937493 38.748103 19.9375 39.65625 C 19.937493 40.572664 19.624107 41.243457 19 41.65625 C 18.385336 42.060795 17.509749 42.250003 16.375 42.25 L 15.75 42.25 L 15.75 44.84375 L 14 44.84375 L 14 37.28125 C 14.170211 37.24824 14.354461 37.21228 14.5625 37.1875 C 14.779993 37.16274 15.001254 37.13326 15.21875 37.125 C 15.436243 37.1085 15.635709 37.10201 15.84375 37.09375 z M 20.96875 37.1875 L 22.375 37.1875 C 22.639774 37.55077 22.922722 37.945698 23.1875 38.375 C 23.452273 38.796059 23.691634 39.203953 23.9375 39.625 C 24.192815 40.046058 24.416958 40.447469 24.625 40.84375 C 24.84249 41.240039 25.036194 41.60904 25.1875 41.90625 L 25.1875 37.1875 L 26.78125 37.1875 L 26.78125 44.84375 L 25.375 44.84375 C 24.977832 43.993388 24.535309 43.154607 24.0625 42.3125 C 23.599139 41.462141 23.101505 40.600367 22.5625 39.75 L 22.5625 44.84375 L 20.96875 44.84375 L 20.96875 37.1875 z M 16.625 38.40625 C 16.520974 38.406257 16.345373 38.42922 16.15625 38.4375 C 15.976578 38.437506 15.854016 38.42093 15.75 38.4375 L 15.75 40.9375 L 16.46875 40.9375 C 17.026666 40.937503 17.435058 40.84614 17.71875 40.65625 C 18.002434 40.458112 18.156244 40.095593 18.15625 39.625 C 18.156244 39.179184 18.002434 38.869137 17.71875 38.6875 C 17.444515 38.49762 17.088354 38.406257 16.625 38.40625 z "
     id="path3099" />
</svg>
