<?xml version="1.0" encoding="UTF-8" standalone="no"?>
<svg
   xmlns:dc="http://purl.org/dc/elements/1.1/"
   xmlns:cc="http://creativecommons.org/ns#"
   xmlns:rdf="http://www.w3.org/1999/02/22-rdf-syntax-ns#"
   xmlns:svg="http://www.w3.org/2000/svg"
   xmlns="http://www.w3.org/2000/svg"
   xmlns:sodipodi="http://sodipodi.sourceforge.net/DTD/sodipodi-0.dtd"
   xmlns:inkscape="http://www.inkscape.org/namespaces/inkscape"
   width="48"
   viewBox="0 0 48 48"
   height="48"
   id="svg3007"
   version="1.1"
   inkscape:version="0.48.4 r9939"
   sodipodi:docname="application-x-lhz.svg">
  <metadata
     id="metadata3035">
    <rdf:RDF>
      <cc:Work
         rdf:about="">
        <dc:format>image/svg+xml</dc:format>
        <dc:type
           rdf:resource="http://purl.org/dc/dcmitype/StillImage" />
      </cc:Work>
    </rdf:RDF>
  </metadata>
  <defs
     id="defs3033" />
  <sodipodi:namedview
     pagecolor="#ffffff"
     bordercolor="#666666"
     borderopacity="1"
     objecttolerance="10"
     gridtolerance="10"
     guidetolerance="10"
     inkscape:pageopacity="0"
     inkscape:pageshadow="2"
     inkscape:window-width="640"
     inkscape:window-height="480"
     id="namedview3031"
     showgrid="false"
     inkscape:zoom="4.9166667"
     inkscape:cx="24"
     inkscape:cy="24"
     inkscape:window-x="0"
     inkscape:window-y="0"
     inkscape:window-maximized="0"
     inkscape:current-layer="svg3007" />
  <path
     style="fill:#c19553"
     d="M 8 1 C 6.9714285 1 6 1.9714285 6 3 L 6 45 C 6 45.971429 7.0285714 47 8 47 L 40 47 C 40.971429 47 42 45.971429 42 45 L 42 14 L 29 1 L 22 1 L 22 5 L 18 5 L 18 9 L 22 9 L 22 13 L 18 13 L 18 17 L 22 17 L 22 21 L 18 21 L 18 17 L 14 17 L 14 13 L 18 13 L 18 9 L 14 9 L 14 5 L 18 5 L 18 1 L 8 1 z M 14 23 L 18 23 L 22 23 L 22 31 L 14 31 L 14 23 z M 14 37 L 15.78125 37 L 15.78125 43.6875 L 19.625 43.6875 L 19.625 45 L 14 45 L 14 37 z M 20.84375 37 L 22.625 37 L 22.625 40.15625 L 25 40.15625 L 25 37 L 26.78125 37 L 26.78125 45 L 25 45 L 25 41.46875 L 22.625 41.46875 L 22.625 45 L 20.84375 45 L 20.84375 37 z M 28.28125 37 L 33.875 37 L 33.875 38.125 C 33.460436 38.693667 33.065816 39.219025 32.71875 39.71875 C 32.371673 40.218487 32.048864 40.699603 31.75 41.15625 C 31.451128 41.604288 31.176192 42.046567 30.90625 42.46875 C 30.645943 42.882324 30.39727 43.282547 30.15625 43.6875 L 34 43.6875 L 34 45 L 28.09375 45 L 28.09375 44.09375 C 28.305849 43.723261 28.540227 43.311206 28.78125 42.90625 C 29.022271 42.492681 29.294881 42.05902 29.59375 41.59375 C 29.892616 41.128487 30.215425 40.636566 30.5625 40.09375 C 30.91921 39.550945 31.294548 38.950094 31.71875 38.3125 L 28.28125 38.3125 L 28.28125 37 z "
     id="path3009" />
</svg>
