<?xml version="1.0" encoding="UTF-8" standalone="no"?>
<svg
   xmlns:dc="http://purl.org/dc/elements/1.1/"
   xmlns:cc="http://creativecommons.org/ns#"
   xmlns:rdf="http://www.w3.org/1999/02/22-rdf-syntax-ns#"
   xmlns:svg="http://www.w3.org/2000/svg"
   xmlns="http://www.w3.org/2000/svg"
   xmlns:sodipodi="http://sodipodi.sourceforge.net/DTD/sodipodi-0.dtd"
   xmlns:inkscape="http://www.inkscape.org/namespaces/inkscape"
   width="48"
   viewBox="0 0 48 48"
   height="48"
   id="svg2"
   version="1.1"
   inkscape:version="0.48.4 r9939"
   sodipodi:docname="application-images.svg">
  <metadata
     id="metadata16">
    <rdf:RDF>
      <cc:Work
         rdf:about="">
        <dc:format>image/svg+xml</dc:format>
        <dc:type
           rdf:resource="http://purl.org/dc/dcmitype/StillImage" />
      </cc:Work>
    </rdf:RDF>
  </metadata>
  <defs
     id="defs14" />
  <sodipodi:namedview
     pagecolor="#ffffff"
     bordercolor="#666666"
     borderopacity="1"
     objecttolerance="10"
     gridtolerance="10"
     guidetolerance="10"
     inkscape:pageopacity="0"
     inkscape:pageshadow="2"
     inkscape:window-width="640"
     inkscape:window-height="480"
     id="namedview12"
     showgrid="false"
     inkscape:zoom="4.9166667"
     inkscape:cx="24"
     inkscape:cy="24"
     inkscape:window-x="0"
     inkscape:window-y="0"
     inkscape:window-maximized="0"
     inkscape:current-layer="svg2" />
  <path
     style="fill:#39a34f"
     d="M 8 1 C 6.9714285 1 6 1.9714285 6 3 L 6 45 C 6 45.971429 7.0285714 47 8 47 L 40 47 C 40.971429 47 42 45.971429 42 45 L 42 14 L 29 1 L 8 1 z M 17.03125 18 L 17.125 18 L 30.90625 18 C 31.498065 18.0069 32.0084 18.61825 32 19.28125 L 32 32.75 C 31.993905 33.4026 31.488764 33.99 30.90625 34 L 17.125 34 C 16.533199 34.0095 16.0061 33.413 16 32.75 L 16 28.4375 L 16 28.40625 L 16 27.875 L 16 27.84375 L 16 19.28125 C 15.989958 18.64805 16.468013 18.054 17.03125 18 z M 18 20 L 18 25.9375 C 18.82764 25.104408 19.801497 24.122187 21.125 22.75 C 22.111782 24.1448 22.838623 25.1524 23.375 25.8125 C 23.899036 26.4698 24.17951 26.7649 24.25 26.6875 C 24.807832 26.1904 25.282979 25.7451 25.6875 25.375 C 26.08589 25.0049 26.379755 24.71175 26.625 24.46875 C 27.850816 26.00435 28.889473 27.27485 29.78125 28.34375 C 29.871835 28.453378 29.91324 28.489563 30 28.59375 L 30 20 L 18 20 z "
     id="path4" />
</svg>
