<?xml version="1.0" encoding="UTF-8" standalone="no"?>
<svg
   xmlns:dc="http://purl.org/dc/elements/1.1/"
   xmlns:cc="http://creativecommons.org/ns#"
   xmlns:rdf="http://www.w3.org/1999/02/22-rdf-syntax-ns#"
   xmlns:svg="http://www.w3.org/2000/svg"
   xmlns="http://www.w3.org/2000/svg"
   xmlns:sodipodi="http://sodipodi.sourceforge.net/DTD/sodipodi-0.dtd"
   xmlns:inkscape="http://www.inkscape.org/namespaces/inkscape"
   width="48"
   viewBox="0 0 48 48"
   height="48"
   id="svg3075"
   version="1.1"
   inkscape:version="0.48.4 r9939"
   sodipodi:docname="application-x-zoo.svg">
  <metadata
     id="metadata3103">
    <rdf:RDF>
      <cc:Work
         rdf:about="">
        <dc:format>image/svg+xml</dc:format>
        <dc:type
           rdf:resource="http://purl.org/dc/dcmitype/StillImage" />
      </cc:Work>
    </rdf:RDF>
  </metadata>
  <defs
     id="defs3101" />
  <sodipodi:namedview
     pagecolor="#ffffff"
     bordercolor="#666666"
     borderopacity="1"
     objecttolerance="10"
     gridtolerance="10"
     guidetolerance="10"
     inkscape:pageopacity="0"
     inkscape:pageshadow="2"
     inkscape:window-width="672"
     inkscape:window-height="480"
     id="namedview3099"
     showgrid="false"
     inkscape:zoom="4.9166667"
     inkscape:cx="24"
     inkscape:cy="24"
     inkscape:window-x="0"
     inkscape:window-y="0"
     inkscape:window-maximized="0"
     inkscape:current-layer="svg3075" />
  <path
     style="fill:#c19553"
     d="M 8 1 C 6.9714285 1 6 1.9714285 6 3 L 6 45 C 6 45.971429 7.0285714 47 8 47 L 40 47 C 40.971429 47 42 45.971429 42 45 L 42 14 L 29 1 L 22 1 L 22 5 L 18 5 L 18 9 L 22 9 L 22 13 L 18 13 L 18 17 L 22 17 L 22 21 L 18 21 L 18 17 L 14 17 L 14 13 L 18 13 L 18 9 L 14 9 L 14 5 L 18 5 L 18 1 L 8 1 z M 14 23 L 18 23 L 22 23 L 22 31 L 14 31 L 14 23 z M 23.875 37 C 24.893448 37.000008 25.654909 37.323024 26.1875 38 C 26.720078 38.668734 26.999993 39.679063 27 41 C 26.999993 42.320946 26.729423 43.323019 26.1875 44 C 25.645566 44.668727 24.865417 45 23.875 45 C 22.856545 45 22.073176 44.668727 21.53125 44 C 20.998664 43.323019 20.749999 42.320946 20.75 41 C 20.749999 39.679063 21.011227 38.668734 21.5625 38 C 22.11377 37.323024 22.893919 37.000008 23.875 37 z M 30.875 37 C 31.893448 37.000008 32.654909 37.323024 33.1875 38 C 33.720078 38.668734 33.999993 39.679063 34 41 C 33.999993 42.320946 33.729423 43.323019 33.1875 44 C 32.645566 44.668727 31.865417 45 30.875 45 C 29.856545 45 29.104426 44.668727 28.5625 44 C 28.029914 43.323019 27.749999 42.320946 27.75 41 C 27.749999 39.679063 28.011227 38.668734 28.5625 38 C 29.11377 37.323024 29.893919 37.000008 30.875 37 z M 14.1875 37.1875 L 19.59375 37.1875 L 19.59375 38.25 C 19.19197 38.794895 18.836363 39.302414 18.5 39.78125 C 18.163625 40.260097 17.820897 40.718691 17.53125 41.15625 C 17.241595 41.585559 16.980368 42.001715 16.71875 42.40625 C 16.46647 42.802535 16.233587 43.174475 16 43.5625 L 19.71875 43.5625 L 19.71875 44.84375 L 14 44.84375 L 14 43.96875 C 14.205558 43.613748 14.422659 43.231779 14.65625 42.84375 C 14.889839 42.447469 15.147847 42.039571 15.4375 41.59375 C 15.727149 41.147935 16.038627 40.645125 16.375 40.125 C 16.72071 39.604884 17.120127 39.048441 17.53125 38.4375 L 14.1875 38.4375 L 14.1875 37.1875 z M 23.875 38.3125 C 23.576002 38.312507 23.333775 38.390905 23.15625 38.53125 C 22.978719 38.671607 22.821527 38.877329 22.71875 39.125 C 22.62531 39.364426 22.568622 39.646775 22.53125 39.96875 C 22.50322 40.290734 22.5 40.62849 22.5 41 C 22.499998 41.371519 22.50322 41.732267 22.53125 42.0625 C 22.56862 42.384482 22.625311 42.666831 22.71875 42.90625 C 22.821527 43.145673 22.978719 43.328401 23.15625 43.46875 C 23.333775 43.609101 23.576002 43.687501 23.875 43.6875 C 24.164648 43.687501 24.384967 43.609105 24.5625 43.46875 C 24.749368 43.328401 24.90656 43.145673 25 42.90625 C 25.102775 42.658576 25.159464 42.353232 25.1875 42.03125 C 25.22487 41.709274 25.25 41.371519 25.25 41 C 25.249995 40.62849 25.22487 40.290734 25.1875 39.96875 C 25.15946 39.63852 25.102776 39.333176 25 39.09375 C 24.90656 38.854335 24.771274 38.671607 24.59375 38.53125 C 24.416217 38.390907 24.173992 38.312507 23.875 38.3125 z M 30.875 38.3125 C 30.576002 38.312507 30.333775 38.390905 30.15625 38.53125 C 29.978719 38.671607 29.852777 38.877329 29.75 39.125 C 29.65656 39.364426 29.568622 39.646775 29.53125 39.96875 C 29.50322 40.290734 29.5 40.62849 29.5 41 C 29.499998 41.371519 29.50322 41.732267 29.53125 42.0625 C 29.56862 42.384482 29.656561 42.666831 29.75 42.90625 C 29.852777 43.145673 29.978719 43.328401 30.15625 43.46875 C 30.333775 43.609101 30.576002 43.687501 30.875 43.6875 C 31.164648 43.687501 31.384967 43.609105 31.5625 43.46875 C 31.749368 43.328401 31.90656 43.145673 32 42.90625 C 32.102775 42.658576 32.159464 42.353232 32.1875 42.03125 C 32.22487 41.709274 32.24999 41.371519 32.25 41 C 32.249995 40.62849 32.22487 40.290734 32.1875 39.96875 C 32.15946 39.63852 32.102776 39.333176 32 39.09375 C 31.90656 38.854335 31.771274 38.671607 31.59375 38.53125 C 31.416217 38.390907 31.173992 38.312507 30.875 38.3125 z "
     id="path3077" />
</svg>
