<?xml version="1.0" encoding="UTF-8" standalone="no"?>
<svg
   xmlns:dc="http://purl.org/dc/elements/1.1/"
   xmlns:cc="http://creativecommons.org/ns#"
   xmlns:rdf="http://www.w3.org/1999/02/22-rdf-syntax-ns#"
   xmlns:svg="http://www.w3.org/2000/svg"
   xmlns="http://www.w3.org/2000/svg"
   xmlns:sodipodi="http://sodipodi.sourceforge.net/DTD/sodipodi-0.dtd"
   xmlns:inkscape="http://www.inkscape.org/namespaces/inkscape"
   width="48"
   viewBox="0 0 48 48"
   height="48"
   id="svg3151"
   version="1.1"
   inkscape:version="0.48.4 r9939"
   sodipodi:docname="application-vnd.oasis.opendocument.text-web.svg">
  <metadata
     id="metadata3195">
    <rdf:RDF>
      <cc:Work
         rdf:about="">
        <dc:format>image/svg+xml</dc:format>
        <dc:type
           rdf:resource="http://purl.org/dc/dcmitype/StillImage" />
      </cc:Work>
    </rdf:RDF>
  </metadata>
  <defs
     id="defs3193" />
  <sodipodi:namedview
     pagecolor="#ffffff"
     bordercolor="#666666"
     borderopacity="1"
     objecttolerance="10"
     gridtolerance="10"
     guidetolerance="10"
     inkscape:pageopacity="0"
     inkscape:pageshadow="2"
     inkscape:window-width="640"
     inkscape:window-height="480"
     id="namedview3191"
     showgrid="false"
     inkscape:zoom="4.9166667"
     inkscape:cx="24"
     inkscape:cy="24"
     inkscape:window-x="0"
     inkscape:window-y="0"
     inkscape:window-maximized="0"
     inkscape:current-layer="svg3151" />
  <path
     style="fill:#7099c4"
     d="M 8 1 C 6.9714285 1 6 1.9714285 6 3 L 6 45 C 6 45.971429 7.0285714 47 8 47 L 40 47 C 40.971429 47 42 45.971429 42 45 L 42 14 L 29 1 L 8 1 z M 24 15 C 28.960856 15 33 19.039144 33 24 C 33 28.960855 28.960856 33 24 33 C 19.039144 33 15 28.960855 15 24 C 15 19.039144 19.039144 15 24 15 z M 23.1875 16.65625 C 22.733534 16.706034 22.300245 16.840533 21.875 16.96875 C 21.550566 17.949835 21.283167 18.930108 21.09375 19.90625 L 23.1875 19.90625 L 23.1875 16.65625 z M 24.8125 16.65625 L 24.8125 19.90625 L 26.8125 19.90625 C 26.623683 18.894988 26.381919 17.900277 26.0625 16.9375 C 25.657941 16.819722 25.24267 16.703424 24.8125 16.65625 z M 28.03125 17.8125 C 28.213746 18.500114 28.376621 19.204599 28.5 19.90625 L 30.15625 19.90625 C 29.601781 19.074626 28.868444 18.359227 28.03125 17.8125 z M 19.875 17.875 C 19.078318 18.412996 18.377153 19.106221 17.84375 19.90625 L 19.4375 19.90625 C 19.558259 19.228985 19.694341 18.550904 19.875 17.875 z M 17.0625 21.53125 C 16.875149 22.058684 16.719325 22.612333 16.65625 23.1875 L 19.0625 23.1875 C 19.082014 22.634759 19.128213 22.083701 19.1875 21.53125 L 17.0625 21.53125 z M 20.84375 21.53125 C 20.779083 22.084362 20.739922 22.634857 20.71875 23.1875 L 23.1875 23.1875 L 23.1875 21.53125 L 20.84375 21.53125 z M 24.8125 21.53125 L 24.8125 23.1875 L 27.1875 23.1875 C 27.161005 22.637512 27.127047 22.083761 27.0625 21.53125 L 24.8125 21.53125 z M 28.71875 21.53125 C 28.779716 22.084831 28.819437 22.636025 28.84375 23.1875 L 31.34375 23.1875 C 31.280675 22.612333 31.124851 22.058684 30.9375 21.53125 L 28.71875 21.53125 z M 16.65625 24.8125 C 16.719325 25.387667 16.875149 25.941316 17.0625 26.46875 L 19.1875 26.46875 C 19.128213 25.916299 19.082014 25.365241 19.0625 24.8125 L 16.65625 24.8125 z M 20.71875 24.8125 C 20.739922 25.365143 20.779083 25.915638 20.84375 26.46875 L 23.1875 26.46875 L 23.1875 24.8125 L 20.71875 24.8125 z M 24.8125 24.8125 L 24.8125 26.46875 L 27.15625 26.46875 C 27.208558 25.925307 27.207164 25.373737 27.21875 24.8125 L 24.8125 24.8125 z M 28.875 24.8125 C 28.862464 25.375505 28.833227 25.9189 28.78125 26.46875 L 30.9375 26.46875 C 31.124851 25.941316 31.280675 25.387667 31.34375 24.8125 L 28.875 24.8125 z M 17.84375 28.09375 C 18.377153 28.893779 19.078318 29.587004 19.875 30.125 C 19.694341 29.449096 19.558259 28.771015 19.4375 28.09375 L 17.84375 28.09375 z M 21.09375 28.09375 C 21.283167 29.069892 21.550566 30.050165 21.875 31.03125 C 22.300245 31.159467 22.733534 31.293966 23.1875 31.34375 L 23.1875 28.09375 L 21.09375 28.09375 z M 24.8125 28.09375 L 24.8125 31.34375 C 25.25314 31.295428 25.680065 31.184823 26.09375 31.0625 C 26.456508 30.155606 26.74577 29.159672 26.9375 28.09375 L 24.8125 28.09375 z M 28.5625 28.09375 C 28.442937 28.788886 28.31256 29.473067 28.125 30.125 C 28.921682 29.587004 29.622847 28.893779 30.15625 28.09375 L 28.5625 28.09375 z M 17.125 37 C 18.142733 37.000007 18.905283 37.323024 19.4375 38 C 19.969706 38.668733 20.249993 39.679062 20.25 41 C 20.249993 42.320944 19.979043 43.323019 19.4375 44 C 18.895947 44.668727 18.114723 45 17.125 45 C 16.10726 45 15.354047 44.668727 14.8125 44 C 14.280288 43.323019 14 42.320944 14 41 C 14 39.679062 14.261614 38.668733 14.8125 38 C 15.363384 37.323024 16.144608 37.000007 17.125 37 z M 23.46875 37.09375 C 24.038306 37.093757 24.533145 37.163902 25 37.3125 C 25.476185 37.461114 25.891948 37.678027 26.21875 38 C 26.545541 38.31373 26.79134 38.723403 26.96875 39.21875 C 27.155484 39.705853 27.249994 40.306509 27.25 41 C 27.249994 41.710009 27.142913 42.308892 26.9375 42.8125 C 26.741416 43.307855 26.479802 43.717527 26.125 44.03125 C 25.770187 44.344975 25.338609 44.570144 24.84375 44.71875 C 24.35822 44.8591 23.806981 44.9375 23.21875 44.9375 C 22.910626 44.9375 22.611284 44.90803 22.3125 44.875 C 22.02305 44.85023 21.711133 44.816042 21.375 44.75 L 21.375 37.28125 C 21.767155 37.20696 22.154528 37.149775 22.5 37.125 C 22.845468 37.10024 23.169961 37.09376 23.46875 37.09375 z M 28.25 37.1875 L 29.96875 37.1875 L 29.96875 40.1875 L 32.28125 40.1875 L 32.28125 37.1875 L 34 37.1875 L 34 44.84375 L 32.28125 44.84375 L 32.28125 41.46875 L 29.96875 41.46875 L 29.96875 44.84375 L 28.25 44.84375 L 28.25 37.1875 z M 17.125 38.3125 C 16.826211 38.312507 16.583651 38.390914 16.40625 38.53125 C 16.228844 38.671606 16.102706 38.877329 16 39.125 C 15.90663 39.364426 15.818595 39.646776 15.78125 39.96875 C 15.75324 40.290734 15.75 40.628489 15.75 41 C 15.749997 41.371518 15.75323 41.732267 15.78125 42.0625 C 15.8186 42.384482 15.906632 42.666831 16 42.90625 C 16.102709 43.145672 16.228844 43.328402 16.40625 43.46875 C 16.583651 43.609102 16.826211 43.687501 17.125 43.6875 C 17.414445 43.687501 17.635091 43.609095 17.8125 43.46875 C 17.999236 43.328402 18.156625 43.145672 18.25 42.90625 C 18.352699 42.658575 18.409484 42.353233 18.4375 42.03125 C 18.47484 41.709273 18.49999 41.371518 18.5 41 C 18.499995 40.628489 18.47485 40.290734 18.4375 39.96875 C 18.40949 39.63852 18.352709 39.333176 18.25 39.09375 C 18.15663 38.854335 18.021149 38.671606 17.84375 38.53125 C 17.666342 38.390906 17.423782 38.312507 17.125 38.3125 z M 23.59375 38.40625 C 23.51905 38.406255 23.437118 38.42922 23.34375 38.4375 C 23.25038 38.437506 23.168444 38.42103 23.09375 38.4375 L 23.09375 43.59375 C 23.14044 43.60205 23.193979 43.625 23.25 43.625 L 23.40625 43.625 C 23.798403 43.625001 24.144809 43.538341 24.40625 43.40625 C 24.677021 43.274157 24.872516 43.106167 25.03125 42.875 C 25.199312 42.643837 25.309635 42.376227 25.375 42.0625 C 25.44969 41.740523 25.499995 41.379774 25.5 41 C 25.499995 40.669768 25.46228 40.344978 25.40625 40.03125 C 25.35023 39.717531 25.26505 39.458176 25.125 39.21875 C 24.984939 38.979335 24.77401 38.765357 24.53125 38.625 C 24.288484 38.4764 23.976565 38.406255 23.59375 38.40625 z "
     id="path3153" />
</svg>
