<?xml version="1.0" encoding="UTF-8" standalone="no"?>
<svg
   xmlns:dc="http://purl.org/dc/elements/1.1/"
   xmlns:cc="http://creativecommons.org/ns#"
   xmlns:rdf="http://www.w3.org/1999/02/22-rdf-syntax-ns#"
   xmlns:svg="http://www.w3.org/2000/svg"
   xmlns="http://www.w3.org/2000/svg"
   xmlns:sodipodi="http://sodipodi.sourceforge.net/DTD/sodipodi-0.dtd"
   xmlns:inkscape="http://www.inkscape.org/namespaces/inkscape"
   width="48"
   viewBox="0 0 48 48"
   height="48"
   id="svg3061"
   version="1.1"
   inkscape:version="0.48.4 r9939"
   sodipodi:docname="application-document.svg">
  <metadata
     id="metadata3093">
    <rdf:RDF>
      <cc:Work
         rdf:about="">
        <dc:format>image/svg+xml</dc:format>
        <dc:type
           rdf:resource="http://purl.org/dc/dcmitype/StillImage" />
      </cc:Work>
    </rdf:RDF>
  </metadata>
  <defs
     id="defs3091" />
  <sodipodi:namedview
     pagecolor="#ffffff"
     bordercolor="#666666"
     borderopacity="1"
     objecttolerance="10"
     gridtolerance="10"
     guidetolerance="10"
     inkscape:pageopacity="0"
     inkscape:pageshadow="2"
     inkscape:window-width="640"
     inkscape:window-height="480"
     id="namedview3089"
     showgrid="false"
     inkscape:zoom="4.9166667"
     inkscape:cx="24"
     inkscape:cy="24"
     inkscape:window-x="0"
     inkscape:window-y="0"
     inkscape:window-maximized="0"
     inkscape:current-layer="svg3061" />
  <path
     style="fill:#888888"
     d="M 8 1 C 6.9714285 1 6 1.9714285 6 3 L 6 45 C 6 45.971429 7.0285714 47 8 47 L 40 47 C 40.971429 47 42 45.971429 42 45 L 42 14 L 29 1 L 8 1 z M 16.09375 17 L 22.90625 17 C 23.227016 17 23.5 17.260796 23.5 17.59375 L 23.5 23.40625 C 23.5 23.739204 23.227016 24 22.90625 24 L 16.09375 24 C 15.772984 24 15.5 23.739204 15.5 23.40625 L 15.5 17.59375 C 15.5 17.260796 15.772984 17 16.09375 17 z M 25.78125 17 A 0.50606671 0.50606671 0 0 1 25.84375 17 A 0.50219246 0.50219246 0 0 1 25.90625 17 A 0.50005 0.50005 0 0 1 26 17 L 31 17 A 0.50005 0.50005 0 1 1 31 18 L 26 18 A 0.50606671 0.50606671 0 0 1 25.78125 17 z M 25.78125 20 A 0.50606671 0.50606671 0 0 1 25.84375 20 A 0.50219246 0.50219246 0 0 1 25.90625 20 A 0.50005 0.50005 0 0 1 26 20 L 31 20 A 0.50005 0.50005 0 1 1 31 21 L 26 21 A 0.50606671 0.50606671 0 0 1 25.78125 20 z M 25.78125 23 A 0.50606671 0.50606671 0 0 1 25.84375 23 A 0.50219246 0.50219246 0 0 1 25.90625 23 A 0.50005 0.50005 0 0 1 26 23 L 31 23 A 0.50005 0.50005 0 1 1 31 24 L 26 24 A 0.50606671 0.50606671 0 0 1 25.78125 23 z M 15.28125 26 A 0.50606671 0.50606671 0 0 1 15.34375 26 A 0.50219246 0.50219246 0 0 1 15.40625 26 A 0.50005 0.50005 0 0 1 15.5 26 L 31.5 26 A 0.50005 0.50005 0 1 1 31.5 27 L 15.5 27 A 0.50606671 0.50606671 0 0 1 15.28125 26 z M 15.28125 29 A 0.50606671 0.50606671 0 0 1 15.34375 29 A 0.50219246 0.50219246 0 0 1 15.40625 29 A 0.50005 0.50005 0 0 1 15.5 29 L 31.5 29 A 0.50005 0.50005 0 1 1 31.5 30 L 15.5 30 A 0.50606671 0.50606671 0 0 1 15.28125 29 z M 15.28125 32 A 0.50606671 0.50606671 0 0 1 15.34375 32 A 0.50219246 0.50219246 0 0 1 15.40625 32 A 0.50005 0.50005 0 0 1 15.5 32 L 31.5 32 A 0.50005 0.50005 0 1 1 31.5 33 L 15.5 33 A 0.50606671 0.50606671 0 0 1 15.28125 32 z M 15.28125 35 A 0.50606671 0.50606671 0 0 1 15.34375 35 A 0.50219246 0.50219246 0 0 1 15.40625 35 A 0.50005 0.50005 0 0 1 15.5 35 L 31.5 35 A 0.50005 0.50005 0 1 1 31.5 36 L 15.5 36 A 0.50606671 0.50606671 0 0 1 15.28125 35 z "
     id="path3063" />
</svg>
