<?xml version="1.0" encoding="UTF-8" standalone="no"?>
<svg
   xmlns:dc="http://purl.org/dc/elements/1.1/"
   xmlns:cc="http://creativecommons.org/ns#"
   xmlns:rdf="http://www.w3.org/1999/02/22-rdf-syntax-ns#"
   xmlns:svg="http://www.w3.org/2000/svg"
   xmlns="http://www.w3.org/2000/svg"
   xmlns:sodipodi="http://sodipodi.sourceforge.net/DTD/sodipodi-0.dtd"
   xmlns:inkscape="http://www.inkscape.org/namespaces/inkscape"
   width="48"
   viewBox="0 0 48 48"
   height="48"
   id="svg2993"
   version="1.1"
   inkscape:version="0.48.4 r9939"
   sodipodi:docname="application-image-tga.svg">
  <metadata
     id="metadata3021">
    <rdf:RDF>
      <cc:Work
         rdf:about="">
        <dc:format>image/svg+xml</dc:format>
        <dc:type
           rdf:resource="http://purl.org/dc/dcmitype/StillImage" />
      </cc:Work>
    </rdf:RDF>
  </metadata>
  <defs
     id="defs3019" />
  <sodipodi:namedview
     pagecolor="#ffffff"
     bordercolor="#666666"
     borderopacity="1"
     objecttolerance="10"
     gridtolerance="10"
     guidetolerance="10"
     inkscape:pageopacity="0"
     inkscape:pageshadow="2"
     inkscape:window-width="640"
     inkscape:window-height="480"
     id="namedview3017"
     showgrid="false"
     inkscape:zoom="4.9166667"
     inkscape:cx="24"
     inkscape:cy="24"
     inkscape:window-x="0"
     inkscape:window-y="0"
     inkscape:window-maximized="0"
     inkscape:current-layer="svg2993" />
  <path
     style="fill:#39a34f"
     d="M 8 1 C 6.9714285 1 6 1.9714285 6 3 L 6 45 C 6 45.971429 7.0285714 47 8 47 L 40 47 C 40.971429 47 42 45.971429 42 45 L 42 14 L 29 1 L 8 1 z M 17.03125 16 L 17.125 16 L 30.90625 16 C 31.498065 16.0069 32.008433 16.61825 32 17.28125 L 32 30.75 C 31.993906 31.4026 31.488764 31.99 30.90625 32 L 17.125 32 C 16.533199 32.0095 16.0061 31.413 16 30.75 L 16 26.4375 L 16 26.40625 L 16 25.875 L 16 25.84375 L 16 17.28125 C 15.989958 16.64805 16.468013 16.054 17.03125 16 z M 18 18 L 18 23.9375 C 18.827639 23.104408 19.801497 22.122187 21.125 20.75 C 22.111782 22.1448 22.838622 23.1524 23.375 23.8125 C 23.899035 24.4698 24.17952 24.7649 24.25 24.6875 C 24.807832 24.1904 25.282979 23.7451 25.6875 23.375 C 26.08589 23.0049 26.379755 22.71175 26.625 22.46875 C 27.850816 24.00435 28.889473 25.27485 29.78125 26.34375 C 29.871835 26.453378 29.91325 26.489563 30 26.59375 L 30 18 L 18 18 z M 24.5 37 C 24.827417 37.000008 25.120334 37.01297 25.375 37.0625 C 25.638752 37.10378 25.871499 37.160974 26.0625 37.21875 C 26.253491 37.27655 26.413009 37.340211 26.53125 37.40625 L 26.8125 37.5625 L 26.375 38.78125 C 26.174903 38.665673 25.916037 38.559571 25.625 38.46875 C 25.333954 38.37794 25.059227 38.312507 24.75 38.3125 C 24.349814 38.312507 23.991598 38.399158 23.71875 38.53125 C 23.445896 38.663351 23.213148 38.854335 23.03125 39.09375 C 22.858441 39.324921 22.738103 39.60727 22.65625 39.9375 C 22.58349 40.259485 22.562498 40.603721 22.5625 41 C 22.562498 41.916408 22.712921 42.593689 23.03125 43.03125 C 23.349574 43.460558 23.819032 43.687501 24.4375 43.6875 C 24.537536 43.687501 24.631759 43.66454 24.75 43.65625 C 24.868231 43.64795 24.9937 43.64151 25.09375 43.625 L 25.09375 40.8125 L 26.78125 40.8125 L 26.78125 44.65625 C 26.581151 44.72229 26.271212 44.79244 25.84375 44.875 C 25.425373 44.95756 24.91277 44.999999 24.3125 45 C 23.784985 44.999999 23.302465 44.915128 22.875 44.75 C 22.456625 44.576628 22.081386 44.330236 21.78125 44 C 21.481112 43.661509 21.25746 43.245355 21.09375 42.75 C 20.930038 42.246392 20.843749 41.660475 20.84375 41 C 20.843749 40.347788 20.933996 39.77661 21.125 39.28125 C 21.315995 38.777647 21.578827 38.338498 21.90625 38 C 22.233671 37.661515 22.61684 37.415126 23.0625 37.25 C 23.508155 37.076634 23.990673 37.000008 24.5 37 z M 14 37.1875 L 20.125 37.1875 L 20.125 38.4375 L 17.90625 38.4375 L 17.90625 44.84375 L 16.21875 44.84375 L 16.21875 38.4375 L 14 38.4375 L 14 37.1875 z M 29.8125 37.1875 L 31.65625 37.1875 C 32.056427 38.310309 32.452657 39.486852 32.84375 40.75 C 33.243926 42.0049 33.627097 43.374201 34 44.84375 L 32.1875 44.84375 L 31.8125 43.0625 L 29.5625 43.0625 L 29.15625 44.84375 L 27.4375 44.84375 C 27.837681 43.332921 28.215722 41.957139 28.625 40.71875 C 29.034275 39.472115 29.430506 38.302054 29.8125 37.1875 z M 30.6875 38.65625 C 30.59654 38.945213 30.519352 39.235816 30.4375 39.5 L 30.21875 40.25 C 30.15508 40.497682 30.094913 40.744071 30.03125 41 C 29.97668 41.255937 29.929568 41.540058 29.875 41.8125 L 31.53125 41.8125 C 31.47667 41.540058 31.398317 41.255937 31.34375 41 C 31.28917 40.744071 31.229007 40.497682 31.15625 40.25 C 31.09258 39.994072 31.019352 39.755937 30.9375 39.5 C 30.86473 39.235816 30.778447 38.945213 30.6875 38.65625 z "
     id="path2995" />
</svg>
