<?xml version="1.0" encoding="UTF-8" standalone="no"?>
<svg
   xmlns:dc="http://purl.org/dc/elements/1.1/"
   xmlns:cc="http://creativecommons.org/ns#"
   xmlns:rdf="http://www.w3.org/1999/02/22-rdf-syntax-ns#"
   xmlns:svg="http://www.w3.org/2000/svg"
   xmlns="http://www.w3.org/2000/svg"
   xmlns:sodipodi="http://sodipodi.sourceforge.net/DTD/sodipodi-0.dtd"
   xmlns:inkscape="http://www.inkscape.org/namespaces/inkscape"
   width="48"
   viewBox="0 0 48 48"
   height="48"
   id="svg2"
   version="1.1"
   inkscape:version="0.48.4 r9939"
   sodipodi:docname="application-audio-playlist.svg">
  <metadata
     id="metadata32">
    <rdf:RDF>
      <cc:Work
         rdf:about="">
        <dc:format>image/svg+xml</dc:format>
        <dc:type
           rdf:resource="http://purl.org/dc/dcmitype/StillImage" />
      </cc:Work>
    </rdf:RDF>
  </metadata>
  <defs
     id="defs30" />
  <sodipodi:namedview
     pagecolor="#ffffff"
     bordercolor="#666666"
     borderopacity="1"
     objecttolerance="10"
     gridtolerance="10"
     guidetolerance="10"
     inkscape:pageopacity="0"
     inkscape:pageshadow="2"
     inkscape:window-width="640"
     inkscape:window-height="480"
     id="namedview28"
     showgrid="false"
     inkscape:zoom="4.9166667"
     inkscape:cx="24"
     inkscape:cy="24"
     inkscape:window-x="0"
     inkscape:window-y="0"
     inkscape:window-maximized="0"
     inkscape:current-layer="svg2" />
  <path
     style="fill:#9b4a85"
     d="M 8 1 C 6.9714285 1 6 1.9714285 6 3 L 6 45 C 6 45.971429 7.0285714 47 8 47 L 40 47 C 40.971429 47 42 45.971429 42 45 L 42 14 L 29 1 L 8 1 z M 25 20 C 25 20 23.790112 22.8794 22 23 C 20.308464 23.1153 19.79161 23.34525 19.75 23.40625 L 21.53125 30.34375 C 21.54361 30.38975 21.55249 30.42175 21.5625 30.46875 C 21.885478 31.97185 21.012576 33.80775 19.40625 34.96875 C 17.368518 36.44175 14.742584 36.33615 13.5625 34.71875 C 12.382511 33.10165 13.087263 30.56675 15.125 29.09375 C 16.702337 27.95375 18.63463 27.7764 19.96875 28.5 L 18.09375 21.5625 L 18.0625 21.53125 C 18.0625 21.53125 19.022671 20.4804 20.1875 20.1875 C 20.575395 20.0888 21.010128 20.07915 21.40625 20.21875 C 22.990755 20.77735 25 20 25 20 z M 27 20 L 35 20 L 35 21 L 27 21 L 27 20 z M 25 23 L 35 23 L 35 24 L 25 24 L 25 23 z M 23 26 L 35 26 L 35 27 L 23 27 L 23 26 z M 23 29 L 35 29 L 35 30 L 23 30 L 23 29 z M 23 32 L 35 32 L 35 33 L 23 33 L 23 32 z M 23 35 L 35 35 L 35 36 L 23 36 L 23 35 z "
     id="path4" />
</svg>
