<?xml version="1.0" encoding="UTF-8" standalone="no"?>
<svg
   xmlns:dc="http://purl.org/dc/elements/1.1/"
   xmlns:cc="http://creativecommons.org/ns#"
   xmlns:rdf="http://www.w3.org/1999/02/22-rdf-syntax-ns#"
   xmlns:svg="http://www.w3.org/2000/svg"
   xmlns="http://www.w3.org/2000/svg"
   xmlns:sodipodi="http://sodipodi.sourceforge.net/DTD/sodipodi-0.dtd"
   xmlns:inkscape="http://www.inkscape.org/namespaces/inkscape"
   width="48"
   viewBox="0 0 48 48"
   height="48"
   id="svg3059"
   version="1.1"
   inkscape:version="0.48.4 r9939"
   sodipodi:docname="application-x-bzip-compressed-tar.svg">
  <metadata
     id="metadata3087">
    <rdf:RDF>
      <cc:Work
         rdf:about="">
        <dc:format>image/svg+xml</dc:format>
        <dc:type
           rdf:resource="http://purl.org/dc/dcmitype/StillImage" />
      </cc:Work>
    </rdf:RDF>
  </metadata>
  <defs
     id="defs3085" />
  <sodipodi:namedview
     pagecolor="#ffffff"
     bordercolor="#666666"
     borderopacity="1"
     objecttolerance="10"
     gridtolerance="10"
     guidetolerance="10"
     inkscape:pageopacity="0"
     inkscape:pageshadow="2"
     inkscape:window-width="640"
     inkscape:window-height="480"
     id="namedview3083"
     showgrid="false"
     inkscape:zoom="4.9166667"
     inkscape:cx="24"
     inkscape:cy="24"
     inkscape:window-x="0"
     inkscape:window-y="0"
     inkscape:window-maximized="0"
     inkscape:current-layer="svg3059" />
  <path
     style="fill:#c19553"
     d="M 8 1 C 6.9714285 1 6 1.9714285 6 3 L 6 45 C 6 45.971429 7.0285714 47 8 47 L 40 47 C 40.971429 47 42 45.971429 42 45 L 42 14 L 29 1 L 22 1 L 22 5 L 18 5 L 18 9 L 22 9 L 22 13 L 18 13 L 18 17 L 22 17 L 22 21 L 18 21 L 18 17 L 14 17 L 14 13 L 18 13 L 18 9 L 14 9 L 14 5 L 18 5 L 18 1 L 8 1 z M 14 23 L 18 23 L 22 23 L 22 31 L 14 31 L 14 23 z M 23.65625 37 C 24.309384 37.000008 24.839453 37.061326 25.25 37.1875 C 25.660539 37.305277 25.985481 37.454365 26.21875 37.65625 C 26.452008 37.849737 26.60352 38.068553 26.6875 38.3125 C 26.77147 38.556458 26.812495 38.818554 26.8125 39.0625 C 26.812495 39.432641 26.705265 39.745242 26.5 40.03125 C 26.304052 40.317269 26.023393 40.550511 25.6875 40.71875 C 26.275317 40.912234 26.669722 41.17193 26.875 41.5 C 27.089595 41.828077 27.218743 42.169529 27.21875 42.53125 C 27.218743 43.002333 27.114781 43.399089 26.9375 43.71875 C 26.760214 44.030001 26.526653 44.27527 26.21875 44.46875 C 25.920168 44.653817 25.576119 44.790878 25.15625 44.875 C 24.745702 44.9507 24.288354 44.999999 23.8125 45 C 23.429946 44.999999 23.035541 44.97956 22.625 44.9375 C 22.214455 44.90385 21.807462 44.856966 21.40625 44.78125 L 21.40625 37.1875 C 21.732818 37.13703 22.076867 37.096153 22.46875 37.0625 C 22.860631 37.02045 23.273696 37.00001 23.65625 37 z M 14 37.09375 L 20.3125 37.09375 L 20.3125 38.375 L 18.03125 38.375 L 18.03125 44.90625 L 16.28125 44.90625 L 16.28125 38.375 L 14 38.375 L 14 37.09375 z M 28.46875 37.09375 L 33.875 37.09375 L 33.875 38.1875 C 33.473781 38.742709 33.117144 39.2621 32.78125 39.75 C 32.445347 40.23791 32.132991 40.67916 31.84375 41.125 C 31.554499 41.562436 31.261252 41.994058 31 42.40625 C 30.748073 42.810036 30.51451 43.22963 30.28125 43.625 L 34 43.625 L 34 44.90625 L 28.28125 44.90625 L 28.28125 44 C 28.486521 43.638278 28.704235 43.270374 28.9375 42.875 C 29.170761 42.471219 29.429501 42.048009 29.71875 41.59375 C 30.007993 41.139497 30.320349 40.62372 30.65625 40.09375 C 31.001477 39.563789 31.401953 38.997506 31.8125 38.375 L 28.46875 38.375 L 28.46875 37.09375 z M 23.90625 38.34375 C 23.77562 38.343756 23.639955 38.36658 23.5 38.375 C 23.360039 38.3834 23.236965 38.38943 23.125 38.40625 L 23.125 40.1875 L 23.8125 40.1875 C 24.25103 40.187505 24.557314 40.105745 24.78125 39.9375 C 25.005179 39.76085 25.124996 39.521593 25.125 39.21875 C 25.124996 39.033688 25.09657 38.890614 25.03125 38.78125 C 24.96593 38.663486 24.861962 38.558892 24.75 38.5 C 24.63803 38.43271 24.524285 38.391831 24.375 38.375 C 24.225708 38.34977 24.064866 38.34376 23.90625 38.34375 z M 23.125 41.46875 L 23.125 43.59375 C 23.246295 43.61058 23.39129 43.61659 23.53125 43.625 C 23.680536 43.6335 23.797539 43.65625 23.9375 43.65625 C 24.133438 43.656251 24.344636 43.65024 24.53125 43.625 C 24.717856 43.59135 24.860038 43.513217 25 43.4375 C 25.149283 43.35338 25.281689 43.236758 25.375 43.09375 C 25.4683 42.942333 25.531245 42.75838 25.53125 42.53125 C 25.531245 42.152705 25.39558 41.878584 25.125 41.71875 C 24.86374 41.55051 24.510363 41.468753 24.0625 41.46875 L 23.125 41.46875 z "
     id="path3061" />
</svg>
