<?xml version="1.0" encoding="UTF-8" standalone="no"?>
<svg
   xmlns:dc="http://purl.org/dc/elements/1.1/"
   xmlns:cc="http://creativecommons.org/ns#"
   xmlns:rdf="http://www.w3.org/1999/02/22-rdf-syntax-ns#"
   xmlns:svg="http://www.w3.org/2000/svg"
   xmlns="http://www.w3.org/2000/svg"
   xmlns:sodipodi="http://sodipodi.sourceforge.net/DTD/sodipodi-0.dtd"
   xmlns:inkscape="http://www.inkscape.org/namespaces/inkscape"
   width="48"
   viewBox="0 0 48 48"
   height="48"
   id="svg3097"
   version="1.1"
   inkscape:version="0.48.4 r9939"
   sodipodi:docname="application-rtf.svg">
  <metadata
     id="metadata3139">
    <rdf:RDF>
      <cc:Work
         rdf:about="">
        <dc:format>image/svg+xml</dc:format>
        <dc:type
           rdf:resource="http://purl.org/dc/dcmitype/StillImage" />
      </cc:Work>
    </rdf:RDF>
  </metadata>
  <defs
     id="defs3137" />
  <sodipodi:namedview
     pagecolor="#ffffff"
     bordercolor="#666666"
     borderopacity="1"
     objecttolerance="10"
     gridtolerance="10"
     guidetolerance="10"
     inkscape:pageopacity="0"
     inkscape:pageshadow="2"
     inkscape:window-width="640"
     inkscape:window-height="480"
     id="namedview3135"
     showgrid="false"
     inkscape:zoom="1.7383042"
     inkscape:cx="-50.921633"
     inkscape:cy="17.737385"
     inkscape:window-x="0"
     inkscape:window-y="0"
     inkscape:window-maximized="0"
     inkscape:current-layer="svg3097" />
  <path
     style="fill:#3468ce"
     d="M 8 1 C 6.9714285 1 6 1.9714285 6 3 L 6 45 C 6 45.971429 7.0285714 47 8 47 L 40 47 C 40.971429 47 42 45.971429 42 45 L 42 14 L 29 1 L 8 1 z M 16.09375 16 L 22.90625 16 C 23.227016 16 23.5 16.260796 23.5 16.59375 L 23.5 22.40625 C 23.5 22.739204 23.227016 23 22.90625 23 L 16.09375 23 C 15.772984 23 15.5 22.739204 15.5 22.40625 L 15.5 16.59375 C 15.5 16.260796 15.772984 16 16.09375 16 z M 26 16 L 31 16 L 31 17 L 26 17 L 26 16 z M 26 19 L 31 19 L 31 20 L 26 20 L 26 19 z M 26 22 L 31 22 L 31 23 L 26 23 L 26 22 z M 15.5 25 L 31.5 25 L 31.5 26 L 15.5 26 L 15.5 25 z M 15.5 28 L 31.5 28 L 31.5 29 L 15.5 29 L 15.5 28 z M 15.5 31 L 31.5 31 L 31.5 32 L 15.5 32 L 15.5 31 z M 15.8125 37 C 16.00462 36.9915 16.168404 37.00001 16.3125 37 C 16.821623 37.000008 17.274431 37.054027 17.6875 37.15625 C 18.100561 37.258494 18.452204 37.412016 18.75 37.625 C 19.047785 37.837999 19.283796 38.10524 19.4375 38.4375 C 19.600798 38.761253 19.687493 39.150733 19.6875 39.59375 C 19.687493 40.053817 19.586328 40.46889 19.375 40.84375 C 19.163659 41.218619 18.802409 41.491551 18.3125 41.6875 C 18.4758 41.909015 18.629977 42.164874 18.8125 42.4375 C 18.995012 42.701612 19.202083 42.983063 19.375 43.28125 C 19.547904 43.57092 19.690045 43.858062 19.84375 44.15625 C 20.007048 44.445919 20.165968 44.735891 20.28125 45 L 18.40625 45 C 18.185302 44.488821 17.922786 43.999833 17.625 43.53125 C 17.336811 43.054151 17.023713 42.579374 16.6875 42.09375 L 15.78125 42.09375 L 15.78125 45 L 14 45 L 14 37.21875 C 14.172911 37.18468 14.360769 37.15057 14.5625 37.125 C 14.773834 37.09093 14.976162 37.07103 15.1875 37.0625 C 15.398834 37.04547 15.620375 37.00852 15.8125 37 z M 20.78125 37.09375 L 27.28125 37.09375 L 27.28125 38.40625 L 24.9375 38.40625 L 24.9375 45 L 23.125 45 L 23.125 38.40625 L 20.78125 38.40625 L 20.78125 37.09375 z M 28.53125 37.09375 L 34 37.09375 L 34 38.40625 L 30.3125 38.40625 L 30.3125 40.3125 L 33.53125 40.3125 L 33.53125 41.625 L 30.3125 41.625 L 30.3125 45 L 28.53125 45 L 28.53125 37.09375 z M 16.0625 38.375 C 15.96643 38.375007 15.877308 38.38929 15.78125 38.40625 L 15.78125 40.78125 L 16.15625 40.78125 C 16.761435 40.781254 17.199774 40.673226 17.46875 40.46875 C 17.737719 40.255762 17.874995 39.97714 17.875 39.59375 C 17.874995 39.176292 17.725681 38.852209 17.4375 38.65625 C 17.149312 38.460304 16.783198 38.375006 16.3125 38.375 C 16.24525 38.375006 16.158558 38.36642 16.0625 38.375 z "
     id="path3099" />
</svg>
