<?xml version="1.0" encoding="UTF-8" standalone="no"?>
<svg
   xmlns:dc="http://purl.org/dc/elements/1.1/"
   xmlns:cc="http://creativecommons.org/ns#"
   xmlns:rdf="http://www.w3.org/1999/02/22-rdf-syntax-ns#"
   xmlns:svg="http://www.w3.org/2000/svg"
   xmlns="http://www.w3.org/2000/svg"
   xmlns:sodipodi="http://sodipodi.sourceforge.net/DTD/sodipodi-0.dtd"
   xmlns:inkscape="http://www.inkscape.org/namespaces/inkscape"
   width="48"
   viewBox="0 0 48 48"
   height="48"
   id="svg2"
   version="1.1"
   inkscape:version="0.48.4 r9939"
   sodipodi:docname="application-vnd.ms-access.svg">
  <metadata
     id="metadata36">
    <rdf:RDF>
      <cc:Work
         rdf:about="">
        <dc:format>image/svg+xml</dc:format>
        <dc:type
           rdf:resource="http://purl.org/dc/dcmitype/StillImage" />
      </cc:Work>
    </rdf:RDF>
  </metadata>
  <defs
     id="defs34" />
  <sodipodi:namedview
     pagecolor="#ffffff"
     bordercolor="#666666"
     borderopacity="1"
     objecttolerance="10"
     gridtolerance="10"
     guidetolerance="10"
     inkscape:pageopacity="0"
     inkscape:pageshadow="2"
     inkscape:window-width="640"
     inkscape:window-height="480"
     id="namedview32"
     showgrid="false"
     inkscape:zoom="4.9166667"
     inkscape:cx="24"
     inkscape:cy="24"
     inkscape:window-x="0"
     inkscape:window-y="0"
     inkscape:window-maximized="0"
     inkscape:current-layer="svg2" />
  <path
     style="fill:#a4373a"
     d="M 8 1 C 6.9714285 1 6 1.9714285 6 3 L 6 45 C 6 45.971429 7.0285714 47 8 47 L 40 47 C 40.971429 47 42 45.971429 42 45 L 42 14 L 29 1 L 8 1 z M 24 16 C 28.418213 16 32 17.119273 32 18.5 L 32 20.5 C 32 21.880697 28.418213 23 24 23 C 19.581662 23 16 21.880697 16 20.5 L 16 18.5 C 16 17.119273 19.581757 16 24 16 z M 16.34375 22.25 C 17.363109 23.264265 20.386712 24 23.96875 24 C 27.550787 24 30.605674 23.264265 31.625 22.25 C 31.862966 22.486777 32 22.738723 32 23 L 32 25 C 32 26.380728 28.418213 27.5 24 27.5 C 19.581662 27.5 16 26.380728 16 25 L 16 23 C 16 22.738723 16.105785 22.486777 16.34375 22.25 z M 16.34375 26.75 C 17.363109 27.764234 20.386712 28.5 23.96875 28.5 C 27.550787 28.5 30.605674 27.764234 31.625 26.75 C 31.862966 26.986746 32 27.238723 32 27.5 L 32 29.5 C 32 30.880697 28.418213 32 24 32 C 19.581662 32 16 30.880697 16 29.5 L 16 27.5 C 16 27.238723 16.105785 26.986746 16.34375 26.75 z M 19.78125 37 C 19.99588 37.000009 20.205891 37.01298 20.375 37.0625 C 20.550605 37.10378 20.713665 37.160964 20.84375 37.21875 C 20.973826 37.27655 21.071693 37.340211 21.15625 37.40625 L 21.34375 37.5625 L 21.03125 38.78125 C 20.881653 38.657418 20.714629 38.551315 20.5 38.46875 C 20.291867 38.37794 20.054416 38.312507 19.78125 38.3125 C 19.59263 38.312507 19.400861 38.377948 19.21875 38.46875 C 19.043139 38.55132 18.893087 38.699859 18.75 38.90625 C 18.613413 39.104398 18.497305 39.349013 18.40625 39.6875 C 18.3217 40.025996 18.281249 40.465144 18.28125 40.96875 C 18.281249 41.843878 18.390853 42.498166 18.625 42.96875 C 18.865648 43.431082 19.241412 43.687501 19.78125 43.6875 C 20.093441 43.687501 20.360871 43.622062 20.5625 43.53125 C 20.770625 43.44043 20.938919 43.372067 21.0625 43.28125 L 21.375 44.46875 C 21.20589 44.600845 20.980177 44.728168 20.6875 44.84375 C 20.401318 44.951075 20.064731 44.999999 19.6875 45 C 18.835468 44.999999 18.167528 44.662246 17.71875 43.96875 C 17.269971 43.275257 17.062499 42.279667 17.0625 41 C 17.062499 40.3643 17.113413 39.80786 17.25 39.3125 C 17.386584 38.817153 17.571849 38.400998 17.8125 38.0625 C 18.059652 37.715759 18.355793 37.454632 18.6875 37.28125 C 19.025709 37.099628 19.384501 37.000009 19.78125 37 z M 24.6875 37 C 24.90213 37.000009 25.080891 37.01298 25.25 37.0625 C 25.425605 37.10378 25.588665 37.160964 25.71875 37.21875 C 25.848826 37.27655 25.946694 37.340211 26.03125 37.40625 L 26.21875 37.5625 L 25.9375 38.78125 C 25.787903 38.657422 25.589629 38.551315 25.375 38.46875 C 25.166867 38.37794 24.929417 38.312506 24.65625 38.3125 C 24.46763 38.312506 24.27586 38.377948 24.09375 38.46875 C 23.918138 38.55132 23.768087 38.69986 23.625 38.90625 C 23.488413 39.104398 23.372305 39.349014 23.28125 39.6875 C 23.1967 40.025996 23.156249 40.465145 23.15625 40.96875 C 23.156249 41.843879 23.265852 42.498166 23.5 42.96875 C 23.740647 43.431082 24.147662 43.687501 24.6875 43.6875 C 24.999691 43.687501 25.235871 43.622062 25.4375 43.53125 C 25.645626 43.44043 25.813919 43.372066 25.9375 43.28125 L 26.25 44.46875 C 26.08089 44.600845 25.855178 44.728168 25.5625 44.84375 C 25.276319 44.951074 24.939731 44.999999 24.5625 45 C 23.710468 44.999999 23.042527 44.662246 22.59375 43.96875 C 22.14497 43.275257 21.9375 42.279667 21.9375 41 C 21.9375 40.3643 21.988413 39.80786 22.125 39.3125 C 22.261584 38.817153 22.44685 38.400998 22.6875 38.0625 C 22.934653 37.715759 23.230792 37.454632 23.5625 37.28125 C 23.900707 37.099628 24.290751 37.000009 24.6875 37 z M 28.53125 37.09375 C 28.927994 37.093759 29.268545 37.1639 29.59375 37.3125 C 29.925452 37.461113 30.209855 37.678027 30.4375 38 C 30.665137 38.313731 30.845169 38.723401 30.96875 39.21875 C 31.098827 39.705853 31.156245 40.306509 31.15625 41 C 31.156245 41.71001 31.080584 42.308894 30.9375 42.8125 C 30.800911 43.307857 30.62215 43.717527 30.375 44.03125 C 30.127843 44.344975 29.813461 44.570144 29.46875 44.71875 C 29.130537 44.8591 28.784752 44.9375 28.375 44.9375 C 28.160365 44.9375 27.926878 44.90802 27.71875 44.875 C 27.517124 44.85023 27.296645 44.816042 27.0625 44.75 L 27.0625 37.28125 C 27.335669 37.20695 27.603099 37.149775 27.84375 37.125 C 28.084398 37.10024 28.323119 37.09376 28.53125 37.09375 z M 33.5 37.09375 C 33.955281 37.093758 34.338819 37.157422 34.625 37.28125 C 34.911175 37.39684 35.149896 37.551865 35.3125 37.75 C 35.475098 37.939892 35.566459 38.135584 35.625 38.375 C 35.68353 38.614427 35.71875 38.854334 35.71875 39.09375 C 35.718746 39.457014 35.643084 39.781804 35.5 40.0625 C 35.363412 40.343205 35.171642 40.584886 34.9375 40.75 C 35.347251 40.93989 35.638157 41.178023 35.78125 41.5 C 35.930839 41.821982 35.999995 42.176248 36 42.53125 C 35.999995 42.993582 35.936075 43.373777 35.8125 43.6875 C 35.688919 43.992968 35.527129 44.247616 35.3125 44.4375 C 35.104366 44.61913 34.855178 44.729941 34.5625 44.8125 C 34.276319 44.8868 33.956704 44.9375 33.625 44.9375 C 33.358333 44.9375 33.098676 44.91628 32.8125 44.875 C 32.526321 44.84197 32.217173 44.793061 31.9375 44.71875 L 31.9375 37.28125 C 32.165141 37.23173 32.414329 37.189279 32.6875 37.15625 C 32.960669 37.11498 33.233333 37.09375 33.5 37.09375 z M 13.71875 37.1875 L 15.03125 37.1875 C 15.317425 38.310309 15.595323 39.486853 15.875 40.75 C 16.161173 42.0049 16.42083 43.374201 16.6875 44.84375 L 15.40625 44.84375 L 15.125 43.0625 L 13.53125 43.0625 L 13.25 44.84375 L 12 44.84375 C 12.286178 43.332921 12.582318 41.957138 12.875 40.71875 C 13.167681 39.472114 13.445579 38.302053 13.71875 37.1875 z M 28.625 38.40625 C 28.57296 38.406256 28.502538 38.42922 28.4375 38.4375 C 28.37246 38.437506 28.33328 38.42093 28.28125 38.4375 L 28.28125 43.59375 C 28.31377 43.60195 28.335973 43.625 28.375 43.625 L 28.5 43.625 C 28.773168 43.625001 28.974134 43.538351 29.15625 43.40625 C 29.344865 43.274157 29.514428 43.106167 29.625 42.875 C 29.742069 42.643836 29.829469 42.376226 29.875 42.0625 C 29.92703 41.740523 29.93749 41.379774 29.9375 41 C 29.937497 40.669768 29.91402 40.344978 29.875 40.03125 C 29.83597 39.717531 29.785057 39.458176 29.6875 39.21875 C 29.58994 38.979335 29.450352 38.765356 29.28125 38.625 C 29.112141 38.4764 28.891663 38.406256 28.625 38.40625 z M 33.6875 38.40625 C 33.59644 38.406257 33.503809 38.42922 33.40625 38.4375 C 33.30869 38.4457 33.234296 38.45224 33.15625 38.46875 L 33.15625 40.21875 L 33.625 40.21875 C 33.930688 40.218755 34.1564 40.133867 34.3125 39.96875 C 34.468594 39.795381 34.531247 39.578467 34.53125 39.28125 C 34.531247 39.099626 34.51427 38.951084 34.46875 38.84375 C 34.42322 38.728174 34.359295 38.620297 34.28125 38.5625 C 34.2032 38.49646 34.135313 38.454013 34.03125 38.4375 C 33.927183 38.41273 33.798066 38.40625 33.6875 38.40625 z M 14.34375 38.65625 C 14.27871 38.945213 14.214784 39.235816 14.15625 39.5 L 14 40.25 C 13.95447 40.49768 13.920525 40.744071 13.875 41 C 13.83597 41.255936 13.789023 41.540059 13.75 41.8125 L 14.9375 41.8125 C 14.89847 41.540059 14.851522 41.255936 14.8125 41 C 14.77347 40.744071 14.739535 40.49768 14.6875 40.25 C 14.64197 39.994071 14.589787 39.755937 14.53125 39.5 C 14.47921 39.235816 14.408787 38.945213 14.34375 38.65625 z M 33.15625 41.46875 L 33.15625 43.5625 C 33.2408 43.57902 33.339937 43.5855 33.4375 43.59375 C 33.541562 43.60195 33.621187 43.625 33.71875 43.625 C 33.855332 43.625001 33.994917 43.58727 34.125 43.5625 C 34.255079 43.52947 34.371186 43.480561 34.46875 43.40625 C 34.572812 43.32369 34.653707 43.234101 34.71875 43.09375 C 34.78379 42.945145 34.8125 42.754162 34.8125 42.53125 C 34.812497 42.159737 34.719866 41.875615 34.53125 41.71875 C 34.349135 41.553635 34.093441 41.468755 33.78125 41.46875 L 33.15625 41.46875 z "
     id="path4" />
</svg>
