<?xml version="1.0" encoding="UTF-8" standalone="no"?>
<svg
   xmlns:dc="http://purl.org/dc/elements/1.1/"
   xmlns:cc="http://creativecommons.org/ns#"
   xmlns:rdf="http://www.w3.org/1999/02/22-rdf-syntax-ns#"
   xmlns:svg="http://www.w3.org/2000/svg"
   xmlns="http://www.w3.org/2000/svg"
   xmlns:sodipodi="http://sodipodi.sourceforge.net/DTD/sodipodi-0.dtd"
   xmlns:inkscape="http://www.inkscape.org/namespaces/inkscape"
   width="48"
   viewBox="0 0 48 48"
   height="48"
   id="svg3067"
   version="1.1"
   inkscape:version="0.48.4 r9939"
   sodipodi:docname="application-vnd.oasis.opendocument.text.svg">
  <metadata
     id="metadata3109">
    <rdf:RDF>
      <cc:Work
         rdf:about="">
        <dc:format>image/svg+xml</dc:format>
        <dc:type
           rdf:resource="http://purl.org/dc/dcmitype/StillImage" />
      </cc:Work>
    </rdf:RDF>
  </metadata>
  <defs
     id="defs3107" />
  <sodipodi:namedview
     pagecolor="#ffffff"
     bordercolor="#666666"
     borderopacity="1"
     objecttolerance="10"
     gridtolerance="10"
     guidetolerance="10"
     inkscape:pageopacity="0"
     inkscape:pageshadow="2"
     inkscape:window-width="640"
     inkscape:window-height="480"
     id="namedview3105"
     showgrid="false"
     inkscape:zoom="4.9166667"
     inkscape:cx="28.804197"
     inkscape:cy="18.024235"
     inkscape:window-x="0"
     inkscape:window-y="0"
     inkscape:window-maximized="0"
     inkscape:current-layer="svg3067" />
  <path
     style="fill:#3468ce"
     d="M 8 1 C 6.9714285 1 6 1.9714285 6 3 L 6 45 C 6 45.971429 7.0285714 47 8 47 L 40 47 C 40.971429 47 42 45.971429 42 45 L 42 14 L 29 1 L 8 1 z M 16.09375 16 L 22.90625 16 C 23.227016 16 23.5 16.260796 23.5 16.59375 L 23.5 22.40625 C 23.5 22.739204 23.227016 23 22.90625 23 L 16.09375 23 C 15.772984 23 15.5 22.739204 15.5 22.40625 L 15.5 16.59375 C 15.5 16.260796 15.772984 16 16.09375 16 z M 26 16 L 31 16 L 31 17 L 26 17 L 26 16 z M 26 19 L 31 19 L 31 20 L 26 20 L 26 19 z M 26 22 L 31 22 L 31 23 L 26 23 L 26 22 z M 15.5 25 L 31.5 25 L 31.5 26 L 15.5 26 L 15.5 25 z M 15.5 28 L 31.5 28 L 31.5 29 L 15.5 29 L 15.5 28 z M 15.5 31 L 31.5 31 L 31.5 32 L 15.5 32 L 15.5 31 z M 17.09375 37 C 18.097426 37.000008 18.850134 37.323024 19.375 38 C 19.899854 38.668734 20.156243 39.679062 20.15625 41 C 20.156243 42.320945 19.877813 43.323019 19.34375 44 C 18.809676 44.668727 18.069802 45 17.09375 45 C 16.090067 45 15.315317 44.668727 14.78125 44 C 14.256389 43.323019 13.999999 42.320945 14 41 C 13.999999 39.679062 14.269222 38.668734 14.8125 38 C 15.355775 37.323024 16.126899 37.000008 17.09375 37 z M 23.3125 37.09375 C 23.874189 37.093758 24.383342 37.163901 24.84375 37.3125 C 25.313357 37.461114 25.708962 37.678027 26.03125 38 C 26.353526 38.313731 26.60629 38.723402 26.78125 39.21875 C 26.965405 39.705853 27.062493 40.306509 27.0625 41 C 27.062493 41.710009 26.952571 42.308894 26.75 42.8125 C 26.556625 43.307856 26.287401 43.717527 25.9375 44.03125 C 25.587588 44.344974 25.175524 44.570144 24.6875 44.71875 C 24.208677 44.8591 23.673855 44.9375 23.09375 44.9375 C 22.78988 44.9375 22.513406 44.90802 22.21875 44.875 C 21.933298 44.85023 21.61274 44.816052 21.28125 44.75 L 21.28125 37.28125 C 21.667988 37.20696 22.0343 37.149775 22.375 37.125 C 22.715697 37.10024 23.017838 37.09376 23.3125 37.09375 z M 27.78125 37.1875 L 34 37.1875 L 34 38.4375 L 31.75 38.4375 L 31.75 44.84375 L 30.03125 44.84375 L 30.03125 38.4375 L 27.78125 38.4375 L 27.78125 37.1875 z M 17.09375 38.3125 C 16.799088 38.312507 16.54995 38.390904 16.375 38.53125 C 16.200044 38.671606 16.070036 38.877329 15.96875 39.125 C 15.87666 39.364427 15.81808 39.646776 15.78125 39.96875 C 15.75363 40.290734 15.71875 40.628489 15.71875 41 C 15.718748 41.371518 15.75362 41.732267 15.78125 42.0625 C 15.81808 42.384483 15.876666 42.666832 15.96875 42.90625 C 16.070036 43.145673 16.200044 43.328401 16.375 43.46875 C 16.54995 43.609101 16.799088 43.687502 17.09375 43.6875 C 17.379197 43.687502 17.606292 43.609105 17.78125 43.46875 C 17.965407 43.328401 18.095415 43.145673 18.1875 42.90625 C 18.288784 42.658576 18.34737 42.353233 18.375 42.03125 C 18.41183 41.709274 18.43749 41.371518 18.4375 41 C 18.437495 40.628489 18.41183 40.290734 18.375 39.96875 C 18.34737 39.63852 18.28878 39.333177 18.1875 39.09375 C 18.09541 38.854335 17.9562 38.671606 17.78125 38.53125 C 17.606292 38.390906 17.388405 38.312507 17.09375 38.3125 z M 23.46875 38.40625 C 23.39508 38.406256 23.310827 38.42932 23.21875 38.4375 C 23.12666 38.437506 23.042412 38.42093 22.96875 38.4375 L 22.96875 43.59375 C 23.01478 43.60195 23.069747 43.625 23.125 43.625 L 23.28125 43.625 C 23.667986 43.625002 23.99217 43.538351 24.25 43.40625 C 24.517029 43.274157 24.718459 43.106167 24.875 42.875 C 25.040741 42.643837 25.154289 42.376227 25.21875 42.0625 C 25.29241 41.740524 25.343745 41.379774 25.34375 41 C 25.343745 40.669769 25.30524 40.344979 25.25 40.03125 C 25.19475 39.717531 25.106866 39.458176 24.96875 39.21875 C 24.830624 38.979335 24.645655 38.765357 24.40625 38.625 C 24.166836 38.4764 23.846278 38.406256 23.46875 38.40625 z "
     id="path3069" />
</svg>
