<?xml version="1.0" encoding="UTF-8" standalone="no"?>
<svg
   xmlns:dc="http://purl.org/dc/elements/1.1/"
   xmlns:cc="http://creativecommons.org/ns#"
   xmlns:rdf="http://www.w3.org/1999/02/22-rdf-syntax-ns#"
   xmlns:svg="http://www.w3.org/2000/svg"
   xmlns="http://www.w3.org/2000/svg"
   xmlns:sodipodi="http://sodipodi.sourceforge.net/DTD/sodipodi-0.dtd"
   xmlns:inkscape="http://www.inkscape.org/namespaces/inkscape"
   width="48"
   viewBox="0 0 48 48"
   height="48"
   id="svg2"
   version="1.1"
   inkscape:version="0.48.4 r9939"
   sodipodi:docname="application-pdf.svg">
  <metadata
     id="metadata26">
    <rdf:RDF>
      <cc:Work
         rdf:about="">
        <dc:format>image/svg+xml</dc:format>
        <dc:type
           rdf:resource="http://purl.org/dc/dcmitype/StillImage" />
      </cc:Work>
    </rdf:RDF>
  </metadata>
  <defs
     id="defs24" />
  <sodipodi:namedview
     pagecolor="#ffffff"
     bordercolor="#666666"
     borderopacity="1"
     objecttolerance="10"
     gridtolerance="10"
     guidetolerance="10"
     inkscape:pageopacity="0"
     inkscape:pageshadow="2"
     inkscape:window-width="640"
     inkscape:window-height="480"
     id="namedview22"
     showgrid="false"
     inkscape:zoom="4.9166667"
     inkscape:cx="24"
     inkscape:cy="24"
     inkscape:window-x="0"
     inkscape:window-y="0"
     inkscape:window-maximized="0"
     inkscape:current-layer="svg2" />
  <path
     style="fill:#e01818"
     d="M 8 1 C 6.9714285 1 6 1.9714285 6 3 L 6 45 C 6 45.971429 7.0285714 47 8 47 L 40 47 C 40.971429 47 42 45.971429 42 45 L 42 14 L 29 1 L 8 1 z M 22.375 14 C 22.565437 13.965458 22.766889 14.081009 22.96875 14.28125 C 23.241739 14.552046 23.321974 14.974808 23.375 15.28125 C 23.317871 15.100947 23.208704 14.877416 23.09375 14.78125 C 22.946935 14.489991 21.94149 13.862657 22.125 16.15625 C 22.202507 17.124967 22.289393 18.496299 22.5625 19.96875 C 23.146395 17.741898 23.53125 16.03125 23.53125 16.03125 C 23.53125 16.03125 23.727562 18.211762 22.96875 21.65625 C 23.406167 23.175774 24.0969 24.72105 25.21875 26.0625 C 26.184378 27.217171 27.434216 28.168675 28.71875 28.90625 C 29.442753 28.839724 30.252183 28.788448 31.53125 28.75 C 35.164758 28.640778 35.587614 29.089258 35.875 29.625 C 36.212251 30.144327 35.71875 30.65625 35.71875 30.65625 C 35.71875 30.65625 35.716224 30.296417 35.3125 29.96875 C 34.946125 29.671525 33.578549 29.248212 29.90625 29.5 C 31.77026 30.400438 33.476448 30.8797 34.15625 30.9375 C 35.076863 31.015776 35.39405 30.890986 35.5 30.8125 C 35.371074 30.990703 34.690572 31.766194 32.46875 31.3125 C 31.171353 31.047533 29.662559 30.43756 28.25 29.65625 C 23.814664 30.151954 19.3125 31.59375 19.3125 31.59375 C 19.312491 31.59375 20.941353 30.243926 24.28125 29.625 C 25.655005 29.370455 26.501157 29.21857 27.28125 29.09375 C 26.362143 28.498775 25.51056 27.828688 24.90625 27.125 C 24.039484 26.115701 23.285773 24.489107 22.6875 22.90625 C 22.076384 25.168404 21.057399 27.828914 19.34375 30.78125 C 14.462375 39.191069 13.013833 38.072509 12.5 37.78125 C 11.986174 37.490065 11.334577 36.549363 13.5 34.65625 C 15.66543 32.763138 16.5 32.8125 16.5 32.8125 C 16.5 32.8125 14.520744 33.991212 13.75 35.15625 C 12.979257 36.321213 12.37899 37.047333 12.5625 37.375 C 12.74601 37.702593 14.95745 36.044815 15.875 34.625 C 17.332256 32.370051 20.059182 28.160919 21.34375 24.15625 C 21.638013 23.238884 21.940839 22.349645 22.1875 21.46875 C 21.886401 20.517518 21.638738 19.635438 21.53125 19.03125 C 21.200926 17.174546 21.408776 15.254241 21.8125 14.5625 C 22.014362 14.216555 22.184563 14.034542 22.375 14 z "
     id="path4" />
</svg>
