<?xml version="1.0" encoding="UTF-8" standalone="no"?>
<svg
   xmlns:dc="http://purl.org/dc/elements/1.1/"
   xmlns:cc="http://creativecommons.org/ns#"
   xmlns:rdf="http://www.w3.org/1999/02/22-rdf-syntax-ns#"
   xmlns:svg="http://www.w3.org/2000/svg"
   xmlns="http://www.w3.org/2000/svg"
   xmlns:sodipodi="http://sodipodi.sourceforge.net/DTD/sodipodi-0.dtd"
   xmlns:inkscape="http://www.inkscape.org/namespaces/inkscape"
   width="48"
   viewBox="0 0 48 48"
   height="48"
   id="svg3039"
   version="1.1"
   inkscape:version="0.48.4 r9939"
   sodipodi:docname="application-vector.svg">
  <metadata
     id="metadata3053">
    <rdf:RDF>
      <cc:Work
         rdf:about="">
        <dc:format>image/svg+xml</dc:format>
        <dc:type
           rdf:resource="http://purl.org/dc/dcmitype/StillImage" />
      </cc:Work>
    </rdf:RDF>
  </metadata>
  <defs
     id="defs3051" />
  <sodipodi:namedview
     pagecolor="#ffffff"
     bordercolor="#666666"
     borderopacity="1"
     objecttolerance="10"
     gridtolerance="10"
     guidetolerance="10"
     inkscape:pageopacity="0"
     inkscape:pageshadow="2"
     inkscape:window-width="640"
     inkscape:window-height="480"
     id="namedview3049"
     showgrid="false"
     inkscape:zoom="4.9166667"
     inkscape:cx="24"
     inkscape:cy="24"
     inkscape:window-x="0"
     inkscape:window-y="0"
     inkscape:window-maximized="0"
     inkscape:current-layer="svg3039" />
  <path
     style="fill:#05aa9d"
     d="M 8 1 C 6.9714285 1 6 1.9714285 6 3 L 6 45 C 6 45.971429 7.0285714 47 8 47 L 40 47 C 40.971429 47 42 45.971429 42 45 L 42 14 L 29 1 L 8 1 z M 29.4375 18 C 30.29661 18 31 18.671573 31 19.5 C 31 20.328427 30.29661 21 29.4375 21 C 28.862254 21 28.362895 20.697674 28.09375 20.25 L 22.4375 20.25 C 22.4375 20.25 21.63046 20.276942 20.84375 20.65625 C 20.057038 21.035557 19.34375 21.625 19.34375 23.25 C 19.34375 24.875 20.057041 25.464443 20.84375 25.84375 C 21.134437 25.983901 21.399957 26.06599 21.65625 26.125 L 21.65625 25.5 L 24.25 25.5 L 26.375 23.4375 C 26.35689 23.374014 26.34375 23.31904 26.34375 23.25 C 26.34375 22.835786 26.695445 22.5 27.125 22.5 C 27.554556 22.5 27.875 22.835792 27.875 23.25 C 27.875 23.664215 27.554556 24 27.125 24 C 27.053407 24 26.97208 23.98621 26.90625 23.96875 L 24.78125 26.03125 L 24.78125 26.25 L 25.5625 26.25 C 25.5625 26.25 26.686016 26.223057 27.84375 26.78125 C 29.001483 27.339442 30.21875 28.625 30.21875 30.75 C 30.21875 32.874998 29.001483 34.160558 27.84375 34.71875 C 26.686016 35.276954 25.5625 35.25 25.5625 35.25 L 19.90625 35.25 C 19.637104 35.697671 19.137748 36 18.5625 36 C 17.70339 36 17 35.328426 17 34.5 C 17 33.671574 17.70339 33 18.5625 33 C 19.137748 33 19.637103 33.302325 19.90625 33.75 L 25.5625 33.75 C 25.5625 33.75 26.369536 33.723058 27.15625 33.34375 C 27.942962 32.964444 28.65625 32.374998 28.65625 30.75 C 28.65625 29.125 27.942962 28.535556 27.15625 28.15625 C 26.369538 27.776953 25.5625 27.75 25.5625 27.75 L 24.78125 27.75 L 24.78125 28.5 L 22.1875 28.5 L 20.0625 30.5625 C 20.08061 30.625987 20.125 30.68096 20.125 30.75 C 20.125 31.164213 19.773306 31.5 19.34375 31.5 C 18.914194 31.5 18.5625 31.16421 18.5625 30.75 C 18.5625 30.335786 18.914194 30 19.34375 30 C 19.415343 30 19.46542 30.04504 19.53125 30.0625 L 21.65625 28 L 21.65625 27.65625 C 21.237916 27.587616 20.705431 27.483534 20.15625 27.21875 C 18.998516 26.660557 17.78125 25.375 17.78125 23.25 C 17.78125 21.124999 18.998516 19.839441 20.15625 19.28125 C 21.313983 18.723046 22.4375 18.75 22.4375 18.75 L 28.09375 18.75 C 28.362895 18.302328 28.862253 18 29.4375 18 z "
     id="path3041" />
</svg>
