<?xml version="1.0" encoding="UTF-8" standalone="no"?>
<svg
   xmlns:dc="http://purl.org/dc/elements/1.1/"
   xmlns:cc="http://creativecommons.org/ns#"
   xmlns:rdf="http://www.w3.org/1999/02/22-rdf-syntax-ns#"
   xmlns:svg="http://www.w3.org/2000/svg"
   xmlns="http://www.w3.org/2000/svg"
   xmlns:sodipodi="http://sodipodi.sourceforge.net/DTD/sodipodi-0.dtd"
   xmlns:inkscape="http://www.inkscape.org/namespaces/inkscape"
   width="48"
   viewBox="0 0 48 48"
   height="48"
   id="svg3037"
   version="1.1"
   inkscape:version="0.48.4 r9939"
   sodipodi:docname="application-image-ico.svg">
  <metadata
     id="metadata3065">
    <rdf:RDF>
      <cc:Work
         rdf:about="">
        <dc:format>image/svg+xml</dc:format>
        <dc:type
           rdf:resource="http://purl.org/dc/dcmitype/StillImage" />
      </cc:Work>
    </rdf:RDF>
  </metadata>
  <defs
     id="defs3063" />
  <sodipodi:namedview
     pagecolor="#ffffff"
     bordercolor="#666666"
     borderopacity="1"
     objecttolerance="10"
     gridtolerance="10"
     guidetolerance="10"
     inkscape:pageopacity="0"
     inkscape:pageshadow="2"
     inkscape:window-width="640"
     inkscape:window-height="480"
     id="namedview3061"
     showgrid="false"
     inkscape:zoom="4.9166667"
     inkscape:cx="24"
     inkscape:cy="24"
     inkscape:window-x="0"
     inkscape:window-y="0"
     inkscape:window-maximized="0"
     inkscape:current-layer="svg3037" />
  <path
     style="fill:#39a34f"
     d="M 8 1 C 6.9714285 1 6 1.9714285 6 3 L 6 45 C 6 45.971429 7.0285714 47 8 47 L 40 47 C 40.971429 47 42 45.971429 42 45 L 42 14 L 29 1 L 8 1 z M 17.03125 16 L 17.125 16 L 30.90625 16 C 31.498065 16.0069 32.008433 16.61825 32 17.28125 L 32 30.75 C 31.993906 31.4026 31.488764 31.99 30.90625 32 L 17.125 32 C 16.533199 32.0095 16.0061 31.413 16 30.75 L 16 26.4375 L 16 26.40625 L 16 25.875 L 16 25.84375 L 16 17.28125 C 15.989958 16.64805 16.468013 16.054 17.03125 16 z M 18 18 L 18 23.9375 C 18.827639 23.104408 19.801497 22.122187 21.125 20.75 C 22.111782 22.1448 22.838622 23.1524 23.375 23.8125 C 23.899035 24.4698 24.17952 24.7649 24.25 24.6875 C 24.807832 24.1904 25.282979 23.7451 25.6875 23.375 C 26.08589 23.0049 26.379755 22.71175 26.625 22.46875 C 27.850816 24.00435 28.889473 25.27485 29.78125 26.34375 C 29.871835 26.453378 29.91325 26.489563 30 26.59375 L 30 18 L 18 18 z M 24.625 37 C 24.935073 37.000009 25.224442 37.01297 25.46875 37.0625 C 25.722444 37.10379 25.937068 37.160962 26.125 37.21875 C 26.31292 37.27655 26.471592 37.34021 26.59375 37.40625 L 26.875 37.5625 L 26.4375 38.78125 C 26.221379 38.657416 25.966322 38.551316 25.65625 38.46875 C 25.355563 38.37794 24.988389 38.312507 24.59375 38.3125 C 24.321252 38.312507 24.044343 38.377946 23.78125 38.46875 C 23.527547 38.55131 23.300465 38.699857 23.09375 38.90625 C 22.896425 39.104399 22.756547 39.349011 22.625 39.6875 C 22.502847 40.026 22.437498 40.465141 22.4375 40.96875 C 22.437498 41.843885 22.599232 42.498163 22.9375 42.96875 C 23.28516 43.431085 23.845103 43.6875 24.625 43.6875 C 25.076017 43.6875 25.458709 43.622064 25.75 43.53125 C 26.050675 43.44044 26.290215 43.372067 26.46875 43.28125 L 26.90625 44.46875 C 26.661941 44.600846 26.329077 44.728166 25.90625 44.84375 C 25.492807 44.951077 25.01373 45 24.46875 45 C 23.237832 45 22.273343 44.662251 21.625 43.96875 C 20.976656 43.27525 20.656248 42.279676 20.65625 41 C 20.656248 40.364295 20.771428 39.807862 20.96875 39.3125 C 21.166072 38.817149 21.433586 38.401 21.78125 38.0625 C 22.138307 37.715756 22.552036 37.454632 23.03125 37.28125 C 23.519854 37.099626 24.051822 37.000009 24.625 37 z M 30.84375 37 C 31.867942 37.000009 32.651907 37.323019 33.1875 38 C 33.723083 38.66874 33.999992 39.67905 34 41 C 33.999992 42.320956 33.732479 43.323012 33.1875 44 C 32.64251 44.668733 31.871003 45 30.875 45 C 29.850802 45 29.076234 44.668733 28.53125 44 C 27.995661 43.323012 27.71875 42.320956 27.71875 41 C 27.71875 39.67905 27.976868 38.66874 28.53125 38 C 29.085629 37.323019 29.857137 37.000009 30.84375 37 z M 14 37.1875 L 19.53125 37.1875 L 19.53125 38.4375 L 17.65625 38.4375 L 17.65625 43.5625 L 19.53125 43.5625 L 19.53125 44.84375 L 14 44.84375 L 14 43.5625 L 15.90625 43.5625 L 15.90625 38.4375 L 14 38.4375 L 14 37.1875 z M 30.84375 38.3125 C 30.543066 38.312507 30.303526 38.390902 30.125 38.53125 C 29.946468 38.671607 29.822107 38.877327 29.71875 39.125 C 29.62478 39.364428 29.568832 39.646773 29.53125 39.96875 C 29.50306 40.290737 29.46875 40.628485 29.46875 41 C 29.468748 41.371521 29.50305 41.732265 29.53125 42.0625 C 29.56883 42.384485 29.624782 42.66683 29.71875 42.90625 C 29.822104 43.145676 29.946468 43.3284 30.125 43.46875 C 30.303526 43.609103 30.543066 43.687501 30.84375 43.6875 C 31.135032 43.687501 31.383966 43.609108 31.5625 43.46875 C 31.750421 43.3284 31.906032 43.145676 32 42.90625 C 32.103354 42.658574 32.159307 42.353235 32.1875 42.03125 C 32.22508 41.70927 32.24999 41.371521 32.25 41 C 32.249996 40.628485 32.22508 40.290737 32.1875 39.96875 C 32.1593 39.638517 32.103352 39.333179 32 39.09375 C 31.90603 38.854333 31.741025 38.671607 31.5625 38.53125 C 31.383967 38.390904 31.144427 38.312507 30.84375 38.3125 z "
     id="path3039" />
</svg>
