<?xml version="1.0" encoding="UTF-8" standalone="no"?>
<svg
   xmlns:dc="http://purl.org/dc/elements/1.1/"
   xmlns:cc="http://creativecommons.org/ns#"
   xmlns:rdf="http://www.w3.org/1999/02/22-rdf-syntax-ns#"
   xmlns:svg="http://www.w3.org/2000/svg"
   xmlns="http://www.w3.org/2000/svg"
   xmlns:sodipodi="http://sodipodi.sourceforge.net/DTD/sodipodi-0.dtd"
   xmlns:inkscape="http://www.inkscape.org/namespaces/inkscape"
   width="48"
   viewBox="0 0 48 48"
   height="48"
   id="svg3023"
   version="1.1"
   inkscape:version="0.48.4 r9939"
   sodipodi:docname="application-image-tiff.svg">
  <metadata
     id="metadata3053">
    <rdf:RDF>
      <cc:Work
         rdf:about="">
        <dc:format>image/svg+xml</dc:format>
        <dc:type
           rdf:resource="http://purl.org/dc/dcmitype/StillImage" />
      </cc:Work>
    </rdf:RDF>
  </metadata>
  <defs
     id="defs3051" />
  <sodipodi:namedview
     pagecolor="#ffffff"
     bordercolor="#666666"
     borderopacity="1"
     objecttolerance="10"
     gridtolerance="10"
     guidetolerance="10"
     inkscape:pageopacity="0"
     inkscape:pageshadow="2"
     inkscape:window-width="640"
     inkscape:window-height="480"
     id="namedview3049"
     showgrid="false"
     inkscape:zoom="4.9166667"
     inkscape:cx="24"
     inkscape:cy="24"
     inkscape:window-x="0"
     inkscape:window-y="0"
     inkscape:window-maximized="0"
     inkscape:current-layer="svg3023" />
  <path
     style="fill:#39a34f"
     d="M 8 1 C 6.9714285 1 6 1.9714285 6 3 L 6 45 C 6 45.971429 7.0285714 47 8 47 L 40 47 C 40.971429 47 42 45.971429 42 45 L 42 14 L 29 1 L 8 1 z M 17.03125 16 L 17.125 16 L 30.90625 16 C 31.498065 16.0069 32.008433 16.61825 32 17.28125 L 32 30.75 C 31.993906 31.4026 31.488764 31.99 30.90625 32 L 17.125 32 C 16.533199 32.0095 16.0061 31.413 16 30.75 L 16 26.4375 L 16 26.40625 L 16 25.875 L 16 25.84375 L 16 17.28125 C 15.989958 16.64805 16.468013 16.054 17.03125 16 z M 18 18 L 18 23.9375 C 18.827639 23.104408 19.801497 22.122187 21.125 20.75 C 22.111782 22.1448 22.838622 23.1524 23.375 23.8125 C 23.899035 24.4698 24.17952 24.7649 24.25 24.6875 C 24.807832 24.1904 25.282979 23.7451 25.6875 23.375 C 26.08589 23.0049 26.379755 22.71175 26.625 22.46875 C 27.850816 24.00435 28.889473 25.27485 29.78125 26.34375 C 29.871835 26.453378 29.91325 26.489563 30 26.59375 L 30 18 L 18 18 z M 11 37 L 17.09375 37 L 17.09375 38.3125 L 14.90625 38.3125 L 14.90625 45 L 13.21875 45 L 13.21875 38.3125 L 11 38.3125 L 11 37 z M 18.1875 37 L 23.5 37 L 23.5 38.3125 L 21.6875 38.3125 L 21.6875 43.6875 L 23.5 43.6875 L 23.5 45 L 18.1875 45 L 18.1875 43.6875 L 20 43.6875 L 20 38.3125 L 18.1875 38.3125 L 18.1875 37 z M 25.09375 37 L 30.21875 37 L 30.21875 38.3125 L 26.75 38.3125 L 26.75 40.25 L 29.78125 40.25 L 29.78125 41.5625 L 26.75 41.5625 L 26.75 45 L 25.09375 45 L 25.09375 37 z M 31.875 37 L 37 37 L 37 38.3125 L 33.53125 38.3125 L 33.53125 40.25 L 36.5625 40.25 L 36.5625 41.5625 L 33.53125 41.5625 L 33.53125 45 L 31.875 45 L 31.875 37 z "
     id="path3025" />
</svg>
