<?xml version="1.0" encoding="UTF-8" standalone="no"?>
<svg
   xmlns:dc="http://purl.org/dc/elements/1.1/"
   xmlns:cc="http://creativecommons.org/ns#"
   xmlns:rdf="http://www.w3.org/1999/02/22-rdf-syntax-ns#"
   xmlns:svg="http://www.w3.org/2000/svg"
   xmlns="http://www.w3.org/2000/svg"
   xmlns:sodipodi="http://sodipodi.sourceforge.net/DTD/sodipodi-0.dtd"
   xmlns:inkscape="http://www.inkscape.org/namespaces/inkscape"
   width="48"
   viewBox="0 0 48 48"
   height="48"
   id="svg3053"
   version="1.1"
   inkscape:version="0.48.4 r9939"
   sodipodi:docname="application-x-trash.svg">
  <metadata
     id="metadata3073">
    <rdf:RDF>
      <cc:Work
         rdf:about="">
        <dc:format>image/svg+xml</dc:format>
        <dc:type
           rdf:resource="http://purl.org/dc/dcmitype/StillImage" />
      </cc:Work>
    </rdf:RDF>
  </metadata>
  <defs
     id="defs3071" />
  <sodipodi:namedview
     pagecolor="#ffffff"
     bordercolor="#666666"
     borderopacity="1"
     objecttolerance="10"
     gridtolerance="10"
     guidetolerance="10"
     inkscape:pageopacity="0"
     inkscape:pageshadow="2"
     inkscape:window-width="640"
     inkscape:window-height="480"
     id="namedview3069"
     showgrid="false"
     inkscape:zoom="4.9166667"
     inkscape:cx="24"
     inkscape:cy="24"
     inkscape:window-x="0"
     inkscape:window-y="0"
     inkscape:window-maximized="0"
     inkscape:current-layer="svg3053" />
  <path
     style="fill:#888888"
     d="M 8 1 C 6.9714285 1 6 1.9714285 6 3 L 6 45 C 6 45.971429 7.0285714 47 8 47 L 40 47 C 40.971429 47 42 45.971429 42 45 L 42 14 L 29 1 L 8 1 z M 20.0625 16 L 20.21875 16 L 20.9375 16 L 28.375 16 L 29.75 18.34375 L 30.78125 17.75 L 28.40625 21.75 L 24.0625 21.75 L 24.8125 20.5 L 24 19.125 L 21.65625 23.0625 L 17.375 20.65625 L 20.0625 16 z M 31.6875 23.21875 L 34.5 27.8125 L 34.40625 27.96875 L 34.0625 28.5625 L 30.34375 34.84375 L 27.5625 34.84375 L 27.5625 36 L 25.1875 32 L 27.375 28.3125 L 28.125 29.59375 L 29.75 29.59375 L 27.40625 25.625 L 31.6875 23.21875 z M 13.84375 24.65625 L 18.59375 24.65625 L 20.78125 28.3125 L 19.28125 28.3125 L 18.46875 29.6875 L 23.15625 29.6875 L 23.15625 34.5 L 17.65625 34.59375 L 17.5625 34.4375 L 17.21875 33.84375 L 13.5 27.5625 L 14.875 25.21875 L 13.84375 24.65625 z "
     id="path3055" />
</svg>
