<?xml version="1.0" encoding="UTF-8" standalone="no"?>
<svg
   xmlns:dc="http://purl.org/dc/elements/1.1/"
   xmlns:cc="http://creativecommons.org/ns#"
   xmlns:rdf="http://www.w3.org/1999/02/22-rdf-syntax-ns#"
   xmlns:svg="http://www.w3.org/2000/svg"
   xmlns="http://www.w3.org/2000/svg"
   xmlns:sodipodi="http://sodipodi.sourceforge.net/DTD/sodipodi-0.dtd"
   xmlns:inkscape="http://www.inkscape.org/namespaces/inkscape"
   width="48"
   viewBox="0 0 48 48"
   height="48"
   id="svg3065"
   version="1.1"
   inkscape:version="0.48.4 r9939"
   sodipodi:docname="application-x-gzip.svg">
  <metadata
     id="metadata3095">
    <rdf:RDF>
      <cc:Work
         rdf:about="">
        <dc:format>image/svg+xml</dc:format>
        <dc:type
           rdf:resource="http://purl.org/dc/dcmitype/StillImage" />
      </cc:Work>
    </rdf:RDF>
  </metadata>
  <defs
     id="defs3093" />
  <sodipodi:namedview
     pagecolor="#ffffff"
     bordercolor="#666666"
     borderopacity="1"
     objecttolerance="10"
     gridtolerance="10"
     guidetolerance="10"
     inkscape:pageopacity="0"
     inkscape:pageshadow="2"
     inkscape:window-width="640"
     inkscape:window-height="480"
     id="namedview3091"
     showgrid="false"
     inkscape:zoom="4.9166667"
     inkscape:cx="24"
     inkscape:cy="24"
     inkscape:window-x="0"
     inkscape:window-y="0"
     inkscape:window-maximized="0"
     inkscape:current-layer="svg3065" />
  <path
     style="fill:#c19553"
     d="M 8 1 C 6.9714285 1 6 1.9714285 6 3 L 6 45 C 6 45.971429 7.0285714 47 8 47 L 40 47 C 40.971429 47 42 45.971429 42 45 L 42 14 L 29 1 L 22 1 L 22 5 L 18 5 L 18 9 L 22 9 L 22 13 L 18 13 L 18 17 L 22 17 L 22 21 L 18 21 L 18 17 L 14 17 L 14 13 L 18 13 L 18 9 L 14 9 L 14 5 L 18 5 L 18 1 L 8 1 z M 14 23 L 18 23 L 22 23 L 22 31 L 14 31 L 14 23 z M 15.3125 37 C 15.60864 37.000008 15.863411 37.01297 16.09375 37.0625 C 16.332306 37.10378 16.545995 37.160963 16.71875 37.21875 C 16.891496 37.27655 17.018054 37.34021 17.125 37.40625 C 17.240162 37.47231 17.348661 37.529484 17.40625 37.5625 L 17 38.78125 C 16.819018 38.665673 16.606985 38.559571 16.34375 38.46875 C 16.080507 38.37794 15.810937 38.312506 15.53125 38.3125 C 15.169292 38.312506 14.840534 38.399169 14.59375 38.53125 C 14.34696 38.66335 14.164522 38.854335 14 39.09375 C 13.843699 39.324921 13.730283 39.607269 13.65625 39.9375 C 13.59044 40.259485 13.53124 40.603722 13.53125 41 C 13.531248 41.916408 13.680829 42.59369 13.96875 43.03125 C 14.256665 43.460559 14.690614 43.687501 15.25 43.6875 C 15.34049 43.687501 15.424306 43.66453 15.53125 43.65625 C 15.638187 43.64805 15.753257 43.64151 15.84375 43.625 L 15.84375 40.8125 L 17.34375 40.8125 L 17.34375 44.65625 C 17.162767 44.7223 16.886628 44.79244 16.5 44.875 C 16.121589 44.95756 15.667927 45 15.125 45 C 14.647875 45 14.199131 44.915117 13.8125 44.75 C 13.434092 44.576627 13.115214 44.330236 12.84375 44 C 12.572283 43.661509 12.36682 43.245357 12.21875 42.75 C 12.070677 42.246394 12 41.660476 12 41 C 12 40.347789 12.077243 39.776608 12.25 39.28125 C 12.422749 38.777646 12.672604 38.338498 12.96875 38 C 13.264892 37.661514 13.596913 37.415126 14 37.25 C 14.403083 37.076635 14.851827 37.000008 15.3125 37 z M 32.46875 37.09375 C 32.649725 37.08555 32.797652 37.09376 32.9375 37.09375 C 33.908192 37.093758 34.652792 37.282969 35.1875 37.6875 C 35.7222 38.08379 35.999994 38.748107 36 39.65625 C 35.999994 40.572659 35.730425 41.243459 35.1875 41.65625 C 34.65279 42.060792 33.893393 42.250002 32.90625 42.25 L 32.375 42.25 L 32.375 44.84375 L 30.84375 44.84375 L 30.84375 37.28125 C 30.991821 37.24823 31.162771 37.21228 31.34375 37.1875 C 31.532952 37.16273 31.717046 37.13327 31.90625 37.125 C 32.095452 37.1085 32.287771 37.10201 32.46875 37.09375 z M 18.5625 37.1875 L 23.3125 37.1875 L 23.3125 38.25 C 22.958768 38.794896 22.63989 39.302414 22.34375 39.78125 C 22.047602 40.260098 21.78626 40.718691 21.53125 41.15625 C 21.276234 41.585559 21.042832 42.001714 20.8125 42.40625 C 20.59039 42.802535 20.361903 43.174475 20.15625 43.5625 L 23.4375 43.5625 L 23.4375 44.84375 L 18.40625 44.84375 L 18.40625 43.96875 C 18.587225 43.613747 18.763093 43.23178 18.96875 42.84375 C 19.174404 42.44747 19.432485 42.039572 19.6875 41.59375 C 19.942511 41.147936 20.203853 40.645125 20.5 40.125 C 20.804367 39.604883 21.138043 39.048443 21.5 38.4375 L 18.5625 38.4375 L 18.5625 37.1875 z M 24.6875 37.1875 L 29.53125 37.1875 L 29.53125 38.4375 L 27.875 38.4375 L 27.875 43.5625 L 29.53125 43.5625 L 29.53125 44.84375 L 24.6875 44.84375 L 24.6875 43.5625 L 26.34375 43.5625 L 26.34375 38.4375 L 24.6875 38.4375 L 24.6875 37.1875 z M 33.125 38.40625 C 33.03451 38.406256 32.883272 38.42922 32.71875 38.4375 C 32.562449 38.437507 32.465487 38.42094 32.375 38.4375 L 32.375 40.9375 L 32.96875 40.9375 C 33.454094 40.937504 33.81571 40.846139 34.0625 40.65625 C 34.309283 40.458113 34.437496 40.095591 34.4375 39.625 C 34.437496 39.179187 34.309283 38.869136 34.0625 38.6875 C 33.823936 38.49762 33.528081 38.406256 33.125 38.40625 z "
     id="path3067" />
</svg>
