<?xml version="1.0" encoding="UTF-8" standalone="no"?>
<svg
   xmlns:dc="http://purl.org/dc/elements/1.1/"
   xmlns:cc="http://creativecommons.org/ns#"
   xmlns:rdf="http://www.w3.org/1999/02/22-rdf-syntax-ns#"
   xmlns:svg="http://www.w3.org/2000/svg"
   xmlns="http://www.w3.org/2000/svg"
   xmlns:sodipodi="http://sodipodi.sourceforge.net/DTD/sodipodi-0.dtd"
   xmlns:inkscape="http://www.inkscape.org/namespaces/inkscape"
   width="48"
   viewBox="0 0 48 48"
   height="48"
   id="svg3053"
   version="1.1"
   inkscape:version="0.48.4 r9939"
   sodipodi:docname="application-font.svg">
  <metadata
     id="metadata3069">
    <rdf:RDF>
      <cc:Work
         rdf:about="">
        <dc:format>image/svg+xml</dc:format>
        <dc:type
           rdf:resource="http://purl.org/dc/dcmitype/StillImage" />
      </cc:Work>
    </rdf:RDF>
  </metadata>
  <defs
     id="defs3067" />
  <sodipodi:namedview
     pagecolor="#ffffff"
     bordercolor="#666666"
     borderopacity="1"
     objecttolerance="10"
     gridtolerance="10"
     guidetolerance="10"
     inkscape:pageopacity="0"
     inkscape:pageshadow="2"
     inkscape:window-width="640"
     inkscape:window-height="480"
     id="namedview3065"
     showgrid="false"
     inkscape:zoom="4.9166667"
     inkscape:cx="24"
     inkscape:cy="24"
     inkscape:window-x="0"
     inkscape:window-y="0"
     inkscape:window-maximized="0"
     inkscape:current-layer="svg3053" />
  <path
     style="fill:#888888"
     d="M 8 1 C 6.9714285 1 6 1.9714285 6 3 L 6 45 C 6 45.971429 7.0285714 47 8 47 L 40 47 C 40.971429 47 42 45.971429 42 45 L 42 14 L 29 1 L 8 1 z M 27.6875 15 L 28.15625 15 L 26.78125 31.25 C 26.71129 32.009434 26.687488 32.509676 26.6875 32.75 C 26.687488 33.134524 26.743838 33.454378 26.875 33.65625 C 27.041108 33.93503 27.282705 34.115418 27.5625 34.25 C 27.851012 34.384583 28.32676 34.468751 29 34.46875 L 28.84375 35 L 21.84375 35 L 22 34.46875 L 22.3125 34.46875 C 22.880799 34.468751 23.32902 34.331666 23.6875 34.0625 C 23.941042 33.879854 24.141349 33.579225 24.28125 33.15625 C 24.37742 32.858248 24.475058 32.168003 24.5625 31.0625 L 24.75 28.5625 L 19.6875 28.5625 L 17.875 31.25 C 17.464067 31.855626 17.198666 32.293337 17.09375 32.5625 C 16.988829 32.822054 16.937497 33.081789 16.9375 33.3125 C 16.937497 33.620119 17.053924 33.872651 17.28125 34.09375 C 17.508569 34.31485 17.881654 34.449524 18.40625 34.46875 L 18.25 35 L 13 35 L 13.15625 34.46875 C 13.803247 34.43991 14.354131 34.192201 14.84375 33.75 C 15.342111 33.298189 16.083262 32.336187 17.0625 30.875 L 27.6875 15 z M 25.5625 19.8125 L 20.40625 27.53125 L 24.875 27.53125 L 25.5625 19.8125 z "
     id="path3055" />
</svg>
