<?xml version="1.0" encoding="UTF-8" standalone="no"?>
<svg
   xmlns:dc="http://purl.org/dc/elements/1.1/"
   xmlns:cc="http://creativecommons.org/ns#"
   xmlns:rdf="http://www.w3.org/1999/02/22-rdf-syntax-ns#"
   xmlns:svg="http://www.w3.org/2000/svg"
   xmlns="http://www.w3.org/2000/svg"
   xmlns:sodipodi="http://sodipodi.sourceforge.net/DTD/sodipodi-0.dtd"
   xmlns:inkscape="http://www.inkscape.org/namespaces/inkscape"
   width="48"
   viewBox="0 0 48 48"
   height="48"
   id="svg3073"
   version="1.1"
   inkscape:version="0.48.4 r9939"
   sodipodi:docname="application-vnd.oasis.opendocument.master-document.svg">
  <metadata
     id="metadata3105">
    <rdf:RDF>
      <cc:Work
         rdf:about="">
        <dc:format>image/svg+xml</dc:format>
        <dc:type
           rdf:resource="http://purl.org/dc/dcmitype/StillImage" />
      </cc:Work>
    </rdf:RDF>
  </metadata>
  <defs
     id="defs3103" />
  <sodipodi:namedview
     pagecolor="#ffffff"
     bordercolor="#666666"
     borderopacity="1"
     objecttolerance="10"
     gridtolerance="10"
     guidetolerance="10"
     inkscape:pageopacity="0"
     inkscape:pageshadow="2"
     inkscape:window-width="640"
     inkscape:window-height="480"
     id="namedview3101"
     showgrid="false"
     inkscape:zoom="4.9166667"
     inkscape:cx="24"
     inkscape:cy="24"
     inkscape:window-x="0"
     inkscape:window-y="0"
     inkscape:window-maximized="0"
     inkscape:current-layer="svg3073" />
  <path
     style="fill:#3866a0"
     d="M 8 1 C 6.9714285 1 6 1.9714285 6 3 L 6 45 C 6 45.971429 7.0285714 47 8 47 L 40 47 C 40.971429 47 42 45.971429 42 45 L 42 14 L 29 1 L 8 1 z M 21 17 C 22 17 23 17 23 18 C 23 19 22 19 21 19 L 18 19 L 18 22 C 18 23 18 24 17 24 C 16 24 16 23 16 22 L 16 17.03125 C 17.999993 17.03125 19.000044 17.01247 21 17 z M 26.25 17 C 26.484375 16.984375 26.75 17 27 17 C 28.999956 17.01247 30.000007 17.03125 32 17.03125 L 32 22 C 32 23 32 24 31 24 C 30 24 30 23 30 22 L 30 19 L 27 19 C 26 19 25 19 25 18 C 25 17.25 25.546875 17.046875 26.25 17 z M 17 26 C 18 26 18 27 18 28 L 18 31 L 21 31 C 22 31 23 31 23 32 C 23 33 22 33 21 33 L 16.03125 33 C 16.03125 31.000007 16.01247 29.999956 16 28 C 16 27 16 26 17 26 z M 31 26 C 32 26 32 27 32 28 C 31.98753 29.999956 31.96875 31.000007 31.96875 33 L 27 33 C 26 33 25 33 25 32 C 25 31 26 31 27 31 L 30 31 L 30 28 C 30 27 30 26 31 26 z M 17.0625 37 C 18.06479 37.000008 18.850859 37.323021 19.375 38 C 19.89913 38.668737 20.156242 39.679056 20.15625 41 C 20.156242 42.320951 19.877075 43.323016 19.34375 44 C 18.810413 44.668731 18.068455 45 17.09375 45 C 16.091454 45 15.314579 44.668731 14.78125 44 C 14.257114 43.323016 14 42.320951 14 41 C 14 39.679056 14.269973 38.668737 14.8125 38 C 15.355025 37.323021 16.096983 37.000008 17.0625 37 z M 23.3125 37.09375 C 23.873415 37.093758 24.383978 37.16391 24.84375 37.3125 C 25.31271 37.461114 25.709407 37.678026 26.03125 38 C 26.353082 38.313731 26.606531 38.7234 26.78125 39.21875 C 26.965151 39.705854 27.062493 40.306506 27.0625 41 C 27.062493 41.710013 26.952292 42.30889 26.75 42.8125 C 26.556891 43.307857 26.286918 43.717526 25.9375 44.03125 C 25.58807 44.344976 25.174849 44.570143 24.6875 44.71875 C 24.209337 44.859101 23.673055 44.9375 23.09375 44.9375 C 22.7903 44.9375 22.48175 44.90803 22.1875 44.875 C 21.902442 44.85023 21.612282 44.816053 21.28125 44.75 L 21.28125 37.28125 C 21.667454 37.20695 22.00352 37.149775 22.34375 37.125 C 22.683977 37.10024 23.018246 37.09376 23.3125 37.09375 z M 28.25 37.1875 L 29.65625 37.1875 C 29.72062 37.360882 29.783045 37.571311 29.875 37.84375 C 29.976146 38.116202 30.077154 38.405031 30.1875 38.71875 C 30.297843 39.032481 30.420903 39.365524 30.53125 39.6875 C 30.641591 40.009486 30.742597 40.290058 30.84375 40.5625 C 30.954091 40.257035 31.067956 39.946987 31.1875 39.625 C 31.307035 39.294768 31.420901 38.98472 31.53125 38.6875 C 31.64159 38.382037 31.751793 38.107947 31.84375 37.84375 C 31.9357 37.579568 32.020182 37.360882 32.09375 37.1875 L 33.5 37.1875 C 33.56437 37.856237 33.601071 38.4893 33.65625 39.125 C 33.72061 39.760712 33.775712 40.403803 33.8125 41.03125 C 33.85847 41.650447 33.909906 42.270547 33.9375 42.90625 C 33.96508 43.533703 33.98159 44.183276 34 44.84375 L 32.4375 44.84375 L 32.53125 38.875 L 31.46875 42.125 L 30.21875 42.125 L 29.21875 38.875 L 29.28125 44.84375 L 27.75 44.84375 C 27.77759 44.2163 27.78491 43.551988 27.8125 42.875 C 27.84928 42.198017 27.900716 41.543734 27.9375 40.875 C 27.97428 40.206274 28.016522 39.533706 28.0625 38.90625 C 28.11767 38.278806 28.185631 37.724143 28.25 37.1875 z M 17.0625 38.3125 C 16.768244 38.312507 16.549709 38.390903 16.375 38.53125 C 16.200286 38.671607 16.069896 38.877328 15.96875 39.125 C 15.8768 39.364428 15.78678 39.646774 15.75 39.96875 C 15.72241 40.290736 15.71875 40.628487 15.71875 41 C 15.718748 41.37152 15.72241 41.732266 15.75 42.0625 C 15.78678 42.384484 15.876792 42.66683 15.96875 42.90625 C 16.069896 43.145673 16.200286 43.3284 16.375 43.46875 C 16.549709 43.609102 16.768244 43.687501 17.0625 43.6875 C 17.347552 43.687501 17.575284 43.609106 17.75 43.46875 C 17.933903 43.3284 18.095541 43.145673 18.1875 42.90625 C 18.288646 42.658574 18.34741 42.353234 18.375 42.03125 C 18.41178 41.709272 18.43749 41.37152 18.4375 41 C 18.437495 40.628487 18.41178 40.290736 18.375 39.96875 C 18.34741 39.638519 18.288652 39.333177 18.1875 39.09375 C 18.09555 38.854334 17.955957 38.671607 17.78125 38.53125 C 17.606534 38.390905 17.356748 38.312507 17.0625 38.3125 z M 23.46875 38.40625 C 23.39518 38.406255 23.3107 38.42932 23.21875 38.4375 C 23.1268 38.437507 23.042311 38.42093 22.96875 38.4375 L 22.96875 43.59375 C 23.01472 43.60195 23.069816 43.625 23.125 43.625 L 23.28125 43.625 C 23.667452 43.625002 23.992527 43.538352 24.25 43.40625 C 24.516662 43.274157 24.718675 43.106168 24.875 42.875 C 25.040512 42.643836 25.154378 42.376229 25.21875 42.0625 C 25.29231 41.740523 25.312495 41.379776 25.3125 41 C 25.312495 40.669767 25.30517 40.344979 25.25 40.03125 C 25.19482 39.71753 25.075425 39.458177 24.9375 39.21875 C 24.799565 38.979334 24.614076 38.765357 24.375 38.625 C 24.135916 38.476399 23.845758 38.406255 23.46875 38.40625 z "
     id="path3075" />
</svg>
