<?xml version="1.0" encoding="UTF-8" standalone="no"?>
<svg
   xmlns:dc="http://purl.org/dc/elements/1.1/"
   xmlns:cc="http://creativecommons.org/ns#"
   xmlns:rdf="http://www.w3.org/1999/02/22-rdf-syntax-ns#"
   xmlns:svg="http://www.w3.org/2000/svg"
   xmlns="http://www.w3.org/2000/svg"
   xmlns:sodipodi="http://sodipodi.sourceforge.net/DTD/sodipodi-0.dtd"
   xmlns:inkscape="http://www.inkscape.org/namespaces/inkscape"
   width="48"
   viewBox="0 0 48 48"
   height="48"
   id="svg2"
   version="1.1"
   inkscape:version="0.48.4 r9939"
   sodipodi:docname="application-x-tha.svg">
  <metadata
     id="metadata30">
    <rdf:RDF>
      <cc:Work
         rdf:about="">
        <dc:format>image/svg+xml</dc:format>
        <dc:type
           rdf:resource="http://purl.org/dc/dcmitype/StillImage" />
      </cc:Work>
    </rdf:RDF>
  </metadata>
  <defs
     id="defs28" />
  <sodipodi:namedview
     pagecolor="#ffffff"
     bordercolor="#666666"
     borderopacity="1"
     objecttolerance="10"
     gridtolerance="10"
     guidetolerance="10"
     inkscape:pageopacity="0"
     inkscape:pageshadow="2"
     inkscape:window-width="640"
     inkscape:window-height="480"
     id="namedview26"
     showgrid="false"
     inkscape:zoom="4.9166667"
     inkscape:cx="24"
     inkscape:cy="24"
     inkscape:window-x="0"
     inkscape:window-y="0"
     inkscape:window-maximized="0"
     inkscape:current-layer="svg2" />
  <path
     style="fill:#c19553"
     d="M 8 1 C 6.9714285 1 6 1.9714285 6 3 L 6 45 C 6 45.971429 7.0285714 47 8 47 L 40 47 C 40.971429 47 42 45.971429 42 45 L 42 14 L 29 1 L 22 1 L 22 5 L 18 5 L 18 9 L 22 9 L 22 13 L 18 13 L 18 17 L 22 17 L 22 21 L 18 21 L 18 17 L 14 17 L 14 13 L 18 13 L 18 9 L 14 9 L 14 5 L 18 5 L 18 1 L 8 1 z M 14 23 L 18 23 L 22 23 L 22 31 L 14 31 L 14 23 z M 14 37 L 20.125 37 L 20.125 38.3125 L 17.90625 38.3125 L 17.90625 45 L 16.21875 45 L 16.21875 38.3125 L 14 38.3125 L 14 37 z M 21.09375 37 L 22.78125 37 L 22.78125 40.15625 L 25 40.15625 L 25 37 L 26.6875 37 L 26.6875 45 L 25 45 L 25 41.46875 L 22.78125 41.46875 L 22.78125 45 L 21.09375 45 L 21.09375 37 z M 29.8125 37 L 31.65625 37 C 32.056427 38.171787 32.452659 39.431752 32.84375 40.75 C 33.243925 42.059641 33.627097 43.466347 34 45 L 32.1875 45 L 31.8125 43.15625 L 29.5625 43.15625 L 29.15625 45 L 27.4375 45 C 27.837682 43.423267 28.215722 41.979909 28.625 40.6875 C 29.034275 39.386484 29.430507 38.163172 29.8125 37 z M 30.6875 38.5625 C 30.59654 38.864067 30.519351 39.130542 30.4375 39.40625 L 30.21875 40.21875 C 30.15508 40.477236 30.094912 40.732908 30.03125 41 C 29.97667 41.267101 29.929567 41.559423 29.875 41.84375 L 31.53125 41.84375 C 31.47667 41.559423 31.398315 41.267101 31.34375 41 C 31.28917 40.732908 31.229006 40.477236 31.15625 40.21875 C 31.09258 39.951658 31.019352 39.673352 30.9375 39.40625 C 30.86474 39.130542 30.778447 38.864067 30.6875 38.5625 z "
     id="path4" />
</svg>
