<?xml version="1.0" encoding="UTF-8" standalone="no"?>
<svg
   xmlns:dc="http://purl.org/dc/elements/1.1/"
   xmlns:cc="http://creativecommons.org/ns#"
   xmlns:rdf="http://www.w3.org/1999/02/22-rdf-syntax-ns#"
   xmlns:svg="http://www.w3.org/2000/svg"
   xmlns="http://www.w3.org/2000/svg"
   xmlns:sodipodi="http://sodipodi.sourceforge.net/DTD/sodipodi-0.dtd"
   xmlns:inkscape="http://www.inkscape.org/namespaces/inkscape"
   width="48"
   viewBox="0 0 48 48"
   height="48"
   id="svg3007"
   version="1.1"
   inkscape:version="0.48.4 r9939"
   sodipodi:docname="application-torrent.svg">
  <metadata
     id="metadata3021">
    <rdf:RDF>
      <cc:Work
         rdf:about="">
        <dc:format>image/svg+xml</dc:format>
        <dc:type
           rdf:resource="http://purl.org/dc/dcmitype/StillImage" />
      </cc:Work>
    </rdf:RDF>
  </metadata>
  <defs
     id="defs3019" />
  <sodipodi:namedview
     pagecolor="#ffffff"
     bordercolor="#666666"
     borderopacity="1"
     objecttolerance="10"
     gridtolerance="10"
     guidetolerance="10"
     inkscape:pageopacity="0"
     inkscape:pageshadow="2"
     inkscape:window-width="640"
     inkscape:window-height="480"
     id="namedview3017"
     showgrid="false"
     inkscape:zoom="4.9166667"
     inkscape:cx="24"
     inkscape:cy="24"
     inkscape:window-x="0"
     inkscape:window-y="0"
     inkscape:window-maximized="0"
     inkscape:current-layer="svg3007" />
  <path
     style="fill:#00853e"
     d="M 8 1 C 6.9714285 1 6 1.9714285 6 3 L 6 45 C 6 45.971429 7.0285714 47 8 47 L 40 47 C 40.971429 47 42 45.971429 42 45 L 42 14 L 29 1 L 8 1 z M 23.40625 16.03125 C 24.604287 15.944763 25.823039 16.091755 26.96875 16.5 C 30.873052 17.891211 33.379569 21.834772 32.9375 25.96875 C 32.831615 26.958931 32.584524 27.870144 32.1875 28.78125 L 31.84375 29.4375 C 31.802485 29.509534 31.76918 29.62182 31.6875 29.65625 C 31.484134 29.74197 31.095669 29.6875 30.875 29.6875 L 28.96875 29.6875 L 25.21875 29.6875 C 24.540634 29.6875 23.806669 29.787804 23.15625 29.5625 C 21.809805 29.096075 21.106497 27.500198 21.65625 26.1875 C 22.093932 25.142452 23.187298 24.517919 24.3125 24.65625 C 24.576436 24.688706 24.850851 24.76835 25.09375 24.875 C 25.403653 25.011028 25.684924 25.197065 25.96875 24.875 C 26.163195 24.654229 26.127785 24.348591 25.90625 24.15625 C 25.593928 23.885068 25.115853 23.73736 24.71875 23.65625 C 24.317947 23.57446 23.87285 23.55334 23.46875 23.625 C 21.130022 24.039619 19.739014 26.60074 20.8125 28.75 C 20.989665 29.104657 21.208118 29.447726 21.5 29.71875 C 22.062185 30.240796 22.768624 30.608162 23.53125 30.71875 C 24.176662 30.81235 24.848445 30.75 25.5 30.75 L 30.90625 30.75 C 30.774805 31.060816 30.421782 31.296766 30.1875 31.53125 C 30.092247 31.626572 30.005545 31.76581 29.875 31.8125 C 29.704428 31.87347 29.430416 31.84375 29.25 31.84375 L 27.90625 31.84375 L 24.9375 31.84375 C 24.221392 31.84375 23.511777 31.872203 22.8125 31.6875 C 22.02509 31.479521 21.317835 31.076605 20.71875 30.53125 C 18.38991 28.411352 19.124581 24.225774 21.96875 22.9375 C 22.74086 22.587827 23.471439 22.48988 24.3125 22.5 C 24.598903 22.50348 24.93804 22.64303 25.21875 22.59375 C 25.515007 22.541764 25.727825 22.194183 25.625 21.90625 C 25.424536 21.344866 24.415513 21.4375 23.9375 21.4375 C 22.188339 21.4375 20.542158 22.319892 19.46875 23.6875 C 17.714212 25.922891 17.966885 29.126476 19.90625 31.15625 C 20.491138 31.768397 21.244988 32.227297 22.03125 32.53125 C 22.992203 32.902757 23.957184 32.90625 24.96875 32.90625 L 28.3125 32.90625 C 28.122982 33.127594 27.672931 33.235975 27.40625 33.34375 C 26.551273 33.689441 25.638493 33.90417 24.71875 33.96875 C 23.413311 34.060359 22.117805 33.87209 20.9375 33.28125 C 18.131503 31.876584 16.696729 28.69794 17.34375 25.65625 C 17.800073 23.510927 19.364929 21.688244 21.375 20.84375 C 22.072298 20.550811 22.78173 20.41519 23.53125 20.34375 C 23.879067 20.310607 24.273382 20.382084 24.46875 20 C 24.613537 19.716859 24.447163 19.38115 24.15625 19.28125 C 24.031836 19.23861 23.879656 19.28125 23.75 19.28125 C 22.83371 19.28125 21.874483 19.489791 21.03125 19.84375 C 18.220449 21.02372 16.125 23.870247 16.125 26.96875 C 16.125 27.69531 16.19752 28.417576 16.375 29.125 C 16.3966 29.211355 16.601836 29.75311 16.34375 29.65625 C 16.223769 29.611227 16.15315 29.3861 16.09375 29.28125 C 15.868885 28.884889 15.692226 28.456445 15.53125 28.03125 C 14.824579 26.164208 14.83312 23.869315 15.53125 22 C 16.055466 20.59638 16.853661 19.322572 17.96875 18.3125 C 19.465886 16.956352 21.409522 16.175394 23.40625 16.03125 z "
     id="path3009" />
</svg>
