<?xml version="1.0" encoding="UTF-8" standalone="no"?>
<svg
   xmlns:dc="http://purl.org/dc/elements/1.1/"
   xmlns:cc="http://creativecommons.org/ns#"
   xmlns:rdf="http://www.w3.org/1999/02/22-rdf-syntax-ns#"
   xmlns:svg="http://www.w3.org/2000/svg"
   xmlns="http://www.w3.org/2000/svg"
   xmlns:sodipodi="http://sodipodi.sourceforge.net/DTD/sodipodi-0.dtd"
   xmlns:inkscape="http://www.inkscape.org/namespaces/inkscape"
   width="48"
   viewBox="0 0 48 48"
   height="48"
   id="svg3051"
   version="1.1"
   inkscape:version="0.48.4 r9939"
   sodipodi:docname="application-word.svg">
  <metadata
     id="metadata3083">
    <rdf:RDF>
      <cc:Work
         rdf:about="">
        <dc:format>image/svg+xml</dc:format>
        <dc:type
           rdf:resource="http://purl.org/dc/dcmitype/StillImage" />
      </cc:Work>
    </rdf:RDF>
  </metadata>
  <defs
     id="defs3081" />
  <sodipodi:namedview
     pagecolor="#ffffff"
     bordercolor="#666666"
     borderopacity="1"
     objecttolerance="10"
     gridtolerance="10"
     guidetolerance="10"
     inkscape:pageopacity="0"
     inkscape:pageshadow="2"
     inkscape:window-width="1280"
     inkscape:window-height="998"
     id="namedview3079"
     showgrid="false"
     inkscape:zoom="3.4766083"
     inkscape:cx="9.9647522"
     inkscape:cy="-5.3277123"
     inkscape:window-x="0"
     inkscape:window-y="0"
     inkscape:window-maximized="1"
     inkscape:current-layer="svg3051" />
  <path
     style="fill:#3468ce"
     d="M 8 1 C 6.9714285 1 6 1.9714285 6 3 L 6 45 C 6 45.971429 7.0285714 47 8 47 L 40 47 C 40.971429 47 42 45.971429 42 45 L 42 14 L 29 1 L 8 1 z M 16.09375 18 L 22.90625 18 C 23.227016 18 23.5 18.260796 23.5 18.59375 L 23.5 24.40625 C 23.5 24.739204 23.227016 25 22.90625 25 L 16.09375 25 C 15.772984 25 15.5 24.739204 15.5 24.40625 L 15.5 18.59375 C 15.5 18.260796 15.772984 18 16.09375 18 z M 25.75 18 A 0.5118231 0.5118231 0 0 1 25.78125 18 A 0.50606671 0.50606671 0 0 1 25.84375 18 A 0.50219246 0.50219246 0 0 1 25.90625 18 A 0.50005 0.50005 0 0 1 26 18 L 31 18 A 0.50005 0.50005 0 1 1 31 19 L 26 19 A 0.5118231 0.5118231 0 0 1 25.75 18 z M 25.75 21 A 0.5118231 0.5118231 0 0 1 25.78125 21 A 0.50606671 0.50606671 0 0 1 25.84375 21 A 0.50219246 0.50219246 0 0 1 25.90625 21 A 0.50005 0.50005 0 0 1 26 21 L 31 21 A 0.50005 0.50005 0 1 1 31 22 L 26 22 A 0.5118231 0.5118231 0 0 1 25.75 21 z M 25.75 24 A 0.5118231 0.5118231 0 0 1 25.78125 24 A 0.50606671 0.50606671 0 0 1 25.84375 24 A 0.50219246 0.50219246 0 0 1 25.90625 24 A 0.50005 0.50005 0 0 1 26 24 L 31 24 A 0.50005 0.50005 0 1 1 31 25 L 26 25 A 0.5118231 0.5118231 0 0 1 25.75 24 z M 15.25 27 A 0.5118231 0.5118231 0 0 1 15.28125 27 A 0.50606671 0.50606671 0 0 1 15.34375 27 A 0.50219246 0.50219246 0 0 1 15.40625 27 A 0.50005 0.50005 0 0 1 15.5 27 L 31.5 27 A 0.50005 0.50005 0 1 1 31.5 28 L 15.5 28 A 0.5118231 0.5118231 0 0 1 15.25 27 z M 15.25 30 A 0.5118231 0.5118231 0 0 1 15.28125 30 A 0.50606671 0.50606671 0 0 1 15.34375 30 A 0.50219246 0.50219246 0 0 1 15.40625 30 A 0.50005 0.50005 0 0 1 15.5 30 L 31.5 30 A 0.50005 0.50005 0 1 1 31.5 31 L 15.5 31 A 0.5118231 0.5118231 0 0 1 15.25 30 z M 15.25 33 A 0.5118231 0.5118231 0 0 1 15.28125 33 A 0.50606671 0.50606671 0 0 1 15.34375 33 A 0.50219246 0.50219246 0 0 1 15.40625 33 A 0.50005 0.50005 0 0 1 15.5 33 L 31.5 33 A 0.50005 0.50005 0 1 1 31.5 34 L 15.5 34 A 0.5118231 0.5118231 0 0 1 15.25 33 z "
     id="path3053" />
</svg>
