<?xml version="1.0" encoding="UTF-8" standalone="no"?>
<svg
   xmlns:dc="http://purl.org/dc/elements/1.1/"
   xmlns:cc="http://creativecommons.org/ns#"
   xmlns:rdf="http://www.w3.org/1999/02/22-rdf-syntax-ns#"
   xmlns:svg="http://www.w3.org/2000/svg"
   xmlns="http://www.w3.org/2000/svg"
   xmlns:sodipodi="http://sodipodi.sourceforge.net/DTD/sodipodi-0.dtd"
   xmlns:inkscape="http://www.inkscape.org/namespaces/inkscape"
   width="48"
   viewBox="0 0 48 48"
   height="48"
   id="svg3081"
   version="1.1"
   inkscape:version="0.48.4 r9939"
   sodipodi:docname="application-rss.svg">
  <metadata
     id="metadata3095">
    <rdf:RDF>
      <cc:Work
         rdf:about="">
        <dc:format>image/svg+xml</dc:format>
        <dc:type
           rdf:resource="http://purl.org/dc/dcmitype/StillImage" />
      </cc:Work>
    </rdf:RDF>
  </metadata>
  <defs
     id="defs3093" />
  <sodipodi:namedview
     pagecolor="#ffffff"
     bordercolor="#666666"
     borderopacity="1"
     objecttolerance="10"
     gridtolerance="10"
     guidetolerance="10"
     inkscape:pageopacity="0"
     inkscape:pageshadow="2"
     inkscape:window-width="640"
     inkscape:window-height="480"
     id="namedview3091"
     showgrid="false"
     inkscape:zoom="4.9166667"
     inkscape:cx="24"
     inkscape:cy="24"
     inkscape:window-x="0"
     inkscape:window-y="0"
     inkscape:window-maximized="0"
     inkscape:current-layer="svg3081" />
  <path
     style="fill:#ff6501"
     d="M 8 1 C 6.9714285 1 6 1.9714285 6 3 L 6 45 C 6 45.971429 7.0285714 47 8 47 L 40 47 C 40.971429 47 42 45.971429 42 45 L 42 14 L 29 1 L 8 1 z M 14 14 C 25.028173 14 34.000049 22.960341 34 34 L 29.96875 34 C 29.96875 25.181335 22.810672 18 14 18 L 14 14 z M 14 21.9375 C 20.647038 21.9375 26.0625 27.342618 26.0625 34 L 22.40625 34 C 22.40625 29.352361 18.640472 25.5625 14 25.5625 L 14 21.9375 z M 16.3125 29.625 C 16.910709 29.625016 17.427291 29.825568 17.84375 30.25 C 18.267798 30.666877 18.46875 31.198581 18.46875 31.8125 C 18.46875 32.41129 18.267798 32.919276 17.84375 33.34375 C 17.427265 33.760627 16.910697 33.968763 16.3125 33.96875 C 15.699143 33.968763 15.174086 33.760627 14.75 33.34375 C 14.325966 32.926901 14.125 32.418901 14.125 31.8125 C 14.125 31.198594 14.325966 30.666889 14.75 30.25 C 15.17406 29.82558 15.699117 29.625014 16.3125 29.625 z "
     id="path3083" />
</svg>
