<?xml version="1.0" encoding="UTF-8" standalone="no"?>
<svg
   xmlns:dc="http://purl.org/dc/elements/1.1/"
   xmlns:cc="http://creativecommons.org/ns#"
   xmlns:rdf="http://www.w3.org/1999/02/22-rdf-syntax-ns#"
   xmlns:svg="http://www.w3.org/2000/svg"
   xmlns="http://www.w3.org/2000/svg"
   xmlns:sodipodi="http://sodipodi.sourceforge.net/DTD/sodipodi-0.dtd"
   xmlns:inkscape="http://www.inkscape.org/namespaces/inkscape"
   width="48"
   viewBox="0 0 48 48"
   height="48"
   id="svg3039"
   version="1.1"
   inkscape:version="0.48.4 r9939"
   sodipodi:docname="application-database.svg">
  <metadata
     id="metadata3059">
    <rdf:RDF>
      <cc:Work
         rdf:about="">
        <dc:format>image/svg+xml</dc:format>
        <dc:type
           rdf:resource="http://purl.org/dc/dcmitype/StillImage" />
      </cc:Work>
    </rdf:RDF>
  </metadata>
  <defs
     id="defs3057" />
  <sodipodi:namedview
     pagecolor="#ffffff"
     bordercolor="#666666"
     borderopacity="1"
     objecttolerance="10"
     gridtolerance="10"
     guidetolerance="10"
     inkscape:pageopacity="0"
     inkscape:pageshadow="2"
     inkscape:window-width="640"
     inkscape:window-height="480"
     id="namedview3055"
     showgrid="false"
     inkscape:zoom="4.9166667"
     inkscape:cx="24"
     inkscape:cy="24"
     inkscape:window-x="0"
     inkscape:window-y="0"
     inkscape:window-maximized="0"
     inkscape:current-layer="svg3039" />
  <path
     style="fill:#a4373a"
     d="M 8 1 C 6.9714285 1 6 1.9714285 6 3 L 6 45 C 6 45.971429 7.0285714 47 8 47 L 40 47 C 40.971429 47 42 45.971429 42 45 L 42 14 L 29 1 L 8 1 z M 24 18 C 28.418213 18 32 19.119273 32 20.5 L 32 22.5 C 32 23.880697 28.418213 25 24 25 C 19.581662 25 16 23.880697 16 22.5 L 16 20.5 C 16 19.119273 19.581757 18 24 18 z M 16.34375 24.25 C 17.363109 25.264265 20.386712 26 23.96875 26 C 27.550787 26 30.605674 25.264265 31.625 24.25 C 31.862966 24.486777 32 24.738723 32 25 L 32 27 C 32 28.380728 28.418213 29.5 24 29.5 C 19.581662 29.5 16 28.380728 16 27 L 16 25 C 16 24.738723 16.105785 24.486777 16.34375 24.25 z M 16.34375 28.75 C 17.363109 29.764234 20.386712 30.5 23.96875 30.5 C 27.550787 30.5 30.605674 29.764234 31.625 28.75 C 31.862966 28.986746 32 29.238723 32 29.5 L 32 31.5 C 32 32.880697 28.418213 34 24 34 C 19.581662 34 16 32.880697 16 31.5 L 16 29.5 C 16 29.238723 16.105785 28.986746 16.34375 28.75 z "
     id="path3041" />
</svg>
