<?xml version="1.0" encoding="UTF-8" standalone="no"?>
<svg
   xmlns:dc="http://purl.org/dc/elements/1.1/"
   xmlns:cc="http://creativecommons.org/ns#"
   xmlns:rdf="http://www.w3.org/1999/02/22-rdf-syntax-ns#"
   xmlns:svg="http://www.w3.org/2000/svg"
   xmlns="http://www.w3.org/2000/svg"
   xmlns:sodipodi="http://sodipodi.sourceforge.net/DTD/sodipodi-0.dtd"
   xmlns:inkscape="http://www.inkscape.org/namespaces/inkscape"
   width="48"
   viewBox="0 0 48 48"
   height="48"
   id="svg2999"
   version="1.1"
   inkscape:version="0.48.4 r9939"
   sodipodi:docname="application-vnd.oasis.opendocument.formula.svg">
  <metadata
     id="metadata3025">
    <rdf:RDF>
      <cc:Work
         rdf:about="">
        <dc:format>image/svg+xml</dc:format>
        <dc:type
           rdf:resource="http://purl.org/dc/dcmitype/StillImage" />
      </cc:Work>
    </rdf:RDF>
  </metadata>
  <defs
     id="defs3023" />
  <sodipodi:namedview
     pagecolor="#ffffff"
     bordercolor="#666666"
     borderopacity="1"
     objecttolerance="10"
     gridtolerance="10"
     guidetolerance="10"
     inkscape:pageopacity="0"
     inkscape:pageshadow="2"
     inkscape:window-width="640"
     inkscape:window-height="480"
     id="namedview3021"
     showgrid="false"
     inkscape:zoom="4.9166667"
     inkscape:cx="24"
     inkscape:cy="24"
     inkscape:window-x="0"
     inkscape:window-y="0"
     inkscape:window-maximized="0"
     inkscape:current-layer="svg2999" />
  <path
     style="fill:#795a8b"
     d="M 8 1 C 6.9714285 1 6 1.9714285 6 3 L 6 45 C 6 45.971429 7.0285714 47 8 47 L 40 47 C 40.971429 47 42 45.971429 42 45 L 42 14 L 29 1 L 8 1 z M 18 18 L 33 18 L 33 20 L 20 20 L 20 33 L 18 33 L 15 28 L 18 28 L 18 18 z M 23.78125 21.28125 L 27.375 25 L 30.9375 21.28125 L 33 23.40625 L 29.40625 27.125 L 33 30.875 L 30.9375 33 L 27.375 29.28125 L 23.78125 33 L 21.75 30.875 L 25.3125 27.125 L 21.75 23.40625 L 23.78125 21.28125 z M 17.15625 37 C 18.183335 37.000008 18.962893 37.323024 19.5 38 C 20.037096 38.668733 20.312494 39.679062 20.3125 41 C 20.312494 42.320946 20.015268 43.323017 19.46875 44 C 18.92222 44.668727 18.155067 45 17.15625 45 C 16.129158 45 15.359023 44.668727 14.8125 44 C 14.275398 43.323017 14 42.320946 14 41 C 14 39.679062 14.287802 38.668733 14.84375 38 C 15.399696 37.323024 16.16685 37.000008 17.15625 37 z M 23.53125 37.09375 C 24.10604 37.093758 24.653855 37.163901 25.125 37.3125 C 25.60556 37.461113 25.982696 37.678027 26.3125 38 C 26.642294 38.31373 26.91471 38.723403 27.09375 39.21875 C 27.2822 39.705853 27.374994 40.30651 27.375 41 C 27.374994 41.71001 27.269796 42.308892 27.0625 42.8125 C 26.864614 43.307854 26.576812 43.717527 26.21875 44.03125 C 25.860676 44.344974 25.436906 44.570144 24.9375 44.71875 C 24.447509 44.8591 23.906136 44.9375 23.3125 44.9375 C 23.001544 44.9375 22.707779 44.90802 22.40625 44.875 C 22.11414 44.85023 21.776721 44.816052 21.4375 44.75 L 21.4375 37.28125 C 21.833258 37.20696 22.213854 37.149775 22.5625 37.125 C 22.911143 37.10024 23.229717 37.09376 23.53125 37.09375 z M 28.65625 37.1875 L 34 37.1875 L 34 38.4375 L 30.375 38.4375 L 30.375 40.28125 L 33.5625 40.28125 L 33.5625 41.5625 L 30.375 41.5625 L 30.375 44.84375 L 28.65625 44.84375 L 28.65625 37.1875 z M 17.15625 38.3125 C 16.854716 38.312506 16.616532 38.390905 16.4375 38.53125 C 16.258464 38.671606 16.103648 38.877329 16 39.125 C 15.90578 39.364426 15.850189 39.646775 15.8125 39.96875 C 15.78423 40.290734 15.78125 40.62849 15.78125 41 C 15.781248 41.371519 15.78423 41.732267 15.8125 42.0625 C 15.85019 42.384482 15.90577 42.666831 16 42.90625 C 16.103648 43.145672 16.258464 43.328402 16.4375 43.46875 C 16.616532 43.609102 16.854716 43.687501 17.15625 43.6875 C 17.448354 43.687501 17.664712 43.609106 17.84375 43.46875 C 18.032203 43.328402 18.187016 43.145672 18.28125 42.90625 C 18.384896 42.658575 18.440477 42.353232 18.46875 42.03125 C 18.50644 41.709273 18.53124 41.371519 18.53125 41 C 18.531245 40.62849 18.50644 40.290734 18.46875 39.96875 C 18.44047 39.638519 18.384889 39.333176 18.28125 39.09375 C 18.18701 38.854335 18.05403 38.671606 17.875 38.53125 C 17.695962 38.390906 17.457777 38.312506 17.15625 38.3125 z M 23.6875 38.40625 C 23.61211 38.406256 23.531726 38.42932 23.4375 38.4375 C 23.34327 38.437506 23.26288 38.42093 23.1875 38.4375 L 23.1875 43.59375 C 23.23461 43.60195 23.287213 43.625 23.34375 43.625 L 23.5 43.625 C 23.895757 43.625 24.236156 43.538352 24.5 43.40625 C 24.773258 43.274157 24.964807 43.106167 25.125 42.875 C 25.294607 42.643837 25.434036 42.376226 25.5 42.0625 C 25.57538 41.740522 25.593745 41.379775 25.59375 41 C 25.593745 40.669768 25.58777 40.344978 25.53125 40.03125 C 25.4747 39.717531 25.360089 39.458177 25.21875 39.21875 C 25.077404 38.979335 24.90124 38.765356 24.65625 38.625 C 24.411252 38.4764 24.073834 38.406256 23.6875 38.40625 z "
     id="path3001" />
</svg>
