<?xml version="1.0" encoding="UTF-8" standalone="no"?>
<svg
   xmlns:dc="http://purl.org/dc/elements/1.1/"
   xmlns:cc="http://creativecommons.org/ns#"
   xmlns:rdf="http://www.w3.org/1999/02/22-rdf-syntax-ns#"
   xmlns:svg="http://www.w3.org/2000/svg"
   xmlns="http://www.w3.org/2000/svg"
   xmlns:sodipodi="http://sodipodi.sourceforge.net/DTD/sodipodi-0.dtd"
   xmlns:inkscape="http://www.inkscape.org/namespaces/inkscape"
   width="48"
   viewBox="0 0 48 48"
   height="48"
   id="svg3115"
   version="1.1"
   inkscape:version="0.48.4 r9939"
   sodipodi:docname="application-x-7z-compressed.svg">
  <metadata
     id="metadata3141">
    <rdf:RDF>
      <cc:Work
         rdf:about="">
        <dc:format>image/svg+xml</dc:format>
        <dc:type
           rdf:resource="http://purl.org/dc/dcmitype/StillImage" />
      </cc:Work>
    </rdf:RDF>
  </metadata>
  <defs
     id="defs3139" />
  <sodipodi:namedview
     pagecolor="#ffffff"
     bordercolor="#666666"
     borderopacity="1"
     objecttolerance="10"
     gridtolerance="10"
     guidetolerance="10"
     inkscape:pageopacity="0"
     inkscape:pageshadow="2"
     inkscape:window-width="672"
     inkscape:window-height="480"
     id="namedview3137"
     showgrid="false"
     inkscape:zoom="4.9166667"
     inkscape:cx="57.966102"
     inkscape:cy="24"
     inkscape:window-x="0"
     inkscape:window-y="0"
     inkscape:window-maximized="0"
     inkscape:current-layer="svg3115" />
  <path
     style="fill:#c19553"
     d="M 8 1 C 6.9714285 1 6 1.9714285 6 3 L 6 45 C 6 45.971429 7.0285714 47 8 47 L 40 47 C 40.971429 47 42 45.971429 42 45 L 42 14 L 29 1 L 22 1 L 22 5 L 18 5 L 18 9 L 22 9 L 22 13 L 18 13 L 18 17 L 22 17 L 22 21 L 18 21 L 18 17 L 14 17 L 14 13 L 18 13 L 18 9 L 14 9 L 14 5 L 18 5 L 18 1 L 8 1 z M 14 23 L 18 23 L 22 23 L 22 31 L 14 31 L 14 23 z M 17 37 L 23.25 37 L 23.25 38.1875 C 22.97154 38.454605 22.673763 38.830008 22.34375 39.3125 C 22.013725 39.795005 21.705325 40.357014 21.40625 40.96875 C 21.117478 41.580493 20.851883 42.239603 20.625 42.9375 C 20.40842 43.626787 20.270312 44.310717 20.21875 45 L 18.28125 45 C 18.31219 44.448573 18.408112 43.861741 18.59375 43.25 C 18.779384 42.629646 19.02342 42.009376 19.28125 41.40625 C 19.549388 40.80313 19.815603 40.25295 20.125 39.71875 C 20.434388 39.175944 20.752792 38.700229 21.03125 38.3125 L 17 38.3125 L 17 37 z M 24.875 37 L 30.875 37 L 30.875 38.125 C 30.43153 38.693666 29.996265 39.219024 29.625 39.71875 C 29.253723 40.218485 28.913451 40.699604 28.59375 41.15625 C 28.274039 41.604289 27.976263 42.046567 27.6875 42.46875 C 27.409042 42.882323 27.132824 43.282546 26.875 43.6875 L 31 43.6875 L 31 45 L 24.6875 45 L 24.6875 44.09375 C 24.914388 43.723261 25.148421 43.311206 25.40625 42.90625 C 25.664075 42.492681 25.961543 42.059019 26.28125 41.59375 C 26.600954 41.128487 26.941225 40.636566 27.3125 40.09375 C 27.69408 39.550944 28.10872 38.950095 28.5625 38.3125 L 24.875 38.3125 L 24.875 37 z "
     id="path3117" />
</svg>
