<?xml version="1.0" encoding="UTF-8" standalone="no"?>
<svg
   xmlns:dc="http://purl.org/dc/elements/1.1/"
   xmlns:cc="http://creativecommons.org/ns#"
   xmlns:rdf="http://www.w3.org/1999/02/22-rdf-syntax-ns#"
   xmlns:svg="http://www.w3.org/2000/svg"
   xmlns="http://www.w3.org/2000/svg"
   xmlns:sodipodi="http://sodipodi.sourceforge.net/DTD/sodipodi-0.dtd"
   xmlns:inkscape="http://www.inkscape.org/namespaces/inkscape"
   width="48"
   viewBox="0 0 48 48"
   height="48"
   id="svg3007"
   version="1.1"
   inkscape:version="0.48.4 r9939"
   sodipodi:docname="application-image-gif.svg">
  <metadata
     id="metadata3035">
    <rdf:RDF>
      <cc:Work
         rdf:about="">
        <dc:format>image/svg+xml</dc:format>
        <dc:type
           rdf:resource="http://purl.org/dc/dcmitype/StillImage" />
      </cc:Work>
    </rdf:RDF>
  </metadata>
  <defs
     id="defs3033" />
  <sodipodi:namedview
     pagecolor="#ffffff"
     bordercolor="#666666"
     borderopacity="1"
     objecttolerance="10"
     gridtolerance="10"
     guidetolerance="10"
     inkscape:pageopacity="0"
     inkscape:pageshadow="2"
     inkscape:window-width="640"
     inkscape:window-height="480"
     id="namedview3031"
     showgrid="false"
     inkscape:zoom="4.9166667"
     inkscape:cx="24"
     inkscape:cy="24"
     inkscape:window-x="0"
     inkscape:window-y="0"
     inkscape:window-maximized="0"
     inkscape:current-layer="svg3007" />
  <path
     style="fill:#39a34f"
     d="M 8 1 C 6.9714285 1 6 1.9714285 6 3 L 6 45 C 6 45.971429 7.0285714 47 8 47 L 40 47 C 40.971429 47 42 45.971429 42 45 L 42 14 L 29 1 L 8 1 z M 17.03125 16 L 17.125 16 L 30.90625 16 C 31.498065 16.0069 32.008433 16.61825 32 17.28125 L 32 30.75 C 31.993906 31.4026 31.488764 31.99 30.90625 32 L 17.125 32 C 16.533199 32.0095 16.0061 31.413 16 30.75 L 16 26.4375 L 16 26.40625 L 16 25.875 L 16 25.84375 L 16 17.28125 C 15.989958 16.64805 16.468013 16.054 17.03125 16 z M 18 18 L 18 23.9375 C 18.827639 23.104408 19.801497 22.122187 21.125 20.75 C 22.111782 22.1448 22.838622 23.1524 23.375 23.8125 C 23.899035 24.4698 24.17952 24.7649 24.25 24.6875 C 24.807832 24.1904 25.282979 23.7451 25.6875 23.375 C 26.08589 23.0049 26.379755 22.71175 26.625 22.46875 C 27.850816 24.00435 28.889473 25.27485 29.78125 26.34375 C 29.871835 26.453378 29.91325 26.489563 30 26.59375 L 30 18 L 18 18 z M 17.78125 37.0625 C 18.120469 37.062508 18.423655 37.07548 18.6875 37.125 C 18.960758 37.16629 19.208364 37.223464 19.40625 37.28125 C 19.604125 37.33905 19.752497 37.40271 19.875 37.46875 L 20.1875 37.625 L 19.71875 38.84375 C 19.511441 38.728174 19.270276 38.622071 18.96875 38.53125 C 18.667213 38.44045 18.351623 38.375006 18.03125 38.375 C 17.616639 38.375006 17.251433 38.461669 16.96875 38.59375 C 16.68606 38.725851 16.469705 38.916835 16.28125 39.15625 C 16.102213 39.38742 15.959803 39.669769 15.875 40 C 15.79962 40.321984 15.781248 40.666221 15.78125 41.0625 C 15.781248 41.978907 15.920197 42.656191 16.25 43.09375 C 16.579797 43.523058 17.077991 43.750001 17.71875 43.75 C 17.8224 43.750001 17.939997 43.72703 18.0625 43.71875 C 18.184992 43.71055 18.302593 43.70401 18.40625 43.6875 L 18.40625 40.875 L 20.125 40.875 L 20.125 44.71875 C 19.91769 44.7848 19.59912 44.854941 19.15625 44.9375 C 18.722793 45.02006 18.184405 45.0625 17.5625 45.0625 C 17.015969 45.0625 16.536623 44.977617 16.09375 44.8125 C 15.660295 44.639126 15.279703 44.392736 14.96875 44.0625 C 14.657794 43.724009 14.419612 43.307855 14.25 42.8125 C 14.080388 42.308893 14 41.722975 14 41.0625 C 14 40.410289 14.083369 39.839108 14.28125 39.34375 C 14.479129 38.840146 14.754525 38.432249 15.09375 38.09375 C 15.432972 37.755266 15.850777 37.477625 16.3125 37.3125 C 16.774218 37.139134 17.253565 37.062508 17.78125 37.0625 z M 21.4375 37.25 L 27 37.25 L 27 38.5 L 25.125 38.5 L 25.125 43.625 L 27 43.625 L 27 44.90625 L 21.4375 44.90625 L 21.4375 43.625 L 23.34375 43.625 L 23.34375 38.5 L 21.4375 38.5 L 21.4375 37.25 z M 28.65625 37.25 L 34 37.25 L 34 38.5 L 30.375 38.5 L 30.375 40.34375 L 33.5625 40.34375 L 33.5625 41.625 L 30.375 41.625 L 30.375 44.90625 L 28.65625 44.90625 L 28.65625 37.25 z "
     id="path3009" />
</svg>
