<?xml version="1.0" encoding="UTF-8" standalone="no"?>
<svg
   xmlns:dc="http://purl.org/dc/elements/1.1/"
   xmlns:cc="http://creativecommons.org/ns#"
   xmlns:rdf="http://www.w3.org/1999/02/22-rdf-syntax-ns#"
   xmlns:svg="http://www.w3.org/2000/svg"
   xmlns="http://www.w3.org/2000/svg"
   xmlns:sodipodi="http://sodipodi.sourceforge.net/DTD/sodipodi-0.dtd"
   xmlns:inkscape="http://www.inkscape.org/namespaces/inkscape"
   width="48"
   viewBox="0 0 48 48"
   height="48"
   id="svg3097"
   version="1.1"
   inkscape:version="0.48.4 r9939"
   sodipodi:docname="application-x-jar.svg">
  <metadata
     id="metadata3137">
    <rdf:RDF>
      <cc:Work
         rdf:about="">
        <dc:format>image/svg+xml</dc:format>
        <dc:type
           rdf:resource="http://purl.org/dc/dcmitype/StillImage" />
      </cc:Work>
    </rdf:RDF>
  </metadata>
  <defs
     id="defs3135" />
  <sodipodi:namedview
     pagecolor="#ffffff"
     bordercolor="#666666"
     borderopacity="1"
     objecttolerance="10"
     gridtolerance="10"
     guidetolerance="10"
     inkscape:pageopacity="0"
     inkscape:pageshadow="2"
     inkscape:window-width="640"
     inkscape:window-height="480"
     id="namedview3133"
     showgrid="false"
     inkscape:zoom="4.9166667"
     inkscape:cx="24"
     inkscape:cy="24"
     inkscape:window-x="0"
     inkscape:window-y="0"
     inkscape:window-maximized="0"
     inkscape:current-layer="svg3097" />
  <path
     style="fill:#e76f00"
     d="M 8 1 C 6.9714285 1 6 1.9714285 6 3 L 6 45 C 6 45.971429 7.0285714 47 8 47 L 40 47 C 40.971429 47 42 45.971429 42 45 L 42 14 L 29 1 L 8 1 z M 25.90625 15 C 25.90625 15 27.874264 16.873063 24.03125 19.75 C 20.949544 22.057799 23.329825 23.371593 24.03125 24.875 C 22.232408 23.335983 20.895616 21.979676 21.78125 20.71875 C 23.08115 18.867825 26.702041 17.971834 25.90625 15 z M 28.28125 18.6875 C 24.141287 20.964298 24.909029 21.60846 25.90625 22.9375 C 26.973971 24.362652 24.65625 25.5 24.65625 25.5 C 24.65625 25.5 25.790615 24.593369 24.875 23.59375 C 21.771243 20.202497 28.28125 18.6875 28.28125 18.6875 z M 29.5 24.71875 C 31.309173 24.780602 32.149159 27.239151 27.96875 28.28125 C 27.96875 28.281299 28.01477 28.22927 28.03125 28.1875 C 31.592609 26.432636 29.961827 24.741551 28.8125 24.96875 C 28.530796 25.02435 28.40625 25.0625 28.40625 25.0625 C 28.40625 25.0625 28.519009 24.910994 28.71875 24.84375 C 28.860859 24.796374 28.988454 24.769423 29.125 24.75 C 29.253012 24.731791 29.379388 24.714627 29.5 24.71875 z M 21.625 24.90625 C 21.776348 24.902481 21.84375 24.90625 21.84375 24.90625 C 21.84375 24.90625 18.396745 25.686582 20.625 25.96875 C 21.565838 26.088196 23.440485 26.04505 25.1875 25.90625 C 26.615257 25.792045 28.0625 25.5625 28.0625 25.5625 C 28.0625 25.5625 27.551731 25.764165 27.1875 26 C 23.684107 26.873721 16.926607 26.45621 18.875 25.5625 C 20.110819 24.99603 21.170955 24.917557 21.625 24.90625 z M 21.0625 26.9375 C 21.0625 26.9375 20.226203 27.534378 21.46875 27.65625 C 23.075578 27.813441 24.366734 27.807184 26.5625 27.40625 C 26.5625 27.40625 26.866194 27.715335 27.34375 27.875 C 22.850915 29.120788 17.847208 27.949447 21.0625 26.9375 z M 21.5 28.90625 C 21.5 28.90625 20.789624 29.333391 22.03125 29.46875 C 23.535444 29.631472 24.311117 29.609998 25.96875 29.3125 C 25.96875 29.3125 26.391364 29.556816 27 29.78125 C 23.284025 31.291449 18.5813 29.679595 21.5 28.90625 z M 19.625 30.21875 C 19.804188 30.225296 19.937097 30.280855 20.03125 30.34375 C 20.03125 30.34375 19.791672 30.32057 19.375 30.40625 C 18.975468 30.487611 17.728954 30.876848 18.40625 31.15625 C 20.290382 31.933908 27.073839 31.74115 29.21875 31.125 C 30.064744 30.881645 29.973101 30.570671 29.875 30.4375 C 31.450571 31.294265 25.348647 32.889688 17.9375 31.75 C 15.506613 31.376343 18.370687 30.172924 19.625 30.21875 z M 31 31.28125 C 30.875674 32.815076 25.637211 33.145003 22.21875 32.9375 C 19.972025 32.800879 19.531301 32.468702 19.53125 32.46875 C 21.665621 32.802442 25.269771 32.864421 28.1875 32.34375 C 30.773692 31.881977 31 31.28125 31 31.28125 z M 29.71875 37 C 29.903036 36.9917 30.049281 37.00001 30.1875 37 C 30.675861 37.000008 31.135026 37.056106 31.53125 37.15625 C 31.927466 37.256414 32.276848 37.41635 32.5625 37.625 C 32.848142 37.833666 33.040064 38.080751 33.1875 38.40625 C 33.34414 38.723418 33.437494 39.097247 33.4375 39.53125 C 33.437494 39.981957 33.327712 40.414016 33.125 40.78125 C 32.922277 41.148493 32.594931 41.401788 32.125 41.59375 C 32.281641 41.810758 32.449921 42.076671 32.625 42.34375 C 32.800068 42.602489 32.959136 42.864131 33.125 43.15625 C 33.290854 43.440027 33.446314 43.73913 33.59375 44.03125 C 33.750389 44.315026 33.88942 44.585014 34 44.84375 L 32.21875 44.84375 C 32.006814 44.342971 31.754393 43.8653 31.46875 43.40625 C 31.192314 42.938858 30.885001 42.444494 30.5625 41.96875 L 29.6875 41.96875 L 29.6875 44.84375 L 28 44.84375 L 28 37.1875 C 28.165859 37.15412 28.337746 37.15005 28.53125 37.125 C 28.733966 37.09163 28.922281 37.07085 29.125 37.0625 C 29.327716 37.04581 29.534459 37.00835 29.71875 37 z M 14.90625 37.09375 L 19.46875 37.09375 L 19.46875 42.25 C 19.468744 42.625588 19.42306 42.978649 19.3125 43.3125 C 19.211136 43.646355 19.030034 43.937111 18.78125 44.1875 C 18.54167 44.437891 18.230752 44.631016 17.84375 44.78125 C 17.45674 44.923138 16.990363 45 16.4375 45 C 15.856989 45 15.355754 44.946042 14.96875 44.8125 C 14.581743 44.678959 14.267218 44.504466 14 44.3125 L 14.65625 43.09375 C 14.886609 43.227293 15.129816 43.343557 15.40625 43.46875 C 15.691895 43.593946 15.986386 43.656251 16.28125 43.65625 C 16.72354 43.656251 17.076529 43.55241 17.34375 43.34375 C 17.620179 43.126747 17.749996 42.732149 17.75 42.15625 L 17.75 38.375 L 14.90625 38.375 L 14.90625 37.09375 z M 22.875 37.09375 L 24.75 37.09375 C 25.15543 38.228859 25.541275 39.441766 25.9375 40.71875 C 26.34293 41.987396 26.747202 43.358104 27.125 44.84375 L 25.28125 44.84375 L 24.90625 43.03125 L 22.625 43.03125 L 22.21875 44.84375 L 20.46875 44.84375 C 20.874185 43.316373 21.27285 41.908203 21.6875 40.65625 C 22.102148 39.39596 22.487992 38.220512 22.875 37.09375 z M 29.96875 38.34375 C 29.8766 38.343756 29.779642 38.35826 29.6875 38.375 L 29.6875 40.71875 L 30.0625 40.71875 C 30.643006 40.718754 31.054493 40.606566 31.3125 40.40625 C 31.5705 40.197596 31.718746 39.90684 31.71875 39.53125 C 31.718746 39.122285 31.557679 38.816971 31.28125 38.625 C 31.004814 38.433041 30.639003 38.343757 30.1875 38.34375 C 30.12299 38.343757 30.060892 38.33543 29.96875 38.34375 z M 23.78125 38.59375 C 23.6891 38.885878 23.582927 39.170423 23.5 39.4375 L 23.28125 40.21875 C 23.21674 40.469144 23.158248 40.710018 23.09375 40.96875 C 23.03846 41.22749 22.992784 41.505825 22.9375 41.78125 L 24.59375 41.78125 C 24.53846 41.505825 24.492782 41.22749 24.4375 40.96875 C 24.38221 40.710018 24.323711 40.469144 24.25 40.21875 C 24.18549 39.960018 24.114177 39.696241 24.03125 39.4375 C 23.95753 39.170423 23.873391 38.885878 23.78125 38.59375 z "
     id="path3099" />
</svg>
