<?xml version="1.0" encoding="UTF-8" standalone="no"?>
<svg
   xmlns:dc="http://purl.org/dc/elements/1.1/"
   xmlns:cc="http://creativecommons.org/ns#"
   xmlns:rdf="http://www.w3.org/1999/02/22-rdf-syntax-ns#"
   xmlns:svg="http://www.w3.org/2000/svg"
   xmlns="http://www.w3.org/2000/svg"
   xmlns:sodipodi="http://sodipodi.sourceforge.net/DTD/sodipodi-0.dtd"
   xmlns:inkscape="http://www.inkscape.org/namespaces/inkscape"
   width="48"
   viewBox="0 0 48 48"
   height="48"
   id="svg3089"
   version="1.1"
   inkscape:version="0.48.4 r9939"
   sodipodi:docname="application-x-stuffit.svg">
  <metadata
     id="metadata3119">
    <rdf:RDF>
      <cc:Work
         rdf:about="">
        <dc:format>image/svg+xml</dc:format>
        <dc:type
           rdf:resource="http://purl.org/dc/dcmitype/StillImage" />
      </cc:Work>
    </rdf:RDF>
  </metadata>
  <defs
     id="defs3117" />
  <sodipodi:namedview
     pagecolor="#ffffff"
     bordercolor="#666666"
     borderopacity="1"
     objecttolerance="10"
     gridtolerance="10"
     guidetolerance="10"
     inkscape:pageopacity="0"
     inkscape:pageshadow="2"
     inkscape:window-width="640"
     inkscape:window-height="480"
     id="namedview3115"
     showgrid="false"
     inkscape:zoom="4.9166667"
     inkscape:cx="24"
     inkscape:cy="24"
     inkscape:window-x="0"
     inkscape:window-y="0"
     inkscape:window-maximized="0"
     inkscape:current-layer="svg3089" />
  <path
     style="fill:#c19553"
     d="M 8 1 C 6.9714285 1 6 1.9714285 6 3 L 6 45 C 6 45.971429 7.0285714 47 8 47 L 40 47 C 40.971429 47 42 45.971429 42 45 L 42 14 L 29 1 L 22 1 L 22 5 L 18 5 L 18 9 L 22 9 L 22 13 L 18 13 L 18 17 L 22 17 L 22 21 L 18 21 L 18 17 L 14 17 L 14 13 L 18 13 L 18 9 L 14 9 L 14 5 L 18 5 L 18 1 L 8 1 z M 14 23 L 18 23 L 22 23 L 22 31 L 14 31 L 14 23 z M 14.71875 37 C 15.186676 37.000008 15.592705 37.04893 15.9375 37.15625 C 16.290495 37.263584 16.574426 37.399163 16.8125 37.53125 L 16.375 38.6875 C 16.169763 38.571924 15.941983 38.488816 15.6875 38.40625 C 15.441217 38.3237 15.172118 38.281257 14.84375 38.28125 C 14.039235 38.281257 13.624998 38.570088 13.625 39.15625 C 13.624998 39.304862 13.667901 39.446923 13.75 39.5625 C 13.83209 39.669832 13.939357 39.75294 14.0625 39.84375 C 14.193846 39.92631 14.344021 39.996458 14.5 40.0625 C 14.664183 40.12856 14.81277 40.192213 14.96875 40.25 C 15.206816 40.34082 15.464257 40.446922 15.71875 40.5625 C 15.981443 40.669831 16.192803 40.810118 16.40625 41 C 16.627897 41.181634 16.829187 41.438053 16.96875 41.71875 C 17.108303 41.991197 17.156244 42.32895 17.15625 42.75 C 17.156244 43.468264 16.936675 44.009967 16.46875 44.40625 C 16.009025 44.794277 15.319067 45 14.375 45 C 13.742882 45 13.221377 44.944591 12.84375 44.8125 C 12.466121 44.67215 12.188813 44.521833 12 44.40625 L 12.4375 43.1875 C 12.65915 43.319596 12.915004 43.446919 13.21875 43.5625 C 13.530702 43.678084 13.931695 43.718751 14.375 43.71875 C 14.629486 43.718751 14.835811 43.70578 15 43.65625 C 15.172391 43.59846 15.307735 43.528316 15.40625 43.4375 C 15.50476 43.33843 15.560908 43.209334 15.59375 43.09375 C 15.63479 42.969914 15.65625 42.84259 15.65625 42.71875 C 15.656246 42.56189 15.621553 42.43634 15.53125 42.3125 C 15.44095 42.188664 15.327054 42.090818 15.1875 42 C 15.047938 41.90093 14.891142 41.793057 14.71875 41.71875 C 14.546352 41.6362 14.359892 41.56605 14.1875 41.5 C 13.957636 41.41745 13.715027 41.326081 13.46875 41.21875 C 13.222469 41.111427 13.017732 40.977621 12.8125 40.8125 C 12.615476 40.647386 12.443848 40.458176 12.3125 40.21875 C 12.181151 39.971079 12.124999 39.644516 12.125 39.28125 C 12.124999 38.562993 12.352779 37.998296 12.8125 37.59375 C 13.280429 37.189218 13.906026 37.000008 14.71875 37 z M 18.34375 37.1875 L 23.15625 37.1875 L 23.15625 38.4375 L 21.53125 38.4375 L 21.53125 43.5625 L 23.15625 43.5625 L 23.15625 44.84375 L 18.34375 44.84375 L 18.34375 43.5625 L 20 43.5625 L 20 38.4375 L 18.34375 38.4375 L 18.34375 37.1875 z M 24.125 37.1875 L 29.65625 37.1875 L 29.65625 38.4375 L 27.65625 38.4375 L 27.65625 44.84375 L 26.125 44.84375 L 26.125 38.4375 L 24.125 38.4375 L 24.125 37.1875 z M 30.25 37.1875 L 31.875 37.1875 L 33.09375 39.625 L 34.34375 37.1875 L 35.875 37.1875 L 33.9375 40.75 C 34.159147 41.105008 34.380304 41.486976 34.59375 41.875 C 34.807187 42.26303 35.006889 42.628486 35.1875 43 C 35.376308 43.363261 35.516686 43.709271 35.65625 44.03125 C 35.795802 44.344975 35.917901 44.62084 36 44.84375 L 34.375 44.84375 C 34.219019 44.422699 34.011106 43.949367 33.78125 43.4375 C 33.559595 42.925636 33.340026 42.418119 33.09375 41.90625 C 32.855676 42.393351 32.613067 42.909125 32.375 43.4375 C 32.136928 43.957623 31.922394 44.422699 31.75 44.84375 L 30.125 44.84375 C 30.2071 44.62084 30.312772 44.344975 30.46875 44.03125 C 30.632935 43.717527 30.811185 43.394511 31 43.03125 C 31.197022 42.667991 31.411556 42.286024 31.625 41.90625 C 31.83844 41.518226 32.021725 41.136257 32.21875 40.78125 L 30.25 37.1875 z "
     id="path3091" />
</svg>
