<?xml version="1.0" encoding="UTF-8" standalone="no"?>
<svg
   xmlns:dc="http://purl.org/dc/elements/1.1/"
   xmlns:cc="http://creativecommons.org/ns#"
   xmlns:rdf="http://www.w3.org/1999/02/22-rdf-syntax-ns#"
   xmlns:svg="http://www.w3.org/2000/svg"
   xmlns="http://www.w3.org/2000/svg"
   xmlns:sodipodi="http://sodipodi.sourceforge.net/DTD/sodipodi-0.dtd"
   xmlns:inkscape="http://www.inkscape.org/namespaces/inkscape"
   width="48"
   viewBox="0 0 48 48"
   height="48"
   id="svg3111"
   version="1.1"
   inkscape:version="0.48.4 r9939"
   sodipodi:docname="application-vnd.oasis.opendocument.text-template.svg">
  <metadata
     id="metadata3149">
    <rdf:RDF>
      <cc:Work
         rdf:about="">
        <dc:format>image/svg+xml</dc:format>
        <dc:type
           rdf:resource="http://purl.org/dc/dcmitype/StillImage" />
      </cc:Work>
    </rdf:RDF>
  </metadata>
  <defs
     id="defs3147" />
  <sodipodi:namedview
     pagecolor="#ffffff"
     bordercolor="#666666"
     borderopacity="1"
     objecttolerance="10"
     gridtolerance="10"
     guidetolerance="10"
     inkscape:pageopacity="0"
     inkscape:pageshadow="2"
     inkscape:window-width="640"
     inkscape:window-height="480"
     id="namedview3145"
     showgrid="false"
     inkscape:zoom="4.9166667"
     inkscape:cx="24"
     inkscape:cy="24"
     inkscape:window-x="0"
     inkscape:window-y="0"
     inkscape:window-maximized="0"
     inkscape:current-layer="svg3111" />
  <path
     style="fill:#3468ce"
     d="M 8 1 C 6.9714285 1 6 1.9714285 6 3 L 6 14 L 6 45 C 6 45.971429 7.0285714 47 8 47 L 40 47 C 40.971429 47 42 45.971429 42 45 L 42 14 L 42 3 C 42 1.9714285 41.028571 1 40 1 L 29 1 L 19 1 L 8 1 z M 16.09375 16 L 22.90625 16 C 23.227016 16 23.5 16.260796 23.5 16.59375 L 23.5 22.40625 C 23.5 22.739204 23.227016 23 22.90625 23 L 16.09375 23 C 15.772984 23 15.5 22.739204 15.5 22.40625 L 15.5 16.59375 C 15.5 16.260796 15.772984 16 16.09375 16 z M 25.78125 16 A 0.50606671 0.50606671 0 0 1 25.84375 16 A 0.50219246 0.50219246 0 0 1 25.90625 16 A 0.50005 0.50005 0 0 1 26 16 L 31 16 A 0.50005 0.50005 0 1 1 31 17 L 26 17 A 0.50606671 0.50606671 0 0 1 25.78125 16 z M 25.78125 19 A 0.50606671 0.50606671 0 0 1 25.84375 19 A 0.50219246 0.50219246 0 0 1 25.90625 19 A 0.50005 0.50005 0 0 1 26 19 L 31 19 A 0.50005 0.50005 0 1 1 31 20 L 26 20 A 0.50606671 0.50606671 0 0 1 25.78125 19 z M 25.78125 22 A 0.50606671 0.50606671 0 0 1 25.84375 22 A 0.50219246 0.50219246 0 0 1 25.90625 22 A 0.50005 0.50005 0 0 1 26 22 L 31 22 A 0.50005 0.50005 0 1 1 31 23 L 26 23 A 0.50606671 0.50606671 0 0 1 25.78125 22 z M 15.28125 25 A 0.50606671 0.50606671 0 0 1 15.34375 25 A 0.50219246 0.50219246 0 0 1 15.40625 25 A 0.50005 0.50005 0 0 1 15.5 25 L 31.5 25 A 0.50005 0.50005 0 1 1 31.5 26 L 15.5 26 A 0.50606671 0.50606671 0 0 1 15.28125 25 z M 15.28125 28 A 0.50606671 0.50606671 0 0 1 15.34375 28 A 0.50219246 0.50219246 0 0 1 15.40625 28 A 0.50005 0.50005 0 0 1 15.5 28 L 31.5 28 A 0.50005 0.50005 0 1 1 31.5 29 L 15.5 29 A 0.50606671 0.50606671 0 0 1 15.28125 28 z M 15.28125 31 A 0.50606671 0.50606671 0 0 1 15.34375 31 A 0.50219246 0.50219246 0 0 1 15.40625 31 A 0.50005 0.50005 0 0 1 15.5 31 L 31.5 31 A 0.50005 0.50005 0 1 1 31.5 32 L 15.5 32 A 0.50606671 0.50606671 0 0 1 15.28125 31 z M 17.09375 37 C 18.097426 37.000008 18.850134 37.323019 19.375 38 C 19.899854 38.668739 20.156244 39.679051 20.15625 41 C 20.156244 42.320956 19.877812 43.323013 19.34375 44 C 18.809675 44.668734 18.069802 45 17.09375 45 C 16.090067 45 15.315318 44.668734 14.78125 44 C 14.256389 43.323013 14 42.320956 14 41 C 14 39.679051 14.269222 38.668739 14.8125 38 C 15.355775 37.323019 16.126899 37.000008 17.09375 37 z M 20.875 37.1875 L 27.09375 37.1875 L 27.09375 38.4375 L 24.84375 38.4375 L 24.84375 44.84375 L 23.125 44.84375 L 23.125 38.4375 L 20.875 38.4375 L 20.875 37.1875 z M 27.78125 37.1875 L 34 37.1875 L 34 38.4375 L 31.75 38.4375 L 31.75 44.84375 L 30.03125 44.84375 L 30.03125 38.4375 L 27.78125 38.4375 L 27.78125 37.1875 z M 17.09375 38.3125 C 16.799089 38.312506 16.549951 38.390903 16.375 38.53125 C 16.200044 38.671607 16.070036 38.877327 15.96875 39.125 C 15.87667 39.364429 15.81808 39.646773 15.78125 39.96875 C 15.75362 40.290737 15.71874 40.628486 15.71875 41 C 15.718748 41.371522 15.75363 41.732264 15.78125 42.0625 C 15.81807 42.384485 15.876669 42.66683 15.96875 42.90625 C 16.070039 43.145675 16.200044 43.328401 16.375 43.46875 C 16.549951 43.609103 16.799089 43.687501 17.09375 43.6875 C 17.379197 43.687501 17.606293 43.609108 17.78125 43.46875 C 17.965408 43.328401 18.095415 43.145675 18.1875 42.90625 C 18.288779 42.658574 18.347372 42.353236 18.375 42.03125 C 18.41183 41.709271 18.43749 41.371522 18.4375 41 C 18.437495 40.628486 18.41183 40.290737 18.375 39.96875 C 18.34737 39.638517 18.288789 39.333179 18.1875 39.09375 C 18.09541 38.854333 17.956198 38.671607 17.78125 38.53125 C 17.606293 38.390905 17.388405 38.312506 17.09375 38.3125 z "
     id="path3113" />
</svg>
