<?xml version="1.0" encoding="UTF-8" standalone="no"?>
<svg
   xmlns:dc="http://purl.org/dc/elements/1.1/"
   xmlns:cc="http://creativecommons.org/ns#"
   xmlns:rdf="http://www.w3.org/1999/02/22-rdf-syntax-ns#"
   xmlns:svg="http://www.w3.org/2000/svg"
   xmlns="http://www.w3.org/2000/svg"
   xmlns:sodipodi="http://sodipodi.sourceforge.net/DTD/sodipodi-0.dtd"
   xmlns:inkscape="http://www.inkscape.org/namespaces/inkscape"
   width="48"
   viewBox="0 0 48 48"
   height="48"
   id="svg3105"
   version="1.1"
   inkscape:version="0.48.4 r9939"
   sodipodi:docname="audio-x-smart-playlist.svg">
  <metadata
     id="metadata3131">
    <rdf:RDF>
      <cc:Work
         rdf:about="">
        <dc:format>image/svg+xml</dc:format>
        <dc:type
           rdf:resource="http://purl.org/dc/dcmitype/StillImage" />
      </cc:Work>
    </rdf:RDF>
  </metadata>
  <defs
     id="defs3129" />
  <sodipodi:namedview
     pagecolor="#ffffff"
     bordercolor="#666666"
     borderopacity="1"
     objecttolerance="10"
     gridtolerance="10"
     guidetolerance="10"
     inkscape:pageopacity="0"
     inkscape:pageshadow="2"
     inkscape:window-width="640"
     inkscape:window-height="480"
     id="namedview3127"
     showgrid="false"
     inkscape:zoom="4.9166667"
     inkscape:cx="24"
     inkscape:cy="24"
     inkscape:window-x="0"
     inkscape:window-y="0"
     inkscape:window-maximized="0"
     inkscape:current-layer="svg3105" />
  <path
     style="fill:#9b4a85"
     d="M 8 1 C 6.9714285 1 6 1.9714285 6 3 L 6 45 C 6 45.971429 7.0285714 47 8 47 L 40 47 C 40.971429 47 42 45.971429 42 45 L 42 14 L 29 1 L 8 1 z M 25 20 C 25 20 23.790112 22.8794 22 23 C 20.308464 23.1153 19.79161 23.34525 19.75 23.40625 L 21.53125 30.34375 C 21.54361 30.38975 21.55249 30.42175 21.5625 30.46875 C 21.885478 31.97185 21.012576 33.80775 19.40625 34.96875 C 17.368518 36.44175 14.742584 36.33615 13.5625 34.71875 C 12.382511 33.10165 13.087263 30.56675 15.125 29.09375 C 16.702337 27.95375 18.63463 27.7764 19.96875 28.5 L 18.09375 21.5625 L 18.0625 21.53125 C 18.0625 21.53125 19.022671 20.4804 20.1875 20.1875 C 20.575395 20.0888 21.010128 20.07915 21.40625 20.21875 C 22.990755 20.77735 25 20 25 20 z M 30.65625 20 L 31.34375 20 C 31.528417 20 31.65625 20.159084 31.65625 20.34375 L 31.65625 21.09375 C 31.991385 21.170063 32.311624 21.29054 32.59375 21.46875 L 33.125 20.9375 C 33.255579 20.806921 33.463171 20.806921 33.59375 20.9375 L 34.0625 21.40625 C 34.193078 21.536829 34.193079 21.744421 34.0625 21.875 L 33.53125 22.40625 C 33.70946 22.688376 33.82994 23.008615 33.90625 23.34375 L 34.65625 23.34375 C 34.840916 23.34375 35 23.471583 35 23.65625 L 35 24.34375 C 35 24.528417 34.840916 24.65625 34.65625 24.65625 L 33.90625 24.65625 C 33.829937 24.991385 33.70946 25.311624 33.53125 25.59375 L 34.0625 26.125 C 34.19308 26.255579 34.193079 26.463171 34.0625 26.59375 L 33.59375 27.0625 C 33.463171 27.193078 33.255579 27.193079 33.125 27.0625 L 32.59375 26.53125 C 32.311624 26.70946 31.991385 26.82994 31.65625 26.90625 L 31.65625 27.65625 C 31.65625 27.840916 31.528417 28 31.34375 28 L 30.65625 28 C 30.471583 28 30.34375 27.840916 30.34375 27.65625 L 30.34375 26.90625 C 30.008615 26.829937 29.688376 26.70946 29.40625 26.53125 L 28.875 27.0625 C 28.744421 27.19308 28.536829 27.193079 28.40625 27.0625 L 27.9375 26.59375 C 27.806921 26.463171 27.806921 26.255579 27.9375 26.125 L 28.46875 25.59375 C 28.29054 25.311624 28.17006 24.991385 28.09375 24.65625 L 27.34375 24.65625 C 27.159084 24.65625 27 24.528417 27 24.34375 L 27 23.65625 C 27 23.471583 27.159084 23.34375 27.34375 23.34375 L 28.09375 23.34375 C 28.170063 23.008615 28.29054 22.688376 28.46875 22.40625 L 27.9375 21.875 C 27.806921 21.744421 27.806921 21.536829 27.9375 21.40625 L 28.40625 20.9375 C 28.536829 20.806921 28.744421 20.806921 28.875 20.9375 L 29.40625 21.46875 C 29.688376 21.29054 30.008615 21.17006 30.34375 21.09375 L 30.34375 20.34375 C 30.34375 20.159084 30.471583 20 30.65625 20 z M 31 22.65625 C 30.264 22.65625 29.65625 23.264 29.65625 24 C 29.65625 24.736 30.264 25.343751 31 25.34375 C 31.736 25.34375 32.34375 24.736 32.34375 24 C 32.34375 23.264 31.736 22.656249 31 22.65625 z M 23 29 L 35 29 L 35 30 L 23 30 L 23 29 z M 23 32 L 35 32 L 35 33 L 23 33 L 23 32 z M 23 35 L 35 35 L 35 36 L 23 36 L 23 35 z "
     id="path3107" />
</svg>
