<?xml version="1.0" encoding="UTF-8" standalone="no"?>
<svg
   xmlns:dc="http://purl.org/dc/elements/1.1/"
   xmlns:cc="http://creativecommons.org/ns#"
   xmlns:rdf="http://www.w3.org/1999/02/22-rdf-syntax-ns#"
   xmlns:svg="http://www.w3.org/2000/svg"
   xmlns="http://www.w3.org/2000/svg"
   xmlns:sodipodi="http://sodipodi.sourceforge.net/DTD/sodipodi-0.dtd"
   xmlns:inkscape="http://www.inkscape.org/namespaces/inkscape"
   width="48"
   viewBox="0 0 48 48"
   height="48"
   id="svg2"
   version="1.1"
   inkscape:version="0.48.4 r9939"
   sodipodi:docname="extension.svg">
  <metadata
     id="metadata22">
    <rdf:RDF>
      <cc:Work
         rdf:about="">
        <dc:format>image/svg+xml</dc:format>
        <dc:type
           rdf:resource="http://purl.org/dc/dcmitype/StillImage" />
      </cc:Work>
    </rdf:RDF>
  </metadata>
  <defs
     id="defs20" />
  <sodipodi:namedview
     pagecolor="#ffffff"
     bordercolor="#666666"
     borderopacity="1"
     objecttolerance="10"
     gridtolerance="10"
     guidetolerance="10"
     inkscape:pageopacity="0"
     inkscape:pageshadow="2"
     inkscape:window-width="640"
     inkscape:window-height="480"
     id="namedview18"
     showgrid="false"
     inkscape:zoom="4.9166667"
     inkscape:cx="24"
     inkscape:cy="24"
     inkscape:window-x="0"
     inkscape:window-y="0"
     inkscape:window-maximized="0"
     inkscape:current-layer="svg2" />
  <path
     style="fill:#888"
     d="M 8 1 C 6.9714285 1 6 1.9714285 6 3 L 6 45 C 6 45.971429 7.0285714 47 8 47 L 40 47 C 40.971429 47 42 45.971429 42 45 L 42 14 L 29 1 L 8 1 z M 24 18 C 25.104567 18 26 18.895432 26 20 C 26 21.104567 25.104567 22 24 22 L 29.25 22 C 30 22 30 21.9972 30 22.75 L 30 28 C 30 26.895432 30.895433 26 32 26 C 33.104567 26 34 26.895432 34 28 C 34 29.104567 33.104567 30 32 30 C 30.895433 30 30 29.104567 30 28 L 30 33.25 C 30 34 30.002775 34 29.25 34 L 24 34 L 18.75 34 C 18 34 18 34.0028 18 33.25 L 18 28 L 18 22.6875 C 18 22.167902 17.996094 22.032475 18.3125 22 C 18.417969 21.98917 18.5625 22 18.75 22 L 24 22 C 22.895433 22 22 21.104567 22 20 C 22 18.895432 22.895433 18 24 18 z M 18 28 C 18 29.10457 18.895431 30 20 30 C 21.104569 30 22 29.10457 22 28 C 22 26.89543 21.104569 26 20 26 C 18.895431 26 18 26.89543 18 28 z M 24 34 C 25.104569 34 26 33.10457 26 32 C 26 30.89543 25.104569 30 24 30 C 22.895431 30 22 30.89543 22 32 C 22 33.10457 22.895431 34 24 34 z "
     id="path4" />
</svg>
