<?xml version="1.0" encoding="UTF-8" standalone="no"?>
<svg
   xmlns:dc="http://purl.org/dc/elements/1.1/"
   xmlns:cc="http://creativecommons.org/ns#"
   xmlns:rdf="http://www.w3.org/1999/02/22-rdf-syntax-ns#"
   xmlns:svg="http://www.w3.org/2000/svg"
   xmlns="http://www.w3.org/2000/svg"
   xmlns:sodipodi="http://sodipodi.sourceforge.net/DTD/sodipodi-0.dtd"
   xmlns:inkscape="http://www.inkscape.org/namespaces/inkscape"
   width="48"
   viewBox="0 0 48 48"
   height="48"
   id="svg2999"
   version="1.1"
   inkscape:version="0.48.4 r9939"
   sodipodi:docname="gnome-mime-application-magicpoint.svg">
  <metadata
     id="metadata3035">
    <rdf:RDF>
      <cc:Work
         rdf:about="">
        <dc:format>image/svg+xml</dc:format>
        <dc:type
           rdf:resource="http://purl.org/dc/dcmitype/StillImage" />
      </cc:Work>
    </rdf:RDF>
  </metadata>
  <defs
     id="defs3033" />
  <sodipodi:namedview
     pagecolor="#ffffff"
     bordercolor="#666666"
     borderopacity="1"
     objecttolerance="10"
     gridtolerance="10"
     guidetolerance="10"
     inkscape:pageopacity="0"
     inkscape:pageshadow="2"
     inkscape:window-width="640"
     inkscape:window-height="480"
     id="namedview3031"
     showgrid="false"
     inkscape:zoom="4.9166667"
     inkscape:cx="24"
     inkscape:cy="24"
     inkscape:window-x="0"
     inkscape:window-y="0"
     inkscape:window-maximized="0"
     inkscape:current-layer="svg2999" />
  <path
     style="fill:#d24726"
     d="M 8 1 C 6.9714285 1 6 1.9714285 6 3 L 6 45 C 6 45.971429 7.0285714 47 8 47 L 40 47 C 40.971429 47 42 45.971429 42 45 L 42 14 L 29 1 L 8 1 z M 12 16 L 19 16 L 19 21 L 12 21 L 12 16 z M 29.53125 16 C 33.09985 16 36 18.833102 36 22.3125 L 29.53125 22.3125 L 29.53125 16 z M 28.625 16.90625 L 28.625 23.1875 L 35.0625 23.1875 C 35.0625 26.666898 32.193605 29.5 28.625 29.5 C 25.056396 29.5 22.15625 26.666898 22.15625 23.1875 C 22.15625 19.708101 25.056396 16.90625 28.625 16.90625 z M 12 24 L 19 24 L 19 29 L 12 29 L 12 24 z M 24.65625 37 C 24.987508 37.000007 25.273596 37.01298 25.53125 37.0625 C 25.798096 37.10379 26.025508 37.160963 26.21875 37.21875 C 26.411981 37.27655 26.567871 37.340211 26.6875 37.40625 C 26.816319 37.47231 26.935581 37.529484 27 37.5625 L 26.53125 38.78125 C 26.328806 38.665674 26.106952 38.559571 25.8125 38.46875 C 25.518039 38.37794 25.187856 38.312507 24.875 38.3125 C 24.470119 38.312507 24.151049 38.399168 23.875 38.53125 C 23.598943 38.663351 23.371533 38.854335 23.1875 39.09375 C 23.012665 39.324922 22.864063 39.60727 22.78125 39.9375 C 22.70763 40.259485 22.687498 40.603721 22.6875 41 C 22.687498 41.916408 22.834186 42.593691 23.15625 43.03125 C 23.478309 43.460559 23.968027 43.687501 24.59375 43.6875 C 24.694963 43.687501 24.786623 43.66443 24.90625 43.65625 C 25.025868 43.64805 25.148776 43.64151 25.25 43.625 L 25.25 40.8125 L 26.9375 40.8125 L 26.9375 44.65625 C 26.735055 44.7223 26.432476 44.792441 26 44.875 C 25.576713 44.95756 25.044812 44.999999 24.4375 45 C 23.903794 44.999999 23.43248 44.915118 23 44.75 C 22.576717 44.576627 22.209907 44.330236 21.90625 44 C 21.602592 43.661509 21.38438 43.245356 21.21875 42.75 C 21.053118 42.246392 20.96875 41.660476 20.96875 41 C 20.96875 40.347788 21.056764 39.776609 21.25 39.28125 C 21.443235 38.777646 21.699985 38.338498 22.03125 38 C 22.362512 37.661515 22.767862 37.415125 23.21875 37.25 C 23.669634 37.076633 24.140947 37.000007 24.65625 37 z M 30.03125 37.09375 C 30.233686 37.08555 30.406067 37.09375 30.5625 37.09375 C 31.648305 37.093758 32.49563 37.282969 33.09375 37.6875 C 33.691859 38.08379 33.999993 38.748107 34 39.65625 C 33.999993 40.57266 33.701061 41.243459 33.09375 41.65625 C 32.495631 42.060792 31.635458 42.250003 30.53125 42.25 L 29.9375 42.25 L 29.9375 44.84375 L 28.21875 44.84375 L 28.21875 37.28125 C 28.384381 37.24823 28.578811 37.21228 28.78125 37.1875 C 28.992889 37.16274 29.194608 37.13327 29.40625 37.125 C 29.617888 37.1085 29.828809 37.10201 30.03125 37.09375 z M 14.5 37.1875 L 15.90625 37.1875 C 15.97066 37.360882 16.03298 37.571313 16.125 37.84375 C 16.226213 38.116202 16.358326 38.405033 16.46875 38.71875 C 16.579168 39.032481 16.670825 39.365525 16.78125 39.6875 C 16.891668 40.009485 16.992528 40.29006 17.09375 40.5625 C 17.204168 40.257036 17.317874 39.946986 17.4375 39.625 C 17.55712 39.29477 17.670825 38.984718 17.78125 38.6875 C 17.891667 38.382038 18.001728 38.107946 18.09375 37.84375 C 18.18577 37.579569 18.270132 37.360882 18.34375 37.1875 L 19.75 37.1875 C 19.81441 37.856235 19.882284 38.489301 19.9375 39.125 C 20.00191 39.760709 20.056937 40.403806 20.09375 41.03125 C 20.13975 41.650446 20.159889 42.270548 20.1875 42.90625 C 20.2151 43.5337 20.26284 44.183279 20.28125 44.84375 L 18.71875 44.84375 L 18.78125 38.875 L 17.75 42.125 L 16.5 42.125 L 15.5 38.875 L 15.5625 44.84375 L 14 44.84375 C 14.02761 44.216302 14.06615 43.551985 14.09375 42.875 C 14.13055 42.198018 14.150698 41.543731 14.1875 40.875 C 14.2243 40.206276 14.266497 39.533703 14.3125 38.90625 C 14.36772 38.278807 14.435587 37.724141 14.5 37.1875 z M 30.78125 38.40625 C 30.680026 38.406255 30.527781 38.42932 30.34375 38.4375 C 30.168913 38.437506 30.038717 38.42093 29.9375 38.4375 L 29.9375 40.9375 L 30.625 40.9375 C 31.167901 40.937504 31.567693 40.846139 31.84375 40.65625 C 32.119798 40.458112 32.249996 40.095591 32.25 39.625 C 32.249996 39.179187 32.119798 38.869136 31.84375 38.6875 C 31.576895 38.497621 31.232132 38.406256 30.78125 38.40625 z "
     id="path3001" />
</svg>
