<?xml version="1.0" encoding="UTF-8" standalone="no"?>
<svg
   xmlns:dc="http://purl.org/dc/elements/1.1/"
   xmlns:cc="http://creativecommons.org/ns#"
   xmlns:rdf="http://www.w3.org/1999/02/22-rdf-syntax-ns#"
   xmlns:svg="http://www.w3.org/2000/svg"
   xmlns="http://www.w3.org/2000/svg"
   xmlns:sodipodi="http://sodipodi.sourceforge.net/DTD/sodipodi-0.dtd"
   xmlns:inkscape="http://www.inkscape.org/namespaces/inkscape"
   width="48"
   viewBox="0 0 48 48"
   height="48"
   id="svg3081"
   version="1.1"
   inkscape:version="0.48.4 r9939"
   sodipodi:docname="image-x-xcf.svg">
  <metadata
     id="metadata3097">
    <rdf:RDF>
      <cc:Work
         rdf:about="">
        <dc:format>image/svg+xml</dc:format>
        <dc:type
           rdf:resource="http://purl.org/dc/dcmitype/StillImage" />
      </cc:Work>
    </rdf:RDF>
  </metadata>
  <sodipodi:namedview
     pagecolor="#ffffff"
     bordercolor="#666666"
     borderopacity="1"
     objecttolerance="10"
     gridtolerance="10"
     guidetolerance="10"
     inkscape:pageopacity="0"
     inkscape:pageshadow="2"
     inkscape:window-width="640"
     inkscape:window-height="480"
     id="namedview3095"
     showgrid="false"
     inkscape:zoom="4.9166667"
     inkscape:cx="24"
     inkscape:cy="24"
     inkscape:window-x="0"
     inkscape:window-y="0"
     inkscape:window-maximized="0"
     inkscape:current-layer="svg3081" />
  <defs
     id="defs3083" />
  <path
     style="fill:#9a773c"
     d="M 8 1 C 6.9714285 1 6 1.9714285 6 3 L 6 45 C 6 45.971429 7.0285714 47 8 47 L 40 47 C 40.971429 47 42 45.971429 42 45 L 42 14 L 29 1 L 8 1 z M 31.53125 18 C 31.656569 17.937456 31.77421 18.101473 31.8125 18.40625 C 32.474202 24.505053 31.397847 28.009681 29.53125 29.875 L 29.5625 29.90625 L 29.625 29.90625 L 31 30.8125 C 31.160389 30.64299 31.370514 30.52663 31.65625 30.5 C 33.191975 30.356889 33.412349 31.974476 34 34 C 34 34 32.856943 33.384889 31.625 32.90625 C 30.940926 32.640471 30.65425 32.02312 30.71875 31.46875 L 29.15625 30.90625 L 29.09375 30.8125 C 29.08727 30.8106 29.0689 30.8144 29.0625 30.8125 C 29.03243 30.80354 29.02945 30.79075 29 30.78125 L 28.8125 30.84375 C 28.8031 30.811283 28.8144 30.78645 28.8125 30.75 C 28.736671 30.72339 28.66919 30.68232 28.59375 30.65625 C 25.106366 32.93254 19.838149 30.946226 17.1875 28.8125 C 17.071138 28.83041 16.97039 28.85115 16.84375 28.84375 C 16.434507 28.819741 15.987588 28.669299 15.59375 28.40625 C 15.244539 28.173008 14.924505 27.846409 14.65625 27.46875 C 14.402324 27.111264 14.234377 26.719887 14.125 26.34375 C 13.99934 25.911616 13.96555 25.502838 14.03125 25.125 C 14.107041 24.689157 14.293696 24.336447 14.625 24.09375 C 14.956204 23.851125 15.381419 23.74818 15.8125 23.8125 C 16.186412 23.868292 16.573186 24.023833 16.9375 24.28125 C 17.25457 24.505285 17.558461 24.830026 17.8125 25.1875 C 17.854642 25.246796 17.86788 25.31412 17.90625 25.375 C 18.612074 24.495076 18.25 23.65625 18.25 23.65625 L 18.34375 19.875 C 18.34375 19.875 19.736741 22.80194 23.03125 22.71875 C 29.935305 22.542871 31.170541 18.902637 31.34375 18.375 C 31.408703 18.177136 31.45606 18.03753 31.53125 18 z "
     id="path3085" />
</svg>
