<?xml version="1.0" encoding="UTF-8" standalone="no"?>
<svg
   xmlns:dc="http://purl.org/dc/elements/1.1/"
   xmlns:cc="http://creativecommons.org/ns#"
   xmlns:rdf="http://www.w3.org/1999/02/22-rdf-syntax-ns#"
   xmlns:svg="http://www.w3.org/2000/svg"
   xmlns="http://www.w3.org/2000/svg"
   xmlns:sodipodi="http://sodipodi.sourceforge.net/DTD/sodipodi-0.dtd"
   xmlns:inkscape="http://www.inkscape.org/namespaces/inkscape"
   width="48"
   viewBox="0 0 48 48"
   height="48"
   id="svg3059"
   version="1.1"
   inkscape:version="0.48.4 r9939"
   sodipodi:docname="image-x-compressed-xcf.svg">
  <metadata
     id="metadata3079">
    <rdf:RDF>
      <cc:Work
         rdf:about="">
        <dc:format>image/svg+xml</dc:format>
        <dc:type
           rdf:resource="http://purl.org/dc/dcmitype/StillImage" />
      </cc:Work>
    </rdf:RDF>
  </metadata>
  <sodipodi:namedview
     pagecolor="#ffffff"
     bordercolor="#666666"
     borderopacity="1"
     objecttolerance="10"
     gridtolerance="10"
     guidetolerance="10"
     inkscape:pageopacity="0"
     inkscape:pageshadow="2"
     inkscape:window-width="640"
     inkscape:window-height="480"
     id="namedview3077"
     showgrid="false"
     inkscape:zoom="4.9166667"
     inkscape:cx="24"
     inkscape:cy="24"
     inkscape:window-x="0"
     inkscape:window-y="0"
     inkscape:window-maximized="0"
     inkscape:current-layer="svg3059" />
  <defs
     id="defs3061" />
  <path
     style="fill:#9a773c"
     d="M 8 1 C 6.9714285 1 6 1.9714285 6 3 L 6 45 C 6 45.971429 7.0285714 47 8 47 L 40 47 C 40.971429 47 42 45.971429 42 45 L 42 14 L 29 1 L 22 1 L 22 5 L 18 5 L 18 9 L 22 9 L 22 13 L 18 13 L 18 9 L 14 9 L 14 5 L 18 5 L 18 1 L 8 1 z M 14 15 L 18 15 L 22 15 L 22 23 L 14 23 L 14 15 z M 31.53125 23 C 31.656569 22.937456 31.77421 23.101473 31.8125 23.40625 C 32.474202 29.505053 31.397847 33.009681 29.53125 34.875 L 29.5625 34.90625 L 29.625 34.90625 L 31 35.8125 C 31.160389 35.64299 31.370514 35.52663 31.65625 35.5 C 33.191975 35.356889 33.412349 36.974476 34 39 C 34 39 32.856943 38.384889 31.625 37.90625 C 30.940926 37.640471 30.65425 37.02312 30.71875 36.46875 L 29.15625 35.90625 L 29.09375 35.8125 C 29.08727 35.8106 29.0689 35.8144 29.0625 35.8125 C 29.03243 35.80354 29.02945 35.79075 29 35.78125 L 28.8125 35.84375 C 28.8031 35.811283 28.8144 35.78645 28.8125 35.75 C 28.736671 35.72339 28.66919 35.68232 28.59375 35.65625 C 25.106366 37.93254 19.838149 35.946226 17.1875 33.8125 C 17.071138 33.8304 16.97039 33.85115 16.84375 33.84375 C 16.434507 33.819741 15.987588 33.669299 15.59375 33.40625 C 15.244539 33.173008 14.924505 32.846409 14.65625 32.46875 C 14.402324 32.111264 14.234377 31.719887 14.125 31.34375 C 13.99934 30.911616 13.96555 30.502838 14.03125 30.125 C 14.107041 29.689157 14.293696 29.336447 14.625 29.09375 C 14.956204 28.851125 15.381419 28.74818 15.8125 28.8125 C 16.186412 28.868292 16.573186 29.023833 16.9375 29.28125 C 17.25457 29.505285 17.558461 29.830026 17.8125 30.1875 C 17.854642 30.246796 17.86788 30.31412 17.90625 30.375 C 18.612074 29.495076 18.25 28.65625 18.25 28.65625 L 18.34375 24.875 C 18.34375 24.875 19.736741 27.80194 23.03125 27.71875 C 29.935305 27.542871 31.170541 23.902637 31.34375 23.375 C 31.408703 23.177136 31.45606 23.03753 31.53125 23 z "
     id="path3063" />
</svg>
