<?xml version="1.0" encoding="UTF-8" standalone="no"?>
<svg
   xmlns:dc="http://purl.org/dc/elements/1.1/"
   xmlns:cc="http://creativecommons.org/ns#"
   xmlns:rdf="http://www.w3.org/1999/02/22-rdf-syntax-ns#"
   xmlns:svg="http://www.w3.org/2000/svg"
   xmlns="http://www.w3.org/2000/svg"
   xmlns:sodipodi="http://sodipodi.sourceforge.net/DTD/sodipodi-0.dtd"
   xmlns:inkscape="http://www.inkscape.org/namespaces/inkscape"
   width="48"
   viewBox="0 0 48 48"
   height="48"
   id="svg3013"
   version="1.1"
   inkscape:version="0.48.4 r9939"
   sodipodi:docname="text-x-c.svg">
  <metadata
     id="metadata3029">
    <rdf:RDF>
      <cc:Work
         rdf:about="">
        <dc:format>image/svg+xml</dc:format>
        <dc:type
           rdf:resource="http://purl.org/dc/dcmitype/StillImage" />
      </cc:Work>
    </rdf:RDF>
  </metadata>
  <defs
     id="defs3027" />
  <sodipodi:namedview
     pagecolor="#ffffff"
     bordercolor="#666666"
     borderopacity="1"
     objecttolerance="10"
     gridtolerance="10"
     guidetolerance="10"
     inkscape:pageopacity="0"
     inkscape:pageshadow="2"
     inkscape:window-width="640"
     inkscape:window-height="480"
     id="namedview3025"
     showgrid="false"
     inkscape:zoom="4.9166667"
     inkscape:cx="24"
     inkscape:cy="24"
     inkscape:window-x="0"
     inkscape:window-y="0"
     inkscape:window-maximized="0"
     inkscape:current-layer="svg3013" />
  <path
     style="fill:#2d2d2d"
     d="M 8 1 C 6.9714285 1 6 1.9714285 6 3 L 6 45 C 6 45.971429 7.0285714 47 8 47 L 40 47 C 40.971429 47 42 45.971429 42 45 L 42 14 L 29 1 L 8 1 z M 24.8125 20 C 26.452179 20.000015 27.871555 20.331727 29.0625 20.96875 C 30.270677 21.605803 31.149158 22.415288 31.71875 23.4375 L 28.96875 25.0625 C 28.761619 24.618065 28.484176 24.265058 28.15625 23.96875 C 27.8283 23.65765 27.490715 23.396541 27.09375 23.21875 C 26.714021 23.040985 26.289226 22.917837 25.875 22.84375 C 25.460752 22.75487 25.067208 22.718763 24.6875 22.71875 C 23.841756 22.718763 23.107358 22.876401 22.46875 23.1875 C 21.830128 23.498624 21.306491 23.902557 20.875 24.40625 C 20.460757 24.895152 20.130623 25.456721 19.90625 26.09375 C 19.699127 26.715983 19.593745 27.346534 19.59375 27.96875 C 19.593745 28.665055 19.727106 29.316903 19.96875 29.96875 C 20.227643 30.605794 20.582487 31.167365 21.03125 31.65625 C 21.49726 32.145144 22.048877 32.547456 22.6875 32.84375 C 23.326107 33.140049 24.021806 33.281253 24.78125 33.28125 C 25.178218 33.281253 25.585752 33.245144 26 33.15625 C 26.414226 33.06736 26.807771 32.911346 27.1875 32.71875 C 27.584465 32.52616 27.9533 32.2963 28.28125 32 C 28.609175 31.688892 28.855369 31.304635 29.0625 30.875 L 32 32.34375 C 31.723825 32.936347 31.316291 33.446992 30.78125 33.90625 C 30.263439 34.350697 29.673122 34.720139 29 35.03125 C 28.326852 35.342363 27.617163 35.587037 26.875 35.75 C 26.132814 35.912964 25.412406 36 24.6875 36 C 23.41026 36 22.226356 35.755326 21.15625 35.28125 C 20.103392 34.807176 19.182941 34.193059 18.40625 33.4375 C 17.646813 32.667131 17.056495 31.80672 16.625 30.84375 C 16.210762 29.865976 15.999999 28.882417 16 27.875 C 15.999999 26.912044 16.196772 25.964596 16.59375 25.03125 C 16.990726 24.083111 17.570323 23.240755 18.3125 22.5 C 19.071931 21.759272 19.975121 21.146775 21.0625 20.6875 C 22.149865 20.228254 23.414441 20.000015 24.8125 20 z "
     id="path3015" />
</svg>
