<?xml version="1.0" encoding="UTF-8" standalone="no"?>
<svg
   xmlns:dc="http://purl.org/dc/elements/1.1/"
   xmlns:cc="http://creativecommons.org/ns#"
   xmlns:rdf="http://www.w3.org/1999/02/22-rdf-syntax-ns#"
   xmlns:svg="http://www.w3.org/2000/svg"
   xmlns="http://www.w3.org/2000/svg"
   xmlns:sodipodi="http://sodipodi.sourceforge.net/DTD/sodipodi-0.dtd"
   xmlns:inkscape="http://www.inkscape.org/namespaces/inkscape"
   width="48"
   viewBox="0 0 48 48"
   height="48"
   id="svg3039"
   version="1.1"
   inkscape:version="0.48.4 r9939"
   sodipodi:docname="text-x-sql.svg">
  <metadata
     id="metadata3069">
    <rdf:RDF>
      <cc:Work
         rdf:about="">
        <dc:format>image/svg+xml</dc:format>
        <dc:type
           rdf:resource="http://purl.org/dc/dcmitype/StillImage" />
      </cc:Work>
    </rdf:RDF>
  </metadata>
  <defs
     id="defs3067" />
  <sodipodi:namedview
     pagecolor="#ffffff"
     bordercolor="#666666"
     borderopacity="1"
     objecttolerance="10"
     gridtolerance="10"
     guidetolerance="10"
     inkscape:pageopacity="0"
     inkscape:pageshadow="2"
     inkscape:window-width="640"
     inkscape:window-height="480"
     id="namedview3065"
     showgrid="false"
     inkscape:zoom="4.9166667"
     inkscape:cx="24"
     inkscape:cy="24"
     inkscape:window-x="0"
     inkscape:window-y="0"
     inkscape:window-maximized="0"
     inkscape:current-layer="svg3039" />
  <path
     style="fill:#a4373a"
     d="M 8 1 C 6.9714285 1 6 1.9714285 6 3 L 6 45 C 6 45.971429 7.0285714 47 8 47 L 40 47 C 40.971429 47 42 45.971429 42 45 L 42 14 L 29 1 L 8 1 z M 24 16 C 28.418213 16 32 17.119273 32 18.5 L 32 20.5 C 32 21.880697 28.418213 23 24 23 C 19.581662 23 16 21.880697 16 20.5 L 16 18.5 C 16 17.119273 19.581757 16 24 16 z M 16.34375 22.25 C 17.363109 23.264265 20.386712 24 23.96875 24 C 27.550787 24 30.605674 23.264265 31.625 22.25 C 31.862966 22.486777 32 22.738723 32 23 L 32 25 C 32 26.380728 28.418213 27.5 24 27.5 C 19.581662 27.5 16 26.380728 16 25 L 16 23 C 16 22.738723 16.105785 22.486777 16.34375 22.25 z M 16.34375 26.75 C 17.363109 27.764234 20.386712 28.5 23.96875 28.5 C 27.550787 28.5 30.605674 27.764234 31.625 26.75 C 31.862966 26.986746 32 27.238723 32 27.5 L 32 29.5 C 32 30.880697 28.418213 32 24 32 C 19.581662 32 16 30.880697 16 29.5 L 16 27.5 C 16 27.238723 16.105785 26.986746 16.34375 26.75 z M 17.125 37 C 17.660209 37.000007 18.105628 37.038665 18.5 37.125 C 18.903752 37.21135 19.258943 37.299988 19.53125 37.40625 L 19 38.375 C 18.765252 38.28202 18.509827 38.191423 18.21875 38.125 C 17.937055 38.05859 17.625584 38.03126 17.25 38.03125 C 16.329807 38.031256 15.843748 38.247188 15.84375 38.71875 C 15.843748 38.838307 15.906094 38.96952 16 39.0625 C 16.09389 39.14885 16.202901 39.208195 16.34375 39.28125 C 16.493983 39.34767 16.665343 39.41562 16.84375 39.46875 C 17.031541 39.52189 17.227842 39.578511 17.40625 39.625 C 17.678548 39.69806 17.958914 39.782019 18.25 39.875 C 18.550466 39.96135 18.818363 40.065992 19.0625 40.21875 C 19.316016 40.364872 19.52787 40.555432 19.6875 40.78125 C 19.847119 41.000431 19.906244 41.286271 19.90625 41.625 C 19.906244 42.202837 19.660207 42.649944 19.125 42.96875 C 18.599171 43.280914 17.798562 43.4375 16.71875 43.4375 C 15.99574 43.4375 15.400675 43.387512 14.96875 43.28125 C 14.536823 43.16834 14.215963 43.061735 14 42.96875 L 14.5 41.96875 C 14.753521 42.07502 15.05883 42.188266 15.40625 42.28125 C 15.763058 42.37424 16.211703 42.406252 16.71875 42.40625 C 17.009827 42.406252 17.249703 42.3836 17.4375 42.34375 C 17.63468 42.29726 17.762319 42.229311 17.875 42.15625 C 17.987672 42.07655 18.087436 41.999237 18.125 41.90625 C 18.17194 41.80663 18.1875 41.724629 18.1875 41.625 C 18.187496 41.498808 18.13453 41.380879 18.03125 41.28125 C 17.927958 41.18162 17.784621 41.073062 17.625 41 C 17.465371 40.9203 17.290929 40.872279 17.09375 40.8125 C 16.896563 40.74608 16.697181 40.678137 16.5 40.625 C 16.237086 40.55858 15.969189 40.492597 15.6875 40.40625 C 15.405806 40.31991 15.140991 40.195339 14.90625 40.0625 C 14.680896 39.929668 14.493985 39.786366 14.34375 39.59375 C 14.193514 39.394501 14.125 39.135993 14.125 38.84375 C 14.125 38.26592 14.380426 37.825453 14.90625 37.5 C 15.441461 37.174559 16.195417 37.000007 17.125 37 z M 24 37.03125 C 25.023474 37.031257 25.808532 37.29913 26.34375 37.84375 C 26.878957 38.38174 27.156244 39.187319 27.15625 40.25 C 27.156244 41.179852 26.92253 41.899517 26.5 42.4375 C 26.077458 42.968844 25.485621 43.29334 24.6875 43.40625 C 24.790783 43.572295 25.043128 43.706232 25.4375 43.8125 C 25.841252 43.92541 26.367656 44.038657 27.0625 44.125 L 26.71875 45 C 25.62015 44.89373 24.782129 44.721136 24.21875 44.46875 C 23.664754 44.223003 23.322034 43.871175 23.21875 43.40625 C 22.458182 43.273415 21.881897 42.930952 21.46875 42.40625 C 21.064992 41.874909 20.84375 41.159927 20.84375 40.25 C 20.84375 39.187319 21.133507 38.38174 21.6875 37.84375 C 22.241491 37.29913 23.014079 37.031257 24 37.03125 z M 28.53125 37.125 L 30.28125 37.125 L 30.28125 42.28125 L 34 42.28125 L 34 43.3125 L 28.53125 43.3125 L 28.53125 37.125 z M 24 38.09375 C 23.699526 38.093756 23.459652 38.137094 23.28125 38.25 C 23.102843 38.362915 22.947034 38.519501 22.84375 38.71875 C 22.74986 38.911366 22.693806 39.147224 22.65625 39.40625 C 22.62808 39.665284 22.625 39.951123 22.625 40.25 C 22.624998 40.548883 22.62809 40.834723 22.65625 41.09375 C 22.69381 41.352782 22.749851 41.581998 22.84375 41.78125 C 22.947034 41.973863 23.102843 42.105841 23.28125 42.21875 C 23.459652 42.331662 23.699526 42.406251 24 42.40625 C 24.291078 42.406251 24.540342 42.331666 24.71875 42.21875 C 24.90654 42.105841 25.031098 41.973863 25.125 41.78125 C 25.228282 41.581998 25.284325 41.352782 25.3125 41.09375 C 25.35005 40.834723 25.375 40.548883 25.375 40.25 C 25.374995 39.951123 25.35006 39.665284 25.3125 39.40625 C 25.28432 39.140583 25.228284 38.911366 25.125 38.71875 C 25.0311 38.526144 24.89715 38.362915 24.71875 38.25 C 24.540341 38.137095 24.300467 38.093756 24 38.09375 z "
     id="path3041" />
</svg>
