<?xml version="1.0" encoding="UTF-8" standalone="no"?>
<svg
   xmlns:dc="http://purl.org/dc/elements/1.1/"
   xmlns:cc="http://creativecommons.org/ns#"
   xmlns:rdf="http://www.w3.org/1999/02/22-rdf-syntax-ns#"
   xmlns:svg="http://www.w3.org/2000/svg"
   xmlns="http://www.w3.org/2000/svg"
   xmlns:sodipodi="http://sodipodi.sourceforge.net/DTD/sodipodi-0.dtd"
   xmlns:inkscape="http://www.inkscape.org/namespaces/inkscape"
   width="48"
   viewBox="0 0 48 48"
   height="48"
   id="svg2"
   version="1.1"
   inkscape:version="0.48.4 r9939"
   sodipodi:docname="text-html.svg">
  <metadata
     id="metadata36">
    <rdf:RDF>
      <cc:Work
         rdf:about="">
        <dc:format>image/svg+xml</dc:format>
        <dc:type
           rdf:resource="http://purl.org/dc/dcmitype/StillImage" />
      </cc:Work>
    </rdf:RDF>
  </metadata>
  <defs
     id="defs34" />
  <sodipodi:namedview
     pagecolor="#ffffff"
     bordercolor="#666666"
     borderopacity="1"
     objecttolerance="10"
     gridtolerance="10"
     guidetolerance="10"
     inkscape:pageopacity="0"
     inkscape:pageshadow="2"
     inkscape:window-width="640"
     inkscape:window-height="480"
     id="namedview32"
     showgrid="false"
     inkscape:zoom="4.9166667"
     inkscape:cx="24.032966"
     inkscape:cy="14.962315"
     inkscape:window-x="0"
     inkscape:window-y="0"
     inkscape:window-maximized="0"
     inkscape:current-layer="svg2" />
  <path
     style="fill:#7099c4"
     d="M 8 1 C 6.9714285 1 6 1.9714285 6 3 L 6 45 C 6 45.971429 7.0285714 47 8 47 L 40 47 C 40.971429 47 42 45.971429 42 45 L 42 14 L 29 1 L 8 1 z M 24 18 C 28.960856 18 33 22.039144 33 27 C 33 31.960855 28.960856 36 24 36 C 19.039144 36 15 31.960855 15 27 C 15 22.039144 19.039144 18 24 18 z M 23.1875 19.65625 C 22.733534 19.706034 22.300245 19.840533 21.875 19.96875 C 21.550566 20.949835 21.283167 21.930108 21.09375 22.90625 L 23.1875 22.90625 L 23.1875 19.65625 z M 24.8125 19.65625 L 24.8125 22.90625 L 26.8125 22.90625 C 26.623683 21.894988 26.381919 20.900277 26.0625 19.9375 C 25.657941 19.819722 25.24267 19.703424 24.8125 19.65625 z M 28.03125 20.8125 C 28.213746 21.500114 28.376621 22.204599 28.5 22.90625 L 30.15625 22.90625 C 29.601781 22.074626 28.868444 21.359227 28.03125 20.8125 z M 19.875 20.875 C 19.078318 21.412996 18.377153 22.106221 17.84375 22.90625 L 19.4375 22.90625 C 19.558259 22.228985 19.694341 21.550904 19.875 20.875 z M 17.0625 24.53125 C 16.875149 25.058684 16.719325 25.612333 16.65625 26.1875 L 19.0625 26.1875 C 19.082014 25.634759 19.128213 25.083701 19.1875 24.53125 L 17.0625 24.53125 z M 20.84375 24.53125 C 20.779083 25.084362 20.739922 25.634857 20.71875 26.1875 L 23.1875 26.1875 L 23.1875 24.53125 L 20.84375 24.53125 z M 24.8125 24.53125 L 24.8125 26.1875 L 27.1875 26.1875 C 27.161005 25.637512 27.127047 25.083761 27.0625 24.53125 L 24.8125 24.53125 z M 28.71875 24.53125 C 28.779716 25.084831 28.819437 25.636025 28.84375 26.1875 L 31.34375 26.1875 C 31.280675 25.612333 31.124851 25.058684 30.9375 24.53125 L 28.71875 24.53125 z M 16.65625 27.8125 C 16.719325 28.387667 16.875149 28.941316 17.0625 29.46875 L 19.1875 29.46875 C 19.128213 28.916299 19.082014 28.365241 19.0625 27.8125 L 16.65625 27.8125 z M 20.71875 27.8125 C 20.739922 28.365143 20.779083 28.915638 20.84375 29.46875 L 23.1875 29.46875 L 23.1875 27.8125 L 20.71875 27.8125 z M 24.8125 27.8125 L 24.8125 29.46875 L 27.15625 29.46875 C 27.208558 28.925307 27.207164 28.373737 27.21875 27.8125 L 24.8125 27.8125 z M 28.875 27.8125 C 28.862464 28.375505 28.833227 28.9189 28.78125 29.46875 L 30.9375 29.46875 C 31.124851 28.941316 31.280675 28.387667 31.34375 27.8125 L 28.875 27.8125 z M 17.84375 31.09375 C 18.377153 31.893779 19.078318 32.587004 19.875 33.125 C 19.694341 32.449096 19.558259 31.771015 19.4375 31.09375 L 17.84375 31.09375 z M 21.09375 31.09375 C 21.283167 32.069892 21.550566 33.050165 21.875 34.03125 C 22.300245 34.159467 22.733534 34.293966 23.1875 34.34375 L 23.1875 31.09375 L 21.09375 31.09375 z M 24.8125 31.09375 L 24.8125 34.34375 C 25.25314 34.295428 25.680065 34.184823 26.09375 34.0625 C 26.456508 33.155606 26.74577 32.159672 26.9375 31.09375 L 24.8125 31.09375 z M 28.5625 31.09375 C 28.442937 31.788886 28.31256 32.473067 28.125 33.125 C 28.921682 32.587004 29.622847 31.893779 30.15625 31.09375 L 28.5625 31.09375 z "
     id="path4" />
</svg>
