<?xml version="1.0" encoding="UTF-8" standalone="no"?>
<svg
   xmlns:dc="http://purl.org/dc/elements/1.1/"
   xmlns:cc="http://creativecommons.org/ns#"
   xmlns:rdf="http://www.w3.org/1999/02/22-rdf-syntax-ns#"
   xmlns:svg="http://www.w3.org/2000/svg"
   xmlns="http://www.w3.org/2000/svg"
   xmlns:sodipodi="http://sodipodi.sourceforge.net/DTD/sodipodi-0.dtd"
   xmlns:inkscape="http://www.inkscape.org/namespaces/inkscape"
   width="48"
   viewBox="0 0 48 48"
   height="48"
   id="svg3089"
   version="1.1"
   inkscape:version="0.48.4 r9939"
   sodipodi:docname="unknown.svg">
  <metadata
     id="metadata3105">
    <rdf:RDF>
      <cc:Work
         rdf:about="">
        <dc:format>image/svg+xml</dc:format>
        <dc:type
           rdf:resource="http://purl.org/dc/dcmitype/StillImage" />
      </cc:Work>
    </rdf:RDF>
  </metadata>
  <defs
     id="defs3103" />
  <sodipodi:namedview
     pagecolor="#ffffff"
     bordercolor="#666666"
     borderopacity="1"
     objecttolerance="10"
     gridtolerance="10"
     guidetolerance="10"
     inkscape:pageopacity="0"
     inkscape:pageshadow="2"
     inkscape:window-width="640"
     inkscape:window-height="480"
     id="namedview3101"
     showgrid="false"
     inkscape:zoom="4.9166667"
     inkscape:cx="24"
     inkscape:cy="24"
     inkscape:window-x="0"
     inkscape:window-y="0"
     inkscape:window-maximized="0"
     inkscape:current-layer="svg3089" />
  <path
     style="fill:#888888"
     d="M 8 1 C 6.9714285 1 6 1.9714285 6 3 L 6 45 C 6 45.971429 7.0285714 47 8 47 L 40 47 C 40.971429 47 42 45.971429 42 45 L 42 14 L 29 1 L 8 1 z M 23.9375 16 C 25.852282 16.00002 27.343581 16.421091 28.40625 17.25 C 29.468896 18.078945 29.999987 19.242072 30 20.75 C 29.999987 21.393756 29.887984 21.974935 29.6875 22.46875 C 29.497011 22.953775 29.224692 23.402843 28.84375 23.84375 C 28.462786 24.275862 27.63815 24.967489 26.375 25.9375 C 25.362459 26.69589 24.70582 27.34111 24.375 27.84375 C 24.054191 28.346406 23.874994 29.00601 23.875 29.84375 L 23.875 30.28125 L 21.9375 30.28125 L 21.9375 29.5625 C 21.937496 28.530757 22.107843 27.692637 22.46875 27.03125 C 22.829649 26.361062 23.517536 25.647004 24.5 24.90625 C 25.863403 23.892147 26.711612 23.136479 27.0625 22.625 C 27.423392 22.113548 27.59374 21.504371 27.59375 20.78125 C 27.59374 19.881791 27.286645 19.172527 26.625 18.6875 C 25.973361 18.193688 25.014328 17.968767 23.78125 17.96875 C 22.989263 17.968767 22.220627 18.051217 21.46875 18.21875 C 20.716866 18.377498 19.84743 18.661666 18.875 19.09375 L 18 17.3125 C 19.894739 16.4395 21.872328 16.00002 23.9375 16 z M 23 32.40625 C 23.581449 32.406253 24.032966 32.566359 24.34375 32.875 C 24.664545 33.183646 24.812494 33.636739 24.8125 34.21875 C 24.812494 34.783127 24.664545 35.213789 24.34375 35.53125 C 24.02294 35.839894 23.571425 36 23 36 C 22.478691 36 22.059598 35.86712 21.71875 35.59375 C 21.377894 35.311562 21.187496 34.853674 21.1875 34.21875 C 21.187496 33.019452 21.796986 32.406253 23 32.40625 z "
     id="path3091" />
</svg>
