<?xml version="1.0" encoding="UTF-8" standalone="no"?>
<svg
   xmlns:dc="http://purl.org/dc/elements/1.1/"
   xmlns:cc="http://creativecommons.org/ns#"
   xmlns:rdf="http://www.w3.org/1999/02/22-rdf-syntax-ns#"
   xmlns:svg="http://www.w3.org/2000/svg"
   xmlns="http://www.w3.org/2000/svg"
   xmlns:sodipodi="http://sodipodi.sourceforge.net/DTD/sodipodi-0.dtd"
   xmlns:inkscape="http://www.inkscape.org/namespaces/inkscape"
   width="48"
   viewBox="0 0 48 48"
   height="48"
   id="svg3133"
   version="1.1"
   inkscape:version="0.48.4 r9939"
   sodipodi:docname="wps-office-xls.svg">
  <metadata
     id="metadata3161">
    <rdf:RDF>
      <cc:Work
         rdf:about="">
        <dc:format>image/svg+xml</dc:format>
        <dc:type
           rdf:resource="http://purl.org/dc/dcmitype/StillImage" />
      </cc:Work>
    </rdf:RDF>
  </metadata>
  <defs
     id="defs3159" />
  <sodipodi:namedview
     pagecolor="#ffffff"
     bordercolor="#666666"
     borderopacity="1"
     objecttolerance="10"
     gridtolerance="10"
     guidetolerance="10"
     inkscape:pageopacity="0"
     inkscape:pageshadow="2"
     inkscape:window-width="640"
     inkscape:window-height="480"
     id="namedview3157"
     showgrid="false"
     inkscape:zoom="4.9166667"
     inkscape:cx="24"
     inkscape:cy="24"
     inkscape:window-x="0"
     inkscape:window-y="0"
     inkscape:window-maximized="0"
     inkscape:current-layer="svg3133" />
  <path
     style="fill:#207245"
     d="M 8 1 C 6.9714285 1 6 1.9714285 6 3 L 6 45 C 6 45.971429 7.0285714 47 8 47 L 40 47 C 40.971429 47 42 45.971429 42 45 L 42 14 L 29 1 L 8 1 z M 14 18 L 34 18 L 34 32 L 14 32 L 14 18 z M 16 20 L 16 24 L 21 24 L 21 20 L 16 20 z M 23 20 L 23 24 L 32 24 L 32 20 L 23 20 z M 16 26 L 16 30 L 21 30 L 21 26 L 16 26 z M 23 26 L 23 30 L 32 30 L 32 26 L 23 26 z M 31.25 37 C 31.774495 37.000008 32.238523 37.04893 32.625 37.15625 C 33.020671 37.263584 33.358144 37.399162 33.625 37.53125 L 33.125 38.6875 C 32.894951 38.571924 32.629 38.488816 32.34375 38.40625 C 32.067692 38.3237 31.743065 38.281257 31.375 38.28125 C 30.473225 38.281257 30.031248 38.570088 30.03125 39.15625 C 30.031248 39.304861 30.064233 39.446922 30.15625 39.5625 C 30.24827 39.669831 30.361971 39.75294 30.5 39.84375 C 30.647225 39.92632 30.825163 39.996458 31 40.0625 C 31.184031 40.12855 31.356412 40.192212 31.53125 40.25 C 31.798096 40.34082 32.058491 40.446923 32.34375 40.5625 C 32.638202 40.669832 32.917 40.810118 33.15625 41 C 33.404692 41.181633 33.593564 41.438053 33.75 41.71875 C 33.906423 41.991197 33.999993 42.328952 34 42.75 C 33.999993 43.468265 33.743244 44.009968 33.21875 44.40625 C 32.703447 44.794277 31.901948 45 30.84375 45 C 30.135213 45 29.579529 44.944592 29.15625 44.8125 C 28.732967 44.67215 28.39914 44.521832 28.1875 44.40625 L 28.6875 43.1875 C 28.935946 43.319596 29.253283 43.446918 29.59375 43.5625 C 29.943415 43.678083 30.346853 43.718751 30.84375 43.71875 C 31.129001 43.718751 31.378461 43.70578 31.5625 43.65625 C 31.755732 43.59846 31.889574 43.528317 32 43.4375 C 32.110417 43.33843 32.181939 43.209334 32.21875 43.09375 C 32.26476 42.969914 32.3125 42.842591 32.3125 42.71875 C 32.312496 42.56189 32.257469 42.43634 32.15625 42.3125 C 32.055027 42.188664 31.906425 42.090817 31.75 42 C 31.593566 41.90093 31.443232 41.793055 31.25 41.71875 C 31.056759 41.63619 30.849483 41.56605 30.65625 41.5 C 30.398598 41.41744 30.1198 41.32608 29.84375 41.21875 C 29.567696 41.111427 29.323792 40.977622 29.09375 40.8125 C 28.872906 40.647387 28.709727 40.458176 28.5625 40.21875 C 28.415271 39.971078 28.312499 39.644514 28.3125 39.28125 C 28.312499 38.562994 28.578451 37.998295 29.09375 37.59375 C 29.618249 37.189218 30.339023 37.000008 31.25 37 z M 14.125 37.1875 L 15.96875 37.1875 L 17.3125 39.625 L 18.75 37.1875 L 20.46875 37.1875 L 18.28125 40.75 C 18.529693 41.105008 18.760749 41.486976 19 41.875 C 19.23924 42.263029 19.485056 42.628487 19.6875 43 C 19.899135 43.36326 20.062314 43.709271 20.21875 44.03125 C 20.375173 44.344974 20.501727 44.620842 20.59375 44.84375 L 18.75 44.84375 C 18.575161 44.4227 18.382644 43.949367 18.125 43.4375 C 17.876548 42.925638 17.588549 42.418118 17.3125 41.90625 C 17.045646 42.39335 16.798097 42.909125 16.53125 43.4375 C 16.264396 43.957622 16.036985 44.4227 15.84375 44.84375 L 14 44.84375 C 14.09202 44.620842 14.231416 44.344974 14.40625 44.03125 C 14.590285 43.717527 14.788359 43.394511 15 43.03125 C 15.22084 42.667993 15.448253 42.286024 15.6875 41.90625 C 15.926744 41.518227 16.154155 41.136258 16.375 40.78125 L 14.125 37.1875 z M 21.71875 37.1875 L 23.4375 37.1875 L 23.4375 43.5625 L 27.09375 43.5625 L 27.09375 44.84375 L 21.71875 44.84375 L 21.71875 37.1875 z "
     id="path3135" />
</svg>
