<?xml version="1.0" encoding="UTF-8" standalone="no"?>
<svg
   xmlns:dc="http://purl.org/dc/elements/1.1/"
   xmlns:cc="http://creativecommons.org/ns#"
   xmlns:rdf="http://www.w3.org/1999/02/22-rdf-syntax-ns#"
   xmlns:svg="http://www.w3.org/2000/svg"
   xmlns="http://www.w3.org/2000/svg"
   xmlns:sodipodi="http://sodipodi.sourceforge.net/DTD/sodipodi-0.dtd"
   xmlns:inkscape="http://www.inkscape.org/namespaces/inkscape"
   width="48"
   viewBox="0 0 48 48"
   height="48"
   id="svg2"
   version="1.1"
   inkscape:version="0.48.4 r9939"
   sodipodi:docname="wps-office-pot.svg">
  <metadata
     id="metadata34">
    <rdf:RDF>
      <cc:Work
         rdf:about="">
        <dc:format>image/svg+xml</dc:format>
        <dc:type
           rdf:resource="http://purl.org/dc/dcmitype/StillImage" />
      </cc:Work>
    </rdf:RDF>
  </metadata>
  <defs
     id="defs32" />
  <sodipodi:namedview
     pagecolor="#ffffff"
     bordercolor="#666666"
     borderopacity="1"
     objecttolerance="10"
     gridtolerance="10"
     guidetolerance="10"
     inkscape:pageopacity="0"
     inkscape:pageshadow="2"
     inkscape:window-width="640"
     inkscape:window-height="480"
     id="namedview30"
     showgrid="false"
     inkscape:zoom="4.9166667"
     inkscape:cx="24"
     inkscape:cy="24"
     inkscape:window-x="0"
     inkscape:window-y="0"
     inkscape:window-maximized="0"
     inkscape:current-layer="svg2" />
  <path
     style="fill:#d24726"
     d="M 8 1 C 6.9714285 1 6 1.9714285 6 3 L 6 14 L 6 45 C 6 45.971429 7.0285714 47 8 47 L 40 47 C 40.971429 47 42 45.971429 42 45 L 42 14 L 42 3 C 42 1.9714285 41.028571 1 40 1 L 29 1 L 19 1 L 8 1 z M 12 16 L 19 16 L 19 21 L 12 21 L 12 16 z M 29.53125 16 C 33.09985 16 36 18.833102 36 22.3125 L 29.53125 22.3125 L 29.53125 16 z M 28.625 16.90625 L 28.625 23.1875 L 35.0625 23.1875 C 35.0625 26.666898 32.193605 29.5 28.625 29.5 C 25.056396 29.5 22.15625 26.666898 22.15625 23.1875 C 22.15625 19.708101 25.056396 16.90625 28.625 16.90625 z M 12 24 L 19 24 L 19 29 L 12 29 L 12 24 z M 23.78125 37 C 24.804001 37.000008 25.590159 37.323019 26.125 38 C 26.659829 38.668739 26.937494 39.679051 26.9375 41 C 26.937494 42.320956 26.669211 43.323013 26.125 44 C 25.580775 44.668733 24.807101 45 23.8125 45 C 22.789742 45 22.012965 44.668733 21.46875 44 C 20.933913 43.323013 20.656249 42.320956 20.65625 41 C 20.656249 39.679051 20.946398 38.668739 21.5 38 C 22.0536 37.323019 22.796024 37.000008 23.78125 37 z M 15.84375 37.09375 C 16.050175 37.08545 16.246735 37.09376 16.40625 37.09375 C 17.513448 37.093757 18.358846 37.282966 18.96875 37.6875 C 19.578644 38.083793 19.874994 38.7481 19.875 39.65625 C 19.874994 40.572666 19.588026 41.243456 18.96875 41.65625 C 18.358845 42.060795 17.469714 42.250002 16.34375 42.25 L 15.71875 42.25 L 15.71875 44.84375 L 14 44.84375 L 14 37.28125 C 14.168894 37.24823 14.356071 37.21228 14.5625 37.1875 C 14.778309 37.16274 15.002937 37.13327 15.21875 37.125 C 15.434559 37.10849 15.637321 37.10201 15.84375 37.09375 z M 27.65625 37.1875 L 34 37.1875 L 34 38.4375 L 31.71875 38.4375 L 31.71875 44.84375 L 29.96875 44.84375 L 29.96875 38.4375 L 27.65625 38.4375 L 27.65625 37.1875 z M 23.78125 38.3125 C 23.480988 38.312507 23.272025 38.390902 23.09375 38.53125 C 22.915468 38.671606 22.75946 38.877327 22.65625 39.125 C 22.56241 39.364427 22.50628 39.646773 22.46875 39.96875 C 22.4406 40.290737 22.40625 40.628486 22.40625 41 C 22.406248 41.371522 22.44059 41.732264 22.46875 42.0625 C 22.50628 42.384485 22.562412 42.66683 22.65625 42.90625 C 22.759457 43.145675 22.915468 43.3284 23.09375 43.46875 C 23.272025 43.609102 23.480988 43.687501 23.78125 43.6875 C 24.072122 43.687501 24.321717 43.609107 24.5 43.46875 C 24.687657 43.3284 24.843664 43.145675 24.9375 42.90625 C 25.040707 42.658574 25.096846 42.353235 25.125 42.03125 C 25.16253 41.70927 25.18749 41.371522 25.1875 41 C 25.187496 40.628486 25.16253 40.290737 25.125 39.96875 C 25.09684 39.638517 25.040704 39.333178 24.9375 39.09375 C 24.84366 38.854333 24.678274 38.671606 24.5 38.53125 C 24.321718 38.390905 24.081504 38.312507 23.78125 38.3125 z M 16.59375 38.40625 C 16.490532 38.406256 16.343908 38.42922 16.15625 38.4375 C 15.977968 38.437506 15.82196 38.42104 15.71875 38.4375 L 15.71875 40.9375 L 16.4375 40.9375 C 16.991098 40.937503 17.406003 40.846141 17.6875 40.65625 C 17.968988 40.458111 18.124996 40.095594 18.125 39.625 C 18.124996 39.179184 17.968988 38.869136 17.6875 38.6875 C 17.415386 38.497618 17.053518 38.406257 16.59375 38.40625 z "
     id="path4" />
</svg>
