<?xml version="1.0" encoding="UTF-8" standalone="no"?>
<svg
   xmlns:dc="http://purl.org/dc/elements/1.1/"
   xmlns:cc="http://creativecommons.org/ns#"
   xmlns:rdf="http://www.w3.org/1999/02/22-rdf-syntax-ns#"
   xmlns:svg="http://www.w3.org/2000/svg"
   xmlns="http://www.w3.org/2000/svg"
   xmlns:sodipodi="http://sodipodi.sourceforge.net/DTD/sodipodi-0.dtd"
   xmlns:inkscape="http://www.inkscape.org/namespaces/inkscape"
   width="48"
   viewBox="0 0 48 48"
   height="48"
   id="svg3061"
   version="1.1"
   inkscape:version="0.48.4 r9939"
   sodipodi:docname="wps-office-dps.svg">
  <metadata
     id="metadata3097">
    <rdf:RDF>
      <cc:Work
         rdf:about="">
        <dc:format>image/svg+xml</dc:format>
        <dc:type
           rdf:resource="http://purl.org/dc/dcmitype/StillImage" />
      </cc:Work>
    </rdf:RDF>
  </metadata>
  <defs
     id="defs3095" />
  <sodipodi:namedview
     pagecolor="#ffffff"
     bordercolor="#666666"
     borderopacity="1"
     objecttolerance="10"
     gridtolerance="10"
     guidetolerance="10"
     inkscape:pageopacity="0"
     inkscape:pageshadow="2"
     inkscape:window-width="672"
     inkscape:window-height="480"
     id="namedview3093"
     showgrid="false"
     inkscape:zoom="4.9166667"
     inkscape:cx="27.254237"
     inkscape:cy="24"
     inkscape:window-x="0"
     inkscape:window-y="0"
     inkscape:window-maximized="0"
     inkscape:current-layer="svg3061" />
  <path
     style="fill:#d24726"
     d="M 8 1 C 6.9714285 1 6 1.9714285 6 3 L 6 45 C 6 45.971429 7.0285714 47 8 47 L 40 47 C 40.971429 47 42 45.971429 42 45 L 42 14 L 29 1 L 8 1 z M 12 16 L 19 16 L 19 21 L 12 21 L 12 16 z M 29.53125 16 C 33.09985 16 36 18.833102 36 22.3125 L 29.53125 22.3125 L 29.53125 16 z M 28.625 16.90625 L 28.625 23.1875 L 35.0625 23.1875 C 35.0625 26.666898 32.193605 29.5 28.625 29.5 C 25.056396 29.5 22.15625 26.666898 22.15625 23.1875 C 22.15625 19.708101 25.056396 16.90625 28.625 16.90625 z M 12 24 L 19 24 L 19 29 L 12 29 L 12 24 z M 31.15625 37 C 31.696786 37.000008 32.164203 37.048929 32.5625 37.15625 C 32.970271 37.263584 33.318732 37.399162 33.59375 37.53125 L 33.09375 38.6875 C 32.856666 38.571924 32.575224 38.488815 32.28125 38.40625 C 31.996751 38.32369 31.691823 38.281256 31.3125 38.28125 C 30.383147 38.281256 29.906248 38.570087 29.90625 39.15625 C 29.906248 39.304861 29.936413 39.446923 30.03125 39.5625 C 30.12608 39.669832 30.263998 39.75294 30.40625 39.84375 C 30.557976 39.92632 30.726067 39.996458 30.90625 40.0625 C 31.09591 40.12855 31.288565 40.192214 31.46875 40.25 C 31.743756 40.34082 32.018516 40.446923 32.3125 40.5625 C 32.615955 40.669832 32.878432 40.810119 33.125 41 C 33.381039 41.181634 33.588781 41.438052 33.75 41.71875 C 33.911207 41.991197 33.999994 42.328952 34 42.75 C 33.999994 43.468266 33.728035 44.009967 33.1875 44.40625 C 32.656438 44.794277 31.840559 45 30.75 45 C 30.019793 45 29.436223 44.944592 29 44.8125 C 28.563773 44.67215 28.249362 44.521832 28.03125 44.40625 L 28.53125 43.1875 C 28.787294 43.319595 29.086621 43.446919 29.4375 43.5625 C 29.797858 43.678084 30.237906 43.718751 30.75 43.71875 C 31.043975 43.718751 31.279083 43.70579 31.46875 43.65625 C 31.667892 43.59846 31.823699 43.528317 31.9375 43.4375 C 32.051294 43.33843 32.149562 43.209335 32.1875 43.09375 C 32.23491 42.969914 32.25 42.84259 32.25 42.71875 C 32.249995 42.561889 32.198062 42.436341 32.09375 42.3125 C 31.989426 42.188664 31.848709 42.090818 31.6875 42 C 31.526282 41.90093 31.355393 41.793056 31.15625 41.71875 C 30.957101 41.63619 30.761644 41.56605 30.5625 41.5 C 30.296968 41.41744 30.003242 41.326081 29.71875 41.21875 C 29.434253 41.111427 29.174578 40.977621 28.9375 40.8125 C 28.709902 40.647386 28.52673 40.458176 28.375 40.21875 C 28.223268 39.971078 28.156249 39.644515 28.15625 39.28125 C 28.156249 38.562993 28.406442 37.998297 28.9375 37.59375 C 29.478038 37.189219 30.217414 37.000008 31.15625 37 z M 16.09375 37.09375 C 16.67222 37.093758 17.213338 37.163901 17.6875 37.3125 C 18.171136 37.461114 18.574334 37.678027 18.90625 38 C 19.238155 38.313731 19.507314 38.723401 19.6875 39.21875 C 19.877157 39.705853 19.968743 40.306509 19.96875 41 C 19.968743 41.710011 19.864871 42.308892 19.65625 42.8125 C 19.457098 43.307856 19.172854 43.717527 18.8125 44.03125 C 18.452134 44.344975 18.002603 44.570144 17.5 44.71875 C 17.006871 44.859101 16.472436 44.937499 15.875 44.9375 C 15.562054 44.937499 15.240959 44.90802 14.9375 44.875 C 14.643521 44.85024 14.341393 44.816053 14 44.75 L 14 37.28125 C 14.398292 37.20695 14.774121 37.149775 15.125 37.125 C 15.475875 37.10024 15.790286 37.09375 16.09375 37.09375 z M 22.96875 37.09375 C 23.177377 37.08555 23.370033 37.09376 23.53125 37.09375 C 24.650259 37.093758 25.50859 37.282968 26.125 37.6875 C 26.741399 38.08379 27.062493 38.748107 27.0625 39.65625 C 27.062493 40.57266 26.750882 41.243459 26.125 41.65625 C 25.508588 42.060793 24.637974 42.250003 23.5 42.25 L 22.875 42.25 L 22.875 44.84375 L 21.125 44.84375 L 21.125 37.28125 C 21.295696 37.24823 21.478869 37.21228 21.6875 37.1875 C 21.905611 37.16274 22.125636 37.13327 22.34375 37.125 C 22.56186 37.10849 22.760119 37.10201 22.96875 37.09375 z M 16.25 38.40625 C 16.17413 38.406256 16.094829 38.42922 16 38.4375 C 15.90516 38.437507 15.825863 38.42103 15.75 38.4375 L 15.75 43.59375 C 15.79741 43.60195 15.849349 43.625 15.90625 43.625 L 16.0625 43.625 C 16.46079 43.625001 16.796968 43.538343 17.0625 43.40625 C 17.337508 43.274157 17.557532 43.106167 17.71875 42.875 C 17.889442 42.643837 17.996113 42.376227 18.0625 42.0625 C 18.13836 41.740523 18.187495 41.379775 18.1875 41 C 18.187495 40.669768 18.15063 40.344979 18.09375 40.03125 C 18.03685 39.717531 17.954742 39.458176 17.8125 39.21875 C 17.670249 38.979335 17.465308 38.765357 17.21875 38.625 C 16.972183 38.476401 16.638806 38.406256 16.25 38.40625 z M 23.71875 38.40625 C 23.614436 38.406256 23.47091 38.42922 23.28125 38.4375 C 23.101067 38.437507 22.979312 38.42103 22.875 38.4375 L 22.875 40.9375 L 23.5625 40.9375 C 24.122002 40.937503 24.559251 40.846139 24.84375 40.65625 C 25.128241 40.458112 25.281245 40.095591 25.28125 39.625 C 25.281245 39.179187 25.128241 38.869135 24.84375 38.6875 C 24.568735 38.49762 24.183421 38.406256 23.71875 38.40625 z "
     id="path3063" />
</svg>
