<?xml version="1.0" encoding="UTF-8" standalone="no"?>
<svg
   xmlns:dc="http://purl.org/dc/elements/1.1/"
   xmlns:cc="http://creativecommons.org/ns#"
   xmlns:rdf="http://www.w3.org/1999/02/22-rdf-syntax-ns#"
   xmlns:svg="http://www.w3.org/2000/svg"
   xmlns="http://www.w3.org/2000/svg"
   xmlns:sodipodi="http://sodipodi.sourceforge.net/DTD/sodipodi-0.dtd"
   xmlns:inkscape="http://www.inkscape.org/namespaces/inkscape"
   width="48"
   viewBox="0 0 48 48"
   height="48"
   id="svg3011"
   version="1.1"
   inkscape:version="0.48.4 r9939"
   sodipodi:docname="wps-office-ppt.svg">
  <metadata
     id="metadata3047">
    <rdf:RDF>
      <cc:Work
         rdf:about="">
        <dc:format>image/svg+xml</dc:format>
        <dc:type
           rdf:resource="http://purl.org/dc/dcmitype/StillImage" />
      </cc:Work>
    </rdf:RDF>
  </metadata>
  <defs
     id="defs3045" />
  <sodipodi:namedview
     pagecolor="#ffffff"
     bordercolor="#666666"
     borderopacity="1"
     objecttolerance="10"
     gridtolerance="10"
     guidetolerance="10"
     inkscape:pageopacity="0"
     inkscape:pageshadow="2"
     inkscape:window-width="640"
     inkscape:window-height="480"
     id="namedview3043"
     showgrid="false"
     inkscape:zoom="4.9166667"
     inkscape:cx="24"
     inkscape:cy="24"
     inkscape:window-x="0"
     inkscape:window-y="0"
     inkscape:window-maximized="0"
     inkscape:current-layer="svg3011" />
  <path
     style="fill:#d24726"
     d="M 8 1 C 6.9714285 1 6 1.9714285 6 3 L 6 45 C 6 45.971429 7.0285714 47 8 47 L 40 47 C 40.971429 47 42 45.971429 42 45 L 42 14 L 29 1 L 8 1 z M 12 16 L 19 16 L 19 21 L 12 21 L 12 16 z M 29.53125 16 C 33.09985 16 36 18.833102 36 22.3125 L 29.53125 22.3125 L 29.53125 16 z M 28.625 16.90625 L 28.625 23.1875 L 35.0625 23.1875 C 35.0625 26.666898 32.193605 29.5 28.625 29.5 C 25.056396 29.5 22.15625 26.666898 22.15625 23.1875 C 22.15625 19.708101 25.056396 16.90625 28.625 16.90625 z M 12 24 L 19 24 L 19 29 L 12 29 L 12 24 z M 15.84375 37 C 16.050176 36.9915 16.246734 37.00001 16.40625 37 C 17.513451 37.000008 18.358844 37.207544 18.96875 37.625 C 19.578645 38.033952 19.874993 38.719093 19.875 39.65625 C 19.874993 40.601938 19.588029 41.261521 18.96875 41.6875 C 18.358844 42.104967 17.469718 42.343752 16.34375 42.34375 L 15.71875 42.34375 L 15.71875 45 L 14 45 L 14 37.1875 C 14.168896 37.15342 14.356071 37.11932 14.5625 37.09375 C 14.77831 37.06819 15.002937 37.07103 15.21875 37.0625 C 15.434559 37.04547 15.63732 37.00851 15.84375 37 z M 22.875 37 C 23.081426 36.9915 23.277983 37.00001 23.4375 37 C 24.544701 37.000008 25.390093 37.207544 26 37.625 C 26.609895 38.033952 26.906243 38.719093 26.90625 39.65625 C 26.906243 40.601938 26.619278 41.261521 26 41.6875 C 25.390093 42.104967 24.500968 42.343752 23.375 42.34375 L 22.78125 42.34375 L 22.78125 45 L 21.03125 45 L 21.03125 37.1875 C 21.200145 37.15342 21.387321 37.11932 21.59375 37.09375 C 21.80956 37.06819 22.034187 37.07103 22.25 37.0625 C 22.465809 37.04547 22.668569 37.00851 22.875 37 z M 27.65625 37.09375 L 34 37.09375 L 34 38.40625 L 31.71875 38.40625 L 31.71875 45 L 29.96875 45 L 29.96875 38.40625 L 27.65625 38.40625 L 27.65625 37.09375 z M 16.15625 38.375 C 15.977969 38.375007 15.821961 38.38919 15.71875 38.40625 L 15.71875 40.96875 L 16.4375 40.96875 C 16.9911 40.968754 17.406003 40.852208 17.6875 40.65625 C 17.968988 40.451782 18.124994 40.110625 18.125 39.625 C 18.124994 39.164943 17.968988 38.843689 17.6875 38.65625 C 17.415386 38.460304 17.053519 38.375006 16.59375 38.375 C 16.490537 38.375006 16.34391 38.36652 16.15625 38.375 z M 23.1875 38.375 C 23.009218 38.375007 22.884461 38.38919 22.78125 38.40625 L 22.78125 40.96875 L 23.46875 40.96875 C 24.022349 40.968754 24.437253 40.852208 24.71875 40.65625 C 25.000239 40.451782 25.156245 40.110625 25.15625 39.625 C 25.156245 39.164943 25.000239 38.843689 24.71875 38.65625 C 24.446636 38.460304 24.084768 38.375006 23.625 38.375 C 23.521786 38.375006 23.375158 38.36652 23.1875 38.375 z "
     id="path3013" />
</svg>
