<?xml version="1.0" encoding="UTF-8" standalone="no"?>
<svg
   xmlns:dc="http://purl.org/dc/elements/1.1/"
   xmlns:cc="http://creativecommons.org/ns#"
   xmlns:rdf="http://www.w3.org/1999/02/22-rdf-syntax-ns#"
   xmlns:svg="http://www.w3.org/2000/svg"
   xmlns="http://www.w3.org/2000/svg"
   xmlns:sodipodi="http://sodipodi.sourceforge.net/DTD/sodipodi-0.dtd"
   xmlns:inkscape="http://www.inkscape.org/namespaces/inkscape"
   width="48"
   viewBox="0 0 48 48"
   height="48"
   id="svg2993"
   version="1.1"
   inkscape:version="0.48.4 r9939"
   sodipodi:docname="x-office-calendar.svg">
  <metadata
     id="metadata3007">
    <rdf:RDF>
      <cc:Work
         rdf:about="">
        <dc:format>image/svg+xml</dc:format>
        <dc:type
           rdf:resource="http://purl.org/dc/dcmitype/StillImage" />
      </cc:Work>
    </rdf:RDF>
  </metadata>
  <sodipodi:namedview
     pagecolor="#ffffff"
     bordercolor="#666666"
     borderopacity="1"
     objecttolerance="10"
     gridtolerance="10"
     guidetolerance="10"
     inkscape:pageopacity="0"
     inkscape:pageshadow="2"
     inkscape:window-width="640"
     inkscape:window-height="480"
     id="namedview3005"
     showgrid="false"
     inkscape:zoom="4.9166667"
     inkscape:cx="24"
     inkscape:cy="24"
     inkscape:window-x="0"
     inkscape:window-y="0"
     inkscape:window-maximized="0"
     inkscape:current-layer="svg2993" />
  <defs
     id="defs2995" />
  <path
     style="fill:#dc322f"
     d="M 8 1 C 6.9714285 1 6 1.9714285 6 3 L 6 45 C 6 45.971429 7.0285714 47 8 47 L 40 47 C 40.971429 47 42 45.971429 42 45 L 42 14 L 29 1 L 8 1 z M 15.4375 18 C 15.578125 17.98438 15.75 18 16 18 L 32 18 C 33 18 33 18.000386 33 19 L 33 22 L 15 22 L 15 19 C 15 18.25029 15.015625 18.046852 15.4375 18 z M 15 23 L 33 23 L 33 35 C 33 35.999614 33 36 32 36 L 16 36 C 15 36 15 35.999614 15 35 L 15 23 z M 27.25 25 C 26.320705 25.000009 25.603912 25.264355 25.0625 25.8125 C 24.525126 26.35666 24.25 27.122243 24.25 28.0625 C 24.25 28.93475 24.461805 29.601612 24.90625 30.09375 C 25.350693 30.581891 25.978281 30.843753 26.75 30.84375 C 27.210603 30.843753 27.567926 30.745796 27.875 30.59375 C 28.182066 30.44171 28.453152 30.18861 28.6875 29.8125 L 28.78125 29.8125 C 28.748922 30.496696 28.620387 31.045392 28.40625 31.4375 C 28.192104 31.825611 27.872786 32.0972 27.46875 32.28125 C 27.064706 32.461301 26.56376 32.562501 25.9375 32.5625 C 25.565781 32.562501 25.214393 32.52153 24.875 32.4375 L 24.875 33.90625 C 25.145706 33.96226 25.537246 34 26.0625 34 C 27.553405 34 28.670892 33.57099 29.40625 32.71875 C 30.141597 31.866513 30.499993 30.572239 30.5 28.84375 C 30.499993 28.043531 30.35637 27.357419 30.09375 26.78125 C 29.831118 26.201095 29.461674 25.772843 28.96875 25.46875 C 28.479856 25.164673 27.904541 25.000009 27.25 25 z M 20.34375 25.09375 L 17.5 27.34375 L 18.40625 28.46875 L 19.40625 27.65625 C 19.527459 27.560229 19.751386 27.370593 20.0625 27.0625 L 20.03125 27.96875 L 20.03125 28.8125 L 20.03125 33.875 L 21.90625 33.875 L 21.90625 25.09375 L 20.34375 25.09375 z M 27.03125 26.5 C 27.117614 26.4835 27.18428 26.500002 27.28125 26.5 C 27.673165 26.500007 27.999491 26.640665 28.25 26.96875 C 28.504541 27.296848 28.624995 27.711373 28.625 28.1875 C 28.624995 28.507595 28.489452 28.783186 28.21875 29.03125 C 27.948039 29.275323 27.629794 29.406254 27.25 29.40625 C 26.845957 29.406254 26.541727 29.279325 26.34375 29.03125 C 26.14577 28.783186 26.062498 28.455374 26.0625 28.03125 C 26.062498 27.535117 26.156816 27.139081 26.375 26.875 C 26.538634 26.67695 26.772158 26.54952 27.03125 26.5 z "
     id="path2997" />
</svg>
