<?xml version="1.0" encoding="UTF-8" standalone="no"?>
<svg
   xmlns:dc="http://purl.org/dc/elements/1.1/"
   xmlns:cc="http://creativecommons.org/ns#"
   xmlns:rdf="http://www.w3.org/1999/02/22-rdf-syntax-ns#"
   xmlns:svg="http://www.w3.org/2000/svg"
   xmlns="http://www.w3.org/2000/svg"
   xmlns:xlink="http://www.w3.org/1999/xlink"
   xmlns:sodipodi="http://sodipodi.sourceforge.net/DTD/sodipodi-0.dtd"
   xmlns:inkscape="http://www.inkscape.org/namespaces/inkscape"
   width="48"
   height="48"
   id="svg2"
   version="1.1"
   inkscape:version="0.48.4 r9939"
   sodipodi:docname="applications-system.svg">
  <metadata
     id="metadata100">
    <rdf:RDF>
      <cc:Work
         rdf:about="">
        <dc:format>image/svg+xml</dc:format>
        <dc:type
           rdf:resource="http://purl.org/dc/dcmitype/StillImage" />
      </cc:Work>
    </rdf:RDF>
  </metadata>
  <sodipodi:namedview
     pagecolor="#ffffff"
     bordercolor="#666666"
     borderopacity="1"
     objecttolerance="10"
     gridtolerance="10"
     guidetolerance="10"
     inkscape:pageopacity="0"
     inkscape:pageshadow="2"
     inkscape:window-width="640"
     inkscape:window-height="480"
     id="namedview98"
     showgrid="false"
     inkscape:zoom="1.7383042"
     inkscape:cx="-34.305989"
     inkscape:cy="63.422675"
     inkscape:window-x="0"
     inkscape:window-y="0"
     inkscape:window-maximized="0"
     inkscape:current-layer="svg2" />
  <defs
     id="defs4">
    <clipPath
       id="clipPath6">
      <rect
         width="42"
         x="307"
         y="223"
         rx="9"
         height="42"
         transform="rotate(90)"
         fill="url(#3)"
         color="#bebebe"
         id="rect8" />
    </clipPath>
    <clipPath
       id="clipPath10">
      <rect
         width="240"
         x="24"
         y="36"
         rx="50"
         height="240"
         fill="#986767"
         color="#bebebe"
         id="rect12" />
    </clipPath>
    <clipPath
       id="clipPath14">
      <rect
         width="16"
         x="432"
         y="116"
         rx="2"
         height="16"
         opacity="0.2"
         fill="#6d6d6d"
         color="#bebebe"
         id="rect16" />
    </clipPath>
    <clipPath
       id="clipPath18">
      <path
         d="m 98.03125,23.191212 c -41.492132,1.05238 -74.84375,35.06824 -74.84375,76.812498 0,42.40687 34.405632,76.8125 76.8125,76.8125 42.40687,0 76.8125,-34.40563 76.8125,-76.8125 0,-42.406866 -34.40563,-76.812498 -76.8125,-76.812498 -0.662607,0 -1.310145,-0.0167 -1.96875,0 z M 100,50.659962 c 27.24464,0 49.34375,22.099114 49.34375,49.343748 -1e-5,27.24464 -22.09911,49.34375 -49.34375,49.34375 -27.244636,-1e-5 -49.34375,-22.09911 -49.34375,-49.34375 0,-27.244634 22.099114,-49.343748 49.34375,-49.343748 z"
         id="path20" />
    </clipPath>
    <clipPath
       id="clipPath22">
      <path
         d="m 152,204 a 8,8 0 1 1 -16,0 8,8 0 1 1 16,0 z"
         id="path24" />
    </clipPath>
    <clipPath
       id="clipPath26">
      <path
         d="m 145,215 c 33.13708,0 60,-26.86292 60,-60 0,-33.13708 -26.86292,-60 -60,-60 -33.13708,0 -60,26.86292 -60,60 0,12.50698 3.8285,24.10633 10.375,33.71875 L 89,211 111.28125,204.625 C 120.89367,211.1715 132.49302,215 145,215 z"
         id="path28" />
    </clipPath>
    <clipPath
       id="clipPath30">
      <rect
         width="16"
         x="432"
         y="116"
         rx="3"
         height="16"
         color="#bebebe"
         id="rect32" />
    </clipPath>
    <clipPath
       id="clipPath34">
      <path
         d="m 144,70 c -49.705627,0 -90,40.29437 -90,90 0,49.70563 40.294373,90 90,90 49.70563,0 90,-40.29437 90,-90 0,-49.70563 -40.29437,-90 -90,-90 z m 0,32.1875 c 32.03251,0 58,25.96748 58,58 0,32.03252 -25.96749,58 -58,58 -32.03251,0 -58,-25.96748 -58,-58 0,-32.03252 25.96749,-58 58,-58 z"
         id="path36" />
    </clipPath>
    <clipPath
       id="clipPath38">
      <rect
         width="22"
         x="433"
         y="77"
         rx="3"
         height="22"
         opacity="0.2"
         fill="#6d6d6d"
         color="#bebebe"
         id="rect40" />
    </clipPath>
    <clipPath
       id="clipPath42">
      <rect
         width="30"
         x="433"
         y="29"
         rx="4"
         height="30"
         opacity="0.2"
         fill="#6d6d6d"
         color="#bebebe"
         id="rect44" />
    </clipPath>
    <clipPath
       id="clipPath46">
      <rect
         width="90"
         x="307"
         y="31"
         rx="18.75"
         height="90"
         fill="url(#1)"
         color="#bebebe"
         id="rect48" />
    </clipPath>
    <clipPath
       id="clipPath50">
      <rect
         width="60"
         x="306"
         y="142"
         rx="12.5"
         height="60"
         transform="matrix(0 -1 1 0 0 0)"
         fill="url(#0)"
         color="#bebebe"
         id="rect52" />
    </clipPath>
    <clipPath
       id="clipPath54">
      <rect
         width="30"
         x="433"
         y="29"
         rx="6"
         height="30"
         color="#bebebe"
         id="rect56" />
    </clipPath>
    <clipPath
       id="clipPath58">
      <rect
         width="22"
         x="433"
         y="77"
         rx="5"
         height="22"
         color="#bebebe"
         id="rect60" />
    </clipPath>
    <clipPath
       id="clipPath62">
      <rect
         width="22"
         x="433"
         y="77"
         rx="4"
         height="22"
         color="#bebebe"
         id="rect64" />
    </clipPath>
    <clipPath
       id="clipPath66">
      <rect
         width="20"
         x="434"
         y="78"
         rx="4"
         height="20"
         color="#bebebe"
         id="rect68" />
    </clipPath>
    <linearGradient
       gradientTransform="matrix(-1 0 0 -1 289 315)"
       xlink:href="#2"
       y1="40"
       y2="276"
       x1="265"
       x2="264"
       gradientUnits="userSpaceOnUse"
       id="linearGradient70" />
    <linearGradient
       gradientTransform="matrix(.25 0 0 .25 299.99999 131.99999)"
       id="0"
       xlink:href="#2"
       y1="230"
       y2="90"
       x2="0"
       gradientUnits="userSpaceOnUse" />
    <linearGradient
       gradientTransform="matrix(.375 0 0 .375 298 16)"
       id="1"
       xlink:href="#2"
       y1="230"
       y2="90"
       x2="0"
       gradientUnits="userSpaceOnUse" />
    <linearGradient
       id="2">
      <stop
         stop-color="#151515"
         id="stop75" />
      <stop
         offset="1"
         stop-color="#222"
         id="stop77" />
    </linearGradient>
    <linearGradient
       gradientTransform="matrix(.175 0 0 .175 302.79999 215.99997)"
       id="3"
       xlink:href="#2"
       y1="280"
       y2="40"
       x2="0"
       gradientUnits="userSpaceOnUse" />
  </defs>
  <path
     style="fill:#bfcd2f;fill-rule:evenodd;fill-opacity:1"
     d="M 24 1 C 11.258 1 1 11.258 1 24 C 1 36.742 11.258 47 24 47 C 36.742 47 47 36.742 47 24 C 47 11.258 36.742 1 24 1 z M 24 5 C 34.526 5 43 13.474 43 24 C 43 34.526 34.526 43 24 43 C 13.474 43 5 34.526 5 24 C 5 13.474 13.474 5 24 5 z M 24 10 C 16.244 10 10 16.244 10 24 C 10 31.756 16.244 38 24 38 C 31.756 38 38 31.756 38 24 C 38 16.244 31.756 10 24 10 z M 24 14 C 25.104569 14 26 14.8954 26 16 C 26 17.1046 25.104569 18 24 18 C 22.895431 18 22 17.1046 22 16 C 22 14.8954 22.895431 14 24 14 z M 22 20 L 26 20 L 26 35 L 22 35 L 22 20 z "
     id="rect88" />
</svg>
