<?xml version="1.0" encoding="UTF-8" standalone="no"?>
<svg
   xmlns:dc="http://purl.org/dc/elements/1.1/"
   xmlns:cc="http://creativecommons.org/ns#"
   xmlns:rdf="http://www.w3.org/1999/02/22-rdf-syntax-ns#"
   xmlns:svg="http://www.w3.org/2000/svg"
   xmlns="http://www.w3.org/2000/svg"
   xmlns:sodipodi="http://sodipodi.sourceforge.net/DTD/sodipodi-0.dtd"
   xmlns:inkscape="http://www.inkscape.org/namespaces/inkscape"
   width="47.5"
   height="47.5"
   viewBox="0 0 38 38"
   id="svg2"
   version="1.1"
   inkscape:version="0.48.4 r9939"
   sodipodi:docname="applications-science.svg.2014_09_14_15_54_20.0.svg">
  <metadata
     id="metadata34">
    <rdf:RDF>
      <cc:Work
         rdf:about="">
        <dc:format>image/svg+xml</dc:format>
        <dc:type
           rdf:resource="http://purl.org/dc/dcmitype/StillImage" />
      </cc:Work>
    </rdf:RDF>
  </metadata>
  <defs
     id="defs32" />
  <sodipodi:namedview
     pagecolor="#ffffff"
     bordercolor="#666666"
     borderopacity="1"
     objecttolerance="10"
     gridtolerance="10"
     guidetolerance="10"
     inkscape:pageopacity="0"
     inkscape:pageshadow="2"
     inkscape:window-width="640"
     inkscape:window-height="480"
     id="namedview30"
     showgrid="false"
     inkscape:zoom="1.7566021"
     inkscape:cx="-45.37335"
     inkscape:cy="34.827873"
     inkscape:window-x="0"
     inkscape:window-y="0"
     inkscape:window-maximized="0"
     inkscape:current-layer="svg2" />
  <path
     style="fill:#adc3e2;fill-rule:evenodd"
     d="M 15.84375 5.25 C 14.761761 5.2626912 14.03125 5.34375 14.03125 5.34375 L 13.8125 5.375 L 13.625 5.5 C 13.284455 5.7270304 13.114599 6.2415464 13.15625 6.5625 C 13.1979 6.8834536 13.305071 7.0650392 13.40625 7.21875 C 13.478013 7.3277738 13.495813 7.328595 13.5625 7.40625 L 13.71875 11.59375 L 9.53125 28.03125 L 9.53125 28.0625 C 8.7500199 30.65188 8.560144 32.297213 8.59375 33.34375 C 8.61065 33.870021 8.6924075 34.256095 8.78125 34.53125 C 8.8700913 34.806405 9.03125 35.0625 9.03125 35.0625 L 9.09375 35.125 L 9.1875 35.1875 C 11.843032 37.243621 14.95575 37.513234 17.65625 37.3125 C 17.666173 37.456812 17.667318 37.62164 17.6875 37.75 C 17.7746 38.304002 17.94094 38.665724 18.125 38.9375 C 18.293085 39.185688 18.463645 39.347341 18.5 39.375 C 18.5148 39.3875 18.547675 39.393875 18.5625 39.40625 C 23.987785 43.938419 30.831623 42.44636 34 41.9375 C 37.627695 41.355751 38.375 37.9375 38.375 37.9375 L 38.40625 37.8125 L 38.375 37.65625 C 37.117303 30.475047 32.540055 13.460582 32.5 13.3125 L 32.9375 9.9375 L 32.9375 9.875 L 32.9375 9.8125 C 32.921786 9.4903651 33.0625 9.375 33.0625 9.375 L 33.28125 9.125 L 33.25 8.78125 C 33.172078 8.2552613 32.688891 7.890636 32.375 7.78125 C 32.146092 7.7014794 32.03335 7.7485358 31.9375 7.75 C 31.936353 7.7500175 31.938615 7.68748 31.9375 7.6875 C 31.830337 7.6747162 31.91645 7.69905 31.8125 7.6875 C 28.121529 7.2773372 26.25 7.625 26.25 7.625 L 25.90625 7.6875 L 25.78125 8 L 25.59375 8.4375 L 25.3125 9.03125 L 25.75 9.25 C 25.76025 9.2993475 25.78125 9.34375 25.78125 9.34375 L 25.78125 9.375 L 25.90625 13.15625 L 25.90625 13.28125 L 25.9375 13.375 C 25.982138 13.531268 25.984037 13.483754 26 13.5 C 26.000236 13.474375 25.890386 13.791445 25.75 14.03125 C 25.601105 14.285589 25.4375 14.5 25.4375 14.5 L 25.375 14.5625 L 25.34375 14.65625 L 22.3125 23 L 19.84375 11.625 L 20.3125 7.21875 L 20.3125 7.1875 C 20.39711 7.0277643 20.640847 6.9111294 20.65625 6.78125 C 20.699341 6.4178761 20.59375 6.125 20.59375 6.125 L 20.4375 5.59375 L 19.875 5.5 C 18.348008 5.2646846 16.914801 5.2374364 15.84375 5.25 z M 15.84375 7 C 16.561975 6.991575 17.573902 7.10031 18.53125 7.1875 L 18.09375 11.53125 L 18.09375 11.6875 L 18.125 11.8125 L 21.125 25.75 L 20.09375 28.59375 C 16.347898 30.209558 13.491061 29.590055 11.5625 28.5 L 11.5625 28.53125 C 11.557613 28.550788 11.5625 28.5791 11.5625 28.59375 C 10.810548 31.074219 10.66797 32.524414 10.6875 33.28125 C 10.697262 33.55957 10.694335 33.705078 10.71875 33.8125 C 12.873016 35.347045 15.422931 35.499706 17.8125 35.28125 C 17.800298 35.349962 17.793042 35.432213 17.78125 35.5 C 15.302939 35.718861 12.670345 35.542425 10.4375 33.90625 C 10.406961 33.801237 10.355155 33.636422 10.34375 33.28125 C 10.318704 32.501294 10.463482 31.023398 11.21875 28.53125 L 11.21875 28.5 L 15.4375 11.90625 L 15.46875 11.78125 L 15.46875 11.65625 L 15.3125 7.0625 L 15.3125 7.03125 C 15.550442 7.018605 15.51702 7.0038325 15.84375 7 z M 15.84375 7.40625 L 16 11.65625 C 16.004875 11.768555 15.99805 11.887695 15.96875 12 L 14.28125 18.5625 C 14.862305 18.60645 15.466798 18.822265 16.0625 19.28125 C 17.195312 20.165039 18.261719 20.015621 19.21875 19.3125 L 17.59375 11.875 C 17.569337 11.75293 17.583988 11.62207 17.59375 11.5 L 17.96875 7.46875 C 17.1875 7.4101562 16.475586 7.3964838 15.875 7.40625 L 15.84375 7.40625 z M 28.28125 8.875 C 28.985468 8.860261 30.057401 8.8918408 31.75 9.09375 L 31.8125 9.09375 C 31.693055 9.3152011 31.582178 9.3762973 31.5625 9.75 L 31.53125 9.75 L 31.53125 9.875 L 31.09375 13.375 L 31.0625 13.46875 L 31.09375 13.625 C 31.09375 13.625 35.68083 30.672876 36.9375 37.75 C 36.912425 37.894275 36.520727 40.154439 33.78125 40.59375 C 30.512863 41.118673 24.276989 42.385598 19.40625 38.28125 L 19.375 38.28125 L 19.34375 38.25 C 19.34375 38.25 19.38235 38.259388 19.3125 38.15625 C 19.24265 38.053111 19.11944 37.86215 19.0625 37.5 C 19.049585 37.417863 19.068339 37.287264 19.0625 37.1875 L 19.1875 37.15625 L 19.28125 36.46875 C 19.368825 35.65276 19.590178 34.577137 20.3125 33.03125 L 20.34375 33 L 20.34375 32.96875 L 22.84375 26.125 L 22.9375 25.875 L 22.875 25.625 L 22.84375 25.53125 L 26.59375 15.28125 C 26.59375 15.28125 26.619888 15.195562 26.625 15.1875 L 26.6875 15.125 C 26.739913 15.041712 26.816704 14.925091 26.9375 14.71875 C 27.102331 14.437191 27.271071 14.197651 27.375 13.8125 C 27.454937 13.516298 27.421775 13.25975 27.34375 13.0625 C 27.33075 13.029625 27.326138 12.996313 27.3125 12.96875 L 27.15625 9.375 L 27.15625 9.34375 C 27.157029 9.3159375 27.156688 9.1832945 27.125 9 C 27.263966 8.9742344 27.577032 8.889739 28.28125 8.875 z M 28.03125 9.59375 L 28.15625 12.8125 C 28.278325 13.120117 28.335944 13.580077 28.21875 14 C 28.057617 14.59082 27.889649 14.764649 27.71875 15.0625 C 27.591797 15.277344 27.522461 15.380859 27.46875 15.46875 L 24.09375 24.6875 C 26.110351 23.935546 28.194336 24.131836 29.625 26.8125 C 29.625 26.8125 32.293945 29.884765 31.625 21.4375 C 31.561525 20.626953 31.606437 19.920899 31.71875 19.28125 C 30.878906 16.063476 30.25 13.78125 30.25 13.78125 C 30.201175 13.615234 30.199213 13.452148 30.21875 13.28125 L 30.65625 9.71875 C 29.767578 9.640625 29.003905 9.5986325 28.4375 9.59375 C 28.28125 9.59375 28.163085 9.59375 28.03125 9.59375 z M 28 12.5 C 28.01465 12.529296 28.011725 12.564452 28.03125 12.59375 C 28.011712 12.5498 28.009763 12.524419 28 12.5 z M 21.6875 30.84375 L 20.875 33.0625 C 20.86525 33.096675 20.8584 33.122075 20.84375 33.15625 C 19.740234 35.514649 19.657226 36.84668 19.75 37.4375 C 19.79395 37.725586 19.881841 37.840821 19.90625 37.875 C 24.50586 41.756836 30.331055 40.532226 33.65625 40 C 35.672851 39.677734 36.147461 38.189454 36.25 37.75 C 35.961914 36.138672 35.50586 34.011719 34.96875 31.6875 C 28.992188 33.166991 24.622071 32.245116 21.6875 30.84375 z "
     transform="scale(0.8,0.8)"
     id="path28" />
</svg>
