<?xml version="1.0" encoding="UTF-8" standalone="no"?>
<svg
   xmlns:dc="http://purl.org/dc/elements/1.1/"
   xmlns:cc="http://creativecommons.org/ns#"
   xmlns:rdf="http://www.w3.org/1999/02/22-rdf-syntax-ns#"
   xmlns:svg="http://www.w3.org/2000/svg"
   xmlns="http://www.w3.org/2000/svg"
   xmlns:sodipodi="http://sodipodi.sourceforge.net/DTD/sodipodi-0.dtd"
   xmlns:inkscape="http://www.inkscape.org/namespaces/inkscape"
   width="47.5"
   height="47.5"
   viewBox="0 0 38 38"
   id="svg2"
   version="1.1"
   inkscape:version="0.48.4 r9939"
   sodipodi:docname="applications-profiling.svg">
  <metadata
     id="metadata60">
    <rdf:RDF>
      <cc:Work
         rdf:about="">
        <dc:format>image/svg+xml</dc:format>
        <dc:type
           rdf:resource="http://purl.org/dc/dcmitype/StillImage" />
      </cc:Work>
    </rdf:RDF>
  </metadata>
  <defs
     id="defs58" />
  <sodipodi:namedview
     pagecolor="#ffffff"
     bordercolor="#666666"
     borderopacity="1"
     objecttolerance="10"
     gridtolerance="10"
     guidetolerance="10"
     inkscape:pageopacity="0"
     inkscape:pageshadow="2"
     inkscape:window-width="640"
     inkscape:window-height="480"
     id="namedview56"
     showgrid="false"
     inkscape:zoom="4.9684211"
     inkscape:cx="23.75"
     inkscape:cy="23.75"
     inkscape:window-x="0"
     inkscape:window-y="0"
     inkscape:window-maximized="0"
     inkscape:current-layer="svg2" />
  <path
     style="fill:#b477d0"
     d="M 23.03125 5.75 C 21.385714 5.75 20.0625 6.5947092 20.0625 7.625 L 20.0625 7.8125 C 20.0625 8.4350691 20.556716 8.9759935 21.3125 9.3125 C 21.222832 9.4988988 21.15625 9.6851502 21.15625 9.90625 C 21.15625 10.492188 21.521072 11.002228 22.03125 11.21875 L 22.03125 12.625 C 14.6206 13.4769 8.875 19.794328 8.875 27.4375 C 8.875 35.655274 15.532226 42.3125 23.75 42.3125 C 31.967774 42.3125 38.625 35.655274 38.625 27.4375 C 38.625 23.430655 37.040593 19.805656 34.46875 17.125 L 35.8125 16.3125 C 35.8125 15.331055 33.308594 13.623048 32.46875 13.90625 L 32.125 15.15625 C 30.181202 13.822551 27.926985 12.907589 25.46875 12.625 L 25.46875 11.21875 C 25.978928 11.002228 26.34375 10.492187 26.34375 9.90625 C 26.34375 9.7204858 26.28326 9.5687318 26.21875 9.40625 C 27.091736 9.0828822 27.6875 8.4916355 27.6875 7.8125 L 27.6875 7.625 C 27.6875 6.5947093 26.333035 5.75 24.6875 5.75 L 23.03125 5.75 z M 28.71875 8 C 28.677856 8.0195312 28.651856 8.0761712 28.625 8.125 L 28.28125 8.6875 C 28.222656 8.7900388 28.217774 8.8984375 28.28125 8.9375 L 28.375 9 C 28.44336 9.0390625 28.535156 8.9726562 28.59375 8.875 L 28.9375 8.3125 C 28.996087 8.2099613 28.974613 8.1015625 28.90625 8.0625 L 28.84375 8 C 28.80957 7.9804688 28.759644 7.9804688 28.71875 8 z M 18.65625 8.0625 L 18.59375 8.125 C 18.530275 8.1640625 18.535162 8.277345 18.59375 8.375 L 18.90625 8.9375 C 18.964845 9.04004 19.05664 9.1015625 19.125 9.0625 L 19.21875 9.03125 C 19.287112 8.9921875 19.277337 8.8789063 19.21875 8.78125 L 18.90625 8.1875 C 18.847655 8.0849613 18.724609 8.0234375 18.65625 8.0625 z M 37.59375 13.125 C 37.548585 13.121948 37.486331 13.126956 37.4375 13.15625 L 36.875 13.5 C 36.77245 13.55371 36.710938 13.650387 36.75 13.71875 L 36.78125 13.8125 C 36.820312 13.880862 36.9336 13.866212 37.03125 13.8125 L 37.625 13.5 C 37.72755 13.441407 37.789062 13.318363 37.75 13.25 L 37.6875 13.1875 C 37.667969 13.155762 37.638915 13.128052 37.59375 13.125 z M 9.9375 13.1875 C 9.8917238 13.191163 9.8320312 13.215819 9.8125 13.25 L 9.78125 13.34375 C 9.7421875 13.407225 9.7773413 13.503906 9.875 13.5625 L 10.46875 13.90625 C 10.571289 13.964837 10.679688 13.943363 10.71875 13.875 L 10.75 13.8125 C 10.789062 13.744142 10.753905 13.621094 10.65625 13.5625 L 10.0625 13.25 C 10.01123 13.220706 9.9832762 13.183837 9.9375 13.1875 z M 23.75 15 C 30.605469 15 36.15625 20.582031 36.15625 27.4375 C 36.15625 34.292969 30.605469 39.84375 23.75 39.84375 C 16.894531 39.84375 11.34375 34.292969 11.34375 27.4375 C 11.34375 20.582031 16.894531 15 23.75 15 z M 23.59375 15.8125 C 23.286134 15.8125 23.03125 16.0625 23.03125 16.375 L 23.03125 17.78125 C 22.351894 17.839928 21.655202 17.921749 20.96875 18.125 C 20.875975 18.144538 20.805665 18.219727 20.78125 18.3125 C 20.756837 18.410162 20.806625 18.530274 20.875 18.59375 C 20.948237 18.657225 21.037109 18.659187 21.125 18.625 C 21.762417 18.435371 22.400815 18.338418 23.03125 18.28125 C 23.076996 18.544497 23.318433 18.75 23.59375 18.75 L 23.90625 18.75 C 24.192333 18.75 24.436604 18.528179 24.46875 18.25 C 26.588208 18.395707 28.565698 19.30057 30.1875 20.90625 C 30.290038 21.008787 30.459961 21.008787 30.5625 20.90625 C 30.665038 20.803712 30.660163 20.628906 30.5625 20.53125 C 28.850179 18.836182 26.721322 17.869137 24.46875 17.71875 L 24.46875 16.375 C 24.46875 16.0625 24.213866 15.8125 23.90625 15.8125 L 23.59375 15.8125 z M 23.78125 19.125 C 23.473633 19.125 23.1875 19.122075 22.875 19.15625 C 22.77735 19.161125 22.664063 19.224607 22.625 19.3125 C 22.58105 19.400387 22.597662 19.515625 22.65625 19.59375 C 22.719725 19.666987 22.813476 19.702137 22.90625 19.6875 C 25.28418 19.42871 27.396484 20.157226 29.125 21.8125 C 29.188475 21.890625 29.313476 21.899413 29.40625 21.875 C 29.503913 21.850587 29.574219 21.785157 29.59375 21.6875 C 29.613288 21.594725 29.578125 21.496094 29.5 21.4375 C 27.898438 19.904296 25.929687 19.115234 23.78125 19.125 z M 32.4375 20.3125 C 32.261719 20.112304 21.65625 28.71875 21.65625 28.71875 L 22.0625 29.21875 C 22.0625 29.21875 32.608399 20.512695 32.4375 20.3125 z M 24.5625 20.65625 C 24.430664 20.675788 24.3125 20.774415 24.3125 20.90625 C 24.317375 21.038086 24.430662 21.141601 24.5625 21.15625 C 25.885741 21.327149 26.941407 21.798829 27.9375 22.6875 C 28.044925 22.780275 28.219726 22.794925 28.3125 22.6875 C 28.410163 22.580075 28.388675 22.405274 28.28125 22.3125 C 27.211915 21.365235 26.036132 20.836914 24.625 20.65625 C 24.5957 20.651375 24.586912 20.651375 24.5625 20.65625 z M 12.75 26.6875 C 12.4375 26.6875 12.1875 26.942384 12.1875 27.25 L 12.1875 27.59375 C 12.1875 27.90625 12.4375 28.15625 12.75 28.15625 L 14.53125 28.15625 C 14.838867 28.15625 15.09375 27.90625 15.09375 27.59375 L 15.09375 27.25 C 15.09375 26.942384 14.838867 26.6875 14.53125 26.6875 L 12.75 26.6875 z M 32.40625 26.6875 C 32.098633 26.6875 31.84375 26.942384 31.84375 27.25 L 31.84375 27.59375 C 31.84375 27.90625 32.098633 28.15625 32.40625 28.15625 L 34.1875 28.15625 C 34.5 28.15625 34.75 27.90625 34.75 27.59375 L 34.75 27.25 C 34.75 26.942384 34.5 26.6875 34.1875 26.6875 L 32.40625 26.6875 z M 23.59375 35.8125 C 23.286134 35.8125 23.03125 36.067384 23.03125 36.375 L 23.03125 38.1875 C 23.03125 38.495116 23.286134 38.75 23.59375 38.75 L 23.90625 38.75 C 24.213866 38.75 24.46875 38.495116 24.46875 38.1875 L 24.46875 36.375 C 24.46875 36.067384 24.213866 35.8125 23.90625 35.8125 L 23.59375 35.8125 z M 10.625 40.6875 C 10.579224 40.683838 10.520019 40.68945 10.46875 40.71875 L 9.875 41.0625 C 9.7773413 41.121094 9.7421875 41.212888 9.78125 41.28125 L 9.8125 41.375 C 9.8515625 41.443362 9.95996 41.433588 10.0625 41.375 L 10.65625 41.0625 C 10.753909 41.003906 10.789062 40.875975 10.75 40.8125 L 10.71875 40.75 C 10.699219 40.715825 10.670776 40.691162 10.625 40.6875 z M 36.90625 40.6875 C 36.861083 40.691163 36.800781 40.715825 36.78125 40.75 L 36.75 40.8125 C 36.710938 40.875975 36.77245 41.003906 36.875 41.0625 L 37.4375 41.375 C 37.535162 41.433587 37.648437 41.443362 37.6875 41.375 L 37.75 41.28125 C 37.789062 41.212888 37.72755 41.121094 37.625 41.0625 L 37.03125 40.71875 C 36.982425 40.68945 36.951417 40.683837 36.90625 40.6875 z M 19.03125 45.5625 C 18.989745 45.582641 18.935544 45.636231 18.90625 45.6875 L 18.59375 46.25 C 18.535162 46.347656 18.530275 46.460938 18.59375 46.5 L 18.65625 46.5625 C 18.724609 46.601566 18.84765 46.540038 18.90625 46.4375 L 19.21875 45.84375 C 19.277338 45.746094 19.287112 45.632812 19.21875 45.59375 L 19.125 45.5625 C 19.09082 45.542967 19.072755 45.542359 19.03125 45.5625 z M 28.375 45.5625 L 28.28125 45.59375 C 28.217775 45.632812 28.222662 45.746094 28.28125 45.84375 L 28.625 46.4375 C 28.678713 46.540038 28.77539 46.601566 28.84375 46.5625 L 28.90625 46.5 C 28.974613 46.460938 28.996087 46.347656 28.9375 46.25 L 28.59375 45.6875 C 28.535156 45.584961 28.44336 45.523437 28.375 45.5625 z "
     transform="scale(0.8,0.8)"
     id="path6" />
</svg>
