<svg xmlns="http://www.w3.org/2000/svg" width="48" height="48" viewBox="0 0 48 48">
 <path d="m 47.437,11.547375 0,24.90625 c 0,10.25 0,10.984375 -10.984375,10.984375 l -24.902344,0 C 0.562,47.438 0.562,46.703625 0.562,36.453625 l 0,-24.90625 c 0,-10.2499996 0,-10.9843746 10.988281,-10.9843746 l 24.902344,0 C 47.437,0.5630004 47.437,1.2973754 47.437,11.547375 z" fill="#89ac4f"/>
 <path d="m 47.437,11.547375 0,20.906625 c 0,10.25 0,10.984 -10.984375,10.984 l -24.902344,0 C 0.562,43.438 0.562,42.704 0.562,32.454 l 0,-20.906625 c 0,-10.2500001 0,-10.9843751 10.988281,-10.9843751 l 24.902344,0 C 47.437,0.5629999 47.437,1.2973749 47.437,11.547375 z" fill="#a9cc6f"/>
 <path d="m 21.190283,14.00216 c -0.566217,0.01662 -1.146894,0.110792 -1.717298,0.312463 -2.440361,0.862682 -4.294999,3.363355 -4.839657,6.467972 -1.602525,0.402087 -2.992947,1.855933 -3.465819,3.968272 -0.67121,2.998632 0.736216,6.124413 3.122359,6.967913 0.03886,0.01184 0.05459,0.02062 0.09367,0.03125 C 14.713108,31.89803 15.105325,32 15.476364,32 l 0.530801,0 c 0,0 0.999155,-0.990281 0.999155,-1.99976 l 0,-11.998557 c 0,-0.999881 0.967932,-1.99976 0.967932,-1.99976 l 2.997465,0 c 0,0 -0.967932,0.999879 -0.967932,1.99976 l 0,2.999639 8.024465,0 0,-2.999639 c 0,-0.49994 0.225896,-0.999881 0.468354,-1.374835 -0.139614,0.03185 -0.266624,0.07574 -0.405907,0.124986 -0.458061,0.162192 -0.864761,0.397674 -1.248944,0.718659 -1.315616,-2.220921 -3.420557,-3.531129 -5.651471,-3.468333 z m -2.903795,2.999639 c -0.153077,0.305745 -0.281012,0.652033 -0.281012,0.99988 l 0.999155,0 c 0,-0.347846 0.127931,-0.694136 0.281012,-0.99988 l -0.999155,0 z m 11.02193,0 c -0.153078,0.305745 -0.281013,0.652033 -0.281013,0.99988 l 0.999156,0 c 0,-0.347846 0.127931,-0.694136 0.281012,-0.99988 l -0.999155,0 z m 1.967087,0.09374 c -0.136411,0.288641 -0.249789,0.584091 -0.249789,0.906141 l 0,11.998558 c 0,1.015498 -0.999155,1.99976 -0.999155,1.99976 l 2.747676,0 c 0.619217,0 1.170612,-0.236789 1.654851,-0.624925 1.933944,-1.160421 3.004317,-3.943318 2.404215,-6.624204 -0.443367,-1.980667 -1.680604,-3.403131 -3.153581,-3.90578 -0.01265,-0.06627 -0.0169,-0.121181 -0.03122,-0.187476 -0.362495,-1.618804 -1.252857,-2.883647 -2.373,-3.562073 z m -13.270029,1.906021 0,0.99988 0.999155,0 0,-0.99988 -0.999155,0 z m 11.02193,0 0,0.99988 0.999155,0 0,-0.99988 -0.999155,0 z m -11.02193,1.99976 0,0.999879 0.999155,0 0,-0.999879 -0.999155,0 z m 11.02193,0 0,0.999879 0.999155,0 0,-0.999879 -0.999155,0 z m -9.02362,0.999879 0,4.999399 8.024465,0 0,-4.999399 -8.024465,0 z m -1.99831,0.99988 0,0.99988 0.999155,0 0,-0.99988 -0.999155,0 z m 11.02193,0 0,0.99988 0.999155,0 0,-0.99988 -0.999155,0 z m -11.02193,1.99976 0,0.99988 0.999155,0 0,-0.99988 -0.999155,0 z m 11.02193,0 0,0.99988 0.999155,0 0,-0.99988 -0.999155,0 z m -11.02193,1.999759 0,0.99988 0.999155,0 0,-0.99988 -0.999155,0 z m 11.02193,0 0,0.99988 0.999155,0 0,-0.99988 -0.999155,0 z m -9.02362,0.99988 0,1.99976 c 0,0.978482 -0.999155,1.99976 -0.999155,1.99976 l 8.024464,0 c 0,0 0.999156,-0.99988 0.999156,-1.99976 l 0,-1.99976 -8.024465,0 z m -1.99831,0.99988 0,0.99988 0.999155,0 0,-0.99988 -0.999155,0 z m 11.02193,0 0,0.99988 0.999155,0 0,-0.99988 -0.999155,0 z m -11.302942,1.999761 c -0.296209,0.572941 -0.718143,0.999879 -0.718143,0.999879 l 0.999155,0 c 0,0 0.421934,-0.426938 0.718143,-0.999879 l -0.999155,0 z m 11.02193,0 c -0.296209,0.572941 -0.718143,0.999879 -0.718143,0.999879 l 0.999155,0 c 0,0 0.421934,-0.426938 0.718142,-0.999879 l -0.999154,0 z" fill="#f9f9f9"/>
 <path d="m 38.265125,47.438 c 2.542969,-0.01172 4.378906,-0.08203 5.710937,-0.441406 l -4.230468,-7.25 -4.484375,7.691406 1.191406,0 c 0.640625,0 1.242187,0 1.8125,0 z m 1.480469,-7.691406 -5.125,-8.789063 -5.128906,8.789063 z m 0,0 7.652344,0 c 0.03125,-0.972656 0.03906,-2.0625 0.03906,-3.296875 l 0,-1.097657 -2.5625,-4.394531 z m 5.128906,-8.789063 -5.128906,-8.789062 -5.125,8.789062 z m 0,0 2.5625,0 0,-4.394531 z m -10.253906,0 -5.128906,-8.789062 -5.125,8.789062 z m -10.253906,0 -5.128907,8.789063 10.253907,0 z m 0,0 -5.128907,-8.789062 -5.125,8.789062 z m -10.253907,0 -5.128906,8.789063 10.253906,0 z m 0,0 -5.128906,-8.789062 -5.125,8.789062 z m -10.253906,0 L 0.562,36.605969 c 0,1.167969 0.011719,2.210937 0.039062,3.140625 l 8.382813,0 z m 0,0 -3.296875,-5.648437 0,5.648437 z m 5.125,8.789063 -4.3125,7.394531 C 6.269031,47.434094 8.479969,47.438 11.550281,47.438 l 1.921875,0 z m 0,-17.578125 -5.125,-8.789063 -3.296875,5.648438 0,3.140625 z m 0,0 10.253906,0 -5.125,-8.789063 z m 5.128906,-8.789063 -5.128906,-8.7890622 -5.125,8.7890622 z m 0,0 10.253907,0 -5.128907,-8.7890622 z m 5.125,-8.7890622 -2.351562,-4.027344 -5.335938,0 c -0.07813,0 -0.140625,0 -0.214843,0 l -2.351563,4.027344 z m 0,0 10.253907,0 -2.351563,-4.027344 -5.550781,0 z m 10.253907,0 10.253906,0 -2.351563,-4.027344 c -0.3125,0 -0.609375,0 -0.941406,0 l -4.609375,0 z m 0,0 -5.125,8.7890622 10.253906,0 z m 5.128906,8.7890622 10.253906,0 -5.128906,-8.7890622 z m 0,0 -5.128906,8.789063 10.253906,0 z m 5.125,8.789063 7.691406,0 0,-4.394531 -2.5625,-4.394532 z m 5.128906,-8.789063 2.5625,0 0,-1.832031 c 0,-0.914063 -0.0078,-1.75 -0.02344,-2.523437 z m -15.382812,8.789063 -5.125,-8.789063 -5.128907,8.789063 z m 10.253906,-17.5781252 7.308594,0 C 46.4995,1.8325308 45.167469,0.9614378 42.022938,0.6879998 z m -30.761719,0 -2.304687,-3.953125 C 3.019031,0.8442498 1.538562,1.6333118 0.944812,4.5903438 z M 3.858875,13.379406 0.620594,7.8247188 C 0.577625,8.898938 0.562,10.133312 0.562,11.547375 l 0,1.832031 z m 15.378906,26.367188 -4.484375,7.691406 8.972656,0 z m 10.253907,0 -4.484376,7.691406 8.972657,0 z M 2.59325,46.367688 0.991688,43.621594 C 1.284656,44.938 1.776844,45.801281 2.59325,46.367688 z" fill="#ffffff" fill-opacity="0.12113289760348583"/>
</svg>
