<svg xmlns="http://www.w3.org/2000/svg" width="48" height="48" viewBox="0 0 48 48">
 <path d="m 47.437,11.547375 0,24.90625 c 0,10.25 0,10.984375 -10.984375,10.984375 l -24.902344,0 C 0.562,47.438 0.562,46.703625 0.562,36.453625 l 0,-24.90625 c 0,-10.2499996 0,-10.9843746 10.988281,-10.9843746 l 24.902344,0 C 47.437,0.5630004 47.437,1.2973754 47.437,11.547375 z" fill="#426f99"/>
 <path d="m 47.437,11.547375 0,20.906625 c 0,10.25 0,10.984 -10.984375,10.984 l -24.902344,0 C 0.562,43.438 0.562,42.704 0.562,32.454 l 0,-20.906625 c 0,-10.2500001 0,-10.9843751 10.988281,-10.9843751 l 24.902344,0 C 47.437,0.5629999 47.437,1.2973749 47.437,11.547375 z" fill="#628fb9"/>
 <rect width="24.18" height="9.545" x="11.909" y="15.728" fill="#f9f9f9"/><path d="m 9.9999998,18.27265 28.0000002,0 -2.545454,15.2728 -23.545455,0 z" fill="#f9f9f9"/><path d="m 15.090909,17.00005 c 0,-1.2728 0,-2.5455 1.272728,-2.5455 l 4.454545,0 c 1.272727,0 1.272727,1.2728 1.272727,2.5455 z" fill="#f9f9f9"/><path d="m 25.62317,18.988504 c 0,0.822 -0.693912,1.488505 -1.549566,1.488505 -0.855653,0 -1.550089,-0.666505 -1.550089,-1.488505 0,-0.821518 0.694436,-1.488506 1.550089,-1.488506 0.855654,0 1.549566,0.666988 1.549566,1.488506 z m 3.869225,1.582997 c -0.07198,0.0088 -0.139825,0.03849 -0.197744,0.07889 l -5.294615,0.792992 -5.266441,-0.803486 c -0.136167,-0.09499 -0.327651,-0.123237 -0.479477,-0.05298 -0.152347,0.07055 -0.252002,0.23699 -0.254086,0.395998 -0.0021,0.158847 0.103817,0.295506 0.254086,0.369492 l 4.12644,1.257487 -0.02819,2.886003 -1.456178,4.322491 c -0.140341,0.196506 -0.09756,0.449523 0.112697,0.580532 0.210785,0.131433 0.508699,0.09148 0.649046,-0.105381 l 2.349918,-4.665521 2.305568,4.6575 c 0.124705,0.203971 0.402783,0.274971 0.62087,0.158364 0.218087,-0.11709 0.293738,-0.376971 0.169043,-0.580971 l -1.429046,-4.340991 -0.05635,-2.717013 4.184354,-1.467985 c 0.169041,-0.111089 0.242612,-0.321046 0.169569,-0.50154 -0.07358,-0.18048 -0.274437,-0.285993 -0.480007,-0.26395 h 4.77e-4 z" fill="#628fb9"/>
 <path d="m 38.265125,47.438 c 2.542969,-0.01172 4.378906,-0.08203 5.710937,-0.441406 l -4.230468,-7.25 -4.484375,7.691406 1.191406,0 c 0.640625,0 1.242187,0 1.8125,0 z m 1.480469,-7.691406 -5.125,-8.789063 -5.128906,8.789063 z m 0,0 7.652344,0 c 0.03125,-0.972656 0.03906,-2.0625 0.03906,-3.296875 l 0,-1.097657 -2.5625,-4.394531 z m 5.128906,-8.789063 -5.128906,-8.789062 -5.125,8.789062 z m 0,0 2.5625,0 0,-4.394531 z m -10.253906,0 -5.128906,-8.789062 -5.125,8.789062 z m -10.253906,0 -5.128907,8.789063 10.253907,0 z m 0,0 -5.128907,-8.789062 -5.125,8.789062 z m -10.253907,0 -5.128906,8.789063 10.253906,0 z m 0,0 -5.128906,-8.789062 -5.125,8.789062 z m -10.253906,0 L 0.562,36.605969 c 0,1.167969 0.011719,2.210937 0.039062,3.140625 l 8.382813,0 z m 0,0 -3.296875,-5.648437 0,5.648437 z m 5.125,8.789063 -4.3125,7.394531 C 6.269031,47.434094 8.479969,47.438 11.550281,47.438 l 1.921875,0 z m 0,-17.578125 -5.125,-8.789063 -3.296875,5.648438 0,3.140625 z m 0,0 10.253906,0 -5.125,-8.789063 z m 5.128906,-8.789063 -5.128906,-8.7890622 -5.125,8.7890622 z m 0,0 10.253907,0 -5.128907,-8.7890622 z m 5.125,-8.7890622 -2.351562,-4.027344 -5.335938,0 c -0.07813,0 -0.140625,0 -0.214843,0 l -2.351563,4.027344 z m 0,0 10.253907,0 -2.351563,-4.027344 -5.550781,0 z m 10.253907,0 10.253906,0 -2.351563,-4.027344 c -0.3125,0 -0.609375,0 -0.941406,0 l -4.609375,0 z m 0,0 -5.125,8.7890622 10.253906,0 z m 5.128906,8.7890622 10.253906,0 -5.128906,-8.7890622 z m 0,0 -5.128906,8.789063 10.253906,0 z m 5.125,8.789063 7.691406,0 0,-4.394531 -2.5625,-4.394532 z m 5.128906,-8.789063 2.5625,0 0,-1.832031 c 0,-0.914063 -0.0078,-1.75 -0.02344,-2.523437 z m -15.382812,8.789063 -5.125,-8.789063 -5.128907,8.789063 z m 10.253906,-17.5781252 7.308594,0 C 46.4995,1.8325308 45.167469,0.9614378 42.022938,0.6879998 z m -30.761719,0 -2.304687,-3.953125 C 3.019031,0.8442498 1.538562,1.6333118 0.944812,4.5903438 z M 3.858875,13.379406 0.620594,7.8247188 C 0.577625,8.898938 0.562,10.133312 0.562,11.547375 l 0,1.832031 z m 15.378906,26.367188 -4.484375,7.691406 8.972656,0 z m 10.253907,0 -4.484376,7.691406 8.972657,0 z M 2.59325,46.367688 0.991688,43.621594 C 1.284656,44.938 1.776844,45.801281 2.59325,46.367688 z" fill="#ffffff" fill-opacity="0.1084967320261438"/>
</svg>