<svg xmlns="http://www.w3.org/2000/svg" width="48" height="48" viewBox="0 0 48 48">
 <path d="m 47.437,11.547375 0,24.90625 c 0,10.25 0,10.984375 -10.984375,10.984375 l -24.902344,0 C 0.562,47.438 0.562,46.703625 0.562,36.453625 l 0,-24.90625 c 0,-10.2499996 0,-10.9843746 10.988281,-10.9843746 l 24.902344,0 C 47.437,0.5630004 47.437,1.2973754 47.437,11.547375 z" fill="#a0072b"/>
 <path d="m 47.437,11.547375 0,20.906625 c 0,10.25 0,10.984 -10.984375,10.984 l -24.902344,0 C 0.562,43.438 0.562,42.704 0.562,32.454 l 0,-20.906625 c 0,-10.2500001 0,-10.9843751 10.988281,-10.9843751 l 24.902344,0 C 47.437,0.5629999 47.437,1.2973749 47.437,11.547375 z" fill="#c0274b"/>
 <path d="M 34.554688 19.613281 C 32.726562 15.589844 28.636719 13 24.023438 13 C 19.308594 13 14.992188 15.832031 13.296875 20.035156 L 16.871094 21.359375 C 18.003906 18.550781 20.878906 16.671875 24.023438 16.671875 C 27.058594 16.671875 29.742188 18.351562 30.984375 20.972656 L 28.378906 21.972656 L 35.046875 25.65625 L 37 18.683594 Z " fill="#f9f9f9"/><path d="M 24.023438 31.335938 C 21.015625 31.335938 18.277344 29.601562 17.050781 26.992188 L 19.617188 26.042969 L 13.019531 22.4375 L 11 29.230469 L 13.460938 28.320312 C 15.253906 32.332031 19.445312 35 24.023438 35 C 28.757812 35 32.949219 32.28125 34.703125 28.074219 L 31.144531 26.71875 C 29.976562 29.523438 27.179688 31.335938 24.023438 31.335938 Z " fill="#f9f9f9"/>
 <path d="m 38.265125,47.438 c 2.542969,-0.01172 4.378906,-0.08203 5.710937,-0.441406 l -4.230468,-7.25 -4.484375,7.691406 1.191406,0 c 0.640625,0 1.242187,0 1.8125,0 z m 1.480469,-7.691406 -5.125,-8.789063 -5.128906,8.789063 z m 0,0 7.652344,0 c 0.03125,-0.972656 0.03906,-2.0625 0.03906,-3.296875 l 0,-1.097657 -2.5625,-4.394531 z m 5.128906,-8.789063 -5.128906,-8.789062 -5.125,8.789062 z m 0,0 2.5625,0 0,-4.394531 z m -10.253906,0 -5.128906,-8.789062 -5.125,8.789062 z m -10.253906,0 -5.128907,8.789063 10.253907,0 z m 0,0 -5.128907,-8.789062 -5.125,8.789062 z m -10.253907,0 -5.128906,8.789063 10.253906,0 z m 0,0 -5.128906,-8.789062 -5.125,8.789062 z m -10.253906,0 L 0.562,36.605969 c 0,1.167969 0.011719,2.210937 0.039062,3.140625 l 8.382813,0 z m 0,0 -3.296875,-5.648437 0,5.648437 z m 5.125,8.789063 -4.3125,7.394531 C 6.269031,47.434094 8.479969,47.438 11.550281,47.438 l 1.921875,0 z m 0,-17.578125 -5.125,-8.789063 -3.296875,5.648438 0,3.140625 z m 0,0 10.253906,0 -5.125,-8.789063 z m 5.128906,-8.789063 -5.128906,-8.7890622 -5.125,8.7890622 z m 0,0 10.253907,0 -5.128907,-8.7890622 z m 5.125,-8.7890622 -2.351562,-4.027344 -5.335938,0 c -0.07813,0 -0.140625,0 -0.214843,0 l -2.351563,4.027344 z m 0,0 10.253907,0 -2.351563,-4.027344 -5.550781,0 z m 10.253907,0 10.253906,0 -2.351563,-4.027344 c -0.3125,0 -0.609375,0 -0.941406,0 l -4.609375,0 z m 0,0 -5.125,8.7890622 10.253906,0 z m 5.128906,8.7890622 10.253906,0 -5.128906,-8.7890622 z m 0,0 -5.128906,8.789063 10.253906,0 z m 5.125,8.789063 7.691406,0 0,-4.394531 -2.5625,-4.394532 z m 5.128906,-8.789063 2.5625,0 0,-1.832031 c 0,-0.914063 -0.0078,-1.75 -0.02344,-2.523437 z m -15.382812,8.789063 -5.125,-8.789063 -5.128907,8.789063 z m 10.253906,-17.5781252 7.308594,0 C 46.4995,1.8325308 45.167469,0.9614378 42.022938,0.6879998 z m -30.761719,0 -2.304687,-3.953125 C 3.019031,0.8442498 1.538562,1.6333118 0.944812,4.5903438 z M 3.858875,13.379406 0.620594,7.8247188 C 0.577625,8.898938 0.562,10.133312 0.562,11.547375 l 0,1.832031 z m 15.378906,26.367188 -4.484375,7.691406 8.972656,0 z m 10.253907,0 -4.484376,7.691406 8.972657,0 z M 2.59325,46.367688 0.991688,43.621594 C 1.284656,44.938 1.776844,45.801281 2.59325,46.367688 z" fill="#ffffff" fill-opacity="0.08235294117647059"/>
</svg>