<svg xmlns="http://www.w3.org/2000/svg" width="48" height="48" viewBox="0 0 48 48">
 <path d="m 47.437,11.547375 0,24.90625 c 0,10.25 0,10.984375 -10.984375,10.984375 l -24.902344,0 C 0.562,47.438 0.562,46.703625 0.562,36.453625 l 0,-24.90625 c 0,-10.2499996 0,-10.9843746 10.988281,-10.9843746 l 24.902344,0 C 47.437,0.5630004 47.437,1.2973754 47.437,11.547375 z" fill="#ce3e42"/>
 <path d="m 47.437,11.547375 0,20.906625 c 0,10.25 0,10.984 -10.984375,10.984 l -24.902344,0 C 0.562,43.438 0.562,42.704 0.562,32.454 l 0,-20.906625 c 0,-10.2500001 0,-10.9843751 10.988281,-10.9843751 l 24.902344,0 C 47.437,0.5629999 47.437,1.2973749 47.437,11.547375 z" fill="#ee5e62"/>
 <path d="m 12.001217,29.454046 c 0,0 0,5.454046 5.999392,5.454046 l 11.998783,0 c 5.999391,0 5.999391,-5.454046 5.999391,-5.454046 l 0,-10.908093 c 0,-5.454044 -5.999391,-5.454044 -5.999391,-5.454044 l -11.998783,0 c -5.999392,0 -5.999392,5.454044 -5.999392,5.454044 z" fill="#f9f9f9"/><path d="m 23.897763,28.956045 -1.283255,-3.124713 -4.131798,0 -1.269153,3.124713 -1.212746,0 4.075392,-9.864687 1.008271,0 4.054239,9.864687 -1.24095,0 m -1.656949,-4.152846 -1.198645,-3.044075 c -0.155124,-0.385262 -0.314943,-0.857888 -0.479458,-1.417881 -0.103417,0.430076 -0.251485,0.902703 -0.444204,1.417881 l -1.212746,3.044075 3.335053,0" fill="#ee5e62"/><path d="m 31.131937,28.956045 -0.23268,-1.04829 -0.05641,0 c -0.385449,0.461427 -0.770895,0.775018 -1.156336,0.940774 -0.38075,0.161274 -0.857858,0.241912 -1.431323,0.241913 -0.766194,-1e-6 -1.367866,-0.188155 -1.805018,-0.564465 -0.432452,-0.376309 -0.648679,-0.911654 -0.648678,-1.606035 -10e-7,-1.487317 1.247999,-2.266814 3.744002,-2.338496 l 1.311458,-0.04032 0,-0.456947 c -5e-6,-0.5779 -0.131621,-1.003488 -0.394847,-1.276766 -0.258537,-0.277746 -0.674536,-0.416622 -1.248001,-0.416628 -0.643981,6e-6 -1.372569,0.188161 -2.185764,0.564464 L 26.668745,22.10183 c 0.380745,-0.197107 0.796744,-0.351663 1.248001,-0.463668 0.455952,-0.11199 0.911906,-0.167987 1.367865,-0.167994 0.921307,8e-6 1.602888,0.194882 2.044747,0.584624 0.446547,0.389756 0.669825,1.014698 0.669831,1.874829 l 0,5.026422 -0.867254,0 m -2.64407,-0.786221 c 0.728585,1e-6 1.299703,-0.190393 1.713357,-0.571185 0.418345,-0.380787 0.62752,-0.913892 0.627526,-1.599315 l 0,-0.665262 -1.170441,0.04704 c -0.930716,0.03136 -1.602897,0.170241 -2.016543,0.416629 -0.408953,0.241915 -0.613427,0.620466 -0.613425,1.135649 -2e-6,0.40319 0.126912,0.710062 0.380746,0.920614 0.258529,0.210556 0.618122,0.315832 1.07878,0.315832" fill="#ee5e62"/>
 <path d="m 38.265125,47.438 c 2.542969,-0.01172 4.378906,-0.08203 5.710937,-0.441406 l -4.230468,-7.25 -4.484375,7.691406 1.191406,0 c 0.640625,0 1.242187,0 1.8125,0 z m 1.480469,-7.691406 -5.125,-8.789063 -5.128906,8.789063 z m 0,0 7.652344,0 c 0.03125,-0.972656 0.03906,-2.0625 0.03906,-3.296875 l 0,-1.097657 -2.5625,-4.394531 z m 5.128906,-8.789063 -5.128906,-8.789062 -5.125,8.789062 z m 0,0 2.5625,0 0,-4.394531 z m -10.253906,0 -5.128906,-8.789062 -5.125,8.789062 z m -10.253906,0 -5.128907,8.789063 10.253907,0 z m 0,0 -5.128907,-8.789062 -5.125,8.789062 z m -10.253907,0 -5.128906,8.789063 10.253906,0 z m 0,0 -5.128906,-8.789062 -5.125,8.789062 z m -10.253906,0 L 0.562,36.605969 c 0,1.167969 0.011719,2.210937 0.039062,3.140625 l 8.382813,0 z m 0,0 -3.296875,-5.648437 0,5.648437 z m 5.125,8.789063 -4.3125,7.394531 C 6.269031,47.434094 8.479969,47.438 11.550281,47.438 l 1.921875,0 z m 0,-17.578125 -5.125,-8.789063 -3.296875,5.648438 0,3.140625 z m 0,0 10.253906,0 -5.125,-8.789063 z m 5.128906,-8.789063 -5.128906,-8.7890622 -5.125,8.7890622 z m 0,0 10.253907,0 -5.128907,-8.7890622 z m 5.125,-8.7890622 -2.351562,-4.027344 -5.335938,0 c -0.07813,0 -0.140625,0 -0.214843,0 l -2.351563,4.027344 z m 0,0 10.253907,0 -2.351563,-4.027344 -5.550781,0 z m 10.253907,0 10.253906,0 -2.351563,-4.027344 c -0.3125,0 -0.609375,0 -0.941406,0 l -4.609375,0 z m 0,0 -5.125,8.7890622 10.253906,0 z m 5.128906,8.7890622 10.253906,0 -5.128906,-8.7890622 z m 0,0 -5.128906,8.789063 10.253906,0 z m 5.125,8.789063 7.691406,0 0,-4.394531 -2.5625,-4.394532 z m 5.128906,-8.789063 2.5625,0 0,-1.832031 c 0,-0.914063 -0.0078,-1.75 -0.02344,-2.523437 z m -15.382812,8.789063 -5.125,-8.789063 -5.128907,8.789063 z m 10.253906,-17.5781252 7.308594,0 C 46.4995,1.8325308 45.167469,0.9614378 42.022938,0.6879998 z m -30.761719,0 -2.304687,-3.953125 C 3.019031,0.8442498 1.538562,1.6333118 0.944812,4.5903438 z M 3.858875,13.379406 0.620594,7.8247188 C 0.577625,8.898938 0.562,10.133312 0.562,11.547375 l 0,1.832031 z m 15.378906,26.367188 -4.484375,7.691406 8.972656,0 z m 10.253907,0 -4.484376,7.691406 8.972657,0 z M 2.59325,46.367688 0.991688,43.621594 C 1.284656,44.938 1.776844,45.801281 2.59325,46.367688 z" fill="#ffffff" fill-opacity="0.10936819172113289"/>
</svg>