<svg xmlns="http://www.w3.org/2000/svg" width="48" height="48" viewBox="0 0 48 48">
 <path d="m 47.437,11.547375 0,24.90625 c 0,10.25 0,10.984375 -10.984375,10.984375 l -24.902344,0 C 0.562,47.438 0.562,46.703625 0.562,36.453625 l 0,-24.90625 c 0,-10.2499996 0,-10.9843746 10.988281,-10.9843746 l 24.902344,0 C 47.437,0.5630004 47.437,1.2973754 47.437,11.547375 z" fill="#2f521e"/>
 <path d="m 47.437,11.547375 0,20.906625 c 0,10.25 0,10.984 -10.984375,10.984 l -24.902344,0 C 0.562,43.438 0.562,42.704 0.562,32.454 l 0,-20.906625 c 0,-10.2500001 0,-10.9843751 10.988281,-10.9843751 l 24.902344,0 C 47.437,0.5629999 47.437,1.2973749 47.437,11.547375 z" fill="#4f723e"/>
 <path d="m 12,16.488281 0,14.496094 c 0.792969,0.109375 1.859375,0.199219 3.285156,0.199219 2.59375,0 4.710938,-0.679688 6.039063,-2.011719 1.265625,-1.269531 2.078125,-3.238281 2.078125,-5.859375 0,-2.515625 -0.792969,-4.265625 -2.078125,-5.425781 C 20.097656,16.75 18.375,16.183594 15.878906,16.183594 c -1.445312,0 -2.808594,0.109375 -3.878906,0.304687 m 3.78125,12.550781 c -0.496094,0 -1.011719,0 -1.347656,-0.06641 l 0,-10.539062 c 0.335937,-0.08594 0.890625,-0.152344 1.664062,-0.152344 3.046875,0 4.75,1.859375 4.730469,5.117188 0,3.71875 -1.859375,5.640624 -4.992187,5.640624 -0.01953,0 -0.03906,0 -0.05469,0" fill="#f9f9f9"/><path d="m 35.199219,20.378906 -1.039063,4.726563 c -0.246094,1.246093 -0.460937,2.402343 -0.613281,3.5625 l -0.03906,0 c -0.210937,-1.160157 -0.457031,-2.316407 -0.746093,-3.5625 l -1.171875,-4.726563 -1.917969,0 -1.207031,4.855469 c -0.269532,1.09375 -0.574219,2.273437 -0.765625,3.433594 l -0.03906,0 c -0.171875,-1.160157 -0.382812,-2.316407 -0.59375,-3.453125 l -0.980468,-4.835938 -2.414063,0 2.761719,10.648438 2.203125,0 1.191406,-4.328125 c 0.265625,-1.050781 0.515625,-2.097657 0.707031,-3.410157 l 0.03906,0 c 0.210937,1.289063 0.421875,2.296876 0.710937,3.410157 l 1.113282,4.328125 2.183593,0 2.9375,-10.648438 z" fill="#f9f9f9"/>
 <path d="m 38.265125,47.438 c 2.542969,-0.01172 4.378906,-0.08203 5.710937,-0.441406 l -4.230468,-7.25 -4.484375,7.691406 1.191406,0 c 0.640625,0 1.242187,0 1.8125,0 z m 1.480469,-7.691406 -5.125,-8.789063 -5.128906,8.789063 z m 0,0 7.652344,0 c 0.03125,-0.972656 0.03906,-2.0625 0.03906,-3.296875 l 0,-1.097657 -2.5625,-4.394531 z m 5.128906,-8.789063 -5.128906,-8.789062 -5.125,8.789062 z m 0,0 2.5625,0 0,-4.394531 z m -10.253906,0 -5.128906,-8.789062 -5.125,8.789062 z m -10.253906,0 -5.128907,8.789063 10.253907,0 z m 0,0 -5.128907,-8.789062 -5.125,8.789062 z m -10.253907,0 -5.128906,8.789063 10.253906,0 z m 0,0 -5.128906,-8.789062 -5.125,8.789062 z m -10.253906,0 L 0.562,36.605969 c 0,1.167969 0.011719,2.210937 0.039062,3.140625 l 8.382813,0 z m 0,0 -3.296875,-5.648437 0,5.648437 z m 5.125,8.789063 -4.3125,7.394531 C 6.269031,47.434094 8.479969,47.438 11.550281,47.438 l 1.921875,0 z m 0,-17.578125 -5.125,-8.789063 -3.296875,5.648438 0,3.140625 z m 0,0 10.253906,0 -5.125,-8.789063 z m 5.128906,-8.789063 -5.128906,-8.7890622 -5.125,8.7890622 z m 0,0 10.253907,0 -5.128907,-8.7890622 z m 5.125,-8.7890622 -2.351562,-4.027344 -5.335938,0 c -0.07813,0 -0.140625,0 -0.214843,0 l -2.351563,4.027344 z m 0,0 10.253907,0 -2.351563,-4.027344 -5.550781,0 z m 10.253907,0 10.253906,0 -2.351563,-4.027344 c -0.3125,0 -0.609375,0 -0.941406,0 l -4.609375,0 z m 0,0 -5.125,8.7890622 10.253906,0 z m 5.128906,8.7890622 10.253906,0 -5.128906,-8.7890622 z m 0,0 -5.128906,8.789063 10.253906,0 z m 5.125,8.789063 7.691406,0 0,-4.394531 -2.5625,-4.394532 z m 5.128906,-8.789063 2.5625,0 0,-1.832031 c 0,-0.914063 -0.0078,-1.75 -0.02344,-2.523437 z m -15.382812,8.789063 -5.125,-8.789063 -5.128907,8.789063 z m 10.253906,-17.5781252 7.308594,0 C 46.4995,1.8325308 45.167469,0.9614378 42.022938,0.6879998 z m -30.761719,0 -2.304687,-3.953125 C 3.019031,0.8442498 1.538562,1.6333118 0.944812,4.5903438 z M 3.858875,13.379406 0.620594,7.8247188 C 0.577625,8.898938 0.562,10.133312 0.562,11.547375 l 0,1.832031 z m 15.378906,26.367188 -4.484375,7.691406 8.972656,0 z m 10.253907,0 -4.484376,7.691406 8.972657,0 z M 2.59325,46.367688 0.991688,43.621594 C 1.284656,44.938 1.776844,45.801281 2.59325,46.367688 z" fill="#ffffff" fill-opacity="0.07124183006535946"/>
</svg>