<svg xmlns="http://www.w3.org/2000/svg" width="48" height="48" viewBox="0 0 48 48">
 <path d="m 47.437,11.547375 0,24.90625 c 0,10.25 0,10.984375 -10.984375,10.984375 l -24.902344,0 C 0.562,47.438 0.562,46.703625 0.562,36.453625 l 0,-24.90625 c 0,-10.2499996 0,-10.9843746 10.988281,-10.9843746 l 24.902344,0 C 47.437,0.5630004 47.437,1.2973754 47.437,11.547375 z" fill="#8a0000"/>
 <path d="m 47.437,11.547375 0,20.906625 c 0,10.25 0,10.984 -10.984375,10.984 l -24.902344,0 C 0.562,43.438 0.562,42.704 0.562,32.454 l 0,-20.906625 c 0,-10.2500001 0,-10.9843751 10.988281,-10.9843751 l 24.902344,0 C 47.437,0.5629999 47.437,1.2973749 47.437,11.547375 z" fill="#aa0000"/>
 <path d="m 11.999999,12.000001 c 0,8.073772 0,16.896633 0,23.999998 l 23.999998,0 c 0,-23.999999 0,-14.250559 0,-23.999998 z" fill="#f9f9f9" fill-rule="evenodd"/><path d="m 12.999999,31 c 0,1.345628 0,2.816106 0,4 l 21.999999,0 c 0,-4 0,-2.375094 0,-4 z" fill="#aa0000" fill-rule="evenodd"/><path d="m 11.999999,12.000001 c 0,6.055329 0,12.672476 0,17.999999 l 24.000003,0 c 0,-18 0,-10.68792 0,-17.999999 z" fill="#f9f9f9" fill-rule="evenodd"/><path d="m 30.562471,19.951495 c 0,0 1.942538,0.03768 1.944441,1.388886 l 0,1.11111 c 0,0 0.555556,-0.02874 0.555554,0.277777 l -9e-6,2.847204 c -2.7e-5,0.257135 -0.25522,0.486127 -0.535713,0.486161 l -3.928567,0 c -0.28049,-3.4e-5 -0.535685,-0.229027 -0.535711,-0.486161 l 9e-6,-2.847204 c 0,-0.30651 0.555555,-0.277778 0.555555,-0.277778 l 0,-1.111109 c 0.01458,-1.352791 1.944443,-1.388886 1.944441,-1.388886 z m 0,0.833332 c 0,0 -1.11111,-0.04237 -1.11111,0.97222 l 0,0.694444 2.222218,0 0,-0.694444 c 0,-1.014594 -1.111108,-0.97222 -1.111108,-0.97222 z" fill="#aa0000" color="#000000"/><path d="m 12.999999,32 c 0,0.336409 0,0.704027 0,1 l 21.999999,0 c 0,-1 0,-0.593773 0,-1 z" fill="#aa0000" fill-rule="evenodd"/><path d="m 12.999999,34 c 0,0.336409 0,0.704027 0,1 l 21.999999,0 c 0,-1 0,-0.593773 0,-1 z" fill="#aa0000" fill-rule="evenodd"/>
 <path d="m 38.265125,47.438 c 2.542969,-0.01172 4.378906,-0.08203 5.710937,-0.441406 l -4.230468,-7.25 -4.484375,7.691406 1.191406,0 c 0.640625,0 1.242187,0 1.8125,0 z m 1.480469,-7.691406 -5.125,-8.789063 -5.128906,8.789063 z m 0,0 7.652344,0 c 0.03125,-0.972656 0.03906,-2.0625 0.03906,-3.296875 l 0,-1.097657 -2.5625,-4.394531 z m 5.128906,-8.789063 -5.128906,-8.789062 -5.125,8.789062 z m 0,0 2.5625,0 0,-4.394531 z m -10.253906,0 -5.128906,-8.789062 -5.125,8.789062 z m -10.253906,0 -5.128907,8.789063 10.253907,0 z m 0,0 -5.128907,-8.789062 -5.125,8.789062 z m -10.253907,0 -5.128906,8.789063 10.253906,0 z m 0,0 -5.128906,-8.789062 -5.125,8.789062 z m -10.253906,0 L 0.562,36.605969 c 0,1.167969 0.011719,2.210937 0.039062,3.140625 l 8.382813,0 z m 0,0 -3.296875,-5.648437 0,5.648437 z m 5.125,8.789063 -4.3125,7.394531 C 6.269031,47.434094 8.479969,47.438 11.550281,47.438 l 1.921875,0 z m 0,-17.578125 -5.125,-8.789063 -3.296875,5.648438 0,3.140625 z m 0,0 10.253906,0 -5.125,-8.789063 z m 5.128906,-8.789063 -5.128906,-8.7890622 -5.125,8.7890622 z m 0,0 10.253907,0 -5.128907,-8.7890622 z m 5.125,-8.7890622 -2.351562,-4.027344 -5.335938,0 c -0.07813,0 -0.140625,0 -0.214843,0 l -2.351563,4.027344 z m 0,0 10.253907,0 -2.351563,-4.027344 -5.550781,0 z m 10.253907,0 10.253906,0 -2.351563,-4.027344 c -0.3125,0 -0.609375,0 -0.941406,0 l -4.609375,0 z m 0,0 -5.125,8.7890622 10.253906,0 z m 5.128906,8.7890622 10.253906,0 -5.128906,-8.7890622 z m 0,0 -5.128906,8.789063 10.253906,0 z m 5.125,8.789063 7.691406,0 0,-4.394531 -2.5625,-4.394532 z m 5.128906,-8.789063 2.5625,0 0,-1.832031 c 0,-0.914063 -0.0078,-1.75 -0.02344,-2.523437 z m -15.382812,8.789063 -5.125,-8.789063 -5.128907,8.789063 z m 10.253906,-17.5781252 7.308594,0 C 46.4995,1.8325308 45.167469,0.9614378 42.022938,0.6879998 z m -30.761719,0 -2.304687,-3.953125 C 3.019031,0.8442498 1.538562,1.6333118 0.944812,4.5903438 z M 3.858875,13.379406 0.620594,7.8247188 C 0.577625,8.898938 0.562,10.133312 0.562,11.547375 l 0,1.832031 z m 15.378906,26.367188 -4.484375,7.691406 8.972656,0 z m 10.253907,0 -4.484376,7.691406 8.972657,0 z M 2.59325,46.367688 0.991688,43.621594 C 1.284656,44.938 1.776844,45.801281 2.59325,46.367688 z" fill="#ffffff" fill-opacity="0.052723311546840956"/>
</svg>