<svg xmlns="http://www.w3.org/2000/svg" width="48" height="48" viewBox="0 0 48 48">
 <path d="m 47.437,11.547375 0,24.90625 c 0,10.25 0,10.984375 -10.984375,10.984375 l -24.902344,0 C 0.562,47.438 0.562,46.703625 0.562,36.453625 l 0,-24.90625 c 0,-10.2499996 0,-10.9843746 10.988281,-10.9843746 l 24.902344,0 C 47.437,0.5630004 47.437,1.2973754 47.437,11.547375 z" fill="#df7900"/>
 <path d="m 47.437,11.547375 0,20.906625 c 0,10.25 0,10.984 -10.984375,10.984 l -24.902344,0 C 0.562,43.438 0.562,42.704 0.562,32.454 l 0,-20.906625 c 0,-10.2500001 0,-10.9843751 10.988281,-10.9843751 l 24.902344,0 C 47.437,0.5629999 47.437,1.2973749 47.437,11.547375 z" fill="#ff9900"/>
 <path d="m 25.863281,22.175781 c 0,1.363281 0.03125,2.5 -0.628906,3.710938 -0.53125,0.984375 -1.375,1.589843 -2.316406,1.589843 -1.285157,0 -2.03125,-1.023437 -2.03125,-2.535156 0,-2.984375 2.554687,-3.527344 4.976562,-3.527344 l 0,0.761719 m 3.375,8.527344 c -0.222656,0.207031 -0.542969,0.222656 -0.792969,0.08594 C 27.335938,29.824219 27.136719,29.375 26.523438,28.457031 24.691406,30.414062 23.390625,31 21.007812,31 18.195312,31 16,29.183594 16,25.546875 c 0,-2.839844 1.472656,-4.777344 3.566406,-5.722656 1.820313,-0.835938 4.355469,-0.984375 6.296875,-1.214844 l 0,-0.453125 c 0,-0.832031 0.05859,-1.816406 -0.40625,-2.535156 -0.410156,-0.644532 -1.191406,-0.910156 -1.878906,-0.910156 -1.273437,0 -2.414063,0.683593 -2.691406,2.101562 -0.05859,0.316406 -0.277344,0.625 -0.578125,0.640625 l -3.25,-0.363281 c -0.273438,-0.06641 -0.574219,-0.296875 -0.5,-0.734375 C 17.308594,12.242188 20.863281,11 24.042969,11 c 1.628906,0 3.757812,0.453125 5.042969,1.742188 1.628906,1.589843 1.472656,3.710937 1.472656,6.019531 l 0,5.457031 c 0,1.636719 0.648437,2.355469 1.261718,3.242188 0.21875,0.316406 0.265626,0.695312 -0.0078,0.929687 -0.683594,0.597656 -1.898438,1.703125 -2.566406,2.324219 l -0.0078,-0.01172" fill="#f9f9f9" fill-rule="evenodd"/><path d="M 34.5,33.703125 C 31.65625,35.851562 27.527344,37 23.976562,37 c -4.984374,0 -9.46875,-1.886719 -12.863281,-5.027344 -0.265625,-0.246094 -0.02734,-0.582031 0.292969,-0.390625 3.664062,2.183594 8.191406,3.496094 12.867188,3.496094 3.152343,0 6.625,-0.667969 9.8125,-2.058594 C 34.570312,32.8125 34.972656,33.34375 34.5,33.703125" fill="#f9f9f9"/><path d="m 35.683594,32.316406 c -0.359375,-0.476562 -2.402344,-0.226562 -3.320313,-0.113281 -0.28125,0.03516 -0.324219,-0.214844 -0.07031,-0.394531 1.625,-1.171875 4.296875,-0.835938 4.609375,-0.441406 0.308594,0.394531 -0.08203,3.136718 -1.613282,4.445312 -0.234374,0.203125 -0.457031,0.09375 -0.351562,-0.171875 0.34375,-0.878906 1.113281,-2.847656 0.746094,-3.324219" fill="#f9f9f9"/>
 <path d="m 38.265125,47.438 c 2.542969,-0.01172 4.378906,-0.08203 5.710937,-0.441406 l -4.230468,-7.25 -4.484375,7.691406 1.191406,0 c 0.640625,0 1.242187,0 1.8125,0 z m 1.480469,-7.691406 -5.125,-8.789063 -5.128906,8.789063 z m 0,0 7.652344,0 c 0.03125,-0.972656 0.03906,-2.0625 0.03906,-3.296875 l 0,-1.097657 -2.5625,-4.394531 z m 5.128906,-8.789063 -5.128906,-8.789062 -5.125,8.789062 z m 0,0 2.5625,0 0,-4.394531 z m -10.253906,0 -5.128906,-8.789062 -5.125,8.789062 z m -10.253906,0 -5.128907,8.789063 10.253907,0 z m 0,0 -5.128907,-8.789062 -5.125,8.789062 z m -10.253907,0 -5.128906,8.789063 10.253906,0 z m 0,0 -5.128906,-8.789062 -5.125,8.789062 z m -10.253906,0 L 0.562,36.605969 c 0,1.167969 0.011719,2.210937 0.039062,3.140625 l 8.382813,0 z m 0,0 -3.296875,-5.648437 0,5.648437 z m 5.125,8.789063 -4.3125,7.394531 C 6.269031,47.434094 8.479969,47.438 11.550281,47.438 l 1.921875,0 z m 0,-17.578125 -5.125,-8.789063 -3.296875,5.648438 0,3.140625 z m 0,0 10.253906,0 -5.125,-8.789063 z m 5.128906,-8.789063 -5.128906,-8.7890622 -5.125,8.7890622 z m 0,0 10.253907,0 -5.128907,-8.7890622 z m 5.125,-8.7890622 -2.351562,-4.027344 -5.335938,0 c -0.07813,0 -0.140625,0 -0.214843,0 l -2.351563,4.027344 z m 0,0 10.253907,0 -2.351563,-4.027344 -5.550781,0 z m 10.253907,0 10.253906,0 -2.351563,-4.027344 c -0.3125,0 -0.609375,0 -0.941406,0 l -4.609375,0 z m 0,0 -5.125,8.7890622 10.253906,0 z m 5.128906,8.7890622 10.253906,0 -5.128906,-8.7890622 z m 0,0 -5.128906,8.789063 10.253906,0 z m 5.125,8.789063 7.691406,0 0,-4.394531 -2.5625,-4.394532 z m 5.128906,-8.789063 2.5625,0 0,-1.832031 c 0,-0.914063 -0.0078,-1.75 -0.02344,-2.523437 z m -15.382812,8.789063 -5.125,-8.789063 -5.128907,8.789063 z m 10.253906,-17.5781252 7.308594,0 C 46.4995,1.8325308 45.167469,0.9614378 42.022938,0.6879998 z m -30.761719,0 -2.304687,-3.953125 C 3.019031,0.8442498 1.538562,1.6333118 0.944812,4.5903438 z M 3.858875,13.379406 0.620594,7.8247188 C 0.577625,8.898938 0.562,10.133312 0.562,11.547375 l 0,1.832031 z m 15.378906,26.367188 -4.484375,7.691406 8.972656,0 z m 10.253907,0 -4.484376,7.691406 8.972657,0 z M 2.59325,46.367688 0.991688,43.621594 C 1.284656,44.938 1.776844,45.801281 2.59325,46.367688 z" fill="#ffffff" fill-opacity="0.10457516339869281"/>
</svg>