<svg xmlns="http://www.w3.org/2000/svg" width="48" height="48">
 <path d="M 24 1 C 22.95484 1 21.98864 1.28405 21.15625 1.78125 L 5.8125 10.5 C 5.7952 10.513 5.7671 10.52325 5.75 10.53125 C 3.89811 11.58225 2.89886 13.5337 3 15.5 L 3 16.5 C 2.89886 14.5337 3.89811 12.58225 5.75 11.53125 C 5.7671 11.52325 5.7952 11.513 5.8125 11.5 L 21.15625 2.78125 C 21.98864 2.28405 22.95484 2 24 2 C 25.04515 2 26.01135 2.28395 26.84375 2.78125 L 42.09375 11.4375 C 42.966729 11.8971 43.71836 12.5938 44.25 13.5 C 44.80406 14.4417 45.0562 15.4877 45 16.5 L 45 15.5 C 45.0562 14.4877 44.80406 13.4417 44.25 12.5 C 43.71836 11.5938 42.966729 10.8971 42.09375 10.4375 L 26.84375 1.78125 C 26.01135 1.28395 25.04515 1 24 1 z " opacity="0.2" fill="#ffffff"/>
</svg>
