<svg xmlns="http://www.w3.org/2000/svg" xmlns:xlink="http://www.w3.org/1999/xlink" width="48" height="48">
 <defs>
  <linearGradient id="0">
   <stop stop-opacity="0"/>
   <stop offset="1"/>
  </linearGradient>
  <linearGradient xlink:href="#0" id="1" x1="24" y1="1005.36" x2="25" y2="1051.36" gradientUnits="userSpaceOnUse"/>
 </defs>
 <g transform="translate(0,-1004.3622)">
  <path d="m 24.000079,1005.3662 c -1.04516,0 -2.02343,0.2872 -2.85582,0.7844 l -15.3386896,8.7079 c -0.0173,0.013 -0.0346,0.013 -0.0517,0.021 -1.85189,1.051 -2.84681,3.0013 -2.74567,4.9676 l 0,17.0231 c -0.0562,1.0126 0.17538,2.0491 0.7294,2.9934 0.53165,0.9035 1.28783,1.6017 2.1608,2.0613 l 15.2457796,8.6528 c 0.83241,0.4973 1.81067,0.7845 2.85582,0.7845 1.04515,0 2.02341,-0.2872 2.85581,-0.7845 l 15.24579,-8.6528 c 0.872979,-0.4596 1.629149,-1.1578 2.160789,-2.0613 0.55406,-0.9443 0.78542,-1.9808 0.72942,-2.9934 l 0,-17.0134 c 0.0562,-1.0123 -0.17536,-2.0515 -0.72942,-2.9932 -0.53164,-0.9062 -1.28781,-1.6042 -2.160789,-2.0638 l -15.24579,-8.6531 c -0.8324,-0.4973 -1.81066,-0.7845 -2.85581,-0.7845 z" opacity="0.15" fill="url(#1)"/>
  <path d="m 23.999996,1005.3622 c -1.04516,0 -2.01136,0.284 -2.84375,0.7813 l -15.3437497,8.7187 c -0.0173,0.013 -0.0454,0.023 -0.0625,0.031 -1.85189,1.051 -2.85114,3.0024 -2.75,4.9687 l 0,2 c -0.10114,-1.9663 0.89811,-3.9177 2.75,-4.9687 0.0171,-0.01 0.0452,-0.018 0.0625,-0.031 l 15.3437497,-8.7187 c 0.83239,-0.4973 1.79859,-0.7813 2.84375,-0.7813 1.04515,0 2.01135,0.284 2.84375,0.7813 l 15.25,8.6562 c 0.872979,0.4596 1.62461,1.1563 2.15625,2.0625 0.55406,0.9417 0.8062,1.9877 0.75,3 l 0,-2 c 0.0562,-1.0123 -0.19594,-2.0583 -0.75,-3 -0.53164,-0.9062 -1.283271,-1.6029 -2.15625,-2.0625 l -15.25,-8.6562 c -0.8324,-0.4973 -1.7986,-0.7813 -2.84375,-0.7813 z" opacity="0.1"/>
 </g>
</svg>
