<!-- color: #ffd401 --><svg xmlns="http://www.w3.org/2000/svg" viewBox="0 0 48 48"><g><path d="m 11 11 l 0 26 l 26 0 l 0 -26 m -25 1 l 24 0 l 0 24 l -24 0 m 0 -24" fill="#f9f9f9" stroke="none" fill-rule="nonzero" fill-opacity="1"/><path d="m 22 33 l -1 0 l 0 2 l -2 0 l 0 -2 l -4 0 l 0 -2 l 3.5 -6 l 2.5 0 l 0 6 l 1 0 l 0 2 m -3 -2 l 0 -4 l -2 4" fill="#f9f9f9" stroke="none" fill-rule="nonzero" fill-opacity="1"/><path d="m 21 23 l -6 0 l 0 -2 c 3.117 -3.117 4.891 -4.234 3.539 -5.582 c -0.629 -0.629 -1.336 -0.113 -2.539 0.582 l -1 -2 c 1.77 -1.172 3.695 -1.324 5 0 c 2.691 2.73 -1.125 5.367 -2.559 7 c 1.504 0 2.055 0 3.559 0" fill="#f9f9f9" stroke="none" fill-rule="nonzero" fill-opacity="1"/><path d="m 30 25 c -1.656 0 -3 1.344 -3 3 c 0 0.773 0.52 1.469 1 2 c -0.48 0.531 -1 1.227 -1 2 c 0 1.656 1.344 3 3 3 c 1.656 0 3 -1.344 3 -3 c 0 -0.773 -0.52 -1.469 -1 -2 c 0.48 -0.531 1 -1.227 1 -2 c 0 -1.656 -1.344 -3 -3 -3 m 0 2 c 0.551 0 1 0.449 1 1 c 0 0.551 -0.664 1 -1 1 c -0.336 0 -1 -0.449 -1 -1 c 0 -0.551 0.449 -1 1 -1 m 0 4 c 0.367 0 1 0.449 1 1 c 0 0.551 -0.449 1 -1 1 c -0.551 0 -1 -0.449 -1 -1 c 0 -0.551 0.633 -1 1 -1 m 0 0" fill="#f9f9f9" stroke="none" fill-rule="nonzero" fill-opacity="1"/></g></svg>