<!-- color: #ebebeb --><svg xmlns="http://www.w3.org/2000/svg" viewBox="0 0 48 48"><g><path d="m 24 9 c -8.285 0 -15 6.715 -15 15 c 0.004 8.285 6.719 15 15 15 c 8.281 0 14.996 -6.715 15 -15 c 0 -8.281 -6.715 -15 -15 -15 m 0 7 c 4.418 0 8 3.582 8 8 c 0 4.418 -3.582 8 -8 8 c -4.418 0 -8 -3.582 -8 -8 c 0 -4.418 3.582 -8 8 -8 m 0 0" fill="#f9f9f9" stroke="none" fill-rule="nonzero" fill-opacity="1"/><path d="m 24 19 c 3 0 4 3 1 4.75 c 1.457 0.602 2 1.141 2 2.75 c 0 1.5 -1 2.5 -3 2.5 c -2 0 -3 -1 -3 -2.5 c 0 -1 0.727 -2.191 2 -2.75 c -3 -1.75 -2 -4.75 1 -4.75 m -2 7.5 c 0 2.5 4 2.5 4 0 c 0 -1.5 -1 -2.223 -2 -2.285 c -1.371 0.078 -2 0.785 -2 2.285 m 1.988 -6.75 c -2.988 0.25 -1.988 3.25 0.059 3.613 c 1.953 -0.363 2.953 -3.363 -0.047 -3.613" fill="#f9f9f9" stroke="none" fill-rule="nonzero" fill-opacity="1"/></g></svg>