<!-- color: #f8523f --><svg xmlns="http://www.w3.org/2000/svg" viewBox="0 0 48 48"><g><path d="m 23 10 l -3 7 l -10 -1 l 5.996 6 l -7 4 l 8 1 l -5.996 8 l 9 -3 l 0.996 6 l 5 -5 l 8 5 l -3 -9 l 8 -1 l -7 -4 l 5 -2 l -4 -1.996 l 5 -9 l -11 4.996 m -4.465 1 l 2.938 0 c 0.293 0 0.531 0.238 0.531 0.531 l 0 7.938 c 0 0.293 -0.238 0.531 -0.531 0.531 l -2.938 0 c -0.293 0 -0.531 -0.238 -0.531 -0.531 l 0 -7.938 c 0 -0.293 0.238 -0.531 0.531 -0.531 m 0 10 l 2.938 0 c 0.293 0 0.531 0.238 0.531 0.531 l 0 2.938 c 0 0.293 -0.238 0.531 -0.531 0.531 l -2.938 0 c -0.293 0 -0.531 -0.238 -0.531 -0.531 l 0 -2.938 c 0 -0.293 0.238 -0.531 0.531 -0.531 m 0 0" fill="#f9f9f9" stroke="none" fill-rule="nonzero" fill-opacity="1"/></g></svg>