<!-- color: #cc5d9d --><svg xmlns="http://www.w3.org/2000/svg" viewBox="0 0 48 48"><g><path d="m 23.504 12 c -1.742 0 -3.391 0.309 -4.906 0.941 c -1.512 0.625 -2.805 1.477 -3.934 2.563 c -0.605 0.578 -1.156 1.215 -1.629 1.906 c 9.945 -5.652 16.652 0.398 16.559 2.313 c -0.066 1.406 -1.297 1.145 -4.03 0.375 c -5.816 -1.633 -11.82 0.457 -13.344 5.469 c -0.512 1.758 -0.094 3.543 0.813 5 c 0.023 0.023 0.023 0.066 0.031 0.09 c 0.461 0.664 1.012 1.281 1.598 1.844 c 1.129 1.082 2.43 1.934 3.941 2.563 c 1.516 0.625 3.164 0.941 4.906 0.941 c 1.719 0 3.316 -0.313 4.844 -0.941 c 1.535 -0.629 2.867 -1.477 4 -2.563 c 1.129 -1.086 2 -2.359 2.656 -3.813 c 0.648 -1.453 1 -3.02 1 -4.688 c 0 -1.648 -0.352 -3.203 -1 -4.656 c -0.656 -1.477 -1.527 -2.762 -2.656 -3.844 c -1.133 -1.086 -2.465 -1.938 -4 -2.563 c -1.523 -0.629 -3.125 -0.941 -4.844 -0.941 m -0.91 12.04 c 1.816 -0.086 3.602 0.383 4.844 1.27 c 1.238 0.887 1.801 2.098 1.531 3.293 c -0.563 2.141 -3.59 3.59 -6.836 3.27 c -3.242 -0.316 -5.516 -2.301 -5.105 -4.457 c 0.422 -1.852 2.738 -3.254 5.566 -3.371 m -0.004 -0.004" fill="#f9f9f9" stroke="none" fill-rule="nonzero" fill-opacity="1"/></g></svg>