<!-- color: #5173bf --><svg xmlns="http://www.w3.org/2000/svg" viewBox="0 0 48 48"><g><path d="m 23.781 11.156 l -0.125 0.063 l -4.281 2.75 l -0.063 0.031 l -0.031 0.094 l -7.844 19.406 l -0.156 0.344 l 0.406 0 l 20.938 -1.281 l 0.094 -0.031 l 0.094 -0.063 l 2.656 -3.406 l 0.063 -0.063 l 0 -0.094 l -0.688 -7.281 l -0.031 -0.094 l -0.031 -0.031 l -6.719 -8 l -0.063 -0.063 l -4.094 -2.219 m -0.094 0.5 l 3.5 1.906 l -7.188 0.469 m 7.781 0 l 6.25 7.438 l -0.813 4.375 l -4.281 -1.5 l -3.219 -5.438 l 0 -0.063 l 0.344 -4.688 m -0.531 0.031 l -0.313 4.5 l -5.625 3.563 l 0.063 -7.688 m -0.5 0.844 l -0.063 6.781 l -6.688 9.906 m 12.906 -12.844 l 3.094 5.25 l -3.219 5 l -5.344 -6.844 m 14.469 0 l 0.594 6.156 l -2.25 2.813 m -13.344 -8.844 l 5.25 6.75 l -12.03 3.25 m 16.281 -7.938 l 4.313 1.5 l -1.063 5.688 l -3.281 0.188 l -1.219 -0.844 l -1.969 -1.594 m -0.625 0.188 l 2.375 1.844 l 0.625 0.469 l -15.03 0.906 m 12.03 -3.219" fill="#f9f9f9" stroke="none" fill-rule="nonzero" fill-opacity="1"/></g></svg>