<!-- color: #eeeeee --><svg xmlns="http://www.w3.org/2000/svg" viewBox="0 0 48 48"><g><path d="m 23.656 9 l -6.656 16.563 l 21.375 2.688 c 0.016 -0.051 0.016 -0.105 0.031 -0.156 l -16.406 -7.594 l 1.719 -11.5 c -0.02 0 -0.043 0 -0.063 0 m 5.063 1.125 c -0.109 0.02 -0.211 0.137 -0.25 0.125 l -4.563 8.938 l 13.512 7.242 c 0.352 -0.016 0.34 -0.227 0.207 -0.43 l -9.219 -8.406 l 0.563 -7.03 c -0.027 -0.367 -0.141 -0.457 -0.25 -0.438 m -10.813 0.188 c -5.246 2.336 -8.906 7.574 -8.906 13.688 c 0 8.285 6.715 15 15 15 c 6.152 0 11.438 -3.699 13.75 -9 l -23.438 0 m 17.188 -18.16 l -1.656 5.094 l 7.449 7.227 c 0.215 0.313 1.395 0.5 1.645 -0.414 c 0 -4.898 -2.277 -8.984 -5.906 -11.719 c -0.848 -0.438 -1.395 -0.543 -1.531 -0.188 m 0 0" fill="#f9f9f9" stroke="none" fill-rule="nonzero" fill-opacity="1"/></g></svg>