<!-- color: #eeeeee --><svg xmlns="http://www.w3.org/2000/svg" viewBox="0 0 48 48"><g><path d="m 15.281 14 c -1.805 0 -3.281 1.473 -3.281 3.281 l 0 13.438 c 0 1.809 1.477 3.281 3.281 3.281 l 9.469 0 l -0.063 0.156 l 0 0.031 l -0.656 2.125 l 2.094 -0.75 l 0.031 0 l 2.094 -0.781 l 0.75 -0.781 l 3.719 0 c 1.809 0 3.281 -1.473 3.281 -3.281 l 0 -4.156 l 1.156 -1.219 l 0.094 -0.094 l 0.438 -0.469 l 1.156 -1.219 c 0 0 0.152 -0.633 -1.063 -1.781 c -0.938 -0.887 -1.559 -0.949 -1.781 -0.938 l 0 -3.563 c 0 -1.809 -1.473 -3.281 -3.281 -3.281 m -17.09 2 l 16.75 0 c 0.891 0 1.625 0.734 1.625 1.625 l 0 5.219 l -4 4.25 l 0 -0.094 l -2 0 l 0 1 l 1 0 l 0 0.156 l -2 2.125 l 0 -0.281 l -1 0 l 0 -3 l -2 0 l 0 1 l 1 0 l 0 2 l -1 0 l 0 1 l 2.313 0 l -0.938 1 l -9.75 0 c -0.895 0 -1.625 -0.73 -1.625 -1.625 l 0 -12.75 c 0 -0.891 0.73 -1.625 1.625 -1.625 m 12.344 0.969 l 0 4 l 3 0 l 0 -4 m -14.969 0.031 l 0 4 l 3 0 l 0 -4 m 1 0 l 0 4 l 3 0 l 0 -4 m 1 0 l 0 1 l 1 0 l 0 2 l -1 0 l 0 1 l 3 0 l 0 -1 l -1 0 l 0 -3 m 2.969 0.969 l 1 0 l 0 2 l -1 0 m -11.969 -1.969 l 1 0 l 0 2 l -1 0 m 4 -2 l 1 0 l 0 2 l -1 0 m -5 2 l 0 4 l 3 0 l 0 -4 m 1 0 l 0 1 l 1 0 l 0 2 l -1 0 l 0 1 l 3 0 l 0 -1 l -1 0 l 0 -3 m 2 0 l 0 4 l 3 0 l 0 -4 m 1 0 l 0 4 l 3 0 l 0 -4 m -14 1 l 1 0 l 0 2 l -1 0 m 8 -2 l 1 0 l 0 2 l -1 0 m 4 -2 l 1 0 l 0 2 l -1 0 m -13 2 l 0 1 l 1 0 l 0 2 l -1 0 l 0 1 l 3 0 l 0 -1 l -1 0 l 0 -3 m 2 0 l 0 4 l 3 0 l 0 -4 m -2 1 l 1 0 l 0 2 l -1 0 m 13 -1.313 l 0 1.688 c 0 0.895 -0.734 1.625 -1.625 1.625 l -1.5 0 m 3.125 -3.313" fill="#f9f9f9" stroke="none" fill-rule="nonzero" fill-opacity="1"/></g></svg>