<!-- color: #eeeeee --><svg xmlns="http://www.w3.org/2000/svg" viewBox="0 0 48 48"><g><path d="m 11.785 11.781 c -0.68 0.676 -1.125 1.336 -0.449 2.02 l 22.801 22.813 c 0.676 0.676 1.516 0.406 2.195 -0.27 c 0.68 -0.676 0.953 -1.512 0.277 -2.188 l -22.801 -22.813 c -0.676 -0.68 -1.344 -0.23 -2.02 0.441 m 4.34 4.348 c 0.348 -0.348 0.672 -0.559 1.02 -0.211 l 18.84 18.844 c 0.348 0.348 0.074 0.613 -0.273 0.961 c -0.344 0.348 -0.613 0.613 -0.957 0.27 l -18.84 -18.848 c -0.348 -0.348 -0.133 -0.668 0.215 -1.016 m -0.004 0" fill="#f9f9f9" stroke="none" fill-rule="nonzero" fill-opacity="1"/><path d="m 17.5 24.805 l -0.813 2.43 l -2.438 0.813 l 2.438 0.809 l 0.813 2.434 l 0.813 -2.434 l 2.438 -0.809 l -2.438 -0.813 m -0.813 -2.43" fill="#f9f9f9" stroke="none" fill-rule="nonzero" fill-opacity="1"/><path d="m 31.719 11.438 l -1.219 3.645 l -3.656 1.219 l 3.656 1.215 l 1.219 3.645 l 1.219 -3.645 l 3.656 -1.215 l -3.656 -1.219 m -1.219 -3.645" fill="#f9f9f9" stroke="none" fill-rule="nonzero" fill-opacity="1"/><path d="m 21.563 11.03 l -0.813 2.43 l -2.438 0.813 l 2.438 0.809 l 0.813 2.434 l 0.809 -2.434 l 2.438 -0.809 l -2.438 -0.813 m -0.809 -2.43" fill="#f9f9f9" stroke="none" fill-rule="nonzero" fill-opacity="1"/></g></svg>