<!-- color: #2979a2 --><svg xmlns="http://www.w3.org/2000/svg" viewBox="0 0 48 48"><g><path d="m 19.938 11 c -2.293 0 -4.598 0.879 -6.344 2.625 c -3.484 3.488 -3.484 9.168 0 12.656 c 3.488 3.488 9.168 3.488 12.656 0 c 3.488 -3.488 3.488 -9.168 0 -12.656 c -1.746 -1.746 -4.02 -2.625 -6.313 -2.625 m 0 1.469 c 1.91 0 3.82 0.727 5.281 2.188 c 2.926 2.926 2.926 7.637 0 10.563 c -2.926 2.926 -7.637 2.926 -10.563 0 c -2.922 -2.926 -2.922 -7.637 0 -10.563 c 1.461 -1.461 3.371 -2.188 5.281 -2.188 m 0 0" fill="#f9f9f9" stroke="none" fill-rule="nonzero" fill-opacity="1"/><path d="m 30.11 32.27 l 2.145 -2.145 l 4.734 4.734 l -2.141 2.145 m -4.738 -4.734" fill="#f9f9f9" stroke="none" fill-rule="nonzero" fill-opacity="1"/><path d="m 25.563 27.08 l 1.504 -1.504 l 4.734 4.734 l -1.504 1.504 m -4.734 -4.734" fill="#f9f9f9" stroke="none" fill-rule="nonzero" fill-opacity="1"/></g></svg>