<!-- color: #3d3d3d --><svg xmlns="http://www.w3.org/2000/svg" viewBox="0 0 48 48"><g><path d="m 36 33.01 l 0 -12.05 l -6.156 0 c 0.531 0.953 0.836 2.059 0.836 3.234 c 0 3.688 -2.992 6.68 -6.68 6.68 c -3.691 0 -6.68 -2.992 -6.68 -6.68 c 0 -1.176 0.301 -2.277 0.832 -3.234 l -6.156 0 l 0 12.05 c 0 1.648 1.332 2.98 2.988 2.98 l 18.03 0 c 1.656 0 2.988 -1.32 2.988 -2.98 m 0 0" fill="#f9f9f9" stroke="none" fill-rule="nonzero" fill-opacity="1"/><path d="m 28.559 14.371 c 0 -0.508 0.41 -0.918 0.918 -0.918 l 2.605 0 c 0.504 0 0.918 0.41 0.918 0.918 l 0 2.605 c 0 0.508 -0.414 0.918 -0.918 0.918 l -2.605 0 c -0.508 0 -0.918 -0.41 -0.918 -0.918 m 7.426 2.449 l 0 -4.441 c 0 -1.656 -1.328 -2.988 -2.984 -2.988 l -18.03 0 c -1.656 0 -2.984 1.332 -2.984 2.988 l 0 4.441 l 7.32 0 c 1.203 -1.184 2.852 -1.914 4.68 -1.914 c 1.82 0 3.477 0.73 4.68 1.914 m 7.32 0" fill="#f9f9f9" stroke="none" fill-rule="nonzero" fill-opacity="1"/><path d="m 18.508 24.16 c 0 3.03 2.457 5.492 5.492 5.492 c 3.03 0 5.492 -2.461 5.492 -5.492 c 0 -3.035 -2.461 -5.492 -5.492 -5.492 c -3.035 0 -5.492 2.457 -5.492 5.492 m 0 0" fill="#f9f9f9" stroke="none" fill-rule="nonzero" fill-opacity="1"/></g></svg>