<!-- color: #e12a20 --><svg xmlns="http://www.w3.org/2000/svg" viewBox="0 0 48 48"><g><path d="m 19.05 12 l -7.05 7.05 l 0 9.926 l 7.05 7.03 l 9.926 0 l 7.03 -7.03 l 0 -9.926 l -7.03 -7.05 m -9.277 1.602 l 8.625 0 l 6.078 6.102 l 0 8.625 l -6.078 6.078 l -8.625 0 l -6.102 -6.078 l 0 -8.625 m 6.102 -6.102" fill="#f9f9f9" stroke="none" fill-rule="nonzero" fill-opacity="1"/><path d="m 24.313 15.199 c -0.316 0 -0.57 0.254 -0.57 0.57 l 0 7.379 c -0.016 0 -0.035 0 -0.051 0 c -0.137 0.012 -0.258 0.031 -0.391 0.055 c -0.043 0.004 -0.086 0.008 -0.125 0.016 l 0 -6.883 c 0 -0.316 -0.25 -0.566 -0.566 -0.566 l -0.566 0 c -0.316 0 -0.566 0.25 -0.566 0.566 l 0 7.539 c -0.141 0.09 -0.277 0.199 -0.406 0.301 c -0.02 0.02 -0.051 0.035 -0.074 0.055 c -0.02 0.023 -0.059 0.043 -0.086 0.07 l 0 -5.129 c 0 -0.313 -0.254 -0.566 -0.563 -0.566 l -0.57 0 c -0.313 0 -0.563 0.254 -0.563 0.566 c 0 0 0.02 9.117 0.02 9.141 c 0.035 0.5 0.148 0.977 0.316 1.418 c 0.176 0.445 0.41 0.84 0.688 1.207 c 0.004 0.008 0.02 0.008 0.023 0.016 c 0.09 0.117 0.199 0.227 0.301 0.336 c 0.102 0.113 0.207 0.223 0.32 0.32 c 0.004 0.004 0.012 -0.004 0.016 0 c 0.113 0.102 0.219 0.199 0.336 0.285 c 0.004 0.004 0.016 -0.004 0.02 0 c 0.121 0.082 0.242 0.172 0.371 0.246 c 0.008 0.004 0.012 0.016 0.02 0.02 c 0.23 0.129 0.473 0.227 0.727 0.316 c 0.039 0.016 0.066 0.039 0.105 0.055 c 0.004 0.004 0.012 -0.004 0.016 0 c 0.145 0.051 0.297 0.105 0.445 0.141 c 0.008 0 0.008 0 0.016 0 c 0.148 0.035 0.293 0.051 0.445 0.07 c 0.16 0.023 0.324 0.051 0.496 0.055 c 0.156 0.004 0.316 -0.008 0.477 -0.02 c 0.152 -0.008 0.293 -0.027 0.445 -0.051 c 0.152 -0.023 0.293 -0.051 0.441 -0.09 c 0.027 -0.008 0.059 -0.012 0.09 -0.016 c 0.113 -0.035 0.227 -0.086 0.336 -0.125 c 0.105 -0.039 0.215 -0.078 0.316 -0.125 c 0.031 -0.012 0.063 -0.02 0.09 -0.035 c 0.051 -0.023 0.094 -0.047 0.141 -0.07 c 0.098 -0.051 0.191 -0.102 0.285 -0.16 c 0.227 -0.133 0.438 -0.289 0.637 -0.461 c 0.113 -0.094 0.219 -0.195 0.32 -0.301 c 0.098 -0.102 0.195 -0.207 0.281 -0.32 c 0.09 -0.105 0.172 -0.223 0.25 -0.336 c 0.242 -0.352 0.441 -0.73 0.586 -1.133 c 0 -0.012 0.012 -0.023 0.016 -0.035 c 0.137 -0.402 0.223 -0.824 0.25 -1.258 c 0 -0.008 0.574 -2.848 2.27 -5.961 c 0 -0.566 -0.566 -0.566 -0.566 -0.566 l -1.133 0.566 c -0.289 0.145 -0.57 0.566 -0.57 0.566 l -1.133 1.988 l 0 -7.379 c 0 -0.316 -0.25 -0.566 -0.566 -0.566 l -0.563 0 c -0.316 0 -0.566 0.25 -0.566 0.566 l 0 6.102 c -0.18 -0.082 -0.375 -0.152 -0.566 -0.215 l 0 -7.594 c 0 -0.313 -0.254 -0.566 -0.566 -0.566 m -0.57 -0.004" fill="#f9f9f9" stroke="none" fill-rule="nonzero" fill-opacity="1"/></g></svg>