<!-- color: #3d3d3d --><svg xmlns="http://www.w3.org/2000/svg" viewBox="0 0 48 48"><g><path d="m 17.281 12 c -2.934 0 -5.281 1.867 -5.281 4.188 l 0 13.625 c 0 2.32 2.348 4.188 5.281 4.188 l 13.438 0 c 2.934 0 5.281 -1.867 5.281 -4.188 l 0 -13.625 c 0 -2.32 -2.348 -4.188 -5.281 -4.188 m -12.719 4 l 4 0 l 0 1 l 9 0 c 0.609 0 1 0.422 1 1 l 0 10 c 0 0.594 -0.391 1 -1 1 l -14 0 c -0.586 0 -1 -0.391 -1 -1 l 0 -10 c 0 -0.602 0.324 -1 1 -1 l 1 0 m 12 1 c -0.551 0 -1 0.449 -1 1 c 0 0.551 0.449 1 1 1 c 0.551 0 1 -0.449 1 -1 c 0 -0.551 -0.449 -1 -1 -1 m -6 1 c -2.211 0 -4 1.789 -4 4 c 0 2.211 1.789 4 4 4 c 2.211 0 4 -1.789 4 -4 c 0 -2.211 -1.789 -4 -4 -4 m 0 0" fill="#f9f9f9" stroke="none" fill-rule="nonzero" fill-opacity="1"/><path d="m 16 30 l 15 0 l 3 8 m -18 -8" fill="#f9f9f9" stroke="none" fill-rule="nonzero" fill-opacity="1"/></g></svg>