<!-- color: #fac82a --><svg xmlns="http://www.w3.org/2000/svg" viewBox="0 0 48 48"><g><path d="m 11.969 20 c -0.57 0.027 -0.969 0.176 -0.969 0.781 l 0 12.75 c 0 0.809 0.688 1.469 1.563 1.469 l 22.844 0 c 0.879 0 1.594 -0.66 1.594 -1.469 l 0 -12.75 c 0 -0.809 -0.715 -0.781 -1.594 -0.781 l -22.844 0 c -0.219 0 -0.402 -0.012 -0.594 0 m 18.03 2 l 1.5 1 l -10.5 9.5 l -5 -3.945 l 1 -1.555 l 4 3 m 9 -8" fill="#f9f9f9" stroke="none" fill-rule="nonzero" fill-opacity="1"/><path d="m 15.05 13.402 l -3.25 4.598 l 11.199 0 l 0 -7 l -5.512 0 c -0.809 0 -2.438 2.402 -2.438 2.402 m 9.941 -2.402 l 0 7 l 11.184 0 l -3.25 -4.598 c 0 0 -1.625 -2.402 -2.441 -2.402 m -5.492 0" fill="#f9f9f9" stroke="none" fill-rule="nonzero" fill-opacity="1"/></g></svg>