<!-- color: #8b5371 --><svg xmlns="http://www.w3.org/2000/svg" viewBox="0 0 48 48" xmlns:xlink="http://www.w3.org/1999/xlink"><g><path d="m 24 13 c -6.06 0 -11 4.941 -11 11 c 0 6.06 4.941 11 11 11 c 6.06 0 11 -4.941 11 -11 c 0 -6.06 -4.941 -11 -11 -11 m 0 3.03 c 4.418 0 7.969 3.551 7.969 7.969 c 0 4.418 -3.551 7.969 -7.969 7.969 c -4.418 0 -7.969 -3.551 -7.969 -7.969 c 0 -4.418 3.551 -7.969 7.969 -7.969 m 0 0" fill="#f9f9f9" stroke="none" fill-rule="nonzero" fill-opacity="1"/><path d="m 23.06 33 l 0 4 l 2.938 0 l 0 -4 m -2.938 0" fill="#f9f9f9" stroke="none" fill-rule="nonzero" fill-opacity="1" id="SVGCleanerId_0"/><path d="m 23.06 11 l 0 4 l 2.938 0 l 0 -4 m -2.938 0" fill="#f9f9f9" stroke="none" fill-rule="nonzero" fill-opacity="1" id="SVGCleanerId_1"/><path d="m 11 23.06 l 0 2.938 l 4 0 l 0 -2.938 m -4 0" fill="#f9f9f9" stroke="none" fill-rule="nonzero" fill-opacity="1"/><path d="m 33 23.06 l 0 2.938 l 4 0 l 0 -2.938 m -4 0" fill="#f9f9f9" stroke="none" fill-rule="nonzero" fill-opacity="1"/><use xlink:href="#SVGCleanerId_0"/><use xlink:href="#SVGCleanerId_1"/><path d="m 31.781 28.938 l -2.094 2.094 l 2.844 2.844 l 1.344 -1.344 l 0.719 -0.75 l -0.719 -0.75 m -2.094 -2.094" fill="#f9f9f9" stroke="none" fill-rule="nonzero" fill-opacity="1"/><path d="m 16.219 13.406 l -0.75 0.719 l -1.344 1.344 l 2.844 2.844 l 2.094 -2.094 l -2.094 -2.094 m -0.75 -0.719" fill="#f9f9f9" stroke="none" fill-rule="nonzero" fill-opacity="1"/><path d="m 16.969 29.688 l -2.844 2.844 l 1.344 1.344 l 0.75 0.719 l 0.75 -0.719 l 2.094 -2.094 m -2.094 -2.094" fill="#f9f9f9" stroke="none" fill-rule="nonzero" fill-opacity="1"/><path d="m 32.531 14.13 l -2.844 2.844 l 2.094 2.094 l 2.094 -2.094 l 0.719 -0.75 l -0.719 -0.75 m -1.344 -1.344" fill="#f9f9f9" stroke="none" fill-rule="nonzero" fill-opacity="1"/><path d="m 27.04 24.02 c 0.148 1.16 -0.387 2.305 -1.375 2.934 c -0.988 0.629 -2.254 0.629 -3.242 0 c -0.992 -0.629 -1.527 -1.773 -1.375 -2.934 c -0.152 -1.164 0.383 -2.305 1.375 -2.934 c 0.988 -0.629 2.254 -0.629 3.242 0 c 0.988 0.629 1.523 1.77 1.375 2.934 m 0 0" fill="#f9f9f9" stroke="none" fill-rule="nonzero" fill-opacity="1"/></g></svg>