<!-- color: #eeeeee --><svg xmlns="http://www.w3.org/2000/svg" viewBox="0 0 48 48"><g><path d="m 25.438 7.5 c 1.113 2.094 2.01 4.066 2.688 5.906 c -1.395 -0.082 -2.723 -0.113 -3.938 -0.094 l 0 -0.031 c -13.352 0.223 -15.766 6.75 -7.313 19.563 c 0.797 -0.141 1.566 -0.289 2.281 -0.469 c -2.531 -8.906 0.707 -14.496 9.688 -16.75 c 2.535 8.906 -0.695 14.496 -9.688 16.75 c -2.473 0.621 -5.375 1.01 -8.719 1.125 c 2.734 0.453 5.234 0.766 7.531 0.969 c 1.32 1.883 2.84 3.898 4.594 6.03 c -1.105 -2.082 -2.01 -4.04 -2.688 -5.875 c 16.73 1 20.469 -5.488 11.25 -19.469 c 1.934 -0.336 4.066 -0.574 6.438 -0.656 c -2.727 -0.453 -5.242 -0.734 -7.531 -0.938 c -1.324 -1.891 -2.832 -3.922 -4.594 -6.06 m 0 0" fill="#f9f9f9" stroke="none" fill-rule="nonzero" fill-opacity="1"/></g></svg>