<!-- color: #eeeeee --><svg xmlns="http://www.w3.org/2000/svg" viewBox="0 0 48 48"><g><path d="m 12.813 12 c -0.438 0.047 -0.816 0.465 -0.813 0.906 l 0 15.09 c 0 0.473 0.527 1 1 1 l 9 0 l 0 4 l -7 0 l 0 3 l 18 0 l 0 -3 l -7 0 l 0 -4 l 9 0 c 0.473 0 1 -0.527 1 -1 l 0 -15.09 c 0 -0.473 -0.434 -0.906 -0.906 -0.906 m -21.281 1 l 3.188 0 c 0 2.211 -1.793 4 -4 4 l 0 -3.094 c -0.004 -0.441 0.371 -0.859 0.813 -0.906 m 21.19 11 l 0 3 c 0 0.473 -0.527 1 -1 1 l -3 0 c 0 -2.211 1.793 -4 4 -4 m 0 0" fill="#f9f9f9" stroke="none" fill-rule="nonzero" fill-opacity="1"/></g></svg>