<!-- color: #005e9d --><svg xmlns="http://www.w3.org/2000/svg" viewBox="0 0 48 48"><g><path d="m 25.438 7.508 c 18.09 21.992 13.09 30.652 -15 25.98 c 18.859 -0.66 23.859 -9.32 15 -25.98 m 0 0" fill="#f9f9f9" stroke="none" fill-rule="nonzero" fill-opacity="1"/><path d="m 24.19 13.281 c -13.355 0.227 -15.766 6.746 -7.316 19.563 c 0.801 -0.141 1.563 -0.285 2.281 -0.469 c -3.227 -11.359 2.906 -17.332 18.406 -17.875 c -5.266 -0.875 -9.73 -1.281 -13.375 -1.219 m -6.215 21.19 c 1.313 1.883 2.836 3.895 4.594 6.03 c -1.109 -2.082 -2.01 -4.04 -2.691 -5.875 c -0.613 -0.035 -1.254 -0.098 -1.902 -0.156 m 0 0.004" fill="#f9f9f9" stroke="none" fill-rule="nonzero" fill-opacity="1"/><path d="m 22.512 19 l 0 0.75 l -1.496 0 l 0 1.125 l 5.984 0 l 0 -1.125 l -1.496 0 l 0 -0.75 m -4.5 2.25 l 0 5.625 c 0 0.977 -0.105 1.125 0.75 1.125 l 4.488 0 c 0.852 0 0.746 -0.148 0.746 -1.125 l 0 -5.625 m -5.223 1.125 l 0.746 0 l 0 4.5 l -0.746 0 m 1.867 -4.5 l 0.75 0 l 0 4.5 l -0.75 0 m 1.871 -4.5 l 0.738 0 l 0 4.5 l -0.738 0 m 0 -4.5" fill="#f9f9f9" stroke="none" fill-rule="nonzero" fill-opacity="1"/></g></svg>