<!-- color: #eeeeee --><svg xmlns="http://www.w3.org/2000/svg" viewBox="0 0 48 48"><g><path d="m 24.875 12 c -0.199 0 -6.04 3.797 -7.344 4.75 c -0.023 0 -0.406 0.406 -0.406 0.406 l -2.594 3.719 l -2.531 3.813 l 0.344 1.094 l 1.594 1.594 l 1.625 1.563 l 1.563 0.594 l 0.938 2.063 l 2.156 2.219 l 2.188 2.188 l 9.125 0 l 1.188 -3.25 c 0.008 -0.004 0.023 0.004 0.031 0 c 0.016 0.063 0.781 -0.563 1.625 -0.813 l 1.625 -0.469 l 0 -9.125 l -2.281 -2.188 l -2.219 -2.188 l -0.844 -0.375 c -0.004 0 -1.125 -0.438 -1.125 -0.438 l -0.281 -0.906 l -0.25 -0.75 l -1.438 -1.438 l -1.438 -1.5 l -0.531 -0.281 c -0.305 -0.156 -0.621 -0.281 -0.719 -0.281 m 0 0" fill="#f9f9f9" stroke="none" fill-rule="nonzero" fill-opacity="1"/></g></svg>