<!-- color: #eeeeee --><svg xmlns="http://www.w3.org/2000/svg" viewBox="0 0 48 48"><g><path d="m 36 32.32 c 0 1.328 -0.453 2.441 -1.355 3.336 c -0.902 0.895 -2.02 1.344 -3.355 1.344 c -1.543 0 -2.887 -0.566 -4.03 -1.703 l -13.32 -13.203 c -1.289 -1.305 -1.938 -2.84 -1.938 -4.609 c 0 -1.805 0.629 -3.34 1.887 -4.598 c 1.258 -1.258 2.793 -1.887 4.602 -1.887 c 1.813 0 3.363 0.641 4.688 1.922 l 10.371 10.313 c 0.105 0.113 0.172 0.238 0.172 0.375 c 0 0.18 -0.176 0.445 -0.523 0.789 c -0.352 0.344 -0.617 0.52 -0.801 0.52 c -0.148 0 -0.277 -0.059 -0.391 -0.172 l -10.398 -10.328 c -0.895 -0.875 -1.938 -1.313 -3.102 -1.313 c -1.215 0 -2.234 0.426 -3.07 1.277 c -0.832 0.852 -1.25 1.875 -1.25 3.078 c 0 1.191 0.441 2.219 1.305 3.078 l 13.309 13.223 c 0.719 0.715 1.551 1.074 2.48 1.074 c 0.73 0 1.336 -0.242 1.816 -0.719 c 0.48 -0.477 0.719 -1.078 0.719 -1.801 c 0 -0.934 -0.352 -1.754 -1.082 -2.469 l -9.957 -9.883 c -0.301 -0.273 -0.641 -0.41 -1.02 -0.41 c -0.332 0 -0.605 0.109 -0.824 0.324 c -0.215 0.215 -0.324 0.488 -0.324 0.816 c 0 0.363 0.141 0.699 0.426 1 l 7.03 6.977 c 0.113 0.113 0.172 0.238 0.172 0.375 c 0 0.184 -0.18 0.449 -0.531 0.801 c -0.352 0.352 -0.625 0.527 -0.805 0.527 c -0.137 0 -0.262 -0.055 -0.375 -0.168 l -7.03 -6.977 c -0.723 -0.691 -1.082 -1.539 -1.082 -2.539 c 0 -0.93 0.328 -1.719 0.98 -2.367 c 0.645 -0.645 1.445 -0.969 2.379 -0.969 c 1.01 0 1.859 0.355 2.555 1.074 l 9.961 9.883 c 1.145 1.113 1.715 2.449 1.715 4 m 0 0" fill="#f9f9f9" stroke="none" fill-rule="nonzero" fill-opacity="1"/></g></svg>