<!-- color: #eeeeee --><svg xmlns="http://www.w3.org/2000/svg" viewBox="0 0 48 48"><g><path d="m 23.14 12 c -1.461 0.035 -1.363 0.297 -1.98 1.555 c -0.996 2.023 -1.695 4.957 -1.551 6.691 c 0.152 1.852 0.648 3.059 1.609 3.961 c 1.152 1.094 2.559 0.953 3.746 -0.32 c 1.066 -1.145 1.461 -2.332 1.555 -4.926 c 0.055 -1.641 0.09 -1.836 0.211 -1.555 c 0.473 1.09 0.598 3.656 0.27 4.926 c -0.273 1.051 -0.953 2.336 -1.5 2.84 c -0.723 0.664 -1.5 0.965 -2.57 1.016 c -0.719 0.035 -1 0.023 -1.555 -0.16 c -1.418 -0.473 -3.172 -1.828 -4.176 -3.16 c -1.43 -1.887 -2.852 -5.727 -3.215 -8.781 c -0.07 -0.59 -0.168 -1.125 -0.211 -1.176 c -0.254 -0.293 -1.242 0.934 -1.551 1.93 c -0.203 0.637 -0.215 0.941 -0.215 6.586 l 0 5.945 l 0.27 0.16 c 0.379 0.246 2.031 0.742 3.379 1.016 c 1.023 0.211 1.434 0.27 3.855 0.27 c 2.422 -0.004 2.875 -0.063 3.805 -0.27 c 1.516 -0.332 2.648 -0.875 3.59 -1.82 c 1.324 -1.328 1.816 -2.676 1.82 -4.766 c 0.004 -1.387 -0.195 -2.496 -0.754 -3.59 c -0.199 -0.398 -0.395 -0.727 -0.375 -0.75 c 0.125 -0.125 1.508 1.527 1.824 2.195 c 1.984 4.195 1.035 7.617 -3.055 11.03 c -1.813 1.512 -4.953 3.59 -6.75 4.496 c -0.629 0.316 -0.746 0.434 -0.59 0.59 c 0.039 0.039 3.168 0.07 6.961 0.051 l 6.91 -0.051 l 0.59 -0.27 c 1.191 -0.57 1.945 -1.41 2.301 -2.57 c 0.207 -0.664 0.215 -0.965 0.215 -9.102 c 0 -8.551 -0.016 -9.289 -0.375 -9.426 c -0.082 -0.031 -0.891 0.059 -1.77 0.211 c -0.973 0.172 -2.348 0.313 -3.535 0.379 c -2.074 0.105 -3.117 0.305 -4.34 0.801 c -1.133 0.465 -1.793 0.836 -2.41 1.34 c -0.555 0.453 -0.629 0.512 -0.805 1.234 c -0.246 0.996 -0.398 1.438 -0.805 1.98 c -0.305 0.395 -0.602 0.59 -0.598 0.375 c 0.016 -0.383 0.363 -1.582 0.699 -2.25 c 0.996 -1.98 2.293 -3.395 4.824 -5.301 c 0.777 -0.594 1.445 -1.105 1.445 -1.184 c 0 -0.117 -0.566 -0.16 -3.109 -0.16 c -0.91 0 -1.602 -0.012 -2.09 0 m 2.086 5.04 c 0.164 0 0.168 0.164 -0.051 1.77 c -0.234 1.691 -0.84 3.043 -1.609 3.855 c -0.543 0.574 -1.129 0.727 -1.551 0.426 c -0.238 -0.164 -0.535 -0.738 -0.535 -1.016 c 0 -0.137 0.051 -0.141 0.211 -0.051 c 0.328 0.172 0.461 0.133 0.859 -0.215 c 0.664 -0.586 1.359 -2.266 1.715 -4.176 c 0.039 -0.223 0.652 -0.598 0.961 -0.598 m 0 -0.004" fill="#f9f9f9" stroke="none" fill-rule="nonzero" fill-opacity="1"/></g></svg>