<!-- color: #97da54 --><svg xmlns="http://www.w3.org/2000/svg" viewBox="0 0 48 48"><g><path d="m 17.344 16.313 l 0 11.03 c 0 1.172 0.449 2.199 1.281 3.03 c 0.711 0.703 1.574 1.148 2.531 1.25 l 2.719 0 l 0 -2.156 l 4.719 0 l -7.06 -0.031 c -1.137 0 -2.094 -1.078 -2.094 -2.5 l 0 -10.625 m 5.719 1.813 c -0.93 0.008 -1.773 0.332 -2.438 1 c -0.668 0.676 -1.031 1.543 -1.031 2.5 l 0 4.813 l 2.188 0 l 0 -4.813 c 0 -0.363 0.145 -0.672 0.406 -0.938 c 0.262 -0.266 0.52 -0.375 0.875 -0.375 c 0.367 0 0.648 0.109 0.906 0.375 c 0.262 0.266 0.375 0.57 0.375 0.938 l 0 4.813 l 2.188 0 l 0 -4.813 c 0 -0.363 0.117 -0.672 0.375 -0.938 c 0.262 -0.266 0.543 -0.375 0.906 -0.375 c 0.363 0 0.648 0.109 0.906 0.375 c 0.262 0.266 0.375 0.57 0.375 0.938 l 0.031 4.781 l 2.156 0 l 0 -4.781 c 0 -0.957 -0.324 -1.82 -1 -2.5 c -0.672 -0.676 -1.527 -1 -2.469 -1 c -0.926 0 -1.719 0.332 -2.375 0.969 c -0.641 -0.629 -1.434 -0.961 -2.344 -0.969 m 6.03 9.125 c 0 0.289 -0.066 0.59 -0.188 0.844 c 0.129 -0.266 0.188 -0.543 0.188 -0.844 m 0 0" fill="#f9f9f9" stroke="none" fill-rule="evenodd" fill-opacity="1"/><path d="m 22.688 35.996 c -4.977 0 -9.297 -3.773 -9.297 -8.75 l -0.004 -6.04 l 0 -1.543 l -3.156 0 l 0 -7.676 l 13.309 0.066 l 4.164 0.008 c 4.98 0 9.297 3.77 9.297 8.746 l 0 15.18 l -14.316 0 m 12.289 -4.066 c 0 -3.305 0 -11.11 0 -11.11 c 0 -3.711 -3.258 -6.719 -7.27 -6.719 l -4.168 0 l 0 -0.008 l -11.273 -0.055 l 0 3.605 c 0 0 0.457 0 1.262 0 c 0.859 0 1.891 0.805 1.891 1.988 l 0.02 7.609 c 0 3.711 3.254 6.723 7.266 6.723 l 9.902 0 c 1.27 0 2.383 -0.809 2.383 -2.039 m -0.004 0" fill="#f9f9f9" stroke="none" fill-rule="evenodd" fill-opacity="1"/></g></svg>