<!-- color: #eeeeee --><svg xmlns="http://www.w3.org/2000/svg" viewBox="0 0 48 48"><g><path d="m 24.469 12 c -0.543 0.02 -1.16 0.148 -1.813 0.469 c -1.832 0.895 -1.586 2.848 -1.281 6.719 c 0.078 1.043 -0.988 1.727 -1.906 3.094 c -0.918 1.359 -1.027 2.469 -1.719 3.594 c -0.672 1.074 -0.586 1.027 -0.344 1.938 c -0.031 0.031 -0.059 0.063 -0.094 0.094 c -0.246 0.234 -0.539 0.836 -0.969 1.125 c -0.426 0.289 -1.504 0.254 -1.781 0.594 c -0.27 0.34 0.008 0.836 0 1.75 c 0 0.391 -0.078 0.668 -0.125 0.906 c -0.07 0.301 -0.105 0.535 0.031 0.75 c 0.246 0.379 0.605 0.469 2.844 0.906 c 1.195 0.234 2.34 0.844 3.094 0.906 c 0.758 0.051 0.914 -0.211 1.375 -0.594 c 0.066 -0.059 0.133 -0.086 0.188 -0.125 c 0.043 0 0.09 0.016 0.125 0 c 1 -0.426 0.648 -0.316 2.25 -0.406 c 1.57 -0.082 2.055 -0.133 3.5 0.219 c 0.086 0.27 0.219 0.461 0.344 0.563 c 0.215 0.184 0.543 0.344 1.25 0.344 c 0.711 0 1.156 -0.152 1.625 -0.594 c 0.301 -0.281 0.609 -0.563 1.531 -1.156 c 0.734 -0.469 1.844 -0.98 2.063 -1.188 c 0.109 -0.102 0.297 -0.188 0.313 -0.563 c 0.012 -0.324 -0.273 -0.449 -0.469 -0.563 c -0.273 -0.148 -0.957 -0.66 -1.313 -1.188 c -0.215 -0.32 0.078 -0.848 -0.219 -1.25 c -0.078 -0.109 -0.184 -0.148 -0.281 -0.156 c 0.145 -0.316 0.281 -0.605 0.344 -0.844 c 0.359 -1.379 -0.754 -3.773 -1.844 -5.219 c -1.086 -1.445 -2 -2.328 -2.438 -4.156 c -0.445 -1.832 0.109 -1.309 -0.281 -2.906 c -0.191 -0.797 -0.531 -1.426 -0.906 -1.844 c -0.375 -0.426 -0.875 -0.688 -1.125 -0.813 c -0.359 -0.18 -1.066 -0.441 -1.969 -0.406 m 1.188 3.125 c 0.434 0.035 0.605 0.125 0.906 0.625 c 0.316 0.527 0.301 0.973 0.188 1.375 c -0.07 0.25 -0.176 0.43 -0.375 0.563 c -0.219 -0.102 -0.484 -0.176 -0.75 -0.25 c 0.168 -0.02 0.355 -0.074 0.469 -0.219 c 0.113 -0.141 0.152 -0.355 0.125 -0.531 c -0.07 -0.383 -0.266 -0.688 -0.625 -0.688 c -0.152 0 -0.336 0.023 -0.438 0.125 c -0.129 0.137 -0.219 0.316 -0.219 0.563 c 0 0.164 0.016 0.375 0.063 0.531 c -0.051 -0.031 -0.098 -0.082 -0.156 -0.125 c -0.074 -0.051 -0.191 -0.094 -0.313 -0.125 c -0.07 -0.113 -0.121 -0.246 -0.125 -0.438 c -0.012 -0.43 -0.063 -0.379 0.094 -0.719 c 0.148 -0.313 0.488 -0.738 1.156 -0.688 m -3.406 0.188 c 0.219 -0.035 0.566 -0.027 0.781 0.25 c 0.223 0.293 0.375 0.461 0.375 0.906 c 0 0.23 -0.043 0.375 -0.094 0.5 c -0.051 0.016 -0.098 0.004 -0.156 0.031 c -0.055 0.027 -0.125 0.086 -0.188 0.125 c 0.027 -0.121 0.031 -0.273 0.031 -0.406 c 0 -0.195 -0.063 -0.348 -0.156 -0.469 c -0.09 -0.121 -0.266 -0.219 -0.406 -0.219 c -0.152 0 -0.258 0.063 -0.344 0.188 c -0.125 0.172 -0.094 0.367 -0.094 0.5 c 0 0.215 0.133 0.449 0.188 0.5 c 0.141 0.137 0.188 0.234 0.313 0.25 c -0.059 0.047 -0.145 0.09 -0.188 0.125 c -0.055 0.047 -0.074 0.086 -0.125 0.125 c -0.113 -0.102 -0.219 -0.23 -0.281 -0.406 c -0.133 -0.359 -0.199 -0.563 -0.188 -1.094 c 0.008 -0.195 0.082 -0.383 0.156 -0.531 c 0.109 -0.219 0.25 -0.355 0.375 -0.375 m 3.406 0.906 l 0.031 0 c 0.039 -0.035 0.102 0.004 0.188 0.094 c 0.098 0.102 0.109 0.164 0.031 0.219 c -0.07 0.059 -0.109 -0.074 -0.156 -0.125 c -0.086 -0.082 -0.168 -0.121 -0.094 -0.188 m -3.063 0.094 c 0.055 0.016 0.125 0.063 0.156 0.125 c 0.059 0.125 0.043 0.395 0 0.406 c -0.109 0.035 -0.09 -0.117 -0.188 -0.25 c -0.094 -0.129 -0.137 -0.188 -0.094 -0.25 c 0.023 -0.031 0.07 -0.047 0.125 -0.031 m 1.281 0.125 c 0.086 -0.023 0.168 -0.012 0.313 0.063 c 0.129 0.07 0.078 0.156 -0.063 0.125 c -0.133 -0.027 -0.117 -0.012 -0.219 -0.031 c -0.172 -0.027 -0.195 -0.117 -0.031 -0.156 m -0.625 0.75 c 0.246 -0.039 0.301 0.035 0.156 0.125 c -0.031 0.02 -0.137 0.059 -0.219 0.125 c -0.078 0.066 -0.207 -0.016 -0.188 -0.063 c 0.027 -0.051 0.012 -0.148 0.25 -0.188 m 0.969 0.031 c 0.027 -0.023 0.098 -0.02 0.219 0 c 0.242 0.039 0.227 0.137 0.25 0.188 c 0.02 0.051 -0.109 0.125 -0.188 0.063 c -0.082 -0.066 -0.184 -0.109 -0.219 -0.125 c -0.074 -0.047 -0.09 -0.102 -0.063 -0.125 m 2.125 0.938 c 0.094 0.094 -0.055 0.094 -0.25 0.219 c -0.258 0.176 -0.449 0.324 -0.844 0.531 c -0.418 0.207 -1.082 0.547 -1.906 0.5 c -0.434 -0.059 -0.422 -0.059 -0.688 -0.188 c -0.16 -0.105 -0.523 -0.27 -0.656 -0.406 c 0.133 0.086 0.121 0.066 0.313 0.188 c 0.309 0.234 0.859 0.305 1.125 0.313 c 0.613 0.09 1.695 -0.445 2.125 -0.688 c 0.219 -0.152 0.629 -0.465 0.781 -0.469 m 0.281 0.656 c 0.18 0.227 0.18 0.676 0.563 1.25 c 0.512 0.75 0.461 1.293 1.031 2.469 c 0.285 0.59 0.633 1.031 0.844 1.688 c 0.23 0.699 0.344 1.656 0.344 2.594 c 0 0.352 0.043 0.75 -0.094 0.938 c -0.063 0.102 -0.07 0.156 -0.094 0.219 c -0.078 -0.012 -0.184 -0.031 -0.313 -0.031 c -0.305 0 -0.336 0.004 -0.594 0.156 c -0.141 0.082 -0.156 0.621 -0.156 1.25 c 0 0.434 0 0.895 -0.031 1.313 c -0.082 0.105 -0.199 0.211 -0.344 0.344 c -0.688 0.617 -1.648 1.246 -2.875 1.469 c -2.172 0.383 -2.688 -0.195 -2.813 -0.313 c -0.133 -0.117 -0.781 -0.969 -0.781 -0.969 c 0 0 0.727 -0.098 0.813 -0.25 c 0.086 -0.156 0.078 -0.629 -0.063 -0.844 c -0.133 -0.215 -1.113 -0.883 -1.594 -1.281 c -0.453 -0.375 -0.742 -0.59 -1.031 -0.813 c -0.289 -0.227 -0.289 0.027 -0.313 -0.875 c -0.027 -0.898 0.148 -1.328 0.313 -2 c 0.16 -0.676 0.871 -1.512 1.063 -2.188 c 0.027 -0.098 0.07 -0.184 0.094 -0.281 c 0.059 -0.199 0.141 -0.402 0.219 -0.594 c 0.121 -0.324 0.266 -0.645 0.469 -0.938 c 0.391 -0.559 0.563 -0.598 0.563 -0.969 c 0 -0.555 -0.016 -0.52 0 -1.094 c 0.004 -0.063 0.012 -0.098 0.031 -0.125 c 0.125 0.156 0.324 0.301 0.5 0.438 c 0.352 0.273 0.629 0.617 0.844 0.688 c 0.223 0.078 0.629 0.063 0.906 0.063 c 0.617 0 1.395 -0.746 1.844 -0.875 c 0.324 -0.098 0.535 -0.219 0.656 -0.438 m 2.406 3.844 c 0.242 0.004 0.867 0.316 1.375 0.969 c 0.078 0.016 0.191 0.281 0.313 0.5 c 0.355 0.605 0.359 1.539 0.219 1.906 c 0.008 0.313 -0.23 1.01 -0.406 1.25 c 0.059 0.008 0.086 0.035 0.094 0.094 c 0.016 0.113 0.043 0.125 -0.281 0.125 c -0.32 0 -0.496 0.176 -0.594 0.25 c -0.102 0.078 -0.18 0.313 -0.281 0.219 c -0.055 -0.055 0.078 -0.227 0.188 -0.344 c 0.113 -0.129 0.309 -0.273 0.594 -0.313 c 0.047 -0.008 0.059 0.004 0.094 0 c -0.008 -0.117 0.133 -0.379 0.25 -0.75 c 0.059 -0.207 0.102 -0.699 0.125 -0.719 c 0.133 -1.156 -0.516 -2.027 -0.531 -2.063 c -0.594 -0.672 -1.25 -1.031 -1.25 -1.031 c -0.023 -0.07 0.012 -0.098 0.094 -0.094 m 2.031 4.656 c 0.238 0.008 0.441 0.055 0.719 0.156 c 0.375 0.133 0.563 0.367 0.563 0.5 c 0 0.137 -0.09 0.449 -0.375 0.5 c -0.133 0.023 -0.051 -0.188 -0.063 -0.469 c -0.016 -0.285 -0.242 -0.336 -0.531 -0.375 c -0.301 -0.043 -0.625 -0.109 -0.625 -0.25 c 0 0 -0.016 -0.078 0.313 -0.063 m 0 0" fill="#f9f9f9" stroke="none" fill-rule="nonzero" fill-opacity="1"/></g></svg>