<!-- color: #19a0e3 --><svg xmlns="http://www.w3.org/2000/svg" viewBox="0 0 48 48"><g><path d="m 24 10 c -1.07 2.617 -1.715 4.332 -2.902 6.875 c 0.727 0.77 1.621 1.672 3.078 2.688 c -1.566 -0.641 -2.629 -1.289 -3.426 -1.957 c -1.523 3.176 -3.91 7.699 -8.75 16.395 c 3.805 -2.195 6.754 -3.551 9.504 -4.066 c -0.121 -0.508 -0.188 -1.055 -0.184 -1.629 l 0.004 -0.121 c 0.063 -2.438 1.328 -4.313 2.832 -4.184 c 1.5 0.125 2.668 2.207 2.609 4.645 c -0.012 0.457 -0.063 0.898 -0.156 1.309 c 2.719 0.531 5.637 1.887 9.391 4.055 c -0.738 -1.363 -1.402 -2.598 -2.031 -3.766 c -0.992 -0.77 -2.031 -1.77 -4.145 -2.852 c 1.453 0.379 2.492 0.813 3.305 1.301 c -6.414 -11.941 -6.934 -13.523 -9.133 -18.684 m 0.004 0" fill="#f9f9f9" stroke="none" fill-rule="evenodd" fill-opacity="1"/></g></svg>