<!-- color: #636363 --><svg xmlns="http://www.w3.org/2000/svg" viewBox="0 0 48 48"><g><path d="m 32.35 19 c 0.867 -2 0.867 -4 0 -7 c -1.742 0 -3.48 2 -4.348 4 m 4.348 3" fill="#f9f9f9" stroke="none" fill-rule="nonzero" fill-opacity="1"/><path d="m 23.887 11 l 0.227 0 c 0.488 0 0.883 0.395 0.883 0.883 l 0 4.23 c 0 0.488 -0.395 0.883 -0.883 0.883 l -0.227 0 c -0.492 0 -0.887 -0.395 -0.887 -0.883 l 0 -4.23 c 0 -0.488 0.395 -0.883 0.887 -0.883 m 0 0" fill="#f9f9f9" stroke="none" fill-rule="nonzero" fill-opacity="1"/><path d="m 15.652 19 c -0.871 -2 -0.871 -4 0 -7 c 1.738 0 3.477 2 4.348 4 m -4.348 3" fill="#f9f9f9" stroke="none" fill-rule="nonzero" fill-opacity="1"/><path d="m 22 14.188 c -5.121 0.941 -9 5.422 -9 10.813 c 0 6.074 4.926 11 11 11 c 6.074 0 11 -4.926 11 -11 c 0 -5.391 -3.879 -9.871 -9 -10.813 l 0 3.03 c 0 0.98 -0.801 1.781 -1.781 1.781 l -0.438 0 c -0.98 0 -1.781 -0.801 -1.781 -1.781 m -1 1.781 c 0.551 0 1 0.449 1 1 c 0 0.555 -0.449 1 -1 1 c -0.551 0 -1 -0.445 -1 -1 c 0 -0.551 0.449 -1 1 -1 m 6 0 c 0.551 0 1 0.449 1 1 c 0 0.555 -0.449 1 -1 1 c -0.551 0 -1 -0.445 -1 -1 c 0 -0.551 0.449 -1 1 -1 m -3 6 c 0.75 -0.004 1.5 0.281 2 1 c -0.445 1.738 -1.086 2.809 -1.75 3 l 0 2.563 c 1.168 -0.023 2.352 -0.207 3.75 -0.563 l 0 0.375 c -3 0.863 -5 0.793 -8 0 l 0 -0.375 c 1.398 0.355 2.582 0.539 3.75 0.563 l 0 -2.563 c -0.664 -0.191 -1.305 -1.262 -1.75 -3 c 0.5 -0.695 1.25 -0.992 2 -1 m 0 0" fill="#f9f9f9" stroke="none" fill-rule="nonzero" fill-opacity="1"/></g></svg>