<!-- color: #3d3d3d --><svg xmlns="http://www.w3.org/2000/svg" viewBox="0 0 48 48"><g><path d="m 24 11 c -7.176 0 -13 5.824 -13 13 c 0 7.176 5.824 13 13 13 c 7.176 0 13 -5.824 13 -13 c 0 -1.348 -0.188 -2.652 -0.566 -3.875 c -0.629 1.289 -1.27 2.5 -1.883 3.445 c 0.055 0.074 0.141 0.145 0.176 0.211 l -0.531 0.109 l -0.035 0.352 l -3.336 4.441 l -0.035 0 c 0.168 0.246 0.273 0.559 0.281 0.926 c 0.043 2.402 -2.477 2.547 -5.648 3.23 c 0 0 1.078 -1.727 1.953 -3.586 c 0.453 -0.965 1.359 -1.363 2.164 -1.281 l 2.313 -5.04 l 0.281 -0.25 l -0.176 -0.531 c 0.078 -0.016 0.164 -0.004 0.25 0 c 0.758 -1.371 1.805 -3.117 2.875 -4.898 c -2.281 -3.742 -6.383 -6.25 -11.08 -6.25 m 0 8.945 c 2.238 0 4.047 1.809 4.047 4.051 c 0 2.238 -1.809 4.086 -4.047 4.086 c -2.242 0 -4.086 -1.848 -4.086 -4.086 c 0 -2.242 1.844 -4.051 4.086 -4.051 m 0 0.816 c -1.801 0 -3.27 1.438 -3.27 3.227 c 0 1.805 1.473 3.273 3.27 3.273 c 1.797 0 3.23 -1.469 3.23 -3.273 c 0 -1.801 -1.434 -3.227 -3.23 -3.227 m 0 1.211 c 1.117 0 2.023 0.902 2.023 2.02 c 0 1.117 -0.906 2.023 -2.023 2.023 c -1.121 0 -2.023 -0.906 -2.023 -2.023 c 0 -1.117 0.902 -2.02 2.023 -2.02 m 0 0" fill="#f9f9f9" stroke="none" fill-rule="nonzero" fill-opacity="1"/></g></svg>