<!-- color: #58c2ec --><svg xmlns="http://www.w3.org/2000/svg" viewBox="0 0 48 48"><g><path d="m 24 12 c -6.629 0 -12 5.195 -12 11.594 c 0 3.859 1.969 7.238 4.969 9.344 c -0.109 0.441 -0.246 0.922 -0.469 1.406 c -0.75 1.656 -1.5 1.656 -1.5 1.656 c 0 0 2.254 0.016 3.75 -0.813 c 0.316 -0.176 0.598 -0.473 0.844 -0.813 c 1.367 0.52 2.848 0.813 4.406 0.813 c 6.625 0 12 -5.195 12 -11.594 c 0 -6.402 -5.371 -11.594 -12 -11.594 m -4.125 10 c 0.289 0 0.523 0.078 0.688 0.25 c 0.164 0.168 0.25 0.418 0.25 0.75 c 0 0.316 -0.086 0.578 -0.25 0.75 c -0.164 0.172 -0.402 0.25 -0.688 0.25 c -0.258 0 -0.453 -0.098 -0.625 -0.25 c -0.168 -0.156 -0.25 -0.398 -0.25 -0.75 c 0 -0.332 0.07 -0.586 0.219 -0.75 c 0.152 -0.172 0.367 -0.25 0.656 -0.25 m 4.094 0 c 0.293 0 0.527 0.078 0.688 0.25 c 0.168 0.168 0.25 0.418 0.25 0.75 c 0 0.316 -0.082 0.578 -0.25 0.75 c -0.164 0.172 -0.398 0.25 -0.688 0.25 c -0.258 0 -0.453 -0.098 -0.625 -0.25 c -0.164 -0.156 -0.25 -0.398 -0.25 -0.75 c 0 -0.332 0.066 -0.586 0.219 -0.75 c 0.152 -0.172 0.371 -0.25 0.656 -0.25 m 4.094 0 c 0.289 0 0.527 0.078 0.688 0.25 c 0.164 0.168 0.25 0.418 0.25 0.75 c 0 0.316 -0.086 0.578 -0.25 0.75 c -0.164 0.172 -0.402 0.25 -0.688 0.25 c -0.258 0 -0.453 -0.098 -0.625 -0.25 c -0.164 -0.156 -0.25 -0.398 -0.25 -0.75 c 0 -0.332 0.066 -0.586 0.219 -0.75 c 0.152 -0.172 0.371 -0.25 0.656 -0.25 m 0 0" fill="#f9f9f9" stroke="none" fill-rule="nonzero" fill-opacity="1"/></g></svg>