<!-- color: #a0a0a0 --><svg xmlns="http://www.w3.org/2000/svg" viewBox="0 0 48 48"><g><path d="m 21.375 10.938 c -0.402 -0.012 -0.848 0.02 -1.375 0.063 l 0 2 l -10 0 l 5 7 l 5 0 l 0 7 l -3 0 l 0 11 l 6 0 l 1.844 -4 l -1.844 0 l 0 -3 l 2 0 l 0 7 l 4 -2 l 0 -5 l 1 0 l 3 -4 l -7 0 l 2 -2 l 0 -5 l 5 0 l 5 -7 l -10 0 l 0 -2 c -3.75 -0.086 -3.605 0.996 -4 1.563 c -0.691 -1.219 -1.43 -1.59 -2.625 -1.625 m -0.375 1.063 c 1.59 -0.078 1.762 0.477 2 1 c -0.598 0.07 -1.023 0.309 -1 1 l 0 3 l -8.313 0 l -0.688 -1 l 3.5 0 l 0.5 -1 l -4 0 l -1 -1 l 7 0 l -1 2 l 3 0 m 6 -4 l 0 4 l 2 0 l -1 -2 l 8 0 l -0.781 1 l -5.219 0 l 0.5 1 l 3.875 0 l -0.781 1 l -7.594 0 l 0 -3 c 0.023 -0.746 -0.453 -0.914 -1 -1 c -0.031 -0.574 0.5 -0.953 2 -1 m -4 2 l 2 0 l 0 3 l -2 0 m -8.719 1 l 7.719 0 l 0 5.5 l 1 -0.5 l 0 -5 l 2 0 l 0 5.5 l 1 -0.5 l 0 -5 l 7.438 0 l -0.938 1 l -5.5 0 l 0 6 l -1 0.75 l 0 -1.75 l -1 0.5 l 0 1.5 l -2 1.5 l 0 -3.5 l -1 0.5 l 0 1.5 l -1 0.75 l 0 -7.75 l -6 0 m 3 9 l 13 0 l -2 2 l -1 0 l 0 5 l -2 1 l 0 -6 l -6 0 l 0 2 l 2 0 l 0 1 l -2 0 l 0 2 l 3 0 l -1 2 l -4 0 m 0 -9" fill="#f9f9f9" stroke="none" fill-rule="nonzero" fill-opacity="1"/></g></svg>