<!-- color: #eeeeee --><svg xmlns="http://www.w3.org/2000/svg" viewBox="0 0 48 48"><g><path d="m 17.594 5.156 c 0.59 0.973 1.203 1.852 1.281 3.03 c 0.047 0.754 -0.43 2.762 -0.625 3.563 c -0.691 2.789 -1.332 5.996 0.75 8.313 l 0 -5.063 l 2.469 1.563 c 0.109 -0.633 0.25 -1.266 0.344 -1.781 c 0.164 -0.949 0.355 -2.074 0.313 -3.03 c -0.109 -2.711 -1.438 -6.262 -4.531 -6.594 m 3.875 11.406 c -0.121 0.699 -0.211 1.402 -0.125 1.969 c 0.262 1.773 1.488 2.492 2.469 3.75 c -1 -0.082 -1.715 -0.254 -2.625 -0.688 c -0.668 -0.32 -1.336 -0.707 -1.875 -1.219 c -0.109 -0.105 -0.215 -0.203 -0.313 -0.313 l 0 1.781 c 0.906 0.875 2.074 1.336 3.875 1.031 c -0.645 1 -2.27 1.391 -3.875 1.375 l 0 1.563 c 0.043 0.004 0.082 0.027 0.125 0.031 c 1.543 0.086 2.602 -1.137 3.938 -1.656 c -0.363 1.047 -0.703 1.746 -1.406 2.625 c -0.469 0.59 -0.961 1.027 -1.594 1.438 c -0.352 0.227 -0.703 0.398 -1.063 0.531 l 0 0.906 c 1.855 -0.496 3.477 -1.035 4.344 -3.438 c 0.215 -0.602 0.246 -0.875 0.281 -1.5 c 0.852 0.922 0.762 2 0.75 3.188 c -0.012 0.68 -0.051 1.156 -0.219 1.75 l 1.406 -0.906 c 0.023 -0.09 0.051 -0.191 0.063 -0.281 c 0.191 -1.359 -0.648 -2.609 -1.25 -3.75 c 1.141 0.234 1.828 0.805 2.563 1.688 c 0.246 0.293 0.496 0.641 0.719 1 l 0.75 -0.5 c -0.387 -0.664 -0.996 -1.254 -1.594 -1.688 c -0.57 -0.406 -1.066 -0.48 -1.5 -1.063 l 1.5 0 c 0.914 0.012 1.605 0.133 2.469 0.469 c 0.48 0.191 1.023 0.473 1.469 0.781 l 0.563 -0.344 c -0.633 -0.578 -1.238 -1.168 -2.063 -1.5 c -1.559 -0.625 -2.656 -0.016 -4.125 0.375 c 0.547 -1.016 1.066 -1.516 2.063 -2.094 l 0 0.031 c 0.492 -0.289 0.98 -0.516 1.5 -0.688 l -1.469 -0.938 c -0.113 0.102 -0.227 0.219 -0.344 0.344 c -0.566 0.594 -0.895 1.406 -1.563 1.875 c 0 -1.188 0.02 -1.867 0.375 -3.03 c 0.016 -0.047 0.047 -0.078 0.063 -0.125 l -1.125 -0.75 c -0.02 0.043 -0.047 0.078 -0.063 0.125 c -0.348 1.027 -0.195 2.176 0 3.219 c -0.992 -0.566 -1.465 -1.785 -1.75 -2.844 c -0.125 -0.465 -0.277 -1.242 -0.313 -1.844 m 0 0 l 2.125 1.344 c 0.605 -1.52 2.031 -2.367 3.313 -3.25 c 1.254 -0.867 2.484 -1.891 3.313 -3.188 c 1.207 -1.887 2.125 -5.09 0.469 -6.969 c -0.117 1.395 -0.512 2.379 -1.531 3.375 c -2.477 2.41 -7.465 3.438 -7.688 8.281 c -0.008 0.113 -0.008 0.266 0 0.406 m 3.25 2.094 l 1.469 0.938 c 0.965 -0.863 1.816 -0.996 3.188 -1 c 3.387 -0.008 6.699 0.293 9.25 -2.469 c 0.762 -0.824 1.664 -2.219 1.281 -3.375 c -1.523 1.492 -2.027 1.902 -4.156 1.906 c -3.555 0.008 -7.742 -1.188 -10.188 2.25 c -0.395 0.551 -0.641 1.117 -0.844 1.75 m 2.938 1.875 l 4.313 2.781 l -1.688 1.094 c 0.133 0.121 0.27 0.227 0.406 0.344 c 2.066 1.824 4.551 3.797 7.5 3.563 c 1.289 -0.105 2.91 -0.441 3.594 -1.625 c -0.832 0.094 -1.43 0.133 -2.25 -0.125 c -1.219 -0.379 -2.516 -1.613 -3.406 -2.5 c -1.957 -1.945 -3.73 -3.949 -6.469 -3.906 c -0.391 0.004 -0.785 0.063 -1.219 0.156 c -0.273 0.059 -0.527 0.133 -0.781 0.219 m 2.063 4.219 l -2.344 1.5 c 0.082 0.141 0.16 0.293 0.219 0.438 c 0.434 1.063 0.434 2.465 0.438 3.594 c 0.023 3.813 2.047 8.34 6.406 8.438 c -0.773 -1.078 -1.625 -1.637 -1.969 -3 c -0.895 -3.488 0.828 -8.176 -2.531 -10.844 c -0.063 -0.051 -0.152 -0.078 -0.219 -0.125 m -3.094 2 l -2.094 1.344 c -0.246 1.035 -0.98 2.023 -1.531 2.906 l -1.094 1.875 c -1.227 2.59 -1.898 7.742 1.25 9.25 c -0.238 -1.313 -0.523 -1.898 0 -3.219 c 1.457 -3.734 5.785 -6.762 3.938 -11.281 c -0.121 -0.289 -0.285 -0.586 -0.469 -0.875 m -3.5 2.25 l -5.156 3.313 l 0 -3.313 c -0.813 0.219 -1.66 0.43 -2.531 0.781 c -3.566 1.438 -5.289 3.789 -5.063 7.625 c 0.957 -1.023 1.148 -1.93 2.625 -2.656 c 2.973 -1.438 8.527 -0.883 10.03 -5.438 c 0.039 -0.113 0.066 -0.211 0.094 -0.313 m -5.156 -0.906 l 0 -2.969 c -1.102 -0.105 -2.105 -0.656 -3.094 -1.094 c -1.875 -0.824 -3.758 -1.383 -5.719 -1.25 c -0.652 0.043 -1.297 0.16 -1.969 0.375 l -0.031 0 c -1.359 0.43 -2.648 1.348 -3 2.781 c 0.766 -0.305 1.793 -0.754 2.625 -0.688 c 1.023 0.078 2.66 0.914 3.594 1.375 c 2.332 1.164 5.066 2.395 7.594 1.469 m 0 -4.531 l 0 -2.406 c -1.824 -1.762 -2.539 -5.188 -4.969 -7.281 c -1.16 -1 -3.109 -1.934 -4.813 -1.813 c -0.566 0.039 -1.113 0.219 -1.594 0.531 c 1.117 0.438 1.941 0.715 2.75 1.688 c 1.723 2.086 2.363 6.766 5.344 8.563 c 0.746 0.449 2.01 0.707 3.281 0.719 m 0 0" fill="#f9f9f9" stroke="none" fill-rule="nonzero" fill-opacity="1"/></g></svg>