<!-- color: #474747 --><svg xmlns="http://www.w3.org/2000/svg" viewBox="0 0 48 48"><g><path d="m 31.24 26.05 c 3.621 7.941 -7.242 7.941 -7.242 0 c 0 0 0 0 0 -3.973 c 14.484 -11.91 14.484 -3.969 7.242 3.973 m 0 0" fill="#f9f9f9" stroke="none" fill-rule="evenodd" fill-opacity="1"/><path d="m 24.363 21.277 c 0.727 1.984 0.176 8.688 -0.359 8.734 c -0.535 0.043 -1.086 -6.75 -0.363 -8.734 c -1.086 -0.797 -1.086 -1.59 0.363 -1.59 c 1.449 0 1.449 0.793 0.359 1.59 m 0 0" fill="#f9f9f9" stroke="none" fill-rule="evenodd" fill-opacity="1"/><path d="m 16.758 26.05 c -3.621 7.941 7.242 7.941 7.242 0 c 0 0 0 0 0 -3.973 c -14.484 -11.91 -14.484 -3.969 -7.242 3.973 m 0 0" fill="#f9f9f9" stroke="none" fill-rule="evenodd" fill-opacity="1"/><path d="m -43.37 149.81 c 0.363 -2.777 3.27 -3.574 3.27 -3.574" transform="matrix(1,0,0,1,67.734998,-129.724261)" stroke-opacity="1" fill="#f9f9f9" fill-rule="nonzero" stroke="#f9f9f9" stroke-linejoin="miter" fill-opacity="1" stroke-linecap="round" stroke-width="0.152" stroke-miterlimit="4"/><path d="m -44.1 149.81 c -0.363 -2.777 -3.27 -3.574 -3.27 -3.574" transform="matrix(1,0,0,1,67.734998,-129.724261)" stroke-opacity="1" fill="#f9f9f9" fill-rule="nonzero" stroke="#f9f9f9" stroke-linejoin="miter" fill-opacity="1" stroke-linecap="round" stroke-width="0.152" stroke-miterlimit="4"/></g></svg>