<!-- color: #474747 --><svg xmlns="http://www.w3.org/2000/svg" viewBox="0 0 48 48"><g><path d="m 25.531 12 c -0.395 0 -0.781 0.063 -1.156 0.188 c -0.742 0.25 -1.383 0.727 -1.875 1.281 c -0.195 0.219 -0.344 0.406 -0.469 0.531 c -0.125 0.125 -0.234 0.18 -0.281 0.188 c -0.074 0.016 -0.145 0.008 -0.281 -0.031 c -0.297 -0.082 -0.617 -0.293 -1 -0.563 c -0.387 -0.273 -0.852 -0.598 -1.438 -0.781 c -0.777 -0.238 -1.609 -0.156 -2.313 0.156 l 0 0.031 c -0.691 0.32 -1.246 0.816 -1.656 1.406 c -0.824 1.16 -1.055 2.52 -1.219 3.75 c -0.156 1.125 -0.316 2.375 0.031 3.625 c 0.094 0.352 0.207 0.648 0.281 0.906 c 0.074 0.246 0.125 0.457 0.125 0.656 c 0 0.008 0 0.023 0 0.031 c -0.031 0.344 -0.242 0.75 -0.563 1.156 c -0.32 0.422 -0.797 0.891 -1.125 1.531 l 0 0.031 c -0.496 1.02 -0.477 2.172 -0.156 3.188 c 0.43 1.316 1.316 2.32 2.125 3.219 c 0.293 0.324 0.609 0.652 0.906 0.969 c 0.098 0.074 0.121 0.059 0.125 0.063 c 0.766 0.453 1.535 0.879 2.344 1.25 c 0.496 0.23 1.012 0.449 1.563 0.625 c 2.777 0.93 5.797 0.676 8.531 -0.063 c 0.008 -0.004 0.023 0.004 0.031 0 c 0.543 -0.145 1.078 -0.316 1.594 -0.5 c 1.707 -0.602 3.434 -1.469 4.688 -2.906 c 0.629 -0.723 1.125 -1.586 1.406 -2.531 c 0.273 -0.945 0.297 -1.961 0.031 -2.938 c -0.18 -0.648 -0.453 -1.254 -0.781 -1.781 c -0.523 -0.836 -1.164 -1.637 -1.969 -2.281 c -0.801 -0.641 -1.77 -1.102 -2.813 -1.281 c -0.012 -0.004 -0.02 0.004 -0.031 0 c -0.43 -0.078 -0.777 -0.117 -1 -0.188 l -0.031 0 c -0.105 -0.027 -0.164 -0.063 -0.25 -0.125 c -0.059 -0.043 -0.105 -0.082 -0.125 -0.125 c -0.02 -0.043 -0.031 -0.211 0 -0.375 c 0.004 -0.016 -0.004 -0.016 0 -0.031 c 0.047 -0.188 0.141 -0.402 0.25 -0.688 l 0 -0.031 c 0.547 -1.496 0.508 -3.141 0 -4.625 c -0.184 -0.527 -0.43 -1.074 -0.813 -1.563 c -0.383 -0.504 -0.891 -0.914 -1.5 -1.156 c -0.387 -0.156 -0.793 -0.219 -1.188 -0.219 m -10.969 6.719 c 0.082 0.004 0.195 0.031 0.281 0.031 l 0.375 0 c 0 -0.012 0 -0.02 0 -0.031 l 12.531 0 c -0.004 0.012 0.004 0.02 0 0.031 l 0.625 0 c -0.102 1.02 -0.422 1.926 -0.875 2.625 c 0.082 0.152 0.168 0.289 0.281 0.406 c -0.668 1.152 -1.641 1.875 -2.719 1.875 c -1.078 0 -2.02 -0.75 -2.688 -1.906 c -0.605 2.41 -2.102 4.125 -3.875 4.125 c -1.125 0 -2.125 -0.719 -2.875 -1.844 c 0.047 -0.148 0.047 -0.309 0.063 -0.469 c -0.73 -1.051 -1.188 -2.523 -1.188 -4.156 c 0 -0.234 0.039 -0.461 0.063 -0.688 m 9.781 0.063 c -0.598 0 -1.094 0.598 -1.094 1.344 c 0 0.746 0.496 1.344 1.094 1.344 c 0.598 0 1.063 -0.598 1.063 -1.344 c 0 -0.746 -0.465 -1.344 -1.063 -1.344 m -3.844 0.406 c -0.492 0.125 -0.875 0.691 -0.875 1.344 c 0 0.746 0.496 1.344 1.094 1.344 c 0.598 0 1.094 -0.598 1.094 -1.344 c 0 -0.746 -0.496 -1.344 -1.094 -1.344 c -0.074 0 -0.148 -0.02 -0.219 0 m -4.094 8.656 l 0.25 0.25 l 2.313 2.344 l 2.531 -2.125 l 0.281 -0.219 l 0.25 0.281 l 2.313 2.563 l 3.125 -2.625 l 0.219 -0.188 l 0.25 0.188 l 2.25 1.563 l 1.594 -1.469 l 0.219 -0.219 l 0.25 0.156 l 1.875 1.25 c -0.102 0.234 -0.238 0.469 -0.375 0.688 l -1.688 -1.125 l -1.594 1.5 l -0.219 0.188 l -0.25 -0.156 l -2.25 -1.594 l -3.219 2.688 l -0.281 0.219 l -0.219 -0.281 l -2.344 -2.594 l -2.5 2.125 l -0.25 0.219 l -0.25 -0.25 l -2.313 -2.344 l -1.75 1.438 c -0.16 -0.215 -0.309 -0.438 -0.438 -0.656 l 1.969 -1.594 m 0.25 -0.219" fill="#f9f9f9" stroke="none" fill-rule="nonzero" fill-opacity="1"/></g></svg>