<!-- color: #409bcb --><svg xmlns="http://www.w3.org/2000/svg" viewBox="0 0 48 48"><g><path d="m 24 9 c -8.285 0 -15 6.715 -15 15 c 0 8.281 6.715 15 15 15 c 8.281 0 15 -6.719 15 -15 c 0 -8.285 -6.719 -15 -15 -15 m 0 10.719 c 2.367 0 4.281 1.914 4.281 4.281 c 0 2.367 -1.914 4.281 -4.281 4.281 c -2.367 0 -4.281 -1.914 -4.281 -4.281 c 0 -2.367 1.914 -4.281 4.281 -4.281 m 0 2.156 c -0.594 0 -1.145 0.211 -1.531 0.594 c -0.383 0.387 -0.594 0.938 -0.594 1.531 c 0 0.59 0.211 1.113 0.594 1.5 c 0.387 0.387 0.938 0.625 1.531 0.625 c 0.59 0 1.113 -0.238 1.5 -0.625 c 0.387 -0.387 0.625 -0.91 0.625 -1.5 c 0 -0.594 -0.238 -1.145 -0.625 -1.531 c -0.387 -0.383 -0.91 -0.594 -1.5 -0.594 m 0 0" fill="#f9f9f9" stroke="none" fill-rule="evenodd" fill-opacity="1"/></g></svg>