<!-- color: #eeeeee --><svg xmlns="http://www.w3.org/2000/svg" viewBox="0 0 48 48"><g><path d="m 24.03 12.06 c -2.395 0 -4.449 1.297 -5.563 3.219 c -0.156 0 -0.313 -0.012 -0.469 0 c -2.066 0.145 -4.01 1.293 -5.125 3.219 c -1.488 2.578 -0.98 5.738 1.031 7.75 c -0.879 1.469 -1.164 3.27 -0.719 4.969 c 0.594 2.246 2.348 4 4.594 4.594 c 2.254 0.594 4.629 -0.086 6.25 -1.75 c 1.621 1.664 4.04 2.34 6.281 1.75 c 2.25 -0.598 4 -2.375 4.594 -4.625 c 0.461 -1.734 0.145 -3.543 -0.781 -5.03 c 1.258 -1.23 1.973 -2.918 1.938 -4.719 c -0.043 -2.324 -1.332 -4.461 -3.375 -5.563 c -0.984 -0.535 -2.074 -0.797 -3.156 -0.781 c -1.141 -1.824 -3.191 -3.03 -5.5 -3.03 m 0 0" fill="#f9f9f9" stroke="none" fill-rule="nonzero" fill-opacity="1"/></g></svg>