<!-- color: #eeeeee --><svg xmlns="http://www.w3.org/2000/svg" viewBox="0 0 48 48"><g><path d="m 12.406 23.16 c -0.258 -0.063 -0.395 0.121 -0.594 0.219 c -0.012 0 -0.02 0 -0.031 0 c -0.172 -0.039 -0.352 0.023 -0.469 0.156 c -0.012 0.012 -0.02 0.02 -0.031 0.031 c -0.012 0.031 -0.023 0.063 -0.031 0.094 c -0.012 0.031 -0.023 0.063 -0.031 0.094 c -0.012 0.031 -0.023 0.063 -0.031 0.094 c 0 0.02 0 0.043 0 0.063 c -0.066 0.184 -0.176 0.371 -0.188 0.563 c 0 0.02 0 0.043 0 0.063 l 0.25 4.656 c 0.066 1.191 0.566 1.984 1.281 2.438 c 0.703 0.453 1.504 0.664 2.375 1.125 c 2.109 1.105 5.156 1.25 5.156 1.25 l 5.5 0 c 0.02 0 0.043 0 0.063 0 c 0.781 -0.113 1.383 -0.645 1.844 -0.938 c 0.012 0 0.02 0 0.031 0 c 0.539 -0.367 0.977 -0.93 1.063 -1.625 c 0 -0.012 0 -0.02 0 -0.031 l 0.063 -3.281 c -0.008 -0.27 -0.117 -0.551 -0.313 -0.75 c -0.008 -0.008 -0.023 0.008 -0.031 0 c -0.203 -0.188 -0.441 -0.273 -0.594 -0.313 c -0.031 -0.012 -0.063 -0.023 -0.094 -0.031 c -0.477 -0.004 -0.988 -0.023 -1.5 -0.031 c -0.758 0 -1.293 0.453 -1.688 0.844 c -0.008 0.008 -0.023 0.023 -0.031 0.031 c -0.328 0.32 -0.648 0.613 -1.344 0.781 c -0.012 0 -0.02 0 -0.031 0 c -0.574 0 -0.961 -0.18 -1.438 -0.5 c -0.453 -0.305 -1.027 -0.867 -1.906 -1.031 c -0.031 -0.004 -0.063 -0.004 -0.094 0 c -1.066 -0.023 -2.801 -0.109 -4 -0.125 l -1.125 -2.938 c -0.051 -0.129 -0.152 -0.23 -0.281 -0.281 c -0.559 -0.195 -1.133 -0.43 -1.719 -0.625 c -0.012 0 -0.02 0 -0.031 0 m -0.25 0.938 c 0.008 0.004 0.023 -0.004 0.031 0 c 0.484 0.164 0.969 0.352 1.469 0.531 l 1.125 3.03 c 0.07 0.184 0.242 0.305 0.438 0.313 c 1.121 0.004 3.066 0.07 4.25 0.094 c 0.551 0.102 1.016 0.508 1.563 0.875 c 0.531 0.355 1.156 0.695 2 0.688 c 0.031 0.004 0.063 0.004 0.094 0 c 1.023 -0.215 1.574 -0.711 1.938 -1.063 c 0 -0.012 0 -0.02 0 -0.031 c 0.367 -0.367 0.633 -0.563 1.031 -0.563 c 0.441 0.008 0.906 0.023 1.375 0.031 c 0.121 0.031 0.145 0.051 0.156 0.063 c -0.016 -0.016 0.031 -0.012 0.031 0.063 l -0.063 3.219 l 0 0.031 c -0.047 0.328 -0.289 0.625 -0.656 0.875 c -0.516 0.328 -1.055 0.727 -1.438 0.781 l -5.406 0 c 0 0 -2.969 -0.191 -4.75 -1.125 c -0.965 -0.508 -1.758 -0.758 -2.281 -1.094 c -0.504 -0.32 -0.793 -0.684 -0.844 -1.656 l -0.25 -4.625 l 0 -0.063 c 0.016 -0.137 0.031 -0.23 0.063 -0.281 c 0.012 -0.012 0.02 -0.02 0.031 -0.031 c 0.051 -0.059 0.059 -0.066 0.094 -0.063 m 0 0" fill="#f9f9f9" stroke="none" fill-rule="nonzero" fill-opacity="1"/><path d="m 18.09 14 c -2.031 0.188 -3.484 1.359 -4.813 2.594 c -0.008 0.004 -0.023 -0.004 -0.031 0 c -0.035 0.027 -0.066 0.059 -0.094 0.094 c -0.039 0.035 -0.07 0.078 -0.094 0.125 c -0.023 0.027 -0.008 0.066 -0.031 0.094 c -0.504 0.586 -0.957 1.184 -1.188 1.75 c -0.125 0.313 -0.199 0.645 -0.188 0.969 c 0 0.008 0 0.023 0 0.031 c 0.012 0.332 0.145 0.746 0.531 1 c 0.027 0.023 0.059 0.047 0.094 0.063 l 3.406 1.281 l 0.844 2.875 c 0.105 0.324 0.398 0.52 0.719 0.531 l 2.25 0.125 c 0.223 0.012 0.395 -0.07 0.531 -0.188 c 0.012 -0.012 0.02 -0.02 0.031 -0.031 c 0 0 0.402 -0.375 0.844 -0.781 c 0.242 -0.215 0.461 -0.441 0.625 -0.563 c 0.012 -0.012 0.02 -0.02 0.031 -0.031 c 0.098 -0.086 0.09 -0.063 0.125 -0.063 c 0.027 0 0.145 0.023 0.25 0.063 c 0.012 0.008 0.051 0.023 0.063 0.031 c 0.199 0.113 0.555 0.355 1.063 0.344 c 0.535 -0.02 0.883 -0.355 1.031 -0.5 c 0.016 0.008 0.016 0.008 0.063 0.031 c 0.02 0.008 0.008 -0.012 0.031 0 c 0.156 0.098 0.336 0.25 0.5 0.406 c 0.363 0.316 0.688 0.688 0.688 0.688 c 0.012 0.012 0.02 0.02 0.031 0.031 c 0.102 0.094 0.273 0.199 0.469 0.219 c 0.012 0 0.02 0 0.031 0 l 1.719 0.125 c 0.012 0 0.02 0 0.031 0 c 0.301 0 0.594 -0.02 0.844 -0.188 c 0.227 -0.152 0.313 -0.375 0.375 -0.594 c 0.004 -0.008 -0.004 -0.023 0 -0.031 c 0.004 -0.012 0.027 -0.02 0.031 -0.031 c 0.137 -0.352 0.164 -0.676 0.188 -1.031 l 0.188 -3.656 c 0 -0.012 0 -0.02 0 -0.031 c 0.039 -1.949 -0.762 -3.348 -1.719 -4.156 c -1.047 -0.895 -2.313 -1.523 -3.531 -1.563 c -1.957 -0.004 -3.945 -0.016 -5.906 -0.031 c -0.012 0 -0.02 0 -0.031 0 m 0.094 0.969 c 1.934 0.016 3.887 0.027 5.813 0.031 c 0.012 0 0.02 0 0.031 0 c 0.887 0.039 1.996 0.566 2.906 1.344 c 0.742 0.625 1.398 1.719 1.375 3.375 c 0 0.012 0 0.02 0 0.031 l -0.188 3.625 c -0.027 0.387 -0.055 0.625 -0.125 0.781 c -0.012 0.02 -0.023 0.039 -0.031 0.063 c -0.035 0.141 -0.051 0.137 -0.031 0.125 c 0.016 -0.012 -0.09 0.023 -0.219 0.031 l -0.063 0 l -1.625 -0.156 c -0.051 -0.055 -0.305 -0.352 -0.688 -0.688 c -0.008 -0.008 -0.023 0.004 -0.031 0 c -0.215 -0.199 -0.434 -0.398 -0.656 -0.531 c -0.012 0 -0.02 0 -0.031 0 c -0.137 -0.074 -0.266 -0.172 -0.531 -0.188 c -0.25 -0.016 -0.527 0.129 -0.688 0.313 c -0.008 0.012 -0.023 0.02 -0.031 0.031 c -0.105 0.098 -0.199 0.184 -0.344 0.188 c -0.203 0.004 -0.352 -0.102 -0.625 -0.25 c -0.012 -0.012 -0.02 -0.02 -0.031 -0.031 c -0.207 -0.086 -0.453 -0.164 -0.719 -0.156 c -0.254 0.008 -0.508 0.109 -0.719 0.281 c -0.012 0.008 -0.02 0.023 -0.031 0.031 c -0.23 0.176 -0.449 0.41 -0.656 0.594 c -0.418 0.383 -0.758 0.699 -0.813 0.75 l -2 -0.125 l -0.875 -2.906 c -0.043 -0.141 -0.145 -0.258 -0.281 -0.313 l -3.563 -1.375 c -0.043 -0.027 -0.09 -0.086 -0.094 -0.219 c 0 -0.012 0 -0.02 0 -0.031 c -0.008 -0.141 0.027 -0.324 0.125 -0.563 c 0.188 -0.461 0.566 -1.063 1.063 -1.625 c 0.012 -0.012 0.02 -0.02 0.031 -0.031 c 0.012 -0.012 0.02 -0.02 0.031 -0.031 c 0.023 -0.02 0.043 -0.039 0.063 -0.063 c 1.281 -1.188 2.551 -2.156 4.25 -2.313 m 0 0" fill="#f9f9f9" stroke="none" fill-rule="nonzero" fill-opacity="1"/><path d="m 32.563 18.719 c -0.309 0.063 -0.543 0.316 -0.578 0.629 c -0.039 0.316 0.133 0.617 0.422 0.746 c 2.01 0.855 3.137 3.113 3.156 5.563 c 0.02 2.449 -1.059 4.992 -3.219 6.281 c -0.285 0.09 -0.488 0.344 -0.508 0.645 c -0.02 0.301 0.145 0.578 0.418 0.707 c 0.27 0.125 0.594 0.074 0.809 -0.133 c 2.688 -1.605 3.961 -4.617 3.938 -7.5 c -0.023 -2.883 -1.332 -5.738 -4 -6.875 c -0.137 -0.066 -0.289 -0.086 -0.438 -0.063 m 0 0" fill="#f9f9f9" stroke="none" fill-rule="nonzero" fill-opacity="1"/><path d="m 30.656 22.22 c -0.328 0.059 -0.574 0.336 -0.594 0.668 c -0.023 0.332 0.184 0.637 0.5 0.738 c 0.918 0.367 1.34 1.297 1.313 2.344 c -0.027 1.047 -0.563 2.043 -1.344 2.406 c -0.27 0.082 -0.469 0.313 -0.508 0.594 c -0.039 0.277 0.086 0.555 0.32 0.711 c 0.238 0.152 0.543 0.156 0.781 0.008 c 1.43 -0.66 2.148 -2.191 2.188 -3.688 c 0.039 -1.496 -0.652 -3.09 -2.219 -3.719 c -0.137 -0.066 -0.289 -0.086 -0.438 -0.063 m 0 0" fill="#f9f9f9" stroke="none" fill-rule="nonzero" fill-opacity="1"/><path d="m 24 18.918 c 0.008 0.449 0.266 0.855 0.672 1.063 c 0.41 0.211 0.902 0.191 1.293 -0.051 c 0.387 -0.242 0.609 -0.668 0.578 -1.113 c -0.008 -0.445 -0.266 -0.852 -0.672 -1.063 c -0.41 -0.211 -0.902 -0.191 -1.293 0.051 c -0.387 0.242 -0.609 0.668 -0.578 1.113 m 0 0" fill="#f9f9f9" stroke="none" fill-rule="nonzero" fill-opacity="1"/><path d="m 17.949 19.02 c 0.008 0.445 0.27 0.852 0.676 1.063 c 0.406 0.211 0.902 0.188 1.289 -0.051 c 0.391 -0.242 0.613 -0.668 0.582 -1.113 c -0.008 -0.449 -0.266 -0.855 -0.676 -1.066 c -0.406 -0.207 -0.902 -0.188 -1.289 0.055 c -0.387 0.242 -0.609 0.668 -0.582 1.113 m 0 0" fill="#f9f9f9" stroke="none" fill-rule="nonzero" fill-opacity="1"/></g></svg>