<!-- color: #6762c2 --><svg xmlns="http://www.w3.org/2000/svg" viewBox="0 0 48 48"><g><path d="m 29.906 11 c -4.59 -0.117 -7.875 0.551 -11.906 3.156 l 0 15 c -0.32 -0.082 -0.652 -0.156 -1 -0.156 c -2.211 0 -4 1.789 -4 4 c 0 2.211 1.789 4 4 4 c 2.207 0 4 -1.789 4 -4 c 0 -0.031 0 -0.063 0 -0.094 l 0 -12.969 c 3.77 -2.699 6.711 -3.328 11 -2.313 l 0 9.531 c -0.32 -0.086 -0.652 -0.156 -1 -0.156 c -2.211 0 -4 1.793 -4 4 c 0 2.211 1.789 4 4 4 c 2.164 0 3.934 -1.723 4 -3.875 c 0 -0.043 0 -0.086 0 -0.125 l 0 -19.656 c -1.902 -0.172 -3.563 -0.305 -5.094 -0.344 m 0 0" fill="#f9f9f9" stroke="none" fill-rule="nonzero" fill-opacity="1"/></g></svg>