<!-- color: #466999 --><svg xmlns="http://www.w3.org/2000/svg" viewBox="0 0 48 48"><g><path d="m 12.813 13 c -0.441 0.051 -0.813 0.473 -0.813 0.938 l 0 20.13 c 0 0.496 0.434 0.938 0.906 0.938 l 22.19 0 c 0.469 0 0.906 -0.441 0.906 -0.938 l 0 -20.12 c 0 -0.496 -0.438 -0.938 -0.906 -0.938 m -3.094 1.219 c 0.332 0 0.75 0.438 0.75 0.781 c 0 0.348 -0.418 0.781 -0.75 0.781 c -0.332 0 -0.75 -0.434 -0.75 -0.781 c 0 -0.344 0.418 -0.781 0.75 -0.781 m -18 2.688 l 20 0 l 0 16.5 l -20 0 m 0 -16.5" fill="#f9f9f9" stroke="none" fill-rule="nonzero" fill-opacity="1"/></g></svg>