<!-- color: #46baa7 --><svg xmlns="http://www.w3.org/2000/svg" viewBox="0 0 48 48"><g><path d="m 20 7 c -0.551 0 -1 0.449 -1 1 l 0 1.719 c 0 0.102 0.035 0.188 0.063 0.281 l -2.25 0 c -1.563 0 -2.813 1.316 -2.813 2.875 l 0 24.25 c 0 1.559 1.254 2.875 2.813 2.875 l 14.375 0 c 1.559 0 2.813 -1.316 2.813 -2.875 l 0 -24.25 c 0 -1.559 -1.25 -2.875 -2.813 -2.875 l -2.25 0 c 0.027 -0.094 0.063 -0.18 0.063 -0.281 l 0 -1.719 c 0 -0.551 -0.449 -1 -1 -1 m -11.188 5 l 14.375 0 c 0.43 0 0.813 0.348 0.813 0.875 l 0 24.25 c 0 0.527 -0.379 0.875 -0.813 0.875 l -14.375 0 c -0.434 0 -0.813 -0.348 -0.813 -0.875 l 0 -24.25 c 0 -0.527 0.383 -0.875 0.813 -0.875 m 14.188 8 l -14 10 l 0 7 l 14 0 m 0 -17" fill="#f9f9f9" stroke="none" fill-rule="nonzero" fill-opacity="1"/></g></svg>