<!-- color: #5968a2 --><svg xmlns="http://www.w3.org/2000/svg" viewBox="0 0 48 48"><g><path d="m 35 19 c -1.105 0 -2 0.895 -2 2 c 0 0.129 0.008 0.254 0.031 0.375 l -10 6.906 c -0.301 -0.18 -0.656 -0.281 -1.031 -0.281 c -0.266 0 -0.52 0.063 -0.75 0.156 l -3.531 -4.156 c 0.172 -0.293 0.281 -0.633 0.281 -1 c 0 -1.105 -0.895 -2 -2 -2 c -1.105 0 -2 0.895 -2 2 c 0 1.105 0.895 2 2 2 c 0.266 0 0.52 -0.063 0.75 -0.156 l 3.531 4.156 c -0.172 0.293 -0.281 0.633 -0.281 1 c 0 1.105 0.895 2 2 2 c 1.105 0 2 -0.895 2 -2 c 0 -0.129 -0.008 -0.254 -0.031 -0.375 l 10 -6.906 c 0.301 0.18 0.656 0.281 1.031 0.281 c 1.105 0 2 -0.895 2 -2 c 0 -1.105 -0.895 -2 -2 -2 m 0 0" fill="#f9f9f9" stroke="none" fill-rule="nonzero" fill-opacity="1"/></g></svg>