<!-- color: #9d8fa7 --><svg xmlns="http://www.w3.org/2000/svg" viewBox="0 0 48 48"><g><path d="m 13 12 c -0.332 0 -1 0.563 -1 1 l 0 13 c 0 0.465 0.328 0.996 1 1 l 0.969 0 l -0.031 0.031 l 1.094 0 l 0 2.969 l 1.5 1.5 l 1.531 1.5 l 2.969 0 l 0 0.844 c 0 0.449 -0.063 1.047 -0.031 1.156 c 0.125 0.445 0.563 0.871 1 1 l 13 0 c 0.559 0 1 -0.516 1 -1 l 0 -13 c 0 -0.527 -0.371 -1 -1 -1 l -7.969 0 l -0.031 -8 c 0 -0.391 -0.063 -1 -1 -1 m -7 2 l 1 0 l 0 1 l 4 0 l 0 1 l -1.25 0 l -0.031 0.594 c -0.141 1.227 -0.918 2.621 -2.125 3.875 l -0.219 0.25 l 0.219 0.188 c 0.129 0.102 0.359 0.297 0.531 0.406 c 0.031 0.02 0.035 0.012 0.063 0.031 c -0.121 0.16 -0.188 0.367 -0.188 0.656 l 0 0.5 c 0 0.07 -0.016 0.125 -0.031 0.125 c -0.02 0 -0.285 -0.211 -0.625 -0.469 c -0.34 -0.258 -0.664 -0.523 -0.719 -0.563 c -0.117 -0.082 -0.039 -0.121 -0.938 0.563 c -0.34 0.258 -0.887 0.637 -1.219 0.844 c -0.594 0.367 -1.715 0.969 -1.813 0.969 c -0.023 0 -0.203 -0.207 -0.406 -0.438 c -0.203 -0.234 -0.375 -0.422 -0.375 -0.438 c -0.004 -0.023 0.203 -0.117 0.438 -0.219 c 0.918 -0.375 1.809 -0.926 2.875 -1.719 c 0.25 -0.188 0.469 -0.371 0.469 -0.406 c 0 -0.031 -0.047 -0.113 -0.125 -0.188 c -0.27 -0.25 -0.969 -1.094 -1.25 -1.531 c -0.277 -0.426 -0.719 -1.285 -0.719 -1.406 c 0 -0.039 0.234 -0.031 0.719 -0.031 l 0.719 0 l 0.188 0.406 c 0.227 0.5 0.676 1.215 1.063 1.656 c 0.156 0.176 0.289 0.305 0.313 0.313 c 0.047 0.02 0.574 -0.527 0.906 -0.969 c 0.516 -0.684 0.969 -1.863 0.969 -2.469 l 0 -0.531 l -6.438 0 l 0 -1 l 4 0 m 9 9 l 1 0 l 3 8 l -1 0 l -0.75 -2 l -3.5 0 l -0.75 2 l -1 0 m 3.531 -7 l -1.531 4 l 3 0 m -10.906 -2 l 1.906 0 l 0 3 l -2.969 0 l 0 -2.969 l 1.094 0 m -0.031 -0.031" fill="#f9f9f9" stroke="none" fill-rule="nonzero" fill-opacity="1"/></g></svg>