<!-- color: #6a777e --><svg xmlns="http://www.w3.org/2000/svg" viewBox="0 0 48 48"><g><path d="m 12 12 l 0 24 l 24 0 l 0 -12 l -12 0 l 0 -12 m -9 2.5 l 0.75 0 l 0 2.969 l 3.5 0 l 0 -2.969 l 0.75 0 l 0 7 l -0.75 0 l 0 -3.313 l -3.5 0 l 0 3.313 l -0.75 0 m 5.5 4.813 c 0.133 0 0.246 0.035 0.344 0.125 c 0.094 0.09 0.156 0.219 0.156 0.406 c 0 0.184 -0.063 0.313 -0.156 0.406 c -0.098 0.09 -0.211 0.156 -0.344 0.156 c -0.137 0 -0.219 -0.066 -0.313 -0.156 c -0.09 -0.094 -0.156 -0.223 -0.156 -0.406 c 0 -0.191 0.066 -0.32 0.156 -0.406 c 0.094 -0.09 0.176 -0.125 0.313 -0.125 m -5.5 0.188 l 0.844 0 l 0 6.531 l 3.156 0 l 0 0.781 l -4 0 m 10 -7.313 l 1.906 0 c 0.895 0 1.535 0.129 1.938 0.406 c 0.398 0.27 0.594 0.719 0.594 1.313 c 0 0.41 -0.121 0.734 -0.344 1 c -0.223 0.266 -0.543 0.453 -0.969 0.531 l 0 0.031 c 1.02 0.18 1.531 0.734 1.531 1.656 c 0 0.617 -0.184 1.09 -0.594 1.438 c -0.406 0.348 -0.988 0.531 -1.719 0.531 l -2.344 0 m 0.781 -6.219 l 0 2.281 l 1.281 0 c 0.555 0 0.977 -0.105 1.219 -0.281 c 0.238 -0.18 0.344 -0.48 0.344 -0.906 c 0 -0.387 -0.145 -0.676 -0.406 -0.844 c -0.273 -0.172 -0.688 -0.25 -1.281 -0.25 m 6 0.938 c 0.633 0 1.133 0.23 1.5 0.656 c 0.371 0.434 0.563 0.98 0.563 1.688 l 0 0.5 l -3.5 0 c 0.016 0.602 0.184 1.051 0.469 1.375 c 0.285 0.313 0.672 0.469 1.188 0.469 c 0.543 0 1.094 -0.113 1.625 -0.344 l 0 0.719 c -0.27 0.109 -0.539 0.199 -0.781 0.25 c -0.238 0.055 -0.531 0.063 -0.875 0.063 c -0.746 0 -1.316 -0.219 -1.75 -0.688 c -0.434 -0.465 -0.656 -1.105 -0.656 -1.938 c 0 -0.832 0.195 -1.508 0.594 -2 c 0.402 -0.492 0.949 -0.75 1.625 -0.75 m -12.844 0.188 l 0.844 0 l 0 5.5 l -0.844 0 m 12.844 -5 c -0.406 0 -0.727 0.117 -0.969 0.375 c -0.238 0.273 -0.398 0.648 -0.438 1.125 l 2.656 0 c 0 -0.496 -0.102 -0.863 -0.313 -1.125 c -0.215 -0.266 -0.539 -0.375 -0.938 -0.375 m -7.156 1.313 l 0 2.594 l 1.406 0 c 0.539 0 0.945 -0.098 1.219 -0.313 c 0.277 -0.219 0.438 -0.574 0.438 -1.031 c 0 -0.43 -0.152 -0.738 -0.438 -0.938 c -0.277 -0.199 -0.707 -0.313 -1.281 -0.313 m -1.344 0" fill="#f9f9f9" stroke="none" fill-rule="nonzero" fill-opacity="1"/></g></svg>