<!-- color: #eeeeee --><svg xmlns="http://www.w3.org/2000/svg" viewBox="0 0 48 48"><g><path d="m 24 9 c -8.285 0 -15 6.715 -15 15 c 0 8.285 6.715 15 15 15 c 8.285 0 15 -6.715 15 -15 c 0 -8.285 -6.715 -15 -15 -15 m -1 2 l 2 0 l 0 1 l -2 0 m 1 1 c 2.254 0 4.348 0.68 6.094 1.844 l -15.438 14.969 c -1.051 -1.688 -1.656 -3.68 -1.656 -5.813 c 0 -6.074 4.926 -11 11 -11 m -8.5 1.094 l 0.719 0.719 l -1.406 1.406 l -0.719 -0.719 m 18.406 -1.406 l 1.406 1.406 l -0.719 0.719 l -1.406 -1.406 m 1.5 3.281 c 1.086 1.707 1.719 3.734 1.719 5.906 c 0 6.074 -4.926 11 -11 11 c -2.301 0 -4.453 -0.695 -6.219 -1.906 m -6.781 -10.09 l 1 0 l 0 2 l -1 0 m 13 -2 c 0.551 0 1 0.449 1 1 c 0 0.555 -0.449 1 -1 1 c -0.551 0 -1 -0.445 -1 -1 c 0 -0.551 0.449 -1 1 -1 m 12 0 l 1 0 l 0 2 l -1 0 m -21.19 6.781 l 1.406 1.406 l -0.719 0.719 l -1.406 -1.406 m 19.09 -0.719 l 0.719 0.719 l -1.406 1.406 l -0.719 -0.719 m -8.781 2.813 l 2 0 l 0 1 l -2 0 m 0 -1" fill="#f9f9f9" stroke="none" fill-rule="nonzero" fill-opacity="1"/></g></svg>