<!-- color: #474747 --><svg xmlns="http://www.w3.org/2000/svg" viewBox="0 0 48 48"><g><path d="m 26.594 11 c -1.199 -0.016 -2.52 0.023 -3.813 0.125 c -2.59 0.203 -5.109 0.625 -6.625 1.156 c -3.039 1.059 -3.551 1.141 -3.313 2.188 c 0.758 1.125 1.266 2.328 1.844 3.531 c -1.668 2 -2.688 4.531 -2.688 7.313 c 0 6.449 5.375 11.688 12 11.688 c 6.625 0 12 -5.238 12 -11.688 c 0 -3.426 -1.523 -6.488 -3.938 -8.625 c 0.586 -1.156 0.91 -2.547 1.188 -3.563 c 0.254 -0.953 -0.086 -1.246 -3.531 -1.875 c -0.859 -0.156 -1.926 -0.234 -3.125 -0.25 m 2.75 2.531 l 0.031 0.031 c 0.316 -0.027 0.57 0.191 0.594 0.5 c 0.023 0.309 -0.211 0.566 -0.531 0.594 c -0.316 0.023 -0.57 -0.191 -0.594 -0.5 c -0.023 -0.309 0.188 -0.602 0.5 -0.625 m -12.625 0.969 c 0.316 -0.027 0.598 0.191 0.625 0.5 c 0.023 0.309 -0.215 0.598 -0.531 0.625 c -0.313 0.023 -0.602 -0.223 -0.625 -0.531 c -0.027 -0.309 0.215 -0.57 0.531 -0.594 m 7.281 7.188 c 2.066 0 3.75 1.613 3.75 3.625 c 0 2.01 -1.684 3.656 -3.75 3.656 c -2.066 0 -3.75 -1.645 -3.75 -3.656 c 0 -2.01 1.684 -3.625 3.75 -3.625 m 0 0.719 c -1.664 0 -3 1.289 -3 2.906 c 0 1.617 1.34 2.938 3 2.938 c 1.66 0 3 -1.32 3 -2.938 c 0 -1.617 -1.34 -2.906 -3 -2.906 m 0 1.094 c 1.035 0 1.875 0.805 1.875 1.813 c 0 1.01 -0.84 1.844 -1.875 1.844 c -1.035 0 -1.875 -0.836 -1.875 -1.844 c 0 -1.012 0.84 -1.813 1.875 -1.813 m 0 0" fill="#f9f9f9" stroke="none" fill-rule="nonzero" fill-opacity="1"/></g></svg>