<!-- color: #474747 --><svg xmlns="http://www.w3.org/2000/svg" viewBox="0 0 48 48"><g><path d="m 24 9 c -8.281 0 -15 6.719 -15 15 c 0 1.078 0.125 2.141 0.344 3.156 c 1.723 -0.43 3.066 0 4.5 0 c 0.441 0 0.539 -0.129 0.625 -0.281 c 0.086 -0.152 0.094 -0.313 0.094 -0.313 l 0.813 0 c 0 0 0.008 0.16 0.094 0.313 c 0.086 0.152 0.18 0.281 0.625 0.281 c 0.371 0 0.57 0.258 0.781 0.469 c 0.035 -0.746 0.133 -2.848 0.406 -5.688 c 0.16 -1.656 0.367 -3.301 0.625 -4.563 c 0.129 -0.633 0.27 -1.156 0.438 -1.563 c 0.086 -0.203 0.156 -0.383 0.281 -0.531 c 0.125 -0.148 0.316 -0.281 0.563 -0.281 c 0.258 0 0.441 0.156 0.563 0.313 c 0.121 0.156 0.23 0.348 0.313 0.563 c 0.168 0.43 0.309 0.977 0.438 1.656 c 0.254 1.355 0.434 3.156 0.594 4.938 c 0.242 2.707 0.289 4.262 0.344 5.406 c 0.043 -0.07 0.078 -0.152 0.125 -0.219 c 0.16 -0.23 0.336 -0.469 0.719 -0.469 c 0.762 0 1.059 -0.223 1.188 -0.375 c 0.129 -0.152 0.094 -0.25 0.094 -0.25 l 0.813 0 c 0 0 0.012 0.219 0.063 0.406 c 0.027 0.094 0.07 0.16 0.094 0.188 c 0.023 0.027 -0.02 0.031 0 0.031 c 0.234 0 0.453 0.109 0.594 0.25 c 0.141 -0.133 0.336 -0.25 0.563 -0.25 l 0.531 0 c 0.008 -0.012 0.051 -0.055 0.094 -0.125 c 0.09 -0.141 0.184 -0.375 0.281 -0.625 c 0.098 -0.25 0.215 -0.516 0.344 -0.75 c 0.066 -0.117 0.141 -0.242 0.25 -0.344 c 0.109 -0.102 0.277 -0.188 0.469 -0.188 c 0.191 0 0.328 0.09 0.438 0.188 c 0.109 0.098 0.211 0.195 0.281 0.313 c 0.141 0.23 0.238 0.496 0.344 0.75 c 0.105 0.254 0.191 0.508 0.281 0.656 c 0.035 0.055 0.074 0.07 0.094 0.094 c 0.063 -0.016 0.246 -0.133 0.5 -0.375 c 0.273 -0.258 0.617 -0.625 1.156 -0.625 c 0.523 0 0.824 0.363 1.094 0.625 c 0.137 0.129 0.254 0.273 0.344 0.344 c 0.047 0.035 0.074 0.055 0.094 0.063 c 1.016 -0.031 1.879 -0.27 2.875 -0.406 c 0.992 -0.133 2.102 -0.145 3.531 0.25 c 0.199 -0.977 0.313 -1.996 0.313 -3.03 c 0 -8.281 -6.719 -15 -15 -15 m -4.813 6.906 c -0.035 0.059 -0.078 0.109 -0.125 0.219 c -0.133 0.316 -0.254 0.801 -0.375 1.406 c -0.246 1.211 -0.434 2.859 -0.594 4.5 c -0.316 3.281 -0.469 6.563 -0.469 6.563 l -0.75 0.188 c 0 0 -0.129 -0.219 -0.313 -0.438 c -0.184 -0.219 -0.426 -0.375 -0.469 -0.375 c -0.57 0 -0.891 -0.305 -1.125 -0.594 c -0.234 0.289 -0.555 0.594 -1.125 0.594 c -1.57 0 -2.797 -0.391 -4.281 -0.031 c 1.73 6.371 7.52 11.06 14.438 11.06 c 6.965 0 12.816 -4.75 14.5 -11.188 c -1.336 -0.375 -2.316 -0.344 -3.25 -0.219 c -0.934 0.125 -1.82 0.34 -2.938 0.375 l -0.031 0 c -0.27 0.004 -0.445 -0.102 -0.594 -0.219 c -0.148 -0.117 -0.277 -0.25 -0.406 -0.375 c -0.258 -0.25 -0.492 -0.406 -0.531 -0.406 c -0.129 0 -0.359 0.156 -0.625 0.406 c -0.266 0.25 -0.539 0.594 -1.063 0.594 c -0.191 0 -0.359 -0.09 -0.469 -0.188 c -0.109 -0.098 -0.211 -0.195 -0.281 -0.313 c -0.141 -0.23 -0.238 -0.496 -0.344 -0.75 c -0.105 -0.254 -0.191 -0.508 -0.281 -0.656 c -0.012 -0.02 -0.02 -0.016 -0.031 -0.031 c -0.012 0.016 -0.02 0.012 -0.031 0.031 c -0.082 0.148 -0.18 0.398 -0.281 0.656 c -0.102 0.258 -0.195 0.512 -0.344 0.75 c -0.148 0.238 -0.379 0.5 -0.75 0.5 l -0.563 0 c -0.02 0 -0.008 0.004 -0.031 0.031 c -0.023 0.027 -0.066 0.094 -0.094 0.188 c -0.051 0.188 -0.063 0.406 -0.063 0.406 l -0.781 0 c 0 0 -0.012 -0.219 -0.063 -0.406 c -0.027 -0.094 -0.07 -0.16 -0.094 -0.188 c -0.023 -0.027 -0.008 -0.031 -0.031 -0.031 c -0.262 0 -0.488 -0.117 -0.625 -0.281 c -0.074 -0.09 -0.086 -0.188 -0.125 -0.281 c -0.32 0.281 -0.723 0.563 -1.5 0.563 c 0.102 0 0.039 0.008 -0.063 0.156 c -0.102 0.148 -0.246 0.387 -0.344 0.625 c -0.199 0.477 -0.313 0.969 -0.313 0.969 l -0.813 -0.094 c 0 0 -0.121 -3.555 -0.438 -7.094 c -0.156 -1.77 -0.379 -3.535 -0.625 -4.844 c -0.121 -0.652 -0.242 -1.188 -0.375 -1.531 c -0.047 -0.125 -0.086 -0.184 -0.125 -0.25 m 0 0" fill="#f9f9f9" stroke="none" fill-rule="evenodd" fill-opacity="1"/></g></svg>