<!-- color: #757575 --><svg xmlns="http://www.w3.org/2000/svg" viewBox="0 0 48 48"><g><path d="m 22.21 11.996 c 3.176 5.172 -0.891 5.098 -0.281 10.703 c -0.793 -1.285 -0.824 -2.113 -2.617 -2.508 c 2.43 4.254 -2.898 3.777 -2.395 7.48 c -0.652 -0.18 -1.254 -1.398 -0.758 -2.902 c -1.711 2.109 -1.102 3.926 0.113 5.754 c -1.215 -1.215 -1.215 -0.605 -1.82 -2.32 c 0.227 4.27 3.355 7.496 9.246 7.77 c -2.605 -0.297 -4.387 -2.617 -4.387 -5.449 c 0 -3.039 3.109 -4.91 4.652 -7.05 c 0.648 -0.906 1.402 -2.652 0.211 -3.895 c 3.633 2.457 -0.605 7.293 1.813 9.113 c -0.602 -1.215 0 -2.43 1.223 -3.035 c -0.605 1.215 -0.605 2.426 -0.113 2.922 c 2.801 3.297 0.836 7.207 -2.582 7.406 l 0.457 0 c 4.02 0 8 -2.914 8.43 -5.828 c -0.566 0.836 -1.328 1.578 -2.449 1.578 c 2.945 -2.43 3.543 -6.078 0.934 -9.57 c 0.195 2.277 -1.035 3.492 -2.109 4.273 c 1.684 -3.207 1.688 -6.863 -1.613 -10.08 c 0.262 0.789 0.465 1.406 0.285 2.125 c 0.18 -0.883 -2.445 -4.969 -6.23 -6.492 m -0.008 0.004" fill="#f9f9f9" stroke="none" fill-rule="nonzero" fill-opacity="1"/></g></svg>