<!-- color: #e8a23b --><svg xmlns="http://www.w3.org/2000/svg" viewBox="0 0 48 48"><g><path d="m 17.609 10 c -0.918 0.016 -1.844 0.188 -2.711 0.523 l 4.656 4.656 c 0.816 0.77 1.152 1.926 0.871 3.02 c -0.281 1.094 -1.133 1.941 -2.223 2.223 c -1.09 0.281 -2.246 -0.051 -3.02 -0.871 l -4.652 -4.652 c -1.082 2.77 -0.512 6.07 1.727 8.301 c 2.238 2.238 5.531 2.809 8.301 1.727 l 12.1 12.11 c 0.773 0.82 1.938 1.152 3.02 0.875 c 1.09 -0.273 1.938 -1.133 2.223 -2.223 c 0.281 -1.09 -0.051 -2.25 -0.871 -3.02 l -12.1 -12.1 c 1.082 -2.77 0.512 -6.07 -1.727 -8.301 c -1.535 -1.539 -3.57 -2.285 -5.59 -2.254 m 17.215 23.766 c 0.578 0 1.047 0.469 1.047 1.047 c 0 0.582 -0.469 1.051 -1.047 1.051 c -0.578 0 -1.051 -0.469 -1.051 -1.051 c 0 -0.578 0.469 -1.047 1.051 -1.047 m 0 0" fill="#f9f9f9" stroke="none" fill-rule="nonzero" fill-opacity="1"/></g></svg>