<!-- color: #474747 --><svg xmlns="http://www.w3.org/2000/svg" viewBox="0 0 48 48"><g><path d="m 21.75 12 c -5.965 0 -9.953 4.313 -10.625 9.906 c 0.043 -0.27 0.094 -0.523 0.156 -0.781 c 0.797 -3.363 3.293 -5.813 7.094 -5.813 c 4.398 0 7.988 3.254 8.406 7.438 c -0.188 -0.016 -0.371 -0.031 -0.563 -0.031 c -3.758 0 -6.813 2.953 -6.813 6.625 c 0 3.672 3.055 6.656 6.813 6.656 c 3.461 0 6.313 -2.52 6.75 -5.781 l -2.594 2.781 l -2.375 -2.531 c -0.379 0.582 -1.023 0.969 -1.781 0.969 c -1.172 0 -2.125 -0.949 -2.125 -2.094 c 0 -0.785 0.461 -1.461 1.125 -1.813 l -2.938 -3.125 l 4.531 -0.031 l 0 0.844 l -3.375 0 l 6.781 6.625 l 6.781 -6.625 l -3.375 0 l 0 -1.656 c 0 -6.391 -5.324 -11.563 -11.875 -11.563 m -2.938 4.094 c -3.758 0 -6.813 2.988 -6.813 6.656 c 0 3.527 2.816 6.379 6.375 6.594 c 0 -3.988 3.191 -7.242 7.156 -7.594 c -0.492 -3.199 -3.309 -5.656 -6.719 -5.656 m 0 4.563 c 1.172 0 2.125 0.949 2.125 2.094 c 0 1.145 -0.953 2.063 -2.125 2.063 c -1.172 0 -2.125 -0.918 -2.125 -2.063 c 0 -1.145 0.953 -2.094 2.125 -2.094 m 0 0.438 c -0.941 0 -1.719 0.738 -1.719 1.656 c 0 0.922 0.777 1.656 1.719 1.656 c 0.941 0 1.688 -0.734 1.688 -1.656 c 0 -0.918 -0.746 -1.656 -1.688 -1.656 m 0 0.625 c 0.586 0 1.063 0.457 1.063 1.031 c 0 0.574 -0.473 1.031 -1.063 1.031 c -0.586 0 -1.063 -0.457 -1.063 -1.031 c 0 -0.574 0.477 -1.031 1.063 -1.031 m 6.688 6.125 c -0.574 0.266 -0.969 0.832 -0.969 1.5 c 0 0.922 0.746 1.688 1.688 1.688 c 0.641 0 1.18 -0.367 1.469 -0.875 l -0.469 -0.5 c -0.137 0.422 -0.523 0.75 -1 0.75 c -0.586 0 -1.063 -0.488 -1.063 -1.063 c 0 -0.496 0.371 -0.863 0.844 -0.969 m -0.5 -0.531" fill="#f9f9f9" stroke="none" fill-rule="nonzero" fill-opacity="1"/></g></svg>