<!-- color: #4f7389 --><svg xmlns="http://www.w3.org/2000/svg" viewBox="0 0 48 48"><g><path d="m 25 15 c -2.391 0 -4.602 0.559 -6.406 1.5 c -0.898 -0.965 -2 -1.363 -4.594 -0.5 c 0 0.898 0.832 1.957 1.719 2.719 c -1.086 1.238 -1.719 2.703 -1.719 4.281 c -1 0 -2 0.457 -2 1 c 0 1.25 0 3 1.5 3 c 0.582 0 1.246 -0.098 1.75 -0.281 c 0.879 1.215 2.18 2.223 3.75 2.969 l 0 1.188 c 0 2.816 3 2.82 3 0.031 l 0 -0.219 c 0.953 0.195 1.961 0.313 3 0.313 c 0.684 0 1.352 -0.039 2 -0.125 c 0 2.816 3 2.82 3 0.031 l 0 -0.781 c 3.563 -1.324 6 -4.02 6 -7.125 c 0 -4.418 -4.926 -8 -11 -8 m 0.5 2 c 1.184 0 2.359 0.266 3.781 0.813 c 0.945 0.363 0.945 1.531 0 1.094 c -2.844 -1.086 -4.723 -1.086 -7.563 0 c -0.945 0.391 -0.945 -0.707 0 -1.094 c 1.422 -0.547 2.598 -0.813 3.781 -0.813 m -7.5 4 c 0.551 0 1 0.449 1 1 c 0 0.551 -0.449 1 -1 1 c -0.551 0 -1 -0.449 -1 -1 c 0 -0.551 0.449 -1 1 -1 m 0 0" fill="#f9f9f9" stroke="none" fill-rule="nonzero" fill-opacity="1"/></g></svg>