<!-- color: #c24936 --><svg xmlns="http://www.w3.org/2000/svg" viewBox="0 0 48 48"><g><path d="m 12.813 15 c -0.441 0.039 -0.816 0.449 -0.813 0.875 l 0 16.25 c 0 0.449 0.434 0.875 0.906 0.875 l 22.19 0 c 0.469 0 0.906 -0.426 0.906 -0.875 l 0 -14.219 c 0 -0.453 -0.438 -0.875 -0.906 -0.875 l -9.125 0 l 0 -1.156 c 0 -0.453 -0.438 -0.875 -0.906 -0.875 m -4.344 3 c 0.402 -0.324 9.195 5.086 8.781 5.656 c -0.051 0.57 -2.07 0.746 -3.094 1.125 l 2.219 3.688 l -2.75 1.531 l -2.406 -3.844 c -0.883 0.66 -2.234 2.801 -2.656 1.969 c -0.211 -0.082 -0.555 -9.762 -0.094 -10.125 m 0 0" fill="#f9f9f9" stroke="none" fill-rule="nonzero" fill-opacity="1"/></g></svg>