<!-- color: #b9e85a --><svg xmlns="http://www.w3.org/2000/svg" viewBox="0 0 48 48"><g><path d="m 24 9 c -0.551 0 -1 0.449 -1 1 c 0 0.047 0.023 0.082 0.031 0.125 l 0 2.969 c -2.293 0.453 -4.03 2.48 -4.03 4.906 c 0 0.578 0.133 1.109 0.313 1.625 l -6.313 19.375 l 8.781 -16.563 c 0.676 0.34 1.41 0.563 2.219 0.563 c 0.805 0 1.543 -0.223 2.219 -0.563 l 8.781 16.563 l -6.313 -19.375 c 0.18 -0.516 0.313 -1.047 0.313 -1.625 c 0 -2.406 -1.707 -4.43 -3.969 -4.906 l 0 -3.094 l -0.031 0 c 0 -0.551 -0.449 -1 -1 -1 m 0 6 c 0.008 0 0.023 0 0.031 0 c 1.641 0.016 2.969 1.352 2.969 3 c 0 1.66 -1.344 3 -3 3 c -1.66 0 -3 -1.34 -3 -3 c 0 -1.66 1.344 -3 3 -3 m 0 0" fill="#f9f9f9" stroke="none" fill-rule="nonzero" fill-opacity="1"/></g></svg>