<!-- color: #f7883d --><svg xmlns="http://www.w3.org/2000/svg" viewBox="0 0 48 48"><g><path d="m 11.875 12 c -0.488 0 -0.875 0.387 -0.875 0.875 l 0 0.25 c 0 0.488 0.387 0.875 0.875 0.875 l 0.125 0 l 0 20 l -0.125 0 c -0.488 0 -0.875 0.387 -0.875 0.875 l 0 0.25 c 0 0.488 0.387 0.875 0.875 0.875 l 24.25 0 c 0.488 0 0.875 -0.387 0.875 -0.875 l 0 -0.25 c 0 -0.488 -0.387 -0.875 -0.875 -0.875 l -0.125 0 l 0 -20 l 0.125 0 c 0.488 0 0.875 -0.387 0.875 -0.875 l 0 -0.25 c 0 -0.488 -0.387 -0.875 -0.875 -0.875 m -12.12 4 c 4.418 0 8 3.582 8 8 c 0 4.418 -3.582 8 -8 8 c -4.418 0 -8 -3.582 -8 -8 c 0 -4.418 3.582 -8 8 -8 m 0.188 0.594 c -0.754 0 -1.477 0.113 -2.156 0.344 l 2.156 6.469 l 4.469 -5.156 c -1.191 -1.031 -2.773 -1.656 -4.469 -1.656 m 4.875 2.094 l -4.563 5.281 l 4.938 4.938 c 1.266 -1.266 2.063 -3.01 2.063 -4.938 c 0 -2.121 -0.953 -4 -2.438 -5.281 m 0 0" fill="#f9f9f9" stroke="none" fill-rule="nonzero" fill-opacity="1"/></g></svg>