<!-- color: #1ca6bf --><svg xmlns="http://www.w3.org/2000/svg" viewBox="0 0 48 48"><g><path d="m 13 13.992 c 0 -2.617 2 -2.691 2 0 l -0.004 19.01 c 0 0.609 0.223 0.988 0.996 0.988 l 8.02 0 c 2.703 0 2.582 2 0 2 l -10.02 0 c -0.668 0 -1 -0.48 -1 -1 m 0.004 -21.01" fill="#f9f9f9" stroke="none" fill-rule="nonzero" fill-opacity="1"/><path d="m 35 34.01 c 0 2.621 -2 2.688 -2 0 l 0.004 -19.01 c 0 -0.621 -0.227 -1 -1 -1 l -8.02 0 c -2.703 0 -2.578 -2 0 -2 l 10.02 0 c 0.668 0 1 0.492 1 1 m -0.004 21.01" fill="#f9f9f9" stroke="none" fill-rule="nonzero" fill-opacity="1"/></g></svg>