<!-- color: #eeeeee --><svg xmlns="http://www.w3.org/2000/svg" viewBox="0 0 48 48"><g><path d="m 13 12 l 0 4 l -0.938 0 c -1.141 0 -2.063 0.879 -2.063 1.969 l 0 16.06 c 0 1.086 0.922 1.969 2.063 1.969 l 23.875 0 c 1.141 0 2.063 -0.883 2.063 -1.969 l 0 -16.06 c 0 -1.09 -0.922 -1.969 -2.063 -1.969 l -0.938 0 l 0 -4 l -9 0 l 0 4 l -4 0 l 0 -4 m 3.594 6 c 0.715 0.035 1.574 0.332 2.406 0.875 c 1.328 0.867 2.137 2.094 2 2.938 l -5.438 -3.563 c -0.016 -0.012 -0.047 0.008 -0.063 0 c 0.27 -0.176 0.664 -0.27 1.094 -0.25 m -1.156 0.781 c 0.078 -0.012 0.141 -0.016 0.219 0 c 0.105 0.02 0.219 0.063 0.313 0.125 l 0.344 0.219 c 0.375 0.242 0.465 0.754 0.219 1.125 l -4.719 7.125 c -0.246 0.371 -0.75 0.461 -1.125 0.219 l -0.313 -0.219 c -0.375 -0.234 -0.496 -0.754 -0.25 -1.125 l 4.719 -7.094 c 0.137 -0.207 0.363 -0.344 0.594 -0.375 m 1.844 1.281 c 0.203 -0.043 0.406 0.004 0.594 0.125 l 0.375 0.219 c 0.375 0.242 0.465 0.754 0.219 1.125 l -4.719 7.094 c -0.246 0.371 -0.75 0.465 -1.125 0.219 l -0.313 -0.219 c -0.375 -0.246 -0.496 -0.75 -0.25 -1.125 l 4.719 -7.094 c 0.125 -0.188 0.297 -0.301 0.5 -0.344 m 1.938 1.25 c 0.203 -0.043 0.438 0.004 0.625 0.125 l 0.344 0.219 c 0.375 0.242 0.465 0.754 0.219 1.125 l -4.719 7.094 c -0.246 0.375 -0.719 0.492 -1.094 0.25 l -0.344 -0.25 c -0.375 -0.242 -0.496 -0.723 -0.25 -1.094 l 4.719 -7.125 c 0.121 -0.188 0.297 -0.301 0.5 -0.344 m -9.719 5.969 c 0.121 -0.063 5.543 3.461 5.531 3.594 c -0.012 0.133 -5.918 3.195 -6.03 3.125 c -0.109 -0.074 0.379 -6.656 0.5 -6.719 m 0 0" fill="#f9f9f9" stroke="none" fill-rule="nonzero" fill-opacity="1"/></g></svg>