<!-- color: #3da445 --><svg xmlns="http://www.w3.org/2000/svg" viewBox="0 0 48 48"><g><path d="m 24 9 c -8.281 0 -15 6.719 -15 15 c 0 8.281 6.719 15 15 15 c 8.281 0 15 -6.719 15 -15 c 0 -8.281 -6.719 -15 -15 -15 m 0 2 c 1.656 0 3 1.344 3 3 c 0 1.656 -1.344 3 -3 3 c -1.656 0 -3 -1.344 -3 -3 c 0 -1.656 1.344 -3 3 -3 m 0 7.375 c 3.105 0 5.625 2.52 5.625 5.625 c 0 3.105 -2.52 5.625 -5.625 5.625 c -3.105 0 -5.625 -2.52 -5.625 -5.625 c 0 -3.105 2.52 -5.625 5.625 -5.625 m -10 2.625 c 1.656 0 3 1.344 3 3 c 0 1.656 -1.344 3 -3 3 c -1.656 0 -3 -1.344 -3 -3 c 0 -1.656 1.344 -3 3 -3 m 20 0 c 1.656 0 3 1.344 3 3 c 0 1.656 -1.344 3 -3 3 c -1.656 0 -3 -1.344 -3 -3 c 0 -1.656 1.344 -3 3 -3 m -10 10 c 1.656 0 3 1.344 3 3 c 0 1.656 -1.344 3 -3 3 c -1.656 0 -3 -1.344 -3 -3 c 0 -1.656 1.344 -3 3 -3 m 0 0" fill="#f9f9f9" stroke="none" fill-rule="nonzero" fill-opacity="1"/><path d="m 24 20.25 c -2.074 0 -3.75 1.676 -3.75 3.75 c 0 2.07 1.676 3.746 3.75 3.746 c 2.07 0 3.746 -1.676 3.746 -3.746 c 0 -2.074 -1.676 -3.75 -3.746 -3.75 m 0 1.875 c 1.035 0 1.875 0.84 1.875 1.875 c 0 1.035 -0.84 1.875 -1.875 1.875 c -1.035 0 -1.875 -0.84 -1.875 -1.875 c 0 -1.035 0.84 -1.875 1.875 -1.875 m 0 0" fill="#f9f9f9" stroke="none" fill-rule="nonzero" fill-opacity="1"/></g></svg>