<!-- color: #01ace8 --><svg xmlns="http://www.w3.org/2000/svg" viewBox="0 0 48 48"><g><path d="m 12.813 15.938 c -0.441 0.043 -0.816 0.449 -0.813 0.875 l 0 16.281 c 0 0.453 0.434 0.844 0.906 0.844 l 22.19 0 c 0.469 0 0.906 -0.391 0.906 -0.844 l 0 -14.25 c 0 -0.449 -0.438 -0.875 -0.906 -0.875 l -9.125 0 l 0 -1.156 c 0 -0.449 -0.438 -0.844 -0.906 -0.844 l -12.25 0 m 7.438 3.25 l 2.969 1.438 c 0 0 2.133 -0.586 2.719 0.656 c 0 0 1.145 -0.406 2.344 -0.031 c 0 0 -0.473 0.547 -0.438 1.813 c 0 0 0.301 5.215 -3.719 7.03 c 0 0 1.223 1.402 0.469 2.813 c 0 0 -0.164 -0.711 -0.781 -1.375 c 0 0 -0.934 -0.875 -0.969 -1.25 c 0 0 -1.203 0.156 -1.75 -0.594 c 0 0 -0.555 -0.449 -1.031 -0.5 c 0 0 1.707 -0.383 3.219 0.281 c 0 0 1.234 -0.793 1.406 -1.656 l -1.031 0.063 c 0 0 0.254 -0.68 1.219 -1 c 0 0 -0.094 -1.398 -0.438 -1.719 c 0 0 -1.398 -0.012 -2.188 0.563 c 0 0 1.047 -1.051 1.563 -1.281 c 0 0 -1.277 -0.059 -2 0.344 c 0 0 0.73 -1.145 1.25 -1.375 c 0 0 -0.688 -0.887 -0.688 -1.375 c 0 0 -0.695 -0.586 -0.938 -1.25 l 1.063 0.625 c 0 0 -1.027 -1.434 -2.25 -2.219 m 0 0" fill="#f9f9f9" stroke="none" fill-rule="nonzero" fill-opacity="1"/></g></svg>