<!-- color: #bc4142 --><svg xmlns="http://www.w3.org/2000/svg" viewBox="0 0 48 48"><g><path d="m 30.996 13.309 c 1.996 1.297 3.188 3.113 2.98 4.379 l -8.145 -5.301 c -0.023 -0.016 -0.051 -0.027 -0.078 -0.047 c 1.09 -0.691 3.242 -0.332 5.242 0.969 m 0 0" fill="#f9f9f9" stroke="none" fill-rule="evenodd" fill-opacity="1"/><path d="m 32.77 17.5 l -0.52 -0.336 c -0.559 -0.367 -1.309 -0.219 -1.668 0.324 l -7.09 10.711 c -0.359 0.547 -0.199 1.285 0.363 1.648 l 0.52 0.336 c 0.559 0.367 1.309 0.219 1.668 -0.324 l 7.09 -10.711 c 0.359 -0.547 0.199 -1.285 -0.363 -1.648 m 0 0" fill="#f9f9f9" stroke="none" fill-rule="evenodd" fill-opacity="1"/><path d="m 29.859 15.605 l -0.52 -0.336 c -0.559 -0.367 -1.309 -0.219 -1.668 0.328 l -7.09 10.707 c -0.359 0.547 -0.199 1.285 0.363 1.648 l 0.52 0.34 c 0.559 0.363 1.309 0.219 1.668 -0.328 l 7.09 -10.711 c 0.359 -0.543 0.199 -1.281 -0.363 -1.648 m 0 0" fill="#f9f9f9" stroke="none" fill-rule="evenodd" fill-opacity="1"/><path d="m 26.949 13.715 l -0.52 -0.34 c -0.559 -0.363 -1.309 -0.219 -1.668 0.328 l -7.09 10.711 c -0.359 0.543 -0.199 1.281 0.363 1.648 l 0.52 0.336 c 0.559 0.363 1.309 0.219 1.668 -0.328 l 7.09 -10.707 c 0.359 -0.547 0.199 -1.285 -0.363 -1.648 m 0 0" fill="#f9f9f9" stroke="none" fill-rule="evenodd" fill-opacity="1"/><path d="m 25.06 31.31 c 0.016 -0.203 -8.117 -5.496 -8.301 -5.402 c -0.18 0.102 -0.902 9.98 -0.738 10.09 c 0.168 0.105 9.03 -4.477 9.04 -4.688 m 0 0" fill="#f9f9f9" stroke="none" fill-rule="evenodd" fill-opacity="1"/></g></svg>