<!-- color: #474747 --><svg xmlns="http://www.w3.org/2000/svg" viewBox="0 0 48 48"><g><path d="m 14 12 c -0.844 0 -0.992 0.191 -1 1 l 0 22 c 0 0.809 0.156 1 1 1 l 20 0 c 0.844 0 1 -0.191 1 -1 l 0 -11.344 l -8.594 8.656 c -0.063 0.066 -0.199 0.09 -0.281 0.125 l -4.281 1.531 c -0.43 0.168 -0.977 -0.352 -0.813 -0.781 l 1.563 -4.313 c 0.035 -0.086 0.059 -0.188 0.125 -0.25 l 10.469 -10.469 c 0.098 -0.102 0.293 -0.145 0.438 -0.156 l 0.031 0 c 0 0 0.145 -0.004 0.25 0.031 c 0.105 0.035 0.246 0.094 0.406 0.188 c 0.184 0.109 0.418 0.297 0.688 0.531 l 0 -1.75 c 0 -0.809 -0.156 -1 -1 -1 l -13 0 l 0 -3 c 0 -0.809 -0.16 -1 -1 -1 m 15 6.75 l 0 4.906 l 1.875 -1.875 c 0.121 -0.129 0.152 -0.293 0.125 -0.469 c 0 0 0.008 -0.121 -0.031 -0.219 c -0.039 -0.105 -0.125 -0.246 -0.219 -0.406 c -0.188 -0.316 -0.5 -0.723 -1.094 -1.313 c -0.258 -0.258 -0.461 -0.457 -0.656 -0.625 m -21 -4.75 l 4 0 l -2 2 m -2 -2" fill="#f9f9f9" stroke="none" fill-rule="nonzero" fill-opacity="1"/></g></svg>