<!-- color: #80c4e2 --><svg xmlns="http://www.w3.org/2000/svg" viewBox="0 0 48 48"><g><path d="m 23.844 12.25 c -1.754 0 -3.188 1.434 -3.188 3.188 l -2.031 1.656 c -0.594 -0.457 -1.316 -0.75 -2.125 -0.75 c -1.949 0 -3.531 1.582 -3.531 3.531 c 0 1.242 0.652 2.34 1.625 2.969 l 0 2.656 c -0.973 0.629 -1.625 1.723 -1.625 2.969 c 0 1.949 1.582 3.531 3.531 3.531 c 0.73 0 1.406 -0.211 1.969 -0.594 l 2.156 1.375 c 0.082 1.707 1.492 3.063 3.219 3.063 c 1.652 0 3 -1.242 3.188 -2.844 l 2.094 -1.781 c 0.605 0.484 1.352 0.781 2.188 0.781 c 1.949 0 3.531 -1.582 3.531 -3.531 l 0 -0.125 c -0.059 -1.258 -0.77 -2.32 -1.781 -2.906 l 0.031 -2.531 c 1.039 -0.613 1.75 -1.738 1.75 -3.03 l 0 -0.156 c -0.078 -1.898 -1.645 -3.375 -3.531 -3.375 c -0.809 0 -1.527 0.297 -2.125 0.75 l -2.156 -1.625 l 0 -0.156 c -0.07 -1.703 -1.484 -3.063 -3.188 -3.063 m -1.906 5.719 c 0.527 0.398 1.191 0.625 1.906 0.625 c 0.703 0 1.348 -0.238 1.875 -0.625 l 1.813 1.563 l -2.063 1.469 c -0.488 -0.266 -1.039 -0.406 -1.625 -0.406 c -0.563 0 -1.066 0.145 -1.531 0.375 l -2.313 -1.406 c -0.004 -0.055 -0.023 -0.102 -0.031 -0.156 m 9.375 3.406 c 0.109 0.074 0.227 0.125 0.344 0.188 l 0.031 2.344 c -0.043 0.02 -0.086 0.039 -0.125 0.063 l -2.156 -1.219 m -9.03 -1.313 l 1.75 1.094 l -1.969 1.406 l -0.031 -2.406 c 0.074 -0.043 0.176 -0.047 0.25 -0.094 m 7.656 3.969 l 1.75 1.125 l 0 0.031 c -0.02 0.156 -0.031 0.309 -0.031 0.469 c 0 0.094 0.023 0.188 0.031 0.281 l -2.063 1.313 c -0.535 -0.398 -1.184 -0.656 -1.906 -0.656 c -0.754 0 -1.449 0.25 -2 0.688 l -1.844 -1.188 c 0.02 -0.145 0.031 -0.289 0.031 -0.438 l 0 -0.125 c -0.004 -0.129 -0.043 -0.25 -0.063 -0.375 l 1.688 -1.063 c 0.602 0.477 1.363 0.75 2.188 0.75 c 0.848 0 1.609 -0.316 2.219 -0.813 m 0 0" fill="#f9f9f9" stroke="none" fill-rule="nonzero" fill-opacity="1"/></g></svg>