<!-- color: #eeeeee --><svg xmlns="http://www.w3.org/2000/svg" viewBox="0 0 48 48"><g><path d="m 24.05 9 c -8.242 0 -15.05 6.707 -15.05 14.949 c 0 8.242 6.809 15.05 15.05 15.05 c 8.246 0 14.949 -6.805 14.949 -15.05 c 0 -8.242 -6.703 -14.949 -14.949 -14.949 m 0 2.93 c 6.66 0 12.02 5.363 12.02 12.02 c 0 6.656 -5.359 12.12 -12.02 12.12 c -6.656 0 -12.12 -5.465 -12.12 -12.12 c 0 -6.656 5.465 -12.02 12.12 -12.02 m 0 0" fill="#f9f9f9" stroke="none" fill-rule="nonzero" fill-opacity="1"/><path d="M 19 14 L 19 33.996094 L 33.996094 24 M 19 14 " fill="#f9f9f9" stroke="none" fill-rule="nonzero" fill-opacity="1"/></g></svg>