<!-- color: #474747 --><svg xmlns="http://www.w3.org/2000/svg" viewBox="0 0 48 48"><g><path d="m 14.156 11 c 0 0 -1.156 0.012 -1.156 1.094 l 0 23.813 c 0 0 0.004 1.094 1.156 1.094 l 20.688 0 c 0 0 1.156 -0.008 1.156 -1.094 l 0 -16.25 l -9.188 -8.656 c -4.273 -0.004 -10.05 0 -12.656 0 m 6.75 1.531 c 0.191 -0.035 0.391 0.082 0.594 0.281 c 0.273 0.273 0.352 0.695 0.406 1 c -0.059 -0.18 -0.168 -0.371 -0.281 -0.469 c -0.148 -0.289 -1.152 -0.949 -0.969 1.344 c 0.172 2.16 0.367 6.207 2.625 9.344 c 0.238 -0.582 0.438 -1.168 0.625 -1.75 c 1.285 -4 2.188 -8.156 2.188 -8.156 c 0 0 0.461 4.402 -2.156 10.688 c 2.719 3.059 7.492 4.547 8.75 4.656 c 0.961 0.082 1.285 -0.051 1.375 -0.125 c -0.066 0.102 -0.703 0.977 -3.063 0.5 c -2.461 -0.504 -5.758 -2.168 -7.469 -4.094 c -0.461 1.01 -0.988 2.059 -1.625 3.156 c -1.137 1.953 -2.082 3.355 -2.875 4.406 c 0.805 -0.359 1.863 -0.742 3.25 -1 c 3.34 -0.617 3.613 -0.766 7.25 -0.875 c 3.633 -0.109 4.055 0.34 4.344 0.875 c 0.336 0.52 -0.156 1.031 -0.156 1.031 c 0 0 -0.004 -0.391 -0.406 -0.719 c -0.406 -0.328 -1.977 -0.781 -6.563 -0.344 c -3.195 0.305 -6.438 1.137 -8.156 1.625 c -2.289 2.84 -3.16 2.211 -3.531 2 c -0.516 -0.289 -1.168 -1.23 1 -3.125 c 2.164 -1.891 3 -1.875 3 -1.875 c 0 0 -1.98 1.211 -2.75 2.375 c -0.773 1.164 -1.371 1.891 -1.188 2.219 c 0.184 0.328 2.395 -1.328 3.313 -2.75 c 1.141 -1.766 3.066 -4.746 4.469 -7.875 c -1.422 -2.152 -2.551 -5.668 -2.844 -7.313 c -0.332 -1.855 -0.156 -3.777 0.25 -4.469 c 0.203 -0.348 0.402 -0.527 0.594 -0.563 m 0 0" fill="#f9f9f9" stroke="none" fill-rule="nonzero" fill-opacity="1"/></g></svg>