<!-- color: #5d5d5d --><svg xmlns="http://www.w3.org/2000/svg" viewBox="0 0 48 48"><g><path d="m 29 21 c 0 0 -0.754 -3.098 -4.04 -3.191 c -3.281 -0.094 -4.965 2.473 -4.965 6.137 c 0 3.664 1.863 6.598 5.05 6.598 c 3.188 0 3.938 -3.543 3.938 -3.543 l 5.996 0 c 0 0 0.086 3.543 -2.477 6.082 c -2.563 2.523 -5.703 2.938 -7.898 2.918 c -2.188 -0.02 -5.227 0.035 -8.18 -2.973 c -2.945 -3 -3.445 -5.93 -3.445 -8.793 c 0 -2.871 0.566 -6.672 4.066 -9.555 c 2.375 -1.961 4.789 -2.68 7.191 -2.68 c 10.07 0 10.734 9 10.734 9 l -5.996 0 m 0.008 0" fill="#f9f9f9" stroke="none" fill-rule="nonzero" fill-opacity="1"/></g></svg>