<!-- color: #eeeeee --><svg xmlns="http://www.w3.org/2000/svg" viewBox="0 0 48 48"><g><path d="m 23.98 14.316 c -4.207 0 -7.609 3.227 -7.609 7.211 c 0 3.988 3.402 7.234 7.609 7.234 c 4.207 0 7.613 -3.246 7.613 -7.234 c 0 -3.984 -3.406 -7.211 -7.613 -7.211 m 0 5.887 c 0.777 0 1.398 0.59 1.398 1.324 c 0 0.734 -0.625 1.344 -1.398 1.344 c -0.773 0 -1.395 -0.609 -1.395 -1.344 c 0 -0.73 0.621 -1.324 1.395 -1.324 m 0 0" fill="#f9f9f9" stroke="none" fill-rule="nonzero" fill-opacity="1"/><path d="m 15.188 11 c -1.203 0 -2.188 0.992 -2.188 2.188 l 0 21.625 c 0 1.199 0.988 2.188 2.188 2.188 l 17.625 0 c 1.195 0 2.188 -0.988 2.188 -2.188 l 0 -21.625 c 0 -1.199 -0.988 -2.188 -2.188 -2.188 m -17.625 1.688 l 17.625 0 c 0.262 0 0.5 0.23 0.5 0.5 l 0 21.625 c 0 0.285 -0.234 0.5 -0.5 0.5 l -17.625 0 c -0.285 0 -0.5 -0.215 -0.5 -0.5 l 0 -21.625 c 0 -0.273 0.219 -0.5 0.5 -0.5 m 0 0" fill="#f9f9f9" stroke="none" fill-rule="nonzero" fill-opacity="1"/><path d="m 26.563 29.672 l 3.422 4.055 l 1.711 0 l 0 -1.621 m -5.133 -2.434" fill="#f9f9f9" stroke="none" fill-rule="nonzero" fill-opacity="1"/></g></svg>