<!-- color: #a5cfef --><svg xmlns="http://www.w3.org/2000/svg" viewBox="0 0 48 48"><g><path d="m 24 14 c -2.32 0 -4.637 1.809 -5.563 5.406 c -11.145 0 -7.434 10.793 -3.719 12.594 l 18.563 0 c 3.715 -1.801 7.422 -12.594 -3.719 -12.594 c -0.93 -3.598 -3.242 -5.406 -5.563 -5.406 m -1.75 7 c 0.07 -0.012 0.156 0.02 0.219 0.063 l 5.406 3.656 c 0.168 0.125 0.168 0.441 0 0.563 l -5.406 3.688 c -0.184 0.125 -0.469 -0.043 -0.469 -0.281 l 0 -7.344 c -0.004 -0.16 0.109 -0.316 0.25 -0.344 m 0 0" fill="#f9f9f9" stroke="none" fill-rule="nonzero" fill-opacity="1"/></g></svg>