<!-- color: #eeeeee --><svg xmlns="http://www.w3.org/2000/svg" viewBox="0 0 48 48"><g><path d="m 27.688 12 c -2.125 0 -4.258 0.688 -5.875 2.313 c -3.234 3.242 -3.234 8.539 0 11.781 c 3.234 3.242 8.512 3.242 11.75 0 c 3.234 -3.242 3.234 -8.539 0 -11.781 c -1.617 -1.625 -3.75 -2.313 -5.875 -2.313 m 0 1.438 c 1.746 0 3.539 0.664 4.875 2 c 2.672 2.68 2.672 6.98 0 9.656 c -2.672 2.68 -6.949 2.68 -9.625 0 c -2.672 -2.676 -2.672 -6.98 0 -9.656 c 1.336 -1.336 3 -2 4.75 -2 m -6.563 12.03 l -4.344 4.344 l 1.375 1.406 l 4.375 -4.375 m -6.156 2.813 l -4.375 4.375 l 1.969 1.969 l 4.375 -4.375 m -1.969 -1.969" fill="#f9f9f9" stroke="none" fill-rule="nonzero" fill-opacity="1"/></g></svg>