<!-- color: #f8a348 --><svg xmlns="http://www.w3.org/2000/svg" viewBox="0 0 48 48"><g><path d="m 11 14 l 8 0 l 0 6 l -8 0 m 0 -6" fill="#f9f9f9" stroke="none" fill-rule="nonzero" fill-opacity="1"/><path d="m 11 23 l 8 0 l 0 6 l -8 0 m 0 -6" fill="#f9f9f9" stroke="none" fill-rule="nonzero" fill-opacity="1"/><path d="m 11 31.996 l 26 0 l 0 2 l -26 0 m 0 -2" fill="#f9f9f9" stroke="none" fill-rule="nonzero" fill-opacity="1"/><path d="m 30 14 l 0 7 l 7 0 c 0 -3.863 -3.133 -7 -7 -7 m 0 0" fill="#f9f9f9" stroke="none" fill-rule="nonzero" fill-opacity="1"/><path d="m 28.988 15 c -3.867 0 -7 3.133 -7 7 c 0 3.867 3.129 7 7 7 c 3.867 0 7 -3.133 7 -7 l -7 0 m 0 -7" fill="#f9f9f9" stroke="none" fill-rule="nonzero" fill-opacity="1"/></g></svg>