<!-- color: #eeeeee --><svg xmlns="http://www.w3.org/2000/svg" viewBox="0 0 48 48"><g><path d="m 24 9 c -2.754 0 -5 2.246 -5 5 c 0 2.754 2.246 5 5 5 c 2.676 0 4.813 -2.137 4.938 -4.781 c 0.012 -0.012 0.02 -0.02 0.031 -0.031 c 0 -0.012 0 -0.02 0 -0.031 c 0.012 -0.031 0.023 -0.063 0.031 -0.094 c 0 -0.012 0 -0.02 0 -0.031 c 0 -0.012 0 -0.02 0 -0.031 c 0 -0.02 0 -0.043 0 -0.063 c -0.008 -0.031 -0.02 -0.063 -0.031 -0.094 c 0 -0.035 -0.031 -0.059 -0.031 -0.094 c -0.141 -2.633 -2.273 -4.75 -4.938 -4.75 m -10 10 c -2.754 0 -5 2.242 -5 5 c 0 2.754 2.246 5 5 5 c 2.656 0 4.781 -2.102 4.938 -4.719 c 0.012 -0.031 0.023 -0.063 0.031 -0.094 c 0 -0.012 0 -0.02 0 -0.031 c 0 -0.012 0 -0.02 0 -0.031 c 0.012 -0.031 0.023 -0.063 0.031 -0.094 c 0 -0.012 0 -0.02 0 -0.031 c 0 -0.02 0 -0.043 0 -0.063 c -0.008 -0.031 -0.02 -0.063 -0.031 -0.094 c 0 -0.012 0 -0.02 0 -0.031 c 0 -0.012 0 -0.02 0 -0.031 c -0.012 -0.012 -0.02 -0.02 -0.031 -0.031 c -0.141 -2.633 -2.273 -4.75 -4.938 -4.75 m 20 0 c -2.75 0 -5 2.242 -5 5 c 0 2.75 2.25 5 5 5 c 2.66 0 4.781 -2.105 4.938 -4.719 c 0.012 -0.031 0.023 -0.063 0.031 -0.094 c 0 -0.012 0 -0.02 0 -0.031 c 0 -0.012 0 -0.02 0 -0.031 c 0.012 -0.031 0.023 -0.063 0.031 -0.094 c 0 -0.012 0 -0.02 0 -0.031 c 0 -0.012 0 -0.02 0 -0.031 c -0.004 -0.043 -0.016 -0.086 -0.031 -0.125 c 0 -0.012 0 -0.02 0 -0.031 c 0 -0.012 0 -0.02 0 -0.031 c -0.012 -0.012 -0.02 -0.02 -0.031 -0.031 c -0.141 -2.633 -2.27 -4.75 -4.938 -4.75 m -10 2 c -1.652 0 -3 1.348 -3 3 c 0 1.652 1.348 3 3 3 c 1.539 0 2.711 -1.223 2.875 -2.719 c 0 -0.012 0 -0.02 0 -0.031 c 0 -0.004 0.031 0.004 0.031 0 c 0.027 -0.039 0.051 -0.078 0.063 -0.125 c 0.016 -0.031 0.023 -0.063 0.031 -0.094 c 0 -0.012 0 -0.02 0 -0.031 c 0 -0.012 0 -0.02 0 -0.031 c -0.008 -0.082 -0.039 -0.156 -0.094 -0.219 c -0.004 -0.023 -0.027 -0.039 -0.031 -0.063 c -0.18 -1.484 -1.348 -2.688 -2.875 -2.688 m 0 0.75 c 1.23 0 2.234 0.988 2.25 2.219 c 0 0.012 0 0.02 0 0.031 c 0 0.012 0 0.02 0 0.031 c -0.016 1.227 -1.02 2.219 -2.25 2.219 c -1.246 0 -2.25 -1.012 -2.25 -2.25 c 0 -1.246 1 -2.25 2.25 -2.25 m 0 7.25 c -2.754 0 -5 2.25 -5 5 c 0 2.758 2.246 5 5 5 c 2.676 0 4.813 -2.133 4.938 -4.781 c 0.012 -0.012 0.02 -0.02 0.031 -0.031 c 0 -0.012 0 -0.02 0 -0.031 c 0.012 -0.031 0.023 -0.063 0.031 -0.094 c 0 -0.012 0 -0.02 0 -0.031 c 0 -0.012 0 -0.02 0 -0.031 c 0 -0.02 0 -0.043 0 -0.063 c -0.008 -0.031 -0.02 -0.063 -0.031 -0.094 c 0 -0.035 -0.031 -0.059 -0.031 -0.094 c -0.141 -2.629 -2.273 -4.75 -4.938 -4.75 m 0 0" fill="#f9f9f9" stroke="none" fill-rule="nonzero" fill-opacity="1"/></g></svg>