<!-- color: #d8d8d8 --><svg xmlns="http://www.w3.org/2000/svg" viewBox="0 0 48 48"><g><path d="m 24 10 l -14 14 l 14 14 l 14 -14 m -15 -8 l 2 0 l 0 1.719 c 1.355 0.031 2.398 0.277 3.656 0.719 l -0.594 1.25 c -1.098 -0.375 -1.926 -0.59 -3.063 -0.656 l 0 4.125 c 1.156 0.32 1.738 0.629 2.313 0.938 c 0.574 0.297 1.01 0.668 1.281 1.063 c 0.277 0.391 0.406 0.844 0.406 1.406 c 0 0.867 -0.375 1.59 -1.125 2.156 c -0.75 0.559 -1.527 0.914 -2.875 1.063 l 0 2.219 l -2 0 l 0 -2.125 c -0.824 0 -1.32 -0.047 -2.094 -0.156 c -0.773 -0.113 -1.41 -0.27 -1.906 -0.469 l 0 -1.5 c 0.613 0.238 1.328 0.414 2.125 0.563 c 0.801 0.148 1.219 0.25 1.875 0.25 l 0 -4.219 c -1.508 -0.414 -2.266 -0.891 -2.875 -1.438 c -0.605 -0.547 -0.906 -1.258 -0.906 -2.125 c 0 -0.832 0.352 -1.527 1.094 -2.063 c 0.75 -0.535 1.457 -0.855 2.688 -0.969 m 0 1.313 c -0.727 0.102 -0.996 0.297 -1.375 0.594 c -0.375 0.297 -0.563 0.648 -0.563 1.094 c 0 0.484 0.172 0.863 0.5 1.156 c 0.332 0.293 0.625 0.582 1.438 0.844 m 2 1.969 l 0 3.75 c 1.602 -0.191 2.125 -0.801 2.125 -1.781 c 0 -0.457 -0.168 -0.813 -0.5 -1.094 c -0.32 -0.289 -0.684 -0.594 -1.625 -0.875 m 0 0" fill="#f9f9f9" stroke="none" fill-rule="nonzero" fill-opacity="1"/></g></svg>