<!-- color: #474747 --><svg xmlns="http://www.w3.org/2000/svg" viewBox="0 0 48 48"><g><path d="m 23.996 14 c -5.52 0 -9.996 1.398 -9.996 3.125 l 0 2.5 c 0 1.723 4.477 3.121 9.996 3.121 c 5.523 0 10 -1.398 10 -3.121 l 0 -2.5 c 0 -1.727 -4.477 -3.125 -10 -3.125 m 0 0" fill="#f9f9f9" stroke="none" fill-rule="nonzero" fill-opacity="1"/><path d="m 23.965 24 c -4.477 0 -8.25 -0.918 -9.523 -2.188 c -0.297 0.297 -0.445 0.613 -0.445 0.938 l 0 2.5 c 0 1.727 4.477 3.125 10 3.125 c 5.523 0 10 -1.398 10 -3.125 l 0 -2.5 c 0 -0.324 -0.176 -0.641 -0.473 -0.938 c -1.273 1.27 -5.082 2.188 -9.559 2.188 m 0 0" fill="#f9f9f9" stroke="none" fill-rule="nonzero" fill-opacity="1"/><path d="m 23.965 29.625 c -4.477 0 -8.25 -0.918 -9.523 -2.188 c -0.297 0.297 -0.445 0.613 -0.445 0.938 l 0 2.5 c 0 1.727 4.477 3.125 10 3.125 c 5.523 0 10 -1.398 10 -3.125 l 0 -2.5 c 0 -0.324 -0.176 -0.641 -0.473 -0.938 c -1.273 1.27 -5.082 2.188 -9.559 2.188 m 0 0" fill="#f9f9f9" stroke="none" fill-rule="nonzero" fill-opacity="1"/><path d="m 28 33 l 0 -12 l 12 6 m -12 6" fill="#f9f9f9" stroke="none" fill-rule="nonzero" fill-opacity="1"/></g></svg>