<!-- color: #474747 --><svg xmlns="http://www.w3.org/2000/svg" viewBox="0 0 48 48"><g><path d="m 14.156 11 c 0 0 -1.156 0.012 -1.156 1.094 l 0 23.813 c 0 0 0.004 1.094 1.156 1.094 l 20.688 0 c 0 0 1.156 -0.008 1.156 -1.094 l 0 -16.25 l -9.188 -8.656 c -4.273 -0.004 -10.05 0 -12.656 0 m 8.531 2.281 c 0.262 0.004 0.527 0.047 0.781 0.156 l 1.844 0.813 c 1.012 0.449 1.441 1.613 1 2.625 l -1.563 3.563 l 3.406 4.188 c 0.34 0.422 0.48 0.938 0.438 1.438 c 0.391 0.457 0.574 1.051 0.438 1.688 l -1.219 5.875 c -0.23 1.086 -1.289 1.793 -2.375 1.563 l -1.969 -0.438 c -1.082 -0.23 -1.762 -1.258 -1.531 -2.344 l 0.969 -4.719 l -3.188 -3.938 c -0.301 -0.371 -0.438 -0.809 -0.438 -1.25 c -0.891 -0.496 -1.258 -1.574 -0.844 -2.531 l 2.406 -5.5 c 0.336 -0.762 1.063 -1.199 1.844 -1.188 m 0.25 1.656 c -0.391 -0.004 -0.77 0.215 -0.938 0.594 l -2 4.594 c -0.125 0.273 -0.117 0.559 0 0.813 l 1.563 -1.25 c 0.594 -0.484 1.375 -0.586 2.031 -0.313 l 1.156 -2.625 c 0.223 -0.508 0.008 -1.121 -0.5 -1.344 l -0.938 -0.375 c -0.125 -0.055 -0.246 -0.094 -0.375 -0.094 m -0.094 6 c -0.254 -0.027 -0.5 0.043 -0.719 0.219 l -0.75 0.625 l 0.063 0.031 c 0.508 0.223 1.086 0.008 1.313 -0.5 l 0.156 -0.344 c -0.023 -0.004 -0.039 -0.027 -0.063 -0.031 m 1.25 1.063 l -0.188 0.375 c -0.43 0.984 -1.543 1.441 -2.531 1.063 l 2.031 2.5 c 0.418 -0.73 1.254 -1.152 2.125 -0.969 l 1.156 0.25 c -0.008 -0.008 0.008 -0.023 0 -0.031 m -1.375 1.375 c -0.359 0.07 -0.645 0.32 -0.75 0.688 c 0.359 0.254 0.828 0.262 1.188 -0.031 l 0.656 -0.531 l -0.688 -0.125 c -0.137 -0.027 -0.277 -0.023 -0.406 0 m 2.156 1.219 l -1.156 0.938 c -0.629 0.508 -1.453 0.578 -2.125 0.25 l -0.688 3.25 c -0.113 0.543 0.242 1.074 0.781 1.188 l 0.969 0.188 c 0.543 0.113 1.074 -0.207 1.188 -0.75 l 1.031 -4.906 c 0.012 -0.051 -0.004 -0.105 0 -0.156 m 0 0" fill="#f9f9f9" stroke="none" fill-rule="nonzero" fill-opacity="1"/></g></svg>