<!-- color: #77547f --><svg xmlns="http://www.w3.org/2000/svg" viewBox="0 0 48 48"><g><path d="m 14.688 12 c -0.227 0.02 -0.438 0.074 -0.656 0.156 c -1.754 0.668 -2.531 3.172 -1.719 5.563 c 0.809 2.395 2.902 3.793 4.656 3.125 c 1.754 -0.668 2.531 -3.172 1.719 -5.563 c -0.711 -2.094 -2.418 -3.43 -4 -3.281 m 1.125 2.938 c 0.18 -0.016 0.352 -0.004 0.531 0.031 c 0.719 0.137 1.309 0.645 1.531 1.344 c 0.273 0.676 0.152 1.465 -0.313 2.031 c -0.469 0.563 -1.188 0.824 -1.906 0.688 c -0.719 -0.141 -1.309 -0.645 -1.531 -1.344 c -0.273 -0.68 -0.152 -1.465 0.313 -2.031 c 0.348 -0.426 0.84 -0.676 1.375 -0.719 m 0 0" fill="#f9f9f9" stroke="none" fill-rule="nonzero" fill-opacity="1"/><path d="m 15.906 15.969 c -0.266 0.023 -0.512 0.137 -0.688 0.344 c -0.234 0.285 -0.293 0.695 -0.156 1.031 c 0.109 0.352 0.387 0.59 0.75 0.656 c 0.359 0.07 0.734 -0.031 0.969 -0.313 c 0.234 -0.285 0.293 -0.691 0.156 -1.031 c -0.109 -0.348 -0.387 -0.617 -0.75 -0.688 c -0.09 -0.016 -0.191 -0.008 -0.281 0 m 0.344 0.75 c 0.082 -0.031 0.16 -0.016 0.25 0 c 0.18 0.035 0.32 0.168 0.375 0.344 c 0.07 0.168 0.055 0.359 -0.063 0.5 c -0.117 0.141 -0.289 0.191 -0.469 0.156 c -0.18 -0.035 -0.348 -0.168 -0.406 -0.344 c -0.066 -0.168 -0.02 -0.359 0.094 -0.5 c 0.059 -0.07 0.137 -0.125 0.219 -0.156 m 0 0" fill="#f9f9f9" stroke="none" fill-rule="nonzero" fill-opacity="1"/><path d="m 31.688 13 c -0.387 -0.035 -0.762 0.035 -1.125 0.188 c -1.445 0.617 -1.992 2.609 -1.188 4.438 c 0.801 1.832 2.648 2.805 4.094 2.188 c 1.449 -0.613 1.957 -2.605 1.156 -4.438 c -0.605 -1.375 -1.773 -2.27 -2.938 -2.375 m 0.313 1.438 c 0.266 0 0.547 0.078 0.781 0.219 c 0.469 0.281 0.738 0.793 0.719 1.344 c 0.02 0.547 -0.25 1.063 -0.719 1.344 c -0.473 0.277 -1.059 0.277 -1.531 0 c -0.473 -0.281 -0.773 -0.797 -0.75 -1.344 c -0.023 -0.551 0.277 -1.063 0.75 -1.344 c 0.234 -0.141 0.484 -0.219 0.75 -0.219 m 0 0" fill="#f9f9f9" stroke="none" fill-rule="nonzero" fill-opacity="1"/><path d="m 32 15.219 c -0.133 0 -0.254 0.023 -0.375 0.094 c -0.234 0.141 -0.387 0.414 -0.375 0.688 c -0.012 0.273 0.141 0.547 0.375 0.688 c 0.238 0.141 0.512 0.141 0.75 0 c 0.031 -0.016 0.035 -0.074 0.063 -0.094 c -0.121 0.07 -0.254 0.07 -0.375 0 c -0.117 -0.07 -0.195 -0.207 -0.188 -0.344 c -0.008 -0.137 0.07 -0.242 0.188 -0.313 c 0.121 -0.07 0.254 -0.07 0.375 0 c 0.117 0.07 0.195 0.176 0.188 0.313 c 0.008 0.137 -0.07 0.273 -0.188 0.344 c 0.184 -0.148 0.324 -0.355 0.313 -0.594 c 0.012 -0.273 -0.141 -0.547 -0.375 -0.688 c -0.121 -0.07 -0.242 -0.094 -0.375 -0.094 m 0 0" fill="#f9f9f9" stroke="none" fill-rule="nonzero" fill-opacity="1"/><path d="m 23.813 21 c -0.461 0.016 -1.285 0.234 -2.75 1.563 c -1.953 1.77 -2.063 3.438 -2.063 3.438 c 0.289 0.145 0.563 0.371 0.844 0.625 c 0.32 3.02 1.578 4.375 4.156 4.375 c 2.398 0 3.152 -1.191 4.03 -4.281 c 0.32 -0.309 0.656 -0.594 0.969 -0.75 c 0 0 -0.113 -1.637 -2.063 -3.406 c -1.465 -1.324 -2.289 -1.547 -2.75 -1.563 c -0.09 0 -0.188 -0.008 -0.25 0 c -0.047 -0.004 -0.07 0 -0.125 0 m 0 0" fill="#f9f9f9" stroke="none" fill-rule="nonzero" fill-opacity="1"/></g></svg>