<!-- color: #ab8746 --><svg xmlns="http://www.w3.org/2000/svg" viewBox="0 0 48 48"><g><path d="m 22 34 l 0 -2 c -3.535 0.496 -5.523 -0.484 -8 -1 c 1.797 -1.535 4.113 -2.555 5 -5 c -1.043 -0.172 -2.18 0.012 -3 -1 c 1.961 -1.152 3.883 -2.328 5 -4 c -1.219 -0.129 -2.438 -0.262 -3 -1 c 2.992 -1.691 4.508 -3.84 6 -6 c 1.363 2.16 2.66 4.352 5 6 c -0.102 0.656 -0.895 0.918 -2 1 c 1.109 1.801 3.047 2.902 5 4 c -0.977 0.246 -1.977 1.281 -3 1 c 1.043 2.367 3.215 3.07 5 5 c -2.242 0.449 -3.504 1.168 -8 1 l 0 2 m -4 0" fill="#f9f9f9" stroke="none" fill-rule="nonzero" fill-opacity="1"/></g></svg>