<!-- color: #eeeeee --><svg xmlns="http://www.w3.org/2000/svg" viewBox="0 0 48 48"><g><path d="m 24 12 l -10 6 l 0 12 l 10 6 l 10 -6 l 0 -12 m -6.563 0 l 0.031 0 c 0 0 0.109 0.004 0.188 0.031 c 0.082 0.027 0.191 0.051 0.313 0.125 c 0.242 0.137 0.57 0.418 1.031 0.875 c 0.445 0.445 0.668 0.762 0.813 1 c 0.07 0.121 0.129 0.203 0.156 0.281 c 0.027 0.074 0.031 0.156 0.031 0.156 c 0.023 0.137 0 0.277 -0.094 0.375 l -7.844 7.875 c -0.047 0.051 -0.156 0.07 -0.219 0.094 l -3.219 1.156 c -0.324 0.125 -0.715 -0.238 -0.594 -0.563 l 1.156 -3.25 c 0.023 -0.063 0.043 -0.141 0.094 -0.188 l 7.875 -7.844 c 0.066 -0.066 0.18 -0.109 0.281 -0.125 m 0 0" fill="#f9f9f9" stroke="none" fill-rule="nonzero" fill-opacity="1"/></g></svg>