<!-- color: #eeeeee --><svg xmlns="http://www.w3.org/2000/svg" viewBox="0 0 48 48"><g><path d="m 24 12 l -10 6 l 0 12 l 10 6 l 10 -6 l 0 -12 m -10.75 -2 l 1.5 0 l 0 11.09 c 1.01 0.191 1.75 0.738 1.75 1.406 c 0 0.668 -0.742 1.215 -1.75 1.406 l 0 2.094 l -1.5 0 l 0 -2.094 c -1.01 -0.191 -1.75 -0.738 -1.75 -1.406 c 0 -0.668 0.742 -1.215 1.75 -1.406 m -5.5 -10.09 l 1.5 0 l 0 3.094 c 1.01 0.191 1.75 0.738 1.75 1.406 c 0 0.668 -0.742 1.215 -1.75 1.406 l 0 8.094 l -1.5 0 l 0 -8.094 c -1.01 -0.191 -1.75 -0.738 -1.75 -1.406 c 0 -0.668 0.742 -1.215 1.75 -1.406 m 11 -3.094 l 1.5 0 l 0 3.094 c 1.01 0.191 1.75 0.738 1.75 1.406 c 0 0.668 -0.742 1.215 -1.75 1.406 l 0 8.094 l -1.5 0 l 0 -8.094 c -1.01 -0.191 -1.75 -0.738 -1.75 -1.406 c 0 -0.668 0.742 -1.215 1.75 -1.406 m 0 -3.094" fill="#f9f9f9" stroke="none" fill-rule="nonzero" fill-opacity="1"/></g></svg>