<!-- color: #619f2b --><svg xmlns="http://www.w3.org/2000/svg" viewBox="0 0 48 48"><g><path d="m 23.25 9.03 c -1.234 0.008 -2.387 0.668 -2.938 1.813 c -0.805 1.664 -0.035 3.699 1.719 4.594 c 1.754 0.895 3.852 0.289 4.656 -1.375 c 0.805 -1.664 0.035 -3.73 -1.719 -4.625 c -0.547 -0.277 -1.156 -0.406 -1.719 -0.406 m -0.719 1.656 c 0.43 0.004 0.863 0.125 1.281 0.375 c 1.105 0.672 1.555 2 1 2.969 c -0.559 0.965 -1.891 1.203 -3 0.531 c -0.105 -0.063 -0.188 -0.145 -0.281 -0.219 c -0.031 -0.023 -0.066 -0.039 -0.094 -0.063 c -0.07 -0.063 -0.125 -0.152 -0.188 -0.219 c -0.664 -0.715 -0.883 -1.695 -0.438 -2.469 c 0.348 -0.602 1 -0.918 1.719 -0.906 m 0 0" fill="#f9f9f9" stroke="none" fill-rule="nonzero" fill-opacity="1"/><path d="m 19.03 22.996 c -3.73 1.949 -8.09 4.891 -6.801 7.551 c 1.75 3.59 10.227 4.688 14.574 2.848 c -2.133 -2.316 -8.574 -5.637 -7.98 -9.516 c 0.047 -0.305 0.121 -0.598 0.203 -0.887 m 0 0.004" fill="#f9f9f9" stroke="none" fill-rule="nonzero" fill-opacity="1"/><path d="m 28.08 17.07 c -2.934 -0.781 -7.73 2.277 -8.438 6.543 c -0.707 4.266 7.727 7.867 9.102 10.184 c 1.367 2.316 0.66 5.195 0.66 5.195 c 0 0 5.953 -4.836 6.555 -11.238 c 0.605 -6.398 -4.852 -9.875 -7.867 -10.68 m -0.004 -0.004" fill="#f9f9f9" stroke="none" fill-rule="nonzero" fill-opacity="1"/></g></svg>