<!-- color: #eeeeee --><svg xmlns="http://www.w3.org/2000/svg" viewBox="0 0 48 48"><g><path d="m 24 12 c -7.168 0 -13 5.836 -13 13 c 0 7.168 5.832 13 13 13 c 7.07 0 12.816 -5.684 12.969 -12.719 c 0 -0.012 0 -0.02 0 -0.031 c 0 -0.031 0.031 -0.063 0.031 -0.094 c 0.004 -0.051 0.004 -0.105 0 -0.156 c 0 -0.031 0 -0.063 0 -0.094 c -0.004 -0.063 -0.016 -0.125 -0.031 -0.188 c -0.152 -7.04 -5.895 -12.719 -12.969 -12.719 m 0 2 c 6.066 0 10.965 4.883 11 10.938 c 0 0.02 0 0.043 0 0.063 c 0 6.09 -4.91 11 -11 11 c -6.09 0 -11 -4.91 -11 -11 c 0 -6.086 4.91 -11 11 -11 m 0 0" fill="#f9f9f9" stroke="none" fill-rule="nonzero" fill-opacity="1"/><path d="m 23.875 17.656 c -0.516 0.066 -0.895 0.512 -0.875 1.031 l 0 6.438 l 0.281 0.281 l 5.406 5.469 c 0.242 0.297 0.629 0.434 1 0.348 c 0.371 -0.086 0.664 -0.379 0.75 -0.75 c 0.086 -0.375 -0.051 -0.762 -0.348 -1 l -5.094 -5.188 l 0 -5.594 c 0.012 -0.293 -0.105 -0.578 -0.324 -0.777 c -0.215 -0.199 -0.508 -0.289 -0.801 -0.254 m 0 0" fill="#f9f9f9" stroke="none" fill-rule="nonzero" fill-opacity="1"/><path d="m 15.02 17.293 l 1.34 -1.344 l -2.344 -2.414 l -1.344 1.41 m 2.348 2.348" fill="#f9f9f9" stroke="none" fill-rule="nonzero" fill-opacity="1"/><path d="m 19 11 c 2.359 -1.168 6.586 -1.211 9 0 c -3.656 -4 -5.379 -4 -9 0 m 0 0" fill="#f9f9f9" stroke="none" fill-rule="nonzero" fill-opacity="1"/></g></svg>