<!-- color: #1abc95 --><svg xmlns="http://www.w3.org/2000/svg" viewBox="0 0 48 48"><g><path d="m 17.938 16.969 c -0.227 0 -0.453 0.078 -0.625 0.25 l -0.063 0.063 c -0.348 0.344 -0.348 0.906 0 1.25 l 3.375 3.375 c -0.375 0.609 -0.625 1.324 -0.625 2.094 c 0 1.277 0.602 2.395 1.531 3.125 l -4.969 9.156 c -0.117 0.215 -0.055 0.496 0.156 0.625 l 0.063 0.031 c 0.211 0.125 0.477 0.059 0.594 -0.156 l 4.969 -9.156 c 0.504 0.23 1.063 0.375 1.656 0.375 c 1.863 0 3.398 -1.273 3.844 -3 l 9.281 0 c 0.492 0 0.875 -0.387 0.875 -0.875 l 0 -0.25 c 0 -0.492 -0.383 -0.875 -0.875 -0.875 l -9.281 0 c -0.445 -1.727 -1.98 -3 -3.844 -3 c -0.754 0 -1.461 0.23 -2.063 0.594 l -3.375 -3.375 c -0.176 -0.172 -0.398 -0.25 -0.625 -0.25 m 6.06 5.03 c 1.105 0 2 0.895 2 2 c 0 1.105 -0.895 2 -2 2 c -1.105 0 -2 -0.895 -2 -2 c 0 -1.105 0.895 -2 2 -2 m 0 0" fill="#f9f9f9" stroke="none" fill-rule="nonzero" fill-opacity="1"/></g></svg>