<!-- color: #eeeeee --><svg xmlns="http://www.w3.org/2000/svg" viewBox="0 0 48 48"><g><path d="m 24 9 c -8.285 0 -15 6.715 -15 15 c 0 8.285 6.715 15 15 15 c 8.285 0 15 -6.715 15 -15 c 0 -8.285 -6.715 -15 -15 -15 m 1.906 3.094 l 3 1 l -3 1 m -6 -1 l 1 2 l -1 -1 m -4 3 l 4 1 l -4 1 m 17 -2 l 2 3 l -3 1 m -8 -3 l 3 1 l -2 2 m -13 1 l 1 0 l 0 4 m 4 -4 l 2 1 l -2 3 m 13 -2.031 l 0 1 l -1 2 l -2 -2 m 7 -1 l 2 2.031 l -3 1 l -1 1.969 m -9 -2.969 l 2 3 l -3 1 l 0 -2 m -3 0 l 0 1.969 l -3 0 l -1 -1 m 14 2.031 l 3 2 l -2 2 l -3 -2 m -8 -0.031 l 2 0 l 2 1 l -1 1 m -3 -2" fill="#f9f9f9" stroke="none" fill-rule="nonzero" fill-opacity="1"/></g></svg>