<!-- color: #61ced7 --><svg xmlns="http://www.w3.org/2000/svg" viewBox="0 0 48 48"><g><path d="m 16.875 11 c -0.492 0 -0.875 0.34 -0.875 0.781 l 0 5.219 l -3.219 0 c -0.98 0 -1.781 0.801 -1.781 1.781 l 0 12.438 c 0 0.98 0.801 1.781 1.781 1.781 l 3.219 0 l 0 3.219 c 0 0.43 0.383 0.781 0.875 0.781 l 14.25 0 c 0.492 0 0.875 -0.352 0.875 -0.781 l 0 -3.219 l 3.219 0 c 0.98 0 1.781 -0.801 1.781 -1.781 l 0 -12.438 c 0 -0.98 -0.801 -1.781 -1.781 -1.781 l -3.219 0 l 0 -3.313 l -3 -2.688 m -10 1 l 9 0 l 0 1 l -9 0 m 0 1 l 9 0 l 0 1 l -9 0 m 0 1 l 9 0 l 0 1 l -9 0 m 0 1 l 6 0 l 0 1 l -6 0 m -4 1 l 18 0 l 0 2 l -18 0 m 0 6 l 18 0 l 0 2 l -18 0 m 0 -2" fill="#f9f9f9" stroke="none" fill-rule="nonzero" fill-opacity="1"/></g></svg>