<!-- color: #eeeeee --><svg xmlns="http://www.w3.org/2000/svg" viewBox="0 0 48 48"><g><path d="m 23.844 12 c -0.961 0 -1.895 0.07 -2.719 0.219 c -1.223 0.215 -2.043 0.559 -2.563 1.156 c -0.52 0.598 -0.625 1.383 -0.625 2.219 l 0 2.25 l -1.563 0 c -1.816 0 -3.469 1.164 -3.969 3.188 c -0.508 2.137 -0.543 3.586 0 5.813 c 0.215 0.875 0.582 1.668 1.156 2.25 c 0.574 0.582 1.352 0.938 2.281 0.938 l 2.156 0 l 0 -3.313 c 0 -1.488 1.348 -2.875 2.938 -2.875 l 5.813 0 c 1.816 0 3.5 -1.449 3.5 -3.313 l 0 -4.938 c 0 -0.918 -0.449 -1.711 -1.094 -2.281 c -0.645 -0.57 -1.469 -0.953 -2.313 -1.094 c -0.977 -0.16 -1.996 -0.223 -2.969 -0.219 c -0.012 0 -0.02 0 -0.031 0 m 0 1.063 c 0.012 0 0.02 0 0.031 0 c 0.918 -0.004 1.871 0.039 2.781 0.188 c 0.648 0.105 1.336 0.422 1.813 0.844 c 0.477 0.422 0.75 0.934 0.75 1.5 l 0 4.938 c 0 1.191 -1.23 2.25 -2.469 2.25 l -5.813 0 c -2.184 0 -3.969 1.832 -3.969 3.938 l 0 2.25 l -1.125 0 c -0.68 0 -1.137 -0.223 -1.531 -0.625 c -0.395 -0.402 -0.727 -1.01 -0.906 -1.75 c -0.52 -2.125 -0.453 -3.262 0.031 -5.313 l -0.031 0 c 0.398 -1.609 1.566 -2.375 2.969 -2.375 l 8.125 0 l 0 -1.75 l -5.531 0 l 0 -1.563 c 0 -0.742 0.125 -1.176 0.406 -1.5 c 0.281 -0.324 0.824 -0.617 1.938 -0.813 c 0.758 -0.137 1.629 -0.219 2.531 -0.219 m -2.969 0.625 c -0.852 0 -1.563 0.703 -1.563 1.563 c 0 0.859 0.703 1.563 1.563 1.563 c 0.859 0 1.563 -0.703 1.563 -1.563 c 0 -0.863 -0.711 -1.563 -1.563 -1.563 m 0 1.031 c 0.289 0 0.5 0.238 0.5 0.531 c 0 0.289 -0.219 0.5 -0.5 0.5 c -0.289 0 -0.531 -0.203 -0.531 -0.5 c 0 -0.297 0.234 -0.531 0.531 -0.531 m 0 0" fill="#f9f9f9" stroke="none" fill-rule="nonzero" fill-opacity="1"/><path d="m 32.28 17.844 l 0 1.063 c 0.68 0 1.082 0.227 1.438 0.625 c 0.355 0.398 0.625 1.01 0.813 1.75 c 0.531 2.156 0.574 3.664 0.031 5.281 c -0.273 0.816 -0.566 1.422 -0.906 1.813 c -0.34 0.391 -0.695 0.594 -1.375 0.594 l -8.813 0 l 0 1.75 l 5.531 0 l 0 1.563 c 0 0.629 -0.254 1.063 -0.688 1.438 c -0.434 0.375 -1.07 0.652 -1.719 0.844 c -1.996 0.574 -3.801 0.48 -5.469 0 c -0.684 -0.199 -1.293 -0.492 -1.719 -0.875 c -0.426 -0.383 -0.656 -0.816 -0.656 -1.406 l 0 -5.219 c 0 -1.199 1.074 -2.5 2.25 -2.5 l 6.06 0 c 2.105 0 4 -1.563 4 -3.75 l 0 -2.438 l -1.063 0 l 0 2.438 c 0 1.586 -1.348 2.719 -2.938 2.719 l -6.06 0 c -1.871 0 -3.313 1.746 -3.313 3.531 l 0 5.219 c 0 0.895 0.406 1.656 1 2.188 c 0.594 0.531 1.367 0.867 2.156 1.094 c 1.832 0.527 3.871 0.629 6.06 0 c 0.734 -0.219 1.488 -0.539 2.094 -1.063 c 0.605 -0.523 1.031 -1.277 1.031 -2.219 l 0 -2.25 l 2.25 0 c 0.926 0 1.68 -0.387 2.188 -0.969 c 0.508 -0.582 0.805 -1.332 1.094 -2.188 c 0.613 -1.82 0.555 -3.578 0 -5.844 c -0.211 -0.832 -0.504 -1.625 -1.031 -2.219 c -0.527 -0.594 -1.313 -0.969 -2.25 -0.969 m -5.188 13.219 c -0.859 0 -1.563 0.711 -1.563 1.563 c 0 0.852 0.707 1.563 1.563 1.563 c 0.855 0 1.563 -0.703 1.563 -1.563 c 0 -0.859 -0.703 -1.563 -1.563 -1.563 m 0 1.031 c 0.289 0 0.5 0.234 0.5 0.531 c 0 0.289 -0.207 0.5 -0.5 0.5 c -0.285 0 -0.5 -0.203 -0.5 -0.5 c 0 -0.297 0.219 -0.531 0.5 -0.531 m 0 0" fill="#f9f9f9" stroke="none" fill-rule="nonzero" fill-opacity="1"/></g></svg>