<!-- color: #eeeeee --><svg xmlns="http://www.w3.org/2000/svg" viewBox="0 0 48 48"><g><path d="m 21.813 11 c -3.934 -0.086 -7.867 2.344 -9.563 5.875 c -1.156 2.402 -1.25 3.16 -1.25 12 c -0.004 4.285 0.055 7.848 0.125 8 c 0.074 0.07 1.426 0.117 3 0.094 l 2.875 -0.063 l 0.031 -2.469 c 0.031 -1.363 0.133 -2.5 0.219 -2.5 c 0.086 0 0.805 0.191 1.625 0.406 c 0.816 0.215 2.02 0.379 2.656 0.375 c 4.797 -0.016 8.941 -3.168 10.281 -7.844 c 0.355 -1.242 0.473 -3.98 0.219 -5.219 c -0.141 -0.684 -0.199 -0.719 -0.875 -0.719 c -3.922 0.102 -4.516 4.883 -7.469 7.125 c -0.852 0.441 -1.148 0.5 -2.344 0.438 c -1.168 -0.059 -1.531 -0.164 -2.219 -0.656 c -0.449 -0.32 -1.063 -0.953 -1.375 -1.406 c -1.891 -2.754 0.438 -8.625 4.75 -12 c 1.473 -1.152 1.48 -1.16 0.938 -1.281 c -0.305 -0.07 -1.043 -0.145 -1.625 -0.156 m 8.125 0.219 c -1.898 0.082 -2.957 0.418 -4.688 1.281 c -1.891 0.945 -4.418 3.457 -5.313 5.281 c -0.848 1.73 -1.344 3.211 -1.344 4.125 c 0 1.016 0.641 2.145 1.5 2.656 c 0.41 0.242 1.02 0.402 1.5 0.406 c 1.484 0.012 2.477 -0.832 3.063 -2.563 c 0.199 -0.594 0.496 -1.336 0.656 -1.656 c 0.477 -0.949 1.855 -2.211 2.969 -2.75 c 0.926 -0.441 1.367 -0.535 3.813 -0.625 c 1.895 -0.07 2.895 -0.188 3.219 -0.375 c 0.324 -0.191 0.383 -0.277 0.188 -0.313 c -0.156 -0.023 -0.707 -0.121 -1.219 -0.188 c -0.672 -0.09 -1.074 -0.281 -1.469 -0.688 c -0.797 -0.813 -0.555 -0.992 1.156 -0.844 c 1.758 0.145 2.934 -0.176 3.03 -0.844 c 0.086 -0.59 -0.629 -2 -1.25 -2.469 c -0.457 -0.344 -0.891 -0.383 -3.594 -0.438 c -0.879 -0.016 -1.586 -0.027 -2.219 0 m 3.625 0.531 c 0.801 0 1.344 1.328 0.781 1.906 c -0.324 0.332 -1.211 0.293 -1.563 -0.063 c -0.629 -0.645 -0.117 -1.844 0.781 -1.844 m -3.281 18.969 l -1.031 0.844 c -1.574 1.273 -2.695 1.813 -5.688 2.688 c -0.355 0.102 0.789 0.922 2.313 1.625 c 1.012 0.465 1.605 0.617 3.656 1.031 c 0.207 0.043 1.402 0.082 2.656 0.094 c 1.867 0.012 2.406 -0.039 3.063 -0.344 c 1.234 -0.57 1.949 -2.02 1.688 -3.438 c -0.133 -0.746 -1.086 -1.969 -1.719 -2.219 c -0.227 -0.09 -1.441 -0.188 -2.688 -0.219 m -2.25 -0.063" fill="#f9f9f9" stroke="none" fill-rule="nonzero" fill-opacity="1"/></g></svg>