<!-- color: #82a6d9 --><svg xmlns="http://www.w3.org/2000/svg" viewBox="0 0 48 48" xmlns:xlink="http://www.w3.org/1999/xlink"><g><path d="m 26.469 16.73 l -4.898 4.926 l -1.234 1.176 l -3.605 3.586 l 1.184 1.23 l -5.43 5.406 c -0.645 0.645 -0.645 1.82 0 2.465 c 0.648 0.645 1.828 0.645 2.48 0 l 5.379 -5.41 l 1.227 1.18 l 0.063 0 l 4.777 -4.82 l 4.953 -4.871 l -4.895 -4.875 m 0.004 0.008" fill="#f9f9f9" stroke="none" fill-rule="nonzero" fill-opacity="1" id="SVGCleanerId_0"/><path d="m 34.11 12.02 c -0.383 0.039 -0.75 0.211 -1.023 0.48 l -5.43 5.406 l -1.184 -1.176 l -0.055 0 l -2.852 2.945 l -0.699 0.695 l -1.184 1.176 l 4.84 4.82 l 4.789 -4.762 l -1.184 -1.23 l 5.434 -5.406 c 1.082 -0.992 -0.004 -3.199 -1.453 -2.945 m 0 -0.004" fill="#f9f9f9" stroke="none" fill-rule="nonzero" fill-opacity="1" id="SVGCleanerId_1"/><use xlink:href="#SVGCleanerId_0"/><use xlink:href="#SVGCleanerId_1"/></g></svg>