<!-- color: #f16a30 --><svg xmlns="http://www.w3.org/2000/svg" viewBox="0 0 48 48"><g><path d="m 14.844 11 c -2.121 0 -3.844 1.723 -3.844 3.844 l 0 18.313 c 0 2.121 1.723 3.844 3.844 3.844 l 18.313 0 c 2.121 0 3.844 -1.723 3.844 -3.844 l 0 -18.313 c 0 -2.121 -1.723 -3.844 -3.844 -3.844 m -19.16 3 l 7 0 l 0 7 l -7 0 m 8 -7 l 2 0 l 0 2 l 1.031 0 l 0 -1 l 0.969 0 l 0 -1 l 1 0 l 0 1 l -0.969 0 l 0 1 l 0.969 0 l 0 6 l -1 0 l 0 -2 l -0.969 0 l 0 -2 l 0.969 0 l 0 -1 l -2 0 l 0 2 l -1 0 l 0 2 l -1 0 l 0 -2 l 1 0 l 0 -2 l -1 0 l 0 -1 l 1 0 l 0 -1 l -1 0 m 1 1 l 0 1 l 1 0 l 0 -1 m 4 -2 l 7 0 l 0 7 l -7 0 m -13 -6 l 0 5 l 5 0 l 0 -5 m 9 0 l 0 5 l 5 0 l 0 -5 m -18 1 l 3 0 l 0 3 l -3 0 m 14 -3 l 3 0 l 0 3 l -3 0 m -6 1 l 1 0 l 0 1 l -1 0 m -10 1 l 1 0 l 0 1 l 1 0 l 0 -1 l 1 0 l 0 1 l -1 0 l 0 1 l -1 0 l 0 1 l -1 0 l 0 -1 l 1 0 l 0 -1 l -1 0 m 6 -1 l 2 0 l 0 1 l 1 0 l 0 -1 l 1 0 l 0 2 l 1 0 l 0 1 l -1 0 l 0 -1 l -2 0 l 0 1 l -3 0 l 0 -1 l -1 0 l 0 1 l -1 0 l 0 -1 l 1 0 l 0 -1 l 1 0 l 0 1 l 3 0 l 0 -1 l -2 0 m 9 -1 l 1 0 l 0 1 l 2 0 l 0 -1 l 1 0 l 0 1 l -1 0 l 0 3 l -2 0 l 0 0.031 l -1 0 l 0 -1 l 1 0 l 0 -0.031 l -2 0 l 0 -1 l -1 0 l 0 1 l -0.969 0 l 0 1 l 0.969 0 l 0 -0.969 l 1 0 l 0 1 l -1 0 l 0 0.969 l -1.969 0 l 0 -4 l 1 0 l 0 1 l 0.969 0 l 0 -1 l 2 0 m 0 0 l 0 1 l 1 0 l 0 -1 m 4 -1 l 1 0 l 0 3 l -1 0 m -18 0.031 l 1 0 l 0 2 l -1 0 m 2 -2 l 2 0 l 0 0.969 l 1 0 l 0 1 l -1 0 l 0 -0.969 l -1 0 l 0 1 l -1 0 m 4 -1.031 l 1 0 l 0 1 l 1 0 l 0 -1 l 1 0 l 0 2 l -1 0 l 0 1 l 1 0 l 0 1 l -2 0 l 0 -1 l -1 0 m 12 -3 l 1 0 l 0 4 l -1 0 l 0 1 l -1 0 l 0 1 l 2 0 l 0 1 l -2 0 l 0 -1 l -1 0 l 0 3 l -3 0 l 0 -1 l 1 0 l 0 -3 l -1 0 l 0 1 l -1 0 l 0 3 l -2 0 l 0 -1 l -1 0 l 0 1 l -1 0 l 0 -1 l -1 0 l 0 1 l -1 0 l 0 -1 l 1 0 l 0 -1 l -1 0 l 0 -1 l 6 0 l 0 -1 l 1 0 l 0 -2 l -1 0 l 0 1 l -2 0 l 0 -1 l 1 0 l 0 -1 l 1 0 l 0 -1 l 1 0 l 0 1 l 1 0 l 0 -1 l 2 0 l 0 1 l 1 0 l 0 1 l 1 0 m -1 0 l -3 0 l 0 1 l 2 0 l 0 1 l 1 0 m -19 -3 l 7 0 l 0 7 l -7 0 m 1 -6 l 0 5 l 5 0 l 0 -5 m -4 1 l 3 0 l 0 3 l -3 0 m 18 1 l 1 0 l 0 1 l -1 0 m 0 -1" fill="#f9f9f9" stroke="none" fill-rule="nonzero" fill-opacity="1"/></g></svg>