<!-- color: #eeeeee --><svg xmlns="http://www.w3.org/2000/svg" viewBox="0 0 48 48"><g><path d="m 24 9 c -2.738 0 -5.297 0.75 -7.5 2.031 c -0.254 0.148 -0.504 0.305 -0.75 0.469 c -0.051 0.035 -0.105 0.059 -0.156 0.094 c -0.164 0.113 -0.34 0.223 -0.5 0.344 c -0.066 0.047 -0.121 0.105 -0.188 0.156 c -0.52 0.398 -1.01 0.82 -1.469 1.281 c -0.203 0.203 -0.402 0.414 -0.594 0.625 c -0.039 0.043 -0.086 0.082 -0.125 0.125 c -0.086 0.102 -0.164 0.211 -0.25 0.313 c -0.102 0.125 -0.215 0.25 -0.313 0.375 c -0.102 0.133 -0.184 0.27 -0.281 0.406 c -0.23 0.316 -0.453 0.637 -0.656 0.969 c -0.406 0.66 -0.762 1.367 -1.063 2.094 c -0.148 0.359 -0.285 0.719 -0.406 1.094 c -0.477 1.457 -0.75 3 -0.75 4.625 c 0 4.988 2.441 9.402 6.188 12.13 c 0.121 0.086 0.254 0.168 0.375 0.25 c 0.137 0.094 0.266 0.191 0.406 0.281 c 0.203 0.129 0.414 0.254 0.625 0.375 c 0.164 0.094 0.332 0.191 0.5 0.281 c 0.02 0.012 0.043 0.02 0.063 0.031 c 0.336 0.172 0.68 0.32 1.031 0.469 c 0.77 0.324 1.578 0.586 2.406 0.781 c 0.156 0.035 0.313 0.063 0.469 0.094 c 0.953 0.191 1.926 0.313 2.938 0.313 c 3.047 0 5.855 -0.91 8.219 -2.469 c 4.078 -2.68 6.781 -7.289 6.781 -12.531 c 0 -2.105 -0.434 -4.117 -1.219 -5.938 l -0.031 0 c -2.301 -5.328 -7.578 -9.06 -13.75 -9.06 m 0 3 c 3.836 0 7.238 1.781 9.438 4.563 c 0.664 0.844 1.207 1.777 1.625 2.781 c 0.129 0.309 0.238 0.617 0.344 0.938 c 0.012 0.031 0.02 0.063 0.031 0.094 c 0.363 1.141 0.563 2.363 0.563 3.625 c 0 4.219 -2.16 7.93 -5.438 10.06 c -1.879 1.223 -4.145 1.938 -6.563 1.938 c -0.414 0 -0.813 -0.023 -1.219 -0.063 c -0.367 -0.035 -0.738 -0.086 -1.094 -0.156 c -0.086 -0.016 -0.168 -0.043 -0.25 -0.063 c -0.305 -0.066 -0.609 -0.129 -0.906 -0.219 c -0.031 -0.008 -0.063 -0.02 -0.094 -0.031 c -0.254 -0.078 -0.504 -0.188 -0.75 -0.281 c -0.113 -0.043 -0.234 -0.078 -0.344 -0.125 c -0.008 -0.004 -0.023 0.004 -0.031 0 c -0.117 -0.051 -0.227 -0.102 -0.344 -0.156 c -0.234 -0.105 -0.465 -0.223 -0.688 -0.344 c -0.02 -0.012 -0.043 -0.02 -0.063 -0.031 c -0.223 -0.121 -0.441 -0.27 -0.656 -0.406 c -0.195 -0.125 -0.406 -0.238 -0.594 -0.375 c -0.012 -0.008 -0.02 -0.023 -0.031 -0.031 c -2.996 -2.176 -4.938 -5.715 -4.938 -9.719 c 0 -1.387 0.227 -2.734 0.656 -3.969 c 0.215 -0.617 0.473 -1.184 0.781 -1.75 c 0.156 -0.289 0.32 -0.57 0.5 -0.844 c 0.352 -0.539 0.754 -1.059 1.188 -1.531 c 0.863 -0.945 1.871 -1.746 3 -2.375 c 0.281 -0.156 0.578 -0.301 0.875 -0.438 c 0.281 -0.129 0.582 -0.234 0.875 -0.344 c 0.035 -0.012 0.059 -0.051 0.094 -0.063 c 0.277 -0.098 0.559 -0.172 0.844 -0.25 l 0.031 0 c 1.012 -0.273 2.059 -0.438 3.156 -0.438 m 0 0" fill="#f9f9f9" stroke="none" fill-rule="nonzero" fill-opacity="1"/></g></svg>