<!-- color: #eeeeee --><svg xmlns="http://www.w3.org/2000/svg" viewBox="0 0 48 48"><g><path d="m 11 18 l 0 12 l 16 0 l 0 -2 l -14 0 l 0 -8 l 14 0 l 0 -2 m 4 0 l 0 2 l 4 0 l 0 8 l -4 0 l 0 2 l 6 0 l 0 -12 m -6 0" fill="#f9f9f9" stroke="none" fill-rule="nonzero" fill-opacity="1"/><path d="m 14 22 l 9 0 l 0 4 l -9 0 m 0 -4" fill="#f9f9f9" stroke="none" fill-rule="nonzero" fill-opacity="1"/><path d="m 28 34 l 0 -19.996 l 1.996 0 l 0 19.996 m -1.996 0" fill="#f9f9f9" stroke="none" fill-rule="nonzero" fill-opacity="1"/><path d="m 25.02 14 l 8 0 l 0 1.996 l -8 0 m 0 -1.996" fill="#f9f9f9" stroke="none" fill-rule="nonzero" fill-opacity="1"/><path d="m 25.02 31.996 l 8 0 l 0 2 l -8 0 m 0 -2" fill="#f9f9f9" stroke="none" fill-rule="nonzero" fill-opacity="1"/></g></svg>