<!-- color: #84b9d1 --><svg xmlns="http://www.w3.org/2000/svg" viewBox="0 0 48 48"><g><path d="m 15 15 c -1.656 0 -3 1.344 -3 3 c 0 1.656 1.344 3 3 3 c 0.012 0 0.02 0 0.031 0 l 6.469 9.313 c -0.324 0.48 -0.5 1.066 -0.5 1.688 c 0 1.656 1.344 3 3 3 c 1.656 0 3 -1.344 3 -3 c 0 -0.449 -0.105 -0.867 -0.281 -1.25 l 6.781 -9.813 c 1.414 -0.242 2.5 -1.457 2.5 -2.938 c 0 -1.656 -1.344 -3 -3 -3 c -1.301 0 -2.398 0.84 -2.813 2 l -12.375 0 c -0.414 -1.16 -1.512 -2 -2.813 -2 m 2.813 4 l 12.375 0 c 0.199 0.555 0.539 1.059 1 1.406 l -6 8.844 c -0.367 -0.16 -0.762 -0.25 -1.188 -0.25 c -0.277 0 -0.527 0.055 -0.781 0.125 l -6.094 -9 c 0.309 -0.309 0.535 -0.703 0.688 -1.125 m 0 0" fill="#f9f9f9" stroke="none" fill-rule="nonzero" fill-opacity="1"/></g></svg>