<!-- color: #66b6bc --><svg xmlns="http://www.w3.org/2000/svg" viewBox="0 0 48 48"><g><path d="m 15 12 c -0.344 0 -1 0.586 -1 1 l 0 22 c 0 0.414 0.656 1 1 1 l 18 0 c 0.344 0 1 -0.586 1 -1 l 0 -22 c 0 -0.414 -0.656 -1 -1 -1 m -18 1 l 18 0 l 0 17.844 l -5 -8.844 l -3.375 4.656 l -3.625 -6.656 l -6 11 m 13.5 -16 c -1.383 0 -2.5 1.121 -2.5 2.5 c 0 1.379 1.117 2.5 2.5 2.5 c 1.379 0 2.5 -1.121 2.5 -2.5 c 0 -1.379 -1.121 -2.5 -2.5 -2.5 m 0 0" fill="#f9f9f9" stroke="none" fill-rule="nonzero" fill-opacity="1"/></g></svg>