<!-- color: #68ac39 --><svg xmlns="http://www.w3.org/2000/svg" viewBox="0 0 48 48"><g><path d="m 26 9 l -4 0 l 0 15 l 4 0 m 0 -15" fill="#f9f9f9" stroke="none" fill-rule="nonzero" fill-opacity="1"/><path d="m 20 9.5 c -6.359 1.766 -11 7.617 -11 14.469 c 0 8.23 6.715 15.03 15 15.03 c 8.285 0 15 -6.801 15 -15.03 c 0 -6.852 -4.641 -12.703 -11 -14.469 l 0 3.875 c 4.184 1.645 7.25 5.75 7.25 10.594 c 0 6.313 -5.04 11.375 -11.25 11.375 c -6.203 0 -11.25 -5.063 -11.25 -11.375 c 0 -4.895 3.01 -9.05 7.25 -10.656 m 0 -3.813" fill="#f9f9f9" stroke="none" fill-rule="nonzero" fill-opacity="1"/></g></svg>