<!-- color: #ef8b0d --><svg xmlns="http://www.w3.org/2000/svg" viewBox="0 0 48 48"><g><path d="m 12.813 15 c -0.441 0.043 -0.816 0.449 -0.813 0.875 l 0 16.25 c 0 0.449 0.434 0.875 0.906 0.875 l 22.19 0 c 0.469 0 0.906 -0.426 0.906 -0.875 l 0 -14.25 c 0 -0.449 -0.441 -0.844 -0.906 -0.844 l -9.125 0 l 0 -1.156 c 0 -0.449 -0.441 -0.875 -0.906 -0.875 l -12.156 0 c -0.031 0 -0.066 0 -0.094 0 m 14.934 4 c 1.242 0 2.25 1.012 2.25 2.25 c 0 1.242 -1.012 2.25 -2.25 2.25 c -0.605 0 -1.156 -0.234 -1.563 -0.625 l -3.719 1.844 c 0.012 0.09 0.023 0.188 0.023 0.281 c 0 0.094 -0.02 0.191 -0.023 0.281 l 3.719 1.844 c 0.406 -0.391 0.957 -0.625 1.563 -0.625 c 1.242 0 2.25 1.012 2.25 2.25 c 0 1.242 -1.012 2.25 -2.25 2.25 c -1.242 0 -2.25 -1.012 -2.25 -2.25 c 0 -0.094 0.02 -0.191 0.031 -0.281 l -3.719 -1.844 c -0.406 0.395 -0.953 0.625 -1.566 0.625 c -1.238 0 -2.25 -1.012 -2.25 -2.25 c 0 -1.242 1.016 -2.25 2.25 -2.25 c 0.609 0 1.156 0.23 1.566 0.625 l 3.719 -1.844 c -0.012 -0.09 -0.031 -0.188 -0.031 -0.281 c 0 -1.242 1.012 -2.25 2.25 -2.25 m 0 0" fill="#f9f9f9" stroke="none" fill-rule="nonzero" fill-opacity="1"/></g></svg>