<!-- color: #eaebe1 --><svg xmlns="http://www.w3.org/2000/svg" viewBox="0 0 48 48"><g><path d="m 24 10 c -4.137 0 -6.84 2.367 -8.125 5.156 c -1.605 -0.051 -3.215 -0.082 -4.813 -0.156 c -0.586 -0.031 -1.141 0.645 -1.063 1.094 c 1.01 6.68 1.063 12.93 0 19.813 c -0.074 0.453 0.477 1.117 1.063 1.094 l 25.844 0 c 0.598 0.023 1.164 -0.641 1.094 -1.094 c -1.063 -6.879 -1.078 -13.211 0 -19.813 c 0.078 -0.453 -0.496 -1.129 -1.094 -1.094 c -1.59 0.086 -3.172 0.137 -4.75 0.188 c -1.277 -2.805 -4 -5.188 -8.156 -5.188 m 0 1 c 3.188 0 5.574 1.973 6.875 4.219 c -4.609 0.121 -9.172 0.121 -13.719 0 c 1.305 -2.242 3.66 -4.219 6.844 -4.219 m -8.938 7.06 c -0.035 0.32 -0.063 0.625 -0.063 0.938 c 0 0.422 0 1 0.5 1 c 0.496 0 0.5 -0.578 0.5 -1 c 0 -0.281 0.016 -0.57 0.063 -0.875 c 0.551 0.223 0.938 0.742 0.938 1.375 c 0 0.828 -0.672 1.5 -1.5 1.5 c -0.828 0 -1.5 -0.672 -1.5 -1.5 c 0 -0.68 0.441 -1.254 1.063 -1.438 m 17.875 0 c 0.621 0.184 1.063 0.758 1.063 1.438 c 0 0.828 -0.672 1.5 -1.5 1.5 c -0.828 0 -1.5 -0.672 -1.5 -1.5 c 0 -0.621 0.367 -1.148 0.906 -1.375 c 0.047 0.305 0.094 0.59 0.094 0.875 c 0 0.422 0 1 0.5 1 c 0.5 0 0.5 -0.578 0.5 -1 c 0 -0.313 -0.027 -0.617 -0.063 -0.938 m 0 0" fill="#f9f9f9" stroke="none" fill-rule="nonzero" fill-opacity="1"/></g></svg>