<!-- color: #eda63c --><svg xmlns="http://www.w3.org/2000/svg" viewBox="0 0 48 48"><g><path d="m 24.594 12 c -0.711 0 -1.406 0.129 -2.031 0.375 l -0.094 -0.125 c -1.961 0.836 -3.313 2.793 -3.313 5.063 c 0 1.621 0.695 3.059 1.813 4.063 l -3.531 0 c -0.5 0.063 -0.828 0.246 -1.031 0.563 l -4.375 8.656 c -0.016 0.07 -0.008 0.156 0 0.219 c -0.012 0.461 0.25 0.906 0.719 1.313 c 0.004 0.016 0.027 0.016 0.031 0.031 c 0.285 0.863 1.109 1.539 2.188 2.063 c -0.055 0.098 -0.094 0.203 -0.094 0.313 c 0 0.582 0.801 1.063 1.781 1.063 c 0.543 0 1.023 -0.145 1.344 -0.375 c 2.547 0.59 5.23 0.773 6.156 0.781 c 2.289 0.066 4.863 -0.324 7 -0.844 c 0.008 0.004 0.023 -0.004 0.031 0 c 0.316 0.273 0.84 0.469 1.438 0.469 c 0.98 0 1.781 -0.477 1.781 -1.063 c 0 -0.141 -0.066 -0.258 -0.156 -0.375 c 0.594 -0.262 1.07 -0.543 1.281 -0.781 c 0.574 -0.641 1.074 -1.324 1.344 -1.969 c 0.004 -0.012 0.027 -0.02 0.031 -0.031 c 0.059 -0.121 0.098 -0.246 0.125 -0.375 c 0.023 -0.105 0.063 -0.203 0.063 -0.313 c 0.008 -0.145 -0.027 -0.301 -0.063 -0.438 l -4.375 -8.313 c -0.082 -0.129 -0.176 -0.234 -0.281 -0.313 c -0.008 -0.004 -0.023 0.004 -0.031 0 c -0.113 -0.082 -0.223 -0.145 -0.344 -0.188 c -0.246 -0.086 -0.512 -0.082 -0.781 -0.094 l -2.938 0 c 1.117 -1 1.844 -2.441 1.844 -4.063 c 0 -2.277 -1.398 -4.234 -3.375 -5.063 l -0.125 0.156 c -0.629 -0.25 -1.316 -0.406 -2.031 -0.406 m -2.188 10.313 c 0.68 0.301 1.426 0.469 2.219 0.469 c 0.723 0 1.398 -0.152 2.031 -0.406 l -0.25 1.25 l -0.656 0.344 l 0 0.219 c 0.414 0.121 0.633 0.313 0.719 0.531 c 0.004 0.008 -0.004 0.023 0 0.031 c 0.668 0.273 1.094 0.688 1.094 1.156 c 0 0.82 -1.313 1.469 -2.938 1.469 c -1.629 0 -2.938 -0.648 -2.938 -1.469 c 0 -0.441 0.367 -0.852 0.969 -1.125 c 0.07 -0.219 0.305 -0.43 0.781 -0.594 l -0.031 -0.188 l -0.656 -0.344 m 7.313 3.625 c 1.199 0 2.188 0.906 2.188 2 c 0 1.098 -0.988 1.969 -2.188 1.969 c -1.203 0 -2.156 -0.871 -2.156 -1.969 c 0 -1.094 0.953 -2 2.156 -2 m -4.906 0.156 c 1.406 0 2.563 1.027 2.563 2.281 c 0 1.258 -1.156 2.281 -2.563 2.281 c -1.41 0 -2.531 -1.023 -2.531 -2.281 c 0 -1.254 1.121 -2.281 2.531 -2.281 m 0 0" fill="#f9f9f9" stroke="none" fill-rule="nonzero" fill-opacity="1"/></g></svg>