<!-- color: #f4c211 --><svg xmlns="http://www.w3.org/2000/svg" viewBox="0 0 48 48"><g><path d="m 27.16 8.656 l -2.625 0.094 l -0.25 3.25 c -6.625 0 -12.281 5.371 -12.281 12 c 0 6.629 5.371 12 12 12 c 6.629 0 12 -5.371 12 -12 l 0 -0.469 c -0.035 -0.871 -0.039 -2.844 -0.25 -3.656 l 2.938 -0.875 l -0.313 -2.688 l -5.781 0.5 c 0.289 0.824 0.367 5.898 0.406 6.813 l 0 0.375 c 0 4.973 -4.03 9 -9 9 c -4.973 0 -9 -4.03 -9 -9 c 0 -4.758 3.699 -9.105 8.375 -9.469 c -0.109 0.152 -0.188 0.309 -0.188 0.469 c -0.066 0.656 0.34 1.023 0.875 1.313 c 0.043 0.023 0.078 0.039 0.125 0.063 c 0.039 0.027 0.055 0.066 0.094 0.094 c -0.957 1.469 -1.676 3.066 -2.156 4.688 l 0.188 -1.531 c 0.426 -1.211 -2.676 -2.191 -2.969 -1.031 c -0.469 1.688 -1.754 3.887 -1.406 5.063 c 0.727 2.512 2.043 1.559 3.063 2.344 l 0.063 0.063 c -0.266 2.551 -0.074 4.754 -0.063 5.938 l 5 0 l 0 -3.719 c 2.426 -0.434 5.176 -0.336 6 -3.281 c 0.188 -1.266 0.027 -3.039 -0.531 -4.594 c -0.539 -0.809 -1.219 -1.031 -1.813 -0.938 c -0.148 -0.305 -0.398 -0.672 -0.813 -1.125 l 1 -1.344 c 0 -0.695 -0.527 -1.348 -1.031 -1.875 c -0.109 -0.113 -0.23 -0.199 -0.344 -0.313 c -0.199 -0.191 -0.352 -0.379 -0.469 -0.5 c -0.184 -0.008 -0.355 -0.012 -0.5 0 c -0.527 0.043 -0.793 0.199 -1.031 0.375 c -0.176 -0.125 -0.336 -0.223 -0.5 -0.313 l 1.531 -0.063 l 0.313 -0.031 m 0.25 5.781 c 0.113 0.137 0.234 0.25 0.375 0.313 c -0.023 0.051 -0.047 0.102 -0.063 0.156 l -0.375 3.156 c -0.301 -0.039 -0.609 -0.074 -0.906 -0.063 c 0.164 -1.01 0.496 -2.191 0.969 -3.563 m 0 0" fill="#f9f9f9" stroke="none" fill-rule="nonzero" fill-opacity="1"/></g></svg>