<!-- color: #eeeeee --><svg xmlns="http://www.w3.org/2000/svg" viewBox="0 0 48 48"><g><path d="m 25.19 29.23 c 0 0 0.668 1.984 1.418 3.645 c 0.758 1.664 2.086 2.473 2.262 2.473 c 0.176 0 0.355 -0.945 0.313 -1.484 c -0.047 -0.539 -1.285 -1.621 0.844 0.09 c 2.125 1.707 3.633 2.426 3.5 1.84 c 0.223 -1.438 -2.262 -4.453 -0.668 -3.91 c 1.598 0.539 4.301 1.801 2.617 -0.18 c -1.684 -1.98 -3.414 -2.879 -1.949 -2.836 c 1.465 0.047 2.879 0.719 2.172 -0.586 c -0.707 -1.301 -4.117 -3.332 -5.582 -4.188 c -4.105 -0.098 -5.109 0.902 -4.918 5.133 m -0.008 0.004" fill="#f9f9f9" stroke="none" fill-rule="evenodd" fill-opacity="1"/><path d="m 12 12 c 4.105 0.09 14.473 1.773 18.441 12.01 c -1.516 1.133 -3.984 3.578 -5.254 5.367 c -10.1 -5.191 -12.965 -13.395 -13.191 -17.387 m 0.004 0" fill="#f9f9f9" stroke="none" fill-rule="evenodd" fill-opacity="1"/><path d="m 19.574 25.477 c 0 0 0.191 4.699 0.191 4.742 c 0 0.043 5.422 2.523 5.734 2.66 l -0.266 -3.688 c -0.234 -1.188 -3.234 -4.191 -5.66 -3.711 m 0 -0.004" fill="#f9f9f9" stroke="none" fill-rule="evenodd" fill-opacity="1"/><path d="m 26.688 18.32 c 0 0 4.691 0.164 4.734 0.168 c 0.043 0 2.383 5.516 2.504 5.824 l -3.816 -0.199 c -1.109 -1.113 -3.109 -4.109 -3.422 -5.793 m 0 0" fill="#f9f9f9" stroke="none" fill-rule="evenodd" fill-opacity="1"/></g></svg>