<!-- color: #eeeeee --><svg xmlns="http://www.w3.org/2000/svg" viewBox="0 0 48 48"><g><path d="m 30.688 10.313 l -2.25 2.531 c -1.375 -0.551 -2.863 -0.844 -4.438 -0.844 c -6.629 0 -12 5.371 -12 12 c 0 1.672 0.352 3.242 0.969 4.688 l -1.969 1.313 l 3 4 l 1.5 -1.5 c 2.172 2.172 5.188 3.5 8.5 3.5 c 0.656 0 1.281 -0.086 1.906 -0.188 l 1.094 2.188 l 5 -3 l -0.906 -1.344 c 2.191 -1.609 3.797 -3.945 4.5 -6.656 l 3.406 0 l 0 -5 l -3.188 0 c -0.336 -1.988 -1.16 -3.816 -2.344 -5.344 l 2.156 -1.656 m -12.875 -1 c 4.969 0 9 4.03 9 9 c 0 3.277 -1.754 6.145 -4.375 7.719 l 0.625 1.281 l -2 1 l -0.688 -1.375 c -0.738 0.219 -1.508 0.352 -2.313 0.375 l 0 1 l -3 0 l 0 -1.438 c -3.629 -1.16 -6.25 -4.551 -6.25 -8.563 c 0 -4.969 4.03 -9 9 -9 m 0 0" fill="#f9f9f9" stroke="none" fill-rule="nonzero" fill-opacity="1"/><path d="m 22 25.5 c 0 0.828 -0.895 1.496 -1.996 1.496 c -1.105 0 -2 -0.672 -2 -1.496 c 0 -0.832 -0.164 -1.219 0.941 -1.219 c 1.105 0 3.059 0.387 3.059 1.219 m -0.004 0" fill="#f9f9f9" stroke="none" fill-rule="nonzero" fill-opacity="1"/><path d="m 27.668 24.715 c -1.105 0 -1.672 -0.387 -1.672 -1.215 c 0.383 -1.582 3.113 -2.258 4.539 -1.641 c -0.02 1.43 -1.828 2.828 -2.867 2.855 m 0 0" fill="#f9f9f9" stroke="none" fill-rule="nonzero" fill-opacity="1"/><path d="m 21.5 14.906 c 0.871 -0.273 1.723 0.016 2.59 0.594 c 0.344 0.563 0 0.828 -0.223 1.066 c -0.219 0.238 -0.203 0.223 -0.559 0.434 l -1.949 -0.066 c -1.156 -0.441 -0.566 -1.602 0.141 -2.027 m 0 0" fill="#f9f9f9" stroke="none" fill-rule="nonzero" fill-opacity="1"/><path d="m 21.04 18 l 1.531 0 c 1.754 0.055 2.996 1.523 2.156 2 c -1.23 -0.125 -2.457 -0.125 -3.688 0 c -1.57 -0.242 -1.199 -1.711 0 -2 m 0 0" fill="#f9f9f9" stroke="none" fill-rule="nonzero" fill-opacity="1"/><path d="m 22.508 21 l 1 0.262 c 0.824 0.355 0.5 0.734 0 0.734 l -1 -0.09 c -0.66 -0.266 -0.656 -0.77 0 -0.906 m 0 0" fill="#f9f9f9" stroke="none" fill-rule="nonzero" fill-opacity="1"/></g></svg>