<!-- color: #a31919 --><svg xmlns="http://www.w3.org/2000/svg" viewBox="0 0 48 48"><g><path d="m 14.813 16 l -0.457 0.484 c -0.324 0.336 -0.691 0.359 -1.16 0.191 c -0.23 -0.082 -0.488 -0.324 -0.699 -0.121 c -0.199 0.195 0.086 0.352 0.293 0.434 c 0.836 0.34 1.305 0.828 1.109 1.848 c -0.199 1.02 -0.895 0.902 -1.496 1.012 c -0.453 0.078 -0.883 0.074 -1.109 0.285 c -0.449 0.422 -0.031 0.895 0.289 0.863 c 1.469 -0.125 2.695 0.992 2.027 2.453 l -0.723 1.586 l 0.773 0.047 l -2.656 6.05 l 6.609 0.867 l 2.027 -7.207 c 0.137 -0.492 0.789 -0.793 1.305 -0.82 l 3.137 -0.145 c 0.648 -0.027 1.383 -0.609 1.492 -1.25 l 0.191 -1.105 c 0.082 -0.457 0.242 -0.48 1.242 -0.48 l 4.5 0 l 0.5 -0.996 l 4.469 0 c 0.223 -0.004 0.246 -0.148 0.336 -0.348 l 0.191 -0.434 l 0 -2.688 l -0.438 -0.531 l -10.852 0 l -0.223 1 l -3 0 l -0.262 -1 l -7.43 0 m 7.492 4.832 l 1.531 0 c 1.738 0 1.77 2.785 0 2.785 l -1.531 0 c -1.613 0 -1.852 -2.785 0 -2.785 m 0.402 0.086 c -1.762 -0.008 -1.465 2.652 0 2.617 c -0.66 -0.891 -0.691 -1.773 0 -2.617 m 0 0" fill="#f9f9f9" stroke="none" fill-rule="evenodd" fill-opacity="1"/></g></svg>