<!-- color: #4d4d4d --><svg xmlns="http://www.w3.org/2000/svg" viewBox="0 0 48 48"><g><path d="m 23 8 l 0 32 l 2 0 l 0 -3.059 c 0.156 0.055 0.34 0.074 0.594 0.063 c 0.438 -0.02 0.773 -0.191 1.031 -0.531 c 0.086 -0.113 0.855 -1.801 1.719 -3.75 c 1.543 -3.484 1.563 -3.543 1.563 -3.875 c 0 -0.402 -0.113 -0.742 -0.375 -1 c -0.098 -0.098 -1.023 -0.758 -2.063 -1.469 c -1.039 -0.715 -1.922 -1.328 -1.938 -1.375 c -0.02 -0.059 0.43 -0.816 1.281 -2.188 c 0.715 -1.152 1.332 -2.141 1.375 -2.188 c 0.051 -0.066 0.109 -0.066 0.156 -0.031 c 0.039 0.02 0.316 0.586 0.625 1.281 c 0.32 0.719 0.633 1.348 0.719 1.438 c 0.277 0.297 0.406 0.32 2.875 0.625 c 1.809 0.223 2.363 0.285 2.531 0.25 c 0.535 -0.121 0.906 -0.582 0.906 -1.125 c -0.004 -0.598 -0.355 -1.051 -0.938 -1.156 c -0.098 -0.02 -1 -0.129 -1.969 -0.25 c -0.98 -0.121 -1.773 -0.234 -1.781 -0.25 c -0.023 -0.02 -0.41 -0.895 -0.875 -1.938 c -0.469 -1.047 -0.898 -1.945 -0.941 -2 c -0.105 -0.156 -2.477 -1.758 -2.688 -1.816 c -0.23 -0.059 -0.992 -0.195 -1.816 -0.375 l 0 -7.281 l -2 0 m 7.566 3 c -1.164 0 -2.109 0.785 -2.281 1.938 c -0.18 1.203 0.637 2.395 1.816 2.625 c 1.563 0.309 2.98 -1.047 2.75 -2.625 c -0.172 -1.152 -1.113 -1.938 -2.281 -1.938 m -5.566 17.09 c 0.055 0.035 0.078 0.063 0.125 0.094 c 1.176 0.805 1.566 1.109 1.566 1.188 c 0 0.059 -0.547 1.391 -1.25 2.969 c -0.191 0.43 -0.297 0.68 -0.441 1" fill="#f9f9f9" stroke="none" fill-rule="nonzero" fill-opacity="1"/></g></svg>