<!-- color: #3d3d3d --><svg xmlns="http://www.w3.org/2000/svg" viewBox="0 0 48 48"><g><path d="m 22 9.125 c -6.684 0.891 -11.984 6.191 -12.875 12.875 l 11.438 0 c 0.352 -0.605 0.832 -1.086 1.438 -1.438 m 4 -11.438 l 0 11.438 c 0.605 0.352 1.086 0.832 1.438 1.438 l 11.441 0 c -0.895 -6.684 -6.191 -11.984 -12.875 -12.875 m -16.875 16.875 c 0.891 6.684 6.188 11.984 12.875 12.875 l 0 -11.438 c -0.605 -0.352 -1.09 -0.832 -1.441 -1.438 m 6.875 0 c -0.352 0.605 -0.832 1.086 -1.438 1.438 l 0 11.438 c 6.684 -0.891 11.984 -6.191 12.875 -12.875 m -11.438 0" fill="#f9f9f9" stroke="none" fill-rule="nonzero" fill-opacity="1"/></g></svg>