<!-- color: #ce5952 --><svg xmlns="http://www.w3.org/2000/svg" viewBox="0 0 48 48"><g><path d="m 24 10 c -4.582 0 -6.625 3.359 -6.938 7 l -2.188 0 c -0.488 0 -0.875 0.387 -0.875 0.875 l 0 16.25 c 0 0.488 0.387 0.875 0.875 0.875 l 18.25 0 c 0.488 0 0.875 -0.387 0.875 -0.875 l 0 -16.25 c 0 -0.488 -0.387 -0.875 -0.875 -0.875 l -2.188 0 c -0.313 -3.641 -2.355 -7 -6.938 -7 m 0 1 c 3.566 0 5.52 3.184 5.906 6 l -11.813 0 c 0.387 -2.816 2.34 -6 5.906 -6 m -7.094 7.03 c 0.027 -0.004 0.066 0.004 0.094 0 c 0.023 0.949 0.977 0.949 1 0 c 0.582 0.066 1 0.25 1 0.469 c 0 0.277 -0.672 0.5 -1.5 0.5 c -0.828 0 -1.5 -0.223 -1.5 -0.5 c 0 -0.207 0.367 -0.395 0.906 -0.469 m 13 0 c 0.027 -0.004 0.066 0.004 0.094 0 c 0.023 0.949 0.977 0.949 1 0 c 0.582 0.066 1 0.25 1 0.469 c 0 0.277 -0.672 0.5 -1.5 0.5 c -0.828 0 -1.5 -0.223 -1.5 -0.5 c 0 -0.207 0.367 -0.395 0.906 -0.469 m -5.906 5.969 c 1.105 0 2 0.895 2 2 c 0 0.641 -0.313 1.195 -0.781 1.563 l 1.781 4.438 l -6 0 l 1.781 -4.438 c -0.469 -0.367 -0.781 -0.922 -0.781 -1.563 c 0 -1.105 0.895 -2 2 -2 m 0 0" fill="#f9f9f9" stroke="none" fill-rule="nonzero" fill-opacity="1"/></g></svg>