<!-- color: #f3c72b --><svg xmlns="http://www.w3.org/2000/svg" viewBox="0 0 48 48"><g><path d="m 28.332 14 l 2.891 0 c 4.336 0 4.336 4.285 4.336 4.285 l 0 4.238 c 0 1.43 -2.895 4.336 -2.895 4.336 l 0 1.426 l 4.336 2.855 l 0 2.859 l -15.891 0 l 0 -2.859 l 5.781 -2.855 l 0 -1.426 c 0 0 -2.902 -2.902 -2.891 -4.336 l 0 -4.238 c 0 0 0 -4.285 4.332 -4.285 m -10.11 2.859 l 2.887 0 l 0 5.668 c 0 1.43 2.895 4.336 2.895 4.336 l -5.777 2.855 l 0 2.859 l -7.223 -0.043 l 0 -1.43 l 5.773 -2.816 l 0 -1.426 c 0 0 -2.898 -2.898 -2.887 -4.332 l 0 -1.387 c 0 -4.281 4.332 -4.281 4.332 -4.281 m 0 -0.008" fill="#f9f9f9" stroke="none" fill-rule="nonzero" fill-opacity="1"/></g></svg>