<!-- color: #e3e3e3 --><svg xmlns="http://www.w3.org/2000/svg" viewBox="0 0 48 48"><g><path d="m 22.711 10.992 l 0 2.926 c -4.234 0.516 -7.668 3.555 -8.711 7.535 l 2.676 0 c 1.098 -2.875 4.01 -5.117 7.184 -5.094 c 0.078 -0.004 0.156 -0.004 0.23 -0.004 c 1.156 0.008 2.289 0.289 3.316 0.793 c 1.852 0.82 3.227 2.438 3.895 4.305 l 2.699 0 c -1.043 -3.98 -4.477 -7.02 -8.711 -7.535 l 0 -2.926 m -11.289 15.539 c 1.043 3.98 4.477 7.02 8.711 7.535 l 0 2.926 l 2.578 0 l 0 -2.926 c 4.234 -0.52 7.668 -3.555 8.711 -7.535 l -2.66 0 c -1.043 3.02 -4.27 5.203 -7.527 5.09 c -3.176 0.016 -6.05 -2.215 -7.129 -5.09 m -2.684 0" fill="#f9f9f9" stroke="none" fill-rule="nonzero" fill-opacity="1"/><path d="m 24 18.465 c -3.141 0 -5.684 2.492 -5.684 5.59 c 0 0 -0.039 0.523 0.125 1.117 l 8.73 0 c -0.238 0.648 -0.66 1.23 -1.234 1.617 c -1.32 1.027 -3.32 0.652 -4.445 -0.496 l -2.703 0 c 0.879 1.973 2.879 3.352 5.211 3.352 c 3.141 0 5.684 -2.5 5.684 -5.59 c 0 0 0 -0.574 -0.113 -1.117 l -8.734 0 c 0.492 -1.223 1.668 -2.211 3.03 -2.223 c 0.066 -0.004 0.137 -0.004 0.203 -0.004 c 0.914 0.02 1.801 0.445 2.418 1.109 l 2.723 0 c -0.879 -1.973 -2.883 -3.355 -5.211 -3.355 m 0 0" fill="#f9f9f9" stroke="none" fill-rule="nonzero" fill-opacity="1"/></g></svg>