<!-- color: #1ac8ef --><svg xmlns="http://www.w3.org/2000/svg" viewBox="0 0 48 48"><g><path d="m 15 12 c -1.656 0 -3 1.34 -3 3 l 0 18 c 0 1.656 1.34 3 3 3 l 18 0 c 1.656 0 3 -1.344 3 -3 l 0 -18 c 0 -1.656 -1.344 -3 -3 -3 m -3 3 c 1.656 0 3 1.34 3 3 c 0 1.656 -1.344 3 -3 3 c -1.66 0 -3 -1.344 -3 -3 c 0 -1.66 1.34 -3 3 -3 m -6 6 c 1.656 0 3 1.34 3 3 c 0 1.656 -1.344 3 -3 3 c -1.66 0 -3 -1.344 -3 -3 c 0 -1.66 1.34 -3 3 -3 m -6 6 c 1.656 0 3 1.34 3 3 c 0 1.656 -1.344 3 -3 3 c -1.66 0 -3 -1.344 -3 -3 c 0 -1.66 1.34 -3 3 -3 m 0 0" fill="#f9f9f9" stroke="none" fill-rule="nonzero" fill-opacity="1"/></g></svg>