<!-- color: #e57e29 --><svg xmlns="http://www.w3.org/2000/svg" viewBox="0 0 48 48"><g><path d="m 30.5 12 c -2.484 0 -4.5 2.02 -4.5 4.5 c 0 0.188 0.027 0.379 0.047 0.566 l -7.406 3.699 c -0.813 -0.785 -1.918 -1.262 -3.137 -1.262 c -2.484 0 -4.5 2.02 -4.5 4.5 c 0 2.48 2.02 4.5 4.5 4.5 c 1.219 0 2.324 -0.48 3.137 -1.266 l 7.406 3.703 c -0.023 0.18 -0.047 0.375 -0.047 0.563 c 0 2.484 2.02 4.5 4.5 4.5 c 2.484 0 4.5 -2.02 4.5 -4.5 c 0 -2.484 -2.02 -4.5 -4.5 -4.5 c -1.211 0 -2.309 0.484 -3.117 1.266 l -7.43 -3.703 c 0.023 -0.18 0.047 -0.375 0.047 -0.563 c 0 -0.188 -0.027 -0.379 -0.047 -0.566 l 7.43 -3.703 c 0.809 0.781 1.902 1.266 3.117 1.266 c 2.484 0 4.5 -2.02 4.5 -4.5 c 0 -2.484 -2.02 -4.5 -4.5 -4.5 m 0 0" fill="#f9f9f9" stroke="none" fill-rule="nonzero" fill-opacity="1"/></g></svg>