<!-- color: #db363f --><svg xmlns="http://www.w3.org/2000/svg" viewBox="0 0 48 48"><g><path d="m 17 20 c -1 0 -1.121 0.375 -1.324 1 l -3.352 13 c -0.129 0.527 -0.324 1 0.676 1 l 22 0 c 1 0 0.785 -0.504 0.676 -1 l -3.352 -13 c -0.176 -0.496 -0.324 -1 -1.324 -1 l -5 0 l 0 8 l 3 0 l -5 4 l -5 -4 l 3 0 l 0 -8 m -5 0" fill="#f9f9f9" stroke="none" fill-rule="nonzero" fill-opacity="1"/><path d="m 18.773 11 l 10.457 0 c 0.977 0 1.77 0.672 1.77 1.5 c 0 0.828 -0.793 1.5 -1.77 1.5 l -10.457 0 c -0.98 0 -1.773 -0.672 -1.773 -1.5 c 0 -0.828 0.793 -1.5 1.773 -1.5 m 0 0" fill="#f9f9f9" stroke="none" fill-rule="nonzero" fill-opacity="1"/><path d="m 23.781 11 c -0.98 0 -1.781 0.801 -1.781 1.781 l 0 7.219 l 4 0 l 0 -7.219 c 0 -0.98 -0.801 -1.781 -1.781 -1.781 m -0.438 0" fill="#f9f9f9" stroke="none" fill-rule="nonzero" fill-opacity="1"/></g></svg>