<!-- color: #eeeeee --><svg xmlns="http://www.w3.org/2000/svg" viewBox="0 0 48 48"><g><path d="m 24.03 13 c -1.07 0 -2.125 0.133 -3.125 0.406 l 6.313 3.938 c 0.063 0.027 0.125 0.063 0.188 0.094 c 0.523 0.246 1.02 0.551 1.469 0.906 c 0.055 0.043 0.105 0.082 0.156 0.125 l 6.844 4.219 l 1.125 -4 l -2.438 0.938 c -1.828 -4.02 -5.922 -6.625 -10.531 -6.625 m -7.03 2.313 c -1.633 1.207 -2.949 2.82 -3.719 4.719 l 3.594 1.352 c 0.035 -0.094 0.086 -0.164 0.125 -0.25 m 0 -5.816" fill="#f9f9f9" stroke="none" fill-rule="nonzero" fill-opacity="1"/><path d="m 13.03 22.438 l -2.031 6.781 l 2.469 -0.906 c 0.777 1.742 2.01 3.219 3.531 4.344 l 0 -8.06 l -3.969 -2.156 m 19.75 4.871 l -11.563 7.344 c 0.895 0.223 1.852 0.344 2.813 0.344 c 4.734 0 8.93 -2.73 10.688 -6.938 m -1.938 -0.75" fill="#f9f9f9" stroke="none" fill-rule="nonzero" fill-opacity="1"/><path d="M 19 14 L 19 33.996094 L 33.996094 24 M 19 14 " fill="#f9f9f9" stroke="none" fill-rule="nonzero" fill-opacity="1"/></g></svg>