<!-- color: #1893c8 --><svg xmlns="http://www.w3.org/2000/svg" viewBox="0 0 48 48"><g><path d="m 17 35 l 0 -16 l -5 0 l 0 16 m 5 0" fill="#f9f9f9" stroke="none" fill-rule="evenodd" fill-opacity="1"/><path d="m 25 35 l 0 -9 c 0 -2 1 -3 3 -3 c 2 0 3 1 3 3 l 0 9 l 5 0 l 0 -9 c 0 -4.766 -2.613 -7 -6 -7 c -2.164 0.066 -3.734 1.523 -5 3 l 0 -3 l -5 0 c 0.066 1.457 0 16 0 16 m 5 0" fill="#f9f9f9" stroke="none" fill-rule="evenodd" fill-opacity="1"/><path d="m 17 15.5 c 0 1.379 -1.121 2.5 -2.5 2.5 c -1.379 0 -2.5 -1.121 -2.5 -2.5 c 0 -1.379 1.121 -2.5 2.5 -2.5 c 1.379 0 2.5 1.121 2.5 2.5 m 0 0" fill="#f9f9f9" stroke="none" fill-rule="nonzero" fill-opacity="1"/></g></svg>