<!-- color: #dfdfdf --><svg xmlns="http://www.w3.org/2000/svg" viewBox="0 0 48 48"><g><path d="m 14 12 c -1 0 -2 1 -2 2 l 0 7 c 0 1 1 2 2 2 c 1 0 2 -1 2 -2 l 0 -3 l 2 2 l 0 3 l 3 0 l 0 -1 c -0.031 -0.664 0.301 -0.996 1 -1 l 1 0 l 0 -3 l -3 0 l -2 -2 l 3 0 c 1 0 2 -1 2 -2 c 0 -1 -1 -2 -2 -2 m 6 0 c -1 0 -2 1 -2 2 c 0 1 1 2 2 2 l 3 0 l -2 2 l -3 0 l 0 3 l 1 0 c 0.664 -0.031 0.996 0.301 1 1 l 0 1 l 3 0 l 0 -3 l 2 -2 l 0 3 c 0 1 1 2 2 2 c 1 0 2 -1 2 -2 l 0 -7 c 0 -1 -1 -2 -2 -2 m -16 13 l 0 3 c 0 1 1 2 2 2 l 3 0 l 0 -3 l -1 0 c -0.664 0.031 -0.996 -0.301 -1 -1 l 0 -1 m 6 0 l 0 1 c 0.031 0.664 -0.301 0.996 -1 1 l -1 0 l 0 3 l 3 0 l 2 2 l -3 0 c -1 0 -2 1 -2 2 c 0 1 1 2 2 2 l 7 0 c 1 0 2 -1 2 -2 l 0 -7 c 0 -1 -1 -2 -2 -2 c -1 0 -2 1 -2 2 l 0 3 l -2 -2 l 0 -3 m -3 0" fill="#f9f9f9" stroke="none" fill-rule="nonzero" fill-opacity="1"/></g></svg>