<!-- color: #546959 --><svg xmlns="http://www.w3.org/2000/svg" viewBox="0 0 48 48"><g><path d="m 24 9 c -8.273 0 -15 6.727 -15 15 c 0 8.27 6.727 15 15 15 c 8.27 0 15 -6.73 15 -15 c 0 -8.273 -6.73 -15 -15 -15 m 0 2 c 7.191 0 13 5.805 13 13 c 0 7.191 -5.809 13 -13 13 c -7.195 0 -13 -5.809 -13 -13 c 0 -7.195 5.805 -13 13 -13 m 0 0" fill="#f9f9f9" stroke="none" fill-rule="nonzero" fill-opacity="1"/><path d="m 18.05 16 c -1.254 0.18 -2.418 0.449 -3.508 0.816 l 1.23 2.711 c -1.996 0.82 -3.641 1.988 -4.824 3.395 c -0.367 0.441 -0.676 0.926 -0.953 1.402 c 0.172 2.859 1.129 5.48 2.609 7.676 l 2.703 -0.785 l 5.07 -1.469 l 4.059 -1.176 l -1.414 -2.809 l -2.609 -5.129 c 0.137 -0.027 0.285 -0.07 0.426 -0.098 c 6.523 -1.238 10.1 0.676 12.05 2.707 l -4.98 1.273 l -2.059 -3.523 c -1.191 -0.074 -2.566 0.004 -4.148 0.293 l 2.219 4.246 l 1.012 1.926 l 0.43 0.816 l 9.16 -2.645 l 3.41 -1.02 c 0.031 -0.422 0.063 -0.848 0.063 -1.27 c 0 -0.563 -0.035 -1.121 -0.094 -1.664 c -1.719 -1.336 -4.258 -2.461 -7.01 -3.039 c -3.484 -0.867 -7.266 -0.816 -11.125 -0.195 c -0.141 0.023 -0.297 0.043 -0.43 0.066 l -1.289 -2.52 m -1.227 5.887 l 2.242 4.934 l -4.977 1.273 c -0.453 -2.18 -0.105 -4.594 2.734 -6.207 m 0 0" fill="#f9f9f9" stroke="none" fill-rule="evenodd" fill-opacity="1"/></g></svg>