<!-- color: #FD3F92 --><svg xmlns="http://www.w3.org/2000/svg" viewBox="0 0 48 48"><g><path d="m 15.172 15.05 c -0.996 0 -1.961 0.16 -2.531 0.883 c -0.879 1.105 -0.598 2.926 -0.598 4.656 c 0 2.039 -0.063 4.219 0.32 6.23 c 0.406 2.148 1.836 4.496 3.453 5.953 c 1.172 1.059 2.426 1.809 3.879 2.418 c 1.418 0.543 2.777 0.793 4.207 0.809 c 1.305 0 2.621 -0.148 3.867 -0.586 c 1.262 -0.449 2.547 -1.086 3.613 -1.906 c 1.113 -0.934 2 -1.855 2.703 -3.01 c 0.516 -0.863 0.945 -1.801 1.266 -2.754 c 0.793 -2.371 0.613 -5.148 0.613 -7.609 c 0 -1.113 0.223 -3.125 -0.465 -4.066 c -1.035 -1.422 -3.352 -1.012 -5.05 -1.012 l -12.883 0 c -0.645 0 -1.613 0 -2.391 0 m 14.5 6.074 c 0.277 0 0.566 0.078 0.867 0.273 c 0.684 0.453 0.902 1.535 0.422 2.207 c -1.973 1.922 -4.535 5.242 -6.957 6.109 c -2.758 -1.727 -4.938 -3.895 -6.965 -6.176 c -0.609 -1.02 0.098 -2.234 1.207 -2.395 c 0.711 -0.105 1.215 0.336 1.711 0.773 c 1.27 1.254 2.938 3.117 4.047 3.605 c 1.348 -0.547 2.363 -1.953 3.512 -3.035 c 0.605 -0.594 1.328 -1.355 2.156 -1.363 m 0 0" fill="#f9f9f9" stroke="none" fill-rule="nonzero" fill-opacity="1"/></g></svg>