<!-- color: #8056c0 --><svg xmlns="http://www.w3.org/2000/svg" viewBox="0 0 48 48"><g><path d="m 9 15 l 0.004 0.996 l 3.961 0 l 7.496 9.957 l 0.227 4.754 c -0.199 0.824 -0.84 1.117 -1.297 1.289 l -2.773 0 l 0.031 1 l 12.34 0 l 0 -1 l -3.633 0 c -0.453 0.074 -0.418 -0.934 -0.457 -1.211 l -0.23 -4.52 c 0.059 -0.363 0.133 -0.727 0.613 -1.09 l 7.188 -5.844 l 3.359 -0.336 l 0.535 -1 l -11.188 0 l 0.18 1 l 3.211 0.102 c 0.191 0.16 0.57 0.145 0.152 0.859 l -4.664 4.125 c -0.246 0.152 -0.434 0.07 -0.613 -0.074 l -5.195 -6.938 c -0.387 -0.551 -0.012 -1.027 0.457 -1.074 l 3.359 0 l 0 -1 l -13.06 0 m 0 0.004" fill="#f9f9f9" stroke="none" fill-rule="nonzero" fill-opacity="1"/><path d="m 31.824 30.27 l 1.488 0.938 l -1 1.789 l -1.516 -0.965 l 1.027 -1.766 m 0 0.004" fill="#f9f9f9" stroke="none" fill-rule="nonzero" fill-opacity="1"/><path d="m 32.539 28.629 l 1.262 0.82 l 5.195 -8.688 l -2.941 -1.715 l -3.52 9.582 m 0.004 0" fill="#f9f9f9" stroke="none" fill-rule="nonzero" fill-opacity="1"/></g></svg>