<!-- color: #3469a7 --><svg xmlns="http://www.w3.org/2000/svg" viewBox="0 0 48 48"><g><path d="m 28.492 23.875 c -0.148 -2.996 -2.285 -4.797 -4.859 -4.797 l -0.098 0 c -2.973 0 -4.625 2.438 -4.625 5.207 c 0 3.098 1.996 5.059 4.613 5.059 c 2.918 0 4.836 -2.23 4.973 -4.863 m -4.945 -8.09 c 1.984 0 3.855 0.918 5.227 2.352 l 0 0.004 c 0 -0.688 0.441 -1.207 1.059 -1.207 l 0.156 0 c 0.965 0 1.164 0.949 1.164 1.254 l 0.004 10.695 c -0.066 0.703 0.695 1.063 1.117 0.613 c 1.648 -1.766 3.621 -9.07 -1.023 -13.309 c -4.332 -3.949 -10.141 -3.301 -13.227 -1.082 c -3.285 2.363 -5.387 7.586 -3.344 12.496 c 2.223 5.352 8.59 6.945 12.375 5.355 c 1.918 -0.809 2.801 1.895 0.813 2.773 c -3.01 1.336 -11.379 1.203 -15.289 -5.859 c -2.641 -4.766 -2.5 -13.152 4.504 -17.496 c 5.363 -3.324 12.426 -2.406 16.688 2.234 c 4.457 4.848 4.195 13.93 -0.145 17.457 c -1.973 1.602 -4.895 0.043 -4.875 -2.293 l -0.023 -0.766 c -1.371 1.418 -3.195 2.246 -5.18 2.246 c -3.926 0 -7.383 -3.602 -7.383 -7.691 c 0 -4.133 3.457 -7.777 7.383 -7.777" fill="#f9f9f9" stroke="none" fill-rule="evenodd" fill-opacity="1"/></g></svg>