<!-- color: #eeeeee --><svg xmlns="http://www.w3.org/2000/svg" viewBox="0 0 48 48"><g><path d="m 32.375 12 c -0.949 0.027 -1.879 0.668 -2.031 1.844 c -0.242 1.902 1.578 1.188 3.03 1.188 c 1.453 0 1.93 3.086 1.563 4.75 c -0.273 1.25 -2.543 3.781 -7.375 3.281 l 0.5 1.563 l 1.625 0.531 l -1.625 0.531 l -0.531 1.625 l -0.531 -1.625 l -1.625 -0.531 l 1.625 -0.531 l 0.5 -1.563 c -1.57 -0.172 -3.398 -0.668 -5.531 -1.625 c -7.195 -3.234 -10.781 1.07 -10.969 1.156 c 0.688 6.426 6.227 13.406 12.969 13.406 c 7.188 0 13.03 -7.699 13.03 -14.75 c 0 -0.809 -0.102 -1.609 -0.25 -2.375 c -0.133 -0.391 -0.277 -0.773 -0.375 -1.125 c -0.176 -0.633 -0.359 -1.16 -0.531 -1.656 c -0.008 -0.016 0.008 -0.043 0 -0.063 c -0.688 -1.5 -1.648 -2.84 -2.844 -3.969 c -0.004 -0.008 -0.027 0.012 -0.031 0 c -0.18 -0.039 -0.379 -0.063 -0.563 -0.063 m -13.281 10.813 c 0.148 -0.051 0.289 -0.027 0.438 0.125 l 10.156 10.156 c 0.301 0.301 0.176 0.668 -0.125 0.969 c -0.301 0.301 -0.699 0.426 -1 0.125 l -10.125 -10.156 c -0.301 -0.305 -0.113 -0.574 0.188 -0.875 l 0.031 0 c 0.148 -0.148 0.289 -0.293 0.438 -0.344 m 3.906 0 l 0.344 1.094 l 1.094 0.344 l -1.094 0.375 l -0.344 1.063 l -0.375 -1.063 l -1.094 -0.375 l 1.094 -0.344 m -1.813 1 c -0.074 0.023 -0.172 0.109 -0.25 0.188 c -0.156 0.156 -0.25 0.281 -0.094 0.438 l 8.375 8.375 c 0.152 0.152 0.285 0.031 0.438 -0.125 c 0.156 -0.156 0.281 -0.25 0.125 -0.406 l -8.375 -8.375 c -0.078 -0.078 -0.145 -0.117 -0.219 -0.094 m 0.375 4.03 l 0.344 1.094 l 1.094 0.344 l -1.094 0.375 l -0.344 1.063 l -0.375 -1.063 l -1.063 -0.375 l 1.063 -0.344 m 0.375 -1.094" fill="#f9f9f9" stroke="none" fill-rule="nonzero" fill-opacity="1"/><path d="m 30.395 16.516 c 0 0.395 -0.328 0.715 -0.727 0.715 c -0.402 0 -0.73 -0.32 -0.73 -0.715 c 0 -0.395 0.328 -0.711 0.73 -0.711 c 0.398 0 0.727 0.316 0.727 0.711 m 0 0" fill="#f9f9f9" stroke="none" fill-rule="nonzero" fill-opacity="1"/><path d="m 28.938 13.934 c 0 0.277 -0.23 0.504 -0.516 0.504 c -0.285 0 -0.516 -0.227 -0.516 -0.504 c 0 -0.281 0.23 -0.508 0.516 -0.508 c 0.285 0 0.516 0.227 0.516 0.508 m 0 0" fill="#f9f9f9" stroke="none" fill-rule="nonzero" fill-opacity="1"/></g></svg>