<!-- color: #e1e1e1 --><svg xmlns="http://www.w3.org/2000/svg" viewBox="0 0 48 48"><g><path d="m 19.18 14.949 l 1.531 0 l 3.813 10 l -1.406 0 l -0.906 -2.563 l -4.5 0 l -0.941 2.563 l -1.406 0 m 4.566 -8.656 l -1.813 4.969 l 3.656 0 m -1.844 -4.969" fill="#f9f9f9" stroke="none" fill-rule="nonzero" fill-opacity="1"/><path d="m 30.12 32.27 l 2.145 -2.145 l 4.738 4.734 l -2.145 2.145 m -4.738 -4.734" fill="#f9f9f9" stroke="none" fill-rule="nonzero" fill-opacity="1"/><path d="m 25.574 27.08 l 1.504 -1.504 l 4.734 4.734 l -1.504 1.504 m -4.734 -4.734" fill="#f9f9f9" stroke="none" fill-rule="nonzero" fill-opacity="1"/><path d="m 19.938 11 c -2.293 0 -4.566 0.879 -6.313 2.625 c -3.488 3.496 -3.488 9.172 0 12.656 c 3.496 3.484 9.168 3.484 12.656 0 c 3.488 -3.492 3.488 -9.168 0 -12.656 c -1.75 -1.742 -4.051 -2.625 -6.344 -2.625 m 0 1.469 c 1.914 0 3.816 0.723 5.281 2.188 c 2.926 2.926 2.926 7.664 0 10.594 c -2.926 2.922 -7.629 2.922 -10.563 0 c -2.926 -2.922 -2.926 -7.66 0 -10.594 c 1.461 -1.461 3.367 -2.188 5.281 -2.188 m 0 0" fill="#f9f9f9" stroke="none" fill-rule="nonzero" fill-opacity="1"/></g></svg>