<!-- color: #52525d --><svg xmlns="http://www.w3.org/2000/svg" viewBox="0 0 48 48"><g><path d="m 16.313 12 c -2.934 0 -5.313 2.238 -5.313 5 c 0 2.762 2.379 5 5.313 5 l 15.375 0 c 2.938 0 5.313 -2.238 5.313 -5 c 0 -2.762 -2.375 -5 -5.313 -5 m -15.438 1 l 4.5 0 c 2.348 0 4.25 1.793 4.25 4 c 0 2.211 -1.902 4 -4.25 4 l -4.5 0 c -2.348 0 -4.25 -1.789 -4.25 -4 c 0 -2.207 1.902 -4 4.25 -4 m 0.063 13 c -2.934 0 -5.313 2.238 -5.313 5 c 0 2.762 2.379 5 5.313 5 l 15.375 0 c 2.938 0 5.313 -2.238 5.313 -5 c 0 -2.762 -2.375 -5 -5.313 -5 m -4.438 1 l 4.5 0 c 2.352 0 4.25 1.793 4.25 4 c 0 2.211 -1.898 4 -4.25 4 l -4.5 0 c -2.348 0 -4.25 -1.789 -4.25 -4 c 0 -2.207 1.902 -4 4.25 -4 m 0 0" fill="#f9f9f9" stroke="none" fill-rule="nonzero" fill-opacity="1"/></g></svg>