<?xml version="1.0" encoding="UTF-8" standalone="no"?>
<!-- Created with Inkscape (http://www.inkscape.org/) -->

<svg
   xmlns:dc="http://purl.org/dc/elements/1.1/"
   xmlns:cc="http://creativecommons.org/ns#"
   xmlns:rdf="http://www.w3.org/1999/02/22-rdf-syntax-ns#"
   xmlns:svg="http://www.w3.org/2000/svg"
   xmlns="http://www.w3.org/2000/svg"
   xmlns:sodipodi="http://sodipodi.sourceforge.net/DTD/sodipodi-0.dtd"
   xmlns:inkscape="http://www.inkscape.org/namespaces/inkscape"
   width="48"
   height="48"
   id="svg2"
   version="1.1"
   inkscape:version="0.48.4 r9939"
   sodipodi:docname="folder-music.svg"
   inkscape:export-filename="/media/Data/Main/Visuals/Icons/Numix/Desktop/repos/numix-wiki/Gjorgi/Numix-folders/48/New/folder-144.png"
   inkscape:export-xdpi="270"
   inkscape:export-ydpi="270">
  <defs
     id="defs4" />
  <sodipodi:namedview
     id="base"
     pagecolor="#ffffff"
     bordercolor="#666666"
     borderopacity="1.0"
     inkscape:pageopacity="0.0"
     inkscape:pageshadow="2"
     inkscape:zoom="24.251465"
     inkscape:cx="6.2981637"
     inkscape:cy="22.744443"
     inkscape:document-units="px"
     inkscape:current-layer="layer1"
     showgrid="true"
     inkscape:window-width="1920"
     inkscape:window-height="1023"
     inkscape:window-x="0"
     inkscape:window-y="28"
     inkscape:window-maximized="1"
     showguides="true"
     inkscape:guide-bbox="true">
    <inkscape:grid
       type="xygrid"
       id="grid2985"
       empspacing="5"
       visible="true"
       enabled="true"
       snapvisiblegridlinesonly="true" />
  </sodipodi:namedview>
  <metadata
     id="metadata7">
    <rdf:RDF>
      <cc:Work
         rdf:about="">
        <dc:format>image/svg+xml</dc:format>
        <dc:type
           rdf:resource="http://purl.org/dc/dcmitype/StillImage" />
        <dc:title></dc:title>
      </cc:Work>
    </rdf:RDF>
  </metadata>
  <g
     inkscape:label="Layer 1"
     inkscape:groupmode="layer"
     id="layer1"
     transform="translate(0,-1004.3622)">
    <path
       style="fill:#e9a439;fill-opacity:1;stroke:none"
       d="m 6.9,1015.3622 34.2,0 c 0.9,0 1.9,1 1.9,2 l 0,4 c 0,1.108 -0.8474,2 -1.9,2 l -34.2,0 c -1.0526,0 -1.9,-0.892 -1.9,-2 l 0,-6 z"
       id="path3811" />
    <path
       style="fill:#e9a439;fill-opacity:1;stroke:none"
       d="m 5,1016.3622 c 0,-2 1e-7,-3 1.8181819,-3 l 6.3636361,0 c 1.818182,0 1.818182,1 1.818182,3 z"
       id="rect3760"
       inkscape:connector-curvature="0"
       sodipodi:nodetypes="csscc" />
    <path
       style="fill:#000000;stroke:none;stroke-width:1px;stroke-linecap:butt;stroke-linejoin:miter;stroke-opacity:1;fill-opacity:1;opacity:0.03"
       d="m 5,14 0,5 38,0 0,-5 z"
       id="path3807"
       inkscape:connector-curvature="0"
       transform="translate(0,1004.3622)" />
    <rect
       style="fill:#f5c14e;fill-opacity:1;stroke:none"
       id="rect2990"
       width="42"
       height="23"
       x="3"
       y="1020.3622"
       rx="2"
       ry="2" />
    <path
       style="fill:#ffffff;fill-opacity:1;stroke:none;opacity:0.1"
       d="M 5 16 C 3.892 16 3 16.892 3 18 L 3 19 C 3 17.892 3.892 17 5 17 L 43 17 C 44.108 17 45 17.892 45 19 L 45 18 C 45 16.892 44.108 16 43 16 L 5 16 z "
       transform="translate(0,1004.3622)"
       id="rect3796" />
    <path
       style="opacity:0.05;fill:#000000;fill-opacity:1;stroke:none"
       d="m 15,11 0,1 1.90625,0 24.1875,0 C 41.99375,12 43,13 43,14 l 0,-1 c 0,-1 -1.00625,-2 -1.90625,-2 l -24.1875,0 z"
       transform="translate(0,1004.3622)"
       id="path3813"
       inkscape:connector-curvature="0"
       sodipodi:nodetypes="cccscsscc" />
    <path
       style="fill:#000000;fill-opacity:1;stroke:none;opacity:0.05"
       d="M 6.8125 9 C 4.9943182 9 5 10 5 12 L 5.03125 12 C 5.0846676 10.689452 5.3406999 10 6.8125 10 L 13.1875 10 C 14.6593 10 14.915332 10.689452 14.96875 12 L 15 12 C 15 10 15.005682 9 13.1875 9 L 6.8125 9 z "
       transform="translate(0,1004.3622)"
       id="path3818" />
    <g
       id="g3897"
       transform="translate(37.390159,-0.50640238)"
       style="opacity:0.2">
      <path
         transform="matrix(1.6457927,0,0,1.7226703,-7.161196,1022.6419)"
         d="m -4.9999999,8.2585173 c 0,0.9617941 -0.8161087,1.7414823 -1.8228298,1.7414823 -1.0067211,0 -1.8228299,-0.7796882 -1.8228299,-1.7414823 0,-0.9617942 0.8161088,-1.7414824 1.8228299,-1.7414824 1.0067211,0 1.8228298,0.7796882 1.8228298,1.7414824 z"
         sodipodi:ry="1.7414824"
         sodipodi:rx="1.8228298"
         sodipodi:cy="8.2585173"
         sodipodi:cx="-6.8228297"
         id="path3001"
         style="fill:#3c2f1b;fill-opacity:1;stroke:none"
         sodipodi:type="arc" />
      <path
         sodipodi:type="arc"
         style="fill:#3c2f1b;fill-opacity:1;stroke:none"
         id="path3003"
         sodipodi:cx="-6.8228297"
         sodipodi:cy="8.2585173"
         sodipodi:rx="1.8228298"
         sodipodi:ry="1.7414824"
         d="m -4.9999999,8.2585173 c 0,0.9617941 -0.8161087,1.7414823 -1.8228298,1.7414823 -1.0067211,0 -1.8228299,-0.7796882 -1.8228299,-1.7414823 0,-0.9617942 0.8161088,-1.7414824 1.8228299,-1.7414824 1.0067211,0 1.8228298,0.7796882 1.8228298,1.7414824 z"
         transform="matrix(1.6457927,0,0,1.7226703,2.838804,1022.6419)" />
      <rect
         ry="1"
         rx="1"
         y="1025.8687"
         x="-17.39016"
         height="12"
         width="2"
         id="rect3005"
         style="fill:#3c2f1b;fill-opacity:1;stroke:none" />
      <rect
         style="fill:#3c2f1b;fill-opacity:1;stroke:none"
         id="rect3007"
         width="2"
         height="12"
         x="-7.3901591"
         y="1025.8687"
         rx="1"
         ry="1" />
      <rect
         ry="2"
         rx="2"
         y="1023.8686"
         x="-17.39016"
         height="5"
         width="12"
         id="rect3009"
         style="fill:#3c2f1b;fill-opacity:1;stroke:none" />
    </g>
  </g>
</svg>
