<!-- color: #4476a2 --><svg xmlns="http://www.w3.org/2000/svg" viewBox="0 0 48 48"><g><path d="m 17.281 14 c -0.781 0 -1.102 0.41 -1.219 1 l -3.063 0 l 0 4 l -2 0 l 2 14 l 22 0 l 2 -14 l -2 0 l 0 -4 l -12.06 0 c -0.117 -0.59 -0.438 -1 -1.219 -1 m -6.719 2 l 17 0 l 0 1 l -16 0 c -0.082 0.754 -0.07 1.418 -0.031 2 l -0.969 0 m 2 -1 l 15 0 l 0 1 l -15.03 0 c 0.016 -0.309 0.031 -0.598 0.031 -1 m 7.06 2 c 0.785 0 1.438 0.617 1.438 1.375 c 0 0.762 -0.652 1.375 -1.438 1.375 c -0.785 0 -1.406 -0.613 -1.406 -1.375 c 0 -0.758 0.621 -1.375 1.406 -1.375 m -5.094 2.813 c 0.078 0.008 0.156 0.051 0.219 0.094 l 4.813 0.75 l 4.844 -0.75 c 0.051 -0.035 0.121 -0.055 0.188 -0.063 c 0.188 -0.02 0.371 0.051 0.438 0.219 c 0.066 0.168 -0.004 0.363 -0.156 0.469 l -3.813 1.344 l 0.031 2.531 l 1.313 4 c 0.117 0.188 0.043 0.426 -0.156 0.531 c -0.199 0.109 -0.449 0.063 -0.563 -0.125 l -2.125 -4.313 l -2.156 4.313 c -0.133 0.184 -0.398 0.215 -0.594 0.094 c -0.191 -0.121 -0.223 -0.352 -0.094 -0.531 l 1.344 -4 l 0 -2.656 l -3.75 -1.156 c -0.137 -0.066 -0.25 -0.195 -0.25 -0.344 c 0.004 -0.145 0.109 -0.309 0.25 -0.375 c 0.07 -0.031 0.141 -0.039 0.219 -0.031 m 0 0" fill="#f9f9f9" stroke="none" fill-rule="nonzero" fill-opacity="1"/></g></svg>