<!-- color: #d6e4eb --><svg xmlns="http://www.w3.org/2000/svg" viewBox="0 0 48 48"><g><path d="m 38 16.664 c -3.43 3.051 -13.684 14.555 -15.422 14.555 c -1.141 0 -2.102 -0.797 -2.422 -2.02 c -0.184 -0.75 0.098 0.199 -10.156 4.797 c 1.027 -0.656 8.219 -6.18 9.156 -6.852 c 0.934 -0.668 5.547 -3.906 6.895 -4.938 c 2.469 -1.922 3.43 -3.473 3.43 -5.582 c 0 -1.645 -1.01 -2.629 -2.605 -2.629 c -1 0 -1.738 0.234 -2.789 0.844 c -1.734 1.035 -3.289 2.301 -4.25 3.426 c -1.734 2.16 -3.289 7.32 -3.289 11.121 c 0 2.77 1.418 4.504 3.746 4.504 c 2.695 0 12.176 -9.227 15.785 -12.934 l 1.922 -4.297 m -17.934 8.227 c 0.777 -5.02 2.879 -8.918 4.844 -8.918 c 0.777 0 1.281 0.801 1.281 1.926 c 0 2.348 -1.234 3.754 -6.125 6.992" fill="#f9f9f9" stroke="none" fill-rule="nonzero" fill-opacity="1"/></g></svg>