<!-- color: #eeeeee --><svg xmlns="http://www.w3.org/2000/svg" viewBox="0 0 48 48"><g><path d="m 14 12 l 0 2 l 2 0 l 0 2 l -2 0 l 0 3 l 2 0 l 0 2 l -2 0 l 0 6 l 2 0 l 0 2 l -2 0 l 0 3 l 2 0 l 0 2 l -2 0 l 0 2 l 22 0 l 0 -24 m -22 22 l 0 -2 l -2 0 l 0 2 m 2 -5 l 0 -2 l -2 0 l 0 2 m 2 -8 l 0 -2 l -2 0 l 0 2 m 2 -5 l 0 -2 l -2 0 l 0 2 m 13 2 c 0.516 0 1.023 0.047 1.531 0.156 c 0.684 0.141 1.336 0.402 1.969 0.719 l -1.125 1.344 c -0.695 -0.438 -1.492 -0.719 -2.375 -0.719 c -2.48 0 -4.5 2.02 -4.5 4.5 c 0 1.152 0.441 2.203 1.156 3 l -1.25 1.469 c -0.789 -0.512 -1.551 -1.094 -2.25 -1.75 c -0.695 -0.652 -1.395 -1.355 -1.969 -2.156 c -0.25 -0.352 -0.25 -0.773 0 -1.125 c 0.191 -0.266 0.387 -0.508 0.594 -0.75 c 1.125 -1.316 2.434 -2.492 3.844 -3.344 c 0.902 -0.539 1.844 -0.98 2.844 -1.188 c 0.504 -0.109 1.023 -0.156 1.531 -0.156 m 4.625 1.5 c 1.316 0.836 2.539 1.949 3.594 3.188 c 0.207 0.242 0.402 0.484 0.594 0.75 c 0.25 0.352 0.25 0.773 0 1.125 c -0.574 0.805 -1.242 1.504 -1.938 2.156 c -1.5 1.406 -3.234 2.59 -5.125 3.063 c -0.586 0.148 -1.156 0.219 -1.75 0.219 c -0.59 0 -1.168 -0.07 -1.75 -0.219 c -0.602 -0.152 -1.188 -0.379 -1.75 -0.656 l 1.125 -1.344 c 0.695 0.438 1.492 0.719 2.375 0.719 c 2.48 0 4.5 -2.01 4.5 -4.5 c 0 -1.145 -0.449 -2.176 -1.156 -2.969 m -3.344 0.469 c 0.383 0 0.738 0.094 1.063 0.25 l -0.25 0.281 c -0.457 0.094 -0.813 0.484 -0.813 0.969 c 0 0.012 0 0.02 0 0.031 l -2.031 2.406 c -0.285 -0.406 -0.469 -0.902 -0.469 -1.438 c 0 -1.379 1.121 -2.5 2.5 -2.5 m 2.031 1.063 c 0.285 0.406 0.469 0.906 0.469 1.438 c 0 1.383 -1.121 2.5 -2.5 2.5 c -0.383 0 -0.738 -0.098 -1.063 -0.25 l 1.906 -2.281 c 0.055 0.008 0.098 0.031 0.156 0.031 c 0.551 0 1 -0.449 1 -1 c 0 -0.113 -0.027 -0.211 -0.063 -0.313 m 0.094 -0.125" fill="#f9f9f9" stroke="none" fill-rule="nonzero" fill-opacity="1"/></g></svg>