<!-- color: #eeeeee --><svg xmlns="http://www.w3.org/2000/svg" viewBox="0 0 48 48"><g><path d="m 23.5 13 c -2.75 -0.09 -5.5 2.074 -5.5 6.438 c 0.094 1.086 0.867 2.609 1.5 3.125 l 0 -3.125 c 0.32 -1.367 1.656 -2.766 2.313 -2.75 c 1.129 0.145 1.891 1.156 2.563 2.125 c 0.672 0.801 3.074 0.672 3.625 -0.094 l 0 3.281 c 0.629 -0.242 0.867 -1.195 1 -2 c 0 -4.578 -2.75 -6.91 -5.5 -7 m -2.719 10.875 l -1.406 1.438 c -2.449 1.227 -4.871 4.094 -5.375 6.688 l 0 1 l 20 0 l 0 -1 c -0.504 -2.227 -3.043 -5.246 -6.219 -6.688 l -0.031 -0.031 l -1.375 -1.406 l -0.281 0 c -0.691 0.715 -1.57 1.156 -2.531 1.156 c -0.961 0 -1.84 -0.441 -2.531 -1.156 m 2.5 2.844 l 0.063 0 l -0.031 0.031 m -0.031 -0.031" fill="#f9f9f9" stroke="none" fill-rule="nonzero" fill-opacity="1"/></g></svg>