<!-- color: #eeeeee --><svg xmlns="http://www.w3.org/2000/svg" viewBox="0 0 48 48"><g><path d="m 14.844 12 c -0.281 0.047 -0.844 0.25 -0.844 1 l 0 22 c 0 0 0 1 1 1 l 18 0 c 0 0 1 0 1 -1 l 0 -15 c 0.004 -4 0 -6 0 -7 c 0 -1 0 -1 -1 -1 c -1 0 -4.098 -0.008 -7 0 c -3.711 -0.004 -8.746 0 -11 0 c 0 0 -0.063 -0.016 -0.156 0 m 9.156 11 c 0.512 0 1.023 0.039 1.531 0.125 c 0.996 0.176 1.941 0.547 2.844 1 c 1.41 0.711 2.727 1.688 3.844 2.781 c 0.207 0.203 0.406 0.406 0.594 0.625 c 0.25 0.293 0.25 0.641 0 0.938 c -0.574 0.668 -1.242 1.27 -1.938 1.813 c -1.5 1.172 -3.207 2.141 -5.094 2.531 c -0.586 0.121 -1.188 0.188 -1.781 0.188 c -0.59 0 -1.168 -0.066 -1.75 -0.188 c -1.895 -0.395 -3.598 -1.359 -5.094 -2.531 c -0.691 -0.543 -1.395 -1.145 -1.969 -1.813 c -0.254 -0.297 -0.254 -0.645 0 -0.938 c 0.188 -0.219 0.414 -0.422 0.625 -0.625 c 1.121 -1.094 2.402 -2.07 3.813 -2.781 c 0.902 -0.453 1.844 -0.824 2.844 -1 c 0.5 -0.086 1.016 -0.125 1.531 -0.125 m 0 1.594 c -1.91 0.004 -3.469 1.527 -3.469 3.406 c 0 1.879 1.559 3.402 3.469 3.406 c 1.926 -0.004 3.469 -1.527 3.469 -3.406 c 0 -1.879 -1.543 -3.402 -3.469 -3.406 m 0 1.906 c 0.824 0 1.5 0.672 1.5 1.5 c 0 0.828 -0.672 1.5 -1.5 1.5 c -0.832 0 -1.5 -0.672 -1.5 -1.5 c 0 -0.828 0.668 -1.5 1.5 -1.5 m 0 0" fill="#f9f9f9" stroke="none" fill-rule="nonzero" fill-opacity="1"/></g></svg>