<!-- color: #eeeeee --><svg xmlns="http://www.w3.org/2000/svg" viewBox="0 0 48 48"><g><path d="m 21.469 12 c -1.121 0.02 -2.215 0.383 -3.25 0.969 c -1.883 -0.469 -3.867 -0.887 -5.313 -0.875 c -0.816 0.008 -1.453 0.137 -1.781 0.469 c -1.051 1.348 0.23 4.02 1.563 6.625 c -0.547 1.039 -1.012 2.129 -1.375 3.219 c -1.508 0.461 -2.984 1.496 -3.781 3.03 c 1.281 -0.824 2.117 -0.73 3.063 -0.125 c -0.047 0.305 -0.098 0.609 -0.125 0.906 c -0.973 0.551 -1.785 1.223 -2.594 2.531 c 0.898 -0.777 1.844 -0.691 2.625 -0.188 c 0.047 0.395 0.117 0.77 0.219 1.125 c -1.715 0.832 -1.621 2.027 -1.438 2.719 c 0.57 -0.766 1.109 -1.363 1.906 -1.594 c 0.215 0.391 0.465 0.738 0.781 1.031 c 0.324 0.25 0.625 0.438 0.906 0.594 c 0.012 0.281 0.02 0.559 0.094 0.844 c 0.379 -0.152 0.695 -0.254 1.031 -0.375 c 1.219 0.305 2.273 -0.004 3.906 0.406 c 1.895 0.48 2.73 2.859 6 2.688 l 0.094 -0.031 l 0.094 0.031 c 3.273 0.172 4.109 -2.207 6 -2.688 c 1.641 -0.41 2.68 -0.129 3.906 -0.438 c 0.281 0.105 0.535 0.188 0.844 0.313 c 0.063 -0.238 0.105 -0.453 0.125 -0.688 c 0.328 -0.168 0.676 -0.359 1.063 -0.656 c 0.313 -0.289 0.566 -0.648 0.781 -1.031 c 0.695 0.266 1.195 0.797 1.719 1.5 c 0.176 -0.668 0.277 -1.801 -1.25 -2.625 c 0.117 -0.406 0.203 -0.852 0.25 -1.313 c 0.738 -0.395 1.582 -0.434 2.406 0.281 c -0.766 -1.242 -1.531 -1.902 -2.438 -2.438 c -0.035 -0.359 -0.094 -0.723 -0.156 -1.094 c 0.895 -0.535 1.711 -0.57 2.938 0.219 c -0.766 -1.477 -2.176 -2.453 -3.625 -2.938 c -0.406 -1.219 -0.93 -2.445 -1.563 -3.594 c 1.262 -2.484 2.379 -4.965 1.375 -6.25 l -0.031 0 c -0.328 -0.332 -0.965 -0.461 -1.781 -0.469 c -1.359 -0.012 -3.215 0.348 -5 0.781 c -0.992 -0.543 -2.055 -0.855 -3.125 -0.875 c -1.305 -0.082 -1.77 0.523 -2.531 0.875 c -0.762 -0.355 -1.227 -0.957 -2.531 -0.875 m -7.625 1.063 c 0.969 0.035 2.176 0.281 3.375 0.563 c -1.547 1.148 -2.922 2.801 -4.03 4.688 c -0.973 -1.93 -1.84 -3.848 -1.063 -4.844 c 0.199 -0.195 0.512 -0.328 0.938 -0.375 c 0.23 -0.023 0.5 -0.043 0.781 -0.031 m 20.13 0.094 c 0.645 0.004 1.145 0.113 1.406 0.375 c 0.715 0.91 0.047 2.613 -0.813 4.375 c -1.059 -1.719 -2.355 -3.215 -3.781 -4.281 c 1.16 -0.258 2.305 -0.477 3.188 -0.469 m -9.906 4.719 c 0.512 0.082 1.465 4.402 2.313 6.844 c -0.781 -0.387 -1.566 -0.625 -2.313 -0.625 l -0.031 0 c -0.746 0 -1.531 0.238 -2.313 0.625 c 0.848 -2.426 1.801 -6.746 2.313 -6.813 m -4.438 4.844 c 0.742 -0.004 1.125 0.551 1.938 2.063 c -0.141 0.074 -0.27 0.168 -0.406 0.25 c 0.016 -0.086 0.063 -0.16 0.063 -0.25 c 0 -0.883 -0.738 -1.594 -1.625 -1.594 c -0.883 0 -1.594 0.711 -1.594 1.594 c 0 0.82 0.617 1.465 1.406 1.563 c -1.41 1.336 -2.438 3.03 -2.438 4.375 c -0.016 2.52 2.668 2.656 4 2.656 c 1.281 0.023 2.656 0.098 3.125 -0.438 c 0.473 0.535 1.813 0.465 3.094 0.438 c 1.332 0 4.02 -0.137 4 -2.656 c 0 -1.359 -1.063 -3.063 -2.5 -4.406 c 0.836 -0.051 1.5 -0.738 1.5 -1.594 c 0 -0.887 -0.711 -1.594 -1.594 -1.594 c -0.887 0 -1.625 0.707 -1.625 1.594 c 0 0.109 0.012 0.207 0.031 0.313 c -0.137 -0.082 -0.266 -0.176 -0.406 -0.25 c 0.805 -1.492 1.199 -2.035 1.938 -2.031 c 1.461 0.008 4.418 3.559 4.438 6.344 c -0.02 4.313 -4.465 4.719 -8.906 4.719 c -4.434 0 -8.855 -0.438 -8.875 -4.75 c 0.012 -2.793 2.977 -6.336 4.438 -6.344 m -0.063 0.781 c 0.66 0 1.188 0.559 1.188 1.219 c 0 0.66 -0.527 1.188 -1.188 1.188 c -0.66 0 -1.219 -0.527 -1.219 -1.188 c 0 -0.66 0.559 -1.219 1.219 -1.219 m 9 0 c 0.66 0 1.219 0.559 1.219 1.219 c 0 0.66 -0.559 1.188 -1.219 1.188 c -0.66 0 -1.188 -0.527 -1.188 -1.188 c 0 -0.66 0.527 -1.219 1.188 -1.219 m -9.125 0.406 c -0.379 0 -0.688 0.305 -0.688 0.688 c 0 0.379 0.309 0.688 0.688 0.688 c 0.379 0 0.688 -0.309 0.688 -0.688 c 0 -0.383 -0.309 -0.688 -0.688 -0.688 m 9 0.063 c -0.367 0 -0.656 0.32 -0.656 0.688 c 0 0.371 0.289 0.656 0.656 0.656 c 0.371 0 0.656 -0.285 0.656 -0.656 c 0 -0.367 -0.285 -0.688 -0.656 -0.688 m -4.375 3.188 c 1.23 0 2.219 0.996 2.219 2.219 c 0 1.227 -0.984 2.219 -2.219 2.219 c -1.227 0 -2.219 -0.992 -2.219 -2.219 c 0 -1.223 0.992 -2.219 2.219 -2.219 m 0.906 0.906 c -0.246 0 -0.438 0.195 -0.438 0.438 c 0 0.246 0.191 0.438 0.438 0.438 c 0.246 0 0.438 -0.191 0.438 -0.438 c 0 -0.242 -0.191 -0.438 -0.438 -0.438 m 0 0" fill="#f9f9f9" stroke="none" fill-rule="nonzero" fill-opacity="1"/></g></svg>