<!-- color: #eeeeee --><svg xmlns="http://www.w3.org/2000/svg" viewBox="0 0 48 48"><g><path d="m 18 12 l 0 2 l 2 0 l 0 -2 m 0 2 l 0 1 l 1 0 l 0 -1 m 0 1 l 0 1 l 1 0 l 0 3 l -9 0 l 0 15 l 22 0 l 0 -15 l -9 0 l 0 -2 l 0.031 0 l 0 -1 l 0.969 0 l 0 -1 l -1 0 l 0 1 l -0.969 0 l 0 1 l -2.031 0 l 0 -3 l -1 0 l 0 1 m 5 0 l 2 0 l 0 -2 l -2 0 m -12 8 l 18 0 l 0 11 l -18 0 m 1 -10 l 0 4 l 1 0 l 0 -1 l 1 0 l 0 1 l 1 0 l 0 -4 m 1 0 l 0 4 l 1 0 l 0 -4 m 1 0 l 0 4 l 3 0 l 0 -1 l -2 0 l 0 -1 l 2 0 l 0 -2 m 1 0 l 0 3 l 1 0 l 0 -3 m 0 3 l 0 1 l 1 0 l 0 -1 m 0 0 l 1 0 l 0 -3 l -1 0 m 2 0 l 0 4 l 1 0 l 0 -2 l 1 0 l 0 -1 l -1 0 l 0 -1 m -14 1 l 1 0 l 0 1 l -1 0 m -1 6 l 0 1 l 4 0 l 0 -1 m 1 0 l 0 1 l 3 0 l 0 -1 m 1.031 0 l 0 1 l 3 0 l 0 -1 m 0.969 0 l 0 1 l 3 0 l 0 -1 m -3 0" fill="#f9f9f9" stroke="none" fill-rule="nonzero" fill-opacity="1"/></g></svg>