<!-- color: #4aa614 --><svg xmlns="http://www.w3.org/2000/svg" viewBox="0 0 48 48"><g><path d="m 23.746 11.156 c -9.773 0.234 -13.523 10.121 -8.551 17.219 c 2.121 2.289 2.945 3.793 2.559 4.652 c 0.195 5.652 13.734 5.359 13.664 0 c -0.219 -0.863 0.691 -3.727 1.512 -4.652 c 5.152 -8.934 0.148 -17.191 -9.188 -17.219 m 5.695 19.766 c 1.188 -0.055 1.699 0.633 0.762 1.598 c -1.172 1.211 -3.828 1.031 -3.828 -0.25 c 0 -0.203 0.758 -0.66 1.68 -1.016 c 0.52 -0.203 0.992 -0.309 1.387 -0.328 m -9.559 0.016 c 1.242 -0.047 3.398 0.867 3.133 1.559 c -0.125 0.32 -0.797 0.66 -1.5 0.746 c -1.57 0.199 -3.234 -1.32 -2.313 -2.109 c 0.148 -0.129 0.387 -0.191 0.676 -0.199 m 0.004 0.004" fill="#f9f9f9" stroke="none" fill-rule="nonzero" fill-opacity="1"/></g></svg>