<!-- color: #e9af4b --><svg xmlns="http://www.w3.org/2000/svg" viewBox="0 0 48 48"><g><path d="m 24 14 c -5.523 0 -10 4.477 -10 10 c 0 5.523 4.477 10 10 10 c 5.523 0 10 -4.477 10 -10 c 0 -5.523 -4.477 -10 -10 -10 m -5.688 5 l 2.438 0 l 0 8.219 l 2.25 0 l 0 1.781 l -6.938 0 l 0 -1.781 l 2.25 0 l 0 -6.469 l -2.313 0.5 l 0 -1.75 m 12.156 -0.5 c 1.219 0 2.121 0.207 2.719 0.625 c 0.605 0.406 0.906 1.02 0.906 1.844 c 0 0.563 -0.152 1.043 -0.438 1.406 c -0.289 0.355 -0.719 0.605 -1.281 0.75 c 0.637 0.164 1.109 0.457 1.438 0.875 c 0.316 0.414 0.5 0.922 0.5 1.563 c 0 0.957 -0.355 1.688 -1.063 2.188 c -0.707 0.496 -1.742 0.75 -3.094 0.75 c -0.48 0 -0.953 -0.043 -1.438 -0.125 c -0.477 -0.078 -0.934 -0.184 -1.406 -0.344 l 0 -1.938 c 0.445 0.234 0.879 0.414 1.313 0.531 c 0.441 0.117 0.887 0.188 1.313 0.188 c 0.637 0 1.133 -0.113 1.469 -0.344 c 0.34 -0.227 0.531 -0.547 0.531 -0.969 c 0 -0.441 -0.184 -0.773 -0.531 -1 c -0.344 -0.227 -0.855 -0.344 -1.531 -0.344 l -0.969 0 l 0 -1.625 l 1 0 c 0.605 0 1.051 -0.086 1.344 -0.281 c 0.297 -0.195 0.438 -0.508 0.438 -0.906 c 0 -0.371 -0.121 -0.641 -0.406 -0.844 c -0.289 -0.199 -0.699 -0.313 -1.219 -0.313 c -0.387 0 -0.793 0.035 -1.188 0.125 c -0.391 0.09 -0.766 0.23 -1.156 0.406 l 0 -1.813 c 0.473 -0.137 0.941 -0.246 1.406 -0.313 c 0.465 -0.066 0.906 -0.094 1.344 -0.094 m 0 0" fill="#f9f9f9" stroke="none" fill-rule="nonzero" fill-opacity="1"/></g></svg>