<!-- color: #3c4350 --><svg xmlns="http://www.w3.org/2000/svg" viewBox="0 0 48 48"><g><path d="m 11 25.02 l 0 -2 l 4.996 -3 l 0 1 l -4.5 3 l 4.5 3 l 0 0.996 m -4.996 -3" fill="#f9f9f9" stroke="none" fill-rule="nonzero" fill-opacity="1"/><path d="m 17 24 c -0.004 0.551 -0.449 0.992 -1 0.992 c -0.551 0 -0.996 -0.449 -0.996 -1 c 0 -0.551 0.445 -0.996 0.996 -1 c 0.551 0 0.996 0.445 1 0.996" fill="#f9f9f9" stroke="none" fill-rule="nonzero" fill-opacity="1"/><path d="m 32 25 l 0 -2 l 5 -3 l 0 1 l -4 3 l 4 3 l 0 1 m -6 0 l 0 -1 l 4 -3 l -4 -3 l 0 -1 l 5 3 l 0 2 m -5 3" fill="#f9f9f9" stroke="none" fill-rule="nonzero" fill-opacity="1"/><path d="m 20.03 29 c -0.18 -0.391 -0.332 -0.773 -0.461 -1.16 c -0.129 -0.387 -0.238 -0.781 -0.324 -1.184 c -0.082 -0.402 -0.145 -0.824 -0.188 -1.262 c -0.039 -0.438 -0.066 -0.906 -0.066 -1.402 c 0 -0.5 0.023 -0.965 0.066 -1.398 c 0.043 -0.438 0.102 -0.859 0.188 -1.258 c 0.086 -0.406 0.195 -0.801 0.324 -1.18 c 0.129 -0.387 0.281 -0.773 0.461 -1.16 l 0.969 0 c -0.184 0.402 -0.34 0.805 -0.473 1.199 c -0.133 0.395 -0.242 0.797 -0.328 1.203 c -0.082 0.402 -0.141 0.82 -0.184 1.25 c -0.039 0.426 -0.066 0.875 -0.066 1.348 c 0 0.473 0.023 0.926 0.066 1.355 c 0.043 0.426 0.102 0.84 0.184 1.246 c 0.086 0.406 0.195 0.805 0.328 1.195 c 0.133 0.395 0.289 0.797 0.473 1.207 m -0.969 0" fill="#f9f9f9" stroke="none" fill-rule="nonzero" fill-opacity="1"/><path d="m 24.03 29 c -0.176 -0.391 -0.332 -0.773 -0.461 -1.16 c -0.129 -0.387 -0.238 -0.781 -0.324 -1.184 c -0.082 -0.402 -0.145 -0.824 -0.188 -1.262 c -0.039 -0.438 -0.066 -0.906 -0.066 -1.402 c 0 -0.5 0.023 -0.965 0.066 -1.398 c 0.043 -0.438 0.102 -0.859 0.188 -1.258 c 0.086 -0.406 0.195 -0.801 0.324 -1.18 c 0.129 -0.387 0.285 -0.773 0.461 -1.16 l 0.969 0 c -0.184 0.402 -0.34 0.805 -0.473 1.199 c -0.133 0.395 -0.242 0.797 -0.328 1.203 c -0.082 0.402 -0.141 0.82 -0.184 1.25 c -0.039 0.426 -0.066 0.875 -0.066 1.348 c 0 0.473 0.023 0.926 0.066 1.355 c 0.043 0.426 0.102 0.84 0.184 1.246 c 0.086 0.406 0.195 0.805 0.328 1.195 c 0.133 0.395 0.289 0.797 0.473 1.207 m -0.969 0" fill="#f9f9f9" stroke="none" fill-rule="nonzero" fill-opacity="1"/><path d="m 28.03 29 c -0.176 -0.391 -0.332 -0.773 -0.461 -1.16 c -0.129 -0.387 -0.238 -0.781 -0.32 -1.184 c -0.086 -0.402 -0.148 -0.824 -0.188 -1.262 c -0.043 -0.438 -0.066 -0.906 -0.066 -1.402 c 0 -0.5 0.023 -0.965 0.066 -1.398 c 0.039 -0.438 0.102 -0.859 0.188 -1.258 c 0.082 -0.406 0.191 -0.801 0.32 -1.18 c 0.129 -0.387 0.285 -0.773 0.461 -1.16 l 0.973 0 c -0.188 0.402 -0.344 0.805 -0.477 1.199 c -0.133 0.395 -0.242 0.797 -0.324 1.203 c -0.086 0.402 -0.145 0.82 -0.188 1.25 c -0.039 0.426 -0.066 0.875 -0.066 1.348 c 0 0.473 0.023 0.926 0.066 1.355 c 0.043 0.426 0.102 0.84 0.188 1.246 c 0.082 0.406 0.191 0.805 0.324 1.195 c 0.133 0.395 0.289 0.797 0.477 1.207 m -0.973 0" fill="#f9f9f9" stroke="none" fill-rule="nonzero" fill-opacity="1"/></g></svg>