<!-- color: #70afaf --><svg xmlns="http://www.w3.org/2000/svg" viewBox="0 0 48 48"><g><path d="m 23.813 21 c -0.461 0.016 -1.289 0.27 -2.75 1.656 c -1.949 1.828 -2.063 3.531 -2.063 3.531 l 0 0.031 c 0 0 0.371 0.219 0.969 0.469 c 0.18 0.344 0.559 0.883 1.563 1.469 c 1.43 0.832 2.125 0.863 2.469 0.844 l 0.031 0 c 0.043 0.004 0.07 0 0.125 0 c 0.387 -0.008 1.082 -0.129 2.313 -0.844 c 1.066 -0.621 1.434 -1.195 1.594 -1.531 c 0.574 -0.242 0.938 -0.438 0.938 -0.438 c 0 0 -0.109 -1.684 -2.063 -3.531 c -1.465 -1.383 -2.289 -1.641 -2.75 -1.656 c -0.094 -0.004 -0.156 -0.008 -0.219 0 c -0.055 -0.004 -0.086 -0.004 -0.156 0 m 0 0" fill="#f9f9f9" stroke="none" fill-rule="nonzero" fill-opacity="1"/><path d="m 14.938 10 c -0.25 0.012 -0.496 0.059 -0.75 0.125 c -2.047 0.543 -3.445 2.734 -3.125 4.875 c 0.32 2.141 2.234 3.418 4.281 2.875 c 2.047 -0.543 3.449 -2.73 3.125 -4.875 c -0.281 -1.875 -1.793 -3.086 -3.531 -3 m -0.219 1.469 c 0.281 -0.016 0.523 0.063 0.656 0.25 c 0.27 0.379 0.027 1.043 -0.563 1.469 c -0.59 0.426 -1.293 0.438 -1.563 0.063 c -0.27 -0.379 0.004 -1.01 0.594 -1.438 c 0.297 -0.215 0.594 -0.328 0.875 -0.344 m 1.719 0.438 c 0.699 0.375 1.215 1.066 1.344 1.938 c 0.246 1.637 -0.918 3.328 -2.625 3.781 c -1.703 0.453 -3.285 -0.52 -3.531 -2.156 c -0.141 -0.941 0.184 -1.895 0.813 -2.625 c -0.324 0.531 -0.469 1.168 -0.375 1.781 c 0.203 1.363 1.52 2.16 2.938 1.781 c 1.422 -0.375 2.391 -1.797 2.188 -3.156 c -0.086 -0.559 -0.363 -1.02 -0.75 -1.344 m 0 0" fill="#f9f9f9" stroke="none" fill-rule="evenodd" fill-opacity="1"/><path d="m 32.563 10 c -1.742 -0.086 -3.219 1.125 -3.5 3 c -0.32 2.145 1.078 4.332 3.125 4.875 c 2.043 0.543 3.961 -0.734 4.281 -2.875 c 0.32 -2.141 -1.078 -4.332 -3.125 -4.875 c -0.254 -0.066 -0.531 -0.113 -0.781 -0.125 m -0.531 1.281 c 0.121 -0.004 0.246 0.004 0.344 0.063 c 0.395 0.242 0.402 0.969 0.031 1.594 c -0.371 0.625 -0.98 0.93 -1.375 0.688 c -0.398 -0.238 -0.434 -0.938 -0.063 -1.563 c 0.277 -0.473 0.703 -0.766 1.063 -0.781 m -1.406 0.188 c -0.387 0.328 -0.637 0.82 -0.719 1.375 c -0.203 1.363 0.766 2.746 2.188 3.125 c 1.418 0.375 2.734 -0.422 2.938 -1.781 c 0.094 -0.617 -0.051 -1.215 -0.375 -1.75 c 0.629 0.73 0.953 1.688 0.813 2.625 c -0.246 1.637 -1.828 2.578 -3.531 2.125 c -1.707 -0.453 -2.871 -2.145 -2.625 -3.781 c 0.129 -0.867 0.609 -1.559 1.313 -1.938 m 0 0" fill="#f9f9f9" stroke="none" fill-rule="evenodd" fill-opacity="1"/></g></svg>