<!-- color: #eeeeee --><svg xmlns="http://www.w3.org/2000/svg" viewBox="0 0 48 48"><g><path d="m 15.13 13.06 c -0.379 0.027 -0.926 0.266 -1.719 0.938 c -1.508 0.863 -1.02 2.074 -0.656 2.656 c 0.262 -0.395 0.727 -0.93 1.5 -1.656 c 0.715 -0.668 1.402 -0.977 1.969 -1.145 l -0.313 -0.406 c -0.172 -0.219 -0.398 -0.402 -0.781 -0.375 m 1.625 1.465 c -0.574 0.141 -1.301 0.414 -2.031 0.969 c -0.898 0.688 -1.289 1.301 -1.469 1.723 l 5.188 4.375 c 0.215 -0.418 0.492 -0.844 0.875 -1.25 c 0.418 -0.441 0.82 -0.73 1.191 -0.973 l -3.75 -4.844 m 8.84 4.816 c -0.297 0 -0.609 0.012 -0.906 0.02 c -1.387 0.078 -2.66 0.332 -3.625 0.625 c -0.016 0.023 -0.043 -0.012 -0.063 0 c -0.25 0.191 -0.551 0.48 -1 0.941 c -0.41 0.418 -0.703 0.809 -0.906 1.191 c -0.008 0.023 -0.02 0.063 -0.031 0.094 c -1.086 2.926 0.207 7.855 4.969 9 c 5.398 1.293 5.688 -0.105 8 1.438 c 2.324 1.539 1.023 3.871 2.125 3.223 c 0.566 -0.328 2.359 -2.781 1.691 -6.781 c -0.723 -4.285 -2.605 -6.566 -4.5 -8.125 c -1.469 -1.211 -3.648 -1.625 -5.75 -1.625 m -0.004 0" fill="#f9f9f9" stroke="none" fill-rule="nonzero" fill-opacity="1"/></g></svg>