<!-- color: #3d3d3d --><svg xmlns="http://www.w3.org/2000/svg" viewBox="0 0 48 48"><g><path d="m 17.563 11.996 c -0.313 0 -0.566 0.25 -0.566 0.566 l 0 4.875 c 0 0.313 0.25 0.563 0.566 0.563 l 0.434 0 l -1 1 l 1 1 l -0.906 10.996 l -0.094 0 c -1.109 0 -1.996 0.895 -1.996 2 c 0 0.363 0.109 0.703 0.277 1 l -0.277 0 l -1 1.996 l 19.996 0 l -0.996 -1.996 l -0.281 0 c 0.172 -0.297 0.281 -0.637 0.281 -1 c 0 -1.109 -0.895 -2 -2 -2 l -0.09 0 l -0.91 -10.996 l 1 -1 l -1 -1 l 0.438 0 c 0.316 0 0.566 -0.246 0.566 -0.563 l 0 -4.875 c 0 -0.313 -0.246 -0.566 -0.566 -0.566 l -1.438 0 l 0 2 l -2 0 l 0 -2 l -2 0 l 0 2 l -1.996 0 l 0 -2 l -2 0 l 0 2 l -1.996 0 l 0 -2 m -1.445 0" fill="#f9f9f9" stroke="none" fill-rule="nonzero" fill-opacity="1"/></g></svg>