<!-- color: #9ed45e --><svg xmlns="http://www.w3.org/2000/svg" viewBox="0 0 48 48"><g><path d="m 17.469 13 l -0.281 0.5 l -5.969 10 l -0.281 0.5 l 0.281 0.5 l 5.969 10 l 0.281 0.5 l 0.563 0 l 12.281 0.063 l 0.594 0 l 0.313 -0.5 l 5.594 -10.125 l 0.281 -0.531 l -0.313 -0.5 l -0.844 -1.344 l -0.406 -0.625 l -4.719 -7.938 l -0.281 -0.5 m -11.938 2 l 2.406 0 c 0 0.023 0 0.039 0 0.063 c 0 1.734 0.57 3.434 1.438 5 c -1.453 1.711 -3.03 2.969 -4.406 2.969 c -1.34 0 -2.594 -0.34 -3.719 -0.813 m 8.688 -7.219 l 2.344 0 c -0.324 1.098 -0.773 2.195 -1.375 3.219 c -0.023 0.039 -0.07 0.051 -0.094 0.094 c -0.52 -1.102 -0.875 -2.207 -0.875 -3.25 c 0 -0.023 0 -0.039 0 -0.063 m 4.469 0 l 1.938 0 l 2.125 3.594 c -1.031 1.355 -2.367 2.617 -4.03 3.563 c -0.246 0.145 -0.398 0.355 -0.625 0.5 c -0.727 -0.82 -1.34 -1.703 -1.906 -2.563 c 0.227 -0.34 0.543 -0.551 0.75 -0.906 c 0.77 -1.313 1.355 -2.734 1.75 -4.188 m 5.156 5.438 l 1.219 2.031 l 0.188 0.281 c -0.457 0.633 -0.965 1.305 -1.563 2 c -0.543 0.629 -1.203 1.094 -1.813 1.656 c -0.84 -0.77 -1.559 -1.422 -2.438 -2.313 c 0.09 -0.063 0.156 -0.121 0.25 -0.188 c 1.66 -0.949 3.035 -2.148 4.156 -3.469 m -8.969 1.219 c 0.539 0.762 1.039 1.547 1.656 2.25 c -1.477 1.496 -2.426 3.258 -2.938 5.03 c -1.992 -0.012 -4.04 0.168 -5.906 0.469 l -3.219 -5.406 c 1.316 0.59 2.887 1.031 4.781 1.031 c 2.172 0 3.992 -1.512 5.625 -3.375 m 3.03 3.688 c 0.934 0.953 1.602 1.582 2.469 2.375 c -0.109 0.074 -0.199 0.207 -0.313 0.281 c -1.27 0.801 -2.512 1.195 -3.688 1 c -0.156 -0.023 -0.344 0.023 -0.5 0 c 0.438 -1.316 0.973 -2.586 2.031 -3.656 m 6.563 1.375 l -0.75 1.406 c -0.137 -0.133 -0.285 -0.262 -0.406 -0.375 c 0.375 -0.359 0.77 -0.699 1.156 -1.031 m -2.656 2.375 c 0.266 0.242 0.551 0.551 0.875 0.875 l -1.719 3.094 l -6 -0.031 c 0.012 -0.445 0.063 -0.906 0.125 -1.406 c 0.027 -0.215 0.152 -0.438 0.188 -0.656 c 0.242 0.027 0.547 -0.008 0.781 0.031 c 1.809 0.301 3.535 -0.316 5.063 -1.281 c 0.258 -0.168 0.438 -0.441 0.688 -0.625 m -8.625 1.844 c -0.023 0.141 -0.074 0.293 -0.094 0.438 c -0.074 0.594 -0.113 1.137 -0.125 1.656 l -3.125 -0.031 l -1.063 -1.75 c 1.445 -0.191 2.938 -0.293 4.406 -0.313 m 0 0" fill="#f9f9f9" stroke="none" fill-rule="nonzero" fill-opacity="1"/></g></svg>