<!-- color: #3d3d3d --><svg xmlns="http://www.w3.org/2000/svg" viewBox="0 0 48 48"><g><path d="m 18 12 c -0.555 0 -1 0.449 -1 1 l 0 4 l -4 0 c -0.551 0 -1 0.449 -1 1 l 0 3 l 10 0 c 0 -0.555 0.445 -1 1 -1 l 2 0 c 0.551 0 1 0.445 1 1 l 10 0 l 0 -3 c 0 -0.551 -0.445 -1 -1 -1 l -4 0 l 0 -4 c 0 -0.551 -0.445 -1 -1 -1 m -10 2 l 8 0 c 0.551 0 1 0.445 1 1 l 0 2 l -10 0 l 0 -2 c 0 -0.555 0.445 -1 1 -1 m 4 7 c -0.555 0 -1 0.445 -1 1 l 0 2 c 0 0.551 0.445 1 1 1 c 0.551 0 1 -0.449 1 -1 l 0 -2 c 0 -0.555 -0.449 -1 -1 -1 m -12 1 l 0 13 c 0 0.551 0.449 1 1 1 l 22 0 c 0.555 0 1 -0.449 1 -1 l 0 -13 l -10 0 l 0 3 c 0 0.551 -0.449 1 -1 1 l -2 0 c -0.555 0 -1 -0.449 -1 -1 l 0 -3 m -8.656 10 l 21 0 c 0.277 0 0.5 0.223 0.5 0.5 c 0 0.273 -0.223 0.5 -0.5 0.5 l -21 0 c -0.273 0 -0.5 -0.227 -0.5 -0.5 c 0 -0.277 0.227 -0.5 0.5 -0.5 m 0.156 2 l 21 0 c 0.277 0 0.5 0.223 0.5 0.5 c 0 0.277 -0.223 0.5 -0.5 0.5 l -21 0 c -0.277 0 -0.5 -0.223 -0.5 -0.5 c 0 -0.277 0.223 -0.5 0.5 -0.5 m 0 0" fill="#f9f9f9" stroke="none" fill-rule="nonzero" fill-opacity="1"/></g></svg>