<!-- color: #c84c53 --><svg xmlns="http://www.w3.org/2000/svg" viewBox="0 0 48 48"><g><path d="m 24.09 14 c -1.043 -0.043 -1.871 0.664 -2.5 1.594 c -0.629 0.93 -1.18 2.211 -1.719 3.875 c -0.27 0.824 -0.551 1.473 -0.813 2.063 c -0.199 -0.5 -0.402 -1 -0.594 -1.656 c -0.277 -0.957 -0.59 -1.918 -0.906 -2.719 c -0.313 -0.789 -0.551 -1.355 -0.938 -1.844 c -0.004 -0.008 -0.027 0.008 -0.031 0 c -1.285 -1.605 -3.742 -1.559 -5.03 0.063 c -0.258 0.316 -0.469 0.766 -0.531 1.25 c -0.063 0.484 -0.027 0.965 0.094 1.594 c 0.242 1.254 0.797 3.063 1.781 6.03 c 0.637 1.938 1.324 3.797 1.938 5.281 c 0.305 0.742 0.621 1.395 0.875 1.906 c 0.25 0.504 0.422 0.836 0.75 1.188 c 0.008 0.008 -0.008 0.023 0 0.031 l 0.031 -0.031 c 0.609 0.637 1.277 1.109 2.031 1.281 c 0.766 0.172 1.563 0.012 2.219 -0.406 c 1.313 -0.84 2.176 -2.457 2.813 -4.719 c 0.262 -0.922 0.438 -1.16 0.656 -1.625 c 0.512 1.703 1 3.246 1.531 4.25 c 0.645 1.219 1.418 2.07 2.469 2.344 c 0.672 0.176 1.371 0.238 2.063 -0.031 c 0.691 -0.27 1.262 -0.816 1.75 -1.531 c 0.973 -1.434 1.824 -3.703 3.094 -7.5 c 1.215 -3.629 1.863 -5.797 1.875 -7.438 c 0.004 -0.82 -0.184 -1.602 -0.688 -2.156 c -0.504 -0.555 -1.18 -0.797 -1.875 -0.938 c -0.543 -0.105 -1.121 -0.098 -1.656 0.125 c -0.535 0.223 -0.988 0.629 -1.344 1.125 c -0.707 0.996 -1.203 2.414 -1.75 4.5 c -0.184 0.699 -0.383 1.227 -0.563 1.781 c -0.246 -0.598 -0.484 -1.199 -0.75 -1.969 c -0.586 -1.703 -1.168 -3.01 -1.813 -3.969 c -0.645 -0.961 -1.426 -1.707 -2.469 -1.75 m -0.094 2 c 0.055 0.004 0.395 0.125 0.875 0.844 c 0.48 0.719 1.039 1.918 1.594 3.531 c 0.387 1.125 0.781 2.141 1.125 2.906 c 0.172 0.383 0.344 0.707 0.5 0.969 c 0.078 0.129 0.137 0.246 0.25 0.375 c 0.113 0.129 0.219 0.406 0.875 0.406 c 0.652 0 0.797 -0.297 0.906 -0.438 c 0.109 -0.141 0.152 -0.273 0.219 -0.406 c 0.137 -0.262 0.266 -0.563 0.406 -0.938 c 0.277 -0.75 0.59 -1.75 0.875 -2.844 c 0.527 -2 1.031 -3.27 1.438 -3.844 c 0.203 -0.285 0.352 -0.387 0.469 -0.438 c 0.109 -0.047 0.266 -0.043 0.5 0 c 0.016 0.004 0.016 -0.004 0.031 0 c 0.457 0.098 0.695 0.219 0.781 0.313 c 0.086 0.098 0.16 0.254 0.156 0.781 c -0.008 1.055 -0.547 3.258 -1.75 6.844 c -1.258 3.758 -2.172 5.965 -2.875 7 c -0.352 0.516 -0.617 0.703 -0.813 0.781 c -0.195 0.078 -0.402 0.113 -0.844 0 c -0.258 -0.066 -0.668 -0.391 -1.188 -1.375 c -0.52 -0.984 -1.098 -2.531 -1.719 -4.75 c -0.141 -0.52 -0.289 -1.043 -0.938 -1.375 c -0.324 -0.168 -0.754 -0.152 -1.063 -0.031 c -0.309 0.121 -0.523 0.285 -0.688 0.469 c -0.66 0.742 -1.043 1.813 -1.5 3.438 c -0.57 2.023 -1.371 3.234 -1.938 3.594 c -0.281 0.18 -0.461 0.215 -0.719 0.156 c -0.258 -0.059 -0.633 -0.266 -1.063 -0.719 c 0.039 0.035 -0.191 -0.254 -0.406 -0.688 c -0.223 -0.449 -0.488 -1.066 -0.781 -1.781 c -0.59 -1.426 -1.285 -3.266 -1.906 -5.156 c -0.977 -2.953 -1.52 -4.754 -1.719 -5.781 c -0.098 -0.516 -0.113 -0.813 -0.094 -0.969 c 0.02 -0.156 0.055 -0.164 0.125 -0.25 c 0.617 -0.777 1.383 -0.797 1.938 -0.094 c -0.012 -0.012 0.336 0.613 0.625 1.344 c 0.289 0.73 0.617 1.668 0.875 2.563 c 0.277 0.957 0.602 1.828 0.906 2.5 c 0.152 0.336 0.301 0.594 0.469 0.844 c 0.082 0.125 0.145 0.246 0.281 0.375 c 0.137 0.129 0.363 0.332 0.813 0.344 l 0.031 0 c 0.488 0 0.672 -0.215 0.813 -0.344 c 0.141 -0.129 0.223 -0.242 0.313 -0.375 c 0.18 -0.262 0.355 -0.57 0.531 -0.938 c 0.352 -0.734 0.715 -1.688 1.063 -2.75 c 0.504 -1.563 1.023 -2.715 1.469 -3.375 c 0.445 -0.66 0.695 -0.723 0.75 -0.719 m 0 0" fill="#f9f9f9" stroke="none" fill-rule="nonzero" fill-opacity="1"/></g></svg>