<!-- color: #5c8dc3 --><svg xmlns="http://www.w3.org/2000/svg" viewBox="0 0 48 48"><g><path d="m 29.406 12 c -2.031 0.781 -4.426 1.438 -6.594 1.617 c 0.371 0.586 0.699 0.785 1.32 1.078 c -3.07 4.656 -7.461 6.113 -12.13 8.902 c 3.145 4.574 7.988 8.441 11.859 12.402 c 4.16 -2.996 9.203 -8.152 12.133 -12.402 c -2.672 -1.598 -5.73 -3.691 -8.699 -4.586 c 0.363 -0.625 0.734 -1.234 1.055 -1.887 c 0.801 0.34 1.574 0.738 2.375 1.078 c -0.148 -1.867 -0.371 -4.59 -1.32 -6.203 m -7.648 7.281 c -0.758 3.766 -0.602 6.988 -0.527 10.785 c -2.484 -1.18 -5.543 -4.188 -7.121 -6.469 c 2.211 -1.617 5.03 -3.543 7.648 -4.316 m 5.01 0.27 c 1.012 0.305 1.813 0.684 2.375 1.617 c -1.07 0.012 -2.105 0.184 -3.168 0.27 c 0.195 -0.691 0.445 -1.258 0.793 -1.887 m 3.164 1.887 c 1.449 0.438 2.969 1.254 3.957 2.43 c -2.676 2.727 -6.06 6.73 -9.496 8.359 c 0.02 -2.473 2.285 -9.371 5.539 -7.281 m -4.484 -2.969 c 0.48 0 0.402 0.004 0.793 0.27 c -0.352 0.477 -0.594 0.723 -1.055 1.082 c 0.086 -0.449 0.176 -0.898 0.262 -1.348 m 0 -0.004" fill="#f9f9f9" stroke="none" fill-rule="nonzero" fill-opacity="1"/></g></svg>