<!-- color: #709f39 --><svg xmlns="http://www.w3.org/2000/svg" viewBox="0 0 48 48"><g><path d="m 23 11 l -12 10 c -0.875 0.773 -1.215 1.441 -0.688 2 c 0.555 0.559 1.219 0.469 1.688 0 l 0 11 c 0 0.492 0.484 1 1 1 l 22 0 c 0.516 0 1 -0.508 1 -1 l 0 -11 c 0.469 0.469 1.129 0.559 1.688 0 c 0.527 -0.559 0.188 -1.227 -0.688 -2 l -12 -10 m -1.5 11 c 0.648 0 1.195 0.422 1.406 1 l 1.188 0 c 0.203 -0.586 0.75 -1 1.406 -1 c 0.648 0 1.195 0.422 1.406 1 l 1.188 0 c 0.203 -0.586 0.75 -1 1.406 -1 c 0.805 0 1.469 0.633 1.5 1.438 l 0 0.063 c 0 0.656 -0.414 1.203 -1 1.406 l 0 1.188 c 0.559 0.203 0.977 0.719 1 1.344 l 0 0.066 c 0 0.652 -0.414 1.199 -1 1.402 l 0 1.191 c 0.559 0.199 0.977 0.715 1 1.344 l 0 0.063 c 0 0.828 -0.672 1.5 -1.5 1.5 c -0.656 0 -1.203 -0.414 -1.406 -1 l -1.188 0 c -0.203 0.586 -0.75 1 -1.406 1 c -0.656 0 -1.203 -0.414 -1.406 -1 l -1.188 0 c -0.203 0.586 -0.75 1 -1.406 1 c -0.828 0 -1.5 -0.672 -1.5 -1.5 c 0 -0.656 0.414 -1.203 1 -1.406 l 0 -1.188 c -0.586 -0.207 -1 -0.75 -1 -1.406 c 0 -0.656 0.414 -1.203 1 -1.406 l 0 -1.188 c -0.586 -0.207 -1 -0.75 -1 -1.406 c 0 -0.828 0.672 -1.5 1.5 -1.5 m 1.406 1.996 c -0.148 0.434 -0.473 0.758 -0.906 0.906 l 0 1.188 c 0.418 0.148 0.754 0.484 0.906 0.906 l 1.188 0 c 0.148 -0.434 0.473 -0.758 0.906 -0.906 l 0 -1.188 c -0.434 -0.148 -0.758 -0.473 -0.906 -0.906 m 2.813 0 c -0.148 0.434 -0.473 0.758 -0.906 0.906 l 0 1.188 c 0.418 0.148 0.754 0.484 0.906 0.906 l 1.188 0 c 0.148 -0.434 0.473 -0.758 0.906 -0.906 l 0 -1.188 c -0.434 -0.148 -0.758 -0.473 -0.906 -0.906 m -5.188 4 c -0.148 0.434 -0.473 0.758 -0.906 0.906 l 0 1.188 c 0.418 0.148 0.754 0.484 0.906 0.906 l 1.188 0 c 0.148 -0.434 0.473 -0.758 0.906 -0.906 l 0 -1.188 c -0.434 -0.148 -0.758 -0.473 -0.906 -0.906 m 2.813 0 c -0.145 0.434 -0.473 0.758 -0.898 0.906 l 0 1.188 c 0.418 0.148 0.754 0.484 0.898 0.906 l 1.191 0 c 0.145 -0.434 0.473 -0.758 0.906 -0.906 l 0 -1.188 c -0.438 -0.148 -0.762 -0.473 -0.906 -0.906 m -1.191 0" fill="#f9f9f9" stroke="none" fill-rule="nonzero" fill-opacity="1"/></g></svg>