<!-- color: #67a6d2 --><svg xmlns="http://www.w3.org/2000/svg" viewBox="0 0 48 48"><g><path d="m 16 19 l 0 -1 l 3 0 l 0 2 l -3 0 m 0 -1" fill="#f9f9f9" stroke="none" fill-rule="nonzero" fill-opacity="1"/><path d="m 16 22 l 0 -1 l 3 0 l 0 2 l -3 0 m 0 -1" fill="#f9f9f9" stroke="none" fill-rule="nonzero" fill-opacity="1"/><path d="m 16 25 l 0 -1 l 3 0 l 0 2 l -3 0 m 0 -1" fill="#f9f9f9" stroke="none" fill-rule="nonzero" fill-opacity="1"/><path d="m 12 12 l 0 4 l 24 0 l 0 -4 m -24 0" fill="#f9f9f9" stroke="none" fill-rule="nonzero" fill-opacity="1"/><path d="m 12 16 l 1 0 l 0 20 l -1 0 m 0 -20" fill="#f9f9f9" stroke="none" fill-rule="nonzero" fill-opacity="1"/><path d="m 12.5 35 l 23.5 0 l 0 1 l -23.5 0 m 0 -1" fill="#f9f9f9" stroke="none" fill-rule="nonzero" fill-opacity="1"/><path d="m 35 15 l 1 0 l 0 21 l -1 0 m 0 -21" fill="#f9f9f9" stroke="none" fill-rule="nonzero" fill-opacity="1"/></g></svg>