<!-- color: #005e9d --><svg xmlns="http://www.w3.org/2000/svg" viewBox="0 0 48 48"><g><path d="m 25.438 7.5 c 1.109 2.082 2.01 4.04 2.688 5.875 c -1.391 -0.082 -2.727 -0.113 -3.938 -0.094 c -13.355 0.227 -15.762 6.746 -7.313 19.563 c -1.93 0.344 -4.063 0.574 -6.438 0.656 c 2.734 0.453 5.234 0.766 7.531 0.969 c 1.313 1.883 2.836 3.898 4.594 6.03 c -1.109 -2.082 -2.01 -4.04 -2.688 -5.875 c 16.723 1 20.488 -5.5 11.281 -19.469 c 1.93 -0.336 4.04 -0.574 6.406 -0.656 c -2.734 -0.453 -5.23 -0.797 -7.531 -1 c -1.316 -1.875 -2.844 -3.875 -4.594 -6 m 3.406 8.125 c 0.793 2.785 1.02 5.242 0.688 7.375 l 3.813 0 c 0 0 0.355 0.211 0.531 1 c 0.004 0.012 -0.004 0.02 0 0.031 c 0.055 0.258 0.094 0.578 0.094 0.969 c 0 0.211 -0.016 0.395 -0.031 0.563 c 0 0.008 0 0.023 0 0.031 c -0.113 1.156 -0.531 1.406 -0.531 1.406 l -5.406 0 c -1.684 2.523 -4.625 4.316 -8.844 5.375 c -0.555 -1.953 -0.813 -3.742 -0.813 -5.375 l -0.094 0 l -2.063 -0.969 l -2.219 -1.031 l 2 -0.938 l 0.219 -0.094 l 2.063 -0.969 l 0.75 0 c 1.32 -3.594 4.602 -6.05 9.844 -7.375 m -9.844 7.375 c -0.441 1.203 -0.656 2.543 -0.656 4 l 9.656 0 c 0.781 -1.176 1.297 -2.508 1.531 -4 m -10.531 0" fill="#f9f9f9" stroke="none" fill-rule="nonzero" fill-opacity="1"/></g></svg>