<!-- color: #245395 --><svg xmlns="http://www.w3.org/2000/svg" viewBox="0 0 48 48"><g><path d="m 29.984 21.262 c -1.473 -1.711 -2.797 -2.816 -4.758 0.063 c -1.172 1.711 -8.176 11.527 -9.461 13.09 c -0.375 0.453 -0.594 0.766 -0.879 0.953 c 0 -0.621 4.84 -8.512 6.191 -10.797 c 1.629 -2.746 1.578 -2.586 1.383 -2.586 c -0.277 0 -0.836 0.418 -1.691 1.355 c -1.555 1.707 -6.164 8.07 -6.484 7.973 c 0.109 -0.461 3.719 -6.156 5.355 -8.512 c 1.41 -2.031 0.871 -2.188 0.063 -1.988 c -3.445 0.848 -7.57 2.891 -7.703 2.816 c 0.051 -0.105 13.887 -10.117 15.738 -10.309 c 0.215 -0.023 0.668 -0.418 1.477 -0.75 c 0.879 -0.355 1.469 -0.648 1.617 -0.555 c -0.645 0.926 -0.98 1.113 -0.988 1.41 c -0.008 0.488 -0.176 1.277 -0.363 1.531 c 3.578 2.453 4.973 10.809 5.992 17.535 c 0.242 1.594 0.469 2.797 0.527 3.508 c -0.301 -0.801 -3.16 -11.422 -6.02 -14.738 m 0 0" fill="#f9f9f9" stroke="none" fill-rule="nonzero" fill-opacity="1"/></g></svg>