<!-- color: #abd240 --><svg xmlns="http://www.w3.org/2000/svg" viewBox="0 0 48 48"><g><path d="m 24.05 12 c -3.809 0 -7.188 1.805 -9.371 4.594 l 1.496 0.953 c 1.867 -2.293 4.719 -3.754 7.898 -3.754 c 5.621 0 10.184 4.574 10.184 10.211 c 0 5.633 -4.563 10.207 -10.184 10.207 c -3.168 0 -6.01 -1.453 -7.879 -3.734 l -1.496 0.953 c 2.191 2.781 5.559 4.574 9.371 4.574 c 6.598 0 11.949 -5.375 11.949 -12 c 0 -6.621 -5.355 -11.996 -11.949 -11.996 m -12.07 4.992 l 0 14 l 12.141 -7.07 m -0.09 -7.242 c -2.148 0 -4.078 0.934 -5.418 2.414 l 1.551 0.969 c 0.996 -0.988 2.363 -1.594 3.871 -1.594 c 3.051 0 5.527 2.5 5.527 5.578 c 0 3.082 -2.473 5.582 -5.527 5.582 c -1.535 0 -2.922 -0.629 -3.922 -1.648 l -1.496 0.953 c 1.34 1.48 3.266 2.414 5.418 2.414 c 4.04 0 7.316 -3.289 7.316 -7.336 c 0 -4.051 -3.277 -7.336 -7.316 -7.336 m -0.004 0.004" fill="#f9f9f9" stroke="none" fill-rule="evenodd" fill-opacity="1"/></g></svg>