<!-- color: #dcdcdc --><svg xmlns="http://www.w3.org/2000/svg" viewBox="0 0 48 48"><g><path d="m 23 9.01 c -7.746 0 -14 6.156 -14 13.773 c 0 7.613 6.258 13.77 14 13.77 c 0.047 0 0.094 0 0.141 0 l 0 -12.895 l 9.648 -9.57 m 0.004 0.012 c -2.434 -4.055 -4.652 -5.094 -9.793 -5.094 m 0 0 l 0 0 m 7.68 25.27 c -0.57 0.367 -1.203 0.715 -1.859 1.02 c 0.656 -0.297 1.266 -0.633 1.859 -1.02 m 0 0" fill="#f9f9f9" stroke="none" fill-rule="nonzero" fill-opacity="1"/><path d="m 24.703 39 l 0 -13 l 12.523 4.887 c -1.313 3.27 -5.594 7.762 -12.523 8.113 m 0 0" fill="#f9f9f9" stroke="none" fill-rule="nonzero" fill-opacity="1"/><path d="m 37.664 28.836 l -12.527 -4.879 l 9.828 -10.402 c 2.941 2.672 5.789 8.516 2.699 15.281 m 0 0" fill="#f9f9f9" stroke="none" fill-rule="nonzero" fill-opacity="1"/></g></svg>