<!-- color: #294172 --><svg xmlns="http://www.w3.org/2000/svg" viewBox="0 0 48 48"><g><path d="m 29.2 12.01 c -3.758 0 -6.801 3.043 -6.801 6.797 l 0 3.613 l -2.855 0 c -0.887 0 -1.605 0.691 -1.605 1.586 c 0 0.879 0.711 1.578 1.594 1.578 l 2.359 0 c 0.281 0 0.508 0.227 0.508 0.508 l 0 3.117 c -0.004 1.977 -1.613 3.574 -3.594 3.574 c -0.672 0 -0.836 -0.086 -1.297 -0.086 c -0.965 0 -1.605 0.648 -1.605 1.527 c 0 0.734 0.625 1.367 1.398 1.566 c 0.523 0.141 0.934 0.199 1.504 0.199 c 3.758 0 6.805 -3.043 6.805 -6.797 l 0 -3.609 l 2.855 0 c 0.887 0 1.605 -0.699 1.605 -1.582 c 0 -0.887 -0.711 -1.582 -1.594 -1.582 l -2.363 0 c -0.273 0 -0.504 -0.23 -0.504 -0.512 l 0 -3.113 c 0 -1.98 1.609 -3.582 3.59 -3.582 c 0.672 0 0.836 0.09 1.297 0.09 c 0.969 0 1.609 -0.648 1.609 -1.531 c 0 -0.734 -0.629 -1.363 -1.395 -1.563 c -0.527 -0.141 -0.938 -0.199 -1.508 -0.199 m 0 0" fill="#f9f9f9" stroke="none" fill-rule="nonzero" fill-opacity="1"/></g></svg>