<!-- color: #3d3d3d --><svg xmlns="http://www.w3.org/2000/svg" viewBox="0 0 48 48"><g><path d="m 19 17 c -3.867 0 -7 3.133 -7 7 c 0 3.867 3.133 7 7 7 c 1.316 0 2.543 -0.367 3.594 -1 l 9.09 0 c 2.391 0 4.313 -1.926 4.313 -4.313 l 0 -3.375 c 0 -2.391 -1.922 -4.313 -4.313 -4.313 l -9.09 0 c -1.051 -0.633 -2.277 -1 -3.594 -1 m 0 3 c 2.211 0 4 1.789 4 4 c 0 2.211 -1.789 4 -4 4 c -2.211 0 -4 -1.789 -4 -4 c 0 -2.211 1.789 -4 4 -4 m 0 0" fill="#f9f9f9" stroke="none" fill-rule="nonzero" fill-opacity="1"/></g></svg>