<!-- color: #294172 --><svg xmlns="http://www.w3.org/2000/svg" viewBox="0 0 48 48"><g><path d="m 29.469 11 c -0.191 0.004 -0.375 0.012 -0.563 0.031 c -0.176 0.023 -0.359 0.063 -0.531 0.094 c -3.461 0.605 -6.094 3.617 -6.094 7.25 l 0 3.906 l -3.906 0 c -4.047 0 -7.375 3.297 -7.375 7.344 c 0 4.047 3.332 7.375 7.375 7.375 c 4.04 0 7.344 -3.328 7.344 -7.375 l 0 -4.094 l 2.875 0 l 0 0.188 l 1.031 0 c 0.43 0 0.84 -0.055 1.25 -0.125 l 0 -1.219 c 0.293 -0.066 0.598 -0.141 0.875 -0.25 l 0.625 1.063 c 0.723 -0.289 1.348 -0.727 1.938 -1.219 l -0.625 -1.063 c 0.215 -0.195 0.441 -0.398 0.625 -0.625 l 1.063 0.594 c 0.477 -0.602 0.887 -1.27 1.156 -2 l -1.156 -0.625 c 0.082 -0.27 0.141 -0.563 0.188 -0.844 l 1.344 0 c 0.051 -0.348 0.094 -0.672 0.094 -1.031 c 0 -0.426 -0.051 -0.844 -0.125 -1.25 l -1.344 0 c -0.059 -0.273 -0.152 -0.555 -0.25 -0.813 l 1.188 -0.688 c -0.293 -0.723 -0.727 -1.348 -1.219 -1.938 l -1.156 0.656 c -0.191 -0.207 -0.383 -0.41 -0.594 -0.594 l 0.656 -1.125 c -0.602 -0.477 -1.242 -0.883 -1.969 -1.156 l -0.094 0.156 c -0.234 -0.184 -0.512 -0.328 -0.813 -0.406 c -0.379 -0.098 -0.707 -0.156 -1.063 -0.188 c -0.137 -0.012 -0.285 -0.027 -0.438 -0.031 c -0.051 -0.004 -0.105 0 -0.156 0 c -0.055 0 -0.105 0 -0.156 0 m 0.188 3.469 c 0.363 0 0.582 0.039 0.781 0.063 c 1.793 0.363 3.125 1.938 3.125 3.844 c 0 2.18 -1.754 3.906 -3.938 3.906 l -3.719 0 c -0.066 -0.051 -0.133 -0.09 -0.188 -0.156 l 0 -3.75 c 0 -1.074 0.406 -2.047 1.094 -2.75 c 0.035 -0.039 0.086 -0.059 0.125 -0.094 c 0.207 -0.18 0.414 -0.363 0.656 -0.5 c 0.621 -0.355 1.328 -0.563 2.063 -0.563 m -11.281 11.25 l 3.719 0 c 0.066 0.055 0.133 0.09 0.188 0.156 l 0 3.75 c 0 2.18 -1.723 3.938 -3.906 3.938 c -2.184 0 -3.938 -1.758 -3.938 -3.938 c 0 -2.18 1.758 -3.906 3.938 -3.906 m 0 0" fill="#f9f9f9" stroke="none" fill-rule="nonzero" fill-opacity="1"/></g></svg>