<!-- color: #ed9d49 --><svg xmlns="http://www.w3.org/2000/svg" viewBox="0 0 48 48"><g><path d="m 12.813 14 c -0.441 0.051 -0.816 0.496 -0.813 0.969 l 0 18.09 c 0 0.5 0.434 0.938 0.906 0.938 l 22.09 0 c 0.473 0 1 -0.5 1 -1 l 0 -15 c 0 -0.5 -0.527 -1 -1 -1 l -9 0 l 0 -2 c 0 -0.648 -0.449 -1 -1 -1 l -6 0 l 0 2 l -2 0 l 0 2 l 2 0 l 0 2 l -2 0 l 0 2 l 2 0 l 0 2 l -2 0 l 0 -2 l -2 0 l 0 -2 l 2 0 l 0 -2 l -2 0 l 0 -2 l 2 0 l 0 -2 m -2 11 l 4 0 l 0 4 l -4 0 m 0 -4" fill="#f9f9f9" stroke="none" fill-rule="nonzero" fill-opacity="1"/></g></svg>