<!-- color: #2161ad --><svg xmlns="http://www.w3.org/2000/svg" viewBox="0 0 48 48"><g><path d="m 27.29 13.03 c 0.742 0.141 1.379 0.305 1.887 0.527 c 0.785 0.336 1.285 0.789 1.523 1.301 c -0.727 -0.133 -1.371 -0.098 -1.949 0.121 c 4.145 1.582 6.098 3.473 5.871 5.645 c -0.305 -0.453 -0.703 -0.762 -1.219 -0.914 c 0.633 2.387 0.699 4.34 0.184 5.891 c -0.355 -1.035 -0.688 -1.629 -0.977 -1.848 c 0.402 3.195 -0.133 5.551 -1.625 7.09 c 0.285 -0.941 0.41 -1.711 0.344 -2.316 c -1.746 2.527 -3.742 3.836 -5.969 3.918 c -0.883 -0.008 -1.715 -0.117 -2.5 -0.363 c -1.145 -0.371 -2.18 -1.031 -3.105 -1.93 c 1.445 0.113 2.738 -0.125 3.898 -0.691 l 1.91 -1.199 c 0.117 -0.086 0.25 -0.117 0.363 -0.121 c 0.016 0 0.027 0 0.043 0 c 0.102 0.004 0.203 0.035 0.305 0.082 c 0.191 -0.027 0.305 -0.078 0.387 -0.145 c 0.016 -0.012 0.047 -0.02 0.059 -0.039 c 0.008 -0.012 0.016 -0.027 0.02 -0.039 c 0.059 -0.094 0.059 -0.238 0 -0.43 c -0.16 -0.188 -0.383 -0.387 -0.711 -0.586 c -0.09 -0.07 -0.191 -0.145 -0.305 -0.203 c -0.949 -0.48 -1.934 -0.508 -2.965 0.223 c -0.988 0.539 -1.941 0.508 -2.863 -0.063 c -0.605 -0.398 -1.184 -0.949 -1.746 -1.625 l -0.223 -0.305 l 0 -0.02 c 0.027 -0.668 0.301 -1.016 0.852 -1.098 c 0.621 0.055 1.328 0.184 2.133 0.406 c 0.137 -0.738 -0.039 -1.516 -0.527 -2.313 l 0.02 -0.082 c 0.016 -0.016 0.027 -0.027 0.043 -0.043 c 0.004 0.016 0.012 0.031 0.02 0.043 c 0.531 -0.535 1.148 -0.949 1.828 -1.363 c 0.02 -0.008 0.039 -0.027 0.059 -0.039 c 0.039 -0.051 0.051 -0.082 0.082 -0.121 c 0.102 -0.07 0.203 -0.168 0.266 -0.348 c 0.031 -0.043 0.066 -0.086 0.102 -0.141 c -0.004 -0.008 0 -0.012 0 -0.02 c 0.012 -0.023 0.012 -0.039 0.02 -0.063 c 0.016 -0.004 0.047 0.008 0.063 0.02 c 0.043 -0.203 0.043 -0.184 -0.145 -0.445 c -0.027 0.008 -0.055 -0.004 -0.082 0 c -0.004 -0.004 -0.016 0.004 -0.02 0 c -0.367 0.008 -0.691 0 -1.098 -0.039 c -0.109 -0.023 -0.227 -0.039 -0.324 -0.063 c -0.004 0 -0.016 0 -0.02 0 c -0.195 -0.063 -0.449 -0.246 -0.75 -0.547 l -0.793 -0.813 l -0.246 -0.184 c -0.012 0.047 -0.027 0.094 -0.039 0.141 l -0.184 -0.242 l 0 -0.102 c 0.102 -0.645 0.434 -1.156 0.691 -1.645 c 0.285 -0.449 0.805 -0.945 1.605 -1.465 c -1.484 0.18 -2.813 0.828 -4 1.93 c -0.984 -0.348 -2.168 -0.273 -3.512 0.227 c -0.84 -0.383 -0.801 -0.902 -1.078 -2.641 c -4.969 5.316 -5.01 13.297 -1.074 19.07 c 2.98 3.727 6.719 5.707 11.23 5.973 c 10.5 0.469 17.383 -8.578 15.699 -17.754 c -0.039 -0.727 -0.934 -3.879 -2.578 -6.01 c 0.285 1.105 0.301 2.32 0.305 2.945 c -0.613 -2.086 -2.332 -3.824 -4.813 -4.551 c -1.227 -0.355 -2.684 -0.539 -4.367 -0.586 m 0 0" fill="#f9f9f9" stroke="none" fill-rule="nonzero" fill-opacity="1"/></g></svg>