<!-- color: #f26e32 --><svg xmlns="http://www.w3.org/2000/svg" viewBox="0 0 48 48"><g><path d="m 23.719 12 c -0.023 0.004 -0.039 0.027 -0.063 0.031 c -0.172 0.039 -0.332 0.113 -0.469 0.219 c -0.012 0.012 -0.02 0.02 -0.031 0.031 c -0.652 0.285 -1.18 0.754 -1.375 1.469 l 0 0.031 c -0.004 0.016 -0.027 0.016 -0.031 0.031 l -1.781 5.531 l -5.594 0 c -0.75 0 -1.355 0.371 -1.781 0.906 l -0.031 -0.031 c -0.016 0.016 0.016 0.047 0 0.063 c -0.891 1.098 -0.711 2.625 0.438 3.469 l -0.031 0.031 l 0.063 0.031 l 4.5 3.406 l -1.75 5.656 c 0 0.012 0 0.02 0 0.031 c -0.289 1.027 0.23 1.977 0.906 2.5 c 0.676 0.523 1.746 0.801 2.656 0.219 c 0.023 -0.02 0.043 -0.039 0.063 -0.063 l 4.594 -3.5 l 4.625 3.5 c 0.012 0.012 0.02 0.02 0.031 0.031 c 0.926 0.633 2.129 0.527 2.938 -0.219 c 0.672 -0.641 0.926 -1.574 0.656 -2.469 l -1.75 -5.688 l 4.5 -3.406 l 0.063 -0.031 l -0.031 -0.031 c 1.152 -0.848 1.352 -2.402 0.438 -3.5 c -0.008 -0.008 -0.023 0.008 -0.031 0 c -0.422 -0.508 -1 -0.883 -1.719 -0.906 c -0.012 0 -0.02 0 -0.031 0 l -5.75 0 l -1.688 -5.563 c -0.004 -0.008 0.004 -0.023 0 -0.031 c -0.113 -0.383 -0.305 -0.75 -0.625 -1.063 c -0.203 -0.203 -0.527 -0.164 -0.781 -0.281 c 0 -0.012 0 -0.02 0 -0.031 c -0.102 -0.094 -0.219 -0.168 -0.344 -0.219 c -0.012 -0.012 -0.02 -0.02 -0.031 -0.031 c -0.02 -0.012 -0.043 -0.02 -0.063 -0.031 c -0.082 -0.031 -0.164 -0.051 -0.25 -0.063 c -0.012 0 -0.02 0 -0.031 0 c -0.063 -0.016 -0.125 -0.027 -0.188 -0.031 c -0.012 0 -0.02 0 -0.031 0 c -0.031 0 -0.063 0 -0.094 0 c -0.031 0 -0.063 0 -0.094 0 m 0.313 2.5 l 1.844 6.156 c 0.09 0.313 0.305 0.57 0.594 0.719 l 0.438 0.219 c 0.164 0.082 0.348 0.125 0.531 0.125 l 6.188 0 c -0.043 0 -0.008 0.02 0 0.031 c 0.012 0 0.02 0 0.031 0 c -0.047 -0.055 -0.102 0.164 0 0.094 c -0.012 0.012 -0.02 0.02 -0.031 0.031 l -5 3.813 c -0.223 0.172 -0.379 0.414 -0.438 0.688 c 0.063 -0.309 -0.004 -0.098 -0.094 0.125 c -0.047 0.113 -0.133 0.246 -0.125 0.625 c 0.004 0.102 0.109 0.262 0.156 0.406 l -0.031 0 l 1.875 6.06 l -4.906 -3.719 c -0.211 -0.148 -0.461 -0.227 -0.719 -0.219 l -0.656 0 c -0.258 -0.008 -0.508 0.07 -0.719 0.219 l -4.906 3.719 c 0.051 -0.016 0.121 -0.016 0.063 -0.063 c -0.078 -0.059 -0.039 -0.047 -0.063 0.031 l -0.031 0 l 1.906 -6.06 c 0.055 -0.184 0.066 -0.375 0.031 -0.563 l -0.125 -0.531 c -0.047 -0.297 -0.203 -0.563 -0.438 -0.75 l -5 -3.781 c -0.012 -0.012 -0.02 -0.02 -0.031 -0.031 c 0.113 0.078 0.055 -0.16 0 -0.094 c 0 -0.012 0 -0.02 0 -0.031 l 6.094 0 c 0.184 0 0.367 -0.043 0.531 -0.125 l 0.438 -0.219 c 0.289 -0.148 0.504 -0.406 0.594 -0.719 m 2 -6.156" fill="#f9f9f9" stroke="none" fill-rule="nonzero" fill-opacity="1"/></g></svg>