<!-- color: #eeeeee --><svg xmlns="http://www.w3.org/2000/svg" viewBox="0 0 48 48"><g><path d="m 24 9 c -8.309 0 -15 6.691 -15 15 c 0 0.297 0.016 0.582 0.031 0.875 c 0 0.008 0 0.023 0 0.031 c 0 0.012 0 0.02 0 0.031 c 0.484 7.863 6.977 14.06 14.969 14.06 c 8 0 14.469 -6.215 14.938 -14.09 c 0.004 -0.063 0.027 -0.125 0.031 -0.188 l 0.031 0 c -0.008 -0.031 -0.02 -0.063 -0.031 -0.094 c 0.008 -0.211 0.031 -0.414 0.031 -0.625 c 0 -8.309 -6.691 -15 -15 -15 m 0 1.438 c 7.211 0 13.05 5.586 13.469 12.688 c -0.43 -0.262 -0.918 -0.523 -1.5 -0.75 c -0.766 -5.938 -5.82 -10.5 -11.969 -10.5 c -6.164 0 -11.25 4.578 -12 10.531 c -0.586 0.234 -1.074 0.484 -1.5 0.75 c 0.398 -7.117 6.27 -12.719 13.5 -12.719 m -1.281 2.594 c 0.301 -0.027 0.613 -0.027 0.906 0 c 0.336 0.031 0.855 -0.105 1.094 0.188 c 0.207 0.035 0.281 0.105 0.406 0.281 l -0.219 0 l 0.156 0.188 c 0.137 -0.125 0.426 -0.07 0.594 0 c -0.832 0.004 -0.578 0.762 -1.031 1.25 c -0.379 0.418 -1.172 0.457 -1.656 0.719 l -0.875 0.969 c -0.145 -0.289 -0.457 -0.676 -0.469 -1 c -0.012 -0.262 0.344 -0.449 0.219 -0.719 c -0.172 -0.383 -0.676 -0.457 -0.844 -0.875 l -1.531 0.719 c 0.477 0 1 -0.02 1.063 0.563 l 0.406 0.188 c -0.641 0.398 -0.715 0.117 -1.344 -0.125 c -0.117 -0.809 -1.027 0.5 -1.125 0.563 l -0.438 0.031 l 0.094 -0.281 c -0.266 0.223 -1.355 0.766 -1.344 1.125 c 0.02 0.328 0.688 0.508 0.938 0.625 l 0.063 0.406 l 0.656 -0.781 l 0.469 -0.969 l 0.625 0.281 l -0.125 0.375 c 0.754 -0.367 0.777 0.527 1.25 0.875 c -0.43 0.656 -1.309 0.453 -1.938 0.813 c 0.348 -0.02 0.914 -0.109 1.125 0.25 l -0.656 0.406 c -0.512 0.188 -1.117 0.48 -1.5 0.906 l -0.344 0.625 c -0.492 0.656 -0.84 0.758 -0.844 1.656 l -0.531 -0.469 l 0.063 -0.125 c -0.574 -0.117 -1.504 0.141 -1.813 0.719 c -0.164 0.309 -0.09 0.672 -0.063 1 l 0.125 0 c -0.02 -0.309 -0.07 -0.621 0.063 -0.906 l 0.469 0.969 c 0.223 -0.25 0.434 -0.469 0.75 -0.25 c -0.215 0.219 -0.227 0.582 -0.156 0.875 l 0.031 -0.188 l 0.438 0.188 c -0.059 0.352 -0.035 0.672 0.219 0.938 l -0.063 -0.219 l 0.344 0.219 l -0.094 0.125 l 0.406 0.063 c 0.113 -0.238 0.512 -0.73 0.813 -0.688 l 0.688 0.375 l 0.938 0.063 l 0.188 0.844 l 0.094 -0.125 l 0.719 0.344 l 0.125 0.531 l 0.094 -0.031 c 0.449 0.523 1.371 0.793 2 1.031 l -0.469 1.375 c -2.137 -0.102 -4.105 -0.352 -5.781 -0.719 c -0.059 -0.125 -0.109 -0.234 -0.125 -0.344 c -0.098 -0.684 0.449 -1.699 0.719 -2.313 l -0.75 -0.094 l -0.906 -0.844 l -1.281 -0.531 l -0.094 0.594 l -0.031 0 l -0.063 -0.625 c -0.188 -0.352 -0.578 -0.57 -0.563 -1.031 c 0.141 -4.04 3.449 -8.109 7.125 -9.375 c 0.809 -0.277 1.695 -0.547 2.594 -0.625 m 6.375 1.75 l 0.125 0 c 0.363 0.344 1.148 0.375 1.625 0.438 l -0.063 0.156 c 0.609 0.086 0.945 0.582 1.344 1 c 1.137 1.168 1.953 2.641 2.469 4.188 c 0.148 0.469 0.723 1.816 0.156 2.125 c -0.523 -0.57 -1.078 -0.59 -1.625 -1.063 c 0 0.59 0.367 0.648 0.594 1.125 l 0.094 0 l 0.313 -0.375 c 0.68 1.18 -0.652 1.598 -1.281 2.375 l 0.688 -0.063 c -0.027 1.094 -0.949 1.781 -1.281 2.75 c -0.078 0.227 -0.082 0.477 -0.063 0.719 c -1.09 0.254 -2.305 0.449 -3.625 0.594 c 0.004 -0.613 -0.375 -1.254 -0.531 -1.813 c -0.09 -0.324 0.164 -0.574 -0.094 -0.875 c -0.395 -0.461 -1.035 -0.195 -1.469 -0.031 c -0.32 -0.328 -0.566 0.324 -0.906 0 c -0.488 -0.477 -1.078 -1.184 -1.188 -1.875 l 0.188 -0.719 c 0.113 -1.063 0.711 -2.328 1.781 -2.813 l -0.125 -0.063 l 0.25 -0.125 c 0.535 0.063 1.039 -0.129 1.563 0.094 l 0.938 0.75 c 0.336 -0.578 0.977 -0.094 1.469 -0.063 c 0.402 0.023 0.66 -0.285 0.875 -0.594 c -0.625 -0.227 -0.977 -0.309 -1.469 -0.75 l 0 -0.188 c -0.297 0.184 -0.223 0.438 -0.406 0.688 c -0.266 -0.352 -0.367 -0.805 -0.75 -1.031 c 0.285 0.348 0.172 0.715 -0.281 0.813 c 0.141 -0.563 -0.32 -0.535 -0.469 -1 c -0.914 0.242 -1.102 1 -1.875 1.406 c -0.133 -0.133 -0.219 -0.172 -0.406 -0.188 c -0.031 -0.793 -0.02 -1.277 0.938 -1.281 l -0.406 -0.719 l 0.281 0 l -0.063 -0.156 c 0.203 -0.004 0.32 -0.043 0.469 -0.188 l -0.531 0.125 l -0.125 -0.656 l -0.219 0.406 l 0.188 0.063 l -0.25 0.063 l -0.156 -0.719 c 0.328 -0.07 0.469 0.016 0.625 0.313 l -0.156 -0.938 l 0.406 0.063 c 0.012 0.164 0.043 0.23 0.156 0.344 c 0.027 0.27 0.199 0.414 0.375 0.594 c 0.168 -0.168 0.273 -0.188 0.5 -0.125 c -0.094 -0.293 -0.082 -0.461 0.25 -0.531 l 0 0.375 l 0.563 0.031 c 0.578 -0.199 0.746 -0.938 0.594 -1.469 l -0.063 0.469 l -0.063 -0.344 l -0.156 0.125 l 0.531 -0.656 c -0.828 0.352 -0.531 0.992 -0.875 1.656 c -0.219 -0.16 -0.445 -0.238 -0.531 -0.531 l -0.594 0.281 c -0.043 -0.219 -0.188 -0.535 -0.094 -0.75 l 0.563 -0.469 l 0.469 -0.656 c 0.258 -0.043 0.602 -0.145 0.813 -0.313 m -17.16 8.438 c -0.016 0.234 -0.031 0.48 -0.031 0.719 l 0 0.125 c 0 0.992 0.117 1.953 0.344 2.875 c -1.074 -0.574 -1.715 -1.23 -1.75 -1.938 c 0 -0.02 0 -0.043 0 -0.063 l 0 -0.063 c 0 -0.012 0 -0.02 0 -0.031 c 0.004 -0.094 0.039 -0.191 0.063 -0.281 c 0.008 -0.031 0.02 -0.063 0.031 -0.094 c 0.227 -0.445 0.691 -0.867 1.344 -1.25 m 24.13 0 c 0.645 0.379 1.086 0.809 1.313 1.25 c 0.043 0.133 0.063 0.273 0.063 0.406 l 0 0.063 c 0 0.727 -0.598 1.41 -1.688 2 c 0.227 -0.922 0.344 -1.883 0.344 -2.875 l 0 -0.125 c 0 -0.238 -0.016 -0.48 -0.031 -0.719 m -25.25 3.813 c 0.484 0.273 1.035 0.547 1.688 0.781 c 1.582 4.84 6.133 8.344 11.5 8.344 c 5.379 0 9.93 -3.52 11.5 -8.375 c 0 -0.004 0.031 0.004 0.031 0 c 0.609 -0.223 1.164 -0.465 1.625 -0.719 c -1.359 6.02 -6.707 10.5 -13.156 10.5 c -6.461 0 -11.832 -4.492 -13.188 -10.531 m 21.438 1.656 c 0.031 0.25 0.051 0.492 0 0.719 c -0.102 0.445 -0.77 0.473 -0.938 0.875 l 0.094 0.594 l -0.281 0.344 l -0.188 0.531 c -0.398 0.621 -1.188 0.988 -1.906 1.063 c -0.008 -0.938 -0.492 -1.695 -0.625 -2.594 l 0.125 -1.031 c 1.313 -0.125 2.594 -0.277 3.719 -0.5 m -15.844 0.094 c 1.621 0.289 3.43 0.477 5.375 0.563 c -0.043 0.441 0.078 0.832 -0.219 1.281 l -0.844 0.531 l -0.375 1.344 l -0.563 0.406 l -0.406 0.625 c 0.137 0.215 0.082 0.563 -0.25 0.469 c -0.344 -0.098 -1.078 -0.508 -1.281 -0.813 c -0.184 -0.277 0.09 -0.793 0.125 -1.094 l -0.188 -0.688 l -0.031 -0.938 c -0.16 -0.574 -0.766 -0.859 -1.094 -1.313 c -0.07 -0.098 -0.164 -0.246 -0.25 -0.375 m 0 0" fill="#f9f9f9" stroke="none" fill-rule="evenodd" fill-opacity="1"/></g></svg>