<!-- color: #4b9cbf --><svg xmlns="http://www.w3.org/2000/svg" viewBox="0 0 48 48"><g><path d="m 12.426 23.16 l 1.746 2.617 l 2.977 -0.148 l 3.945 -3.445 l -0.023 -3.914 l 2.738 -2.469 l 0.047 -1.68 l -2.457 -1.332 l -3.215 0.344 l -3.402 2.57 l -2.789 3.703 m 0.434 3.754" fill="#f9f9f9" stroke="none" fill-rule="nonzero" fill-opacity="1"/><path d="m 18.426 28.15 l 3.969 1.383 l 2.93 -0.688 l 4.395 -2.172 l 1.133 -2.125 l -0.945 -2.566 l -2.598 -1.531 l -4.676 2.023 l -4.066 2.469 m -0.141 3.211" fill="#f9f9f9" stroke="none" fill-rule="nonzero" fill-opacity="1"/><path d="m 36 25.285 l -4.348 0.246 l -0.426 -3.801 l -2.223 -1.879 l 4.68 -0.148 l 1.652 0.84 m 0.664 4.742" fill="#f9f9f9" stroke="none" fill-rule="nonzero" fill-opacity="1"/><path d="m 21.922 21.961 l -0.137 -3.5 l 3.262 -2.609 l -0.285 -1.875 c 0 0 -2.289 -1.25 -2.102 -1.199 c 0.188 0.051 5.313 0.805 5.313 0.805 l 4.492 2.27 l 2.219 2.719 l -1.133 0.355 l -4.02 -0.398 l -4.676 1.93 m -2.938 1.512" fill="#f9f9f9" stroke="none" fill-rule="nonzero" fill-opacity="1"/><path d="m 26.672 29.15 l 3.941 -2.484 l 4.578 -0.43 c 0 0 -0.914 2.863 -0.965 3.156 c -0.043 0.297 -1.133 1.094 -1.133 1.094 l -2.293 0.879 l -2.219 0.121 m -1.91 -2.336" fill="#f9f9f9" stroke="none" fill-rule="nonzero" fill-opacity="1"/><path d="m 23.387 30.52 l 3.871 5.48 l 2.223 -1.582 l -3.496 -4.391 m -2.598 0.492" fill="#f9f9f9" stroke="none" fill-rule="nonzero" fill-opacity="1"/></g></svg>