<!-- color: #5e96c1 --><svg xmlns="http://www.w3.org/2000/svg" viewBox="0 0 48 48"><g><path d="m 15 23 l 18 0 l 0 12 l -18 0 m 0 -12" fill="#f9f9f9" stroke="none" fill-rule="nonzero" fill-opacity="1"/><path d="m 11.03 26.426 l 4.391 -3.371 l 0.719 0.98 l -4.391 3.371 m -0.719 -0.98" fill="#f9f9f9" stroke="none" fill-rule="nonzero" fill-opacity="1"/><path d="m 31.891 23.977 l 4.387 3.371 l 0.719 -0.98 l -4.387 -3.371 m -0.719 0.98" fill="#f9f9f9" stroke="none" fill-rule="nonzero" fill-opacity="1"/><path d="m 17.14 17.14 l 2.723 0.883 l -0.863 2.789 l -2.723 -0.883 m 0.863 -2.789" fill="#f9f9f9" stroke="none" fill-rule="nonzero" fill-opacity="1"/><path d="m 19.08 12.262 l 4.23 -1.262 l 1.234 4.328 l -4.227 1.266 m -1.238 -4.332" fill="#f9f9f9" stroke="none" fill-rule="nonzero" fill-opacity="1"/><path d="m 27.887 19.406 l -1.348 1.754 l -2.156 -0.316 l -0.813 -2.066 l 1.348 -1.754 l 2.156 0.313 m 0.813 2.07" fill="#f9f9f9" stroke="none" fill-rule="nonzero" fill-opacity="1"/><path d="m 31.813 15.07 l -1.375 0.461 l -0.406 1.418 l -0.855 -1.191 l -1.445 0.043 l 0.848 -1.203 l -0.48 -1.395 l 1.379 0.453 l 1.145 -0.902 l 0.004 1.48 m 1.195 0.836" fill="#f9f9f9" stroke="none" fill-rule="nonzero" fill-opacity="1"/></g></svg>