<!-- color: #f45b55 --><svg xmlns="http://www.w3.org/2000/svg" viewBox="0 0 48 48"><g><path d="m 22 11 l 0 2.188 c -1.543 0.285 -2.973 0.891 -4.219 1.75 l -1.563 -1.563 l -2.844 2.844 l 1.563 1.563 c -1.051 1.527 -1.711 3.336 -1.875 5.281 l -2.063 0 l 0 2.938 l 2.188 0 c 0.352 1.902 1.207 3.637 2.406 5.063 l -1.469 1.469 l 1.344 1.344 l 0.75 0.719 l 0.75 -0.719 l 0.813 -0.813 c 1.527 1.051 3.336 1.711 5.281 1.875 l 0 2.063 l 2.938 0 l 0 -2.188 c 1.902 -0.352 3.637 -1.207 5.063 -2.406 l 1.469 1.469 l 1.344 -1.344 l 0.719 -0.75 l -0.719 -0.75 l -0.813 -0.813 c 0.859 -1.246 1.465 -2.676 1.75 -4.219 l 2.188 0 l 0 -2.938 l -2.063 0 c -0.164 -1.945 -0.824 -3.754 -1.875 -5.281 l 0.813 -0.813 l 0.719 -0.75 l -0.719 -0.75 l -1.344 -1.344 l -1.469 1.469 c -1.418 -1.191 -3.141 -2.051 -5.03 -2.406 l 0 -2.188 m -2.031 5.03 c 4.418 0 7.969 3.551 7.969 7.969 c 0 4.418 -3.551 7.969 -7.969 7.969 c -4.418 0 -7.969 -3.551 -7.969 -7.969 c 0 -4.418 3.551 -7.969 7.969 -7.969 m 0.031 3.906 c -2.254 0 -4.094 1.875 -4.094 4.094 c 0 2.262 1.879 4.063 4.094 4.063 c 2.238 0 4.063 -1.855 4.063 -4.063 c 0 -2.246 -1.832 -4.094 -4.063 -4.094 m 0 2.125 c 1.098 0 1.938 0.832 1.938 1.969 c 0 1.051 -0.855 1.938 -1.938 1.938 c -1.105 0 -1.969 -0.816 -1.969 -1.938 c 0 -1.039 0.902 -1.969 1.969 -1.969 m 0 0" fill="#f9f9f9" stroke="none" fill-rule="nonzero" fill-opacity="1"/></g></svg>