<!-- color: #474747 --><svg xmlns="http://www.w3.org/2000/svg" viewBox="0 0 48 48"><g><path d="m 12.813 16 c -0.441 0.043 -0.816 0.449 -0.813 0.875 l 0 16.25 c 0 0.449 0.434 0.875 0.906 0.875 l 22.19 0 c 0.469 0 0.906 -0.426 0.906 -0.875 l 0 -14.219 c 0 -0.449 -0.438 -0.875 -0.906 -0.875 l -9.125 0 l 0 -1.156 c 0 -0.449 -0.438 -0.875 -0.906 -0.875 m 1.719 4 c 1.773 0 3.211 1.414 3.219 3.188 l 0 0.031 c 0 1.777 -1.441 3.219 -3.219 3.219 c -0.555 0 -1.074 -0.156 -1.531 -0.406 l -1.688 1.688 l 0 0.844 l -0.844 0 l -0.438 0.438 l 0 0.844 l -0.406 0.438 l -0.875 0 l -0.438 0.438 l -0.844 0 l 0 0.844 l -0.438 0.438 l -1.281 0 l 0 -1.281 l 5.969 -5.969 c -0.25 -0.457 -0.406 -0.973 -0.406 -1.531 c 0 -1.773 1.441 -3.219 3.219 -3.219 m 0.656 1.719 c -0.477 0 -0.875 0.371 -0.875 0.844 c 0 0.477 0.398 0.875 0.875 0.875 c 0.473 0 0.844 -0.398 0.844 -0.875 c -0.004 -0.473 -0.375 -0.844 -0.844 -0.844 m 0 0" fill="#f9f9f9" stroke="none" fill-rule="nonzero" fill-opacity="1"/></g></svg>