<!-- color: #8cbacc --><svg xmlns="http://www.w3.org/2000/svg" viewBox="0 0 48 48"><g><path d="m 24 12 c -5.586 0 -10.258 3.832 -11.594 9 l 0.594 0 l 0 6 l -0.594 0 c 1.336 5.168 6.01 9 11.594 9 c 5.594 0 10.258 -3.832 11.594 -9 l -0.594 0 l 0 -6 l 0.594 0 c -1.34 -5.168 -6.01 -9 -11.594 -9 m -7 10 c 1.105 0 2 0.895 2 2 c 0 1.105 -0.895 2 -2 2 c -1.105 0 -2 -0.895 -2 -2 c 0 -1.105 0.895 -2 2 -2 m 7 0 c 1.105 0 2 0.895 2 2 c 0 1.105 -0.895 2 -2 2 c -1.105 0 -2 -0.895 -2 -2 c 0 -1.105 0.895 -2 2 -2 m 7 0 c 1.105 0 2 0.895 2 2 c 0 1.105 -0.895 2 -2 2 c -1.105 0 -2 -0.895 -2 -2 c 0 -1.105 0.895 -2 2 -2 m 0 0" fill="#f9f9f9" stroke="none" fill-rule="nonzero" fill-opacity="1"/></g></svg>