<!-- color: #474747 --><svg xmlns="http://www.w3.org/2000/svg" viewBox="0 0 48 48"><g><path d="m 14.766 14.363 c -0.547 0.145 -0.879 0.719 -0.73 1.262 l 5.531 20.617 c 0.145 0.543 0.715 0.875 1.262 0.73 l 12.406 -3.324 c 0.547 -0.145 0.879 -0.719 0.73 -1.262 l -5.527 -20.617 c -0.148 -0.543 -0.719 -0.875 -1.266 -0.73 m -4.574 7.734 c 0 0 3.992 1.418 5.215 3.01 c 0.867 1.125 1.813 2.883 1.105 4.109 c -0.199 0.348 -0.551 0.566 -0.949 0.699 c -0.664 0.227 -1.48 0.215 -2.137 0.125 l 0.328 1.223 l 1.027 -0.277 l 0.277 1.031 l -4.117 1.105 l -0.273 -1.031 l 1.027 -0.273 l -0.328 -1.223 c -0.848 0.645 -2.164 1.359 -3.09 0.824 c -1.227 -0.707 -1.289 -2.703 -1.102 -4.109 c 0.262 -1.988 3.01 -5.211 3.01 -5.211 m 0.004 0.004" fill="#f9f9f9" stroke="none" fill-rule="nonzero" fill-opacity="1"/></g></svg>