<!-- color: #474747 --><svg xmlns="http://www.w3.org/2000/svg" viewBox="0 0 48 48"><g><path d="m 26.406 12 c -1.324 0 -2.406 1.082 -2.406 2.406 l 0 7.188 c 0 1.324 1.082 2.406 2.406 2.406 l 7.188 0 c 1.324 0 2.406 -1.082 2.406 -2.406 l 0 -7.188 c 0 -1.324 -1.082 -2.406 -2.406 -2.406 m -18 2 c -0.883 0 -1.594 0.711 -1.594 1.594 l 0 4.813 c 0 0.883 0.711 1.594 1.594 1.594 l 4.813 0 c 0.883 0 1.594 -0.711 1.594 -1.594 l 0 -4.813 c 0 -0.883 -0.711 -1.594 -1.594 -1.594 m -6 10 c -1.324 0 -2.406 1.082 -2.406 2.406 l 0 7.188 c 0 1.324 1.082 2.406 2.406 2.406 l 7.188 0 c 1.324 0 2.406 -1.082 2.406 -2.406 l 0 -7.188 c 0 -1.324 -1.082 -2.406 -2.406 -2.406 m 6 2 c -0.883 0 -1.594 0.711 -1.594 1.594 l 0 4.813 c 0 0.883 0.711 1.594 1.594 1.594 l 4.813 0 c 0.883 0 1.594 -0.711 1.594 -1.594 l 0 -4.813 c 0 -0.883 -0.711 -1.594 -1.594 -1.594 m -4.813 0" fill="#f9f9f9" stroke="none" fill-rule="nonzero" fill-opacity="1"/></g></svg>