<!-- color: #38aee1 --><svg xmlns="http://www.w3.org/2000/svg" viewBox="0 0 48 48"><g><path d="m 22.813 17.06 c -1.422 0 -2.656 0.801 -3.25 1.969 c -0.34 -0.266 -0.781 -0.406 -1.25 -0.406 c -1.094 0 -1.969 0.867 -1.969 1.938 c 0 0.426 0.137 0.805 0.375 1.125 c -0.781 0.477 -1.371 1.215 -1.656 2.094 c -0.129 -0.012 -0.246 -0.031 -0.375 -0.031 c -2 0 -3.625 1.57 -3.625 3.531 c 0 1.961 1.621 3.563 3.625 3.563 c 0.84 0 1.605 -0.281 2.219 -0.75 c 0.379 0.477 0.961 0.781 1.625 0.781 c 0.93 0 1.707 -0.578 1.969 -1.406 c 0.902 0.867 2.137 1.375 3.5 1.375 c 1.34 0 2.539 -0.504 3.438 -1.344 c 0.719 0.867 1.801 1.438 3.03 1.438 c 1.066 0 2.01 -0.418 2.719 -1.094 c 0.375 0.52 0.988 0.844 1.688 0.844 c 1.145 0 2.063 -0.91 2.063 -2.031 c 0 -1.121 -0.918 -2.031 -2.063 -2.031 c -0.18 0 -0.363 0.051 -0.531 0.094 c -0.195 -1.945 -1.84 -3.469 -3.875 -3.469 c -0.02 0 -0.043 0 -0.063 0 c -0.066 -1.902 -1.664 -3.438 -3.625 -3.438 c -0.145 0 -0.297 0.047 -0.438 0.063 c -0.348 -1.602 -1.789 -2.813 -3.531 -2.813 m 0 0" stroke-opacity="1" fill="#f9f9f9" fill-rule="nonzero" stroke="#f9f9f9" stroke-linejoin="miter" fill-opacity="1" stroke-linecap="butt" stroke-width="0.096" stroke-miterlimit="4"/></g></svg>