<!-- color: #f8bd5a --><svg xmlns="http://www.w3.org/2000/svg" viewBox="0 0 48 48"><g><path d="m 23.672 9 c -7.582 0 -13.84 6.141 -14.613 14.07 c -0.004 0.02 0 0.047 0 0.07 c 0 0.008 0 0.016 0 0.023 c -0.004 0.027 0 0.047 0 0.074 c -0.086 1.141 -0.066 2.078 0 3.141 c 2.961 12.898 11.824 11.895 11.824 8.141 l -4.01 -6.922 c -0.863 -0.586 -1.762 0.418 -2.594 0.961 c -1.063 0.707 -1.145 0.813 -1.762 -0.797 c -0.719 -1.898 -1.086 -4.98 0 -7.508 c 2.246 -5.25 6.457 -8.176 11.152 -8.262 c 0.234 0 0.465 0 0.699 0 c 4.672 0.102 8.867 3.03 11.11 8.262 c 1.082 2.527 0.719 5.605 0 7.508 c -0.609 1.609 -0.699 1.504 -1.766 0.797 c -0.824 -0.547 -1.723 -1.547 -2.594 -0.961 l -4.01 6.922 c 0 3.75 8.867 4.758 11.828 -8.141 c 0.063 -1.063 0.086 -2 0 -3.141 c -0.004 -0.027 0.004 -0.047 0 -0.074 c 0 -0.004 0 -0.012 0 -0.023 c -0.004 -0.02 0.004 -0.047 0 -0.07 c -0.777 -7.938 -6.992 -14.07 -14.574 -14.07 c -0.699 0 0 0 -0.699 0 m 0.004 0" fill="#f9f9f9" stroke="none" fill-rule="nonzero" fill-opacity="1"/><path d="m 25.21 16.16 c -1.168 0.258 -2.148 1.191 -2.148 1.191 l 0.031 0.031 l 1.867 6.066 c -1.332 -0.637 -3.242 -0.477 -4.82 0.523 c -2.035 1.289 -2.746 3.484 -1.566 4.902 c 1.18 1.414 3.785 1.512 5.824 0.223 c 1.605 -1.016 2.504 -2.617 2.18 -3.934 c -0.012 -0.039 -0.023 -0.078 -0.039 -0.117 l -1.789 -6.066 c 0.043 -0.051 0.563 -0.262 2.254 -0.363 c 1.793 -0.105 3 -2.613 3 -2.613 c 0 0 -2.01 0.672 -3.594 0.184 c -0.398 -0.121 -0.813 -0.117 -1.203 -0.031 m 0.004 0.004" fill="#f9f9f9" stroke="none" fill-rule="nonzero" fill-opacity="1"/></g></svg>