<!-- color: #f4b400 --><svg xmlns="http://www.w3.org/2000/svg" viewBox="0 0 48 48"><g><path d="m 24.01 12 c -2.898 0.004 -5.734 1.297 -7.48 3.691 c -2.715 3.738 -1.73 8.801 2.145 11.441 l 0 7.871 l 1.328 0 l 0 1 l 8 0 l 0 -1 l 1.313 0 l 0 -7.871 c 0.832 -0.57 1.566 -1.258 2.145 -2.059 c 2.77 -3.828 1.691 -9.04 -2.43 -11.633 c -1.543 -0.969 -3.289 -1.441 -5.03 -1.441 m -0.012 1.523 c 1.418 0 2.852 0.383 4.121 1.18 c 3.379 2.125 4.266 6.367 1.984 9.512 c -0.527 0.723 -1.195 1.355 -1.977 1.848 l -0.133 1.941 l -8 0 l -0.117 -1.941 c -3.387 -2.125 -4.27 -6.367 -1.98 -9.512 c 1.426 -1.965 3.742 -3.03 6.102 -3.02 m -4 15.477 l 8 0 l 0 1.996 l -8 0 m 0 1 l 8 0 l 0 1.715 l -8 0 m 0 -1.715" fill="#f9f9f9" stroke="none" fill-rule="nonzero" fill-opacity="1"/></g></svg>