<!-- color: #51bcb7 --><svg xmlns="http://www.w3.org/2000/svg" viewBox="0 0 48 48"><g><path d="m 24 9 c -8.285 0 -15 6.715 -15 15 c 0 8.281 6.715 15 15 15 c 8.281 0 15 -6.719 15 -15 c 0 -8.285 -6.719 -15 -15 -15 m -3 5 l 6 0 l 0 6.938 c 0.793 0.777 1.281 1.863 1.281 3.063 c 0 1.168 -0.461 2.227 -1.219 3 l 4.938 0 l -8 7 l -8 -7 l 4.938 0 c -0.758 -0.773 -1.219 -1.832 -1.219 -3 c 0 -1.199 0.488 -2.285 1.281 -3.063 m 0 -6.938" fill="#f9f9f9" stroke="none" fill-rule="evenodd" fill-opacity="1"/><path d="m 24 21.859 c 0.59 0 1.129 0.238 1.516 0.621 c 0.387 0.387 0.625 0.926 0.625 1.52 c 0 0.59 -0.238 1.129 -0.625 1.516 c -0.387 0.387 -0.926 0.625 -1.516 0.625 c -0.594 0 -1.133 -0.238 -1.52 -0.625 c -0.383 -0.387 -0.621 -0.926 -0.621 -1.516 c 0 -0.594 0.238 -1.133 0.621 -1.52 c 0.387 -0.383 0.926 -0.621 1.52 -0.621 m 0 0" fill="#fff" stroke="none" fill-rule="nonzero" fill-opacity="0.498"/></g></svg>