<!-- color: #74da11 --><svg xmlns="http://www.w3.org/2000/svg" viewBox="0 0 48 48"><g><path d="m 24.469 12 c -8.395 -0.18 -15.547 4.543 -16.375 10.813 c 0.844 -5.258 7.07 -9.117 14.207 -8.805 c 7.137 0.316 12.707 4.695 12.699 9.992 c 0.035 5.27 -5.453 9.652 -12.547 10.02 c -7.098 0.371 -13.363 -3.398 -14.328 -8.617 c 1.051 6.27 8.402 10.855 16.816 10.484 c 8.41 -0.371 14.996 -5.57 15.06 -11.891 c 0.004 -6.492 -6.879 -11.809 -15.531 -12 m 0 0" fill="#f9f9f9" stroke="none" fill-rule="nonzero" fill-opacity="1"/><path d="m 19.313 16 c -2.973 -0.063 -5.852 0.754 -7.98 2.262 c -2.133 1.508 -3.332 3.578 -3.332 5.738 c 0 4.418 4.926 8 11 8 c 6.074 0 11 -3.582 11 -8 c 0.004 -4.332 -4.734 -7.875 -10.688 -8 m -3 2 c 2.355 -0.117 4.672 0.465 6.398 1.602 c 1.723 1.141 2.699 2.73 2.695 4.398 c 0 3.313 -3.805 6 -8.5 6 c -4.695 0 -8.5 -2.688 -8.5 -6 c -0.012 -3.156 3.445 -5.781 7.906 -6 m 0 0" fill="#f9f9f9" stroke="none" fill-rule="nonzero" fill-opacity="1"/></g></svg>