<!-- color: #eeeeee --><svg xmlns="http://www.w3.org/2000/svg" viewBox="0 0 48 48"><g><path d="m 14.535 12.5 c -0.051 3.543 -0.047 7.121 0 10.668 c 0.047 3.43 0.199 6.102 1.563 8.199 c 1.645 2.516 4.379 4.336 7.902 6.125 c 3.516 -1.785 6.262 -3.609 7.902 -6.125 c 1.363 -2.098 1.516 -4.77 1.563 -8.199 c 0.039 -3.547 0.039 -7.125 0 -10.668 m -3.641 0.297 l 3.371 0 c 0.008 1.332 0.027 2.66 0.031 3.977 l -14.445 17.188 c -1 -0.832 -1.859 -1.719 -2.516 -2.746 c -0.301 -0.445 -0.535 -0.918 -0.727 -1.41 l 0 -0.004 l 14 -17 l -15.492 -0.172" fill="#f9f9f9" stroke="none" fill-rule="nonzero" fill-opacity="1"/></g></svg>