<!-- color: #e3d238 --><svg xmlns="http://www.w3.org/2000/svg" viewBox="0 0 48 48"><g><path d="m 31 15 c 0 2.211 -1.793 4 -4 4 c -2.211 0 -4 -1.793 -4 -4 c 0 -2.211 1.789 -4 4 -4 c 2.207 0 4 1.793 4 4 m 0 0" fill="#f9f9f9" stroke="none" fill-rule="nonzero" fill-opacity="1"/><path d="m 21 24 c 0 2.211 -1.793 4 -4 4 c -2.211 0 -4 -1.793 -4 -4 c 0 -2.211 1.789 -4 4 -4 c 2.207 0 4 1.793 4 4 m 0 0" fill="#f9f9f9" stroke="none" fill-rule="nonzero" fill-opacity="1"/><path d="m 31 33 c 0 2.211 -1.793 4 -4 4 c -2.211 0 -4 -1.793 -4 -4 c 0 -2.211 1.789 -4 4 -4 c 2.207 0 4 1.793 4 4 m 0 0" fill="#f9f9f9" stroke="none" fill-rule="nonzero" fill-opacity="1"/><path d="m 17.898 21.355 l 6.711 -6.102 l 1.219 1.426 l -6.508 6.102 m -1.422 -1.426" fill="#f9f9f9" stroke="none" fill-rule="nonzero" fill-opacity="1"/><path d="m 19.93 24.406 l 6.102 6.711 l -1.422 1.219 l -6.102 -6.508 m 1.422 -1.422" fill="#f9f9f9" stroke="none" fill-rule="nonzero" fill-opacity="1"/></g></svg>