<!-- color: #8fd56e --><svg xmlns="http://www.w3.org/2000/svg" viewBox="0 0 48 48"><g><path d="m 18.531 15 c -1.965 0 -3.531 1.566 -3.531 3.531 l 0 10.938 c 0 1.965 1.566 3.531 3.531 3.531 l 10.938 0 c 1.965 0 3.531 -1.566 3.531 -3.531 l 0 -10.938 c 0 -1.965 -1.566 -3.531 -3.531 -3.531 m -5.469 2.5 c 0.551 0 1 0.449 1 1 c 0 0.551 -0.449 1 -1 1 c -0.551 0 -1 -0.449 -1 -1 c 0 -0.551 0.449 -1 1 -1 m -1 3.5 l 2 0 l 0 8 l 2 0 l 0 2 l -6 0 l 0 -2 l 2 0 m 0 -8" fill="#f9f9f9" stroke="none" fill-rule="nonzero" fill-opacity="1"/><path d="m 19.887 9 l 0.227 0 c 0.488 0 0.883 0.398 0.883 0.887 l 0 3.227 c 0 0.488 -0.395 0.887 -0.883 0.887 l -0.227 0 c -0.492 0 -0.887 -0.398 -0.887 -0.887 l 0 -3.227 c 0 -0.488 0.395 -0.887 0.887 -0.887 m 0 0" fill="#f9f9f9" stroke="none" fill-rule="nonzero" fill-opacity="1"/><path d="m 23.887 9 l 0.227 0 c 0.488 0 0.883 0.398 0.883 0.887 l 0 3.227 c 0 0.488 -0.395 0.887 -0.883 0.887 l -0.227 0 c -0.492 0 -0.887 -0.398 -0.887 -0.887 l 0 -3.227 c 0 -0.488 0.395 -0.887 0.887 -0.887 m 0 0" fill="#f9f9f9" stroke="none" fill-rule="nonzero" fill-opacity="1"/><path d="m 27.887 9 l 0.227 0 c 0.488 0 0.887 0.398 0.887 0.887 l 0 3.227 c 0 0.488 -0.398 0.887 -0.887 0.887 l -0.227 0 c -0.488 0 -0.887 -0.398 -0.887 -0.887 l 0 -3.227 c 0 -0.488 0.398 -0.887 0.887 -0.887 m 0 0" fill="#f9f9f9" stroke="none" fill-rule="nonzero" fill-opacity="1"/><path d="m 19.887 34 l 0.227 0 c 0.488 0 0.883 0.398 0.883 0.887 l 0 3.23 c 0 0.488 -0.395 0.883 -0.883 0.883 l -0.227 0 c -0.492 0 -0.887 -0.395 -0.887 -0.883 l 0 -3.23 c 0 -0.488 0.395 -0.887 0.887 -0.887 m 0 0" fill="#f9f9f9" stroke="none" fill-rule="nonzero" fill-opacity="1"/><path d="m 23.887 34 l 0.227 0 c 0.488 0 0.883 0.398 0.883 0.887 l 0 3.23 c 0 0.488 -0.395 0.883 -0.883 0.883 l -0.227 0 c -0.492 0 -0.887 -0.395 -0.887 -0.883 l 0 -3.23 c 0 -0.488 0.395 -0.887 0.887 -0.887 m 0 0" fill="#f9f9f9" stroke="none" fill-rule="nonzero" fill-opacity="1"/><path d="m 27.887 34 l 0.227 0 c 0.488 0 0.887 0.398 0.887 0.887 l 0 3.23 c 0 0.488 -0.398 0.883 -0.887 0.883 l -0.227 0 c -0.488 0 -0.887 -0.395 -0.887 -0.883 l 0 -3.23 c 0 -0.488 0.398 -0.887 0.887 -0.887 m 0 0" fill="#f9f9f9" stroke="none" fill-rule="nonzero" fill-opacity="1"/><path d="m 14 18.887 l 0 0.227 c 0 0.488 -0.398 0.887 -0.887 0.887 l -3.227 0 c -0.488 0 -0.887 -0.398 -0.887 -0.887 l 0 -0.227 c 0 -0.488 0.398 -0.887 0.887 -0.887 l 3.227 0 c 0.488 0 0.887 0.398 0.887 0.887 m 0 0" fill="#f9f9f9" stroke="none" fill-rule="nonzero" fill-opacity="1"/><path d="m 14 22.887 l 0 0.227 c 0 0.488 -0.398 0.887 -0.887 0.887 l -3.227 0 c -0.488 0 -0.887 -0.398 -0.887 -0.887 l 0 -0.227 c 0 -0.488 0.398 -0.887 0.887 -0.887 l 3.227 0 c 0.488 0 0.887 0.398 0.887 0.887 m 0 0" fill="#f9f9f9" stroke="none" fill-rule="nonzero" fill-opacity="1"/><path d="m 14 26.887 l 0 0.227 c 0 0.488 -0.398 0.887 -0.887 0.887 l -3.227 0 c -0.488 0 -0.887 -0.398 -0.887 -0.887 l 0 -0.227 c 0 -0.488 0.398 -0.887 0.887 -0.887 l 3.227 0 c 0.488 0 0.887 0.398 0.887 0.887 m 0 0" fill="#f9f9f9" stroke="none" fill-rule="nonzero" fill-opacity="1"/><path d="m 39.01 18.887 l 0 0.227 c 0 0.488 -0.398 0.887 -0.895 0.887 l -3.227 0 c -0.488 0 -0.887 -0.398 -0.887 -0.887 l 0 -0.227 c 0 -0.488 0.398 -0.887 0.887 -0.887 l 3.227 0 c 0.488 0 0.895 0.398 0.895 0.887 m 0 0" fill="#f9f9f9" stroke="none" fill-rule="nonzero" fill-opacity="1"/><path d="m 39.01 22.887 l 0 0.227 c 0 0.488 -0.398 0.887 -0.895 0.887 l -3.227 0 c -0.488 0 -0.887 -0.398 -0.887 -0.887 l 0 -0.227 c 0 -0.488 0.398 -0.887 0.887 -0.887 l 3.227 0 c 0.488 0 0.895 0.398 0.895 0.887 m 0 0" fill="#f9f9f9" stroke="none" fill-rule="nonzero" fill-opacity="1"/><path d="m 39.01 26.887 l 0 0.227 c 0 0.488 -0.398 0.887 -0.895 0.887 l -3.227 0 c -0.488 0 -0.887 -0.398 -0.887 -0.887 l 0 -0.227 c 0 -0.488 0.398 -0.887 0.887 -0.887 l 3.227 0 c 0.488 0 0.895 0.398 0.895 0.887 m 0 0" fill="#f9f9f9" stroke="none" fill-rule="nonzero" fill-opacity="1"/></g></svg>