<!-- color: #eeeeee --><svg xmlns="http://www.w3.org/2000/svg" viewBox="0 0 48 48"><g><path d="m 18.469 11 c -0.813 0 -1.469 0.652 -1.469 1.469 l 0 3.5 l -3.531 0 c -0.813 0 -1.469 0.656 -1.469 1.469 l 0 12.563 c 0 0.813 0.656 1.469 1.469 1.469 l 3.531 0 l 0 5.531 l 4.438 -5.531 l 13.09 0 c 0.816 0 1.469 -0.656 1.469 -1.469 l 0 -12.563 c 0 -0.813 -0.648 -1.469 -1.469 -1.469 l -8.531 0 l 0 -3.5 c 0 -0.816 -0.652 -1.469 -1.469 -1.469 l -0.063 0 c -0.813 0 -1.469 0.652 -1.469 1.469 l 0 3.5 l -3 0 l 0 -3.5 c 0 -0.813 -0.652 -1.469 -1.469 -1.469 m 1.469 8 c 1.125 0 2.164 0.375 3 1 l 0 0.031 c 0.23 0.176 0.457 0.379 0.656 0.594 c 0.199 0.215 0.371 0.441 0.531 0.688 c 0.32 0.492 0.559 1.035 0.688 1.625 c 0.074 0.348 0.125 0.691 0.125 1.063 c 0 1.422 -0.609 2.684 -1.563 3.594 c -0.449 0.43 -0.984 0.785 -1.563 1.031 c -0.031 0.012 -0.063 0.02 -0.094 0.031 c -0.254 0.102 -0.508 0.191 -0.781 0.25 c -0.012 0.004 -0.02 -0.004 -0.031 0 c -0.156 0.031 -0.305 0.047 -0.469 0.063 c -0.16 0.016 -0.336 0.031 -0.5 0.031 c -0.172 0 -0.332 -0.016 -0.5 -0.031 c -0.168 -0.016 -0.34 -0.027 -0.5 -0.063 c -0.09 -0.02 -0.164 -0.07 -0.25 -0.094 c -0.234 -0.063 -0.469 -0.125 -0.688 -0.219 c -0.043 -0.02 -0.082 -0.043 -0.125 -0.063 c -0.332 -0.156 -0.645 -0.34 -0.938 -0.563 c -1.199 -0.914 -2 -2.344 -2 -3.969 c 0 -1.625 0.801 -3.055 2 -3.969 c 0.293 -0.223 0.605 -0.406 0.938 -0.563 c 0.074 -0.035 0.145 -0.063 0.219 -0.094 c 0.191 -0.078 0.391 -0.133 0.594 -0.188 c 0.086 -0.023 0.16 -0.074 0.25 -0.094 c 0.16 -0.035 0.332 -0.047 0.5 -0.063 c 0.168 -0.016 0.328 -0.031 0.5 -0.031 m 10 1 c 2.207 0 4 1.789 4 4 c 0 2.207 -1.793 4 -4 4 c -2.219 0 -4 -1.793 -4 -4 c 0 -2.211 1.781 -4 4 -4 m 0 0" fill="#f9f9f9" stroke="none" fill-rule="nonzero" fill-opacity="1"/></g></svg>