<!-- color: #eeeeee --><svg xmlns="http://www.w3.org/2000/svg" viewBox="0 0 48 48"><g><path d="m 24 17 c -4.434 0 -8 3.578 -8 8 c 0 4.434 3.582 8 8 8 c 4.43 0 8 -3.582 8 -8 c 0 -4.43 -3.578 -8 -8 -8 m 0 1 c 3.875 0 7 3.121 7 7 c 0 3.879 -3.121 7 -7 7 c -3.879 0 -7 -3.121 -7 -7 c 0 -3.875 3.121 -7 7 -7 m 0 0" fill="#f9f9f9" stroke="none" fill-rule="evenodd" fill-opacity="1"/><path d="m 17 14 l 0 4 l -4 0 l 0 2 l 22 0 l 0 -2 l -4 0 l 0 -4 m -14 0" fill="#f9f9f9" stroke="none" fill-rule="nonzero" fill-opacity="1"/><path d="m 23 31.996 l 1.996 0 l 0 3 l -1.996 0 m 0 -3" fill="#f9f9f9" stroke="none" fill-rule="nonzero" fill-opacity="1"/></g></svg>