<!-- color: #01b0ec --><svg xmlns="http://www.w3.org/2000/svg" viewBox="0 0 48 48"><g><path d="m 21.06 9 c -0.449 3.715 -2.602 4.594 -5.531 2.281 c 1 3.602 -0.629 5.203 -4.219 4.188 c 2.305 2.941 1.395 5.063 -2.313 5.5 c 3.254 1.836 3.258 4.145 0 5.969 c 3.715 0.449 4.594 2.602 2.281 5.531 c 3.602 -1.012 5.203 0.625 4.188 4.219 c 2.941 -2.309 5.063 -1.395 5.5 2.313 c 1.836 -3.258 4.145 -3.254 5.969 0 c 0.445 -3.711 2.602 -4.59 5.531 -2.281 c -1.01 -3.602 0.625 -5.234 4.219 -4.219 c -2.309 -2.941 -1.395 -5.03 2.313 -5.469 c -3.258 -1.832 -3.254 -4.148 0 -5.969 c -3.711 -0.445 -4.59 -2.602 -2.281 -5.531 c -3.602 1 -5.234 -0.629 -4.219 -4.219 c -2.941 2.305 -5.03 1.395 -5.469 -2.313 c -1.832 3.254 -4.148 3.258 -5.969 0 m -2.063 5.906 c 0.523 0 1.031 0.23 1.5 0.688 c 0.938 0.914 1.52 2.598 1.5 4.406 c 0.02 1.809 -0.563 3.492 -1.5 4.406 c -0.938 0.914 -2.066 0.914 -3 0 c -0.938 -0.914 -1.527 -2.598 -1.5 -4.406 c -0.023 -1.809 0.57 -3.492 1.5 -4.406 c 0.469 -0.457 0.977 -0.688 1.5 -0.688 m 10 0 c 0.523 0 1.031 0.23 1.5 0.688 c 0.938 0.914 1.52 2.598 1.5 4.406 c 0.02 1.809 -0.563 3.492 -1.5 4.406 c -0.938 0.914 -2.066 0.914 -3 0 c -0.938 -0.914 -1.527 -2.598 -1.5 -4.406 c -0.023 -1.809 0.57 -3.492 1.5 -4.406 c 0.469 -0.457 0.977 -0.688 1.5 -0.688 m -10 5.063 c -0.348 0 -0.688 0.098 -1 0.281 c -0.625 0.363 -1.012 1.027 -1 1.75 c -0.012 0.723 0.375 1.387 1 1.75 c 0.625 0.367 1.375 0.367 2 0 c 0.625 -0.363 1.012 -1.027 1 -1.75 c 0.012 -0.723 -0.375 -1.387 -1 -1.75 c -0.313 -0.184 -0.652 -0.281 -1 -0.281 m 10 0 c -0.348 0 -0.688 0.098 -1 0.281 c -0.625 0.363 -1.012 1.027 -1 1.75 c -0.012 0.723 0.375 1.387 1 1.75 c 0.625 0.367 1.375 0.367 2 0 c 0.625 -0.363 1.012 -1.027 1 -1.75 c 0.012 -0.723 -0.375 -1.387 -1 -1.75 c -0.313 -0.184 -0.652 -0.281 -1 -0.281 m -11 8.03 c 3 1.996 9 1.996 12 0 c -0.996 7 -10.996 7 -12 0 m 0 0" fill="#f9f9f9" stroke="none" fill-rule="nonzero" fill-opacity="1"/></g></svg>