<!-- color: #4aba2e --><svg xmlns="http://www.w3.org/2000/svg" viewBox="0 0 48 48"><g><path d="M 12 14 L 12 16.75 L 31.253906 36 L 34 36 L 34 33.25 L 14.75 14 Z M 12 14 " fill="#f9f9f9" stroke="none" fill-rule="nonzero" fill-opacity="1"/><path d="m 29.574 12 c -3.547 0 -6.43 2.879 -6.43 6.43 c 0 1.109 0.285 2.156 0.777 3.066 c 0.004 0.004 -0.004 0.012 0 0.016 l -11.922 11.918 l 0 2.574 l 2.574 0 l 0.855 -0.859 l 0 -1.715 l 1.715 0 l 0.859 -0.855 l 1.715 0 l 0.852 -0.859 l 0 -1.715 l 0.859 -0.855 l 1.715 0 l 0 -1.715 l 3.348 -3.348 c 0.004 0 0.016 -0.004 0.02 0 c 0.91 0.496 1.957 0.773 3.063 0.773 c 3.543 0 6.434 -2.875 6.434 -6.426 l 0 -0.027 c -0.016 -3.547 -2.891 -6.406 -6.434 -6.406 m 1.281 3.434 c 0.945 0 1.711 0.77 1.715 1.715 c 0 0.949 -0.77 1.715 -1.715 1.715 c -0.945 0 -1.715 -0.766 -1.715 -1.715 c 0 -0.945 0.77 -1.715 1.715 -1.715 m 0 0" fill="#f9f9f9" stroke="none" fill-rule="nonzero" fill-opacity="1"/></g></svg>