<!-- color: #eeeeee --><svg xmlns="http://www.w3.org/2000/svg" viewBox="0 0 48 48"><g><path d="m 30.48 35.59 l -0.676 -3.301 l -0.164 0 c -1.117 1.453 -2.238 2.438 -3.359 2.965 c -1.102 0.504 -2.492 0.762 -4.156 0.762 c -2.227 0 -3.973 -0.594 -5.242 -1.781 c -1.258 -1.184 -1.883 -2.871 -1.883 -5.059 c 0 -4.684 3.625 -7.141 10.871 -7.367 l 3.809 -0.125 l 0 -1.441 c 0 -1.82 -0.379 -3.16 -1.145 -4.02 c -0.754 -0.875 -1.961 -1.313 -3.625 -1.313 c -1.871 0 -3.988 0.594 -6.348 1.777 l -1.047 -2.688 c 1.105 -0.621 2.313 -1.109 3.625 -1.461 c 1.324 -0.355 2.648 -0.531 3.973 -0.531 c 2.676 0 4.656 0.613 5.938 1.84 c 1.301 1.23 1.945 3.195 1.945 5.906 l 0 15.828 l -2.516 0 m -7.68 -2.477 c 2.117 0 3.773 -0.602 4.977 -1.801 c 1.215 -1.199 1.82 -2.875 1.82 -5.04 l 0 -2.094 l -3.395 0.148 c -2.703 0.098 -4.656 0.535 -5.859 1.313 c -1.188 0.762 -1.777 1.953 -1.777 3.574 c 0 1.27 0.367 2.238 1.102 2.898 c 0.754 0.664 1.797 0.992 3.137 0.992" fill="#f9f9f9" stroke="none" fill-rule="nonzero" fill-opacity="1"/></g></svg>