<!-- color: #45809b --><svg xmlns="http://www.w3.org/2000/svg" viewBox="0 0 48 48"><g><path d="m 16.344 15.02 c -5.344 1.984 -8.277 6.438 -8.344 9.66 c 0 0 6.094 -3.625 7.383 -4.078 c 2.078 -0.719 4.992 -1.238 7 -1.238 l 0.707 0 l -0.648 0.785 c -1.25 1.496 -1.773 3.148 -1.359 4.316 c 0.363 1.02 1.02 1.379 3.641 1.93 c 2.234 0.473 3.551 0.871 6.973 2.176 c 4.492 1.715 5.734 2.039 6.469 1.629 c 1.105 -0.617 1.828 -2.332 1.832 -4.438 c 0.004 -1.801 -0.289 -2.492 -1.723 -4.02 c -3.098 -3.301 -7.359 -5.371 -12.734 -6.191 c -2.641 -0.398 -6.207 -0.594 -9.207 -0.543 m 4.633 0.969 c 2.52 -0.023 5.25 0.297 7.602 0.934 c 3.23 0.883 6.25 2.715 8.754 5.316 c 1.477 1.531 1.82 2.262 1.813 3.742 c -0.004 0.742 -0.086 1.289 -0.254 1.754 c -0.277 0.754 -0.254 0.762 -1.805 0.664 c -3.789 -0.23 -7.207 -0.992 -9.742 -2.172 c -1.078 -0.508 -2.578 -1.473 -3.164 -2.059 c -0.559 -0.555 -1 -1.609 -1.07 -2.566 c -0.055 -0.707 -0.016 -0.914 0.227 -1.328 c 0.516 -0.895 0.703 -0.961 2.203 -0.695 c 0.719 0.129 1.641 0.375 2.063 0.547 c 1.852 0.758 4.797 2.414 6.156 3.457 c 0.289 0.223 0.195 0.09 -0.258 -0.363 c -1.602 -1.605 -4.684 -3.539 -6.945 -4.348 c -1.801 -0.645 -2.598 -0.746 -5.254 -0.664 c -2.332 0.07 -2.109 0.047 -5.723 0.805 c -0.699 0.148 -1.301 0.242 -1.328 0.215 c -0.102 -0.102 0.52 -0.984 1.074 -1.543 c 0.32 -0.313 0.824 -0.699 1.129 -0.848 c 1.426 -0.672 2.02 -0.813 4.535 -0.836 m 7.766 4.883 c -0.145 -0.004 -0.195 0.07 -0.195 0.242 c 0 0.539 0.602 0.871 1.184 0.633 c 0.32 -0.133 0.234 -0.309 -0.313 -0.605 c -0.313 -0.168 -0.531 -0.266 -0.676 -0.266 m -17.676 3.68 c -0.32 -0.027 -3.059 1.082 -3.059 1.082 c -0.012 2.363 2.527 3.984 6.195 6.313 c 6.176 -2.496 8.84 -2.336 10.191 -3.898 c 0.648 -0.742 0.719 -0.867 0.508 -0.965 c -0.496 -0.207 -0.848 -0.082 -1.492 0.484 c -0.988 0.863 -1.863 1.23 -2.941 1.238 c -1.266 0.016 -2.121 -0.379 -4.602 -2.109 c -2.391 -1.676 -3.688 -2.262 -4.801 -2.145" fill="#f9f9f9" stroke="none" fill-rule="nonzero" fill-opacity="1"/></g></svg>