<!-- color: #c00033 --><svg xmlns="http://www.w3.org/2000/svg" viewBox="0 0 48 48"><g><path d="m 20.07 11.25 c -0.113 0 -4.605 2.66 -4.77 2.832 c -0.094 0.086 -0.074 0.16 0.141 0.516 c 2.367 3.902 3.945 6.594 3.891 6.641 c -0.039 0.031 -1.465 0.023 -3.172 -0.035 c -1.703 -0.055 -3.496 -0.098 -3.977 -0.102 l -0.875 -0.004 l -0.039 2.848 c -0.035 1.672 -0.027 2.879 0.023 2.922 c 0.063 0.074 5.04 -0.039 7.086 -0.152 c 0.711 -0.039 0.863 -0.039 0.895 0.063 c 0.023 0.063 -0.301 0.676 -0.742 1.426 c -0.43 0.723 -1.348 2.254 -2.051 3.43 c -0.699 1.164 -1.25 2.156 -1.234 2.207 c 0.051 0.121 4.594 2.789 4.777 2.789 c 0.141 0.004 1.176 -1.867 3.539 -6.418 c 0.18 -0.34 0.375 -0.621 0.434 -0.621 c 0.066 0 0.766 1.25 1.793 3.219 c 2.129 4.063 2.07 3.953 2.105 3.953 c 0.016 0 0.523 -0.289 1.109 -0.648 c 0.602 -0.352 1.68 -1 2.43 -1.441 c 0.734 -0.438 1.344 -0.828 1.344 -0.867 c 0 -0.039 -0.715 -1.258 -1.566 -2.684 c -0.871 -1.438 -1.797 -2.996 -2.078 -3.465 c -0.281 -0.477 -0.48 -0.883 -0.445 -0.922 c 0.035 -0.039 1.781 -0.016 3.988 0.051 c 2.164 0.063 3.957 0.082 3.992 0.047 c 0.082 -0.078 0.129 -5.723 0.047 -5.766 c -0.035 -0.031 -1.68 0.004 -3.645 0.074 c -4.281 0.137 -4.375 0.141 -4.375 0.035 c 0 -0.047 0.688 -1.223 1.527 -2.621 c 2.504 -4.16 2.629 -4.379 2.594 -4.43 c -0.023 -0.035 -0.457 -0.301 -0.961 -0.605 c -0.512 -0.301 -1.582 -0.926 -2.383 -1.41 c -0.801 -0.465 -1.484 -0.859 -1.523 -0.859 c -0.063 0 -1.59 2.82 -3.234 5.984 c -0.391 0.746 -0.629 1.137 -0.703 1.125 c -0.063 -0.012 -0.949 -1.613 -1.969 -3.582 c -1.055 -2.02 -1.898 -3.543 -1.957 -3.543 m -0.004 0.016" stroke-opacity="1" fill="#f9f9f9" fill-rule="nonzero" stroke="#f9f9f9" stroke-linejoin="miter" fill-opacity="1" stroke-linecap="butt" stroke-width="0.5" stroke-miterlimit="4"/></g></svg>