<!-- color: #3dc57a --><svg xmlns="http://www.w3.org/2000/svg" viewBox="0 0 48 48"><g><path d="m 14.656 11 c -1.473 0 -2.656 1.184 -2.656 2.656 l 0 20.688 c 0 1.477 1.18 2.656 2.656 2.656 l 20.688 0 c 1.473 0 2.656 -1.18 2.656 -2.656 l 0 -17.344 l -6 -6 m -15 8 l 16 0 l 0 16 l -16 0 m 1 -15 l 0 4 l 5 0 l 0 -4 m 1 0 l 0 4 l 8 0 l 0 -4 m -14 5 l 0 4 l 5 0 l 0 -4 m 1 0 l 0 4 l 8 0 l 0 -4 m -14 5 l 0 4 l 5 0 l 0 -4 m 1 0 l 0 4 l 8 0 l 0 -4 m -8 0" fill="#f9f9f9" stroke="none" fill-rule="nonzero" fill-opacity="1"/></g></svg>