<!-- color: #004c8c --><svg xmlns="http://www.w3.org/2000/svg" viewBox="0 0 48 48"><g><path d="m 18.813 11 c -1.01 0 -1.813 0.652 -1.813 1.469 l 0 19.813 c 0 0.816 0.809 1.469 1.813 1.469 l 10.375 0 c 1.012 0 1.813 -0.652 1.813 -1.469 l 0 -19.813 c 0 -0.816 -0.805 -1.469 -1.813 -1.469 m -1.969 4 c 0.352 0 0.582 0.043 0.906 0.125 c 0.473 0.117 0.875 0.477 0.875 0.906 c 0 0.516 -0.406 0.906 -1 0.906 c -0.281 0 -0.367 -0.063 -0.781 -0.063 c -1.223 0 -2.219 0.969 -2.219 2.125 l 0 1.754 c 0 0.164 0.082 0.246 0.313 0.246 l 1.438 0 c 0.543 0 1 0.484 1 1 c 0 0.516 -0.453 1 -1 1 l -1.75 0 l 0 2 c 0 2.191 -1.902 4 -4.219 4 c -0.352 0 -0.582 -0.047 -0.906 -0.125 c -0.473 -0.117 -0.875 -0.48 -0.875 -0.906 c 0 -0.52 0.406 -0.969 1 -0.969 c 0.281 0 0.367 0 0.781 0 c 1.219 0 2.215 -0.816 2.219 -1.969 l 0 -1.711 c 0 -0.305 -0.141 -0.32 -0.313 -0.32 l -1.438 0 c -0.938 0 -1.25 -0.488 -1.25 -1 c 0 -0.52 0.398 -1 1.234 -1 l 1.766 0 l 0 -2 c 0 -2.191 1.902 -4 4.219 -4 m 0 0" fill="#f9f9f9" stroke="none" fill-rule="nonzero" fill-opacity="1"/><path d="m 19 32.934 l 0 4.066 l 10 0 l 0 -4.066 m -9 1.066 l 1.996 0 l 0 2 l -1.996 0 m 5.996 -2 l 2 0 l 0 2 l -2 0 m 0 -2" fill="#f9f9f9" stroke="none" fill-rule="nonzero" fill-opacity="1"/></g></svg>