<!-- color: #eb7545 --><svg xmlns="http://www.w3.org/2000/svg" viewBox="0 0 48 48"><g><path d="m 24.05 9 c -4.211 0 -8.05 1.805 -10.734 4.539 c -2.676 2.723 -4.316 6.453 -4.316 10.516 c 0 4.066 1.637 7.793 4.316 10.516 c 2.688 2.738 6.527 4.43 10.734 4.43 c 4.215 0 7.949 -1.699 10.629 -4.43 c 2.68 -2.723 4.313 -6.449 4.313 -10.516 c 0 -4.063 -1.641 -7.793 -4.313 -10.516 c -2.68 -2.727 -6.418 -4.539 -10.629 -4.539 m 0 5.535 c 2.426 0 4.625 1.051 6.313 2.766 c 1.68 1.711 2.766 4.082 2.766 6.754 c 0 2.672 -1.098 5.05 -2.766 6.754 c -1.68 1.707 -3.875 2.656 -6.313 2.656 c -2.438 0 -4.641 -0.953 -6.309 -2.656 c -1.664 -1.691 -2.77 -4.063 -2.77 -6.754 c 0 -2.688 1.098 -5.05 2.77 -6.754 c 1.676 -1.707 3.887 -2.766 6.309 -2.766 m 0 0" fill="#f9f9f9" stroke="none" fill-rule="nonzero" fill-opacity="1"/><path d="m 34 28.5 c 0 3.039 -2.465 5.5 -5.5 5.5 c -3.039 0 -5.5 -2.461 -5.5 -5.5 c 0 -3.039 2.461 -5.5 5.5 -5.5 c 3.035 0 5.5 2.461 5.5 5.5 m 0 0" fill="#f9f9f9" stroke="none" fill-rule="nonzero" fill-opacity="1"/></g></svg>