<!-- color: #a71816 --><svg xmlns="http://www.w3.org/2000/svg" viewBox="0 0 48 48"><g><path d="m 34.508 35.887 l -1.359 -3.613 l -4.305 0 l -1.359 3.613 l -2.324 0 l 4.758 -12.871 l 2.16 0 l 4.758 12.871 l -2.328 0 m -3.48 -9.297 l -1.422 3.609 l 2.762 0 l -1.34 -3.609" fill="#f9f9f9" stroke="none" fill-rule="nonzero" fill-opacity="1"/><path d="m 12.848 12.398 l 2.145 0 c -0.156 -0.465 -0.328 -0.891 -0.52 -1.277 l 1.156 -0.402 c 0.27 0.543 0.484 1.102 0.637 1.68 l 2.145 0 l 0 1.102 l -5.559 0 l 0 -1.102 m 0.578 2.262 l 4.461 0 l 0 1.039 l -4.461 0 l 0 -1.039 m 0 2.199 l 4.461 0 l 0 1.043 l -4.461 0 l 0 -1.043 m 4.516 2.199 l 0 4.984 l -1.102 0 l 0 -0.758 l -2.199 0 l 0 0.758 l -1.16 0 l 0 -4.984 l 4.461 0 m -3.301 3.129 l 2.199 0 l 0 -2.086 l -2.199 0 l 0 2.086 m 4.344 -10.949 l 6.719 0 l 0 1.043 l -3.418 0 l -0.293 1.504 l 3.188 0 l 0 3.07 l 1.039 0 l 0 1.043 l -7.527 0 l 0 -1.043 l 1.504 0 l 0.406 -2.027 l -1.332 0 l 0 -1.043 l 1.566 0 l 0.289 -1.504 l -2.148 0 l 0 -1.043 m 2.375 5.621 l 2.723 0 l 0 -2.027 l -2.313 0 l -0.402 2.027 m 4.227 2.145 l 0 5.04 l -1.156 0 l 0 -0.816 l -3.941 0 l 0 0.816 l -1.16 0 l 0 -5.04 l 6.258 0 m -5.098 3.184 l 3.941 0 l 0 -2.145 l -3.941 0 l 0 2.145" fill="#f9f9f9" stroke="none" fill-rule="nonzero" fill-opacity="1"/><path d="m 25.11 34.13 l -1.305 -3.234 l -0.551 0.547 c -3.41 -3.852 -3.41 -3.852 -1.766 -5.5 l -0.848 -0.965 c -2.191 2.195 -2.191 2.195 2.066 7.02 l -0.547 0.559 m 2.949 1.586" fill="#f9f9f9" stroke="none" fill-rule="nonzero" fill-opacity="1"/><path d="m 25.527 19.301 l 1.949 1.273 l -0.016 -0.879 c 3.078 -0.082 3.078 -0.082 3.133 2.57 l 0.77 -0.02 c -0.074 -3.539 -0.074 -3.539 -3.922 -3.434 l -0.016 -0.883 m -1.898 1.371" fill="#f9f9f9" stroke="none" fill-rule="nonzero" fill-opacity="1"/></g></svg>