<svg xmlns="http://www.w3.org/2000/svg" viewBox="0 0 48 48"><g><path d="m 35 12.227 l -22 3.422 c -1 0.34 -1 0.832 -1 1.352 l 0 17.426 c 0 0.871 0.793 1.574 1.773 1.574 l 20.453 0 c 0.98 0 1.773 -0.703 1.773 -1.574 l 0 -12.852 c 0 -0.867 -0.793 -1.574 -1.773 -1.574 l -19.227 0 l 0 -0.5 l 20 -3.324 c 1 -0.234 1 -0.566 1 -1.176 l 0 -2 c 0 -0.445 -0.457 -0.77 -1 -0.773 m -11.773 9.1 l 0.398 1.199 l 1.199 0.402 l -1.199 0.398 l -0.398 1.227 l -0.402 -1.227 l -1.199 -0.398 l 1.199 -0.402 m -4.176 -0.848 c 0.168 -0.055 0.336 -0.02 0.5 0.148 l 11.25 11.25 c 0.336 0.336 0.211 0.742 -0.125 1.074 c -0.336 0.336 -0.762 0.488 -1.098 0.152 l -11.25 -11.277 c -0.336 -0.332 -0.109 -0.641 0.223 -0.973 c 0.168 -0.168 0.336 -0.32 0.5 -0.375 m 10.352 0.301 l 0.551 1.672 l 1.676 0.578 l -1.676 0.547 l -0.551 1.703 l -0.574 -1.703 l -1.676 -0.547 l 1.676 -0.578 m -7.875 0.352 c -0.086 0.027 -0.164 0.09 -0.25 0.176 c -0.172 0.168 -0.27 0.328 -0.102 0.5 l 9.301 9.324 c 0.168 0.168 0.277 0.02 0.449 -0.148 c 0.172 -0.168 0.32 -0.305 0.152 -0.477 l -9.301 -9.301 c -0.086 -0.086 -0.168 -0.102 -0.25 -0.074 m 0.098 4.398 l 0.402 1.203 l 1.199 0.398 l -1.199 0.398 l -0.402 1.203 l -0.398 -1.203 l -1.199 -0.398 l 1.199 -0.398 m 0.398 -1.203" fill="#f9f9f9" stroke="none" fill-rule="nonzero" fill-opacity="1"/></g></svg>