<!-- color: #6e90bb --><svg xmlns="http://www.w3.org/2000/svg" viewBox="0 0 48 48"><g><path d="m 14.512 33.41 c -1.242 -2.996 -2.895 -5.633 -2.93 -10.52 c -0.039 -5.05 4.324 -8.32 7.773 -8.32 c 4.172 0 7.848 3.5 8.04 6.395 c 0.176 2.617 -0.762 6.422 -5.602 6.398 c -2.309 -0.02 -4.711 -2.01 -4.723 -4.984 c -0.02 -3.199 4.02 -3.516 5.05 -2.703 c 0.395 0.32 0.383 0.945 0.031 0.832 c -2.176 -0.703 -3.523 0.688 -3.418 2.063 c 0.133 1.879 1.254 2.992 3.258 3.082 c 2.895 0.141 3.703 -2.652 3.629 -3.789 c -0.094 -1.379 -1.301 -4.215 -5.066 -4.73 c -1.777 -0.246 -3.254 0.281 -4.328 1.316 c -1.078 1.043 -1.684 2.113 -1.77 3.871 c -0.094 1.816 0.305 2.883 1.402 5.27 c 0.391 0.852 1.484 2.57 2.328 4.293 l -3.672 1.52 m 0 0.008" fill="#f9f9f9" stroke="none" fill-rule="nonzero" fill-opacity="1"/><path d="m 33.57 14.578 c 1.246 2.992 2.898 5.629 2.934 10.52 c 0.039 5.05 -4.324 8.316 -7.773 8.316 c -4.176 0 -7.848 -3.5 -8.04 -6.398 c -0.176 -2.617 0.762 -6.422 5.602 -6.395 c 2.313 0.016 4.715 2.01 4.727 4.98 c 0.016 3.203 -4.03 3.52 -5.05 2.703 c -0.395 -0.316 -0.383 -0.945 -0.035 -0.832 c 2.18 0.703 3.523 -0.684 3.426 -2.063 c -0.137 -1.875 -1.254 -2.988 -3.262 -3.082 c -2.895 -0.137 -3.703 2.656 -3.629 3.793 c 0.09 1.379 1.301 4.215 5.066 4.73 c 1.777 0.246 3.254 -0.281 4.328 -1.32 c 1.074 -1.039 1.684 -2.109 1.77 -3.867 c 0.09 -1.816 -0.309 -2.883 -1.402 -5.27 c -0.391 -0.855 -1.484 -2.57 -2.332 -4.293 l 3.676 -1.523 m -0.004 0" fill="#f9f9f9" stroke="none" fill-rule="nonzero" fill-opacity="1"/></g></svg>