<!-- color: #fb932a --><svg xmlns="http://www.w3.org/2000/svg" viewBox="0 0 48 48"><g><path d="m 24.05 12 c -3.438 0 -6.586 1.281 -8.734 3.426 c -2.156 2.145 -3.309 5.16 -3.309 8.59 l 0 11.918 c -0.004 0.023 -0.004 0.043 0 0.066 l 3.961 0 c 0 -0.023 0 -0.043 0 -0.066 l 0 -11.918 c 0 -2.547 0.871 -4.48 2.215 -5.82 c 1.344 -1.34 3.313 -2.117 5.867 -2.117 c 2.551 0 4.398 0.777 5.742 2.117 c 1.344 1.34 2.215 3.273 2.215 5.82 l 0 11.918 c 0 0.023 0 0.043 0 0.066 l 3.996 0 c 0 -0.023 0 -0.043 0 -0.066 l 0 -11.918 c 0 -3.43 -1.191 -6.445 -3.34 -8.59 c -2.152 -2.145 -5.176 -3.426 -8.613 -3.426" fill="#f9f9f9" stroke="none" fill-rule="nonzero" fill-opacity="1"/></g></svg>