<!-- color: #d34836 --><svg xmlns="http://www.w3.org/2000/svg" viewBox="0 0 48 48"><g><path d="m 23.656 14.03 c -4.352 0 -7.656 3.59 -7.656 7.906 l 0 11.531 c 0 0.27 0.223 0.5 0.5 0.5 c 0.277 0 0.5 -0.23 0.5 -0.5 l 0 -11.531 c 0 -3.816 2.852 -6.906 6.656 -6.906 c 3.789 0 7.375 3.152 7.375 6.906 l 0 11.531 c 0 0.27 0.223 0.5 0.5 0.5 c 0.277 0 0.5 -0.23 0.5 -0.5 l 0 -11.531 c 0 -4.375 -4.04 -7.906 -8.375 -7.906 m -7.25 0.063 c -0.238 0.047 -0.41 0.258 -0.406 0.5 l 0 2.156 c 0 0.273 0.223 0.5 0.5 0.5 c 0.277 0 0.5 -0.227 0.5 -0.5 l 0 -2.156 c 0.004 -0.152 -0.063 -0.297 -0.18 -0.391 c -0.113 -0.098 -0.266 -0.137 -0.414 -0.109 m 0 0" fill="#f9f9f9" stroke="none" fill-rule="nonzero" fill-opacity="1"/></g></svg>