<!-- color: #9dc851 --><svg xmlns="http://www.w3.org/2000/svg" viewBox="0 0 48 48"><g><path d="m 17.906 17 c -0.234 0 -0.445 0.102 -0.625 0.281 c -0.355 0.355 -0.355 0.922 0 1.281 l 4.813 4.813 c -0.063 0.199 -0.094 0.41 -0.094 0.625 c 0.004 0.484 0.18 0.949 0.5 1.313 l -5.938 10.938 c -0.129 0.238 -0.07 0.551 0.156 0.688 c 0.227 0.137 0.527 0.051 0.656 -0.188 l 5.906 -10.875 c 0.23 0.086 0.473 0.129 0.719 0.125 c 0.711 -0.004 1.363 -0.387 1.719 -1 l 11.344 0 c 0.523 0 0.938 -0.418 0.938 -0.938 l 0 -0.125 c 0 -0.523 -0.414 -0.938 -0.938 -0.938 l -11.313 0 c -0.359 -0.625 -1.027 -1.012 -1.75 -1 c -0.211 -0.004 -0.422 0.027 -0.625 0.094 l -4.813 -4.813 c -0.18 -0.18 -0.422 -0.281 -0.656 -0.281 m 0 0" fill="#f9f9f9" stroke="none" fill-rule="evenodd" fill-opacity="1"/></g></svg>