<!-- color: #56656d --><svg xmlns="http://www.w3.org/2000/svg" viewBox="0 0 48 48"><g><path d="m 24 9 c -1.16 2.84 -1.863 4.695 -3.152 7.449 c 0.793 0.836 1.762 1.809 3.336 2.906 c -1.695 -0.695 -2.848 -1.395 -3.711 -2.117 c -1.648 3.441 -4.234 8.34 -9.477 17.75 c 4.121 -2.375 7.313 -3.844 10.289 -4.402 c -0.129 -0.551 -0.195 -1.145 -0.191 -1.766 l 0.004 -0.129 c 0.063 -2.641 1.438 -4.672 3.063 -4.531 c 1.629 0.137 2.898 2.391 2.828 5.03 c -0.008 0.496 -0.07 0.973 -0.164 1.414 c 2.941 0.578 6.105 2.039 10.172 4.383 c -0.801 -1.473 -1.52 -2.805 -2.203 -4.07 c -1.078 -0.832 -2.199 -1.918 -4.492 -3.094 c 1.574 0.41 2.703 0.883 3.582 1.41 c -6.945 -12.93 -7.512 -14.648 -9.891 -20.242 m 0.008 0.008" fill="#f9f9f9" stroke="none" fill-rule="evenodd" fill-opacity="1"/></g></svg>