<!-- color: #474747 --><svg xmlns="http://www.w3.org/2000/svg" viewBox="0 0 48 48"><g><path d="m 29.5 12 c -4.719 -0.008 -6.5 3.383 -6.5 6 l 0 4 l -4 0 l 0 -1 l -4 0 l 0 1 l -3 0 l 0 1 l 3 0 l 0 1 l -3 0 l 0 1 l 3 0 l 0 1 l 4 0 l 0 -1 l 4 0 l 0 4 l -1 0 l 0 4 l 1 0 l 0 3 l 1 0 l 0 -3 l 1 0 l 0 3 l 1 0 l 0 -3 l 1 0 l 0 -4 l -1 0 l 0 -4 l 4 0 c 2.867 -0.07 6.04 -1.527 6 -6.438 c 0 -2.563 -2.098 -6.578 -6.5 -6.563 m 0 1 c 2.5 0 5.5 2.27 5.5 5.531 c -0.055 3.59 -1.914 5.379 -5.469 5.469 l -3.531 0 l 0 -1 l 3 0 c 1.574 0.066 5 -0.547 5 -4.469 c 0 -1.754 -1.777 -4.531 -4.594 -4.531 c -2.246 0.016 -4.406 2 -4.406 4 l 0 4 l -1 0 l 0 -3.5 c -0.039 -3.707 2.699 -5.523 5.5 -5.5 m -0.063 2 c 1.727 0 3.563 1.867 3.563 3.469 c 0.043 3.188 -2.203 3.531 -4.438 3.531 l -2.563 0 l 0 -3.438 c 0 -2.227 1.734 -3.563 3.438 -3.563 m -10.438 8 l 4 0 l 0 1 l -4 0 m 5 -1 l 1 0 l 0 1 l -1 0 m 0 1 l 1 0 l 0 4 l -1 0 m 0 -4" fill="#f9f9f9" stroke="none" fill-rule="nonzero" fill-opacity="1"/></g></svg>