<!-- color: #28557c --><svg xmlns="http://www.w3.org/2000/svg" viewBox="0 0 48 48"><g><path d="m 36.48 16.12 c 0.078 0.488 0.113 1 0.109 1.547 c 0 0.004 0 0.008 0 0.012 c 0.004 3.105 -1.359 5.75 -3.922 7.633 c -2.586 1.898 -6.105 2.793 -10.508 2.793 l -1.012 0 c -0.309 0 -0.762 0.383 -0.82 0.66 l 0 0.012 l -1.207 5.199 c -0.273 1.188 -1.324 2 -2.531 2 l -3.035 0 c 0.008 0.578 0.457 1.023 1.09 1.02 l 3.52 -0.012 c 0.746 0.008 1.508 -0.59 1.684 -1.316 l 1.191 -5.211 c 0.172 -0.73 0.926 -1.344 1.684 -1.332 l 1.012 0 c 4.293 0 7.617 -0.879 9.996 -2.633 c 2.379 -1.762 3.578 -4.07 3.578 -6.945 c -0.008 -1.258 -0.23 -2.32 -0.672 -3.156 c -0.047 -0.094 -0.102 -0.184 -0.148 -0.27 m -12.621 0.199 c -0.293 0 -0.758 0.383 -0.816 0.66 l -0.012 0.012 l -1.051 4.543 c -0.031 0.145 0.004 0.184 0.027 0.215 c 0.02 0.027 0.051 0.066 0.203 0.066 l 0.816 0 l 0.727 -3.156 c 0.16 -0.723 0.926 -1.324 1.668 -1.316 l 1.156 -0.016 c 0.566 0.004 1.066 0.043 1.52 0.121 c -0.102 -0.25 -0.266 -0.43 -0.508 -0.59 c -0.477 -0.313 -1.324 -0.539 -2.566 -0.539 m -1.164 0" fill="#f9f9f9" stroke="none" fill-rule="nonzero" fill-opacity="1"/><path d="m 35.06 14.512 c -0.434 -0.848 -1.086 -1.539 -1.922 -2.063 c -0.863 -0.531 -1.871 -0.898 -3.039 -1.121 c -1.18 -0.211 -2.559 -0.313 -4.137 -0.328 l -7.316 0.004 c -0.762 0.012 -1.504 0.605 -1.68 1.336 l -4.93 21.441 c -0.172 0.734 0.305 1.34 1.059 1.34 l 3.508 0 c 0.758 0 1.508 -0.59 1.68 -1.34 l 1.203 -5.203 c 0.16 -0.73 0.914 -1.328 1.672 -1.328 l 1 0 c 4.285 -0.008 7.613 -0.883 10 -2.637 c 2.395 -1.754 3.578 -4.074 3.57 -6.945 c 0.008 -1.262 -0.211 -2.316 -0.668 -3.16 m -7.559 7.01 c -1.059 0.77 -2.527 1.16 -4.422 1.16 l -0.859 0 c -0.754 0 -1.234 -0.605 -1.066 -1.34 l 1.051 -4.555 c 0.16 -0.727 0.918 -1.34 1.684 -1.324 l 1.145 -0.016 c 1.34 0 2.359 0.23 3.043 0.691 c 0.676 0.438 1.023 1.145 1.012 2.086 c 0.02 1.418 -0.52 2.527 -1.582 3.289" fill="#f9f9f9" stroke="none" fill-rule="nonzero" fill-opacity="1"/></g></svg>