<!-- color: #44809b --><svg xmlns="http://www.w3.org/2000/svg" viewBox="0 0 48 48"><g><path d="m 20 11 c -0.578 0.77 -0.621 2.449 1.035 3.754 c 1.914 1.965 2.398 3.441 2.379 6.285 c -0.02 2.328 -0.988 2.93 -1.836 5 c -1 1.949 -1.301 2.883 -0.578 4.391 c 0.258 0.656 0.652 1.125 1.16 1.875 c -0.789 -0.527 -1.504 -0.867 -2.219 -1.805 c -0.668 -1.031 -1.195 -1.477 0.328 -5.699 c 0.355 -0.988 0.852 -2.477 1.027 -3.496 c 0.07 -0.695 -0.004 -1.73 -0.473 -2.59 c -1.316 -1.73 -1.637 -1.586 -3.355 -2.59 c 0.949 1.719 0.426 2.523 -2.32 5.941 c -2.309 3.301 -3.297 4.559 -3.137 6.781 c 0.191 2.695 1.832 4.973 4.684 6.836 c 0.934 0.609 1.742 0.75 2.328 0.953 l 1.773 0.359 c -0.719 -0.441 -1.332 -0.688 -2.152 -1.316 c -1.695 -1.52 -2.68 -3.398 -2.855 -5.461 c -0.105 -1.223 0.129 -2.762 0.191 -1.508 c 0.043 0.25 0.219 1.055 0.359 1.23 c 0.285 0.684 1.598 2.563 2.785 3.707 c 0.602 0.574 1.832 1.582 2.777 2.156 c 1.719 0.84 2.48 0.957 3.773 1.102 c 1.105 0 2.477 -0.172 2.02 -0.145 c -2.313 -3.02 -2.395 -3.16 -2.523 -5.082 c 0.012 -1.773 0.727 -2.168 1.977 -4.398 c 1.555 -2.758 1.945 -3.977 1.957 -6.03 c 0.012 -2.977 -1.414 -4.551 -4.531 -6.211 c -0.871 -0.434 -1.105 -0.555 -2.695 -1.176 c -0.91 -0.426 -1.824 -1.352 -1.883 -2.875 m 10.738 8.355 c 0.813 1.094 1.52 2.719 1.582 3.875 c -0.18 1.508 -0.188 1.613 -2.16 3.816 c -0.82 1.063 -1.305 1.719 -1.52 2.148 c -0.605 1.227 -0.625 4.301 0.371 5.969 l 0.828 1.391 l 0.359 -1.039 c 0.281 -0.793 0.656 -1.781 2.605 -3.043 c 2.457 -1.922 2.836 -2.488 3.195 -4.906 c 0.039 -1.598 -0.195 -2.762 -1.363 -4.66 c -1.219 -1.762 -2.293 -2.328 -3.906 -3.543 m 0 -0.008" fill="#f9f9f9" stroke="none" fill-rule="nonzero" fill-opacity="1"/></g></svg>