<!-- color: #eeeeee --><svg xmlns="http://www.w3.org/2000/svg" viewBox="0 0 48 48"><g><path d="m 24 16 c -0.734 0 -1.484 0.074 -2.219 0.219 c -1.441 0.277 -2.824 0.871 -4.125 1.594 c -2.039 1.133 -3.879 2.684 -5.5 4.438 c -0.301 0.32 -0.602 0.652 -0.875 1 c -0.359 0.469 -0.359 1.031 0 1.5 c 0.832 1.07 1.813 2 2.813 2.875 c 2.164 1.875 4.648 3.461 7.375 4.094 c 0.844 0.195 1.68 0.281 2.531 0.281 c 0.855 0 1.688 -0.086 2.531 -0.281 c 2.727 -0.629 5.207 -2.219 7.375 -4.094 c 1 -0.871 2.02 -1.805 2.844 -2.875 c 0.359 -0.469 0.359 -1.031 0 -1.5 l -0.031 0 c -0.273 -0.352 -0.574 -0.68 -0.875 -1 c -1.621 -1.754 -3.461 -3.309 -5.5 -4.438 c -1.297 -0.723 -2.715 -1.316 -4.156 -1.594 c -0.734 -0.145 -1.434 -0.219 -2.188 -0.219 m 0.25 2 c 1.93 0.059 0.359 1.777 2 2.719 c 1.625 0.934 2.625 -1.125 3.531 0.438 c 0.906 1.563 -1.523 1.199 -1.594 2.969 c -0.07 1.77 2.371 1.523 1.344 3.03 c -1.027 1.5 -1.855 -0.59 -3.563 0.25 c -1.711 0.836 -0.285 2.652 -2.219 2.594 c -1.93 -0.059 -0.359 -1.785 -2 -2.719 c -1.629 -0.938 -2.656 1.094 -3.563 -0.469 c -0.91 -1.563 1.523 -1.168 1.594 -2.938 c 0.066 -1.773 -2.371 -1.559 -1.344 -3.063 c 1.027 -1.504 1.883 0.617 3.594 -0.219 c 1.496 -0.73 0.578 -2.211 1.625 -2.531 l 0 -0.031 c 0.148 -0.043 0.352 -0.039 0.594 -0.031 m -0.25 4.531 c -0.105 0 -0.234 0.012 -0.344 0.031 c -0.859 0.172 -1.402 0.957 -1.219 1.75 c 0.184 0.797 1.043 1.297 1.906 1.125 c 0.859 -0.168 1.402 -0.957 1.219 -1.75 c -0.16 -0.699 -0.816 -1.16 -1.563 -1.156 m 0 0" fill="#f9f9f9" stroke="none" fill-rule="nonzero" fill-opacity="1"/></g></svg>