<!-- color: #1d384d --><svg xmlns="http://www.w3.org/2000/svg" viewBox="0 0 48 48"><g><path d="m 11 13 l 0 22 c 0 0 1.598 0 3 0 l 0 -1 l 4 0 l 0 1 l 12 0 l 0 -1 l 4 0 l 0 1 c 1 0 2 0 3 0 l 0 -22 c -1 0 -2 0 -3 0 l 0 1 l -4 0 l 0 -1 l -12 0 l 0 1 l -4 0 l 0 -1 c -1 0 -3 0 -3 0 m 3 3 l 4 0 l 0 4 l -4 0 m 16 -4 l 4 0 l 0 4 l -4 0 m -16 2 l 4 0 l 0 4 l -4 0 m 16 -4 l 4 0 l 0 4 l -4 0 m -16 2 l 4 0 l 0 4 l -4 0 m 16 -4 l 4 0 l 0 4 l -4 0 m 0 -4" fill="#f9f9f9" stroke="none" fill-rule="nonzero" fill-opacity="1"/></g></svg>