<!-- color: #eeeeee --><svg xmlns="http://www.w3.org/2000/svg" viewBox="0 0 48 48"><g><path d="m 28.06 10.969 c -0.102 0 -0.195 0.016 -0.313 0.031 c -0.133 0.02 -0.285 0.055 -0.438 0.094 l -7.688 2.031 l -5.625 0.156 c -1.07 0.031 -1.465 0.535 -1.5 1.813 l 0 0.125 c -0.305 0.336 -0.359 0.82 -0.219 1.563 l 0.125 0.75 l 0 0.406 l -0.188 7.531 l -0.063 2.938 l 0 0.094 l -0.156 5.469 l 0 0.063 c -0.035 1.348 0.344 1.891 1.438 1.969 l 2.844 0.188 l 0.031 0 c 0.289 0.227 0.676 0.305 1.219 0.219 l 0.531 -0.094 l 9.719 0.688 c 1.254 0.09 1.715 -0.422 1.719 -1.875 l 0 -0.656 l 2.625 -0.438 c 1.254 -0.203 1.605 -0.762 1.344 -2.094 c -0.676 0.176 -1.324 0.141 -1.875 -0.063 c -0.609 -0.227 -1.094 -0.684 -1.25 -1.313 c -0.152 -0.625 0.023 -1.266 0.438 -1.813 c 0.402 -0.539 1.039 -0.977 1.781 -1.219 l -0.906 -4.25 l -0.031 -0.094 l -0.75 -3.563 l -6.344 2.875 c 0 0.285 -0.059 7.01 -0.063 9.656 c 0.129 0.609 -0.07 1.254 -0.469 1.781 c -0.414 0.539 -1.031 0.977 -1.781 1.219 c -0.754 0.242 -1.484 0.227 -2.094 0 c -0.609 -0.227 -1.094 -0.684 -1.25 -1.313 c -0.156 -0.625 0.027 -1.266 0.438 -1.813 c 0.414 -0.543 1.059 -1.012 1.813 -1.25 c 0.574 -0.184 1.113 -0.215 1.625 -0.125 l -0.125 -10.906 c -0.004 -0.102 0.063 -0.207 0.156 -0.25 l 7.375 -3.313 l -0.188 -0.813 l -0.625 -2.938 c -0.211 -1 -0.578 -1.457 -1.281 -1.469 m 2.094 5.219 l 0.719 3.438 l 3.281 -1.5 l 0.031 9.25 c -0.496 -0.082 -1.039 -0.055 -1.594 0.125 c -0.012 0.004 -0.02 0.027 -0.031 0.031 l 0.875 4.219 l 0.031 0.125 c 0.004 0.023 -0.004 0.039 0 0.063 c 0.074 -0.02 0.145 -0.039 0.219 -0.063 c 0.758 -0.242 1.402 -0.668 1.813 -1.219 c 0.414 -0.543 0.594 -1.219 0.438 -1.844 l -0.094 -14.813 c 0 -0.07 -0.047 -0.105 -0.094 -0.156 c -0.051 -0.047 -0.117 -0.098 -0.188 -0.094 c -0.031 0 -0.035 0.016 -0.063 0.031 m -14.531 0.719 c 0.926 0 1.688 0.73 1.688 1.625 c 0 0.898 -0.762 1.625 -1.688 1.625 c -0.926 0 -1.656 -0.727 -1.656 -1.625 c 0 -0.895 0.73 -1.625 1.656 -1.625 m 0 0" fill="#f9f9f9" stroke="none" fill-rule="evenodd" fill-opacity="1"/></g></svg>