<!-- color: #4879a5 --><svg xmlns="http://www.w3.org/2000/svg" viewBox="0 0 48 48"><g><path d="m 27.797 12 l -3.625 1.344 c -7.121 2.098 -12.172 6.656 -10.172 13.656 l 3 -4 c -1.992 -5.094 3 -7 7.172 -8.5 c -1.398 6.277 -3.445 14.563 -4.969 19.84 l -5.719 0 l -1.652 1.656 l 2.813 0 c 5.402 0.094 11.215 -0.039 14.406 -1.969 c -2.238 0.238 -3.199 0.273 -6.719 0.313 c 0.605 -2.684 1.348 -5.926 1.875 -7.906 c 2.641 -0.16 4.84 -0.805 7.281 -2.125 c 7.516 -4.313 4.945 -11.297 -2.156 -11.375 c -0.402 0 -0.863 0.02 -1.781 0.063 m -0.598 2.41 l 7.01 4 l -9.01 4 m 1.996 -8" fill="#f9f9f9" stroke="none" fill-rule="nonzero" fill-opacity="1"/></g></svg>