<!-- color: #5dafe6 --><svg xmlns="http://www.w3.org/2000/svg" viewBox="0 0 48 48"><g><path d="m 23.813 10 c -3.609 -0.117 -7.246 2.766 -7.438 8.375 c 0.121 1.414 0.961 3.398 1.781 4.063 l 0 -4.063 c 0.414 -1.777 2.141 -3.586 3 -3.563 c 1.465 0.184 2.469 1.492 3.344 2.75 c 1.102 0.938 3.875 0.996 4.594 0 l 0 4.531 c 0.816 -0.316 1.824 -1.516 2 -2.563 c -0.105 -6.313 -3.672 -9.414 -7.281 -9.531 m -4 14.13 l -1.813 1.875 l 0.031 0.031 c -3.191 1.539 -6.375 4.586 -7.03 7.969 l 0 2 l 26 0 l 0 -2 c -0.664 -2.926 -3.992 -6.277 -8.188 -8.094 l -1.719 -1.781 l -0.031 0.031 c -0.938 0.926 -2.227 1.5 -3.625 1.5 c -1.363 0 -2.602 -0.547 -3.531 -1.438 m -0.094 -0.094" fill="#f9f9f9" stroke="none" fill-rule="nonzero" fill-opacity="1"/></g></svg>