<!-- color: #eeeeee --><svg xmlns="http://www.w3.org/2000/svg" viewBox="0 0 48 48"><g><path d="m 13.06 16 c -0.496 0 -0.906 0.426 -0.906 0.938 l 0 1.844 l -2.156 0 l 0 6.219 l 3.594 0 l 0 1.844 c 0 0.512 0.359 0.938 0.813 0.938 l 9.844 0 c 0.453 0 0.813 -0.426 0.813 -0.938 l 0 -3.688 c 0 -0.512 -0.359 -0.938 -0.813 -0.938 l -9.844 0 c -0.453 0 -0.813 0.426 -0.813 0.938 l 0 1.156 l -2.875 0 l 0 -4.844 l 1.438 0 l 0 1.125 c 0 0.512 0.41 0.938 0.906 0.938 l 5.375 0 c 0.496 0 0.906 -0.426 0.906 -0.938 l 0 -3.656 c 0 -0.512 -0.41 -0.938 -0.906 -0.938 m -4.844 0.688 l 4.313 0 c 0.395 0 0.719 0.305 0.719 0.688 l 0 2.781 c 0 0.383 -0.324 0.688 -0.719 0.688 l -4.313 0 c -0.395 0 -0.719 -0.305 -0.719 -0.688 l 0 -2.781 c 0 -0.383 0.324 -0.688 0.719 -0.688 m 8.625 0 c -0.395 0 -0.719 0.305 -0.719 0.688 l 0 2.781 c 0 0.383 0.324 0.688 0.719 0.688 l 4.281 0 c 0.395 0 0.719 -0.305 0.719 -0.688 l 0 -2.781 c 0 -0.383 -0.324 -0.688 -0.719 -0.688 m 4.313 0 c -0.395 0 -0.719 0.305 -0.719 0.688 l 0 2.781 c 0 0.383 0.324 0.688 0.719 0.688 l 4.313 0 c 0.395 0 0.719 -0.305 0.719 -0.688 l 0 -2.781 c 0 -0.383 -0.324 -0.688 -0.719 -0.688 m -7.719 5.531 c -0.496 0 -0.906 0.426 -0.906 0.938 l 0 3.688 c 0 0.512 0.41 0.938 0.906 0.938 l 5.375 0 c 0.496 0 0.906 -0.426 0.906 -0.938 l 0 -1.844 l 3.594 0 l 0 6.219 l -0.719 0 l 0 -1.813 c 0 -0.512 -0.41 -0.938 -0.906 -0.938 l -5.375 0 c -0.496 0 -0.906 0.426 -0.906 0.938 l 0 3.656 c 0 0.512 0.41 0.938 0.906 0.938 l 5.375 0 c 0.496 0 0.906 -0.426 0.906 -0.938 l 0 -1.125 l 1.438 0 l 0 -7.625 l -4.313 0 l 0 -1.156 c 0 -0.512 -0.41 -0.938 -0.906 -0.938 m -17.75 0.719 l 8.625 0 c 0.395 0 0.688 0.305 0.688 0.688 l 0 2.75 c 0 0.383 -0.293 0.688 -0.688 0.688 l -8.625 0 c -0.395 0 -0.719 -0.305 -0.719 -0.688 l 0 -2.75 c 0 -0.383 0.324 -0.688 0.719 -0.688 m 12.906 0 l 4.313 0 c 0.395 0 0.719 0.305 0.719 0.688 l 0 2.75 c 0 0.383 -0.324 0.688 -0.719 0.688 l -4.313 0 c -0.395 0 -0.719 -0.305 -0.719 -0.688 l 0 -2.75 c 0 -0.383 0.324 -0.688 0.719 -0.688 m -14.344 6.219 c -0.395 0 -0.719 0.305 -0.719 0.688 l 0 2.781 c 0 0.383 0.324 0.688 0.719 0.688 l 4.313 0 c 0.395 0 0.719 -0.305 0.719 -0.688 l 0 -2.781 c 0 -0.383 -0.324 -0.688 -0.719 -0.688 m 4.313 0 c -0.395 0 -0.719 0.305 -0.719 0.688 l 0 2.781 c 0 0.383 0.324 0.688 0.719 0.688 l 4.281 0 c 0.395 0 0.719 -0.305 0.719 -0.688 l 0 -2.781 c 0 -0.383 -0.324 -0.688 -0.719 -0.688 m 4.313 0 l 4.313 0 c 0.395 0 0.719 0.305 0.719 0.688 l 0 2.781 c 0 0.383 -0.324 0.688 -0.719 0.688 l -4.313 0 c -0.395 0 -0.719 -0.305 -0.719 -0.688 l 0 -2.781 c 0 -0.383 0.324 -0.688 0.719 -0.688 m 0 0" fill="#f9f9f9" stroke="none" fill-rule="nonzero" fill-opacity="1"/></g></svg>