<!-- color: #474747 --><svg xmlns="http://www.w3.org/2000/svg" viewBox="0 0 48 48"><g><path d="m 20 13 c -1.703 0 -3.215 0.949 -4.281 2.406 c -1.066 1.457 -1.719 3.426 -1.719 5.594 c 0 2.168 0.652 4.137 1.719 5.594 c 1.066 1.457 2.578 2.406 4.281 2.406 c 1.703 0 3.215 -0.949 4.281 -2.406 c 1.066 -1.457 1.719 -3.426 1.719 -5.594 c 0 -2.168 -0.652 -4.137 -1.719 -5.594 c -1.066 -1.457 -2.578 -2.406 -4.281 -2.406 m 0 1 c 1.336 0 2.547 0.742 3.469 2 c 0.922 1.258 1.531 3.03 1.531 5 c 0 1.973 -0.609 3.742 -1.531 5 c -0.922 1.258 -2.133 2 -3.469 2 c -1.332 0 -2.574 -0.742 -3.5 -2 c -0.926 -1.258 -1.5 -3.03 -1.5 -5 c 0 -1.973 0.574 -3.742 1.5 -5 c 0.926 -1.258 2.168 -2 3.5 -2 m 0 0" fill="#f9f9f9" stroke="none" fill-rule="nonzero" fill-opacity="1"/><path d="m 19 28 l 1.996 0 l 0 7 l -1.996 0 m 0 -7" fill="#f9f9f9" stroke="none" fill-rule="nonzero" fill-opacity="1"/><path d="m 17 33 l 0 -2 l 6 0 l 0 2 m -6 0" fill="#f9f9f9" stroke="none" fill-rule="nonzero" fill-opacity="1"/><path d="m 30 13 l 4 0 l -0.996 18 l -2 0 m -1 -18" fill="#f9f9f9" stroke="none" fill-rule="nonzero" fill-opacity="1"/><path d="m 31.02 33 l 1.996 0 l 0 1.996 l -1.996 0 m 0 -1.996" fill="#f9f9f9" stroke="none" fill-rule="nonzero" fill-opacity="1"/></g></svg>