<!-- color: #ebebeb --><svg xmlns="http://www.w3.org/2000/svg" viewBox="0 0 48 48"><g><path d="m 11.637 24 l 6.727 0 c 0.352 0 0.637 0.352 0.637 0.789 l 0 8.418 c 0 0.438 -0.285 0.789 -0.637 0.789 l -6.727 0 c -0.352 0 -0.637 -0.352 -0.637 -0.789 l 0 -8.418 c 0 -0.438 0.285 -0.789 0.637 -0.789 m 0 0" fill="#f9f9f9" stroke="none" fill-rule="nonzero" fill-opacity="1"/><path d="m 20.637 18 l 6.727 0 c 0.352 0 0.637 0.566 0.637 1.27 l 0 13.465 c 0 0.699 -0.285 1.266 -0.637 1.266 l -6.727 0 c -0.352 0 -0.637 -0.566 -0.637 -1.266 l 0 -13.465 c 0 -0.703 0.285 -1.27 0.637 -1.27 m 0 0" fill="#f9f9f9" stroke="none" fill-rule="nonzero" fill-opacity="1"/><path d="m 29.637 14 l 6.727 0 c 0.352 0 0.637 0.707 0.637 1.582 l 0 16.832 c 0 0.875 -0.285 1.582 -0.637 1.582 l -6.727 0 c -0.352 0 -0.637 -0.707 -0.637 -1.582 l 0 -16.832 c 0 -0.875 0.285 -1.582 0.637 -1.582 m 0 0" fill="#f9f9f9" stroke="none" fill-rule="nonzero" fill-opacity="1"/></g></svg>