<!-- color: #eea63b --><svg xmlns="http://www.w3.org/2000/svg" viewBox="0 0 48 48"><g><path d="M 15 34 L 34.574219 14 L 37 16.425781 L 19.601562 34 M 15 34 " fill="#f9f9f9" stroke="none" fill-rule="nonzero" fill-opacity="1"/><path d="m 22 34 l 11.609 -12 l 2.391 2.586 l -9.586 9.414 m -4.414 0" fill="#f9f9f9" stroke="none" fill-rule="nonzero" fill-opacity="1"/><path d="m 29 34 l 5.477 -5.348 l 2.133 2.348 l -2.922 3 m -4.688 0" fill="#f9f9f9" stroke="none" fill-rule="nonzero" fill-opacity="1"/><path d="m 14.781 16.875 c -2.09 0 -3.781 1.691 -3.781 3.781 c 0 2.09 1.691 3.781 3.781 3.781 c 0.086 0 0.164 -0.027 0.25 -0.031 l -0.031 0.031 c 0.113 0.039 0.316 -0.012 0.531 -0.063 c 0.426 -0.105 0.93 -0.246 1.188 0.031 l 2.625 2.469 l 1.875 -1.875 l -2.594 -2.438 c -0.27 -0.242 -0.195 -0.68 -0.125 -1.156 c 0.035 -0.234 0.059 -0.484 0.063 -0.719 c 0 -0.012 0 -0.023 0 -0.031 c 0 -2.09 -1.691 -3.781 -3.781 -3.781 m 0.063 2.313 c 0.828 0 1.5 0.672 1.5 1.5 c 0 0.828 -0.672 1.5 -1.5 1.5 c -0.828 0 -1.5 -0.672 -1.5 -1.5 c 0 -0.828 0.672 -1.5 1.5 -1.5 m 0 0" fill="#f9f9f9" stroke="none" fill-rule="nonzero" fill-opacity="1"/></g></svg>