<!-- color: #eeeeee --><svg xmlns="http://www.w3.org/2000/svg" viewBox="0 0 48 48"><g><path d="m 21.563 12 c -2.512 -0.074 -4.949 0.867 -6.75 2.594 c -1.805 1.723 -2.816 4.086 -2.813 6.563 c 0.004 2.297 0.883 4.5 2.469 6.188 c 0.965 4.926 5.391 8.656 10.688 8.656 c 6 0 10.844 -4.785 10.844 -10.688 l 0 -0.438 c -0.176 -4.688 -3.41 -8.555 -7.781 -9.813 c -1.695 -1.871 -4.109 -2.988 -6.656 -3.063 m -0.156 0.938 c 1.406 0 2.801 0.359 4.063 1.094 c 0.941 0.551 1.742 1.277 2.375 2.125 c -0.934 -0.27 -1.945 -0.406 -2.969 -0.375 c -5.262 0.16 -9.387 4.5 -9.281 9.75 c 0.012 0.492 0.074 0.965 0.156 1.438 c -1.555 -1.52 -2.457 -3.609 -2.438 -5.844 c -0.031 -2.91 1.48 -5.629 4 -7.094 c 1.262 -0.734 2.688 -1.094 4.094 -1.094 m 0 0" fill="#f9f9f9" stroke="none" fill-rule="nonzero" fill-opacity="1"/></g></svg>