<!-- color: #3f99ca --><svg xmlns="http://www.w3.org/2000/svg" viewBox="0 0 48 48"><g><path d="m 17.05 11.02 c -3.914 11.508 7.094 19.637 19.27 21.18 c -8.906 -3.613 -20.563 -10.602 -19.27 -21.18 m 0 0" fill="#f9f9f9" stroke="none" fill-rule="nonzero" fill-opacity="1"/><path d="m 19.574 9.934 c -4.484 9.707 7.555 17.754 18.14 19.07 c -7.805 -4.797 -18.04 -6.699 -18.14 -19.07 m 0 0" fill="#f9f9f9" stroke="none" fill-rule="nonzero" fill-opacity="1"/><path d="m 21.238 9.496 c -2.809 8.715 7.586 14.551 17.602 16.5 c -7.48 -5.258 -17.324 -6.82 -17.602 -16.5 m 0 0" fill="#f9f9f9" stroke="none" fill-rule="nonzero" fill-opacity="1"/><path d="m 22.246 9.367 c 3.176 6.82 10.695 9.871 16.754 14.187 c -9.03 -2.754 -16.04 -6.668 -16.754 -14.187 m 0 0" fill="#f9f9f9" stroke="none" fill-rule="nonzero" fill-opacity="1"/><path d="m 22.965 9.164 c 2.598 5.992 8.652 8.871 15.32 11.203 c -4.969 -2.934 -9.824 -5.145 -15.32 -11.203 m 0 0" fill="#f9f9f9" stroke="none" fill-rule="nonzero" fill-opacity="1"/><path d="m 24.969 9.215 c 2.281 2.168 7.672 5.676 11.82 7.813 c -4.41 -1.461 -9.668 -4.77 -11.82 -7.813 m 0 0" fill="#f9f9f9" stroke="none" fill-rule="nonzero" fill-opacity="1"/><path d="m 14.535 12.887 c -3.938 11.23 5.973 18.15 19.01 22.1 c -7.605 -4.574 -18.773 -7.086 -19.01 -22.1 m 0 0" fill="#f9f9f9" stroke="none" fill-rule="nonzero" fill-opacity="1"/><path d="m 30.09 37.34 c -10.344 -3.848 -19.324 -8.629 -18.242 -21.297 c 2.422 15.449 11.309 16.289 18.242 21.297 m 0 0" fill="#f9f9f9" stroke="none" fill-rule="nonzero" fill-opacity="1"/><path d="m 10.03 19.285 c 3.824 13.422 11.23 15.66 15.08 19.551 c -2.68 -1.762 -14.15 -4.867 -15.08 -19.551 m 0 0" fill="#f9f9f9" stroke="none" fill-rule="nonzero" fill-opacity="1"/><path d="m 9 25.703 c 2.348 4.875 6.375 9.906 10.566 12.645 c -3.855 -1.578 -8.777 -7.324 -10.566 -12.645 m 0 0" fill="#f9f9f9" stroke="none" fill-rule="nonzero" fill-opacity="1"/></g></svg>