<!-- color: #eeeeee --><svg xmlns="http://www.w3.org/2000/svg" viewBox="0 0 48 48"><g><path d="m 15.719 13 c -0.828 -0.07 -1.719 0.191 -2.719 0.969 c 3 1 3 4.02 3 7.03 l -0.938 0 l -0.063 6 c -0.012 1.082 0.945 2 2 2 l 4 0 c 0 2 -1 4 -1 6 c 0 1.082 1.828 2 4 2 c 1.945 0 4 -0.918 4 -2 c 0 -2 -1 -4 -1 -6 l 4 0 c 1.055 0 2 -0.918 2 -2 l 0 -6 l -1 0 c 0 -5 0 -7 -3 -8 c -0.277 0.277 -0.449 0.813 -0.594 1.469 c -0.125 -0.152 -0.242 -0.305 -0.406 -0.469 c -1.191 -0.855 -3.262 -0.957 -5.094 0.281 c -1.023 -0.578 -2.16 -0.898 -3.906 -0.781 c 0.391 0.398 0.715 0.82 1.031 1.25 c -0.512 -0.242 -1.113 -0.457 -1.875 -0.594 c -0.059 -0.063 -0.094 -0.125 -0.156 -0.188 c -0.695 -0.5 -1.453 -0.898 -2.281 -0.969 m 8.281 20 c 0.555 0 1 0.449 1 1 c 0 0.551 -0.445 1 -1 1 c -0.551 0 -1 -0.449 -1 -1 c 0 -0.551 0.449 -1 1 -1 m -0.031 1 c 0.004 0 -0.008 0.031 0 0.031 c 0 0 0.031 0 0.031 0 c 0 0 -0.031 -0.031 -0.031 -0.031 m 0.031 0.031 l 0.031 0 l 0 -0.031 l -0.031 0 m 0 0.031" fill="#f9f9f9" stroke="none" fill-rule="nonzero" fill-opacity="1"/></g></svg>