<!-- color: #474747 --><svg xmlns="http://www.w3.org/2000/svg" viewBox="0 0 48 48"><g><path d="m 24 11 c -1.434 0 -2.789 0.258 -4.063 0.719 c 0.648 0.547 1.063 1.363 1.063 2.281 c 0 1.656 -1.344 3 -3 3 c -1.336 0 -2.457 -0.887 -2.844 -2.094 c -1.16 1.27 -2.063 2.789 -2.594 4.469 c 0.426 -0.238 0.914 -0.375 1.438 -0.375 c 1.656 0 3 1.344 3 3 c 0 1.66 -1.344 3 -3 3 c -0.734 0 -1.387 -0.277 -1.906 -0.719 c 0.375 3.473 2.211 6.496 4.906 8.438 l 0 2.531 c 0 0.977 0.801 1.781 1.781 1.781 l 10.438 0 c 0.977 0 1.781 -0.805 1.781 -1.781 l 0 -2.531 c 2.695 -1.941 4.531 -4.965 4.906 -8.438 c -0.523 0.441 -1.172 0.719 -1.906 0.719 c -1.656 0 -3 -1.34 -3 -3 c 0 -1.656 1.344 -3 3 -3 c 0.527 0 1.01 0.141 1.438 0.375 c -0.531 -1.68 -1.434 -3.199 -2.594 -4.469 c -0.391 1.207 -1.508 2.094 -2.844 2.094 c -1.656 0 -3 -1.344 -3 -3 c 0 -0.918 0.414 -1.734 1.063 -2.281 c -1.273 -0.461 -2.629 -0.719 -4.063 -0.719 m 4.063 0.719 c 0.461 0.168 0.91 0.375 1.344 0.594 c -0.434 -0.219 -0.883 -0.426 -1.344 -0.594 m 1.344 0.594 c 0.434 0.219 0.848 0.449 1.25 0.719 c -0.395 -0.262 -0.824 -0.504 -1.25 -0.719 m 3.438 2.594 c -0.313 -0.344 -0.648 -0.664 -1 -0.969 c 0.352 0.305 0.688 0.625 1 0.969 m -17.688 0 c 0.313 -0.344 0.648 -0.664 1 -0.969 c -0.352 0.305 -0.688 0.625 -1 0.969 m 4.781 -3.188 c -0.461 0.168 -0.91 0.375 -1.344 0.594 c 0.434 -0.219 0.883 -0.426 1.344 -0.594 m -1.344 0.594 c -0.426 0.215 -0.855 0.457 -1.25 0.719 c 0.402 -0.27 0.816 -0.5 1.25 -0.719 m 5.406 4.688 c 1.656 0 3 1.344 3 3 c 0 1.656 -1.344 3 -3 3 c -1.656 0 -3 -1.344 -3 -3 c 0 -1.656 1.344 -3 3 -3 m -4 8.03 l 2 0 l 0 5 l -2 0 m 6 -5 l 2 0 l 0 5 l -2 0 m -5 2.969 c 2 1.324 4 1.332 6 0 l 0 1 c -2 1.332 -4 1.328 -6 0 m 0 -1" fill="#f9f9f9" stroke="none" fill-rule="nonzero" fill-opacity="1"/></g></svg>