<!-- color: #97769c --><svg xmlns="http://www.w3.org/2000/svg" viewBox="0 0 48 48"><g><path d="m 31.594 14 l -0.969 0.75 c -1.969 -0.523 -2.316 1.059 -2.094 1.762 l -5.629 4.633 c -3.277 -2.348 -6.01 0.422 -4.59 3.879 l -2.316 1.762 c -0.934 0.621 -2.848 0.723 -4 -3.129 l -3 1.039 c 0.402 5.496 3.543 7.305 5 7.305 l 24 0 l -1.785 -5 l -12.969 0.012 l 4.754 -3.688 l 2.34 1.012 l -0.09 -2.77 l 2.75 1.039 l -0.344 -2.676 l 0.758 -0.727 m -12.191 2.82 c 0.332 0 0.625 0.133 0.809 0.387 c 0.371 0.516 0.152 1.328 -0.5 1.824 c -0.648 0.5 -1.477 0.484 -1.84 -0.031 c -0.371 -0.512 -0.152 -1.324 0.5 -1.824 c 0.324 -0.25 0.695 -0.363 1.031 -0.355 m -0.566 0.684 c -0.25 0 -0.465 0.227 -0.465 0.488 c 0 0.262 0.215 0.488 0.465 0.488 c 0.254 0 0.438 -0.227 0.438 -0.488 c 0 -0.262 -0.184 -0.488 -0.438 -0.488 m 0 0" fill="#f9f9f9" stroke="none" fill-rule="nonzero" fill-opacity="1"/></g></svg>