<!-- color: #4d9bb9 --><svg xmlns="http://www.w3.org/2000/svg" viewBox="0 0 48 48"><g><path d="m 11.965 20 c -0.57 0.027 -0.965 0.156 -0.965 0.766 l 0 12.773 c 0 0.809 0.699 1.457 1.574 1.457 l 22.824 0 c 0.879 0 1.602 -0.648 1.602 -1.457 l 0 -12.773 c 0 -0.813 -0.723 -0.766 -1.602 -0.766 l -22.824 0 c -0.219 0 -0.422 -0.012 -0.609 0 m 0 0" fill="#f9f9f9" stroke="none" fill-rule="nonzero" fill-opacity="1"/><path d="m 15.05 13.402 l -3.25 4.598 l 11.195 0 l 0 -7 l -5.508 0 c -0.813 0 -2.438 2.402 -2.438 2.402 m 9.938 -2.402 l 0 7 l 11.188 0 l -3.25 -4.598 c 0 0 -1.625 -2.402 -2.441 -2.402 m -5.492 0" fill="#f9f9f9" stroke="none" fill-rule="nonzero" fill-opacity="1"/></g></svg>