<!-- color: #db6d6d --><svg xmlns="http://www.w3.org/2000/svg" viewBox="0 0 48 48"><g><path d="m 24 11 c -5.574 -0.055 -8.391 3.098 -9.594 6.125 c -0.973 2.48 -1.02 4.766 -1 5.563 c -1.125 0.523 -2.406 1.699 -2.406 4.438 c 0 3.133 1.676 4.258 2.875 4.656 c 2.125 2.531 5.875 4.219 10.156 4.219 c 4.293 0 8.04 -1.707 10.156 -4.25 c 0.004 -0.004 0.027 0.004 0.031 0 c 1.191 -0.43 2.781 -1.582 2.781 -4.625 c 0 -2.758 -1.305 -3.918 -2.438 -4.438 c 0 -0.008 0 -0.023 0 -0.031 c 0.012 -0.91 -0.07 -3.141 -1 -5.469 c -1.195 -3 -3.988 -6.133 -9.563 -6.188 m -0.031 1.625 c 4.992 0.051 7.05 2.559 8.094 5.156 c 0.438 1.09 0.641 2.191 0.75 3.094 c -2.191 -1.762 -5.313 -2.875 -8.781 -2.875 c -3.539 0 -6.711 1.141 -8.906 2.969 c 0.105 -0.949 0.324 -2.121 0.781 -3.281 c 1.039 -2.621 3.074 -5.105 8.06 -5.063 m -3.969 8.375 c 1.105 0 2 0.895 2 2 c 0 0.09 -0.02 0.168 -0.031 0.25 c -0.125 -0.984 -0.949 -1.75 -1.969 -1.75 c -1.023 0 -1.844 0.766 -1.969 1.75 c -0.012 -0.082 -0.031 -0.164 -0.031 -0.25 c 0 -1.102 0.895 -2 2 -2 m 8 0 c 1.102 0 2 0.895 2 2 c 0 0.09 -0.02 0.168 -0.031 0.25 c -0.125 -0.984 -0.949 -1.75 -1.969 -1.75 c -1.023 0 -1.844 0.766 -1.969 1.75 c -0.008 -0.082 -0.031 -0.164 -0.031 -0.25 c 0 -1.102 0.895 -2 2 -2 m -8 2 c 1.105 0 2 0.898 2 2 c 0 1.105 -0.895 2 -2 2 c -1.105 0 -2 -0.895 -2 -2 c 0 -1.102 0.895 -2 2 -2 m 8 0 c 1.105 0 2 0.898 2 2 c 0 1.105 -0.895 2 -2 2 c -1.105 0 -2 -0.895 -2 -2 c 0 -1.102 0.895 -2 2 -2 m -4 4 c 2.211 0 4 1.789 4 4 c 0 2.207 -1.789 4 -4 4 c -2.211 0 -4 -1.793 -4 -4 c 0 -2.211 1.789 -4 4 -4 m -2 3 c -0.551 0 -1 0.445 -1 1 c 0 0.551 0.449 1 1 1 c 0.551 0 1 -0.449 1 -1 c 0 -0.555 -0.449 -1 -1 -1 m 4 0 c -0.551 0 -1 0.445 -1 1 c 0 0.551 0.449 1 1 1 c 0.551 0 1 -0.449 1 -1 c 0 -0.555 -0.449 -1 -1 -1 m 0 0" fill="#f9f9f9" stroke="none" fill-rule="nonzero" fill-opacity="1"/></g></svg>