<!-- color: #3b3a3f --><svg xmlns="http://www.w3.org/2000/svg" viewBox="0 0 48 48"><g><path d="m 36.41 10.148 c -0.066 0.785 -0.715 4.074 -6.719 6.281 c -13.723 5.707 -7.238 12.852 -7.238 12.852 c 1.813 -4.918 3.055 -8.84 7.953 -10.504 c 1 0.5 1.129 0.371 0.379 1.09 c -3.01 2.773 -4.684 5.949 -6.438 9.563 c 9.672 0.246 12.5 -11.523 12.06 -19.281 m 0.004 0" fill="#f9f9f9" stroke="none" fill-rule="nonzero" fill-opacity="1"/><path d="m 19 35.996 c -2 -1 -8 -12.621 -8 -13 c 0 -1 3.441 0.059 4 1 c 1.391 1.895 2.91 5.953 4 5 c 1 -1 0.676 -2.754 1.859 -5.207 c 1.121 -2.781 5.059 -4.04 1.594 5.465 c -2.961 6.383 -2.453 6.742 -3.453 6.742 m 0 0" fill="#f9f9f9" stroke="none" fill-rule="nonzero" fill-opacity="1"/></g></svg>