<!-- color: #5d5d5d --><svg xmlns="http://www.w3.org/2000/svg" viewBox="0 0 48 48"><g><path d="m 19.406 13.13 c -0.199 0.012 -0.383 0.117 -0.5 0.281 l -5.75 7.188 c -0.117 0.152 -0.16 0.344 -0.125 0.531 l 2 9.03 c 0.047 0.188 0.172 0.348 0.344 0.438 l 8.25 4.063 c 0.188 0.094 0.406 0.094 0.594 0 l 8.281 -3.969 c 0.172 -0.09 0.297 -0.25 0.344 -0.438 l 2.094 -9 c 0.047 -0.195 0 -0.402 -0.125 -0.563 l -5.688 -7.25 c -0.234 -0.285 -0.652 -0.328 -0.938 -0.094 c -0.285 0.234 -0.328 0.652 -0.094 0.938 l 5.5 7 l -1.969 8.375 l -7.688 3.688 l -7.656 -3.781 l -1.875 -8.438 l 5.531 -6.906 c 0.172 -0.199 0.207 -0.484 0.09 -0.719 c -0.113 -0.238 -0.359 -0.383 -0.621 -0.375 m 0 0" fill="#f9f9f9" stroke="none" fill-rule="nonzero" fill-opacity="1"/><path d="m 25.594 18.438 c -0.23 0.016 -0.438 0.148 -0.547 0.352 c -0.105 0.203 -0.102 0.449 0.016 0.648 l 2.281 4.25 l -3 3.125 l -3.906 -1.906 l 0.688 -4.781 c 0.051 -0.242 -0.035 -0.496 -0.227 -0.652 c -0.191 -0.16 -0.457 -0.195 -0.684 -0.098 c -0.23 0.098 -0.383 0.313 -0.402 0.563 l -0.75 5.25 c -0.039 0.285 0.113 0.563 0.375 0.688 l 4.75 2.344 c 0.25 0.121 0.551 0.07 0.75 -0.125 l 3.688 -3.844 c 0.184 -0.207 0.223 -0.504 0.094 -0.75 l -2.469 -4.688 c -0.121 -0.25 -0.379 -0.398 -0.656 -0.375 m 0 0" fill="#f9f9f9" stroke="none" fill-rule="nonzero" fill-opacity="1"/><path d="m 29.828 11 c 0 0 -1.781 2.582 -4.852 7.926 l 1.086 0.621 c 3.055 -5.309 4.797 -7.832 4.797 -7.832 l -1.035 -0.715 m -10.215 0.324 l -1.238 0.184 c 0.789 5.332 1.199 7.438 1.348 8.156 c -6.176 0.773 -8.508 0.402 -8.508 0.402 l -0.215 1.23 c 0 0 2.695 0.453 9.551 -0.465 l -0.078 -0.621 l 0.609 -0.137 c 0 0 -0.523 -2.344 -1.469 -8.754 m 16.91 8.109 c 0 0 -2.559 1.059 -8.566 3.598 l -0.641 0.27 l 0.336 0.609 c 2.973 5.398 6.402 8.141 6.402 8.141 l 0.781 -0.973 c 0 0 -2.957 -2.383 -5.73 -7.164 c 5.059 -2.137 7.895 -3.316 7.895 -3.316 l -0.48 -1.156 m -17.11 5.398 c -4.105 4.777 -7.07 6.371 -7.07 6.371 l 0.59 1.102 c 0 0 3.211 -1.754 7.422 -6.66 l -0.949 -0.813 m 4.434 2.477 c -0.473 6.57 -0.824 9.543 -0.824 9.543 l 1.238 0.148 c 0 0 0.355 -3.01 0.836 -9.605 l -1.246 -0.086 m -0.004 0" fill="#f9f9f9" stroke="none" fill-rule="nonzero" fill-opacity="1"/><path d="m 20.383 19.17 c -1.137 0.008 -2.266 0.441 -3.105 1.293 l -4.063 4.09 l 1.789 1.801 l 3.836 -3.863 l 0.223 -0.227 c 0.621 -0.625 2 -0.68 2.68 0.008 l 2.082 2.098 l 1.785 -1.809 l -2.082 -2.09 c -0.871 -0.879 -2.01 -1.313 -3.148 -1.301 m 0.004 0" fill="#f9f9f9" stroke="none" fill-rule="nonzero" fill-opacity="1"/><path d="m 34.28 20.426 l -4.059 4.09 c -0.621 0.625 -2 0.68 -2.688 -0.008 l -2.074 -2.098 l -1.801 1.805 l 2.082 2.098 c 1.742 1.758 4.578 1.703 6.266 0.008 l 4.059 -4.094 m -1.785 -1.801" fill="#f9f9f9" stroke="none" fill-rule="nonzero" fill-opacity="1"/><path d="m 36.434 20 c -0.648 -0.656 -1.559 -0.629 -2.223 -0.422 c -0.664 0.207 -1.254 0.598 -1.789 1.137 c -0.531 0.535 -0.922 1.133 -1.125 1.801 c -0.207 0.668 -0.234 1.586 0.418 2.238 c 0.648 0.656 1.555 0.625 2.219 0.418 c 0.66 -0.207 1.254 -0.598 1.789 -1.133 c 0.531 -0.539 0.922 -1.137 1.125 -1.805 c 0.203 -0.668 0.234 -1.582 -0.414 -2.234 m 0 0" fill="#f9f9f9" stroke="none" fill-rule="nonzero" fill-opacity="1"/></g></svg>