<!-- color: #f3eec8 --><svg xmlns="http://www.w3.org/2000/svg" viewBox="0 0 48 48"><g><path d="m 11 21 l 26 0 l 0 -2 l -26 0 m 0 2" fill="#f9f9f9" stroke="none" fill-rule="nonzero" fill-opacity="1"/><path d="m 24 9 c -8.285 0 -15 6.715 -15 15 c 0 8.285 6.715 15 15 15 c 8.285 0 15 -6.715 15 -15 c 0 -8.285 -6.715 -15 -15 -15 m 0 2 c 7.18 0 13 5.82 13 13 c 0 7.18 -5.82 13 -13 13 c -7.18 0 -13 -5.82 -13 -13 c 0 -7.18 5.82 -13 13 -13 m 0 0" fill="#f9f9f9" stroke="none" fill-rule="nonzero" fill-opacity="1"/><path d="m 23.844 22.5 c -2.902 0 -5.25 2.813 -5.25 6.281 c 0 3.469 2.348 6.281 5.25 6.281 c 2.902 0 5.25 -2.813 5.25 -6.281 c 0 -3.469 -2.348 -6.281 -5.25 -6.281 m 0 1.438 c 2.227 0 4.03 2.18 4.03 4.844 c 0 2.664 -1.805 4.813 -4.03 4.813 c -2.227 0 -4.03 -2.148 -4.03 -4.813 c 0 -2.664 1.805 -4.844 4.03 -4.844 m 0 0" fill="#f9f9f9" stroke="none" fill-rule="nonzero" fill-opacity="1"/><path d="m 27 24.469 l -7.438 7.219 l 1.031 1.094 l 7.438 -7.219 m -1.031 -1.094" fill="#f9f9f9" stroke="none" fill-rule="nonzero" fill-opacity="1"/><path d="m 20.375 16.238 l 0 1.762 l -0.738 0 l 0 -5.04 l 0.738 0 l 0 2.551 l 2.863 -2.551 l 0.949 0 l -2.348 2.055 l 2.371 2.984 l -0.867 0 l -2.031 -2.586 l -0.941 0.828" fill="#f9f9f9" stroke="none" fill-rule="nonzero" fill-opacity="1"/><path d="m 27.34 16.03 l 0 1.973 l -0.73 0 l 0 -1.973 l -2.219 -3.066 l 0.902 0 l 1.695 2.453 l 1.641 -2.453 l 0.875 0 l -2.168 3.066" fill="#f9f9f9" stroke="none" fill-rule="nonzero" fill-opacity="1"/></g></svg>