<!-- color: #eeeeee --><svg xmlns="http://www.w3.org/2000/svg" viewBox="0 0 48 48"><g><path d="m 24 9.03 c 0.258 0.941 -0.203 1.211 -0.531 1.594 c 0.676 0.328 1.082 0.574 1.125 -0.125 c -0.055 -0.344 -0.262 -0.313 -0.594 -1.469 m -3.125 2.375 c 1.039 0.855 1.938 1.754 1 3.03 c -0.734 0.602 -2.262 0.977 -2.219 -0.875 c -0.379 0.621 -0.383 1.395 -0.188 2.25 c 0.051 0.215 0.145 0.387 0.25 0.531 c 1.797 1.332 1.895 1.605 2.156 2.125 c 1.66 2.965 -0.98 5.066 -1.156 5.344 l -0.125 0.25 c 0.699 1.027 1.391 1.629 2.031 2 l 0.063 -1.313 l 1.906 0.094 l -0.188 1.781 c 0.367 0.023 0.711 0 1 0 c 1.316 -0.102 4.422 -1.98 3.03 -5.625 c -0.039 1.914 -1.586 0.895 -1.906 0.25 c -0.277 -0.301 -0.68 -2.723 0.563 -2.781 c 0.305 -0.148 -0.246 -2.305 -2.063 -3.344 c 2.531 1.941 -0.895 4.906 -1.75 1.875 c -0.051 -0.176 0.008 -4.488 1.875 -3.5 c -0.891 -1.469 -2.289 -2.195 -4.281 -2.094 m 3.531 15.219 c -0.535 -0.035 -1.129 -0.184 -1.781 -0.563 l -0.563 12.719 c 0.637 -0.387 0.945 -1.902 1.313 -3.25 m 3.25 -24.12 c -1.141 0.523 -0.691 3.316 0.063 3.375 c -0.285 -0.75 -0.609 -1.145 -0.063 -3.375 m -7.156 5.438 c -0.199 1.113 -0.211 2.285 0.25 2.781 c 0.547 0.645 0.879 0.488 1.25 0.469 c 0.164 -0.082 0.023 -0.199 -0.188 -0.344 c 0.027 -0.059 0.254 -0.078 0.438 -0.094 c 0.066 -0.063 0.129 -0.125 0.094 -0.25 c -0.031 0.102 -0.117 0.145 -0.25 0.188 m 7.344 0.344 c -0.059 0.031 -0.074 0.137 -0.031 0.219 c 0.047 0.082 0.129 0.125 0.188 0.094 c 0.059 -0.031 0.047 -0.137 0 -0.219 c -0.043 -0.082 -0.098 -0.125 -0.156 -0.094 m -4.5 0.906 c 0.668 0.148 0.859 0.535 0.906 0.969 l -1.844 -0.156 c 0.148 -0.449 0.43 -0.777 0.938 -0.813 m -1.094 1.844 l 2 0.156 c 0 0.043 -0.004 0.09 0 0.125 l -0.031 0.344 l -2 -0.094 l 0 -0.188 c 0.004 -0.121 0.023 -0.227 0.031 -0.344 m -0.063 1.125 l 1.938 0.094 l -0.063 0.625 l -1.906 -0.094 m -1.75 1.156 c -0.027 0.004 0.711 0.938 0.688 0.875 c -0.008 -0.031 0.289 -0.355 0.344 -0.313 c -0.262 -0.145 -0.629 -0.348 -1.031 -0.563 m 0 0" fill="#f9f9f9" stroke="none" fill-rule="nonzero" fill-opacity="1"/></g></svg>