<!-- color: #444444 --><svg xmlns="http://www.w3.org/2000/svg" viewBox="0 0 48 48"><g><path d="m 12 34 l 0 2 l 16 0 l 2 -2 m -18 0" fill="#f9f9f9" stroke="none" fill-rule="nonzero" fill-opacity="1"/><path d="m 12 30 l 0 2 l 20 0 l 2 -2 m -22 0" fill="#f9f9f9" stroke="none" fill-rule="nonzero" fill-opacity="1"/><path d="m 30 36 l 6 -6 l 0 6 m -6 0" fill="#f9f9f9" stroke="none" fill-rule="nonzero" fill-opacity="1"/><path d="m 21 11 l -9 17 l 7 0 l 2 -5.531 l -4 -3.469 l 5 0 l 2 -6 l 2 6 l 5.25 0 l -4.25 -8 m 4.25 8 l -4.25 3.5 l 2 5.5 l 7 0 m -7 0 l -5 -3.594 l -5 3.594 m 10 0" fill="#f9f9f9" stroke="none" fill-rule="nonzero" fill-opacity="1"/></g></svg>