<!-- color: #93c849 --><svg xmlns="http://www.w3.org/2000/svg" viewBox="0 0 48 48"><g><path d="m 10.469 13 c -0.824 0.02 -1.48 0.711 -1.469 1.531 c 0.012 0.676 0.477 1.227 1.094 1.406 l 0.719 8.03 c -0.508 0.543 -0.824 1.258 -0.813 2.063 c 0.023 1.48 1.113 2.688 2.531 2.906 c 1.508 4.086 6.07 7.06 11.469 7.06 c 5.383 0 9.949 -2.961 11.469 -7.03 c 1.434 -0.223 2.527 -1.477 2.531 -2.969 l 0 -0.125 c -0.023 -0.762 -0.328 -1.43 -0.813 -1.938 l 0.719 -8 c 0.629 -0.176 1.09 -0.75 1.094 -1.438 l 0 -0.063 c -0.031 -0.824 -0.711 -1.461 -1.531 -1.438 c -0.824 0.02 -1.48 0.711 -1.469 1.531 c 0.012 0.582 0.355 1.07 0.844 1.313 l -1.313 7.219 c -0.023 -0.004 -0.039 -0.027 -0.063 -0.031 c -1.52 -4.07 -6.086 -7.03 -11.469 -7.03 c -5.387 0 -9.949 2.961 -11.469 7.03 c -0.023 0.004 -0.039 0.027 -0.063 0.031 l -1.313 -7.219 c 0.496 -0.242 0.84 -0.75 0.844 -1.344 l 0 -0.063 c -0.031 -0.824 -0.711 -1.461 -1.531 -1.438 m 13.531 6 c 4.973 0 9 3.133 9 7 c 0 3.867 -4.03 7 -9 7 c -4.969 0 -9 -3.133 -9 -7 c 0 -3.867 4.04 -7 9 -7 m -4 3 c -1.105 0 -2 0.895 -2 2 l 0 5 c 0 1.102 0.895 2 2 2 c 1.102 0 2 -0.898 2 -2 l 0 -5 c 0 -1.105 -0.898 -2 -2 -2 m 8 0 c -1.105 0 -2 0.895 -2 2 l 0 5 c 0 1.102 0.895 2 2 2 c 1.102 0 2 -0.898 2 -2 l 0 -5 c 0 -1.105 -0.898 -2 -2 -2 m -8 2 c 0.551 0 1 0.449 1 1 l 0 1.5 c 0 -0.277 -0.223 -0.5 -0.5 -0.5 c -0.273 0 -0.5 0.223 -0.5 0.5 l 0 1 c 0 0.277 0.227 0.5 0.5 0.5 c 0.277 0 0.5 -0.223 0.5 -0.5 l 0 0.5 c 0 0.551 -0.449 1 -1 1 c -0.555 0 -1 -0.449 -1 -1 l 0 -3 c 0 -0.551 0.445 -1 1 -1 m 8 0 c 0.551 0 1 0.449 1 1 l 0 3 c 0 0.551 -0.449 1 -1 1 c -0.551 0 -1 -0.449 -1 -1 l 0 -0.5 c 0 0.277 0.223 0.5 0.5 0.5 c 0.277 0 0.5 -0.223 0.5 -0.5 l 0 -1 c 0 -0.277 -0.223 -0.5 -0.5 -0.5 c -0.277 0 -0.5 0.223 -0.5 0.5 l 0 -1.5 c 0 -0.551 0.449 -1 1 -1 m 7.938 3.03 c -0.039 0.332 -0.109 0.648 -0.188 0.969 c 0.078 -0.324 0.148 -0.633 0.188 -0.969 m -23.875 0.063 c 0.035 0.285 0.121 0.535 0.188 0.813 c -0.063 -0.27 -0.152 -0.535 -0.188 -0.813 m 0 0" fill="#f9f9f9" stroke="none" fill-rule="nonzero" fill-opacity="1"/></g></svg>