<!-- color: #427ecb --><svg xmlns="http://www.w3.org/2000/svg" viewBox="0 0 48 48"><g><path d="m 24 12 c -6.605 0 -12 5.395 -12 12 c 0 6.605 5.395 12 12 12 c 6.605 0 12 -5.395 12 -12 c 0 -6.605 -5.395 -12 -12 -12 m 0 4.156 c 4.355 0 7.844 3.488 7.844 7.844 c 0 4.355 -3.488 7.844 -7.844 7.844 c -4.355 0 -7.844 -3.488 -7.844 -7.844 c 0 -4.355 3.488 -7.844 7.844 -7.844 m 0 0" fill="#f9f9f9" stroke="none" fill-rule="nonzero" fill-opacity="1"/><path d="m 9 22 l 30 0 l 0 4 l -30 0 m 0 -4" fill="#f9f9f9" stroke="none" fill-rule="nonzero" fill-opacity="1"/></g></svg>