<!-- color: #b4c7dc --><svg xmlns="http://www.w3.org/2000/svg" viewBox="0 0 48 48"><g><path d="m 24 9 l 2 3 l 0 26.875 c 3.234 -0.43 6.133 -1.91 8.375 -4.063 l -1.875 -7.313 l 5.344 2.281 c 0.742 -1.777 1.156 -3.734 1.156 -5.781 c 0 -3 -0.891 -5.781 -2.406 -8.125 l -6.094 2.625 l 1.781 -7 c -2.375 -1.578 -5.215 -2.5 -8.281 -2.5 m 0 0 c -3.234 0 -6.207 1.039 -8.656 2.781 l 2.656 6.219 l -6.844 -1.719 c -1.359 2.258 -2.156 4.891 -2.156 7.719 c 0 1.953 0.383 3.82 1.063 5.531 l 5.938 -1.531 l -2.781 6.406 c 2.289 2.375 5.348 4.01 8.781 4.469 l 0 -26.875 m -11.313 18.875 c 0.156 0.301 0.324 0.586 0.5 0.875 c -0.172 -0.285 -0.348 -0.574 -0.5 -0.875 m 11.531 8.03 c 0.195 0.023 0.395 0.016 0.594 0.031 c -0.195 -0.016 -0.398 -0.008 -0.594 -0.031 m 3.563 0 c -0.195 0.023 -0.395 0.016 -0.594 0.031 c 0.199 -0.016 0.398 -0.008 0.594 -0.031 m 0 0" fill="#f9f9f9" stroke="none" fill-rule="nonzero" fill-opacity="1"/></g></svg>