<!-- color: #ebebeb --><svg xmlns="http://www.w3.org/2000/svg" viewBox="0 0 48 48"><g><path d="m 36 27.5 l -24 0 l 0 0.5 l 24 0 m 0 -0.5" fill="#f9f9f9" stroke="none" fill-rule="nonzero" fill-opacity="1"/><path d="m 36 19.5 l -24 0 l 0 0.5 l 24 0 m 0 -0.5" fill="#f9f9f9" stroke="none" fill-rule="nonzero" fill-opacity="1"/><path d="m 28 12 l 0 24 l 0.5 0 l 0 -24 m -0.5 0" fill="#f9f9f9" stroke="none" fill-rule="nonzero" fill-opacity="1"/><path d="m 26 18.504 l -3 0 l 0 -0.434 l 1.203 -1.172 c 0.367 -0.363 0.609 -0.617 0.723 -0.77 c 0.121 -0.156 0.203 -0.305 0.262 -0.449 c 0.059 -0.145 0.09 -0.305 0.09 -0.469 c 0 -0.242 -0.074 -0.43 -0.223 -0.563 c -0.145 -0.141 -0.352 -0.211 -0.613 -0.211 c -0.188 0 -0.371 0.031 -0.543 0.094 c -0.168 0.063 -0.355 0.172 -0.563 0.332 l -0.273 -0.348 c 0.422 -0.34 0.879 -0.508 1.375 -0.508 c 0.426 0 0.766 0.105 1.01 0.32 c 0.242 0.215 0.367 0.5 0.367 0.859 c 0 0.281 -0.082 0.559 -0.246 0.836 c -0.16 0.277 -0.469 0.625 -0.91 1.043 l -1 0.949 l 0 0.027 l 2.344 0 l 0 0.469" fill="#f9f9f9" stroke="none" fill-rule="nonzero" fill-opacity="1"/><path d="m 24.379 23.23 c 0.508 0 0.898 0.117 1.188 0.352 c 0.285 0.227 0.434 0.547 0.434 0.945 c 0 0.461 -0.156 0.824 -0.477 1.086 c -0.313 0.258 -0.742 0.391 -1.297 0.391 c -0.535 0 -0.945 -0.082 -1.227 -0.242 l 0 -0.484 c 0.148 0.09 0.34 0.156 0.563 0.215 c 0.227 0.051 0.453 0.074 0.672 0.074 c 0.379 0 0.676 -0.082 0.891 -0.254 c 0.211 -0.168 0.316 -0.406 0.316 -0.73 c 0 -0.613 -0.406 -0.926 -1.223 -0.926 c -0.203 0 -0.484 0.031 -0.828 0.09 l -0.281 -0.168 l 0.18 -2.078 l 2.371 0 l 0 0.469 l -1.906 0 l -0.121 1.332 c 0.25 -0.043 0.5 -0.07 0.746 -0.07" fill="#f9f9f9" stroke="none" fill-rule="nonzero" fill-opacity="1"/><path d="m 26 32.469 l -0.699 0 l 0 1.031 l -0.516 0 l 0 -1.031 l -2.285 0 l 0 -0.441 l 2.234 -3.03 l 0.566 0 l 0 3.01 l 0.699 0 l 0 0.461 m -1.211 -0.461 l 0 -1.492 c 0 -0.293 0.012 -0.617 0.035 -0.984 l -0.027 0 c -0.102 0.191 -0.199 0.355 -0.289 0.484 l -1.469 1.988 l 1.754 0" fill="#f9f9f9" stroke="none" fill-rule="nonzero" fill-opacity="1"/><path d="m 20 12 l 0 24 l 0.5 0 l 0 -24 m -0.5 0" fill="#f9f9f9" stroke="none" fill-rule="nonzero" fill-opacity="1"/></g></svg>