<!-- color: #f0f0ef --><svg xmlns="http://www.w3.org/2000/svg" viewBox="0 0 48 48"><g><path d="m 27.906 11 c -2.691 0.043 -5.344 2.102 -6.406 5.25 c -0.16 0.473 -0.297 0.965 -0.375 1.438 c -0.754 0.852 -1.355 1.887 -1.75 3.063 c -0.051 0.145 -0.082 0.293 -0.125 0.438 c -0.254 -0.031 -0.52 -0.008 -0.781 0.063 l -1.281 0.344 c -1.098 0.293 -1.762 1.406 -1.469 2.5 l 0.531 1.938 c -0.191 0.012 -0.402 0.043 -0.594 0.094 l -1.844 0.5 c -1.543 0.414 -2.445 2.02 -2.031 3.563 l 1.25 4.656 c 0.414 1.547 2.02 2.477 3.563 2.063 l 1.813 -0.5 c 0.551 -0.148 1.012 -0.457 1.375 -0.844 c 1.211 0.074 2.742 0.125 4.531 0.125 c 1.48 0 2.805 -0.086 3.969 -0.188 c 0.352 0.355 0.789 0.641 1.313 0.781 l 1.844 0.5 c 1.543 0.414 3.117 -0.516 3.531 -2.063 l 1.25 -4.688 c 0.363 -1.352 -0.293 -2.711 -1.5 -3.313 l 0.344 -1.344 c 0.293 -1.094 -0.344 -2.207 -1.438 -2.5 l -0.5 -0.125 c 0.035 -0.719 -0.02 -1.422 -0.156 -2.094 c 0.059 -0.148 0.137 -0.313 0.188 -0.469 c 1.293 -3.84 -0.281 -7.82 -3.5 -8.906 c -0.402 -0.137 -0.809 -0.215 -1.219 -0.25 c -0.18 -0.016 -0.352 -0.035 -0.531 -0.031 m -1.406 1.844 c 0.223 -0.008 0.438 0.016 0.656 0.094 c 0.91 0.316 1.457 1.27 1.406 2.344 c 0.516 -0.293 1.207 -0.371 1.906 -0.156 c 1.176 0.367 1.883 1.406 1.594 2.344 c -0.266 0.859 -1.266 1.336 -2.344 1.125 c 0.762 0.82 1.273 1.891 1.469 3.094 c -0.395 0.383 -0.848 0.758 -1.313 1.125 c -0.586 0.465 -1.227 1.078 -1.656 1.625 c -0.086 -1.762 -1.563 -3.156 -3.344 -3.156 c -1.168 0 -2.188 0.617 -2.781 1.531 c 0.016 -0.555 -0.156 -1.379 -0.344 -2.031 c -0.113 -0.387 -0.211 -0.781 -0.281 -1.156 c 0.832 -1.09 1.93 -1.891 3.094 -2.281 c -0.531 -0.648 -0.68 -1.648 -0.344 -2.625 c 0.391 -1.125 1.32 -1.852 2.281 -1.875 m 0.813 2.531 c -0.23 0.078 -0.453 0.352 -0.531 0.688 c -0.078 0.301 -0.047 0.617 0.094 0.813 c 0.145 0.195 0.383 0.242 0.594 0.125 c 0.211 -0.113 0.379 -0.387 0.438 -0.688 c 0.102 -0.453 -0.063 -0.867 -0.375 -0.938 c -0.078 -0.016 -0.141 -0.027 -0.219 0 m 1.688 0.438 c -0.313 -0.066 -0.652 0.238 -0.75 0.688 c -0.078 0.301 -0.051 0.617 0.094 0.813 c 0.141 0.195 0.383 0.238 0.594 0.125 c 0.211 -0.117 0.379 -0.383 0.438 -0.688 c 0.102 -0.449 -0.066 -0.867 -0.375 -0.938 m -1.156 1.313 l -0.156 0.156 c 0.023 0.008 0.07 0.023 0.094 0.031 c 0.07 0.027 0.121 0.066 0.188 0.094 c -0.047 -0.09 -0.09 -0.191 -0.125 -0.281 m -1.625 0.188 c -0.496 0.031 -0.875 0.094 -0.875 0.094 c 0 0 -0.313 2.309 1.031 2.969 c 1.344 0.656 2.875 -1.563 2.875 -1.563 c 0 0 -0.574 -0.957 -1.469 -1.344 c -0.449 -0.191 -1.066 -0.188 -1.563 -0.156 m -5.906 4.5 c 0.23 0.461 0.586 0.898 1 1.313 c 0.203 0.203 0.352 0.309 0.469 0.313 c -0.141 0.363 -0.219 0.742 -0.219 1.156 c 0 0.012 0 0.02 0 0.031 l -0.938 0.719 l -0.625 -1.063 c 0 0 -0.105 -0.027 -0.125 -0.031 c 0.016 -0.801 0.152 -1.617 0.438 -2.438 m 4.313 0.375 c 0.105 -0.016 0.207 -0.004 0.313 0 c 0.324 0.008 0.648 0.066 0.938 0.188 c 1.09 0.406 1.477 1.43 1.375 2.406 c -0.176 -0.07 -0.328 -0.141 -0.75 -0.25 c -0.051 -0.855 -0.758 -1.531 -1.625 -1.531 c -0.789 0 -1.473 0.566 -1.625 1.313 c -0.262 0.016 -0.484 0.008 -0.688 0.031 c 0.105 -1.066 0.781 -2.082 2.063 -2.156 m 5.406 3.063 c 0.305 0.008 0.613 0.023 0.875 0.031 c -0.02 0.063 -0.039 0.125 -0.063 0.188 c -0.188 0.535 -0.441 1.039 -0.719 1.5 c -0.414 -0.422 -1.016 -0.918 -1.531 -1.313 c 0.512 -0.086 0.992 -0.234 1.438 -0.406 m -10.09 0.125 c 0.172 0.078 0.258 0.176 0.313 0.25 c -0.07 0.059 -0.145 0.152 -0.219 0.219 c -0.031 -0.156 -0.07 -0.305 -0.094 -0.469 m 0.781 3.438 l 7.438 0 c 1.133 0 2.063 0.93 2.063 2.063 l 0 1.656 c 0 1.133 -0.93 2.063 -2.063 2.063 l -7.438 0 c -1.133 0 -2.063 -0.93 -2.063 -2.063 l 0 -1.656 c 0 -1.133 0.93 -2.063 2.063 -2.063 m 0 0" fill="#f9f9f9" stroke="none" fill-rule="nonzero" fill-opacity="1"/></g></svg>