<!-- color: #69553a --><svg xmlns="http://www.w3.org/2000/svg" viewBox="0 0 48 48"><g><path d="m 23.965 12 c -1.32 0.023 -2.371 1.105 -2.355 2.426 l 0 3.797 l -2.68 -2.684 c -0.453 -0.461 -1.078 -0.719 -1.727 -0.719 c -0.648 0 -1.266 0.254 -1.715 0.719 c -0.918 0.949 -0.895 2.461 0.051 3.383 l 2.691 2.691 l -3.797 0 c -0.867 -0.008 -1.672 0.445 -2.105 1.188 c -0.438 0.746 -0.438 1.668 0 2.414 c 0.434 0.742 1.238 1.195 2.105 1.188 l 3.797 0 l -2.684 2.68 c -0.617 0.605 -0.867 1.488 -0.648 2.324 c 0.223 0.836 0.871 1.484 1.707 1.707 c 0.836 0.219 1.719 -0.031 2.324 -0.648 l 2.68 -2.684 l 0 3.789 c -0.008 0.863 0.445 1.668 1.188 2.105 c 0.746 0.434 1.668 0.434 2.414 0 c 0.742 -0.438 1.199 -1.242 1.188 -2.105 l 0 -3.789 l 2.68 2.684 c 0.605 0.617 1.488 0.867 2.328 0.648 c 0.836 -0.223 1.484 -0.871 1.703 -1.707 c 0.219 -0.836 -0.027 -1.73 -0.648 -2.332 l -2.672 -2.672 l 3.789 0 c 0.648 0.008 1.266 -0.25 1.723 -0.711 c 0.457 -0.457 0.711 -1.074 0.699 -1.723 c -0.02 -1.32 -1.105 -2.371 -2.422 -2.355 l -3.801 0 l 2.695 -2.691 c 0.461 -0.449 0.719 -1.066 0.719 -1.715 c 0 -0.648 -0.262 -1.266 -0.727 -1.715 c -0.945 -0.918 -2.461 -0.895 -3.383 0.047 l -2.68 2.684 l 0 -3.797 c 0.008 -0.648 -0.25 -1.27 -0.711 -1.727 c -0.457 -0.457 -1.074 -0.707 -1.723 -0.699 m -0.004 0" fill="#f9f9f9" stroke="none" fill-rule="nonzero" fill-opacity="1"/></g></svg>