<!-- color: #697682 --><svg xmlns="http://www.w3.org/2000/svg" viewBox="0 0 48 48"><g><path d="m 15.531 12 c -1.957 0 -3.531 1.574 -3.531 3.531 l 0 16.938 c 0 1.957 1.574 3.531 3.531 3.531 l 16.938 0 c 1.957 0 3.531 -1.574 3.531 -3.531 l 0 -16.938 c 0 -1.957 -1.574 -3.531 -3.531 -3.531 m -15.469 11 l 2 0 c 0.551 0 1 0.445 1 1 l 0 2 c 0 0.551 -0.449 1 -1 1 l -2 0 c -0.551 0 -1 -0.449 -1 -1 l 0 -2 c 0 -0.555 0.449 -1 1 -1 m 6 0 l 2 0 c 0.555 0 1 0.445 1 1 l 0 2 c 0 0.551 -0.445 1 -1 1 l -2 0 c -0.551 0 -1 -0.449 -1 -1 l 0 -2 c 0 -0.555 0.449 -1 1 -1 m 6 0 l 2 0 c 0.551 0 1 0.445 1 1 l 0 2 c 0 0.551 -0.449 1 -1 1 l -2 0 c -0.555 0 -1 -0.449 -1 -1 l 0 -2 c 0 -0.555 0.445 -1 1 -1 m -14.09 6 l 18.19 0 c 0.504 0 0.906 0.449 0.906 1 l 0 2 c 0 0.551 -0.402 1 -0.906 1 l -18.19 0 c -0.504 0 -0.906 -0.449 -0.906 -1 l 0 -2 c 0 -0.551 0.402 -1 0.906 -1 m 0 0" fill="#f9f9f9" stroke="none" fill-rule="nonzero" fill-opacity="1"/></g></svg>