<!-- color: #ffddae --><svg xmlns="http://www.w3.org/2000/svg" viewBox="0 0 48 48"><g><path d="m 31 10 c -1.902 1.629 -3.488 3.207 -4.844 4.75 l 0.844 4.25 l -1.938 -2.906 c -2.887 3.68 -4.41 7.359 -5.063 11.906 c 0 0 -1 1 0 1 l 1.996 0 l 0 -1 c 1.195 -1.59 2.156 -2.73 3 -3.723 l 0 -4.277 l 1 3 l -0.063 0.156 c 2.668 -3.109 3.617 -4.484 5.063 -13.156 m 0.004 0" fill="#f9f9f9" stroke="none" fill-rule="nonzero" fill-opacity="1"/><path d="m 19 30 l 1.996 -0.996 l 2 0.996 c 0 1 1 1 2 2 l 0 4 c 0 1 -1 2 -2 2 l -4 0 c -1 0 -2 -1 -2 -2 l 0 -4 c 1 -1 2 -1 2 -2 m 0.004 0" fill="#f9f9f9" stroke="none" fill-rule="nonzero" fill-opacity="1"/><path d="m 18.887 28 l 4.227 0 c 0.488 0 0.887 0.395 0.887 0.887 l 0 0.227 c 0 0.488 -0.398 0.883 -0.887 0.883 l -4.227 0 c -0.488 0 -0.887 -0.395 -0.887 -0.883 l 0 -0.227 c 0 -0.492 0.398 -0.887 0.887 -0.887 m 0 0" fill="#f9f9f9" stroke="none" fill-rule="nonzero" fill-opacity="1"/></g></svg>