<!-- color: #5782cb --><svg xmlns="http://www.w3.org/2000/svg" viewBox="0 0 48 48"><g><path d="m 23.781 12 c -4.176 0.086 -8.746 7.594 -8.781 14.406 c -0.035 6.793 3.648 9.594 9.188 9.594 c 5.543 0 8.863 -4.242 8.813 -9.188 c -0.047 -4.426 -1.66 -8.824 -3.906 -11.656 c -0.895 0.902 -1.184 1.281 -1.75 1.875 l 0.844 0.906 l 0.125 0.156 l -0.188 0.094 l -1.906 0.938 c -0.027 0.262 -0.059 0.422 -0.063 0.844 l -0.313 0 l 0 -0.656 c -0.094 0.047 -0.184 0.102 -0.313 0.156 c -0.305 0.129 -0.668 0.246 -0.906 0.344 l -0.063 -0.125 l -0.063 -0.156 l 1.188 -0.531 c -0.047 -0.027 -0.055 -0.027 -0.125 -0.063 c -0.008 0 -0.023 0.004 -0.031 0 c -0.172 -0.074 -0.379 -0.164 -0.594 -0.25 c -0.227 -0.09 -0.465 -0.184 -0.656 -0.281 c -0.164 -0.078 -0.277 -0.172 -0.375 -0.281 c -0.016 -0.02 -0.051 -0.016 -0.063 -0.031 l 0.125 -0.094 l 0.094 -0.125 c 0.016 0.008 0.02 0.027 0.031 0.031 c 0.488 0.27 0.867 0.434 1.281 0.625 c 0.105 0.043 0.223 0.086 0.313 0.125 c 0.137 0.055 0.227 0.125 0.313 0.188 c 0.008 0.004 0.027 -0.004 0.031 0 l 0.125 -0.094 l 1.531 -0.75 l -0.813 -0.906 l -0.094 -0.094 l 0.125 -0.094 l 1.969 -1.969 c -1.531 -1.84 -3.336 -2.98 -5.094 -2.938 m 0 0" fill="#f9f9f9" stroke="none" fill-rule="evenodd" fill-opacity="1"/></g></svg>