<!-- color: #7373a1 --><svg xmlns="http://www.w3.org/2000/svg" viewBox="0 0 48 48"><g><path d="m 17.281 14 c -0.781 0 -1.102 0.41 -1.219 1 l -3.063 0 l 0 4 l -2 0 l 2 14 l 22 0 l 2 -14 l -2 0 l 0 -4 l -12.06 0 c -0.117 -0.59 -0.438 -1 -1.219 -1 m -6.719 2 l 17 0 l 0 1 l -16 0 l 0 2 l -1 0 m 2 -1 l 16 0 l 0 1 l -16 0 m 3.5 2 l 0.031 0 c 1.016 0.004 1.977 0.262 2.813 0.719 c -0.203 0.156 -0.578 0.438 -0.875 0.719 c -0.605 -0.27 -1.262 -0.406 -1.969 -0.406 c -0.484 0 -0.934 0.09 -1.375 0.219 c 0.27 1.332 1.059 2.445 2.156 3.156 c 0.051 0.031 0.141 0.102 0.281 0.188 c 0.25 0.156 0.605 0.332 0.969 0.406 c 0.461 0.137 0.965 0.188 1.469 0.188 c 0.281 0 0.539 -0.016 0.813 -0.063 c 0.031 0.121 0.074 0.344 0.063 0.656 c -0.008 0.176 -0.016 0.305 -0.031 0.406 c -0.281 0.043 -0.582 0.063 -0.875 0.063 c -0.539 0 -1.063 -0.082 -1.563 -0.219 c 0.004 1.41 0.598 2.691 1.531 3.594 c 0.902 -0.875 1.492 -2.086 1.531 -3.438 l 0 -0.125 c 0.004 -0.145 0 -0.5 -0.063 -0.813 c -0.023 -0.125 -0.02 -0.188 -0.031 -0.25 c -0.031 -0.133 -0.063 -0.188 -0.063 -0.188 c -0.172 -0.688 -0.484 -1.305 -0.906 -1.844 c 0.027 -0.023 0.414 -0.355 0.844 -0.656 c 0.516 0.664 0.863 1.469 1.063 2.313 c 1.277 -0.684 2.227 -1.914 2.531 -3.375 c -0.457 -0.141 -0.938 -0.219 -1.438 -0.219 c -0.84 0 -1.621 0.227 -2.313 0.594 c -0.105 0.055 -0.211 0.125 -0.313 0.188 c -0.203 0.133 -0.496 0.32 -0.844 0.625 c -0.012 0.012 -0.023 0.02 -0.031 0.031 c -0.035 0.031 -0.039 0.066 -0.063 0.094 c -0.012 0.012 -0.027 0.023 -0.031 0.031 c -0.488 0.516 -0.891 1.133 -1.125 1.813 c -0.281 -0.133 -0.59 -0.313 -0.906 -0.5 c 0.293 -0.773 0.75 -1.445 1.313 -2.031 c 0.02 -0.02 0.012 -0.043 0.031 -0.063 c 0.172 -0.164 0.438 -0.434 0.813 -0.719 c 0.977 -0.691 2.184 -1.094 3.469 -1.094 c 0.531 0 1.035 0.086 1.531 0.219 c 0.273 0.09 0.805 0.242 1.031 0.344 l 0 0.031 c 0.008 0.004 0.023 -0.004 0.031 0 c 0 0.055 -0.078 0.582 -0.188 1.063 c 0.004 0.004 -0.008 0.027 0 0.031 c -0.441 1.789 -1.703 3.242 -3.344 4 c 0.004 0.113 0.031 0.23 0.031 0.344 c 0 1.648 -0.652 3.129 -1.719 4.219 c -0.082 0.09 -0.395 0.438 -0.75 0.75 c -0.012 -0.016 -0.07 -0.02 -0.094 -0.031 c -0.086 -0.066 -0.504 -0.398 -0.813 -0.688 c 0.008 -0.004 -0.008 -0.027 0 -0.031 c -1.066 -1.09 -1.719 -2.57 -1.719 -4.219 c 0 -0.125 0.023 -0.254 0.031 -0.375 c -1.613 -0.781 -2.828 -2.246 -3.25 -4.03 c -0.039 -0.195 -0.133 -0.629 -0.188 -1.063 c 0.008 -0.004 0.027 0 0.031 0 l 0 -0.031 c 0.078 -0.035 0.469 -0.207 1 -0.344 c 0.469 -0.117 0.965 -0.184 1.469 -0.188 m 0 0" fill="#f9f9f9" stroke="none" fill-rule="nonzero" fill-opacity="1"/></g></svg>