<!-- color: #25d3e8 --><svg xmlns="http://www.w3.org/2000/svg" viewBox="0 0 48 48"><g><path d="m 20.594 12 l 0.469 3.156 c -0.734 -1.027 -1.715 -1.762 -2.906 -2.406 c 0.832 1.367 1.328 2.672 1.469 4 c -0.887 -0.898 -1.262 -1.711 -2.688 -2 c -0.23 -0.723 -0.563 -1.387 -2.563 -1.5 c -0.414 -0.555 -0.863 -0.691 -1.813 -0.531 l -0.563 1.375 l 1.813 0.031 c 0.602 0.293 1.113 0.766 1.563 1.438 c 2.48 0.5 2.523 1.352 3 2.313 l -2.219 -1.469 c 0.219 0.695 0.289 1.398 0.313 2.094 c -1.367 -0.824 -1.164 -2.289 -1.781 -2.438 c -0.371 -0.09 0.078 2.01 0.75 3.313 c 0 0.152 -1.969 -0.438 -1.969 -0.438 c 0.621 0.953 1.637 1.656 3.125 1.563 c -9.06 11.805 8.121 22.313 17.563 10 c 4.777 -8.82 -0.496 -16.344 -7.188 -16.375 c -1.309 -0.008 -2.676 0.289 -4.03 0.906 c -0.027 -0.945 -0.734 -1.879 -2.344 -3.03 m 3.281 4.344 c 3.785 -0.023 4.754 1.609 6.656 2.969 c -2.191 -0.988 -4.75 -1.34 -7.344 -1.281 c 0.207 0.367 0.316 0.785 0.313 1.219 c 0.008 0.914 -0.496 1.758 -1.313 2.219 c -0.813 0.457 -1.813 0.457 -2.625 0 c -0.012 -0.008 -0.02 -0.023 -0.031 -0.031 c -0.195 2.098 -0.152 3.977 -0.094 6.06 c -0.719 -2.109 -1.258 -3.789 -0.938 -7.188 c -0.02 -0.043 -0.047 -0.082 -0.063 -0.125 c -0.617 2.422 -1.496 4.707 -1.75 7.06 c -0.25 -2.297 -0.391 -4.695 0.813 -6.906 c 0.793 -0.199 1.703 -0.582 2.719 -1.25 c 1.055 -1.023 1.793 -1.879 2.25 -2.656 c 0.492 -0.047 0.988 -0.09 1.406 -0.094 m 0 0" fill="#f9f9f9" stroke="none" fill-rule="nonzero" fill-opacity="1"/></g></svg>