<!-- color: #fff772 --><svg xmlns="http://www.w3.org/2000/svg" viewBox="0 0 48 48"><g><path d="m 12 33 l 24 0 l 0 -1 l -24 0 m 0 1" fill="#f9f9f9" stroke="none" fill-rule="evenodd" fill-opacity="1"/><path d="m 12 29 l 24 0 l 0 -1 l -24 0 m 0 1" fill="#f9f9f9" stroke="none" fill-rule="evenodd" fill-opacity="1"/><path d="m 12 25 l 24 0 l 0 -1 l -24 0 m 0 1" fill="#f9f9f9" stroke="none" fill-rule="evenodd" fill-opacity="1"/><path d="m 36 12 l -24 0 l 0 5 l 24 0 m 0 -5" fill="#f9f9f9" stroke="none" fill-rule="evenodd" fill-opacity="1"/><path d="m 12 21 l 24 0 l 0 -1 l -24 0 m 0 1" fill="#f9f9f9" stroke="none" fill-rule="evenodd" fill-opacity="1"/><path d="m 19 16 l 0 20 l 1 0 l 0 -20 m -1 0" fill="#f9f9f9" stroke="none" fill-rule="evenodd" fill-opacity="1"/></g></svg>