<!-- color: #FD3F92 --><svg xmlns="http://www.w3.org/2000/svg" viewBox="0 0 48 48"><g><path d="m 18 12 l -4 4 l 2 0 l 0.105 12.402 c 0.02 2.355 0.637 4.215 2.043 5.574 c 1.406 1.352 3.379 2.023 5.922 2.023 c 1.684 0 3.148 -0.301 4.383 -0.91 c 1.238 -0.609 1.875 -1.492 2.523 -2.637 c 0.66 -1.145 0.918 -2.473 0.918 -3.996 l 0.105 -12.457 l 2 0 l -4 -4 l -4 4 l 2 0 l 0 13 c 0 1.594 -0.527 2.918 -1.152 3.668 c -0.613 0.738 -1.297 1.113 -2.668 1.113 c -1.414 0 -2.43 -0.371 -3.043 -1.113 c -0.613 -0.742 -1.137 -2.082 -1.137 -3.668 l 0 -13 l 2 0 m -4 -4" fill="#f9f9f9" stroke="none" fill-rule="nonzero" fill-opacity="1"/></g></svg>