<!-- color: #dfdfdf --><svg xmlns="http://www.w3.org/2000/svg" viewBox="0 0 48 48"><g><path d="m 11.531 13 c -0.297 0.031 -0.531 0.297 -0.531 0.594 l 0 10.816 c 0 0.316 0.277 0.594 0.594 0.594 l 5.406 0 l 0 2 l -4 0 l 0 2 l 7.281 0 l 0 -6 l -6.84 0 c -0.211 0 -0.41 -0.195 -0.41 -0.41 l 0 -7.184 c -0.004 -0.188 0.129 -0.371 0.313 -0.406 c 0.023 -0.004 0.066 -0.004 0.094 0 l 11.125 0 c 0.207 0 0.406 0.191 0.406 0.406 l 0 2.875 l 2.031 0 l 0 -4.691 c 0 -0.313 -0.281 -0.594 -0.594 -0.594 m -14.875 0" fill="#f9f9f9" stroke="none" fill-rule="nonzero" fill-opacity="1"/><path d="m 21.781 19 l 3.125 2 l 9.656 0 c 0.207 0 0.406 0.195 0.406 0.406 l 0 7.188 c 0 0.211 -0.199 0.406 -0.406 0.406 l -11.125 0 c -0.211 0 -0.406 -0.195 -0.406 -0.406 l 0 -4.469 l -2.031 -1.313 l 0 7.594 c 0 0.313 0.281 0.594 0.594 0.594 l 5.406 0 l 0 2 l -4 0 l 0 2 l 12 0 l 0 -2 l -4 0 l 0 -2 l 5.406 0 c 0.313 0 0.594 -0.277 0.594 -0.594 l 0 -10.813 c 0 -0.316 -0.281 -0.594 -0.594 -0.594 m -14.625 0" fill="#f9f9f9" stroke="none" fill-rule="nonzero" fill-opacity="1"/><path d="m 18.906 18.281 c 0 0 -0.332 -0.016 -0.781 0.688 c -0.438 0.676 -0.281 1 -0.281 1 l 0.688 0.438 l 0.313 0.219 l 5.469 3.5 l 0.031 0 l 2.188 0.25 l -1.125 -1.906 l -5.469 -3.531 l -0.313 -0.188 m -0.719 -0.469" fill="#f9f9f9" stroke="none" fill-rule="nonzero" fill-opacity="1"/></g></svg>