<!-- color: #616161 --><svg xmlns="http://www.w3.org/2000/svg" viewBox="0 0 48 48"><g><path d="m 21.262 13.93 c 0.754 -1.098 1.586 -2.227 2.738 -2.93 c 1.137 0.684 1.914 1.797 2.66 2.871 c 1.75 2.664 2.82 5.863 2.605 9.08 c 0.563 0.48 1.145 0.941 1.703 1.422 c 0.801 0.738 1.176 1.898 0.98 2.969 c -0.266 1.352 -0.523 2.699 -0.809 4.059 c -0.16 0.691 -1.094 1.012 -1.648 0.566 c -0.906 -0.773 -1.801 -1.566 -2.715 -2.324 c -0.688 0.668 -1.602 1.105 -2.566 1.164 c -1.105 0.082 -2.203 -0.391 -3.01 -1.145 c -0.656 0.504 -1.262 1.109 -1.902 1.648 c -0.309 0.25 -0.566 0.578 -0.93 0.746 c -0.566 0.246 -1.297 -0.121 -1.426 -0.73 c -0.293 -1.313 -0.598 -2.637 -0.883 -3.957 c -0.23 -1.109 0.18 -2.336 1.035 -3.086 c 0.496 -0.418 1 -0.828 1.508 -1.227 c 0.141 -0.074 0.07 -0.246 0.078 -0.375 c -0.152 -3.105 0.902 -6.168 2.578 -8.742 m 0.895 4.086 c -0.664 0.852 -0.582 2.18 0.184 2.945 c 0.816 0.895 2.355 0.934 3.207 0.063 c 0.656 -0.602 0.879 -1.605 0.563 -2.438 c -0.285 -0.809 -1.055 -1.402 -1.895 -1.48 c -0.781 -0.09 -1.594 0.273 -2.059 0.906 m 0 0" fill="#f9f9f9" stroke="none" fill-rule="nonzero" fill-opacity="1"/><path d="m 21 32.434 c -0.008 -0.391 0.414 -0.641 0.742 -0.43 c 1.379 0.711 3.094 0.691 4.473 -0.023 c 0.313 -0.195 0.773 0.039 0.785 0.418 c 0.004 0.828 0.004 1.656 0 2.48 c 0.008 0.406 -0.516 0.66 -0.824 0.41 c -0.238 -0.211 -0.453 -0.449 -0.684 -0.668 c -0.359 0.707 -0.699 1.426 -1.066 2.129 c -0.172 0.336 -0.723 0.336 -0.898 0.008 c -0.363 -0.703 -0.703 -1.426 -1.074 -2.133 c -0.223 0.223 -0.438 0.457 -0.676 0.668 c -0.313 0.254 -0.785 0.113 -0.781 -0.289 c -0.004 -0.816 0 -1.754 0 -2.57 m 0.004 0" fill="#f9f9f9" stroke="none" fill-rule="nonzero" fill-opacity="1"/><path d="m 25.5 19.5 c 0 0.828 -0.672 1.5 -1.5 1.5 c -0.828 0 -1.5 -0.672 -1.5 -1.5 c 0 -0.828 0.672 -1.5 1.5 -1.5 c 0.828 0 1.5 0.672 1.5 1.5 m 0 0" fill="#f9f9f9" stroke="none" fill-rule="nonzero" fill-opacity="1"/></g></svg>