<!-- color: #ffc934 --><svg xmlns="http://www.w3.org/2000/svg" viewBox="0 0 48 48"><g><path d="m 14.781 11 c -0.98 0 -1.781 0.801 -1.781 1.781 l 0 22.438 c 0 0.98 0.801 1.781 1.781 1.781 l 20.438 0 c 0.98 0 1.781 -0.801 1.781 -1.781 l 0 -19.219 l -5 -5 m -13.875 7 l 7.75 0 c 1.18 0 2.125 0.945 2.125 2.125 l 0 1.875 l 3.875 0 c 1.18 0 2.125 0.945 2.125 2.125 l 0 7.75 c 0 1.18 -0.945 2.125 -2.125 2.125 l -7.75 0 c -1.18 0 -2.125 -0.945 -2.125 -2.125 l 0 -1.875 l -3.875 0 c -1.18 0 -2.125 -0.945 -2.125 -2.125 l 0 -7.75 c 0 -1.18 0.945 -2.125 2.125 -2.125 m -0.125 2 l 0 8 l 8 0 l 0 -8 m 2 4 l 0 3.875 c 0 1.18 -0.945 2.125 -2.125 2.125 l -1.875 0 l 0 2 l 8 0 l 0 -8 m -4 0" fill="#f9f9f9" stroke="none" fill-rule="nonzero" fill-opacity="1"/></g></svg>