<!-- color: #20a0db --><svg xmlns="http://www.w3.org/2000/svg" viewBox="0 0 48 48"><g><path d="m 10.805 17.438 l 0.027 1.875 l 26.441 0 l -0.031 -1.875 m -26.438 0" fill="#f9f9f9" stroke="none" fill-rule="nonzero" fill-opacity="1"/><path d="m 9.703 23.06 l 0 1.875 l 28.594 0 l 0 -1.875 m -28.594 0" fill="#f9f9f9" stroke="none" fill-rule="nonzero" fill-opacity="1"/><path d="m 10.875 28.688 l 0 1.875 l 26.25 0 l 0 -1.875 m -26.25 0" fill="#f9f9f9" stroke="none" fill-rule="nonzero" fill-opacity="1"/><path d="m 23.06 9.711 l 0 28.609 l 1.875 0 l 0 -28.609 m -1.875 0" fill="#f9f9f9" stroke="none" fill-rule="nonzero" fill-opacity="1"/><path d="m 17.375 10.469 c -3.242 8.809 -3.523 18.91 0.031 27.06 l 1.719 -0.75 c -3.309 -7.594 -3.063 -17.25 0.031 -25.656 m -1.781 -0.656" fill="#f9f9f9" stroke="none" fill-rule="nonzero" fill-opacity="1"/><path d="m 30.625 10.469 l -1.781 0.656 c 3.094 8.406 3.34 18.06 0.031 25.656 l 1.719 0.75 c 3.555 -8.152 3.273 -18.254 0.031 -27.06 m 0 0" fill="#f9f9f9" stroke="none" fill-rule="nonzero" fill-opacity="1"/><path d="m 24 9 c -8.273 0 -15 6.727 -15 15 c 0 8.273 6.727 15 15 15 c 8.273 0 15 -6.727 15 -15 c 0 -8.273 -6.727 -15 -15 -15 m 0 1.875 c 7.262 0 13.13 5.863 13.13 13.13 c 0 7.262 -5.863 13.13 -13.12 13.13 c -7.262 0 -13.12 -5.863 -13.12 -13.12 c 0 -7.262 5.863 -13.12 13.13 -13.12 m 0 0" fill="#f9f9f9" stroke="none" fill-rule="nonzero" fill-opacity="1"/></g></svg>