<!-- color: #eeeeee --><svg xmlns="http://www.w3.org/2000/svg" viewBox="0 0 48 48"><g><path d="m 32.406 12 c -0.965 0.02 -1.91 0.645 -2.063 1.844 c -0.242 1.898 1.574 1.188 3.03 1.188 c 1.457 0 1.922 3.09 1.563 4.75 c -0.188 0.848 -1.301 2.289 -3.5 2.969 l 0.563 0.563 l -4.688 4.688 l 4.594 4.594 c 3.086 -2.895 5.094 -7.199 5.094 -11.313 c 0 -0.813 -0.105 -1.605 -0.25 -2.375 c -0.133 -0.387 -0.246 -0.77 -0.344 -1.125 c -0.18 -0.633 -0.391 -1.16 -0.563 -1.656 c -0.008 -0.02 0.008 -0.043 0 -0.063 c -0.688 -1.5 -1.652 -2.875 -2.844 -4 c -0.008 -0.012 -0.027 0.008 -0.031 0 c -0.188 -0.047 -0.371 -0.063 -0.563 -0.063 m -15.16 8.25 c -4.055 -0.148 -6.113 2.313 -6.25 2.375 c 0.383 3.602 2.301 7.348 5.094 9.969 l 4.594 -4.594 l -4.688 -4.688 l 2.875 -2.875 c -0.57 -0.109 -1.117 -0.168 -1.625 -0.188 m 2.813 0.5 l 3.938 3.938 l 1.906 -1.906 c -1.188 -0.266 -2.492 -0.691 -3.938 -1.344 c -0.668 -0.301 -1.301 -0.508 -1.906 -0.688 m 3.938 10.563 l -3.906 3.906 c 1.227 0.5 2.523 0.781 3.875 0.781 c 1.371 0 2.695 -0.277 3.938 -0.781 m -3.906 -3.906" fill="#f9f9f9" stroke="none" fill-rule="nonzero" fill-opacity="1"/><path d="m 30.395 16.531 c 0 0.391 -0.324 0.711 -0.727 0.711 c -0.398 0 -0.727 -0.32 -0.727 -0.711 c 0 -0.395 0.328 -0.715 0.727 -0.715 c 0.402 0 0.727 0.32 0.727 0.715 m 0 0" fill="#f9f9f9" stroke="none" fill-rule="nonzero" fill-opacity="1"/><path d="m 28.938 13.941 c 0 0.281 -0.23 0.508 -0.512 0.508 c -0.285 0 -0.516 -0.227 -0.516 -0.508 c 0 -0.277 0.23 -0.504 0.516 -0.504 c 0.281 0 0.512 0.227 0.512 0.504 m 0 0" fill="#f9f9f9" stroke="none" fill-rule="nonzero" fill-opacity="1"/></g></svg>