<!-- color: #52525d --><svg xmlns="http://www.w3.org/2000/svg" viewBox="0 0 48 48"><g><path d="m 12.813 13 c -0.438 0.047 -0.816 0.477 -0.813 0.938 l 0 20.13 c 0 0.492 0.438 0.938 0.906 0.938 l 22.19 0 c 0.469 0 0.906 -0.445 0.906 -0.938 l 0 -20.12 c 0 -0.492 -0.438 -0.938 -0.906 -0.938 m -3.094 1.219 c 0.332 0 0.75 0.434 0.75 0.781 c 0 0.348 -0.418 0.781 -0.75 0.781 c -0.332 0 -0.75 -0.434 -0.75 -0.781 c 0 -0.348 0.418 -0.781 0.75 -0.781 m -18 2.688 l 20 0 l 0 16.5 l -20 0 m 6.531 -12.875 c -2.48 0 -4.5 2.02 -4.5 4.5 c 0 2.48 2.02 4.5 4.5 4.5 c 0.738 0 1.418 -0.215 2.031 -0.531 l 6.563 0 c 1.59 0 2.875 -1.281 2.875 -2.875 l 0 -2.25 c 0 -1.594 -1.285 -2.875 -2.875 -2.875 l -6.625 0 c -0.598 -0.297 -1.258 -0.469 -1.969 -0.469 m -0.031 1.906 c 0.441 0 0.887 0.109 1.281 0.344 c 0.789 0.469 1.254 1.336 1.219 2.25 c -0.051 1.344 -1.156 2.406 -2.5 2.406 c -1.344 0 -2.449 -1.063 -2.5 -2.406 c -0.035 -0.914 0.43 -1.781 1.219 -2.25 c 0.391 -0.234 0.84 -0.344 1.281 -0.344 m 0 0" fill="#f9f9f9" stroke="none" fill-rule="nonzero" fill-opacity="1"/></g></svg>