<!-- color: #e5e5e5 --><svg xmlns="http://www.w3.org/2000/svg" viewBox="0 0 48 48"><g><path d="m 24 9 c -4.98 0 -9.367 2.453 -12.09 6.188 c -1.137 4.508 0.563 8.625 3.719 10.438 c 3.559 1.648 7.914 0.121 8.375 -1.625 c -1.277 0.586 -5.371 -0.539 -6.125 -3.03 c -0.789 -5.793 3.719 -8.07 9.125 -8.656 c 3.164 -0.348 6.07 0.527 8.563 2.156 c -2.75 -3.332 -6.902 -5.469 -11.563 -5.469 m 0 15 c 1.273 -0.586 4.684 -1.527 5.438 0.969 c 0.789 5.797 -3.03 10.125 -8.438 10.719 c -3.152 0.344 -6.05 -0.508 -8.531 -2.125 c 2.75 3.313 6.887 5.438 11.531 5.438 c 4.66 0 8.813 -2.137 11.563 -5.469 c 1.125 -5.359 -1.746 -10.992 -5.125 -12.938 c -3.559 -1.648 -5.973 1.66 -6.438 3.406 m 0 0" fill="#f9f9f9" stroke="none" fill-rule="evenodd" fill-opacity="1"/><path d="m 28.563 20.13 c -2.523 -0.012 -4.188 2.457 -4.563 3.875 c 0.219 -0.074 4.621 -1.277 5.438 0.969 c 0.789 5.797 -3.03 10.129 -8.438 10.719 c -3.152 0.344 -6.05 -0.508 -8.531 -2.125 c 2.75 3.313 6.887 5.438 11.531 5.438 c 4.645 0 8.781 -2.125 11.531 -5.438 c 0.004 -0.012 0.027 -0.02 0.031 -0.031 c 1.121 -5.355 -1.746 -10.996 -5.125 -12.938 c -0.668 -0.309 -1.293 -0.465 -1.875 -0.469 m 0 0" fill="#f9f9f9" stroke="none" fill-rule="nonzero" fill-opacity="1"/></g></svg>