<svg width="640" xmlns="http://www.w3.org/2000/svg" viewBox="0 0 640 480" height="480">
<g style="fill-rule:evenodd">
<rect width="640" x="0" y="0" rx="2.605" height="480" style="fill:#d64937"/>
<path style="fill:#2d2d2d" d="m 147,420 c -1.20735,0 -2,0.79265 -2,2 l 0,58 350,0 0,-58 c 0,-1.20735 -0.79265,-2 -2,-2 z"/>
</g>
<path style="fill:#888;line-height:normal;color:#000" d="m 147,419 c -1.4757,0 -3.01272,1.52435 -3,3 l 0,58 1,0 0,-58 c 0,-0.939 1.061,-2 2,-2 l 346,0 c 0.939,0 2.00809,1.06103 2,2 l 0,58 1,0 0,-58 c 0,-1.4757 -1.5243,-3 -3,-3 z"/>
<g style="fill-rule:evenodd">
<g>
<rect width="640" x="0" y="0" rx="2.315" height="30" style="fill:#2d2d2d"/>
<rect width="640" x="0" y="29" rx="2.315" height="1" ry=".5" style="fill:#888"/>
</g>
<g style="fill:#dcdcdc;word-spacing:0;fill-opacity:.941;line-height:125%">
<path d="m 19.999898,14.99996 a 4.9999681,4.9999886 0 1 1 -9.9999358,0 4.9999681,4.9999886 0 1 1 9.9999358,0 z"/>
<path d="m 33.999898,14.99996 a 4.9999681,4.9999886 0 1 1 -9.999936,0 4.9999681,4.9999886 0 1 1 9.999936,0 z"/>
<path d="m 47.999898,14.99996 a 4.9999681,4.9999886 0 1 1 -9.999936,0 4.9999681,4.9999886 0 1 1 9.999936,0 z"/>
</g>
</g>
<g style="line-height:125%;word-spacing:0;fill-opacity:.941;fill:#dcdcdc">
<g>
<path d="m 630,12 -10,0 5,6 z"/>
<path d="m 601,10 0,10 -5,-3 -2,0 0,-4 2,0 z"/>
<path d="m 603,18 0,2 2,0 0,-2 z"/>
<path d="m 603,14 0,2 2,0 0,-2 z"/>
<path d="m 603,10 0,2 2,0 0,-2 z"/>
<path d="m 570,10 1.5,2 12,0 1.5,-2 -15,0 z m 3,4 1.5,2 6,0 1.5,-2 -9,0 z m 3,4 1.5,2 1.5,-2 -3,0 z"/>
</g>
<g style="letter-spacing:0">
<path d="m 294.50213,19.821398 -1.9739,0 0,-7.962949 -2.52786,0 0,-1.706346 7.02962,0 0,1.706346 -2.52786,0 0,7.962949"/>
<path d="m 303.36556,19.821398 -0.26106,-0.945765 -0.10188,0 c -0.20801,0.343916 -0.50303,0.61067 -0.88507,0.800263 -0.38205,0.185186 -0.81715,0.277777 -1.30532,0.277778 -0.83626,-1e-6 -1.46663,-0.231482 -1.89112,-0.694443 -0.42449,-0.467371 -0.63675,-1.137563 -0.63675,-2.01058 l 0,-4.821419 1.94206,0 0,4.318775 c 0,0.533512 0.0913,0.934745 0.27381,1.203702 0.18253,0.264552 0.4733,0.396826 0.87233,0.396824 0.54335,2e-6 0.93601,-0.187388 1.17797,-0.562167 0.24196,-0.379187 0.36294,-1.005288 0.36294,-1.878305 l 0,-3.478829 1.94206,0 0,7.394166 -1.48997,0"/>
<path d="m 309.85395,13.723526 c -0.41176,6e-6 -0.73438,0.136689 -0.96785,0.410052 -0.23348,0.268964 -0.36719,0.652561 -0.40114,1.150791 l 2.72524,0 c -0.009,-0.49823 -0.13372,-0.881827 -0.37567,-1.150791 -0.24196,-0.273363 -0.56883,-0.410046 -0.98058,-0.410052 m 0.27379,6.230148 c -1.14613,-1e-6 -2.04181,-0.328483 -2.68704,-0.985448 -0.64523,-0.656964 -0.96785,-1.587297 -0.96785,-2.791001 0,-1.238971 0.29715,-2.195758 0.89144,-2.870366 0.59853,-0.679004 1.42417,-1.018509 2.47692,-1.018516 1.00605,7e-6 1.78924,0.297625 2.34957,0.892855 0.56033,0.595244 0.8405,1.417552 0.8405,2.466928 l 0,0.978834 -4.5909,0 c 0.0212,0.573194 0.18465,1.020723 0.4903,1.34259 0.30562,0.32187 0.73437,0.482805 1.28621,0.482804 0.42874,1e-6 0.83412,-0.0463 1.21617,-0.138889 0.38204,-0.09259 0.78107,-0.240298 1.19707,-0.443121 l 0,1.560844 c -0.3396,0.176366 -0.70253,0.306437 -1.08882,0.39021 -0.38629,0.08819 -0.85748,0.132275 -1.41357,0.132276"/>
<path d="m 323.97049,14.986751 c -10e-6,1.688713 -0.26743,2.938709 -0.8023,3.749993 -0.53062,0.811287 -1.34989,1.216929 -2.45781,1.21693 -1.07398,-1e-6 -1.88475,-0.41887 -2.43235,-1.256612 -0.54335,-0.837739 -0.81503,-2.074508 -0.81503,-3.710311 0,-1.70634 0.26531,-2.962951 0.79593,-3.769835 0.53061,-0.811277 1.34776,-1.2169197 2.45145,-1.2169296 1.07396,9.9e-6 1.88474,0.4232896 2.43235,1.2698396 0.55184,0.846567 0.82775,2.08554 0.82776,3.716925 m -4.5527,0 c 0,1.186069 0.0976,2.037036 0.29291,2.552905 0.19951,0.511466 0.53273,0.767196 0.99968,0.767195 0.45845,10e-7 0.78955,-0.260139 0.99331,-0.780421 0.20376,-0.52028 0.30564,-1.366838 0.30564,-2.539679 0,-1.18606 -0.10401,-2.037027 -0.312,-2.552906 -0.20376,-0.520273 -0.53275,-0.780414 -0.98695,-0.780422 -0.4627,8e-6 -0.7938,0.260149 -0.99331,0.780422 -0.19952,0.515879 -0.29928,1.366846 -0.29928,2.552906"/>
<path d="m 329.81577,19.821398 -1.96753,0 0,-5.595228 0.0191,-0.919311 0.0318,-1.005289 c -0.32686,0.339513 -0.55397,0.562175 -0.68131,0.667988 l -1.06972,0.892856 -0.94875,-1.230157 2.99905,-2.480154 1.61732,0 0,9.669295"/>
<path d="m 332.61107,18.875633 c 0,-0.370369 0.0955,-0.65035 0.28653,-0.839946 0.19102,-0.189592 0.46906,-0.284388 0.83412,-0.28439 0.35233,2e-6 0.62401,0.097 0.81504,0.291004 0.19526,0.194005 0.2929,0.471782 0.2929,0.833332 0,0.348325 -0.0976,0.623897 -0.2929,0.826718 -0.19527,0.198413 -0.46695,0.297619 -0.81504,0.297619 -0.35656,0 -0.63249,-0.097 -0.82776,-0.291005 -0.19526,-0.198411 -0.29289,-0.476188 -0.29289,-0.833332 m 0,-5.462954 c 0,-0.370363 0.0955,-0.650344 0.28653,-0.839945 0.19102,-0.189587 0.46906,-0.284384 0.83412,-0.284391 0.35233,7e-6 0.62401,0.097 0.81504,0.291004 0.19526,0.194011 0.2929,0.471788 0.2929,0.833332 0,0.357148 -0.0998,0.634925 -0.29927,0.833332 -0.19527,0.194009 -0.46482,0.29101 -0.80867,0.291005 -0.35656,5e-6 -0.63249,-0.09699 -0.82776,-0.291005 -0.19526,-0.193997 -0.29289,-0.471774 -0.29289,-0.833332"/>
<path d="m 342.56332,14.986751 c 0,1.688713 -0.26744,2.938709 -0.80229,3.749993 -0.53062,0.811287 -1.34989,1.216929 -2.45782,1.21693 -1.07397,-1e-6 -1.88475,-0.41887 -2.43235,-1.256612 -0.54335,-0.837739 -0.81503,-2.074508 -0.81503,-3.710311 0,-1.70634 0.26531,-2.962951 0.79592,-3.769835 0.53063,-0.811277 1.34777,-1.2169197 2.45146,-1.2169296 1.07397,9.9e-6 1.88475,0.4232896 2.43235,1.2698396 0.55184,0.846567 0.82776,2.08554 0.82776,3.716925 m -4.55269,0 c -10e-6,1.186069 0.0976,2.037036 0.2929,2.552905 0.1995,0.511466 0.53273,0.767196 0.99968,0.767195 0.45845,10e-7 0.78956,-0.260139 0.99331,-0.780421 0.20376,-0.52028 0.30564,-1.366838 0.30564,-2.539679 0,-1.18606 -0.104,-2.037027 -0.31201,-2.552906 -0.20375,-0.520273 -0.53274,-0.780414 -0.98694,-0.780422 -0.4627,8e-6 -0.79381,0.260149 -0.99331,0.780422 -0.19952,0.515879 -0.29928,1.366846 -0.29927,2.552906"/>
<path d="m 350.00045,14.986751 c -10e-6,1.688713 -0.26743,2.938709 -0.80229,3.749993 -0.53062,0.811287 -1.34989,1.216929 -2.45782,1.21693 -1.07398,-1e-6 -1.88475,-0.41887 -2.43235,-1.256612 -0.54335,-0.837739 -0.81502,-2.074508 -0.81502,-3.710311 0,-1.70634 0.2653,-2.962951 0.79592,-3.769835 0.53061,-0.811277 1.34776,-1.2169197 2.45145,-1.2169296 1.07397,9.9e-6 1.88474,0.4232896 2.43235,1.2698396 0.55184,0.846567 0.82775,2.08554 0.82776,3.716925 m -4.5527,0 c 0,1.186069 0.0976,2.037036 0.29291,2.552905 0.19951,0.511466 0.53273,0.767196 0.99968,0.767195 0.45845,10e-7 0.78956,-0.260139 0.99331,-0.780421 0.20376,-0.52028 0.30564,-1.366838 0.30564,-2.539679 0,-1.18606 -0.104,-2.037027 -0.312,-2.552906 -0.20376,-0.520273 -0.53275,-0.780414 -0.98695,-0.780422 -0.4627,8e-6 -0.7938,0.260149 -0.99331,0.780422 -0.19952,0.515879 -0.29928,1.366846 -0.29928,2.552906"/>
</g>
</g>
<g style="fill-rule:evenodd">
<g>
<rect width="290" x="80" y="100" rx="2.315" height="200" style="fill:#dedede"/>
<path style="fill:#2d2d2d" d="M 82.3125,100 C 81.02999,100 80,101.02999 80,102.3125 L 80,120 l 290,0 0,-17.6875 C 370,101.02999 368.97001,100 367.6875,100 l -285.375,0 z"/>
<path style="fill:#f9f9f9" d="m 170,120 0,180 197.6875,0 C 368.97001,300 370,298.97001 370,297.6875 L 370,120 170,120 z"/>
</g>
<g style="letter-spacing:0">
<path style="fill:#9b59b6" d="m 245.00009,451.01014 a 17.000093,16.999963 0 0 1 -34.00018,0 17.000093,16.999963 0 1 1 34.00018,0 z"/>
<path style="fill:#f39c12" d="m 291.00009,451.01014 a 17.000093,16.999963 0 0 1 -34.00018,0 17.000093,16.999963 0 1 1 34.00018,0 z"/>
<path style="fill:#2980b9" d="m 337.00008,451.01014 a 17.000093,16.999963 0 0 1 -34.00018,0 17.000093,16.999963 0 1 1 34.00018,0 z"/>
<path style="fill:#27ae60" d="m 383.00008,451.01014 a 17.000093,16.999963 0 0 1 -34.00018,0 17.000093,16.999963 0 1 1 34.00018,0 z"/>
<path style="fill:#f1c40f" d="m 429.00008,451.01014 a 17.000093,16.999963 0 0 1 -34.00018,0 17.000093,16.999963 0 1 1 34.00018,0 z"/>
</g>
</g>
<path style="fill:#d64937" d="m 216.99903,476 24,0 0,4 -24,0 z"/>
<g style="fill:#f9f9f6">
<path style="opacity:.5;fill-rule:evenodd;letter-spacing:0" d="m 199.00009,451.01014 a 17.000093,16.999963 0 0 1 -34.00018,0 17.000093,16.999963 0 1 1 34.00018,0 z"/>
<path d="m 171,442 10,0 0,8 -10,0 z"/>
<path style="opacity:.5" d="m 171,452 10,0 0,8 -10,0 z"/>
<path style="opacity:.5" d="m 184,442 10,0 0,8 -10,0 z"/>
<path style="opacity:.5" d="m 184,452 10,0 0,8 -10,0 z"/>
</g>
<g style="fill-rule:evenodd">
<g>
<path style="opacity:.5;fill:#f9f9f6;letter-spacing:0" d="m 475.00009,451.01014 a 17.000093,16.999963 0 0 1 -34.00018,0 17.000093,16.999963 0 1 1 34.00018,0 z"/>
</g>
<g style="fill:#f9f9f9">
<path d="m 454.57023,456.71427 c 0,1.26237 -1.02335,2.28572 -2.28571,2.28572 -1.26236,0 -2.28571,-1.02335 -2.28571,-2.28572 0,-1.26236 1.02335,-2.28571 2.28571,-2.28571 1.26236,0 2.28571,1.02335 2.28571,2.28571 z"/>
<path d="m 454.57023,450.99999 c 0,1.26236 -1.02335,2.28571 -2.28571,2.28571 -1.26236,0 -2.28571,-1.02335 -2.28571,-2.28571 0,-1.26237 1.02335,-2.28572 2.28571,-2.28572 1.26236,0 2.28571,1.02335 2.28571,2.28572 z"/>
<path d="m 454.57023,445.2857 c 0,1.26237 -1.02335,2.28571 -2.28571,2.28571 -1.26236,0 -2.28571,-1.02334 -2.28571,-2.28571 0,-1.26237 1.02335,-2.28571 2.28571,-2.28571 1.26236,0 2.28571,1.02334 2.28571,2.28571 z"/>
<path d="m 460.28452,456.71427 c 0,1.26237 -1.02335,2.28572 -2.28571,2.28572 -1.26236,0 -2.28571,-1.02335 -2.28571,-2.28572 0,-1.26236 1.02335,-2.28571 2.28571,-2.28571 1.26236,0 2.28571,1.02335 2.28571,2.28571 z"/>
<path d="m 460.28452,450.99999 c 0,1.26236 -1.02335,2.28571 -2.28571,2.28571 -1.26236,0 -2.28571,-1.02335 -2.28571,-2.28571 0,-1.26237 1.02335,-2.28572 2.28571,-2.28572 1.26236,0 2.28571,1.02335 2.28571,2.28572 z"/>
<path d="m 460.28452,445.2857 c 0,1.26237 -1.02335,2.28571 -2.28571,2.28571 -1.26236,0 -2.28571,-1.02334 -2.28571,-2.28571 0,-1.26237 1.02335,-2.28571 2.28571,-2.28571 1.26236,0 2.28571,1.02334 2.28571,2.28571 z"/>
<path d="m 465.99881,456.71427 c 0,1.26237 -1.02335,2.28572 -2.28571,2.28572 -1.26237,0 -2.28572,-1.02335 -2.28572,-2.28572 0,-1.26236 1.02335,-2.28571 2.28572,-2.28571 1.26236,0 2.28571,1.02335 2.28571,2.28571 z"/>
<path d="m 465.99881,450.99999 c 0,1.26236 -1.02335,2.28571 -2.28571,2.28571 -1.26237,0 -2.28572,-1.02335 -2.28572,-2.28571 0,-1.26237 1.02335,-2.28572 2.28572,-2.28572 1.26236,0 2.28571,1.02335 2.28571,2.28572 z"/>
<path d="m 465.99881,445.2857 c 0,1.26237 -1.02335,2.28571 -2.28571,2.28571 -1.26237,0 -2.28572,-1.02334 -2.28572,-2.28571 0,-1.26237 1.02335,-2.28571 2.28572,-2.28571 1.26236,0 2.28571,1.02334 2.28571,2.28571 z"/>
</g>
</g>
</svg>
