<svg width="640" xmlns="http://www.w3.org/2000/svg" viewBox="0 0 640 480" height="480">
<g style="fill-rule:evenodd">
<path style="fill:#2d2d2d" d="M -637.395,0 -2.605,0 C -1.16183,0 0,1.16183 0,2.605 l 0,474.79 C 0,478.83817 -1.16183,480 -2.605,480 l -634.79,0 c -1.44317,0 -2.605,-1.16183 -2.605,-2.605 l 0,-474.79 C -640,1.16183 -638.83817,0 -637.395,0 z" transform="scale(-1 1)"/>
<g style="fill:#f9f9f9">
<path style="opacity:.3" d="m 599.99992,479.99998 c 0,-22.09142 17.90864,-40.00006 40.00006,-40.00006 22.09143,0 40.00007,17.90864 40.00007,40.00006 0,22.09142 -17.90864,40.00006 -40.00007,40.00006 -22.09142,0 -40.00006,-17.90864 -40.00006,-40.00006 z"/>
<path style="opacity:.4" d="m 619.99996,479.99999 c 0,-11.04571 8.95432,-20.00003 20.00004,-20.00003 11.04571,0 20.00003,8.95432 20.00003,20.00003 0,11.04571 -8.95432,20.00003 -20.00003,20.00003 -11.04572,0 -20.00004,-8.95432 -20.00004,-20.00003 z"/>
</g>
</g>
<g style="fill:#dcdcdc;line-height:125%;word-spacing:0">
<g style="fill-rule:evenodd">
<path d="m 19.999898,14.99996 a 4.9999681,4.9999886 0 1 1 -9.9999358,0 4.9999681,4.9999886 0 1 1 9.9999358,0 z"/>
<path d="m 33.999898,14.99996 a 4.9999681,4.9999886 0 1 1 -9.999936,0 4.9999681,4.9999886 0 1 1 9.999936,0 z"/>
<path d="m 47.999898,14.99996 a 4.9999681,4.9999886 0 1 1 -9.999936,0 4.9999681,4.9999886 0 1 1 9.999936,0 z"/>
</g>
<path d="m 630,12 -10,0 5,6 z"/>
<path d="m 601,10 0,10 -5,-3 -2,0 0,-4 2,0 z"/>
<path d="m 603,18 0,2 2,0 0,-2 z"/>
<path d="m 603,14 0,2 2,0 0,-2 z"/>
<path d="m 603,10 0,2 2,0 0,-2 z"/>
<path d="m 570,10 1.5,2 12,0 1.5,-2 -15,0 z m 3,4 1.5,2 6,0 1.5,-2 -9,0 z m 3,4 1.5,2 1.5,-2 -3,0 z"/>
<g style="letter-spacing:0">
<path d="m 294.50213,19.821398 -1.9739,0 0,-7.962949 -2.52786,0 0,-1.706346 7.02962,0 0,1.706346 -2.52786,0 0,7.962949"/>
<path d="m 303.36556,19.821398 -0.26106,-0.945765 -0.10188,0 c -0.20801,0.343916 -0.50303,0.61067 -0.88507,0.800263 -0.38205,0.185186 -0.81715,0.277777 -1.30532,0.277778 -0.83626,-1e-6 -1.46663,-0.231482 -1.89112,-0.694443 -0.42449,-0.467371 -0.63675,-1.137563 -0.63675,-2.01058 l 0,-4.821419 1.94206,0 0,4.318775 c 0,0.533512 0.0913,0.934745 0.27381,1.203702 0.18253,0.264552 0.4733,0.396826 0.87233,0.396824 0.54335,2e-6 0.93601,-0.187388 1.17797,-0.562167 0.24196,-0.379187 0.36294,-1.005288 0.36294,-1.878305 l 0,-3.478829 1.94206,0 0,7.394166 -1.48997,0"/>
<path d="m 309.85395,13.723526 c -0.41176,6e-6 -0.73438,0.136689 -0.96785,0.410052 -0.23348,0.268964 -0.36719,0.652561 -0.40114,1.150791 l 2.72524,0 c -0.009,-0.49823 -0.13372,-0.881827 -0.37567,-1.150791 -0.24196,-0.273363 -0.56883,-0.410046 -0.98058,-0.410052 m 0.27379,6.230148 c -1.14613,-1e-6 -2.04181,-0.328483 -2.68704,-0.985448 -0.64523,-0.656964 -0.96785,-1.587297 -0.96785,-2.791001 0,-1.238971 0.29715,-2.195758 0.89144,-2.870366 0.59853,-0.679004 1.42417,-1.018509 2.47692,-1.018516 1.00605,7e-6 1.78924,0.297625 2.34957,0.892855 0.56033,0.595244 0.8405,1.417552 0.8405,2.466928 l 0,0.978834 -4.5909,0 c 0.0212,0.573194 0.18465,1.020723 0.4903,1.34259 0.30562,0.32187 0.73437,0.482805 1.28621,0.482804 0.42874,1e-6 0.83412,-0.0463 1.21617,-0.138889 0.38204,-0.09259 0.78107,-0.240298 1.19707,-0.443121 l 0,1.560844 c -0.3396,0.176366 -0.70253,0.306437 -1.08882,0.39021 -0.38629,0.08819 -0.85748,0.132275 -1.41357,0.132276"/>
<path d="m 323.97049,14.986751 c -10e-6,1.688713 -0.26743,2.938709 -0.8023,3.749993 -0.53062,0.811287 -1.34989,1.216929 -2.45781,1.21693 -1.07398,-1e-6 -1.88475,-0.41887 -2.43235,-1.256612 -0.54335,-0.837739 -0.81503,-2.074508 -0.81503,-3.710311 0,-1.70634 0.26531,-2.962951 0.79593,-3.769835 0.53061,-0.811277 1.34776,-1.2169197 2.45145,-1.2169296 1.07396,9.9e-6 1.88474,0.4232896 2.43235,1.2698396 0.55184,0.846567 0.82775,2.08554 0.82776,3.716925 m -4.5527,0 c 0,1.186069 0.0976,2.037036 0.29291,2.552905 0.19951,0.511466 0.53273,0.767196 0.99968,0.767195 0.45845,10e-7 0.78955,-0.260139 0.99331,-0.780421 0.20376,-0.52028 0.30564,-1.366838 0.30564,-2.539679 0,-1.18606 -0.10401,-2.037027 -0.312,-2.552906 -0.20376,-0.520273 -0.53275,-0.780414 -0.98695,-0.780422 -0.4627,8e-6 -0.7938,0.260149 -0.99331,0.780422 -0.19952,0.515879 -0.29928,1.366846 -0.29928,2.552906"/>
<path d="m 329.81577,19.821398 -1.96753,0 0,-5.595228 0.0191,-0.919311 0.0318,-1.005289 c -0.32686,0.339513 -0.55397,0.562175 -0.68131,0.667988 l -1.06972,0.892856 -0.94875,-1.230157 2.99905,-2.480154 1.61732,0 0,9.669295"/>
<path d="m 332.61107,18.875633 c 0,-0.370369 0.0955,-0.65035 0.28653,-0.839946 0.19102,-0.189592 0.46906,-0.284388 0.83412,-0.28439 0.35233,2e-6 0.62401,0.097 0.81504,0.291004 0.19526,0.194005 0.2929,0.471782 0.2929,0.833332 0,0.348325 -0.0976,0.623897 -0.2929,0.826718 -0.19527,0.198413 -0.46695,0.297619 -0.81504,0.297619 -0.35656,0 -0.63249,-0.097 -0.82776,-0.291005 -0.19526,-0.198411 -0.29289,-0.476188 -0.29289,-0.833332 m 0,-5.462954 c 0,-0.370363 0.0955,-0.650344 0.28653,-0.839945 0.19102,-0.189587 0.46906,-0.284384 0.83412,-0.284391 0.35233,7e-6 0.62401,0.097 0.81504,0.291004 0.19526,0.194011 0.2929,0.471788 0.2929,0.833332 0,0.357148 -0.0998,0.634925 -0.29927,0.833332 -0.19527,0.194009 -0.46482,0.29101 -0.80867,0.291005 -0.35656,5e-6 -0.63249,-0.09699 -0.82776,-0.291005 -0.19526,-0.193997 -0.29289,-0.471774 -0.29289,-0.833332"/>
<path d="m 342.56332,14.986751 c 0,1.688713 -0.26744,2.938709 -0.80229,3.749993 -0.53062,0.811287 -1.34989,1.216929 -2.45782,1.21693 -1.07397,-1e-6 -1.88475,-0.41887 -2.43235,-1.256612 -0.54335,-0.837739 -0.81503,-2.074508 -0.81503,-3.710311 0,-1.70634 0.26531,-2.962951 0.79592,-3.769835 0.53063,-0.811277 1.34777,-1.2169197 2.45146,-1.2169296 1.07397,9.9e-6 1.88475,0.4232896 2.43235,1.2698396 0.55184,0.846567 0.82776,2.08554 0.82776,3.716925 m -4.55269,0 c -10e-6,1.186069 0.0976,2.037036 0.2929,2.552905 0.1995,0.511466 0.53273,0.767196 0.99968,0.767195 0.45845,10e-7 0.78956,-0.260139 0.99331,-0.780421 0.20376,-0.52028 0.30564,-1.366838 0.30564,-2.539679 0,-1.18606 -0.104,-2.037027 -0.31201,-2.552906 -0.20375,-0.520273 -0.53274,-0.780414 -0.98694,-0.780422 -0.4627,8e-6 -0.79381,0.260149 -0.99331,0.780422 -0.19952,0.515879 -0.29928,1.366846 -0.29927,2.552906"/>
<path d="m 350.00045,14.986751 c -10e-6,1.688713 -0.26743,2.938709 -0.80229,3.749993 -0.53062,0.811287 -1.34989,1.216929 -2.45782,1.21693 -1.07398,-1e-6 -1.88475,-0.41887 -2.43235,-1.256612 -0.54335,-0.837739 -0.81502,-2.074508 -0.81502,-3.710311 0,-1.70634 0.2653,-2.962951 0.79592,-3.769835 0.53061,-0.811277 1.34776,-1.2169197 2.45145,-1.2169296 1.07397,9.9e-6 1.88474,0.4232896 2.43235,1.2698396 0.55184,0.846567 0.82775,2.08554 0.82776,3.716925 m -4.5527,0 c 0,1.186069 0.0976,2.037036 0.29291,2.552905 0.19951,0.511466 0.53273,0.767196 0.99968,0.767195 0.45845,10e-7 0.78956,-0.260139 0.99331,-0.780421 0.20376,-0.52028 0.30564,-1.366838 0.30564,-2.539679 0,-1.18606 -0.104,-2.037027 -0.312,-2.552906 -0.20376,-0.520273 -0.53275,-0.780414 -0.98695,-0.780422 -0.4627,8e-6 -0.7938,0.260149 -0.99331,0.780422 -0.19952,0.515879 -0.29928,1.366846 -0.29928,2.552906"/>
<path d="m 263.93377,119.79794 -4.23267,0 -6.83243,-11.15054 -0.0967,0 c 0.13606,1.96933 0.2041,3.37407 0.2041,4.21421 l 0,6.93633 -2.97575,0 0,-14.73969 4.20044,0 6.82169,11.03965 0.0752,0 c -0.10744,-1.91555 -0.16116,-3.26988 -0.16114,-4.06299 l 0,-6.97666 2.99724,0 0,14.73969"/>
<path d="m 270.22906,114.14202 c -1e-5,1.11573 0.19336,1.95924 0.58011,2.53055 0.39389,0.57131 1.0313,0.85696 1.91222,0.85696 0.87373,0 1.5004,-0.2823 1.87999,-0.84688 0.38673,-0.57131 0.5801,-1.41818 0.58011,-2.54063 -10e-6,-1.11572 -0.19338,-1.95252 -0.58011,-2.51039 -0.38675,-0.55785 -1.02057,-0.83679 -1.90148,-0.8368 -0.87375,10e-6 -1.504,0.27895 -1.89073,0.8368 -0.38675,0.55115 -0.58012,1.38795 -0.58011,2.51039 m 8.30419,0 c -1e-5,1.8349 -0.51567,3.26989 -1.54697,4.30496 -1.03132,1.03507 -2.46728,1.55261 -4.30787,1.55261 -1.15307,0 -2.17005,-0.23525 -3.05095,-0.70573 -0.88091,-0.47721 -1.55771,-1.15942 -2.0304,-2.04663 -0.47268,-0.8872 -0.70903,-1.92227 -0.70903,-3.10521 0,-1.84162 0.51208,-3.27324 1.53623,-4.29488 1.02415,-1.02162 2.46368,-1.53244 4.31861,-1.53245 1.15306,1e-5 2.17004,0.23526 3.05096,0.70573 0.8809,0.4705 1.5577,1.14598 2.03039,2.02646 0.47267,0.8805 0.70902,1.9122 0.70903,3.09514"/>
<path d="m 286.3003,117.54969 c 0.57295,1e-5 1.26049,-0.11762 2.06262,-0.35286 l 0,2.28858 c -0.81646,0.34278 -1.81913,0.51418 -3.00798,0.51418 -1.31064,0 -2.26674,-0.30919 -2.86834,-0.92754 -0.59444,-0.62507 -0.89165,-1.55932 -0.89165,-2.80276 l 0,-5.43412 -1.56845,0 0,-1.30057 1.80479,-1.02836 0.94537,-2.37931 2.09484,0 0,2.39948 3.36251,0 0,2.30876 -3.36251,0 0,5.43412 c 0,0.43689 0.12891,0.75951 0.38675,0.96786 0.26498,0.20836 0.61233,0.31255 1.04205,0.31254"/>
<path d="m 290.6404,105.61275 c 0,-1.00145 0.59443,-1.50218 1.7833,-1.5022 1.18887,2e-5 1.78331,0.50075 1.78331,1.5022 0,0.47723 -0.1504,0.85025 -0.4512,1.11908 -0.29364,0.26215 -0.73767,0.39321 -1.33211,0.39321 -1.18887,0 -1.7833,-0.50409 -1.7833,-1.51229 m 3.41621,14.18519 -3.27656,0 0,-11.27153 3.27656,0 0,11.27153"/>
<path d="m 304.12262,110.83517 -2.8361,0 0,8.96277 -3.27656,0 0,-8.96277 -1.80479,0 0,-1.48204 1.80479,-0.82672 0,-0.82672 c 0,-1.28374 0.33661,-2.22135 1.00983,-2.81284 0.67322,-0.59145 1.75108,-0.88718 3.23359,-0.8872 1.13157,2e-5 2.13781,0.15796 3.01873,0.47384 l -0.83794,2.25834 c -0.6589,-0.19489 -1.26766,-0.29235 -1.82628,-0.29237 -0.46553,2e-5 -0.80214,0.13108 -1.00982,0.3932 -0.2077,0.25542 -0.31155,0.58476 -0.31155,0.98802 l 0,0.70573 2.8361,0 0,2.30876 m 1.74034,-5.22242 c -10e-6,-1.00145 0.59443,-1.50218 1.78331,-1.5022 1.18885,2e-5 1.78329,0.50075 1.7833,1.5022 -1e-5,0.47723 -0.1504,0.85025 -0.45119,1.11908 -0.29365,0.26215 -0.73768,0.39321 -1.33211,0.39321 -1.18888,0 -1.78332,-0.50409 -1.78331,-1.51229 m 3.41621,14.18519 -3.27655,0 0,-11.27153 3.27655,0 0,11.27153"/>
<path d="m 317.57263,119.99959 c -3.7385,0 -5.60775,-1.92564 -5.60775,-5.77691 0,-1.91556 0.5085,-3.37743 1.52548,-4.38562 1.01698,-1.01491 2.47443,-1.52236 4.37232,-1.52237 1.3894,1e-5 2.63556,0.25543 3.7385,0.76622 l -0.96685,2.37933 c -0.51567,-0.19491 -0.99551,-0.35286 -1.43954,-0.47385 -0.44404,-0.12769 -0.88808,-0.19155 -1.33211,-0.19156 -1.70453,10e-6 -2.55679,1.1359 -2.55679,3.40768 0,2.20457 0.85226,3.30685 2.55679,3.30685 0.63025,0 1.21393,-0.0773 1.75108,-0.23188 0.53714,-0.16131 1.07427,-0.40999 1.61142,-0.74606 l 0,2.63137 c -0.52998,0.3159 -1.06712,0.53434 -1.61142,0.65532 -0.53715,0.12099 -1.21752,0.18148 -2.04113,0.18148"/>
<path d="m 331.62422,119.79794 -0.63382,-1.53244 -0.0859,0 c -0.55148,0.65197 -1.12085,1.10565 -1.70812,1.36106 -0.58011,0.24868 -1.33927,0.37303 -2.27747,0.37303 -1.15307,0 -2.06262,-0.30919 -2.72867,-0.92754 -0.65889,-0.61835 -0.98834,-1.49883 -0.98834,-2.64145 0,-1.19638 0.44404,-2.07685 1.33211,-2.64145 0.89523,-0.5713 2.24166,-0.88719 4.0393,-0.94769 l 2.0841,-0.0605 0,-0.49401 c 0,-1.14261 -0.62309,-1.71391 -1.86925,-1.71392 -0.9597,1e-5 -2.08769,0.27222 -3.38398,0.81663 l -1.08503,-2.07687 c 1.38224,-0.67883 2.91487,-1.01826 4.59793,-1.01826 1.61141,0 2.84683,0.32935 3.70627,0.98802 0.8594,0.65869 1.28912,1.66016 1.28914,3.0044 l 0,7.51099 -2.28823,0 m -0.96685,-5.22241 -1.26765,0.0403 c -0.95254,0.0268 -1.66156,0.1882 -2.12708,0.48393 -0.46553,0.29574 -0.69828,0.74606 -0.69828,1.35097 0,0.86704 0.52997,1.30056 1.58994,1.30056 0.75914,0 1.36432,-0.20499 1.81553,-0.615 0.45836,-0.40999 0.68754,-0.95441 0.68754,-1.63325 l 0,-0.92754"/>
<path d="m 342.33481,117.54969 c 0.57295,1e-5 1.26049,-0.11762 2.06262,-0.35286 l 0,2.28858 c -0.81646,0.34278 -1.81913,0.51418 -3.00798,0.51418 -1.31064,0 -2.26674,-0.30919 -2.86834,-0.92754 -0.59444,-0.62507 -0.89165,-1.55932 -0.89165,-2.80276 l 0,-5.43412 -1.56845,0 0,-1.30057 1.80479,-1.02836 0.94537,-2.37931 2.09484,0 0,2.39948 3.36251,0 0,2.30876 -3.36251,0 0,5.43412 c 0,0.43689 0.12891,0.75951 0.38675,0.96786 0.26498,0.20836 0.61233,0.31255 1.04205,0.31254"/>
<path d="m 346.67491,105.61275 c 0,-1.00145 0.59443,-1.50218 1.7833,-1.5022 1.18887,2e-5 1.78331,0.50075 1.78331,1.5022 0,0.47723 -0.1504,0.85025 -0.4512,1.11908 -0.29364,0.26215 -0.73767,0.39321 -1.33211,0.39321 -1.18887,0 -1.7833,-0.50409 -1.7833,-1.51229 m 3.41621,14.18519 -3.27656,0 0,-11.27153 3.27656,0 0,11.27153"/>
<path d="m 356.12858,114.14202 c 0,1.11573 0.19336,1.95924 0.58011,2.53055 0.39391,0.57131 1.03131,0.85696 1.91222,0.85696 0.87375,0 1.50041,-0.2823 1.87999,-0.84688 0.38674,-0.57131 0.5801,-1.41818 0.58011,-2.54063 -10e-6,-1.11572 -0.19337,-1.95252 -0.58011,-2.51039 -0.38674,-0.55785 -1.02057,-0.83679 -1.90147,-0.8368 -0.87376,10e-6 -1.504,0.27895 -1.89074,0.8368 -0.38675,0.55115 -0.58011,1.38795 -0.58011,2.51039 m 8.30419,0 c -1e-5,1.8349 -0.51566,3.26989 -1.54696,4.30496 -1.03132,1.03507 -2.46727,1.55261 -4.30786,1.55261 -1.15307,0 -2.17006,-0.23525 -3.05097,-0.70573 -0.88091,-0.47721 -1.55771,-1.15942 -2.03038,-2.04663 -0.47269,-0.8872 -0.70903,-1.92227 -0.70903,-3.10521 0,-1.84162 0.51207,-3.27324 1.53622,-4.29488 1.02414,-1.02162 2.46368,-1.53244 4.31861,-1.53245 1.15305,1e-5 2.17004,0.23526 3.05096,0.70573 0.8809,0.4705 1.5577,1.14598 2.03039,2.02646 0.47267,0.8805 0.70901,1.9122 0.70902,3.09514"/>
<path d="m 378.22655,119.79794 -3.27656,0 0,-6.58346 c -1e-5,-0.81326 -0.15399,-1.42153 -0.46195,-1.82481 -0.30796,-0.41 -0.79855,-0.61499 -1.47175,-0.615 -0.91673,1e-5 -1.57921,0.28902 -1.98742,0.86705 -0.40824,0.57131 -0.61236,1.52236 -0.61235,2.85316 l 0,5.30306 -3.27656,0 0,-11.27153 2.50308,0 0.44046,1.44171 0.18263,0 c 0.36525,-0.54441 0.86657,-0.95441 1.50399,-1.22998 0.64456,-0.28229 1.37507,-0.42344 2.19153,-0.42345 1.39655,1e-5 2.45651,0.35624 3.17988,1.06869 0.72333,0.70573 1.08501,1.72736 1.08502,3.06489 l 0,7.34967"/>
<path d="m 390.00067,116.45077 c -1e-5,1.15605 -0.42972,2.03654 -1.28914,2.64145 -0.85227,0.60491 -2.13067,0.90737 -3.83518,0.90737 -0.87375,0 -1.61859,-0.0571 -2.2345,-0.1714 -0.61593,-0.10754 -1.19246,-0.26885 -1.7296,-0.48393 l 0,-2.54062 c 0.60876,0.26885 1.29272,0.49401 2.05188,0.67548 0.76631,0.18147 1.43953,0.27221 2.01964,0.27221 1.18887,0 1.78331,-0.32262 1.78332,-0.96786 -10e-6,-0.24197 -0.0788,-0.43688 -0.23635,-0.58475 -0.15757,-0.15458 -0.42971,-0.32598 -0.81645,-0.51418 -0.38675,-0.19491 -0.9024,-0.42007 -1.54697,-0.67548 -0.92388,-0.36294 -1.60426,-0.69901 -2.04113,-1.00819 -0.42972,-0.30918 -0.74484,-0.66204 -0.94537,-1.0586 -0.19337,-0.40327 -0.29006,-0.89728 -0.29006,-1.48203 0,-1.00146 0.41181,-1.7744 1.23543,-2.31883 0.83077,-0.55114 2.00532,-0.82671 3.52364,-0.82672 1.44669,1e-5 2.854,0.29575 4.22192,0.88721 l -0.98833,2.21801 c -0.60161,-0.24196 -1.16382,-0.44024 -1.68662,-0.59483 -0.52282,-0.15458 -1.05638,-0.23187 -1.60069,-0.23188 -0.96685,1e-5 -1.45027,0.24533 -1.45027,0.73597 0,0.27559 0.15398,0.51419 0.46194,0.71582 0.31511,0.20164 0.99908,0.50073 2.05188,0.89728 0.9382,0.35623 1.62574,0.68894 2.06262,0.99811 0.43686,0.30918 0.75914,0.6654 0.96685,1.06868 0.20768,0.40327 0.31153,0.88385 0.31154,1.44171"/>
</g>
</g>
<g style="fill-rule:evenodd;fill:#f9f9f9">
<path style="opacity:.1" d="m 167.31,370 305.38,0 c 1.27974,0 2.31,0.20204 2.31,0.453 l 0,59.094 c 0,0.25096 -1.03026,0.453 -2.31,0.453 l -305.38,0 c -1.27974,0 -2.31,-0.20204 -2.31,-0.453 l 0,-59.094 c 0,-0.25096 1.03026,-0.453 2.31,-0.453 z"/>
<path style="opacity:.5" d="m 218.00056,401.00067 a 17.000049,17.000032 0 1 1 -34.00009,0 17.000049,17.000032 0 1 1 34.00009,0 z"/>
</g>
<g style="fill:#dcdcdc;word-spacing:0;line-height:125%;letter-spacing:0" transform="scale(.98816 1.01198)">
<path d="m 248.33135,401.04199 -2.32493,0 0,-6.36534 0.0226,-1.04584 0.0376,-1.14366 c -0.38624,0.38625 -0.6546,0.63956 -0.80507,0.75993 l -1.26404,1.01575 -1.12109,-1.39947 3.54383,-2.82152 1.91111,0 0,11.00015"/>
<path d="m 263.72554,401.04199 -2.29483,0 0,-4.9132 c -10e-6,-0.60693 -0.10785,-1.06088 -0.32354,-1.36185 -0.21569,-0.30597 -0.55929,-0.45896 -1.03079,-0.45897 -0.64206,10e-6 -1.10604,0.2157 -1.39195,0.64707 -0.28592,0.42637 -0.42887,1.13614 -0.42887,2.1293 l 0,3.95765 -2.29483,0 0,-8.41188 1.7531,0 0.30849,1.07594 0.1279,0 c 0.25582,-0.40629 0.60694,-0.71227 1.05337,-0.91793 0.45144,-0.21067 0.96307,-0.31601 1.53491,-0.31601 0.97811,0 1.72049,0.26585 2.22711,0.79754 0.50661,0.52669 0.75992,1.28913 0.75993,2.28731 l 0,5.48503"/>
<path d="m 269.58677,394.10482 c -0.48656,10e-6 -0.86778,0.15551 -1.14365,0.46649 -0.27589,0.30599 -0.43389,0.74238 -0.47402,1.30919 l 3.22029,0 c -0.01,-0.56681 -0.15801,-1.0032 -0.44392,-1.30919 -0.28591,-0.31098 -0.67215,-0.46648 -1.1587,-0.46649 m 0.32354,7.08765 c -1.35434,0 -2.41272,-0.37369 -3.17515,-1.12108 -0.76244,-0.74739 -1.14366,-1.80577 -1.14366,-3.17515 0,-1.4095 0.35113,-2.49797 1.05337,-3.26543 0.70726,-0.77246 1.68287,-1.1587 2.92685,-1.1587 1.1888,0 2.11425,0.33859 2.77638,1.01574 0.6621,0.67717 0.99316,1.61266 0.99317,2.80647 l 0,1.11356 -5.42484,0 c 0.0251,0.65209 0.2182,1.16121 0.57936,1.52738 0.36115,0.36617 0.86776,0.54926 1.51985,0.54925 0.50662,10e-6 0.98565,-0.0527 1.43709,-0.158 0.45144,-0.10533 0.92295,-0.27337 1.41453,-0.50411 l 0,1.77567 c -0.40129,0.20064 -0.83016,0.34862 -1.28662,0.44392 -0.45646,0.10032 -1.01324,0.15048 -1.67033,0.15048"/>
<path d="m 282.13688,401.04199 -0.64707,-2.9419 -0.87279,-3.71688 -0.0527,0 -1.5349,6.65878 -2.46789,0 -2.39265,-8.41188 2.28731,0 0.9706,3.7244 c 0.1555,0.66714 0.3135,1.58758 0.47402,2.76133 l 0.0451,0 c 0.0201,-0.38122 0.10784,-0.98565 0.26335,-1.8133 l 0.12038,-0.63954 1.03832,-4.03289 2.52808,0 0.98565,4.03289 c 0.0201,0.11036 0.0502,0.27338 0.0903,0.48906 0.0451,0.21569 0.0878,0.44643 0.1279,0.69221 0.0401,0.24078 0.0752,0.47904 0.10534,0.71479 0.0351,0.23074 0.0552,0.41633 0.0602,0.55678 l 0.0451,0 c 0.0451,-0.36116 0.12539,-0.85523 0.24077,-1.48224 0.11536,-0.63202 0.19812,-1.05838 0.24829,-1.27909 l 1.00822,-3.7244 2.24969,0 -2.42274,8.41188 -2.49798,0"/>
<path d="m 299.93877,401.04199 -2.29483,0 0,-4.9132 c -10e-6,-0.60693 -0.10284,-1.06088 -0.30849,-1.36185 -0.20065,-0.30597 -0.51916,-0.45896 -0.95555,-0.45897 -0.58688,10e-6 -1.01325,0.2157 -1.27909,0.64707 -0.26585,0.43138 -0.39878,1.14115 -0.39878,2.1293 l 0,3.95765 -2.29483,0 0,-8.41188 1.7531,0 0.30849,1.07594 0.12791,0 c 0.22572,-0.38623 0.55176,-0.68719 0.97812,-0.90289 0.42636,-0.22069 0.91542,-0.33105 1.46719,-0.33105 1.25902,0 2.11174,0.41132 2.55818,1.23394 l 0.20315,0 c 0.22571,-0.39124 0.55677,-0.69471 0.99317,-0.91041 0.4414,-0.21568 0.93799,-0.32353 1.48976,-0.32353 0.95304,0 1.67283,0.24579 2.1594,0.73735 0.49156,0.48656 0.73734,1.26906 0.73736,2.3475 l 0,5.48503 -2.30236,0 0,-4.9132 c -1e-5,-0.60693 -0.10284,-1.06088 -0.30848,-1.36185 -0.20066,-0.30597 -0.51917,-0.45896 -0.95556,-0.45897 -0.5618,10e-6 -0.98315,0.20065 -1.26404,0.60193 -0.27589,0.40128 -0.41383,1.03832 -0.41382,1.9111 l 0,4.22099"/>
<path d="m 312.88765,401.04199 -0.44392,-1.14365 -0.0602,0 c -0.38624,0.48655 -0.78502,0.82513 -1.19633,1.01574 -0.4063,0.1856 -0.938,0.27839 -1.59509,0.27839 -0.80759,0 -1.44462,-0.23073 -1.91111,-0.69221 -0.46148,-0.46147 -0.69221,-1.11857 -0.69221,-1.9713 0,-0.89285 0.31099,-1.54995 0.93298,-1.9713 0.627,-0.42636 1.57001,-0.66211 2.82904,-0.70726 l 1.45966,-0.0451 0,-0.36868 c 0,-0.85272 -0.4364,-1.27908 -1.30918,-1.27909 -0.67215,1e-5 -1.46218,0.20316 -2.37007,0.60945 l -0.75993,-1.54995 c 0.96809,-0.50661 2.04152,-0.75992 3.22029,-0.75993 1.1286,10e-6 1.99386,0.24579 2.59579,0.73735 0.60192,0.49158 0.90288,1.23897 0.90289,2.24217 l 0,5.60541 -1.60262,0 m -0.67717,-3.89745 -0.88783,0.0301 c -0.66714,0.0201 -1.16373,0.14046 -1.48977,0.36116 -0.32604,0.22071 -0.48906,0.55678 -0.48906,1.00822 0,0.64707 0.37118,0.9706 1.11356,0.9706 0.5317,0 0.95555,-0.15299 1.27156,-0.45897 0.32102,-0.30597 0.48154,-0.71227 0.48154,-1.21889 l 0,-0.69221"/>
<path d="m 316.74748,390.45566 c 0,-0.74738 0.41633,-1.12107 1.24899,-1.12108 0.83266,10e-6 1.24899,0.3737 1.249,1.12108 -1e-5,0.35615 -0.10534,0.63454 -0.31601,0.83517 -0.20566,0.19563 -0.51666,0.29345 -0.93299,0.29344 -0.83266,10e-6 -1.24899,-0.37619 -1.24899,-1.12861 m 2.39265,10.58633 -2.29483,0 0,-8.41188 2.29483,0 0,8.41188"/>
<path d="m 323.83514,401.04199 -2.29484,0 0,-11.70741 2.29484,0 0,11.70741"/>
</g>
<g style="fill-rule:evenodd;fill:#f9f9f9">
<path style="opacity:.1" d="m 167.31,270 305.38,0 c 1.27974,0 2.31,0.20204 2.31,0.453 l 0,59.094 c 0,0.25096 -1.03026,0.453 -2.31,0.453 l -305.38,0 c -1.27974,0 -2.31,-0.20204 -2.31,-0.453 l 0,-59.094 c 0,-0.25096 1.03026,-0.453 2.31,-0.453 z"/>
<path style="opacity:.5" d="m 218.00056,301.00067 c 0,9.38886 -7.61118,17.00004 -17.00005,17.00004 -9.38886,0 -17.00004,-7.61118 -17.00004,-17.00004 0,-9.38885 7.61118,-17.00002 17.00004,-17.00002 9.38887,0 17.00005,7.61117 17.00005,17.00002 z"/>
<path style="opacity:.1" d="m 167.31,170 305.38,0 c 1.27974,0 2.31,0.20204 2.31,0.453 l 0,59.094 c 0,0.25096 -1.03026,0.453 -2.31,0.453 l -305.38,0 c -1.27974,0 -2.31,-0.20204 -2.31,-0.453 l 0,-59.094 c 0,-0.25096 1.03026,-0.453 2.31,-0.453 z"/>
<path style="opacity:.5" d="m 218.00056,201.00067 c 0,9.38886 -7.61118,17.00004 -17.00005,17.00004 -9.38886,0 -17.00004,-7.61118 -17.00004,-17.00004 0,-9.38885 7.61118,-17.00002 17.00004,-17.00002 9.38887,0 17.00005,7.61117 17.00005,17.00002 z"/>
</g>
<g style="fill:#dcdcdc;line-height:125%;word-spacing:0;letter-spacing:0">
<path d="m 245.22127,204.89967 -2.28903,0 0,-8.23044 -2.93144,0 0,-1.76367 8.15192,0 0,1.76367 -2.93145,0 0,8.23044"/>
<path d="m 251.44598,201.06472 c -1e-5,0.75652 0.13291,1.32845 0.39874,1.71582 0.27073,0.38736 0.70885,0.58105 1.31435,0.58105 0.60055,0 1.03129,-0.19141 1.29219,-0.57422 0.26582,-0.38736 0.39873,-0.96158 0.39874,-1.72265 -1e-5,-0.7565 -0.13292,-1.32389 -0.39874,-1.70214 -0.26583,-0.37825 -0.70148,-0.56738 -1.30697,-0.56738 -0.60056,0 -1.03376,0.18913 -1.29957,0.56738 -0.26583,0.3737 -0.39875,0.94108 -0.39874,1.70214 m 5.70782,0 c 0,1.24414 -0.35443,2.21712 -1.0633,2.91894 -0.70886,0.70182 -1.69586,1.05273 -2.96098,1.05273 -0.79254,0 -1.49156,-0.15951 -2.09705,-0.47851 -0.60549,-0.32357 -1.07067,-0.78614 -1.39557,-1.3877 -0.32489,-0.60155 -0.48735,-1.30338 -0.48734,-2.10546 -1e-5,-1.24869 0.35196,-2.21939 1.05591,-2.9121 0.70393,-0.6927 1.69339,-1.03905 2.96837,-1.03905 0.79254,0 1.49155,0.15951 2.09705,0.47851 0.60548,0.31901 1.07066,0.77702 1.39557,1.37402 0.32488,0.597 0.48734,1.29654 0.48734,2.09862"/>
<path d="m 263.62218,197.11357 c 0.3052,0 0.55871,0.0205 0.76055,0.0615 l -0.16983,1.95507 c -0.18215,-0.0455 -0.40366,-0.0683 -0.66456,-0.0684 -0.71872,1e-5 -1.2799,0.1709 -1.68355,0.51269 -0.39875,0.3418 -0.59811,0.82031 -0.5981,1.43555 l 0,3.88963 -2.25212,0 0,-7.64256 1.7057,0 0.33228,1.28515 0.11075,0 c 0.25598,-0.42837 0.60056,-0.77245 1.03376,-1.03221 0.43812,-0.26432 0.91315,-0.39648 1.42512,-0.39648"/>
<path d="m 270.50406,197.11357 c 0.3052,0 0.5587,0.0205 0.76054,0.0615 l -0.16983,1.95507 c -0.18214,-0.0455 -0.40366,-0.0683 -0.66456,-0.0684 -0.71871,1e-5 -1.27989,0.1709 -1.68354,0.51269 -0.39875,0.3418 -0.59811,0.82031 -0.59811,1.43555 l 0,3.88963 -2.25212,0 0,-7.64256 1.70571,0 0.33227,1.28515 0.11076,0 c 0.25598,-0.42837 0.60056,-0.77245 1.03376,-1.03221 0.43812,-0.26432 0.91315,-0.39648 1.42512,-0.39648"/>
<path d="m 276.1971,198.59696 c -0.4775,0 -0.85162,0.14128 -1.12236,0.42382 -0.27075,0.278 -0.42581,0.67449 -0.46519,1.18946 l 3.16034,0 c -0.01,-0.51497 -0.15506,-0.91146 -0.43564,-1.18946 -0.28061,-0.28254 -0.65965,-0.42382 -1.13715,-0.42382 m 0.31752,6.43943 c -1.32912,0 -2.3678,-0.33951 -3.11604,-1.01855 -0.74825,-0.67904 -1.12237,-1.64062 -1.12237,-2.88476 0,-1.28059 0.34459,-2.26951 1.03376,-2.96679 0.69409,-0.70181 1.65155,-1.05272 2.87237,-1.05272 1.16666,0 2.07489,0.30762 2.72469,0.92284 0.64979,0.61523 0.97468,1.46517 0.97469,2.54979 l 0,1.01172 -5.32385,0 c 0.0246,0.59245 0.21413,1.05501 0.56856,1.38769 0.35443,0.33269 0.85162,0.49902 1.49156,0.49902 0.49719,0 0.9673,-0.0479 1.41035,-0.14355 0.44303,-0.0957 0.90576,-0.24836 1.38819,-0.45801 l 0,1.61328 c -0.39382,0.18229 -0.81471,0.31674 -1.26266,0.40332 -0.44798,0.0912 -0.99439,0.13672 -1.63925,0.13672"/>
<path d="m 289.34799,204.89967 -2.25211,0 0,-4.46385 c -1e-5,-0.55143 -0.10585,-0.96386 -0.31752,-1.23731 -0.21167,-0.27798 -0.54888,-0.41698 -1.0116,-0.41698 -0.63011,0 -1.08545,0.19596 -1.36604,0.58789 -0.2806,0.38737 -0.42089,1.03222 -0.42089,1.93456 l 0,3.59569 -2.25211,0 0,-7.64256 1.72046,0 0.30274,0.97754 0.12553,0 c 0.25106,-0.36913 0.59564,-0.64713 1.03376,-0.83398 0.44304,-0.1914 0.94514,-0.2871 1.50634,-0.2871 0.95991,0 1.68846,0.24154 2.18566,0.7246 0.49718,0.47852 0.74578,1.17123 0.74578,2.07812 l 0,4.98338"/>
<path d="m 295.15919,203.37526 c 0.39381,0 0.86638,-0.0797 1.41773,-0.23925 l 0,1.55175 c -0.56119,0.23242 -1.25036,0.34863 -2.06752,0.34863 -0.90085,0 -1.55802,-0.20963 -1.97152,-0.6289 -0.40858,-0.42383 -0.61288,-1.05729 -0.61288,-1.90039 l 0,-3.68456 -1.07806,0 0,-0.88183 1.24051,-0.69727 0.64979,-1.61328 1.43988,0 0,1.62695 2.31119,0 0,1.56543 -2.31119,0 0,3.68456 c 0,0.29623 0.0886,0.51497 0.26582,0.65625 0.18214,0.14128 0.42088,0.21191 0.71625,0.21191"/>
<path d="m 305.51893,205.03639 c -2.56964,0 -3.85444,-1.30566 -3.85444,-3.91698 0,-1.29882 0.3495,-2.29003 1.04852,-2.97363 0.69902,-0.68813 1.70077,-1.03221 3.00528,-1.03221 0.955,0 1.81154,0.17318 2.56963,0.51952 l -0.66456,1.61328 c -0.35443,-0.13216 -0.68426,-0.23925 -0.98946,-0.32129 -0.30521,-0.0866 -0.61041,-0.12988 -0.91561,-0.12988 -1.17159,0 -1.75739,0.77018 -1.75738,2.31054 -1e-5,1.49479 0.58579,2.24218 1.75738,2.24218 0.43319,0 0.83439,-0.0524 1.2036,-0.15723 0.36918,-0.10937 0.73838,-0.27799 1.10759,-0.50586 l 0,1.78418 c -0.36429,0.21419 -0.73349,0.3623 -1.10759,0.44433 -0.36921,0.082 -0.83687,0.12305 -1.40296,0.12305"/>
<path d="m 311.72886,201.06472 c 0,0.75652 0.13291,1.32845 0.39873,1.71582 0.27075,0.38736 0.70887,0.58105 1.31436,0.58105 0.60056,0 1.03129,-0.19141 1.29219,-0.57422 0.26583,-0.38736 0.39874,-0.96158 0.39875,-1.72265 -10e-6,-0.7565 -0.13292,-1.32389 -0.39875,-1.70214 -0.26582,-0.37825 -0.70148,-0.56738 -1.30696,-0.56738 -0.60057,0 -1.03376,0.18913 -1.29959,0.56738 -0.26582,0.3737 -0.39873,0.94108 -0.39873,1.70214 m 5.70782,0 c -1e-5,1.24414 -0.35444,2.21712 -1.06329,2.91894 -0.70887,0.70182 -1.69586,1.05273 -2.96098,1.05273 -0.79255,0 -1.49156,-0.15951 -2.09705,-0.47851 -0.60549,-0.32357 -1.07068,-0.78614 -1.39557,-1.3877 -0.3249,-0.60155 -0.48735,-1.30338 -0.48735,-2.10546 0,-1.24869 0.35197,-2.21939 1.05591,-2.9121 0.70394,-0.6927 1.69339,-1.03905 2.96836,-1.03905 0.79255,0 1.49157,0.15951 2.09706,0.47851 0.60548,0.31901 1.07067,0.77702 1.39557,1.37402 0.32489,0.597 0.48733,1.29654 0.48734,2.09862"/>
<path d="m 326.68882,204.89967 -2.25212,0 0,-4.46385 c 0,-0.55143 -0.10092,-0.96386 -0.30274,-1.23731 -0.19691,-0.27798 -0.5095,-0.41698 -0.93777,-0.41698 -0.57595,0 -0.99438,0.19596 -1.25528,0.58789 -0.2609,0.39193 -0.39136,1.03678 -0.39135,1.93456 l 0,3.59569 -2.25211,0 0,-7.64256 1.72046,0 0.30275,0.97754 0.12553,0 c 0.22151,-0.3509 0.54148,-0.62434 0.95991,-0.82031 0.41842,-0.20051 0.89838,-0.30077 1.43988,-0.30077 1.23558,0 2.07243,0.3737 2.51056,1.12108 l 0.19936,0 c 0.22152,-0.35546 0.54641,-0.63117 0.97469,-0.82714 0.43319,-0.19596 0.92053,-0.29394 1.46203,-0.29394 0.9353,0 1.6417,0.2233 2.11921,0.66991 0.4824,0.44206 0.72361,1.153 0.72363,2.13281 l 0,4.98338 -2.25951,0 0,-4.46385 c -10e-6,-0.55143 -0.10092,-0.96386 -0.30274,-1.23731 -0.19691,-0.27798 -0.5095,-0.41698 -0.93776,-0.41698 -0.55135,0 -0.96485,0.18229 -1.24052,0.54686 -0.27075,0.3646 -0.40612,0.94337 -0.40611,1.73633 l 0,3.83495"/>
<path d="m 338.6878,205.03639 c -0.96976,0 -1.73032,-0.32584 -2.28165,-0.97754 l -0.11814,0 c 0.0788,0.63803 0.11814,1.00716 0.11814,1.10742 l 0,3.09667 -2.25211,0 0,-11.00583 1.83122,0 0.31752,0.99121 0.10337,0 c 0.52673,-0.7565 1.30697,-1.13475 2.34073,-1.13475 0.97467,0 1.73769,0.34863 2.28904,1.04588 0.55132,0.69728 0.82699,1.6657 0.827,2.90527 -10e-6,0.81576 -0.13046,1.52441 -0.39136,2.12597 -0.25598,0.60157 -0.62271,1.05957 -1.1002,1.37403 -0.47751,0.31445 -1.03869,0.47167 -1.68356,0.47167 m -0.66456,-6.25486 c -0.55626,0 -0.96238,0.15951 -1.21835,0.47851 -0.25598,0.31446 -0.3889,0.83626 -0.39874,1.56543 l 0,0.22558 c 0,0.82032 0.13045,1.4082 0.39135,1.76367 0.26582,0.35546 0.68424,0.5332 1.25528,0.5332 1.00914,0 1.51371,-0.77018 1.51372,-2.31054 -1e-5,-0.75195 -0.12554,-1.31477 -0.37659,-1.68847 -0.24614,-0.37825 -0.63502,-0.56738 -1.16667,-0.56738"/>
<path d="m 345.9758,204.89967 -2.25212,0 0,-10.63669 2.25212,0 0,10.63669"/>
<path d="m 351.75007,198.59696 c -0.4775,0 -0.85162,0.14128 -1.12236,0.42382 -0.27075,0.278 -0.42581,0.67449 -0.4652,1.18946 l 3.16035,0 c -0.01,-0.51497 -0.15506,-0.91146 -0.43565,-1.18946 -0.2806,-0.28254 -0.65964,-0.42382 -1.13714,-0.42382 m 0.31752,6.43943 c -1.32912,0 -2.36781,-0.33951 -3.11604,-1.01855 -0.74825,-0.67904 -1.12237,-1.64062 -1.12237,-2.88476 0,-1.28059 0.34458,-2.26951 1.03376,-2.96679 0.69409,-0.70181 1.65155,-1.05272 2.87236,-1.05272 1.16667,0 2.0749,0.30762 2.7247,0.92284 0.64979,0.61523 0.97468,1.46517 0.97468,2.54979 l 0,1.01172 -5.32385,0 c 0.0246,0.59245 0.21413,1.05501 0.56857,1.38769 0.35442,0.33269 0.85161,0.49902 1.49156,0.49902 0.49719,0 0.9673,-0.0479 1.41035,-0.14355 0.44303,-0.0957 0.90576,-0.24836 1.38819,-0.45801 l 0,1.61328 c -0.39383,0.18229 -0.81472,0.31674 -1.26267,0.40332 -0.44797,0.0912 -0.99438,0.13672 -1.63924,0.13672"/>
<path d="m 360.75854,203.37526 c 0.39381,0 0.86639,-0.0797 1.41773,-0.23925 l 0,1.55175 c -0.56119,0.23242 -1.25036,0.34863 -2.06751,0.34863 -0.90085,0 -1.55803,-0.20963 -1.97154,-0.6289 -0.40858,-0.42383 -0.61286,-1.05729 -0.61286,-1.90039 l 0,-3.68456 -1.07807,0 0,-0.88183 1.24052,-0.69727 0.64978,-1.61328 1.43988,0 0,1.62695 2.31119,0 0,1.56543 -2.31119,0 0,3.68456 c 0,0.29623 0.0886,0.51497 0.26583,0.65625 0.18213,0.14128 0.42088,0.21191 0.71624,0.21191"/>
<path d="m 367.25645,198.59696 c -0.4775,0 -0.85162,0.14128 -1.12236,0.42382 -0.27076,0.278 -0.42582,0.67449 -0.46519,1.18946 l 3.16034,0 c -0.01,-0.51497 -0.15507,-0.91146 -0.43565,-1.18946 -0.2806,-0.28254 -0.65965,-0.42382 -1.13714,-0.42382 m 0.31751,6.43943 c -1.32912,0 -2.3678,-0.33951 -3.11604,-1.01855 -0.74825,-0.67904 -1.12237,-1.64062 -1.12237,-2.88476 0,-1.28059 0.34459,-2.26951 1.03376,-2.96679 0.6941,-0.70181 1.65155,-1.05272 2.87238,-1.05272 1.16665,0 2.07488,0.30762 2.72469,0.92284 0.64978,0.61523 0.97467,1.46517 0.97468,2.54979 l 0,1.01172 -5.32385,0 c 0.0246,0.59245 0.21413,1.05501 0.56856,1.38769 0.35443,0.33269 0.85162,0.49902 1.49156,0.49902 0.49719,0 0.9673,-0.0479 1.41035,-0.14355 0.44304,-0.0957 0.90576,-0.24836 1.38819,-0.45801 l 0,1.61328 c -0.39382,0.18229 -0.8147,0.31674 -1.26266,0.40332 -0.44797,0.0912 -0.99439,0.13672 -1.63925,0.13672"/>
<path d="m 375.40099,205.03639 c -0.96977,0 -1.73278,-0.34863 -2.28905,-1.04589 -0.55133,-0.69727 -0.827,-1.66341 -0.827,-2.89843 0,-1.25325 0.28059,-2.2285 0.84178,-2.92578 0.5661,-0.70181 1.34388,-1.05272 2.33334,-1.05272 1.03867,0 1.83122,0.3737 2.37764,1.12108 l 0.0739,0 c -0.11322,-0.56965 -0.16983,-1.07778 -0.16983,-1.52441 l 0,-2.44726 2.2595,0 0,10.63669 -1.72785,0 -0.43566,-0.9912 -0.096,0 c -0.51196,0.75195 -1.2922,1.12792 -2.34073,1.12792 m 0.79009,-1.66113 c 0.57595,0 0.99684,-0.15495 1.26266,-0.46484 0.27074,-0.30989 0.41842,-0.83626 0.44304,-1.5791 l 0,-0.22558 c 0,-0.82031 -0.13784,-1.4082 -0.4135,-1.76367 -0.27076,-0.35546 -0.71379,-0.5332 -1.32912,-0.5332 -0.50212,0 -0.89346,0.19825 -1.17406,0.59472 -0.27566,0.39194 -0.4135,0.96387 -0.4135,1.71582 0,0.75196 0.1403,1.31706 0.42089,1.69531 0.28058,0.3737 0.68179,0.56054 1.20359,0.56054"/>
<path d="m 249.7939,305.7941 -2.97518,0 -4.80259,-8.38405 -0.0679,0 c 0.0956,1.48074 0.14347,2.53696 0.14347,3.16866 l 0,5.21539 -2.09169,0 0,-11.08271 2.95253,0 4.79505,8.30066 0.0528,0 c -0.0756,-1.44029 -0.11328,-2.45861 -0.11327,-3.05494 l 0,-5.24572 2.1068,0 0,11.08271"/>
<path d="m 255.88021,298.80487 c -0.48832,1e-5 -0.87091,0.15667 -1.14779,0.46999 -0.27689,0.30828 -0.43546,0.74795 -0.47573,1.31901 l 3.23193,0 c -0.0101,-0.57106 -0.15858,-1.01073 -0.44553,-1.31901 -0.28694,-0.31332 -0.67458,-0.46998 -1.16288,-0.46999 m 0.3247,7.14083 c -1.35923,0 -2.42144,-0.37649 -3.18663,-1.12949 -0.76519,-0.75299 -1.14778,-1.81931 -1.14778,-3.19897 0,-1.42007 0.35239,-2.51673 1.05717,-3.28994 0.70982,-0.77826 1.68896,-1.16739 2.93744,-1.1674 1.19308,1e-5 2.12189,0.34113 2.7864,1.02337 0.6645,0.68225 0.99676,1.62476 0.99677,2.82753 l 0,1.12191 -5.44445,0 c 0.0252,0.65698 0.21899,1.16993 0.58144,1.53885 0.36246,0.36892 0.87091,0.55337 1.52536,0.55337 0.50844,0 0.9892,-0.053 1.44229,-0.15918 0.45306,-0.10613 0.92628,-0.27543 1.41963,-0.5079 l 0,1.78899 c -0.40274,0.20215 -0.83316,0.35124 -1.29126,0.44726 -0.45812,0.10107 -1.01691,0.1516 -1.67638,0.1516"/>
<path d="m 263.26532,301.46563 -2.71844,-4.14654 2.61273,0 1.63861,2.69866 1.65372,-2.69866 2.61273,0 -2.74865,4.14654 2.87703,4.32847 -2.62029,0 -1.77454,-2.90333 -1.78209,2.90333 -2.61273,0 2.86192,-4.32847"/>
<path d="m 274.03339,304.10365 c 0.40273,0 0.88601,-0.0884 1.44984,-0.26532 l 0,1.72077 c -0.5739,0.25774 -1.27868,0.3866 -2.11434,0.3866 -0.92126,0 -1.59332,-0.23246 -2.01619,-0.6974 -0.41783,-0.46999 -0.62676,-1.17245 -0.62676,-2.10738 l 0,-4.08589 -1.10247,0 0,-0.97789 1.2686,-0.77321 0.66452,-1.789 1.47248,0 0,1.80416 2.36354,0 0,1.73594 -2.36354,0 0,4.08589 c 0,0.32849 0.0906,0.57106 0.27185,0.72773 0.18626,0.15666 0.43041,0.235 0.73247,0.235"/>
<path d="m 286.5609,305.7941 -0.44552,-1.15224 -0.0604,0 c -0.38764,0.49021 -0.78786,0.83133 -1.20065,1.02337 -0.40777,0.18699 -0.94139,0.28047 -1.60087,0.28047 -0.8105,0 -1.44983,-0.23246 -1.91801,-0.6974 -0.46314,-0.46493 -0.69472,-1.12697 -0.69472,-1.98609 0,-0.89955 0.31212,-1.56158 0.93636,-1.98609 0.62927,-0.42956 1.57569,-0.66708 2.83927,-0.71258 l 1.46494,-0.0455 0,-0.37145 c 0,-0.85912 -0.43798,-1.28868 -1.31392,-1.28869 -0.67458,1e-5 -1.46746,0.20468 -2.37864,0.61402 l -0.76268,-1.56158 c 0.97159,-0.51041 2.0489,-0.76563 3.23194,-0.76564 1.13268,10e-6 2.00107,0.24765 2.60518,0.74289 0.60409,0.49527 0.90614,1.24827 0.90615,2.259 l 0,5.64748 -1.60842,0 m -0.67961,-3.92671 -0.89104,0.0303 c -0.66956,0.0202 -1.16794,0.14151 -1.49516,0.36387 -0.32721,0.22236 -0.49083,0.56096 -0.49083,1.01579 0,0.65192 0.37253,0.97789 1.11759,0.97788 0.53361,10e-6 0.959,-0.15413 1.27616,-0.46241 0.32218,-0.30828 0.48328,-0.71762 0.48328,-1.22805 l 0,-0.6974"/>
<path d="m 292.83598,305.7941 -2.30313,0 0,-11.79527 2.30313,0 0,11.79527"/>
<path d="m 300.60621,305.7941 -0.44553,-1.15224 -0.0604,0 c -0.38764,0.49021 -0.78785,0.83133 -1.20065,1.02337 -0.40777,0.18699 -0.94139,0.28047 -1.60086,0.28047 -0.8105,0 -1.44984,-0.23246 -1.91802,-0.6974 -0.46314,-0.46493 -0.69471,-1.12697 -0.69471,-1.98609 0,-0.89955 0.31212,-1.56158 0.93635,-1.98609 0.62927,-0.42956 1.57569,-0.66708 2.83927,-0.71258 l 1.46494,-0.0455 0,-0.37145 c -10e-6,-0.85912 -0.43797,-1.28868 -1.31391,-1.28869 -0.67459,1e-5 -1.46746,0.20468 -2.37864,0.61402 l -0.76268,-1.56158 c 0.97159,-0.51041 2.0489,-0.76563 3.23193,-0.76564 1.13268,10e-6 2.00107,0.24765 2.60518,0.74289 0.60409,0.49527 0.90613,1.24827 0.90614,2.259 l 0,5.64748 -1.60841,0 m -0.67961,-3.92671 -0.89105,0.0303 c -0.66954,0.0202 -1.16792,0.14151 -1.49514,0.36387 -0.32723,0.22236 -0.49083,0.56096 -0.49083,1.01579 0,0.65192 0.37252,0.97789 1.11758,0.97788 0.53362,10e-6 0.959,-0.15413 1.27616,-0.46241 0.32218,-0.30828 0.48327,-0.71762 0.48328,-1.22805 l 0,-0.6974"/>
<path d="m 309.29014,297.1599 c 0.31211,1e-5 0.57137,0.0227 0.77778,0.0682 l -0.17368,2.16803 c -0.18627,-0.0505 -0.41281,-0.0758 -0.67961,-0.0758 -0.735,0 -1.30889,0.18952 -1.72169,0.56854 -0.40777,0.37903 -0.61165,0.90967 -0.61165,1.59191 l 0,4.31331 -2.30313,0 0,-8.47501 1.74434,0 0.33981,1.42514 0.11326,0 c 0.26178,-0.47504 0.61417,-0.8566 1.05718,-1.14466 0.44804,-0.29311 0.93383,-0.43966 1.45739,-0.43967"/>
<path d="m 319.17471,305.7941 -2.30313,0 0,-4.95007 c 0,-0.6115 -0.10321,-1.06885 -0.3096,-1.37208 -0.20137,-0.30827 -0.52104,-0.4624 -0.95901,-0.4624 -0.589,0 -1.0169,0.21731 -1.28371,0.65192 -0.26681,0.43462 -0.40022,1.14972 -0.40022,2.14528 l 0,3.98735 -2.30313,0 0,-8.47501 1.75945,0 0.3096,1.08401 0.12837,0 c 0.22653,-0.38912 0.55375,-0.69235 0.98166,-0.90966 0.4279,-0.22235 0.91873,-0.33353 1.47249,-0.33354 1.26357,1e-5 2.11937,0.41441 2.56743,1.2432 l 0.20388,0 c 0.22653,-0.39418 0.55878,-0.69992 0.99676,-0.91724 0.44299,-0.21729 0.94138,-0.32595 1.49515,-0.32596 0.95647,1e-5 1.67888,0.24764 2.1672,0.74288 0.49334,0.49022 0.74001,1.2786 0.74002,2.36513 l 0,5.52619 -2.31067,0 0,-4.95007 c -2e-5,-0.6115 -0.10321,-1.06885 -0.3096,-1.37208 -0.20139,-0.30827 -0.52105,-0.4624 -0.95902,-0.4624 -0.56383,0 -0.9867,0.20214 -1.2686,0.60643 -0.27689,0.40431 -0.41533,1.04612 -0.41532,1.92545 l 0,4.25267"/>
<path d="m 336.18766,305.7941 -0.44553,-1.15224 -0.0604,0 c -0.38764,0.49021 -0.78785,0.83133 -1.20064,1.02337 -0.40778,0.18699 -0.94139,0.28047 -1.60087,0.28047 -0.8105,0 -1.44984,-0.23246 -1.91801,-0.6974 -0.46315,-0.46493 -0.69472,-1.12697 -0.69472,-1.98609 0,-0.89955 0.31212,-1.56158 0.93635,-1.98609 0.62928,-0.42956 1.5757,-0.66708 2.83927,-0.71258 l 1.46495,-0.0455 0,-0.37145 c -10e-6,-0.85912 -0.43798,-1.28868 -1.31392,-1.28869 -0.67458,1e-5 -1.46746,0.20468 -2.37864,0.61402 l -0.76268,-1.56158 c 0.97159,-0.51041 2.0489,-0.76563 3.23193,-0.76564 1.13269,10e-6 2.00107,0.24765 2.60518,0.74289 0.60409,0.49527 0.90615,1.24827 0.90615,2.259 l 0,5.64748 -1.60841,0 m -0.67961,-3.92671 -0.89105,0.0303 c -0.66955,0.0202 -1.16793,0.14151 -1.49515,0.36387 -0.32722,0.22236 -0.49083,0.56096 -0.49083,1.01579 0,0.65192 0.37253,0.97789 1.11759,0.97788 0.53361,10e-6 0.959,-0.15413 1.27615,-0.46241 0.32219,-0.30828 0.48328,-0.71762 0.48329,-1.22805 l 0,-0.6974"/>
<path d="m 343.71624,304.10365 c 0.40273,0 0.88601,-0.0884 1.44984,-0.26532 l 0,1.72077 c -0.5739,0.25774 -1.27868,0.3866 -2.11434,0.3866 -0.92126,0 -1.59332,-0.23246 -2.01619,-0.6974 -0.41783,-0.46999 -0.62675,-1.17245 -0.62675,-2.10738 l 0,-4.08589 -1.10248,0 0,-0.97789 1.2686,-0.77321 0.66452,-1.789 1.47249,0 0,1.80416 2.36353,0 0,1.73594 -2.36353,0 0,4.08589 c 0,0.32849 0.0906,0.57106 0.27184,0.72773 0.18626,0.15666 0.43041,0.235 0.73247,0.235"/>
<path d="m 354.31064,298.7139 c 1.06724,10e-6 1.91549,0.3007 2.54477,0.90208 0.63429,0.60139 0.95145,1.42515 0.95145,2.47125 0,1.23815 -0.38008,2.19076 -1.14024,2.85785 -0.76016,0.66709 -1.84754,1.00062 -3.26213,1.00062 -1.22834,0 -2.22007,-0.19961 -2.97519,-0.59886 l 0,-2.02398 c 0.3977,0.21225 0.86084,0.3866 1.38943,0.52305 0.52858,0.13139 1.02948,0.19709 1.50269,0.19709 1.42467,0 2.13701,-0.58622 2.13701,-1.75868 0,-1.11686 -0.73751,-1.67528 -2.21252,-1.67529 -0.26681,10e-6 -0.5613,0.0278 -0.88349,0.0834 -0.32219,0.0505 -0.58396,0.10614 -0.78533,0.16678 l -0.92881,-0.50032 0.41532,-5.64748 5.98814,0 0,1.9861 -3.94174,0 -0.2039,2.1756 0.26431,-0.053 c 0.30707,-0.0707 0.68715,-0.10612 1.14023,-0.10612"/>
<path d="m 359.37752,304.71008 c 0,-0.4245 0.11327,-0.74541 0.33981,-0.96272 0.22654,-0.21731 0.55627,-0.32596 0.98921,-0.32596 0.41783,0 0.74002,0.11118 0.96656,0.33354 0.23157,0.22236 0.34735,0.54075 0.34736,0.95514 -1e-5,0.39925 -0.11579,0.7151 -0.34736,0.94757 -0.23157,0.22741 -0.55376,0.34112 -0.96656,0.34112 -0.42287,0 -0.75009,-0.11118 -0.98167,-0.33354 -0.23156,-0.22742 -0.34735,-0.54579 -0.34735,-0.95515 m 0,-6.26149 c 0,-0.4245 0.11327,-0.74541 0.33981,-0.96273 0.22654,-0.21729 0.55627,-0.32595 0.98921,-0.32596 0.41783,1e-5 0.74002,0.11119 0.96656,0.33354 0.23157,0.22237 0.34735,0.54075 0.34736,0.95515 -1e-5,0.40935 -0.11831,0.72773 -0.35491,0.95514 -0.23158,0.22237 -0.55125,0.33355 -0.95901,0.33355 -0.42287,0 -0.75009,-0.11118 -0.98167,-0.33355 -0.23156,-0.22235 -0.34735,-0.54074 -0.34735,-0.95514"/>
<path d="m 371.18011,300.25275 c -1e-5,1.93555 -0.31717,3.36827 -0.95146,4.29814 -0.62928,0.92988 -1.60087,1.39481 -2.91478,1.39481 -1.27365,0 -2.23517,-0.48009 -2.88457,-1.44029 -0.64437,-0.9602 -0.96656,-2.37775 -0.96656,-4.25266 0,-1.95577 0.31463,-3.39606 0.9439,-4.32089 0.62927,-0.92987 1.59834,-1.39481 2.90723,-1.39481 1.27363,0 2.23516,0.48515 2.88458,1.45545 0.65443,0.97031 0.98165,2.39039 0.98166,4.26025 m -5.39914,0 c -1e-5,1.35944 0.11578,2.3348 0.34736,2.92608 0.23659,0.58622 0.63177,0.87933 1.18554,0.87933 0.54368,0 0.93635,-0.29817 1.17799,-0.8945 0.24163,-0.59633 0.36245,-1.56663 0.36246,-2.91091 -10e-6,-1.35943 -0.12334,-2.33479 -0.37001,-2.92608 -0.24165,-0.59632 -0.63179,-0.89449 -1.17044,-0.8945 -0.54873,1e-5 -0.94139,0.29818 -1.178,0.8945 -0.23661,0.59129 -0.35491,1.56665 -0.3549,2.92608"/>
<path d="m 379.99995,300.25275 c -1e-5,1.93555 -0.31716,3.36827 -0.95145,4.29814 -0.62928,0.92988 -1.60087,1.39481 -2.91478,1.39481 -1.27364,0 -2.23517,-0.48009 -2.88458,-1.44029 -0.64437,-0.9602 -0.96656,-2.37775 -0.96656,-4.25266 0,-1.95577 0.31464,-3.39606 0.94391,-4.32089 0.62927,-0.92987 1.59835,-1.39481 2.90723,-1.39481 1.27364,0 2.23516,0.48515 2.88457,1.45545 0.65443,0.97031 0.98165,2.39039 0.98166,4.26025 m -5.39914,0 c 0,1.35944 0.11579,2.3348 0.34736,2.92608 0.23661,0.58622 0.63179,0.87933 1.18555,0.87933 0.54369,0 0.93634,-0.29817 1.17799,-0.8945 0.24164,-0.59633 0.36246,-1.56663 0.36246,-2.91091 0,-1.35943 -0.12334,-2.33479 -0.37001,-2.92608 -0.24164,-0.59632 -0.63179,-0.89449 -1.17044,-0.8945 -0.54873,1e-5 -0.9414,0.29818 -1.178,0.8945 -0.2366,0.59129 -0.35491,1.56665 -0.35491,2.92608"/>
</g>
</svg>
