<svg width="640" xmlns="http://www.w3.org/2000/svg" viewBox="0 0 640 480" height="480">
<g style="fill-rule:evenodd">
<rect width="640" x="0" y="0" rx="2.605" height="480" style="fill:#d64937"/>
<rect width="640" x="0" y="0" rx="2.605" height="480" style="fill-opacity:.3"/>
<g style="stroke:#888">
<rect width="200" x="90" y="110" rx="2.447" height="120" style="fill:#2d2d2d"/>
<rect width="200" x="350" y="110" rx="2.447" height="120" style="fill:#dedede"/>
<rect width="200" x="220" y="280" rx="2.447" height="120" style="fill:#f9f9f9"/>
</g>
<rect width="159.018" x="240.491" y="53.045" rx="2.387" height="29.018" style="fill:#f9f9f9;fill-opacity:.2"/>
</g>
<g style="fill:#f9f9f9;letter-spacing:0">
<g style="word-spacing:0;line-height:125%" transform="matrix(.83333 0 0 1 42.66701 0)">
<path style="opacity:.5" d="m 262.76801,69.264795 c -1e-5,0.833863 -0.33852,1.490844 -1.01552,1.970945 -0.67227,0.480102 -1.60966,0.720153 -2.81217,0.720153 -1.10782,0 -2.08783,-0.185303 -2.93999,-0.555908 l 0,-1.819333 c 0.70067,0.277955 1.29246,0.473787 1.77535,0.587493 0.48764,0.11371 0.93266,0.170564 1.33508,0.170562 0.48289,2e-6 0.85217,-0.08212 1.10782,-0.246368 0.26039,-0.164243 0.39058,-0.408505 0.39058,-0.732787 0,-0.181088 -0.0568,-0.341122 -0.17043,-0.480101 -0.11363,-0.143186 -0.2817,-0.280057 -0.5042,-0.410613 -0.21779,-0.130552 -0.66518,-0.339016 -1.34218,-0.625397 -0.63439,-0.265315 -1.11019,-0.520105 -1.42738,-0.764372 -0.3172,-0.244258 -0.57049,-0.528528 -0.75986,-0.852813 -0.18938,-0.324273 -0.28406,-0.7033 -0.28406,-1.137083 0,-0.817008 0.3101,-1.459249 0.93029,-1.926725 0.62492,-0.467458 1.48656,-0.701191 2.58492,-0.701201 0.53971,1e-5 1.05338,0.05687 1.54102,0.170563 0.49236,0.113717 1.00603,0.273751 1.54101,0.480102 l -0.71014,1.522428 c -0.55392,-0.202141 -1.01315,-0.343223 -1.37768,-0.423248 -0.35982,-0.08 -0.71489,-0.120017 -1.06522,-0.120025 -0.41662,8e-6 -0.73618,0.08634 -0.9587,0.259002 -0.22251,0.172676 -0.33377,0.397986 -0.33376,0.675933 -10e-6,0.172675 0.045,0.324286 0.13493,0.454833 0.0899,0.126349 0.23198,0.250585 0.42608,0.372711 0.19884,0.117925 0.66516,0.332708 1.39898,0.644347 0.97053,0.412724 1.6357,0.827548 1.99551,1.244475 0.3598,0.412722 0.53971,0.920198 0.53972,1.522427"/>
<path style="opacity:.5" d="m 267.76742,66.005157 c -0.45923,5e-6 -0.81904,0.130559 -1.07942,0.391662 -0.2604,0.256901 -0.40952,0.623295 -0.44739,1.09918 l 3.03942,0 c -0.009,-0.475885 -0.14914,-0.842279 -0.41899,-1.09918 -0.26987,-0.261103 -0.6344,-0.391657 -1.09362,-0.391662 m 0.30536,5.950736 c -1.27826,0 -2.2772,-0.313751 -2.99681,-0.941253 -0.71961,-0.6275 -1.07942,-1.516108 -1.07942,-2.665828 0,-1.183404 0.3314,-2.097282 0.9942,-2.741634 0.66754,-0.648552 1.58835,-0.972831 2.76247,-0.972838 1.12202,7e-6 1.9955,0.284278 2.62042,0.852813 0.62493,0.568547 0.93739,1.353976 0.9374,2.356288 l 0,0.934935 -5.12014,0 c 0.0236,0.547488 0.20593,0.974947 0.5468,1.282378 0.34088,0.307435 0.81904,0.461151 1.4345,0.46115 0.47815,10e-7 0.93028,-0.04422 1.35637,-0.132659 0.42609,-0.08844 0.87111,-0.229521 1.33508,-0.423248 l 0,1.490843 c -0.37875,0.168456 -0.78354,0.292693 -1.21435,0.37271 -0.43083,0.08423 -0.95633,0.126343 -1.57652,0.126343"/>
<path style="opacity:.5" d="m 278.12843,71.82955 -0.41899,-0.960203 -0.0568,0 c -0.36456,0.408508 -0.74092,0.692778 -1.12914,0.852812 -0.38347,0.155822 -0.88531,0.233734 -1.5055,0.233734 -0.76222,0 -1.36348,-0.193726 -1.80376,-0.581176 -0.43556,-0.38745 -0.65334,-0.939145 -0.65334,-1.655088 0,-0.74963 0.29352,-1.301325 0.88058,-1.655088 0.59178,-0.357966 1.48183,-0.555903 2.67014,-0.59381 l 1.37768,-0.0379 0,-0.30954 c 0,-0.715936 -0.41188,-1.073905 -1.23565,-1.073912 -0.6344,7e-6 -1.38005,0.170569 -2.23695,0.511688 l -0.71725,-1.301328 c 0.91372,-0.425347 1.92686,-0.638024 3.03942,-0.638031 1.06521,7e-6 1.88188,0.206367 2.45,0.619079 0.5681,0.412725 0.85217,1.040226 0.85217,1.882504 l 0,4.706262 -1.5126,0 m -0.63914,-3.272273 -0.83797,0.02527 c -0.62966,0.01685 -1.09836,0.117922 -1.40609,0.303221 -0.30772,0.185306 -0.46159,0.467471 -0.46159,0.846496 0,0.543274 0.35034,0.81491 1.05101,0.814909 0.50184,1e-6 0.90189,-0.128446 1.20015,-0.385344 0.30299,-0.256895 0.45449,-0.59802 0.45449,-1.023376 l 0,-0.581176"/>
<path style="opacity:.5" d="m 286.29508,64.63434 c 0.29352,7e-6 0.53733,0.01896 0.73145,0.05686 l -0.16334,1.806699 c -0.17517,-0.04211 -0.38821,-0.06316 -0.63912,-0.06317 -0.69121,5e-6 -1.23093,0.157933 -1.61913,0.473785 -0.38349,0.31586 -0.57522,0.758059 -0.57522,1.326597 l 0,3.594446 -2.16594,0 0,-7.06255 1.64043,0 0.31957,1.18762 0.10652,0 c 0.24618,-0.395868 0.57758,-0.713829 0.9942,-0.953887 0.42135,-0.244255 0.87821,-0.366387 1.37058,-0.366393"/>
<path style="opacity:.5" d="m 291.70638,71.955893 c -2.47131,0 -3.70695,-1.206571 -3.70695,-3.619715 0,-1.20025 0.33613,-2.116233 1.0084,-2.747951 0.67227,-0.635918 1.63569,-0.95388 2.89029,-0.953887 0.91845,7e-6 1.74221,0.160041 2.4713,0.480102 l -0.63913,1.490842 c -0.34088,-0.122126 -0.65808,-0.221094 -0.95159,-0.296905 -0.29353,-0.08001 -0.58706,-0.12002 -0.88058,-0.120025 -1.12677,5e-6 -1.69015,0.711734 -1.69014,2.135189 -1e-5,1.381348 0.56337,2.07202 1.69014,2.072019 0.41661,10e-7 0.80245,-0.04843 1.15753,-0.145294 0.35507,-0.101072 0.71014,-0.256895 1.06522,-0.467468 l 0,1.64877 c -0.35034,0.197938 -0.70542,0.334809 -1.06522,0.410614 -0.35508,0.0758 -0.80483,0.113709 -1.34927,0.113709"/>
<path style="opacity:.5" d="m 303.28173,71.82955 -2.16594,0 0,-4.125086 c -1e-5,-1.019158 -0.42609,-1.528739 -1.27826,-1.528745 -0.60599,6e-6 -1.04392,0.183203 -1.31377,0.549591 -0.26985,0.366398 -0.40478,0.960208 -0.40478,1.78143 l 0,3.32281 -2.16594,0 0,-9.829453 2.16594,0 0,2.00253 c 0,0.15583 -0.0166,0.522223 -0.0497,1.09918 l -0.0497,0.568542 0.11363,0 c 0.48288,-0.690666 1.24984,-1.036002 2.30086,-1.036009 0.93265,7e-6 1.64043,0.223212 2.12333,0.669615 0.48289,0.446417 0.72434,1.086552 0.72435,1.920408 l 0,4.605187"/>
<path style="opacity:.5" d="m 305.22043,70.9262 c 0,-0.353757 0.10652,-0.621182 0.31956,-0.802275 0.21304,-0.181089 0.52314,-0.271635 0.93029,-0.271637 0.39294,2e-6 0.69594,0.09265 0.90898,0.277955 0.21778,0.185303 0.32666,0.450623 0.32667,0.795957 -1e-5,0.332704 -0.10889,0.595917 -0.32667,0.789642 -0.21778,0.189513 -0.52078,0.28427 -0.90898,0.28427 -0.39769,0 -0.70541,-0.09265 -0.92319,-0.277953 -0.21778,-0.189513 -0.32666,-0.454833 -0.32666,-0.795959"/>
<path style="opacity:.5" d="m 309.36767,70.9262 c 0,-0.353757 0.10652,-0.621182 0.31956,-0.802275 0.21304,-0.181089 0.52314,-0.271635 0.93029,-0.271637 0.39294,2e-6 0.69594,0.09265 0.90898,0.277955 0.21778,0.185303 0.32667,0.450623 0.32668,0.795957 -1e-5,0.332704 -0.1089,0.595917 -0.32668,0.789642 -0.21777,0.189513 -0.52076,0.28427 -0.90898,0.28427 -0.39768,0 -0.70541,-0.09265 -0.92319,-0.277953 -0.21778,-0.189513 -0.32666,-0.454833 -0.32666,-0.795959"/>
<path style="opacity:.5" d="m 313.51491,70.9262 c -10e-6,-0.353757 0.10651,-0.621182 0.31957,-0.802275 0.21304,-0.181089 0.52313,-0.271635 0.93029,-0.271637 0.39294,2e-6 0.69593,0.09265 0.90898,0.277955 0.21778,0.185303 0.32666,0.450623 0.32666,0.795957 0,0.332704 -0.10888,0.595917 -0.32666,0.789642 -0.21778,0.189513 -0.52078,0.28427 -0.90898,0.28427 -0.39769,0 -0.70542,-0.09265 -0.92319,-0.277953 -0.21778,-0.189513 -0.32668,-0.454833 -0.32667,-0.795959"/>
</g>
<g style="fill-rule:evenodd">
<g>
<path style="opacity:.5" d="m 377,62 c -2.76142,0 -5,2.238576 -5,5 0,2.761424 2.23858,5 5,5 1.13031,0 2.16255,-0.367537 3,-1 l 1,1 1,-1 -1,-1 c 0.63246,-0.837449 1,-1.869684 1,-3 0,-2.761424 -2.23858,-5 -5,-5 z m 0,2 c 1.65685,0 3,1.343146 3,3 0,1.656854 -1.34315,3 -3,3 -1.65685,0 -3,-1.343146 -3,-3 0,-1.656854 1.34315,-3 3,-3 z"/>
</g>
<g transform="translate(1.49967)">
<path style="opacity:.5" d="m 222.00106,451.01014 a 17.000093,16.999963 0 0 1 -34.00018,0 17.000093,16.999963 0 1 1 34.00018,0 z"/>
<path style="opacity:.5" d="m 268.00106,451.01014 a 17.000093,16.999963 0 0 1 -34.00018,0 17.000093,16.999963 0 1 1 34.00018,0 z"/>
<path style="opacity:.5" d="m 314.00105,451.01014 a 17.000093,16.999963 0 0 1 -34.00018,0 17.000093,16.999963 0 1 1 34.00018,0 z"/>
<path style="opacity:.5" d="m 360.00105,451.01014 a 17.000093,16.999963 0 0 1 -34.00018,0 17.000093,16.999963 0 1 1 34.00018,0 z"/>
<path style="opacity:.5" d="m 406.00105,451.01014 a 17.000093,16.999963 0 0 1 -34.00018,0 17.000093,16.999963 0 1 1 34.00018,0 z"/>
</g>
</g>
</g>
<g style="fill:#d64937" transform="translate(1.49967)">
<path d="m 238,476 24,0 0,4 -24,0 z"/>
<path d="m 285,476 24,0 0,4 -24,0 z"/>
<path d="m 194,476 24,0 0,4 -24,0 z"/>
</g>
<g style="fill-rule:evenodd">
<g style="fill:#f9f9f9" transform="translate(1.49967)">
<path style="opacity:.4" d="m 428.99977,461 c 0,2.20914 -1.79086,4 -3.99999,4 -2.20914,0 -4,-1.79086 -4,-4 0,-2.20914 1.79086,-4 4,-4 2.20913,0 3.99999,1.79086 3.99999,4 z"/>
<path style="opacity:.4" d="m 428.99977,451 c 0,2.20914 -1.79086,4 -3.99999,4 -2.20914,0 -4,-1.79086 -4,-4 0,-2.20914 1.79086,-4 4,-4 2.20913,0 3.99999,1.79086 3.99999,4 z"/>
<path style="opacity:.4" d="m 428.99977,441 c 0,2.20914 -1.79086,4 -3.99999,4 -2.20914,0 -4,-1.79086 -4,-4 0,-2.20914 1.79086,-4 4,-4 2.20913,0 3.99999,1.79086 3.99999,4 z"/>
<path style="opacity:.4" d="m 438.99978,461 c 0,2.20914 -1.79086,4 -3.99999,4 -2.20914,0 -4,-1.79086 -4,-4 0,-2.20914 1.79086,-4 4,-4 2.20913,0 3.99999,1.79086 3.99999,4 z"/>
<path style="opacity:.4" d="m 438.99978,451 c 0,2.20914 -1.79086,4 -3.99999,4 -2.20914,0 -4,-1.79086 -4,-4 0,-2.20914 1.79086,-4 4,-4 2.20913,0 3.99999,1.79086 3.99999,4 z"/>
<path style="opacity:.4" d="m 438.99978,441 c 0,2.20914 -1.79086,4 -3.99999,4 -2.20914,0 -4,-1.79086 -4,-4 0,-2.20914 1.79086,-4 4,-4 2.20913,0 3.99999,1.79086 3.99999,4 z"/>
<path style="opacity:.4" d="m 448.99978,461 c 0,2.20914 -1.79086,4 -3.99999,4 -2.20914,0 -4,-1.79086 -4,-4 0,-2.20914 1.79086,-4 4,-4 2.20913,0 3.99999,1.79086 3.99999,4 z"/>
<path style="opacity:.4" d="m 448.99978,451 c 0,2.20914 -1.79086,4 -3.99999,4 -2.20914,0 -4,-1.79086 -4,-4 0,-2.20914 1.79086,-4 4,-4 2.20913,0 3.99999,1.79086 3.99999,4 z"/>
<path style="opacity:.4" d="m 448.99978,441 c 0,2.20914 -1.79086,4 -3.99999,4 -2.20914,0 -4,-1.79086 -4,-4 0,-2.20914 1.79086,-4 4,-4 2.20913,0 3.99999,1.79086 3.99999,4 z"/>
</g>
<g>
<path style="fill:#2d2d2d" d="M 352.4375,110 C 351.08186,110 350,111.08186 350,112.4375 l 0,17.5625 200,0 0,-17.5625 C 550,111.08186 548.91814,110 547.5625,110 l -195.125,0 z"/>
<path style="fill:#f9f9f9" d="m 410,130 0,100 137.5625,0 C 548.91814,230 550,228.91814 550,227.5625 L 550,130 410,130 z"/>
<path style="fill:#2d2d2d" d="M 222.4375,280 C 221.08186,280 220,281.08186 220,282.4375 l 0,17.5625 200,0 0,-17.5625 C 420,281.08186 418.91814,280 417.5625,280 l -195.125,0 z"/>
</g>
</g>
<g style="fill:none;stroke:#888">
<rect width="200" x="350" y="110" rx="2.447" height="120"/>
<rect width="200" x="220" y="280" rx="2.447" height="120"/>
</g>
<g style="word-spacing:0;line-height:125%;fill:#dcdcdc;fill-opacity:.941">
<g style="fill-rule:evenodd">
<path d="m 19.999898,14.99996 a 4.9999681,4.9999886 0 1 1 -9.9999358,0 4.9999681,4.9999886 0 1 1 9.9999358,0 z"/>
<path d="m 33.999898,14.99996 a 4.9999681,4.9999886 0 1 1 -9.999936,0 4.9999681,4.9999886 0 1 1 9.999936,0 z"/>
<path d="m 47.999898,14.99996 a 4.9999681,4.9999886 0 1 1 -9.999936,0 4.9999681,4.9999886 0 1 1 9.999936,0 z"/>
</g>
<g style="letter-spacing:0">
<path d="m 630,12 -10,0 5,6 z"/>
<path d="m 601,10 0,10 -5,-3 -2,0 0,-4 2,0 z"/>
<path d="m 603,18 0,2 2,0 0,-2 z"/>
<path d="m 603,14 0,2 2,0 0,-2 z"/>
<path d="m 603,10 0,2 2,0 0,-2 z"/>
<path d="m 570,10 1.5,2 12,0 1.5,-2 -15,0 z m 3,4 1.5,2 6,0 1.5,-2 -9,0 z m 3,4 1.5,2 1.5,-2 -3,0 z"/>
<path d="m 294.50213,19.821398 -1.9739,0 0,-7.962949 -2.52786,0 0,-1.706346 7.02962,0 0,1.706346 -2.52786,0 0,7.962949"/>
<path d="m 303.36556,19.821398 -0.26106,-0.945765 -0.10188,0 c -0.20801,0.343916 -0.50303,0.61067 -0.88507,0.800263 -0.38205,0.185186 -0.81715,0.277777 -1.30532,0.277778 -0.83626,-1e-6 -1.46663,-0.231482 -1.89112,-0.694443 -0.42449,-0.467371 -0.63675,-1.137563 -0.63675,-2.01058 l 0,-4.821419 1.94206,0 0,4.318775 c 0,0.533512 0.0913,0.934745 0.27381,1.203702 0.18253,0.264552 0.4733,0.396826 0.87233,0.396824 0.54335,2e-6 0.93601,-0.187388 1.17797,-0.562167 0.24196,-0.379187 0.36294,-1.005288 0.36294,-1.878305 l 0,-3.478829 1.94206,0 0,7.394166 -1.48997,0"/>
<path d="m 309.85395,13.723526 c -0.41176,6e-6 -0.73438,0.136689 -0.96785,0.410052 -0.23348,0.268964 -0.36719,0.652561 -0.40114,1.150791 l 2.72524,0 c -0.009,-0.49823 -0.13372,-0.881827 -0.37567,-1.150791 -0.24196,-0.273363 -0.56883,-0.410046 -0.98058,-0.410052 m 0.27379,6.230148 c -1.14613,-1e-6 -2.04181,-0.328483 -2.68704,-0.985448 -0.64523,-0.656964 -0.96785,-1.587297 -0.96785,-2.791001 0,-1.238971 0.29715,-2.195758 0.89144,-2.870366 0.59853,-0.679004 1.42417,-1.018509 2.47692,-1.018516 1.00605,7e-6 1.78924,0.297625 2.34957,0.892855 0.56033,0.595244 0.8405,1.417552 0.8405,2.466928 l 0,0.978834 -4.5909,0 c 0.0212,0.573194 0.18465,1.020723 0.4903,1.34259 0.30562,0.32187 0.73437,0.482805 1.28621,0.482804 0.42874,1e-6 0.83412,-0.0463 1.21617,-0.138889 0.38204,-0.09259 0.78107,-0.240298 1.19707,-0.443121 l 0,1.560844 c -0.3396,0.176366 -0.70253,0.306437 -1.08882,0.39021 -0.38629,0.08819 -0.85748,0.132275 -1.41357,0.132276"/>
<path d="m 323.97049,14.986751 c -10e-6,1.688713 -0.26743,2.938709 -0.8023,3.749993 -0.53062,0.811287 -1.34989,1.216929 -2.45781,1.21693 -1.07398,-1e-6 -1.88475,-0.41887 -2.43235,-1.256612 -0.54335,-0.837739 -0.81503,-2.074508 -0.81503,-3.710311 0,-1.70634 0.26531,-2.962951 0.79593,-3.769835 0.53061,-0.811277 1.34776,-1.2169197 2.45145,-1.2169296 1.07396,9.9e-6 1.88474,0.4232896 2.43235,1.2698396 0.55184,0.846567 0.82775,2.08554 0.82776,3.716925 m -4.5527,0 c 0,1.186069 0.0976,2.037036 0.29291,2.552905 0.19951,0.511466 0.53273,0.767196 0.99968,0.767195 0.45845,10e-7 0.78955,-0.260139 0.99331,-0.780421 0.20376,-0.52028 0.30564,-1.366838 0.30564,-2.539679 0,-1.18606 -0.10401,-2.037027 -0.312,-2.552906 -0.20376,-0.520273 -0.53275,-0.780414 -0.98695,-0.780422 -0.4627,8e-6 -0.7938,0.260149 -0.99331,0.780422 -0.19952,0.515879 -0.29928,1.366846 -0.29928,2.552906"/>
<path d="m 329.81577,19.821398 -1.96753,0 0,-5.595228 0.0191,-0.919311 0.0318,-1.005289 c -0.32686,0.339513 -0.55397,0.562175 -0.68131,0.667988 l -1.06972,0.892856 -0.94875,-1.230157 2.99905,-2.480154 1.61732,0 0,9.669295"/>
<path d="m 332.61107,18.875633 c 0,-0.370369 0.0955,-0.65035 0.28653,-0.839946 0.19102,-0.189592 0.46906,-0.284388 0.83412,-0.28439 0.35233,2e-6 0.62401,0.097 0.81504,0.291004 0.19526,0.194005 0.2929,0.471782 0.2929,0.833332 0,0.348325 -0.0976,0.623897 -0.2929,0.826718 -0.19527,0.198413 -0.46695,0.297619 -0.81504,0.297619 -0.35656,0 -0.63249,-0.097 -0.82776,-0.291005 -0.19526,-0.198411 -0.29289,-0.476188 -0.29289,-0.833332 m 0,-5.462954 c 0,-0.370363 0.0955,-0.650344 0.28653,-0.839945 0.19102,-0.189587 0.46906,-0.284384 0.83412,-0.284391 0.35233,7e-6 0.62401,0.097 0.81504,0.291004 0.19526,0.194011 0.2929,0.471788 0.2929,0.833332 0,0.357148 -0.0998,0.634925 -0.29927,0.833332 -0.19527,0.194009 -0.46482,0.29101 -0.80867,0.291005 -0.35656,5e-6 -0.63249,-0.09699 -0.82776,-0.291005 -0.19526,-0.193997 -0.29289,-0.471774 -0.29289,-0.833332"/>
<path d="m 342.56332,14.986751 c 0,1.688713 -0.26744,2.938709 -0.80229,3.749993 -0.53062,0.811287 -1.34989,1.216929 -2.45782,1.21693 -1.07397,-1e-6 -1.88475,-0.41887 -2.43235,-1.256612 -0.54335,-0.837739 -0.81503,-2.074508 -0.81503,-3.710311 0,-1.70634 0.26531,-2.962951 0.79592,-3.769835 0.53063,-0.811277 1.34777,-1.2169197 2.45146,-1.2169296 1.07397,9.9e-6 1.88475,0.4232896 2.43235,1.2698396 0.55184,0.846567 0.82776,2.08554 0.82776,3.716925 m -4.55269,0 c -10e-6,1.186069 0.0976,2.037036 0.2929,2.552905 0.1995,0.511466 0.53273,0.767196 0.99968,0.767195 0.45845,10e-7 0.78956,-0.260139 0.99331,-0.780421 0.20376,-0.52028 0.30564,-1.366838 0.30564,-2.539679 0,-1.18606 -0.104,-2.037027 -0.31201,-2.552906 -0.20375,-0.520273 -0.53274,-0.780414 -0.98694,-0.780422 -0.4627,8e-6 -0.79381,0.260149 -0.99331,0.780422 -0.19952,0.515879 -0.29928,1.366846 -0.29927,2.552906"/>
<path d="m 350.00045,14.986751 c -10e-6,1.688713 -0.26743,2.938709 -0.80229,3.749993 -0.53062,0.811287 -1.34989,1.216929 -2.45782,1.21693 -1.07398,-1e-6 -1.88475,-0.41887 -2.43235,-1.256612 -0.54335,-0.837739 -0.81502,-2.074508 -0.81502,-3.710311 0,-1.70634 0.2653,-2.962951 0.79592,-3.769835 0.53061,-0.811277 1.34776,-1.2169197 2.45145,-1.2169296 1.07397,9.9e-6 1.88474,0.4232896 2.43235,1.2698396 0.55184,0.846567 0.82775,2.08554 0.82776,3.716925 m -4.5527,0 c 0,1.186069 0.0976,2.037036 0.29291,2.552905 0.19951,0.511466 0.53273,0.767196 0.99968,0.767195 0.45845,10e-7 0.78956,-0.260139 0.99331,-0.780421 0.20376,-0.52028 0.30564,-1.366838 0.30564,-2.539679 0,-1.18606 -0.104,-2.037027 -0.312,-2.552906 -0.20376,-0.520273 -0.53275,-0.780414 -0.98695,-0.780422 -0.4627,8e-6 -0.7938,0.260149 -0.99331,0.780422 -0.19952,0.515879 -0.29928,1.366846 -0.29928,2.552906"/>
</g>
</g>
<g style="fill:#f9f9f9;fill-rule:evenodd">
<path style="opacity:.3" d="M 40.000082,-1.8672226e-5 C 40.000082,-22.091441 22.091444,-40.000079 1.803187e-5,-40.000079 -22.091408,-40.000079 -40.000047,-22.091441 -40.000047,-1.8672226e-5 -40.000047,22.091404 -22.091408,40.00004 1.803187e-5,40.00004 22.091444,40.00004 40.000082,22.091404 40.000082,-1.8672226e-5 z"/>
<path style="opacity:.4" d="M 20.000036,-9.336113e-6 C 20.000036,-11.04572 11.045717,-20.000039 4.015935e-6,-20.000039 -11.045709,-20.000039 -20.000029,-11.04572 -20.000029,-9.336113e-6 -20.000029,11.045702 -11.045709,20.00002 4.015935e-6,20.00002 11.045717,20.00002 20.000036,11.045702 20.000036,-9.336113e-6 z"/>
</g>
</svg>
