<svg width="640" xmlns="http://www.w3.org/2000/svg" viewBox="0 0 640 480" height="480">
<g style="fill-rule:evenodd">
<rect width="640" x="0" y="0" rx="2.605" height="480" style="fill:#d64937"/>
<rect width="640" x="0" y="0" rx="2.605" height="480" style="fill-opacity:.3"/>
<rect width="200" x="90" y="110" rx="2.447" height="120" style="stroke-opacity:.5;fill:#2d2d2d;stroke:#f9f9f9;stroke-width:4"/>
</g>
<g style="fill:#f9f9f9;letter-spacing:0">
<g transform="matrix(1.00618 0 0 1.03384 -1.97613 -10.7771)">
<rect width="159.018" x="240.491" y="53.045" rx="2.387" height="29.018" style="fill-rule:evenodd;fill-opacity:.2"/>
</g>
<g style="word-spacing:0">
<g style="line-height:125%" transform="matrix(1.00618 0 0 1.03384 -1.97613 -10.7771)">
<path style="opacity:.5" d="m 261.63948,69.264795 c -10e-6,0.833863 -0.2821,1.490844 -0.84627,1.970945 -0.56022,0.480102 -1.34138,0.720153 -2.34346,0.720153 -0.92318,0 -1.73985,-0.185303 -2.44999,-0.555908 l 0,-1.819333 c 0.58389,0.277955 1.07705,0.473787 1.47946,0.587493 0.40636,0.11371 0.77721,0.170564 1.11256,0.170562 0.40241,2e-6 0.71014,-0.08212 0.92318,-0.246368 0.21699,-0.164243 0.32548,-0.408505 0.32548,-0.732787 0,-0.181088 -0.0473,-0.341122 -0.14202,-0.480101 -0.0947,-0.143186 -0.23475,-0.280057 -0.42017,-0.410613 -0.18149,-0.130552 -0.55431,-0.339016 -1.11848,-0.625397 -0.52865,-0.265315 -0.92515,-0.520105 -1.18948,-0.764372 -0.26433,-0.244258 -0.4754,-0.528528 -0.63321,-0.852813 -0.15782,-0.324273 -0.23672,-0.7033 -0.23672,-1.137083 0,-0.817008 0.25842,-1.459249 0.77524,-1.926725 0.52077,-0.467458 1.2388,-0.701191 2.15409,-0.701201 0.44976,1e-5 0.87782,0.05687 1.28418,0.170563 0.4103,0.113717 0.83836,0.273751 1.28417,0.480102 l -0.59178,1.522428 c -0.4616,-0.202141 -0.84429,-0.343223 -1.14806,-0.423248 -0.29985,-0.08 -0.59574,-0.120017 -0.88768,-0.120025 -0.34718,8e-6 -0.61348,0.08634 -0.79891,0.259002 -0.18543,0.172676 -0.27814,0.397986 -0.27814,0.675933 0,0.172675 0.0375,0.324286 0.11245,0.454833 0.0749,0.126349 0.19331,0.250585 0.35506,0.372711 0.1657,0.117925 0.5543,0.332708 1.16581,0.644347 0.80877,0.412724 1.36308,0.827548 1.66292,1.244475 0.29983,0.412722 0.44976,0.920198 0.44977,1.522427"/>
<path style="opacity:.5" d="m 265.80563,66.005157 c -0.38269,5e-6 -0.68253,0.130559 -0.89951,0.391662 -0.217,0.256901 -0.34126,0.623295 -0.37282,1.09918 l 2.53284,0 c -0.007,-0.475885 -0.12429,-0.842279 -0.34916,-1.09918 -0.22489,-0.261103 -0.52866,-0.391657 -0.91135,-0.391662 m 0.25447,5.950736 c -1.06521,0 -1.89766,-0.313751 -2.49733,-0.941253 -0.59967,-0.6275 -0.89951,-1.516108 -0.89951,-2.665828 0,-1.183404 0.27616,-2.097282 0.82849,-2.741634 0.55628,-0.648552 1.32362,-0.972831 2.30205,-0.972838 0.93501,7e-6 1.66291,0.284278 2.18368,0.852813 0.52077,0.568547 0.78115,1.353976 0.78116,2.356288 l 0,0.934935 -4.26677,0 c 0.0197,0.547488 0.17161,0.974947 0.45567,1.282378 0.28406,0.307435 0.68253,0.461151 1.19541,0.46115 0.39846,10e-7 0.77523,-0.04422 1.1303,-0.132659 0.35508,-0.08844 0.72593,-0.229521 1.11257,-0.423248 l 0,1.490843 c -0.31563,0.168456 -0.65295,0.292693 -1.01196,0.37271 -0.35902,0.08423 -0.79694,0.126343 -1.31376,0.126343"/>
<path style="opacity:.5" d="m 274.43977,71.82955 -0.34915,-0.960203 -0.0473,0 c -0.30379,0.408508 -0.61743,0.692778 -0.94094,0.852812 -0.31956,0.155822 -0.73776,0.233734 -1.25458,0.233734 -0.63518,0 -1.13623,-0.193726 -1.50313,-0.581176 -0.36296,-0.38745 -0.54445,-0.939145 -0.54445,-1.655088 0,-0.74963 0.2446,-1.301325 0.73382,-1.655088 0.49315,-0.357966 1.23485,-0.555903 2.22511,-0.59381 l 1.14806,-0.0379 0,-0.30954 c 0,-0.715936 -0.34323,-1.073905 -1.02971,-1.073912 -0.52866,7e-6 -1.15003,0.170569 -1.86411,0.511688 l -0.59771,-1.301328 c 0.76143,-0.425347 1.60571,-0.638024 2.53284,-0.638031 0.88767,7e-6 1.56823,0.206367 2.04166,0.619079 0.47341,0.412725 0.71014,1.040226 0.71014,1.882504 l 0,4.706262 -1.2605,0 m -0.53261,-3.272273 -0.69831,0.02527 c -0.52471,0.01685 -0.91529,0.117922 -1.17173,0.303221 -0.25644,0.185306 -0.38466,0.467471 -0.38466,0.846496 0,0.543274 0.29195,0.81491 0.87584,0.814909 0.4182,1e-6 0.75157,-0.128446 1.00012,-0.385344 0.25249,-0.256895 0.37874,-0.59802 0.37874,-1.023376 l 0,-0.581176"/>
<path style="opacity:.5" d="m 281.24529,64.63434 c 0.2446,7e-6 0.44777,0.01896 0.60954,0.05686 l -0.13612,1.806699 c -0.14597,-0.04211 -0.3235,-0.06316 -0.5326,-0.06317 -0.576,5e-6 -1.02577,0.157933 -1.34927,0.473785 -0.31957,0.31586 -0.47934,0.758059 -0.47934,1.326597 l 0,3.594446 -1.80495,0 0,-7.06255 1.36702,0 0.26631,1.18762 0.0888,0 c 0.20515,-0.395868 0.48131,-0.713829 0.82849,-0.953887 0.35113,-0.244255 0.73184,-0.366387 1.14215,-0.366393"/>
<path style="opacity:.5" d="m 285.75469,71.955893 c -2.05942,0 -3.08911,-1.206571 -3.08911,-3.619715 0,-1.20025 0.2801,-2.116233 0.84032,-2.747951 0.56023,-0.635918 1.36307,-0.95388 2.40857,-0.953887 0.76537,7e-6 1.45184,0.160041 2.05941,0.480102 l -0.53261,1.490842 c -0.28406,-0.122126 -0.5484,-0.221094 -0.79299,-0.296905 -0.2446,-0.08001 -0.48921,-0.12002 -0.73381,-0.120025 -0.93897,5e-6 -1.40845,0.711734 -1.40844,2.135189 -1e-5,1.381348 0.46947,2.07202 1.40844,2.072019 0.34717,10e-7 0.66871,-0.04843 0.9646,-0.145294 0.2959,-0.101072 0.59179,-0.256895 0.88768,-0.467468 l 0,1.64877 c -0.29194,0.197938 -0.58784,0.334809 -0.88768,0.410614 -0.29589,0.0758 -0.67068,0.113709 -1.12438,0.113709"/>
<path style="opacity:.5" d="m 295.40077,71.82955 -1.80494,0 0,-4.125086 c -10e-6,-1.019158 -0.35507,-1.528739 -1.06521,-1.528745 -0.50499,6e-6 -0.86993,0.183203 -1.09481,0.549591 -0.22487,0.366398 -0.33731,0.960208 -0.33731,1.78143 l 0,3.32281 -1.80494,0 0,-9.829453 1.80494,0 0,2.00253 c 0,0.15583 -0.0138,0.522223 -0.0414,1.09918 l -0.0414,0.568542 0.0947,0 c 0.4024,-0.690666 1.04153,-1.036002 1.91737,-1.036009 0.77721,7e-6 1.36702,0.223212 1.76944,0.669615 0.4024,0.446417 0.60361,1.086552 0.60362,1.920408 l 0,4.605187"/>
<path style="opacity:.5" d="m 297.01635,70.9262 c 0,-0.353757 0.0888,-0.621182 0.2663,-0.802275 0.17753,-0.181089 0.43595,-0.271635 0.77524,-0.271637 0.32745,2e-6 0.57995,0.09265 0.75748,0.277955 0.18148,0.185303 0.27221,0.450623 0.27222,0.795957 -10e-6,0.332704 -0.0907,0.595917 -0.27222,0.789642 -0.18148,0.189513 -0.43398,0.28427 -0.75748,0.28427 -0.33141,0 -0.58784,-0.09265 -0.76932,-0.277953 -0.18149,-0.189513 -0.27222,-0.454833 -0.27222,-0.795959"/>
<path style="opacity:.5" d="m 300.47237,70.9262 c 0,-0.353757 0.0888,-0.621182 0.2663,-0.802275 0.17753,-0.181089 0.43595,-0.271635 0.77524,-0.271637 0.32745,2e-6 0.57995,0.09265 0.75748,0.277955 0.18148,0.185303 0.27222,0.450623 0.27223,0.795957 -10e-6,0.332704 -0.0907,0.595917 -0.27223,0.789642 -0.18148,0.189513 -0.43397,0.28427 -0.75748,0.28427 -0.3314,0 -0.58784,-0.09265 -0.76932,-0.277953 -0.18149,-0.189513 -0.27222,-0.454833 -0.27222,-0.795959"/>
<path style="opacity:.5" d="m 303.92839,70.9262 c -10e-6,-0.353757 0.0888,-0.621182 0.26631,-0.802275 0.17753,-0.181089 0.43594,-0.271635 0.77524,-0.271637 0.32744,2e-6 0.57994,0.09265 0.75748,0.277955 0.18148,0.185303 0.27221,0.450623 0.27221,0.795957 0,0.332704 -0.0907,0.595917 -0.27221,0.789642 -0.18149,0.189513 -0.43399,0.28427 -0.75748,0.28427 -0.33141,0 -0.58785,-0.09265 -0.76933,-0.277953 -0.18148,-0.189513 -0.27223,-0.454833 -0.27222,-0.795959"/>
</g>
<g transform="matrix(1.00618 0 0 1.03384 -1.97613 -10.7771)">
<path style="opacity:.5;fill-rule:evenodd" d="m 377,62 c -2.76142,0 -5,2.238576 -5,5 0,2.761424 2.23858,5 5,5 1.13031,0 2.16255,-0.367537 3,-1 l 1,1 1,-1 -1,-1 c 0.63246,-0.837449 1,-1.869684 1,-3 0,-2.761424 -2.23858,-5 -5,-5 z m 0,2 c 1.65685,0 3,1.343146 3,3 0,1.656854 -1.34315,3 -3,3 -1.65685,0 -3,-1.343146 -3,-3 0,-1.656854 1.34315,-3 3,-3 z"/>
</g>
</g>
</g>
<g style="fill-rule:evenodd">
<rect width="200" x="350" y="110" rx="2.447" height="120" style="fill:#dedede;stroke:#888"/>
<path style="fill:#2d2d2d" d="M 352.4375,110 C 351.08186,110 350,111.08186 350,112.4375 l 0,17.5625 200,0 0,-17.5625 C 550,111.08186 548.91814,110 547.5625,110 l -195.125,0 z"/>
<path style="fill:#f9f9f9" d="m 410,130 0,100 137.5625,0 C 548.91814,230 550,228.91814 550,227.5625 L 550,130 410,130 z"/>
</g>
<rect width="200" x="350" y="110" rx="2.447" height="120" style="fill:none;stroke:#888"/>
<g style="fill-rule:evenodd">
<rect width="200" x="220" y="280" rx="2.447" height="120" style="fill:#f9f9f9;stroke:#888"/>
<path style="fill:#2d2d2d" d="M 222.4375,280 C 221.08186,280 220,281.08186 220,282.4375 l 0,17.5625 200,0 0,-17.5625 C 420,281.08186 418.91814,280 417.5625,280 l -195.125,0 z"/>
</g>
<rect width="200" x="220" y="280" rx="2.447" height="120" style="fill:none;stroke:#888"/>
<g style="fill:#dcdcdc;fill-rule:evenodd;word-spacing:0;line-height:125%;fill-opacity:.941">
<path d="m 19.999898,14.99996 a 4.9999681,4.9999886 0 1 1 -9.9999358,0 4.9999681,4.9999886 0 1 1 9.9999358,0 z"/>
<path d="m 33.999898,14.99996 a 4.9999681,4.9999886 0 1 1 -9.999936,0 4.9999681,4.9999886 0 1 1 9.999936,0 z"/>
<path d="m 47.999898,14.99996 a 4.9999681,4.9999886 0 1 1 -9.999936,0 4.9999681,4.9999886 0 1 1 9.999936,0 z"/>
</g>
<g style="letter-spacing:0">
<g style="fill:#dcdcdc;word-spacing:0;line-height:125%;fill-opacity:.941">
<path d="m 630,12 -10,0 5,6 z"/>
<path d="m 601,10 0,10 -5,-3 -2,0 0,-4 2,0 z"/>
<path d="m 603,18 0,2 2,0 0,-2 z"/>
<path d="m 603,14 0,2 2,0 0,-2 z"/>
<path d="m 603,10 0,2 2,0 0,-2 z"/>
<path d="m 570,10 1.5,2 12,0 1.5,-2 -15,0 z m 3,4 1.5,2 6,0 1.5,-2 -9,0 z m 3,4 1.5,2 1.5,-2 -3,0 z"/>
<path d="m 294.50213,19.821398 -1.9739,0 0,-7.962949 -2.52786,0 0,-1.706346 7.02962,0 0,1.706346 -2.52786,0 0,7.962949"/>
<path d="m 303.36556,19.821398 -0.26106,-0.945765 -0.10188,0 c -0.20801,0.343916 -0.50303,0.61067 -0.88507,0.800263 -0.38205,0.185186 -0.81715,0.277777 -1.30532,0.277778 -0.83626,-1e-6 -1.46663,-0.231482 -1.89112,-0.694443 -0.42449,-0.467371 -0.63675,-1.137563 -0.63675,-2.01058 l 0,-4.821419 1.94206,0 0,4.318775 c 0,0.533512 0.0913,0.934745 0.27381,1.203702 0.18253,0.264552 0.4733,0.396826 0.87233,0.396824 0.54335,2e-6 0.93601,-0.187388 1.17797,-0.562167 0.24196,-0.379187 0.36294,-1.005288 0.36294,-1.878305 l 0,-3.478829 1.94206,0 0,7.394166 -1.48997,0"/>
<path d="m 309.85395,13.723526 c -0.41176,6e-6 -0.73438,0.136689 -0.96785,0.410052 -0.23348,0.268964 -0.36719,0.652561 -0.40114,1.150791 l 2.72524,0 c -0.009,-0.49823 -0.13372,-0.881827 -0.37567,-1.150791 -0.24196,-0.273363 -0.56883,-0.410046 -0.98058,-0.410052 m 0.27379,6.230148 c -1.14613,-1e-6 -2.04181,-0.328483 -2.68704,-0.985448 -0.64523,-0.656964 -0.96785,-1.587297 -0.96785,-2.791001 0,-1.238971 0.29715,-2.195758 0.89144,-2.870366 0.59853,-0.679004 1.42417,-1.018509 2.47692,-1.018516 1.00605,7e-6 1.78924,0.297625 2.34957,0.892855 0.56033,0.595244 0.8405,1.417552 0.8405,2.466928 l 0,0.978834 -4.5909,0 c 0.0212,0.573194 0.18465,1.020723 0.4903,1.34259 0.30562,0.32187 0.73437,0.482805 1.28621,0.482804 0.42874,1e-6 0.83412,-0.0463 1.21617,-0.138889 0.38204,-0.09259 0.78107,-0.240298 1.19707,-0.443121 l 0,1.560844 c -0.3396,0.176366 -0.70253,0.306437 -1.08882,0.39021 -0.38629,0.08819 -0.85748,0.132275 -1.41357,0.132276"/>
<path d="m 323.97049,14.986751 c -10e-6,1.688713 -0.26743,2.938709 -0.8023,3.749993 -0.53062,0.811287 -1.34989,1.216929 -2.45781,1.21693 -1.07398,-1e-6 -1.88475,-0.41887 -2.43235,-1.256612 -0.54335,-0.837739 -0.81503,-2.074508 -0.81503,-3.710311 0,-1.70634 0.26531,-2.962951 0.79593,-3.769835 0.53061,-0.811277 1.34776,-1.2169197 2.45145,-1.2169296 1.07396,9.9e-6 1.88474,0.4232896 2.43235,1.2698396 0.55184,0.846567 0.82775,2.08554 0.82776,3.716925 m -4.5527,0 c 0,1.186069 0.0976,2.037036 0.29291,2.552905 0.19951,0.511466 0.53273,0.767196 0.99968,0.767195 0.45845,10e-7 0.78955,-0.260139 0.99331,-0.780421 0.20376,-0.52028 0.30564,-1.366838 0.30564,-2.539679 0,-1.18606 -0.10401,-2.037027 -0.312,-2.552906 -0.20376,-0.520273 -0.53275,-0.780414 -0.98695,-0.780422 -0.4627,8e-6 -0.7938,0.260149 -0.99331,0.780422 -0.19952,0.515879 -0.29928,1.366846 -0.29928,2.552906"/>
<path d="m 329.81577,19.821398 -1.96753,0 0,-5.595228 0.0191,-0.919311 0.0318,-1.005289 c -0.32686,0.339513 -0.55397,0.562175 -0.68131,0.667988 l -1.06972,0.892856 -0.94875,-1.230157 2.99905,-2.480154 1.61732,0 0,9.669295"/>
<path d="m 332.61107,18.875633 c 0,-0.370369 0.0955,-0.65035 0.28653,-0.839946 0.19102,-0.189592 0.46906,-0.284388 0.83412,-0.28439 0.35233,2e-6 0.62401,0.097 0.81504,0.291004 0.19526,0.194005 0.2929,0.471782 0.2929,0.833332 0,0.348325 -0.0976,0.623897 -0.2929,0.826718 -0.19527,0.198413 -0.46695,0.297619 -0.81504,0.297619 -0.35656,0 -0.63249,-0.097 -0.82776,-0.291005 -0.19526,-0.198411 -0.29289,-0.476188 -0.29289,-0.833332 m 0,-5.462954 c 0,-0.370363 0.0955,-0.650344 0.28653,-0.839945 0.19102,-0.189587 0.46906,-0.284384 0.83412,-0.284391 0.35233,7e-6 0.62401,0.097 0.81504,0.291004 0.19526,0.194011 0.2929,0.471788 0.2929,0.833332 0,0.357148 -0.0998,0.634925 -0.29927,0.833332 -0.19527,0.194009 -0.46482,0.29101 -0.80867,0.291005 -0.35656,5e-6 -0.63249,-0.09699 -0.82776,-0.291005 -0.19526,-0.193997 -0.29289,-0.471774 -0.29289,-0.833332"/>
<path d="m 342.56332,14.986751 c 0,1.688713 -0.26744,2.938709 -0.80229,3.749993 -0.53062,0.811287 -1.34989,1.216929 -2.45782,1.21693 -1.07397,-1e-6 -1.88475,-0.41887 -2.43235,-1.256612 -0.54335,-0.837739 -0.81503,-2.074508 -0.81503,-3.710311 0,-1.70634 0.26531,-2.962951 0.79592,-3.769835 0.53063,-0.811277 1.34777,-1.2169197 2.45146,-1.2169296 1.07397,9.9e-6 1.88475,0.4232896 2.43235,1.2698396 0.55184,0.846567 0.82776,2.08554 0.82776,3.716925 m -4.55269,0 c -10e-6,1.186069 0.0976,2.037036 0.2929,2.552905 0.1995,0.511466 0.53273,0.767196 0.99968,0.767195 0.45845,10e-7 0.78956,-0.260139 0.99331,-0.780421 0.20376,-0.52028 0.30564,-1.366838 0.30564,-2.539679 0,-1.18606 -0.104,-2.037027 -0.31201,-2.552906 -0.20375,-0.520273 -0.53274,-0.780414 -0.98694,-0.780422 -0.4627,8e-6 -0.79381,0.260149 -0.99331,0.780422 -0.19952,0.515879 -0.29928,1.366846 -0.29927,2.552906"/>
<path d="m 350.00045,14.986751 c -10e-6,1.688713 -0.26743,2.938709 -0.80229,3.749993 -0.53062,0.811287 -1.34989,1.216929 -2.45782,1.21693 -1.07398,-1e-6 -1.88475,-0.41887 -2.43235,-1.256612 -0.54335,-0.837739 -0.81502,-2.074508 -0.81502,-3.710311 0,-1.70634 0.2653,-2.962951 0.79592,-3.769835 0.53061,-0.811277 1.34776,-1.2169197 2.45145,-1.2169296 1.07397,9.9e-6 1.88474,0.4232896 2.43235,1.2698396 0.55184,0.846567 0.82775,2.08554 0.82776,3.716925 m -4.5527,0 c 0,1.186069 0.0976,2.037036 0.29291,2.552905 0.19951,0.511466 0.53273,0.767196 0.99968,0.767195 0.45845,10e-7 0.78956,-0.260139 0.99331,-0.780421 0.20376,-0.52028 0.30564,-1.366838 0.30564,-2.539679 0,-1.18606 -0.104,-2.037027 -0.312,-2.552906 -0.20376,-0.520273 -0.53275,-0.780414 -0.98695,-0.780422 -0.4627,8e-6 -0.7938,0.260149 -0.99331,0.780422 -0.19952,0.515879 -0.29928,1.366846 -0.29928,2.552906"/>
</g>
<g style="fill-rule:evenodd">
<g style="fill:#f9f9f9">
<path style="opacity:.3" d="M 40.000082,-1.8672226e-5 C 40.000082,-22.091441 22.091444,-40.000079 1.803187e-5,-40.000079 -22.091408,-40.000079 -40.000047,-22.091441 -40.000047,-1.8672226e-5 -40.000047,22.091404 -22.091408,40.00004 1.803187e-5,40.00004 22.091444,40.00004 40.000082,22.091404 40.000082,-1.8672226e-5 z"/>
<path style="opacity:.4" d="M 20.000036,-9.336113e-6 C 20.000036,-11.04572 11.045717,-20.000039 4.015935e-6,-20.000039 -11.045709,-20.000039 -20.000029,-11.04572 -20.000029,-9.336113e-6 -20.000029,11.045702 -11.045709,20.00002 4.015935e-6,20.00002 11.045717,20.00002 20.000036,11.045702 20.000036,-9.336113e-6 z"/>
</g>
<path style="fill:#9b59b6" d="m 245.00009,451.01014 a 17.000093,16.999963 0 0 1 -34.00018,0 17.000093,16.999963 0 1 1 34.00018,0 z"/>
<path style="fill:#f39c12" d="m 291.00009,451.01014 a 17.000093,16.999963 0 0 1 -34.00018,0 17.000093,16.999963 0 1 1 34.00018,0 z"/>
<path style="fill:#2980b9" d="m 337.00008,451.01014 a 17.000093,16.999963 0 0 1 -34.00018,0 17.000093,16.999963 0 1 1 34.00018,0 z"/>
<path style="fill:#27ae60" d="m 383.00008,451.01014 a 17.000093,16.999963 0 0 1 -34.00018,0 17.000093,16.999963 0 1 1 34.00018,0 z"/>
<path style="fill:#f1c40f" d="m 429.00008,451.01014 a 17.000093,16.999963 0 0 1 -34.00018,0 17.000093,16.999963 0 1 1 34.00018,0 z"/>
</g>
</g>
<g style="fill:#d64937" transform="translate(21.49936)">
<path d="m 239.49967,476 24,0 0,4 -24,0 z"/>
<path d="m 286.49967,476 24,0 0,4 -24,0 z"/>
<path d="m 195.49967,476 24,0 0,4 -24,0 z"/>
</g>
<g style="fill:#f9f9f6">
<path style="opacity:.5;fill-rule:evenodd;letter-spacing:0" d="m 199.00009,451.01014 a 17.000093,16.999963 0 0 1 -34.00018,0 17.000093,16.999963 0 1 1 34.00018,0 z"/>
<path style="opacity:.5" d="m 171.49936,442 10,0 0,8 -10,0 z"/>
<path style="opacity:.5" d="m 171.49936,452 10,0 0,8 -10,0 z"/>
<path d="m 183.49936,442 10,0 0,8 -10,0 z"/>
<path style="opacity:.5" d="m 183.49936,452 10,0 0,8 -10,0 z"/>
</g>
<g style="fill-rule:evenodd">
<path style="opacity:.5;fill:#f9f9f6;letter-spacing:0" d="m 475.00009,451.01014 a 17.000093,16.999963 0 0 1 -34.00018,0 17.000093,16.999963 0 1 1 34.00018,0 z"/>
<g style="fill:#f9f9f9">
<path d="m 454.57023,456.71427 c 0,1.26237 -1.02335,2.28572 -2.28571,2.28572 -1.26236,0 -2.28571,-1.02335 -2.28571,-2.28572 0,-1.26236 1.02335,-2.28571 2.28571,-2.28571 1.26236,0 2.28571,1.02335 2.28571,2.28571 z"/>
<path d="m 454.57023,450.99999 c 0,1.26236 -1.02335,2.28571 -2.28571,2.28571 -1.26236,0 -2.28571,-1.02335 -2.28571,-2.28571 0,-1.26237 1.02335,-2.28572 2.28571,-2.28572 1.26236,0 2.28571,1.02335 2.28571,2.28572 z"/>
<path d="m 454.57023,445.2857 c 0,1.26237 -1.02335,2.28571 -2.28571,2.28571 -1.26236,0 -2.28571,-1.02334 -2.28571,-2.28571 0,-1.26237 1.02335,-2.28571 2.28571,-2.28571 1.26236,0 2.28571,1.02334 2.28571,2.28571 z"/>
<path d="m 460.28452,456.71427 c 0,1.26237 -1.02335,2.28572 -2.28571,2.28572 -1.26236,0 -2.28571,-1.02335 -2.28571,-2.28572 0,-1.26236 1.02335,-2.28571 2.28571,-2.28571 1.26236,0 2.28571,1.02335 2.28571,2.28571 z"/>
<path d="m 460.28452,450.99999 c 0,1.26236 -1.02335,2.28571 -2.28571,2.28571 -1.26236,0 -2.28571,-1.02335 -2.28571,-2.28571 0,-1.26237 1.02335,-2.28572 2.28571,-2.28572 1.26236,0 2.28571,1.02335 2.28571,2.28572 z"/>
<path d="m 460.28452,445.2857 c 0,1.26237 -1.02335,2.28571 -2.28571,2.28571 -1.26236,0 -2.28571,-1.02334 -2.28571,-2.28571 0,-1.26237 1.02335,-2.28571 2.28571,-2.28571 1.26236,0 2.28571,1.02334 2.28571,2.28571 z"/>
<path d="m 465.99881,456.71427 c 0,1.26237 -1.02335,2.28572 -2.28571,2.28572 -1.26237,0 -2.28572,-1.02335 -2.28572,-2.28572 0,-1.26236 1.02335,-2.28571 2.28572,-2.28571 1.26236,0 2.28571,1.02335 2.28571,2.28571 z"/>
<path d="m 465.99881,450.99999 c 0,1.26236 -1.02335,2.28571 -2.28571,2.28571 -1.26237,0 -2.28572,-1.02335 -2.28572,-2.28571 0,-1.26237 1.02335,-2.28572 2.28572,-2.28572 1.26236,0 2.28571,1.02335 2.28571,2.28572 z"/>
<path d="m 465.99881,445.2857 c 0,1.26237 -1.02335,2.28571 -2.28571,2.28571 -1.26237,0 -2.28572,-1.02334 -2.28572,-2.28571 0,-1.26237 1.02335,-2.28571 2.28572,-2.28571 1.26236,0 2.28571,1.02334 2.28571,2.28571 z"/>
</g>
</g>
</svg>
