<svg width="640" xmlns="http://www.w3.org/2000/svg" viewBox="0 0 640 480" height="480">
<g style="fill-rule:evenodd">
<rect width="640" x="0" y="0" rx="2.605" height="480" style="fill:#2d2d2d"/>
<g style="fill:#d64937">
<rect width="200" x="90" y="96" rx="2.447" height="120" style="stroke-opacity:.5;stroke:#f9f9f9;stroke-width:4"/>
<rect width="200" x="350" y="96" rx="2.447" height="120"/>
</g>
</g>
<g style="stroke:#888">
<rect width="80" x="120" y="126" rx="2.614" height="40" style="fill:#dededd"/>
<g style="fill:#f9f9f9">
<rect width="60" x="460" y="116" rx="1.961" height="80"/>
<rect width="60" x="380" y="116" rx="1.961" height="80"/>
</g>
</g>
<rect width="200" x="220" y="266" rx="2.447" height="120" style="fill:#d64937;fill-rule:evenodd"/>
<g style="fill:#f9f9f9">
<path style="opacity:.5;word-spacing:0;line-height:125%;letter-spacing:0" d="m 340.0001,323.56377 0,6.87115 -16.02564,0 0,16.56439 -7.94873,0 0,-16.56439 -16.02564,0 0,-6.87115 16.02564,0 0,-16.56438 7.94873,0 0,16.56438 16.02564,0"/>
<g style="fill-rule:evenodd">
<path style="opacity:.3" d="m 40.000082,479.99998 c 0,-22.09142 -17.908638,-40.00006 -40.00006396813,-40.00006 C -22.091408,439.99992 -40.000047,457.90856 -40.000047,479.99998 c 0,22.09142 17.908639,40.00006 40.00006503187,40.00006 C 22.091444,520.00004 40.000082,502.0914 40.000082,479.99998 z"/>
<path style="opacity:.4" d="m 20.000036,479.99999 c 0,-11.04571 -8.954319,-20.00003 -20.000031984065,-20.00003 C -11.045709,459.99996 -20.000029,468.95428 -20.000029,479.99999 c 0,11.04571 8.95432,20.00003 20.000033015935,20.00003 C 11.045717,500.00002 20.000036,491.0457 20.000036,479.99999 z"/>
</g>
</g>
<path style="fill:#2d2d2d" d="M 122.625 126 C 121.17684 126 120 127.17684 120 128.625 L 120 135 L 200 135 L 200 128.625 C 200 127.17684 198.82316 126 197.375 126 L 122.625 126 z "/>
<path style="fill:#f9f9f9" d="M 140 135 L 140 166 L 197.375 166 C 198.82316 166 200 164.82316 200 163.375 L 200 135 L 140 135 z "/>
<rect width="80" x="120" y="126" rx="2.614" height="40" style="fill:none;stroke:#888"/>
<g style="fill:#2d2d2d">
<path d="M 461.96875,116 C 460.88236,116 460,116.88236 460,117.96875 l 0,7.03125 60,0 0,-7.03125 C 520,116.88236 519.11764,116 518.03125,116 l -56.0625,0 z"/>
<path d="M 381.96875,116 C 380.88236,116 380,116.88236 380,117.96875 l 0,7.03125 60,0 0,-7.03125 C 440,116.88236 439.11764,116 438.03125,116 l -56.0625,0 z"/>
</g>
<g style="stroke:#888;fill:none">
<rect width="60" x="460" y="116" rx="1.961" height="80"/>
<rect width="60" x="380" y="116" rx="1.961" height="80"/>
</g>
</svg>
