<!-- color: #ff8275 --><svg xmlns="http://www.w3.org/2000/svg" viewBox="0 0 48 48"><g><path d="m 15 13 c -0.555 0 -1 0.445 -1 1 l 0 1 l -1.188 0 c -0.438 0.047 -0.816 0.465 -0.813 0.906 l 0 16.188 c 0 0.473 0.434 0.906 0.906 0.906 l 22.19 0 c 0.473 0 0.906 -0.434 0.906 -0.906 l 0 -16.188 c 0 -0.473 -0.434 -0.906 -0.906 -0.906 l -15.09 0 l 0 -1 c 0 -0.555 -0.445 -1 -1 -1 m 13.656 4 l 0.688 0 c 0.367 0 0.656 0.289 0.656 0.656 l 0 0.688 c 0 0.367 -0.289 0.656 -0.656 0.656 l -0.688 0 c -0.367 0 -0.656 -0.289 -0.656 -0.656 l 0 -0.688 c 0 -0.367 0.289 -0.656 0.656 -0.656 m -11.09 1 c 1.664 -0.121 3.305 0.457 4.527 1.594 c 1.223 1.141 1.914 2.734 1.91 4.406 c 0 3.313 -2.688 6 -6 6 c -3.313 0 -6 -2.688 -6 -6 c -0.008 -3.148 2.422 -5.77 5.563 -6 m 0 0" fill="#f9f9f9" stroke="none" fill-rule="nonzero" fill-opacity="1"/><path d="m 14.559 32.367 c 0 0.246 -0.199 0.445 -0.445 0.445 c -0.242 0 -0.441 -0.199 -0.441 -0.445 c 0 -0.242 0.199 -0.441 0.441 -0.441 c 0.246 0 0.445 0.199 0.445 0.441 m 0 0" fill="#f9f9f9" stroke="none" fill-rule="nonzero" fill-opacity="1"/><path d="m 25 24 c 0 1.656 -1.344 3 -3 3 c -1.656 0 -3 -1.344 -3 -3 c 0 -1.656 1.344 -3 3 -3 c 1.656 0 3 1.344 3 3 m 0 0" fill="#f9f9f9" stroke="none" fill-rule="nonzero" fill-opacity="1"/></g></svg>