<!-- color: #d93f3f --><svg xmlns="http://www.w3.org/2000/svg" viewBox="0 0 48 48"><g><path d="m 18 12 c -6 0 -6 5.438 -6 5.438 l 0 10.938 c 0 0 -0.02 0.121 0 0.313 c 0.082 1.461 0.75 7.313 6 7.313 l 12 0 c 5.25 0 5.918 -5.852 6 -7.313 c 0.02 -0.191 0 -0.313 0 -0.313 l 0 -10.938 c 0 -5.453 -6 -5.438 -6 -5.438 m -9.938 6 l 1.031 0 l 4.03 9.875 l -1.219 0 l -1.281 -3.125 l -4.156 0 l -1.25 3.125 l -1.219 0 m 4.563 -8.625 c -0.105 0.43 -0.242 0.891 -0.438 1.406 l -1.219 3.063 l 3.344 0 l -1.219 -3.063 c -0.156 -0.387 -0.305 -0.848 -0.469 -1.406 m 8.719 1.125 c 0.922 0 1.59 0.203 2.031 0.594 c 0.445 0.387 0.688 1.012 0.688 1.875 l 0 5.03 l -0.875 0 l -0.219 -1.063 l -0.063 0 c -0.387 0.461 -0.77 0.773 -1.156 0.938 c -0.383 0.16 -0.863 0.25 -1.438 0.25 c -0.766 0 -1.375 -0.184 -1.813 -0.563 c -0.43 -0.375 -0.625 -0.93 -0.625 -1.625 c 0 -1.484 1.223 -2.242 3.719 -2.313 l 1.313 -0.063 l 0 -0.438 c 0 -0.578 -0.113 -1 -0.375 -1.281 c -0.262 -0.277 -0.68 -0.406 -1.25 -0.406 c -0.648 0 -1.367 0.188 -2.188 0.563 l -0.375 -0.875 c 0.391 -0.199 0.805 -0.355 1.25 -0.469 c 0.457 -0.113 0.918 -0.156 1.375 -0.156 m 1.531 3.875 l -1.156 0.031 c -0.934 0.031 -1.613 0.191 -2.031 0.438 c -0.406 0.242 -0.594 0.609 -0.594 1.125 c 0 0.402 0.121 0.699 0.375 0.906 c 0.258 0.211 0.633 0.344 1.094 0.344 c 0.73 0 1.273 -0.211 1.688 -0.594 c 0.418 -0.379 0.625 -0.91 0.625 -1.594 m 0 -0.656" fill="#f9f9f9" stroke="none" fill-rule="nonzero" fill-opacity="1"/></g></svg>