<!-- color: #ef772a --><svg xmlns="http://www.w3.org/2000/svg" viewBox="0 0 48 48"><g><path d="m 19.18 14.949 l 1.531 0 l 3.813 10 l -1.406 0 l -0.906 -2.563 l -4.5 0 l -0.941 2.563 l -1.406 0 m 4.566 -8.656 l -1.813 4.969 l 3.656 0 m -1.844 -4.969" fill="#f9f9f9" stroke="none" fill-rule="nonzero" fill-opacity="1"/><path d="m 30.12 32.27 l 2.145 -2.145 l 4.738 4.734 l -2.145 2.145 m -4.738 -4.734" fill="#f9f9f9" stroke="none" fill-rule="nonzero" fill-opacity="1"/><path d="m 25.574 27.08 l 1.504 -1.504 l 4.734 4.734 l -1.504 1.504 m -4.734 -4.734" fill="#f9f9f9" stroke="none" fill-rule="nonzero" fill-opacity="1"/><path d="m 19.93 10.965 c -2.293 0 -4.566 0.914 -6.309 2.656 c -3.488 3.484 -3.488 9.133 0 12.625 c 3.484 3.484 9.133 3.484 12.625 0 c 3.484 -3.488 3.484 -9.137 0 -12.625 c -1.742 -1.742 -4.02 -2.656 -6.313 -2.656 m -0.004 1.551 c 1.91 0 3.852 0.641 5.316 2.105 c 2.926 2.926 2.926 7.703 0 10.629 c -2.926 2.926 -7.703 2.926 -10.629 0 c -2.93 -2.926 -2.93 -7.703 0 -10.629 c 1.461 -1.465 3.402 -2.105 5.312 -2.105 m 0 0" fill="#f9f9f9" stroke="none" fill-rule="nonzero" fill-opacity="1"/></g></svg>