<!-- color: #eeeeee --><svg xmlns="http://www.w3.org/2000/svg" viewBox="0 0 48 48"><g><path d="m 34.559 19.613 c -1.828 -4.02 -5.922 -6.613 -10.531 -6.613 c -4.715 0 -9.03 2.832 -10.73 7.04 l 3.578 1.324 c 1.133 -2.809 4.01 -4.688 7.152 -4.688 c 3.035 0 5.719 1.68 6.961 4.301 l -2.609 1 l 6.672 3.688 l 1.953 -6.977 m -2.445 0.93" fill="#f9f9f9" stroke="none" fill-rule="nonzero" fill-opacity="1"/><path d="m 24.03 31.33 c -3.01 0 -5.75 -1.727 -6.977 -4.344 l 2.563 -0.945 l -6.598 -3.602 l -2.02 6.793 l 2.461 -0.91 c 1.793 4.01 5.98 6.68 10.562 6.68 c 4.734 0 8.922 -2.719 10.688 -6.926 l -3.566 -1.355 c -1.168 2.809 -3.965 4.621 -7.121 4.621 m 0 -0.004" fill="#f9f9f9" stroke="none" fill-rule="nonzero" fill-opacity="1"/></g></svg>