<!-- color: #266318 --><svg xmlns="http://www.w3.org/2000/svg" viewBox="0 0 48 48"><g><path d="m 12 13 l 0 17 l 9 6 l 0 -18 m -7 -5 l 8 5 l 4 0 l 8 -5 c -4 0 -6 0.52 -10 4 c -4 -3.395 -6 -4 -10 -4 m 22 0 l -9 5 l 0 7.813 l 2.344 2.344 c 0.656 0.66 2.031 -0.75 1.375 -1.406 l -2.156 -2.125 l -0.469 -0.5 l 0.625 -0.25 c 0.457 -0.176 0.934 -0.273 1.406 -0.281 c 1.055 -0.012 2.133 0.387 2.938 1.188 c 1.082 1.086 1.352 2.625 0.938 4 l 1.531 1.531 l 0.469 -0.313 m -14 -11 l 0 18 l 4 0 l 0 -18 m 4.156 5.5 c -0.113 0.004 -0.227 0.047 -0.344 0.063 l 1.531 1.563 c 1.469 1.469 -1.195 4.129 -2.656 2.656 l -1.469 -1.469 c -0.094 0.91 0.086 1.836 0.781 2.531 c 0.906 0.906 2.219 1.125 3.344 0.688 l 0.281 -0.094 l 0.188 0.188 l 0.969 0.938 l 3.813 3.813 c 0.809 0.594 1.977 -0.512 1.375 -1.375 l -4.969 -4.969 l 0.125 -0.25 c 0.438 -1.113 0.184 -2.469 -0.719 -3.375 c -0.625 -0.621 -1.414 -0.918 -2.25 -0.906 m -3.156 5.563 l 0 5.938 l 5.344 -3.563 l -1.031 -1.031 c -1.367 0.398 -2.863 0.168 -3.938 -0.906 c -0.137 -0.137 -0.262 -0.289 -0.375 -0.438 m 0 0" fill="#f9f9f9" stroke="none" fill-rule="nonzero" fill-opacity="1"/></g></svg>