<!-- color: #35ace1 --><svg xmlns="http://www.w3.org/2000/svg" viewBox="0 0 48 48"><g><path d="m 30.875 12 c -0.637 0.039 -1.52 0.258 -3.156 0.656 c -4.27 1.035 -5.594 1.055 -9.188 0.188 c -2.625 -0.633 -2.758 -0.625 -3.563 0.063 c -1.043 0.891 -1.047 2.398 -0.063 4.75 c 0.414 0.988 1.141 3.309 1.625 5.188 c 1.047 4.086 2.398 6.438 4.219 7.281 c 3.262 1.879 5.164 -0.109 6.188 -1 c 1.25 -1.238 2.01 -2.547 3.03 -5.281 c 1.422 -3.813 1.98 -5.03 3.438 -7.344 c 1.07 -1.711 0.684 -3.219 -1.031 -4.125 c -0.504 -0.266 -0.867 -0.414 -1.5 -0.375 m -3.594 5.813 c 0.785 -0.039 1.484 0.648 1.75 1.969 c 0.359 1.816 -0.402 3.316 -1.656 3.316 c -0.566 0 -1.363 -0.359 -1.813 -0.781 c -1 -0.938 -1.035 -1.645 -0.125 -3.094 c 0.57 -0.906 1.227 -1.375 1.844 -1.406 m -7.969 0.719 c 1 0.059 1.961 1.801 1.531 2.941 c -0.52 1.363 -1.238 1.457 -2.031 0.313 c -0.824 -1.184 -0.664 -3.047 0.281 -3.219 c 0.063 -0.012 0.145 -0.035 0.219 -0.031 m -5.316 6.469 l 0 11 l 18 0 l 0 -9 c -7 8 -13 8 -18 -2 m 9.281 0 c 1.379 0 2.469 1.121 2.469 2.5 c 0 1.383 -1.09 2.5 -2.469 2.5 c -1.383 0 -2.844 -2.055 -2.844 -3.438 c 0 -1.379 1.461 -1.563 2.844 -1.563 m 0 0" fill="#f9f9f9" stroke="none" fill-rule="nonzero" fill-opacity="1"/></g></svg>