<!-- color: #eeeeee --><svg xmlns="http://www.w3.org/2000/svg" viewBox="0 0 48 48"><g><path d="m 21.13 12 c -0.609 0 -1.125 0.563 -1.125 1.25 l 0 5.75 l 0.906 0 c 0.609 0 1.094 0.563 1.094 1.25 l 0 1.75 l 4 0 l 0 -0.75 c 0 -0.688 0.484 -1.25 1.094 -1.25 l 2.906 0 l 0 -6.75 c 0 -0.688 -0.484 -1.25 -1.094 -1.25 m 1.094 8 l 0 0.75 c 0 0.688 -0.484 1.25 -1.094 1.25 l -2.906 0 l 0 4 l 2.906 0 c 0.609 0 1.094 0.563 1.094 1.25 l 0 2.75 l 4.906 0 c 0.609 0 1.094 -0.563 1.094 -1.25 l 0 -7.5 c 0 -0.688 -0.484 -1.25 -1.094 -1.25 m -4.906 10 l -2.906 0 c -0.605 0 -1.094 -0.563 -1.094 -1.25 l 0 -2.75 l -4 0 l 0 1.75 c 0 0.688 -0.484 1.25 -1.094 1.25 l -0.906 0 l 0 5.75 c 0 0.684 0.516 1.25 1.125 1.25 l 7.781 0 c 0.609 0 1.094 -0.566 1.094 -1.25 m -10 -5.75 l 0 -1.75 c 0 -0.688 0.516 -1.25 1.125 -1.25 l 0.875 0 l 0 -4 l -0.875 0 c -0.609 0 -1.125 -0.563 -1.125 -1.25 l 0 -1.75 l -6.906 0 c -0.609 0 -1.094 0.563 -1.094 1.25 l 0 7.5 c 0 0.688 0.488 1.25 1.094 1.25 m 6.906 0" fill="#f9f9f9" stroke="none" fill-rule="nonzero" fill-opacity="1"/></g></svg>