<!-- color: #00afd7 --><svg xmlns="http://www.w3.org/2000/svg" viewBox="0 0 48 48"><g><path d="m 20.695 32.422 c -1.508 -4.707 -3.75 -11.691 -3.762 -11.699 c -0.008 -0.012 -1.242 0.391 -2.742 0.895 l -2.73 0.914 l -0.461 -0.219 l 1.875 -1.582 c 1.031 -0.867 2.188 -1.84 2.566 -2.16 c 0.379 -0.32 0.695 -0.59 0.707 -0.602 c 0.012 -0.027 2.324 0.602 2.363 0.641 c 0.02 0.02 0.652 1.574 3.199 7.828 c 0.418 1.023 0.766 1.859 0.77 1.859 c 0.016 0 1.074 -0.688 3.738 -2.434 c 0.547 -0.363 1.676 -1.105 2.508 -1.656 l 1.508 -1 l 0.543 0.172 c 0.297 0.094 0.742 0.234 0.988 0.313 l 0.445 0.141 l 0.074 0.137 c 0.043 0.074 1.125 1.992 2.402 4.27 c 2.195 3.898 2.328 4.145 2.316 4.23 c -0.043 0.262 -0.023 0.234 -0.23 0.234 c 0 0 -13.672 -1.07 -13.641 -1.07 l -0.398 0.242 c -0.223 0.133 -0.719 0.441 -1.102 0.676 c -0.395 0.242 -0.723 0.438 -0.73 0.438 c -0.012 0 -0.102 -0.258 -0.207 -0.578 m -0.008 0.02" fill="#f9f9f9" stroke="none" fill-rule="nonzero" fill-opacity="1"/><path d="m 22.563 26.961 c -0.102 -0.223 -0.465 -1.02 -0.813 -1.766 c -0.344 -0.746 -0.625 -1.359 -0.617 -1.363 c 0.008 -0.004 0.797 -0.438 1.762 -0.961 c 1.992 -1.082 1.906 -1.047 2.527 -1.07 c 0.824 -0.031 1.824 0.18 3.047 0.633 c 0.445 0.16 1.301 0.527 1.301 0.551 c 0 0.02 -6.945 4.375 -6.988 4.383 c -0.02 0.004 -0.113 -0.176 -0.219 -0.402 m 0 -0.004" fill="#f9f9f9" stroke="none" fill-rule="nonzero" fill-opacity="1"/><path d="m 30.652 22.84 c -0.422 -0.148 -1.152 -0.406 -1.621 -0.574 c -0.473 -0.168 -0.863 -0.305 -0.867 -0.309 c 0 -0.004 0.715 -1.152 1.598 -2.559 c 0.879 -1.402 2.211 -3.535 2.961 -4.734 c 0.75 -1.195 1.371 -2.188 1.383 -2.203 c 0.02 -0.023 0.223 0 0.273 0.031 c 0.027 0.016 -0.117 0.566 -0.574 2.199 c -1.102 3.914 -2.168 7.723 -2.266 8.07 c -0.055 0.188 -0.102 0.344 -0.109 0.344 c -0.008 0 -0.359 -0.125 -0.781 -0.273 m 0.004 0.004" fill="#f9f9f9" stroke="none" fill-rule="nonzero" fill-opacity="1"/></g></svg>