<!-- color: #eaebe1 --><svg xmlns="http://www.w3.org/2000/svg" viewBox="0 0 48 48"><g><path d="m 24 10 c -4.137 0 -6.84 2.367 -8.125 5.156 c -1.605 -0.051 -3.215 -0.082 -4.813 -0.156 c -0.586 -0.031 -1.141 0.645 -1.063 1.094 c 1.01 6.68 1.063 12.93 0 19.813 c -0.074 0.453 0.477 1.117 1.063 1.094 l 25.844 0 c 0.598 0.023 1.164 -0.641 1.094 -1.094 c -1.063 -6.879 -1.078 -13.211 0 -19.813 c 0.078 -0.453 -0.496 -1.129 -1.094 -1.094 c -1.59 0.086 -3.172 0.137 -4.75 0.188 c -1.277 -2.805 -4 -5.188 -8.156 -5.188 m 0 1 c 3.188 0 5.574 1.973 6.875 4.219 c -4.609 0.121 -9.172 0.121 -13.719 0 c 1.305 -2.242 3.66 -4.219 6.844 -4.219 m -8.938 7.06 c -0.035 0.32 -0.063 0.625 -0.063 0.938 c 0 0.422 0 1 0.5 1 c 0.496 0 0.5 -0.578 0.5 -1 c 0 -0.281 0.016 -0.57 0.063 -0.875 c 0.551 0.223 0.938 0.742 0.938 1.375 c 0 0.828 -0.672 1.5 -1.5 1.5 c -0.828 0 -1.5 -0.672 -1.5 -1.5 c 0 -0.68 0.441 -1.254 1.063 -1.438 m 17.875 0 c 0.621 0.184 1.063 0.758 1.063 1.438 c 0 0.828 -0.672 1.5 -1.5 1.5 c -0.828 0 -1.5 -0.672 -1.5 -1.5 c 0 -0.621 0.367 -1.148 0.906 -1.375 c 0.047 0.305 0.094 0.59 0.094 0.875 c 0 0.422 0 1 0.5 1 c 0.5 0 0.5 -0.578 0.5 -1 c 0 -0.313 -0.027 -0.617 -0.063 -0.938 m -9.375 3.938 c 0.242 -0.004 0.609 0 1.063 0 c 1.273 0 1.531 0.035 1.531 0.094 c 0 0.043 -0.324 0.297 -0.719 0.594 c -1.266 0.949 -1.91 1.641 -2.406 2.625 c -0.172 0.332 -0.34 0.934 -0.344 1.125 c -0.004 0.105 0.133 0.012 0.281 -0.188 c 0.203 -0.27 0.285 -0.469 0.406 -0.969 c 0.09 -0.359 0.129 -0.398 0.406 -0.625 c 0.313 -0.254 0.652 -0.457 1.219 -0.688 c 0.609 -0.25 1.121 -0.32 2.156 -0.375 c 0.594 -0.031 1.293 -0.102 1.781 -0.188 c 0.441 -0.082 0.832 -0.145 0.875 -0.125 c 0.18 0.07 0.188 0.441 0.188 4.719 c 0 4.07 0.008 4.227 -0.094 4.563 c -0.18 0.582 -0.563 0.996 -1.156 1.281 l -0.313 0.125 l -3.438 0.031 c -1.898 0.012 -3.48 -0.012 -3.5 -0.031 c -0.078 -0.078 0 -0.121 0.313 -0.281 c 0.902 -0.453 2.469 -1.5 3.375 -2.25 c 2.051 -1.711 2.523 -3.438 1.531 -5.531 c -0.16 -0.336 -0.844 -1.156 -0.906 -1.094 c -0.012 0.016 0.086 0.176 0.188 0.375 c 0.277 0.547 0.375 1.086 0.375 1.781 c -0.004 1.051 -0.273 1.742 -0.938 2.406 c -0.469 0.473 -1.023 0.738 -1.781 0.906 c -0.469 0.102 -0.691 0.125 -1.906 0.125 c -1.211 0.004 -1.426 -0.02 -1.938 -0.125 c -0.676 -0.137 -1.5 -0.375 -1.688 -0.5 l -0.125 -0.094 l 0 -2.969 c 0 -2.82 -0.008 -2.965 0.094 -3.281 c 0.156 -0.5 0.652 -1.117 0.781 -0.969 c 0.02 0.027 0.09 0.297 0.125 0.594 c 0.184 1.527 0.883 3.426 1.594 4.375 c 0.5 0.664 1.383 1.355 2.094 1.594 c 0.273 0.09 0.422 0.082 0.781 0.063 c 0.535 -0.023 0.922 -0.164 1.281 -0.5 c 0.277 -0.254 0.613 -0.914 0.75 -1.438 c 0.168 -0.637 0.113 -1.895 -0.125 -2.438 c -0.063 -0.141 -0.098 -0.066 -0.125 0.75 c -0.047 1.297 -0.215 1.898 -0.75 2.469 c -0.598 0.641 -1.328 0.703 -1.906 0.156 c -0.477 -0.453 -0.703 -1.043 -0.781 -1.969 c -0.07 -0.863 0.285 -2.328 0.781 -3.344 c 0.313 -0.629 0.234 -0.762 0.969 -0.781 m 1.063 2.531 c -0.152 0 -0.484 0.172 -0.5 0.281 c -0.184 0.957 -0.512 1.801 -0.844 2.094 c -0.195 0.176 -0.277 0.184 -0.438 0.094 c -0.086 -0.043 -0.094 -0.039 -0.094 0.031 c 0 0.137 0.129 0.418 0.25 0.5 c 0.215 0.148 0.512 0.102 0.781 -0.188 c 0.383 -0.406 0.695 -1.086 0.813 -1.938 c 0.113 -0.801 0.109 -0.875 0.031 -0.875 m 0 0" fill="#f9f9f9" stroke="none" fill-rule="nonzero" fill-opacity="1"/></g></svg>