<!-- color: #e6645f --><svg xmlns="http://www.w3.org/2000/svg" viewBox="0 0 48 48"><g><path d="m 14 12 c -1.105 0 -2 0.895 -2 2 l 0 9.438 c 0 -0.242 0.199 -0.438 0.438 -0.438 l 23.13 0 c 0.238 0 0.438 0.195 0.438 0.438 l 0 -9.438 c 0 -1.105 -0.895 -2 -2 -2 m -17 2 l 14 0 l 0 8 l -14 0 m -2.5 -6 c 0.277 0 0.5 0.223 0.5 0.5 c 0 -0.277 0.223 -0.5 0.5 -0.5 c 0.277 0 0.5 0.223 0.5 0.5 c 0 0.277 -0.223 0.5 -0.5 0.5 c 0.277 0 0.5 0.223 0.5 0.5 c 0 0.277 -0.223 0.5 -0.5 0.5 c 0.277 0 0.5 0.223 0.5 0.5 c 0 0.277 -0.223 0.5 -0.5 0.5 c -0.277 0 -0.5 -0.223 -0.5 -0.5 c 0 0.277 -0.223 0.5 -0.5 0.5 c -0.277 0 -0.5 -0.223 -0.5 -0.5 c 0 -0.277 0.223 -0.5 0.5 -0.5 c -0.277 0 -0.5 -0.223 -0.5 -0.5 c 0 -0.277 0.223 -0.5 0.5 -0.5 c -0.277 0 -0.5 -0.223 -0.5 -0.5 c 0 -0.277 0.223 -0.5 0.5 -0.5 m 0 1 c 0.277 0 0.5 0.223 0.5 0.5 c 0 -0.277 0.223 -0.5 0.5 -0.5 c -0.277 0 -0.5 -0.223 -0.5 -0.5 c 0 0.277 -0.223 0.5 -0.5 0.5 m 0.5 0.5 c 0 0.277 -0.223 0.5 -0.5 0.5 c 0.277 0 0.5 0.223 0.5 0.5 c 0 -0.277 0.223 -0.5 0.5 -0.5 c -0.277 0 -0.5 -0.223 -0.5 -0.5 m 17.5 -1.5 c 0.277 0 0.5 0.223 0.5 0.5 c 0 -0.277 0.223 -0.5 0.5 -0.5 c 0.277 0 0.5 0.223 0.5 0.5 c 0 0.277 -0.223 0.5 -0.5 0.5 c 0.277 0 0.5 0.223 0.5 0.5 c 0 0.277 -0.223 0.5 -0.5 0.5 c 0.277 0 0.5 0.223 0.5 0.5 c 0 0.277 -0.223 0.5 -0.5 0.5 c -0.277 0 -0.5 -0.223 -0.5 -0.5 c 0 0.277 -0.223 0.5 -0.5 0.5 c -0.277 0 -0.5 -0.223 -0.5 -0.5 c 0 -0.277 0.223 -0.5 0.5 -0.5 c -0.277 0 -0.5 -0.223 -0.5 -0.5 c 0 -0.277 0.223 -0.5 0.5 -0.5 c -0.277 0 -0.5 -0.223 -0.5 -0.5 c 0 -0.277 0.223 -0.5 0.5 -0.5 m 0 1 c 0.277 0 0.5 0.223 0.5 0.5 c 0 -0.277 0.223 -0.5 0.5 -0.5 c -0.277 0 -0.5 -0.223 -0.5 -0.5 c 0 0.277 -0.223 0.5 -0.5 0.5 m 0.5 0.5 c 0 0.277 -0.223 0.5 -0.5 0.5 c 0.277 0 0.5 0.223 0.5 0.5 c 0 -0.277 0.223 -0.5 0.5 -0.5 c -0.277 0 -0.5 -0.223 -0.5 -0.5 m -21 7.06 l 0 9.438 c 0 1.105 0.895 2 2 2 l 20 0 c 1.105 0 2 -0.895 2 -2 l 0 -9.438 c 0 0.238 -0.191 0.438 -0.438 0.438 l -23.12 0 c -0.238 0 -0.438 -0.199 -0.438 -0.438 m 3 1.438 l 2 0 l 0 1 l -2 0 m 3 -1 l 12 0 l 0 8 l -12 0 m 13 -8 l 2 0 l 0 1 l -2 0 m -16 2 l 1 0 l 0 1 l 1 0 l 0 1 l -1 0 l 0 1 l -1 0 l 0 -1 l -1 0 l 0 -1 l 1 0 m 17.5 -1 c 0.277 0 0.5 0.223 0.5 0.5 c 0 0.277 -0.223 0.5 -0.5 0.5 c -0.277 0 -0.5 -0.223 -0.5 -0.5 c 0 -0.277 0.223 -0.5 0.5 -0.5 m -1 1 c 0.277 0 0.5 0.223 0.5 0.5 c 0 0.277 -0.223 0.5 -0.5 0.5 c -0.277 0 -0.5 -0.223 -0.5 -0.5 c 0 -0.277 0.223 -0.5 0.5 -0.5 m 2 0 c 0.277 0 0.5 0.223 0.5 0.5 c 0 0.277 -0.223 0.5 -0.5 0.5 c -0.277 0 -0.5 -0.223 -0.5 -0.5 c 0 -0.277 0.223 -0.5 0.5 -0.5 m -1 1 c 0.277 0 0.5 0.223 0.5 0.5 c 0 0.277 -0.223 0.5 -0.5 0.5 c -0.277 0 -0.5 -0.223 -0.5 -0.5 c 0 -0.277 0.223 -0.5 0.5 -0.5 m 0 0" fill="#f9f9f9" stroke="none" fill-rule="nonzero" fill-opacity="1"/></g></svg>