<!-- color: #a8a2f5 --><svg xmlns="http://www.w3.org/2000/svg" viewBox="0 0 48 48"><g><path d="m 21.512 12.01 c -5.172 0.246 -9.223 4.918 -9.02 7.461 c 0.203 2.473 6.492 4.645 6.422 4.719 c -1.285 1.082 -2.137 1.813 -3.211 2.793 c -2.582 2.352 -4.367 4.094 -3.465 6.543 c 1.047 2.824 3.328 2.707 6.01 2.184 c 6.93 -1.363 18.316 -10.08 17.727 -13.297 c -0.477 -2.602 -6.836 -7.746 -10.605 -9.59 c -1.176 -0.574 -2.512 -0.875 -3.875 -0.813 m 1.086 4.465 c 0.648 -0.066 1.398 0.102 2.242 0.508 c 1.836 0.883 3.738 3.23 0 4.566 c -1.016 0.355 -4.27 -0.875 -4.176 -2.586 c 0.086 -1.586 0.855 -2.395 1.934 -2.488 m 0 0" fill="#f9f9f9" stroke="none" fill-rule="evenodd" fill-opacity="1"/></g></svg>