<!-- color: #eeeeee --><svg xmlns="http://www.w3.org/2000/svg" viewBox="0 0 48 48"><g><path d="m 23.781 11.156 l -0.125 0.063 l -4.281 2.75 l -0.063 0.031 l -0.031 0.094 l -7.844 19.375 l 0.281 0.125 l 0 0.031 l 0.063 0 l 0.125 0.063 l 0.031 -0.063 l 0.25 -0.031 l 20.625 -1.094 l 0 -0.031 l 2.656 -3.406 l 0.063 -0.063 l 0 -0.094 l -0.688 -7.281 l -0.031 -0.094 l -0.031 -0.063 l -6.719 -7.969 l -0.063 -0.063 l -4.094 -2.219 m -0.094 0.5 l 3.438 1.938 l -7.219 0.469 m 7.875 -0.031 l 6.281 7.438 l -0.844 4.406 l -4.281 -1.531 l -3.219 -5.406 l 0 -0.063 l 0.344 -4.719 m -0.531 0.031 l -0.313 4.5 l -5.625 3.563 l 0.063 -7.688 m -0.5 0.781 l -0.063 6.844 l -6.719 9.938 m 12.938 -12.875 l 3.094 5.25 l -3.219 5 l -5.344 -6.813 m 14.469 -0.031 l 0.594 6.156 l -2.281 2.844 m -13.344 -8.875 l 5.313 6.781 l -12.03 3.219 m 16.25 -7.938 l 4.313 1.531 l -1.031 5.5 l -3.531 0.188 l -0.969 -0.656 l -0.031 0 l -2.031 -1.594 m -0.563 0.156 l 2.313 1.844 l 0.031 0 l 0.438 0.281 l -13.531 0.719 m 10.75 -2.844" fill="#f9f9f9" stroke="none" fill-rule="nonzero" fill-opacity="1"/></g></svg>