<!-- color: #eeeeee --><svg xmlns="http://www.w3.org/2000/svg" viewBox="0 0 48 48"><g><path d="m 29 16 c -2.01 0 -3.824 0.766 -5.219 2 l -10.719 0 c -1.137 0 -2.063 0.926 -2.063 2.063 l 0 7.875 c 0 1.137 0.926 2.063 2.063 2.063 l 10.719 0 c 1.387 1.238 3.207 2 5.219 2 c 4.414 0 8 -3.59 8 -8 c 0 -4.41 -3.586 -8 -8 -8 m 0 1.563 c 3.563 0 6.438 2.879 6.438 6.438 c 0 3.559 -2.875 6.438 -6.438 6.438 c -3.539 0 -6.402 -2.844 -6.438 -6.375 c 0 -0.02 0 -0.043 0 -0.063 c 0 -0.031 0 -0.063 0 -0.094 c 0.051 -3.516 2.91 -6.344 6.438 -6.344 m 0 0" fill="#f9f9f9" stroke="none" fill-rule="evenodd" fill-opacity="1"/></g></svg>