<!-- color: #68727d --><svg xmlns="http://www.w3.org/2000/svg" viewBox="0 0 48 48"><g><path d="m 14 11 c -1.645 0 -3 1.355 -3 3 l 0 20 c 0 1.645 1.355 3 3 3 l 20 0 c 1.645 0 3 -1.355 3 -3 l 0 -20 c 0 -1.645 -1.355 -3 -3 -3 m -20 1 l 4 0 l 0 4 l -6 0 l 0 -2 c 0 -1.105 0.895 -2 2 -2 m 5 0 l 15 0 c 1.105 0 2 0.895 2 2 l 0 2 l -17 0 m -7 1 l 6 0 l 0 2 l -6 0 m 7 -2 l 17 0 l 0 2 l -17 0 m -7 1 l 6 0 l 0 2 l -6 0 m 7 -2 l 17 0 l 0 2 l -17 0 m -7 1 l 6 0 l 0 2 l -6 0 m 7 -2 l 17 0 l 0 2 l -17 0 m -7 1 l 6 0 l 0 2 l -6 0 m 7 -2 l 17 0 l 0 2 l -17 0 m -7 1 l 6 0 l 0 7 l -4 0 c -1.105 0 -2 -0.895 -2 -2 m 7 -5 l 17 0 l 0 5 c 0 1.105 -0.895 2 -2 2 l -15 0 m 0 -7" fill="#f9f9f9" stroke="none" fill-rule="nonzero" fill-opacity="1"/></g></svg>