<!-- color: #ccab74 --><svg xmlns="http://www.w3.org/2000/svg" viewBox="0 0 48 48"><g><path d="m 36 12 c -3.03 1.555 -13.707 9.707 -17.625 15.406 c -0.102 0.148 -0.219 0.293 -0.313 0.438 c -0.027 0.043 -0.066 0.082 -0.094 0.125 c -0.078 0.121 -0.148 0.254 -0.219 0.375 c -0.297 0.516 -0.543 1.016 -0.688 1.469 c -0.051 0.152 -0.094 0.324 -0.125 0.469 c -0.031 0.156 -0.055 0.32 -0.063 0.469 c 0 0.031 0 0.063 0 0.094 c 0 0.059 0.027 0.102 0.031 0.156 c 0.004 0.074 0.02 0.148 0.031 0.219 c -2.746 -0.238 -3.324 0.91 -4.938 4.063 l 0.969 -0.781 l -0.906 1.5 c 3.867 -0.984 5.18 -2.098 4.875 -4.688 c 0.156 0.027 0.301 0.039 0.469 0.031 c 0.008 0 0.023 0 0.031 0 c 0.02 0 0.043 0 0.063 0 c 0.16 -0.012 0.328 -0.055 0.5 -0.094 c 0.145 -0.035 0.316 -0.07 0.469 -0.125 c 2.652 -0.93 6.363 -4.621 9.719 -8.563 c 2.082 2.547 6.82 2.316 7.813 -0.938 l -4.188 -3.594 c 1.977 -2.613 3.574 -4.93 4.188 -6.03 m -12.5 2.313 c -1.191 0.164 -2.309 1.863 -1.563 4.313 l 1.031 0 l 2.594 -1.469 c -0.172 -2.156 -1.137 -2.973 -2.063 -2.844 m -6.844 6.656 c -0.301 -0.02 -0.605 0.086 -0.938 0.281 l -3.281 3.25 c 0.34 4.113 5.637 3.059 6.25 -0.469 c 0.199 -1.164 -0.727 -2.984 -2.031 -3.063 m 12.188 7.375 c -2.621 0.93 -0.172 3.207 -0.406 3.75 c 1.02 2.77 4.953 -0.109 4.563 -1.531 c -0.898 -1.539 -2.207 -2.406 -4.156 -2.219 m -8.469 3.125 c -1.234 -0.012 -1.973 1.414 -1.563 2.531 c 0.848 2.27 4.441 2.418 5.125 0.188 l -3.03 -2.625 c -0.195 -0.066 -0.355 -0.094 -0.531 -0.094 m 0 0" fill="#f9f9f9" stroke="none" fill-rule="nonzero" fill-opacity="1"/></g></svg>