<!-- color: #474747 --><svg xmlns="http://www.w3.org/2000/svg" viewBox="0 0 48 48"><g><path d="m 19.09 12 c -3.926 0 -7.094 3.168 -7.094 7.094 l 0 7.813 c 0 3.926 3.168 7.094 7.094 7.094 l 9.813 0 c 3.926 0 7.094 -3.168 7.094 -7.094 l 0 -7.813 c 0 -3.926 -3.168 -7.094 -7.094 -7.094 m -14.906 6 l 20 0 l 0 2 l -20 0 m 0 2 l 20 0 l 0 2 l -20 0 m 0 2 l 20 0 l 0 2 l -20 0 m 0 -2" fill="#f9f9f9" stroke="none" fill-rule="nonzero" fill-opacity="1"/><path d="m 34 30 l -14.996 0 l -3 8 m 18 -8" fill="#f9f9f9" stroke="none" fill-rule="nonzero" fill-opacity="1"/></g></svg>