<!-- color: #f8bd5a --><svg xmlns="http://www.w3.org/2000/svg" viewBox="0 0 48 48"><g><path d="m 23.672 10 c -7.582 0 -13.84 6.141 -14.613 14.07 c -0.004 0.02 0 0.047 0 0.07 c 0 0.008 0 0.016 0 0.023 c -0.004 0.027 0 0.047 0 0.07 c -0.086 1.141 -0.066 2.082 0 3.145 c 2.961 12.898 11.824 11.895 11.824 8.141 l -4.01 -6.922 c -0.863 -0.59 -1.762 0.418 -2.594 0.961 c -1.063 0.703 -1.145 0.813 -1.762 -0.797 c -0.719 -1.898 -1.086 -4.98 0 -7.508 c 2.246 -5.25 6.457 -8.176 11.152 -8.262 c 0.234 0 0.465 0 0.699 0 c 4.672 0.102 8.867 3.03 11.11 8.262 c 1.082 2.527 0.719 5.605 0 7.508 c -0.609 1.609 -0.699 1.5 -1.766 0.797 c -0.824 -0.547 -1.723 -1.551 -2.594 -0.961 l -4.01 6.922 c 0 3.75 8.867 4.758 11.828 -8.141 c 0.063 -1.063 0.086 -2 0 -3.145 c -0.004 -0.023 0.004 -0.043 0 -0.07 c 0 -0.008 0 -0.012 0 -0.023 c -0.004 -0.023 0.004 -0.047 0 -0.07 c -0.777 -7.938 -6.992 -14.07 -14.574 -14.07 c -0.699 0 0 0 -0.699 0 m 0.004 0" fill="#f9f9f9" stroke="none" fill-rule="nonzero" fill-opacity="1"/><path d="m 24 17 c -3 3 -3 3 -5.898 5.461 c -0.094 0.09 -0.129 0.227 -0.078 0.34 c 0.055 0.113 0.188 0.195 0.328 0.199 l 2.648 0 l 0 6.563 c 0 0.164 0.188 0.438 0.363 0.438 l 5.305 0 c 0.184 0 0.332 -0.211 0.332 -0.379 l 0 -6.652 l 2.652 0.031 c 0.137 0 0.27 -0.086 0.324 -0.199 c 0.055 -0.113 0.02 -0.25 -0.078 -0.34 c -2.898 -2.457 -2.898 -2.457 -5.898 -5.461 m 0 0" fill="#f9f9f9" stroke="none" fill-rule="nonzero" fill-opacity="1"/></g></svg>