<!-- color: #394a6f --><svg xmlns="http://www.w3.org/2000/svg" viewBox="0 0 48 48"><g><path d="m 14.13 12 c -1.227 0 -2.125 1.141 -2.125 2.438 l 0 19.13 c 0 1.301 0.898 2.438 2.125 2.438 l 19.75 0 c 1.219 0 2.125 -1.137 2.125 -2.438 l 0 -19.12 c 0 -1.297 -0.902 -2.438 -2.125 -2.438 m -19.75 1 l 19.75 0 c 0.574 0 1.125 0.594 1.125 1.438 l 0 6.844 l -4.469 5.781 l -6.531 -7.06 l -1.188 1.188 c -0.313 -0.699 -1 -1.188 -1.813 -1.188 c -1.105 0 -2 0.895 -2 2 c 0 0.813 0.488 1.5 1.188 1.813 l -3.313 3.313 l -3.875 -2.781 l 0 -9.906 c 0 -0.844 0.539 -1.438 1.125 -1.438 m 0 0" fill="#f9f9f9" stroke="none" fill-rule="nonzero" fill-opacity="1"/></g></svg>