<!-- color: #015ca7 --><svg xmlns="http://www.w3.org/2000/svg" viewBox="0 0 48 48"><g><path d="m 16.563 7 c -2.914 8.488 -5.844 17.508 -8.75 25.563 c 0.238 0.07 0.473 0.059 0.719 0.063 c 1.355 -0.008 2.703 0.004 4.063 0 c 0.184 0 0.172 -0.258 0.25 -0.375 c 1.633 -4.609 3.297 -9.207 4.938 -13.813 c 0.098 -0.285 0.184 -0.602 0.313 -0.875 c 0.852 0.016 1.715 -0.012 2.563 0 c -1.781 4.996 -3.563 10.02 -5.375 15 c 0.191 0.074 0.363 0.059 0.563 0.063 c 1.422 -0.012 2.859 0.02 4.281 0 c 1.609 -4.539 3.258 -9.09 4.875 -13.625 c 0.344 -0.926 0.363 -2.02 -0.188 -2.875 c -0.477 -0.758 -1.383 -1.152 -2.25 -1.188 c -1.188 -0.035 -2.375 -0.73 -3.563 -0.75 c 0.828 -2.344 1.676 -4.766 2.531 -7.188 m 7.938 7.844 c -0.035 0.074 -0.059 0.27 -0.094 0.344 c -2.789 7.828 -5.953 16.496 -8.969 24.813 l 4.25 0 c 0.941 -2.316 1.852 -4.617 2.594 -6.688 c 1.777 -0.035 3.531 -0.027 5.313 -0.063 c 1.129 -0.039 2.844 -0.711 3.219 -1.813 c 1.5 -4.223 3.02 -8.414 4.469 -12.656 c 0.238 -0.641 0.379 -1.336 0.188 -2 c -0.254 -0.852 -1.039 -1.523 -1.875 -1.75 c -0.727 -0.227 -1.441 -0.109 -2.188 -0.125 c -2.281 -0.004 -4.625 -0.039 -6.906 -0.063 m 4.063 2.688 c 0.141 -0.043 0.297 0.02 0.438 0 c 0.66 0.012 1.313 -0.016 1.969 0 c -1.531 4.371 -3.086 8.742 -4.594 13.13 c -0.855 0.059 -1.738 0.004 -2.594 0 c 1.559 -4.344 3.07 -8.68 4.625 -13.03 c 0.035 -0.039 0.109 -0.082 0.156 -0.094 m 0 0" fill="#f9f9f9" stroke="none" fill-rule="nonzero" fill-opacity="1"/></g></svg>