<!-- color: #71a337 --><svg xmlns="http://www.w3.org/2000/svg" viewBox="0 0 48 48"><g><path d="m 12 12.996 c 0 6.777 0 13.555 0 20.332 l 0 0.664 c 7 0 15.195 0.012 22 0 c 0.012 -7.195 -0.008 -14.832 0 -20.996 c -7.547 -0.023 -15.543 0.02 -22 0 m 1 1 l 20 0 l 0 19 l -20 0 m 0 -19" fill="#f9f9f9" stroke="none" fill-rule="nonzero" fill-opacity="1"/><path d="m 32.996 12 l 0 24 l 3 0 l 0 -2 l -1 0 l 0 -22 m -2 0" fill="#f9f9f9" stroke="none" fill-rule="nonzero" fill-opacity="1"/><path d="m 16.457 16 l 7.082 0 c 0.805 0 1.461 0.676 1.461 1.508 l 0 6.988 c 0 0.832 -0.656 1.504 -1.461 1.504 l -7.082 0 c -0.805 0 -1.457 -0.672 -1.457 -1.504 l 0 -6.988 c 0 -0.832 0.652 -1.508 1.457 -1.508 m 0 0" fill="#f9f9f9" stroke="none" fill-rule="nonzero" fill-opacity="1"/><path d="m 26 16 l 2 0 l 0 4 l -2 0 m 0 -4" fill="#f9f9f9" stroke="none" fill-rule="nonzero" fill-opacity="1"/><path d="m 29 16 l 2 0 l 0 4 l -2 0 m 0 -4" fill="#f9f9f9" stroke="none" fill-rule="nonzero" fill-opacity="1"/><path d="m 26 21 l 5 0 l 0 2 l -5 0 m 0 -2" fill="#f9f9f9" stroke="none" fill-rule="nonzero" fill-opacity="1"/><path d="m 26 24 l 5 0 l 0 2 l -5 0 m 0 -2" fill="#f9f9f9" stroke="none" fill-rule="nonzero" fill-opacity="1"/><path d="m 15 27 l 16 0 l 0 2 l -16 0 m 0 -2" fill="#f9f9f9" stroke="none" fill-rule="nonzero" fill-opacity="1"/><path d="m 15 30 l 2.996 0 l 0 1 l -2.996 0 m 0 -1" fill="#f9f9f9" stroke="none" fill-rule="nonzero" fill-opacity="1"/><path d="m 19 30 l 3 0 l 0 1 l -3 0 m 0 -1" fill="#f9f9f9" stroke="none" fill-rule="nonzero" fill-opacity="1"/><path d="m 23 30 l 2 0 l 0 1 l -2 0 m 0 -1" fill="#f9f9f9" stroke="none" fill-rule="nonzero" fill-opacity="1"/><path d="m 26 30 l 2 0 l 0 1 l -2 0 m 0 -1" fill="#f9f9f9" stroke="none" fill-rule="nonzero" fill-opacity="1"/><path d="m 29 30 l 2 0 l 0 1 l -2 0 m 0 -1" fill="#f9f9f9" stroke="none" fill-rule="nonzero" fill-opacity="1"/></g></svg>