<!-- color: #6294af --><svg xmlns="http://www.w3.org/2000/svg" viewBox="0 0 48 48"><g><path d="m 21.543 23.73 c -0.617 0 -1.102 0.52 -1.102 1.145 l 0 5 c 0 0.625 0.484 1.121 1.102 1.121 l 4.91 0 c 0.617 0 1.102 -0.496 1.102 -1.121 l 0 -5 c 0 -0.625 -0.484 -1.145 -1.102 -1.145 m -3.324 1.512 c 0.523 0.027 1.059 0.023 1.586 0.023 l 0 1.902 l 0.742 0 l -1.508 2.32 l -1.613 -2.344 l 0.793 0 m 0 -1.902" fill="#f9f9f9" stroke="none" fill-rule="nonzero" fill-opacity="1"/><path d="m 12.13 22.973 c -0.613 0 -1.125 0.496 -1.125 1.121 l 0 5 c 0 0.625 0.512 1.145 1.125 1.145 l 4.914 0 c 0.613 0 1.098 -0.52 1.098 -1.145 l 0 -5 c 0 -0.625 -0.484 -1.121 -1.098 -1.121 m -2.406 2.035 l 0 0.805 l 1.867 0 c -0.027 0.535 -0.023 1.082 -0.023 1.617 l -1.867 0 l 0 0.754 l -2.305 -1.535 l 2.328 -1.645 m 0 0.004" fill="#f9f9f9" stroke="none" fill-rule="nonzero" fill-opacity="1"/><path d="m 30.957 22.973 c -0.613 0 -1.098 0.496 -1.098 1.121 l 0 5 c 0 0.625 0.484 1.145 1.098 1.145 l 4.914 0 c 0.613 0 1.125 -0.52 1.125 -1.145 l 0 -5 c 0 -0.625 -0.512 -1.121 -1.125 -1.121 m -2.66 2.035 l 2.301 1.563 l -2.328 1.613 l 0 -0.781 l -1.844 0 c 0.031 -0.531 0 -1.078 0 -1.613 l 1.871 0 m 0 -0.781" fill="#f9f9f9" stroke="none" fill-rule="nonzero" fill-opacity="1"/><path d="m 21.363 15 c -0.613 0 -1.102 0.496 -1.102 1.121 l 0 5 c 0 0.625 0.488 1.145 1.102 1.145 l 4.914 0 c 0.613 0 1.098 -0.52 1.098 -1.145 l 0 -5 c 0 -0.625 -0.484 -1.121 -1.098 -1.121 m -2.406 1.512 l 1.512 2.32 l -0.77 0 l 0 1.902 c -0.527 0 -1.035 -0.004 -1.563 0.023 l 0 -1.902 l -0.793 0 m 1.613 -2.344" fill="#f9f9f9" stroke="none" fill-rule="nonzero" fill-opacity="1"/></g></svg>