<!-- color: #4a75a2 --><svg xmlns="http://www.w3.org/2000/svg" viewBox="0 0 48 48"><g><path d="m 17.906 17 c -0.234 0 -0.449 0.102 -0.625 0.281 c -0.359 0.355 -0.359 0.922 0 1.281 l 4.813 4.813 c -0.063 0.195 -0.094 0.406 -0.094 0.625 c 0 0.504 0.191 0.961 0.5 1.313 l -5.938 10.938 c -0.129 0.238 -0.066 0.551 0.156 0.688 c 0.227 0.141 0.527 0.051 0.656 -0.188 l 5.906 -10.875 c 0.223 0.086 0.465 0.125 0.719 0.125 c 0.738 0 1.371 -0.402 1.719 -1 l 11.344 0 c 0.516 0 0.938 -0.422 0.938 -0.938 l 0 -0.125 c 0 -0.516 -0.422 -0.938 -0.938 -0.938 l -11.344 0 c -0.348 -0.598 -0.98 -1 -1.719 -1 c -0.219 0 -0.43 0.031 -0.625 0.094 l -4.813 -4.813 c -0.18 -0.18 -0.422 -0.281 -0.656 -0.281 m 0 0" fill="#f9f9f9" stroke="none" fill-rule="nonzero" fill-opacity="1"/></g></svg>