<!-- color: #3eacf1 --><svg xmlns="http://www.w3.org/2000/svg" viewBox="0 0 48 48"><g><path d="m 23.773 27 l 0.457 0 c 0.977 0 1.77 0.793 1.77 1.773 l 0 8.457 c 0 0.977 -0.793 1.77 -1.77 1.77 l -0.457 0 c -0.98 0 -1.773 -0.793 -1.773 -1.77 l 0 -8.457 c 0 -0.98 0.793 -1.773 1.773 -1.773 m 0 0" fill="#f9f9f9" stroke="none" fill-rule="nonzero" fill-opacity="1"/><path d="m 26 23 c 0 1.105 -0.895 2 -2 2 c -1.105 0 -2 -0.895 -2 -2 c 0 -1.105 0.895 -2 2 -2 c 1.105 0 2 0.895 2 2 m 0 0" fill="#f9f9f9" stroke="none" fill-rule="nonzero" fill-opacity="1"/><path d="m 19 26 c 0 -3 4 -7 7 -7 l 0 -2 c -4 0 -9 5 -9 9 m 2 0" fill="#f9f9f9" stroke="none" fill-rule="nonzero" fill-opacity="1"/><path d="m 15 26 l -2 0 c 0 -5.996 7 -13 13 -13 c 0 0.668 0 -3.629 0 2 c -5 0 -10.996 5.996 -10.996 10.996 m -0.004 0.004" fill="#f9f9f9" stroke="none" fill-rule="nonzero" fill-opacity="1"/><path d="m 11 26 l -2 0 c 0 -8 9 -17 17 -17 l 0 2 c -7 0 -14.996 8 -14.996 14.996 m -0.004 0.004" fill="#f9f9f9" stroke="none" fill-rule="nonzero" fill-opacity="1"/></g></svg>