<!-- color: #a74ea7 --><svg xmlns="http://www.w3.org/2000/svg" viewBox="0 0 48 48"><g><path d="m 11.875 14 c -0.484 0 -0.875 0.395 -0.875 0.875 l 0 18.281 c 0 0.477 0.391 0.844 0.875 0.844 l 24.25 0 c 0.484 0 0.875 -0.367 0.875 -0.844 l 0 -18.281 c 0 -0.48 -0.383 -0.875 -0.875 -0.875 m -23.12 1 l 2 0 l 0 2 l -2 0 m 4 -2 l 2 0 l 0 2 l -2 0 m 4 -2 l 2 0 l 0 2 l -2 0 m 4 -2 l 2 0 l 0 2 l -2 0 m 4 -2 l 2 0 l 0 2 l -2 0 m 4 -2 l 2 0 l 0 2 l -2 0 m -20 1 l 22 0 l 0 12 l -22 0 m 11 -10.5 c -2.48 0 -4.5 2.01 -4.5 4.5 c 0 2.48 2.02 4.5 4.5 4.5 c 2.48 0 4.5 -2.02 4.5 -4.5 c 0 -2.488 -2.02 -4.5 -4.5 -4.5 m 0 2.5 c 1.105 0 2 0.895 2 2 c 0 1.102 -0.895 2 -2 2 c -1.105 0 -2 -0.898 -2 -2 c 0 -1.105 0.895 -2 2 -2 m -11 9 l 2 0 l 0 2 l -2 0 m 4 -2 l 2 0 l 0 2 l -2 0 m 4 -2 l 2 0 l 0 2 l -2 0 m 4 -2 l 2 0 l 0 2 l -2 0 m 4 -2 l 2 0 l 0 2 l -2 0 m 4 -2 l 2 0 l 0 2 l -2 0 m 0 -2" fill="#f9f9f9" stroke="none" fill-rule="nonzero" fill-opacity="1"/></g></svg>