<!-- color: #40acc1 --><svg xmlns="http://www.w3.org/2000/svg" viewBox="0 0 48 48"><g><path d="m 14.781 11 c -0.98 0 -1.781 0.801 -1.781 1.781 l 0 22.438 c 0 0.98 0.801 1.781 1.781 1.781 l 20.438 0 c 0.984 0 1.781 -0.801 1.781 -1.781 l 0 -18.219 l -6 -6 m -14.656 3 l 15.313 0 c 0.195 0 0.344 0.148 0.344 0.344 l 0 1.313 c 0 0.195 -0.148 0.344 -0.344 0.344 l -15.313 0 c -0.195 0 -0.344 -0.148 -0.344 -0.344 l 0 -1.313 c 0 -0.195 0.148 -0.344 0.344 -0.344 m 0 6 l 15.313 0 c 0.195 0 0.344 0.148 0.344 0.344 l 0 1.281 c 0 0.199 -0.148 0.375 -0.344 0.375 l -15.313 0 c -0.195 0 -0.344 -0.176 -0.344 -0.375 l 0 -1.281 c 0 -0.195 0.148 -0.344 0.344 -0.344 m 0 6 l 15.313 0 c 0.195 0 0.344 0.148 0.344 0.344 l 0 1.313 c 0 0.195 -0.148 0.344 -0.344 0.344 l -15.313 0 c -0.195 0 -0.344 -0.148 -0.344 -0.344 l 0 -1.313 c 0 -0.195 0.148 -0.344 0.344 -0.344 m 0 6 l 15.313 0 c 0.195 0 0.344 0.148 0.344 0.344 l 0 1.281 c 0 0.195 -0.148 0.375 -0.344 0.375 l -15.313 0 c -0.195 0 -0.344 -0.18 -0.344 -0.375 l 0 -1.281 c 0 -0.195 0.148 -0.344 0.344 -0.344 m 0 0" fill="#f9f9f9" stroke="none" fill-rule="nonzero" fill-opacity="1"/></g></svg>