<!-- color: #7f827d --><svg xmlns="http://www.w3.org/2000/svg" viewBox="0 0 48 48"><g><path d="m 12.813 12 c -0.438 0.047 -0.816 0.465 -0.813 0.906 l 0 15.09 c 0 0.473 0.527 1 1 1 l 9 0 l 0 4 l -7 0 l 0 3 l 18 0 l 0 -3 l -7 0 l 0 -4 l 9 0 c 0.473 0 1 -0.527 1 -1 l 0 -15.09 c 0 -0.473 -0.438 -0.906 -0.906 -0.906 m -20.09 2 l 18 0 c 0.469 0 1 0.586 1 1 l 0 11 c 0 0.469 -0.566 1 -1 1 l -18 0 c -0.527 0 -1 -0.48 -1 -1 l 0 -11 c 0 -0.406 0.512 -1 1 -1 m 1.5 1 c -0.828 0 -1.5 0.672 -1.5 1.5 c 0 0.656 0.414 1.203 1 1.406 l 0 8.094 l 1 0 l 0 -8.094 c 0.586 -0.203 1 -0.75 1 -1.406 c 0 -0.828 -0.672 -1.5 -1.5 -1.5 m 4.5 0 l 0 8.094 c -0.586 0.203 -1 0.75 -1 1.406 c 0 0.828 0.672 1.5 1.5 1.5 c 0.828 0 1.5 -0.672 1.5 -1.5 c 0 -0.656 -0.414 -1.203 -1 -1.406 l 0 -8.094 m 4.5 0 c -0.828 0 -1.5 0.672 -1.5 1.5 c 0 0.656 0.414 1.203 1 1.406 l 0 8.094 l 1 0 l 0 -8.094 c 0.586 -0.203 1 -0.75 1 -1.406 c 0 -0.828 -0.672 -1.5 -1.5 -1.5 m 4.5 0 l 0 8.094 c -0.586 0.203 -1 0.75 -1 1.406 c 0 0.828 0.672 1.5 1.5 1.5 c 0.828 0 1.5 -0.672 1.5 -1.5 c 0 -0.656 -0.414 -1.203 -1 -1.406 l 0 -8.094 m -1 0" fill="#f9f9f9" stroke="none" fill-rule="nonzero" fill-opacity="1"/></g></svg>