<!-- color: #858587 --><svg xmlns="http://www.w3.org/2000/svg" viewBox="0 0 48 48"><g><path d="m 24 9 c -8.281 0 -15 6.719 -15 15 c 0 8.285 6.719 15 15 15 c 8.285 0 15 -6.715 15 -15 c 0 -8.281 -6.715 -15 -15 -15 m 0 2 c 7.18 0 13 5.82 13 13 c 0 7.18 -5.82 13 -13 13 c -7.18 0 -13 -5.82 -13 -13 c 0 -7.18 5.82 -13 13 -13 m 0 2 c -6.074 0 -11 4.926 -11 11 c 0 6.074 4.926 11 11 11 c 6.074 0 11 -4.926 11 -11 c 0 -6.074 -4.926 -11 -11 -11 m 0 2 c 4.969 0 9 4.03 9 9 c 0 4.969 -4.03 9 -9 9 c -4.969 0 -9 -4.03 -9 -9 c 0 -4.969 4.03 -9 9 -9 m 0 2 c -3.867 0 -7 3.133 -7 7 c 0 3.863 3.133 7 7 7 c 3.863 0 7 -3.137 7 -7 c 0 -3.867 -3.137 -7 -7 -7 m 0 2 c 2.762 0 5 2.238 5 5 c 0 2.762 -2.238 5 -5 5 c -2.762 0 -5 -2.238 -5 -5 c 0 -2.762 2.238 -5 5 -5 m 0 2 c -1.656 0 -3 1.344 -3 3 c 0 1.656 1.344 3 3 3 c 1.656 0 3 -1.344 3 -3 c 0 -1.656 -1.344 -3 -3 -3 m 0 0" fill="#f9f9f9" stroke="none" fill-rule="evenodd" fill-opacity="1"/></g></svg>