<!-- color: #474747 --><svg xmlns="http://www.w3.org/2000/svg" viewBox="0 0 48 48"><g><path d="m 34.938 11 l -2.477 0.563 l -14.496 3.359 l -1.559 0.367 l 0 16.531 l 4.04 0 l 0 -13.332 l 10.445 -2.41 l 0 14.207 l 4.051 0 m 0 -19.285" fill="#f9f9f9" stroke="none" fill-rule="nonzero" fill-opacity="1"/><path d="m 20.08 30.715 c 1 1.797 0.102 4.285 -2.02 5.559 c -2.121 1.273 -4.652 0.848 -5.652 -0.949 c -1 -1.797 -0.094 -4.289 2.027 -5.563 c 2.121 -1.27 4.645 -0.848 5.645 0.953 m 0 0" fill="#f9f9f9" stroke="none" fill-rule="nonzero" fill-opacity="1"/><path d="m 34.594 29.26 c 1 1.797 0.094 4.285 -2.027 5.559 c -2.121 1.273 -4.652 0.848 -5.656 -0.949 c -1 -1.797 -0.094 -4.289 2.027 -5.563 c 2.121 -1.273 4.656 -0.844 5.656 0.953 m 0 0" fill="#f9f9f9" stroke="none" fill-rule="nonzero" fill-opacity="1"/></g></svg>