<!-- color: #dbdbdb --><svg xmlns="http://www.w3.org/2000/svg" viewBox="0 0 48 48"><g><path d="m 11.875 12 c -0.477 0.055 -0.875 0.512 -0.875 1 l 0 17.789 c 0 0.523 0.461 0.996 0.973 0.996 l 8.773 0 l 0 1.781 l 6.5 0 l 0 -1.781 l 8.773 0 c 0.508 0 0.973 -0.473 0.973 -0.996 l 0 -17.789 c 0 -0.523 -0.465 -1 -0.973 -1 m -22.859 1.559 c 0.039 -0.004 0.082 -0.004 0.121 0 l 21.516 0 c 0.344 0 0.648 0.32 0.648 0.668 l 0 15.328 c 0 0.348 -0.305 0.668 -0.648 0.668 l -21.516 0 c -0.34 0 -0.648 -0.32 -0.648 -0.668 l 0 -15.328 c -0.008 -0.313 0.23 -0.609 0.527 -0.668 m 2.824 20.813 l 0 1.629 l 16.25 0 l 0 -1.629 m -16.25 0" fill="#f9f9f9" stroke="none" fill-rule="nonzero" fill-opacity="1"/><path d="m 18.613 23.602 l 0 1.398 l 10 0 l 0 -1.398 m -10 0" fill="#f9f9f9" stroke="none" fill-rule="nonzero" fill-opacity="1"/><path d="m 17.848 23.602 l 0 1.398 l -1.539 0 l 0 -1.398 m 1.539 0" fill="#f9f9f9" stroke="none" fill-rule="nonzero" fill-opacity="1"/><path d="m 15.539 23.602 l 0 1.398 l -1.539 0 l 0 -1.398 m 1.539 0" fill="#f9f9f9" stroke="none" fill-rule="nonzero" fill-opacity="1"/><path d="m 32.461 23.602 l 0 1.398 l -0.77 0 l 0 -1.398 m 0.77 0" fill="#f9f9f9" stroke="none" fill-rule="nonzero" fill-opacity="1"/><path d="m 30.922 23.602 l 0 1.398 l -1.539 0 l 0 -1.398 m 1.539 0" fill="#f9f9f9" stroke="none" fill-rule="nonzero" fill-opacity="1"/><path d="m 34 23.602 l 0 1.398 l -0.77 0 l 0 -1.398 m 0.77 0" fill="#f9f9f9" stroke="none" fill-rule="nonzero" fill-opacity="1"/><path d="m 30.922 18 l 1.539 0 l 0 4.199 l -1.539 0 m 0 -4.199" fill="#f9f9f9" stroke="none" fill-rule="nonzero" fill-opacity="1"/><path d="m 30.16 20.801 l 0 1.398 l -1.539 0 l 0 -1.398 m 1.539 0" fill="#f9f9f9" stroke="none" fill-rule="nonzero" fill-opacity="1"/><path d="m 27.848 20.801 l 0 1.398 l -1.539 0 l 0 -1.398 m 1.539 0" fill="#f9f9f9" stroke="none" fill-rule="nonzero" fill-opacity="1"/><path d="m 25.539 20.801 l 0 1.398 l -1.539 0 l 0 -1.398 m 1.539 0" fill="#f9f9f9" stroke="none" fill-rule="nonzero" fill-opacity="1"/><path d="m 23.23 20.801 l 0 1.398 l -1.539 0 l 0 -1.398 m 1.539 0" fill="#f9f9f9" stroke="none" fill-rule="nonzero" fill-opacity="1"/><path d="m 20.926 20.801 l 0 1.398 l -1.539 0 l 0 -1.398 m 1.539 0" fill="#f9f9f9" stroke="none" fill-rule="nonzero" fill-opacity="1"/><path d="m 18.613 20.801 l 0 1.398 l -1.535 0 l 0 -1.398 m 1.535 0" fill="#f9f9f9" stroke="none" fill-rule="nonzero" fill-opacity="1"/><path d="m 16.309 20.801 l 0 1.398 l -2.309 0 l 0 -1.398 m 2.309 0" fill="#f9f9f9" stroke="none" fill-rule="nonzero" fill-opacity="1"/><path d="m 34 20.801 l 0 1.398 l -0.77 0 l 0 -1.398 m 0.77 0" fill="#f9f9f9" stroke="none" fill-rule="nonzero" fill-opacity="1"/><path d="m 34 18 l 0 1.398 l -0.77 0 l 0 -1.398 m 0.77 0" fill="#f9f9f9" stroke="none" fill-rule="nonzero" fill-opacity="1"/><path d="m 29.383 18 l 0 1.398 l -1.535 0 l 0 -1.398 m 1.535 0" fill="#f9f9f9" stroke="none" fill-rule="nonzero" fill-opacity="1"/><path d="m 27.08 18 l 0 1.398 l -1.539 0 l 0 -1.398 m 1.539 0" fill="#f9f9f9" stroke="none" fill-rule="nonzero" fill-opacity="1"/><path d="m 24.77 18 l 0 1.398 l -1.539 0 l 0 -1.398 m 1.539 0" fill="#f9f9f9" stroke="none" fill-rule="nonzero" fill-opacity="1"/><path d="m 22.461 18 l 0 1.398 l -1.535 0 l 0 -1.398 m 1.535 0" fill="#f9f9f9" stroke="none" fill-rule="nonzero" fill-opacity="1"/><path d="m 20.15 18 l 0 1.398 l -1.539 0 l 0 -1.398 m 1.539 0" fill="#f9f9f9" stroke="none" fill-rule="nonzero" fill-opacity="1"/><path d="m 17.848 18 l 0 1.398 l -1.539 0 l 0 -1.398 m 1.539 0" fill="#f9f9f9" stroke="none" fill-rule="nonzero" fill-opacity="1"/><path d="m 15.539 18 l 0 1.398 l -1.539 0 l 0 -1.398 m 1.539 0" fill="#f9f9f9" stroke="none" fill-rule="nonzero" fill-opacity="1"/><path d="m 30.922 18 l 0 1.398 l -0.77 0 l 0 -1.398 m 0.77 0" fill="#f9f9f9" stroke="none" fill-rule="nonzero" fill-opacity="1"/></g></svg>