<!-- color: #9974ae --><svg xmlns="http://www.w3.org/2000/svg" viewBox="0 0 48 48"><g><path d="m 16 11 l 0.094 0.625 l 2.5 13.844 c 0.164 0.871 0.535 1.754 1.125 2.438 c 0.484 0.566 1.238 0.828 2.094 1 c 0.18 0.383 0.047 1.211 -0.094 2.094 c -0.07 0.438 -0.059 0.891 0 1.344 c 0.02 0.164 0.156 0.277 0.219 0.438 c -0.504 0.129 -1.094 0.254 -1.563 0.344 c -0.32 0.059 -0.621 0.129 -0.875 0.438 c -0.141 0.172 -0.109 0.43 -0.125 0.656 c -0.695 0.055 -1.293 0.199 -1.656 0.563 c -0.598 0.715 -0.656 1.375 -0.719 2.219 l 14 0 l -0.094 -0.563 c -0.098 -0.543 -0.109 -1.191 -0.563 -1.656 c -0.363 -0.371 -1.078 -0.512 -1.781 -0.563 c -0.023 -0.223 0.043 -0.484 -0.094 -0.656 c -0.254 -0.309 -0.563 -0.379 -0.875 -0.438 c -0.457 -0.09 -0.973 -0.223 -1.469 -0.344 c 0.066 -0.16 0.227 -0.273 0.25 -0.438 c 0.055 -0.453 -0.055 -0.906 -0.125 -1.344 c -0.137 -0.836 -0.266 -1.59 -0.125 -2 c 0.008 -0.02 -0.008 -0.074 0 -0.094 c 0.91 -0.164 1.715 -0.414 2.219 -1 c 0.59 -0.68 0.965 -1.566 1.125 -2.438 l 2.438 -13.844 l 0.094 -0.625 m -3 3 c 0 0 -0.906 2.16 -2.25 2.25 c -1.27 0.086 -1.656 0.266 -1.688 0.313 l 1.344 5.188 c 0.008 0.035 0.023 0.09 0.031 0.125 c 0.242 1.129 -0.453 2.504 -1.656 3.375 c -1.527 1.105 -3.461 0.996 -4.344 -0.219 c -0.887 -1.211 -0.371 -3.082 1.156 -4.188 c 1.184 -0.855 2.625 -0.98 3.625 -0.438 l -1.406 -5.219 l -0.031 -0.031 c 0 0 0.75 -0.781 1.625 -1 c 0.289 -0.074 0.609 -0.105 0.906 0 c 1.188 0.418 2.688 -0.156 2.688 -0.156 m 0 0" fill="#f9f9f9" stroke="none" fill-rule="nonzero" fill-opacity="1"/></g></svg>