<!-- color: #8d65ba --><svg xmlns="http://www.w3.org/2000/svg" viewBox="0 0 48 48"><g><path d="m 24 12 c -1.016 0 -2.047 0.102 -3.063 0.313 c -2 0.422 -3.918 1.32 -5.719 2.406 c -2.816 1.699 -5.402 4.03 -7.652 6.656 c -0.414 0.488 -0.813 0.973 -1.188 1.5 c -0.512 0.703 -0.512 1.547 0 2.25 c 1.145 1.605 2.523 3.035 3.906 4.344 c 1.395 1.313 2.891 2.52 4.469 3.531 c 0.039 0.027 0.082 0.035 0.125 0.063 c 0.07 0.047 0.141 0.109 0.215 0.156 c 0.254 0.156 0.496 0.289 0.75 0.438 c 0.293 0.164 0.582 0.32 0.875 0.469 c 0.098 0.047 0.188 0.109 0.281 0.156 c 1.121 0.547 2.273 0.98 3.469 1.281 c 1.168 0.293 2.355 0.438 3.531 0.438 c 1.191 0 2.332 -0.145 3.496 -0.438 c 3.777 -0.949 7.223 -3.285 10.219 -6.094 c 1.387 -1.305 2.754 -2.738 3.902 -4.344 c 0.504 -0.703 0.504 -1.547 0 -2.25 c -0.375 -0.527 -0.801 -1.012 -1.219 -1.5 c -2.113 -2.477 -4.52 -4.703 -7.152 -6.375 c -0.148 -0.105 -0.313 -0.184 -0.469 -0.281 c -0.465 -0.289 -0.918 -0.547 -1.375 -0.781 c -0.133 -0.07 -0.277 -0.152 -0.406 -0.219 l -0.031 0.031 c -1.262 -0.629 -2.563 -1.152 -3.906 -1.438 c -1.012 -0.211 -2.01 -0.309 -3.059 -0.313 m 0 3 c 1.746 0 3.367 0.512 4.746 1.375 l -2.621 3.125 c -0.652 -0.309 -1.359 -0.5 -2.125 -0.5 c -2.762 0 -5 2.238 -5 5 c 0 1.074 0.328 2.059 0.906 2.875 l -2.625 3.125 c -1.422 -1.594 -2.281 -3.699 -2.281 -6 c 0 -4.969 4.03 -9 9 -9 m 6.715 3 c 1.422 1.594 2.281 3.699 2.281 6 c 0 4.969 -4.03 9 -8.996 9 c -1.75 0 -3.367 -0.512 -4.75 -1.375 l 2.625 -3.125 c 0.648 0.309 1.359 0.5 2.125 0.5 c 2.762 0 4.996 -2.242 4.996 -5 c 0 -1.074 -0.328 -2.059 -0.906 -2.875 m -2.496 -1.094 c 0.027 -0.008 0.063 0.004 0.094 0 l -1.688 1.969 c 0 -0.969 0.68 -1.781 1.594 -1.969 m 2.277 1.313 c 0.074 0.207 0.125 0.426 0.125 0.656 c 0 1.105 -0.895 2 -1.996 2 c -0.109 0 -0.211 -0.016 -0.313 -0.031 m 2.184 -2.625" fill="#f9f9f9" stroke="none" fill-rule="nonzero" fill-opacity="1"/></g></svg>