<!-- color: #b6b6b6 --><svg xmlns="http://www.w3.org/2000/svg" viewBox="0 0 48 48"><g><path d="m 23.844 12 c -0.988 0.004 -1.918 0.105 -2.75 0.25 c -2.449 0.43 -2.906 1.316 -2.906 2.969 l 0 2.188 l 5.813 0 l 0 0.719 l -7.969 0 c -1.684 0 -3.164 1 -3.625 2.906 c -0.531 2.18 -0.559 3.539 0 5.813 c 0.41 1.695 1.379 2.906 3.063 2.906 l 1.719 0 l 0 -2.906 c 0 -0.438 0.09 -0.855 0.25 -1.25 l -1.219 -0.563 l -2.219 -1.031 l 2 -0.938 l 0.219 -0.094 l 2.063 -0.969 l 11.156 0 c 0.352 -0.469 0.563 -1.027 0.563 -1.625 l 0 -5.156 c 0 -1.551 -1.551 -2.711 -3.125 -2.969 c -0.992 -0.164 -2.043 -0.254 -3.03 -0.25 m -3.125 1.75 c 0.598 0 1.094 0.488 1.094 1.094 c 0 0.602 -0.496 1.094 -1.094 1.094 c -0.602 0 -1.094 -0.492 -1.094 -1.094 c 0 -0.605 0.488 -1.094 1.094 -1.094 m 10.09 4.375 l 0 2.531 c 0 0.48 -0.098 0.938 -0.281 1.344 l 2.844 0 c 0 0 0.473 0.281 0.594 1.438 c 0 0.012 0 0.02 0 0.031 c 0.016 0.156 0.031 0.34 0.031 0.531 c 0 1.258 -0.313 1.77 -0.469 1.938 c -0.051 0.055 -0.094 0.063 -0.094 0.063 l -15.16 0 l -0.063 -0.031 c -0.164 0.383 -0.25 0.805 -0.25 1.219 l 0 5.469 c 0 1.551 1.344 2.461 2.875 2.906 c 1.832 0.531 3.84 0.633 6.03 0 c 1.457 -0.418 2.875 -1.258 2.875 -2.906 l 0 -2.188 l -5.75 0 l 0 -0.719 l 8.656 0 c 1.68 0 2.32 -1.168 2.906 -2.906 c 0.605 -1.793 0.574 -3.516 0 -5.813 c -0.418 -1.66 -1.223 -2.906 -2.906 -2.906 m -5.406 13.813 c 0.598 0 1.063 0.461 1.063 1.063 c 0 0.602 -0.461 1.125 -1.063 1.125 c -0.602 0 -1.094 -0.523 -1.094 -1.125 c 0 -0.602 0.492 -1.063 1.094 -1.063 m 0 0" fill="#f9f9f9" stroke="none" fill-rule="nonzero" fill-opacity="1"/></g></svg>