<!-- color: #145fbb --><svg xmlns="http://www.w3.org/2000/svg" viewBox="0 0 48 48"><g><path d="m 15.289 17.609 c -3.477 0 -6.289 2.902 -6.289 6.492 c 0 3.59 2.813 6.488 6.289 6.488 c 1.844 0 3.559 -0.285 4.711 -1.59 l 0 6 c 0 0.898 0.629 1.5 1.5 1.5 c 0.871 0 1.5 -0.602 1.5 -1.5 l 0 -16 c 0 -0.898 -0.617 -1.395 -1.488 -1.395 c -0.871 0 -1.457 0.496 -1.512 1.395 l -0.043 0.711 l 0.043 2.289 l 2 0 c -1.082 1.543 -1.848 2.508 -3 4 c -1.188 -1.508 -1.816 -2.488 -3 -4 l 2 0 l 0 -4 c -0.633 -0.215 -2.01 -0.395 -2.711 -0.395 m 0 0.004" fill="#f9f9f9" stroke="none" fill-rule="nonzero" fill-opacity="1"/><path d="m 26.453 11.5 c -0.871 0 -1.453 0.602 -1.453 1.5 l 0 16 c 0 0.902 0.582 1.59 1.453 1.59 c 0.871 0 1.469 -0.691 1.547 -1.59 l 0.043 -0.516 l -0.043 -2.484 l -2 0 c 1.129 -1.441 1.867 -2.555 3 -4 c 1.184 1.516 1.813 2.492 3 4 l -2 0 l 0 4 c 0.633 0.219 2.01 0.59 2.711 0.59 c 3.477 0 6.289 -2.902 6.289 -6.488 c 0 -3.59 -2.813 -6.492 -6.289 -6.492 c -1.844 0 -3.559 1.09 -4.711 2.395 l 0 -7 c 0 -0.902 -0.672 -1.5 -1.547 -1.5 m 0 -0.004" fill="#f9f9f9" stroke="none" fill-rule="nonzero" fill-opacity="1"/></g></svg>