<!-- color: #91c8ff --><svg xmlns="http://www.w3.org/2000/svg" viewBox="0 0 48 48"><g><path d="m 23 30.5 c 0 3.039 -2.461 5.5 -5.5 5.5 c -3.039 0 -5.5 -2.461 -5.5 -5.5 c 0 -3.039 2.461 -5.5 5.5 -5.5 c 3.039 0 5.5 2.461 5.5 5.5 m 0 0" fill="#f9f9f9" stroke="none" fill-rule="nonzero" fill-opacity="1"/><path d="m 36 30.5 c 0 3.039 -2.461 5.5 -5.5 5.5 c -3.039 0 -5.5 -2.461 -5.5 -5.5 c 0 -3.039 2.461 -5.5 5.5 -5.5 c 3.039 0 5.5 2.461 5.5 5.5 m 0 0" fill="#f9f9f9" stroke="none" fill-rule="nonzero" fill-opacity="1"/><path d="m 23 17.5 c 0 3.039 -2.461 5.5 -5.5 5.5 c -3.039 0 -5.5 -2.461 -5.5 -5.5 c 0 -3.039 2.461 -5.5 5.5 -5.5 c 3.039 0 5.5 2.461 5.5 5.5 m 0 0" fill="#f9f9f9" stroke="none" fill-rule="nonzero" fill-opacity="1"/><path d="m 36 17.5 c 0 3.039 -2.461 5.5 -5.5 5.5 c -3.039 0 -5.5 -2.461 -5.5 -5.5 c 0 -3.039 2.461 -5.5 5.5 -5.5 c 3.039 0 5.5 2.461 5.5 5.5 m 0 0" fill="#f9f9f9" stroke="none" fill-rule="nonzero" fill-opacity="1"/></g></svg>