<!-- color: #3297ee --><svg xmlns="http://www.w3.org/2000/svg" viewBox="0 0 48 48"><g><path d="m 32.844 31 l 3.156 2 l -22 0 c -0.617 0 -1 -0.418 -1 -1 c 0 -0.523 0.441 -1 1 -1 m 18.844 0" fill="#f9f9f9" stroke="none" fill-rule="nonzero" fill-opacity="1"/><path d="m 13.5 29 c -0.824 0 -1.5 0.676 -1.5 1.5 c 0 0.824 0.676 1.5 1.5 1.5 c 0.824 0 1.5 -0.676 1.5 -1.5 c 0 -0.824 -0.676 -1.5 -1.5 -1.5 m 0 1 c 0.277 0 0.5 0.223 0.5 0.5 c 0 0.277 -0.223 0.5 -0.5 0.5 c -0.277 0 -0.5 -0.223 -0.5 -0.5 c 0 -0.277 0.223 -0.5 0.5 -0.5 m 0 0" fill="#f9f9f9" stroke="none" fill-rule="nonzero" fill-opacity="1"/><path d="m 16 28 l 16 0 l 0 1 l -16 0 m 0 -1" fill="#f9f9f9" stroke="none" fill-rule="nonzero" fill-opacity="1"/><path d="m 12 30 l 17 -14.996 c -1 0 -1.797 0 -2.504 0.5 l -14 12 c -0.5 0.5 -0.5 1.5 -0.5 2.5 m 0 -0.004" fill="#f9f9f9" stroke="none" fill-rule="nonzero" fill-opacity="1"/><path d="m 12 29.5 l 1 0 l 0 1 l -1 0 m 0 -1" fill="#f9f9f9" stroke="none" fill-rule="nonzero" fill-opacity="1"/></g></svg>