<!-- color: #e9ece8 --><svg xmlns="http://www.w3.org/2000/svg" viewBox="0 0 48 48"><g><path d="m 12 11.996 l 2 0 l 0 24 l -2 0 m 0 -24" fill="#f9f9f9" stroke="none" fill-rule="nonzero" fill-opacity="1"/><path d="m 34 11.996 l 2 0 l 0 24 l -2 0 m 0 -24" fill="#f9f9f9" stroke="none" fill-rule="nonzero" fill-opacity="1"/><path d="m 13 11.996 l 5 0 c 0.551 0 1 0.449 1 1 c 0 0.555 -0.449 1 -1 1 l -5 0 c -0.551 0 -1 -0.445 -1 -1 c 0 -0.551 0.449 -1 1 -1 m 0 0" fill="#f9f9f9" stroke="none" fill-rule="nonzero" fill-opacity="1"/><path d="m 13 33.996 l 5 0 c 0.551 0 1 0.449 1 1 c 0 0.555 -0.449 1 -1 1 l -5 0 c -0.551 0 -1 -0.445 -1 -1 c 0 -0.551 0.449 -1 1 -1 m 0 0" fill="#f9f9f9" stroke="none" fill-rule="nonzero" fill-opacity="1"/><path d="m 35 33.996 l -5 0 c -0.551 0 -1 0.449 -1 1 c 0 0.555 0.449 1 1 1 l 5 0 c 0.551 0 1 -0.445 1 -1 c 0 -0.551 -0.449 -1 -1 -1 m 0 0" fill="#f9f9f9" stroke="none" fill-rule="nonzero" fill-opacity="1"/><path d="m 35 11.996 l -5 0 c -0.551 0 -1 0.449 -1 1 c 0 0.555 0.449 1 1 1 l 5 0 c 0.551 0 1 -0.445 1 -1 c 0 -0.551 -0.449 -1 -1 -1 m 0 0" fill="#f9f9f9" stroke="none" fill-rule="nonzero" fill-opacity="1"/></g></svg>