<!-- color: #474747 --><svg xmlns="http://www.w3.org/2000/svg" viewBox="0 0 48 48"><g><path d="m 18.06 11 c -3.898 0 -7.05 3.156 -7.05 7.05 c 0 1.203 0.305 2.367 0.836 3.359 c -0.176 0.84 -0.273 1.695 -0.273 2.586 c 0 6.863 5.566 12.43 12.438 12.43 c 0.887 0 1.746 -0.094 2.582 -0.27 c 0.996 0.539 2.145 0.84 3.355 0.84 c 3.898 0 7.05 -3.156 7.05 -7.05 c 0 -1.211 -0.305 -2.367 -0.84 -3.363 c 0.176 -0.836 0.27 -1.695 0.27 -2.582 c 0 -6.859 -5.566 -12.43 -12.43 -12.43 c -0.891 0 -1.75 0.09 -2.586 0.27 c -0.992 -0.531 -2.156 -0.84 -3.359 -0.84 m 5.703 5.16 c 3.883 0 5.887 2.043 5.887 3.242 c 0 1.203 -0.578 1.383 -1.531 1.383 c -1.852 0 -1.094 -2.223 -4.563 -2.223 c -1.148 0 -2.582 0.523 -2.582 1.859 c 0 1.074 1.27 1.469 3.512 2.02 c 3.379 0.902 5.914 1.801 5.914 4.891 c 0 3 -2.453 4.504 -6.336 4.504 c -3.883 0 -6.363 -2.313 -6.363 -3.512 c 0 -1.199 0.457 -1.5 1.41 -1.5 c 1.855 0 1.605 2.523 5.074 2.523 c 1.152 0 2.852 -0.523 2.852 -1.863 c 0 -1.07 -0.09 -1.441 -2.551 -2.102 c -2.629 -0.355 -6.875 -1.207 -6.875 -4.473 c 0 -3 2.273 -4.746 6.156 -4.746 m 0 0" fill="#f9f9f9" stroke="none" fill-rule="nonzero" fill-opacity="1"/></g></svg>