<!-- color: #62bee2 --><svg xmlns="http://www.w3.org/2000/svg" viewBox="0 0 48 48"><g><path d="m 28.03 11 c -2.293 0 -4.566 0.879 -6.313 2.625 c -3.488 3.488 -3.488 9.168 0 12.656 c 3.488 3.488 9.168 3.488 12.656 0 c 3.488 -3.488 3.488 -9.168 0 -12.656 c -1.746 -1.746 -4.051 -2.625 -6.344 -2.625 m 0 1.469 c 1.91 0 3.82 0.727 5.281 2.188 c 2.926 2.926 2.926 7.637 0 10.563 c -2.926 2.926 -7.637 2.926 -10.563 0 c -2.926 -2.926 -2.926 -7.637 0 -10.563 c 1.461 -1.461 3.371 -2.188 5.281 -2.188 m -7.125 13.09 l -4.75 4.75 l 1.531 1.5 l 4.719 -4.75 m -6.688 3.063 l -4.75 4.719 l 2.156 2.156 l 4.719 -4.75 m -2.125 -2.125" fill="#f9f9f9" stroke="none" fill-rule="nonzero" fill-opacity="1"/></g></svg>