<!-- color: #c0d7e9 --><svg xmlns="http://www.w3.org/2000/svg" viewBox="0 0 48 48"><g><path d="m 21.996 12 c 2.254 0 4.184 1.301 5.207 3.176 c 0.582 -0.438 1.316 -0.727 2.129 -0.727 c 1.84 0 3.332 1.375 3.332 3.066 c 0 0.383 -0.066 0.738 -0.207 1.074 c 2.094 0.859 3.543 2.805 3.543 5.05 c 0 3.066 -2.68 5.508 -6 5.508 l -12 0 c -3.32 0 -6 -2.457 -6 -5.508 c 0 -2.418 1.691 -4.457 4.04 -5.203 c 0 -0.105 -0.047 -0.203 -0.047 -0.305 c 0 -3.383 2.691 -6.137 6 -6.137 m 0 0.004" fill="#f9f9f9" stroke="none" fill-rule="evenodd" fill-opacity="1"/><path d="m 21 20.574 l 6 0 l 0 10.285 l 3.43 0 l -6.43 5.141 l -6.426 -5.141 l 3.426 0 m 0 -10.285" fill="#f9f9f9" stroke="none" fill-rule="nonzero" fill-opacity="1"/></g></svg>