<!-- color: #36a5f2 --><svg xmlns="http://www.w3.org/2000/svg" viewBox="0 0 48 48"><g><path d="m 23.266 12 c -2.539 0.031 -5.02 1.621 -6.05 3.965 c -0.953 1.93 -0.898 4.355 -0.68 6.227 c 0.219 1.871 0.66 3.379 1.914 4.523 c 1.297 1.371 3.223 1.98 5.063 2.039 c 1.535 -0.137 3.406 -0.559 4.078 -2.121 c -0.082 1.199 0.281 2.484 -0.191 3.629 c -1.117 2.035 -4.133 2.594 -5.949 1.258 c -0.809 -0.563 -0.98 -1.652 -1.148 -2.516 l -3.941 0 c -0.176 2.789 1.742 5.484 4.316 6.406 c 2.93 1.059 6.477 0.723 8.965 -1.23 c 1.508 -1.18 2.395 -3.082 2.375 -4.98 l 0 -16.695 c -1.426 -0.027 -2.855 0 -4.273 0 c 0 0.672 0 1.367 0.027 2.039 c -0.699 -1.512 -2.355 -2.484 -3.992 -2.543 c -0.168 0 -0.34 0 -0.504 0 m 1.055 3.742 c 1.23 0 2.457 0.699 2.93 1.871 c 0.672 1.734 0.785 3.715 0.141 5.477 c -0.563 1.172 -1.676 2.289 -3.074 2.148 c -1.785 0.141 -3.07 -1.59 -3.379 -3.18 c -0.254 -1.484 -0.223 -3.102 0.418 -4.496 c 0.531 -1.203 1.703 -1.789 2.957 -1.816 m 0.008 -0.004" fill="#f9f9f9" stroke="none" fill-rule="nonzero" fill-opacity="1"/></g></svg>