<!-- color: #8d4cc4 --><svg xmlns="http://www.w3.org/2000/svg" viewBox="0 0 48 48"><g><path d="m 12 20.723 c 0 -1.203 0.227 -2.336 0.68 -3.398 c 0.453 -1.059 1.078 -1.984 1.875 -2.777 c 0.797 -0.793 1.723 -1.418 2.781 -1.871 c 1.059 -0.449 2.195 -0.676 3.418 -0.676 c 1.629 0 3.117 0.41 4.453 1.234 c 1.336 0.82 2.387 1.895 3.152 3.215 c 0.184 -0.023 0.367 -0.047 0.547 -0.07 c 0.18 -0.023 0.359 -0.035 0.547 -0.035 c 0.902 0 1.75 0.172 2.543 0.512 c 0.793 0.344 1.488 0.816 2.086 1.41 c 0.594 0.594 1.063 1.289 1.406 2.086 c 0.34 0.793 0.512 1.641 0.512 2.543 c 0 0.906 -0.172 1.754 -0.512 2.547 c -0.344 0.793 -0.813 1.488 -1.406 2.078 c -0.598 0.59 -1.293 1.059 -2.086 1.406 c -0.793 0.348 -1.641 0.523 -2.543 0.523 l -0.555 0 l 1.941 -2.441 c 0.859 -0.293 1.563 -0.809 2.121 -1.551 c 0.555 -0.746 0.832 -1.605 0.832 -2.582 c 0 -0.594 -0.113 -1.156 -0.34 -1.691 c -0.227 -0.535 -0.531 -1 -0.918 -1.395 c -0.391 -0.395 -0.852 -0.707 -1.391 -0.934 c -0.539 -0.227 -1.105 -0.34 -1.691 -0.34 c -0.859 0 -1.641 0.227 -2.344 0.68 c -0.164 -0.707 -0.441 -1.367 -0.836 -1.98 c -0.391 -0.613 -0.871 -1.145 -1.441 -1.594 c -0.566 -0.449 -1.195 -0.805 -1.883 -1.063 c -0.688 -0.258 -1.422 -0.387 -2.195 -0.387 c -0.902 0 -1.754 0.172 -2.555 0.52 c -0.797 0.348 -1.492 0.82 -2.082 1.41 c -0.59 0.59 -1.055 1.281 -1.398 2.074 c -0.34 0.797 -0.512 1.645 -0.512 2.547 c 0 0.73 0.117 1.434 0.355 2.113 c 0.238 0.676 0.563 1.289 0.973 1.832 c 0.41 0.547 0.902 1.02 1.477 1.426 c 0.574 0.406 1.199 0.699 1.883 0.887 l -0.746 2.066 c -0.887 -0.289 -1.703 -0.699 -2.453 -1.234 c -0.75 -0.531 -1.402 -1.156 -1.949 -1.875 c -0.547 -0.719 -0.973 -1.523 -1.281 -2.418 c -0.309 -0.891 -0.465 -1.824 -0.465 -2.797 m 8.215 8.727 l 2.785 -7.449 l 5 0 l -3 5 l 4 0 l -7.152 9 l 1.961 -6.551 m -3.594 0" fill="#f9f9f9" stroke="none" fill-rule="nonzero" fill-opacity="1"/></g></svg>