<!-- color: #845950 --><svg xmlns="http://www.w3.org/2000/svg" viewBox="0 0 48 48"><g><path d="m 30.875 13 c -0.488 0 -0.875 0.387 -0.875 0.875 l 0 4.25 c 0 0.488 0.387 0.875 0.875 0.875 l 4.25 0 c 0.488 0 0.875 -0.387 0.875 -0.875 l 0 -4.25 c 0 -0.488 -0.387 -0.875 -0.875 -0.875 m -2.125 1 c 1.105 0 2 0.895 2 2 c 0 1.105 -0.895 2 -2 2 c -1.105 0 -2 -0.895 -2 -2 c 0 -1.105 0.895 -2 2 -2 m -9 4 c -5.523 0 -10 4.477 -10 10 c 0 5.523 4.477 10 10 10 c 5.523 0 10 -4.477 10 -10 c 0 -5.523 -4.477 -10 -10 -10 m 0 2 c 4.418 0 8 3.582 8 8 c 0 4.418 -3.582 8 -8 8 c -4.418 0 -8 -3.582 -8 -8 c 0 -4.418 3.582 -8 8 -8 m 0 2 c -3.313 0 -6 2.688 -6 6 c 0 3.313 2.688 6 6 6 c 3.313 0 6 -2.688 6 -6 c 0 -3.313 -2.688 -6 -6 -6 m 3 2 c 0.551 0 1 0.449 1 1 c 0 0.551 -0.449 1 -1 1 c -0.551 0 -1 -0.449 -1 -1 c 0 -0.551 0.449 -1 1 -1 m -3 1 c 1.656 0 3 1.344 3 3 c 0 1.656 -1.344 3 -3 3 c -0.988 0 -1.859 -0.48 -2.406 -1.219 c -0.168 0.129 -0.367 0.219 -0.594 0.219 c -0.551 0 -1 -0.449 -1 -1 c 0 -0.551 0.449 -1 1 -1 c 0 -1.656 1.344 -3 3 -3 m -3 3 c 0 0.668 0.223 1.281 0.594 1.781 c 0.242 -0.184 0.406 -0.457 0.406 -0.781 c 0 -0.551 -0.445 -1 -1 -1 m 0 0" fill="#f9f9f9" stroke="none" fill-rule="nonzero" fill-opacity="1"/></g></svg>