<!-- color: #e9df4b --><svg xmlns="http://www.w3.org/2000/svg" viewBox="0 0 48 48"><g><path d="m 16 12 l -2 2 l -4 0 c -1.66 0 -3 1.34 -3 3 l 0 14 c 0 1.664 1.34 3 3 3 l 5.406 0 c 2.613 1.254 5.504 2 8.594 2 c 3.09 0 5.98 -0.746 8.594 -2 l 5.406 0 c 1.664 0 3 -1.336 3 -3 l 0 -14 c 0 -1.66 -1.336 -3 -3 -3 l -4 0 l -2 -2 m -13 1 l 10 0 l 0 1 l -10 0 m -2 1 l 14 0 c 0.555 0 1.047 0.234 1.406 0.594 c 0.363 0.363 0.594 0.852 0.594 1.406 l 0 13 c 0 1 -1.254 1.566 -2.594 2 c -1.699 0.613 -4.496 1 -6.406 1 c -1.91 0 -4.707 -0.387 -6.406 -1 c -0.984 -0.398 -2.594 -1 -2.594 -2 l 0 -13 c 0 -0.555 0.234 -1.043 0.594 -1.406 c 0.363 -0.359 0.852 -0.594 1.406 -0.594 m -7 1 l 2 0 l 0 2 l 2 0 l 0 2 l -2 0 l 0 2 l -2 0 l 0 -2 l -2 0 l 0 -2 l 2 0 m 7 -2 c -0.551 0 -1 0.449 -1 1 l 0 10 c 0 0.551 0.449 1 1 1 l 14 0 c 0.551 0 1 -0.449 1 -1 l 0 -10 c 0 -0.551 -0.449 -1 -1 -1 m 7.5 2 c 0.828 0 1.5 0.672 1.5 1.5 c 0 0.828 -0.672 1.5 -1.5 1.5 c -0.828 0 -1.5 -0.672 -1.5 -1.5 c 0 -0.828 0.672 -1.5 1.5 -1.5 m -3 2 c 0.828 0 1.5 0.672 1.5 1.5 c 0 0.828 -0.672 1.5 -1.5 1.5 c -0.828 0 -1.5 -0.672 -1.5 -1.5 c 0 -0.828 0.672 -1.5 1.5 -1.5 m -22.5 5 c 0.551 0 1 0.449 1 1 c 0 0.551 -0.449 1 -1 1 c -0.551 0 -1 -0.449 -1 -1 c 0 -0.551 0.449 -1 1 -1 m 21 0 l 6 0 l 0 1 l -6 0 m 0 1.031 l 5 0 l 0 1 l -5 0 m -21 -0.031 c 0.551 0 1 0.449 1 1 c 0 0.551 -0.449 1 -1 1 c -0.551 0 -1 -0.449 -1 -1 c 0 -0.551 0.449 -1 1 -1 m 21 1 l 4 0 l 0 1 l -4 0 m 0 -1" fill="#f9f9f9" stroke="none" fill-rule="nonzero" fill-opacity="1"/></g></svg>