<!-- color: #6bc260 --><svg xmlns="http://www.w3.org/2000/svg" viewBox="0 0 48 48"><g><path d="m 13.781 20 c -0.984 0 -1.785 0.688 -1.785 1.563 l 0 12.875 c 0 0.871 0.801 1.563 1.785 1.563 l 20.438 0 c 0.98 0 1.781 -0.691 1.781 -1.563 l 0 -12.875 c 0 -0.875 -0.801 -1.563 -1.781 -1.563 m -11.219 1.996 l 1.996 0 c 3 0 3 2.504 3 2.504 l 0 2.5 c 0 1 -2 2.5 -2 2.5 l 0 1.5 l 3 1 l 0 1.996 l -10 0 l 0 -1.996 l 3 -1 l 0 -1.5 c 0 0 -2 -1.496 -2 -2.5 l 0 -2.5 c 0 0 0 -2.504 3 -2.504 m -0.008 0" fill="#f9f9f9" stroke="none" fill-rule="nonzero" fill-opacity="1"/><path d="m 24 10 c -3.301 0 -6 2.699 -6 6 c 0 3.301 2.699 6 6 6 c 3.301 0 6 -2.699 6 -6 c 0 -3.301 -2.699 -6 -6 -6 m 0 2 c 2.223 0 4 1.777 4 4 c 0 2.223 -1.777 4 -4 4 c -2.223 0 -4 -1.777 -4 -4 c 0 -2.223 1.777 -4 4 -4 m 0 0" fill="#f9f9f9" stroke="none" fill-rule="nonzero" fill-opacity="1"/></g></svg>