<!-- color: #d1e2eb --><svg xmlns="http://www.w3.org/2000/svg" viewBox="0 0 48 48"><g><path d="m 31 13 c -0.551 0 -1 0.449 -1 1 l 0 3 l -21 0 l 0 2 l 21 0 l 0 3 c 0 0.551 0.449 1 1 1 l 2 0 c 0.551 0 1 -0.449 1 -1 l 0 -3 l 5 0 l 0 -2 l -5 0 l 0 -3 c 0 -0.551 -0.449 -1 -1 -1 m -1.594 1 l 1.188 0 c 0.23 0 0.406 0.262 0.406 0.563 l 0 6.875 c 0 0.301 -0.176 0.563 -0.406 0.563 l -1.188 0 c -0.23 0 -0.406 -0.262 -0.406 -0.563 l 0 -6.875 c 0 -0.301 0.176 -0.563 0.406 -0.563 m 0 0" fill="#f9f9f9" stroke="none" fill-rule="nonzero" fill-opacity="1"/><path d="m 21 26 c -0.551 0 -1 0.449 -1 1 l 0 3 l -11 0 l 0 2 l 11 0 l 0 3 c 0 0.551 0.449 1 1 1 l 2 0 c 0.551 0 1 -0.449 1 -1 l 0 -3 l 15 0 l 0 -2 l -15 0 l 0 -3 c 0 -0.551 -0.449 -1 -1 -1 m -1.594 1 l 1.188 0 c 0.23 0 0.406 0.258 0.406 0.563 l 0 6.875 c 0 0.301 -0.176 0.563 -0.406 0.563 l -1.188 0 c -0.23 0 -0.406 -0.262 -0.406 -0.563 l 0 -6.875 c 0 -0.305 0.176 -0.563 0.406 -0.563 m 0 0" fill="#f9f9f9" stroke="none" fill-rule="nonzero" fill-opacity="1"/></g></svg>