<!-- color: #0a99d6 --><svg xmlns="http://www.w3.org/2000/svg" viewBox="0 0 48 48"><g><path d="m 17.977 14.207 c -6.695 3.48 -8.04 12.531 -2.629 17.688 c 3.109 2.965 7.285 3.844 11.633 2.434 c 4.16 -1.352 7.02 -5.547 7.02 -9.855 c 0 -1.648 0.188 -2.133 1.648 -2.59 c 1.355 -0.418 2.355 -1.895 2.355 -2.902 c -2.52 0.109 -7 -1.996 -9 -4.5 l 0 5 c 0 5.348 -0.914 6.531 -3.03 8.03 c -1.707 1.207 -4.813 1.418 -6.348 0.438 c -2.34 -1.496 -2.32 -4.355 0.059 -6.777 c 2.254 -1.789 3.895 -1.902 6.313 -1.738 l 0 -6.04 c -2.602 -0.77 -5.68 -0.363 -8.02 0.813 m 0.004 0" fill="#f9f9f9" stroke="none" fill-rule="nonzero" fill-opacity="1"/></g></svg>