<!-- color: #eeeeee --><svg xmlns="http://www.w3.org/2000/svg" viewBox="0 0 48 48"><g><path d="m 17 12 c -1.105 0 -2 0.895 -2 2 l 0 4 c 0 1.105 0.895 2 2 2 l -4 0 c -1.105 0 -2 0.895 -2 2 l 0 4 c 0 1.105 0.895 2 2 2 l 4 0 c -1.105 0 -2 0.895 -2 2 l 0 4 c 0 1.105 0.895 2 2 2 l 18 0 l 0 -1 l -3.531 0 c -0.813 0 -1.52 -0.402 -1.969 -1 c -0.113 -0.148 -0.203 -0.297 -0.281 -0.469 c -0.07 -0.16 -0.121 -0.324 -0.156 -0.5 c 0.035 0.176 0.086 0.344 0.156 0.5 c 0.074 0.168 0.172 0.32 0.281 0.469 l 5.5 0 l 0 -1 l -5.938 0 c -0.027 -0.152 -0.063 -0.309 -0.063 -0.469 l 0 -0.531 l 6 0 l 0 -1 l -5.938 0 c 0.07 -0.379 0.215 -0.707 0.438 -1 c 0.109 -0.145 0.238 -0.289 0.375 -0.406 c 0.145 -0.121 0.301 -0.227 0.469 -0.313 c -0.168 0.086 -0.328 0.191 -0.469 0.313 c -0.141 0.121 -0.262 0.258 -0.375 0.406 l 5.5 0 l 0 -2 l -4 0 l 0 -1 l -3.531 0 c -0.813 0 -1.52 -0.402 -1.969 -1 c -0.113 -0.148 -0.203 -0.297 -0.281 -0.469 c -0.07 -0.16 -0.121 -0.324 -0.156 -0.5 c 0.035 0.176 0.086 0.344 0.156 0.5 c 0.074 0.168 0.172 0.32 0.281 0.469 l 5.5 0 l 0 -1 l -5.938 0 c -0.027 -0.152 -0.063 -0.309 -0.063 -0.469 l 0 -0.531 l 6 0 l 0 -1 l -5.938 0 c 0.07 -0.379 0.215 -0.707 0.438 -1 c 0.109 -0.145 0.238 -0.289 0.375 -0.406 c 0.145 -0.121 0.301 -0.227 0.469 -0.313 c -0.168 0.086 -0.328 0.191 -0.469 0.313 c -0.141 0.121 -0.262 0.258 -0.375 0.406 l 5.5 0 l 0 -2 l 4 0 l 0 -1 l -3.531 0 c -0.813 0 -1.52 -0.402 -1.969 -1 c -0.113 -0.148 -0.203 -0.297 -0.281 -0.469 c -0.07 -0.16 -0.121 -0.324 -0.156 -0.5 c 0.035 0.176 0.086 0.344 0.156 0.5 c 0.074 0.168 0.172 0.32 0.281 0.469 l 5.5 0 l 0 -1 l -5.938 0 c -0.027 -0.152 -0.063 -0.309 -0.063 -0.469 l 0 -0.531 l 6 0 l 0 -1 l -5.938 0 c 0.07 -0.379 0.215 -0.707 0.438 -1 c 0.109 -0.145 0.238 -0.289 0.375 -0.406 c 0.145 -0.121 0.301 -0.227 0.469 -0.313 c 0.113 -0.059 0.219 -0.117 0.344 -0.156 c -0.117 0.039 -0.234 0.098 -0.344 0.156 c -0.168 0.086 -0.328 0.191 -0.469 0.313 c -0.141 0.121 -0.262 0.258 -0.375 0.406 l 5.5 0 l 0 -2 m -18 0" fill="#f9f9f9" stroke="none" fill-rule="nonzero" fill-opacity="1"/></g></svg>