<!-- color: #01b9ff --><svg xmlns="http://www.w3.org/2000/svg" viewBox="0 0 48 48"><g><path d="m 27.29 13.258 c -2.348 0.875 -3.832 3.129 -3.664 5.594 l 0.055 0.953 l -0.938 -0.117 c -3.418 -0.445 -6.406 -1.961 -8.941 -4.504 l -1.242 -1.266 l -0.316 0.934 c -0.68 2.078 -0.246 4.273 1.164 5.75 c 0.75 0.813 0.582 0.93 -0.715 0.445 c -0.449 -0.156 -0.848 -0.273 -0.883 -0.215 c -0.133 0.137 0.316 1.906 0.676 2.602 c 0.488 0.973 1.484 1.926 2.574 2.488 l 0.918 0.445 l -1.086 0.02 c -1.055 0 -1.09 0.02 -0.98 0.426 c 0.379 1.266 1.863 2.605 3.523 3.188 l 1.164 0.41 l -1.023 0.617 c -1.5 0.895 -3.266 1.398 -5.03 1.438 c -0.848 0.02 -1.543 0.098 -1.543 0.156 c 0 0.195 2.293 1.281 3.625 1.707 c 4 1.266 8.754 0.719 12.324 -1.434 c 2.535 -1.535 5.074 -4.586 6.258 -7.535 c 0.637 -1.574 1.277 -4.449 1.277 -5.828 c 0 -0.891 0.055 -1.01 1.109 -2.078 c 0.617 -0.621 1.199 -1.301 1.313 -1.492 c 0.188 -0.371 0.168 -0.371 -0.789 -0.039 c -1.598 0.578 -1.824 0.504 -1.031 -0.371 c 0.582 -0.621 1.273 -1.746 1.273 -2.078 c 0 -0.059 -0.281 0.039 -0.598 0.215 c -0.34 0.191 -1.09 0.484 -1.652 0.66 l -1.016 0.328 l -0.922 -0.641 c -0.516 -0.348 -1.227 -0.738 -1.605 -0.855 c -0.957 -0.27 -2.422 -0.23 -3.285 0.078 m 0 0" fill="#f9f9f9" stroke="none" fill-rule="nonzero" fill-opacity="1"/></g></svg>