<!-- color: #2b94cb --><svg xmlns="http://www.w3.org/2000/svg" viewBox="0 0 48 48"><g><path d="m 33.656 11.969 c -9.316 0.141 -14.531 5.453 -17.281 10.625 c -2.516 4.734 -3.156 6.125 -3.363 9.406 c -0.086 1.328 0.512 1.73 1.176 2 c 0.254 0.102 0.563 -0.129 0.75 -0.344 c 0.105 -0.125 0.184 -0.277 0.219 -0.438 c 0.004 -0.043 0.004 -0.086 0 -0.125 c 0 0 0.469 -4.738 3 -9.5 c 2.363 -4.441 6.563 -8.734 14.06 -9.406 c -4.461 8.93 0.223 19.25 0.223 19.25 c 0.035 0.043 0.078 0.086 0.125 0.125 c 0.172 0.254 0.777 0.438 0.777 0.438 c 0.578 0 1.547 -0.051 0.75 -2 c 0 0 -4.695 -10.719 0.473 -18.5 c 0.133 -0.234 0.168 -0.523 0.094 -0.781 c -0.035 -0.16 -0.113 -0.313 -0.219 -0.438 c -0.199 -0.211 -0.492 -0.328 -0.781 -0.313" fill="#f9f9f9" stroke="none" fill-rule="nonzero" fill-opacity="1"/></g></svg>