<!-- color: #4b7376 --><svg xmlns="http://www.w3.org/2000/svg" viewBox="0 0 48 48"><g><path d="m 24 9 c -8.273 0 -15 6.73 -15 15 c 0 4.137 1.691 7.879 4.406 10.594 c 2.715 2.715 6.457 4.406 10.594 4.406 c 8.27 0 15 -6.73 15 -15 c 0 -4.137 -1.691 -7.879 -4.406 -10.594 c -2.715 -2.715 -6.457 -4.406 -10.594 -4.406 m 0 2 c 3.066 0 5.875 1.074 8.094 2.844 c -0.137 0.105 -0.277 0.215 -0.406 0.344 l -1.781 1.781 c -1.66 -1.223 -3.691 -1.969 -5.906 -1.969 c -2.215 0 -4.246 0.746 -5.906 1.969 l -1.781 -1.781 c -0.133 -0.133 -0.266 -0.234 -0.406 -0.344 c 2.219 -1.77 5.03 -2.844 8.094 -2.844 m -10.156 4.906 c 0.105 0.137 0.215 0.277 0.344 0.406 l 1.781 1.781 c -1.223 1.66 -1.969 3.695 -1.969 5.906 c 0 2.211 0.746 4.246 1.969 5.906 l -1.781 1.781 c -0.129 0.129 -0.238 0.27 -0.344 0.406 c -1.77 -2.219 -2.844 -5.03 -2.844 -8.094 c 0 -3.066 1.074 -5.875 2.844 -8.094 m 20.313 0 c 1.77 2.219 2.844 5.03 2.844 8.094 c 0 3.066 -1.074 5.875 -2.844 8.094 c -0.105 -0.137 -0.215 -0.277 -0.344 -0.406 l -1.781 -1.781 c 1.223 -1.66 1.969 -3.691 1.969 -5.906 c 0 -2.215 -0.746 -4.246 -1.969 -5.906 l 1.781 -1.781 c 0.129 -0.129 0.238 -0.27 0.344 -0.406 m -10.156 0.094 c 1.66 0 3.191 0.512 4.469 1.375 l -2.188 2.219 c -0.691 -0.359 -1.449 -0.594 -2.281 -0.594 c -0.832 0 -1.59 0.234 -2.281 0.594 l -2.188 -2.219 c 1.277 -0.863 2.809 -1.375 4.469 -1.375 m -6.625 3.531 l 2.219 2.188 c -0.359 0.691 -0.594 1.449 -0.594 2.281 c 0 0.832 0.234 1.59 0.594 2.281 l -2.219 2.188 c -0.859 -1.277 -1.375 -2.809 -1.375 -4.469 c 0 -1.66 0.516 -3.191 1.375 -4.469 m 13.25 0 c 0.863 1.277 1.375 2.809 1.375 4.469 c 0 1.66 -0.512 3.191 -1.375 4.469 l -2.219 -2.188 c 0.359 -0.691 0.594 -1.449 0.594 -2.281 c 0 -0.832 -0.234 -1.59 -0.594 -2.281 m -4.406 0.156 l 2.125 2.125 l -2.125 2.125 l -2.125 -2.125 m -0.156 4.406 c 0.691 0.359 1.449 0.594 2.281 0.594 c 0.832 0 1.59 -0.234 2.281 -0.594 l 2.188 2.219 c -1.277 0.863 -2.809 1.375 -4.469 1.375 c -1.66 0 -3.191 -0.512 -4.469 -1.375 m -1.438 1.406 c 1.66 1.223 3.691 1.969 5.906 1.969 c 2.215 0 4.246 -0.746 5.906 -1.969 l 1.781 1.781 c 0.129 0.129 0.27 0.238 0.406 0.344 c -2.219 1.77 -5.03 2.844 -8.094 2.844 c -3.059 0 -5.875 -1.051 -8.094 -2.813 c 0.137 -0.105 0.277 -0.246 0.406 -0.375 m 1.781 -1.781" fill="#f9f9f9" stroke="none" fill-rule="nonzero" fill-opacity="1"/></g></svg>