<!-- color: #e33a31 --><svg xmlns="http://www.w3.org/2000/svg" viewBox="0 0 48 48"><g><path d="m 24.17 15 c -3.039 0 -7.523 0.184 -8.867 0.227 c -1.461 0.129 -2 0.203 -2.797 0.875 c -1.227 1.066 -1.516 3.16 -1.516 6.367 l 0 3.051 c 0 3.656 0.492 5.516 1.313 6.195 c 0.938 0.793 1.559 0.855 2.18 0.949 c 0.242 0.035 1.961 0.336 9.574 0.336 c 4.746 0 8.824 -0.223 9.246 -0.273 c 0.68 -0.086 1.645 -0.207 2.391 -1.012 c 1.09 -1.219 1.305 -3.242 1.305 -6.176 l 0 -3.551 c 0 -1.898 -0.105 -4.578 -1.305 -5.703 c -0.91 -0.758 -1.242 -0.969 -3.121 -1.063 c -0.531 -0.023 -5.164 -0.223 -8.402 -0.223 m -3.172 5 l 7 4 l -7 4 m 0 -8" fill="#f9f9f9" stroke="none" fill-rule="nonzero" fill-opacity="1"/></g></svg>