<!-- color: #aaaaaa --><svg xmlns="http://www.w3.org/2000/svg" viewBox="0 0 48 48"><g><path d="m 13.98 21.496 c -1.625 1.621 -1.625 4.23 0 5.852 c 1.625 1.621 4.238 1.621 5.863 0 l 7.539 -7.527 c 1.625 -1.621 1.625 -4.23 0 -5.852 c -1.621 -1.621 -4.238 -1.621 -5.863 0 m -7.121 7.945 c 1.387 -1.387 3.637 -1.387 5.03 0 c 1.387 1.383 1.387 3.629 0 5.02 c -1.398 1.387 -3.648 1.387 -5.03 0 c -1.391 -1.387 -1.391 -3.633 0 -5.02 m 7.539 -7.527 c 1.391 -1.387 3.641 -1.387 5.03 0 c 1.391 1.387 1.391 3.633 0 5.02 c -1.395 1.387 -3.645 1.387 -5.03 0 c -1.387 -1.383 -1.387 -3.629 0 -5.02 m 0 0" fill="#f9f9f9" stroke="none" fill-rule="nonzero" fill-opacity="1"/><path d="m 20.68 28.18 c -1.625 1.621 -1.625 4.23 0 5.852 c 1.625 1.621 4.242 1.621 5.867 0 l 7.539 -7.523 c 1.625 -1.621 1.625 -4.234 0 -5.855 c -1.625 -1.621 -4.238 -1.621 -5.863 0 m -7.121 7.945 c 1.387 -1.387 3.637 -1.387 5.02 0 c 1.391 1.387 1.391 3.633 0 5.02 c -1.387 1.395 -3.637 1.395 -5.02 0 c -1.391 -1.383 -1.391 -3.629 0 -5.02 m 7.539 -7.527 c 1.387 -1.383 3.637 -1.383 5.03 0 c 1.387 1.395 1.387 3.633 0 5.02 c -1.391 1.383 -3.641 1.383 -5.03 0 c -1.387 -1.395 -1.387 -3.633 0 -5.02 m 0 0" fill="#f9f9f9" stroke="none" fill-rule="nonzero" fill-opacity="1"/><path d="m 24.03 9 c -8.289 0 -15.03 6.727 -15.03 15 c 0 8.273 6.742 15 15.03 15 c 8.293 0 15.03 -6.727 15.03 -15 c 0 -8.273 -6.738 -15 -15.03 -15 m 0 1.875 c 7.277 0 13.156 5.867 13.156 13.13 c 0 7.258 -5.871 13.13 -13.156 13.13 c -7.273 0 -13.156 -5.867 -13.156 -13.12 c 0 -7.258 5.883 -13.12 13.156 -13.12 m 0 0" fill="#f9f9f9" stroke="none" fill-rule="nonzero" fill-opacity="1"/></g></svg>