<?xml version="1.0" encoding="UTF-8" standalone="no"?>
<!-- Created with Inkscape (http://www.inkscape.org/) -->

<svg
   xmlns:dc="http://purl.org/dc/elements/1.1/"
   xmlns:cc="http://creativecommons.org/ns#"
   xmlns:rdf="http://www.w3.org/1999/02/22-rdf-syntax-ns#"
   xmlns:svg="http://www.w3.org/2000/svg"
   xmlns="http://www.w3.org/2000/svg"
   xmlns:xlink="http://www.w3.org/1999/xlink"
   xmlns:sodipodi="http://sodipodi.sourceforge.net/DTD/sodipodi-0.dtd"
   xmlns:inkscape="http://www.inkscape.org/namespaces/inkscape"
   width="744.09448819"
   height="1052.3622047"
   id="svg2"
   version="1.1"
   inkscape:version="0.48.4 r9939"
   sodipodi:docname="drawing.svg"
   inkscape:export-filename="/home/josh/Desktop/drawing.png"
   inkscape:export-xdpi="720"
   inkscape:export-ydpi="720">
  <defs
     id="defs4">
    <inkscape:perspective
       sodipodi:type="inkscape:persp3d"
       inkscape:vp_x="0 : 526.18109 : 1"
       inkscape:vp_y="0 : 1000 : 0"
       inkscape:vp_z="744.09448 : 526.18109 : 1"
       inkscape:persp3d-origin="372.04724 : 350.78739 : 1"
       id="perspective4904" />
    <linearGradient
       id="linearGradient3809">
      <stop
         id="stop3811"
         offset="0"
         style="stop-color:#ffd395;stop-opacity:1;" />
      <stop
         id="stop3813"
         offset="1"
         style="stop-color:#ffddae;stop-opacity:1;" />
    </linearGradient>
    <linearGradient
       inkscape:collect="always"
       xlink:href="#linearGradient3809"
       id="linearGradient3514"
       gradientUnits="userSpaceOnUse"
       x1="6.7733335"
       y1="12.700001"
       x2="6.7733335"
       y2="0.84666669"
       gradientTransform="matrix(3.543307,0,0,3.543307,69.000787,90.360214)" />
    <linearGradient
       gradientUnits="userSpaceOnUse"
       x2="12.7"
       x1=".847"
       id="linearGradient4867"
       xlink:href="#linearGradient4861"
       gradientTransform="translate(0,-13.547)" />
    <linearGradient
       id="linearGradient4861">
      <stop
         id="stop4352"
         style="stop-color:#71cae3"
         offset="0" />
      <stop
         id="stop4354"
         style="stop-color:#3fb7d9"
         offset="1" />
    </linearGradient>
  </defs>
  <sodipodi:namedview
     id="base"
     pagecolor="#ffffff"
     bordercolor="#666666"
     borderopacity="1.0"
     inkscape:pageopacity="0.0"
     inkscape:pageshadow="2"
     inkscape:zoom="5.6"
     inkscape:cx="132.68367"
     inkscape:cy="957.70019"
     inkscape:document-units="px"
     inkscape:current-layer="layer1"
     showgrid="true"
     inkscape:window-width="1280"
     inkscape:window-height="960"
     inkscape:window-x="0"
     inkscape:window-y="0"
     inkscape:window-maximized="1">
    <inkscape:grid
       type="xygrid"
       id="grid3506" />
  </sodipodi:namedview>
  <metadata
     id="metadata7">
    <rdf:RDF>
      <cc:Work
         rdf:about="">
        <dc:format>image/svg+xml</dc:format>
        <dc:type
           rdf:resource="http://purl.org/dc/dcmitype/StillImage" />
        <dc:title></dc:title>
      </cc:Work>
    </rdf:RDF>
  </metadata>
  <g
     inkscape:label="Layer 1"
     inkscape:groupmode="layer"
     id="layer1">
    <rect
       style="fill:#353535;fill-opacity:1;stroke:none"
       id="rect4920"
       width="110"
       height="105"
       x="65"
       y="37.362183"
       rx="0.13557" />
    <g
       id="g3518">
      <rect
         width="45.999214"
         x="70"
         y="91.362968"
         rx="22.999607"
         height="45.999214"
         style="opacity:0.5;fill:#ffffff;fill-rule:evenodd"
         id="rect8" />
      <rect
         width="41.998817"
         x="72.001968"
         y="93.361397"
         rx="21.001181"
         height="41.998817"
         style="fill:url(#linearGradient3514);fill-opacity:1;fill-rule:evenodd"
         id="rect10" />
      <path
         inkscape:connector-curvature="0"
         id="path4018"
         d="m 100.00079,100.36021 c -1.90292,1.63108 -3.491856,3.20646 -4.843755,4.75 l 0.84375,4.25 -1.937498,-2.90625 c -2.884907,3.68109 -4.412997,7.35974 -5.0625,11.90625 0,0 -0.999999,1 0,1 l 1.999999,0 0,-1 c 1.194516,-1.59268 2.154493,-2.72938 3.000001,-3.71875 l 0,-4.28125 0.999999,3 -0.0625,0.15625 c 2.666399,-3.10811 3.616909,-4.4827 5.062498,-13.15625 z"
         style="fill:#416196;fill-opacity:1;stroke:none;display:inline" />
      <path
         sodipodi:nodetypes="cccccccccc"
         inkscape:connector-curvature="0"
         id="rect4011"
         d="m 88.000788,120.36021 1.999999,-1 2.000002,1 c 0,1 0.999999,1 1.999998,2 l 0,4 c 0,1 -0.999999,2.00001 -1.999998,2.00001 l -4.000001,0 c -0.999999,0 -2.000001,-1.00001 -2.000001,-2.00001 l 0,-4 c 1.000002,-1 2.000001,-1 2.000001,-2 z"
         style="fill:#e55353;fill-opacity:1;stroke:none;display:inline" />
      <rect
         ry="0.88582677"
         rx="0.88582677"
         y="118.36021"
         x="87.000786"
         height="2"
         width="6"
         id="rect4016"
         style="fill:#e55353;fill-opacity:1;stroke:none;display:inline" />
    </g>
    <g
       style="fill-rule:evenodd"
       id="g4128"
       transform="matrix(3.543307,0,0,3.543307,124.00079,90.360214)">
      <rect
         width="12.982"
         x="0.28200001"
         y="0.28299999"
         rx="6.4910002"
         height="12.982"
         style="opacity:0.5;fill:#ffffff"
         id="rect4130" />
      <rect
         width="11.853"
         x="0.847"
         y="0.847"
         rx="5.927"
         height="11.853"
         style="fill:#1e478b"
         id="rect4132" />
    </g>
    <g
       transform="matrix(3.543307,0,0,3.543307,118.45956,-914.18146)"
       id="g4134">
      <rect
         width="0.115"
         x="21.829"
         y="294.858"
         rx="0.039999999"
         height="0.079000004"
         style="fill:#ffffff"
         id="rect4136" />
    </g>
    <path
       inkscape:connector-curvature="0"
       style="fill:#f7c53b"
       d="m 133.03204,100.23521 -5.03125,7.6875 c -0.45452,1.42079 -0.76255,2.90083 -0.90625,4.4375 l 1.03125,8.8125 c 0.13005,0.38206 0.28647,0.75333 0.4375,1.125 l 27.59375,8.53125 5.75,-5.28125 0.53125,-18.5 -29.40625,-6.8125 z"
       id="path4138" />
    <path
       inkscape:connector-curvature="0"
       style="fill:#f9f9f9"
       d="m 140.71362,104.93416 a 1.523916,1.7416182 0 1 1 -3.04783,0 1.523916,1.7416182 0 1 1 3.04783,0 z"
       id="path4140" />
    <path
       inkscape:connector-curvature="0"
       style="fill:#2d2d2d"
       d="m 139.45782,104.66586 a 0.499995,0.49999411 0 0 1 -0.99999,0 0.499995,0.49999411 0 1 1 0.99999,0 z"
       id="path4142" />
    <path
       inkscape:connector-curvature="0"
       style="fill:#3479ee"
       d="m 148.00079,93.260214 c -11.634,0 -21.1,9.479656 -21.1,21.130996 0,0.3546 0.1141,0.7142 0.13125,1.06439 5e-4,0.0103 -5.2e-4,0.021 0,0.0313 0.0171,0.33949 0.0296,0.66654 0.0625,1.00149 0.0112,0.11419 0.0183,0.23063 0.0312,0.34426 0.0263,0.22955 0.0602,0.46133 0.0937,0.68853 0.005,0.0316 0.0264,0.0623 0.0312,0.0939 0.0534,0.35005 0.11719,0.68874 0.1875,1.03278 0.12777,0.6253 0.2872,1.24309 0.46875,1.8465 0.15867,0.5274 0.33337,1.05603 0.53125,1.56483 0.0438,0.11275 0.0793,0.23248 0.125,0.34426 0.0268,0.0655 0.0663,0.12266 0.0937,0.18778 0.23966,0.56936 0.49436,1.11652 0.78125,1.65872 0.2409,0.45603 0.50862,0.87928 0.78125,1.31446 0.0809,0.12926 0.13515,0.27951 0.21875,0.40685 0.27777,0.42224 0.59959,0.82049 0.90625,1.22057 0.0952,0.12434 0.1834,0.25345 0.28125,0.37556 0.37018,0.4614 0.74905,0.91772 1.15625,1.34575 0.0204,0.0216 0.042,0.0412 0.0625,0.0626 0.28558,0.29658 0.52748,0.53615 0.78126,0.78242 0.10665,0.1035 0.24112,0.21678 0.34375,0.31298 0.21448,0.19251 0.4339,0.37972 0.65625,0.56334 1.36701,1.13079 2.70642,1.98775 4.14843,2.67194 0.0169,0.008 0.0534,-0.0198 0.0703,-0.0117 0.1292,0.0411 0.24042,0.0515 0.25,-0.0312 0.0755,-0.27751 -1.25986,-2.36118 -0.5,-2.00298 1.12269,0.52923 1.45366,0.49583 0.59376,-0.0626 -1.22269,-0.79419 -2.3235,-1.92062 -2.6875,-2.72296 -0.52821,-1.1643 -1.02865,-2.57257 -0.9375,-2.66021 0.0445,-0.0428 0.4772,0.26351 0.96875,0.68852 1.01402,0.87673 2.72261,1.74878 3.75,1.90909 0.409,-0.049 0.33664,-0.28176 0.1875,-0.53204 -1.49022,-1.91139 -2.26885,-2.00982 6.46875,0.81371 4.29559,1.38811 7.84166,2.54184 7.875,2.56632 0.0333,0.0245 -0.16432,0.32124 -0.4375,0.65723 -0.67613,0.83158 -2.74969,2.4204 -4.28125,3.28614 -0.0852,0.0481 -0.14055,0.10917 -0.21875,0.15647 0.0423,-0.004 0.0828,-0.0273 0.125,-0.0312 0.0514,-0.005 0.10492,0.005 0.15625,0 0.40762,-0.0412 0.81849,-0.12373 1.21875,-0.1878 0.29464,-0.0471 0.58466,-0.0973 0.875,-0.15647 0.33924,-0.0693 0.66703,-0.13369 1,-0.21908 0.16663,-0.0427 0.33502,-0.0785 0.5,-0.12519 0.16692,-0.0473 0.33482,-0.10523 0.5,-0.15647 0.32919,-0.10212 0.67806,-0.22666 1,-0.34427 0.31269,-0.11423 0.6008,-0.24711 0.90625,-0.37555 0.009,-0.004 0.0224,0.004 0.0312,0 0.0128,-0.005 0.0184,-0.0259 0.0312,-0.0312 0.5291,-0.22464 1.05692,-0.4541 1.5625,-0.71982 0.0821,-0.0433 0.16852,-0.0809 0.25,-0.12518 0.35331,-0.19173 0.69066,-0.38356 1.03125,-0.59464 0.10969,-0.068 0.20419,-0.14914 0.3125,-0.21908 0.27564,-0.17795 0.54599,-0.34168 0.8125,-0.53205 0.28332,-0.20211 0.57119,-0.4103 0.84375,-0.62592 0.11608,-0.0921 0.22968,-0.1872 0.34374,-0.28166 0.24505,-0.20236 0.48326,-0.41279 0.71875,-0.62593 0.0758,-0.0688 0.144,-0.14921 0.21876,-0.21908 0.29378,-0.27457 0.59742,-0.55405 0.875,-0.84501 0.24453,-0.25593 0.48734,-0.5143 0.71875,-0.78241 0.1063,-0.12327 0.20906,-0.24981 0.31252,-0.37556 0.15909,-0.19322 0.31652,-0.39569 0.46875,-0.59464 0.11423,-0.14956 0.20221,-0.31677 0.31252,-0.46944 0.20204,-0.27971 0.40537,-0.55512 0.59375,-0.84501 0.0571,-0.0877 0.13167,-0.16179 0.18751,-0.25038 0.24544,-0.39035 0.46753,-0.78203 0.6875,-1.18927 0.0287,-0.053 0.0655,-0.10323 0.0937,-0.15648 0.28935,-0.54595 0.53984,-1.11649 0.78125,-1.69001 0.1142,-0.27132 0.20945,-0.53666 0.31252,-0.81371 0.0163,-0.0433 0.0466,-0.0818 0.0625,-0.12519 0.15431,-0.42367 0.31004,-0.87838 0.4375,-1.31446 0.0666,-0.22817 0.12848,-0.45717 0.18751,-0.68852 0.0861,-0.3365 0.14903,-0.6586 0.21876,-1.00149 0.0526,-0.25877 0.0819,-0.52023 0.12501,-0.78242 0.0138,-0.0835 0.0497,-0.16656 0.0625,-0.25037 0.0591,-0.38974 0.11863,-0.79267 0.15626,-1.18927 0.064,-0.67236 0.19365,-1.34508 0.19365,-2.03449 0,-11.65134 -9.46602,-21.131306 -21.10002,-21.131306 z m -15.625,10.240096 c 0.0555,-0.0111 0.11308,-0.003 0.1875,0 0.0992,0.004 0.22622,0.008 0.375,0.0313 1.61139,0.24779 1.84375,0.64637 1.84375,2.7854 0,0.64843 -0.0891,1.23784 -0.21875,1.40834 -0.21336,0.28061 -0.23559,0.29 -0.5,0 -0.15277,-0.16755 -0.73426,-1.00784 -1.3125,-1.87778 -1.01509,-1.52717 -1.04818,-1.61122 -0.78125,-2.00298 0.13519,-0.19841 0.23964,-0.31093 0.40625,-0.34427 z m 6.78125,0.21908 c 0.10293,-0.005 0.20697,0.005 0.3125,0.0313 0.3088,0.0776 0.375,0.21656 0.375,0.71982 0,0.39283 -0.11214,0.73322 -0.3125,0.9076 -0.17544,0.15268 -0.56552,0.28167 -0.875,0.28167 -0.56234,0 -0.58438,-0.0188 -0.53125,-0.81372 0.0442,-0.66182 0.31743,-0.86299 0.6875,-1.03278 0.12231,-0.0561 0.24082,-0.0884 0.34375,-0.0939 z m -7.9375,1.69001 c 0.2005,0 2.48725,3.15627 2.8125,3.88078 0.12882,0.28696 0.2688,0.68716 0.3125,0.9076 0.18203,0.91818 0.37367,1.14556 0.71875,0.81371 0.11541,-0.11098 1.04944,1.10341 2.78125,3.56781 1.43415,2.04082 2.41067,3.46504 2.84375,3.78688 0.31945,0.23741 3.73849,-1.24964 8.0625,-2.87928 4.32401,-1.62964 8.04053,-2.93926 8.25,-2.91058 0.35093,0.048 0.39113,0.15193 0.4375,1.40834 0.0594,1.61111 -0.33141,3.48495 -0.9375,4.66319 -0.23966,0.4659 -0.3647,0.88995 -0.28125,0.9702 0.0834,0.0803 0.693,-0.0954 1.34375,-0.40686 1.06461,-0.50952 1.85871,-1.20749 2.71875,-2.34724 0.29707,-0.39366 0.31075,-0.37818 0.31248,0.37556 -0.10853,1.69784 -0.51756,3.26944 -1.125,4.85097 -0.48322,1.83085 -1.3083,3.85644 -2.40623,5.91505 -0.57569,1.07942 -1.15582,2.05485 -1.3125,2.19076 -0.2541,0.22042 -1.65798,-0.16856 -12.9375,-3.75559 -6.95501,-2.21178 -12.68816,-4.09798 -12.75,-4.16244 -0.0618,-0.0645 -0.31406,-0.64412 -0.5625,-1.31446 -0.5631,-1.51933 -1.12179,-4.06038 -1.28125,-5.91505 l -0.125,-1.40835 0.6875,0.71982 c 0.72589,0.77266 1.43215,1.18927 2,1.18927 l 0.34375,0 -0.34375,-0.65722 c -1.04833,-1.97611 -1.15985,-5.50692 -0.25,-8.07452 0.27787,-0.78415 0.59733,-1.40835 0.6875,-1.40835 z m 13.78125,0.40686 c 0.76745,0.001 2.21147,0.16572 3.21875,0.34426 5.15343,0.91345 7.41426,1.35391 7.53125,1.47094 0.20083,0.2009 1.18954,3.09736 1.1875,3.47392 -0.002,0.2865 -1.12976,0.75564 -7.71875,3.22355 -4.24326,1.58931 -8.13859,3.20745 -8.25,3.09836 -0.59573,-0.58334 -5.22658,-7.18112 -4.96875,-7.47988 0.15154,-0.48348 0.48493,-0.42865 0.96875,-0.68853 0.40351,-0.2274 0.70351,-0.38497 0.90625,-0.59463 1.44573,-1.14962 2.99221,-1.8721 4.6875,-2.34725 0.88785,-0.41108 1.2537,-0.50279 2.4375,-0.50074 z"
       id="path4144" />
    <path
       inkscape:connector-curvature="0"
       style="fill:#a88628"
       d="m 131.94501,103.85383 c -0.339,0.56516 -0.66316,1.10065 -0.80933,1.62132 2.98449,4.50237 6.25964,8.81738 9.50239,13.0615 1.36594,-0.0442 11.13118,-4.47037 16.67147,-5.81903 -0.0657,-0.45012 -0.21805,-1.10325 -0.37101,-1.63857 l -15.96887,6.05105 z"
       id="path4146" />
    <path
       inkscape:connector-curvature="0"
       style="fill:#3479ee"
       d="m 134.57283,107.71141 -0.25488,2.40327 0.6759,0.96208 1.04173,-1.21462 z"
       id="path4148" />
    <g
       id="g4383"
       transform="matrix(3.543307,0,0,3.543307,69.000787,40.363757)">
      <g
         id="g4357"
         style="fill-rule:evenodd">
        <rect
           id="rect4359"
           style="opacity:0.5;fill:#ffffff"
           height="12.982"
           rx="6.4910002"
           y="0.28200001"
           x="0.28200001"
           width="12.982" />
        <rect
           id="rect4361"
           transform="matrix(0,1,-1,0,0,0)"
           style="fill:url(#linearGradient4867)"
           height="11.853"
           rx="5.9260001"
           y="-12.7"
           x="0.847"
           width="11.853" />
      </g>
      <path
         id="path4363"
         d="m 8.0714883,2.4273546 c 0.2927114,0.056516 0.5444034,0.1212424 0.7450624,0.2102031 0.309628,0.1320081 0.507724,0.3073855 0.602746,0.5095012 -0.287452,-0.051404 -0.541421,-0.037813 -0.770173,0.048443 C 10.28918,3.8205535 11.065722,4.5679376 10.976394,5.4273871 10.856441,5.2468958 10.694452,5.1307803 10.490846,5.0715719 10.741979,6.0145454 10.769798,6.7861107 10.566196,7.4004511 10.426799,6.9909312 10.295586,6.7508146 10.181108,6.6645857 10.340368,7.9282799 10.124938,8.8618205 9.5365047,9.4706705 9.6480027,9.0989096 9.6957907,8.7967588 9.6704427,8.5568573 8.9789517,9.5565228 8.1912979,10.068877 7.3096854,10.101387 6.9611983,10.097351 6.6313672,10.052944 6.3218508,9.9557888 5.8678571,9.8088176 5.4572786,9.552136 5.0912435,9.195648 5.6620995,9.241131 6.181414,9.144648 6.6399675,8.9207195 L 7.3934038,8.4517625 C 7.4884538,8.3836955 7.5803029,8.3903332 7.6696586,8.4320492 7.8536317,8.4075581 7.9011781,8.3543017 7.8487571,8.1877584 7.7317281,8.0896162 7.6283022,7.9595573 7.4553064,7.8652951 7.078721,7.6765954 6.6874198,7.6631477 6.2799937,7.9517078 5.8894564,8.1647097 5.5152384,8.1537563 5.1498464,7.9273517 4.9099054,7.768606 4.6781668,7.5551599 4.4550149,7.2884936 l -0.083716,-0.1212423 0,-0.00942 c 0.011101,-0.2640037 0.1173207,-0.4043005 0.3348615,-0.4366902 0.2454401,0.021261 0.5276482,0.0728 0.8455174,0.161733 0.053024,-0.2936868 -0.016898,-0.5985558 -0.2092874,-0.913773 l 0.00661,-0.034776 C 5.6474451,5.6675539 5.8941602,5.5068157 6.1200437,5.3828954 6.2017288,5.2763701 6.235887,5.2380102 6.2951086,5.1429047 6.2819976,5.1148357 6.3084197,5.1001714 6.3251847,5.1140424 6.3429008,5.0339207 6.343755,5.0438933 6.2699084,4.9405744 6.0511923,4.9924358 5.8033452,4.9303971 5.6360004,4.8880544 5.5494947,4.8641023 5.4319607,4.8110616 5.2980353,4.6872085 L 4.9548084,4.3637829 4.8651602,4.2520749 4.8735029,4.2115709 C 4.9121459,3.957177 5.0389772,3.7505668 5.1413797,3.556525 5.2530105,3.3787385 5.4623827,3.1871322 5.7776099,2.9824194 5.1918223,3.0525274 4.6667,3.305993 4.1954034,3.7425199 3.804877,3.6050489 3.3385152,3.6350029 2.805739,3.8313324 l -0.1460575,0.023818 c -0.0082,0.00403 0.070435,0.029738 0.062353,0.033641 l 0.083716,-0.056651 C 2.4744535,3.6815084 2.4896024,3.4752457 2.3814931,2.7871776 0.41561284,4.8892949 0.39531799,8.0451422 1.9519325,10.328088 3.1317634,11.801946 4.6121303,12.584424 6.3971861,12.689344 10.548467,12.874738 13.267826,9.2974253 12.600427,5.6702626 12.584828,5.3823893 12.229855,4.1390088 11.578611,3.2955586 11.693618,3.732099 11.701208,4.2095127 11.704507,4.4573668 11.460994,3.6315446 10.785258,2.9493031 9.8042017,2.6621561 9.3188747,2.5222496 8.7379207,2.4466377 8.0713704,2.4277046 z"
         style="fill:#d25225"
         inkscape:connector-curvature="0" />
      <path
         id="path4365"
         d="m 11.646109,4.5783263 c 0.01522,0.026644 0.02759,0.054902 0.04187,0.081007 -7.75e-4,0.00538 7.77e-4,0.01211 0,0.016147 -0.0031,-0.00538 -0.0085,-0.01211 -0.0085,-0.016147 -0.0126,-0.027316 -0.02015,-0.054229 -0.0335,-0.081007 z"
         style="fill:#ef8043"
         inkscape:connector-curvature="0" />
      <path
         id="path4367"
         transform="scale(0.28222,0.28222)"
         d="m 26.14656,29.972656 c 0.328285,-0.183594 0.742508,-0.08203 1.055168,0 C 27.511992,29.945312 28.115226,29.777344 27.874709,29 27.47837,28.532157 26.875,27.974471 25.689598,27.561316 z"
         style="fill:#fef7ce"
         inkscape:connector-curvature="0" />
      <path
         id="path4369"
         transform="scale(0.28222,0.28222)"
         d="m 20,17.268957 1.72261,1.804545 c 0.240748,-0.161352 0.536182,-0.29536 0.65193,-0.851243 0.02423,-0.03889 0.05627,-0.06215 0.107845,-0.06978 0.208389,-0.413584 0.0027,-0.553732 -0.253752,-0.748567 C 21.499888,17.417522 20.970932,17.380352 20,17.268957 z"
         style="fill:#2d2d2d"
         inkscape:connector-curvature="0" />
      <path
         id="path4371"
         transform="scale(0.28222,0.28222)"
         d="m 18.928845,21.164899 c -0.214112,-0.504008 -0.606457,-1.193415 -1.080263,-1.572385 l 2.96792,-1.476728 0.917834,0.946796 c -1.045649,0.634481 -1.991861,1.280011 -2.805491,2.102317 z"
         style="fill:#fef7ce"
         inkscape:connector-curvature="0" />
      <path
         id="path4373"
         transform="scale(0.28222,0.28222)"
         d="m 17.25,15.0625 c -0.530386,1.659223 -0.200898,3.15632 0.59375,4.53125 l 2.976563,-1.476563 C 20.4237,17.690261 20.015625,17.273438 20.015625,17.273438 19.709109,17.188568 19.318289,16.93885 18.84375,16.5 L 17.625,15.34375 z"
         style="fill:#bb3921"
         inkscape:connector-curvature="0" />
    </g>
    <g
       id="g4899"
       transform="matrix(3.543307,0,0,3.543307,124.00079,40.363757)">
      <rect
         id="rect4887"
         width="12.982"
         x="0.28200001"
         y="0.28200001"
         rx="6.4910002"
         height="12.982"
         style="opacity:0.5;fill:#ffffff;fill-rule:evenodd" />
      <rect
         id="rect4889"
         width="11.853"
         x="0.87300003"
         y="0.847"
         rx="5.9260001"
         height="11.853"
         style="fill:#ffdd72;fill-rule:evenodd" />
      <path
         id="path4891"
         d="m 1.1594094,7.100685 0.062883,-0.3144188 0.6887827,0.2873467 0.4750361,0.43918 0.4082726,0.059521 C 2.6485879,7.9012269 2.3534116,8.4313681 2.4071459,8.798545 2.4383999,9.0120976 2.6576744,9.3164238 2.7829697,9.4902346 2.9580063,9.7329972 3.2876112,9.8763712 3.375743,10.181986 l 0.014715,0.503069 0.09596,0.377302 c -0.019151,0.159851 -0.1693457,0.437074 -0.070331,0.585479 0.1088782,0.163214 0.5116849,0.368466 0.6987006,0.41978 0.1785577,0.04898 0.1980524,-0.136898 0.1259212,-0.250655 L 4.473944,11.49682 4.7691203,11.279055 4.976982,10.561111 5.4240848,10.27213 C 5.6072653,9.998491 5.4744895,9.7713242 5.5430362,9.4902656 L 5.8442487,8.6413363 C 5.5035142,8.5140962 5.0155989,8.3578883 4.7752263,8.0753829 L 4.7123433,8.1068309 4.6494603,7.8238549 4.2721585,7.6352033 4.2092756,7.6980863 4.1149446,7.2579003 3.6118743,7.2180343 3.2345725,7.0117747 C 3.0718306,6.9886284 2.8556362,7.2550412 2.7943877,7.3836688 l -0.220093,-0.031448 0.062883,-0.062883 -0.1886503,-0.125766 0.031448,0.125766 C 2.3443664,7.1491384 2.3211942,6.9725605 2.3542094,6.7862675 l -0.220093,-0.094318 -0.031448,0.094318 C 2.0633455,6.6306622 2.0795221,6.4296552 2.1969993,6.31464 2.0246731,6.197111 1.9083066,6.3073987 1.7882548,6.4404059 L 1.5367202,5.9373369 c -0.069271,0.1543174 -0.044224,0.3083193 -0.031448,0.4716275 l -0.062883,0 C 1.4285015,6.2330162 1.3850407,6.0407492 1.4742381,5.8749246 1.6409239,5.5650342 2.1411223,5.4337648 2.4485235,5.4971521 l -0.031448,0.062883 0.2829773,0.2515345 C 2.701346,5.3307921 2.8902445,5.2799827 3.1559901,4.9299716 L 3.3420322,4.592413 C 3.5482594,4.3655907 3.8684001,4.2110858 4.1451189,4.1090894 L 4.4922374,3.8936179 C 4.3799842,3.6993388 4.084279,3.755243 3.8948425,3.7678519 4.2354826,3.5740125 4.699093,3.6786545 4.9324221,3.3276658 4.6778695,3.1424423 4.6777751,2.6590877 4.2721443,2.8560383 L 4.3350273,2.667388 3.9891683,2.5101793 3.7369096,3.0360429 3.3917735,3.4534331 3.3603255,3.2333414 C 3.2273273,3.1715575 2.8609353,3.0634913 2.8537974,2.8873867 2.8460389,2.6960002 3.4372954,2.4062226 3.5804185,2.2900862 L 3.5175355,2.447295 3.7612093,2.424588 C 3.8128683,2.391963 4.3035495,1.70076 4.3664648,2.1328772 4.7073881,2.2620957 4.7458097,2.4095752 5.0896269,2.1957602 L 4.869534,2.1014295 C 4.8348533,1.7909042 4.560744,1.7871814 4.3035806,1.7870107 L 5.1210685,1.409709 c 0.091021,0.2232404 0.3765479,0.2689563 0.4689237,0.4745641 0.065624,0.1460882 -0.1294151,0.2341851 -0.1244729,0.3743652 0.00608,0.1728306 0.1740306,0.384503 0.2529492,0.5345118 L 6.1914486,2.2761803 C 6.4524473,2.1370218 6.8720693,2.1219522 7.079931,1.8971083 7.3205868,1.636764 7.1882791,1.2226427 7.6364202,1.2210587 c -0.09093,-0.03825 -0.2373855,-0.067292 -0.3144188,0 l -0.094318,-0.094331 0.125766,0 C 7.2877087,1.0365606 7.2433039,0.98802184 7.1333564,0.96951904 7.0070214,0.81332138 6.7162804,0.88694228 6.5359615,0.86984758 5.9079735,0.81032668 5.229679,1.0122414 4.6494513,1.2104696 2.6698734,1.8867494 0.89765434,4.0634511 0.82026674,6.2202987 0.81147374,6.4651673 1.0196431,6.573924 1.1227968,6.7613807 l 0.036607,0.3392888 M 9.4914905,1.8184419 c -0.110521,0.090491 -0.298761,0.1354952 -0.440186,0.1572087 L 8.7951465,2.3290574 8.495318,2.5788307 C 8.447112,2.6933468 8.524464,2.8665239 8.548231,2.9817887 L 8.8626485,2.82458 c 0.04522,0.156235 0.167523,0.1963855 0.282978,0.2829773 0.186387,-0.35369 0.02591,-0.6916482 0.471627,-0.8803722 l -0.282977,0.3458603 0.09433,-0.062883 0.03145,0.1886502 0.03145,-0.2515345 c 0.08304,0.2836368 -0.0038,0.6738617 -0.314419,0.7809205 l -0.314419,-0.026314 0,-0.1886502 C 8.6838245,3.0505527 8.6897675,3.1396337 8.7368995,3.2962101 8.6155302,3.2617234 8.5433757,3.267788 8.4539236,3.3590931 8.3578729,3.2603915 8.2795155,3.1846539 8.2652721,3.0446743 8.2042123,2.9838603 8.1772385,2.9424296 8.1709541,2.8560228 L 7.950861,2.8245877 8.045192,3.3276568 C 7.9613092,3.1702903 7.8742752,3.1325294 7.699333,3.170448 L 7.793664,3.5477498 7.91943,3.5163018 7.825112,3.4848668 7.9508779,3.2647738 8.0137609,3.6106341 8.2967382,3.5477511 c -0.079266,0.075749 -0.1422115,0.094163 -0.2515358,0.094331 l 0.031448,0.094331 -0.1572101,0 0.2200931,0.3773018 c -0.5151737,0.00427 -0.5212732,0.26779 -0.5030691,0.6917206 0.1005507,0.00724 0.1498524,0.022138 0.220093,0.094331 0.4160389,-0.2192137 0.512219,-0.6267622 1.0061383,-0.7546048 0.08015,0.2492392 0.327593,0.2338334 0.251534,0.5345118 0.242669,-0.049525 0.310584,-0.2536733 0.15721,-0.4401861 0.206762,0.1231539 0.266343,0.376107 0.408744,0.5659534 0.10024,-0.131616 0.06112,-0.2820968 0.220093,-0.3773018 l 0,0.094331 C 10.166621,4.7588185 10.350303,4.8118921 10.686323,4.9312146 10.570837,5.0951526 10.43158,5.2560079 10.214696,5.2425507 9.9492006,5.2261027 9.6104146,4.9657065 9.4286486,5.2770757 L 8.9227505,4.876161 C 8.6421315,4.7578173 8.3658836,4.8691783 8.0766503,4.8368898 l -0.125766,0.062883 0.062883,0.031448 C 7.4377214,5.1903961 7.1183992,5.8729668 7.0584709,6.4404279 L 6.9485194,6.817731 c 0.061254,0.3684351 0.37312,0.7501696 0.6352824,1.0008869 0.1845951,0.1765146 0.3172791,-0.1691246 0.4928511,0.0053 0.2323864,-0.087969 0.5831516,-0.2408755 0.7962956,0.00466 0.14001,0.1613272 -0.0057,0.2943578 0.04289,0.4669737 0.08404,0.2986664 0.284297,0.6484564 0.283825,0.9746966 l -0.07883,0.7860458 c 0.06888,0.47889 0.335107,0.88163 0.339257,1.383441 0.385509,-0.03971 0.8187145,-0.233676 1.0328015,-0.565952 l 0.09194,-0.280147 0.158845,-0.194312 -0.05983,-0.308759 c 0.08999,-0.2159728 0.453769,-0.2389578 0.508572,-0.4749285 0.07464,-0.3212411 -0.120387,-0.7023782 -0.0041,-1.0371089 0.179344,-0.5160853 0.679049,-0.8935759 0.692788,-1.4777657 l -0.377301,0.031448 c 0.339352,-0.4164462 1.058615,-0.6259747 0.69172,-1.2576726 l -0.157209,0.1886502 -0.06288,0 C 11.854029,5.8084429 11.661232,5.7821259 11.660981,5.4657895 11.955308,5.7191162 12.260292,5.7271968 12.541352,6.0317428 12.845834,5.8669242 12.539283,5.1485104 12.457366,4.8998374 12.185236,4.0732307 11.739077,3.2896373 11.12637,2.6674669 10.907315,2.4450217 10.732309,2.1756723 10.403302,2.1329551 l 0.03145,-0.094331 C 10.179192,2.0047971 9.7516145,2.0026501 9.5543795,1.8185311 l -0.06288,0 z"
         inkscape:connector-curvature="0"
         style="fill:#ff9933" />
    </g>
  </g>
</svg>
