<svg xmlns="http://www.w3.org/2000/svg" width="48" height="48">
 <g transform="translate(0,-1004.3622)">
  <path d="m 24.99999,1006.3622 c -12.702549,0 -23,10.2975 -23,23 0,6.3672 2.600711,12.1166 6.78125,16.2813 4.084505,3.7123 9.51443,5.9687 15.46875,5.9687 12.702549,0 23,-10.2975 23,-23 0,-5.9543 -2.25639,-11.3842 -5.96875,-15.4687 -4.164622,-4.1806 -9.914097,-6.7813 -16.28125,-6.7813 z m 16.28125,6.7813 c 3.854354,4.1128 6.21875,9.6374 6.21875,15.7187 0,12.7025 -10.297451,23 -23,23 -6.081345,0 -11.605939,-2.3644 -15.71875,-6.2187 4.159689,4.1438 9.883354,6.7187 16.21875,6.7187 12.702549,0 23,-10.2975 23,-23 0,-6.3354 -2.5749,-12.0591 -6.71875,-16.2187 z" opacity="0.05"/>
  <path d="m 41.28124,1013.1435 c 3.71236,4.0845 5.96875,9.5144 5.96875,15.4687 0,12.7025 -10.297451,23 -23,23 -5.95432,0 -11.384245,-2.2564 -15.46875,-5.9687 4.112811,3.8543 9.637405,6.2187 15.71875,6.2187 12.702549,0 23,-10.2975 23,-23 0,-6.0813 -2.364396,-11.6059 -6.21875,-15.7187 z" opacity="0.1"/>
  <path transform="matrix(15.333333,0,0,11.5,415.24999,879.11222)" d="m -24,13 a 1.5,2 0 1 1 -3,0 1.5,2 0 1 1 3,0 z" opacity="0.2"/>
 </g>
</svg>
