<?xml version="1.0" encoding="UTF-8" standalone="no"?>
<!-- Created with Inkscape (http://www.inkscape.org/) -->

<svg
   xmlns:dc="http://purl.org/dc/elements/1.1/"
   xmlns:cc="http://creativecommons.org/ns#"
   xmlns:rdf="http://www.w3.org/1999/02/22-rdf-syntax-ns#"
   xmlns:svg="http://www.w3.org/2000/svg"
   xmlns="http://www.w3.org/2000/svg"
   xmlns:sodipodi="http://sodipodi.sourceforge.net/DTD/sodipodi-0.dtd"
   xmlns:inkscape="http://www.inkscape.org/namespaces/inkscape"
   width="48"
   height="48"
   id="svg2"
   version="1.1"
   inkscape:version="0.48.4 r9939"
   sodipodi:docname="folder-music.svg"
   inkscape:export-filename="/media/Data/Main/Visuals/Icons/Numix/Desktop/repos/numix-wiki/Gjorgi/Numix-folders/48/New/folder-144.png"
   inkscape:export-xdpi="270"
   inkscape:export-ydpi="270">
  <defs
     id="defs4" />
  <sodipodi:namedview
     id="base"
     pagecolor="#ffffff"
     bordercolor="#666666"
     borderopacity="1.0"
     inkscape:pageopacity="0.0"
     inkscape:pageshadow="2"
     inkscape:zoom="15.697115"
     inkscape:cx="36.90586"
     inkscape:cy="36.396876"
     inkscape:document-units="px"
     inkscape:current-layer="layer1"
     showgrid="true"
     inkscape:window-width="1366"
     inkscape:window-height="740"
     inkscape:window-x="0"
     inkscape:window-y="28"
     inkscape:window-maximized="1">
    <inkscape:grid
       type="xygrid"
       id="grid2985"
       empspacing="5"
       visible="true"
       enabled="true"
       snapvisiblegridlinesonly="true" />
  </sodipodi:namedview>
  <metadata
     id="metadata7">
    <rdf:RDF>
      <cc:Work
         rdf:about="">
        <dc:format>image/svg+xml</dc:format>
        <dc:type
           rdf:resource="http://purl.org/dc/dcmitype/StillImage" />
        <dc:title />
      </cc:Work>
    </rdf:RDF>
  </metadata>
  <g
     inkscape:label="Layer 1"
     inkscape:groupmode="layer"
     id="layer1"
     transform="translate(0,-1004.3622)">
    <path
       style="opacity:0.04;fill:#000000;fill-opacity:1;stroke:none"
       d="M 11.71875 8.5 C 10.385176 8.5 9.9427791 9.3783082 9.78125 10.5625 L 4.5625 10.5625 L 4.5625 14.6875 L 1.5 14.6875 L 4.5625 39.5 L 42.40625 39.5 L 46.5 14.6875 L 43.4375 14.6875 L 43.4375 10.5625 L 20.84375 10.5625 C 20.856285 10.633774 20.864991 10.707436 20.875 10.78125 L 43.21875 10.78125 L 43.21875 14.84375 L 46.25 14.84375 L 42.21875 39.25 L 4.78125 39.25 L 1.75 14.84375 L 4.78125 14.84375 L 4.78125 10.78125 L 9.9375 10.78125 C 10.096422 9.6128982 10.553803 8.75 11.875 8.75 L 18.9375 8.75 C 19.948864 8.75 20.465909 9.26875 20.71875 10.03125 C 20.490506 9.1266863 19.998525 8.5 18.875 8.5 L 11.71875 8.5 z "
       id="path3789"
       transform="translate(0,1004.3622)" />
    <path
       style="opacity:0.08;fill:#000000;fill-opacity:1;stroke:none"
       d="M 11.875 8.75 C 10.553803 8.75 10.096422 9.6128982 9.9375 10.78125 L 4.78125 10.78125 L 4.78125 14.84375 L 1.75 14.84375 L 4.78125 39.25 L 42.21875 39.25 L 46.25 14.84375 L 43.21875 14.84375 L 43.21875 10.78125 L 20.875 10.78125 C 20.881185 10.820506 20.869546 10.866261 20.875 10.90625 L 43.09375 10.90625 L 43.09375 14.9375 L 46.125 14.9375 L 42.09375 39.125 L 4.90625 39.125 L 1.875 14.9375 L 4.90625 14.9375 L 4.90625 10.90625 L 10 10.90625 C 10.157712 9.7461899 10.62277 8.875 11.9375 8.875 L 18.96875 8.875 C 20.175568 8.875 20.650659 9.6086048 20.84375 10.625 C 20.665971 9.5328906 20.201704 8.75 18.9375 8.75 L 11.875 8.75 z "
       transform="translate(0,1004.3622)"
       id="path3787" />
    <path
       inkscape:connector-curvature="0"
       d="m 9.9204544,1017.2705 c 0,-2.0166 0,-4.0333 2.0113636,-4.0333 l 7.039773,0 c 2.011363,0 2.011363,2.0167 2.011363,4.0333 z m -8.0454544,2.0167 44.249999,0 -4.022727,24.2 -37.2102266,0 z m 3.0170454,-4.0333 38.2159086,0 0,15.125 -38.2159086,0 z"
       style="opacity:0.16;fill:#000000;fill-opacity:1;stroke:none"
       id="path3769" />
    <rect
       style="fill:#ea9036;fill-opacity:1;stroke:none"
       id="rect3757"
       width="38"
       height="15"
       x="5"
       y="1015.3622" />
    <path
       style="fill:#f2bb64;fill-opacity:1;stroke:none"
       d="m 2,1019.3622 44,0 -4,24 -37,0 z"
       id="path2987"
       inkscape:connector-curvature="0"
       sodipodi:nodetypes="ccccc" />
    <path
       style="fill:#ea9036;fill-opacity:1;stroke:none"
       d="m 10,1017.3622 c 0,-2 0,-4 2,-4 l 7,0 c 2,0 2,2 2,4 z"
       id="path3759"
       inkscape:connector-curvature="0"
       sodipodi:nodetypes="ccccc" />
    <path
       id="path3922"
       d="m 25.202285,1023.5424 c -1.164829,0.2929 -2.143042,1.3626 -2.143042,1.3626 l 0.02983,0.034 1.865828,6.9321 c -1.33412,-0.7236 -3.239427,-0.5419 -4.816764,0.5981 -2.037736,1.473 -2.746984,3.9837 -1.566995,5.6008 1.180084,1.6174 3.783333,1.7312 5.821065,0.2582 1.606326,-1.161 2.500751,-2.991 2.177773,-4.4941 -0.01001,-0.047 -0.02452,-0.091 -0.03688,-0.137 l -1.790534,-6.9305 c 0.04161,-0.061 0.564154,-0.3008 2.25569,-0.4161 1.790111,-0.1206 3.001746,-2.9883 3.001746,-2.9883 0,0 -2.012721,0.7708 -3.597226,0.2122 -0.396122,-0.1396 -0.81329,-0.1327 -1.201185,-0.034 z"
       style="line-height:normal;opacity:0.25;color:#000000;fill:#000000;fill-opacity:1"
       inkscape:connector-curvature="0" />
  </g>
</svg>
