<?xml version="1.0" encoding="UTF-8" standalone="no"?>
<svg
   xmlns:dc="http://purl.org/dc/elements/1.1/"
   xmlns:cc="http://creativecommons.org/ns#"
   xmlns:rdf="http://www.w3.org/1999/02/22-rdf-syntax-ns#"
   xmlns:svg="http://www.w3.org/2000/svg"
   xmlns="http://www.w3.org/2000/svg"
   xmlns:sodipodi="http://sodipodi.sourceforge.net/DTD/sodipodi-0.dtd"
   xmlns:inkscape="http://www.inkscape.org/namespaces/inkscape"
   width="48"
   viewBox="0 0 48 48"
   height="48"
   id="svg2987"
   version="1.1"
   inkscape:version="0.48.4 r9939"
   sodipodi:docname="fileopen.svg">
  <metadata
     id="metadata3015">
    <rdf:RDF>
      <cc:Work
         rdf:about="">
        <dc:format>image/svg+xml</dc:format>
        <dc:type
           rdf:resource="http://purl.org/dc/dcmitype/StillImage" />
      </cc:Work>
    </rdf:RDF>
  </metadata>
  <defs
     id="defs3013" />
  <sodipodi:namedview
     pagecolor="#ffffff"
     bordercolor="#666666"
     borderopacity="1"
     objecttolerance="10"
     gridtolerance="10"
     guidetolerance="10"
     inkscape:pageopacity="0"
     inkscape:pageshadow="2"
     inkscape:window-width="672"
     inkscape:window-height="480"
     id="namedview3011"
     showgrid="false"
     inkscape:zoom="3.4766083"
     inkscape:cx="-5.3733064"
     inkscape:cy="26.782728"
     inkscape:window-x="0"
     inkscape:window-y="0"
     inkscape:window-maximized="0"
     inkscape:current-layer="svg2987" />
  <path
     style="fill:#a57953;stroke:none;line-height:normal"
     d="M 5.90625 6 C 4.8421845 6.0001147 4.000099 6.9327659 4 8 L 4 19.96875 L 3.21875 19.96875 C 3.208017 19.968436 3.198237 19.96896 3.1875 19.96875 C 3.133816 19.96775 3.0849138 19.96715 3.03125 19.96875 L 3 19.96875 C 2.502155 19.99771 2.0520862 20.165966 1.6875 20.40625 C 1.3350738 20.63852 1.0477871 21.008319 1.03125 21.46875 C 1.0306794 21.484637 0.99987392 21.48385 1 21.5 L 1 40.46875 C 1.0000871 40.986321 1.3806814 41.386668 1.78125 41.625 C 2.1818186 41.863332 2.6556949 41.999969 3.1875 42 L 44.8125 42 C 45.344306 41.999969 45.818182 41.863332 46.21875 41.625 C 46.619318 41.386668 46.999911 40.98632 47 40.46875 L 47 23.25 C 46.999911 22.73243 46.619318 22.363332 46.21875 22.125 C 45.818182 21.886668 45.344305 21.750033 44.8125 21.75 L 42.96875 21.75 L 42.96875 8 C 42.968644 6.9327711 42.126567 6.0001147 41.0625 6 L 5.90625 6 z M 10.5 10.5 L 37.5 10.5 L 37.5 21.75 L 35 21.75 L 35 20.9375 L 28.90625 20.9375 C 28.767587 20.691653 28.556242 20.488773 28.3125 20.34375 C 27.911932 20.105418 27.406804 19.968781 26.875 19.96875 L 10.5 19.96875 L 10.5 10.5 z M 13 13 L 13 14 L 35 14 L 35 13 L 13 13 z M 13 16.9375 L 13 17.9375 L 35 17.9375 L 35 16.9375 L 13 16.9375 z M 3.03125 20.96875 C 3.04022 20.968487 3.053519 20.968908 3.0625 20.96875 C 3.098422 20.968119 3.151622 20.96765 3.1875 20.96875 L 4 20.96875 L 10.5 20.96875 L 26.875 20.96875 C 27.226381 20.968771 27.559234 21.086653 27.78125 21.21875 C 28.003266 21.350847 28.062499 21.460837 28.0625 21.46875 L 28.0625 22.25 L 28.0625 22.75 L 28.5625 22.75 L 37.5 22.75 L 42.96875 22.75 L 44.8125 22.75 C 45.163883 22.750021 45.496733 22.83665 45.71875 22.96875 C 45.940767 23.100847 45.999999 23.242087 46 23.25 L 46 40.46875 C 45.999999 40.47665 45.94077 40.617904 45.71875 40.75 C 45.496734 40.882096 45.163882 40.99998 44.8125 41 L 3.1875 41 C 2.8361188 40.99998 2.5032666 40.882097 2.28125 40.75 C 2.0592334 40.617903 2.0000013 40.476663 2 40.46875 L 2 21.46875 C 1.9999197 21.45846 2.027756 21.344626 2.21875 21.21875 C 2.4032408 21.09716 2.7147399 20.993003 3.03125 20.96875 z "
     id="path15484" />
</svg>
