<?xml version="1.0" encoding="UTF-8" standalone="no"?>
<svg
   xmlns:dc="http://purl.org/dc/elements/1.1/"
   xmlns:cc="http://creativecommons.org/ns#"
   xmlns:rdf="http://www.w3.org/1999/02/22-rdf-syntax-ns#"
   xmlns:svg="http://www.w3.org/2000/svg"
   xmlns="http://www.w3.org/2000/svg"
   xmlns:sodipodi="http://sodipodi.sourceforge.net/DTD/sodipodi-0.dtd"
   xmlns:inkscape="http://www.inkscape.org/namespaces/inkscape"
   width="48"
   viewBox="0 0 48 48"
   height="48"
   id="svg3267"
   version="1.1"
   inkscape:version="0.48.4 r9939"
   sodipodi:docname="folder-system.svg">
  <metadata
     id="metadata3285">
    <rdf:RDF>
      <cc:Work
         rdf:about="">
        <dc:format>image/svg+xml</dc:format>
        <dc:type
           rdf:resource="http://purl.org/dc/dcmitype/StillImage" />
      </cc:Work>
    </rdf:RDF>
  </metadata>
  <defs
     id="defs3283" />
  <sodipodi:namedview
     pagecolor="#ffffff"
     bordercolor="#666666"
     borderopacity="1"
     objecttolerance="10"
     gridtolerance="10"
     guidetolerance="10"
     inkscape:pageopacity="0"
     inkscape:pageshadow="2"
     inkscape:window-width="672"
     inkscape:window-height="480"
     id="namedview3281"
     showgrid="false"
     inkscape:zoom="2.4583333"
     inkscape:cx="14.044244"
     inkscape:cy="3.4405164"
     inkscape:window-x="0"
     inkscape:window-y="0"
     inkscape:window-maximized="0"
     inkscape:current-layer="svg3267" />
  <path
     style="line-height:normal;fill:#a57953;stroke:none"
     d="M 5.90625 6 C 4.8390737 6.0001141 3.9688507 6.9234291 3.96875 8 L 3.96875 10.03125 L 3.1875 10.03125 C 3.11881 10.02835 3.0686897 10.02835 3 10.03125 L 2.96875 10.03125 C 1.8940665 10.123337 0.99443091 10.949207 1 12 L 1 40 C 1.000128 41.120734 2.037763 41.9999 3.1875 42 L 44.8125 42 C 45.962239 41.9999 46.99987 41.120733 47 40 L 47 14.59375 C 46.99987 13.473018 45.962238 12.625103 44.8125 12.625 L 43.03125 12.625 L 43.03125 8 C 43.031145 6.9367422 42.192179 6.0001141 41.125 6 L 5.90625 6 z M 3.03125 11.03125 C 3.041413 11.030822 3.052323 11.031464 3.0625 11.03125 C 3.093032 11.030609 3.125762 11.02995 3.15625 11.03125 L 3.1875 11.03125 L 26.875 11.03125 C 27.341739 11.031291 27.780615 11.323461 27.96875 11.65625 C 28.031784 11.767164 28.062488 11.892812 28.0625 12 L 28.0625 13.125 L 28.0625 13.625 L 28.5625 13.625 L 42.53125 13.625 L 44.8125 13.625 C 45.430698 13.625055 45.99995 14.164996 46 14.59375 L 46 40 C 45.99995 40.428755 45.430697 40.999946 44.8125 41 L 3.1875 41 C 2.5693054 40.999946 2.000049 40.428754 2 40 L 2 12 C 1.99788 11.599702 2.4634173 11.095987 3.03125 11.03125 z M 22.75 20 C 22.306175 20 21.9375 20.33745 21.9375 20.78125 L 21.9375 21.84375 C 21.656888 21.93875 21.387149 22.02665 21.125 22.15625 L 20.375 21.4375 C 20.061168 21.123799 19.563808 21.123799 19.25 21.4375 L 17.4375 23.25 C 17.123667 23.5638 17.123667 24.0614 17.4375 24.375 L 18.15625 25.09375 C 18.02327 25.36035 17.9397 25.6518 17.84375 25.9375 L 16.8125 25.9375 C 16.368673 25.9375 16 26.27505 16 26.71875 L 16 29.28125 C 16 29.72495 16.368673 30.0625 16.8125 30.0625 L 17.84375 30.0625 C 17.93969 30.3482 18.023276 30.63965 18.15625 30.90625 L 17.4375 31.625 C 17.123667 31.9388 17.123667 32.436199 17.4375 32.75 L 19.25 34.5625 C 19.563832 34.876199 20.061192 34.876199 20.375 34.5625 L 21.125 33.84375 C 21.387149 33.97375 21.656888 34.06195 21.9375 34.15625 L 21.9375 35.21875 C 21.9375 35.66255 22.306181 36 22.75 36 L 25.28125 36 C 25.725076 36 26.0625 35.662548 26.0625 35.21875 L 26.0625 34.15625 C 26.348403 34.06025 26.639579 33.97655 26.90625 33.84375 L 27.625 34.5625 C 27.938831 34.8762 28.436193 34.8762 28.75 34.5625 L 30.5625 32.75 C 30.876332 32.4362 30.876325 31.9386 30.5625 31.625 L 29.84375 30.875 C 29.973616 30.612901 30.062071 30.343 30.15625 30.0625 L 31.21875 30.0625 C 31.662576 30.0625 32 29.72495 32 29.28125 L 32 26.71875 C 32.000001 26.27505 31.662598 25.9375 31.21875 25.9375 L 30.15625 25.9375 C 30.06207 25.657 29.973618 25.3871 29.84375 25.125 L 30.5625 24.375 C 30.876332 24.0612 30.876332 23.5638 30.5625 23.25 L 28.75 21.4375 C 28.436167 21.1238 27.938807 21.1238 27.625 21.4375 L 26.90625 22.15625 C 26.63955 22.02305 26.348372 21.93975 26.0625 21.84375 L 26.0625 20.78125 C 26.0625 20.33745 25.725101 20 25.28125 20 L 22.75 20 z M 24 25.9375 C 25.145218 25.9375 26.0625 26.855 26.0625 28 C 26.0625 29.1448 25.145218 30.0625 24 30.0625 C 22.854781 30.0625 21.9375 29.1448 21.9375 28 C 21.9375 26.855 22.854781 25.9375 24 25.9375 z "
     id="path8547" />
</svg>
