<?xml version="1.0" encoding="UTF-8" standalone="no"?>
<svg
   xmlns:dc="http://purl.org/dc/elements/1.1/"
   xmlns:cc="http://creativecommons.org/ns#"
   xmlns:rdf="http://www.w3.org/1999/02/22-rdf-syntax-ns#"
   xmlns:svg="http://www.w3.org/2000/svg"
   xmlns="http://www.w3.org/2000/svg"
   xmlns:sodipodi="http://sodipodi.sourceforge.net/DTD/sodipodi-0.dtd"
   xmlns:inkscape="http://www.inkscape.org/namespaces/inkscape"
   width="48"
   viewBox="0 0 48 48"
   height="48"
   id="svg3073"
   version="1.1"
   inkscape:version="0.48.4 r9939"
   sodipodi:docname="folder-download.svg">
  <metadata
     id="metadata3091">
    <rdf:RDF>
      <cc:Work
         rdf:about="">
        <dc:format>image/svg+xml</dc:format>
        <dc:type
           rdf:resource="http://purl.org/dc/dcmitype/StillImage" />
      </cc:Work>
    </rdf:RDF>
  </metadata>
  <defs
     id="defs3089" />
  <sodipodi:namedview
     pagecolor="#ffffff"
     bordercolor="#666666"
     borderopacity="1"
     objecttolerance="10"
     gridtolerance="10"
     guidetolerance="10"
     inkscape:pageopacity="0"
     inkscape:pageshadow="2"
     inkscape:window-width="672"
     inkscape:window-height="480"
     id="namedview3087"
     showgrid="false"
     inkscape:zoom="4.9166667"
     inkscape:cx="24"
     inkscape:cy="24"
     inkscape:window-x="0"
     inkscape:window-y="0"
     inkscape:window-maximized="0"
     inkscape:current-layer="svg3073" />
  <path
     style="line-height:normal;fill:#a57953;stroke:none"
     d="M 5.90625 6 C 4.8390737 6.0001141 3.9688507 6.9234291 3.96875 8 L 3.96875 10.03125 L 3.1875 10.03125 C 3.11881 10.02835 3.0686897 10.02835 3 10.03125 L 2.96875 10.03125 C 1.8940665 10.123337 0.99443091 10.949207 1 12 L 1 40 C 1.000128 41.120734 2.037763 41.9999 3.1875 42 L 44.8125 42 C 45.962239 41.9999 46.99987 41.120733 47 40 L 47 14.59375 C 46.99987 13.473018 45.962238 12.625103 44.8125 12.625 L 43.03125 12.625 L 43.03125 8 C 43.031145 6.9367422 42.192179 6.0001141 41.125 6 L 5.90625 6 z M 3.03125 11.03125 C 3.041413 11.030822 3.052323 11.031464 3.0625 11.03125 C 3.093032 11.030609 3.125762 11.02995 3.15625 11.03125 L 3.1875 11.03125 L 3.96875 11.03125 L 26.875 11.03125 C 27.493193 11.031305 28.062451 11.571247 28.0625 12 L 28.0625 13.125 L 28.0625 13.625 L 28.5625 13.625 L 43.03125 13.625 L 44.8125 13.625 C 45.430698 13.625055 45.99995 14.164996 46 14.59375 L 46 40 C 45.99995 40.428755 45.430697 40.999946 44.8125 41 L 3.1875 41 C 2.5693054 40.999946 2.000049 40.428754 2 40 L 2 12 C 1.99788 11.599702 2.4634173 11.095987 3.03125 11.03125 z M 24 20 C 23.460317 20 22.96875 20.493195 22.96875 21.03125 L 22.96875 26.1875 C 22.94946 26.73648 23.449028 27.252838 24 27.25 C 24.03121 27.2514 24.06254 27.2514 24.09375 27.25 C 24.612838 27.20532 25.051415 26.706558 25.03125 26.1875 L 25.03125 21.03125 C 25.03125 20.493195 24.539682 20 24 20 z M 20.96875 21.1875 C 20.381516 21.1875 19.883208 21.764532 19.96875 22.34375 L 19.96875 26 C 19.94558 26.581703 20.512562 27.118774 21.09375 27.0625 C 21.601927 27.00315 22.021379 26.509663 22 26 L 22 22.34375 C 22.08554 21.764532 21.555985 21.1875 20.96875 21.1875 z M 27 22.40625 C 26.46062 22.40625 25.969225 22.899747 25.96875 23.4375 L 25.96875 26 C 25.94874 26.559563 26.469994 27.08245 27.03125 27.0625 C 27.06246 27.0639 27.09379 27.0639 27.125 27.0625 C 27.633178 27.00315 28.05263 26.509663 28.03125 26 L 28.03125 23.4375 C 28.030775 22.899747 27.53938 22.40625 27 22.40625 z M 19.4375 28.15625 C 19.059139 28.176427 18.704135 28.324066 18.4375 28.59375 C 17.904228 29.133118 17.854315 30.077045 18.34375 30.65625 L 22.84375 35.5625 C 23.160725 35.87425 23.619021 36.039589 24.0625 36 C 24.423143 35.97414 24.773336 35.815145 25.03125 35.5625 L 29.53125 30.8125 C 29.816423 30.537547 29.988557 30.145352 30 29.75 C 30.02663 29.13016 29.635511 28.491955 29.0625 28.25 C 28.48949 28.008045 27.771752 28.17464 27.34375 28.625 L 24 32 L 20.5 28.46875 C 20.20603 28.228962 19.815861 28.136073 19.4375 28.15625 z "
     id="path3079" />
</svg>
