<?xml version="1.0" encoding="UTF-8" standalone="no"?>
<svg
   xmlns:dc="http://purl.org/dc/elements/1.1/"
   xmlns:cc="http://creativecommons.org/ns#"
   xmlns:rdf="http://www.w3.org/1999/02/22-rdf-syntax-ns#"
   xmlns:svg="http://www.w3.org/2000/svg"
   xmlns="http://www.w3.org/2000/svg"
   xmlns:sodipodi="http://sodipodi.sourceforge.net/DTD/sodipodi-0.dtd"
   xmlns:inkscape="http://www.inkscape.org/namespaces/inkscape"
   width="48"
   viewBox="0 0 48 48"
   height="48"
   id="svg3327"
   version="1.1"
   inkscape:version="0.48.4 r9939"
   sodipodi:docname="folder-video.svg">
  <metadata
     id="metadata3345">
    <rdf:RDF>
      <cc:Work
         rdf:about="">
        <dc:format>image/svg+xml</dc:format>
        <dc:type
           rdf:resource="http://purl.org/dc/dcmitype/StillImage" />
      </cc:Work>
    </rdf:RDF>
  </metadata>
  <defs
     id="defs3343" />
  <sodipodi:namedview
     pagecolor="#ffffff"
     bordercolor="#666666"
     borderopacity="1"
     objecttolerance="10"
     gridtolerance="10"
     guidetolerance="10"
     inkscape:pageopacity="0"
     inkscape:pageshadow="2"
     inkscape:window-width="672"
     inkscape:window-height="480"
     id="namedview3341"
     showgrid="false"
     inkscape:zoom="2.4583333"
     inkscape:cx="10.111072"
     inkscape:cy="11.802421"
     inkscape:window-x="0"
     inkscape:window-y="0"
     inkscape:window-maximized="0"
     inkscape:current-layer="svg3327" />
  <path
     style="line-height:normal;fill:#a57953;stroke:none"
     d="M 5.90625 6 C 4.8390737 6.0001141 3.9688507 6.9234291 3.96875 8 L 3.96875 10.03125 L 3.1875 10.03125 C 3.11881 10.02835 3.0686897 10.02835 3 10.03125 L 2.96875 10.03125 C 1.8940665 10.123337 0.99443091 10.949207 1 12 L 1 40 C 1.000128 41.120734 2.037763 41.9999 3.1875 42 L 44.8125 42 C 45.962239 41.9999 46.99987 41.120733 47 40 L 47 14.59375 C 46.99987 13.473018 45.962238 12.625103 44.8125 12.625 L 43.03125 12.625 L 43.03125 8 C 43.031145 6.9367422 42.192179 6.0001141 41.125 6 L 5.90625 6 z M 3.03125 11.03125 C 3.041413 11.030822 3.052323 11.031464 3.0625 11.03125 C 3.093032 11.030609 3.125762 11.02995 3.15625 11.03125 L 3.1875 11.03125 L 26.875 11.03125 C 27.341739 11.031291 27.780615 11.323461 27.96875 11.65625 C 28.031784 11.767164 28.062488 11.892812 28.0625 12 L 28.0625 13.125 L 28.0625 13.625 L 28.5625 13.625 L 42.53125 13.625 L 44.8125 13.625 C 45.430698 13.625055 45.99995 14.164996 46 14.59375 L 46 40 C 45.99995 40.428755 45.430697 40.999946 44.8125 41 L 3.1875 41 C 2.5693054 40.999946 2.000049 40.428754 2 40 L 2 12 C 1.99788 11.599702 2.4634173 11.095987 3.03125 11.03125 z M 24 20 C 19.59351 20 16 23.5944 16 28 C 16 32.405501 19.59351 36 24 36 C 28.406489 36 32 32.405502 32 28 C 32 23.5944 28.406489 20 24 20 z M 24 22 C 27.325497 22 30 24.6752 30 28 C 30 31.324801 27.325497 34 24 34 C 20.674502 34 18 31.324802 18 28 C 18 24.6752 20.674502 22 24 22 z M 22 24 L 22 32 L 28 28 L 22 24 z "
     id="path7465" />
</svg>
