<?xml version="1.0" encoding="UTF-8" standalone="no"?>
<svg
   xmlns:dc="http://purl.org/dc/elements/1.1/"
   xmlns:cc="http://creativecommons.org/ns#"
   xmlns:rdf="http://www.w3.org/1999/02/22-rdf-syntax-ns#"
   xmlns:svg="http://www.w3.org/2000/svg"
   xmlns="http://www.w3.org/2000/svg"
   xmlns:sodipodi="http://sodipodi.sourceforge.net/DTD/sodipodi-0.dtd"
   xmlns:inkscape="http://www.inkscape.org/namespaces/inkscape"
   width="48"
   viewBox="0 0 48 48"
   height="48"
   id="svg3113"
   version="1.1"
   inkscape:version="0.48.4 r9939"
   sodipodi:docname="folder-move.svg">
  <metadata
     id="metadata3137">
    <rdf:RDF>
      <cc:Work
         rdf:about="">
        <dc:format>image/svg+xml</dc:format>
        <dc:type
           rdf:resource="http://purl.org/dc/dcmitype/StillImage" />
      </cc:Work>
    </rdf:RDF>
  </metadata>
  <defs
     id="defs3135" />
  <sodipodi:namedview
     pagecolor="#ffffff"
     bordercolor="#666666"
     borderopacity="1"
     objecttolerance="10"
     gridtolerance="10"
     guidetolerance="10"
     inkscape:pageopacity="0"
     inkscape:pageshadow="2"
     inkscape:window-width="672"
     inkscape:window-height="480"
     id="namedview3133"
     showgrid="false"
     inkscape:zoom="3.4766083"
     inkscape:cx="2.0900142"
     inkscape:cy="11.011285"
     inkscape:window-x="0"
     inkscape:window-y="0"
     inkscape:window-maximized="0"
     inkscape:current-layer="svg3113" />
  <path
     style="line-height:normal;fill:#a57953;stroke:none;stroke-width:1"
     d="M 3.1875 6 C 2.4382119 6.0000801 1.8125721 6.603252 1.8125 7.375 L 1.8125 8.21875 L 1.5625 8.21875 C 1.55347 8.2183585 1.540382 8.2189849 1.53125 8.21875 C 1.494724 8.2178105 1.442384 8.21718 1.40625 8.21875 C 0.6545638 8.283997 0.02730166 8.8702407 0.03125 9.625 L 0.03125 26.625 C 0.03134052 27.428447 0.72735526 28.031177 1.53125 28.03125 L 20.03125 28.03125 L 20.03125 40.5 C 20.031343 41.312621 20.731341 41.906181 21.53125 41.90625 L 46.53125 41.90625 C 47.331159 41.906181 48.031157 41.312621 48.03125 40.5 L 48.03125 25.03125 C 48.031157 24.218629 47.331157 23.656324 46.53125 23.65625 L 46 23.65625 L 46 21.375 C 45.999924 20.622363 45.426005 19.968831 44.65625 19.96875 L 28 19.96875 L 28 11.1875 C 27.999908 10.384056 27.303896 9.7813228 26.5 9.78125 L 25.71875 9.78125 L 25.71875 7.375 C 25.718675 6.6253846 25.124291 6.0000801 24.375 6 L 3.1875 6 z M 3.1875 7 L 24.375 7 C 24.525093 7.0000161 24.718731 7.1833274 24.71875 7.375 L 24.71875 10.28125 L 24.71875 10.78125 L 25.21875 10.78125 L 26.5 10.78125 C 26.755746 10.781273 26.999984 11.05007 27 11.1875 L 27 19.96875 L 23.59375 19.96875 C 22.823997 19.968831 22.218822 20.600353 22.21875 21.375 L 22.21875 22.0625 L 21.5625 22.0625 C 21.55074 22.061998 21.54301 22.062751 21.53125 22.0625 C 21.49596 22.061747 21.47277 22.061 21.4375 22.0625 L 21.40625 22.0625 C 20.65931 22.12739 20.027272 22.707845 20.03125 23.46875 L 20.03125 27.03125 L 1.53125 27.03125 C 1.2755043 27.031227 1.0312655 26.762429 1.03125 26.625 L 1.03125 9.625 C 1.0305667 9.4943745 1.2280096 9.2396465 1.46875 9.21875 C 1.48912 9.2178673 1.479634 9.2178674 1.5 9.21875 L 1.53125 9.21875 L 2.3125 9.21875 L 2.8125 9.21875 L 2.8125 8.71875 L 2.8125 7.375 C 2.8125159 7.20546 3.0374055 7.0000161 3.1875 7 z M 21.46875 23.0625 C 21.47805 23.062104 21.49068 23.0625 21.5 23.0625 C 21.5093 23.0625 21.52196 23.062103 21.53125 23.0625 L 22.21875 23.0625 L 35.75 23.0625 C 35.87862 23.062511 36.024344 23.131848 36.125 23.21875 C 36.225656 23.305652 36.281243 23.410119 36.28125 23.46875 L 36.28125 24.15625 L 36.28125 24.65625 L 36.78125 24.65625 L 45.5 24.65625 L 46 24.65625 L 46.53125 24.65625 C 46.792283 24.656274 47.031235 24.901187 47.03125 25.03125 L 47.03125 40.5 C 47.031235 40.630065 46.792281 40.906227 46.53125 40.90625 L 21.53125 40.90625 C 21.270219 40.906227 21.031265 40.630065 21.03125 40.5 L 21.03125 23.46875 C 21.030615 23.347373 21.234234 23.099497 21.46875 23.0625 z "
     id="path12799" />
</svg>
