<?xml version="1.0" encoding="UTF-8" standalone="no"?>
<svg
   xmlns:dc="http://purl.org/dc/elements/1.1/"
   xmlns:cc="http://creativecommons.org/ns#"
   xmlns:rdf="http://www.w3.org/1999/02/22-rdf-syntax-ns#"
   xmlns:svg="http://www.w3.org/2000/svg"
   xmlns="http://www.w3.org/2000/svg"
   xmlns:sodipodi="http://sodipodi.sourceforge.net/DTD/sodipodi-0.dtd"
   xmlns:inkscape="http://www.inkscape.org/namespaces/inkscape"
   width="48"
   viewBox="0 0 48 48"
   height="48"
   id="svg3307"
   version="1.1"
   inkscape:version="0.48.4 r9939"
   sodipodi:docname="folder-ubuntu.svg">
  <metadata
     id="metadata3325">
    <rdf:RDF>
      <cc:Work
         rdf:about="">
        <dc:format>image/svg+xml</dc:format>
        <dc:type
           rdf:resource="http://purl.org/dc/dcmitype/StillImage" />
      </cc:Work>
    </rdf:RDF>
  </metadata>
  <defs
     id="defs3323" />
  <sodipodi:namedview
     pagecolor="#ffffff"
     bordercolor="#666666"
     borderopacity="1"
     objecttolerance="10"
     gridtolerance="10"
     guidetolerance="10"
     inkscape:pageopacity="0"
     inkscape:pageshadow="2"
     inkscape:window-width="672"
     inkscape:window-height="480"
     id="namedview3321"
     showgrid="false"
     inkscape:zoom="4.9166667"
     inkscape:cx="24"
     inkscape:cy="24"
     inkscape:window-x="0"
     inkscape:window-y="0"
     inkscape:window-maximized="0"
     inkscape:current-layer="svg3307" />
  <path
     style="line-height:normal;fill:#a57953;stroke:none"
     d="M 5.90625 6 C 4.8390737 6.0001141 3.9688507 6.9234291 3.96875 8 L 3.96875 10.03125 L 3.1875 10.03125 C 3.11881 10.02835 3.0686897 10.02835 3 10.03125 L 2.96875 10.03125 C 1.8940665 10.123337 0.99443091 10.949207 1 12 L 1 40 C 1.000128 41.120734 2.037763 41.9999 3.1875 42 L 44.8125 42 C 45.962239 41.9999 46.99987 41.120733 47 40 L 47 14.59375 C 46.99987 13.473018 45.962238 12.625103 44.8125 12.625 L 43.03125 12.625 L 43.03125 8 C 43.031145 6.9367422 42.192179 6.0001141 41.125 6 L 5.90625 6 z M 3.03125 11.03125 C 3.041413 11.030822 3.052323 11.031464 3.0625 11.03125 C 3.093032 11.030609 3.125762 11.02995 3.15625 11.03125 L 3.1875 11.03125 L 26.875 11.03125 C 27.341739 11.031291 27.780615 11.323461 27.96875 11.65625 C 28.031784 11.767164 28.062488 11.892812 28.0625 12 L 28.0625 13.125 L 28.0625 13.625 L 28.5625 13.625 L 42.53125 13.625 L 44.8125 13.625 C 45.430698 13.625055 45.99995 14.164996 46 14.59375 L 46 40 C 45.99995 40.428755 45.430697 40.999946 44.8125 41 L 3.1875 41 C 2.5693054 40.999946 2.000049 40.428754 2 40 L 2 12 C 1.99788 11.599702 2.4634173 11.095987 3.03125 11.03125 z M 27.96875 18.625 C 27.447498 18.661338 26.937308 18.957569 26.65625 19.4375 C 26.20673 20.20505 26.471427 21.181879 27.25 21.625 C 28.028744 22.06846 29.019317 21.7988 29.46875 21.03125 C 29.918443 20.263361 29.65383 19.287125 28.875 18.84375 C 28.583003 18.677548 28.281501 18.603197 27.96875 18.625 z M 23.90625 20.34375 C 22.780212 20.34375 21.726241 20.600969 20.78125 21.0625 L 21.90625 23.0625 C 22.51522 22.783121 23.190235 22.625 23.90625 22.625 C 26.391089 22.625 28.442589 24.51104 28.65625 26.90625 L 30.96875 26.875 C 30.854562 25.10659 30.079084 23.510898 28.875 22.34375 C 28.255962 22.574346 27.555591 22.539418 26.9375 22.1875 C 26.318635 21.835244 25.918857 21.23862 25.8125 20.59375 C 25.210846 20.429584 24.560997 20.34375 23.90625 20.34375 z M 20 21.5 C 18.575026 22.438673 17.502813 23.881814 17.0625 25.5625 C 17.576816 25.975841 17.90625 26.606883 17.90625 27.3125 C 17.90625 28.017946 17.576903 28.649243 17.0625 29.0625 C 17.502728 30.743355 18.575026 32.186412 20 33.125 L 21.1875 31.15625 C 19.964657 30.307848 19.15625 28.899352 19.15625 27.3125 C 19.15625 25.725902 19.964657 24.317322 21.1875 23.46875 L 20 21.5 z M 15.625 25.71875 C 14.725529 25.71875 14 26.425665 14 27.3125 C 14 28.198996 14.725529 28.90625 15.625 28.90625 C 16.524126 28.90625 17.25 28.198996 17.25 27.3125 C 17.25 26.42558 16.524213 25.71875 15.625 25.71875 z M 28.65625 27.71875 C 28.442763 30.114299 26.391089 32 23.90625 32 C 23.190149 32 22.515306 31.841879 21.90625 31.5625 L 20.78125 33.5625 C 21.726327 34.023861 22.780211 34.28125 23.90625 34.28125 C 24.560997 34.28125 25.210759 34.195412 25.8125 34.03125 C 25.918857 33.386379 26.318548 32.790011 26.9375 32.4375 C 27.555591 32.085752 28.255963 32.05057 28.875 32.28125 C 30.078998 31.114018 30.854735 29.51841 30.96875 27.75 L 28.65625 27.71875 z M 28.1875 32.78125 C 27.874756 32.75945 27.541964 32.833798 27.25 33 C 26.471169 33.443291 26.206815 34.41995 26.65625 35.1875 C 27.105942 35.955389 28.096169 36.224541 28.875 35.78125 C 29.653572 35.338045 29.918357 34.361555 29.46875 33.59375 C 29.1878 33.114031 28.708741 32.817583 28.1875 32.78125 z "
     id="path7487" />
</svg>
