<?xml version="1.0" encoding="UTF-8" standalone="no"?>
<svg
   xmlns:dc="http://purl.org/dc/elements/1.1/"
   xmlns:cc="http://creativecommons.org/ns#"
   xmlns:rdf="http://www.w3.org/1999/02/22-rdf-syntax-ns#"
   xmlns:svg="http://www.w3.org/2000/svg"
   xmlns="http://www.w3.org/2000/svg"
   xmlns:sodipodi="http://sodipodi.sourceforge.net/DTD/sodipodi-0.dtd"
   xmlns:inkscape="http://www.inkscape.org/namespaces/inkscape"
   width="48"
   viewBox="0 0 48 48"
   height="48"
   id="svg2"
   version="1.1"
   inkscape:version="0.48.4 r9939"
   sodipodi:docname="user-trash.svg">
  <metadata
     id="metadata20">
    <rdf:RDF>
      <cc:Work
         rdf:about="">
        <dc:format>image/svg+xml</dc:format>
        <dc:type
           rdf:resource="http://purl.org/dc/dcmitype/StillImage" />
      </cc:Work>
    </rdf:RDF>
  </metadata>
  <defs
     id="defs18" />
  <sodipodi:namedview
     pagecolor="#ffffff"
     bordercolor="#666666"
     borderopacity="1"
     objecttolerance="10"
     gridtolerance="10"
     guidetolerance="10"
     inkscape:pageopacity="0"
     inkscape:pageshadow="2"
     inkscape:window-width="1280"
     inkscape:window-height="998"
     id="namedview16"
     showgrid="true"
     inkscape:zoom="6.9682774"
     inkscape:cx="5.9547756"
     inkscape:cy="9.5529052"
     inkscape:window-x="0"
     inkscape:window-y="0"
     inkscape:window-maximized="1"
     inkscape:current-layer="svg2">
    <inkscape:grid
       type="xygrid"
       id="grid2997" />
  </sodipodi:namedview>
  <path
     style="fill:#a2d7e9;fill-opacity:1;stroke:none"
     d="M 19 5 C 18 5 17 6 17 7 L 17 11 L 5 11 C 3 11 2 12 2 14 L 2 17 L 5 17 L 7 41 C 7.0920144 42.104172 7.892 43 9 43 L 39 43 C 40.108 43 40.90799 42.104172 41 41 L 43 17 L 46 17 L 46 14 C 46 12 45 11 43 11 L 31 11 L 31 7 C 31 6 30 5 29 5 L 19 5 z M 21 7 L 27 7 C 28 7 29 8 29 9 L 29 11 L 19 11 L 19 9 C 19 8 20 7 21 7 z M 13 22 C 14.108 22 14.843277 22.90314 15 24 L 17 38 C 17.156723 39.09686 16.108 40 15 40 C 13.892 40 13.156723 39.09686 13 38 L 11 24 C 10.843277 22.90314 11.892 22 13 22 z M 24 22 C 25.108 22 26 22.892 26 24 L 26 38 C 26 39.108 25.108 40 24 40 C 22.892 40 22 39.108 22 38 L 22 24 C 22 22.892 22.892 22 24 22 z M 35 22 C 36.108 22 37.156695 22.903136 37 24 L 35 38 C 34.843305 39.096863 34.108 40 33 40 C 31.892 40 30.843305 39.096864 31 38 L 33 24 C 33.156695 22.903137 33.892 22 35 22 z "
     id="rect2999" />
</svg>
