<?xml version="1.0" encoding="UTF-8" standalone="no"?>
<!-- Created with Inkscape (http://www.inkscape.org/) -->

<svg
   xmlns:dc="http://purl.org/dc/elements/1.1/"
   xmlns:cc="http://creativecommons.org/ns#"
   xmlns:rdf="http://www.w3.org/1999/02/22-rdf-syntax-ns#"
   xmlns:svg="http://www.w3.org/2000/svg"
   xmlns="http://www.w3.org/2000/svg"
   xmlns:xlink="http://www.w3.org/1999/xlink"
   xmlns:sodipodi="http://sodipodi.sourceforge.net/DTD/sodipodi-0.dtd"
   xmlns:inkscape="http://www.inkscape.org/namespaces/inkscape"
   width="48"
   height="48"
   id="svg2"
   version="1.1"
   inkscape:version="0.48.5 r10040"
   sodipodi:docname="email.svg">
  <defs
     id="defs4">
    <linearGradient
       id="linearGradient3778">
      <stop
         style="stop-color:#000000;stop-opacity:1;"
         offset="0"
         id="stop3780" />
      <stop
         style="stop-color:#595959;stop-opacity:1;"
         offset="1"
         id="stop3782" />
    </linearGradient>
    <linearGradient
       inkscape:collect="always"
       xlink:href="#linearGradient3778"
       id="linearGradient3784"
       x1="24"
       y1="1051.3622"
       x2="24"
       y2="1005.3622"
       gradientUnits="userSpaceOnUse" />
  </defs>
  <sodipodi:namedview
     id="base"
     pagecolor="#ffffff"
     bordercolor="#666666"
     borderopacity="1.0"
     inkscape:pageopacity="0"
     inkscape:pageshadow="2"
     inkscape:zoom="18.448699"
     inkscape:cx="34.003702"
     inkscape:cy="24.8037"
     inkscape:document-units="px"
     inkscape:current-layer="layer1"
     showgrid="true"
     inkscape:window-width="1920"
     inkscape:window-height="1052"
     inkscape:window-x="0"
     inkscape:window-y="28"
     inkscape:window-maximized="1">
    <inkscape:grid
       type="xygrid"
       id="grid3758"
       empspacing="5"
       visible="true"
       enabled="true"
       snapvisiblegridlinesonly="true" />
  </sodipodi:namedview>
  <metadata
     id="metadata7">
    <rdf:RDF>
      <cc:Work
         rdf:about="">
        <dc:format>image/svg+xml</dc:format>
        <dc:type
           rdf:resource="http://purl.org/dc/dcmitype/StillImage" />
        <dc:title />
      </cc:Work>
    </rdf:RDF>
  </metadata>
  <g
     inkscape:label="Layer 1"
     inkscape:groupmode="layer"
     id="layer1"
     transform="translate(0,-1004.3622)">
    <rect
       style="fill:none;fill-opacity:1;stroke:url(#linearGradient3784);stroke-opacity:1;stroke-width:2;stroke-miterlimit:4;stroke-dasharray:none;opacity:0.22"
       id="rect3008"
       width="44"
       height="44"
       x="2"
       y="1006.3622"
       rx="3"
       ry="3" />
    <rect
       ry="3"
       rx="3"
       y="1006.3622"
       x="2"
       height="32.000019"
       width="44"
       id="rect3755"
       style="fill:#f9f9f9;fill-opacity:1;stroke:none" />
    <rect
       style="fill:#63c5fb;fill-opacity:1;stroke:none"
       id="rect3868"
       width="4"
       height="2"
       x="1025.3622"
       y="-46"
       transform="matrix(0,1,-1,0,0,0)" />
    <rect
       transform="matrix(0,1,-1,0,0,0)"
       y="-4"
       x="1025.3622"
       height="2"
       width="4"
       id="rect3866"
       style="fill:#63c5fb;fill-opacity:1;stroke:none" />
    <path
       style="fill:#e74446;fill-opacity:1;stroke:none"
       d="M 2 22 L 2 43 C 2 44.662 3.338 46 5 46 L 43 46 C 44.662 46 46 44.662 46 43 L 46 22 L 24 34 L 2 22 z "
       transform="translate(0,1004.3622)"
       id="rect2985" />
    <rect
       transform="matrix(0,1,-1,0,0,0)"
       y="-46"
       x="1011.3622"
       height="2"
       width="4"
       id="rect3870"
       style="fill:#63c5fb;fill-opacity:1;stroke:none" />
    <path
       style="fill:#ea6571;fill-opacity:1;stroke:none"
       d="M 5 2 C 3.6946375 2 2.6018343 2.8405213 2.1875 4 L 5 4 L 5 2 z "
       transform="translate(0,1004.3622)"
       id="rect3760" />
    <rect
       y="1006.3622"
       x="8"
       height="2"
       width="4"
       id="rect3762"
       style="fill:#63c5fb;fill-opacity:1;stroke:none" />
    <rect
       style="fill:#ea6571;fill-opacity:1;stroke:none"
       id="rect3764"
       width="4"
       height="2"
       x="15"
       y="1006.3622" />
    <rect
       y="1006.3622"
       x="22"
       height="2"
       width="4"
       id="rect3766"
       style="fill:#63c5fb;fill-opacity:1;stroke:none" />
    <rect
       style="fill:#ea6571;fill-opacity:1;stroke:none"
       id="rect3768"
       width="4"
       height="2"
       x="29"
       y="1006.3622" />
    <rect
       y="1006.3622"
       x="36"
       height="2"
       width="4"
       id="rect3770"
       style="fill:#63c5fb;fill-opacity:1;stroke:none" />
    <path
       style="fill:#ea6571;fill-opacity:1;stroke:none"
       d="M 43 2 L 43 4 L 45.8125 4 C 45.398166 2.8405213 44.305363 2 43 2 z "
       transform="translate(0,1004.3622)"
       id="rect3772" />
    <path
       style="fill:#e75344;fill-opacity:1;stroke:none"
       d="M 24 34 L 3.15625 45.375 C 3.6639126 45.769157 4.3046485 46 5 46 L 43 46 C 43.695351 46 44.336087 45.769157 44.84375 45.375 L 24 34 z "
       id="path3804"
       transform="translate(0,1004.3622)" />
    <path
       style="fill:#ffffff;fill-opacity:1;stroke:none;opacity:0.2"
       d="M 24 34 L 3.15625 45.375 C 3.4343446 45.590917 3.7486875 45.768198 4.09375 45.875 L 24 35 L 43.90625 45.875 C 44.251312 45.768198 44.565655 45.590917 44.84375 45.375 L 24 34 z "
       transform="translate(0,1004.3622)"
       id="path3828" />
    <path
       style="fill:#ed6e51;fill-opacity:1;stroke:none"
       d="M 46 22 L 24 34 L 44.84375 45.375 C 45.549481 44.82706 46 43.966649 46 43 L 46 22 z "
       transform="translate(0,1004.3622)"
       id="path3834" />
    <rect
       transform="matrix(0,1,-1,0,0,0)"
       style="fill:#ea6571;fill-opacity:1;stroke:none"
       id="rect3872"
       width="4"
       height="2"
       x="1018.3622"
       y="-46" />
    <path
       style="fill:#000000;fill-opacity:1;stroke:none;opacity:0.1"
       d="M 24.90625 33.5 L 24 34 L 44.875 45.34375 C 45.09577 45.166956 45.274769 44.950974 45.4375 44.71875 L 24.90625 33.5 z "
       transform="translate(0,1004.3622)"
       id="path3840" />
    <rect
       style="fill:#d2d2d2;fill-opacity:1;stroke:none"
       id="rect3848"
       width="32"
       height="2.0000174"
       x="8"
       y="1012.3622"
       rx="1"
       ry="1" />
    <rect
       ry="1"
       rx="1"
       y="1017.3622"
       x="8"
       height="2.0000174"
       width="32"
       id="rect3854"
       style="fill:#d2d2d2;fill-opacity:1;stroke:none" />
    <rect
       style="fill:#d2d2d2;fill-opacity:1;stroke:none"
       id="rect3856"
       width="32"
       height="2.0000174"
       x="8"
       y="1022.3622"
       rx="1"
       ry="1" />
    <rect
       style="fill:#63c5fb;fill-opacity:1;stroke:none"
       id="rect3860"
       width="4"
       height="2"
       x="1011.3622"
       y="-4"
       transform="matrix(0,1,-1,0,0,0)" />
    <rect
       y="-4"
       x="1018.3622"
       height="2"
       width="4"
       id="rect3862"
       style="fill:#ea6571;fill-opacity:1;stroke:none"
       transform="matrix(0,1,-1,0,0,0)" />
  </g>
</svg>
