<?xml version="1.0" encoding="UTF-8" standalone="no"?>
<svg
   xmlns:dc="http://purl.org/dc/elements/1.1/"
   xmlns:cc="http://creativecommons.org/ns#"
   xmlns:rdf="http://www.w3.org/1999/02/22-rdf-syntax-ns#"
   xmlns:svg="http://www.w3.org/2000/svg"
   xmlns="http://www.w3.org/2000/svg"
   xmlns:xlink="http://www.w3.org/1999/xlink"
   xmlns:sodipodi="http://sodipodi.sourceforge.net/DTD/sodipodi-0.dtd"
   xmlns:inkscape="http://www.inkscape.org/namespaces/inkscape"
   width="48"
   viewBox="0 0 13.546667 13.546667"
   height="48"
   id="svg2"
   version="1.1"
   inkscape:version="0.91 r13725"
   sodipodi:docname="firefox.svg"
   inkscape:export-filename="/home/me4oslav/Documents/Phyllo/chrome.png"
   inkscape:export-xdpi="900"
   inkscape:export-ydpi="900">
  <metadata
     id="metadata36">
    <rdf:RDF>
      <cc:Work
         rdf:about="">
        <dc:format>image/svg+xml</dc:format>
        <dc:type
           rdf:resource="http://purl.org/dc/dcmitype/StillImage" />
        <dc:title />
      </cc:Work>
    </rdf:RDF>
  </metadata>
  <sodipodi:namedview
     pagecolor="#ffffff"
     bordercolor="#666666"
     borderopacity="1"
     objecttolerance="10"
     gridtolerance="10"
     guidetolerance="10"
     inkscape:pageopacity="1"
     inkscape:pageshadow="2"
     inkscape:window-width="1920"
     inkscape:window-height="1052"
     id="namedview34"
     showgrid="true"
     inkscape:zoom="67.191715"
     inkscape:cx="22.994495"
     inkscape:cy="31.947304"
     inkscape:window-x="-1"
     inkscape:window-y="2"
     inkscape:window-maximized="1"
     inkscape:current-layer="svg2"
     showguides="true"
     inkscape:guide-bbox="true">
    <inkscape:grid
       type="xygrid"
       id="grid3772"
       empspacing="5"
       visible="true"
       enabled="true"
       snapvisiblegridlinesonly="true" />
  </sodipodi:namedview>
  <defs
     id="defs4">
    <linearGradient
       id="linearGradient4329">
      <stop
         style="stop-color:#ea8923;stop-opacity:1"
         offset="0"
         id="stop4331" />
      <stop
         style="stop-color:#fd9514;stop-opacity:1"
         offset="1"
         id="stop4333" />
    </linearGradient>
    <linearGradient
       id="linearGradient3807">
      <stop
         id="stop4323"
         offset="0"
         style="stop-color:#ea9623;stop-opacity:1;" />
      <stop
         id="stop4325"
         offset="1"
         style="stop-color:#f3ba18;stop-opacity:1;" />
    </linearGradient>
    <linearGradient
       inkscape:collect="always"
       id="linearGradient4286">
      <stop
         style="stop-color:#11daf6;stop-opacity:1;"
         offset="0"
         id="stop4288" />
      <stop
         style="stop-color:#0088c7;stop-opacity:1"
         offset="1"
         id="stop4290" />
    </linearGradient>
    <linearGradient
       inkscape:collect="always"
       id="linearGradient4278">
      <stop
         style="stop-color:#0573b5;stop-opacity:1"
         offset="0"
         id="stop4280" />
      <stop
         style="stop-color:#0062a0;stop-opacity:1"
         offset="1"
         id="stop4282" />
    </linearGradient>
    <linearGradient
       id="linearGradient3835">
      <stop
         style="stop-color:#ffe4e7;stop-opacity:1;"
         offset="0"
         id="stop3838" />
      <stop
         style="stop-color:#fef3f1;stop-opacity:1;"
         offset="1"
         id="stop3840" />
    </linearGradient>
    <linearGradient
       inkscape:collect="always"
       id="linearGradient3877">
      <stop
         style="stop-color:#000000;stop-opacity:1;"
         offset="0"
         id="stop3879" />
      <stop
         style="stop-color:#000000;stop-opacity:0;"
         offset="1"
         id="stop3881" />
    </linearGradient>
    <linearGradient
       id="linearGradient3845">
      <stop
         style="stop-color:#de321c;stop-opacity:1;"
         offset="0"
         id="stop3847" />
      <stop
         style="stop-color:#ff4035;stop-opacity:1;"
         offset="1"
         id="stop3849" />
    </linearGradient>
    <linearGradient
       id="linearGradient3833">
      <stop
         style="stop-color:#cccccc;stop-opacity:1;"
         offset="0"
         id="stop3835" />
      <stop
         style="stop-color:#ffffff;stop-opacity:1;"
         offset="1"
         id="stop3837" />
    </linearGradient>
    <linearGradient
       id="linearGradient3820">
      <stop
         style="stop-color:#dadada;stop-opacity:1;"
         offset="0"
         id="stop3822" />
      <stop
         style="stop-color:#fbfbfb;stop-opacity:1;"
         offset="1"
         id="stop3824" />
    </linearGradient>
    <linearGradient
       id="linearGradient3806">
      <stop
         style="stop-color:#e9425a;stop-opacity:1;"
         offset="0"
         id="stop3808" />
      <stop
         style="stop-color:#e95e42;stop-opacity:1;"
         offset="1"
         id="stop3810" />
    </linearGradient>
    <linearGradient
       id="linearGradient3771">
      <stop
         style="stop-color:#000000;stop-opacity:1;"
         offset="0"
         id="stop3773" />
      <stop
         style="stop-color:#000000;stop-opacity:0.29411766;"
         offset="1"
         id="stop3775" />
    </linearGradient>
    <linearGradient
       id="linearGradient3923">
      <stop
         offset="0"
         style="stop-color:#fff;stop-opacity:.059"
         id="stop7" />
      <stop
         offset="1"
         style="stop-opacity:.059"
         id="stop9" />
    </linearGradient>
    <linearGradient
       xlink:href="#linearGradient3923"
       id="linearGradient3929"
       x1="-40.5"
       x2="41.5"
       gradientUnits="userSpaceOnUse" />
    <linearGradient
       id="linearGradient4460">
      <stop
         offset="0"
         style="stop-color:#dedede"
         id="stop13" />
      <stop
         offset="1"
         style="stop-color:#efefef"
         id="stop15" />
    </linearGradient>
    <linearGradient
       gradientTransform="matrix(1.10525 0 0 1.10525 -134.27874 -295.76183)"
       xlink:href="#linearGradient4460"
       id="linearGradient3061"
       y1="279.096"
       y2="268.33"
       gradientUnits="userSpaceOnUse"
       x2="0" />
    <linearGradient
       inkscape:collect="always"
       xlink:href="#linearGradient4460"
       id="linearGradient2996"
       gradientUnits="userSpaceOnUse"
       gradientTransform="matrix(1.10525,0,0,1.10525,-134.27874,-295.76183)"
       y1="279.096"
       x2="0"
       y2="268.33" />
    <linearGradient
       gradientTransform="translate(2.0669291e-7,-1.2696874e-6)"
       inkscape:collect="always"
       xlink:href="#linearGradient4208"
       id="linearGradient4214"
       x1="10"
       y1="44.999981"
       x2="14"
       y2="2"
       gradientUnits="userSpaceOnUse" />
    <linearGradient
       id="linearGradient4208">
      <stop
         style="stop-color:#70a3d6;stop-opacity:1;"
         offset="0"
         id="stop4210" />
      <stop
         style="stop-color:#88b6e1;stop-opacity:1;"
         offset="1"
         id="stop4212" />
    </linearGradient>
    <linearGradient
       gradientTransform="translate(2.0669291e-7,-1.2696874e-6)"
       inkscape:collect="always"
       xlink:href="#linearGradient4216"
       id="linearGradient4222"
       x1="35"
       y1="45.999981"
       x2="39"
       y2="9"
       gradientUnits="userSpaceOnUse" />
    <linearGradient
       id="linearGradient4216">
      <stop
         style="stop-color:#a0c4e6;stop-opacity:1;"
         offset="0"
         id="stop4218" />
      <stop
         style="stop-color:#d0e2f1;stop-opacity:1;"
         offset="1"
         id="stop4220" />
    </linearGradient>
    <linearGradient
       inkscape:collect="always"
       xlink:href="#linearGradient4192"
       id="linearGradient4198"
       x1="23"
       y1="19"
       x2="27"
       y2="1.999983"
       gradientUnits="userSpaceOnUse" />
    <linearGradient
       id="linearGradient4192">
      <stop
         style="stop-color:#4970a4;stop-opacity:1;"
         offset="0"
         id="stop4194" />
      <stop
         style="stop-color:#6090c0;stop-opacity:1;"
         offset="1"
         id="stop4196" />
    </linearGradient>
    <linearGradient
       gradientTransform="translate(2.0669291e-7,-1.2696874e-6)"
       y2="1.999983"
       x2="27"
       y1="19"
       x1="23"
       gradientUnits="userSpaceOnUse"
       id="linearGradient3092"
       xlink:href="#linearGradient4192"
       inkscape:collect="always" />
    <linearGradient
       inkscape:collect="always"
       xlink:href="#linearGradient3833"
       id="linearGradient3864"
       gradientUnits="userSpaceOnUse"
       x1="12.73392"
       y1="28"
       x2="12.73392"
       y2="39"
       gradientTransform="matrix(3.228208,0,0,3.0909092,-17.107743,-79.54546)" />
    <linearGradient
       inkscape:collect="always"
       xlink:href="#linearGradient3833"
       id="linearGradient3868"
       gradientUnits="userSpaceOnUse"
       x1="12.73392"
       y1="28"
       x2="12.73392"
       y2="39" />
    <radialGradient
       inkscape:collect="always"
       xlink:href="#linearGradient3877"
       id="radialGradient3883"
       cx="12.73392"
       cy="33.5"
       fx="12.73392"
       fy="33.5"
       r="5.2660794"
       gradientTransform="matrix(1,0,0,1.0444203,0,-1.4880784)"
       gradientUnits="userSpaceOnUse" />
    <linearGradient
       id="linearGradient3996"
       gradientUnits="userSpaceOnUse"
       gradientTransform="matrix(0,-0.26998689,0.26995169,0,0.296922,13.253828)"
       x1="1"
       x2="47">
      <stop
         stop-color="#60c3e0"
         stop-opacity="1"
         id="stop19" />
      <stop
         offset="1"
         stop-color="#71cae3"
         stop-opacity="1"
         id="stop21" />
    </linearGradient>
    <linearGradient
       inkscape:collect="always"
       xlink:href="#linearGradient4329"
       id="linearGradient4269"
       x1="0.56444418"
       y1="7.5572405"
       x2="12.982222"
       y2="7.5572405"
       gradientUnits="userSpaceOnUse" />
    <linearGradient
       inkscape:collect="always"
       xlink:href="#linearGradient4278"
       id="linearGradient4284"
       x1="6.4911113"
       y1="0.56444442"
       x2="6.4911113"
       y2="12.7"
       gradientUnits="userSpaceOnUse" />
    <linearGradient
       inkscape:collect="always"
       xlink:href="#linearGradient4286"
       id="linearGradient4292"
       x1="6.7733335"
       y1="0.84666669"
       x2="6.7733335"
       y2="9.0311108"
       gradientUnits="userSpaceOnUse"
       gradientTransform="scale(3.5433071,3.5433071)" />
    <linearGradient
       gradientTransform="matrix(0.28222222,0,0,0.28222222,-11.288888,-288.25111)"
       inkscape:collect="always"
       xlink:href="#linearGradient3807"
       id="linearGradient3813"
       x1="11.00001"
       y1="1028.3623"
       x2="37.000004"
       y2="1028.3623"
       gradientUnits="userSpaceOnUse" />
    <linearGradient
       id="linearGradient4327">
      <stop
         style="stop-color:#ea9623;stop-opacity:1;"
         offset="0"
         id="stop3809" />
      <stop
         style="stop-color:#f3ba18;stop-opacity:1;"
         offset="1"
         id="stop3811" />
    </linearGradient>
  </defs>
  <path
     sodipodi:type="arc"
     style="opacity:0.15;fill:none;fill-opacity:1;stroke:#000000;stroke-opacity:1;stroke-width:0.43121968999999999;stroke-miterlimit:4;stroke-dasharray:none"
     id="path3001"
     sodipodi:cx="-34"
     sodipodi:cy="15.5"
     sodipodi:rx="5"
     sodipodi:ry="4.5"
     d="m -29,15.5 a 5,4.5 0 1 1 -10,0 5,4.5 0 1 1 10,0 z"
     transform="matrix(1.2417778,0,0,1.3797531,48.993779,-14.612839)" />
  <path
     inkscape:connector-curvature="0"
     style="fill:url(#linearGradient4284);fill-opacity:1"
     d="m 6.7757628,0.5644447 c -1.8240636,0 -3.4615906,0.7891717 -4.5972774,2.041911 0.023756,0.1563223 0.041033,0.2856461 0.05912,0.3966107 -0.8516976,1.0237903 -1.3667655,2.3353867 -1.3667655,3.771447 0,3.2641416 2.6428272,5.9059636 5.9051935,5.9059636 3.2637156,0 5.9051936,-2.643172 5.9051936,-5.9059636 0,-1.0413395 -0.269412,-2.0189619 -0.742368,-2.8686109 C 11.926442,3.6930529 11.906466,3.4557344 11.854365,3.2054566 10.730825,1.6084841 8.8767969,0.5647148 6.7757628,0.5647148 Z M 1.8237689,3.0364448 C 1.7087694,3.1884474 1.6040282,3.3380201 1.5030662,3.5005523 1.6021382,3.3420699 1.711199,3.1849376 1.8237689,3.0364448 Z M 1.4693223,3.5510398 C 1.3948159,3.6736138 1.3246281,3.8026676 1.25849,3.9306413 1.3251682,3.8021276 1.3942757,3.6741538 1.4693223,3.5510398 Z M 0.9461559,4.639087 C 0.8972949,4.7721906 0.8508639,4.9069139 0.81118,5.0440674 0.851133,4.9069139 0.897295,4.7713806 0.9461559,4.639087 Z"
     id="path29" />
  <path
     inkscape:connector-curvature="0"
     style="opacity:0.1;fill:#000000;fill-opacity:1;fill-rule:nonzero;stroke:none"
     d="m 11.645691,4.7271028 c 0.01485,0.026459 0.02646,0.052647 0.03995,0.078026 -0.001,0.00539 0.0011,0.01161 0,0.014849 -0.0032,-0.00432 -0.0083,-0.01053 -0.0083,-0.014849 -0.01161,-0.026459 -0.01889,-0.051567 -0.03158,-0.078026 m 0,0"
     id="path33" />
  <path
     inkscape:connector-curvature="0"
     style="opacity:0.1;fill:#000000;fill-opacity:1;fill-rule:nonzero;stroke:none"
     d="m 5.9046287,5.009779 0.4651268,0.4873264 c 0.065328,-0.043197 0.1444241,-0.079107 0.1760085,-0.2300289 0.00621,-0.010529 0.014847,-0.017009 0.029425,-0.018899 0.05588,-0.1106947 0,-0.1487627 -0.068567,-0.2014102 -0.1970647,0.00324 -0.3395993,-0.00622 -0.6019923,-0.036988 m 0,0"
     id="path35" />
  <path
     inkscape:connector-curvature="0"
     style="opacity:0.1;fill:#000000;fill-opacity:1;fill-rule:nonzero;stroke:none"
     d="M 5.6157804,6.0621879 C 5.5577404,5.9261146 5.4524596,5.7395536 5.3236926,5.6372285 L 6.1251792,5.2384579 6.3729949,5.4935955 C 6.0903554,5.6655771 5.8352511,5.8394487 5.6157804,6.0619179 m 0,0"
     id="path37" />
  <path
     inkscape:connector-curvature="0"
     style="opacity:0.1;fill:#000000;fill-opacity:1;fill-rule:nonzero;stroke:none"
     d="M 5.1614517,4.413918 C 5.0181073,4.8620962 5.1077317,5.2659966 5.321803,5.6372285 L 6.1254492,5.2384579 C 6.0188182,5.1234436 5.9081381,5.010589 5.9081381,5.010589 5.8258028,4.9884501 5.7205217,4.9209534 5.5917547,4.8018891 L 5.2626836,4.4897842 M 5.1614517,4.4139182"
     id="path39" />
  <path
     style="fill:url(#linearGradient4292);fill-opacity:1;fill-rule:nonzero;stroke:none"
     d="m 24.007812,2 c -3.32203,0 -6.466015,0.7436406 -9.287109,2.0644531 -0.06614,0.034464 -0.157094,0.090432 -0.216797,0.1191407 l 0.328125,0.8652343 0.150391,0.5683594 -0.597656,0.3300781 -0.240235,0.4492188 0.179688,1.015625 0.71875,0.1210937 0.6875,-0.6582031 0.597656,-0.6289062 0.925781,-0.2382813 1.166016,-0.5683594 0.6875,-0.8378906 0.986328,-1.1953125 1.238281,1.6796875 1.484375,0.054687 0.123047,0.2695312 0.291016,-0.2558593 0.566406,0.021484 -0.210937,-0.3320312 0.960937,-0.8398438 0.507813,-0.4785156 0.330078,0.2109375 0.478515,-0.2402343 c 0,0 3.052992,-0.3861654 4.480469,-0.5605469 C 28.337441,2.3322206 26.212041,2 24.007812,2 Z m 7.625,1.7636719 -0.361328,0.00195 -0.447265,0.060547 -0.388672,0.2382812 -0.449219,0.328125 -0.267578,0.4785157 0.417969,0.4199218 0.359375,0.029297 0.148437,-0.2382813 -0.357422,-0.3007812 0.208985,-0.1796875 0.0293,-0.1484375 0.449218,-0.2988281 c 0,0 0.581997,0.00769 0.626953,0 0.04495,-0.00769 0.179688,-0.1816406 0.179688,-0.1816407 z m 2.63086,0.7753906 -0.002,0.00391 -0.507813,0.2988281 -0.507812,0.4199219 0.06055,0.1796874 -0.240235,0.029297 -0.0293,-0.1484375 -0.298828,-0.4199218 -0.628906,-0.060547 c 0,0 0.150391,0.6403047 0.150391,0.71875 0,0.078442 -0.419922,0.029297 -0.419922,0.029297 l -0.716797,0.029297 c 0,0 -1.034972,0.2382813 -1.166016,0.2382813 -0.123392,0 -0.728561,0.2513541 -0.777343,0.2695312 l -0.0293,0 -1.166016,0.6269531 -0.300781,-0.2089843 -0.148438,-0.2382813 0.06055,-0.2402344 0.658203,0.029297 L 28.552734,5.9765625 27.955078,5.6777344 27.119141,5.3769531 26.28125,5.2285156 25.384766,5.4082031 24.457031,6.15625 l -0.417969,0.4179688 -0.628906,0.6875 -0.238281,0.03125 -0.08984,0.328125 0.119141,0.3300781 c 0,0 0.126433,0.1484375 0.148437,0.1484375 0.022,0 0.240235,-0.1191407 0.240235,-0.1191406 0,0 0.02505,-0.1130832 0.148437,-0.1503907 0.123392,-0.037311 0.240235,-0.060547 0.240235,-0.060547 l 0.179687,0.359375 0.208985,0.2988282 0.08984,0.2402344 c 0,0 0.347896,-0.2144037 0.359375,-0.2402344 0.01148,-0.025831 0.0293,-0.3867188 0.0293,-0.3867188 l 0.269531,-0.1796875 c 0,0 0.06816,-0.1283867 0.05859,-0.1503906 -0.01148,-0.022004 -0.179687,-0.2089844 -0.179687,-0.2089844 l -0.148438,-0.060547 0.06055,-0.2988281 c 0,0 0.119141,-0.048706 0.119141,-0.089844 0,-0.041138 0.179687,-0.1796875 0.179687,-0.1796875 l 0.208984,-0.2695313 0.150391,-0.1796875 0.208985,-0.1503906 0.238281,0.1816406 0,0.1191407 -0.208985,0.2382812 -0.06055,0.2402344 0,0.328125 L 25.921875,7.53125 26.251953,7.5 l 0.298828,-0.060547 0.269531,0.1503907 -0.06055,0.2089843 c 0,0 -0.187624,0.1793305 -0.240235,0.2089844 -0.05261,0.029658 -0.394302,-0.059907 -0.476562,-0.029297 -0.08226,0.029658 -0.300781,0.3007813 -0.300781,0.3007813 0,0 -0.022,0.23856 0,0.2988281 0.0057,0.016264 0.0029,0.052533 0,0.089844 l -0.0293,0.029297 -0.359375,0.2695313 -0.0293,0 -0.238281,-0.089844 c 0,0 -0.148724,0.00793 -0.208985,0.060547 -0.06026,0.052615 -0.116175,0.097137 -0.300781,0.1191406 -0.182693,0.022004 -0.538707,0 -0.56836,0 l -0.208984,0 0.0293,-0.2089844 0.150391,-0.2402343 -0.269532,-0.2089844 c 0,0 -0.172034,0.2159203 -0.179687,0.2675781 -0.0077,0.052615 0.119141,0.2695313 0.119141,0.2695313 0,0 -0.06019,0.1716769 -0.08984,0.2089843 -0.02966,0.037311 -0.298828,0.1210938 -0.298828,0.1210938 L 22.839844,9.0546875 c 0,0 -0.171391,-0.037989 -0.148438,0.060547 0.022,0.097579 0.208985,0.1872592 0.208985,0.2695312 0,0.082272 -0.119141,0.2675782 -0.119141,0.2675782 l -0.148438,0.1816406 -0.240234,0.2382816 -0.328125,0.08984 c 0,0 -0.23765,0.06689 -0.300781,0.08984 -0.06026,0.022 -0.238281,0.06055 -0.238281,0.06055 l -0.238282,0.0293 -0.15039,0.208984 0.269531,0.210938 0.179688,0.298828 c 0,0 0.12261,0.208984 0.148437,0.208984 0.02966,0 0.08984,0.208985 0.08984,0.208985 l -0.179688,0.240234 -0.08984,0 -0.626954,0.119141 -0.11914,-0.267579 -0.419922,0.417969 -0.179688,0.6875 0,0.56836 0.716797,0.388671 0.56836,-0.208984 0.568359,-1.017578 0.507812,-0.626953 0.927735,-0.150391 0.208984,-0.179687 1.046875,1.226562 0.119141,0.417969 0.298828,-0.148438 -0.08984,-0.359374 0.179688,0 -0.119141,-0.238282 -1.015625,-0.957031 0.08984,-0.179687 0.328125,-0.0293 0.716797,0.716797 0.359375,0.419921 0,0.658203 0.179687,0.119141 0.359375,0.357422 0.267578,-0.08984 -0.148437,-0.537109 0.08984,-0.330078 0.179687,-0.208985 0.419922,0.148438 0.148438,0.06055 -0.0293,-0.478516 0.238281,-0.447266 0.15039,-0.658203 0.53711,0.08984 0.08984,0.298828 0.210937,0.148438 0.238281,-0.208985 -0.148437,-0.328125 0.626953,0 -0.208984,0.357422 0.417968,0.359375 0.359375,0.179688 0.208985,0.417968 -0.478516,0.121094 -0.6875,-0.15039 -0.597656,0 -0.56836,0.300781 -0.11914,0.179687 -0.419922,0.08984 0.181641,0.447266 0.328125,0.388672 0.597656,-0.208985 0.15039,0.269531 0.267579,-0.210937 0.359375,0.06055 0.0293,0.388672 -0.11914,0.748047 -0.330078,-0.03125 -0.388672,-0.05859 -0.179688,0.447265 -1.314453,-0.238281 -0.238281,-0.298828 -0.300781,0.267578 -0.328125,0.449219 -0.837891,-0.478516 -0.835937,-0.507812 0,-0.896484 -0.539063,0.0293 -0.0293,0.298828 -1.316406,-0.06055 -0.417969,0.388672 -0.80664,0.0293 L 20.330078,14.46875 20,15.396484 l -0.835938,0.658204 -0.208984,0.267578 c 0.308959,0.209505 0.573925,0.376274 0.792969,0.4375 0.624608,0.15689 1.560044,0.354357 2.375,0.160156 0.276435,0.385529 0.275939,0.358773 0.208984,0.658203 -0.06313,-0.05261 -0.167921,-0.01443 -0.11914,0.08984 -0.22095,0.354911 -0.355943,0.501428 -0.658203,0.898437 -0.811131,0.447711 -1.692087,1.029124 -2.75,1.958985 l 0.06055,0.164062 0.716797,0.867188 L 20,21.914062 l 0.419922,0.08984 0.08984,-0.357422 1.49414,0 0.388672,-0.179687 0.478516,0.05859 0.15039,0.300781 0.507813,0.0293 0.328125,0.238281 0,0.507812 -0.119141,0.419922 -0.11914,0.328125 0.298828,0.539063 0.388672,0.449219 0.179687,1.136718 0.0293,0.746094 -0.269531,0.628906 -0.0293,0.478516 c 0.779565,-0.07175 1.551825,0.100601 2.300781,0.476563 0.642783,0.351088 1.027714,0.830869 1.464844,1.197265 0.194173,0.619906 0.0305,0.83203 -0.658203,0.925781 -0.331912,-0.156891 -0.660756,-0.193919 -1.015625,0.06055 l -1.076172,0.6875 0.208984,0.269531 0.06055,0.56836 0.08984,0.658203 0.328125,-0.330078 0.83789,-0.08984 0.507813,0 0.927734,-1.433594 0.05859,-0.568359 0.628906,-0.628906 0.0293,-0.716797 0.328125,-0.716797 0.777344,-0.748047 0,-0.835937 -0.179687,-0.779297 -0.119141,-1.076172 0.568359,-0.896485 1.017578,-1.255859 0.388672,-0.388672 0.148438,-0.507812 0.238281,-0.449219 0.06055,-0.658203 -0.56836,0 -0.267578,0.269531 -0.539062,-0.15039 -0.330078,-0.53711 -0.267578,-0.539062 -0.626954,-0.478516 -0.15039,-0.777344 -0.267578,-0.449218 -0.300782,-0.56836 -0.388671,-0.716797 -0.08984,-0.449219 0.419922,-0.06055 L 29,16.142578 l 0.478516,0.898438 0.359375,0.658203 0.388671,0.716797 0.417969,0.716796 0.56836,0.56836 0.507812,-0.478516 0.568359,-0.148437 0.419922,-0.507813 0.56836,-0.330078 0.328125,-0.568359 0.0293,-0.476563 -0.267578,-0.300781 -0.359376,-0.447266 -0.240234,0.148438 -0.148437,0.238281 -0.388672,-0.179687 -0.119141,-0.298829 -0.269531,-0.388671 -0.417969,-0.388672 0,-0.777344 0.267578,0.507813 0.330078,0.507812 0.56836,0.330078 0.388672,-0.08984 0.238281,0.267578 1.703125,-0.0293 -0.0293,0.0293 0.539063,0.478516 0.388671,0.539063 0.119141,0.269531 0.269531,0 0.08984,-0.300781 0.08984,0.449218 0.148437,0.806641 0.330078,0.779297 L 37.044922,20 l 0.267578,0.626953 0.208984,0.269531 0.300782,-0.179687 0.08984,-0.300781 0.119141,-0.746094 0,-0.658203 0.148438,-0.179688 c -0.09758,-0.4678 -0.197094,-0.943831 -0.328126,-1.435547 0.401741,0.118623 0.76052,0.31772 1.076172,0.56836 0.105201,-0.114796 0.238282,-0.240235 0.238282,-0.240235 l 0.269531,-0.328125 0.119141,-0.08984 C 39.00078,14.706456 36.146563,12.402293 30.976562,10.429688 31.828823,10.108255 32.777268,10.060584 33.845703,10.25 33.49466,9.4990322 32.754211,8.8295673 31.603516,8.3359375 c -0.747044,-0.3281297 -1.662435,-0.5668816 -2.75,-0.7773437 2.471652,0.072705 4.624651,0.3467706 6.425781,0.8671874 3.653913,1.0685739 6.178199,3.6254738 7.085937,6.6972658 -0.0048,-0.311904 -0.02325,-0.783367 -0.04687,-1.253906 -0.0054,-0.0097 -0.01024,-0.01963 -0.01563,-0.0293 -0.04347,-0.744759 -0.115231,-1.576139 -0.294922,-2.451172 -8.43e-4,-0.001 -0.0012,-0.0028 -0.002,-0.0039 C 40.009344,8.5339604 37.364714,6.174928 34.263672,4.5390625 Z m -22,0.8730469 c -0.03904,0.024784 -0.07832,0.049196 -0.117188,0.074219 -0.113264,0.072282 -0.223039,0.1456971 -0.333984,0.21875 -0.401822,0.2690787 -0.793205,0.5534117 -1.175781,0.8476563 l 0.07031,0.023437 0.507813,0.4472656 0.507812,0.1210937 0.179688,-0.6875 0.0293,-0.4199218 0.599609,0.089844 c 0,0 -0.179759,0.2988281 -0.08984,0.2988281 0.08991,0 0.447266,-0.3886718 0.447266,-0.3886718 z M 18.867188,6.1875 18.748047,6.5761719 c 0.433304,0.3367382 0.597656,0.328125 0.597656,0.328125 L 19.853516,6.7851562 20.181641,6.4550781 19.972656,6.1875 Z m -8.488282,0.7773438 c 0,0 -0.311785,0.1816202 -0.6503904,0.3261718 -0.152896,0.1310014 -0.307799,0.2594599 -0.4570312,0.3945313 -0.00177,0.054722 0,0.1171875 0,0.1171875 L 9.2421875,8.609375 8.5839844,9.1484375 8.1640625,9.7753906 c 0,0 -0.2675781,-0.1792521 -0.2675781,-0.2988281 0,-0.092643 -0.03871,-0.2780153 -0.056641,-0.3691406 -0.039626,0.043023 -0.081805,0.083616 -0.1210938,0.1269531 -3.423e-4,3.771e-4 3.435e-4,0.00158 0,0.00195 0.014724,0.096917 0.023651,0.1548728 0.037109,0.2460938 0.2278399,1.5533371 0.3021404,2.4132101 0.8261718,2.9238281 L 8.671875,12.345703 9.2714844,11.6875 c 0,0 0.8915236,-0.148356 1.0742186,-0.238281 0.182693,-0.08993 0.06355,-0.420276 -0.119141,-0.71875 -0.182692,-0.299431 0.08984,-0.597657 0.08984,-0.597657 l 0.6875,-0.4179682 0.597656,0.1191406 0.06055,0.7167966 c 0,0 0.565352,0.539144 0.748047,0.449219 0.182693,-0.08993 0.267578,-0.388672 0.267578,-0.388672 l -0.298828,-0.7773436 0.179688,-0.7773438 -0.806641,0.1191406 0,-1.3144531 -0.240234,0.2382813 -0.626953,0.029297 -0.08984,-0.6582031 z m 11.150391,0.9277343 -0.240235,0.2089844 c -0.06696,0.2917772 -0.148437,0.5976563 -0.148437,0.5976563 l 0.447266,0.2089843 0.06055,0.2695313 -0.238282,0.2382812 -0.208984,0.359375 0.148437,0.1503906 0.539063,-0.091797 L 22.367188,9.625 22.097656,9.2675781 22.007812,8.6386719 21.677734,8.28125 Z m -0.748047,1.1367188 -0.269531,0.4472656 0.359375,0.1503906 0.148437,-0.2695312 z m 10.462891,1.7636721 c 0.131042,-0.04114 0.357421,0.148437 0.357421,0.148437 l -0.238281,0.208985 0.08984,0.300781 0.269531,0.716797 0.267578,0.449219 0.359375,0.597656 -0.388671,0.179687 -0.507813,-0.328125 -0.208984,-0.628906 c 0,0 -0.285054,-0.38317 -0.419922,-0.447266 -0.131039,-0.06314 -0.238281,-0.269531 -0.238281,-0.269531 l 0.11914,-0.507812 c 0,0 0.404193,-0.347536 0.539063,-0.388672 z m -7.564453,1.166015 -0.357422,0.6875 0.267578,0.269532 0.240234,-0.210938 0.0293,-0.298828 z m -1.195313,0.716797 0,0.179688 0.150391,-0.0293 z m 2.0625,0.449219 -0.179687,0.06055 0.298828,0.507812 0.269531,-0.208984 z m 13.779297,7.474609 -0.298828,0.388672 0.148437,0.56836 0.330078,-0.359375 -0.06055,-0.449219 z m -6.72461,5.796875 0,0.417969 c -0.0191,0.06027 -0.357421,0.359375 -0.357421,0.359375 l -0.478516,0.208984 -0.330078,0.269532 0.240234,0.330078 0.148438,0.148437 -0.388672,0.328125 0,0.539063 0.150391,0.568359 0.328124,0.08984 0.388672,-0.597656 0.240235,-0.388672 -0.06055,-0.478516 0.357422,-0.568359 0.121094,-0.267578 0,-0.539063 -0.08984,-0.419922 z"
     transform="scale(0.28222222,0.28222222)"
     id="path41"
     inkscape:connector-curvature="0"
     sodipodi:nodetypes="scccccccccccccccccccccccccscccccccccccccscccccccccccsccsccccccccccccccccccscccccccccccccscccccccccccccccccccccccscsccccccccccsccccccccccsccccccccccccccccccccccccccccccccccccccccccccccccccccccccccccccccccccccccccccccccccccccccccccccccccccccccccccccccccccccccccccccccccccccccccccccccccccccccccccccccccccccccccccccccccccccccccccccccccccccccccccccccccccccsccccccccccccccccscccccccscccccsccccccccccccccccccccccccccccccccccccccccccccccccccccccccccccccccccccccccccccccccccc" />
  <path
     inkscape:connector-curvature="0"
     style="fill:#ec7f43;fill-opacity:1;fill-rule:nonzero;stroke:none"
     d="m 11.37574,4.4571158 c 0.01484,0.026459 0.02646,0.052647 0.03995,0.078026 -0.0011,0.00539 0.0011,0.01161 0,0.014849 -0.0033,-0.00432 -0.0083,-0.01053 -0.0083,-0.014849 -0.01161,-0.026459 -0.0189,-0.051567 -0.03158,-0.078026 m 0,0"
     id="path45" />
  <path
     style="fill:#000000;fill-opacity:1;fill-rule:nonzero;stroke:none;opacity:0.3"
     d="M 28.841797 8.5546875 L 28.847656 8.5605469 C 29.935222 8.7700534 30.850612 9.0097605 31.597656 9.3378906 C 32.748352 9.8315197 33.4888 10.500986 33.839844 11.251953 C 32.771409 11.06158 31.822964 11.109251 30.970703 11.431641 C 37.076182 13.760118 39.976284 16.544158 39.636719 19.744141 C 39.191935 19.075445 38.591749 18.619423 37.84375 18.398438 C 38.778272 21.907417 38.86031 24.782851 38.113281 27.064453 C 37.593878 25.539559 37.095731 24.665183 36.677734 24.34375 C 37.264081 29.048538 36.47659 32.512962 34.287109 34.777344 C 34.708935 33.39499 34.859364 32.263605 34.765625 31.369141 C 32.191625 35.091452 29.262215 37.018136 25.976562 37.138672 C 24.683345 37.123368 23.449524 36.931925 22.298828 36.570312 C 20.605785 36.025022 19.086736 35.087591 17.726562 33.759766 C 19.849084 33.928135 21.784837 33.576388 23.494141 32.742188 L 26.304688 30.978516 C 26.659557 30.724049 26.987443 30.761078 27.320312 30.917969 C 28.008051 30.824216 28.171733 30.610141 27.978516 29.990234 C 27.541385 29.623838 27.158407 29.146011 26.515625 28.794922 C 25.11432 28.092744 23.667434 28.0526 22.150391 29.125 C 20.696477 29.917104 19.294764 29.874095 17.935547 29.033203 C 17.042156 28.442952 16.195495 27.636534 15.365234 26.642578 L 15.064453 26.193359 L 15.064453 26.164062 C 15.105584 25.18159 15.483711 24.668409 16.291016 24.548828 C 17.206407 24.627273 18.253166 24.817397 19.429688 25.146484 C 19.627687 24.054951 19.367782 22.913043 18.650391 21.738281 L 21.679688 19.490234 C 21.686553 19.480718 21.68516 19.472302 21.691406 19.462891 C 21.904648 19.327047 22.136718 19.183009 22.236328 18.707031 C 22.258332 18.669724 22.290143 18.645372 22.341797 18.638672 C 22.539797 18.246447 22.168437 17.888472 22.097656 17.925781 C 21.403549 17.937193 20.895769 17.904389 19.976562 17.796875 C 19.685029 17.718044 19.312959 17.479805 18.857422 17.058594 L 17.585938 16.091797 L 17.207031 15.748047 L 16.886719 15.339844 L 16.916016 15.191406 C 17.054708 14.24624 17.521648 13.490842 17.902344 12.769531 C 18.317474 12.108488 19.117443 11.378678 20.294922 10.617188 C 18.113094 10.878351 16.131174 11.831689 14.375 13.457031 C 12.921087 12.945225 11.188904 13.054318 9.2050781 13.787109 C 8.0352521 13.255216 8.0523755 12.490028 7.7089844 10.228516 C 4.2909188 13.996909 2.159108 18.949834 2.0136719 24.404297 A 22 22 0 0 0 24 46 A 22 22 0 0 0 45.978516 24.439453 C 45.86593 19.937765 44.419638 15.761205 41.994141 12.322266 C 42.301168 13.786891 42.341072 15.297381 42.353516 16.119141 C 41.445774 13.047349 38.923445 10.490449 35.269531 9.421875 C 33.468401 8.9005029 31.314406 8.6264356 28.841797 8.5546875 z "
     transform="scale(0.28222222,0.28222222)"
     id="path4294" />
  <path
     id="path43"
     style="fill:url(#linearGradient4269);fill-opacity:1.0;fill-rule:nonzero;stroke:none"
     d="M 8.1417184,2.1338786 C 8.4486535,2.193006 8.7069972,2.2607724 8.9178296,2.353378 9.2425814,2.4926911 9.451524,2.6814121 9.5505963,2.8933517 9.2490603,2.8396243 8.9812682,2.8531237 8.7407412,2.9441093 10.463843,3.6012574 11.282337,4.3866492 11.186504,5.2897554 11.060976,5.1010346 10.891446,4.9725208 10.680344,4.9101538 c 0.263743,0.990312 0.286688,1.8021626 0.07586,2.4460813 C 10.609617,6.925876 10.469242,6.679108 10.351274,6.5883924 10.516754,7.916188 10.294314,8.8938105 9.6763938,9.5328694 9.7954425,9.1427384 9.8378249,8.8233439 9.8113697,8.5709061 9.0849297,9.6214252 8.2583376,10.164909 7.3310535,10.198927 6.9660788,10.194608 6.6181111,10.14061 6.2933591,10.038555 5.8155446,9.8846624 5.3865914,9.6200753 5.0027201,9.2453335 5.6017429,9.292851 6.1481252,9.1937673 6.6305288,8.9583373 L 7.4236469,8.4604816 C 7.523799,8.3886656 7.6166624,8.3991946 7.7106056,8.4434726 7.9047008,8.4170136 7.9508626,8.3568066 7.8963323,8.1818553 7.7729644,8.0784501 7.6644438,7.9434566 7.4830363,7.8443714 7.087557,7.6462011 6.6793901,7.6345917 6.2512467,7.9372469 5.8409201,8.1607962 5.4454408,8.1491866 5.0618395,7.9118682 4.8097046,7.7452863 4.5705274,7.5174173 4.3362093,7.2369009 l -0.084495,-0.1266238 0,-0.00837 C 4.2633223,6.8246316 4.3696837,6.6799187 4.5975229,6.6461703 4.8558667,6.6683093 5.1511938,6.7220363 5.4832344,6.8149121 5.5391144,6.506857 5.4662274,6.1844927 5.2637637,5.8529488 L 6.1184792,5.2185685 C 6.4109352,4.8131611 4.7010501,4.7489773 4.8588358,4.1738996 l 0.084495,0.075867 -0.084495,-0.084506 -0.092863,-0.1182541 0.00837,-0.042119 C 4.8134848,3.7381406 4.9452207,3.5251209 5.0526615,3.3215509 5.1698205,3.1349899 5.3952302,2.9289898 5.7275408,2.7140803 5.1117806,2.7877865 4.5527106,3.0569635 4.0570792,3.5156712 3.6467527,3.3712282 3.1576002,3.4017368 2.5977204,3.6085468 2.2675695,3.4584346 2.2726985,3.2427151 2.1757859,2.604466 1.1761547,3.7065525 0.5644442,5.1669118 0.5644442,6.7725237 c 0,3.4296443 2.7796926,6.2096983 6.208889,6.2096983 3.4291968,0 6.2088888,-2.780054 6.2088888,-6.2096983 0,-1.3310352 -0.417614,-2.5664954 -1.130557,-3.5773264 0.08665,0.4133497 0.09772,0.8396591 0.101232,1.0715778 C 11.696712,3.3998471 10.98485,2.6784421 9.9536342,2.3768668 9.4453151,2.229724 8.8376539,2.1525077 8.1398287,2.1322588 Z M 4.8545166,4.1606702 C 4.7111723,4.6088485 4.8377796,4.9960097 5.0518513,5.3672417 L 5.8554975,4.9684709 C 5.7488666,4.8534566 5.6381864,4.7406022 5.6381864,4.7406022 5.5558511,4.718463 5.45057,4.6509664 5.321803,4.5319023 L 4.9633071,4.2592154 m 0.8919205,0.7092555 0.245656,0.2594576 M 5.634677,4.7397921 6.0998038,5.2271185 c 0.065328,-0.043198 0.1444241,-0.079106 0.1760085,-0.2300288 0.00621,-0.010529 0.014847,-0.017009 0.029425,-0.0189 C 6.3611173,4.8674951 6.2566463,4.7662501 6.2366703,4.7767795 6.0396055,4.7800195 5.897071,4.7705695 5.634678,4.7397915" />
  <path
     style="fill:url(#linearGradient3813);fill-opacity:1"
     id="path3779"
     d="m -3.7119956,-1.4109418 c 0.181205,0.037282 0.3370162,0.079982 0.4612371,0.1386558 0.1916775,0.087009 0.3143115,0.2026638 0.3731354,0.33590088 -0.1779505,-0.0337256 -0.3351731,-0.0245533 -0.4767846,0.0319758 1.015293,0.41218556 1.4960199,0.90500204289 1.4407179,1.47173244 -0.074265,-0.1190131 -0.1745367,-0.19558 -0.3005814,-0.2346678 0.1554649,0.621792 0.1726873,1.13058228 0.046642,1.53568398 -0.086294,-0.2700302 -0.1675234,-0.4283851 -0.238392,-0.4851964 0.09859,0.8332047 -0.034767,1.448816 -0.3990477,1.8502771 0.069029,-0.2451382 0.098611,-0.4443589 0.082919,-0.6025727 -0.4280741,0.6591865 -0.9156782,0.9970347 -1.4614476,1.0184554 -0.2157358,-0.0031 -0.419921,-0.031919 -0.6115279,-0.095984 -0.2810496,-0.096943 -0.5352237,-0.2661638 -0.7618188,-0.5012549 0.353393,0.029887 0.6748791,-0.033528 0.9587515,-0.1812431 l 0.4664195,-0.3092873 c 0.060412,-0.023424 0.115703,-0.021167 0.1710202,0.00508 0.1138902,-0.016087 0.1571077,-0.081816 0.1191963,-0.1865771 -0.055192,-0.078176 -0.14166,-0.1458243 -0.2487572,-0.2079978 -0.2331257,-0.12446 -0.4769358,-0.1065671 -0.7307238,0.058674 C -5.0628042,2.3711465 -5.2944672,2.3639498 -5.5206669,2.214626 -5.6692053,2.109978 -5.812665,1.9692338 -5.9508094,1.7933529 l -0.051824,-0.079954 0,-0.00536 c 0.00686,-0.1740464 0.072628,-0.2665307 0.2072979,-0.2878949 0.1519422,0.013829 0.326646,0.048006 0.523426,0.1066236 0.032824,-0.1936627 -0.010451,-0.3946614 -0.1295617,-0.6025463 l 0,-0.00536 c 0.1847511,-0.1758809 0.352497,-0.3022035 0.4923319,-0.3839351 0.062173,-0.03381 0.096739,-0.085344 0.1088311,-0.1546578 0.00175,-0.0031 0.00341,-0.00564 0.00518,-0.00564 0.00169,-0.0031 0.0086,-0.00367 0.010363,-0.00536 0.036221,-0.05509 0.02065,-0.099568 -0.04146,-0.1385712 -0.1294957,0.00706 -0.2591788,-0.00536 -0.3886829,-0.03206 l 0,0.00536 C -5.2684545,0.1881858 -5.3341155,0.1417884 -5.4170208,0.0600287 l -0.21248,-0.2132471 -0.067372,-0.05334 -0.01036,-0.010442 c 0.00693,-0.00339 0.010375,-0.012982 0.015545,-0.016087 0.029348,-0.1616851 0.081254,-0.29686959 0.1502909,-0.41588271 l 0.015545,-0.0160867 c 0.069107,-0.11723498 0.1987203,-0.24355764 0.3938651,-0.37854449 -0.3626386,0.0461151 -0.6877202,0.21333174 -0.9794813,0.50119841 -0.2417589,-0.0906498 -0.5304632,-0.0710353 -0.860285,0.0586458 l -0.036277,0.0320322 c -0.00506,0.003104 -0.010524,0.003104 -0.015545,0.005644 l 0.051824,-0.0372533 c -0.2050909,-0.0993418 -0.3424866,-0.3834549 -0.4094125,-0.83715541 -0.2641891,0.2664743 -0.3921252,0.74684473 -0.3835002,1.43430983 -0.01811,0.025964 -0.046341,0.064601 -0.072554,0.10668 -0.00847,0.00649 -0.017602,0.014111 -0.025911,0.020884 -0.00183,0 0,0.00339 0,0.00564 -0.00183,0 -0.00518,0 -0.00518,0 -0.00189,0.0031 -0.00518,0.0031 -0.00518,0.00508 -0.04034,0.0642105 -0.090888,0.1629318 -0.1606559,0.2932902 -0.1101553,0.2021558 -0.144795,0.3683283 -0.1502904,0.51186647 0.00209,-0.00367 0.0031,-0.00734 0.00518,-0.010442 3.951e-4,0.033133 0.0022,0.061073 0.010363,0.090678 l 0.21248,-0.17602217 c -0.077677,0.20077287 -0.1295905,0.41416107 -0.1554731,0.63988237 -0.07943,0.7408051 0.1246138,1.4738774 0.6115281,2.196846 0.7303864,0.9718605 1.6468215,1.4878474 2.751875,1.5569918 1.1051748,0.067564 2.0508535,-0.3504918 2.8296073,-1.2530667 0.5265547,-0.664464 0.8481971,-1.358392 0.9691164,-2.0848602 0.1209655,-0.4991947 0.1363858,-0.9279467 0.0414593,-1.2903764 -0.0328163,0.259334 -0.0726186,0.3910471 -0.1088311,0.3999088 -0.010326,-0.4316871 -0.07098,-0.8177953 -0.1865681,-1.1570546 0,-0.0031 -0.00362,-0.00734 -0.00518,-0.010442 -0.089976,-0.2647811 -0.2091167,-0.49950536 -0.3627726,-0.70916825 0.071195,0.28781022 0.106787,0.51375735 0.1088311,0.67722045 -0.1507606,-0.54454778 -0.5690819,-0.9943818 -1.1764134,-1.1837811 -0.3004887,-0.092371 -0.6601321,-0.1422118 -1.072765,-0.1546578 z m 2.2129015,1.4183642 c 0.00945,0.017216 0.017103,0.036124 0.025911,0.05334 -4.515e-4,0.0031 5.362e-4,0.00734 0,0.010442 -0.00183,-0.00367 -0.00518,-0.00734 -0.00518,-0.010442 -0.00775,-0.01778 -0.01248,-0.035758 -0.020729,-0.05334 z"
     inkscape:connector-curvature="0" />
  <path
     d="M 8.1417184,2.1338786 C 8.4486535,2.193006 8.7069972,2.2607724 8.9178296,2.353378 9.2425814,2.4926911 9.451524,2.6814121 9.5505963,2.8933517 9.2490603,2.8396243 8.9812682,2.8531237 8.7407412,2.9441093 10.463843,3.6012574 11.282337,4.3866492 11.186504,5.2897554 11.060976,5.1010346 10.891446,4.9725208 10.680344,4.9101538 c 0.263743,0.990312 0.286688,1.8021626 0.07586,2.4460813 C 10.609617,6.925876 10.469242,6.679108 10.351274,6.5883924 10.516754,7.916188 10.294314,8.8938105 9.6763938,9.5328694 9.7954425,9.1427384 9.8378249,8.8233439 9.8113697,8.5709061 9.0849297,9.6214252 8.2583376,10.164909 7.3310535,10.198927 6.9660788,10.194608 6.6181111,10.14061 6.2933591,10.038555 5.8155446,9.8846624 5.3865914,9.6200753 5.0027201,9.2453335 5.6017429,9.292851 6.1481252,9.1937673 6.6305288,8.9583373 L 7.4236469,8.4604816 C 7.523799,8.3886656 7.6166624,8.3991946 7.7106056,8.4434726 7.9047008,8.4170136 7.9508626,8.3568066 7.8963323,8.1818553 7.7729644,8.0784501 7.6644438,7.9434566 7.4830363,7.8443714 7.087557,7.6462011 6.6793901,7.6345917 6.2512467,7.9372469 5.8409201,8.1607962 5.4454408,8.1491866 5.0618395,7.9118682 4.8097046,7.7452863 4.5705274,7.5174173 4.3362093,7.2369009 l -0.084495,-0.1266238 0,-0.00837 C 4.2633223,6.8246316 4.3696837,6.6799187 4.5975229,6.6461703 4.8558667,6.6683093 5.1511938,6.7220363 5.4832344,6.8149121 5.5391144,6.506857 5.4662274,6.1844927 5.2637637,5.8529488 L 6.1184792,5.2185685 C 6.4109352,4.8131611 4.7010501,4.7489773 4.8588358,4.1738996 l 0.084495,0.075867 -0.084495,-0.084506 -0.092863,-0.1182541 0.00837,-0.042119 C 4.8134848,3.7381406 4.9452207,3.5251209 5.0526615,3.3215509 5.1698205,3.1349899 5.3952302,2.9289898 5.7275408,2.7140803 5.1117806,2.7877865 4.5527106,3.0569635 4.0570792,3.5156712 3.6467527,3.3712282 3.1576002,3.4017368 2.5977204,3.6085468 2.2675695,3.4584346 2.2726985,3.2427151 2.1757859,2.604466 1.1761547,3.7065525 0.5644442,5.1669118 0.5644442,6.7725237 c 0,3.4296443 2.7796926,6.2096983 6.208889,6.2096983 3.4291968,0 6.2088888,-2.780054 6.2088888,-6.2096983 0,-1.3310352 -0.417614,-2.5664954 -1.130557,-3.5773264 0.08665,0.4133497 0.09772,0.8396591 0.101232,1.0715778 C 11.696712,3.3998471 10.98485,2.6784421 9.9536342,2.3768668 9.4453151,2.229724 8.8376539,2.1525077 8.1398287,2.1322588 Z M 4.8545166,4.1606702 C 4.7111723,4.6088485 4.8377796,4.9960097 5.0518513,5.3672417 L 5.8554975,4.9684709 C 5.7488666,4.8534566 5.6381864,4.7406022 5.6381864,4.7406022 5.5558511,4.718463 5.45057,4.6509664 5.321803,4.5319023 L 4.9633071,4.2592154 m 0.8919205,0.7092555 0.245656,0.2594576 M 5.634677,4.7397921 6.0998038,5.2271185 c 0.065328,-0.043198 0.1444241,-0.079106 0.1760085,-0.2300288 0.00621,-0.010529 0.014847,-0.017009 0.029425,-0.0189 C 6.3611173,4.8674951 6.2566463,4.7662501 6.2366703,4.7767795 6.0396055,4.7800195 5.897071,4.7705695 5.634678,4.7397915"
     style="fill:url(#linearGradient4269);fill-opacity:1.0;fill-rule:nonzero;stroke:none"
     id="path4319" />
</svg>
