<?xml version="1.0" encoding="UTF-8" standalone="no"?>
<!-- Created with Inkscape (http://www.inkscape.org/) -->

<svg
   xmlns:dc="http://purl.org/dc/elements/1.1/"
   xmlns:cc="http://creativecommons.org/ns#"
   xmlns:rdf="http://www.w3.org/1999/02/22-rdf-syntax-ns#"
   xmlns:svg="http://www.w3.org/2000/svg"
   xmlns="http://www.w3.org/2000/svg"
   xmlns:xlink="http://www.w3.org/1999/xlink"
   xmlns:sodipodi="http://sodipodi.sourceforge.net/DTD/sodipodi-0.dtd"
   xmlns:inkscape="http://www.inkscape.org/namespaces/inkscape"
   width="48"
   height="48"
   id="svg2"
   version="1.1"
   inkscape:version="0.48.5 r10040"
   sodipodi:docname="gnome-software.svg">
  <defs
     id="defs4">
    <linearGradient
       inkscape:collect="always"
       id="linearGradient3876">
      <stop
         style="stop-color:#000000;stop-opacity:1;"
         offset="0"
         id="stop3878" />
      <stop
         style="stop-color:#000000;stop-opacity:0;"
         offset="1"
         id="stop3880" />
    </linearGradient>
    <linearGradient
       id="linearGradient3846">
      <stop
         style="stop-color:#444444;stop-opacity:1;"
         offset="0"
         id="stop3848" />
      <stop
         style="stop-color:#666666;stop-opacity:1;"
         offset="1"
         id="stop3854" />
    </linearGradient>
    <linearGradient
       id="linearGradient3923">
      <stop
         style="stop-color:#dc2600;stop-opacity:1;"
         offset="0"
         id="stop3925" />
      <stop
         style="stop-color:#f45501;stop-opacity:1;"
         offset="1"
         id="stop3927" />
    </linearGradient>
    <linearGradient
       id="linearGradient3896">
      <stop
         style="stop-color:#dc2600;stop-opacity:1;"
         offset="0"
         id="stop3898" />
      <stop
         style="stop-color:#f45501;stop-opacity:1;"
         offset="1"
         id="stop3900" />
    </linearGradient>
    <linearGradient
       id="linearGradient3817">
      <stop
         style="stop-color:#fef0ed;stop-opacity:1;"
         offset="0"
         id="stop3819" />
      <stop
         style="stop-color:#fff5f4;stop-opacity:1;"
         offset="1"
         id="stop3821" />
    </linearGradient>
    <linearGradient
       id="linearGradient3797">
      <stop
         style="stop-color:#f23f07;stop-opacity:1;"
         offset="0"
         id="stop3799" />
      <stop
         style="stop-color:#fb5f14;stop-opacity:1;"
         offset="1"
         id="stop3801" />
    </linearGradient>
    <linearGradient
       id="linearGradient3778">
      <stop
         style="stop-color:#000000;stop-opacity:1;"
         offset="0"
         id="stop3780" />
      <stop
         style="stop-color:#595959;stop-opacity:1;"
         offset="1"
         id="stop3782" />
    </linearGradient>
    <linearGradient
       inkscape:collect="always"
       xlink:href="#linearGradient4524"
       id="linearGradient3803"
       x1="24"
       y1="1050.3622"
       x2="24"
       y2="1006.3622"
       gradientUnits="userSpaceOnUse" />
    <linearGradient
       inkscape:collect="always"
       xlink:href="#linearGradient3896"
       id="linearGradient3902"
       x1="16"
       y1="1025.3622"
       x2="32"
       y2="1025.3622"
       gradientUnits="userSpaceOnUse" />
    <linearGradient
       id="linearGradient3864">
      <stop
         style="stop-color:#92567c;stop-opacity:1;"
         offset="0"
         id="stop3866" />
      <stop
         style="stop-color:#423076;stop-opacity:1;"
         offset="1"
         id="stop3868" />
    </linearGradient>
    <linearGradient
       id="linearGradient3848">
      <stop
         style="stop-color:#ababab;stop-opacity:1;"
         offset="0"
         id="stop3850" />
      <stop
         style="stop-color:#fefefe;stop-opacity:1;"
         offset="1"
         id="stop3852" />
    </linearGradient>
    <linearGradient
       id="linearGradient3805">
      <stop
         style="stop-color:#c4c4c4;stop-opacity:1;"
         offset="0"
         id="stop3807" />
      <stop
         style="stop-color:#eeeeee;stop-opacity:1;"
         offset="1"
         id="stop3809" />
    </linearGradient>
    <linearGradient
       id="linearGradient3821">
      <stop
         style="stop-color:#d6d6d6;stop-opacity:1;"
         offset="0"
         id="stop3823" />
      <stop
         style="stop-color:#9e9e9e;stop-opacity:1;"
         offset="1"
         id="stop3825" />
    </linearGradient>
    <linearGradient
       inkscape:collect="always"
       xlink:href="#linearGradient3776"
       id="linearGradient3782"
       x1="24"
       y1="1050.3622"
       x2="24"
       y2="1006.3622"
       gradientUnits="userSpaceOnUse" />
    <linearGradient
       id="linearGradient3776">
      <stop
         style="stop-color:#dfe0e5;stop-opacity:1;"
         offset="0"
         id="stop3778" />
      <stop
         style="stop-color:#ededed;stop-opacity:1;"
         offset="1"
         id="stop3780-9" />
    </linearGradient>
    <radialGradient
       inkscape:collect="always"
       xlink:href="#linearGradient3849"
       id="radialGradient3855"
       cx="24"
       cy="42.5"
       fx="24"
       fy="42.5"
       r="24"
       gradientTransform="matrix(1,0,0,0.0625,0,39.84375)"
       gradientUnits="userSpaceOnUse" />
    <linearGradient
       inkscape:collect="always"
       id="linearGradient3849">
      <stop
         style="stop-color:#000000;stop-opacity:1;"
         offset="0"
         id="stop3851" />
      <stop
         style="stop-color:#000000;stop-opacity:0;"
         offset="1"
         id="stop3853" />
    </linearGradient>
    <radialGradient
       r="24"
       fy="42.5"
       fx="24"
       cy="42.5"
       cx="24"
       gradientTransform="matrix(1,0,0,0.0625,0,39.84375)"
       gradientUnits="userSpaceOnUse"
       id="radialGradient3068"
       xlink:href="#linearGradient3849"
       inkscape:collect="always" />
    <linearGradient
       inkscape:collect="always"
       xlink:href="#linearGradient3876"
       id="linearGradient3882"
       x1="24"
       y1="12"
       x2="24"
       y2="18"
       gradientUnits="userSpaceOnUse"
       gradientTransform="translate(38,1004.3622)" />
    <linearGradient
       inkscape:collect="always"
       xlink:href="#linearGradient4524"
       id="linearGradient4530"
       x1="24"
       y1="46"
       x2="24"
       y2="2"
       gradientUnits="userSpaceOnUse" />
    <linearGradient
       id="linearGradient4524">
      <stop
         style="stop-color:#036fea;stop-opacity:1;"
         offset="0"
         id="stop4526" />
      <stop
         style="stop-color:#4ca0ff;stop-opacity:1;"
         offset="1"
         id="stop4528" />
    </linearGradient>
    <linearGradient
       gradientTransform="translate(94,1011.3622)"
       y2="2"
       x2="24"
       y1="46"
       x1="24"
       gradientUnits="userSpaceOnUse"
       id="linearGradient3138"
       xlink:href="#linearGradient4524"
       inkscape:collect="always" />
    <linearGradient
       inkscape:collect="always"
       xlink:href="#linearGradient4524"
       id="linearGradient3826"
       gradientUnits="userSpaceOnUse"
       x1="24"
       y1="1050.3622"
       x2="24"
       y2="1006.3622"
       gradientTransform="translate(-54,0)" />
  </defs>
  <sodipodi:namedview
     id="base"
     pagecolor="#ffffff"
     bordercolor="#666666"
     borderopacity="1.0"
     inkscape:pageopacity="0"
     inkscape:pageshadow="2"
     inkscape:zoom="18.442543"
     inkscape:cx="27.503101"
     inkscape:cy="22.353136"
     inkscape:document-units="px"
     inkscape:current-layer="layer1"
     showgrid="true"
     inkscape:window-width="1920"
     inkscape:window-height="1052"
     inkscape:window-x="0"
     inkscape:window-y="28"
     inkscape:window-maximized="1">
    <inkscape:grid
       type="xygrid"
       id="grid3758"
       empspacing="5"
       visible="true"
       enabled="true"
       snapvisiblegridlinesonly="true" />
  </sodipodi:namedview>
  <metadata
     id="metadata7">
    <rdf:RDF>
      <cc:Work
         rdf:about="">
        <dc:format>image/svg+xml</dc:format>
        <dc:type
           rdf:resource="http://purl.org/dc/dcmitype/StillImage" />
        <dc:title />
      </cc:Work>
    </rdf:RDF>
  </metadata>
  <g
     inkscape:label="Layer 1"
     inkscape:groupmode="layer"
     id="layer1"
     transform="translate(0,-1004.3622)">
    <g
       id="g3959"
       style="fill:none;stroke:#000000;stroke-opacity:1;stroke-width:2;stroke-miterlimit:4;stroke-dasharray:none;opacity:0.1">
      <path
         style="fill:none;fill-opacity:1;stroke:#000000;stroke-opacity:1;stroke-width:2;stroke-miterlimit:4;stroke-dasharray:none"
         d="m 13,1009.3622 22,0 -2.444444,-3 -17.111112,0 z"
         id="path3947"
         inkscape:connector-curvature="0"
         sodipodi:nodetypes="ccccc" />
      <rect
         y="-1016.3622"
         x="31"
         height="6.9999828"
         width="4"
         id="rect3949"
         style="fill:none;fill-opacity:1;stroke:#000000;stroke-opacity:1;stroke-width:2;stroke-miterlimit:4;stroke-dasharray:none"
         transform="scale(1,-1)" />
      <rect
         style="fill:none;fill-opacity:1;stroke:#000000;stroke-opacity:1;stroke-width:2;stroke-miterlimit:4;stroke-dasharray:none"
         id="rect3951"
         width="4"
         height="7.0000148"
         x="13"
         y="-1016.3622"
         transform="scale(1,-1)" />
      <path
         style="fill:none;fill-opacity:1;stroke:#000000;stroke-opacity:1;stroke-width:2;stroke-miterlimit:4;stroke-dasharray:none"
         d="m 15.4375,1006.3622 -2.4375,3 4,0 0,-3 z"
         id="path3953"
         inkscape:connector-curvature="0"
         sodipodi:nodetypes="ccccc" />
      <path
         inkscape:connector-curvature="0"
         id="path3955"
         d="m 32.5625,1006.3622 2.4375,3 -4,0 0,-3 z"
         style="fill:none;fill-opacity:1;stroke:#000000;stroke-opacity:1;stroke-width:2;stroke-miterlimit:4;stroke-dasharray:none"
         sodipodi:nodetypes="ccccc" />
      <path
         sodipodi:nodetypes="csssscc"
         inkscape:connector-curvature="0"
         id="path3957"
         d="m 2,1014.3622 0,32.8235 c 0,1.7598 1.338,3.1765 3,3.1765 l 38,0 c 1.662,0 3,-1.4167 3,-3.1765 l 0,-32.8235 z"
         style="fill:none;fill-opacity:1;stroke:#000000;stroke-opacity:1;stroke-width:2;stroke-miterlimit:4;stroke-dasharray:none" />
    </g>
    <rect
       style="fill:#e3e4e5;fill-opacity:1;stroke:none"
       id="rect3053"
       width="4"
       height="7.0000148"
       x="13"
       y="-1016.3622"
       transform="scale(1,-1)" />
    <path
       style="fill:#acadad;fill-opacity:1;stroke:none"
       d="m 13,1009.3622 22,0 -2.444444,-3 -17.111112,0 z"
       id="path3057"
       inkscape:connector-curvature="0"
       sodipodi:nodetypes="ccccc" />
    <rect
       y="-1016.3622"
       x="31"
       height="6.9999828"
       width="4"
       id="rect3858"
       style="fill:#e3e4e5;fill-opacity:1;stroke:none"
       transform="scale(1,-1)" />
    <path
       style="fill:#e3e4e5;fill-opacity:1;stroke:none"
       d="m 2,1014.3622 0,32.8235 c 0,1.7598 1.338,3.1765 3,3.1765 l 38,0 c 1.662,0 3,-1.4167 3,-3.1765 l 0,-32.8235 z"
       id="rect3815"
       inkscape:connector-curvature="0"
       sodipodi:nodetypes="csssscc" />
    <path
       style="fill:#eeefef;fill-opacity:1;stroke:none"
       d="m 2,28 0,15 c 0,1.662 1.338,3 3,3 l 38,0 c 1.662,0 3,-1.338 3,-3 l 0,-15 z"
       transform="translate(0,1004.3622)"
       id="rect3820"
       inkscape:connector-curvature="0"
       sodipodi:nodetypes="csssscc" />
    <path
       style="fill:#e3e4e5;fill-opacity:1;stroke:none"
       d="m 15.4375,1006.3622 -2.4375,3 4,0 0,-3 z"
       id="rect3831"
       inkscape:connector-curvature="0"
       sodipodi:nodetypes="ccccc" />
    <path
       inkscape:connector-curvature="0"
       id="path3834"
       d="m 32.5625,1006.3622 2.4375,3 -4,0 0,-3 z"
       style="fill:#e3e4e5;fill-opacity:1;stroke:none"
       sodipodi:nodetypes="ccccc" />
    <path
       style="fill:#4387fd;fill-opacity:1;stroke:none;display:inline"
       d="m 23,1022.3622 c -5.522847,0 -10,4.4772 -10,10 0,5.5228 4.477153,10 10,10 5.522847,0 10,-4.4772 10,-10 0,-5.5228 -4.477153,-10 -10,-10 z m -4.625,5 1.25,0 c 0.21329,0 0.375,0.165 0.375,0.375 l 0,1.25 c 0,0.2099 -0.16171,0.375 -0.375,0.375 l -1.25,0 c -0.21329,0 -0.375,-0.1651 -0.375,-0.375 l 0,-1.25 c 0,-0.21 0.16171,-0.375 0.375,-0.375 z m 4,0 1.25,0 c 0.21329,0 0.375,0.165 0.375,0.375 l 0,1.25 c 0,0.2099 -0.16171,0.375 -0.375,0.375 l -1.25,0 c -0.21329,0 -0.375,-0.1651 -0.375,-0.375 l 0,-1.25 c 0,-0.21 0.16171,-0.375 0.375,-0.375 z m 4,0 1.25,0 c 0.21329,0 0.375,0.165 0.375,0.375 l 0,1.25 c 0,0.2099 -0.16171,0.375 -0.375,0.375 l -1.25,0 c -0.21329,0 -0.375,-0.1651 -0.375,-0.375 l 0,-1.25 c 0,-0.21 0.16171,-0.375 0.375,-0.375 z m -8.125,4.0313 c 0.04609,-0.019 0.07168,0 0.125,0 l 1.25,0 c 0.21329,0 0.375,0.165 0.375,0.375 l 0,1.2187 c 0,0.2099 -0.16171,0.4063 -0.375,0.4063 l -1.25,0 c -0.21329,0 -0.375,-0.1964 -0.375,-0.4063 l 0,-1.2187 c 0,-0.1575 0.111725,-0.3177 0.25,-0.375 z m 4,0 c 0.04609,-0.019 0.07168,0 0.125,0 l 1.25,0 c 0.21329,0 0.375,0.165 0.375,0.375 l 0,1.2187 c 0,0.2099 -0.16171,0.4063 -0.375,0.4063 l -1.25,0 c -0.21329,0 -0.375,-0.1964 -0.375,-0.4063 l 0,-1.2187 c 0,-0.1575 0.111725,-0.3177 0.25,-0.375 z m 4,0 c 0.04609,-0.019 0.07168,0 0.125,0 l 1.25,0 c 0.21329,0 0.375,0.165 0.375,0.375 l 0,1.2187 c 0,0.2099 -0.16171,0.4063 -0.375,0.4063 l -1.25,0 c -0.21329,0 -0.375,-0.1964 -0.375,-0.4063 l 0,-1.2187 c 0,-0.1575 0.111725,-0.3177 0.25,-0.375 z m -7.875,3.9687 1.25,0 c 0.21329,0 0.375,0.165 0.375,0.375 l 0,1.25 c 0,0.2099 -0.16171,0.375 -0.375,0.375 l -1.25,0 c -0.21329,0 -0.375,-0.1651 -0.375,-0.375 l 0,-1.25 c 0,-0.21 0.16171,-0.375 0.375,-0.375 z m 4,0 1.25,0 c 0.21329,0 0.375,0.165 0.375,0.375 l 0,1.25 c 0,0.2099 -0.16171,0.375 -0.375,0.375 l -1.25,0 c -0.21329,0 -0.375,-0.1651 -0.375,-0.375 l 0,-1.25 c 0,-0.21 0.16171,-0.375 0.375,-0.375 z m 4,0 1.25,0 c 0.21329,0 0.375,0.165 0.375,0.375 l 0,1.25 c 0,0.2099 -0.16171,0.375 -0.375,0.375 l -1.25,0 c -0.21329,0 -0.375,-0.1651 -0.375,-0.375 l 0,-1.25 c 0,-0.21 0.16171,-0.375 0.375,-0.375 z"
       id="path3932"
       inkscape:connector-curvature="0" />
    <path
       style="fill:#ffffff;fill-opacity:1;stroke:none;display:inline;opacity:0.2"
       d="M 13 28 C 13 33.5228 17.477153 38 23 38 C 28.522847 38 33 33.5228 33 28 L 28 28 L 28 28.625 C 28 28.8349 27.83829 29.03125 27.625 29.03125 L 26.375 29.03125 C 26.16171 29.03125 26 28.8349 26 28.625 L 26 28 L 24 28 L 24 28.625 C 24 28.8349 23.83829 29.03125 23.625 29.03125 L 22.375 29.03125 C 22.16171 29.03125 22 28.8349 22 28.625 L 22 28 L 20 28 L 20 28.625 C 20 28.8349 19.83829 29.03125 19.625 29.03125 L 18.375 29.03125 C 18.16171 29.03125 18 28.8349 18 28.625 L 18 28 L 13 28 z M 18.375 31 L 19.625 31 C 19.83829 31 20 31.165 20 31.375 L 20 32.625 C 20 32.8349 19.83829 33 19.625 33 L 18.375 33 C 18.16171 33 18 32.8349 18 32.625 L 18 31.375 C 18 31.165 18.16171 31 18.375 31 z M 22.375 31 L 23.625 31 C 23.83829 31 24 31.165 24 31.375 L 24 32.625 C 24 32.8349 23.83829 33 23.625 33 L 22.375 33 C 22.16171 33 22 32.8349 22 32.625 L 22 31.375 C 22 31.165 22.16171 31 22.375 31 z M 26.375 31 L 27.625 31 C 27.83829 31 28 31.165 28 31.375 L 28 32.625 C 28 32.8349 27.83829 33 27.625 33 L 26.375 33 C 26.16171 33 26 32.8349 26 32.625 L 26 31.375 C 26 31.165 26.16171 31 26.375 31 z "
       id="path3060"
       transform="translate(0,1004.3622)" />
  </g>
</svg>
