<?xml version="1.0" encoding="UTF-8" standalone="no"?>
<!-- Created with Inkscape (http://www.inkscape.org/) -->

<svg
   xmlns:dc="http://purl.org/dc/elements/1.1/"
   xmlns:cc="http://creativecommons.org/ns#"
   xmlns:rdf="http://www.w3.org/1999/02/22-rdf-syntax-ns#"
   xmlns:svg="http://www.w3.org/2000/svg"
   xmlns="http://www.w3.org/2000/svg"
   xmlns:xlink="http://www.w3.org/1999/xlink"
   xmlns:sodipodi="http://sodipodi.sourceforge.net/DTD/sodipodi-0.dtd"
   xmlns:inkscape="http://www.inkscape.org/namespaces/inkscape"
   width="48"
   height="48"
   id="svg2"
   version="1.1"
   inkscape:version="0.48.5 r10040"
   sodipodi:docname="google-music.svg">
  <defs
     id="defs4">
    <linearGradient
       id="linearGradient3923">
      <stop
         style="stop-color:#dc2600;stop-opacity:1;"
         offset="0"
         id="stop3925" />
      <stop
         style="stop-color:#f45501;stop-opacity:1;"
         offset="1"
         id="stop3927" />
    </linearGradient>
    <linearGradient
       id="linearGradient3896">
      <stop
         style="stop-color:#dc2600;stop-opacity:1;"
         offset="0"
         id="stop3898" />
      <stop
         style="stop-color:#f45501;stop-opacity:1;"
         offset="1"
         id="stop3900" />
    </linearGradient>
    <linearGradient
       id="linearGradient3817">
      <stop
         style="stop-color:#fef0ed;stop-opacity:1;"
         offset="0"
         id="stop3819" />
      <stop
         style="stop-color:#fff5f4;stop-opacity:1;"
         offset="1"
         id="stop3821" />
    </linearGradient>
    <linearGradient
       id="linearGradient3797">
      <stop
         style="stop-color:#f23f07;stop-opacity:1;"
         offset="0"
         id="stop3799" />
      <stop
         style="stop-color:#fb5f14;stop-opacity:1;"
         offset="1"
         id="stop3801" />
    </linearGradient>
    <linearGradient
       id="linearGradient3778">
      <stop
         style="stop-color:#000000;stop-opacity:1;"
         offset="0"
         id="stop3780" />
      <stop
         style="stop-color:#595959;stop-opacity:1;"
         offset="1"
         id="stop3782" />
    </linearGradient>
    <linearGradient
       inkscape:collect="always"
       xlink:href="#linearGradient4044-7"
       id="linearGradient3803"
       x1="24"
       y1="1050.3622"
       x2="24"
       y2="1006.3622"
       gradientUnits="userSpaceOnUse" />
    <linearGradient
       inkscape:collect="always"
       xlink:href="#linearGradient3896"
       id="linearGradient3902"
       x1="16"
       y1="1025.3622"
       x2="32"
       y2="1025.3622"
       gradientUnits="userSpaceOnUse" />
    <linearGradient
       id="linearGradient3864">
      <stop
         style="stop-color:#92567c;stop-opacity:1;"
         offset="0"
         id="stop3866" />
      <stop
         style="stop-color:#423076;stop-opacity:1;"
         offset="1"
         id="stop3868" />
    </linearGradient>
    <linearGradient
       id="linearGradient3848">
      <stop
         style="stop-color:#ababab;stop-opacity:1;"
         offset="0"
         id="stop3850" />
      <stop
         style="stop-color:#fefefe;stop-opacity:1;"
         offset="1"
         id="stop3852" />
    </linearGradient>
    <linearGradient
       id="linearGradient3805">
      <stop
         style="stop-color:#c4c4c4;stop-opacity:1;"
         offset="0"
         id="stop3807" />
      <stop
         style="stop-color:#eeeeee;stop-opacity:1;"
         offset="1"
         id="stop3809" />
    </linearGradient>
    <linearGradient
       id="linearGradient3821">
      <stop
         style="stop-color:#d6d6d6;stop-opacity:1;"
         offset="0"
         id="stop3823" />
      <stop
         style="stop-color:#9e9e9e;stop-opacity:1;"
         offset="1"
         id="stop3825" />
    </linearGradient>
    <linearGradient
       inkscape:collect="always"
       xlink:href="#linearGradient3776"
       id="linearGradient3782"
       x1="24"
       y1="1050.3622"
       x2="24"
       y2="1006.3622"
       gradientUnits="userSpaceOnUse" />
    <linearGradient
       id="linearGradient3776">
      <stop
         style="stop-color:#dfe0e5;stop-opacity:1;"
         offset="0"
         id="stop3778" />
      <stop
         style="stop-color:#ededed;stop-opacity:1;"
         offset="1"
         id="stop3780-9" />
    </linearGradient>
    <radialGradient
       inkscape:collect="always"
       xlink:href="#linearGradient3849"
       id="radialGradient3855"
       cx="24"
       cy="42.5"
       fx="24"
       fy="42.5"
       r="24"
       gradientTransform="matrix(1,0,0,0.0625,0,39.84375)"
       gradientUnits="userSpaceOnUse" />
    <linearGradient
       inkscape:collect="always"
       id="linearGradient3849">
      <stop
         style="stop-color:#000000;stop-opacity:1;"
         offset="0"
         id="stop3851" />
      <stop
         style="stop-color:#000000;stop-opacity:0;"
         offset="1"
         id="stop3853" />
    </linearGradient>
    <radialGradient
       r="24"
       fy="42.5"
       fx="24"
       cy="42.5"
       cx="24"
       gradientTransform="matrix(1,0,0,0.0625,0,39.84375)"
       gradientUnits="userSpaceOnUse"
       id="radialGradient3068"
       xlink:href="#linearGradient3849"
       inkscape:collect="always" />
    <linearGradient
       inkscape:collect="always"
       xlink:href="#linearGradient3995"
       id="linearGradient4017"
       gradientUnits="userSpaceOnUse"
       gradientTransform="matrix(0,1,-1,0,47.9375,1004.3622)"
       x1="35"
       y1="21"
       x2="35"
       y2="27" />
    <linearGradient
       id="linearGradient3995">
      <stop
         style="stop-color:#333333;stop-opacity:1;"
         offset="0"
         id="stop3997" />
      <stop
         id="stop4003"
         offset="0.5"
         style="stop-color:#111111;stop-opacity:1;" />
      <stop
         style="stop-color:#333333;stop-opacity:1;"
         offset="1"
         id="stop3999" />
    </linearGradient>
    <linearGradient
       inkscape:collect="always"
       xlink:href="#linearGradient3995"
       id="linearGradient4013"
       gradientUnits="userSpaceOnUse"
       gradientTransform="matrix(0,-1,-1,0,47.9375,1052.3622)"
       x1="35"
       y1="21"
       x2="35"
       y2="27" />
    <linearGradient
       id="linearGradient3150">
      <stop
         style="stop-color:#333333;stop-opacity:1;"
         offset="0"
         id="stop3152" />
      <stop
         id="stop3154"
         offset="0.5"
         style="stop-color:#111111;stop-opacity:1;" />
      <stop
         style="stop-color:#333333;stop-opacity:1;"
         offset="1"
         id="stop3156" />
    </linearGradient>
    <linearGradient
       inkscape:collect="always"
       xlink:href="#linearGradient3995"
       id="linearGradient4009"
       gradientUnits="userSpaceOnUse"
       x1="35"
       y1="21"
       x2="35"
       y2="27"
       gradientTransform="matrix(-1,0,0,1,48,1004.3622)" />
    <linearGradient
       id="linearGradient3159">
      <stop
         style="stop-color:#333333;stop-opacity:1;"
         offset="0"
         id="stop3161" />
      <stop
         id="stop3163"
         offset="0.5"
         style="stop-color:#111111;stop-opacity:1;" />
      <stop
         style="stop-color:#333333;stop-opacity:1;"
         offset="1"
         id="stop3165" />
    </linearGradient>
    <linearGradient
       gradientTransform="translate(0,1004.3622)"
       inkscape:collect="always"
       xlink:href="#linearGradient3995"
       id="linearGradient4001"
       x1="35"
       y1="21"
       x2="35"
       y2="27"
       gradientUnits="userSpaceOnUse" />
    <linearGradient
       id="linearGradient3168">
      <stop
         style="stop-color:#333333;stop-opacity:1;"
         offset="0"
         id="stop3170" />
      <stop
         id="stop3172"
         offset="0.5"
         style="stop-color:#111111;stop-opacity:1;" />
      <stop
         style="stop-color:#333333;stop-opacity:1;"
         offset="1"
         id="stop3174" />
    </linearGradient>
    <linearGradient
       inkscape:collect="always"
       xlink:href="#linearGradient3943"
       id="linearGradient3949"
       x1="23"
       y1="12.9998"
       x2="23"
       y2="31.9998"
       gradientUnits="userSpaceOnUse" />
    <linearGradient
       id="linearGradient3943">
      <stop
         style="stop-color:#5b5b5b;stop-opacity:1;"
         offset="0"
         id="stop3945" />
      <stop
         style="stop-color:#444444;stop-opacity:1;"
         offset="1"
         id="stop3947" />
    </linearGradient>
    <radialGradient
       inkscape:collect="always"
       xlink:href="#linearGradient3967"
       id="radialGradient3973"
       cx="23"
       cy="22.5"
       fx="23"
       fy="22.5"
       r="10"
       gradientTransform="matrix(1,0,0,0.95,0,1.125)"
       gradientUnits="userSpaceOnUse" />
    <linearGradient
       inkscape:collect="always"
       id="linearGradient3967">
      <stop
         style="stop-color:#000000;stop-opacity:1;"
         offset="0"
         id="stop3969" />
      <stop
         style="stop-color:#000000;stop-opacity:0;"
         offset="1"
         id="stop3971" />
    </linearGradient>
    <radialGradient
       inkscape:collect="always"
       xlink:href="#linearGradient3955"
       id="radialGradient3961"
       cx="23"
       cy="22.5"
       fx="23"
       fy="22.5"
       r="10"
       gradientTransform="matrix(1,0,0,0.95,0,1.125)"
       gradientUnits="userSpaceOnUse" />
    <linearGradient
       inkscape:collect="always"
       id="linearGradient3955">
      <stop
         style="stop-color:#000000;stop-opacity:1;"
         offset="0"
         id="stop3957" />
      <stop
         style="stop-color:#000000;stop-opacity:0;"
         offset="1"
         id="stop3959" />
    </linearGradient>
    <linearGradient
       inkscape:collect="always"
       xlink:href="#linearGradient3925"
       id="linearGradient3931"
       x1="23"
       y1="32.000038"
       x2="23"
       y2="13.000038"
       gradientUnits="userSpaceOnUse" />
    <linearGradient
       id="linearGradient3925">
      <stop
         style="stop-color:#fb9469;stop-opacity:1;"
         offset="0"
         id="stop3927-9" />
      <stop
         style="stop-color:#f2b78f;stop-opacity:1;"
         offset="1"
         id="stop3929" />
    </linearGradient>
    <linearGradient
       inkscape:collect="always"
       xlink:href="#linearGradient3884"
       id="linearGradient3890"
       x1="23"
       y1="32.000004"
       x2="23"
       y2="13.000002"
       gradientUnits="userSpaceOnUse" />
    <linearGradient
       id="linearGradient3884">
      <stop
         style="stop-color:#c6c8cc;stop-opacity:1;"
         offset="0"
         id="stop3886" />
      <stop
         style="stop-color:#ecedef;stop-opacity:1;"
         offset="1"
         id="stop3888" />
    </linearGradient>
    <radialGradient
       inkscape:collect="always"
       xlink:href="#linearGradient3901"
       id="radialGradient3984"
       gradientUnits="userSpaceOnUse"
       gradientTransform="matrix(1,0,0,0.95,0,1.125)"
       cx="23"
       cy="22.5"
       fx="23"
       fy="22.5"
       r="10" />
    <linearGradient
       inkscape:collect="always"
       id="linearGradient3901">
      <stop
         style="stop-color:#000000;stop-opacity:1;"
         offset="0"
         id="stop3903" />
      <stop
         style="stop-color:#000000;stop-opacity:0;"
         offset="1"
         id="stop3905" />
    </linearGradient>
    <radialGradient
       inkscape:collect="always"
       xlink:href="#linearGradient3901"
       id="radialGradient3907"
       cx="23"
       cy="22.5"
       fx="23"
       fy="22.5"
       r="10"
       gradientTransform="matrix(1,0,0,0.95,0,1.125)"
       gradientUnits="userSpaceOnUse" />
    <radialGradient
       inkscape:collect="always"
       xlink:href="#linearGradient3915"
       id="radialGradient3921"
       cx="23"
       cy="22.5"
       fx="23"
       fy="22.5"
       r="10"
       gradientTransform="matrix(1,0,0,0.95,0,1.125)"
       gradientUnits="userSpaceOnUse" />
    <linearGradient
       inkscape:collect="always"
       id="linearGradient3915">
      <stop
         style="stop-color:#000000;stop-opacity:1;"
         offset="0"
         id="stop3917" />
      <stop
         style="stop-color:#000000;stop-opacity:0;"
         offset="1"
         id="stop3919" />
    </linearGradient>
    <radialGradient
       inkscape:collect="always"
       xlink:href="#linearGradient3901"
       id="radialGradient4021"
       gradientUnits="userSpaceOnUse"
       gradientTransform="matrix(1,0,0,0.95,0,1.125)"
       cx="23"
       cy="22.5"
       fx="23"
       fy="22.5"
       r="10" />
    <radialGradient
       r="10"
       fy="22.5"
       fx="23"
       cy="22.5"
       cx="23"
       gradientTransform="matrix(1,0,0,0.95,0,1.125)"
       gradientUnits="userSpaceOnUse"
       id="radialGradient3234"
       xlink:href="#linearGradient3901"
       inkscape:collect="always" />
    <linearGradient
       inkscape:collect="always"
       xlink:href="#linearGradient4044"
       id="linearGradient4050"
       x1="24"
       y1="1050.3622"
       x2="24"
       y2="1006.3622"
       gradientUnits="userSpaceOnUse" />
    <linearGradient
       id="linearGradient4044">
      <stop
         style="stop-color:#cecece;stop-opacity:1;"
         offset="0"
         id="stop4046" />
      <stop
         style="stop-color:#f9f9fa;stop-opacity:1;"
         offset="1"
         id="stop4048" />
    </linearGradient>
    <radialGradient
       inkscape:collect="always"
       xlink:href="#linearGradient4095"
       id="radialGradient4101"
       cx="28.5"
       cy="23"
       fx="28.5"
       fy="23"
       r="8.5"
       gradientTransform="matrix(1.7647059,0,0,1.7647059,-26.294118,987.77397)"
       gradientUnits="userSpaceOnUse" />
    <linearGradient
       inkscape:collect="always"
       id="linearGradient4095">
      <stop
         style="stop-color:#000000;stop-opacity:1;"
         offset="0"
         id="stop4097" />
      <stop
         style="stop-color:#000000;stop-opacity:0;"
         offset="1"
         id="stop4099" />
    </linearGradient>
    <radialGradient
       inkscape:collect="always"
       xlink:href="#linearGradient4095"
       id="radialGradient3109"
       cx="28.5"
       cy="23"
       fx="28.5"
       fy="23"
       r="8.5"
       gradientTransform="matrix(1.7647059,0,0,1.7647059,-26.294118,-16.588232)"
       gradientUnits="userSpaceOnUse" />
    <radialGradient
       r="8.5"
       fy="23"
       fx="28.5"
       cy="23"
       cx="28.5"
       gradientTransform="matrix(1.7647059,0,0,1.7647059,-26.294118,987.77397)"
       gradientUnits="userSpaceOnUse"
       id="radialGradient3124"
       xlink:href="#linearGradient4095"
       inkscape:collect="always" />
    <linearGradient
       inkscape:collect="always"
       xlink:href="#linearGradient4044-7"
       id="linearGradient4050-6"
       x1="24"
       y1="1050.3622"
       x2="24"
       y2="1006.3622"
       gradientUnits="userSpaceOnUse" />
    <linearGradient
       id="linearGradient4044-7">
      <stop
         style="stop-color:#c7c2c0;stop-opacity:1;"
         offset="0"
         id="stop4046-9" />
      <stop
         style="stop-color:#f0ece9;stop-opacity:1;"
         offset="1"
         id="stop4048-8" />
    </linearGradient>
    <linearGradient
       gradientTransform="translate(-44,5.0000174)"
       y2="1006.3622"
       x2="24"
       y1="1050.3622"
       x1="24"
       gradientUnits="userSpaceOnUse"
       id="linearGradient3141"
       xlink:href="#linearGradient4044-7"
       inkscape:collect="always" />
    <linearGradient
       gradientTransform="matrix(1.8380415,0,0,1,-14.169491,-1004.3622)"
       inkscape:collect="always"
       xlink:href="#linearGradient4070"
       id="linearGradient4076"
       x1="24"
       y1="1050.3622"
       x2="24"
       y2="1044.3622"
       gradientUnits="userSpaceOnUse" />
    <linearGradient
       id="linearGradient4070">
      <stop
         style="stop-color:#a5a09f;stop-opacity:1;"
         offset="0"
         id="stop4072" />
      <stop
         style="stop-color:#c7c2c0;stop-opacity:1;"
         offset="1"
         id="stop4074" />
    </linearGradient>
    <linearGradient
       inkscape:collect="always"
       xlink:href="#linearGradient4057"
       id="linearGradient4064"
       x1="24"
       y1="2"
       x2="24"
       y2="8"
       gradientUnits="userSpaceOnUse" />
    <linearGradient
       id="linearGradient4057">
      <stop
         style="stop-color:#ffffff;stop-opacity:1;"
         offset="0"
         id="stop4060" />
      <stop
         style="stop-color:#f0ece9;stop-opacity:1;"
         offset="1"
         id="stop4062" />
    </linearGradient>
    <linearGradient
       gradientTransform="matrix(1.8380415,0,0,1,-14.169491,0)"
       y2="8"
       x2="24"
       y1="2"
       x1="24"
       gradientUnits="userSpaceOnUse"
       id="linearGradient3180"
       xlink:href="#linearGradient4057"
       inkscape:collect="always" />
  </defs>
  <sodipodi:namedview
     id="base"
     pagecolor="#ffffff"
     bordercolor="#666666"
     borderopacity="1.0"
     inkscape:pageopacity="0"
     inkscape:pageshadow="2"
     inkscape:zoom="17.213245"
     inkscape:cx="27.416676"
     inkscape:cy="21.726442"
     inkscape:document-units="px"
     inkscape:current-layer="layer1"
     showgrid="true"
     inkscape:window-width="1920"
     inkscape:window-height="1052"
     inkscape:window-x="0"
     inkscape:window-y="28"
     inkscape:window-maximized="1">
    <inkscape:grid
       type="xygrid"
       id="grid3758"
       empspacing="5"
       visible="true"
       enabled="true"
       snapvisiblegridlinesonly="true" />
  </sodipodi:namedview>
  <metadata
     id="metadata7">
    <rdf:RDF>
      <cc:Work
         rdf:about="">
        <dc:format>image/svg+xml</dc:format>
        <dc:type
           rdf:resource="http://purl.org/dc/dcmitype/StillImage" />
        <dc:title></dc:title>
      </cc:Work>
    </rdf:RDF>
  </metadata>
  <g
     inkscape:label="Layer 1"
     inkscape:groupmode="layer"
     id="layer1"
     transform="translate(0,-1004.3622)">
    <path
       sodipodi:type="arc"
       style="opacity:0.2;fill:url(#radialGradient3068);fill-opacity:1;stroke:none"
       id="path3847"
       sodipodi:cx="24"
       sodipodi:cy="42.5"
       sodipodi:rx="24"
       sodipodi:ry="1.5"
       d="M 48,42.5 C 48,43.328427 37.254834,44 24,44 10.745166,44 0,43.328427 0,42.5 0,41.671573 10.745166,41 24,41 c 13.254834,0 24,0.671573 24,1.5 z"
       transform="matrix(1,0,0,2,0,965.3622)" />
    <rect
       style="fill:none;fill-opacity:1;stroke:#000000;stroke-opacity:1;stroke-width:2;stroke-miterlimit:4;stroke-dasharray:none;opacity:0.2"
       id="rect3843"
       width="44"
       height="44"
       x="2"
       y="1006.3622"
       rx="3"
       ry="3" />
    <rect
       ry="3"
       rx="3"
       y="1006.3622"
       x="2"
       height="44"
       width="44"
       id="rect3755"
       style="fill:url(#linearGradient3803);fill-opacity:1.0;stroke:none" />
    <path
       transform="matrix(1.7647059,0,0,1.6666667,-26.294118,991.02887)"
       d="m 37,23 a 8.5,9 0 1 1 -17,0 8.5,9 0 1 1 17,0 z"
       sodipodi:ry="9"
       sodipodi:rx="8.5"
       sodipodi:cy="23"
       sodipodi:cx="28.5"
       id="path4110"
       style="opacity:0.17000002;fill:#ffffff;fill-opacity:1;stroke:none"
       sodipodi:type="arc" />
    <path
       sodipodi:type="arc"
       style="fill:#d0cccb;fill-opacity:1;stroke:none"
       id="path4078"
       sodipodi:cx="28.5"
       sodipodi:cy="23"
       sodipodi:rx="8.5"
       sodipodi:ry="9"
       d="m 37,23 a 8.5,9 0 1 1 -17,0 8.5,9 0 1 1 17,0 z"
       transform="matrix(1.7647059,0,0,1.6666667,-26.294118,990.02887)" />
    <path
       inkscape:connector-curvature="0"
       style="fill:url(#radialGradient3124);fill-opacity:1;stroke:none"
       d="m 24,1013.3622 c -8.284271,0 -15,6.7157 -15,15 0,8.2843 6.715729,15 15,15 8.284271,0 15,-6.7157 15,-15 0,-8.2843 -6.715729,-15 -15,-15 z m 0,1 c 7.731986,0 14,6.268 14,14 0,7.732 -6.268014,14 -14,14 -7.731986,0 -14,-6.268 -14,-14 0,-7.732 6.268014,-14 14,-14 z"
       id="path4090" />
    <path
       inkscape:connector-curvature="0"
       id="path4108"
       d="m 24,1013.3622 c -8.284271,0 -15,6.7157 -15,15 0,8.2843 6.715729,15 15,15 8.284271,0 15,-6.7157 15,-15 0,-8.2843 -6.715729,-15 -15,-15 z m 0,1 c 7.731986,0 14,6.268 14,14 0,7.732 -6.268014,14 -14,14 -7.731986,0 -14,-6.268 -14,-14 0,-7.732 6.268014,-14 14,-14 z"
       style="fill:url(#radialGradient4101);fill-opacity:1;stroke:none" />
    <path
       d="m 21,1035.3622 0,-2 6,0 0,2 c 0,1.5 -1.5,3 -3,3 -1.5,0 -3,-1.5 -3,-3 z m 11,-11 c 0,1.1046 -0.895431,2 -2,2 -1.10457,0 -2,-0.8954 -2,-2 0,-1.1046 0.89543,-2 2,-2 1.104569,0 2,0.8954 2,2 z m -12,0 c 0,1.1046 -0.895431,2 -2,2 -1.10457,0 -2,-0.8954 -2,-2 0,-1.1046 0.89543,-2 2,-2 1.104569,0 2,0.8954 2,2 z"
       style="opacity:0.25;fill:#ffffff;fill-opacity:1;stroke:none"
       id="path4165"
       inkscape:connector-curvature="0" />
    <path
       inkscape:connector-curvature="0"
       id="path4116"
       style="fill:#333333;fill-opacity:1;stroke:none"
       d="m 21,1034.3622 0,-2 6,0 0,2 c 0,1.5 -1.5,3 -3,3 -1.5,0 -3,-1.5 -3,-3 z m 11,-11 c 0,1.1046 -0.895431,2 -2,2 -1.10457,0 -2,-0.8954 -2,-2 0,-1.1046 0.89543,-2 2,-2 1.104569,0 2,0.8954 2,2 z m -12,0 c 0,1.1046 -0.895431,2 -2,2 -1.10457,0 -2,-0.8954 -2,-2 0,-1.1046 0.89543,-2 2,-2 1.104569,0 2,0.8954 2,2 z" />
    <path
       inkscape:connector-curvature="0"
       style="fill:#000000;fill-opacity:1;stroke:none"
       d="m 18,1021.3622 c -1.10457,0 -2,0.8954 -2,2 0,0.1726 0.0214,0.3402 0.0625,0.5 0.221963,-0.8627 1.005519,-1.5 1.9375,-1.5 0.93198,0 1.715537,0.6373 1.9375,1.5 0.0411,-0.1598 0.0625,-0.3274 0.0625,-0.5 0,-1.1046 -0.895431,-2 -2,-2 z m 12,0 c -1.10457,0 -2,0.8954 -2,2 0,0.1726 0.0214,0.3402 0.0625,0.5 0.221963,-0.8627 1.005519,-1.5 1.9375,-1.5 0.93198,0 1.715537,0.6373 1.9375,1.5 0.0411,-0.1598 0.0625,-0.3274 0.0625,-0.5 0,-1.1046 -0.895431,-2 -2,-2 z m -9,11 0,1 6,0 0,-1 -6,0 z"
       id="path4167" />
    <path
       style="opacity:0.40000000000000002;fill:url(#linearGradient3180);fill-opacity:1;stroke:none"
       d="M 7.875 2 C 6.4986375 2 5.1644014 2.0959587 3.875 2.25 C 3.8659762 2.2537002 3.8527289 2.2462148 3.84375 2.25 C 2.7662813 2.7042187 2 3.7535 2 5 L 2 8 L 46 8 L 46 5 C 46 3.338 44.662 2 43 2 L 7.875 2 z "
       transform="translate(0,1004.3622)"
       id="rect4052" />
    <path
       style="opacity:0.40000000000000002;fill:url(#linearGradient4076);fill-opacity:1;stroke:none"
       d="M 2 40 L 2 43 C 2 44.2465 2.7662813 45.295781 3.84375 45.75 C 3.8539675 45.751231 3.8647761 45.748779 3.875 45.75 C 5.1644014 45.904041 6.4986375 46 7.875 46 L 43 46 C 44.662 46 46 44.662 46 43 L 46 40 L 2 40 z "
       transform="translate(0,1004.3622)"
       id="path4066" />
  </g>
</svg>
