<?xml version="1.0" encoding="UTF-8" standalone="no"?>
<!-- Created with Inkscape (http://www.inkscape.org/) -->

<svg
   xmlns:dc="http://purl.org/dc/elements/1.1/"
   xmlns:cc="http://creativecommons.org/ns#"
   xmlns:rdf="http://www.w3.org/1999/02/22-rdf-syntax-ns#"
   xmlns:svg="http://www.w3.org/2000/svg"
   xmlns="http://www.w3.org/2000/svg"
   xmlns:xlink="http://www.w3.org/1999/xlink"
   xmlns:sodipodi="http://sodipodi.sourceforge.net/DTD/sodipodi-0.dtd"
   xmlns:inkscape="http://www.inkscape.org/namespaces/inkscape"
   width="48"
   height="48"
   id="svg2"
   version="1.1"
   inkscape:version="0.48.5 r10040"
   sodipodi:docname="google-music.svg">
  <defs
     id="defs4">
    <linearGradient
       id="linearGradient3865">
      <stop
         style="stop-color:#eac643;stop-opacity:1;"
         offset="0"
         id="stop3867" />
      <stop
         style="stop-color:#f3d769;stop-opacity:1;"
         offset="1"
         id="stop3869" />
    </linearGradient>
    <linearGradient
       id="linearGradient3857">
      <stop
         style="stop-color:#e3a309;stop-opacity:1;"
         offset="0"
         id="stop3859" />
      <stop
         style="stop-color:#f0b70b;stop-opacity:1;"
         offset="1"
         id="stop3861" />
    </linearGradient>
    <linearGradient
       inkscape:collect="always"
       id="linearGradient3846">
      <stop
         style="stop-color:#000000;stop-opacity:1;"
         offset="0"
         id="stop3849" />
      <stop
         style="stop-color:#000000;stop-opacity:0;"
         offset="1"
         id="stop3852" />
    </linearGradient>
    <linearGradient
       id="linearGradient3830">
      <stop
         style="stop-color:#3b3b3b;stop-opacity:1;"
         offset="0"
         id="stop3832" />
      <stop
         style="stop-color:#1a1a1a;stop-opacity:1;"
         offset="1"
         id="stop3834" />
    </linearGradient>
    <linearGradient
       id="linearGradient3818">
      <stop
         style="stop-color:#dadad8;stop-opacity:1;"
         offset="0"
         id="stop3820" />
      <stop
         style="stop-color:#efefef;stop-opacity:1;"
         offset="1"
         id="stop3822" />
    </linearGradient>
    <linearGradient
       id="linearGradient3956">
      <stop
         style="stop-color:#f8f4e1;stop-opacity:1;"
         offset="0"
         id="stop3958" />
      <stop
         style="stop-color:#eae5c8;stop-opacity:1;"
         offset="1"
         id="stop3960" />
    </linearGradient>
    <linearGradient
       id="linearGradient3915">
      <stop
         style="stop-color:#f8f4e1;stop-opacity:1;"
         offset="0"
         id="stop3917" />
      <stop
         style="stop-color:#ad9e57;stop-opacity:1;"
         offset="1"
         id="stop3919" />
    </linearGradient>
    <linearGradient
       inkscape:collect="always"
       id="linearGradient3861">
      <stop
         style="stop-color:#000000;stop-opacity:1;"
         offset="0"
         id="stop3863" />
      <stop
         style="stop-color:#000000;stop-opacity:0;"
         offset="1"
         id="stop3865" />
    </linearGradient>
    <linearGradient
       id="linearGradient3844">
      <stop
         style="stop-color:#000000;stop-opacity:0.39215687;"
         offset="0"
         id="stop3846" />
      <stop
         style="stop-color:#000000;stop-opacity:0;"
         offset="1"
         id="stop3848" />
    </linearGradient>
    <linearGradient
       id="linearGradient3810">
      <stop
         style="stop-color:#f2c66f;stop-opacity:1;"
         offset="0"
         id="stop3812" />
      <stop
         style="stop-color:#fbd68f;stop-opacity:1;"
         offset="1"
         id="stop3814" />
    </linearGradient>
    <linearGradient
       inkscape:collect="always"
       xlink:href="#linearGradient3810"
       id="linearGradient3816"
       x1="24"
       y1="1046.3622"
       x2="24"
       y2="1014.3622"
       gradientUnits="userSpaceOnUse" />
    <linearGradient
       inkscape:collect="always"
       xlink:href="#linearGradient3810"
       id="linearGradient3856"
       gradientUnits="userSpaceOnUse"
       x1="24"
       y1="1046.3622"
       x2="24"
       y2="1014.3622"
       gradientTransform="translate(0,-3)" />
    <linearGradient
       inkscape:collect="always"
       xlink:href="#linearGradient3810"
       id="linearGradient3858"
       gradientUnits="userSpaceOnUse"
       x1="24"
       y1="1046.3622"
       x2="24"
       y2="1014.3622"
       gradientTransform="translate(0,-1004.3622)" />
    <linearGradient
       inkscape:collect="always"
       xlink:href="#linearGradient3861"
       id="linearGradient3867"
       x1="1.9952808"
       y1="28.5625"
       x2="46.004719"
       y2="28.5625"
       gradientUnits="userSpaceOnUse" />
    <linearGradient
       inkscape:collect="always"
       xlink:href="#linearGradient3915"
       id="linearGradient3921"
       x1="35"
       y1="8"
       x2="38"
       y2="5"
       gradientUnits="userSpaceOnUse" />
    <linearGradient
       inkscape:collect="always"
       xlink:href="#linearGradient3915"
       id="linearGradient3933"
       gradientUnits="userSpaceOnUse"
       x1="35"
       y1="8"
       x2="38"
       y2="5"
       gradientTransform="matrix(1.0436562,0,0,1.2222222,26.301501,1003.2511)" />
    <linearGradient
       x1="20"
       y1="26.000008"
       x2="20"
       y2="13.000008"
       id="linearGradient3018-5"
       xlink:href="#linearGradient3680-6-6-6-3-7"
       gradientUnits="userSpaceOnUse"
       gradientTransform="translate(0,0.9999922)" />
    <linearGradient
       id="linearGradient3680-6-6-6-3-7">
      <stop
         id="stop3682-4-6-1-3-7"
         style="stop-color:#d2eecc;stop-opacity:1;"
         offset="0" />
      <stop
         id="stop3684-8-5-8-0-2"
         style="stop-color:#ecffe7;stop-opacity:1;"
         offset="1" />
    </linearGradient>
    <linearGradient
       inkscape:collect="always"
       xlink:href="#linearGradient3846"
       id="linearGradient3854"
       x1="23"
       y1="12"
       x2="23"
       y2="15"
       gradientUnits="userSpaceOnUse"
       gradientTransform="translate(0,1006.3622)" />
  </defs>
  <sodipodi:namedview
     id="base"
     pagecolor="#ffffff"
     bordercolor="#666666"
     borderopacity="1.0"
     inkscape:pageopacity="0.0"
     inkscape:pageshadow="2"
     inkscape:zoom="17.611238"
     inkscape:cx="26.596727"
     inkscape:cy="27.747834"
     inkscape:document-units="px"
     inkscape:current-layer="layer1"
     showgrid="true"
     inkscape:window-width="1920"
     inkscape:window-height="1052"
     inkscape:window-x="0"
     inkscape:window-y="28"
     inkscape:window-maximized="1">
    <inkscape:grid
       type="xygrid"
       id="grid2990"
       empspacing="5"
       visible="true"
       enabled="true"
       snapvisiblegridlinesonly="true" />
  </sodipodi:namedview>
  <metadata
     id="metadata7">
    <rdf:RDF>
      <cc:Work
         rdf:about="">
        <dc:format>image/svg+xml</dc:format>
        <dc:type
           rdf:resource="http://purl.org/dc/dcmitype/StillImage" />
        <dc:title />
      </cc:Work>
    </rdf:RDF>
  </metadata>
  <g
     inkscape:label="Body"
     inkscape:groupmode="layer"
     id="layer1"
     transform="translate(0,-1004.3622)">
    <g
       id="g3972"
       style="fill:none;fill-opacity:1;stroke:#000000;stroke-opacity:1;stroke-width:2;stroke-miterlimit:4;stroke-dasharray:none;opacity:0.15">
      <path
         style="fill:none;fill-opacity:1;stroke:#000000;stroke-opacity:1;stroke-width:2;stroke-miterlimit:4;stroke-dasharray:none"
         d="M 23.15625,8 C 17.544003,8 12,11 10.0625,16 L 12,17 c 2.570912,-3.650018 6.778592,-7 11.21875,-7 l 1.5625,0 C 29.225376,10 33.429229,13.344377 36,17 l 1.9375,-1 C 36,11 30.455997,8 24.84375,8 z"
         transform="translate(0,1004.3622)"
         id="path3960"
         inkscape:connector-curvature="0"
         sodipodi:nodetypes="sccssccss" />
      <path
         style="fill:none;fill-opacity:1;stroke:#000000;stroke-opacity:1;stroke-width:2;stroke-miterlimit:4;stroke-dasharray:none"
         d="m 13,1030.3622 c -3.865993,0 -7,3.134 -7,7 0,3.866 3.134007,7 7,7 l 0,-14 z"
         id="path3962"
         inkscape:connector-curvature="0" />
      <rect
         style="fill:none;fill-opacity:1;stroke:#000000;stroke-opacity:1;stroke-width:2;stroke-miterlimit:4;stroke-dasharray:none"
         id="rect3964"
         width="3"
         height="16"
         x="13"
         y="1029.3622"
         rx="1"
         ry="1" />
      <path
         id="path3966"
         d="m 35,1030.3622 c 3.865993,0 7,3.134 7,7 0,3.866 -3.134007,7 -7,7 l 0,-14 z"
         style="fill:none;fill-opacity:1;stroke:#000000;stroke-opacity:1;stroke-width:2;stroke-miterlimit:4;stroke-dasharray:none"
         inkscape:connector-curvature="0" />
      <rect
         ry="1"
         rx="1"
         transform="scale(-1,1)"
         y="1029.3622"
         x="-35"
         height="16"
         width="3"
         id="rect3968"
         style="fill:none;fill-opacity:1;stroke:#000000;stroke-opacity:1;stroke-width:2;stroke-miterlimit:4;stroke-dasharray:none" />
      <path
         style="opacity:1;fill:none;fill-opacity:1;stroke:#000000;stroke-opacity:1;stroke-width:2;stroke-miterlimit:4;stroke-dasharray:none"
         d="M 23 5 C 13.028 5 5 13.028 5 23 L 5 25 C 5 27.879999 5.6823245 30.590862 6.875 33 L 9.59375 33 C 8.5893917 30.849 8 28.41505 8 25.84375 L 8 24.0625 C 8 15.1588 14.758776 8 23.15625 8 L 24.84375 8 C 33.241224 8 40 15.1588 40 24.0625 L 40 25.84375 C 40 28.41505 39.410608 30.849 38.40625 33 L 41.125 33 C 42.317675 30.590862 43 27.879999 43 25 L 43 23 C 43 13.028 34.972 5 25 5 L 23 5 z "
         id="path3970"
         transform="translate(0,1004.3622)" />
    </g>
    <path
       style="fill:#fdbd5b;fill-opacity:1;stroke:none"
       d="M 23.15625,6 C 17.544003,6 12,11 10.0625,16 L 12,17 c 2.570912,-3.650018 6.778592,-7 11.21875,-7 l 1.5625,0 C 29.225376,10 33.429229,13.344377 36,17 l 1.9375,-1 C 36,11 30.455997,6 24.84375,6 z"
       transform="translate(0,1004.3622)"
       id="rect3896"
       inkscape:connector-curvature="0"
       sodipodi:nodetypes="sccssccss" />
    <path
       style="fill:#e67413;fill-opacity:1;stroke:none"
       d="m 13,1030.3622 c -3.865993,0 -7,3.134 -7,7 0,3.866 3.134007,7 7,7 l 0,-14 z"
       id="path3878"
       inkscape:connector-curvature="0" />
    <rect
       style="fill:#fdbd5b;fill-opacity:1;stroke:none"
       id="rect3883"
       width="3"
       height="16"
       x="13"
       y="1029.3622"
       rx="1"
       ry="1" />
    <path
       id="path3885"
       d="m 35,1030.3622 c 3.865993,0 7,3.134 7,7 0,3.866 -3.134007,7 -7,7 l 0,-14 z"
       style="fill:#e67413;fill-opacity:1;stroke:none"
       inkscape:connector-curvature="0" />
    <rect
       ry="1"
       rx="1"
       transform="scale(-1,1)"
       y="1029.3622"
       x="-35"
       height="16"
       width="3"
       id="rect3887"
       style="fill:#fdbd5b;fill-opacity:1;stroke:none" />
    <path
       style="opacity:1;fill:#e67413;fill-opacity:1;stroke:none"
       d="M 23 5 C 13.028 5 5 13.028 5 23 L 5 25 C 5 27.879999 5.6823245 30.590862 6.875 33 L 9.59375 33 C 8.5893917 30.849 8 28.41505 8 25.84375 L 8 24.0625 C 8 15.1588 14.758776 8 23.15625 8 L 24.84375 8 C 33.241224 8 40 15.1588 40 24.0625 L 40 25.84375 C 40 28.41505 39.410608 30.849 38.40625 33 L 41.125 33 C 42.317675 30.590862 43 27.879999 43 25 L 43 23 C 43 13.028 34.972 5 25 5 L 23 5 z "
       id="rect3849"
       transform="translate(0,1004.3622)" />
  </g>
</svg>
