<?xml version="1.0" encoding="UTF-8" standalone="no"?>
<svg
   xmlns:dc="http://purl.org/dc/elements/1.1/"
   xmlns:cc="http://creativecommons.org/ns#"
   xmlns:rdf="http://www.w3.org/1999/02/22-rdf-syntax-ns#"
   xmlns:svg="http://www.w3.org/2000/svg"
   xmlns="http://www.w3.org/2000/svg"
   xmlns:xlink="http://www.w3.org/1999/xlink"
   xmlns:sodipodi="http://sodipodi.sourceforge.net/DTD/sodipodi-0.dtd"
   xmlns:inkscape="http://www.inkscape.org/namespaces/inkscape"
   width="48"
   viewBox="0 0 13.546667 13.546667"
   height="48"
   id="svg2"
   version="1.1"
   inkscape:version="0.48.5 r10040"
   sodipodi:docname="chrome.svg"
   inkscape:export-filename="/home/me4oslav/Documents/Phyllo/chrome.png"
   inkscape:export-xdpi="900"
   inkscape:export-ydpi="900">
  <metadata
     id="metadata36">
    <rdf:RDF>
      <cc:Work
         rdf:about="">
        <dc:format>image/svg+xml</dc:format>
        <dc:type
           rdf:resource="http://purl.org/dc/dcmitype/StillImage" />
        <dc:title />
      </cc:Work>
    </rdf:RDF>
  </metadata>
  <sodipodi:namedview
     pagecolor="#333333"
     bordercolor="#666666"
     borderopacity="1"
     objecttolerance="10"
     gridtolerance="10"
     guidetolerance="10"
     inkscape:pageopacity="0"
     inkscape:pageshadow="2"
     inkscape:window-width="1920"
     inkscape:window-height="1052"
     id="namedview34"
     showgrid="true"
     inkscape:zoom="28.924023"
     inkscape:cx="27.573737"
     inkscape:cy="37.82594"
     inkscape:window-x="0"
     inkscape:window-y="28"
     inkscape:window-maximized="1"
     inkscape:current-layer="svg2"
     showguides="true"
     inkscape:guide-bbox="true">
    <inkscape:grid
       type="xygrid"
       id="grid3772"
       empspacing="5"
       visible="true"
       enabled="true"
       snapvisiblegridlinesonly="true" />
  </sodipodi:namedview>
  <defs
     id="defs4">
    <linearGradient
       id="linearGradient3771">
      <stop
         style="stop-color:#000000;stop-opacity:1;"
         offset="0"
         id="stop3773" />
      <stop
         style="stop-color:#000000;stop-opacity:0.29411766;"
         offset="1"
         id="stop3775" />
    </linearGradient>
    <linearGradient
       id="linearGradient3923">
      <stop
         offset="0"
         style="stop-color:#fff;stop-opacity:.059"
         id="stop7" />
      <stop
         offset="1"
         style="stop-opacity:.059"
         id="stop9" />
    </linearGradient>
    <linearGradient
       xlink:href="#linearGradient3923"
       id="linearGradient3929"
       x1="-40.5"
       x2="41.5"
       gradientUnits="userSpaceOnUse" />
    <linearGradient
       id="linearGradient4460">
      <stop
         offset="0"
         style="stop-color:#dedede"
         id="stop13" />
      <stop
         offset="1"
         style="stop-color:#efefef"
         id="stop15" />
    </linearGradient>
    <linearGradient
       gradientTransform="matrix(1.10525 0 0 1.10525 -134.27874 -295.76183)"
       xlink:href="#linearGradient4460"
       id="linearGradient3061"
       y1="279.096"
       y2="268.33"
       gradientUnits="userSpaceOnUse"
       x2="0" />
    <linearGradient
       inkscape:collect="always"
       xlink:href="#linearGradient4460"
       id="linearGradient2996"
       gradientUnits="userSpaceOnUse"
       gradientTransform="matrix(1.10525,0,0,1.10525,-134.27874,-295.76183)"
       y1="279.096"
       x2="0"
       y2="268.33" />
    <linearGradient
       inkscape:collect="always"
       xlink:href="#linearGradient3771"
       id="linearGradient3777"
       x1="-33.772728"
       y1="20.204546"
       x2="-33.772728"
       y2="10.795454"
       gradientUnits="userSpaceOnUse" />
    <linearGradient
       gradientTransform="translate(2.0669291e-7,-1.2696874e-6)"
       inkscape:collect="always"
       xlink:href="#linearGradient4208"
       id="linearGradient4214"
       x1="10"
       y1="44.999981"
       x2="14"
       y2="2"
       gradientUnits="userSpaceOnUse" />
    <linearGradient
       id="linearGradient4208">
      <stop
         style="stop-color:#70a3d6;stop-opacity:1;"
         offset="0"
         id="stop4210" />
      <stop
         style="stop-color:#88b6e1;stop-opacity:1;"
         offset="1"
         id="stop4212" />
    </linearGradient>
    <linearGradient
       gradientTransform="translate(2.0669291e-7,-1.2696874e-6)"
       inkscape:collect="always"
       xlink:href="#linearGradient4216"
       id="linearGradient4222"
       x1="35"
       y1="45.999981"
       x2="39"
       y2="9"
       gradientUnits="userSpaceOnUse" />
    <linearGradient
       id="linearGradient4216">
      <stop
         style="stop-color:#a0c4e6;stop-opacity:1;"
         offset="0"
         id="stop4218" />
      <stop
         style="stop-color:#d0e2f1;stop-opacity:1;"
         offset="1"
         id="stop4220" />
    </linearGradient>
    <linearGradient
       inkscape:collect="always"
       xlink:href="#linearGradient4192"
       id="linearGradient4198"
       x1="23"
       y1="19"
       x2="27"
       y2="1.999983"
       gradientUnits="userSpaceOnUse" />
    <linearGradient
       id="linearGradient4192">
      <stop
         style="stop-color:#4970a4;stop-opacity:1;"
         offset="0"
         id="stop4194" />
      <stop
         style="stop-color:#6090c0;stop-opacity:1;"
         offset="1"
         id="stop4196" />
    </linearGradient>
    <linearGradient
       gradientTransform="translate(2.0669291e-7,-1.2696874e-6)"
       y2="1.999983"
       x2="27"
       y1="19"
       x1="23"
       gradientUnits="userSpaceOnUse"
       id="linearGradient3092"
       xlink:href="#linearGradient4192"
       inkscape:collect="always" />
  </defs>
  <path
     sodipodi:type="arc"
     style="opacity:0.14999999999999999;fill:none;fill-opacity:1;stroke:url(#linearGradient3777);stroke-opacity:1;stroke-width:0.43121968999999999;stroke-miterlimit:4;stroke-dasharray:none"
     id="path3001"
     sodipodi:cx="-34"
     sodipodi:cy="15.5"
     sodipodi:rx="5"
     sodipodi:ry="4.5"
     d="m -29,15.5 a 5,4.5 0 1 1 -10,0 5,4.5 0 1 1 10,0 z"
     transform="matrix(1.2417778,0,0,1.3797531,48.993779,-14.612839)" />
  <path
     sodipodi:type="arc"
     style="fill:#ffffff;fill-opacity:1;stroke:none"
     id="path3770"
     sodipodi:cx="-17.167969"
     sodipodi:cy="18.561832"
     sodipodi:rx="9.8470926"
     sodipodi:ry="8.5066509"
     d="m -7.3208761,18.561832 a 9.8470926,8.5066509 0 1 1 -19.6941849,0 9.8470926,8.5066509 0 1 1 19.6941849,0 z"
     transform="matrix(0.34392555,0,0,0.39811987,12.677837,-0.61650082)" />
  <circle
     cx="0.5"
     cy="0.5"
     style="fill:#25abd9;fill-opacity:1"
     r="41"
     d="m 41.5,0.5 c 0,22.643675 -18.356325,41 -41,41 -22.643675,0 -41,-18.356325 -41,-41 0,-22.643675 18.356325,-41 41,-41 22.643675,0 41,18.356325 41,41 z"
     transform="matrix(0.05506775,0,0,0.05506775,6.7457995,6.7457997)"
     id="circle24"
     sodipodi:cx="0.5"
     sodipodi:cy="0.5"
     sodipodi:rx="41"
     sodipodi:ry="41" />
  <path
     style="fill:#e04d2b;fill-opacity:1;fill-rule:nonzero;stroke:none;display:inline"
     d="M 24 2 C 17.423971 2 11.531428 4.8951259 7.5 9.46875 L 14.375 21.3125 C 15.552956 17.101036 19.412551 14 24 14 C 27.715478 14 30.932111 16.023438 32.65625 19.03125 L 45.4375 19 C 43.174266 9.2576186 34.431052 2 24 2 z "
     transform="scale(0.28222223,0.28222223)"
     id="path4003" />
  <path
     style="fill:#f9db46;fill-opacity:1;fill-rule:nonzero;stroke:none;display:inline"
     d="M 31.125 17 C 32.897696 18.804415 34 21.270668 34 24 C 34 29.522848 29.522847 34 24 34 C 23.989578 34 23.979164 34.000032 23.96875 34 L 16.8125 44.78125 C 19.067077 45.561171 21.480201 46 24 46 C 36.150267 46 46 36.150264 46 24 C 46 21.549236 45.583267 19.20162 44.84375 17 L 31.125 17 z "
     transform="scale(0.28222223,0.28222223)"
     id="path4005" />
  <path
     style="fill:#000000;fill-opacity:1;stroke:none;opacity:0.1"
     d="M 9.09375 7.84375 C 8.9511137 7.9754515 8.8266209 8.1146237 8.6875 8.25 L 14.90625 19.84375 C 15.770351 17.954465 17.216282 16.413582 19 15.375 L 9.09375 7.84375 z "
     transform="scale(0.28222223,0.28222223)"
     id="path3857" />
  <path
     style="fill:#71d375;fill-opacity:1;fill-rule:nonzero;stroke:none;display:inline"
     d="M 8.8125 8.09375 C 4.6192162 12.099633 2 17.742917 2 24 C 2 34.541848 9.4138765 43.352228 19.3125 45.5 L 26.46875 33.6875 C 25.675389 33.890037 24.856451 34 24 34 C 18.477153 34 14 29.522848 14 24 C 14 22.19263 14.505054 20.49438 15.34375 19.03125 L 8.8125 8.09375 z "
     transform="scale(0.28222223,0.28222223)"
     id="path4007" />
  <path
     style="fill:#000000;fill-opacity:1;stroke:none;opacity:0.1"
     d="M 31.125 17 C 32.239831 18.134779 33.085381 19.534636 33.5625 21.09375 L 44.84375 17.0625 C 44.837502 17.043739 44.850045 17.01874 44.84375 17 L 31.125 17 z "
     transform="scale(0.28222223,0.28222223)"
     id="path3846" />
  <path
     style="fill:#000000;fill-opacity:1;stroke:none;opacity:0.1"
     d="M 26.46875 33.6875 C 25.675389 33.890037 24.856451 34 24 34 C 23.254279 34 22.542894 33.904805 21.84375 33.75 L 19.125 45.4375 C 19.189942 45.452214 19.247341 45.485862 19.3125 45.5 L 26.46875 33.6875 z "
     transform="scale(0.28222223,0.28222223)"
     id="path3851" />
</svg>
