<?xml version="1.0" encoding="UTF-8" standalone="no"?>
<svg
   xmlns:dc="http://purl.org/dc/elements/1.1/"
   xmlns:cc="http://creativecommons.org/ns#"
   xmlns:rdf="http://www.w3.org/1999/02/22-rdf-syntax-ns#"
   xmlns:svg="http://www.w3.org/2000/svg"
   xmlns="http://www.w3.org/2000/svg"
   xmlns:xlink="http://www.w3.org/1999/xlink"
   xmlns:sodipodi="http://sodipodi.sourceforge.net/DTD/sodipodi-0.dtd"
   xmlns:inkscape="http://www.inkscape.org/namespaces/inkscape"
   width="48"
   viewBox="0 0 13.546667 13.546667"
   height="48"
   id="svg2"
   version="1.1"
   inkscape:version="0.48.5 r10040"
   sodipodi:docname="info.svg"
   inkscape:export-filename="/home/me4oslav/Documents/Phyllo/chrome.png"
   inkscape:export-xdpi="900"
   inkscape:export-ydpi="900">
  <metadata
     id="metadata36">
    <rdf:RDF>
      <cc:Work
         rdf:about="">
        <dc:format>image/svg+xml</dc:format>
        <dc:type
           rdf:resource="http://purl.org/dc/dcmitype/StillImage" />
        <dc:title></dc:title>
      </cc:Work>
    </rdf:RDF>
  </metadata>
  <sodipodi:namedview
     pagecolor="#333333"
     bordercolor="#666666"
     borderopacity="1"
     objecttolerance="10"
     gridtolerance="10"
     guidetolerance="10"
     inkscape:pageopacity="0"
     inkscape:pageshadow="2"
     inkscape:window-width="1920"
     inkscape:window-height="1052"
     id="namedview34"
     showgrid="true"
     inkscape:zoom="19.071194"
     inkscape:cx="12.750789"
     inkscape:cy="22.276482"
     inkscape:window-x="0"
     inkscape:window-y="28"
     inkscape:window-maximized="1"
     inkscape:current-layer="svg2"
     showguides="true"
     inkscape:guide-bbox="true">
    <inkscape:grid
       type="xygrid"
       id="grid3772"
       empspacing="5"
       visible="true"
       enabled="true"
       snapvisiblegridlinesonly="true" />
  </sodipodi:namedview>
  <defs
     id="defs4">
    <linearGradient
       id="linearGradient3835">
      <stop
         style="stop-color:#ffe4e7;stop-opacity:1;"
         offset="0"
         id="stop3838" />
      <stop
         style="stop-color:#fef3f1;stop-opacity:1;"
         offset="1"
         id="stop3840" />
    </linearGradient>
    <linearGradient
       inkscape:collect="always"
       id="linearGradient3877">
      <stop
         style="stop-color:#000000;stop-opacity:1;"
         offset="0"
         id="stop3879" />
      <stop
         style="stop-color:#000000;stop-opacity:0;"
         offset="1"
         id="stop3881" />
    </linearGradient>
    <linearGradient
       id="linearGradient3845">
      <stop
         style="stop-color:#de321c;stop-opacity:1;"
         offset="0"
         id="stop3847" />
      <stop
         style="stop-color:#ff4035;stop-opacity:1;"
         offset="1"
         id="stop3849" />
    </linearGradient>
    <linearGradient
       id="linearGradient3833">
      <stop
         style="stop-color:#cccccc;stop-opacity:1;"
         offset="0"
         id="stop3835" />
      <stop
         style="stop-color:#ffffff;stop-opacity:1;"
         offset="1"
         id="stop3837" />
    </linearGradient>
    <linearGradient
       id="linearGradient3820">
      <stop
         style="stop-color:#dadada;stop-opacity:1;"
         offset="0"
         id="stop3822" />
      <stop
         style="stop-color:#fbfbfb;stop-opacity:1;"
         offset="1"
         id="stop3824" />
    </linearGradient>
    <linearGradient
       id="linearGradient3806">
      <stop
         style="stop-color:#e9425a;stop-opacity:1;"
         offset="0"
         id="stop3808" />
      <stop
         style="stop-color:#e95e42;stop-opacity:1;"
         offset="1"
         id="stop3810" />
    </linearGradient>
    <linearGradient
       id="linearGradient3771">
      <stop
         style="stop-color:#000000;stop-opacity:1;"
         offset="0"
         id="stop3773" />
      <stop
         style="stop-color:#000000;stop-opacity:0.29411766;"
         offset="1"
         id="stop3775" />
    </linearGradient>
    <linearGradient
       id="linearGradient3923">
      <stop
         offset="0"
         style="stop-color:#fff;stop-opacity:.059"
         id="stop7" />
      <stop
         offset="1"
         style="stop-opacity:.059"
         id="stop9" />
    </linearGradient>
    <linearGradient
       xlink:href="#linearGradient3923"
       id="linearGradient3929"
       x1="-40.5"
       x2="41.5"
       gradientUnits="userSpaceOnUse" />
    <linearGradient
       id="linearGradient4460">
      <stop
         offset="0"
         style="stop-color:#dedede"
         id="stop13" />
      <stop
         offset="1"
         style="stop-color:#efefef"
         id="stop15" />
    </linearGradient>
    <linearGradient
       gradientTransform="matrix(1.10525 0 0 1.10525 -134.27874 -295.76183)"
       xlink:href="#linearGradient4460"
       id="linearGradient3061"
       y1="279.096"
       y2="268.33"
       gradientUnits="userSpaceOnUse"
       x2="0" />
    <linearGradient
       inkscape:collect="always"
       xlink:href="#linearGradient4460"
       id="linearGradient2996"
       gradientUnits="userSpaceOnUse"
       gradientTransform="matrix(1.10525,0,0,1.10525,-134.27874,-295.76183)"
       y1="279.096"
       x2="0"
       y2="268.33" />
    <linearGradient
       gradientTransform="translate(2.0669291e-7,-1.2696874e-6)"
       inkscape:collect="always"
       xlink:href="#linearGradient4208"
       id="linearGradient4214"
       x1="10"
       y1="44.999981"
       x2="14"
       y2="2"
       gradientUnits="userSpaceOnUse" />
    <linearGradient
       id="linearGradient4208">
      <stop
         style="stop-color:#70a3d6;stop-opacity:1;"
         offset="0"
         id="stop4210" />
      <stop
         style="stop-color:#88b6e1;stop-opacity:1;"
         offset="1"
         id="stop4212" />
    </linearGradient>
    <linearGradient
       gradientTransform="translate(2.0669291e-7,-1.2696874e-6)"
       inkscape:collect="always"
       xlink:href="#linearGradient4216"
       id="linearGradient4222"
       x1="35"
       y1="45.999981"
       x2="39"
       y2="9"
       gradientUnits="userSpaceOnUse" />
    <linearGradient
       id="linearGradient4216">
      <stop
         style="stop-color:#a0c4e6;stop-opacity:1;"
         offset="0"
         id="stop4218" />
      <stop
         style="stop-color:#d0e2f1;stop-opacity:1;"
         offset="1"
         id="stop4220" />
    </linearGradient>
    <linearGradient
       inkscape:collect="always"
       xlink:href="#linearGradient4192"
       id="linearGradient4198"
       x1="23"
       y1="19"
       x2="27"
       y2="1.999983"
       gradientUnits="userSpaceOnUse" />
    <linearGradient
       id="linearGradient4192">
      <stop
         style="stop-color:#4970a4;stop-opacity:1;"
         offset="0"
         id="stop4194" />
      <stop
         style="stop-color:#6090c0;stop-opacity:1;"
         offset="1"
         id="stop4196" />
    </linearGradient>
    <linearGradient
       gradientTransform="translate(2.0669291e-7,-1.2696874e-6)"
       y2="1.999983"
       x2="27"
       y1="19"
       x1="23"
       gradientUnits="userSpaceOnUse"
       id="linearGradient3092"
       xlink:href="#linearGradient4192"
       inkscape:collect="always" />
    <linearGradient
       inkscape:collect="always"
       xlink:href="#linearGradient4524"
       id="linearGradient3812"
       x1="12.73392"
       y1="39"
       x2="12.73392"
       y2="28"
       gradientUnits="userSpaceOnUse" />
    <linearGradient
       inkscape:collect="always"
       xlink:href="#linearGradient3833"
       id="linearGradient3864"
       gradientUnits="userSpaceOnUse"
       x1="12.73392"
       y1="28"
       x2="12.73392"
       y2="39"
       gradientTransform="matrix(3.228208,0,0,3.0909092,-17.107743,-79.54546)" />
    <linearGradient
       inkscape:collect="always"
       xlink:href="#linearGradient3833"
       id="linearGradient3868"
       gradientUnits="userSpaceOnUse"
       x1="12.73392"
       y1="28"
       x2="12.73392"
       y2="39" />
    <radialGradient
       inkscape:collect="always"
       xlink:href="#linearGradient3877"
       id="radialGradient3883"
       cx="12.73392"
       cy="33.5"
       fx="12.73392"
       fy="33.5"
       r="5.2660794"
       gradientTransform="matrix(1,0,0,1.0444203,0,-1.4880784)"
       gradientUnits="userSpaceOnUse" />
    <linearGradient
       gradientTransform="matrix(0.28222223,0,0,0.28222223,-1.5833335e-8,-283.45333)"
       inkscape:collect="always"
       xlink:href="#linearGradient3868-2"
       id="linearGradient3899"
       gradientUnits="userSpaceOnUse"
       x1="24"
       y1="1015.3622"
       x2="24"
       y2="1039.3622" />
    <linearGradient
       id="linearGradient3868-2">
      <stop
         style="stop-color:#022a57;stop-opacity:1;"
         offset="0"
         id="stop3870" />
      <stop
         style="stop-color:#052e5c;stop-opacity:1;"
         offset="1"
         id="stop3872" />
    </linearGradient>
    <linearGradient
       inkscape:collect="always"
       xlink:href="#linearGradient4524"
       id="linearGradient4530"
       x1="24"
       y1="46"
       x2="24"
       y2="2"
       gradientUnits="userSpaceOnUse" />
    <linearGradient
       id="linearGradient4524">
      <stop
         style="stop-color:#0e92d2;stop-opacity:1;"
         offset="0"
         id="stop4526" />
      <stop
         style="stop-color:#2cc4f2;stop-opacity:1;"
         offset="1"
         id="stop4528" />
    </linearGradient>
  </defs>
  <path
     sodipodi:type="arc"
     style="opacity:0.15;fill:none;fill-opacity:1;stroke:#000000;stroke-opacity:1;stroke-width:0.43121968999999999;stroke-miterlimit:4;stroke-dasharray:none"
     id="path3001"
     sodipodi:cx="-34"
     sodipodi:cy="15.5"
     sodipodi:rx="5"
     sodipodi:ry="4.5"
     d="m -29,15.5 a 5,4.5 0 1 1 -10,0 5,4.5 0 1 1 10,0 z"
     transform="matrix(1.2417778,0,0,1.3797531,48.993779,-14.612839)" />
  <path
     sodipodi:type="arc"
     style="opacity:1;fill:url(#linearGradient3812);fill-opacity:1.0;stroke:none"
     id="path3017"
     sodipodi:cx="12.73392"
     sodipodi:cy="33.5"
     sodipodi:rx="5.2660794"
     sodipodi:ry="5.5"
     d="M 18,33.5 A 5.2660794,5.5 0 1 1 7.4678407,33.5 5.2660794,5.5 0 1 1 18,33.5 z"
     transform="matrix(1.1790344,0,0,1.1288889,-8.2403966,-31.044445)" />
  <g
     style="opacity:0.3;fill:#ffffff;fill-opacity:1;display:inline"
     id="g3876"
     transform="matrix(0.28222223,0,0,0.28222223,-1.5833335e-8,-283.17117)">
    <path
       id="path3878"
       d="m 21.887845,1016.2436 c 0.591113,-0.5881 1.299276,-0.8814 2.119592,-0.8814 0.821101,0 1.523782,0.2933 2.112547,0.8814 0.586416,0.5908 0.880016,1.2981 0.880016,2.1262 0,0.8283 -0.296927,1.5337 -0.888628,2.1178 -0.591309,0.5832 -1.292229,0.8746 -2.103935,0.8746 -0.818751,0 -1.526913,-0.2905 -2.119592,-0.8746 C 21.295948,1019.9037 21,1019.1981 21,1018.3698 c 0,-0.8281 0.295948,-1.5354 0.887845,-2.1262 z"
       inkscape:connector-curvature="0"
       style="fill:#ffffff;fill-opacity:1" />
    <path
       id="path3880"
       d="M 29.996863,1039.3624 19,1039.3622 l 0,-1 c 0.999718,0 2.999155,0 2.999155,-2 l 0,-9 c 0,-2 -0.999718,-2 -2.999155,-2 l 0,-1 7.997746,-1 0,13 c 0,2 1.999437,2 2.999155,2 l 0.0031,0.9996 -0.0031,0 0,4e-4 z"
       inkscape:connector-curvature="0"
       style="fill:#ffffff;fill-opacity:1"
       sodipodi:nodetypes="cccccccccccccc" />
  </g>
  <path
     inkscape:connector-curvature="0"
     id="path3108"
     style="fill:url(#linearGradient3899);fill-opacity:1;display:inline"
     d="m 8.4657816,9.8778336 -3.1035592,-5.64e-5 0,-0.2822222 c 0.2821427,0 0.8464282,0 0.8464282,-0.5644445 l 0,-2.5400001 C 6.2086506,5.926666 5.926508,5.926666 5.3622224,5.926666 l 0,-0.2822222 2.2571417,-0.2822223 0,3.668889 c 0,0.5644445 0.5642856,0.5644445 0.8464282,0.5644445 l 8.749e-4,0.2821093 -8.749e-4,0 0,1.129e-4 z M 6.1772365,3.3531944 C 6.3440617,3.1872195 6.543921,3.1044437 6.7754324,3.1044437 c 0.231733,0 0.4300452,0.082776 0.5962078,0.2487507 0.1654996,0.1667369 0.24836,0.3663527 0.24836,0.6000609 0,0.2337646 -0.083799,0.4328442 -0.2507905,0.5976902 -0.1668806,0.164592 -0.3646958,0.2468316 -0.5937773,0.2468316 -0.2310697,0 -0.4309287,-0.081986 -0.5981959,-0.2468316 C 6.01019,4.386156 5.9266669,4.1870199 5.9266669,3.9532553 c 0,-0.2337082 0.083523,-0.433324 0.2505696,-0.6000609 z" />
  <path
     inkscape:connector-curvature="0"
     style="opacity:0.2;fill:#ffffff;fill-opacity:1;display:inline"
     d="m 6.7733335,3.1044437 c -0.2315114,0 -0.4328969,0.08097 -0.5997222,0.2469445 -0.1670464,0.1667369 -0.2469444,0.366014 -0.2469444,0.5997222 0,0.049315 0.010205,0.094876 0.017639,0.1411111 C 5.9721099,3.9191234 6.0418049,3.7651725 6.1736114,3.6336104 6.3404367,3.4676355 6.5418222,3.386666 6.7733336,3.386666 c 0.231733,0 0.4335597,0.08097 0.5997223,0.2469444 0.1305859,0.1315621 0.2017282,0.285513 0.2293055,0.4586111 0.00745,-0.046232 0.017639,-0.091797 0.017639,-0.1411111 0,-0.2337082 -0.081445,-0.4329853 -0.2469444,-0.5997222 C 7.2068932,3.1854133 7.0050665,3.1044437 6.7733335,3.1044437 z m 0.8466667,2.2577778 -2.2577778,0.2822223 0,0.2822222 2.2577778,-0.2822222 0,-0.2822223 z m -1.4111111,3.668889 c 0,0.5644445 -0.564524,0.5644445 -0.8466667,0.5644445 l 0,0.2822222 c 0.2821427,0 0.8466667,0 0.8466667,-0.5644445 l 0,-0.2822222 z m 1.4111111,0 0,0.2822222 c 0,0.5644445 0.5645241,0.5644445 0.8466667,0.5644445 l 0,-0.2822222 c -0.2821426,0 -0.8466667,0 -0.8466667,-0.5644445 z"
     id="path3905" />
  <g
     transform="matrix(0.28222223,0,0,0.28222223,-1.1666667e-8,-283.45333)"
     style="opacity:0.15;fill:#ffffff;fill-opacity:1;display:inline"
     id="g3888">
    <path
       id="path3890"
       d="m 21.887845,1016.2436 c 0.591113,-0.5881 1.299276,-0.8814 2.119592,-0.8814 0.821101,0 1.523782,0.2933 2.112547,0.8814 0.586416,0.5908 0.880016,1.2981 0.880016,2.1262 0,0.8283 -0.296927,1.5337 -0.888628,2.1178 -0.591309,0.5832 -1.292229,0.8746 -2.103935,0.8746 -0.818751,0 -1.526913,-0.2905 -2.119592,-0.8746 C 21.295948,1019.9037 21,1019.1981 21,1018.3698 c 0,-0.8281 0.295948,-1.5354 0.887845,-2.1262 z"
       inkscape:connector-curvature="0"
       style="fill:#ffffff;fill-opacity:1" />
    <path
       id="path3892"
       d="M 29.996863,1039.3624 19,1039.3622 l 0,-1 c 0.999718,0 2.999155,0 2.999155,-2 l 0,-9 c 0,-2 -0.999718,-2 -2.999155,-2 l 0,-1 7.997746,-1 0,13 c 0,2 1.999437,2 2.999155,2 l 0.0031,0.9996 -0.0031,0 0,4e-4 z"
       inkscape:connector-curvature="0"
       style="fill:#ffffff;fill-opacity:1"
       sodipodi:nodetypes="cccccccccccccc" />
  </g>
</svg>
