<?xml version="1.0" encoding="UTF-8" standalone="no"?>
<!-- Created with Inkscape (http://www.inkscape.org/) -->

<svg
   xmlns:dc="http://purl.org/dc/elements/1.1/"
   xmlns:cc="http://creativecommons.org/ns#"
   xmlns:rdf="http://www.w3.org/1999/02/22-rdf-syntax-ns#"
   xmlns:svg="http://www.w3.org/2000/svg"
   xmlns="http://www.w3.org/2000/svg"
   xmlns:xlink="http://www.w3.org/1999/xlink"
   xmlns:sodipodi="http://sodipodi.sourceforge.net/DTD/sodipodi-0.dtd"
   xmlns:inkscape="http://www.inkscape.org/namespaces/inkscape"
   width="48"
   height="48"
   id="svg2"
   version="1.1"
   inkscape:version="0.48.5 r10040"
   sodipodi:docname="pcloud.svg">
  <defs
     id="defs4">
    <linearGradient
       id="linearGradient3865">
      <stop
         style="stop-color:#eac643;stop-opacity:1;"
         offset="0"
         id="stop3867" />
      <stop
         style="stop-color:#f3d769;stop-opacity:1;"
         offset="1"
         id="stop3869" />
    </linearGradient>
    <linearGradient
       id="linearGradient3857">
      <stop
         style="stop-color:#e3a309;stop-opacity:1;"
         offset="0"
         id="stop3859" />
      <stop
         style="stop-color:#f0b70b;stop-opacity:1;"
         offset="1"
         id="stop3861" />
    </linearGradient>
    <linearGradient
       inkscape:collect="always"
       id="linearGradient3846">
      <stop
         style="stop-color:#000000;stop-opacity:1;"
         offset="0"
         id="stop3849" />
      <stop
         style="stop-color:#000000;stop-opacity:0;"
         offset="1"
         id="stop3852" />
    </linearGradient>
    <linearGradient
       id="linearGradient3830">
      <stop
         style="stop-color:#3b3b3b;stop-opacity:1;"
         offset="0"
         id="stop3832" />
      <stop
         style="stop-color:#1a1a1a;stop-opacity:1;"
         offset="1"
         id="stop3834" />
    </linearGradient>
    <linearGradient
       id="linearGradient3818">
      <stop
         style="stop-color:#dadad8;stop-opacity:1;"
         offset="0"
         id="stop3820" />
      <stop
         style="stop-color:#efefef;stop-opacity:1;"
         offset="1"
         id="stop3822" />
    </linearGradient>
    <linearGradient
       id="linearGradient3956">
      <stop
         style="stop-color:#f8f4e1;stop-opacity:1;"
         offset="0"
         id="stop3958" />
      <stop
         style="stop-color:#eae5c8;stop-opacity:1;"
         offset="1"
         id="stop3960" />
    </linearGradient>
    <linearGradient
       id="linearGradient3915">
      <stop
         style="stop-color:#f8f4e1;stop-opacity:1;"
         offset="0"
         id="stop3917" />
      <stop
         style="stop-color:#ad9e57;stop-opacity:1;"
         offset="1"
         id="stop3919" />
    </linearGradient>
    <linearGradient
       inkscape:collect="always"
       id="linearGradient3861">
      <stop
         style="stop-color:#000000;stop-opacity:1;"
         offset="0"
         id="stop3863" />
      <stop
         style="stop-color:#000000;stop-opacity:0;"
         offset="1"
         id="stop3865" />
    </linearGradient>
    <linearGradient
       id="linearGradient3844">
      <stop
         style="stop-color:#000000;stop-opacity:0.39215687;"
         offset="0"
         id="stop3846" />
      <stop
         style="stop-color:#000000;stop-opacity:0;"
         offset="1"
         id="stop3848" />
    </linearGradient>
    <linearGradient
       id="linearGradient3810">
      <stop
         style="stop-color:#f2c66f;stop-opacity:1;"
         offset="0"
         id="stop3812" />
      <stop
         style="stop-color:#fbd68f;stop-opacity:1;"
         offset="1"
         id="stop3814" />
    </linearGradient>
    <linearGradient
       inkscape:collect="always"
       xlink:href="#linearGradient3810"
       id="linearGradient3816"
       x1="24"
       y1="1046.3622"
       x2="24"
       y2="1014.3622"
       gradientUnits="userSpaceOnUse" />
    <linearGradient
       inkscape:collect="always"
       xlink:href="#linearGradient3810"
       id="linearGradient3856"
       gradientUnits="userSpaceOnUse"
       x1="24"
       y1="1046.3622"
       x2="24"
       y2="1014.3622"
       gradientTransform="translate(0,-3)" />
    <linearGradient
       inkscape:collect="always"
       xlink:href="#linearGradient3810"
       id="linearGradient3858"
       gradientUnits="userSpaceOnUse"
       x1="24"
       y1="1046.3622"
       x2="24"
       y2="1014.3622"
       gradientTransform="translate(0,-1004.3622)" />
    <linearGradient
       inkscape:collect="always"
       xlink:href="#linearGradient3861"
       id="linearGradient3867"
       x1="1.9952808"
       y1="28.5625"
       x2="46.004719"
       y2="28.5625"
       gradientUnits="userSpaceOnUse" />
    <linearGradient
       inkscape:collect="always"
       xlink:href="#linearGradient3915"
       id="linearGradient3921"
       x1="35"
       y1="8"
       x2="38"
       y2="5"
       gradientUnits="userSpaceOnUse" />
    <linearGradient
       inkscape:collect="always"
       xlink:href="#linearGradient3915"
       id="linearGradient3933"
       gradientUnits="userSpaceOnUse"
       x1="35"
       y1="8"
       x2="38"
       y2="5"
       gradientTransform="matrix(1.0436562,0,0,1.2222222,26.301501,1003.2511)" />
    <linearGradient
       x1="20"
       y1="26.000008"
       x2="20"
       y2="13.000008"
       id="linearGradient3018-5"
       xlink:href="#linearGradient3680-6-6-6-3-7"
       gradientUnits="userSpaceOnUse"
       gradientTransform="translate(0,0.9999922)" />
    <linearGradient
       id="linearGradient3680-6-6-6-3-7">
      <stop
         id="stop3682-4-6-1-3-7"
         style="stop-color:#d2eecc;stop-opacity:1;"
         offset="0" />
      <stop
         id="stop3684-8-5-8-0-2"
         style="stop-color:#ecffe7;stop-opacity:1;"
         offset="1" />
    </linearGradient>
    <linearGradient
       inkscape:collect="always"
       xlink:href="#linearGradient3846"
       id="linearGradient3854"
       x1="23"
       y1="12"
       x2="23"
       y2="15"
       gradientUnits="userSpaceOnUse"
       gradientTransform="translate(0,1006.3622)" />
  </defs>
  <sodipodi:namedview
     id="base"
     pagecolor="#ffffff"
     bordercolor="#666666"
     borderopacity="1.0"
     inkscape:pageopacity="0"
     inkscape:pageshadow="2"
     inkscape:zoom="32.86"
     inkscape:cx="26.714424"
     inkscape:cy="23.657942"
     inkscape:document-units="px"
     inkscape:current-layer="layer1"
     showgrid="true"
     inkscape:window-width="1920"
     inkscape:window-height="1052"
     inkscape:window-x="0"
     inkscape:window-y="28"
     inkscape:window-maximized="1">
    <inkscape:grid
       type="xygrid"
       id="grid2990"
       empspacing="5"
       visible="true"
       enabled="true"
       snapvisiblegridlinesonly="true" />
  </sodipodi:namedview>
  <metadata
     id="metadata7">
    <rdf:RDF>
      <cc:Work
         rdf:about="">
        <dc:format>image/svg+xml</dc:format>
        <dc:type
           rdf:resource="http://purl.org/dc/dcmitype/StillImage" />
        <dc:title></dc:title>
      </cc:Work>
    </rdf:RDF>
  </metadata>
  <g
     inkscape:label="Body"
     inkscape:groupmode="layer"
     id="layer1"
     transform="translate(0,-1004.3622)">
    <path
       inkscape:connector-curvature="0"
       d="m 27.28125,1030.1435 c -1.238353,0.9894 -2.725893,1.6808 -4.34375,2 -0.397002,5.1592 -4.676457,9.2187 -9.9375,9.2187 l 23,0 c -4.970563,0 -9,-4.0294 -9,-9 0,-0.7649 0.101662,-1.5097 0.28125,-2.2187 z m 11.6875,-6.25 c -0.271458,3.6178 -3.281468,6.4687 -6.96875,6.4687 -1.392735,0 -2.690817,-0.3926 -3.78125,-1.0937 -0.295637,0.3094 -0.603855,0.6058 -0.9375,0.875 -0.179588,0.709 -0.28125,1.4538 -0.28125,2.2187 0,4.9706 4.029437,9 9,9 4.970563,0 9,-4.0294 9,-9 0,-3.9289 -2.521364,-7.241 -6.03125,-8.4687 z M 32,1016.3622 c -0.941503,0 -1.836268,0.1942 -2.65625,0.5313 1.030624,1.5726 1.65625,3.448 1.65625,5.4687 0,2.6812 -1.063485,5.1106 -2.78125,6.9063 1.090433,0.7011 2.388515,1.0937 3.78125,1.0937 3.865993,0 7,-3.134 7,-7 0,-3.866 -3.134007,-7 -7,-7 z m -1,6 c 0,5.5228 -4.477152,10 -10,10 -5.522847,0 -10,-4.4772 -10,-10 0,-5.5229 4.477153,-10 10,-10 5.522848,0 10,4.4771 10,10 z m -20,-0.7812 c -4.5568313,0.9324 -8,4.9487 -8,9.7812 0,5.5228 4.4771525,10 10,10 5.261043,0 9.540498,-4.0595 9.9375,-9.2187 -0.631906,0.1251 -1.268849,0.2187 -1.9375,0.2187 -5.522847,0 -10,-4.4772 -10,-10 0,-0.2618 0.04274,-0.5245 0.0625,-0.7812 -0.02051,0 -0.04203,-0 -0.0625,0 z"
       style="fill:none;fill-opacity:1;stroke:#000000;stroke-opacity:1;stroke-width:2;stroke-miterlimit:4;stroke-dasharray:none;opacity:0.1"
       id="path3959" />
    <path
       id="path3930"
       style="fill:#17bed0;fill-opacity:1;stroke:none"
       d="m 27.28125,1030.1435 c -1.238353,0.9894 -2.725893,1.6808 -4.34375,2 -0.397002,5.1592 -4.676457,9.2187 -9.9375,9.2187 l 23,0 c -4.970563,0 -9,-4.0294 -9,-9 0,-0.7649 0.101662,-1.5097 0.28125,-2.2187 z m 11.6875,-6.25 c -0.271458,3.6178 -3.281468,6.4687 -6.96875,6.4687 -1.392735,0 -2.690817,-0.3926 -3.78125,-1.0937 -0.295637,0.3094 -0.603855,0.6058 -0.9375,0.875 -0.179588,0.709 -0.28125,1.4538 -0.28125,2.2187 0,4.9706 4.029437,9 9,9 4.970563,0 9,-4.0294 9,-9 0,-3.9289 -2.521364,-7.241 -6.03125,-8.4687 z M 32,1016.3622 c -0.941503,0 -1.836268,0.1942 -2.65625,0.5313 1.030624,1.5726 1.65625,3.448 1.65625,5.4687 0,2.6812 -1.063485,5.1106 -2.78125,6.9063 1.090433,0.7011 2.388515,1.0937 3.78125,1.0937 3.865993,0 7,-3.134 7,-7 0,-3.866 -3.134007,-7 -7,-7 z m -1,6 c 0,5.5228 -4.477152,10 -10,10 -5.522847,0 -10,-4.4772 -10,-10 0,-5.5229 4.477153,-10 10,-10 5.522848,0 10,4.4771 10,10 z m -20,-0.7812 c -4.5568313,0.9324 -8,4.9487 -8,9.7812 0,5.5228 4.4771525,10 10,10 5.261043,0 9.540498,-4.0595 9.9375,-9.2187 -0.631906,0.1251 -1.268849,0.2187 -1.9375,0.2187 -5.522847,0 -10,-4.4772 -10,-10 0,-0.2618 0.04274,-0.5245 0.0625,-0.7812 -0.02051,0 -0.04203,-0 -0.0625,0 z"
       inkscape:connector-curvature="0" />
    <path
       style="fill:#ffffff;fill-opacity:1;stroke:none"
       d="M 24 14 C 18.477153 14 14 18.477153 14 24 C 14 29.522847 18.477153 34 24 34 C 29.522847 34 34 29.522847 34 24 C 34 18.477153 29.522847 14 24 14 z M 24 16 C 28.418278 16 32 19.581722 32 24 C 32 28.418278 28.418278 32 24 32 C 19.581722 32 16 28.418278 16 24 C 16 19.581722 19.581722 16 24 16 z "
       transform="translate(0,1004.3622)"
       id="path3961" />
    <rect
       style="fill:#ffffff;fill-opacity:1;stroke:none"
       id="rect3968"
       width="2"
       height="11"
       x="21"
       y="1023.3622"
       rx="0.96956784"
       ry="1" />
    <text
       xml:space="preserve"
       style="font-size:40px;font-style:normal;font-weight:normal;line-height:125%;letter-spacing:0px;word-spacing:0px;fill:#000000;fill-opacity:1;stroke:none;font-family:Sans"
       x="23.219721"
       y="26.271456"
       id="text3970"
       sodipodi:linespacing="125%"
       transform="translate(0,1004.3622)"><tspan
         sodipodi:role="line"
         id="tspan3972"></tspan></text>
    <path
       style="fill:#ffffff;fill-opacity:1;stroke:none"
       d="m 21,1023.3622 6,0 c 3,0 3,7 0,7 l -6,0 0,-2 5,0 c 2,0 2,-3 0,-3 l -5,0 z"
       id="path3974"
       inkscape:connector-curvature="0"
       sodipodi:nodetypes="ccccccccc" />
  </g>
</svg>
