<?xml version="1.0" encoding="UTF-8" standalone="no"?>
<svg
   xmlns:dc="http://purl.org/dc/elements/1.1/"
   xmlns:cc="http://creativecommons.org/ns#"
   xmlns:rdf="http://www.w3.org/1999/02/22-rdf-syntax-ns#"
   xmlns:svg="http://www.w3.org/2000/svg"
   xmlns="http://www.w3.org/2000/svg"
   xmlns:xlink="http://www.w3.org/1999/xlink"
   xmlns:sodipodi="http://sodipodi.sourceforge.net/DTD/sodipodi-0.dtd"
   xmlns:inkscape="http://www.inkscape.org/namespaces/inkscape"
   viewBox="0 0 48 48"
   id="svg2"
   version="1.1"
   inkscape:version="0.48.5 r10040"
   width="100%"
   height="100%"
   sodipodi:docname="preferences-system-search.svg">
  <metadata
     id="metadata77">
    <rdf:RDF>
      <cc:Work
         rdf:about="">
        <dc:format>image/svg+xml</dc:format>
        <dc:type
           rdf:resource="http://purl.org/dc/dcmitype/StillImage" />
        <dc:title></dc:title>
      </cc:Work>
    </rdf:RDF>
  </metadata>
  <sodipodi:namedview
     pagecolor="#ffffff"
     bordercolor="#666666"
     borderopacity="1"
     objecttolerance="10"
     gridtolerance="10"
     guidetolerance="10"
     inkscape:pageopacity="0"
     inkscape:pageshadow="2"
     inkscape:window-width="1920"
     inkscape:window-height="1052"
     id="namedview75"
     showgrid="true"
     inkscape:zoom="12.980659"
     inkscape:cx="32.781815"
     inkscape:cy="29.890597"
     inkscape:window-x="0"
     inkscape:window-y="28"
     inkscape:window-maximized="1"
     inkscape:current-layer="svg2"
     showguides="true"
     inkscape:guide-bbox="true">
    <inkscape:grid
       type="xygrid"
       id="grid3054" />
  </sodipodi:namedview>
  <defs
     id="defs4">
    <linearGradient
       id="linearGradient3991">
      <stop
         style="stop-color:#3183a8;stop-opacity:1;"
         offset="0"
         id="stop3993" />
      <stop
         style="stop-color:#5eadd9;stop-opacity:1;"
         offset="1"
         id="stop3995" />
    </linearGradient>
    <linearGradient
       id="linearGradient3974">
      <stop
         style="stop-color:#a9a9a9;stop-opacity:1;"
         offset="0"
         id="stop3976" />
      <stop
         style="stop-color:#c3c3c3;stop-opacity:1;"
         offset="1"
         id="stop3978" />
    </linearGradient>
    <linearGradient
       id="linearGradient3960">
      <stop
         style="stop-color:#d3d3d3;stop-opacity:1;"
         offset="0"
         id="stop3962" />
      <stop
         style="stop-color:#ededed;stop-opacity:1;"
         offset="1"
         id="stop3964" />
    </linearGradient>
    <linearGradient
       inkscape:collect="always"
       id="linearGradient3929">
      <stop
         style="stop-color:#000000;stop-opacity:1;"
         offset="0"
         id="stop3931" />
      <stop
         style="stop-color:#000000;stop-opacity:0;"
         offset="1"
         id="stop3933" />
    </linearGradient>
    <linearGradient
       id="linearGradient3764"
       x1="1"
       x2="47"
       gradientUnits="userSpaceOnUse"
       gradientTransform="matrix(0,-1,1,0,-1.5e-6,47.999998)">
      <stop
         stop-color="#e4e4e4"
         stop-opacity="1"
         id="stop7" />
      <stop
         offset="1"
         stop-color="#eee"
         stop-opacity="1"
         id="stop9" />
    </linearGradient>
    <clipPath
       id="clipPath-276974882">
      <g
         transform="translate(0,-1004.3622)"
         id="g12">
        <path
           d="m -24 13 c 0 1.105 -0.672 2 -1.5 2 -0.828 0 -1.5 -0.895 -1.5 -2 0 -1.105 0.672 -2 1.5 -2 0.828 0 1.5 0.895 1.5 2 z"
           transform="matrix(15.333333,0,0,11.5,414.99999,878.8622)"
           fill="#1890d0"
           id="path14" />
      </g>
    </clipPath>
    <clipPath
       id="clipPath-286367143">
      <g
         transform="translate(0,-1004.3622)"
         id="g17">
        <path
           d="m -24 13 c 0 1.105 -0.672 2 -1.5 2 -0.828 0 -1.5 -0.895 -1.5 -2 0 -1.105 0.672 -2 1.5 -2 0.828 0 1.5 0.895 1.5 2 z"
           transform="matrix(15.333333,0,0,11.5,414.99999,878.8622)"
           fill="#1890d0"
           id="path19" />
      </g>
    </clipPath>
    <linearGradient
       inkscape:collect="always"
       xlink:href="#linearGradient3929"
       id="linearGradient3935"
       x1="35"
       y1="10"
       x2="25"
       y2="20"
       gradientUnits="userSpaceOnUse" />
    <linearGradient
       inkscape:collect="always"
       xlink:href="#linearGradient3960"
       id="linearGradient3966"
       x1="22"
       y1="43"
       x2="22"
       y2="5"
       gradientUnits="userSpaceOnUse" />
    <linearGradient
       inkscape:collect="always"
       xlink:href="#linearGradient3974"
       id="linearGradient3980"
       x1="31"
       y1="38"
       x2="31"
       y2="20"
       gradientUnits="userSpaceOnUse"
       gradientTransform="translate(-2,-1)" />
    <linearGradient
       inkscape:collect="always"
       xlink:href="#linearGradient3991"
       id="linearGradient3997"
       x1="7"
       y1="23"
       x2="11"
       y2="23"
       gradientUnits="userSpaceOnUse"
       gradientTransform="matrix(0.66666667,0,0,0.8,-6.5453463,36.532504)" />
  </defs>
  <g
     id="g4017"
     style="fill:none;stroke:#000000;stroke-opacity:1;stroke-width:2;stroke-miterlimit:4;stroke-dasharray:none;opacity:0.4">
    <path
       style="opacity:1;fill:none;fill-opacity:1;stroke:#000000;stroke-opacity:1;stroke-width:2;stroke-miterlimit:4;stroke-dasharray:none"
       d="M 9 5 C 7.892 5 7 5.892 7 7 L 7 41 C 7 42.108 7.892 43 9 43 L 39 43 C 40.108 43 41 42.108 41 41 L 41 15 L 31 5 L 9 5 z "
       id="path4013" />
    <rect
       style="fill:none;fill-opacity:1;stroke:#000000;stroke-opacity:1;stroke-width:2;stroke-miterlimit:4;stroke-dasharray:none"
       id="rect4015"
       width="4"
       height="16"
       x="-1.8786796"
       y="46.932503"
       rx="1.5"
       ry="1.5"
       transform="matrix(0.70710678,-0.70710678,0.70710678,0.70710678,0,0)" />
  </g>
  <path
     style="opacity:1;fill:url(#linearGradient3966);fill-opacity:1;stroke:none"
     d="M 9 5 C 7.892 5 7 5.892 7 7 L 7 41 C 7 42.108 7.892 43 9 43 L 39 43 C 40.108 43 41 42.108 41 41 L 41 15 L 31 5 L 9 5 z "
     id="rect3848" />
  <path
     d="m 12,13 13,0 c 0.554,0 1,0.446 1,1 l 0,1 c 0,0.554 -0.446,1 -1,1 l -13,0 c -0.554,0 -1,-0.446 -1,-1 l 0,-1 c 0,-0.554 0.446,-1 1,-1 z m 0,24 11,0 c 0.554,0 1,0.446 1,1 l 0,1 c 0,0.554 -0.446,1 -1,1 l -11,0 c -0.554,0 -1,-0.446 -1,-1 l 0,-1 c 0,-0.554 0.446,-1 1,-1 z m 0,-6 24,0 c 0.554,0 1,0.446 1,1 l 0,1 c 0,0.554 -0.446,1 -1,1 l -24,0 c -0.554,0 -1,-0.446 -1,-1 l 0,-1 c 0,-0.554 0.446,-1 1,-1 z m 0,-6 24,0 c 0.554,0 1,0.446 1,1 l 0,1 c 0,0.554 -0.446,1 -1,1 l -24,0 c -0.554,0 -1,-0.446 -1,-1 l 0,-1 c 0,-0.554 0.446,-1 1,-1 z m 0,-6 24,0 c 0.554,0 1,0.446 1,1 l 0,1 c 0,0.554 -0.446,1 -1,1 l -24,0 c -0.554,0 -1,-0.446 -1,-1 l 0,-1 c 0,-0.554 0.446,-1 1,-1 z"
     style="fill:#ffffff;fill-opacity:1;stroke:none;opacity:0.3"
     id="path3958"
     inkscape:connector-curvature="0" />
  <path
     id="rect3945"
     style="fill:#cdcdcd;fill-opacity:1;stroke:none"
     d="m 12,12 13,0 c 0.554,0 1,0.446 1,1 l 0,1 c 0,0.554 -0.446,1 -1,1 l -13,0 c -0.554,0 -1,-0.446 -1,-1 l 0,-1 c 0,-0.554 0.446,-1 1,-1 z m 0,24 11,0 c 0.554,0 1,0.446 1,1 l 0,1 c 0,0.554 -0.446,1 -1,1 l -11,0 c -0.554,0 -1,-0.446 -1,-1 l 0,-1 c 0,-0.554 0.446,-1 1,-1 z m 0,-6 24,0 c 0.554,0 1,0.446 1,1 l 0,1 c 0,0.554 -0.446,1 -1,1 l -24,0 c -0.554,0 -1,-0.446 -1,-1 l 0,-1 c 0,-0.554 0.446,-1 1,-1 z m 0,-6 24,0 c 0.554,0 1,0.446 1,1 l 0,1 c 0,0.554 -0.446,1 -1,1 l -24,0 c -0.554,0 -1,-0.446 -1,-1 l 0,-1 c 0,-0.554 0.446,-1 1,-1 z m 0,-6 24,0 c 0.554,0 1,0.446 1,1 l 0,1 c 0,0.554 -0.446,1 -1,1 l -24,0 c -0.554,0 -1,-0.446 -1,-1 l 0,-1 c 0,-0.554 0.446,-1 1,-1 z" />
  <path
     style="fill:#000000;fill-opacity:1;stroke:none;opacity:0.1"
     d="M 12 12 C 11.446 12 11 12.446 11 13 L 11 14 C 11 13.446 11.446 13 12 13 L 25 13 C 25.554 13 26 13.446 26 14 L 26 13 C 26 12.446 25.554 12 25 12 L 12 12 z M 12 18 C 11.446 18 11 18.446 11 19 L 11 20 C 11 19.446 11.446 19 12 19 L 36 19 C 36.554 19 37 19.446 37 20 L 37 19 C 37 18.446 36.554 18 36 18 L 12 18 z M 12 24 C 11.446 24 11 24.446 11 25 L 11 26 C 11 25.446 11.446 25 12 25 L 36 25 C 36.554 25 37 25.446 37 26 L 37 25 C 37 24.446 36.554 24 36 24 L 12 24 z M 12 30 C 11.446 30 11 30.446 11 31 L 11 32 C 11 31.446 11.446 31 12 31 L 36 31 C 36.554 31 37 31.446 37 32 L 37 31 C 37 30.446 36.554 30 36 30 L 12 30 z M 12 36 C 11.446 36 11 36.446 11 37 L 11 38 C 11 37.446 11.446 37 12 37 L 23 37 C 23.554 37 24 37.446 24 38 L 24 37 C 24 36.446 23.554 36 23 36 L 12 36 z "
     id="path3953" />
  <path
     style="fill:url(#linearGradient3935);fill-opacity:1;stroke:none;opacity:0.1"
     d="m 31,5 -10,11 9,8 11,-9 z"
     id="path3927"
     inkscape:connector-curvature="0"
     sodipodi:nodetypes="ccccc" />
  <path
     style="fill:#bdbdbd;fill-opacity:1;stroke:none"
     d="M 41,15 31,5 l 0,8 c 0,1.108 0.892,2 2,2 l 8,0 z"
     id="rect3921"
     inkscape:connector-curvature="0" />
  <path
     sodipodi:type="arc"
     style="opacity:0.3;fill:#ffffff;fill-opacity:1;stroke:none"
     id="path3982"
     sodipodi:cx="29.5"
     sodipodi:cy="28"
     sodipodi:rx="3.5"
     sodipodi:ry="4"
     d="m 33,28 a 3.5,4 0 1 1 -7,0 3.5,4 0 1 1 7,0 z"
     transform="matrix(1.4285714,0,0,1.25,-13.142856,-7)" />
  <rect
     style="fill:url(#linearGradient3997);fill-opacity:1;stroke:none"
     id="rect3989"
     width="4"
     height="16"
     x="-1.8786796"
     y="46.932503"
     rx="1.5"
     ry="1.5"
     transform="matrix(0.70710678,-0.70710678,0.70710678,0.70710678,0,0)" />
  <path
     style="fill:url(#linearGradient3980);fill-opacity:1;stroke:none"
     d="m 29,19 c -4.970563,0 -9,4.029437 -9,9 0,4.970563 4.029437,9 9,9 4.970563,0 9,-4.029437 9,-9 0,-4.970563 -4.029437,-9 -9,-9 z m 0,3 c 3.313708,0 6,2.686292 6,6 0,3.313708 -2.686292,6 -6,6 -3.313708,0 -6,-2.686292 -6,-6 0,-3.313708 2.686292,-6 6,-6 z"
     id="path3968"
     inkscape:connector-curvature="0" />
  <path
     style="opacity:0.5;fill:#ffffff;fill-opacity:1;stroke:none"
     d="M 29 24 C 26.790861 24 25 25.790861 25 28 C 25 28.345951 25.073685 28.679835 25.15625 29 C 25.600922 27.275691 27.136812 26 29 26 C 30.863188 26 32.399078 27.275691 32.84375 29 C 32.926315 28.679835 33 28.345951 33 28 C 33 25.790861 31.209139 24 29 24 z "
     id="path3984" />
</svg>
