<!-- color: #6c6c6c -->
<svg xmlns="http://www.w3.org/2000/svg" width="48" height="48" viewBox="0 0 48 48">
 <g>
  <path d="M 22.695312 37 C 17 36.332031 13.761719 32.210938 14.011719 27.183594 C 14.601562 23.148438 17.257812 20.226562 21 19 C 19.296875 21.648438 17.753906 24.953125 19.214844 28.347656 C 21.824219 32.71875 27.074219 33.109375 30.46875 31.386719 C 31.609375 30.804688 32.359375 30.234375 33.039062 29.433594 C 33.9375 28.375 34 27.464844 34 28 C 33.671875 33.992188 28 37 22.695312 37 Z M 22.695312 37 " fill="#ececec"/>
  <path d="M 22 21 L 26 19.5 L 26 28.484375 L 22 30 Z M 22 21 " fill="#ececec"/>
  <path d="M 27 25 L 29.5 22 L 32 25 L 29.5 28 Z M 27 25 " fill="#ececec"/>
  <path d="M 18.164062 12.085938 C 19.753906 11.640625 22.167969 11.984375 25.257812 13 C 28.382812 14.027344 29.175781 14.039062 30.035156 13.359375 C 30.617188 12.390625 30.375 12 30.375 11 C 31.242188 11.011719 33.054688 11.949219 33.554688 12.949219 C 34.738281 15.308594 33.484375 17.898438 30.757812 18.714844 C 29.351562 19.132812 28.054688 18.941406 24.105469 17.71875 C 21.746094 16.835938 19.117188 16 17.070312 17 C 16.042969 18 15.019531 19 15.019531 20 C 12.972656 17 13.996094 13 18.164062 12.085938 Z M 18.164062 12.085938 " fill="#ececec"/>
 </g>
</svg>
