<!-- color: #efefef -->
<svg xmlns="http://www.w3.org/2000/svg" width="48" height="48" viewBox="0 0 48 48">
 <g>
  <path d="M 24 15 C 23.15625 15 22.285156 15.089844 21.4375 15.25 C 19.773438 15.566406 18.191406 16.21875 16.6875 17.03125 C 14.339844 18.304688 12.183594 20.0625 10.3125 22.03125 C 9.96875 22.394531 9.628906 22.761719 9.3125 23.15625 C 8.894531 23.683594 8.894531 24.316406 9.3125 24.84375 C 10.273438 26.046875 11.40625 27.113281 12.5625 28.09375 C 15.058594 30.203125 17.914062 31.976562 21.0625 32.6875 C 22.039062 32.90625 23.023438 33 24 33 C 24.992188 33 25.964844 32.90625 26.9375 32.6875 C 30.089844 31.976562 32.945312 30.203125 35.4375 28.09375 C 36.597656 27.113281 37.730469 26.046875 38.6875 24.84375 C 39.109375 24.316406 39.109375 23.683594 38.6875 23.15625 C 38.375 22.761719 38.035156 22.394531 37.6875 22.03125 C 35.820312 20.0625 33.664062 18.304688 31.3125 17.03125 C 29.8125 16.21875 28.199219 15.566406 26.53125 15.25 C 25.6875 15.089844 24.871094 15 24 15 Z M 24 17 C 27.867188 17 31 20.132812 31 24 C 31 27.867188 27.867188 31 24 31 C 20.136719 31 17 27.867188 17 24 C 17 20.132812 20.136719 17 24 17 Z M 24 17 " fill="#4ca2df"/>
  <path d="M 29 24 C 29 26.761719 26.761719 28.996094 24 28.996094 C 21.242188 28.996094 19.003906 26.761719 19 24 C 19 21.238281 21.238281 18.996094 24 18.996094 C 26.765625 18.996094 29.003906 21.238281 29 24 Z M 29 24 " fill="#ffd843"/>
 </g>
</svg>
