<!-- color: #a4d947 -->
<svg xmlns="http://www.w3.org/2000/svg" width="48" height="48" viewBox="0 0 48 48">
 <path d="m 24,14 c -5.508566,0 -10,4.487429 -10,10 0.0043,5.508141 4.49091,10 10,10 5.512571,0 10,-4.491434 10,-10 0.0043,-5.512994 -4.487952,-10 -10,-10 z m 0,2 c 4.433264,0 8.003482,3.567682 8,8 0,4.428934 -3.567259,8 -8,8 -4.42841,0 -7.996518,-3.570641 -8,-8 0,-4.432741 3.571066,-8 8,-8 z" color="#000000" fill="#f9f9f9"/>
 <path d="m 23,11 1.996094,0 0,26 L 23,37 z m 0,0" fill="#f9f9f9"/>
 <path d="m 11,25.015625 0,-2 26,0 0,2 z m 0,0" fill="#f9f9f9"/>
</svg>
