<!-- color: #eeeeee -->
<svg xmlns="http://www.w3.org/2000/svg" width="48" height="48" viewBox="0 0 48 48">
 <path d="M 24,9 C 15.729395,9 9,15.729395 9,24 9,32.270605 15.729395,39 24,39 32.270605,39 39,32.270605 39,24 39,15.729395 32.270605,9 24,9 z m 0,2 c 7.190333,0 13,5.809667 13,13 0,7.190333 -5.809667,13 -13,13 -7.190333,0 -13,-5.809667 -13,-13 0,-7.190333 5.809667,-13 13,-13 z" color="#000000" fill="#00b3dc"/>
 <path d="m 24,16 c -4.406715,0 -8,3.593285 -8,8 0,4.406715 3.593285,8 8,8 4.406715,0 8,-3.593285 8,-8 0,-4.406715 -3.593285,-8 -8,-8 z m 0,2 c 3.327661,0 6,2.672339 6,6 0,3.327661 -2.672339,6 -6,6 -3.327661,0 -6,-2.672339 -6,-6 0,-3.327661 2.672339,-6 6,-6 z" color="#000000" fill="#0062a3"/>
 <path d="m 28,24 c 0,2.210938 -1.792969,4 -4,4 -2.210938,0 -4,-1.789062 -4,-4 0,-2.207031 1.789062,-4 4,-4 2.207031,0 4,1.792969 4,4 z m 0,0" fill="#00b3dc"/>
</svg>
