<!-- color: #3f3c71 -->
<svg xmlns="http://www.w3.org/2000/svg" width="48" height="48" viewBox="0 0 48 48">
 <g>
  <path d="M 20.785156 29.210938 C 19.902344 28.558594 18.816406 29.902344 19.90625 30.953125 C 27.816406 36.171875 26.9375 33.5625 33.089844 27.472656 C 34.160156 25.8125 32.621094 25.03125 31.332031 26.605469 C 26.058594 32.691406 26.9375 35.300781 20.785156 29.210938 Z M 20.785156 29.210938 " fill="#e5f5f9"/>
  <path d="M 13.921875 17 C 13.921875 18.105469 13.027344 19 11.921875 19 C 10.816406 19 9.921875 18.105469 9.921875 17 C 9.921875 15.894531 10.816406 15 11.921875 15 C 13.027344 15 13.921875 15.894531 13.921875 17 Z M 13.921875 17 " fill="#eb76b0"/>
  <path d="M 23.921875 9 C 19.648438 9 15.835938 10.773438 13.171875 13.5 C 12.167969 14.53125 11.34375 15.726562 10.671875 17 L 13.203125 17 C 13.746094 16.085938 14.382812 15.242188 15.109375 14.5 C 17.449219 12.101562 20.558594 10.6875 23.921875 10.6875 C 27.285156 10.6875 30.394531 12.101562 32.734375 14.5 C 35.074219 16.898438 36.578125 20.25 36.578125 24 C 36.578125 27.75 35.074219 31.101562 32.734375 33.5 C 30.394531 35.898438 27.285156 37.3125 23.921875 37.3125 C 20.558594 37.3125 17.449219 35.898438 15.109375 33.5 C 13.210938 31.554688 11.890625 28.96875 11.453125 26.0625 L 9.078125 26.0625 C 9.519531 29.304688 10.96875 32.242188 13.171875 34.5 C 15.835938 37.226562 19.648438 39 23.921875 39 C 28.195312 39 32.007812 37.226562 34.671875 34.5 C 37.335938 31.773438 38.921875 28.070312 38.921875 24 C 38.921875 19.929688 37.335938 16.226562 34.671875 13.5 C 32.007812 10.773438 28.195312 9 23.921875 9 Z M 23.921875 9 " fill="#eb76b0"/>
  <path d="M 21.496094 15 L 21.5 15 C 22.328125 15 23 15.667969 23 16.496094 L 23 23.5 C 23 24.328125 22.328125 24.996094 21.5 24.996094 L 21.496094 24.996094 C 20.667969 24.996094 20 24.328125 20 23.5 L 20 16.496094 C 20 15.667969 20.667969 15 21.496094 15 Z M 21.496094 15 " fill="#e5f5f9"/>
  <path d="M 25.496094 19 L 25.5 19 C 26.328125 19 27 19.445312 27 20 L 27 24 C 27 24.550781 26.328125 24.996094 25.5 24.996094 L 25.496094 24.996094 C 24.667969 24.996094 24 24.550781 24 24 L 24 20 C 24 19.445312 24.667969 19 25.496094 19 Z M 25.496094 19 " fill="#e5f5f9"/>
  <path d="M 28.886719 21 L 29.113281 21 C 29.601562 21 29.996094 21.398438 29.996094 21.886719 L 29.996094 24.117188 C 29.996094 24.605469 29.601562 25 29.113281 25 L 28.886719 25 C 28.394531 25 28 24.605469 28 24.117188 L 28 21.886719 C 28 21.398438 28.394531 21 28.886719 21 Z M 28.886719 21 " fill="#e5f5f9"/>
  <path d="M 32 21 C 32.550781 21 33 21.449219 33 22 L 33 24.003906 C 33 24.554688 32.550781 25 32 25 C 31.449219 25 31 24.554688 31 24.003906 L 31 22 C 31 21.449219 31.449219 21 32 21 Z M 32 21 " fill="#e5f5f9"/>
  <path d="M 15.375 23.445312 L 15.375 23.441406 C 16.074219 22.996094 16.878906 23.011719 17.175781 23.476562 L 19.335938 26.84375 C 19.636719 27.308594 19.3125 28.046875 18.613281 28.492188 L 18.613281 28.496094 C 17.914062 28.941406 17.109375 28.925781 16.8125 28.460938 L 14.652344 25.09375 C 14.351562 24.632812 14.675781 23.890625 15.375 23.445312 Z M 15.375 23.445312 " fill="#e5f5f9"/>
 </g>
</svg>
