<svg xmlns="http://www.w3.org/2000/svg" width="64" viewBox="0 0 64 64" height="64">
 <g transform="matrix(0.25361913,0,0,0.25361906,-31.111388,-6.1999709)" fill="#d64937">
  <path d="m 375.01662,150.61948 c 0,69.68368 -56.48988,126.17348 -126.17359,126.17348 -69.68371,0 -126.17331,-56.4898 -126.17331,-126.17348 0,-69.683683 56.4896,-126.17348 126.17331,-126.17348 69.68371,0 126.17359,56.489797 126.17359,126.17348 z" color="#000000"/>
 </g>
 <path d="m 21.000051,19 c -0.523607,0.0071 -1.008215,0.541845 -1,1 l 0,3.75 c 0.499466,-1.074296 1.190537,-2.03972 2,-2.90625 l 0,-0.84375 c 0.0084,-0.46727 -0.465978,-1.007331 -1,-1 z" fill="#f9f9f9" color="#000000"/>
 <path d="m 21.000031,45.00002 0,-15.67125 c 0,-5.722153 4.906002,-10.32879 11.000029,-10.32879 l 0,0 c 6.094004,0 11.000012,4.606637 11.000012,10.32879 l 0,15.67125" stroke-linejoin="round" stroke-linecap="round" stroke-width="2" stroke="#f9f9f9" fill="none"/>
</svg>
