<svg width="16" xmlns="http://www.w3.org/2000/svg" viewBox="0 0 16 16" height="16">
<g transform="translate(0 -1036.3622)">
<path style="fill:#2a2a2a" d="m 1.6166832,1037.0567 12.7034988,0 c 0.586479,0 1.058625,0.468 1.058625,1.0495 l 0,12.5953 c 0,0.5815 -0.472146,1.0496 -1.058625,1.0496 l -12.7034988,0 c -0.5864782,0 -1.05862494,-0.4681 -1.05862494,-1.0496 l 0,-12.5953 c 0,-0.5815 0.47214674,-1.0495 1.05862494,-1.0495 z"/>
<path style="fill:#1f1f1f" d="m 0,0 0,0 0,16 0,0 16,0 0,0 0,-16 0,0 z m 1,1 14,0 0,0 0,14 0,0 -14,0 0,0 z" transform="translate(0 1036.3622)"/>
</g>
<rect width="8" x="4" y="7" height="2" style="fill:#1f1f1f"/>
</svg>
