<svg width="16" xmlns="http://www.w3.org/2000/svg" viewBox="0 0 16 16" height="16">
<g transform="translate(0 -1036.3622)">
<rect width="14.442" x=".811" y="1036.92" rx="1" height="14.947" style="fill:#393939"/>
<path style="fill:#1f1f1f" d="m 0,0 0,0 0,16 0,0 16,0 0,0 0,-16 0,0 z m 1,1 14,0 0,0 0,14 0,0 -14,0 0,0 0,-14 z" transform="translate(0 1036.3622)"/>
</g>
<path style="fill:#d64937;line-height:normal;color:#000" d="m 11.653408,3.9183 c -0.365873,0.01 -0.727323,0.1623 -0.985551,0.4266 L 6.6385666,8.1816 5.2563479,6.6327 C 4.7644532,5.9767 3.6857884,5.9062 3.1156955,6.4927 2.5456026,7.0792 2.6246894,8.1781 3.2726474,8.6735 l 2.3831825,2.5599 c 0.9369248,0.9369 1.3590497,0.8116 2.3049741,-0.1343 0,0 3.250459,-3.9103 5.155609,-5.232 0.421127,-0.3992 0.596878,-0.5102 0.377676,-1.0522 -0.219202,-0.542 -1.265927,-0.916 -1.840681,-0.8966 z"/>
</svg>
