/* XPM */
static char * close_inactive_xpm[] = {
"16 16 12 1",
" 	c None",
".	c #DEDEDE",
"+	c #A4A4A4",
"@	c #B6B6B6",
"#	c #D7D7D7",
"$	c #A7A7A7",
"%	c #D1D1D1",
"&	c #A6A6A6",
"*	c #CFCFCF",
"=	c #A8A8A8",
"-	c #D2D2D2",
";	c #D8D8D8",
"................",
"................",
"................",
"................",
"....+@#..#@+....",
"....@+$%%$+@....",
"....#&+$$+$#....",
".....*&++$%.....",
".....*&++$%.....",
"....#&+==+$#....",
"....@+$--$+@....",
"....+@;..;@+....",
"................",
"................",
"................",
"................"};
