/* XPM */
static char * close_active_xpm[] = {
"16 16 16 1",
" 	c None",
".	c #DEDEDE",
"+	c #636363",
"@	c #8A8A8A",
"#	c #D1D1D1",
"$	c #888888",
"%	c #6A6A6A",
"&	c #C3C3C3",
"*	c #CFCFCF",
"=	c #686868",
"-	c #6C6C6C",
";	c #BFBFBF",
">	c #6B6B6B",
",	c #C5C5C5",
"'	c #8B8B8B",
")	c #D2D2D2",
"................",
"................",
"................",
"................",
"....+@#..#@+....",
"....$+%&&%+@....",
"....*=+--+%#....",
".....;=++-&.....",
".....;=++-&.....",
"....*=+--+%#....",
"....$+>,,>+@....",
"....+')..)'+....",
"................",
"................",
"................",
"................"};
