/* XPM */
static char * top_left_active_xpm[] = {
"2 25 3 1",
" 	c None",
".	c #999999",
"+	c #DEDEDE",
"..",
".+",
".+",
".+",
".+",
".+",
".+",
".+",
".+",
".+",
".+",
".+",
".+",
".+",
".+",
".+",
".+",
".+",
".+",
".+",
".+",
".+",
".+",
".+",
".+"};
