/* XPM */
static char * top_right_inactive_xpm[] = {
"2 25 3 1",
" 	c None",
".	c #AAAAAA",
"+	c #DEDEDE",
"..",
"+.",
"+.",
"+.",
"+.",
"+.",
"+.",
"+.",
"+.",
"+.",
"+.",
"+.",
"+.",
"+.",
"+.",
"+.",
"+.",
"+.",
"+.",
"+.",
"+.",
"+.",
"+.",
"+.",
"+."};
