<!-- color: #63c038 -->
<svg xmlns="http://www.w3.org/2000/svg" width="48" height="48" viewBox="0 0 48 48">
 <path d="M 25.375 29.125 L 1.25 48 L 41.25 48 L 25.375 29.125 z " fill="#868bec"/>
 <path d="M 25.07589,28.909223 9.2687369,41.675167 C 13.255555,44.997255 18.390796,47 24.015236,47 c 4.854473,0 9.332993,-1.48489 13.035768,-4.027755 L 25.07589,28.909223 z" fill="#868bec"/>
 <g transform="matrix(3.879452,0,0,3.8702596,-2.3716881,-2.174614)" fill="#ffe991">
  <path transform="scale(0.28222223,0.28222223)" d="M 46.007105,8.399559 2.1661871,44.104909 c 0,0.544818 0,1.380131 0,1.831043 0.9133525,0 2.7400574,0 3.6534098,0 L 46.007105,12.977168 z"/>
  <path transform="scale(0.28222223,0.28222223)" d="M 26.8125,27.46875 24.40625,29.75 37.786933,45.935952 c 0.913352,0 2.740057,0 3.653409,0 z"/>
 </g>
 <path d="m 15.863612,34.947803 c -0.451141,-2.209376 -1.246546,-4.047982 -2.210008,-5.752018 -0.714595,-1.263989 -1.54247,-2.430679 -2.308429,-3.65639 -0.255656,-0.409164 -0.476358,-0.841433 -0.722082,-1.266117 -0.491294,-0.849096 -0.8895975,-1.833612 -0.8643033,-3.110644 0.02326,-1.247771 0.3863953,-2.248659 0.9080633,-3.067026 0.857902,-1.345998 2.294928,-2.449565 4.223055,-2.739563 1.576493,-0.237247 3.054565,0.163325 4.102715,0.774943 0.856505,0.49965 1.519814,1.167115 2.023988,1.953706 0.526247,0.820999 0.888627,1.790925 0.919042,3.056112 0.01552,0.648153 -0.09078,1.24843 -0.240525,1.746339 -0.151688,0.503946 -0.395627,0.925224 -0.612682,1.375219 -0.423675,0.878394 -0.95485,1.683215 -1.487886,2.488538 -1.587783,2.398672 -3.078074,4.844907 -3.730753,8.196901 z" fill="#f3543f" fill-rule="evenodd"/>
 <circle cx="729.55" cy="651.05" r="183.33" transform="matrix(0.01493004,0,0,0.01489465,4.8872724,11.597267)" fill="#c32f20" fill-rule="evenodd"/>
</svg>
