<!-- color: #00c6f8 -->
<svg xmlns="http://www.w3.org/2000/svg" width="48" height="48" viewBox="0 0 48 48">
 <g>
  <path d="M 17 24 C 17 25.65625 15.65625 27 14 27 C 12.34375 27 11 25.65625 11 24 C 11 22.34375 12.34375 21 14 21 C 15.65625 21 17 22.34375 17 24 Z M 17 24 " fill="#ffffff"/>
  <path d="M 27 24 C 27 25.65625 25.65625 27 24 27 C 22.34375 27 21 25.65625 21 24 C 21 22.34375 22.34375 21 24 21 C 25.65625 21 27 22.34375 27 24 Z M 27 24 " fill="#ffffff"/>
  <path d="M 37 24 C 37 25.65625 35.65625 27 34 27 C 32.34375 27 31 25.65625 31 24 C 31 22.34375 32.34375 21 34 21 C 35.65625 21 37 22.34375 37 24 Z M 37 24 " fill="#ffffff"/>
 </g>
</svg>
