<!-- color: #1b77bf -->
<svg xmlns="http://www.w3.org/2000/svg" width="48" height="48" viewBox="0 0 48 48">
 <g>
  <path d="M 24.5 16.792969 L 17 21.269531 L 17 31.53125 L 24.5 27.023438 L 32 31.53125 L 32 21.269531 Z M 24.5 16.792969 " fill="#e7f4ff"/>
  <path d="M 32 31.519531 L 32 21.28125 L 24.5 16.800781 L 24.5 27.039062 Z M 32 31.519531 " fill="#d0ebff"/>
  <path d="M 17 21.28125 L 17 31.53125 L 24.5 36 L 32 31.53125 L 32 21.28125 L 24.5 25.75 Z M 17 21.28125 " fill="#61abea"/>
  <path d="M 32 21.28125 L 32 31.519531 L 24.5 36 L 24.5 25.761719 Z M 32 21.28125 " fill="#68b2ee"/>
  <path d="M 17 21.28125 L 12 25.441406 L 19.5 30.238281 L 24.5 25.761719 Z M 17 21.28125 " fill="#8cc5f4"/>
  <path d="M 32 21.28125 L 37 25.441406 L 29.5 30.238281 L 24.5 25.761719 Z M 32 21.28125 " fill="#8cc5f4"/>
  <path d="M 12 16.800781 L 17 21.28125 L 24.5 16.800781 L 19.1875 12 Z M 12 16.800781 " fill="#8cc5f4"/>
  <path d="M 37 16.800781 L 32 21.28125 L 24.5 16.800781 L 29.8125 12 Z M 37 16.800781 " fill="#8cc5f4"/>
 </g>
</svg>
