<!-- color: #e7a84b -->
<svg xmlns="http://www.w3.org/2000/svg" width="48" height="48" viewBox="0 0 48 48">
 <path d="m 14,16 0,6.996094 3.4375,0 c 1.121094,0 1.988281,-0.527344 2.601562,-1.113282 C 20.652344,21.296875 21,20.460938 21,19.375 21,18.296875 20.652344,17.46875 20.039062,16.878906 19.425781,16.292969 18.558594,16 17.4375,16 L 14,16 m -2,-2 5.4375,0 C 21.351562,14.0625 22.996094,16.039062 23,19.378906 23,23 20.664062,24.957031 17.4375,25 L 14,25 l 0,7 -2,0 0,-18" fill="#2d2d2d"/>
 <path d="M 37.75,19 33,25.066406 38,32 35.410156,32 31.5,26.695312 27.636719,32 25.046875,32 30,25 25.488281,19 28.078125,19 31.5,23.304688 35.160156,19 37.75,19" fill="#2d2d2d"/>
</svg>
