<!-- color: #92b8d6 -->
<svg xmlns="http://www.w3.org/2000/svg" width="48" height="48" viewBox="0 0 48 48">
 <path d="M 24,8 C 15.728854,8 9,14.728854 9,23 9,31.271146 15.728854,38 24,38 32.271146,38 39,31.271146 39,23 39,14.728854 32.271146,8 24,8 z m 0,2 c 7.189792,0 13,5.810208 13,13 0,7.189792 -5.810208,13 -13,13 -7.189792,0 -13,-5.810208 -13,-13 0,-7.189792 5.810208,-13 13,-13 z" color="#000000" fill="#f9f9f9"/>
 <path d="m 24,36 15,-1 0,3 -15,0 z m 0,0" fill="#f9f9f9"/>
 <path d="m 22,17 c 0,1.105469 -0.894531,2 -2,2 -1.105469,0 -2,-0.894531 -2,-2 0,-1.105469 0.894531,-2 2,-2 1.105469,0 2,0.894531 2,2 z m 0,0" fill="#f9f9f9"/>
 <path d="m 16,32 c 4,-8 4,-8 7,-2 4,-13 4,-13 9,2 z m 0,0" fill="#f9f9f9"/>
</svg>
