<!-- color: #3dbbef -->
<svg xmlns="http://www.w3.org/2000/svg" width="48" height="48" viewBox="0 0 48 48">
 <g>
  <path d="M 23.324219 36.925781 C 20.371094 36.195312 13.546875 29.683594 11.5 25.644531 C 10.835938 24.335938 10.835938 23.59375 11.496094 22.292969 C 12.410156 20.488281 14.273438 18.183594 16.777344 15.75 C 20.007812 12.617188 22.464844 11 24 11 C 25.589844 11 28.265625 12.804688 31.671875 16.171875 C 34.476562 18.941406 36.359375 21.488281 36.863281 23.191406 C 37.097656 23.984375 37.042969 24.480469 36.621094 25.441406 C 35.191406 28.691406 28.9375 35.007812 25.609375 36.558594 C 24.707031 36.980469 24.003906 37.09375 23.324219 36.925781 Z M 23.324219 36.925781 " fill="#254e69"/>
  <path d="m 19,17 -4,6 9,5 c 0.460938,0.179688 0.589844,0.257812 1,0 L 48,11 48,0 37,0 25,22 c -0.488281,0.363281 -0.460938,0.335938 -1,0 z" fill="#f8f8f8" fill-opacity="0.8"/>
  <path d="M 20 19 C 20 22.3125 17.3125 25 14 25 C 10.6875 25 8 22.3125 8 19 C 8 15.6875 10.6875 13 14 13 C 17.3125 13 20 15.6875 20 19 Z M 20 19 " fill="#8bd134"/>
 </g>
</svg>
