<!-- color: #714b4b -->
<svg xmlns="http://www.w3.org/2000/svg" width="48" height="48" viewBox="0 0 48 48">
 <path d="M 12.804688,15 C 12.367188,15.046875 11.996094,15.457031 12,15.898438 l 0,16.203124 C 12,32.570312 12.429688,33 12.898438,33 l 22.203124,0 C 35.570312,33 36,32.570312 36,32.101562 L 36,15.898438 C 36,15.429688 35.570312,15 35.101562,15 z m 0,0" fill="#cccccc"/>
 <path d="m 15,13 4,0 c 0.550781,0 1,0.449219 1,1 l 0,2 c 0,0.554688 -0.449219,1 -1,1 l -4,0 c -0.554688,0 -1,-0.445312 -1,-1 l 0,-2 c 0,-0.550781 0.445312,-1 1,-1 z m 0,0" fill="#cccccc"/>
 <path d="m 32.664062,17 0.664063,0 c 0.367187,0 0.667969,0.300781 0.667969,0.667969 l 0,0.664062 C 33.996094,18.699219 33.695312,19 33.328125,19 l -0.664063,0 c -0.371093,0 -0.667968,-0.300781 -0.667968,-0.667969 l 0,-0.664062 C 31.996094,17.300781 32.292969,17 32.664062,17 z m 0,0" fill="#e32626"/>
 <path d="m 28,24 c 0,3.3125 -2.6875,6 -6,6 -3.316406,0 -6,-2.6875 -6,-6 0,-3.3125 2.683594,-6 6,-6 3.3125,0 6,2.6875 6,6 z m 0,0" fill="#f9f9f9"/>
 <path d="m 25,24 c 0,1.65625 -1.34375,3 -3,3 -1.65625,0 -3,-1.34375 -3,-3 0,-1.65625 1.34375,-3 3,-3 1.65625,0 3,1.34375 3,3 z m 0,0" fill="#868686"/>
</svg>
