<!-- color: #19a0e3 -->
<svg xmlns="http://www.w3.org/2000/svg" width="48" height="48" viewBox="0 0 48 48">
 <g>
  <path d="M 24 10 C 22.929688 12.617188 22.285156 14.332031 21.097656 16.875 C 21.824219 17.644531 22.71875 18.546875 24.175781 19.5625 C 22.609375 18.921875 21.546875 18.273438 20.75 17.605469 C 19.226562 20.78125 16.839844 25.304688 12 34 C 15.804688 31.804688 18.753906 30.449219 21.503906 29.933594 C 21.382812 29.425781 21.316406 28.878906 21.320312 28.304688 L 21.324219 28.183594 C 21.386719 25.746094 22.652344 23.871094 24.15625 24 C 25.65625 24.125 26.824219 26.207031 26.765625 28.644531 C 26.753906 29.101562 26.703125 29.542969 26.609375 29.953125 C 29.328125 30.484375 32.246094 31.832031 36 34 C 35.261719 32.636719 34.597656 31.410156 33.96875 30.242188 C 32.976562 29.472656 31.9375 28.46875 29.824219 27.382812 C 31.277344 27.761719 32.316406 28.195312 33.128906 28.683594 C 26.714844 16.746094 26.195312 15.160156 23.996094 10 Z M 24 10 " fill="#f9f9f9" fill-rule="evenodd"/>
 </g>
</svg>
