<!-- color: #3896c8 -->
<svg xmlns="http://www.w3.org/2000/svg" width="48" height="48" viewBox="0 0 48 48">
 <g>
  <path d="M 23.882812 3 C 21.332031 3 18.898438 3.488281 16.648438 4.355469 C 22.847656 4.464844 26.34375 5.121094 29.519531 6.886719 C 29.78125 7.03125 30.046875 7.183594 30.308594 7.347656 C 31.089844 7.835938 31.871094 8.398438 32.675781 9.042969 C 36.140625 11.808594 36.445312 15.175781 39.386719 17.75 C 41.179688 19.316406 40.9375 19.183594 41.765625 19.183594 C 42.671875 19.183594 43.136719 18.351562 43.355469 17.445312 C 40.714844 9.070312 32.996094 3 23.882812 3 Z M 15.679688 6.816406 C 15.246094 6.816406 14.816406 6.863281 14.390625 6.953125 C 14.25 6.984375 14.109375 7.015625 13.96875 7.054688 C 10.050781 8.121094 6.699219 12.515625 5.601562 14.53125 C 5.53125 14.660156 5.453125 14.808594 5.378906 14.949219 C 4.796875 16.203125 4.328125 17.523438 4 18.902344 C 4.3125 18.492188 4.617188 18.109375 4.921875 17.75 C 7.046875 15.222656 8.988281 13.851562 11.78125 13.851562 C 16.757812 13.851562 17.390625 16.105469 26.515625 22.152344 C 31.007812 25.128906 37.824219 29.230469 43.445312 29.84375 C 43.675781 29.074219 43.859375 28.285156 44 27.484375 C 41.898438 27.328125 40.003906 26.515625 37.953125 25.132812 C 37.660156 24.9375 37.363281 24.734375 37.066406 24.511719 C 34.664062 22.753906 32 20.261719 28.527344 17.171875 C 25.886719 14.820312 19.242188 6.816406 15.679688 6.816406 Z M 8.546875 30.542969 C 6.964844 30.542969 5.789062 31.355469 5.65625 33.1875 C 7.871094 37.601562 11.585938 41.105469 16.125 43 C 16.066406 42.914062 16.007812 42.824219 15.949219 42.730469 C 15.523438 42.0625 15.113281 41.15625 15.113281 40.121094 C 15.113281 38.914062 15.882812 38.4375 16.746094 38.4375 C 17.902344 38.4375 21.707031 40.277344 28.074219 40.277344 C 31.257812 40.277344 35.230469 39.804688 38.144531 38.664062 C 39.292969 37.527344 40.304688 36.253906 41.164062 34.867188 C 39.304688 35.636719 35.867188 36.742188 31.386719 36.742188 C 22.730469 36.742188 14.839844 32.988281 12.558594 31.785156 C 11.953125 31.464844 10.402344 30.542969 8.546875 30.542969 Z M 8.546875 30.542969 " fill="#f9f9f9" fill-rule="evenodd"/>
 </g>
</svg>
