<!-- color: #6bc553 -->
<svg xmlns="http://www.w3.org/2000/svg" width="48" height="48" viewBox="0 0 48 48">
 <g>
  <path d="M 34 14 C 34 21.039062 34 27.898438 34 34 C 26.976562 34 20.070312 34 14 34 C 14 26.960938 14 20.105469 14 14 C 20.941406 14 28.046875 14 34 14 Z M 32 16 L 23 16 L 23 20 L 32 20 Z M 21 16 L 16 16 L 16 20 L 21 20 Z M 32 22 L 23 22 L 23 26 L 32 26 Z M 21 22 L 16 22 L 16 26 L 21 26 Z M 32 28 L 23 28 L 23 32 L 32 32 Z M 21 28 L 16 28 L 16 32 L 21 32 Z M 21 28 " fill="#f9f9f9"/>
 </g>
</svg>
