<!-- color: #5d5e61 -->
<svg xmlns="http://www.w3.org/2000/svg" width="48" height="48" viewBox="0 0 48 48">
 <g>
  <path d="M 20 12.6875 C 15.273438 14.34375 12 18.851562 12 24 C 12 30.503906 17.222656 36.003906 24 36.003906 C 30.777344 36.003906 36 30.503906 36 24 C 36 19.945312 33.984375 16.277344 30.8125 14.09375 L 27.875 15.71875 C 30.75 17.210938 32.8125 20.296875 32.8125 24 C 32.8125 29.230469 28.714844 33.25 24 33.25 C 19.285156 33.25 15.1875 29.230469 15.1875 24 C 15.1875 20.351562 17.191406 17.296875 20 15.78125 Z M 20 12.6875 " fill="#f9f9f9"/>
  <path d="M 34.5 21 C 35.328125 21 36 21.894531 36 23 L 36 36 C 36 37.105469 35.328125 38 34.5 38 C 33.671875 38 33 37.105469 33 36 L 33 23 C 33 21.894531 33.671875 21 34.5 21 Z M 34.5 21 " fill="#f9f9f9"/>
  <path d="M 22 10 L 28 14 L 22 18 Z M 22 10 " fill="#f5c1ab"/>
 </g>
</svg>
