<!-- color: #fbfbfb -->
<svg xmlns="http://www.w3.org/2000/svg" width="48" height="48" viewBox="0 0 48 48">
 <g>
  <path d="M 19 11 L 21 11 C 21 12.378906 23 12.386719 23 11 L 25 11 L 24 27 L 23 27 C 23 25.644531 21 25.675781 21 27 L 20 27 " fill="#ff6213"/>
  <path d="M 24 31 C 24 32.105469 23.105469 33 22 33 C 20.894531 33 20 32.105469 20 31 C 20 29.894531 20.894531 29 22 29 C 23.105469 29 24 29.894531 24 31 Z M 24 31 " fill="#ff6213"/>
  <path d="M 23 15 L 25 15 C 25 16.378906 27 16.386719 27 15 L 29 15 L 28 31 L 27 31 C 27 29.644531 25 29.675781 25 31 L 24 31 " fill="#004a8f"/>
  <path d="M 28 35 C 28 36.105469 27.105469 37 26 37 C 24.894531 37 24 36.105469 24 35 C 24 33.894531 24.894531 33 26 33 C 27.105469 33 28 33.894531 28 35 Z M 28 35 " fill="#004a8f"/>
 </g>
</svg>
