<!-- color: #00a7f0 -->
<svg xmlns="http://www.w3.org/2000/svg" width="48" height="48" viewBox="0 0 48 48">
 <g>
  <path d="M 16 9 C 15.445312 9 15 9.445312 15 10 L 15 38 C 15 38.554688 15.445312 39 16 39 L 17.15625 39 L 19 26 C 19 22 29 22 29 26 L 30.84375 39 L 32 39 C 32.554688 39 33 38.554688 33 38 L 33 10 C 33 9.445312 32.554688 9 32 9 Z M 24 12 C 26.761719 12 29 14.238281 29 17 C 29 19.761719 26.761719 22 24 22 C 21.238281 22 19 19.761719 19 17 C 19 14.238281 21.238281 12 24 12 Z M 24 12 " fill="#f9f9f9"/>
 </g>
</svg>
