<!-- color: #ffd015 -->
<svg xmlns="http://www.w3.org/2000/svg" width="48" height="48" viewBox="0 0 48 48">
 <g>
  <path d="M 12.878906 23.757812 L 16.4375 20.199219 L 32.035156 19.570312 L 32.980469 25.851562 L 30.257812 30.667969 L 25.652344 35.167969 L 19.367188 34.019531 L 16.125 31.609375 L 13.820312 28.78125 Z M 12.878906 23.757812 " fill="#f9f9f9"/>
  <path d="M 22.183594 35.886719 C 16.832031 34.917969 12.695312 30.820312 12.0625 25.867188 C 11.878906 24.40625 12.105469 22.457031 12.652344 20.851562 C 14.792969 14.554688 22.152344 10.121094 30.664062 10.003906 C 31.585938 9.992188 32.21875 10 32.074219 10.027344 C 29.441406 14.375 29.84375 16.878906 33.832031 18.878906 C 34.980469 19.75 34.949219 19.886719 35.476562 20.957031 C 36.238281 23.578125 36.0625 26.199219 35.621094 28.457031 C 34.613281 32.128906 31.597656 34.78125 27.308594 35.769531 C 26.261719 36.011719 23.25 36.082031 22.183594 35.886719 Z M 25.96875 32 L 16.988281 31 L 24.972656 34 Z M 25.628906 28.632812 C 27.730469 28.09375 29.699219 25.488281 30.796875 21.785156 C 31.050781 20.929688 31.085938 20.578125 30.914062 20.644531 C 30.796875 20.6875 26.171875 23.980469 23.90625 25.632812 C 21.589844 27.320312 20.957031 27.804688 20.957031 27.882812 C 20.957031 28.070312 22.488281 28.640625 23.351562 28.777344 C 23.957031 28.871094 24.949219 28.808594 25.628906 28.632812 Z M 17.964844 28.136719 C 18.253906 28.074219 18.417969 27.996094 18.398438 27.925781 C 18.34375 27.699219 13.816406 23.640625 13.699219 23.710938 C 13.539062 23.808594 13.953125 25.335938 14.355469 26.125 C 15.246094 27.875 16.332031 28.480469 17.964844 28.136719 Z M 17.964844 28.136719 " fill="#c02e19"/>
 </g>
</svg>
