<!-- color: #d8404d -->
<svg xmlns="http://www.w3.org/2000/svg" width="48" height="48" viewBox="0 0 48 48">
 <g>
  <path d="M 21 23 C 21 25.761719 18.761719 28 16 28 C 13.238281 28 11 25.761719 11 23 C 11 20.238281 13.238281 18 16 18 C 18.761719 18 21 20.238281 21 23 Z M 21 23 " fill="#f4e6d6"/>
  <path d="M 35 21 C 35 25.417969 31.417969 29 27 29 C 22.582031 29 19 25.417969 19 21 C 19 16.582031 22.582031 13 27 13 C 31.417969 13 35 16.582031 35 21 Z M 35 21 " fill="#f4e6d6"/>
  <path d="M 37 29 C 37 31.761719 34.761719 34 32 34 C 29.238281 34 27 31.761719 27 29 C 27 26.238281 29.238281 24 32 24 C 34.761719 24 37 26.238281 37 29 Z M 37 29 " fill="#f4e6d6"/>
  <path d="M 23 30 C 23 32.761719 20.761719 35 18 35 C 15.238281 35 13 32.761719 13 30 C 13 27.238281 15.238281 25 18 25 C 20.761719 25 23 27.238281 23 30 Z M 23 30 " fill="#f4e6d6"/>
  <path d="M 20 24 L 30 24 L 30 33 C 27 35 23 35 20 33 Z M 20 24 " fill="#f4e6d6"/>
  <path d="M 21 23.5 C 21 24.882812 19.882812 26 18.5 26 C 17.121094 26 16 24.882812 16 23.5 C 16 22.121094 17.121094 21 18.5 21 C 19.882812 21 21 22.121094 21 23.5 Z M 21 23.5 " fill="#2d2d2d"/>
  <path d="M 31 23.5 C 31 24.882812 29.882812 26 28.5 26 C 27.121094 26 26 24.882812 26 23.5 C 26 22.121094 27.121094 21 28.5 21 C 29.882812 21 31 22.121094 31 23.5 Z M 31 23.5 " fill="#2d2d2d"/>
  <path d="M 21.5 27 L 26.5 27 C 26.5 33 21.5 33 21.5 27 Z M 21.5 27 " fill="#e5053f"/>
  <path d="M 19.5 24 C 19.5 24.554688 19.054688 25 18.5 25 C 17.949219 25 17.5 24.554688 17.5 24 C 17.5 23.449219 17.949219 23 18.5 23 C 19.054688 23 19.5 23.449219 19.5 24 Z M 19.5 24 " fill="#f9f9f9"/>
  <path d="M 29.5 24 C 29.5 24.554688 29.054688 25 28.5 25 C 27.949219 25 27.5 24.554688 27.5 24 C 27.5 23.449219 27.949219 23 28.5 23 C 29.054688 23 29.5 23.449219 29.5 24 Z M 29.5 24 " fill="#f9f9f9"/>
 </g>
</svg>
