<!-- color: #71cae3 -->
<svg xmlns="http://www.w3.org/2000/svg" width="48" height="48" viewBox="0 0 48 48">
 <path d="m 16,1.9062496 -0.84375,0.25 -0.96875,0.0625 -0.59375,0.4375 -0.78125,-0.03125 0.0625,0.5 1.125,-0.03125 0.40625,1.09375 0.15625,0.59375 -0.625,0.34375 -0.25,0.46875 0.1875,1.0625 0.75,0.125 0.71875,-0.6875 0.625,-0.65625 0.96875,-0.25 1.21875,-0.59375 0.71875,-0.875 1.03125,-1.25 0.71875,-0.1875 -0.03125,-0.28125 -1.125,0 L 16,1.9062496 z m -2.21875,0.0625 -0.8125,0.03125 -1.40625,0.375 -0.8125,0.25 -0.9375,-0.375 -0.125,0.5625 1.125,0.65625 c 0,0 2.044635,-1.125 2.15625,-1.125 l 0.8125,-0.375 z m 21.0625,0.21875 -0.1875,0.3125 1.15625,0.15625 0.0625,-0.28125 -1.03125,-0.1875 z m -8.875,0.1875 c -0.05637,0.022096 -1.53125,0.03125 -1.53125,0.03125 l -0.375,0.09375 0.5,0.59375 0.53125,-0.5 0.34375,0.21875 0.5,-0.25 c 0,0 0.08762,-0.2095967 0.03125,-0.1875 z m 5.625,0.46875 -0.46875,0.0625 -0.40625,0.25 -0.46875,0.34375 -0.28125,0.5 0.4375,0.4375 0.375,0.03125 0.15625,-0.25 -0.375,-0.3125 0.21875,-0.1875 0.03125,-0.15625 0.46875,-0.3125 c 0,0 0.60842,0.00781 0.65625,0 0.04783,-0.00781 0.1875,-0.1875 0.1875,-0.1875 l -0.15625,-0.21875 -0.375,0 z m -25.875,0.1875 -0.09375,0.3125 0.46875,0.15625 0.53125,-0.25 -0.90625,-0.21875 z m 31.78125,0.09375 -2.125,0.09375 -0.5625,0.375 -0.625,0.375 -0.53125,0.4375 0.0625,0.1875 -0.28125,0.03125 0,0.03125 -4,0.65625 -3.65625,2.6875 -0.375,0.28125 -0.03125,0 -0.25,-0.09375 c 0,0 -0.15497,0.00782 -0.21875,0.0625 -0.06378,0.054686 -0.121161,0.101563 -0.3125,0.125 -0.191339,0.023437 -0.561861,0 -0.59375,0 l -0.21875,0 0.03125,-0.21875 0.15625,-0.25 -0.28125,-0.21875 c 0,0 -0.179527,0.2265636 -0.1875,0.28125 -0.008,0.054686 0.125,0.28125 0.125,0.28125 0,0 -0.06186,0.1796883 -0.09375,0.21875 -0.03188,0.039062 -0.3125,0.125 -0.3125,0.125 l -0.4375,-0.21875 c 0,0 -0.180167,-0.03906 -0.15625,0.0625 0.02392,0.1015605 0.21875,0.1953143 0.21875,0.28125 0,0.085935 -0.125,0.28125 -0.125,0.28125 l -0.15625,0.1875 -0.25,0.25 -0.34375,0.09375 c 0,0 -0.248721,0.07032 -0.3125,0.09375 -0.06378,0.02344 -0.25,0.0625 -0.25,0.0625 l -0.25,0.03125 L 21,9.9374996 21.28125,10.125 l 0.1875,0.3125 c 0,0 0.12436,0.21875 0.15625,0.21875 0.03189,0 0.09375,0.21875 0.09375,0.21875 l -0.1875,0.25 -0.0625,0 -0.03125,0 -0.65625,0.125 -0.125,-0.28125 -0.4375,0.4375 -0.1875,0.71875 0,0.59375 0.75,0.40625 0.59375,-0.21875 0.59375,-1.0625 0.53125,-0.65625 0.96875,-0.15625 0.21875,-0.1875 1.09375,1.28125 0.125,0.4375 0.3125,-0.15625 -0.09375,-0.375 0.1875,0 -0.125,-0.25 -1.0625,-1 0.09375,-0.1875 0.34375,-0.03125 0.75,0.75 0.375,0.4375 0,0.6875 0.1875,0.125 0.375,0.375 0.28125,-0.09375 -0.15625,-0.5625 0.09375,-0.34375 0.1875,-0.21875 0.4375,0.15625 0.15625,0.0625 -0.03125,-0.5 0.25,-0.46875 0.15625,-0.6875 0.5625,0.09375 0.09375,0.3125 0.21875,0.15625 0.25,-0.21875 -0.15625,-0.34375 0.65625,0 -0.21875,0.375 0.4375,0.375 0.375,0.1875 0.21875,0.4375 -0.5,0.125 -0.71875,-0.15625 -0.625,0 -0.59375,0.3125 -0.125,0.1875 -0.4375,0.09375 0.1875,0.46875 0.34375,0.40625 0.625,-0.21875 0.15625,0.28125 0.28125,-0.21875 0.375,0.0625 0.03125,0.40625 -0.125,0.78125 L 28.59375,14.15625 28.1875,14.09375 28,14.5625 26.625,14.3125 26.375,14 26.0625,14.28125 25.71875,14.75 l -0.875,-0.5 -0.875,-0.53125 0,-0.9375 -0.5625,0.03125 L 23.375,13.125 22,13.0625 21.5625,13.46875 20.71875,13.5 l -0.5625,0.5 -0.34375,0.96875 -0.875,0.6875 -0.625,0.84375 -0.03125,1.625 -0.1875,0.5 -0.0625,0.59375 0.375,0.65625 0.21875,0.625 0.75,0.90625 0.4375,0.375 0.4375,0.09375 0.09375,-0.375 1.5625,0 0.40625,-0.1875 0.5,0.0625 0.15625,0.3125 0.53125,0.03125 0.34375,0.25 0,0.53125 -0.125,0.4375 -0.125,0.34375 0.3125,0.5625 L 24.3125,24.3125 24.5,25.5 24.53125,26.28125 24.25,26.9375 l -0.03125,0.625 0.21875,1.15625 0.1875,0.1875 L 24.90625,30 24.9375,30.46875 25.5,31.21875 25.5625,31.8125 25.65625,32.5 26,32.15625 l 0.875,-0.09375 0.53125,0 0.96875,-1.5 0.0625,-0.59375 0.65625,-0.65625 0.03125,-0.75 0.34375,-0.75 0.8125,-0.78125 0,-0.875 -0.1875,-0.8125 -0.125,-1.125 0.59375,-0.9375 1.0625,-1.3125 0.40625,-0.40625 0.15625,-0.53125 0.25,-0.46875 0.0625,-0.6875 -0.59375,0 L 31.625,20.15625 31.0625,20 30.71875,19.4375 30.4375,18.875 29.78125,18.375 29.625,17.5625 29.34375,17.09375 29.03125,16.5 28.625,15.78125 28.53125,15.3125 l 0.4375,-0.0625 0.25,0.53125 0.5,0.9375 0.375,0.6875 0.40625,0.75 0.4375,0.71875 0.59375,0.59375 0.53125,-0.5 0.59375,-0.15625 0.4375,-0.53125 0.59375,-0.34375 0.34375,-0.59375 0.03125,-0.5 -0.28125,-0.3125 -0.375,-0.4375 -0.25,0.15625 L 33,16.5 32.59375,16.3125 32.46875,16 32.1875,15.59375 31.75,15.1875 l 0,-0.8125 0.28125,0.53125 0.34375,0.53125 0.59375,0.34375 0.40625,-0.09375 0.25,0.28125 1.78125,-0.03125 -0.03125,0.03125 0.5625,0.5 0.40625,0.5625 0.125,0.28125 0.28125,0 0.09375,-0.3125 0.09375,0.46875 0.15625,0.84375 0.34375,0.8125 0.1875,0.6875 0.28125,0.65625 0.21875,0.28125 0.3125,-0.1875 0.09375,-0.3125 0.125,-0.78125 -0.03125,-0.6875 0.25,-0.3125 c 0,0 0.264687,-0.363286 0.3125,-0.375 0.04781,-0.01171 0.625,-0.65625 0.625,-0.65625 l 0.28125,-0.34375 0.3125,-0.1875 0.375,-0.21875 0.15625,0 0.0625,0.34375 0.15625,0.40625 0.5,0.65625 0,0.25 0.09375,0.28125 0.34375,-0.15625 -0.03125,-0.375 0.3125,0.0625 0.0625,0.34375 -0.03125,0.53125 0.09375,0.375 0.28125,0.0625 0.09375,-0.3125 0.34375,0.21875 0.0625,0.3125 0.3125,0.46875 0.3125,0.34375 0.21875,0.1875 0.53125,-0.46875 0.21875,-0.4375 -0.09375,-0.5 L 44.6875,18.625 44.09375,18.0625 44,17.5 44.25,17.09375 c 0,0 0.160359,-0.321901 0.3125,-0.15625 0.152142,0.165651 0.223869,0.192783 0.15625,0.375 -0.06762,0.182216 -0.1875,0.59375 -0.1875,0.59375 l 0.375,0.15625 0.15625,-0.53125 -0.15625,-0.375 L 45.28125,17 45.96875,16.65625 46.40625,16.125 46.75,15.3125 46.71875,14.71875 46.375,13.9375 45.6875,13.125 45.25,12.71875 45.03125,12.09375 45.4375,12 c 0,0 0.234645,-0.402847 0.4375,-0.1875 0.202855,0.215347 0.5,0.53125 0.5,0.53125 0,0 0.355536,0.55874 0.40625,0.625 0.05072,0.06626 0.418037,0.402489 0.46875,0.46875 0.05072,0.06626 0.28125,0.3125 0.28125,0.3125 l 0.375,-0.53125 L 48,13.125 48,12.9375 47.46875,12.625 47,12.1875 l 0.34375,-0.75 0.5625,-0.28125 0.09375,-0.25 0,-1.4687504 -0.28125,-0.5625 -0.3125,-0.4375 c 0,0 -0.321726,-0.047816 -0.40625,-0.03125 -0.08453,0.016565 -0.78125,-0.5 -0.78125,-0.5 l 0.0625,-0.5 0.25,-0.4375 1.1875,-0.15625 0.28125,0.03125 0,-0.3125 -1.71875,-2.25 -1.65625,-0.1875 -1.28125,-0.3125 c 0,0 -0.390895,0.295935 -0.59375,0.3125 -0.202856,0.016565 -0.90625,0.125 -0.90625,0.125 l -0.71875,-0.4375 -1.5,-0.125 -0.0625,-0.03125 -1.28125,-0.0625 -0.78125,-0.4375 z m -11.71875,4.875 3.5625,-2.6875 -1.21875,0.65625 -0.3125,-0.21875 -0.15625,-0.25 0.0625,-0.25 0.6875,0.03125 0.3125,-0.125 -0.625,-0.3125 -0.875,-0.3125 -0.875,-0.15625 -0.9375,0.1875 -0.96875,0.78125 -0.4375,0.4375 -0.65625,0.71875 -0.25,0.03125 -0.09375,0.34375 0.125,0.34375 c 0,0 0.133701,0.15625 0.15625,0.15625 0.02255,0 0.25,-0.125 0.25,-0.125 0,0 0.0266,-0.1175809 0.15625,-0.15625 0.129659,-0.038669 0.25,-0.0625 0.25,-0.0625 l 0.1875,0.375 0.21875,0.3125 0.09375,0.25 c 0,0 0.363725,-0.2223792 0.375,-0.25 0.01128,-0.02762 0.03125,-0.40625 0.03125,-0.40625 l 0.28125,-0.1875 c 0,0 0.07378,-0.1341534 0.0625,-0.15625 C 25.17622,6.9466526 25,6.7499996 25,6.7499996 l -0.15625,-0.0625 0.0625,-0.3125 c 0,0 0.125,-0.049556 0.125,-0.09375 0,-0.044193 0.1875,-0.1875 0.1875,-0.1875 l 0.21875,-0.28125 0.15625,-0.1875 0.21875,-0.15625 0.25,0.1875 0,0.125 -0.21875,0.25 -0.0625,0.25 0,0.34375 0.1875,0.15625 0.34375,-0.03125 0.3125,-0.0625 0.28125,0.15625 -0.0625,0.21875 c 0,0 -0.194192,0.1875006 -0.25,0.21875 -0.05581,0.031249 -0.412304,-0.0625 -0.5,-0.03125 -0.0877,0.031249 -0.3125,0.3125 -0.3125,0.3125 0,0 -0.02389,0.2500013 0,0.3125 0.0095,0.024752 0.0086,0.064167 0,0.125 z m 3.65625,-2.6875 4,-0.6875 -0.03125,-0.15625 -0.3125,-0.4375 -0.65625,-0.0625 c 0,0 0.15625,0.6671744 0.15625,0.75 0,0.082825 -0.4375,0.03125 -0.4375,0.03125 l -0.75,0.03125 c 0,0 -1.083514,0.25 -1.21875,0.25 -0.130167,0 -0.762986,0.2605329 -0.8125,0.28125 l 0.0625,0 z m -25.15625,-1.8125 -0.5,0.5625 0.4375,0.21875 0.5625,-0.25 0.03125,0.625 0.46875,0.3125 0.5,-0.46875 0.6875,0.125 0.28125,-0.65625 -1.125,-0.09375 -1.34375,-0.375 z m 3.125,0.09375 0.4375,1.09375 -0.53125,0.0625 -0.40625,0.5 L 6,4.9687496 5.1875,5.2812496 4.40625,5.0937496 3.5,4.5312496 2.25,4.5624996 1.15625,5.0312496 0.4375,4.6874996 0,4.6562496 0,18.25 l 0.84375,0.46875 0.5,-0.0625 L 2.0625,19 l 1.09375,0.59375 0.15625,0.71875 0.875,0.84375 0.5,-0.375 0.40625,0.3125 L 5.03125,20.375 4.25,20.5625 4,19.65625 3.90625,19.25 l -0.6875,-0.625 0,-0.4375 L 3.75,17.625 3.40625,17.21875 2.84375,17.3125 2,18.15625 1.3125,18.0625 c 0,0 -0.3112204,-0.531253 -0.375,-0.65625 -0.06378,-0.124998 0.1875,-0.5625 0.1875,-0.5625 l -0.0625,-1.28125 0.71875,-0.5 0.5625,-0.1875 0.8125,0 1.125,-0.25 0.40625,0.53125 -0.0625,0.625 0.46875,0.40625 0.0625,-0.4375 c 0,0 -0.029971,-0.718754 -0.09375,-0.90625 -0.06378,-0.187496 0.5625,-0.625 0.5625,-0.625 l 0.5,-0.625 L 6.71875,12.875 7,12.3125 l 0.9375,-0.5 0.625,-0.6875 c 0,0 0.9336611,-0.156252 1.125,-0.25 0.1913389,-0.09375 0.066339,-0.437507 -0.125,-0.75 C 9.3711611,9.8125056 9.65625,9.4999996 9.65625,9.4999996 l 0.71875,-0.4375 0.625,0.125 0.0625,0.75 c 0,0 0.589911,0.5624984 0.78125,0.4687504 C 12.035089,10.3125 12.125,9.9999996 12.125,9.9999996 l -0.3125,-0.8125 0.1875,-0.8125 -0.84375,0.125 0,-0.84375 0,-0.53125 -0.25,0.25 -0.65625,0.03125 -0.09375,-0.6875 -0.4375,-0.53125 c 0,0 -0.4291823,0.2500032 -0.84375,0.40625 -0.4145677,0.1562468 -0.3125,0.46875 -0.3125,0.46875 l -0.03125,0.84375 -0.6875,0.5625 -0.4375,0.65625 c 0,0 -0.28125,-0.1875026 -0.28125,-0.3125 0,-0.1249975 -0.0625,-0.46875 -0.0625,-0.46875 l -0.71875,-0.5625 c 0,0 -0.5618602,-0.4062526 -0.59375,-0.53125 -0.03189,-0.1249975 0.34375,-0.6875 0.34375,-0.6875 0,0 0.8086611,-0.5000032 1,-0.65625 0.191339,-0.1562468 1.2161907,0.3437481 1.34375,0.25 0.1275593,-0.093748 0.625,-0.875 0.625,-0.875 l 0.4375,-0.59375 -0.4375,0.5 -0.75,-0.71875 0.125,-0.71875 -1.03125,-0.15625 z m 2.5,0.03125 -0.25,0.625 0.15625,0.34375 0.5625,-0.0625 0.25,0.46875 -0.5,0.53125 -0.5625,0.0625 0.5,0.21875 0.53125,0.46875 0.53125,0.125 0.1875,-0.71875 0.03125,-0.4375 0.625,0.09375 c 0,0 -0.189419,0.3125 -0.09375,0.3125 0.09567,0 0.46875,-0.40625 0.46875,-0.40625 l -1.0625,-1.09375 c 0,0 -0.43494,-0.3437481 -0.5625,-0.25 -0.127559,0.093748 -0.46875,0.0625 -0.46875,0.0625 l -0.34375,-0.34375 z m 8.6875,1.78125 -0.125,0.40625 c 0.454228,0.3513991 0.625,0.34375 0.625,0.34375 l 0.53125,-0.125 0.34375,-0.34375 -0.21875,-0.28125 -0.71875,0 -0.4375,0 z m 2.78125,1.78125 -0.25,0.21875 c -0.07172,0.3045459 -0.15625,0.625 -0.15625,0.625 l 0.46875,0.21875 0.0625,0.28125 -0.25,0.25 -0.21875,0.375 0.15625,0.15625 0.5625,-0.09375 0.5,-0.21875 -0.28125,-0.375 -0.09375,-0.65625 -0.34375,-0.375 -0.15625,-0.40625 z m -0.78125,1.1875 -0.28125,0.46875 0.375,0.15625 0.15625,-0.28125 -0.25,-0.34375 z M 5.15625,9.4687496 5.8125,9.7499996 6.25,10.3125 6.53125,10.75 c 0,0 -0.2487204,0.843754 -0.3125,1 -0.06378,0.156247 -0.25,-0.3125 -0.25,-0.3125 L 5.8125,10.625 5.28125,10.84375 4.875,11.8125 4.96875,11 5.09375,10.4375 4.4375,10.1875 5,9.6562496 l 0.15625,-0.1875 z m 26.375,0.7500004 c 0.135297,-0.04419 0.375,0.15625 0.375,0.15625 l -0.25,0.21875 0.09375,0.3125 0.28125,0.75 0.28125,0.46875 0.375,0.59375 -0.40625,0.1875 L 31.75,12.5625 31.53125,11.90625 c 0,0 -0.302203,-0.402462 -0.4375,-0.46875 -0.135295,-0.06629 -0.25,-0.28125 -0.25,-0.28125 l 0.125,-0.53125 c 0,0 0.427203,-0.362061 0.5625,-0.40625 z m -7.90625,1.1875 -0.375,0.71875 0.28125,0.28125 0.25,-0.21875 0.03125,-0.3125 -0.1875,-0.46875 z m -1.25,0.75 0,0.1875 0.15625,-0.03125 -0.15625,-0.15625 z m 2.15625,0.46875 -0.1875,0.0625 0.3125,0.53125 L 24.9375,13 24.53125,12.625 z m -20.125,4.1875 -0.3125,0.15625 0.53125,0.28125 0.59375,0.125 0.34375,0.46875 0.40625,-0.25 -0.0625,-0.28125 -0.6875,-0.5 -0.8125,0 z m 1.6875,3.09375 -0.8125,0.4375 L 5.1875,21.25 5,22.25 4.4375,23 4.46875,24.125 4.9375,25.28125 5.4375,26.6875 6.75,28 6.8125,28.75 6.90625,32.125 7.375,34.03125 c 0,0 0.286398,1.09911 0.21875,1.1875 -0.067648,0.08839 0.375,0.90625 0.375,0.90625 l 0.875,1.375 1.21875,0.53125 -0.5,-0.59375 -0.25,-0.6875 0.25,-0.71875 -0.65625,-0.34375 c 0,0 0.432353,-0.28661 0.5,-0.375 C 9.473899,35.22411 9.3125,34.84375 9.3125,34.84375 L 9.125,34.375 l 0.5,-0.65625 0.78125,-0.1875 0.125,-0.59375 -0.46875,-0.21875 0.1875,-0.5 L 11,32.125 11.65625,30.53125 12.125,29.4375 13.09375,28.96875 c 0,0 0.3125,-0.929921 0.3125,-1.0625 C 13.40625,27.77367 13.5,26.375 13.5,26.375 l 0.75,-1.03125 0.09375,-0.6875 L 13.78125,24.3125 13.3125,23.75 12.46875,23.8125 11.125,23.03125 10.84375,22.375 c 0,0 -0.4723,-0.8125 -0.5625,-0.8125 -0.0902,0 -0.65625,0.03125 -0.65625,0.03125 L 9.09375,21.0625 8.75,20.40625 7.40625,20.125 l -0.4375,-0.21875 -0.875,0 z m 36.4375,0.5 c 0.112747,0.13258 0.816053,2.21875 0.90625,2.21875 0.0902,0 0.625,0.0625 0.625,0.0625 l -0.28125,-0.84375 -1.25,-1.4375 z m -3.59375,0.0625 -0.3125,0.40625 0.15625,0.59375 0.34375,-0.375 -0.0625,-0.46875 -0.125,-0.15625 z M 47.03125,21.1875 45.5625,22 c 0,0.08839 -0.71875,0.6875 -0.71875,0.6875 l 0.1875,0.625 0.40625,0.46875 0.28125,0.6875 1.875,-1.21875 -0.5625,-2.0625 z M 42.4375,21.625 42,21.6875 l 2,3 0.53125,0.59375 1.3125,0.0625 0.8125,0.25 -0.875,-0.625 -1.25,-0.34375 -0.3125,-1.15625 -0.6875,-0.5625 L 42.4375,21.625 z m -10.5,4.875 0,0.4375 c -0.02255,0.06629 -0.40625,0.375 -0.40625,0.375 l -0.46875,0.21875 -0.34375,0.28125 0.25,0.34375 0.15625,0.15625 -0.40625,0.34375 0,0.5625 0.15625,0.59375 0.34375,0.09375 0.40625,-0.625 0.25,-0.40625 -0.0625,-0.5 0.375,-0.59375 0.125,-0.28125 0,-0.5625 -0.09375,-0.4375 -0.28125,0 z M 48,27.21875 C 47.9974,27.22035 47.96875,27.25 47.96875,27.25 l -0.5,1.03125 c 0,0 -1.10245,0.161613 -1.125,0.25 -0.02255,0.08839 -0.5625,0.375 -0.5625,0.375 -0.112747,0 -0.46875,0.65625 -0.46875,0.65625 l -0.0625,2.0625 -0.125,0.75 0.3125,0.40625 1.53125,-0.53125 0.5,-0.5625 0.53125,0 0,-4.46875 z m -36.53125,8.75 -0.21875,0.15625 -0.09375,0.03125 0.5,0.25 -0.1875,-0.4375 z m -0.84375,0.1875 -0.21875,0.5 0.4375,-0.09375 -0.21875,-0.40625 z m 1.5,4.125 L 11.65625,41 l -0.875,0.40625 0.5,0.625 -0.75,0.375 -2.46875,-0.125 -0.75,-0.75 -0.65625,-0.125 0.65625,1.375 L 6.15625,42.5625 2.1875,42.6875 1.34375,43.78125 0.125,43.65625 0,43.90625 0,48 45.28125,48 48,46.21875 48,44.3125 47.875,43.125 46.90625,42.90625 45.6875,43.0625 l -0.875,0.78125 -1.46875,0.59375 0.625,-0.75 1.34375,-0.78125 2.15625,-0.5 0.25,-0.875 -1,0 c 0,0 -1.34375,-0.666976 -1.34375,-0.84375 0,-0.17677 -1.5,-0.125 -1.5,-0.125 L 42.15625,40.75 40.5,40.65625 l -3.3125,0.125 -3.0625,0.625 c 0,0 -1.475853,0.79419 -1.65625,0.75 -0.180396,-0.04419 0.625,-1.03125 0.625,-1.03125 l -1.4375,0.09375 -0.90625,-0.75 -0.90625,0.625 c 0,0 -1.215557,0.09375 -1.53125,0.09375 -0.315693,0 -0.71875,0.5625 -0.71875,0.5625 L 25.125,41.65625 20.875,41.84375 19.75,42.8125 19.46875,42.84375 16.25,42.625 l -2.21875,0.21875 -0.78125,-0.375 0.03125,-0.0625 c 0,0 -0.65625,-1.323228 -0.65625,-1.5 0,-0.176774 -0.5,-0.625 -0.5,-0.625 z m 0.34375,3.1875 1.34375,0.4375 -1.65625,0 L 11.5,43.5625 12.46875,43.46875 z" fill="#afdbef"/>
 <g>
  <path d="M 29.152344 6.816406 C 30.292969 7.035156 31.269531 7.289062 32.050781 7.632812 C 33.257812 8.148438 34.027344 8.832031 34.398438 9.617188 C 33.277344 9.417969 32.289062 9.46875 31.402344 9.804688 C 37.78125 12.238281 40.804688 15.144531 40.457031 18.488281 C 39.988281 17.789062 39.359375 17.335938 38.566406 17.105469 C 39.542969 20.773438 39.652344 23.777344 38.859375 26.167969 C 38.316406 24.574219 37.808594 23.640625 37.363281 23.304688 C 37.980469 28.222656 37.144531 31.855469 34.851562 34.222656 C 35.289062 32.777344 35.472656 31.601562 35.375 30.667969 C 32.683594 34.558594 29.617188 36.550781 26.1875 36.675781 C 24.832031 36.660156 23.550781 36.488281 22.34375 36.109375 C 20.578125 35.539062 18.980469 34.539062 17.554688 33.152344 C 19.777344 33.328125 21.796875 32.953125 23.582031 32.082031 L 26.515625 30.257812 C 26.882812 29.992188 27.242188 30.019531 27.589844 30.183594 C 28.304688 30.085938 28.488281 29.878906 28.285156 29.230469 C 27.832031 28.847656 27.429688 28.34375 26.753906 27.976562 C 25.289062 27.242188 23.765625 27.191406 22.183594 28.3125 C 20.660156 29.140625 19.207031 29.097656 17.785156 28.21875 C 16.851562 27.601562 15.949219 26.769531 15.082031 25.730469 L 14.753906 25.261719 L 14.753906 25.222656 C 14.796875 24.195312 15.210938 23.648438 16.058594 23.523438 C 17.011719 23.605469 18.109375 23.808594 19.347656 24.152344 C 19.554688 23.011719 19.28125 21.824219 18.535156 20.597656 L 18.558594 20.460938 C 19.71875 19.425781 20.679688 18.800781 21.558594 18.316406 C 21.878906 17.902344 22.011719 17.753906 22.242188 17.382812 C 22.191406 17.273438 22.292969 17.214844 22.359375 17.269531 C 22.425781 16.957031 22.429688 16.996094 22.140625 16.59375 C 21.292969 16.796875 20.328125 16.554688 19.675781 16.390625 C 19.339844 16.296875 18.882812 16.089844 18.359375 15.609375 L 17.023438 14.351562 L 16.675781 13.917969 L 16.707031 13.757812 C 16.859375 12.769531 17.351562 11.964844 17.75 11.210938 C 18.183594 10.519531 19 9.773438 20.226562 8.976562 C 17.945312 9.25 15.902344 10.234375 14.070312 11.933594 C 12.550781 11.398438 10.734375 11.515625 8.664062 12.28125 L 8.09375 12.371094 C 8.0625 12.386719 8.367188 12.488281 8.335938 12.503906 L 8.664062 12.28125 C 7.375 11.695312 7.433594 10.894531 7.011719 8.214844 C -0.636719 16.394531 -0.71875 28.675781 5.339844 37.558594 C 9.929688 43.292969 15.691406 46.339844 22.636719 46.746094 C 38.789062 47.46875 49.371094 33.550781 46.777344 19.433594 C 46.714844 18.316406 45.332031 13.476562 42.800781 10.195312 C 43.246094 11.894531 43.277344 13.75 43.289062 14.714844 C 42.339844 11.503906 39.710938 8.847656 35.894531 7.730469 C 34.007812 7.183594 31.746094 6.890625 29.152344 6.816406 Z M 29.152344 6.816406 " fill="#5a5a5a"/>
  <path d="M 41.039062 15.417969 C 41.09375 15.515625 41.136719 15.613281 41.1875 15.707031 C 41.183594 15.726562 41.191406 15.75 41.1875 15.761719 C 41.175781 15.746094 41.15625 15.722656 41.15625 15.707031 C 41.113281 15.609375 41.085938 15.515625 41.039062 15.417969 Z M 41.039062 15.417969 " fill="#ed7f43"/>
  <path d="M 26.597656 30.164062 C 26.925781 29.980469 27.34375 30.082031 27.65625 30.164062 C 27.964844 30.136719 28.566406 29.96875 28.328125 29.191406 C 27.929688 28.722656 27.328125 28.164062 26.140625 27.753906 Z M 26.597656 30.164062 " fill="#999999"/>
  <path d="M 19.773438 16.464844 L 21.496094 18.269531 C 21.738281 18.109375 22.03125 17.976562 22.148438 17.417969 C 22.171875 17.378906 22.203125 17.355469 22.257812 17.347656 C 22.464844 16.9375 22.257812 16.796875 22.003906 16.601562 C 21.273438 16.613281 20.746094 16.578125 19.773438 16.464844 Z M 19.773438 16.464844 " fill="#2d2d2d"/>
  <path d="M 18.660156 20.464844 C 18.445312 19.960938 18.054688 19.269531 17.582031 18.890625 L 20.550781 17.414062 L 21.464844 18.363281 C 20.421875 18.996094 19.476562 19.644531 18.660156 20.464844 Z M 18.660156 20.464844 " fill="#999999"/>
  <path d="M 17.042969 14.054688 C 16.515625 15.847656 16.84375 17.46875 17.636719 18.957031 L 20.613281 17.359375 C 20.21875 16.894531 19.808594 16.445312 19.808594 16.445312 C 19.503906 16.351562 19.113281 16.082031 18.636719 15.609375 L 17.417969 14.355469 Z M 17.042969 14.054688 " fill="#d6d6d6"/>
 </g>
</svg>
