<!-- color: #5585bf -->
<svg xmlns="http://www.w3.org/2000/svg" width="48" height="48" viewBox="0 0 48 48">
 <g>
  <path d="M 13.777344 35 L 34.222656 35 C 36 35 36 35 36 33.285156 L 36 18.714844 L 24 11 L 12 18.714844 L 12 33.285156 C 12 35 12 35 13.777344 35 Z M 13.777344 35 " fill="#ab9c2c"/>
  <path d="M 14 13 L 14 33 L 34 33 L 34 13 Z M 14 13 " fill="#f9f9f9"/>
  <path d="M 13.777344 35 L 34.222656 35 C 36 35 36 35 36 33.316406 L 36 19 L 12 33.316406 C 12 35 12 35 13.777344 35 Z M 13.777344 35 " fill="#c8b93e"/>
  <path d="M 34.222656 35 L 13.777344 35 C 12 35 12 35 12 33.316406 L 12 19 L 36 33.316406 C 36 35 36 35 34.222656 35 Z M 34.222656 35 " fill="#f2e253"/>
 </g>
</svg>
