<?xml version="1.0" encoding="UTF-8" standalone="no"?>
<!-- Created with Inkscape (http://www.inkscape.org/) -->

<svg
   xmlns:dc="http://purl.org/dc/elements/1.1/"
   xmlns:cc="http://creativecommons.org/ns#"
   xmlns:rdf="http://www.w3.org/1999/02/22-rdf-syntax-ns#"
   xmlns:svg="http://www.w3.org/2000/svg"
   xmlns="http://www.w3.org/2000/svg"
   xmlns:xlink="http://www.w3.org/1999/xlink"
   xmlns:sodipodi="http://sodipodi.sourceforge.net/DTD/sodipodi-0.dtd"
   xmlns:inkscape="http://www.inkscape.org/namespaces/inkscape"
   sodipodi:docname="application-vnd.ms-powerpoint.presentation.macroEnabled.12.svg"
   inkscape:version="0.48.4 r9939"
   version="1.1"
   id="svg2"
   height="96"
   width="96">
  <sodipodi:namedview
     id="base"
     pagecolor="#ffffff"
     bordercolor="#000000"
     borderopacity="1"
     inkscape:pageopacity="0"
     inkscape:pageshadow="2"
     inkscape:zoom="2.953125"
     inkscape:cx="-19.622138"
     inkscape:cy="50.084648"
     inkscape:document-units="px"
     inkscape:current-layer="layer1"
     showgrid="true"
     inkscape:snap-page="true"
     inkscape:snap-bbox="true"
     inkscape:window-width="1301"
     inkscape:window-height="744"
     inkscape:window-x="65"
     inkscape:window-y="24"
     inkscape:window-maximized="1"
     showguides="true"
     inkscape:guide-bbox="true">
    <inkscape:grid
       snapvisiblegridlinesonly="true"
       enabled="true"
       visible="true"
       empspacing="6"
       id="grid2985"
       type="xygrid" />
    <sodipodi:guide
       id="guide3779"
       position="90,60"
       orientation="0,1" />
    <sodipodi:guide
       id="guide3781"
       position="54,24"
       orientation="0,1" />
    <sodipodi:guide
       id="guide3783"
       position="78,54"
       orientation="1,0" />
    <sodipodi:guide
       id="guide3785"
       position="42,54"
       orientation="1,0" />
  </sodipodi:namedview>
  <defs
     id="defs4">
    <linearGradient
       id="linearGradient4013"
       inkscape:collect="always">
      <stop
         id="stop4015"
         offset="0"
         style="stop-color:#000000;stop-opacity:1;" />
      <stop
         id="stop4017"
         offset="1"
         style="stop-color:#000000;stop-opacity:0;" />
    </linearGradient>
    <linearGradient
       id="linearGradient4005"
       inkscape:collect="always">
      <stop
         id="stop4007"
         offset="0"
         style="stop-color:#000000;stop-opacity:1;" />
      <stop
         id="stop4009"
         offset="1"
         style="stop-color:#000000;stop-opacity:0;" />
    </linearGradient>
    <linearGradient
       gradientUnits="userSpaceOnUse"
       y2="48"
       x2="30"
       y1="-1.4210855e-14"
       x1="30"
       id="linearGradient4011"
       xlink:href="#linearGradient4005"
       inkscape:collect="always" />
    <linearGradient
       gradientUnits="userSpaceOnUse"
       y2="956.36218"
       x2="54"
       y1="956.36218"
       x1="12"
       id="linearGradient4019"
       xlink:href="#linearGradient4013"
       inkscape:collect="always" />
  </defs>
  <metadata
     id="metadata7">
    <rdf:RDF>
      <cc:Work
         rdf:about="">
        <dc:format>image/svg+xml</dc:format>
        <dc:type
           rdf:resource="http://purl.org/dc/dcmitype/StillImage" />
        <dc:title />
      </cc:Work>
    </rdf:RDF>
  </metadata>
  <g
     transform="translate(0,-956.36218)"
     id="layer1"
     inkscape:groupmode="layer"
     inkscape:label="Layer 1">
    <path
       style="fill:#ff6f00;fill-opacity:1;stroke:none"
       d="m 18,956.36218 c -3.324,0 -6,2.676 -6,6 l 0,66.00002 12,12 12,12 42,0 c 3.324,0 6,-2.676 6,-6 l 0,-84.00002 c 0,-3.324 -2.676,-6 -6,-6 l -60,0 z"
       id="rect3856"
       inkscape:connector-curvature="0" />
    <path
       id="path3887"
       transform="translate(0,956.36218)"
       d="M 34.25 73.75 C 35.3345 74.8345 36 76.338 36 78 L 36 96 L 56.5 96 L 34.25 73.75 z "
       style="opacity:0.5;fill:#000000;fill-opacity:1;stroke:none" />
    <path
       style="opacity:0.5;fill:#ffffff;fill-opacity:1;stroke:none"
       d="m 12,1028.3622 12,12 12,12 0,-18 c 0,-3.324 -2.676,-6 -6,-6 l -18,0 z"
       id="path3859"
       inkscape:connector-curvature="0" />
    <path
       inkscape:connector-curvature="0"
       id="path3944"
       d="m 12,962.36218 0,36 21,-21 21,-21 -36,0 c -3.324,0 -6,2.676 -6,6 z"
       style="fill:url(#linearGradient4019);fill-opacity:1;stroke:none;opacity:0.1" />
    <path
       transform="translate(0,956.36218)"
       sodipodi:nodetypes="sccccs"
       inkscape:connector-curvature="0"
       id="path3939"
       d="M 12,6 12,48 60,48 33,21 13.75,1.75 C 12.6655,2.8345 12,4.338 12,6 z"
       style="opacity:0.1;fill:url(#linearGradient4011);fill-opacity:1;stroke:none" />
    <path
       inkscape:connector-curvature="0"
       id="path3782"
       d="m 53.936843,1027.0193 c -5.992103,-1.8535 -11.129211,-3.442 -11.415789,-3.5303 L 42,1023.3287 l 8e-5,-10.869 8e-5,-10.8691 11.555254,-3.61404 11.555248,-3.61438 6.444665,1.55746 6.444673,1.55762 0,14.92924 0,14.9292 -6.394735,1.5401 c -3.517103,0.8472 -6.480004,1.5344 -6.584214,1.5269 -0.10422,-0.016 -5.092099,-1.5298 -11.084208,-3.3834 z m 10.943245,-26.5458 c -0.02668,-0.022 -3.331142,0.6153 -7.343242,1.4165 l -7.294736,1.4567 -0.09475,8.7318 -0.09473,8.7314 -3.481441,1.1373 -3.481439,1.1371 3.955121,0.4501 c 2.17532,0.2477 7.067233,0.813 10.870913,1.2561 l 6.915787,0.8058 0.04848,-12.5413 c 0.02668,-6.8977 0.02668,-12.5593 0,-12.5815 z"
       style="opacity:0.4;fill:#000000;fill-opacity:1" />
    <path
       style="fill:#fff8f3;fill-opacity:1"
       d="m 53.936843,1025.0193 c -5.992103,-1.8535 -11.129211,-3.442 -11.415789,-3.5303 L 42,1021.3287 l 8e-5,-10.869 8e-5,-10.86906 11.555254,-3.61408 11.555248,-3.61438 6.444665,1.55746 6.444673,1.55762 0,14.92924 0,14.9292 -6.394735,1.5401 c -3.517103,0.8472 -6.480004,1.5344 -6.584214,1.5269 -0.10422,-0.016 -5.092099,-1.5298 -11.084208,-3.3834 z m 10.943245,-26.54579 c -0.02668,-0.0218 -3.331142,0.61534 -7.343242,1.41646 l -7.294736,1.45673 -0.09475,8.7318 -0.09473,8.7314 -3.481441,1.1373 -3.481439,1.1371 3.955121,0.4501 c 2.17532,0.2477 7.067233,0.813 10.870913,1.2561 l 6.915787,0.8058 0.04848,-12.5413 c 0.02668,-6.8977 0.02668,-12.55934 0,-12.58149 z"
       id="path3024"
       inkscape:connector-curvature="0" />
  </g>
</svg>
