<?xml version="1.0" encoding="UTF-8" standalone="no"?>
<!-- Created with Inkscape (http://www.inkscape.org/) -->

<svg
   xmlns:dc="http://purl.org/dc/elements/1.1/"
   xmlns:cc="http://creativecommons.org/ns#"
   xmlns:rdf="http://www.w3.org/1999/02/22-rdf-syntax-ns#"
   xmlns:svg="http://www.w3.org/2000/svg"
   xmlns="http://www.w3.org/2000/svg"
   xmlns:xlink="http://www.w3.org/1999/xlink"
   xmlns:sodipodi="http://sodipodi.sourceforge.net/DTD/sodipodi-0.dtd"
   xmlns:inkscape="http://www.inkscape.org/namespaces/inkscape"
   sodipodi:docname="application-x-theme.svg"
   inkscape:version="0.48.4 r9939"
   version="1.1"
   id="svg2"
   height="96"
   width="96">
  <sodipodi:namedview
     id="base"
     pagecolor="#ffffff"
     bordercolor="#000000"
     borderopacity="1"
     inkscape:pageopacity="0"
     inkscape:pageshadow="2"
     inkscape:zoom="4.1763494"
     inkscape:cx="-9.4841909"
     inkscape:cy="32.130383"
     inkscape:document-units="px"
     inkscape:current-layer="layer1"
     showgrid="true"
     inkscape:snap-page="true"
     inkscape:snap-bbox="true"
     inkscape:window-width="1301"
     inkscape:window-height="744"
     inkscape:window-x="65"
     inkscape:window-y="24"
     inkscape:window-maximized="1"
     showguides="true"
     inkscape:guide-bbox="true">
    <inkscape:grid
       snapvisiblegridlinesonly="true"
       enabled="true"
       visible="true"
       empspacing="6"
       id="grid2985"
       type="xygrid" />
    <sodipodi:guide
       id="guide3779"
       position="90,60"
       orientation="0,1" />
    <sodipodi:guide
       id="guide3781"
       position="54,24"
       orientation="0,1" />
    <sodipodi:guide
       id="guide3783"
       position="78,54"
       orientation="1,0" />
    <sodipodi:guide
       id="guide3785"
       position="42,54"
       orientation="1,0" />
  </sodipodi:namedview>
  <defs
     id="defs4">
    <linearGradient
       id="linearGradient4013"
       inkscape:collect="always">
      <stop
         id="stop4015"
         offset="0"
         style="stop-color:#000000;stop-opacity:1;" />
      <stop
         id="stop4017"
         offset="1"
         style="stop-color:#000000;stop-opacity:0;" />
    </linearGradient>
    <linearGradient
       id="linearGradient4005"
       inkscape:collect="always">
      <stop
         id="stop4007"
         offset="0"
         style="stop-color:#000000;stop-opacity:1;" />
      <stop
         id="stop4009"
         offset="1"
         style="stop-color:#000000;stop-opacity:0;" />
    </linearGradient>
    <linearGradient
       gradientUnits="userSpaceOnUse"
       y2="48"
       x2="30"
       y1="-1.4210855e-14"
       x1="30"
       id="linearGradient4011"
       xlink:href="#linearGradient4005"
       inkscape:collect="always" />
    <linearGradient
       gradientUnits="userSpaceOnUse"
       y2="956.36218"
       x2="54"
       y1="956.36218"
       x1="12"
       id="linearGradient4019"
       xlink:href="#linearGradient4013"
       inkscape:collect="always" />
  </defs>
  <metadata
     id="metadata7">
    <rdf:RDF>
      <cc:Work
         rdf:about="">
        <dc:format>image/svg+xml</dc:format>
        <dc:type
           rdf:resource="http://purl.org/dc/dcmitype/StillImage" />
        <dc:title />
      </cc:Work>
    </rdf:RDF>
  </metadata>
  <g
     transform="translate(0,-956.36218)"
     id="layer1"
     inkscape:groupmode="layer"
     inkscape:label="Layer 1">
    <path
       style="fill:#f32fd0;fill-opacity:1;stroke:none"
       d="m 18,956.36218 c -3.324,0 -6,2.676 -6,6 l 0,66.00002 12,12 12,12 42,0 c 3.324,0 6,-2.676 6,-6 l 0,-84.00002 c 0,-3.324 -2.676,-6 -6,-6 l -60,0 z"
       id="rect3856"
       inkscape:connector-curvature="0" />
    <path
       id="path3887"
       transform="translate(0,956.36218)"
       d="M 34.25 73.75 C 35.3345 74.8345 36 76.338 36 78 L 36 96 L 56.5 96 L 34.25 73.75 z "
       style="opacity:0.5;fill:#000000;fill-opacity:1;stroke:none" />
    <path
       style="opacity:0.5;fill:#ffffff;fill-opacity:1;stroke:none"
       d="m 12,1028.3622 12,12 12,12 0,-18 c 0,-3.324 -2.676,-6 -6,-6 l -18,0 z"
       id="path3859"
       inkscape:connector-curvature="0" />
    <path
       inkscape:connector-curvature="0"
       id="path3944"
       d="m 12,962.36218 0,36 21,-21 21,-21 -36,0 c -3.324,0 -6,2.676 -6,6 z"
       style="fill:url(#linearGradient4019);fill-opacity:1;stroke:none;opacity:0.1" />
    <path
       transform="translate(0,956.36218)"
       sodipodi:nodetypes="sccccs"
       inkscape:connector-curvature="0"
       id="path3939"
       d="M 12,6 12,48 60,48 33,21 13.75,1.75 C 12.6655,2.8345 12,4.338 12,6 z"
       style="opacity:0.1;fill:url(#linearGradient4011);fill-opacity:1;stroke:none" />
    <path
       id="path3862"
       d="m 68.71875,970.36218 c -3.490801,0 -6.3125,2.82169 -6.3125,6.3125 0,3.4908 2.821699,6.34375 6.3125,6.34375 3.490801,0 6.3125,-2.85295 6.3125,-6.34375 0,-3.49081 -2.821699,-6.3125 -6.3125,-6.3125 z m -16.75,6.9375 c -1.617597,0 -3.234565,0.60957 -4.46875,1.84375 -2.468368,2.46837 -2.468368,6.46914 0,8.9375 2.468368,2.46837 6.469132,2.46837 8.9375,0 2.468368,-2.46836 2.468368,-6.46913 0,-8.9375 -1.234185,-1.23418 -2.851154,-1.84375 -4.46875,-1.84375 z M 84,977.58093 c -1.097103,0.26412 -2.147012,0.70952 -3,1.5625 -2.468368,2.46837 -2.468368,6.46914 0,8.9375 0.852986,0.85299 1.907307,1.33029 3,1.59375 l 0,-12.09375 z m -15.28125,6.25 c -1.91994,0 -3.46875,1.58005 -3.46875,3.5 0,1.91994 1.54881,3.46875 3.46875,3.46875 1.91994,0 3.46875,-1.54881 3.46875,-3.46875 0,-1.91995 -1.54881,-3.5 -3.46875,-3.5 z M 59.5,987.67468 c -0.889678,0 -1.789949,0.3212 -2.46875,1 -1.357603,1.3576 -1.357603,3.57989 0,4.9375 1.357602,1.3576 3.579898,1.3576 4.9375,0 1.357603,-1.35761 1.357603,-3.5799 0,-4.9375 -0.678801,-0.6788 -1.579072,-1 -2.46875,-1 z m 18.40625,0 c -0.889678,0 -1.758699,0.3212 -2.4375,1 -1.357602,1.3576 -1.357602,3.57989 0,4.9375 1.357602,1.3576 3.579897,1.3576 4.9375,0 1.357602,-1.35761 1.357602,-3.5799 0,-4.9375 -0.678801,-0.6788 -1.610322,-1 -2.5,-1 z m -9.1875,3.625 c -1.055967,0 -1.90625,0.85029 -1.90625,1.90625 0,1.05597 0.850283,1.90625 1.90625,1.90625 1.055967,0 1.90625,-0.85028 1.90625,-1.90625 0,-1.05596 -0.850283,-1.90625 -1.90625,-1.90625 z m -5.0625,2.09375 c -0.489323,0 -0.970409,0.18915 -1.34375,0.5625 -0.746682,0.74668 -0.746682,1.94083 0,2.6875 0.746681,0.74667 1.940818,0.74667 2.6875,0 0.746681,-0.74667 0.746681,-1.94082 0,-2.6875 -0.373341,-0.37335 -0.854428,-0.5625 -1.34375,-0.5625 z m 10.125,0 c -0.489323,0 -0.970409,0.18915 -1.34375,0.5625 -0.746682,0.74668 -0.746682,1.94083 0,2.6875 0.746681,0.74667 1.940818,0.74667 2.6875,0 0.746681,-0.74667 0.746681,-1.94082 0,-2.6875 -0.373341,-0.37335 -0.854428,-0.5625 -1.34375,-0.5625 z m -28.75,0.65625 c -3.4908,0 -6.3125,2.82175 -6.3125,6.31252 0,3.4907 2.8217,6.3125 6.3125,6.3125 3.490799,0 6.34375,-2.8218 6.34375,-6.3125 0,-3.49077 -2.852951,-6.31252 -6.34375,-6.31252 z m 10.65625,2.84375 c -1.919939,0 -3.46875,1.54884 -3.46875,3.46877 0,1.9199 1.548811,3.4687 3.46875,3.4687 1.91994,0 3.46875,-1.5488 3.46875,-3.4687 0,-1.91993 -1.54881,-3.46877 -3.46875,-3.46877 z m 26.0625,0 c -1.91994,0 -3.46875,1.54884 -3.46875,3.46877 0,1.9199 1.54881,3.4687 3.46875,3.4687 0.878419,0 1.639949,-0.3328 2.25,-0.875 l 0,-5.18747 c -0.610051,-0.53544 -1.371581,-0.875 -2.25,-0.875 z m -20.1875,1.53125 c -1.055967,0 -1.90625,0.88154 -1.90625,1.93752 0,1.0559 0.850283,1.9062 1.90625,1.9062 1.055967,0 1.90625,-0.8503 1.90625,-1.9062 0,-1.05598 -0.850283,-1.93752 -1.90625,-1.93752 z m 14.3125,0 c -1.055967,0 -1.90625,0.88154 -1.90625,1.93752 0,1.0559 0.850283,1.9062 1.90625,1.9062 1.055967,0 1.90625,-0.8503 1.90625,-1.9062 0,-1.05598 -0.850283,-1.93752 -1.90625,-1.93752 z m -12.21875,5.09372 c -0.489323,0 -0.970409,0.1891 -1.34375,0.5625 -0.746682,0.7467 -0.746682,1.9408 0,2.6875 0.746681,0.7466 1.940818,0.7466 2.6875,0 0.746681,-0.7467 0.746681,-1.9408 0,-2.6875 -0.373341,-0.3734 -0.854428,-0.5625 -1.34375,-0.5625 z m 10.125,0 c -0.489323,0 -0.970409,0.1891 -1.34375,0.5625 -0.746682,0.7467 -0.746682,1.9408 0,2.6875 0.746681,0.7466 1.940818,0.7466 2.6875,0 0.746681,-0.7467 0.746681,-1.9408 0,-2.6875 -0.373341,-0.3734 -0.854428,-0.5625 -1.34375,-0.5625 z m -5.0625,2.0938 c -1.055967,0 -1.90625,0.8503 -1.90625,1.9062 0,1.056 0.850283,1.9063 1.90625,1.9063 1.055967,0 1.90625,-0.8503 1.90625,-1.9063 0,-1.0559 -0.850283,-1.9062 -1.90625,-1.9062 z M 59.5,1006.0809 c -0.889678,0 -1.789949,0.3525 -2.46875,1.0313 -1.357603,1.3576 -1.357603,3.5799 0,4.9375 1.357602,1.3575 3.579898,1.3575 4.9375,0 1.357603,-1.3576 1.357603,-3.5799 0,-4.9375 -0.678801,-0.6788 -1.579072,-1.0313 -2.46875,-1.0313 z m 18.40625,0 c -0.889678,0 -1.758699,0.3525 -2.4375,1.0313 -1.357602,1.3576 -1.357602,3.5799 0,4.9375 1.357602,1.3575 3.579897,1.3575 4.9375,0 1.357602,-1.3576 1.357602,-3.5799 0,-4.9375 -0.678801,-0.6788 -1.610322,-1.0313 -2.5,-1.0313 z m -9.1875,3.8438 c -1.91994,0 -3.46875,1.5488 -3.46875,3.4687 0,1.92 1.54881,3.4688 3.46875,3.4688 1.91994,0 3.46875,-1.5488 3.46875,-3.4688 0,-1.9199 -1.54881,-3.4687 -3.46875,-3.4687 z m -16.75,0.8437 c -1.617597,0 -3.234565,0.6408 -4.46875,1.875 -2.468368,2.4683 -2.468368,6.4692 0,8.9375 2.468368,2.4684 6.469132,2.4684 8.9375,0 2.468368,-2.4683 2.468368,-6.4692 0,-8.9375 -1.234185,-1.2342 -2.851154,-1.875 -4.46875,-1.875 z M 84,1011.0497 c -1.097103,0.2641 -2.147012,0.7407 -3,1.5937 -2.468368,2.4683 -2.468368,6.4692 0,8.9375 0.852986,0.853 1.907307,1.2991 3,1.5625 l 0,-12.0937 z m -15.28125,6.6562 c -3.490801,0 -6.3125,2.8217 -6.3125,6.3125 0,3.4908 2.821699,6.3438 6.3125,6.3438 3.490801,0 6.3125,-2.853 6.3125,-6.3438 0,-3.4908 -2.821699,-6.3125 -6.3125,-6.3125 z"
       style="opacity:0.4;fill:#000000;fill-opacity:1;fill-rule:nonzero;stroke:none"
       inkscape:connector-curvature="0" />
    <path
       style="fill:#fef0fb;fill-opacity:1;fill-rule:nonzero;stroke:none"
       d="M 68.71875 12 C 65.227949 12 62.40625 14.82169 62.40625 18.3125 C 62.40625 21.8033 65.227949 24.65625 68.71875 24.65625 C 72.209551 24.65625 75.03125 21.8033 75.03125 18.3125 C 75.03125 14.82169 72.209551 12 68.71875 12 z M 51.96875 18.9375 C 50.351153 18.9375 48.734185 19.54707 47.5 20.78125 C 45.031632 23.24962 45.031632 27.25039 47.5 29.71875 C 49.968368 32.18712 53.969132 32.18712 56.4375 29.71875 C 58.905868 27.25039 58.905868 23.24962 56.4375 20.78125 C 55.203315 19.54707 53.586346 18.9375 51.96875 18.9375 z M 84 19.21875 C 82.902897 19.482868 81.852988 19.928265 81 20.78125 C 78.531632 23.24962 78.531632 27.25039 81 29.71875 C 81.852986 30.571738 82.907307 31.049042 84 31.3125 L 84 19.21875 z M 68.71875 25.46875 C 66.79881 25.46875 65.25 27.0488 65.25 28.96875 C 65.25 30.88869 66.79881 32.4375 68.71875 32.4375 C 70.63869 32.4375 72.1875 30.88869 72.1875 28.96875 C 72.1875 27.0488 70.63869 25.46875 68.71875 25.46875 z M 59.5 29.3125 C 58.610322 29.3125 57.710051 29.6337 57.03125 30.3125 C 55.673647 31.6701 55.673647 33.89239 57.03125 35.25 C 58.388852 36.6076 60.611148 36.6076 61.96875 35.25 C 63.326353 33.89239 63.326353 31.6701 61.96875 30.3125 C 61.289949 29.6337 60.389678 29.3125 59.5 29.3125 z M 77.90625 29.3125 C 77.016572 29.3125 76.147551 29.6337 75.46875 30.3125 C 74.111148 31.6701 74.111148 33.89239 75.46875 35.25 C 76.826352 36.6076 79.048647 36.6076 80.40625 35.25 C 81.763852 33.89239 81.763852 31.6701 80.40625 30.3125 C 79.727449 29.6337 78.795928 29.3125 77.90625 29.3125 z M 68.71875 32.9375 C 67.662783 32.9375 66.8125 33.78779 66.8125 34.84375 C 66.8125 35.89972 67.662783 36.75 68.71875 36.75 C 69.774717 36.75 70.625 35.89972 70.625 34.84375 C 70.625 33.78779 69.774717 32.9375 68.71875 32.9375 z M 63.65625 35.03125 C 63.166927 35.03125 62.685841 35.2204 62.3125 35.59375 C 61.565818 36.34043 61.565818 37.53458 62.3125 38.28125 C 63.059181 39.02792 64.253318 39.02792 65 38.28125 C 65.746681 37.53458 65.746681 36.34043 65 35.59375 C 64.626659 35.2204 64.145572 35.03125 63.65625 35.03125 z M 73.78125 35.03125 C 73.291927 35.03125 72.810841 35.2204 72.4375 35.59375 C 71.690818 36.34043 71.690818 37.53458 72.4375 38.28125 C 73.184181 39.02792 74.378318 39.02792 75.125 38.28125 C 75.871681 37.53458 75.871681 36.34043 75.125 35.59375 C 74.751659 35.2204 74.270572 35.03125 73.78125 35.03125 z M 45.03125 35.6875 C 41.54045 35.6875 38.71875 38.50925 38.71875 42 C 38.71875 45.49076 41.54045 48.3125 45.03125 48.3125 C 48.522049 48.3125 51.375 45.49076 51.375 42 C 51.375 38.50925 48.522049 35.6875 45.03125 35.6875 z M 55.6875 38.53125 C 53.767561 38.53125 52.21875 40.08009 52.21875 42 C 52.21875 43.91996 53.767561 45.46875 55.6875 45.46875 C 57.60744 45.46875 59.15625 43.91996 59.15625 42 C 59.15625 40.08009 57.60744 38.53125 55.6875 38.53125 z M 81.75 38.53125 C 79.83006 38.53125 78.28125 40.08009 78.28125 42 C 78.28125 43.91996 79.83006 45.46875 81.75 45.46875 C 82.628419 45.46875 83.389949 45.135965 84 44.59375 L 84 39.40625 C 83.389949 38.870813 82.628419 38.53125 81.75 38.53125 z M 61.5625 40.0625 C 60.506533 40.0625 59.65625 40.94404 59.65625 42 C 59.65625 43.05593 60.506533 43.90625 61.5625 43.90625 C 62.618467 43.90625 63.46875 43.05593 63.46875 42 C 63.46875 40.94404 62.618467 40.0625 61.5625 40.0625 z M 75.875 40.0625 C 74.819033 40.0625 73.96875 40.94404 73.96875 42 C 73.96875 43.05593 74.819033 43.90625 75.875 43.90625 C 76.930967 43.90625 77.78125 43.05593 77.78125 42 C 77.78125 40.94404 76.930967 40.0625 75.875 40.0625 z M 63.65625 45.15625 C 63.166927 45.15625 62.685841 45.34535 62.3125 45.71875 C 61.565818 46.46545 61.565818 47.65955 62.3125 48.40625 C 63.059181 49.15285 64.253318 49.15285 65 48.40625 C 65.746681 47.65955 65.746681 46.46545 65 45.71875 C 64.626659 45.34535 64.145572 45.15625 63.65625 45.15625 z M 73.78125 45.15625 C 73.291927 45.15625 72.810841 45.34535 72.4375 45.71875 C 71.690818 46.46545 71.690818 47.65955 72.4375 48.40625 C 73.184181 49.15285 74.378318 49.15285 75.125 48.40625 C 75.871681 47.65955 75.871681 46.46545 75.125 45.71875 C 74.751659 45.34535 74.270572 45.15625 73.78125 45.15625 z M 68.71875 47.25 C 67.662783 47.25 66.8125 48.10035 66.8125 49.15625 C 66.8125 50.21225 67.662783 51.0625 68.71875 51.0625 C 69.774717 51.0625 70.625 50.21225 70.625 49.15625 C 70.625 48.10035 69.774717 47.25 68.71875 47.25 z M 59.5 47.71875 C 58.610322 47.71875 57.710051 48.0712 57.03125 48.75 C 55.673647 50.1076 55.673647 52.3299 57.03125 53.6875 C 58.388852 55.045 60.611148 55.045 61.96875 53.6875 C 63.326353 52.3299 63.326353 50.1076 61.96875 48.75 C 61.289949 48.0712 60.389678 47.71875 59.5 47.71875 z M 77.90625 47.71875 C 77.016572 47.71875 76.147551 48.0712 75.46875 48.75 C 74.111148 50.1076 74.111148 52.3299 75.46875 53.6875 C 76.826352 55.045 79.048647 55.045 80.40625 53.6875 C 81.763852 52.3299 81.763852 50.1076 80.40625 48.75 C 79.727449 48.0712 78.795928 47.71875 77.90625 47.71875 z M 68.71875 51.5625 C 66.79881 51.5625 65.25 53.11135 65.25 55.03125 C 65.25 56.95125 66.79881 58.5 68.71875 58.5 C 70.63869 58.5 72.1875 56.95125 72.1875 55.03125 C 72.1875 53.11135 70.63869 51.5625 68.71875 51.5625 z M 51.96875 52.40625 C 50.351153 52.40625 48.734185 53.04705 47.5 54.28125 C 45.031632 56.74955 45.031632 60.75045 47.5 63.21875 C 49.968368 65.68715 53.969132 65.68715 56.4375 63.21875 C 58.905868 60.75045 58.905868 56.74955 56.4375 54.28125 C 55.203315 53.04705 53.586346 52.40625 51.96875 52.40625 z M 84 52.6875 C 82.902897 52.951611 81.852988 53.428251 81 54.28125 C 78.531632 56.74955 78.531632 60.75045 81 63.21875 C 81.852986 64.071749 82.907307 64.517788 84 64.78125 L 84 52.6875 z M 68.71875 59.34375 C 65.227949 59.34375 62.40625 62.16545 62.40625 65.65625 C 62.40625 69.14705 65.227949 72 68.71875 72 C 72.209551 72 75.03125 69.14705 75.03125 65.65625 C 75.03125 62.16545 72.209551 59.34375 68.71875 59.34375 z "
       transform="translate(0,956.36218)"
       id="path3091" />
  </g>
</svg>
