<?xml version="1.0" encoding="UTF-8" standalone="no"?>
<!-- Created with Inkscape (http://www.inkscape.org/) -->

<svg
   xmlns:dc="http://purl.org/dc/elements/1.1/"
   xmlns:cc="http://creativecommons.org/ns#"
   xmlns:rdf="http://www.w3.org/1999/02/22-rdf-syntax-ns#"
   xmlns:svg="http://www.w3.org/2000/svg"
   xmlns="http://www.w3.org/2000/svg"
   xmlns:xlink="http://www.w3.org/1999/xlink"
   xmlns:sodipodi="http://sodipodi.sourceforge.net/DTD/sodipodi-0.dtd"
   xmlns:inkscape="http://www.inkscape.org/namespaces/inkscape"
   sodipodi:docname="application-atom+xml.svg"
   inkscape:version="0.48.4 r9939"
   version="1.1"
   id="svg2"
   height="96"
   width="96">
  <sodipodi:namedview
     id="base"
     pagecolor="#ffffff"
     bordercolor="#000000"
     borderopacity="1"
     inkscape:pageopacity="0"
     inkscape:pageshadow="2"
     inkscape:zoom="8.3526988"
     inkscape:cx="35.643058"
     inkscape:cy="33.692683"
     inkscape:document-units="px"
     inkscape:current-layer="layer1"
     showgrid="true"
     inkscape:snap-page="true"
     inkscape:snap-bbox="true"
     inkscape:window-width="1301"
     inkscape:window-height="744"
     inkscape:window-x="65"
     inkscape:window-y="24"
     inkscape:window-maximized="1"
     showguides="true"
     inkscape:guide-bbox="true">
    <inkscape:grid
       snapvisiblegridlinesonly="true"
       enabled="true"
       visible="true"
       empspacing="6"
       id="grid2985"
       type="xygrid" />
    <sodipodi:guide
       id="guide3779"
       position="90,60"
       orientation="0,1" />
    <sodipodi:guide
       id="guide3781"
       position="54,24"
       orientation="0,1" />
    <sodipodi:guide
       id="guide3783"
       position="78,54"
       orientation="1,0" />
    <sodipodi:guide
       id="guide3785"
       position="42,54"
       orientation="1,0" />
  </sodipodi:namedview>
  <defs
     id="defs4">
    <linearGradient
       id="linearGradient4013"
       inkscape:collect="always">
      <stop
         id="stop4015"
         offset="0"
         style="stop-color:#000000;stop-opacity:1;" />
      <stop
         id="stop4017"
         offset="1"
         style="stop-color:#000000;stop-opacity:0;" />
    </linearGradient>
    <linearGradient
       id="linearGradient4005"
       inkscape:collect="always">
      <stop
         id="stop4007"
         offset="0"
         style="stop-color:#000000;stop-opacity:1;" />
      <stop
         id="stop4009"
         offset="1"
         style="stop-color:#000000;stop-opacity:0;" />
    </linearGradient>
    <linearGradient
       gradientUnits="userSpaceOnUse"
       y2="48"
       x2="30"
       y1="-1.4210855e-14"
       x1="30"
       id="linearGradient4011"
       xlink:href="#linearGradient4005"
       inkscape:collect="always" />
    <linearGradient
       gradientUnits="userSpaceOnUse"
       y2="956.36218"
       x2="54"
       y1="956.36218"
       x1="12"
       id="linearGradient4019"
       xlink:href="#linearGradient4013"
       inkscape:collect="always" />
  </defs>
  <metadata
     id="metadata7">
    <rdf:RDF>
      <cc:Work
         rdf:about="">
        <dc:format>image/svg+xml</dc:format>
        <dc:type
           rdf:resource="http://purl.org/dc/dcmitype/StillImage" />
        <dc:title />
      </cc:Work>
    </rdf:RDF>
  </metadata>
  <g
     transform="translate(0,-956.36218)"
     id="layer1"
     inkscape:groupmode="layer"
     inkscape:label="Layer 1">
    <path
       style="fill:#ffcc41;fill-opacity:1;stroke:none"
       d="m 18,956.36218 c -3.324,0 -6,2.676 -6,6 l 0,66.00002 12,12 12,12 42,0 c 3.324,0 6,-2.676 6,-6 l 0,-84.00002 c 0,-3.324 -2.676,-6 -6,-6 l -60,0 z"
       id="rect3856"
       inkscape:connector-curvature="0" />
    <path
       id="path3887"
       transform="translate(0,956.36218)"
       d="M 34.25 73.75 C 35.3345 74.8345 36 76.338 36 78 L 36 96 L 56.5 96 L 34.25 73.75 z "
       style="opacity:0.5;fill:#000000;fill-opacity:1;stroke:none" />
    <path
       style="opacity:0.5;fill:#ffffff;fill-opacity:1;stroke:none"
       d="m 12,1028.3622 12,12 12,12 0,-18 c 0,-3.324 -2.676,-6 -6,-6 l -18,0 z"
       id="path3859"
       inkscape:connector-curvature="0" />
    <path
       inkscape:connector-curvature="0"
       id="path3944"
       d="m 12,962.36218 0,36 21,-21 21,-21 -36,0 c -3.324,0 -6,2.676 -6,6 z"
       style="fill:url(#linearGradient4019);fill-opacity:1;stroke:none;opacity:0.1" />
    <path
       transform="translate(0,956.36218)"
       sodipodi:nodetypes="sccccs"
       inkscape:connector-curvature="0"
       id="path3939"
       d="M 12,6 12,48 60,48 33,21 13.75,1.75 C 12.6655,2.8345 12,4.338 12,6 z"
       style="opacity:0.1;fill:url(#linearGradient4011);fill-opacity:1;stroke:none" />
    <g
       style="opacity:0.1;fill:#000000;fill-opacity:1"
       transform="matrix(1.3782297,0.03764469,-0.03986529,1.3014589,-11.496066,-332.24747)"
       id="g3783">
      <path
         sodipodi:type="arc"
         style="fill:#000000;fill-opacity:1;stroke:none"
         id="path3785"
         sodipodi:cx="73.09375"
         sodipodi:cy="35.34375"
         sodipodi:rx="2.59375"
         sodipodi:ry="2.59375"
         d="m 75.6875,35.34375 c 0,1.432489 -1.161261,2.59375 -2.59375,2.59375 -1.432489,0 -2.59375,-1.161261 -2.59375,-2.59375 0,-1.432489 1.161261,-2.59375 2.59375,-2.59375 1.432489,0 2.59375,1.161261 2.59375,2.59375 z"
         transform="matrix(1.5903615,0,0,1.5903615,-42.497317,983.74869)" />
      <path
         style="fill:#000000;fill-opacity:1;stroke:none"
         d="M 81.623309,39.493041 87.054647,39.33594 C 86.412974,27.472262 77.71965,22.111012 69.215845,21.513749 l 0.162736,5.626143 c 6.840301,0.35132 11.942563,4.568397 12.244728,12.353149 z"
         id="path3787"
         inkscape:connector-curvature="0"
         sodipodi:nodetypes="ccccc"
         transform="translate(0,1004.3622)" />
      <path
         sodipodi:nodetypes="cccccc"
         inkscape:connector-curvature="0"
         id="path3789"
         d="m 91.300766,1043.5752 4.512204,-0.1401 c 0.301504,-15.7444 -13.972678,-26.728 -26.86652,-26.8727 l 0.148736,5.1421 c 11.84578,0.9298 21.922752,10.393 22.20558,21.8708 z"
         style="fill:#000000;fill-opacity:1;stroke:none" />
    </g>
    <g
       id="g7182"
       transform="matrix(1.3782297,0.03764469,-0.03986529,1.3014589,-12.496072,-333.2475)"
       style="fill:#ffffff;fill-opacity:1">
      <path
         transform="matrix(1.5903615,0,0,1.5903615,-42.497317,983.74869)"
         d="m 75.6875,35.34375 c 0,1.432489 -1.161261,2.59375 -2.59375,2.59375 -1.432489,0 -2.59375,-1.161261 -2.59375,-2.59375 0,-1.432489 1.161261,-2.59375 2.59375,-2.59375 1.432489,0 2.59375,1.161261 2.59375,2.59375 z"
         sodipodi:ry="2.59375"
         sodipodi:rx="2.59375"
         sodipodi:cy="35.34375"
         sodipodi:cx="73.09375"
         id="path7180"
         style="fill:#ffffff;fill-opacity:1;stroke:none"
         sodipodi:type="arc" />
      <path
         transform="translate(0,1004.3622)"
         sodipodi:nodetypes="ccccc"
         inkscape:connector-curvature="0"
         id="path7174"
         d="M 81.623309,39.493041 87.054647,39.33594 C 86.412974,27.472262 77.71965,22.111012 69.215845,21.513749 l 0.162736,5.626143 c 6.840301,0.35132 11.942563,4.568397 12.244728,12.353149 z"
         style="fill:#ffffff;fill-opacity:1;stroke:none" />
      <path
         style="fill:#ffffff;fill-opacity:1;stroke:none"
         d="m 91.300766,1043.5752 4.512204,-0.1401 c 0.301504,-15.7444 -13.972678,-26.728 -26.86652,-26.8727 l 0.148736,5.1421 c 11.84578,0.9298 21.922752,10.393 22.20558,21.8708 z"
         id="path7176"
         inkscape:connector-curvature="0"
         sodipodi:nodetypes="cccccc" />
    </g>
  </g>
</svg>
