<?xml version="1.0" encoding="UTF-8" standalone="no"?>
<!-- Created with Inkscape (http://www.inkscape.org/) -->

<svg
   xmlns:dc="http://purl.org/dc/elements/1.1/"
   xmlns:cc="http://creativecommons.org/ns#"
   xmlns:rdf="http://www.w3.org/1999/02/22-rdf-syntax-ns#"
   xmlns:svg="http://www.w3.org/2000/svg"
   xmlns="http://www.w3.org/2000/svg"
   xmlns:xlink="http://www.w3.org/1999/xlink"
   xmlns:sodipodi="http://sodipodi.sourceforge.net/DTD/sodipodi-0.dtd"
   xmlns:inkscape="http://www.inkscape.org/namespaces/inkscape"
   sodipodi:docname="gnome-mime-image-vnd.adobe.photoshop.svg"
   inkscape:version="0.48.4 r9939"
   version="1.1"
   id="svg2"
   height="96"
   width="96">
  <sodipodi:namedview
     id="base"
     pagecolor="#ffffff"
     bordercolor="#000000"
     borderopacity="1"
     inkscape:pageopacity="0"
     inkscape:pageshadow="2"
     inkscape:zoom="5.6568543"
     inkscape:cx="37.364651"
     inkscape:cy="56.274273"
     inkscape:document-units="px"
     inkscape:current-layer="layer1"
     showgrid="true"
     inkscape:snap-page="true"
     inkscape:snap-bbox="true"
     inkscape:window-width="1301"
     inkscape:window-height="744"
     inkscape:window-x="65"
     inkscape:window-y="24"
     inkscape:window-maximized="1"
     showguides="true"
     inkscape:guide-bbox="true"
     inkscape:snap-global="true">
    <inkscape:grid
       snapvisiblegridlinesonly="true"
       enabled="true"
       visible="true"
       empspacing="6"
       id="grid2985"
       type="xygrid" />
    <sodipodi:guide
       id="guide3779"
       position="90,60"
       orientation="0,1" />
    <sodipodi:guide
       id="guide3781"
       position="54,24"
       orientation="0,1" />
    <sodipodi:guide
       id="guide3783"
       position="78,54"
       orientation="1,0" />
    <sodipodi:guide
       id="guide3785"
       position="42,54"
       orientation="1,0" />
  </sodipodi:namedview>
  <defs
     id="defs4">
    <linearGradient
       id="linearGradient4013"
       inkscape:collect="always">
      <stop
         id="stop4015"
         offset="0"
         style="stop-color:#000000;stop-opacity:1;" />
      <stop
         id="stop4017"
         offset="1"
         style="stop-color:#000000;stop-opacity:0;" />
    </linearGradient>
    <linearGradient
       id="linearGradient4005"
       inkscape:collect="always">
      <stop
         id="stop4007"
         offset="0"
         style="stop-color:#000000;stop-opacity:1;" />
      <stop
         id="stop4009"
         offset="1"
         style="stop-color:#000000;stop-opacity:0;" />
    </linearGradient>
    <linearGradient
       gradientUnits="userSpaceOnUse"
       y2="48"
       x2="30"
       y1="-1.4210855e-14"
       x1="30"
       id="linearGradient4011"
       xlink:href="#linearGradient4005"
       inkscape:collect="always" />
    <linearGradient
       gradientUnits="userSpaceOnUse"
       y2="956.36218"
       x2="54"
       y1="956.36218"
       x1="12"
       id="linearGradient4019"
       xlink:href="#linearGradient4013"
       inkscape:collect="always" />
  </defs>
  <metadata
     id="metadata7">
    <rdf:RDF>
      <cc:Work
         rdf:about="">
        <dc:format>image/svg+xml</dc:format>
        <dc:type
           rdf:resource="http://purl.org/dc/dcmitype/StillImage" />
        <dc:title />
      </cc:Work>
    </rdf:RDF>
  </metadata>
  <g
     transform="translate(0,-956.36218)"
     id="layer1"
     inkscape:groupmode="layer"
     inkscape:label="Layer 1">
    <path
       style="fill:#65c4ff;fill-opacity:1;stroke:none"
       d="m 18,956.36218 c -3.324,0 -6,2.676 -6,6 l 0,66.00002 12,12 12,12 42,0 c 3.324,0 6,-2.676 6,-6 l 0,-84.00002 c 0,-3.324 -2.676,-6 -6,-6 l -60,0 z"
       id="rect3856"
       inkscape:connector-curvature="0" />
    <path
       id="path3887"
       transform="translate(0,956.36218)"
       d="M 34.25 73.75 C 35.3345 74.8345 36 76.338 36 78 L 36 96 L 56.5 96 L 34.25 73.75 z "
       style="opacity:0.5;fill:#000000;fill-opacity:1;stroke:none" />
    <path
       style="opacity:0.5;fill:#ffffff;fill-opacity:1;stroke:none"
       d="m 12,1028.3622 12,12 12,12 0,-18 c 0,-3.324 -2.676,-6 -6,-6 l -18,0 z"
       id="path3859"
       inkscape:connector-curvature="0" />
    <path
       inkscape:connector-curvature="0"
       id="path3944"
       d="m 12,962.36218 0,36 21,-21 21,-21 -36,0 c -3.324,0 -6,2.676 -6,6 z"
       style="fill:url(#linearGradient4019);fill-opacity:1;stroke:none;opacity:0.1" />
    <path
       inkscape:connector-curvature="0"
       id="path22"
       style="fill:#8edbff;fill-opacity:1;fill-rule:nonzero;stroke:none"
       d="m 25.522396,1022.1186 c -0.252013,0.1591 -0.555028,0.1655 -0.83263,0.2436 -0.130693,-0.096 -0.271271,-0.174 -0.400178,-0.2729 -0.07407,-0.1867 -0.160008,-0.3647 -0.289588,-0.513 0.01132,-0.051 0.03064,-0.1528 0.03913,-0.2016 0.298791,0 0.60939,-0.025 0.869953,-0.1889 0.409362,-0.2779 0.954866,-0.1909 1.335931,-0.5302 0.206373,-0.1337 0.479955,-0.083 0.669397,-0.2559 0.258716,-0.2459 0.657077,-0.1655 0.907954,-0.4242 0.1866,-0.1655 0.467704,-0.093 0.64285,-0.2801 0.205237,-0.2187 0.544095,-0.14 0.746878,-0.3575 0.162735,-0.191 0.446727,-0.1082 0.613508,-0.2951 0.140006,-0.1422 0.340903,-0.1571 0.51307,-0.2265 0.156144,-0.047 0.245558,-0.2287 0.412362,-0.2495 0.151372,-0.034 0.300606,-0.076 0.413816,-0.1952 0.186145,-0.1761 0.475774,-0.1273 0.654033,-0.3168 0.14319,-0.1655 0.376382,-0.1231 0.533435,-0.2574 0.245558,-0.2434 0.639782,-0.1846 0.835383,-0.5069 -0.05546,-0.2656 -0.111825,-0.5389 -0.02454,-0.8046 -0.02045,-0.414 0.121142,-0.8377 0.398065,-1.1301 0.32272,-0.3329 0.535936,-0.7628 0.784266,-1.1573 0.281674,-0.4229 0.447977,-0.9158 0.665625,-1.3766 0.156143,-0.3357 0.26483,-0.7289 0.549595,-0.9657 0.04796,0.1676 0.09387,0.3431 0.07705,0.5209 -0.03932,0.1995 -0.13637,0.3777 -0.190691,0.5719 0.04318,0.2287 0.113415,0.456 0.09932,0.694 -0.02045,0.1019 0.08182,0.1528 0.130915,0.2213 0.337539,-0.5975 0.528799,-1.2811 0.912569,-1.8498 0.132052,-0.1995 0.31406,-0.3512 0.44868,-0.5464 0.322015,-0.7365 0.599622,-1.5224 0.59862,-2.3478 0.04614,-0.299 0.211603,-0.5532 0.421909,-0.7478 0.471045,-0.4392 0.693944,-1.0921 1.110351,-1.581 0.217965,-0.2434 0.434113,-0.5077 0.736991,-0.623 0.455817,-0.6274 0.724127,-1.3847 0.904885,-2.1507 -0.01366,-0.4201 0.205921,-0.805 0.435499,-1.1269 0.07272,-0.1294 0.206602,-0.1846 0.325903,-0.2489 0.09841,0.4906 -0.115234,0.9646 -0.08978,1.4543 0.016,0.1549 -0.08887,0.2926 -0.05978,0.4488 0.04591,0.2164 -0.09546,0.4142 -0.05001,0.6327 0.0325,0.1762 -0.08,0.3357 -0.05524,0.5112 0.0316,0.1931 -0.08274,0.3749 -0.04932,0.5689 0.04477,0.2561 -0.05682,0.5018 -0.04932,0.7581 -0.08274,0.3959 -0.270037,0.7656 -0.274946,1.1804 -0.0641,0.2591 -0.01366,0.5315 -0.0875,0.7874 -0.0275,0.3949 0.143418,0.7754 0.138871,1.1688 -0.07409,0.2932 -0.0866,0.7036 0.157724,0.8984 -0.04977,-0.3482 0.07001,-0.6727 0.144785,-1.0041 0.02046,-0.3705 0.155909,-0.7195 0.186592,-1.0885 0.09614,-0.4738 0.158193,-0.954 0.257491,-1.427 0.06318,-0.1846 0.0316,-0.3821 0.03273,-0.5733 0.09683,0.1697 0.191374,0.3397 0.302129,0.4982 -0.03796,-0.3418 0.02773,-0.6726 0.05024,-1.0096 0.08887,-0.025 0.177965,-0.042 0.265718,-0.064 -0.03068,-0.6073 0.265148,-1.1942 0.181147,-1.8083 0.07387,-0.254 0.03546,-0.5258 0.117498,-0.777 -0.016,-0.331 0.111818,-0.6387 0.152728,-0.9625 0.0016,-0.3645 0.168655,-0.7002 0.171368,-1.0643 0.05524,-0.2674 0.08728,-0.5424 0.174784,-0.8 0.118181,-0.1718 0.189324,-0.3919 0.360405,-0.512 0.07272,0.2313 -0.07204,0.4482 -0.0366,0.6799 0.03342,0.2595 -0.106608,0.5026 -0.03273,0.7634 -0.122729,0.3393 0.03386,0.6958 -0.07864,1.0346 -0.02046,0.3253 0.152045,0.6413 0.08728,0.9682 -0.09615,0.3956 0.140236,0.7949 0.016,1.1868 -0.05818,0.2239 0.09092,0.45 0.01132,0.6709 -0.08797,0.2313 0.04591,0.4785 -0.02455,0.7113 -0.05592,0.2037 -0.02045,0.4233 -0.07932,0.6276 -0.0366,0.1358 0.0045,0.2733 0.01366,0.4085 0.03886,0.1952 -0.09318,0.3766 -0.03933,0.5687 0.02773,0.2121 0.100459,0.4248 0.05408,0.6401 -0.09181,0.4034 0.154563,0.8104 0.03068,1.2086 -0.05,0.1486 0.01132,0.299 0.0341,0.4441 0.02455,-0.03 0.07159,-0.087 0.09546,-0.1124 0.527731,-1.5982 1.07944,-3.1864 1.570555,-4.7976 0.06273,-0.1655 0.114103,-0.3365 0.19274,-0.4939 -0.03386,0.2892 -0.05613,0.5814 -0.122729,0.8655 -0.01366,0.1888 0.05455,0.3736 0.06796,0.5614 -2.71e-4,0.1443 -0.03273,0.2858 -0.03749,0.4293 0.0068,0.2508 0.08818,0.491 0.102508,0.7409 -0.06365,0.1889 -0.111369,0.3849 -0.04546,0.5848 0.07819,-0.034 0.155227,-0.07 0.230853,-0.1082 0.07546,-0.2037 -0.01132,-0.4152 -0.04522,-0.6175 0.05613,-0.04 0.111818,-0.081 0.166605,-0.1209 -0.0275,-0.1422 -0.04454,-0.2852 -0.05863,-0.4295 0.05479,0.083 0.109555,0.1677 0.166137,0.2502 -0.0366,0.1443 -0.107505,0.2896 -0.07319,0.4441 -3.42e-4,0.2122 0.263945,0.2792 0.250193,0.495 0.01366,0.1528 -0.09047,0.2892 -0.06636,0.4439 0.05545,0.2644 -0.217056,0.5797 0.06865,0.7711 0.09683,-0.6465 0.468113,-1.2203 0.475955,-1.8872 0.01366,-0.2122 -0.07727,-0.4254 -0.002,-0.6302 0.07864,-0.2387 -0.04228,-0.4903 0.02455,-0.7305 0.09683,-0.295 -0.107954,-0.5933 -0.01366,-0.8861 0.08886,-0.2459 -0.0666,-0.5044 0.01366,-0.7518 0.03796,-0.2387 0.07069,-0.4791 0.137953,-0.7123 0.09455,-0.3009 0.09841,-0.6211 0.149333,-0.9317 0.26149,-0.9795 0.495479,-1.9672 0.749674,-2.94775 0.321947,-0.034 0.581278,-0.24359 0.872496,-0.36984 0.06636,0.34735 0.07046,0.71409 0.200466,1.04439 0.08,0.1443 0.178648,0.303 0.123412,0.4813 -0.04183,-0.1231 -0.07454,-0.2496 -0.09933,-0.3784 -0.04341,0.025 -0.130009,0.036 -0.172734,0.049 0.02455,0.1549 0.04932,0.3128 0.06841,0.469 0.06636,0.047 0.132059,0.093 0.196601,0.1421 -0.05887,0.1931 -0.10364,0.4002 -0.03728,0.6003 0.118864,-0.091 0.172051,-0.241 0.237625,-0.3766 -0.0068,-0.1188 -0.0316,-0.2311 -0.05274,-0.3461 0.04204,-0.047 0.125695,-0.1358 0.16842,-0.1825 -0.01132,0.1974 0.0391,0.3883 0.116132,0.5655 0.06954,-0.2101 0.06933,-0.4316 -0.116132,-0.5655 -0.210464,-0.2569 0.0011,-0.5593 0.06047,-0.8311 0.05727,0.1443 0.128643,0.2822 0.21001,0.4114 0.04751,-0.2164 0.06341,-0.4971 -0.123861,-0.64337 -0.08818,-0.0721 -0.07591,-0.19945 -0.05727,-0.30045 0.0341,0.0976 0.06365,0.19733 0.09,0.296 0.04977,0.0297 0.148649,0.0891 0.19842,0.11882 -0.0366,-0.32804 0.04704,-0.64462 0.113185,-0.96088 0.04727,-0.15914 -0.0012,-0.33441 0.05455,-0.4935 0.06068,-0.33738 0.190241,-0.65566 0.242489,-0.99494 0.0366,-0.0255 0.109555,-0.0424 0.145468,-0.0573 0.07864,0.32082 0.09068,0.65162 0.01366,0.97203 0.05729,0.2238 -0.10932,0.44596 -0.0275,0.6591 0.269719,0.22874 0.294175,0.65544 0.186592,0.98589 0.03545,0.3853 -0.06864,0.7647 -0.11865,1.142 0.03068,0.247 0.08205,0.4939 0.183879,0.7195 0.07046,-0.2506 -0.0068,-0.5148 0.07591,-0.7641 -0.01132,-0.4581 0.123178,-0.9026 0.131141,-1.36101 0.134557,-0.91272 0.256582,-1.83546 0.487819,-2.7258 0.112287,-0.16763 0.217965,-0.34013 0.177048,-0.55763 0.0759,-0.0828 0.152513,-0.16762 0.220465,-0.25674 0.121148,-0.58776 0.247104,-1.17297 0.36604,-1.76221 0.03865,-0.14217 0.155012,-0.2472 0.280128,-0.30003 0.0068,0.1464 0.03796,0.30109 0,0.44707 -0.07136,0.23383 -0.04001,0.48442 -0.112736,0.71889 0.02455,0.23362 0.03342,0.46618 -0.04114,0.69215 0.03683,0.28815 0.107954,0.57609 0.02455,0.86403 0.08818,0.7853 0.254739,1.56339 0.445045,2.32732 0.05795,-0.0891 0.116815,-0.17612 0.170002,-0.27001 0.319925,-1.11287 0.727218,-2.20839 1.256312,-3.22731 0.206602,-0.48315 0.506185,-0.90837 0.780267,-1.34781 0.08613,0.10609 0.188875,0.19521 0.277081,0.29897 0.02045,0.10185 0.03681,0.20158 0.04977,0.30322 0.110686,-0.0297 0.221373,-0.0573 0.331764,-0.087 -0.0275,-0.11246 -0.05682,-0.22619 -0.08387,-0.34204 0.04388,0 0.131824,-0.0255 0.175915,-0.0297 0.03341,0.18672 -0.01366,0.35987 -0.121363,0.50776 0.165923,0.0424 0.330697,0.0255 0.479159,-0.0721 -0.01366,-0.34332 0.105924,-0.66797 0.247695,-0.96821 0.0534,-0.24359 0.08342,-0.49376 0.16682,-0.73056 0.07932,0.0552 0.156827,0.10822 0.233627,0.16551 0.229373,-0.27712 0.189324,-0.69385 0.427065,-0.95803 0.173866,-0.0828 0.350541,-0.1655 0.534664,-0.21643 0.05592,0.26036 0.08931,0.5258 0.165239,0.78106 0.06068,-0.0743 0.117283,-0.15277 0.17047,-0.23616 0.09273,0.0594 0.191374,0.10821 0.292333,0.14853 0.02045,0.17612 0.09454,0.36326 0.01366,0.53301 -0.09546,0.18036 0.0045,0.37324 0.107271,0.51901 -0.01366,0.0976 -0.02455,0.19734 -0.03749,0.29452 0.180014,0 0.240376,-0.2141 0.264832,-0.37515 0.150464,-0.85638 0.171153,-1.75988 0.527276,-2.55939 0.130692,-0.18885 0.305218,-0.33377 0.447091,-0.51074 1.153965,-1.16639 2.303387,-2.33957 3.505311,-3.4474 0.06681,-0.0615 0.12591,-0.13367 0.187275,-0.20157 -0.02455,0.0828 -0.04932,0.1655 -0.06933,0.24889 0.03591,0.10397 0.08524,0.19946 0.128194,0.29897 -0.03068,-0.25038 0.115917,-0.45832 0.150015,-0.69873 0.194106,-0.24104 0.442568,-0.42246 0.651465,-0.64802 0.07204,-0.0955 0.195237,-0.0976 0.29481,-0.13792 0.01366,0.24911 -0.182728,0.52113 -0.002,0.73926 0.02045,10e-4 0.06636,0 0.08797,0 0.02455,-0.34098 0.155909,-0.65905 0.206147,-0.99579 0.0875,-0.25951 0.292968,-0.44856 0.545369,-0.49991 -0.08886,0.40994 -0.326721,0.77596 -0.330949,1.20394 -0.06273,0.26503 -0.152279,0.52198 -0.258695,0.77024 -0.05137,0.12307 -0.02455,0.25887 0.01366,0.38024 -0.07932,0.15702 -0.09796,0.33292 -0.05477,0.50649 0.0275,-0.0276 0.08227,-0.0828 0.110003,-0.11034 0.184094,-0.6234 0.529322,-1.16999 0.714581,-1.79382 0.14455,-0.18248 0.344813,-0.32231 0.422362,-0.55911 0.07977,-0.25272 0.20342,-0.48443 0.296651,-0.73099 0.03318,0 0.09841,-0.0255 0.131142,-0.0297 0.05455,0.2612 -0.04068,0.51221 -0.117733,0.75453 -0.120016,0.32125 -0.207511,0.65523 -0.337222,0.97203 -0.0566,0.16763 0.03591,0.34671 -0.02045,0.51349 -0.06954,0.46511 -0.205464,0.91728 -0.410862,1.33381 -0.07001,0.11246 -0.01366,0.25101 7.52e-4,0.37302 0.0275,-0.0297 0.07727,-0.0827 0.103874,-0.11034 0.365699,-1.05244 0.772106,-2.08834 1.23081,-3.09686 0.140686,-0.22619 0.268833,-0.46957 0.463342,-0.64929 0.214102,-0.46554 0.407156,-0.9436 0.605916,-1.41847 0.143867,-0.35372 0.237922,-0.76812 0.537346,-1.01001 0.254444,-0.11882 0.453476,-0.33441 0.686693,-0.49355 0.274628,-0.15701 0.513821,-0.37769 0.784039,-0.54574 0.232126,-0.11458 0.43759,-0.27924 0.661828,-0.41037 0.169787,-0.18036 0.432067,-0.17187 0.60228,-0.35053 0.149781,-0.15065 0.381133,-0.10822 0.538322,-0.24593 0.252264,-0.22152 0.589599,-0.24104 0.893226,-0.32188 0.239127,-0.0467 0.477116,-0.12944 0.721401,-0.12519 0.250761,0.07 0.509843,0.0976 0.748833,0.21218 -0.162741,0.33271 -0.252901,0.69682 -0.380201,1.0446 -0.294515,0.87378 -0.589439,1.74842 -0.883999,2.62199 -0.127511,0.47954 -0.382293,0.91877 -0.434749,1.4191 0.26633,-0.14853 0.329174,-0.50924 0.467137,-0.77448 0.294468,-0.0255 0.43743,-0.34459 0.47441,-0.62149 0.116601,-0.27245 0.414156,-0.49694 0.322629,-0.83156 0.368995,-0.0934 0.318562,-0.57885 0.528935,-0.84026 0.349358,-0.46469 0.424977,-1.07367 0.651261,-1.60413 0.136138,0 0.277059,0 0.343221,0.15914 0.255331,-0.0488 0.517662,-0.16975 0.77681,-0.0806 0.505754,0.0488 1.024394,0.24104 1.389569,0.63825 0.247695,0.2385 0.421772,0.54872 0.613191,0.83793 0.100459,0.23871 0.10932,0.51731 0.257786,0.73162 0.120016,0.18248 0.140002,0.40634 0.185245,0.61555 -0.191374,0.21219 -0.442408,0.30534 -0.694739,0.39785 -0.181146,0.20158 -0.457749,0.21643 -0.640826,0.41568 -0.425568,0.15277 -0.717559,0.57269 -1.152785,0.69173 0.09591,0.15065 0.285947,0.0806 0.387337,-0.0255 0.194789,-0.21409 0.517322,-0.15702 0.715921,-0.36475 0.164107,-0.17399 0.426455,-0.11245 0.599577,-0.26947 0.223873,-0.20795 0.531912,-0.23107 0.803721,-0.32444 0.0866,0.0976 0.07522,0.25866 0.06341,0.38491 -0.05773,0.35902 0.153197,0.71507 0.03954,1.06985 -0.08477,0.59539 -0.254444,1.17233 -0.476024,1.7238 -0.279513,0.81289 -0.72549,1.53666 -1.087736,2.30605 -0.287765,0.5103 -0.599984,1.00258 -0.902726,1.50164 -0.278264,0.46129 -0.635123,0.85893 -0.911092,1.32192 -0.294809,0.48994 -0.686215,0.89968 -0.993822,1.37943 -0.659033,0.8392 -1.308997,1.68455 -1.998872,2.49362 -0.272467,0.34947 -0.566414,0.70785 -0.973389,0.87017 -0.264217,0.26736 -0.672533,0.21007 -0.93466,0.48061 -0.294515,0.14428 -0.654873,0.11033 -0.9165,0.34862 -0.430317,0.20582 -0.915341,0.23616 -1.359387,0.40438 -0.740832,0.47731 -1.675332,0.34522 -2.424892,0.80429 -0.764243,0.23871 -1.562419,0.35881 -2.316365,0.63913 0.241306,-0.03 0.48425,-0.04 0.72465,-0.07 0.787699,-0.16555 1.572669,-0.34549 2.35714,-0.52648 0.243717,-0.0488 0.469864,-0.16551 0.69151,-0.2786 0.562869,-0.19097 1.159263,-0.26471 1.712836,-0.48114 0.398565,-0.33159 0.958889,-0.20576 1.355454,-0.53953 0.266377,-0.14429 0.568596,-0.21007 0.865474,-0.2037 -0.955956,1.02544 -1.87157,2.09755 -2.858346,3.09035 -0.398679,0.4057 -0.621781,0.9595 -0.947161,1.4278 -0.152729,0.2546 -0.500229,0.1676 -0.694442,0.3715 -0.228763,0.2264 -0.578984,0.1401 -0.824588,0.3368 -0.343062,0.2807 -0.82604,0.1994 -1.170695,0.4753 -0.286559,0.2213 -0.688147,0.1294 -0.966411,0.3751 -0.323812,0.2434 -0.768902,0.1676 -1.084804,0.4316 -0.29147,0.219 -0.689239,0.1422 -0.977025,0.3701 -0.333676,0.2588 -0.794677,0.1824 -1.124512,0.4502 -0.276444,0.2101 -0.652078,0.1379 -0.92734,0.3495 -0.332973,0.2661 -0.795608,0.1888 -1.127171,0.4568 -0.219783,0.1655 -0.49807,0.1655 -0.747537,0.246 -0.155461,0.042 -0.267264,0.1824 -0.418179,0.2387 -0.329313,0.1145 -0.678785,0.1549 -0.998392,0.3055 0.753539,0.093 1.49728,-0.1634 2.229907,-0.3236 0.472751,-0.1973 0.976481,-0.2748 1.470323,-0.3842 0.141817,-0.038 0.287765,-0.023 0.429612,6e-4 -0.168635,0.1888 -0.418794,0.1719 -0.639099,0.2213 -0.202511,0.036 -0.397611,0.1061 -0.589098,0.1867 0.434818,0.081 0.893612,-0.047 1.259836,-0.3032 0.463341,-0.174 0.961092,-0.2264 1.421639,-0.4061 0.348903,-0.2387 0.766311,-0.2727 1.151284,-0.4013 0.274922,-0.241 0.629759,-0.2941 0.961912,-0.3917 -0.01132,0.038 -0.02455,0.1146 -0.03341,0.1528 -0.650192,0.5634 -1.273245,1.1639 -1.946188,1.6958 -0.200009,0.1401 -0.383519,0.3058 -0.575188,0.459 -0.347107,0.1846 -0.626781,0.4929 -0.993276,0.637 -0.160457,0.1994 -0.421317,0.1994 -0.596372,0.3715 -0.145467,0.1358 -0.350515,0.1337 -0.52048,0.2139 -0.337425,0.3815 -0.705216,0.7392 -1.130487,1.0019 -0.272173,0.1889 -0.531141,0.4085 -0.848929,0.4997 -0.230603,0.274 -0.60187,0.2122 -0.863702,0.4229 -0.192506,0.1634 -0.460113,0.1294 -0.665897,0.2642 -0.482001,0.4865 -1.024074,0.8956 -1.540645,1.3366 -0.332198,0.1718 -0.579459,0.5005 -0.937751,0.6134 -0.136372,0.1358 -0.295401,0.2264 -0.473114,0.2826 -0.283491,0.3213 -0.744833,0.2336 -1.060326,0.4955 -0.266081,0.123 -0.479024,0.3431 -0.756515,0.4392 -0.190008,0.191 -0.449363,0.2517 -0.66717,0.3966 -0.423407,0.2658 -0.981547,0.1591 -1.363817,0.5164 -0.395633,0.1783 -0.843518,0.1719 -1.244265,0.34 -0.25415,0.1188 -0.531073,0.1591 -0.805677,0.1655 -0.400543,0.057 -0.79188,0.1761 -1.190879,0.2436 0.01366,-0.045 0.02045,-0.087 0.03068,-0.1316 -0.46525,0.076 -0.927479,0.1867 -1.395843,0.2387 -0.188641,-0.096 -0.38595,-0.066 -0.584846,-0.036 -0.334745,-0.087 -0.674581,-0.1485 -1.002756,-0.2624 -0.126828,0.027 -0.33263,0.025 -0.326811,0.2058 0.132507,0 0.263899,0 0.39527,0 -0.05524,0.074 -0.111369,0.1485 -0.16682,0.2213 0.231786,0.028 0.439955,0.2058 0.673829,0.098 0.301243,0.049 0.600689,0.1103 0.9075,0.093 -0.147048,0.072 -0.292968,0.1485 -0.433271,0.2336 0.06045,0.025 0.179545,0.042 0.239762,0.055 0.136373,-0.098 0.251376,-0.2568 0.430249,-0.2568 0.08592,0.062 0.16887,0.1273 0.254739,0.1889 0.103192,-0.066 0.204101,-0.1422 0.323062,-0.1677 0.296333,-0.085 0.589894,0.1231 0.885862,0.03 0.354041,-0.087 0.718559,-0.1421 1.052553,-0.3021 0.14818,-0.062 0.306196,-0.028 0.456705,0 -0.165474,0.083 -0.336039,0.1655 -0.479206,0.2915 -0.179331,0.1825 -0.454933,0.1549 -0.646055,0.3141 -0.269401,0.2671 -0.68958,0.157 -0.965231,0.4184 -0.42993,0.2362 -0.932864,0.2493 -1.384681,0.4237 -0.491479,0.2882 -1.065167,0.4125 -1.6214,0.358 -0.291765,0.025 -0.576392,0.1124 -0.869042,0.1337 -0.367087,-0.079 -0.748833,-0.07 -1.109465,-0.1889 -0.433204,-0.1358 -0.812405,-0.4261 -1.128534,-0.7664 -0.449409,-0.2737 -0.965504,-0.047 -1.423661,0.076 -0.220467,0.1994 -0.494071,0.2612 -0.767448,0.3244 -0.173418,0.1401 -0.35554,0.2591 -0.566619,0.3242 -0.151143,0.1358 -0.32397,0.2288 -0.513708,0.2833 -0.156143,0.1825 -0.383723,0.2237 -0.578983,0.3304 -0.153417,0.1803 -0.398064,0.1846 -0.558323,0.3541 -0.146597,0.1358 -0.36986,0.121 -0.505707,0.278 -0.136598,0.1528 -0.360313,0.1252 -0.502683,0.2729 -0.234876,0.2215 -0.591394,0.157 -0.833133,0.3664 -0.180237,0.1676 -0.426454,0.1719 -0.645168,0.2362 -0.196374,0.049 -0.332427,0.2361 -0.531186,0.2767 -0.271241,0.098 -0.580211,0.1039 -0.816881,0.2957 -0.291106,0.2239 -0.688353,0.1443 -0.983731,0.3616 -0.366859,0.2846 -0.869703,0.2037 -1.239176,0.4821 -0.24283,0.1761 -0.546845,0.1804 -0.821268,0.2625 -0.220692,0.045 -0.383087,0.2385 -0.60328,0.2879 -0.372313,0.1273 -0.787266,0.1422 -1.11876,0.3856" />
    <path
       id="path3785"
       d="m 42,1005.6434 0,24.2188 6.09375,0 0,-7.9063 3.15625,0 c 0.866805,0 1.650283,-0.078 2.34375,-0.2187 0.704274,-0.1409 1.372798,-0.3446 1.96875,-0.5938 0.59592,-0.2492 1.137398,-0.5486 1.625,-0.9062 0.498402,-0.3576 0.931993,-0.7337 1.34375,-1.1563 0.671764,-0.6826 1.204918,-1.5439 1.5625,-2.5625 0.357541,-1.0185 0.531229,-2.0918 0.53125,-3.2187 -2.1e-5,-1.3977 -0.251601,-2.6173 -0.75,-3.625 -0.49844,-1.0185 -1.214861,-1.8307 -2.125,-2.4375 -0.823494,-0.5526 -1.731506,-0.9383 -2.75,-1.1875 -1.007689,-0.26 -2.196021,-0.4062 -3.59375,-0.4063 l -9.40625,0 z m 6.09375,4.5313 0.84375,0 c 0.899312,0 1.604899,0.019 2.125,0.062 0.530913,0.032 1.081971,0.1883 1.65625,0.4375 0.455065,0.1842 0.862429,0.5016 1.1875,1 0.325042,0.4876 0.468735,1.0986 0.46875,1.7812 -1.5e-5,0.7368 -0.06707,1.3166 -0.21875,1.75 -0.140872,0.4335 -0.400776,0.8491 -0.8125,1.25 -0.195047,0.1951 -0.506616,0.3688 -0.875,0.5313 -0.357575,0.1517 -0.674956,0.2583 -1,0.3125 -0.379244,0.065 -0.834506,0.083 -1.34375,0.094 -0.509265,0.011 -1.050743,0.031 -1.625,0.031 l -0.40625,0 0,-7.25 z m 22.875,0.9375 c -1.343575,0 -2.552321,0.1437 -3.625,0.4687 -1.061856,0.3251 -1.961545,0.76 -2.6875,1.3125 -0.725962,0.5635 -1.277019,1.2116 -1.65625,1.9375 -0.368399,0.7152 -0.562501,1.4999 -0.5625,2.3125 -10e-7,1.4195 0.378624,2.5599 1.09375,3.4375 0.725957,0.8669 1.788498,1.5245 3.21875,1.9688 0.509249,0.1625 1.089045,0.3075 1.75,0.4375 0.66094,0.1192 1.222833,0.2354 1.65625,0.3437 0.812632,0.1951 1.343274,0.4083 1.625,0.625 0.281705,0.2167 0.437489,0.515 0.4375,0.9375 -1.1e-5,0.5418 -0.319903,0.9383 -0.9375,1.1875 -0.606781,0.2492 -1.291953,0.375 -2.09375,0.375 -0.780142,0 -1.515723,-0.077 -2.1875,-0.25 -0.660953,-0.1842 -1.250329,-0.407 -1.78125,-0.6562 -0.61761,-0.2709 -1.122026,-0.5321 -1.46875,-0.7813 -0.346729,-0.2492 -0.635371,-0.4816 -0.90625,-0.6875 l -0.46875,0 0,4.8125 c 0.780134,0.3901 1.745624,0.7387 2.9375,1.0313 1.202704,0.2925 2.500177,0.4375 3.84375,0.4375 1.47358,0 2.730224,-0.1545 3.78125,-0.4688 1.061838,-0.3142 1.969851,-0.7695 2.75,-1.3437 0.73678,-0.5309 1.317831,-1.1682 1.71875,-1.9375 0.400887,-0.7802 0.593733,-1.6128 0.59375,-2.4688 -1.7e-5,-1.3544 -0.348648,-2.4373 -1.03125,-3.25 -0.671798,-0.8234 -1.657703,-1.4524 -2.96875,-1.875 -0.585114,-0.195 -1.204484,-0.3291 -1.84375,-0.4375 -0.628453,-0.1191 -1.168675,-0.2558 -1.65625,-0.375 -0.942672,-0.2275 -1.562042,-0.4491 -1.84375,-0.6875 -0.281723,-0.2383 -0.437507,-0.557 -0.4375,-0.9687 -7e-6,-0.4659 0.280312,-0.8433 0.84375,-1.125 0.574258,-0.2817 1.301515,-0.4063 2.125,-0.4063 0.617597,0 1.196137,0.047 1.78125,0.1875 0.595925,0.1409 1.148238,0.3146 1.625,0.5313 0.400889,0.1842 0.796163,0.4274 1.21875,0.6875 0.422559,0.2492 0.742451,0.4421 0.9375,0.5937 l 0.46875,0 0,-4.625 c -0.73681,-0.3575 -1.646078,-0.657 -2.71875,-0.9062 -1.072698,-0.26 -2.252706,-0.375 -3.53125,-0.375 z"
       style="font-size:33.28577805px;font-style:normal;font-weight:normal;text-align:center;line-height:100%;letter-spacing:0px;word-spacing:0px;text-anchor:middle;opacity:0.4;fill:#000000;fill-opacity:1;stroke:none;font-family:Sans"
       inkscape:connector-curvature="0" />
    <path
       style="font-size:33.28577804999999756px;font-style:normal;font-weight:normal;text-align:center;line-height:100%;letter-spacing:0px;word-spacing:0px;text-anchor:middle;fill:#f3fbff;fill-opacity:1;stroke:none;font-family:Sans"
       d="M 42 47.28125 L 42 71.5 L 48.09375 71.5 L 48.09375 63.59375 L 51.25 63.59375 C 52.116805 63.593758 52.900283 63.515866 53.59375 63.375 C 54.298024 63.23415 54.966548 63.030468 55.5625 62.78125 C 56.15842 62.532049 56.699898 62.232571 57.1875 61.875 C 57.685902 61.517448 58.119493 61.141334 58.53125 60.71875 C 59.203014 60.036143 59.736168 59.174772 60.09375 58.15625 C 60.451291 57.137754 60.624979 56.064378 60.625 54.9375 C 60.624979 53.539775 60.373399 52.320194 59.875 51.3125 C 59.37656 50.294011 58.660139 49.481794 57.75 48.875 C 56.926506 48.322427 56.018494 47.936733 55 47.6875 C 53.992311 47.427479 52.803979 47.281274 51.40625 47.28125 L 42 47.28125 z M 48.09375 51.8125 L 48.9375 51.8125 C 49.836812 51.81252 50.542399 51.831679 51.0625 51.875 C 51.593413 51.907525 52.144471 52.06331 52.71875 52.3125 C 53.173815 52.496718 53.581179 52.814099 53.90625 53.3125 C 54.231292 53.800102 54.374985 54.411149 54.375 55.09375 C 54.374985 55.83056 54.307928 56.410357 54.15625 56.84375 C 54.015378 57.277173 53.755474 57.692861 53.34375 58.09375 C 53.148703 58.288797 52.837134 58.462485 52.46875 58.625 C 52.111175 58.776706 51.793794 58.883337 51.46875 58.9375 C 51.089506 59.002524 50.634244 59.020427 50.125 59.03125 C 49.615735 59.042098 49.074257 59.062512 48.5 59.0625 L 48.09375 59.0625 L 48.09375 51.8125 z M 70.96875 52.75 C 69.625175 52.750019 68.416429 52.893712 67.34375 53.21875 C 66.281894 53.543824 65.382205 53.978672 64.65625 54.53125 C 63.930288 55.094698 63.379231 55.742806 63 56.46875 C 62.631601 57.183888 62.437499 57.968622 62.4375 58.78125 C 62.437499 60.200674 62.816124 61.341108 63.53125 62.21875 C 64.257207 63.085576 65.319748 63.743264 66.75 64.1875 C 67.259249 64.350035 67.839045 64.494984 68.5 64.625 C 69.16094 64.744194 69.722833 64.860404 70.15625 64.96875 C 70.968882 65.16379 71.499524 65.377052 71.78125 65.59375 C 72.062955 65.81046 72.218739 66.108682 72.21875 66.53125 C 72.218739 67.073015 71.898847 67.469544 71.28125 67.71875 C 70.674469 67.967963 69.989297 68.093753 69.1875 68.09375 C 68.407358 68.093753 67.671777 68.017117 67 67.84375 C 66.339047 67.659555 65.749671 67.436714 65.21875 67.1875 C 64.60114 66.916624 64.096724 66.655465 63.75 66.40625 C 63.403271 66.157045 63.114629 65.924625 62.84375 65.71875 L 62.375 65.71875 L 62.375 70.53125 C 63.155134 70.921318 64.120624 71.269949 65.3125 71.5625 C 66.515204 71.85505 67.812677 71.999999 69.15625 72 C 70.62983 71.999999 71.886474 71.845471 72.9375 71.53125 C 73.999338 71.217029 74.907351 70.761767 75.6875 70.1875 C 76.42428 69.656576 77.005331 69.019303 77.40625 68.25 C 77.807137 67.469869 77.999983 66.637237 78 65.78125 C 77.999983 64.426855 77.651352 63.343899 76.96875 62.53125 C 76.296952 61.707783 75.311047 61.078834 74 60.65625 C 73.414886 60.461227 72.795516 60.327113 72.15625 60.21875 C 71.527797 60.099574 70.987575 59.962949 70.5 59.84375 C 69.557328 59.616222 68.937958 59.394637 68.65625 59.15625 C 68.374527 58.917888 68.218743 58.599251 68.21875 58.1875 C 68.218743 57.7216 68.499062 57.34423 69.0625 57.0625 C 69.636758 56.780799 70.364015 56.656265 71.1875 56.65625 C 71.805097 56.656265 72.383637 56.702907 72.96875 56.84375 C 73.564675 56.984622 74.116988 57.15831 74.59375 57.375 C 74.994639 57.559213 75.389913 57.802469 75.8125 58.0625 C 76.235059 58.311723 76.554951 58.50457 76.75 58.65625 L 77.21875 58.65625 L 77.21875 54.03125 C 76.48194 53.673706 75.572672 53.374228 74.5 53.125 C 73.427302 52.864973 72.247294 52.750019 70.96875 52.75 z "
       transform="translate(0,956.36218)"
       id="text3012" />
    <path
       transform="translate(0,956.36218)"
       sodipodi:nodetypes="sccccs"
       inkscape:connector-curvature="0"
       id="path3939"
       d="M 12,6 12,48 60,48 33,21 13.75,1.75 C 12.6655,2.8345 12,4.338 12,6 z"
       style="opacity:0.1;fill:url(#linearGradient4011);fill-opacity:1;stroke:none" />
  </g>
</svg>
