<?xml version="1.0" encoding="UTF-8" standalone="no"?>
<!-- Created with Inkscape (http://www.inkscape.org/) -->

<svg
   xmlns:dc="http://purl.org/dc/elements/1.1/"
   xmlns:cc="http://creativecommons.org/ns#"
   xmlns:rdf="http://www.w3.org/1999/02/22-rdf-syntax-ns#"
   xmlns:svg="http://www.w3.org/2000/svg"
   xmlns="http://www.w3.org/2000/svg"
   xmlns:xlink="http://www.w3.org/1999/xlink"
   xmlns:sodipodi="http://sodipodi.sourceforge.net/DTD/sodipodi-0.dtd"
   xmlns:inkscape="http://www.inkscape.org/namespaces/inkscape"
   sodipodi:docname="opera-unite-application.svg"
   inkscape:version="0.48.4 r9939"
   version="1.1"
   id="svg2"
   height="96"
   width="96">
  <sodipodi:namedview
     id="base"
     pagecolor="#ffffff"
     bordercolor="#000000"
     borderopacity="1"
     inkscape:pageopacity="0"
     inkscape:pageshadow="2"
     inkscape:zoom="4.1763494"
     inkscape:cx="13.179982"
     inkscape:cy="38.895843"
     inkscape:document-units="px"
     inkscape:current-layer="layer1"
     showgrid="true"
     inkscape:snap-page="true"
     inkscape:snap-bbox="true"
     inkscape:window-width="1301"
     inkscape:window-height="744"
     inkscape:window-x="65"
     inkscape:window-y="24"
     inkscape:window-maximized="1"
     showguides="true"
     inkscape:guide-bbox="true">
    <inkscape:grid
       snapvisiblegridlinesonly="true"
       enabled="true"
       visible="true"
       empspacing="6"
       id="grid2985"
       type="xygrid" />
    <sodipodi:guide
       id="guide3779"
       position="-12,60"
       orientation="0,1" />
    <sodipodi:guide
       id="guide3781"
       position="54,24"
       orientation="0,1" />
    <sodipodi:guide
       id="guide3783"
       position="78,54"
       orientation="1,0" />
    <sodipodi:guide
       id="guide3785"
       position="42,54"
       orientation="1,0" />
  </sodipodi:namedview>
  <defs
     id="defs4">
    <linearGradient
       id="linearGradient4013"
       inkscape:collect="always">
      <stop
         id="stop4015"
         offset="0"
         style="stop-color:#000000;stop-opacity:1;" />
      <stop
         id="stop4017"
         offset="1"
         style="stop-color:#000000;stop-opacity:0;" />
    </linearGradient>
    <linearGradient
       id="linearGradient4005"
       inkscape:collect="always">
      <stop
         id="stop4007"
         offset="0"
         style="stop-color:#000000;stop-opacity:1;" />
      <stop
         id="stop4009"
         offset="1"
         style="stop-color:#000000;stop-opacity:0;" />
    </linearGradient>
    <linearGradient
       gradientUnits="userSpaceOnUse"
       y2="48"
       x2="30"
       y1="-1.4210855e-14"
       x1="30"
       id="linearGradient4011"
       xlink:href="#linearGradient4005"
       inkscape:collect="always" />
    <linearGradient
       gradientUnits="userSpaceOnUse"
       y2="956.36218"
       x2="54"
       y1="956.36218"
       x1="12"
       id="linearGradient4019"
       xlink:href="#linearGradient4013"
       inkscape:collect="always" />
  </defs>
  <metadata
     id="metadata7">
    <rdf:RDF>
      <cc:Work
         rdf:about="">
        <dc:format>image/svg+xml</dc:format>
        <dc:type
           rdf:resource="http://purl.org/dc/dcmitype/StillImage" />
        <dc:title />
      </cc:Work>
    </rdf:RDF>
  </metadata>
  <g
     transform="translate(0,-956.36218)"
     id="layer1"
     inkscape:groupmode="layer"
     inkscape:label="Layer 1">
    <path
       style="fill:#b394cc;fill-opacity:1;stroke:none"
       d="m 18,956.36218 c -3.324,0 -6,2.676 -6,6 l 0,66.00002 12,12 12,12 42,0 c 3.324,0 6,-2.676 6,-6 l 0,-84.00002 c 0,-3.324 -2.676,-6 -6,-6 l -60,0 z"
       id="rect3856"
       inkscape:connector-curvature="0" />
    <path
       id="path3887"
       transform="translate(0,956.36218)"
       d="M 34.25 73.75 C 35.3345 74.8345 36 76.338 36 78 L 36 96 L 56.5 96 L 34.25 73.75 z "
       style="opacity:0.5;fill:#000000;fill-opacity:1;stroke:none" />
    <path
       style="opacity:0.5;fill:#ffffff;fill-opacity:1;stroke:none"
       d="m 12,1028.3622 12,12 12,12 0,-18 c 0,-3.324 -2.676,-6 -6,-6 l -18,0 z"
       id="path3859"
       inkscape:connector-curvature="0" />
    <path
       inkscape:connector-curvature="0"
       id="path3944"
       d="m 12,962.36218 0,36 21,-21 21,-21 -36,0 c -3.324,0 -6,2.676 -6,6 z"
       style="fill:url(#linearGradient4019);fill-opacity:1;stroke:none;opacity:0.1" />
    <path
       transform="translate(0,956.36218)"
       sodipodi:nodetypes="sccccs"
       inkscape:connector-curvature="0"
       id="path3939"
       d="M 12,6 12,48 60,48 33,21 13.75,1.75 C 12.6655,2.8345 12,4.338 12,6 z"
       style="opacity:0.1;fill:url(#linearGradient4011);fill-opacity:1;stroke:none" />
    <g
       style="opacity:0.4;fill:#000000;fill-opacity:1"
       transform="matrix(0.56924243,0,0,0.56924243,99.224878,454.74184)"
       id="g3783">
      <path
         style="fill:#000000;fill-opacity:1;fill-rule:nonzero;stroke:none"
         d="m -70.461162,951.78615 c -18.631616,0.0715 -17.992642,29.60501 -0.03441,34.61081 -11.50415,-7.17107 -2.747977,-14.66121 0.03441,-14.66121 5.512282,0 9.965089,-4.47223 9.965089,-9.98451 0,-5.51228 -4.452807,-9.96509 -9.965089,-9.96509 z"
         id="path3785"
         inkscape:connector-curvature="0"
         sodipodi:nodetypes="ccssc"
         inkscape:transform-center-x="2.7185841"
         inkscape:transform-center-y="-17.305405" />
      <path
         inkscape:transform-center-y="12.778568"
         inkscape:transform-center-x="14.950467"
         sodipodi:nodetypes="ccssc"
         inkscape:connector-curvature="0"
         id="path3787"
         d="m -99.187811,1004.4224 c 9.377729,16.0997 34.635012,0.7796 29.991046,-17.27557 -0.458254,13.54837 -11.322992,9.71042 -12.714185,7.3008 -2.756141,-4.77377 -8.855609,-6.3939 -13.629384,-3.63776 -4.773776,2.75614 -6.403616,8.83879 -3.647477,13.61253 z"
         style="fill:#000000;fill-opacity:1;fill-rule:nonzero;stroke:none" />
      <path
         style="fill:#000000;fill-opacity:1;fill-rule:nonzero;stroke:none"
         d="m -39.240157,1002.9823 c 9.253885,-16.17119 -16.642353,-30.38459 -29.956606,-17.33521 11.96236,-6.37732 14.070967,4.95079 12.679771,7.36041 -2.756135,4.77377 -1.109475,10.8661 3.6643,13.6223 4.773775,2.7561 10.856424,1.1263 13.612535,-3.6475 z"
         id="path3789"
         inkscape:connector-curvature="0"
         sodipodi:nodetypes="ccssc"
         inkscape:transform-center-x="-16.388227"
         inkscape:transform-center-y="7.8582354" />
    </g>
    <g
       id="g3040"
       transform="matrix(0.56924243,0,0,0.56924243,99.224878,452.74184)"
       style="fill:#f4eff7;fill-opacity:1">
      <path
         inkscape:transform-center-y="-17.305405"
         inkscape:transform-center-x="2.7185841"
         sodipodi:nodetypes="ccssc"
         inkscape:connector-curvature="0"
         id="path3029"
         d="m -70.461162,951.78615 c -18.631616,0.0715 -17.992642,29.60501 -0.03441,34.61081 -11.50415,-7.17107 -2.747977,-14.66121 0.03441,-14.66121 5.512282,0 9.965089,-4.47223 9.965089,-9.98451 0,-5.51228 -4.452807,-9.96509 -9.965089,-9.96509 z"
         style="fill:#f4eff7;fill-opacity:1;fill-rule:nonzero;stroke:none" />
      <path
         style="fill:#f4eff7;fill-opacity:1;fill-rule:nonzero;stroke:none"
         d="m -99.187811,1004.4224 c 9.377729,16.0997 34.635012,0.7796 29.991046,-17.27557 -0.458254,13.54837 -11.322992,9.71042 -12.714185,7.3008 -2.756141,-4.77377 -8.855609,-6.3939 -13.629384,-3.63776 -4.773776,2.75614 -6.403616,8.83879 -3.647477,13.61253 z"
         id="path3036"
         inkscape:connector-curvature="0"
         sodipodi:nodetypes="ccssc"
         inkscape:transform-center-x="14.950467"
         inkscape:transform-center-y="12.778568" />
      <path
         inkscape:transform-center-y="7.8582354"
         inkscape:transform-center-x="-16.388227"
         sodipodi:nodetypes="ccssc"
         inkscape:connector-curvature="0"
         id="path3038"
         d="m -39.240157,1002.9823 c 9.253885,-16.17119 -16.642353,-30.38459 -29.956606,-17.33521 11.96236,-6.37732 14.070967,4.95079 12.679771,7.36041 -2.756135,4.77377 -1.109475,10.8661 3.6643,13.6223 4.773775,2.7561 10.856424,1.1263 13.612535,-3.6475 z"
         style="fill:#f4eff7;fill-opacity:1;fill-rule:nonzero;stroke:none" />
    </g>
  </g>
</svg>
