<?xml version="1.0" encoding="UTF-8" standalone="no"?>
<!-- Created with Inkscape (http://www.inkscape.org/) -->

<svg
   xmlns:dc="http://purl.org/dc/elements/1.1/"
   xmlns:cc="http://creativecommons.org/ns#"
   xmlns:rdf="http://www.w3.org/1999/02/22-rdf-syntax-ns#"
   xmlns:svg="http://www.w3.org/2000/svg"
   xmlns="http://www.w3.org/2000/svg"
   xmlns:xlink="http://www.w3.org/1999/xlink"
   xmlns:sodipodi="http://sodipodi.sourceforge.net/DTD/sodipodi-0.dtd"
   xmlns:inkscape="http://www.inkscape.org/namespaces/inkscape"
   sodipodi:docname="application-x-plasma.svg"
   inkscape:version="0.48.4 r9939"
   version="1.1"
   id="svg2"
   height="96"
   width="96">
  <sodipodi:namedview
     id="base"
     pagecolor="#ffffff"
     bordercolor="#000000"
     borderopacity="1"
     inkscape:pageopacity="0"
     inkscape:pageshadow="2"
     inkscape:zoom="8.3526988"
     inkscape:cx="43.231159"
     inkscape:cy="34.141648"
     inkscape:document-units="px"
     inkscape:current-layer="layer1"
     showgrid="true"
     inkscape:snap-page="true"
     inkscape:snap-bbox="true"
     inkscape:window-width="1301"
     inkscape:window-height="744"
     inkscape:window-x="65"
     inkscape:window-y="24"
     inkscape:window-maximized="1"
     showguides="true"
     inkscape:guide-bbox="true">
    <inkscape:grid
       snapvisiblegridlinesonly="true"
       enabled="true"
       visible="true"
       empspacing="6"
       id="grid2985"
       type="xygrid" />
    <sodipodi:guide
       id="guide3779"
       position="90,60"
       orientation="0,1" />
    <sodipodi:guide
       id="guide3781"
       position="54,24"
       orientation="0,1" />
    <sodipodi:guide
       id="guide3783"
       position="78,54"
       orientation="1,0" />
    <sodipodi:guide
       id="guide3785"
       position="42,54"
       orientation="1,0" />
  </sodipodi:namedview>
  <defs
     id="defs4">
    <linearGradient
       id="linearGradient4013"
       inkscape:collect="always">
      <stop
         id="stop4015"
         offset="0"
         style="stop-color:#000000;stop-opacity:1;" />
      <stop
         id="stop4017"
         offset="1"
         style="stop-color:#000000;stop-opacity:0;" />
    </linearGradient>
    <linearGradient
       id="linearGradient4005"
       inkscape:collect="always">
      <stop
         id="stop4007"
         offset="0"
         style="stop-color:#000000;stop-opacity:1;" />
      <stop
         id="stop4009"
         offset="1"
         style="stop-color:#000000;stop-opacity:0;" />
    </linearGradient>
    <linearGradient
       gradientUnits="userSpaceOnUse"
       y2="48"
       x2="30"
       y1="-1.4210855e-14"
       x1="30"
       id="linearGradient4011"
       xlink:href="#linearGradient4005"
       inkscape:collect="always" />
    <linearGradient
       gradientUnits="userSpaceOnUse"
       y2="956.36218"
       x2="54"
       y1="956.36218"
       x1="12"
       id="linearGradient4019"
       xlink:href="#linearGradient4013"
       inkscape:collect="always" />
  </defs>
  <metadata
     id="metadata7">
    <rdf:RDF>
      <cc:Work
         rdf:about="">
        <dc:format>image/svg+xml</dc:format>
        <dc:type
           rdf:resource="http://purl.org/dc/dcmitype/StillImage" />
        <dc:title />
      </cc:Work>
    </rdf:RDF>
  </metadata>
  <g
     transform="translate(0,-956.36218)"
     id="layer1"
     inkscape:groupmode="layer"
     inkscape:label="Layer 1">
    <path
       style="fill:#65c4ff;fill-opacity:1;stroke:none"
       d="m 18,956.36218 c -3.324,0 -6,2.676 -6,6 l 0,66.00002 12,12 12,12 42,0 c 3.324,0 6,-2.676 6,-6 l 0,-84.00002 c 0,-3.324 -2.676,-6 -6,-6 l -60,0 z"
       id="rect3856"
       inkscape:connector-curvature="0" />
    <path
       id="path3887"
       transform="translate(0,956.36218)"
       d="M 34.25 73.75 C 35.3345 74.8345 36 76.338 36 78 L 36 96 L 56.5 96 L 34.25 73.75 z "
       style="opacity:0.5;fill:#000000;fill-opacity:1;stroke:none" />
    <path
       style="opacity:0.5;fill:#ffffff;fill-opacity:1;stroke:none"
       d="m 12,1028.3622 12,12 12,12 0,-18 c 0,-3.324 -2.676,-6 -6,-6 l -18,0 z"
       id="path3859"
       inkscape:connector-curvature="0" />
    <path
       inkscape:connector-curvature="0"
       id="path3944"
       d="m 12,962.36218 0,36 21,-21 21,-21 -36,0 c -3.324,0 -6,2.676 -6,6 z"
       style="fill:url(#linearGradient4019);fill-opacity:1;stroke:none;opacity:0.1" />
    <path
       transform="translate(0,956.36218)"
       sodipodi:nodetypes="sccccs"
       inkscape:connector-curvature="0"
       id="path3939"
       d="M 12,6 12,48 60,48 33,21 13.75,1.75 C 12.6655,2.8345 12,4.338 12,6 z"
       style="opacity:0.1;fill:url(#linearGradient4011);fill-opacity:1;stroke:none" />
    <path
       id="path3777"
       d="m 57.6,994.36218 c -7.125362,0 -15.6,6.97902 -15.6,19.20002 0,9.6067 7.630559,16.8 16.8,16.8 8.399761,0 12,-4.0954 12,-9.5933 0,-6.15 -4.451039,-8.5001 -9.6,-9.5249 -6.82488,-1.3586 -6.074881,-8.3251 -2.700001,-9.6818 1.125121,-0.5182 2.700001,-1.069 2.700001,-3.59996 0,-1.91291 -1.611841,-3.60006 -3.6,-3.60006 z m 8.4,2.39998 c -1.325518,0 -2.4,1.07478 -2.4,2.40001 0,1.32563 1.074482,2.40003 2.4,2.40003 1.32552,0 2.400001,-1.0744 2.400001,-2.40003 0,-1.32523 -1.074481,-2.40001 -2.400001,-2.40001 z m 7.200001,7.19994 c -1.325521,0 -2.400001,1.0748 -2.400001,2.4001 0,1.3255 1.07448,2.4 2.400001,2.4 1.32552,0 2.399998,-1.0745 2.399998,-2.4 0,-1.3253 -1.074478,-2.4001 -2.399998,-2.4001 z m 2.399998,9.6001 c -1.325519,0 -2.399998,1.0747 -2.399998,2.4 0,1.3254 1.074479,2.4 2.399998,2.4 1.325521,0 2.400001,-1.0746 2.400001,-2.4 0,-1.3253 -1.07448,-2.4 -2.400001,-2.4 z"
       style="opacity:0.4;color:#000000;fill:#000000;fill-opacity:1;fill-rule:nonzero;stroke:none;stroke-width:1;marker:none;visibility:visible;display:inline;overflow:visible;enable-background:accumulate"
       inkscape:connector-curvature="0"
       sodipodi:nodetypes="ccssscccsssssssssssssss" />
    <path
       sodipodi:nodetypes="ccssscccsssssssssssssss"
       inkscape:connector-curvature="0"
       style="color:#000000;fill:#f3fbff;fill-opacity:1;fill-rule:nonzero;stroke:none;stroke-width:1;marker:none;visibility:visible;display:inline;overflow:visible;enable-background:accumulate"
       d="m 57.6,992.36218 c -7.125362,0 -15.6,6.97899 -15.6,19.20002 0,9.6067 7.630559,16.8 16.8,16.8 8.399761,0 12,-4.0954 12,-9.5933 0,-6.15 -4.451039,-8.5001 -9.6,-9.5249 -6.82488,-1.3586 -6.074881,-8.3251 -2.700001,-9.68184 C 59.62512,999.04402 61.2,998.49321 61.2,995.96224 c 0,-1.91291 -1.611841,-3.60006 -3.6,-3.60006 z m 8.4,2.39998 c -1.325518,0 -2.4,1.07478 -2.4,2.40001 0,1.32559 1.074482,2.39999 2.4,2.39999 1.32552,0 2.400001,-1.0744 2.400001,-2.39999 0,-1.32523 -1.074481,-2.40001 -2.400001,-2.40001 z m 7.200001,7.19994 c -1.325521,0 -2.400001,1.0748 -2.400001,2.4001 0,1.3255 1.07448,2.4 2.400001,2.4 1.32552,0 2.399998,-1.0745 2.399998,-2.4 0,-1.3253 -1.074478,-2.4001 -2.399998,-2.4001 z m 2.399998,9.6001 c -1.325519,0 -2.399998,1.0747 -2.399998,2.4 0,1.3254 1.074479,2.4 2.399998,2.4 1.325521,0 2.400001,-1.0746 2.400001,-2.4 0,-1.3253 -1.07448,-2.4 -2.400001,-2.4 z"
       id="path3834" />
  </g>
</svg>
