<?xml version="1.0" encoding="UTF-8" standalone="no"?>
<!-- Created with Inkscape (http://www.inkscape.org/) -->

<svg
   xmlns:dc="http://purl.org/dc/elements/1.1/"
   xmlns:cc="http://creativecommons.org/ns#"
   xmlns:rdf="http://www.w3.org/1999/02/22-rdf-syntax-ns#"
   xmlns:svg="http://www.w3.org/2000/svg"
   xmlns="http://www.w3.org/2000/svg"
   xmlns:xlink="http://www.w3.org/1999/xlink"
   xmlns:sodipodi="http://sodipodi.sourceforge.net/DTD/sodipodi-0.dtd"
   xmlns:inkscape="http://www.inkscape.org/namespaces/inkscape"
   sodipodi:docname="playlist-automatic.svg"
   inkscape:version="0.48.4 r9939"
   version="1.1"
   id="svg2"
   height="96"
   width="96">
  <sodipodi:namedview
     id="base"
     pagecolor="#ffffff"
     bordercolor="#000000"
     borderopacity="1"
     inkscape:pageopacity="0"
     inkscape:pageshadow="2"
     inkscape:zoom="5.90625"
     inkscape:cx="35.379084"
     inkscape:cy="46.689957"
     inkscape:document-units="px"
     inkscape:current-layer="layer1"
     showgrid="true"
     inkscape:snap-page="true"
     inkscape:snap-bbox="true"
     inkscape:window-width="1301"
     inkscape:window-height="744"
     inkscape:window-x="65"
     inkscape:window-y="24"
     inkscape:window-maximized="1"
     showguides="true"
     inkscape:guide-bbox="true">
    <inkscape:grid
       snapvisiblegridlinesonly="true"
       enabled="true"
       visible="true"
       empspacing="6"
       id="grid2985"
       type="xygrid" />
    <sodipodi:guide
       id="guide3779"
       position="90,60"
       orientation="0,1" />
    <sodipodi:guide
       id="guide3781"
       position="54,24"
       orientation="0,1" />
    <sodipodi:guide
       id="guide3783"
       position="78,54"
       orientation="1,0" />
    <sodipodi:guide
       id="guide3785"
       position="42,54"
       orientation="1,0" />
  </sodipodi:namedview>
  <defs
     id="defs4">
    <linearGradient
       id="linearGradient4013"
       inkscape:collect="always">
      <stop
         id="stop4015"
         offset="0"
         style="stop-color:#000000;stop-opacity:1;" />
      <stop
         id="stop4017"
         offset="1"
         style="stop-color:#000000;stop-opacity:0;" />
    </linearGradient>
    <linearGradient
       id="linearGradient4005"
       inkscape:collect="always">
      <stop
         id="stop4007"
         offset="0"
         style="stop-color:#000000;stop-opacity:1;" />
      <stop
         id="stop4009"
         offset="1"
         style="stop-color:#000000;stop-opacity:0;" />
    </linearGradient>
    <linearGradient
       gradientUnits="userSpaceOnUse"
       y2="48"
       x2="30"
       y1="-1.4210855e-14"
       x1="30"
       id="linearGradient4011"
       xlink:href="#linearGradient4005"
       inkscape:collect="always" />
    <linearGradient
       gradientUnits="userSpaceOnUse"
       y2="956.36218"
       x2="54"
       y1="956.36218"
       x1="12"
       id="linearGradient4019"
       xlink:href="#linearGradient4013"
       inkscape:collect="always" />
  </defs>
  <metadata
     id="metadata7">
    <rdf:RDF>
      <cc:Work
         rdf:about="">
        <dc:format>image/svg+xml</dc:format>
        <dc:type
           rdf:resource="http://purl.org/dc/dcmitype/StillImage" />
        <dc:title />
      </cc:Work>
    </rdf:RDF>
  </metadata>
  <g
     transform="translate(0,-956.36218)"
     id="layer1"
     inkscape:groupmode="layer"
     inkscape:label="Layer 1">
    <path
       style="fill:#9a9a9a;fill-opacity:1;stroke:none"
       d="m 18,956.36218 c -3.324,0 -6,2.676 -6,6 l 0,66.00002 12,12 12,12 42,0 c 3.324,0 6,-2.676 6,-6 l 0,-84.00002 c 0,-3.324 -2.676,-6 -6,-6 l -60,0 z"
       id="rect3856"
       inkscape:connector-curvature="0" />
    <path
       id="path3887"
       transform="translate(0,956.36218)"
       d="M 34.25 73.75 C 35.3345 74.8345 36 76.338 36 78 L 36 96 L 56.5 96 L 34.25 73.75 z "
       style="opacity:0.5;fill:#000000;fill-opacity:1;stroke:none" />
    <path
       style="opacity:0.5;fill:#ffffff;fill-opacity:1;stroke:none"
       d="m 12,1028.3622 12,12 12,12 0,-18 c 0,-3.324 -2.676,-6 -6,-6 l -18,0 z"
       id="path3859"
       inkscape:connector-curvature="0" />
    <path
       inkscape:connector-curvature="0"
       id="path3944"
       d="m 12,962.36218 0,36 21,-21 21,-21 -36,0 c -3.324,0 -6,2.676 -6,6 z"
       style="fill:url(#linearGradient4019);fill-opacity:1;stroke:none;opacity:0.1" />
    <path
       transform="translate(0,956.36218)"
       sodipodi:nodetypes="sccccs"
       inkscape:connector-curvature="0"
       id="path3939"
       d="M 12,6 12,48 60,48 33,21 13.75,1.75 C 12.6655,2.8345 12,4.338 12,6 z"
       style="opacity:0.1;fill:url(#linearGradient4011);fill-opacity:1;stroke:none" />
    <path
       d="m 47.980598,1017.3289 c -0.117386,-0.4987 0.201871,-1.0001 0.709856,-1.1191 l 1.789276,-0.42 c 0.02804,-0.9474 0.186916,-1.884 0.457491,-2.7703 l -1.571931,-0.972 c -0.221817,-0.1383 -0.367503,-0.3299 -0.424099,-0.5614 -0.05665,-0.2316 -0.02855,-0.4875 0.10651,-0.7052 l 1.904943,-3.0712 c 0.27017,-0.4356 0.833501,-0.5546 1.277122,-0.2803 l 1.571924,0.972 c 0.674027,-0.6364 1.442874,-1.1959 2.280006,-1.6429 l -0.420537,-1.7865 c -0.119387,-0.5075 0.187636,-1.0162 0.687082,-1.1333 l 3.504771,-0.8227 c 0.499447,-0.1175 1.001238,0.2018 1.120633,0.7088 l 0.420537,1.7868 c 0.948979,0.028 1.886769,0.1876 2.774241,0.4568 l 0.973639,-1.5694 c 0.274777,-0.4432 0.832278,-0.5872 1.268452,-0.3174 l 3.075514,1.9024 c 0.436171,0.2698 0.555476,0.8321 0.280698,1.2751 l -0.973639,1.57 c 0.637579,0.673 1.197546,1.4407 1.645372,2.2765 l 1.789276,-0.4199 c 0.50799,-0.1174 1.017377,0.1876 1.13476,0.6863 l 0.823725,3.4996 c 0.117379,0.4987 -0.201888,0.9998 -0.709878,1.119 l -1.789274,0.4201 c -0.02804,0.9475 -0.186897,1.8841 -0.457475,2.7701 l 1.571942,0.9724 c 0.443623,0.2743 0.587746,0.8312 0.317592,1.2666 l -1.904953,3.0712 c -0.270157,0.4354 -0.833495,0.5546 -1.277028,0.2806 l -1.571928,-0.9724 c -0.674036,0.6368 -1.442882,1.196 -2.280013,1.6429 l 0.42055,1.787 c 0.119387,0.5072 -0.187655,1.0159 -0.6871,1.133 l -3.50477,0.8227 c -0.499447,0.1175 -1.001236,-0.2018 -1.120619,-0.7088 l -0.420552,-1.7869 c -0.948975,-0.028 -1.886763,-0.1876 -2.774226,-0.4569 l -0.973649,1.5698 c -0.274775,0.443 -0.832276,0.5868 -1.268532,0.3166 l -3.075512,-1.9021 c -0.436174,-0.2696 -0.555473,-0.8322 -0.280692,-1.2752 l 0.973623,-1.5697 c -0.637573,-0.6732 -1.197543,-1.441 -1.645383,-2.2769 l -1.789276,0.4202 c -0.507992,0.1175 -1.01736,-0.1876 -1.134739,-0.6861 l -0.82373,-3.4999 z m 9.26602,-0.3282 c 0.497766,2.1151 2.620647,3.428 4.738557,2.9308 2.117914,-0.4968 3.432809,-2.6168 2.935039,-4.7318 -0.497784,-2.1147 -2.620664,-3.4277 -4.738578,-2.9307 -2.117913,0.4971 -3.432803,2.6168 -2.935018,4.7317 z"
       inkscape:connector-curvature="0"
       id="path3788"
       style="opacity:0.4;fill:#000000;fill-opacity:1;fill-rule:nonzero;stroke:none;stroke-width:1;marker:none;visibility:visible;display:block;overflow:visible;enable-background:accumulate" />
    <path
       style="fill:#d2d2d2;fill-opacity:1;fill-rule:nonzero;stroke:none;stroke-width:1;marker:none;visibility:visible;display:block;overflow:visible;enable-background:accumulate"
       id="rect3267"
       inkscape:connector-curvature="0"
       d="m 47.980598,1016.4824 c -0.117386,-0.4987 0.201871,-1.0001 0.709856,-1.1191 l 1.789276,-0.42 c 0.02804,-0.9474 0.186916,-1.884 0.457491,-2.7703 l -1.571931,-0.972 c -0.221817,-0.1383 -0.367503,-0.3299 -0.424099,-0.5614 -0.05665,-0.2316 -0.02855,-0.4875 0.10651,-0.7052 l 1.904943,-3.0712 c 0.27017,-0.4356 0.833501,-0.5546 1.277122,-0.2803 l 1.571924,0.972 c 0.674027,-0.6364 1.442874,-1.1959 2.280006,-1.6429 l -0.420537,-1.7865 c -0.119387,-0.5075 0.187636,-1.0162 0.687082,-1.1333 l 3.504771,-0.8227 c 0.499447,-0.1175 1.001238,0.2018 1.120633,0.7088 l 0.420537,1.7868 c 0.948979,0.028 1.886769,0.1876 2.774241,0.4568 l 0.973639,-1.5694 c 0.274777,-0.4432 0.832278,-0.5872 1.268452,-0.3174 l 3.075514,1.9024 c 0.436171,0.2698 0.555476,0.8321 0.280698,1.2751 l -0.973639,1.57 c 0.637579,0.673 1.197546,1.4407 1.645372,2.2765 l 1.789276,-0.4199 c 0.50799,-0.1174 1.017377,0.1876 1.13476,0.6863 l 0.823725,3.4996 c 0.117379,0.4987 -0.201888,0.9998 -0.709878,1.119 l -1.789274,0.4201 c -0.02804,0.9475 -0.186897,1.8841 -0.457475,2.7701 l 1.571942,0.9724 c 0.443623,0.2743 0.587746,0.8312 0.317592,1.2666 l -1.904953,3.0712 c -0.270157,0.4354 -0.833495,0.5546 -1.277028,0.2806 l -1.571928,-0.9724 c -0.674036,0.6368 -1.442882,1.196 -2.280013,1.6429 l 0.42055,1.787 c 0.119387,0.5072 -0.187655,1.0159 -0.6871,1.133 l -3.50477,0.8227 c -0.499447,0.1175 -1.001236,-0.2018 -1.120619,-0.7088 l -0.420552,-1.7869 c -0.948975,-0.028 -1.886763,-0.1876 -2.774226,-0.4569 l -0.973649,1.5698 c -0.274775,0.443 -0.832276,0.5868 -1.268532,0.3166 l -3.075512,-1.9021 c -0.436174,-0.2696 -0.555473,-0.8322 -0.280692,-1.2752 l 0.973623,-1.5697 c -0.637573,-0.6732 -1.197543,-1.441 -1.645383,-2.2769 l -1.789276,0.4202 c -0.507992,0.1175 -1.01736,-0.1876 -1.134739,-0.6861 l -0.82373,-3.4999 z m 9.26602,-0.3282 c 0.497766,2.1151 2.620647,3.428 4.738557,2.9308 2.117914,-0.4968 3.432809,-2.6168 2.935039,-4.7318 -0.497784,-2.1147 -2.620664,-3.4277 -4.738578,-2.9307 -2.117913,0.4971 -3.432803,2.6168 -2.935018,4.7317 z" />
    <path
       id="path3786"
       d="m 44.84375,1000.8024 c -1.56965,0 -2.84375,1.2429 -2.84375,2.8125 0,1.5696 1.2741,2.8438 2.84375,2.8438 1.569651,0 2.84375,-1.2742 2.84375,-2.8438 0,-1.5696 -1.274099,-2.8125 -2.84375,-2.8125 z m 4.75,1.875 0,1.9063 28.40625,0 0,-1.9063 -28.40625,0 z m -4.75,5.6875 c -1.56965,0 -2.84375,1.2742 -2.84375,2.8438 0,1.5696 1.2741,2.8437 2.84375,2.8437 1.569651,0 2.84375,-1.2741 2.84375,-2.8437 0,-1.5696 -1.274099,-2.8438 -2.84375,-2.8438 z m 4.75,1.9063 0,1.875 28.40625,0 0,-1.875 -28.40625,0 z m -4.75,5.6875 c -1.56965,0 -2.84375,1.2741 -2.84375,2.8437 0,1.5696 1.2741,2.8125 2.84375,2.8125 1.569651,0 2.84375,-1.2429 2.84375,-2.8125 0,-1.5696 -1.274099,-2.8437 -2.84375,-2.8437 z m 4.75,1.875 0,1.9062 28.40625,0 0,-1.9062 -28.40625,0 z m -4.75,5.6875 c -1.56965,0 -2.84375,1.2741 -2.84375,2.8437 0,1.5696 1.2741,2.8438 2.84375,2.8438 1.569651,0 2.84375,-1.2742 2.84375,-2.8438 0,-1.5696 -1.274099,-2.8437 -2.84375,-2.8437 z m 4.75,1.9062 0,1.875 28.40625,0 0,-1.875 -28.40625,0 z"
       style="opacity:0.4;fill:#000000;fill-opacity:1;fill-rule:nonzero;stroke:none"
       inkscape:connector-curvature="0" />
    <path
       style="fill:#f7f7f7;fill-opacity:1;fill-rule:nonzero;stroke:none"
       d="M 44.84375 43.59375 C 43.2741 43.59375 42 44.83665 42 46.40625 C 42 47.97585 43.2741 49.25 44.84375 49.25 C 46.413401 49.25 47.6875 47.97585 47.6875 46.40625 C 47.6875 44.83665 46.413401 43.59375 44.84375 43.59375 z M 49.59375 45.46875 L 49.59375 47.375 L 78 47.375 L 78 45.46875 L 49.59375 45.46875 z M 44.84375 51.15625 C 43.2741 51.15625 42 52.4304 42 54 C 42 55.5696 43.2741 56.84375 44.84375 56.84375 C 46.413401 56.84375 47.6875 55.5696 47.6875 54 C 47.6875 52.4304 46.413401 51.15625 44.84375 51.15625 z M 49.59375 53.0625 L 49.59375 54.9375 L 78 54.9375 L 78 53.0625 L 49.59375 53.0625 z M 44.84375 58.75 C 43.2741 58.75 42 60.02415 42 61.59375 C 42 63.16335 43.2741 64.40625 44.84375 64.40625 C 46.413401 64.40625 47.6875 63.16335 47.6875 61.59375 C 47.6875 60.02415 46.413401 58.75 44.84375 58.75 z M 49.59375 60.625 L 49.59375 62.53125 L 78 62.53125 L 78 60.625 L 49.59375 60.625 z M 44.84375 66.3125 C 43.2741 66.3125 42 67.58665 42 69.15625 C 42 70.72585 43.2741 72 44.84375 72 C 46.413401 72 47.6875 70.72585 47.6875 69.15625 C 47.6875 67.58665 46.413401 66.3125 44.84375 66.3125 z M 49.59375 68.21875 L 49.59375 70.09375 L 78 70.09375 L 78 68.21875 L 49.59375 68.21875 z "
       transform="translate(0,956.36218)"
       id="rect3017" />
  </g>
</svg>
