<?xml version="1.0" encoding="UTF-8" standalone="no"?>
<!-- Created with Inkscape (http://www.inkscape.org/) -->

<svg
   xmlns:dc="http://purl.org/dc/elements/1.1/"
   xmlns:cc="http://creativecommons.org/ns#"
   xmlns:rdf="http://www.w3.org/1999/02/22-rdf-syntax-ns#"
   xmlns:svg="http://www.w3.org/2000/svg"
   xmlns="http://www.w3.org/2000/svg"
   xmlns:xlink="http://www.w3.org/1999/xlink"
   xmlns:sodipodi="http://sodipodi.sourceforge.net/DTD/sodipodi-0.dtd"
   xmlns:inkscape="http://www.inkscape.org/namespaces/inkscape"
   sodipodi:docname="application-x-perl.svg"
   inkscape:version="0.48.4 r9939"
   version="1.1"
   id="svg2"
   height="96"
   width="96">
  <sodipodi:namedview
     id="base"
     pagecolor="#ffffff"
     bordercolor="#000000"
     borderopacity="1"
     inkscape:pageopacity="0"
     inkscape:pageshadow="2"
     inkscape:zoom="5.90625"
     inkscape:cx="16.415307"
     inkscape:cy="55.155565"
     inkscape:document-units="px"
     inkscape:current-layer="layer1"
     showgrid="true"
     inkscape:snap-page="true"
     inkscape:snap-bbox="true"
     inkscape:window-width="1301"
     inkscape:window-height="744"
     inkscape:window-x="65"
     inkscape:window-y="24"
     inkscape:window-maximized="1"
     showguides="true"
     inkscape:guide-bbox="true">
    <inkscape:grid
       snapvisiblegridlinesonly="true"
       enabled="true"
       visible="true"
       empspacing="6"
       id="grid2985"
       type="xygrid" />
    <sodipodi:guide
       id="guide3779"
       position="90,60"
       orientation="0,1" />
    <sodipodi:guide
       id="guide3781"
       position="54,24"
       orientation="0,1" />
    <sodipodi:guide
       id="guide3783"
       position="78,54"
       orientation="1,0" />
    <sodipodi:guide
       id="guide3785"
       position="42,54"
       orientation="1,0" />
  </sodipodi:namedview>
  <defs
     id="defs4">
    <linearGradient
       id="linearGradient4013"
       inkscape:collect="always">
      <stop
         id="stop4015"
         offset="0"
         style="stop-color:#000000;stop-opacity:1;" />
      <stop
         id="stop4017"
         offset="1"
         style="stop-color:#000000;stop-opacity:0;" />
    </linearGradient>
    <linearGradient
       id="linearGradient4005"
       inkscape:collect="always">
      <stop
         id="stop4007"
         offset="0"
         style="stop-color:#000000;stop-opacity:1;" />
      <stop
         id="stop4009"
         offset="1"
         style="stop-color:#000000;stop-opacity:0;" />
    </linearGradient>
    <linearGradient
       gradientUnits="userSpaceOnUse"
       y2="48"
       x2="30"
       y1="-1.4210855e-14"
       x1="30"
       id="linearGradient4011"
       xlink:href="#linearGradient4005"
       inkscape:collect="always" />
    <linearGradient
       gradientUnits="userSpaceOnUse"
       y2="956.36218"
       x2="54"
       y1="956.36218"
       x1="12"
       id="linearGradient4019"
       xlink:href="#linearGradient4013"
       inkscape:collect="always" />
  </defs>
  <metadata
     id="metadata7">
    <rdf:RDF>
      <cc:Work
         rdf:about="">
        <dc:format>image/svg+xml</dc:format>
        <dc:type
           rdf:resource="http://purl.org/dc/dcmitype/StillImage" />
        <dc:title />
      </cc:Work>
    </rdf:RDF>
  </metadata>
  <g
     transform="translate(0,-956.36218)"
     id="layer1"
     inkscape:groupmode="layer"
     inkscape:label="Layer 1">
    <path
       style="fill:#656bff;fill-opacity:1;stroke:none"
       d="m 18,956.36218 c -3.324,0 -6,2.676 -6,6 l 0,66.00002 12,12 12,12 42,0 c 3.324,0 6,-2.676 6,-6 l 0,-84.00002 c 0,-3.324 -2.676,-6 -6,-6 l -60,0 z"
       id="rect3856"
       inkscape:connector-curvature="0" />
    <path
       id="path3887"
       transform="translate(0,956.36218)"
       d="M 34.25 73.75 C 35.3345 74.8345 36 76.338 36 78 L 36 96 L 56.5 96 L 34.25 73.75 z "
       style="opacity:0.5;fill:#000000;fill-opacity:1;stroke:none" />
    <path
       style="opacity:0.5;fill:#ffffff;fill-opacity:1;stroke:none"
       d="m 12,1028.3622 12,12 12,12 0,-18 c 0,-3.324 -2.676,-6 -6,-6 l -18,0 z"
       id="path3859"
       inkscape:connector-curvature="0" />
    <path
       inkscape:connector-curvature="0"
       id="path3944"
       d="m 12,962.36218 0,36 21,-21 21,-21 -36,0 c -3.324,0 -6,2.676 -6,6 z"
       style="fill:url(#linearGradient4019);fill-opacity:1;stroke:none;opacity:0.1" />
    <path
       transform="translate(0,956.36218)"
       sodipodi:nodetypes="sccccs"
       inkscape:connector-curvature="0"
       id="path3939"
       d="M 12,6 12,48 60,48 33,21 13.75,1.75 C 12.6655,2.8345 12,4.338 12,6 z"
       style="opacity:0.1;fill:url(#linearGradient4011);fill-opacity:1;stroke:none" />
    <path
       inkscape:connector-curvature="0"
       id="path3777"
       d="m 51.064836,1030.0484 c -0.806706,-0.1868 -0.725473,-0.3874 0.604566,-1.4928 2.290433,-1.9036 2.671923,-3.8001 2.019932,-10.0422 -0.519819,-4.9764 -0.636433,-5.3576 -1.511454,-4.941 -1.893326,0.9017 -4.259257,-0.2612 -6.945302,-3.4129 -1.328083,-1.5586 -1.454094,-2.0152 -1.226066,-4.444 0.139848,-1.4887 0.425399,-3.2856 0.634706,-3.9931 0.32141,-1.0863 0.217636,-1.2862 -0.667839,-1.2862 -0.57663,0 -1.346623,-0.3198 -1.711085,-0.71044 -0.917679,-0.98389 0.717999,-2.56392 2.654009,-2.56392 0.787265,0 1.725896,-0.31573 2.085882,-0.70176 0.929322,-0.99633 2.350573,-0.86972 3.946282,0.3515 1.69623,1.29821 2.273745,4.30382 1.320639,6.87332 -1.077311,2.9042 -0.329036,3.1889 1.178109,0.4481 0.843308,-1.5335 2.033962,-2.8712 3.014194,-3.3865 0.891144,-0.4681 2.1934,-1.6592 2.893914,-2.6465 0.700515,-0.98716 1.578974,-1.96886 1.952136,-2.18147 1.14546,-0.6523 4.297236,-1.54893 5.470743,-1.55624 1.60083,-0.0156 3.747889,1.65686 4.130572,3.20704 0.180786,0.73239 1.145308,2.45927 2.143329,3.83757 0.998054,1.3783 1.814631,2.7473 1.814631,3.042 0,0.2949 0.70976,1.3307 1.577247,2.302 1.299167,1.4545 1.573351,2.1874 1.555194,4.1573 -0.02491,2.7014 -1.660602,6.1455 -2.259408,4.7572 -0.188933,-0.4381 -0.109732,-1.1851 0.17611,-1.6603 0.597048,-0.9924 0.06967,-5.3964 -0.57707,-4.8208 -0.45132,0.4014 -0.746227,4.6978 -0.619636,9.0268 0.16441,5.6215 -0.142749,10.9212 -0.641046,11.0625 -1.273627,0.3602 -1.830296,-0.5744 -1.30765,-2.1957 0.787342,-2.4425 0.625489,-8.9364 -0.248295,-9.9623 -0.403634,-0.4741 -0.889876,-1.6833 -1.080519,-2.6873 -0.190646,-1.0041 -0.552559,-1.9387 -0.804246,-2.0771 -0.828788,-0.4558 -2.079629,2.4947 -2.079629,4.9051 0,1.8869 -0.319591,2.7588 -1.577248,4.3035 -1.779691,2.1858 -1.918894,2.8331 -0.788624,3.6679 0.881517,0.6509 1.052784,2.1382 0.294221,2.5553 -0.271922,0.1493 -0.981684,-0.1934 -1.577233,-0.7622 -0.842115,-0.8041 -1.082845,-0.8705 -1.082845,-0.2988 0,0.8556 -1.948895,1.4354 -3.024572,0.8997 -0.575725,-0.2866 -0.439901,-0.5412 0.617511,-1.1577 1.883254,-1.0978 1.701701,-1.9986 -0.815539,-4.0457 -1.962145,-1.5959 -2.136864,-1.9169 -1.815164,-3.3374 1.018012,-4.4944 1.013887,-4.612 -0.16217,-4.612 -0.770284,0 -1.109011,0.2954 -1.109011,0.9663 0,0.5315 -0.261101,1.4004 -0.58022,1.9309 -0.563024,0.9359 -0.730943,1.6887 -2.093138,9.3817 -0.67886,3.8338 -0.846412,3.9801 -3.778916,3.3006 z m 14.116463,-8.1654 c 0.682817,-1.1749 0.782006,-2.1807 0.489221,-4.9607 -0.389039,-3.6937 -0.674548,-3.8224 -1.81197,-0.8161 -0.38936,1.029 -1.147417,2.373 -1.684569,2.9867 -1.2511,1.429 -1.228557,1.8599 0.166488,3.1811 1.493342,1.4142 1.817519,1.3697 2.840836,-0.391 z"
       style="opacity:0.4;fill:#000000;fill-opacity:1" />
    <path
       style="fill:#ecedff;fill-opacity:1"
       d="m 51.064836,1028.0484 c -0.806706,-0.1868 -0.725473,-0.3874 0.604566,-1.4928 2.290433,-1.9036 2.671923,-3.8001 2.019932,-10.0422 -0.519819,-4.9764 -0.636433,-5.3576 -1.511454,-4.941 -1.893326,0.9017 -4.259257,-0.2612 -6.945302,-3.4129 -1.328083,-1.5586 -1.454094,-2.0152 -1.226066,-4.444 0.139848,-1.4887 0.425399,-3.2856 0.634706,-3.99306 0.32141,-1.08638 0.217636,-1.28624 -0.667839,-1.28624 -0.57663,0 -1.346623,-0.31975 -1.711085,-0.71044 -0.917679,-0.98389 0.717999,-2.56392 2.654009,-2.56392 0.787265,0 1.725896,-0.31573 2.085882,-0.70176 0.929322,-0.99633 2.350573,-0.86972 3.946282,0.3515 1.69623,1.29821 2.273745,4.30382 1.320639,6.87332 -1.077311,2.9042 -0.329036,3.1889 1.178109,0.4481 0.843308,-1.5335 2.033962,-2.87124 3.014194,-3.38651 0.891144,-0.46813 2.1934,-1.65919 2.893914,-2.64649 0.700515,-0.98716 1.578974,-1.96886 1.952136,-2.18147 1.14546,-0.6523 4.297236,-1.54893 5.470743,-1.55624 1.60083,-0.0156 3.747889,1.65686 4.130572,3.20704 0.180786,0.73239 1.145308,2.45924 2.143329,3.83754 0.998054,1.37833 1.814631,2.74733 1.814631,3.04203 0,0.2949 0.70976,1.3307 1.577247,2.302 1.299167,1.4545 1.573351,2.1874 1.555194,4.1573 -0.02491,2.7014 -1.660602,6.1455 -2.259408,4.7572 -0.188933,-0.4381 -0.109732,-1.1851 0.17611,-1.6603 0.597048,-0.9924 0.06967,-5.3964 -0.57707,-4.8208 -0.45132,0.4014 -0.746227,4.6978 -0.619636,9.0268 0.16441,5.6215 -0.142749,10.9212 -0.641046,11.0625 -1.273627,0.3602 -1.830296,-0.5744 -1.30765,-2.1957 0.787342,-2.4425 0.625489,-8.9364 -0.248295,-9.9623 -0.403634,-0.4741 -0.889876,-1.6833 -1.080519,-2.6873 -0.190646,-1.0041 -0.552559,-1.9387 -0.804246,-2.0771 -0.828788,-0.4558 -2.079629,2.4947 -2.079629,4.9051 0,1.8869 -0.319591,2.7588 -1.577248,4.3035 -1.779691,2.1858 -1.918894,2.8331 -0.788624,3.6679 0.881517,0.6509 1.052784,2.1382 0.294221,2.5553 -0.271922,0.1493 -0.981684,-0.1934 -1.577233,-0.7622 -0.842115,-0.8041 -1.082845,-0.8705 -1.082845,-0.2988 0,0.8556 -1.948895,1.4354 -3.024572,0.8997 -0.575725,-0.2866 -0.439901,-0.5412 0.617511,-1.1577 1.883254,-1.0978 1.701701,-1.9986 -0.815539,-4.0457 -1.962145,-1.5959 -2.136864,-1.9169 -1.815164,-3.3374 1.018012,-4.4944 1.013887,-4.612 -0.16217,-4.612 -0.770284,0 -1.109011,0.2954 -1.109011,0.9663 0,0.5315 -0.261101,1.4004 -0.58022,1.9309 -0.563024,0.9359 -0.730943,1.6887 -2.093138,9.3817 -0.67886,3.8338 -0.846412,3.9801 -3.778916,3.3006 z m 14.116463,-8.1654 c 0.682817,-1.1749 0.782006,-2.1807 0.489221,-4.9607 -0.389039,-3.6937 -0.674548,-3.8224 -1.81197,-0.8161 -0.38936,1.029 -1.147417,2.373 -1.684569,2.9867 -1.2511,1.429 -1.228557,1.8599 0.166488,3.1811 1.493342,1.4142 1.817519,1.3697 2.840836,-0.391 z"
       id="path1119"
       inkscape:connector-curvature="0" />
  </g>
</svg>
