<?xml version="1.0" encoding="UTF-8" standalone="no"?>
<!-- Created with Inkscape (http://www.inkscape.org/) -->

<svg
   xmlns:dc="http://purl.org/dc/elements/1.1/"
   xmlns:cc="http://creativecommons.org/ns#"
   xmlns:rdf="http://www.w3.org/1999/02/22-rdf-syntax-ns#"
   xmlns:svg="http://www.w3.org/2000/svg"
   xmlns="http://www.w3.org/2000/svg"
   xmlns:xlink="http://www.w3.org/1999/xlink"
   xmlns:sodipodi="http://sodipodi.sourceforge.net/DTD/sodipodi-0.dtd"
   xmlns:inkscape="http://www.inkscape.org/namespaces/inkscape"
   sodipodi:docname="video-x-ms-wmv.svg"
   inkscape:version="0.48.4 r9939"
   version="1.1"
   id="svg2"
   height="96"
   width="96">
  <sodipodi:namedview
     id="base"
     pagecolor="#ffffff"
     bordercolor="#000000"
     borderopacity="1"
     inkscape:pageopacity="0"
     inkscape:pageshadow="2"
     inkscape:zoom="4.1763494"
     inkscape:cx="61.91974"
     inkscape:cy="35.815424"
     inkscape:document-units="px"
     inkscape:current-layer="layer1"
     showgrid="true"
     inkscape:snap-page="true"
     inkscape:snap-bbox="true"
     inkscape:window-width="1301"
     inkscape:window-height="744"
     inkscape:window-x="65"
     inkscape:window-y="24"
     inkscape:window-maximized="1"
     showguides="true"
     inkscape:guide-bbox="true">
    <inkscape:grid
       snapvisiblegridlinesonly="true"
       enabled="true"
       visible="true"
       empspacing="6"
       id="grid2985"
       type="xygrid" />
    <sodipodi:guide
       id="guide3779"
       position="90,60"
       orientation="0,1" />
    <sodipodi:guide
       id="guide3781"
       position="54,24"
       orientation="0,1" />
    <sodipodi:guide
       id="guide3783"
       position="78,54"
       orientation="1,0" />
    <sodipodi:guide
       id="guide3785"
       position="42,54"
       orientation="1,0" />
  </sodipodi:namedview>
  <defs
     id="defs4">
    <linearGradient
       id="linearGradient4013"
       inkscape:collect="always">
      <stop
         id="stop4015"
         offset="0"
         style="stop-color:#000000;stop-opacity:1;" />
      <stop
         id="stop4017"
         offset="1"
         style="stop-color:#000000;stop-opacity:0;" />
    </linearGradient>
    <linearGradient
       id="linearGradient4005"
       inkscape:collect="always">
      <stop
         id="stop4007"
         offset="0"
         style="stop-color:#000000;stop-opacity:1;" />
      <stop
         id="stop4009"
         offset="1"
         style="stop-color:#000000;stop-opacity:0;" />
    </linearGradient>
    <linearGradient
       gradientUnits="userSpaceOnUse"
       y2="48"
       x2="30"
       y1="-1.4210855e-14"
       x1="30"
       id="linearGradient4011"
       xlink:href="#linearGradient4005"
       inkscape:collect="always" />
    <linearGradient
       gradientUnits="userSpaceOnUse"
       y2="956.36218"
       x2="54"
       y1="956.36218"
       x1="12"
       id="linearGradient4019"
       xlink:href="#linearGradient4013"
       inkscape:collect="always" />
  </defs>
  <metadata
     id="metadata7">
    <rdf:RDF>
      <cc:Work
         rdf:about="">
        <dc:format>image/svg+xml</dc:format>
        <dc:type
           rdf:resource="http://purl.org/dc/dcmitype/StillImage" />
        <dc:title />
      </cc:Work>
    </rdf:RDF>
  </metadata>
  <g
     transform="translate(0,-956.36218)"
     id="layer1"
     inkscape:groupmode="layer"
     inkscape:label="Layer 1">
    <path
       style="fill:#d500f9;fill-opacity:1;stroke:none"
       d="m 18,956.36218 c -3.324,0 -6,2.676 -6,6 l 0,66.00002 12,12 12,12 42,0 c 3.324,0 6,-2.676 6,-6 l 0,-84.00002 c 0,-3.324 -2.676,-6 -6,-6 l -60,0 z"
       id="rect3856"
       inkscape:connector-curvature="0" />
    <path
       id="path3887"
       transform="translate(0,956.36218)"
       d="M 34.25 73.75 C 35.3345 74.8345 36 76.338 36 78 L 36 96 L 56.5 96 L 34.25 73.75 z "
       style="opacity:0.5;fill:#000000;fill-opacity:1;stroke:none" />
    <path
       style="opacity:0.5;fill:#ffffff;fill-opacity:1;stroke:none"
       d="m 12,1028.3622 12,12 12,12 0,-18 c 0,-3.324 -2.676,-6 -6,-6 l -18,0 z"
       id="path3859"
       inkscape:connector-curvature="0" />
    <path
       inkscape:connector-curvature="0"
       id="path3944"
       d="m 12,962.36218 0,36 21,-21 21,-21 -36,0 c -3.324,0 -6,2.676 -6,6 z"
       style="fill:url(#linearGradient4019);fill-opacity:1;stroke:none;opacity:0.1" />
    <path
       id="path3804"
       d="m 48,994.36218 c -3.324,0 -6,2.676 -6,6.00002 l 0,3 9,0 0,18 -9,0 0,3 c 0,3.324 2.676,6 6,6 l 24,0 c 3.324,0 6,-2.676 6,-6 l 0,-24 c 0,-3.32402 -2.676,-6.00002 -6,-6.00002 l -24,0 z m 0,2 3,0 0,4.00002 -3,0 0,-4.00002 z m 6,0 3,0 0,4.00002 -3,0 0,-4.00002 z m 6,0 3,0 0,4.00002 -3,0 0,-4.00002 z m 6,0 3,0 0,4.00002 -3,0 0,-4.00002 z m 6,0 3,0 0,4.00002 -3,0 0,-4.00002 z m -18,7.00002 21,0 0,18 -21,0 0,-18 z m 6,3 0,12 10,-6 -10,-6 z m -12,18 3,0 0,4 -3,0 0,-4 z m 6,0 3,0 0,4 -3,0 0,-4 z m 6,0 3,0 0,4 -3,0 0,-4 z m 6,0 3,0 0,4 -3,0 0,-4 z m 6,0 3,0 0,4 -3,0 0,-4 z"
       style="opacity:0.4;fill:#000000;fill-opacity:1;stroke:none"
       inkscape:connector-curvature="0" />
    <path
       style="fill:#fff1fe;fill-opacity:1;stroke:none"
       d="M 48 36 C 44.676 36 42 38.676 42 42 L 42 45 L 51 45 L 51 63 L 42 63 L 42 66 C 42 69.324 44.676 72 48 72 L 72 72 C 75.324 72 78 69.324 78 66 L 78 42 C 78 38.676 75.324 36 72 36 L 48 36 z M 48 38 L 51 38 L 51 42 L 48 42 L 48 38 z M 54 38 L 57 38 L 57 42 L 54 42 L 54 38 z M 60 38 L 63 38 L 63 42 L 60 42 L 60 38 z M 66 38 L 69 38 L 69 42 L 66 42 L 66 38 z M 72 38 L 75 38 L 75 42 L 72 42 L 72 38 z M 54 45 L 75 45 L 75 63 L 54 63 L 54 45 z M 60 48 L 60 60 L 70 54 L 60 48 z M 48 66 L 51 66 L 51 70 L 48 70 L 48 66 z M 54 66 L 57 66 L 57 70 L 54 70 L 54 66 z M 60 66 L 63 66 L 63 70 L 60 70 L 60 66 z M 66 66 L 69 66 L 69 70 L 66 70 L 66 66 z M 72 66 L 75 66 L 75 70 L 72 70 L 72 66 z "
       transform="translate(0,956.36218)"
       id="rect3002" />
    <path
       transform="translate(0,956.36218)"
       sodipodi:nodetypes="sccccs"
       inkscape:connector-curvature="0"
       id="path3939"
       d="M 12,6 12,48 60,48 33,21 13.75,1.75 C 12.6655,2.8345 12,4.338 12,6 z"
       style="opacity:0.1;fill:url(#linearGradient4011);fill-opacity:1;stroke:none" />
  </g>
</svg>
