<?xml version="1.0" encoding="UTF-8" standalone="no"?>
<!-- Created with Inkscape (http://www.inkscape.org/) -->

<svg
   xmlns:dc="http://purl.org/dc/elements/1.1/"
   xmlns:cc="http://creativecommons.org/ns#"
   xmlns:rdf="http://www.w3.org/1999/02/22-rdf-syntax-ns#"
   xmlns:svg="http://www.w3.org/2000/svg"
   xmlns="http://www.w3.org/2000/svg"
   xmlns:xlink="http://www.w3.org/1999/xlink"
   xmlns:sodipodi="http://sodipodi.sourceforge.net/DTD/sodipodi-0.dtd"
   xmlns:inkscape="http://www.inkscape.org/namespaces/inkscape"
   sodipodi:docname="gnome-mime-application-vnd.ms-powerpoint.svg"
   inkscape:version="0.48.4 r9939"
   version="1.1"
   id="svg2"
   height="96"
   width="96">
  <sodipodi:namedview
     id="base"
     pagecolor="#ffffff"
     bordercolor="#000000"
     borderopacity="1"
     inkscape:pageopacity="0"
     inkscape:pageshadow="2"
     inkscape:zoom="4.1763494"
     inkscape:cx="71.722707"
     inkscape:cy="35.870567"
     inkscape:document-units="px"
     inkscape:current-layer="layer1"
     showgrid="true"
     inkscape:snap-page="true"
     inkscape:snap-bbox="true"
     inkscape:window-width="1301"
     inkscape:window-height="744"
     inkscape:window-x="65"
     inkscape:window-y="24"
     inkscape:window-maximized="1"
     showguides="true"
     inkscape:guide-bbox="true">
    <inkscape:grid
       snapvisiblegridlinesonly="true"
       enabled="true"
       visible="true"
       empspacing="6"
       id="grid2985"
       type="xygrid" />
    <sodipodi:guide
       id="guide3779"
       position="90,60"
       orientation="0,1" />
    <sodipodi:guide
       id="guide3781"
       position="54,24"
       orientation="0,1" />
    <sodipodi:guide
       id="guide3783"
       position="78,54"
       orientation="1,0" />
    <sodipodi:guide
       id="guide3785"
       position="42,54"
       orientation="1,0" />
  </sodipodi:namedview>
  <defs
     id="defs4">
    <linearGradient
       id="linearGradient4013"
       inkscape:collect="always">
      <stop
         id="stop4015"
         offset="0"
         style="stop-color:#000000;stop-opacity:1;" />
      <stop
         id="stop4017"
         offset="1"
         style="stop-color:#000000;stop-opacity:0;" />
    </linearGradient>
    <linearGradient
       id="linearGradient4005"
       inkscape:collect="always">
      <stop
         id="stop4007"
         offset="0"
         style="stop-color:#000000;stop-opacity:1;" />
      <stop
         id="stop4009"
         offset="1"
         style="stop-color:#000000;stop-opacity:0;" />
    </linearGradient>
    <linearGradient
       gradientUnits="userSpaceOnUse"
       y2="48"
       x2="30"
       y1="-1.4210855e-14"
       x1="30"
       id="linearGradient4011"
       xlink:href="#linearGradient4005"
       inkscape:collect="always" />
    <linearGradient
       gradientUnits="userSpaceOnUse"
       y2="956.36218"
       x2="54"
       y1="956.36218"
       x1="12"
       id="linearGradient4019"
       xlink:href="#linearGradient4013"
       inkscape:collect="always" />
  </defs>
  <metadata
     id="metadata7">
    <rdf:RDF>
      <cc:Work
         rdf:about="">
        <dc:format>image/svg+xml</dc:format>
        <dc:type
           rdf:resource="http://purl.org/dc/dcmitype/StillImage" />
        <dc:title />
      </cc:Work>
    </rdf:RDF>
  </metadata>
  <g
     transform="translate(0,-956.36218)"
     id="layer1"
     inkscape:groupmode="layer"
     inkscape:label="Layer 1">
    <path
       style="fill:#ffa000;fill-opacity:1;stroke:none"
       d="m 18,956.36218 c -3.324,0 -6,2.676 -6,6 l 0,66.00002 12,12 12,12 42,0 c 3.324,0 6,-2.676 6,-6 l 0,-84.00002 c 0,-3.324 -2.676,-6 -6,-6 l -60,0 z"
       id="rect3856"
       inkscape:connector-curvature="0" />
    <path
       id="path3887"
       transform="translate(0,956.36218)"
       d="M 34.25 73.75 C 35.3345 74.8345 36 76.338 36 78 L 36 96 L 56.5 96 L 34.25 73.75 z "
       style="opacity:0.5;fill:#000000;fill-opacity:1;stroke:none" />
    <path
       style="opacity:0.5;fill:#ffffff;fill-opacity:1;stroke:none"
       d="m 12,1028.3622 12,12 12,12 0,-18 c 0,-3.324 -2.676,-6 -6,-6 l -18,0 z"
       id="path3859"
       inkscape:connector-curvature="0" />
    <path
       inkscape:connector-curvature="0"
       id="path3944"
       d="m 12,962.36218 0,36 21,-21 21,-21 -36,0 c -3.324,0 -6,2.676 -6,6 z"
       style="fill:url(#linearGradient4019);fill-opacity:1;stroke:none;opacity:0.1" />
    <path
       transform="translate(0,956.36218)"
       sodipodi:nodetypes="sccccs"
       inkscape:connector-curvature="0"
       id="path3939"
       d="M 12,6 12,48 60,48 33,21 13.75,1.75 C 12.6655,2.8345 12,4.338 12,6 z"
       style="opacity:0.1;fill:url(#linearGradient4011);fill-opacity:1;stroke:none" />
    <path
       style="opacity:0.4;fill:#000000;fill-opacity:1;stroke:none"
       d="m 60,994.36218 c -9.941125,0 -18,8.05892 -18,18.00002 0,9.9411 8.058875,18 18,18 9.941125,0 18,-8.0589 18,-18 l -18,0 0,-18.00002 z m 3,0.3125 0,14.68752 14.6875,0 c -0.0345,-0.2044 -0.02117,-0.4231 -0.0625,-0.625 -0.239776,-1.1718 -0.575825,-2.2983 -1.03125,-3.375 -0.455425,-1.0768 -1.009304,-2.1049 -1.65625,-3.0625 -0.646946,-0.9576 -1.40441,-1.8419 -2.21875,-2.65627 -0.81434,-0.81434 -1.698644,-1.5718 -2.65625,-2.21875 -0.957606,-0.64695 -1.985755,-1.20082 -3.0625,-1.65625 -1.076745,-0.45542 -2.203243,-0.79147 -3.375,-1.03125 -0.201956,-0.0413 -0.420642,-0.028 -0.625,-0.0625 z"
       id="path3782"
       inkscape:connector-curvature="0" />
    <path
       style="opacity:1;fill:#fff0e5;fill-opacity:1;stroke:none"
       d="M 60 36 C 50.058875 36 42 44.058875 42 54 C 42 63.941125 50.058875 72 60 72 C 69.941125 72 78 63.941125 78 54 L 60 54 L 60 36 z "
       id="path3775"
       transform="translate(0,956.36218)" />
    <path
       style="fill:#ffc498;fill-opacity:1;stroke:none"
       d="M 77.6875 51 C 77.653 50.795642 77.666326 50.576956 77.625 50.375 C 77.385224 49.203243 77.049175 48.076745 76.59375 47 C 76.138325 45.923255 75.584446 44.895106 74.9375 43.9375 C 74.290554 42.979894 73.53309 42.09559 72.71875 41.28125 C 71.90441 40.46691 71.020106 39.709446 70.0625 39.0625 C 69.104894 38.415554 68.076745 37.861675 67 37.40625 C 65.923255 36.950825 64.796757 36.614776 63.625 36.375 C 63.423044 36.333674 63.204358 36.347 63 36.3125 L 63 51 L 77.6875 51 z "
       id="path3780"
       transform="translate(0,956.36218)" />
  </g>
</svg>
