<?xml version="1.0" encoding="UTF-8" standalone="no"?>
<!-- Created with Inkscape (http://www.inkscape.org/) -->

<svg
   xmlns:dc="http://purl.org/dc/elements/1.1/"
   xmlns:cc="http://creativecommons.org/ns#"
   xmlns:rdf="http://www.w3.org/1999/02/22-rdf-syntax-ns#"
   xmlns:svg="http://www.w3.org/2000/svg"
   xmlns="http://www.w3.org/2000/svg"
   xmlns:xlink="http://www.w3.org/1999/xlink"
   xmlns:sodipodi="http://sodipodi.sourceforge.net/DTD/sodipodi-0.dtd"
   xmlns:inkscape="http://www.inkscape.org/namespaces/inkscape"
   width="48"
   height="48"
   id="svg2"
   version="1.1"
   inkscape:version="0.48.5 r10040"
   sodipodi:docname="camera.svg">
  <defs
     id="defs4">
    <linearGradient
       id="linearGradient3923">
      <stop
         style="stop-color:#dc2600;stop-opacity:1;"
         offset="0"
         id="stop3925" />
      <stop
         style="stop-color:#f45501;stop-opacity:1;"
         offset="1"
         id="stop3927" />
    </linearGradient>
    <linearGradient
       id="linearGradient3896">
      <stop
         style="stop-color:#dc2600;stop-opacity:1;"
         offset="0"
         id="stop3898" />
      <stop
         style="stop-color:#f45501;stop-opacity:1;"
         offset="1"
         id="stop3900" />
    </linearGradient>
    <linearGradient
       id="linearGradient3817">
      <stop
         style="stop-color:#fef0ed;stop-opacity:1;"
         offset="0"
         id="stop3819" />
      <stop
         style="stop-color:#fff5f4;stop-opacity:1;"
         offset="1"
         id="stop3821" />
    </linearGradient>
    <linearGradient
       id="linearGradient3797">
      <stop
         style="stop-color:#f23f07;stop-opacity:1;"
         offset="0"
         id="stop3799" />
      <stop
         style="stop-color:#fb5f14;stop-opacity:1;"
         offset="1"
         id="stop3801" />
    </linearGradient>
    <linearGradient
       id="linearGradient3778">
      <stop
         style="stop-color:#000000;stop-opacity:1;"
         offset="0"
         id="stop3780" />
      <stop
         style="stop-color:#595959;stop-opacity:1;"
         offset="1"
         id="stop3782" />
    </linearGradient>
    <linearGradient
       inkscape:collect="always"
       xlink:href="#linearGradient3776"
       id="linearGradient3803"
       x1="24"
       y1="1050.3622"
       x2="24"
       y2="1006.3622"
       gradientUnits="userSpaceOnUse" />
    <linearGradient
       inkscape:collect="always"
       xlink:href="#linearGradient3896"
       id="linearGradient3902"
       x1="16"
       y1="1025.3622"
       x2="32"
       y2="1025.3622"
       gradientUnits="userSpaceOnUse" />
    <radialGradient
       inkscape:collect="always"
       xlink:href="#linearGradient3906"
       id="radialGradient3912"
       cx="26"
       cy="29"
       fx="26"
       fy="29"
       r="3"
       gradientTransform="matrix(1,0,0,0.66666667,0,9.6666667)"
       gradientUnits="userSpaceOnUse" />
    <linearGradient
       inkscape:collect="always"
       id="linearGradient3906">
      <stop
         style="stop-color:#ffffff;stop-opacity:1;"
         offset="0"
         id="stop3908" />
      <stop
         style="stop-color:#ffffff;stop-opacity:0;"
         offset="1"
         id="stop3910" />
    </linearGradient>
    <radialGradient
       inkscape:collect="always"
       xlink:href="#linearGradient3896-9"
       id="radialGradient3969"
       gradientUnits="userSpaceOnUse"
       gradientTransform="matrix(1,0,0,0.98461538,0,1003.6699)"
       cx="24"
       cy="20"
       fx="24"
       fy="20"
       r="4.0625" />
    <linearGradient
       inkscape:collect="always"
       id="linearGradient3896-9">
      <stop
         style="stop-color:#ffffff;stop-opacity:1;"
         offset="0"
         id="stop3898-2" />
      <stop
         style="stop-color:#ffffff;stop-opacity:0;"
         offset="1"
         id="stop3900-0" />
    </linearGradient>
    <linearGradient
       inkscape:collect="always"
       xlink:href="#linearGradient3864"
       id="linearGradient3870"
       x1="23"
       y1="27.374992"
       x2="11"
       y2="18.437492"
       gradientUnits="userSpaceOnUse" />
    <linearGradient
       id="linearGradient3864">
      <stop
         style="stop-color:#92567c;stop-opacity:1;"
         offset="0"
         id="stop3866" />
      <stop
         style="stop-color:#423076;stop-opacity:1;"
         offset="1"
         id="stop3868" />
    </linearGradient>
    <linearGradient
       inkscape:collect="always"
       xlink:href="#linearGradient3848"
       id="linearGradient3960"
       gradientUnits="userSpaceOnUse"
       x1="24"
       y1="37"
       x2="24"
       y2="10"
       gradientTransform="translate(0,1003.3622)" />
    <linearGradient
       id="linearGradient3848">
      <stop
         style="stop-color:#ababab;stop-opacity:1;"
         offset="0"
         id="stop3850" />
      <stop
         style="stop-color:#fefefe;stop-opacity:1;"
         offset="1"
         id="stop3852" />
    </linearGradient>
    <linearGradient
       inkscape:collect="always"
       xlink:href="#linearGradient3805"
       id="linearGradient3962"
       gradientUnits="userSpaceOnUse"
       x1="17"
       y1="29.000002"
       x2="17"
       y2="16.000002" />
    <linearGradient
       id="linearGradient3805">
      <stop
         style="stop-color:#c4c4c4;stop-opacity:1;"
         offset="0"
         id="stop3807" />
      <stop
         style="stop-color:#eeeeee;stop-opacity:1;"
         offset="1"
         id="stop3809" />
    </linearGradient>
    <linearGradient
       inkscape:collect="always"
       xlink:href="#linearGradient3821"
       id="linearGradient3827"
       x1="17"
       y1="15.999999"
       x2="17"
       y2="28.999998"
       gradientUnits="userSpaceOnUse" />
    <linearGradient
       id="linearGradient3821">
      <stop
         style="stop-color:#d6d6d6;stop-opacity:1;"
         offset="0"
         id="stop3823" />
      <stop
         style="stop-color:#9e9e9e;stop-opacity:1;"
         offset="1"
         id="stop3825" />
    </linearGradient>
    <radialGradient
       inkscape:collect="always"
       xlink:href="#linearGradient3833"
       id="radialGradient3839"
       cx="17"
       cy="22.5"
       fx="17"
       fy="22.5"
       r="8"
       gradientTransform="matrix(1,0,0,0.8125,0,4.21875)"
       gradientUnits="userSpaceOnUse" />
    <linearGradient
       inkscape:collect="always"
       id="linearGradient3833">
      <stop
         style="stop-color:#000000;stop-opacity:1;"
         offset="0"
         id="stop3835" />
      <stop
         style="stop-color:#000000;stop-opacity:0;"
         offset="1"
         id="stop3837" />
    </linearGradient>
    <linearGradient
       inkscape:collect="always"
       xlink:href="#linearGradient3776"
       id="linearGradient3782"
       x1="24"
       y1="1050.3622"
       x2="24"
       y2="1006.3622"
       gradientUnits="userSpaceOnUse" />
    <linearGradient
       id="linearGradient3776">
      <stop
         style="stop-color:#dfe0e5;stop-opacity:1;"
         offset="0"
         id="stop3778" />
      <stop
         style="stop-color:#ededed;stop-opacity:1;"
         offset="1"
         id="stop3780-9" />
    </linearGradient>
    <radialGradient
       inkscape:collect="always"
       xlink:href="#linearGradient3849"
       id="radialGradient3855"
       cx="24"
       cy="42.5"
       fx="24"
       fy="42.5"
       r="24"
       gradientTransform="matrix(1,0,0,0.0625,0,39.84375)"
       gradientUnits="userSpaceOnUse" />
    <linearGradient
       inkscape:collect="always"
       id="linearGradient3849">
      <stop
         style="stop-color:#000000;stop-opacity:1;"
         offset="0"
         id="stop3851" />
      <stop
         style="stop-color:#000000;stop-opacity:0;"
         offset="1"
         id="stop3853" />
    </linearGradient>
    <radialGradient
       r="24"
       fy="42.5"
       fx="24"
       cy="42.5"
       cx="24"
       gradientTransform="matrix(1,0,0,0.0625,0,39.84375)"
       gradientUnits="userSpaceOnUse"
       id="radialGradient3068"
       xlink:href="#linearGradient3849"
       inkscape:collect="always" />
  </defs>
  <sodipodi:namedview
     id="base"
     pagecolor="#ffffff"
     bordercolor="#666666"
     borderopacity="1.0"
     inkscape:pageopacity="0"
     inkscape:pageshadow="2"
     inkscape:zoom="17.213245"
     inkscape:cx="24.311563"
     inkscape:cy="21.987869"
     inkscape:document-units="px"
     inkscape:current-layer="layer1"
     showgrid="true"
     inkscape:window-width="1920"
     inkscape:window-height="1052"
     inkscape:window-x="0"
     inkscape:window-y="28"
     inkscape:window-maximized="1">
    <inkscape:grid
       type="xygrid"
       id="grid3758"
       empspacing="5"
       visible="true"
       enabled="true"
       snapvisiblegridlinesonly="true" />
  </sodipodi:namedview>
  <metadata
     id="metadata7">
    <rdf:RDF>
      <cc:Work
         rdf:about="">
        <dc:format>image/svg+xml</dc:format>
        <dc:type
           rdf:resource="http://purl.org/dc/dcmitype/StillImage" />
        <dc:title></dc:title>
      </cc:Work>
    </rdf:RDF>
  </metadata>
  <g
     inkscape:label="Layer 1"
     inkscape:groupmode="layer"
     id="layer1"
     transform="translate(0,-1004.3622)">
    <path
       sodipodi:type="arc"
       style="opacity:0.2;fill:url(#radialGradient3068);fill-opacity:1;stroke:none"
       id="path3847"
       sodipodi:cx="24"
       sodipodi:cy="42.5"
       sodipodi:rx="24"
       sodipodi:ry="1.5"
       d="m 48,42.5 a 24,1.5 0 1 1 -48,0 24,1.5 0 1 1 48,0 z"
       transform="matrix(1,0,0,2,0,965.3622)" />
    <rect
       style="fill:none;fill-opacity:1;stroke:#000000;stroke-opacity:1;stroke-width:2;stroke-miterlimit:4;stroke-dasharray:none;opacity:0.2"
       id="rect3843"
       width="44"
       height="44"
       x="2"
       y="1006.3622"
       rx="3"
       ry="3" />
    <rect
       ry="3"
       rx="3"
       y="1006.3622"
       x="2"
       height="44"
       width="44"
       id="rect3755"
       style="fill:url(#linearGradient3803);fill-opacity:1.0;stroke:none" />
    <path
       sodipodi:type="arc"
       style="opacity:0.4;fill:#ffffff;fill-opacity:1;stroke:none"
       id="path3974"
       sodipodi:cx="17"
       sodipodi:cy="22.5"
       sodipodi:rx="8"
       sodipodi:ry="6.5"
       d="m 25,22.5 a 8,6.5 0 1 1 -16,0 8,6.5 0 1 1 16,0 z"
       transform="matrix(1.875,0,0,2.3076923,-7.875,976.43912)" />
    <path
       transform="matrix(1.875,0,0,2.3076923,-7.875,978.43912)"
       d="m 25,22.5 a 8,6.5 0 1 1 -16,0 8,6.5 0 1 1 16,0 z"
       sodipodi:ry="6.5"
       sodipodi:rx="8"
       sodipodi:cy="22.5"
       sodipodi:cx="17"
       id="path3841"
       style="fill:url(#radialGradient3839);fill-opacity:1;stroke:none"
       sodipodi:type="arc" />
    <path
       transform="matrix(1.875,0,0,2.3076923,-7.875,975.43912)"
       d="m 25,22.5 a 8,6.5 0 1 1 -16,0 8,6.5 0 1 1 16,0 z"
       sodipodi:ry="6.5"
       sodipodi:rx="8"
       sodipodi:cy="22.5"
       sodipodi:cx="17"
       id="path3813"
       style="fill:url(#linearGradient3827);fill-opacity:1;stroke:none"
       sodipodi:type="arc" />
    <path
       sodipodi:type="arc"
       style="fill:url(#linearGradient3962);fill-opacity:1;stroke:none"
       id="path3803"
       sodipodi:cx="17"
       sodipodi:cy="22.5"
       sodipodi:rx="8"
       sodipodi:ry="6.5"
       d="m 25,22.5 a 8,6.5 0 1 1 -16,0 8,6.5 0 1 1 16,0 z"
       transform="matrix(1.75,0,0,2.1538462,-5.75,978.90066)" />
    <path
       style="fill:url(#linearGradient3960);fill-opacity:1;stroke:none"
       d="m 24,1013.3622 c -7.731986,0 -14,6.268 -14,14 0,7.732 6.268014,14 14,14 7.731986,0 14,-6.268 14,-14 0,-7.732 -6.268014,-14 -14,-14 z m 0,1 c 7.179702,0 13,5.8203 13,13 0,7.1797 -5.820298,13 -13,13 -7.179702,0 -13,-5.8203 -13,-13 0,-7.1797 5.820298,-13 13,-13 z"
       id="path3843"
       inkscape:connector-curvature="0" />
    <path
       transform="matrix(1.25,0,0,1.5384616,2.75,992.7468)"
       d="m 25,22.5 a 8,6.5 0 1 1 -16,0 8,6.5 0 1 1 16,0 z"
       sodipodi:ry="6.5"
       sodipodi:rx="8"
       sodipodi:cy="22.5"
       sodipodi:cx="17"
       id="path3856"
       style="fill:#6d686f;fill-opacity:1;stroke:none"
       sodipodi:type="arc" />
    <path
       sodipodi:type="arc"
       style="fill:#292031;fill-opacity:1;stroke:none"
       id="path3860"
       sodipodi:cx="17"
       sodipodi:cy="22.5"
       sodipodi:rx="8"
       sodipodi:ry="6.5"
       d="m 25,22.5 a 8,6.5 0 1 1 -16,0 8,6.5 0 1 1 16,0 z"
       transform="matrix(1.125,0,0,1.3846155,4.875,996.2084)" />
    <path
       transform="matrix(1,0,0,1.2307693,7,999.6699)"
       d="m 25,22.5 a 8,6.5 0 1 1 -16,0 8,6.5 0 1 1 16,0 z"
       sodipodi:ry="6.5"
       sodipodi:rx="8"
       sodipodi:cy="22.5"
       sodipodi:cx="17"
       id="path3862"
       style="fill:url(#linearGradient3870);fill-opacity:1;stroke:none"
       sodipodi:type="arc" />
    <path
       style="opacity:0.1;fill:#000000;fill-opacity:1;stroke:none"
       d="m 24,1023.3622 c -2.209139,0 -4,1.7909 -4,4 0,2.2091 1.790861,4 4,4 2.209139,0 4,-1.7909 4,-4 0,-2.2091 -1.790861,-4 -4,-4 z m 0,2 c 1.104569,0 2,0.8954 2,2 0,1.1046 -0.895431,2 -2,2 -1.104569,0 -2,-0.8954 -2,-2 0,-1.1046 0.895431,-2 2,-2 z"
       id="path3872"
       inkscape:connector-curvature="0" />
    <path
       transform="matrix(0.25,0,0,0.30769234,19.75,1020.4391)"
       d="m 25,22.5 a 8,6.5 0 1 1 -16,0 8,6.5 0 1 1 16,0 z"
       sodipodi:ry="6.5"
       sodipodi:rx="8"
       sodipodi:cy="22.5"
       sodipodi:cx="17"
       id="path3874"
       style="opacity:0.2;fill:#000000;fill-opacity:1;stroke:none"
       sodipodi:type="arc" />
    <path
       inkscape:connector-curvature="0"
       style="opacity:0.22000002;fill:url(#radialGradient3969);fill-opacity:1;stroke:none"
       d="m 24,1019.3622 c -1.486189,0 -2.870098,0.419 -4.0625,1.125 l 1.21875,4.0313 c 0.723858,-0.7239 1.73918,-1.1563 2.84375,-1.1563 1.104569,0 2.119892,0.4324 2.84375,1.1563 l 1.21875,-4.0313 c -1.192402,-0.706 -2.576311,-1.125 -4.0625,-1.125 z"
       id="path3881" />
    <path
       sodipodi:type="arc"
       style="opacity:0.23999999;fill:url(#radialGradient3912);fill-opacity:1;stroke:none"
       id="path3904"
       sodipodi:cx="26"
       sodipodi:cy="29"
       sodipodi:rx="3"
       sodipodi:ry="2"
       d="m 29,29 a 3,2 0 1 1 -6,0 3,2 0 1 1 6,0 z"
       transform="matrix(1.0028125,-0.59621997,0.51104568,0.85955356,-14.915541,1022.2178)" />
    <path
       sodipodi:type="arc"
       style="opacity:0.2;fill:#ffffff;fill-opacity:1;stroke:none"
       id="path3972"
       sodipodi:cx="17"
       sodipodi:cy="22.5"
       sodipodi:rx="8"
       sodipodi:ry="6.5"
       d="m 25,22.5 a 8,6.5 0 1 1 -16,0 8,6.5 0 1 1 16,0 z"
       transform="matrix(0.125,0,0,0.15384617,21.875,1023.9007)" />
  </g>
</svg>
