<?xml version="1.0" encoding="UTF-8" standalone="no"?>
<!-- Created with Inkscape (http://www.inkscape.org/) -->

<svg
   xmlns:dc="http://purl.org/dc/elements/1.1/"
   xmlns:cc="http://creativecommons.org/ns#"
   xmlns:rdf="http://www.w3.org/1999/02/22-rdf-syntax-ns#"
   xmlns:svg="http://www.w3.org/2000/svg"
   xmlns="http://www.w3.org/2000/svg"
   xmlns:xlink="http://www.w3.org/1999/xlink"
   xmlns:sodipodi="http://sodipodi.sourceforge.net/DTD/sodipodi-0.dtd"
   xmlns:inkscape="http://www.inkscape.org/namespaces/inkscape"
   width="48"
   height="48"
   id="svg2"
   version="1.1"
   inkscape:version="0.48.5 r10040"
   sodipodi:docname="contacts.svg">
  <defs
     id="defs4">
    <linearGradient
       id="linearGradient3923">
      <stop
         style="stop-color:#dc2600;stop-opacity:1;"
         offset="0"
         id="stop3925" />
      <stop
         style="stop-color:#f45501;stop-opacity:1;"
         offset="1"
         id="stop3927" />
    </linearGradient>
    <linearGradient
       id="linearGradient3896">
      <stop
         style="stop-color:#dc2600;stop-opacity:1;"
         offset="0"
         id="stop3898" />
      <stop
         style="stop-color:#f45501;stop-opacity:1;"
         offset="1"
         id="stop3900" />
    </linearGradient>
    <linearGradient
       id="linearGradient3817">
      <stop
         style="stop-color:#fef0ed;stop-opacity:1;"
         offset="0"
         id="stop3819" />
      <stop
         style="stop-color:#fff5f4;stop-opacity:1;"
         offset="1"
         id="stop3821" />
    </linearGradient>
    <linearGradient
       inkscape:collect="always"
       id="linearGradient3809">
      <stop
         style="stop-color:#000000;stop-opacity:1;"
         offset="0"
         id="stop3811" />
      <stop
         style="stop-color:#000000;stop-opacity:0;"
         offset="1"
         id="stop3813" />
    </linearGradient>
    <linearGradient
       id="linearGradient3797">
      <stop
         style="stop-color:#f23f07;stop-opacity:1;"
         offset="0"
         id="stop3799" />
      <stop
         style="stop-color:#fb5f14;stop-opacity:1;"
         offset="1"
         id="stop3801" />
    </linearGradient>
    <linearGradient
       id="linearGradient3778">
      <stop
         style="stop-color:#000000;stop-opacity:1;"
         offset="0"
         id="stop3780" />
      <stop
         style="stop-color:#595959;stop-opacity:1;"
         offset="1"
         id="stop3782" />
    </linearGradient>
    <linearGradient
       inkscape:collect="always"
       xlink:href="#linearGradient3797"
       id="linearGradient3803"
       x1="24"
       y1="1050.3622"
       x2="24"
       y2="1006.3622"
       gradientUnits="userSpaceOnUse" />
    <linearGradient
       inkscape:collect="always"
       xlink:href="#linearGradient3809"
       id="linearGradient3815"
       x1="24"
       y1="41"
       x2="24"
       y2="46"
       gradientUnits="userSpaceOnUse"
       gradientTransform="matrix(1,0,0,0.79999652,-4.8648648e-8,1013.5624)" />
    <linearGradient
       inkscape:collect="always"
       xlink:href="#linearGradient3817"
       id="linearGradient3841"
       gradientUnits="userSpaceOnUse"
       x1="24"
       y1="1047.3622"
       x2="24"
       y2="1009.3622"
       gradientTransform="matrix(0.94736842,0,0,0.94736843,1.2631578,54.12433)" />
    <linearGradient
       inkscape:collect="always"
       xlink:href="#linearGradient3896"
       id="linearGradient3902"
       x1="16"
       y1="1025.3622"
       x2="32"
       y2="1025.3622"
       gradientUnits="userSpaceOnUse" />
    <linearGradient
       inkscape:collect="always"
       xlink:href="#linearGradient3923"
       id="linearGradient3929"
       x1="25"
       y1="1019.3622"
       x2="25"
       y2="1032.3622"
       gradientUnits="userSpaceOnUse"
       gradientTransform="translate(-1,-1)" />
  </defs>
  <sodipodi:namedview
     id="base"
     pagecolor="#ffffff"
     bordercolor="#666666"
     borderopacity="1.0"
     inkscape:pageopacity="0"
     inkscape:pageshadow="2"
     inkscape:zoom="17.213245"
     inkscape:cx="24.311563"
     inkscape:cy="26.635453"
     inkscape:document-units="px"
     inkscape:current-layer="layer1"
     showgrid="true"
     inkscape:window-width="1920"
     inkscape:window-height="1052"
     inkscape:window-x="0"
     inkscape:window-y="28"
     inkscape:window-maximized="1">
    <inkscape:grid
       type="xygrid"
       id="grid3758"
       empspacing="5"
       visible="true"
       enabled="true"
       snapvisiblegridlinesonly="true" />
  </sodipodi:namedview>
  <metadata
     id="metadata7">
    <rdf:RDF>
      <cc:Work
         rdf:about="">
        <dc:format>image/svg+xml</dc:format>
        <dc:type
           rdf:resource="http://purl.org/dc/dcmitype/StillImage" />
        <dc:title></dc:title>
      </cc:Work>
    </rdf:RDF>
  </metadata>
  <g
     inkscape:label="Layer 1"
     inkscape:groupmode="layer"
     id="layer1"
     transform="translate(0,-1004.3622)">
    <rect
       style="fill:none;fill-opacity:1;stroke:#000000;stroke-opacity:1;stroke-width:2;stroke-miterlimit:4;stroke-dasharray:none;opacity:0.25"
       id="rect3843"
       width="44"
       height="44"
       x="2"
       y="1006.3622"
       rx="3"
       ry="3" />
    <rect
       ry="3"
       rx="3"
       y="1006.3622"
       x="2"
       height="44"
       width="44"
       id="rect3755"
       style="fill:url(#linearGradient3803);fill-opacity:1;stroke:none" />
    <rect
       style="opacity:0.25;fill:url(#linearGradient3815);fill-opacity:1;stroke:none"
       id="rect3807"
       width="38"
       height="3.9999826"
       x="5"
       y="1046.3622" />
    <path
       style="opacity:0.2;fill:#000000;fill-opacity:1;stroke:none"
       d="m 5,1010.3622 0,36 1,0 0,-36 z m 37,0 0,36 1,0 0,-36 z"
       id="rect3825"
       inkscape:connector-curvature="0"
       sodipodi:nodetypes="cccccccccc" />
    <rect
       style="fill:url(#linearGradient3841);fill-opacity:1;stroke:none"
       id="rect3805"
       width="36"
       height="36"
       x="6"
       y="1010.3622" />
    <path
       sodipodi:nodetypes="cccccc"
       inkscape:connector-curvature="0"
       id="path3873"
       d="m 30,1010.3622 0,18 4,-4 4,4 0,-18 z"
       style="opacity:0.1;fill:#000000;fill-opacity:1;stroke:none" />
    <path
       style="opacity:0.1;fill:#000000;fill-opacity:1;stroke:none"
       d="M 5,5 5,6 43,6 43,5 z"
       id="path3832"
       transform="translate(0,1004.3622)"
       inkscape:connector-curvature="0"
       sodipodi:nodetypes="ccccc" />
    <rect
       style="opacity:1;fill:#c09b92;fill-opacity:1;stroke:none"
       id="rect3848"
       width="36"
       height="0.9999826"
       x="6"
       y="1045.3622" />
    <rect
       y="1044.3622"
       x="6"
       height="0.9999826"
       width="36"
       id="rect3850"
       style="fill:#946659;fill-opacity:1;stroke:none" />
    <rect
       y="1043.3622"
       x="6"
       height="0.9999826"
       width="36"
       id="rect3852"
       style="fill:#c5a8a2;fill-opacity:1;stroke:none" />
    <rect
       style="fill:#9a7064;fill-opacity:1;stroke:none"
       id="rect3854"
       width="36"
       height="0.9999826"
       x="6"
       y="1042.3622" />
    <rect
       style="fill:#dec1bb;fill-opacity:1;stroke:none"
       id="rect3856"
       width="36"
       height="0.9999826"
       x="6"
       y="1041.3622" />
    <rect
       y="1040.3622"
       x="6"
       height="0.9999826"
       width="36"
       id="rect3858"
       style="fill:#a67a6d;fill-opacity:1;stroke:none" />
    <rect
       y="1039.3622"
       x="6"
       height="0.9999826"
       width="36"
       id="rect3860"
       style="fill:#f4e2e0;fill-opacity:1;stroke:none" />
    <path
       style="fill:#e40000;fill-opacity:1;stroke:none"
       d="m 31,1010.3622 0,15 3,-3 3,3 0,-15 z"
       id="rect3862"
       inkscape:connector-curvature="0"
       sodipodi:nodetypes="cccccc" />
    <rect
       style="fill:#f20704;fill-opacity:1;stroke:none"
       id="rect3867"
       width="6"
       height="4"
       x="31"
       y="1014.3622" />
    <rect
       y="1020.3622"
       x="31"
       height="1.9999826"
       width="6"
       id="rect3869"
       style="fill:#cc0202;fill-opacity:1;stroke:none" />
    <rect
       y="1010.3622"
       x="31"
       height="1.0000174"
       width="6"
       id="rect3871"
       style="fill:#f50206;fill-opacity:1;stroke:none" />
    <path
       sodipodi:nodetypes="ccccccccccccccc"
       inkscape:connector-curvature="0"
       style="fill:#ffffff;fill-opacity:1;opacity:0.8"
       id="path3936"
       d="m 25,1028.3622 0,-1.3493 c 0.240132,-0.1226 0.854932,-0.9043 0.92763,-1.5648 0.188815,-0.015 0.486512,-0.1943 0.573684,-0.9022 0.04704,-0.3799 -0.139803,-0.5938 -0.253619,-0.661 0.307237,-0.8992 0.877963,-3.6811 -1.247695,-3.9686 -0.21875,-0.3739 -0.711515,-0.5541 -1.439476,-0.5541 -2.9125,0.052 -3.263815,2.1313 -2.625329,4.5227 -0.113486,0.067 -0.300329,0.2811 -0.253619,0.661 0.0875,0.7079 0.384869,0.8872 0.573685,0.9022 0.07236,0.6601 0.51892,1.4422 0.759709,1.5648 l -0.02994,1.3477 C 20.999183,1030.3622 17,1029.3622 17,1032.3622 l 13,0 c 0,-3 -4,-2 -5,-4 z" />
    <path
       d="m 25,1027.3622 0,-1.3493 c 0.240132,-0.1226 0.854932,-0.9043 0.92763,-1.5648 0.188815,-0.015 0.486512,-0.1943 0.573684,-0.9022 0.04704,-0.3799 -0.139803,-0.5938 -0.253619,-0.661 0.307237,-0.8992 0.877963,-3.6811 -1.247695,-3.9686 -0.21875,-0.3739 -0.711515,-0.5541 -1.439476,-0.5541 -2.9125,0.052 -3.263815,2.1313 -2.625329,4.5227 -0.113486,0.067 -0.300329,0.2811 -0.253619,0.661 0.0875,0.7079 0.384869,0.8872 0.573685,0.9022 0.07236,0.6601 0.51892,1.4422 0.759709,1.5648 l -0.02994,1.3477 C 20.999183,1029.3622 17,1028.3622 17,1031.3622 l 13,0 c 0,-3 -4,-2 -5,-4 z"
       id="path3907"
       style="fill:url(#linearGradient3929);fill-opacity:1"
       inkscape:connector-curvature="0"
       sodipodi:nodetypes="ccccccccccccccc" />
    <path
       style="fill:#000000;fill-opacity:1;opacity:0.1"
       d="M 23.5625 14 C 21.188694 14.042382 20.540596 15.442834 20.71875 17.25 C 20.868551 15.95514 21.6518 15.034114 23.5625 15 C 24.290461 15 24.78125 15.1886 25 15.5625 C 26.03728 15.702794 26.434185 16.430368 26.53125 17.25 C 26.65647 16.117132 26.460415 14.760024 25 14.5625 C 24.78125 14.1886 24.290461 14 23.5625 14 z M 20.78125 18.71875 C 20.711744 18.831137 20.660573 18.968499 20.6875 19.1875 C 20.714121 19.402875 20.755993 19.559725 20.8125 19.6875 C 20.856728 19.628029 20.898114 19.554503 20.9375 19.53125 C 20.863724 19.254927 20.826171 18.984093 20.78125 18.71875 z M 26.4375 18.75 C 26.378296 19.049633 26.312132 19.349407 26.25 19.53125 C 26.289501 19.554572 26.330737 19.628031 26.375 19.6875 C 26.431501 19.559725 26.473478 19.402875 26.5 19.1875 C 26.52352 18.99755 26.492558 18.859362 26.4375 18.75 z M 22 23 C 21.014153 25.0016 17 24 17 27 L 17.21875 27 C 18.044011 25.231875 21.147653 25.73055 22 24 L 22 23 z M 25 23 L 25 24 C 25.864583 25.729167 28.955599 25.231901 29.78125 27 L 30 27 C 30 24 26 25 25 23 z "
       transform="translate(0,1004.3622)"
       id="path3931" />
  </g>
</svg>
