<?xml version="1.0" encoding="UTF-8"?>
<!-- color: #2face6 -->
<svg xmlns="http://www.w3.org/2000/svg" xmlns:xlink="http://www.w3.org/1999/xlink" width="48px" height="48px" viewBox="0 0 48 48" version="1.1">
<defs>
<linearGradient id="linear0" gradientUnits="userSpaceOnUse" x1="135" y1="120" x2="160" y2="160" gradientTransform="matrix(0.199239,0,0,0.199239,-0.746294,-1.187015)">
<stop offset="0" style="stop-color:rgb(93.333333%,96.470588%,98.431373%);stop-opacity:1;"/>
<stop offset="1" style="stop-color:rgb(100%,100%,100%);stop-opacity:1;"/>
</linearGradient>
</defs>
<g id="surface1">
<path style=" stroke:none;fill-rule:nonzero;fill:rgb(78.431373%,85.098039%,91.764706%);fill-opacity:1;" d="M 18.777344 33.679688 C 18.003906 33.679688 18.136719 33.386719 17.867188 32.648438 L 15.589844 25.152344 L 29.695312 16.339844 L 31.34375 16.769531 L 29.976562 20.519531 Z M 18.777344 33.679688 "/>
<path style=" stroke:none;fill-rule:nonzero;fill:rgb(65.098039%,75.686275%,81.568627%);fill-opacity:1;" d="M 18.777344 33.679688 C 19.375 33.679688 19.640625 33.40625 19.972656 33.082031 C 20.488281 32.578125 27.148438 26.109375 27.148438 26.109375 L 23.066406 25.121094 L 19.28125 27.511719 L 18.777344 33.480469 Z M 18.777344 33.679688 "/>
<path style=" stroke:none;fill-rule:nonzero;fill:url(#linear0);" d="M 19.1875 27.585938 L 28.820312 34.703125 C 29.921875 35.308594 30.714844 34.996094 30.988281 33.683594 L 34.910156 15.199219 C 35.3125 13.589844 34.296875 12.859375 33.246094 13.335938 L 10.214844 22.21875 C 8.640625 22.851562 8.652344 23.726562 9.925781 24.117188 L 15.835938 25.964844 L 29.519531 17.332031 C 30.164062 16.941406 30.757812 17.148438 30.273438 17.582031 Z M 19.1875 27.585938 "/>
</g>
</svg>
