<svg xmlns="http://www.w3.org/2000/svg" width="48" height="48" viewBox="0 0 48 48"><path d="m 47.437,11.547375 0,24.90625 c 0,10.25 0,10.984375 -10.984375,10.984375 l -24.902344,0 C 0.562,47.438 0.562,46.703625 0.562,36.453625 l 0,-24.90625 c 0,-10.2499996 0,-10.9843746 10.988281,-10.9843746 l 24.902344,0 C 47.437,0.5630004 47.437,1.2973754 47.437,11.547375 z" fill="#5f398e"/><path d="m 47.437,11.547375 0,20.906625 c 0,10.25 0,10.984 -10.984375,10.984 l -24.902344,0 C 0.562,43.438 0.562,42.704 0.562,32.454 l 0,-20.906625 c 0,-10.2500001 0,-10.9843751 10.988281,-10.9843751 l 24.902344,0 C 47.437,0.5629999 47.437,1.2973749 47.437,11.547375 z" fill="#7f59ae"/><path d="m 14,12 22,0 0,24 -22,0 z" fill="#f9f9f9"/><path d="M 33.8125,23.441406 C 33.621094,23.175781 33.414062,22.929688 33.207031,22.6875 32.085938,21.375 30.796875,20.203125 29.386719,19.355469 28.488281,18.8125 27.523438,18.375 26.523438,18.164062 26.015625,18.054688 25.519531,18 24.996094,18 c -0.507813,0 -1.015625,0.05469 -1.523438,0.164062 -1,0.210938 -1.960937,0.648438 -2.863281,1.191407 -1.410156,0.847656 -2.695313,2.019531 -3.816406,3.332031 -0.210938,0.242188 -0.417969,0.488281 -0.605469,0.753906 -0.25,0.351563 -0.25,0.765625 0,1.117188 0.574219,0.804687 1.257812,1.515625 1.953125,2.167968 1.496094,1.40625 3.207031,2.582032 5.097656,3.058594 C 23.824219,29.929688 24.410156,30 24.996094,30 c 0.59375,0 1.175781,-0.07031 1.761718,-0.214844 1.890626,-0.476562 3.605469,-1.652344 5.101563,-3.058594 0.695313,-0.652343 1.378906,-1.363281 1.953125,-2.167968 0.25,-0.351563 0.25,-0.765625 0,-1.117188 z" fill="#7f59ae"/><path d="m 29.5,24 c 0,2.484375 -2.015625,4.5 -4.5,4.5 -2.484375,0 -4.5,-2.015625 -4.5,-4.5 0,-2.484375 2.015625,-4.5 4.5,-4.5 2.484375,0 4.5,2.015625 4.5,4.5 z" fill="#f9f9f9"/><path d="m 27.5,24 c 0,1.378906 -1.121094,2.5 -2.5,2.5 -1.378906,0 -2.5,-1.121094 -2.5,-2.5 0,-1.378906 1.121094,-2.5 2.5,-2.5 1.378906,0 2.5,1.121094 2.5,2.5 z" fill="#7f59ae"/><path d="m 28.492188,18.859375 -8.125,9.636719 c 0.371093,0.238281 0.746093,0.453125 1.136718,0.644531 L 29.625,19.5 c -0.359375,-0.25 -0.78125,-0.460938 -1.132812,-0.640625 z" fill="#f9f9f9"/><path d="m 12,14 4,0 0,2 -4,0 z" fill="#f9f9f9" id="0"/><path d="m 12,19 4,0 0,2 -4,0 z" fill="#f9f9f9"/><path d="m 12,27 4,0 0,2 -4,0 z" fill="#f9f9f9"/><path d="m 12,32 4,0 0,2 -4,0 z" fill="#f9f9f9"/><path d="m 38.265125,47.438 c 2.542969,-0.01172 4.378906,-0.08203 5.710937,-0.441406 l -4.230468,-7.25 -4.484375,7.691406 1.191406,0 c 0.640625,0 1.242187,0 1.8125,0 z m 1.480469,-7.691406 -5.125,-8.789063 -5.128906,8.789063 z m 0,0 7.652344,0 c 0.03125,-0.972656 0.03906,-2.0625 0.03906,-3.296875 l 0,-1.097657 -2.5625,-4.394531 z m 5.128906,-8.789063 -5.128906,-8.789062 -5.125,8.789062 z m 0,0 2.5625,0 0,-4.394531 z m -10.253906,0 -5.128906,-8.789062 -5.125,8.789062 z m -10.253906,0 -5.128907,8.789063 10.253907,0 z m 0,0 -5.128907,-8.789062 -5.125,8.789062 z m -10.253907,0 -5.128906,8.789063 10.253906,0 z m 0,0 -5.128906,-8.789062 -5.125,8.789062 z m -10.253906,0 L 0.562,36.605969 c 0,1.167969 0.011719,2.210937 0.039062,3.140625 l 8.382813,0 z m 0,0 -3.296875,-5.648437 0,5.648437 z m 5.125,8.789063 -4.3125,7.394531 C 6.269031,47.434094 8.479969,47.438 11.550281,47.438 l 1.921875,0 z m 0,-17.578125 -5.125,-8.789063 -3.296875,5.648438 0,3.140625 z m 0,0 10.253906,0 -5.125,-8.789063 z m 5.128906,-8.789063 -5.128906,-8.7890622 -5.125,8.7890622 z m 0,0 10.253907,0 -5.128907,-8.7890622 z m 5.125,-8.7890622 -2.351562,-4.027344 -5.335938,0 c -0.07813,0 -0.140625,0 -0.214843,0 l -2.351563,4.027344 z m 0,0 10.253907,0 -2.351563,-4.027344 -5.550781,0 z m 10.253907,0 10.253906,0 -2.351563,-4.027344 c -0.3125,0 -0.609375,0 -0.941406,0 l -4.609375,0 z m 0,0 -5.125,8.7890622 10.253906,0 z m 5.128906,8.7890622 10.253906,0 -5.128906,-8.7890622 z m 0,0 -5.128906,8.789063 10.253906,0 z m 5.125,8.789063 7.691406,0 0,-4.394531 -2.5625,-4.394532 z m 5.128906,-8.789063 2.5625,0 0,-1.832031 c 0,-0.914063 -0.0078,-1.75 -0.02344,-2.523437 z m -15.382812,8.789063 -5.125,-8.789063 -5.128907,8.789063 z m 10.253906,-17.5781252 7.308594,0 C 46.4995,1.8325308 45.167469,0.9614378 42.022938,0.6879998 z m -30.761719,0 -2.304687,-3.953125 C 3.019031,0.8442498 1.538562,1.6333118 0.944812,4.5903438 z M 3.858875,13.379406 0.620594,7.8247188 C 0.577625,8.898938 0.562,10.133312 0.562,11.547375 l 0,1.832031 z m 15.378906,26.367188 -4.484375,7.691406 8.972656,0 z m 10.253907,0 -4.484376,7.691406 8.972657,0 z M 2.59325,46.367688 0.991688,43.621594 C 1.284656,44.938 1.776844,45.801281 2.59325,46.367688 z" fill="#ffffff" fill-opacity="0.10065359477124183"/></svg>