<svg xmlns="http://www.w3.org/2000/svg" width="48" height="48" viewBox="0 0 48 48"><path d="m 47.437,11.547375 0,24.90625 c 0,10.25 0,10.984375 -10.984375,10.984375 l -24.902344,0 C 0.562,47.438 0.562,46.703625 0.562,36.453625 l 0,-24.90625 c 0,-10.2499996 0,-10.9843746 10.988281,-10.9843746 l 24.902344,0 C 47.437,0.5630004 47.437,1.2973754 47.437,11.547375 z" fill="#ce0000"/><path d="m 47.437,11.547375 0,20.906625 c 0,10.25 0,10.984 -10.984375,10.984 l -24.902344,0 C 0.562,43.438 0.562,42.704 0.562,32.454 l 0,-20.906625 c 0,-10.2500001 0,-10.9843751 10.988281,-10.9843751 l 24.902344,0 C 47.437,0.5629999 47.437,1.2973749 47.437,11.547375 z" fill="#ee1111"/><path d="m 27.16394,11.019215 c -2.152343,0.164063 -3.710937,1.546875 -4.601562,4.136719 -1.285156,3.746094 -3.460938,5.972656 -7.285156,7.425781 -2.257813,0.855469 -3.046875,1.429688 -3.75,2.777344 -0.566406,1.085937 -0.683594,2.679687 -0.316406,4.011719 0.246093,0.886718 1.527343,2.351562 2.523437,2.875 0.945313,0.496094 2.710937,0.558594 5.328125,0.160156 1.53125,-0.234375 1.902344,-0.246094 3.308594,0.03125 1.984375,0.390625 3.855468,1.335938 5.453125,2.714844 1.480469,1.277344 2.074219,1.589844 3.21875,1.769531 1.105469,0.175781 1.960937,0.0625 3.089843,-0.410156 1,-0.421875 2.105469,-1.550781 2.550782,-2.589844 0.167968,-0.386719 0.3125,-1.234375 0.316406,-1.929687 0.0039,-1.492188 -0.453125,-2.511719 -1.640625,-3.882813 -1.15625,-1.339844 -1.984375,-2.675781 -2.457031,-3.980469 -0.566406,-1.550781 -0.683594,-4.65625 -0.253906,-6.601562 0.484374,-2.183594 0.07812,-3.691406 -1.355469,-5.054688 -1.007813,-0.960937 -1.828125,-1.34375 -3.183594,-1.453125 -0.332031,-0.02734 -0.636719,-0.02344 -0.945313,0 z m -2.082031,9.855469 c 1.105469,-0.02344 2.253907,0.386719 3.152344,1.261719 2.246094,2.175781 1.710937,5.671875 -1.070313,7.078125 -0.878906,0.445312 -2.3125,0.539062 -3.308593,0.21875 -0.941407,-0.296875 -2.070313,-1.246094 -2.585938,-2.210938 -0.21875,-0.40625 -0.3125,-1.070312 -0.316406,-1.957031 -0.0039,-1.121094 0.08203,-1.4375 0.535156,-2.210937 0.816407,-1.390626 2.171875,-2.148438 3.59375,-2.179688 z" fill="#f9f9f9"/><path d="m 38.265125,47.438 c 2.542969,-0.01172 4.378906,-0.08203 5.710937,-0.441406 l -4.230468,-7.25 -4.484375,7.691406 1.191406,0 c 0.640625,0 1.242187,0 1.8125,0 z m 1.480469,-7.691406 -5.125,-8.789063 -5.128906,8.789063 z m 0,0 7.652344,0 c 0.03125,-0.972656 0.03906,-2.0625 0.03906,-3.296875 l 0,-1.097657 -2.5625,-4.394531 z m 5.128906,-8.789063 -5.128906,-8.789062 -5.125,8.789062 z m 0,0 2.5625,0 0,-4.394531 z m -10.253906,0 -5.128906,-8.789062 -5.125,8.789062 z m -10.253906,0 -5.128907,8.789063 10.253907,0 z m 0,0 -5.128907,-8.789062 -5.125,8.789062 z m -10.253907,0 -5.128906,8.789063 10.253906,0 z m 0,0 -5.128906,-8.789062 -5.125,8.789062 z m -10.253906,0 L 0.562,36.605969 c 0,1.167969 0.011719,2.210937 0.039062,3.140625 l 8.382813,0 z m 0,0 -3.296875,-5.648437 0,5.648437 z m 5.125,8.789063 -4.3125,7.394531 C 6.269031,47.434094 8.479969,47.438 11.550281,47.438 l 1.921875,0 z m 0,-17.578125 -5.125,-8.789063 -3.296875,5.648438 0,3.140625 z m 0,0 10.253906,0 -5.125,-8.789063 z m 5.128906,-8.789063 -5.128906,-8.7890622 -5.125,8.7890622 z m 0,0 10.253907,0 -5.128907,-8.7890622 z m 5.125,-8.7890622 -2.351562,-4.027344 -5.335938,0 c -0.07813,0 -0.140625,0 -0.214843,0 l -2.351563,4.027344 z m 0,0 10.253907,0 -2.351563,-4.027344 -5.550781,0 z m 10.253907,0 10.253906,0 -2.351563,-4.027344 c -0.3125,0 -0.609375,0 -0.941406,0 l -4.609375,0 z m 0,0 -5.125,8.7890622 10.253906,0 z m 5.128906,8.7890622 10.253906,0 -5.128906,-8.7890622 z m 0,0 -5.128906,8.789063 10.253906,0 z m 5.125,8.789063 7.691406,0 0,-4.394531 -2.5625,-4.394532 z m 5.128906,-8.789063 2.5625,0 0,-1.832031 c 0,-0.914063 -0.0078,-1.75 -0.02344,-2.523437 z m -15.382812,8.789063 -5.125,-8.789063 -5.128907,8.789063 z m 10.253906,-17.5781252 7.308594,0 C 46.4995,1.8325308 45.167469,0.9614378 42.022938,0.6879998 z m -30.761719,0 -2.304687,-3.953125 C 3.019031,0.8442498 1.538562,1.6333118 0.944812,4.5903438 z M 3.858875,13.379406 0.620594,7.8247188 C 0.577625,8.898938 0.562,10.133312 0.562,11.547375 l 0,1.832031 z m 15.378906,26.367188 -4.484375,7.691406 8.972656,0 z m 10.253907,0 -4.484376,7.691406 8.972657,0 z M 2.59325,46.367688 0.991688,43.621594 C 1.284656,44.938 1.776844,45.801281 2.59325,46.367688 z" fill="#ffffff" fill-opacity="0.07494553376906318"/></svg>