<svg xmlns="http://www.w3.org/2000/svg" width="48" height="48" viewBox="0 0 48 48"><path d="m 47.437,11.547375 0,24.90625 c 0,10.25 0,10.984375 -10.984375,10.984375 l -24.902344,0 C 0.562,47.438 0.562,46.703625 0.562,36.453625 l 0,-24.90625 c 0,-10.2499996 0,-10.9843746 10.988281,-10.9843746 l 24.902344,0 C 47.437,0.5630004 47.437,1.2973754 47.437,11.547375 z" fill="#c88f2b"/><path d="m 47.437,11.547375 0,20.906625 c 0,10.25 0,10.984 -10.984375,10.984 l -24.902344,0 C 0.562,43.438 0.562,42.704 0.562,32.454 l 0,-20.906625 c 0,-10.2500001 0,-10.9843751 10.988281,-10.9843751 l 24.902344,0 C 47.437,0.5629999 47.437,1.2973749 47.437,11.547375 z" fill="#e8af4b"/><path d="m 23.992188,9.539062 c -1.925782,0 -3.484376,1.558594 -3.484376,3.484376 0,1.621093 1.136719,2.960937 2.636719,3.351562 l 0,1.789062 c -3.445312,0.417969 -6.117187,3.339844 -6.117187,6.898438 0,0.960938 0.199218,1.867188 0.554687,2.699219 l -1.171875,0.683593 c -1.089844,-1.074218 -2.777344,-1.355468 -4.167968,-0.550781 -1.664063,0.960938 -2.230469,3.082031 -1.269532,4.75 0.964844,1.664063 3.085938,2.230469 4.753906,1.269531 1.425782,-0.824218 2.046876,-2.492187 1.59375,-4.003906 l 1.136719,-0.648437 c 1.273438,1.675781 3.265625,2.765625 5.535157,2.765625 2.417968,0 4.542968,-1.21875 5.792968,-3.09375 l 1.460938,0.847656 c -0.535156,1.546875 0.0625,3.285156 1.53125,4.132812 1.664062,0.960938 3.789062,0.394532 4.75,-1.269531 0.960937,-1.667969 0.398437,-3.789062 -1.269532,-4.75 -1.347656,-0.78125 -2.976562,-0.546875 -4.066406,0.453125 L 30.53125,27.40625 c 0.261719,-0.734375 0.421875,-1.523438 0.421875,-2.34375 0,-3.550781 -2.652344,-6.464844 -6.082031,-6.898438 l 0,-1.789062 c 1.5,-0.390625 2.601562,-1.730469 2.601562,-3.351562 0,-1.925782 -1.558594,-3.484376 -3.480468,-3.484376 z m 0.976562,11.324219 c 0.472656,0 0.875,0.04297 1.203125,0.164063 0.332031,0.117187 0.601563,0.269531 0.8125,0.457031 0.214844,0.183594 0.390625,0.417969 0.488281,0.648437 0.09766,0.226563 0.128906,0.457032 0.128906,0.683594 0,0.390625 -0.07812,0.730469 -0.257812,1.042969 -0.183594,0.308594 -0.460938,0.589844 -0.847656,0.8125 -0.386719,0.21875 -0.894532,0.367187 -1.496094,0.488281 -0.601562,0.117188 -1.308594,0.195313 -2.148438,0.195313 l -0.910156,0 c -0.03906,0.1875 -0.08203,0.34375 -0.09766,0.519531 -0.01172,0.175781 0,0.367188 0,0.519531 0,0.570313 0.144531,1.003907 0.421875,1.304688 0.285156,0.300781 0.738281,0.421875 1.367187,0.421875 0.363282,0 0.6875,-0.01563 0.976563,-0.06641 0.289063,-0.05469 0.539063,-0.09766 0.75,-0.160157 0.214844,-0.0625 0.382813,-0.144531 0.519531,-0.195312 0.136719,-0.05859 0.242188,-0.06641 0.292969,-0.06641 0.05078,0 0.07422,0.02734 0.09766,0.06641 0.02734,0.03125 0.03125,0.0625 0.03125,0.128906 0,0.05859 0.01172,0.148437 0,0.226563 -0.01172,0.07812 -0.04297,0.144531 -0.06641,0.230468 -0.01953,0.07813 -0.05469,0.152344 -0.09766,0.226563 -0.03125,0.07422 -0.05078,0.144531 -0.09375,0.195312 -0.07031,0.06641 -0.183594,0.125 -0.359375,0.195313 -0.171875,0.0625 -0.378906,0.136718 -0.617188,0.195312 -0.238281,0.05078 -0.5,0.09375 -0.78125,0.128906 -0.285156,0.03516 -0.5625,0.03125 -0.847656,0.03125 -0.503906,0 -0.953125,-0.04687 -1.332031,-0.160156 -0.382813,-0.113281 -0.691407,-0.289062 -0.945313,-0.519531 -0.25,-0.238281 -0.460937,-0.527344 -0.585937,-0.878906 -0.125,-0.351563 -0.164063,-0.761719 -0.164063,-1.238281 0,-0.367188 0.03125,-0.785157 0.09766,-1.203126 0.07422,-0.425781 0.171876,-0.824218 0.328126,-1.238281 0.152343,-0.414062 0.339843,-0.824219 0.585937,-1.203125 0.242187,-0.378906 0.542969,-0.71875 0.875,-1.007812 0.34375,-0.289063 0.730469,-0.507813 1.171875,-0.683594 0.445312,-0.175781 0.941406,-0.261719 1.5,-0.261719 z m -0.09766,1.105469 c -0.371094,0 -0.695313,0.06641 -0.976563,0.195312 -0.285156,0.125 -0.5625,0.273438 -0.78125,0.488282 -0.214843,0.21875 -0.394531,0.492187 -0.554687,0.78125 -0.152344,0.285156 -0.261719,0.5625 -0.359375,0.878906 l 0.847656,0 c 0.59375,0 1.101563,-0.02344 1.496094,-0.09766 0.402343,-0.07422 0.738281,-0.167969 0.976562,-0.292969 0.246094,-0.128906 0.390625,-0.285156 0.488281,-0.453125 0.101563,-0.171875 0.164063,-0.335938 0.164063,-0.523438 0,-0.289062 -0.132813,-0.539062 -0.359375,-0.714843 -0.226562,-0.179688 -0.523438,-0.261719 -0.941406,-0.261719 z" fill="#f9f9f9"/><path d="m 38.265125,47.438 c 2.542969,-0.01172 4.378906,-0.08203 5.710937,-0.441406 l -4.230468,-7.25 -4.484375,7.691406 1.191406,0 c 0.640625,0 1.242187,0 1.8125,0 z m 1.480469,-7.691406 -5.125,-8.789063 -5.128906,8.789063 z m 0,0 7.652344,0 c 0.03125,-0.972656 0.03906,-2.0625 0.03906,-3.296875 l 0,-1.097657 -2.5625,-4.394531 z m 5.128906,-8.789063 -5.128906,-8.789062 -5.125,8.789062 z m 0,0 2.5625,0 0,-4.394531 z m -10.253906,0 -5.128906,-8.789062 -5.125,8.789062 z m -10.253906,0 -5.128907,8.789063 10.253907,0 z m 0,0 -5.128907,-8.789062 -5.125,8.789062 z m -10.253907,0 -5.128906,8.789063 10.253906,0 z m 0,0 -5.128906,-8.789062 -5.125,8.789062 z m -10.253906,0 L 0.562,36.605969 c 0,1.167969 0.011719,2.210937 0.039062,3.140625 l 8.382813,0 z m 0,0 -3.296875,-5.648437 0,5.648437 z m 5.125,8.789063 -4.3125,7.394531 C 6.269031,47.434094 8.479969,47.438 11.550281,47.438 l 1.921875,0 z m 0,-17.578125 -5.125,-8.789063 -3.296875,5.648438 0,3.140625 z m 0,0 10.253906,0 -5.125,-8.789063 z m 5.128906,-8.789063 -5.128906,-8.7890622 -5.125,8.7890622 z m 0,0 10.253907,0 -5.128907,-8.7890622 z m 5.125,-8.7890622 -2.351562,-4.027344 -5.335938,0 c -0.07813,0 -0.140625,0 -0.214843,0 l -2.351563,4.027344 z m 0,0 10.253907,0 -2.351563,-4.027344 -5.550781,0 z m 10.253907,0 10.253906,0 -2.351563,-4.027344 c -0.3125,0 -0.609375,0 -0.941406,0 l -4.609375,0 z m 0,0 -5.125,8.7890622 10.253906,0 z m 5.128906,8.7890622 10.253906,0 -5.128906,-8.7890622 z m 0,0 -5.128906,8.789063 10.253906,0 z m 5.125,8.789063 7.691406,0 0,-4.394531 -2.5625,-4.394532 z m 5.128906,-8.789063 2.5625,0 0,-1.832031 c 0,-0.914063 -0.0078,-1.75 -0.02344,-2.523437 z m -15.382812,8.789063 -5.125,-8.789063 -5.128907,8.789063 z m 10.253906,-17.5781252 7.308594,0 C 46.4995,1.8325308 45.167469,0.9614378 42.022938,0.6879998 z m -30.761719,0 -2.304687,-3.953125 C 3.019031,0.8442498 1.538562,1.6333118 0.944812,4.5903438 z M 3.858875,13.379406 0.620594,7.8247188 C 0.577625,8.898938 0.562,10.133312 0.562,11.547375 l 0,1.832031 z m 15.378906,26.367188 -4.484375,7.691406 8.972656,0 z m 10.253907,0 -4.484376,7.691406 8.972657,0 z M 2.59325,46.367688 0.991688,43.621594 C 1.284656,44.938 1.776844,45.801281 2.59325,46.367688 z" fill="#ffffff" fill-opacity="0.12069716775599129"/></svg>