<svg xmlns="http://www.w3.org/2000/svg" width="48" height="48" viewBox="0 0 48 48"><path d="m 47.437,11.547375 0,24.90625 c 0,10.25 0,10.984375 -10.984375,10.984375 l -24.902344,0 C 0.562,47.438 0.562,46.703625 0.562,36.453625 l 0,-24.90625 c 0,-10.2499996 0,-10.9843746 10.988281,-10.9843746 l 24.902344,0 C 47.437,0.5630004 47.437,1.2973754 47.437,11.547375 z" fill="#71a8df"/><path d="m 47.437,11.547375 0,20.906625 c 0,10.25 0,10.984 -10.984375,10.984 l -24.902344,0 C 0.562,43.438 0.562,42.704 0.562,32.454 l 0,-20.906625 c 0,-10.2500001 0,-10.9843751 10.988281,-10.9843751 l 24.902344,0 C 47.437,0.5629999 47.437,1.2973749 47.437,11.547375 z" fill="#91c8ff"/><path d="m 23.348 10.84 c -0.059 0.332 -0.121 0.664 -0.188 0.992 -5.316 0.34 -10.762 4.516 -11.07 11.301 l -0.109 0 0 1.234 c -1.191 0.41 -1.648 2.336 -1.5 3.43 0.102 1.41 0.457 2.465 1.91 2.941 0.012 -0.145 0.027 -0.305 0.039 -0.449 l 0.02 0.504 c 0.441 0.09 0.75 0.129 0.953 0.059 l 0.02 0.691 c 0.371 0.148 0.578 0.18 0.691 -0.094 0.008 0.078 0.016 0.164 0.02 0.242 0.465 0.223 1.238 0.277 1.707 0.094 0.148 -0.094 0.258 -0.41 0.355 -0.84 2.535 3.707 7.492 4.84 11.973 3.09 1.379 -0.449 2.758 -1.359 3.727 -2.547 0.078 0.23 0.16 0.422 0.262 0.484 0.469 0.184 1.242 0.129 1.707 -0.094 0.004 -0.078 0.012 -0.164 0.016 -0.242 0.117 0.273 0.324 0.242 0.695 0.094 l 0.02 -0.691 c 0.203 0.07 0.512 0.027 0.953 -0.059 l 0.02 -0.504 c 0.012 0.145 0.027 0.305 0.039 0.449 1.453 -0.477 1.805 -1.535 1.91 -2.941 0.148 -1.094 -0.309 -3.02 -1.5 -3.43 l 0 -1.234 -0.094 0 c -0.207 -2.539 -1.086 -5.098 -2.695 -7.16 -1.984 -2.531 -5.07 -4.305 -9.258 -4.344 -0.074 -0.004 -0.148 -0.004 -0.223 0 -0.145 -0.324 -0.277 -0.641 -0.395 -0.977 m 0.676 1.574 c 3.992 0.055 6.84 1.73 8.711 4.121 1.516 1.941 2.359 4.371 2.566 6.785 l -0.133 0 0 1.105 c -0.191 -0.031 -0.379 -0.059 -0.41 -0.059 -0.02 0.016 -0.039 0.035 -0.059 0.059 l 0.02 -0.883 c 0 0 -0.586 -0.188 -0.637 -0.188 -0.004 0.008 -0.012 0.027 -0.02 0.039 -0.012 -0.012 -0.023 -0.031 -0.035 -0.039 l -1.219 0 c -0.391 0.176 -0.613 0.563 -0.77 0.992 -2.082 -4.156 -5.926 -7.633 -8.02 -11.934 m -1.105 0.055 c 0.035 0 0.074 0 0.109 0 -0.082 0.379 -0.18 0.754 -0.277 1.125 -0.824 3.988 -4.01 6.805 -6.164 10.1 -0.184 0.277 -0.352 0.578 -0.508 0.883 -0.164 -0.59 -0.383 -1.176 -0.898 -1.406 l -1.219 0 c -0.012 0.008 -0.023 0.027 -0.039 0.039 -0.004 -0.012 -0.012 -0.031 -0.016 -0.039 -0.055 0 -0.637 0.188 -0.637 0.188 l 0.016 0.879 c -0.016 -0.02 -0.035 -0.043 -0.055 -0.055 -0.035 0 -0.219 0.027 -0.41 0.055 l 0 -1.105 -0.133 0 c 0.305 -6.344 5.301 -10.219 10.23 -10.66 m 1.309 12.11 c 2.477 0 4.941 0.219 7.57 0.563 -0.027 0.105 -0.047 0.219 -0.074 0.316 -0.035 0.16 -0.066 0.359 -0.094 0.563 -0.242 -0.027 -0.488 -0.043 -0.73 -0.074 0.363 0.637 0.301 2.086 -0.094 2.695 -0.496 0.77 -1.477 1.352 -2.719 1.426 -0.57 0.023 -1.199 0 -1.777 -0.133 -0.574 -0.133 -1.09 -0.383 -1.406 -0.824 l 0 -0.016 c -0.355 -0.449 -0.465 -0.961 -0.469 -1.465 -0.004 -0.508 0.074 -1.734 0.059 -2.152 -0.313 0 -0.625 0.012 -0.938 0.02 -0.016 0.414 0.043 1.633 0.035 2.133 -0.004 0.512 -0.082 1.031 -0.449 1.48 -0.313 0.449 -0.844 0.691 -1.422 0.824 -0.578 0.137 -1.211 0.156 -1.781 0.133 -1.242 -0.074 -2.223 -0.656 -2.715 -1.426 -0.363 -0.559 -0.453 -1.93 -0.188 -2.527 -0.215 0.039 -0.422 0.07 -0.637 0.113 -0.031 -0.344 -0.063 -0.652 -0.113 -0.898 2.781 -0.535 5.367 -0.758 7.941 -0.75 m 1.387 0.918 c -0.289 0.035 -0.539 0.086 -0.711 0.148 0 0.418 -0.059 0.852 -0.055 1.258 0.004 0.465 0.086 0.883 0.375 1.234 l 0 0.02 c 0.227 0.324 0.656 0.535 1.18 0.656 0.52 0.121 1.121 0.152 1.668 0.129 1.125 -0.066 1.984 -0.598 2.398 -1.234 0.391 -0.605 0.383 -1.262 -0.152 -1.836 -1.613 -0.188 -3.164 -0.324 -4.703 -0.375 m -3.297 0.02 c -1.543 0.07 -3.129 0.234 -4.758 0.504 -0.004 0.008 0.004 0.012 0 0.02 -0.387 0.531 -0.352 1.121 0 1.668 0.41 0.637 1.273 1.168 2.398 1.234 0.547 0.023 1.145 -0.008 1.668 -0.129 0.52 -0.121 0.953 -0.332 1.18 -0.656 l 0 -0.02 c 0.285 -0.355 0.371 -0.77 0.375 -1.234 0.004 -0.406 -0.039 -0.84 -0.039 -1.258 -0.156 -0.059 -0.391 -0.094 -0.656 -0.129 m -0.168 0" fill="#f9f9f9" fill-rule="evenodd" stroke="none" fill-opacity="1"/><path d="m 38.265125,47.438 c 2.542969,-0.01172 4.378906,-0.08203 5.710937,-0.441406 l -4.230468,-7.25 -4.484375,7.691406 1.191406,0 c 0.640625,0 1.242187,0 1.8125,0 z m 1.480469,-7.691406 -5.125,-8.789063 -5.128906,8.789063 z m 0,0 7.652344,0 c 0.03125,-0.972656 0.03906,-2.0625 0.03906,-3.296875 l 0,-1.097657 -2.5625,-4.394531 z m 5.128906,-8.789063 -5.128906,-8.789062 -5.125,8.789062 z m 0,0 2.5625,0 0,-4.394531 z m -10.253906,0 -5.128906,-8.789062 -5.125,8.789062 z m -10.253906,0 -5.128907,8.789063 10.253907,0 z m 0,0 -5.128907,-8.789062 -5.125,8.789062 z m -10.253907,0 -5.128906,8.789063 10.253906,0 z m 0,0 -5.128906,-8.789062 -5.125,8.789062 z m -10.253906,0 L 0.562,36.605969 c 0,1.167969 0.011719,2.210937 0.039062,3.140625 l 8.382813,0 z m 0,0 -3.296875,-5.648437 0,5.648437 z m 5.125,8.789063 -4.3125,7.394531 C 6.269031,47.434094 8.479969,47.438 11.550281,47.438 l 1.921875,0 z m 0,-17.578125 -5.125,-8.789063 -3.296875,5.648438 0,3.140625 z m 0,0 10.253906,0 -5.125,-8.789063 z m 5.128906,-8.789063 -5.128906,-8.7890622 -5.125,8.7890622 z m 0,0 10.253907,0 -5.128907,-8.7890622 z m 5.125,-8.7890622 -2.351562,-4.027344 -5.335938,0 c -0.07813,0 -0.140625,0 -0.214843,0 l -2.351563,4.027344 z m 0,0 10.253907,0 -2.351563,-4.027344 -5.550781,0 z m 10.253907,0 10.253906,0 -2.351563,-4.027344 c -0.3125,0 -0.609375,0 -0.941406,0 l -4.609375,0 z m 0,0 -5.125,8.7890622 10.253906,0 z m 5.128906,8.7890622 10.253906,0 -5.128906,-8.7890622 z m 0,0 -5.128906,8.789063 10.253906,0 z m 5.125,8.789063 7.691406,0 0,-4.394531 -2.5625,-4.394532 z m 5.128906,-8.789063 2.5625,0 0,-1.832031 c 0,-0.914063 -0.0078,-1.75 -0.02344,-2.523437 z m -15.382812,8.789063 -5.125,-8.789063 -5.128907,8.789063 z m 10.253906,-17.5781252 7.308594,0 C 46.4995,1.8325308 45.167469,0.9614378 42.022938,0.6879998 z m -30.761719,0 -2.304687,-3.953125 C 3.019031,0.8442498 1.538562,1.6333118 0.944812,4.5903438 z M 3.858875,13.379406 0.620594,7.8247188 C 0.577625,8.898938 0.562,10.133312 0.562,11.547375 l 0,1.832031 z m 15.378906,26.367188 -4.484375,7.691406 8.972656,0 z m 10.253907,0 -4.484376,7.691406 8.972657,0 z M 2.59325,46.367688 0.991688,43.621594 C 1.284656,44.938 1.776844,45.801281 2.59325,46.367688 z" fill="#ffffff" fill-opacity="0.14640522875816994"/></svg>