<svg xmlns="http://www.w3.org/2000/svg" width="48" height="48" viewBox="0 0 48 48"><path d="m 47.437,11.547375 0,24.90625 c 0,10.25 0,10.984375 -10.984375,10.984375 l -24.902344,0 C 0.562,47.438 0.562,46.703625 0.562,36.453625 l 0,-24.90625 c 0,-10.2499996 0,-10.9843746 10.988281,-10.9843746 l 24.902344,0 C 47.437,0.5630004 47.437,1.2973754 47.437,11.547375 z" fill="#00777c"/><path d="m 47.437,11.547375 0,20.906625 c 0,10.25 0,10.984 -10.984375,10.984 l -24.902344,0 C 0.562,43.438 0.562,42.704 0.562,32.454 l 0,-20.906625 c 0,-10.2500001 0,-10.9843751 10.988281,-10.9843751 l 24.902344,0 C 47.437,0.5629999 47.437,1.2973749 47.437,11.547375 z" fill="#00979c"/><path d="m 17.328 18 c -1.66 0 -3.273 0.625 -4.461 1.742 c -1.184 1.113 -1.867 2.66 -1.867 4.258 c 0 1.594 0.684 3.137 1.867 4.25 1.172 1.105 2.766 1.727 4.406 1.738 l 0 0.004 c 0.016 0 0.035 0 0.055 0 1.961 0.086 3.539 -0.633 4.695 -1.676 c 0.797 -0.715 1.406 -1.566 1.977 -2.434 c 0.57 0.867 1.18 1.715 1.977 2.434 1.156 1.043 2.734 1.762 4.695 1.676 0.02 0 0.035 0 0.055 0 l 0 -0.004 c 1.641 -0.012 3.234 -0.633 4.406 -1.738 1.184 -1.113 1.867 -2.656 1.867 -4.25 0 -1.598 -0.684 -3.145 -1.867 -4.258 -1.188 -1.117 -2.801 -1.742 -4.461 -1.742 c -2.063 0 -3.695 0.785 -4.898 1.875 c -0.699 0.633 -1.258 1.355 -1.773 2.098 -0.512 -0.742 -1.074 -1.465 -1.773 -2.098 -1.203 -1.09 -2.832 -1.875 -4.898 -1.875 z m 0 2.117 c 1.543 0 2.527 0.496 3.43 1.313 0.711 0.645 1.332 1.539 1.953 2.496 -0.707 1.113 -1.387 2.145 -2.152 2.836 -0.852 0.77 -1.73 1.191 -3.172 1.117 l -0.031 -0.004 -0.027 0 c -1.082 0 -2.188 -0.43 -2.945 -1.137 l -0.012 -0.012 c -0.758 -0.711 -1.207 -1.738 -1.207 -2.727 c 0 -0.992 0.449 -2.02 1.207 -2.73 0.758 -0.715 1.871 -1.152 2.957 -1.152 z m 13.344 0 c 1.09 0 2.199 0.438 2.957 1.152 0.758 0.711 1.207 1.738 1.207 2.73 0 0.988 -0.449 2.02 -1.207 2.727 l -0.008 0.012 c -0.758 0.707 -1.867 1.137 -2.949 1.137 l -0.027 0 -0.027 0.004 c -1.441 0.074 -2.324 -0.348 -3.176 -1.117 -0.766 -0.691 -1.445 -1.723 -2.152 -2.836 0.621 -0.957 1.242 -1.852 1.953 -2.496 0.902 -0.816 1.887 -1.313 3.43 -1.313 z m 0 0" fill="#f9f9f9" fill-rule="nonzero" stroke="none" fill-opacity="1"/><path d="m 30 21 0 2 -2 0 0 2 2 0 0 2 2 0 0 -2 2 0 0 -2 -2 0 0 -2 z m 0 0" fill="#f9f9f9" fill-rule="nonzero" stroke="none" fill-opacity="1"/><path d="m 15 23 0 2 5 0 0 -2 z m 0 0" fill="#f9f9f9" fill-rule="nonzero" stroke="none" fill-opacity="1"/><path d="m 38.265125,47.438 c 2.542969,-0.01172 4.378906,-0.08203 5.710937,-0.441406 l -4.230468,-7.25 -4.484375,7.691406 1.191406,0 c 0.640625,0 1.242187,0 1.8125,0 z m 1.480469,-7.691406 -5.125,-8.789063 -5.128906,8.789063 z m 0,0 7.652344,0 c 0.03125,-0.972656 0.03906,-2.0625 0.03906,-3.296875 l 0,-1.097657 -2.5625,-4.394531 z m 5.128906,-8.789063 -5.128906,-8.789062 -5.125,8.789062 z m 0,0 2.5625,0 0,-4.394531 z m -10.253906,0 -5.128906,-8.789062 -5.125,8.789062 z m -10.253906,0 -5.128907,8.789063 10.253907,0 z m 0,0 -5.128907,-8.789062 -5.125,8.789062 z m -10.253907,0 -5.128906,8.789063 10.253906,0 z m 0,0 -5.128906,-8.789062 -5.125,8.789062 z m -10.253906,0 L 0.562,36.605969 c 0,1.167969 0.011719,2.210937 0.039062,3.140625 l 8.382813,0 z m 0,0 -3.296875,-5.648437 0,5.648437 z m 5.125,8.789063 -4.3125,7.394531 C 6.269031,47.434094 8.479969,47.438 11.550281,47.438 l 1.921875,0 z m 0,-17.578125 -5.125,-8.789063 -3.296875,5.648438 0,3.140625 z m 0,0 10.253906,0 -5.125,-8.789063 z m 5.128906,-8.789063 -5.128906,-8.7890622 -5.125,8.7890622 z m 0,0 10.253907,0 -5.128907,-8.7890622 z m 5.125,-8.7890622 -2.351562,-4.027344 -5.335938,0 c -0.07813,0 -0.140625,0 -0.214843,0 l -2.351563,4.027344 z m 0,0 10.253907,0 -2.351563,-4.027344 -5.550781,0 z m 10.253907,0 10.253906,0 -2.351563,-4.027344 c -0.3125,0 -0.609375,0 -0.941406,0 l -4.609375,0 z m 0,0 -5.125,8.7890622 10.253906,0 z m 5.128906,8.7890622 10.253906,0 -5.128906,-8.7890622 z m 0,0 -5.128906,8.789063 10.253906,0 z m 5.125,8.789063 7.691406,0 0,-4.394531 -2.5625,-4.394532 z m 5.128906,-8.789063 2.5625,0 0,-1.832031 c 0,-0.914063 -0.0078,-1.75 -0.02344,-2.523437 z m -15.382812,8.789063 -5.125,-8.789063 -5.128907,8.789063 z m 10.253906,-17.5781252 7.308594,0 C 46.4995,1.8325308 45.167469,0.9614378 42.022938,0.6879998 z m -30.761719,0 -2.304687,-3.953125 C 3.019031,0.8442498 1.538562,1.6333118 0.944812,4.5903438 z M 3.858875,13.379406 0.620594,7.8247188 C 0.577625,8.898938 0.562,10.133312 0.562,11.547375 l 0,1.832031 z m 15.378906,26.367188 -4.484375,7.691406 8.972656,0 z m 10.253907,0 -4.484376,7.691406 8.972657,0 z M 2.59325,46.367688 0.991688,43.621594 C 1.284656,44.938 1.776844,45.801281 2.59325,46.367688 z" fill="#ffffff" fill-opacity="0.08257080610021787"/></svg>