<!-- color: #89b83a -->
<svg xmlns="http://www.w3.org/2000/svg" xmlns:xlink="http://www.w3.org/1999/xlink" width="48px" height="48px" viewBox="0 0 48 48" version="1.1">
<g id="surface1">
<path style=" stroke:none;fill-rule:nonzero;fill:rgb(97.647059%,97.647059%,97.647059%);fill-opacity:1;" d="M 21.191406 14 C 20.625 14.015625 20.042969 14.109375 19.472656 14.3125 C 17.03125 15.171875 15.179688 17.671875 14.632812 20.777344 C 13.027344 21.179688 11.640625 22.632812 11.160156 24.746094 C 10.492188 27.742188 11.898438 30.867188 14.28125 31.710938 C 14.320312 31.722656 14.34375 31.734375 14.382812 31.742188 C 14.710938 31.894531 15.105469 31.996094 15.472656 31.996094 L 16.003906 31.996094 C 16.003906 31.996094 17.003906 31.007812 17.003906 29.996094 L 17.003906 18 C 17.003906 17 17.972656 16 17.972656 16 L 20.96875 16 C 20.96875 16 20.003906 17 20.003906 18 L 20.003906 21 L 28.023438 21 L 28.023438 18 C 28.023438 17.5 28.25 17 28.492188 16.625 C 28.355469 16.65625 28.226562 16.699219 28.085938 16.75 C 27.628906 16.910156 27.21875 17.144531 26.835938 17.46875 C 25.523438 15.246094 23.417969 13.933594 21.183594 14 M 18.285156 17 C 18.132812 17.304688 18.003906 17.652344 18.003906 18 L 19.003906 18 C 19.003906 17.652344 19.128906 17.304688 19.28125 17 M 29.3125 17 C 29.160156 17.304688 29.03125 17.652344 29.03125 18 L 30.03125 18 C 30.03125 17.652344 30.15625 17.304688 30.308594 17 M 31.277344 17.09375 C 31.140625 17.378906 31.027344 17.675781 31.027344 18 L 31.027344 29.996094 C 31.027344 31.015625 30.03125 31.996094 30.03125 31.996094 L 32.777344 31.996094 C 33.394531 31.996094 33.945312 31.757812 34.429688 31.371094 C 36.367188 30.214844 37.429688 27.429688 36.835938 24.75 C 36.394531 22.769531 35.148438 21.347656 33.683594 20.84375 C 33.660156 20.777344 33.660156 20.722656 33.652344 20.65625 C 33.289062 19.039062 32.398438 17.773438 31.277344 17.078125 M 18.007812 19 L 18.007812 20 L 19.007812 20 L 19.007812 19 M 29.027344 19 L 29.027344 20 L 30.027344 20 L 30.027344 19 M 18.007812 20.996094 L 18.007812 21.996094 L 19.007812 21.996094 L 19.007812 20.996094 M 29.027344 20.996094 L 29.027344 21.996094 L 30.027344 21.996094 L 30.027344 20.996094 M 20.007812 21.996094 L 20.007812 26.996094 L 28.027344 26.996094 L 28.027344 21.996094 M 18.007812 22.996094 L 18.007812 23.996094 L 19.007812 23.996094 L 19.007812 22.996094 M 29.027344 22.996094 L 29.027344 23.996094 L 30.027344 23.996094 L 30.027344 22.996094 M 18.007812 24.992188 L 18.007812 25.992188 L 19.007812 25.992188 L 19.007812 24.992188 M 29.027344 24.992188 L 29.027344 25.992188 L 30.027344 25.992188 L 30.027344 24.992188 M 18.007812 26.992188 L 18.007812 27.992188 L 19.007812 27.992188 L 19.007812 26.992188 M 29.027344 26.992188 L 29.027344 27.992188 L 30.027344 27.992188 L 30.027344 26.992188 M 20.007812 27.992188 L 20.007812 29.988281 C 20.007812 30.96875 19.007812 31.988281 19.007812 31.988281 L 27.027344 31.988281 C 27.027344 31.988281 28.027344 30.988281 28.027344 29.988281 L 28.027344 27.992188 M 18.007812 28.992188 L 18.007812 29.988281 L 19.007812 29.988281 L 19.007812 28.992188 M 29.027344 28.992188 L 29.027344 29.988281 L 30.027344 29.988281 L 30.027344 28.992188 M 17.722656 30.988281 C 17.425781 31.5625 17.003906 31.988281 17.003906 31.988281 L 18.003906 31.988281 C 18.003906 31.988281 18.425781 31.5625 18.722656 30.988281 M 28.742188 30.988281 C 28.445312 31.5625 28.023438 31.988281 28.023438 31.988281 L 29.023438 31.988281 C 29.023438 31.988281 29.445312 31.5625 29.742188 30.988281 M 28.742188 30.988281 "/>
</g>
</svg>
