<!-- color: #d6e4eb -->
<svg xmlns="http://www.w3.org/2000/svg" xmlns:xlink="http://www.w3.org/1999/xlink" width="48px" height="48px" viewBox="0 0 48 48" version="1.1">
<g id="surface1">
<path style=" stroke:none;fill-rule:nonzero;fill:rgb(91.764706%,14.901961%,14.901961%);fill-opacity:1;" d="M 38 16.664062 C 34.570312 19.714844 24.316406 31.21875 22.578125 31.21875 C 21.4375 31.21875 20.476562 30.421875 20.15625 29.199219 C 19.972656 28.449219 20.253906 29.398438 10 33.996094 C 11.027344 33.339844 18.21875 27.816406 19.15625 27.144531 C 20.089844 26.476562 24.703125 23.238281 26.050781 22.207031 C 28.519531 20.285156 29.480469 18.734375 29.480469 16.625 C 29.480469 14.980469 28.472656 13.996094 26.875 13.996094 C 25.875 13.996094 25.136719 14.230469 24.085938 14.839844 C 22.351562 15.875 20.796875 17.140625 19.835938 18.265625 C 18.101562 20.425781 16.546875 25.585938 16.546875 29.386719 C 16.546875 32.15625 17.964844 33.890625 20.292969 33.890625 C 22.988281 33.890625 32.46875 24.664062 36.078125 20.957031 L 38 16.660156 M 20.066406 24.886719 C 20.84375 19.867188 22.945312 15.96875 24.910156 15.96875 C 25.6875 15.96875 26.191406 16.769531 26.191406 17.894531 C 26.191406 20.242188 24.957031 21.648438 20.066406 24.886719 "/>
</g>
</svg>
