<!-- color: #eeeeee -->
<svg xmlns="http://www.w3.org/2000/svg" xmlns:xlink="http://www.w3.org/1999/xlink" width="48px" height="48px" viewBox="0 0 48 48" version="1.1">
<g id="surface1">
<path style=" stroke:none;fill-rule:nonzero;fill:rgb(27.058824%,64.313725%,92.156863%);fill-opacity:1;" d="M 9 0 L 0 0 L 0 48 L 9 48 M 9 0 "/>
<path style=" stroke:none;fill-rule:nonzero;fill:rgb(35.686275%,30.196078%,21.960784%);fill-opacity:1;" d="M 39 6.5625 C 43.898438 10.78125 47 17.03125 47 24 C 47 30.96875 43.898438 37.21875 39 41.4375 M 39 6.5625 "/>
<path style=" stroke:none;fill-rule:nonzero;fill:rgb(97.254902%,90.196078%,49.019608%);fill-opacity:1;" d="M 39 0 L 39 15 L 48 15 C 48 13 48 1 48 0 C 46 0 39.464844 0 39 0 M 39 0 "/>
<path style=" stroke:none;fill-rule:nonzero;fill:rgb(34.901961%,89.019608%,58.039216%);fill-opacity:1;" d="M 39 15 L 39 24 L 48 24 C 48 20.800781 48 16 48 15 M 39 15 "/>
<path style=" stroke:none;fill-rule:nonzero;fill:rgb(21.176471%,78.039216%,84.313725%);fill-opacity:1;" d="M 39 24 L 39 33 L 48 33 L 48 24 M 39 24 "/>
<path style=" stroke:none;fill-rule:nonzero;fill:rgb(92.54902%,40%,50.196078%);fill-opacity:1;" d="M 39 33 L 39 48 L 48 48 L 48 33 M 39 33 "/>
<path style=" stroke:none;fill-rule:nonzero;fill:rgb(81.176471%,55.686275%,56.078431%);fill-opacity:0.941176;" d="M 23.128906 26.6875 L 19.328125 22.109375 L 18.871094 17.429688 L 24.359375 15.921875 L 27.976562 17.027344 L 29 20 L 28.257812 21.753906 L 23.835938 26.734375 M 23.128906 26.6875 "/>
<path style=" stroke:none;fill-rule:nonzero;fill:rgb(81.176471%,20.784314%,16.078431%);fill-opacity:1;" d="M 14 33 L 34 33 L 34 32 C 33.476562 29.691406 30.792969 26.496094 27.449219 25.128906 L 25.265625 27.25 L 24.574219 26.792969 L 22.65625 26.75 L 22.042969 27.457031 L 19.722656 25.15625 C 17.164062 26.28125 14.527344 29.289062 14 32 M 14 33 "/>
<path style=" stroke:none;fill-rule:nonzero;fill:rgb(100%,80%,80%);fill-opacity:1;" d="M 23.574219 14.796875 L 23.578125 14.796875 C 25.796875 14.796875 27.597656 17.089844 27.597656 19.917969 L 27.597656 19.921875 C 27.597656 22.75 25.796875 25.039062 23.578125 25.039062 L 23.574219 25.039062 C 21.351562 25.039062 19.554688 22.75 19.554688 19.921875 L 19.554688 19.917969 C 19.554688 17.089844 21.355469 14.796875 23.574219 14.796875 M 23.574219 14.796875 "/>
<path style=" stroke:none;fill-rule:nonzero;fill:rgb(100%,80%,80%);fill-opacity:1;" d="M 26.375 23.878906 C 26.804688 23.457031 27.878906 22.585938 28 22 L 28.800781 20 L 27.992188 18.617188 L 21.585938 16.234375 L 20.542969 17.117188 L 18.816406 19.367188 L 19.242188 21.902344 L 19.464844 22.550781 L 20.769531 23.875 M 26.375 23.878906 "/>
<path style=" stroke:none;fill-rule:nonzero;fill:rgb(81.176471%,21.176471%,16.078431%);fill-opacity:1;" d="M 19.5 22.566406 L 19.5 19.433594 C 19.820312 18.066406 21.144531 16.683594 21.800781 16.699219 C 22.929688 16.84375 23.71875 17.839844 24.390625 18.808594 C 25.0625 19.609375 27.449219 19.496094 28 18.730469 C 28 19.898438 28 20.832031 28 22 C 28.628906 21.757812 28.867188 20.804688 29 20 C 29 10.84375 18 10.707031 18 19.433594 C 18.09375 20.519531 18.867188 22.050781 19.5 22.566406 M 19.5 22.566406 "/>
<path style=" stroke:none;fill-rule:nonzero;fill:rgb(69.803922%,83.137255%,81.176471%);fill-opacity:1;" d="M 23.578125 26.765625 L 26.375 23.867188 L 27.773438 25.316406 L 24.972656 28.214844 M 23.578125 26.765625 "/>
<path style=" stroke:none;fill-rule:nonzero;fill:rgb(69.803922%,83.137255%,81.176471%);fill-opacity:1;" d="M 20.78125 23.871094 L 23.578125 26.769531 L 22.179688 28.21875 L 19.382812 25.316406 M 20.78125 23.871094 "/>
</g>
</svg>
