<!-- color: #3d3d3d -->
<svg xmlns="http://www.w3.org/2000/svg" xmlns:xlink="http://www.w3.org/1999/xlink" width="48px" height="48px" viewBox="0 0 48 48" version="1.1">
<g id="surface1">
<path style=" stroke:none;fill-rule:nonzero;fill:rgb(60.392157%,72.54902%,86.666667%);fill-opacity:1;" d="M 11 27.457031 C 12.246094 29.691406 14.089844 31.628906 16.460938 33.003906 C 18.839844 34.375 21.4375 35 23.996094 34.960938 C 22.746094 32.726562 20.917969 30.769531 18.542969 29.398438 C 16.164062 28.023438 13.558594 27.417969 10.996094 27.457031 M 11 27.457031 "/>
<path style=" stroke:none;fill-rule:nonzero;fill:rgb(60.392157%,86.666667%,61.568627%);fill-opacity:1;" d="M 14.375 18.292969 C 14.328125 21.582031 15.128906 24.917969 16.894531 27.972656 C 18.660156 31.023438 21.144531 33.386719 24.015625 34.992188 C 24.066406 31.707031 23.285156 28.359375 21.523438 25.304688 C 19.757812 22.25 17.25 19.898438 14.363281 18.296875 M 14.375 18.296875 "/>
<path style=" stroke:none;fill-rule:nonzero;fill:rgb(93.333333%,55.686275%,40.784314%);fill-opacity:1;" d="M 36.992188 27.460938 C 34.433594 27.425781 31.835938 28.046875 29.460938 29.421875 C 27.082031 30.792969 25.242188 32.730469 23.996094 34.964844 C 26.558594 35.003906 29.160156 34.398438 31.542969 33.023438 C 33.921875 31.648438 35.75 29.695312 36.996094 27.460938 M 36.992188 27.460938 "/>
<path style=" stroke:none;fill-rule:nonzero;fill:rgb(95.294118%,94.901961%,51.764706%);fill-opacity:1;" d="M 23.980469 11 C 21.882812 14.511719 20.671875 18.609375 20.671875 23 C 20.671875 27.390625 21.882812 31.484375 23.980469 35 C 26.078125 31.484375 27.324219 27.394531 27.324219 23 C 27.324219 18.609375 26.078125 14.511719 23.980469 11 M 23.980469 11 "/>
<path style=" stroke:none;fill-rule:nonzero;fill:rgb(93.333333%,72.54902%,40.784314%);fill-opacity:1;" d="M 33.859375 17.964844 C 30.933594 19.597656 28.390625 22.011719 26.597656 25.121094 C 24.796875 28.238281 23.976562 31.640625 24.027344 34.992188 C 26.957031 33.359375 29.515625 30.960938 31.316406 27.835938 C 33.117188 24.71875 33.910156 21.304688 33.859375 17.949219 M 33.859375 17.964844 "/>
</g>
</svg>
