<!-- color: #f9b140 -->
<svg xmlns="http://www.w3.org/2000/svg" xmlns:xlink="http://www.w3.org/1999/xlink" width="48px" height="48px" viewBox="0 0 48 48" version="1.1">
<g id="surface1">
<path style=" stroke:none;fill-rule:nonzero;fill:rgb(100%,100%,100%);fill-opacity:1;" d="M 20.703125 8.988281 C 19.105469 12.71875 20.320312 14.984375 20.75 16.5625 L 23.277344 16.222656 C 22.742188 14.265625 21.820312 12.011719 23.117188 8.988281 M 20.703125 8.988281 "/>
<path style=" stroke:none;fill-rule:nonzero;fill:rgb(100%,100%,100%);fill-opacity:1;" d="M 40 15.261719 C 35.820312 15.261719 31.800781 16.066406 26.652344 17.996094 L 28.421875 19.601562 C 30.996094 18.316406 35.175781 16.867188 40 16.867188 M 40 15.261719 "/>
<path style=" stroke:none;fill-rule:nonzero;fill:rgb(100%,100%,100%);fill-opacity:1;" d="M 8 16.710938 L 8 18.800781 C 9.609375 19.285156 13.144531 19.765625 16.363281 19.765625 L 16.683594 17.996094 C 13.480469 17.871094 11.054688 17.515625 8 16.710938 M 8 16.710938 "/>
<path style=" stroke:none;fill-rule:nonzero;fill:rgb(100%,100%,100%);fill-opacity:1;" d="M 26.824219 22.3125 L 24.71875 24.269531 C 30.347656 27 34.847656 30.859375 37.421875 36.003906 L 39.351562 33.433594 C 36.804688 29.613281 32.921875 25.714844 26.824219 22.324219 M 26.824219 22.316406 "/>
<path style=" stroke:none;fill-rule:nonzero;fill:rgb(100%,100%,100%);fill-opacity:1;" d="M 18 23.339844 C 17.675781 23.347656 17.347656 23.394531 17 23.433594 C 16.011719 23.542969 15.265625 23.75 14.4375 24.058594 C 13.875 24.265625 13.449219 24.476562 12.8125 24.871094 C 12.175781 25.265625 11.53125 25.839844 11.53125 25.839844 L 13.46875 27.78125 C 13.46875 27.78125 14.382812 27.097656 14.90625 26.808594 C 15.429688 26.523438 16.140625 26.402344 16.65625 26.339844 C 17.992188 26.183594 19.289062 26.449219 19.90625 26.964844 C 20.566406 27.519531 20.84375 27.902344 20.875 29.375 C 20.28125 29.347656 19.671875 29.386719 19 29.402344 C 18.402344 29.421875 17.1875 29.449219 16.6875 29.527344 C 15.355469 29.746094 13.917969 29.96875 12.53125 30.875 C 11.792969 31.355469 11.195312 32.082031 10.875 32.90625 C 10.519531 33.832031 10.433594 34.925781 10.71875 35.875 C 11.015625 36.867188 11.683594 37.832031 12.5625 38.375 C 14.253906 39.046875 16.460938 39.214844 18.0625 38.65625 C 18.960938 38.332031 19.660156 38.0625 20.46875 37.125 C 20.601562 36.972656 20.714844 36.707031 20.875 36.4375 L 20.875 38.71875 L 24.25 38.71875 L 24.25 29.527344 C 24.214844 27.527344 23.417969 25.742188 22 24.558594 C 20.617188 23.625 19.402344 23.304688 18 23.339844 M 20.53125 31.871094 C 20.59375 31.871094 20.65625 31.871094 20.71875 31.871094 C 20.71875 31.894531 20.71875 31.914062 20.71875 31.9375 C 20.71875 31.9375 20.878906 34.5625 19.4375 35.46875 C 17.996094 36.367188 17.367188 36.398438 16.3125 36.21875 C 15.578125 36.09375 14.734375 35.683594 14.4375 34.992188 C 14.199219 34.441406 14.378906 33.71875 14.753906 33.242188 C 15.335938 32.515625 16.398438 32.320312 17.316406 32.113281 C 18.15625 31.925781 19.464844 31.859375 20.535156 31.863281 M 20.535156 31.863281 "/>
</g>
</svg>
