<!-- color: #a57b44 -->
<svg xmlns="http://www.w3.org/2000/svg" xmlns:xlink="http://www.w3.org/1999/xlink" width="48px" height="48px" viewBox="0 0 48 48" version="1.1">
<g id="surface1">
<path style=" stroke:none;fill-rule:nonzero;fill:rgb(93.333333%,80.784314%,55.686275%);fill-opacity:1;" d="M 19.316406 28.011719 L 27.179688 28.011719 C 30.117188 28.011719 32.496094 29.800781 32.496094 32.007812 C 32.496094 34.214844 30.117188 36.003906 27.179688 36.003906 L 19.316406 36.003906 C 16.378906 36.003906 14 34.214844 14 32.007812 C 14 29.800781 16.378906 28.011719 19.316406 28.011719 M 19.316406 28.011719 "/>
<path style=" stroke:none;fill-rule:nonzero;fill:rgb(93.333333%,80.784314%,55.686275%);fill-opacity:1;" d="M 14 21.050781 L 32.496094 21.050781 L 32.496094 32.050781 L 14 32.050781 M 14 21.050781 "/>
<path style=" stroke:none;fill-rule:nonzero;fill:rgb(93.333333%,80.784314%,55.686275%);fill-opacity:1;" d="M 31.558594 23.703125 C 32.578125 23.703125 33.378906 24.03125 33.972656 24.691406 C 34.558594 25.347656 34.851562 26.246094 34.851562 27.386719 C 34.851562 28.5625 34.566406 29.472656 34.003906 30.113281 C 33.433594 30.753906 32.621094 31.074219 31.574219 31.074219 C 30.925781 31.074219 30.191406 30.960938 29.363281 30.734375 L 29.363281 31.648438 C 30.003906 31.882812 30.796875 32 31.738281 32 C 33.101562 32 34.152344 31.597656 34.894531 30.796875 C 35.632812 29.992188 36.003906 28.851562 36.003906 27.375 C 36.003906 26.449219 35.824219 25.640625 35.472656 24.945312 C 35.113281 24.246094 34.597656 23.710938 33.925781 23.335938 C 33.25 22.957031 32.457031 22.769531 31.546875 22.769531 C 30.578125 22.769531 29.726562 22.941406 29.003906 23.285156 L 29.457031 24.183594 C 30.160156 23.863281 30.859375 23.703125 31.558594 23.703125 "/>
<path style=" stroke:none;fill-rule:nonzero;fill:rgb(93.333333%,80.784314%,55.686275%);fill-opacity:1;" d="M 17.988281 12.011719 C 18.015625 11.945312 16.988281 12.28125 16.394531 12.574219 C 16.097656 12.722656 15.433594 13.207031 15.261719 13.394531 C 15.085938 13.585938 14.929688 13.804688 14.824219 14.027344 C 14.71875 14.25 14.640625 14.492188 14.625 14.730469 C 14.609375 14.96875 14.640625 15.230469 14.738281 15.453125 C 14.835938 15.6875 15.019531 15.902344 15.207031 16.101562 C 15.394531 16.304688 15.652344 16.476562 15.863281 16.664062 C 16.070312 16.851562 16.304688 17.023438 16.460938 17.234375 C 16.621094 17.445312 16.742188 17.691406 16.800781 17.933594 C 16.851562 18.148438 16.832031 18.390625 16.785156 18.609375 C 16.742188 18.832031 16.648438 19.054688 16.523438 19.253906 C 16.390625 19.464844 16.21875 19.667969 16.019531 19.839844 C 15.796875 20.027344 15.234375 20.265625 15.253906 20.332031 C 15.273438 20.398438 16.136719 20.148438 16.410156 20.050781 C 16.65625 19.96875 17.308594 19.671875 17.511719 19.523438 C 17.699219 19.382812 17.90625 19.242188 18.066406 19.074219 C 18.21875 18.910156 18.363281 18.722656 18.425781 18.53125 C 18.488281 18.316406 18.488281 18.078125 18.441406 17.855469 C 18.394531 17.613281 18.28125 17.371094 18.148438 17.148438 C 18.019531 16.925781 17.84375 16.71875 17.667969 16.515625 C 17.488281 16.308594 17.285156 16.121094 17.085938 15.925781 C 16.894531 15.738281 16.652344 15.578125 16.492188 15.375 C 16.328125 15.164062 16.148438 14.929688 16.105469 14.691406 C 16.0625 14.464844 16.144531 14.214844 16.238281 13.992188 C 16.332031 13.761719 16.5 13.546875 16.667969 13.34375 C 16.824219 13.15625 17.035156 12.992188 17.210938 12.8125 C 17.472656 12.546875 17.917969 12.191406 17.988281 12.011719 M 17.988281 12.011719 "/>
<path style=" stroke:none;fill-rule:nonzero;fill:rgb(93.333333%,80.784314%,55.686275%);fill-opacity:1;" d="M 23.769531 12.011719 C 23.796875 11.945312 22.773438 12.28125 22.175781 12.574219 C 21.878906 12.722656 21.214844 13.207031 21.042969 13.394531 C 20.867188 13.585938 20.710938 13.804688 20.605469 14.027344 C 20.5 14.25 20.421875 14.492188 20.40625 14.730469 C 20.390625 14.96875 20.421875 15.230469 20.519531 15.453125 C 20.617188 15.6875 20.804688 15.902344 20.988281 16.101562 C 21.175781 16.304688 21.433594 16.476562 21.644531 16.664062 C 21.851562 16.851562 22.085938 17.023438 22.242188 17.234375 C 22.402344 17.445312 22.523438 17.691406 22.582031 17.933594 C 22.632812 18.148438 22.613281 18.390625 22.570312 18.609375 C 22.523438 18.832031 22.429688 19.054688 22.304688 19.253906 C 22.175781 19.464844 22 19.667969 21.800781 19.839844 C 21.578125 20.027344 21.015625 20.265625 21.039062 20.332031 C 21.058594 20.398438 21.917969 20.148438 22.199219 20.050781 C 22.445312 19.96875 23.089844 19.671875 23.292969 19.523438 C 23.488281 19.382812 23.695312 19.242188 23.851562 19.074219 C 24 18.910156 24.148438 18.722656 24.207031 18.53125 C 24.273438 18.316406 24.269531 18.078125 24.226562 17.855469 C 24.175781 17.613281 24.0625 17.371094 23.929688 17.148438 C 23.800781 16.925781 23.625 16.71875 23.449219 16.515625 C 23.273438 16.308594 23.066406 16.121094 22.867188 15.925781 C 22.675781 15.738281 22.4375 15.578125 22.273438 15.375 C 22.109375 15.164062 21.929688 14.929688 21.886719 14.691406 C 21.847656 14.464844 21.925781 14.214844 22.019531 13.992188 C 22.113281 13.761719 22.28125 13.546875 22.449219 13.34375 C 22.605469 13.15625 22.816406 12.992188 22.992188 12.8125 C 23.253906 12.546875 23.699219 12.191406 23.769531 12.011719 M 23.769531 12.011719 "/>
<path style=" stroke:none;fill-rule:nonzero;fill:rgb(93.333333%,80.784314%,55.686275%);fill-opacity:1;" d="M 29.546875 12.011719 C 29.574219 11.945312 28.550781 12.28125 27.953125 12.574219 C 27.660156 12.722656 26.996094 13.207031 26.824219 13.394531 C 26.644531 13.585938 26.492188 13.804688 26.386719 14.027344 C 26.28125 14.25 26.199219 14.492188 26.1875 14.730469 C 26.171875 14.96875 26.203125 15.230469 26.296875 15.453125 C 26.398438 15.6875 26.582031 15.902344 26.765625 16.101562 C 26.957031 16.304688 27.210938 16.476562 27.421875 16.664062 C 27.628906 16.851562 27.867188 17.023438 28.023438 17.234375 C 28.179688 17.445312 28.304688 17.691406 28.359375 17.933594 C 28.414062 18.148438 28.394531 18.390625 28.347656 18.609375 C 28.300781 18.832031 28.210938 19.054688 28.085938 19.253906 C 27.953125 19.464844 27.78125 19.667969 27.578125 19.839844 C 27.359375 20.027344 26.792969 20.265625 26.816406 20.332031 C 26.839844 20.398438 27.699219 20.148438 27.980469 20.050781 C 28.222656 19.96875 28.867188 19.671875 29.074219 19.523438 C 29.269531 19.382812 29.472656 19.242188 29.628906 19.074219 C 29.777344 18.910156 29.925781 18.722656 29.984375 18.53125 C 30.050781 18.316406 30.046875 18.078125 30.003906 17.855469 C 29.957031 17.613281 29.839844 17.371094 29.710938 17.148438 C 29.582031 16.925781 29.40625 16.71875 29.230469 16.515625 C 29.050781 16.308594 28.847656 16.121094 28.648438 15.925781 C 28.453125 15.738281 28.214844 15.578125 28.054688 15.375 C 27.890625 15.164062 27.710938 14.929688 27.667969 14.691406 C 27.625 14.464844 27.707031 14.214844 27.796875 13.992188 C 27.894531 13.761719 28.0625 13.546875 28.230469 13.34375 C 28.386719 13.15625 28.59375 12.992188 28.773438 12.8125 C 29.035156 12.546875 29.476562 12.191406 29.546875 12.011719 M 29.546875 12.011719 "/>
</g>
</svg>
