<!-- color: #87d3e3 -->
<svg xmlns="http://www.w3.org/2000/svg" xmlns:xlink="http://www.w3.org/1999/xlink" width="48px" height="48px" viewBox="0 0 48 48" version="1.1">
<g id="surface1">
<path style=" stroke:none;fill-rule:evenodd;fill:rgb(52.54902%,81.960784%,89.019608%);fill-opacity:1;" d="M 24 0 L 24 24 L 48 24 L 48 0 M 24 0 "/>
<path style=" stroke:none;fill-rule:evenodd;fill:rgb(96.078431%,73.333333%,37.254902%);fill-opacity:1;" d="M 24 24 L 24 48 L 48 48 L 48 24 M 24 24 "/>
<path style=" stroke:none;fill-rule:evenodd;fill:rgb(15.686275%,66.27451%,78.431373%);fill-opacity:1;" d="M 0 24 L 0 48 L 24 48 L 24 24 M 0 24 "/>
<path style=" stroke:none;fill-rule:evenodd;fill:rgb(30.196078%,74.509804%,83.921569%);fill-opacity:1;" d="M 0 0 L 0 24 L 24 24 L 24 0 M 0 0 "/>
<path style=" stroke:none;fill-rule:nonzero;fill:rgb(97.647059%,97.647059%,97.647059%);fill-opacity:1;" d="M 37 30 L 37 32 L 29 32 L 29 30 M 37 30 "/>
<path style=" stroke:none;fill-rule:nonzero;fill:rgb(97.647059%,97.647059%,97.647059%);fill-opacity:1;" d="M 37 34 L 37 36 L 29 36 L 29 34 M 37 34 "/>
<path style=" stroke:none;fill-rule:nonzero;fill:rgb(97.647059%,97.647059%,97.647059%);fill-opacity:1;" d="M 37 14 L 37 15.996094 L 29 15.996094 L 29 14 M 37 14 "/>
<path style=" stroke:none;fill-rule:nonzero;fill:rgb(97.647059%,97.647059%,97.647059%);fill-opacity:1;" d="M 19 31.960938 L 19 33.960938 L 11 33.960938 L 11 31.960938 M 19 31.960938 "/>
<path style=" stroke:none;fill-rule:nonzero;fill:rgb(97.647059%,97.647059%,97.647059%);fill-opacity:1;" d="M 15.96875 29 L 15.96875 31 L 13.96875 31 L 13.96875 29 M 15.96875 29 "/>
<path style=" stroke:none;fill-rule:nonzero;fill:rgb(97.647059%,97.647059%,97.647059%);fill-opacity:1;" d="M 15.96875 35 L 15.96875 37 L 13.96875 37 L 13.96875 35 M 15.96875 35 "/>
<path style=" stroke:none;fill-rule:nonzero;fill:rgb(97.647059%,97.647059%,97.647059%);fill-opacity:1;" d="M 14 11 L 15.996094 11 L 15.996094 19 L 14 19 M 14 11 "/>
<path style=" stroke:none;fill-rule:nonzero;fill:rgb(97.647059%,97.647059%,97.647059%);fill-opacity:1;" d="M 19 13.996094 L 19 15.996094 L 11 15.996094 L 11 13.996094 M 19 13.996094 "/>
</g>
</svg>
