<!-- color: #5c8dc3 -->
<svg xmlns="http://www.w3.org/2000/svg" xmlns:xlink="http://www.w3.org/1999/xlink" width="48px" height="48px" viewBox="0 0 48 48" version="1.1">
<g id="surface1">
<path style=" stroke:none;fill-rule:nonzero;fill:rgb(97.647059%,97.647059%,97.647059%);fill-opacity:1;" d="M 29.40625 12 C 27.375 12.78125 24.980469 13.4375 22.8125 13.617188 C 23.183594 14.203125 23.511719 14.402344 24.132812 14.695312 C 21.0625 19.351562 16.671875 20.808594 12.003906 23.597656 C 15.148438 28.171875 19.992188 32.039062 23.863281 36 C 28.023438 33.003906 33.066406 27.847656 35.996094 23.597656 C 33.324219 22 30.265625 19.90625 27.296875 19.011719 C 27.660156 18.386719 28.03125 17.777344 28.351562 17.125 C 29.152344 17.464844 29.925781 17.863281 30.726562 18.203125 C 30.578125 16.335938 30.355469 13.613281 29.40625 12 M 21.757812 19.28125 C 21 23.046875 21.15625 26.269531 21.230469 30.066406 C 18.746094 28.886719 15.6875 25.878906 14.109375 23.597656 C 16.320312 21.980469 19.140625 20.054688 21.757812 19.28125 M 26.765625 19.550781 C 27.777344 19.855469 28.578125 20.234375 29.140625 21.167969 C 28.070312 21.179688 27.035156 21.351562 25.972656 21.4375 C 26.167969 20.746094 26.417969 20.179688 26.765625 19.550781 M 29.929688 21.4375 C 31.378906 21.875 32.898438 22.691406 33.886719 23.867188 C 31.210938 26.59375 27.828125 30.597656 24.390625 32.226562 C 24.410156 29.753906 26.675781 22.855469 29.929688 24.945312 M 25.445312 21.976562 C 25.925781 21.976562 25.847656 21.980469 26.238281 22.246094 C 25.886719 22.722656 25.644531 22.96875 25.183594 23.328125 C 25.269531 22.878906 25.359375 22.429688 25.445312 21.980469 M 25.445312 21.976562 "/>
</g>
</svg>
