<!-- color: #e57e29 -->
<svg xmlns="http://www.w3.org/2000/svg" xmlns:xlink="http://www.w3.org/1999/xlink" width="48px" height="48px" viewBox="0 0 48 48" version="1.1">
<g id="surface1">
<path style=" stroke:none;fill-rule:nonzero;fill:rgb(97.647059%,97.647059%,97.647059%);fill-opacity:1;" d="M 17.4375 7.625 C 12.714844 7.625 8.335938 9.054688 4.6875 11.46875 C 3.234375 13.707031 2.199219 16.214844 1.59375 18.90625 C 3.6875 16.414062 5.519531 14.636719 7.375 13.40625 C 11 23.285156 11.1875 23.324219 8.5 12.75 C 11.15625 11.285156 13.90625 10.804688 17.4375 10.78125 C 17.746094 10.777344 18.035156 10.800781 18.34375 10.8125 C 18.300781 16.320312 17.441406 27.671875 14.375 31.8125 C 9.941406 20.402344 10.480469 22.433594 13.46875 32.15625 C 13.257812 32.261719 13.058594 32.417969 12.84375 32.59375 L 11.46875 31.5625 L 12.15625 33.53125 C 9.226562 33.976562 6.316406 33.242188 3.40625 34.3125 C 3.792969 35.085938 4.191406 35.8125 4.65625 36.53125 C 7.414062 35.90625 9.421875 33.570312 12.1875 35.132812 C 12.230469 35.347656 12.34375 35.539062 12.4375 35.726562 L 6 38.320312 C 6.152344 38.511719 6.28125 38.699219 6.4375 38.882812 C 8.613281 37.855469 10.839844 37.449219 12.875 36.351562 C 13.078125 36.53125 13.34375 36.660156 13.625 36.757812 L 9.71875 42.039062 C 9.941406 42.214844 10.179688 42.402344 10.40625 42.570312 C 11.8125 40.820312 12.472656 38.824219 14.28125 36.882812 C 14.519531 36.902344 14.789062 36.941406 15.0625 36.90625 C 14.714844 39.746094 14.960938 42.679688 15.65625 45.4375 C 16.558594 45.789062 17.511719 46.078125 18.472656 46.3125 C 17.761719 43.089844 15.828125 40.105469 16.003906 36.71875 C 16.890625 37.058594 17.355469 37.5 18.347656 38.1875 C 17.902344 37.519531 17.355469 37.085938 16.972656 36.25 C 17.058594 36.109375 17.140625 35.96875 17.191406 35.8125 C 21.746094 37.546875 26.007812 38.035156 30.632812 40.8125 L 33.160156 42.6875 C 32.128906 44.195312 30.808594 45.492188 29.132812 46.4375 C 31.851562 45.820312 34.378906 44.730469 36.632812 43.25 C 39.066406 39.605469 40.507812 35.230469 40.507812 30.5625 C 40.507812 17.96875 30.226562 7.625 17.445312 7.625 M 21.226562 11.15625 C 28.851562 12.65625 35.503906 18.640625 36.945312 25.65625 L 36.601562 26.09375 C 35.960938 27.203125 29.941406 29.121094 27.757812 29.8125 C 23.589844 30.703125 20.605469 32.820312 16.601562 32.96875 C 16.355469 32.644531 16.070312 32.351562 15.726562 32.15625 C 18.160156 27.828125 17.359375 16.261719 21.226562 11.15625 M 36.359375 27.59375 L 37.265625 28.46875 C 37.265625 29.167969 37.191406 29.855469 37.074219 30.5625 C 36.480469 34.304688 35.730469 38.003906 34.171875 41.03125 L 30.855469 39.9375 C 27.078125 38.097656 21.414062 36.902344 17.386719 34.25 C 23.160156 30.933594 30.019531 29.597656 36.355469 27.59375 M 21.636719 43.753906 C 22.09375 45.082031 23.21875 45.96875 24.039062 47.003906 C 24.414062 47.003906 24.796875 46.992188 25.164062 46.972656 C 23.84375 45.902344 22.734375 44.972656 21.636719 43.753906 M 21.636719 43.753906 "/>
</g>
</svg>
