<!-- color: #eeeeee -->
<svg xmlns="http://www.w3.org/2000/svg" xmlns:xlink="http://www.w3.org/1999/xlink" width="48px" height="48px" viewBox="0 0 48 48" version="1.1">
<g id="surface1">
<path style=" stroke:none;fill-rule:nonzero;fill:rgb(17.647059%,17.647059%,17.647059%);fill-opacity:1;" d="M 14.644531 21.148438 L 33.355469 21.148438 L 33.355469 28.46875 L 14.644531 28.46875 M 14.644531 21.148438 "/>
<path style=" stroke:none;fill-rule:nonzero;fill:rgb(17.647059%,17.647059%,17.647059%);fill-opacity:1;" d="M 15.402344 29.878906 L 32.597656 29.878906 L 32.597656 32.648438 L 15.402344 32.648438 M 15.402344 29.878906 "/>
<path style=" stroke:none;fill-rule:nonzero;fill:rgb(97.647059%,97.647059%,97.647059%);fill-opacity:1;" d="M 15.039062 28.523438 L 32.894531 28.523438 L 32.894531 29.890625 L 15.039062 29.890625 M 15.039062 28.523438 "/>
<path style=" stroke:none;fill-rule:nonzero;fill:rgb(34.509804%,63.529412%,20.784314%);fill-opacity:1;" d="M 23.925781 12.40625 C 23.5625 12.40625 23.222656 12.433594 22.871094 12.46875 C 22.59375 12.496094 22.308594 12.53125 22.035156 12.578125 L 22.035156 12.601562 C 21.144531 12.757812 20.273438 12.996094 19.464844 13.34375 C 18.042969 13.949219 16.96875 14.558594 15.882812 15.636719 C 16.210938 16.285156 16.84375 17.429688 17.257812 17.976562 L 14.082031 17.976562 C 13.398438 18.972656 12.949219 19.765625 12.578125 20.945312 C 12.207031 22.128906 12 23.394531 12 24.699219 C 12 30.777344 16.347656 35.828125 22.039062 36.820312 L 22.039062 36.84375 C 22.304688 36.886719 22.585938 36.90625 22.855469 36.933594 C 23.210938 36.964844 23.558594 36.996094 23.929688 36.996094 C 23.976562 36.996094 24.027344 36.996094 24.078125 36.996094 C 24.445312 36.996094 24.8125 36.964844 25.171875 36.933594 C 25.441406 36.90625 25.699219 36.886719 25.964844 36.84375 L 25.964844 36.820312 C 31.660156 35.832031 36.003906 30.777344 36.003906 24.699219 C 36.003906 23.394531 35.792969 22.125 35.425781 20.945312 C 35.054688 19.761719 34.609375 18.972656 33.921875 17.976562 L 30.75 17.976562 C 31.160156 17.429688 31.792969 16.289062 32.121094 15.636719 C 31.03125 14.558594 29.957031 13.945312 28.542969 13.34375 C 27.726562 12.996094 26.859375 12.757812 25.96875 12.601562 L 25.96875 12.578125 C 25.6875 12.53125 25.417969 12.5 25.132812 12.46875 C 24.789062 12.433594 24.433594 12.40625 24.082031 12.40625 C 24.03125 12.40625 23.980469 12.40625 23.929688 12.40625 M 17.425781 23.371094 C 18.398438 23.371094 19.183594 24.171875 19.183594 25.164062 C 19.183594 26.152344 18.398438 26.957031 17.425781 26.957031 C 16.457031 26.957031 15.667969 26.15625 15.667969 25.164062 C 15.667969 24.175781 16.457031 23.371094 17.425781 23.371094 M 30.574219 23.371094 C 31.546875 23.371094 32.332031 24.171875 32.332031 25.164062 C 32.332031 26.152344 31.546875 26.957031 30.574219 26.957031 C 29.605469 26.957031 28.816406 26.15625 28.816406 25.164062 C 28.816406 24.175781 29.605469 23.371094 30.574219 23.371094 M 15.261719 29.507812 L 32.742188 29.507812 L 32.742188 29.878906 L 31.242188 29.878906 C 31.214844 31.171875 30.34375 31.867188 29.546875 32.632812 C 28.738281 31.753906 28.300781 30.804688 28.582031 29.878906 L 19.429688 29.878906 C 19.710938 30.804688 19.273438 31.753906 18.464844 32.632812 C 17.664062 31.867188 16.796875 31.171875 16.769531 29.878906 L 15.269531 29.878906 L 15.269531 29.507812 M 15.261719 29.507812 "/>
<path style=" stroke:none;fill-rule:nonzero;fill:rgb(17.647059%,17.647059%,17.647059%);fill-opacity:1;" d="M 31.300781 17.660156 C 32.398438 16.203125 32.707031 14.867188 34.84375 11 C 35.722656 11.957031 35.945312 15.976562 33.875 17.660156 M 31.300781 17.660156 "/>
<path style=" stroke:none;fill-rule:nonzero;fill:rgb(17.647059%,17.647059%,17.647059%);fill-opacity:1;" d="M 16.550781 17.660156 C 15.453125 16.203125 15.144531 14.867188 13.007812 11 C 12.128906 11.957031 11.90625 15.976562 13.976562 17.660156 M 16.550781 17.660156 "/>
</g>
</svg>
