<!-- color: #eeeeee -->
<svg xmlns="http://www.w3.org/2000/svg" xmlns:xlink="http://www.w3.org/1999/xlink" width="48px" height="48px" viewBox="0 0 48 48" version="1.1">
<defs>
<linearGradient id="linear0" gradientUnits="userSpaceOnUse" x1="1.521" y1="6.63" x2="11.968" y2="6.659" gradientTransform="matrix(0,-3.543307,3.543307,0,0.000000350784,48)">
<stop offset="0" style="stop-color:rgb(98.431373%,55.686275%,27.058824%);stop-opacity:1;"/>
<stop offset="1" style="stop-color:rgb(12.54902%,72.156863%,89.803922%);stop-opacity:1;"/>
</linearGradient>
</defs>
<g id="surface1">
<rect x="0" y="0" width="48" height="48" style="fill:url(#linear0);stroke:none;"/>
<path style=" stroke:none;fill-rule:nonzero;fill:rgb(0%,10.196078%,21.176471%);fill-opacity:1;" d="M 23.25 26.628906 C 21.058594 23.882812 20.390625 21.277344 21.257812 18.457031 C 21.5 17.675781 21.730469 16.757812 21.773438 16.414062 C 21.847656 15.804688 21.839844 15.769531 21.472656 15.402344 C 21.265625 15.191406 20.828125 14.863281 20.503906 14.671875 L 19.910156 14.328125 L 18.796875 14.464844 C 15.871094 14.816406 14.128906 15.75 12.445312 17.855469 C 12.003906 18.40625 11.875 18.347656 12.136719 17.722656 C 13.65625 15.246094 16.648438 14.125 18.785156 13.835938 C 20.070312 13.585938 20.363281 13.492188 20.5 13.273438 C 20.882812 12.679688 21.511719 12.113281 21.871094 12.039062 C 22.417969 11.925781 23.390625 12.179688 23.730469 12.519531 C 24.199219 12.984375 24.300781 13.519531 24.226562 15.132812 C 24.191406 15.921875 24.089844 16.820312 23.996094 17.128906 C 23.824219 17.769531 23.796875 18.375 23.765625 19.035156 C 28.390625 20.707031 32.902344 23.289062 35.992188 26.488281 C 35.320312 26.085938 34.261719 25.613281 33.730469 25.457031 C 36.15625 26.765625 35.664062 28.820312 33.535156 27.019531 C 33.613281 26.992188 33.851562 27.054688 34.066406 27.164062 C 34.28125 27.269531 34.507812 27.34375 34.574219 27.320312 C 32.871094 25.28125 29.214844 26.515625 28.054688 27.535156 C 27.242188 30.253906 27.777344 33.632812 27.128906 35.902344 C 26.925781 36.050781 26.699219 35.988281 26.605469 35.929688 C 26.980469 33.25 26.992188 30.34375 26.917969 27.96875 L 26.171875 27.914062 C 25.761719 27.882812 25.347656 27.835938 25.257812 27.8125 C 25.535156 30.304688 25.714844 33.140625 25.714844 35.851562 C 25.582031 36.03125 25.390625 36.042969 25.171875 35.859375 C 24.996094 32.171875 25.511719 29.648438 23.246094 26.644531 M 23.25 26.632812 "/>
</g>
</svg>
