<!-- color: #eaebe1 -->
<svg xmlns="http://www.w3.org/2000/svg" xmlns:xlink="http://www.w3.org/1999/xlink" width="48px" height="48px" viewBox="0 0 48 48" version="1.1">
<defs>
<linearGradient id="linear0" gradientUnits="userSpaceOnUse" x1="0" y1="34" x2="0" y2="19" gradientTransform="matrix(1,0,0,1.090909,0.00000298819,-3.09091)">
<stop offset="0" style="stop-color:rgb(0%,0%,0%);stop-opacity:0.0588235;"/>
<stop offset="1" style="stop-color:rgb(0%,0%,0%);stop-opacity:0;"/>
</linearGradient>
</defs>
<g id="surface1">
<path style=" stroke:none;fill-rule:nonzero;fill:rgb(63.137255%,48.627451%,35.686275%);fill-opacity:1;" d="M 9 15 L 39 15 L 39 24.996094 L 9 24.996094 M 9 15 "/>
<path style=" stroke:none;fill-rule:nonzero;fill:rgb(76.078431%,60.392157%,41.568627%);fill-opacity:1;" d="M 9 15 L 12 18 L 11.335938 21 L 9 22 M 9 15 "/>
<path style=" stroke:none;fill-rule:nonzero;fill:rgb(81.960784%,69.019608%,57.254902%);fill-opacity:1;" d="M 8 23 L 12 23 L 12 22.285156 C 12 21.09375 12 15.792969 12 17.996094 L 8 21.996094 M 8 22.996094 "/>
<path style=" stroke:none;fill-rule:nonzero;fill:rgb(76.078431%,60.392157%,41.568627%);fill-opacity:1;" d="M 39.011719 15 L 36.011719 18 L 36.675781 21 L 39.011719 22 M 39.011719 15 "/>
<path style=" stroke:none;fill-rule:nonzero;fill:rgb(81.960784%,69.019608%,57.254902%);fill-opacity:1;" d="M 40 23 L 36 23 L 36 22.285156 C 36 21.09375 36 15.792969 36 17.996094 L 40 21.925781 M 40 23 "/>
<path style=" stroke:none;fill-rule:nonzero;fill:rgb(76.078431%,60.392157%,41.568627%);fill-opacity:1;" d="M 8 34 L 8 48 L 40 48 L 40 34 M 8 34 "/>
<path style=" stroke:none;fill-rule:nonzero;fill:rgb(7.058824%,63.137255%,86.666667%);fill-opacity:1;" d="M 24 8 C 18.476562 8 14 12.480469 14 18 C 14 23.523438 18.476562 28 24 28 C 29.523438 28 33.996094 23.519531 33.996094 18 C 33.996094 12.476562 29.519531 8 24 8 M 24 8 "/>
<path style=" stroke:none;fill-rule:nonzero;fill:rgb(91.764706%,92.156863%,87.45098%);fill-opacity:1;" d="M 23.429688 12 C 22.453125 12.027344 22.519531 12.199219 22.105469 13.035156 C 21.445312 14.390625 20.976562 16.34375 21.070312 17.496094 C 21.175781 18.730469 21.503906 19.535156 22.140625 20.140625 C 22.910156 20.871094 23.847656 20.777344 24.644531 19.925781 C 25.355469 19.164062 25.617188 18.371094 25.679688 16.640625 C 25.71875 15.550781 25.738281 15.421875 25.820312 15.609375 C 26.136719 16.332031 26.21875 18.042969 25.996094 18.890625 C 25.8125 19.589844 25.363281 20.449219 24.996094 20.785156 C 24.515625 21.230469 23.996094 21.429688 23.28125 21.460938 C 22.804688 21.484375 22.613281 21.476562 22.25 21.355469 C 21.300781 21.039062 20.132812 20.136719 19.464844 19.253906 C 18.515625 17.988281 17.5625 15.433594 17.320312 13.398438 C 17.273438 13.003906 17.207031 12.644531 17.179688 12.609375 C 17.007812 12.410156 16.351562 13.230469 16.144531 13.898438 C 16.007812 14.320312 16 14.523438 16 18.285156 L 16 22.257812 L 16.179688 22.359375 C 16.429688 22.523438 17.53125 22.855469 18.429688 23.035156 C 19.113281 23.175781 19.386719 23.21875 21 23.214844 C 22.617188 23.214844 22.914062 23.167969 23.539062 23.035156 C 24.550781 22.8125 25.304688 22.449219 25.929688 21.820312 C 26.8125 20.933594 27.140625 20.039062 27.144531 18.640625 C 27.144531 17.714844 27.015625 16.976562 26.644531 16.246094 C 26.511719 15.980469 26.378906 15.765625 26.394531 15.746094 C 26.476562 15.664062 27.394531 16.765625 27.609375 17.214844 C 28.929688 20.007812 28.304688 22.285156 25.570312 24.566406 C 24.363281 25.566406 22.273438 26.957031 21.070312 27.5625 C 20.652344 27.777344 20.574219 27.855469 20.679688 27.957031 C 20.707031 27.984375 22.789062 28.007812 25.320312 27.992188 L 29.925781 27.957031 L 30.320312 27.78125 C 31.113281 27.402344 31.617188 26.839844 31.855469 26.066406 C 31.992188 25.621094 31.996094 25.421875 31.996094 19.996094 C 31.996094 14.292969 31.984375 13.808594 31.746094 13.714844 C 31.6875 13.691406 31.152344 13.75 30.566406 13.859375 C 29.917969 13.972656 29 14.066406 28.207031 14.109375 C 26.828125 14.179688 26.128906 14.3125 25.316406 14.644531 C 24.5625 14.953125 24.121094 15.199219 23.707031 15.539062 C 23.339844 15.839844 23.289062 15.878906 23.171875 16.359375 C 23.011719 17.023438 22.90625 17.320312 22.636719 17.679688 C 22.441406 17.945312 22.242188 18.074219 22.246094 17.933594 C 22.25 17.679688 22.484375 16.875 22.710938 16.433594 C 23.371094 15.121094 24.234375 14.167969 25.921875 12.902344 C 26.445312 12.507812 26.886719 12.167969 26.886719 12.113281 C 26.886719 12.035156 26.507812 12.007812 24.8125 12.007812 C 24.210938 12.007812 23.746094 12 23.421875 12.007812 M 24.820312 15.363281 C 24.925781 15.363281 24.933594 15.472656 24.785156 16.539062 C 24.628906 17.671875 24.226562 18.570312 23.714844 19.109375 C 23.355469 19.492188 22.964844 19.59375 22.679688 19.394531 C 22.519531 19.285156 22.324219 18.902344 22.324219 18.71875 C 22.324219 18.625 22.359375 18.625 22.472656 18.683594 C 22.6875 18.800781 22.777344 18.773438 23.035156 18.539062 C 23.476562 18.148438 23.941406 17.03125 24.183594 15.757812 C 24.203125 15.613281 24.621094 15.359375 24.824219 15.359375 M 24.824219 15.359375 "/>
<path style=" stroke:none;fill-rule:nonzero;fill:rgb(76.078431%,60.392157%,41.568627%);fill-opacity:1;" d="M 8 22 L 8 46 L 40 46 L 40 22 M 8 22 "/>
<path style=" stroke:none;fill-rule:nonzero;fill:rgb(0%,0%,0%);fill-opacity:0.25098;" d="M 16.886719 28.382812 C 16.886719 29.210938 16.214844 29.882812 15.386719 29.882812 C 14.558594 29.882812 13.886719 29.210938 13.886719 28.382812 C 13.886719 27.554688 14.558594 26.882812 15.386719 26.882812 C 16.214844 26.882812 16.886719 27.554688 16.886719 28.382812 M 16.886719 28.382812 "/>
<path style=" stroke:none;fill-rule:nonzero;fill:rgb(0%,0%,0%);fill-opacity:0.25098;" d="M 35.050781 28.488281 C 35.050781 29.316406 34.378906 29.988281 33.550781 29.988281 C 32.722656 29.988281 32.050781 29.316406 32.050781 28.488281 C 32.050781 27.660156 32.722656 26.988281 33.550781 26.988281 C 34.378906 26.988281 35.050781 27.660156 35.050781 28.488281 M 35.050781 28.488281 "/>
<path style=" stroke:none;fill-rule:nonzero;fill:rgb(100%,100%,100%);fill-opacity:1;" d="M 15 29 C 18 45 31 45 33.996094 29 C 34.207031 27.65625 33.285156 27.628906 33 29 C 31 43.578125 18 43.5 16 29 C 15.816406 27.683594 14.820312 27.738281 15.003906 29 M 15.003906 29 "/>
<path style=" stroke:none;fill-rule:nonzero;fill:url(#linear0);" d="M 8 22 L 8 34 L 39.996094 34 L 39.996094 22 M 8 22 "/>
</g>
</svg>
