<!-- color: #245395 -->
<svg xmlns="http://www.w3.org/2000/svg" xmlns:xlink="http://www.w3.org/1999/xlink" width="48px" height="48px" viewBox="0 0 48 48" version="1.1">
<g id="surface1">
<path style=" stroke:none;fill-rule:nonzero;fill:rgb(100%,100%,100%);fill-opacity:1;" d="M 29.984375 21.261719 C 28.511719 19.550781 27.1875 18.445312 25.226562 21.324219 C 24.054688 23.035156 17.050781 32.851562 15.765625 34.414062 C 15.390625 34.867188 15.171875 35.179688 14.886719 35.367188 C 14.886719 34.746094 19.726562 26.855469 21.078125 24.570312 C 22.707031 21.824219 22.65625 21.984375 22.460938 21.984375 C 22.183594 21.984375 21.625 22.402344 20.769531 23.339844 C 19.214844 25.046875 14.605469 31.410156 14.285156 31.3125 C 14.394531 30.851562 18.003906 25.15625 19.640625 22.800781 C 21.050781 20.769531 20.511719 20.613281 19.703125 20.8125 C 16.257812 21.660156 12.132812 23.703125 12 23.628906 C 12.050781 23.523438 25.886719 13.511719 27.738281 13.320312 C 27.953125 13.296875 28.40625 12.902344 29.214844 12.570312 C 30.09375 12.214844 30.683594 11.921875 30.832031 12.015625 C 30.1875 12.941406 29.851562 13.128906 29.84375 13.425781 C 29.835938 13.914062 29.667969 14.703125 29.480469 14.957031 C 33.058594 17.410156 34.453125 25.765625 35.472656 32.492188 C 35.714844 34.085938 35.941406 35.289062 36 36 C 35.699219 35.199219 32.839844 24.578125 29.980469 21.261719 M 29.980469 21.261719 "/>
</g>
</svg>
