<!-- color: #3d3d3d -->
<svg xmlns="http://www.w3.org/2000/svg" xmlns:xlink="http://www.w3.org/1999/xlink" width="48px" height="48px" viewBox="0 0 48 48" version="1.1">
<g id="surface1">
<path style=" stroke:none;fill-rule:nonzero;fill:rgb(95.686275%,38.431373%,78.039216%);fill-opacity:1;" d="M 24 11 C 16.824219 11 11 16.824219 11 24 C 11 31.175781 16.824219 37 24 37 C 31.175781 37 37 31.175781 37 24 C 37 22.652344 36.8125 21.347656 36.433594 20.125 C 35.804688 21.414062 35.164062 22.625 34.550781 23.570312 C 34.605469 23.644531 34.691406 23.714844 34.726562 23.78125 L 34.195312 23.890625 L 34.160156 24.242188 L 30.824219 28.683594 L 30.789062 28.683594 C 30.957031 28.929688 31.0625 29.242188 31.070312 29.609375 C 31.113281 32.011719 28.59375 32.15625 25.421875 32.839844 C 25.421875 32.839844 26.5 31.113281 27.375 29.253906 C 27.828125 28.289062 28.734375 27.890625 29.539062 27.972656 L 31.851562 22.933594 L 32.132812 22.683594 L 31.957031 22.152344 C 32.035156 22.136719 32.121094 22.148438 32.207031 22.152344 C 32.964844 20.78125 34.011719 19.035156 35.082031 17.253906 C 32.800781 13.511719 28.699219 11.003906 24.003906 11.003906 M 24.003906 19.949219 C 26.242188 19.949219 28.050781 21.757812 28.050781 24 C 28.050781 26.238281 26.242188 28.085938 24.003906 28.085938 C 21.761719 28.085938 19.917969 26.238281 19.917969 24 C 19.917969 21.757812 21.761719 19.949219 24.003906 19.949219 M 24.003906 20.765625 C 22.203125 20.765625 20.734375 22.203125 20.734375 23.992188 C 20.734375 25.796875 22.207031 27.265625 24.003906 27.265625 C 25.800781 27.265625 27.234375 25.796875 27.234375 23.992188 C 27.234375 22.191406 25.800781 20.765625 24.003906 20.765625 M 24.003906 21.976562 C 25.121094 21.976562 26.027344 22.878906 26.027344 23.996094 C 26.027344 25.113281 25.121094 26.019531 24.003906 26.019531 C 22.882812 26.019531 21.980469 25.113281 21.980469 23.996094 C 21.980469 22.878906 22.882812 21.976562 24.003906 21.976562 M 24.003906 21.976562 "/>
</g>
</svg>
