<!-- color: #87abd0 -->
<svg xmlns="http://www.w3.org/2000/svg" xmlns:xlink="http://www.w3.org/1999/xlink" width="48px" height="48px" viewBox="0 0 48 48" version="1.1">
<g id="surface1">
<path style=" stroke:none;fill-rule:nonzero;fill:rgb(97.647059%,97.647059%,97.647059%);fill-opacity:1;" d="M 18.6875 29.210938 C 18.6875 29.210938 15.570312 26.730469 13.339844 23.140625 C 11.105469 19.554688 10.484375 17.285156 11.417969 16.601562 C 12.351562 15.914062 16.039062 17.390625 18.839844 19.183594 C 21.644531 20.976562 21.15625 20.746094 21.15625 20.746094 C 21.15625 20.746094 21.164062 19.472656 21.832031 19.214844 C 22.613281 18.910156 23.238281 20.269531 23.238281 20.269531 C 23.238281 20.269531 24.136719 18.339844 26.628906 15.859375 C 29.121094 13.382812 31.863281 11.675781 33.003906 12.042969 C 34.148438 12.414062 34.945312 15.453125 35 19.144531 C 35.050781 22.835938 32.578125 26.566406 32.578125 26.566406 C 32.578125 26.566406 34.15625 29.140625 33.847656 30.882812 C 33.464844 33.019531 32.648438 34.425781 31.039062 34.585938 C 29.429688 34.742188 26.523438 31.894531 26.523438 31.894531 C 26.523438 31.894531 26.628906 35.640625 25.277344 35.953125 C 23.929688 36.269531 21.695312 34.53125 20.398438 32.738281 C 19.101562 30.945312 18.6875 29.203125 18.6875 29.203125 M 18.6875 29.21875 "/>
</g>
</svg>
