<!-- color: #eeeeee -->
<svg xmlns="http://www.w3.org/2000/svg" xmlns:xlink="http://www.w3.org/1999/xlink" width="48px" height="48px" viewBox="0 0 48 48" version="1.1">
<g id="surface1">
<path style=" stroke:none;fill-rule:nonzero;fill:rgb(81.960784%,0.784314%,18.431373%);fill-opacity:1;" d="M 22.359375 34.957031 C 22.3125 34.914062 22.078125 34.863281 21.835938 34.835938 C 20.917969 34.757812 19.785156 33.691406 16.914062 30.203125 C 14.058594 26.734375 12.746094 25.574219 11.066406 25.042969 C 10.875 24.984375 11.085938 24.726562 12.386719 23.445312 C 14.152344 21.714844 15.34375 20.460938 18.265625 17.25 C 20.585938 14.703125 20.90625 14.394531 21.042969 14.546875 C 21.097656 14.605469 21.449219 15.105469 21.824219 15.65625 C 22.769531 17.042969 23.503906 17.414062 24.40625 16.964844 C 25.167969 16.585938 26.824219 14.476562 27.285156 13.292969 C 27.445312 12.882812 27.554688 12.894531 27.835938 13.351562 C 28.222656 13.980469 30.261719 16.53125 31.597656 18.054688 C 32.296875 18.847656 33.800781 20.410156 34.9375 21.523438 C 36.078125 22.636719 37.007812 23.597656 37.007812 23.65625 C 37.007812 23.710938 36.699219 23.855469 36.320312 23.96875 C 34.675781 24.472656 33.136719 25.78125 28.972656 30.222656 C 25.726562 33.683594 24.242188 34.867188 23.015625 34.980469 C 22.699219 35.007812 22.40625 34.996094 22.363281 34.953125 M 24.695312 28.539062 C 25.5 28.3125 25.625 28.226562 26.714844 27.1875 C 27.832031 26.113281 28.882812 24.722656 29.820312 23.074219 C 30.265625 22.296875 30.242188 22.03125 29.730469 21.917969 C 29.546875 21.875 28.8125 21.585938 28.089844 21.273438 C 25.425781 20.125 24.566406 20.007812 23.316406 20.613281 C 22.390625 21.0625 20.230469 22.34375 19.527344 22.859375 C 19.238281 23.070312 18.820312 23.308594 18.59375 23.386719 C 18.371094 23.464844 18.164062 23.59375 18.132812 23.664062 C 18.058594 23.859375 19.46875 26.105469 20.164062 26.894531 C 20.84375 27.65625 21.800781 28.371094 22.441406 28.601562 C 23.113281 28.835938 23.710938 28.820312 24.691406 28.535156 M 24.691406 28.546875 "/>
</g>
</svg>
