<!-- color: #5cd3ee --><svg xmlns="http://www.w3.org/2000/svg" viewBox="0 0 48 48"><g><path d="m 13.781 35 l 20.445 0 c 1.777 0 1.773 0 1.773 -1.715 l 0 -14.285 l -12 -8 l -12 8 l 0 14.285 c 0 1.715 0.004 1.715 1.785 1.715" fill="#a61b12" stroke="none" fill-rule="nonzero" fill-opacity="1"/><path d="m 14 13 l 0 20 l 20 0 l 0 -20" fill="#f9f9f9" stroke="none" fill-rule="nonzero" fill-opacity="1"/><path d="m 13.781 35 l 20.445 0 c 1.777 0 1.773 0 1.773 -1.68 l 0 -14.32 l -24 14.32 c 0 1.68 0.004 1.68 1.785 1.68" fill="#cf372d" stroke="none" fill-rule="nonzero" fill-opacity="1"/><path d="m 34.23 35 l -20.445 0 c -1.781 0 -1.781 0 -1.781 -1.68 l 0 -14.32 l 24 14.32 c 0 1.68 0 1.68 -1.77 1.68" fill="#ec5145" stroke="none" fill-rule="nonzero" fill-opacity="1"/><path d="m 16.355 15 l 7.289 0 c 0.195 0 0.355 0.16 0.355 0.355 l 0 0.289 c 0 0.195 -0.16 0.355 -0.355 0.355 l -7.289 0 c -0.195 0 -0.355 -0.16 -0.355 -0.355 l 0 -0.289 c 0 -0.195 0.16 -0.355 0.355 -0.355 m 0 0" fill="#c3cacd" stroke="none" fill-rule="nonzero" fill-opacity="1"/><path d="m 16.355 17 l 11.289 0 c 0.195 0 0.355 0.16 0.355 0.355 l 0 0.289 c 0 0.195 -0.16 0.355 -0.355 0.355 l -11.289 0 c -0.195 0 -0.355 -0.16 -0.355 -0.355 l 0 -0.289 c 0 -0.195 0.16 -0.355 0.355 -0.355 m 0 0" fill="#c3cacd" stroke="none" fill-rule="nonzero" fill-opacity="1"/><path d="m 16.355 19 l 15.289 0 c 0.195 0 0.355 0.16 0.355 0.355 l 0 0.289 c 0 0.195 -0.16 0.355 -0.355 0.355 l -15.289 0 c -0.195 0 -0.355 -0.16 -0.355 -0.355 l 0 -0.289 c 0 -0.195 0.16 -0.355 0.355 -0.355 m 0 0" fill="#c3cacd" stroke="none" fill-rule="nonzero" fill-opacity="1"/></g></svg>