<!-- color: #8e5050 -->
<svg xmlns="http://www.w3.org/2000/svg" xmlns:xlink="http://www.w3.org/1999/xlink" width="48px" height="48px" viewBox="0 0 48 48" version="1.1">
<defs>
<linearGradient id="linear0" gradientUnits="userSpaceOnUse" x1="0" y1="844.09" x2="0" y2="-176.38" gradientTransform="matrix(0.0355394,0,0,0.0313583,10.315665,8.53083)">
<stop offset="0" style="stop-color:rgb(100%,41.176471%,0%);stop-opacity:1;"/>
<stop offset="1" style="stop-color:rgb(100%,92.54902%,0%);stop-opacity:1;"/>
</linearGradient>
</defs>
<g id="surface1">
<path style=" stroke:none;fill-rule:nonzero;fill:url(#linear0);" d="M 20 9 C 19.425781 9.769531 18.960938 12.410156 20.621094 13.714844 C 22.582031 15.277344 23 17.15625 23 20 C 23 24 19.621094 27.203125 22 31 C 15.359375 25.53125 22.050781 17.324219 17 14 C 19 19 12 22 12.015625 26.851562 C 12 32 16 35 20.800781 34.988281 C 17.378906 33.597656 15.824219 29.398438 16 27 C 18.40625 32.453125 22 35 28 35 C 25.6875 31.980469 25.308594 31.597656 25.175781 29.675781 C 25.1875 27.902344 25.902344 27.507812 27.152344 25.289062 C 30.296875 20.355469 28.859375 15.375 24.578125 13.050781 C 23.707031 12.617188 23.472656 12.496094 21.886719 11.875 C 20.972656 11.449219 20.0625 10.523438 20 9 M 30.726562 17.355469 C 33.898438 21.414062 30.285156 24.710938 28.628906 27.195312 C 27.269531 29.148438 28.578125 32.378906 30 35 C 30.125 32.785156 31.601562 31.261719 32.796875 30.46875 C 36.457031 27.714844 36.574219 24.113281 34.632812 20.910156 C 33.414062 19.152344 32.335938 18.582031 30.726562 17.355469 M 30.726562 17.355469 "/>
</g>
</svg>
