<!-- color: #c059b6 -->
<svg xmlns="http://www.w3.org/2000/svg" xmlns:xlink="http://www.w3.org/1999/xlink" width="48px" height="48px" viewBox="0 0 48 48" version="1.1">
<g id="surface1">
<path style=" stroke:none;fill-rule:nonzero;fill:rgb(92.156863%,92.156863%,92.156863%);fill-opacity:1;" d="M 15 11 C 14 11 14 11.996094 14 11.996094 L 14 34.996094 C 14 35.996094 15 36.996094 15.996094 36.996094 L 32.976562 36.996094 C 33.511719 36.996094 33.996094 36.53125 33.996094 36.019531 L 33.996094 15 C 33.996094 14.488281 33.535156 14 33 14 L 18 14 L 16 12 C 21.109375 11.960938 27.789062 12 33 12 C 33.105469 12 32.679688 11.003906 32 11.003906 M 18 16 L 32 16 L 32 35 L 18 35 M 18 16 "/>
<path style=" stroke:none;fill-rule:nonzero;fill:rgb(92.156863%,92.156863%,92.156863%);fill-opacity:1;" d="M 16 15 L 16 36 L 33 36 L 33 15 M 25.5625 18 C 26.253906 17.988281 27.109375 18.214844 27.9375 18.6875 C 29.257812 19.445312 30.09375 20.578125 30 21.40625 L 24.59375 18.3125 C 24.578125 18.304688 24.578125 18.289062 24.5625 18.28125 C 24.816406 18.097656 25.148438 18.007812 25.5625 18 M 24.71875 18.8125 C 24.820312 18.824219 24.9375 18.886719 25.03125 18.9375 L 25.375 19.128906 C 25.75 19.34375 25.871094 19.820312 25.65625 20.191406 L 21.4375 27.410156 C 21.222656 27.78125 20.75 27.90625 20.375 27.691406 L 20.03125 27.503906 C 19.65625 27.285156 19.535156 26.8125 19.75 26.4375 L 23.96875 19.21875 C 24.132812 18.941406 24.417969 18.773438 24.71875 18.8125 M 26.34375 19.9375 C 26.535156 19.886719 26.75 19.925781 26.9375 20.03125 L 27.28125 20.222656 C 27.65625 20.4375 27.777344 20.914062 27.5625 21.285156 L 23.34375 28.511719 C 23.128906 28.878906 22.65625 29.003906 22.28125 28.785156 L 21.96875 28.597656 C 21.59375 28.386719 21.441406 27.90625 21.65625 27.53125 L 25.875 20.3125 C 25.980469 20.128906 26.152344 19.988281 26.34375 19.9375 M 28.5625 21.03125 C 28.664062 21.050781 28.78125 21.070312 28.875 21.132812 L 29.21875 21.320312 C 29.59375 21.535156 29.71875 22.015625 29.5 22.386719 L 25.28125 29.605469 C 25.066406 29.972656 24.59375 30.097656 24.21875 29.886719 L 23.875 29.695312 C 23.503906 29.484375 23.378906 29.003906 23.59375 28.632812 L 27.8125 21.40625 C 27.976562 21.136719 28.261719 20.996094 28.5625 21.03125 M 19.1875 27.4375 C 19.300781 27.371094 24.691406 30.46875 24.6875 30.59375 C 24.683594 30.726562 19.140625 34.0625 19.03125 34 C 18.921875 33.9375 19.074219 27.507812 19.1875 27.4375 M 19.1875 27.4375 "/>
</g>
</svg>
