<!-- color: #4488d9 -->
<svg xmlns="http://www.w3.org/2000/svg" xmlns:xlink="http://www.w3.org/1999/xlink" width="48px" height="48px" viewBox="0 0 48 48" version="1.1">
<g id="surface1">
<path style=" stroke:none;fill-rule:nonzero;fill:rgb(100%,100%,100%);fill-opacity:1;" d="M 34.4375 18 C 33.28125 18 32.304688 18.703125 31.90625 19.6875 L 30.90625 22.75 L 30.90625 18.15625 L 26.03125 18.15625 C 25.152344 18.15625 24.363281 18.503906 23.78125 19.09375 L 23.78125 18.15625 L 18.78125 18.15625 C 17.851562 18.15625 16.996094 18.574219 16.40625 19.21875 L 16.40625 18.15625 L 11.71875 18.15625 C 9.6875 18.15625 8.003906 19.796875 8 21.96875 C 8 22.980469 8.4375 23.886719 9.0625 24.5625 L 8 24.5625 L 8 29.003906 L 12.75 29.003906 C 14.082031 29 15.386719 28.15625 15.84375 27.15625 L 15.875 27.128906 C 16.40625 28.234375 17.5 29.003906 18.78125 29.003906 L 23.78125 29.003906 L 23.78125 28.03125 C 24.367188 28.625 25.148438 29.003906 26.03125 29.003906 L 40 29.003906 L 37 19.6875 C 36.589844 18.699219 35.597656 18 34.4375 18 M 34.125 18.78125 C 34.234375 18.765625 34.324219 18.78125 34.4375 18.78125 C 35.339844 18.78125 36.113281 19.335938 36.34375 20.125 L 38.96875 28.21875 L 33.90625 28.21875 L 33.90625 26.9375 L 37.25 26.9375 L 35.09375 20.34375 C 34.988281 20.085938 34.726562 19.90625 34.4375 19.90625 C 34.148438 19.90625 33.917969 20.113281 33.8125 20.375 L 31.21875 28.21875 L 26.03125 28.21875 C 24.644531 28.21875 23.53125 27.058594 23.53125 25.625 L 23.53125 21.5 C 23.53125 20.066406 24.644531 18.90625 26.03125 18.90625 L 30.1875 18.90625 L 30.1875 20.21875 L 26.03125 20.21875 C 25.339844 20.21875 24.78125 20.78125 24.78125 21.5 L 24.78125 25.625 C 24.78125 26.34375 25.371094 26.9375 26.0625 26.9375 L 28.90625 26.9375 L 28.90625 23.40625 L 26.625 23.40625 L 26.625 22.132812 L 30.1875 22.132812 L 30.1875 27.28125 L 32.5625 20.132812 C 32.765625 19.441406 33.371094 18.902344 34.125 18.78125 M 11.6875 18.90625 L 15.6875 18.90625 L 15.6875 20.222656 L 11.6875 20.222656 C 10.753906 20.222656 10 21.007812 10 21.972656 C 10 22.941406 10.75 23.722656 11.6875 23.722656 L 12.71875 23.722656 C 13.492188 23.722656 14.125 24.394531 14.125 25.191406 C 14.125 25.992188 13.492188 26.632812 12.71875 26.632812 L 8.71875 26.632812 L 8.71875 25.351562 L 12.71875 25.351562 C 12.796875 25.351562 12.875 25.277344 12.875 25.195312 C 12.875 25.113281 12.796875 25.039062 12.71875 25.039062 L 11.6875 25.039062 C 10.054688 25.039062 8.71875 23.667969 8.71875 21.976562 C 8.71875 20.285156 10.054688 18.910156 11.6875 18.910156 M 18.78125 18.910156 L 23.0625 18.910156 L 23.0625 20.226562 L 18.78125 20.226562 C 18.085938 20.226562 17.53125 20.804688 17.53125 21.507812 L 17.53125 25.632812 C 17.53125 26.359375 18.085938 26.945312 18.78125 26.945312 L 23.03125 26.945312 L 23.03125 28.226562 L 18.78125 28.226562 C 17.390625 28.226562 16.28125 27.066406 16.28125 25.632812 L 16.28125 21.507812 C 16.28125 20.070312 17.390625 18.910156 18.78125 18.910156 M 34.4375 20.226562 C 34.617188 20.226562 34.789062 20.34375 34.84375 20.507812 L 36.84375 26.632812 L 33.90625 26.632812 L 33.90625 25.476562 L 33 28.226562 L 31.53125 28.226562 L 34.0625 20.507812 C 34.117188 20.34375 34.257812 20.226562 34.4375 20.226562 M 11.6875 20.539062 L 15.6875 20.539062 L 15.6875 21.820312 L 11.6875 21.820312 C 11.605469 21.820312 11.53125 21.890625 11.53125 21.976562 C 11.53125 22.0625 11.605469 22.132812 11.6875 22.132812 L 12.71875 22.132812 C 14.355469 22.132812 15.6875 23.503906 15.6875 25.195312 C 15.6875 26.882812 14.355469 28.257812 12.71875 28.257812 L 8.71875 28.257812 L 8.71875 26.945312 L 12.71875 26.945312 C 13.65625 26.945312 14.4375 26.160156 14.4375 25.195312 C 14.4375 24.230469 13.65625 23.445312 12.71875 23.445312 L 11.6875 23.414062 C 10.914062 23.414062 10.28125 22.777344 10.28125 21.976562 C 10.28125 21.179688 10.914062 20.535156 11.6875 20.535156 M 18.78125 20.535156 L 23.0625 20.535156 L 23.0625 21.816406 L 19.371094 21.816406 C 19.074219 21.816406 19.09375 22.132812 19.09375 22.132812 L 22.15625 22.132812 L 22.15625 23.410156 L 17.84375 23.410156 L 17.84375 21.507812 C 17.84375 20.960938 18.246094 20.535156 18.78125 20.535156 M 26.03125 20.535156 L 30.1875 20.535156 L 30.1875 21.816406 L 26.621094 21.816406 C 26.324219 21.824219 26.34375 22.132812 26.34375 22.132812 L 26.34375 25.035156 C 26.34375 25.203125 26.464844 25.351562 26.621094 25.351562 L 27.371094 25.351562 L 27.371094 25.035156 L 26.621094 25.035156 L 26.621094 23.722656 L 28.621094 23.722656 L 28.621094 26.628906 L 26.027344 26.628906 C 25.496094 26.628906 25.089844 26.179688 25.089844 25.628906 L 25.089844 21.503906 C 25.089844 20.953125 25.496094 20.53125 26.027344 20.53125 M 17.839844 23.722656 L 22.152344 23.722656 L 22.152344 25.035156 L 19.089844 25.035156 C 19.09375 25.34375 19.371094 25.351562 19.371094 25.351562 L 23.027344 25.351562 L 23.027344 26.632812 L 18.777344 26.632812 C 18.25 26.632812 17.839844 26.179688 17.839844 25.632812 M 34.433594 23.847656 L 33.992188 25.191406 L 34.867188 25.191406 M 34.429688 23.847656 "/>
<path style=" stroke:none;fill-rule:nonzero;fill:rgb(24.313725%,43.921569%,70.588235%);fill-opacity:1;" d="M 38.03125 19.949219 C 38.265625 19.949219 38.488281 19.851562 38.65625 19.679688 C 38.824219 19.507812 38.914062 19.277344 38.914062 19.035156 C 38.914062 18.792969 38.824219 18.5625 38.65625 18.390625 C 38.488281 18.21875 38.265625 18.117188 38.03125 18.117188 C 37.542969 18.117188 37.148438 18.523438 37.148438 19.027344 C 37.148438 19.269531 37.238281 19.507812 37.40625 19.675781 C 37.574219 19.847656 37.796875 19.945312 38.03125 19.945312 M 37.273438 19.03125 C 37.273438 18.820312 37.347656 18.628906 37.492188 18.476562 C 37.636719 18.328125 37.828125 18.246094 38.03125 18.246094 C 38.234375 18.246094 38.425781 18.328125 38.570312 18.476562 C 38.710938 18.625 38.792969 18.820312 38.792969 19.03125 C 38.792969 19.46875 38.449219 19.816406 38.03125 19.816406 C 37.828125 19.816406 37.636719 19.734375 37.492188 19.589844 C 37.347656 19.441406 37.269531 19.242188 37.269531 19.03125 M 37.273438 19.03125 "/>
<path style=" stroke:none;fill-rule:nonzero;fill:rgb(24.313725%,43.921569%,70.588235%);fill-opacity:1;" d="M 37.800781 19.109375 L 37.800781 19.539062 L 37.671875 19.539062 L 37.671875 18.527344 L 38.035156 18.527344 C 38.171875 18.527344 38.253906 18.527344 38.328125 18.585938 C 38.402344 18.644531 38.433594 18.726562 38.433594 18.820312 C 38.433594 19.058594 38.246094 19.089844 38.199219 19.097656 L 38.476562 19.539062 L 38.320312 19.539062 L 38.054688 19.109375 L 37.800781 19.109375 M 37.800781 18.996094 L 38.058594 18.996094 C 38.101562 18.996094 38.140625 18.996094 38.179688 18.984375 C 38.269531 18.964844 38.300781 18.894531 38.300781 18.824219 C 38.300781 18.796875 38.300781 18.726562 38.242188 18.679688 C 38.191406 18.636719 38.128906 18.636719 38.054688 18.636719 L 37.800781 18.636719 M 37.800781 18.996094 "/>
</g>
</svg>
