<!-- color: #474747 -->
<svg xmlns="http://www.w3.org/2000/svg" xmlns:xlink="http://www.w3.org/1999/xlink" width="48px" height="48px" viewBox="0 0 48 48" version="1.1">
<g id="surface1">
<path style=" stroke:none;fill-rule:nonzero;fill:rgb(100%,49.803922%,49.803922%);fill-opacity:1;" d="M 23.355469 12.109375 C 21.4375 12.753906 23.121094 15.734375 20.371094 17.191406 C 17.238281 18.863281 15.679688 14.648438 13.796875 17.65625 C 11.917969 20.667969 16.390625 20.199219 16.269531 23.742188 C 16.144531 27.285156 11.707031 26.53125 13.371094 29.65625 C 15.039062 32.777344 16.886719 28.675781 19.894531 30.550781 C 22.90625 32.417969 20.023438 35.882812 23.574219 36 C 27.117188 36.109375 24.488281 32.476562 27.628906 30.808594 C 30.757812 29.140625 32.320312 33.351562 34.199219 30.34375 C 36.082031 27.335938 31.605469 27.800781 31.726562 24.265625 C 31.855469 20.722656 36.289062 21.476562 34.625 18.347656 C 32.960938 15.226562 31.109375 19.324219 28.101562 17.457031 C 25.09375 15.582031 27.972656 12.121094 24.425781 12.007812 C 23.980469 11.992188 23.625 12.019531 23.355469 12.109375 M 23.386719 21.132812 C 24.972656 20.785156 26.523438 21.804688 26.863281 23.402344 C 27.199219 24.988281 26.1875 26.554688 24.609375 26.886719 C 23.019531 27.226562 21.46875 26.214844 21.132812 24.613281 C 20.796875 23.023438 21.804688 21.46875 23.386719 21.132812 M 23.386719 21.132812 "/>
<path style=" stroke:none;fill-rule:nonzero;fill:rgb(97.647059%,97.647059%,97.647059%);fill-opacity:1;" d="M 33.433594 31 C 33.433594 31 33.996094 30.675781 33.996094 29.003906 C 33.996094 27.390625 33.363281 27.003906 33.363281 27.003906 L 18.292969 27.003906 L 13.996094 29.003906 L 18.292969 31 M 33.433594 31 "/>
<path style=" stroke:none;fill-rule:nonzero;fill:rgb(97.647059%,97.647059%,97.647059%);fill-opacity:1;" d="M 18 27.160156 L 14 29.003906 L 18 30.847656 M 18 27.160156 "/>
<path style=" stroke:none;fill-rule:nonzero;fill:rgb(97.647059%,97.647059%,97.647059%);fill-opacity:1;" d="M 16 28.058594 L 14 28.996094 L 16 29.9375 M 16 28.058594 "/>
<path style=" stroke:none;fill-rule:nonzero;fill:rgb(97.647059%,97.647059%,97.647059%);fill-opacity:1;" d="M 31 27 L 31 31 L 33.4375 31 C 33.4375 31 34 30.675781 34 29 C 34 27.386719 33.375 27 33.375 27 M 31 27 "/>
</g>
</svg>
