<!-- color: #474747 -->
<svg xmlns="http://www.w3.org/2000/svg" xmlns:xlink="http://www.w3.org/1999/xlink" width="48px" height="48px" viewBox="0 0 48 48" version="1.1">
<g id="surface1">
<path style=" stroke:none;fill-rule:nonzero;fill:rgb(72.941176%,63.921569%,64.313725%);fill-opacity:1;" d="M 14 20 L 14 14.960938 C 14 14.515625 14.359375 14.105469 14.75 14.105469 L 33.25 14.105469 C 33.644531 14.105469 34 14.515625 34 14.960938 L 34 20 M 14 20 "/>
<path style=" stroke:none;fill-rule:nonzero;fill:rgb(92.54902%,93.333333%,94.509804%);fill-opacity:1;" d="M 12.8125 16 C 12.371094 16.042969 11.996094 16.4375 12 16.863281 L 12 33.140625 C 12 33.589844 12.429688 34 12.902344 34 L 35.101562 34 C 35.570312 34 36 33.589844 36 33.140625 L 36 18.894531 C 36 18.445312 35.570312 18.035156 35.101562 18.035156 L 25.972656 18.035156 L 25.972656 16.875 C 25.972656 16.425781 25.542969 16.015625 25.074219 16.015625 L 12.898438 16.015625 C 12.871094 16.015625 12.839844 16.015625 12.808594 16.015625 M 12.8125 16 "/>
<path style=" stroke:none;fill-rule:nonzero;fill:rgb(23.137255%,23.137255%,23.137255%);fill-opacity:1;" d="M 26.789062 20 C 25.011719 20 23.574219 21.4375 23.574219 23.210938 C 23.574219 23.769531 23.714844 24.289062 23.964844 24.746094 C 23.964844 24.746094 23.964844 24.75 23.964844 24.753906 L 18.003906 30.714844 L 18.003906 32 L 19.289062 32 L 19.71875 31.570312 L 19.71875 30.714844 L 20.574219 30.714844 L 21.003906 30.285156 L 21.863281 30.285156 L 22.289062 29.855469 L 22.289062 29 L 22.71875 28.570312 L 23.578125 28.570312 L 23.578125 27.710938 L 25.25 26.039062 C 25.25 26.039062 25.253906 26.039062 25.257812 26.039062 C 25.714844 26.289062 26.234375 26.429688 26.789062 26.429688 C 28.566406 26.429688 30.003906 24.992188 30.003906 23.214844 L 30.003906 23.203125 C 29.996094 21.429688 28.5625 20.003906 26.789062 20.003906 M 27.429688 21.714844 C 27.898438 21.714844 28.28125 22.097656 28.285156 22.570312 C 28.285156 23.046875 27.902344 23.429688 27.429688 23.429688 C 26.953125 23.429688 26.570312 23.046875 26.570312 22.570312 C 26.570312 22.097656 26.953125 21.714844 27.429688 21.714844 M 27.429688 21.714844 "/>
</g>
</svg>
