<!-- color: #474747 -->
<svg xmlns="http://www.w3.org/2000/svg" xmlns:xlink="http://www.w3.org/1999/xlink" width="48px" height="48px" viewBox="0 0 48 48" version="1.1">
<g id="surface1">
<path style=" stroke:none;fill-rule:nonzero;fill:rgb(94.901961%,94.901961%,48.627451%);fill-opacity:1;" d="M 26.402344 12 L 33.605469 12 C 34.929688 12 36.003906 13.074219 36.003906 14.398438 L 36.003906 21.605469 C 36.003906 22.929688 34.929688 24.003906 33.605469 24.003906 L 26.402344 24.003906 C 25.078125 24.003906 24.003906 22.929688 24.003906 21.605469 L 24.003906 14.398438 C 24.003906 13.074219 25.078125 12 26.402344 12 M 26.402344 12 "/>
<path style=" stroke:none;fill-rule:nonzero;fill:rgb(40.784314%,69.019608%,89.019608%);fill-opacity:1;" d="M 15.597656 14 L 20.398438 14 C 21.28125 14 21.996094 14.714844 21.996094 15.597656 L 21.996094 20.398438 C 21.996094 21.28125 21.28125 21.996094 20.398438 21.996094 L 15.597656 21.996094 C 14.714844 21.996094 14 21.28125 14 20.398438 L 14 15.597656 C 14 14.714844 14.714844 14 15.597656 14 M 15.597656 14 "/>
<path style=" stroke:none;fill-rule:nonzero;fill:rgb(40.784314%,69.019608%,89.019608%);fill-opacity:1;" d="M 27.597656 26 L 32.398438 26 C 33.28125 26 33.996094 26.714844 33.996094 27.597656 L 33.996094 32.398438 C 33.996094 33.28125 33.28125 33.996094 32.398438 33.996094 L 27.597656 33.996094 C 26.714844 33.996094 26 33.28125 26 32.398438 L 26 27.597656 C 26 26.714844 26.714844 26 27.597656 26 M 27.597656 26 "/>
<path style=" stroke:none;fill-rule:nonzero;fill:rgb(94.901961%,94.901961%,48.627451%);fill-opacity:1;" d="M 14.398438 24 L 21.605469 24 C 22.929688 24 24.003906 25.074219 24.003906 26.398438 L 24.003906 33.601562 C 24.003906 34.925781 22.929688 36 21.605469 36 L 14.398438 36 C 13.074219 36 12 34.925781 12 33.601562 L 12 26.398438 C 12 25.074219 13.074219 24 14.398438 24 M 14.398438 24 "/>
</g>
</svg>
