<!-- color: #5ca2f7 --><svg xmlns="http://www.w3.org/2000/svg" viewBox="0 0 48 48"><g><path d="m 14.781 11 c -0.98 0 -1.781 0.801 -1.781 1.781 l 0 22.438 c 0 0.98 0.801 1.781 1.781 1.781 l 20.438 0 c 0.98 0 1.781 -0.801 1.781 -1.781 l 0 -19.219 l -5 -5 m -17.219 0" fill="#eceef2" stroke="none" fill-rule="nonzero" fill-opacity="1"/><path d="m 32 11 l 0 5 l 5 0 m -5 -5" fill="#fff" stroke="none" fill-rule="nonzero" fill-opacity="1"/><path d="m 37 21 l 0 -5 l -5 0 m 5 5" fill="#000" stroke="none" fill-rule="nonzero" fill-opacity="0.2"/><path d="m 17 34 l 9 0 l 0 -2 l -9 0" fill="#53a1f2" stroke="none" fill-rule="nonzero" fill-opacity="1"/><path d="m 17 22 l 16 0 l 0 -2 l -16 0" fill="#53a1f2" stroke="none" fill-rule="nonzero" fill-opacity="1"/><path d="m 17 26 l 16 0 l 0 -2 l -16 0" fill="#53a1f2" stroke="none" fill-rule="nonzero" fill-opacity="1"/><path d="m 17 30 l 16 0 l 0 -2 l -16 0" fill="#53a1f2" stroke="none" fill-rule="nonzero" fill-opacity="1"/></g></svg>