<!-- color: #6a777e -->
<svg xmlns="http://www.w3.org/2000/svg" xmlns:xlink="http://www.w3.org/1999/xlink" width="48px" height="48px" viewBox="0 0 48 48" version="1.1">
<g id="surface1">
<path style=" stroke:none;fill-rule:nonzero;fill:rgb(38.431373%,80.784314%,24.705882%);fill-opacity:1;" d="M 12 12 L 24 12 L 24 24 L 12 24 M 12 12 "/>
<path style=" stroke:none;fill-rule:nonzero;fill:rgb(97.647059%,90.196078%,0%);fill-opacity:1;" d="M 12 24 L 24 24 L 24 36 L 12 36 M 12 24 "/>
<path style=" stroke:none;fill-rule:nonzero;fill:rgb(43.921569%,78.823529%,89.803922%);fill-opacity:1;" d="M 24 24 L 36 24 L 36 36 L 24 36 M 24 24 "/>
<path style=" stroke:none;fill-rule:nonzero;fill:rgb(0%,0%,0%);fill-opacity:1;" d="M 20 21.5 L 19.234375 21.5 L 19.234375 18.203125 L 15.761719 18.203125 L 15.761719 21.5 L 14.996094 21.5 L 14.996094 14.5 L 15.761719 14.5 L 15.761719 17.476562 L 19.234375 17.476562 L 19.234375 14.5 L 20 14.5 L 20 21.5 "/>
<path style=" stroke:none;fill-rule:nonzero;fill:rgb(0%,0%,0%);fill-opacity:1;" d="M 15 33.800781 L 15 26.503906 L 15.835938 26.503906 L 15.835938 33.03125 L 19.003906 33.03125 L 19.003906 33.800781 L 15.003906 33.800781 "/>
<path style=" stroke:none;fill-rule:nonzero;fill:rgb(0%,0%,0%);fill-opacity:1;" d="M 20.921875 33.800781 L 20.105469 33.800781 L 20.105469 28.328125 L 20.921875 28.328125 L 20.921875 33.800781 M 20.035156 26.847656 C 20.035156 26.65625 20.082031 26.519531 20.171875 26.433594 C 20.265625 26.34375 20.378906 26.296875 20.515625 26.296875 C 20.648438 26.296875 20.757812 26.34375 20.855469 26.433594 C 20.949219 26.523438 21 26.660156 21 26.847656 C 21 27.03125 20.949219 27.171875 20.855469 27.265625 C 20.757812 27.355469 20.648438 27.402344 20.515625 27.402344 C 20.378906 27.402344 20.265625 27.355469 20.171875 27.265625 C 20.082031 27.171875 20.035156 27.03125 20.035156 26.847656 "/>
<path style=" stroke:none;fill-rule:nonzero;fill:rgb(0%,0%,0%);fill-opacity:1;" d="M 25 26.5 L 26.902344 26.5 C 27.796875 26.5 28.441406 26.636719 28.84375 26.914062 C 29.242188 27.183594 29.441406 27.617188 29.441406 28.210938 C 29.441406 28.621094 29.328125 28.960938 29.105469 29.226562 C 28.882812 29.492188 28.558594 29.664062 28.132812 29.742188 L 28.132812 29.789062 C 29.152344 29.96875 29.667969 30.519531 29.667969 31.441406 C 29.667969 32.058594 29.464844 32.539062 29.054688 32.886719 C 28.648438 33.234375 28.082031 33.40625 27.351562 33.40625 L 25 33.40625 L 25 26.503906 M 25.78125 29.457031 L 27.074219 29.457031 C 27.628906 29.457031 28.027344 29.371094 28.269531 29.195312 C 28.507812 29.015625 28.632812 28.714844 28.632812 28.289062 C 28.632812 27.902344 28.488281 27.621094 28.226562 27.453125 C 27.953125 27.28125 27.527344 27.195312 26.933594 27.195312 L 25.78125 27.195312 L 25.78125 29.457031 M 25.78125 30.140625 L 25.78125 32.722656 L 27.191406 32.722656 C 27.730469 32.722656 28.140625 32.613281 28.414062 32.398438 C 28.691406 32.179688 28.832031 31.84375 28.832031 31.386719 C 28.832031 30.957031 28.691406 30.640625 28.40625 30.441406 C 28.128906 30.242188 27.699219 30.140625 27.125 30.140625 L 25.785156 30.140625 "/>
<path style=" stroke:none;fill-rule:nonzero;fill:rgb(0%,0%,0%);fill-opacity:1;" d="M 33.140625 33.5 C 32.394531 33.5 31.804688 33.269531 31.371094 32.800781 C 30.9375 32.335938 30.726562 31.691406 30.726562 30.859375 C 30.726562 30.027344 30.925781 29.367188 31.324219 28.875 C 31.726562 28.382812 32.265625 28.140625 32.941406 28.140625 C 33.574219 28.140625 34.074219 28.355469 34.441406 28.78125 C 34.8125 29.214844 34.996094 29.765625 34.996094 30.472656 L 34.996094 30.96875 L 31.515625 30.96875 C 31.53125 31.570312 31.679688 32.03125 31.964844 32.355469 C 32.25 32.667969 32.652344 32.828125 33.167969 32.828125 C 33.710938 32.828125 34.25 32.710938 34.78125 32.480469 L 34.78125 33.179688 C 34.511719 33.289062 34.253906 33.382812 34.011719 33.433594 C 33.773438 33.488281 33.484375 33.511719 33.140625 33.511719 M 32.933594 28.804688 C 32.527344 28.804688 32.203125 28.941406 31.960938 29.199219 C 31.722656 29.472656 31.570312 29.847656 31.53125 30.324219 L 34.179688 30.324219 C 34.179688 29.828125 34.070312 29.453125 33.859375 29.191406 C 33.644531 28.925781 33.335938 28.796875 32.9375 28.796875 "/>
</g>
</svg>
