<!-- color: #8db7d7 -->
<svg xmlns="http://www.w3.org/2000/svg" xmlns:xlink="http://www.w3.org/1999/xlink" width="48px" height="48px" viewBox="0 0 48 48" version="1.1">
<defs>
<linearGradient id="linear0" gradientUnits="userSpaceOnUse" x1="9.08" y1="10.715" x2="8.801" y2="3.186" gradientTransform="matrix(3.635929,0,0,3.453044,-1,0)">
<stop offset="0" style="stop-color:rgb(89.803922%,89.803922%,89.803922%);stop-opacity:1;"/>
<stop offset="1" style="stop-color:rgb(97.647059%,97.647059%,97.647059%);stop-opacity:1;"/>
</linearGradient>
</defs>
<g id="surface1">
<path style=" stroke:none;fill-rule:nonzero;fill:url(#linear0);" d="M 26.335938 13.59375 C 22.460938 13.59375 20.042969 16.355469 19.085938 21 L 28 21 L 28 23 L 18.832031 23 L 18.792969 23.785156 L 18.792969 24.894531 L 18.832031 26 L 27 26 L 27 28 L 19.121094 28 C 19.570312 30.074219 20.410156 31.585938 21.632812 32.726562 C 22.875 33.855469 24.523438 34.421875 26.589844 34.421875 C 28.484375 34.421875 30.359375 34.042969 32.21875 33.28125 L 32.21875 35.875 C 30.445312 36.621094 28.519531 37 26.445312 37 C 23.5625 37 21.25 36.226562 19.484375 34.683594 C 17.734375 33.125 16.582031 30.964844 16.023438 28 L 13.003906 28 L 13.003906 26 L 15.769531 26 L 15.734375 24.945312 L 15.734375 24.183594 L 15.769531 23.003906 L 13.003906 23.003906 L 13.003906 21.003906 L 15.992188 21.003906 C 16.464844 17.992188 17.585938 15.214844 19.363281 13.523438 C 21.136719 11.839844 23.460938 11.003906 26.339844 11.003906 C 28.777344 11.003906 31 11.5625 33.007812 12.683594 L 31.710938 15.085938 C 29.699219 14.09375 27.90625 13.597656 26.339844 13.597656 "/>
</g>
</svg>
