<!-- color: #474747 -->
<svg xmlns="http://www.w3.org/2000/svg" xmlns:xlink="http://www.w3.org/1999/xlink" width="48px" height="48px" viewBox="0 0 48 48" version="1.1">
<g id="surface1">
<path style=" stroke:none;fill-rule:evenodd;fill:rgb(21.176471%,86.666667%,23.529412%);fill-opacity:0.392157;" d="M 23.996094 9 C 32.277344 9 38.992188 15.714844 38.992188 23.996094 L 38.992188 24.007812 C 38.992188 32.289062 32.277344 39 23.996094 39 C 15.714844 39 9 32.289062 9 24.007812 L 9 23.996094 C 9 15.714844 15.714844 9 23.996094 9 M 23.996094 9 "/>
<path style="fill:none;stroke-width:0.226;stroke-linecap:butt;stroke-linejoin:bevel;stroke:rgb(21.176471%,86.666667%,23.529412%);stroke-opacity:1;stroke-miterlimit:4;" d="M 2.661267 7.776545 C 3.115469 7.662995 3.481476 7.780955 3.907014 7.780955 C 4.224514 7.780955 4.224514 7.495426 4.224514 7.495426 C 4.224514 7.495426 4.224514 7.780955 4.543116 7.780955 C 4.701866 7.780955 4.859514 8.066485 4.859514 8.066485 C 4.859514 8.066485 5.020469 4.345781 5.417344 4.345781 C 5.814219 4.345781 5.972969 8.356424 5.972969 8.356424 C 5.972969 8.356424 6.131719 7.784262 6.290469 7.784262 C 6.765616 7.784262 6.765616 7.496528 6.765616 7.496528 C 6.765616 7.496528 6.765616 7.784262 6.925469 7.784262 C 7.086424 7.784262 7.086424 8.069792 7.086424 8.069792 C 7.086424 8.069792 7.086424 7.784262 7.245174 7.784262 L 7.403924 7.784262 C 7.591337 7.784262 7.642049 7.212101 7.800799 7.212101 C 7.959549 7.212101 8.038924 7.784262 8.197674 7.784262 C 8.357526 7.784262 8.486511 7.496528 8.675026 7.496528 C 8.833776 7.496528 8.992526 7.786467 9.111589 7.784262 C 9.713516 7.765521 10.111493 7.517474 10.895321 7.736858 " transform="matrix(3.543307,0,0,3.543307,0,0)"/>
</g>
</svg>
