<!-- color: #474747 -->
<svg xmlns="http://www.w3.org/2000/svg" xmlns:xlink="http://www.w3.org/1999/xlink" width="48px" height="48px" viewBox="0 0 48 48" version="1.1">
<g id="surface1">
<path style=" stroke:none;fill-rule:nonzero;fill:rgb(89.411765%,78.823529%,18.823529%);fill-opacity:1;" d="M 22.019531 32 L 25.980469 32 C 25.992188 32 26 32.003906 26 32.003906 L 26 33.996094 C 26 33.996094 25.992188 34 25.980469 34 L 22.019531 34 C 22.007812 34 22 33.996094 22 33.996094 L 22 32.003906 C 22 32.003906 22.007812 32 22.019531 32 M 22.019531 32 "/>
<path style=" stroke:none;fill-rule:nonzero;fill:rgb(89.411765%,78.823529%,18.823529%);fill-opacity:0.901961;" d="M 22.019531 28.984375 L 25.980469 28.984375 C 25.992188 28.984375 26 28.988281 26 28.988281 L 26 30.980469 C 26 30.984375 25.992188 30.984375 25.980469 30.984375 L 22.019531 30.984375 C 22.007812 30.984375 22 30.984375 22 30.980469 L 22 28.988281 C 22 28.988281 22.007812 28.984375 22.019531 28.984375 M 22.019531 28.984375 "/>
<path style=" stroke:none;fill-rule:nonzero;fill:rgb(89.411765%,78.823529%,18.823529%);fill-opacity:0.8;" d="M 22.019531 26.019531 L 25.980469 26.019531 C 25.992188 26.019531 26 26.019531 26 26.023438 L 26 27.988281 C 26 27.992188 25.992188 27.992188 25.980469 27.992188 L 22.019531 27.992188 C 22.007812 27.992188 22 27.992188 22 27.988281 L 22 26.023438 C 22 26.019531 22.007812 26.019531 22.019531 26.019531 M 22.019531 26.019531 "/>
<path style=" stroke:none;fill-rule:nonzero;fill:rgb(89.411765%,78.823529%,18.823529%);fill-opacity:0.701961;" d="M 22.019531 23 L 25.980469 23 C 25.992188 23 26 23 26 23.003906 L 26 24.957031 C 26 24.957031 25.992188 24.960938 25.980469 24.960938 L 22.019531 24.960938 C 22.007812 24.960938 22 24.957031 22 24.957031 L 22 23.003906 C 22 23 22.007812 23 22.019531 23 M 22.019531 23 "/>
<path style=" stroke:none;fill-rule:nonzero;fill:rgb(89.411765%,78.823529%,18.823529%);fill-opacity:0.6;" d="M 22.019531 20 L 25.980469 20 C 25.992188 20 26 20 26 20.003906 L 26 21.945312 C 26 21.945312 25.992188 21.949219 25.980469 21.949219 L 22.019531 21.949219 C 22.007812 21.949219 22 21.945312 22 21.945312 L 22 20.003906 C 22 20 22.007812 20 22.019531 20 M 22.019531 20 "/>
<path style=" stroke:none;fill-rule:nonzero;fill:rgb(24.705882%,55.294118%,93.333333%);fill-opacity:1;" d="M 32.019531 32.011719 L 35.976562 32.011719 C 35.988281 32.011719 36 32.011719 36 32.015625 L 36 33.992188 C 36 33.992188 35.988281 33.996094 35.976562 33.996094 L 32.019531 33.996094 C 32.007812 33.996094 32 33.992188 32 33.992188 L 32 32.015625 C 32 32.011719 32.007812 32.011719 32.019531 32.011719 M 32.019531 32.011719 "/>
<path style=" stroke:none;fill-rule:nonzero;fill:rgb(24.705882%,55.294118%,93.333333%);fill-opacity:0.901961;" d="M 32.019531 29.019531 L 35.976562 29.019531 C 35.988281 29.019531 36 29.023438 36 29.023438 L 36 30.992188 C 36 30.992188 35.988281 30.996094 35.976562 30.996094 L 32.019531 30.996094 C 32.007812 30.996094 32 30.992188 32 30.992188 L 32 29.023438 C 32 29.023438 32.007812 29.019531 32.019531 29.019531 M 32.019531 29.019531 "/>
<path style=" stroke:none;fill-rule:nonzero;fill:rgb(24.705882%,55.294118%,93.333333%);fill-opacity:0.8;" d="M 32.019531 26.050781 L 35.976562 26.050781 C 35.988281 26.050781 36 26.054688 36 26.054688 L 36 28.011719 C 36 28.011719 35.988281 28.015625 35.976562 28.015625 L 32.019531 28.015625 C 32.007812 28.015625 32 28.011719 32 28.011719 L 32 26.054688 C 32 26.054688 32.007812 26.050781 32.019531 26.050781 M 32.019531 26.050781 "/>
<path style=" stroke:none;fill-rule:nonzero;fill:rgb(24.705882%,55.294118%,93.333333%);fill-opacity:0.701961;" d="M 32.019531 23.050781 L 35.976562 23.050781 C 35.988281 23.050781 36 23.050781 36 23.054688 L 36 24.996094 C 36 24.996094 35.988281 25 35.976562 25 L 32.019531 25 C 32.007812 25 32 24.996094 32 24.996094 L 32 23.054688 C 32 23.050781 32.007812 23.050781 32.019531 23.050781 M 32.019531 23.050781 "/>
<path style=" stroke:none;fill-rule:nonzero;fill:rgb(24.705882%,55.294118%,93.333333%);fill-opacity:0.6;" d="M 32.019531 20.058594 L 35.976562 20.058594 C 35.988281 20.058594 36 20.058594 36 20.0625 L 36 21.988281 C 36 21.992188 35.988281 21.992188 35.976562 21.992188 L 32.019531 21.992188 C 32.007812 21.992188 32 21.992188 32 21.988281 L 32 20.0625 C 32 20.058594 32.007812 20.058594 32.019531 20.058594 M 32.019531 20.058594 "/>
<path style=" stroke:none;fill-rule:nonzero;fill:rgb(24.705882%,55.294118%,93.333333%);fill-opacity:0.501961;" d="M 32.019531 17 L 35.976562 17 C 35.988281 17 36 17.003906 36 17.003906 L 36 18.996094 C 36 18.996094 35.988281 19 35.976562 19 L 32.019531 19 C 32.007812 19 32 18.996094 32 18.996094 L 32 17.003906 C 32 17.003906 32.007812 17 32.019531 17 M 32.019531 17 "/>
<path style=" stroke:none;fill-rule:nonzero;fill:rgb(85.882353%,30.588235%,85.882353%);fill-opacity:1;" d="M 37.019531 32 L 40.976562 32 C 40.988281 32 41 32.003906 41 32.003906 L 41 33.996094 C 41 33.996094 40.988281 34 40.976562 34 L 37.019531 34 C 37.007812 34 37 33.996094 37 33.996094 L 37 32.003906 C 37 32.003906 37.007812 32 37.019531 32 M 37.019531 32 "/>
<path style=" stroke:none;fill-rule:nonzero;fill:rgb(85.882353%,30.588235%,85.882353%);fill-opacity:0.901961;" d="M 37.019531 29 L 40.976562 29 C 40.988281 29 41 29 41 29.003906 L 41 30.984375 C 41 30.984375 40.988281 30.988281 40.976562 30.988281 L 37.019531 30.988281 C 37.007812 30.988281 37 30.984375 37 30.984375 L 37 29.003906 C 37 29 37.007812 29 37.019531 29 M 37.019531 29 "/>
<path style=" stroke:none;fill-rule:nonzero;fill:rgb(85.882353%,30.588235%,85.882353%);fill-opacity:0.8;" d="M 37.019531 26.019531 L 40.976562 26.019531 C 40.988281 26.019531 41 26.019531 41 26.023438 L 41 27.988281 C 41 27.992188 40.988281 27.992188 40.976562 27.992188 L 37.019531 27.992188 C 37.007812 27.992188 37 27.992188 37 27.988281 L 37 26.023438 C 37 26.019531 37.007812 26.019531 37.019531 26.019531 M 37.019531 26.019531 "/>
<path style=" stroke:none;fill-rule:nonzero;fill:rgb(85.882353%,30.588235%,85.882353%);fill-opacity:0.701961;" d="M 37.019531 23 L 40.976562 23 C 40.988281 23 41 23 41 23.003906 L 41 24.957031 C 41 24.957031 40.988281 24.960938 40.976562 24.960938 L 37.019531 24.960938 C 37.007812 24.960938 37 24.957031 37 24.957031 L 37 23.003906 C 37 23 37.007812 23 37.019531 23 M 37.019531 23 "/>
<path style=" stroke:none;fill-rule:nonzero;fill:rgb(85.882353%,30.588235%,85.882353%);fill-opacity:0.6;" d="M 37.019531 20 L 40.976562 20 C 40.988281 20 41 20 41 20.003906 L 41 21.945312 C 41 21.945312 40.988281 21.949219 40.976562 21.949219 L 37.019531 21.949219 C 37.007812 21.949219 37 21.945312 37 21.945312 L 37 20.003906 C 37 20 37.007812 20 37.019531 20 M 37.019531 20 "/>
<path style=" stroke:none;fill-rule:nonzero;fill:rgb(49.803922%,81.176471%,36.078431%);fill-opacity:1;" d="M 27.019531 32 L 30.976562 32 C 30.988281 32 31 32.003906 31 32.003906 L 31 33.996094 C 31 33.996094 30.988281 34 30.976562 34 L 27.019531 34 C 27.007812 34 27 33.996094 27 33.996094 L 27 32.003906 C 27 32.003906 27.007812 32 27.019531 32 M 27.019531 32 "/>
<path style=" stroke:none;fill-rule:nonzero;fill:rgb(49.803922%,81.176471%,36.078431%);fill-opacity:0.901961;" d="M 27.019531 29 L 30.976562 29 C 30.988281 29 31 29 31 29.003906 L 31 30.984375 C 31 30.984375 30.988281 30.988281 30.976562 30.988281 L 27.019531 30.988281 C 27.007812 30.988281 27 30.984375 27 30.984375 L 27 29.003906 C 27 29 27.007812 29 27.019531 29 M 27.019531 29 "/>
<path style=" stroke:none;fill-rule:nonzero;fill:rgb(49.803922%,81.176471%,36.078431%);fill-opacity:0.8;" d="M 27.019531 26.019531 L 30.976562 26.019531 C 30.988281 26.019531 31 26.019531 31 26.023438 L 31 27.988281 C 31 27.992188 30.988281 27.992188 30.976562 27.992188 L 27.019531 27.992188 C 27.007812 27.992188 27 27.992188 27 27.988281 L 27 26.023438 C 27 26.019531 27.007812 26.019531 27.019531 26.019531 M 27.019531 26.019531 "/>
<path style=" stroke:none;fill-rule:nonzero;fill:rgb(77.254902%,18.431373%,18.431373%);fill-opacity:1;" d="M 12 32 L 16 32 L 16 34 L 12 34 M 12 32 "/>
<path style=" stroke:none;fill-rule:nonzero;fill:rgb(77.254902%,18.431373%,18.431373%);fill-opacity:0.901961;" d="M 12 29 L 16 29 L 16 31 L 12 31 M 12 29 "/>
<path style=" stroke:none;fill-rule:nonzero;fill:rgb(77.254902%,18.431373%,18.431373%);fill-opacity:0.8;" d="M 12 26 L 16 26 L 16 28 L 12 28 M 12 26 "/>
<path style=" stroke:none;fill-rule:nonzero;fill:rgb(77.254902%,18.431373%,18.431373%);fill-opacity:0.701961;" d="M 12 23 L 16 23 L 16 25 L 12 25 M 12 23 "/>
<path style=" stroke:none;fill-rule:nonzero;fill:rgb(77.254902%,18.431373%,18.431373%);fill-opacity:0.6;" d="M 12 20 L 16 20 L 16 21.996094 L 12 21.996094 M 12 20 "/>
<path style=" stroke:none;fill-rule:nonzero;fill:rgb(77.254902%,18.431373%,18.431373%);fill-opacity:0.501961;" d="M 12 16.996094 L 16 16.996094 L 16 18.996094 L 12 18.996094 M 12 16.996094 "/>
<path style=" stroke:none;fill-rule:nonzero;fill:rgb(77.254902%,18.431373%,18.431373%);fill-opacity:0.4;" d="M 12 14 L 16 14 L 16 16 L 12 16 M 12 14 "/>
<path style=" stroke:none;fill-rule:nonzero;fill:rgb(92.941176%,55.686275%,9.803922%);fill-opacity:1;" d="M 17.019531 32 L 20.980469 32 C 20.988281 32 21 32 21 32.003906 L 21 33.992188 C 21 33.996094 20.988281 33.996094 20.980469 33.996094 L 17.019531 33.996094 C 17.007812 33.996094 17 33.996094 17 33.992188 L 17 32.003906 C 17 32 17.007812 32 17.019531 32 M 17.019531 32 "/>
<path style=" stroke:none;fill-rule:nonzero;fill:rgb(92.941176%,55.686275%,9.803922%);fill-opacity:0.901961;" d="M 17.019531 28.988281 L 20.980469 28.988281 C 20.988281 28.988281 21 28.988281 21 28.992188 L 21 30.984375 C 21 30.984375 20.988281 30.988281 20.980469 30.988281 L 17.019531 30.988281 C 17.007812 30.988281 17 30.984375 17 30.984375 L 17 28.992188 C 17 28.988281 17.007812 28.988281 17.019531 28.988281 M 17.019531 28.988281 "/>
<path style=" stroke:none;fill-rule:nonzero;fill:rgb(92.941176%,55.686275%,9.803922%);fill-opacity:0.8;" d="M 17.019531 26 L 20.980469 26 C 20.988281 26 21 26 21 26.003906 L 21 27.96875 C 21 27.96875 20.988281 27.972656 20.980469 27.972656 L 17.019531 27.972656 C 17.007812 27.972656 17 27.96875 17 27.96875 L 17 26.003906 C 17 26 17.007812 26 17.019531 26 M 17.019531 26 "/>
<path style=" stroke:none;fill-rule:nonzero;fill:rgb(92.941176%,55.686275%,9.803922%);fill-opacity:0.701961;" d="M 17.019531 22.996094 L 20.980469 22.996094 C 20.988281 22.996094 21 23 21 23 L 21 24.953125 C 21 24.957031 20.988281 24.957031 20.980469 24.957031 L 17.019531 24.957031 C 17.007812 24.957031 17 24.957031 17 24.953125 L 17 23 C 17 23 17.007812 22.996094 17.019531 22.996094 M 17.019531 22.996094 "/>
<path style=" stroke:none;fill-rule:nonzero;fill:rgb(85.882353%,30.588235%,85.882353%);fill-opacity:1;" d="M 7.019531 32 L 10.976562 32 C 10.988281 32 10.996094 32.003906 10.996094 32.003906 L 10.996094 33.996094 C 10.996094 33.996094 10.988281 34 10.976562 34 L 7.019531 34 C 7.007812 34 6.996094 33.996094 6.996094 33.996094 L 6.996094 32.003906 C 6.996094 32.003906 7.007812 32 7.019531 32 M 7.019531 32 "/>
<path style=" stroke:none;fill-rule:nonzero;fill:rgb(85.882353%,30.588235%,85.882353%);fill-opacity:0.901961;" d="M 7.019531 29 L 10.976562 29 C 10.988281 29 10.996094 29 10.996094 29.003906 L 10.996094 30.984375 C 10.996094 30.984375 10.988281 30.988281 10.976562 30.988281 L 7.019531 30.988281 C 7.007812 30.988281 6.996094 30.984375 6.996094 30.984375 L 6.996094 29.003906 C 6.996094 29 7.007812 29 7.019531 29 M 7.019531 29 "/>
<path style=" stroke:none;fill-rule:nonzero;fill:rgb(85.882353%,30.588235%,85.882353%);fill-opacity:0.8;" d="M 7.019531 26.019531 L 10.976562 26.019531 C 10.988281 26.019531 10.996094 26.019531 10.996094 26.023438 L 10.996094 27.988281 C 10.996094 27.992188 10.988281 27.992188 10.976562 27.992188 L 7.019531 27.992188 C 7.007812 27.992188 6.996094 27.992188 6.996094 27.988281 L 6.996094 26.023438 C 6.996094 26.019531 7.007812 26.019531 7.019531 26.019531 M 7.019531 26.019531 "/>
<path style=" stroke:none;fill-rule:nonzero;fill:rgb(85.882353%,30.588235%,85.882353%);fill-opacity:0.701961;" d="M 7.019531 23 L 10.976562 23 C 10.988281 23 10.996094 23 10.996094 23.003906 L 10.996094 24.957031 C 10.996094 24.957031 10.988281 24.960938 10.976562 24.960938 L 7.019531 24.960938 C 7.007812 24.960938 6.996094 24.957031 6.996094 24.957031 L 6.996094 23.003906 C 6.996094 23 7.007812 23 7.019531 23 M 7.019531 23 "/>
<path style=" stroke:none;fill-rule:nonzero;fill:rgb(85.882353%,30.588235%,85.882353%);fill-opacity:0.6;" d="M 7.019531 20 L 10.976562 20 C 10.988281 20 10.996094 20 10.996094 20.003906 L 10.996094 21.945312 C 10.996094 21.945312 10.988281 21.949219 10.976562 21.949219 L 7.019531 21.949219 C 7.007812 21.949219 6.996094 21.945312 6.996094 21.945312 L 6.996094 20.003906 C 6.996094 20 7.007812 20 7.019531 20 M 7.019531 20 "/>
<path style=" stroke:none;fill-rule:nonzero;fill:rgb(24.705882%,55.294118%,93.333333%);fill-opacity:0.501961;" d="M 2 17 L 2 19 L 6 19 L 6 17 M 2 17 "/>
<path style=" stroke:none;fill-rule:nonzero;fill:rgb(24.705882%,55.294118%,93.333333%);fill-opacity:0.6;" d="M 2 20 L 2 22 L 6 22 L 6 20 M 2 20 "/>
<path style=" stroke:none;fill-rule:nonzero;fill:rgb(24.705882%,55.294118%,93.333333%);fill-opacity:0.701961;" d="M 2 23 L 2 25 L 6 25 L 6 23 M 2 23 "/>
<path style=" stroke:none;fill-rule:nonzero;fill:rgb(24.705882%,55.294118%,93.333333%);fill-opacity:0.8;" d="M 2 26 L 2 28 L 6 28 L 6 26 M 2 26 "/>
<path style=" stroke:none;fill-rule:nonzero;fill:rgb(24.705882%,55.294118%,93.333333%);fill-opacity:0.901961;" d="M 2 29 L 2 31 L 6 31 L 6 29 M 2 29 "/>
<path style=" stroke:none;fill-rule:nonzero;fill:rgb(24.705882%,55.294118%,93.333333%);fill-opacity:1;" d="M 2 32 L 2 34 L 6 34 L 6 32 M 2 32 "/>
<path style=" stroke:none;fill-rule:nonzero;fill:rgb(77.254902%,18.431373%,18.431373%);fill-opacity:0.4;" d="M 42 14 L 42 16 L 46 16 L 46 14 M 42 14 "/>
<path style=" stroke:none;fill-rule:nonzero;fill:rgb(77.254902%,18.431373%,18.431373%);fill-opacity:0.501961;" d="M 42 17 L 42 19 L 46 19 L 46 17 M 42 17 "/>
<path style=" stroke:none;fill-rule:nonzero;fill:rgb(77.254902%,18.431373%,18.431373%);fill-opacity:0.6;" d="M 42 20 L 42 22 L 46 22 L 46 20 M 42 20 "/>
<path style=" stroke:none;fill-rule:nonzero;fill:rgb(77.254902%,18.431373%,18.431373%);fill-opacity:0.701961;" d="M 42 23 L 42 25 L 46 25 L 46 23 M 42 23 "/>
<path style=" stroke:none;fill-rule:nonzero;fill:rgb(77.254902%,18.431373%,18.431373%);fill-opacity:0.8;" d="M 42 26 L 42 28 L 46 28 L 46 26 M 42 26 "/>
<path style=" stroke:none;fill-rule:nonzero;fill:rgb(77.254902%,18.431373%,18.431373%);fill-opacity:0.901961;" d="M 42 29 L 42 31 L 46 31 L 46 29 M 42 29 "/>
<path style=" stroke:none;fill-rule:nonzero;fill:rgb(77.254902%,18.431373%,18.431373%);fill-opacity:1;" d="M 42 32 L 42 34 L 46 34 L 46 32 M 42 32 "/>
<path style=" stroke:none;fill-rule:nonzero;fill:rgb(97.647059%,97.647059%,97.647059%);fill-opacity:1;" d="M 18.128906 24 C 16.792969 25.269531 15.996094 26.976562 15.996094 28.859375 C 15.996094 32.8125 19.578125 35.980469 23.996094 35.980469 C 28.421875 35.980469 31.996094 32.792969 31.996094 28.859375 C 31.996094 26.980469 31.191406 25.273438 29.863281 24 L 28.261719 25.425781 C 29.1875 26.332031 29.710938 27.535156 29.710938 28.859375 C 29.710938 31.679688 27.160156 33.960938 23.996094 33.960938 C 20.832031 33.960938 18.277344 31.679688 18.277344 28.859375 C 18.277344 27.542969 18.839844 26.359375 19.765625 25.460938 M 18.125 24 "/>
<path style=" stroke:none;fill-rule:nonzero;fill:rgb(97.647059%,97.647059%,97.647059%);fill-opacity:1;" d="M 23.894531 14.664062 L 24.101562 14.664062 C 24.597656 14.664062 24.996094 15.066406 24.996094 15.5625 L 24.996094 31.101562 C 24.996094 31.597656 24.597656 32 24.101562 32 L 23.894531 32 C 23.402344 32 23 31.597656 23 31.101562 L 23 15.5625 C 23 15.066406 23.402344 14.664062 23.894531 14.664062 M 23.894531 14.664062 "/>
<path style=" stroke:none;fill-rule:nonzero;fill:rgb(97.647059%,97.647059%,97.647059%);fill-opacity:1;" d="M 15 22.519531 L 15 22.480469 C 15 22.214844 15.214844 22 15.480469 22 L 32.519531 22 C 32.785156 22 33.003906 22.214844 33.003906 22.480469 L 33.003906 22.519531 C 33.003906 22.785156 32.785156 23 32.519531 23 L 15.480469 23 C 15.214844 23 15 22.785156 15 22.519531 M 15 22.519531 "/>
<path style=" stroke:none;fill-rule:nonzero;fill:rgb(97.647059%,97.647059%,97.647059%);fill-opacity:1;" d="M 32.445312 16 L 32.546875 16 C 32.792969 16 32.996094 16.203125 32.996094 16.453125 L 32.996094 22.214844 C 32.996094 22.464844 32.792969 22.667969 32.546875 22.667969 L 32.445312 22.667969 C 32.199219 22.667969 31.996094 22.464844 31.996094 22.214844 L 31.996094 16.453125 C 31.996094 16.203125 32.199219 16 32.445312 16 M 32.445312 16 "/>
<path style=" stroke:none;fill-rule:nonzero;fill:rgb(97.647059%,97.647059%,97.647059%);fill-opacity:1;" d="M 15.449219 16 L 15.546875 16 C 15.796875 16 15.996094 16.203125 15.996094 16.453125 L 15.996094 22.214844 C 15.996094 22.464844 15.796875 22.667969 15.546875 22.667969 L 15.449219 22.667969 C 15.199219 22.667969 15 22.464844 15 22.214844 L 15 16.453125 C 15 16.203125 15.199219 16 15.449219 16 M 15.449219 16 "/>
<path style=" stroke:none;fill-rule:nonzero;fill:rgb(97.647059%,97.647059%,97.647059%);fill-opacity:1;" d="M 23.78125 12 C 23.726562 12.003906 23.675781 12.039062 23.621094 12.050781 C 23.472656 12.078125 23.320312 12.078125 23.183594 12.152344 C 22.90625 12.300781 22.710938 12.5625 22.585938 12.820312 C 22.535156 12.917969 22.445312 13.019531 22.421875 13.128906 L 20.242188 16.605469 C 19.761719 17.394531 20.023438 18.394531 20.789062 18.808594 C 21.554688 19.222656 22.539062 18.929688 23.019531 18.140625 L 24.003906 16.554688 L 24.980469 18.140625 C 25.460938 18.929688 26.445312 19.222656 27.210938 18.808594 C 27.976562 18.394531 28.234375 17.394531 27.757812 16.605469 L 25.574219 13.128906 C 25.558594 13.058594 25.492188 12.992188 25.46875 12.921875 L 25.410156 12.820312 C 25.285156 12.5625 25.09375 12.304688 24.8125 12.152344 C 24.675781 12.078125 24.527344 12.082031 24.378906 12.050781 C 24.246094 12.027344 24.128906 11.992188 23.996094 12 C 23.921875 11.996094 23.851562 11.992188 23.777344 12 M 23.773438 12 "/>
<path style=" stroke:none;fill-rule:nonzero;fill:rgb(97.647059%,97.647059%,97.647059%);fill-opacity:1;" d="M 15.363281 14 C 15.328125 14.003906 15.296875 14.019531 15.261719 14.027344 C 15.167969 14.046875 15.078125 14.042969 14.988281 14.085938 C 14.816406 14.171875 14.695312 14.316406 14.613281 14.46875 C 14.582031 14.523438 14.527344 14.582031 14.511719 14.644531 L 13.148438 16.632812 C 12.847656 17.082031 13.011719 17.652344 13.488281 17.890625 C 13.96875 18.128906 14.585938 17.957031 14.886719 17.511719 L 15.5 16.605469 L 16.113281 17.511719 C 16.414062 17.960938 17.027344 18.128906 17.507812 17.890625 C 17.984375 17.652344 18.148438 17.082031 17.847656 16.632812 L 16.488281 14.644531 C 16.476562 14.601562 16.4375 14.566406 16.417969 14.527344 L 16.382812 14.46875 C 16.304688 14.316406 16.183594 14.171875 16.007812 14.085938 C 15.921875 14.046875 15.832031 14.046875 15.734375 14.027344 C 15.65625 14.011719 15.578125 13.996094 15.5 14 C 15.453125 13.996094 15.410156 13.996094 15.363281 14 M 15.363281 14 "/>
<path style=" stroke:none;fill-rule:nonzero;fill:rgb(97.647059%,97.647059%,97.647059%);fill-opacity:1;" d="M 23.835938 31.996094 C 23.792969 31.992188 23.757812 31.96875 23.710938 31.960938 C 23.597656 31.9375 23.488281 31.9375 23.386719 31.886719 C 23.175781 31.78125 23.03125 31.59375 22.9375 31.410156 C 22.902344 31.339844 22.832031 31.269531 22.8125 31.191406 L 21.179688 28.703125 C 20.816406 28.144531 21.011719 27.429688 21.585938 27.132812 C 22.160156 26.832031 22.898438 27.046875 23.257812 27.605469 L 23.992188 28.738281 L 24.726562 27.605469 C 25.085938 27.046875 25.828125 26.832031 26.398438 27.132812 C 26.972656 27.429688 27.167969 28.144531 26.804688 28.703125 L 25.171875 31.191406 C 25.15625 31.246094 25.113281 31.289062 25.089844 31.335938 L 25.046875 31.410156 C 24.953125 31.59375 24.808594 31.78125 24.597656 31.886719 C 24.496094 31.9375 24.382812 31.9375 24.273438 31.960938 C 24.171875 31.976562 24.085938 32.003906 23.984375 31.996094 C 23.929688 32 23.878906 32 23.820312 31.996094 M 23.835938 31.996094 "/>
<path style=" stroke:none;fill-rule:nonzero;fill:rgb(97.647059%,97.647059%,97.647059%);fill-opacity:1;" d="M 32.363281 14 C 32.328125 14.003906 32.296875 14.019531 32.261719 14.027344 C 32.167969 14.046875 32.078125 14.042969 31.988281 14.085938 C 31.816406 14.171875 31.695312 14.316406 31.613281 14.46875 C 31.582031 14.523438 31.527344 14.582031 31.511719 14.644531 L 30.148438 16.632812 C 29.847656 17.082031 30.011719 17.652344 30.488281 17.890625 C 30.96875 18.128906 31.585938 17.957031 31.886719 17.511719 L 32.5 16.605469 L 33.113281 17.511719 C 33.414062 17.960938 34.03125 18.128906 34.507812 17.890625 C 34.988281 17.652344 35.148438 17.082031 34.847656 16.632812 L 33.488281 14.644531 C 33.476562 14.601562 33.4375 14.566406 33.421875 14.527344 L 33.386719 14.46875 C 33.304688 14.316406 33.183594 14.171875 33.007812 14.085938 C 32.925781 14.046875 32.832031 14.046875 32.738281 14.027344 C 32.65625 14.011719 32.582031 13.996094 32.5 14 C 32.453125 13.996094 32.410156 13.996094 32.363281 14 M 32.363281 14 "/>
</g>
</svg>
