<!-- color: #f99824 -->
<svg xmlns="http://www.w3.org/2000/svg" xmlns:xlink="http://www.w3.org/1999/xlink" width="48px" height="48px" viewBox="0 0 48 48" version="1.1">
<defs>
<radialGradient id="radial0" gradientUnits="userSpaceOnUse" cx="21.561" cy="27.06" fx="21.561" fy="27.06" r="13.438" gradientTransform="matrix(3.377318,0,0,3.675381,-53.667491,-63.501833)">
<stop offset="0" style="stop-color:rgb(80.784314%,35.686275%,0%);stop-opacity:0.709804;"/>
<stop offset="1" style="stop-color:rgb(95.686275%,47.058824%,0%);stop-opacity:0.709804;"/>
</radialGradient>
<radialGradient id="radial1" gradientUnits="userSpaceOnUse" cx="24.471" cy="23.21" fx="24.471" fy="23.21" r="14.529" gradientTransform="matrix(3.23174,-0.000000591588,0.000000913104,2.140921,-54.375419,-22.763309)">
<stop offset="0" style="stop-color:rgb(100%,100%,100%);stop-opacity:0.415686;"/>
<stop offset="1" style="stop-color:rgb(100%,100%,100%);stop-opacity:0;"/>
</radialGradient>
</defs>
<g id="surface1">
<path style=" stroke:none;fill-rule:evenodd;fill:url(#radial0);" d="M 0 0 L 0 6.1875 C 6.480469 15.640625 13.242188 25.546875 20.59375 36.347656 L 7.40625 0.0078125 L 0 0.0078125 M 20.59375 36.339844 L 38.3125 -0.00390625 L 27.84375 -0.00390625 C 25.597656 11.4375 23.191406 23.476562 20.59375 36.339844 M 20.59375 36.339844 L 48 28.589844 L 48 21.773438 C 39.269531 26.425781 30.070312 31.324219 20.59375 36.339844 M 20.59375 36.339844 L 48 46.683594 L 48 40.558594 C 39.195312 39.21875 30.15625 37.839844 20.59375 36.339844 M 20.59375 36.339844 L 24.84375 47.988281 L 28.5625 47.988281 C 25.929688 44.136719 23.394531 40.445312 20.59375 36.339844 M 20.59375 36.339844 L 14.96875 47.988281 L 18.3125 47.988281 C 19.054688 44.195312 19.785156 40.34375 20.59375 36.339844 M 20.59375 36.339844 L 0 42.183594 L 0 47.246094 C 6.730469 43.675781 13.433594 40.125 20.59375 36.339844 M 20.59375 36.339844 L 0 28.558594 L 0 33.121094 C 6.804688 34.1875 13.425781 35.21875 20.59375 36.339844 M 20.59375 36.339844 "/>
<path style=" stroke:none;fill-rule:evenodd;fill:url(#radial1);" d="M 48 19.625 C 43.164062 24.0625 35.890625 26.152344 27.28125 25.59375 C 17.191406 24.9375 7.640625 25.28125 0 29.96875 L 0 48 L 48 48 M 48 19.625 "/>
<path style=" stroke:none;fill-rule:nonzero;fill:rgb(97.647059%,97.647059%,97.647059%);fill-opacity:1;" d="M 23.402344 12.195312 L 29 11.003906 L 29 29.765625 C 29 32.191406 28.261719 34.003906 26.789062 35.203125 C 25.324219 36.402344 23.105469 37.003906 20.128906 37.003906 L 18.996094 37.003906 L 18.996094 33.210938 L 19.867188 33.210938 C 21.03125 33.210938 21.910156 32.921875 22.496094 32.339844 C 23.097656 31.757812 23.394531 30.902344 23.394531 29.769531 L 23.394531 12.199219 "/>
</g>
</svg>
