<!-- color: #eeeeee -->
<svg xmlns="http://www.w3.org/2000/svg" xmlns:xlink="http://www.w3.org/1999/xlink" width="48px" height="48px" viewBox="0 0 48 48" version="1.1">
<g id="surface1">
<path style=" stroke:none;fill-rule:evenodd;fill:rgb(17.647059%,17.647059%,17.647059%);fill-opacity:1;" d="M 24 17 C 19.566406 17 16 20.578125 16 25 C 16 29.433594 19.582031 33 24 33 C 28.429688 33 32 29.417969 32 25 C 32 20.570312 28.421875 17 24 17 M 24 18 C 27.875 18 31 21.121094 31 25 C 31 28.878906 27.878906 32 24 32 C 20.121094 32 17 28.878906 17 25 C 17 21.125 20.121094 18 24 18 M 24 18 "/>
<path style=" stroke:none;fill-rule:nonzero;fill:rgb(17.647059%,17.647059%,17.647059%);fill-opacity:1;" d="M 17 14 L 17 18 L 13 18 L 13 20 L 35 20 L 35 18 L 31 18 L 31 14 M 17 14 "/>
<path style=" stroke:none;fill-rule:nonzero;fill:rgb(17.647059%,17.647059%,17.647059%);fill-opacity:1;" d="M 23 31.996094 L 24.996094 31.996094 L 24.996094 34.996094 L 23 34.996094 M 23 31.996094 "/>
</g>
</svg>
