<!-- color: #004088 -->
<svg xmlns="http://www.w3.org/2000/svg" xmlns:xlink="http://www.w3.org/1999/xlink" width="48px" height="48px" viewBox="0 0 48 48" version="1.1">
<g id="surface1">
<path style=" stroke:none;fill-rule:evenodd;fill:rgb(48.627451%,70.196078%,8.627451%);fill-opacity:1;" d="M 0 25.28125 L 0 48 L 19.71875 48 C 17.757812 45.417969 15.941406 42.960938 14.40625 40.875 C 10.667969 35.800781 8.4375 32.375 8.4375 32.375 C 7.316406 30.777344 5.957031 29.386719 4.46875 28.1875 C 3.097656 27.082031 1.601562 26.097656 0 25.28125 M 0 25.28125 "/>
<path style=" stroke:none;fill-rule:evenodd;fill:rgb(97.647059%,97.647059%,97.647059%);fill-opacity:1;" d="M 14.9375 0 C 14.964844 0.925781 15 1.863281 15.09375 2.75 C 15.199219 3.765625 15.359375 4.707031 15.59375 5.5 C 15.828125 6.292969 16.160156 6.921875 16.5625 7.28125 C 16.964844 7.640625 17.421875 7.695312 18.03125 7.4375 C 18.640625 7.179688 19.363281 6.570312 20.21875 5.5 C 20.21875 5.5 21.550781 3.332031 23.90625 1.40625 C 24.53125 0.894531 25.230469 0.425781 26.011719 0 M 39.78125 0 C 39.90625 0.046875 40.035156 0.078125 40.15625 0.125 C 41.554688 0.660156 42.8125 1.398438 43.382812 2.28125 C 43.65625 2.722656 43.742188 3.210938 43.632812 3.75 C 43.515625 4.289062 43.152344 4.859375 42.507812 5.5 C 42.507812 5.5 41.109375 6.355469 39.65625 7.71875 C 38.933594 8.402344 38.214844 9.230469 37.632812 10.125 C 37.050781 11.019531 36.609375 11.984375 36.507812 13 C 36.402344 14.015625 36.609375 15.039062 37.320312 16.09375 C 38.023438 17.148438 39.253906 18.246094 41.101562 19.25 C 42.804688 20.175781 45.0625 21.035156 48.007812 21.84375 L 48.007812 0 M 39.78125 0 "/>
<path style=" stroke:none;fill-rule:evenodd;fill:rgb(87.058824%,15.294118%,13.333333%);fill-opacity:1;" d="M 8.875 0 C 8.476562 0.492188 8.058594 1.011719 7.53125 1.71875 C 6.164062 3.566406 4.488281 6.011719 3.3125 8.6875 C 2.722656 10.027344 2.28125 11.425781 2.03125 12.78125 C 1.78125 14.136719 1.75 15.507812 2.03125 16.75 C 2.3125 17.996094 2.898438 19.117188 3.90625 20.125 C 4.914062 21.136719 6.320312 21.984375 8.25 22.625 C 8.25 22.625 11.367188 23.171875 16 24.1875 C 20.632812 25.210938 26.773438 26.699219 32.875 28.628906 C 35.925781 29.589844 38.953125 30.675781 41.78125 31.847656 C 44.015625 32.773438 46.128906 33.746094 48 34.785156 L 48 21.847656 C 45.054688 21.035156 42.796875 20.179688 41.09375 19.253906 C 39.246094 18.253906 38.015625 17.148438 37.3125 16.097656 C 36.609375 15.042969 36.394531 14.019531 36.5 13.003906 C 36.605469 11.984375 37.042969 11.019531 37.625 10.128906 C 38.207031 9.234375 38.933594 8.402344 39.65625 7.722656 C 41.101562 6.355469 42.5 5.503906 42.5 5.503906 C 43.140625 4.859375 43.511719 4.289062 43.625 3.753906 C 43.742188 3.214844 43.65625 2.726562 43.375 2.28125 C 42.8125 1.398438 41.546875 0.660156 40.15625 0.128906 C 40.03125 0.078125 39.90625 0.046875 39.78125 0.00390625 L 26 0.00390625 C 25.226562 0.425781 24.527344 0.898438 23.90625 1.40625 C 21.550781 3.335938 20.21875 5.503906 20.21875 5.503906 C 19.359375 6.574219 18.640625 7.183594 18.03125 7.441406 C 17.421875 7.699219 16.964844 7.644531 16.5625 7.285156 C 16.160156 6.929688 15.824219 6.304688 15.59375 5.511719 C 15.359375 4.71875 15.195312 3.777344 15.09375 2.761719 C 14.992188 1.867188 14.960938 0.9375 14.9375 0.0117188 L 8.875 0.0117188 M 8.875 0.0078125 "/>
<path style=" stroke:none;fill-rule:evenodd;fill:rgb(95.686275%,77.647059%,18.039216%);fill-opacity:1;" d="M 23.4375 35.8125 C 21.296875 35.8125 19.890625 36.078125 19.09375 36.59375 C 18.695312 36.851562 18.464844 37.140625 18.34375 37.5 C 18.222656 37.859375 18.222656 38.277344 18.34375 38.71875 C 18.585938 39.601562 19.25 40.644531 20.21875 41.75 C 21.1875 42.851562 22.515625 44.039062 23.90625 45.21875 C 25.027344 46.167969 26.226562 47.089844 27.4375 48 L 48 48 L 48 39.84375 C 47.136719 39.425781 46.238281 39.066406 45.3125 38.78125 C 42.527344 37.921875 39.601562 37.605469 37.40625 37.5 C 35.210938 37.390625 33.75 37.5 33.75 37.5 C 32.894531 38.570312 32.09375 39.367188 31.34375 39.90625 C 30.597656 40.445312 29.894531 40.753906 29.25 40.875 C 28.609375 40.992188 28.003906 40.902344 27.46875 40.71875 C 26.933594 40.535156 26.460938 40.21875 26.03125 39.84375 C 25.175781 39.09375 24.523438 38.140625 24.09375 37.3125 C 23.664062 36.480469 23.4375 35.8125 23.4375 35.8125 M 23.4375 35.8125 "/>
</g>
</svg>
