<!-- color: #eeeeee -->
<svg xmlns="http://www.w3.org/2000/svg" xmlns:xlink="http://www.w3.org/1999/xlink" width="48px" height="48px" viewBox="0 0 48 48" version="1.1">
<g id="surface1">
<path style=" stroke:none;fill-rule:evenodd;fill:rgb(23.921569%,61.176471%,100%);fill-opacity:1;" d="M 15.109375 29.382812 L 11.003906 19.464844 L 14.308594 17.847656 L 14.390625 17.738281 L 17.054688 24.480469 L 20.253906 22.78125 L 21.691406 25.984375 M 15.109375 29.382812 "/>
<path style=" stroke:none;fill-rule:evenodd;fill:rgb(97.647059%,76.078431%,23.529412%);fill-opacity:1;" d="M 17.957031 19.382812 L 22.089844 19.964844 L 23.316406 22.640625 L 24.859375 20.328125 L 29.019531 20.882812 L 25.207031 26.566406 L 24.273438 32 L 20.410156 31.359375 L 21.074219 26.484375 M 17.957031 19.382812 "/>
<path style=" stroke:none;fill-rule:evenodd;fill:rgb(87.058824%,32.941176%,15.686275%);fill-opacity:1;" d="M 27.070312 16 L 30.679688 16.722656 L 31.457031 19.164062 L 33.042969 17.28125 L 37 18.152344 L 33.457031 22.28125 L 35.457031 28.429688 L 31.199219 27.996094 L 30.441406 24.660156 L 28.515625 27.402344 L 25.199219 26.328125 L 28.527344 21.414062 M 27.058594 16 "/>
</g>
</svg>
