<!-- color: #eeeeee -->
<svg xmlns="http://www.w3.org/2000/svg" xmlns:xlink="http://www.w3.org/1999/xlink" width="48px" height="48px" viewBox="0 0 48 48" version="1.1">
<g id="surface1">
<path style=" stroke:none;fill-rule:nonzero;fill:rgb(9.411765%,41.176471%,67.45098%);fill-opacity:1;" d="M 23.980469 14.316406 C 19.773438 14.316406 16.371094 17.542969 16.371094 21.527344 C 16.371094 25.515625 19.773438 28.761719 23.980469 28.761719 C 28.1875 28.761719 31.59375 25.515625 31.59375 21.527344 C 31.59375 17.542969 28.1875 14.316406 23.980469 14.316406 M 23.980469 20.203125 C 24.757812 20.203125 25.378906 20.792969 25.378906 21.527344 C 25.378906 22.261719 24.753906 22.871094 23.980469 22.871094 C 23.207031 22.871094 22.585938 22.261719 22.585938 21.527344 C 22.585938 20.796875 23.207031 20.203125 23.980469 20.203125 M 23.980469 20.203125 "/>
<path style="fill:none;stroke-width:0.476;stroke-linecap:butt;stroke-linejoin:miter;stroke:rgb(9.411765%,41.176471%,67.45098%);stroke-opacity:1;stroke-miterlimit:4;" d="M 4.28625 3.34257 L 9.261519 3.34257 C 9.467674 3.34257 9.638551 3.514549 9.638551 3.721806 L 9.638551 9.824861 C 9.638551 10.034323 9.467674 10.204097 9.261519 10.204097 L 4.28625 10.204097 C 4.076788 10.204097 3.907014 10.034323 3.907014 9.824861 L 3.907014 3.721806 C 3.907014 3.514549 4.076788 3.34257 4.28625 3.34257 M 4.28625 3.34257 " transform="matrix(3.543307,0,0,3.543307,0,0)"/>
<path style=" stroke:none;fill-rule:nonzero;fill:rgb(9.411765%,41.176471%,67.45098%);fill-opacity:1;" d="M 26.5625 29.671875 L 29.984375 33.726562 L 31.695312 33.726562 L 31.695312 32.105469 M 26.5625 29.671875 "/>
</g>
</svg>
