<!-- color: #d34836 -->
<svg xmlns="http://www.w3.org/2000/svg" xmlns:xlink="http://www.w3.org/1999/xlink" width="48px" height="48px" viewBox="0 0 48 48" version="1.1">
<g id="surface1">
<path style=" stroke:none;fill-rule:nonzero;fill:rgb(97.254902%,97.254902%,97.254902%);fill-opacity:1;" d="M 23.65625 14.03125 C 19.304688 14.03125 16 17.621094 16 21.9375 L 16 33.46875 C 16 33.738281 16.222656 33.96875 16.5 33.96875 C 16.777344 33.96875 17 33.738281 17 33.46875 L 17 21.9375 C 17 18.121094 19.851562 15.03125 23.65625 15.03125 C 27.445312 15.03125 31.03125 18.183594 31.03125 21.9375 L 31.03125 33.46875 C 31.03125 33.738281 31.253906 33.96875 31.53125 33.96875 C 31.808594 33.96875 32.03125 33.738281 32.03125 33.46875 L 32.03125 21.9375 C 32.03125 17.5625 27.992188 14.03125 23.65625 14.03125 M 16.40625 14.09375 C 16.167969 14.140625 15.996094 14.351562 16 14.59375 L 16 16.75 C 16 17.023438 16.222656 17.25 16.5 17.25 C 16.777344 17.25 17 17.023438 17 16.75 L 17 14.59375 C 17.003906 14.441406 16.9375 14.296875 16.820312 14.203125 C 16.707031 14.105469 16.554688 14.066406 16.40625 14.09375 M 16.40625 14.09375 "/>
</g>
</svg>
