<!-- color: #8b4c7b -->
<svg xmlns="http://www.w3.org/2000/svg" xmlns:xlink="http://www.w3.org/1999/xlink" width="48px" height="48px" viewBox="0 0 48 48" version="1.1">
<g id="surface1">
<path style=" stroke:none;fill-rule:nonzero;fill:rgb(97.647059%,97.647059%,97.647059%);fill-opacity:1;" d="M 13 19 L 23 16 L 34 17 L 36 23 L 36 27 L 35.972656 28.238281 L 34.832031 30.382812 L 17.820312 31.589844 L 12.863281 30.183594 L 11.726562 26.699219 M 13 19 "/>
<path style=" stroke:none;fill-rule:nonzero;fill:rgb(94.509804%,35.686275%,12.54902%);fill-opacity:1;" d="M 32.320312 36.25 L 30.039062 35.503906 L 29.578125 35.722656 C 28.160156 36.398438 26.6875 36.792969 25.085938 36.9375 C 24.488281 36.988281 22.90625 36.957031 22.351562 36.882812 C 21.363281 36.746094 20.558594 36.558594 19.675781 36.246094 C 15.332031 34.726562 12.101562 30.988281 11.226562 26.476562 C 11.078125 25.703125 11.027344 25.214844 11.003906 24.316406 C 10.972656 23.054688 11.074219 22.09375 11.347656 20.945312 C 12.550781 15.964844 16.554688 12.164062 21.601562 11.21875 C 22.257812 11.09375 22.652344 11.046875 23.371094 11.015625 C 26.234375 10.882812 28.957031 11.648438 31.316406 13.257812 C 32.117188 13.800781 32.566406 14.183594 33.328125 14.96875 C 34.003906 15.664062 34.429688 16.183594 34.878906 16.867188 C 36.78125 19.777344 37.4375 23.269531 36.726562 26.691406 C 36.3125 28.6875 35.324219 30.71875 34.015625 32.285156 C 33.886719 32.4375 33.773438 32.597656 33.773438 32.636719 C 33.773438 32.699219 34.644531 36.796875 34.6875 36.945312 C 34.695312 36.984375 34.6875 37.011719 34.65625 37.007812 C 34.632812 37.003906 33.582031 36.667969 32.328125 36.253906 M 14.933594 30.007812 C 15.453125 29.910156 15.8125 29.644531 16.027344 29.203125 C 16.230469 28.789062 16.242188 28.617188 16.175781 27.210938 C 16.144531 26.53125 16.113281 25.941406 16.101562 25.894531 C 16.082031 25.820312 16.066406 25.8125 15.824219 25.8125 C 15.300781 25.8125 14.910156 25.855469 14.882812 25.917969 C 14.867188 25.953125 14.882812 26.53125 14.914062 27.214844 C 14.972656 28.40625 14.972656 28.589844 14.886719 28.753906 C 14.746094 29.019531 14.210938 29.058594 14.023438 28.816406 C 13.90625 28.664062 13.890625 28.511719 13.828125 27.238281 C 13.789062 26.386719 13.757812 26 13.726562 25.96875 C 13.691406 25.933594 13.566406 25.929688 13.136719 25.957031 C 12.835938 25.976562 12.570312 26.011719 12.550781 26.03125 C 12.496094 26.085938 12.617188 28.53125 12.683594 28.832031 C 12.761719 29.148438 12.863281 29.359375 13.050781 29.574219 C 13.230469 29.78125 13.460938 29.929688 13.699219 29.996094 C 13.894531 30.046875 14.6875 30.058594 14.933594 30.011719 M 17.636719 29.808594 C 18.617188 29.746094 19.039062 29.683594 19.289062 29.550781 C 19.574219 29.402344 19.761719 29.113281 19.832031 28.71875 L 19.871094 28.496094 L 19.914062 28.625 C 19.996094 28.871094 20.105469 29.050781 20.273438 29.222656 C 20.574219 29.535156 20.902344 29.644531 21.511719 29.644531 C 22.140625 29.644531 22.558594 29.523438 22.84375 29.261719 C 23.210938 28.921875 23.382812 28.496094 23.382812 27.914062 C 23.382812 27.207031 23.277344 25.441406 23.230469 25.410156 C 23.207031 25.390625 23.035156 25.386719 22.847656 25.398438 C 22.214844 25.433594 22.0625 25.457031 22.03125 25.507812 C 22.019531 25.535156 22.046875 26.140625 22.074219 26.851562 C 22.140625 28.109375 22.140625 28.144531 22.066406 28.28125 C 21.980469 28.472656 21.804688 28.566406 21.566406 28.566406 C 21.355469 28.566406 21.222656 28.488281 21.117188 28.300781 C 21.0625 28.203125 21.050781 28.007812 20.988281 26.890625 C 20.960938 26.144531 20.921875 25.578125 20.890625 25.558594 C 20.839844 25.507812 19.796875 25.558594 19.722656 25.613281 C 19.671875 25.652344 19.671875 25.765625 19.722656 26.757812 C 19.753906 27.363281 19.777344 27.917969 19.777344 27.996094 L 19.777344 28.136719 L 19.699219 27.976562 C 19.632812 27.824219 19.429688 27.632812 19.257812 27.566406 C 19.175781 27.535156 19.175781 27.535156 19.296875 27.425781 C 19.359375 27.367188 19.445312 27.230469 19.492188 27.128906 C 19.558594 26.96875 19.570312 26.890625 19.558594 26.640625 C 19.535156 26.214844 19.390625 25.972656 19.03125 25.78125 C 18.886719 25.703125 18.824219 25.695312 18.355469 25.695312 C 18.070312 25.695312 17.597656 25.707031 17.304688 25.722656 L 16.769531 25.746094 L 17.070312 25.679688 C 17.945312 25.484375 18.609375 24.964844 18.992188 24.175781 C 19.261719 23.628906 19.324219 23.277344 19.328125 22.46875 C 19.335938 21.773438 19.289062 21.417969 19.148438 20.957031 C 18.902344 20.148438 18.433594 19.558594 17.765625 19.222656 C 17.292969 18.980469 17.007812 18.921875 16.304688 18.917969 C 15.515625 18.914062 15.117188 19.003906 14.527344 19.308594 C 14.109375 19.527344 13.660156 19.996094 13.429688 20.457031 C 13.175781 20.960938 13.082031 21.375 13.0625 22.085938 C 13.019531 23.429688 13.328125 24.34375 14.074219 25.058594 C 14.5625 25.53125 15.277344 25.785156 16.128906 25.785156 C 16.265625 25.785156 16.296875 25.796875 16.265625 25.832031 C 16.222656 25.882812 16.382812 29.65625 16.4375 29.785156 C 16.476562 29.882812 16.441406 29.882812 17.628906 29.8125 M 17.636719 28.492188 C 17.621094 28.320312 17.617188 28.171875 17.625 28.164062 C 17.636719 28.152344 17.8125 28.140625 18.023438 28.136719 C 18.40625 28.128906 18.40625 28.128906 18.492188 28.230469 C 18.597656 28.359375 18.601562 28.511719 18.496094 28.640625 C 18.429688 28.722656 18.371094 28.742188 18.148438 28.769531 C 18.003906 28.785156 17.832031 28.800781 17.769531 28.800781 L 17.65625 28.800781 L 17.632812 28.488281 M 17.570312 27.097656 C 17.5625 27.023438 17.550781 26.894531 17.550781 26.8125 L 17.550781 26.664062 L 17.804688 26.644531 C 18.214844 26.617188 18.367188 26.691406 18.367188 26.929688 C 18.367188 27.152344 18.214844 27.238281 17.8125 27.238281 L 17.597656 27.238281 L 17.574219 27.097656 M 15.816406 24.042969 C 15.621094 23.972656 15.410156 23.78125 15.296875 23.5625 C 15.019531 23.039062 14.949219 21.867188 15.164062 21.28125 C 15.316406 20.867188 15.648438 20.613281 16.082031 20.578125 C 16.683594 20.523438 17.09375 20.851562 17.277344 21.53125 C 17.355469 21.824219 17.390625 22.730469 17.335938 23.0625 C 17.21875 23.753906 16.839844 24.101562 16.21875 24.09375 C 16.078125 24.09375 15.894531 24.066406 15.8125 24.039062 M 24.691406 29.382812 C 24.765625 29.351562 24.773438 29.328125 24.769531 29.066406 C 24.769531 28.910156 24.75 28.488281 24.734375 28.128906 C 24.714844 27.773438 24.703125 27.472656 24.710938 27.464844 C 24.71875 27.457031 25.019531 27.871094 25.378906 28.386719 L 26.03125 29.320312 L 26.402344 29.296875 C 26.605469 29.28125 26.839844 29.273438 26.921875 29.273438 C 27.214844 29.273438 27.203125 29.40625 27.101562 27.394531 C 27.054688 26.414062 27.015625 25.53125 27.015625 25.4375 C 27.015625 25.191406 26.953125 25.148438 26.679688 25.167969 C 26.5625 25.179688 26.324219 25.195312 26.152344 25.207031 C 25.925781 25.226562 25.839844 25.242188 25.824219 25.285156 C 25.804688 25.332031 25.847656 26.449219 25.890625 27.019531 C 25.898438 27.113281 25.890625 27.179688 25.878906 27.175781 C 25.859375 27.164062 25.5625 26.746094 25.21875 26.242188 C 24.867188 25.738281 24.566406 25.316406 24.546875 25.308594 C 24.46875 25.277344 23.488281 25.355469 23.449219 25.398438 C 23.394531 25.460938 23.585938 29.386719 23.644531 29.429688 C 23.699219 29.464844 24.585938 29.421875 24.695312 29.382812 M 29.59375 29.109375 C 29.65625 29.085938 29.65625 29.042969 29.578125 27.441406 C 29.539062 26.738281 29.511719 26.160156 29.515625 26.15625 C 29.519531 26.152344 29.757812 26.136719 30.039062 26.117188 C 30.339844 26.101562 30.585938 26.070312 30.605469 26.042969 C 30.632812 26.015625 30.636719 25.859375 30.609375 25.5 L 30.578125 24.996094 L 30.3125 24.972656 C 30.167969 24.964844 30.097656 24.949219 30.15625 24.945312 C 30.371094 24.933594 30.945312 24.761719 31.222656 24.628906 C 31.5 24.5 32.175781 24.054688 32.410156 23.855469 L 32.535156 23.746094 L 32.472656 22.382812 C 32.433594 21.632812 32.398438 20.992188 32.394531 20.960938 C 32.382812 20.925781 32.351562 20.890625 32.316406 20.886719 C 32.195312 20.859375 29.484375 21.035156 29.453125 21.070312 C 29.410156 21.117188 29.476562 22.453125 29.523438 22.511719 C 29.546875 22.53125 29.761719 22.53125 30.121094 22.511719 C 30.4375 22.488281 30.691406 22.484375 30.703125 22.488281 C 30.714844 22.492188 30.722656 22.609375 30.722656 22.746094 L 30.726562 22.988281 L 30.460938 23.144531 C 30.113281 23.347656 29.882812 23.414062 29.535156 23.414062 C 28.695312 23.421875 28.285156 22.863281 28.230469 21.621094 C 28.195312 20.84375 28.3125 20.390625 28.636719 20.050781 C 28.847656 19.820312 29.089844 19.730469 29.433594 19.730469 C 29.574219 19.730469 29.75 19.746094 29.824219 19.773438 C 30.015625 19.828125 30.222656 20.023438 30.316406 20.222656 C 30.382812 20.355469 30.414062 20.386719 30.488281 20.386719 C 30.546875 20.386719 30.953125 20.285156 31.40625 20.171875 L 32.222656 19.960938 L 32.21875 19.816406 C 32.21875 19.730469 32.164062 19.5625 32.085938 19.398438 C 31.742188 18.675781 31.199219 18.273438 30.425781 18.15625 C 30.019531 18.097656 29.019531 18.136719 28.589844 18.226562 C 27.179688 18.53125 26.359375 19.589844 26.238281 21.257812 C 26.214844 21.605469 26.203125 21.496094 26.136719 20.082031 C 26.085938 19.042969 26.046875 18.507812 26.019531 18.480469 C 25.988281 18.445312 25.695312 18.449219 24.808594 18.5 C 24.167969 18.535156 23.617188 18.570312 23.582031 18.582031 C 23.503906 18.601562 23.542969 18.421875 23.160156 20.507812 C 22.980469 21.472656 22.835938 22.273438 22.832031 22.289062 C 22.824219 22.304688 22.59375 21.511719 22.308594 20.527344 C 21.972656 19.359375 21.777344 18.726562 21.742188 18.707031 C 21.671875 18.671875 19.316406 18.804688 19.273438 18.847656 C 19.242188 18.878906 19.511719 25.050781 19.554688 25.332031 L 19.574219 25.457031 L 20.148438 25.429688 C 20.914062 25.398438 21.160156 25.371094 21.179688 25.320312 C 21.1875 25.296875 21.148438 24.328125 21.09375 23.171875 C 21.03125 22.011719 20.992188 21.054688 21.003906 21.046875 C 21.011719 21.039062 21.03125 21.113281 21.058594 21.203125 C 21.160156 21.644531 22.210938 25.253906 22.238281 25.28125 C 22.253906 25.300781 22.550781 25.300781 22.953125 25.273438 C 23.476562 25.242188 23.648438 25.222656 23.675781 25.183594 C 23.699219 25.15625 23.890625 24.171875 24.101562 23.015625 C 24.3125 21.851562 24.5 20.90625 24.503906 20.914062 C 24.511719 20.921875 24.566406 21.867188 24.617188 23.015625 C 24.679688 24.222656 24.734375 25.117188 24.757812 25.136719 C 24.800781 25.179688 26.289062 25.105469 26.335938 25.054688 C 26.355469 25.039062 26.332031 24.320312 26.292969 23.453125 C 26.25 22.589844 26.21875 21.851562 26.230469 21.816406 C 26.242188 21.78125 26.25 21.828125 26.253906 21.917969 C 26.261719 22.367188 26.425781 22.996094 26.644531 23.445312 C 27.101562 24.382812 27.800781 24.867188 28.867188 24.992188 L 29.261719 25.039062 L 28.335938 25.085938 C 27.824219 25.117188 27.339844 25.148438 27.25 25.160156 L 27.09375 25.179688 L 27.097656 25.6875 C 27.105469 26.042969 27.121094 26.207031 27.152344 26.238281 C 27.1875 26.273438 27.320312 26.273438 27.714844 26.25 C 27.996094 26.230469 28.234375 26.222656 28.238281 26.226562 C 28.242188 26.234375 28.277344 26.882812 28.316406 27.667969 C 28.355469 28.453125 28.398438 29.117188 28.414062 29.136719 C 28.433594 29.164062 28.597656 29.171875 28.988281 29.152344 C 29.289062 29.136719 29.5625 29.117188 29.589844 29.105469 M 33.242188 28.933594 C 33.703125 28.8125 34.035156 28.53125 34.230469 28.101562 C 34.40625 27.71875 34.421875 27.542969 34.351562 26.160156 C 34.320312 25.480469 34.28125 24.886719 34.265625 24.839844 L 34.230469 24.753906 L 33.710938 24.777344 C 33.136719 24.804688 33.074219 24.8125 33.050781 24.882812 C 33.039062 24.902344 33.054688 25.351562 33.085938 25.871094 C 33.164062 27.570312 33.15625 27.703125 32.90625 27.859375 C 32.761719 27.949219 32.453125 27.953125 32.308594 27.867188 C 32.089844 27.734375 32.074219 27.636719 32.011719 26.269531 C 31.976562 25.589844 31.941406 25 31.933594 24.964844 C 31.914062 24.894531 31.882812 24.894531 31.34375 24.917969 C 31.03125 24.929688 30.757812 24.949219 30.742188 24.960938 C 30.667969 25.003906 30.777344 27.421875 30.871094 27.808594 C 31.035156 28.476562 31.460938 28.894531 32.070312 28.984375 C 32.367188 29.027344 32.992188 29.003906 33.246094 28.933594 M 35.394531 28.78125 C 35.535156 28.773438 35.664062 28.742188 35.675781 28.722656 C 35.710938 28.664062 35.6875 27.867188 35.644531 27.753906 L 35.609375 27.664062 L 35.105469 27.6875 C 34.773438 27.703125 34.585938 27.726562 34.558594 27.757812 C 34.492188 27.824219 34.546875 28.757812 34.613281 28.804688 C 34.65625 28.832031 34.828125 28.828125 35.390625 28.78125 M 35.441406 27.507812 C 35.546875 27.398438 35.625 24.824219 35.523438 24.722656 C 35.460938 24.660156 34.457031 24.714844 34.386719 24.78125 C 34.308594 24.863281 34.355469 25.492188 34.515625 26.527344 C 34.59375 27.027344 34.660156 27.46875 34.675781 27.507812 C 34.691406 27.566406 34.726562 27.570312 35.046875 27.5625 C 35.238281 27.554688 35.410156 27.527344 35.4375 27.507812 M 33.808594 24.652344 C 34.136719 24.632812 34.421875 24.605469 34.449219 24.589844 C 34.476562 24.574219 34.484375 24.386719 34.464844 23.886719 C 34.4375 23.046875 34.417969 22.910156 34.339844 22.890625 C 34.308594 22.882812 33.957031 22.898438 33.554688 22.921875 C 33.15625 22.945312 32.789062 22.96875 32.75 22.96875 C 32.707031 22.96875 32.664062 22.996094 32.652344 23.027344 C 32.640625 23.0625 32.648438 23.433594 32.667969 23.859375 C 32.703125 24.460938 32.71875 24.636719 32.761719 24.671875 C 32.792969 24.695312 32.894531 24.703125 33.015625 24.695312 C 33.125 24.6875 33.488281 24.664062 33.8125 24.644531 M 33.855469 22.605469 C 34.121094 22.605469 34.105469 22.679688 34.214844 21.027344 C 34.300781 19.703125 34.304688 19.453125 34.277344 18.796875 C 34.257812 18.339844 34.226562 18.035156 34.203125 18.015625 C 34.152344 17.953125 32.476562 18.046875 32.390625 18.109375 C 32.335938 18.148438 32.335938 18.226562 32.371094 18.914062 C 32.402344 19.5625 32.445312 19.898438 32.644531 21.132812 C 32.773438 21.929688 32.890625 22.605469 32.898438 22.621094 C 32.914062 22.644531 33.054688 22.652344 33.316406 22.640625 C 33.535156 22.621094 33.777344 22.613281 33.855469 22.613281 M 33.855469 22.613281 "/>
</g>
</svg>
