<!-- color: #77547f -->
<svg xmlns="http://www.w3.org/2000/svg" xmlns:xlink="http://www.w3.org/1999/xlink" width="48px" height="48px" viewBox="0 0 48 48" version="1.1">
<g id="surface1">
<path style=" stroke:none;fill-rule:nonzero;fill:rgb(97.647059%,97.647059%,97.647059%);fill-opacity:1;" d="M 18.675781 15.289062 C 19.488281 17.679688 18.722656 20.164062 16.96875 20.832031 C 15.214844 21.5 13.132812 20.105469 12.324219 17.710938 C 11.511719 15.320312 12.277344 12.835938 14.03125 12.167969 C 15.785156 11.5 17.863281 12.894531 18.675781 15.289062 M 18.675781 15.289062 "/>
<path style=" stroke:none;fill-rule:nonzero;fill:rgb(0%,0%,0%);fill-opacity:0.301961;" d="M 12.1875 17.21875 C 12.230469 17.386719 12.265625 17.546875 12.324219 17.714844 C 13.136719 20.105469 15.214844 21.503906 16.96875 20.835938 C 18.722656 20.164062 19.488281 17.683594 18.675781 15.289062 C 18.621094 15.121094 18.554688 14.972656 18.484375 14.816406 C 19.050781 17.050781 18.277344 19.246094 16.644531 19.867188 C 15.007812 20.492188 13.097656 19.3125 12.1875 17.214844 M 12.1875 17.214844 "/>
<path style=" stroke:none;fill-rule:nonzero;fill:rgb(45.882353%,30.588235%,47.45098%);fill-opacity:1;" d="M 17.882812 16.324219 C 18.15625 17 18.035156 17.777344 17.570312 18.34375 C 17.101562 18.90625 16.363281 19.171875 15.644531 19.035156 C 14.925781 18.894531 14.339844 18.375 14.117188 17.675781 C 13.84375 16.996094 13.964844 16.222656 14.429688 15.65625 C 14.894531 15.089844 15.632812 14.824219 16.355469 14.964844 C 17.074219 15.101562 17.660156 15.625 17.882812 16.324219 M 17.882812 16.324219 "/>
<path style=" stroke:none;fill-rule:nonzero;fill:rgb(17.647059%,17.647059%,17.647059%);fill-opacity:1;" d="M 16.941406 16.660156 C 17.078125 17 17.019531 17.386719 16.785156 17.671875 C 16.550781 17.953125 16.183594 18.085938 15.824219 18.015625 C 15.460938 17.949219 15.167969 17.6875 15.058594 17.335938 C 14.921875 17 14.980469 16.609375 15.214844 16.324219 C 15.449219 16.046875 15.816406 15.910156 16.175781 15.976562 C 16.539062 16.046875 16.832031 16.308594 16.941406 16.65625 M 16.941406 16.65625 "/>
<path style=" stroke:none;fill-rule:nonzero;fill:rgb(97.647059%,97.647059%,97.647059%);fill-opacity:1;" d="M 16.890625 17.050781 C 16.960938 17.21875 16.929688 17.414062 16.8125 17.554688 C 16.695312 17.695312 16.511719 17.761719 16.332031 17.726562 C 16.152344 17.691406 16.007812 17.5625 15.949219 17.386719 C 15.882812 17.21875 15.914062 17.023438 16.027344 16.882812 C 16.144531 16.742188 16.332031 16.675781 16.511719 16.710938 C 16.691406 16.746094 16.835938 16.875 16.890625 17.050781 M 16.890625 17.050781 "/>
<path style=" stroke:none;fill-rule:nonzero;fill:rgb(97.647059%,97.647059%,97.647059%);fill-opacity:1;" d="M 34.625 15.386719 C 35.425781 17.21875 34.90625 19.203125 33.457031 19.816406 C 32.011719 20.433594 30.183594 19.445312 29.382812 17.613281 C 28.578125 15.785156 29.101562 13.800781 30.546875 13.183594 C 31.996094 12.570312 33.820312 13.554688 34.625 15.386719 M 34.625 15.386719 "/>
<path style=" stroke:none;fill-rule:nonzero;fill:rgb(0%,0%,0%);fill-opacity:0.301961;" d="M 29.039062 15.34375 C 28.9375 16.050781 29.042969 16.859375 29.382812 17.625 C 30.1875 19.457031 32.023438 20.425781 33.472656 19.8125 C 34.582031 19.339844 35.132812 18.050781 34.972656 16.652344 C 34.835938 17.636719 34.316406 18.453125 33.472656 18.8125 C 32.027344 19.429688 30.1875 18.457031 29.382812 16.625 C 29.195312 16.195312 29.085938 15.769531 29.039062 15.34375 M 29.039062 15.34375 "/>
<path style=" stroke:none;fill-rule:nonzero;fill:rgb(45.882353%,30.588235%,47.45098%);fill-opacity:1;" d="M 33.5 16 C 33.519531 16.546875 33.238281 17.066406 32.769531 17.347656 C 32.296875 17.625 31.707031 17.625 31.234375 17.347656 C 30.761719 17.066406 30.480469 16.546875 30.503906 16 C 30.480469 15.449219 30.761719 14.933594 31.234375 14.652344 C 31.707031 14.371094 32.296875 14.371094 32.769531 14.652344 C 33.238281 14.933594 33.519531 15.449219 33.5 16 M 33.5 16 "/>
<path style=" stroke:none;fill-rule:nonzero;fill:rgb(17.647059%,17.647059%,17.647059%);fill-opacity:1;" d="M 32.75 16 C 32.761719 16.273438 32.621094 16.53125 32.386719 16.671875 C 32.148438 16.8125 31.855469 16.8125 31.617188 16.671875 C 31.382812 16.53125 31.242188 16.273438 31.253906 16 C 31.242188 15.726562 31.382812 15.46875 31.617188 15.328125 C 31.855469 15.1875 32.148438 15.1875 32.386719 15.328125 C 32.621094 15.46875 32.761719 15.726562 32.75 16 M 32.75 16 "/>
<path style=" stroke:none;fill-rule:nonzero;fill:rgb(97.647059%,97.647059%,97.647059%);fill-opacity:1;" d="M 32.617188 16.257812 C 32.625 16.394531 32.554688 16.523438 32.4375 16.59375 C 32.316406 16.664062 32.171875 16.664062 32.050781 16.59375 C 31.933594 16.523438 31.863281 16.394531 31.871094 16.257812 C 31.863281 16.121094 31.933594 15.992188 32.050781 15.921875 C 32.171875 15.851562 32.316406 15.851562 32.4375 15.921875 C 32.554688 15.992188 32.625 16.121094 32.617188 16.257812 M 32.617188 16.257812 "/>
<path style=" stroke:none;fill-rule:nonzero;fill:rgb(87.058824%,43.137255%,0%);fill-opacity:1;" d="M 28.199219 26.199219 C 27.25 29.707031 26.542969 31 24.003906 31 C 21.300781 31 20.050781 29.53125 19.808594 26.199219 C 22.820312 25.324219 25.128906 25.292969 28.199219 26.199219 M 28.199219 26.199219 "/>
<path style=" stroke:none;fill-rule:nonzero;fill:rgb(100%,78.431373%,58.039216%);fill-opacity:1;" d="M 19 25.984375 C 19 25.984375 19.113281 24.34375 21.066406 22.574219 C 23.019531 20.804688 23.824219 20.980469 24.164062 21.027344 C 24.1875 23.046875 24.03125 28.894531 24 31 C 22.390625 30.164062 20.757812 26.875 19 25.988281 M 19 25.984375 "/>
<path style=" stroke:none;fill-rule:nonzero;fill:rgb(92.156863%,58.431373%,24.705882%);fill-opacity:1;" d="M 24.179688 20.996094 C 24.640625 21.011719 25.464844 21.246094 26.929688 22.570312 C 28.878906 24.339844 28.996094 25.984375 28.996094 25.984375 C 27.363281 26.804688 25.605469 30.160156 23.996094 30.992188 C 23.953125 28.871094 23.953125 23.132812 23.953125 21.015625 C 24.015625 21.007812 24.089844 20.992188 24.179688 20.992188 M 24.179688 20.992188 "/>
</g>
</svg>
