<!-- color: #e5b135 -->
<svg xmlns="http://www.w3.org/2000/svg" xmlns:xlink="http://www.w3.org/1999/xlink" width="48px" height="48px" viewBox="0 0 48 48" version="1.1">
<g id="surface1">
<path style=" stroke:none;fill-rule:nonzero;fill:rgb(17.647059%,17.647059%,17.647059%);fill-opacity:1;" d="M 18 24 C 14.6875 24 12 26.6875 12 30 C 12 33.3125 14.6875 36 18 36 C 21.3125 36 24 33.3125 24 30 L 18 30 M 18 24 "/>
<path style=" stroke:none;fill-rule:nonzero;fill:rgb(17.647059%,17.647059%,17.647059%);fill-opacity:1;" d="M 25.019531 29 L 26.019531 29 L 26.019531 29.996094 L 25.019531 29.996094 M 25.019531 29 "/>
<path style=" stroke:none;fill-rule:nonzero;fill:rgb(17.647059%,17.647059%,17.647059%);fill-opacity:1;" d="M 19 27 L 20 27 L 20 29 L 19 29 M 19 27 "/>
<path style=" stroke:none;fill-rule:nonzero;fill:rgb(17.647059%,17.647059%,17.647059%);fill-opacity:1;" d="M 21 28 L 21 27 L 23 27 L 23 28 M 21 28 "/>
<path style=" stroke:none;fill-rule:nonzero;fill:rgb(17.647059%,17.647059%,17.647059%);fill-opacity:1;" d="M 34 24 L 35 24 L 35 24.996094 L 34 24.996094 M 34 24 "/>
<path style=" stroke:none;fill-rule:nonzero;fill:rgb(17.647059%,17.647059%,17.647059%);fill-opacity:1;" d="M 20 16 L 20.996094 16 L 20.996094 17 L 20 17 M 20 16 "/>
<path style=" stroke:none;fill-rule:nonzero;fill:rgb(17.647059%,17.647059%,17.647059%);fill-opacity:1;" d="M 19 24 L 20 24 L 20 24.996094 L 19 24.996094 M 19 24 "/>
<path style=" stroke:none;fill-rule:nonzero;fill:rgb(17.647059%,17.647059%,17.647059%);fill-opacity:1;" d="M 29 16 L 29.996094 16 L 29.996094 17 L 29 17 M 29 16 "/>
<path style=" stroke:none;fill-rule:nonzero;fill:rgb(17.647059%,17.647059%,17.647059%);fill-opacity:1;" d="M 25.019531 19 L 25.019531 18 L 27.019531 18 L 27.019531 19 M 25.019531 19 "/>
<path style=" stroke:none;fill-rule:nonzero;fill:rgb(17.647059%,17.647059%,17.647059%);fill-opacity:1;" d="M 22 19 L 23 19 L 23 20.996094 L 22 20.996094 M 22 19 "/>
<path style=" stroke:none;fill-rule:nonzero;fill:rgb(17.647059%,17.647059%,17.647059%);fill-opacity:1;" d="M 21 23 L 21 24 L 22 24 L 22 25 L 23 25 L 23 23 M 21 23 "/>
<path style=" stroke:none;fill-rule:nonzero;fill:rgb(17.647059%,17.647059%,17.647059%);fill-opacity:1;" d="M 26 26 L 25 26 L 25 27 L 24.003906 27 L 24.003906 28 L 26 28 M 26 26 "/>
<path style=" stroke:none;fill-rule:nonzero;fill:rgb(17.647059%,17.647059%,17.647059%);fill-opacity:1;" d="M 28 24 L 28 24.996094 L 29 24.996094 L 29 25.996094 L 29.996094 25.996094 L 29.996094 24 M 28 24 "/>
<path style=" stroke:none;fill-rule:nonzero;fill:rgb(17.647059%,17.647059%,17.647059%);fill-opacity:1;" d="M 26 21 L 26 22 L 25 22 L 25 23 L 26 23 L 26 24 L 27 24 L 27 21 M 26 21 "/>
<path style=" stroke:none;fill-rule:nonzero;fill:rgb(17.647059%,17.647059%,17.647059%);fill-opacity:1;" d="M 19 20 L 20 20 L 20 19 L 20.996094 19 L 20.996094 18 L 19 18 M 19 20 "/>
<path style=" stroke:none;fill-rule:nonzero;fill:rgb(17.647059%,17.647059%,17.647059%);fill-opacity:1;" d="M 27 15 L 27 14.003906 L 30 14.003906 L 30 15 M 27 15 "/>
<path style=" stroke:none;fill-rule:nonzero;fill:rgb(17.647059%,17.647059%,17.647059%);fill-opacity:1;" d="M 28 13.988281 L 28 12.988281 L 29 12.988281 L 29 13.988281 M 28 13.988281 "/>
<path style=" stroke:none;fill-rule:nonzero;fill:rgb(17.647059%,17.647059%,17.647059%);fill-opacity:1;" d="M 31 22 L 32 22 L 32 23 L 31 23 M 31 22 "/>
<path style=" stroke:none;fill-rule:nonzero;fill:rgb(17.647059%,17.647059%,17.647059%);fill-opacity:1;" d="M 35 21 L 35 20.003906 L 34 20.003906 L 34 19.003906 L 33.003906 19.003906 L 33.003906 21 M 35 21 "/>
<path style=" stroke:none;fill-rule:nonzero;fill:rgb(17.647059%,17.647059%,17.647059%);fill-opacity:1;" d="M 25.019531 13 L 26.019531 13 L 26.019531 15 L 25.019531 15 M 25.019531 13 "/>
<path style=" stroke:none;fill-rule:nonzero;fill:rgb(17.647059%,17.647059%,17.647059%);fill-opacity:1;" d="M 22 16 L 22 15.003906 L 24 15.003906 L 24 16 M 22 16 "/>
<path style=" stroke:none;fill-rule:nonzero;fill:rgb(17.647059%,17.647059%,17.647059%);fill-opacity:1;" d="M 31.996094 13 L 32.996094 13 L 32.996094 14 L 31.996094 14 M 31.996094 13 "/>
<path style=" stroke:none;fill-rule:nonzero;fill:rgb(17.647059%,17.647059%,17.647059%);fill-opacity:1;" d="M 31 20 L 30 20 L 30 19 L 29.003906 19 L 29.003906 20 L 28.003906 20 L 28.003906 20.996094 L 31.003906 20.996094 L 31.003906 20 M 31 20 "/>
<path style=" stroke:none;fill-rule:nonzero;fill:rgb(17.647059%,17.647059%,17.647059%);fill-opacity:1;" d="M 33 18 L 33 17 L 34.996094 17 L 34.996094 18 M 33 18 "/>
</g>
</svg>
