<!-- color: #4879a5 -->
<svg xmlns="http://www.w3.org/2000/svg" xmlns:xlink="http://www.w3.org/1999/xlink" width="48px" height="48px" viewBox="0 0 48 48" version="1.1">
<g id="surface1">
<path style=" stroke:none;fill-rule:nonzero;fill:rgb(97.647059%,97.647059%,97.647059%);fill-opacity:1;" d="M 27.796875 12 L 24.171875 13.34375 C 17.050781 15.441406 12 20 14 27 L 17 23 C 15.007812 17.90625 20 16 24.171875 14.5 C 22.773438 20.777344 20.726562 29.0625 19.203125 34.339844 L 13.484375 34.339844 L 11.832031 35.996094 L 14.644531 35.996094 C 20.046875 36.089844 25.859375 35.957031 29.050781 34.027344 C 26.8125 34.265625 25.851562 34.300781 22.332031 34.339844 C 22.9375 31.65625 23.679688 28.414062 24.207031 26.433594 C 26.847656 26.273438 29.046875 25.628906 31.488281 24.308594 C 39.003906 19.996094 36.433594 13.011719 29.332031 12.933594 C 28.929688 12.933594 28.46875 12.953125 27.550781 12.996094 M 26.953125 15.40625 L 33.964844 19.40625 L 24.953125 23.40625 M 26.949219 15.40625 "/>
</g>
</svg>
