<!-- color: #77c9e2 --><svg xmlns="http://www.w3.org/2000/svg" viewBox="0 0 48 48"><g><path d="m 15 14 l 12 -0.004 l 0 14 l -12 0 m 0 -14" fill="#e0493d" stroke="none" fill-rule="nonzero" fill-opacity="1"/><path d="m 27 14 l -1.074 0 l -10.926 8.754 l 0 5.25 l 12 0 m 0 -14" fill="#000" stroke="none" fill-rule="nonzero" fill-opacity="0.2"/><path d="m 14.5 11 c 0.828 0 1.5 0.793 1.5 1.773 l 0 22.453 c 0 0.98 -0.672 1.773 -1.5 1.773 c -0.828 0 -1.5 -0.793 -1.5 -1.773 l 0 -22.453 c 0 -0.98 0.672 -1.773 1.5 -1.773 m 0 0" fill="#fbb33c" stroke="none" fill-rule="nonzero" fill-opacity="1"/><path d="m 25 13 l 0.07 13.996 l 11.93 0.004 l -6.125 -8 l 6.125 -6 m -12 0" fill="#e0493d" stroke="none" fill-rule="nonzero" fill-opacity="1"/></g></svg>