<!-- color: #27c1f0 --><svg xmlns="http://www.w3.org/2000/svg" viewBox="0 0 48 48"><g><path d="m 36.5 20 c 0 4.695 -3.805 8.5 -8.5 8.5 c -4.699 0 -8.504 -3.805 -8.5 -8.5 c -0.004 -4.691 3.801 -8.5 8.5 -8.5 c 4.695 0 8.5 3.809 8.5 8.5 m 0 0" fill="#1ab3ed" stroke="none" fill-rule="nonzero" fill-opacity="1"/><path d="m 27.988 11 c -2.313 0 -4.602 0.887 -6.355 2.641 c -3.512 3.508 -3.512 9.223 0 12.73 c 3.508 3.504 9.227 3.504 12.734 0 c 3.512 -3.508 3.512 -9.223 0 -12.73 c -1.758 -1.754 -4.078 -2.641 -6.383 -2.641 m 0 1.48 c 1.922 0 3.84 0.727 5.313 2.199 c 2.941 2.941 2.941 7.68 0 10.617 c -2.941 2.941 -7.684 2.941 -10.629 0 c -2.941 -2.938 -2.941 -7.676 0 -10.617 c 1.473 -1.473 3.391 -2.199 5.316 -2.199 m 0 0" fill="#f9f9f9" stroke="none" fill-rule="nonzero" fill-opacity="1"/><path d="m 17.879 32.27 l -2.145 -2.145 l -4.734 4.734 l 2.145 2.145 m 4.734 -4.734" fill="#284c5a" stroke="none" fill-rule="nonzero" fill-opacity="1"/><path d="m 22.422 27.07 l -1.504 -1.504 l -4.734 4.734 l 1.504 1.504 m 4.734 -4.734" fill="#ffbb9d" stroke="none" fill-rule="nonzero" fill-opacity="1"/><path d="m 35 20 c 0 3.867 -3.133 7 -7 7 c -3.871 0 -7 -3.133 -7 -7 c -0.004 -3.863 3.129 -7 7 -7 c 3.867 0 7 3.137 7 7 m 0 0" fill="#70caef" stroke="none" fill-rule="nonzero" fill-opacity="1"/><path d="m 29.906 14.313 l -0.969 2.875 c 1.188 0.398 2.063 1.492 2.063 2.813 c 0 0.176 -0.035 0.332 -0.063 0.5 l 2.969 0.5 c 0.055 -0.324 0.094 -0.66 0.094 -1 c 0 -2.648 -1.715 -4.891 -4.094 -5.688 m 0 0" fill="#9fd8f5" stroke="none" fill-rule="nonzero" fill-opacity="1"/></g></svg>