<!-- color: #9d3c70 -->
<svg xmlns="http://www.w3.org/2000/svg" xmlns:xlink="http://www.w3.org/1999/xlink" width="48px" height="48px" viewBox="0 0 48 48" version="1.1">
<g id="surface1">
<path style=" stroke:none;fill-rule:nonzero;fill:rgb(97.647059%,97.647059%,97.647059%);fill-opacity:1;" d="M 24 9 C 15.714844 9 9 15.714844 9 24 C 9 32.285156 15.714844 39 24 39 C 32.285156 39 39 32.285156 39 24 C 39 15.714844 32.285156 9 24 9 M 24 11.636719 C 30.816406 11.636719 36.363281 17.183594 36.363281 24 C 36.363281 30.820312 30.816406 36.363281 24 36.363281 C 17.179688 36.363281 11.636719 30.816406 11.636719 24 C 11.636719 17.183594 17.179688 11.636719 24 11.636719 M 24 13.628906 C 18.261719 13.628906 13.628906 18.261719 13.628906 24 C 13.628906 29.738281 18.261719 34.371094 24 34.371094 C 29.738281 34.371094 34.371094 29.738281 34.371094 24 C 34.371094 18.261719 29.738281 13.628906 24 13.628906 M 24 13.628906 "/>
</g>
</svg>
