<!-- color: #efdc45 --><svg xmlns="http://www.w3.org/2000/svg" viewBox="0 0 48 48"><g><path d="m 12.773 11 l 22.453 0 c 0.984 0 1.773 0.789 1.773 1.773 l 0 15.227 l -13 2 l -13 -2 l 0 -15.227 c 0 -0.984 0.789 -1.773 1.773 -1.773 m 0 0" fill="#566973" stroke="none" fill-rule="nonzero" fill-opacity="1"/><path d="m 21 31 c 0 3 0 3 -2 5 l 5 1 l 5 -1 c -2 -2 -2 -2 -2 -5 l -3 -3 m -3 3" fill="#9b9fa4" stroke="none" fill-rule="nonzero" fill-opacity="1"/><path d="m 17 36 l 14 0 l 0 1 l -14 0 m 0 -1" fill="#dddfe2" stroke="none" fill-rule="nonzero" fill-opacity="1"/><path d="m 11 28 l 26 0 l 0 3 l -26 0 m 0 -3" fill="#dddfe2" stroke="none" fill-rule="nonzero" fill-opacity="1"/><path d="m 13 13 l 22 0 l 0 13 l -22 0 m 0 -13" fill="#27a9e0" stroke="none" fill-rule="nonzero" fill-opacity="1"/><path d="m 13 13 l 0 5.219 c 0.461 0.188 0.973 0.281 1.5 0.281 c 2.211 0 4 -1.789 4 -4 c 0 -0.527 -0.094 -1.039 -0.281 -1.5 m -5.219 0" fill="#fff" stroke="none" fill-rule="nonzero" fill-opacity="0.2"/><path d="m 21 29 l 6 0 l 0 1 l -6 0 m 0 -1" fill="#566973" stroke="none" fill-rule="nonzero" fill-opacity="1"/><path d="m 18 20 l -5 2.898 l 0 3.102 l 11.1 0 l 0 -2.102 m -6.102 -3.898" fill="#ddb842" stroke="none" fill-rule="nonzero" fill-opacity="1"/><path d="m 18 20 l 1 3 l -2 1.5 l 1.102 1.5 l 6 0 l 0 -2.102 m -6.102 -3.898" fill="#fcdb52" stroke="none" fill-rule="nonzero" fill-opacity="1"/><path d="m 29 17 l -9 9 l 15 0 l 0 -5.445 m -6 -3.555" fill="#ddb842" stroke="none" fill-rule="nonzero" fill-opacity="1"/><path d="m 29 17 l 1.5 3 l -1.5 3.398 l 1.781 2.602 l 4.219 0 l 0 -5.445 m -6 -3.555" fill="#fcdb52" stroke="none" fill-rule="nonzero" fill-opacity="1"/><path d="m 13 13 l 0 3.813 c 0.316 0.113 0.645 0.188 1 0.188 c 1.656 0 3 -1.344 3 -3 c 0 -0.355 -0.074 -0.684 -0.188 -1 m -3.813 0" fill="#f9ec31" stroke="none" fill-rule="nonzero" fill-opacity="1"/></g></svg>