<!-- color: #eeeeee -->
<svg xmlns="http://www.w3.org/2000/svg" xmlns:xlink="http://www.w3.org/1999/xlink" width="48px" height="48px" viewBox="0 0 48 48" version="1.1">
<g id="surface1">
<path style=" stroke:none;fill-rule:nonzero;fill:rgb(95.294118%,94.901961%,51.764706%);fill-opacity:1;" d="M 48 14.128906 L 34.96875 19.160156 C 35.621094 20.640625 36 22.277344 36 24.003906 C 36 28.222656 33.839844 31.929688 30.5625 34.0625 L 39.15625 48.003906 L 48 48.003906 M 48 14.128906 "/>
<path style=" stroke:none;fill-rule:nonzero;fill:rgb(60.392157%,72.54902%,86.666667%);fill-opacity:1;" d="M 0 5.59375 L 0 48.003906 L 15.59375 48.003906 L 24.21875 36.003906 C 24.144531 36.003906 24.074219 36.003906 24 36.003906 C 17.351562 36.003906 12 30.652344 12 24.003906 C 12 18.453125 15.742188 13.824219 20.84375 12.441406 L 0 5.597656 M 33.4375 16.5625 C 34.324219 17.6875 34.996094 18.972656 35.4375 20.375 L 37.28125 17.8125 M 33.4375 16.5625 "/>
<path style=" stroke:none;fill-rule:nonzero;fill:rgb(60.392157%,86.666667%,61.568627%);fill-opacity:1;" d="M 16.9375 33.71875 L 6.5625 48 L 41.4375 48 L 31.0625 33.71875 C 29.085938 35.15625 26.644531 36 24.003906 36 C 21.359375 36 18.917969 35.15625 16.941406 33.71875 M 16.9375 33.71875 "/>
<path style=" stroke:none;fill-rule:nonzero;fill:rgb(93.333333%,72.54902%,40.784314%);fill-opacity:1;" d="M 23.96875 0 L 24 12 C 29.355469 12 33.886719 15.453125 35.4375 20.28125 L 48 16.21875 L 48 0 M 23.972656 0 "/>
<path style=" stroke:none;fill-rule:nonzero;fill:rgb(93.333333%,55.686275%,40.784314%);fill-opacity:1;" d="M 0 0 L 0 16.21875 L 12.5625 20.28125 C 14.117188 15.457031 18.644531 12 24 12 L 24 0 M 0 0 "/>
</g>
</svg>
