<!-- color: #eeeeee -->
<svg xmlns="http://www.w3.org/2000/svg" xmlns:xlink="http://www.w3.org/1999/xlink" width="48px" height="48px" viewBox="0 0 48 48" version="1.1">
<g id="surface1">
<path style=" stroke:none;fill-rule:evenodd;fill:rgb(80.392157%,29.803922%,29.803922%);fill-opacity:1;" d="M 12 12 C 12 20.078125 12 28.898438 12 36 L 36 36 C 36 12 36 21.757812 36 12 M 12 12 "/>
<path style=" stroke:none;fill-rule:evenodd;fill:rgb(97.647059%,97.647059%,97.647059%);fill-opacity:1;" d="M 13 31 C 13 32.347656 13 33.816406 13 35 L 35 35 C 35 31 35 32.625 35 31 M 13 31 "/>
<path style=" stroke:none;fill-rule:evenodd;fill:rgb(78.431373%,14.901961%,14.901961%);fill-opacity:1;" d="M 12 12 C 12 18.058594 12 24.671875 12 30 L 36 30 C 36 12 36 19.300781 36 12 M 12 12 "/>
<path style=" stroke:none;fill-rule:evenodd;fill:rgb(89.803922%,89.803922%,89.803922%);fill-opacity:1;" d="M 13 31.996094 C 13 32.332031 13 32.703125 13 32.996094 L 35 32.996094 C 35 31.996094 35 32.398438 35 31.996094 M 13 31.996094 "/>
<path style=" stroke:none;fill-rule:evenodd;fill:rgb(89.803922%,89.803922%,89.803922%);fill-opacity:1;" d="M 13 34 C 13 34.339844 13 34.707031 13 35 L 35 35 C 35 34 35 34.40625 35 34 M 13 34 "/>
<path style=" stroke:none;fill-rule:nonzero;fill:rgb(100%,60%,20%);fill-opacity:1;" d="M 17.839844 23.230469 L 29.445312 15.8125 L 31.597656 19.183594 L 19.996094 26.601562 M 17.839844 23.230469 "/>
<path style=" stroke:none;fill-rule:nonzero;fill:rgb(100%,17.647059%,36.078431%);fill-opacity:1;" d="M 28.820312 16.203125 L 30.976562 19.574219 L 33.03125 18.257812 C 33.03125 18.257812 33.332031 17.679688 32.429688 16.269531 C 31.558594 14.910156 30.824219 14.921875 30.824219 14.921875 L 28.824219 16.199219 M 28.824219 16.203125 "/>
<path style=" stroke:none;fill-rule:nonzero;fill:rgb(100%,75.686275%,23.921569%);fill-opacity:1;" d="M 17.859375 23.210938 L 15.566406 27.054688 L 20.011719 26.582031 M 17.859375 23.210938 "/>
<path style=" stroke:none;fill-rule:nonzero;fill:rgb(17.647059%,17.647059%,17.647059%);fill-opacity:1;" d="M 16.714844 25.109375 L 15.578125 27.046875 L 17.808594 26.824219 M 16.714844 25.109375 "/>
</g>
</svg>
