<!-- color: #acd454 -->
<svg xmlns="http://www.w3.org/2000/svg" xmlns:xlink="http://www.w3.org/1999/xlink" width="48px" height="48px" viewBox="0 0 48 48" version="1.1">
<g id="surface1">
<path style=" stroke:none;fill-rule:nonzero;fill:rgb(97.647059%,97.647059%,97.647059%);fill-opacity:1;" d="M 19 17 L 19 37 L 33.996094 27 M 19 17 "/>
<path style=" stroke:none;fill-rule:evenodd;fill:rgb(17.647059%,17.647059%,17.647059%);fill-opacity:1;" d="M 0 0 L 0 13 L 48 13 L 48 0 M 0 0 "/>
<path style=" stroke:none;fill-rule:evenodd;fill:rgb(97.647059%,97.647059%,97.647059%);fill-opacity:1;" d="M 17.355469 6.882812 L 18.609375 8.921875 L 17.355469 10.960938 L 14.851562 10.960938 L 16.105469 8.921875 L 14.851562 6.882812 M 17.355469 6.882812 "/>
<path style=" stroke:none;fill-rule:evenodd;fill:rgb(97.647059%,97.647059%,97.647059%);fill-opacity:1;" d="M 22.3125 6.882812 L 23.566406 8.921875 L 22.3125 10.960938 L 19.808594 10.960938 L 21.0625 8.921875 L 19.808594 6.882812 M 22.3125 6.882812 "/>
<path style=" stroke:none;fill-rule:evenodd;fill:rgb(97.647059%,97.647059%,97.647059%);fill-opacity:1;" d="M 27.109375 6.882812 L 28.363281 8.921875 L 27.109375 10.960938 L 24.605469 10.960938 L 25.859375 8.921875 L 24.605469 6.882812 M 27.109375 6.882812 "/>
<path style=" stroke:none;fill-rule:evenodd;fill:rgb(97.647059%,97.647059%,97.647059%);fill-opacity:1;" d="M 31.925781 6.882812 L 33.179688 8.921875 L 31.925781 10.960938 L 29.421875 10.960938 L 30.675781 8.921875 L 29.421875 6.882812 M 31.925781 6.882812 "/>
</g>
</svg>
