<!-- color: #a16e83 -->
<svg xmlns="http://www.w3.org/2000/svg" xmlns:xlink="http://www.w3.org/1999/xlink" width="48px" height="48px" viewBox="0 0 48 48" version="1.1">
<g id="surface1">
<path style=" stroke:none;fill-rule:nonzero;fill:rgb(97.647059%,97.647059%,97.647059%);fill-opacity:1;" d="M 12.804688 15 C 12.367188 15.042969 11.996094 15.457031 11.996094 15.898438 L 11.996094 32.097656 C 11.996094 32.570312 12.425781 33 12.898438 33 L 35.097656 33 C 35.566406 33 35.996094 32.570312 35.996094 32.097656 L 35.996094 15.898438 C 35.996094 15.425781 35.566406 15 35.097656 15 M 12.804688 15 "/>
<path style=" stroke:none;fill-rule:nonzero;fill:rgb(97.647059%,97.647059%,97.647059%);fill-opacity:1;" d="M 15 13 L 19 13 C 19.550781 13 20 13.449219 20 14 L 20 16 C 20 16.554688 19.550781 17 19 17 L 15 17 C 14.445312 17 14 16.554688 14 16 L 14 14 C 14 13.449219 14.445312 13 15 13 M 15 13 "/>
<path style=" stroke:none;fill-rule:nonzero;fill:rgb(89.019608%,14.901961%,14.901961%);fill-opacity:1;" d="M 32.664062 17 L 33.328125 17 C 33.695312 17 33.996094 17.300781 33.996094 17.667969 L 33.996094 18.332031 C 33.996094 18.699219 33.695312 19 33.328125 19 L 32.664062 19 C 32.292969 19 31.996094 18.699219 31.996094 18.332031 L 31.996094 17.667969 C 31.996094 17.300781 32.292969 17 32.664062 17 M 32.664062 17 "/>
<path style=" stroke:none;fill-rule:nonzero;fill:rgb(87.058824%,87.058824%,87.058824%);fill-opacity:1;" d="M 28 24 C 28 27.3125 25.3125 30 22 30 C 18.683594 30 16 27.3125 16 24 C 16 20.6875 18.683594 18 22 18 C 25.3125 18 28 20.6875 28 24 M 28 24 "/>
<path style=" stroke:none;fill-rule:nonzero;fill:rgb(52.54902%,52.54902%,52.54902%);fill-opacity:1;" d="M 25 24 C 25 25.65625 23.65625 27 22 27 C 20.34375 27 19 25.65625 19 24 C 19 22.34375 20.34375 21 22 21 C 23.65625 21 25 22.34375 25 24 M 25 24 "/>
</g>
</svg>
