<!-- color: #4d9bb9 -->
<svg xmlns="http://www.w3.org/2000/svg" xmlns:xlink="http://www.w3.org/1999/xlink" width="48px" height="48px" viewBox="0 0 48 48" version="1.1">
<g id="surface1">
<path style=" stroke:none;fill-rule:nonzero;fill:rgb(97.647059%,97.647059%,97.647059%);fill-opacity:1;" d="M 11.964844 20 C 11.394531 20.027344 11 20.15625 11 20.765625 L 11 33.539062 C 11 34.347656 11.699219 34.996094 12.574219 34.996094 L 35.398438 34.996094 C 36.277344 34.996094 37 34.347656 37 33.539062 L 37 20.765625 C 37 19.953125 36.277344 20 35.398438 20 L 12.574219 20 C 12.355469 20 12.152344 19.988281 11.964844 20 M 11.964844 20 "/>
<path style=" stroke:none;fill-rule:nonzero;fill:rgb(97.647059%,97.647059%,97.647059%);fill-opacity:1;" d="M 15.050781 13.402344 L 11.800781 18 L 22.996094 18 L 22.996094 11 L 17.488281 11 C 16.675781 11 15.050781 13.402344 15.050781 13.402344 M 24.988281 11 L 24.988281 18 L 36.175781 18 L 32.925781 13.402344 C 32.925781 13.402344 31.300781 11 30.484375 11 M 24.992188 11 "/>
</g>
</svg>
