<!-- color: #3b3a3f -->
<svg xmlns="http://www.w3.org/2000/svg" xmlns:xlink="http://www.w3.org/1999/xlink" width="48px" height="48px" viewBox="0 0 48 48" version="1.1">
<g id="surface1">
<path style=" stroke:none;fill-rule:nonzero;fill:rgb(0%,80.784314%,60.784314%);fill-opacity:1;" d="M 36.410156 10.148438 C 36.34375 10.933594 35.695312 14.222656 29.691406 16.429688 C 15.96875 22.136719 22.453125 29.28125 22.453125 29.28125 C 24.265625 24.363281 25.507812 20.441406 30.40625 18.777344 C 31.40625 19.277344 31.535156 19.148438 30.785156 19.867188 C 27.773438 22.640625 26.101562 25.816406 24.347656 29.429688 C 34.019531 29.675781 36.847656 17.90625 36.40625 10.148438 M 36.410156 10.148438 "/>
<path style=" stroke:none;fill-rule:nonzero;fill:rgb(0%,80.784314%,60.784314%);fill-opacity:1;" d="M 19 35.996094 C 17 34.996094 11 23.375 11 22.996094 C 11 21.996094 14.441406 23.054688 15 23.996094 C 16.390625 25.890625 17.910156 29.949219 19 28.996094 C 20 27.996094 19.675781 26.242188 20.859375 23.789062 C 21.980469 21.007812 25.917969 19.75 22.453125 29.253906 C 19.492188 35.636719 20 35.996094 19 35.996094 M 19 35.996094 "/>
</g>
</svg>
