<!-- color: #4d4d4d -->
<svg xmlns="http://www.w3.org/2000/svg" xmlns:xlink="http://www.w3.org/1999/xlink" width="48px" height="48px" viewBox="0 0 48 48" version="1.1">
<g id="surface1">
<path style=" stroke:none;fill-rule:nonzero;fill:rgb(9.019608%,75.294118%,90.588235%);fill-opacity:1;" d="M 23 0 L 23 48 L 25 48 L 25 36.941406 C 25.15625 36.996094 25.339844 37.015625 25.59375 37.003906 C 26.03125 36.984375 26.367188 36.8125 26.625 36.472656 C 26.710938 36.359375 27.480469 34.671875 28.34375 32.722656 C 29.886719 29.238281 29.90625 29.179688 29.90625 28.847656 C 29.90625 28.445312 29.792969 28.105469 29.53125 27.847656 C 29.433594 27.75 28.507812 27.089844 27.46875 26.378906 C 26.429688 25.664062 25.546875 25.050781 25.53125 25.003906 C 25.511719 24.945312 25.960938 24.1875 26.8125 22.816406 C 27.527344 21.664062 28.144531 20.675781 28.1875 20.628906 C 28.238281 20.5625 28.296875 20.5625 28.34375 20.597656 C 28.382812 20.617188 28.660156 21.183594 28.96875 21.878906 C 29.289062 22.597656 29.601562 23.226562 29.6875 23.316406 C 29.964844 23.613281 30.09375 23.636719 32.5625 23.941406 C 34.371094 24.164062 34.925781 24.226562 35.09375 24.191406 C 35.628906 24.070312 36 23.609375 36 23.066406 C 35.996094 22.46875 35.644531 22.015625 35.0625 21.910156 C 34.964844 21.890625 34.0625 21.78125 33.09375 21.660156 C 32.113281 21.539062 31.320312 21.425781 31.3125 21.410156 C 31.289062 21.390625 30.902344 20.515625 30.4375 19.472656 C 29.96875 18.425781 29.539062 17.527344 29.496094 17.472656 C 29.390625 17.316406 27.019531 15.714844 26.808594 15.65625 C 26.578125 15.597656 25.816406 15.460938 24.992188 15.28125 L 24.992188 0.00390625 L 22.992188 0.00390625 M 30.558594 11 C 29.394531 11 28.449219 11.785156 28.277344 12.9375 C 28.097656 14.140625 28.914062 15.332031 30.09375 15.5625 C 31.65625 15.871094 33.074219 14.515625 32.84375 12.9375 C 32.671875 11.785156 31.730469 11 30.5625 11 M 24.996094 28.089844 C 25.050781 28.125 25.074219 28.152344 25.121094 28.183594 C 26.296875 28.988281 26.6875 29.292969 26.6875 29.371094 C 26.6875 29.429688 26.140625 30.761719 25.4375 32.339844 C 25.246094 32.769531 25.140625 33.019531 24.996094 33.339844 M 24.996094 28.089844 "/>
</g>
</svg>
