<!-- color: #f0f0ef -->
<svg xmlns="http://www.w3.org/2000/svg" xmlns:xlink="http://www.w3.org/1999/xlink" width="48px" height="48px" viewBox="0 0 48 48" version="1.1">
<g id="surface1">
<path style=" stroke:none;fill-rule:nonzero;fill:rgb(18.039216%,20.392157%,21.176471%);fill-opacity:1;" d="M 34.171875 26.496094 L 32.339844 26.007812 C 30.796875 25.59375 29.199219 26.511719 28.785156 28.054688 L 27.53125 32.734375 C 27.128906 34.277344 28.035156 35.867188 29.589844 36.28125 L 31.421875 36.769531 C 32.964844 37.183594 34.554688 36.269531 34.96875 34.722656 L 36.21875 30.042969 C 36.632812 28.5 35.71875 26.910156 34.171875 26.496094 M 34.171875 26.496094 "/>
<path style=" stroke:none;fill-rule:nonzero;fill:rgb(18.039216%,20.392157%,21.176471%);fill-opacity:1;" d="M 33.609375 22.867188 L 32.3125 22.519531 C 31.21875 22.226562 30.097656 22.878906 29.804688 23.96875 L 28.914062 27.28125 C 28.621094 28.375 29.273438 29.5 30.367188 29.792969 L 31.660156 30.140625 C 32.753906 30.433594 33.878906 29.785156 34.171875 28.691406 L 35.058594 25.378906 C 35.351562 24.285156 34.703125 23.160156 33.609375 22.867188 M 33.609375 22.867188 "/>
<path style=" stroke:none;fill-rule:nonzero;fill:rgb(18.039216%,20.392157%,21.176471%);fill-opacity:1;" d="M 17.171875 21.582031 L 18.46875 21.234375 C 19.5625 20.941406 20.6875 21.59375 20.980469 22.683594 L 21.867188 25.996094 C 22.160156 27.089844 21.511719 28.214844 20.417969 28.507812 L 19.121094 28.855469 C 18.027344 29.148438 16.902344 28.5 16.609375 27.40625 L 15.722656 24.09375 C 15.429688 23 16.074219 21.875 17.171875 21.582031 M 17.171875 21.582031 "/>
<path style=" stroke:none;fill-rule:nonzero;fill:rgb(7.058824%,9.803922%,10.196078%);fill-opacity:1;" d="M 28.429688 11.019531 C 25.558594 10.773438 22.625 12.894531 21.492188 16.253906 C 21.332031 16.726562 21.210938 17.210938 21.132812 17.683594 C 21.132812 17.6875 21.132812 17.691406 21.132812 17.699219 C 20.378906 18.550781 19.757812 19.566406 19.363281 20.742188 C 17.949219 24.933594 19.789062 29.335938 23.460938 30.574219 C 27.132812 31.8125 31.246094 29.425781 32.65625 25.234375 C 33.183594 23.675781 33.273438 22.085938 32.976562 20.640625 C 33.035156 20.492188 33.09375 20.347656 33.144531 20.191406 C 34.4375 16.351562 32.878906 12.351562 29.660156 11.265625 C 29.257812 11.128906 28.839844 11.054688 28.429688 11.019531 M 28.429688 11.019531 "/>
<path style=" stroke:none;fill-rule:nonzero;fill:rgb(92.54902%,92.54902%,92.54902%);fill-opacity:1;" d="M 26.511719 12.835938 C 25.550781 12.859375 24.601562 13.59375 24.210938 14.71875 C 23.875 15.695312 24.042969 16.691406 24.574219 17.339844 C 22.730469 17.960938 21.082031 19.582031 20.308594 21.816406 C 19.097656 25.308594 20.480469 28.953125 23.390625 29.960938 C 26.300781 30.972656 29.640625 28.960938 30.851562 25.46875 C 31.746094 22.882812 31.21875 20.21875 29.707031 18.59375 C 30.785156 18.804688 31.8125 18.339844 32.078125 17.480469 C 32.367188 16.542969 31.636719 15.503906 30.460938 15.136719 C 29.761719 14.921875 29.066406 14.996094 28.550781 15.289062 C 28.601562 14.214844 28.082031 13.25 27.171875 12.933594 C 26.953125 12.855469 26.738281 12.828125 26.515625 12.835938 M 27.851562 17.132812 C 27.886719 17.222656 27.929688 17.308594 27.976562 17.398438 C 27.910156 17.371094 27.839844 17.339844 27.769531 17.3125 C 27.746094 17.304688 27.722656 17.292969 27.699219 17.285156 C 27.75 17.234375 27.804688 17.1875 27.851562 17.140625 M 27.851562 17.140625 "/>
<path style=" stroke:none;fill-rule:nonzero;fill:rgb(18.039216%,20.392157%,21.176471%);fill-opacity:1;" d="M 27.894531 16.320312 C 27.835938 16.621094 27.667969 16.882812 27.457031 16.996094 C 27.246094 17.113281 27.023438 17.0625 26.878906 16.867188 C 26.738281 16.671875 26.695312 16.367188 26.773438 16.066406 C 26.875 15.617188 27.207031 15.308594 27.515625 15.378906 C 27.828125 15.449219 27.996094 15.867188 27.894531 16.320312 M 27.894531 16.320312 "/>
<path style=" stroke:none;fill-rule:nonzero;fill:rgb(18.039216%,20.392157%,21.176471%);fill-opacity:1;" d="M 29.367188 16.765625 C 29.308594 17.070312 29.140625 17.328125 28.929688 17.445312 C 28.71875 17.558594 28.496094 17.511719 28.355469 17.316406 C 28.210938 17.121094 28.171875 16.816406 28.25 16.515625 C 28.347656 16.066406 28.679688 15.757812 28.992188 15.824219 C 29.300781 15.894531 29.46875 16.316406 29.367188 16.765625 M 29.367188 16.765625 "/>
<path style=" stroke:none;fill-rule:nonzero;fill:rgb(100%,70.588235%,4.313725%);fill-opacity:1;" d="M 25.34375 17.417969 C 25.34375 17.417969 26.882812 17.097656 27.78125 17.480469 C 28.675781 17.867188 29.253906 18.828125 29.253906 18.828125 C 29.253906 18.828125 27.714844 21.039062 26.371094 20.382812 C 25.027344 19.722656 25.347656 17.417969 25.347656 17.417969 M 25.34375 17.417969 "/>
<path style=" stroke:none;fill-rule:nonzero;fill:rgb(7.058824%,9.803922%,10.196078%);fill-opacity:1;" d="M 21.246094 17.9375 C 21.246094 17.9375 21.371094 19.449219 21.757812 20.773438 C 22.140625 22.101562 22.398438 24.214844 21.308594 23.128906 C 20.21875 22.039062 19.644531 20.691406 20.21875 19.539062 C 20.796875 18.386719 21.246094 17.9375 21.246094 17.9375 M 21.246094 17.9375 "/>
<path style=" stroke:none;fill-rule:nonzero;fill:rgb(7.058824%,9.803922%,10.196078%);fill-opacity:1;" d="M 32.578125 20.191406 C 32.578125 20.191406 31.300781 21.699219 29.886719 22.816406 C 28.476562 23.933594 26.605469 25.984375 28.582031 25.652344 C 30.566406 25.320312 32.195312 24.328125 32.453125 22.667969 C 32.714844 21.007812 32.578125 20.191406 32.578125 20.191406 M 32.578125 20.191406 "/>
<path style=" stroke:none;fill-rule:nonzero;fill:rgb(18.039216%,20.392157%,21.176471%);fill-opacity:1;" d="M 24.890625 21.289062 C 23.058594 21.289062 21.558594 22.769531 21.558594 24.605469 C 21.558594 26.441406 23.058594 27.9375 24.890625 27.9375 C 26.726562 27.9375 28.210938 26.441406 28.210938 24.605469 C 28.210938 22.769531 26.726562 21.289062 24.890625 21.289062 M 24.933594 22.179688 C 25.257812 22.1875 25.578125 22.265625 25.867188 22.386719 C 28.386719 23.328125 27.273438 27.492188 24.613281 27.015625 C 21.8125 26.875 21.824219 22.355469 24.613281 22.191406 C 24.71875 22.175781 24.828125 22.175781 24.933594 22.179688 M 24.933594 22.179688 "/>
<path style=" stroke:none;fill-rule:nonzero;fill:rgb(18.039216%,20.392157%,21.176471%);fill-opacity:1;" d="M 26.496094 24.632812 C 26.496094 25.535156 25.765625 26.265625 24.863281 26.265625 C 23.960938 26.265625 23.230469 25.535156 23.230469 24.632812 C 23.230469 23.730469 23.960938 22.996094 24.863281 22.996094 C 25.765625 22.996094 26.496094 23.730469 26.496094 24.632812 M 26.496094 24.632812 "/>
<path style=" stroke:none;fill-rule:nonzero;fill:rgb(18.039216%,20.392157%,21.176471%);fill-opacity:1;" d="M 13.828125 26.628906 L 15.660156 26.140625 C 17.203125 25.726562 18.792969 26.644531 19.207031 28.1875 L 20.460938 32.867188 C 20.875 34.410156 19.957031 36 18.414062 36.414062 L 16.582031 36.902344 C 15.035156 37.316406 13.449219 36.402344 13.035156 34.855469 L 11.78125 30.175781 C 11.367188 28.632812 12.285156 27.042969 13.828125 26.628906 M 13.828125 26.628906 "/>
<path style=" stroke:none;fill-rule:nonzero;fill:rgb(100%,70.588235%,4.313725%);fill-opacity:1;" d="M 22.269531 28.378906 C 22.269531 30.5 20.664062 32.222656 18.679688 32.222656 C 16.699219 32.222656 15.09375 30.5 15.09375 28.378906 C 15.09375 26.253906 16.699219 24.535156 18.679688 24.535156 C 20.664062 24.535156 22.269531 26.253906 22.269531 28.378906 M 22.269531 28.378906 "/>
<path style=" stroke:none;fill-rule:nonzero;fill:rgb(100%,70.588235%,4.313725%);fill-opacity:1;" d="M 33.28125 29.535156 C 33.28125 31.660156 31.675781 33.378906 29.695312 33.378906 C 27.714844 33.378906 26.105469 31.660156 26.105469 29.535156 C 26.105469 27.414062 27.714844 25.691406 29.695312 25.691406 C 31.675781 25.691406 33.28125 27.414062 33.28125 29.535156 M 33.28125 29.535156 "/>
<path style=" stroke:none;fill-rule:nonzero;fill:rgb(88.627451%,31.764706%,21.176471%);fill-opacity:1;" d="M 17.953125 23.96875 C 17.839844 23.964844 17.746094 23.96875 17.660156 23.980469 C 16.980469 24.074219 17.253906 25.292969 17.253906 25.292969 C 17.253906 25.292969 18.296875 25.25 19.25 25.25 C 19.902344 25.25 20.164062 25.480469 20.265625 25.625 C 18.929688 26.703125 17.074219 28.945312 17.074219 30.367188 C 17.074219 31.839844 17.394531 35.359375 17.394531 35.359375 C 17.394531 35.359375 20.414062 35.679688 24.324219 35.679688 C 28.234375 35.679688 31.5625 35.109375 31.5625 35.109375 C 31.5625 35.109375 31.753906 32.992188 31.882812 31.804688 C 32.011719 30.613281 31.109375 28.183594 30.40625 27.285156 C 30.019531 26.792969 29.230469 26.15625 28.578125 25.65625 C 28.667969 25.511719 28.917969 25.25 29.609375 25.25 C 30.5625 25.25 31.605469 25.292969 31.605469 25.292969 C 31.605469 25.292969 31.878906 24.074219 31.199219 23.980469 C 30.519531 23.890625 28.84375 24.289062 28.84375 24.289062 L 28.214844 25.375 C 27.871094 25.121094 27.589844 24.917969 27.589844 24.917969 C 27.589844 24.917969 26.4375 24.339844 24.773438 24.273438 C 23.105469 24.210938 21.765625 24.46875 21.765625 24.46875 L 20.617188 25.347656 L 20.015625 24.289062 C 20.015625 24.289062 18.726562 23.984375 17.953125 23.96875 M 17.949219 23.96875 "/>
<path style=" stroke:none;fill-rule:nonzero;fill:rgb(18.039216%,20.392157%,21.176471%);fill-opacity:0.67451;" d="M 20.714844 28.828125 L 28.164062 28.828125 C 29.296875 28.828125 30.214844 29.746094 30.214844 30.878906 L 30.214844 32.542969 C 30.214844 33.675781 29.296875 34.59375 28.164062 34.59375 L 20.714844 34.59375 C 19.582031 34.59375 18.664062 33.675781 18.664062 32.542969 L 18.664062 30.878906 C 18.664062 29.746094 19.582031 28.828125 20.714844 28.828125 M 20.714844 28.828125 "/>
</g>
</svg>
