<!-- color: #ffddae -->
<svg xmlns="http://www.w3.org/2000/svg" xmlns:xlink="http://www.w3.org/1999/xlink" width="48px" height="48px" viewBox="0 0 48 48" version="1.1">
<g id="surface1">
<path style=" stroke:none;fill-rule:nonzero;fill:rgb(24.705882%,38.039216%,58.431373%);fill-opacity:1;" d="M 31 10 C 29.097656 11.628906 27.511719 13.207031 26.15625 14.75 L 27 19 L 25.0625 16.09375 C 22.175781 19.773438 20.652344 23.453125 20 28 C 20 28 19 29 20 29 L 21.996094 29 L 21.996094 28 C 23.191406 26.410156 24.152344 25.269531 24.996094 24.277344 L 24.996094 20 L 25.996094 23 L 25.933594 23.15625 C 28.601562 20.046875 29.550781 18.671875 30.996094 10 M 31 10 "/>
<path style=" stroke:none;fill-rule:nonzero;fill:rgb(89.803922%,32.54902%,32.54902%);fill-opacity:1;" d="M 19 30 L 20.996094 29.003906 L 22.996094 30 C 22.996094 31 23.996094 31 24.996094 32 L 24.996094 36 C 24.996094 37 23.996094 38 22.996094 38 L 18.996094 38 C 17.996094 38 16.996094 37 16.996094 36 L 16.996094 32 C 17.996094 31 18.996094 31 18.996094 30 M 19 30 "/>
<path style=" stroke:none;fill-rule:nonzero;fill:rgb(89.803922%,32.54902%,32.54902%);fill-opacity:1;" d="M 18.886719 28 L 23.113281 28 C 23.601562 28 24 28.394531 24 28.886719 L 24 29.113281 C 24 29.601562 23.601562 29.996094 23.113281 29.996094 L 18.886719 29.996094 C 18.398438 29.996094 18 29.601562 18 29.113281 L 18 28.886719 C 18 28.394531 18.398438 28 18.886719 28 M 18.886719 28 "/>
</g>
</svg>
