<!-- color: #e3503c -->
<svg xmlns="http://www.w3.org/2000/svg" xmlns:xlink="http://www.w3.org/1999/xlink" width="48px" height="48px" viewBox="0 0 48 48" version="1.1">
<g id="surface1">
<path style=" stroke:none;fill-rule:nonzero;fill:rgb(87.058824%,87.058824%,87.058824%);fill-opacity:1;" d="M 12.96875 12 C 12.425781 12 12 12.519531 12 13.15625 L 12 34.84375 C 12 35.480469 12.425781 36 12.96875 36 L 35.027344 36 C 35.574219 36 35.996094 35.480469 35.996094 34.84375 L 35.996094 13.15625 C 35.996094 12.519531 35.574219 12 35.027344 12 M 23.257812 14 L 24.757812 14 L 24.757812 25.089844 C 25.769531 25.28125 26.507812 25.828125 26.507812 26.496094 C 26.507812 27.164062 25.765625 27.707031 24.757812 27.902344 L 24.757812 29.996094 L 23.257812 29.996094 L 23.257812 27.902344 C 22.238281 27.707031 21.507812 27.164062 21.507812 26.496094 C 21.507812 25.828125 22.242188 25.28125 23.257812 25.089844 M 17.757812 15 L 19.257812 15 L 19.257812 18.09375 C 20.269531 18.285156 21.007812 18.832031 21.007812 19.5 C 21.007812 20.167969 20.265625 20.710938 19.257812 20.90625 L 19.257812 29 L 17.757812 29 L 17.757812 20.90625 C 16.738281 20.710938 16.007812 20.167969 16.007812 19.5 C 16.007812 18.832031 16.742188 18.285156 17.757812 18.09375 M 28.757812 15 L 30.257812 15 L 30.257812 18.09375 C 31.265625 18.285156 32.007812 18.832031 32.007812 19.5 C 32.007812 20.167969 31.265625 20.710938 30.257812 20.90625 L 30.257812 29 L 28.757812 29 L 28.757812 20.90625 C 27.738281 20.710938 27.007812 20.167969 27.007812 19.5 C 27.007812 18.832031 27.742188 18.285156 28.757812 18.09375 M 28.757812 15 "/>
<path style=" stroke:none;fill-rule:nonzero;fill:rgb(17.647059%,17.647059%,17.647059%);fill-opacity:1;" d="M 12.96875 36 C 12.425781 36 12 35.480469 12 34.84375 L 12 32 L 36 32 L 36 34.84375 C 36 35.484375 35.574219 36 35.03125 36 M 12.972656 36 "/>
</g>
</svg>
