<!-- color: #d5ccc2 -->
<svg xmlns="http://www.w3.org/2000/svg" xmlns:xlink="http://www.w3.org/1999/xlink" width="48px" height="48px" viewBox="0 0 48 48" version="1.1">
<g id="surface1">
<path style=" stroke:none;fill-rule:nonzero;fill:rgb(100%,40%,0%);fill-opacity:1;" d="M 26.21875 32.460938 C 25.546875 32.628906 24.65625 32.808594 23.542969 32.996094 C 22.453125 33.1875 21.183594 33.28125 19.734375 33.28125 C 18.476562 33.28125 17.417969 33.101562 16.554688 32.746094 C 15.695312 32.367188 15.003906 31.84375 14.480469 31.171875 C 13.953125 30.5 13.578125 29.714844 13.347656 28.8125 C 13.117188 27.886719 13 26.871094 13 25.757812 L 13 16.566406 L 16 16.566406 L 16 25.128906 C 16 27.121094 16.242188 28.550781 16.871094 29.410156 C 17.503906 30.269531 18.5625 30.699219 20.050781 30.699219 C 20.367188 30.699219 20.691406 30.691406 21.027344 30.667969 C 21.363281 30.648438 21.679688 30.628906 21.972656 30.605469 C 22.265625 30.566406 22.527344 30.535156 22.757812 30.511719 C 23.011719 30.472656 22.894531 30.429688 23 30.386719 L 23 16.570312 L 26 16.570312 L 26 32.464844 "/>
<path style=" stroke:none;fill-rule:nonzero;fill:rgb(17.647059%,17.647059%,17.647059%);fill-opacity:1;" d="M 31 11 L 33 11 L 33 37 L 31 37 M 31 11 "/>
</g>
</svg>
