<!-- color: #ff6632 -->
<svg xmlns="http://www.w3.org/2000/svg" xmlns:xlink="http://www.w3.org/1999/xlink" width="48px" height="48px" viewBox="0 0 48 48" version="1.1">
<g id="surface1">
<path style=" stroke:none;fill-rule:nonzero;fill:rgb(97.647059%,97.647059%,97.647059%);fill-opacity:1;" d="M 16.605469 19.070312 L 16.605469 24.933594 C 16.605469 29.808594 16.773438 30.984375 16.964844 31.777344 C 17.679688 34.777344 19.601562 36.5 22.699219 36.917969 C 24.375 37.140625 27.761719 36.882812 30.421875 36.324219 C 30.757812 36.210938 30.804688 36.195312 31 35.996094 L 31 18.996094 L 27 18.996094 L 27 32.996094 L 22 32.996094 L 22 22.996094 L 19 22.996094 L 22 18.996094 M 16.605469 19.070312 "/>
<path style=" stroke:none;fill-rule:nonzero;fill:rgb(17.647059%,17.647059%,17.647059%);fill-opacity:1;" d="M 15.058594 32.101562 L 15.058594 22.316406 C 15.058594 22.316406 10.996094 22.316406 10.996094 27.210938 C 10.996094 32.101562 15.058594 32.101562 15.058594 32.101562 M 15.058594 32.101562 "/>
<path style=" stroke:none;fill-rule:nonzero;fill:rgb(17.647059%,17.647059%,17.647059%);fill-opacity:1;" d="M 32.9375 32.101562 L 32.9375 22.316406 C 32.9375 22.316406 37.003906 22.316406 37.003906 27.210938 C 37.003906 32.101562 32.9375 32.101562 32.9375 32.101562 M 32.9375 32.101562 "/>
<path style=" stroke:none;fill-rule:nonzero;fill:rgb(17.647059%,17.647059%,17.647059%);fill-opacity:1;" d="M 24.011719 11 C 18.4375 10.945312 15.609375 14.097656 14.40625 17.140625 C 13.214844 20.1875 13.429688 23.191406 13.429688 23.191406 L 15.054688 23.078125 C 15.054688 23.078125 14.882812 20.378906 15.914062 17.738281 C 16.953125 15.101562 18.988281 12.597656 23.976562 12.640625 C 28.96875 12.691406 31.027344 15.210938 32.066406 17.824219 C 33.105469 20.433594 32.929688 23.074219 32.929688 23.074219 L 34.558594 23.1875 C 34.558594 23.1875 34.777344 20.234375 33.578125 17.214844 C 32.382812 14.195312 29.578125 11.050781 24.003906 10.996094 M 24.003906 11.003906 "/>
</g>
</svg>
