<!-- color: #eeeeee -->
<svg xmlns="http://www.w3.org/2000/svg" xmlns:xlink="http://www.w3.org/1999/xlink" width="48px" height="48px" viewBox="0 0 48 48" version="1.1">
<g id="surface1">
<path style=" stroke:none;fill-rule:nonzero;fill:rgb(17.254902%,61.568627%,14.901961%);fill-opacity:1;" d="M 24 11 C 22.539062 11 21.222656 12.125 21.222656 13.515625 C 21.222656 14.609375 21.972656 15.65625 23 15.996094 L 23 19.996094 L 18.765625 23.46875 C 18.542969 23.621094 18.347656 23.886719 18.347656 24.148438 L 18.347656 25.992188 L 16.996094 25.992188 L 16.996094 29.992188 L 20.996094 29.992188 L 20.996094 25.992188 L 20 25.992188 L 20 24.578125 L 23 21.992188 L 23 31.992188 L 21 31.992188 L 24 36.992188 L 27 31.992188 L 25 31.992188 L 25 19.484375 L 28 21.992188 L 28 23.773438 C 27.222656 24.097656 26.59375 24.828125 26.59375 25.683594 C 26.59375 26.84375 27.582031 27.78125 28.796875 27.78125 C 30.011719 27.78125 30.996094 26.84375 30.996094 25.683594 C 30.996094 24.828125 30.449219 24.097656 29.675781 23.773438 L 29.675781 21.488281 C 29.679688 21.242188 29.558594 20.992188 29.359375 20.835938 L 24.996094 17.292969 L 24.996094 15.992188 C 26.023438 15.648438 26.507812 14.601562 26.507812 13.507812 C 26.507812 12.117188 25.457031 10.992188 24 10.992188 M 23.992188 10.996094 "/>
</g>
</svg>
