<!-- color: #d1e2eb -->
<svg xmlns="http://www.w3.org/2000/svg" xmlns:xlink="http://www.w3.org/1999/xlink" width="48px" height="48px" viewBox="0 0 48 48" version="1.1">
<g id="surface1">
<path style=" stroke:none;fill-rule:nonzero;fill:rgb(17.647059%,17.647059%,17.647059%);fill-opacity:1;" d="M 9 17 L 39 17 L 39 19 L 9 19 M 9 17 "/>
<path style=" stroke:none;fill-rule:nonzero;fill:rgb(17.647059%,17.647059%,17.647059%);fill-opacity:1;" d="M 9 30 L 39 30 L 39 32 L 9 32 M 9 30 "/>
<path style=" stroke:none;fill-rule:nonzero;fill:rgb(17.647059%,17.647059%,17.647059%);fill-opacity:1;" d="M 31 13 L 33 13 C 33.550781 13 34 13.449219 34 14 L 34 22 C 34 22.550781 33.550781 23 33 23 L 31 23 C 30.449219 23 30 22.550781 30 22 L 30 14 C 30 13.449219 30.449219 13 31 13 M 31 13 "/>
<path style=" stroke:none;fill-rule:nonzero;fill:rgb(17.647059%,17.647059%,17.647059%);fill-opacity:1;" d="M 20.996094 26 L 22.996094 26 C 23.546875 26 23.996094 26.449219 23.996094 27 L 23.996094 35 C 23.996094 35.550781 23.546875 36 22.996094 36 L 20.996094 36 C 20.445312 36 20 35.550781 20 35 L 20 27 C 20 26.449219 20.445312 26 20.996094 26 M 20.996094 26 "/>
<path style=" stroke:none;fill-rule:nonzero;fill:rgb(72.54902%,84.313725%,89.803922%);fill-opacity:1;" d="M 21.417969 27 L 22.582031 27 C 22.8125 27 23 27.246094 23 27.550781 L 23 34.453125 C 23 34.753906 22.8125 35 22.582031 35 L 21.417969 35 C 21.1875 35 21 34.753906 21 34.453125 L 21 27.550781 C 21 27.246094 21.1875 27 21.417969 27 M 21.417969 27 "/>
<path style=" stroke:none;fill-rule:nonzero;fill:rgb(72.54902%,84.313725%,89.803922%);fill-opacity:1;" d="M 31.417969 14 L 32.582031 14 C 32.8125 14 33 14.246094 33 14.546875 L 33 21.453125 C 33 21.753906 32.8125 22 32.582031 22 L 31.417969 22 C 31.1875 22 31 21.753906 31 21.453125 L 31 14.546875 C 31 14.246094 31.1875 14 31.417969 14 M 31.417969 14 "/>
</g>
</svg>
