<!-- color: #455b68 -->
<svg xmlns="http://www.w3.org/2000/svg" xmlns:xlink="http://www.w3.org/1999/xlink" width="48px" height="48px" viewBox="0 0 48 48" version="1.1">
<g id="surface1">
<path style=" stroke:none;fill-rule:evenodd;fill:rgb(96.078431%,84.313725%,55.686275%);fill-opacity:1;" d="M 24 11 C 20 12.171875 16 13.347656 12 14.523438 C 12.292969 23.246094 14.53125 33.886719 24 37 C 33.570312 33.980469 35.59375 23.152344 36 14.523438 C 32 13.347656 28 12.171875 24 11 M 24 11 "/>
<path style=" stroke:none;fill-rule:evenodd;fill:rgb(17.647059%,17.647059%,17.647059%);fill-opacity:1;" d="M 26.753906 27.820312 L 26.75 27.820312 L 27.195312 27.453125 C 27.011719 27.304688 26.675781 26.859375 26.449219 26.394531 C 26.242188 26.34375 25.816406 26.207031 25.636719 26.050781 L 25.269531 26.300781 L 25.265625 26.304688 L 24.894531 26.546875 C 25.039062 26.730469 25.109375 27.101562 25.128906 27.28125 C 25.628906 27.5625 26.082031 27.929688 26.214844 28.109375 L 26.742188 27.824219 L 26.742188 27.828125 L 26.75 27.824219 M 26.753906 27.820312 "/>
<path style=" stroke:none;fill-rule:evenodd;fill:rgb(17.647059%,17.647059%,17.647059%);fill-opacity:1;" d="M 17.726562 17.851562 C 20.535156 20.640625 23.265625 23.445312 26.011719 26.253906 C 26.058594 26.59375 26.550781 26.976562 26.878906 27.296875 L 26.101562 27.820312 C 25.734375 27.476562 25.472656 27.03125 25.046875 26.933594 C 22.296875 24.148438 19.539062 21.363281 16.824219 18.523438 C 16.09375 17.722656 15.609375 16.839844 15 16 C 15.910156 16.617188 16.902344 17.089844 17.726562 17.851562 M 17.726562 17.851562 "/>
<path style=" stroke:none;fill-rule:evenodd;fill:rgb(17.647059%,17.647059%,17.647059%);fill-opacity:1;" d="M 29.820312 30.039062 C 29.777344 30.007812 29.738281 30.027344 29.679688 29.957031 C 28.90625 29.265625 28.277344 28.648438 27.625 27.9375 C 27.585938 27.890625 27.535156 27.828125 27.527344 27.761719 L 27.027344 28.082031 L 26.542969 28.417969 C 26.621094 28.441406 26.6875 28.496094 26.734375 28.535156 C 27.425781 29.214844 28.019531 29.855469 28.675781 30.625 C 28.738281 30.691406 28.710938 30.71875 28.738281 30.757812 L 29.269531 30.390625 M 29.816406 30.035156 "/>
<path style=" stroke:none;fill-rule:evenodd;fill:rgb(17.647059%,17.647059%,17.647059%);fill-opacity:1;" d="M 27.050781 28.101562 L 27.539062 27.769531 C 27.539062 27.769531 27.386719 27.714844 27.414062 27.640625 C 27.4375 27.566406 27.867188 27.300781 28.015625 27.214844 C 27.984375 27.148438 27.878906 27.0625 27.804688 27.011719 C 27.519531 27.226562 26.910156 27.023438 26.539062 27.363281 C 26.546875 27.246094 26.429688 27.082031 26.246094 27.019531 C 26.296875 27.183594 26.390625 27.402344 26.375 27.4375 C 26.328125 27.445312 26.113281 27.3125 25.933594 27.238281 C 25.964844 27.398438 26.132812 27.527344 26.273438 27.546875 C 25.796875 27.777344 25.90625 28.3125 25.59375 28.5 C 25.636719 28.570312 25.722656 28.675781 25.789062 28.710938 C 25.921875 28.609375 26.324219 28.320312 26.417969 28.316406 C 26.507812 28.308594 26.535156 28.425781 26.535156 28.425781 C 26.535156 28.425781 27.050781 28.101562 27.050781 28.101562 M 27.050781 28.101562 "/>
<path style=" stroke:none;fill-rule:evenodd;fill:rgb(17.647059%,17.647059%,17.647059%);fill-opacity:1;" d="M 29.796875 30.03125 C 29.828125 30.074219 29.796875 30.101562 29.863281 30.164062 C 30.140625 30.433594 30.40625 30.375 30.84375 30.804688 C 31.460938 31.441406 30.097656 32.421875 29.445312 31.804688 C 28.972656 31.347656 29.113281 31.089844 28.863281 30.832031 C 28.800781 30.761719 28.761719 30.785156 28.71875 30.753906 L 29.265625 30.398438 M 29.796875 30.027344 "/>
<path style=" stroke:none;fill-rule:evenodd;fill:rgb(17.647059%,17.647059%,17.647059%);fill-opacity:1;" d="M 20.222656 26.796875 L 20.636719 27.1875 C 20.777344 27.007812 21.226562 26.660156 21.707031 26.417969 C 21.75 26.222656 21.867188 25.816406 22.023438 25.632812 L 21.738281 25.304688 L 21.734375 25.300781 L 21.453125 24.96875 C 21.269531 25.121094 20.882812 25.210938 20.691406 25.238281 C 20.425781 25.726562 20.0625 26.175781 19.878906 26.3125 L 20.210938 26.789062 L 20.21875 26.796875 M 20.222656 26.796875 "/>
<path style=" stroke:none;fill-rule:evenodd;fill:rgb(17.647059%,17.647059%,17.647059%);fill-opacity:1;" d="M 30.210938 17.679688 C 27.433594 20.492188 24.636719 23.238281 21.832031 26 C 21.476562 26.070312 21.101562 26.554688 20.78125 26.882812 L 20.1875 26.1875 C 20.523438 25.824219 20.980469 25.546875 21.058594 25.140625 C 23.828125 22.378906 26.609375 19.609375 29.445312 16.875 C 30.25 16.136719 31.152344 15.625 32.003906 15 C 31.402344 15.894531 30.964844 16.859375 30.210938 17.683594 M 30.210938 17.679688 "/>
<path style=" stroke:none;fill-rule:evenodd;fill:rgb(17.647059%,17.647059%,17.647059%);fill-opacity:1;" d="M 18.058594 29.820312 C 18.085938 29.78125 18.066406 29.746094 18.136719 29.679688 C 18.824219 28.914062 19.4375 28.28125 20.136719 27.621094 C 20.1875 27.585938 20.246094 27.535156 20.316406 27.519531 L 19.945312 27.074219 L 19.566406 26.640625 C 19.546875 26.71875 19.492188 26.78125 19.453125 26.828125 C 18.777344 27.523438 18.140625 28.121094 17.363281 28.785156 C 17.300781 28.851562 17.265625 28.824219 17.226562 28.851562 L 17.648438 29.328125 L 18.054688 29.816406 M 18.054688 29.820312 "/>
<path style=" stroke:none;fill-rule:evenodd;fill:rgb(17.647059%,17.647059%,17.647059%);fill-opacity:1;" d="M 19.945312 27.089844 L 20.324219 27.53125 C 20.324219 27.53125 20.375 27.382812 20.453125 27.402344 C 20.53125 27.417969 20.839844 27.804688 20.9375 27.9375 C 21 27.90625 21.089844 27.800781 21.136719 27.726562 C 20.894531 27.472656 21.070312 26.886719 20.691406 26.5625 C 20.820312 26.5625 20.984375 26.441406 21.039062 26.269531 C 20.871094 26.324219 20.644531 26.429688 20.609375 26.414062 C 20.601562 26.371094 20.726562 26.164062 20.792969 25.988281 C 20.625 26.027344 20.496094 26.191406 20.484375 26.328125 C 20.214844 25.898438 19.660156 26.03125 19.441406 25.75 C 19.367188 25.796875 19.261719 25.886719 19.226562 25.945312 C 19.339844 26.066406 19.671875 26.425781 19.683594 26.511719 C 19.695312 26.597656 19.574219 26.628906 19.574219 26.628906 C 19.574219 26.628906 19.945312 27.089844 19.945312 27.089844 M 19.945312 27.089844 "/>
<path style=" stroke:none;fill-rule:evenodd;fill:rgb(17.647059%,17.647059%,17.647059%);fill-opacity:1;" d="M 18.070312 29.796875 C 18.03125 29.828125 18 29.800781 17.9375 29.871094 C 17.667969 30.144531 17.742188 30.394531 17.320312 30.828125 C 16.683594 31.453125 15.570312 30.238281 16.179688 29.585938 C 16.632812 29.109375 16.917969 29.226562 17.167969 28.972656 C 17.238281 28.910156 17.214844 28.875 17.246094 28.835938 L 17.652344 29.324219 M 18.070312 29.796875 "/>
</g>
</svg>
