<!-- color: #80c7e6 -->
<svg xmlns="http://www.w3.org/2000/svg" xmlns:xlink="http://www.w3.org/1999/xlink" width="48px" height="48px" viewBox="0 0 48 48" version="1.1">
<g id="surface1">
<path style=" stroke:none;fill-rule:nonzero;fill:rgb(17.647059%,17.647059%,17.647059%);fill-opacity:1;" d="M 11 11 L 15.214844 17.421875 C 15.488281 16.980469 15.796875 16.5625 16.179688 16.179688 C 17.789062 14.570312 20.003906 13.960938 22.097656 14.300781 L 19.9375 11 M 22.09375 14.300781 L 23.183594 15.953125 C 23.605469 16.132812 24.003906 16.34375 24.378906 16.636719 L 25.0625 15.542969 C 24.167969 14.878906 23.144531 14.472656 22.09375 14.300781 M 25.0625 15.542969 C 25.324219 15.738281 25.585938 15.941406 25.824219 16.179688 C 28.285156 18.644531 28.46875 22.570312 26.355469 25.238281 L 29.898438 28.78125 L 28.78125 29.898438 L 25.238281 26.355469 C 23.042969 28.097656 20.003906 28.273438 17.621094 26.914062 L 10.996094 36.996094 L 19.929688 36.996094 L 23.996094 30.800781 L 28.058594 36.996094 L 36.996094 36.996094 L 28.472656 23.996094 L 36.996094 10.996094 L 28.058594 10.996094 M 17.621094 26.914062 L 18.332031 25.824219 C 17.894531 25.578125 17.460938 25.28125 17.089844 24.910156 C 15.398438 23.21875 15.066406 20.707031 16.023438 18.664062 L 15.214844 17.417969 C 13.597656 20.042969 13.902344 23.546875 16.179688 25.824219 C 16.617188 26.261719 17.109375 26.621094 17.621094 26.914062 M 16.023438 18.664062 L 19.527344 23.996094 L 18.335938 25.824219 C 20.4375 26.992188 23.128906 26.695312 24.910156 24.910156 C 27.066406 22.75 27.066406 19.246094 24.910156 17.089844 C 24.742188 16.921875 24.558594 16.773438 24.382812 16.632812 L 24.003906 17.191406 L 23.1875 15.949219 C 21.179688 15.078125 18.742188 15.441406 17.09375 17.089844 C 16.625 17.558594 16.292969 18.101562 16.027344 18.664062 M 30.230469 28.640625 L 33.773438 32.183594 L 32.175781 33.78125 L 28.632812 30.238281 M 30.230469 28.640625 "/>
</g>
</svg>
