<!-- color: #e33a31 -->
<svg xmlns="http://www.w3.org/2000/svg" xmlns:xlink="http://www.w3.org/1999/xlink" width="48px" height="48px" viewBox="0 0 48 48" version="1.1">
<g id="surface1">
<path style=" stroke:none;fill-rule:nonzero;fill:rgb(97.647059%,97.647059%,97.647059%);fill-opacity:1;" d="M 24.171875 15 C 21.132812 15 16.648438 15.183594 15.304688 15.226562 C 13.84375 15.355469 13.304688 15.429688 12.507812 16.101562 C 11.28125 17.167969 10.992188 19.261719 10.992188 22.46875 L 10.992188 25.519531 C 10.992188 29.175781 11.484375 31.035156 12.304688 31.714844 C 13.242188 32.507812 13.863281 32.570312 14.484375 32.664062 C 14.726562 32.699219 16.445312 33 24.058594 33 C 28.804688 33 32.882812 32.777344 33.304688 32.726562 C 33.984375 32.640625 34.949219 32.519531 35.695312 31.714844 C 36.785156 30.496094 37 28.472656 37 25.539062 L 37 21.988281 C 37 20.089844 36.894531 17.410156 35.695312 16.285156 C 34.785156 15.527344 34.453125 15.316406 32.574219 15.222656 C 32.042969 15.199219 27.410156 15 24.171875 15 M 21 20 L 28 24 L 21 28 M 21 20 "/>
</g>
</svg>
