<svg viewBox="0 0 48 48" xmlns:xlink="http://www.w3.org/1999/xlink"><defs><clipPath clipPathUnits="userSpaceOnUse" id="clipPath4313"><path d="m 20 4 -7.313 3.03 -5.656 5.656 -3.03 7.313 0 8 3.03 7.313 5.656 5.656 7.313 3.03 8 0 7.313 -3.03 5.656 -5.656 3.03 -7.313 0 -8 -3.03 -7.313 -5.656 -5.656 -7.313 -3.03 -8 0 z"/></clipPath><clipPath clipPathUnits="userSpaceOnUse" id="clipPath4329"><path d="m 24 2.344 -4 1.656 -4.281 0 -3.03 3.03 l -4 1.656 -1.656 4 l -3.03 3.03 0 4.281 -1.656 4 1.656 4 l 0 4.281 3.03 3.03 1.656 4 4 1.656 l 3.03 3.03 4.281 0 4 1.656 4 -1.656 l 4.281 0 3.03 -3.03 4 -1.656 1.656 -4 l 3.03 -3.03 0 -4.281 1.656 -4 -1.656 -4 l 0 -4.281 -3.03 -3.03 -1.656 -4 -4 -1.656 l -3.03 -3.03 -4.281 0 -4 -1.656 z"/></clipPath><clipPath id="clipPath-906761246"><path d="m 24 2.344 l -4 1.656 l -4.281 0 l -3.03 3.03 l -4 1.656 l -1.656 4 l -3.03 3.03 l 0 4.281 l -1.656 4 l 1.656 4 l 0 4.281 l 3.03 3.03 l 1.656 4 l 4 1.656 l 3.03 3.03 l 4.281 0 l 4 1.656 l 4 -1.656 l 4.281 0 l 3.03 -3.03 l 4 -1.656 l 1.656 -4 l 3.03 -3.03 l 0 -4.281 l 1.656 -4 l -1.656 -4 l 0 -4.281 l -3.03 -3.03 l -1.656 -4 l -4 -1.656 l -3.03 -3.03 l -4.281 0 l -4 -1.656 z"/></clipPath><clipPath id="clipPath-918929561"><path d="m 24 2.344 l -4 1.656 l -4.281 0 l -3.03 3.03 l -4 1.656 l -1.656 4 l -3.03 3.03 l 0 4.281 l -1.656 4 l 1.656 4 l 0 4.281 l 3.03 3.03 l 1.656 4 l 4 1.656 l 3.03 3.03 l 4.281 0 l 4 1.656 l 4 -1.656 l 4.281 0 l 3.03 -3.03 l 4 -1.656 l 1.656 -4 l 3.03 -3.03 l 0 -4.281 l 1.656 -4 l -1.656 -4 l 0 -4.281 l -3.03 -3.03 l -1.656 -4 l -4 -1.656 l -3.03 -3.03 l -4.281 0 l -4 -1.656 z"/></clipPath><linearGradient id="linearGradient4317"><stop stop-color="#fff" stop-opacity="1"/><stop offset="1" stop-color="#fff" stop-opacity="0"/></linearGradient><clipPath clipPathUnits="userSpaceOnUse" id="clipPath4313"><path d="m 20 4 -7.313 3.03 -5.656 5.656 -3.03 7.313 0 8 3.03 7.313 5.656 5.656 7.313 3.03 8 0 7.313 -3.03 5.656 -5.656 3.03 -7.313 0 -8 -3.03 -7.313 -5.656 -5.656 -7.313 -3.03 -8 0 z"/></clipPath><linearGradient x2="44" x1="4" gradientUnits="userSpaceOnUse" id="linearGradient4375" xlink:href="#linearGradient4317"/><clipPath clipPathUnits="userSpaceOnUse" id="clipPath4329"><path d="m 24 2.344 -4 1.656 -4.281 0 -3.03 3.03 l -4 1.656 -1.656 4 l -3.03 3.03 0 4.281 -1.656 4 1.656 4 l 0 4.281 3.03 3.03 1.656 4 4 1.656 l 3.03 3.03 4.281 0 4 1.656 4 -1.656 l 4.281 0 3.03 -3.03 4 -1.656 1.656 -4 l 3.03 -3.03 0 -4.281 1.656 -4 -1.656 -4 l 0 -4.281 -3.03 -3.03 -1.656 -4 -4 -1.656 l -3.03 -3.03 -4.281 0 -4 -1.656 z"/></clipPath><path id="SVGCleanerId_0" d="m 24 2.344 l -4 1.656 l -4.281 0 l -3.03 3.03 l -4 1.656 l -1.656 4 l -3.03 3.03 l 0 4.281 l -1.656 4 l 1.656 4 l 0 4.281 l 3.03 3.03 l 1.656 4 l 4 1.656 l 3.03 3.03 l 4.281 0 l 4 1.656 l 4 -1.656 l 4.281 0 l 3.03 -3.03 l 4 -1.656 l 1.656 -4 l 3.03 -3.03 l 0 -4.281 l 1.656 -4 l -1.656 -4 l 0 -4.281 l -3.03 -3.03 l -1.656 -4 l -4 -1.656 l -3.03 -3.03 l -4.281 0 l -4 -1.656 z" visibility="visible" display="inline" fill-rule="nonzero" color="#000" fill-opacity="1"/></defs><g><path d="m 2.563 24.5 l -0.219 0.5 l 1.656 4 l 0 -1 l -1.438 -3.5 z m 42.875 0 l -1.438 3.5 l 0 1 l 1.656 -4 l -0.219 -0.5 z m -41.44 7.781 l 0 1 l 3.03 3.03 l 1.656 4 l 4 1.656 l 3.03 3.03 l 4.281 0 l 4 1.656 l 4 -1.656 l 4.281 0 l 3.03 -3.03 l 4 -1.656 l 1.656 -4 l 3.03 -3.03 l 0 -1 l -3.03 3.03 l -1.656 4 l -4 1.656 l -3.03 3.03 l -4.281 0 l -4 1.656 l -4 -1.656 l -4.281 0 l -3.03 -3.03 l -4 -1.656 l -1.656 -4 l -3.03 -3.03 z" opacity="0.3" visibility="visible" fill="#000" display="inline" fill-rule="nonzero" stroke="none" fill-opacity="1" color="#000"/></g><g><use fill="#1e96c8" stroke="none" xlink:href="#SVGCleanerId_0"/><path d="m 24 2.344 l -4 1.656 l 8 0 l -4 -1.656 z m 4 1.656 l 7.313 3.03 l -3.03 -3.03 l -4.281 0 z m 7.313 3.03 l 5.656 5.656 l -1.656 -4 l -4 -1.656 z m 5.656 5.656 l 3.03 7.313 l 0 -4.281 l -3.03 -3.03 z m 3.03 7.313 l 0 8 l 1.656 -4 l -1.656 -4 z m 0 8 l -3.03 7.313 l 3.03 -3.03 l 0 -4.281 z m -3.03 7.313 l -5.656 5.656 l 4 -1.656 l 1.656 -4 z m -5.656 5.656 l -7.313 3.03 l 4.281 0 l 3.03 -3.03 z m -7.313 3.03 l -8 0 l 4 1.656 l 4 -1.656 z m -8 0 l -7.313 -3.03 l 3.03 3.03 l 4.281 0 z m -7.313 -3.03 l -5.656 -5.656 l 1.656 4 l 4 1.656 z m -5.656 -5.656 l -3.03 -7.313 l 0 4.281 l 3.03 3.03 z m -3.03 -7.313 l 0 -8 l -1.656 4 l 1.656 4 z m 0 -8 l 3.03 -7.313 l -3.03 3.03 l 0 4.281 z m 3.03 -7.313 l 5.656 -5.656 l -4 1.656 l -1.656 4 z m 5.656 -5.656 l 7.313 -3.03 l -4.281 0 l -3.03 3.03 z" opacity="0.05" visibility="visible" fill="#1e96c8" display="inline" fill-rule="nonzero" stroke="none" fill-opacity="1" color="#000"/></g><g><use opacity="0.05" stroke-opacity="1" stroke-dasharray="none" fill="#000" stroke="#000" stroke-width="2" stroke-miterlimit="4" xlink:href="#SVGCleanerId_0"/><use opacity="0.1" stroke-opacity="1" stroke-dasharray="none" fill="#000" stroke="#000" stroke-width="1" stroke-miterlimit="4" xlink:href="#SVGCleanerId_0"/></g><g><g clip-path="url(#clipPath-906761246)"><g transform="translate(0,1)"><g opacity="0.1"><!-- color: #1e96c8 --><g><path d="m 16.15 18.379 c 0.238 -0.34 0.773 -1.027 1.191 -1.523 l 0.301 -0.387 l 5.063 0 l 2.563 -3.43 c 0.988 -1.598 1.922 -3.059 2.082 -3.242 c 0.637 -0.738 1.949 -0.094 1.938 0.957 l -3.605 5.621 l 2.375 0.055 c 1.309 0.027 2.375 0.094 2.375 0.145 c 0 0.055 0.559 -0.094 0.305 0.309 c -0.258 0.406 -0.598 1.047 -0.754 1.426 l -0.289 0.691 l -13.965 0 m 0.43 -0.621" fill="#000" stroke="none" fill-rule="nonzero" fill-opacity="1"/><path d="m 12.84 36.457 c -0.207 -0.297 -0.422 -1.016 -0.488 -1.602 c -0.063 -0.582 -0.145 -1.371 -0.184 -1.754 c -0.133 -1.277 0.828 -6.5 1.234 -8.145 c 0.219 -0.891 0.699 -2.371 1.066 -3.289 l 0.664 -1.668 l 10.125 0 l 0 1.383 c -0.004 1.949 -0.434 3.348 1.293 5.324 l 1.297 1.488 c -1.93 -2.035 -1.363 -4.527 -1.324 -6.93 c -0.004 -0.406 -0.016 -1.273 1.266 -1.273 c 1.211 0 2.02 0.035 1.902 0.332 c -0.34 0.891 -0.523 2.332 -0.438 3.414 c 0.125 1.547 0.773 2.668 2.406 4.168 c 2.242 2.063 2.281 4.273 2.387 5.078 c 0.148 1.105 -0.297 2.336 -1.133 3.172 c -0.586 0.582 -0.969 0.711 -2.355 0.793 l -2.473 0.109 l -0.891 -1.852 c -1.047 -2.191 -1.516 -3.48 -1.844 -5.098 c -0.133 -0.648 -0.277 -1.133 -0.32 -1.066 c -0.07 0.098 0.578 5.766 0.84 7.344 l 0.102 0.625 l -5.973 -0.02 c -6.473 -0.016 -6.809 -0.02 -7.16 -0.535 m 0 -0.008" fill="#000" stroke="none" fill-rule="nonzero" fill-opacity="1"/></g></g></g></g></g><g><g clip-path="url(#clipPath-918929561)"><!-- color: #1e96c8 --><g><path d="m 16.15 18.379 c 0.238 -0.34 0.773 -1.027 1.191 -1.523 l 0.301 -0.387 l 5.063 0 l 2.563 -3.43 c 0.988 -1.598 1.922 -3.059 2.082 -3.242 c 0.637 -0.738 1.949 -0.094 1.938 0.957 l -3.605 5.621 l 2.375 0.055 c 1.309 0.027 2.375 0.094 2.375 0.145 c 0 0.055 0.559 -0.094 0.305 0.309 c -0.258 0.406 -0.598 1.047 -0.754 1.426 l -0.289 0.691 l -13.965 0 m 0.43 -0.621" fill="#70c544" stroke="none" fill-rule="nonzero" fill-opacity="1"/><path d="m 12.84 36.457 c -0.207 -0.297 -0.422 -1.016 -0.488 -1.602 c -0.063 -0.582 -0.145 -1.371 -0.184 -1.754 c -0.133 -1.277 0.828 -6.5 1.234 -8.145 c 0.219 -0.891 0.699 -2.371 1.066 -3.289 l 0.664 -1.668 l 10.125 0 l 0 1.383 c -0.004 1.949 -0.434 3.348 1.293 5.324 l 1.297 1.488 c -1.93 -2.035 -1.363 -4.527 -1.324 -6.93 c -0.004 -0.406 -0.016 -1.273 1.266 -1.273 c 1.211 0 2.02 0.035 1.902 0.332 c -0.34 0.891 -0.523 2.332 -0.438 3.414 c 0.125 1.547 0.773 2.668 2.406 4.168 c 2.242 2.063 2.281 4.273 2.387 5.078 c 0.148 1.105 -0.297 2.336 -1.133 3.172 c -0.586 0.582 -0.969 0.711 -2.355 0.793 l -2.473 0.109 l -0.891 -1.852 c -1.047 -2.191 -1.516 -3.48 -1.844 -5.098 c -0.133 -0.648 -0.277 -1.133 -0.32 -1.066 c -0.07 0.098 0.578 5.766 0.84 7.344 l 0.102 0.625 l -5.973 -0.02 c -6.473 -0.016 -6.809 -0.02 -7.16 -0.535 m 0 -0.008" fill="#f3d47f" stroke="none" fill-rule="nonzero" fill-opacity="1"/></g></g></g><g><path d="m 20 4 -7.313 3.03 -5.656 5.656 -3.03 7.313 0 8 3.03 7.313 5.656 5.656 7.313 3.03 8 0 7.313 -3.03 5.656 -5.656 3.03 -7.313 0 -8 -3.03 -7.313 -5.656 -5.656 -7.313 -3.03 -8 0 z" clip-path="url(#clipPath4313)" transform="matrix(0,1,-1,0,48,0)" opacity="0.3" stroke-opacity="1" stroke-dasharray="none" visibility="visible" fill="none" display="inline" stroke="url(#linearGradient4375)" color="#000" stroke-width="1" stroke-miterlimit="4"/><path d="m 24 2.344 -4 1.656 -4.281 0 -3.03 3.03 l -4 1.656 -1.656 4 l -3.03 3.03 0 4.281 -1.656 4 1.656 4 l 0 4.281 3.03 3.03 1.656 4 4 1.656 l 3.03 3.03 4.281 0 4 1.656 4 -1.656 l 4.281 0 3.03 -3.03 4 -1.656 1.656 -4 l 3.03 -3.03 0 -4.281 1.656 -4 -1.656 -4 l 0 -4.281 -3.03 -3.03 -1.656 -4 -4 -1.656 l -3.03 -3.03 -4.281 0 -4 -1.656 z" clip-path="url(#clipPath4329)" opacity="0.2" stroke-opacity="1" visibility="visible" fill="none" display="inline" stroke="#000" color="#000" stroke-width="2"/></g></svg>