<svg viewBox="0 0 48 48" xmlns:xlink="http://www.w3.org/1999/xlink"><defs><clipPath clipPathUnits="userSpaceOnUse" id="clipPath4313"><path d="m 20 4 -7.313 3.03 -5.656 5.656 -3.03 7.313 0 8 3.03 7.313 5.656 5.656 7.313 3.03 8 0 7.313 -3.03 5.656 -5.656 3.03 -7.313 0 -8 -3.03 -7.313 -5.656 -5.656 -7.313 -3.03 -8 0 z"/></clipPath><clipPath clipPathUnits="userSpaceOnUse" id="clipPath4329"><path d="m 24 2.344 -4 1.656 -4.281 0 -3.03 3.03 l -4 1.656 -1.656 4 l -3.03 3.03 0 4.281 -1.656 4 1.656 4 l 0 4.281 3.03 3.03 1.656 4 4 1.656 l 3.03 3.03 4.281 0 4 1.656 4 -1.656 l 4.281 0 3.03 -3.03 4 -1.656 1.656 -4 l 3.03 -3.03 0 -4.281 1.656 -4 -1.656 -4 l 0 -4.281 -3.03 -3.03 -1.656 -4 -4 -1.656 l -3.03 -3.03 -4.281 0 -4 -1.656 z"/></clipPath><clipPath id="clipPath-499208663"><path d="m 24 2.344 l -4 1.656 l -4.281 0 l -3.03 3.03 l -4 1.656 l -1.656 4 l -3.03 3.03 l 0 4.281 l -1.656 4 l 1.656 4 l 0 4.281 l 3.03 3.03 l 1.656 4 l 4 1.656 l 3.03 3.03 l 4.281 0 l 4 1.656 l 4 -1.656 l 4.281 0 l 3.03 -3.03 l 4 -1.656 l 1.656 -4 l 3.03 -3.03 l 0 -4.281 l 1.656 -4 l -1.656 -4 l 0 -4.281 l -3.03 -3.03 l -1.656 -4 l -4 -1.656 l -3.03 -3.03 l -4.281 0 l -4 -1.656 z"/></clipPath><clipPath id="clipPath-511167967"><path d="m 24 2.344 l -4 1.656 l -4.281 0 l -3.03 3.03 l -4 1.656 l -1.656 4 l -3.03 3.03 l 0 4.281 l -1.656 4 l 1.656 4 l 0 4.281 l 3.03 3.03 l 1.656 4 l 4 1.656 l 3.03 3.03 l 4.281 0 l 4 1.656 l 4 -1.656 l 4.281 0 l 3.03 -3.03 l 4 -1.656 l 1.656 -4 l 3.03 -3.03 l 0 -4.281 l 1.656 -4 l -1.656 -4 l 0 -4.281 l -3.03 -3.03 l -1.656 -4 l -4 -1.656 l -3.03 -3.03 l -4.281 0 l -4 -1.656 z"/></clipPath><linearGradient id="linearGradient4317"><stop stop-color="#fff" stop-opacity="1"/><stop offset="1" stop-color="#fff" stop-opacity="0"/></linearGradient><clipPath clipPathUnits="userSpaceOnUse" id="clipPath4313"><path d="m 20 4 -7.313 3.03 -5.656 5.656 -3.03 7.313 0 8 3.03 7.313 5.656 5.656 7.313 3.03 8 0 7.313 -3.03 5.656 -5.656 3.03 -7.313 0 -8 -3.03 -7.313 -5.656 -5.656 -7.313 -3.03 -8 0 z"/></clipPath><linearGradient x2="44" x1="4" gradientUnits="userSpaceOnUse" id="linearGradient4375" xlink:href="#linearGradient4317"/><clipPath clipPathUnits="userSpaceOnUse" id="clipPath4329"><path d="m 24 2.344 -4 1.656 -4.281 0 -3.03 3.03 l -4 1.656 -1.656 4 l -3.03 3.03 0 4.281 -1.656 4 1.656 4 l 0 4.281 3.03 3.03 1.656 4 4 1.656 l 3.03 3.03 4.281 0 4 1.656 4 -1.656 l 4.281 0 3.03 -3.03 4 -1.656 1.656 -4 l 3.03 -3.03 0 -4.281 1.656 -4 -1.656 -4 l 0 -4.281 -3.03 -3.03 -1.656 -4 -4 -1.656 l -3.03 -3.03 -4.281 0 -4 -1.656 z"/></clipPath><path id="SVGCleanerId_0" d="m 24 2.344 l -4 1.656 l -4.281 0 l -3.03 3.03 l -4 1.656 l -1.656 4 l -3.03 3.03 l 0 4.281 l -1.656 4 l 1.656 4 l 0 4.281 l 3.03 3.03 l 1.656 4 l 4 1.656 l 3.03 3.03 l 4.281 0 l 4 1.656 l 4 -1.656 l 4.281 0 l 3.03 -3.03 l 4 -1.656 l 1.656 -4 l 3.03 -3.03 l 0 -4.281 l 1.656 -4 l -1.656 -4 l 0 -4.281 l -3.03 -3.03 l -1.656 -4 l -4 -1.656 l -3.03 -3.03 l -4.281 0 l -4 -1.656 z" visibility="visible" display="inline" fill-rule="nonzero" color="#000" fill-opacity="1"/></defs><g><path d="m 2.563 24.5 l -0.219 0.5 l 1.656 4 l 0 -1 l -1.438 -3.5 z m 42.875 0 l -1.438 3.5 l 0 1 l 1.656 -4 l -0.219 -0.5 z m -41.44 7.781 l 0 1 l 3.03 3.03 l 1.656 4 l 4 1.656 l 3.03 3.03 l 4.281 0 l 4 1.656 l 4 -1.656 l 4.281 0 l 3.03 -3.03 l 4 -1.656 l 1.656 -4 l 3.03 -3.03 l 0 -1 l -3.03 3.03 l -1.656 4 l -4 1.656 l -3.03 3.03 l -4.281 0 l -4 1.656 l -4 -1.656 l -4.281 0 l -3.03 -3.03 l -4 -1.656 l -1.656 -4 l -3.03 -3.03 z" opacity="0.3" visibility="visible" fill="#000" display="inline" fill-rule="nonzero" stroke="none" fill-opacity="1" color="#000"/></g><g><use fill="#eee" stroke="none" xlink:href="#SVGCleanerId_0"/><path d="m 24 2.344 l -4 1.656 l 8 0 l -4 -1.656 z m 4 1.656 l 7.313 3.03 l -3.03 -3.03 l -4.281 0 z m 7.313 3.03 l 5.656 5.656 l -1.656 -4 l -4 -1.656 z m 5.656 5.656 l 3.03 7.313 l 0 -4.281 l -3.03 -3.03 z m 3.03 7.313 l 0 8 l 1.656 -4 l -1.656 -4 z m 0 8 l -3.03 7.313 l 3.03 -3.03 l 0 -4.281 z m -3.03 7.313 l -5.656 5.656 l 4 -1.656 l 1.656 -4 z m -5.656 5.656 l -7.313 3.03 l 4.281 0 l 3.03 -3.03 z m -7.313 3.03 l -8 0 l 4 1.656 l 4 -1.656 z m -8 0 l -7.313 -3.03 l 3.03 3.03 l 4.281 0 z m -7.313 -3.03 l -5.656 -5.656 l 1.656 4 l 4 1.656 z m -5.656 -5.656 l -3.03 -7.313 l 0 4.281 l 3.03 3.03 z m -3.03 -7.313 l 0 -8 l -1.656 4 l 1.656 4 z m 0 -8 l 3.03 -7.313 l -3.03 3.03 l 0 4.281 z m 3.03 -7.313 l 5.656 -5.656 l -4 1.656 l -1.656 4 z m 5.656 -5.656 l 7.313 -3.03 l -4.281 0 l -3.03 3.03 z" opacity="0.05" visibility="visible" fill="#eee" display="inline" fill-rule="nonzero" stroke="none" fill-opacity="1" color="#000"/></g><g><use opacity="0.05" stroke-opacity="1" stroke-dasharray="none" fill="#000" stroke="#000" stroke-width="2" stroke-miterlimit="4" xlink:href="#SVGCleanerId_0"/><use opacity="0.1" stroke-opacity="1" stroke-dasharray="none" fill="#000" stroke="#000" stroke-width="1" stroke-miterlimit="4" xlink:href="#SVGCleanerId_0"/></g><g><g clip-path="url(#clipPath-499208663)"><g transform="translate(0,1)"><g opacity="0.1"><!-- color: #eeeeee --><g><path d="M 9 0 L 0 0 L 0 48 L 9 48 M 9 0 " fill="#000" stroke="none" fill-rule="nonzero" fill-opacity="1"/><path d="m 39 6.563 c 4.898 4.219 8 10.469 8 17.438 c 0 6.969 -3.102 13.219 -8 17.438 m 0 -34.875" fill="#000" stroke="none" fill-rule="nonzero" fill-opacity="1"/><path d="m 39 0 l 0 15 l 9 0 c 0 -2 0 -14 0 -15 c -2 0 -8.535 0 -9 0 m 0 0" fill="#000" stroke="none" fill-rule="nonzero" fill-opacity="1"/><path d="m 39 15 l 0 9 l 9 0 c 0 -3.199 0 -8 0 -9 m -9 0" fill="#000" stroke="none" fill-rule="nonzero" fill-opacity="1"/><path d="m 39 24 l 0 9 l 9 0 l 0 -9 m -9 0" fill="#000" stroke="none" fill-rule="nonzero" fill-opacity="1"/><path d="m 39 33 l 0 15 l 9 0 l 0 -15 m -9 0" fill="#000" stroke="none" fill-rule="nonzero" fill-opacity="1"/><path d="m 23.13 26.688 l -3.801 -4.578 l -0.457 -4.68 l 5.488 -1.508 l 3.617 1.105 l 1.023 2.973 l -0.742 1.754 l -4.422 4.98 m -0.707 -0.047" fill="#000" stroke="none" fill-rule="nonzero" fill-opacity="0.941"/><path d="m 14 33 l 20 0 l 0 -1 c -0.523 -2.309 -3.207 -5.504 -6.551 -6.871 l -2.184 2.121 l -0.691 -0.457 l -1.918 -0.043 l -0.613 0.707 l -2.32 -2.301 c -2.559 1.125 -5.195 4.133 -5.723 6.844 m 0 1" fill="#000" stroke="none" fill-rule="nonzero" fill-opacity="1"/><path d="m 23.574 14.797 l 0.004 0 c 2.219 0 4.02 2.293 4.02 5.121 l 0 0.004 c 0 2.828 -1.801 5.117 -4.02 5.117 l -0.004 0 c -2.223 0 -4.02 -2.289 -4.02 -5.117 l 0 -0.004 c 0 -2.828 1.801 -5.121 4.02 -5.121 m 0 0" fill="#000" stroke="none" fill-rule="nonzero" fill-opacity="1"/><path d="m 26.375 23.879 c 0.43 -0.422 1.504 -1.293 1.625 -1.879 l 0.801 -2 l -0.809 -1.383 l -6.406 -2.383 l -1.043 0.883 l -1.727 2.25 l 0.426 2.535 l 0.223 0.648 l 1.305 1.324 m 5.605 0.004" fill="#000" stroke="none" fill-rule="nonzero" fill-opacity="1"/><path d="m 19.5 22.566 l 0 -3.133 c 0.32 -1.367 1.645 -2.75 2.301 -2.734 c 1.129 0.145 1.918 1.141 2.59 2.109 c 0.672 0.801 3.059 0.688 3.609 -0.078 c 0 1.168 0 2.102 0 3.27 c 0.629 -0.242 0.867 -1.195 1 -2 c 0 -9.156 -11 -9.293 -11 -0.566 c 0.094 1.086 0.867 2.617 1.5 3.133 m 0 0" fill="#000" stroke="none" fill-rule="nonzero" fill-opacity="1"/><path d="m 23.578 26.766 l 2.797 -2.898 l 1.398 1.449 l -2.801 2.898 m -1.395 -1.449" fill="#000" stroke="none" fill-rule="nonzero" fill-opacity="1"/><path d="m 20.781 23.871 l 2.797 2.898 l -1.398 1.449 l -2.797 -2.902 m 1.398 -1.445" fill="#000" stroke="none" fill-rule="nonzero" fill-opacity="1"/></g></g></g></g></g><g><g clip-path="url(#clipPath-511167967)"><!-- color: #eeeeee --><g><path d="M 9 0 L 0 0 L 0 48 L 9 48 M 9 0 " fill="#45a3eb" stroke="none" fill-rule="nonzero" fill-opacity="1"/><path d="m 39 6.563 c 4.898 4.219 8 10.469 8 17.438 c 0 6.969 -3.102 13.219 -8 17.438 m 0 -34.875" fill="#5b4c37" stroke="none" fill-rule="nonzero" fill-opacity="1"/><path d="m 39 0 l 0 15 l 9 0 c 0 -2 0 -14 0 -15 c -2 0 -8.535 0 -9 0 m 0 0" fill="#f8e57d" stroke="none" fill-rule="nonzero" fill-opacity="1"/><path d="m 39 15 l 0 9 l 9 0 c 0 -3.199 0 -8 0 -9 m -9 0" fill="#59e394" stroke="none" fill-rule="nonzero" fill-opacity="1"/><path d="m 39 24 l 0 9 l 9 0 l 0 -9 m -9 0" fill="#36c7d6" stroke="none" fill-rule="nonzero" fill-opacity="1"/><path d="m 39 33 l 0 15 l 9 0 l 0 -15 m -9 0" fill="#ec667f" stroke="none" fill-rule="nonzero" fill-opacity="1"/><path d="m 23.13 26.688 l -3.801 -4.578 l -0.457 -4.68 l 5.488 -1.508 l 3.617 1.105 l 1.023 2.973 l -0.742 1.754 l -4.422 4.98 m -0.707 -0.047" fill="#cf8e8e" stroke="none" fill-rule="nonzero" fill-opacity="0.941"/><path d="m 14 33 l 20 0 l 0 -1 c -0.523 -2.309 -3.207 -5.504 -6.551 -6.871 l -2.184 2.121 l -0.691 -0.457 l -1.918 -0.043 l -0.613 0.707 l -2.32 -2.301 c -2.559 1.125 -5.195 4.133 -5.723 6.844 m 0 1" fill="#cf3528" stroke="none" fill-rule="nonzero" fill-opacity="1"/><path d="m 23.574 14.797 l 0.004 0 c 2.219 0 4.02 2.293 4.02 5.121 l 0 0.004 c 0 2.828 -1.801 5.117 -4.02 5.117 l -0.004 0 c -2.223 0 -4.02 -2.289 -4.02 -5.117 l 0 -0.004 c 0 -2.828 1.801 -5.121 4.02 -5.121 m 0 0" fill="#fcc" stroke="none" fill-rule="nonzero" fill-opacity="1"/><path d="m 26.375 23.879 c 0.43 -0.422 1.504 -1.293 1.625 -1.879 l 0.801 -2 l -0.809 -1.383 l -6.406 -2.383 l -1.043 0.883 l -1.727 2.25 l 0.426 2.535 l 0.223 0.648 l 1.305 1.324 m 5.605 0.004" fill="#fcc" stroke="none" fill-rule="nonzero" fill-opacity="1"/><path d="m 19.5 22.566 l 0 -3.133 c 0.32 -1.367 1.645 -2.75 2.301 -2.734 c 1.129 0.145 1.918 1.141 2.59 2.109 c 0.672 0.801 3.059 0.688 3.609 -0.078 c 0 1.168 0 2.102 0 3.27 c 0.629 -0.242 0.867 -1.195 1 -2 c 0 -9.156 -11 -9.293 -11 -0.566 c 0.094 1.086 0.867 2.617 1.5 3.133 m 0 0" fill="#cf3628" stroke="none" fill-rule="nonzero" fill-opacity="1"/><path d="m 23.578 26.766 l 2.797 -2.898 l 1.398 1.449 l -2.801 2.898 m -1.395 -1.449" fill="#b2d4cf" stroke="none" fill-rule="nonzero" fill-opacity="1"/><path d="m 20.781 23.871 l 2.797 2.898 l -1.398 1.449 l -2.797 -2.902 m 1.398 -1.445" fill="#b2d4cf" stroke="none" fill-rule="nonzero" fill-opacity="1"/></g></g></g><g><path d="m 20 4 -7.313 3.03 -5.656 5.656 -3.03 7.313 0 8 3.03 7.313 5.656 5.656 7.313 3.03 8 0 7.313 -3.03 5.656 -5.656 3.03 -7.313 0 -8 -3.03 -7.313 -5.656 -5.656 -7.313 -3.03 -8 0 z" clip-path="url(#clipPath4313)" transform="matrix(0,1,-1,0,48,0)" opacity="0.3" stroke-opacity="1" stroke-dasharray="none" visibility="visible" fill="none" display="inline" stroke="url(#linearGradient4375)" color="#000" stroke-width="1" stroke-miterlimit="4"/><path d="m 24 2.344 -4 1.656 -4.281 0 -3.03 3.03 l -4 1.656 -1.656 4 l -3.03 3.03 0 4.281 -1.656 4 1.656 4 l 0 4.281 3.03 3.03 1.656 4 4 1.656 l 3.03 3.03 4.281 0 4 1.656 4 -1.656 l 4.281 0 3.03 -3.03 4 -1.656 1.656 -4 l 3.03 -3.03 0 -4.281 1.656 -4 -1.656 -4 l 0 -4.281 -3.03 -3.03 -1.656 -4 -4 -1.656 l -3.03 -3.03 -4.281 0 -4 -1.656 z" clip-path="url(#clipPath4329)" opacity="0.2" stroke-opacity="1" visibility="visible" fill="none" display="inline" stroke="#000" color="#000" stroke-width="2"/></g></svg>