<svg viewBox="0 0 48 48" xmlns:xlink="http://www.w3.org/1999/xlink"><defs><clipPath clipPathUnits="userSpaceOnUse" id="clipPath4313"><path d="m 20 4 -7.313 3.03 -5.656 5.656 -3.03 7.313 0 8 3.03 7.313 5.656 5.656 7.313 3.03 8 0 7.313 -3.03 5.656 -5.656 3.03 -7.313 0 -8 -3.03 -7.313 -5.656 -5.656 -7.313 -3.03 -8 0 z"/></clipPath><clipPath clipPathUnits="userSpaceOnUse" id="clipPath4329"><path d="m 24 2.344 -4 1.656 -4.281 0 -3.03 3.03 l -4 1.656 -1.656 4 l -3.03 3.03 0 4.281 -1.656 4 1.656 4 l 0 4.281 3.03 3.03 1.656 4 4 1.656 l 3.03 3.03 4.281 0 4 1.656 4 -1.656 l 4.281 0 3.03 -3.03 4 -1.656 1.656 -4 l 3.03 -3.03 0 -4.281 1.656 -4 -1.656 -4 l 0 -4.281 -3.03 -3.03 -1.656 -4 -4 -1.656 l -3.03 -3.03 -4.281 0 -4 -1.656 z"/></clipPath><clipPath id="clipPath-076314887"><path d="m 24 2.344 l -4 1.656 l -4.281 0 l -3.03 3.03 l -4 1.656 l -1.656 4 l -3.03 3.03 l 0 4.281 l -1.656 4 l 1.656 4 l 0 4.281 l 3.03 3.03 l 1.656 4 l 4 1.656 l 3.03 3.03 l 4.281 0 l 4 1.656 l 4 -1.656 l 4.281 0 l 3.03 -3.03 l 4 -1.656 l 1.656 -4 l 3.03 -3.03 l 0 -4.281 l 1.656 -4 l -1.656 -4 l 0 -4.281 l -3.03 -3.03 l -1.656 -4 l -4 -1.656 l -3.03 -3.03 l -4.281 0 l -4 -1.656 z"/></clipPath><clipPath id="clipPath-089431907"><path d="m 24 2.344 l -4 1.656 l -4.281 0 l -3.03 3.03 l -4 1.656 l -1.656 4 l -3.03 3.03 l 0 4.281 l -1.656 4 l 1.656 4 l 0 4.281 l 3.03 3.03 l 1.656 4 l 4 1.656 l 3.03 3.03 l 4.281 0 l 4 1.656 l 4 -1.656 l 4.281 0 l 3.03 -3.03 l 4 -1.656 l 1.656 -4 l 3.03 -3.03 l 0 -4.281 l 1.656 -4 l -1.656 -4 l 0 -4.281 l -3.03 -3.03 l -1.656 -4 l -4 -1.656 l -3.03 -3.03 l -4.281 0 l -4 -1.656 z"/></clipPath><linearGradient id="linearGradient4317"><stop stop-color="#fff" stop-opacity="1"/><stop offset="1" stop-color="#fff" stop-opacity="0"/></linearGradient><clipPath clipPathUnits="userSpaceOnUse" id="clipPath4313"><path d="m 20 4 -7.313 3.03 -5.656 5.656 -3.03 7.313 0 8 3.03 7.313 5.656 5.656 7.313 3.03 8 0 7.313 -3.03 5.656 -5.656 3.03 -7.313 0 -8 -3.03 -7.313 -5.656 -5.656 -7.313 -3.03 -8 0 z"/></clipPath><linearGradient x2="44" x1="4" gradientUnits="userSpaceOnUse" id="linearGradient4375" xlink:href="#linearGradient4317"/><clipPath clipPathUnits="userSpaceOnUse" id="clipPath4329"><path d="m 24 2.344 -4 1.656 -4.281 0 -3.03 3.03 l -4 1.656 -1.656 4 l -3.03 3.03 0 4.281 -1.656 4 1.656 4 l 0 4.281 3.03 3.03 1.656 4 4 1.656 l 3.03 3.03 4.281 0 4 1.656 4 -1.656 l 4.281 0 3.03 -3.03 4 -1.656 1.656 -4 l 3.03 -3.03 0 -4.281 1.656 -4 -1.656 -4 l 0 -4.281 -3.03 -3.03 -1.656 -4 -4 -1.656 l -3.03 -3.03 -4.281 0 -4 -1.656 z"/></clipPath><clipPath id="clip1"><path d="m 15 16 l 11 0 l 0 16 l -11 0 m 0 -16"/></clipPath><clipPath id="clip2"><path d="m 15 16.457 l 0 14.496 c 0.68 0.086 1.816 0.195 3.301 0.195 c 2.691 0 4.418 -0.457 5.469 -1.375 c 0.852 -0.699 1.422 -1.73 1.422 -3.039 c 0 -2.035 -1.422 -3.258 -2.977 -3.652 l 0 -0.043 c 1.598 -0.594 2.453 -1.84 2.453 -3.195 c 0 -1.246 -0.613 -2.207 -1.531 -2.754 c -1.01 -0.699 -2.23 -0.941 -4.223 -0.941 c -1.508 0 -3.059 0.133 -3.914 0.309 m 2.672 1.793 c 0.281 -0.066 0.742 -0.109 1.527 -0.109 c 1.707 0 2.758 0.633 2.758 2.01 c 0 1.246 -1.051 2.121 -2.91 2.121 l -1.375 0 m 0 6.777 l 0 -4.809 l 1.332 0 c 1.859 0 3.344 0.699 3.344 2.402 c 0 1.816 -1.531 2.473 -3.258 2.473 c -0.609 0 -1.07 0 -1.422 -0.066"/></clipPath><clipPath id="clip3"><path d="m 27 20 l 7 0 l 0 11 l -7 0 m 0 -11"/></clipPath><clipPath id="clip4"><path d="m 29.91 22.383 l -0.086 0 l -0.086 -2.035 l -2.34 0 c 0.063 0.961 0.086 1.992 0.086 3.434 l 0 7.215 l 2.691 0 l 0 -5.512 c 0 -0.305 0.043 -0.59 0.086 -0.828 c 0.242 -1.203 1.113 -2.035 2.406 -2.035 c 0.328 0 0.566 0.043 0.785 0.086 l 0 -2.535 c -0.219 -0.043 -0.371 -0.066 -0.633 -0.066 c -1.137 0 -2.383 0.766 -2.91 2.273"/></clipPath><clipPath id="clip1"><path d="m 15 16 l 11 0 l 0 16 l -11 0 m 0 -16"/></clipPath><clipPath id="clip2"><path d="m 15 16.457 l 0 14.496 c 0.68 0.086 1.816 0.195 3.301 0.195 c 2.691 0 4.418 -0.457 5.469 -1.375 c 0.852 -0.699 1.422 -1.73 1.422 -3.039 c 0 -2.035 -1.422 -3.258 -2.977 -3.652 l 0 -0.043 c 1.598 -0.594 2.453 -1.84 2.453 -3.195 c 0 -1.246 -0.613 -2.207 -1.531 -2.754 c -1.01 -0.699 -2.23 -0.941 -4.223 -0.941 c -1.508 0 -3.059 0.133 -3.914 0.309 m 2.672 1.793 c 0.281 -0.066 0.742 -0.109 1.527 -0.109 c 1.707 0 2.758 0.633 2.758 2.01 c 0 1.246 -1.051 2.121 -2.91 2.121 l -1.375 0 m 0 6.777 l 0 -4.809 l 1.332 0 c 1.859 0 3.344 0.699 3.344 2.402 c 0 1.816 -1.531 2.473 -3.258 2.473 c -0.609 0 -1.07 0 -1.422 -0.066"/></clipPath><clipPath id="clip3"><path d="m 27 20 l 7 0 l 0 11 l -7 0 m 0 -11"/></clipPath><clipPath id="clip4"><path d="m 29.91 22.383 l -0.086 0 l -0.086 -2.035 l -2.34 0 c 0.063 0.961 0.086 1.992 0.086 3.434 l 0 7.215 l 2.691 0 l 0 -5.512 c 0 -0.305 0.043 -0.59 0.086 -0.828 c 0.242 -1.203 1.113 -2.035 2.406 -2.035 c 0.328 0 0.566 0.043 0.785 0.086 l 0 -2.535 c -0.219 -0.043 -0.371 -0.066 -0.633 -0.066 c -1.137 0 -2.383 0.766 -2.91 2.273"/></clipPath><path id="SVGCleanerId_0" d="m 24 2.344 l -4 1.656 l -4.281 0 l -3.03 3.03 l -4 1.656 l -1.656 4 l -3.03 3.03 l 0 4.281 l -1.656 4 l 1.656 4 l 0 4.281 l 3.03 3.03 l 1.656 4 l 4 1.656 l 3.03 3.03 l 4.281 0 l 4 1.656 l 4 -1.656 l 4.281 0 l 3.03 -3.03 l 4 -1.656 l 1.656 -4 l 3.03 -3.03 l 0 -4.281 l 1.656 -4 l -1.656 -4 l 0 -4.281 l -3.03 -3.03 l -1.656 -4 l -4 -1.656 l -3.03 -3.03 l -4.281 0 l -4 -1.656 z" visibility="visible" display="inline" fill-rule="nonzero" color="#000" fill-opacity="1"/></defs><g><path d="m 2.563 24.5 l -0.219 0.5 l 1.656 4 l 0 -1 l -1.438 -3.5 z m 42.875 0 l -1.438 3.5 l 0 1 l 1.656 -4 l -0.219 -0.5 z m -41.44 7.781 l 0 1 l 3.03 3.03 l 1.656 4 l 4 1.656 l 3.03 3.03 l 4.281 0 l 4 1.656 l 4 -1.656 l 4.281 0 l 3.03 -3.03 l 4 -1.656 l 1.656 -4 l 3.03 -3.03 l 0 -1 l -3.03 3.03 l -1.656 4 l -4 1.656 l -3.03 3.03 l -4.281 0 l -4 1.656 l -4 -1.656 l -4.281 0 l -3.03 -3.03 l -4 -1.656 l -1.656 -4 l -3.03 -3.03 z" opacity="0.3" visibility="visible" fill="#000" display="inline" fill-rule="nonzero" stroke="none" fill-opacity="1" color="#000"/></g><g><use fill="#765a36" stroke="none" xlink:href="#SVGCleanerId_0"/><path d="m 24 2.344 l -4 1.656 l 8 0 l -4 -1.656 z m 4 1.656 l 7.313 3.03 l -3.03 -3.03 l -4.281 0 z m 7.313 3.03 l 5.656 5.656 l -1.656 -4 l -4 -1.656 z m 5.656 5.656 l 3.03 7.313 l 0 -4.281 l -3.03 -3.03 z m 3.03 7.313 l 0 8 l 1.656 -4 l -1.656 -4 z m 0 8 l -3.03 7.313 l 3.03 -3.03 l 0 -4.281 z m -3.03 7.313 l -5.656 5.656 l 4 -1.656 l 1.656 -4 z m -5.656 5.656 l -7.313 3.03 l 4.281 0 l 3.03 -3.03 z m -7.313 3.03 l -8 0 l 4 1.656 l 4 -1.656 z m -8 0 l -7.313 -3.03 l 3.03 3.03 l 4.281 0 z m -7.313 -3.03 l -5.656 -5.656 l 1.656 4 l 4 1.656 z m -5.656 -5.656 l -3.03 -7.313 l 0 4.281 l 3.03 3.03 z m -3.03 -7.313 l 0 -8 l -1.656 4 l 1.656 4 z m 0 -8 l 3.03 -7.313 l -3.03 3.03 l 0 4.281 z m 3.03 -7.313 l 5.656 -5.656 l -4 1.656 l -1.656 4 z m 5.656 -5.656 l 7.313 -3.03 l -4.281 0 l -3.03 3.03 z" opacity="0.05" visibility="visible" fill="#765a36" display="inline" fill-rule="nonzero" stroke="none" fill-opacity="1" color="#000"/></g><g><use opacity="0.05" stroke-opacity="1" stroke-dasharray="none" fill="#000" stroke="#000" stroke-width="2" stroke-miterlimit="4" xlink:href="#SVGCleanerId_0"/><use opacity="0.1" stroke-opacity="1" stroke-dasharray="none" fill="#000" stroke="#000" stroke-width="1" stroke-miterlimit="4" xlink:href="#SVGCleanerId_0"/></g><g><g clip-path="url(#clipPath-076314887)"><g transform="translate(0,1)"><g opacity="0.1"><!-- color: #765a36 --><g><g clip-path="url(#clip1)"><g clip-path="url(#clip2)"><path d="m 15 16.457 l 0 14.496 c 0.68 0.086 1.816 0.195 3.301 0.195 c 2.691 0 4.418 -0.457 5.469 -1.375 c 0.852 -0.699 1.422 -1.73 1.422 -3.039 c 0 -2.035 -1.422 -3.258 -2.977 -3.652 l 0 -0.043 c 1.598 -0.594 2.453 -1.84 2.453 -3.195 c 0 -1.246 -0.613 -2.207 -1.531 -2.754 c -1.01 -0.699 -2.23 -0.941 -4.223 -0.941 c -1.508 0 -3.059 0.133 -3.914 0.309 m 2.672 1.793 c 0.281 -0.066 0.742 -0.109 1.527 -0.109 c 1.707 0 2.758 0.633 2.758 2.01 c 0 1.246 -1.051 2.121 -2.91 2.121 l -1.375 0 m 0 6.777 l 0 -4.809 l 1.332 0 c 1.859 0 3.344 0.699 3.344 2.402 c 0 1.816 -1.531 2.473 -3.258 2.473 c -0.609 0 -1.07 0 -1.422 -0.066" fill="#000" stroke="none" fill-rule="nonzero" fill-opacity="1"/></g></g><g clip-path="url(#clip3)"><g clip-path="url(#clip4)"><path d="m 29.91 22.383 l -0.086 0 l -0.086 -2.035 l -2.34 0 c 0.063 0.961 0.086 1.992 0.086 3.434 l 0 7.215 l 2.691 0 l 0 -5.512 c 0 -0.305 0.043 -0.59 0.086 -0.828 c 0.242 -1.203 1.113 -2.035 2.406 -2.035 c 0.328 0 0.566 0.043 0.785 0.086 l 0 -2.535 c -0.219 -0.043 -0.371 -0.066 -0.633 -0.066 c -1.137 0 -2.383 0.766 -2.91 2.273" fill="#000" stroke="none" fill-rule="nonzero" fill-opacity="1"/></g></g></g></g></g></g></g><g><g clip-path="url(#clipPath-089431907)"><!-- color: #765a36 --><g><g clip-path="url(#clip1)"><g clip-path="url(#clip2)"><path d="m 15 16.457 l 0 14.496 c 0.68 0.086 1.816 0.195 3.301 0.195 c 2.691 0 4.418 -0.457 5.469 -1.375 c 0.852 -0.699 1.422 -1.73 1.422 -3.039 c 0 -2.035 -1.422 -3.258 -2.977 -3.652 l 0 -0.043 c 1.598 -0.594 2.453 -1.84 2.453 -3.195 c 0 -1.246 -0.613 -2.207 -1.531 -2.754 c -1.01 -0.699 -2.23 -0.941 -4.223 -0.941 c -1.508 0 -3.059 0.133 -3.914 0.309 m 2.672 1.793 c 0.281 -0.066 0.742 -0.109 1.527 -0.109 c 1.707 0 2.758 0.633 2.758 2.01 c 0 1.246 -1.051 2.121 -2.91 2.121 l -1.375 0 m 0 6.777 l 0 -4.809 l 1.332 0 c 1.859 0 3.344 0.699 3.344 2.402 c 0 1.816 -1.531 2.473 -3.258 2.473 c -0.609 0 -1.07 0 -1.422 -0.066" fill="#ecbf03" stroke="none" fill-rule="nonzero" fill-opacity="1"/></g></g><g clip-path="url(#clip3)"><g clip-path="url(#clip4)"><path d="m 29.91 22.383 l -0.086 0 l -0.086 -2.035 l -2.34 0 c 0.063 0.961 0.086 1.992 0.086 3.434 l 0 7.215 l 2.691 0 l 0 -5.512 c 0 -0.305 0.043 -0.59 0.086 -0.828 c 0.242 -1.203 1.113 -2.035 2.406 -2.035 c 0.328 0 0.566 0.043 0.785 0.086 l 0 -2.535 c -0.219 -0.043 -0.371 -0.066 -0.633 -0.066 c -1.137 0 -2.383 0.766 -2.91 2.273" fill="#ecbf03" stroke="none" fill-rule="nonzero" fill-opacity="1"/></g></g></g></g></g><g><path d="m 20 4 -7.313 3.03 -5.656 5.656 -3.03 7.313 0 8 3.03 7.313 5.656 5.656 7.313 3.03 8 0 7.313 -3.03 5.656 -5.656 3.03 -7.313 0 -8 -3.03 -7.313 -5.656 -5.656 -7.313 -3.03 -8 0 z" clip-path="url(#clipPath4313)" transform="matrix(0,1,-1,0,48,0)" opacity="0.3" stroke-opacity="1" stroke-dasharray="none" visibility="visible" fill="none" display="inline" stroke="url(#linearGradient4375)" color="#000" stroke-width="1" stroke-miterlimit="4"/><path d="m 24 2.344 -4 1.656 -4.281 0 -3.03 3.03 l -4 1.656 -1.656 4 l -3.03 3.03 0 4.281 -1.656 4 1.656 4 l 0 4.281 3.03 3.03 1.656 4 4 1.656 l 3.03 3.03 4.281 0 4 1.656 4 -1.656 l 4.281 0 3.03 -3.03 4 -1.656 1.656 -4 l 3.03 -3.03 0 -4.281 1.656 -4 -1.656 -4 l 0 -4.281 -3.03 -3.03 -1.656 -4 -4 -1.656 l -3.03 -3.03 -4.281 0 -4 -1.656 z" clip-path="url(#clipPath4329)" opacity="0.2" stroke-opacity="1" visibility="visible" fill="none" display="inline" stroke="#000" color="#000" stroke-width="2"/></g></svg>