<svg viewBox="0 0 48 48" xmlns:xlink="http://www.w3.org/1999/xlink"><defs><clipPath clipPathUnits="userSpaceOnUse" id="clipPath4313"><path d="m 20 4 -7.313 3.03 -5.656 5.656 -3.03 7.313 0 8 3.03 7.313 5.656 5.656 7.313 3.03 8 0 7.313 -3.03 5.656 -5.656 3.03 -7.313 0 -8 -3.03 -7.313 -5.656 -5.656 -7.313 -3.03 -8 0 z"/></clipPath><clipPath clipPathUnits="userSpaceOnUse" id="clipPath4329"><path d="m 24 2.344 -4 1.656 -4.281 0 -3.03 3.03 l -4 1.656 -1.656 4 l -3.03 3.03 0 4.281 -1.656 4 1.656 4 l 0 4.281 3.03 3.03 1.656 4 4 1.656 l 3.03 3.03 4.281 0 4 1.656 4 -1.656 l 4.281 0 3.03 -3.03 4 -1.656 1.656 -4 l 3.03 -3.03 0 -4.281 1.656 -4 -1.656 -4 l 0 -4.281 -3.03 -3.03 -1.656 -4 -4 -1.656 l -3.03 -3.03 -4.281 0 -4 -1.656 z"/></clipPath><clipPath id="clipPath-389075896"><path d="m 24 2.344 l -4 1.656 l -4.281 0 l -3.03 3.03 l -4 1.656 l -1.656 4 l -3.03 3.03 l 0 4.281 l -1.656 4 l 1.656 4 l 0 4.281 l 3.03 3.03 l 1.656 4 l 4 1.656 l 3.03 3.03 l 4.281 0 l 4 1.656 l 4 -1.656 l 4.281 0 l 3.03 -3.03 l 4 -1.656 l 1.656 -4 l 3.03 -3.03 l 0 -4.281 l 1.656 -4 l -1.656 -4 l 0 -4.281 l -3.03 -3.03 l -1.656 -4 l -4 -1.656 l -3.03 -3.03 l -4.281 0 l -4 -1.656 z"/></clipPath><clipPath id="clipPath-394749002"><path d="m 24 2.344 l -4 1.656 l -4.281 0 l -3.03 3.03 l -4 1.656 l -1.656 4 l -3.03 3.03 l 0 4.281 l -1.656 4 l 1.656 4 l 0 4.281 l 3.03 3.03 l 1.656 4 l 4 1.656 l 3.03 3.03 l 4.281 0 l 4 1.656 l 4 -1.656 l 4.281 0 l 3.03 -3.03 l 4 -1.656 l 1.656 -4 l 3.03 -3.03 l 0 -4.281 l 1.656 -4 l -1.656 -4 l 0 -4.281 l -3.03 -3.03 l -1.656 -4 l -4 -1.656 l -3.03 -3.03 l -4.281 0 l -4 -1.656 z"/></clipPath><linearGradient id="linearGradient4317"><stop stop-color="#fff" stop-opacity="1"/><stop offset="1" stop-color="#fff" stop-opacity="0"/></linearGradient><clipPath clipPathUnits="userSpaceOnUse" id="clipPath4313"><path d="m 20 4 -7.313 3.03 -5.656 5.656 -3.03 7.313 0 8 3.03 7.313 5.656 5.656 7.313 3.03 8 0 7.313 -3.03 5.656 -5.656 3.03 -7.313 0 -8 -3.03 -7.313 -5.656 -5.656 -7.313 -3.03 -8 0 z"/></clipPath><linearGradient x2="44" x1="4" gradientUnits="userSpaceOnUse" id="linearGradient4375" xlink:href="#linearGradient4317"/><clipPath clipPathUnits="userSpaceOnUse" id="clipPath4329"><path d="m 24 2.344 -4 1.656 -4.281 0 -3.03 3.03 l -4 1.656 -1.656 4 l -3.03 3.03 0 4.281 -1.656 4 1.656 4 l 0 4.281 3.03 3.03 1.656 4 4 1.656 l 3.03 3.03 4.281 0 4 1.656 4 -1.656 l 4.281 0 3.03 -3.03 4 -1.656 1.656 -4 l 3.03 -3.03 0 -4.281 1.656 -4 -1.656 -4 l 0 -4.281 -3.03 -3.03 -1.656 -4 -4 -1.656 l -3.03 -3.03 -4.281 0 -4 -1.656 z"/></clipPath><clipPath id="clip1"><path d="m 13 16 l 8.66 0 l 0 2.25 l -8.66 0 m 0 0 l 2.738 0 l 0 4.137 l -2.738 0 m 0 0 l 8.258 0 l 0 2.25 l -8.258 0 m 0 0 l 2.738 0 l 0 6.363 l -2.738 0 m 0 -6.363"/></clipPath><clipPath id="clip2"><path d="m 22 20 l 15 0 l 0 11 l -15 0 m 0 -11"/></clipPath><clipPath id="clip3"><path d="m 34.383 20.16 l -1.113 4.805 c -0.266 1.27 -0.492 2.449 -0.656 3.629 l -0.043 0 c -0.227 -1.18 -0.492 -2.359 -0.805 -3.629 l -1.254 -4.805 l -2.063 0 l -1.297 4.941 c -0.289 1.113 -0.621 2.313 -0.828 3.492 l -0.039 0 c -0.188 -1.18 -0.414 -2.359 -0.641 -3.516 l -1.051 -4.918 l -2.594 0 l 2.965 10.836 l 2.371 0 l 1.277 -4.406 c 0.289 -1.066 0.555 -2.137 0.762 -3.473 l 0.043 0 c 0.227 1.313 0.453 2.336 0.762 3.473 l 1.195 4.406 l 2.348 0 l 3.156 -10.836 m -2.496 0"/></clipPath><clipPath id="clip1"><path d="m 13 16 l 8.66 0 l 0 2.25 l -8.66 0 m 0 0 l 2.738 0 l 0 4.137 l -2.738 0 m 0 0 l 8.258 0 l 0 2.25 l -8.258 0 m 0 0 l 2.738 0 l 0 6.363 l -2.738 0 m 0 -6.363"/></clipPath><clipPath id="clip2"><path d="m 22 20 l 15 0 l 0 11 l -15 0 m 0 -11"/></clipPath><clipPath id="clip3"><path d="m 34.383 20.16 l -1.113 4.805 c -0.266 1.27 -0.492 2.449 -0.656 3.629 l -0.043 0 c -0.227 -1.18 -0.492 -2.359 -0.805 -3.629 l -1.254 -4.805 l -2.063 0 l -1.297 4.941 c -0.289 1.113 -0.621 2.313 -0.828 3.492 l -0.039 0 c -0.188 -1.18 -0.414 -2.359 -0.641 -3.516 l -1.051 -4.918 l -2.594 0 l 2.965 10.836 l 2.371 0 l 1.277 -4.406 c 0.289 -1.066 0.555 -2.137 0.762 -3.473 l 0.043 0 c 0.227 1.313 0.453 2.336 0.762 3.473 l 1.195 4.406 l 2.348 0 l 3.156 -10.836 m -2.496 0"/></clipPath><path id="SVGCleanerId_0" d="m 24 2.344 l -4 1.656 l -4.281 0 l -3.03 3.03 l -4 1.656 l -1.656 4 l -3.03 3.03 l 0 4.281 l -1.656 4 l 1.656 4 l 0 4.281 l 3.03 3.03 l 1.656 4 l 4 1.656 l 3.03 3.03 l 4.281 0 l 4 1.656 l 4 -1.656 l 4.281 0 l 3.03 -3.03 l 4 -1.656 l 1.656 -4 l 3.03 -3.03 l 0 -4.281 l 1.656 -4 l -1.656 -4 l 0 -4.281 l -3.03 -3.03 l -1.656 -4 l -4 -1.656 l -3.03 -3.03 l -4.281 0 l -4 -1.656 z" visibility="visible" display="inline" fill-rule="nonzero" color="#000" fill-opacity="1"/></defs><g><path d="m 2.563 24.5 l -0.219 0.5 l 1.656 4 l 0 -1 l -1.438 -3.5 z m 42.875 0 l -1.438 3.5 l 0 1 l 1.656 -4 l -0.219 -0.5 z m -41.44 7.781 l 0 1 l 3.03 3.03 l 1.656 4 l 4 1.656 l 3.03 3.03 l 4.281 0 l 4 1.656 l 4 -1.656 l 4.281 0 l 3.03 -3.03 l 4 -1.656 l 1.656 -4 l 3.03 -3.03 l 0 -1 l -3.03 3.03 l -1.656 4 l -4 1.656 l -3.03 3.03 l -4.281 0 l -4 1.656 l -4 -1.656 l -4.281 0 l -3.03 -3.03 l -4 -1.656 l -1.656 -4 l -3.03 -3.03 z" opacity="0.3" visibility="visible" fill="#000" display="inline" fill-rule="nonzero" stroke="none" fill-opacity="1" color="#000"/></g><g><use fill="#606034" stroke="none" xlink:href="#SVGCleanerId_0"/><path d="m 24 2.344 l -4 1.656 l 8 0 l -4 -1.656 z m 4 1.656 l 7.313 3.03 l -3.03 -3.03 l -4.281 0 z m 7.313 3.03 l 5.656 5.656 l -1.656 -4 l -4 -1.656 z m 5.656 5.656 l 3.03 7.313 l 0 -4.281 l -3.03 -3.03 z m 3.03 7.313 l 0 8 l 1.656 -4 l -1.656 -4 z m 0 8 l -3.03 7.313 l 3.03 -3.03 l 0 -4.281 z m -3.03 7.313 l -5.656 5.656 l 4 -1.656 l 1.656 -4 z m -5.656 5.656 l -7.313 3.03 l 4.281 0 l 3.03 -3.03 z m -7.313 3.03 l -8 0 l 4 1.656 l 4 -1.656 z m -8 0 l -7.313 -3.03 l 3.03 3.03 l 4.281 0 z m -7.313 -3.03 l -5.656 -5.656 l 1.656 4 l 4 1.656 z m -5.656 -5.656 l -3.03 -7.313 l 0 4.281 l 3.03 3.03 z m -3.03 -7.313 l 0 -8 l -1.656 4 l 1.656 4 z m 0 -8 l 3.03 -7.313 l -3.03 3.03 l 0 4.281 z m 3.03 -7.313 l 5.656 -5.656 l -4 1.656 l -1.656 4 z m 5.656 -5.656 l 7.313 -3.03 l -4.281 0 l -3.03 3.03 z" opacity="0.05" visibility="visible" fill="#606034" display="inline" fill-rule="nonzero" stroke="none" fill-opacity="1" color="#000"/></g><g><use opacity="0.05" stroke-opacity="1" stroke-dasharray="none" fill="#000" stroke="#000" stroke-width="2" stroke-miterlimit="4" xlink:href="#SVGCleanerId_0"/><use opacity="0.1" stroke-opacity="1" stroke-dasharray="none" fill="#000" stroke="#000" stroke-width="1" stroke-miterlimit="4" xlink:href="#SVGCleanerId_0"/></g><g><g clip-path="url(#clipPath-389075896)"><g transform="translate(0,1)"><g opacity="0.1"><!-- color: #606034 --><g><g clip-path="url(#clip1)"><path d="m 13 16 l 0 15 l 2.738 0 l 0 -6.363 l 5.52 0 l 0 -2.25 l -5.52 0 l 0 -4.137 l 5.922 0 l 0 -2.25 m -8.66 0" fill="#000" stroke="none" fill-rule="nonzero" fill-opacity="1"/></g><g clip-path="url(#clip2)"><g clip-path="url(#clip3)"><path d="m 34.383 20.16 l -1.113 4.805 c -0.266 1.27 -0.492 2.449 -0.656 3.629 l -0.043 0 c -0.227 -1.18 -0.492 -2.359 -0.805 -3.629 l -1.254 -4.805 l -2.063 0 l -1.297 4.941 c -0.289 1.113 -0.621 2.313 -0.828 3.492 l -0.039 0 c -0.188 -1.18 -0.414 -2.359 -0.641 -3.516 l -1.051 -4.918 l -2.594 0 l 2.965 10.836 l 2.371 0 l 1.277 -4.406 c 0.289 -1.066 0.555 -2.137 0.762 -3.473 l 0.043 0 c 0.227 1.313 0.453 2.336 0.762 3.473 l 1.195 4.406 l 2.348 0 l 3.156 -10.836 m -2.496 0" fill="#000" stroke="none" fill-rule="nonzero" fill-opacity="1"/></g></g></g></g></g></g></g><g><g clip-path="url(#clipPath-394749002)"><!-- color: #606034 --><g><g clip-path="url(#clip1)"><path d="m 13 16 l 0 15 l 2.738 0 l 0 -6.363 l 5.52 0 l 0 -2.25 l -5.52 0 l 0 -4.137 l 5.922 0 l 0 -2.25 m -8.66 0" fill="#e5d703" stroke="none" fill-rule="nonzero" fill-opacity="1"/></g><g clip-path="url(#clip2)"><g clip-path="url(#clip3)"><path d="m 34.383 20.16 l -1.113 4.805 c -0.266 1.27 -0.492 2.449 -0.656 3.629 l -0.043 0 c -0.227 -1.18 -0.492 -2.359 -0.805 -3.629 l -1.254 -4.805 l -2.063 0 l -1.297 4.941 c -0.289 1.113 -0.621 2.313 -0.828 3.492 l -0.039 0 c -0.188 -1.18 -0.414 -2.359 -0.641 -3.516 l -1.051 -4.918 l -2.594 0 l 2.965 10.836 l 2.371 0 l 1.277 -4.406 c 0.289 -1.066 0.555 -2.137 0.762 -3.473 l 0.043 0 c 0.227 1.313 0.453 2.336 0.762 3.473 l 1.195 4.406 l 2.348 0 l 3.156 -10.836 m -2.496 0" fill="#e5d703" stroke="none" fill-rule="nonzero" fill-opacity="1"/></g></g></g></g></g><g><path d="m 20 4 -7.313 3.03 -5.656 5.656 -3.03 7.313 0 8 3.03 7.313 5.656 5.656 7.313 3.03 8 0 7.313 -3.03 5.656 -5.656 3.03 -7.313 0 -8 -3.03 -7.313 -5.656 -5.656 -7.313 -3.03 -8 0 z" clip-path="url(#clipPath4313)" transform="matrix(0,1,-1,0,48,0)" opacity="0.3" stroke-opacity="1" stroke-dasharray="none" visibility="visible" fill="none" display="inline" stroke="url(#linearGradient4375)" color="#000" stroke-width="1" stroke-miterlimit="4"/><path d="m 24 2.344 -4 1.656 -4.281 0 -3.03 3.03 l -4 1.656 -1.656 4 l -3.03 3.03 0 4.281 -1.656 4 1.656 4 l 0 4.281 3.03 3.03 1.656 4 4 1.656 l 3.03 3.03 4.281 0 4 1.656 4 -1.656 l 4.281 0 3.03 -3.03 4 -1.656 1.656 -4 l 3.03 -3.03 0 -4.281 1.656 -4 -1.656 -4 l 0 -4.281 -3.03 -3.03 -1.656 -4 -4 -1.656 l -3.03 -3.03 -4.281 0 -4 -1.656 z" clip-path="url(#clipPath4329)" opacity="0.2" stroke-opacity="1" visibility="visible" fill="none" display="inline" stroke="#000" color="#000" stroke-width="2"/></g></svg>