<svg viewBox="0 0 48 48" xmlns:xlink="http://www.w3.org/1999/xlink"><defs><clipPath clipPathUnits="userSpaceOnUse" id="clipPath4313"><path d="m 20 4 -7.313 3.03 -5.656 5.656 -3.03 7.313 0 8 3.03 7.313 5.656 5.656 7.313 3.03 8 0 7.313 -3.03 5.656 -5.656 3.03 -7.313 0 -8 -3.03 -7.313 -5.656 -5.656 -7.313 -3.03 -8 0 z"/></clipPath><clipPath clipPathUnits="userSpaceOnUse" id="clipPath4329"><path d="m 24 2.344 -4 1.656 -4.281 0 -3.03 3.03 l -4 1.656 -1.656 4 l -3.03 3.03 0 4.281 -1.656 4 1.656 4 l 0 4.281 3.03 3.03 1.656 4 4 1.656 l 3.03 3.03 4.281 0 4 1.656 4 -1.656 l 4.281 0 3.03 -3.03 4 -1.656 1.656 -4 l 3.03 -3.03 0 -4.281 1.656 -4 -1.656 -4 l 0 -4.281 -3.03 -3.03 -1.656 -4 -4 -1.656 l -3.03 -3.03 -4.281 0 -4 -1.656 z"/></clipPath><clipPath id="clipPath-958473078"><path d="m 24 2.344 l -4 1.656 l -4.281 0 l -3.03 3.03 l -4 1.656 l -1.656 4 l -3.03 3.03 l 0 4.281 l -1.656 4 l 1.656 4 l 0 4.281 l 3.03 3.03 l 1.656 4 l 4 1.656 l 3.03 3.03 l 4.281 0 l 4 1.656 l 4 -1.656 l 4.281 0 l 3.03 -3.03 l 4 -1.656 l 1.656 -4 l 3.03 -3.03 l 0 -4.281 l 1.656 -4 l -1.656 -4 l 0 -4.281 l -3.03 -3.03 l -1.656 -4 l -4 -1.656 l -3.03 -3.03 l -4.281 0 l -4 -1.656 z"/></clipPath><clipPath id="clipPath-967650707"><path d="m 24 2.344 l -4 1.656 l -4.281 0 l -3.03 3.03 l -4 1.656 l -1.656 4 l -3.03 3.03 l 0 4.281 l -1.656 4 l 1.656 4 l 0 4.281 l 3.03 3.03 l 1.656 4 l 4 1.656 l 3.03 3.03 l 4.281 0 l 4 1.656 l 4 -1.656 l 4.281 0 l 3.03 -3.03 l 4 -1.656 l 1.656 -4 l 3.03 -3.03 l 0 -4.281 l 1.656 -4 l -1.656 -4 l 0 -4.281 l -3.03 -3.03 l -1.656 -4 l -4 -1.656 l -3.03 -3.03 l -4.281 0 l -4 -1.656 z"/></clipPath><linearGradient id="linearGradient4317"><stop stop-color="#fff" stop-opacity="1"/><stop offset="1" stop-color="#fff" stop-opacity="0"/></linearGradient><clipPath clipPathUnits="userSpaceOnUse" id="clipPath4313"><path d="m 20 4 -7.313 3.03 -5.656 5.656 -3.03 7.313 0 8 3.03 7.313 5.656 5.656 7.313 3.03 8 0 7.313 -3.03 5.656 -5.656 3.03 -7.313 0 -8 -3.03 -7.313 -5.656 -5.656 -7.313 -3.03 -8 0 z"/></clipPath><linearGradient x2="44" x1="4" gradientUnits="userSpaceOnUse" id="linearGradient4375" xlink:href="#linearGradient4317"/><clipPath clipPathUnits="userSpaceOnUse" id="clipPath4329"><path d="m 24 2.344 -4 1.656 -4.281 0 -3.03 3.03 l -4 1.656 -1.656 4 l -3.03 3.03 0 4.281 -1.656 4 1.656 4 l 0 4.281 3.03 3.03 1.656 4 4 1.656 l 3.03 3.03 4.281 0 4 1.656 4 -1.656 l 4.281 0 3.03 -3.03 4 -1.656 1.656 -4 l 3.03 -3.03 0 -4.281 1.656 -4 -1.656 -4 l 0 -4.281 -3.03 -3.03 -1.656 -4 -4 -1.656 l -3.03 -3.03 -4.281 0 -4 -1.656 z"/></clipPath><clipPath id="clip1"><path d="m 25 20 l 11 0 l 0 12 l -11 0 m 0 -12"/></clipPath><clipPath id="clip2"><path d="m 32.754 20.5 l 0 6.336 c 0 0.301 -0.066 0.582 -0.152 0.82 c -0.277 0.668 -0.969 1.422 -2.023 1.422 c -1.402 0 -1.961 -1.121 -1.961 -2.867 l 0 -5.711 l -2.652 0 l 0 6.164 c 0 3.426 1.746 4.57 3.664 4.57 c 1.875 0 2.91 -1.078 3.363 -1.832 l 0.043 0 l 0.129 1.594 l 2.328 0 c -0.043 -0.863 -0.086 -1.898 -0.086 -3.148 l 0 -7.348 m -2.652 0"/></clipPath><clipPath id="clip1"><path d="m 25 20 l 11 0 l 0 12 l -11 0 m 0 -12"/></clipPath><clipPath id="clip2"><path d="m 32.754 20.5 l 0 6.336 c 0 0.301 -0.066 0.582 -0.152 0.82 c -0.277 0.668 -0.969 1.422 -2.023 1.422 c -1.402 0 -1.961 -1.121 -1.961 -2.867 l 0 -5.711 l -2.652 0 l 0 6.164 c 0 3.426 1.746 4.57 3.664 4.57 c 1.875 0 2.91 -1.078 3.363 -1.832 l 0.043 0 l 0.129 1.594 l 2.328 0 c -0.043 -0.863 -0.086 -1.898 -0.086 -3.148 l 0 -7.348 m -2.652 0"/></clipPath><path id="SVGCleanerId_0" d="m 24 2.344 l -4 1.656 l -4.281 0 l -3.03 3.03 l -4 1.656 l -1.656 4 l -3.03 3.03 l 0 4.281 l -1.656 4 l 1.656 4 l 0 4.281 l 3.03 3.03 l 1.656 4 l 4 1.656 l 3.03 3.03 l 4.281 0 l 4 1.656 l 4 -1.656 l 4.281 0 l 3.03 -3.03 l 4 -1.656 l 1.656 -4 l 3.03 -3.03 l 0 -4.281 l 1.656 -4 l -1.656 -4 l 0 -4.281 l -3.03 -3.03 l -1.656 -4 l -4 -1.656 l -3.03 -3.03 l -4.281 0 l -4 -1.656 z" visibility="visible" display="inline" fill-rule="nonzero" color="#000" fill-opacity="1"/></defs><g><path d="m 2.563 24.5 l -0.219 0.5 l 1.656 4 l 0 -1 l -1.438 -3.5 z m 42.875 0 l -1.438 3.5 l 0 1 l 1.656 -4 l -0.219 -0.5 z m -41.44 7.781 l 0 1 l 3.03 3.03 l 1.656 4 l 4 1.656 l 3.03 3.03 l 4.281 0 l 4 1.656 l 4 -1.656 l 4.281 0 l 3.03 -3.03 l 4 -1.656 l 1.656 -4 l 3.03 -3.03 l 0 -1 l -3.03 3.03 l -1.656 4 l -4 1.656 l -3.03 3.03 l -4.281 0 l -4 1.656 l -4 -1.656 l -4.281 0 l -3.03 -3.03 l -4 -1.656 l -1.656 -4 l -3.03 -3.03 z" opacity="0.3" visibility="visible" fill="#000" display="inline" fill-rule="nonzero" stroke="none" fill-opacity="1" color="#000"/></g><g><use fill="#445e86" stroke="none" xlink:href="#SVGCleanerId_0"/><path d="m 24 2.344 l -4 1.656 l 8 0 l -4 -1.656 z m 4 1.656 l 7.313 3.03 l -3.03 -3.03 l -4.281 0 z m 7.313 3.03 l 5.656 5.656 l -1.656 -4 l -4 -1.656 z m 5.656 5.656 l 3.03 7.313 l 0 -4.281 l -3.03 -3.03 z m 3.03 7.313 l 0 8 l 1.656 -4 l -1.656 -4 z m 0 8 l -3.03 7.313 l 3.03 -3.03 l 0 -4.281 z m -3.03 7.313 l -5.656 5.656 l 4 -1.656 l 1.656 -4 z m -5.656 5.656 l -7.313 3.03 l 4.281 0 l 3.03 -3.03 z m -7.313 3.03 l -8 0 l 4 1.656 l 4 -1.656 z m -8 0 l -7.313 -3.03 l 3.03 3.03 l 4.281 0 z m -7.313 -3.03 l -5.656 -5.656 l 1.656 4 l 4 1.656 z m -5.656 -5.656 l -3.03 -7.313 l 0 4.281 l 3.03 3.03 z m -3.03 -7.313 l 0 -8 l -1.656 4 l 1.656 4 z m 0 -8 l 3.03 -7.313 l -3.03 3.03 l 0 4.281 z m 3.03 -7.313 l 5.656 -5.656 l -4 1.656 l -1.656 4 z m 5.656 -5.656 l 7.313 -3.03 l -4.281 0 l -3.03 3.03 z" opacity="0.05" visibility="visible" fill="#445e86" display="inline" fill-rule="nonzero" stroke="none" fill-opacity="1" color="#000"/></g><g><use opacity="0.05" stroke-opacity="1" stroke-dasharray="none" fill="#000" stroke="#000" stroke-width="2" stroke-miterlimit="4" xlink:href="#SVGCleanerId_0"/><use opacity="0.1" stroke-opacity="1" stroke-dasharray="none" fill="#000" stroke="#000" stroke-width="1" stroke-miterlimit="4" xlink:href="#SVGCleanerId_0"/></g><g><g clip-path="url(#clipPath-958473078)"><g transform="translate(0,1)"><g opacity="0.1"><!-- color: #445e86 --><g><path d="m 16.832 16.234 l -4.633 14.762 l 2.723 0 l 1.242 -4.184 l 4.59 0 l 1.309 4.184 l 2.824 0 l -4.695 -14.762 l -3.363 0 m 0.883 4.91 c 0.258 -0.875 0.469 -1.906 0.688 -2.762 l 0.039 0 c 0.219 0.855 0.453 1.859 0.73 2.762 l 1.141 3.633 l -3.711 0 l 1.117 -3.633 m -0.004 0" fill="#000" stroke="none" fill-rule="nonzero" fill-opacity="1"/><g clip-path="url(#clip1)"><g clip-path="url(#clip2)"><path d="m 32.754 20.5 l 0 6.336 c 0 0.301 -0.066 0.582 -0.152 0.82 c -0.277 0.668 -0.969 1.422 -2.023 1.422 c -1.402 0 -1.961 -1.121 -1.961 -2.867 l 0 -5.711 l -2.652 0 l 0 6.164 c 0 3.426 1.746 4.57 3.664 4.57 c 1.875 0 2.91 -1.078 3.363 -1.832 l 0.043 0 l 0.129 1.594 l 2.328 0 c -0.043 -0.863 -0.086 -1.898 -0.086 -3.148 l 0 -7.348 m -2.652 0" fill="#000" stroke="none" fill-rule="nonzero" fill-opacity="1"/></g></g></g></g></g></g></g><g><g clip-path="url(#clipPath-967650707)"><!-- color: #445e86 --><g><path d="m 16.832 16.234 l -4.633 14.762 l 2.723 0 l 1.242 -4.184 l 4.59 0 l 1.309 4.184 l 2.824 0 l -4.695 -14.762 l -3.363 0 m 0.883 4.91 c 0.258 -0.875 0.469 -1.906 0.688 -2.762 l 0.039 0 c 0.219 0.855 0.453 1.859 0.73 2.762 l 1.141 3.633 l -3.711 0 l 1.117 -3.633 m -0.004 0" fill="#53f2e5" stroke="none" fill-rule="nonzero" fill-opacity="1"/><g clip-path="url(#clip1)"><g clip-path="url(#clip2)"><path d="m 32.754 20.5 l 0 6.336 c 0 0.301 -0.066 0.582 -0.152 0.82 c -0.277 0.668 -0.969 1.422 -2.023 1.422 c -1.402 0 -1.961 -1.121 -1.961 -2.867 l 0 -5.711 l -2.652 0 l 0 6.164 c 0 3.426 1.746 4.57 3.664 4.57 c 1.875 0 2.91 -1.078 3.363 -1.832 l 0.043 0 l 0.129 1.594 l 2.328 0 c -0.043 -0.863 -0.086 -1.898 -0.086 -3.148 l 0 -7.348 m -2.652 0" fill="#53f2e5" stroke="none" fill-rule="nonzero" fill-opacity="1"/></g></g></g></g></g><g><path d="m 20 4 -7.313 3.03 -5.656 5.656 -3.03 7.313 0 8 3.03 7.313 5.656 5.656 7.313 3.03 8 0 7.313 -3.03 5.656 -5.656 3.03 -7.313 0 -8 -3.03 -7.313 -5.656 -5.656 -7.313 -3.03 -8 0 z" clip-path="url(#clipPath4313)" transform="matrix(0,1,-1,0,48,0)" opacity="0.3" stroke-opacity="1" stroke-dasharray="none" visibility="visible" fill="none" display="inline" stroke="url(#linearGradient4375)" color="#000" stroke-width="1" stroke-miterlimit="4"/><path d="m 24 2.344 -4 1.656 -4.281 0 -3.03 3.03 l -4 1.656 -1.656 4 l -3.03 3.03 0 4.281 -1.656 4 1.656 4 l 0 4.281 3.03 3.03 1.656 4 4 1.656 l 3.03 3.03 4.281 0 4 1.656 4 -1.656 l 4.281 0 3.03 -3.03 4 -1.656 1.656 -4 l 3.03 -3.03 0 -4.281 1.656 -4 -1.656 -4 l 0 -4.281 -3.03 -3.03 -1.656 -4 -4 -1.656 l -3.03 -3.03 -4.281 0 -4 -1.656 z" clip-path="url(#clipPath4329)" opacity="0.2" stroke-opacity="1" visibility="visible" fill="none" display="inline" stroke="#000" color="#000" stroke-width="2"/></g></svg>