<svg viewBox="0 0 48 48" xmlns:xlink="http://www.w3.org/1999/xlink"><defs><clipPath clipPathUnits="userSpaceOnUse" id="clipPath4313"><path d="m 20 4 -7.313 3.03 -5.656 5.656 -3.03 7.313 0 8 3.03 7.313 5.656 5.656 7.313 3.03 8 0 7.313 -3.03 5.656 -5.656 3.03 -7.313 0 -8 -3.03 -7.313 -5.656 -5.656 -7.313 -3.03 -8 0 z"/></clipPath><clipPath clipPathUnits="userSpaceOnUse" id="clipPath4329"><path d="m 24 2.344 -4 1.656 -4.281 0 -3.03 3.03 l -4 1.656 -1.656 4 l -3.03 3.03 0 4.281 -1.656 4 1.656 4 l 0 4.281 3.03 3.03 1.656 4 4 1.656 l 3.03 3.03 4.281 0 4 1.656 4 -1.656 l 4.281 0 3.03 -3.03 4 -1.656 1.656 -4 l 3.03 -3.03 0 -4.281 1.656 -4 -1.656 -4 l 0 -4.281 -3.03 -3.03 -1.656 -4 -4 -1.656 l -3.03 -3.03 -4.281 0 -4 -1.656 z"/></clipPath><clipPath id="clipPath-748804628"><path d="m 24 2.344 l -4 1.656 l -4.281 0 l -3.03 3.03 l -4 1.656 l -1.656 4 l -3.03 3.03 l 0 4.281 l -1.656 4 l 1.656 4 l 0 4.281 l 3.03 3.03 l 1.656 4 l 4 1.656 l 3.03 3.03 l 4.281 0 l 4 1.656 l 4 -1.656 l 4.281 0 l 3.03 -3.03 l 4 -1.656 l 1.656 -4 l 3.03 -3.03 l 0 -4.281 l 1.656 -4 l -1.656 -4 l 0 -4.281 l -3.03 -3.03 l -1.656 -4 l -4 -1.656 l -3.03 -3.03 l -4.281 0 l -4 -1.656 z"/></clipPath><clipPath id="clipPath-754606866"><path d="m 24 2.344 l -4 1.656 l -4.281 0 l -3.03 3.03 l -4 1.656 l -1.656 4 l -3.03 3.03 l 0 4.281 l -1.656 4 l 1.656 4 l 0 4.281 l 3.03 3.03 l 1.656 4 l 4 1.656 l 3.03 3.03 l 4.281 0 l 4 1.656 l 4 -1.656 l 4.281 0 l 3.03 -3.03 l 4 -1.656 l 1.656 -4 l 3.03 -3.03 l 0 -4.281 l 1.656 -4 l -1.656 -4 l 0 -4.281 l -3.03 -3.03 l -1.656 -4 l -4 -1.656 l -3.03 -3.03 l -4.281 0 l -4 -1.656 z"/></clipPath><linearGradient id="linearGradient4317"><stop stop-color="#fff" stop-opacity="1"/><stop offset="1" stop-color="#fff" stop-opacity="0"/></linearGradient><clipPath clipPathUnits="userSpaceOnUse" id="clipPath4313"><path d="m 20 4 -7.313 3.03 -5.656 5.656 -3.03 7.313 0 8 3.03 7.313 5.656 5.656 7.313 3.03 8 0 7.313 -3.03 5.656 -5.656 3.03 -7.313 0 -8 -3.03 -7.313 -5.656 -5.656 -7.313 -3.03 -8 0 z"/></clipPath><linearGradient x2="44" x1="4" gradientUnits="userSpaceOnUse" id="linearGradient4375" xlink:href="#linearGradient4317"/><clipPath clipPathUnits="userSpaceOnUse" id="clipPath4329"><path d="m 24 2.344 -4 1.656 -4.281 0 -3.03 3.03 l -4 1.656 -1.656 4 l -3.03 3.03 0 4.281 -1.656 4 1.656 4 l 0 4.281 3.03 3.03 1.656 4 4 1.656 l 3.03 3.03 4.281 0 4 1.656 4 -1.656 l 4.281 0 3.03 -3.03 4 -1.656 1.656 -4 l 3.03 -3.03 0 -4.281 1.656 -4 -1.656 -4 l 0 -4.281 -3.03 -3.03 -1.656 -4 -4 -1.656 l -3.03 -3.03 -4.281 0 -4 -1.656 z"/></clipPath><clipPath id="clip1"><path d="m 16 16 l 2.734 0 l 0 12.707 l -2.734 0 m 0 0 l 8.902 0 l 0 2.293 l -8.902 0 m 0 -2.293"/></clipPath><linearGradient id="linear0" gradientUnits="userSpaceOnUse" x1="0" x2="1" gradientTransform="matrix(16.743704,0,0,16.743704,16.034973,23.499984)"><stop stop-color="#c1deec" stop-opacity="1"/><stop offset="1" stop-color="#99c1cd" stop-opacity="1"/></linearGradient><clipPath id="clip2"><path d="m 26 19 l 7 0 l 0 12 l -7 0 m 0 -12"/></clipPath><clipPath id="clip3"><path d="m 29.332 22.23 l -0.09 0 l -0.09 -2.07 l -2.379 0 c 0.066 0.98 0.09 2.027 0.09 3.496 l 0 7.344 l 2.734 0 l 0 -5.609 c 0 -0.309 0.047 -0.602 0.09 -0.844 c 0.246 -1.227 1.137 -2.07 2.449 -2.07 c 0.332 0 0.578 0.043 0.801 0.09 l 0 -2.582 c -0.223 -0.043 -0.379 -0.066 -0.645 -0.066 c -1.156 0 -2.426 0.777 -2.961 2.313"/></clipPath><clipPath id="clip1"><path d="m 16 16 l 2.734 0 l 0 12.707 l -2.734 0 m 0 0 l 8.902 0 l 0 2.293 l -8.902 0 m 0 -2.293"/></clipPath><linearGradient id="linear0" gradientUnits="userSpaceOnUse" x1="0" x2="1" gradientTransform="matrix(16.743704,0,0,16.743704,16.034973,23.499984)"><stop stop-color="#c1deec" stop-opacity="1"/><stop offset="1" stop-color="#99c1cd" stop-opacity="1"/></linearGradient><clipPath id="clip2"><path d="m 26 19 l 7 0 l 0 12 l -7 0 m 0 -12"/></clipPath><clipPath id="clip3"><path d="m 29.332 22.23 l -0.09 0 l -0.09 -2.07 l -2.379 0 c 0.066 0.98 0.09 2.027 0.09 3.496 l 0 7.344 l 2.734 0 l 0 -5.609 c 0 -0.309 0.047 -0.602 0.09 -0.844 c 0.246 -1.227 1.137 -2.07 2.449 -2.07 c 0.332 0 0.578 0.043 0.801 0.09 l 0 -2.582 c -0.223 -0.043 -0.379 -0.066 -0.645 -0.066 c -1.156 0 -2.426 0.777 -2.961 2.313"/></clipPath><path id="SVGCleanerId_0" d="m 24 2.344 l -4 1.656 l -4.281 0 l -3.03 3.03 l -4 1.656 l -1.656 4 l -3.03 3.03 l 0 4.281 l -1.656 4 l 1.656 4 l 0 4.281 l 3.03 3.03 l 1.656 4 l 4 1.656 l 3.03 3.03 l 4.281 0 l 4 1.656 l 4 -1.656 l 4.281 0 l 3.03 -3.03 l 4 -1.656 l 1.656 -4 l 3.03 -3.03 l 0 -4.281 l 1.656 -4 l -1.656 -4 l 0 -4.281 l -3.03 -3.03 l -1.656 -4 l -4 -1.656 l -3.03 -3.03 l -4.281 0 l -4 -1.656 z" visibility="visible" display="inline" fill-rule="nonzero" color="#000" fill-opacity="1"/></defs><g><path d="m 2.563 24.5 l -0.219 0.5 l 1.656 4 l 0 -1 l -1.438 -3.5 z m 42.875 0 l -1.438 3.5 l 0 1 l 1.656 -4 l -0.219 -0.5 z m -41.44 7.781 l 0 1 l 3.03 3.03 l 1.656 4 l 4 1.656 l 3.03 3.03 l 4.281 0 l 4 1.656 l 4 -1.656 l 4.281 0 l 3.03 -3.03 l 4 -1.656 l 1.656 -4 l 3.03 -3.03 l 0 -1 l -3.03 3.03 l -1.656 4 l -4 1.656 l -3.03 3.03 l -4.281 0 l -4 1.656 l -4 -1.656 l -4.281 0 l -3.03 -3.03 l -4 -1.656 l -1.656 -4 l -3.03 -3.03 z" opacity="0.3" visibility="visible" fill="#000" display="inline" fill-rule="nonzero" stroke="none" fill-opacity="1" color="#000"/></g><g><use fill="#464c6a" stroke="none" xlink:href="#SVGCleanerId_0"/><path d="m 24 2.344 l -4 1.656 l 8 0 l -4 -1.656 z m 4 1.656 l 7.313 3.03 l -3.03 -3.03 l -4.281 0 z m 7.313 3.03 l 5.656 5.656 l -1.656 -4 l -4 -1.656 z m 5.656 5.656 l 3.03 7.313 l 0 -4.281 l -3.03 -3.03 z m 3.03 7.313 l 0 8 l 1.656 -4 l -1.656 -4 z m 0 8 l -3.03 7.313 l 3.03 -3.03 l 0 -4.281 z m -3.03 7.313 l -5.656 5.656 l 4 -1.656 l 1.656 -4 z m -5.656 5.656 l -7.313 3.03 l 4.281 0 l 3.03 -3.03 z m -7.313 3.03 l -8 0 l 4 1.656 l 4 -1.656 z m -8 0 l -7.313 -3.03 l 3.03 3.03 l 4.281 0 z m -7.313 -3.03 l -5.656 -5.656 l 1.656 4 l 4 1.656 z m -5.656 -5.656 l -3.03 -7.313 l 0 4.281 l 3.03 3.03 z m -3.03 -7.313 l 0 -8 l -1.656 4 l 1.656 4 z m 0 -8 l 3.03 -7.313 l -3.03 3.03 l 0 4.281 z m 3.03 -7.313 l 5.656 -5.656 l -4 1.656 l -1.656 4 z m 5.656 -5.656 l 7.313 -3.03 l -4.281 0 l -3.03 3.03 z" opacity="0.05" visibility="visible" fill="#464c6a" display="inline" fill-rule="nonzero" stroke="none" fill-opacity="1" color="#000"/></g><g><use opacity="0.05" stroke-opacity="1" stroke-dasharray="none" fill="#000" stroke="#000" stroke-width="2" stroke-miterlimit="4" xlink:href="#SVGCleanerId_0"/><use opacity="0.1" stroke-opacity="1" stroke-dasharray="none" fill="#000" stroke="#000" stroke-width="1" stroke-miterlimit="4" xlink:href="#SVGCleanerId_0"/></g><g><g clip-path="url(#clipPath-748804628)"><g transform="translate(0,1)"><g opacity="0.1"><!-- color: #464c6a --><g><g clip-path="url(#clip1)"><path d="m 16 16 l 0 15 l 8.902 0 l 0 -2.293 l -6.168 0 l 0 -12.707 m -2.734 0" fill="#000" stroke="none" fill-rule="nonzero"/></g><g clip-path="url(#clip2)"><g clip-path="url(#clip3)"><path d="m 29.332 22.23 l -0.09 0 l -0.09 -2.07 l -2.379 0 c 0.066 0.98 0.09 2.027 0.09 3.496 l 0 7.344 l 2.734 0 l 0 -5.609 c 0 -0.309 0.047 -0.602 0.09 -0.844 c 0.246 -1.227 1.137 -2.07 2.449 -2.07 c 0.332 0 0.578 0.043 0.801 0.09 l 0 -2.582 c -0.223 -0.043 -0.379 -0.066 -0.645 -0.066 c -1.156 0 -2.426 0.777 -2.961 2.313" fill="#000" stroke="none" fill-rule="nonzero"/></g></g></g></g></g></g></g><g><g clip-path="url(#clipPath-754606866)"><!-- color: #464c6a --><g><g clip-path="url(#clip1)"><path d="m 16 16 l 0 15 l 8.902 0 l 0 -2.293 l -6.168 0 l 0 -12.707 m -2.734 0" fill="url(#linear0)" stroke="none" fill-rule="nonzero"/></g><g clip-path="url(#clip2)"><g clip-path="url(#clip3)"><path d="m 29.332 22.23 l -0.09 0 l -0.09 -2.07 l -2.379 0 c 0.066 0.98 0.09 2.027 0.09 3.496 l 0 7.344 l 2.734 0 l 0 -5.609 c 0 -0.309 0.047 -0.602 0.09 -0.844 c 0.246 -1.227 1.137 -2.07 2.449 -2.07 c 0.332 0 0.578 0.043 0.801 0.09 l 0 -2.582 c -0.223 -0.043 -0.379 -0.066 -0.645 -0.066 c -1.156 0 -2.426 0.777 -2.961 2.313" fill="url(#linear0)" stroke="none" fill-rule="nonzero"/></g></g></g></g></g><g><path d="m 20 4 -7.313 3.03 -5.656 5.656 -3.03 7.313 0 8 3.03 7.313 5.656 5.656 7.313 3.03 8 0 7.313 -3.03 5.656 -5.656 3.03 -7.313 0 -8 -3.03 -7.313 -5.656 -5.656 -7.313 -3.03 -8 0 z" clip-path="url(#clipPath4313)" transform="matrix(0,1,-1,0,48,0)" opacity="0.3" stroke-opacity="1" stroke-dasharray="none" visibility="visible" fill="none" display="inline" stroke="url(#linearGradient4375)" color="#000" stroke-width="1" stroke-miterlimit="4"/><path d="m 24 2.344 -4 1.656 -4.281 0 -3.03 3.03 l -4 1.656 -1.656 4 l -3.03 3.03 0 4.281 -1.656 4 1.656 4 l 0 4.281 3.03 3.03 1.656 4 4 1.656 l 3.03 3.03 4.281 0 4 1.656 4 -1.656 l 4.281 0 3.03 -3.03 4 -1.656 1.656 -4 l 3.03 -3.03 0 -4.281 1.656 -4 -1.656 -4 l 0 -4.281 -3.03 -3.03 -1.656 -4 -4 -1.656 l -3.03 -3.03 -4.281 0 -4 -1.656 z" clip-path="url(#clipPath4329)" opacity="0.2" stroke-opacity="1" visibility="visible" fill="none" display="inline" stroke="#000" color="#000" stroke-width="2"/></g></svg>