<svg viewBox="0 0 48 48" xmlns:xlink="http://www.w3.org/1999/xlink"><defs><clipPath clipPathUnits="userSpaceOnUse" id="clipPath4313"><path d="m 20 4 -7.313 3.03 -5.656 5.656 -3.03 7.313 0 8 3.03 7.313 5.656 5.656 7.313 3.03 8 0 7.313 -3.03 5.656 -5.656 3.03 -7.313 0 -8 -3.03 -7.313 -5.656 -5.656 -7.313 -3.03 -8 0 z"/></clipPath><clipPath clipPathUnits="userSpaceOnUse" id="clipPath4329"><path d="m 24 2.344 -4 1.656 -4.281 0 -3.03 3.03 l -4 1.656 -1.656 4 l -3.03 3.03 0 4.281 -1.656 4 1.656 4 l 0 4.281 3.03 3.03 1.656 4 4 1.656 l 3.03 3.03 4.281 0 4 1.656 4 -1.656 l 4.281 0 3.03 -3.03 4 -1.656 1.656 -4 l 3.03 -3.03 0 -4.281 1.656 -4 -1.656 -4 l 0 -4.281 -3.03 -3.03 -1.656 -4 -4 -1.656 l -3.03 -3.03 -4.281 0 -4 -1.656 z"/></clipPath><clipPath id="clipPath-476487474"><path d="m 24 2.344 l -4 1.656 l -4.281 0 l -3.03 3.03 l -4 1.656 l -1.656 4 l -3.03 3.03 l 0 4.281 l -1.656 4 l 1.656 4 l 0 4.281 l 3.03 3.03 l 1.656 4 l 4 1.656 l 3.03 3.03 l 4.281 0 l 4 1.656 l 4 -1.656 l 4.281 0 l 3.03 -3.03 l 4 -1.656 l 1.656 -4 l 3.03 -3.03 l 0 -4.281 l 1.656 -4 l -1.656 -4 l 0 -4.281 l -3.03 -3.03 l -1.656 -4 l -4 -1.656 l -3.03 -3.03 l -4.281 0 l -4 -1.656 z"/></clipPath><clipPath id="clipPath-485890163"><path d="m 24 2.344 l -4 1.656 l -4.281 0 l -3.03 3.03 l -4 1.656 l -1.656 4 l -3.03 3.03 l 0 4.281 l -1.656 4 l 1.656 4 l 0 4.281 l 3.03 3.03 l 1.656 4 l 4 1.656 l 3.03 3.03 l 4.281 0 l 4 1.656 l 4 -1.656 l 4.281 0 l 3.03 -3.03 l 4 -1.656 l 1.656 -4 l 3.03 -3.03 l 0 -4.281 l 1.656 -4 l -1.656 -4 l 0 -4.281 l -3.03 -3.03 l -1.656 -4 l -4 -1.656 l -3.03 -3.03 l -4.281 0 l -4 -1.656 z"/></clipPath><linearGradient id="linearGradient4317"><stop stop-color="#fff" stop-opacity="1"/><stop offset="1" stop-color="#fff" stop-opacity="0"/></linearGradient><clipPath clipPathUnits="userSpaceOnUse" id="clipPath4313"><path d="m 20 4 -7.313 3.03 -5.656 5.656 -3.03 7.313 0 8 3.03 7.313 5.656 5.656 7.313 3.03 8 0 7.313 -3.03 5.656 -5.656 3.03 -7.313 0 -8 -3.03 -7.313 -5.656 -5.656 -7.313 -3.03 -8 0 z"/></clipPath><linearGradient x2="44" x1="4" gradientUnits="userSpaceOnUse" id="linearGradient4375" xlink:href="#linearGradient4317"/><clipPath clipPathUnits="userSpaceOnUse" id="clipPath4329"><path d="m 24 2.344 -4 1.656 -4.281 0 -3.03 3.03 l -4 1.656 -1.656 4 l -3.03 3.03 0 4.281 -1.656 4 1.656 4 l 0 4.281 3.03 3.03 1.656 4 4 1.656 l 3.03 3.03 4.281 0 4 1.656 4 -1.656 l 4.281 0 3.03 -3.03 4 -1.656 1.656 -4 l 3.03 -3.03 0 -4.281 1.656 -4 -1.656 -4 l 0 -4.281 -3.03 -3.03 -1.656 -4 -4 -1.656 l -3.03 -3.03 -4.281 0 -4 -1.656 z"/></clipPath><clipPath id="clip1"><path d="m 15.5 16.977 l 8.094 0 l 0 2.102 l -8.094 0 m 0 0 l 2.559 0 l 0 3.871 l -2.559 0 m 0 0 l 7.719 0 l 0 2.102 l -7.719 0 m 0 0 l 2.559 0 l 0 5.949 l -2.559 0 m 0 -5.949"/></clipPath><clipPath id="clip2"><path d="m 25 16 l 10 0 l 0 16 l -10 0 m 0 -16"/></clipPath><clipPath id="clip3"><path d="m 25.09 16.32 l 0 11.922 c 0 1.043 -0.035 2.164 -0.074 2.852 l 2.094 0 l 0.094 -1.602 l 0.039 0 c 0.555 1.121 1.676 1.828 3.03 1.828 c 2.207 0 3.961 -2.059 3.961 -5.18 c 0.02 -3.391 -1.926 -5.41 -4.152 -5.41 c -1.277 0 -2.191 0.586 -2.609 1.332 l -0.039 0 l 0 -5.742 m 0.078 11.133 c -0.059 -0.23 -0.078 -0.48 -0.078 -0.75 l 0 -1.52 c 0 -0.207 0.02 -0.457 0.059 -0.664 c 0.207 -1 0.949 -1.813 2.02 -1.813 c 1.5 0 2.34 1.457 2.34 3.352 c 0 1.852 -0.836 3.203 -2.324 3.203 c -0.949 0 -1.789 -0.707 -2.02 -1.809"/></clipPath><clipPath id="clip1"><path d="m 15.5 16.977 l 8.094 0 l 0 2.102 l -8.094 0 m 0 0 l 2.559 0 l 0 3.871 l -2.559 0 m 0 0 l 7.719 0 l 0 2.102 l -7.719 0 m 0 0 l 2.559 0 l 0 5.949 l -2.559 0 m 0 -5.949"/></clipPath><clipPath id="clip2"><path d="m 25 16 l 10 0 l 0 16 l -10 0 m 0 -16"/></clipPath><clipPath id="clip3"><path d="m 25.09 16.32 l 0 11.922 c 0 1.043 -0.035 2.164 -0.074 2.852 l 2.094 0 l 0.094 -1.602 l 0.039 0 c 0.555 1.121 1.676 1.828 3.03 1.828 c 2.207 0 3.961 -2.059 3.961 -5.18 c 0.02 -3.391 -1.926 -5.41 -4.152 -5.41 c -1.277 0 -2.191 0.586 -2.609 1.332 l -0.039 0 l 0 -5.742 m 0.078 11.133 c -0.059 -0.23 -0.078 -0.48 -0.078 -0.75 l 0 -1.52 c 0 -0.207 0.02 -0.457 0.059 -0.664 c 0.207 -1 0.949 -1.813 2.02 -1.813 c 1.5 0 2.34 1.457 2.34 3.352 c 0 1.852 -0.836 3.203 -2.324 3.203 c -0.949 0 -1.789 -0.707 -2.02 -1.809"/></clipPath><path id="SVGCleanerId_0" d="m 24 2.344 l -4 1.656 l -4.281 0 l -3.03 3.03 l -4 1.656 l -1.656 4 l -3.03 3.03 l 0 4.281 l -1.656 4 l 1.656 4 l 0 4.281 l 3.03 3.03 l 1.656 4 l 4 1.656 l 3.03 3.03 l 4.281 0 l 4 1.656 l 4 -1.656 l 4.281 0 l 3.03 -3.03 l 4 -1.656 l 1.656 -4 l 3.03 -3.03 l 0 -4.281 l 1.656 -4 l -1.656 -4 l 0 -4.281 l -3.03 -3.03 l -1.656 -4 l -4 -1.656 l -3.03 -3.03 l -4.281 0 l -4 -1.656 z" visibility="visible" display="inline" fill-rule="nonzero" color="#000" fill-opacity="1"/></defs><g><path d="m 2.563 24.5 l -0.219 0.5 l 1.656 4 l 0 -1 l -1.438 -3.5 z m 42.875 0 l -1.438 3.5 l 0 1 l 1.656 -4 l -0.219 -0.5 z m -41.44 7.781 l 0 1 l 3.03 3.03 l 1.656 4 l 4 1.656 l 3.03 3.03 l 4.281 0 l 4 1.656 l 4 -1.656 l 4.281 0 l 3.03 -3.03 l 4 -1.656 l 1.656 -4 l 3.03 -3.03 l 0 -1 l -3.03 3.03 l -1.656 4 l -4 1.656 l -3.03 3.03 l -4.281 0 l -4 1.656 l -4 -1.656 l -4.281 0 l -3.03 -3.03 l -4 -1.656 l -1.656 -4 l -3.03 -3.03 z" opacity="0.3" visibility="visible" fill="#000" display="inline" fill-rule="nonzero" stroke="none" fill-opacity="1" color="#000"/></g><g><use fill="#935235" stroke="none" xlink:href="#SVGCleanerId_0"/><path d="m 24 2.344 l -4 1.656 l 8 0 l -4 -1.656 z m 4 1.656 l 7.313 3.03 l -3.03 -3.03 l -4.281 0 z m 7.313 3.03 l 5.656 5.656 l -1.656 -4 l -4 -1.656 z m 5.656 5.656 l 3.03 7.313 l 0 -4.281 l -3.03 -3.03 z m 3.03 7.313 l 0 8 l 1.656 -4 l -1.656 -4 z m 0 8 l -3.03 7.313 l 3.03 -3.03 l 0 -4.281 z m -3.03 7.313 l -5.656 5.656 l 4 -1.656 l 1.656 -4 z m -5.656 5.656 l -7.313 3.03 l 4.281 0 l 3.03 -3.03 z m -7.313 3.03 l -8 0 l 4 1.656 l 4 -1.656 z m -8 0 l -7.313 -3.03 l 3.03 3.03 l 4.281 0 z m -7.313 -3.03 l -5.656 -5.656 l 1.656 4 l 4 1.656 z m -5.656 -5.656 l -3.03 -7.313 l 0 4.281 l 3.03 3.03 z m -3.03 -7.313 l 0 -8 l -1.656 4 l 1.656 4 z m 0 -8 l 3.03 -7.313 l -3.03 3.03 l 0 4.281 z m 3.03 -7.313 l 5.656 -5.656 l -4 1.656 l -1.656 4 z m 5.656 -5.656 l 7.313 -3.03 l -4.281 0 l -3.03 3.03 z" opacity="0.05" visibility="visible" fill="#935235" display="inline" fill-rule="nonzero" stroke="none" fill-opacity="1" color="#000"/></g><g><use opacity="0.05" stroke-opacity="1" stroke-dasharray="none" fill="#000" stroke="#000" stroke-width="2" stroke-miterlimit="4" xlink:href="#SVGCleanerId_0"/><use opacity="0.1" stroke-opacity="1" stroke-dasharray="none" fill="#000" stroke="#000" stroke-width="1" stroke-miterlimit="4" xlink:href="#SVGCleanerId_0"/></g><g><g clip-path="url(#clipPath-476487474)"><g transform="translate(0,1)"><g opacity="0.1"><!-- color: #935235 --><g><g clip-path="url(#clip1)"><path d="m 15.5 16.977 l 0 14.02 l 2.559 0 l 0 -5.949 l 5.16 0 l 0 -2.102 l -5.16 0 l 0 -3.871 l 5.535 0 l 0 -2.102 m -8.094 0" fill="#000" stroke="none" fill-rule="nonzero" fill-opacity="1"/></g><g clip-path="url(#clip2)"><g clip-path="url(#clip3)"><path d="m 25.09 16.32 l 0 11.922 c 0 1.043 -0.035 2.164 -0.074 2.852 l 2.094 0 l 0.094 -1.602 l 0.039 0 c 0.555 1.121 1.676 1.828 3.03 1.828 c 2.207 0 3.961 -2.059 3.961 -5.18 c 0.02 -3.391 -1.926 -5.41 -4.152 -5.41 c -1.277 0 -2.191 0.586 -2.609 1.332 l -0.039 0 l 0 -5.742 m 0.078 11.133 c -0.059 -0.23 -0.078 -0.48 -0.078 -0.75 l 0 -1.52 c 0 -0.207 0.02 -0.457 0.059 -0.664 c 0.207 -1 0.949 -1.813 2.02 -1.813 c 1.5 0 2.34 1.457 2.34 3.352 c 0 1.852 -0.836 3.203 -2.324 3.203 c -0.949 0 -1.789 -0.707 -2.02 -1.809" fill="#000" stroke="none" fill-rule="nonzero" fill-opacity="1"/></g></g></g></g></g></g></g><g><g clip-path="url(#clipPath-485890163)"><!-- color: #935235 --><g><g clip-path="url(#clip1)"><path d="m 15.5 16.977 l 0 14.02 l 2.559 0 l 0 -5.949 l 5.16 0 l 0 -2.102 l -5.16 0 l 0 -3.871 l 5.535 0 l 0 -2.102 m -8.094 0" fill="#fb7f35" stroke="none" fill-rule="nonzero" fill-opacity="1"/></g><g clip-path="url(#clip2)"><g clip-path="url(#clip3)"><path d="m 25.09 16.32 l 0 11.922 c 0 1.043 -0.035 2.164 -0.074 2.852 l 2.094 0 l 0.094 -1.602 l 0.039 0 c 0.555 1.121 1.676 1.828 3.03 1.828 c 2.207 0 3.961 -2.059 3.961 -5.18 c 0.02 -3.391 -1.926 -5.41 -4.152 -5.41 c -1.277 0 -2.191 0.586 -2.609 1.332 l -0.039 0 l 0 -5.742 m 0.078 11.133 c -0.059 -0.23 -0.078 -0.48 -0.078 -0.75 l 0 -1.52 c 0 -0.207 0.02 -0.457 0.059 -0.664 c 0.207 -1 0.949 -1.813 2.02 -1.813 c 1.5 0 2.34 1.457 2.34 3.352 c 0 1.852 -0.836 3.203 -2.324 3.203 c -0.949 0 -1.789 -0.707 -2.02 -1.809" fill="#fb7f35" stroke="none" fill-rule="nonzero" fill-opacity="1"/></g></g></g></g></g><g><path d="m 20 4 -7.313 3.03 -5.656 5.656 -3.03 7.313 0 8 3.03 7.313 5.656 5.656 7.313 3.03 8 0 7.313 -3.03 5.656 -5.656 3.03 -7.313 0 -8 -3.03 -7.313 -5.656 -5.656 -7.313 -3.03 -8 0 z" clip-path="url(#clipPath4313)" transform="matrix(0,1,-1,0,48,0)" opacity="0.3" stroke-opacity="1" stroke-dasharray="none" visibility="visible" fill="none" display="inline" stroke="url(#linearGradient4375)" color="#000" stroke-width="1" stroke-miterlimit="4"/><path d="m 24 2.344 -4 1.656 -4.281 0 -3.03 3.03 l -4 1.656 -1.656 4 l -3.03 3.03 0 4.281 -1.656 4 1.656 4 l 0 4.281 3.03 3.03 1.656 4 4 1.656 l 3.03 3.03 4.281 0 4 1.656 4 -1.656 l 4.281 0 3.03 -3.03 4 -1.656 1.656 -4 l 3.03 -3.03 0 -4.281 1.656 -4 -1.656 -4 l 0 -4.281 -3.03 -3.03 -1.656 -4 -4 -1.656 l -3.03 -3.03 -4.281 0 -4 -1.656 z" clip-path="url(#clipPath4329)" opacity="0.2" stroke-opacity="1" visibility="visible" fill="none" display="inline" stroke="#000" color="#000" stroke-width="2"/></g></svg>