<svg viewBox="0 0 48 48" xmlns:xlink="http://www.w3.org/1999/xlink"><defs><clipPath clipPathUnits="userSpaceOnUse" id="clipPath4313"><path d="m 20 4 -7.313 3.03 -5.656 5.656 -3.03 7.313 0 8 3.03 7.313 5.656 5.656 7.313 3.03 8 0 7.313 -3.03 5.656 -5.656 3.03 -7.313 0 -8 -3.03 -7.313 -5.656 -5.656 -7.313 -3.03 -8 0 z"/></clipPath><clipPath clipPathUnits="userSpaceOnUse" id="clipPath4329"><path d="m 24 2.344 -4 1.656 -4.281 0 -3.03 3.03 l -4 1.656 -1.656 4 l -3.03 3.03 0 4.281 -1.656 4 1.656 4 l 0 4.281 3.03 3.03 1.656 4 4 1.656 l 3.03 3.03 4.281 0 4 1.656 4 -1.656 l 4.281 0 3.03 -3.03 4 -1.656 1.656 -4 l 3.03 -3.03 0 -4.281 1.656 -4 -1.656 -4 l 0 -4.281 -3.03 -3.03 -1.656 -4 -4 -1.656 l -3.03 -3.03 -4.281 0 -4 -1.656 z"/></clipPath><clipPath id="clipPath-288886527"><path d="m 24 2.344 l -4 1.656 l -4.281 0 l -3.03 3.03 l -4 1.656 l -1.656 4 l -3.03 3.03 l 0 4.281 l -1.656 4 l 1.656 4 l 0 4.281 l 3.03 3.03 l 1.656 4 l 4 1.656 l 3.03 3.03 l 4.281 0 l 4 1.656 l 4 -1.656 l 4.281 0 l 3.03 -3.03 l 4 -1.656 l 1.656 -4 l 3.03 -3.03 l 0 -4.281 l 1.656 -4 l -1.656 -4 l 0 -4.281 l -3.03 -3.03 l -1.656 -4 l -4 -1.656 l -3.03 -3.03 l -4.281 0 l -4 -1.656 z"/></clipPath><clipPath id="clipPath-296319978"><path d="m 24 2.344 l -4 1.656 l -4.281 0 l -3.03 3.03 l -4 1.656 l -1.656 4 l -3.03 3.03 l 0 4.281 l -1.656 4 l 1.656 4 l 0 4.281 l 3.03 3.03 l 1.656 4 l 4 1.656 l 3.03 3.03 l 4.281 0 l 4 1.656 l 4 -1.656 l 4.281 0 l 3.03 -3.03 l 4 -1.656 l 1.656 -4 l 3.03 -3.03 l 0 -4.281 l 1.656 -4 l -1.656 -4 l 0 -4.281 l -3.03 -3.03 l -1.656 -4 l -4 -1.656 l -3.03 -3.03 l -4.281 0 l -4 -1.656 z"/></clipPath><linearGradient id="linearGradient4317"><stop stop-color="#fff" stop-opacity="1"/><stop offset="1" stop-color="#fff" stop-opacity="0"/></linearGradient><clipPath clipPathUnits="userSpaceOnUse" id="clipPath4313"><path d="m 20 4 -7.313 3.03 -5.656 5.656 -3.03 7.313 0 8 3.03 7.313 5.656 5.656 7.313 3.03 8 0 7.313 -3.03 5.656 -5.656 3.03 -7.313 0 -8 -3.03 -7.313 -5.656 -5.656 -7.313 -3.03 -8 0 z"/></clipPath><linearGradient x2="44" x1="4" gradientUnits="userSpaceOnUse" id="linearGradient4375" xlink:href="#linearGradient4317"/><clipPath clipPathUnits="userSpaceOnUse" id="clipPath4329"><path d="m 24 2.344 -4 1.656 -4.281 0 -3.03 3.03 l -4 1.656 -1.656 4 l -3.03 3.03 0 4.281 -1.656 4 1.656 4 l 0 4.281 3.03 3.03 1.656 4 4 1.656 l 3.03 3.03 4.281 0 4 1.656 4 -1.656 l 4.281 0 3.03 -3.03 4 -1.656 1.656 -4 l 3.03 -3.03 0 -4.281 1.656 -4 -1.656 -4 l 0 -4.281 -3.03 -3.03 -1.656 -4 -4 -1.656 l -3.03 -3.03 -4.281 0 -4 -1.656 z"/></clipPath><clipPath id="clip1"><path d="m 14 16 l 8.723 0 l 0 2.246 l -8.723 0 m 0 0 l 2.738 0 l 0 3.875 l -2.738 0 m 0 0 l 8.391 0 l 0 2.223 l -8.391 0 m 0 0 l 2.738 0 l 0 4.406 l -2.738 0 m 0 0 l 9.06 0 l 0 2.25 l -9.06 0 m 0 -2.25"/></clipPath><clipPath id="clip2"><path d="m 25 19 l 10 0 l 0 12 l -10 0 m 0 -12"/></clipPath><clipPath id="clip3"><path d="m 27.652 21.785 l -0.063 0 l -0.121 -1.625 l -2.207 0 c 0.063 0.934 0.082 1.98 0.082 3.227 l 0 7.613 l 2.531 0 l 0 -6.367 c 0 -0.309 0.02 -0.645 0.102 -0.887 c 0.266 -0.824 0.961 -1.605 1.961 -1.605 c 1.367 0 1.898 1.18 1.898 2.738 l 0 6.121 l 2.512 0 l 0 -6.434 c 0 -3.426 -1.797 -4.648 -3.531 -4.648 c -1.652 0 -2.738 1.023 -3.164 1.867"/></clipPath><clipPath id="clip1"><path d="m 14 16 l 8.723 0 l 0 2.246 l -8.723 0 m 0 0 l 2.738 0 l 0 3.875 l -2.738 0 m 0 0 l 8.391 0 l 0 2.223 l -8.391 0 m 0 0 l 2.738 0 l 0 4.406 l -2.738 0 m 0 0 l 9.06 0 l 0 2.25 l -9.06 0 m 0 -2.25"/></clipPath><clipPath id="clip2"><path d="m 25 19 l 10 0 l 0 12 l -10 0 m 0 -12"/></clipPath><clipPath id="clip3"><path d="m 27.652 21.785 l -0.063 0 l -0.121 -1.625 l -2.207 0 c 0.063 0.934 0.082 1.98 0.082 3.227 l 0 7.613 l 2.531 0 l 0 -6.367 c 0 -0.309 0.02 -0.645 0.102 -0.887 c 0.266 -0.824 0.961 -1.605 1.961 -1.605 c 1.367 0 1.898 1.18 1.898 2.738 l 0 6.121 l 2.512 0 l 0 -6.434 c 0 -3.426 -1.797 -4.648 -3.531 -4.648 c -1.652 0 -2.738 1.023 -3.164 1.867"/></clipPath><path id="SVGCleanerId_0" d="m 24 2.344 l -4 1.656 l -4.281 0 l -3.03 3.03 l -4 1.656 l -1.656 4 l -3.03 3.03 l 0 4.281 l -1.656 4 l 1.656 4 l 0 4.281 l 3.03 3.03 l 1.656 4 l 4 1.656 l 3.03 3.03 l 4.281 0 l 4 1.656 l 4 -1.656 l 4.281 0 l 3.03 -3.03 l 4 -1.656 l 1.656 -4 l 3.03 -3.03 l 0 -4.281 l 1.656 -4 l -1.656 -4 l 0 -4.281 l -3.03 -3.03 l -1.656 -4 l -4 -1.656 l -3.03 -3.03 l -4.281 0 l -4 -1.656 z" visibility="visible" display="inline" fill-rule="nonzero" color="#000" fill-opacity="1"/></defs><g><path d="m 2.563 24.5 l -0.219 0.5 l 1.656 4 l 0 -1 l -1.438 -3.5 z m 42.875 0 l -1.438 3.5 l 0 1 l 1.656 -4 l -0.219 -0.5 z m -41.44 7.781 l 0 1 l 3.03 3.03 l 1.656 4 l 4 1.656 l 3.03 3.03 l 4.281 0 l 4 1.656 l 4 -1.656 l 4.281 0 l 3.03 -3.03 l 4 -1.656 l 1.656 -4 l 3.03 -3.03 l 0 -1 l -3.03 3.03 l -1.656 4 l -4 1.656 l -3.03 3.03 l -4.281 0 l -4 1.656 l -4 -1.656 l -4.281 0 l -3.03 -3.03 l -4 -1.656 l -1.656 -4 l -3.03 -3.03 z" opacity="0.3" visibility="visible" fill="#000" display="inline" fill-rule="nonzero" stroke="none" fill-opacity="1" color="#000"/></g><g><use fill="#4b3d97" stroke="none" xlink:href="#SVGCleanerId_0"/><path d="m 24 2.344 l -4 1.656 l 8 0 l -4 -1.656 z m 4 1.656 l 7.313 3.03 l -3.03 -3.03 l -4.281 0 z m 7.313 3.03 l 5.656 5.656 l -1.656 -4 l -4 -1.656 z m 5.656 5.656 l 3.03 7.313 l 0 -4.281 l -3.03 -3.03 z m 3.03 7.313 l 0 8 l 1.656 -4 l -1.656 -4 z m 0 8 l -3.03 7.313 l 3.03 -3.03 l 0 -4.281 z m -3.03 7.313 l -5.656 5.656 l 4 -1.656 l 1.656 -4 z m -5.656 5.656 l -7.313 3.03 l 4.281 0 l 3.03 -3.03 z m -7.313 3.03 l -8 0 l 4 1.656 l 4 -1.656 z m -8 0 l -7.313 -3.03 l 3.03 3.03 l 4.281 0 z m -7.313 -3.03 l -5.656 -5.656 l 1.656 4 l 4 1.656 z m -5.656 -5.656 l -3.03 -7.313 l 0 4.281 l 3.03 3.03 z m -3.03 -7.313 l 0 -8 l -1.656 4 l 1.656 4 z m 0 -8 l 3.03 -7.313 l -3.03 3.03 l 0 4.281 z m 3.03 -7.313 l 5.656 -5.656 l -4 1.656 l -1.656 4 z m 5.656 -5.656 l 7.313 -3.03 l -4.281 0 l -3.03 3.03 z" opacity="0.05" visibility="visible" fill="#4b3d97" display="inline" fill-rule="nonzero" stroke="none" fill-opacity="1" color="#000"/></g><g><use opacity="0.05" stroke-opacity="1" stroke-dasharray="none" fill="#000" stroke="#000" stroke-width="2" stroke-miterlimit="4" xlink:href="#SVGCleanerId_0"/><use opacity="0.1" stroke-opacity="1" stroke-dasharray="none" fill="#000" stroke="#000" stroke-width="1" stroke-miterlimit="4" xlink:href="#SVGCleanerId_0"/></g><g><g clip-path="url(#clipPath-288886527)"><g transform="translate(0,1)"><g opacity="0.1"><!-- color: #4b3d97 --><g><g clip-path="url(#clip1)"><path d="m 14 16 l 0 15 l 9.06 0 l 0 -2.25 l -6.32 0 l 0 -4.406 l 5.652 0 l 0 -2.223 l -5.652 0 l 0 -3.875 l 5.984 0 l 0 -2.246 m -8.723 0" fill="#000" stroke="none" fill-rule="nonzero" fill-opacity="1"/></g><g clip-path="url(#clip2)"><g clip-path="url(#clip3)"><path d="m 27.652 21.785 l -0.063 0 l -0.121 -1.625 l -2.207 0 c 0.063 0.934 0.082 1.98 0.082 3.227 l 0 7.613 l 2.531 0 l 0 -6.367 c 0 -0.309 0.02 -0.645 0.102 -0.887 c 0.266 -0.824 0.961 -1.605 1.961 -1.605 c 1.367 0 1.898 1.18 1.898 2.738 l 0 6.121 l 2.512 0 l 0 -6.434 c 0 -3.426 -1.797 -4.648 -3.531 -4.648 c -1.652 0 -2.738 1.023 -3.164 1.867" fill="#000" stroke="none" fill-rule="nonzero" fill-opacity="1"/></g></g></g></g></g></g></g><g><g clip-path="url(#clipPath-296319978)"><!-- color: #4b3d97 --><g><g clip-path="url(#clip1)"><path d="m 14 16 l 0 15 l 9.06 0 l 0 -2.25 l -6.32 0 l 0 -4.406 l 5.652 0 l 0 -2.223 l -5.652 0 l 0 -3.875 l 5.984 0 l 0 -2.246 m -8.723 0" fill="#9caff8" stroke="none" fill-rule="nonzero" fill-opacity="1"/></g><g clip-path="url(#clip2)"><g clip-path="url(#clip3)"><path d="m 27.652 21.785 l -0.063 0 l -0.121 -1.625 l -2.207 0 c 0.063 0.934 0.082 1.98 0.082 3.227 l 0 7.613 l 2.531 0 l 0 -6.367 c 0 -0.309 0.02 -0.645 0.102 -0.887 c 0.266 -0.824 0.961 -1.605 1.961 -1.605 c 1.367 0 1.898 1.18 1.898 2.738 l 0 6.121 l 2.512 0 l 0 -6.434 c 0 -3.426 -1.797 -4.648 -3.531 -4.648 c -1.652 0 -2.738 1.023 -3.164 1.867" fill="#9caff8" stroke="none" fill-rule="nonzero" fill-opacity="1"/></g></g></g></g></g><g><path d="m 20 4 -7.313 3.03 -5.656 5.656 -3.03 7.313 0 8 3.03 7.313 5.656 5.656 7.313 3.03 8 0 7.313 -3.03 5.656 -5.656 3.03 -7.313 0 -8 -3.03 -7.313 -5.656 -5.656 -7.313 -3.03 -8 0 z" clip-path="url(#clipPath4313)" transform="matrix(0,1,-1,0,48,0)" opacity="0.3" stroke-opacity="1" stroke-dasharray="none" visibility="visible" fill="none" display="inline" stroke="url(#linearGradient4375)" color="#000" stroke-width="1" stroke-miterlimit="4"/><path d="m 24 2.344 -4 1.656 -4.281 0 -3.03 3.03 l -4 1.656 -1.656 4 l -3.03 3.03 0 4.281 -1.656 4 1.656 4 l 0 4.281 3.03 3.03 1.656 4 4 1.656 l 3.03 3.03 4.281 0 4 1.656 4 -1.656 l 4.281 0 3.03 -3.03 4 -1.656 1.656 -4 l 3.03 -3.03 0 -4.281 1.656 -4 -1.656 -4 l 0 -4.281 -3.03 -3.03 -1.656 -4 -4 -1.656 l -3.03 -3.03 -4.281 0 -4 -1.656 z" clip-path="url(#clipPath4329)" opacity="0.2" stroke-opacity="1" visibility="visible" fill="none" display="inline" stroke="#000" color="#000" stroke-width="2"/></g></svg>