<svg viewBox="0 0 48 48" xmlns:xlink="http://www.w3.org/1999/xlink"><defs><clipPath clipPathUnits="userSpaceOnUse" id="clipPath4313"><path d="m 20 4 -7.313 3.03 -5.656 5.656 -3.03 7.313 0 8 3.03 7.313 5.656 5.656 7.313 3.03 8 0 7.313 -3.03 5.656 -5.656 3.03 -7.313 0 -8 -3.03 -7.313 -5.656 -5.656 -7.313 -3.03 -8 0 z"/></clipPath><clipPath clipPathUnits="userSpaceOnUse" id="clipPath4329"><path d="m 24 2.344 -4 1.656 -4.281 0 -3.03 3.03 l -4 1.656 -1.656 4 l -3.03 3.03 0 4.281 -1.656 4 1.656 4 l 0 4.281 3.03 3.03 1.656 4 4 1.656 l 3.03 3.03 4.281 0 4 1.656 4 -1.656 l 4.281 0 3.03 -3.03 4 -1.656 1.656 -4 l 3.03 -3.03 0 -4.281 1.656 -4 -1.656 -4 l 0 -4.281 -3.03 -3.03 -1.656 -4 -4 -1.656 l -3.03 -3.03 -4.281 0 -4 -1.656 z"/></clipPath><clipPath id="clipPath-464328441"><path d="m 24 2.344 l -4 1.656 l -4.281 0 l -3.03 3.03 l -4 1.656 l -1.656 4 l -3.03 3.03 l 0 4.281 l -1.656 4 l 1.656 4 l 0 4.281 l 3.03 3.03 l 1.656 4 l 4 1.656 l 3.03 3.03 l 4.281 0 l 4 1.656 l 4 -1.656 l 4.281 0 l 3.03 -3.03 l 4 -1.656 l 1.656 -4 l 3.03 -3.03 l 0 -4.281 l 1.656 -4 l -1.656 -4 l 0 -4.281 l -3.03 -3.03 l -1.656 -4 l -4 -1.656 l -3.03 -3.03 l -4.281 0 l -4 -1.656 z"/></clipPath><clipPath id="clipPath-474752614"><path d="m 24 2.344 l -4 1.656 l -4.281 0 l -3.03 3.03 l -4 1.656 l -1.656 4 l -3.03 3.03 l 0 4.281 l -1.656 4 l 1.656 4 l 0 4.281 l 3.03 3.03 l 1.656 4 l 4 1.656 l 3.03 3.03 l 4.281 0 l 4 1.656 l 4 -1.656 l 4.281 0 l 3.03 -3.03 l 4 -1.656 l 1.656 -4 l 3.03 -3.03 l 0 -4.281 l 1.656 -4 l -1.656 -4 l 0 -4.281 l -3.03 -3.03 l -1.656 -4 l -4 -1.656 l -3.03 -3.03 l -4.281 0 l -4 -1.656 z"/></clipPath><linearGradient id="linearGradient4317"><stop stop-color="#fff" stop-opacity="1"/><stop offset="1" stop-color="#fff" stop-opacity="0"/></linearGradient><clipPath clipPathUnits="userSpaceOnUse" id="clipPath4313"><path d="m 20 4 -7.313 3.03 -5.656 5.656 -3.03 7.313 0 8 3.03 7.313 5.656 5.656 7.313 3.03 8 0 7.313 -3.03 5.656 -5.656 3.03 -7.313 0 -8 -3.03 -7.313 -5.656 -5.656 -7.313 -3.03 -8 0 z"/></clipPath><linearGradient x2="44" x1="4" gradientUnits="userSpaceOnUse" id="linearGradient4375" xlink:href="#linearGradient4317"/><clipPath clipPathUnits="userSpaceOnUse" id="clipPath4329"><path d="m 24 2.344 -4 1.656 -4.281 0 -3.03 3.03 l -4 1.656 -1.656 4 l -3.03 3.03 0 4.281 -1.656 4 1.656 4 l 0 4.281 3.03 3.03 1.656 4 4 1.656 l 3.03 3.03 4.281 0 4 1.656 4 -1.656 l 4.281 0 3.03 -3.03 4 -1.656 1.656 -4 l 3.03 -3.03 0 -4.281 1.656 -4 -1.656 -4 l 0 -4.281 -3.03 -3.03 -1.656 -4 -4 -1.656 l -3.03 -3.03 -4.281 0 -4 -1.656 z"/></clipPath><path id="SVGCleanerId_0" d="m 24 2.344 l -4 1.656 l -4.281 0 l -3.03 3.03 l -4 1.656 l -1.656 4 l -3.03 3.03 l 0 4.281 l -1.656 4 l 1.656 4 l 0 4.281 l 3.03 3.03 l 1.656 4 l 4 1.656 l 3.03 3.03 l 4.281 0 l 4 1.656 l 4 -1.656 l 4.281 0 l 3.03 -3.03 l 4 -1.656 l 1.656 -4 l 3.03 -3.03 l 0 -4.281 l 1.656 -4 l -1.656 -4 l 0 -4.281 l -3.03 -3.03 l -1.656 -4 l -4 -1.656 l -3.03 -3.03 l -4.281 0 l -4 -1.656 z" visibility="visible" display="inline" fill-rule="nonzero" color="#000" fill-opacity="1"/></defs><g><path d="m 2.563 24.5 l -0.219 0.5 l 1.656 4 l 0 -1 l -1.438 -3.5 z m 42.875 0 l -1.438 3.5 l 0 1 l 1.656 -4 l -0.219 -0.5 z m -41.44 7.781 l 0 1 l 3.03 3.03 l 1.656 4 l 4 1.656 l 3.03 3.03 l 4.281 0 l 4 1.656 l 4 -1.656 l 4.281 0 l 3.03 -3.03 l 4 -1.656 l 1.656 -4 l 3.03 -3.03 l 0 -1 l -3.03 3.03 l -1.656 4 l -4 1.656 l -3.03 3.03 l -4.281 0 l -4 1.656 l -4 -1.656 l -4.281 0 l -3.03 -3.03 l -4 -1.656 l -1.656 -4 l -3.03 -3.03 z" opacity="0.3" visibility="visible" fill="#000" display="inline" fill-rule="nonzero" stroke="none" fill-opacity="1" color="#000"/></g><g><use fill="#eee" stroke="none" xlink:href="#SVGCleanerId_0"/><path d="m 24 2.344 l -4 1.656 l 8 0 l -4 -1.656 z m 4 1.656 l 7.313 3.03 l -3.03 -3.03 l -4.281 0 z m 7.313 3.03 l 5.656 5.656 l -1.656 -4 l -4 -1.656 z m 5.656 5.656 l 3.03 7.313 l 0 -4.281 l -3.03 -3.03 z m 3.03 7.313 l 0 8 l 1.656 -4 l -1.656 -4 z m 0 8 l -3.03 7.313 l 3.03 -3.03 l 0 -4.281 z m -3.03 7.313 l -5.656 5.656 l 4 -1.656 l 1.656 -4 z m -5.656 5.656 l -7.313 3.03 l 4.281 0 l 3.03 -3.03 z m -7.313 3.03 l -8 0 l 4 1.656 l 4 -1.656 z m -8 0 l -7.313 -3.03 l 3.03 3.03 l 4.281 0 z m -7.313 -3.03 l -5.656 -5.656 l 1.656 4 l 4 1.656 z m -5.656 -5.656 l -3.03 -7.313 l 0 4.281 l 3.03 3.03 z m -3.03 -7.313 l 0 -8 l -1.656 4 l 1.656 4 z m 0 -8 l 3.03 -7.313 l -3.03 3.03 l 0 4.281 z m 3.03 -7.313 l 5.656 -5.656 l -4 1.656 l -1.656 4 z m 5.656 -5.656 l 7.313 -3.03 l -4.281 0 l -3.03 3.03 z" opacity="0.05" visibility="visible" fill="#eee" display="inline" fill-rule="nonzero" stroke="none" fill-opacity="1" color="#000"/></g><g><use opacity="0.05" stroke-opacity="1" stroke-dasharray="none" fill="#000" stroke="#000" stroke-width="2" stroke-miterlimit="4" xlink:href="#SVGCleanerId_0"/><use opacity="0.1" stroke-opacity="1" stroke-dasharray="none" fill="#000" stroke="#000" stroke-width="1" stroke-miterlimit="4" xlink:href="#SVGCleanerId_0"/></g><g><g clip-path="url(#clipPath-464328441)"><g transform="translate(0,1)"><g opacity="0.1"><!-- color: #eeeeee --><g><path d="m 15 12 c 0 0 -1 0 -1 1 l 0 22 c 0 0 0 1 1 1 l 18 0 c 0 0 0.996 0 0.996 -1 l 0 -14.996 l -8 -8 c -3.711 -0.004 -8.742 -0.004 -10.996 -0.004 m 0 0.004" fill="#000" stroke="none" fill-rule="nonzero" fill-opacity="1"/><path d="m 24.5 24 c -2.488 0 -4.5 1.789 -4.5 4 c 0 2.211 2.01 4 4.5 4 c 2.484 0 4.5 -1.789 4.5 -4 c 0 -2.211 -2.02 -4 -4.5 -4 m 0 0" fill="#000" stroke="none" fill-rule="nonzero" fill-opacity="1"/><path d="m 32.813 27.535 c -0.188 -0.219 -0.398 -0.426 -0.605 -0.629 c -1.117 -1.094 -2.406 -2.066 -3.816 -2.777 c -0.902 -0.453 -1.867 -0.816 -2.863 -0.992 c -0.508 -0.086 -1.01 -0.133 -1.52 -0.133 c -0.516 0 -1.023 0.047 -1.523 0.133 c -1 0.176 -1.961 0.539 -2.863 0.992 c -1.41 0.711 -2.699 1.684 -3.82 2.777 c -0.211 0.203 -0.414 0.41 -0.602 0.629 c -0.254 0.293 -0.254 0.637 0 0.934 c 0.574 0.668 1.258 1.262 1.949 1.805 c 1.496 1.172 3.207 2.152 5.102 2.547 c 0.582 0.121 1.168 0.184 1.758 0.184 c 0.594 0 1.176 -0.063 1.762 -0.184 c 1.887 -0.391 3.602 -1.375 5.102 -2.547 c 0.695 -0.543 1.379 -1.137 1.953 -1.805 c 0.25 -0.297 0.25 -0.641 0 -0.934 m -8.82 3.871 c -1.91 -0.004 -3.461 -1.527 -3.461 -3.406 c 0 -1.879 1.551 -3.402 3.461 -3.406 c 1.926 0.004 3.457 1.527 3.457 3.406 c 0 1.879 -1.531 3.402 -3.457 3.406 m 0 0" fill="#000" stroke="none" fill-rule="nonzero" fill-opacity="1"/><path d="m 24 26.5 c -0.832 0 -1.5 0.672 -1.5 1.5 c 0 0.828 0.668 1.496 1.5 1.496 c 0.828 0 1.496 -0.668 1.496 -1.496 c 0 -0.828 -0.672 -1.5 -1.496 -1.5 m 0 0" fill="#000" stroke="none" fill-rule="nonzero" fill-opacity="1"/><path d="m 34 20 l -8 -8 c -0.004 4 0 6 0 7 c 0 1 0 1 1 1 c 1 0 4.098 0.008 7 0 m 0 0" fill="#000" stroke="none" fill-rule="nonzero" fill-opacity="1"/></g></g></g></g></g><g><g clip-path="url(#clipPath-474752614)"><!-- color: #eeeeee --><g><path d="m 15 12 c 0 0 -1 0 -1 1 l 0 22 c 0 0 0 1 1 1 l 18 0 c 0 0 0.996 0 0.996 -1 l 0 -14.996 l -8 -8 c -3.711 -0.004 -8.742 -0.004 -10.996 -0.004 m 0 0.004" fill="#f9f9f9" stroke="none" fill-rule="nonzero" fill-opacity="1"/><path d="m 24.5 24 c -2.488 0 -4.5 1.789 -4.5 4 c 0 2.211 2.01 4 4.5 4 c 2.484 0 4.5 -1.789 4.5 -4 c 0 -2.211 -2.02 -4 -4.5 -4 m 0 0" fill="#3babea" stroke="none" fill-rule="nonzero" fill-opacity="1"/><path d="m 32.813 27.535 c -0.188 -0.219 -0.398 -0.426 -0.605 -0.629 c -1.117 -1.094 -2.406 -2.066 -3.816 -2.777 c -0.902 -0.453 -1.867 -0.816 -2.863 -0.992 c -0.508 -0.086 -1.01 -0.133 -1.52 -0.133 c -0.516 0 -1.023 0.047 -1.523 0.133 c -1 0.176 -1.961 0.539 -2.863 0.992 c -1.41 0.711 -2.699 1.684 -3.82 2.777 c -0.211 0.203 -0.414 0.41 -0.602 0.629 c -0.254 0.293 -0.254 0.637 0 0.934 c 0.574 0.668 1.258 1.262 1.949 1.805 c 1.496 1.172 3.207 2.152 5.102 2.547 c 0.582 0.121 1.168 0.184 1.758 0.184 c 0.594 0 1.176 -0.063 1.762 -0.184 c 1.887 -0.391 3.602 -1.375 5.102 -2.547 c 0.695 -0.543 1.379 -1.137 1.953 -1.805 c 0.25 -0.297 0.25 -0.641 0 -0.934 m -8.82 3.871 c -1.91 -0.004 -3.461 -1.527 -3.461 -3.406 c 0 -1.879 1.551 -3.402 3.461 -3.406 c 1.926 0.004 3.457 1.527 3.457 3.406 c 0 1.879 -1.531 3.402 -3.457 3.406 m 0 0" fill="#ec4a4a" stroke="none" fill-rule="nonzero" fill-opacity="1"/><path d="m 24 26.5 c -0.832 0 -1.5 0.672 -1.5 1.5 c 0 0.828 0.668 1.496 1.5 1.496 c 0.828 0 1.496 -0.668 1.496 -1.496 c 0 -0.828 -0.672 -1.5 -1.496 -1.5 m 0 0" fill="#2d2d2d" stroke="none" fill-rule="nonzero" fill-opacity="1"/><path d="m 34 20 l -8 -8 c -0.004 4 0 6 0 7 c 0 1 0 1 1 1 c 1 0 4.098 0.008 7 0 m 0 0" fill="#dedede" stroke="none" fill-rule="nonzero" fill-opacity="1"/></g></g></g><g><path d="m 20 4 -7.313 3.03 -5.656 5.656 -3.03 7.313 0 8 3.03 7.313 5.656 5.656 7.313 3.03 8 0 7.313 -3.03 5.656 -5.656 3.03 -7.313 0 -8 -3.03 -7.313 -5.656 -5.656 -7.313 -3.03 -8 0 z" clip-path="url(#clipPath4313)" transform="matrix(0,1,-1,0,48,0)" opacity="0.3" stroke-opacity="1" stroke-dasharray="none" visibility="visible" fill="none" display="inline" stroke="url(#linearGradient4375)" color="#000" stroke-width="1" stroke-miterlimit="4"/><path d="m 24 2.344 -4 1.656 -4.281 0 -3.03 3.03 l -4 1.656 -1.656 4 l -3.03 3.03 0 4.281 -1.656 4 1.656 4 l 0 4.281 3.03 3.03 1.656 4 4 1.656 l 3.03 3.03 4.281 0 4 1.656 4 -1.656 l 4.281 0 3.03 -3.03 4 -1.656 1.656 -4 l 3.03 -3.03 0 -4.281 1.656 -4 -1.656 -4 l 0 -4.281 -3.03 -3.03 -1.656 -4 -4 -1.656 l -3.03 -3.03 -4.281 0 -4 -1.656 z" clip-path="url(#clipPath4329)" opacity="0.2" stroke-opacity="1" visibility="visible" fill="none" display="inline" stroke="#000" color="#000" stroke-width="2"/></g></svg>