<svg viewBox="0 0 48 48" xmlns:xlink="http://www.w3.org/1999/xlink"><defs><clipPath clipPathUnits="userSpaceOnUse" id="clipPath4313"><path d="m 20 4 -7.313 3.03 -5.656 5.656 -3.03 7.313 0 8 3.03 7.313 5.656 5.656 7.313 3.03 8 0 7.313 -3.03 5.656 -5.656 3.03 -7.313 0 -8 -3.03 -7.313 -5.656 -5.656 -7.313 -3.03 -8 0 z"/></clipPath><clipPath clipPathUnits="userSpaceOnUse" id="clipPath4329"><path d="m 24 2.344 -4 1.656 -4.281 0 -3.03 3.03 l -4 1.656 -1.656 4 l -3.03 3.03 0 4.281 -1.656 4 1.656 4 l 0 4.281 3.03 3.03 1.656 4 4 1.656 l 3.03 3.03 4.281 0 4 1.656 4 -1.656 l 4.281 0 3.03 -3.03 4 -1.656 1.656 -4 l 3.03 -3.03 0 -4.281 1.656 -4 -1.656 -4 l 0 -4.281 -3.03 -3.03 -1.656 -4 -4 -1.656 l -3.03 -3.03 -4.281 0 -4 -1.656 z"/></clipPath><clipPath id="clipPath-296127306"><path d="m 24 2.344 l -4 1.656 l -4.281 0 l -3.03 3.03 l -4 1.656 l -1.656 4 l -3.03 3.03 l 0 4.281 l -1.656 4 l 1.656 4 l 0 4.281 l 3.03 3.03 l 1.656 4 l 4 1.656 l 3.03 3.03 l 4.281 0 l 4 1.656 l 4 -1.656 l 4.281 0 l 3.03 -3.03 l 4 -1.656 l 1.656 -4 l 3.03 -3.03 l 0 -4.281 l 1.656 -4 l -1.656 -4 l 0 -4.281 l -3.03 -3.03 l -1.656 -4 l -4 -1.656 l -3.03 -3.03 l -4.281 0 l -4 -1.656 z"/></clipPath><clipPath id="clipPath-301684549"><path d="m 24 2.344 l -4 1.656 l -4.281 0 l -3.03 3.03 l -4 1.656 l -1.656 4 l -3.03 3.03 l 0 4.281 l -1.656 4 l 1.656 4 l 0 4.281 l 3.03 3.03 l 1.656 4 l 4 1.656 l 3.03 3.03 l 4.281 0 l 4 1.656 l 4 -1.656 l 4.281 0 l 3.03 -3.03 l 4 -1.656 l 1.656 -4 l 3.03 -3.03 l 0 -4.281 l 1.656 -4 l -1.656 -4 l 0 -4.281 l -3.03 -3.03 l -1.656 -4 l -4 -1.656 l -3.03 -3.03 l -4.281 0 l -4 -1.656 z"/></clipPath><linearGradient id="linearGradient4317"><stop stop-color="#fff" stop-opacity="1"/><stop offset="1" stop-color="#fff" stop-opacity="0"/></linearGradient><clipPath clipPathUnits="userSpaceOnUse" id="clipPath4313"><path d="m 20 4 -7.313 3.03 -5.656 5.656 -3.03 7.313 0 8 3.03 7.313 5.656 5.656 7.313 3.03 8 0 7.313 -3.03 5.656 -5.656 3.03 -7.313 0 -8 -3.03 -7.313 -5.656 -5.656 -7.313 -3.03 -8 0 z"/></clipPath><linearGradient x2="44" x1="4" gradientUnits="userSpaceOnUse" id="linearGradient4375" xlink:href="#linearGradient4317"/><clipPath clipPathUnits="userSpaceOnUse" id="clipPath4329"><path d="m 24 2.344 -4 1.656 -4.281 0 -3.03 3.03 l -4 1.656 -1.656 4 l -3.03 3.03 0 4.281 -1.656 4 1.656 4 l 0 4.281 3.03 3.03 1.656 4 4 1.656 l 3.03 3.03 4.281 0 4 1.656 4 -1.656 l 4.281 0 3.03 -3.03 4 -1.656 1.656 -4 l 3.03 -3.03 0 -4.281 1.656 -4 -1.656 -4 l 0 -4.281 -3.03 -3.03 -1.656 -4 -4 -1.656 l -3.03 -3.03 -4.281 0 -4 -1.656 z"/></clipPath><path id="SVGCleanerId_0" d="m 24 2.344 l -4 1.656 l -4.281 0 l -3.03 3.03 l -4 1.656 l -1.656 4 l -3.03 3.03 l 0 4.281 l -1.656 4 l 1.656 4 l 0 4.281 l 3.03 3.03 l 1.656 4 l 4 1.656 l 3.03 3.03 l 4.281 0 l 4 1.656 l 4 -1.656 l 4.281 0 l 3.03 -3.03 l 4 -1.656 l 1.656 -4 l 3.03 -3.03 l 0 -4.281 l 1.656 -4 l -1.656 -4 l 0 -4.281 l -3.03 -3.03 l -1.656 -4 l -4 -1.656 l -3.03 -3.03 l -4.281 0 l -4 -1.656 z" visibility="visible" display="inline" fill-rule="nonzero" color="#000" fill-opacity="1"/></defs><g><path d="m 2.563 24.5 l -0.219 0.5 l 1.656 4 l 0 -1 l -1.438 -3.5 z m 42.875 0 l -1.438 3.5 l 0 1 l 1.656 -4 l -0.219 -0.5 z m -41.44 7.781 l 0 1 l 3.03 3.03 l 1.656 4 l 4 1.656 l 3.03 3.03 l 4.281 0 l 4 1.656 l 4 -1.656 l 4.281 0 l 3.03 -3.03 l 4 -1.656 l 1.656 -4 l 3.03 -3.03 l 0 -1 l -3.03 3.03 l -1.656 4 l -4 1.656 l -3.03 3.03 l -4.281 0 l -4 1.656 l -4 -1.656 l -4.281 0 l -3.03 -3.03 l -4 -1.656 l -1.656 -4 l -3.03 -3.03 z" opacity="0.3" visibility="visible" fill="#000" display="inline" fill-rule="nonzero" stroke="none" fill-opacity="1" color="#000"/></g><g><use fill="#f1f1f1" stroke="none" xlink:href="#SVGCleanerId_0"/><path d="m 24 2.344 l -4 1.656 l 8 0 l -4 -1.656 z m 4 1.656 l 7.313 3.03 l -3.03 -3.03 l -4.281 0 z m 7.313 3.03 l 5.656 5.656 l -1.656 -4 l -4 -1.656 z m 5.656 5.656 l 3.03 7.313 l 0 -4.281 l -3.03 -3.03 z m 3.03 7.313 l 0 8 l 1.656 -4 l -1.656 -4 z m 0 8 l -3.03 7.313 l 3.03 -3.03 l 0 -4.281 z m -3.03 7.313 l -5.656 5.656 l 4 -1.656 l 1.656 -4 z m -5.656 5.656 l -7.313 3.03 l 4.281 0 l 3.03 -3.03 z m -7.313 3.03 l -8 0 l 4 1.656 l 4 -1.656 z m -8 0 l -7.313 -3.03 l 3.03 3.03 l 4.281 0 z m -7.313 -3.03 l -5.656 -5.656 l 1.656 4 l 4 1.656 z m -5.656 -5.656 l -3.03 -7.313 l 0 4.281 l 3.03 3.03 z m -3.03 -7.313 l 0 -8 l -1.656 4 l 1.656 4 z m 0 -8 l 3.03 -7.313 l -3.03 3.03 l 0 4.281 z m 3.03 -7.313 l 5.656 -5.656 l -4 1.656 l -1.656 4 z m 5.656 -5.656 l 7.313 -3.03 l -4.281 0 l -3.03 3.03 z" opacity="0.05" visibility="visible" fill="#f1f1f1" display="inline" fill-rule="nonzero" stroke="none" fill-opacity="1" color="#000"/></g><g><use opacity="0.05" stroke-opacity="1" stroke-dasharray="none" fill="#000" stroke="#000" stroke-width="2" stroke-miterlimit="4" xlink:href="#SVGCleanerId_0"/><use opacity="0.1" stroke-opacity="1" stroke-dasharray="none" fill="#000" stroke="#000" stroke-width="1" stroke-miterlimit="4" xlink:href="#SVGCleanerId_0"/></g><g><g clip-path="url(#clipPath-296127306)"><g transform="translate(0,1)"><g opacity="0.1"><!-- color: #f1f1f1 --><g><path d="m 24 1 c -12.703 0 -23 10.297 -23 23 c 0 12.703 10.297 23 23 23 c 12.703 0 23 -10.297 23 -23 c 0 -12.703 -10.297 -23 -23 -23 m 0 2.871 c 11.11 0 20.13 9.01 20.13 20.13 c 0 9.504 -6.59 17.48 -15.453 19.586 c -0.09 -0.18 -0.199 -0.371 -0.18 -0.648 c 0.051 -0.797 0.082 -1.832 0.18 -2.727 c 0.102 -0.898 0.465 -8.43 1.762 -10.426 c 1.297 -1.996 4.992 -4.387 6.289 -4.633 c 1.297 -0.25 1.078 -0.77 1.078 -1.223 c 0 -0.453 -0.227 -1.434 -0.574 -1.582 c -0.352 -0.148 -1.707 0.727 -2.16 0.824 c -0.449 0.102 -2.602 0.285 -2.91 -0.215 c -0.297 -0.5 2.414 -5.586 2.773 -6.18 c 0.352 -0.598 0.504 -1.418 -0.148 -2.266 c -0.645 -0.844 -1.082 -1.688 -1.328 -1.688 c -0.82 0 -2.422 1.891 -3.02 2.191 c -0.598 0.301 -5.336 3.68 -5.785 4.273 c -0.449 0.602 -1.043 0.844 -1.688 0.789 c -0.648 -0.047 -2.723 -0.07 -3.414 0.324 c -0.699 0.398 -3.91 3.66 -4.711 4.063 c -0.805 0.398 -1.844 0.637 -2.344 0.688 c -0.5 0.047 -2.137 1.875 -2.586 2.227 c -0.441 0.352 -3.984 1.891 -4.484 2.195 c -0.5 0.297 3.645 4.5 4.234 4.598 c 0.566 0.094 -0.32 2.125 -1.395 2.336 c -2.738 -3.438 -4.383 -7.773 -4.383 -12.508 c 0 -11.121 9.01 -20.13 20.13 -20.13 m -1.652 18.332 c 0.637 -0.063 1.152 0.035 1.152 0.035 c 0.227 0.531 -0.844 2.18 -1.832 2.41 c -0.988 0.227 -3.266 3.598 -3.34 2.836 c -0.078 -0.762 0.906 -3.281 2.047 -4.418 c 0.57 -0.57 1.34 -0.797 1.977 -0.859 m -0.004 -0.004" fill="#000" stroke="none" fill-rule="nonzero" fill-opacity="1"/></g></g></g></g></g><g><g clip-path="url(#clipPath-301684549)"><!-- color: #f1f1f1 --><g><path d="m 24 1 c -12.703 0 -23 10.297 -23 23 c 0 12.703 10.297 23 23 23 c 12.703 0 23 -10.297 23 -23 c 0 -12.703 -10.297 -23 -23 -23 m 0 2.871 c 11.11 0 20.13 9.01 20.13 20.13 c 0 9.504 -6.59 17.48 -15.453 19.586 c -0.09 -0.18 -0.199 -0.371 -0.18 -0.648 c 0.051 -0.797 0.082 -1.832 0.18 -2.727 c 0.102 -0.898 0.465 -8.43 1.762 -10.426 c 1.297 -1.996 4.992 -4.387 6.289 -4.633 c 1.297 -0.25 1.078 -0.77 1.078 -1.223 c 0 -0.453 -0.227 -1.434 -0.574 -1.582 c -0.352 -0.148 -1.707 0.727 -2.16 0.824 c -0.449 0.102 -2.602 0.285 -2.91 -0.215 c -0.297 -0.5 2.414 -5.586 2.773 -6.18 c 0.352 -0.598 0.504 -1.418 -0.148 -2.266 c -0.645 -0.844 -1.082 -1.688 -1.328 -1.688 c -0.82 0 -2.422 1.891 -3.02 2.191 c -0.598 0.301 -5.336 3.68 -5.785 4.273 c -0.449 0.602 -1.043 0.844 -1.688 0.789 c -0.648 -0.047 -2.723 -0.07 -3.414 0.324 c -0.699 0.398 -3.91 3.66 -4.711 4.063 c -0.805 0.398 -1.844 0.637 -2.344 0.688 c -0.5 0.047 -2.137 1.875 -2.586 2.227 c -0.441 0.352 -3.984 1.891 -4.484 2.195 c -0.5 0.297 3.645 4.5 4.234 4.598 c 0.566 0.094 -0.32 2.125 -1.395 2.336 c -2.738 -3.438 -4.383 -7.773 -4.383 -12.508 c 0 -11.121 9.01 -20.13 20.13 -20.13 m -1.652 18.332 c 0.637 -0.063 1.152 0.035 1.152 0.035 c 0.227 0.531 -0.844 2.18 -1.832 2.41 c -0.988 0.227 -3.266 3.598 -3.34 2.836 c -0.078 -0.762 0.906 -3.281 2.047 -4.418 c 0.57 -0.57 1.34 -0.797 1.977 -0.859 m -0.004 -0.004" fill="#5b7eaf" stroke="none" fill-rule="nonzero" fill-opacity="1"/></g></g></g><g><path d="m 20 4 -7.313 3.03 -5.656 5.656 -3.03 7.313 0 8 3.03 7.313 5.656 5.656 7.313 3.03 8 0 7.313 -3.03 5.656 -5.656 3.03 -7.313 0 -8 -3.03 -7.313 -5.656 -5.656 -7.313 -3.03 -8 0 z" clip-path="url(#clipPath4313)" transform="matrix(0,1,-1,0,48,0)" opacity="0.3" stroke-opacity="1" stroke-dasharray="none" visibility="visible" fill="none" display="inline" stroke="url(#linearGradient4375)" color="#000" stroke-width="1" stroke-miterlimit="4"/><path d="m 24 2.344 -4 1.656 -4.281 0 -3.03 3.03 l -4 1.656 -1.656 4 l -3.03 3.03 0 4.281 -1.656 4 1.656 4 l 0 4.281 3.03 3.03 1.656 4 4 1.656 l 3.03 3.03 4.281 0 4 1.656 4 -1.656 l 4.281 0 3.03 -3.03 4 -1.656 1.656 -4 l 3.03 -3.03 0 -4.281 1.656 -4 -1.656 -4 l 0 -4.281 -3.03 -3.03 -1.656 -4 -4 -1.656 l -3.03 -3.03 -4.281 0 -4 -1.656 z" clip-path="url(#clipPath4329)" opacity="0.2" stroke-opacity="1" visibility="visible" fill="none" display="inline" stroke="#000" color="#000" stroke-width="2"/></g></svg>