<svg viewBox="0 0 48 48" xmlns:xlink="http://www.w3.org/1999/xlink"><defs><clipPath clipPathUnits="userSpaceOnUse" id="clipPath4313"><path d="m 20 4 -7.313 3.03 -5.656 5.656 -3.03 7.313 0 8 3.03 7.313 5.656 5.656 7.313 3.03 8 0 7.313 -3.03 5.656 -5.656 3.03 -7.313 0 -8 -3.03 -7.313 -5.656 -5.656 -7.313 -3.03 -8 0 z"/></clipPath><clipPath clipPathUnits="userSpaceOnUse" id="clipPath4329"><path d="m 24 2.344 -4 1.656 -4.281 0 -3.03 3.03 l -4 1.656 -1.656 4 l -3.03 3.03 0 4.281 -1.656 4 1.656 4 l 0 4.281 3.03 3.03 1.656 4 4 1.656 l 3.03 3.03 4.281 0 4 1.656 4 -1.656 l 4.281 0 3.03 -3.03 4 -1.656 1.656 -4 l 3.03 -3.03 0 -4.281 1.656 -4 -1.656 -4 l 0 -4.281 -3.03 -3.03 -1.656 -4 -4 -1.656 l -3.03 -3.03 -4.281 0 -4 -1.656 z"/></clipPath><clipPath id="clipPath-575361057"><path d="m 24 2.344 l -4 1.656 l -4.281 0 l -3.03 3.03 l -4 1.656 l -1.656 4 l -3.03 3.03 l 0 4.281 l -1.656 4 l 1.656 4 l 0 4.281 l 3.03 3.03 l 1.656 4 l 4 1.656 l 3.03 3.03 l 4.281 0 l 4 1.656 l 4 -1.656 l 4.281 0 l 3.03 -3.03 l 4 -1.656 l 1.656 -4 l 3.03 -3.03 l 0 -4.281 l 1.656 -4 l -1.656 -4 l 0 -4.281 l -3.03 -3.03 l -1.656 -4 l -4 -1.656 l -3.03 -3.03 l -4.281 0 l -4 -1.656 z"/></clipPath><clipPath id="clipPath-581178973"><path d="m 24 2.344 l -4 1.656 l -4.281 0 l -3.03 3.03 l -4 1.656 l -1.656 4 l -3.03 3.03 l 0 4.281 l -1.656 4 l 1.656 4 l 0 4.281 l 3.03 3.03 l 1.656 4 l 4 1.656 l 3.03 3.03 l 4.281 0 l 4 1.656 l 4 -1.656 l 4.281 0 l 3.03 -3.03 l 4 -1.656 l 1.656 -4 l 3.03 -3.03 l 0 -4.281 l 1.656 -4 l -1.656 -4 l 0 -4.281 l -3.03 -3.03 l -1.656 -4 l -4 -1.656 l -3.03 -3.03 l -4.281 0 l -4 -1.656 z"/></clipPath><linearGradient id="linearGradient4317"><stop stop-color="#fff" stop-opacity="1"/><stop offset="1" stop-color="#fff" stop-opacity="0"/></linearGradient><clipPath clipPathUnits="userSpaceOnUse" id="clipPath4313"><path d="m 20 4 -7.313 3.03 -5.656 5.656 -3.03 7.313 0 8 3.03 7.313 5.656 5.656 7.313 3.03 8 0 7.313 -3.03 5.656 -5.656 3.03 -7.313 0 -8 -3.03 -7.313 -5.656 -5.656 -7.313 -3.03 -8 0 z"/></clipPath><linearGradient x2="44" x1="4" gradientUnits="userSpaceOnUse" id="linearGradient4375" xlink:href="#linearGradient4317"/><clipPath clipPathUnits="userSpaceOnUse" id="clipPath4329"><path d="m 24 2.344 -4 1.656 -4.281 0 -3.03 3.03 l -4 1.656 -1.656 4 l -3.03 3.03 0 4.281 -1.656 4 1.656 4 l 0 4.281 3.03 3.03 1.656 4 4 1.656 l 3.03 3.03 4.281 0 4 1.656 4 -1.656 l 4.281 0 3.03 -3.03 4 -1.656 1.656 -4 l 3.03 -3.03 0 -4.281 1.656 -4 -1.656 -4 l 0 -4.281 -3.03 -3.03 -1.656 -4 -4 -1.656 l -3.03 -3.03 -4.281 0 -4 -1.656 z"/></clipPath><linearGradient id="linear0" gradientUnits="userSpaceOnUse" x1="89.34" y1="93.88" x2="94.27" y2="34.86" gradientTransform="matrix(0.0290589,0,0,0.0604545,21.404909,24.768589)"><stop stop-color="#d6c187" stop-opacity="1"/><stop offset="1" stop-color="#ffdd5b" stop-opacity="0"/></linearGradient><linearGradient id="linear1" gradientUnits="userSpaceOnUse" x1="89.34" y1="93.88" x2="94.27" y2="34.86" gradientTransform="matrix(0.0213498,0,0,0.0444165,22.078489,25.91912)" xlink:href="#linear0"/><linearGradient id="linear2" gradientUnits="userSpaceOnUse" x1="89.34" y1="93.88" x2="94.27" y2="34.86" gradientTransform="matrix(0.0131873,0,0,0.027435,22.791692,27.13754)" xlink:href="#linear0"/><linearGradient id="linear0" gradientUnits="userSpaceOnUse" x1="89.34" y1="93.88" x2="94.27" y2="34.86" gradientTransform="matrix(0.0290589,0,0,0.0604545,21.404909,24.768589)"><stop stop-color="#d6c187" stop-opacity="1"/><stop offset="1" stop-color="#ffdd5b" stop-opacity="0"/></linearGradient><linearGradient id="linear1" gradientUnits="userSpaceOnUse" x1="89.34" y1="93.88" x2="94.27" y2="34.86" gradientTransform="matrix(0.0213498,0,0,0.0444165,22.078489,25.91912)" xlink:href="#linear0"/><linearGradient id="linear2" gradientUnits="userSpaceOnUse" x1="89.34" y1="93.88" x2="94.27" y2="34.86" gradientTransform="matrix(0.0131873,0,0,0.027435,22.791692,27.13754)" xlink:href="#linear0"/><path id="SVGCleanerId_0" d="m 24 2.344 l -4 1.656 l -4.281 0 l -3.03 3.03 l -4 1.656 l -1.656 4 l -3.03 3.03 l 0 4.281 l -1.656 4 l 1.656 4 l 0 4.281 l 3.03 3.03 l 1.656 4 l 4 1.656 l 3.03 3.03 l 4.281 0 l 4 1.656 l 4 -1.656 l 4.281 0 l 3.03 -3.03 l 4 -1.656 l 1.656 -4 l 3.03 -3.03 l 0 -4.281 l 1.656 -4 l -1.656 -4 l 0 -4.281 l -3.03 -3.03 l -1.656 -4 l -4 -1.656 l -3.03 -3.03 l -4.281 0 l -4 -1.656 z" visibility="visible" display="inline" fill-rule="nonzero" color="#000" fill-opacity="1"/></defs><g><path d="m 2.563 24.5 l -0.219 0.5 l 1.656 4 l 0 -1 l -1.438 -3.5 z m 42.875 0 l -1.438 3.5 l 0 1 l 1.656 -4 l -0.219 -0.5 z m -41.44 7.781 l 0 1 l 3.03 3.03 l 1.656 4 l 4 1.656 l 3.03 3.03 l 4.281 0 l 4 1.656 l 4 -1.656 l 4.281 0 l 3.03 -3.03 l 4 -1.656 l 1.656 -4 l 3.03 -3.03 l 0 -1 l -3.03 3.03 l -1.656 4 l -4 1.656 l -3.03 3.03 l -4.281 0 l -4 1.656 l -4 -1.656 l -4.281 0 l -3.03 -3.03 l -4 -1.656 l -1.656 -4 l -3.03 -3.03 z" opacity="0.3" visibility="visible" fill="#000" display="inline" fill-rule="nonzero" stroke="none" fill-opacity="1" color="#000"/></g><g><use fill="#3d3d3d" stroke="none" xlink:href="#SVGCleanerId_0"/><path d="m 24 2.344 l -4 1.656 l 8 0 l -4 -1.656 z m 4 1.656 l 7.313 3.03 l -3.03 -3.03 l -4.281 0 z m 7.313 3.03 l 5.656 5.656 l -1.656 -4 l -4 -1.656 z m 5.656 5.656 l 3.03 7.313 l 0 -4.281 l -3.03 -3.03 z m 3.03 7.313 l 0 8 l 1.656 -4 l -1.656 -4 z m 0 8 l -3.03 7.313 l 3.03 -3.03 l 0 -4.281 z m -3.03 7.313 l -5.656 5.656 l 4 -1.656 l 1.656 -4 z m -5.656 5.656 l -7.313 3.03 l 4.281 0 l 3.03 -3.03 z m -7.313 3.03 l -8 0 l 4 1.656 l 4 -1.656 z m -8 0 l -7.313 -3.03 l 3.03 3.03 l 4.281 0 z m -7.313 -3.03 l -5.656 -5.656 l 1.656 4 l 4 1.656 z m -5.656 -5.656 l -3.03 -7.313 l 0 4.281 l 3.03 3.03 z m -3.03 -7.313 l 0 -8 l -1.656 4 l 1.656 4 z m 0 -8 l 3.03 -7.313 l -3.03 3.03 l 0 4.281 z m 3.03 -7.313 l 5.656 -5.656 l -4 1.656 l -1.656 4 z m 5.656 -5.656 l 7.313 -3.03 l -4.281 0 l -3.03 3.03 z" opacity="0.05" visibility="visible" fill="#3d3d3d" display="inline" fill-rule="nonzero" stroke="none" fill-opacity="1" color="#000"/></g><g><use opacity="0.05" stroke-opacity="1" stroke-dasharray="none" fill="#000" stroke="#000" stroke-width="2" stroke-miterlimit="4" xlink:href="#SVGCleanerId_0"/><use opacity="0.1" stroke-opacity="1" stroke-dasharray="none" fill="#000" stroke="#000" stroke-width="1" stroke-miterlimit="4" xlink:href="#SVGCleanerId_0"/></g><g><g clip-path="url(#clipPath-575361057)"><g transform="translate(0,1)"><g opacity="0.1"><!-- color: #3d3d3d --><g><path d="m 24 13.602 c 0 0 -4.402 -2.496 -5.707 -1.254 c -0.652 0.621 -1.477 1.836 -1.359 3 c 0.215 2.207 1.816 6.883 2.156 7.262 c 0.34 0.379 0.738 0.57 0.852 0.418 c 0.113 -0.152 0.398 -0.684 0 -0.723 c -0.398 -0.039 -1.703 -3.496 -1.816 -4.258 c -0.113 -0.762 -0.953 -2.785 -0.219 -4.191 c 0.738 -1.406 0.953 -1.363 1.809 -1.363 c 0.852 0 4.289 1.715 4.289 1.715 m -0.004 -0.609" fill="#000" stroke="none" fill-rule="nonzero" fill-opacity="1"/><path d="m 21.781 24.2 l 4.438 0 c 1.535 0 2.781 0.219 2.781 0.484 l 0 10.836 c 0 0.266 -1.246 0.48 -2.781 0.48 l -4.438 0 c -1.535 0 -2.781 -0.215 -2.781 -0.48 l 0 -10.836 c 0 -0.266 1.246 -0.484 2.781 -0.484 m 0 0" fill="#000" stroke="none" fill-rule="nonzero" fill-opacity="1"/><path d="m 16 24.05 c 0 1.262 15.848 1.082 16 0.543 c -1.273 -2.438 -5.113 -7.633 -7.887 -7.582 c -2.625 -0.219 -7.977 6.074 -8.113 7.04 m -0.004 0" fill="#000" stroke="none" fill-rule="nonzero" fill-opacity="1"/><path d="m 28.06 22.695 c 0 0.348 -0.371 0.629 -0.832 0.629 c -0.461 0 -0.832 -0.281 -0.832 -0.629 c 0 -0.348 0.371 -0.633 0.832 -0.633 c 0.461 0 0.832 0.285 0.832 0.633 m 0 0" fill="#000" stroke="none" fill-rule="nonzero" fill-opacity="1"/><path d="m 24 13.598 c 0 0 3.383 -2.395 4.773 -1.25 c 0.918 0.754 1.277 1.305 1.363 3 c 0.109 2.211 -1.82 6.883 -2.16 7.262 c -0.34 0.379 -0.734 0.57 -0.848 0.418 c -0.113 -0.152 -0.133 -0.75 0.266 -0.789 c 0.395 -0.039 1.277 -2.457 1.684 -4.125 c 0.508 -2.105 0.488 -3.316 0.078 -4.254 c -0.625 -1.461 -0.953 -1.363 -1.805 -1.363 c -0.852 0 -3.359 1.723 -3.359 1.723 m 0.008 -0.625" fill="#000" stroke="none" fill-rule="nonzero" fill-opacity="1"/><use xlink:href="#SVGCleanerId_1"/><path d="m 28 34.602 c 0 0.328 -1.793 0.598 -4 0.598 c -2.211 0 -4 -0.27 -4 -0.598 c 0 -0.332 1.789 -0.602 4 -0.602 c 2.207 0 4 0.27 4 0.602 m 0 0" fill="#000" stroke="none" fill-rule="nonzero" fill-opacity="0.557"/><path d="m 24 29.672 c 0.551 0 0.996 0.133 0.996 0.301 l 0 4.426 c 0 0.168 -0.445 0.301 -0.996 0.301 c -0.555 0 -1 -0.133 -1 -0.301 l 0 -4.426 c 0 -0.168 0.445 -0.301 1 -0.301 m 0 0" fill="#000" stroke="none" fill-rule="nonzero" fill-opacity="1"/><path d="m 24.656 29.11 c 0 0.777 -0.32 1.406 -0.715 1.406 c -0.395 0 -0.715 -0.629 -0.715 -1.406 c 0 -0.777 0.32 -1.406 0.715 -1.406 c 0.395 0 0.715 0.629 0.715 1.406 m 0 0" fill="#000" stroke="none" fill-rule="nonzero"/><path d="m 24.469 29.11 c 0 0.57 -0.234 1.035 -0.523 1.035 c -0.293 0 -0.527 -0.465 -0.527 -1.035 c 0 -0.57 0.234 -1.035 0.527 -1.035 c 0.289 0 0.523 0.465 0.523 1.035 m 0 0" fill="#000" stroke="none" fill-rule="nonzero"/><path d="m 24.27 29.11 c -0.02 0.324 -0.16 0.57 -0.324 0.57 c -0.168 0 -0.309 -0.246 -0.324 -0.57 c -0.016 -0.242 0.043 -0.48 0.148 -0.609 c 0.105 -0.129 0.242 -0.129 0.348 0 c 0.105 0.129 0.164 0.367 0.152 0.609 m 0 0" fill="#000" stroke="none" fill-rule="nonzero"/></g></g></g></g></g><g><g clip-path="url(#clipPath-581178973)"><!-- color: #3d3d3d --><g><path d="m 24 13.602 c 0 0 -4.402 -2.496 -5.707 -1.254 c -0.652 0.621 -1.477 1.836 -1.359 3 c 0.215 2.207 1.816 6.883 2.156 7.262 c 0.34 0.379 0.738 0.57 0.852 0.418 c 0.113 -0.152 0.398 -0.684 0 -0.723 c -0.398 -0.039 -1.703 -3.496 -1.816 -4.258 c -0.113 -0.762 -0.953 -2.785 -0.219 -4.191 c 0.738 -1.406 0.953 -1.363 1.809 -1.363 c 0.852 0 4.289 1.715 4.289 1.715 m -0.004 -0.609" fill="#8e7153" stroke="none" fill-rule="nonzero" fill-opacity="1"/><path d="m 21.781 24.2 l 4.438 0 c 1.535 0 2.781 0.219 2.781 0.484 l 0 10.836 c 0 0.266 -1.246 0.48 -2.781 0.48 l -4.438 0 c -1.535 0 -2.781 -0.215 -2.781 -0.48 l 0 -10.836 c 0 -0.266 1.246 -0.484 2.781 -0.484 m 0 0" fill="#8e7553" stroke="none" fill-rule="nonzero" fill-opacity="1"/><path d="m 16 24.05 c 0 1.262 15.848 1.082 16 0.543 c -1.273 -2.438 -5.113 -7.633 -7.887 -7.582 c -2.625 -0.219 -7.977 6.074 -8.113 7.04 m -0.004 0" fill="#786245" stroke="none" fill-rule="nonzero" fill-opacity="1"/><path d="m 28.06 22.695 c 0 0.348 -0.371 0.629 -0.832 0.629 c -0.461 0 -0.832 -0.281 -0.832 -0.629 c 0 -0.348 0.371 -0.633 0.832 -0.633 c 0.461 0 0.832 0.285 0.832 0.633 m 0 0" fill="#171210" stroke="none" fill-rule="nonzero" fill-opacity="1"/><path d="m 24 13.598 c 0 0 3.383 -2.395 4.773 -1.25 c 0.918 0.754 1.277 1.305 1.363 3 c 0.109 2.211 -1.82 6.883 -2.16 7.262 c -0.34 0.379 -0.734 0.57 -0.848 0.418 c -0.113 -0.152 -0.133 -0.75 0.266 -0.789 c 0.395 -0.039 1.277 -2.457 1.684 -4.125 c 0.508 -2.105 0.488 -3.316 0.078 -4.254 c -0.625 -1.461 -0.953 -1.363 -1.805 -1.363 c -0.852 0 -3.359 1.723 -3.359 1.723 m 0.008 -0.625" fill="#8e7153" stroke="none" fill-rule="nonzero" fill-opacity="1"/><path d="m 23.43 26 l 1.141 0 c 1.895 0 3.43 0.219 3.43 0.484 l 0 8.03 c 0 0.27 -1.535 0.477 -3.43 0.477 l -1.141 0 c -1.895 0 -3.43 -0.215 -3.43 -0.477 l 0 -8.03 c 0 -0.266 1.535 -0.484 3.43 -0.484 m 0 0" fill="#000" stroke="none" fill-rule="nonzero" fill-opacity="0.604" id="SVGCleanerId_1"/><path d="m 28 34.602 c 0 0.328 -1.793 0.598 -4 0.598 c -2.211 0 -4 -0.27 -4 -0.598 c 0 -0.332 1.789 -0.602 4 -0.602 c 2.207 0 4 0.27 4 0.602 m 0 0" fill="#8e7153" stroke="none" fill-rule="nonzero" fill-opacity="0.557"/><path d="m 24 29.672 c 0.551 0 0.996 0.133 0.996 0.301 l 0 4.426 c 0 0.168 -0.445 0.301 -0.996 0.301 c -0.555 0 -1 -0.133 -1 -0.301 l 0 -4.426 c 0 -0.168 0.445 -0.301 1 -0.301 m 0 0" fill="#c7b9a9" stroke="none" fill-rule="nonzero" fill-opacity="1"/><path d="m 24.656 29.11 c 0 0.777 -0.32 1.406 -0.715 1.406 c -0.395 0 -0.715 -0.629 -0.715 -1.406 c 0 -0.777 0.32 -1.406 0.715 -1.406 c 0.395 0 0.715 0.629 0.715 1.406 m 0 0" fill="url(#linear0)" stroke="none" fill-rule="nonzero"/><path d="m 24.469 29.11 c 0 0.57 -0.234 1.035 -0.523 1.035 c -0.293 0 -0.527 -0.465 -0.527 -1.035 c 0 -0.57 0.234 -1.035 0.527 -1.035 c 0.289 0 0.523 0.465 0.523 1.035 m 0 0" fill="url(#linear1)" stroke="none" fill-rule="nonzero"/><path d="m 24.27 29.11 c -0.02 0.324 -0.16 0.57 -0.324 0.57 c -0.168 0 -0.309 -0.246 -0.324 -0.57 c -0.016 -0.242 0.043 -0.48 0.148 -0.609 c 0.105 -0.129 0.242 -0.129 0.348 0 c 0.105 0.129 0.164 0.367 0.152 0.609 m 0 0" fill="url(#linear2)" stroke="none" fill-rule="nonzero"/></g></g></g><g><path d="m 20 4 -7.313 3.03 -5.656 5.656 -3.03 7.313 0 8 3.03 7.313 5.656 5.656 7.313 3.03 8 0 7.313 -3.03 5.656 -5.656 3.03 -7.313 0 -8 -3.03 -7.313 -5.656 -5.656 -7.313 -3.03 -8 0 z" clip-path="url(#clipPath4313)" transform="matrix(0,1,-1,0,48,0)" opacity="0.3" stroke-opacity="1" stroke-dasharray="none" visibility="visible" fill="none" display="inline" stroke="url(#linearGradient4375)" color="#000" stroke-width="1" stroke-miterlimit="4"/><path d="m 24 2.344 -4 1.656 -4.281 0 -3.03 3.03 l -4 1.656 -1.656 4 l -3.03 3.03 0 4.281 -1.656 4 1.656 4 l 0 4.281 3.03 3.03 1.656 4 4 1.656 l 3.03 3.03 4.281 0 4 1.656 4 -1.656 l 4.281 0 3.03 -3.03 4 -1.656 1.656 -4 l 3.03 -3.03 0 -4.281 1.656 -4 -1.656 -4 l 0 -4.281 -3.03 -3.03 -1.656 -4 -4 -1.656 l -3.03 -3.03 -4.281 0 -4 -1.656 z" clip-path="url(#clipPath4329)" opacity="0.2" stroke-opacity="1" visibility="visible" fill="none" display="inline" stroke="#000" color="#000" stroke-width="2"/></g></svg>