<svg viewBox="0 0 48 48" xmlns:xlink="http://www.w3.org/1999/xlink"><defs><clipPath clipPathUnits="userSpaceOnUse" id="clipPath4313"><path d="m 20 4 -7.313 3.03 -5.656 5.656 -3.03 7.313 0 8 3.03 7.313 5.656 5.656 7.313 3.03 8 0 7.313 -3.03 5.656 -5.656 3.03 -7.313 0 -8 -3.03 -7.313 -5.656 -5.656 -7.313 -3.03 -8 0 z"/></clipPath><clipPath clipPathUnits="userSpaceOnUse" id="clipPath4329"><path d="m 24 2.344 -4 1.656 -4.281 0 -3.03 3.03 l -4 1.656 -1.656 4 l -3.03 3.03 0 4.281 -1.656 4 1.656 4 l 0 4.281 3.03 3.03 1.656 4 4 1.656 l 3.03 3.03 4.281 0 4 1.656 4 -1.656 l 4.281 0 3.03 -3.03 4 -1.656 1.656 -4 l 3.03 -3.03 0 -4.281 1.656 -4 -1.656 -4 l 0 -4.281 -3.03 -3.03 -1.656 -4 -4 -1.656 l -3.03 -3.03 -4.281 0 -4 -1.656 z"/></clipPath><clipPath id="clipPath-350612932"><path d="m 24 2.344 l -4 1.656 l -4.281 0 l -3.03 3.03 l -4 1.656 l -1.656 4 l -3.03 3.03 l 0 4.281 l -1.656 4 l 1.656 4 l 0 4.281 l 3.03 3.03 l 1.656 4 l 4 1.656 l 3.03 3.03 l 4.281 0 l 4 1.656 l 4 -1.656 l 4.281 0 l 3.03 -3.03 l 4 -1.656 l 1.656 -4 l 3.03 -3.03 l 0 -4.281 l 1.656 -4 l -1.656 -4 l 0 -4.281 l -3.03 -3.03 l -1.656 -4 l -4 -1.656 l -3.03 -3.03 l -4.281 0 l -4 -1.656 z"/></clipPath><clipPath id="clipPath-356258462"><path d="m 24 2.344 l -4 1.656 l -4.281 0 l -3.03 3.03 l -4 1.656 l -1.656 4 l -3.03 3.03 l 0 4.281 l -1.656 4 l 1.656 4 l 0 4.281 l 3.03 3.03 l 1.656 4 l 4 1.656 l 3.03 3.03 l 4.281 0 l 4 1.656 l 4 -1.656 l 4.281 0 l 3.03 -3.03 l 4 -1.656 l 1.656 -4 l 3.03 -3.03 l 0 -4.281 l 1.656 -4 l -1.656 -4 l 0 -4.281 l -3.03 -3.03 l -1.656 -4 l -4 -1.656 l -3.03 -3.03 l -4.281 0 l -4 -1.656 z"/></clipPath><linearGradient id="linearGradient4317"><stop stop-color="#fff" stop-opacity="1"/><stop offset="1" stop-color="#fff" stop-opacity="0"/></linearGradient><clipPath clipPathUnits="userSpaceOnUse" id="clipPath4313"><path d="m 20 4 -7.313 3.03 -5.656 5.656 -3.03 7.313 0 8 3.03 7.313 5.656 5.656 7.313 3.03 8 0 7.313 -3.03 5.656 -5.656 3.03 -7.313 0 -8 -3.03 -7.313 -5.656 -5.656 -7.313 -3.03 -8 0 z"/></clipPath><linearGradient x2="44" x1="4" gradientUnits="userSpaceOnUse" id="linearGradient4375" xlink:href="#linearGradient4317"/><clipPath clipPathUnits="userSpaceOnUse" id="clipPath4329"><path d="m 24 2.344 -4 1.656 -4.281 0 -3.03 3.03 l -4 1.656 -1.656 4 l -3.03 3.03 0 4.281 -1.656 4 1.656 4 l 0 4.281 3.03 3.03 1.656 4 4 1.656 l 3.03 3.03 4.281 0 4 1.656 4 -1.656 l 4.281 0 3.03 -3.03 4 -1.656 1.656 -4 l 3.03 -3.03 0 -4.281 1.656 -4 -1.656 -4 l 0 -4.281 -3.03 -3.03 -1.656 -4 -4 -1.656 l -3.03 -3.03 -4.281 0 -4 -1.656 z"/></clipPath><path id="SVGCleanerId_0" d="m 24 2.344 l -4 1.656 l -4.281 0 l -3.03 3.03 l -4 1.656 l -1.656 4 l -3.03 3.03 l 0 4.281 l -1.656 4 l 1.656 4 l 0 4.281 l 3.03 3.03 l 1.656 4 l 4 1.656 l 3.03 3.03 l 4.281 0 l 4 1.656 l 4 -1.656 l 4.281 0 l 3.03 -3.03 l 4 -1.656 l 1.656 -4 l 3.03 -3.03 l 0 -4.281 l 1.656 -4 l -1.656 -4 l 0 -4.281 l -3.03 -3.03 l -1.656 -4 l -4 -1.656 l -3.03 -3.03 l -4.281 0 l -4 -1.656 z" visibility="visible" display="inline" fill-rule="nonzero" color="#000" fill-opacity="1"/></defs><g><path d="m 2.563 24.5 l -0.219 0.5 l 1.656 4 l 0 -1 l -1.438 -3.5 z m 42.875 0 l -1.438 3.5 l 0 1 l 1.656 -4 l -0.219 -0.5 z m -41.44 7.781 l 0 1 l 3.03 3.03 l 1.656 4 l 4 1.656 l 3.03 3.03 l 4.281 0 l 4 1.656 l 4 -1.656 l 4.281 0 l 3.03 -3.03 l 4 -1.656 l 1.656 -4 l 3.03 -3.03 l 0 -1 l -3.03 3.03 l -1.656 4 l -4 1.656 l -3.03 3.03 l -4.281 0 l -4 1.656 l -4 -1.656 l -4.281 0 l -3.03 -3.03 l -4 -1.656 l -1.656 -4 l -3.03 -3.03 z" opacity="0.3" visibility="visible" fill="#000" display="inline" fill-rule="nonzero" stroke="none" fill-opacity="1" color="#000"/></g><g><use fill="#eee" stroke="none" xlink:href="#SVGCleanerId_0"/><path d="m 24 2.344 l -4 1.656 l 8 0 l -4 -1.656 z m 4 1.656 l 7.313 3.03 l -3.03 -3.03 l -4.281 0 z m 7.313 3.03 l 5.656 5.656 l -1.656 -4 l -4 -1.656 z m 5.656 5.656 l 3.03 7.313 l 0 -4.281 l -3.03 -3.03 z m 3.03 7.313 l 0 8 l 1.656 -4 l -1.656 -4 z m 0 8 l -3.03 7.313 l 3.03 -3.03 l 0 -4.281 z m -3.03 7.313 l -5.656 5.656 l 4 -1.656 l 1.656 -4 z m -5.656 5.656 l -7.313 3.03 l 4.281 0 l 3.03 -3.03 z m -7.313 3.03 l -8 0 l 4 1.656 l 4 -1.656 z m -8 0 l -7.313 -3.03 l 3.03 3.03 l 4.281 0 z m -7.313 -3.03 l -5.656 -5.656 l 1.656 4 l 4 1.656 z m -5.656 -5.656 l -3.03 -7.313 l 0 4.281 l 3.03 3.03 z m -3.03 -7.313 l 0 -8 l -1.656 4 l 1.656 4 z m 0 -8 l 3.03 -7.313 l -3.03 3.03 l 0 4.281 z m 3.03 -7.313 l 5.656 -5.656 l -4 1.656 l -1.656 4 z m 5.656 -5.656 l 7.313 -3.03 l -4.281 0 l -3.03 3.03 z" opacity="0.05" visibility="visible" fill="#eee" display="inline" fill-rule="nonzero" stroke="none" fill-opacity="1" color="#000"/></g><g><use opacity="0.05" stroke-opacity="1" stroke-dasharray="none" fill="#000" stroke="#000" stroke-width="2" stroke-miterlimit="4" xlink:href="#SVGCleanerId_0"/><use opacity="0.1" stroke-opacity="1" stroke-dasharray="none" fill="#000" stroke="#000" stroke-width="1" stroke-miterlimit="4" xlink:href="#SVGCleanerId_0"/></g><g><g clip-path="url(#clipPath-350612932)"><g transform="translate(0,1)"><g opacity="0.1"><!-- color: #eeeeee --><g><path d="m 17.328 18 c -1.66 0 -3.273 0.629 -4.461 1.742 c -1.188 1.117 -1.867 2.664 -1.867 4.258 c 0 1.594 0.684 3.137 1.867 4.25 c 1.172 1.102 2.762 1.727 4.402 1.738 l 0 0.004 c 0.02 0 0.035 0 0.059 0 c 1.957 0.082 3.539 -0.637 4.695 -1.676 c 0.797 -0.723 1.406 -1.57 1.977 -2.438 c 0.57 0.867 1.18 1.715 1.977 2.438 c 1.156 1.039 2.734 1.758 4.695 1.676 c 0.016 0 0.035 0 0.055 0 l 0 -0.004 c 1.641 -0.016 3.234 -0.637 4.406 -1.738 c 1.188 -1.117 1.867 -2.656 1.867 -4.25 c 0 -1.594 -0.684 -3.145 -1.867 -4.258 c -1.188 -1.113 -2.801 -1.742 -4.461 -1.742 c -2.066 0 -3.695 0.785 -4.902 1.875 c -0.695 0.633 -1.258 1.355 -1.77 2.098 c -0.516 -0.742 -1.074 -1.465 -1.773 -2.098 c -1.203 -1.09 -2.836 -1.875 -4.898 -1.875 m 0 2.117 c 1.539 0 2.523 0.496 3.43 1.309 c 0.711 0.645 1.332 1.543 1.953 2.496 c -0.707 1.113 -1.387 2.145 -2.152 2.836 c -0.852 0.766 -1.73 1.191 -3.172 1.117 l -0.031 -0.004 l -0.027 0 c -1.086 0 -2.188 -0.43 -2.941 -1.137 l -0.02 -0.012 c -0.758 -0.711 -1.203 -1.738 -1.203 -2.727 c 0 -0.992 0.445 -2.02 1.203 -2.73 c 0.766 -0.711 1.871 -1.148 2.961 -1.148 m 13.352 0 c 1.086 0 2.191 0.438 2.957 1.148 c 0.758 0.715 1.207 1.742 1.207 2.73 c 0 0.992 -0.449 2.02 -1.207 2.727 l -0.02 0.012 c -0.758 0.703 -1.855 1.137 -2.938 1.137 l -0.031 0 l -0.027 0.004 c -1.438 0.074 -2.324 -0.352 -3.176 -1.117 c -0.762 -0.691 -1.445 -1.723 -2.148 -2.836 c 0.621 -0.953 1.238 -1.855 1.953 -2.496 c 0.902 -0.816 1.887 -1.309 3.43 -1.309 m 0 0" fill="#000" stroke="none" fill-rule="nonzero" fill-opacity="1"/><path d="m 30 21 l 0 2 l -1.996 0 l 0 1.996 l 1.996 0 l 0 2 l 2 0 l 0 -2 l 1.996 0 l 0 -1.996 l -1.996 0 l 0 -2 m -2 0" fill="#000" stroke="none" fill-rule="nonzero" fill-opacity="1"/><path d="m 15 23 l 0 1.996 l 5 0 l 0 -1.996 m -5 0" fill="#000" stroke="none" fill-rule="nonzero" fill-opacity="1"/></g></g></g></g></g><g><g clip-path="url(#clipPath-356258462)"><!-- color: #eeeeee --><g><path d="m 17.328 18 c -1.66 0 -3.273 0.629 -4.461 1.742 c -1.188 1.117 -1.867 2.664 -1.867 4.258 c 0 1.594 0.684 3.137 1.867 4.25 c 1.172 1.102 2.762 1.727 4.402 1.738 l 0 0.004 c 0.02 0 0.035 0 0.059 0 c 1.957 0.082 3.539 -0.637 4.695 -1.676 c 0.797 -0.723 1.406 -1.57 1.977 -2.438 c 0.57 0.867 1.18 1.715 1.977 2.438 c 1.156 1.039 2.734 1.758 4.695 1.676 c 0.016 0 0.035 0 0.055 0 l 0 -0.004 c 1.641 -0.016 3.234 -0.637 4.406 -1.738 c 1.188 -1.117 1.867 -2.656 1.867 -4.25 c 0 -1.594 -0.684 -3.145 -1.867 -4.258 c -1.188 -1.113 -2.801 -1.742 -4.461 -1.742 c -2.066 0 -3.695 0.785 -4.902 1.875 c -0.695 0.633 -1.258 1.355 -1.77 2.098 c -0.516 -0.742 -1.074 -1.465 -1.773 -2.098 c -1.203 -1.09 -2.836 -1.875 -4.898 -1.875 m 0 2.117 c 1.539 0 2.523 0.496 3.43 1.309 c 0.711 0.645 1.332 1.543 1.953 2.496 c -0.707 1.113 -1.387 2.145 -2.152 2.836 c -0.852 0.766 -1.73 1.191 -3.172 1.117 l -0.031 -0.004 l -0.027 0 c -1.086 0 -2.188 -0.43 -2.941 -1.137 l -0.02 -0.012 c -0.758 -0.711 -1.203 -1.738 -1.203 -2.727 c 0 -0.992 0.445 -2.02 1.203 -2.73 c 0.766 -0.711 1.871 -1.148 2.961 -1.148 m 13.352 0 c 1.086 0 2.191 0.438 2.957 1.148 c 0.758 0.715 1.207 1.742 1.207 2.73 c 0 0.992 -0.449 2.02 -1.207 2.727 l -0.02 0.012 c -0.758 0.703 -1.855 1.137 -2.938 1.137 l -0.031 0 l -0.027 0.004 c -1.438 0.074 -2.324 -0.352 -3.176 -1.117 c -0.762 -0.691 -1.445 -1.723 -2.148 -2.836 c 0.621 -0.953 1.238 -1.855 1.953 -2.496 c 0.902 -0.816 1.887 -1.309 3.43 -1.309 m 0 0" fill="#00959c" stroke="none" fill-rule="nonzero" fill-opacity="1"/><path d="m 30 21 l 0 2 l -1.996 0 l 0 1.996 l 1.996 0 l 0 2 l 2 0 l 0 -2 l 1.996 0 l 0 -1.996 l -1.996 0 l 0 -2 m -2 0" fill="#00959c" stroke="none" fill-rule="nonzero" fill-opacity="1"/><path d="m 15 23 l 0 1.996 l 5 0 l 0 -1.996 m -5 0" fill="#00959c" stroke="none" fill-rule="nonzero" fill-opacity="1"/></g></g></g><g><path d="m 20 4 -7.313 3.03 -5.656 5.656 -3.03 7.313 0 8 3.03 7.313 5.656 5.656 7.313 3.03 8 0 7.313 -3.03 5.656 -5.656 3.03 -7.313 0 -8 -3.03 -7.313 -5.656 -5.656 -7.313 -3.03 -8 0 z" clip-path="url(#clipPath4313)" transform="matrix(0,1,-1,0,48,0)" opacity="0.3" stroke-opacity="1" stroke-dasharray="none" visibility="visible" fill="none" display="inline" stroke="url(#linearGradient4375)" color="#000" stroke-width="1" stroke-miterlimit="4"/><path d="m 24 2.344 -4 1.656 -4.281 0 -3.03 3.03 l -4 1.656 -1.656 4 l -3.03 3.03 0 4.281 -1.656 4 1.656 4 l 0 4.281 3.03 3.03 1.656 4 4 1.656 l 3.03 3.03 4.281 0 4 1.656 4 -1.656 l 4.281 0 3.03 -3.03 4 -1.656 1.656 -4 l 3.03 -3.03 0 -4.281 1.656 -4 -1.656 -4 l 0 -4.281 -3.03 -3.03 -1.656 -4 -4 -1.656 l -3.03 -3.03 -4.281 0 -4 -1.656 z" clip-path="url(#clipPath4329)" opacity="0.2" stroke-opacity="1" visibility="visible" fill="none" display="inline" stroke="#000" color="#000" stroke-width="2"/></g></svg>