<svg viewBox="0 0 48 48" xmlns:xlink="http://www.w3.org/1999/xlink"><defs><clipPath clipPathUnits="userSpaceOnUse" id="clipPath4313"><path d="m 20 4 -7.313 3.03 -5.656 5.656 -3.03 7.313 0 8 3.03 7.313 5.656 5.656 7.313 3.03 8 0 7.313 -3.03 5.656 -5.656 3.03 -7.313 0 -8 -3.03 -7.313 -5.656 -5.656 -7.313 -3.03 -8 0 z"/></clipPath><clipPath clipPathUnits="userSpaceOnUse" id="clipPath4329"><path d="m 24 2.344 -4 1.656 -4.281 0 -3.03 3.03 l -4 1.656 -1.656 4 l -3.03 3.03 0 4.281 -1.656 4 1.656 4 l 0 4.281 3.03 3.03 1.656 4 4 1.656 l 3.03 3.03 4.281 0 4 1.656 4 -1.656 l 4.281 0 3.03 -3.03 4 -1.656 1.656 -4 l 3.03 -3.03 0 -4.281 1.656 -4 -1.656 -4 l 0 -4.281 -3.03 -3.03 -1.656 -4 -4 -1.656 l -3.03 -3.03 -4.281 0 -4 -1.656 z"/></clipPath><clipPath id="clipPath-929726269"><path d="m 24 2.344 l -4 1.656 l -4.281 0 l -3.03 3.03 l -4 1.656 l -1.656 4 l -3.03 3.03 l 0 4.281 l -1.656 4 l 1.656 4 l 0 4.281 l 3.03 3.03 l 1.656 4 l 4 1.656 l 3.03 3.03 l 4.281 0 l 4 1.656 l 4 -1.656 l 4.281 0 l 3.03 -3.03 l 4 -1.656 l 1.656 -4 l 3.03 -3.03 l 0 -4.281 l 1.656 -4 l -1.656 -4 l 0 -4.281 l -3.03 -3.03 l -1.656 -4 l -4 -1.656 l -3.03 -3.03 l -4.281 0 l -4 -1.656 z"/></clipPath><clipPath id="clipPath-935463928"><path d="m 24 2.344 l -4 1.656 l -4.281 0 l -3.03 3.03 l -4 1.656 l -1.656 4 l -3.03 3.03 l 0 4.281 l -1.656 4 l 1.656 4 l 0 4.281 l 3.03 3.03 l 1.656 4 l 4 1.656 l 3.03 3.03 l 4.281 0 l 4 1.656 l 4 -1.656 l 4.281 0 l 3.03 -3.03 l 4 -1.656 l 1.656 -4 l 3.03 -3.03 l 0 -4.281 l 1.656 -4 l -1.656 -4 l 0 -4.281 l -3.03 -3.03 l -1.656 -4 l -4 -1.656 l -3.03 -3.03 l -4.281 0 l -4 -1.656 z"/></clipPath><linearGradient id="linearGradient4317"><stop stop-color="#fff" stop-opacity="1"/><stop offset="1" stop-color="#fff" stop-opacity="0"/></linearGradient><clipPath clipPathUnits="userSpaceOnUse" id="clipPath4313"><path d="m 20 4 -7.313 3.03 -5.656 5.656 -3.03 7.313 0 8 3.03 7.313 5.656 5.656 7.313 3.03 8 0 7.313 -3.03 5.656 -5.656 3.03 -7.313 0 -8 -3.03 -7.313 -5.656 -5.656 -7.313 -3.03 -8 0 z"/></clipPath><linearGradient x2="44" x1="4" gradientUnits="userSpaceOnUse" id="linearGradient4375" xlink:href="#linearGradient4317"/><clipPath clipPathUnits="userSpaceOnUse" id="clipPath4329"><path d="m 24 2.344 -4 1.656 -4.281 0 -3.03 3.03 l -4 1.656 -1.656 4 l -3.03 3.03 0 4.281 -1.656 4 1.656 4 l 0 4.281 3.03 3.03 1.656 4 4 1.656 l 3.03 3.03 4.281 0 4 1.656 4 -1.656 l 4.281 0 3.03 -3.03 4 -1.656 1.656 -4 l 3.03 -3.03 0 -4.281 1.656 -4 -1.656 -4 l 0 -4.281 -3.03 -3.03 -1.656 -4 -4 -1.656 l -3.03 -3.03 -4.281 0 -4 -1.656 z"/></clipPath><path id="SVGCleanerId_0" d="m 24 2.344 l -4 1.656 l -4.281 0 l -3.03 3.03 l -4 1.656 l -1.656 4 l -3.03 3.03 l 0 4.281 l -1.656 4 l 1.656 4 l 0 4.281 l 3.03 3.03 l 1.656 4 l 4 1.656 l 3.03 3.03 l 4.281 0 l 4 1.656 l 4 -1.656 l 4.281 0 l 3.03 -3.03 l 4 -1.656 l 1.656 -4 l 3.03 -3.03 l 0 -4.281 l 1.656 -4 l -1.656 -4 l 0 -4.281 l -3.03 -3.03 l -1.656 -4 l -4 -1.656 l -3.03 -3.03 l -4.281 0 l -4 -1.656 z" visibility="visible" display="inline" fill-rule="nonzero" color="#000" fill-opacity="1"/></defs><g><path d="m 2.563 24.5 l -0.219 0.5 l 1.656 4 l 0 -1 l -1.438 -3.5 z m 42.875 0 l -1.438 3.5 l 0 1 l 1.656 -4 l -0.219 -0.5 z m -41.44 7.781 l 0 1 l 3.03 3.03 l 1.656 4 l 4 1.656 l 3.03 3.03 l 4.281 0 l 4 1.656 l 4 -1.656 l 4.281 0 l 3.03 -3.03 l 4 -1.656 l 1.656 -4 l 3.03 -3.03 l 0 -1 l -3.03 3.03 l -1.656 4 l -4 1.656 l -3.03 3.03 l -4.281 0 l -4 1.656 l -4 -1.656 l -4.281 0 l -3.03 -3.03 l -4 -1.656 l -1.656 -4 l -3.03 -3.03 z" opacity="0.3" visibility="visible" fill="#000" display="inline" fill-rule="nonzero" stroke="none" fill-opacity="1" color="#000"/></g><g><use fill="#c44e36" stroke="none" xlink:href="#SVGCleanerId_0"/><path d="m 24 2.344 l -4 1.656 l 8 0 l -4 -1.656 z m 4 1.656 l 7.313 3.03 l -3.03 -3.03 l -4.281 0 z m 7.313 3.03 l 5.656 5.656 l -1.656 -4 l -4 -1.656 z m 5.656 5.656 l 3.03 7.313 l 0 -4.281 l -3.03 -3.03 z m 3.03 7.313 l 0 8 l 1.656 -4 l -1.656 -4 z m 0 8 l -3.03 7.313 l 3.03 -3.03 l 0 -4.281 z m -3.03 7.313 l -5.656 5.656 l 4 -1.656 l 1.656 -4 z m -5.656 5.656 l -7.313 3.03 l 4.281 0 l 3.03 -3.03 z m -7.313 3.03 l -8 0 l 4 1.656 l 4 -1.656 z m -8 0 l -7.313 -3.03 l 3.03 3.03 l 4.281 0 z m -7.313 -3.03 l -5.656 -5.656 l 1.656 4 l 4 1.656 z m -5.656 -5.656 l -3.03 -7.313 l 0 4.281 l 3.03 3.03 z m -3.03 -7.313 l 0 -8 l -1.656 4 l 1.656 4 z m 0 -8 l 3.03 -7.313 l -3.03 3.03 l 0 4.281 z m 3.03 -7.313 l 5.656 -5.656 l -4 1.656 l -1.656 4 z m 5.656 -5.656 l 7.313 -3.03 l -4.281 0 l -3.03 3.03 z" opacity="0.05" visibility="visible" fill="#c44e36" display="inline" fill-rule="nonzero" stroke="none" fill-opacity="1" color="#000"/></g><g><use opacity="0.05" stroke-opacity="1" stroke-dasharray="none" fill="#000" stroke="#000" stroke-width="2" stroke-miterlimit="4" xlink:href="#SVGCleanerId_0"/><use opacity="0.1" stroke-opacity="1" stroke-dasharray="none" fill="#000" stroke="#000" stroke-width="1" stroke-miterlimit="4" xlink:href="#SVGCleanerId_0"/></g><g><g clip-path="url(#clipPath-929726269)"><g transform="translate(0,1)"><g opacity="0.1"><!-- color: #c44e36 --><g><path d="m 13 15 l 22 0 l 0 9 l -22 0 m 0 -9" fill="#000" stroke="none" fill-rule="nonzero" fill-opacity="1"/><path d="m 16 16.25 c 0 -1.125 0 -2.25 1.273 -2.25 l 4.453 0 c 1.273 0 1.273 1.125 1.273 2.25 m -7 0" fill="#000" stroke="none" fill-rule="nonzero" fill-opacity="1"/><path d="m 15 16 l 17 0 l 0 12 l -17 0 m 0 -12" fill="#000" stroke="none" fill-rule="nonzero" fill-opacity="1"/><path d="m 16 17 l 18 0 l 0 4 l -18 0 m 0 -4" fill="#000" stroke="none" fill-rule="nonzero" fill-opacity="1"/><path d="m 17 18 l 16 0 l 0 12 l -16 0 m 0 -12" fill="#000" stroke="none" fill-rule="nonzero" fill-opacity="1"/><path d="m 11 19 l 26 0 l -2 14 l -22 0 m -2 -14" fill="#000" stroke="none" fill-rule="nonzero" fill-opacity="1"/><path d="m 24 18.98 l -0.715 1.641 l 0.191 0.434 c -1.152 0.078 -0.926 0.313 -0.926 0.313 c 0 0 -1.328 0.246 -1.328 0.43 c 0 0.012 0 0.008 0 0.016 c -0.266 0.129 -0.527 0.309 -0.777 0.504 c -3.34 4.488 0.234 5.527 -0.559 8.133 c -0.172 0.566 -0.891 1.527 -0.891 1.527 c 0 0 1.449 0.18 2.047 -1.516 c 0.484 -1.371 -1.156 -4.129 0.066 -5.363 c 1.734 -1.75 3.02 1.855 2.477 2.355 c -0.551 0.5 -0.414 0.637 -0.414 0.637 l 0.82 1.656 l 0.816 -1.656 c 0 0 0.141 -0.137 -0.41 -0.637 c -0.547 -0.5 0.742 -4.109 2.473 -2.355 c 1.227 1.238 -0.418 3.992 0.07 5.363 c 0.598 1.695 2.047 1.516 2.047 1.516 c 0 0 -0.715 -0.969 -0.891 -1.527 c -0.793 -2.602 2.77 -3.641 -0.566 -8.133 c -0.25 -0.188 -0.512 -0.371 -0.773 -0.5 c 0 -0.008 0 -0.004 0 -0.016 c 0 -0.188 -1.324 -0.43 -1.324 -0.43 c 0 0 0.227 -0.234 -0.93 -0.313 l 0.188 -0.434 l -0.711 -1.641 m 0.016 -0.004" fill="#000" stroke="none" fill-rule="nonzero" fill-opacity="0.729"/></g></g></g></g></g><g><g clip-path="url(#clipPath-935463928)"><!-- color: #c44e36 --><g><path d="m 13 15 l 22 0 l 0 9 l -22 0 m 0 -9" fill="#ea8e36" stroke="none" fill-rule="nonzero" fill-opacity="1"/><path d="m 16 16.25 c 0 -1.125 0 -2.25 1.273 -2.25 l 4.453 0 c 1.273 0 1.273 1.125 1.273 2.25 m -7 0" fill="#ea8e36" stroke="none" fill-rule="nonzero" fill-opacity="1"/><path d="m 15 16 l 17 0 l 0 12 l -17 0 m 0 -12" fill="#d6d6d6" stroke="none" fill-rule="nonzero" fill-opacity="1"/><path d="m 16 17 l 18 0 l 0 4 l -18 0 m 0 -4" fill="#95959c" stroke="none" fill-rule="nonzero" fill-opacity="1"/><path d="m 17 18 l 16 0 l 0 12 l -16 0 m 0 -12" fill="#f9f9f9" stroke="none" fill-rule="nonzero" fill-opacity="1"/><path d="m 11 19 l 26 0 l -2 14 l -22 0 m -2 -14" fill="#f2b962" stroke="none" fill-rule="nonzero" fill-opacity="1"/><path d="m 24 18.98 l -0.715 1.641 l 0.191 0.434 c -1.152 0.078 -0.926 0.313 -0.926 0.313 c 0 0 -1.328 0.246 -1.328 0.43 c 0 0.012 0 0.008 0 0.016 c -0.266 0.129 -0.527 0.309 -0.777 0.504 c -3.34 4.488 0.234 5.527 -0.559 8.133 c -0.172 0.566 -0.891 1.527 -0.891 1.527 c 0 0 1.449 0.18 2.047 -1.516 c 0.484 -1.371 -1.156 -4.129 0.066 -5.363 c 1.734 -1.75 3.02 1.855 2.477 2.355 c -0.551 0.5 -0.414 0.637 -0.414 0.637 l 0.82 1.656 l 0.816 -1.656 c 0 0 0.141 -0.137 -0.41 -0.637 c -0.547 -0.5 0.742 -4.109 2.473 -2.355 c 1.227 1.238 -0.418 3.992 0.07 5.363 c 0.598 1.695 2.047 1.516 2.047 1.516 c 0 0 -0.715 -0.969 -0.891 -1.527 c -0.793 -2.602 2.77 -3.641 -0.566 -8.133 c -0.25 -0.188 -0.512 -0.371 -0.773 -0.5 c 0 -0.008 0 -0.004 0 -0.016 c 0 -0.188 -1.324 -0.43 -1.324 -0.43 c 0 0 0.227 -0.234 -0.93 -0.313 l 0.188 -0.434 l -0.711 -1.641 m 0.016 -0.004" fill="#fff" stroke="none" fill-rule="nonzero" fill-opacity="0.729"/></g></g></g><g><path d="m 20 4 -7.313 3.03 -5.656 5.656 -3.03 7.313 0 8 3.03 7.313 5.656 5.656 7.313 3.03 8 0 7.313 -3.03 5.656 -5.656 3.03 -7.313 0 -8 -3.03 -7.313 -5.656 -5.656 -7.313 -3.03 -8 0 z" clip-path="url(#clipPath4313)" transform="matrix(0,1,-1,0,48,0)" opacity="0.3" stroke-opacity="1" stroke-dasharray="none" visibility="visible" fill="none" display="inline" stroke="url(#linearGradient4375)" color="#000" stroke-width="1" stroke-miterlimit="4"/><path d="m 24 2.344 -4 1.656 -4.281 0 -3.03 3.03 l -4 1.656 -1.656 4 l -3.03 3.03 0 4.281 -1.656 4 1.656 4 l 0 4.281 3.03 3.03 1.656 4 4 1.656 l 3.03 3.03 4.281 0 4 1.656 4 -1.656 l 4.281 0 3.03 -3.03 4 -1.656 1.656 -4 l 3.03 -3.03 0 -4.281 1.656 -4 -1.656 -4 l 0 -4.281 -3.03 -3.03 -1.656 -4 -4 -1.656 l -3.03 -3.03 -4.281 0 -4 -1.656 z" clip-path="url(#clipPath4329)" opacity="0.2" stroke-opacity="1" visibility="visible" fill="none" display="inline" stroke="#000" color="#000" stroke-width="2"/></g></svg>