<svg viewBox="0 0 48 48" xmlns:xlink="http://www.w3.org/1999/xlink"><defs><clipPath clipPathUnits="userSpaceOnUse" id="clipPath4313"><path d="m 20 4 -7.313 3.03 -5.656 5.656 -3.03 7.313 0 8 3.03 7.313 5.656 5.656 7.313 3.03 8 0 7.313 -3.03 5.656 -5.656 3.03 -7.313 0 -8 -3.03 -7.313 -5.656 -5.656 -7.313 -3.03 -8 0 z"/></clipPath><clipPath clipPathUnits="userSpaceOnUse" id="clipPath4329"><path d="m 24 2.344 -4 1.656 -4.281 0 -3.03 3.03 l -4 1.656 -1.656 4 l -3.03 3.03 0 4.281 -1.656 4 1.656 4 l 0 4.281 3.03 3.03 1.656 4 4 1.656 l 3.03 3.03 4.281 0 4 1.656 4 -1.656 l 4.281 0 3.03 -3.03 4 -1.656 1.656 -4 l 3.03 -3.03 0 -4.281 1.656 -4 -1.656 -4 l 0 -4.281 -3.03 -3.03 -1.656 -4 -4 -1.656 l -3.03 -3.03 -4.281 0 -4 -1.656 z"/></clipPath><clipPath id="clipPath-909235221"><path d="m 24 2.344 l -4 1.656 l -4.281 0 l -3.03 3.03 l -4 1.656 l -1.656 4 l -3.03 3.03 l 0 4.281 l -1.656 4 l 1.656 4 l 0 4.281 l 3.03 3.03 l 1.656 4 l 4 1.656 l 3.03 3.03 l 4.281 0 l 4 1.656 l 4 -1.656 l 4.281 0 l 3.03 -3.03 l 4 -1.656 l 1.656 -4 l 3.03 -3.03 l 0 -4.281 l 1.656 -4 l -1.656 -4 l 0 -4.281 l -3.03 -3.03 l -1.656 -4 l -4 -1.656 l -3.03 -3.03 l -4.281 0 l -4 -1.656 z"/></clipPath><clipPath id="clipPath-914731324"><path d="m 24 2.344 l -4 1.656 l -4.281 0 l -3.03 3.03 l -4 1.656 l -1.656 4 l -3.03 3.03 l 0 4.281 l -1.656 4 l 1.656 4 l 0 4.281 l 3.03 3.03 l 1.656 4 l 4 1.656 l 3.03 3.03 l 4.281 0 l 4 1.656 l 4 -1.656 l 4.281 0 l 3.03 -3.03 l 4 -1.656 l 1.656 -4 l 3.03 -3.03 l 0 -4.281 l 1.656 -4 l -1.656 -4 l 0 -4.281 l -3.03 -3.03 l -1.656 -4 l -4 -1.656 l -3.03 -3.03 l -4.281 0 l -4 -1.656 z"/></clipPath><linearGradient id="linearGradient4317"><stop stop-color="#fff" stop-opacity="1"/><stop offset="1" stop-color="#fff" stop-opacity="0"/></linearGradient><clipPath clipPathUnits="userSpaceOnUse" id="clipPath4313"><path d="m 20 4 -7.313 3.03 -5.656 5.656 -3.03 7.313 0 8 3.03 7.313 5.656 5.656 7.313 3.03 8 0 7.313 -3.03 5.656 -5.656 3.03 -7.313 0 -8 -3.03 -7.313 -5.656 -5.656 -7.313 -3.03 -8 0 z"/></clipPath><linearGradient x2="44" x1="4" gradientUnits="userSpaceOnUse" id="linearGradient4375" xlink:href="#linearGradient4317"/><clipPath clipPathUnits="userSpaceOnUse" id="clipPath4329"><path d="m 24 2.344 -4 1.656 -4.281 0 -3.03 3.03 l -4 1.656 -1.656 4 l -3.03 3.03 0 4.281 -1.656 4 1.656 4 l 0 4.281 3.03 3.03 1.656 4 4 1.656 l 3.03 3.03 4.281 0 4 1.656 4 -1.656 l 4.281 0 3.03 -3.03 4 -1.656 1.656 -4 l 3.03 -3.03 0 -4.281 1.656 -4 -1.656 -4 l 0 -4.281 -3.03 -3.03 -1.656 -4 -4 -1.656 l -3.03 -3.03 -4.281 0 -4 -1.656 z"/></clipPath><path id="SVGCleanerId_0" d="m 24 2.344 l -4 1.656 l -4.281 0 l -3.03 3.03 l -4 1.656 l -1.656 4 l -3.03 3.03 l 0 4.281 l -1.656 4 l 1.656 4 l 0 4.281 l 3.03 3.03 l 1.656 4 l 4 1.656 l 3.03 3.03 l 4.281 0 l 4 1.656 l 4 -1.656 l 4.281 0 l 3.03 -3.03 l 4 -1.656 l 1.656 -4 l 3.03 -3.03 l 0 -4.281 l 1.656 -4 l -1.656 -4 l 0 -4.281 l -3.03 -3.03 l -1.656 -4 l -4 -1.656 l -3.03 -3.03 l -4.281 0 l -4 -1.656 z" visibility="visible" display="inline" fill-rule="nonzero" color="#000" fill-opacity="1"/></defs><g><path d="m 2.563 24.5 l -0.219 0.5 l 1.656 4 l 0 -1 l -1.438 -3.5 z m 42.875 0 l -1.438 3.5 l 0 1 l 1.656 -4 l -0.219 -0.5 z m -41.44 7.781 l 0 1 l 3.03 3.03 l 1.656 4 l 4 1.656 l 3.03 3.03 l 4.281 0 l 4 1.656 l 4 -1.656 l 4.281 0 l 3.03 -3.03 l 4 -1.656 l 1.656 -4 l 3.03 -3.03 l 0 -1 l -3.03 3.03 l -1.656 4 l -4 1.656 l -3.03 3.03 l -4.281 0 l -4 1.656 l -4 -1.656 l -4.281 0 l -3.03 -3.03 l -4 -1.656 l -1.656 -4 l -3.03 -3.03 z" opacity="0.3" visibility="visible" fill="#000" display="inline" fill-rule="nonzero" stroke="none" fill-opacity="1" color="#000"/></g><g><use fill="#5aa9e3" stroke="none" xlink:href="#SVGCleanerId_0"/><path d="m 24 2.344 l -4 1.656 l 8 0 l -4 -1.656 z m 4 1.656 l 7.313 3.03 l -3.03 -3.03 l -4.281 0 z m 7.313 3.03 l 5.656 5.656 l -1.656 -4 l -4 -1.656 z m 5.656 5.656 l 3.03 7.313 l 0 -4.281 l -3.03 -3.03 z m 3.03 7.313 l 0 8 l 1.656 -4 l -1.656 -4 z m 0 8 l -3.03 7.313 l 3.03 -3.03 l 0 -4.281 z m -3.03 7.313 l -5.656 5.656 l 4 -1.656 l 1.656 -4 z m -5.656 5.656 l -7.313 3.03 l 4.281 0 l 3.03 -3.03 z m -7.313 3.03 l -8 0 l 4 1.656 l 4 -1.656 z m -8 0 l -7.313 -3.03 l 3.03 3.03 l 4.281 0 z m -7.313 -3.03 l -5.656 -5.656 l 1.656 4 l 4 1.656 z m -5.656 -5.656 l -3.03 -7.313 l 0 4.281 l 3.03 3.03 z m -3.03 -7.313 l 0 -8 l -1.656 4 l 1.656 4 z m 0 -8 l 3.03 -7.313 l -3.03 3.03 l 0 4.281 z m 3.03 -7.313 l 5.656 -5.656 l -4 1.656 l -1.656 4 z m 5.656 -5.656 l 7.313 -3.03 l -4.281 0 l -3.03 3.03 z" opacity="0.05" visibility="visible" fill="#5aa9e3" display="inline" fill-rule="nonzero" stroke="none" fill-opacity="1" color="#000"/></g><g><use opacity="0.05" stroke-opacity="1" stroke-dasharray="none" fill="#000" stroke="#000" stroke-width="2" stroke-miterlimit="4" xlink:href="#SVGCleanerId_0"/><use opacity="0.1" stroke-opacity="1" stroke-dasharray="none" fill="#000" stroke="#000" stroke-width="1" stroke-miterlimit="4" xlink:href="#SVGCleanerId_0"/></g><g><g clip-path="url(#clipPath-909235221)"><g transform="translate(0,1)"><g opacity="0.1"><!-- color: #5aa9e3 --><g><path d="m 9 30 l -1 5 l 32 0 l -1 -5 m -30 0" fill="#000" stroke="none" fill-rule="nonzero" fill-opacity="1"/><path d="m 13.328 26 l 3.344 0 c 0.734 0 1.328 0.594 1.328 1.328 l 0 3.344 c 0 0.734 -0.594 1.328 -1.328 1.328 l -3.344 0 c -0.73 0 -1.328 -0.594 -1.328 -1.328 l 0 -3.344 c 0 -0.734 0.598 -1.328 1.328 -1.328 m 0 0" fill="#000" stroke="none" fill-rule="nonzero" fill-opacity="1"/><path d="m 22.328 26 l 3.344 0 c 0.734 0 1.328 0.594 1.328 1.328 l 0 3.344 c 0 0.734 -0.594 1.328 -1.328 1.328 l -3.344 0 c -0.73 0 -1.328 -0.594 -1.328 -1.328 l 0 -3.344 c 0 -0.734 0.598 -1.328 1.328 -1.328 m 0 0" fill="#000" stroke="none" fill-rule="nonzero" fill-opacity="1"/><path d="m 31.33 26 l 3.352 0 c 0.727 0 1.328 0.594 1.328 1.328 l 0 3.344 c 0 0.734 -0.602 1.328 -1.328 1.328 l -3.352 0 c -0.727 0 -1.32 -0.594 -1.32 -1.328 l 0 -3.344 c 0 -0.734 0.598 -1.328 1.32 -1.328 m 0 0" fill="#000" stroke="none" fill-rule="nonzero" fill-opacity="1"/><path d="m 24 10.01 c -3.879 0 -7 3.117 -7 6.992 c 0 3.875 3.121 6.988 7 6.988 c 3.875 0 7 -3.113 7 -6.988 c 0 -3.875 -3.121 -6.992 -7 -6.992 m 0 1.52 c 3.035 0 5.477 2.441 5.477 5.473 c 0 3.035 -2.445 5.477 -5.477 5.477 c -3.039 0 -5.48 -2.441 -5.48 -5.477 c 0 -3.03 2.445 -5.473 5.48 -5.473 m 0 0" fill="#000" stroke="none" fill-rule="evenodd" fill-opacity="1"/><path d="m 23.523 16.93 l -1.574 -1.574 c -0.109 -0.109 -0.109 -0.281 0 -0.391 l 0.004 -0.004 c 0.105 -0.105 0.281 -0.105 0.391 0 l 1.574 1.578 c 0.109 0.105 0.109 0.281 0 0.391 c -0.109 0.109 -0.285 0.109 -0.395 0 m 0 0" fill="#000" stroke="none" fill-rule="nonzero" fill-opacity="1"/><path d="m 23.977 16.707 l 3.996 0 c 0.16 0 0.285 0.125 0.285 0.281 l 0 0.043 c 0 0.156 -0.125 0.285 -0.285 0.285 l -3.996 0 c -0.156 0 -0.281 -0.129 -0.281 -0.285 l 0 -0.043 c 0 -0.156 0.125 -0.281 0.281 -0.281 m 0 0" fill="#000" stroke="none" fill-rule="nonzero" fill-opacity="1"/><path d="m 21.734 20.734 l 2.148 -3.953 c 0.039 -0.074 0.129 -0.098 0.195 -0.055 c 0.07 0.043 0.094 0.133 0.055 0.207 l -2.148 3.953 c -0.043 0.074 -0.129 0.098 -0.195 0.055 c -0.07 -0.043 -0.094 -0.133 -0.055 -0.207 m 0 0" fill="#000" stroke="none" fill-rule="nonzero" fill-opacity="1"/><path d="m 24.91 17.01 c -0.031 0.477 -0.43 0.852 -0.914 0.852 c -0.48 0 -0.883 -0.375 -0.91 -0.852 c -0.023 -0.34 0.148 -0.66 0.438 -0.836 c 0.293 -0.184 0.656 -0.184 0.945 0 c 0.293 0.176 0.461 0.496 0.441 0.836 m 0 0" fill="#000" stroke="none" fill-rule="nonzero" fill-opacity="1"/></g></g></g></g></g><g><g clip-path="url(#clipPath-914731324)"><!-- color: #5aa9e3 --><g><path d="m 9 30 l -1 5 l 32 0 l -1 -5 m -30 0" fill="#2d2d2d" stroke="none" fill-rule="nonzero" fill-opacity="1"/><path d="m 13.328 26 l 3.344 0 c 0.734 0 1.328 0.594 1.328 1.328 l 0 3.344 c 0 0.734 -0.594 1.328 -1.328 1.328 l -3.344 0 c -0.73 0 -1.328 -0.594 -1.328 -1.328 l 0 -3.344 c 0 -0.734 0.598 -1.328 1.328 -1.328 m 0 0" fill="#f9f9f9" stroke="none" fill-rule="nonzero" fill-opacity="1"/><path d="m 22.328 26 l 3.344 0 c 0.734 0 1.328 0.594 1.328 1.328 l 0 3.344 c 0 0.734 -0.594 1.328 -1.328 1.328 l -3.344 0 c -0.73 0 -1.328 -0.594 -1.328 -1.328 l 0 -3.344 c 0 -0.734 0.598 -1.328 1.328 -1.328 m 0 0" fill="#f9f9f9" stroke="none" fill-rule="nonzero" fill-opacity="1"/><path d="m 31.33 26 l 3.352 0 c 0.727 0 1.328 0.594 1.328 1.328 l 0 3.344 c 0 0.734 -0.602 1.328 -1.328 1.328 l -3.352 0 c -0.727 0 -1.32 -0.594 -1.32 -1.328 l 0 -3.344 c 0 -0.734 0.598 -1.328 1.32 -1.328 m 0 0" fill="#f9f9f9" stroke="none" fill-rule="nonzero" fill-opacity="1"/><path d="m 24 10.01 c -3.879 0 -7 3.117 -7 6.992 c 0 3.875 3.121 6.988 7 6.988 c 3.875 0 7 -3.113 7 -6.988 c 0 -3.875 -3.121 -6.992 -7 -6.992 m 0 1.52 c 3.035 0 5.477 2.441 5.477 5.473 c 0 3.035 -2.445 5.477 -5.477 5.477 c -3.039 0 -5.48 -2.441 -5.48 -5.477 c 0 -3.03 2.445 -5.473 5.48 -5.473 m 0 0" fill="#fff" stroke="none" fill-rule="evenodd" fill-opacity="1"/><path d="m 23.523 16.93 l -1.574 -1.574 c -0.109 -0.109 -0.109 -0.281 0 -0.391 l 0.004 -0.004 c 0.105 -0.105 0.281 -0.105 0.391 0 l 1.574 1.578 c 0.109 0.105 0.109 0.281 0 0.391 c -0.109 0.109 -0.285 0.109 -0.395 0 m 0 0" fill="#fff" stroke="none" fill-rule="nonzero" fill-opacity="1"/><path d="m 23.977 16.707 l 3.996 0 c 0.16 0 0.285 0.125 0.285 0.281 l 0 0.043 c 0 0.156 -0.125 0.285 -0.285 0.285 l -3.996 0 c -0.156 0 -0.281 -0.129 -0.281 -0.285 l 0 -0.043 c 0 -0.156 0.125 -0.281 0.281 -0.281 m 0 0" fill="#fff" stroke="none" fill-rule="nonzero" fill-opacity="1"/><path d="m 21.734 20.734 l 2.148 -3.953 c 0.039 -0.074 0.129 -0.098 0.195 -0.055 c 0.07 0.043 0.094 0.133 0.055 0.207 l -2.148 3.953 c -0.043 0.074 -0.129 0.098 -0.195 0.055 c -0.07 -0.043 -0.094 -0.133 -0.055 -0.207 m 0 0" fill="#fff" stroke="none" fill-rule="nonzero" fill-opacity="1"/><path d="m 24.91 17.01 c -0.031 0.477 -0.43 0.852 -0.914 0.852 c -0.48 0 -0.883 -0.375 -0.91 -0.852 c -0.023 -0.34 0.148 -0.66 0.438 -0.836 c 0.293 -0.184 0.656 -0.184 0.945 0 c 0.293 0.176 0.461 0.496 0.441 0.836 m 0 0" fill="#fff" stroke="none" fill-rule="nonzero" fill-opacity="1"/></g></g></g><g><path d="m 20 4 -7.313 3.03 -5.656 5.656 -3.03 7.313 0 8 3.03 7.313 5.656 5.656 7.313 3.03 8 0 7.313 -3.03 5.656 -5.656 3.03 -7.313 0 -8 -3.03 -7.313 -5.656 -5.656 -7.313 -3.03 -8 0 z" clip-path="url(#clipPath4313)" transform="matrix(0,1,-1,0,48,0)" opacity="0.3" stroke-opacity="1" stroke-dasharray="none" visibility="visible" fill="none" display="inline" stroke="url(#linearGradient4375)" color="#000" stroke-width="1" stroke-miterlimit="4"/><path d="m 24 2.344 -4 1.656 -4.281 0 -3.03 3.03 l -4 1.656 -1.656 4 l -3.03 3.03 0 4.281 -1.656 4 1.656 4 l 0 4.281 3.03 3.03 1.656 4 4 1.656 l 3.03 3.03 4.281 0 4 1.656 4 -1.656 l 4.281 0 3.03 -3.03 4 -1.656 1.656 -4 l 3.03 -3.03 0 -4.281 1.656 -4 -1.656 -4 l 0 -4.281 -3.03 -3.03 -1.656 -4 -4 -1.656 l -3.03 -3.03 -4.281 0 -4 -1.656 z" clip-path="url(#clipPath4329)" opacity="0.2" stroke-opacity="1" visibility="visible" fill="none" display="inline" stroke="#000" color="#000" stroke-width="2"/></g></svg>