<svg viewBox="0 0 48 48" xmlns:xlink="http://www.w3.org/1999/xlink"><defs><clipPath clipPathUnits="userSpaceOnUse" id="clipPath4313"><path d="m 20 4 -7.313 3.03 -5.656 5.656 -3.03 7.313 0 8 3.03 7.313 5.656 5.656 7.313 3.03 8 0 7.313 -3.03 5.656 -5.656 3.03 -7.313 0 -8 -3.03 -7.313 -5.656 -5.656 -7.313 -3.03 -8 0 z"/></clipPath><clipPath clipPathUnits="userSpaceOnUse" id="clipPath4329"><path d="m 24 2.344 -4 1.656 -4.281 0 -3.03 3.03 l -4 1.656 -1.656 4 l -3.03 3.03 0 4.281 -1.656 4 1.656 4 l 0 4.281 3.03 3.03 1.656 4 4 1.656 l 3.03 3.03 4.281 0 4 1.656 4 -1.656 l 4.281 0 3.03 -3.03 4 -1.656 1.656 -4 l 3.03 -3.03 0 -4.281 1.656 -4 -1.656 -4 l 0 -4.281 -3.03 -3.03 -1.656 -4 -4 -1.656 l -3.03 -3.03 -4.281 0 -4 -1.656 z"/></clipPath><clipPath id="clipPath-786274290"><path d="m 24 2.344 l -4 1.656 l -4.281 0 l -3.03 3.03 l -4 1.656 l -1.656 4 l -3.03 3.03 l 0 4.281 l -1.656 4 l 1.656 4 l 0 4.281 l 3.03 3.03 l 1.656 4 l 4 1.656 l 3.03 3.03 l 4.281 0 l 4 1.656 l 4 -1.656 l 4.281 0 l 3.03 -3.03 l 4 -1.656 l 1.656 -4 l 3.03 -3.03 l 0 -4.281 l 1.656 -4 l -1.656 -4 l 0 -4.281 l -3.03 -3.03 l -1.656 -4 l -4 -1.656 l -3.03 -3.03 l -4.281 0 l -4 -1.656 z"/></clipPath><clipPath id="clipPath-792209966"><path d="m 24 2.344 l -4 1.656 l -4.281 0 l -3.03 3.03 l -4 1.656 l -1.656 4 l -3.03 3.03 l 0 4.281 l -1.656 4 l 1.656 4 l 0 4.281 l 3.03 3.03 l 1.656 4 l 4 1.656 l 3.03 3.03 l 4.281 0 l 4 1.656 l 4 -1.656 l 4.281 0 l 3.03 -3.03 l 4 -1.656 l 1.656 -4 l 3.03 -3.03 l 0 -4.281 l 1.656 -4 l -1.656 -4 l 0 -4.281 l -3.03 -3.03 l -1.656 -4 l -4 -1.656 l -3.03 -3.03 l -4.281 0 l -4 -1.656 z"/></clipPath><linearGradient id="linearGradient4317"><stop stop-color="#fff" stop-opacity="1"/><stop offset="1" stop-color="#fff" stop-opacity="0"/></linearGradient><clipPath clipPathUnits="userSpaceOnUse" id="clipPath4313"><path d="m 20 4 -7.313 3.03 -5.656 5.656 -3.03 7.313 0 8 3.03 7.313 5.656 5.656 7.313 3.03 8 0 7.313 -3.03 5.656 -5.656 3.03 -7.313 0 -8 -3.03 -7.313 -5.656 -5.656 -7.313 -3.03 -8 0 z"/></clipPath><linearGradient x2="44" x1="4" gradientUnits="userSpaceOnUse" id="linearGradient4375" xlink:href="#linearGradient4317"/><clipPath clipPathUnits="userSpaceOnUse" id="clipPath4329"><path d="m 24 2.344 -4 1.656 -4.281 0 -3.03 3.03 l -4 1.656 -1.656 4 l -3.03 3.03 0 4.281 -1.656 4 1.656 4 l 0 4.281 3.03 3.03 1.656 4 4 1.656 l 3.03 3.03 4.281 0 4 1.656 4 -1.656 l 4.281 0 3.03 -3.03 4 -1.656 1.656 -4 l 3.03 -3.03 0 -4.281 1.656 -4 -1.656 -4 l 0 -4.281 -3.03 -3.03 -1.656 -4 -4 -1.656 l -3.03 -3.03 -4.281 0 -4 -1.656 z"/></clipPath><path id="SVGCleanerId_0" d="m 24 2.344 l -4 1.656 l -4.281 0 l -3.03 3.03 l -4 1.656 l -1.656 4 l -3.03 3.03 l 0 4.281 l -1.656 4 l 1.656 4 l 0 4.281 l 3.03 3.03 l 1.656 4 l 4 1.656 l 3.03 3.03 l 4.281 0 l 4 1.656 l 4 -1.656 l 4.281 0 l 3.03 -3.03 l 4 -1.656 l 1.656 -4 l 3.03 -3.03 l 0 -4.281 l 1.656 -4 l -1.656 -4 l 0 -4.281 l -3.03 -3.03 l -1.656 -4 l -4 -1.656 l -3.03 -3.03 l -4.281 0 l -4 -1.656 z" visibility="visible" display="inline" fill-rule="nonzero" color="#000" fill-opacity="1"/></defs><g><path d="m 2.563 24.5 l -0.219 0.5 l 1.656 4 l 0 -1 l -1.438 -3.5 z m 42.875 0 l -1.438 3.5 l 0 1 l 1.656 -4 l -0.219 -0.5 z m -41.44 7.781 l 0 1 l 3.03 3.03 l 1.656 4 l 4 1.656 l 3.03 3.03 l 4.281 0 l 4 1.656 l 4 -1.656 l 4.281 0 l 3.03 -3.03 l 4 -1.656 l 1.656 -4 l 3.03 -3.03 l 0 -1 l -3.03 3.03 l -1.656 4 l -4 1.656 l -3.03 3.03 l -4.281 0 l -4 1.656 l -4 -1.656 l -4.281 0 l -3.03 -3.03 l -4 -1.656 l -1.656 -4 l -3.03 -3.03 z" opacity="0.3" visibility="visible" fill="#000" display="inline" fill-rule="nonzero" stroke="none" fill-opacity="1" color="#000"/></g><g><use fill="#eee" stroke="none" xlink:href="#SVGCleanerId_0"/><path d="m 24 2.344 l -4 1.656 l 8 0 l -4 -1.656 z m 4 1.656 l 7.313 3.03 l -3.03 -3.03 l -4.281 0 z m 7.313 3.03 l 5.656 5.656 l -1.656 -4 l -4 -1.656 z m 5.656 5.656 l 3.03 7.313 l 0 -4.281 l -3.03 -3.03 z m 3.03 7.313 l 0 8 l 1.656 -4 l -1.656 -4 z m 0 8 l -3.03 7.313 l 3.03 -3.03 l 0 -4.281 z m -3.03 7.313 l -5.656 5.656 l 4 -1.656 l 1.656 -4 z m -5.656 5.656 l -7.313 3.03 l 4.281 0 l 3.03 -3.03 z m -7.313 3.03 l -8 0 l 4 1.656 l 4 -1.656 z m -8 0 l -7.313 -3.03 l 3.03 3.03 l 4.281 0 z m -7.313 -3.03 l -5.656 -5.656 l 1.656 4 l 4 1.656 z m -5.656 -5.656 l -3.03 -7.313 l 0 4.281 l 3.03 3.03 z m -3.03 -7.313 l 0 -8 l -1.656 4 l 1.656 4 z m 0 -8 l 3.03 -7.313 l -3.03 3.03 l 0 4.281 z m 3.03 -7.313 l 5.656 -5.656 l -4 1.656 l -1.656 4 z m 5.656 -5.656 l 7.313 -3.03 l -4.281 0 l -3.03 3.03 z" opacity="0.05" visibility="visible" fill="#eee" display="inline" fill-rule="nonzero" stroke="none" fill-opacity="1" color="#000"/></g><g><use opacity="0.05" stroke-opacity="1" stroke-dasharray="none" fill="#000" stroke="#000" stroke-width="2" stroke-miterlimit="4" xlink:href="#SVGCleanerId_0"/><use opacity="0.1" stroke-opacity="1" stroke-dasharray="none" fill="#000" stroke="#000" stroke-width="1" stroke-miterlimit="4" xlink:href="#SVGCleanerId_0"/></g><g><g clip-path="url(#clipPath-786274290)"><g transform="translate(0,1)"><g opacity="0.1"><!-- color: #eeeeee --><g><path d="m 15.273 14 l 17.453 0 c 1.809 0 3.273 1.465 3.273 3.273 l 0 13.449 c 0 1.809 -1.465 3.273 -3.273 3.273 l -17.453 0 c -1.805 0 -3.273 -1.465 -3.273 -3.273 l 0 -13.449 c 0 -1.809 1.469 -3.273 3.273 -3.273 m 0 0" fill="#000" stroke="none" fill-rule="nonzero" fill-opacity="1"/><path d="m 15.617 16 l 16.766 0 c 0.891 0 1.613 0.727 1.613 1.617 l 0 12.77 c 0 0.895 -0.723 1.617 -1.613 1.617 l -16.766 0 c -0.895 0 -1.617 -0.723 -1.617 -1.617 l 0 -12.77 c 0 -0.891 0.723 -1.617 1.617 -1.617 m 0 0" fill="#000" stroke="none" fill-rule="nonzero" fill-opacity="1"/><path d="m 16 17 l 0 3.996 l 3 0 l 0 -4 l -3 0 m 1 1 l 1 0 l 0 2 l -1 0 m 0 -2" fill="#000" stroke="none" fill-rule="nonzero" fill-opacity="1"/><path d="m 20 17 l 0 3.996 l 2.996 0 l 0 -4 l -2.996 0 m 0.996 1 l 1 0 l 0 2 l -1 0 m 0 -2" fill="#000" stroke="none" fill-rule="nonzero" fill-opacity="1"/><path d="m 24 17 l 0 1 l 0.996 0 l 0 2 l -0.996 0 l 0 0.996 l 2.996 0 l 0 -0.996 l -1 0 l 0 -3 l -1.996 0 m 0 0.004" fill="#000" stroke="none" fill-rule="nonzero" fill-opacity="1"/><path d="m 27.961 16.957 l 0 4 l 2.996 0 l 0 -4 l -2.996 0 m 1 1 l 0.996 0 l 0 2 l -0.996 0 m 0 -2" fill="#000" stroke="none" fill-rule="nonzero" fill-opacity="1"/><path d="m 16 22 l 0 3.996 l 3 0 l 0 -4 l -3 0 m 1 1 l 1 0 l 0 1.996 l -1 0 m 0 -1.996" fill="#000" stroke="none" fill-rule="nonzero" fill-opacity="1"/><path d="m 20 22 l 0 1 l 0.996 0 l 0 1.996 l -0.996 0 l 0 1 l 2.996 0 l 0 -1 l -1 0 l 0 -3 l -1.996 0 m 0 0.004" fill="#000" stroke="none" fill-rule="nonzero" fill-opacity="1"/><path d="m 24 22 l 0 3.996 l 2.996 0 l 0 -4 l -2.996 0 m 0.996 1 l 1 0 l 0 1.996 l -1 0 m 0 -1.996" fill="#000" stroke="none" fill-rule="nonzero" fill-opacity="1"/><path d="m 28 22 l 0 3.996 l 2.996 0 l 0 -4 l -2.996 0 m 1 1 l 0.996 0 l 0 1.996 l -0.996 0 m 0 -1.996" fill="#000" stroke="none" fill-rule="nonzero" fill-opacity="1"/><path d="m 16 27 l 0 1 l 1 0 l 0 1.996 l -1 0 l 0 1 l 3 0 l 0 -1 l -1 0 l 0 -3 l -2 0 m 0 0.004" fill="#000" stroke="none" fill-rule="nonzero" fill-opacity="1"/><path d="m 20 27 l 0 3.996 l 2.996 0 l 0 -4 l -2.996 0 m 0.996 1 l 1 0 l 0 1.996 l -1 0 m 0 -1.996" fill="#000" stroke="none" fill-rule="nonzero" fill-opacity="1"/><path d="m 24 27 l 0 1 l 0.996 0 l 0 1.996 l -0.996 0 l 0 1 l 2.996 0 l 0 -1 l -1 0 l 0 -3 l -1.996 0 m 0 0.004" fill="#000" stroke="none" fill-rule="nonzero" fill-opacity="1"/><path d="m 28 27 l 0 1 l 1 0 l 0 1.996 l -1 0 l 0 1 l 2.996 0 l 0 -1 l -1 0 l 0 -3 l -1.996 0 m 0 0.004" fill="#000" stroke="none" fill-rule="nonzero" fill-opacity="1"/><path d="m 25.313 32.06 l 9.453 -10.02 l 2.906 2.746 l -9.453 10.02 m -2.906 -2.746" fill="#000" stroke="none" fill-rule="nonzero" fill-opacity="1"/><path d="m 34.26 22.586 l 2.898 2.746 l 1.684 -1.773 c 0 0 0.145 -0.633 -1.07 -1.781 c -1.176 -1.109 -1.887 -0.918 -1.887 -0.918 l -1.629 1.727 m 0.004 0" fill="#000" stroke="none" fill-rule="nonzero" fill-opacity="1"/><path d="m 25.336 32.03 l -1.293 4.281 l 4.199 -1.539 l -2.906 -2.746 m 0 0.004" fill="#000" stroke="none" fill-rule="nonzero" fill-opacity="1"/><path d="m 24.676 34.17 l -0.633 2.145 l 2.109 -0.758 l -1.477 -1.398 m 0 0.012" fill="#000" stroke="none" fill-rule="nonzero" fill-opacity="1"/></g></g></g></g></g><g><g clip-path="url(#clipPath-792209966)"><!-- color: #eeeeee --><g><path d="m 15.273 14 l 17.453 0 c 1.809 0 3.273 1.465 3.273 3.273 l 0 13.449 c 0 1.809 -1.465 3.273 -3.273 3.273 l -17.453 0 c -1.805 0 -3.273 -1.465 -3.273 -3.273 l 0 -13.449 c 0 -1.809 1.469 -3.273 3.273 -3.273 m 0 0" fill="#2d2d2d" stroke="none" fill-rule="nonzero" fill-opacity="1"/><path d="m 15.617 16 l 16.766 0 c 0.891 0 1.613 0.727 1.613 1.617 l 0 12.77 c 0 0.895 -0.723 1.617 -1.613 1.617 l -16.766 0 c -0.895 0 -1.617 -0.723 -1.617 -1.617 l 0 -12.77 c 0 -0.891 0.723 -1.617 1.617 -1.617 m 0 0" fill="#868686" stroke="none" fill-rule="nonzero" fill-opacity="1"/><path d="m 16 17 l 0 3.996 l 3 0 l 0 -4 l -3 0 m 1 1 l 1 0 l 0 2 l -1 0 m 0 -2" fill="#2d2d2d" stroke="none" fill-rule="nonzero" fill-opacity="1"/><path d="m 20 17 l 0 3.996 l 2.996 0 l 0 -4 l -2.996 0 m 0.996 1 l 1 0 l 0 2 l -1 0 m 0 -2" fill="#2d2d2d" stroke="none" fill-rule="nonzero" fill-opacity="1"/><path d="m 24 17 l 0 1 l 0.996 0 l 0 2 l -0.996 0 l 0 0.996 l 2.996 0 l 0 -0.996 l -1 0 l 0 -3 l -1.996 0 m 0 0.004" fill="#2d2d2d" stroke="none" fill-rule="nonzero" fill-opacity="1"/><path d="m 27.961 16.957 l 0 4 l 2.996 0 l 0 -4 l -2.996 0 m 1 1 l 0.996 0 l 0 2 l -0.996 0 m 0 -2" fill="#2d2d2d" stroke="none" fill-rule="nonzero" fill-opacity="1"/><path d="m 16 22 l 0 3.996 l 3 0 l 0 -4 l -3 0 m 1 1 l 1 0 l 0 1.996 l -1 0 m 0 -1.996" fill="#2d2d2d" stroke="none" fill-rule="nonzero" fill-opacity="1"/><path d="m 20 22 l 0 1 l 0.996 0 l 0 1.996 l -0.996 0 l 0 1 l 2.996 0 l 0 -1 l -1 0 l 0 -3 l -1.996 0 m 0 0.004" fill="#2d2d2d" stroke="none" fill-rule="nonzero" fill-opacity="1"/><path d="m 24 22 l 0 3.996 l 2.996 0 l 0 -4 l -2.996 0 m 0.996 1 l 1 0 l 0 1.996 l -1 0 m 0 -1.996" fill="#2d2d2d" stroke="none" fill-rule="nonzero" fill-opacity="1"/><path d="m 28 22 l 0 3.996 l 2.996 0 l 0 -4 l -2.996 0 m 1 1 l 0.996 0 l 0 1.996 l -0.996 0 m 0 -1.996" fill="#2d2d2d" stroke="none" fill-rule="nonzero" fill-opacity="1"/><path d="m 16 27 l 0 1 l 1 0 l 0 1.996 l -1 0 l 0 1 l 3 0 l 0 -1 l -1 0 l 0 -3 l -2 0 m 0 0.004" fill="#2d2d2d" stroke="none" fill-rule="nonzero" fill-opacity="1"/><path d="m 20 27 l 0 3.996 l 2.996 0 l 0 -4 l -2.996 0 m 0.996 1 l 1 0 l 0 1.996 l -1 0 m 0 -1.996" fill="#2d2d2d" stroke="none" fill-rule="nonzero" fill-opacity="1"/><path d="m 24 27 l 0 1 l 0.996 0 l 0 1.996 l -0.996 0 l 0 1 l 2.996 0 l 0 -1 l -1 0 l 0 -3 l -1.996 0 m 0 0.004" fill="#2d2d2d" stroke="none" fill-rule="nonzero" fill-opacity="1"/><path d="m 28 27 l 0 1 l 1 0 l 0 1.996 l -1 0 l 0 1 l 2.996 0 l 0 -1 l -1 0 l 0 -3 l -1.996 0 m 0 0.004" fill="#2d2d2d" stroke="none" fill-rule="nonzero" fill-opacity="1"/><path d="m 25.313 32.06 l 9.453 -10.02 l 2.906 2.746 l -9.453 10.02 m -2.906 -2.746" fill="#ff6f03" stroke="none" fill-rule="nonzero" fill-opacity="1"/><path d="m 34.26 22.586 l 2.898 2.746 l 1.684 -1.773 c 0 0 0.145 -0.633 -1.07 -1.781 c -1.176 -1.109 -1.887 -0.918 -1.887 -0.918 l -1.629 1.727 m 0.004 0" fill="#ff2d5b" stroke="none" fill-rule="nonzero" fill-opacity="1"/><path d="m 25.336 32.03 l -1.293 4.281 l 4.199 -1.539 l -2.906 -2.746 m 0 0.004" fill="#ffc13d" stroke="none" fill-rule="nonzero" fill-opacity="1"/><path d="m 24.676 34.17 l -0.633 2.145 l 2.109 -0.758 l -1.477 -1.398 m 0 0.012" fill="#2d2d2d" stroke="none" fill-rule="nonzero" fill-opacity="1"/></g></g></g><g><path d="m 20 4 -7.313 3.03 -5.656 5.656 -3.03 7.313 0 8 3.03 7.313 5.656 5.656 7.313 3.03 8 0 7.313 -3.03 5.656 -5.656 3.03 -7.313 0 -8 -3.03 -7.313 -5.656 -5.656 -7.313 -3.03 -8 0 z" clip-path="url(#clipPath4313)" transform="matrix(0,1,-1,0,48,0)" opacity="0.3" stroke-opacity="1" stroke-dasharray="none" visibility="visible" fill="none" display="inline" stroke="url(#linearGradient4375)" color="#000" stroke-width="1" stroke-miterlimit="4"/><path d="m 24 2.344 -4 1.656 -4.281 0 -3.03 3.03 l -4 1.656 -1.656 4 l -3.03 3.03 0 4.281 -1.656 4 1.656 4 l 0 4.281 3.03 3.03 1.656 4 4 1.656 l 3.03 3.03 4.281 0 4 1.656 4 -1.656 l 4.281 0 3.03 -3.03 4 -1.656 1.656 -4 l 3.03 -3.03 0 -4.281 1.656 -4 -1.656 -4 l 0 -4.281 -3.03 -3.03 -1.656 -4 -4 -1.656 l -3.03 -3.03 -4.281 0 -4 -1.656 z" clip-path="url(#clipPath4329)" opacity="0.2" stroke-opacity="1" visibility="visible" fill="none" display="inline" stroke="#000" color="#000" stroke-width="2"/></g></svg>