<svg viewBox="0 0 48 48" xmlns:xlink="http://www.w3.org/1999/xlink"><defs><clipPath clipPathUnits="userSpaceOnUse" id="clipPath4313"><path d="m 20 4 -7.313 3.03 -5.656 5.656 -3.03 7.313 0 8 3.03 7.313 5.656 5.656 7.313 3.03 8 0 7.313 -3.03 5.656 -5.656 3.03 -7.313 0 -8 -3.03 -7.313 -5.656 -5.656 -7.313 -3.03 -8 0 z"/></clipPath><clipPath clipPathUnits="userSpaceOnUse" id="clipPath4329"><path d="m 24 2.344 -4 1.656 -4.281 0 -3.03 3.03 l -4 1.656 -1.656 4 l -3.03 3.03 0 4.281 -1.656 4 1.656 4 l 0 4.281 3.03 3.03 1.656 4 4 1.656 l 3.03 3.03 4.281 0 4 1.656 4 -1.656 l 4.281 0 3.03 -3.03 4 -1.656 1.656 -4 l 3.03 -3.03 0 -4.281 1.656 -4 -1.656 -4 l 0 -4.281 -3.03 -3.03 -1.656 -4 -4 -1.656 l -3.03 -3.03 -4.281 0 -4 -1.656 z"/></clipPath><clipPath id="clipPath-047881170"><path d="m 24 2.344 l -4 1.656 l -4.281 0 l -3.03 3.03 l -4 1.656 l -1.656 4 l -3.03 3.03 l 0 4.281 l -1.656 4 l 1.656 4 l 0 4.281 l 3.03 3.03 l 1.656 4 l 4 1.656 l 3.03 3.03 l 4.281 0 l 4 1.656 l 4 -1.656 l 4.281 0 l 3.03 -3.03 l 4 -1.656 l 1.656 -4 l 3.03 -3.03 l 0 -4.281 l 1.656 -4 l -1.656 -4 l 0 -4.281 l -3.03 -3.03 l -1.656 -4 l -4 -1.656 l -3.03 -3.03 l -4.281 0 l -4 -1.656 z"/></clipPath><clipPath id="clipPath-054484094"><path d="m 24 2.344 l -4 1.656 l -4.281 0 l -3.03 3.03 l -4 1.656 l -1.656 4 l -3.03 3.03 l 0 4.281 l -1.656 4 l 1.656 4 l 0 4.281 l 3.03 3.03 l 1.656 4 l 4 1.656 l 3.03 3.03 l 4.281 0 l 4 1.656 l 4 -1.656 l 4.281 0 l 3.03 -3.03 l 4 -1.656 l 1.656 -4 l 3.03 -3.03 l 0 -4.281 l 1.656 -4 l -1.656 -4 l 0 -4.281 l -3.03 -3.03 l -1.656 -4 l -4 -1.656 l -3.03 -3.03 l -4.281 0 l -4 -1.656 z"/></clipPath><linearGradient id="linearGradient4317"><stop stop-color="#fff" stop-opacity="1"/><stop offset="1" stop-color="#fff" stop-opacity="0"/></linearGradient><clipPath clipPathUnits="userSpaceOnUse" id="clipPath4313"><path d="m 20 4 -7.313 3.03 -5.656 5.656 -3.03 7.313 0 8 3.03 7.313 5.656 5.656 7.313 3.03 8 0 7.313 -3.03 5.656 -5.656 3.03 -7.313 0 -8 -3.03 -7.313 -5.656 -5.656 -7.313 -3.03 -8 0 z"/></clipPath><linearGradient x2="44" x1="4" gradientUnits="userSpaceOnUse" id="linearGradient4375" xlink:href="#linearGradient4317"/><clipPath clipPathUnits="userSpaceOnUse" id="clipPath4329"><path d="m 24 2.344 -4 1.656 -4.281 0 -3.03 3.03 l -4 1.656 -1.656 4 l -3.03 3.03 0 4.281 -1.656 4 1.656 4 l 0 4.281 3.03 3.03 1.656 4 4 1.656 l 3.03 3.03 4.281 0 4 1.656 4 -1.656 l 4.281 0 3.03 -3.03 4 -1.656 1.656 -4 l 3.03 -3.03 0 -4.281 1.656 -4 -1.656 -4 l 0 -4.281 -3.03 -3.03 -1.656 -4 -4 -1.656 l -3.03 -3.03 -4.281 0 -4 -1.656 z"/></clipPath><path id="SVGCleanerId_0" d="m 24 2.344 l -4 1.656 l -4.281 0 l -3.03 3.03 l -4 1.656 l -1.656 4 l -3.03 3.03 l 0 4.281 l -1.656 4 l 1.656 4 l 0 4.281 l 3.03 3.03 l 1.656 4 l 4 1.656 l 3.03 3.03 l 4.281 0 l 4 1.656 l 4 -1.656 l 4.281 0 l 3.03 -3.03 l 4 -1.656 l 1.656 -4 l 3.03 -3.03 l 0 -4.281 l 1.656 -4 l -1.656 -4 l 0 -4.281 l -3.03 -3.03 l -1.656 -4 l -4 -1.656 l -3.03 -3.03 l -4.281 0 l -4 -1.656 z" visibility="visible" display="inline" fill-rule="nonzero" color="#000" fill-opacity="1"/></defs><g><path d="m 2.563 24.5 l -0.219 0.5 l 1.656 4 l 0 -1 l -1.438 -3.5 z m 42.875 0 l -1.438 3.5 l 0 1 l 1.656 -4 l -0.219 -0.5 z m -41.44 7.781 l 0 1 l 3.03 3.03 l 1.656 4 l 4 1.656 l 3.03 3.03 l 4.281 0 l 4 1.656 l 4 -1.656 l 4.281 0 l 3.03 -3.03 l 4 -1.656 l 1.656 -4 l 3.03 -3.03 l 0 -1 l -3.03 3.03 l -1.656 4 l -4 1.656 l -3.03 3.03 l -4.281 0 l -4 1.656 l -4 -1.656 l -4.281 0 l -3.03 -3.03 l -4 -1.656 l -1.656 -4 l -3.03 -3.03 z" opacity="0.3" visibility="visible" fill="#000" display="inline" fill-rule="nonzero" stroke="none" fill-opacity="1" color="#000"/></g><g><use fill="#3c4350" stroke="none" xlink:href="#SVGCleanerId_0"/><path d="m 24 2.344 l -4 1.656 l 8 0 l -4 -1.656 z m 4 1.656 l 7.313 3.03 l -3.03 -3.03 l -4.281 0 z m 7.313 3.03 l 5.656 5.656 l -1.656 -4 l -4 -1.656 z m 5.656 5.656 l 3.03 7.313 l 0 -4.281 l -3.03 -3.03 z m 3.03 7.313 l 0 8 l 1.656 -4 l -1.656 -4 z m 0 8 l -3.03 7.313 l 3.03 -3.03 l 0 -4.281 z m -3.03 7.313 l -5.656 5.656 l 4 -1.656 l 1.656 -4 z m -5.656 5.656 l -7.313 3.03 l 4.281 0 l 3.03 -3.03 z m -7.313 3.03 l -8 0 l 4 1.656 l 4 -1.656 z m -8 0 l -7.313 -3.03 l 3.03 3.03 l 4.281 0 z m -7.313 -3.03 l -5.656 -5.656 l 1.656 4 l 4 1.656 z m -5.656 -5.656 l -3.03 -7.313 l 0 4.281 l 3.03 3.03 z m -3.03 -7.313 l 0 -8 l -1.656 4 l 1.656 4 z m 0 -8 l 3.03 -7.313 l -3.03 3.03 l 0 4.281 z m 3.03 -7.313 l 5.656 -5.656 l -4 1.656 l -1.656 4 z m 5.656 -5.656 l 7.313 -3.03 l -4.281 0 l -3.03 3.03 z" opacity="0.05" visibility="visible" fill="#3c4350" display="inline" fill-rule="nonzero" stroke="none" fill-opacity="1" color="#000"/></g><g><use opacity="0.05" stroke-opacity="1" stroke-dasharray="none" fill="#000" stroke="#000" stroke-width="2" stroke-miterlimit="4" xlink:href="#SVGCleanerId_0"/><use opacity="0.1" stroke-opacity="1" stroke-dasharray="none" fill="#000" stroke="#000" stroke-width="1" stroke-miterlimit="4" xlink:href="#SVGCleanerId_0"/></g><g><g clip-path="url(#clipPath-047881170)"><g transform="translate(0,1)"><g opacity="0.1"><!-- color: #3c4350 --><g><path d="m 11 25.02 l 0 -2 l 4.996 -3 l 0 1 l -4.5 3 l 4.5 3 l 0 0.996 m -4.996 -3" fill="#000" stroke="none" fill-rule="nonzero" fill-opacity="1"/><path d="m 17 24 c -0.004 0.551 -0.449 0.992 -1 0.992 c -0.551 0 -0.996 -0.449 -0.996 -1 c 0 -0.551 0.445 -0.996 0.996 -1 c 0.551 0 0.996 0.445 1 0.996" fill="#000" stroke="none" fill-rule="nonzero" fill-opacity="0.706"/><path d="m 32 25 l 0 -2 l 5 -3 l 0 1 l -4 3 l 4 3 l 0 1 m -6 0 l 0 -1 l 4 -3 l -4 -3 l 0 -1 l 5 3 l 0 2 m -5 3" fill="#000" stroke="none" fill-rule="nonzero" fill-opacity="1"/><path d="m 20.03 29 c -0.18 -0.391 -0.332 -0.773 -0.461 -1.16 c -0.129 -0.387 -0.238 -0.781 -0.324 -1.184 c -0.082 -0.402 -0.145 -0.824 -0.188 -1.262 c -0.039 -0.438 -0.066 -0.906 -0.066 -1.402 c 0 -0.5 0.023 -0.965 0.066 -1.398 c 0.043 -0.438 0.102 -0.859 0.188 -1.258 c 0.086 -0.406 0.195 -0.801 0.324 -1.18 c 0.129 -0.387 0.281 -0.773 0.461 -1.16 l 0.969 0 c -0.184 0.402 -0.34 0.805 -0.473 1.199 c -0.133 0.395 -0.242 0.797 -0.328 1.203 c -0.082 0.402 -0.141 0.82 -0.184 1.25 c -0.039 0.426 -0.066 0.875 -0.066 1.348 c 0 0.473 0.023 0.926 0.066 1.355 c 0.043 0.426 0.102 0.84 0.184 1.246 c 0.086 0.406 0.195 0.805 0.328 1.195 c 0.133 0.395 0.289 0.797 0.473 1.207 m -0.969 0" fill="#000" stroke="none" fill-rule="nonzero" fill-opacity="1"/><path d="m 24.03 29 c -0.176 -0.391 -0.332 -0.773 -0.461 -1.16 c -0.129 -0.387 -0.238 -0.781 -0.324 -1.184 c -0.082 -0.402 -0.145 -0.824 -0.188 -1.262 c -0.039 -0.438 -0.066 -0.906 -0.066 -1.402 c 0 -0.5 0.023 -0.965 0.066 -1.398 c 0.043 -0.438 0.102 -0.859 0.188 -1.258 c 0.086 -0.406 0.195 -0.801 0.324 -1.18 c 0.129 -0.387 0.285 -0.773 0.461 -1.16 l 0.969 0 c -0.184 0.402 -0.34 0.805 -0.473 1.199 c -0.133 0.395 -0.242 0.797 -0.328 1.203 c -0.082 0.402 -0.141 0.82 -0.184 1.25 c -0.039 0.426 -0.066 0.875 -0.066 1.348 c 0 0.473 0.023 0.926 0.066 1.355 c 0.043 0.426 0.102 0.84 0.184 1.246 c 0.086 0.406 0.195 0.805 0.328 1.195 c 0.133 0.395 0.289 0.797 0.473 1.207 m -0.969 0" fill="#000" stroke="none" fill-rule="nonzero" fill-opacity="1"/><path d="m 28.03 29 c -0.176 -0.391 -0.332 -0.773 -0.461 -1.16 c -0.129 -0.387 -0.238 -0.781 -0.32 -1.184 c -0.086 -0.402 -0.148 -0.824 -0.188 -1.262 c -0.043 -0.438 -0.066 -0.906 -0.066 -1.402 c 0 -0.5 0.023 -0.965 0.066 -1.398 c 0.039 -0.438 0.102 -0.859 0.188 -1.258 c 0.082 -0.406 0.191 -0.801 0.32 -1.18 c 0.129 -0.387 0.285 -0.773 0.461 -1.16 l 0.973 0 c -0.188 0.402 -0.344 0.805 -0.477 1.199 c -0.133 0.395 -0.242 0.797 -0.324 1.203 c -0.086 0.402 -0.145 0.82 -0.188 1.25 c -0.039 0.426 -0.066 0.875 -0.066 1.348 c 0 0.473 0.023 0.926 0.066 1.355 c 0.043 0.426 0.102 0.84 0.188 1.246 c 0.082 0.406 0.191 0.805 0.324 1.195 c 0.133 0.395 0.289 0.797 0.477 1.207 m -0.973 0" fill="#000" stroke="none" fill-rule="nonzero" fill-opacity="1"/></g></g></g></g></g><g><g clip-path="url(#clipPath-054484094)"><!-- color: #3c4350 --><g><path d="m 11 25.02 l 0 -2 l 4.996 -3 l 0 1 l -4.5 3 l 4.5 3 l 0 0.996 m -4.996 -3" fill="#70c1ff" stroke="none" fill-rule="nonzero" fill-opacity="1"/><path d="m 17 24 c -0.004 0.551 -0.449 0.992 -1 0.992 c -0.551 0 -0.996 -0.449 -0.996 -1 c 0 -0.551 0.445 -0.996 0.996 -1 c 0.551 0 0.996 0.445 1 0.996" fill="#5bff49" stroke="none" fill-rule="nonzero" fill-opacity="0.706"/><path d="m 32 25 l 0 -2 l 5 -3 l 0 1 l -4 3 l 4 3 l 0 1 m -6 0 l 0 -1 l 4 -3 l -4 -3 l 0 -1 l 5 3 l 0 2 m -5 3" fill="#70c1ff" stroke="none" fill-rule="nonzero" fill-opacity="1"/><path d="m 20.03 29 c -0.18 -0.391 -0.332 -0.773 -0.461 -1.16 c -0.129 -0.387 -0.238 -0.781 -0.324 -1.184 c -0.082 -0.402 -0.145 -0.824 -0.188 -1.262 c -0.039 -0.438 -0.066 -0.906 -0.066 -1.402 c 0 -0.5 0.023 -0.965 0.066 -1.398 c 0.043 -0.438 0.102 -0.859 0.188 -1.258 c 0.086 -0.406 0.195 -0.801 0.324 -1.18 c 0.129 -0.387 0.281 -0.773 0.461 -1.16 l 0.969 0 c -0.184 0.402 -0.34 0.805 -0.473 1.199 c -0.133 0.395 -0.242 0.797 -0.328 1.203 c -0.082 0.402 -0.141 0.82 -0.184 1.25 c -0.039 0.426 -0.066 0.875 -0.066 1.348 c 0 0.473 0.023 0.926 0.066 1.355 c 0.043 0.426 0.102 0.84 0.184 1.246 c 0.086 0.406 0.195 0.805 0.328 1.195 c 0.133 0.395 0.289 0.797 0.473 1.207 m -0.969 0" fill="#70c1ff" stroke="none" fill-rule="nonzero" fill-opacity="1"/><path d="m 24.03 29 c -0.176 -0.391 -0.332 -0.773 -0.461 -1.16 c -0.129 -0.387 -0.238 -0.781 -0.324 -1.184 c -0.082 -0.402 -0.145 -0.824 -0.188 -1.262 c -0.039 -0.438 -0.066 -0.906 -0.066 -1.402 c 0 -0.5 0.023 -0.965 0.066 -1.398 c 0.043 -0.438 0.102 -0.859 0.188 -1.258 c 0.086 -0.406 0.195 -0.801 0.324 -1.18 c 0.129 -0.387 0.285 -0.773 0.461 -1.16 l 0.969 0 c -0.184 0.402 -0.34 0.805 -0.473 1.199 c -0.133 0.395 -0.242 0.797 -0.328 1.203 c -0.082 0.402 -0.141 0.82 -0.184 1.25 c -0.039 0.426 -0.066 0.875 -0.066 1.348 c 0 0.473 0.023 0.926 0.066 1.355 c 0.043 0.426 0.102 0.84 0.184 1.246 c 0.086 0.406 0.195 0.805 0.328 1.195 c 0.133 0.395 0.289 0.797 0.473 1.207 m -0.969 0" fill="#70c1ff" stroke="none" fill-rule="nonzero" fill-opacity="1"/><path d="m 28.03 29 c -0.176 -0.391 -0.332 -0.773 -0.461 -1.16 c -0.129 -0.387 -0.238 -0.781 -0.32 -1.184 c -0.086 -0.402 -0.148 -0.824 -0.188 -1.262 c -0.043 -0.438 -0.066 -0.906 -0.066 -1.402 c 0 -0.5 0.023 -0.965 0.066 -1.398 c 0.039 -0.438 0.102 -0.859 0.188 -1.258 c 0.082 -0.406 0.191 -0.801 0.32 -1.18 c 0.129 -0.387 0.285 -0.773 0.461 -1.16 l 0.973 0 c -0.188 0.402 -0.344 0.805 -0.477 1.199 c -0.133 0.395 -0.242 0.797 -0.324 1.203 c -0.086 0.402 -0.145 0.82 -0.188 1.25 c -0.039 0.426 -0.066 0.875 -0.066 1.348 c 0 0.473 0.023 0.926 0.066 1.355 c 0.043 0.426 0.102 0.84 0.188 1.246 c 0.082 0.406 0.191 0.805 0.324 1.195 c 0.133 0.395 0.289 0.797 0.477 1.207 m -0.973 0" fill="#70c1ff" stroke="none" fill-rule="nonzero" fill-opacity="1"/></g></g></g><g><path d="m 20 4 -7.313 3.03 -5.656 5.656 -3.03 7.313 0 8 3.03 7.313 5.656 5.656 7.313 3.03 8 0 7.313 -3.03 5.656 -5.656 3.03 -7.313 0 -8 -3.03 -7.313 -5.656 -5.656 -7.313 -3.03 -8 0 z" clip-path="url(#clipPath4313)" transform="matrix(0,1,-1,0,48,0)" opacity="0.3" stroke-opacity="1" stroke-dasharray="none" visibility="visible" fill="none" display="inline" stroke="url(#linearGradient4375)" color="#000" stroke-width="1" stroke-miterlimit="4"/><path d="m 24 2.344 -4 1.656 -4.281 0 -3.03 3.03 l -4 1.656 -1.656 4 l -3.03 3.03 0 4.281 -1.656 4 1.656 4 l 0 4.281 3.03 3.03 1.656 4 4 1.656 l 3.03 3.03 4.281 0 4 1.656 4 -1.656 l 4.281 0 3.03 -3.03 4 -1.656 1.656 -4 l 3.03 -3.03 0 -4.281 1.656 -4 -1.656 -4 l 0 -4.281 -3.03 -3.03 -1.656 -4 -4 -1.656 l -3.03 -3.03 -4.281 0 -4 -1.656 z" clip-path="url(#clipPath4329)" opacity="0.2" stroke-opacity="1" visibility="visible" fill="none" display="inline" stroke="#000" color="#000" stroke-width="2"/></g></svg>