<svg viewBox="0 0 48 48" xmlns:xlink="http://www.w3.org/1999/xlink"><defs><clipPath clipPathUnits="userSpaceOnUse" id="clipPath4313"><path d="m 20 4 -7.313 3.03 -5.656 5.656 -3.03 7.313 0 8 3.03 7.313 5.656 5.656 7.313 3.03 8 0 7.313 -3.03 5.656 -5.656 3.03 -7.313 0 -8 -3.03 -7.313 -5.656 -5.656 -7.313 -3.03 -8 0 z"/></clipPath><clipPath clipPathUnits="userSpaceOnUse" id="clipPath4329"><path d="m 24 2.344 -4 1.656 -4.281 0 -3.03 3.03 l -4 1.656 -1.656 4 l -3.03 3.03 0 4.281 -1.656 4 1.656 4 l 0 4.281 3.03 3.03 1.656 4 4 1.656 l 3.03 3.03 4.281 0 4 1.656 4 -1.656 l 4.281 0 3.03 -3.03 4 -1.656 1.656 -4 l 3.03 -3.03 0 -4.281 1.656 -4 -1.656 -4 l 0 -4.281 -3.03 -3.03 -1.656 -4 -4 -1.656 l -3.03 -3.03 -4.281 0 -4 -1.656 z"/></clipPath><clipPath id="clipPath-825663331"><path d="m 24 2.344 l -4 1.656 l -4.281 0 l -3.03 3.03 l -4 1.656 l -1.656 4 l -3.03 3.03 l 0 4.281 l -1.656 4 l 1.656 4 l 0 4.281 l 3.03 3.03 l 1.656 4 l 4 1.656 l 3.03 3.03 l 4.281 0 l 4 1.656 l 4 -1.656 l 4.281 0 l 3.03 -3.03 l 4 -1.656 l 1.656 -4 l 3.03 -3.03 l 0 -4.281 l 1.656 -4 l -1.656 -4 l 0 -4.281 l -3.03 -3.03 l -1.656 -4 l -4 -1.656 l -3.03 -3.03 l -4.281 0 l -4 -1.656 z"/></clipPath><clipPath id="clipPath-831693341"><path d="m 24 2.344 l -4 1.656 l -4.281 0 l -3.03 3.03 l -4 1.656 l -1.656 4 l -3.03 3.03 l 0 4.281 l -1.656 4 l 1.656 4 l 0 4.281 l 3.03 3.03 l 1.656 4 l 4 1.656 l 3.03 3.03 l 4.281 0 l 4 1.656 l 4 -1.656 l 4.281 0 l 3.03 -3.03 l 4 -1.656 l 1.656 -4 l 3.03 -3.03 l 0 -4.281 l 1.656 -4 l -1.656 -4 l 0 -4.281 l -3.03 -3.03 l -1.656 -4 l -4 -1.656 l -3.03 -3.03 l -4.281 0 l -4 -1.656 z"/></clipPath><linearGradient id="linearGradient4317"><stop stop-color="#fff" stop-opacity="1"/><stop offset="1" stop-color="#fff" stop-opacity="0"/></linearGradient><clipPath clipPathUnits="userSpaceOnUse" id="clipPath4313"><path d="m 20 4 -7.313 3.03 -5.656 5.656 -3.03 7.313 0 8 3.03 7.313 5.656 5.656 7.313 3.03 8 0 7.313 -3.03 5.656 -5.656 3.03 -7.313 0 -8 -3.03 -7.313 -5.656 -5.656 -7.313 -3.03 -8 0 z"/></clipPath><linearGradient x2="44" x1="4" gradientUnits="userSpaceOnUse" id="linearGradient4375" xlink:href="#linearGradient4317"/><clipPath clipPathUnits="userSpaceOnUse" id="clipPath4329"><path d="m 24 2.344 -4 1.656 -4.281 0 -3.03 3.03 l -4 1.656 -1.656 4 l -3.03 3.03 0 4.281 -1.656 4 1.656 4 l 0 4.281 3.03 3.03 1.656 4 4 1.656 l 3.03 3.03 4.281 0 4 1.656 4 -1.656 l 4.281 0 3.03 -3.03 4 -1.656 1.656 -4 l 3.03 -3.03 0 -4.281 1.656 -4 -1.656 -4 l 0 -4.281 -3.03 -3.03 -1.656 -4 -4 -1.656 l -3.03 -3.03 -4.281 0 -4 -1.656 z"/></clipPath><linearGradient id="linear0" gradientUnits="userSpaceOnUse" x1="0" x2="1" gradientTransform="matrix(-0.0328728,-4.018518,5.309974,-0.0248777,-91.154216,125.14714)"><stop stop-color="#ec2c20" stop-opacity="1"/><stop offset="1" stop-color="#fab218" stop-opacity="1"/></linearGradient><linearGradient id="linear1" gradientUnits="userSpaceOnUse" x1="0" x2="1" gradientTransform="matrix(0.115078,2.68729,-3.550921,0.0870898,-92.13101,122.46896)"><stop stop-color="#fade17" stop-opacity="1"/><stop offset="1" stop-color="#f1511a" stop-opacity="1"/></linearGradient><linearGradient id="linear0" gradientUnits="userSpaceOnUse" x1="0" x2="1" gradientTransform="matrix(-0.0328728,-4.018518,5.309974,-0.0248777,-91.154216,125.14714)"><stop stop-color="#ec2c20" stop-opacity="1"/><stop offset="1" stop-color="#fab218" stop-opacity="1"/></linearGradient><linearGradient id="linear1" gradientUnits="userSpaceOnUse" x1="0" x2="1" gradientTransform="matrix(0.115078,2.68729,-3.550921,0.0870898,-92.13101,122.46896)"><stop stop-color="#fade17" stop-opacity="1"/><stop offset="1" stop-color="#f1511a" stop-opacity="1"/></linearGradient><path id="SVGCleanerId_0" d="m 24 2.344 l -4 1.656 l -4.281 0 l -3.03 3.03 l -4 1.656 l -1.656 4 l -3.03 3.03 l 0 4.281 l -1.656 4 l 1.656 4 l 0 4.281 l 3.03 3.03 l 1.656 4 l 4 1.656 l 3.03 3.03 l 4.281 0 l 4 1.656 l 4 -1.656 l 4.281 0 l 3.03 -3.03 l 4 -1.656 l 1.656 -4 l 3.03 -3.03 l 0 -4.281 l 1.656 -4 l -1.656 -4 l 0 -4.281 l -3.03 -3.03 l -1.656 -4 l -4 -1.656 l -3.03 -3.03 l -4.281 0 l -4 -1.656 z" visibility="visible" display="inline" fill-rule="nonzero" color="#000" fill-opacity="1"/></defs><g><path d="m 2.563 24.5 l -0.219 0.5 l 1.656 4 l 0 -1 l -1.438 -3.5 z m 42.875 0 l -1.438 3.5 l 0 1 l 1.656 -4 l -0.219 -0.5 z m -41.44 7.781 l 0 1 l 3.03 3.03 l 1.656 4 l 4 1.656 l 3.03 3.03 l 4.281 0 l 4 1.656 l 4 -1.656 l 4.281 0 l 3.03 -3.03 l 4 -1.656 l 1.656 -4 l 3.03 -3.03 l 0 -1 l -3.03 3.03 l -1.656 4 l -4 1.656 l -3.03 3.03 l -4.281 0 l -4 1.656 l -4 -1.656 l -4.281 0 l -3.03 -3.03 l -4 -1.656 l -1.656 -4 l -3.03 -3.03 z" opacity="0.3" visibility="visible" fill="#000" display="inline" fill-rule="nonzero" stroke="none" fill-opacity="1" color="#000"/></g><g><use fill="#4d4d4d" stroke="none" xlink:href="#SVGCleanerId_0"/><path d="m 24 2.344 l -4 1.656 l 8 0 l -4 -1.656 z m 4 1.656 l 7.313 3.03 l -3.03 -3.03 l -4.281 0 z m 7.313 3.03 l 5.656 5.656 l -1.656 -4 l -4 -1.656 z m 5.656 5.656 l 3.03 7.313 l 0 -4.281 l -3.03 -3.03 z m 3.03 7.313 l 0 8 l 1.656 -4 l -1.656 -4 z m 0 8 l -3.03 7.313 l 3.03 -3.03 l 0 -4.281 z m -3.03 7.313 l -5.656 5.656 l 4 -1.656 l 1.656 -4 z m -5.656 5.656 l -7.313 3.03 l 4.281 0 l 3.03 -3.03 z m -7.313 3.03 l -8 0 l 4 1.656 l 4 -1.656 z m -8 0 l -7.313 -3.03 l 3.03 3.03 l 4.281 0 z m -7.313 -3.03 l -5.656 -5.656 l 1.656 4 l 4 1.656 z m -5.656 -5.656 l -3.03 -7.313 l 0 4.281 l 3.03 3.03 z m -3.03 -7.313 l 0 -8 l -1.656 4 l 1.656 4 z m 0 -8 l 3.03 -7.313 l -3.03 3.03 l 0 4.281 z m 3.03 -7.313 l 5.656 -5.656 l -4 1.656 l -1.656 4 z m 5.656 -5.656 l 7.313 -3.03 l -4.281 0 l -3.03 3.03 z" opacity="0.05" visibility="visible" fill="#4d4d4d" display="inline" fill-rule="nonzero" stroke="none" fill-opacity="1" color="#000"/></g><g><use opacity="0.05" stroke-opacity="1" stroke-dasharray="none" fill="#000" stroke="#000" stroke-width="2" stroke-miterlimit="4" xlink:href="#SVGCleanerId_0"/><use opacity="0.1" stroke-opacity="1" stroke-dasharray="none" fill="#000" stroke="#000" stroke-width="1" stroke-miterlimit="4" xlink:href="#SVGCleanerId_0"/></g><g><g clip-path="url(#clipPath-825663331)"><g transform="translate(0,1)"><g opacity="0.1"><!-- color: #4d4d4d --><g><path d="m 24 21 c 0.828 0 1.582 0.332 2.125 0.875 c 0.543 0.543 0.875 1.297 0.875 2.125 c 0 0.828 -0.332 1.582 -0.875 2.125 c -0.543 0.543 -1.297 0.875 -2.125 0.875 c -0.828 0 -1.582 -0.332 -2.125 -0.875 c -0.543 -0.543 -0.875 -1.297 -0.875 -2.125 c 0 -0.828 0.332 -1.582 0.875 -2.125 c 0.543 -0.543 1.297 -0.875 2.125 -0.875 m 0 0" fill="#000" stroke="none" fill-rule="nonzero" fill-opacity="0.498"/><path d="m 20.781 5.5 c 4.367 7.113 0.426 8.25 -0.406 13.813 c 0.406 -0.313 0.801 -0.641 1.281 -0.844 c 0.719 -0.305 1.516 -0.469 2.344 -0.469 c 0.828 0 1.625 0.164 2.344 0.469 c 0.719 0.305 1.363 0.738 1.906 1.281 c 0.543 0.543 0.977 1.188 1.281 1.906 c 0.305 0.719 0.469 1.516 0.469 2.344 c 0 0.828 -0.164 1.625 -0.469 2.344 c -0.305 0.719 -0.738 1.363 -1.281 1.906 c -0.543 0.543 -1.188 0.977 -1.906 1.281 c -0.719 0.305 -1.516 0.469 -2.344 0.469 c -0.828 0 -1.625 -0.164 -2.344 -0.469 c -0.719 -0.305 -1.363 -0.738 -1.906 -1.281 c -0.543 -0.543 -0.977 -1.188 -1.281 -1.906 c -0.305 -0.719 -0.469 -1.516 -0.469 -2.344 c 0 -0.828 0.164 -1.625 0.469 -2.344 c 0.125 -0.297 0.363 -0.512 0.531 -0.781 c -0.566 -0.84 -1.313 -1.504 -3 -1.875 c 4 7 -4.77 6.219 -3.938 12.313 c -1.078 -0.297 -2.066 -2.305 -1.25 -4.781 c -2.816 3.477 -1.813 6.469 0.188 9.469 c -2 -2 -5.27 -1.992 -6.27 -4.805 c -1.48 8.57 9.27 16.02 19.832 16.02 l 0.75 0 c 6.621 0 16.465 -5.938 16.734 -13.27 c -0.93 1.379 -5.05 4.051 -6.891 4.051 c 4.848 -4 5.852 -10 1.531 -15.75 c 0.32 3.75 -1.699 5.754 -3.469 7.03 c 2.77 -5.281 2.77 -11.297 -2.656 -16.594 c 0.434 1.297 0.766 2.313 0.469 3.5 c 0.301 -1.453 -4.03 -8.184 -10.25 -10.688 m 0 0.004" fill="#000" stroke="none" fill-rule="nonzero"/><path d="m 20 28.406 c -2.098 2.176 -4 4.5 -4 7.594 c 0 5 3.387 9 8.188 9 l 0.188 0 c 5.742 -0.195 9.102 -6.703 4.438 -12.188 c -0.801 -0.82 -0.813 -2.813 0.191 -4.813 c -2 1 -3 3 -2 5 c -1.078 -0.809 -1.328 -1.992 -1.281 -3.344 c -0.555 0.168 -1.113 0.344 -1.719 0.344 c -0.832 0 -1.629 -0.164 -2.348 -0.469 c -0.625 -0.266 -1.16 -0.676 -1.652 -1.125 m -0.004 0" fill="#000" stroke="none" fill-rule="nonzero"/></g></g></g></g></g><g><g clip-path="url(#clipPath-831693341)"><!-- color: #4d4d4d --><g><path d="m 24 21 c 0.828 0 1.582 0.332 2.125 0.875 c 0.543 0.543 0.875 1.297 0.875 2.125 c 0 0.828 -0.332 1.582 -0.875 2.125 c -0.543 0.543 -1.297 0.875 -2.125 0.875 c -0.828 0 -1.582 -0.332 -2.125 -0.875 c -0.543 -0.543 -0.875 -1.297 -0.875 -2.125 c 0 -0.828 0.332 -1.582 0.875 -2.125 c 0.543 -0.543 1.297 -0.875 2.125 -0.875 m 0 0" fill="#fff" stroke="none" fill-rule="nonzero" fill-opacity="0.498"/><path d="m 20.781 5.5 c 4.367 7.113 0.426 8.25 -0.406 13.813 c 0.406 -0.313 0.801 -0.641 1.281 -0.844 c 0.719 -0.305 1.516 -0.469 2.344 -0.469 c 0.828 0 1.625 0.164 2.344 0.469 c 0.719 0.305 1.363 0.738 1.906 1.281 c 0.543 0.543 0.977 1.188 1.281 1.906 c 0.305 0.719 0.469 1.516 0.469 2.344 c 0 0.828 -0.164 1.625 -0.469 2.344 c -0.305 0.719 -0.738 1.363 -1.281 1.906 c -0.543 0.543 -1.188 0.977 -1.906 1.281 c -0.719 0.305 -1.516 0.469 -2.344 0.469 c -0.828 0 -1.625 -0.164 -2.344 -0.469 c -0.719 -0.305 -1.363 -0.738 -1.906 -1.281 c -0.543 -0.543 -0.977 -1.188 -1.281 -1.906 c -0.305 -0.719 -0.469 -1.516 -0.469 -2.344 c 0 -0.828 0.164 -1.625 0.469 -2.344 c 0.125 -0.297 0.363 -0.512 0.531 -0.781 c -0.566 -0.84 -1.313 -1.504 -3 -1.875 c 4 7 -4.77 6.219 -3.938 12.313 c -1.078 -0.297 -2.066 -2.305 -1.25 -4.781 c -2.816 3.477 -1.813 6.469 0.188 9.469 c -2 -2 -5.27 -1.992 -6.27 -4.805 c -1.48 8.57 9.27 16.02 19.832 16.02 l 0.75 0 c 6.621 0 16.465 -5.938 16.734 -13.27 c -0.93 1.379 -5.05 4.051 -6.891 4.051 c 4.848 -4 5.852 -10 1.531 -15.75 c 0.32 3.75 -1.699 5.754 -3.469 7.03 c 2.77 -5.281 2.77 -11.297 -2.656 -16.594 c 0.434 1.297 0.766 2.313 0.469 3.5 c 0.301 -1.453 -4.03 -8.184 -10.25 -10.688 m 0 0.004" fill="url(#linear0)" stroke="none" fill-rule="nonzero"/><path d="m 20 28.406 c -2.098 2.176 -4 4.5 -4 7.594 c 0 5 3.387 9 8.188 9 l 0.188 0 c 5.742 -0.195 9.102 -6.703 4.438 -12.188 c -0.801 -0.82 -0.813 -2.813 0.191 -4.813 c -2 1 -3 3 -2 5 c -1.078 -0.809 -1.328 -1.992 -1.281 -3.344 c -0.555 0.168 -1.113 0.344 -1.719 0.344 c -0.832 0 -1.629 -0.164 -2.348 -0.469 c -0.625 -0.266 -1.16 -0.676 -1.652 -1.125 m -0.004 0" fill="url(#linear1)" stroke="none" fill-rule="nonzero"/></g></g></g><g><path d="m 20 4 -7.313 3.03 -5.656 5.656 -3.03 7.313 0 8 3.03 7.313 5.656 5.656 7.313 3.03 8 0 7.313 -3.03 5.656 -5.656 3.03 -7.313 0 -8 -3.03 -7.313 -5.656 -5.656 -7.313 -3.03 -8 0 z" clip-path="url(#clipPath4313)" transform="matrix(0,1,-1,0,48,0)" opacity="0.3" stroke-opacity="1" stroke-dasharray="none" visibility="visible" fill="none" display="inline" stroke="url(#linearGradient4375)" color="#000" stroke-width="1" stroke-miterlimit="4"/><path d="m 24 2.344 -4 1.656 -4.281 0 -3.03 3.03 l -4 1.656 -1.656 4 l -3.03 3.03 0 4.281 -1.656 4 1.656 4 l 0 4.281 3.03 3.03 1.656 4 4 1.656 l 3.03 3.03 4.281 0 4 1.656 4 -1.656 l 4.281 0 3.03 -3.03 4 -1.656 1.656 -4 l 3.03 -3.03 0 -4.281 1.656 -4 -1.656 -4 l 0 -4.281 -3.03 -3.03 -1.656 -4 -4 -1.656 l -3.03 -3.03 -4.281 0 -4 -1.656 z" clip-path="url(#clipPath4329)" opacity="0.2" stroke-opacity="1" visibility="visible" fill="none" display="inline" stroke="#000" color="#000" stroke-width="2"/></g></svg>