<svg viewBox="0 0 48 48" xmlns:xlink="http://www.w3.org/1999/xlink"><defs><clipPath clipPathUnits="userSpaceOnUse" id="clipPath4313"><path d="m 20 4 -7.313 3.03 -5.656 5.656 -3.03 7.313 0 8 3.03 7.313 5.656 5.656 7.313 3.03 8 0 7.313 -3.03 5.656 -5.656 3.03 -7.313 0 -8 -3.03 -7.313 -5.656 -5.656 -7.313 -3.03 -8 0 z"/></clipPath><clipPath clipPathUnits="userSpaceOnUse" id="clipPath4329"><path d="m 24 2.344 -4 1.656 -4.281 0 -3.03 3.03 l -4 1.656 -1.656 4 l -3.03 3.03 0 4.281 -1.656 4 1.656 4 l 0 4.281 3.03 3.03 1.656 4 4 1.656 l 3.03 3.03 4.281 0 4 1.656 4 -1.656 l 4.281 0 3.03 -3.03 4 -1.656 1.656 -4 l 3.03 -3.03 0 -4.281 1.656 -4 -1.656 -4 l 0 -4.281 -3.03 -3.03 -1.656 -4 -4 -1.656 l -3.03 -3.03 -4.281 0 -4 -1.656 z"/></clipPath><clipPath id="clipPath-188823753"><path d="m 24 2.344 l -4 1.656 l -4.281 0 l -3.03 3.03 l -4 1.656 l -1.656 4 l -3.03 3.03 l 0 4.281 l -1.656 4 l 1.656 4 l 0 4.281 l 3.03 3.03 l 1.656 4 l 4 1.656 l 3.03 3.03 l 4.281 0 l 4 1.656 l 4 -1.656 l 4.281 0 l 3.03 -3.03 l 4 -1.656 l 1.656 -4 l 3.03 -3.03 l 0 -4.281 l 1.656 -4 l -1.656 -4 l 0 -4.281 l -3.03 -3.03 l -1.656 -4 l -4 -1.656 l -3.03 -3.03 l -4.281 0 l -4 -1.656 z"/></clipPath><clipPath id="clipPath-195391280"><path d="m 24 2.344 l -4 1.656 l -4.281 0 l -3.03 3.03 l -4 1.656 l -1.656 4 l -3.03 3.03 l 0 4.281 l -1.656 4 l 1.656 4 l 0 4.281 l 3.03 3.03 l 1.656 4 l 4 1.656 l 3.03 3.03 l 4.281 0 l 4 1.656 l 4 -1.656 l 4.281 0 l 3.03 -3.03 l 4 -1.656 l 1.656 -4 l 3.03 -3.03 l 0 -4.281 l 1.656 -4 l -1.656 -4 l 0 -4.281 l -3.03 -3.03 l -1.656 -4 l -4 -1.656 l -3.03 -3.03 l -4.281 0 l -4 -1.656 z"/></clipPath><linearGradient id="linearGradient4317"><stop stop-color="#fff" stop-opacity="1"/><stop offset="1" stop-color="#fff" stop-opacity="0"/></linearGradient><clipPath clipPathUnits="userSpaceOnUse" id="clipPath4313"><path d="m 20 4 -7.313 3.03 -5.656 5.656 -3.03 7.313 0 8 3.03 7.313 5.656 5.656 7.313 3.03 8 0 7.313 -3.03 5.656 -5.656 3.03 -7.313 0 -8 -3.03 -7.313 -5.656 -5.656 -7.313 -3.03 -8 0 z"/></clipPath><linearGradient x2="44" x1="4" gradientUnits="userSpaceOnUse" id="linearGradient4375" xlink:href="#linearGradient4317"/><clipPath clipPathUnits="userSpaceOnUse" id="clipPath4329"><path d="m 24 2.344 -4 1.656 -4.281 0 -3.03 3.03 l -4 1.656 -1.656 4 l -3.03 3.03 0 4.281 -1.656 4 1.656 4 l 0 4.281 3.03 3.03 1.656 4 4 1.656 l 3.03 3.03 4.281 0 4 1.656 4 -1.656 l 4.281 0 3.03 -3.03 4 -1.656 1.656 -4 l 3.03 -3.03 0 -4.281 1.656 -4 -1.656 -4 l 0 -4.281 -3.03 -3.03 -1.656 -4 -4 -1.656 l -3.03 -3.03 -4.281 0 -4 -1.656 z"/></clipPath><path id="SVGCleanerId_0" d="m 24 2.344 l -4 1.656 l -4.281 0 l -3.03 3.03 l -4 1.656 l -1.656 4 l -3.03 3.03 l 0 4.281 l -1.656 4 l 1.656 4 l 0 4.281 l 3.03 3.03 l 1.656 4 l 4 1.656 l 3.03 3.03 l 4.281 0 l 4 1.656 l 4 -1.656 l 4.281 0 l 3.03 -3.03 l 4 -1.656 l 1.656 -4 l 3.03 -3.03 l 0 -4.281 l 1.656 -4 l -1.656 -4 l 0 -4.281 l -3.03 -3.03 l -1.656 -4 l -4 -1.656 l -3.03 -3.03 l -4.281 0 l -4 -1.656 z" visibility="visible" display="inline" fill-rule="nonzero" color="#000" fill-opacity="1"/></defs><g><path d="m 2.563 24.5 l -0.219 0.5 l 1.656 4 l 0 -1 l -1.438 -3.5 z m 42.875 0 l -1.438 3.5 l 0 1 l 1.656 -4 l -0.219 -0.5 z m -41.44 7.781 l 0 1 l 3.03 3.03 l 1.656 4 l 4 1.656 l 3.03 3.03 l 4.281 0 l 4 1.656 l 4 -1.656 l 4.281 0 l 3.03 -3.03 l 4 -1.656 l 1.656 -4 l 3.03 -3.03 l 0 -1 l -3.03 3.03 l -1.656 4 l -4 1.656 l -3.03 3.03 l -4.281 0 l -4 1.656 l -4 -1.656 l -4.281 0 l -3.03 -3.03 l -4 -1.656 l -1.656 -4 l -3.03 -3.03 z" opacity="0.3" visibility="visible" fill="#000" display="inline" fill-rule="nonzero" stroke="none" fill-opacity="1" color="#000"/></g><g><use fill="#70afaf" stroke="none" xlink:href="#SVGCleanerId_0"/><path d="m 24 2.344 l -4 1.656 l 8 0 l -4 -1.656 z m 4 1.656 l 7.313 3.03 l -3.03 -3.03 l -4.281 0 z m 7.313 3.03 l 5.656 5.656 l -1.656 -4 l -4 -1.656 z m 5.656 5.656 l 3.03 7.313 l 0 -4.281 l -3.03 -3.03 z m 3.03 7.313 l 0 8 l 1.656 -4 l -1.656 -4 z m 0 8 l -3.03 7.313 l 3.03 -3.03 l 0 -4.281 z m -3.03 7.313 l -5.656 5.656 l 4 -1.656 l 1.656 -4 z m -5.656 5.656 l -7.313 3.03 l 4.281 0 l 3.03 -3.03 z m -7.313 3.03 l -8 0 l 4 1.656 l 4 -1.656 z m -8 0 l -7.313 -3.03 l 3.03 3.03 l 4.281 0 z m -7.313 -3.03 l -5.656 -5.656 l 1.656 4 l 4 1.656 z m -5.656 -5.656 l -3.03 -7.313 l 0 4.281 l 3.03 3.03 z m -3.03 -7.313 l 0 -8 l -1.656 4 l 1.656 4 z m 0 -8 l 3.03 -7.313 l -3.03 3.03 l 0 4.281 z m 3.03 -7.313 l 5.656 -5.656 l -4 1.656 l -1.656 4 z m 5.656 -5.656 l 7.313 -3.03 l -4.281 0 l -3.03 3.03 z" opacity="0.05" visibility="visible" fill="#70afaf" display="inline" fill-rule="nonzero" stroke="none" fill-opacity="1" color="#000"/></g><g><use opacity="0.05" stroke-opacity="1" stroke-dasharray="none" fill="#000" stroke="#000" stroke-width="2" stroke-miterlimit="4" xlink:href="#SVGCleanerId_0"/><use opacity="0.1" stroke-opacity="1" stroke-dasharray="none" fill="#000" stroke="#000" stroke-width="1" stroke-miterlimit="4" xlink:href="#SVGCleanerId_0"/></g><g><g clip-path="url(#clipPath-188823753)"><g transform="translate(0,1)"><g opacity="0.1"><!-- color: #70afaf --><g><path d="m 24.02 25.57 c 0.086 0.008 1.148 0.098 2.332 0.289 c 1.137 0.18 1.848 0.457 1.848 0.457 c 0 0 -0.102 0.887 -1.738 1.84 c -1.23 0.715 -1.918 0.84 -2.305 0.848 c -0.055 0 -0.098 -0.004 -0.141 -0.008 c 0 0 -0.004 0 -0.004 0 c -0.344 0.02 -1.039 -0.012 -2.469 -0.844 c -1.637 -0.953 -1.734 -1.84 -1.734 -1.84 c 0 0 0.707 -0.277 1.844 -0.457 c 1.184 -0.188 2.246 -0.281 2.332 -0.285 l 0 -0.004 c 0 0 0.016 0 0.016 0 c 0 0 0.016 0 0.016 0 m 0.004 0.004" fill="#000" stroke="none" fill-rule="nonzero" fill-opacity="1"/><path d="m 19 26.2 c 0 0 0.117 -1.715 2.066 -3.543 c 1.949 -1.848 2.758 -1.66 3.098 -1.613 c 0.34 0.047 -0.082 2.332 -0.082 2.332 l -0.066 4.289 c 0 0 -1.344 -0.18 -2.816 -0.563 c -1.352 -0.352 -2.199 -0.887 -2.199 -0.887 m 0 -0.016" fill="#000" stroke="none" fill-rule="nonzero" fill-opacity="1"/><path d="m 24.18 21 c 0.461 0.016 1.285 0.262 2.75 1.645 c 1.953 1.848 2.07 3.543 2.07 3.543 c 0 0 -0.848 0.535 -2.203 0.887 c -1.469 0.383 -2.816 0.559 -2.816 0.559 l -0.027 -1.789 l 0 -4.84 c 0.063 -0.008 0.137 -0.02 0.23 -0.016 m -0.004 0.012" fill="#000" stroke="none" fill-rule="nonzero" fill-opacity="1"/><path d="m 11.05 14.988 c 0.32 2.141 2.238 3.434 4.285 2.891 c 2.047 -0.543 3.445 -2.719 3.121 -4.863 c -0.32 -2.141 -2.238 -3.434 -4.281 -2.891 c -2.047 0.543 -3.445 2.723 -3.125 4.863 m 0 0" fill="#000" stroke="none" fill-rule="evenodd" fill-opacity="1"/><path d="m 14.805 13.176 c -0.59 0.426 -1.281 0.465 -1.551 0.09 c -0.27 -0.379 -0.008 -1.031 0.582 -1.461 c 0.59 -0.426 1.285 -0.465 1.551 -0.086 c 0.27 0.379 0.008 1.031 -0.582 1.457 m 0 0" fill="#000" stroke="none" fill-rule="evenodd" fill-opacity="0.765"/><path d="m 12.434 12.844 c -0.324 0.531 -0.477 1.16 -0.383 1.773 c 0.203 1.363 1.52 2.16 2.938 1.781 c 1.422 -0.375 2.402 -1.785 2.199 -3.145 c -0.086 -0.559 -0.352 -1.023 -0.738 -1.348 c 0.699 0.375 1.211 1.055 1.34 1.926 c 0.246 1.637 -0.938 3.328 -2.645 3.781 c -1.703 0.453 -3.285 -0.504 -3.531 -2.141 c -0.141 -0.941 0.191 -1.898 0.82 -2.629 m 0 0" fill="#000" stroke="none" fill-rule="evenodd" fill-opacity="0.102"/><path d="m 36.461 14.988 c -0.32 2.141 -2.242 3.434 -4.285 2.891 c -2.047 -0.543 -3.445 -2.719 -3.125 -4.863 c 0.32 -2.141 2.238 -3.434 4.285 -2.891 c 2.047 0.543 3.445 2.723 3.125 4.863 m 0 0" fill="#000" stroke="none" fill-rule="evenodd" fill-opacity="1"/><path d="m 30.977 12.06 c 0.367 -0.629 0.988 -0.941 1.387 -0.703 c 0.395 0.242 0.418 0.945 0.047 1.57 c -0.371 0.625 -0.992 0.941 -1.387 0.699 c -0.398 -0.238 -0.418 -0.941 -0.047 -1.566 m 0 0" fill="#000" stroke="none" fill-rule="evenodd" fill-opacity="0.765"/><path d="m 34.656 12.422 c 0.324 0.535 0.477 1.16 0.383 1.777 c -0.203 1.359 -1.52 2.156 -2.938 1.781 c -1.422 -0.379 -2.402 -1.785 -2.199 -3.148 c 0.082 -0.555 0.352 -1.02 0.738 -1.348 c -0.703 0.379 -1.211 1.059 -1.34 1.926 c -0.246 1.637 0.938 3.328 2.645 3.781 c 1.703 0.453 3.285 -0.504 3.531 -2.141 c 0.141 -0.938 -0.191 -1.898 -0.82 -2.629 m 0 0" fill="#000" stroke="none" fill-rule="evenodd" fill-opacity="0.102"/></g></g></g></g></g><g><g clip-path="url(#clipPath-195391280)"><!-- color: #70afaf --><g><path d="m 24.02 25.57 c 0.086 0.008 1.148 0.098 2.332 0.289 c 1.137 0.18 1.848 0.457 1.848 0.457 c 0 0 -0.102 0.887 -1.738 1.84 c -1.23 0.715 -1.918 0.84 -2.305 0.848 c -0.055 0 -0.098 -0.004 -0.141 -0.008 c 0 0 -0.004 0 -0.004 0 c -0.344 0.02 -1.039 -0.012 -2.469 -0.844 c -1.637 -0.953 -1.734 -1.84 -1.734 -1.84 c 0 0 0.707 -0.277 1.844 -0.457 c 1.184 -0.188 2.246 -0.281 2.332 -0.285 l 0 -0.004 c 0 0 0.016 0 0.016 0 c 0 0 0.016 0 0.016 0 m 0.004 0.004" fill="#c04c25" stroke="none" fill-rule="nonzero" fill-opacity="1"/><path d="m 19 26.2 c 0 0 0.117 -1.715 2.066 -3.543 c 1.949 -1.848 2.758 -1.66 3.098 -1.613 c 0.34 0.047 -0.082 2.332 -0.082 2.332 l -0.066 4.289 c 0 0 -1.344 -0.18 -2.816 -0.563 c -1.352 -0.352 -2.199 -0.887 -2.199 -0.887 m 0 -0.016" fill="#fad5b9" stroke="none" fill-rule="nonzero" fill-opacity="1"/><path d="m 24.18 21 c 0.461 0.016 1.285 0.262 2.75 1.645 c 1.953 1.848 2.07 3.543 2.07 3.543 c 0 0 -0.848 0.535 -2.203 0.887 c -1.469 0.383 -2.816 0.559 -2.816 0.559 l -0.027 -1.789 l 0 -4.84 c 0.063 -0.008 0.137 -0.02 0.23 -0.016 m -0.004 0.012" fill="#ff7f28" stroke="none" fill-rule="nonzero" fill-opacity="1"/><path d="m 11.05 14.988 c 0.32 2.141 2.238 3.434 4.285 2.891 c 2.047 -0.543 3.445 -2.719 3.121 -4.863 c -0.32 -2.141 -2.238 -3.434 -4.281 -2.891 c -2.047 0.543 -3.445 2.723 -3.125 4.863 m 0 0" fill="#192028" stroke="none" fill-rule="evenodd" fill-opacity="1"/><path d="m 14.805 13.176 c -0.59 0.426 -1.281 0.465 -1.551 0.09 c -0.27 -0.379 -0.008 -1.031 0.582 -1.461 c 0.59 -0.426 1.285 -0.465 1.551 -0.086 c 0.27 0.379 0.008 1.031 -0.582 1.457 m 0 0" fill="#fff" stroke="none" fill-rule="evenodd" fill-opacity="0.765"/><path d="m 12.434 12.844 c -0.324 0.531 -0.477 1.16 -0.383 1.773 c 0.203 1.363 1.52 2.16 2.938 1.781 c 1.422 -0.375 2.402 -1.785 2.199 -3.145 c -0.086 -0.559 -0.352 -1.023 -0.738 -1.348 c 0.699 0.375 1.211 1.055 1.34 1.926 c 0.246 1.637 -0.938 3.328 -2.645 3.781 c -1.703 0.453 -3.285 -0.504 -3.531 -2.141 c -0.141 -0.941 0.191 -1.898 0.82 -2.629 m 0 0" fill="#fff" stroke="none" fill-rule="evenodd" fill-opacity="0.102"/><path d="m 36.461 14.988 c -0.32 2.141 -2.242 3.434 -4.285 2.891 c -2.047 -0.543 -3.445 -2.719 -3.125 -4.863 c 0.32 -2.141 2.238 -3.434 4.285 -2.891 c 2.047 0.543 3.445 2.723 3.125 4.863 m 0 0" fill="#192028" stroke="none" fill-rule="evenodd" fill-opacity="1"/><path d="m 30.977 12.06 c 0.367 -0.629 0.988 -0.941 1.387 -0.703 c 0.395 0.242 0.418 0.945 0.047 1.57 c -0.371 0.625 -0.992 0.941 -1.387 0.699 c -0.398 -0.238 -0.418 -0.941 -0.047 -1.566 m 0 0" fill="#fff" stroke="none" fill-rule="evenodd" fill-opacity="0.765"/><path d="m 34.656 12.422 c 0.324 0.535 0.477 1.16 0.383 1.777 c -0.203 1.359 -1.52 2.156 -2.938 1.781 c -1.422 -0.379 -2.402 -1.785 -2.199 -3.148 c 0.082 -0.555 0.352 -1.02 0.738 -1.348 c -0.703 0.379 -1.211 1.059 -1.34 1.926 c -0.246 1.637 0.938 3.328 2.645 3.781 c 1.703 0.453 3.285 -0.504 3.531 -2.141 c 0.141 -0.938 -0.191 -1.898 -0.82 -2.629 m 0 0" fill="#fff" stroke="none" fill-rule="evenodd" fill-opacity="0.102"/></g></g></g><g><path d="m 20 4 -7.313 3.03 -5.656 5.656 -3.03 7.313 0 8 3.03 7.313 5.656 5.656 7.313 3.03 8 0 7.313 -3.03 5.656 -5.656 3.03 -7.313 0 -8 -3.03 -7.313 -5.656 -5.656 -7.313 -3.03 -8 0 z" clip-path="url(#clipPath4313)" transform="matrix(0,1,-1,0,48,0)" opacity="0.3" stroke-opacity="1" stroke-dasharray="none" visibility="visible" fill="none" display="inline" stroke="url(#linearGradient4375)" color="#000" stroke-width="1" stroke-miterlimit="4"/><path d="m 24 2.344 -4 1.656 -4.281 0 -3.03 3.03 l -4 1.656 -1.656 4 l -3.03 3.03 0 4.281 -1.656 4 1.656 4 l 0 4.281 3.03 3.03 1.656 4 4 1.656 l 3.03 3.03 4.281 0 4 1.656 4 -1.656 l 4.281 0 3.03 -3.03 4 -1.656 1.656 -4 l 3.03 -3.03 0 -4.281 1.656 -4 -1.656 -4 l 0 -4.281 -3.03 -3.03 -1.656 -4 -4 -1.656 l -3.03 -3.03 -4.281 0 -4 -1.656 z" clip-path="url(#clipPath4329)" opacity="0.2" stroke-opacity="1" visibility="visible" fill="none" display="inline" stroke="#000" color="#000" stroke-width="2"/></g></svg>