<svg viewBox="0 0 48 48" xmlns:xlink="http://www.w3.org/1999/xlink"><defs><clipPath clipPathUnits="userSpaceOnUse" id="clipPath4313"><path d="m 20 4 -7.313 3.03 -5.656 5.656 -3.03 7.313 0 8 3.03 7.313 5.656 5.656 7.313 3.03 8 0 7.313 -3.03 5.656 -5.656 3.03 -7.313 0 -8 -3.03 -7.313 -5.656 -5.656 -7.313 -3.03 -8 0 z"/></clipPath><clipPath clipPathUnits="userSpaceOnUse" id="clipPath4329"><path d="m 24 2.344 -4 1.656 -4.281 0 -3.03 3.03 l -4 1.656 -1.656 4 l -3.03 3.03 0 4.281 -1.656 4 1.656 4 l 0 4.281 3.03 3.03 1.656 4 4 1.656 l 3.03 3.03 4.281 0 4 1.656 4 -1.656 l 4.281 0 3.03 -3.03 4 -1.656 1.656 -4 l 3.03 -3.03 0 -4.281 1.656 -4 -1.656 -4 l 0 -4.281 -3.03 -3.03 -1.656 -4 -4 -1.656 l -3.03 -3.03 -4.281 0 -4 -1.656 z"/></clipPath><clipPath id="clipPath-960672856"><path d="m 24 2.344 l -4 1.656 l -4.281 0 l -3.03 3.03 l -4 1.656 l -1.656 4 l -3.03 3.03 l 0 4.281 l -1.656 4 l 1.656 4 l 0 4.281 l 3.03 3.03 l 1.656 4 l 4 1.656 l 3.03 3.03 l 4.281 0 l 4 1.656 l 4 -1.656 l 4.281 0 l 3.03 -3.03 l 4 -1.656 l 1.656 -4 l 3.03 -3.03 l 0 -4.281 l 1.656 -4 l -1.656 -4 l 0 -4.281 l -3.03 -3.03 l -1.656 -4 l -4 -1.656 l -3.03 -3.03 l -4.281 0 l -4 -1.656 z"/></clipPath><clipPath id="clipPath-966549552"><path d="m 24 2.344 l -4 1.656 l -4.281 0 l -3.03 3.03 l -4 1.656 l -1.656 4 l -3.03 3.03 l 0 4.281 l -1.656 4 l 1.656 4 l 0 4.281 l 3.03 3.03 l 1.656 4 l 4 1.656 l 3.03 3.03 l 4.281 0 l 4 1.656 l 4 -1.656 l 4.281 0 l 3.03 -3.03 l 4 -1.656 l 1.656 -4 l 3.03 -3.03 l 0 -4.281 l 1.656 -4 l -1.656 -4 l 0 -4.281 l -3.03 -3.03 l -1.656 -4 l -4 -1.656 l -3.03 -3.03 l -4.281 0 l -4 -1.656 z"/></clipPath><linearGradient id="linearGradient4317"><stop stop-color="#fff" stop-opacity="1"/><stop offset="1" stop-color="#fff" stop-opacity="0"/></linearGradient><clipPath clipPathUnits="userSpaceOnUse" id="clipPath4313"><path d="m 20 4 -7.313 3.03 -5.656 5.656 -3.03 7.313 0 8 3.03 7.313 5.656 5.656 7.313 3.03 8 0 7.313 -3.03 5.656 -5.656 3.03 -7.313 0 -8 -3.03 -7.313 -5.656 -5.656 -7.313 -3.03 -8 0 z"/></clipPath><linearGradient x2="44" x1="4" gradientUnits="userSpaceOnUse" id="linearGradient4375" xlink:href="#linearGradient4317"/><clipPath clipPathUnits="userSpaceOnUse" id="clipPath4329"><path d="m 24 2.344 -4 1.656 -4.281 0 -3.03 3.03 l -4 1.656 -1.656 4 l -3.03 3.03 0 4.281 -1.656 4 1.656 4 l 0 4.281 3.03 3.03 1.656 4 4 1.656 l 3.03 3.03 4.281 0 4 1.656 4 -1.656 l 4.281 0 3.03 -3.03 4 -1.656 1.656 -4 l 3.03 -3.03 0 -4.281 1.656 -4 -1.656 -4 l 0 -4.281 -3.03 -3.03 -1.656 -4 -4 -1.656 l -3.03 -3.03 -4.281 0 -4 -1.656 z"/></clipPath><linearGradient id="linear0" gradientUnits="userSpaceOnUse" x1="9.242" y1="1.378" x2="4.879" y2="12.973" gradientTransform="matrix(3.543307,0,0,3.543307,0,0)"><stop stop-color="#c862c0" stop-opacity="1"/><stop offset="1" stop-color="#8edbce" stop-opacity="1"/></linearGradient><linearGradient id="linear1" gradientUnits="userSpaceOnUse" x1="13.435" y1="13.349" x2="5.794" y2="4.906" gradientTransform="matrix(3.543307,0,0,3.543307,0,0)"><stop stop-color="#dbe34a" stop-opacity="1"/><stop offset="1" stop-color="#8edbce" stop-opacity="0"/></linearGradient><linearGradient id="linear2" gradientUnits="userSpaceOnUse" x1="-22.764" y1="59.63" x2="-40.638" y2="18.26" gradientTransform="matrix(0.770699,0,0,0.742855,51.992744,9.374421)"><stop stop-color="#868ecf" stop-opacity="1"/><stop offset="1" stop-color="#2f5fcd" stop-opacity="0"/></linearGradient><linearGradient id="linear0" gradientUnits="userSpaceOnUse" x1="9.242" y1="1.378" x2="4.879" y2="12.973" gradientTransform="matrix(3.543307,0,0,3.543307,0,0)"><stop stop-color="#c862c0" stop-opacity="1"/><stop offset="1" stop-color="#8edbce" stop-opacity="1"/></linearGradient><linearGradient id="linear1" gradientUnits="userSpaceOnUse" x1="13.435" y1="13.349" x2="5.794" y2="4.906" gradientTransform="matrix(3.543307,0,0,3.543307,0,0)"><stop stop-color="#dbe34a" stop-opacity="1"/><stop offset="1" stop-color="#8edbce" stop-opacity="0"/></linearGradient><linearGradient id="linear2" gradientUnits="userSpaceOnUse" x1="-22.764" y1="59.63" x2="-40.638" y2="18.26" gradientTransform="matrix(0.770699,0,0,0.742855,51.992744,9.374421)"><stop stop-color="#868ecf" stop-opacity="1"/><stop offset="1" stop-color="#2f5fcd" stop-opacity="0"/></linearGradient><path id="SVGCleanerId_0" d="m 24 2.344 l -4 1.656 l -4.281 0 l -3.03 3.03 l -4 1.656 l -1.656 4 l -3.03 3.03 l 0 4.281 l -1.656 4 l 1.656 4 l 0 4.281 l 3.03 3.03 l 1.656 4 l 4 1.656 l 3.03 3.03 l 4.281 0 l 4 1.656 l 4 -1.656 l 4.281 0 l 3.03 -3.03 l 4 -1.656 l 1.656 -4 l 3.03 -3.03 l 0 -4.281 l 1.656 -4 l -1.656 -4 l 0 -4.281 l -3.03 -3.03 l -1.656 -4 l -4 -1.656 l -3.03 -3.03 l -4.281 0 l -4 -1.656 z" visibility="visible" display="inline" fill-rule="nonzero" color="#000" fill-opacity="1"/><rect id="SVGCleanerId_1" width="48" height="48"/></defs><g><path d="m 2.563 24.5 l -0.219 0.5 l 1.656 4 l 0 -1 l -1.438 -3.5 z m 42.875 0 l -1.438 3.5 l 0 1 l 1.656 -4 l -0.219 -0.5 z m -41.44 7.781 l 0 1 l 3.03 3.03 l 1.656 4 l 4 1.656 l 3.03 3.03 l 4.281 0 l 4 1.656 l 4 -1.656 l 4.281 0 l 3.03 -3.03 l 4 -1.656 l 1.656 -4 l 3.03 -3.03 l 0 -1 l -3.03 3.03 l -1.656 4 l -4 1.656 l -3.03 3.03 l -4.281 0 l -4 1.656 l -4 -1.656 l -4.281 0 l -3.03 -3.03 l -4 -1.656 l -1.656 -4 l -3.03 -3.03 z" opacity="0.3" visibility="visible" fill="#000" display="inline" fill-rule="nonzero" stroke="none" fill-opacity="1" color="#000"/></g><g><use fill="#eee" stroke="none" xlink:href="#SVGCleanerId_0"/><path d="m 24 2.344 l -4 1.656 l 8 0 l -4 -1.656 z m 4 1.656 l 7.313 3.03 l -3.03 -3.03 l -4.281 0 z m 7.313 3.03 l 5.656 5.656 l -1.656 -4 l -4 -1.656 z m 5.656 5.656 l 3.03 7.313 l 0 -4.281 l -3.03 -3.03 z m 3.03 7.313 l 0 8 l 1.656 -4 l -1.656 -4 z m 0 8 l -3.03 7.313 l 3.03 -3.03 l 0 -4.281 z m -3.03 7.313 l -5.656 5.656 l 4 -1.656 l 1.656 -4 z m -5.656 5.656 l -7.313 3.03 l 4.281 0 l 3.03 -3.03 z m -7.313 3.03 l -8 0 l 4 1.656 l 4 -1.656 z m -8 0 l -7.313 -3.03 l 3.03 3.03 l 4.281 0 z m -7.313 -3.03 l -5.656 -5.656 l 1.656 4 l 4 1.656 z m -5.656 -5.656 l -3.03 -7.313 l 0 4.281 l 3.03 3.03 z m -3.03 -7.313 l 0 -8 l -1.656 4 l 1.656 4 z m 0 -8 l 3.03 -7.313 l -3.03 3.03 l 0 4.281 z m 3.03 -7.313 l 5.656 -5.656 l -4 1.656 l -1.656 4 z m 5.656 -5.656 l 7.313 -3.03 l -4.281 0 l -3.03 3.03 z" opacity="0.05" visibility="visible" fill="#eee" display="inline" fill-rule="nonzero" stroke="none" fill-opacity="1" color="#000"/></g><g><use opacity="0.05" stroke-opacity="1" stroke-dasharray="none" fill="#000" stroke="#000" stroke-width="2" stroke-miterlimit="4" xlink:href="#SVGCleanerId_0"/><use opacity="0.1" stroke-opacity="1" stroke-dasharray="none" fill="#000" stroke="#000" stroke-width="1" stroke-miterlimit="4" xlink:href="#SVGCleanerId_0"/></g><g><g clip-path="url(#clipPath-960672856)"><g transform="translate(0,1)"><g opacity="0.1"><!-- color: #eeeeee --><g><use fill="#000" stroke="none" xlink:href="#SVGCleanerId_1"/><use fill="#000" stroke="none" xlink:href="#SVGCleanerId_1"/><path d="m 5.906 22.973 c 0 0 6.582 13.445 16.461 15.258 c 9.875 1.816 15.05 -2.414 13.637 -6.645 c -1.41 -4.23 -8.777 -8.16 -13.324 -4.531 c -4.547 3.625 -4.699 2.566 -8.148 1.207 c -3.449 -1.359 -5.645 -8.16 -5.645 -8.16 c 0 0 -2.195 -5.137 -3.918 -2.871 c -1.727 2.27 0.938 5.742 0.938 5.742 m 0 0" fill="#000" stroke="none" fill-rule="nonzero"/><path d="m 15.13 13.06 c -0.379 0.027 -0.926 0.266 -1.719 0.938 c -1.508 0.863 -1.02 2.074 -0.656 2.656 c 0.262 -0.395 0.727 -0.93 1.5 -1.656 c 0.715 -0.668 1.402 -0.977 1.969 -1.145 l -0.313 -0.406 c -0.172 -0.219 -0.398 -0.402 -0.781 -0.375 m 1.625 1.465 c -0.574 0.141 -1.301 0.414 -2.031 0.969 c -0.898 0.688 -1.289 1.301 -1.469 1.723 l 5.188 4.375 c 0.215 -0.418 0.492 -0.844 0.875 -1.25 c 0.418 -0.441 0.82 -0.73 1.191 -0.973 l -3.75 -4.844 m 8.84 4.816 c -0.297 0 -0.609 0.012 -0.906 0.02 c -1.387 0.078 -2.66 0.332 -3.625 0.625 c -0.016 0.023 -0.043 -0.012 -0.063 0 c -0.25 0.191 -0.551 0.48 -1 0.941 c -0.41 0.418 -0.703 0.809 -0.906 1.191 c -0.008 0.023 -0.02 0.063 -0.031 0.094 c -1.086 2.926 0.207 7.855 4.969 9 c 5.398 1.293 5.688 -0.105 8 1.438 c 2.324 1.539 1.023 3.871 2.125 3.223 c 0.566 -0.328 2.359 -2.781 1.691 -6.781 c -0.723 -4.285 -2.605 -6.566 -4.5 -8.125 c -1.469 -1.211 -3.648 -1.625 -5.75 -1.625 m -0.004 0" fill="#000" stroke="none" fill-rule="nonzero" fill-opacity="1"/></g></g></g></g></g><g><g clip-path="url(#clipPath-966549552)"><!-- color: #eeeeee --><g><use fill="url(#linear0)" stroke="none" xlink:href="#SVGCleanerId_1"/><use fill="url(#linear1)" stroke="none" xlink:href="#SVGCleanerId_1"/><path d="m 5.906 22.973 c 0 0 6.582 13.445 16.461 15.258 c 9.875 1.816 15.05 -2.414 13.637 -6.645 c -1.41 -4.23 -8.777 -8.16 -13.324 -4.531 c -4.547 3.625 -4.699 2.566 -8.148 1.207 c -3.449 -1.359 -5.645 -8.16 -5.645 -8.16 c 0 0 -2.195 -5.137 -3.918 -2.871 c -1.727 2.27 0.938 5.742 0.938 5.742 m 0 0" fill="url(#linear2)" stroke="none" fill-rule="nonzero"/><path d="m 15.13 13.06 c -0.379 0.027 -0.926 0.266 -1.719 0.938 c -1.508 0.863 -1.02 2.074 -0.656 2.656 c 0.262 -0.395 0.727 -0.93 1.5 -1.656 c 0.715 -0.668 1.402 -0.977 1.969 -1.145 l -0.313 -0.406 c -0.172 -0.219 -0.398 -0.402 -0.781 -0.375 m 1.625 1.465 c -0.574 0.141 -1.301 0.414 -2.031 0.969 c -0.898 0.688 -1.289 1.301 -1.469 1.723 l 5.188 4.375 c 0.215 -0.418 0.492 -0.844 0.875 -1.25 c 0.418 -0.441 0.82 -0.73 1.191 -0.973 l -3.75 -4.844 m 8.84 4.816 c -0.297 0 -0.609 0.012 -0.906 0.02 c -1.387 0.078 -2.66 0.332 -3.625 0.625 c -0.016 0.023 -0.043 -0.012 -0.063 0 c -0.25 0.191 -0.551 0.48 -1 0.941 c -0.41 0.418 -0.703 0.809 -0.906 1.191 c -0.008 0.023 -0.02 0.063 -0.031 0.094 c -1.086 2.926 0.207 7.855 4.969 9 c 5.398 1.293 5.688 -0.105 8 1.438 c 2.324 1.539 1.023 3.871 2.125 3.223 c 0.566 -0.328 2.359 -2.781 1.691 -6.781 c -0.723 -4.285 -2.605 -6.566 -4.5 -8.125 c -1.469 -1.211 -3.648 -1.625 -5.75 -1.625 m -0.004 0" fill="#ececec" stroke="none" fill-rule="nonzero" fill-opacity="1"/></g></g></g><g><path d="m 20 4 -7.313 3.03 -5.656 5.656 -3.03 7.313 0 8 3.03 7.313 5.656 5.656 7.313 3.03 8 0 7.313 -3.03 5.656 -5.656 3.03 -7.313 0 -8 -3.03 -7.313 -5.656 -5.656 -7.313 -3.03 -8 0 z" clip-path="url(#clipPath4313)" transform="matrix(0,1,-1,0,48,0)" opacity="0.3" stroke-opacity="1" stroke-dasharray="none" visibility="visible" fill="none" display="inline" stroke="url(#linearGradient4375)" color="#000" stroke-width="1" stroke-miterlimit="4"/><path d="m 24 2.344 -4 1.656 -4.281 0 -3.03 3.03 l -4 1.656 -1.656 4 l -3.03 3.03 0 4.281 -1.656 4 1.656 4 l 0 4.281 3.03 3.03 1.656 4 4 1.656 l 3.03 3.03 4.281 0 4 1.656 4 -1.656 l 4.281 0 3.03 -3.03 4 -1.656 1.656 -4 l 3.03 -3.03 0 -4.281 1.656 -4 -1.656 -4 l 0 -4.281 -3.03 -3.03 -1.656 -4 -4 -1.656 l -3.03 -3.03 -4.281 0 -4 -1.656 z" clip-path="url(#clipPath4329)" opacity="0.2" stroke-opacity="1" visibility="visible" fill="none" display="inline" stroke="#000" color="#000" stroke-width="2"/></g></svg>