<svg viewBox="0 0 48 48" xmlns:xlink="http://www.w3.org/1999/xlink"><defs><clipPath clipPathUnits="userSpaceOnUse" id="clipPath4313"><path d="m 20 4 -7.313 3.03 -5.656 5.656 -3.03 7.313 0 8 3.03 7.313 5.656 5.656 7.313 3.03 8 0 7.313 -3.03 5.656 -5.656 3.03 -7.313 0 -8 -3.03 -7.313 -5.656 -5.656 -7.313 -3.03 -8 0 z"/></clipPath><clipPath clipPathUnits="userSpaceOnUse" id="clipPath4329"><path d="m 24 2.344 -4 1.656 -4.281 0 -3.03 3.03 l -4 1.656 -1.656 4 l -3.03 3.03 0 4.281 -1.656 4 1.656 4 l 0 4.281 3.03 3.03 1.656 4 4 1.656 l 3.03 3.03 4.281 0 4 1.656 4 -1.656 l 4.281 0 3.03 -3.03 4 -1.656 1.656 -4 l 3.03 -3.03 0 -4.281 1.656 -4 -1.656 -4 l 0 -4.281 -3.03 -3.03 -1.656 -4 -4 -1.656 l -3.03 -3.03 -4.281 0 -4 -1.656 z"/></clipPath><clipPath id="clipPath-417647361"><path d="m 24 2.344 l -4 1.656 l -4.281 0 l -3.03 3.03 l -4 1.656 l -1.656 4 l -3.03 3.03 l 0 4.281 l -1.656 4 l 1.656 4 l 0 4.281 l 3.03 3.03 l 1.656 4 l 4 1.656 l 3.03 3.03 l 4.281 0 l 4 1.656 l 4 -1.656 l 4.281 0 l 3.03 -3.03 l 4 -1.656 l 1.656 -4 l 3.03 -3.03 l 0 -4.281 l 1.656 -4 l -1.656 -4 l 0 -4.281 l -3.03 -3.03 l -1.656 -4 l -4 -1.656 l -3.03 -3.03 l -4.281 0 l -4 -1.656 z"/></clipPath><clipPath id="clipPath-423367621"><path d="m 24 2.344 l -4 1.656 l -4.281 0 l -3.03 3.03 l -4 1.656 l -1.656 4 l -3.03 3.03 l 0 4.281 l -1.656 4 l 1.656 4 l 0 4.281 l 3.03 3.03 l 1.656 4 l 4 1.656 l 3.03 3.03 l 4.281 0 l 4 1.656 l 4 -1.656 l 4.281 0 l 3.03 -3.03 l 4 -1.656 l 1.656 -4 l 3.03 -3.03 l 0 -4.281 l 1.656 -4 l -1.656 -4 l 0 -4.281 l -3.03 -3.03 l -1.656 -4 l -4 -1.656 l -3.03 -3.03 l -4.281 0 l -4 -1.656 z"/></clipPath><linearGradient id="linearGradient4317"><stop stop-color="#fff" stop-opacity="1"/><stop offset="1" stop-color="#fff" stop-opacity="0"/></linearGradient><clipPath clipPathUnits="userSpaceOnUse" id="clipPath4313"><path d="m 20 4 -7.313 3.03 -5.656 5.656 -3.03 7.313 0 8 3.03 7.313 5.656 5.656 7.313 3.03 8 0 7.313 -3.03 5.656 -5.656 3.03 -7.313 0 -8 -3.03 -7.313 -5.656 -5.656 -7.313 -3.03 -8 0 z"/></clipPath><linearGradient x2="44" x1="4" gradientUnits="userSpaceOnUse" id="linearGradient4375" xlink:href="#linearGradient4317"/><clipPath clipPathUnits="userSpaceOnUse" id="clipPath4329"><path d="m 24 2.344 -4 1.656 -4.281 0 -3.03 3.03 l -4 1.656 -1.656 4 l -3.03 3.03 0 4.281 -1.656 4 1.656 4 l 0 4.281 3.03 3.03 1.656 4 4 1.656 l 3.03 3.03 4.281 0 4 1.656 4 -1.656 l 4.281 0 3.03 -3.03 4 -1.656 1.656 -4 l 3.03 -3.03 0 -4.281 1.656 -4 -1.656 -4 l 0 -4.281 -3.03 -3.03 -1.656 -4 -4 -1.656 l -3.03 -3.03 -4.281 0 -4 -1.656 z"/></clipPath><path id="SVGCleanerId_0" d="m 24 2.344 l -4 1.656 l -4.281 0 l -3.03 3.03 l -4 1.656 l -1.656 4 l -3.03 3.03 l 0 4.281 l -1.656 4 l 1.656 4 l 0 4.281 l 3.03 3.03 l 1.656 4 l 4 1.656 l 3.03 3.03 l 4.281 0 l 4 1.656 l 4 -1.656 l 4.281 0 l 3.03 -3.03 l 4 -1.656 l 1.656 -4 l 3.03 -3.03 l 0 -4.281 l 1.656 -4 l -1.656 -4 l 0 -4.281 l -3.03 -3.03 l -1.656 -4 l -4 -1.656 l -3.03 -3.03 l -4.281 0 l -4 -1.656 z" visibility="visible" display="inline" fill-rule="nonzero" color="#000" fill-opacity="1"/></defs><g><path d="m 2.563 24.5 l -0.219 0.5 l 1.656 4 l 0 -1 l -1.438 -3.5 z m 42.875 0 l -1.438 3.5 l 0 1 l 1.656 -4 l -0.219 -0.5 z m -41.44 7.781 l 0 1 l 3.03 3.03 l 1.656 4 l 4 1.656 l 3.03 3.03 l 4.281 0 l 4 1.656 l 4 -1.656 l 4.281 0 l 3.03 -3.03 l 4 -1.656 l 1.656 -4 l 3.03 -3.03 l 0 -1 l -3.03 3.03 l -1.656 4 l -4 1.656 l -3.03 3.03 l -4.281 0 l -4 1.656 l -4 -1.656 l -4.281 0 l -3.03 -3.03 l -4 -1.656 l -1.656 -4 l -3.03 -3.03 z" opacity="0.3" visibility="visible" fill="#000" display="inline" fill-rule="nonzero" stroke="none" fill-opacity="1" color="#000"/></g><g><use fill="#3993b1" stroke="none" xlink:href="#SVGCleanerId_0"/><path d="m 24 2.344 l -4 1.656 l 8 0 l -4 -1.656 z m 4 1.656 l 7.313 3.03 l -3.03 -3.03 l -4.281 0 z m 7.313 3.03 l 5.656 5.656 l -1.656 -4 l -4 -1.656 z m 5.656 5.656 l 3.03 7.313 l 0 -4.281 l -3.03 -3.03 z m 3.03 7.313 l 0 8 l 1.656 -4 l -1.656 -4 z m 0 8 l -3.03 7.313 l 3.03 -3.03 l 0 -4.281 z m -3.03 7.313 l -5.656 5.656 l 4 -1.656 l 1.656 -4 z m -5.656 5.656 l -7.313 3.03 l 4.281 0 l 3.03 -3.03 z m -7.313 3.03 l -8 0 l 4 1.656 l 4 -1.656 z m -8 0 l -7.313 -3.03 l 3.03 3.03 l 4.281 0 z m -7.313 -3.03 l -5.656 -5.656 l 1.656 4 l 4 1.656 z m -5.656 -5.656 l -3.03 -7.313 l 0 4.281 l 3.03 3.03 z m -3.03 -7.313 l 0 -8 l -1.656 4 l 1.656 4 z m 0 -8 l 3.03 -7.313 l -3.03 3.03 l 0 4.281 z m 3.03 -7.313 l 5.656 -5.656 l -4 1.656 l -1.656 4 z m 5.656 -5.656 l 7.313 -3.03 l -4.281 0 l -3.03 3.03 z" opacity="0.05" visibility="visible" fill="#3993b1" display="inline" fill-rule="nonzero" stroke="none" fill-opacity="1" color="#000"/></g><g><use opacity="0.05" stroke-opacity="1" stroke-dasharray="none" fill="#000" stroke="#000" stroke-width="2" stroke-miterlimit="4" xlink:href="#SVGCleanerId_0"/><use opacity="0.1" stroke-opacity="1" stroke-dasharray="none" fill="#000" stroke="#000" stroke-width="1" stroke-miterlimit="4" xlink:href="#SVGCleanerId_0"/></g><g><g clip-path="url(#clipPath-417647361)"><g transform="translate(0,1)"><g opacity="0.1"><!-- color: #3993b1 --><g><path d="m 27 12 c -3.059 0 -5.676 1.844 -6.844 4.469 c -0.461 -0.289 -0.977 -0.469 -1.563 -0.469 c -1.656 0 -3 1.344 -3 3 c 0 0.5 0.125 0.961 0.344 1.375 c -2.297 0.84 -3.938 3.035 -3.938 5.625 c 0 3.313 2.688 6 6 6 l 1 0 l 0 4 l 4 -4 l 8 0 c 2.762 0 5 -2.238 5 -5 c 0 -1.75 -0.918 -3.293 -2.281 -4.188 c 0.496 -1 0.781 -2.117 0.781 -3.313 c 0 -4.141 -3.359 -7.5 -7.5 -7.5 m -6.844 8 c 0.176 0 0.453 -0.012 0.844 0 l 0.875 0 l 2.125 4.594 l 2.094 -4.594 l 1.688 0 c 0.34 0 0.586 0.063 0.719 0.156 c 0.207 0.176 0.313 0.379 0.313 0.625 c 0 0.461 -0.277 0.73 -0.813 0.781 l 0 5.906 c 0.625 0 0.938 0.227 0.938 0.75 c 0 0.27 -0.129 0.52 -0.375 0.688 c -0.125 0.07 -0.316 0.094 -0.625 0.094 l -2 0 c -0.68 0 -1.031 -0.266 -1.031 -0.781 c 0 -0.297 0.129 -0.512 0.375 -0.656 c 0.113 -0.07 0.336 -0.094 0.656 -0.094 l 0.531 0 l 0 -4.469 l -1.719 3.875 l -1.406 0 l -1.813 -3.875 l 0 4.469 l 0.531 0 c 0.328 0 0.574 0.031 0.719 0.125 c 0.207 0.152 0.313 0.359 0.313 0.625 c 0 0.277 -0.129 0.523 -0.375 0.688 c -0.125 0.07 -0.348 0.094 -0.656 0.094 l -1.969 0 c -0.34 0 -0.586 -0.055 -0.719 -0.156 c -0.215 -0.152 -0.313 -0.367 -0.313 -0.625 c 0 -0.516 0.313 -0.75 0.938 -0.75 l 0 -5.906 c -0.535 -0.051 -0.813 -0.309 -0.813 -0.781 c 0 -0.277 0.129 -0.523 0.375 -0.688 c 0.125 -0.07 0.328 -0.094 0.594 -0.094 m 0 0" fill="#000" stroke="none" fill-rule="nonzero" fill-opacity="1"/></g></g></g></g></g><g><g clip-path="url(#clipPath-423367621)"><!-- color: #3993b1 --><g><path d="m 27 12 c -3.059 0 -5.676 1.844 -6.844 4.469 c -0.461 -0.289 -0.977 -0.469 -1.563 -0.469 c -1.656 0 -3 1.344 -3 3 c 0 0.5 0.125 0.961 0.344 1.375 c -2.297 0.84 -3.938 3.035 -3.938 5.625 c 0 3.313 2.688 6 6 6 l 1 0 l 0 4 l 4 -4 l 8 0 c 2.762 0 5 -2.238 5 -5 c 0 -1.75 -0.918 -3.293 -2.281 -4.188 c 0.496 -1 0.781 -2.117 0.781 -3.313 c 0 -4.141 -3.359 -7.5 -7.5 -7.5 m -6.844 8 c 0.176 0 0.453 -0.012 0.844 0 l 0.875 0 l 2.125 4.594 l 2.094 -4.594 l 1.688 0 c 0.34 0 0.586 0.063 0.719 0.156 c 0.207 0.176 0.313 0.379 0.313 0.625 c 0 0.461 -0.277 0.73 -0.813 0.781 l 0 5.906 c 0.625 0 0.938 0.227 0.938 0.75 c 0 0.27 -0.129 0.52 -0.375 0.688 c -0.125 0.07 -0.316 0.094 -0.625 0.094 l -2 0 c -0.68 0 -1.031 -0.266 -1.031 -0.781 c 0 -0.297 0.129 -0.512 0.375 -0.656 c 0.113 -0.07 0.336 -0.094 0.656 -0.094 l 0.531 0 l 0 -4.469 l -1.719 3.875 l -1.406 0 l -1.813 -3.875 l 0 4.469 l 0.531 0 c 0.328 0 0.574 0.031 0.719 0.125 c 0.207 0.152 0.313 0.359 0.313 0.625 c 0 0.277 -0.129 0.523 -0.375 0.688 c -0.125 0.07 -0.348 0.094 -0.656 0.094 l -1.969 0 c -0.34 0 -0.586 -0.055 -0.719 -0.156 c -0.215 -0.152 -0.313 -0.367 -0.313 -0.625 c 0 -0.516 0.313 -0.75 0.938 -0.75 l 0 -5.906 c -0.535 -0.051 -0.813 -0.309 -0.813 -0.781 c 0 -0.277 0.129 -0.523 0.375 -0.688 c 0.125 -0.07 0.328 -0.094 0.594 -0.094 m 0 0" fill="#f9f9f9" stroke="none" fill-rule="nonzero" fill-opacity="1"/></g></g></g><g><path d="m 20 4 -7.313 3.03 -5.656 5.656 -3.03 7.313 0 8 3.03 7.313 5.656 5.656 7.313 3.03 8 0 7.313 -3.03 5.656 -5.656 3.03 -7.313 0 -8 -3.03 -7.313 -5.656 -5.656 -7.313 -3.03 -8 0 z" clip-path="url(#clipPath4313)" transform="matrix(0,1,-1,0,48,0)" opacity="0.3" stroke-opacity="1" stroke-dasharray="none" visibility="visible" fill="none" display="inline" stroke="url(#linearGradient4375)" color="#000" stroke-width="1" stroke-miterlimit="4"/><path d="m 24 2.344 -4 1.656 -4.281 0 -3.03 3.03 l -4 1.656 -1.656 4 l -3.03 3.03 0 4.281 -1.656 4 1.656 4 l 0 4.281 3.03 3.03 1.656 4 4 1.656 l 3.03 3.03 4.281 0 4 1.656 4 -1.656 l 4.281 0 3.03 -3.03 4 -1.656 1.656 -4 l 3.03 -3.03 0 -4.281 1.656 -4 -1.656 -4 l 0 -4.281 -3.03 -3.03 -1.656 -4 -4 -1.656 l -3.03 -3.03 -4.281 0 -4 -1.656 z" clip-path="url(#clipPath4329)" opacity="0.2" stroke-opacity="1" visibility="visible" fill="none" display="inline" stroke="#000" color="#000" stroke-width="2"/></g></svg>