<svg viewBox="0 0 48 48" xmlns:xlink="http://www.w3.org/1999/xlink"><defs><clipPath clipPathUnits="userSpaceOnUse" id="clipPath4313"><path d="m 20 4 -7.313 3.03 -5.656 5.656 -3.03 7.313 0 8 3.03 7.313 5.656 5.656 7.313 3.03 8 0 7.313 -3.03 5.656 -5.656 3.03 -7.313 0 -8 -3.03 -7.313 -5.656 -5.656 -7.313 -3.03 -8 0 z"/></clipPath><clipPath clipPathUnits="userSpaceOnUse" id="clipPath4329"><path d="m 24 2.344 -4 1.656 -4.281 0 -3.03 3.03 l -4 1.656 -1.656 4 l -3.03 3.03 0 4.281 -1.656 4 1.656 4 l 0 4.281 3.03 3.03 1.656 4 4 1.656 l 3.03 3.03 4.281 0 4 1.656 4 -1.656 l 4.281 0 3.03 -3.03 4 -1.656 1.656 -4 l 3.03 -3.03 0 -4.281 1.656 -4 -1.656 -4 l 0 -4.281 -3.03 -3.03 -1.656 -4 -4 -1.656 l -3.03 -3.03 -4.281 0 -4 -1.656 z"/></clipPath><clipPath id="clipPath-741481302"><path d="m 24 2.344 l -4 1.656 l -4.281 0 l -3.03 3.03 l -4 1.656 l -1.656 4 l -3.03 3.03 l 0 4.281 l -1.656 4 l 1.656 4 l 0 4.281 l 3.03 3.03 l 1.656 4 l 4 1.656 l 3.03 3.03 l 4.281 0 l 4 1.656 l 4 -1.656 l 4.281 0 l 3.03 -3.03 l 4 -1.656 l 1.656 -4 l 3.03 -3.03 l 0 -4.281 l 1.656 -4 l -1.656 -4 l 0 -4.281 l -3.03 -3.03 l -1.656 -4 l -4 -1.656 l -3.03 -3.03 l -4.281 0 l -4 -1.656 z"/></clipPath><clipPath id="clipPath-754094191"><path d="m 24 2.344 l -4 1.656 l -4.281 0 l -3.03 3.03 l -4 1.656 l -1.656 4 l -3.03 3.03 l 0 4.281 l -1.656 4 l 1.656 4 l 0 4.281 l 3.03 3.03 l 1.656 4 l 4 1.656 l 3.03 3.03 l 4.281 0 l 4 1.656 l 4 -1.656 l 4.281 0 l 3.03 -3.03 l 4 -1.656 l 1.656 -4 l 3.03 -3.03 l 0 -4.281 l 1.656 -4 l -1.656 -4 l 0 -4.281 l -3.03 -3.03 l -1.656 -4 l -4 -1.656 l -3.03 -3.03 l -4.281 0 l -4 -1.656 z"/></clipPath><linearGradient id="linearGradient4317"><stop stop-color="#fff" stop-opacity="1"/><stop offset="1" stop-color="#fff" stop-opacity="0"/></linearGradient><clipPath clipPathUnits="userSpaceOnUse" id="clipPath4313"><path d="m 20 4 -7.313 3.03 -5.656 5.656 -3.03 7.313 0 8 3.03 7.313 5.656 5.656 7.313 3.03 8 0 7.313 -3.03 5.656 -5.656 3.03 -7.313 0 -8 -3.03 -7.313 -5.656 -5.656 -7.313 -3.03 -8 0 z"/></clipPath><linearGradient x2="44" x1="4" gradientUnits="userSpaceOnUse" id="linearGradient4375" xlink:href="#linearGradient4317"/><clipPath clipPathUnits="userSpaceOnUse" id="clipPath4329"><path d="m 24 2.344 -4 1.656 -4.281 0 -3.03 3.03 l -4 1.656 -1.656 4 l -3.03 3.03 0 4.281 -1.656 4 1.656 4 l 0 4.281 3.03 3.03 1.656 4 4 1.656 l 3.03 3.03 4.281 0 4 1.656 4 -1.656 l 4.281 0 3.03 -3.03 4 -1.656 1.656 -4 l 3.03 -3.03 0 -4.281 1.656 -4 -1.656 -4 l 0 -4.281 -3.03 -3.03 -1.656 -4 -4 -1.656 l -3.03 -3.03 -4.281 0 -4 -1.656 z"/></clipPath><path id="SVGCleanerId_0" d="m 24 2.344 l -4 1.656 l -4.281 0 l -3.03 3.03 l -4 1.656 l -1.656 4 l -3.03 3.03 l 0 4.281 l -1.656 4 l 1.656 4 l 0 4.281 l 3.03 3.03 l 1.656 4 l 4 1.656 l 3.03 3.03 l 4.281 0 l 4 1.656 l 4 -1.656 l 4.281 0 l 3.03 -3.03 l 4 -1.656 l 1.656 -4 l 3.03 -3.03 l 0 -4.281 l 1.656 -4 l -1.656 -4 l 0 -4.281 l -3.03 -3.03 l -1.656 -4 l -4 -1.656 l -3.03 -3.03 l -4.281 0 l -4 -1.656 z" visibility="visible" display="inline" fill-rule="nonzero" color="#000" fill-opacity="1"/></defs><g><path d="m 2.563 24.5 l -0.219 0.5 l 1.656 4 l 0 -1 l -1.438 -3.5 z m 42.875 0 l -1.438 3.5 l 0 1 l 1.656 -4 l -0.219 -0.5 z m -41.44 7.781 l 0 1 l 3.03 3.03 l 1.656 4 l 4 1.656 l 3.03 3.03 l 4.281 0 l 4 1.656 l 4 -1.656 l 4.281 0 l 3.03 -3.03 l 4 -1.656 l 1.656 -4 l 3.03 -3.03 l 0 -1 l -3.03 3.03 l -1.656 4 l -4 1.656 l -3.03 3.03 l -4.281 0 l -4 1.656 l -4 -1.656 l -4.281 0 l -3.03 -3.03 l -4 -1.656 l -1.656 -4 l -3.03 -3.03 z" opacity="0.3" visibility="visible" fill="#000" display="inline" fill-rule="nonzero" stroke="none" fill-opacity="1" color="#000"/></g><g><use fill="#e57e29" stroke="none" xlink:href="#SVGCleanerId_0"/><path d="m 24 2.344 l -4 1.656 l 8 0 l -4 -1.656 z m 4 1.656 l 7.313 3.03 l -3.03 -3.03 l -4.281 0 z m 7.313 3.03 l 5.656 5.656 l -1.656 -4 l -4 -1.656 z m 5.656 5.656 l 3.03 7.313 l 0 -4.281 l -3.03 -3.03 z m 3.03 7.313 l 0 8 l 1.656 -4 l -1.656 -4 z m 0 8 l -3.03 7.313 l 3.03 -3.03 l 0 -4.281 z m -3.03 7.313 l -5.656 5.656 l 4 -1.656 l 1.656 -4 z m -5.656 5.656 l -7.313 3.03 l 4.281 0 l 3.03 -3.03 z m -7.313 3.03 l -8 0 l 4 1.656 l 4 -1.656 z m -8 0 l -7.313 -3.03 l 3.03 3.03 l 4.281 0 z m -7.313 -3.03 l -5.656 -5.656 l 1.656 4 l 4 1.656 z m -5.656 -5.656 l -3.03 -7.313 l 0 4.281 l 3.03 3.03 z m -3.03 -7.313 l 0 -8 l -1.656 4 l 1.656 4 z m 0 -8 l 3.03 -7.313 l -3.03 3.03 l 0 4.281 z m 3.03 -7.313 l 5.656 -5.656 l -4 1.656 l -1.656 4 z m 5.656 -5.656 l 7.313 -3.03 l -4.281 0 l -3.03 3.03 z" opacity="0.05" visibility="visible" fill="#e57e29" display="inline" fill-rule="nonzero" stroke="none" fill-opacity="1" color="#000"/></g><g><use opacity="0.05" stroke-opacity="1" stroke-dasharray="none" fill="#000" stroke="#000" stroke-width="2" stroke-miterlimit="4" xlink:href="#SVGCleanerId_0"/><use opacity="0.1" stroke-opacity="1" stroke-dasharray="none" fill="#000" stroke="#000" stroke-width="1" stroke-miterlimit="4" xlink:href="#SVGCleanerId_0"/></g><g><g clip-path="url(#clipPath-741481302)"><g transform="translate(0,1)"><g opacity="0.1"><!-- color: #e57e29 --><g><path d="m 17.438 7.625 c -4.723 0 -9.102 1.43 -12.75 3.844 c -1.453 2.238 -2.488 4.746 -3.094 7.438 c 2.094 -2.492 3.926 -4.27 5.781 -5.5 c 3.625 9.879 3.813 9.918 1.125 -0.656 c 2.656 -1.465 5.406 -1.945 8.938 -1.969 c 0.309 -0.004 0.598 0.02 0.906 0.031 c -0.043 5.508 -0.902 16.859 -3.969 21 c -4.434 -11.41 -3.895 -9.379 -0.906 0.344 c -0.211 0.105 -0.41 0.262 -0.625 0.438 l -1.375 -1.031 l 0.688 1.969 c -2.93 0.445 -5.84 -0.289 -8.75 0.781 c 0.387 0.773 0.785 1.5 1.25 2.219 c 2.758 -0.625 4.766 -2.961 7.531 -1.398 c 0.043 0.215 0.156 0.406 0.25 0.594 l -6.438 2.594 c 0.152 0.191 0.281 0.379 0.438 0.563 c 2.176 -1.027 4.402 -1.434 6.438 -2.531 c 0.203 0.18 0.469 0.309 0.75 0.406 l -3.906 5.281 c 0.223 0.176 0.461 0.363 0.688 0.531 c 1.406 -1.75 2.066 -3.746 3.875 -5.688 c 0.238 0.02 0.508 0.059 0.781 0.023 c -0.348 2.84 -0.102 5.773 0.594 8.531 c 0.902 0.352 1.855 0.641 2.816 0.875 c -0.711 -3.223 -2.645 -6.207 -2.469 -9.594 c 0.887 0.34 1.352 0.781 2.344 1.469 c -0.445 -0.668 -0.992 -1.102 -1.375 -1.938 c 0.086 -0.141 0.168 -0.281 0.219 -0.438 c 4.555 1.734 8.816 2.223 13.441 5 l 2.527 1.875 c -1.031 1.508 -2.352 2.805 -4.03 3.75 c 2.719 -0.617 5.246 -1.707 7.5 -3.188 c 2.434 -3.645 3.875 -8.02 3.875 -12.688 c 0 -12.594 -10.281 -22.938 -23.06 -22.938 m 3.781 3.531 c 7.625 1.5 14.277 7.484 15.719 14.5 l -0.344 0.438 c -0.641 1.109 -6.66 3.03 -8.844 3.719 c -4.168 0.891 -7.152 3.01 -11.156 3.156 c -0.246 -0.324 -0.531 -0.617 -0.875 -0.813 c 2.434 -4.328 1.633 -15.895 5.5 -21 m 15.13 16.438 l 0.906 0.875 c 0 0.699 -0.074 1.387 -0.191 2.094 c -0.594 3.742 -1.344 7.441 -2.902 10.469 l -3.316 -1.094 c -3.777 -1.84 -9.441 -3.035 -13.469 -5.688 c 5.773 -3.316 12.633 -4.652 18.969 -6.656 m -14.719 16.16 c 0.457 1.328 1.582 2.215 2.402 3.25 c 0.375 0 0.758 -0.012 1.125 -0.031 c -1.32 -1.07 -2.43 -2 -3.527 -3.219 m 0 0" fill="#000" stroke="none" fill-rule="nonzero" fill-opacity="1"/></g></g></g></g></g><g><g clip-path="url(#clipPath-754094191)"><!-- color: #e57e29 --><g><path d="m 17.438 7.625 c -4.723 0 -9.102 1.43 -12.75 3.844 c -1.453 2.238 -2.488 4.746 -3.094 7.438 c 2.094 -2.492 3.926 -4.27 5.781 -5.5 c 3.625 9.879 3.813 9.918 1.125 -0.656 c 2.656 -1.465 5.406 -1.945 8.938 -1.969 c 0.309 -0.004 0.598 0.02 0.906 0.031 c -0.043 5.508 -0.902 16.859 -3.969 21 c -4.434 -11.41 -3.895 -9.379 -0.906 0.344 c -0.211 0.105 -0.41 0.262 -0.625 0.438 l -1.375 -1.031 l 0.688 1.969 c -2.93 0.445 -5.84 -0.289 -8.75 0.781 c 0.387 0.773 0.785 1.5 1.25 2.219 c 2.758 -0.625 4.766 -2.961 7.531 -1.398 c 0.043 0.215 0.156 0.406 0.25 0.594 l -6.438 2.594 c 0.152 0.191 0.281 0.379 0.438 0.563 c 2.176 -1.027 4.402 -1.434 6.438 -2.531 c 0.203 0.18 0.469 0.309 0.75 0.406 l -3.906 5.281 c 0.223 0.176 0.461 0.363 0.688 0.531 c 1.406 -1.75 2.066 -3.746 3.875 -5.688 c 0.238 0.02 0.508 0.059 0.781 0.023 c -0.348 2.84 -0.102 5.773 0.594 8.531 c 0.902 0.352 1.855 0.641 2.816 0.875 c -0.711 -3.223 -2.645 -6.207 -2.469 -9.594 c 0.887 0.34 1.352 0.781 2.344 1.469 c -0.445 -0.668 -0.992 -1.102 -1.375 -1.938 c 0.086 -0.141 0.168 -0.281 0.219 -0.438 c 4.555 1.734 8.816 2.223 13.441 5 l 2.527 1.875 c -1.031 1.508 -2.352 2.805 -4.03 3.75 c 2.719 -0.617 5.246 -1.707 7.5 -3.188 c 2.434 -3.645 3.875 -8.02 3.875 -12.688 c 0 -12.594 -10.281 -22.938 -23.06 -22.938 m 3.781 3.531 c 7.625 1.5 14.277 7.484 15.719 14.5 l -0.344 0.438 c -0.641 1.109 -6.66 3.03 -8.844 3.719 c -4.168 0.891 -7.152 3.01 -11.156 3.156 c -0.246 -0.324 -0.531 -0.617 -0.875 -0.813 c 2.434 -4.328 1.633 -15.895 5.5 -21 m 15.13 16.438 l 0.906 0.875 c 0 0.699 -0.074 1.387 -0.191 2.094 c -0.594 3.742 -1.344 7.441 -2.902 10.469 l -3.316 -1.094 c -3.777 -1.84 -9.441 -3.035 -13.469 -5.688 c 5.773 -3.316 12.633 -4.652 18.969 -6.656 m -14.719 16.16 c 0.457 1.328 1.582 2.215 2.402 3.25 c 0.375 0 0.758 -0.012 1.125 -0.031 c -1.32 -1.07 -2.43 -2 -3.527 -3.219 m 0 0" fill="#f9f9f9" stroke="none" fill-rule="nonzero" fill-opacity="1"/></g></g></g><g><path d="m 20 4 -7.313 3.03 -5.656 5.656 -3.03 7.313 0 8 3.03 7.313 5.656 5.656 7.313 3.03 8 0 7.313 -3.03 5.656 -5.656 3.03 -7.313 0 -8 -3.03 -7.313 -5.656 -5.656 -7.313 -3.03 -8 0 z" clip-path="url(#clipPath4313)" transform="matrix(0,1,-1,0,48,0)" opacity="0.3" stroke-opacity="1" stroke-dasharray="none" visibility="visible" fill="none" display="inline" stroke="url(#linearGradient4375)" color="#000" stroke-width="1" stroke-miterlimit="4"/><path d="m 24 2.344 -4 1.656 -4.281 0 -3.03 3.03 l -4 1.656 -1.656 4 l -3.03 3.03 0 4.281 -1.656 4 1.656 4 l 0 4.281 3.03 3.03 1.656 4 4 1.656 l 3.03 3.03 4.281 0 4 1.656 4 -1.656 l 4.281 0 3.03 -3.03 4 -1.656 1.656 -4 l 3.03 -3.03 0 -4.281 1.656 -4 -1.656 -4 l 0 -4.281 -3.03 -3.03 -1.656 -4 -4 -1.656 l -3.03 -3.03 -4.281 0 -4 -1.656 z" clip-path="url(#clipPath4329)" opacity="0.2" stroke-opacity="1" visibility="visible" fill="none" display="inline" stroke="#000" color="#000" stroke-width="2"/></g></svg>