<svg viewBox="0 0 48 48" xmlns:xlink="http://www.w3.org/1999/xlink"><defs><clipPath clipPathUnits="userSpaceOnUse" id="clipPath4313"><path d="m 20 4 -7.313 3.03 -5.656 5.656 -3.03 7.313 0 8 3.03 7.313 5.656 5.656 7.313 3.03 8 0 7.313 -3.03 5.656 -5.656 3.03 -7.313 0 -8 -3.03 -7.313 -5.656 -5.656 -7.313 -3.03 -8 0 z"/></clipPath><clipPath clipPathUnits="userSpaceOnUse" id="clipPath4329"><path d="m 24 2.344 -4 1.656 -4.281 0 -3.03 3.03 l -4 1.656 -1.656 4 l -3.03 3.03 0 4.281 -1.656 4 1.656 4 l 0 4.281 3.03 3.03 1.656 4 4 1.656 l 3.03 3.03 4.281 0 4 1.656 4 -1.656 l 4.281 0 3.03 -3.03 4 -1.656 1.656 -4 l 3.03 -3.03 0 -4.281 1.656 -4 -1.656 -4 l 0 -4.281 -3.03 -3.03 -1.656 -4 -4 -1.656 l -3.03 -3.03 -4.281 0 -4 -1.656 z"/></clipPath><clipPath id="clipPath-164333238"><path d="m 24 2.344 l -4 1.656 l -4.281 0 l -3.03 3.03 l -4 1.656 l -1.656 4 l -3.03 3.03 l 0 4.281 l -1.656 4 l 1.656 4 l 0 4.281 l 3.03 3.03 l 1.656 4 l 4 1.656 l 3.03 3.03 l 4.281 0 l 4 1.656 l 4 -1.656 l 4.281 0 l 3.03 -3.03 l 4 -1.656 l 1.656 -4 l 3.03 -3.03 l 0 -4.281 l 1.656 -4 l -1.656 -4 l 0 -4.281 l -3.03 -3.03 l -1.656 -4 l -4 -1.656 l -3.03 -3.03 l -4.281 0 l -4 -1.656 z"/></clipPath><clipPath id="clipPath-173350146"><path d="m 24 2.344 l -4 1.656 l -4.281 0 l -3.03 3.03 l -4 1.656 l -1.656 4 l -3.03 3.03 l 0 4.281 l -1.656 4 l 1.656 4 l 0 4.281 l 3.03 3.03 l 1.656 4 l 4 1.656 l 3.03 3.03 l 4.281 0 l 4 1.656 l 4 -1.656 l 4.281 0 l 3.03 -3.03 l 4 -1.656 l 1.656 -4 l 3.03 -3.03 l 0 -4.281 l 1.656 -4 l -1.656 -4 l 0 -4.281 l -3.03 -3.03 l -1.656 -4 l -4 -1.656 l -3.03 -3.03 l -4.281 0 l -4 -1.656 z"/></clipPath><linearGradient id="linearGradient4317"><stop stop-color="#fff" stop-opacity="1"/><stop offset="1" stop-color="#fff" stop-opacity="0"/></linearGradient><clipPath clipPathUnits="userSpaceOnUse" id="clipPath4313"><path d="m 20 4 -7.313 3.03 -5.656 5.656 -3.03 7.313 0 8 3.03 7.313 5.656 5.656 7.313 3.03 8 0 7.313 -3.03 5.656 -5.656 3.03 -7.313 0 -8 -3.03 -7.313 -5.656 -5.656 -7.313 -3.03 -8 0 z"/></clipPath><linearGradient x2="44" x1="4" gradientUnits="userSpaceOnUse" id="linearGradient4375" xlink:href="#linearGradient4317"/><clipPath clipPathUnits="userSpaceOnUse" id="clipPath4329"><path d="m 24 2.344 -4 1.656 -4.281 0 -3.03 3.03 l -4 1.656 -1.656 4 l -3.03 3.03 0 4.281 -1.656 4 1.656 4 l 0 4.281 3.03 3.03 1.656 4 4 1.656 l 3.03 3.03 4.281 0 4 1.656 4 -1.656 l 4.281 0 3.03 -3.03 4 -1.656 1.656 -4 l 3.03 -3.03 0 -4.281 1.656 -4 -1.656 -4 l 0 -4.281 -3.03 -3.03 -1.656 -4 -4 -1.656 l -3.03 -3.03 -4.281 0 -4 -1.656 z"/></clipPath><path id="SVGCleanerId_0" d="m 24 2.344 l -4 1.656 l -4.281 0 l -3.03 3.03 l -4 1.656 l -1.656 4 l -3.03 3.03 l 0 4.281 l -1.656 4 l 1.656 4 l 0 4.281 l 3.03 3.03 l 1.656 4 l 4 1.656 l 3.03 3.03 l 4.281 0 l 4 1.656 l 4 -1.656 l 4.281 0 l 3.03 -3.03 l 4 -1.656 l 1.656 -4 l 3.03 -3.03 l 0 -4.281 l 1.656 -4 l -1.656 -4 l 0 -4.281 l -3.03 -3.03 l -1.656 -4 l -4 -1.656 l -3.03 -3.03 l -4.281 0 l -4 -1.656 z" visibility="visible" display="inline" fill-rule="nonzero" color="#000" fill-opacity="1"/><path id="SVGCleanerId_1" d="m 6.507 9.61 l 0.537 0 l 0 0.535 l -0.537 0 m 0 -0.535" stroke-opacity="1" stroke-width="0.594" stroke-linejoin="miter" stroke-miterlimit="5.8" stroke-linecap="butt"/><path id="SVGCleanerId_2" d="m 6.506 9.61 l 0.535 0 l 0 0.535 l -0.535 0 m 0 -0.535" stroke-opacity="1" stroke-width="0.594" stroke="#f9f9f9" stroke-linejoin="miter" stroke-miterlimit="5.8" stroke-linecap="butt"/><path id="SVGCleanerId_3" d="m 6.507 3.401 l 0.537 0 l 0 0.535 l -0.537 0 m 0 -0.535" stroke-opacity="1" stroke-width="0.594" stroke-linejoin="miter" stroke-miterlimit="5.8" stroke-linecap="butt"/><path id="SVGCleanerId_4" d="m 6.506 3.4 l 0.536 0.001 l 0 0.535 l -0.536 0.001 m 0 -0.536" stroke-opacity="1" stroke-width="0.594" stroke="#f9f9f9" stroke-linejoin="miter" stroke-miterlimit="5.8" stroke-linecap="butt"/></defs><g><path d="m 2.563 24.5 l -0.219 0.5 l 1.656 4 l 0 -1 l -1.438 -3.5 z m 42.875 0 l -1.438 3.5 l 0 1 l 1.656 -4 l -0.219 -0.5 z m -41.44 7.781 l 0 1 l 3.03 3.03 l 1.656 4 l 4 1.656 l 3.03 3.03 l 4.281 0 l 4 1.656 l 4 -1.656 l 4.281 0 l 3.03 -3.03 l 4 -1.656 l 1.656 -4 l 3.03 -3.03 l 0 -1 l -3.03 3.03 l -1.656 4 l -4 1.656 l -3.03 3.03 l -4.281 0 l -4 1.656 l -4 -1.656 l -4.281 0 l -3.03 -3.03 l -4 -1.656 l -1.656 -4 l -3.03 -3.03 z" opacity="0.3" visibility="visible" fill="#000" display="inline" fill-rule="nonzero" stroke="none" fill-opacity="1" color="#000"/></g><g><use fill="#8b5371" stroke="none" xlink:href="#SVGCleanerId_0"/><path d="m 24 2.344 l -4 1.656 l 8 0 l -4 -1.656 z m 4 1.656 l 7.313 3.03 l -3.03 -3.03 l -4.281 0 z m 7.313 3.03 l 5.656 5.656 l -1.656 -4 l -4 -1.656 z m 5.656 5.656 l 3.03 7.313 l 0 -4.281 l -3.03 -3.03 z m 3.03 7.313 l 0 8 l 1.656 -4 l -1.656 -4 z m 0 8 l -3.03 7.313 l 3.03 -3.03 l 0 -4.281 z m -3.03 7.313 l -5.656 5.656 l 4 -1.656 l 1.656 -4 z m -5.656 5.656 l -7.313 3.03 l 4.281 0 l 3.03 -3.03 z m -7.313 3.03 l -8 0 l 4 1.656 l 4 -1.656 z m -8 0 l -7.313 -3.03 l 3.03 3.03 l 4.281 0 z m -7.313 -3.03 l -5.656 -5.656 l 1.656 4 l 4 1.656 z m -5.656 -5.656 l -3.03 -7.313 l 0 4.281 l 3.03 3.03 z m -3.03 -7.313 l 0 -8 l -1.656 4 l 1.656 4 z m 0 -8 l 3.03 -7.313 l -3.03 3.03 l 0 4.281 z m 3.03 -7.313 l 5.656 -5.656 l -4 1.656 l -1.656 4 z m 5.656 -5.656 l 7.313 -3.03 l -4.281 0 l -3.03 3.03 z" opacity="0.05" visibility="visible" fill="#8b5371" display="inline" fill-rule="nonzero" stroke="none" fill-opacity="1" color="#000"/></g><g><use opacity="0.05" stroke-opacity="1" stroke-dasharray="none" fill="#000" stroke="#000" stroke-width="2" stroke-miterlimit="4" xlink:href="#SVGCleanerId_0"/><use opacity="0.1" stroke-opacity="1" stroke-dasharray="none" fill="#000" stroke="#000" stroke-width="1" stroke-miterlimit="4" xlink:href="#SVGCleanerId_0"/></g><g><g clip-path="url(#clipPath-164333238)"><g transform="translate(0,1)"><g opacity="0.1"><!-- color: #8b5371 --><g><path d="m 35 24.5 c 0 6.905 -5.597 12.502 -12.502 12.502 c -6.905 0 -12.502 -5.597 -12.502 -12.502 c 0 -6.905 5.597 -12.502 12.502 -12.502 c 6.905 0 12.502 5.597 12.502 12.502 m 0 0" transform="matrix(0.758621,0,0,0.758621,6.931034,5.413795)" stroke-opacity="1" fill="#000" stroke="#f9f9f9" stroke-linejoin="round" stroke-linecap="butt" stroke-width="4" stroke-miterlimit="5.8"/><use transform="matrix(3.543307,0,0,3.543307,0,0)" fill="#000" stroke="#fff" xlink:href="#SVGCleanerId_1"/><use transform="matrix(3.543307,0,0,3.543307,0,0)" fill="#000" stroke="#fff" xlink:href="#SVGCleanerId_3"/><use transform="matrix(0.000088201,3.543307,-3.543307,0.000088201,47.999405,-0.000598112)" fill="#000" xlink:href="#SVGCleanerId_2"/><path d="m 6.506 3.401 l 0.538 0 l 0 0.535 l -0.538 0 m 0 -0.535" transform="matrix(0.000088201,3.543307,-3.543307,0.000088201,47.999405,-0.000598112)" stroke-opacity="1" fill="#000" stroke="#f9f9f9" stroke-linejoin="miter" stroke-linecap="butt" stroke-width="0.594" stroke-miterlimit="5.8"/><use transform="matrix(3.543307,0,0,3.543307,0,0)" fill="#000" stroke="#f9f9f9" xlink:href="#SVGCleanerId_1"/><use transform="matrix(3.543307,0,0,3.543307,0,0)" fill="#000" stroke="#f9f9f9" xlink:href="#SVGCleanerId_3"/><use transform="matrix(2.505496,-2.505496,2.505496,2.505496,-9.941126,24.000001)" fill="#000" xlink:href="#SVGCleanerId_2"/><use transform="matrix(2.505496,-2.505496,2.505496,2.505496,-9.941126,24.000001)" fill="#000" xlink:href="#SVGCleanerId_4"/><use transform="matrix(2.505496,2.505496,-2.505496,2.505496,24.000001,-9.941126)" fill="#000" xlink:href="#SVGCleanerId_2"/><use transform="matrix(2.505496,2.505496,-2.505496,2.505496,23.999999,-9.941126)" fill="#000" xlink:href="#SVGCleanerId_4"/><path d="m 27.04 24.02 c 0.148 1.16 -0.387 2.305 -1.375 2.934 c -0.988 0.629 -2.254 0.629 -3.242 0 c -0.992 -0.629 -1.527 -1.773 -1.375 -2.934 c -0.152 -1.164 0.383 -2.305 1.375 -2.934 c 0.988 -0.629 2.254 -0.629 3.242 0 c 0.988 0.629 1.523 1.77 1.375 2.934 m 0 0" fill="#000" stroke="none" fill-rule="nonzero" fill-opacity="1"/></g></g></g></g></g><g><g clip-path="url(#clipPath-173350146)"><!-- color: #8b5371 --><g><path d="m 35 24.5 c 0 6.905 -5.597 12.502 -12.502 12.502 c -6.905 0 -12.502 -5.597 -12.502 -12.502 c 0 -6.905 5.597 -12.502 12.502 -12.502 c 6.905 0 12.502 5.597 12.502 12.502 m 0 0" transform="matrix(0.758621,0,0,0.758621,6.931034,5.413795)" stroke-opacity="1" fill="none" stroke="#f9f9f9" stroke-linejoin="round" stroke-linecap="butt" stroke-width="4" stroke-miterlimit="5.8"/><use transform="matrix(3.543307,0,0,3.543307,0,0)" fill="none" stroke="#fff" xlink:href="#SVGCleanerId_1"/><path d="m 6.507 3.401 l 0.537 0 l 0 0.535 l -0.537 0 m 0 -0.535" transform="matrix(3.543307,0,0,3.543307,0,0)" stroke-opacity="1" fill="none" stroke="#fff" stroke-linejoin="miter" stroke-linecap="butt" stroke-width="0.594" stroke-miterlimit="5.8"/><use transform="matrix(0.000088201,3.543307,-3.543307,0.000088201,47.999405,-0.000598112)" fill="none" xlink:href="#SVGCleanerId_2"/><path d="m 6.506 3.401 l 0.538 0 l 0 0.535 l -0.538 0 m 0 -0.535" transform="matrix(0.000088201,3.543307,-3.543307,0.000088201,47.999405,-0.000598112)" stroke-opacity="1" fill="none" stroke="#f9f9f9" stroke-linejoin="miter" stroke-linecap="butt" stroke-width="0.594" stroke-miterlimit="5.8"/><use transform="matrix(3.543307,0,0,3.543307,0,0)" fill="none" stroke="#f9f9f9" xlink:href="#SVGCleanerId_1"/><use transform="matrix(3.543307,0,0,3.543307,0,0)" fill="none" stroke="#f9f9f9" xlink:href="#SVGCleanerId_3"/><use transform="matrix(2.505496,-2.505496,2.505496,2.505496,-9.941126,24.000001)" fill="none" xlink:href="#SVGCleanerId_2"/><path d="m 6.506 3.4 l 0.536 0.001 l 0 0.535 l -0.536 0.001 m 0 -0.536" transform="matrix(2.505496,-2.505496,2.505496,2.505496,-9.941126,24.000001)" stroke-opacity="1" fill="none" stroke="#f9f9f9" stroke-linejoin="miter" stroke-linecap="butt" stroke-width="0.594" stroke-miterlimit="5.8"/><use transform="matrix(2.505496,2.505496,-2.505496,2.505496,24.000001,-9.941126)" fill="none" xlink:href="#SVGCleanerId_2"/><use transform="matrix(2.505496,2.505496,-2.505496,2.505496,23.999999,-9.941126)" fill="none" xlink:href="#SVGCleanerId_4"/><path d="m 27.04 24.02 c 0.148 1.16 -0.387 2.305 -1.375 2.934 c -0.988 0.629 -2.254 0.629 -3.242 0 c -0.992 -0.629 -1.527 -1.773 -1.375 -2.934 c -0.152 -1.164 0.383 -2.305 1.375 -2.934 c 0.988 -0.629 2.254 -0.629 3.242 0 c 0.988 0.629 1.523 1.77 1.375 2.934 m 0 0" fill="#f9f9f9" stroke="none" fill-rule="nonzero" fill-opacity="1"/></g></g></g><g><path d="m 20 4 -7.313 3.03 -5.656 5.656 -3.03 7.313 0 8 3.03 7.313 5.656 5.656 7.313 3.03 8 0 7.313 -3.03 5.656 -5.656 3.03 -7.313 0 -8 -3.03 -7.313 -5.656 -5.656 -7.313 -3.03 -8 0 z" clip-path="url(#clipPath4313)" transform="matrix(0,1,-1,0,48,0)" opacity="0.3" stroke-opacity="1" stroke-dasharray="none" visibility="visible" fill="none" display="inline" stroke="url(#linearGradient4375)" color="#000" stroke-width="1" stroke-miterlimit="4"/><path d="m 24 2.344 -4 1.656 -4.281 0 -3.03 3.03 l -4 1.656 -1.656 4 l -3.03 3.03 0 4.281 -1.656 4 1.656 4 l 0 4.281 3.03 3.03 1.656 4 4 1.656 l 3.03 3.03 4.281 0 4 1.656 4 -1.656 l 4.281 0 3.03 -3.03 4 -1.656 1.656 -4 l 3.03 -3.03 0 -4.281 1.656 -4 -1.656 -4 l 0 -4.281 -3.03 -3.03 -1.656 -4 -4 -1.656 l -3.03 -3.03 -4.281 0 -4 -1.656 z" clip-path="url(#clipPath4329)" opacity="0.2" stroke-opacity="1" visibility="visible" fill="none" display="inline" stroke="#000" color="#000" stroke-width="2"/></g></svg>