<svg viewBox="0 0 48 48" xmlns:xlink="http://www.w3.org/1999/xlink"><defs><clipPath clipPathUnits="userSpaceOnUse" id="clipPath4313"><path d="m 20 4 -7.313 3.03 -5.656 5.656 -3.03 7.313 0 8 3.03 7.313 5.656 5.656 7.313 3.03 8 0 7.313 -3.03 5.656 -5.656 3.03 -7.313 0 -8 -3.03 -7.313 -5.656 -5.656 -7.313 -3.03 -8 0 z"/></clipPath><clipPath clipPathUnits="userSpaceOnUse" id="clipPath4329"><path d="m 24 2.344 -4 1.656 -4.281 0 -3.03 3.03 l -4 1.656 -1.656 4 l -3.03 3.03 0 4.281 -1.656 4 1.656 4 l 0 4.281 3.03 3.03 1.656 4 4 1.656 l 3.03 3.03 4.281 0 4 1.656 4 -1.656 l 4.281 0 3.03 -3.03 4 -1.656 1.656 -4 l 3.03 -3.03 0 -4.281 1.656 -4 -1.656 -4 l 0 -4.281 -3.03 -3.03 -1.656 -4 -4 -1.656 l -3.03 -3.03 -4.281 0 -4 -1.656 z"/></clipPath><clipPath id="clipPath-006713157"><path d="m 24 2.344 l -4 1.656 l -4.281 0 l -3.03 3.03 l -4 1.656 l -1.656 4 l -3.03 3.03 l 0 4.281 l -1.656 4 l 1.656 4 l 0 4.281 l 3.03 3.03 l 1.656 4 l 4 1.656 l 3.03 3.03 l 4.281 0 l 4 1.656 l 4 -1.656 l 4.281 0 l 3.03 -3.03 l 4 -1.656 l 1.656 -4 l 3.03 -3.03 l 0 -4.281 l 1.656 -4 l -1.656 -4 l 0 -4.281 l -3.03 -3.03 l -1.656 -4 l -4 -1.656 l -3.03 -3.03 l -4.281 0 l -4 -1.656 z"/></clipPath><clipPath id="clipPath-016981885"><path d="m 24 2.344 l -4 1.656 l -4.281 0 l -3.03 3.03 l -4 1.656 l -1.656 4 l -3.03 3.03 l 0 4.281 l -1.656 4 l 1.656 4 l 0 4.281 l 3.03 3.03 l 1.656 4 l 4 1.656 l 3.03 3.03 l 4.281 0 l 4 1.656 l 4 -1.656 l 4.281 0 l 3.03 -3.03 l 4 -1.656 l 1.656 -4 l 3.03 -3.03 l 0 -4.281 l 1.656 -4 l -1.656 -4 l 0 -4.281 l -3.03 -3.03 l -1.656 -4 l -4 -1.656 l -3.03 -3.03 l -4.281 0 l -4 -1.656 z"/></clipPath><linearGradient id="linearGradient4317"><stop stop-color="#fff" stop-opacity="1"/><stop offset="1" stop-color="#fff" stop-opacity="0"/></linearGradient><clipPath clipPathUnits="userSpaceOnUse" id="clipPath4313"><path d="m 20 4 -7.313 3.03 -5.656 5.656 -3.03 7.313 0 8 3.03 7.313 5.656 5.656 7.313 3.03 8 0 7.313 -3.03 5.656 -5.656 3.03 -7.313 0 -8 -3.03 -7.313 -5.656 -5.656 -7.313 -3.03 -8 0 z"/></clipPath><linearGradient x2="44" x1="4" gradientUnits="userSpaceOnUse" id="linearGradient4375" xlink:href="#linearGradient4317"/><clipPath clipPathUnits="userSpaceOnUse" id="clipPath4329"><path d="m 24 2.344 -4 1.656 -4.281 0 -3.03 3.03 l -4 1.656 -1.656 4 l -3.03 3.03 0 4.281 -1.656 4 1.656 4 l 0 4.281 3.03 3.03 1.656 4 4 1.656 l 3.03 3.03 4.281 0 4 1.656 4 -1.656 l 4.281 0 3.03 -3.03 4 -1.656 1.656 -4 l 3.03 -3.03 0 -4.281 1.656 -4 -1.656 -4 l 0 -4.281 -3.03 -3.03 -1.656 -4 -4 -1.656 l -3.03 -3.03 -4.281 0 -4 -1.656 z"/></clipPath><path id="SVGCleanerId_0" d="m 24 2.344 l -4 1.656 l -4.281 0 l -3.03 3.03 l -4 1.656 l -1.656 4 l -3.03 3.03 l 0 4.281 l -1.656 4 l 1.656 4 l 0 4.281 l 3.03 3.03 l 1.656 4 l 4 1.656 l 3.03 3.03 l 4.281 0 l 4 1.656 l 4 -1.656 l 4.281 0 l 3.03 -3.03 l 4 -1.656 l 1.656 -4 l 3.03 -3.03 l 0 -4.281 l 1.656 -4 l -1.656 -4 l 0 -4.281 l -3.03 -3.03 l -1.656 -4 l -4 -1.656 l -3.03 -3.03 l -4.281 0 l -4 -1.656 z" visibility="visible" display="inline" fill-rule="nonzero" color="#000" fill-opacity="1"/></defs><g><path d="m 2.563 24.5 l -0.219 0.5 l 1.656 4 l 0 -1 l -1.438 -3.5 z m 42.875 0 l -1.438 3.5 l 0 1 l 1.656 -4 l -0.219 -0.5 z m -41.44 7.781 l 0 1 l 3.03 3.03 l 1.656 4 l 4 1.656 l 3.03 3.03 l 4.281 0 l 4 1.656 l 4 -1.656 l 4.281 0 l 3.03 -3.03 l 4 -1.656 l 1.656 -4 l 3.03 -3.03 l 0 -1 l -3.03 3.03 l -1.656 4 l -4 1.656 l -3.03 3.03 l -4.281 0 l -4 1.656 l -4 -1.656 l -4.281 0 l -3.03 -3.03 l -4 -1.656 l -1.656 -4 l -3.03 -3.03 z" opacity="0.3" visibility="visible" fill="#000" display="inline" fill-rule="nonzero" stroke="none" fill-opacity="1" color="#000"/></g><g><use fill="#eee" stroke="none" xlink:href="#SVGCleanerId_0"/><path d="m 24 2.344 l -4 1.656 l 8 0 l -4 -1.656 z m 4 1.656 l 7.313 3.03 l -3.03 -3.03 l -4.281 0 z m 7.313 3.03 l 5.656 5.656 l -1.656 -4 l -4 -1.656 z m 5.656 5.656 l 3.03 7.313 l 0 -4.281 l -3.03 -3.03 z m 3.03 7.313 l 0 8 l 1.656 -4 l -1.656 -4 z m 0 8 l -3.03 7.313 l 3.03 -3.03 l 0 -4.281 z m -3.03 7.313 l -5.656 5.656 l 4 -1.656 l 1.656 -4 z m -5.656 5.656 l -7.313 3.03 l 4.281 0 l 3.03 -3.03 z m -7.313 3.03 l -8 0 l 4 1.656 l 4 -1.656 z m -8 0 l -7.313 -3.03 l 3.03 3.03 l 4.281 0 z m -7.313 -3.03 l -5.656 -5.656 l 1.656 4 l 4 1.656 z m -5.656 -5.656 l -3.03 -7.313 l 0 4.281 l 3.03 3.03 z m -3.03 -7.313 l 0 -8 l -1.656 4 l 1.656 4 z m 0 -8 l 3.03 -7.313 l -3.03 3.03 l 0 4.281 z m 3.03 -7.313 l 5.656 -5.656 l -4 1.656 l -1.656 4 z m 5.656 -5.656 l 7.313 -3.03 l -4.281 0 l -3.03 3.03 z" opacity="0.05" visibility="visible" fill="#eee" display="inline" fill-rule="nonzero" stroke="none" fill-opacity="1" color="#000"/></g><g><use opacity="0.05" stroke-opacity="1" stroke-dasharray="none" fill="#000" stroke="#000" stroke-width="2" stroke-miterlimit="4" xlink:href="#SVGCleanerId_0"/><use opacity="0.1" stroke-opacity="1" stroke-dasharray="none" fill="#000" stroke="#000" stroke-width="1" stroke-miterlimit="4" xlink:href="#SVGCleanerId_0"/></g><g><g clip-path="url(#clipPath-006713157)"><g transform="translate(0,1)"><g opacity="0.1"><!-- color: #eeeeee --><g><path d="m 19.969 9.555 c 2.566 -0.719 5.332 -0.758 8.03 -0.008 l -1.402 3.398 c -1.754 -0.418 -3.539 -0.395 -5.219 0.004 m -1.41 -3.395" fill="#000" stroke="none" fill-rule="nonzero" fill-opacity="1"/><path d="m 29.961 14.332 c 1.535 0.941 2.785 2.215 3.691 3.688 l 3.395 -1.41 c -1.309 -2.32 -3.242 -4.305 -5.684 -5.676 m -1.402 3.398" fill="#000" stroke="none" fill-rule="nonzero" fill-opacity="1"/><path d="m 37.07 31.367 l -3.398 -1.406 c -0.941 1.535 -2.215 2.785 -3.684 3.695 l 1.41 3.391 c 2.316 -1.309 4.301 -3.242 5.672 -5.68 m 0 0" fill="#000" stroke="none" fill-rule="nonzero" fill-opacity="1"/><path d="m 35.05 21.379 c 0.398 1.68 0.422 3.465 0.008 5.219 l 3.398 1.402 c 0.75 -2.695 0.707 -5.469 -0.012 -8.03 m -3.395 1.41" fill="#000" stroke="none" fill-rule="nonzero" fill-opacity="1"/><path d="m 14.332 18.04 c 0.941 -1.535 2.215 -2.785 3.684 -3.691 l -1.41 -3.395 c -2.316 1.309 -4.301 3.246 -5.672 5.684 m 3.398 1.402" fill="#000" stroke="none" fill-rule="nonzero" fill-opacity="1"/><path d="m 26.621 35.05 c -1.68 0.398 -3.465 0.422 -5.215 0.008 l -1.406 3.398 c 2.699 0.75 5.469 0.707 8.03 -0.012 m -1.41 -3.395" fill="#000" stroke="none" fill-rule="nonzero" fill-opacity="1"/><path d="m 18.04 33.668 c -1.535 -0.941 -2.785 -2.215 -3.691 -3.684 l -3.395 1.41 c 1.309 2.316 3.246 4.301 5.684 5.672 m 1.402 -3.398" fill="#000" stroke="none" fill-rule="nonzero" fill-opacity="1"/><path d="m 12.949 26.621 c -0.398 -1.68 -0.422 -3.465 -0.004 -5.215 l -3.398 -1.402 c -0.754 2.695 -0.711 5.465 0.008 8.03 m 3.395 -1.41" fill="#000" stroke="none" fill-rule="nonzero" fill-opacity="1"/><path d="m 24.13 10.563 l -1.125 4.5 c -4.508 0.492 -8 4.301 -8 8.938 c 0 4.973 4.03 9 9 9 c 3.512 0 6.484 -2.066 7.969 -5 l -3.531 -1.781 c -0.824 1.629 -2.477 2.781 -4.438 2.781 c -2.762 0 -5 -2.238 -5 -5 c 0 -2.762 2.238 -5 5 -5 c 1.949 0 3.613 1.152 4.438 2.781 l 3.5 -1.75 c -1.305 -2.566 -3.715 -4.488 -6.688 -4.906 m -1.125 -4.563" fill="#000" stroke="none" fill-rule="nonzero" fill-opacity="1"/></g></g></g></g></g><g><g clip-path="url(#clipPath-016981885)"><!-- color: #eeeeee --><g><path d="m 19.969 9.555 c 2.566 -0.719 5.332 -0.758 8.03 -0.008 l -1.402 3.398 c -1.754 -0.418 -3.539 -0.395 -5.219 0.004 m -1.41 -3.395" fill="#ff8600" stroke="none" fill-rule="nonzero" fill-opacity="1"/><path d="m 29.961 14.332 c 1.535 0.941 2.785 2.215 3.691 3.688 l 3.395 -1.41 c -1.309 -2.32 -3.242 -4.305 -5.684 -5.676 m -1.402 3.398" fill="#dc2c2e" stroke="none" fill-rule="nonzero" fill-opacity="1"/><path d="m 37.07 31.367 l -3.398 -1.406 c -0.941 1.535 -2.215 2.785 -3.684 3.695 l 1.41 3.391 c 2.316 -1.309 4.301 -3.242 5.672 -5.68 m 0 0" fill="#c769ff" stroke="none" fill-rule="nonzero" fill-opacity="1"/><path d="m 35.05 21.379 c 0.398 1.68 0.422 3.465 0.008 5.219 l 3.398 1.402 c 0.75 -2.695 0.707 -5.469 -0.012 -8.03 m -3.395 1.41" fill="#de28b1" stroke="none" fill-rule="nonzero" fill-opacity="1"/><path d="m 14.332 18.04 c 0.941 -1.535 2.215 -2.785 3.684 -3.691 l -1.41 -3.395 c -2.316 1.309 -4.301 3.246 -5.672 5.684 m 3.398 1.402" fill="#e5d717" stroke="none" fill-rule="nonzero" fill-opacity="1"/><path d="m 26.621 35.05 c -1.68 0.398 -3.465 0.422 -5.215 0.008 l -1.406 3.398 c 2.699 0.75 5.469 0.707 8.03 -0.012 m -1.41 -3.395" fill="#20b9ce" stroke="none" fill-rule="nonzero" fill-opacity="1"/><path d="m 18.04 33.668 c -1.535 -0.941 -2.785 -2.215 -3.691 -3.684 l -3.395 1.41 c 1.309 2.316 3.246 4.301 5.684 5.672 m 1.402 -3.398" fill="#20c145" stroke="none" fill-rule="nonzero" fill-opacity="1"/><path d="m 12.949 26.621 c -0.398 -1.68 -0.422 -3.465 -0.004 -5.215 l -3.398 -1.402 c -0.754 2.695 -0.711 5.465 0.008 8.03 m 3.395 -1.41" fill="#a2d620" stroke="none" fill-rule="nonzero" fill-opacity="1"/><path d="m 24.13 10.563 l -1.125 4.5 c -4.508 0.492 -8 4.301 -8 8.938 c 0 4.973 4.03 9 9 9 c 3.512 0 6.484 -2.066 7.969 -5 l -3.531 -1.781 c -0.824 1.629 -2.477 2.781 -4.438 2.781 c -2.762 0 -5 -2.238 -5 -5 c 0 -2.762 2.238 -5 5 -5 c 1.949 0 3.613 1.152 4.438 2.781 l 3.5 -1.75 c -1.305 -2.566 -3.715 -4.488 -6.688 -4.906 m -1.125 -4.563" fill="#999" stroke="none" fill-rule="nonzero" fill-opacity="1"/></g></g></g><g><path d="m 20 4 -7.313 3.03 -5.656 5.656 -3.03 7.313 0 8 3.03 7.313 5.656 5.656 7.313 3.03 8 0 7.313 -3.03 5.656 -5.656 3.03 -7.313 0 -8 -3.03 -7.313 -5.656 -5.656 -7.313 -3.03 -8 0 z" clip-path="url(#clipPath4313)" transform="matrix(0,1,-1,0,48,0)" opacity="0.3" stroke-opacity="1" stroke-dasharray="none" visibility="visible" fill="none" display="inline" stroke="url(#linearGradient4375)" color="#000" stroke-width="1" stroke-miterlimit="4"/><path d="m 24 2.344 -4 1.656 -4.281 0 -3.03 3.03 l -4 1.656 -1.656 4 l -3.03 3.03 0 4.281 -1.656 4 1.656 4 l 0 4.281 3.03 3.03 1.656 4 4 1.656 l 3.03 3.03 4.281 0 4 1.656 4 -1.656 l 4.281 0 3.03 -3.03 4 -1.656 1.656 -4 l 3.03 -3.03 0 -4.281 1.656 -4 -1.656 -4 l 0 -4.281 -3.03 -3.03 -1.656 -4 -4 -1.656 l -3.03 -3.03 -4.281 0 -4 -1.656 z" clip-path="url(#clipPath4329)" opacity="0.2" stroke-opacity="1" visibility="visible" fill="none" display="inline" stroke="#000" color="#000" stroke-width="2"/></g></svg>