<svg viewBox="0 0 48 48" xmlns:xlink="http://www.w3.org/1999/xlink"><defs><clipPath clipPathUnits="userSpaceOnUse" id="clipPath4313"><path d="m 20 4 -7.313 3.03 -5.656 5.656 -3.03 7.313 0 8 3.03 7.313 5.656 5.656 7.313 3.03 8 0 7.313 -3.03 5.656 -5.656 3.03 -7.313 0 -8 -3.03 -7.313 -5.656 -5.656 -7.313 -3.03 -8 0 z"/></clipPath><clipPath clipPathUnits="userSpaceOnUse" id="clipPath4329"><path d="m 24 2.344 -4 1.656 -4.281 0 -3.03 3.03 l -4 1.656 -1.656 4 l -3.03 3.03 0 4.281 -1.656 4 1.656 4 l 0 4.281 3.03 3.03 1.656 4 4 1.656 l 3.03 3.03 4.281 0 4 1.656 4 -1.656 l 4.281 0 3.03 -3.03 4 -1.656 1.656 -4 l 3.03 -3.03 0 -4.281 1.656 -4 -1.656 -4 l 0 -4.281 -3.03 -3.03 -1.656 -4 -4 -1.656 l -3.03 -3.03 -4.281 0 -4 -1.656 z"/></clipPath><clipPath id="clipPath-642525296"><path d="m 24 2.344 l -4 1.656 l -4.281 0 l -3.03 3.03 l -4 1.656 l -1.656 4 l -3.03 3.03 l 0 4.281 l -1.656 4 l 1.656 4 l 0 4.281 l 3.03 3.03 l 1.656 4 l 4 1.656 l 3.03 3.03 l 4.281 0 l 4 1.656 l 4 -1.656 l 4.281 0 l 3.03 -3.03 l 4 -1.656 l 1.656 -4 l 3.03 -3.03 l 0 -4.281 l 1.656 -4 l -1.656 -4 l 0 -4.281 l -3.03 -3.03 l -1.656 -4 l -4 -1.656 l -3.03 -3.03 l -4.281 0 l -4 -1.656 z"/></clipPath><clipPath id="clipPath-654566831"><path d="m 24 2.344 l -4 1.656 l -4.281 0 l -3.03 3.03 l -4 1.656 l -1.656 4 l -3.03 3.03 l 0 4.281 l -1.656 4 l 1.656 4 l 0 4.281 l 3.03 3.03 l 1.656 4 l 4 1.656 l 3.03 3.03 l 4.281 0 l 4 1.656 l 4 -1.656 l 4.281 0 l 3.03 -3.03 l 4 -1.656 l 1.656 -4 l 3.03 -3.03 l 0 -4.281 l 1.656 -4 l -1.656 -4 l 0 -4.281 l -3.03 -3.03 l -1.656 -4 l -4 -1.656 l -3.03 -3.03 l -4.281 0 l -4 -1.656 z"/></clipPath><linearGradient id="linearGradient4317"><stop stop-color="#fff" stop-opacity="1"/><stop offset="1" stop-color="#fff" stop-opacity="0"/></linearGradient><clipPath clipPathUnits="userSpaceOnUse" id="clipPath4313"><path d="m 20 4 -7.313 3.03 -5.656 5.656 -3.03 7.313 0 8 3.03 7.313 5.656 5.656 7.313 3.03 8 0 7.313 -3.03 5.656 -5.656 3.03 -7.313 0 -8 -3.03 -7.313 -5.656 -5.656 -7.313 -3.03 -8 0 z"/></clipPath><linearGradient x2="44" x1="4" gradientUnits="userSpaceOnUse" id="linearGradient4375" xlink:href="#linearGradient4317"/><clipPath clipPathUnits="userSpaceOnUse" id="clipPath4329"><path d="m 24 2.344 -4 1.656 -4.281 0 -3.03 3.03 l -4 1.656 -1.656 4 l -3.03 3.03 0 4.281 -1.656 4 1.656 4 l 0 4.281 3.03 3.03 1.656 4 4 1.656 l 3.03 3.03 4.281 0 4 1.656 4 -1.656 l 4.281 0 3.03 -3.03 4 -1.656 1.656 -4 l 3.03 -3.03 0 -4.281 1.656 -4 -1.656 -4 l 0 -4.281 -3.03 -3.03 -1.656 -4 -4 -1.656 l -3.03 -3.03 -4.281 0 -4 -1.656 z"/></clipPath><path id="SVGCleanerId_0" d="m 24 2.344 l -4 1.656 l -4.281 0 l -3.03 3.03 l -4 1.656 l -1.656 4 l -3.03 3.03 l 0 4.281 l -1.656 4 l 1.656 4 l 0 4.281 l 3.03 3.03 l 1.656 4 l 4 1.656 l 3.03 3.03 l 4.281 0 l 4 1.656 l 4 -1.656 l 4.281 0 l 3.03 -3.03 l 4 -1.656 l 1.656 -4 l 3.03 -3.03 l 0 -4.281 l 1.656 -4 l -1.656 -4 l 0 -4.281 l -3.03 -3.03 l -1.656 -4 l -4 -1.656 l -3.03 -3.03 l -4.281 0 l -4 -1.656 z" visibility="visible" display="inline" fill-rule="nonzero" color="#000" fill-opacity="1"/></defs><g><path d="m 2.563 24.5 l -0.219 0.5 l 1.656 4 l 0 -1 l -1.438 -3.5 z m 42.875 0 l -1.438 3.5 l 0 1 l 1.656 -4 l -0.219 -0.5 z m -41.44 7.781 l 0 1 l 3.03 3.03 l 1.656 4 l 4 1.656 l 3.03 3.03 l 4.281 0 l 4 1.656 l 4 -1.656 l 4.281 0 l 3.03 -3.03 l 4 -1.656 l 1.656 -4 l 3.03 -3.03 l 0 -1 l -3.03 3.03 l -1.656 4 l -4 1.656 l -3.03 3.03 l -4.281 0 l -4 1.656 l -4 -1.656 l -4.281 0 l -3.03 -3.03 l -4 -1.656 l -1.656 -4 l -3.03 -3.03 z" opacity="0.3" visibility="visible" fill="#000" display="inline" fill-rule="nonzero" stroke="none" fill-opacity="1" color="#000"/></g><g><use fill="#709f39" stroke="none" xlink:href="#SVGCleanerId_0"/><path d="m 24 2.344 l -4 1.656 l 8 0 l -4 -1.656 z m 4 1.656 l 7.313 3.03 l -3.03 -3.03 l -4.281 0 z m 7.313 3.03 l 5.656 5.656 l -1.656 -4 l -4 -1.656 z m 5.656 5.656 l 3.03 7.313 l 0 -4.281 l -3.03 -3.03 z m 3.03 7.313 l 0 8 l 1.656 -4 l -1.656 -4 z m 0 8 l -3.03 7.313 l 3.03 -3.03 l 0 -4.281 z m -3.03 7.313 l -5.656 5.656 l 4 -1.656 l 1.656 -4 z m -5.656 5.656 l -7.313 3.03 l 4.281 0 l 3.03 -3.03 z m -7.313 3.03 l -8 0 l 4 1.656 l 4 -1.656 z m -8 0 l -7.313 -3.03 l 3.03 3.03 l 4.281 0 z m -7.313 -3.03 l -5.656 -5.656 l 1.656 4 l 4 1.656 z m -5.656 -5.656 l -3.03 -7.313 l 0 4.281 l 3.03 3.03 z m -3.03 -7.313 l 0 -8 l -1.656 4 l 1.656 4 z m 0 -8 l 3.03 -7.313 l -3.03 3.03 l 0 4.281 z m 3.03 -7.313 l 5.656 -5.656 l -4 1.656 l -1.656 4 z m 5.656 -5.656 l 7.313 -3.03 l -4.281 0 l -3.03 3.03 z" opacity="0.05" visibility="visible" fill="#709f39" display="inline" fill-rule="nonzero" stroke="none" fill-opacity="1" color="#000"/></g><g><use opacity="0.05" stroke-opacity="1" stroke-dasharray="none" fill="#000" stroke="#000" stroke-width="2" stroke-miterlimit="4" xlink:href="#SVGCleanerId_0"/><use opacity="0.1" stroke-opacity="1" stroke-dasharray="none" fill="#000" stroke="#000" stroke-width="1" stroke-miterlimit="4" xlink:href="#SVGCleanerId_0"/></g><g><g clip-path="url(#clipPath-642525296)"><g transform="translate(0,1)"><g opacity="0.1"><!-- color: #709f39 --><g><path d="m 23 11 l -12 10 c -0.875 0.773 -1.215 1.441 -0.688 2 c 0.555 0.559 1.219 0.469 1.688 0 l 0 11 c 0 0.492 0.484 1 1 1 l 22 0 c 0.516 0 1 -0.508 1 -1 l 0 -11 c 0.469 0.469 1.129 0.559 1.688 0 c 0.527 -0.559 0.188 -1.227 -0.688 -2 l -12 -10 m -1.5 11 c 0.648 0 1.195 0.422 1.406 1 l 1.188 0 c 0.203 -0.586 0.75 -1 1.406 -1 c 0.648 0 1.195 0.422 1.406 1 l 1.188 0 c 0.203 -0.586 0.75 -1 1.406 -1 c 0.805 0 1.469 0.633 1.5 1.438 l 0 0.063 c 0 0.656 -0.414 1.203 -1 1.406 l 0 1.188 c 0.559 0.203 0.977 0.719 1 1.344 l 0 0.066 c 0 0.652 -0.414 1.199 -1 1.402 l 0 1.191 c 0.559 0.199 0.977 0.715 1 1.344 l 0 0.063 c 0 0.828 -0.672 1.5 -1.5 1.5 c -0.656 0 -1.203 -0.414 -1.406 -1 l -1.188 0 c -0.203 0.586 -0.75 1 -1.406 1 c -0.656 0 -1.203 -0.414 -1.406 -1 l -1.188 0 c -0.203 0.586 -0.75 1 -1.406 1 c -0.828 0 -1.5 -0.672 -1.5 -1.5 c 0 -0.656 0.414 -1.203 1 -1.406 l 0 -1.188 c -0.586 -0.207 -1 -0.75 -1 -1.406 c 0 -0.656 0.414 -1.203 1 -1.406 l 0 -1.188 c -0.586 -0.207 -1 -0.75 -1 -1.406 c 0 -0.828 0.672 -1.5 1.5 -1.5 m 1.406 1.996 c -0.148 0.434 -0.473 0.758 -0.906 0.906 l 0 1.188 c 0.418 0.148 0.754 0.484 0.906 0.906 l 1.188 0 c 0.148 -0.434 0.473 -0.758 0.906 -0.906 l 0 -1.188 c -0.434 -0.148 -0.758 -0.473 -0.906 -0.906 m 2.813 0 c -0.148 0.434 -0.473 0.758 -0.906 0.906 l 0 1.188 c 0.418 0.148 0.754 0.484 0.906 0.906 l 1.188 0 c 0.148 -0.434 0.473 -0.758 0.906 -0.906 l 0 -1.188 c -0.434 -0.148 -0.758 -0.473 -0.906 -0.906 m -5.188 4 c -0.148 0.434 -0.473 0.758 -0.906 0.906 l 0 1.188 c 0.418 0.148 0.754 0.484 0.906 0.906 l 1.188 0 c 0.148 -0.434 0.473 -0.758 0.906 -0.906 l 0 -1.188 c -0.434 -0.148 -0.758 -0.473 -0.906 -0.906 m 2.813 0 c -0.145 0.434 -0.473 0.758 -0.898 0.906 l 0 1.188 c 0.418 0.148 0.754 0.484 0.898 0.906 l 1.191 0 c 0.145 -0.434 0.473 -0.758 0.906 -0.906 l 0 -1.188 c -0.438 -0.148 -0.762 -0.473 -0.906 -0.906 m -1.191 0" fill="#000" stroke="none" fill-rule="nonzero" fill-opacity="1"/></g></g></g></g></g><g><g clip-path="url(#clipPath-654566831)"><!-- color: #709f39 --><g><path d="m 23 11 l -12 10 c -0.875 0.773 -1.215 1.441 -0.688 2 c 0.555 0.559 1.219 0.469 1.688 0 l 0 11 c 0 0.492 0.484 1 1 1 l 22 0 c 0.516 0 1 -0.508 1 -1 l 0 -11 c 0.469 0.469 1.129 0.559 1.688 0 c 0.527 -0.559 0.188 -1.227 -0.688 -2 l -12 -10 m -1.5 11 c 0.648 0 1.195 0.422 1.406 1 l 1.188 0 c 0.203 -0.586 0.75 -1 1.406 -1 c 0.648 0 1.195 0.422 1.406 1 l 1.188 0 c 0.203 -0.586 0.75 -1 1.406 -1 c 0.805 0 1.469 0.633 1.5 1.438 l 0 0.063 c 0 0.656 -0.414 1.203 -1 1.406 l 0 1.188 c 0.559 0.203 0.977 0.719 1 1.344 l 0 0.066 c 0 0.652 -0.414 1.199 -1 1.402 l 0 1.191 c 0.559 0.199 0.977 0.715 1 1.344 l 0 0.063 c 0 0.828 -0.672 1.5 -1.5 1.5 c -0.656 0 -1.203 -0.414 -1.406 -1 l -1.188 0 c -0.203 0.586 -0.75 1 -1.406 1 c -0.656 0 -1.203 -0.414 -1.406 -1 l -1.188 0 c -0.203 0.586 -0.75 1 -1.406 1 c -0.828 0 -1.5 -0.672 -1.5 -1.5 c 0 -0.656 0.414 -1.203 1 -1.406 l 0 -1.188 c -0.586 -0.207 -1 -0.75 -1 -1.406 c 0 -0.656 0.414 -1.203 1 -1.406 l 0 -1.188 c -0.586 -0.207 -1 -0.75 -1 -1.406 c 0 -0.828 0.672 -1.5 1.5 -1.5 m 1.406 1.996 c -0.148 0.434 -0.473 0.758 -0.906 0.906 l 0 1.188 c 0.418 0.148 0.754 0.484 0.906 0.906 l 1.188 0 c 0.148 -0.434 0.473 -0.758 0.906 -0.906 l 0 -1.188 c -0.434 -0.148 -0.758 -0.473 -0.906 -0.906 m 2.813 0 c -0.148 0.434 -0.473 0.758 -0.906 0.906 l 0 1.188 c 0.418 0.148 0.754 0.484 0.906 0.906 l 1.188 0 c 0.148 -0.434 0.473 -0.758 0.906 -0.906 l 0 -1.188 c -0.434 -0.148 -0.758 -0.473 -0.906 -0.906 m -5.188 4 c -0.148 0.434 -0.473 0.758 -0.906 0.906 l 0 1.188 c 0.418 0.148 0.754 0.484 0.906 0.906 l 1.188 0 c 0.148 -0.434 0.473 -0.758 0.906 -0.906 l 0 -1.188 c -0.434 -0.148 -0.758 -0.473 -0.906 -0.906 m 2.813 0 c -0.145 0.434 -0.473 0.758 -0.898 0.906 l 0 1.188 c 0.418 0.148 0.754 0.484 0.898 0.906 l 1.191 0 c 0.145 -0.434 0.473 -0.758 0.906 -0.906 l 0 -1.188 c -0.438 -0.148 -0.762 -0.473 -0.906 -0.906 m -1.191 0" fill="#f9f9f9" stroke="none" fill-rule="nonzero" fill-opacity="1"/></g></g></g><g><path d="m 20 4 -7.313 3.03 -5.656 5.656 -3.03 7.313 0 8 3.03 7.313 5.656 5.656 7.313 3.03 8 0 7.313 -3.03 5.656 -5.656 3.03 -7.313 0 -8 -3.03 -7.313 -5.656 -5.656 -7.313 -3.03 -8 0 z" clip-path="url(#clipPath4313)" transform="matrix(0,1,-1,0,48,0)" opacity="0.3" stroke-opacity="1" stroke-dasharray="none" visibility="visible" fill="none" display="inline" stroke="url(#linearGradient4375)" color="#000" stroke-width="1" stroke-miterlimit="4"/><path d="m 24 2.344 -4 1.656 -4.281 0 -3.03 3.03 l -4 1.656 -1.656 4 l -3.03 3.03 0 4.281 -1.656 4 1.656 4 l 0 4.281 3.03 3.03 1.656 4 4 1.656 l 3.03 3.03 4.281 0 4 1.656 4 -1.656 l 4.281 0 3.03 -3.03 4 -1.656 1.656 -4 l 3.03 -3.03 0 -4.281 1.656 -4 -1.656 -4 l 0 -4.281 -3.03 -3.03 -1.656 -4 -4 -1.656 l -3.03 -3.03 -4.281 0 -4 -1.656 z" clip-path="url(#clipPath4329)" opacity="0.2" stroke-opacity="1" visibility="visible" fill="none" display="inline" stroke="#000" color="#000" stroke-width="2"/></g></svg>