<svg viewBox="0 0 48 48" xmlns:xlink="http://www.w3.org/1999/xlink"><defs><clipPath clipPathUnits="userSpaceOnUse" id="clipPath4313"><path d="m 20 4 -7.313 3.03 -5.656 5.656 -3.03 7.313 0 8 3.03 7.313 5.656 5.656 7.313 3.03 8 0 7.313 -3.03 5.656 -5.656 3.03 -7.313 0 -8 -3.03 -7.313 -5.656 -5.656 -7.313 -3.03 -8 0 z"/></clipPath><clipPath clipPathUnits="userSpaceOnUse" id="clipPath4329"><path d="m 24 2.344 -4 1.656 -4.281 0 -3.03 3.03 l -4 1.656 -1.656 4 l -3.03 3.03 0 4.281 -1.656 4 1.656 4 l 0 4.281 3.03 3.03 1.656 4 4 1.656 l 3.03 3.03 4.281 0 4 1.656 4 -1.656 l 4.281 0 3.03 -3.03 4 -1.656 1.656 -4 l 3.03 -3.03 0 -4.281 1.656 -4 -1.656 -4 l 0 -4.281 -3.03 -3.03 -1.656 -4 -4 -1.656 l -3.03 -3.03 -4.281 0 -4 -1.656 z"/></clipPath><clipPath id="clipPath-660226886"><path d="m 24 2.344 l -4 1.656 l -4.281 0 l -3.03 3.03 l -4 1.656 l -1.656 4 l -3.03 3.03 l 0 4.281 l -1.656 4 l 1.656 4 l 0 4.281 l 3.03 3.03 l 1.656 4 l 4 1.656 l 3.03 3.03 l 4.281 0 l 4 1.656 l 4 -1.656 l 4.281 0 l 3.03 -3.03 l 4 -1.656 l 1.656 -4 l 3.03 -3.03 l 0 -4.281 l 1.656 -4 l -1.656 -4 l 0 -4.281 l -3.03 -3.03 l -1.656 -4 l -4 -1.656 l -3.03 -3.03 l -4.281 0 l -4 -1.656 z"/></clipPath><clipPath id="clipPath-665635402"><path d="m 24 2.344 l -4 1.656 l -4.281 0 l -3.03 3.03 l -4 1.656 l -1.656 4 l -3.03 3.03 l 0 4.281 l -1.656 4 l 1.656 4 l 0 4.281 l 3.03 3.03 l 1.656 4 l 4 1.656 l 3.03 3.03 l 4.281 0 l 4 1.656 l 4 -1.656 l 4.281 0 l 3.03 -3.03 l 4 -1.656 l 1.656 -4 l 3.03 -3.03 l 0 -4.281 l 1.656 -4 l -1.656 -4 l 0 -4.281 l -3.03 -3.03 l -1.656 -4 l -4 -1.656 l -3.03 -3.03 l -4.281 0 l -4 -1.656 z"/></clipPath><linearGradient id="linearGradient4317"><stop stop-color="#fff" stop-opacity="1"/><stop offset="1" stop-color="#fff" stop-opacity="0"/></linearGradient><clipPath clipPathUnits="userSpaceOnUse" id="clipPath4313"><path d="m 20 4 -7.313 3.03 -5.656 5.656 -3.03 7.313 0 8 3.03 7.313 5.656 5.656 7.313 3.03 8 0 7.313 -3.03 5.656 -5.656 3.03 -7.313 0 -8 -3.03 -7.313 -5.656 -5.656 -7.313 -3.03 -8 0 z"/></clipPath><linearGradient x2="44" x1="4" gradientUnits="userSpaceOnUse" id="linearGradient4375" xlink:href="#linearGradient4317"/><clipPath clipPathUnits="userSpaceOnUse" id="clipPath4329"><path d="m 24 2.344 -4 1.656 -4.281 0 -3.03 3.03 l -4 1.656 -1.656 4 l -3.03 3.03 0 4.281 -1.656 4 1.656 4 l 0 4.281 3.03 3.03 1.656 4 4 1.656 l 3.03 3.03 4.281 0 4 1.656 4 -1.656 l 4.281 0 3.03 -3.03 4 -1.656 1.656 -4 l 3.03 -3.03 0 -4.281 1.656 -4 -1.656 -4 l 0 -4.281 -3.03 -3.03 -1.656 -4 -4 -1.656 l -3.03 -3.03 -4.281 0 -4 -1.656 z"/></clipPath><path id="SVGCleanerId_0" d="m 24 2.344 l -4 1.656 l -4.281 0 l -3.03 3.03 l -4 1.656 l -1.656 4 l -3.03 3.03 l 0 4.281 l -1.656 4 l 1.656 4 l 0 4.281 l 3.03 3.03 l 1.656 4 l 4 1.656 l 3.03 3.03 l 4.281 0 l 4 1.656 l 4 -1.656 l 4.281 0 l 3.03 -3.03 l 4 -1.656 l 1.656 -4 l 3.03 -3.03 l 0 -4.281 l 1.656 -4 l -1.656 -4 l 0 -4.281 l -3.03 -3.03 l -1.656 -4 l -4 -1.656 l -3.03 -3.03 l -4.281 0 l -4 -1.656 z" visibility="visible" display="inline" fill-rule="nonzero" color="#000" fill-opacity="1"/></defs><g><path d="m 2.563 24.5 l -0.219 0.5 l 1.656 4 l 0 -1 l -1.438 -3.5 z m 42.875 0 l -1.438 3.5 l 0 1 l 1.656 -4 l -0.219 -0.5 z m -41.44 7.781 l 0 1 l 3.03 3.03 l 1.656 4 l 4 1.656 l 3.03 3.03 l 4.281 0 l 4 1.656 l 4 -1.656 l 4.281 0 l 3.03 -3.03 l 4 -1.656 l 1.656 -4 l 3.03 -3.03 l 0 -1 l -3.03 3.03 l -1.656 4 l -4 1.656 l -3.03 3.03 l -4.281 0 l -4 1.656 l -4 -1.656 l -4.281 0 l -3.03 -3.03 l -4 -1.656 l -1.656 -4 l -3.03 -3.03 z" opacity="0.3" visibility="visible" fill="#000" display="inline" fill-rule="nonzero" stroke="none" fill-opacity="1" color="#000"/></g><g><use fill="#7ec1ee" stroke="none" xlink:href="#SVGCleanerId_0"/><path d="m 24 2.344 l -4 1.656 l 8 0 l -4 -1.656 z m 4 1.656 l 7.313 3.03 l -3.03 -3.03 l -4.281 0 z m 7.313 3.03 l 5.656 5.656 l -1.656 -4 l -4 -1.656 z m 5.656 5.656 l 3.03 7.313 l 0 -4.281 l -3.03 -3.03 z m 3.03 7.313 l 0 8 l 1.656 -4 l -1.656 -4 z m 0 8 l -3.03 7.313 l 3.03 -3.03 l 0 -4.281 z m -3.03 7.313 l -5.656 5.656 l 4 -1.656 l 1.656 -4 z m -5.656 5.656 l -7.313 3.03 l 4.281 0 l 3.03 -3.03 z m -7.313 3.03 l -8 0 l 4 1.656 l 4 -1.656 z m -8 0 l -7.313 -3.03 l 3.03 3.03 l 4.281 0 z m -7.313 -3.03 l -5.656 -5.656 l 1.656 4 l 4 1.656 z m -5.656 -5.656 l -3.03 -7.313 l 0 4.281 l 3.03 3.03 z m -3.03 -7.313 l 0 -8 l -1.656 4 l 1.656 4 z m 0 -8 l 3.03 -7.313 l -3.03 3.03 l 0 4.281 z m 3.03 -7.313 l 5.656 -5.656 l -4 1.656 l -1.656 4 z m 5.656 -5.656 l 7.313 -3.03 l -4.281 0 l -3.03 3.03 z" opacity="0.05" visibility="visible" fill="#7ec1ee" display="inline" fill-rule="nonzero" stroke="none" fill-opacity="1" color="#000"/></g><g><use opacity="0.05" stroke-opacity="1" stroke-dasharray="none" fill="#000" stroke="#000" stroke-width="2" stroke-miterlimit="4" xlink:href="#SVGCleanerId_0"/><use opacity="0.1" stroke-opacity="1" stroke-dasharray="none" fill="#000" stroke="#000" stroke-width="1" stroke-miterlimit="4" xlink:href="#SVGCleanerId_0"/></g><g><g clip-path="url(#clipPath-660226886)"><g transform="translate(0,1)"><g opacity="0.1"><!-- color: #7ec1ee --><g><path d="m 22.871 27.793 l -4.949 -5.949 l -0.594 -6.086 l 7.137 -1.957 l 4.703 1.434 l 1.66 3.668 l -1.293 2.477 l -5.75 6.473 m -0.914 -0.059" fill="#000" stroke="none" fill-rule="nonzero" fill-opacity="0.941"/><path d="m 11 36 l 26 0 l 0 -2 c -0.68 -3 -4.168 -6.453 -8.516 -8.234 l -2.84 2.762 l -0.898 -0.598 l -2.492 -0.055 l -0.797 0.922 l -3.02 -2.996 c -3.324 1.465 -6.754 4.672 -7.438 8.199 m 0 2" fill="#000" stroke="none" fill-rule="nonzero" fill-opacity="1"/><path d="m 23.449 12.332 c 2.891 0 5.23 2.434 5.23 5.434 l 0 2.453 c 0 3 -2.34 5.43 -5.23 5.43 c -2.887 0 -5.23 -2.43 -5.23 -5.43 l 0 -2.453 c 0 -3 2.344 -5.434 5.23 -5.434 m 0 0" fill="#000" stroke="none" fill-rule="nonzero" fill-opacity="1"/><path d="m 27.09 24.14 c 0.563 -0.551 2 -1.707 2.16 -2.469 l -0.055 -4.371 l -8.328 -3.094 l -1.355 1.148 l -2.246 2.922 l 0.551 3.297 l 0.293 0.844 l 1.695 1.719 m 7.285 0.004" fill="#000" stroke="none" fill-rule="nonzero" fill-opacity="1"/><path d="m 18.15 22.434 l 0 -4.07 c 0.414 -1.777 2.137 -3.574 2.996 -3.551 c 1.465 0.184 2.488 1.48 3.363 2.738 c 1.102 0.938 3.855 0.996 4.574 0 c 0 1.52 0 3.035 0 4.555 c 0.816 -0.316 1.836 -1.531 2.01 -2.578 c -0.207 -12.621 -14.34 -12.387 -14.727 -1.164 c 0.121 1.414 0.965 3.406 1.785 4.07 m 0 0" fill="#000" stroke="none" fill-rule="nonzero" fill-opacity="1"/><path d="m 23.453 27.898 l 3.637 -3.77 l 1.82 1.883 l -3.637 3.77 m -1.82 -1.883" fill="#000" stroke="none" fill-rule="nonzero" fill-opacity="1"/><path d="m 19.816 24.13 l 3.637 3.77 l -1.816 1.883 l -3.637 -3.766 m 1.816 -1.887" fill="#000" stroke="none" fill-rule="nonzero" fill-opacity="1"/></g></g></g></g></g><g><g clip-path="url(#clipPath-665635402)"><!-- color: #7ec1ee --><g><path d="m 22.871 27.793 l -4.949 -5.949 l -0.594 -6.086 l 7.137 -1.957 l 4.703 1.434 l 1.66 3.668 l -1.293 2.477 l -5.75 6.473 m -0.914 -0.059" fill="#cf8e92" stroke="none" fill-rule="nonzero" fill-opacity="0.941"/><path d="m 11 36 l 26 0 l 0 -2 c -0.68 -3 -4.168 -6.453 -8.516 -8.234 l -2.84 2.762 l -0.898 -0.598 l -2.492 -0.055 l -0.797 0.922 l -3.02 -2.996 c -3.324 1.465 -6.754 4.672 -7.438 8.199 m 0 2" fill="#cf362d" stroke="none" fill-rule="nonzero" fill-opacity="1"/><path d="m 23.449 12.332 c 2.891 0 5.23 2.434 5.23 5.434 l 0 2.453 c 0 3 -2.34 5.43 -5.23 5.43 c -2.887 0 -5.23 -2.43 -5.23 -5.43 l 0 -2.453 c 0 -3 2.344 -5.434 5.23 -5.434 m 0 0" fill="#ffcdce" stroke="none" fill-rule="nonzero" fill-opacity="1"/><path d="m 27.09 24.14 c 0.563 -0.551 2 -1.707 2.16 -2.469 l -0.055 -4.371 l -8.328 -3.094 l -1.355 1.148 l -2.246 2.922 l 0.551 3.297 l 0.293 0.844 l 1.695 1.719 m 7.285 0.004" fill="#ffcdce" stroke="none" fill-rule="nonzero" fill-opacity="1"/><path d="m 18.15 22.434 l 0 -4.07 c 0.414 -1.777 2.137 -3.574 2.996 -3.551 c 1.465 0.184 2.488 1.48 3.363 2.738 c 1.102 0.938 3.855 0.996 4.574 0 c 0 1.52 0 3.035 0 4.555 c 0.816 -0.316 1.836 -1.531 2.01 -2.578 c -0.207 -12.621 -14.34 -12.387 -14.727 -1.164 c 0.121 1.414 0.965 3.406 1.785 4.07 m 0 0" fill="#d0362d" stroke="none" fill-rule="nonzero" fill-opacity="1"/><path d="m 23.453 27.898 l 3.637 -3.77 l 1.82 1.883 l -3.637 3.77 m -1.82 -1.883" fill="#b2d4cf" stroke="none" fill-rule="nonzero" fill-opacity="1"/><path d="m 19.816 24.13 l 3.637 3.77 l -1.816 1.883 l -3.637 -3.766 m 1.816 -1.887" fill="#b2d4cf" stroke="none" fill-rule="nonzero" fill-opacity="1"/></g></g></g><g><path d="m 20 4 -7.313 3.03 -5.656 5.656 -3.03 7.313 0 8 3.03 7.313 5.656 5.656 7.313 3.03 8 0 7.313 -3.03 5.656 -5.656 3.03 -7.313 0 -8 -3.03 -7.313 -5.656 -5.656 -7.313 -3.03 -8 0 z" clip-path="url(#clipPath4313)" transform="matrix(0,1,-1,0,48,0)" opacity="0.3" stroke-opacity="1" stroke-dasharray="none" visibility="visible" fill="none" display="inline" stroke="url(#linearGradient4375)" color="#000" stroke-width="1" stroke-miterlimit="4"/><path d="m 24 2.344 -4 1.656 -4.281 0 -3.03 3.03 l -4 1.656 -1.656 4 l -3.03 3.03 0 4.281 -1.656 4 1.656 4 l 0 4.281 3.03 3.03 1.656 4 4 1.656 l 3.03 3.03 4.281 0 4 1.656 4 -1.656 l 4.281 0 3.03 -3.03 4 -1.656 1.656 -4 l 3.03 -3.03 0 -4.281 1.656 -4 -1.656 -4 l 0 -4.281 -3.03 -3.03 -1.656 -4 -4 -1.656 l -3.03 -3.03 -4.281 0 -4 -1.656 z" clip-path="url(#clipPath4329)" opacity="0.2" stroke-opacity="1" visibility="visible" fill="none" display="inline" stroke="#000" color="#000" stroke-width="2"/></g></svg>