<svg viewBox="0 0 48 48" xmlns:xlink="http://www.w3.org/1999/xlink"><defs><clipPath clipPathUnits="userSpaceOnUse" id="clipPath4313"><path d="m 20 4 -7.313 3.03 -5.656 5.656 -3.03 7.313 0 8 3.03 7.313 5.656 5.656 7.313 3.03 8 0 7.313 -3.03 5.656 -5.656 3.03 -7.313 0 -8 -3.03 -7.313 -5.656 -5.656 -7.313 -3.03 -8 0 z"/></clipPath><clipPath clipPathUnits="userSpaceOnUse" id="clipPath4329"><path d="m 24 2.344 -4 1.656 -4.281 0 -3.03 3.03 l -4 1.656 -1.656 4 l -3.03 3.03 0 4.281 -1.656 4 1.656 4 l 0 4.281 3.03 3.03 1.656 4 4 1.656 l 3.03 3.03 4.281 0 4 1.656 4 -1.656 l 4.281 0 3.03 -3.03 4 -1.656 1.656 -4 l 3.03 -3.03 0 -4.281 1.656 -4 -1.656 -4 l 0 -4.281 -3.03 -3.03 -1.656 -4 -4 -1.656 l -3.03 -3.03 -4.281 0 -4 -1.656 z"/></clipPath><clipPath id="clipPath-748712359"><path d="m 24 2.344 l -4 1.656 l -4.281 0 l -3.03 3.03 l -4 1.656 l -1.656 4 l -3.03 3.03 l 0 4.281 l -1.656 4 l 1.656 4 l 0 4.281 l 3.03 3.03 l 1.656 4 l 4 1.656 l 3.03 3.03 l 4.281 0 l 4 1.656 l 4 -1.656 l 4.281 0 l 3.03 -3.03 l 4 -1.656 l 1.656 -4 l 3.03 -3.03 l 0 -4.281 l 1.656 -4 l -1.656 -4 l 0 -4.281 l -3.03 -3.03 l -1.656 -4 l -4 -1.656 l -3.03 -3.03 l -4.281 0 l -4 -1.656 z"/></clipPath><clipPath id="clipPath-758769497"><path d="m 24 2.344 l -4 1.656 l -4.281 0 l -3.03 3.03 l -4 1.656 l -1.656 4 l -3.03 3.03 l 0 4.281 l -1.656 4 l 1.656 4 l 0 4.281 l 3.03 3.03 l 1.656 4 l 4 1.656 l 3.03 3.03 l 4.281 0 l 4 1.656 l 4 -1.656 l 4.281 0 l 3.03 -3.03 l 4 -1.656 l 1.656 -4 l 3.03 -3.03 l 0 -4.281 l 1.656 -4 l -1.656 -4 l 0 -4.281 l -3.03 -3.03 l -1.656 -4 l -4 -1.656 l -3.03 -3.03 l -4.281 0 l -4 -1.656 z"/></clipPath><linearGradient id="linearGradient4317"><stop stop-color="#fff" stop-opacity="1"/><stop offset="1" stop-color="#fff" stop-opacity="0"/></linearGradient><clipPath clipPathUnits="userSpaceOnUse" id="clipPath4313"><path d="m 20 4 -7.313 3.03 -5.656 5.656 -3.03 7.313 0 8 3.03 7.313 5.656 5.656 7.313 3.03 8 0 7.313 -3.03 5.656 -5.656 3.03 -7.313 0 -8 -3.03 -7.313 -5.656 -5.656 -7.313 -3.03 -8 0 z"/></clipPath><linearGradient x2="44" x1="4" gradientUnits="userSpaceOnUse" id="linearGradient4375" xlink:href="#linearGradient4317"/><clipPath clipPathUnits="userSpaceOnUse" id="clipPath4329"><path d="m 24 2.344 -4 1.656 -4.281 0 -3.03 3.03 l -4 1.656 -1.656 4 l -3.03 3.03 0 4.281 -1.656 4 1.656 4 l 0 4.281 3.03 3.03 1.656 4 4 1.656 l 3.03 3.03 4.281 0 4 1.656 4 -1.656 l 4.281 0 3.03 -3.03 4 -1.656 1.656 -4 l 3.03 -3.03 0 -4.281 1.656 -4 -1.656 -4 l 0 -4.281 -3.03 -3.03 -1.656 -4 -4 -1.656 l -3.03 -3.03 -4.281 0 -4 -1.656 z"/></clipPath><path id="SVGCleanerId_0" d="m 24 2.344 l -4 1.656 l -4.281 0 l -3.03 3.03 l -4 1.656 l -1.656 4 l -3.03 3.03 l 0 4.281 l -1.656 4 l 1.656 4 l 0 4.281 l 3.03 3.03 l 1.656 4 l 4 1.656 l 3.03 3.03 l 4.281 0 l 4 1.656 l 4 -1.656 l 4.281 0 l 3.03 -3.03 l 4 -1.656 l 1.656 -4 l 3.03 -3.03 l 0 -4.281 l 1.656 -4 l -1.656 -4 l 0 -4.281 l -3.03 -3.03 l -1.656 -4 l -4 -1.656 l -3.03 -3.03 l -4.281 0 l -4 -1.656 z" visibility="visible" display="inline" fill-rule="nonzero" color="#000" fill-opacity="1"/></defs><g><path d="m 2.563 24.5 l -0.219 0.5 l 1.656 4 l 0 -1 l -1.438 -3.5 z m 42.875 0 l -1.438 3.5 l 0 1 l 1.656 -4 l -0.219 -0.5 z m -41.44 7.781 l 0 1 l 3.03 3.03 l 1.656 4 l 4 1.656 l 3.03 3.03 l 4.281 0 l 4 1.656 l 4 -1.656 l 4.281 0 l 3.03 -3.03 l 4 -1.656 l 1.656 -4 l 3.03 -3.03 l 0 -1 l -3.03 3.03 l -1.656 4 l -4 1.656 l -3.03 3.03 l -4.281 0 l -4 1.656 l -4 -1.656 l -4.281 0 l -3.03 -3.03 l -4 -1.656 l -1.656 -4 l -3.03 -3.03 z" opacity="0.3" visibility="visible" fill="#000" display="inline" fill-rule="nonzero" stroke="none" fill-opacity="1" color="#000"/></g><g><use fill="#3d3d3d" stroke="none" xlink:href="#SVGCleanerId_0"/><path d="m 24 2.344 l -4 1.656 l 8 0 l -4 -1.656 z m 4 1.656 l 7.313 3.03 l -3.03 -3.03 l -4.281 0 z m 7.313 3.03 l 5.656 5.656 l -1.656 -4 l -4 -1.656 z m 5.656 5.656 l 3.03 7.313 l 0 -4.281 l -3.03 -3.03 z m 3.03 7.313 l 0 8 l 1.656 -4 l -1.656 -4 z m 0 8 l -3.03 7.313 l 3.03 -3.03 l 0 -4.281 z m -3.03 7.313 l -5.656 5.656 l 4 -1.656 l 1.656 -4 z m -5.656 5.656 l -7.313 3.03 l 4.281 0 l 3.03 -3.03 z m -7.313 3.03 l -8 0 l 4 1.656 l 4 -1.656 z m -8 0 l -7.313 -3.03 l 3.03 3.03 l 4.281 0 z m -7.313 -3.03 l -5.656 -5.656 l 1.656 4 l 4 1.656 z m -5.656 -5.656 l -3.03 -7.313 l 0 4.281 l 3.03 3.03 z m -3.03 -7.313 l 0 -8 l -1.656 4 l 1.656 4 z m 0 -8 l 3.03 -7.313 l -3.03 3.03 l 0 4.281 z m 3.03 -7.313 l 5.656 -5.656 l -4 1.656 l -1.656 4 z m 5.656 -5.656 l 7.313 -3.03 l -4.281 0 l -3.03 3.03 z" opacity="0.05" visibility="visible" fill="#3d3d3d" display="inline" fill-rule="nonzero" stroke="none" fill-opacity="1" color="#000"/></g><g><use opacity="0.05" stroke-opacity="1" stroke-dasharray="none" fill="#000" stroke="#000" stroke-width="2" stroke-miterlimit="4" xlink:href="#SVGCleanerId_0"/><use opacity="0.1" stroke-opacity="1" stroke-dasharray="none" fill="#000" stroke="#000" stroke-width="1" stroke-miterlimit="4" xlink:href="#SVGCleanerId_0"/></g><g><g clip-path="url(#clipPath-748712359)"><g transform="translate(0,1)"><g opacity="0.1"><!-- color: #3d3d3d --><g><path d="m 34.594 13.406 l -1.406 1.406 c 2.352 2.352 3.813 5.598 3.813 9.188 c 0 3.59 -1.461 6.836 -3.813 9.188 l 1.406 1.406 c 0.688 -0.688 1.332 -1.438 1.875 -2.25 c 0.434 -0.648 0.762 -1.348 1.094 -2.063 c 0.078 -0.164 0.18 -0.305 0.25 -0.469 c 0.273 -0.648 0.445 -1.34 0.625 -2.031 c 0.316 -1.215 0.563 -2.469 0.563 -3.781 c 0 -1.313 -0.242 -2.566 -0.563 -3.781 c -0.18 -0.691 -0.352 -1.383 -0.625 -2.031 c -0.07 -0.164 -0.172 -0.305 -0.25 -0.469 c -0.332 -0.715 -0.66 -1.414 -1.094 -2.063 c -0.543 -0.813 -1.188 -1.563 -1.875 -2.25 m 0 0" fill="#000" stroke="none" fill-rule="nonzero" fill-opacity="1"/><path d="m 24 9 c -8.285 0 -15 6.715 -15 15 c 0 8.285 6.715 15 15 15 c 4.141 0 7.879 -1.691 10.594 -4.406 l -1.406 -1.406 c -2.352 2.352 -5.598 3.813 -9.188 3.813 c -7.18 0 -13 -5.82 -13 -13 c 0 -7.18 5.82 -13 13 -13 c 3.59 0 6.836 1.461 9.188 3.813 l 1.406 -1.406 c -2.715 -2.711 -6.453 -4.395 -10.594 -4.395 m 0 -0.004" fill="#000" stroke="none" fill-rule="nonzero" fill-opacity="1"/><path d="m 19.5 14.246 l 9 0 c 0.414 0 0.75 0.336 0.75 0.75 l 0 9 c 0 0.414 -0.336 0.75 -0.75 0.75 l -9 0 c -0.414 0 -0.75 -0.336 -0.75 -0.75 l 0 -9 c 0 -0.414 0.336 -0.75 0.75 -0.75 m 0 0" fill="#000" stroke="none" fill-rule="nonzero" fill-opacity="1"/><path d="m 15.75 20.25 l 16.5 0 c 0.414 0 0.75 0.332 0.75 0.746 l 0 7.504 c 0 0.414 -0.336 0.75 -0.75 0.75 l -16.5 0 c -0.414 0 -0.75 -0.336 -0.75 -0.75 l 0 -7.504 c 0 -0.414 0.336 -0.746 0.75 -0.746 m 0 0" fill="#000" stroke="none" fill-rule="nonzero" fill-opacity="1"/><path d="m 18.75 24.762 l 10.5 0 l 0 9 l -10.5 0 m 0 -9" fill="#000" stroke="none" fill-rule="nonzero" fill-opacity="1"/><path d="m 18.75 22.496 l 0 4.5 l 3 -2.25 m -3 -2.25" fill="#000" stroke="none" fill-rule="nonzero" fill-opacity="1"/><path d="m 17.25 22.496 l 0 4.5 l 3 -2.25 m -3 -2.25" fill="#000" stroke="none" fill-rule="nonzero" fill-opacity="1"/><path d="m 15.75 22.496 l 0 4.5 l 3 -2.25 m -3 -2.25" fill="#000" stroke="none" fill-rule="nonzero" fill-opacity="1"/></g></g></g></g></g><g><g clip-path="url(#clipPath-758769497)"><!-- color: #3d3d3d --><g><path d="m 34.594 13.406 l -1.406 1.406 c 2.352 2.352 3.813 5.598 3.813 9.188 c 0 3.59 -1.461 6.836 -3.813 9.188 l 1.406 1.406 c 0.688 -0.688 1.332 -1.438 1.875 -2.25 c 0.434 -0.648 0.762 -1.348 1.094 -2.063 c 0.078 -0.164 0.18 -0.305 0.25 -0.469 c 0.273 -0.648 0.445 -1.34 0.625 -2.031 c 0.316 -1.215 0.563 -2.469 0.563 -3.781 c 0 -1.313 -0.242 -2.566 -0.563 -3.781 c -0.18 -0.691 -0.352 -1.383 -0.625 -2.031 c -0.07 -0.164 -0.172 -0.305 -0.25 -0.469 c -0.332 -0.715 -0.66 -1.414 -1.094 -2.063 c -0.543 -0.813 -1.188 -1.563 -1.875 -2.25 m 0 0" fill="#666" stroke="none" fill-rule="nonzero" fill-opacity="1"/><path d="m 24 9 c -8.285 0 -15 6.715 -15 15 c 0 8.285 6.715 15 15 15 c 4.141 0 7.879 -1.691 10.594 -4.406 l -1.406 -1.406 c -2.352 2.352 -5.598 3.813 -9.188 3.813 c -7.18 0 -13 -5.82 -13 -13 c 0 -7.18 5.82 -13 13 -13 c 3.59 0 6.836 1.461 9.188 3.813 l 1.406 -1.406 c -2.715 -2.711 -6.453 -4.395 -10.594 -4.395 m 0 -0.004" fill="#f9f9f9" stroke="none" fill-rule="nonzero" fill-opacity="1"/><path d="m 19.5 14.246 l 9 0 c 0.414 0 0.75 0.336 0.75 0.75 l 0 9 c 0 0.414 -0.336 0.75 -0.75 0.75 l -9 0 c -0.414 0 -0.75 -0.336 -0.75 -0.75 l 0 -9 c 0 -0.414 0.336 -0.75 0.75 -0.75 m 0 0" fill="#a3a3a3" stroke="none" fill-rule="nonzero" fill-opacity="1"/><path d="m 15.75 20.25 l 16.5 0 c 0.414 0 0.75 0.332 0.75 0.746 l 0 7.504 c 0 0.414 -0.336 0.75 -0.75 0.75 l -16.5 0 c -0.414 0 -0.75 -0.336 -0.75 -0.75 l 0 -7.504 c 0 -0.414 0.336 -0.746 0.75 -0.746 m 0 0" fill="#d5d5d5" stroke="none" fill-rule="nonzero" fill-opacity="1"/><path d="m 18.75 24.762 l 10.5 0 l 0 9 l -10.5 0 m 0 -9" fill="#f9f9f9" stroke="none" fill-rule="nonzero" fill-opacity="1"/><path d="m 18.75 22.496 l 0 4.5 l 3 -2.25 m -3 -2.25" fill="#007f7f" stroke="none" fill-rule="nonzero" fill-opacity="1"/><path d="m 17.25 22.496 l 0 4.5 l 3 -2.25 m -3 -2.25" fill="#007f7f" stroke="none" fill-rule="nonzero" fill-opacity="1"/><path d="m 15.75 22.496 l 0 4.5 l 3 -2.25 m -3 -2.25" fill="#007f7f" stroke="none" fill-rule="nonzero" fill-opacity="1"/></g></g></g><g><path d="m 20 4 -7.313 3.03 -5.656 5.656 -3.03 7.313 0 8 3.03 7.313 5.656 5.656 7.313 3.03 8 0 7.313 -3.03 5.656 -5.656 3.03 -7.313 0 -8 -3.03 -7.313 -5.656 -5.656 -7.313 -3.03 -8 0 z" clip-path="url(#clipPath4313)" transform="matrix(0,1,-1,0,48,0)" opacity="0.3" stroke-opacity="1" stroke-dasharray="none" visibility="visible" fill="none" display="inline" stroke="url(#linearGradient4375)" color="#000" stroke-width="1" stroke-miterlimit="4"/><path d="m 24 2.344 -4 1.656 -4.281 0 -3.03 3.03 l -4 1.656 -1.656 4 l -3.03 3.03 0 4.281 -1.656 4 1.656 4 l 0 4.281 3.03 3.03 1.656 4 4 1.656 l 3.03 3.03 4.281 0 4 1.656 4 -1.656 l 4.281 0 3.03 -3.03 4 -1.656 1.656 -4 l 3.03 -3.03 0 -4.281 1.656 -4 -1.656 -4 l 0 -4.281 -3.03 -3.03 -1.656 -4 -4 -1.656 l -3.03 -3.03 -4.281 0 -4 -1.656 z" clip-path="url(#clipPath4329)" opacity="0.2" stroke-opacity="1" visibility="visible" fill="none" display="inline" stroke="#000" color="#000" stroke-width="2"/></g></svg>