<svg viewBox="0 0 48 48" xmlns:xlink="http://www.w3.org/1999/xlink"><defs><clipPath clipPathUnits="userSpaceOnUse" id="clipPath4313"><path d="m 20 4 -7.313 3.03 -5.656 5.656 -3.03 7.313 0 8 3.03 7.313 5.656 5.656 7.313 3.03 8 0 7.313 -3.03 5.656 -5.656 3.03 -7.313 0 -8 -3.03 -7.313 -5.656 -5.656 -7.313 -3.03 -8 0 z"/></clipPath><clipPath clipPathUnits="userSpaceOnUse" id="clipPath4329"><path d="m 24 2.344 -4 1.656 -4.281 0 -3.03 3.03 l -4 1.656 -1.656 4 l -3.03 3.03 0 4.281 -1.656 4 1.656 4 l 0 4.281 3.03 3.03 1.656 4 4 1.656 l 3.03 3.03 4.281 0 4 1.656 4 -1.656 l 4.281 0 3.03 -3.03 4 -1.656 1.656 -4 l 3.03 -3.03 0 -4.281 1.656 -4 -1.656 -4 l 0 -4.281 -3.03 -3.03 -1.656 -4 -4 -1.656 l -3.03 -3.03 -4.281 0 -4 -1.656 z"/></clipPath><clipPath id="clipPath-856770575"><path d="m 24 2.344 l -4 1.656 l -4.281 0 l -3.03 3.03 l -4 1.656 l -1.656 4 l -3.03 3.03 l 0 4.281 l -1.656 4 l 1.656 4 l 0 4.281 l 3.03 3.03 l 1.656 4 l 4 1.656 l 3.03 3.03 l 4.281 0 l 4 1.656 l 4 -1.656 l 4.281 0 l 3.03 -3.03 l 4 -1.656 l 1.656 -4 l 3.03 -3.03 l 0 -4.281 l 1.656 -4 l -1.656 -4 l 0 -4.281 l -3.03 -3.03 l -1.656 -4 l -4 -1.656 l -3.03 -3.03 l -4.281 0 l -4 -1.656 z"/></clipPath><clipPath id="clipPath-868107861"><path d="m 24 2.344 l -4 1.656 l -4.281 0 l -3.03 3.03 l -4 1.656 l -1.656 4 l -3.03 3.03 l 0 4.281 l -1.656 4 l 1.656 4 l 0 4.281 l 3.03 3.03 l 1.656 4 l 4 1.656 l 3.03 3.03 l 4.281 0 l 4 1.656 l 4 -1.656 l 4.281 0 l 3.03 -3.03 l 4 -1.656 l 1.656 -4 l 3.03 -3.03 l 0 -4.281 l 1.656 -4 l -1.656 -4 l 0 -4.281 l -3.03 -3.03 l -1.656 -4 l -4 -1.656 l -3.03 -3.03 l -4.281 0 l -4 -1.656 z"/></clipPath><linearGradient id="linearGradient4317"><stop stop-color="#fff" stop-opacity="1"/><stop offset="1" stop-color="#fff" stop-opacity="0"/></linearGradient><clipPath clipPathUnits="userSpaceOnUse" id="clipPath4313"><path d="m 20 4 -7.313 3.03 -5.656 5.656 -3.03 7.313 0 8 3.03 7.313 5.656 5.656 7.313 3.03 8 0 7.313 -3.03 5.656 -5.656 3.03 -7.313 0 -8 -3.03 -7.313 -5.656 -5.656 -7.313 -3.03 -8 0 z"/></clipPath><linearGradient x2="44" x1="4" gradientUnits="userSpaceOnUse" id="linearGradient4375" xlink:href="#linearGradient4317"/><clipPath clipPathUnits="userSpaceOnUse" id="clipPath4329"><path d="m 24 2.344 -4 1.656 -4.281 0 -3.03 3.03 l -4 1.656 -1.656 4 l -3.03 3.03 0 4.281 -1.656 4 1.656 4 l 0 4.281 3.03 3.03 1.656 4 4 1.656 l 3.03 3.03 4.281 0 4 1.656 4 -1.656 l 4.281 0 3.03 -3.03 4 -1.656 1.656 -4 l 3.03 -3.03 0 -4.281 1.656 -4 -1.656 -4 l 0 -4.281 -3.03 -3.03 -1.656 -4 -4 -1.656 l -3.03 -3.03 -4.281 0 -4 -1.656 z"/></clipPath><linearGradient id="linear0" gradientUnits="userSpaceOnUse" x1="1.521" y1="6.63" x2="11.968" y2="6.659" gradientTransform="matrix(0,-3.543307,3.543307,0,0.000000350784,48)"><stop stop-color="#fb8e45" stop-opacity="1"/><stop offset="1" stop-color="#20b8e5" stop-opacity="1"/></linearGradient><linearGradient id="linear0" gradientUnits="userSpaceOnUse" x1="1.521" y1="6.63" x2="11.968" y2="6.659" gradientTransform="matrix(0,-3.543307,3.543307,0,0.000000350784,48)"><stop stop-color="#fb8e45" stop-opacity="1"/><stop offset="1" stop-color="#20b8e5" stop-opacity="1"/></linearGradient><path id="SVGCleanerId_0" d="m 24 2.344 l -4 1.656 l -4.281 0 l -3.03 3.03 l -4 1.656 l -1.656 4 l -3.03 3.03 l 0 4.281 l -1.656 4 l 1.656 4 l 0 4.281 l 3.03 3.03 l 1.656 4 l 4 1.656 l 3.03 3.03 l 4.281 0 l 4 1.656 l 4 -1.656 l 4.281 0 l 3.03 -3.03 l 4 -1.656 l 1.656 -4 l 3.03 -3.03 l 0 -4.281 l 1.656 -4 l -1.656 -4 l 0 -4.281 l -3.03 -3.03 l -1.656 -4 l -4 -1.656 l -3.03 -3.03 l -4.281 0 l -4 -1.656 z" visibility="visible" display="inline" fill-rule="nonzero" color="#000" fill-opacity="1"/></defs><g><path d="m 2.563 24.5 l -0.219 0.5 l 1.656 4 l 0 -1 l -1.438 -3.5 z m 42.875 0 l -1.438 3.5 l 0 1 l 1.656 -4 l -0.219 -0.5 z m -41.44 7.781 l 0 1 l 3.03 3.03 l 1.656 4 l 4 1.656 l 3.03 3.03 l 4.281 0 l 4 1.656 l 4 -1.656 l 4.281 0 l 3.03 -3.03 l 4 -1.656 l 1.656 -4 l 3.03 -3.03 l 0 -1 l -3.03 3.03 l -1.656 4 l -4 1.656 l -3.03 3.03 l -4.281 0 l -4 1.656 l -4 -1.656 l -4.281 0 l -3.03 -3.03 l -4 -1.656 l -1.656 -4 l -3.03 -3.03 z" opacity="0.3" visibility="visible" fill="#000" display="inline" fill-rule="nonzero" stroke="none" fill-opacity="1" color="#000"/></g><g><use fill="#eee" stroke="none" xlink:href="#SVGCleanerId_0"/><path d="m 24 2.344 l -4 1.656 l 8 0 l -4 -1.656 z m 4 1.656 l 7.313 3.03 l -3.03 -3.03 l -4.281 0 z m 7.313 3.03 l 5.656 5.656 l -1.656 -4 l -4 -1.656 z m 5.656 5.656 l 3.03 7.313 l 0 -4.281 l -3.03 -3.03 z m 3.03 7.313 l 0 8 l 1.656 -4 l -1.656 -4 z m 0 8 l -3.03 7.313 l 3.03 -3.03 l 0 -4.281 z m -3.03 7.313 l -5.656 5.656 l 4 -1.656 l 1.656 -4 z m -5.656 5.656 l -7.313 3.03 l 4.281 0 l 3.03 -3.03 z m -7.313 3.03 l -8 0 l 4 1.656 l 4 -1.656 z m -8 0 l -7.313 -3.03 l 3.03 3.03 l 4.281 0 z m -7.313 -3.03 l -5.656 -5.656 l 1.656 4 l 4 1.656 z m -5.656 -5.656 l -3.03 -7.313 l 0 4.281 l 3.03 3.03 z m -3.03 -7.313 l 0 -8 l -1.656 4 l 1.656 4 z m 0 -8 l 3.03 -7.313 l -3.03 3.03 l 0 4.281 z m 3.03 -7.313 l 5.656 -5.656 l -4 1.656 l -1.656 4 z m 5.656 -5.656 l 7.313 -3.03 l -4.281 0 l -3.03 3.03 z" opacity="0.05" visibility="visible" fill="#eee" display="inline" fill-rule="nonzero" stroke="none" fill-opacity="1" color="#000"/></g><g><use opacity="0.05" stroke-opacity="1" stroke-dasharray="none" fill="#000" stroke="#000" stroke-width="2" stroke-miterlimit="4" xlink:href="#SVGCleanerId_0"/><use opacity="0.1" stroke-opacity="1" stroke-dasharray="none" fill="#000" stroke="#000" stroke-width="1" stroke-miterlimit="4" xlink:href="#SVGCleanerId_0"/></g><g><g clip-path="url(#clipPath-856770575)"><g transform="translate(0,1)"><g opacity="0.1"><!-- color: #eeeeee --><g><rect width="48" height="48" fill="#000" stroke="none"/><path d="m 23.25 26.629 c -2.191 -2.746 -2.859 -5.352 -1.992 -8.172 c 0.242 -0.781 0.473 -1.699 0.516 -2.043 c 0.074 -0.609 0.066 -0.645 -0.301 -1.012 c -0.207 -0.211 -0.645 -0.539 -0.969 -0.73 l -0.594 -0.344 l -1.113 0.137 c -2.926 0.352 -4.668 1.285 -6.352 3.391 c -0.441 0.551 -0.57 0.492 -0.309 -0.133 c 1.52 -2.477 4.512 -3.598 6.648 -3.887 c 1.285 -0.25 1.578 -0.344 1.715 -0.563 c 0.383 -0.594 1.012 -1.16 1.371 -1.234 c 0.547 -0.113 1.52 0.141 1.859 0.48 c 0.469 0.465 0.57 1 0.496 2.613 c -0.035 0.789 -0.137 1.688 -0.23 1.996 c -0.172 0.641 -0.199 1.246 -0.23 1.906 c 4.625 1.672 9.137 4.254 12.227 7.453 c -0.672 -0.402 -1.73 -0.875 -2.262 -1.031 c 2.426 1.309 1.934 3.363 -0.195 1.563 c 0.078 -0.027 0.316 0.035 0.531 0.145 c 0.215 0.105 0.441 0.18 0.508 0.156 c -1.703 -2.039 -5.359 -0.805 -6.52 0.215 c -0.813 2.719 -0.277 6.098 -0.926 8.367 c -0.203 0.148 -0.43 0.086 -0.523 0.027 c 0.375 -2.68 0.387 -5.586 0.313 -7.961 l -0.746 -0.055 c -0.41 -0.031 -0.824 -0.078 -0.914 -0.102 c 0.277 2.492 0.457 5.328 0.457 8.04 c -0.133 0.18 -0.324 0.191 -0.543 0.008 c -0.176 -3.688 0.34 -6.211 -1.926 -9.215 m 0.004 -0.012" fill="#000" stroke="none" fill-rule="nonzero" fill-opacity="1"/></g></g></g></g></g><g><g clip-path="url(#clipPath-868107861)"><!-- color: #eeeeee --><g><rect width="48" height="48" fill="url(#linear0)" stroke="none"/><path d="m 23.25 26.629 c -2.191 -2.746 -2.859 -5.352 -1.992 -8.172 c 0.242 -0.781 0.473 -1.699 0.516 -2.043 c 0.074 -0.609 0.066 -0.645 -0.301 -1.012 c -0.207 -0.211 -0.645 -0.539 -0.969 -0.73 l -0.594 -0.344 l -1.113 0.137 c -2.926 0.352 -4.668 1.285 -6.352 3.391 c -0.441 0.551 -0.57 0.492 -0.309 -0.133 c 1.52 -2.477 4.512 -3.598 6.648 -3.887 c 1.285 -0.25 1.578 -0.344 1.715 -0.563 c 0.383 -0.594 1.012 -1.16 1.371 -1.234 c 0.547 -0.113 1.52 0.141 1.859 0.48 c 0.469 0.465 0.57 1 0.496 2.613 c -0.035 0.789 -0.137 1.688 -0.23 1.996 c -0.172 0.641 -0.199 1.246 -0.23 1.906 c 4.625 1.672 9.137 4.254 12.227 7.453 c -0.672 -0.402 -1.73 -0.875 -2.262 -1.031 c 2.426 1.309 1.934 3.363 -0.195 1.563 c 0.078 -0.027 0.316 0.035 0.531 0.145 c 0.215 0.105 0.441 0.18 0.508 0.156 c -1.703 -2.039 -5.359 -0.805 -6.52 0.215 c -0.813 2.719 -0.277 6.098 -0.926 8.367 c -0.203 0.148 -0.43 0.086 -0.523 0.027 c 0.375 -2.68 0.387 -5.586 0.313 -7.961 l -0.746 -0.055 c -0.41 -0.031 -0.824 -0.078 -0.914 -0.102 c 0.277 2.492 0.457 5.328 0.457 8.04 c -0.133 0.18 -0.324 0.191 -0.543 0.008 c -0.176 -3.688 0.34 -6.211 -1.926 -9.215 m 0.004 -0.012" fill="#001936" stroke="none" fill-rule="nonzero" fill-opacity="1"/></g></g></g><g><path d="m 20 4 -7.313 3.03 -5.656 5.656 -3.03 7.313 0 8 3.03 7.313 5.656 5.656 7.313 3.03 8 0 7.313 -3.03 5.656 -5.656 3.03 -7.313 0 -8 -3.03 -7.313 -5.656 -5.656 -7.313 -3.03 -8 0 z" clip-path="url(#clipPath4313)" transform="matrix(0,1,-1,0,48,0)" opacity="0.3" stroke-opacity="1" stroke-dasharray="none" visibility="visible" fill="none" display="inline" stroke="url(#linearGradient4375)" color="#000" stroke-width="1" stroke-miterlimit="4"/><path d="m 24 2.344 -4 1.656 -4.281 0 -3.03 3.03 l -4 1.656 -1.656 4 l -3.03 3.03 0 4.281 -1.656 4 1.656 4 l 0 4.281 3.03 3.03 1.656 4 4 1.656 l 3.03 3.03 4.281 0 4 1.656 4 -1.656 l 4.281 0 3.03 -3.03 4 -1.656 1.656 -4 l 3.03 -3.03 0 -4.281 1.656 -4 -1.656 -4 l 0 -4.281 -3.03 -3.03 -1.656 -4 -4 -1.656 l -3.03 -3.03 -4.281 0 -4 -1.656 z" clip-path="url(#clipPath4329)" opacity="0.2" stroke-opacity="1" visibility="visible" fill="none" display="inline" stroke="#000" color="#000" stroke-width="2"/></g></svg>