<svg viewBox="0 0 48 48" xmlns:xlink="http://www.w3.org/1999/xlink"><defs><clipPath clipPathUnits="userSpaceOnUse" id="clipPath4313"><path d="m 20 4 -7.313 3.03 -5.656 5.656 -3.03 7.313 0 8 3.03 7.313 5.656 5.656 7.313 3.03 8 0 7.313 -3.03 5.656 -5.656 3.03 -7.313 0 -8 -3.03 -7.313 -5.656 -5.656 -7.313 -3.03 -8 0 z"/></clipPath><clipPath clipPathUnits="userSpaceOnUse" id="clipPath4329"><path d="m 24 2.344 -4 1.656 -4.281 0 -3.03 3.03 l -4 1.656 -1.656 4 l -3.03 3.03 0 4.281 -1.656 4 1.656 4 l 0 4.281 3.03 3.03 1.656 4 4 1.656 l 3.03 3.03 4.281 0 4 1.656 4 -1.656 l 4.281 0 3.03 -3.03 4 -1.656 1.656 -4 l 3.03 -3.03 0 -4.281 1.656 -4 -1.656 -4 l 0 -4.281 -3.03 -3.03 -1.656 -4 -4 -1.656 l -3.03 -3.03 -4.281 0 -4 -1.656 z"/></clipPath><clipPath id="clipPath-318209865"><path d="m 24 2.344 l -4 1.656 l -4.281 0 l -3.03 3.03 l -4 1.656 l -1.656 4 l -3.03 3.03 l 0 4.281 l -1.656 4 l 1.656 4 l 0 4.281 l 3.03 3.03 l 1.656 4 l 4 1.656 l 3.03 3.03 l 4.281 0 l 4 1.656 l 4 -1.656 l 4.281 0 l 3.03 -3.03 l 4 -1.656 l 1.656 -4 l 3.03 -3.03 l 0 -4.281 l 1.656 -4 l -1.656 -4 l 0 -4.281 l -3.03 -3.03 l -1.656 -4 l -4 -1.656 l -3.03 -3.03 l -4.281 0 l -4 -1.656 z"/></clipPath><clipPath id="clipPath-327803576"><path d="m 24 2.344 l -4 1.656 l -4.281 0 l -3.03 3.03 l -4 1.656 l -1.656 4 l -3.03 3.03 l 0 4.281 l -1.656 4 l 1.656 4 l 0 4.281 l 3.03 3.03 l 1.656 4 l 4 1.656 l 3.03 3.03 l 4.281 0 l 4 1.656 l 4 -1.656 l 4.281 0 l 3.03 -3.03 l 4 -1.656 l 1.656 -4 l 3.03 -3.03 l 0 -4.281 l 1.656 -4 l -1.656 -4 l 0 -4.281 l -3.03 -3.03 l -1.656 -4 l -4 -1.656 l -3.03 -3.03 l -4.281 0 l -4 -1.656 z"/></clipPath><linearGradient id="linearGradient4317"><stop stop-color="#fff" stop-opacity="1"/><stop offset="1" stop-color="#fff" stop-opacity="0"/></linearGradient><clipPath clipPathUnits="userSpaceOnUse" id="clipPath4313"><path d="m 20 4 -7.313 3.03 -5.656 5.656 -3.03 7.313 0 8 3.03 7.313 5.656 5.656 7.313 3.03 8 0 7.313 -3.03 5.656 -5.656 3.03 -7.313 0 -8 -3.03 -7.313 -5.656 -5.656 -7.313 -3.03 -8 0 z"/></clipPath><linearGradient x2="44" x1="4" gradientUnits="userSpaceOnUse" id="linearGradient4375" xlink:href="#linearGradient4317"/><clipPath clipPathUnits="userSpaceOnUse" id="clipPath4329"><path d="m 24 2.344 -4 1.656 -4.281 0 -3.03 3.03 l -4 1.656 -1.656 4 l -3.03 3.03 0 4.281 -1.656 4 1.656 4 l 0 4.281 3.03 3.03 1.656 4 4 1.656 l 3.03 3.03 4.281 0 4 1.656 4 -1.656 l 4.281 0 3.03 -3.03 4 -1.656 1.656 -4 l 3.03 -3.03 0 -4.281 1.656 -4 -1.656 -4 l 0 -4.281 -3.03 -3.03 -1.656 -4 -4 -1.656 l -3.03 -3.03 -4.281 0 -4 -1.656 z"/></clipPath><path id="SVGCleanerId_0" d="m 24 2.344 l -4 1.656 l -4.281 0 l -3.03 3.03 l -4 1.656 l -1.656 4 l -3.03 3.03 l 0 4.281 l -1.656 4 l 1.656 4 l 0 4.281 l 3.03 3.03 l 1.656 4 l 4 1.656 l 3.03 3.03 l 4.281 0 l 4 1.656 l 4 -1.656 l 4.281 0 l 3.03 -3.03 l 4 -1.656 l 1.656 -4 l 3.03 -3.03 l 0 -4.281 l 1.656 -4 l -1.656 -4 l 0 -4.281 l -3.03 -3.03 l -1.656 -4 l -4 -1.656 l -3.03 -3.03 l -4.281 0 l -4 -1.656 z" visibility="visible" display="inline" fill-rule="nonzero" color="#000" fill-opacity="1"/></defs><g><path d="m 2.563 24.5 l -0.219 0.5 l 1.656 4 l 0 -1 l -1.438 -3.5 z m 42.875 0 l -1.438 3.5 l 0 1 l 1.656 -4 l -0.219 -0.5 z m -41.44 7.781 l 0 1 l 3.03 3.03 l 1.656 4 l 4 1.656 l 3.03 3.03 l 4.281 0 l 4 1.656 l 4 -1.656 l 4.281 0 l 3.03 -3.03 l 4 -1.656 l 1.656 -4 l 3.03 -3.03 l 0 -1 l -3.03 3.03 l -1.656 4 l -4 1.656 l -3.03 3.03 l -4.281 0 l -4 1.656 l -4 -1.656 l -4.281 0 l -3.03 -3.03 l -4 -1.656 l -1.656 -4 l -3.03 -3.03 z" opacity="0.3" visibility="visible" fill="#000" display="inline" fill-rule="nonzero" stroke="none" fill-opacity="1" color="#000"/></g><g><use fill="#45a9f9" stroke="none" xlink:href="#SVGCleanerId_0"/><path d="m 24 2.344 l -4 1.656 l 8 0 l -4 -1.656 z m 4 1.656 l 7.313 3.03 l -3.03 -3.03 l -4.281 0 z m 7.313 3.03 l 5.656 5.656 l -1.656 -4 l -4 -1.656 z m 5.656 5.656 l 3.03 7.313 l 0 -4.281 l -3.03 -3.03 z m 3.03 7.313 l 0 8 l 1.656 -4 l -1.656 -4 z m 0 8 l -3.03 7.313 l 3.03 -3.03 l 0 -4.281 z m -3.03 7.313 l -5.656 5.656 l 4 -1.656 l 1.656 -4 z m -5.656 5.656 l -7.313 3.03 l 4.281 0 l 3.03 -3.03 z m -7.313 3.03 l -8 0 l 4 1.656 l 4 -1.656 z m -8 0 l -7.313 -3.03 l 3.03 3.03 l 4.281 0 z m -7.313 -3.03 l -5.656 -5.656 l 1.656 4 l 4 1.656 z m -5.656 -5.656 l -3.03 -7.313 l 0 4.281 l 3.03 3.03 z m -3.03 -7.313 l 0 -8 l -1.656 4 l 1.656 4 z m 0 -8 l 3.03 -7.313 l -3.03 3.03 l 0 4.281 z m 3.03 -7.313 l 5.656 -5.656 l -4 1.656 l -1.656 4 z m 5.656 -5.656 l 7.313 -3.03 l -4.281 0 l -3.03 3.03 z" opacity="0.05" visibility="visible" fill="#45a9f9" display="inline" fill-rule="nonzero" stroke="none" fill-opacity="1" color="#000"/></g><g><use opacity="0.05" stroke-opacity="1" stroke-dasharray="none" fill="#000" stroke="#000" stroke-width="2" stroke-miterlimit="4" xlink:href="#SVGCleanerId_0"/><use opacity="0.1" stroke-opacity="1" stroke-dasharray="none" fill="#000" stroke="#000" stroke-width="1" stroke-miterlimit="4" xlink:href="#SVGCleanerId_0"/></g><g><g clip-path="url(#clipPath-318209865)"><g transform="translate(0,1)"><g opacity="0.1"><!-- color: #45a9f9 --><g><path d="m 25.91 12 l -4.172 0.297 l 0 16.617 l 4.172 -0.508 l 0 -7.254 c 1.809 2.73 3.262 5.27 5.684 7.91 l 4.32 -1.242 c -2.313 -2.68 -4.04 -5.04 -5.617 -7.613 c 1.641 -2.418 3.695 -4.848 5.703 -7.02 l -4.477 -1.098 c -2.09 2.355 -3.949 4.789 -5.613 7.234 m -9.504 -3.914 c -0.059 0.008 -0.129 0.043 -0.184 0.098 c -0.492 0.465 -0.957 0.93 -1.445 1.395 c -0.215 0.207 0.004 0.453 0.098 0.625 l 0.992 1.371 l 0.742 1 c 0.105 0.145 0.137 0.16 0.082 0.262 c -0.066 0.105 -0.121 0.191 -0.184 0.297 c -0.965 1.621 -0.289 1.746 -2.355 2.273 l -1.582 0.262 c -0.234 0.078 -0.539 0.07 -0.555 0.395 c 0 0.656 -0.02 1.309 -0.02 1.961 c -0.012 0.301 0.324 0.328 0.523 0.379 l 1.684 0.293 l 1.262 0.23 c 0.172 0.023 0.211 -0.016 0.25 0.113 c 0.516 2.176 1.191 1.676 0.066 3.578 l -0.906 1.262 c -0.121 0.219 -0.344 0.434 -0.117 0.656 c 0.477 0.473 0.934 0.949 1.414 1.422 c 0.211 0.207 0.484 -0.004 0.656 -0.098 l 1.395 -0.969 l 1.043 -0.703 c 0.145 -0.117 0.164 -0.145 0.27 -0.082 c 2.09 1.277 2.164 0.355 2.773 2.504 l 0.301 1.539 c 0.078 0.23 0.086 0.527 0.406 0.539 l 2.031 0 c 0.305 0 0.332 -0.348 0.371 -0.539 l 0.285 -1.637 l 0.203 -1.211 c 0.012 -0.117 0.008 -0.176 0.031 -0.215 c 2.449 -0.504 1.84 -1.215 3.832 -0.082 l 1.293 0.883 c 0.238 0.117 0.465 0.32 0.691 0.102 c 0.48 -0.453 0.957 -0.91 1.438 -1.359 c 0.215 -0.219 0.004 -0.469 -0.098 -0.637 l -0.02 0 l -0.941 -1.293 l -0.621 0.211 c -0.16 0.105 -0.371 0.066 -0.559 -0.18 l -1.359 -1.75 c -1.27 1.711 -3.324 2.816 -5.652 2.816 c -3.832 0 -6.961 -3.043 -6.961 -6.777 c 0 -2.652 1.578 -4.949 3.867 -6.06 l 0 -1.559 c -0.078 0.039 -0.168 0.059 -0.234 0.082 c -0.895 0.363 -0.953 0.527 -2.418 -0.293 l -1.293 -0.898 c -0.18 -0.078 -0.34 -0.227 -0.504 -0.188 m 4.441 3.484 c -1.945 1.07 -3.266 3.121 -3.266 5.453 c 0 3.441 2.883 6.254 6.43 6.254 c 2.191 0 4.113 -1.082 5.273 -2.727 l -0.063 -0.133 c -1.359 1.469 -2.895 2.422 -5.23 2.473 c -2.91 0.051 -5.855 -2.473 -5.871 -5.797 c -0.023 -2.145 0.992 -3.586 2.723 -4.613 l 0 -0.902 m 0.004 0" fill="#000" stroke="none" fill-rule="evenodd" fill-opacity="1"/></g></g></g></g></g><g><g clip-path="url(#clipPath-327803576)"><!-- color: #45a9f9 --><g><path d="m 25.91 12 l -4.172 0.297 l 0 16.617 l 4.172 -0.508 l 0 -7.254 c 1.809 2.73 3.262 5.27 5.684 7.91 l 4.32 -1.242 c -2.313 -2.68 -4.04 -5.04 -5.617 -7.613 c 1.641 -2.418 3.695 -4.848 5.703 -7.02 l -4.477 -1.098 c -2.09 2.355 -3.949 4.789 -5.613 7.234 m -9.504 -3.914 c -0.059 0.008 -0.129 0.043 -0.184 0.098 c -0.492 0.465 -0.957 0.93 -1.445 1.395 c -0.215 0.207 0.004 0.453 0.098 0.625 l 0.992 1.371 l 0.742 1 c 0.105 0.145 0.137 0.16 0.082 0.262 c -0.066 0.105 -0.121 0.191 -0.184 0.297 c -0.965 1.621 -0.289 1.746 -2.355 2.273 l -1.582 0.262 c -0.234 0.078 -0.539 0.07 -0.555 0.395 c 0 0.656 -0.02 1.309 -0.02 1.961 c -0.012 0.301 0.324 0.328 0.523 0.379 l 1.684 0.293 l 1.262 0.23 c 0.172 0.023 0.211 -0.016 0.25 0.113 c 0.516 2.176 1.191 1.676 0.066 3.578 l -0.906 1.262 c -0.121 0.219 -0.344 0.434 -0.117 0.656 c 0.477 0.473 0.934 0.949 1.414 1.422 c 0.211 0.207 0.484 -0.004 0.656 -0.098 l 1.395 -0.969 l 1.043 -0.703 c 0.145 -0.117 0.164 -0.145 0.27 -0.082 c 2.09 1.277 2.164 0.355 2.773 2.504 l 0.301 1.539 c 0.078 0.23 0.086 0.527 0.406 0.539 l 2.031 0 c 0.305 0 0.332 -0.348 0.371 -0.539 l 0.285 -1.637 l 0.203 -1.211 c 0.012 -0.117 0.008 -0.176 0.031 -0.215 c 2.449 -0.504 1.84 -1.215 3.832 -0.082 l 1.293 0.883 c 0.238 0.117 0.465 0.32 0.691 0.102 c 0.48 -0.453 0.957 -0.91 1.438 -1.359 c 0.215 -0.219 0.004 -0.469 -0.098 -0.637 l -0.02 0 l -0.941 -1.293 l -0.621 0.211 c -0.16 0.105 -0.371 0.066 -0.559 -0.18 l -1.359 -1.75 c -1.27 1.711 -3.324 2.816 -5.652 2.816 c -3.832 0 -6.961 -3.043 -6.961 -6.777 c 0 -2.652 1.578 -4.949 3.867 -6.06 l 0 -1.559 c -0.078 0.039 -0.168 0.059 -0.234 0.082 c -0.895 0.363 -0.953 0.527 -2.418 -0.293 l -1.293 -0.898 c -0.18 -0.078 -0.34 -0.227 -0.504 -0.188 m 4.441 3.484 c -1.945 1.07 -3.266 3.121 -3.266 5.453 c 0 3.441 2.883 6.254 6.43 6.254 c 2.191 0 4.113 -1.082 5.273 -2.727 l -0.063 -0.133 c -1.359 1.469 -2.895 2.422 -5.23 2.473 c -2.91 0.051 -5.855 -2.473 -5.871 -5.797 c -0.023 -2.145 0.992 -3.586 2.723 -4.613 l 0 -0.902 m 0.004 0" fill="#fff" stroke="none" fill-rule="evenodd" fill-opacity="1"/></g></g></g><g><path d="m 20 4 -7.313 3.03 -5.656 5.656 -3.03 7.313 0 8 3.03 7.313 5.656 5.656 7.313 3.03 8 0 7.313 -3.03 5.656 -5.656 3.03 -7.313 0 -8 -3.03 -7.313 -5.656 -5.656 -7.313 -3.03 -8 0 z" clip-path="url(#clipPath4313)" transform="matrix(0,1,-1,0,48,0)" opacity="0.3" stroke-opacity="1" stroke-dasharray="none" visibility="visible" fill="none" display="inline" stroke="url(#linearGradient4375)" color="#000" stroke-width="1" stroke-miterlimit="4"/><path d="m 24 2.344 -4 1.656 -4.281 0 -3.03 3.03 l -4 1.656 -1.656 4 l -3.03 3.03 0 4.281 -1.656 4 1.656 4 l 0 4.281 3.03 3.03 1.656 4 4 1.656 l 3.03 3.03 4.281 0 4 1.656 4 -1.656 l 4.281 0 3.03 -3.03 4 -1.656 1.656 -4 l 3.03 -3.03 0 -4.281 1.656 -4 -1.656 -4 l 0 -4.281 -3.03 -3.03 -1.656 -4 -4 -1.656 l -3.03 -3.03 -4.281 0 -4 -1.656 z" clip-path="url(#clipPath4329)" opacity="0.2" stroke-opacity="1" visibility="visible" fill="none" display="inline" stroke="#000" color="#000" stroke-width="2"/></g></svg>