<svg viewBox="0 0 48 48" xmlns:xlink="http://www.w3.org/1999/xlink"><defs><clipPath clipPathUnits="userSpaceOnUse" id="clipPath4313"><path d="m 20 4 -7.313 3.03 -5.656 5.656 -3.03 7.313 0 8 3.03 7.313 5.656 5.656 7.313 3.03 8 0 7.313 -3.03 5.656 -5.656 3.03 -7.313 0 -8 -3.03 -7.313 -5.656 -5.656 -7.313 -3.03 -8 0 z"/></clipPath><clipPath clipPathUnits="userSpaceOnUse" id="clipPath4329"><path d="m 24 2.344 -4 1.656 -4.281 0 -3.03 3.03 l -4 1.656 -1.656 4 l -3.03 3.03 0 4.281 -1.656 4 1.656 4 l 0 4.281 3.03 3.03 1.656 4 4 1.656 l 3.03 3.03 4.281 0 4 1.656 4 -1.656 l 4.281 0 3.03 -3.03 4 -1.656 1.656 -4 l 3.03 -3.03 0 -4.281 1.656 -4 -1.656 -4 l 0 -4.281 -3.03 -3.03 -1.656 -4 -4 -1.656 l -3.03 -3.03 -4.281 0 -4 -1.656 z"/></clipPath><clipPath id="clipPath-418905471"><path d="m 24 2.344 l -4 1.656 l -4.281 0 l -3.03 3.03 l -4 1.656 l -1.656 4 l -3.03 3.03 l 0 4.281 l -1.656 4 l 1.656 4 l 0 4.281 l 3.03 3.03 l 1.656 4 l 4 1.656 l 3.03 3.03 l 4.281 0 l 4 1.656 l 4 -1.656 l 4.281 0 l 3.03 -3.03 l 4 -1.656 l 1.656 -4 l 3.03 -3.03 l 0 -4.281 l 1.656 -4 l -1.656 -4 l 0 -4.281 l -3.03 -3.03 l -1.656 -4 l -4 -1.656 l -3.03 -3.03 l -4.281 0 l -4 -1.656 z"/></clipPath><clipPath id="clipPath-425199910"><path d="m 24 2.344 l -4 1.656 l -4.281 0 l -3.03 3.03 l -4 1.656 l -1.656 4 l -3.03 3.03 l 0 4.281 l -1.656 4 l 1.656 4 l 0 4.281 l 3.03 3.03 l 1.656 4 l 4 1.656 l 3.03 3.03 l 4.281 0 l 4 1.656 l 4 -1.656 l 4.281 0 l 3.03 -3.03 l 4 -1.656 l 1.656 -4 l 3.03 -3.03 l 0 -4.281 l 1.656 -4 l -1.656 -4 l 0 -4.281 l -3.03 -3.03 l -1.656 -4 l -4 -1.656 l -3.03 -3.03 l -4.281 0 l -4 -1.656 z"/></clipPath><linearGradient id="linearGradient4317"><stop stop-color="#fff" stop-opacity="1"/><stop offset="1" stop-color="#fff" stop-opacity="0"/></linearGradient><clipPath clipPathUnits="userSpaceOnUse" id="clipPath4313"><path d="m 20 4 -7.313 3.03 -5.656 5.656 -3.03 7.313 0 8 3.03 7.313 5.656 5.656 7.313 3.03 8 0 7.313 -3.03 5.656 -5.656 3.03 -7.313 0 -8 -3.03 -7.313 -5.656 -5.656 -7.313 -3.03 -8 0 z"/></clipPath><linearGradient x2="44" x1="4" gradientUnits="userSpaceOnUse" id="linearGradient4375" xlink:href="#linearGradient4317"/><clipPath clipPathUnits="userSpaceOnUse" id="clipPath4329"><path d="m 24 2.344 -4 1.656 -4.281 0 -3.03 3.03 l -4 1.656 -1.656 4 l -3.03 3.03 0 4.281 -1.656 4 1.656 4 l 0 4.281 3.03 3.03 1.656 4 4 1.656 l 3.03 3.03 4.281 0 4 1.656 4 -1.656 l 4.281 0 3.03 -3.03 4 -1.656 1.656 -4 l 3.03 -3.03 0 -4.281 1.656 -4 -1.656 -4 l 0 -4.281 -3.03 -3.03 -1.656 -4 -4 -1.656 l -3.03 -3.03 -4.281 0 -4 -1.656 z"/></clipPath><path id="SVGCleanerId_0" d="m 24 2.344 l -4 1.656 l -4.281 0 l -3.03 3.03 l -4 1.656 l -1.656 4 l -3.03 3.03 l 0 4.281 l -1.656 4 l 1.656 4 l 0 4.281 l 3.03 3.03 l 1.656 4 l 4 1.656 l 3.03 3.03 l 4.281 0 l 4 1.656 l 4 -1.656 l 4.281 0 l 3.03 -3.03 l 4 -1.656 l 1.656 -4 l 3.03 -3.03 l 0 -4.281 l 1.656 -4 l -1.656 -4 l 0 -4.281 l -3.03 -3.03 l -1.656 -4 l -4 -1.656 l -3.03 -3.03 l -4.281 0 l -4 -1.656 z" visibility="visible" display="inline" fill-rule="nonzero" color="#000" fill-opacity="1"/></defs><g><path d="m 2.563 24.5 l -0.219 0.5 l 1.656 4 l 0 -1 l -1.438 -3.5 z m 42.875 0 l -1.438 3.5 l 0 1 l 1.656 -4 l -0.219 -0.5 z m -41.44 7.781 l 0 1 l 3.03 3.03 l 1.656 4 l 4 1.656 l 3.03 3.03 l 4.281 0 l 4 1.656 l 4 -1.656 l 4.281 0 l 3.03 -3.03 l 4 -1.656 l 1.656 -4 l 3.03 -3.03 l 0 -1 l -3.03 3.03 l -1.656 4 l -4 1.656 l -3.03 3.03 l -4.281 0 l -4 1.656 l -4 -1.656 l -4.281 0 l -3.03 -3.03 l -4 -1.656 l -1.656 -4 l -3.03 -3.03 z" opacity="0.3" visibility="visible" fill="#000" display="inline" fill-rule="nonzero" stroke="none" fill-opacity="1" color="#000"/></g><g><use fill="#294172" stroke="none" xlink:href="#SVGCleanerId_0"/><path d="m 24 2.344 l -4 1.656 l 8 0 l -4 -1.656 z m 4 1.656 l 7.313 3.03 l -3.03 -3.03 l -4.281 0 z m 7.313 3.03 l 5.656 5.656 l -1.656 -4 l -4 -1.656 z m 5.656 5.656 l 3.03 7.313 l 0 -4.281 l -3.03 -3.03 z m 3.03 7.313 l 0 8 l 1.656 -4 l -1.656 -4 z m 0 8 l -3.03 7.313 l 3.03 -3.03 l 0 -4.281 z m -3.03 7.313 l -5.656 5.656 l 4 -1.656 l 1.656 -4 z m -5.656 5.656 l -7.313 3.03 l 4.281 0 l 3.03 -3.03 z m -7.313 3.03 l -8 0 l 4 1.656 l 4 -1.656 z m -8 0 l -7.313 -3.03 l 3.03 3.03 l 4.281 0 z m -7.313 -3.03 l -5.656 -5.656 l 1.656 4 l 4 1.656 z m -5.656 -5.656 l -3.03 -7.313 l 0 4.281 l 3.03 3.03 z m -3.03 -7.313 l 0 -8 l -1.656 4 l 1.656 4 z m 0 -8 l 3.03 -7.313 l -3.03 3.03 l 0 4.281 z m 3.03 -7.313 l 5.656 -5.656 l -4 1.656 l -1.656 4 z m 5.656 -5.656 l 7.313 -3.03 l -4.281 0 l -3.03 3.03 z" opacity="0.05" visibility="visible" fill="#294172" display="inline" fill-rule="nonzero" stroke="none" fill-opacity="1" color="#000"/></g><g><use opacity="0.05" stroke-opacity="1" stroke-dasharray="none" fill="#000" stroke="#000" stroke-width="2" stroke-miterlimit="4" xlink:href="#SVGCleanerId_0"/><use opacity="0.1" stroke-opacity="1" stroke-dasharray="none" fill="#000" stroke="#000" stroke-width="1" stroke-miterlimit="4" xlink:href="#SVGCleanerId_0"/></g><g><g clip-path="url(#clipPath-418905471)"><g transform="translate(0,1)"><g opacity="0.1"><!-- color: #294172 --><g><path d="m 29.2 25.598 c 3.738 0 6.805 -3.066 6.805 -6.797 c 0 -3.734 -3.066 -6.797 -6.805 -6.797 c -3.738 0 -6.801 3.063 -6.801 6.797 l 0 6.801 l 6.801 0 m 0 -3.188 l -3.621 0 l 0 -3.617 c 0 -2.01 1.605 -3.617 3.621 -3.617 c 2.02 0 3.621 1.602 3.621 3.617 c 0 2.01 -1.605 3.617 -3.621 3.617 m 0 0" fill="#000" stroke="none" fill-rule="nonzero" fill-opacity="1"/><path d="m 18.801 22.406 c -3.738 0 -6.805 3.066 -6.805 6.797 c 0 3.734 3.066 6.797 6.805 6.797 c 3.738 0 6.805 -3.063 6.805 -6.797 l 0 -6.797 m -6.805 3.184 l 3.621 0 l 0 3.617 c 0 2.01 -1.605 3.617 -3.621 3.617 c -2.02 0 -3.621 -1.602 -3.621 -3.617 c 0 -2.01 1.605 -3.617 3.621 -3.617 m 0 0" fill="#000" stroke="none" fill-rule="nonzero" fill-opacity="1"/><path d="m 29.2 12.01 c -3.758 0 -6.801 3.043 -6.801 6.797 l 0 3.613 l -2.855 0 c -0.887 0 -1.605 0.691 -1.605 1.586 c 0 0.879 0.711 1.578 1.594 1.578 l 2.359 0 c 0.281 0 0.508 0.227 0.508 0.508 l 0 3.117 c -0.004 1.977 -1.613 3.574 -3.594 3.574 c -0.672 0 -0.836 -0.086 -1.297 -0.086 c -0.965 0 -1.605 0.648 -1.605 1.527 c 0 0.734 0.625 1.367 1.398 1.566 c 0.523 0.141 0.934 0.199 1.504 0.199 c 3.758 0 6.805 -3.043 6.805 -6.797 l 0 -3.609 l 2.855 0 c 0.887 0 1.605 -0.699 1.605 -1.582 c 0 -0.887 -0.711 -1.582 -1.594 -1.582 l -2.363 0 c -0.273 0 -0.504 -0.23 -0.504 -0.512 l 0 -3.113 c 0 -1.98 1.609 -3.582 3.59 -3.582 c 0.672 0 0.836 0.09 1.297 0.09 c 0.969 0 1.609 -0.648 1.609 -1.531 c 0 -0.734 -0.629 -1.363 -1.395 -1.563 c -0.527 -0.141 -0.938 -0.199 -1.508 -0.199 m 0 0" fill="#000" stroke="none" fill-rule="nonzero" fill-opacity="1"/></g></g></g></g></g><g><g clip-path="url(#clipPath-425199910)"><!-- color: #294172 --><g><path d="m 29.2 25.598 c 3.738 0 6.805 -3.066 6.805 -6.797 c 0 -3.734 -3.066 -6.797 -6.805 -6.797 c -3.738 0 -6.801 3.063 -6.801 6.797 l 0 6.801 l 6.801 0 m 0 -3.188 l -3.621 0 l 0 -3.617 c 0 -2.01 1.605 -3.617 3.621 -3.617 c 2.02 0 3.621 1.602 3.621 3.617 c 0 2.01 -1.605 3.617 -3.621 3.617 m 0 0" fill="#3c6eb2" stroke="none" fill-rule="nonzero" fill-opacity="1"/><path d="m 18.801 22.406 c -3.738 0 -6.805 3.066 -6.805 6.797 c 0 3.734 3.066 6.797 6.805 6.797 c 3.738 0 6.805 -3.063 6.805 -6.797 l 0 -6.797 m -6.805 3.184 l 3.621 0 l 0 3.617 c 0 2.01 -1.605 3.617 -3.621 3.617 c -2.02 0 -3.621 -1.602 -3.621 -3.617 c 0 -2.01 1.605 -3.617 3.621 -3.617 m 0 0" fill="#3c6eb2" stroke="none" fill-rule="nonzero" fill-opacity="1"/><path d="m 29.2 12.01 c -3.758 0 -6.801 3.043 -6.801 6.797 l 0 3.613 l -2.855 0 c -0.887 0 -1.605 0.691 -1.605 1.586 c 0 0.879 0.711 1.578 1.594 1.578 l 2.359 0 c 0.281 0 0.508 0.227 0.508 0.508 l 0 3.117 c -0.004 1.977 -1.613 3.574 -3.594 3.574 c -0.672 0 -0.836 -0.086 -1.297 -0.086 c -0.965 0 -1.605 0.648 -1.605 1.527 c 0 0.734 0.625 1.367 1.398 1.566 c 0.523 0.141 0.934 0.199 1.504 0.199 c 3.758 0 6.805 -3.043 6.805 -6.797 l 0 -3.609 l 2.855 0 c 0.887 0 1.605 -0.699 1.605 -1.582 c 0 -0.887 -0.711 -1.582 -1.594 -1.582 l -2.363 0 c -0.273 0 -0.504 -0.23 -0.504 -0.512 l 0 -3.113 c 0 -1.98 1.609 -3.582 3.59 -3.582 c 0.672 0 0.836 0.09 1.297 0.09 c 0.969 0 1.609 -0.648 1.609 -1.531 c 0 -0.734 -0.629 -1.363 -1.395 -1.563 c -0.527 -0.141 -0.938 -0.199 -1.508 -0.199 m 0 0" fill="#f9f9f9" stroke="none" fill-rule="nonzero" fill-opacity="1"/></g></g></g><g><path d="m 20 4 -7.313 3.03 -5.656 5.656 -3.03 7.313 0 8 3.03 7.313 5.656 5.656 7.313 3.03 8 0 7.313 -3.03 5.656 -5.656 3.03 -7.313 0 -8 -3.03 -7.313 -5.656 -5.656 -7.313 -3.03 -8 0 z" clip-path="url(#clipPath4313)" transform="matrix(0,1,-1,0,48,0)" opacity="0.3" stroke-opacity="1" stroke-dasharray="none" visibility="visible" fill="none" display="inline" stroke="url(#linearGradient4375)" color="#000" stroke-width="1" stroke-miterlimit="4"/><path d="m 24 2.344 -4 1.656 -4.281 0 -3.03 3.03 l -4 1.656 -1.656 4 l -3.03 3.03 0 4.281 -1.656 4 1.656 4 l 0 4.281 3.03 3.03 1.656 4 4 1.656 l 3.03 3.03 4.281 0 4 1.656 4 -1.656 l 4.281 0 3.03 -3.03 4 -1.656 1.656 -4 l 3.03 -3.03 0 -4.281 1.656 -4 -1.656 -4 l 0 -4.281 -3.03 -3.03 -1.656 -4 -4 -1.656 l -3.03 -3.03 -4.281 0 -4 -1.656 z" clip-path="url(#clipPath4329)" opacity="0.2" stroke-opacity="1" visibility="visible" fill="none" display="inline" stroke="#000" color="#000" stroke-width="2"/></g></svg>