<svg viewBox="0 0 48 48" xmlns:xlink="http://www.w3.org/1999/xlink"><defs><clipPath clipPathUnits="userSpaceOnUse" id="clipPath4313"><path d="m 20 4 -7.313 3.03 -5.656 5.656 -3.03 7.313 0 8 3.03 7.313 5.656 5.656 7.313 3.03 8 0 7.313 -3.03 5.656 -5.656 3.03 -7.313 0 -8 -3.03 -7.313 -5.656 -5.656 -7.313 -3.03 -8 0 z"/></clipPath><clipPath clipPathUnits="userSpaceOnUse" id="clipPath4329"><path d="m 24 2.344 -4 1.656 -4.281 0 -3.03 3.03 l -4 1.656 -1.656 4 l -3.03 3.03 0 4.281 -1.656 4 1.656 4 l 0 4.281 3.03 3.03 1.656 4 4 1.656 l 3.03 3.03 4.281 0 4 1.656 4 -1.656 l 4.281 0 3.03 -3.03 4 -1.656 1.656 -4 l 3.03 -3.03 0 -4.281 1.656 -4 -1.656 -4 l 0 -4.281 -3.03 -3.03 -1.656 -4 -4 -1.656 l -3.03 -3.03 -4.281 0 -4 -1.656 z"/></clipPath><clipPath id="clipPath-005088762"><path d="m 24 2.344 l -4 1.656 l -4.281 0 l -3.03 3.03 l -4 1.656 l -1.656 4 l -3.03 3.03 l 0 4.281 l -1.656 4 l 1.656 4 l 0 4.281 l 3.03 3.03 l 1.656 4 l 4 1.656 l 3.03 3.03 l 4.281 0 l 4 1.656 l 4 -1.656 l 4.281 0 l 3.03 -3.03 l 4 -1.656 l 1.656 -4 l 3.03 -3.03 l 0 -4.281 l 1.656 -4 l -1.656 -4 l 0 -4.281 l -3.03 -3.03 l -1.656 -4 l -4 -1.656 l -3.03 -3.03 l -4.281 0 l -4 -1.656 z"/></clipPath><clipPath id="clipPath-017315144"><path d="m 24 2.344 l -4 1.656 l -4.281 0 l -3.03 3.03 l -4 1.656 l -1.656 4 l -3.03 3.03 l 0 4.281 l -1.656 4 l 1.656 4 l 0 4.281 l 3.03 3.03 l 1.656 4 l 4 1.656 l 3.03 3.03 l 4.281 0 l 4 1.656 l 4 -1.656 l 4.281 0 l 3.03 -3.03 l 4 -1.656 l 1.656 -4 l 3.03 -3.03 l 0 -4.281 l 1.656 -4 l -1.656 -4 l 0 -4.281 l -3.03 -3.03 l -1.656 -4 l -4 -1.656 l -3.03 -3.03 l -4.281 0 l -4 -1.656 z"/></clipPath><linearGradient id="linearGradient4317"><stop stop-color="#fff" stop-opacity="1"/><stop offset="1" stop-color="#fff" stop-opacity="0"/></linearGradient><clipPath clipPathUnits="userSpaceOnUse" id="clipPath4313"><path d="m 20 4 -7.313 3.03 -5.656 5.656 -3.03 7.313 0 8 3.03 7.313 5.656 5.656 7.313 3.03 8 0 7.313 -3.03 5.656 -5.656 3.03 -7.313 0 -8 -3.03 -7.313 -5.656 -5.656 -7.313 -3.03 -8 0 z"/></clipPath><linearGradient x2="44" x1="4" gradientUnits="userSpaceOnUse" id="linearGradient4375" xlink:href="#linearGradient4317"/><clipPath clipPathUnits="userSpaceOnUse" id="clipPath4329"><path d="m 24 2.344 -4 1.656 -4.281 0 -3.03 3.03 l -4 1.656 -1.656 4 l -3.03 3.03 0 4.281 -1.656 4 1.656 4 l 0 4.281 3.03 3.03 1.656 4 4 1.656 l 3.03 3.03 4.281 0 4 1.656 4 -1.656 l 4.281 0 3.03 -3.03 4 -1.656 1.656 -4 l 3.03 -3.03 0 -4.281 1.656 -4 -1.656 -4 l 0 -4.281 -3.03 -3.03 -1.656 -4 -4 -1.656 l -3.03 -3.03 -4.281 0 -4 -1.656 z"/></clipPath><path id="SVGCleanerId_0" d="m 24 2.344 l -4 1.656 l -4.281 0 l -3.03 3.03 l -4 1.656 l -1.656 4 l -3.03 3.03 l 0 4.281 l -1.656 4 l 1.656 4 l 0 4.281 l 3.03 3.03 l 1.656 4 l 4 1.656 l 3.03 3.03 l 4.281 0 l 4 1.656 l 4 -1.656 l 4.281 0 l 3.03 -3.03 l 4 -1.656 l 1.656 -4 l 3.03 -3.03 l 0 -4.281 l 1.656 -4 l -1.656 -4 l 0 -4.281 l -3.03 -3.03 l -1.656 -4 l -4 -1.656 l -3.03 -3.03 l -4.281 0 l -4 -1.656 z" visibility="visible" display="inline" fill-rule="nonzero" color="#000" fill-opacity="1"/></defs><g><path d="m 2.563 24.5 l -0.219 0.5 l 1.656 4 l 0 -1 l -1.438 -3.5 z m 42.875 0 l -1.438 3.5 l 0 1 l 1.656 -4 l -0.219 -0.5 z m -41.44 7.781 l 0 1 l 3.03 3.03 l 1.656 4 l 4 1.656 l 3.03 3.03 l 4.281 0 l 4 1.656 l 4 -1.656 l 4.281 0 l 3.03 -3.03 l 4 -1.656 l 1.656 -4 l 3.03 -3.03 l 0 -1 l -3.03 3.03 l -1.656 4 l -4 1.656 l -3.03 3.03 l -4.281 0 l -4 1.656 l -4 -1.656 l -4.281 0 l -3.03 -3.03 l -4 -1.656 l -1.656 -4 l -3.03 -3.03 z" opacity="0.3" visibility="visible" fill="#000" display="inline" fill-rule="nonzero" stroke="none" fill-opacity="1" color="#000"/></g><g><use fill="#ce6137" stroke="none" xlink:href="#SVGCleanerId_0"/><path d="m 24 2.344 l -4 1.656 l 8 0 l -4 -1.656 z m 4 1.656 l 7.313 3.03 l -3.03 -3.03 l -4.281 0 z m 7.313 3.03 l 5.656 5.656 l -1.656 -4 l -4 -1.656 z m 5.656 5.656 l 3.03 7.313 l 0 -4.281 l -3.03 -3.03 z m 3.03 7.313 l 0 8 l 1.656 -4 l -1.656 -4 z m 0 8 l -3.03 7.313 l 3.03 -3.03 l 0 -4.281 z m -3.03 7.313 l -5.656 5.656 l 4 -1.656 l 1.656 -4 z m -5.656 5.656 l -7.313 3.03 l 4.281 0 l 3.03 -3.03 z m -7.313 3.03 l -8 0 l 4 1.656 l 4 -1.656 z m -8 0 l -7.313 -3.03 l 3.03 3.03 l 4.281 0 z m -7.313 -3.03 l -5.656 -5.656 l 1.656 4 l 4 1.656 z m -5.656 -5.656 l -3.03 -7.313 l 0 4.281 l 3.03 3.03 z m -3.03 -7.313 l 0 -8 l -1.656 4 l 1.656 4 z m 0 -8 l 3.03 -7.313 l -3.03 3.03 l 0 4.281 z m 3.03 -7.313 l 5.656 -5.656 l -4 1.656 l -1.656 4 z m 5.656 -5.656 l 7.313 -3.03 l -4.281 0 l -3.03 3.03 z" opacity="0.05" visibility="visible" fill="#ce6137" display="inline" fill-rule="nonzero" stroke="none" fill-opacity="1" color="#000"/></g><g><use opacity="0.05" stroke-opacity="1" stroke-dasharray="none" fill="#000" stroke="#000" stroke-width="2" stroke-miterlimit="4" xlink:href="#SVGCleanerId_0"/><use opacity="0.1" stroke-opacity="1" stroke-dasharray="none" fill="#000" stroke="#000" stroke-width="1" stroke-miterlimit="4" xlink:href="#SVGCleanerId_0"/></g><g><g clip-path="url(#clipPath-005088762)"><g transform="translate(0,1)"><g opacity="0.1"><!-- color: #ce6137 --><g><path d="m 13 15 l 22 0 l 0 9 l -22 0 m 0 -9" fill="#000" stroke="none" fill-rule="nonzero" fill-opacity="1"/><path d="m 16 16.25 c 0 -1.125 0 -2.25 1.273 -2.25 l 4.453 0 c 1.273 0 1.273 1.125 1.273 2.25 m -7 0" fill="#000" stroke="none" fill-rule="nonzero" fill-opacity="1"/><path d="m 15 16 l 17 0 l 0 12 l -17 0 m 0 -12" fill="#000" stroke="none" fill-rule="nonzero" fill-opacity="1"/><path d="m 16 17 l 18 0 l 0 4 l -18 0 m 0 -4" fill="#000" stroke="none" fill-rule="nonzero" fill-opacity="1"/><path d="m 17 18 l 16 0 l 0 12 l -16 0 m 0 -12" fill="#000" stroke="none" fill-rule="nonzero" fill-opacity="1"/><path d="m 11 19 l 26 0 l -2 14 l -22 0 m -2 -14" fill="#000" stroke="none" fill-rule="nonzero" fill-opacity="1"/><path d="m 27.19 19.961 c -0.047 0 -0.078 0.012 -0.102 0.051 c -0.125 0.219 0.121 0.93 -0.066 1.301 c -0.184 0.371 -0.184 0.465 -1.668 0.281 c -1.484 -0.184 -3.711 0.465 -4.512 1.266 c -0.813 0.805 -2.195 2.844 -2.48 4.02 c -0.273 1.176 -0.148 1.238 0.223 1.055 c 0.367 -0.188 0.68 -1.828 2.867 -2.906 c 2.199 -1.082 3.223 -0.219 3.223 -0.219 c 0 0 -1.891 -0.25 -3.277 0.895 c -1.391 1.148 -2.258 2.039 -2.227 2.391 c 0.031 0.34 0.152 0.27 0.375 0 c 0.215 -0.281 1.512 -1.98 3.059 -2.539 c 1.547 -0.563 2.195 -0.523 2.781 -0.215 c 0.59 0.309 0.715 0.609 -0.117 0.824 c -0.84 0.223 -1.18 0.125 -1.18 0.125 c 0 0 0.711 0.648 1.727 0.648 c 1.023 0 1.645 -0.063 1.645 -0.063 c 0 0 2.531 2.629 3.184 3.156 c 0.645 0.523 1.363 0.277 1.363 -0.035 c 0 -0.309 -0.313 -1.176 -0.313 -1.176 c 0 0 0.648 -1.457 -0.098 -3.094 c -0.742 -1.641 -2.781 -3.336 -2.781 -3.336 c 0 0 -0.215 -0.93 -0.676 -1.547 c -0.375 -0.5 -0.754 -0.879 -0.949 -0.887 m -10.531 7.492 c -0.09 0.004 -0.184 0.027 -0.27 0.078 c -0.711 0.402 -0.34 1.117 0.281 1.117 c 0.617 0 1.297 -0.25 1.297 -0.25 c 0 0 -0.664 -0.969 -1.309 -0.941 m 1.367 1.191 c 0 0 -1.387 0.211 -1.543 0.863 c -0.156 0.648 0.582 0.836 1.047 0.496 c 0.465 -0.34 0.496 -1.359 0.496 -1.359 m 0 0" fill="#000" stroke="none" fill-rule="nonzero" fill-opacity="0.729"/></g></g></g></g></g><g><g clip-path="url(#clipPath-017315144)"><!-- color: #ce6137 --><g><path d="m 13 15 l 22 0 l 0 9 l -22 0 m 0 -9" fill="#ea8e36" stroke="none" fill-rule="nonzero" fill-opacity="1"/><path d="m 16 16.25 c 0 -1.125 0 -2.25 1.273 -2.25 l 4.453 0 c 1.273 0 1.273 1.125 1.273 2.25 m -7 0" fill="#ea8e36" stroke="none" fill-rule="nonzero" fill-opacity="1"/><path d="m 15 16 l 17 0 l 0 12 l -17 0 m 0 -12" fill="#d6d6d6" stroke="none" fill-rule="nonzero" fill-opacity="1"/><path d="m 16 17 l 18 0 l 0 4 l -18 0 m 0 -4" fill="#95959c" stroke="none" fill-rule="nonzero" fill-opacity="1"/><path d="m 17 18 l 16 0 l 0 12 l -16 0 m 0 -12" fill="#f9f9f9" stroke="none" fill-rule="nonzero" fill-opacity="1"/><path d="m 11 19 l 26 0 l -2 14 l -22 0 m -2 -14" fill="#f2b962" stroke="none" fill-rule="nonzero" fill-opacity="1"/><path d="m 27.19 19.961 c -0.047 0 -0.078 0.012 -0.102 0.051 c -0.125 0.219 0.121 0.93 -0.066 1.301 c -0.184 0.371 -0.184 0.465 -1.668 0.281 c -1.484 -0.184 -3.711 0.465 -4.512 1.266 c -0.813 0.805 -2.195 2.844 -2.48 4.02 c -0.273 1.176 -0.148 1.238 0.223 1.055 c 0.367 -0.188 0.68 -1.828 2.867 -2.906 c 2.199 -1.082 3.223 -0.219 3.223 -0.219 c 0 0 -1.891 -0.25 -3.277 0.895 c -1.391 1.148 -2.258 2.039 -2.227 2.391 c 0.031 0.34 0.152 0.27 0.375 0 c 0.215 -0.281 1.512 -1.98 3.059 -2.539 c 1.547 -0.563 2.195 -0.523 2.781 -0.215 c 0.59 0.309 0.715 0.609 -0.117 0.824 c -0.84 0.223 -1.18 0.125 -1.18 0.125 c 0 0 0.711 0.648 1.727 0.648 c 1.023 0 1.645 -0.063 1.645 -0.063 c 0 0 2.531 2.629 3.184 3.156 c 0.645 0.523 1.363 0.277 1.363 -0.035 c 0 -0.309 -0.313 -1.176 -0.313 -1.176 c 0 0 0.648 -1.457 -0.098 -3.094 c -0.742 -1.641 -2.781 -3.336 -2.781 -3.336 c 0 0 -0.215 -0.93 -0.676 -1.547 c -0.375 -0.5 -0.754 -0.879 -0.949 -0.887 m -10.531 7.492 c -0.09 0.004 -0.184 0.027 -0.27 0.078 c -0.711 0.402 -0.34 1.117 0.281 1.117 c 0.617 0 1.297 -0.25 1.297 -0.25 c 0 0 -0.664 -0.969 -1.309 -0.941 m 1.367 1.191 c 0 0 -1.387 0.211 -1.543 0.863 c -0.156 0.648 0.582 0.836 1.047 0.496 c 0.465 -0.34 0.496 -1.359 0.496 -1.359 m 0 0" fill="#fff" stroke="none" fill-rule="nonzero" fill-opacity="0.729"/></g></g></g><g><path d="m 20 4 -7.313 3.03 -5.656 5.656 -3.03 7.313 0 8 3.03 7.313 5.656 5.656 7.313 3.03 8 0 7.313 -3.03 5.656 -5.656 3.03 -7.313 0 -8 -3.03 -7.313 -5.656 -5.656 -7.313 -3.03 -8 0 z" clip-path="url(#clipPath4313)" transform="matrix(0,1,-1,0,48,0)" opacity="0.3" stroke-opacity="1" stroke-dasharray="none" visibility="visible" fill="none" display="inline" stroke="url(#linearGradient4375)" color="#000" stroke-width="1" stroke-miterlimit="4"/><path d="m 24 2.344 -4 1.656 -4.281 0 -3.03 3.03 l -4 1.656 -1.656 4 l -3.03 3.03 0 4.281 -1.656 4 1.656 4 l 0 4.281 3.03 3.03 1.656 4 4 1.656 l 3.03 3.03 4.281 0 4 1.656 4 -1.656 l 4.281 0 3.03 -3.03 4 -1.656 1.656 -4 l 3.03 -3.03 0 -4.281 1.656 -4 -1.656 -4 l 0 -4.281 -3.03 -3.03 -1.656 -4 -4 -1.656 l -3.03 -3.03 -4.281 0 -4 -1.656 z" clip-path="url(#clipPath4329)" opacity="0.2" stroke-opacity="1" visibility="visible" fill="none" display="inline" stroke="#000" color="#000" stroke-width="2"/></g></svg>