<svg viewBox="0 0 48 48" xmlns:xlink="http://www.w3.org/1999/xlink"><defs><clipPath clipPathUnits="userSpaceOnUse" id="clipPath4313"><path d="m 20 4 -7.313 3.03 -5.656 5.656 -3.03 7.313 0 8 3.03 7.313 5.656 5.656 7.313 3.03 8 0 7.313 -3.03 5.656 -5.656 3.03 -7.313 0 -8 -3.03 -7.313 -5.656 -5.656 -7.313 -3.03 -8 0 z"/></clipPath><clipPath clipPathUnits="userSpaceOnUse" id="clipPath4329"><path d="m 24 2.344 -4 1.656 -4.281 0 -3.03 3.03 l -4 1.656 -1.656 4 l -3.03 3.03 0 4.281 -1.656 4 1.656 4 l 0 4.281 3.03 3.03 1.656 4 4 1.656 l 3.03 3.03 4.281 0 4 1.656 4 -1.656 l 4.281 0 3.03 -3.03 4 -1.656 1.656 -4 l 3.03 -3.03 0 -4.281 1.656 -4 -1.656 -4 l 0 -4.281 -3.03 -3.03 -1.656 -4 -4 -1.656 l -3.03 -3.03 -4.281 0 -4 -1.656 z"/></clipPath><clipPath id="clipPath-118541173"><path d="m 24 2.344 l -4 1.656 l -4.281 0 l -3.03 3.03 l -4 1.656 l -1.656 4 l -3.03 3.03 l 0 4.281 l -1.656 4 l 1.656 4 l 0 4.281 l 3.03 3.03 l 1.656 4 l 4 1.656 l 3.03 3.03 l 4.281 0 l 4 1.656 l 4 -1.656 l 4.281 0 l 3.03 -3.03 l 4 -1.656 l 1.656 -4 l 3.03 -3.03 l 0 -4.281 l 1.656 -4 l -1.656 -4 l 0 -4.281 l -3.03 -3.03 l -1.656 -4 l -4 -1.656 l -3.03 -3.03 l -4.281 0 l -4 -1.656 z"/></clipPath><clipPath id="clipPath-130411712"><path d="m 24 2.344 l -4 1.656 l -4.281 0 l -3.03 3.03 l -4 1.656 l -1.656 4 l -3.03 3.03 l 0 4.281 l -1.656 4 l 1.656 4 l 0 4.281 l 3.03 3.03 l 1.656 4 l 4 1.656 l 3.03 3.03 l 4.281 0 l 4 1.656 l 4 -1.656 l 4.281 0 l 3.03 -3.03 l 4 -1.656 l 1.656 -4 l 3.03 -3.03 l 0 -4.281 l 1.656 -4 l -1.656 -4 l 0 -4.281 l -3.03 -3.03 l -1.656 -4 l -4 -1.656 l -3.03 -3.03 l -4.281 0 l -4 -1.656 z"/></clipPath><linearGradient id="linearGradient4317"><stop stop-color="#fff" stop-opacity="1"/><stop offset="1" stop-color="#fff" stop-opacity="0"/></linearGradient><clipPath clipPathUnits="userSpaceOnUse" id="clipPath4313"><path d="m 20 4 -7.313 3.03 -5.656 5.656 -3.03 7.313 0 8 3.03 7.313 5.656 5.656 7.313 3.03 8 0 7.313 -3.03 5.656 -5.656 3.03 -7.313 0 -8 -3.03 -7.313 -5.656 -5.656 -7.313 -3.03 -8 0 z"/></clipPath><linearGradient x2="44" x1="4" gradientUnits="userSpaceOnUse" id="linearGradient4375" xlink:href="#linearGradient4317"/><clipPath clipPathUnits="userSpaceOnUse" id="clipPath4329"><path d="m 24 2.344 -4 1.656 -4.281 0 -3.03 3.03 l -4 1.656 -1.656 4 l -3.03 3.03 0 4.281 -1.656 4 1.656 4 l 0 4.281 3.03 3.03 1.656 4 4 1.656 l 3.03 3.03 4.281 0 4 1.656 4 -1.656 l 4.281 0 3.03 -3.03 4 -1.656 1.656 -4 l 3.03 -3.03 0 -4.281 1.656 -4 -1.656 -4 l 0 -4.281 -3.03 -3.03 -1.656 -4 -4 -1.656 l -3.03 -3.03 -4.281 0 -4 -1.656 z"/></clipPath><linearGradient id="linear0" gradientUnits="userSpaceOnUse" x1="-10.421" x2="31.577" gradientTransform="matrix(0,0.652188,-0.652188,0,41.378039,17.101839)"><stop stop-color="#8593f4" stop-opacity="1"/><stop offset="1" stop-color="#455bbf" stop-opacity="1"/></linearGradient><linearGradient id="linear1" gradientUnits="userSpaceOnUse" x1="-13" x2="29" gradientTransform="matrix(0,0.652188,-0.652188,0,37.044087,18.782821)" xlink:href="#linear0"/><linearGradient id="linear0" gradientUnits="userSpaceOnUse" x1="-10.421" x2="31.577" gradientTransform="matrix(0,0.652188,-0.652188,0,41.378039,17.101839)"><stop stop-color="#8593f4" stop-opacity="1"/><stop offset="1" stop-color="#455bbf" stop-opacity="1"/></linearGradient><linearGradient id="linear1" gradientUnits="userSpaceOnUse" x1="-13" x2="29" gradientTransform="matrix(0,0.652188,-0.652188,0,37.044087,18.782821)" xlink:href="#linear0"/><path id="SVGCleanerId_0" d="m 24 2.344 l -4 1.656 l -4.281 0 l -3.03 3.03 l -4 1.656 l -1.656 4 l -3.03 3.03 l 0 4.281 l -1.656 4 l 1.656 4 l 0 4.281 l 3.03 3.03 l 1.656 4 l 4 1.656 l 3.03 3.03 l 4.281 0 l 4 1.656 l 4 -1.656 l 4.281 0 l 3.03 -3.03 l 4 -1.656 l 1.656 -4 l 3.03 -3.03 l 0 -4.281 l 1.656 -4 l -1.656 -4 l 0 -4.281 l -3.03 -3.03 l -1.656 -4 l -4 -1.656 l -3.03 -3.03 l -4.281 0 l -4 -1.656 z" visibility="visible" display="inline" fill-rule="nonzero" color="#000" fill-opacity="1"/></defs><g><path d="m 2.563 24.5 l -0.219 0.5 l 1.656 4 l 0 -1 l -1.438 -3.5 z m 42.875 0 l -1.438 3.5 l 0 1 l 1.656 -4 l -0.219 -0.5 z m -41.44 7.781 l 0 1 l 3.03 3.03 l 1.656 4 l 4 1.656 l 3.03 3.03 l 4.281 0 l 4 1.656 l 4 -1.656 l 4.281 0 l 3.03 -3.03 l 4 -1.656 l 1.656 -4 l 3.03 -3.03 l 0 -1 l -3.03 3.03 l -1.656 4 l -4 1.656 l -3.03 3.03 l -4.281 0 l -4 1.656 l -4 -1.656 l -4.281 0 l -3.03 -3.03 l -4 -1.656 l -1.656 -4 l -3.03 -3.03 z" opacity="0.3" visibility="visible" fill="#000" display="inline" fill-rule="nonzero" stroke="none" fill-opacity="1" color="#000"/></g><g><use fill="#eee" stroke="none" xlink:href="#SVGCleanerId_0"/><path d="m 24 2.344 l -4 1.656 l 8 0 l -4 -1.656 z m 4 1.656 l 7.313 3.03 l -3.03 -3.03 l -4.281 0 z m 7.313 3.03 l 5.656 5.656 l -1.656 -4 l -4 -1.656 z m 5.656 5.656 l 3.03 7.313 l 0 -4.281 l -3.03 -3.03 z m 3.03 7.313 l 0 8 l 1.656 -4 l -1.656 -4 z m 0 8 l -3.03 7.313 l 3.03 -3.03 l 0 -4.281 z m -3.03 7.313 l -5.656 5.656 l 4 -1.656 l 1.656 -4 z m -5.656 5.656 l -7.313 3.03 l 4.281 0 l 3.03 -3.03 z m -7.313 3.03 l -8 0 l 4 1.656 l 4 -1.656 z m -8 0 l -7.313 -3.03 l 3.03 3.03 l 4.281 0 z m -7.313 -3.03 l -5.656 -5.656 l 1.656 4 l 4 1.656 z m -5.656 -5.656 l -3.03 -7.313 l 0 4.281 l 3.03 3.03 z m -3.03 -7.313 l 0 -8 l -1.656 4 l 1.656 4 z m 0 -8 l 3.03 -7.313 l -3.03 3.03 l 0 4.281 z m 3.03 -7.313 l 5.656 -5.656 l -4 1.656 l -1.656 4 z m 5.656 -5.656 l 7.313 -3.03 l -4.281 0 l -3.03 3.03 z" opacity="0.05" visibility="visible" fill="#eee" display="inline" fill-rule="nonzero" stroke="none" fill-opacity="1" color="#000"/></g><g><use opacity="0.05" stroke-opacity="1" stroke-dasharray="none" fill="#000" stroke="#000" stroke-width="2" stroke-miterlimit="4" xlink:href="#SVGCleanerId_0"/><use opacity="0.1" stroke-opacity="1" stroke-dasharray="none" fill="#000" stroke="#000" stroke-width="1" stroke-miterlimit="4" xlink:href="#SVGCleanerId_0"/></g><g><g clip-path="url(#clipPath-118541173)"><g transform="translate(0,1)"><g opacity="0.1"><!-- color: #eeeeee --><g><path d="m 24 9 c 8.285 0 15 6.715 15 15 c 0 8.285 -6.715 15 -15 15 c -8.285 0 -15 -6.715 -15 -15 c 0 -8.285 6.715 -15 15 -15 m 0 0" fill="#000" stroke="none" fill-rule="evenodd" fill-opacity="0.502"/><path d="m 37.695 24 c 0 7.563 -6.133 13.695 -13.695 13.695 c -7.563 0 -13.695 -6.133 -13.695 -13.695 c 0 -7.563 6.133 -13.695 13.695 -13.695 c 7.563 0 13.695 6.133 13.695 13.695 m 0 0" fill="#000" stroke="none" fill-rule="evenodd"/><path d="m 28.566 24 c 0 2.523 -2.043 4.566 -4.566 4.566 c -2.52 0 -4.566 -2.043 -4.566 -4.566 c 0 -2.52 2.047 -4.566 4.566 -4.566 c 2.523 0 4.566 2.047 4.566 4.566 m 0 0" fill="#000" stroke="none" fill-rule="nonzero" fill-opacity="1"/><path d="m 24 27.26 c -1.801 0 -3.262 -1.461 -3.262 -3.27 c 0 -1.801 1.461 -3.262 3.262 -3.262 c 1.801 0 3.262 1.461 3.262 3.262 c 0 1.809 -1.461 3.27 -3.262 3.27 m 0 0" fill="#000" stroke="none" fill-rule="nonzero"/><path d="m 21.391 30.523 l 1.957 0 l 0 1.957 l -1.957 0 m 0 -1.957" fill="#000" stroke="none" fill-rule="nonzero" fill-opacity="1"/><path d="m 24.652 30.523 l 1.957 0 l 0 1.957 l -1.957 0 m 0 -1.957" fill="#000" stroke="none" fill-rule="nonzero" fill-opacity="1"/><path d="m 21.391 33.781 l 1.957 0 l 0 1.957 l -1.957 0 m 0 -1.957" fill="#000" stroke="none" fill-rule="nonzero" fill-opacity="1"/><path d="m 24.652 33.781 l 1.957 0 l 0 1.957 l -1.957 0 m 0 -1.957" fill="#000" stroke="none" fill-rule="nonzero" fill-opacity="1"/><path d="m 25.957 24 c -0.023 1.063 -0.895 1.914 -1.957 1.914 c -1.063 0 -1.934 -0.852 -1.957 -1.914 c -0.016 -0.711 0.355 -1.371 0.965 -1.73 c 0.613 -0.359 1.371 -0.359 1.984 0 c 0.613 0.359 0.98 1.02 0.965 1.73 m 0 0" fill="#000" stroke="none" fill-rule="nonzero" fill-opacity="1"/></g></g></g></g></g><g><g clip-path="url(#clipPath-130411712)"><!-- color: #eeeeee --><g><path d="m 24 9 c 8.285 0 15 6.715 15 15 c 0 8.285 -6.715 15 -15 15 c -8.285 0 -15 -6.715 -15 -15 c 0 -8.285 6.715 -15 15 -15 m 0 0" fill="#fff" stroke="none" fill-rule="evenodd" fill-opacity="0.502"/><path d="m 37.695 24 c 0 7.563 -6.133 13.695 -13.695 13.695 c -7.563 0 -13.695 -6.133 -13.695 -13.695 c 0 -7.563 6.133 -13.695 13.695 -13.695 c 7.563 0 13.695 6.133 13.695 13.695 m 0 0" fill="url(#linear0)" stroke="none" fill-rule="evenodd"/><path d="m 28.566 24 c 0 2.523 -2.043 4.566 -4.566 4.566 c -2.52 0 -4.566 -2.043 -4.566 -4.566 c 0 -2.52 2.047 -4.566 4.566 -4.566 c 2.523 0 4.566 2.047 4.566 4.566 m 0 0" fill="#f9f9f9" stroke="none" fill-rule="nonzero" fill-opacity="1"/><path d="m 24 27.26 c -1.801 0 -3.262 -1.461 -3.262 -3.27 c 0 -1.801 1.461 -3.262 3.262 -3.262 c 1.801 0 3.262 1.461 3.262 3.262 c 0 1.809 -1.461 3.27 -3.262 3.27 m 0 0" fill="url(#linear1)" stroke="none" fill-rule="nonzero"/><path d="m 21.391 30.523 l 1.957 0 l 0 1.957 l -1.957 0 m 0 -1.957" fill="#f9f9f9" stroke="none" fill-rule="nonzero" fill-opacity="1"/><path d="m 24.652 30.523 l 1.957 0 l 0 1.957 l -1.957 0 m 0 -1.957" fill="#f9f9f9" stroke="none" fill-rule="nonzero" fill-opacity="1"/><path d="m 21.391 33.781 l 1.957 0 l 0 1.957 l -1.957 0 m 0 -1.957" fill="#f9f9f9" stroke="none" fill-rule="nonzero" fill-opacity="1"/><path d="m 24.652 33.781 l 1.957 0 l 0 1.957 l -1.957 0 m 0 -1.957" fill="#f9f9f9" stroke="none" fill-rule="nonzero" fill-opacity="1"/><path d="m 25.957 24 c -0.023 1.063 -0.895 1.914 -1.957 1.914 c -1.063 0 -1.934 -0.852 -1.957 -1.914 c -0.016 -0.711 0.355 -1.371 0.965 -1.73 c 0.613 -0.359 1.371 -0.359 1.984 0 c 0.613 0.359 0.98 1.02 0.965 1.73 m 0 0" fill="#f9f9f9" stroke="none" fill-rule="nonzero" fill-opacity="1"/></g></g></g><g><path d="m 20 4 -7.313 3.03 -5.656 5.656 -3.03 7.313 0 8 3.03 7.313 5.656 5.656 7.313 3.03 8 0 7.313 -3.03 5.656 -5.656 3.03 -7.313 0 -8 -3.03 -7.313 -5.656 -5.656 -7.313 -3.03 -8 0 z" clip-path="url(#clipPath4313)" transform="matrix(0,1,-1,0,48,0)" opacity="0.3" stroke-opacity="1" stroke-dasharray="none" visibility="visible" fill="none" display="inline" stroke="url(#linearGradient4375)" color="#000" stroke-width="1" stroke-miterlimit="4"/><path d="m 24 2.344 -4 1.656 -4.281 0 -3.03 3.03 l -4 1.656 -1.656 4 l -3.03 3.03 0 4.281 -1.656 4 1.656 4 l 0 4.281 3.03 3.03 1.656 4 4 1.656 l 3.03 3.03 4.281 0 4 1.656 4 -1.656 l 4.281 0 3.03 -3.03 4 -1.656 1.656 -4 l 3.03 -3.03 0 -4.281 1.656 -4 -1.656 -4 l 0 -4.281 -3.03 -3.03 -1.656 -4 -4 -1.656 l -3.03 -3.03 -4.281 0 -4 -1.656 z" clip-path="url(#clipPath4329)" opacity="0.2" stroke-opacity="1" visibility="visible" fill="none" display="inline" stroke="#000" color="#000" stroke-width="2"/></g></svg>