<svg viewBox="0 0 48 48" xmlns:xlink="http://www.w3.org/1999/xlink"><defs><clipPath clipPathUnits="userSpaceOnUse" id="clipPath4313"><path d="m 20 4 -7.313 3.03 -5.656 5.656 -3.03 7.313 0 8 3.03 7.313 5.656 5.656 7.313 3.03 8 0 7.313 -3.03 5.656 -5.656 3.03 -7.313 0 -8 -3.03 -7.313 -5.656 -5.656 -7.313 -3.03 -8 0 z"/></clipPath><clipPath clipPathUnits="userSpaceOnUse" id="clipPath4329"><path d="m 24 2.344 -4 1.656 -4.281 0 -3.03 3.03 l -4 1.656 -1.656 4 l -3.03 3.03 0 4.281 -1.656 4 1.656 4 l 0 4.281 3.03 3.03 1.656 4 4 1.656 l 3.03 3.03 4.281 0 4 1.656 4 -1.656 l 4.281 0 3.03 -3.03 4 -1.656 1.656 -4 l 3.03 -3.03 0 -4.281 1.656 -4 -1.656 -4 l 0 -4.281 -3.03 -3.03 -1.656 -4 -4 -1.656 l -3.03 -3.03 -4.281 0 -4 -1.656 z"/></clipPath><clipPath id="clipPath-139812702"><path d="m 24 2.344 l -4 1.656 l -4.281 0 l -3.03 3.03 l -4 1.656 l -1.656 4 l -3.03 3.03 l 0 4.281 l -1.656 4 l 1.656 4 l 0 4.281 l 3.03 3.03 l 1.656 4 l 4 1.656 l 3.03 3.03 l 4.281 0 l 4 1.656 l 4 -1.656 l 4.281 0 l 3.03 -3.03 l 4 -1.656 l 1.656 -4 l 3.03 -3.03 l 0 -4.281 l 1.656 -4 l -1.656 -4 l 0 -4.281 l -3.03 -3.03 l -1.656 -4 l -4 -1.656 l -3.03 -3.03 l -4.281 0 l -4 -1.656 z"/></clipPath><clipPath id="clipPath-149429235"><path d="m 24 2.344 l -4 1.656 l -4.281 0 l -3.03 3.03 l -4 1.656 l -1.656 4 l -3.03 3.03 l 0 4.281 l -1.656 4 l 1.656 4 l 0 4.281 l 3.03 3.03 l 1.656 4 l 4 1.656 l 3.03 3.03 l 4.281 0 l 4 1.656 l 4 -1.656 l 4.281 0 l 3.03 -3.03 l 4 -1.656 l 1.656 -4 l 3.03 -3.03 l 0 -4.281 l 1.656 -4 l -1.656 -4 l 0 -4.281 l -3.03 -3.03 l -1.656 -4 l -4 -1.656 l -3.03 -3.03 l -4.281 0 l -4 -1.656 z"/></clipPath><linearGradient id="linearGradient4317"><stop stop-color="#fff" stop-opacity="1"/><stop offset="1" stop-color="#fff" stop-opacity="0"/></linearGradient><clipPath clipPathUnits="userSpaceOnUse" id="clipPath4313"><path d="m 20 4 -7.313 3.03 -5.656 5.656 -3.03 7.313 0 8 3.03 7.313 5.656 5.656 7.313 3.03 8 0 7.313 -3.03 5.656 -5.656 3.03 -7.313 0 -8 -3.03 -7.313 -5.656 -5.656 -7.313 -3.03 -8 0 z"/></clipPath><linearGradient x2="44" x1="4" gradientUnits="userSpaceOnUse" id="linearGradient4375" xlink:href="#linearGradient4317"/><clipPath clipPathUnits="userSpaceOnUse" id="clipPath4329"><path d="m 24 2.344 -4 1.656 -4.281 0 -3.03 3.03 l -4 1.656 -1.656 4 l -3.03 3.03 0 4.281 -1.656 4 1.656 4 l 0 4.281 3.03 3.03 1.656 4 4 1.656 l 3.03 3.03 4.281 0 4 1.656 4 -1.656 l 4.281 0 3.03 -3.03 4 -1.656 1.656 -4 l 3.03 -3.03 0 -4.281 1.656 -4 -1.656 -4 l 0 -4.281 -3.03 -3.03 -1.656 -4 -4 -1.656 l -3.03 -3.03 -4.281 0 -4 -1.656 z"/></clipPath><path id="SVGCleanerId_0" d="m 24 2.344 l -4 1.656 l -4.281 0 l -3.03 3.03 l -4 1.656 l -1.656 4 l -3.03 3.03 l 0 4.281 l -1.656 4 l 1.656 4 l 0 4.281 l 3.03 3.03 l 1.656 4 l 4 1.656 l 3.03 3.03 l 4.281 0 l 4 1.656 l 4 -1.656 l 4.281 0 l 3.03 -3.03 l 4 -1.656 l 1.656 -4 l 3.03 -3.03 l 0 -4.281 l 1.656 -4 l -1.656 -4 l 0 -4.281 l -3.03 -3.03 l -1.656 -4 l -4 -1.656 l -3.03 -3.03 l -4.281 0 l -4 -1.656 z" visibility="visible" display="inline" fill-rule="nonzero" color="#000" fill-opacity="1"/></defs><g><path d="m 2.563 24.5 l -0.219 0.5 l 1.656 4 l 0 -1 l -1.438 -3.5 z m 42.875 0 l -1.438 3.5 l 0 1 l 1.656 -4 l -0.219 -0.5 z m -41.44 7.781 l 0 1 l 3.03 3.03 l 1.656 4 l 4 1.656 l 3.03 3.03 l 4.281 0 l 4 1.656 l 4 -1.656 l 4.281 0 l 3.03 -3.03 l 4 -1.656 l 1.656 -4 l 3.03 -3.03 l 0 -1 l -3.03 3.03 l -1.656 4 l -4 1.656 l -3.03 3.03 l -4.281 0 l -4 1.656 l -4 -1.656 l -4.281 0 l -3.03 -3.03 l -4 -1.656 l -1.656 -4 l -3.03 -3.03 z" opacity="0.3" visibility="visible" fill="#000" display="inline" fill-rule="nonzero" stroke="none" fill-opacity="1" color="#000"/></g><g><use fill="#7f7bc5" stroke="none" xlink:href="#SVGCleanerId_0"/><path d="m 24 2.344 l -4 1.656 l 8 0 l -4 -1.656 z m 4 1.656 l 7.313 3.03 l -3.03 -3.03 l -4.281 0 z m 7.313 3.03 l 5.656 5.656 l -1.656 -4 l -4 -1.656 z m 5.656 5.656 l 3.03 7.313 l 0 -4.281 l -3.03 -3.03 z m 3.03 7.313 l 0 8 l 1.656 -4 l -1.656 -4 z m 0 8 l -3.03 7.313 l 3.03 -3.03 l 0 -4.281 z m -3.03 7.313 l -5.656 5.656 l 4 -1.656 l 1.656 -4 z m -5.656 5.656 l -7.313 3.03 l 4.281 0 l 3.03 -3.03 z m -7.313 3.03 l -8 0 l 4 1.656 l 4 -1.656 z m -8 0 l -7.313 -3.03 l 3.03 3.03 l 4.281 0 z m -7.313 -3.03 l -5.656 -5.656 l 1.656 4 l 4 1.656 z m -5.656 -5.656 l -3.03 -7.313 l 0 4.281 l 3.03 3.03 z m -3.03 -7.313 l 0 -8 l -1.656 4 l 1.656 4 z m 0 -8 l 3.03 -7.313 l -3.03 3.03 l 0 4.281 z m 3.03 -7.313 l 5.656 -5.656 l -4 1.656 l -1.656 4 z m 5.656 -5.656 l 7.313 -3.03 l -4.281 0 l -3.03 3.03 z" opacity="0.05" visibility="visible" fill="#7f7bc5" display="inline" fill-rule="nonzero" stroke="none" fill-opacity="1" color="#000"/></g><g><use opacity="0.05" stroke-opacity="1" stroke-dasharray="none" fill="#000" stroke="#000" stroke-width="2" stroke-miterlimit="4" xlink:href="#SVGCleanerId_0"/><use opacity="0.1" stroke-opacity="1" stroke-dasharray="none" fill="#000" stroke="#000" stroke-width="1" stroke-miterlimit="4" xlink:href="#SVGCleanerId_0"/></g><g><g clip-path="url(#clipPath-139812702)"><g transform="translate(0,1)"><g opacity="0.1"><!-- color: #7f7bc5 --><g><path d="m 16.07 35.832 c 0 0 1.559 0.453 3.629 0.711 c 0.84 0.102 4.04 0.469 6.484 0.457 c 0 0 2.984 0.004 4.629 -0.23 c 1.723 -0.246 2.699 -0.555 3.242 -1.176 c 0.016 -0.148 0.262 -0.633 -0.406 -1.098 c -1.715 -1.184 -3.926 -1.512 -8.227 -2.527 c -4.754 -1.191 -6.176 -2.328 -6.883 -3.156 c -0.676 -0.824 0.125 -2.539 3.957 -3.383 c 1.938 -0.469 9.164 -0.555 9.164 -0.555 c -2.074 -1.637 -5.965 -4.57 -6.758 -5.191 c -0.699 -0.547 -1.82 -1.387 -1.941 -2.137 c -0.164 -0.73 0.992 -1.082 1.602 -1.125 c 1.969 -0.133 4.66 0.098 7.05 0.566 c 1.203 0.238 1.414 0.203 1.414 0.203 c 1.711 0.082 3.043 -0.813 2.973 -2.688 c -0.016 -1.906 -1.926 -3.434 -4.047 -3.5 c -1.996 -0.066 -6.914 0.281 -6.914 0.281 c 5.734 1.176 6.672 1.477 6.969 2.16 c 0.176 0.406 -0.297 0.809 -1.875 0.73 c -1.719 -0.086 -5.246 -0.5 -5.246 -0.5 c -3.355 -0.52 -5.688 -0.996 -6.711 0.328 c -0.664 0.855 0.098 1.918 0.395 2.531 c 1.332 2.316 3.633 3.898 5.094 5.02 c 0.547 0.422 2.227 1.348 2.227 1.348 c -5.215 -1.418 -9.371 -0.617 -12.01 0.758 c -3.03 1.789 -2.52 4.797 2.297 7.613 c 2.836 1.66 4.25 2.461 8.895 3.03 c 2.723 0.434 3.125 0.609 3.105 0.836 c -0.027 0.316 -3.215 0.434 -4.094 0.496 c -2.23 0.152 -7.988 0.191 -8.02 0.191 m 0.004 0.004" fill="#000" stroke="none" fill-rule="evenodd" fill-opacity="1"/></g></g></g></g></g><g><g clip-path="url(#clipPath-149429235)"><!-- color: #7f7bc5 --><g><path d="m 16.07 35.832 c 0 0 1.559 0.453 3.629 0.711 c 0.84 0.102 4.04 0.469 6.484 0.457 c 0 0 2.984 0.004 4.629 -0.23 c 1.723 -0.246 2.699 -0.555 3.242 -1.176 c 0.016 -0.148 0.262 -0.633 -0.406 -1.098 c -1.715 -1.184 -3.926 -1.512 -8.227 -2.527 c -4.754 -1.191 -6.176 -2.328 -6.883 -3.156 c -0.676 -0.824 0.125 -2.539 3.957 -3.383 c 1.938 -0.469 9.164 -0.555 9.164 -0.555 c -2.074 -1.637 -5.965 -4.57 -6.758 -5.191 c -0.699 -0.547 -1.82 -1.387 -1.941 -2.137 c -0.164 -0.73 0.992 -1.082 1.602 -1.125 c 1.969 -0.133 4.66 0.098 7.05 0.566 c 1.203 0.238 1.414 0.203 1.414 0.203 c 1.711 0.082 3.043 -0.813 2.973 -2.688 c -0.016 -1.906 -1.926 -3.434 -4.047 -3.5 c -1.996 -0.066 -6.914 0.281 -6.914 0.281 c 5.734 1.176 6.672 1.477 6.969 2.16 c 0.176 0.406 -0.297 0.809 -1.875 0.73 c -1.719 -0.086 -5.246 -0.5 -5.246 -0.5 c -3.355 -0.52 -5.688 -0.996 -6.711 0.328 c -0.664 0.855 0.098 1.918 0.395 2.531 c 1.332 2.316 3.633 3.898 5.094 5.02 c 0.547 0.422 2.227 1.348 2.227 1.348 c -5.215 -1.418 -9.371 -0.617 -12.01 0.758 c -3.03 1.789 -2.52 4.797 2.297 7.613 c 2.836 1.66 4.25 2.461 8.895 3.03 c 2.723 0.434 3.125 0.609 3.105 0.836 c -0.027 0.316 -3.215 0.434 -4.094 0.496 c -2.23 0.152 -7.988 0.191 -8.02 0.191 m 0.004 0.004" fill="#f9f9f9" stroke="none" fill-rule="evenodd" fill-opacity="1"/></g></g></g><g><path d="m 20 4 -7.313 3.03 -5.656 5.656 -3.03 7.313 0 8 3.03 7.313 5.656 5.656 7.313 3.03 8 0 7.313 -3.03 5.656 -5.656 3.03 -7.313 0 -8 -3.03 -7.313 -5.656 -5.656 -7.313 -3.03 -8 0 z" clip-path="url(#clipPath4313)" transform="matrix(0,1,-1,0,48,0)" opacity="0.3" stroke-opacity="1" stroke-dasharray="none" visibility="visible" fill="none" display="inline" stroke="url(#linearGradient4375)" color="#000" stroke-width="1" stroke-miterlimit="4"/><path d="m 24 2.344 -4 1.656 -4.281 0 -3.03 3.03 l -4 1.656 -1.656 4 l -3.03 3.03 0 4.281 -1.656 4 1.656 4 l 0 4.281 3.03 3.03 1.656 4 4 1.656 l 3.03 3.03 4.281 0 4 1.656 4 -1.656 l 4.281 0 3.03 -3.03 4 -1.656 1.656 -4 l 3.03 -3.03 0 -4.281 1.656 -4 -1.656 -4 l 0 -4.281 -3.03 -3.03 -1.656 -4 -4 -1.656 l -3.03 -3.03 -4.281 0 -4 -1.656 z" clip-path="url(#clipPath4329)" opacity="0.2" stroke-opacity="1" visibility="visible" fill="none" display="inline" stroke="#000" color="#000" stroke-width="2"/></g></svg>