<svg viewBox="0 0 48 48" xmlns:xlink="http://www.w3.org/1999/xlink"><defs><clipPath clipPathUnits="userSpaceOnUse" id="clipPath4313"><path d="m 20 4 -7.313 3.03 -5.656 5.656 -3.03 7.313 0 8 3.03 7.313 5.656 5.656 7.313 3.03 8 0 7.313 -3.03 5.656 -5.656 3.03 -7.313 0 -8 -3.03 -7.313 -5.656 -5.656 -7.313 -3.03 -8 0 z"/></clipPath><clipPath clipPathUnits="userSpaceOnUse" id="clipPath4329"><path d="m 24 2.344 -4 1.656 -4.281 0 -3.03 3.03 l -4 1.656 -1.656 4 l -3.03 3.03 0 4.281 -1.656 4 1.656 4 l 0 4.281 3.03 3.03 1.656 4 4 1.656 l 3.03 3.03 4.281 0 4 1.656 4 -1.656 l 4.281 0 3.03 -3.03 4 -1.656 1.656 -4 l 3.03 -3.03 0 -4.281 1.656 -4 -1.656 -4 l 0 -4.281 -3.03 -3.03 -1.656 -4 -4 -1.656 l -3.03 -3.03 -4.281 0 -4 -1.656 z"/></clipPath><clipPath id="clipPath-380788199"><path d="m 24 2.344 l -4 1.656 l -4.281 0 l -3.03 3.03 l -4 1.656 l -1.656 4 l -3.03 3.03 l 0 4.281 l -1.656 4 l 1.656 4 l 0 4.281 l 3.03 3.03 l 1.656 4 l 4 1.656 l 3.03 3.03 l 4.281 0 l 4 1.656 l 4 -1.656 l 4.281 0 l 3.03 -3.03 l 4 -1.656 l 1.656 -4 l 3.03 -3.03 l 0 -4.281 l 1.656 -4 l -1.656 -4 l 0 -4.281 l -3.03 -3.03 l -1.656 -4 l -4 -1.656 l -3.03 -3.03 l -4.281 0 l -4 -1.656 z"/></clipPath><clipPath id="clipPath-392430909"><path d="m 24 2.344 l -4 1.656 l -4.281 0 l -3.03 3.03 l -4 1.656 l -1.656 4 l -3.03 3.03 l 0 4.281 l -1.656 4 l 1.656 4 l 0 4.281 l 3.03 3.03 l 1.656 4 l 4 1.656 l 3.03 3.03 l 4.281 0 l 4 1.656 l 4 -1.656 l 4.281 0 l 3.03 -3.03 l 4 -1.656 l 1.656 -4 l 3.03 -3.03 l 0 -4.281 l 1.656 -4 l -1.656 -4 l 0 -4.281 l -3.03 -3.03 l -1.656 -4 l -4 -1.656 l -3.03 -3.03 l -4.281 0 l -4 -1.656 z"/></clipPath><linearGradient id="linearGradient4317"><stop stop-color="#fff" stop-opacity="1"/><stop offset="1" stop-color="#fff" stop-opacity="0"/></linearGradient><clipPath clipPathUnits="userSpaceOnUse" id="clipPath4313"><path d="m 20 4 -7.313 3.03 -5.656 5.656 -3.03 7.313 0 8 3.03 7.313 5.656 5.656 7.313 3.03 8 0 7.313 -3.03 5.656 -5.656 3.03 -7.313 0 -8 -3.03 -7.313 -5.656 -5.656 -7.313 -3.03 -8 0 z"/></clipPath><linearGradient x2="44" x1="4" gradientUnits="userSpaceOnUse" id="linearGradient4375" xlink:href="#linearGradient4317"/><clipPath clipPathUnits="userSpaceOnUse" id="clipPath4329"><path d="m 24 2.344 -4 1.656 -4.281 0 -3.03 3.03 l -4 1.656 -1.656 4 l -3.03 3.03 0 4.281 -1.656 4 1.656 4 l 0 4.281 3.03 3.03 1.656 4 4 1.656 l 3.03 3.03 4.281 0 4 1.656 4 -1.656 l 4.281 0 3.03 -3.03 4 -1.656 1.656 -4 l 3.03 -3.03 0 -4.281 1.656 -4 -1.656 -4 l 0 -4.281 -3.03 -3.03 -1.656 -4 -4 -1.656 l -3.03 -3.03 -4.281 0 -4 -1.656 z"/></clipPath><path id="SVGCleanerId_0" d="m 24 2.344 l -4 1.656 l -4.281 0 l -3.03 3.03 l -4 1.656 l -1.656 4 l -3.03 3.03 l 0 4.281 l -1.656 4 l 1.656 4 l 0 4.281 l 3.03 3.03 l 1.656 4 l 4 1.656 l 3.03 3.03 l 4.281 0 l 4 1.656 l 4 -1.656 l 4.281 0 l 3.03 -3.03 l 4 -1.656 l 1.656 -4 l 3.03 -3.03 l 0 -4.281 l 1.656 -4 l -1.656 -4 l 0 -4.281 l -3.03 -3.03 l -1.656 -4 l -4 -1.656 l -3.03 -3.03 l -4.281 0 l -4 -1.656 z" visibility="visible" display="inline" fill-rule="nonzero" color="#000" fill-opacity="1"/></defs><g><path d="m 2.563 24.5 l -0.219 0.5 l 1.656 4 l 0 -1 l -1.438 -3.5 z m 42.875 0 l -1.438 3.5 l 0 1 l 1.656 -4 l -0.219 -0.5 z m -41.44 7.781 l 0 1 l 3.03 3.03 l 1.656 4 l 4 1.656 l 3.03 3.03 l 4.281 0 l 4 1.656 l 4 -1.656 l 4.281 0 l 3.03 -3.03 l 4 -1.656 l 1.656 -4 l 3.03 -3.03 l 0 -1 l -3.03 3.03 l -1.656 4 l -4 1.656 l -3.03 3.03 l -4.281 0 l -4 1.656 l -4 -1.656 l -4.281 0 l -3.03 -3.03 l -4 -1.656 l -1.656 -4 l -3.03 -3.03 z" opacity="0.3" visibility="visible" fill="#000" display="inline" fill-rule="nonzero" stroke="none" fill-opacity="1" color="#000"/></g><g><use fill="#a0a0a0" stroke="none" xlink:href="#SVGCleanerId_0"/><path d="m 24 2.344 l -4 1.656 l 8 0 l -4 -1.656 z m 4 1.656 l 7.313 3.03 l -3.03 -3.03 l -4.281 0 z m 7.313 3.03 l 5.656 5.656 l -1.656 -4 l -4 -1.656 z m 5.656 5.656 l 3.03 7.313 l 0 -4.281 l -3.03 -3.03 z m 3.03 7.313 l 0 8 l 1.656 -4 l -1.656 -4 z m 0 8 l -3.03 7.313 l 3.03 -3.03 l 0 -4.281 z m -3.03 7.313 l -5.656 5.656 l 4 -1.656 l 1.656 -4 z m -5.656 5.656 l -7.313 3.03 l 4.281 0 l 3.03 -3.03 z m -7.313 3.03 l -8 0 l 4 1.656 l 4 -1.656 z m -8 0 l -7.313 -3.03 l 3.03 3.03 l 4.281 0 z m -7.313 -3.03 l -5.656 -5.656 l 1.656 4 l 4 1.656 z m -5.656 -5.656 l -3.03 -7.313 l 0 4.281 l 3.03 3.03 z m -3.03 -7.313 l 0 -8 l -1.656 4 l 1.656 4 z m 0 -8 l 3.03 -7.313 l -3.03 3.03 l 0 4.281 z m 3.03 -7.313 l 5.656 -5.656 l -4 1.656 l -1.656 4 z m 5.656 -5.656 l 7.313 -3.03 l -4.281 0 l -3.03 3.03 z" opacity="0.05" visibility="visible" fill="#a0a0a0" display="inline" fill-rule="nonzero" stroke="none" fill-opacity="1" color="#000"/></g><g><use opacity="0.05" stroke-opacity="1" stroke-dasharray="none" fill="#000" stroke="#000" stroke-width="2" stroke-miterlimit="4" xlink:href="#SVGCleanerId_0"/><use opacity="0.1" stroke-opacity="1" stroke-dasharray="none" fill="#000" stroke="#000" stroke-width="1" stroke-miterlimit="4" xlink:href="#SVGCleanerId_0"/></g><g><g clip-path="url(#clipPath-380788199)"><g transform="translate(0,1)"><g opacity="0.1"><!-- color: #a0a0a0 --><g><path d="m 10 13 l 5 7 l 5 0 l 0 7 l -3 0 l 0 11 l 6 0 l 1.848 -4 c 0.152 0 -1.848 0 -1.848 0 l 0 -3 l -2 0 l 4 0 l 0 7 l 4 -2 l 0 -5 l 0.996 0 l 3 -4 l -7 0 l 2 -2 l 0 -5 l 5 0 l 5 -7 l -10 0 l 0 -2 c -3.75 -0.086 -3.605 0.984 -4 1.551 l 0 1.453 l 1 0 l 0 3 l -2 0 l 0 -3 l 1 0 l 0 -1.414 c -0.93 -1.652 -1.898 -1.758 -4 -1.586 l 0 2 m -9.996 -0.008" fill="#000" stroke="none" fill-rule="nonzero" fill-opacity="1"/><path d="m 26 36 l 2 -1 l 0 -5 l 1 0 l 2 -2 l -13 0 l 0 9 l 4 0 l 1 -2 l -3 0 l 0 -2 l 2 0 l 0 -1 l -2 0 l 0 -2 l 6 0 m 0 6" fill="#000" stroke="none" fill-rule="nonzero" fill-opacity="1"/><path d="m 15 19 l 6 0 l 0 7.75 l 1 -0.75 l 0 -1.5 l 1 -0.5 l 0 3.5 l 2 -1.5 l 0 -1.5 l 1 -0.5 l 0 1.75 l 1 -0.75 l 0 -6 l 5.484 0 l 0.953 -1 l -7.438 0 l 0 5 l -1 0.5 l 0 -5.5 l -2 0 l 0 5 l -1 0.5 l 0 -5.5 l -7.707 0 m 0.707 1" fill="#000" stroke="none" fill-rule="nonzero" fill-opacity="1"/><path d="m 13 16 l 0.703 1 l 8.297 0 l 0 -3 c -0.023 -0.691 0.402 -0.93 1 -1 c -0.238 -0.523 -0.41 -1.078 -2 -1 l 0 4 l -3 0 l 1 -2 l -7 0 l 1 1 l 4 0 l -0.5 1 m -3.5 0" fill="#000" stroke="none" fill-rule="nonzero" fill-opacity="1"/><path d="m 34.36 16 l -0.762 1 l -7.598 0 l 0 -3 c 0.023 -0.746 -0.453 -0.914 -1 -1 c -0.031 -0.574 0.5 -0.953 2 -1 l 0 4 l 2 0 l -1 -1.996 l 8 0 l -0.781 1 l -5.219 0 l 0.5 0.996 m 3.859 0" fill="#000" stroke="none" fill-rule="nonzero" fill-opacity="1"/></g></g></g></g></g><g><g clip-path="url(#clipPath-392430909)"><!-- color: #a0a0a0 --><g><path d="m 10 13 l 5 7 l 5 0 l 0 7 l -3 0 l 0 11 l 6 0 l 1.848 -4 c 0.152 0 -1.848 0 -1.848 0 l 0 -3 l -2 0 l 4 0 l 0 7 l 4 -2 l 0 -5 l 0.996 0 l 3 -4 l -7 0 l 2 -2 l 0 -5 l 5 0 l 5 -7 l -10 0 l 0 -2 c -3.75 -0.086 -3.605 0.984 -4 1.551 l 0 1.453 l 1 0 l 0 3 l -2 0 l 0 -3 l 1 0 l 0 -1.414 c -0.93 -1.652 -1.898 -1.758 -4 -1.586 l 0 2 m -9.996 -0.008" fill="#dcdcdc" stroke="none" fill-rule="nonzero" fill-opacity="1"/><path d="m 26 36 l 2 -1 l 0 -5 l 1 0 l 2 -2 l -13 0 l 0 9 l 4 0 l 1 -2 l -3 0 l 0 -2 l 2 0 l 0 -1 l -2 0 l 0 -2 l 6 0 m 0 6" fill="#2d2d2d" stroke="none" fill-rule="nonzero" fill-opacity="1"/><path d="m 15 19 l 6 0 l 0 7.75 l 1 -0.75 l 0 -1.5 l 1 -0.5 l 0 3.5 l 2 -1.5 l 0 -1.5 l 1 -0.5 l 0 1.75 l 1 -0.75 l 0 -6 l 5.484 0 l 0.953 -1 l -7.438 0 l 0 5 l -1 0.5 l 0 -5.5 l -2 0 l 0 5 l -1 0.5 l 0 -5.5 l -7.707 0 m 0.707 1" fill="#d64936" stroke="none" fill-rule="nonzero" fill-opacity="1"/><path d="m 13 16 l 0.703 1 l 8.297 0 l 0 -3 c -0.023 -0.691 0.402 -0.93 1 -1 c -0.238 -0.523 -0.41 -1.078 -2 -1 l 0 4 l -3 0 l 1 -2 l -7 0 l 1 1 l 4 0 l -0.5 1 m -3.5 0" fill="#d64936" stroke="none" fill-rule="nonzero" fill-opacity="1"/><path d="m 34.36 16 l -0.762 1 l -7.598 0 l 0 -3 c 0.023 -0.746 -0.453 -0.914 -1 -1 c -0.031 -0.574 0.5 -0.953 2 -1 l 0 4 l 2 0 l -1 -1.996 l 8 0 l -0.781 1 l -5.219 0 l 0.5 0.996 m 3.859 0" fill="#d64936" stroke="none" fill-rule="nonzero" fill-opacity="1"/></g></g></g><g><path d="m 20 4 -7.313 3.03 -5.656 5.656 -3.03 7.313 0 8 3.03 7.313 5.656 5.656 7.313 3.03 8 0 7.313 -3.03 5.656 -5.656 3.03 -7.313 0 -8 -3.03 -7.313 -5.656 -5.656 -7.313 -3.03 -8 0 z" clip-path="url(#clipPath4313)" transform="matrix(0,1,-1,0,48,0)" opacity="0.3" stroke-opacity="1" stroke-dasharray="none" visibility="visible" fill="none" display="inline" stroke="url(#linearGradient4375)" color="#000" stroke-width="1" stroke-miterlimit="4"/><path d="m 24 2.344 -4 1.656 -4.281 0 -3.03 3.03 l -4 1.656 -1.656 4 l -3.03 3.03 0 4.281 -1.656 4 1.656 4 l 0 4.281 3.03 3.03 1.656 4 4 1.656 l 3.03 3.03 4.281 0 4 1.656 4 -1.656 l 4.281 0 3.03 -3.03 4 -1.656 1.656 -4 l 3.03 -3.03 0 -4.281 1.656 -4 -1.656 -4 l 0 -4.281 -3.03 -3.03 -1.656 -4 -4 -1.656 l -3.03 -3.03 -4.281 0 -4 -1.656 z" clip-path="url(#clipPath4329)" opacity="0.2" stroke-opacity="1" visibility="visible" fill="none" display="inline" stroke="#000" color="#000" stroke-width="2"/></g></svg>