<svg viewBox="0 0 48 48" xmlns:xlink="http://www.w3.org/1999/xlink"><defs><clipPath clipPathUnits="userSpaceOnUse" id="clipPath4313"><path d="m 20 4 -7.313 3.03 -5.656 5.656 -3.03 7.313 0 8 3.03 7.313 5.656 5.656 7.313 3.03 8 0 7.313 -3.03 5.656 -5.656 3.03 -7.313 0 -8 -3.03 -7.313 -5.656 -5.656 -7.313 -3.03 -8 0 z"/></clipPath><clipPath clipPathUnits="userSpaceOnUse" id="clipPath4329"><path d="m 24 2.344 -4 1.656 -4.281 0 -3.03 3.03 l -4 1.656 -1.656 4 l -3.03 3.03 0 4.281 -1.656 4 1.656 4 l 0 4.281 3.03 3.03 1.656 4 4 1.656 l 3.03 3.03 4.281 0 4 1.656 4 -1.656 l 4.281 0 3.03 -3.03 4 -1.656 1.656 -4 l 3.03 -3.03 0 -4.281 1.656 -4 -1.656 -4 l 0 -4.281 -3.03 -3.03 -1.656 -4 -4 -1.656 l -3.03 -3.03 -4.281 0 -4 -1.656 z"/></clipPath><clipPath id="clipPath-139573569"><path d="m 24 2.344 l -4 1.656 l -4.281 0 l -3.03 3.03 l -4 1.656 l -1.656 4 l -3.03 3.03 l 0 4.281 l -1.656 4 l 1.656 4 l 0 4.281 l 3.03 3.03 l 1.656 4 l 4 1.656 l 3.03 3.03 l 4.281 0 l 4 1.656 l 4 -1.656 l 4.281 0 l 3.03 -3.03 l 4 -1.656 l 1.656 -4 l 3.03 -3.03 l 0 -4.281 l 1.656 -4 l -1.656 -4 l 0 -4.281 l -3.03 -3.03 l -1.656 -4 l -4 -1.656 l -3.03 -3.03 l -4.281 0 l -4 -1.656 z"/></clipPath><clipPath id="clipPath-153032301"><path d="m 24 2.344 l -4 1.656 l -4.281 0 l -3.03 3.03 l -4 1.656 l -1.656 4 l -3.03 3.03 l 0 4.281 l -1.656 4 l 1.656 4 l 0 4.281 l 3.03 3.03 l 1.656 4 l 4 1.656 l 3.03 3.03 l 4.281 0 l 4 1.656 l 4 -1.656 l 4.281 0 l 3.03 -3.03 l 4 -1.656 l 1.656 -4 l 3.03 -3.03 l 0 -4.281 l 1.656 -4 l -1.656 -4 l 0 -4.281 l -3.03 -3.03 l -1.656 -4 l -4 -1.656 l -3.03 -3.03 l -4.281 0 l -4 -1.656 z"/></clipPath><linearGradient id="linearGradient4317"><stop stop-color="#fff" stop-opacity="1"/><stop offset="1" stop-color="#fff" stop-opacity="0"/></linearGradient><clipPath clipPathUnits="userSpaceOnUse" id="clipPath4313"><path d="m 20 4 -7.313 3.03 -5.656 5.656 -3.03 7.313 0 8 3.03 7.313 5.656 5.656 7.313 3.03 8 0 7.313 -3.03 5.656 -5.656 3.03 -7.313 0 -8 -3.03 -7.313 -5.656 -5.656 -7.313 -3.03 -8 0 z"/></clipPath><linearGradient x2="44" x1="4" gradientUnits="userSpaceOnUse" id="linearGradient4375" xlink:href="#linearGradient4317"/><clipPath clipPathUnits="userSpaceOnUse" id="clipPath4329"><path d="m 24 2.344 -4 1.656 -4.281 0 -3.03 3.03 l -4 1.656 -1.656 4 l -3.03 3.03 0 4.281 -1.656 4 1.656 4 l 0 4.281 3.03 3.03 1.656 4 4 1.656 l 3.03 3.03 4.281 0 4 1.656 4 -1.656 l 4.281 0 3.03 -3.03 4 -1.656 1.656 -4 l 3.03 -3.03 0 -4.281 1.656 -4 -1.656 -4 l 0 -4.281 -3.03 -3.03 -1.656 -4 -4 -1.656 l -3.03 -3.03 -4.281 0 -4 -1.656 z"/></clipPath><path id="SVGCleanerId_0" d="m 24 2.344 l -4 1.656 l -4.281 0 l -3.03 3.03 l -4 1.656 l -1.656 4 l -3.03 3.03 l 0 4.281 l -1.656 4 l 1.656 4 l 0 4.281 l 3.03 3.03 l 1.656 4 l 4 1.656 l 3.03 3.03 l 4.281 0 l 4 1.656 l 4 -1.656 l 4.281 0 l 3.03 -3.03 l 4 -1.656 l 1.656 -4 l 3.03 -3.03 l 0 -4.281 l 1.656 -4 l -1.656 -4 l 0 -4.281 l -3.03 -3.03 l -1.656 -4 l -4 -1.656 l -3.03 -3.03 l -4.281 0 l -4 -1.656 z" visibility="visible" display="inline" fill-rule="nonzero" color="#000" fill-opacity="1"/></defs><g><path d="m 2.563 24.5 l -0.219 0.5 l 1.656 4 l 0 -1 l -1.438 -3.5 z m 42.875 0 l -1.438 3.5 l 0 1 l 1.656 -4 l -0.219 -0.5 z m -41.44 7.781 l 0 1 l 3.03 3.03 l 1.656 4 l 4 1.656 l 3.03 3.03 l 4.281 0 l 4 1.656 l 4 -1.656 l 4.281 0 l 3.03 -3.03 l 4 -1.656 l 1.656 -4 l 3.03 -3.03 l 0 -1 l -3.03 3.03 l -1.656 4 l -4 1.656 l -3.03 3.03 l -4.281 0 l -4 1.656 l -4 -1.656 l -4.281 0 l -3.03 -3.03 l -4 -1.656 l -1.656 -4 l -3.03 -3.03 z" opacity="0.3" visibility="visible" fill="#000" display="inline" fill-rule="nonzero" stroke="none" fill-opacity="1" color="#000"/></g><g><use fill="#3d3d3d" stroke="none" xlink:href="#SVGCleanerId_0"/><path d="m 24 2.344 l -4 1.656 l 8 0 l -4 -1.656 z m 4 1.656 l 7.313 3.03 l -3.03 -3.03 l -4.281 0 z m 7.313 3.03 l 5.656 5.656 l -1.656 -4 l -4 -1.656 z m 5.656 5.656 l 3.03 7.313 l 0 -4.281 l -3.03 -3.03 z m 3.03 7.313 l 0 8 l 1.656 -4 l -1.656 -4 z m 0 8 l -3.03 7.313 l 3.03 -3.03 l 0 -4.281 z m -3.03 7.313 l -5.656 5.656 l 4 -1.656 l 1.656 -4 z m -5.656 5.656 l -7.313 3.03 l 4.281 0 l 3.03 -3.03 z m -7.313 3.03 l -8 0 l 4 1.656 l 4 -1.656 z m -8 0 l -7.313 -3.03 l 3.03 3.03 l 4.281 0 z m -7.313 -3.03 l -5.656 -5.656 l 1.656 4 l 4 1.656 z m -5.656 -5.656 l -3.03 -7.313 l 0 4.281 l 3.03 3.03 z m -3.03 -7.313 l 0 -8 l -1.656 4 l 1.656 4 z m 0 -8 l 3.03 -7.313 l -3.03 3.03 l 0 4.281 z m 3.03 -7.313 l 5.656 -5.656 l -4 1.656 l -1.656 4 z m 5.656 -5.656 l 7.313 -3.03 l -4.281 0 l -3.03 3.03 z" opacity="0.05" visibility="visible" fill="#3d3d3d" display="inline" fill-rule="nonzero" stroke="none" fill-opacity="1" color="#000"/></g><g><use opacity="0.05" stroke-opacity="1" stroke-dasharray="none" fill="#000" stroke="#000" stroke-width="2" stroke-miterlimit="4" xlink:href="#SVGCleanerId_0"/><use opacity="0.1" stroke-opacity="1" stroke-dasharray="none" fill="#000" stroke="#000" stroke-width="1" stroke-miterlimit="4" xlink:href="#SVGCleanerId_0"/></g><g><g clip-path="url(#clipPath-139573569)"><g transform="translate(0,1)"><g opacity="0.1"><!-- color: #3d3d3d --><g><path d="m 24 9 c -3.637 0 -6.973 1.27 -9.566 3.406 c 0.914 -0.383 1.984 -0.582 3.094 -0.625 c 1.938 -0.078 3.973 0.34 5.441 1.281 c 0.855 0.551 1.32 1.512 2.094 2.129 c 1.375 1.094 3.129 1.867 4.75 2.5 c 0.926 0.363 1.863 0.555 2.781 0.969 c 0.469 0.211 0.832 0.625 1.313 0.809 c 0.59 0.227 1.273 0.227 1.844 0.5 c 0.723 0.344 1.445 1.367 1.75 2.094 c 0.172 0.418 0.027 0.855 0 1.285 c -0.094 1.344 -0.473 2.535 -0.781 3.844 c -0.375 1.59 -0.109 2.715 0.188 4.25 c 0.023 0.063 0.008 0.125 0 0.188 c 1.32 -2.234 2.102 -4.836 2.102 -7.625 c 0 -8.313 -6.691 -15 -14.996 -15 m -12.73 7.06 c -1.434 2.301 -2.273 5.02 -2.273 7.938 c 0 8.309 6.688 14.996 15 14.996 c 4.148 0 7.902 -1.664 10.625 -4.375 c -0.594 0.516 -1.305 0.996 -1.941 1.25 c -0.672 0.266 -0.816 -0.293 -0.719 -0.809 c -0.422 -0.023 -2.359 -0.508 -1.441 -1.156 c 0.734 -0.52 2.137 -0.133 2.875 0.188 c -0.324 -0.621 -1.242 -0.57 -1.844 -0.719 c -0.781 -0.191 -2.059 -1.055 -2.402 -1.781 l -0.152 0 c -0.148 0.766 -0.355 1.582 -0.473 2.34 c -0.063 0.41 0.066 0.84 -0.277 1.156 c -0.816 0.738 -2.332 0.363 -3.281 0.531 c -0.406 0.07 -0.727 0.512 -1.152 0.188 c -0.547 -0.406 -0.75 -2.059 0.121 -2.188 c 0.762 -0.113 1.598 0.375 2.406 0.375 c -0.047 -0.895 -0.801 -1.508 -1.121 -2.313 c -0.941 -2.305 -0.82 -4.945 1.684 -6.191 l 0 -0.063 c -0.965 0.199 -2.402 0.703 -3.371 0.563 c -0.328 -0.043 -1.285 -0.445 -1.531 -0.117 c -0.164 0.215 0.406 0.973 0.25 1.402 c -0.215 0.598 -0.793 1.078 -1.063 1.688 c -0.551 1.246 -0.633 3.129 -1.531 4.152 c -0.352 0.41 -0.777 0.496 -1.219 0.758 c -0.391 0.227 -0.484 0.734 -0.996 0.617 c -0.211 0.32 -0.418 0.176 -0.469 -0.152 c -1.195 0.305 -0.781 -0.797 0 -1.121 l 0 -0.094 c -0.145 0.031 -0.816 0.184 -0.75 -0.156 c 0.098 -0.539 1.383 -0.184 1.625 -0.719 c 0.766 -1.719 0.469 -3.957 0.469 -5.781 l -0.066 0 c -0.297 0.617 -0.816 1.145 -1.152 1.75 c -0.262 0.461 -0.379 1.047 -0.781 1.406 c -0.398 0.355 -0.824 0.391 -1.281 0.598 c -0.375 0.164 -0.492 0.492 -0.969 0.406 c -0.484 -0.094 -0.164 -0.398 0.094 -0.531 c -0.625 -0.273 -1.309 -0.328 -1.941 -0.531 c -0.223 -0.074 -0.219 -0.238 -0.063 -0.375 c -0.105 -0.457 0.234 -0.504 0.625 -0.469 c 0.543 0.051 1.402 0.617 1.781 0.063 c 0.301 -0.441 0.398 -1.102 0.625 -1.594 c 0.582 -1.254 1.645 -2.703 1.563 -4.156 c -0.035 -0.617 -0.52 -1.199 -0.688 -1.781 c -0.793 0.559 -2.582 1.504 -3.5 0.75 c -0.402 -0.328 -0.578 -1.379 -0.625 -1.875 c -0.059 -0.586 0.395 -0.988 0.313 -1.594 c -0.074 -0.523 -0.262 -1.152 -0.5 -1.625 c -0.141 -0.277 -0.449 -0.52 -0.469 -0.844 m 23.34 5.09 c 0.262 1.344 0.48 3.223 -0.125 4.5 c -0.719 1.512 -2.211 2.508 -2.027 4.344 c 0.117 1.23 1.648 1.637 2.469 2.375 c 0.281 0.254 0.781 0.598 0.777 1.031 c 0.359 -0.441 0.664 -0.922 0.969 -1.406 c -0.102 0.055 -0.215 0.086 -0.375 0 c -0.602 -0.324 -0.832 -1.402 -1 -2 c -0.625 -2.207 0.691 -3.953 0.594 -6.094 c -0.043 -1.012 -0.34 -2.246 -1.277 -2.75 m 0 0" fill="#000" stroke="none" fill-rule="evenodd" fill-opacity="0.392"/><path d="m 22.617 16 c -0.043 0.031 -0.078 0.07 -0.109 0.113 c -0.043 0.027 -0.078 0.066 -0.109 0.109 c -0.055 0.063 -0.094 0.141 -0.109 0.223 l 0 0.109 l -2.102 8.219 l -10.629 0 c -0.035 -0.004 -0.07 -0.004 -0.109 0 c -0.035 -0.004 -0.074 -0.004 -0.109 0 c -0.043 0.031 -0.078 0.07 -0.109 0.109 c -0.043 0.031 -0.078 0.07 -0.109 0.113 c -0.055 0.063 -0.094 0.141 -0.102 0.223 c -0.004 0.035 -0.004 0.074 0 0.109 c 0.016 0.082 0.055 0.156 0.102 0.223 c 0.031 0.043 0.066 0.078 0.109 0.109 c 0.031 0.043 0.066 0.078 0.109 0.109 c 0.035 0.004 0.074 0.004 0.109 0 c 0.039 0.004 0.074 0.004 0.109 0 l 10.957 0 c 0.035 0.004 0.074 0.004 0.109 0 c 0.035 0.004 0.074 0.004 0.109 0 c 0.043 -0.031 0.078 -0.066 0.109 -0.109 c 0.043 -0.031 0.082 -0.066 0.113 -0.109 c 0.039 -0.031 0.078 -0.066 0.109 -0.109 l 1.219 -4.555 l 0 10.668 c -0.004 0.035 -0.004 0.07 0 0.109 c 0.031 0.039 0.066 0.078 0.109 0.109 c 0.031 0.043 0.066 0.078 0.109 0.109 c 0.023 0.043 0.063 0.078 0.102 0.102 c 0.035 0.004 0.074 0.004 0.109 0 c 0.035 0.004 0.074 0.004 0.109 0 c 0.039 0.004 0.074 0.004 0.109 0 c 0.039 0.004 0.074 0.004 0.113 0 c 0.039 -0.023 0.078 -0.063 0.109 -0.102 c 0.039 -0.031 0.078 -0.066 0.109 -0.109 c 0.039 -0.031 0.078 -0.07 0.109 -0.109 l 0 -0.109 l 2.543 -9.664 l 0.887 3.543 c -0.004 0.035 -0.004 0.074 0 0.109 c 0.031 0.043 0.066 0.078 0.109 0.109 c 0.031 0.043 0.066 0.078 0.109 0.109 c 0.039 0.004 0.074 0.004 0.109 0 c 0.023 0.043 0.063 0.082 0.102 0.105 c 0.039 0.012 0.074 0.012 0.113 0 l 11.176 0 c 0.043 -0.023 0.082 -0.063 0.113 -0.105 c 0.035 0.004 0.07 0.004 0.109 0 c 0.039 -0.031 0.078 -0.066 0.109 -0.109 c 0.039 -0.031 0.078 -0.066 0.109 -0.109 c 0.004 -0.035 0.004 -0.074 0 -0.109 c 0.004 -0.035 0.004 -0.074 0 -0.109 c 0.004 -0.035 0.004 -0.074 0 -0.109 c 0.004 -0.039 0.004 -0.074 0 -0.109 c -0.02 -0.082 -0.055 -0.16 -0.109 -0.223 c -0.039 -0.004 -0.074 -0.004 -0.109 0 c -0.031 -0.043 -0.07 -0.082 -0.109 -0.113 c -0.039 -0.004 -0.074 -0.004 -0.113 0 l -10.844 0 l -1.328 -5.109 c 0.004 -0.035 0.004 -0.07 0 -0.109 c -0.031 -0.039 -0.07 -0.078 -0.105 -0.109 c -0.027 -0.043 -0.066 -0.078 -0.109 -0.102 c -0.035 -0.012 -0.07 -0.012 -0.109 0 c -0.035 -0.012 -0.07 -0.012 -0.109 0 c -0.035 -0.012 -0.074 -0.012 -0.109 0 c -0.035 -0.012 -0.074 -0.012 -0.109 0 c -0.035 -0.012 -0.074 -0.012 -0.109 0 c -0.043 0.023 -0.078 0.063 -0.109 0.102 c -0.055 0.066 -0.094 0.148 -0.109 0.223 l -1.992 7.441 l 0 -10.551 c 0.004 -0.035 0.004 -0.074 0 -0.109 c -0.02 -0.082 -0.059 -0.16 -0.109 -0.223 c -0.031 -0.043 -0.07 -0.082 -0.109 -0.109 c -0.023 -0.043 -0.063 -0.082 -0.105 -0.105 c -0.035 -0.012 -0.07 -0.012 -0.109 0 c -0.035 -0.012 -0.07 -0.012 -0.109 0 c -0.035 -0.012 -0.074 -0.012 -0.109 0 c -0.035 -0.012 -0.074 -0.012 -0.109 0 m 0 0" fill="#000" stroke="none" fill-rule="nonzero" fill-opacity="1"/></g></g></g></g></g><g><g clip-path="url(#clipPath-153032301)"><!-- color: #3d3d3d --><g><path d="m 24 9 c -3.637 0 -6.973 1.27 -9.566 3.406 c 0.914 -0.383 1.984 -0.582 3.094 -0.625 c 1.938 -0.078 3.973 0.34 5.441 1.281 c 0.855 0.551 1.32 1.512 2.094 2.129 c 1.375 1.094 3.129 1.867 4.75 2.5 c 0.926 0.363 1.863 0.555 2.781 0.969 c 0.469 0.211 0.832 0.625 1.313 0.809 c 0.59 0.227 1.273 0.227 1.844 0.5 c 0.723 0.344 1.445 1.367 1.75 2.094 c 0.172 0.418 0.027 0.855 0 1.285 c -0.094 1.344 -0.473 2.535 -0.781 3.844 c -0.375 1.59 -0.109 2.715 0.188 4.25 c 0.023 0.063 0.008 0.125 0 0.188 c 1.32 -2.234 2.102 -4.836 2.102 -7.625 c 0 -8.313 -6.691 -15 -14.996 -15 m -12.73 7.06 c -1.434 2.301 -2.273 5.02 -2.273 7.938 c 0 8.309 6.688 14.996 15 14.996 c 4.148 0 7.902 -1.664 10.625 -4.375 c -0.594 0.516 -1.305 0.996 -1.941 1.25 c -0.672 0.266 -0.816 -0.293 -0.719 -0.809 c -0.422 -0.023 -2.359 -0.508 -1.441 -1.156 c 0.734 -0.52 2.137 -0.133 2.875 0.188 c -0.324 -0.621 -1.242 -0.57 -1.844 -0.719 c -0.781 -0.191 -2.059 -1.055 -2.402 -1.781 l -0.152 0 c -0.148 0.766 -0.355 1.582 -0.473 2.34 c -0.063 0.41 0.066 0.84 -0.277 1.156 c -0.816 0.738 -2.332 0.363 -3.281 0.531 c -0.406 0.07 -0.727 0.512 -1.152 0.188 c -0.547 -0.406 -0.75 -2.059 0.121 -2.188 c 0.762 -0.113 1.598 0.375 2.406 0.375 c -0.047 -0.895 -0.801 -1.508 -1.121 -2.313 c -0.941 -2.305 -0.82 -4.945 1.684 -6.191 l 0 -0.063 c -0.965 0.199 -2.402 0.703 -3.371 0.563 c -0.328 -0.043 -1.285 -0.445 -1.531 -0.117 c -0.164 0.215 0.406 0.973 0.25 1.402 c -0.215 0.598 -0.793 1.078 -1.063 1.688 c -0.551 1.246 -0.633 3.129 -1.531 4.152 c -0.352 0.41 -0.777 0.496 -1.219 0.758 c -0.391 0.227 -0.484 0.734 -0.996 0.617 c -0.211 0.32 -0.418 0.176 -0.469 -0.152 c -1.195 0.305 -0.781 -0.797 0 -1.121 l 0 -0.094 c -0.145 0.031 -0.816 0.184 -0.75 -0.156 c 0.098 -0.539 1.383 -0.184 1.625 -0.719 c 0.766 -1.719 0.469 -3.957 0.469 -5.781 l -0.066 0 c -0.297 0.617 -0.816 1.145 -1.152 1.75 c -0.262 0.461 -0.379 1.047 -0.781 1.406 c -0.398 0.355 -0.824 0.391 -1.281 0.598 c -0.375 0.164 -0.492 0.492 -0.969 0.406 c -0.484 -0.094 -0.164 -0.398 0.094 -0.531 c -0.625 -0.273 -1.309 -0.328 -1.941 -0.531 c -0.223 -0.074 -0.219 -0.238 -0.063 -0.375 c -0.105 -0.457 0.234 -0.504 0.625 -0.469 c 0.543 0.051 1.402 0.617 1.781 0.063 c 0.301 -0.441 0.398 -1.102 0.625 -1.594 c 0.582 -1.254 1.645 -2.703 1.563 -4.156 c -0.035 -0.617 -0.52 -1.199 -0.688 -1.781 c -0.793 0.559 -2.582 1.504 -3.5 0.75 c -0.402 -0.328 -0.578 -1.379 -0.625 -1.875 c -0.059 -0.586 0.395 -0.988 0.313 -1.594 c -0.074 -0.523 -0.262 -1.152 -0.5 -1.625 c -0.141 -0.277 -0.449 -0.52 -0.469 -0.844 m 23.34 5.09 c 0.262 1.344 0.48 3.223 -0.125 4.5 c -0.719 1.512 -2.211 2.508 -2.027 4.344 c 0.117 1.23 1.648 1.637 2.469 2.375 c 0.281 0.254 0.781 0.598 0.777 1.031 c 0.359 -0.441 0.664 -0.922 0.969 -1.406 c -0.102 0.055 -0.215 0.086 -0.375 0 c -0.602 -0.324 -0.832 -1.402 -1 -2 c -0.625 -2.207 0.691 -3.953 0.594 -6.094 c -0.043 -1.012 -0.34 -2.246 -1.277 -2.75 m 0 0" fill="#36c1dd" stroke="none" fill-rule="evenodd" fill-opacity="0.392"/><path d="m 22.617 16 c -0.043 0.031 -0.078 0.07 -0.109 0.113 c -0.043 0.027 -0.078 0.066 -0.109 0.109 c -0.055 0.063 -0.094 0.141 -0.109 0.223 l 0 0.109 l -2.102 8.219 l -10.629 0 c -0.035 -0.004 -0.07 -0.004 -0.109 0 c -0.035 -0.004 -0.074 -0.004 -0.109 0 c -0.043 0.031 -0.078 0.07 -0.109 0.109 c -0.043 0.031 -0.078 0.07 -0.109 0.113 c -0.055 0.063 -0.094 0.141 -0.102 0.223 c -0.004 0.035 -0.004 0.074 0 0.109 c 0.016 0.082 0.055 0.156 0.102 0.223 c 0.031 0.043 0.066 0.078 0.109 0.109 c 0.031 0.043 0.066 0.078 0.109 0.109 c 0.035 0.004 0.074 0.004 0.109 0 c 0.039 0.004 0.074 0.004 0.109 0 l 10.957 0 c 0.035 0.004 0.074 0.004 0.109 0 c 0.035 0.004 0.074 0.004 0.109 0 c 0.043 -0.031 0.078 -0.066 0.109 -0.109 c 0.043 -0.031 0.082 -0.066 0.113 -0.109 c 0.039 -0.031 0.078 -0.066 0.109 -0.109 l 1.219 -4.555 l 0 10.668 c -0.004 0.035 -0.004 0.07 0 0.109 c 0.031 0.039 0.066 0.078 0.109 0.109 c 0.031 0.043 0.066 0.078 0.109 0.109 c 0.023 0.043 0.063 0.078 0.102 0.102 c 0.035 0.004 0.074 0.004 0.109 0 c 0.035 0.004 0.074 0.004 0.109 0 c 0.039 0.004 0.074 0.004 0.109 0 c 0.039 0.004 0.074 0.004 0.113 0 c 0.039 -0.023 0.078 -0.063 0.109 -0.102 c 0.039 -0.031 0.078 -0.066 0.109 -0.109 c 0.039 -0.031 0.078 -0.07 0.109 -0.109 l 0 -0.109 l 2.543 -9.664 l 0.887 3.543 c -0.004 0.035 -0.004 0.074 0 0.109 c 0.031 0.043 0.066 0.078 0.109 0.109 c 0.031 0.043 0.066 0.078 0.109 0.109 c 0.039 0.004 0.074 0.004 0.109 0 c 0.023 0.043 0.063 0.082 0.102 0.105 c 0.039 0.012 0.074 0.012 0.113 0 l 11.176 0 c 0.043 -0.023 0.082 -0.063 0.113 -0.105 c 0.035 0.004 0.07 0.004 0.109 0 c 0.039 -0.031 0.078 -0.066 0.109 -0.109 c 0.039 -0.031 0.078 -0.066 0.109 -0.109 c 0.004 -0.035 0.004 -0.074 0 -0.109 c 0.004 -0.035 0.004 -0.074 0 -0.109 c 0.004 -0.035 0.004 -0.074 0 -0.109 c 0.004 -0.039 0.004 -0.074 0 -0.109 c -0.02 -0.082 -0.055 -0.16 -0.109 -0.223 c -0.039 -0.004 -0.074 -0.004 -0.109 0 c -0.031 -0.043 -0.07 -0.082 -0.109 -0.113 c -0.039 -0.004 -0.074 -0.004 -0.113 0 l -10.844 0 l -1.328 -5.109 c 0.004 -0.035 0.004 -0.07 0 -0.109 c -0.031 -0.039 -0.07 -0.078 -0.105 -0.109 c -0.027 -0.043 -0.066 -0.078 -0.109 -0.102 c -0.035 -0.012 -0.07 -0.012 -0.109 0 c -0.035 -0.012 -0.07 -0.012 -0.109 0 c -0.035 -0.012 -0.074 -0.012 -0.109 0 c -0.035 -0.012 -0.074 -0.012 -0.109 0 c -0.035 -0.012 -0.074 -0.012 -0.109 0 c -0.043 0.023 -0.078 0.063 -0.109 0.102 c -0.055 0.066 -0.094 0.148 -0.109 0.223 l -1.992 7.441 l 0 -10.551 c 0.004 -0.035 0.004 -0.074 0 -0.109 c -0.02 -0.082 -0.059 -0.16 -0.109 -0.223 c -0.031 -0.043 -0.07 -0.082 -0.109 -0.109 c -0.023 -0.043 -0.063 -0.082 -0.105 -0.105 c -0.035 -0.012 -0.07 -0.012 -0.109 0 c -0.035 -0.012 -0.07 -0.012 -0.109 0 c -0.035 -0.012 -0.074 -0.012 -0.109 0 c -0.035 -0.012 -0.074 -0.012 -0.109 0 m 0 0" fill="#2db9d6" stroke="none" fill-rule="nonzero" fill-opacity="1"/></g></g></g><g><path d="m 20 4 -7.313 3.03 -5.656 5.656 -3.03 7.313 0 8 3.03 7.313 5.656 5.656 7.313 3.03 8 0 7.313 -3.03 5.656 -5.656 3.03 -7.313 0 -8 -3.03 -7.313 -5.656 -5.656 -7.313 -3.03 -8 0 z" clip-path="url(#clipPath4313)" transform="matrix(0,1,-1,0,48,0)" opacity="0.3" stroke-opacity="1" stroke-dasharray="none" visibility="visible" fill="none" display="inline" stroke="url(#linearGradient4375)" color="#000" stroke-width="1" stroke-miterlimit="4"/><path d="m 24 2.344 -4 1.656 -4.281 0 -3.03 3.03 l -4 1.656 -1.656 4 l -3.03 3.03 0 4.281 -1.656 4 1.656 4 l 0 4.281 3.03 3.03 1.656 4 4 1.656 l 3.03 3.03 4.281 0 4 1.656 4 -1.656 l 4.281 0 3.03 -3.03 4 -1.656 1.656 -4 l 3.03 -3.03 0 -4.281 1.656 -4 -1.656 -4 l 0 -4.281 -3.03 -3.03 -1.656 -4 -4 -1.656 l -3.03 -3.03 -4.281 0 -4 -1.656 z" clip-path="url(#clipPath4329)" opacity="0.2" stroke-opacity="1" visibility="visible" fill="none" display="inline" stroke="#000" color="#000" stroke-width="2"/></g></svg>