<svg viewBox="0 0 48 48" xmlns:xlink="http://www.w3.org/1999/xlink"><defs><clipPath clipPathUnits="userSpaceOnUse" id="clipPath4313"><path d="m 20 4 -7.313 3.03 -5.656 5.656 -3.03 7.313 0 8 3.03 7.313 5.656 5.656 7.313 3.03 8 0 7.313 -3.03 5.656 -5.656 3.03 -7.313 0 -8 -3.03 -7.313 -5.656 -5.656 -7.313 -3.03 -8 0 z"/></clipPath><clipPath clipPathUnits="userSpaceOnUse" id="clipPath4329"><path d="m 24 2.344 -4 1.656 -4.281 0 -3.03 3.03 l -4 1.656 -1.656 4 l -3.03 3.03 0 4.281 -1.656 4 1.656 4 l 0 4.281 3.03 3.03 1.656 4 4 1.656 l 3.03 3.03 4.281 0 4 1.656 4 -1.656 l 4.281 0 3.03 -3.03 4 -1.656 1.656 -4 l 3.03 -3.03 0 -4.281 1.656 -4 -1.656 -4 l 0 -4.281 -3.03 -3.03 -1.656 -4 -4 -1.656 l -3.03 -3.03 -4.281 0 -4 -1.656 z"/></clipPath><clipPath id="clipPath-930420447"><path d="m 24 2.344 l -4 1.656 l -4.281 0 l -3.03 3.03 l -4 1.656 l -1.656 4 l -3.03 3.03 l 0 4.281 l -1.656 4 l 1.656 4 l 0 4.281 l 3.03 3.03 l 1.656 4 l 4 1.656 l 3.03 3.03 l 4.281 0 l 4 1.656 l 4 -1.656 l 4.281 0 l 3.03 -3.03 l 4 -1.656 l 1.656 -4 l 3.03 -3.03 l 0 -4.281 l 1.656 -4 l -1.656 -4 l 0 -4.281 l -3.03 -3.03 l -1.656 -4 l -4 -1.656 l -3.03 -3.03 l -4.281 0 l -4 -1.656 z"/></clipPath><clipPath id="clipPath-936970564"><path d="m 24 2.344 l -4 1.656 l -4.281 0 l -3.03 3.03 l -4 1.656 l -1.656 4 l -3.03 3.03 l 0 4.281 l -1.656 4 l 1.656 4 l 0 4.281 l 3.03 3.03 l 1.656 4 l 4 1.656 l 3.03 3.03 l 4.281 0 l 4 1.656 l 4 -1.656 l 4.281 0 l 3.03 -3.03 l 4 -1.656 l 1.656 -4 l 3.03 -3.03 l 0 -4.281 l 1.656 -4 l -1.656 -4 l 0 -4.281 l -3.03 -3.03 l -1.656 -4 l -4 -1.656 l -3.03 -3.03 l -4.281 0 l -4 -1.656 z"/></clipPath><linearGradient id="linearGradient4317"><stop stop-color="#fff" stop-opacity="1"/><stop offset="1" stop-color="#fff" stop-opacity="0"/></linearGradient><clipPath clipPathUnits="userSpaceOnUse" id="clipPath4313"><path d="m 20 4 -7.313 3.03 -5.656 5.656 -3.03 7.313 0 8 3.03 7.313 5.656 5.656 7.313 3.03 8 0 7.313 -3.03 5.656 -5.656 3.03 -7.313 0 -8 -3.03 -7.313 -5.656 -5.656 -7.313 -3.03 -8 0 z"/></clipPath><linearGradient x2="44" x1="4" gradientUnits="userSpaceOnUse" id="linearGradient4375" xlink:href="#linearGradient4317"/><clipPath clipPathUnits="userSpaceOnUse" id="clipPath4329"><path d="m 24 2.344 -4 1.656 -4.281 0 -3.03 3.03 l -4 1.656 -1.656 4 l -3.03 3.03 0 4.281 -1.656 4 1.656 4 l 0 4.281 3.03 3.03 1.656 4 4 1.656 l 3.03 3.03 4.281 0 4 1.656 4 -1.656 l 4.281 0 3.03 -3.03 4 -1.656 1.656 -4 l 3.03 -3.03 0 -4.281 1.656 -4 -1.656 -4 l 0 -4.281 -3.03 -3.03 -1.656 -4 -4 -1.656 l -3.03 -3.03 -4.281 0 -4 -1.656 z"/></clipPath><path id="SVGCleanerId_0" d="m 24 2.344 l -4 1.656 l -4.281 0 l -3.03 3.03 l -4 1.656 l -1.656 4 l -3.03 3.03 l 0 4.281 l -1.656 4 l 1.656 4 l 0 4.281 l 3.03 3.03 l 1.656 4 l 4 1.656 l 3.03 3.03 l 4.281 0 l 4 1.656 l 4 -1.656 l 4.281 0 l 3.03 -3.03 l 4 -1.656 l 1.656 -4 l 3.03 -3.03 l 0 -4.281 l 1.656 -4 l -1.656 -4 l 0 -4.281 l -3.03 -3.03 l -1.656 -4 l -4 -1.656 l -3.03 -3.03 l -4.281 0 l -4 -1.656 z" visibility="visible" display="inline" fill-rule="nonzero" color="#000" fill-opacity="1"/></defs><g><path d="m 2.563 24.5 l -0.219 0.5 l 1.656 4 l 0 -1 l -1.438 -3.5 z m 42.875 0 l -1.438 3.5 l 0 1 l 1.656 -4 l -0.219 -0.5 z m -41.44 7.781 l 0 1 l 3.03 3.03 l 1.656 4 l 4 1.656 l 3.03 3.03 l 4.281 0 l 4 1.656 l 4 -1.656 l 4.281 0 l 3.03 -3.03 l 4 -1.656 l 1.656 -4 l 3.03 -3.03 l 0 -1 l -3.03 3.03 l -1.656 4 l -4 1.656 l -3.03 3.03 l -4.281 0 l -4 1.656 l -4 -1.656 l -4.281 0 l -3.03 -3.03 l -4 -1.656 l -1.656 -4 l -3.03 -3.03 z" opacity="0.3" visibility="visible" fill="#000" display="inline" fill-rule="nonzero" stroke="none" fill-opacity="1" color="#000"/></g><g><use fill="#edc53a" stroke="none" xlink:href="#SVGCleanerId_0"/><path d="m 24 2.344 l -4 1.656 l 8 0 l -4 -1.656 z m 4 1.656 l 7.313 3.03 l -3.03 -3.03 l -4.281 0 z m 7.313 3.03 l 5.656 5.656 l -1.656 -4 l -4 -1.656 z m 5.656 5.656 l 3.03 7.313 l 0 -4.281 l -3.03 -3.03 z m 3.03 7.313 l 0 8 l 1.656 -4 l -1.656 -4 z m 0 8 l -3.03 7.313 l 3.03 -3.03 l 0 -4.281 z m -3.03 7.313 l -5.656 5.656 l 4 -1.656 l 1.656 -4 z m -5.656 5.656 l -7.313 3.03 l 4.281 0 l 3.03 -3.03 z m -7.313 3.03 l -8 0 l 4 1.656 l 4 -1.656 z m -8 0 l -7.313 -3.03 l 3.03 3.03 l 4.281 0 z m -7.313 -3.03 l -5.656 -5.656 l 1.656 4 l 4 1.656 z m -5.656 -5.656 l -3.03 -7.313 l 0 4.281 l 3.03 3.03 z m -3.03 -7.313 l 0 -8 l -1.656 4 l 1.656 4 z m 0 -8 l 3.03 -7.313 l -3.03 3.03 l 0 4.281 z m 3.03 -7.313 l 5.656 -5.656 l -4 1.656 l -1.656 4 z m 5.656 -5.656 l 7.313 -3.03 l -4.281 0 l -3.03 3.03 z" opacity="0.05" visibility="visible" fill="#edc53a" display="inline" fill-rule="nonzero" stroke="none" fill-opacity="1" color="#000"/></g><g><use opacity="0.05" stroke-opacity="1" stroke-dasharray="none" fill="#000" stroke="#000" stroke-width="2" stroke-miterlimit="4" xlink:href="#SVGCleanerId_0"/><use opacity="0.1" stroke-opacity="1" stroke-dasharray="none" fill="#000" stroke="#000" stroke-width="1" stroke-miterlimit="4" xlink:href="#SVGCleanerId_0"/></g><g><g clip-path="url(#clipPath-930420447)"><g transform="translate(0,1)"><g opacity="0.1"><!-- color: #edc53a --><g><path d="m 27 13 c -6.07 0 -11 4.93 -11 11 c 0 6.07 4.93 10.996 11 10.996 c 6.07 0 11 -4.926 11 -10.996 c 0 -6.07 -4.93 -11 -11 -11 m 0 7.625 c 1.859 0 3.375 1.512 3.375 3.375 c 0 1.859 -1.516 3.371 -3.375 3.371 c -1.859 0 -3.375 -1.512 -3.375 -3.371 c 0 -1.863 1.516 -3.375 3.375 -3.375 m 0 0" fill="#000" stroke="none" fill-rule="evenodd" fill-opacity="1"/><path d="m 29 24 c 0 1.105 -0.898 1.996 -2 1.996 c -1.105 0 -2 -0.895 -2 -1.996 c 0 -1.105 0.898 -2 2 -2 c 1.105 0 2 0.898 2 2 m 0 0" fill="#000" stroke="none" fill-rule="evenodd" fill-opacity="1"/><path d="m 22 28.801 c -6.602 0 -5.398 -3 -8.195 -6.469 c -0.398 0.297 -0.871 0.469 -1.402 0.469 c -1.324 0 -2.398 -1.074 -2.398 -2.398 c 0 -1.324 1.074 -2.398 2.398 -2.398 c 0.215 0 0.422 0.043 0.617 0.094 l -0.02 -0.094 l 0.168 0.129 c 0.527 0.184 0.961 0.547 1.262 1.016 m -0.832 1.25 c 0 -0.66 -0.535 -1.199 -1.199 -1.199 c -0.66 0 -1.203 0.535 -1.203 1.199 c 0 0.66 0.539 1.203 1.203 1.203 c 0.66 0 1.199 -0.539 1.199 -1.203 m 0 0" fill="#000" stroke="none" fill-rule="evenodd" fill-opacity="1"/><path d="m 22 19.2 c -6.602 0 -5.398 3 -8.195 6.465 c -0.398 -0.293 -0.871 -0.469 -1.402 -0.469 c -1.324 0 -2.398 1.074 -2.398 2.398 c 0 1.328 1.074 2.398 2.398 2.398 c 0.215 0 0.422 -0.059 0.617 -0.094 l -0.02 0.094 l 0.168 -0.129 c 0.527 -0.18 0.961 -0.547 1.262 -1.016 m -0.832 -1.25 c 0 0.66 -0.535 1.203 -1.199 1.203 c -0.66 0 -1.203 -0.539 -1.203 -1.203 c 0 -0.66 0.539 -1.199 1.203 -1.199 c 0.66 0 1.199 0.539 1.199 1.199 m 0 0" fill="#000" stroke="none" fill-rule="evenodd" fill-opacity="1"/></g></g></g></g></g><g><g clip-path="url(#clipPath-936970564)"><!-- color: #edc53a --><g><path d="m 27 13 c -6.07 0 -11 4.93 -11 11 c 0 6.07 4.93 10.996 11 10.996 c 6.07 0 11 -4.926 11 -10.996 c 0 -6.07 -4.93 -11 -11 -11 m 0 7.625 c 1.859 0 3.375 1.512 3.375 3.375 c 0 1.859 -1.516 3.371 -3.375 3.371 c -1.859 0 -3.375 -1.512 -3.375 -3.371 c 0 -1.863 1.516 -3.375 3.375 -3.375 m 0 0" fill="#454545" stroke="none" fill-rule="evenodd" fill-opacity="1"/><path d="m 29 24 c 0 1.105 -0.898 1.996 -2 1.996 c -1.105 0 -2 -0.895 -2 -1.996 c 0 -1.105 0.898 -2 2 -2 c 1.105 0 2 0.898 2 2 m 0 0" fill="#454545" stroke="none" fill-rule="evenodd" fill-opacity="1"/><path d="m 22 28.801 c -6.602 0 -5.398 -3 -8.195 -6.469 c -0.398 0.297 -0.871 0.469 -1.402 0.469 c -1.324 0 -2.398 -1.074 -2.398 -2.398 c 0 -1.324 1.074 -2.398 2.398 -2.398 c 0.215 0 0.422 0.043 0.617 0.094 l -0.02 -0.094 l 0.168 0.129 c 0.527 0.184 0.961 0.547 1.262 1.016 m -0.832 1.25 c 0 -0.66 -0.535 -1.199 -1.199 -1.199 c -0.66 0 -1.203 0.535 -1.203 1.199 c 0 0.66 0.539 1.203 1.203 1.203 c 0.66 0 1.199 -0.539 1.199 -1.203 m 0 0" fill="#1f9cce" stroke="none" fill-rule="evenodd" fill-opacity="1"/><path d="m 22 19.2 c -6.602 0 -5.398 3 -8.195 6.465 c -0.398 -0.293 -0.871 -0.469 -1.402 -0.469 c -1.324 0 -2.398 1.074 -2.398 2.398 c 0 1.328 1.074 2.398 2.398 2.398 c 0.215 0 0.422 -0.059 0.617 -0.094 l -0.02 0.094 l 0.168 -0.129 c 0.527 -0.18 0.961 -0.547 1.262 -1.016 m -0.832 -1.25 c 0 0.66 -0.535 1.203 -1.199 1.203 c -0.66 0 -1.203 -0.539 -1.203 -1.203 c 0 -0.66 0.539 -1.199 1.203 -1.199 c 0.66 0 1.199 0.539 1.199 1.199 m 0 0" fill="#1f9cce" stroke="none" fill-rule="evenodd" fill-opacity="1"/></g></g></g><g><path d="m 20 4 -7.313 3.03 -5.656 5.656 -3.03 7.313 0 8 3.03 7.313 5.656 5.656 7.313 3.03 8 0 7.313 -3.03 5.656 -5.656 3.03 -7.313 0 -8 -3.03 -7.313 -5.656 -5.656 -7.313 -3.03 -8 0 z" clip-path="url(#clipPath4313)" transform="matrix(0,1,-1,0,48,0)" opacity="0.3" stroke-opacity="1" stroke-dasharray="none" visibility="visible" fill="none" display="inline" stroke="url(#linearGradient4375)" color="#000" stroke-width="1" stroke-miterlimit="4"/><path d="m 24 2.344 -4 1.656 -4.281 0 -3.03 3.03 l -4 1.656 -1.656 4 l -3.03 3.03 0 4.281 -1.656 4 1.656 4 l 0 4.281 3.03 3.03 1.656 4 4 1.656 l 3.03 3.03 4.281 0 4 1.656 4 -1.656 l 4.281 0 3.03 -3.03 4 -1.656 1.656 -4 l 3.03 -3.03 0 -4.281 1.656 -4 -1.656 -4 l 0 -4.281 -3.03 -3.03 -1.656 -4 -4 -1.656 l -3.03 -3.03 -4.281 0 -4 -1.656 z" clip-path="url(#clipPath4329)" opacity="0.2" stroke-opacity="1" visibility="visible" fill="none" display="inline" stroke="#000" color="#000" stroke-width="2"/></g></svg>