<svg viewBox="0 0 48 48" xmlns:xlink="http://www.w3.org/1999/xlink"><defs><clipPath clipPathUnits="userSpaceOnUse" id="clipPath4313"><path d="m 20 4 -7.313 3.03 -5.656 5.656 -3.03 7.313 0 8 3.03 7.313 5.656 5.656 7.313 3.03 8 0 7.313 -3.03 5.656 -5.656 3.03 -7.313 0 -8 -3.03 -7.313 -5.656 -5.656 -7.313 -3.03 -8 0 z"/></clipPath><clipPath clipPathUnits="userSpaceOnUse" id="clipPath4329"><path d="m 24 2.344 -4 1.656 -4.281 0 -3.03 3.03 l -4 1.656 -1.656 4 l -3.03 3.03 0 4.281 -1.656 4 1.656 4 l 0 4.281 3.03 3.03 1.656 4 4 1.656 l 3.03 3.03 4.281 0 4 1.656 4 -1.656 l 4.281 0 3.03 -3.03 4 -1.656 1.656 -4 l 3.03 -3.03 0 -4.281 1.656 -4 -1.656 -4 l 0 -4.281 -3.03 -3.03 -1.656 -4 -4 -1.656 l -3.03 -3.03 -4.281 0 -4 -1.656 z"/></clipPath><clipPath id="clipPath-007788901"><path d="m 24 2.344 l -4 1.656 l -4.281 0 l -3.03 3.03 l -4 1.656 l -1.656 4 l -3.03 3.03 l 0 4.281 l -1.656 4 l 1.656 4 l 0 4.281 l 3.03 3.03 l 1.656 4 l 4 1.656 l 3.03 3.03 l 4.281 0 l 4 1.656 l 4 -1.656 l 4.281 0 l 3.03 -3.03 l 4 -1.656 l 1.656 -4 l 3.03 -3.03 l 0 -4.281 l 1.656 -4 l -1.656 -4 l 0 -4.281 l -3.03 -3.03 l -1.656 -4 l -4 -1.656 l -3.03 -3.03 l -4.281 0 l -4 -1.656 z"/></clipPath><clipPath id="clipPath-021073888"><path d="m 24 2.344 l -4 1.656 l -4.281 0 l -3.03 3.03 l -4 1.656 l -1.656 4 l -3.03 3.03 l 0 4.281 l -1.656 4 l 1.656 4 l 0 4.281 l 3.03 3.03 l 1.656 4 l 4 1.656 l 3.03 3.03 l 4.281 0 l 4 1.656 l 4 -1.656 l 4.281 0 l 3.03 -3.03 l 4 -1.656 l 1.656 -4 l 3.03 -3.03 l 0 -4.281 l 1.656 -4 l -1.656 -4 l 0 -4.281 l -3.03 -3.03 l -1.656 -4 l -4 -1.656 l -3.03 -3.03 l -4.281 0 l -4 -1.656 z"/></clipPath><linearGradient id="linearGradient4317"><stop stop-color="#fff" stop-opacity="1"/><stop offset="1" stop-color="#fff" stop-opacity="0"/></linearGradient><clipPath clipPathUnits="userSpaceOnUse" id="clipPath4313"><path d="m 20 4 -7.313 3.03 -5.656 5.656 -3.03 7.313 0 8 3.03 7.313 5.656 5.656 7.313 3.03 8 0 7.313 -3.03 5.656 -5.656 3.03 -7.313 0 -8 -3.03 -7.313 -5.656 -5.656 -7.313 -3.03 -8 0 z"/></clipPath><linearGradient x2="44" x1="4" gradientUnits="userSpaceOnUse" id="linearGradient4375" xlink:href="#linearGradient4317"/><clipPath clipPathUnits="userSpaceOnUse" id="clipPath4329"><path d="m 24 2.344 -4 1.656 -4.281 0 -3.03 3.03 l -4 1.656 -1.656 4 l -3.03 3.03 0 4.281 -1.656 4 1.656 4 l 0 4.281 3.03 3.03 1.656 4 4 1.656 l 3.03 3.03 4.281 0 4 1.656 4 -1.656 l 4.281 0 3.03 -3.03 4 -1.656 1.656 -4 l 3.03 -3.03 0 -4.281 1.656 -4 -1.656 -4 l 0 -4.281 -3.03 -3.03 -1.656 -4 -4 -1.656 l -3.03 -3.03 -4.281 0 -4 -1.656 z"/></clipPath><path id="SVGCleanerId_0" d="m 24 2.344 l -4 1.656 l -4.281 0 l -3.03 3.03 l -4 1.656 l -1.656 4 l -3.03 3.03 l 0 4.281 l -1.656 4 l 1.656 4 l 0 4.281 l 3.03 3.03 l 1.656 4 l 4 1.656 l 3.03 3.03 l 4.281 0 l 4 1.656 l 4 -1.656 l 4.281 0 l 3.03 -3.03 l 4 -1.656 l 1.656 -4 l 3.03 -3.03 l 0 -4.281 l 1.656 -4 l -1.656 -4 l 0 -4.281 l -3.03 -3.03 l -1.656 -4 l -4 -1.656 l -3.03 -3.03 l -4.281 0 l -4 -1.656 z" visibility="visible" display="inline" fill-rule="nonzero" color="#000" fill-opacity="1"/></defs><g><path d="m 2.563 24.5 l -0.219 0.5 l 1.656 4 l 0 -1 l -1.438 -3.5 z m 42.875 0 l -1.438 3.5 l 0 1 l 1.656 -4 l -0.219 -0.5 z m -41.44 7.781 l 0 1 l 3.03 3.03 l 1.656 4 l 4 1.656 l 3.03 3.03 l 4.281 0 l 4 1.656 l 4 -1.656 l 4.281 0 l 3.03 -3.03 l 4 -1.656 l 1.656 -4 l 3.03 -3.03 l 0 -1 l -3.03 3.03 l -1.656 4 l -4 1.656 l -3.03 3.03 l -4.281 0 l -4 1.656 l -4 -1.656 l -4.281 0 l -3.03 -3.03 l -4 -1.656 l -1.656 -4 l -3.03 -3.03 z" opacity="0.3" visibility="visible" fill="#000" display="inline" fill-rule="nonzero" stroke="none" fill-opacity="1" color="#000"/></g><g><use fill="#65330f" stroke="none" xlink:href="#SVGCleanerId_0"/><path d="m 24 2.344 l -4 1.656 l 8 0 l -4 -1.656 z m 4 1.656 l 7.313 3.03 l -3.03 -3.03 l -4.281 0 z m 7.313 3.03 l 5.656 5.656 l -1.656 -4 l -4 -1.656 z m 5.656 5.656 l 3.03 7.313 l 0 -4.281 l -3.03 -3.03 z m 3.03 7.313 l 0 8 l 1.656 -4 l -1.656 -4 z m 0 8 l -3.03 7.313 l 3.03 -3.03 l 0 -4.281 z m -3.03 7.313 l -5.656 5.656 l 4 -1.656 l 1.656 -4 z m -5.656 5.656 l -7.313 3.03 l 4.281 0 l 3.03 -3.03 z m -7.313 3.03 l -8 0 l 4 1.656 l 4 -1.656 z m -8 0 l -7.313 -3.03 l 3.03 3.03 l 4.281 0 z m -7.313 -3.03 l -5.656 -5.656 l 1.656 4 l 4 1.656 z m -5.656 -5.656 l -3.03 -7.313 l 0 4.281 l 3.03 3.03 z m -3.03 -7.313 l 0 -8 l -1.656 4 l 1.656 4 z m 0 -8 l 3.03 -7.313 l -3.03 3.03 l 0 4.281 z m 3.03 -7.313 l 5.656 -5.656 l -4 1.656 l -1.656 4 z m 5.656 -5.656 l 7.313 -3.03 l -4.281 0 l -3.03 3.03 z" opacity="0.05" visibility="visible" fill="#65330f" display="inline" fill-rule="nonzero" stroke="none" fill-opacity="1" color="#000"/></g><g><use opacity="0.05" stroke-opacity="1" stroke-dasharray="none" fill="#000" stroke="#000" stroke-width="2" stroke-miterlimit="4" xlink:href="#SVGCleanerId_0"/><use opacity="0.1" stroke-opacity="1" stroke-dasharray="none" fill="#000" stroke="#000" stroke-width="1" stroke-miterlimit="4" xlink:href="#SVGCleanerId_0"/></g><g><g clip-path="url(#clipPath-007788901)"><g transform="translate(0,1)"><g opacity="0.1"><!-- color: #65330f --><g><path d="m 13 31.578 l 0 -4.105 l 2.32 -15.16 c 0.051 -0.316 0.18 -0.316 0.535 -0.316 l 7.16 0 l 0 19.582 m 0 2.527 l 0 1.578 c 0 0.316 0 0.316 -0.359 0.316 l -9.289 0 c -0.355 0 -0.355 0 -0.355 -0.316 l 0 -1.578" fill="#000" stroke="none" fill-rule="nonzero" fill-opacity="1"/><path d="m 35 31.578 l 0 -4.105 l -2.32 -15.16 c -0.051 -0.316 -0.176 -0.316 -0.535 -0.316 l -7.156 0 l 0 19.582 m 0 2.527 l 0 1.578 c 0 0.316 0 0.316 0.355 0.316 l 9.289 0 c 0.355 0 0.355 0 0.355 -0.316 l 0 -1.578" fill="#000" stroke="none" fill-rule="nonzero" fill-opacity="1"/><path d="m 21.402 12 c -1.906 0 -2.336 0.711 -2.336 1.074 c 0 0.359 0.238 0.523 0.773 0.523 c 1 0 0.52 -1.402 2.203 -1.402 c 1.289 0 2 2.266 3.449 6.086 l -2.563 0.121 l 0.004 0.211 l 2.754 0.117 l 1.5 4.133 c 1.453 3.922 3.418 7.125 6.441 7.125 c 1.934 0 2.383 -0.656 2.383 -1.172 c 0 -0.355 -0.453 -0.445 -0.738 -0.445 c -1.082 0 -0.504 1.414 -2.25 1.414 c -1.191 0 -1.84 -1.891 -2.781 -4.398 l -2.52 -6.703 l 2.477 -0.098 l 0 -0.203 l -2.637 -0.125 c -1.746 -4.512 -3.859 -6.273 -6.156 -6.273 m -0.004 0.016" fill="#000" stroke="none" fill-rule="nonzero" fill-opacity="1"/><path d="m 14.336 12 c -1.906 0 -2.336 0.711 -2.336 1.074 c 0 0.359 0.238 0.523 0.773 0.523 c 1 0 0.52 -1.402 2.203 -1.402 c 1.289 0 2.01 2.266 3.449 6.086 l -2.563 0.121 l 0.004 0.211 l 2.758 0.117 l 1.496 4.133 c 1.453 3.922 3.422 7.125 6.441 7.125 c 1.938 0 2.383 -0.656 2.383 -1.172 c 0 -0.355 -0.453 -0.445 -0.738 -0.445 c -1.078 0 -0.5 1.414 -2.25 1.414 c -1.188 0 -1.836 -1.891 -2.781 -4.398 l -2.52 -6.703 l 2.477 -0.098 l 0 -0.203 l -2.637 -0.125 c -1.746 -4.512 -3.855 -6.273 -6.156 -6.273 m -0.004 0.016" fill="#000" stroke="none" fill-rule="nonzero" fill-opacity="1"/></g></g></g></g></g><g><g clip-path="url(#clipPath-021073888)"><!-- color: #65330f --><g><path d="m 13 31.578 l 0 -4.105 l 2.32 -15.16 c 0.051 -0.316 0.18 -0.316 0.535 -0.316 l 7.16 0 l 0 19.582 m 0 2.527 l 0 1.578 c 0 0.316 0 0.316 -0.359 0.316 l -9.289 0 c -0.355 0 -0.355 0 -0.355 -0.316 l 0 -1.578" fill="#de7f36" stroke="none" fill-rule="nonzero" fill-opacity="1"/><path d="m 35 31.578 l 0 -4.105 l -2.32 -15.16 c -0.051 -0.316 -0.176 -0.316 -0.535 -0.316 l -7.156 0 l 0 19.582 m 0 2.527 l 0 1.578 c 0 0.316 0 0.316 0.355 0.316 l 9.289 0 c 0.355 0 0.355 0 0.355 -0.316 l 0 -1.578" fill="#de7f36" stroke="none" fill-rule="nonzero" fill-opacity="1"/><path d="m 21.402 12 c -1.906 0 -2.336 0.711 -2.336 1.074 c 0 0.359 0.238 0.523 0.773 0.523 c 1 0 0.52 -1.402 2.203 -1.402 c 1.289 0 2 2.266 3.449 6.086 l -2.563 0.121 l 0.004 0.211 l 2.754 0.117 l 1.5 4.133 c 1.453 3.922 3.418 7.125 6.441 7.125 c 1.934 0 2.383 -0.656 2.383 -1.172 c 0 -0.355 -0.453 -0.445 -0.738 -0.445 c -1.082 0 -0.504 1.414 -2.25 1.414 c -1.191 0 -1.84 -1.891 -2.781 -4.398 l -2.52 -6.703 l 2.477 -0.098 l 0 -0.203 l -2.637 -0.125 c -1.746 -4.512 -3.859 -6.273 -6.156 -6.273 m -0.004 0.016" fill="#ffedde" stroke="none" fill-rule="nonzero" fill-opacity="1"/><path d="m 14.336 12 c -1.906 0 -2.336 0.711 -2.336 1.074 c 0 0.359 0.238 0.523 0.773 0.523 c 1 0 0.52 -1.402 2.203 -1.402 c 1.289 0 2.01 2.266 3.449 6.086 l -2.563 0.121 l 0.004 0.211 l 2.758 0.117 l 1.496 4.133 c 1.453 3.922 3.422 7.125 6.441 7.125 c 1.938 0 2.383 -0.656 2.383 -1.172 c 0 -0.355 -0.453 -0.445 -0.738 -0.445 c -1.078 0 -0.5 1.414 -2.25 1.414 c -1.188 0 -1.836 -1.891 -2.781 -4.398 l -2.52 -6.703 l 2.477 -0.098 l 0 -0.203 l -2.637 -0.125 c -1.746 -4.512 -3.855 -6.273 -6.156 -6.273 m -0.004 0.016" fill="#ffedde" stroke="none" fill-rule="nonzero" fill-opacity="1"/></g></g></g><g><path d="m 20 4 -7.313 3.03 -5.656 5.656 -3.03 7.313 0 8 3.03 7.313 5.656 5.656 7.313 3.03 8 0 7.313 -3.03 5.656 -5.656 3.03 -7.313 0 -8 -3.03 -7.313 -5.656 -5.656 -7.313 -3.03 -8 0 z" clip-path="url(#clipPath4313)" transform="matrix(0,1,-1,0,48,0)" opacity="0.3" stroke-opacity="1" stroke-dasharray="none" visibility="visible" fill="none" display="inline" stroke="url(#linearGradient4375)" color="#000" stroke-width="1" stroke-miterlimit="4"/><path d="m 24 2.344 -4 1.656 -4.281 0 -3.03 3.03 l -4 1.656 -1.656 4 l -3.03 3.03 0 4.281 -1.656 4 1.656 4 l 0 4.281 3.03 3.03 1.656 4 4 1.656 l 3.03 3.03 4.281 0 4 1.656 4 -1.656 l 4.281 0 3.03 -3.03 4 -1.656 1.656 -4 l 3.03 -3.03 0 -4.281 1.656 -4 -1.656 -4 l 0 -4.281 -3.03 -3.03 -1.656 -4 -4 -1.656 l -3.03 -3.03 -4.281 0 -4 -1.656 z" clip-path="url(#clipPath4329)" opacity="0.2" stroke-opacity="1" visibility="visible" fill="none" display="inline" stroke="#000" color="#000" stroke-width="2"/></g></svg>