<svg viewBox="0 0 48 48" xmlns:xlink="http://www.w3.org/1999/xlink"><defs><clipPath clipPathUnits="userSpaceOnUse" id="clipPath4313"><path d="m 20 4 -7.313 3.03 -5.656 5.656 -3.03 7.313 0 8 3.03 7.313 5.656 5.656 7.313 3.03 8 0 7.313 -3.03 5.656 -5.656 3.03 -7.313 0 -8 -3.03 -7.313 -5.656 -5.656 -7.313 -3.03 -8 0 z"/></clipPath><clipPath clipPathUnits="userSpaceOnUse" id="clipPath4329"><path d="m 24 2.344 -4 1.656 -4.281 0 -3.03 3.03 l -4 1.656 -1.656 4 l -3.03 3.03 0 4.281 -1.656 4 1.656 4 l 0 4.281 3.03 3.03 1.656 4 4 1.656 l 3.03 3.03 4.281 0 4 1.656 4 -1.656 l 4.281 0 3.03 -3.03 4 -1.656 1.656 -4 l 3.03 -3.03 0 -4.281 1.656 -4 -1.656 -4 l 0 -4.281 -3.03 -3.03 -1.656 -4 -4 -1.656 l -3.03 -3.03 -4.281 0 -4 -1.656 z"/></clipPath><clipPath id="clipPath-212423205"><path d="m 24 2.344 l -4 1.656 l -4.281 0 l -3.03 3.03 l -4 1.656 l -1.656 4 l -3.03 3.03 l 0 4.281 l -1.656 4 l 1.656 4 l 0 4.281 l 3.03 3.03 l 1.656 4 l 4 1.656 l 3.03 3.03 l 4.281 0 l 4 1.656 l 4 -1.656 l 4.281 0 l 3.03 -3.03 l 4 -1.656 l 1.656 -4 l 3.03 -3.03 l 0 -4.281 l 1.656 -4 l -1.656 -4 l 0 -4.281 l -3.03 -3.03 l -1.656 -4 l -4 -1.656 l -3.03 -3.03 l -4.281 0 l -4 -1.656 z"/></clipPath><clipPath id="clipPath-225019886"><path d="m 24 2.344 l -4 1.656 l -4.281 0 l -3.03 3.03 l -4 1.656 l -1.656 4 l -3.03 3.03 l 0 4.281 l -1.656 4 l 1.656 4 l 0 4.281 l 3.03 3.03 l 1.656 4 l 4 1.656 l 3.03 3.03 l 4.281 0 l 4 1.656 l 4 -1.656 l 4.281 0 l 3.03 -3.03 l 4 -1.656 l 1.656 -4 l 3.03 -3.03 l 0 -4.281 l 1.656 -4 l -1.656 -4 l 0 -4.281 l -3.03 -3.03 l -1.656 -4 l -4 -1.656 l -3.03 -3.03 l -4.281 0 l -4 -1.656 z"/></clipPath><linearGradient id="linearGradient4317"><stop stop-color="#fff" stop-opacity="1"/><stop offset="1" stop-color="#fff" stop-opacity="0"/></linearGradient><clipPath clipPathUnits="userSpaceOnUse" id="clipPath4313"><path d="m 20 4 -7.313 3.03 -5.656 5.656 -3.03 7.313 0 8 3.03 7.313 5.656 5.656 7.313 3.03 8 0 7.313 -3.03 5.656 -5.656 3.03 -7.313 0 -8 -3.03 -7.313 -5.656 -5.656 -7.313 -3.03 -8 0 z"/></clipPath><linearGradient x2="44" x1="4" gradientUnits="userSpaceOnUse" id="linearGradient4375" xlink:href="#linearGradient4317"/><clipPath clipPathUnits="userSpaceOnUse" id="clipPath4329"><path d="m 24 2.344 -4 1.656 -4.281 0 -3.03 3.03 l -4 1.656 -1.656 4 l -3.03 3.03 0 4.281 -1.656 4 1.656 4 l 0 4.281 3.03 3.03 1.656 4 4 1.656 l 3.03 3.03 4.281 0 4 1.656 4 -1.656 l 4.281 0 3.03 -3.03 4 -1.656 1.656 -4 l 3.03 -3.03 0 -4.281 1.656 -4 -1.656 -4 l 0 -4.281 -3.03 -3.03 -1.656 -4 -4 -1.656 l -3.03 -3.03 -4.281 0 -4 -1.656 z"/></clipPath><path id="SVGCleanerId_0" d="m 24 2.344 l -4 1.656 l -4.281 0 l -3.03 3.03 l -4 1.656 l -1.656 4 l -3.03 3.03 l 0 4.281 l -1.656 4 l 1.656 4 l 0 4.281 l 3.03 3.03 l 1.656 4 l 4 1.656 l 3.03 3.03 l 4.281 0 l 4 1.656 l 4 -1.656 l 4.281 0 l 3.03 -3.03 l 4 -1.656 l 1.656 -4 l 3.03 -3.03 l 0 -4.281 l 1.656 -4 l -1.656 -4 l 0 -4.281 l -3.03 -3.03 l -1.656 -4 l -4 -1.656 l -3.03 -3.03 l -4.281 0 l -4 -1.656 z" visibility="visible" display="inline" fill-rule="nonzero" color="#000" fill-opacity="1"/></defs><g><path d="m 2.563 24.5 l -0.219 0.5 l 1.656 4 l 0 -1 l -1.438 -3.5 z m 42.875 0 l -1.438 3.5 l 0 1 l 1.656 -4 l -0.219 -0.5 z m -41.44 7.781 l 0 1 l 3.03 3.03 l 1.656 4 l 4 1.656 l 3.03 3.03 l 4.281 0 l 4 1.656 l 4 -1.656 l 4.281 0 l 3.03 -3.03 l 4 -1.656 l 1.656 -4 l 3.03 -3.03 l 0 -1 l -3.03 3.03 l -1.656 4 l -4 1.656 l -3.03 3.03 l -4.281 0 l -4 1.656 l -4 -1.656 l -4.281 0 l -3.03 -3.03 l -4 -1.656 l -1.656 -4 l -3.03 -3.03 z" opacity="0.3" visibility="visible" fill="#000" display="inline" fill-rule="nonzero" stroke="none" fill-opacity="1" color="#000"/></g><g><use fill="#c059b6" stroke="none" xlink:href="#SVGCleanerId_0"/><path d="m 24 2.344 l -4 1.656 l 8 0 l -4 -1.656 z m 4 1.656 l 7.313 3.03 l -3.03 -3.03 l -4.281 0 z m 7.313 3.03 l 5.656 5.656 l -1.656 -4 l -4 -1.656 z m 5.656 5.656 l 3.03 7.313 l 0 -4.281 l -3.03 -3.03 z m 3.03 7.313 l 0 8 l 1.656 -4 l -1.656 -4 z m 0 8 l -3.03 7.313 l 3.03 -3.03 l 0 -4.281 z m -3.03 7.313 l -5.656 5.656 l 4 -1.656 l 1.656 -4 z m -5.656 5.656 l -7.313 3.03 l 4.281 0 l 3.03 -3.03 z m -7.313 3.03 l -8 0 l 4 1.656 l 4 -1.656 z m -8 0 l -7.313 -3.03 l 3.03 3.03 l 4.281 0 z m -7.313 -3.03 l -5.656 -5.656 l 1.656 4 l 4 1.656 z m -5.656 -5.656 l -3.03 -7.313 l 0 4.281 l 3.03 3.03 z m -3.03 -7.313 l 0 -8 l -1.656 4 l 1.656 4 z m 0 -8 l 3.03 -7.313 l -3.03 3.03 l 0 4.281 z m 3.03 -7.313 l 5.656 -5.656 l -4 1.656 l -1.656 4 z m 5.656 -5.656 l 7.313 -3.03 l -4.281 0 l -3.03 3.03 z" opacity="0.05" visibility="visible" fill="#c059b6" display="inline" fill-rule="nonzero" stroke="none" fill-opacity="1" color="#000"/></g><g><use opacity="0.05" stroke-opacity="1" stroke-dasharray="none" fill="#000" stroke="#000" stroke-width="2" stroke-miterlimit="4" xlink:href="#SVGCleanerId_0"/><use opacity="0.1" stroke-opacity="1" stroke-dasharray="none" fill="#000" stroke="#000" stroke-width="1" stroke-miterlimit="4" xlink:href="#SVGCleanerId_0"/></g><g><g clip-path="url(#clipPath-212423205)"><g transform="translate(0,1)"><g opacity="0.1"><!-- color: #c059b6 --><g><path d="m 15 11 c -1 0 -1 0.996 -1 0.996 l 0 23 c 0 1 1 2 1.996 2 l 16.98 0 c 0.535 0 1.02 -0.465 1.02 -0.977 l 0 -21.02 c 0 -0.512 -0.461 -1 -0.996 -1 l -15 0 l -2 -2 c 5.109 -0.039 11.789 0 17 0 c 0.105 0 -0.32 -0.996 -1 -0.996 m -14 4.996 l 14 0 l 0 19 l -14 0 m 0 -19" fill="#000" stroke="none" fill-rule="nonzero" fill-opacity="1"/><path d="m 16 15 l 0 21 l 17 0 l 0 -21 m -7.438 3 c 0.691 -0.012 1.547 0.215 2.375 0.688 c 1.32 0.758 2.156 1.891 2.063 2.719 l -5.406 -3.094 c -0.016 -0.008 -0.016 -0.023 -0.031 -0.031 c 0.254 -0.184 0.586 -0.273 1 -0.281 m -0.844 0.813 c 0.102 0.012 0.219 0.074 0.313 0.125 l 0.344 0.191 c 0.375 0.215 0.496 0.691 0.281 1.063 l -4.219 7.219 c -0.215 0.371 -0.688 0.496 -1.063 0.281 l -0.344 -0.188 c -0.375 -0.219 -0.496 -0.691 -0.281 -1.066 l 4.219 -7.219 c 0.164 -0.277 0.449 -0.445 0.75 -0.406 m 1.625 1.125 c 0.191 -0.051 0.406 -0.012 0.594 0.094 l 0.344 0.191 c 0.375 0.215 0.496 0.691 0.281 1.063 l -4.219 7.227 c -0.215 0.367 -0.688 0.492 -1.063 0.273 l -0.313 -0.188 c -0.375 -0.211 -0.527 -0.691 -0.313 -1.066 l 4.219 -7.219 c 0.105 -0.184 0.277 -0.324 0.469 -0.375 m 2.219 1.094 c 0.102 0.02 0.219 0.039 0.313 0.102 l 0.344 0.188 c 0.375 0.215 0.5 0.695 0.281 1.066 l -4.219 7.219 c -0.215 0.367 -0.688 0.492 -1.063 0.281 l -0.344 -0.191 c -0.371 -0.211 -0.496 -0.691 -0.281 -1.063 l 4.219 -7.227 c 0.164 -0.27 0.449 -0.41 0.75 -0.375 m -9.375 6.406 c 0.113 -0.066 5.504 3.03 5.5 3.156 c -0.004 0.133 -5.547 3.469 -5.656 3.406 c -0.109 -0.063 0.043 -6.492 0.156 -6.563 m 0 0" fill="#000" stroke="none" fill-rule="nonzero" fill-opacity="1"/></g></g></g></g></g><g><g clip-path="url(#clipPath-225019886)"><!-- color: #c059b6 --><g><path d="m 15 11 c -1 0 -1 0.996 -1 0.996 l 0 23 c 0 1 1 2 1.996 2 l 16.98 0 c 0.535 0 1.02 -0.465 1.02 -0.977 l 0 -21.02 c 0 -0.512 -0.461 -1 -0.996 -1 l -15 0 l -2 -2 c 5.109 -0.039 11.789 0 17 0 c 0.105 0 -0.32 -0.996 -1 -0.996 m -14 4.996 l 14 0 l 0 19 l -14 0 m 0 -19" fill="#ebebeb" stroke="none" fill-rule="nonzero" fill-opacity="1"/><path d="m 16 15 l 0 21 l 17 0 l 0 -21 m -7.438 3 c 0.691 -0.012 1.547 0.215 2.375 0.688 c 1.32 0.758 2.156 1.891 2.063 2.719 l -5.406 -3.094 c -0.016 -0.008 -0.016 -0.023 -0.031 -0.031 c 0.254 -0.184 0.586 -0.273 1 -0.281 m -0.844 0.813 c 0.102 0.012 0.219 0.074 0.313 0.125 l 0.344 0.191 c 0.375 0.215 0.496 0.691 0.281 1.063 l -4.219 7.219 c -0.215 0.371 -0.688 0.496 -1.063 0.281 l -0.344 -0.188 c -0.375 -0.219 -0.496 -0.691 -0.281 -1.066 l 4.219 -7.219 c 0.164 -0.277 0.449 -0.445 0.75 -0.406 m 1.625 1.125 c 0.191 -0.051 0.406 -0.012 0.594 0.094 l 0.344 0.191 c 0.375 0.215 0.496 0.691 0.281 1.063 l -4.219 7.227 c -0.215 0.367 -0.688 0.492 -1.063 0.273 l -0.313 -0.188 c -0.375 -0.211 -0.527 -0.691 -0.313 -1.066 l 4.219 -7.219 c 0.105 -0.184 0.277 -0.324 0.469 -0.375 m 2.219 1.094 c 0.102 0.02 0.219 0.039 0.313 0.102 l 0.344 0.188 c 0.375 0.215 0.5 0.695 0.281 1.066 l -4.219 7.219 c -0.215 0.367 -0.688 0.492 -1.063 0.281 l -0.344 -0.191 c -0.371 -0.211 -0.496 -0.691 -0.281 -1.063 l 4.219 -7.227 c 0.164 -0.27 0.449 -0.41 0.75 -0.375 m -9.375 6.406 c 0.113 -0.066 5.504 3.03 5.5 3.156 c -0.004 0.133 -5.547 3.469 -5.656 3.406 c -0.109 -0.063 0.043 -6.492 0.156 -6.563 m 0 0" fill="#ebebeb" stroke="none" fill-rule="nonzero" fill-opacity="1"/></g></g></g><g><path d="m 20 4 -7.313 3.03 -5.656 5.656 -3.03 7.313 0 8 3.03 7.313 5.656 5.656 7.313 3.03 8 0 7.313 -3.03 5.656 -5.656 3.03 -7.313 0 -8 -3.03 -7.313 -5.656 -5.656 -7.313 -3.03 -8 0 z" clip-path="url(#clipPath4313)" transform="matrix(0,1,-1,0,48,0)" opacity="0.3" stroke-opacity="1" stroke-dasharray="none" visibility="visible" fill="none" display="inline" stroke="url(#linearGradient4375)" color="#000" stroke-width="1" stroke-miterlimit="4"/><path d="m 24 2.344 -4 1.656 -4.281 0 -3.03 3.03 l -4 1.656 -1.656 4 l -3.03 3.03 0 4.281 -1.656 4 1.656 4 l 0 4.281 3.03 3.03 1.656 4 4 1.656 l 3.03 3.03 4.281 0 4 1.656 4 -1.656 l 4.281 0 3.03 -3.03 4 -1.656 1.656 -4 l 3.03 -3.03 0 -4.281 1.656 -4 -1.656 -4 l 0 -4.281 -3.03 -3.03 -1.656 -4 -4 -1.656 l -3.03 -3.03 -4.281 0 -4 -1.656 z" clip-path="url(#clipPath4329)" opacity="0.2" stroke-opacity="1" visibility="visible" fill="none" display="inline" stroke="#000" color="#000" stroke-width="2"/></g></svg>