<svg viewBox="0 0 48 48" xmlns:xlink="http://www.w3.org/1999/xlink"><defs><clipPath clipPathUnits="userSpaceOnUse" id="clipPath4313"><path d="m 20 4 -7.313 3.03 -5.656 5.656 -3.03 7.313 0 8 3.03 7.313 5.656 5.656 7.313 3.03 8 0 7.313 -3.03 5.656 -5.656 3.03 -7.313 0 -8 -3.03 -7.313 -5.656 -5.656 -7.313 -3.03 -8 0 z"/></clipPath><clipPath clipPathUnits="userSpaceOnUse" id="clipPath4329"><path d="m 24 2.344 -4 1.656 -4.281 0 -3.03 3.03 l -4 1.656 -1.656 4 l -3.03 3.03 0 4.281 -1.656 4 1.656 4 l 0 4.281 3.03 3.03 1.656 4 4 1.656 l 3.03 3.03 4.281 0 4 1.656 4 -1.656 l 4.281 0 3.03 -3.03 4 -1.656 1.656 -4 l 3.03 -3.03 0 -4.281 1.656 -4 -1.656 -4 l 0 -4.281 -3.03 -3.03 -1.656 -4 -4 -1.656 l -3.03 -3.03 -4.281 0 -4 -1.656 z"/></clipPath><clipPath id="clipPath-038427171"><path d="m 24 2.344 l -4 1.656 l -4.281 0 l -3.03 3.03 l -4 1.656 l -1.656 4 l -3.03 3.03 l 0 4.281 l -1.656 4 l 1.656 4 l 0 4.281 l 3.03 3.03 l 1.656 4 l 4 1.656 l 3.03 3.03 l 4.281 0 l 4 1.656 l 4 -1.656 l 4.281 0 l 3.03 -3.03 l 4 -1.656 l 1.656 -4 l 3.03 -3.03 l 0 -4.281 l 1.656 -4 l -1.656 -4 l 0 -4.281 l -3.03 -3.03 l -1.656 -4 l -4 -1.656 l -3.03 -3.03 l -4.281 0 l -4 -1.656 z"/></clipPath><clipPath id="clipPath-050257216"><path d="m 24 2.344 l -4 1.656 l -4.281 0 l -3.03 3.03 l -4 1.656 l -1.656 4 l -3.03 3.03 l 0 4.281 l -1.656 4 l 1.656 4 l 0 4.281 l 3.03 3.03 l 1.656 4 l 4 1.656 l 3.03 3.03 l 4.281 0 l 4 1.656 l 4 -1.656 l 4.281 0 l 3.03 -3.03 l 4 -1.656 l 1.656 -4 l 3.03 -3.03 l 0 -4.281 l 1.656 -4 l -1.656 -4 l 0 -4.281 l -3.03 -3.03 l -1.656 -4 l -4 -1.656 l -3.03 -3.03 l -4.281 0 l -4 -1.656 z"/></clipPath><linearGradient id="linearGradient4317"><stop stop-color="#fff" stop-opacity="1"/><stop offset="1" stop-color="#fff" stop-opacity="0"/></linearGradient><clipPath clipPathUnits="userSpaceOnUse" id="clipPath4313"><path d="m 20 4 -7.313 3.03 -5.656 5.656 -3.03 7.313 0 8 3.03 7.313 5.656 5.656 7.313 3.03 8 0 7.313 -3.03 5.656 -5.656 3.03 -7.313 0 -8 -3.03 -7.313 -5.656 -5.656 -7.313 -3.03 -8 0 z"/></clipPath><linearGradient x2="44" x1="4" gradientUnits="userSpaceOnUse" id="linearGradient4375" xlink:href="#linearGradient4317"/><clipPath clipPathUnits="userSpaceOnUse" id="clipPath4329"><path d="m 24 2.344 -4 1.656 -4.281 0 -3.03 3.03 l -4 1.656 -1.656 4 l -3.03 3.03 0 4.281 -1.656 4 1.656 4 l 0 4.281 3.03 3.03 1.656 4 4 1.656 l 3.03 3.03 4.281 0 4 1.656 4 -1.656 l 4.281 0 3.03 -3.03 4 -1.656 1.656 -4 l 3.03 -3.03 0 -4.281 1.656 -4 -1.656 -4 l 0 -4.281 -3.03 -3.03 -1.656 -4 -4 -1.656 l -3.03 -3.03 -4.281 0 -4 -1.656 z"/></clipPath><linearGradient id="linear0" gradientUnits="userSpaceOnUse" y1="279.1" x2="0" y2="268.33" gradientTransform="matrix(2.797157,0,0,2.797157,-332.973332,-741.653379)"><stop stop-color="#c8c8c8" stop-opacity="1"/><stop offset="1" stop-color="#eaeaea" stop-opacity="1"/></linearGradient><linearGradient id="linear0" gradientUnits="userSpaceOnUse" y1="279.1" x2="0" y2="268.33" gradientTransform="matrix(2.797157,0,0,2.797157,-332.973332,-741.653379)"><stop stop-color="#c8c8c8" stop-opacity="1"/><stop offset="1" stop-color="#eaeaea" stop-opacity="1"/></linearGradient><path id="SVGCleanerId_0" d="m 24 2.344 l -4 1.656 l -4.281 0 l -3.03 3.03 l -4 1.656 l -1.656 4 l -3.03 3.03 l 0 4.281 l -1.656 4 l 1.656 4 l 0 4.281 l 3.03 3.03 l 1.656 4 l 4 1.656 l 3.03 3.03 l 4.281 0 l 4 1.656 l 4 -1.656 l 4.281 0 l 3.03 -3.03 l 4 -1.656 l 1.656 -4 l 3.03 -3.03 l 0 -4.281 l 1.656 -4 l -1.656 -4 l 0 -4.281 l -3.03 -3.03 l -1.656 -4 l -4 -1.656 l -3.03 -3.03 l -4.281 0 l -4 -1.656 z" visibility="visible" display="inline" fill-rule="nonzero" color="#000" fill-opacity="1"/></defs><g><path d="m 2.563 24.5 l -0.219 0.5 l 1.656 4 l 0 -1 l -1.438 -3.5 z m 42.875 0 l -1.438 3.5 l 0 1 l 1.656 -4 l -0.219 -0.5 z m -41.44 7.781 l 0 1 l 3.03 3.03 l 1.656 4 l 4 1.656 l 3.03 3.03 l 4.281 0 l 4 1.656 l 4 -1.656 l 4.281 0 l 3.03 -3.03 l 4 -1.656 l 1.656 -4 l 3.03 -3.03 l 0 -1 l -3.03 3.03 l -1.656 4 l -4 1.656 l -3.03 3.03 l -4.281 0 l -4 1.656 l -4 -1.656 l -4.281 0 l -3.03 -3.03 l -4 -1.656 l -1.656 -4 l -3.03 -3.03 z" opacity="0.3" visibility="visible" fill="#000" display="inline" fill-rule="nonzero" stroke="none" fill-opacity="1" color="#000"/></g><g><use fill="#409bcb" stroke="none" xlink:href="#SVGCleanerId_0"/><path d="m 24 2.344 l -4 1.656 l 8 0 l -4 -1.656 z m 4 1.656 l 7.313 3.03 l -3.03 -3.03 l -4.281 0 z m 7.313 3.03 l 5.656 5.656 l -1.656 -4 l -4 -1.656 z m 5.656 5.656 l 3.03 7.313 l 0 -4.281 l -3.03 -3.03 z m 3.03 7.313 l 0 8 l 1.656 -4 l -1.656 -4 z m 0 8 l -3.03 7.313 l 3.03 -3.03 l 0 -4.281 z m -3.03 7.313 l -5.656 5.656 l 4 -1.656 l 1.656 -4 z m -5.656 5.656 l -7.313 3.03 l 4.281 0 l 3.03 -3.03 z m -7.313 3.03 l -8 0 l 4 1.656 l 4 -1.656 z m -8 0 l -7.313 -3.03 l 3.03 3.03 l 4.281 0 z m -7.313 -3.03 l -5.656 -5.656 l 1.656 4 l 4 1.656 z m -5.656 -5.656 l -3.03 -7.313 l 0 4.281 l 3.03 3.03 z m -3.03 -7.313 l 0 -8 l -1.656 4 l 1.656 4 z m 0 -8 l 3.03 -7.313 l -3.03 3.03 l 0 4.281 z m 3.03 -7.313 l 5.656 -5.656 l -4 1.656 l -1.656 4 z m 5.656 -5.656 l 7.313 -3.03 l -4.281 0 l -3.03 3.03 z" opacity="0.05" visibility="visible" fill="#409bcb" display="inline" fill-rule="nonzero" stroke="none" fill-opacity="1" color="#000"/></g><g><use opacity="0.05" stroke-opacity="1" stroke-dasharray="none" fill="#000" stroke="#000" stroke-width="2" stroke-miterlimit="4" xlink:href="#SVGCleanerId_0"/><use opacity="0.1" stroke-opacity="1" stroke-dasharray="none" fill="#000" stroke="#000" stroke-width="1" stroke-miterlimit="4" xlink:href="#SVGCleanerId_0"/></g><g><g clip-path="url(#clipPath-038427171)"><g transform="translate(0,1)"><g opacity="0.1"><!-- color: #409bcb --><g><path d="m 24 9 c 8.281 0 14.996 6.715 14.996 15 c 0 8.281 -6.715 14.996 -14.996 14.996 c -8.285 0 -15 -6.715 -15 -14.996 c 0 -8.285 6.715 -15 15 -15 m 0 0" fill="#000" stroke="none" fill-rule="evenodd"/><path d="m 34.527 34.746 c 0.691 -0.691 1.313 -1.457 1.863 -2.27 c 0.547 -0.809 1.023 -1.688 1.41 -2.602 c 0.387 -0.914 0.68 -1.871 0.883 -2.867 c 0.199 -0.996 0.309 -2.027 0.309 -3.078 l -10.699 0 c 0 0.633 -0.129 1.242 -0.359 1.789 c -0.227 0.547 -0.563 1.039 -0.977 1.453 l 7.574 7.574 m -0.004 0" fill="#000" stroke="none" fill-rule="nonzero" fill-opacity="0.498"/><path d="m 13.496 13.289 c -0.688 0.688 -1.309 1.449 -1.855 2.262 c -0.547 0.813 -1.02 1.684 -1.402 2.594 c -0.387 0.91 -0.68 1.863 -0.879 2.852 c -0.203 0.992 -0.309 2.02 -0.309 3.07 l 10.664 0 c 0 -0.633 0.125 -1.238 0.359 -1.781 c 0.23 -0.547 0.563 -1.039 0.973 -1.449 l -7.539 -7.543 m -0.012 -0.004" fill="#000" stroke="none" fill-rule="nonzero" fill-opacity="0.498"/><path d="m 28.29 24 c 0 2.367 -1.918 4.285 -4.285 4.285 c -2.367 0 -4.285 -1.918 -4.285 -4.285 c 0 -2.367 1.918 -4.285 4.285 -4.285 c 2.367 0 4.285 1.918 4.285 4.285 m 0 0" fill="#000" stroke="none" fill-rule="nonzero" fill-opacity="0.498"/><path d="m 20.12 25.762 l -9.777 4.445 c 0.75 1.652 1.793 3.133 3.059 4.398 l 7.563 -7.566 c -0.359 -0.363 -0.633 -0.801 -0.844 -1.273 m 0 -0.004" fill="#000" stroke="none" fill-rule="nonzero" fill-opacity="0.498"/><path d="m 34.602 13.398 l -7.566 7.562 c 0.363 0.363 0.633 0.801 0.848 1.273 l 9.777 -4.445 c -0.754 -1.648 -1.793 -3.129 -3.059 -4.395 m 0 0.004" fill="#000" stroke="none" fill-rule="nonzero" fill-opacity="0.498"/><path d="m 39 24 c 0 1.344 -0.18 2.68 -0.535 3.973 l -14.465 -3.973 m 15 0" fill="#000" stroke="none" fill-rule="nonzero" fill-opacity="0.498"/><path d="m 9 24 c 0 -1.344 0.18 -2.68 0.535 -3.973 l 14.465 3.973 m -15 0" fill="#000" stroke="none" fill-rule="nonzero" fill-opacity="0.498"/><path d="m 24 9 c 1.344 0 2.68 0.18 3.973 0.535 l -3.973 14.465 m 0 -15" fill="#000" stroke="none" fill-rule="nonzero" fill-opacity="0.498"/><path d="m 24 39 c -1.344 0 -2.68 -0.18 -3.973 -0.535 l 3.973 -14.465 m 0 15" fill="#000" stroke="none" fill-rule="nonzero" fill-opacity="0.498"/><path d="m 24 21.859 c 0.59 0 1.129 0.238 1.516 0.621 c 0.387 0.387 0.625 0.926 0.625 1.52 c 0 0.59 -0.238 1.129 -0.625 1.516 c -0.387 0.387 -0.926 0.625 -1.516 0.625 c -0.594 0 -1.133 -0.238 -1.52 -0.625 c -0.383 -0.387 -0.621 -0.926 -0.621 -1.516 c 0 -0.594 0.238 -1.133 0.621 -1.52 c 0.387 -0.383 0.926 -0.621 1.52 -0.621 m 0 0" fill="#000" stroke="none" fill-rule="nonzero" fill-opacity="0.498"/></g></g></g></g></g><g><g clip-path="url(#clipPath-050257216)"><!-- color: #409bcb --><g><path d="m 24 9 c 8.281 0 14.996 6.715 14.996 15 c 0 8.281 -6.715 14.996 -14.996 14.996 c -8.285 0 -15 -6.715 -15 -14.996 c 0 -8.285 6.715 -15 15 -15 m 0 0" fill="url(#linear0)" stroke="none" fill-rule="evenodd"/><path d="m 34.527 34.746 c 0.691 -0.691 1.313 -1.457 1.863 -2.27 c 0.547 -0.809 1.023 -1.688 1.41 -2.602 c 0.387 -0.914 0.68 -1.871 0.883 -2.867 c 0.199 -0.996 0.309 -2.027 0.309 -3.078 l -10.699 0 c 0 0.633 -0.129 1.242 -0.359 1.789 c -0.227 0.547 -0.563 1.039 -0.977 1.453 l 7.574 7.574 m -0.004 0" fill="#fff" stroke="none" fill-rule="nonzero" fill-opacity="0.498"/><path d="m 13.496 13.289 c -0.688 0.688 -1.309 1.449 -1.855 2.262 c -0.547 0.813 -1.02 1.684 -1.402 2.594 c -0.387 0.91 -0.68 1.863 -0.879 2.852 c -0.203 0.992 -0.309 2.02 -0.309 3.07 l 10.664 0 c 0 -0.633 0.125 -1.238 0.359 -1.781 c 0.23 -0.547 0.563 -1.039 0.973 -1.449 l -7.539 -7.543 m -0.012 -0.004" fill="#fff" stroke="none" fill-rule="nonzero" fill-opacity="0.498"/><path d="m 28.29 24 c 0 2.367 -1.918 4.285 -4.285 4.285 c -2.367 0 -4.285 -1.918 -4.285 -4.285 c 0 -2.367 1.918 -4.285 4.285 -4.285 c 2.367 0 4.285 1.918 4.285 4.285 m 0 0" fill="#999" stroke="none" fill-rule="nonzero" fill-opacity="0.498"/><path d="m 20.12 25.762 l -9.777 4.445 c 0.75 1.652 1.793 3.133 3.059 4.398 l 7.563 -7.566 c -0.359 -0.363 -0.633 -0.801 -0.844 -1.273 m 0 -0.004" fill="#fff" stroke="none" fill-rule="nonzero" fill-opacity="0.498"/><path d="m 34.602 13.398 l -7.566 7.562 c 0.363 0.363 0.633 0.801 0.848 1.273 l 9.777 -4.445 c -0.754 -1.648 -1.793 -3.129 -3.059 -4.395 m 0 0.004" fill="#fff" stroke="none" fill-rule="nonzero" fill-opacity="0.498"/><path d="m 39 24 c 0 1.344 -0.18 2.68 -0.535 3.973 l -14.465 -3.973 m 15 0" fill="#999" stroke="none" fill-rule="nonzero" fill-opacity="0.498"/><path d="m 9 24 c 0 -1.344 0.18 -2.68 0.535 -3.973 l 14.465 3.973 m -15 0" fill="#999" stroke="none" fill-rule="nonzero" fill-opacity="0.498"/><path d="m 24 9 c 1.344 0 2.68 0.18 3.973 0.535 l -3.973 14.465 m 0 -15" fill="#ff8dff" stroke="none" fill-rule="nonzero" fill-opacity="0.498"/><path d="m 24 39 c -1.344 0 -2.68 -0.18 -3.973 -0.535 l 3.973 -14.465 m 0 15" fill="#ff8dff" stroke="none" fill-rule="nonzero" fill-opacity="0.498"/><path d="m 24 21.859 c 0.59 0 1.129 0.238 1.516 0.621 c 0.387 0.387 0.625 0.926 0.625 1.52 c 0 0.59 -0.238 1.129 -0.625 1.516 c -0.387 0.387 -0.926 0.625 -1.516 0.625 c -0.594 0 -1.133 -0.238 -1.52 -0.625 c -0.383 -0.387 -0.621 -0.926 -0.621 -1.516 c 0 -0.594 0.238 -1.133 0.621 -1.52 c 0.387 -0.383 0.926 -0.621 1.52 -0.621 m 0 0" fill="#fff" stroke="none" fill-rule="nonzero" fill-opacity="0.498"/></g></g></g><g><path d="m 20 4 -7.313 3.03 -5.656 5.656 -3.03 7.313 0 8 3.03 7.313 5.656 5.656 7.313 3.03 8 0 7.313 -3.03 5.656 -5.656 3.03 -7.313 0 -8 -3.03 -7.313 -5.656 -5.656 -7.313 -3.03 -8 0 z" clip-path="url(#clipPath4313)" transform="matrix(0,1,-1,0,48,0)" opacity="0.3" stroke-opacity="1" stroke-dasharray="none" visibility="visible" fill="none" display="inline" stroke="url(#linearGradient4375)" color="#000" stroke-width="1" stroke-miterlimit="4"/><path d="m 24 2.344 -4 1.656 -4.281 0 -3.03 3.03 l -4 1.656 -1.656 4 l -3.03 3.03 0 4.281 -1.656 4 1.656 4 l 0 4.281 3.03 3.03 1.656 4 4 1.656 l 3.03 3.03 4.281 0 4 1.656 4 -1.656 l 4.281 0 3.03 -3.03 4 -1.656 1.656 -4 l 3.03 -3.03 0 -4.281 1.656 -4 -1.656 -4 l 0 -4.281 -3.03 -3.03 -1.656 -4 -4 -1.656 l -3.03 -3.03 -4.281 0 -4 -1.656 z" clip-path="url(#clipPath4329)" opacity="0.2" stroke-opacity="1" visibility="visible" fill="none" display="inline" stroke="#000" color="#000" stroke-width="2"/></g></svg>