<svg viewBox="0 0 48 48" xmlns:xlink="http://www.w3.org/1999/xlink"><defs><clipPath clipPathUnits="userSpaceOnUse" id="clipPath4313"><path d="m 20 4 -7.313 3.03 -5.656 5.656 -3.03 7.313 0 8 3.03 7.313 5.656 5.656 7.313 3.03 8 0 7.313 -3.03 5.656 -5.656 3.03 -7.313 0 -8 -3.03 -7.313 -5.656 -5.656 -7.313 -3.03 -8 0 z"/></clipPath><clipPath clipPathUnits="userSpaceOnUse" id="clipPath4329"><path d="m 24 2.344 -4 1.656 -4.281 0 -3.03 3.03 l -4 1.656 -1.656 4 l -3.03 3.03 0 4.281 -1.656 4 1.656 4 l 0 4.281 3.03 3.03 1.656 4 4 1.656 l 3.03 3.03 4.281 0 4 1.656 4 -1.656 l 4.281 0 3.03 -3.03 4 -1.656 1.656 -4 l 3.03 -3.03 0 -4.281 1.656 -4 -1.656 -4 l 0 -4.281 -3.03 -3.03 -1.656 -4 -4 -1.656 l -3.03 -3.03 -4.281 0 -4 -1.656 z"/></clipPath><clipPath id="clipPath-496839010"><path d="m 24 2.344 l -4 1.656 l -4.281 0 l -3.03 3.03 l -4 1.656 l -1.656 4 l -3.03 3.03 l 0 4.281 l -1.656 4 l 1.656 4 l 0 4.281 l 3.03 3.03 l 1.656 4 l 4 1.656 l 3.03 3.03 l 4.281 0 l 4 1.656 l 4 -1.656 l 4.281 0 l 3.03 -3.03 l 4 -1.656 l 1.656 -4 l 3.03 -3.03 l 0 -4.281 l 1.656 -4 l -1.656 -4 l 0 -4.281 l -3.03 -3.03 l -1.656 -4 l -4 -1.656 l -3.03 -3.03 l -4.281 0 l -4 -1.656 z"/></clipPath><clipPath id="clipPath-509819629"><path d="m 24 2.344 l -4 1.656 l -4.281 0 l -3.03 3.03 l -4 1.656 l -1.656 4 l -3.03 3.03 l 0 4.281 l -1.656 4 l 1.656 4 l 0 4.281 l 3.03 3.03 l 1.656 4 l 4 1.656 l 3.03 3.03 l 4.281 0 l 4 1.656 l 4 -1.656 l 4.281 0 l 3.03 -3.03 l 4 -1.656 l 1.656 -4 l 3.03 -3.03 l 0 -4.281 l 1.656 -4 l -1.656 -4 l 0 -4.281 l -3.03 -3.03 l -1.656 -4 l -4 -1.656 l -3.03 -3.03 l -4.281 0 l -4 -1.656 z"/></clipPath><linearGradient id="linearGradient4317"><stop stop-color="#fff" stop-opacity="1"/><stop offset="1" stop-color="#fff" stop-opacity="0"/></linearGradient><clipPath clipPathUnits="userSpaceOnUse" id="clipPath4313"><path d="m 20 4 -7.313 3.03 -5.656 5.656 -3.03 7.313 0 8 3.03 7.313 5.656 5.656 7.313 3.03 8 0 7.313 -3.03 5.656 -5.656 3.03 -7.313 0 -8 -3.03 -7.313 -5.656 -5.656 -7.313 -3.03 -8 0 z"/></clipPath><linearGradient x2="44" x1="4" gradientUnits="userSpaceOnUse" id="linearGradient4375" xlink:href="#linearGradient4317"/><clipPath clipPathUnits="userSpaceOnUse" id="clipPath4329"><path d="m 24 2.344 -4 1.656 -4.281 0 -3.03 3.03 l -4 1.656 -1.656 4 l -3.03 3.03 0 4.281 -1.656 4 1.656 4 l 0 4.281 3.03 3.03 1.656 4 4 1.656 l 3.03 3.03 4.281 0 4 1.656 4 -1.656 l 4.281 0 3.03 -3.03 4 -1.656 1.656 -4 l 3.03 -3.03 0 -4.281 1.656 -4 -1.656 -4 l 0 -4.281 -3.03 -3.03 -1.656 -4 -4 -1.656 l -3.03 -3.03 -4.281 0 -4 -1.656 z"/></clipPath><path id="SVGCleanerId_0" d="m 24 2.344 l -4 1.656 l -4.281 0 l -3.03 3.03 l -4 1.656 l -1.656 4 l -3.03 3.03 l 0 4.281 l -1.656 4 l 1.656 4 l 0 4.281 l 3.03 3.03 l 1.656 4 l 4 1.656 l 3.03 3.03 l 4.281 0 l 4 1.656 l 4 -1.656 l 4.281 0 l 3.03 -3.03 l 4 -1.656 l 1.656 -4 l 3.03 -3.03 l 0 -4.281 l 1.656 -4 l -1.656 -4 l 0 -4.281 l -3.03 -3.03 l -1.656 -4 l -4 -1.656 l -3.03 -3.03 l -4.281 0 l -4 -1.656 z" visibility="visible" display="inline" fill-rule="nonzero" color="#000" fill-opacity="1"/></defs><g><path d="m 2.563 24.5 l -0.219 0.5 l 1.656 4 l 0 -1 l -1.438 -3.5 z m 42.875 0 l -1.438 3.5 l 0 1 l 1.656 -4 l -0.219 -0.5 z m -41.44 7.781 l 0 1 l 3.03 3.03 l 1.656 4 l 4 1.656 l 3.03 3.03 l 4.281 0 l 4 1.656 l 4 -1.656 l 4.281 0 l 3.03 -3.03 l 4 -1.656 l 1.656 -4 l 3.03 -3.03 l 0 -1 l -3.03 3.03 l -1.656 4 l -4 1.656 l -3.03 3.03 l -4.281 0 l -4 1.656 l -4 -1.656 l -4.281 0 l -3.03 -3.03 l -4 -1.656 l -1.656 -4 l -3.03 -3.03 z" opacity="0.3" visibility="visible" fill="#000" display="inline" fill-rule="nonzero" stroke="none" fill-opacity="1" color="#000"/></g><g><use fill="#f6a56f" stroke="none" xlink:href="#SVGCleanerId_0"/><path d="m 24 2.344 l -4 1.656 l 8 0 l -4 -1.656 z m 4 1.656 l 7.313 3.03 l -3.03 -3.03 l -4.281 0 z m 7.313 3.03 l 5.656 5.656 l -1.656 -4 l -4 -1.656 z m 5.656 5.656 l 3.03 7.313 l 0 -4.281 l -3.03 -3.03 z m 3.03 7.313 l 0 8 l 1.656 -4 l -1.656 -4 z m 0 8 l -3.03 7.313 l 3.03 -3.03 l 0 -4.281 z m -3.03 7.313 l -5.656 5.656 l 4 -1.656 l 1.656 -4 z m -5.656 5.656 l -7.313 3.03 l 4.281 0 l 3.03 -3.03 z m -7.313 3.03 l -8 0 l 4 1.656 l 4 -1.656 z m -8 0 l -7.313 -3.03 l 3.03 3.03 l 4.281 0 z m -7.313 -3.03 l -5.656 -5.656 l 1.656 4 l 4 1.656 z m -5.656 -5.656 l -3.03 -7.313 l 0 4.281 l 3.03 3.03 z m -3.03 -7.313 l 0 -8 l -1.656 4 l 1.656 4 z m 0 -8 l 3.03 -7.313 l -3.03 3.03 l 0 4.281 z m 3.03 -7.313 l 5.656 -5.656 l -4 1.656 l -1.656 4 z m 5.656 -5.656 l 7.313 -3.03 l -4.281 0 l -3.03 3.03 z" opacity="0.05" visibility="visible" fill="#f6a56f" display="inline" fill-rule="nonzero" stroke="none" fill-opacity="1" color="#000"/></g><g><use opacity="0.05" stroke-opacity="1" stroke-dasharray="none" fill="#000" stroke="#000" stroke-width="2" stroke-miterlimit="4" xlink:href="#SVGCleanerId_0"/><use opacity="0.1" stroke-opacity="1" stroke-dasharray="none" fill="#000" stroke="#000" stroke-width="1" stroke-miterlimit="4" xlink:href="#SVGCleanerId_0"/></g><g><g clip-path="url(#clipPath-496839010)"><g transform="translate(0,1)"><g opacity="0.1"><!-- color: #f6a56f --><g><path d="m 16.969 25.406 c -0.195 -0.551 -0.098 -0.988 0.125 -1.375 c 1.078 -0.527 2.01 -0.371 2.969 -0.344 l 1.563 -5.156 c 0.348 -1.078 1.188 -2.129 3.03 -3.125 c 1.238 -0.633 3.715 -0.316 5 0.188 c 2.371 1.582 2.32 3.145 2.328 4.758 c -0.09 3.148 -2.066 4.902 -3.172 5.398 c -0.641 0.262 -2.461 0.227 -3.469 -0.688 l -1.063 0.125 l 0.688 0.969 c 0.27 0.383 0.523 0.895 0.656 1.344 c -0.32 0.59 -0.734 0.629 -1.219 0.219 c 0 0 -0.344 -1.469 -0.563 -1.313 c -0.52 1.988 -1.328 3.82 -2.191 5.688 c -1.656 2.906 -3.656 0.906 -2.5 -0.156 c 0.281 -0.281 0.844 -1.188 0.656 -1.25 c -0.191 -0.063 -1.531 -0.906 -1.531 -0.906 c 0 0 -0.969 0.938 -1.094 1.063 c -1.191 1.156 -2.125 0.215 -1.469 -0.938 l 1.969 -1.594 l 1.313 -1.375 c 0.598 -0.871 0.684 -1.367 0.551 -2.031 c -0.191 0.094 -1.926 0.563 -1.926 0.563 c -0.348 0.242 -0.484 0.055 -0.652 -0.063 m 0 0" fill="#000" stroke="none" fill-rule="nonzero" fill-opacity="0.776"/><path d="m 28 16.719 c -1.313 0.195 -2.488 1.711 -2.781 3.688 c -0.332 2.258 0.637 4.246 2.156 4.469 c 1.52 0.227 3.01 -1.398 3.344 -3.656 c 0.332 -2.258 -0.633 -4.273 -2.156 -4.5 c -0.191 -0.027 -0.375 -0.027 -0.563 0 m -0.094 2.625 c 0.074 -0.023 0.156 -0.027 0.219 0 c 0.254 0.109 0.281 0.586 0.063 1.094 c -0.219 0.508 -0.621 0.828 -0.875 0.719 c -0.254 -0.102 -0.281 -0.586 -0.063 -1.094 c 0.164 -0.379 0.43 -0.652 0.656 -0.719 m 1.969 0.375 c 0.262 0.086 0.355 0.598 0.188 1.125 c -0.168 0.527 -0.551 0.867 -0.813 0.781 c -0.262 -0.086 -0.324 -0.566 -0.156 -1.094 c 0.172 -0.527 0.52 -0.898 0.781 -0.813 m 0 0" fill="#000" stroke="none" fill-rule="nonzero" fill-opacity="1"/></g></g></g></g></g><g><g clip-path="url(#clipPath-509819629)"><!-- color: #f6a56f --><g><path d="m 16.969 25.406 c -0.195 -0.551 -0.098 -0.988 0.125 -1.375 c 1.078 -0.527 2.01 -0.371 2.969 -0.344 l 1.563 -5.156 c 0.348 -1.078 1.188 -2.129 3.03 -3.125 c 1.238 -0.633 3.715 -0.316 5 0.188 c 2.371 1.582 2.32 3.145 2.328 4.758 c -0.09 3.148 -2.066 4.902 -3.172 5.398 c -0.641 0.262 -2.461 0.227 -3.469 -0.688 l -1.063 0.125 l 0.688 0.969 c 0.27 0.383 0.523 0.895 0.656 1.344 c -0.32 0.59 -0.734 0.629 -1.219 0.219 c 0 0 -0.344 -1.469 -0.563 -1.313 c -0.52 1.988 -1.328 3.82 -2.191 5.688 c -1.656 2.906 -3.656 0.906 -2.5 -0.156 c 0.281 -0.281 0.844 -1.188 0.656 -1.25 c -0.191 -0.063 -1.531 -0.906 -1.531 -0.906 c 0 0 -0.969 0.938 -1.094 1.063 c -1.191 1.156 -2.125 0.215 -1.469 -0.938 l 1.969 -1.594 l 1.313 -1.375 c 0.598 -0.871 0.684 -1.367 0.551 -2.031 c -0.191 0.094 -1.926 0.563 -1.926 0.563 c -0.348 0.242 -0.484 0.055 -0.652 -0.063 m 0 0" fill="#1986ec" stroke="none" fill-rule="nonzero" fill-opacity="0.776"/><path d="m 28 16.719 c -1.313 0.195 -2.488 1.711 -2.781 3.688 c -0.332 2.258 0.637 4.246 2.156 4.469 c 1.52 0.227 3.01 -1.398 3.344 -3.656 c 0.332 -2.258 -0.633 -4.273 -2.156 -4.5 c -0.191 -0.027 -0.375 -0.027 -0.563 0 m -0.094 2.625 c 0.074 -0.023 0.156 -0.027 0.219 0 c 0.254 0.109 0.281 0.586 0.063 1.094 c -0.219 0.508 -0.621 0.828 -0.875 0.719 c -0.254 -0.102 -0.281 -0.586 -0.063 -1.094 c 0.164 -0.379 0.43 -0.652 0.656 -0.719 m 1.969 0.375 c 0.262 0.086 0.355 0.598 0.188 1.125 c -0.168 0.527 -0.551 0.867 -0.813 0.781 c -0.262 -0.086 -0.324 -0.566 -0.156 -1.094 c 0.172 -0.527 0.52 -0.898 0.781 -0.813 m 0 0" fill="#fbdd4c" stroke="none" fill-rule="nonzero" fill-opacity="1"/></g></g></g><g><path d="m 20 4 -7.313 3.03 -5.656 5.656 -3.03 7.313 0 8 3.03 7.313 5.656 5.656 7.313 3.03 8 0 7.313 -3.03 5.656 -5.656 3.03 -7.313 0 -8 -3.03 -7.313 -5.656 -5.656 -7.313 -3.03 -8 0 z" clip-path="url(#clipPath4313)" transform="matrix(0,1,-1,0,48,0)" opacity="0.3" stroke-opacity="1" stroke-dasharray="none" visibility="visible" fill="none" display="inline" stroke="url(#linearGradient4375)" color="#000" stroke-width="1" stroke-miterlimit="4"/><path d="m 24 2.344 -4 1.656 -4.281 0 -3.03 3.03 l -4 1.656 -1.656 4 l -3.03 3.03 0 4.281 -1.656 4 1.656 4 l 0 4.281 3.03 3.03 1.656 4 4 1.656 l 3.03 3.03 4.281 0 4 1.656 4 -1.656 l 4.281 0 3.03 -3.03 4 -1.656 1.656 -4 l 3.03 -3.03 0 -4.281 1.656 -4 -1.656 -4 l 0 -4.281 -3.03 -3.03 -1.656 -4 -4 -1.656 l -3.03 -3.03 -4.281 0 -4 -1.656 z" clip-path="url(#clipPath4329)" opacity="0.2" stroke-opacity="1" visibility="visible" fill="none" display="inline" stroke="#000" color="#000" stroke-width="2"/></g></svg>