<svg viewBox="0 0 48 48" xmlns:xlink="http://www.w3.org/1999/xlink"><defs><clipPath clipPathUnits="userSpaceOnUse" id="clipPath4313"><path d="m 20 4 -7.313 3.03 -5.656 5.656 -3.03 7.313 0 8 3.03 7.313 5.656 5.656 7.313 3.03 8 0 7.313 -3.03 5.656 -5.656 3.03 -7.313 0 -8 -3.03 -7.313 -5.656 -5.656 -7.313 -3.03 -8 0 z"/></clipPath><clipPath clipPathUnits="userSpaceOnUse" id="clipPath4329"><path d="m 24 2.344 -4 1.656 -4.281 0 -3.03 3.03 l -4 1.656 -1.656 4 l -3.03 3.03 0 4.281 -1.656 4 1.656 4 l 0 4.281 3.03 3.03 1.656 4 4 1.656 l 3.03 3.03 4.281 0 4 1.656 4 -1.656 l 4.281 0 3.03 -3.03 4 -1.656 1.656 -4 l 3.03 -3.03 0 -4.281 1.656 -4 -1.656 -4 l 0 -4.281 -3.03 -3.03 -1.656 -4 -4 -1.656 l -3.03 -3.03 -4.281 0 -4 -1.656 z"/></clipPath><clipPath id="clipPath-716836476"><path d="m 24 2.344 l -4 1.656 l -4.281 0 l -3.03 3.03 l -4 1.656 l -1.656 4 l -3.03 3.03 l 0 4.281 l -1.656 4 l 1.656 4 l 0 4.281 l 3.03 3.03 l 1.656 4 l 4 1.656 l 3.03 3.03 l 4.281 0 l 4 1.656 l 4 -1.656 l 4.281 0 l 3.03 -3.03 l 4 -1.656 l 1.656 -4 l 3.03 -3.03 l 0 -4.281 l 1.656 -4 l -1.656 -4 l 0 -4.281 l -3.03 -3.03 l -1.656 -4 l -4 -1.656 l -3.03 -3.03 l -4.281 0 l -4 -1.656 z"/></clipPath><clipPath id="clipPath-727712508"><path d="m 24 2.344 l -4 1.656 l -4.281 0 l -3.03 3.03 l -4 1.656 l -1.656 4 l -3.03 3.03 l 0 4.281 l -1.656 4 l 1.656 4 l 0 4.281 l 3.03 3.03 l 1.656 4 l 4 1.656 l 3.03 3.03 l 4.281 0 l 4 1.656 l 4 -1.656 l 4.281 0 l 3.03 -3.03 l 4 -1.656 l 1.656 -4 l 3.03 -3.03 l 0 -4.281 l 1.656 -4 l -1.656 -4 l 0 -4.281 l -3.03 -3.03 l -1.656 -4 l -4 -1.656 l -3.03 -3.03 l -4.281 0 l -4 -1.656 z"/></clipPath><linearGradient id="linearGradient4317"><stop stop-color="#fff" stop-opacity="1"/><stop offset="1" stop-color="#fff" stop-opacity="0"/></linearGradient><clipPath clipPathUnits="userSpaceOnUse" id="clipPath4313"><path d="m 20 4 -7.313 3.03 -5.656 5.656 -3.03 7.313 0 8 3.03 7.313 5.656 5.656 7.313 3.03 8 0 7.313 -3.03 5.656 -5.656 3.03 -7.313 0 -8 -3.03 -7.313 -5.656 -5.656 -7.313 -3.03 -8 0 z"/></clipPath><linearGradient x2="44" x1="4" gradientUnits="userSpaceOnUse" id="linearGradient4375" xlink:href="#linearGradient4317"/><clipPath clipPathUnits="userSpaceOnUse" id="clipPath4329"><path d="m 24 2.344 -4 1.656 -4.281 0 -3.03 3.03 l -4 1.656 -1.656 4 l -3.03 3.03 0 4.281 -1.656 4 1.656 4 l 0 4.281 3.03 3.03 1.656 4 4 1.656 l 3.03 3.03 4.281 0 4 1.656 4 -1.656 l 4.281 0 3.03 -3.03 4 -1.656 1.656 -4 l 3.03 -3.03 0 -4.281 1.656 -4 -1.656 -4 l 0 -4.281 -3.03 -3.03 -1.656 -4 -4 -1.656 l -3.03 -3.03 -4.281 0 -4 -1.656 z"/></clipPath><path id="SVGCleanerId_0" d="m 24 2.344 l -4 1.656 l -4.281 0 l -3.03 3.03 l -4 1.656 l -1.656 4 l -3.03 3.03 l 0 4.281 l -1.656 4 l 1.656 4 l 0 4.281 l 3.03 3.03 l 1.656 4 l 4 1.656 l 3.03 3.03 l 4.281 0 l 4 1.656 l 4 -1.656 l 4.281 0 l 3.03 -3.03 l 4 -1.656 l 1.656 -4 l 3.03 -3.03 l 0 -4.281 l 1.656 -4 l -1.656 -4 l 0 -4.281 l -3.03 -3.03 l -1.656 -4 l -4 -1.656 l -3.03 -3.03 l -4.281 0 l -4 -1.656 z" visibility="visible" display="inline" fill-rule="nonzero" color="#000" fill-opacity="1"/></defs><g><path d="m 2.563 24.5 l -0.219 0.5 l 1.656 4 l 0 -1 l -1.438 -3.5 z m 42.875 0 l -1.438 3.5 l 0 1 l 1.656 -4 l -0.219 -0.5 z m -41.44 7.781 l 0 1 l 3.03 3.03 l 1.656 4 l 4 1.656 l 3.03 3.03 l 4.281 0 l 4 1.656 l 4 -1.656 l 4.281 0 l 3.03 -3.03 l 4 -1.656 l 1.656 -4 l 3.03 -3.03 l 0 -1 l -3.03 3.03 l -1.656 4 l -4 1.656 l -3.03 3.03 l -4.281 0 l -4 1.656 l -4 -1.656 l -4.281 0 l -3.03 -3.03 l -4 -1.656 l -1.656 -4 l -3.03 -3.03 z" opacity="0.3" visibility="visible" fill="#000" display="inline" fill-rule="nonzero" stroke="none" fill-opacity="1" color="#000"/></g><g><use fill="#f7d53d" stroke="none" xlink:href="#SVGCleanerId_0"/><path d="m 24 2.344 l -4 1.656 l 8 0 l -4 -1.656 z m 4 1.656 l 7.313 3.03 l -3.03 -3.03 l -4.281 0 z m 7.313 3.03 l 5.656 5.656 l -1.656 -4 l -4 -1.656 z m 5.656 5.656 l 3.03 7.313 l 0 -4.281 l -3.03 -3.03 z m 3.03 7.313 l 0 8 l 1.656 -4 l -1.656 -4 z m 0 8 l -3.03 7.313 l 3.03 -3.03 l 0 -4.281 z m -3.03 7.313 l -5.656 5.656 l 4 -1.656 l 1.656 -4 z m -5.656 5.656 l -7.313 3.03 l 4.281 0 l 3.03 -3.03 z m -7.313 3.03 l -8 0 l 4 1.656 l 4 -1.656 z m -8 0 l -7.313 -3.03 l 3.03 3.03 l 4.281 0 z m -7.313 -3.03 l -5.656 -5.656 l 1.656 4 l 4 1.656 z m -5.656 -5.656 l -3.03 -7.313 l 0 4.281 l 3.03 3.03 z m -3.03 -7.313 l 0 -8 l -1.656 4 l 1.656 4 z m 0 -8 l 3.03 -7.313 l -3.03 3.03 l 0 4.281 z m 3.03 -7.313 l 5.656 -5.656 l -4 1.656 l -1.656 4 z m 5.656 -5.656 l 7.313 -3.03 l -4.281 0 l -3.03 3.03 z" opacity="0.05" visibility="visible" fill="#f7d53d" display="inline" fill-rule="nonzero" stroke="none" fill-opacity="1" color="#000"/></g><g><use opacity="0.05" stroke-opacity="1" stroke-dasharray="none" fill="#000" stroke="#000" stroke-width="2" stroke-miterlimit="4" xlink:href="#SVGCleanerId_0"/><use opacity="0.1" stroke-opacity="1" stroke-dasharray="none" fill="#000" stroke="#000" stroke-width="1" stroke-miterlimit="4" xlink:href="#SVGCleanerId_0"/></g><g><g clip-path="url(#clipPath-716836476)"><g transform="translate(0,1)"><g opacity="0.1"><!-- color: #f7d53d --><g><path d="m 23.676 16.996 l -0.758 0.863 l 0.758 0.863 l 0.754 -0.863 m -0.395 1.824 c -1.703 1.059 -0.625 3.03 -1.379 4.348 c -1.074 0.922 -1.828 -0.219 -2.379 -1.238 c -0.402 -0.738 -0.898 -1.094 -1.457 -1.094 c -0.199 0 -0.363 0.016 -0.508 0.051 c -0.398 0.074 -0.781 0.375 -1.16 0.887 c -0.246 0.328 -0.383 0.668 -0.383 1.02 c 0 0.332 0.105 0.664 0.313 0.984 c 0.301 0.316 0.563 0.469 0.77 0.84 c 0 0.18 -0.219 0.414 -0.656 0.691 c -0.285 0.18 -0.777 0.309 -1.484 0.387 c -0.367 0.043 -0.754 0.063 -1.188 0.063 c -0.848 0 -1.445 -0.074 -1.758 -0.242 c -0.789 -0.426 -1.188 -0.949 -1.188 -1.57 c 0 -0.832 0.152 -1.504 0.465 -1.992 c -2.324 2.441 -0.363 5.773 1.984 5.773 c 2.539 0 4.82 -0.695 5.156 -3.109 c 0.09 -0.66 -0.195 -1.09 -0.539 -1.25 c -0.313 -0.145 -0.465 -0.348 -0.465 -0.609 c 0 -0.188 0.102 -0.332 0.316 -0.426 c 0.684 -0.18 1.25 -0.355 1.488 0.773 c 0.582 2.754 2.645 2.645 3.621 0.84 c 1.031 1.914 2.793 1.539 3.117 -0.246 c 0 0 1.227 1.871 3.125 1.871 c 3.211 0 3.363 -4.152 7.156 -5.04 c -3.105 -3.121 -5.555 -0.344 -7.602 -1.664 c 2.047 2.387 3.977 0.848 5.527 1.715 c -1.594 0.191 -3.172 3.395 -5.05 3.395 c -1.117 0 -1.668 -0.258 -2.512 -1.23 c -0.535 -1.387 -0.77 -2.449 -0.234 -3.781 c -1.156 1.113 -0.988 1.773 -1.035 2.953 c -0.055 1.316 -0.91 2.363 -1.73 0.961 c -0.695 -1.273 -1.02 -2.617 -0.344 -4.047 m 10.477 5.648 l -0.758 0.859 l 0.758 0.867 l 0.758 -0.867 m -9.422 0.672 l -0.762 0.863 l 0.762 0.875 l 0.758 -0.875 m 1.406 -0.863 l -0.758 0.863 l 0.758 0.875 l 0.758 -0.875 m -15.922 1.539 l -0.762 0.867 l 0.762 0.863 l 0.758 -0.863 m 1.41 -0.867 l -0.762 0.867 l 0.762 0.863 l 0.754 -0.863 m -0.754 -0.867" fill="#000" stroke="none" fill-rule="nonzero" fill-opacity="1"/></g></g></g></g></g><g><g clip-path="url(#clipPath-727712508)"><!-- color: #f7d53d --><g><path d="m 23.676 16.996 l -0.758 0.863 l 0.758 0.863 l 0.754 -0.863 m -0.395 1.824 c -1.703 1.059 -0.625 3.03 -1.379 4.348 c -1.074 0.922 -1.828 -0.219 -2.379 -1.238 c -0.402 -0.738 -0.898 -1.094 -1.457 -1.094 c -0.199 0 -0.363 0.016 -0.508 0.051 c -0.398 0.074 -0.781 0.375 -1.16 0.887 c -0.246 0.328 -0.383 0.668 -0.383 1.02 c 0 0.332 0.105 0.664 0.313 0.984 c 0.301 0.316 0.563 0.469 0.77 0.84 c 0 0.18 -0.219 0.414 -0.656 0.691 c -0.285 0.18 -0.777 0.309 -1.484 0.387 c -0.367 0.043 -0.754 0.063 -1.188 0.063 c -0.848 0 -1.445 -0.074 -1.758 -0.242 c -0.789 -0.426 -1.188 -0.949 -1.188 -1.57 c 0 -0.832 0.152 -1.504 0.465 -1.992 c -2.324 2.441 -0.363 5.773 1.984 5.773 c 2.539 0 4.82 -0.695 5.156 -3.109 c 0.09 -0.66 -0.195 -1.09 -0.539 -1.25 c -0.313 -0.145 -0.465 -0.348 -0.465 -0.609 c 0 -0.188 0.102 -0.332 0.316 -0.426 c 0.684 -0.18 1.25 -0.355 1.488 0.773 c 0.582 2.754 2.645 2.645 3.621 0.84 c 1.031 1.914 2.793 1.539 3.117 -0.246 c 0 0 1.227 1.871 3.125 1.871 c 3.211 0 3.363 -4.152 7.156 -5.04 c -3.105 -3.121 -5.555 -0.344 -7.602 -1.664 c 2.047 2.387 3.977 0.848 5.527 1.715 c -1.594 0.191 -3.172 3.395 -5.05 3.395 c -1.117 0 -1.668 -0.258 -2.512 -1.23 c -0.535 -1.387 -0.77 -2.449 -0.234 -3.781 c -1.156 1.113 -0.988 1.773 -1.035 2.953 c -0.055 1.316 -0.91 2.363 -1.73 0.961 c -0.695 -1.273 -1.02 -2.617 -0.344 -4.047 m 10.477 5.648 l -0.758 0.859 l 0.758 0.867 l 0.758 -0.867 m -9.422 0.672 l -0.762 0.863 l 0.762 0.875 l 0.758 -0.875 m 1.406 -0.863 l -0.758 0.863 l 0.758 0.875 l 0.758 -0.875 m -15.922 1.539 l -0.762 0.867 l 0.762 0.863 l 0.758 -0.863 m 1.41 -0.867 l -0.762 0.867 l 0.762 0.863 l 0.754 -0.863 m -0.754 -0.867" fill="#de2121" stroke="none" fill-rule="nonzero" fill-opacity="1"/></g></g></g><g><path d="m 20 4 -7.313 3.03 -5.656 5.656 -3.03 7.313 0 8 3.03 7.313 5.656 5.656 7.313 3.03 8 0 7.313 -3.03 5.656 -5.656 3.03 -7.313 0 -8 -3.03 -7.313 -5.656 -5.656 -7.313 -3.03 -8 0 z" clip-path="url(#clipPath4313)" transform="matrix(0,1,-1,0,48,0)" opacity="0.3" stroke-opacity="1" stroke-dasharray="none" visibility="visible" fill="none" display="inline" stroke="url(#linearGradient4375)" color="#000" stroke-width="1" stroke-miterlimit="4"/><path d="m 24 2.344 -4 1.656 -4.281 0 -3.03 3.03 l -4 1.656 -1.656 4 l -3.03 3.03 0 4.281 -1.656 4 1.656 4 l 0 4.281 3.03 3.03 1.656 4 4 1.656 l 3.03 3.03 4.281 0 4 1.656 4 -1.656 l 4.281 0 3.03 -3.03 4 -1.656 1.656 -4 l 3.03 -3.03 0 -4.281 1.656 -4 -1.656 -4 l 0 -4.281 -3.03 -3.03 -1.656 -4 -4 -1.656 l -3.03 -3.03 -4.281 0 -4 -1.656 z" clip-path="url(#clipPath4329)" opacity="0.2" stroke-opacity="1" visibility="visible" fill="none" display="inline" stroke="#000" color="#000" stroke-width="2"/></g></svg>