<svg viewBox="0 0 48 48" xmlns:xlink="http://www.w3.org/1999/xlink"><defs><clipPath clipPathUnits="userSpaceOnUse" id="clipPath4313"><path d="m 20 4 -7.313 3.03 -5.656 5.656 -3.03 7.313 0 8 3.03 7.313 5.656 5.656 7.313 3.03 8 0 7.313 -3.03 5.656 -5.656 3.03 -7.313 0 -8 -3.03 -7.313 -5.656 -5.656 -7.313 -3.03 -8 0 z"/></clipPath><clipPath clipPathUnits="userSpaceOnUse" id="clipPath4329"><path d="m 24 2.344 -4 1.656 -4.281 0 -3.03 3.03 l -4 1.656 -1.656 4 l -3.03 3.03 0 4.281 -1.656 4 1.656 4 l 0 4.281 3.03 3.03 1.656 4 4 1.656 l 3.03 3.03 4.281 0 4 1.656 4 -1.656 l 4.281 0 3.03 -3.03 4 -1.656 1.656 -4 l 3.03 -3.03 0 -4.281 1.656 -4 -1.656 -4 l 0 -4.281 -3.03 -3.03 -1.656 -4 -4 -1.656 l -3.03 -3.03 -4.281 0 -4 -1.656 z"/></clipPath><clipPath id="clipPath-383880427"><path d="m 24 2.344 l -4 1.656 l -4.281 0 l -3.03 3.03 l -4 1.656 l -1.656 4 l -3.03 3.03 l 0 4.281 l -1.656 4 l 1.656 4 l 0 4.281 l 3.03 3.03 l 1.656 4 l 4 1.656 l 3.03 3.03 l 4.281 0 l 4 1.656 l 4 -1.656 l 4.281 0 l 3.03 -3.03 l 4 -1.656 l 1.656 -4 l 3.03 -3.03 l 0 -4.281 l 1.656 -4 l -1.656 -4 l 0 -4.281 l -3.03 -3.03 l -1.656 -4 l -4 -1.656 l -3.03 -3.03 l -4.281 0 l -4 -1.656 z"/></clipPath><clipPath id="clipPath-397550415"><path d="m 24 2.344 l -4 1.656 l -4.281 0 l -3.03 3.03 l -4 1.656 l -1.656 4 l -3.03 3.03 l 0 4.281 l -1.656 4 l 1.656 4 l 0 4.281 l 3.03 3.03 l 1.656 4 l 4 1.656 l 3.03 3.03 l 4.281 0 l 4 1.656 l 4 -1.656 l 4.281 0 l 3.03 -3.03 l 4 -1.656 l 1.656 -4 l 3.03 -3.03 l 0 -4.281 l 1.656 -4 l -1.656 -4 l 0 -4.281 l -3.03 -3.03 l -1.656 -4 l -4 -1.656 l -3.03 -3.03 l -4.281 0 l -4 -1.656 z"/></clipPath><linearGradient id="linearGradient4317"><stop stop-color="#fff" stop-opacity="1"/><stop offset="1" stop-color="#fff" stop-opacity="0"/></linearGradient><clipPath clipPathUnits="userSpaceOnUse" id="clipPath4313"><path d="m 20 4 -7.313 3.03 -5.656 5.656 -3.03 7.313 0 8 3.03 7.313 5.656 5.656 7.313 3.03 8 0 7.313 -3.03 5.656 -5.656 3.03 -7.313 0 -8 -3.03 -7.313 -5.656 -5.656 -7.313 -3.03 -8 0 z"/></clipPath><linearGradient x2="44" x1="4" gradientUnits="userSpaceOnUse" id="linearGradient4375" xlink:href="#linearGradient4317"/><clipPath clipPathUnits="userSpaceOnUse" id="clipPath4329"><path d="m 24 2.344 -4 1.656 -4.281 0 -3.03 3.03 l -4 1.656 -1.656 4 l -3.03 3.03 0 4.281 -1.656 4 1.656 4 l 0 4.281 3.03 3.03 1.656 4 4 1.656 l 3.03 3.03 4.281 0 4 1.656 4 -1.656 l 4.281 0 3.03 -3.03 4 -1.656 1.656 -4 l 3.03 -3.03 0 -4.281 1.656 -4 -1.656 -4 l 0 -4.281 -3.03 -3.03 -1.656 -4 -4 -1.656 l -3.03 -3.03 -4.281 0 -4 -1.656 z"/></clipPath><path id="SVGCleanerId_0" d="m 24 2.344 l -4 1.656 l -4.281 0 l -3.03 3.03 l -4 1.656 l -1.656 4 l -3.03 3.03 l 0 4.281 l -1.656 4 l 1.656 4 l 0 4.281 l 3.03 3.03 l 1.656 4 l 4 1.656 l 3.03 3.03 l 4.281 0 l 4 1.656 l 4 -1.656 l 4.281 0 l 3.03 -3.03 l 4 -1.656 l 1.656 -4 l 3.03 -3.03 l 0 -4.281 l 1.656 -4 l -1.656 -4 l 0 -4.281 l -3.03 -3.03 l -1.656 -4 l -4 -1.656 l -3.03 -3.03 l -4.281 0 l -4 -1.656 z" visibility="visible" display="inline" fill-rule="nonzero" color="#000" fill-opacity="1"/></defs><g><path d="m 2.563 24.5 l -0.219 0.5 l 1.656 4 l 0 -1 l -1.438 -3.5 z m 42.875 0 l -1.438 3.5 l 0 1 l 1.656 -4 l -0.219 -0.5 z m -41.44 7.781 l 0 1 l 3.03 3.03 l 1.656 4 l 4 1.656 l 3.03 3.03 l 4.281 0 l 4 1.656 l 4 -1.656 l 4.281 0 l 3.03 -3.03 l 4 -1.656 l 1.656 -4 l 3.03 -3.03 l 0 -1 l -3.03 3.03 l -1.656 4 l -4 1.656 l -3.03 3.03 l -4.281 0 l -4 1.656 l -4 -1.656 l -4.281 0 l -3.03 -3.03 l -4 -1.656 l -1.656 -4 l -3.03 -3.03 z" opacity="0.3" visibility="visible" fill="#000" display="inline" fill-rule="nonzero" stroke="none" fill-opacity="1" color="#000"/></g><g><use fill="#474747" stroke="none" xlink:href="#SVGCleanerId_0"/><path d="m 24 2.344 l -4 1.656 l 8 0 l -4 -1.656 z m 4 1.656 l 7.313 3.03 l -3.03 -3.03 l -4.281 0 z m 7.313 3.03 l 5.656 5.656 l -1.656 -4 l -4 -1.656 z m 5.656 5.656 l 3.03 7.313 l 0 -4.281 l -3.03 -3.03 z m 3.03 7.313 l 0 8 l 1.656 -4 l -1.656 -4 z m 0 8 l -3.03 7.313 l 3.03 -3.03 l 0 -4.281 z m -3.03 7.313 l -5.656 5.656 l 4 -1.656 l 1.656 -4 z m -5.656 5.656 l -7.313 3.03 l 4.281 0 l 3.03 -3.03 z m -7.313 3.03 l -8 0 l 4 1.656 l 4 -1.656 z m -8 0 l -7.313 -3.03 l 3.03 3.03 l 4.281 0 z m -7.313 -3.03 l -5.656 -5.656 l 1.656 4 l 4 1.656 z m -5.656 -5.656 l -3.03 -7.313 l 0 4.281 l 3.03 3.03 z m -3.03 -7.313 l 0 -8 l -1.656 4 l 1.656 4 z m 0 -8 l 3.03 -7.313 l -3.03 3.03 l 0 4.281 z m 3.03 -7.313 l 5.656 -5.656 l -4 1.656 l -1.656 4 z m 5.656 -5.656 l 7.313 -3.03 l -4.281 0 l -3.03 3.03 z" opacity="0.05" visibility="visible" fill="#474747" display="inline" fill-rule="nonzero" stroke="none" fill-opacity="1" color="#000"/></g><g><use opacity="0.05" stroke-opacity="1" stroke-dasharray="none" fill="#000" stroke="#000" stroke-width="2" stroke-miterlimit="4" xlink:href="#SVGCleanerId_0"/><use opacity="0.1" stroke-opacity="1" stroke-dasharray="none" fill="#000" stroke="#000" stroke-width="1" stroke-miterlimit="4" xlink:href="#SVGCleanerId_0"/></g><g><g clip-path="url(#clipPath-383880427)"><g transform="translate(0,1)"><g opacity="0.1"><!-- color: #474747 --><g><path d="m 17.02 32 l 3.957 0 c 0.012 0 0.02 0.004 0.02 0.004 l 0 1.992 c 0 0 -0.008 0.004 -0.02 0.004 l -3.957 0 c -0.012 0 -0.023 -0.004 -0.023 -0.004 l 0 -1.992 c 0 0 0.012 -0.004 0.023 -0.004 m 0 0" fill="#000" stroke="none" fill-rule="nonzero" fill-opacity="1"/><path d="m 17.02 28.984 l 3.957 0 c 0.012 0 0.02 0.004 0.02 0.004 l 0 1.992 c 0 0 -0.008 0.004 -0.02 0.004 l -3.957 0 c -0.012 0 -0.023 -0.004 -0.023 -0.004 l 0 -1.992 c 0 0 0.012 -0.004 0.023 -0.004 m 0 0" fill="#000" stroke="none" fill-rule="nonzero" fill-opacity="0.902"/><path d="m 17.02 26.02 l 3.957 0 c 0.012 0 0.02 0 0.02 0.004 l 0 1.965 c 0 0.004 -0.008 0.004 -0.02 0.004 l -3.957 0 c -0.012 0 -0.023 0 -0.023 -0.004 l 0 -1.965 c 0 -0.004 0.012 -0.004 0.023 -0.004 m 0 0" fill="#000" stroke="none" fill-rule="nonzero" fill-opacity="0.8"/><path d="m 17.02 23 l 3.957 0 c 0.012 0 0.02 0.004 0.02 0.004 l 0 1.953 c 0 0 -0.008 0.004 -0.02 0.004 l -3.957 0 c -0.012 0 -0.023 -0.004 -0.023 -0.004 l 0 -1.953 c 0 0 0.012 -0.004 0.023 -0.004 m 0 0" fill="#000" stroke="none" fill-rule="nonzero" fill-opacity="0.702"/><path d="m 17.02 20 l 3.957 0 c 0.012 0 0.02 0 0.02 0.004 l 0 1.941 c 0 0 -0.008 0.004 -0.02 0.004 l -3.957 0 c -0.012 0 -0.023 -0.004 -0.023 -0.004 l 0 -1.941 c 0 -0.004 0.012 -0.004 0.023 -0.004 m 0 0" fill="#000" stroke="none" fill-rule="nonzero" fill-opacity="0.6"/><path d="m 27.02 32.01 l 3.961 0 c 0.012 0 0.02 0 0.02 0.004 l 0 1.977 c 0 0 -0.008 0.004 -0.02 0.004 l -3.961 0 c -0.012 0 -0.02 -0.004 -0.02 -0.004 l 0 -1.977 c 0 -0.004 0.008 -0.004 0.02 -0.004 m 0 0" fill="#000" stroke="none" fill-rule="nonzero" fill-opacity="1"/><path d="m 27.02 29.02 l 3.961 0 c 0.012 0 0.02 0.004 0.02 0.004 l 0 1.965 c 0 0.004 -0.008 0.004 -0.02 0.004 l -3.961 0 c -0.012 0 -0.02 0 -0.02 -0.004 l 0 -1.965 c 0 0 0.008 -0.004 0.02 -0.004 m 0 0" fill="#000" stroke="none" fill-rule="nonzero" fill-opacity="0.902"/><path d="m 27.02 26.05 l 3.961 0 c 0.012 0 0.02 0.004 0.02 0.004 l 0 1.957 c 0 0 -0.008 0.004 -0.02 0.004 l -3.961 0 c -0.012 0 -0.02 -0.004 -0.02 -0.004 l 0 -1.957 c 0 0 0.008 -0.004 0.02 -0.004 m 0 0" fill="#000" stroke="none" fill-rule="nonzero" fill-opacity="0.8"/><path d="m 27.02 23.05 l 3.961 0 c 0.012 0 0.02 0 0.02 0.004 l 0 1.941 c 0 0 -0.008 0.004 -0.02 0.004 l -3.961 0 c -0.012 0 -0.02 -0.004 -0.02 -0.004 l 0 -1.941 c 0 -0.004 0.008 -0.004 0.02 -0.004 m 0 0" fill="#000" stroke="none" fill-rule="nonzero" fill-opacity="0.702"/><path d="m 27.02 20.06 l 3.961 0 c 0.012 0 0.02 0.004 0.02 0.004 l 0 1.926 c 0 0.004 -0.008 0.004 -0.02 0.004 l -3.961 0 c -0.012 0 -0.02 0 -0.02 -0.004 l 0 -1.926 c 0 0 0.008 -0.004 0.02 -0.004 m 0 0" fill="#000" stroke="none" fill-rule="nonzero" fill-opacity="0.6"/><path d="m 27.02 17 l 3.961 0 c 0.012 0 0.02 0.004 0.02 0.004 l 0 1.992 c 0 0.004 -0.008 0.004 -0.02 0.004 l -3.961 0 c -0.012 0 -0.02 0 -0.02 -0.004 l 0 -1.992 c 0 0 0.008 -0.004 0.02 -0.004 m 0 0" fill="#000" stroke="none" fill-rule="nonzero" fill-opacity="0.502"/><path d="m 32.02 32 l 3.961 0 c 0.012 0 0.02 0.004 0.02 0.004 l 0 1.992 c 0 0 -0.008 0.004 -0.02 0.004 l -3.961 0 c -0.012 0 -0.02 -0.004 -0.02 -0.004 l 0 -1.992 c 0 0 0.008 -0.004 0.02 -0.004 m 0 0" fill="#000" stroke="none" fill-rule="nonzero" fill-opacity="1"/><path d="m 32.02 29 l 3.961 0 c 0.012 0 0.02 0 0.02 0.004 l 0 1.98 c 0 0 -0.008 0.004 -0.02 0.004 l -3.961 0 c -0.012 0 -0.02 -0.004 -0.02 -0.004 l 0 -1.98 c 0 -0.004 0.008 -0.004 0.02 -0.004 m 0 0" fill="#000" stroke="none" fill-rule="nonzero" fill-opacity="0.902"/><path d="m 32.02 26.02 l 3.961 0 c 0.012 0 0.02 0 0.02 0.004 l 0 1.965 c 0 0.004 -0.008 0.004 -0.02 0.004 l -3.961 0 c -0.012 0 -0.02 0 -0.02 -0.004 l 0 -1.965 c 0 -0.004 0.008 -0.004 0.02 -0.004 m 0 0" fill="#000" stroke="none" fill-rule="nonzero" fill-opacity="0.8"/><path d="m 32.02 23 l 3.961 0 c 0.012 0 0.02 0.004 0.02 0.004 l 0 1.953 c 0 0 -0.008 0.004 -0.02 0.004 l -3.961 0 c -0.012 0 -0.02 -0.004 -0.02 -0.004 l 0 -1.953 c 0 0 0.008 -0.004 0.02 -0.004 m 0 0" fill="#000" stroke="none" fill-rule="nonzero" fill-opacity="0.702"/><path d="m 32.02 20 l 3.961 0 c 0.012 0 0.02 0 0.02 0.004 l 0 1.941 c 0 0 -0.008 0.004 -0.02 0.004 l -3.961 0 c -0.012 0 -0.02 -0.004 -0.02 -0.004 l 0 -1.941 c 0 -0.004 0.008 -0.004 0.02 -0.004 m 0 0" fill="#000" stroke="none" fill-rule="nonzero" fill-opacity="0.6"/><path d="m 22.02 32 l 3.957 0 c 0.012 0 0.02 0.004 0.02 0.004 l 0 1.992 c 0 0 -0.008 0.004 -0.02 0.004 l -3.957 0 c -0.012 0 -0.023 -0.004 -0.023 -0.004 l 0 -1.992 c 0 0 0.012 -0.004 0.023 -0.004 m 0 0" fill="#000" stroke="none" fill-rule="nonzero" fill-opacity="1"/><path d="m 22.02 29 l 3.957 0 c 0.012 0 0.02 0 0.02 0.004 l 0 1.98 c 0 0 -0.008 0.004 -0.02 0.004 l -3.957 0 c -0.012 0 -0.023 -0.004 -0.023 -0.004 l 0 -1.98 c 0 -0.004 0.012 -0.004 0.023 -0.004 m 0 0" fill="#000" stroke="none" fill-rule="nonzero" fill-opacity="0.902"/><path d="m 22.02 26.02 l 3.957 0 c 0.012 0 0.02 0 0.02 0.004 l 0 1.965 c 0 0.004 -0.008 0.004 -0.02 0.004 l -3.957 0 c -0.012 0 -0.023 0 -0.023 -0.004 l 0 -1.965 c 0 -0.004 0.012 -0.004 0.023 -0.004 m 0 0" fill="#000" stroke="none" fill-rule="nonzero" fill-opacity="0.8"/><path d="m 12.02 32 l 3.957 0 c 0.012 0 0.02 0.004 0.02 0.004 l 0 1.992 c 0 0 -0.008 0.004 -0.02 0.004 l -3.957 0 c -0.012 0 -0.023 -0.004 -0.023 -0.004 l 0 -1.992 c 0 0 0.012 -0.004 0.023 -0.004 m 0 0" fill="#000" stroke="none" fill-rule="nonzero" fill-opacity="1"/><path d="m 12.02 29.02 l 3.957 0 c 0.012 0 0.02 0.004 0.02 0.004 l 0 1.969 c 0 0 -0.008 0 -0.02 0 l -3.957 0 c -0.012 0 -0.023 0 -0.023 0 l 0 -1.969 c 0 0 0.012 -0.004 0.023 -0.004 m 0 0" fill="#000" stroke="none" fill-rule="nonzero" fill-opacity="0.902"/><path d="m 12.02 26.04 l 3.957 0 c 0.012 0 0.02 0 0.02 0 l 0 1.957 c 0 0.004 -0.008 0.004 -0.02 0.004 l -3.957 0 c -0.012 0 -0.023 0 -0.023 -0.004 l 0 -1.957 c 0 0 0.012 0 0.023 0 m 0 0" fill="#000" stroke="none" fill-rule="nonzero" fill-opacity="0.8"/><path d="m 12.02 23.05 l 3.957 0 c 0.012 0 0.02 0 0.02 0.004 l 0 1.941 c 0 0 -0.008 0.004 -0.02 0.004 l -3.957 0 c -0.012 0 -0.023 -0.004 -0.023 -0.004 l 0 -1.941 c 0 -0.004 0.012 -0.004 0.023 -0.004 m 0 0" fill="#000" stroke="none" fill-rule="nonzero" fill-opacity="0.702"/><path d="m 12.02 20.06 l 3.957 0 c 0.012 0 0.02 0.004 0.02 0.004 l 0 1.93 c 0 0 -0.008 0 -0.02 0 l -3.957 0 c -0.012 0 -0.023 0 -0.023 0 l 0 -1.93 c 0 0 0.012 -0.004 0.023 -0.004 m 0 0" fill="#000" stroke="none" fill-rule="nonzero" fill-opacity="0.6"/><path d="m 12.02 17 l 3.957 0 c 0.012 0 0.02 0 0.02 0.004 l 0 1.988 c 0 0.004 -0.008 0.004 -0.02 0.004 l -3.957 0 c -0.012 0 -0.023 0 -0.023 -0.004 l 0 -1.988 c 0 -0.004 0.012 -0.004 0.023 -0.004 m 0 0" fill="#000" stroke="none" fill-rule="nonzero" fill-opacity="0.502"/><path d="m 12.02 14 l 3.957 0 c 0.012 0 0.02 0.004 0.02 0.004 l 0 1.992 c 0 0 -0.008 0.004 -0.02 0.004 l -3.957 0 c -0.012 0 -0.023 -0.004 -0.023 -0.004 l 0 -1.992 c 0 0 0.012 -0.004 0.023 -0.004 m 0 0" fill="#000" stroke="none" fill-rule="nonzero" fill-opacity="0.4"/><path d="m 7.02 32 l 3.957 0 c 0.012 0 0.02 0.004 0.02 0.004 l 0 1.992 c 0 0 -0.008 0.004 -0.02 0.004 l -3.957 0 c -0.012 0 -0.023 -0.004 -0.023 -0.004 l 0 -1.992 c 0 0 0.012 -0.004 0.023 -0.004 m 0 0" fill="#000" stroke="none" fill-rule="nonzero" fill-opacity="1"/><path d="m 7.02 29 l 3.957 0 c 0.012 0 0.02 0 0.02 0.004 l 0 1.98 c 0 0 -0.008 0.004 -0.02 0.004 l -3.957 0 c -0.012 0 -0.023 -0.004 -0.023 -0.004 l 0 -1.98 c 0 -0.004 0.012 -0.004 0.023 -0.004 m 0 0" fill="#000" stroke="none" fill-rule="nonzero" fill-opacity="0.902"/><path d="m 7.02 26.02 l 3.957 0 c 0.012 0 0.02 0 0.02 0.004 l 0 1.965 c 0 0.004 -0.008 0.004 -0.02 0.004 l -3.957 0 c -0.012 0 -0.023 0 -0.023 -0.004 l 0 -1.965 c 0 -0.004 0.012 -0.004 0.023 -0.004 m 0 0" fill="#000" stroke="none" fill-rule="nonzero" fill-opacity="0.8"/><path d="m 7.02 23 l 3.957 0 c 0.012 0 0.02 0.004 0.02 0.004 l 0 1.953 c 0 0 -0.008 0.004 -0.02 0.004 l -3.957 0 c -0.012 0 -0.023 -0.004 -0.023 -0.004 l 0 -1.953 c 0 0 0.012 -0.004 0.023 -0.004 m 0 0" fill="#000" stroke="none" fill-rule="nonzero" fill-opacity="0.702"/><path d="m 7.02 20 l 3.957 0 c 0.012 0 0.02 0 0.02 0.004 l 0 1.941 c 0 0 -0.008 0.004 -0.02 0.004 l -3.957 0 c -0.012 0 -0.023 -0.004 -0.023 -0.004 l 0 -1.941 c 0 -0.004 0.012 -0.004 0.023 -0.004 m 0 0" fill="#000" stroke="none" fill-rule="nonzero" fill-opacity="0.6"/><path d="m 2 17 l 0 2 l 3.969 0 c 0.012 0 0.031 0 0.031 0 l 0 -2 c 0 -0.004 -0.02 0 -0.031 0 m -3.969 3 l 0 2 l 3.969 0 c 0.012 0 0.031 0 0.031 0 l 0 -1.938 c 0 -0.004 -0.02 0 -0.031 0 m -3.969 2.938 c 0 1 0 1.273 0 2 l 3.969 0 c 0.012 0 0.031 0 0.031 0 l 0 -1.938 c 0 -0.004 -0.02 0 -0.031 0 m -3.969 2.938 c 0 0.676 0 1.43 0 2 l 3.969 0 c 0.012 0 0.031 0 0.031 0 l 0 -1.969 c 0 -0.004 -0.02 0 -0.031 0 m -3.969 2.969 c 0 1 0 1.398 0 2 l 3.969 0 c 0.012 0 0.031 0 0.031 0 l 0 -1.969 c 0 -0.004 -0.02 0 -0.031 0 m -3.969 2.969 c 0 0.684 0 1.301 0 2 l 3.969 0 c 0.012 0 0.031 0 0.031 0 l 0 -2 c 0 -0.004 -0.02 0 -0.031 0 m -3.969 0" fill="#000" stroke="none" fill-rule="nonzero" fill-opacity="0.502"/><path d="m 37.02 32 l 3.961 0 c 0.012 0 0.02 0.004 0.02 0.004 l 0 1.992 c 0 0 -0.008 0.004 -0.02 0.004 l -3.961 0 c -0.012 0 -0.02 -0.004 -0.02 -0.004 l 0 -1.992 c 0 0 0.008 -0.004 0.02 -0.004 m 0 0" fill="#000" stroke="none" fill-rule="nonzero" fill-opacity="1"/><path d="m 37.02 29.02 l 3.961 0 c 0.012 0 0.02 0.004 0.02 0.004 l 0 1.969 c 0 0 -0.008 0 -0.02 0 l -3.961 0 c -0.012 0 -0.02 0 -0.02 0 l 0 -1.969 c 0 0 0.008 -0.004 0.02 -0.004 m 0 0" fill="#000" stroke="none" fill-rule="nonzero" fill-opacity="0.902"/><path d="m 37.02 26.04 l 3.961 0 c 0.012 0 0.02 0 0.02 0 l 0 1.957 c 0 0.004 -0.008 0.004 -0.02 0.004 l -3.961 0 c -0.012 0 -0.02 0 -0.02 -0.004 l 0 -1.957 c 0 0 0.008 0 0.02 0 m 0 0" fill="#000" stroke="none" fill-rule="nonzero" fill-opacity="0.8"/><path d="m 37.02 23.05 l 3.961 0 c 0.012 0 0.02 0 0.02 0.004 l 0 1.941 c 0 0 -0.008 0.004 -0.02 0.004 l -3.961 0 c -0.012 0 -0.02 -0.004 -0.02 -0.004 l 0 -1.941 c 0 -0.004 0.008 -0.004 0.02 -0.004 m 0 0" fill="#000" stroke="none" fill-rule="nonzero" fill-opacity="0.702"/><path d="m 37.02 20.06 l 3.961 0 c 0.012 0 0.02 0.004 0.02 0.004 l 0 1.93 c 0 0 -0.008 0 -0.02 0 l -3.961 0 c -0.012 0 -0.02 0 -0.02 0 l 0 -1.93 c 0 0 0.008 -0.004 0.02 -0.004 m 0 0" fill="#000" stroke="none" fill-rule="nonzero" fill-opacity="0.6"/><path d="m 37.02 17 l 3.961 0 c 0.012 0 0.02 0 0.02 0.004 l 0 1.988 c 0 0.004 -0.008 0.004 -0.02 0.004 l -3.961 0 c -0.012 0 -0.02 0 -0.02 -0.004 l 0 -1.988 c 0 -0.004 0.008 -0.004 0.02 -0.004 m 0 0" fill="#000" stroke="none" fill-rule="nonzero" fill-opacity="0.502"/><path d="m 37.02 14 l 3.961 0 c 0.012 0 0.02 0.004 0.02 0.004 l 0 1.992 c 0 0 -0.008 0.004 -0.02 0.004 l -3.961 0 c -0.012 0 -0.02 -0.004 -0.02 -0.004 l 0 -1.992 c 0 0 0.008 -0.004 0.02 -0.004 m 0 0" fill="#000" stroke="none" fill-rule="nonzero" fill-opacity="0.4"/><path d="m 3.548 5.847 l 0.428 0 c 0.107 0 0.194 0.088 0.194 0.206 l 0 1.679 c 0 0.11 -0.087 0.205 -0.194 0.205 l -0.428 0 c -0.108 0 -0.195 -0.094 -0.195 -0.205 l 0 -1.679 c 0 -0.117 0.087 -0.206 0.195 -0.206 m 0 0" transform="matrix(3.543307,0,0,3.543307,-0.566929,-0.421795)" stroke-opacity="1" fill="#000" fill-rule="nonzero" stroke="#f9f9f9" stroke-linejoin="miter" fill-opacity="1" stroke-linecap="butt" stroke-width="0.176" stroke-miterlimit="4"/><path d="m 4.086 5.943 l 2.414 -2.194 l 0 2.778 l 0.294 0.452 l -0.294 0.337 l 0 2.713 l -2.423 -2.118 m 0.009 -1.971" transform="matrix(3.543307,0,0,3.543307,-0.566929,-0.421795)" stroke-opacity="1" fill="#000" fill-rule="nonzero" stroke="#f9f9f9" stroke-linejoin="round" fill-opacity="1" stroke-linecap="round" stroke-width="0.128" stroke-miterlimit="4"/><path d="m 7.291 5.623 c 0.667 0.7 0.667 1.837 0 2.538" transform="matrix(3.543307,0,0,3.543307,-0.566929,-0.421795)" stroke-opacity="1" fill="#000" stroke="#f9f9f9" stroke-linejoin="round" stroke-linecap="butt" stroke-width="0.589" stroke-miterlimit="4"/><path d="m 8.172 4.737 c 1.131 1.19 1.131 3.12 0 4.311" transform="matrix(3.543307,0,0,3.543307,-0.566929,-0.421795)" stroke-opacity="1" fill="#000" stroke="#f9f9f9" stroke-linejoin="round" stroke-linecap="butt" stroke-width="0.589" stroke-miterlimit="4"/><path d="m 9.09 3.8 c 1.627 1.707 1.627 4.477 0 6.184" transform="matrix(3.543307,0,0,3.543307,-0.566929,-0.421795)" stroke-opacity="1" fill="#000" stroke="#f9f9f9" stroke-linejoin="round" stroke-linecap="butt" stroke-width="0.589" stroke-miterlimit="4"/><path d="m 42 20 l 0 1.938 c 0 0.004 0.02 0 0.031 0 l 3.969 0.063 l 0 -2 l -3.969 0 c -0.012 0 -0.031 0 -0.031 0 m 0 3 l 0 1.969 c 0 0.004 0.02 0 0.031 0 l 3.969 0 l 0 -1.969 l -3.969 0 c -0.012 0 -0.031 -0.004 -0.031 0 m 0 3 l 0 1.969 c 0 0.004 0.02 0 0.031 0 l 3.969 0.031 l 0 -2 l -3.969 0 c -0.012 0 -0.031 -0.004 -0.031 0 m 0 3 l 0 1.969 c 0 0.004 0.02 0 0.031 0 l 3.969 0.031 l 0 -2 l -3.969 0 c -0.012 0 -0.031 -0.004 -0.031 0 m 0 3 l 0 2 c 0 0 0.02 0 0.031 0 l 3.969 0 l 0 -2 l -3.969 0 c -0.012 0 -0.031 -0.004 -0.031 0 m 0 0" fill="#000" stroke="none" fill-rule="nonzero" fill-opacity="0.6"/></g></g></g></g></g><g><g clip-path="url(#clipPath-397550415)"><!-- color: #474747 --><g><path d="m 17.02 32 l 3.957 0 c 0.012 0 0.02 0.004 0.02 0.004 l 0 1.992 c 0 0 -0.008 0.004 -0.02 0.004 l -3.957 0 c -0.012 0 -0.023 -0.004 -0.023 -0.004 l 0 -1.992 c 0 0 0.012 -0.004 0.023 -0.004 m 0 0" fill="#e4c82f" stroke="none" fill-rule="nonzero" fill-opacity="1"/><path d="m 17.02 28.984 l 3.957 0 c 0.012 0 0.02 0.004 0.02 0.004 l 0 1.992 c 0 0 -0.008 0.004 -0.02 0.004 l -3.957 0 c -0.012 0 -0.023 -0.004 -0.023 -0.004 l 0 -1.992 c 0 0 0.012 -0.004 0.023 -0.004 m 0 0" fill="#e4c82f" stroke="none" fill-rule="nonzero" fill-opacity="0.902"/><path d="m 17.02 26.02 l 3.957 0 c 0.012 0 0.02 0 0.02 0.004 l 0 1.965 c 0 0.004 -0.008 0.004 -0.02 0.004 l -3.957 0 c -0.012 0 -0.023 0 -0.023 -0.004 l 0 -1.965 c 0 -0.004 0.012 -0.004 0.023 -0.004 m 0 0" fill="#e4c82f" stroke="none" fill-rule="nonzero" fill-opacity="0.8"/><path d="m 17.02 23 l 3.957 0 c 0.012 0 0.02 0.004 0.02 0.004 l 0 1.953 c 0 0 -0.008 0.004 -0.02 0.004 l -3.957 0 c -0.012 0 -0.023 -0.004 -0.023 -0.004 l 0 -1.953 c 0 0 0.012 -0.004 0.023 -0.004 m 0 0" fill="#e4c82f" stroke="none" fill-rule="nonzero" fill-opacity="0.702"/><path d="m 17.02 20 l 3.957 0 c 0.012 0 0.02 0 0.02 0.004 l 0 1.941 c 0 0 -0.008 0.004 -0.02 0.004 l -3.957 0 c -0.012 0 -0.023 -0.004 -0.023 -0.004 l 0 -1.941 c 0 -0.004 0.012 -0.004 0.023 -0.004 m 0 0" fill="#e4c82f" stroke="none" fill-rule="nonzero" fill-opacity="0.6"/><path d="m 27.02 32.01 l 3.961 0 c 0.012 0 0.02 0 0.02 0.004 l 0 1.977 c 0 0 -0.008 0.004 -0.02 0.004 l -3.961 0 c -0.012 0 -0.02 -0.004 -0.02 -0.004 l 0 -1.977 c 0 -0.004 0.008 -0.004 0.02 -0.004 m 0 0" fill="#3e8ded" stroke="none" fill-rule="nonzero" fill-opacity="1"/><path d="m 27.02 29.02 l 3.961 0 c 0.012 0 0.02 0.004 0.02 0.004 l 0 1.965 c 0 0.004 -0.008 0.004 -0.02 0.004 l -3.961 0 c -0.012 0 -0.02 0 -0.02 -0.004 l 0 -1.965 c 0 0 0.008 -0.004 0.02 -0.004 m 0 0" fill="#3e8ded" stroke="none" fill-rule="nonzero" fill-opacity="0.902"/><path d="m 27.02 26.05 l 3.961 0 c 0.012 0 0.02 0.004 0.02 0.004 l 0 1.957 c 0 0 -0.008 0.004 -0.02 0.004 l -3.961 0 c -0.012 0 -0.02 -0.004 -0.02 -0.004 l 0 -1.957 c 0 0 0.008 -0.004 0.02 -0.004 m 0 0" fill="#3e8ded" stroke="none" fill-rule="nonzero" fill-opacity="0.8"/><path d="m 27.02 23.05 l 3.961 0 c 0.012 0 0.02 0 0.02 0.004 l 0 1.941 c 0 0 -0.008 0.004 -0.02 0.004 l -3.961 0 c -0.012 0 -0.02 -0.004 -0.02 -0.004 l 0 -1.941 c 0 -0.004 0.008 -0.004 0.02 -0.004 m 0 0" fill="#3e8ded" stroke="none" fill-rule="nonzero" fill-opacity="0.702"/><path d="m 27.02 20.06 l 3.961 0 c 0.012 0 0.02 0.004 0.02 0.004 l 0 1.926 c 0 0.004 -0.008 0.004 -0.02 0.004 l -3.961 0 c -0.012 0 -0.02 0 -0.02 -0.004 l 0 -1.926 c 0 0 0.008 -0.004 0.02 -0.004 m 0 0" fill="#3e8ded" stroke="none" fill-rule="nonzero" fill-opacity="0.6"/><path d="m 27.02 17 l 3.961 0 c 0.012 0 0.02 0.004 0.02 0.004 l 0 1.992 c 0 0.004 -0.008 0.004 -0.02 0.004 l -3.961 0 c -0.012 0 -0.02 0 -0.02 -0.004 l 0 -1.992 c 0 0 0.008 -0.004 0.02 -0.004 m 0 0" fill="#3e8ded" stroke="none" fill-rule="nonzero" fill-opacity="0.502"/><path d="m 32.02 32 l 3.961 0 c 0.012 0 0.02 0.004 0.02 0.004 l 0 1.992 c 0 0 -0.008 0.004 -0.02 0.004 l -3.961 0 c -0.012 0 -0.02 -0.004 -0.02 -0.004 l 0 -1.992 c 0 0 0.008 -0.004 0.02 -0.004 m 0 0" fill="#db4ddb" stroke="none" fill-rule="nonzero" fill-opacity="1"/><path d="m 32.02 29 l 3.961 0 c 0.012 0 0.02 0 0.02 0.004 l 0 1.98 c 0 0 -0.008 0.004 -0.02 0.004 l -3.961 0 c -0.012 0 -0.02 -0.004 -0.02 -0.004 l 0 -1.98 c 0 -0.004 0.008 -0.004 0.02 -0.004 m 0 0" fill="#db4ddb" stroke="none" fill-rule="nonzero" fill-opacity="0.902"/><path d="m 32.02 26.02 l 3.961 0 c 0.012 0 0.02 0 0.02 0.004 l 0 1.965 c 0 0.004 -0.008 0.004 -0.02 0.004 l -3.961 0 c -0.012 0 -0.02 0 -0.02 -0.004 l 0 -1.965 c 0 -0.004 0.008 -0.004 0.02 -0.004 m 0 0" fill="#db4ddb" stroke="none" fill-rule="nonzero" fill-opacity="0.8"/><path d="m 32.02 23 l 3.961 0 c 0.012 0 0.02 0.004 0.02 0.004 l 0 1.953 c 0 0 -0.008 0.004 -0.02 0.004 l -3.961 0 c -0.012 0 -0.02 -0.004 -0.02 -0.004 l 0 -1.953 c 0 0 0.008 -0.004 0.02 -0.004 m 0 0" fill="#db4ddb" stroke="none" fill-rule="nonzero" fill-opacity="0.702"/><path d="m 32.02 20 l 3.961 0 c 0.012 0 0.02 0 0.02 0.004 l 0 1.941 c 0 0 -0.008 0.004 -0.02 0.004 l -3.961 0 c -0.012 0 -0.02 -0.004 -0.02 -0.004 l 0 -1.941 c 0 -0.004 0.008 -0.004 0.02 -0.004 m 0 0" fill="#db4ddb" stroke="none" fill-rule="nonzero" fill-opacity="0.6"/><path d="m 22.02 32 l 3.957 0 c 0.012 0 0.02 0.004 0.02 0.004 l 0 1.992 c 0 0 -0.008 0.004 -0.02 0.004 l -3.957 0 c -0.012 0 -0.023 -0.004 -0.023 -0.004 l 0 -1.992 c 0 0 0.012 -0.004 0.023 -0.004 m 0 0" fill="#7fcf5b" stroke="none" fill-rule="nonzero" fill-opacity="1"/><path d="m 22.02 29 l 3.957 0 c 0.012 0 0.02 0 0.02 0.004 l 0 1.98 c 0 0 -0.008 0.004 -0.02 0.004 l -3.957 0 c -0.012 0 -0.023 -0.004 -0.023 -0.004 l 0 -1.98 c 0 -0.004 0.012 -0.004 0.023 -0.004 m 0 0" fill="#7fcf5b" stroke="none" fill-rule="nonzero" fill-opacity="0.902"/><path d="m 22.02 26.02 l 3.957 0 c 0.012 0 0.02 0 0.02 0.004 l 0 1.965 c 0 0.004 -0.008 0.004 -0.02 0.004 l -3.957 0 c -0.012 0 -0.023 0 -0.023 -0.004 l 0 -1.965 c 0 -0.004 0.012 -0.004 0.023 -0.004 m 0 0" fill="#7fcf5b" stroke="none" fill-rule="nonzero" fill-opacity="0.8"/><path d="m 12.02 32 l 3.957 0 c 0.012 0 0.02 0.004 0.02 0.004 l 0 1.992 c 0 0 -0.008 0.004 -0.02 0.004 l -3.957 0 c -0.012 0 -0.023 -0.004 -0.023 -0.004 l 0 -1.992 c 0 0 0.012 -0.004 0.023 -0.004 m 0 0" fill="#c52f2f" stroke="none" fill-rule="nonzero" fill-opacity="1"/><path d="m 12.02 29.02 l 3.957 0 c 0.012 0 0.02 0.004 0.02 0.004 l 0 1.969 c 0 0 -0.008 0 -0.02 0 l -3.957 0 c -0.012 0 -0.023 0 -0.023 0 l 0 -1.969 c 0 0 0.012 -0.004 0.023 -0.004 m 0 0" fill="#c52f2f" stroke="none" fill-rule="nonzero" fill-opacity="0.902"/><path d="m 12.02 26.04 l 3.957 0 c 0.012 0 0.02 0 0.02 0 l 0 1.957 c 0 0.004 -0.008 0.004 -0.02 0.004 l -3.957 0 c -0.012 0 -0.023 0 -0.023 -0.004 l 0 -1.957 c 0 0 0.012 0 0.023 0 m 0 0" fill="#c52f2f" stroke="none" fill-rule="nonzero" fill-opacity="0.8"/><path d="m 12.02 23.05 l 3.957 0 c 0.012 0 0.02 0 0.02 0.004 l 0 1.941 c 0 0 -0.008 0.004 -0.02 0.004 l -3.957 0 c -0.012 0 -0.023 -0.004 -0.023 -0.004 l 0 -1.941 c 0 -0.004 0.012 -0.004 0.023 -0.004 m 0 0" fill="#c52f2f" stroke="none" fill-rule="nonzero" fill-opacity="0.702"/><path d="m 12.02 20.06 l 3.957 0 c 0.012 0 0.02 0.004 0.02 0.004 l 0 1.93 c 0 0 -0.008 0 -0.02 0 l -3.957 0 c -0.012 0 -0.023 0 -0.023 0 l 0 -1.93 c 0 0 0.012 -0.004 0.023 -0.004 m 0 0" fill="#c52f2f" stroke="none" fill-rule="nonzero" fill-opacity="0.6"/><path d="m 12.02 17 l 3.957 0 c 0.012 0 0.02 0 0.02 0.004 l 0 1.988 c 0 0.004 -0.008 0.004 -0.02 0.004 l -3.957 0 c -0.012 0 -0.023 0 -0.023 -0.004 l 0 -1.988 c 0 -0.004 0.012 -0.004 0.023 -0.004 m 0 0" fill="#c52f2f" stroke="none" fill-rule="nonzero" fill-opacity="0.502"/><path d="m 12.02 14 l 3.957 0 c 0.012 0 0.02 0.004 0.02 0.004 l 0 1.992 c 0 0 -0.008 0.004 -0.02 0.004 l -3.957 0 c -0.012 0 -0.023 -0.004 -0.023 -0.004 l 0 -1.992 c 0 0 0.012 -0.004 0.023 -0.004 m 0 0" fill="#c52f2f" stroke="none" fill-rule="nonzero" fill-opacity="0.4"/><path d="m 7.02 32 l 3.957 0 c 0.012 0 0.02 0.004 0.02 0.004 l 0 1.992 c 0 0 -0.008 0.004 -0.02 0.004 l -3.957 0 c -0.012 0 -0.023 -0.004 -0.023 -0.004 l 0 -1.992 c 0 0 0.012 -0.004 0.023 -0.004 m 0 0" fill="#db4ddb" stroke="none" fill-rule="nonzero" fill-opacity="1"/><path d="m 7.02 29 l 3.957 0 c 0.012 0 0.02 0 0.02 0.004 l 0 1.98 c 0 0 -0.008 0.004 -0.02 0.004 l -3.957 0 c -0.012 0 -0.023 -0.004 -0.023 -0.004 l 0 -1.98 c 0 -0.004 0.012 -0.004 0.023 -0.004 m 0 0" fill="#db4ddb" stroke="none" fill-rule="nonzero" fill-opacity="0.902"/><path d="m 7.02 26.02 l 3.957 0 c 0.012 0 0.02 0 0.02 0.004 l 0 1.965 c 0 0.004 -0.008 0.004 -0.02 0.004 l -3.957 0 c -0.012 0 -0.023 0 -0.023 -0.004 l 0 -1.965 c 0 -0.004 0.012 -0.004 0.023 -0.004 m 0 0" fill="#db4ddb" stroke="none" fill-rule="nonzero" fill-opacity="0.8"/><path d="m 7.02 23 l 3.957 0 c 0.012 0 0.02 0.004 0.02 0.004 l 0 1.953 c 0 0 -0.008 0.004 -0.02 0.004 l -3.957 0 c -0.012 0 -0.023 -0.004 -0.023 -0.004 l 0 -1.953 c 0 0 0.012 -0.004 0.023 -0.004 m 0 0" fill="#db4ddb" stroke="none" fill-rule="nonzero" fill-opacity="0.702"/><path d="m 7.02 20 l 3.957 0 c 0.012 0 0.02 0 0.02 0.004 l 0 1.941 c 0 0 -0.008 0.004 -0.02 0.004 l -3.957 0 c -0.012 0 -0.023 -0.004 -0.023 -0.004 l 0 -1.941 c 0 -0.004 0.012 -0.004 0.023 -0.004 m 0 0" fill="#db4ddb" stroke="none" fill-rule="nonzero" fill-opacity="0.6"/><path d="m 2 17 l 0 2 l 3.969 0 c 0.012 0 0.031 0 0.031 0 l 0 -2 c 0 -0.004 -0.02 0 -0.031 0 m -3.969 3 l 0 2 l 3.969 0 c 0.012 0 0.031 0 0.031 0 l 0 -1.938 c 0 -0.004 -0.02 0 -0.031 0 m -3.969 2.938 c 0 1 0 1.273 0 2 l 3.969 0 c 0.012 0 0.031 0 0.031 0 l 0 -1.938 c 0 -0.004 -0.02 0 -0.031 0 m -3.969 2.938 c 0 0.676 0 1.43 0 2 l 3.969 0 c 0.012 0 0.031 0 0.031 0 l 0 -1.969 c 0 -0.004 -0.02 0 -0.031 0 m -3.969 2.969 c 0 1 0 1.398 0 2 l 3.969 0 c 0.012 0 0.031 0 0.031 0 l 0 -1.969 c 0 -0.004 -0.02 0 -0.031 0 m -3.969 2.969 c 0 0.684 0 1.301 0 2 l 3.969 0 c 0.012 0 0.031 0 0.031 0 l 0 -2 c 0 -0.004 -0.02 0 -0.031 0 m -3.969 0" fill="#3e8ded" stroke="none" fill-rule="nonzero" fill-opacity="0.502"/><path d="m 37.02 32 l 3.961 0 c 0.012 0 0.02 0.004 0.02 0.004 l 0 1.992 c 0 0 -0.008 0.004 -0.02 0.004 l -3.961 0 c -0.012 0 -0.02 -0.004 -0.02 -0.004 l 0 -1.992 c 0 0 0.008 -0.004 0.02 -0.004 m 0 0" fill="#c52f2f" stroke="none" fill-rule="nonzero" fill-opacity="1"/><path d="m 37.02 29.02 l 3.961 0 c 0.012 0 0.02 0.004 0.02 0.004 l 0 1.969 c 0 0 -0.008 0 -0.02 0 l -3.961 0 c -0.012 0 -0.02 0 -0.02 0 l 0 -1.969 c 0 0 0.008 -0.004 0.02 -0.004 m 0 0" fill="#c52f2f" stroke="none" fill-rule="nonzero" fill-opacity="0.902"/><path d="m 37.02 26.04 l 3.961 0 c 0.012 0 0.02 0 0.02 0 l 0 1.957 c 0 0.004 -0.008 0.004 -0.02 0.004 l -3.961 0 c -0.012 0 -0.02 0 -0.02 -0.004 l 0 -1.957 c 0 0 0.008 0 0.02 0 m 0 0" fill="#c52f2f" stroke="none" fill-rule="nonzero" fill-opacity="0.8"/><path d="m 37.02 23.05 l 3.961 0 c 0.012 0 0.02 0 0.02 0.004 l 0 1.941 c 0 0 -0.008 0.004 -0.02 0.004 l -3.961 0 c -0.012 0 -0.02 -0.004 -0.02 -0.004 l 0 -1.941 c 0 -0.004 0.008 -0.004 0.02 -0.004 m 0 0" fill="#c52f2f" stroke="none" fill-rule="nonzero" fill-opacity="0.702"/><path d="m 37.02 20.06 l 3.961 0 c 0.012 0 0.02 0.004 0.02 0.004 l 0 1.93 c 0 0 -0.008 0 -0.02 0 l -3.961 0 c -0.012 0 -0.02 0 -0.02 0 l 0 -1.93 c 0 0 0.008 -0.004 0.02 -0.004 m 0 0" fill="#c52f2f" stroke="none" fill-rule="nonzero" fill-opacity="0.6"/><path d="m 37.02 17 l 3.961 0 c 0.012 0 0.02 0 0.02 0.004 l 0 1.988 c 0 0.004 -0.008 0.004 -0.02 0.004 l -3.961 0 c -0.012 0 -0.02 0 -0.02 -0.004 l 0 -1.988 c 0 -0.004 0.008 -0.004 0.02 -0.004 m 0 0" fill="#c52f2f" stroke="none" fill-rule="nonzero" fill-opacity="0.502"/><path d="m 37.02 14 l 3.961 0 c 0.012 0 0.02 0.004 0.02 0.004 l 0 1.992 c 0 0 -0.008 0.004 -0.02 0.004 l -3.961 0 c -0.012 0 -0.02 -0.004 -0.02 -0.004 l 0 -1.992 c 0 0 0.008 -0.004 0.02 -0.004 m 0 0" fill="#c52f2f" stroke="none" fill-rule="nonzero" fill-opacity="0.4"/><path d="m 3.548 5.847 l 0.428 0 c 0.107 0 0.194 0.088 0.194 0.206 l 0 1.679 c 0 0.11 -0.087 0.205 -0.194 0.205 l -0.428 0 c -0.108 0 -0.195 -0.094 -0.195 -0.205 l 0 -1.679 c 0 -0.117 0.087 -0.206 0.195 -0.206 m 0 0" transform="matrix(3.543307,0,0,3.543307,-0.566929,-0.421795)" stroke-opacity="1" fill="#f9f9f9" fill-rule="nonzero" stroke="#f9f9f9" stroke-linejoin="miter" fill-opacity="1" stroke-linecap="butt" stroke-width="0.176" stroke-miterlimit="4"/><path d="m 4.086 5.943 l 2.414 -2.194 l 0 2.778 l 0.294 0.452 l -0.294 0.337 l 0 2.713 l -2.423 -2.118 m 0.009 -1.971" transform="matrix(3.543307,0,0,3.543307,-0.566929,-0.421795)" stroke-opacity="1" fill="#f9f9f9" fill-rule="nonzero" stroke="#f9f9f9" stroke-linejoin="round" fill-opacity="1" stroke-linecap="round" stroke-width="0.128" stroke-miterlimit="4"/><path d="m 7.291 5.623 c 0.667 0.7 0.667 1.837 0 2.538" transform="matrix(3.543307,0,0,3.543307,-0.566929,-0.421795)" stroke-opacity="1" fill="none" stroke="#f9f9f9" stroke-linejoin="round" stroke-linecap="butt" stroke-width="0.589" stroke-miterlimit="4"/><path d="m 8.172 4.737 c 1.131 1.19 1.131 3.12 0 4.311" transform="matrix(3.543307,0,0,3.543307,-0.566929,-0.421795)" stroke-opacity="1" fill="none" stroke="#f9f9f9" stroke-linejoin="round" stroke-linecap="butt" stroke-width="0.589" stroke-miterlimit="4"/><path d="m 9.09 3.8 c 1.627 1.707 1.627 4.477 0 6.184" transform="matrix(3.543307,0,0,3.543307,-0.566929,-0.421795)" stroke-opacity="1" fill="none" stroke="#f9f9f9" stroke-linejoin="round" stroke-linecap="butt" stroke-width="0.589" stroke-miterlimit="4"/><path d="m 42 20 l 0 1.938 c 0 0.004 0.02 0 0.031 0 l 3.969 0.063 l 0 -2 l -3.969 0 c -0.012 0 -0.031 0 -0.031 0 m 0 3 l 0 1.969 c 0 0.004 0.02 0 0.031 0 l 3.969 0 l 0 -1.969 l -3.969 0 c -0.012 0 -0.031 -0.004 -0.031 0 m 0 3 l 0 1.969 c 0 0.004 0.02 0 0.031 0 l 3.969 0.031 l 0 -2 l -3.969 0 c -0.012 0 -0.031 -0.004 -0.031 0 m 0 3 l 0 1.969 c 0 0.004 0.02 0 0.031 0 l 3.969 0.031 l 0 -2 l -3.969 0 c -0.012 0 -0.031 -0.004 -0.031 0 m 0 3 l 0 2 c 0 0 0.02 0 0.031 0 l 3.969 0 l 0 -2 l -3.969 0 c -0.012 0 -0.031 -0.004 -0.031 0 m 0 0" fill="#e4c82f" stroke="none" fill-rule="nonzero" fill-opacity="0.6"/></g></g></g><g><path d="m 20 4 -7.313 3.03 -5.656 5.656 -3.03 7.313 0 8 3.03 7.313 5.656 5.656 7.313 3.03 8 0 7.313 -3.03 5.656 -5.656 3.03 -7.313 0 -8 -3.03 -7.313 -5.656 -5.656 -7.313 -3.03 -8 0 z" clip-path="url(#clipPath4313)" transform="matrix(0,1,-1,0,48,0)" opacity="0.3" stroke-opacity="1" stroke-dasharray="none" visibility="visible" fill="none" display="inline" stroke="url(#linearGradient4375)" color="#000" stroke-width="1" stroke-miterlimit="4"/><path d="m 24 2.344 -4 1.656 -4.281 0 -3.03 3.03 l -4 1.656 -1.656 4 l -3.03 3.03 0 4.281 -1.656 4 1.656 4 l 0 4.281 3.03 3.03 1.656 4 4 1.656 l 3.03 3.03 4.281 0 4 1.656 4 -1.656 l 4.281 0 3.03 -3.03 4 -1.656 1.656 -4 l 3.03 -3.03 0 -4.281 1.656 -4 -1.656 -4 l 0 -4.281 -3.03 -3.03 -1.656 -4 -4 -1.656 l -3.03 -3.03 -4.281 0 -4 -1.656 z" clip-path="url(#clipPath4329)" opacity="0.2" stroke-opacity="1" visibility="visible" fill="none" display="inline" stroke="#000" color="#000" stroke-width="2"/></g></svg>