<svg viewBox="0 0 48 48" xmlns:xlink="http://www.w3.org/1999/xlink"><defs><clipPath clipPathUnits="userSpaceOnUse" id="clipPath4313"><path d="m 20 4 -7.313 3.03 -5.656 5.656 -3.03 7.313 0 8 3.03 7.313 5.656 5.656 7.313 3.03 8 0 7.313 -3.03 5.656 -5.656 3.03 -7.313 0 -8 -3.03 -7.313 -5.656 -5.656 -7.313 -3.03 -8 0 z"/></clipPath><clipPath clipPathUnits="userSpaceOnUse" id="clipPath4329"><path d="m 24 2.344 -4 1.656 -4.281 0 -3.03 3.03 l -4 1.656 -1.656 4 l -3.03 3.03 0 4.281 -1.656 4 1.656 4 l 0 4.281 3.03 3.03 1.656 4 4 1.656 l 3.03 3.03 4.281 0 4 1.656 4 -1.656 l 4.281 0 3.03 -3.03 4 -1.656 1.656 -4 l 3.03 -3.03 0 -4.281 1.656 -4 -1.656 -4 l 0 -4.281 -3.03 -3.03 -1.656 -4 -4 -1.656 l -3.03 -3.03 -4.281 0 -4 -1.656 z"/></clipPath><clipPath id="clipPath-529274542"><path d="m 24 2.344 l -4 1.656 l -4.281 0 l -3.03 3.03 l -4 1.656 l -1.656 4 l -3.03 3.03 l 0 4.281 l -1.656 4 l 1.656 4 l 0 4.281 l 3.03 3.03 l 1.656 4 l 4 1.656 l 3.03 3.03 l 4.281 0 l 4 1.656 l 4 -1.656 l 4.281 0 l 3.03 -3.03 l 4 -1.656 l 1.656 -4 l 3.03 -3.03 l 0 -4.281 l 1.656 -4 l -1.656 -4 l 0 -4.281 l -3.03 -3.03 l -1.656 -4 l -4 -1.656 l -3.03 -3.03 l -4.281 0 l -4 -1.656 z"/></clipPath><clipPath id="clipPath-541145431"><path d="m 24 2.344 l -4 1.656 l -4.281 0 l -3.03 3.03 l -4 1.656 l -1.656 4 l -3.03 3.03 l 0 4.281 l -1.656 4 l 1.656 4 l 0 4.281 l 3.03 3.03 l 1.656 4 l 4 1.656 l 3.03 3.03 l 4.281 0 l 4 1.656 l 4 -1.656 l 4.281 0 l 3.03 -3.03 l 4 -1.656 l 1.656 -4 l 3.03 -3.03 l 0 -4.281 l 1.656 -4 l -1.656 -4 l 0 -4.281 l -3.03 -3.03 l -1.656 -4 l -4 -1.656 l -3.03 -3.03 l -4.281 0 l -4 -1.656 z"/></clipPath><linearGradient id="linearGradient4317"><stop stop-color="#fff" stop-opacity="1"/><stop offset="1" stop-color="#fff" stop-opacity="0"/></linearGradient><clipPath clipPathUnits="userSpaceOnUse" id="clipPath4313"><path d="m 20 4 -7.313 3.03 -5.656 5.656 -3.03 7.313 0 8 3.03 7.313 5.656 5.656 7.313 3.03 8 0 7.313 -3.03 5.656 -5.656 3.03 -7.313 0 -8 -3.03 -7.313 -5.656 -5.656 -7.313 -3.03 -8 0 z"/></clipPath><linearGradient x2="44" x1="4" gradientUnits="userSpaceOnUse" id="linearGradient4375" xlink:href="#linearGradient4317"/><clipPath clipPathUnits="userSpaceOnUse" id="clipPath4329"><path d="m 24 2.344 -4 1.656 -4.281 0 -3.03 3.03 l -4 1.656 -1.656 4 l -3.03 3.03 0 4.281 -1.656 4 1.656 4 l 0 4.281 3.03 3.03 1.656 4 4 1.656 l 3.03 3.03 4.281 0 4 1.656 4 -1.656 l 4.281 0 3.03 -3.03 4 -1.656 1.656 -4 l 3.03 -3.03 0 -4.281 1.656 -4 -1.656 -4 l 0 -4.281 -3.03 -3.03 -1.656 -4 -4 -1.656 l -3.03 -3.03 -4.281 0 -4 -1.656 z"/></clipPath><path id="SVGCleanerId_0" d="m 24 2.344 l -4 1.656 l -4.281 0 l -3.03 3.03 l -4 1.656 l -1.656 4 l -3.03 3.03 l 0 4.281 l -1.656 4 l 1.656 4 l 0 4.281 l 3.03 3.03 l 1.656 4 l 4 1.656 l 3.03 3.03 l 4.281 0 l 4 1.656 l 4 -1.656 l 4.281 0 l 3.03 -3.03 l 4 -1.656 l 1.656 -4 l 3.03 -3.03 l 0 -4.281 l 1.656 -4 l -1.656 -4 l 0 -4.281 l -3.03 -3.03 l -1.656 -4 l -4 -1.656 l -3.03 -3.03 l -4.281 0 l -4 -1.656 z" visibility="visible" display="inline" fill-rule="nonzero" color="#000" fill-opacity="1"/></defs><g><path d="m 2.563 24.5 l -0.219 0.5 l 1.656 4 l 0 -1 l -1.438 -3.5 z m 42.875 0 l -1.438 3.5 l 0 1 l 1.656 -4 l -0.219 -0.5 z m -41.44 7.781 l 0 1 l 3.03 3.03 l 1.656 4 l 4 1.656 l 3.03 3.03 l 4.281 0 l 4 1.656 l 4 -1.656 l 4.281 0 l 3.03 -3.03 l 4 -1.656 l 1.656 -4 l 3.03 -3.03 l 0 -1 l -3.03 3.03 l -1.656 4 l -4 1.656 l -3.03 3.03 l -4.281 0 l -4 1.656 l -4 -1.656 l -4.281 0 l -3.03 -3.03 l -4 -1.656 l -1.656 -4 l -3.03 -3.03 z" opacity="0.3" visibility="visible" fill="#000" display="inline" fill-rule="nonzero" stroke="none" fill-opacity="1" color="#000"/></g><g><use fill="#474747" stroke="none" xlink:href="#SVGCleanerId_0"/><path d="m 24 2.344 l -4 1.656 l 8 0 l -4 -1.656 z m 4 1.656 l 7.313 3.03 l -3.03 -3.03 l -4.281 0 z m 7.313 3.03 l 5.656 5.656 l -1.656 -4 l -4 -1.656 z m 5.656 5.656 l 3.03 7.313 l 0 -4.281 l -3.03 -3.03 z m 3.03 7.313 l 0 8 l 1.656 -4 l -1.656 -4 z m 0 8 l -3.03 7.313 l 3.03 -3.03 l 0 -4.281 z m -3.03 7.313 l -5.656 5.656 l 4 -1.656 l 1.656 -4 z m -5.656 5.656 l -7.313 3.03 l 4.281 0 l 3.03 -3.03 z m -7.313 3.03 l -8 0 l 4 1.656 l 4 -1.656 z m -8 0 l -7.313 -3.03 l 3.03 3.03 l 4.281 0 z m -7.313 -3.03 l -5.656 -5.656 l 1.656 4 l 4 1.656 z m -5.656 -5.656 l -3.03 -7.313 l 0 4.281 l 3.03 3.03 z m -3.03 -7.313 l 0 -8 l -1.656 4 l 1.656 4 z m 0 -8 l 3.03 -7.313 l -3.03 3.03 l 0 4.281 z m 3.03 -7.313 l 5.656 -5.656 l -4 1.656 l -1.656 4 z m 5.656 -5.656 l 7.313 -3.03 l -4.281 0 l -3.03 3.03 z" opacity="0.05" visibility="visible" fill="#474747" display="inline" fill-rule="nonzero" stroke="none" fill-opacity="1" color="#000"/></g><g><use opacity="0.05" stroke-opacity="1" stroke-dasharray="none" fill="#000" stroke="#000" stroke-width="2" stroke-miterlimit="4" xlink:href="#SVGCleanerId_0"/><use opacity="0.1" stroke-opacity="1" stroke-dasharray="none" fill="#000" stroke="#000" stroke-width="1" stroke-miterlimit="4" xlink:href="#SVGCleanerId_0"/></g><g><g clip-path="url(#clipPath-529274542)"><g transform="translate(0,1)"><g opacity="0.1"><!-- color: #474747 --><g><path d="m 32.31 34.01 l -15.742 0 l 0 0.746 l 15.742 0 m 0 -0.746" fill="#000" stroke="none" fill-rule="nonzero" fill-opacity="1"/><path d="m 31 23 c 0 1.105 -0.895 2 -2 2 c -1.105 0 -2 -0.895 -2 -2 c 0 -1.105 0.895 -2 2 -2 c 1.105 0 2 0.895 2 2 m 0 0" fill="#000" stroke="none" fill-rule="nonzero" fill-opacity="1"/><path d="m 32.906 33 l -17.465 0 l 0 1.996 l 17.465 0 m 0 -1.996" fill="#000" stroke="none" fill-rule="nonzero" fill-opacity="1"/><path d="m 21 23 c 0 1.105 -0.895 2 -2 2 c -1.105 0 -2 -0.895 -2 -2 c 0 -1.105 0.895 -2 2 -2 c 1.105 0 2 0.895 2 2 m 0 0" fill="#000" stroke="none" fill-rule="nonzero" fill-opacity="1"/><path d="m 21 12 c 0 1.105 -0.895 2 -2 2 c -1.105 0 -2 -0.895 -2 -2 c 0 -1.102 0.895 -2 2 -2 c 1.105 0 2 0.898 2 2 m 0 0" fill="#000" stroke="none" fill-rule="nonzero" fill-opacity="1"/><path d="m 31 12 c 0 1.105 -0.895 2 -2 2 c -1.105 0 -2 -0.895 -2 -2 c 0 -1.102 0.895 -2 2 -2 c 1.105 0 2 0.898 2 2 m 0 0" fill="#000" stroke="none" fill-rule="nonzero" fill-opacity="1"/><path d="m 18 13.664 l 0 9.02 l 2 0 l 0 -9.02 m -2 0" fill="#000" stroke="none" fill-rule="nonzero" fill-opacity="1"/><path d="m 28 13.719 l 0 9.02 l 1.996 0 l 0 -9.02 m -1.996 0" fill="#000" stroke="none" fill-rule="nonzero" fill-opacity="1"/><path d="m 32.17 16 l -15.742 0 l 0 2 l 15.742 0 m 0 -2" fill="#000" stroke="none" fill-rule="nonzero" fill-opacity="1"/><path d="m 28.559 11 l -9.102 0 l 0 1.996 l 9.102 0 m 0 -1.996" fill="#000" stroke="none" fill-rule="nonzero" fill-opacity="1"/><path d="m 28.559 22 l -9.102 0 l 0 2 l 9.102 0 m 0 -2" fill="#000" stroke="none" fill-rule="nonzero" fill-opacity="1"/><path d="m 19.01 22.18 l -5.625 13.469 l 1.207 0.496 l 5.629 -13.469 m -1.211 -0.496" fill="#000" stroke="none" fill-rule="nonzero" fill-opacity="1"/><path d="m 29.04 22.18 l 5.629 13.469 l -1.207 0.496 l -5.629 -13.469 m 1.207 -0.496" fill="#000" stroke="none" fill-rule="nonzero" fill-opacity="1"/><path d="m 18 34 c -0.055 1.617 -1.383 2.898 -3 2.898 c -1.617 0 -2.941 -1.281 -3 -2.898 c -0.035 -1.094 0.527 -2.125 1.469 -2.684 c 0.945 -0.559 2.117 -0.559 3.063 0 c 0.941 0.559 1.508 1.59 1.469 2.684 m 0 0" fill="#000" stroke="none" fill-rule="nonzero" fill-opacity="1"/><path d="m 36 34 c -0.055 1.617 -1.383 2.898 -3 2.898 c -1.617 0 -2.941 -1.281 -3 -2.898 c -0.035 -1.094 0.527 -2.125 1.469 -2.684 c 0.945 -0.559 2.117 -0.559 3.063 0 c 0.941 0.559 1.508 1.59 1.469 2.684 m 0 0" fill="#000" stroke="none" fill-rule="nonzero" fill-opacity="1"/><path d="m 29.14 11.332 l 5.566 5.355 l -0.805 0.758 l -5.566 -5.355 m 0.805 -0.758" fill="#000" stroke="none" fill-rule="nonzero" fill-opacity="1"/><path d="m 36 17 c -0.055 1.617 -1.383 2.898 -3 2.898 c -1.617 0 -2.941 -1.281 -3 -2.898 c -0.035 -1.094 0.527 -2.125 1.469 -2.684 c 0.945 -0.559 2.117 -0.559 3.063 0 c 0.941 0.559 1.508 1.59 1.469 2.684 m 0 0" fill="#000" stroke="none" fill-rule="nonzero" fill-opacity="1"/><path d="m 31.996 17.715 l 0 15.598 l 2 0 l 0 -15.598 m -2 0" fill="#000" stroke="none" fill-rule="nonzero" fill-opacity="1"/><path d="m 19 11.543 l -6.578 5.492 l 0.949 0.781 l 6.578 -5.492 m -0.949 -0.781" fill="#000" stroke="none" fill-rule="nonzero" fill-opacity="1"/><path d="m 18 17 c -0.055 1.617 -1.383 2.898 -3 2.898 c -1.617 0 -2.941 -1.281 -3 -2.898 c -0.035 -1.094 0.527 -2.125 1.469 -2.684 c 0.945 -0.559 2.117 -0.559 3.063 0 c 0.941 0.559 1.508 1.59 1.469 2.684 m 0 0" fill="#000" stroke="none" fill-rule="nonzero" fill-opacity="1"/><path d="m 14 17.664 l 0 15.598 l 1.996 0 l 0 -15.598 m -1.996 0" fill="#000" stroke="none" fill-rule="nonzero" fill-opacity="1"/></g></g></g></g></g><g><g clip-path="url(#clipPath-541145431)"><!-- color: #474747 --><g><path d="m 32.31 34.01 l -15.742 0 l 0 0.746 l 15.742 0 m 0 -0.746" fill="#f9f9f9" stroke="none" fill-rule="nonzero" fill-opacity="1"/><path d="m 31 23 c 0 1.105 -0.895 2 -2 2 c -1.105 0 -2 -0.895 -2 -2 c 0 -1.105 0.895 -2 2 -2 c 1.105 0 2 0.895 2 2 m 0 0" fill="#dedede" stroke="none" fill-rule="nonzero" fill-opacity="1"/><path d="m 32.906 33 l -17.465 0 l 0 1.996 l 17.465 0 m 0 -1.996" fill="#f9f9f9" stroke="none" fill-rule="nonzero" fill-opacity="1"/><path d="m 21 23 c 0 1.105 -0.895 2 -2 2 c -1.105 0 -2 -0.895 -2 -2 c 0 -1.105 0.895 -2 2 -2 c 1.105 0 2 0.895 2 2 m 0 0" fill="#dedede" stroke="none" fill-rule="nonzero" fill-opacity="1"/><path d="m 21 12 c 0 1.105 -0.895 2 -2 2 c -1.105 0 -2 -0.895 -2 -2 c 0 -1.102 0.895 -2 2 -2 c 1.105 0 2 0.898 2 2 m 0 0" fill="#dedede" stroke="none" fill-rule="nonzero" fill-opacity="1"/><path d="m 31 12 c 0 1.105 -0.895 2 -2 2 c -1.105 0 -2 -0.895 -2 -2 c 0 -1.102 0.895 -2 2 -2 c 1.105 0 2 0.898 2 2 m 0 0" fill="#dedede" stroke="none" fill-rule="nonzero" fill-opacity="1"/><path d="m 18 13.664 l 0 9.02 l 2 0 l 0 -9.02 m -2 0" fill="#dedede" stroke="none" fill-rule="nonzero" fill-opacity="1"/><path d="m 28 13.719 l 0 9.02 l 1.996 0 l 0 -9.02 m -1.996 0" fill="#dedede" stroke="none" fill-rule="nonzero" fill-opacity="1"/><path d="m 32.17 16 l -15.742 0 l 0 2 l 15.742 0 m 0 -2" fill="#f9f9f9" stroke="none" fill-rule="nonzero" fill-opacity="1"/><path d="m 28.559 11 l -9.102 0 l 0 1.996 l 9.102 0 m 0 -1.996" fill="#dedede" stroke="none" fill-rule="nonzero" fill-opacity="1"/><path d="m 28.559 22 l -9.102 0 l 0 2 l 9.102 0 m 0 -2" fill="#dedede" stroke="none" fill-rule="nonzero" fill-opacity="1"/><path d="m 19.01 22.18 l -5.625 13.469 l 1.207 0.496 l 5.629 -13.469 m -1.211 -0.496" fill="#dedede" stroke="none" fill-rule="nonzero" fill-opacity="1"/><path d="m 29.04 22.18 l 5.629 13.469 l -1.207 0.496 l -5.629 -13.469 m 1.207 -0.496" fill="#dedede" stroke="none" fill-rule="nonzero" fill-opacity="1"/><path d="m 18 34 c -0.055 1.617 -1.383 2.898 -3 2.898 c -1.617 0 -2.941 -1.281 -3 -2.898 c -0.035 -1.094 0.527 -2.125 1.469 -2.684 c 0.945 -0.559 2.117 -0.559 3.063 0 c 0.941 0.559 1.508 1.59 1.469 2.684 m 0 0" fill="#f9f9f9" stroke="none" fill-rule="nonzero" fill-opacity="1"/><path d="m 36 34 c -0.055 1.617 -1.383 2.898 -3 2.898 c -1.617 0 -2.941 -1.281 -3 -2.898 c -0.035 -1.094 0.527 -2.125 1.469 -2.684 c 0.945 -0.559 2.117 -0.559 3.063 0 c 0.941 0.559 1.508 1.59 1.469 2.684 m 0 0" fill="#f9f9f9" stroke="none" fill-rule="nonzero" fill-opacity="1"/><path d="m 29.14 11.332 l 5.566 5.355 l -0.805 0.758 l -5.566 -5.355 m 0.805 -0.758" fill="#dedede" stroke="none" fill-rule="nonzero" fill-opacity="1"/><path d="m 36 17 c -0.055 1.617 -1.383 2.898 -3 2.898 c -1.617 0 -2.941 -1.281 -3 -2.898 c -0.035 -1.094 0.527 -2.125 1.469 -2.684 c 0.945 -0.559 2.117 -0.559 3.063 0 c 0.941 0.559 1.508 1.59 1.469 2.684 m 0 0" fill="#f9f9f9" stroke="none" fill-rule="nonzero" fill-opacity="1"/><path d="m 31.996 17.715 l 0 15.598 l 2 0 l 0 -15.598 m -2 0" fill="#f9f9f9" stroke="none" fill-rule="nonzero" fill-opacity="1"/><path d="m 19 11.543 l -6.578 5.492 l 0.949 0.781 l 6.578 -5.492 m -0.949 -0.781" fill="#dedede" stroke="none" fill-rule="nonzero" fill-opacity="1"/><path d="m 18 17 c -0.055 1.617 -1.383 2.898 -3 2.898 c -1.617 0 -2.941 -1.281 -3 -2.898 c -0.035 -1.094 0.527 -2.125 1.469 -2.684 c 0.945 -0.559 2.117 -0.559 3.063 0 c 0.941 0.559 1.508 1.59 1.469 2.684 m 0 0" fill="#f9f9f9" stroke="none" fill-rule="nonzero" fill-opacity="1"/><path d="m 14 17.664 l 0 15.598 l 1.996 0 l 0 -15.598 m -1.996 0" fill="#f9f9f9" stroke="none" fill-rule="nonzero" fill-opacity="1"/></g></g></g><g><path d="m 20 4 -7.313 3.03 -5.656 5.656 -3.03 7.313 0 8 3.03 7.313 5.656 5.656 7.313 3.03 8 0 7.313 -3.03 5.656 -5.656 3.03 -7.313 0 -8 -3.03 -7.313 -5.656 -5.656 -7.313 -3.03 -8 0 z" clip-path="url(#clipPath4313)" transform="matrix(0,1,-1,0,48,0)" opacity="0.3" stroke-opacity="1" stroke-dasharray="none" visibility="visible" fill="none" display="inline" stroke="url(#linearGradient4375)" color="#000" stroke-width="1" stroke-miterlimit="4"/><path d="m 24 2.344 -4 1.656 -4.281 0 -3.03 3.03 l -4 1.656 -1.656 4 l -3.03 3.03 0 4.281 -1.656 4 1.656 4 l 0 4.281 3.03 3.03 1.656 4 4 1.656 l 3.03 3.03 4.281 0 4 1.656 4 -1.656 l 4.281 0 3.03 -3.03 4 -1.656 1.656 -4 l 3.03 -3.03 0 -4.281 1.656 -4 -1.656 -4 l 0 -4.281 -3.03 -3.03 -1.656 -4 -4 -1.656 l -3.03 -3.03 -4.281 0 -4 -1.656 z" clip-path="url(#clipPath4329)" opacity="0.2" stroke-opacity="1" visibility="visible" fill="none" display="inline" stroke="#000" color="#000" stroke-width="2"/></g></svg>