<svg viewBox="0 0 48 48" xmlns:xlink="http://www.w3.org/1999/xlink"><defs><clipPath clipPathUnits="userSpaceOnUse" id="clipPath4313"><path d="m 20 4 -7.313 3.03 -5.656 5.656 -3.03 7.313 0 8 3.03 7.313 5.656 5.656 7.313 3.03 8 0 7.313 -3.03 5.656 -5.656 3.03 -7.313 0 -8 -3.03 -7.313 -5.656 -5.656 -7.313 -3.03 -8 0 z"/></clipPath><clipPath clipPathUnits="userSpaceOnUse" id="clipPath4329"><path d="m 24 2.344 -4 1.656 -4.281 0 -3.03 3.03 l -4 1.656 -1.656 4 l -3.03 3.03 0 4.281 -1.656 4 1.656 4 l 0 4.281 3.03 3.03 1.656 4 4 1.656 l 3.03 3.03 4.281 0 4 1.656 4 -1.656 l 4.281 0 3.03 -3.03 4 -1.656 1.656 -4 l 3.03 -3.03 0 -4.281 1.656 -4 -1.656 -4 l 0 -4.281 -3.03 -3.03 -1.656 -4 -4 -1.656 l -3.03 -3.03 -4.281 0 -4 -1.656 z"/></clipPath><clipPath id="clipPath-263547636"><path d="m 24 2.344 l -4 1.656 l -4.281 0 l -3.03 3.03 l -4 1.656 l -1.656 4 l -3.03 3.03 l 0 4.281 l -1.656 4 l 1.656 4 l 0 4.281 l 3.03 3.03 l 1.656 4 l 4 1.656 l 3.03 3.03 l 4.281 0 l 4 1.656 l 4 -1.656 l 4.281 0 l 3.03 -3.03 l 4 -1.656 l 1.656 -4 l 3.03 -3.03 l 0 -4.281 l 1.656 -4 l -1.656 -4 l 0 -4.281 l -3.03 -3.03 l -1.656 -4 l -4 -1.656 l -3.03 -3.03 l -4.281 0 l -4 -1.656 z"/></clipPath><clipPath id="clipPath-276417033"><path d="m 24 2.344 l -4 1.656 l -4.281 0 l -3.03 3.03 l -4 1.656 l -1.656 4 l -3.03 3.03 l 0 4.281 l -1.656 4 l 1.656 4 l 0 4.281 l 3.03 3.03 l 1.656 4 l 4 1.656 l 3.03 3.03 l 4.281 0 l 4 1.656 l 4 -1.656 l 4.281 0 l 3.03 -3.03 l 4 -1.656 l 1.656 -4 l 3.03 -3.03 l 0 -4.281 l 1.656 -4 l -1.656 -4 l 0 -4.281 l -3.03 -3.03 l -1.656 -4 l -4 -1.656 l -3.03 -3.03 l -4.281 0 l -4 -1.656 z"/></clipPath><linearGradient id="linearGradient4317"><stop stop-color="#fff" stop-opacity="1"/><stop offset="1" stop-color="#fff" stop-opacity="0"/></linearGradient><clipPath clipPathUnits="userSpaceOnUse" id="clipPath4313"><path d="m 20 4 -7.313 3.03 -5.656 5.656 -3.03 7.313 0 8 3.03 7.313 5.656 5.656 7.313 3.03 8 0 7.313 -3.03 5.656 -5.656 3.03 -7.313 0 -8 -3.03 -7.313 -5.656 -5.656 -7.313 -3.03 -8 0 z"/></clipPath><linearGradient x2="44" x1="4" gradientUnits="userSpaceOnUse" id="linearGradient4375" xlink:href="#linearGradient4317"/><clipPath clipPathUnits="userSpaceOnUse" id="clipPath4329"><path d="m 24 2.344 -4 1.656 -4.281 0 -3.03 3.03 l -4 1.656 -1.656 4 l -3.03 3.03 0 4.281 -1.656 4 1.656 4 l 0 4.281 3.03 3.03 1.656 4 4 1.656 l 3.03 3.03 4.281 0 4 1.656 4 -1.656 l 4.281 0 3.03 -3.03 4 -1.656 1.656 -4 l 3.03 -3.03 0 -4.281 1.656 -4 -1.656 -4 l 0 -4.281 -3.03 -3.03 -1.656 -4 -4 -1.656 l -3.03 -3.03 -4.281 0 -4 -1.656 z"/></clipPath><path id="SVGCleanerId_0" d="m 24 2.344 l -4 1.656 l -4.281 0 l -3.03 3.03 l -4 1.656 l -1.656 4 l -3.03 3.03 l 0 4.281 l -1.656 4 l 1.656 4 l 0 4.281 l 3.03 3.03 l 1.656 4 l 4 1.656 l 3.03 3.03 l 4.281 0 l 4 1.656 l 4 -1.656 l 4.281 0 l 3.03 -3.03 l 4 -1.656 l 1.656 -4 l 3.03 -3.03 l 0 -4.281 l 1.656 -4 l -1.656 -4 l 0 -4.281 l -3.03 -3.03 l -1.656 -4 l -4 -1.656 l -3.03 -3.03 l -4.281 0 l -4 -1.656 z" visibility="visible" display="inline" fill-rule="nonzero" color="#000" fill-opacity="1"/></defs><g><path d="m 2.563 24.5 l -0.219 0.5 l 1.656 4 l 0 -1 l -1.438 -3.5 z m 42.875 0 l -1.438 3.5 l 0 1 l 1.656 -4 l -0.219 -0.5 z m -41.44 7.781 l 0 1 l 3.03 3.03 l 1.656 4 l 4 1.656 l 3.03 3.03 l 4.281 0 l 4 1.656 l 4 -1.656 l 4.281 0 l 3.03 -3.03 l 4 -1.656 l 1.656 -4 l 3.03 -3.03 l 0 -1 l -3.03 3.03 l -1.656 4 l -4 1.656 l -3.03 3.03 l -4.281 0 l -4 1.656 l -4 -1.656 l -4.281 0 l -3.03 -3.03 l -4 -1.656 l -1.656 -4 l -3.03 -3.03 z" opacity="0.3" visibility="visible" fill="#000" display="inline" fill-rule="nonzero" stroke="none" fill-opacity="1" color="#000"/></g><g><use fill="#415f82" stroke="none" xlink:href="#SVGCleanerId_0"/><path d="m 24 2.344 l -4 1.656 l 8 0 l -4 -1.656 z m 4 1.656 l 7.313 3.03 l -3.03 -3.03 l -4.281 0 z m 7.313 3.03 l 5.656 5.656 l -1.656 -4 l -4 -1.656 z m 5.656 5.656 l 3.03 7.313 l 0 -4.281 l -3.03 -3.03 z m 3.03 7.313 l 0 8 l 1.656 -4 l -1.656 -4 z m 0 8 l -3.03 7.313 l 3.03 -3.03 l 0 -4.281 z m -3.03 7.313 l -5.656 5.656 l 4 -1.656 l 1.656 -4 z m -5.656 5.656 l -7.313 3.03 l 4.281 0 l 3.03 -3.03 z m -7.313 3.03 l -8 0 l 4 1.656 l 4 -1.656 z m -8 0 l -7.313 -3.03 l 3.03 3.03 l 4.281 0 z m -7.313 -3.03 l -5.656 -5.656 l 1.656 4 l 4 1.656 z m -5.656 -5.656 l -3.03 -7.313 l 0 4.281 l 3.03 3.03 z m -3.03 -7.313 l 0 -8 l -1.656 4 l 1.656 4 z m 0 -8 l 3.03 -7.313 l -3.03 3.03 l 0 4.281 z m 3.03 -7.313 l 5.656 -5.656 l -4 1.656 l -1.656 4 z m 5.656 -5.656 l 7.313 -3.03 l -4.281 0 l -3.03 3.03 z" opacity="0.05" visibility="visible" fill="#415f82" display="inline" fill-rule="nonzero" stroke="none" fill-opacity="1" color="#000"/></g><g><use opacity="0.05" stroke-opacity="1" stroke-dasharray="none" fill="#000" stroke="#000" stroke-width="2" stroke-miterlimit="4" xlink:href="#SVGCleanerId_0"/><use opacity="0.1" stroke-opacity="1" stroke-dasharray="none" fill="#000" stroke="#000" stroke-width="1" stroke-miterlimit="4" xlink:href="#SVGCleanerId_0"/></g><g><g clip-path="url(#clipPath-263547636)"><g transform="translate(0,1)"><g opacity="0.1"><!-- color: #415f82 --><g><path d="m 4.64 2.806 l 5.572 0 c 0.255 0.002 0.459 0.246 0.459 0.548 l 0 5.394 c 0 0.304 -0.206 0.546 -0.458 0.549 l -5.572 -0.002 c -0.255 -0.001 -0.458 -0.246 -0.459 -0.546 l 0.001 -5.398 c 0 -0.303 0.206 -0.546 0.457 -0.547 m 0 0" transform="matrix(3.525055,0.359186,-0.359186,3.525055,0,0)" stroke-opacity="1" fill="#000" fill-rule="nonzero" stroke="#269542" stroke-linejoin="miter" fill-opacity="1" stroke-linecap="butt" stroke-width="0.282" stroke-miterlimit="4"/><path d="m -8.769 -10.725 l 5.572 0 c 0.254 0 0.462 0.245 0.459 0.548 l 0.001 5.395 c 0.002 0.303 -0.204 0.549 -0.458 0.548 l -5.574 0 c -0.253 0.002 -0.46 -0.245 -0.457 -0.548 l -0.003 -5.396 c 0 -0.302 0.206 -0.545 0.46 -0.548 m 0 0" transform="matrix(-3.521637,0.391275,-0.391275,-3.521637,0,0)" stroke-opacity="1" fill="#000" fill-rule="nonzero" stroke="#cfc836" stroke-linejoin="miter" fill-opacity="1" stroke-linecap="butt" stroke-width="0.282" stroke-miterlimit="4"/><path d="m 13 13 l 22 0 l 0 22 l -22 0 m 0 -22" fill="#000" stroke="none" fill-rule="nonzero" fill-opacity="1"/><path d="m 27 18 l -5 10 l -5 -5 l -4 6 l -0.5 1 l 0 3.563 c 0 1.074 0.723 1.938 1.625 1.938 l 19.75 0 c 0.902 0 1.625 -0.863 1.625 -1.938 l 0 -10.344 l -0.5 -1.219 l -3 3 m -5 -7" fill="#000" stroke="none" fill-rule="nonzero" fill-opacity="1"/><path d="m 3.987 3.528 l 5.572 0 c 0.254 0 0.46 0.246 0.46 0.548 l 0 5.395 c 0 0.303 -0.206 0.548 -0.46 0.548 l -5.572 0 c -0.256 0 -0.462 -0.245 -0.462 -0.548 l 0 -5.395 c 0 -0.302 0.206 -0.548 0.462 -0.548 m 0 0" transform="matrix(3.543307,0,0,3.543307,0,0)" stroke-opacity="1" fill="#000" stroke="#f9f9f9" stroke-linejoin="miter" stroke-linecap="butt" stroke-width="0.282" stroke-miterlimit="4"/><path d="m 17 23 l 3 3 c -1 1 -2 2 -3 1 c 1.047 -1.223 1 -2 0 -4 m 0 0" fill="#000" stroke="none" fill-rule="nonzero" fill-opacity="1"/><path d="m 27 18 l 3 4 c 0 1 -1 2 -2 2 c -1 0 -1 -1 0 -2 c -0.332 0 -0.668 0 -1 0 c 0 -1 0.668 -0.668 1 -1 c -0.547 0 -1 -0.539 -1 -1 m 0 -2" fill="#000" stroke="none" fill-rule="nonzero" fill-opacity="1"/><path d="m 13 13 l 0 3 c 1.25 0.164 2 -1 2 -2 c 1 0 1.484 0 1.406 -1 m -3.406 0" fill="#000" stroke="none" fill-rule="nonzero" fill-opacity="0.451"/><path d="m 30 13 c -1 0 -1 1 0 1 c -2 1 0 4 2 2 c 1 2 3 1 3 0 l 0 -3 m -5 0" fill="#000" stroke="none" fill-rule="nonzero" fill-opacity="0.451"/></g></g></g></g></g><g><g clip-path="url(#clipPath-276417033)"><!-- color: #415f82 --><g><path d="m 4.64 2.806 l 5.572 0 c 0.255 0.002 0.459 0.246 0.459 0.548 l 0 5.394 c 0 0.304 -0.206 0.546 -0.458 0.549 l -5.572 -0.002 c -0.255 -0.001 -0.458 -0.246 -0.459 -0.546 l 0.001 -5.398 c 0 -0.303 0.206 -0.546 0.457 -0.547 m 0 0" transform="matrix(3.525055,0.359186,-0.359186,3.525055,0,0)" stroke-opacity="1" fill="#269542" fill-rule="nonzero" stroke="#269542" stroke-linejoin="miter" fill-opacity="1" stroke-linecap="butt" stroke-width="0.282" stroke-miterlimit="4"/><path d="m -8.769 -10.725 l 5.572 0 c 0.254 0 0.462 0.245 0.459 0.548 l 0.001 5.395 c 0.002 0.303 -0.204 0.549 -0.458 0.548 l -5.574 0 c -0.253 0.002 -0.46 -0.245 -0.457 -0.548 l -0.003 -5.396 c 0 -0.302 0.206 -0.545 0.46 -0.548 m 0 0" transform="matrix(-3.521637,0.391275,-0.391275,-3.521637,0,0)" stroke-opacity="1" fill="#cfc836" fill-rule="nonzero" stroke="#cfc836" stroke-linejoin="miter" fill-opacity="1" stroke-linecap="butt" stroke-width="0.282" stroke-miterlimit="4"/><path d="m 13 13 l 22 0 l 0 22 l -22 0 m 0 -22" fill="#3dcdf4" stroke="none" fill-rule="nonzero" fill-opacity="1"/><path d="m 27 18 l -5 10 l -5 -5 l -4 6 l -0.5 1 l 0 3.563 c 0 1.074 0.723 1.938 1.625 1.938 l 19.75 0 c 0.902 0 1.625 -0.863 1.625 -1.938 l 0 -10.344 l -0.5 -1.219 l -3 3 m -5 -7" fill="#193662" stroke="none" fill-rule="nonzero" fill-opacity="1"/><path d="m 3.987 3.528 l 5.572 0 c 0.254 0 0.46 0.246 0.46 0.548 l 0 5.395 c 0 0.303 -0.206 0.548 -0.46 0.548 l -5.572 0 c -0.256 0 -0.462 -0.245 -0.462 -0.548 l 0 -5.395 c 0 -0.302 0.206 -0.548 0.462 -0.548 m 0 0" transform="matrix(3.543307,0,0,3.543307,0,0)" stroke-opacity="1" fill="none" stroke="#f9f9f9" stroke-linejoin="miter" stroke-linecap="butt" stroke-width="0.282" stroke-miterlimit="4"/><path d="m 17 23 l 3 3 c -1 1 -2 2 -3 1 c 1.047 -1.223 1 -2 0 -4 m 0 0" fill="#fff" stroke="none" fill-rule="nonzero" fill-opacity="1"/><path d="m 27 18 l 3 4 c 0 1 -1 2 -2 2 c -1 0 -1 -1 0 -2 c -0.332 0 -0.668 0 -1 0 c 0 -1 0.668 -0.668 1 -1 c -0.547 0 -1 -0.539 -1 -1 m 0 -2" fill="#fff" stroke="none" fill-rule="nonzero" fill-opacity="1"/><path d="m 13 13 l 0 3 c 1.25 0.164 2 -1 2 -2 c 1 0 1.484 0 1.406 -1 m -3.406 0" fill="#fff" stroke="none" fill-rule="nonzero" fill-opacity="0.451"/><path d="m 30 13 c -1 0 -1 1 0 1 c -2 1 0 4 2 2 c 1 2 3 1 3 0 l 0 -3 m -5 0" fill="#fff" stroke="none" fill-rule="nonzero" fill-opacity="0.451"/></g></g></g><g><path d="m 20 4 -7.313 3.03 -5.656 5.656 -3.03 7.313 0 8 3.03 7.313 5.656 5.656 7.313 3.03 8 0 7.313 -3.03 5.656 -5.656 3.03 -7.313 0 -8 -3.03 -7.313 -5.656 -5.656 -7.313 -3.03 -8 0 z" clip-path="url(#clipPath4313)" transform="matrix(0,1,-1,0,48,0)" opacity="0.3" stroke-opacity="1" stroke-dasharray="none" visibility="visible" fill="none" display="inline" stroke="url(#linearGradient4375)" color="#000" stroke-width="1" stroke-miterlimit="4"/><path d="m 24 2.344 -4 1.656 -4.281 0 -3.03 3.03 l -4 1.656 -1.656 4 l -3.03 3.03 0 4.281 -1.656 4 1.656 4 l 0 4.281 3.03 3.03 1.656 4 4 1.656 l 3.03 3.03 4.281 0 4 1.656 4 -1.656 l 4.281 0 3.03 -3.03 4 -1.656 1.656 -4 l 3.03 -3.03 0 -4.281 1.656 -4 -1.656 -4 l 0 -4.281 -3.03 -3.03 -1.656 -4 -4 -1.656 l -3.03 -3.03 -4.281 0 -4 -1.656 z" clip-path="url(#clipPath4329)" opacity="0.2" stroke-opacity="1" visibility="visible" fill="none" display="inline" stroke="#000" color="#000" stroke-width="2"/></g></svg>