<svg viewBox="0 0 48 48" xmlns:xlink="http://www.w3.org/1999/xlink"><defs><clipPath clipPathUnits="userSpaceOnUse" id="clipPath4313"><path d="m 20 4 -7.313 3.03 -5.656 5.656 -3.03 7.313 0 8 3.03 7.313 5.656 5.656 7.313 3.03 8 0 7.313 -3.03 5.656 -5.656 3.03 -7.313 0 -8 -3.03 -7.313 -5.656 -5.656 -7.313 -3.03 -8 0 z"/></clipPath><clipPath clipPathUnits="userSpaceOnUse" id="clipPath4329"><path d="m 24 2.344 -4 1.656 -4.281 0 -3.03 3.03 l -4 1.656 -1.656 4 l -3.03 3.03 0 4.281 -1.656 4 1.656 4 l 0 4.281 3.03 3.03 1.656 4 4 1.656 l 3.03 3.03 4.281 0 4 1.656 4 -1.656 l 4.281 0 3.03 -3.03 4 -1.656 1.656 -4 l 3.03 -3.03 0 -4.281 1.656 -4 -1.656 -4 l 0 -4.281 -3.03 -3.03 -1.656 -4 -4 -1.656 l -3.03 -3.03 -4.281 0 -4 -1.656 z"/></clipPath><clipPath id="clipPath-635377315"><path d="m 24 2.344 l -4 1.656 l -4.281 0 l -3.03 3.03 l -4 1.656 l -1.656 4 l -3.03 3.03 l 0 4.281 l -1.656 4 l 1.656 4 l 0 4.281 l 3.03 3.03 l 1.656 4 l 4 1.656 l 3.03 3.03 l 4.281 0 l 4 1.656 l 4 -1.656 l 4.281 0 l 3.03 -3.03 l 4 -1.656 l 1.656 -4 l 3.03 -3.03 l 0 -4.281 l 1.656 -4 l -1.656 -4 l 0 -4.281 l -3.03 -3.03 l -1.656 -4 l -4 -1.656 l -3.03 -3.03 l -4.281 0 l -4 -1.656 z"/></clipPath><clipPath id="clipPath-643661012"><path d="m 24 2.344 l -4 1.656 l -4.281 0 l -3.03 3.03 l -4 1.656 l -1.656 4 l -3.03 3.03 l 0 4.281 l -1.656 4 l 1.656 4 l 0 4.281 l 3.03 3.03 l 1.656 4 l 4 1.656 l 3.03 3.03 l 4.281 0 l 4 1.656 l 4 -1.656 l 4.281 0 l 3.03 -3.03 l 4 -1.656 l 1.656 -4 l 3.03 -3.03 l 0 -4.281 l 1.656 -4 l -1.656 -4 l 0 -4.281 l -3.03 -3.03 l -1.656 -4 l -4 -1.656 l -3.03 -3.03 l -4.281 0 l -4 -1.656 z"/></clipPath><linearGradient id="linearGradient4317"><stop stop-color="#fff" stop-opacity="1"/><stop offset="1" stop-color="#fff" stop-opacity="0"/></linearGradient><clipPath clipPathUnits="userSpaceOnUse" id="clipPath4313"><path d="m 20 4 -7.313 3.03 -5.656 5.656 -3.03 7.313 0 8 3.03 7.313 5.656 5.656 7.313 3.03 8 0 7.313 -3.03 5.656 -5.656 3.03 -7.313 0 -8 -3.03 -7.313 -5.656 -5.656 -7.313 -3.03 -8 0 z"/></clipPath><linearGradient x2="44" x1="4" gradientUnits="userSpaceOnUse" id="linearGradient4375" xlink:href="#linearGradient4317"/><clipPath clipPathUnits="userSpaceOnUse" id="clipPath4329"><path d="m 24 2.344 -4 1.656 -4.281 0 -3.03 3.03 l -4 1.656 -1.656 4 l -3.03 3.03 0 4.281 -1.656 4 1.656 4 l 0 4.281 3.03 3.03 1.656 4 4 1.656 l 3.03 3.03 4.281 0 4 1.656 4 -1.656 l 4.281 0 3.03 -3.03 4 -1.656 1.656 -4 l 3.03 -3.03 0 -4.281 1.656 -4 -1.656 -4 l 0 -4.281 -3.03 -3.03 -1.656 -4 -4 -1.656 l -3.03 -3.03 -4.281 0 -4 -1.656 z"/></clipPath><path id="SVGCleanerId_0" d="m 24 2.344 l -4 1.656 l -4.281 0 l -3.03 3.03 l -4 1.656 l -1.656 4 l -3.03 3.03 l 0 4.281 l -1.656 4 l 1.656 4 l 0 4.281 l 3.03 3.03 l 1.656 4 l 4 1.656 l 3.03 3.03 l 4.281 0 l 4 1.656 l 4 -1.656 l 4.281 0 l 3.03 -3.03 l 4 -1.656 l 1.656 -4 l 3.03 -3.03 l 0 -4.281 l 1.656 -4 l -1.656 -4 l 0 -4.281 l -3.03 -3.03 l -1.656 -4 l -4 -1.656 l -3.03 -3.03 l -4.281 0 l -4 -1.656 z" visibility="visible" display="inline" fill-rule="nonzero" color="#000" fill-opacity="1"/></defs><g><path d="m 2.563 24.5 l -0.219 0.5 l 1.656 4 l 0 -1 l -1.438 -3.5 z m 42.875 0 l -1.438 3.5 l 0 1 l 1.656 -4 l -0.219 -0.5 z m -41.44 7.781 l 0 1 l 3.03 3.03 l 1.656 4 l 4 1.656 l 3.03 3.03 l 4.281 0 l 4 1.656 l 4 -1.656 l 4.281 0 l 3.03 -3.03 l 4 -1.656 l 1.656 -4 l 3.03 -3.03 l 0 -1 l -3.03 3.03 l -1.656 4 l -4 1.656 l -3.03 3.03 l -4.281 0 l -4 1.656 l -4 -1.656 l -4.281 0 l -3.03 -3.03 l -4 -1.656 l -1.656 -4 l -3.03 -3.03 z" opacity="0.3" visibility="visible" fill="#000" display="inline" fill-rule="nonzero" stroke="none" fill-opacity="1" color="#000"/></g><g><use fill="#f8bd5a" stroke="none" xlink:href="#SVGCleanerId_0"/><path d="m 24 2.344 l -4 1.656 l 8 0 l -4 -1.656 z m 4 1.656 l 7.313 3.03 l -3.03 -3.03 l -4.281 0 z m 7.313 3.03 l 5.656 5.656 l -1.656 -4 l -4 -1.656 z m 5.656 5.656 l 3.03 7.313 l 0 -4.281 l -3.03 -3.03 z m 3.03 7.313 l 0 8 l 1.656 -4 l -1.656 -4 z m 0 8 l -3.03 7.313 l 3.03 -3.03 l 0 -4.281 z m -3.03 7.313 l -5.656 5.656 l 4 -1.656 l 1.656 -4 z m -5.656 5.656 l -7.313 3.03 l 4.281 0 l 3.03 -3.03 z m -7.313 3.03 l -8 0 l 4 1.656 l 4 -1.656 z m -8 0 l -7.313 -3.03 l 3.03 3.03 l 4.281 0 z m -7.313 -3.03 l -5.656 -5.656 l 1.656 4 l 4 1.656 z m -5.656 -5.656 l -3.03 -7.313 l 0 4.281 l 3.03 3.03 z m -3.03 -7.313 l 0 -8 l -1.656 4 l 1.656 4 z m 0 -8 l 3.03 -7.313 l -3.03 3.03 l 0 4.281 z m 3.03 -7.313 l 5.656 -5.656 l -4 1.656 l -1.656 4 z m 5.656 -5.656 l 7.313 -3.03 l -4.281 0 l -3.03 3.03 z" opacity="0.05" visibility="visible" fill="#f8bd5a" display="inline" fill-rule="nonzero" stroke="none" fill-opacity="1" color="#000"/></g><g><use opacity="0.05" stroke-opacity="1" stroke-dasharray="none" fill="#000" stroke="#000" stroke-width="2" stroke-miterlimit="4" xlink:href="#SVGCleanerId_0"/><use opacity="0.1" stroke-opacity="1" stroke-dasharray="none" fill="#000" stroke="#000" stroke-width="1" stroke-miterlimit="4" xlink:href="#SVGCleanerId_0"/></g><g><g clip-path="url(#clipPath-635377315)"><g transform="translate(0,1)"><g opacity="0.1"><!-- color: #f8bd5a --><g><path d="m 23.672 9 c -7.582 0 -13.84 6.141 -14.613 14.07 c -0.004 0.02 0 0.047 0 0.07 c 0 0.008 0 0.016 0 0.023 c -0.004 0.027 0 0.047 0 0.074 c -0.086 1.141 -0.066 2.078 0 3.141 c 2.961 12.898 11.824 11.895 11.824 8.141 l -4.01 -6.922 c -0.863 -0.586 -1.762 0.418 -2.594 0.961 c -1.063 0.707 -1.145 0.813 -1.762 -0.797 c -0.719 -1.898 -1.086 -4.98 0 -7.508 c 2.246 -5.25 6.457 -8.176 11.152 -8.262 c 0.234 0 0.465 0 0.699 0 c 4.672 0.102 8.867 3.03 11.11 8.262 c 1.082 2.527 0.719 5.605 0 7.508 c -0.609 1.609 -0.699 1.504 -1.766 0.797 c -0.824 -0.547 -1.723 -1.547 -2.594 -0.961 l -4.01 6.922 c 0 3.75 8.867 4.758 11.828 -8.141 c 0.063 -1.063 0.086 -2 0 -3.141 c -0.004 -0.027 0.004 -0.047 0 -0.074 c 0 -0.004 0 -0.012 0 -0.023 c -0.004 -0.02 0.004 -0.047 0 -0.07 c -0.777 -7.938 -6.992 -14.07 -14.574 -14.07 c -0.699 0 0 0 -0.699 0 m 0.004 0" fill="#000" stroke="none" fill-rule="nonzero" fill-opacity="1"/><path d="m 34.2 24.18 c -1.168 0.293 -2.145 1.359 -2.145 1.359 l 0.031 0.035 l 1.863 6.934 c -1.332 -0.727 -3.238 -0.543 -4.816 0.598 c -2.035 1.473 -2.746 3.984 -1.566 5.602 c 1.18 1.617 3.785 1.73 5.82 0.258 c 1.605 -1.16 2.504 -2.992 2.18 -4.496 c -0.012 -0.047 -0.023 -0.09 -0.039 -0.137 l -1.789 -6.93 c 0.043 -0.059 0.563 -0.301 2.254 -0.414 c 1.793 -0.121 3 -2.988 3 -2.988 c 0 0 -2.01 0.77 -3.594 0.211 c -0.398 -0.141 -0.813 -0.133 -1.203 -0.035 m 0.004 0.004" fill="#000" stroke="none" fill-rule="nonzero" fill-opacity="1"/></g></g></g></g></g><g><g clip-path="url(#clipPath-643661012)"><!-- color: #f8bd5a --><g><path d="m 23.672 9 c -7.582 0 -13.84 6.141 -14.613 14.07 c -0.004 0.02 0 0.047 0 0.07 c 0 0.008 0 0.016 0 0.023 c -0.004 0.027 0 0.047 0 0.074 c -0.086 1.141 -0.066 2.078 0 3.141 c 2.961 12.898 11.824 11.895 11.824 8.141 l -4.01 -6.922 c -0.863 -0.586 -1.762 0.418 -2.594 0.961 c -1.063 0.707 -1.145 0.813 -1.762 -0.797 c -0.719 -1.898 -1.086 -4.98 0 -7.508 c 2.246 -5.25 6.457 -8.176 11.152 -8.262 c 0.234 0 0.465 0 0.699 0 c 4.672 0.102 8.867 3.03 11.11 8.262 c 1.082 2.527 0.719 5.605 0 7.508 c -0.609 1.609 -0.699 1.504 -1.766 0.797 c -0.824 -0.547 -1.723 -1.547 -2.594 -0.961 l -4.01 6.922 c 0 3.75 8.867 4.758 11.828 -8.141 c 0.063 -1.063 0.086 -2 0 -3.141 c -0.004 -0.027 0.004 -0.047 0 -0.074 c 0 -0.004 0 -0.012 0 -0.023 c -0.004 -0.02 0.004 -0.047 0 -0.07 c -0.777 -7.938 -6.992 -14.07 -14.574 -14.07 c -0.699 0 0 0 -0.699 0 m 0.004 0" fill="#eaeaea" stroke="none" fill-rule="nonzero" fill-opacity="1"/><path d="m 34.2 24.18 c -1.168 0.293 -2.145 1.359 -2.145 1.359 l 0.031 0.035 l 1.863 6.934 c -1.332 -0.727 -3.238 -0.543 -4.816 0.598 c -2.035 1.473 -2.746 3.984 -1.566 5.602 c 1.18 1.617 3.785 1.73 5.82 0.258 c 1.605 -1.16 2.504 -2.992 2.18 -4.496 c -0.012 -0.047 -0.023 -0.09 -0.039 -0.137 l -1.789 -6.93 c 0.043 -0.059 0.563 -0.301 2.254 -0.414 c 1.793 -0.121 3 -2.988 3 -2.988 c 0 0 -2.01 0.77 -3.594 0.211 c -0.398 -0.141 -0.813 -0.133 -1.203 -0.035 m 0.004 0.004" fill="#ff4545" stroke="none" fill-rule="nonzero" fill-opacity="1"/></g></g></g><g><path d="m 20 4 -7.313 3.03 -5.656 5.656 -3.03 7.313 0 8 3.03 7.313 5.656 5.656 7.313 3.03 8 0 7.313 -3.03 5.656 -5.656 3.03 -7.313 0 -8 -3.03 -7.313 -5.656 -5.656 -7.313 -3.03 -8 0 z" clip-path="url(#clipPath4313)" transform="matrix(0,1,-1,0,48,0)" opacity="0.3" stroke-opacity="1" stroke-dasharray="none" visibility="visible" fill="none" display="inline" stroke="url(#linearGradient4375)" color="#000" stroke-width="1" stroke-miterlimit="4"/><path d="m 24 2.344 -4 1.656 -4.281 0 -3.03 3.03 l -4 1.656 -1.656 4 l -3.03 3.03 0 4.281 -1.656 4 1.656 4 l 0 4.281 3.03 3.03 1.656 4 4 1.656 l 3.03 3.03 4.281 0 4 1.656 4 -1.656 l 4.281 0 3.03 -3.03 4 -1.656 1.656 -4 l 3.03 -3.03 0 -4.281 1.656 -4 -1.656 -4 l 0 -4.281 -3.03 -3.03 -1.656 -4 -4 -1.656 l -3.03 -3.03 -4.281 0 -4 -1.656 z" clip-path="url(#clipPath4329)" opacity="0.2" stroke-opacity="1" visibility="visible" fill="none" display="inline" stroke="#000" color="#000" stroke-width="2"/></g></svg>