<svg viewBox="0 0 48 48" xmlns:xlink="http://www.w3.org/1999/xlink"><defs><clipPath clipPathUnits="userSpaceOnUse" id="clipPath4313"><path d="m 20 4 -7.313 3.03 -5.656 5.656 -3.03 7.313 0 8 3.03 7.313 5.656 5.656 7.313 3.03 8 0 7.313 -3.03 5.656 -5.656 3.03 -7.313 0 -8 -3.03 -7.313 -5.656 -5.656 -7.313 -3.03 -8 0 z"/></clipPath><clipPath clipPathUnits="userSpaceOnUse" id="clipPath4329"><path d="m 24 2.344 -4 1.656 -4.281 0 -3.03 3.03 l -4 1.656 -1.656 4 l -3.03 3.03 0 4.281 -1.656 4 1.656 4 l 0 4.281 3.03 3.03 1.656 4 4 1.656 l 3.03 3.03 4.281 0 4 1.656 4 -1.656 l 4.281 0 3.03 -3.03 4 -1.656 1.656 -4 l 3.03 -3.03 0 -4.281 1.656 -4 -1.656 -4 l 0 -4.281 -3.03 -3.03 -1.656 -4 -4 -1.656 l -3.03 -3.03 -4.281 0 -4 -1.656 z"/></clipPath><clipPath id="clipPath-644483304"><path d="m 24 2.344 l -4 1.656 l -4.281 0 l -3.03 3.03 l -4 1.656 l -1.656 4 l -3.03 3.03 l 0 4.281 l -1.656 4 l 1.656 4 l 0 4.281 l 3.03 3.03 l 1.656 4 l 4 1.656 l 3.03 3.03 l 4.281 0 l 4 1.656 l 4 -1.656 l 4.281 0 l 3.03 -3.03 l 4 -1.656 l 1.656 -4 l 3.03 -3.03 l 0 -4.281 l 1.656 -4 l -1.656 -4 l 0 -4.281 l -3.03 -3.03 l -1.656 -4 l -4 -1.656 l -3.03 -3.03 l -4.281 0 l -4 -1.656 z"/></clipPath><clipPath id="clipPath-657118834"><path d="m 24 2.344 l -4 1.656 l -4.281 0 l -3.03 3.03 l -4 1.656 l -1.656 4 l -3.03 3.03 l 0 4.281 l -1.656 4 l 1.656 4 l 0 4.281 l 3.03 3.03 l 1.656 4 l 4 1.656 l 3.03 3.03 l 4.281 0 l 4 1.656 l 4 -1.656 l 4.281 0 l 3.03 -3.03 l 4 -1.656 l 1.656 -4 l 3.03 -3.03 l 0 -4.281 l 1.656 -4 l -1.656 -4 l 0 -4.281 l -3.03 -3.03 l -1.656 -4 l -4 -1.656 l -3.03 -3.03 l -4.281 0 l -4 -1.656 z"/></clipPath><linearGradient id="linearGradient4317"><stop stop-color="#fff" stop-opacity="1"/><stop offset="1" stop-color="#fff" stop-opacity="0"/></linearGradient><clipPath clipPathUnits="userSpaceOnUse" id="clipPath4313"><path d="m 20 4 -7.313 3.03 -5.656 5.656 -3.03 7.313 0 8 3.03 7.313 5.656 5.656 7.313 3.03 8 0 7.313 -3.03 5.656 -5.656 3.03 -7.313 0 -8 -3.03 -7.313 -5.656 -5.656 -7.313 -3.03 -8 0 z"/></clipPath><linearGradient x2="44" x1="4" gradientUnits="userSpaceOnUse" id="linearGradient4375" xlink:href="#linearGradient4317"/><clipPath clipPathUnits="userSpaceOnUse" id="clipPath4329"><path d="m 24 2.344 -4 1.656 -4.281 0 -3.03 3.03 l -4 1.656 -1.656 4 l -3.03 3.03 0 4.281 -1.656 4 1.656 4 l 0 4.281 3.03 3.03 1.656 4 4 1.656 l 3.03 3.03 4.281 0 4 1.656 4 -1.656 l 4.281 0 3.03 -3.03 4 -1.656 1.656 -4 l 3.03 -3.03 0 -4.281 1.656 -4 -1.656 -4 l 0 -4.281 -3.03 -3.03 -1.656 -4 -4 -1.656 l -3.03 -3.03 -4.281 0 -4 -1.656 z"/></clipPath><path id="SVGCleanerId_0" d="m 24 2.344 l -4 1.656 l -4.281 0 l -3.03 3.03 l -4 1.656 l -1.656 4 l -3.03 3.03 l 0 4.281 l -1.656 4 l 1.656 4 l 0 4.281 l 3.03 3.03 l 1.656 4 l 4 1.656 l 3.03 3.03 l 4.281 0 l 4 1.656 l 4 -1.656 l 4.281 0 l 3.03 -3.03 l 4 -1.656 l 1.656 -4 l 3.03 -3.03 l 0 -4.281 l 1.656 -4 l -1.656 -4 l 0 -4.281 l -3.03 -3.03 l -1.656 -4 l -4 -1.656 l -3.03 -3.03 l -4.281 0 l -4 -1.656 z" visibility="visible" display="inline" fill-rule="nonzero" color="#000" fill-opacity="1"/></defs><g><path d="m 2.563 24.5 l -0.219 0.5 l 1.656 4 l 0 -1 l -1.438 -3.5 z m 42.875 0 l -1.438 3.5 l 0 1 l 1.656 -4 l -0.219 -0.5 z m -41.44 7.781 l 0 1 l 3.03 3.03 l 1.656 4 l 4 1.656 l 3.03 3.03 l 4.281 0 l 4 1.656 l 4 -1.656 l 4.281 0 l 3.03 -3.03 l 4 -1.656 l 1.656 -4 l 3.03 -3.03 l 0 -1 l -3.03 3.03 l -1.656 4 l -4 1.656 l -3.03 3.03 l -4.281 0 l -4 1.656 l -4 -1.656 l -4.281 0 l -3.03 -3.03 l -4 -1.656 l -1.656 -4 l -3.03 -3.03 z" opacity="0.3" visibility="visible" fill="#000" display="inline" fill-rule="nonzero" stroke="none" fill-opacity="1" color="#000"/></g><g><use fill="#eee" stroke="none" xlink:href="#SVGCleanerId_0"/><path d="m 24 2.344 l -4 1.656 l 8 0 l -4 -1.656 z m 4 1.656 l 7.313 3.03 l -3.03 -3.03 l -4.281 0 z m 7.313 3.03 l 5.656 5.656 l -1.656 -4 l -4 -1.656 z m 5.656 5.656 l 3.03 7.313 l 0 -4.281 l -3.03 -3.03 z m 3.03 7.313 l 0 8 l 1.656 -4 l -1.656 -4 z m 0 8 l -3.03 7.313 l 3.03 -3.03 l 0 -4.281 z m -3.03 7.313 l -5.656 5.656 l 4 -1.656 l 1.656 -4 z m -5.656 5.656 l -7.313 3.03 l 4.281 0 l 3.03 -3.03 z m -7.313 3.03 l -8 0 l 4 1.656 l 4 -1.656 z m -8 0 l -7.313 -3.03 l 3.03 3.03 l 4.281 0 z m -7.313 -3.03 l -5.656 -5.656 l 1.656 4 l 4 1.656 z m -5.656 -5.656 l -3.03 -7.313 l 0 4.281 l 3.03 3.03 z m -3.03 -7.313 l 0 -8 l -1.656 4 l 1.656 4 z m 0 -8 l 3.03 -7.313 l -3.03 3.03 l 0 4.281 z m 3.03 -7.313 l 5.656 -5.656 l -4 1.656 l -1.656 4 z m 5.656 -5.656 l 7.313 -3.03 l -4.281 0 l -3.03 3.03 z" opacity="0.05" visibility="visible" fill="#eee" display="inline" fill-rule="nonzero" stroke="none" fill-opacity="1" color="#000"/></g><g><use opacity="0.05" stroke-opacity="1" stroke-dasharray="none" fill="#000" stroke="#000" stroke-width="2" stroke-miterlimit="4" xlink:href="#SVGCleanerId_0"/><use opacity="0.1" stroke-opacity="1" stroke-dasharray="none" fill="#000" stroke="#000" stroke-width="1" stroke-miterlimit="4" xlink:href="#SVGCleanerId_0"/></g><g><g clip-path="url(#clipPath-644483304)"><g transform="translate(0,1)"><g opacity="0.1"><!-- color: #eeeeee --><g><path d="M 0 0 L 0 17 L 48 17 L 48 0 M 0 0 " fill="#000" stroke="none" fill-rule="evenodd" fill-opacity="1"/><path d="m 31 12 c 0 1.105 -0.891 2 -1.996 2 c -1.109 0 -2 -0.895 -2 -2 c 0 -1.102 0.891 -1.996 2 -1.996 c 1.105 0 1.996 0.898 1.996 1.996 m 0 0" fill="#000" stroke="none" fill-rule="nonzero" fill-opacity="1"/><path d="m 36 12 c 0 1.105 -0.895 2 -2 2 c -1.105 0 -1.996 -0.895 -1.996 -2 c 0 -1.102 0.891 -1.996 1.996 -1.996 c 1.105 0 2 0.898 2 1.996 m 0 0" fill="#000" stroke="none" fill-rule="nonzero" fill-opacity="1"/><path d="m 34 13 c 1 0 1 -1 1 -1 c 0 0 0 -0.996 -1 -0.996 l -4.996 0 c -1 0 -1 0.996 -1 0.996 c 0 0 0 1 1 1 m 4.996 0" fill="#000" stroke="none" fill-rule="nonzero" fill-opacity="1"/><path d="m 16 12 c 0 1.105 -0.891 2 -1.996 2 c -1.105 0 -2 -0.895 -2 -2 c 0 -1.102 0.895 -1.996 2 -1.996 c 1.105 0 1.996 0.898 1.996 1.996 m 0 0" fill="#000" stroke="none" fill-rule="nonzero" fill-opacity="1"/><path d="m 21 12 c 0 1.105 -0.891 2 -1.996 2 c -1.105 0 -2 -0.895 -2 -2 c 0 -1.102 0.895 -1.996 2 -1.996 c 1.105 0 1.996 0.898 1.996 1.996 m 0 0" fill="#000" stroke="none" fill-rule="nonzero" fill-opacity="1"/><path d="m 14 13 c -1 0 -1 -1 -1 -1 c 0 0 0 -0.996 1 -0.996 l 5 0 c 1 0 1 0.996 1 0.996 c 0 0 0 1 -1 1 m -5 0" fill="#000" stroke="none" fill-rule="nonzero" fill-opacity="1"/><path d="m 19.16 34.816 l -1.59 0 l 0 -9.707 c 0 -0.809 0.031 -1.57 0.078 -2.293 c -0.137 0.129 -0.289 0.27 -0.461 0.41 c -0.164 0.145 -0.945 0.75 -2.324 1.816 l -0.863 -1.059 l 3.785 -2.785 l 1.371 0 l 0 13.617" fill="#000" stroke="none" fill-rule="nonzero" fill-opacity="1"/><path d="m 34 27.01 c 0 5.328 -2.164 7.992 -6.488 7.992 c -0.758 0 -1.359 -0.066 -1.801 -0.191 l 0 -1.332 c 0.523 0.16 1.117 0.242 1.781 0.242 c 1.563 0 2.746 -0.461 3.539 -1.379 c 0.801 -0.926 1.238 -2.34 1.313 -4.25 l -0.117 0 c -0.359 0.52 -0.836 0.91 -1.43 1.184 c -0.594 0.273 -1.262 0.406 -2 0.406 c -1.266 0 -2.27 -0.359 -3.01 -1.082 c -0.746 -0.719 -1.109 -1.727 -1.109 -3.02 c 0 -1.418 0.414 -2.535 1.238 -3.355 c 0.844 -0.82 1.938 -1.227 3.281 -1.227 c 0.98 0 1.824 0.238 2.547 0.719 c 0.73 0.473 1.293 1.168 1.691 2.078 c 0.387 0.902 0.582 1.977 0.582 3.211 m -4.816 -4.688 c -0.926 0 -1.645 0.281 -2.16 0.855 c -0.508 0.574 -0.762 1.367 -0.762 2.391 c 0 0.891 0.234 1.598 0.703 2.109 c 0.465 0.512 1.184 0.766 2.141 0.766 c 0.598 0 1.145 -0.117 1.641 -0.348 c 0.5 -0.23 0.891 -0.543 1.184 -0.941 c 0.281 -0.395 0.426 -0.813 0.426 -1.25 c 0 -0.648 -0.137 -1.254 -0.402 -1.805 c -0.266 -0.559 -0.641 -0.988 -1.125 -1.305 c -0.477 -0.316 -1.027 -0.473 -1.645 -0.473" fill="#000" stroke="none" fill-rule="nonzero" fill-opacity="1"/></g></g></g></g></g><g><g clip-path="url(#clipPath-657118834)"><!-- color: #eeeeee --><g><path d="M 0 0 L 0 17 L 48 17 L 48 0 M 0 0 " fill="#3685d6" stroke="none" fill-rule="evenodd" fill-opacity="1"/><path d="m 31 12 c 0 1.105 -0.891 2 -1.996 2 c -1.109 0 -2 -0.895 -2 -2 c 0 -1.102 0.891 -1.996 2 -1.996 c 1.105 0 1.996 0.898 1.996 1.996 m 0 0" fill="#20517f" stroke="none" fill-rule="nonzero" fill-opacity="1"/><path d="m 36 12 c 0 1.105 -0.895 2 -2 2 c -1.105 0 -1.996 -0.895 -1.996 -2 c 0 -1.102 0.891 -1.996 1.996 -1.996 c 1.105 0 2 0.898 2 1.996 m 0 0" fill="#20517f" stroke="none" fill-rule="nonzero" fill-opacity="1"/><path d="m 34 13 c 1 0 1 -1 1 -1 c 0 0 0 -0.996 -1 -0.996 l -4.996 0 c -1 0 -1 0.996 -1 0.996 c 0 0 0 1 1 1 m 4.996 0" fill="#dcdcdc" stroke="none" fill-rule="nonzero" fill-opacity="1"/><path d="m 16 12 c 0 1.105 -0.891 2 -1.996 2 c -1.105 0 -2 -0.895 -2 -2 c 0 -1.102 0.895 -1.996 2 -1.996 c 1.105 0 1.996 0.898 1.996 1.996 m 0 0" fill="#20517f" stroke="none" fill-rule="nonzero" fill-opacity="1"/><path d="m 21 12 c 0 1.105 -0.891 2 -1.996 2 c -1.105 0 -2 -0.895 -2 -2 c 0 -1.102 0.895 -1.996 2 -1.996 c 1.105 0 1.996 0.898 1.996 1.996 m 0 0" fill="#20517f" stroke="none" fill-rule="nonzero" fill-opacity="1"/><path d="m 14 13 c -1 0 -1 -1 -1 -1 c 0 0 0 -0.996 1 -0.996 l 5 0 c 1 0 1 0.996 1 0.996 c 0 0 0 1 -1 1 m -5 0" fill="#dcdcdc" stroke="none" fill-rule="nonzero" fill-opacity="1"/><path d="m 19.16 34.816 l -1.59 0 l 0 -9.707 c 0 -0.809 0.031 -1.57 0.078 -2.293 c -0.137 0.129 -0.289 0.27 -0.461 0.41 c -0.164 0.145 -0.945 0.75 -2.324 1.816 l -0.863 -1.059 l 3.785 -2.785 l 1.371 0 l 0 13.617" fill="#868686" stroke="none" fill-rule="nonzero" fill-opacity="1"/><path d="m 34 27.01 c 0 5.328 -2.164 7.992 -6.488 7.992 c -0.758 0 -1.359 -0.066 -1.801 -0.191 l 0 -1.332 c 0.523 0.16 1.117 0.242 1.781 0.242 c 1.563 0 2.746 -0.461 3.539 -1.379 c 0.801 -0.926 1.238 -2.34 1.313 -4.25 l -0.117 0 c -0.359 0.52 -0.836 0.91 -1.43 1.184 c -0.594 0.273 -1.262 0.406 -2 0.406 c -1.266 0 -2.27 -0.359 -3.01 -1.082 c -0.746 -0.719 -1.109 -1.727 -1.109 -3.02 c 0 -1.418 0.414 -2.535 1.238 -3.355 c 0.844 -0.82 1.938 -1.227 3.281 -1.227 c 0.98 0 1.824 0.238 2.547 0.719 c 0.73 0.473 1.293 1.168 1.691 2.078 c 0.387 0.902 0.582 1.977 0.582 3.211 m -4.816 -4.688 c -0.926 0 -1.645 0.281 -2.16 0.855 c -0.508 0.574 -0.762 1.367 -0.762 2.391 c 0 0.891 0.234 1.598 0.703 2.109 c 0.465 0.512 1.184 0.766 2.141 0.766 c 0.598 0 1.145 -0.117 1.641 -0.348 c 0.5 -0.23 0.891 -0.543 1.184 -0.941 c 0.281 -0.395 0.426 -0.813 0.426 -1.25 c 0 -0.648 -0.137 -1.254 -0.402 -1.805 c -0.266 -0.559 -0.641 -0.988 -1.125 -1.305 c -0.477 -0.316 -1.027 -0.473 -1.645 -0.473" fill="#868686" stroke="none" fill-rule="nonzero" fill-opacity="1"/></g></g></g><g><path d="m 20 4 -7.313 3.03 -5.656 5.656 -3.03 7.313 0 8 3.03 7.313 5.656 5.656 7.313 3.03 8 0 7.313 -3.03 5.656 -5.656 3.03 -7.313 0 -8 -3.03 -7.313 -5.656 -5.656 -7.313 -3.03 -8 0 z" clip-path="url(#clipPath4313)" transform="matrix(0,1,-1,0,48,0)" opacity="0.3" stroke-opacity="1" stroke-dasharray="none" visibility="visible" fill="none" display="inline" stroke="url(#linearGradient4375)" color="#000" stroke-width="1" stroke-miterlimit="4"/><path d="m 24 2.344 -4 1.656 -4.281 0 -3.03 3.03 l -4 1.656 -1.656 4 l -3.03 3.03 0 4.281 -1.656 4 1.656 4 l 0 4.281 3.03 3.03 1.656 4 4 1.656 l 3.03 3.03 4.281 0 4 1.656 4 -1.656 l 4.281 0 3.03 -3.03 4 -1.656 1.656 -4 l 3.03 -3.03 0 -4.281 1.656 -4 -1.656 -4 l 0 -4.281 -3.03 -3.03 -1.656 -4 -4 -1.656 l -3.03 -3.03 -4.281 0 -4 -1.656 z" clip-path="url(#clipPath4329)" opacity="0.2" stroke-opacity="1" visibility="visible" fill="none" display="inline" stroke="#000" color="#000" stroke-width="2"/></g></svg>