<svg viewBox="0 0 48 48" xmlns:xlink="http://www.w3.org/1999/xlink"><defs><clipPath clipPathUnits="userSpaceOnUse" id="clipPath4313"><path d="m 20 4 -7.313 3.03 -5.656 5.656 -3.03 7.313 0 8 3.03 7.313 5.656 5.656 7.313 3.03 8 0 7.313 -3.03 5.656 -5.656 3.03 -7.313 0 -8 -3.03 -7.313 -5.656 -5.656 -7.313 -3.03 -8 0 z"/></clipPath><clipPath clipPathUnits="userSpaceOnUse" id="clipPath4329"><path d="m 24 2.344 -4 1.656 -4.281 0 -3.03 3.03 l -4 1.656 -1.656 4 l -3.03 3.03 0 4.281 -1.656 4 1.656 4 l 0 4.281 3.03 3.03 1.656 4 4 1.656 l 3.03 3.03 4.281 0 4 1.656 4 -1.656 l 4.281 0 3.03 -3.03 4 -1.656 1.656 -4 l 3.03 -3.03 0 -4.281 1.656 -4 -1.656 -4 l 0 -4.281 -3.03 -3.03 -1.656 -4 -4 -1.656 l -3.03 -3.03 -4.281 0 -4 -1.656 z"/></clipPath><clipPath id="clipPath-139736267"><path d="m 24 2.344 l -4 1.656 l -4.281 0 l -3.03 3.03 l -4 1.656 l -1.656 4 l -3.03 3.03 l 0 4.281 l -1.656 4 l 1.656 4 l 0 4.281 l 3.03 3.03 l 1.656 4 l 4 1.656 l 3.03 3.03 l 4.281 0 l 4 1.656 l 4 -1.656 l 4.281 0 l 3.03 -3.03 l 4 -1.656 l 1.656 -4 l 3.03 -3.03 l 0 -4.281 l 1.656 -4 l -1.656 -4 l 0 -4.281 l -3.03 -3.03 l -1.656 -4 l -4 -1.656 l -3.03 -3.03 l -4.281 0 l -4 -1.656 z"/></clipPath><clipPath id="clipPath-146547579"><path d="m 24 2.344 l -4 1.656 l -4.281 0 l -3.03 3.03 l -4 1.656 l -1.656 4 l -3.03 3.03 l 0 4.281 l -1.656 4 l 1.656 4 l 0 4.281 l 3.03 3.03 l 1.656 4 l 4 1.656 l 3.03 3.03 l 4.281 0 l 4 1.656 l 4 -1.656 l 4.281 0 l 3.03 -3.03 l 4 -1.656 l 1.656 -4 l 3.03 -3.03 l 0 -4.281 l 1.656 -4 l -1.656 -4 l 0 -4.281 l -3.03 -3.03 l -1.656 -4 l -4 -1.656 l -3.03 -3.03 l -4.281 0 l -4 -1.656 z"/></clipPath><linearGradient id="linearGradient4317"><stop stop-color="#fff" stop-opacity="1"/><stop offset="1" stop-color="#fff" stop-opacity="0"/></linearGradient><clipPath clipPathUnits="userSpaceOnUse" id="clipPath4313"><path d="m 20 4 -7.313 3.03 -5.656 5.656 -3.03 7.313 0 8 3.03 7.313 5.656 5.656 7.313 3.03 8 0 7.313 -3.03 5.656 -5.656 3.03 -7.313 0 -8 -3.03 -7.313 -5.656 -5.656 -7.313 -3.03 -8 0 z"/></clipPath><linearGradient x2="44" x1="4" gradientUnits="userSpaceOnUse" id="linearGradient4375" xlink:href="#linearGradient4317"/><clipPath clipPathUnits="userSpaceOnUse" id="clipPath4329"><path d="m 24 2.344 -4 1.656 -4.281 0 -3.03 3.03 l -4 1.656 -1.656 4 l -3.03 3.03 0 4.281 -1.656 4 1.656 4 l 0 4.281 3.03 3.03 1.656 4 4 1.656 l 3.03 3.03 4.281 0 4 1.656 4 -1.656 l 4.281 0 3.03 -3.03 4 -1.656 1.656 -4 l 3.03 -3.03 0 -4.281 1.656 -4 -1.656 -4 l 0 -4.281 -3.03 -3.03 -1.656 -4 -4 -1.656 l -3.03 -3.03 -4.281 0 -4 -1.656 z"/></clipPath><path id="SVGCleanerId_0" d="m 24 2.344 l -4 1.656 l -4.281 0 l -3.03 3.03 l -4 1.656 l -1.656 4 l -3.03 3.03 l 0 4.281 l -1.656 4 l 1.656 4 l 0 4.281 l 3.03 3.03 l 1.656 4 l 4 1.656 l 3.03 3.03 l 4.281 0 l 4 1.656 l 4 -1.656 l 4.281 0 l 3.03 -3.03 l 4 -1.656 l 1.656 -4 l 3.03 -3.03 l 0 -4.281 l 1.656 -4 l -1.656 -4 l 0 -4.281 l -3.03 -3.03 l -1.656 -4 l -4 -1.656 l -3.03 -3.03 l -4.281 0 l -4 -1.656 z" visibility="visible" display="inline" fill-rule="nonzero" color="#000" fill-opacity="1"/></defs><g><path d="m 2.563 24.5 l -0.219 0.5 l 1.656 4 l 0 -1 l -1.438 -3.5 z m 42.875 0 l -1.438 3.5 l 0 1 l 1.656 -4 l -0.219 -0.5 z m -41.44 7.781 l 0 1 l 3.03 3.03 l 1.656 4 l 4 1.656 l 3.03 3.03 l 4.281 0 l 4 1.656 l 4 -1.656 l 4.281 0 l 3.03 -3.03 l 4 -1.656 l 1.656 -4 l 3.03 -3.03 l 0 -1 l -3.03 3.03 l -1.656 4 l -4 1.656 l -3.03 3.03 l -4.281 0 l -4 1.656 l -4 -1.656 l -4.281 0 l -3.03 -3.03 l -4 -1.656 l -1.656 -4 l -3.03 -3.03 z" opacity="0.3" visibility="visible" fill="#000" display="inline" fill-rule="nonzero" stroke="none" fill-opacity="1" color="#000"/></g><g><use fill="#9d8fa7" stroke="none" xlink:href="#SVGCleanerId_0"/><path d="m 24 2.344 l -4 1.656 l 8 0 l -4 -1.656 z m 4 1.656 l 7.313 3.03 l -3.03 -3.03 l -4.281 0 z m 7.313 3.03 l 5.656 5.656 l -1.656 -4 l -4 -1.656 z m 5.656 5.656 l 3.03 7.313 l 0 -4.281 l -3.03 -3.03 z m 3.03 7.313 l 0 8 l 1.656 -4 l -1.656 -4 z m 0 8 l -3.03 7.313 l 3.03 -3.03 l 0 -4.281 z m -3.03 7.313 l -5.656 5.656 l 4 -1.656 l 1.656 -4 z m -5.656 5.656 l -7.313 3.03 l 4.281 0 l 3.03 -3.03 z m -7.313 3.03 l -8 0 l 4 1.656 l 4 -1.656 z m -8 0 l -7.313 -3.03 l 3.03 3.03 l 4.281 0 z m -7.313 -3.03 l -5.656 -5.656 l 1.656 4 l 4 1.656 z m -5.656 -5.656 l -3.03 -7.313 l 0 4.281 l 3.03 3.03 z m -3.03 -7.313 l 0 -8 l -1.656 4 l 1.656 4 z m 0 -8 l 3.03 -7.313 l -3.03 3.03 l 0 4.281 z m 3.03 -7.313 l 5.656 -5.656 l -4 1.656 l -1.656 4 z m 5.656 -5.656 l 7.313 -3.03 l -4.281 0 l -3.03 3.03 z" opacity="0.05" visibility="visible" fill="#9d8fa7" display="inline" fill-rule="nonzero" stroke="none" fill-opacity="1" color="#000"/></g><g><use opacity="0.05" stroke-opacity="1" stroke-dasharray="none" fill="#000" stroke="#000" stroke-width="2" stroke-miterlimit="4" xlink:href="#SVGCleanerId_0"/><use opacity="0.1" stroke-opacity="1" stroke-dasharray="none" fill="#000" stroke="#000" stroke-width="1" stroke-miterlimit="4" xlink:href="#SVGCleanerId_0"/></g><g><g clip-path="url(#clipPath-139736267)"><g transform="translate(0,1)"><g opacity="0.1"><!-- color: #9d8fa7 --><g><path d="m 13 12 c -0.332 0 -1 0.563 -1 1 l 0 13 c 0 0.465 0.328 0.996 1 1 l 2.031 0 l 0 1.531 l 0.379 1.469 l 1.402 1.281 l 1.496 1.406 l 1.23 0.164 l 1.531 0 l -0.039 -1.012 c 0 0.449 0 0.891 0.031 1 c 0.121 0.445 0.652 0.996 1.094 1.125 c 0.098 0.027 2.754 0.035 6.438 0.031 l 6.281 0 l 0.219 -0.125 c 0.293 -0.156 -1.375 1.512 -1.219 1.219 l 0.125 -0.219 l 0 -12.719 l -0.125 -0.219 c -0.156 -0.297 1.512 1.375 1.219 1.219 l -0.219 -0.125 l -3.938 0 l -3.906 -0.031 l -0.031 -10 c 0 -0.391 -0.063 -1 -1 -1 m -8.223 15 l 3.254 0 l 0 1.5 l -0.031 1.754 l -1.5 0 l -1.723 -0.254 m 0 -3" fill="#000" stroke="none" fill-rule="nonzero" fill-opacity="1"/><path d="m 15.262 23.539 c -0.203 -0.234 -0.371 -0.441 -0.371 -0.457 c -0.004 -0.023 0.188 -0.113 0.422 -0.215 c 0.918 -0.375 1.824 -0.91 2.891 -1.703 c 0.25 -0.188 0.457 -0.363 0.457 -0.398 c 0 -0.031 -0.063 -0.113 -0.141 -0.188 c -0.27 -0.25 -0.957 -1.098 -1.238 -1.535 c -0.277 -0.426 -0.711 -1.281 -0.711 -1.402 c 0 -0.039 0.227 -0.059 0.711 -0.059 l 0.707 0 l 0.188 0.414 c 0.227 0.5 0.688 1.207 1.074 1.648 c 0.156 0.176 0.301 0.328 0.324 0.336 c 0.047 0.02 0.555 -0.551 0.887 -0.992 c 0.516 -0.684 0.988 -1.855 0.988 -2.461 l 0 -0.531 l -6.449 0 l 0 -0.996 l 1.73 0.008 l 2.27 -0.008 l 0 -1 l 1 0 l 0 1 l 4 0.008 l 0 0.988 l -1.258 0 l -0.035 0.609 c -0.141 1.227 -0.895 2.621 -2.102 3.875 l -0.238 0.246 l 0.23 0.188 c 0.129 0.102 0.367 0.277 0.539 0.387 c 0.168 0.113 0.309 0.215 0.309 0.227 c 0 0.016 -0.063 0.105 -0.137 0.199 c -0.148 0.199 -0.293 0.574 -0.293 0.762 c 0 0.07 -0.016 0.129 -0.031 0.129 c -0.02 0 -0.309 -0.211 -0.648 -0.469 c -0.34 -0.258 -0.664 -0.504 -0.719 -0.543 c -0.117 -0.082 -0.023 -0.141 -0.922 0.543 c -0.34 0.258 -0.891 0.637 -1.223 0.844 c -0.594 0.367 -1.707 0.965 -1.805 0.965 c -0.023 0 -0.211 -0.191 -0.414 -0.422 m 0.008 0.004" fill="#000" stroke="none" fill-rule="nonzero" fill-opacity="1"/><path d="m 20.809 22.508 l -0.129 -0.109 l 0.246 -0.25 l 0.25 -0.246 l -0.074 0.207 c -0.043 0.117 -0.074 0.277 -0.078 0.359 c -0.004 0.172 -0.039 0.18 -0.215 0.035 m 0 0.004" fill="#000" stroke="none" fill-rule="nonzero" fill-opacity="1"/><path d="m 22 36 c -0.438 -0.129 -0.875 -0.555 -1 -1 c -0.031 -0.109 0.023 -0.715 0.023 -1.164 l 0 -0.82 l -2.977 0 l -1.516 -1.512 l -1.512 -1.512 l 0 -2.977 l -1.098 0 l 2.602 -2.602 l 2.602 2.602 l -1.102 0 l 0 2.996 l 2.984 0 l 0 -8.02 c 0 -0.68 0.344 -1 1 -1 l 13 0 c 0.629 0 1 0.473 1 1 l 0 13 c 0 0.484 -0.441 1 -1 1 m -8.254 -5.996 l 3.5 0 l 0.75 2 l 1 0 l -3 -8 l -1 0 l -3 8 l 1 0 m 1 -2.996 l 1.531 -4 l 1.469 4 m -3 0" fill="#000" stroke="none" fill-rule="nonzero" fill-opacity="1"/></g></g></g></g></g><g><g clip-path="url(#clipPath-146547579)"><!-- color: #9d8fa7 --><g><path d="m 13 12 c -0.332 0 -1 0.563 -1 1 l 0 13 c 0 0.465 0.328 0.996 1 1 l 2.031 0 l 0 1.531 l 0.379 1.469 l 1.402 1.281 l 1.496 1.406 l 1.23 0.164 l 1.531 0 l -0.039 -1.012 c 0 0.449 0 0.891 0.031 1 c 0.121 0.445 0.652 0.996 1.094 1.125 c 0.098 0.027 2.754 0.035 6.438 0.031 l 6.281 0 l 0.219 -0.125 c 0.293 -0.156 -1.375 1.512 -1.219 1.219 l 0.125 -0.219 l 0 -12.719 l -0.125 -0.219 c -0.156 -0.297 1.512 1.375 1.219 1.219 l -0.219 -0.125 l -3.938 0 l -3.906 -0.031 l -0.031 -10 c 0 -0.391 -0.063 -1 -1 -1 m -8.223 15 l 3.254 0 l 0 1.5 l -0.031 1.754 l -1.5 0 l -1.723 -0.254 m 0 -3" fill="#f1ece5" stroke="none" fill-rule="nonzero" fill-opacity="1"/><path d="m 15.262 23.539 c -0.203 -0.234 -0.371 -0.441 -0.371 -0.457 c -0.004 -0.023 0.188 -0.113 0.422 -0.215 c 0.918 -0.375 1.824 -0.91 2.891 -1.703 c 0.25 -0.188 0.457 -0.363 0.457 -0.398 c 0 -0.031 -0.063 -0.113 -0.141 -0.188 c -0.27 -0.25 -0.957 -1.098 -1.238 -1.535 c -0.277 -0.426 -0.711 -1.281 -0.711 -1.402 c 0 -0.039 0.227 -0.059 0.711 -0.059 l 0.707 0 l 0.188 0.414 c 0.227 0.5 0.688 1.207 1.074 1.648 c 0.156 0.176 0.301 0.328 0.324 0.336 c 0.047 0.02 0.555 -0.551 0.887 -0.992 c 0.516 -0.684 0.988 -1.855 0.988 -2.461 l 0 -0.531 l -6.449 0 l 0 -0.996 l 1.73 0.008 l 2.27 -0.008 l 0 -1 l 1 0 l 0 1 l 4 0.008 l 0 0.988 l -1.258 0 l -0.035 0.609 c -0.141 1.227 -0.895 2.621 -2.102 3.875 l -0.238 0.246 l 0.23 0.188 c 0.129 0.102 0.367 0.277 0.539 0.387 c 0.168 0.113 0.309 0.215 0.309 0.227 c 0 0.016 -0.063 0.105 -0.137 0.199 c -0.148 0.199 -0.293 0.574 -0.293 0.762 c 0 0.07 -0.016 0.129 -0.031 0.129 c -0.02 0 -0.309 -0.211 -0.648 -0.469 c -0.34 -0.258 -0.664 -0.504 -0.719 -0.543 c -0.117 -0.082 -0.023 -0.141 -0.922 0.543 c -0.34 0.258 -0.891 0.637 -1.223 0.844 c -0.594 0.367 -1.707 0.965 -1.805 0.965 c -0.023 0 -0.211 -0.191 -0.414 -0.422 m 0.008 0.004" fill="#535352" stroke="none" fill-rule="nonzero" fill-opacity="1"/><path d="m 20.809 22.508 l -0.129 -0.109 l 0.246 -0.25 l 0.25 -0.246 l -0.074 0.207 c -0.043 0.117 -0.074 0.277 -0.078 0.359 c -0.004 0.172 -0.039 0.18 -0.215 0.035 m 0 0.004" fill="#53534c" stroke="none" fill-rule="nonzero" fill-opacity="1"/><path d="m 22 36 c -0.438 -0.129 -0.875 -0.555 -1 -1 c -0.031 -0.109 0.023 -0.715 0.023 -1.164 l 0 -0.82 l -2.977 0 l -1.516 -1.512 l -1.512 -1.512 l 0 -2.977 l -1.098 0 l 2.602 -2.602 l 2.602 2.602 l -1.102 0 l 0 2.996 l 2.984 0 l 0 -8.02 c 0 -0.68 0.344 -1 1 -1 l 13 0 c 0.629 0 1 0.473 1 1 l 0 13 c 0 0.484 -0.441 1 -1 1 m -8.254 -5.996 l 3.5 0 l 0.75 2 l 1 0 l -3 -8 l -1 0 l -3 8 l 1 0 m 1 -2.996 l 1.531 -4 l 1.469 4 m -3 0" fill="#367ff3" stroke="none" fill-rule="nonzero" fill-opacity="1"/></g></g></g><g><path d="m 20 4 -7.313 3.03 -5.656 5.656 -3.03 7.313 0 8 3.03 7.313 5.656 5.656 7.313 3.03 8 0 7.313 -3.03 5.656 -5.656 3.03 -7.313 0 -8 -3.03 -7.313 -5.656 -5.656 -7.313 -3.03 -8 0 z" clip-path="url(#clipPath4313)" transform="matrix(0,1,-1,0,48,0)" opacity="0.3" stroke-opacity="1" stroke-dasharray="none" visibility="visible" fill="none" display="inline" stroke="url(#linearGradient4375)" color="#000" stroke-width="1" stroke-miterlimit="4"/><path d="m 24 2.344 -4 1.656 -4.281 0 -3.03 3.03 l -4 1.656 -1.656 4 l -3.03 3.03 0 4.281 -1.656 4 1.656 4 l 0 4.281 3.03 3.03 1.656 4 4 1.656 l 3.03 3.03 4.281 0 4 1.656 4 -1.656 l 4.281 0 3.03 -3.03 4 -1.656 1.656 -4 l 3.03 -3.03 0 -4.281 1.656 -4 -1.656 -4 l 0 -4.281 -3.03 -3.03 -1.656 -4 -4 -1.656 l -3.03 -3.03 -4.281 0 -4 -1.656 z" clip-path="url(#clipPath4329)" opacity="0.2" stroke-opacity="1" visibility="visible" fill="none" display="inline" stroke="#000" color="#000" stroke-width="2"/></g></svg>