<svg viewBox="0 0 48 48" xmlns:xlink="http://www.w3.org/1999/xlink"><defs><clipPath clipPathUnits="userSpaceOnUse" id="clipPath4313"><path d="m 20 4 -7.313 3.03 -5.656 5.656 -3.03 7.313 0 8 3.03 7.313 5.656 5.656 7.313 3.03 8 0 7.313 -3.03 5.656 -5.656 3.03 -7.313 0 -8 -3.03 -7.313 -5.656 -5.656 -7.313 -3.03 -8 0 z"/></clipPath><clipPath clipPathUnits="userSpaceOnUse" id="clipPath4329"><path d="m 24 2.344 -4 1.656 -4.281 0 -3.03 3.03 l -4 1.656 -1.656 4 l -3.03 3.03 0 4.281 -1.656 4 1.656 4 l 0 4.281 3.03 3.03 1.656 4 4 1.656 l 3.03 3.03 4.281 0 4 1.656 4 -1.656 l 4.281 0 3.03 -3.03 4 -1.656 1.656 -4 l 3.03 -3.03 0 -4.281 1.656 -4 -1.656 -4 l 0 -4.281 -3.03 -3.03 -1.656 -4 -4 -1.656 l -3.03 -3.03 -4.281 0 -4 -1.656 z"/></clipPath><clipPath id="clipPath-356067909"><path d="m 24 2.344 l -4 1.656 l -4.281 0 l -3.03 3.03 l -4 1.656 l -1.656 4 l -3.03 3.03 l 0 4.281 l -1.656 4 l 1.656 4 l 0 4.281 l 3.03 3.03 l 1.656 4 l 4 1.656 l 3.03 3.03 l 4.281 0 l 4 1.656 l 4 -1.656 l 4.281 0 l 3.03 -3.03 l 4 -1.656 l 1.656 -4 l 3.03 -3.03 l 0 -4.281 l 1.656 -4 l -1.656 -4 l 0 -4.281 l -3.03 -3.03 l -1.656 -4 l -4 -1.656 l -3.03 -3.03 l -4.281 0 l -4 -1.656 z"/></clipPath><clipPath id="clipPath-365158840"><path d="m 24 2.344 l -4 1.656 l -4.281 0 l -3.03 3.03 l -4 1.656 l -1.656 4 l -3.03 3.03 l 0 4.281 l -1.656 4 l 1.656 4 l 0 4.281 l 3.03 3.03 l 1.656 4 l 4 1.656 l 3.03 3.03 l 4.281 0 l 4 1.656 l 4 -1.656 l 4.281 0 l 3.03 -3.03 l 4 -1.656 l 1.656 -4 l 3.03 -3.03 l 0 -4.281 l 1.656 -4 l -1.656 -4 l 0 -4.281 l -3.03 -3.03 l -1.656 -4 l -4 -1.656 l -3.03 -3.03 l -4.281 0 l -4 -1.656 z"/></clipPath><linearGradient id="linearGradient4317"><stop stop-color="#fff" stop-opacity="1"/><stop offset="1" stop-color="#fff" stop-opacity="0"/></linearGradient><clipPath clipPathUnits="userSpaceOnUse" id="clipPath4313"><path d="m 20 4 -7.313 3.03 -5.656 5.656 -3.03 7.313 0 8 3.03 7.313 5.656 5.656 7.313 3.03 8 0 7.313 -3.03 5.656 -5.656 3.03 -7.313 0 -8 -3.03 -7.313 -5.656 -5.656 -7.313 -3.03 -8 0 z"/></clipPath><linearGradient x2="44" x1="4" gradientUnits="userSpaceOnUse" id="linearGradient4375" xlink:href="#linearGradient4317"/><clipPath clipPathUnits="userSpaceOnUse" id="clipPath4329"><path d="m 24 2.344 -4 1.656 -4.281 0 -3.03 3.03 l -4 1.656 -1.656 4 l -3.03 3.03 0 4.281 -1.656 4 1.656 4 l 0 4.281 3.03 3.03 1.656 4 4 1.656 l 3.03 3.03 4.281 0 4 1.656 4 -1.656 l 4.281 0 3.03 -3.03 4 -1.656 1.656 -4 l 3.03 -3.03 0 -4.281 1.656 -4 -1.656 -4 l 0 -4.281 -3.03 -3.03 -1.656 -4 -4 -1.656 l -3.03 -3.03 -4.281 0 -4 -1.656 z"/></clipPath><path id="SVGCleanerId_0" d="m 24 2.344 l -4 1.656 l -4.281 0 l -3.03 3.03 l -4 1.656 l -1.656 4 l -3.03 3.03 l 0 4.281 l -1.656 4 l 1.656 4 l 0 4.281 l 3.03 3.03 l 1.656 4 l 4 1.656 l 3.03 3.03 l 4.281 0 l 4 1.656 l 4 -1.656 l 4.281 0 l 3.03 -3.03 l 4 -1.656 l 1.656 -4 l 3.03 -3.03 l 0 -4.281 l 1.656 -4 l -1.656 -4 l 0 -4.281 l -3.03 -3.03 l -1.656 -4 l -4 -1.656 l -3.03 -3.03 l -4.281 0 l -4 -1.656 z" visibility="visible" display="inline" fill-rule="nonzero" color="#000" fill-opacity="1"/></defs><g><path d="m 2.563 24.5 l -0.219 0.5 l 1.656 4 l 0 -1 l -1.438 -3.5 z m 42.875 0 l -1.438 3.5 l 0 1 l 1.656 -4 l -0.219 -0.5 z m -41.44 7.781 l 0 1 l 3.03 3.03 l 1.656 4 l 4 1.656 l 3.03 3.03 l 4.281 0 l 4 1.656 l 4 -1.656 l 4.281 0 l 3.03 -3.03 l 4 -1.656 l 1.656 -4 l 3.03 -3.03 l 0 -1 l -3.03 3.03 l -1.656 4 l -4 1.656 l -3.03 3.03 l -4.281 0 l -4 1.656 l -4 -1.656 l -4.281 0 l -3.03 -3.03 l -4 -1.656 l -1.656 -4 l -3.03 -3.03 z" opacity="0.3" visibility="visible" fill="#000" display="inline" fill-rule="nonzero" stroke="none" fill-opacity="1" color="#000"/></g><g><use fill="#6a777e" stroke="none" xlink:href="#SVGCleanerId_0"/><path d="m 24 2.344 l -4 1.656 l 8 0 l -4 -1.656 z m 4 1.656 l 7.313 3.03 l -3.03 -3.03 l -4.281 0 z m 7.313 3.03 l 5.656 5.656 l -1.656 -4 l -4 -1.656 z m 5.656 5.656 l 3.03 7.313 l 0 -4.281 l -3.03 -3.03 z m 3.03 7.313 l 0 8 l 1.656 -4 l -1.656 -4 z m 0 8 l -3.03 7.313 l 3.03 -3.03 l 0 -4.281 z m -3.03 7.313 l -5.656 5.656 l 4 -1.656 l 1.656 -4 z m -5.656 5.656 l -7.313 3.03 l 4.281 0 l 3.03 -3.03 z m -7.313 3.03 l -8 0 l 4 1.656 l 4 -1.656 z m -8 0 l -7.313 -3.03 l 3.03 3.03 l 4.281 0 z m -7.313 -3.03 l -5.656 -5.656 l 1.656 4 l 4 1.656 z m -5.656 -5.656 l -3.03 -7.313 l 0 4.281 l 3.03 3.03 z m -3.03 -7.313 l 0 -8 l -1.656 4 l 1.656 4 z m 0 -8 l 3.03 -7.313 l -3.03 3.03 l 0 4.281 z m 3.03 -7.313 l 5.656 -5.656 l -4 1.656 l -1.656 4 z m 5.656 -5.656 l 7.313 -3.03 l -4.281 0 l -3.03 3.03 z" opacity="0.05" visibility="visible" fill="#6a777e" display="inline" fill-rule="nonzero" stroke="none" fill-opacity="1" color="#000"/></g><g><use opacity="0.05" stroke-opacity="1" stroke-dasharray="none" fill="#000" stroke="#000" stroke-width="2" stroke-miterlimit="4" xlink:href="#SVGCleanerId_0"/><use opacity="0.1" stroke-opacity="1" stroke-dasharray="none" fill="#000" stroke="#000" stroke-width="1" stroke-miterlimit="4" xlink:href="#SVGCleanerId_0"/></g><g><g clip-path="url(#clipPath-356067909)"><g transform="translate(0,1)"><g opacity="0.1"><!-- color: #6a777e --><g><path d="m 12 12 l 12 0 l 0 12 l -12 0 m 0 -12" fill="#000" stroke="none" fill-rule="nonzero" fill-opacity="1"/><path d="m 12 24 l 12 0 l 0 12 l -12 0 m 0 -12" fill="#000" stroke="none" fill-rule="nonzero" fill-opacity="1"/><path d="m 24 24 l 12 0 l 0 12 l -12 0 m 0 -12" fill="#000" stroke="none" fill-rule="nonzero" fill-opacity="1"/><use xlink:href="#SVGCleanerId_1"/><use xlink:href="#SVGCleanerId_2"/><use xlink:href="#SVGCleanerId_3"/><use xlink:href="#SVGCleanerId_4"/><use xlink:href="#SVGCleanerId_5"/></g></g></g></g></g><g><g clip-path="url(#clipPath-365158840)"><!-- color: #6a777e --><g><path d="m 12 12 l 12 0 l 0 12 l -12 0 m 0 -12" fill="#62ce3e" stroke="none" fill-rule="nonzero" fill-opacity="1"/><path d="m 12 24 l 12 0 l 0 12 l -12 0 m 0 -12" fill="#f9e500" stroke="none" fill-rule="nonzero" fill-opacity="1"/><path d="m 24 24 l 12 0 l 0 12 l -12 0 m 0 -12" fill="#70c8e5" stroke="none" fill-rule="nonzero" fill-opacity="1"/><path d="m 20 21.5 l -0.766 0 l 0 -3.297 l -3.473 0 l 0 3.297 l -0.766 0 l 0 -7 l 0.766 0 l 0 2.977 l 3.473 0 l 0 -2.977 l 0.766 0 l 0 7" fill="#000" stroke="none" fill-rule="nonzero" fill-opacity="1" id="SVGCleanerId_1"/><path d="m 15 33.801 l 0 -7.297 l 0.836 0 l 0 6.527 l 3.168 0 l 0 0.77 l -4 0" fill="#000" stroke="none" fill-rule="nonzero" fill-opacity="1" id="SVGCleanerId_2"/><path d="m 20.922 33.801 l -0.816 0 l 0 -5.473 l 0.816 0 l 0 5.473 m -0.887 -6.953 c 0 -0.191 0.047 -0.328 0.137 -0.414 c 0.094 -0.09 0.207 -0.137 0.344 -0.137 c 0.133 0 0.242 0.047 0.34 0.137 c 0.094 0.09 0.145 0.227 0.145 0.414 c 0 0.184 -0.051 0.324 -0.145 0.418 c -0.098 0.09 -0.207 0.137 -0.34 0.137 c -0.137 0 -0.25 -0.047 -0.344 -0.137 c -0.09 -0.094 -0.137 -0.234 -0.137 -0.418" fill="#000" stroke="none" fill-rule="nonzero" fill-opacity="1" id="SVGCleanerId_3"/><path d="m 25 26.5 l 1.902 0 c 0.895 0 1.539 0.137 1.941 0.414 c 0.398 0.27 0.598 0.703 0.598 1.297 c 0 0.41 -0.113 0.75 -0.336 1.016 c -0.223 0.266 -0.547 0.438 -0.973 0.516 l 0 0.047 c 1.02 0.18 1.535 0.73 1.535 1.652 c 0 0.617 -0.203 1.098 -0.613 1.445 c -0.406 0.348 -0.973 0.52 -1.703 0.52 l -2.352 0 l 0 -6.902 m 0.781 2.953 l 1.293 0 c 0.555 0 0.953 -0.086 1.195 -0.262 c 0.238 -0.18 0.363 -0.48 0.363 -0.906 c 0 -0.387 -0.145 -0.668 -0.406 -0.836 c -0.273 -0.172 -0.699 -0.258 -1.293 -0.258 l -1.152 0 l 0 2.262 m 0 0.684 l 0 2.582 l 1.41 0 c 0.539 0 0.949 -0.109 1.223 -0.324 c 0.277 -0.219 0.418 -0.555 0.418 -1.012 c 0 -0.43 -0.141 -0.746 -0.426 -0.945 c -0.277 -0.199 -0.707 -0.301 -1.281 -0.301 l -1.34 0" fill="#000" stroke="none" fill-rule="nonzero" fill-opacity="1" id="SVGCleanerId_4"/><path d="m 33.14 33.5 c -0.746 0 -1.336 -0.23 -1.77 -0.699 c -0.434 -0.465 -0.645 -1.109 -0.645 -1.941 c 0 -0.832 0.199 -1.492 0.598 -1.984 c 0.402 -0.492 0.941 -0.734 1.617 -0.734 c 0.633 0 1.133 0.215 1.5 0.641 c 0.371 0.434 0.555 0.984 0.555 1.691 l 0 0.496 l -3.48 0 c 0.016 0.602 0.164 1.063 0.449 1.387 c 0.285 0.313 0.688 0.473 1.203 0.473 c 0.543 0 1.082 -0.117 1.613 -0.348 l 0 0.699 c -0.27 0.109 -0.527 0.203 -0.77 0.254 c -0.238 0.055 -0.527 0.078 -0.871 0.078 m -0.207 -4.707 c -0.406 0 -0.73 0.137 -0.973 0.395 c -0.238 0.273 -0.391 0.648 -0.43 1.125 l 2.648 0 c 0 -0.496 -0.109 -0.871 -0.32 -1.133 c -0.215 -0.266 -0.523 -0.395 -0.922 -0.395" fill="#000" stroke="none" fill-rule="nonzero" fill-opacity="1" id="SVGCleanerId_5"/></g></g></g><g><path d="m 20 4 -7.313 3.03 -5.656 5.656 -3.03 7.313 0 8 3.03 7.313 5.656 5.656 7.313 3.03 8 0 7.313 -3.03 5.656 -5.656 3.03 -7.313 0 -8 -3.03 -7.313 -5.656 -5.656 -7.313 -3.03 -8 0 z" clip-path="url(#clipPath4313)" transform="matrix(0,1,-1,0,48,0)" opacity="0.3" stroke-opacity="1" stroke-dasharray="none" visibility="visible" fill="none" display="inline" stroke="url(#linearGradient4375)" color="#000" stroke-width="1" stroke-miterlimit="4"/><path d="m 24 2.344 -4 1.656 -4.281 0 -3.03 3.03 l -4 1.656 -1.656 4 l -3.03 3.03 0 4.281 -1.656 4 1.656 4 l 0 4.281 3.03 3.03 1.656 4 4 1.656 l 3.03 3.03 4.281 0 4 1.656 4 -1.656 l 4.281 0 3.03 -3.03 4 -1.656 1.656 -4 l 3.03 -3.03 0 -4.281 1.656 -4 -1.656 -4 l 0 -4.281 -3.03 -3.03 -1.656 -4 -4 -1.656 l -3.03 -3.03 -4.281 0 -4 -1.656 z" clip-path="url(#clipPath4329)" opacity="0.2" stroke-opacity="1" visibility="visible" fill="none" display="inline" stroke="#000" color="#000" stroke-width="2"/></g></svg>