<svg viewBox="0 0 48 48" xmlns:xlink="http://www.w3.org/1999/xlink"><defs><clipPath clipPathUnits="userSpaceOnUse" id="clipPath4313"><path d="m 20 4 -7.313 3.03 -5.656 5.656 -3.03 7.313 0 8 3.03 7.313 5.656 5.656 7.313 3.03 8 0 7.313 -3.03 5.656 -5.656 3.03 -7.313 0 -8 -3.03 -7.313 -5.656 -5.656 -7.313 -3.03 -8 0 z"/></clipPath><clipPath clipPathUnits="userSpaceOnUse" id="clipPath4329"><path d="m 24 2.344 -4 1.656 -4.281 0 -3.03 3.03 l -4 1.656 -1.656 4 l -3.03 3.03 0 4.281 -1.656 4 1.656 4 l 0 4.281 3.03 3.03 1.656 4 4 1.656 l 3.03 3.03 4.281 0 4 1.656 4 -1.656 l 4.281 0 3.03 -3.03 4 -1.656 1.656 -4 l 3.03 -3.03 0 -4.281 1.656 -4 -1.656 -4 l 0 -4.281 -3.03 -3.03 -1.656 -4 -4 -1.656 l -3.03 -3.03 -4.281 0 -4 -1.656 z"/></clipPath><clipPath id="clipPath-987736716"><path d="m 24 2.344 l -4 1.656 l -4.281 0 l -3.03 3.03 l -4 1.656 l -1.656 4 l -3.03 3.03 l 0 4.281 l -1.656 4 l 1.656 4 l 0 4.281 l 3.03 3.03 l 1.656 4 l 4 1.656 l 3.03 3.03 l 4.281 0 l 4 1.656 l 4 -1.656 l 4.281 0 l 3.03 -3.03 l 4 -1.656 l 1.656 -4 l 3.03 -3.03 l 0 -4.281 l 1.656 -4 l -1.656 -4 l 0 -4.281 l -3.03 -3.03 l -1.656 -4 l -4 -1.656 l -3.03 -3.03 l -4.281 0 l -4 -1.656 z"/></clipPath><clipPath id="clipPath-998916941"><path d="m 24 2.344 l -4 1.656 l -4.281 0 l -3.03 3.03 l -4 1.656 l -1.656 4 l -3.03 3.03 l 0 4.281 l -1.656 4 l 1.656 4 l 0 4.281 l 3.03 3.03 l 1.656 4 l 4 1.656 l 3.03 3.03 l 4.281 0 l 4 1.656 l 4 -1.656 l 4.281 0 l 3.03 -3.03 l 4 -1.656 l 1.656 -4 l 3.03 -3.03 l 0 -4.281 l 1.656 -4 l -1.656 -4 l 0 -4.281 l -3.03 -3.03 l -1.656 -4 l -4 -1.656 l -3.03 -3.03 l -4.281 0 l -4 -1.656 z"/></clipPath><linearGradient id="linearGradient4317"><stop stop-color="#fff" stop-opacity="1"/><stop offset="1" stop-color="#fff" stop-opacity="0"/></linearGradient><clipPath clipPathUnits="userSpaceOnUse" id="clipPath4313"><path d="m 20 4 -7.313 3.03 -5.656 5.656 -3.03 7.313 0 8 3.03 7.313 5.656 5.656 7.313 3.03 8 0 7.313 -3.03 5.656 -5.656 3.03 -7.313 0 -8 -3.03 -7.313 -5.656 -5.656 -7.313 -3.03 -8 0 z"/></clipPath><linearGradient x2="44" x1="4" gradientUnits="userSpaceOnUse" id="linearGradient4375" xlink:href="#linearGradient4317"/><clipPath clipPathUnits="userSpaceOnUse" id="clipPath4329"><path d="m 24 2.344 -4 1.656 -4.281 0 -3.03 3.03 l -4 1.656 -1.656 4 l -3.03 3.03 0 4.281 -1.656 4 1.656 4 l 0 4.281 3.03 3.03 1.656 4 4 1.656 l 3.03 3.03 4.281 0 4 1.656 4 -1.656 l 4.281 0 3.03 -3.03 4 -1.656 1.656 -4 l 3.03 -3.03 0 -4.281 1.656 -4 -1.656 -4 l 0 -4.281 -3.03 -3.03 -1.656 -4 -4 -1.656 l -3.03 -3.03 -4.281 0 -4 -1.656 z"/></clipPath><path id="SVGCleanerId_0" d="m 24 2.344 l -4 1.656 l -4.281 0 l -3.03 3.03 l -4 1.656 l -1.656 4 l -3.03 3.03 l 0 4.281 l -1.656 4 l 1.656 4 l 0 4.281 l 3.03 3.03 l 1.656 4 l 4 1.656 l 3.03 3.03 l 4.281 0 l 4 1.656 l 4 -1.656 l 4.281 0 l 3.03 -3.03 l 4 -1.656 l 1.656 -4 l 3.03 -3.03 l 0 -4.281 l 1.656 -4 l -1.656 -4 l 0 -4.281 l -3.03 -3.03 l -1.656 -4 l -4 -1.656 l -3.03 -3.03 l -4.281 0 l -4 -1.656 z" visibility="visible" display="inline" fill-rule="nonzero" color="#000" fill-opacity="1"/></defs><g><path d="m 2.563 24.5 l -0.219 0.5 l 1.656 4 l 0 -1 l -1.438 -3.5 z m 42.875 0 l -1.438 3.5 l 0 1 l 1.656 -4 l -0.219 -0.5 z m -41.44 7.781 l 0 1 l 3.03 3.03 l 1.656 4 l 4 1.656 l 3.03 3.03 l 4.281 0 l 4 1.656 l 4 -1.656 l 4.281 0 l 3.03 -3.03 l 4 -1.656 l 1.656 -4 l 3.03 -3.03 l 0 -1 l -3.03 3.03 l -1.656 4 l -4 1.656 l -3.03 3.03 l -4.281 0 l -4 1.656 l -4 -1.656 l -4.281 0 l -3.03 -3.03 l -4 -1.656 l -1.656 -4 l -3.03 -3.03 z" opacity="0.3" visibility="visible" fill="#000" display="inline" fill-rule="nonzero" stroke="none" fill-opacity="1" color="#000"/></g><g><use fill="#d01717" stroke="none" xlink:href="#SVGCleanerId_0"/><path d="m 24 2.344 l -4 1.656 l 8 0 l -4 -1.656 z m 4 1.656 l 7.313 3.03 l -3.03 -3.03 l -4.281 0 z m 7.313 3.03 l 5.656 5.656 l -1.656 -4 l -4 -1.656 z m 5.656 5.656 l 3.03 7.313 l 0 -4.281 l -3.03 -3.03 z m 3.03 7.313 l 0 8 l 1.656 -4 l -1.656 -4 z m 0 8 l -3.03 7.313 l 3.03 -3.03 l 0 -4.281 z m -3.03 7.313 l -5.656 5.656 l 4 -1.656 l 1.656 -4 z m -5.656 5.656 l -7.313 3.03 l 4.281 0 l 3.03 -3.03 z m -7.313 3.03 l -8 0 l 4 1.656 l 4 -1.656 z m -8 0 l -7.313 -3.03 l 3.03 3.03 l 4.281 0 z m -7.313 -3.03 l -5.656 -5.656 l 1.656 4 l 4 1.656 z m -5.656 -5.656 l -3.03 -7.313 l 0 4.281 l 3.03 3.03 z m -3.03 -7.313 l 0 -8 l -1.656 4 l 1.656 4 z m 0 -8 l 3.03 -7.313 l -3.03 3.03 l 0 4.281 z m 3.03 -7.313 l 5.656 -5.656 l -4 1.656 l -1.656 4 z m 5.656 -5.656 l 7.313 -3.03 l -4.281 0 l -3.03 3.03 z" opacity="0.05" visibility="visible" fill="#d01717" display="inline" fill-rule="nonzero" stroke="none" fill-opacity="1" color="#000"/></g><g><use opacity="0.05" stroke-opacity="1" stroke-dasharray="none" fill="#000" stroke="#000" stroke-width="2" stroke-miterlimit="4" xlink:href="#SVGCleanerId_0"/><use opacity="0.1" stroke-opacity="1" stroke-dasharray="none" fill="#000" stroke="#000" stroke-width="1" stroke-miterlimit="4" xlink:href="#SVGCleanerId_0"/></g><g><g clip-path="url(#clipPath-987736716)"><g transform="translate(0,1)"><g opacity="0.1"><!-- color: #d01717 --><g><path d="m 16 12 c -0.516 0 -1 0.484 -1 1 l 0 22 c 0 0.484 0.516 1 1 1 l 16 0 c 0.484 0 1 -0.516 1 -1 l 0 -16.5 l -6.5 -6.5 m -3.313 8 c 0.094 -0.016 0.184 0.023 0.281 0.125 c 0.141 0.137 0.191 0.379 0.219 0.531 c -0.027 -0.09 -0.066 -0.203 -0.125 -0.25 c -0.074 -0.145 -0.594 -0.457 -0.5 0.688 c 0.039 0.469 0.094 1.141 0.219 1.844 c 0.289 -1.098 0.469 -1.938 0.469 -1.938 c 0 0 0.105 1.109 -0.281 2.844 c 0.219 0.754 0.566 1.52 1.125 2.188 c 0.488 0.582 1.133 1.07 1.781 1.438 c 0.371 -0.035 0.699 -0.07 1.375 -0.094 c 1.816 -0.055 2.043 0.168 2.188 0.438 c 0.168 0.258 -0.094 0.5 -0.094 0.5 c 0 0 0.016 -0.18 -0.188 -0.344 c -0.18 -0.145 -0.898 -0.309 -2.688 -0.188 c 0.922 0.441 1.789 0.66 2.125 0.688 c 0.645 0.055 0.688 -0.094 0.688 -0.094 c 0 0 -0.281 0.535 -1.531 0.281 c -0.633 -0.129 -1.398 -0.434 -2.094 -0.813 c -2.227 0.246 -4.5 0.969 -4.5 0.969 c 0 0 0.828 -0.691 2.5 -1 c 0.715 -0.133 1.102 -0.219 1.5 -0.281 c -0.465 -0.297 -0.883 -0.613 -1.188 -0.969 c -0.441 -0.512 -0.824 -1.324 -1.125 -2.125 c -0.305 1.137 -0.824 2.484 -1.688 3.969 c -2.438 4.203 -3.152 3.648 -3.406 3.5 c -0.258 -0.145 -0.586 -0.617 0.5 -1.563 c 1.082 -0.949 1.5 -0.938 1.5 -0.938 c 0 0 -0.988 0.605 -1.375 1.188 c -0.383 0.582 -0.684 0.93 -0.594 1.094 c 0.094 0.164 1.195 -0.668 1.656 -1.375 c 0.727 -1.129 2.102 -3.219 2.75 -5.219 c 0.148 -0.469 0.281 -0.957 0.406 -1.406 c -0.148 -0.453 -0.27 -0.867 -0.316 -1.156 c -0.164 -0.93 -0.074 -1.902 0.125 -2.25 c 0.105 -0.172 0.188 -0.262 0.281 -0.281 m 0 0" fill="#000" stroke="none" fill-rule="nonzero" fill-opacity="1"/><use xlink:href="#SVGCleanerId_1"/><use xlink:href="#SVGCleanerId_2"/></g></g></g></g></g><g><g clip-path="url(#clipPath-998916941)"><!-- color: #d01717 --><g><path d="m 16 12 c -0.516 0 -1 0.484 -1 1 l 0 22 c 0 0.484 0.516 1 1 1 l 16 0 c 0.484 0 1 -0.516 1 -1 l 0 -16.5 l -6.5 -6.5 m -3.313 8 c 0.094 -0.016 0.184 0.023 0.281 0.125 c 0.141 0.137 0.191 0.379 0.219 0.531 c -0.027 -0.09 -0.066 -0.203 -0.125 -0.25 c -0.074 -0.145 -0.594 -0.457 -0.5 0.688 c 0.039 0.469 0.094 1.141 0.219 1.844 c 0.289 -1.098 0.469 -1.938 0.469 -1.938 c 0 0 0.105 1.109 -0.281 2.844 c 0.219 0.754 0.566 1.52 1.125 2.188 c 0.488 0.582 1.133 1.07 1.781 1.438 c 0.371 -0.035 0.699 -0.07 1.375 -0.094 c 1.816 -0.055 2.043 0.168 2.188 0.438 c 0.168 0.258 -0.094 0.5 -0.094 0.5 c 0 0 0.016 -0.18 -0.188 -0.344 c -0.18 -0.145 -0.898 -0.309 -2.688 -0.188 c 0.922 0.441 1.789 0.66 2.125 0.688 c 0.645 0.055 0.688 -0.094 0.688 -0.094 c 0 0 -0.281 0.535 -1.531 0.281 c -0.633 -0.129 -1.398 -0.434 -2.094 -0.813 c -2.227 0.246 -4.5 0.969 -4.5 0.969 c 0 0 0.828 -0.691 2.5 -1 c 0.715 -0.133 1.102 -0.219 1.5 -0.281 c -0.465 -0.297 -0.883 -0.613 -1.188 -0.969 c -0.441 -0.512 -0.824 -1.324 -1.125 -2.125 c -0.305 1.137 -0.824 2.484 -1.688 3.969 c -2.438 4.203 -3.152 3.648 -3.406 3.5 c -0.258 -0.145 -0.586 -0.617 0.5 -1.563 c 1.082 -0.949 1.5 -0.938 1.5 -0.938 c 0 0 -0.988 0.605 -1.375 1.188 c -0.383 0.582 -0.684 0.93 -0.594 1.094 c 0.094 0.164 1.195 -0.668 1.656 -1.375 c 0.727 -1.129 2.102 -3.219 2.75 -5.219 c 0.148 -0.469 0.281 -0.957 0.406 -1.406 c -0.148 -0.453 -0.27 -0.867 -0.316 -1.156 c -0.164 -0.93 -0.074 -1.902 0.125 -2.25 c 0.105 -0.172 0.188 -0.262 0.281 -0.281 m 0 0" fill="#f9f9f9" stroke="none" fill-rule="nonzero" fill-opacity="1"/><path d="m 26.5 17.5 l 0.031 0.031 l 0.078 -0.031 m 0.891 1 l 5.5 5.5 l 0 -5.5 m -5.5 0" fill="#000" stroke="none" fill-rule="nonzero" fill-opacity="0.196" id="SVGCleanerId_1"/><path d="m 26.5 12 l 6.5 6.5 l -5.5 0 c -0.484 0 -1 -0.52 -1 -1 m 0 -5.5" fill="#000" stroke="none" fill-rule="nonzero" fill-opacity="0.392" id="SVGCleanerId_2"/></g></g></g><g><path d="m 20 4 -7.313 3.03 -5.656 5.656 -3.03 7.313 0 8 3.03 7.313 5.656 5.656 7.313 3.03 8 0 7.313 -3.03 5.656 -5.656 3.03 -7.313 0 -8 -3.03 -7.313 -5.656 -5.656 -7.313 -3.03 -8 0 z" clip-path="url(#clipPath4313)" transform="matrix(0,1,-1,0,48,0)" opacity="0.3" stroke-opacity="1" stroke-dasharray="none" visibility="visible" fill="none" display="inline" stroke="url(#linearGradient4375)" color="#000" stroke-width="1" stroke-miterlimit="4"/><path d="m 24 2.344 -4 1.656 -4.281 0 -3.03 3.03 l -4 1.656 -1.656 4 l -3.03 3.03 0 4.281 -1.656 4 1.656 4 l 0 4.281 3.03 3.03 1.656 4 4 1.656 l 3.03 3.03 4.281 0 4 1.656 4 -1.656 l 4.281 0 3.03 -3.03 4 -1.656 1.656 -4 l 3.03 -3.03 0 -4.281 1.656 -4 -1.656 -4 l 0 -4.281 -3.03 -3.03 -1.656 -4 -4 -1.656 l -3.03 -3.03 -4.281 0 -4 -1.656 z" clip-path="url(#clipPath4329)" opacity="0.2" stroke-opacity="1" visibility="visible" fill="none" display="inline" stroke="#000" color="#000" stroke-width="2"/></g></svg>