<svg viewBox="0 0 48 48" xmlns:xlink="http://www.w3.org/1999/xlink"><defs><clipPath clipPathUnits="userSpaceOnUse" id="clipPath4313"><path d="m 20 4 -7.313 3.03 -5.656 5.656 -3.03 7.313 0 8 3.03 7.313 5.656 5.656 7.313 3.03 8 0 7.313 -3.03 5.656 -5.656 3.03 -7.313 0 -8 -3.03 -7.313 -5.656 -5.656 -7.313 -3.03 -8 0 z"/></clipPath><clipPath clipPathUnits="userSpaceOnUse" id="clipPath4329"><path d="m 24 2.344 -4 1.656 -4.281 0 -3.03 3.03 l -4 1.656 -1.656 4 l -3.03 3.03 0 4.281 -1.656 4 1.656 4 l 0 4.281 3.03 3.03 1.656 4 4 1.656 l 3.03 3.03 4.281 0 4 1.656 4 -1.656 l 4.281 0 3.03 -3.03 4 -1.656 1.656 -4 l 3.03 -3.03 0 -4.281 1.656 -4 -1.656 -4 l 0 -4.281 -3.03 -3.03 -1.656 -4 -4 -1.656 l -3.03 -3.03 -4.281 0 -4 -1.656 z"/></clipPath><clipPath id="clipPath-288792577"><path d="m 24 2.344 l -4 1.656 l -4.281 0 l -3.03 3.03 l -4 1.656 l -1.656 4 l -3.03 3.03 l 0 4.281 l -1.656 4 l 1.656 4 l 0 4.281 l 3.03 3.03 l 1.656 4 l 4 1.656 l 3.03 3.03 l 4.281 0 l 4 1.656 l 4 -1.656 l 4.281 0 l 3.03 -3.03 l 4 -1.656 l 1.656 -4 l 3.03 -3.03 l 0 -4.281 l 1.656 -4 l -1.656 -4 l 0 -4.281 l -3.03 -3.03 l -1.656 -4 l -4 -1.656 l -3.03 -3.03 l -4.281 0 l -4 -1.656 z"/></clipPath><clipPath id="clipPath-300424391"><path d="m 24 2.344 l -4 1.656 l -4.281 0 l -3.03 3.03 l -4 1.656 l -1.656 4 l -3.03 3.03 l 0 4.281 l -1.656 4 l 1.656 4 l 0 4.281 l 3.03 3.03 l 1.656 4 l 4 1.656 l 3.03 3.03 l 4.281 0 l 4 1.656 l 4 -1.656 l 4.281 0 l 3.03 -3.03 l 4 -1.656 l 1.656 -4 l 3.03 -3.03 l 0 -4.281 l 1.656 -4 l -1.656 -4 l 0 -4.281 l -3.03 -3.03 l -1.656 -4 l -4 -1.656 l -3.03 -3.03 l -4.281 0 l -4 -1.656 z"/></clipPath><linearGradient id="linearGradient4317"><stop stop-color="#fff" stop-opacity="1"/><stop offset="1" stop-color="#fff" stop-opacity="0"/></linearGradient><clipPath clipPathUnits="userSpaceOnUse" id="clipPath4313"><path d="m 20 4 -7.313 3.03 -5.656 5.656 -3.03 7.313 0 8 3.03 7.313 5.656 5.656 7.313 3.03 8 0 7.313 -3.03 5.656 -5.656 3.03 -7.313 0 -8 -3.03 -7.313 -5.656 -5.656 -7.313 -3.03 -8 0 z"/></clipPath><linearGradient x2="44" x1="4" gradientUnits="userSpaceOnUse" id="linearGradient4375" xlink:href="#linearGradient4317"/><clipPath clipPathUnits="userSpaceOnUse" id="clipPath4329"><path d="m 24 2.344 -4 1.656 -4.281 0 -3.03 3.03 l -4 1.656 -1.656 4 l -3.03 3.03 0 4.281 -1.656 4 1.656 4 l 0 4.281 3.03 3.03 1.656 4 4 1.656 l 3.03 3.03 4.281 0 4 1.656 4 -1.656 l 4.281 0 3.03 -3.03 4 -1.656 1.656 -4 l 3.03 -3.03 0 -4.281 1.656 -4 -1.656 -4 l 0 -4.281 -3.03 -3.03 -1.656 -4 -4 -1.656 l -3.03 -3.03 -4.281 0 -4 -1.656 z"/></clipPath><path id="SVGCleanerId_0" d="m 24 2.344 l -4 1.656 l -4.281 0 l -3.03 3.03 l -4 1.656 l -1.656 4 l -3.03 3.03 l 0 4.281 l -1.656 4 l 1.656 4 l 0 4.281 l 3.03 3.03 l 1.656 4 l 4 1.656 l 3.03 3.03 l 4.281 0 l 4 1.656 l 4 -1.656 l 4.281 0 l 3.03 -3.03 l 4 -1.656 l 1.656 -4 l 3.03 -3.03 l 0 -4.281 l 1.656 -4 l -1.656 -4 l 0 -4.281 l -3.03 -3.03 l -1.656 -4 l -4 -1.656 l -3.03 -3.03 l -4.281 0 l -4 -1.656 z" visibility="visible" display="inline" fill-rule="nonzero" color="#000" fill-opacity="1"/></defs><g><path d="m 2.563 24.5 l -0.219 0.5 l 1.656 4 l 0 -1 l -1.438 -3.5 z m 42.875 0 l -1.438 3.5 l 0 1 l 1.656 -4 l -0.219 -0.5 z m -41.44 7.781 l 0 1 l 3.03 3.03 l 1.656 4 l 4 1.656 l 3.03 3.03 l 4.281 0 l 4 1.656 l 4 -1.656 l 4.281 0 l 3.03 -3.03 l 4 -1.656 l 1.656 -4 l 3.03 -3.03 l 0 -1 l -3.03 3.03 l -1.656 4 l -4 1.656 l -3.03 3.03 l -4.281 0 l -4 1.656 l -4 -1.656 l -4.281 0 l -3.03 -3.03 l -4 -1.656 l -1.656 -4 l -3.03 -3.03 z" opacity="0.3" visibility="visible" fill="#000" display="inline" fill-rule="nonzero" stroke="none" fill-opacity="1" color="#000"/></g><g><use fill="#e6dd60" stroke="none" xlink:href="#SVGCleanerId_0"/><path d="m 24 2.344 l -4 1.656 l 8 0 l -4 -1.656 z m 4 1.656 l 7.313 3.03 l -3.03 -3.03 l -4.281 0 z m 7.313 3.03 l 5.656 5.656 l -1.656 -4 l -4 -1.656 z m 5.656 5.656 l 3.03 7.313 l 0 -4.281 l -3.03 -3.03 z m 3.03 7.313 l 0 8 l 1.656 -4 l -1.656 -4 z m 0 8 l -3.03 7.313 l 3.03 -3.03 l 0 -4.281 z m -3.03 7.313 l -5.656 5.656 l 4 -1.656 l 1.656 -4 z m -5.656 5.656 l -7.313 3.03 l 4.281 0 l 3.03 -3.03 z m -7.313 3.03 l -8 0 l 4 1.656 l 4 -1.656 z m -8 0 l -7.313 -3.03 l 3.03 3.03 l 4.281 0 z m -7.313 -3.03 l -5.656 -5.656 l 1.656 4 l 4 1.656 z m -5.656 -5.656 l -3.03 -7.313 l 0 4.281 l 3.03 3.03 z m -3.03 -7.313 l 0 -8 l -1.656 4 l 1.656 4 z m 0 -8 l 3.03 -7.313 l -3.03 3.03 l 0 4.281 z m 3.03 -7.313 l 5.656 -5.656 l -4 1.656 l -1.656 4 z m 5.656 -5.656 l 7.313 -3.03 l -4.281 0 l -3.03 3.03 z" opacity="0.05" visibility="visible" fill="#e6dd60" display="inline" fill-rule="nonzero" stroke="none" fill-opacity="1" color="#000"/></g><g><use opacity="0.05" stroke-opacity="1" stroke-dasharray="none" fill="#000" stroke="#000" stroke-width="2" stroke-miterlimit="4" xlink:href="#SVGCleanerId_0"/><use opacity="0.1" stroke-opacity="1" stroke-dasharray="none" fill="#000" stroke="#000" stroke-width="1" stroke-miterlimit="4" xlink:href="#SVGCleanerId_0"/></g><g><g clip-path="url(#clipPath-288792577)"><g transform="translate(0,1)"><g opacity="0.1"><!-- color: #e6dd60 --><g><path d="m 13.613 21.2 l -0.395 6.141 l 0.98 4.844 l 13.05 1.012 l 7.66 -0.414 l -0.023 -5.438 l -0.148 -11.168 l -7.488 -1.012 m -13.633 6.04" fill="#000" stroke="none" fill-rule="nonzero" fill-opacity="1"/><path d="m 26.438 23.75 l -0.875 0.5 c 1.477 2.465 2.23 4.418 2.594 5.75 c 0.359 1.328 0.344 2 0.344 2 l 0.996 0 c 0 0 -0.016 -0.828 -0.406 -2.25 c -0.387 -1.422 -1.133 -3.461 -2.656 -6 m 0.004 0" fill="#000" stroke="none" fill-rule="nonzero" fill-opacity="1"/><path d="m 18.496 15.578 l -4.359 4.168 l -1.293 4.789 c 1.277 0.918 2.844 1.465 4.566 1.465 c 3.457 0 6.387 -2.191 7.32 -5.211 c 0.836 0.633 1.879 1.043 3.03 1.043 c 2.16 0 3.977 -1.344 4.633 -3.195 c 0.258 0.055 0.539 0.066 0.816 0.066 c 0.352 0 0.691 -0.047 1.02 -0.133 l -0.035 -2.539 m -15.695 -0.453" fill="#000" stroke="none" fill-rule="nonzero" fill-opacity="1"/><path d="m 19 14 l -7 7 l 0 10.488 c 0 1.418 1.18 2.512 2.547 2.512 l 18.91 0 c 1.367 0 2.543 -1.094 2.543 -2.512 l 0 -14.977 c 0 -1.418 -1.176 -2.512 -2.543 -2.512 m -15.453 1.996 l 14 0 c 0.824 0 1.996 1.191 1.996 2 l 0 12 c 0 1 -0.996 2 -1.996 2 l -16 0 c -0.996 0 -1.996 -1 -1.996 -2 l 0 -10.996 c 0 0 3.219 -3 4 -3 m 0 0" fill="#000" stroke="none" fill-rule="nonzero" fill-opacity="1"/><path d="m 22.23 32.41 c 0 0 0 -2.652 1.328 -3.98 c 1.328 -1.332 3.984 -1.332 3.984 -1.332 c 0 0 0 2.656 -1.328 3.984 c -1.332 1.328 -3.984 1.328 -3.984 1.328 m 0 0" fill="#000" stroke="none" fill-rule="nonzero" fill-opacity="1"/><path d="m 27.98 27.609 c 0 0 0.617 -2.297 2.07 -3.137 c 1.457 -0.84 3.75 -0.227 3.75 -0.227 c 0 0 -0.617 2.297 -2.07 3.137 c -1.457 0.84 -3.75 0.227 -3.75 0.227 m 0 0" fill="#000" stroke="none" fill-rule="nonzero" fill-opacity="1"/><path d="m 25.08 18.08 c -1.375 0 -2.484 1.117 -2.484 2.496 c 0 0.023 0 0.059 0 0.078 c -0.023 -0.008 -0.031 -0.02 -0.063 -0.02 c -1.332 -0.355 -2.711 0.438 -3.063 1.77 c -0.359 1.332 0.434 2.711 1.766 3.066 c 0.023 0.004 0.035 -0.004 0.055 0 c -0.012 0.02 -0.02 0.027 -0.02 0.055 c -0.691 1.195 -0.262 2.742 0.934 3.434 c 1.195 0.691 2.719 0.258 3.406 -0.938 c 0.008 -0.023 0.016 -0.035 0.023 -0.051 c 0.02 0.016 0.031 0.027 0.055 0.051 c 0.973 0.977 2.535 0.977 3.512 0 c 0.973 -0.98 0.973 -2.566 0 -3.535 c -0.02 -0.016 -0.035 -0.035 -0.055 -0.051 c 0.02 -0.023 0.055 -0.02 0.078 -0.027 c 1.191 -0.691 1.598 -2.211 0.91 -3.406 c -0.559 -0.961 -1.648 -1.391 -2.684 -1.168 c -0.32 -1 -1.254 -1.742 -2.363 -1.742 m -0.699 4.883 c 0.227 0.066 0.453 0.102 0.699 0.102 c 0.176 0 0.355 -0.016 0.52 -0.051 c 0.051 0.152 0.121 0.316 0.207 0.465 c 0.125 0.219 0.273 0.41 0.445 0.57 c -0.211 0.113 -0.398 0.242 -0.57 0.414 c -0.184 0.184 -0.332 0.387 -0.445 0.602 c -0.164 -0.176 -0.328 -0.344 -0.547 -0.469 c -0.219 -0.129 -0.465 -0.207 -0.699 -0.258 c 0.125 -0.203 0.246 -0.41 0.316 -0.648 c 0.066 -0.246 0.082 -0.484 0.078 -0.727 m -0.004 0" fill="#000" stroke="none" fill-rule="nonzero" fill-opacity="1"/><path d="m 25.484 22.23 c 1.035 0.277 1.648 1.34 1.371 2.371 c -0.277 1.031 -1.34 1.645 -2.371 1.367 c -1.035 -0.273 -1.645 -1.336 -1.371 -2.371 c 0.277 -1.031 1.34 -1.645 2.371 -1.367 m 0 0" fill="#000" stroke="none" fill-rule="nonzero" fill-opacity="1"/><path d="m 16.191 21 c 1.496 0 2.809 -1.145 2.809 -2.656 l 0 -4.34 l -7 7 l 4.191 0 m 0.004 -0.004" fill="#000" stroke="none" fill-rule="nonzero" fill-opacity="1"/></g></g></g></g></g><g><g clip-path="url(#clipPath-300424391)"><!-- color: #e6dd60 --><g><path d="m 13.613 21.2 l -0.395 6.141 l 0.98 4.844 l 13.05 1.012 l 7.66 -0.414 l -0.023 -5.438 l -0.148 -11.168 l -7.488 -1.012 m -13.633 6.04" fill="#8e9da2" stroke="none" fill-rule="nonzero" fill-opacity="1"/><path d="m 26.438 23.75 l -0.875 0.5 c 1.477 2.465 2.23 4.418 2.594 5.75 c 0.359 1.328 0.344 2 0.344 2 l 0.996 0 c 0 0 -0.016 -0.828 -0.406 -2.25 c -0.387 -1.422 -1.133 -3.461 -2.656 -6 m 0.004 0" fill="#45a345" stroke="none" fill-rule="nonzero" fill-opacity="1"/><path d="m 18.496 15.578 l -4.359 4.168 l -1.293 4.789 c 1.277 0.918 2.844 1.465 4.566 1.465 c 3.457 0 6.387 -2.191 7.32 -5.211 c 0.836 0.633 1.879 1.043 3.03 1.043 c 2.16 0 3.977 -1.344 4.633 -3.195 c 0.258 0.055 0.539 0.066 0.816 0.066 c 0.352 0 0.691 -0.047 1.02 -0.133 l -0.035 -2.539 m -15.695 -0.453" fill="#f8ddeb" stroke="none" fill-rule="nonzero" fill-opacity="1"/><path d="m 19 14 l -7 7 l 0 10.488 c 0 1.418 1.18 2.512 2.547 2.512 l 18.91 0 c 1.367 0 2.543 -1.094 2.543 -2.512 l 0 -14.977 c 0 -1.418 -1.176 -2.512 -2.543 -2.512 m -15.453 1.996 l 14 0 c 0.824 0 1.996 1.191 1.996 2 l 0 12 c 0 1 -0.996 2 -1.996 2 l -16 0 c -0.996 0 -1.996 -1 -1.996 -2 l 0 -10.996 c 0 0 3.219 -3 4 -3 m 0 0" fill="#ebe5cf" stroke="none" fill-rule="nonzero" fill-opacity="1"/><path d="m 22.23 32.41 c 0 0 0 -2.652 1.328 -3.98 c 1.328 -1.332 3.984 -1.332 3.984 -1.332 c 0 0 0 2.656 -1.328 3.984 c -1.332 1.328 -3.984 1.328 -3.984 1.328 m 0 0" fill="#45a345" stroke="none" fill-rule="nonzero" fill-opacity="1"/><path d="m 27.98 27.609 c 0 0 0.617 -2.297 2.07 -3.137 c 1.457 -0.84 3.75 -0.227 3.75 -0.227 c 0 0 -0.617 2.297 -2.07 3.137 c -1.457 0.84 -3.75 0.227 -3.75 0.227 m 0 0" fill="#45a345" stroke="none" fill-rule="nonzero" fill-opacity="1"/><path d="m 25.08 18.08 c -1.375 0 -2.484 1.117 -2.484 2.496 c 0 0.023 0 0.059 0 0.078 c -0.023 -0.008 -0.031 -0.02 -0.063 -0.02 c -1.332 -0.355 -2.711 0.438 -3.063 1.77 c -0.359 1.332 0.434 2.711 1.766 3.066 c 0.023 0.004 0.035 -0.004 0.055 0 c -0.012 0.02 -0.02 0.027 -0.02 0.055 c -0.691 1.195 -0.262 2.742 0.934 3.434 c 1.195 0.691 2.719 0.258 3.406 -0.938 c 0.008 -0.023 0.016 -0.035 0.023 -0.051 c 0.02 0.016 0.031 0.027 0.055 0.051 c 0.973 0.977 2.535 0.977 3.512 0 c 0.973 -0.98 0.973 -2.566 0 -3.535 c -0.02 -0.016 -0.035 -0.035 -0.055 -0.051 c 0.02 -0.023 0.055 -0.02 0.078 -0.027 c 1.191 -0.691 1.598 -2.211 0.91 -3.406 c -0.559 -0.961 -1.648 -1.391 -2.684 -1.168 c -0.32 -1 -1.254 -1.742 -2.363 -1.742 m -0.699 4.883 c 0.227 0.066 0.453 0.102 0.699 0.102 c 0.176 0 0.355 -0.016 0.52 -0.051 c 0.051 0.152 0.121 0.316 0.207 0.465 c 0.125 0.219 0.273 0.41 0.445 0.57 c -0.211 0.113 -0.398 0.242 -0.57 0.414 c -0.184 0.184 -0.332 0.387 -0.445 0.602 c -0.164 -0.176 -0.328 -0.344 -0.547 -0.469 c -0.219 -0.129 -0.465 -0.207 -0.699 -0.258 c 0.125 -0.203 0.246 -0.41 0.316 -0.648 c 0.066 -0.246 0.082 -0.484 0.078 -0.727 m -0.004 0" fill="#e5dd60" stroke="none" fill-rule="nonzero" fill-opacity="1"/><path d="m 25.484 22.23 c 1.035 0.277 1.648 1.34 1.371 2.371 c -0.277 1.031 -1.34 1.645 -2.371 1.367 c -1.035 -0.273 -1.645 -1.336 -1.371 -2.371 c 0.277 -1.031 1.34 -1.645 2.371 -1.367 m 0 0" fill="#b27804" stroke="none" fill-rule="nonzero" fill-opacity="1"/><path d="m 16.191 21 c 1.496 0 2.809 -1.145 2.809 -2.656 l 0 -4.34 l -7 7 l 4.191 0 m 0.004 -0.004" fill="#809495" stroke="none" fill-rule="nonzero" fill-opacity="1"/></g></g></g><g><path d="m 20 4 -7.313 3.03 -5.656 5.656 -3.03 7.313 0 8 3.03 7.313 5.656 5.656 7.313 3.03 8 0 7.313 -3.03 5.656 -5.656 3.03 -7.313 0 -8 -3.03 -7.313 -5.656 -5.656 -7.313 -3.03 -8 0 z" clip-path="url(#clipPath4313)" transform="matrix(0,1,-1,0,48,0)" opacity="0.3" stroke-opacity="1" stroke-dasharray="none" visibility="visible" fill="none" display="inline" stroke="url(#linearGradient4375)" color="#000" stroke-width="1" stroke-miterlimit="4"/><path d="m 24 2.344 -4 1.656 -4.281 0 -3.03 3.03 l -4 1.656 -1.656 4 l -3.03 3.03 0 4.281 -1.656 4 1.656 4 l 0 4.281 3.03 3.03 1.656 4 4 1.656 l 3.03 3.03 4.281 0 4 1.656 4 -1.656 l 4.281 0 3.03 -3.03 4 -1.656 1.656 -4 l 3.03 -3.03 0 -4.281 1.656 -4 -1.656 -4 l 0 -4.281 -3.03 -3.03 -1.656 -4 -4 -1.656 l -3.03 -3.03 -4.281 0 -4 -1.656 z" clip-path="url(#clipPath4329)" opacity="0.2" stroke-opacity="1" visibility="visible" fill="none" display="inline" stroke="#000" color="#000" stroke-width="2"/></g></svg>