<svg viewBox="0 0 48 48" xmlns:xlink="http://www.w3.org/1999/xlink"><defs><clipPath clipPathUnits="userSpaceOnUse" id="clipPath4313"><path d="m 20 4 -7.313 3.03 -5.656 5.656 -3.03 7.313 0 8 3.03 7.313 5.656 5.656 7.313 3.03 8 0 7.313 -3.03 5.656 -5.656 3.03 -7.313 0 -8 -3.03 -7.313 -5.656 -5.656 -7.313 -3.03 -8 0 z"/></clipPath><clipPath clipPathUnits="userSpaceOnUse" id="clipPath4329"><path d="m 24 2.344 -4 1.656 -4.281 0 -3.03 3.03 l -4 1.656 -1.656 4 l -3.03 3.03 0 4.281 -1.656 4 1.656 4 l 0 4.281 3.03 3.03 1.656 4 4 1.656 l 3.03 3.03 4.281 0 4 1.656 4 -1.656 l 4.281 0 3.03 -3.03 4 -1.656 1.656 -4 l 3.03 -3.03 0 -4.281 1.656 -4 -1.656 -4 l 0 -4.281 -3.03 -3.03 -1.656 -4 -4 -1.656 l -3.03 -3.03 -4.281 0 -4 -1.656 z"/></clipPath><clipPath id="clipPath-965977979"><path d="m 24 2.344 l -4 1.656 l -4.281 0 l -3.03 3.03 l -4 1.656 l -1.656 4 l -3.03 3.03 l 0 4.281 l -1.656 4 l 1.656 4 l 0 4.281 l 3.03 3.03 l 1.656 4 l 4 1.656 l 3.03 3.03 l 4.281 0 l 4 1.656 l 4 -1.656 l 4.281 0 l 3.03 -3.03 l 4 -1.656 l 1.656 -4 l 3.03 -3.03 l 0 -4.281 l 1.656 -4 l -1.656 -4 l 0 -4.281 l -3.03 -3.03 l -1.656 -4 l -4 -1.656 l -3.03 -3.03 l -4.281 0 l -4 -1.656 z"/></clipPath><clipPath id="clipPath-976047169"><path d="m 24 2.344 l -4 1.656 l -4.281 0 l -3.03 3.03 l -4 1.656 l -1.656 4 l -3.03 3.03 l 0 4.281 l -1.656 4 l 1.656 4 l 0 4.281 l 3.03 3.03 l 1.656 4 l 4 1.656 l 3.03 3.03 l 4.281 0 l 4 1.656 l 4 -1.656 l 4.281 0 l 3.03 -3.03 l 4 -1.656 l 1.656 -4 l 3.03 -3.03 l 0 -4.281 l 1.656 -4 l -1.656 -4 l 0 -4.281 l -3.03 -3.03 l -1.656 -4 l -4 -1.656 l -3.03 -3.03 l -4.281 0 l -4 -1.656 z"/></clipPath><linearGradient id="linearGradient4317"><stop stop-color="#fff" stop-opacity="1"/><stop offset="1" stop-color="#fff" stop-opacity="0"/></linearGradient><clipPath clipPathUnits="userSpaceOnUse" id="clipPath4313"><path d="m 20 4 -7.313 3.03 -5.656 5.656 -3.03 7.313 0 8 3.03 7.313 5.656 5.656 7.313 3.03 8 0 7.313 -3.03 5.656 -5.656 3.03 -7.313 0 -8 -3.03 -7.313 -5.656 -5.656 -7.313 -3.03 -8 0 z"/></clipPath><linearGradient x2="44" x1="4" gradientUnits="userSpaceOnUse" id="linearGradient4375" xlink:href="#linearGradient4317"/><clipPath clipPathUnits="userSpaceOnUse" id="clipPath4329"><path d="m 24 2.344 -4 1.656 -4.281 0 -3.03 3.03 l -4 1.656 -1.656 4 l -3.03 3.03 0 4.281 -1.656 4 1.656 4 l 0 4.281 3.03 3.03 1.656 4 4 1.656 l 3.03 3.03 4.281 0 4 1.656 4 -1.656 l 4.281 0 3.03 -3.03 4 -1.656 1.656 -4 l 3.03 -3.03 0 -4.281 1.656 -4 -1.656 -4 l 0 -4.281 -3.03 -3.03 -1.656 -4 -4 -1.656 l -3.03 -3.03 -4.281 0 -4 -1.656 z"/></clipPath><path id="SVGCleanerId_0" d="m 24 2.344 l -4 1.656 l -4.281 0 l -3.03 3.03 l -4 1.656 l -1.656 4 l -3.03 3.03 l 0 4.281 l -1.656 4 l 1.656 4 l 0 4.281 l 3.03 3.03 l 1.656 4 l 4 1.656 l 3.03 3.03 l 4.281 0 l 4 1.656 l 4 -1.656 l 4.281 0 l 3.03 -3.03 l 4 -1.656 l 1.656 -4 l 3.03 -3.03 l 0 -4.281 l 1.656 -4 l -1.656 -4 l 0 -4.281 l -3.03 -3.03 l -1.656 -4 l -4 -1.656 l -3.03 -3.03 l -4.281 0 l -4 -1.656 z" visibility="visible" display="inline" fill-rule="nonzero" color="#000" fill-opacity="1"/></defs><g><path d="m 2.563 24.5 l -0.219 0.5 l 1.656 4 l 0 -1 l -1.438 -3.5 z m 42.875 0 l -1.438 3.5 l 0 1 l 1.656 -4 l -0.219 -0.5 z m -41.44 7.781 l 0 1 l 3.03 3.03 l 1.656 4 l 4 1.656 l 3.03 3.03 l 4.281 0 l 4 1.656 l 4 -1.656 l 4.281 0 l 3.03 -3.03 l 4 -1.656 l 1.656 -4 l 3.03 -3.03 l 0 -1 l -3.03 3.03 l -1.656 4 l -4 1.656 l -3.03 3.03 l -4.281 0 l -4 1.656 l -4 -1.656 l -4.281 0 l -3.03 -3.03 l -4 -1.656 l -1.656 -4 l -3.03 -3.03 z" opacity="0.3" visibility="visible" fill="#000" display="inline" fill-rule="nonzero" stroke="none" fill-opacity="1" color="#000"/></g><g><use fill="#eee" stroke="none" xlink:href="#SVGCleanerId_0"/><path d="m 24 2.344 l -4 1.656 l 8 0 l -4 -1.656 z m 4 1.656 l 7.313 3.03 l -3.03 -3.03 l -4.281 0 z m 7.313 3.03 l 5.656 5.656 l -1.656 -4 l -4 -1.656 z m 5.656 5.656 l 3.03 7.313 l 0 -4.281 l -3.03 -3.03 z m 3.03 7.313 l 0 8 l 1.656 -4 l -1.656 -4 z m 0 8 l -3.03 7.313 l 3.03 -3.03 l 0 -4.281 z m -3.03 7.313 l -5.656 5.656 l 4 -1.656 l 1.656 -4 z m -5.656 5.656 l -7.313 3.03 l 4.281 0 l 3.03 -3.03 z m -7.313 3.03 l -8 0 l 4 1.656 l 4 -1.656 z m -8 0 l -7.313 -3.03 l 3.03 3.03 l 4.281 0 z m -7.313 -3.03 l -5.656 -5.656 l 1.656 4 l 4 1.656 z m -5.656 -5.656 l -3.03 -7.313 l 0 4.281 l 3.03 3.03 z m -3.03 -7.313 l 0 -8 l -1.656 4 l 1.656 4 z m 0 -8 l 3.03 -7.313 l -3.03 3.03 l 0 4.281 z m 3.03 -7.313 l 5.656 -5.656 l -4 1.656 l -1.656 4 z m 5.656 -5.656 l 7.313 -3.03 l -4.281 0 l -3.03 3.03 z" opacity="0.05" visibility="visible" fill="#eee" display="inline" fill-rule="nonzero" stroke="none" fill-opacity="1" color="#000"/></g><g><use opacity="0.05" stroke-opacity="1" stroke-dasharray="none" fill="#000" stroke="#000" stroke-width="2" stroke-miterlimit="4" xlink:href="#SVGCleanerId_0"/><use opacity="0.1" stroke-opacity="1" stroke-dasharray="none" fill="#000" stroke="#000" stroke-width="1" stroke-miterlimit="4" xlink:href="#SVGCleanerId_0"/></g><g><g clip-path="url(#clipPath-965977979)"><g transform="translate(0,1)"><g opacity="0.1"><!-- color: #eeeeee --><g><path d="m 24 9 c -8.285 0 -15 6.715 -15 15 c 0 8.285 6.715 15 15 15 c 8.285 0 15 -6.715 15 -15 c 0 -8.285 -6.715 -15 -15 -15 m 0 2.531 c 6.887 0 12.469 5.582 12.469 12.469 c 0 6.887 -5.582 12.469 -12.469 12.469 c -6.887 0 -12.469 -5.582 -12.469 -12.469 c 0 -6.887 5.582 -12.469 12.469 -12.469 m 0 0" fill="#000" stroke="none" fill-rule="nonzero" fill-opacity="1"/><path d="m 24 10 c -7.73 0 -14 6.27 -14 14 c 0 7.73 6.27 14 14 14 c 7.73 0 14 -6.27 14 -14 c 0 -7.73 -6.27 -14 -14 -14 m 0 3 c 6.074 0 11 4.926 11 11 c 0 6.074 -4.926 11 -11 11 c -6.074 0 -11 -4.926 -11 -11 c 0 -6.074 4.926 -11 11 -11 m 0 0" fill="#000" stroke="none" fill-rule="nonzero" fill-opacity="1"/><path d="m 13.793 31.02 l 17.977 -17.395 l 2.781 2.875 l -17.977 17.395 m -2.781 -2.875" fill="#000" stroke="none" fill-rule="nonzero" fill-opacity="1"/><path d="m 25 24 c 0 0.555 -0.449 1 -1 1 c -0.551 0 -1 -0.445 -1 -1 c 0 -0.551 0.449 -1 1 -1 c 0.551 0 1 0.449 1 1 m 0 0" fill="#000" stroke="none" fill-rule="nonzero" fill-opacity="1"/><path d="m 23 11 l 1.996 0 l 0 0.996 l -1.996 0 m 0 -0.996" fill="#000" stroke="none" fill-rule="nonzero" fill-opacity="1"/><path d="m 23 36 l 1.996 0 l 0 1 l -1.996 0 m 0 -1" fill="#000" stroke="none" fill-rule="nonzero" fill-opacity="1"/><path d="m 37 23 l 0 1.996 l -1 0 l 0 -1.996 m 1 0" fill="#000" stroke="none" fill-rule="nonzero" fill-opacity="1"/><path d="m 12 23 l 0 1.996 l -0.996 0 l 0 -1.996 m 0.996 0" fill="#000" stroke="none" fill-rule="nonzero" fill-opacity="1"/><path d="m 14.1 15.516 l 1.414 -1.414 l 0.703 0.707 l -1.41 1.41 m -0.707 -0.703" fill="#000" stroke="none" fill-rule="nonzero" fill-opacity="1"/><path d="m 31.781 33.19 l 1.41 -1.41 l 0.707 0.703 l -1.414 1.414 m -0.703 -0.707" fill="#000" stroke="none" fill-rule="nonzero" fill-opacity="1"/><path d="m 32.484 14.1 l 1.414 1.414 l -0.707 0.703 l -1.41 -1.41 m 0.703 -0.707" fill="#000" stroke="none" fill-rule="nonzero" fill-opacity="1"/><path d="m 14.809 31.781 l 1.41 1.41 l -0.703 0.707 l -1.414 -1.414 m 0.707 -0.703" fill="#000" stroke="none" fill-rule="nonzero" fill-opacity="1"/></g></g></g></g></g><g><g clip-path="url(#clipPath-976047169)"><!-- color: #eeeeee --><g><path d="m 24 9 c -8.285 0 -15 6.715 -15 15 c 0 8.285 6.715 15 15 15 c 8.285 0 15 -6.715 15 -15 c 0 -8.285 -6.715 -15 -15 -15 m 0 2.531 c 6.887 0 12.469 5.582 12.469 12.469 c 0 6.887 -5.582 12.469 -12.469 12.469 c -6.887 0 -12.469 -5.582 -12.469 -12.469 c 0 -6.887 5.582 -12.469 12.469 -12.469 m 0 0" fill="#3d9ade" stroke="none" fill-rule="nonzero" fill-opacity="1"/><path d="m 24 10 c -7.73 0 -14 6.27 -14 14 c 0 7.73 6.27 14 14 14 c 7.73 0 14 -6.27 14 -14 c 0 -7.73 -6.27 -14 -14 -14 m 0 3 c 6.074 0 11 4.926 11 11 c 0 6.074 -4.926 11 -11 11 c -6.074 0 -11 -4.926 -11 -11 c 0 -6.074 4.926 -11 11 -11 m 0 0" fill="#06c" stroke="none" fill-rule="nonzero" fill-opacity="1"/><path d="m 13.793 31.02 l 17.977 -17.395 l 2.781 2.875 l -17.977 17.395 m -2.781 -2.875" fill="#06c" stroke="none" fill-rule="nonzero" fill-opacity="1"/><path d="m 25 24 c 0 0.555 -0.449 1 -1 1 c -0.551 0 -1 -0.445 -1 -1 c 0 -0.551 0.449 -1 1 -1 c 0.551 0 1 0.449 1 1 m 0 0" fill="#dbdbdb" stroke="none" fill-rule="nonzero" fill-opacity="1"/><path d="m 23 11 l 1.996 0 l 0 0.996 l -1.996 0 m 0 -0.996" fill="#e3e3e3" stroke="none" fill-rule="nonzero" fill-opacity="1"/><path d="m 23 36 l 1.996 0 l 0 1 l -1.996 0 m 0 -1" fill="#d0d0d0" stroke="none" fill-rule="nonzero" fill-opacity="1"/><path d="m 37 23 l 0 1.996 l -1 0 l 0 -1.996 m 1 0" fill="#dcdcdc" stroke="none" fill-rule="nonzero" fill-opacity="1"/><path d="m 12 23 l 0 1.996 l -0.996 0 l 0 -1.996 m 0.996 0" fill="#dcdcdc" stroke="none" fill-rule="nonzero" fill-opacity="1"/><path d="m 14.1 15.516 l 1.414 -1.414 l 0.703 0.707 l -1.41 1.41 m -0.707 -0.703" fill="#dedede" stroke="none" fill-rule="nonzero" fill-opacity="1"/><path d="m 31.781 33.19 l 1.41 -1.41 l 0.707 0.703 l -1.414 1.414 m -0.703 -0.707" fill="#d6d6d6" stroke="none" fill-rule="nonzero" fill-opacity="1"/><path d="m 32.484 14.1 l 1.414 1.414 l -0.707 0.703 l -1.41 -1.41 m 0.703 -0.707" fill="#dedede" stroke="none" fill-rule="nonzero" fill-opacity="1"/><path d="m 14.809 31.781 l 1.41 1.41 l -0.703 0.707 l -1.414 -1.414 m 0.707 -0.703" fill="#d6d6d6" stroke="none" fill-rule="nonzero" fill-opacity="1"/></g></g></g><g><path d="m 20 4 -7.313 3.03 -5.656 5.656 -3.03 7.313 0 8 3.03 7.313 5.656 5.656 7.313 3.03 8 0 7.313 -3.03 5.656 -5.656 3.03 -7.313 0 -8 -3.03 -7.313 -5.656 -5.656 -7.313 -3.03 -8 0 z" clip-path="url(#clipPath4313)" transform="matrix(0,1,-1,0,48,0)" opacity="0.3" stroke-opacity="1" stroke-dasharray="none" visibility="visible" fill="none" display="inline" stroke="url(#linearGradient4375)" color="#000" stroke-width="1" stroke-miterlimit="4"/><path d="m 24 2.344 -4 1.656 -4.281 0 -3.03 3.03 l -4 1.656 -1.656 4 l -3.03 3.03 0 4.281 -1.656 4 1.656 4 l 0 4.281 3.03 3.03 1.656 4 4 1.656 l 3.03 3.03 4.281 0 4 1.656 4 -1.656 l 4.281 0 3.03 -3.03 4 -1.656 1.656 -4 l 3.03 -3.03 0 -4.281 1.656 -4 -1.656 -4 l 0 -4.281 -3.03 -3.03 -1.656 -4 -4 -1.656 l -3.03 -3.03 -4.281 0 -4 -1.656 z" clip-path="url(#clipPath4329)" opacity="0.2" stroke-opacity="1" visibility="visible" fill="none" display="inline" stroke="#000" color="#000" stroke-width="2"/></g></svg>