<svg viewBox="0 0 48 48" xmlns:xlink="http://www.w3.org/1999/xlink"><defs><clipPath clipPathUnits="userSpaceOnUse" id="clipPath4313"><path d="m 20 4 -7.313 3.03 -5.656 5.656 -3.03 7.313 0 8 3.03 7.313 5.656 5.656 7.313 3.03 8 0 7.313 -3.03 5.656 -5.656 3.03 -7.313 0 -8 -3.03 -7.313 -5.656 -5.656 -7.313 -3.03 -8 0 z"/></clipPath><clipPath clipPathUnits="userSpaceOnUse" id="clipPath4329"><path d="m 24 2.344 -4 1.656 -4.281 0 -3.03 3.03 l -4 1.656 -1.656 4 l -3.03 3.03 0 4.281 -1.656 4 1.656 4 l 0 4.281 3.03 3.03 1.656 4 4 1.656 l 3.03 3.03 4.281 0 4 1.656 4 -1.656 l 4.281 0 3.03 -3.03 4 -1.656 1.656 -4 l 3.03 -3.03 0 -4.281 1.656 -4 -1.656 -4 l 0 -4.281 -3.03 -3.03 -1.656 -4 -4 -1.656 l -3.03 -3.03 -4.281 0 -4 -1.656 z"/></clipPath><clipPath id="clipPath-267304666"><path d="m 24 2.344 l -4 1.656 l -4.281 0 l -3.03 3.03 l -4 1.656 l -1.656 4 l -3.03 3.03 l 0 4.281 l -1.656 4 l 1.656 4 l 0 4.281 l 3.03 3.03 l 1.656 4 l 4 1.656 l 3.03 3.03 l 4.281 0 l 4 1.656 l 4 -1.656 l 4.281 0 l 3.03 -3.03 l 4 -1.656 l 1.656 -4 l 3.03 -3.03 l 0 -4.281 l 1.656 -4 l -1.656 -4 l 0 -4.281 l -3.03 -3.03 l -1.656 -4 l -4 -1.656 l -3.03 -3.03 l -4.281 0 l -4 -1.656 z"/></clipPath><clipPath id="clipPath-275072250"><path d="m 24 2.344 l -4 1.656 l -4.281 0 l -3.03 3.03 l -4 1.656 l -1.656 4 l -3.03 3.03 l 0 4.281 l -1.656 4 l 1.656 4 l 0 4.281 l 3.03 3.03 l 1.656 4 l 4 1.656 l 3.03 3.03 l 4.281 0 l 4 1.656 l 4 -1.656 l 4.281 0 l 3.03 -3.03 l 4 -1.656 l 1.656 -4 l 3.03 -3.03 l 0 -4.281 l 1.656 -4 l -1.656 -4 l 0 -4.281 l -3.03 -3.03 l -1.656 -4 l -4 -1.656 l -3.03 -3.03 l -4.281 0 l -4 -1.656 z"/></clipPath><linearGradient id="linearGradient4317"><stop stop-color="#fff" stop-opacity="1"/><stop offset="1" stop-color="#fff" stop-opacity="0"/></linearGradient><clipPath clipPathUnits="userSpaceOnUse" id="clipPath4313"><path d="m 20 4 -7.313 3.03 -5.656 5.656 -3.03 7.313 0 8 3.03 7.313 5.656 5.656 7.313 3.03 8 0 7.313 -3.03 5.656 -5.656 3.03 -7.313 0 -8 -3.03 -7.313 -5.656 -5.656 -7.313 -3.03 -8 0 z"/></clipPath><linearGradient x2="44" x1="4" gradientUnits="userSpaceOnUse" id="linearGradient4375" xlink:href="#linearGradient4317"/><clipPath clipPathUnits="userSpaceOnUse" id="clipPath4329"><path d="m 24 2.344 -4 1.656 -4.281 0 -3.03 3.03 l -4 1.656 -1.656 4 l -3.03 3.03 0 4.281 -1.656 4 1.656 4 l 0 4.281 3.03 3.03 1.656 4 4 1.656 l 3.03 3.03 4.281 0 4 1.656 4 -1.656 l 4.281 0 3.03 -3.03 4 -1.656 1.656 -4 l 3.03 -3.03 0 -4.281 1.656 -4 -1.656 -4 l 0 -4.281 -3.03 -3.03 -1.656 -4 -4 -1.656 l -3.03 -3.03 -4.281 0 -4 -1.656 z"/></clipPath><path id="SVGCleanerId_0" d="m 24 2.344 l -4 1.656 l -4.281 0 l -3.03 3.03 l -4 1.656 l -1.656 4 l -3.03 3.03 l 0 4.281 l -1.656 4 l 1.656 4 l 0 4.281 l 3.03 3.03 l 1.656 4 l 4 1.656 l 3.03 3.03 l 4.281 0 l 4 1.656 l 4 -1.656 l 4.281 0 l 3.03 -3.03 l 4 -1.656 l 1.656 -4 l 3.03 -3.03 l 0 -4.281 l 1.656 -4 l -1.656 -4 l 0 -4.281 l -3.03 -3.03 l -1.656 -4 l -4 -1.656 l -3.03 -3.03 l -4.281 0 l -4 -1.656 z" visibility="visible" display="inline" fill-rule="nonzero" color="#000" fill-opacity="1"/></defs><g><path d="m 2.563 24.5 l -0.219 0.5 l 1.656 4 l 0 -1 l -1.438 -3.5 z m 42.875 0 l -1.438 3.5 l 0 1 l 1.656 -4 l -0.219 -0.5 z m -41.44 7.781 l 0 1 l 3.03 3.03 l 1.656 4 l 4 1.656 l 3.03 3.03 l 4.281 0 l 4 1.656 l 4 -1.656 l 4.281 0 l 3.03 -3.03 l 4 -1.656 l 1.656 -4 l 3.03 -3.03 l 0 -1 l -3.03 3.03 l -1.656 4 l -4 1.656 l -3.03 3.03 l -4.281 0 l -4 1.656 l -4 -1.656 l -4.281 0 l -3.03 -3.03 l -4 -1.656 l -1.656 -4 l -3.03 -3.03 z" opacity="0.3" visibility="visible" fill="#000" display="inline" fill-rule="nonzero" stroke="none" fill-opacity="1" color="#000"/></g><g><use fill="#474747" stroke="none" xlink:href="#SVGCleanerId_0"/><path d="m 24 2.344 l -4 1.656 l 8 0 l -4 -1.656 z m 4 1.656 l 7.313 3.03 l -3.03 -3.03 l -4.281 0 z m 7.313 3.03 l 5.656 5.656 l -1.656 -4 l -4 -1.656 z m 5.656 5.656 l 3.03 7.313 l 0 -4.281 l -3.03 -3.03 z m 3.03 7.313 l 0 8 l 1.656 -4 l -1.656 -4 z m 0 8 l -3.03 7.313 l 3.03 -3.03 l 0 -4.281 z m -3.03 7.313 l -5.656 5.656 l 4 -1.656 l 1.656 -4 z m -5.656 5.656 l -7.313 3.03 l 4.281 0 l 3.03 -3.03 z m -7.313 3.03 l -8 0 l 4 1.656 l 4 -1.656 z m -8 0 l -7.313 -3.03 l 3.03 3.03 l 4.281 0 z m -7.313 -3.03 l -5.656 -5.656 l 1.656 4 l 4 1.656 z m -5.656 -5.656 l -3.03 -7.313 l 0 4.281 l 3.03 3.03 z m -3.03 -7.313 l 0 -8 l -1.656 4 l 1.656 4 z m 0 -8 l 3.03 -7.313 l -3.03 3.03 l 0 4.281 z m 3.03 -7.313 l 5.656 -5.656 l -4 1.656 l -1.656 4 z m 5.656 -5.656 l 7.313 -3.03 l -4.281 0 l -3.03 3.03 z" opacity="0.05" visibility="visible" fill="#474747" display="inline" fill-rule="nonzero" stroke="none" fill-opacity="1" color="#000"/></g><g><use opacity="0.05" stroke-opacity="1" stroke-dasharray="none" fill="#000" stroke="#000" stroke-width="2" stroke-miterlimit="4" xlink:href="#SVGCleanerId_0"/><use opacity="0.1" stroke-opacity="1" stroke-dasharray="none" fill="#000" stroke="#000" stroke-width="1" stroke-miterlimit="4" xlink:href="#SVGCleanerId_0"/></g><g><g clip-path="url(#clipPath-267304666)"><g transform="translate(0,1)"><g opacity="0.1"><!-- color: #474747 --><g><path d="m 22.781 11.141 c -2.59 0.203 -5.121 0.621 -6.637 1.152 c -3.039 1.059 -3.527 1.125 -3.289 2.172 c 1.051 1.563 1.59 3.324 2.559 4.938 c 0.285 0.207 0.621 0.32 1.109 0.113 c 4.03 -1.566 8.199 -2.332 14.02 -0.996 c 1.617 -1.035 2.262 -3.699 2.719 -5.383 c 0.254 -0.953 -0.086 -1.258 -3.531 -1.887 c -1.723 -0.316 -4.359 -0.32 -6.945 -0.113 m -6.074 3.363 c 0.316 -0.027 0.594 0.203 0.621 0.512 c 0.023 0.309 -0.215 0.578 -0.531 0.605 c -0.313 0.023 -0.594 -0.207 -0.617 -0.516 c -0.027 -0.309 0.211 -0.578 0.527 -0.602 m 12.648 -0.953 c 0.316 -0.027 0.594 0.203 0.617 0.512 c 0.023 0.309 -0.207 0.578 -0.527 0.605 c -0.316 0.023 -0.598 -0.207 -0.621 -0.516 c -0.023 -0.309 0.215 -0.578 0.527 -0.602 m 0.004 0" fill="#000" stroke="none" fill-rule="nonzero" fill-opacity="1"/><path d="m 24 13.645 c -6.629 0 -12 5.227 -12 11.676 c 0 6.449 5.375 11.676 12 11.676 c 6.625 0 12 -5.227 12 -11.676 c 0 -6.449 -5.371 -11.676 -12 -11.676 m 0 8.03 c 2.066 0 3.746 1.637 3.746 3.648 c 0 2.01 -1.68 3.648 -3.746 3.648 c -2.066 0 -3.75 -1.637 -3.75 -3.648 c 0 -2.01 1.684 -3.648 3.75 -3.648 m 0 0.73 c -1.664 0 -3 1.301 -3 2.918 c 0 1.617 1.34 2.918 3 2.918 c 1.66 0 3 -1.301 3 -2.918 c 0 -1.617 -1.34 -2.918 -3 -2.918 m 0 1.094 c 1.035 0 1.875 0.816 1.875 1.824 c 0 1.01 -0.84 1.824 -1.875 1.824 c -1.035 0 -1.875 -0.816 -1.875 -1.824 c 0 -1.012 0.84 -1.824 1.875 -1.824 m 0 0" fill="#000" stroke="none" fill-rule="nonzero" fill-opacity="1"/></g></g></g></g></g><g><g clip-path="url(#clipPath-275072250)"><!-- color: #474747 --><g><path d="m 22.781 11.141 c -2.59 0.203 -5.121 0.621 -6.637 1.152 c -3.039 1.059 -3.527 1.125 -3.289 2.172 c 1.051 1.563 1.59 3.324 2.559 4.938 c 0.285 0.207 0.621 0.32 1.109 0.113 c 4.03 -1.566 8.199 -2.332 14.02 -0.996 c 1.617 -1.035 2.262 -3.699 2.719 -5.383 c 0.254 -0.953 -0.086 -1.258 -3.531 -1.887 c -1.723 -0.316 -4.359 -0.32 -6.945 -0.113 m -6.074 3.363 c 0.316 -0.027 0.594 0.203 0.621 0.512 c 0.023 0.309 -0.215 0.578 -0.531 0.605 c -0.313 0.023 -0.594 -0.207 -0.617 -0.516 c -0.027 -0.309 0.211 -0.578 0.527 -0.602 m 12.648 -0.953 c 0.316 -0.027 0.594 0.203 0.617 0.512 c 0.023 0.309 -0.207 0.578 -0.527 0.605 c -0.316 0.023 -0.598 -0.207 -0.621 -0.516 c -0.023 -0.309 0.215 -0.578 0.527 -0.602 m 0.004 0" fill="#e5604c" stroke="none" fill-rule="nonzero" fill-opacity="1"/><path d="m 24 13.645 c -6.629 0 -12 5.227 -12 11.676 c 0 6.449 5.375 11.676 12 11.676 c 6.625 0 12 -5.227 12 -11.676 c 0 -6.449 -5.371 -11.676 -12 -11.676 m 0 8.03 c 2.066 0 3.746 1.637 3.746 3.648 c 0 2.01 -1.68 3.648 -3.746 3.648 c -2.066 0 -3.75 -1.637 -3.75 -3.648 c 0 -2.01 1.684 -3.648 3.75 -3.648 m 0 0.73 c -1.664 0 -3 1.301 -3 2.918 c 0 1.617 1.34 2.918 3 2.918 c 1.66 0 3 -1.301 3 -2.918 c 0 -1.617 -1.34 -2.918 -3 -2.918 m 0 1.094 c 1.035 0 1.875 0.816 1.875 1.824 c 0 1.01 -0.84 1.824 -1.875 1.824 c -1.035 0 -1.875 -0.816 -1.875 -1.824 c 0 -1.012 0.84 -1.824 1.875 -1.824 m 0 0" fill="#4ca3e5" stroke="none" fill-rule="nonzero" fill-opacity="1"/></g></g></g><g><path d="m 20 4 -7.313 3.03 -5.656 5.656 -3.03 7.313 0 8 3.03 7.313 5.656 5.656 7.313 3.03 8 0 7.313 -3.03 5.656 -5.656 3.03 -7.313 0 -8 -3.03 -7.313 -5.656 -5.656 -7.313 -3.03 -8 0 z" clip-path="url(#clipPath4313)" transform="matrix(0,1,-1,0,48,0)" opacity="0.3" stroke-opacity="1" stroke-dasharray="none" visibility="visible" fill="none" display="inline" stroke="url(#linearGradient4375)" color="#000" stroke-width="1" stroke-miterlimit="4"/><path d="m 24 2.344 -4 1.656 -4.281 0 -3.03 3.03 l -4 1.656 -1.656 4 l -3.03 3.03 0 4.281 -1.656 4 1.656 4 l 0 4.281 3.03 3.03 1.656 4 4 1.656 l 3.03 3.03 4.281 0 4 1.656 4 -1.656 l 4.281 0 3.03 -3.03 4 -1.656 1.656 -4 l 3.03 -3.03 0 -4.281 1.656 -4 -1.656 -4 l 0 -4.281 -3.03 -3.03 -1.656 -4 -4 -1.656 l -3.03 -3.03 -4.281 0 -4 -1.656 z" clip-path="url(#clipPath4329)" opacity="0.2" stroke-opacity="1" visibility="visible" fill="none" display="inline" stroke="#000" color="#000" stroke-width="2"/></g></svg>