<svg viewBox="0 0 48 48" xmlns:xlink="http://www.w3.org/1999/xlink"><defs><clipPath clipPathUnits="userSpaceOnUse" id="clipPath4313"><path d="m 20 4 -7.313 3.03 -5.656 5.656 -3.03 7.313 0 8 3.03 7.313 5.656 5.656 7.313 3.03 8 0 7.313 -3.03 5.656 -5.656 3.03 -7.313 0 -8 -3.03 -7.313 -5.656 -5.656 -7.313 -3.03 -8 0 z"/></clipPath><clipPath clipPathUnits="userSpaceOnUse" id="clipPath4329"><path d="m 24 2.344 -4 1.656 -4.281 0 -3.03 3.03 l -4 1.656 -1.656 4 l -3.03 3.03 0 4.281 -1.656 4 1.656 4 l 0 4.281 3.03 3.03 1.656 4 4 1.656 l 3.03 3.03 4.281 0 4 1.656 4 -1.656 l 4.281 0 3.03 -3.03 4 -1.656 1.656 -4 l 3.03 -3.03 0 -4.281 1.656 -4 -1.656 -4 l 0 -4.281 -3.03 -3.03 -1.656 -4 -4 -1.656 l -3.03 -3.03 -4.281 0 -4 -1.656 z"/></clipPath><clipPath id="clipPath-634075625"><path d="m 24 2.344 l -4 1.656 l -4.281 0 l -3.03 3.03 l -4 1.656 l -1.656 4 l -3.03 3.03 l 0 4.281 l -1.656 4 l 1.656 4 l 0 4.281 l 3.03 3.03 l 1.656 4 l 4 1.656 l 3.03 3.03 l 4.281 0 l 4 1.656 l 4 -1.656 l 4.281 0 l 3.03 -3.03 l 4 -1.656 l 1.656 -4 l 3.03 -3.03 l 0 -4.281 l 1.656 -4 l -1.656 -4 l 0 -4.281 l -3.03 -3.03 l -1.656 -4 l -4 -1.656 l -3.03 -3.03 l -4.281 0 l -4 -1.656 z"/></clipPath><clipPath id="clipPath-642090013"><path d="m 24 2.344 l -4 1.656 l -4.281 0 l -3.03 3.03 l -4 1.656 l -1.656 4 l -3.03 3.03 l 0 4.281 l -1.656 4 l 1.656 4 l 0 4.281 l 3.03 3.03 l 1.656 4 l 4 1.656 l 3.03 3.03 l 4.281 0 l 4 1.656 l 4 -1.656 l 4.281 0 l 3.03 -3.03 l 4 -1.656 l 1.656 -4 l 3.03 -3.03 l 0 -4.281 l 1.656 -4 l -1.656 -4 l 0 -4.281 l -3.03 -3.03 l -1.656 -4 l -4 -1.656 l -3.03 -3.03 l -4.281 0 l -4 -1.656 z"/></clipPath><linearGradient id="linearGradient4317"><stop stop-color="#fff" stop-opacity="1"/><stop offset="1" stop-color="#fff" stop-opacity="0"/></linearGradient><clipPath clipPathUnits="userSpaceOnUse" id="clipPath4313"><path d="m 20 4 -7.313 3.03 -5.656 5.656 -3.03 7.313 0 8 3.03 7.313 5.656 5.656 7.313 3.03 8 0 7.313 -3.03 5.656 -5.656 3.03 -7.313 0 -8 -3.03 -7.313 -5.656 -5.656 -7.313 -3.03 -8 0 z"/></clipPath><linearGradient x2="44" x1="4" gradientUnits="userSpaceOnUse" id="linearGradient4375" xlink:href="#linearGradient4317"/><clipPath clipPathUnits="userSpaceOnUse" id="clipPath4329"><path d="m 24 2.344 -4 1.656 -4.281 0 -3.03 3.03 l -4 1.656 -1.656 4 l -3.03 3.03 0 4.281 -1.656 4 1.656 4 l 0 4.281 3.03 3.03 1.656 4 4 1.656 l 3.03 3.03 4.281 0 4 1.656 4 -1.656 l 4.281 0 3.03 -3.03 4 -1.656 1.656 -4 l 3.03 -3.03 0 -4.281 1.656 -4 -1.656 -4 l 0 -4.281 -3.03 -3.03 -1.656 -4 -4 -1.656 l -3.03 -3.03 -4.281 0 -4 -1.656 z"/></clipPath><path id="SVGCleanerId_0" d="m 24 2.344 l -4 1.656 l -4.281 0 l -3.03 3.03 l -4 1.656 l -1.656 4 l -3.03 3.03 l 0 4.281 l -1.656 4 l 1.656 4 l 0 4.281 l 3.03 3.03 l 1.656 4 l 4 1.656 l 3.03 3.03 l 4.281 0 l 4 1.656 l 4 -1.656 l 4.281 0 l 3.03 -3.03 l 4 -1.656 l 1.656 -4 l 3.03 -3.03 l 0 -4.281 l 1.656 -4 l -1.656 -4 l 0 -4.281 l -3.03 -3.03 l -1.656 -4 l -4 -1.656 l -3.03 -3.03 l -4.281 0 l -4 -1.656 z" visibility="visible" display="inline" fill-rule="nonzero" color="#000" fill-opacity="1"/></defs><g><path d="m 2.563 24.5 l -0.219 0.5 l 1.656 4 l 0 -1 l -1.438 -3.5 z m 42.875 0 l -1.438 3.5 l 0 1 l 1.656 -4 l -0.219 -0.5 z m -41.44 7.781 l 0 1 l 3.03 3.03 l 1.656 4 l 4 1.656 l 3.03 3.03 l 4.281 0 l 4 1.656 l 4 -1.656 l 4.281 0 l 3.03 -3.03 l 4 -1.656 l 1.656 -4 l 3.03 -3.03 l 0 -1 l -3.03 3.03 l -1.656 4 l -4 1.656 l -3.03 3.03 l -4.281 0 l -4 1.656 l -4 -1.656 l -4.281 0 l -3.03 -3.03 l -4 -1.656 l -1.656 -4 l -3.03 -3.03 z" opacity="0.3" visibility="visible" fill="#000" display="inline" fill-rule="nonzero" stroke="none" fill-opacity="1" color="#000"/></g><g><use fill="#d9281e" stroke="none" xlink:href="#SVGCleanerId_0"/><path d="m 24 2.344 l -4 1.656 l 8 0 l -4 -1.656 z m 4 1.656 l 7.313 3.03 l -3.03 -3.03 l -4.281 0 z m 7.313 3.03 l 5.656 5.656 l -1.656 -4 l -4 -1.656 z m 5.656 5.656 l 3.03 7.313 l 0 -4.281 l -3.03 -3.03 z m 3.03 7.313 l 0 8 l 1.656 -4 l -1.656 -4 z m 0 8 l -3.03 7.313 l 3.03 -3.03 l 0 -4.281 z m -3.03 7.313 l -5.656 5.656 l 4 -1.656 l 1.656 -4 z m -5.656 5.656 l -7.313 3.03 l 4.281 0 l 3.03 -3.03 z m -7.313 3.03 l -8 0 l 4 1.656 l 4 -1.656 z m -8 0 l -7.313 -3.03 l 3.03 3.03 l 4.281 0 z m -7.313 -3.03 l -5.656 -5.656 l 1.656 4 l 4 1.656 z m -5.656 -5.656 l -3.03 -7.313 l 0 4.281 l 3.03 3.03 z m -3.03 -7.313 l 0 -8 l -1.656 4 l 1.656 4 z m 0 -8 l 3.03 -7.313 l -3.03 3.03 l 0 4.281 z m 3.03 -7.313 l 5.656 -5.656 l -4 1.656 l -1.656 4 z m 5.656 -5.656 l 7.313 -3.03 l -4.281 0 l -3.03 3.03 z" opacity="0.05" visibility="visible" fill="#d9281e" display="inline" fill-rule="nonzero" stroke="none" fill-opacity="1" color="#000"/></g><g><use opacity="0.05" stroke-opacity="1" stroke-dasharray="none" fill="#000" stroke="#000" stroke-width="2" stroke-miterlimit="4" xlink:href="#SVGCleanerId_0"/><use opacity="0.1" stroke-opacity="1" stroke-dasharray="none" fill="#000" stroke="#000" stroke-width="1" stroke-miterlimit="4" xlink:href="#SVGCleanerId_0"/></g><g><g clip-path="url(#clipPath-634075625)"><g transform="translate(0,1)"><g opacity="0.1"><!-- color: #d9281e --><g><path d="m 12 35.992 c 0 -0.012 0.207 -0.129 0.461 -0.27 c 2.355 -1.285 4.309 -3.03 5.547 -4.957 c 1.414 -2.199 2.188 -4.809 2.5 -8.398 c 0.09 -1.016 0.094 -4.707 0.004 -5.539 c -0.141 -1.352 -0.336 -2.293 -0.68 -3.285 c -0.215 -0.629 -0.25 -0.988 -0.102 -1.254 c 0.219 -0.406 0.504 -0.391 1.973 0.09 c 1.809 0.598 2.07 0.695 2.172 0.84 c 0.117 0.16 0.098 0.266 -0.215 1.434 c -0.543 2.01 -0.801 4.164 -0.867 7.172 l -0.035 1.621 l 0.242 0.328 c 0.652 0.875 1.016 1.379 1.672 2.328 c 1.605 2.305 2.527 3.469 3.438 4.332 c 1.262 1.195 2.148 1.844 3.633 2.652 c 0.93 0.508 1.465 0.754 2.727 1.242 c 0.559 0.215 1.098 0.434 1.195 0.477 c 0.211 0.102 0.383 0.293 0.316 0.359 c -0.305 0.332 -4.973 0.641 -6.203 0.406 c -2.07 -0.391 -3.91 -2.164 -7.316 -7.05 l -0.691 -0.988 l -0.133 0.637 c -0.293 1.375 -0.793 2.688 -1.395 3.656 c -0.41 0.656 -1.414 1.754 -2.01 2.188 c -1.297 0.953 -2.895 1.543 -5.03 1.855 c -0.848 0.121 -1.215 0.16 -1.215 0.133 m 4.832 -13.41 c -0.91 -0.41 -1.934 -1.707 -2.691 -3.414 c -0.367 -0.836 -0.461 -1.316 -0.316 -1.688 c 0.195 -0.5 0.934 -0.453 2.039 0.137 c 1.074 0.574 1.945 1.285 2.289 1.871 c 0.266 0.457 0.34 0.777 0.309 1.375 c -0.047 0.867 -0.32 1.504 -0.75 1.73 c -0.273 0.145 -0.535 0.141 -0.875 -0.012 m 7.531 -0.207 c 0.965 -1.156 2.094 -2.469 2.797 -3.25 c 0.969 -1.074 0.98 -1.098 1.234 -2.176 c 0.094 -0.387 0.207 -0.746 0.25 -0.801 c 0.129 -0.156 0.371 -0.121 0.652 0.082 c 0.383 0.281 2.297 1.93 2.563 2.203 c 0.164 0.18 0.234 0.293 0.234 0.395 c 0 0.168 -0.141 0.25 -0.793 0.465 c -0.602 0.199 -1.098 0.438 -2.973 1.457 c -2.184 1.184 -2.617 1.375 -4.01 1.777 c -0.082 0.023 -0.078 -0.004 0.051 -0.152 m -0.004 0" fill="#000" stroke="none" fill-rule="nonzero" fill-opacity="1"/></g></g></g></g></g><g><g clip-path="url(#clipPath-642090013)"><!-- color: #d9281e --><g><path d="m 12 35.992 c 0 -0.012 0.207 -0.129 0.461 -0.27 c 2.355 -1.285 4.309 -3.03 5.547 -4.957 c 1.414 -2.199 2.188 -4.809 2.5 -8.398 c 0.09 -1.016 0.094 -4.707 0.004 -5.539 c -0.141 -1.352 -0.336 -2.293 -0.68 -3.285 c -0.215 -0.629 -0.25 -0.988 -0.102 -1.254 c 0.219 -0.406 0.504 -0.391 1.973 0.09 c 1.809 0.598 2.07 0.695 2.172 0.84 c 0.117 0.16 0.098 0.266 -0.215 1.434 c -0.543 2.01 -0.801 4.164 -0.867 7.172 l -0.035 1.621 l 0.242 0.328 c 0.652 0.875 1.016 1.379 1.672 2.328 c 1.605 2.305 2.527 3.469 3.438 4.332 c 1.262 1.195 2.148 1.844 3.633 2.652 c 0.93 0.508 1.465 0.754 2.727 1.242 c 0.559 0.215 1.098 0.434 1.195 0.477 c 0.211 0.102 0.383 0.293 0.316 0.359 c -0.305 0.332 -4.973 0.641 -6.203 0.406 c -2.07 -0.391 -3.91 -2.164 -7.316 -7.05 l -0.691 -0.988 l -0.133 0.637 c -0.293 1.375 -0.793 2.688 -1.395 3.656 c -0.41 0.656 -1.414 1.754 -2.01 2.188 c -1.297 0.953 -2.895 1.543 -5.03 1.855 c -0.848 0.121 -1.215 0.16 -1.215 0.133 m 4.832 -13.41 c -0.91 -0.41 -1.934 -1.707 -2.691 -3.414 c -0.367 -0.836 -0.461 -1.316 -0.316 -1.688 c 0.195 -0.5 0.934 -0.453 2.039 0.137 c 1.074 0.574 1.945 1.285 2.289 1.871 c 0.266 0.457 0.34 0.777 0.309 1.375 c -0.047 0.867 -0.32 1.504 -0.75 1.73 c -0.273 0.145 -0.535 0.141 -0.875 -0.012 m 7.531 -0.207 c 0.965 -1.156 2.094 -2.469 2.797 -3.25 c 0.969 -1.074 0.98 -1.098 1.234 -2.176 c 0.094 -0.387 0.207 -0.746 0.25 -0.801 c 0.129 -0.156 0.371 -0.121 0.652 0.082 c 0.383 0.281 2.297 1.93 2.563 2.203 c 0.164 0.18 0.234 0.293 0.234 0.395 c 0 0.168 -0.141 0.25 -0.793 0.465 c -0.602 0.199 -1.098 0.438 -2.973 1.457 c -2.184 1.184 -2.617 1.375 -4.01 1.777 c -0.082 0.023 -0.078 -0.004 0.051 -0.152 m -0.004 0" fill="#fff" stroke="none" fill-rule="nonzero" fill-opacity="1"/></g></g></g><g><path d="m 20 4 -7.313 3.03 -5.656 5.656 -3.03 7.313 0 8 3.03 7.313 5.656 5.656 7.313 3.03 8 0 7.313 -3.03 5.656 -5.656 3.03 -7.313 0 -8 -3.03 -7.313 -5.656 -5.656 -7.313 -3.03 -8 0 z" clip-path="url(#clipPath4313)" transform="matrix(0,1,-1,0,48,0)" opacity="0.3" stroke-opacity="1" stroke-dasharray="none" visibility="visible" fill="none" display="inline" stroke="url(#linearGradient4375)" color="#000" stroke-width="1" stroke-miterlimit="4"/><path d="m 24 2.344 -4 1.656 -4.281 0 -3.03 3.03 l -4 1.656 -1.656 4 l -3.03 3.03 0 4.281 -1.656 4 1.656 4 l 0 4.281 3.03 3.03 1.656 4 4 1.656 l 3.03 3.03 4.281 0 4 1.656 4 -1.656 l 4.281 0 3.03 -3.03 4 -1.656 1.656 -4 l 3.03 -3.03 0 -4.281 1.656 -4 -1.656 -4 l 0 -4.281 -3.03 -3.03 -1.656 -4 -4 -1.656 l -3.03 -3.03 -4.281 0 -4 -1.656 z" clip-path="url(#clipPath4329)" opacity="0.2" stroke-opacity="1" visibility="visible" fill="none" display="inline" stroke="#000" color="#000" stroke-width="2"/></g></svg>