<svg viewBox="0 0 48 48" xmlns:xlink="http://www.w3.org/1999/xlink"><defs><clipPath clipPathUnits="userSpaceOnUse" id="clipPath4313"><path d="m 20 4 -7.313 3.03 -5.656 5.656 -3.03 7.313 0 8 3.03 7.313 5.656 5.656 7.313 3.03 8 0 7.313 -3.03 5.656 -5.656 3.03 -7.313 0 -8 -3.03 -7.313 -5.656 -5.656 -7.313 -3.03 -8 0 z"/></clipPath><clipPath clipPathUnits="userSpaceOnUse" id="clipPath4329"><path d="m 24 2.344 -4 1.656 -4.281 0 -3.03 3.03 l -4 1.656 -1.656 4 l -3.03 3.03 0 4.281 -1.656 4 1.656 4 l 0 4.281 3.03 3.03 1.656 4 4 1.656 l 3.03 3.03 4.281 0 4 1.656 4 -1.656 l 4.281 0 3.03 -3.03 4 -1.656 1.656 -4 l 3.03 -3.03 0 -4.281 1.656 -4 -1.656 -4 l 0 -4.281 -3.03 -3.03 -1.656 -4 -4 -1.656 l -3.03 -3.03 -4.281 0 -4 -1.656 z"/></clipPath><clipPath id="clipPath-612409361"><path d="m 24 2.344 l -4 1.656 l -4.281 0 l -3.03 3.03 l -4 1.656 l -1.656 4 l -3.03 3.03 l 0 4.281 l -1.656 4 l 1.656 4 l 0 4.281 l 3.03 3.03 l 1.656 4 l 4 1.656 l 3.03 3.03 l 4.281 0 l 4 1.656 l 4 -1.656 l 4.281 0 l 3.03 -3.03 l 4 -1.656 l 1.656 -4 l 3.03 -3.03 l 0 -4.281 l 1.656 -4 l -1.656 -4 l 0 -4.281 l -3.03 -3.03 l -1.656 -4 l -4 -1.656 l -3.03 -3.03 l -4.281 0 l -4 -1.656 z"/></clipPath><clipPath id="clipPath-626670914"><path d="m 24 2.344 l -4 1.656 l -4.281 0 l -3.03 3.03 l -4 1.656 l -1.656 4 l -3.03 3.03 l 0 4.281 l -1.656 4 l 1.656 4 l 0 4.281 l 3.03 3.03 l 1.656 4 l 4 1.656 l 3.03 3.03 l 4.281 0 l 4 1.656 l 4 -1.656 l 4.281 0 l 3.03 -3.03 l 4 -1.656 l 1.656 -4 l 3.03 -3.03 l 0 -4.281 l 1.656 -4 l -1.656 -4 l 0 -4.281 l -3.03 -3.03 l -1.656 -4 l -4 -1.656 l -3.03 -3.03 l -4.281 0 l -4 -1.656 z"/></clipPath><linearGradient id="linearGradient4317"><stop stop-color="#fff" stop-opacity="1"/><stop offset="1" stop-color="#fff" stop-opacity="0"/></linearGradient><clipPath clipPathUnits="userSpaceOnUse" id="clipPath4313"><path d="m 20 4 -7.313 3.03 -5.656 5.656 -3.03 7.313 0 8 3.03 7.313 5.656 5.656 7.313 3.03 8 0 7.313 -3.03 5.656 -5.656 3.03 -7.313 0 -8 -3.03 -7.313 -5.656 -5.656 -7.313 -3.03 -8 0 z"/></clipPath><linearGradient x2="44" x1="4" gradientUnits="userSpaceOnUse" id="linearGradient4375" xlink:href="#linearGradient4317"/><clipPath clipPathUnits="userSpaceOnUse" id="clipPath4329"><path d="m 24 2.344 -4 1.656 -4.281 0 -3.03 3.03 l -4 1.656 -1.656 4 l -3.03 3.03 0 4.281 -1.656 4 1.656 4 l 0 4.281 3.03 3.03 1.656 4 4 1.656 l 3.03 3.03 4.281 0 4 1.656 4 -1.656 l 4.281 0 3.03 -3.03 4 -1.656 1.656 -4 l 3.03 -3.03 0 -4.281 1.656 -4 -1.656 -4 l 0 -4.281 -3.03 -3.03 -1.656 -4 -4 -1.656 l -3.03 -3.03 -4.281 0 -4 -1.656 z"/></clipPath><path id="SVGCleanerId_0" d="m 24 2.344 l -4 1.656 l -4.281 0 l -3.03 3.03 l -4 1.656 l -1.656 4 l -3.03 3.03 l 0 4.281 l -1.656 4 l 1.656 4 l 0 4.281 l 3.03 3.03 l 1.656 4 l 4 1.656 l 3.03 3.03 l 4.281 0 l 4 1.656 l 4 -1.656 l 4.281 0 l 3.03 -3.03 l 4 -1.656 l 1.656 -4 l 3.03 -3.03 l 0 -4.281 l 1.656 -4 l -1.656 -4 l 0 -4.281 l -3.03 -3.03 l -1.656 -4 l -4 -1.656 l -3.03 -3.03 l -4.281 0 l -4 -1.656 z" visibility="visible" display="inline" fill-rule="nonzero" color="#000" fill-opacity="1"/></defs><g><path d="m 2.563 24.5 l -0.219 0.5 l 1.656 4 l 0 -1 l -1.438 -3.5 z m 42.875 0 l -1.438 3.5 l 0 1 l 1.656 -4 l -0.219 -0.5 z m -41.44 7.781 l 0 1 l 3.03 3.03 l 1.656 4 l 4 1.656 l 3.03 3.03 l 4.281 0 l 4 1.656 l 4 -1.656 l 4.281 0 l 3.03 -3.03 l 4 -1.656 l 1.656 -4 l 3.03 -3.03 l 0 -1 l -3.03 3.03 l -1.656 4 l -4 1.656 l -3.03 3.03 l -4.281 0 l -4 1.656 l -4 -1.656 l -4.281 0 l -3.03 -3.03 l -4 -1.656 l -1.656 -4 l -3.03 -3.03 z" opacity="0.3" visibility="visible" fill="#000" display="inline" fill-rule="nonzero" stroke="none" fill-opacity="1" color="#000"/></g><g><use fill="#6cb427" stroke="none" xlink:href="#SVGCleanerId_0"/><path d="m 24 2.344 l -4 1.656 l 8 0 l -4 -1.656 z m 4 1.656 l 7.313 3.03 l -3.03 -3.03 l -4.281 0 z m 7.313 3.03 l 5.656 5.656 l -1.656 -4 l -4 -1.656 z m 5.656 5.656 l 3.03 7.313 l 0 -4.281 l -3.03 -3.03 z m 3.03 7.313 l 0 8 l 1.656 -4 l -1.656 -4 z m 0 8 l -3.03 7.313 l 3.03 -3.03 l 0 -4.281 z m -3.03 7.313 l -5.656 5.656 l 4 -1.656 l 1.656 -4 z m -5.656 5.656 l -7.313 3.03 l 4.281 0 l 3.03 -3.03 z m -7.313 3.03 l -8 0 l 4 1.656 l 4 -1.656 z m -8 0 l -7.313 -3.03 l 3.03 3.03 l 4.281 0 z m -7.313 -3.03 l -5.656 -5.656 l 1.656 4 l 4 1.656 z m -5.656 -5.656 l -3.03 -7.313 l 0 4.281 l 3.03 3.03 z m -3.03 -7.313 l 0 -8 l -1.656 4 l 1.656 4 z m 0 -8 l 3.03 -7.313 l -3.03 3.03 l 0 4.281 z m 3.03 -7.313 l 5.656 -5.656 l -4 1.656 l -1.656 4 z m 5.656 -5.656 l 7.313 -3.03 l -4.281 0 l -3.03 3.03 z" opacity="0.05" visibility="visible" fill="#6cb427" display="inline" fill-rule="nonzero" stroke="none" fill-opacity="1" color="#000"/></g><g><use opacity="0.05" stroke-opacity="1" stroke-dasharray="none" fill="#000" stroke="#000" stroke-width="2" stroke-miterlimit="4" xlink:href="#SVGCleanerId_0"/><use opacity="0.1" stroke-opacity="1" stroke-dasharray="none" fill="#000" stroke="#000" stroke-width="1" stroke-miterlimit="4" xlink:href="#SVGCleanerId_0"/></g><g><g clip-path="url(#clipPath-612409361)"><g transform="translate(0,1)"><g opacity="0.1"><!-- color: #6cb427 --><g><path d="m 18.813 11 c -1.01 0 -1.816 0.652 -1.816 1.469 l 0 19.813 c 0 0.82 0.996 1.715 2 1.715 l 10 0 c 1 0 1.996 -0.898 1.996 -1.715 l 0 -19.813 c 0 -0.816 -0.809 -1.469 -1.813 -1.469 m -10.367 0" fill="#000" stroke="none" fill-rule="nonzero" fill-opacity="1"/><path d="m 19 32.938 l 0 4.066 l 10 0 l 0 -4.066 m -9 1.066 l 1.996 0 l 0 2 l -1.996 0 m 5.996 -2 l 2 0 l 0 2 l -2 0 m 0 -2" fill="#000" stroke="none" fill-rule="nonzero" fill-opacity="1"/><path d="m 25.285 15.703 c 0.016 0.367 0.324 0.648 0.691 0.637 c 0.176 -0.004 0.34 -0.078 0.465 -0.207 c 0.121 -0.129 0.184 -0.297 0.176 -0.473 c -0.016 -0.363 -0.324 -0.648 -0.688 -0.637 c -0.176 0.008 -0.34 0.082 -0.465 0.211 c -0.121 0.125 -0.184 0.297 -0.176 0.473 m 0.598 -0.156 c 0 -0.164 0.09 -0.293 0.199 -0.293 c 0.109 0 0.195 0.129 0.195 0.293 c 0 0.164 -0.09 0.293 -0.195 0.293 c -0.109 0 -0.199 -0.129 -0.199 -0.293" fill="#000" stroke="none" fill-rule="nonzero" fill-opacity="1"/><path d="m 21.367 23.22 l 0.004 -0.023 l 0.027 -0.004 c 0.02 0.008 0.043 0.023 0.32 0.043 c 0.242 0.023 0.914 0.055 1.25 -0.281 c 0.129 -0.133 0.242 -0.32 0.281 -0.477 c 0.16 -0.648 0.051 -1.398 -0.781 -2.109 c -0.43 -0.367 -0.625 -0.551 -0.711 -0.637 l -0.031 -0.031 l -0.027 -0.039 c -0.02 -0.031 -0.57 -1.227 -0.57 -1.227 l 0.008 -0.027 l 0.023 0 c 0.012 0.008 0.984 0.762 1.789 0.625 c 0.641 -0.105 0.586 -0.613 0.504 -1.313 c -0.023 -0.23 -0.059 -0.488 -0.063 -0.766 c -0.004 -0.75 0.133 -1.563 0.352 -2.063 c 0.145 -0.32 0.238 -0.527 0.355 -0.656 c 0.039 -0.047 0.102 -0.07 0.172 -0.098 l 0.043 -0.016 c 0.055 -0.023 0.172 -0.051 0.234 -0.066 c 0.031 -0.004 0.059 -0.004 0.074 0.012 l -0.012 0.07 c -0.133 0.219 -0.387 0.766 -0.395 1.281 c -0.023 0.633 0.645 1.914 0.715 2.051 l 0.016 0.012 c 0.078 0.035 0.535 0.23 0.629 0.273 c -0.613 -0.926 -0.949 -1.691 -1 -2.273 c -0.059 -0.652 0.301 -1.16 0.453 -1.379 c 0.027 -0.043 0.051 -0.074 0.055 -0.086 l 0.023 -0.02 c 0.23 0.035 1.344 0.375 1.613 0.637 c 0.066 0.066 0.145 0.129 0.215 0.246 c 0.543 0.93 0.879 3.141 0.891 3.242 l -0.004 0.02 l -0.012 0.008 c 0 0 -0.461 0.012 -0.523 0.012 c 0.074 0.23 0.609 1.867 0.664 3.406 c 0.055 1.301 0.223 3.203 -1.344 5.719 l -0.047 0.078 c -0.742 1.184 -1.66 2 -2.727 2.434 c -0.34 0.133 -1.098 0.313 -1.813 0.137 c -0.309 -0.078 -0.621 -0.219 -0.902 -0.414 c -0.633 -0.441 -1.051 -1.168 -1.117 -1.961 c -0.105 -1.117 0.398 -1.961 1.348 -2.262 c 0.652 -0.207 1.613 0 2.102 0.793 c 0.398 0.645 0.313 1.336 0.039 1.734 c -0.23 0.355 -0.594 0.547 -0.992 0.543 c -0.707 -0.008 -1.082 -0.609 -1.082 -1.043 c 0 -0.129 0.023 -0.254 0.07 -0.395 c 0.012 -0.051 0.035 -0.102 0.066 -0.152 l 0.012 -0.02 l 0.004 -0.012 l -0.004 0.008 c 0.07 -0.105 0.18 -0.16 0.301 -0.16 c 0.031 0 0.066 0.004 0.102 0.012 c 0.176 0.051 0.289 0.227 0.254 0.41 l -0.004 0.02 l -0.016 0.031 l -0.02 0.051 c -0.023 0.102 -0.027 0.172 -0.027 0.191 c 0.004 0.051 0.078 0.301 0.355 0.301 l 0.004 0 c 0.098 0 0.172 -0.039 0.211 -0.063 c 0.125 -0.078 0.246 -0.293 0.215 -0.578 c -0.031 -0.375 -0.227 -0.648 -0.594 -0.828 c -0.34 -0.168 -0.762 -0.125 -1.07 0.113 c -0.305 0.227 -0.438 0.648 -0.375 1.199 c 0.066 0.563 0.387 1.031 0.891 1.301 c 0.496 0.258 1.082 0.27 1.531 0.031 c 1.078 -0.563 1.066 -1.637 0.965 -2.223 c -0.148 -0.867 -0.961 -1.852 -1.891 -2.207 c -0.148 -0.055 -0.266 -0.086 -0.375 -0.109 l -0.16 -0.035 l -0.48 -0.98 l -0.012 -0.016 m 5.262 -6.887 c -0.18 0.188 -0.41 0.289 -0.668 0.301 c -0.523 0.016 -0.969 -0.395 -0.988 -0.91 c -0.008 -0.254 0.082 -0.492 0.254 -0.684 c 0.176 -0.184 0.414 -0.293 0.664 -0.301 c 0.52 -0.02 0.969 0.387 0.988 0.914 c 0.008 0.25 -0.082 0.492 -0.258 0.676" fill="#000" stroke="none" fill-rule="evenodd" fill-opacity="1"/></g></g></g></g></g><g><g clip-path="url(#clipPath-626670914)"><!-- color: #6cb427 --><g><path d="m 18.813 11 c -1.01 0 -1.816 0.652 -1.816 1.469 l 0 19.813 c 0 0.82 0.996 1.715 2 1.715 l 10 0 c 1 0 1.996 -0.898 1.996 -1.715 l 0 -19.813 c 0 -0.816 -0.809 -1.469 -1.813 -1.469 m -10.367 0" fill="#f9f9f9" stroke="none" fill-rule="nonzero" fill-opacity="1"/><path d="m 19 32.938 l 0 4.066 l 10 0 l 0 -4.066 m -9 1.066 l 1.996 0 l 0 2 l -1.996 0 m 5.996 -2 l 2 0 l 0 2 l -2 0 m 0 -2" fill="#f9f9f9" stroke="none" fill-rule="nonzero" fill-opacity="1"/><path d="m 25.285 15.703 c 0.016 0.367 0.324 0.648 0.691 0.637 c 0.176 -0.004 0.34 -0.078 0.465 -0.207 c 0.121 -0.129 0.184 -0.297 0.176 -0.473 c -0.016 -0.363 -0.324 -0.648 -0.688 -0.637 c -0.176 0.008 -0.34 0.082 -0.465 0.211 c -0.121 0.125 -0.184 0.297 -0.176 0.473 m 0.598 -0.156 c 0 -0.164 0.09 -0.293 0.199 -0.293 c 0.109 0 0.195 0.129 0.195 0.293 c 0 0.164 -0.09 0.293 -0.195 0.293 c -0.109 0 -0.199 -0.129 -0.199 -0.293" fill="#6eb927" stroke="none" fill-rule="nonzero" fill-opacity="1"/><path d="m 21.367 23.22 l 0.004 -0.023 l 0.027 -0.004 c 0.02 0.008 0.043 0.023 0.32 0.043 c 0.242 0.023 0.914 0.055 1.25 -0.281 c 0.129 -0.133 0.242 -0.32 0.281 -0.477 c 0.16 -0.648 0.051 -1.398 -0.781 -2.109 c -0.43 -0.367 -0.625 -0.551 -0.711 -0.637 l -0.031 -0.031 l -0.027 -0.039 c -0.02 -0.031 -0.57 -1.227 -0.57 -1.227 l 0.008 -0.027 l 0.023 0 c 0.012 0.008 0.984 0.762 1.789 0.625 c 0.641 -0.105 0.586 -0.613 0.504 -1.313 c -0.023 -0.23 -0.059 -0.488 -0.063 -0.766 c -0.004 -0.75 0.133 -1.563 0.352 -2.063 c 0.145 -0.32 0.238 -0.527 0.355 -0.656 c 0.039 -0.047 0.102 -0.07 0.172 -0.098 l 0.043 -0.016 c 0.055 -0.023 0.172 -0.051 0.234 -0.066 c 0.031 -0.004 0.059 -0.004 0.074 0.012 l -0.012 0.07 c -0.133 0.219 -0.387 0.766 -0.395 1.281 c -0.023 0.633 0.645 1.914 0.715 2.051 l 0.016 0.012 c 0.078 0.035 0.535 0.23 0.629 0.273 c -0.613 -0.926 -0.949 -1.691 -1 -2.273 c -0.059 -0.652 0.301 -1.16 0.453 -1.379 c 0.027 -0.043 0.051 -0.074 0.055 -0.086 l 0.023 -0.02 c 0.23 0.035 1.344 0.375 1.613 0.637 c 0.066 0.066 0.145 0.129 0.215 0.246 c 0.543 0.93 0.879 3.141 0.891 3.242 l -0.004 0.02 l -0.012 0.008 c 0 0 -0.461 0.012 -0.523 0.012 c 0.074 0.23 0.609 1.867 0.664 3.406 c 0.055 1.301 0.223 3.203 -1.344 5.719 l -0.047 0.078 c -0.742 1.184 -1.66 2 -2.727 2.434 c -0.34 0.133 -1.098 0.313 -1.813 0.137 c -0.309 -0.078 -0.621 -0.219 -0.902 -0.414 c -0.633 -0.441 -1.051 -1.168 -1.117 -1.961 c -0.105 -1.117 0.398 -1.961 1.348 -2.262 c 0.652 -0.207 1.613 0 2.102 0.793 c 0.398 0.645 0.313 1.336 0.039 1.734 c -0.23 0.355 -0.594 0.547 -0.992 0.543 c -0.707 -0.008 -1.082 -0.609 -1.082 -1.043 c 0 -0.129 0.023 -0.254 0.07 -0.395 c 0.012 -0.051 0.035 -0.102 0.066 -0.152 l 0.012 -0.02 l 0.004 -0.012 l -0.004 0.008 c 0.07 -0.105 0.18 -0.16 0.301 -0.16 c 0.031 0 0.066 0.004 0.102 0.012 c 0.176 0.051 0.289 0.227 0.254 0.41 l -0.004 0.02 l -0.016 0.031 l -0.02 0.051 c -0.023 0.102 -0.027 0.172 -0.027 0.191 c 0.004 0.051 0.078 0.301 0.355 0.301 l 0.004 0 c 0.098 0 0.172 -0.039 0.211 -0.063 c 0.125 -0.078 0.246 -0.293 0.215 -0.578 c -0.031 -0.375 -0.227 -0.648 -0.594 -0.828 c -0.34 -0.168 -0.762 -0.125 -1.07 0.113 c -0.305 0.227 -0.438 0.648 -0.375 1.199 c 0.066 0.563 0.387 1.031 0.891 1.301 c 0.496 0.258 1.082 0.27 1.531 0.031 c 1.078 -0.563 1.066 -1.637 0.965 -2.223 c -0.148 -0.867 -0.961 -1.852 -1.891 -2.207 c -0.148 -0.055 -0.266 -0.086 -0.375 -0.109 l -0.16 -0.035 l -0.48 -0.98 l -0.012 -0.016 m 5.262 -6.887 c -0.18 0.188 -0.41 0.289 -0.668 0.301 c -0.523 0.016 -0.969 -0.395 -0.988 -0.91 c -0.008 -0.254 0.082 -0.492 0.254 -0.684 c 0.176 -0.184 0.414 -0.293 0.664 -0.301 c 0.52 -0.02 0.969 0.387 0.988 0.914 c 0.008 0.25 -0.082 0.492 -0.258 0.676" fill="#6eb927" stroke="none" fill-rule="evenodd" fill-opacity="1"/></g></g></g><g><path d="m 20 4 -7.313 3.03 -5.656 5.656 -3.03 7.313 0 8 3.03 7.313 5.656 5.656 7.313 3.03 8 0 7.313 -3.03 5.656 -5.656 3.03 -7.313 0 -8 -3.03 -7.313 -5.656 -5.656 -7.313 -3.03 -8 0 z" clip-path="url(#clipPath4313)" transform="matrix(0,1,-1,0,48,0)" opacity="0.3" stroke-opacity="1" stroke-dasharray="none" visibility="visible" fill="none" display="inline" stroke="url(#linearGradient4375)" color="#000" stroke-width="1" stroke-miterlimit="4"/><path d="m 24 2.344 -4 1.656 -4.281 0 -3.03 3.03 l -4 1.656 -1.656 4 l -3.03 3.03 0 4.281 -1.656 4 1.656 4 l 0 4.281 3.03 3.03 1.656 4 4 1.656 l 3.03 3.03 4.281 0 4 1.656 4 -1.656 l 4.281 0 3.03 -3.03 4 -1.656 1.656 -4 l 3.03 -3.03 0 -4.281 1.656 -4 -1.656 -4 l 0 -4.281 -3.03 -3.03 -1.656 -4 -4 -1.656 l -3.03 -3.03 -4.281 0 -4 -1.656 z" clip-path="url(#clipPath4329)" opacity="0.2" stroke-opacity="1" visibility="visible" fill="none" display="inline" stroke="#000" color="#000" stroke-width="2"/></g></svg>