<svg viewBox="0 0 48 48" xmlns:xlink="http://www.w3.org/1999/xlink"><defs><clipPath clipPathUnits="userSpaceOnUse" id="clipPath4313"><path d="m 20 4 -7.313 3.03 -5.656 5.656 -3.03 7.313 0 8 3.03 7.313 5.656 5.656 7.313 3.03 8 0 7.313 -3.03 5.656 -5.656 3.03 -7.313 0 -8 -3.03 -7.313 -5.656 -5.656 -7.313 -3.03 -8 0 z"/></clipPath><clipPath clipPathUnits="userSpaceOnUse" id="clipPath4329"><path d="m 24 2.344 -4 1.656 -4.281 0 -3.03 3.03 l -4 1.656 -1.656 4 l -3.03 3.03 0 4.281 -1.656 4 1.656 4 l 0 4.281 3.03 3.03 1.656 4 4 1.656 l 3.03 3.03 4.281 0 4 1.656 4 -1.656 l 4.281 0 3.03 -3.03 4 -1.656 1.656 -4 l 3.03 -3.03 0 -4.281 1.656 -4 -1.656 -4 l 0 -4.281 -3.03 -3.03 -1.656 -4 -4 -1.656 l -3.03 -3.03 -4.281 0 -4 -1.656 z"/></clipPath><clipPath id="clipPath-358203860"><path d="m 24 2.344 l -4 1.656 l -4.281 0 l -3.03 3.03 l -4 1.656 l -1.656 4 l -3.03 3.03 l 0 4.281 l -1.656 4 l 1.656 4 l 0 4.281 l 3.03 3.03 l 1.656 4 l 4 1.656 l 3.03 3.03 l 4.281 0 l 4 1.656 l 4 -1.656 l 4.281 0 l 3.03 -3.03 l 4 -1.656 l 1.656 -4 l 3.03 -3.03 l 0 -4.281 l 1.656 -4 l -1.656 -4 l 0 -4.281 l -3.03 -3.03 l -1.656 -4 l -4 -1.656 l -3.03 -3.03 l -4.281 0 l -4 -1.656 z"/></clipPath><clipPath id="clipPath-364247468"><path d="m 24 2.344 l -4 1.656 l -4.281 0 l -3.03 3.03 l -4 1.656 l -1.656 4 l -3.03 3.03 l 0 4.281 l -1.656 4 l 1.656 4 l 0 4.281 l 3.03 3.03 l 1.656 4 l 4 1.656 l 3.03 3.03 l 4.281 0 l 4 1.656 l 4 -1.656 l 4.281 0 l 3.03 -3.03 l 4 -1.656 l 1.656 -4 l 3.03 -3.03 l 0 -4.281 l 1.656 -4 l -1.656 -4 l 0 -4.281 l -3.03 -3.03 l -1.656 -4 l -4 -1.656 l -3.03 -3.03 l -4.281 0 l -4 -1.656 z"/></clipPath><linearGradient id="linearGradient4317"><stop stop-color="#fff" stop-opacity="1"/><stop offset="1" stop-color="#fff" stop-opacity="0"/></linearGradient><clipPath clipPathUnits="userSpaceOnUse" id="clipPath4313"><path d="m 20 4 -7.313 3.03 -5.656 5.656 -3.03 7.313 0 8 3.03 7.313 5.656 5.656 7.313 3.03 8 0 7.313 -3.03 5.656 -5.656 3.03 -7.313 0 -8 -3.03 -7.313 -5.656 -5.656 -7.313 -3.03 -8 0 z"/></clipPath><linearGradient x2="44" x1="4" gradientUnits="userSpaceOnUse" id="linearGradient4375" xlink:href="#linearGradient4317"/><clipPath clipPathUnits="userSpaceOnUse" id="clipPath4329"><path d="m 24 2.344 -4 1.656 -4.281 0 -3.03 3.03 l -4 1.656 -1.656 4 l -3.03 3.03 0 4.281 -1.656 4 1.656 4 l 0 4.281 3.03 3.03 1.656 4 4 1.656 l 3.03 3.03 4.281 0 4 1.656 4 -1.656 l 4.281 0 3.03 -3.03 4 -1.656 1.656 -4 l 3.03 -3.03 0 -4.281 1.656 -4 -1.656 -4 l 0 -4.281 -3.03 -3.03 -1.656 -4 -4 -1.656 l -3.03 -3.03 -4.281 0 -4 -1.656 z"/></clipPath><path id="SVGCleanerId_0" d="m 24 2.344 l -4 1.656 l -4.281 0 l -3.03 3.03 l -4 1.656 l -1.656 4 l -3.03 3.03 l 0 4.281 l -1.656 4 l 1.656 4 l 0 4.281 l 3.03 3.03 l 1.656 4 l 4 1.656 l 3.03 3.03 l 4.281 0 l 4 1.656 l 4 -1.656 l 4.281 0 l 3.03 -3.03 l 4 -1.656 l 1.656 -4 l 3.03 -3.03 l 0 -4.281 l 1.656 -4 l -1.656 -4 l 0 -4.281 l -3.03 -3.03 l -1.656 -4 l -4 -1.656 l -3.03 -3.03 l -4.281 0 l -4 -1.656 z" visibility="visible" display="inline" fill-rule="nonzero" color="#000" fill-opacity="1"/></defs><g><path d="m 2.563 24.5 l -0.219 0.5 l 1.656 4 l 0 -1 l -1.438 -3.5 z m 42.875 0 l -1.438 3.5 l 0 1 l 1.656 -4 l -0.219 -0.5 z m -41.44 7.781 l 0 1 l 3.03 3.03 l 1.656 4 l 4 1.656 l 3.03 3.03 l 4.281 0 l 4 1.656 l 4 -1.656 l 4.281 0 l 3.03 -3.03 l 4 -1.656 l 1.656 -4 l 3.03 -3.03 l 0 -1 l -3.03 3.03 l -1.656 4 l -4 1.656 l -3.03 3.03 l -4.281 0 l -4 1.656 l -4 -1.656 l -4.281 0 l -3.03 -3.03 l -4 -1.656 l -1.656 -4 l -3.03 -3.03 z" opacity="0.3" visibility="visible" fill="#000" display="inline" fill-rule="nonzero" stroke="none" fill-opacity="1" color="#000"/></g><g><use fill="#eee" stroke="none" xlink:href="#SVGCleanerId_0"/><path d="m 24 2.344 l -4 1.656 l 8 0 l -4 -1.656 z m 4 1.656 l 7.313 3.03 l -3.03 -3.03 l -4.281 0 z m 7.313 3.03 l 5.656 5.656 l -1.656 -4 l -4 -1.656 z m 5.656 5.656 l 3.03 7.313 l 0 -4.281 l -3.03 -3.03 z m 3.03 7.313 l 0 8 l 1.656 -4 l -1.656 -4 z m 0 8 l -3.03 7.313 l 3.03 -3.03 l 0 -4.281 z m -3.03 7.313 l -5.656 5.656 l 4 -1.656 l 1.656 -4 z m -5.656 5.656 l -7.313 3.03 l 4.281 0 l 3.03 -3.03 z m -7.313 3.03 l -8 0 l 4 1.656 l 4 -1.656 z m -8 0 l -7.313 -3.03 l 3.03 3.03 l 4.281 0 z m -7.313 -3.03 l -5.656 -5.656 l 1.656 4 l 4 1.656 z m -5.656 -5.656 l -3.03 -7.313 l 0 4.281 l 3.03 3.03 z m -3.03 -7.313 l 0 -8 l -1.656 4 l 1.656 4 z m 0 -8 l 3.03 -7.313 l -3.03 3.03 l 0 4.281 z m 3.03 -7.313 l 5.656 -5.656 l -4 1.656 l -1.656 4 z m 5.656 -5.656 l 7.313 -3.03 l -4.281 0 l -3.03 3.03 z" opacity="0.05" visibility="visible" fill="#eee" display="inline" fill-rule="nonzero" stroke="none" fill-opacity="1" color="#000"/></g><g><use opacity="0.05" stroke-opacity="1" stroke-dasharray="none" fill="#000" stroke="#000" stroke-width="2" stroke-miterlimit="4" xlink:href="#SVGCleanerId_0"/><use opacity="0.1" stroke-opacity="1" stroke-dasharray="none" fill="#000" stroke="#000" stroke-width="1" stroke-miterlimit="4" xlink:href="#SVGCleanerId_0"/></g><g><g clip-path="url(#clipPath-358203860)"><g transform="translate(0,1)"><g opacity="0.1"><!-- color: #eeeeee --><g><path d="m 22.285 20.457 l 2.656 -0.141 l 1.406 -2.113 l 0.965 2.41 l 2.559 0.914 l -1.973 1.574 l -0.043 2.555 l -2.094 -1.34 l -2.801 0.902 l 0.785 -2.477 m -1.461 -2.285" fill="#000" stroke="none" fill-rule="nonzero" fill-opacity="1"/><path d="m 21.887 28.14 l 2.496 -0.918 l 0.715 -2.438 l 1.633 2.01 l 2.715 0.117 l -1.414 2.086 l 0.715 2.453 l -2.395 -0.656 l -2.406 1.691 l 0.016 -2.598 m -2.074 -1.746" fill="#000" stroke="none" fill-rule="nonzero" fill-opacity="1"/><path d="m 15.426 24.91 l 2.652 0.199 l 1.66 -1.922 l 0.652 2.512 l 2.422 1.234 l -2.156 1.309 l -0.367 2.527 l -1.902 -1.59 l -2.895 0.539 l 1.09 -2.355 m -1.156 -2.453" fill="#000" stroke="none" fill-rule="nonzero" fill-opacity="1"/><path d="m 26.359 12.09 c -2.48 0.32 -5.145 1.527 -7.313 5.098 c -4.957 8.16 -4.605 11 -5.395 11.918 c -0.793 0.914 -2.93 1.41 -2.621 2.449 c 0.309 1.035 0.621 0.902 0.621 0.902 c 0 0 3.121 4.52 12.172 3.348 c 9.05 -1.172 10.305 -3.082 10.223 -4.03 c -0.082 -0.949 -1.992 -1.641 -1.992 -1.641 c 0 0 -1.414 -4.984 -1.051 -7.03 c 0.363 -2.047 1.742 -5.03 3.105 -5.672 c 1.359 -0.648 2.039 2.168 2.742 1.473 c 0.699 -0.695 -1.18 -6.06 -3.258 -6.102 c -1.164 -0.023 -4.059 -1.121 -7.234 -0.707 m 0.008 6.848 l 0.691 2.043 l 2.098 0.594 l -1.773 1.262 l 0.078 2.145 l -1.773 -1.262 l -2.09 0.73 l 0.672 -2.02 l -1.348 -1.695 l 2.203 -0.02 m -5.84 4.227 l 0.074 1.48 l 1.324 0.793 l -1.43 0.516 l -0.359 1.465 l -0.973 -1.141 l -1.523 0.098 l 0.816 -1.234 l -0.582 -1.387 l 1.477 0.383 m 7.082 -0.664 l 1.418 1.898 l 2.395 -0.094 l -1.391 1.922 l 0.816 2.188 l -2.297 -0.711 l -1.887 1.457 l -0.016 -2.359 l -1.988 -1.297 l 2.277 -0.746 m 0.672 -2.258" fill="#000" stroke="none" fill-rule="nonzero" fill-opacity="1"/></g></g></g></g></g><g><g clip-path="url(#clipPath-364247468)"><!-- color: #eeeeee --><g><path d="m 22.285 20.457 l 2.656 -0.141 l 1.406 -2.113 l 0.965 2.41 l 2.559 0.914 l -1.973 1.574 l -0.043 2.555 l -2.094 -1.34 l -2.801 0.902 l 0.785 -2.477 m -1.461 -2.285" fill="#ff7036" stroke="none" fill-rule="nonzero" fill-opacity="1"/><path d="m 21.887 28.14 l 2.496 -0.918 l 0.715 -2.438 l 1.633 2.01 l 2.715 0.117 l -1.414 2.086 l 0.715 2.453 l -2.395 -0.656 l -2.406 1.691 l 0.016 -2.598 m -2.074 -1.746" fill="#ffe236" stroke="none" fill-rule="nonzero" fill-opacity="1"/><path d="m 15.426 24.91 l 2.652 0.199 l 1.66 -1.922 l 0.652 2.512 l 2.422 1.234 l -2.156 1.309 l -0.367 2.527 l -1.902 -1.59 l -2.895 0.539 l 1.09 -2.355 m -1.156 -2.453" fill="#ff2fbf" stroke="none" fill-rule="nonzero" fill-opacity="1"/><path d="m 26.359 12.09 c -2.48 0.32 -5.145 1.527 -7.313 5.098 c -4.957 8.16 -4.605 11 -5.395 11.918 c -0.793 0.914 -2.93 1.41 -2.621 2.449 c 0.309 1.035 0.621 0.902 0.621 0.902 c 0 0 3.121 4.52 12.172 3.348 c 9.05 -1.172 10.305 -3.082 10.223 -4.03 c -0.082 -0.949 -1.992 -1.641 -1.992 -1.641 c 0 0 -1.414 -4.984 -1.051 -7.03 c 0.363 -2.047 1.742 -5.03 3.105 -5.672 c 1.359 -0.648 2.039 2.168 2.742 1.473 c 0.699 -0.695 -1.18 -6.06 -3.258 -6.102 c -1.164 -0.023 -4.059 -1.121 -7.234 -0.707 m 0.008 6.848 l 0.691 2.043 l 2.098 0.594 l -1.773 1.262 l 0.078 2.145 l -1.773 -1.262 l -2.09 0.73 l 0.672 -2.02 l -1.348 -1.695 l 2.203 -0.02 m -5.84 4.227 l 0.074 1.48 l 1.324 0.793 l -1.43 0.516 l -0.359 1.465 l -0.973 -1.141 l -1.523 0.098 l 0.816 -1.234 l -0.582 -1.387 l 1.477 0.383 m 7.082 -0.664 l 1.418 1.898 l 2.395 -0.094 l -1.391 1.922 l 0.816 2.188 l -2.297 -0.711 l -1.887 1.457 l -0.016 -2.359 l -1.988 -1.297 l 2.277 -0.746 m 0.672 -2.258" fill="#2d2d2d" stroke="none" fill-rule="nonzero" fill-opacity="1"/></g></g></g><g><path d="m 20 4 -7.313 3.03 -5.656 5.656 -3.03 7.313 0 8 3.03 7.313 5.656 5.656 7.313 3.03 8 0 7.313 -3.03 5.656 -5.656 3.03 -7.313 0 -8 -3.03 -7.313 -5.656 -5.656 -7.313 -3.03 -8 0 z" clip-path="url(#clipPath4313)" transform="matrix(0,1,-1,0,48,0)" opacity="0.3" stroke-opacity="1" stroke-dasharray="none" visibility="visible" fill="none" display="inline" stroke="url(#linearGradient4375)" color="#000" stroke-width="1" stroke-miterlimit="4"/><path d="m 24 2.344 -4 1.656 -4.281 0 -3.03 3.03 l -4 1.656 -1.656 4 l -3.03 3.03 0 4.281 -1.656 4 1.656 4 l 0 4.281 3.03 3.03 1.656 4 4 1.656 l 3.03 3.03 4.281 0 4 1.656 4 -1.656 l 4.281 0 3.03 -3.03 4 -1.656 1.656 -4 l 3.03 -3.03 0 -4.281 1.656 -4 -1.656 -4 l 0 -4.281 -3.03 -3.03 -1.656 -4 -4 -1.656 l -3.03 -3.03 -4.281 0 -4 -1.656 z" clip-path="url(#clipPath4329)" opacity="0.2" stroke-opacity="1" visibility="visible" fill="none" display="inline" stroke="#000" color="#000" stroke-width="2"/></g></svg>