<svg viewBox="0 0 48 48" xmlns:xlink="http://www.w3.org/1999/xlink"><defs><clipPath clipPathUnits="userSpaceOnUse" id="clipPath4313"><path d="m 20 4 -7.313 3.03 -5.656 5.656 -3.03 7.313 0 8 3.03 7.313 5.656 5.656 7.313 3.03 8 0 7.313 -3.03 5.656 -5.656 3.03 -7.313 0 -8 -3.03 -7.313 -5.656 -5.656 -7.313 -3.03 -8 0 z"/></clipPath><clipPath clipPathUnits="userSpaceOnUse" id="clipPath4329"><path d="m 24 2.344 -4 1.656 -4.281 0 -3.03 3.03 l -4 1.656 -1.656 4 l -3.03 3.03 0 4.281 -1.656 4 1.656 4 l 0 4.281 3.03 3.03 1.656 4 4 1.656 l 3.03 3.03 4.281 0 4 1.656 4 -1.656 l 4.281 0 3.03 -3.03 4 -1.656 1.656 -4 l 3.03 -3.03 0 -4.281 1.656 -4 -1.656 -4 l 0 -4.281 -3.03 -3.03 -1.656 -4 -4 -1.656 l -3.03 -3.03 -4.281 0 -4 -1.656 z"/></clipPath><clipPath id="clipPath-991739783"><path d="m 24 2.344 l -4 1.656 l -4.281 0 l -3.03 3.03 l -4 1.656 l -1.656 4 l -3.03 3.03 l 0 4.281 l -1.656 4 l 1.656 4 l 0 4.281 l 3.03 3.03 l 1.656 4 l 4 1.656 l 3.03 3.03 l 4.281 0 l 4 1.656 l 4 -1.656 l 4.281 0 l 3.03 -3.03 l 4 -1.656 l 1.656 -4 l 3.03 -3.03 l 0 -4.281 l 1.656 -4 l -1.656 -4 l 0 -4.281 l -3.03 -3.03 l -1.656 -4 l -4 -1.656 l -3.03 -3.03 l -4.281 0 l -4 -1.656 z"/></clipPath><clipPath id="clipPath-003338934"><path d="m 24 2.344 l -4 1.656 l -4.281 0 l -3.03 3.03 l -4 1.656 l -1.656 4 l -3.03 3.03 l 0 4.281 l -1.656 4 l 1.656 4 l 0 4.281 l 3.03 3.03 l 1.656 4 l 4 1.656 l 3.03 3.03 l 4.281 0 l 4 1.656 l 4 -1.656 l 4.281 0 l 3.03 -3.03 l 4 -1.656 l 1.656 -4 l 3.03 -3.03 l 0 -4.281 l 1.656 -4 l -1.656 -4 l 0 -4.281 l -3.03 -3.03 l -1.656 -4 l -4 -1.656 l -3.03 -3.03 l -4.281 0 l -4 -1.656 z"/></clipPath><linearGradient id="linearGradient4317"><stop stop-color="#fff" stop-opacity="1"/><stop offset="1" stop-color="#fff" stop-opacity="0"/></linearGradient><clipPath clipPathUnits="userSpaceOnUse" id="clipPath4313"><path d="m 20 4 -7.313 3.03 -5.656 5.656 -3.03 7.313 0 8 3.03 7.313 5.656 5.656 7.313 3.03 8 0 7.313 -3.03 5.656 -5.656 3.03 -7.313 0 -8 -3.03 -7.313 -5.656 -5.656 -7.313 -3.03 -8 0 z"/></clipPath><linearGradient x2="44" x1="4" gradientUnits="userSpaceOnUse" id="linearGradient4375" xlink:href="#linearGradient4317"/><clipPath clipPathUnits="userSpaceOnUse" id="clipPath4329"><path d="m 24 2.344 -4 1.656 -4.281 0 -3.03 3.03 l -4 1.656 -1.656 4 l -3.03 3.03 0 4.281 -1.656 4 1.656 4 l 0 4.281 3.03 3.03 1.656 4 4 1.656 l 3.03 3.03 4.281 0 4 1.656 4 -1.656 l 4.281 0 3.03 -3.03 4 -1.656 1.656 -4 l 3.03 -3.03 0 -4.281 1.656 -4 -1.656 -4 l 0 -4.281 -3.03 -3.03 -1.656 -4 -4 -1.656 l -3.03 -3.03 -4.281 0 -4 -1.656 z"/></clipPath><path id="SVGCleanerId_0" d="m 24 2.344 l -4 1.656 l -4.281 0 l -3.03 3.03 l -4 1.656 l -1.656 4 l -3.03 3.03 l 0 4.281 l -1.656 4 l 1.656 4 l 0 4.281 l 3.03 3.03 l 1.656 4 l 4 1.656 l 3.03 3.03 l 4.281 0 l 4 1.656 l 4 -1.656 l 4.281 0 l 3.03 -3.03 l 4 -1.656 l 1.656 -4 l 3.03 -3.03 l 0 -4.281 l 1.656 -4 l -1.656 -4 l 0 -4.281 l -3.03 -3.03 l -1.656 -4 l -4 -1.656 l -3.03 -3.03 l -4.281 0 l -4 -1.656 z" visibility="visible" display="inline" fill-rule="nonzero" color="#000" fill-opacity="1"/></defs><g><path d="m 2.563 24.5 l -0.219 0.5 l 1.656 4 l 0 -1 l -1.438 -3.5 z m 42.875 0 l -1.438 3.5 l 0 1 l 1.656 -4 l -0.219 -0.5 z m -41.44 7.781 l 0 1 l 3.03 3.03 l 1.656 4 l 4 1.656 l 3.03 3.03 l 4.281 0 l 4 1.656 l 4 -1.656 l 4.281 0 l 3.03 -3.03 l 4 -1.656 l 1.656 -4 l 3.03 -3.03 l 0 -1 l -3.03 3.03 l -1.656 4 l -4 1.656 l -3.03 3.03 l -4.281 0 l -4 1.656 l -4 -1.656 l -4.281 0 l -3.03 -3.03 l -4 -1.656 l -1.656 -4 l -3.03 -3.03 z" opacity="0.3" visibility="visible" fill="#000" display="inline" fill-rule="nonzero" stroke="none" fill-opacity="1" color="#000"/></g><g><use fill="#01b1ef" stroke="none" xlink:href="#SVGCleanerId_0"/><path d="m 24 2.344 l -4 1.656 l 8 0 l -4 -1.656 z m 4 1.656 l 7.313 3.03 l -3.03 -3.03 l -4.281 0 z m 7.313 3.03 l 5.656 5.656 l -1.656 -4 l -4 -1.656 z m 5.656 5.656 l 3.03 7.313 l 0 -4.281 l -3.03 -3.03 z m 3.03 7.313 l 0 8 l 1.656 -4 l -1.656 -4 z m 0 8 l -3.03 7.313 l 3.03 -3.03 l 0 -4.281 z m -3.03 7.313 l -5.656 5.656 l 4 -1.656 l 1.656 -4 z m -5.656 5.656 l -7.313 3.03 l 4.281 0 l 3.03 -3.03 z m -7.313 3.03 l -8 0 l 4 1.656 l 4 -1.656 z m -8 0 l -7.313 -3.03 l 3.03 3.03 l 4.281 0 z m -7.313 -3.03 l -5.656 -5.656 l 1.656 4 l 4 1.656 z m -5.656 -5.656 l -3.03 -7.313 l 0 4.281 l 3.03 3.03 z m -3.03 -7.313 l 0 -8 l -1.656 4 l 1.656 4 z m 0 -8 l 3.03 -7.313 l -3.03 3.03 l 0 4.281 z m 3.03 -7.313 l 5.656 -5.656 l -4 1.656 l -1.656 4 z m 5.656 -5.656 l 7.313 -3.03 l -4.281 0 l -3.03 3.03 z" opacity="0.05" visibility="visible" fill="#01b1ef" display="inline" fill-rule="nonzero" stroke="none" fill-opacity="1" color="#000"/></g><g><use opacity="0.05" stroke-opacity="1" stroke-dasharray="none" fill="#000" stroke="#000" stroke-width="2" stroke-miterlimit="4" xlink:href="#SVGCleanerId_0"/><use opacity="0.1" stroke-opacity="1" stroke-dasharray="none" fill="#000" stroke="#000" stroke-width="1" stroke-miterlimit="4" xlink:href="#SVGCleanerId_0"/></g><g><g clip-path="url(#clipPath-991739783)"><g transform="translate(0,1)"><g opacity="0.1"><!-- color: #01b1ef --><g><path d="m 22.01 11 l 0.199 5.391 c 0.836 -0.555 1.758 -0.922 2.715 -1.07 l -2.918 -4.32 m 9.793 1.227 l -3.672 3.379 c 0.641 0.219 1.254 0.543 1.82 0.969 c 0.199 0.148 0.395 0.313 0.566 0.477 m -4.613 -0.191 c -1.719 0.023 -3.395 0.883 -4.441 2.492 c -0.098 0.137 -0.176 0.27 -0.242 0.41 c 1.465 0.266 2.746 1.125 3.676 2.305 c 0.352 -0.102 0.727 -0.168 1.121 -0.168 c 2.293 0 4.184 1.992 4.215 4.422 c 0.074 -0.102 0.148 -0.203 0.219 -0.313 c 1.73 -2.641 1.121 -6.27 -1.363 -8.109 c -0.969 -0.719 -2.082 -1.055 -3.18 -1.043 m -10.902 1.516 l 2.563 2 c 0.605 -0.336 1.266 -0.559 1.969 -0.645 c 0.148 -0.371 0.328 -0.734 0.539 -1.082 l -5.07 -0.273 m 17.563 1.887 c 0.281 0.859 0.41 1.777 0.383 2.691 l 4.059 -1.813 m -5.328 5.84 c -0.125 0.188 -0.254 0.367 -0.395 0.535 c 0.676 0.816 1.16 1.813 1.398 2.902 l 1.016 0.594 m -2.02 -4.03" fill="#000" stroke="none" fill-rule="nonzero" fill-opacity="1"/><path d="m 19.336 21 c 1.879 0 3.484 1.063 4.34 2.594 c 0.48 -0.359 1.094 -0.594 1.77 -0.594 c 1.535 0 2.781 1.117 2.781 2.5 c 0 0.309 -0.063 0.602 -0.176 0.875 c 1.742 0.703 2.953 2.289 2.953 4.125 c 0 2.496 -2.23 4.5 -5 4.5 l -10 0 c -2.77 0 -5 -2 -5 -4.5 c 0 -1.973 1.41 -3.641 3.367 -4.25 c 0 -0.082 -0.035 -0.16 -0.035 -0.25 c 0 -2.762 2.238 -5 5 -5 m 0 0" fill="#000" stroke="none" fill-rule="evenodd" fill-opacity="1"/></g></g></g></g></g><g><g clip-path="url(#clipPath-003338934)"><!-- color: #01b1ef --><g><path d="m 22.01 11 l 0.199 5.391 c 0.836 -0.555 1.758 -0.922 2.715 -1.07 l -2.918 -4.32 m 9.793 1.227 l -3.672 3.379 c 0.641 0.219 1.254 0.543 1.82 0.969 c 0.199 0.148 0.395 0.313 0.566 0.477 m -4.613 -0.191 c -1.719 0.023 -3.395 0.883 -4.441 2.492 c -0.098 0.137 -0.176 0.27 -0.242 0.41 c 1.465 0.266 2.746 1.125 3.676 2.305 c 0.352 -0.102 0.727 -0.168 1.121 -0.168 c 2.293 0 4.184 1.992 4.215 4.422 c 0.074 -0.102 0.148 -0.203 0.219 -0.313 c 1.73 -2.641 1.121 -6.27 -1.363 -8.109 c -0.969 -0.719 -2.082 -1.055 -3.18 -1.043 m -10.902 1.516 l 2.563 2 c 0.605 -0.336 1.266 -0.559 1.969 -0.645 c 0.148 -0.371 0.328 -0.734 0.539 -1.082 l -5.07 -0.273 m 17.563 1.887 c 0.281 0.859 0.41 1.777 0.383 2.691 l 4.059 -1.813 m -5.328 5.84 c -0.125 0.188 -0.254 0.367 -0.395 0.535 c 0.676 0.816 1.16 1.813 1.398 2.902 l 1.016 0.594 m -2.02 -4.03" fill="#ffc845" stroke="none" fill-rule="nonzero" fill-opacity="1"/><path d="m 19.336 21 c 1.879 0 3.484 1.063 4.34 2.594 c 0.48 -0.359 1.094 -0.594 1.77 -0.594 c 1.535 0 2.781 1.117 2.781 2.5 c 0 0.309 -0.063 0.602 -0.176 0.875 c 1.742 0.703 2.953 2.289 2.953 4.125 c 0 2.496 -2.23 4.5 -5 4.5 l -10 0 c -2.77 0 -5 -2 -5 -4.5 c 0 -1.973 1.41 -3.641 3.367 -4.25 c 0 -0.082 -0.035 -0.16 -0.035 -0.25 c 0 -2.762 2.238 -5 5 -5 m 0 0" fill="#f9f9f9" stroke="none" fill-rule="evenodd" fill-opacity="1"/></g></g></g><g><path d="m 20 4 -7.313 3.03 -5.656 5.656 -3.03 7.313 0 8 3.03 7.313 5.656 5.656 7.313 3.03 8 0 7.313 -3.03 5.656 -5.656 3.03 -7.313 0 -8 -3.03 -7.313 -5.656 -5.656 -7.313 -3.03 -8 0 z" clip-path="url(#clipPath4313)" transform="matrix(0,1,-1,0,48,0)" opacity="0.3" stroke-opacity="1" stroke-dasharray="none" visibility="visible" fill="none" display="inline" stroke="url(#linearGradient4375)" color="#000" stroke-width="1" stroke-miterlimit="4"/><path d="m 24 2.344 -4 1.656 -4.281 0 -3.03 3.03 l -4 1.656 -1.656 4 l -3.03 3.03 0 4.281 -1.656 4 1.656 4 l 0 4.281 3.03 3.03 1.656 4 4 1.656 l 3.03 3.03 4.281 0 4 1.656 4 -1.656 l 4.281 0 3.03 -3.03 4 -1.656 1.656 -4 l 3.03 -3.03 0 -4.281 1.656 -4 -1.656 -4 l 0 -4.281 -3.03 -3.03 -1.656 -4 -4 -1.656 l -3.03 -3.03 -4.281 0 -4 -1.656 z" clip-path="url(#clipPath4329)" opacity="0.2" stroke-opacity="1" visibility="visible" fill="none" display="inline" stroke="#000" color="#000" stroke-width="2"/></g></svg>