<svg viewBox="0 0 48 48" xmlns:xlink="http://www.w3.org/1999/xlink"><defs><clipPath clipPathUnits="userSpaceOnUse" id="clipPath4313"><path d="m 20 4 -7.313 3.03 -5.656 5.656 -3.03 7.313 0 8 3.03 7.313 5.656 5.656 7.313 3.03 8 0 7.313 -3.03 5.656 -5.656 3.03 -7.313 0 -8 -3.03 -7.313 -5.656 -5.656 -7.313 -3.03 -8 0 z"/></clipPath><clipPath clipPathUnits="userSpaceOnUse" id="clipPath4329"><path d="m 24 2.344 -4 1.656 -4.281 0 -3.03 3.03 l -4 1.656 -1.656 4 l -3.03 3.03 0 4.281 -1.656 4 1.656 4 l 0 4.281 3.03 3.03 1.656 4 4 1.656 l 3.03 3.03 4.281 0 4 1.656 4 -1.656 l 4.281 0 3.03 -3.03 4 -1.656 1.656 -4 l 3.03 -3.03 0 -4.281 1.656 -4 -1.656 -4 l 0 -4.281 -3.03 -3.03 -1.656 -4 -4 -1.656 l -3.03 -3.03 -4.281 0 -4 -1.656 z"/></clipPath><clipPath id="clipPath-009888412"><path d="m 24 2.344 l -4 1.656 l -4.281 0 l -3.03 3.03 l -4 1.656 l -1.656 4 l -3.03 3.03 l 0 4.281 l -1.656 4 l 1.656 4 l 0 4.281 l 3.03 3.03 l 1.656 4 l 4 1.656 l 3.03 3.03 l 4.281 0 l 4 1.656 l 4 -1.656 l 4.281 0 l 3.03 -3.03 l 4 -1.656 l 1.656 -4 l 3.03 -3.03 l 0 -4.281 l 1.656 -4 l -1.656 -4 l 0 -4.281 l -3.03 -3.03 l -1.656 -4 l -4 -1.656 l -3.03 -3.03 l -4.281 0 l -4 -1.656 z"/></clipPath><clipPath id="clipPath-021849349"><path d="m 24 2.344 l -4 1.656 l -4.281 0 l -3.03 3.03 l -4 1.656 l -1.656 4 l -3.03 3.03 l 0 4.281 l -1.656 4 l 1.656 4 l 0 4.281 l 3.03 3.03 l 1.656 4 l 4 1.656 l 3.03 3.03 l 4.281 0 l 4 1.656 l 4 -1.656 l 4.281 0 l 3.03 -3.03 l 4 -1.656 l 1.656 -4 l 3.03 -3.03 l 0 -4.281 l 1.656 -4 l -1.656 -4 l 0 -4.281 l -3.03 -3.03 l -1.656 -4 l -4 -1.656 l -3.03 -3.03 l -4.281 0 l -4 -1.656 z"/></clipPath><linearGradient id="linearGradient4317"><stop stop-color="#fff" stop-opacity="1"/><stop offset="1" stop-color="#fff" stop-opacity="0"/></linearGradient><clipPath clipPathUnits="userSpaceOnUse" id="clipPath4313"><path d="m 20 4 -7.313 3.03 -5.656 5.656 -3.03 7.313 0 8 3.03 7.313 5.656 5.656 7.313 3.03 8 0 7.313 -3.03 5.656 -5.656 3.03 -7.313 0 -8 -3.03 -7.313 -5.656 -5.656 -7.313 -3.03 -8 0 z"/></clipPath><linearGradient x2="44" x1="4" gradientUnits="userSpaceOnUse" id="linearGradient4375" xlink:href="#linearGradient4317"/><clipPath clipPathUnits="userSpaceOnUse" id="clipPath4329"><path d="m 24 2.344 -4 1.656 -4.281 0 -3.03 3.03 l -4 1.656 -1.656 4 l -3.03 3.03 0 4.281 -1.656 4 1.656 4 l 0 4.281 3.03 3.03 1.656 4 4 1.656 l 3.03 3.03 4.281 0 4 1.656 4 -1.656 l 4.281 0 3.03 -3.03 4 -1.656 1.656 -4 l 3.03 -3.03 0 -4.281 1.656 -4 -1.656 -4 l 0 -4.281 -3.03 -3.03 -1.656 -4 -4 -1.656 l -3.03 -3.03 -4.281 0 -4 -1.656 z"/></clipPath><path id="SVGCleanerId_0" d="m 24 2.344 l -4 1.656 l -4.281 0 l -3.03 3.03 l -4 1.656 l -1.656 4 l -3.03 3.03 l 0 4.281 l -1.656 4 l 1.656 4 l 0 4.281 l 3.03 3.03 l 1.656 4 l 4 1.656 l 3.03 3.03 l 4.281 0 l 4 1.656 l 4 -1.656 l 4.281 0 l 3.03 -3.03 l 4 -1.656 l 1.656 -4 l 3.03 -3.03 l 0 -4.281 l 1.656 -4 l -1.656 -4 l 0 -4.281 l -3.03 -3.03 l -1.656 -4 l -4 -1.656 l -3.03 -3.03 l -4.281 0 l -4 -1.656 z" visibility="visible" display="inline" fill-rule="nonzero" color="#000" fill-opacity="1"/></defs><g><path d="m 2.563 24.5 l -0.219 0.5 l 1.656 4 l 0 -1 l -1.438 -3.5 z m 42.875 0 l -1.438 3.5 l 0 1 l 1.656 -4 l -0.219 -0.5 z m -41.44 7.781 l 0 1 l 3.03 3.03 l 1.656 4 l 4 1.656 l 3.03 3.03 l 4.281 0 l 4 1.656 l 4 -1.656 l 4.281 0 l 3.03 -3.03 l 4 -1.656 l 1.656 -4 l 3.03 -3.03 l 0 -1 l -3.03 3.03 l -1.656 4 l -4 1.656 l -3.03 3.03 l -4.281 0 l -4 1.656 l -4 -1.656 l -4.281 0 l -3.03 -3.03 l -4 -1.656 l -1.656 -4 l -3.03 -3.03 z" opacity="0.3" visibility="visible" fill="#000" display="inline" fill-rule="nonzero" stroke="none" fill-opacity="1" color="#000"/></g><g><use fill="#266597" stroke="none" xlink:href="#SVGCleanerId_0"/><path d="m 24 2.344 l -4 1.656 l 8 0 l -4 -1.656 z m 4 1.656 l 7.313 3.03 l -3.03 -3.03 l -4.281 0 z m 7.313 3.03 l 5.656 5.656 l -1.656 -4 l -4 -1.656 z m 5.656 5.656 l 3.03 7.313 l 0 -4.281 l -3.03 -3.03 z m 3.03 7.313 l 0 8 l 1.656 -4 l -1.656 -4 z m 0 8 l -3.03 7.313 l 3.03 -3.03 l 0 -4.281 z m -3.03 7.313 l -5.656 5.656 l 4 -1.656 l 1.656 -4 z m -5.656 5.656 l -7.313 3.03 l 4.281 0 l 3.03 -3.03 z m -7.313 3.03 l -8 0 l 4 1.656 l 4 -1.656 z m -8 0 l -7.313 -3.03 l 3.03 3.03 l 4.281 0 z m -7.313 -3.03 l -5.656 -5.656 l 1.656 4 l 4 1.656 z m -5.656 -5.656 l -3.03 -7.313 l 0 4.281 l 3.03 3.03 z m -3.03 -7.313 l 0 -8 l -1.656 4 l 1.656 4 z m 0 -8 l 3.03 -7.313 l -3.03 3.03 l 0 4.281 z m 3.03 -7.313 l 5.656 -5.656 l -4 1.656 l -1.656 4 z m 5.656 -5.656 l 7.313 -3.03 l -4.281 0 l -3.03 3.03 z" opacity="0.05" visibility="visible" fill="#266597" display="inline" fill-rule="nonzero" stroke="none" fill-opacity="1" color="#000"/></g><g><use opacity="0.05" stroke-opacity="1" stroke-dasharray="none" fill="#000" stroke="#000" stroke-width="2" stroke-miterlimit="4" xlink:href="#SVGCleanerId_0"/><use opacity="0.1" stroke-opacity="1" stroke-dasharray="none" fill="#000" stroke="#000" stroke-width="1" stroke-miterlimit="4" xlink:href="#SVGCleanerId_0"/></g><g><g clip-path="url(#clipPath-009888412)"><g transform="translate(0,1)"><g opacity="0.1"><!-- color: #266597 --><g><path d="m 31.941 18.309 c -0.645 0.152 -1.25 0.461 -1.781 0.844 c -0.871 1.191 -2.078 2.152 -3.684 2.531 c -0.609 -0.445 -1.352 -0.961 -1.859 -1.547 c -2.324 0.266 -5.523 0.781 -6.074 3.02 c -0.574 2.324 0.949 5.359 2.188 5.535 c 1.176 0.164 4.957 -0.887 6.785 -1.379 c -1.531 -1.195 -3.293 -1.719 -4.254 -1.781 c -1.133 -0.09 -2.109 0.113 -3.125 0.375 c 1.484 -0.957 2.828 -1.672 4.156 -1.938 c 0.996 -0.188 2.543 -0.195 4.402 0.5 c 2.305 0.863 2.855 2.094 4.473 2.648 c 1.07 -0.168 0.527 -1.355 0.305 -2.18 c -0.148 -0.449 -0.266 -0.789 -0.313 -0.938 c -0.082 -0.25 -1.238 -3.207 -1.406 -3.969 c -0.113 -0.52 -0.016 -1.195 0.188 -1.723 m 0 0" fill="#000" stroke="none" fill-rule="nonzero" fill-opacity="1"/><path d="m 26.359 13.656 c -1.613 0.68 -1.668 1.965 -1.758 3.359 c 0.676 -0.613 2.801 -1.063 3.375 -1.559 c 1.695 -1.469 2.352 -4.504 1.996 -4.055 c -1.152 1.457 -3.02 1.926 -3.613 2.254 m 0 0" fill="#000" stroke="none" fill-rule="nonzero" fill-opacity="1"/><path d="m 17.477 34.05 c 0 0 -1.602 -1.063 -1.57 -1.402 c 1.051 -5.699 -2.574 -1.645 -2.848 0.906 c -0.289 2.449 0.613 5.273 0.746 5.445 c 0.215 -2 0.406 -3.109 3.672 -4.953 m 0 0.004" fill="#000" stroke="none" fill-rule="nonzero" fill-opacity="1"/><path d="m 34.988 21.492 c -0.082 -2.121 -1.414 -3.586 -2.32 -3.242 c -0.387 0.145 -0.641 1.133 -0.508 1.746 c 0.445 2.18 2.277 4.699 1.824 6.855 c -0.34 1.031 -3.348 1.672 -3.348 1.672 c 0 0 -0.059 0.883 -0.172 1.484 c -0.137 0.73 -0.414 1.309 -0.414 1.309 c 0 0 0.715 0.641 0.742 0.641 c 0.031 0 4.5 -2.32 4.195 -10.465 m 0 0" fill="#000" stroke="none" fill-rule="nonzero" fill-opacity="1"/><path d="m 33 27.332 c -0.742 -0.301 -1 -0.43 -1.969 -1.148 c -5.355 -4 -10.285 -0.535 -10.188 -0.57 c 0.887 -0.281 1.891 -0.535 3.191 -0.453 c 1.051 0.07 2.449 0.734 4.176 2.168 c 1.16 1.02 2.918 1.148 4.785 0.004 m 0.004 0" fill="#000" stroke="none" fill-rule="nonzero" fill-opacity="1"/><path d="m 27.973 15.902 c -1.98 0.637 -3.051 1.184 -3.371 1.438 c -0.656 1.672 0.668 2.93 1.875 3.813 c 1.586 -0.375 2.906 -1.551 3.496 -2.844 c -0.309 0.043 -0.637 -0.016 -1 -0.219 c -0.707 -0.398 -1.137 -1.355 -1 -2.188 m 0 0" fill="#000" stroke="none" fill-rule="nonzero" fill-opacity="1"/><path d="m 30.855 15.586 c -0.129 -0.508 -0.543 -1.16 -0.656 -1.16 c -0.102 0 -1.203 0.82 -1.488 1.102 c -0.645 0.645 -0.332 1.82 0.383 2.219 c 1.211 0.68 2.105 -0.813 1.762 -2.16 m 0 0" fill="#000" stroke="none" fill-rule="nonzero" fill-opacity="1"/><path d="m 29.914 13.867 c 0.484 -0.465 1.129 -1.227 1.297 -2.387 c 0.098 -1.039 -0.156 -1.68 -0.469 -2.477 c -0.152 1.555 -0.379 3.285 -1.438 5.121 c -0.332 0.578 -0.152 0.473 0.609 -0.258 m 0 0" fill="#000" stroke="none" fill-rule="nonzero" fill-opacity="1"/><path d="m 16.328 29.969 c 0.168 0.422 0.156 1.223 -0.094 2.594 c -0.004 0.012 0 0.02 0 0.031 c 0.176 0.246 0.539 0.543 0.902 0.813 c 1.25 -0.582 2.82 -1.672 2.719 -1.688 c -0.668 -0.113 -2.734 -0.617 -3.527 -1.75 m 0 0" fill="#000" stroke="none" fill-rule="nonzero" fill-opacity="1"/><path d="m 27.754 27.527 c -0.055 0 -0.098 0 -0.219 0.031 c -1.555 0.434 -5.527 1.449 -6.148 2.125 c -0.242 0.516 -0.48 2.574 -3.969 3.879 c -0.098 0.035 2.93 1.992 3.094 2 c 9.883 0.414 9.871 -6.676 9.742 -7 c -0.961 0.016 -1.777 -0.32 -2.406 -0.938 c -0.031 -0.031 -0.059 -0.063 -0.094 -0.094 m 0 0" fill="#000" stroke="none" fill-rule="nonzero" fill-opacity="1"/></g></g></g></g></g><g><g clip-path="url(#clipPath-021849349)"><!-- color: #266597 --><g><path d="m 31.941 18.309 c -0.645 0.152 -1.25 0.461 -1.781 0.844 c -0.871 1.191 -2.078 2.152 -3.684 2.531 c -0.609 -0.445 -1.352 -0.961 -1.859 -1.547 c -2.324 0.266 -5.523 0.781 -6.074 3.02 c -0.574 2.324 0.949 5.359 2.188 5.535 c 1.176 0.164 4.957 -0.887 6.785 -1.379 c -1.531 -1.195 -3.293 -1.719 -4.254 -1.781 c -1.133 -0.09 -2.109 0.113 -3.125 0.375 c 1.484 -0.957 2.828 -1.672 4.156 -1.938 c 0.996 -0.188 2.543 -0.195 4.402 0.5 c 2.305 0.863 2.855 2.094 4.473 2.648 c 1.07 -0.168 0.527 -1.355 0.305 -2.18 c -0.148 -0.449 -0.266 -0.789 -0.313 -0.938 c -0.082 -0.25 -1.238 -3.207 -1.406 -3.969 c -0.113 -0.52 -0.016 -1.195 0.188 -1.723 m 0 0" fill="#f9f9f9" stroke="none" fill-rule="nonzero" fill-opacity="1"/><path d="m 26.359 13.656 c -1.613 0.68 -1.668 1.965 -1.758 3.359 c 0.676 -0.613 2.801 -1.063 3.375 -1.559 c 1.695 -1.469 2.352 -4.504 1.996 -4.055 c -1.152 1.457 -3.02 1.926 -3.613 2.254 m 0 0" fill="#f9f9f9" stroke="none" fill-rule="nonzero" fill-opacity="1"/><path d="m 17.477 34.05 c 0 0 -1.602 -1.063 -1.57 -1.402 c 1.051 -5.699 -2.574 -1.645 -2.848 0.906 c -0.289 2.449 0.613 5.273 0.746 5.445 c 0.215 -2 0.406 -3.109 3.672 -4.953 m 0 0.004" fill="#f9f9f9" stroke="none" fill-rule="nonzero" fill-opacity="1"/><path d="m 34.988 21.492 c -0.082 -2.121 -1.414 -3.586 -2.32 -3.242 c -0.387 0.145 -0.641 1.133 -0.508 1.746 c 0.445 2.18 2.277 4.699 1.824 6.855 c -0.34 1.031 -3.348 1.672 -3.348 1.672 c 0 0 -0.059 0.883 -0.172 1.484 c -0.137 0.73 -0.414 1.309 -0.414 1.309 c 0 0 0.715 0.641 0.742 0.641 c 0.031 0 4.5 -2.32 4.195 -10.465 m 0 0" fill="#f9f9f9" stroke="none" fill-rule="nonzero" fill-opacity="1"/><path d="m 33 27.332 c -0.742 -0.301 -1 -0.43 -1.969 -1.148 c -5.355 -4 -10.285 -0.535 -10.188 -0.57 c 0.887 -0.281 1.891 -0.535 3.191 -0.453 c 1.051 0.07 2.449 0.734 4.176 2.168 c 1.16 1.02 2.918 1.148 4.785 0.004 m 0.004 0" fill="#f9f9f9" stroke="none" fill-rule="nonzero" fill-opacity="1"/><path d="m 27.973 15.902 c -1.98 0.637 -3.051 1.184 -3.371 1.438 c -0.656 1.672 0.668 2.93 1.875 3.813 c 1.586 -0.375 2.906 -1.551 3.496 -2.844 c -0.309 0.043 -0.637 -0.016 -1 -0.219 c -0.707 -0.398 -1.137 -1.355 -1 -2.188 m 0 0" fill="#f9f9f9" stroke="none" fill-rule="nonzero" fill-opacity="1"/><path d="m 30.855 15.586 c -0.129 -0.508 -0.543 -1.16 -0.656 -1.16 c -0.102 0 -1.203 0.82 -1.488 1.102 c -0.645 0.645 -0.332 1.82 0.383 2.219 c 1.211 0.68 2.105 -0.813 1.762 -2.16 m 0 0" fill="#f9f9f9" stroke="none" fill-rule="nonzero" fill-opacity="1"/><path d="m 29.914 13.867 c 0.484 -0.465 1.129 -1.227 1.297 -2.387 c 0.098 -1.039 -0.156 -1.68 -0.469 -2.477 c -0.152 1.555 -0.379 3.285 -1.438 5.121 c -0.332 0.578 -0.152 0.473 0.609 -0.258 m 0 0" fill="#f9f9f9" stroke="none" fill-rule="nonzero" fill-opacity="1"/><path d="m 16.328 29.969 c 0.168 0.422 0.156 1.223 -0.094 2.594 c -0.004 0.012 0 0.02 0 0.031 c 0.176 0.246 0.539 0.543 0.902 0.813 c 1.25 -0.582 2.82 -1.672 2.719 -1.688 c -0.668 -0.113 -2.734 -0.617 -3.527 -1.75 m 0 0" fill="#f9f9f9" stroke="none" fill-rule="nonzero" fill-opacity="1"/><path d="m 27.754 27.527 c -0.055 0 -0.098 0 -0.219 0.031 c -1.555 0.434 -5.527 1.449 -6.148 2.125 c -0.242 0.516 -0.48 2.574 -3.969 3.879 c -0.098 0.035 2.93 1.992 3.094 2 c 9.883 0.414 9.871 -6.676 9.742 -7 c -0.961 0.016 -1.777 -0.32 -2.406 -0.938 c -0.031 -0.031 -0.059 -0.063 -0.094 -0.094 m 0 0" fill="#f9f9f9" stroke="none" fill-rule="nonzero" fill-opacity="1"/></g></g></g><g><path d="m 20 4 -7.313 3.03 -5.656 5.656 -3.03 7.313 0 8 3.03 7.313 5.656 5.656 7.313 3.03 8 0 7.313 -3.03 5.656 -5.656 3.03 -7.313 0 -8 -3.03 -7.313 -5.656 -5.656 -7.313 -3.03 -8 0 z" clip-path="url(#clipPath4313)" transform="matrix(0,1,-1,0,48,0)" opacity="0.3" stroke-opacity="1" stroke-dasharray="none" visibility="visible" fill="none" display="inline" stroke="url(#linearGradient4375)" color="#000" stroke-width="1" stroke-miterlimit="4"/><path d="m 24 2.344 -4 1.656 -4.281 0 -3.03 3.03 l -4 1.656 -1.656 4 l -3.03 3.03 0 4.281 -1.656 4 1.656 4 l 0 4.281 3.03 3.03 1.656 4 4 1.656 l 3.03 3.03 4.281 0 4 1.656 4 -1.656 l 4.281 0 3.03 -3.03 4 -1.656 1.656 -4 l 3.03 -3.03 0 -4.281 1.656 -4 -1.656 -4 l 0 -4.281 -3.03 -3.03 -1.656 -4 -4 -1.656 l -3.03 -3.03 -4.281 0 -4 -1.656 z" clip-path="url(#clipPath4329)" opacity="0.2" stroke-opacity="1" visibility="visible" fill="none" display="inline" stroke="#000" color="#000" stroke-width="2"/></g></svg>