<svg viewBox="0 0 48 48" xmlns:xlink="http://www.w3.org/1999/xlink"><defs><clipPath clipPathUnits="userSpaceOnUse" id="clipPath4313"><path d="m 20 4 -7.313 3.03 -5.656 5.656 -3.03 7.313 0 8 3.03 7.313 5.656 5.656 7.313 3.03 8 0 7.313 -3.03 5.656 -5.656 3.03 -7.313 0 -8 -3.03 -7.313 -5.656 -5.656 -7.313 -3.03 -8 0 z"/></clipPath><clipPath clipPathUnits="userSpaceOnUse" id="clipPath4329"><path d="m 24 2.344 -4 1.656 -4.281 0 -3.03 3.03 l -4 1.656 -1.656 4 l -3.03 3.03 0 4.281 -1.656 4 1.656 4 l 0 4.281 3.03 3.03 1.656 4 4 1.656 l 3.03 3.03 4.281 0 4 1.656 4 -1.656 l 4.281 0 3.03 -3.03 4 -1.656 1.656 -4 l 3.03 -3.03 0 -4.281 1.656 -4 -1.656 -4 l 0 -4.281 -3.03 -3.03 -1.656 -4 -4 -1.656 l -3.03 -3.03 -4.281 0 -4 -1.656 z"/></clipPath><clipPath id="clipPath-220404415"><path d="m 24 2.344 l -4 1.656 l -4.281 0 l -3.03 3.03 l -4 1.656 l -1.656 4 l -3.03 3.03 l 0 4.281 l -1.656 4 l 1.656 4 l 0 4.281 l 3.03 3.03 l 1.656 4 l 4 1.656 l 3.03 3.03 l 4.281 0 l 4 1.656 l 4 -1.656 l 4.281 0 l 3.03 -3.03 l 4 -1.656 l 1.656 -4 l 3.03 -3.03 l 0 -4.281 l 1.656 -4 l -1.656 -4 l 0 -4.281 l -3.03 -3.03 l -1.656 -4 l -4 -1.656 l -3.03 -3.03 l -4.281 0 l -4 -1.656 z"/></clipPath><clipPath id="clipPath-231577076"><path d="m 24 2.344 l -4 1.656 l -4.281 0 l -3.03 3.03 l -4 1.656 l -1.656 4 l -3.03 3.03 l 0 4.281 l -1.656 4 l 1.656 4 l 0 4.281 l 3.03 3.03 l 1.656 4 l 4 1.656 l 3.03 3.03 l 4.281 0 l 4 1.656 l 4 -1.656 l 4.281 0 l 3.03 -3.03 l 4 -1.656 l 1.656 -4 l 3.03 -3.03 l 0 -4.281 l 1.656 -4 l -1.656 -4 l 0 -4.281 l -3.03 -3.03 l -1.656 -4 l -4 -1.656 l -3.03 -3.03 l -4.281 0 l -4 -1.656 z"/></clipPath><linearGradient id="linearGradient4317"><stop stop-color="#fff" stop-opacity="1"/><stop offset="1" stop-color="#fff" stop-opacity="0"/></linearGradient><clipPath clipPathUnits="userSpaceOnUse" id="clipPath4313"><path d="m 20 4 -7.313 3.03 -5.656 5.656 -3.03 7.313 0 8 3.03 7.313 5.656 5.656 7.313 3.03 8 0 7.313 -3.03 5.656 -5.656 3.03 -7.313 0 -8 -3.03 -7.313 -5.656 -5.656 -7.313 -3.03 -8 0 z"/></clipPath><linearGradient x2="44" x1="4" gradientUnits="userSpaceOnUse" id="linearGradient4375" xlink:href="#linearGradient4317"/><clipPath clipPathUnits="userSpaceOnUse" id="clipPath4329"><path d="m 24 2.344 -4 1.656 -4.281 0 -3.03 3.03 l -4 1.656 -1.656 4 l -3.03 3.03 0 4.281 -1.656 4 1.656 4 l 0 4.281 3.03 3.03 1.656 4 4 1.656 l 3.03 3.03 4.281 0 4 1.656 4 -1.656 l 4.281 0 3.03 -3.03 4 -1.656 1.656 -4 l 3.03 -3.03 0 -4.281 1.656 -4 -1.656 -4 l 0 -4.281 -3.03 -3.03 -1.656 -4 -4 -1.656 l -3.03 -3.03 -4.281 0 -4 -1.656 z"/></clipPath><radialGradient id="radial0" gradientUnits="userSpaceOnUse" cx="21.561" cy="27.06" r="13.438" gradientTransform="matrix(3.377318,0,0,3.675381,-53.667491,-63.501833)"><stop stop-color="#ce5b00" stop-opacity="0.71"/><stop offset="1" stop-color="#f47800" stop-opacity="0.71"/></radialGradient><radialGradient id="radial1" gradientUnits="userSpaceOnUse" cx="24.471" cy="23.21" r="14.529" gradientTransform="matrix(3.23174,-0.000000591588,0.000000913104,2.140921,-54.375419,-22.763309)"><stop stop-color="#fff" stop-opacity="0.416"/><stop offset="1" stop-color="#fff" stop-opacity="0"/></radialGradient><radialGradient id="radial0" gradientUnits="userSpaceOnUse" cx="21.561" cy="27.06" r="13.438" gradientTransform="matrix(3.377318,0,0,3.675381,-53.667491,-63.501833)"><stop stop-color="#ce5b00" stop-opacity="0.71"/><stop offset="1" stop-color="#f47800" stop-opacity="0.71"/></radialGradient><radialGradient id="radial1" gradientUnits="userSpaceOnUse" cx="24.471" cy="23.21" r="14.529" gradientTransform="matrix(3.23174,-0.000000591588,0.000000913104,2.140921,-54.375419,-22.763309)"><stop stop-color="#fff" stop-opacity="0.416"/><stop offset="1" stop-color="#fff" stop-opacity="0"/></radialGradient><path id="SVGCleanerId_0" d="m 24 2.344 l -4 1.656 l -4.281 0 l -3.03 3.03 l -4 1.656 l -1.656 4 l -3.03 3.03 l 0 4.281 l -1.656 4 l 1.656 4 l 0 4.281 l 3.03 3.03 l 1.656 4 l 4 1.656 l 3.03 3.03 l 4.281 0 l 4 1.656 l 4 -1.656 l 4.281 0 l 3.03 -3.03 l 4 -1.656 l 1.656 -4 l 3.03 -3.03 l 0 -4.281 l 1.656 -4 l -1.656 -4 l 0 -4.281 l -3.03 -3.03 l -1.656 -4 l -4 -1.656 l -3.03 -3.03 l -4.281 0 l -4 -1.656 z" visibility="visible" display="inline" fill-rule="nonzero" color="#000" fill-opacity="1"/></defs><g><path d="m 2.563 24.5 l -0.219 0.5 l 1.656 4 l 0 -1 l -1.438 -3.5 z m 42.875 0 l -1.438 3.5 l 0 1 l 1.656 -4 l -0.219 -0.5 z m -41.44 7.781 l 0 1 l 3.03 3.03 l 1.656 4 l 4 1.656 l 3.03 3.03 l 4.281 0 l 4 1.656 l 4 -1.656 l 4.281 0 l 3.03 -3.03 l 4 -1.656 l 1.656 -4 l 3.03 -3.03 l 0 -1 l -3.03 3.03 l -1.656 4 l -4 1.656 l -3.03 3.03 l -4.281 0 l -4 1.656 l -4 -1.656 l -4.281 0 l -3.03 -3.03 l -4 -1.656 l -1.656 -4 l -3.03 -3.03 z" opacity="0.3" visibility="visible" fill="#000" display="inline" fill-rule="nonzero" stroke="none" fill-opacity="1" color="#000"/></g><g><use fill="#f99824" stroke="none" xlink:href="#SVGCleanerId_0"/><path d="m 24 2.344 l -4 1.656 l 8 0 l -4 -1.656 z m 4 1.656 l 7.313 3.03 l -3.03 -3.03 l -4.281 0 z m 7.313 3.03 l 5.656 5.656 l -1.656 -4 l -4 -1.656 z m 5.656 5.656 l 3.03 7.313 l 0 -4.281 l -3.03 -3.03 z m 3.03 7.313 l 0 8 l 1.656 -4 l -1.656 -4 z m 0 8 l -3.03 7.313 l 3.03 -3.03 l 0 -4.281 z m -3.03 7.313 l -5.656 5.656 l 4 -1.656 l 1.656 -4 z m -5.656 5.656 l -7.313 3.03 l 4.281 0 l 3.03 -3.03 z m -7.313 3.03 l -8 0 l 4 1.656 l 4 -1.656 z m -8 0 l -7.313 -3.03 l 3.03 3.03 l 4.281 0 z m -7.313 -3.03 l -5.656 -5.656 l 1.656 4 l 4 1.656 z m -5.656 -5.656 l -3.03 -7.313 l 0 4.281 l 3.03 3.03 z m -3.03 -7.313 l 0 -8 l -1.656 4 l 1.656 4 z m 0 -8 l 3.03 -7.313 l -3.03 3.03 l 0 4.281 z m 3.03 -7.313 l 5.656 -5.656 l -4 1.656 l -1.656 4 z m 5.656 -5.656 l 7.313 -3.03 l -4.281 0 l -3.03 3.03 z" opacity="0.05" visibility="visible" fill="#f99824" display="inline" fill-rule="nonzero" stroke="none" fill-opacity="1" color="#000"/></g><g><use opacity="0.05" stroke-opacity="1" stroke-dasharray="none" fill="#000" stroke="#000" stroke-width="2" stroke-miterlimit="4" xlink:href="#SVGCleanerId_0"/><use opacity="0.1" stroke-opacity="1" stroke-dasharray="none" fill="#000" stroke="#000" stroke-width="1" stroke-miterlimit="4" xlink:href="#SVGCleanerId_0"/></g><g><g clip-path="url(#clipPath-220404415)"><g transform="translate(0,1)"><g opacity="0.1"><!-- color: #f99824 --><g><path d="m 0 0 l 0 6.188 c 6.48 9.453 13.242 19.359 20.594 30.16 l -13.188 -36.34 l -7.406 0 m 20.594 36.33 l 17.719 -36.34 l -10.469 0 c -2.246 11.441 -4.652 23.48 -7.25 36.34 m 0 0 l 27.406 -7.75 l 0 -6.816 c -8.73 4.652 -17.93 9.551 -27.406 14.566 m 0 0 l 27.406 10.344 l 0 -6.125 c -8.805 -1.34 -17.844 -2.719 -27.406 -4.219 m 0 0 l 4.25 11.648 l 3.719 0 c -2.633 -3.852 -5.168 -7.543 -7.969 -11.648 m 0 0 l -5.625 11.648 l 3.344 0 c 0.742 -3.793 1.473 -7.645 2.281 -11.648 m 0 0 l -20.594 5.844 l 0 5.063 c 6.73 -3.57 13.434 -7.121 20.594 -10.906 m 0 0 l -20.594 -7.781 l 0 4.563 c 6.805 1.066 13.426 2.098 20.594 3.219 m 0 0" fill="#000" stroke="none" fill-rule="evenodd"/><path d="m 48 19.625 c -4.836 4.438 -12.11 6.527 -20.719 5.969 c -10.09 -0.656 -19.641 -0.313 -27.28 4.375 l 0 18.03 l 48 0 m 0 -28.375" fill="#000" stroke="none" fill-rule="evenodd"/><path d="m 23.402 12.195 l 5.598 -1.191 l 0 18.762 c 0 2.426 -0.738 4.238 -2.211 5.438 c -1.465 1.199 -3.684 1.801 -6.66 1.801 l -1.133 0 l 0 -3.793 l 0.871 0 c 1.164 0 2.043 -0.289 2.629 -0.871 c 0.602 -0.582 0.898 -1.438 0.898 -2.57 l 0 -17.57" fill="#000" stroke="none" fill-rule="nonzero" fill-opacity="1"/></g></g></g></g></g><g><g clip-path="url(#clipPath-231577076)"><!-- color: #f99824 --><g><path d="m 0 0 l 0 6.188 c 6.48 9.453 13.242 19.359 20.594 30.16 l -13.188 -36.34 l -7.406 0 m 20.594 36.33 l 17.719 -36.34 l -10.469 0 c -2.246 11.441 -4.652 23.48 -7.25 36.34 m 0 0 l 27.406 -7.75 l 0 -6.816 c -8.73 4.652 -17.93 9.551 -27.406 14.566 m 0 0 l 27.406 10.344 l 0 -6.125 c -8.805 -1.34 -17.844 -2.719 -27.406 -4.219 m 0 0 l 4.25 11.648 l 3.719 0 c -2.633 -3.852 -5.168 -7.543 -7.969 -11.648 m 0 0 l -5.625 11.648 l 3.344 0 c 0.742 -3.793 1.473 -7.645 2.281 -11.648 m 0 0 l -20.594 5.844 l 0 5.063 c 6.73 -3.57 13.434 -7.121 20.594 -10.906 m 0 0 l -20.594 -7.781 l 0 4.563 c 6.805 1.066 13.426 2.098 20.594 3.219 m 0 0" fill="url(#radial0)" stroke="none" fill-rule="evenodd"/><path d="m 48 19.625 c -4.836 4.438 -12.11 6.527 -20.719 5.969 c -10.09 -0.656 -19.641 -0.313 -27.28 4.375 l 0 18.03 l 48 0 m 0 -28.375" fill="url(#radial1)" stroke="none" fill-rule="evenodd"/><path d="m 23.402 12.195 l 5.598 -1.191 l 0 18.762 c 0 2.426 -0.738 4.238 -2.211 5.438 c -1.465 1.199 -3.684 1.801 -6.66 1.801 l -1.133 0 l 0 -3.793 l 0.871 0 c 1.164 0 2.043 -0.289 2.629 -0.871 c 0.602 -0.582 0.898 -1.438 0.898 -2.57 l 0 -17.57" fill="#f9f9f9" stroke="none" fill-rule="nonzero" fill-opacity="1"/></g></g></g><g><path d="m 20 4 -7.313 3.03 -5.656 5.656 -3.03 7.313 0 8 3.03 7.313 5.656 5.656 7.313 3.03 8 0 7.313 -3.03 5.656 -5.656 3.03 -7.313 0 -8 -3.03 -7.313 -5.656 -5.656 -7.313 -3.03 -8 0 z" clip-path="url(#clipPath4313)" transform="matrix(0,1,-1,0,48,0)" opacity="0.3" stroke-opacity="1" stroke-dasharray="none" visibility="visible" fill="none" display="inline" stroke="url(#linearGradient4375)" color="#000" stroke-width="1" stroke-miterlimit="4"/><path d="m 24 2.344 -4 1.656 -4.281 0 -3.03 3.03 l -4 1.656 -1.656 4 l -3.03 3.03 0 4.281 -1.656 4 1.656 4 l 0 4.281 3.03 3.03 1.656 4 4 1.656 l 3.03 3.03 4.281 0 4 1.656 4 -1.656 l 4.281 0 3.03 -3.03 4 -1.656 1.656 -4 l 3.03 -3.03 0 -4.281 1.656 -4 -1.656 -4 l 0 -4.281 -3.03 -3.03 -1.656 -4 -4 -1.656 l -3.03 -3.03 -4.281 0 -4 -1.656 z" clip-path="url(#clipPath4329)" opacity="0.2" stroke-opacity="1" visibility="visible" fill="none" display="inline" stroke="#000" color="#000" stroke-width="2"/></g></svg>