<svg viewBox="0 0 48 48" xmlns:xlink="http://www.w3.org/1999/xlink"><defs><clipPath clipPathUnits="userSpaceOnUse" id="clipPath4313"><path d="m 20 4 -7.313 3.03 -5.656 5.656 -3.03 7.313 0 8 3.03 7.313 5.656 5.656 7.313 3.03 8 0 7.313 -3.03 5.656 -5.656 3.03 -7.313 0 -8 -3.03 -7.313 -5.656 -5.656 -7.313 -3.03 -8 0 z"/></clipPath><clipPath clipPathUnits="userSpaceOnUse" id="clipPath4329"><path d="m 24 2.344 -4 1.656 -4.281 0 -3.03 3.03 l -4 1.656 -1.656 4 l -3.03 3.03 0 4.281 -1.656 4 1.656 4 l 0 4.281 3.03 3.03 1.656 4 4 1.656 l 3.03 3.03 4.281 0 4 1.656 4 -1.656 l 4.281 0 3.03 -3.03 4 -1.656 1.656 -4 l 3.03 -3.03 0 -4.281 1.656 -4 -1.656 -4 l 0 -4.281 -3.03 -3.03 -1.656 -4 -4 -1.656 l -3.03 -3.03 -4.281 0 -4 -1.656 z"/></clipPath><clipPath id="clipPath-447092195"><path d="m 24 2.344 l -4 1.656 l -4.281 0 l -3.03 3.03 l -4 1.656 l -1.656 4 l -3.03 3.03 l 0 4.281 l -1.656 4 l 1.656 4 l 0 4.281 l 3.03 3.03 l 1.656 4 l 4 1.656 l 3.03 3.03 l 4.281 0 l 4 1.656 l 4 -1.656 l 4.281 0 l 3.03 -3.03 l 4 -1.656 l 1.656 -4 l 3.03 -3.03 l 0 -4.281 l 1.656 -4 l -1.656 -4 l 0 -4.281 l -3.03 -3.03 l -1.656 -4 l -4 -1.656 l -3.03 -3.03 l -4.281 0 l -4 -1.656 z"/></clipPath><clipPath id="clipPath-459623893"><path d="m 24 2.344 l -4 1.656 l -4.281 0 l -3.03 3.03 l -4 1.656 l -1.656 4 l -3.03 3.03 l 0 4.281 l -1.656 4 l 1.656 4 l 0 4.281 l 3.03 3.03 l 1.656 4 l 4 1.656 l 3.03 3.03 l 4.281 0 l 4 1.656 l 4 -1.656 l 4.281 0 l 3.03 -3.03 l 4 -1.656 l 1.656 -4 l 3.03 -3.03 l 0 -4.281 l 1.656 -4 l -1.656 -4 l 0 -4.281 l -3.03 -3.03 l -1.656 -4 l -4 -1.656 l -3.03 -3.03 l -4.281 0 l -4 -1.656 z"/></clipPath><linearGradient id="linearGradient4317"><stop stop-color="#fff" stop-opacity="1"/><stop offset="1" stop-color="#fff" stop-opacity="0"/></linearGradient><clipPath clipPathUnits="userSpaceOnUse" id="clipPath4313"><path d="m 20 4 -7.313 3.03 -5.656 5.656 -3.03 7.313 0 8 3.03 7.313 5.656 5.656 7.313 3.03 8 0 7.313 -3.03 5.656 -5.656 3.03 -7.313 0 -8 -3.03 -7.313 -5.656 -5.656 -7.313 -3.03 -8 0 z"/></clipPath><linearGradient x2="44" x1="4" gradientUnits="userSpaceOnUse" id="linearGradient4375" xlink:href="#linearGradient4317"/><clipPath clipPathUnits="userSpaceOnUse" id="clipPath4329"><path d="m 24 2.344 -4 1.656 -4.281 0 -3.03 3.03 l -4 1.656 -1.656 4 l -3.03 3.03 0 4.281 -1.656 4 1.656 4 l 0 4.281 3.03 3.03 1.656 4 4 1.656 l 3.03 3.03 4.281 0 4 1.656 4 -1.656 l 4.281 0 3.03 -3.03 4 -1.656 1.656 -4 l 3.03 -3.03 0 -4.281 1.656 -4 -1.656 -4 l 0 -4.281 -3.03 -3.03 -1.656 -4 -4 -1.656 l -3.03 -3.03 -4.281 0 -4 -1.656 z"/></clipPath><path id="SVGCleanerId_0" d="m 24 2.344 l -4 1.656 l -4.281 0 l -3.03 3.03 l -4 1.656 l -1.656 4 l -3.03 3.03 l 0 4.281 l -1.656 4 l 1.656 4 l 0 4.281 l 3.03 3.03 l 1.656 4 l 4 1.656 l 3.03 3.03 l 4.281 0 l 4 1.656 l 4 -1.656 l 4.281 0 l 3.03 -3.03 l 4 -1.656 l 1.656 -4 l 3.03 -3.03 l 0 -4.281 l 1.656 -4 l -1.656 -4 l 0 -4.281 l -3.03 -3.03 l -1.656 -4 l -4 -1.656 l -3.03 -3.03 l -4.281 0 l -4 -1.656 z" visibility="visible" display="inline" fill-rule="nonzero" color="#000" fill-opacity="1"/></defs><g><path d="m 2.563 24.5 l -0.219 0.5 l 1.656 4 l 0 -1 l -1.438 -3.5 z m 42.875 0 l -1.438 3.5 l 0 1 l 1.656 -4 l -0.219 -0.5 z m -41.44 7.781 l 0 1 l 3.03 3.03 l 1.656 4 l 4 1.656 l 3.03 3.03 l 4.281 0 l 4 1.656 l 4 -1.656 l 4.281 0 l 3.03 -3.03 l 4 -1.656 l 1.656 -4 l 3.03 -3.03 l 0 -1 l -3.03 3.03 l -1.656 4 l -4 1.656 l -3.03 3.03 l -4.281 0 l -4 1.656 l -4 -1.656 l -4.281 0 l -3.03 -3.03 l -4 -1.656 l -1.656 -4 l -3.03 -3.03 z" opacity="0.3" visibility="visible" fill="#000" display="inline" fill-rule="nonzero" stroke="none" fill-opacity="1" color="#000"/></g><g><use fill="#eee" stroke="none" xlink:href="#SVGCleanerId_0"/><path d="m 24 2.344 l -4 1.656 l 8 0 l -4 -1.656 z m 4 1.656 l 7.313 3.03 l -3.03 -3.03 l -4.281 0 z m 7.313 3.03 l 5.656 5.656 l -1.656 -4 l -4 -1.656 z m 5.656 5.656 l 3.03 7.313 l 0 -4.281 l -3.03 -3.03 z m 3.03 7.313 l 0 8 l 1.656 -4 l -1.656 -4 z m 0 8 l -3.03 7.313 l 3.03 -3.03 l 0 -4.281 z m -3.03 7.313 l -5.656 5.656 l 4 -1.656 l 1.656 -4 z m -5.656 5.656 l -7.313 3.03 l 4.281 0 l 3.03 -3.03 z m -7.313 3.03 l -8 0 l 4 1.656 l 4 -1.656 z m -8 0 l -7.313 -3.03 l 3.03 3.03 l 4.281 0 z m -7.313 -3.03 l -5.656 -5.656 l 1.656 4 l 4 1.656 z m -5.656 -5.656 l -3.03 -7.313 l 0 4.281 l 3.03 3.03 z m -3.03 -7.313 l 0 -8 l -1.656 4 l 1.656 4 z m 0 -8 l 3.03 -7.313 l -3.03 3.03 l 0 4.281 z m 3.03 -7.313 l 5.656 -5.656 l -4 1.656 l -1.656 4 z m 5.656 -5.656 l 7.313 -3.03 l -4.281 0 l -3.03 3.03 z" opacity="0.05" visibility="visible" fill="#eee" display="inline" fill-rule="nonzero" stroke="none" fill-opacity="1" color="#000"/></g><g><use opacity="0.05" stroke-opacity="1" stroke-dasharray="none" fill="#000" stroke="#000" stroke-width="2" stroke-miterlimit="4" xlink:href="#SVGCleanerId_0"/><use opacity="0.1" stroke-opacity="1" stroke-dasharray="none" fill="#000" stroke="#000" stroke-width="1" stroke-miterlimit="4" xlink:href="#SVGCleanerId_0"/></g><g><g clip-path="url(#clipPath-447092195)"><g transform="translate(0,1)"><g opacity="0.1"><!-- color: #eeeeee --><g><path d="m 23.988 9 c -8.262 0 -14.988 6.699 -14.988 14.984 c 0 8.289 6.727 15.01 14.988 15.01 c 8.262 0 15.01 -6.723 15.01 -15.01 c 0 -8.289 -6.75 -14.984 -15.01 -14.984 m 0 2 c 7.211 0 13.02 5.809 13.02 12.984 c 0 7.176 -5.813 13.02 -13.02 13.02 c -7.211 0 -12.996 -5.84 -12.996 -13.02 c 0 -7.176 5.781 -12.984 12.996 -12.984 m 0 0" fill="#000" stroke="none" fill-rule="nonzero" fill-opacity="0.502"/><path d="m 23.988 9 c -8.262 0 -14.988 6.699 -14.988 14.984 l 1.992 0 c 0 -7.176 5.781 -12.984 12.996 -12.984 c 7.211 0 13.02 5.809 13.02 12.984 l 0 0.137 c -0.078 7.125 -5.859 12.879 -13.02 12.879 l 0 1.996 c 8.262 0 15.01 -6.723 15.01 -15.01 c 0 -8.289 -6.75 -14.977 -15.01 -14.977 m 0 0" fill="#000" stroke="none" fill-rule="nonzero" fill-opacity="1"/><path d="m 9.563 20 c -0.352 1.27 -0.563 2.613 -0.563 4 c 0 1.727 0.305 3.391 0.844 4.934 l 0.156 0.066 l 5.996 -9 l -6.438 0 m 0.004 0" fill="#000" stroke="none" fill-rule="nonzero" fill-opacity="1"/><path d="m 28.18 15 c -2.66 0 -4.82 2.156 -4.82 4.82 c 0 0.832 0.211 1.617 0.578 2.301 c 0 0.004 0 0.008 0 0.012 l -8.938 8.938 l 0 1.93 l 1.926 0 l 0.641 -0.641 l 0 -1.289 l 1.289 0 l 0.641 -0.641 l 1.285 0 l 0.641 -0.641 l 0 -1.285 l 0.641 -0.645 l 1.289 0 l 0 -1.285 l 2.512 -2.512 c 0.004 0 0.008 0 0.02 0 c 0.684 0.371 1.465 0.582 2.297 0.582 c 2.66 0 4.816 -2.16 4.816 -4.824 l 0 -0.02 c -0.012 -2.66 -2.156 -4.801 -4.816 -4.801 m 0.973 2.57 c 0.707 0 1.281 0.578 1.285 1.289 c 0 0.707 -0.574 1.285 -1.285 1.285 c -0.711 0 -1.285 -0.574 -1.285 -1.285 c 0 -0.711 0.57 -1.289 1.285 -1.289 m 0 0" fill="#000" stroke="none" fill-rule="nonzero" fill-opacity="1"/></g></g></g></g></g><g><g clip-path="url(#clipPath-459623893)"><!-- color: #eeeeee --><g><path d="m 23.988 9 c -8.262 0 -14.988 6.699 -14.988 14.984 c 0 8.289 6.727 15.01 14.988 15.01 c 8.262 0 15.01 -6.723 15.01 -15.01 c 0 -8.289 -6.75 -14.984 -15.01 -14.984 m 0 2 c 7.211 0 13.02 5.809 13.02 12.984 c 0 7.176 -5.813 13.02 -13.02 13.02 c -7.211 0 -12.996 -5.84 -12.996 -13.02 c 0 -7.176 5.781 -12.984 12.996 -12.984 m 0 0" fill="#36a321" stroke="none" fill-rule="nonzero" fill-opacity="0.502"/><path d="m 23.988 9 c -8.262 0 -14.988 6.699 -14.988 14.984 l 1.992 0 c 0 -7.176 5.781 -12.984 12.996 -12.984 c 7.211 0 13.02 5.809 13.02 12.984 l 0 0.137 c -0.078 7.125 -5.859 12.879 -13.02 12.879 l 0 1.996 c 8.262 0 15.01 -6.723 15.01 -15.01 c 0 -8.289 -6.75 -14.977 -15.01 -14.977 m 0 0" fill="#36a321" stroke="none" fill-rule="nonzero" fill-opacity="1"/><path d="m 9.563 20 c -0.352 1.27 -0.563 2.613 -0.563 4 c 0 1.727 0.305 3.391 0.844 4.934 l 0.156 0.066 l 5.996 -9 l -6.438 0 m 0.004 0" fill="#36a321" stroke="none" fill-rule="nonzero" fill-opacity="1"/><path d="m 28.18 15 c -2.66 0 -4.82 2.156 -4.82 4.82 c 0 0.832 0.211 1.617 0.578 2.301 c 0 0.004 0 0.008 0 0.012 l -8.938 8.938 l 0 1.93 l 1.926 0 l 0.641 -0.641 l 0 -1.289 l 1.289 0 l 0.641 -0.641 l 1.285 0 l 0.641 -0.641 l 0 -1.285 l 0.641 -0.645 l 1.289 0 l 0 -1.285 l 2.512 -2.512 c 0.004 0 0.008 0 0.02 0 c 0.684 0.371 1.465 0.582 2.297 0.582 c 2.66 0 4.816 -2.16 4.816 -4.824 l 0 -0.02 c -0.012 -2.66 -2.156 -4.801 -4.816 -4.801 m 0.973 2.57 c 0.707 0 1.281 0.578 1.285 1.289 c 0 0.707 -0.574 1.285 -1.285 1.285 c -0.711 0 -1.285 -0.574 -1.285 -1.285 c 0 -0.711 0.57 -1.289 1.285 -1.289 m 0 0" fill="#2d2d2d" stroke="none" fill-rule="nonzero" fill-opacity="1"/></g></g></g><g><path d="m 20 4 -7.313 3.03 -5.656 5.656 -3.03 7.313 0 8 3.03 7.313 5.656 5.656 7.313 3.03 8 0 7.313 -3.03 5.656 -5.656 3.03 -7.313 0 -8 -3.03 -7.313 -5.656 -5.656 -7.313 -3.03 -8 0 z" clip-path="url(#clipPath4313)" transform="matrix(0,1,-1,0,48,0)" opacity="0.3" stroke-opacity="1" stroke-dasharray="none" visibility="visible" fill="none" display="inline" stroke="url(#linearGradient4375)" color="#000" stroke-width="1" stroke-miterlimit="4"/><path d="m 24 2.344 -4 1.656 -4.281 0 -3.03 3.03 l -4 1.656 -1.656 4 l -3.03 3.03 0 4.281 -1.656 4 1.656 4 l 0 4.281 3.03 3.03 1.656 4 4 1.656 l 3.03 3.03 4.281 0 4 1.656 4 -1.656 l 4.281 0 3.03 -3.03 4 -1.656 1.656 -4 l 3.03 -3.03 0 -4.281 1.656 -4 -1.656 -4 l 0 -4.281 -3.03 -3.03 -1.656 -4 -4 -1.656 l -3.03 -3.03 -4.281 0 -4 -1.656 z" clip-path="url(#clipPath4329)" opacity="0.2" stroke-opacity="1" visibility="visible" fill="none" display="inline" stroke="#000" color="#000" stroke-width="2"/></g></svg>