<svg viewBox="0 0 48 48" xmlns:xlink="http://www.w3.org/1999/xlink"><defs><clipPath clipPathUnits="userSpaceOnUse" id="clipPath4313"><path d="m 20 4 -7.313 3.03 -5.656 5.656 -3.03 7.313 0 8 3.03 7.313 5.656 5.656 7.313 3.03 8 0 7.313 -3.03 5.656 -5.656 3.03 -7.313 0 -8 -3.03 -7.313 -5.656 -5.656 -7.313 -3.03 -8 0 z"/></clipPath><clipPath clipPathUnits="userSpaceOnUse" id="clipPath4329"><path d="m 24 2.344 -4 1.656 -4.281 0 -3.03 3.03 l -4 1.656 -1.656 4 l -3.03 3.03 0 4.281 -1.656 4 1.656 4 l 0 4.281 3.03 3.03 1.656 4 4 1.656 l 3.03 3.03 4.281 0 4 1.656 4 -1.656 l 4.281 0 3.03 -3.03 4 -1.656 1.656 -4 l 3.03 -3.03 0 -4.281 1.656 -4 -1.656 -4 l 0 -4.281 -3.03 -3.03 -1.656 -4 -4 -1.656 l -3.03 -3.03 -4.281 0 -4 -1.656 z"/></clipPath><clipPath id="clipPath-437483151"><path d="m 24 2.344 l -4 1.656 l -4.281 0 l -3.03 3.03 l -4 1.656 l -1.656 4 l -3.03 3.03 l 0 4.281 l -1.656 4 l 1.656 4 l 0 4.281 l 3.03 3.03 l 1.656 4 l 4 1.656 l 3.03 3.03 l 4.281 0 l 4 1.656 l 4 -1.656 l 4.281 0 l 3.03 -3.03 l 4 -1.656 l 1.656 -4 l 3.03 -3.03 l 0 -4.281 l 1.656 -4 l -1.656 -4 l 0 -4.281 l -3.03 -3.03 l -1.656 -4 l -4 -1.656 l -3.03 -3.03 l -4.281 0 l -4 -1.656 z"/></clipPath><clipPath id="clipPath-447278060"><path d="m 24 2.344 l -4 1.656 l -4.281 0 l -3.03 3.03 l -4 1.656 l -1.656 4 l -3.03 3.03 l 0 4.281 l -1.656 4 l 1.656 4 l 0 4.281 l 3.03 3.03 l 1.656 4 l 4 1.656 l 3.03 3.03 l 4.281 0 l 4 1.656 l 4 -1.656 l 4.281 0 l 3.03 -3.03 l 4 -1.656 l 1.656 -4 l 3.03 -3.03 l 0 -4.281 l 1.656 -4 l -1.656 -4 l 0 -4.281 l -3.03 -3.03 l -1.656 -4 l -4 -1.656 l -3.03 -3.03 l -4.281 0 l -4 -1.656 z"/></clipPath><linearGradient id="linearGradient4317"><stop stop-color="#fff" stop-opacity="1"/><stop offset="1" stop-color="#fff" stop-opacity="0"/></linearGradient><clipPath clipPathUnits="userSpaceOnUse" id="clipPath4313"><path d="m 20 4 -7.313 3.03 -5.656 5.656 -3.03 7.313 0 8 3.03 7.313 5.656 5.656 7.313 3.03 8 0 7.313 -3.03 5.656 -5.656 3.03 -7.313 0 -8 -3.03 -7.313 -5.656 -5.656 -7.313 -3.03 -8 0 z"/></clipPath><linearGradient x2="44" x1="4" gradientUnits="userSpaceOnUse" id="linearGradient4375" xlink:href="#linearGradient4317"/><clipPath clipPathUnits="userSpaceOnUse" id="clipPath4329"><path d="m 24 2.344 -4 1.656 -4.281 0 -3.03 3.03 l -4 1.656 -1.656 4 l -3.03 3.03 0 4.281 -1.656 4 1.656 4 l 0 4.281 3.03 3.03 1.656 4 4 1.656 l 3.03 3.03 4.281 0 4 1.656 4 -1.656 l 4.281 0 3.03 -3.03 4 -1.656 1.656 -4 l 3.03 -3.03 0 -4.281 1.656 -4 -1.656 -4 l 0 -4.281 -3.03 -3.03 -1.656 -4 -4 -1.656 l -3.03 -3.03 -4.281 0 -4 -1.656 z"/></clipPath><linearGradient id="linear0" gradientUnits="userSpaceOnUse" y1="124" x2="0" y2="28" gradientTransform="matrix(0.504372,0,0,0.502794,-150.596164,-14.212379)"><stop stop-color="#e3e3e3" stop-opacity="1"/><stop offset="1" stop-color="#fff" stop-opacity="1"/></linearGradient><linearGradient id="linear0" gradientUnits="userSpaceOnUse" y1="124" x2="0" y2="28" gradientTransform="matrix(0.504372,0,0,0.502794,-150.596164,-14.212379)"><stop stop-color="#e3e3e3" stop-opacity="1"/><stop offset="1" stop-color="#fff" stop-opacity="1"/></linearGradient><path id="SVGCleanerId_0" d="m 24 2.344 l -4 1.656 l -4.281 0 l -3.03 3.03 l -4 1.656 l -1.656 4 l -3.03 3.03 l 0 4.281 l -1.656 4 l 1.656 4 l 0 4.281 l 3.03 3.03 l 1.656 4 l 4 1.656 l 3.03 3.03 l 4.281 0 l 4 1.656 l 4 -1.656 l 4.281 0 l 3.03 -3.03 l 4 -1.656 l 1.656 -4 l 3.03 -3.03 l 0 -4.281 l 1.656 -4 l -1.656 -4 l 0 -4.281 l -3.03 -3.03 l -1.656 -4 l -4 -1.656 l -3.03 -3.03 l -4.281 0 l -4 -1.656 z" visibility="visible" display="inline" fill-rule="nonzero" color="#000" fill-opacity="1"/></defs><g><path d="m 2.563 24.5 l -0.219 0.5 l 1.656 4 l 0 -1 l -1.438 -3.5 z m 42.875 0 l -1.438 3.5 l 0 1 l 1.656 -4 l -0.219 -0.5 z m -41.44 7.781 l 0 1 l 3.03 3.03 l 1.656 4 l 4 1.656 l 3.03 3.03 l 4.281 0 l 4 1.656 l 4 -1.656 l 4.281 0 l 3.03 -3.03 l 4 -1.656 l 1.656 -4 l 3.03 -3.03 l 0 -1 l -3.03 3.03 l -1.656 4 l -4 1.656 l -3.03 3.03 l -4.281 0 l -4 1.656 l -4 -1.656 l -4.281 0 l -3.03 -3.03 l -4 -1.656 l -1.656 -4 l -3.03 -3.03 z" opacity="0.3" visibility="visible" fill="#000" display="inline" fill-rule="nonzero" stroke="none" fill-opacity="1" color="#000"/></g><g><use fill="#45809b" stroke="none" xlink:href="#SVGCleanerId_0"/><path d="m 24 2.344 l -4 1.656 l 8 0 l -4 -1.656 z m 4 1.656 l 7.313 3.03 l -3.03 -3.03 l -4.281 0 z m 7.313 3.03 l 5.656 5.656 l -1.656 -4 l -4 -1.656 z m 5.656 5.656 l 3.03 7.313 l 0 -4.281 l -3.03 -3.03 z m 3.03 7.313 l 0 8 l 1.656 -4 l -1.656 -4 z m 0 8 l -3.03 7.313 l 3.03 -3.03 l 0 -4.281 z m -3.03 7.313 l -5.656 5.656 l 4 -1.656 l 1.656 -4 z m -5.656 5.656 l -7.313 3.03 l 4.281 0 l 3.03 -3.03 z m -7.313 3.03 l -8 0 l 4 1.656 l 4 -1.656 z m -8 0 l -7.313 -3.03 l 3.03 3.03 l 4.281 0 z m -7.313 -3.03 l -5.656 -5.656 l 1.656 4 l 4 1.656 z m -5.656 -5.656 l -3.03 -7.313 l 0 4.281 l 3.03 3.03 z m -3.03 -7.313 l 0 -8 l -1.656 4 l 1.656 4 z m 0 -8 l 3.03 -7.313 l -3.03 3.03 l 0 4.281 z m 3.03 -7.313 l 5.656 -5.656 l -4 1.656 l -1.656 4 z m 5.656 -5.656 l 7.313 -3.03 l -4.281 0 l -3.03 3.03 z" opacity="0.05" visibility="visible" fill="#45809b" display="inline" fill-rule="nonzero" stroke="none" fill-opacity="1" color="#000"/></g><g><use opacity="0.05" stroke-opacity="1" stroke-dasharray="none" fill="#000" stroke="#000" stroke-width="2" stroke-miterlimit="4" xlink:href="#SVGCleanerId_0"/><use opacity="0.1" stroke-opacity="1" stroke-dasharray="none" fill="#000" stroke="#000" stroke-width="1" stroke-miterlimit="4" xlink:href="#SVGCleanerId_0"/></g><g><g clip-path="url(#clipPath-437483151)"><g transform="translate(0,1)"><g opacity="0.1"><!-- color: #45809b --><g><path d="m 9.262 15 c -1.109 0.016 -2.156 0.078 -3.07 0.156 c -0.656 0.055 -6.191 0.84 -6.191 0.84 l 0 9 c 0 0 6.766 -3.75 8.195 -4.219 c 2.309 -0.746 5.543 -1.281 7.773 -1.281 l 0.785 0 l -0.719 0.813 c -1.387 1.547 -1.969 3.258 -1.508 4.465 c 0.402 1.059 1.133 1.43 4.04 2 c 2.48 0.488 3.945 0.898 7.742 2.25 c 4.988 1.773 6.367 2.109 7.18 1.688 c 1.23 -0.641 2.031 -2.414 2.035 -4.594 c 0.004 -1.863 -0.32 -2.578 -1.91 -4.156 c -3.441 -3.414 -8.172 -5.559 -14.14 -6.406 c -2.93 -0.414 -6.887 -0.617 -10.219 -0.563 m 5.145 1 c 2.797 -0.023 5.828 0.309 8.437 0.969 c 3.586 0.914 6.938 2.809 9.719 5.5 c 1.637 1.586 2.02 2.344 2.01 3.875 c -0.004 0.77 -0.098 1.332 -0.285 1.816 c -0.305 0.777 -0.281 0.785 -2 0.688 c -4.207 -0.242 -8 -1.027 -10.816 -2.25 c -1.195 -0.523 -2.863 -1.523 -3.512 -2.129 c -0.621 -0.574 -1.109 -1.668 -1.188 -2.656 c -0.063 -0.734 -0.02 -0.945 0.25 -1.375 c 0.574 -0.926 0.781 -0.996 2.445 -0.719 c 0.797 0.133 1.82 0.387 2.289 0.563 c 2.059 0.785 5.328 2.5 6.836 3.578 c 0.32 0.23 0.215 0.094 -0.285 -0.375 c -1.781 -1.66 -5.203 -3.66 -7.711 -4.5 c -2 -0.668 -2.883 -0.77 -5.832 -0.688 c -2.59 0.074 -4.234 0.277 -8.246 1.063 c -0.773 0.152 -1.441 0.25 -1.473 0.223 c -0.113 -0.105 0.574 -1.02 1.191 -1.598 c 0.355 -0.324 0.914 -0.723 1.254 -0.875 c 1.582 -0.695 4.133 -1.07 6.926 -1.094 m 8.621 5.05 c -0.16 -0.004 -0.219 0.074 -0.219 0.25 c 0 0.559 0.668 0.902 1.316 0.656 c 0.355 -0.137 0.258 -0.32 -0.348 -0.625 c -0.348 -0.176 -0.59 -0.277 -0.75 -0.277 m -19.625 3.809 c -0.352 -0.027 -3.395 1.121 -3.395 1.121 l 0 7.594 c 0.137 0.191 5.938 -0.707 6.879 -1.063 c 6.855 -2.582 9.813 -2.418 11.313 -4.03 c 0.723 -0.77 0.801 -0.898 0.566 -1 c -0.551 -0.215 -0.941 -0.086 -1.66 0.5 c -1.094 0.895 -2.066 1.273 -3.262 1.281 c -1.406 0.016 -2.355 -0.391 -5.109 -2.184 c -2.652 -1.734 -4.094 -2.34 -5.328 -2.219 m 0 0" fill="#000" stroke="none" fill-rule="nonzero"/></g></g></g></g></g><g><g clip-path="url(#clipPath-447278060)"><!-- color: #45809b --><g><path d="m 9.262 15 c -1.109 0.016 -2.156 0.078 -3.07 0.156 c -0.656 0.055 -6.191 0.84 -6.191 0.84 l 0 9 c 0 0 6.766 -3.75 8.195 -4.219 c 2.309 -0.746 5.543 -1.281 7.773 -1.281 l 0.785 0 l -0.719 0.813 c -1.387 1.547 -1.969 3.258 -1.508 4.465 c 0.402 1.059 1.133 1.43 4.04 2 c 2.48 0.488 3.945 0.898 7.742 2.25 c 4.988 1.773 6.367 2.109 7.18 1.688 c 1.23 -0.641 2.031 -2.414 2.035 -4.594 c 0.004 -1.863 -0.32 -2.578 -1.91 -4.156 c -3.441 -3.414 -8.172 -5.559 -14.14 -6.406 c -2.93 -0.414 -6.887 -0.617 -10.219 -0.563 m 5.145 1 c 2.797 -0.023 5.828 0.309 8.437 0.969 c 3.586 0.914 6.938 2.809 9.719 5.5 c 1.637 1.586 2.02 2.344 2.01 3.875 c -0.004 0.77 -0.098 1.332 -0.285 1.816 c -0.305 0.777 -0.281 0.785 -2 0.688 c -4.207 -0.242 -8 -1.027 -10.816 -2.25 c -1.195 -0.523 -2.863 -1.523 -3.512 -2.129 c -0.621 -0.574 -1.109 -1.668 -1.188 -2.656 c -0.063 -0.734 -0.02 -0.945 0.25 -1.375 c 0.574 -0.926 0.781 -0.996 2.445 -0.719 c 0.797 0.133 1.82 0.387 2.289 0.563 c 2.059 0.785 5.328 2.5 6.836 3.578 c 0.32 0.23 0.215 0.094 -0.285 -0.375 c -1.781 -1.66 -5.203 -3.66 -7.711 -4.5 c -2 -0.668 -2.883 -0.77 -5.832 -0.688 c -2.59 0.074 -4.234 0.277 -8.246 1.063 c -0.773 0.152 -1.441 0.25 -1.473 0.223 c -0.113 -0.105 0.574 -1.02 1.191 -1.598 c 0.355 -0.324 0.914 -0.723 1.254 -0.875 c 1.582 -0.695 4.133 -1.07 6.926 -1.094 m 8.621 5.05 c -0.16 -0.004 -0.219 0.074 -0.219 0.25 c 0 0.559 0.668 0.902 1.316 0.656 c 0.355 -0.137 0.258 -0.32 -0.348 -0.625 c -0.348 -0.176 -0.59 -0.277 -0.75 -0.277 m -19.625 3.809 c -0.352 -0.027 -3.395 1.121 -3.395 1.121 l 0 7.594 c 0.137 0.191 5.938 -0.707 6.879 -1.063 c 6.855 -2.582 9.813 -2.418 11.313 -4.03 c 0.723 -0.77 0.801 -0.898 0.566 -1 c -0.551 -0.215 -0.941 -0.086 -1.66 0.5 c -1.094 0.895 -2.066 1.273 -3.262 1.281 c -1.406 0.016 -2.355 -0.391 -5.109 -2.184 c -2.652 -1.734 -4.094 -2.34 -5.328 -2.219 m 0 0" fill="url(#linear0)" stroke="none" fill-rule="nonzero"/></g></g></g><g><path d="m 20 4 -7.313 3.03 -5.656 5.656 -3.03 7.313 0 8 3.03 7.313 5.656 5.656 7.313 3.03 8 0 7.313 -3.03 5.656 -5.656 3.03 -7.313 0 -8 -3.03 -7.313 -5.656 -5.656 -7.313 -3.03 -8 0 z" clip-path="url(#clipPath4313)" transform="matrix(0,1,-1,0,48,0)" opacity="0.3" stroke-opacity="1" stroke-dasharray="none" visibility="visible" fill="none" display="inline" stroke="url(#linearGradient4375)" color="#000" stroke-width="1" stroke-miterlimit="4"/><path d="m 24 2.344 -4 1.656 -4.281 0 -3.03 3.03 l -4 1.656 -1.656 4 l -3.03 3.03 0 4.281 -1.656 4 1.656 4 l 0 4.281 3.03 3.03 1.656 4 4 1.656 l 3.03 3.03 4.281 0 4 1.656 4 -1.656 l 4.281 0 3.03 -3.03 4 -1.656 1.656 -4 l 3.03 -3.03 0 -4.281 1.656 -4 -1.656 -4 l 0 -4.281 -3.03 -3.03 -1.656 -4 -4 -1.656 l -3.03 -3.03 -4.281 0 -4 -1.656 z" clip-path="url(#clipPath4329)" opacity="0.2" stroke-opacity="1" visibility="visible" fill="none" display="inline" stroke="#000" color="#000" stroke-width="2"/></g></svg>