<svg viewBox="0 0 48 48" xmlns:xlink="http://www.w3.org/1999/xlink"><defs><clipPath clipPathUnits="userSpaceOnUse" id="clipPath4313"><path d="m 20 4 -7.313 3.03 -5.656 5.656 -3.03 7.313 0 8 3.03 7.313 5.656 5.656 7.313 3.03 8 0 7.313 -3.03 5.656 -5.656 3.03 -7.313 0 -8 -3.03 -7.313 -5.656 -5.656 -7.313 -3.03 -8 0 z"/></clipPath><clipPath clipPathUnits="userSpaceOnUse" id="clipPath4329"><path d="m 24 2.344 -4 1.656 -4.281 0 -3.03 3.03 l -4 1.656 -1.656 4 l -3.03 3.03 0 4.281 -1.656 4 1.656 4 l 0 4.281 3.03 3.03 1.656 4 4 1.656 l 3.03 3.03 4.281 0 4 1.656 4 -1.656 l 4.281 0 3.03 -3.03 4 -1.656 1.656 -4 l 3.03 -3.03 0 -4.281 1.656 -4 -1.656 -4 l 0 -4.281 -3.03 -3.03 -1.656 -4 -4 -1.656 l -3.03 -3.03 -4.281 0 -4 -1.656 z"/></clipPath><clipPath id="clipPath-836333736"><path d="m 24 2.344 l -4 1.656 l -4.281 0 l -3.03 3.03 l -4 1.656 l -1.656 4 l -3.03 3.03 l 0 4.281 l -1.656 4 l 1.656 4 l 0 4.281 l 3.03 3.03 l 1.656 4 l 4 1.656 l 3.03 3.03 l 4.281 0 l 4 1.656 l 4 -1.656 l 4.281 0 l 3.03 -3.03 l 4 -1.656 l 1.656 -4 l 3.03 -3.03 l 0 -4.281 l 1.656 -4 l -1.656 -4 l 0 -4.281 l -3.03 -3.03 l -1.656 -4 l -4 -1.656 l -3.03 -3.03 l -4.281 0 l -4 -1.656 z"/></clipPath><clipPath id="clipPath-846444286"><path d="m 24 2.344 l -4 1.656 l -4.281 0 l -3.03 3.03 l -4 1.656 l -1.656 4 l -3.03 3.03 l 0 4.281 l -1.656 4 l 1.656 4 l 0 4.281 l 3.03 3.03 l 1.656 4 l 4 1.656 l 3.03 3.03 l 4.281 0 l 4 1.656 l 4 -1.656 l 4.281 0 l 3.03 -3.03 l 4 -1.656 l 1.656 -4 l 3.03 -3.03 l 0 -4.281 l 1.656 -4 l -1.656 -4 l 0 -4.281 l -3.03 -3.03 l -1.656 -4 l -4 -1.656 l -3.03 -3.03 l -4.281 0 l -4 -1.656 z"/></clipPath><linearGradient id="linearGradient4317"><stop stop-color="#fff" stop-opacity="1"/><stop offset="1" stop-color="#fff" stop-opacity="0"/></linearGradient><clipPath clipPathUnits="userSpaceOnUse" id="clipPath4313"><path d="m 20 4 -7.313 3.03 -5.656 5.656 -3.03 7.313 0 8 3.03 7.313 5.656 5.656 7.313 3.03 8 0 7.313 -3.03 5.656 -5.656 3.03 -7.313 0 -8 -3.03 -7.313 -5.656 -5.656 -7.313 -3.03 -8 0 z"/></clipPath><linearGradient x2="44" x1="4" gradientUnits="userSpaceOnUse" id="linearGradient4375" xlink:href="#linearGradient4317"/><clipPath clipPathUnits="userSpaceOnUse" id="clipPath4329"><path d="m 24 2.344 -4 1.656 -4.281 0 -3.03 3.03 l -4 1.656 -1.656 4 l -3.03 3.03 0 4.281 -1.656 4 1.656 4 l 0 4.281 3.03 3.03 1.656 4 4 1.656 l 3.03 3.03 4.281 0 4 1.656 4 -1.656 l 4.281 0 3.03 -3.03 4 -1.656 1.656 -4 l 3.03 -3.03 0 -4.281 1.656 -4 -1.656 -4 l 0 -4.281 -3.03 -3.03 -1.656 -4 -4 -1.656 l -3.03 -3.03 -4.281 0 -4 -1.656 z"/></clipPath><path id="SVGCleanerId_0" d="m 24 2.344 l -4 1.656 l -4.281 0 l -3.03 3.03 l -4 1.656 l -1.656 4 l -3.03 3.03 l 0 4.281 l -1.656 4 l 1.656 4 l 0 4.281 l 3.03 3.03 l 1.656 4 l 4 1.656 l 3.03 3.03 l 4.281 0 l 4 1.656 l 4 -1.656 l 4.281 0 l 3.03 -3.03 l 4 -1.656 l 1.656 -4 l 3.03 -3.03 l 0 -4.281 l 1.656 -4 l -1.656 -4 l 0 -4.281 l -3.03 -3.03 l -1.656 -4 l -4 -1.656 l -3.03 -3.03 l -4.281 0 l -4 -1.656 z" visibility="visible" display="inline" fill-rule="nonzero" color="#000" fill-opacity="1"/></defs><g><path d="m 2.563 24.5 l -0.219 0.5 l 1.656 4 l 0 -1 l -1.438 -3.5 z m 42.875 0 l -1.438 3.5 l 0 1 l 1.656 -4 l -0.219 -0.5 z m -41.44 7.781 l 0 1 l 3.03 3.03 l 1.656 4 l 4 1.656 l 3.03 3.03 l 4.281 0 l 4 1.656 l 4 -1.656 l 4.281 0 l 3.03 -3.03 l 4 -1.656 l 1.656 -4 l 3.03 -3.03 l 0 -1 l -3.03 3.03 l -1.656 4 l -4 1.656 l -3.03 3.03 l -4.281 0 l -4 1.656 l -4 -1.656 l -4.281 0 l -3.03 -3.03 l -4 -1.656 l -1.656 -4 l -3.03 -3.03 z" opacity="0.3" visibility="visible" fill="#000" display="inline" fill-rule="nonzero" stroke="none" fill-opacity="1" color="#000"/></g><g><use fill="#d95555" stroke="none" xlink:href="#SVGCleanerId_0"/><path d="m 24 2.344 l -4 1.656 l 8 0 l -4 -1.656 z m 4 1.656 l 7.313 3.03 l -3.03 -3.03 l -4.281 0 z m 7.313 3.03 l 5.656 5.656 l -1.656 -4 l -4 -1.656 z m 5.656 5.656 l 3.03 7.313 l 0 -4.281 l -3.03 -3.03 z m 3.03 7.313 l 0 8 l 1.656 -4 l -1.656 -4 z m 0 8 l -3.03 7.313 l 3.03 -3.03 l 0 -4.281 z m -3.03 7.313 l -5.656 5.656 l 4 -1.656 l 1.656 -4 z m -5.656 5.656 l -7.313 3.03 l 4.281 0 l 3.03 -3.03 z m -7.313 3.03 l -8 0 l 4 1.656 l 4 -1.656 z m -8 0 l -7.313 -3.03 l 3.03 3.03 l 4.281 0 z m -7.313 -3.03 l -5.656 -5.656 l 1.656 4 l 4 1.656 z m -5.656 -5.656 l -3.03 -7.313 l 0 4.281 l 3.03 3.03 z m -3.03 -7.313 l 0 -8 l -1.656 4 l 1.656 4 z m 0 -8 l 3.03 -7.313 l -3.03 3.03 l 0 4.281 z m 3.03 -7.313 l 5.656 -5.656 l -4 1.656 l -1.656 4 z m 5.656 -5.656 l 7.313 -3.03 l -4.281 0 l -3.03 3.03 z" opacity="0.05" visibility="visible" fill="#d95555" display="inline" fill-rule="nonzero" stroke="none" fill-opacity="1" color="#000"/></g><g><use opacity="0.05" stroke-opacity="1" stroke-dasharray="none" fill="#000" stroke="#000" stroke-width="2" stroke-miterlimit="4" xlink:href="#SVGCleanerId_0"/><use opacity="0.1" stroke-opacity="1" stroke-dasharray="none" fill="#000" stroke="#000" stroke-width="1" stroke-miterlimit="4" xlink:href="#SVGCleanerId_0"/></g><g><g clip-path="url(#clipPath-836333736)"><g transform="translate(0,1)"><g opacity="0.1"><!-- color: #d95555 --><g><path d="m 26.07 13.03 c -0.453 -0.125 -0.926 0.152 -1.047 0.609 l -4.488 17.395 c -0.117 0.457 0.156 0.945 0.609 1.07 l 10.289 2.863 c 0.453 0.125 0.926 -0.152 1.047 -0.613 l 4.488 -17.395 c 0.117 -0.465 -0.156 -0.945 -0.609 -1.07 m -10.289 -2.863" fill="#000" stroke="none" fill-rule="nonzero" fill-opacity="1"/><path d="m 29.742 20.18 l -3.742 3.047 l 1.77 4.582 l 3.742 -3.043 m -1.77 -4.586" fill="#000" stroke="none" fill-rule="nonzero" fill-opacity="1"/><path d="m 11.711 15.535 c -0.461 0.086 -0.777 0.547 -0.699 1.012 l 3.01 17.738 c 0.082 0.469 0.527 0.785 0.992 0.703 l 10.488 -1.922 c 0.461 -0.082 0.77 -0.543 0.691 -1.012 l -3.01 -17.734 c -0.082 -0.469 -0.527 -0.789 -0.988 -0.703 m -10.492 1.918" fill="#000" stroke="none" fill-rule="nonzero" fill-opacity="1"/><path d="m 19.711 21.1 c -0.332 0.086 -0.676 0.281 -0.938 0.465 c -0.246 0.172 -0.492 0.797 -0.492 0.797 c 0 0 -0.438 -0.496 -0.73 -0.574 c -0.637 -0.098 -1.352 -0.246 -1.855 0.34 c -0.469 0.762 0.012 1.965 0.469 2.762 c 0.652 1.125 2.941 2.328 2.941 2.328 c 0 0 1.754 -1.945 1.992 -3.23 c 0.172 -0.914 0.223 -2.215 -0.469 -2.762 c -0.262 -0.203 -0.582 -0.215 -0.918 -0.125 m 0 0" fill="#000" stroke="none" fill-rule="nonzero" fill-opacity="1"/></g></g></g></g></g><g><g clip-path="url(#clipPath-846444286)"><!-- color: #d95555 --><g><path d="m 26.07 13.03 c -0.453 -0.125 -0.926 0.152 -1.047 0.609 l -4.488 17.395 c -0.117 0.457 0.156 0.945 0.609 1.07 l 10.289 2.863 c 0.453 0.125 0.926 -0.152 1.047 -0.613 l 4.488 -17.395 c 0.117 -0.465 -0.156 -0.945 -0.609 -1.07 m -10.289 -2.863" fill="#dcdcdc" stroke="none" fill-rule="nonzero" fill-opacity="1"/><path d="m 29.742 20.18 l -3.742 3.047 l 1.77 4.582 l 3.742 -3.043 m -1.77 -4.586" fill="#de7070" stroke="none" fill-rule="nonzero" fill-opacity="1"/><path d="m 11.711 15.535 c -0.461 0.086 -0.777 0.547 -0.699 1.012 l 3.01 17.738 c 0.082 0.469 0.527 0.785 0.992 0.703 l 10.488 -1.922 c 0.461 -0.082 0.77 -0.543 0.691 -1.012 l -3.01 -17.734 c -0.082 -0.469 -0.527 -0.789 -0.988 -0.703 m -10.492 1.918" fill="#f9f9f9" stroke="none" fill-rule="nonzero" fill-opacity="1"/><path d="m 19.711 21.1 c -0.332 0.086 -0.676 0.281 -0.938 0.465 c -0.246 0.172 -0.492 0.797 -0.492 0.797 c 0 0 -0.438 -0.496 -0.73 -0.574 c -0.637 -0.098 -1.352 -0.246 -1.855 0.34 c -0.469 0.762 0.012 1.965 0.469 2.762 c 0.652 1.125 2.941 2.328 2.941 2.328 c 0 0 1.754 -1.945 1.992 -3.23 c 0.172 -0.914 0.223 -2.215 -0.469 -2.762 c -0.262 -0.203 -0.582 -0.215 -0.918 -0.125 m 0 0" fill="#d43d3d" stroke="none" fill-rule="nonzero" fill-opacity="1"/></g></g></g><g><path d="m 20 4 -7.313 3.03 -5.656 5.656 -3.03 7.313 0 8 3.03 7.313 5.656 5.656 7.313 3.03 8 0 7.313 -3.03 5.656 -5.656 3.03 -7.313 0 -8 -3.03 -7.313 -5.656 -5.656 -7.313 -3.03 -8 0 z" clip-path="url(#clipPath4313)" transform="matrix(0,1,-1,0,48,0)" opacity="0.3" stroke-opacity="1" stroke-dasharray="none" visibility="visible" fill="none" display="inline" stroke="url(#linearGradient4375)" color="#000" stroke-width="1" stroke-miterlimit="4"/><path d="m 24 2.344 -4 1.656 -4.281 0 -3.03 3.03 l -4 1.656 -1.656 4 l -3.03 3.03 0 4.281 -1.656 4 1.656 4 l 0 4.281 3.03 3.03 1.656 4 4 1.656 l 3.03 3.03 4.281 0 4 1.656 4 -1.656 l 4.281 0 3.03 -3.03 4 -1.656 1.656 -4 l 3.03 -3.03 0 -4.281 1.656 -4 -1.656 -4 l 0 -4.281 -3.03 -3.03 -1.656 -4 -4 -1.656 l -3.03 -3.03 -4.281 0 -4 -1.656 z" clip-path="url(#clipPath4329)" opacity="0.2" stroke-opacity="1" visibility="visible" fill="none" display="inline" stroke="#000" color="#000" stroke-width="2"/></g></svg>