<svg viewBox="0 0 48 48" xmlns:xlink="http://www.w3.org/1999/xlink"><defs><clipPath clipPathUnits="userSpaceOnUse" id="clipPath4313"><path d="m 20 4 -7.313 3.03 -5.656 5.656 -3.03 7.313 0 8 3.03 7.313 5.656 5.656 7.313 3.03 8 0 7.313 -3.03 5.656 -5.656 3.03 -7.313 0 -8 -3.03 -7.313 -5.656 -5.656 -7.313 -3.03 -8 0 z"/></clipPath><clipPath clipPathUnits="userSpaceOnUse" id="clipPath4329"><path d="m 24 2.344 -4 1.656 -4.281 0 -3.03 3.03 l -4 1.656 -1.656 4 l -3.03 3.03 0 4.281 -1.656 4 1.656 4 l 0 4.281 3.03 3.03 1.656 4 4 1.656 l 3.03 3.03 4.281 0 4 1.656 4 -1.656 l 4.281 0 3.03 -3.03 4 -1.656 1.656 -4 l 3.03 -3.03 0 -4.281 1.656 -4 -1.656 -4 l 0 -4.281 -3.03 -3.03 -1.656 -4 -4 -1.656 l -3.03 -3.03 -4.281 0 -4 -1.656 z"/></clipPath><clipPath id="clipPath-934207812"><path d="m 24 2.344 l -4 1.656 l -4.281 0 l -3.03 3.03 l -4 1.656 l -1.656 4 l -3.03 3.03 l 0 4.281 l -1.656 4 l 1.656 4 l 0 4.281 l 3.03 3.03 l 1.656 4 l 4 1.656 l 3.03 3.03 l 4.281 0 l 4 1.656 l 4 -1.656 l 4.281 0 l 3.03 -3.03 l 4 -1.656 l 1.656 -4 l 3.03 -3.03 l 0 -4.281 l 1.656 -4 l -1.656 -4 l 0 -4.281 l -3.03 -3.03 l -1.656 -4 l -4 -1.656 l -3.03 -3.03 l -4.281 0 l -4 -1.656 z"/></clipPath><clipPath id="clipPath-944556844"><path d="m 24 2.344 l -4 1.656 l -4.281 0 l -3.03 3.03 l -4 1.656 l -1.656 4 l -3.03 3.03 l 0 4.281 l -1.656 4 l 1.656 4 l 0 4.281 l 3.03 3.03 l 1.656 4 l 4 1.656 l 3.03 3.03 l 4.281 0 l 4 1.656 l 4 -1.656 l 4.281 0 l 3.03 -3.03 l 4 -1.656 l 1.656 -4 l 3.03 -3.03 l 0 -4.281 l 1.656 -4 l -1.656 -4 l 0 -4.281 l -3.03 -3.03 l -1.656 -4 l -4 -1.656 l -3.03 -3.03 l -4.281 0 l -4 -1.656 z"/></clipPath><linearGradient id="linearGradient4317"><stop stop-color="#fff" stop-opacity="1"/><stop offset="1" stop-color="#fff" stop-opacity="0"/></linearGradient><clipPath clipPathUnits="userSpaceOnUse" id="clipPath4313"><path d="m 20 4 -7.313 3.03 -5.656 5.656 -3.03 7.313 0 8 3.03 7.313 5.656 5.656 7.313 3.03 8 0 7.313 -3.03 5.656 -5.656 3.03 -7.313 0 -8 -3.03 -7.313 -5.656 -5.656 -7.313 -3.03 -8 0 z"/></clipPath><linearGradient x2="44" x1="4" gradientUnits="userSpaceOnUse" id="linearGradient4375" xlink:href="#linearGradient4317"/><clipPath clipPathUnits="userSpaceOnUse" id="clipPath4329"><path d="m 24 2.344 -4 1.656 -4.281 0 -3.03 3.03 l -4 1.656 -1.656 4 l -3.03 3.03 0 4.281 -1.656 4 1.656 4 l 0 4.281 3.03 3.03 1.656 4 4 1.656 l 3.03 3.03 4.281 0 4 1.656 4 -1.656 l 4.281 0 3.03 -3.03 4 -1.656 1.656 -4 l 3.03 -3.03 0 -4.281 1.656 -4 -1.656 -4 l 0 -4.281 -3.03 -3.03 -1.656 -4 -4 -1.656 l -3.03 -3.03 -4.281 0 -4 -1.656 z"/></clipPath><path id="SVGCleanerId_0" d="m 24 2.344 l -4 1.656 l -4.281 0 l -3.03 3.03 l -4 1.656 l -1.656 4 l -3.03 3.03 l 0 4.281 l -1.656 4 l 1.656 4 l 0 4.281 l 3.03 3.03 l 1.656 4 l 4 1.656 l 3.03 3.03 l 4.281 0 l 4 1.656 l 4 -1.656 l 4.281 0 l 3.03 -3.03 l 4 -1.656 l 1.656 -4 l 3.03 -3.03 l 0 -4.281 l 1.656 -4 l -1.656 -4 l 0 -4.281 l -3.03 -3.03 l -1.656 -4 l -4 -1.656 l -3.03 -3.03 l -4.281 0 l -4 -1.656 z" visibility="visible" display="inline" fill-rule="nonzero" color="#000" fill-opacity="1"/></defs><g><path d="m 2.563 24.5 l -0.219 0.5 l 1.656 4 l 0 -1 l -1.438 -3.5 z m 42.875 0 l -1.438 3.5 l 0 1 l 1.656 -4 l -0.219 -0.5 z m -41.44 7.781 l 0 1 l 3.03 3.03 l 1.656 4 l 4 1.656 l 3.03 3.03 l 4.281 0 l 4 1.656 l 4 -1.656 l 4.281 0 l 3.03 -3.03 l 4 -1.656 l 1.656 -4 l 3.03 -3.03 l 0 -1 l -3.03 3.03 l -1.656 4 l -4 1.656 l -3.03 3.03 l -4.281 0 l -4 1.656 l -4 -1.656 l -4.281 0 l -3.03 -3.03 l -4 -1.656 l -1.656 -4 l -3.03 -3.03 z" opacity="0.3" visibility="visible" fill="#000" display="inline" fill-rule="nonzero" stroke="none" fill-opacity="1" color="#000"/></g><g><use fill="#e4383e" stroke="none" xlink:href="#SVGCleanerId_0"/><path d="m 24 2.344 l -4 1.656 l 8 0 l -4 -1.656 z m 4 1.656 l 7.313 3.03 l -3.03 -3.03 l -4.281 0 z m 7.313 3.03 l 5.656 5.656 l -1.656 -4 l -4 -1.656 z m 5.656 5.656 l 3.03 7.313 l 0 -4.281 l -3.03 -3.03 z m 3.03 7.313 l 0 8 l 1.656 -4 l -1.656 -4 z m 0 8 l -3.03 7.313 l 3.03 -3.03 l 0 -4.281 z m -3.03 7.313 l -5.656 5.656 l 4 -1.656 l 1.656 -4 z m -5.656 5.656 l -7.313 3.03 l 4.281 0 l 3.03 -3.03 z m -7.313 3.03 l -8 0 l 4 1.656 l 4 -1.656 z m -8 0 l -7.313 -3.03 l 3.03 3.03 l 4.281 0 z m -7.313 -3.03 l -5.656 -5.656 l 1.656 4 l 4 1.656 z m -5.656 -5.656 l -3.03 -7.313 l 0 4.281 l 3.03 3.03 z m -3.03 -7.313 l 0 -8 l -1.656 4 l 1.656 4 z m 0 -8 l 3.03 -7.313 l -3.03 3.03 l 0 4.281 z m 3.03 -7.313 l 5.656 -5.656 l -4 1.656 l -1.656 4 z m 5.656 -5.656 l 7.313 -3.03 l -4.281 0 l -3.03 3.03 z" opacity="0.05" visibility="visible" fill="#e4383e" display="inline" fill-rule="nonzero" stroke="none" fill-opacity="1" color="#000"/></g><g><use opacity="0.05" stroke-opacity="1" stroke-dasharray="none" fill="#000" stroke="#000" stroke-width="2" stroke-miterlimit="4" xlink:href="#SVGCleanerId_0"/><use opacity="0.1" stroke-opacity="1" stroke-dasharray="none" fill="#000" stroke="#000" stroke-width="1" stroke-miterlimit="4" xlink:href="#SVGCleanerId_0"/></g><g><g clip-path="url(#clipPath-934207812)"><g transform="translate(0,1)"><g opacity="0.1"><!-- color: #e4383e --><g><path d="m 17.586 31.926 c -0.52 -0.07 -1.445 -0.371 -2.062 -0.668 c -4.02 -1.926 -5.664 -6.777 -3.684 -10.863 c 2.262 -4.672 8.434 -5.863 12.148 -2.344 c 1.074 1.016 1.551 1.883 3.168 5.727 c 1.688 4.02 2 4.652 2.547 5.188 c 0.586 0.57 1.129 0.762 2.168 0.762 c 1.707 0 2.926 -1.055 2.926 -2.527 c 0 -1.246 -0.438 -1.645 -2.672 -2.438 c -3.402 -1.227 -4.504 -2.336 -4.508 -4.563 c 0 -1.188 0.301 -1.98 1.066 -2.801 c 1.098 -1.172 2.992 -1.559 4.668 -0.977 c 0.715 0.254 2.211 1.578 2.211 1.957 c 0 0.184 -0.867 0.746 -1.348 0.879 c -0.254 0.066 -0.473 -0.02 -0.766 -0.301 c -0.594 -0.57 -0.996 -0.746 -1.707 -0.746 c -1.227 0 -1.988 0.738 -1.988 1.93 c 0 1.188 0.484 1.59 2.902 2.406 c 3.332 1.125 4.316 2.141 4.336 4.492 c 0.02 2.031 -0.895 3.496 -2.715 4.363 c -0.828 0.391 -1.109 0.441 -2.461 0.441 c -1.93 -0.004 -2.797 -0.359 -3.879 -1.578 c -0.727 -0.82 -1.465 -2.359 -3.828 -7.977 c -0.98 -2.328 -2.238 -3.469 -4.336 -3.918 c -1.063 -0.227 -2.543 -0.016 -3.508 0.492 c -0.941 0.492 -1.992 1.602 -2.488 2.617 c -0.41 0.824 -0.449 1.055 -0.449 2.488 c 0 1.367 0.055 1.691 0.398 2.441 c 0.52 1.145 1.543 2.203 2.668 2.773 c 0.813 0.41 1.066 0.461 2.363 0.461 c 1.246 0 1.566 -0.059 2.309 -0.414 c 0.848 -0.414 1.988 -1.43 2.453 -2.191 l 0.242 -0.395 l 0.477 1.09 c 0.266 0.602 0.48 1.168 0.48 1.27 c 0 0.301 -1.078 1.285 -2.066 1.898 c -1.5 0.926 -3.223 1.273 -5.063 1.023 m -0.004 -0.004" fill="#000" stroke="none" fill-rule="nonzero" fill-opacity="1"/></g></g></g></g></g><g><g clip-path="url(#clipPath-944556844)"><!-- color: #e4383e --><g><path d="m 17.586 31.926 c -0.52 -0.07 -1.445 -0.371 -2.062 -0.668 c -4.02 -1.926 -5.664 -6.777 -3.684 -10.863 c 2.262 -4.672 8.434 -5.863 12.148 -2.344 c 1.074 1.016 1.551 1.883 3.168 5.727 c 1.688 4.02 2 4.652 2.547 5.188 c 0.586 0.57 1.129 0.762 2.168 0.762 c 1.707 0 2.926 -1.055 2.926 -2.527 c 0 -1.246 -0.438 -1.645 -2.672 -2.438 c -3.402 -1.227 -4.504 -2.336 -4.508 -4.563 c 0 -1.188 0.301 -1.98 1.066 -2.801 c 1.098 -1.172 2.992 -1.559 4.668 -0.977 c 0.715 0.254 2.211 1.578 2.211 1.957 c 0 0.184 -0.867 0.746 -1.348 0.879 c -0.254 0.066 -0.473 -0.02 -0.766 -0.301 c -0.594 -0.57 -0.996 -0.746 -1.707 -0.746 c -1.227 0 -1.988 0.738 -1.988 1.93 c 0 1.188 0.484 1.59 2.902 2.406 c 3.332 1.125 4.316 2.141 4.336 4.492 c 0.02 2.031 -0.895 3.496 -2.715 4.363 c -0.828 0.391 -1.109 0.441 -2.461 0.441 c -1.93 -0.004 -2.797 -0.359 -3.879 -1.578 c -0.727 -0.82 -1.465 -2.359 -3.828 -7.977 c -0.98 -2.328 -2.238 -3.469 -4.336 -3.918 c -1.063 -0.227 -2.543 -0.016 -3.508 0.492 c -0.941 0.492 -1.992 1.602 -2.488 2.617 c -0.41 0.824 -0.449 1.055 -0.449 2.488 c 0 1.367 0.055 1.691 0.398 2.441 c 0.52 1.145 1.543 2.203 2.668 2.773 c 0.813 0.41 1.066 0.461 2.363 0.461 c 1.246 0 1.566 -0.059 2.309 -0.414 c 0.848 -0.414 1.988 -1.43 2.453 -2.191 l 0.242 -0.395 l 0.477 1.09 c 0.266 0.602 0.48 1.168 0.48 1.27 c 0 0.301 -1.078 1.285 -2.066 1.898 c -1.5 0.926 -3.223 1.273 -5.063 1.023 m -0.004 -0.004" fill="#fff" stroke="none" fill-rule="nonzero" fill-opacity="1"/></g></g></g><g><path d="m 20 4 -7.313 3.03 -5.656 5.656 -3.03 7.313 0 8 3.03 7.313 5.656 5.656 7.313 3.03 8 0 7.313 -3.03 5.656 -5.656 3.03 -7.313 0 -8 -3.03 -7.313 -5.656 -5.656 -7.313 -3.03 -8 0 z" clip-path="url(#clipPath4313)" transform="matrix(0,1,-1,0,48,0)" opacity="0.3" stroke-opacity="1" stroke-dasharray="none" visibility="visible" fill="none" display="inline" stroke="url(#linearGradient4375)" color="#000" stroke-width="1" stroke-miterlimit="4"/><path d="m 24 2.344 -4 1.656 -4.281 0 -3.03 3.03 l -4 1.656 -1.656 4 l -3.03 3.03 0 4.281 -1.656 4 1.656 4 l 0 4.281 3.03 3.03 1.656 4 4 1.656 l 3.03 3.03 4.281 0 4 1.656 4 -1.656 l 4.281 0 3.03 -3.03 4 -1.656 1.656 -4 l 3.03 -3.03 0 -4.281 1.656 -4 -1.656 -4 l 0 -4.281 -3.03 -3.03 -1.656 -4 -4 -1.656 l -3.03 -3.03 -4.281 0 -4 -1.656 z" clip-path="url(#clipPath4329)" opacity="0.2" stroke-opacity="1" visibility="visible" fill="none" display="inline" stroke="#000" color="#000" stroke-width="2"/></g></svg>