<svg viewBox="0 0 48 48" xmlns:xlink="http://www.w3.org/1999/xlink"><defs><clipPath clipPathUnits="userSpaceOnUse" id="clipPath4313"><path d="m 20 4 -7.313 3.03 -5.656 5.656 -3.03 7.313 0 8 3.03 7.313 5.656 5.656 7.313 3.03 8 0 7.313 -3.03 5.656 -5.656 3.03 -7.313 0 -8 -3.03 -7.313 -5.656 -5.656 -7.313 -3.03 -8 0 z"/></clipPath><clipPath clipPathUnits="userSpaceOnUse" id="clipPath4329"><path d="m 24 2.344 -4 1.656 -4.281 0 -3.03 3.03 l -4 1.656 -1.656 4 l -3.03 3.03 0 4.281 -1.656 4 1.656 4 l 0 4.281 3.03 3.03 1.656 4 4 1.656 l 3.03 3.03 4.281 0 4 1.656 4 -1.656 l 4.281 0 3.03 -3.03 4 -1.656 1.656 -4 l 3.03 -3.03 0 -4.281 1.656 -4 -1.656 -4 l 0 -4.281 -3.03 -3.03 -1.656 -4 -4 -1.656 l -3.03 -3.03 -4.281 0 -4 -1.656 z"/></clipPath><clipPath id="clipPath-095550104"><path d="m 24 2.344 l -4 1.656 l -4.281 0 l -3.03 3.03 l -4 1.656 l -1.656 4 l -3.03 3.03 l 0 4.281 l -1.656 4 l 1.656 4 l 0 4.281 l 3.03 3.03 l 1.656 4 l 4 1.656 l 3.03 3.03 l 4.281 0 l 4 1.656 l 4 -1.656 l 4.281 0 l 3.03 -3.03 l 4 -1.656 l 1.656 -4 l 3.03 -3.03 l 0 -4.281 l 1.656 -4 l -1.656 -4 l 0 -4.281 l -3.03 -3.03 l -1.656 -4 l -4 -1.656 l -3.03 -3.03 l -4.281 0 l -4 -1.656 z"/></clipPath><clipPath id="clipPath-110398201"><path d="m 24 2.344 l -4 1.656 l -4.281 0 l -3.03 3.03 l -4 1.656 l -1.656 4 l -3.03 3.03 l 0 4.281 l -1.656 4 l 1.656 4 l 0 4.281 l 3.03 3.03 l 1.656 4 l 4 1.656 l 3.03 3.03 l 4.281 0 l 4 1.656 l 4 -1.656 l 4.281 0 l 3.03 -3.03 l 4 -1.656 l 1.656 -4 l 3.03 -3.03 l 0 -4.281 l 1.656 -4 l -1.656 -4 l 0 -4.281 l -3.03 -3.03 l -1.656 -4 l -4 -1.656 l -3.03 -3.03 l -4.281 0 l -4 -1.656 z"/></clipPath><linearGradient id="linearGradient4317"><stop stop-color="#fff" stop-opacity="1"/><stop offset="1" stop-color="#fff" stop-opacity="0"/></linearGradient><clipPath clipPathUnits="userSpaceOnUse" id="clipPath4313"><path d="m 20 4 -7.313 3.03 -5.656 5.656 -3.03 7.313 0 8 3.03 7.313 5.656 5.656 7.313 3.03 8 0 7.313 -3.03 5.656 -5.656 3.03 -7.313 0 -8 -3.03 -7.313 -5.656 -5.656 -7.313 -3.03 -8 0 z"/></clipPath><linearGradient x2="44" x1="4" gradientUnits="userSpaceOnUse" id="linearGradient4375" xlink:href="#linearGradient4317"/><clipPath clipPathUnits="userSpaceOnUse" id="clipPath4329"><path d="m 24 2.344 -4 1.656 -4.281 0 -3.03 3.03 l -4 1.656 -1.656 4 l -3.03 3.03 0 4.281 -1.656 4 1.656 4 l 0 4.281 3.03 3.03 1.656 4 4 1.656 l 3.03 3.03 4.281 0 4 1.656 4 -1.656 l 4.281 0 3.03 -3.03 4 -1.656 1.656 -4 l 3.03 -3.03 0 -4.281 1.656 -4 -1.656 -4 l 0 -4.281 -3.03 -3.03 -1.656 -4 -4 -1.656 l -3.03 -3.03 -4.281 0 -4 -1.656 z"/></clipPath><linearGradient id="linear0" gradientUnits="userSpaceOnUse" y1="150.51" x2="0" y2="176.51" gradientTransform="matrix(1,0,0,1,23.006475,-139.51006)"><stop stop-color="#dbe5ea" stop-opacity="1"/><stop offset="1" stop-color="#787f86" stop-opacity="1"/></linearGradient><linearGradient id="linear0" gradientUnits="userSpaceOnUse" y1="150.51" x2="0" y2="176.51" gradientTransform="matrix(1,0,0,1,23.006475,-139.51006)"><stop stop-color="#dbe5ea" stop-opacity="1"/><stop offset="1" stop-color="#787f86" stop-opacity="1"/></linearGradient><path id="SVGCleanerId_0" d="m 24 2.344 l -4 1.656 l -4.281 0 l -3.03 3.03 l -4 1.656 l -1.656 4 l -3.03 3.03 l 0 4.281 l -1.656 4 l 1.656 4 l 0 4.281 l 3.03 3.03 l 1.656 4 l 4 1.656 l 3.03 3.03 l 4.281 0 l 4 1.656 l 4 -1.656 l 4.281 0 l 3.03 -3.03 l 4 -1.656 l 1.656 -4 l 3.03 -3.03 l 0 -4.281 l 1.656 -4 l -1.656 -4 l 0 -4.281 l -3.03 -3.03 l -1.656 -4 l -4 -1.656 l -3.03 -3.03 l -4.281 0 l -4 -1.656 z" visibility="visible" display="inline" fill-rule="nonzero" color="#000" fill-opacity="1"/></defs><g><path d="m 2.563 24.5 l -0.219 0.5 l 1.656 4 l 0 -1 l -1.438 -3.5 z m 42.875 0 l -1.438 3.5 l 0 1 l 1.656 -4 l -0.219 -0.5 z m -41.44 7.781 l 0 1 l 3.03 3.03 l 1.656 4 l 4 1.656 l 3.03 3.03 l 4.281 0 l 4 1.656 l 4 -1.656 l 4.281 0 l 3.03 -3.03 l 4 -1.656 l 1.656 -4 l 3.03 -3.03 l 0 -1 l -3.03 3.03 l -1.656 4 l -4 1.656 l -3.03 3.03 l -4.281 0 l -4 1.656 l -4 -1.656 l -4.281 0 l -3.03 -3.03 l -4 -1.656 l -1.656 -4 l -3.03 -3.03 z" opacity="0.3" visibility="visible" fill="#000" display="inline" fill-rule="nonzero" stroke="none" fill-opacity="1" color="#000"/></g><g><use fill="#1d384d" stroke="none" xlink:href="#SVGCleanerId_0"/><path d="m 24 2.344 l -4 1.656 l 8 0 l -4 -1.656 z m 4 1.656 l 7.313 3.03 l -3.03 -3.03 l -4.281 0 z m 7.313 3.03 l 5.656 5.656 l -1.656 -4 l -4 -1.656 z m 5.656 5.656 l 3.03 7.313 l 0 -4.281 l -3.03 -3.03 z m 3.03 7.313 l 0 8 l 1.656 -4 l -1.656 -4 z m 0 8 l -3.03 7.313 l 3.03 -3.03 l 0 -4.281 z m -3.03 7.313 l -5.656 5.656 l 4 -1.656 l 1.656 -4 z m -5.656 5.656 l -7.313 3.03 l 4.281 0 l 3.03 -3.03 z m -7.313 3.03 l -8 0 l 4 1.656 l 4 -1.656 z m -8 0 l -7.313 -3.03 l 3.03 3.03 l 4.281 0 z m -7.313 -3.03 l -5.656 -5.656 l 1.656 4 l 4 1.656 z m -5.656 -5.656 l -3.03 -7.313 l 0 4.281 l 3.03 3.03 z m -3.03 -7.313 l 0 -8 l -1.656 4 l 1.656 4 z m 0 -8 l 3.03 -7.313 l -3.03 3.03 l 0 4.281 z m 3.03 -7.313 l 5.656 -5.656 l -4 1.656 l -1.656 4 z m 5.656 -5.656 l 7.313 -3.03 l -4.281 0 l -3.03 3.03 z" opacity="0.05" visibility="visible" fill="#1d384d" display="inline" fill-rule="nonzero" stroke="none" fill-opacity="1" color="#000"/></g><g><use opacity="0.05" stroke-opacity="1" stroke-dasharray="none" fill="#000" stroke="#000" stroke-width="2" stroke-miterlimit="4" xlink:href="#SVGCleanerId_0"/><use opacity="0.1" stroke-opacity="1" stroke-dasharray="none" fill="#000" stroke="#000" stroke-width="1" stroke-miterlimit="4" xlink:href="#SVGCleanerId_0"/></g><g><g clip-path="url(#clipPath-095550104)"><g transform="translate(0,1)"><g opacity="0.1"><!-- color: #1d384d --><g><path d="m 17.258 11 c -3.457 0 -6.258 2.801 -6.258 6.258 c 0 3.305 2.566 5.996 5.809 6.23 c 0.258 -3.563 3.117 -6.422 6.68 -6.68 c -0.234 -3.242 -2.926 -5.809 -6.227 -5.809 m -0.004 0" fill="#000" stroke="none" fill-rule="nonzero"/><path d="m 30.742 11 c -3.305 0 -5.996 2.566 -6.23 5.809 c 3.563 0.258 6.422 3.117 6.68 6.68 c 3.242 -0.234 5.809 -2.926 5.809 -6.227 c 0 -3.457 -2.801 -6.262 -6.258 -6.262 m 0 0" fill="#000" stroke="none" fill-rule="nonzero"/><path d="m 17.996 25 c 0.25 3.043 1.957 4.75 5 5 l 0 -5 m -5 0" fill="#000" stroke="none" fill-rule="nonzero"/><path d="m 16.629 24.512 c -3.156 0.32 -5.629 2.984 -5.629 6.227 c 0 3.457 2.801 6.258 6.258 6.258 c 3.305 0 5.996 -2.563 6.23 -5.805 c -3.563 -0.258 -6.422 -3.121 -6.68 -6.684 c -0.063 0.008 -0.121 -0.004 -0.184 0 m 0.004 0.004" fill="#000" stroke="none" fill-rule="nonzero"/><path d="m 31.19 24.512 c -0.258 3.559 -3.117 6.422 -6.68 6.68 c 0.227 3.242 2.926 5.809 6.227 5.809 c 3.457 0 6.258 -2.805 6.258 -6.262 c 0 -3.301 -2.563 -5.992 -5.809 -6.227 m 0 0" fill="#000" stroke="none" fill-rule="nonzero"/><path d="m 30 25 c -0.25 3.043 -1.957 4.75 -5 5 l 0 -5 m 5 0" fill="#000" stroke="none" fill-rule="nonzero"/><path d="m 30 23 c -0.25 -3.043 -1.957 -4.75 -5 -5 l 0 5 m 5 0" fill="#000" stroke="none" fill-rule="nonzero"/><path d="m 17.996 23 c 0.25 -3.043 1.957 -4.75 5 -5 l 0 5 m -5 0" fill="#000" stroke="none" fill-rule="nonzero"/></g></g></g></g></g><g><g clip-path="url(#clipPath-110398201)"><!-- color: #1d384d --><g><path d="m 17.258 11 c -3.457 0 -6.258 2.801 -6.258 6.258 c 0 3.305 2.566 5.996 5.809 6.23 c 0.258 -3.563 3.117 -6.422 6.68 -6.68 c -0.234 -3.242 -2.926 -5.809 -6.227 -5.809 m -0.004 0" fill="url(#linear0)" stroke="none" fill-rule="nonzero"/><path d="m 30.742 11 c -3.305 0 -5.996 2.566 -6.23 5.809 c 3.563 0.258 6.422 3.117 6.68 6.68 c 3.242 -0.234 5.809 -2.926 5.809 -6.227 c 0 -3.457 -2.801 -6.262 -6.258 -6.262 m 0 0" fill="url(#linear0)" stroke="none" fill-rule="nonzero"/><path d="m 17.996 25 c 0.25 3.043 1.957 4.75 5 5 l 0 -5 m -5 0" fill="url(#linear0)" stroke="none" fill-rule="nonzero"/><path d="m 16.629 24.512 c -3.156 0.32 -5.629 2.984 -5.629 6.227 c 0 3.457 2.801 6.258 6.258 6.258 c 3.305 0 5.996 -2.563 6.23 -5.805 c -3.563 -0.258 -6.422 -3.121 -6.68 -6.684 c -0.063 0.008 -0.121 -0.004 -0.184 0 m 0.004 0.004" fill="url(#linear0)" stroke="none" fill-rule="nonzero"/><path d="m 31.19 24.512 c -0.258 3.559 -3.117 6.422 -6.68 6.68 c 0.227 3.242 2.926 5.809 6.227 5.809 c 3.457 0 6.258 -2.805 6.258 -6.262 c 0 -3.301 -2.563 -5.992 -5.809 -6.227 m 0 0" fill="url(#linear0)" stroke="none" fill-rule="nonzero"/><path d="m 30 25 c -0.25 3.043 -1.957 4.75 -5 5 l 0 -5 m 5 0" fill="url(#linear0)" stroke="none" fill-rule="nonzero"/><path d="m 30 23 c -0.25 -3.043 -1.957 -4.75 -5 -5 l 0 5 m 5 0" fill="url(#linear0)" stroke="none" fill-rule="nonzero"/><path d="m 17.996 23 c 0.25 -3.043 1.957 -4.75 5 -5 l 0 5 m -5 0" fill="url(#linear0)" stroke="none" fill-rule="nonzero"/></g></g></g><g><path d="m 20 4 -7.313 3.03 -5.656 5.656 -3.03 7.313 0 8 3.03 7.313 5.656 5.656 7.313 3.03 8 0 7.313 -3.03 5.656 -5.656 3.03 -7.313 0 -8 -3.03 -7.313 -5.656 -5.656 -7.313 -3.03 -8 0 z" clip-path="url(#clipPath4313)" transform="matrix(0,1,-1,0,48,0)" opacity="0.3" stroke-opacity="1" stroke-dasharray="none" visibility="visible" fill="none" display="inline" stroke="url(#linearGradient4375)" color="#000" stroke-width="1" stroke-miterlimit="4"/><path d="m 24 2.344 -4 1.656 -4.281 0 -3.03 3.03 l -4 1.656 -1.656 4 l -3.03 3.03 0 4.281 -1.656 4 1.656 4 l 0 4.281 3.03 3.03 1.656 4 4 1.656 l 3.03 3.03 4.281 0 4 1.656 4 -1.656 l 4.281 0 3.03 -3.03 4 -1.656 1.656 -4 l 3.03 -3.03 0 -4.281 1.656 -4 -1.656 -4 l 0 -4.281 -3.03 -3.03 -1.656 -4 -4 -1.656 l -3.03 -3.03 -4.281 0 -4 -1.656 z" clip-path="url(#clipPath4329)" opacity="0.2" stroke-opacity="1" visibility="visible" fill="none" display="inline" stroke="#000" color="#000" stroke-width="2"/></g></svg>