<svg viewBox="0 0 48 48" xmlns:xlink="http://www.w3.org/1999/xlink"><defs><clipPath clipPathUnits="userSpaceOnUse" id="clipPath4313"><path d="m 20 4 -7.313 3.03 -5.656 5.656 -3.03 7.313 0 8 3.03 7.313 5.656 5.656 7.313 3.03 8 0 7.313 -3.03 5.656 -5.656 3.03 -7.313 0 -8 -3.03 -7.313 -5.656 -5.656 -7.313 -3.03 -8 0 z"/></clipPath><clipPath clipPathUnits="userSpaceOnUse" id="clipPath4329"><path d="m 24 2.344 -4 1.656 -4.281 0 -3.03 3.03 l -4 1.656 -1.656 4 l -3.03 3.03 0 4.281 -1.656 4 1.656 4 l 0 4.281 3.03 3.03 1.656 4 4 1.656 l 3.03 3.03 4.281 0 4 1.656 4 -1.656 l 4.281 0 3.03 -3.03 4 -1.656 1.656 -4 l 3.03 -3.03 0 -4.281 1.656 -4 -1.656 -4 l 0 -4.281 -3.03 -3.03 -1.656 -4 -4 -1.656 l -3.03 -3.03 -4.281 0 -4 -1.656 z"/></clipPath><clipPath id="clipPath-600716949"><path d="m 24 2.344 l -4 1.656 l -4.281 0 l -3.03 3.03 l -4 1.656 l -1.656 4 l -3.03 3.03 l 0 4.281 l -1.656 4 l 1.656 4 l 0 4.281 l 3.03 3.03 l 1.656 4 l 4 1.656 l 3.03 3.03 l 4.281 0 l 4 1.656 l 4 -1.656 l 4.281 0 l 3.03 -3.03 l 4 -1.656 l 1.656 -4 l 3.03 -3.03 l 0 -4.281 l 1.656 -4 l -1.656 -4 l 0 -4.281 l -3.03 -3.03 l -1.656 -4 l -4 -1.656 l -3.03 -3.03 l -4.281 0 l -4 -1.656 z"/></clipPath><clipPath id="clipPath-608757814"><path d="m 24 2.344 l -4 1.656 l -4.281 0 l -3.03 3.03 l -4 1.656 l -1.656 4 l -3.03 3.03 l 0 4.281 l -1.656 4 l 1.656 4 l 0 4.281 l 3.03 3.03 l 1.656 4 l 4 1.656 l 3.03 3.03 l 4.281 0 l 4 1.656 l 4 -1.656 l 4.281 0 l 3.03 -3.03 l 4 -1.656 l 1.656 -4 l 3.03 -3.03 l 0 -4.281 l 1.656 -4 l -1.656 -4 l 0 -4.281 l -3.03 -3.03 l -1.656 -4 l -4 -1.656 l -3.03 -3.03 l -4.281 0 l -4 -1.656 z"/></clipPath><linearGradient id="linearGradient4317"><stop stop-color="#fff" stop-opacity="1"/><stop offset="1" stop-color="#fff" stop-opacity="0"/></linearGradient><clipPath clipPathUnits="userSpaceOnUse" id="clipPath4313"><path d="m 20 4 -7.313 3.03 -5.656 5.656 -3.03 7.313 0 8 3.03 7.313 5.656 5.656 7.313 3.03 8 0 7.313 -3.03 5.656 -5.656 3.03 -7.313 0 -8 -3.03 -7.313 -5.656 -5.656 -7.313 -3.03 -8 0 z"/></clipPath><linearGradient x2="44" x1="4" gradientUnits="userSpaceOnUse" id="linearGradient4375" xlink:href="#linearGradient4317"/><clipPath clipPathUnits="userSpaceOnUse" id="clipPath4329"><path d="m 24 2.344 -4 1.656 -4.281 0 -3.03 3.03 l -4 1.656 -1.656 4 l -3.03 3.03 0 4.281 -1.656 4 1.656 4 l 0 4.281 3.03 3.03 1.656 4 4 1.656 l 3.03 3.03 4.281 0 4 1.656 4 -1.656 l 4.281 0 3.03 -3.03 4 -1.656 1.656 -4 l 3.03 -3.03 0 -4.281 1.656 -4 -1.656 -4 l 0 -4.281 -3.03 -3.03 -1.656 -4 -4 -1.656 l -3.03 -3.03 -4.281 0 -4 -1.656 z"/></clipPath><path id="SVGCleanerId_0" d="m 24 2.344 l -4 1.656 l -4.281 0 l -3.03 3.03 l -4 1.656 l -1.656 4 l -3.03 3.03 l 0 4.281 l -1.656 4 l 1.656 4 l 0 4.281 l 3.03 3.03 l 1.656 4 l 4 1.656 l 3.03 3.03 l 4.281 0 l 4 1.656 l 4 -1.656 l 4.281 0 l 3.03 -3.03 l 4 -1.656 l 1.656 -4 l 3.03 -3.03 l 0 -4.281 l 1.656 -4 l -1.656 -4 l 0 -4.281 l -3.03 -3.03 l -1.656 -4 l -4 -1.656 l -3.03 -3.03 l -4.281 0 l -4 -1.656 z" visibility="visible" display="inline" fill-rule="nonzero" color="#000" fill-opacity="1"/></defs><g><path d="m 2.563 24.5 l -0.219 0.5 l 1.656 4 l 0 -1 l -1.438 -3.5 z m 42.875 0 l -1.438 3.5 l 0 1 l 1.656 -4 l -0.219 -0.5 z m -41.44 7.781 l 0 1 l 3.03 3.03 l 1.656 4 l 4 1.656 l 3.03 3.03 l 4.281 0 l 4 1.656 l 4 -1.656 l 4.281 0 l 3.03 -3.03 l 4 -1.656 l 1.656 -4 l 3.03 -3.03 l 0 -1 l -3.03 3.03 l -1.656 4 l -4 1.656 l -3.03 3.03 l -4.281 0 l -4 1.656 l -4 -1.656 l -4.281 0 l -3.03 -3.03 l -4 -1.656 l -1.656 -4 l -3.03 -3.03 z" opacity="0.3" visibility="visible" fill="#000" display="inline" fill-rule="nonzero" stroke="none" fill-opacity="1" color="#000"/></g><g><use fill="#5fad38" stroke="none" xlink:href="#SVGCleanerId_0"/><path d="m 24 2.344 l -4 1.656 l 8 0 l -4 -1.656 z m 4 1.656 l 7.313 3.03 l -3.03 -3.03 l -4.281 0 z m 7.313 3.03 l 5.656 5.656 l -1.656 -4 l -4 -1.656 z m 5.656 5.656 l 3.03 7.313 l 0 -4.281 l -3.03 -3.03 z m 3.03 7.313 l 0 8 l 1.656 -4 l -1.656 -4 z m 0 8 l -3.03 7.313 l 3.03 -3.03 l 0 -4.281 z m -3.03 7.313 l -5.656 5.656 l 4 -1.656 l 1.656 -4 z m -5.656 5.656 l -7.313 3.03 l 4.281 0 l 3.03 -3.03 z m -7.313 3.03 l -8 0 l 4 1.656 l 4 -1.656 z m -8 0 l -7.313 -3.03 l 3.03 3.03 l 4.281 0 z m -7.313 -3.03 l -5.656 -5.656 l 1.656 4 l 4 1.656 z m -5.656 -5.656 l -3.03 -7.313 l 0 4.281 l 3.03 3.03 z m -3.03 -7.313 l 0 -8 l -1.656 4 l 1.656 4 z m 0 -8 l 3.03 -7.313 l -3.03 3.03 l 0 4.281 z m 3.03 -7.313 l 5.656 -5.656 l -4 1.656 l -1.656 4 z m 5.656 -5.656 l 7.313 -3.03 l -4.281 0 l -3.03 3.03 z" opacity="0.05" visibility="visible" fill="#5fad38" display="inline" fill-rule="nonzero" stroke="none" fill-opacity="1" color="#000"/></g><g><use opacity="0.05" stroke-opacity="1" stroke-dasharray="none" fill="#000" stroke="#000" stroke-width="2" stroke-miterlimit="4" xlink:href="#SVGCleanerId_0"/><use opacity="0.1" stroke-opacity="1" stroke-dasharray="none" fill="#000" stroke="#000" stroke-width="1" stroke-miterlimit="4" xlink:href="#SVGCleanerId_0"/></g><g><g clip-path="url(#clipPath-600716949)"><g transform="translate(0,1)"><g opacity="0.1"><!-- color: #5fad38 --><g><path d="m 16.1 1.906 l -0.844 0.25 l -0.977 0.066 l -0.594 0.434 l -0.781 -0.031 l 0.066 0.5 l 1.121 -0.031 l 0.41 1.094 l 0.152 0.598 l -0.621 0.344 l -0.254 0.465 l 0.188 1.063 l 0.754 0.125 l 0.719 -0.688 l 0.625 -0.656 l 0.965 -0.25 l 1.227 -0.594 l 0.719 -0.875 l 1.031 -1.254 l 0.719 -0.188 l -0.031 -0.277 l -1.121 0 l -3.469 -0.094 m -2.223 0.063 l -0.816 0.035 l -1.406 0.375 l -0.813 0.25 l -0.941 -0.375 l -0.125 0.563 l 1.125 0.656 c 0 0 2.043 -1.129 2.156 -1.129 m 21.875 -0.152 l -0.188 0.316 l 1.152 0.148 l 0.066 -0.27 m -9.91 0 c -0.055 0.02 -1.527 0.023 -1.527 0.023 l -0.379 0.098 l 0.5 0.598 l 0.531 -0.5 l 0.344 0.219 l 0.5 -0.25 c 0 0 0.09 -0.211 0.031 -0.188 m 5.625 0.465 l -0.469 0.063 l -0.406 0.25 l -0.469 0.348 l -0.277 0.5 l 0.434 0.438 l 0.375 0.031 l 0.156 -0.254 l -0.375 -0.313 l 0.219 -0.188 l 0.031 -0.152 l 0.469 -0.313 c 0 0 0.609 0.008 0.656 0 c 0.051 -0.012 0.188 -0.191 0.188 -0.191 l -0.156 -0.223 m -26.25 0.188 l -0.09 0.316 l 0.469 0.156 l 0.531 -0.25 m 30.871 -0.125 l -2.125 0.094 l -0.563 0.375 l -0.625 0.375 l -0.531 0.438 l 0.063 0.188 l -0.277 0.031 l 0 0.004 l -4.086 0.68 l -3.578 2.691 l -0.379 0.281 l -0.027 0 l -0.25 -0.094 c 0 0 -0.156 0.008 -0.223 0.066 c -0.063 0.051 -0.121 0.102 -0.313 0.121 c -0.191 0.02 -0.563 0 -0.598 0 l -0.219 0 l 0.031 -0.227 l 0.156 -0.25 l -0.277 -0.223 c 0 0 -0.184 0.23 -0.191 0.281 c -0.004 0.055 0.125 0.281 0.125 0.281 c 0 0 -0.059 0.18 -0.09 0.219 c -0.035 0.039 -0.313 0.125 -0.313 0.125 l -0.438 -0.219 c 0 0 -0.18 -0.039 -0.156 0.063 c 0.027 0.102 0.223 0.195 0.223 0.281 c 0 0.082 -0.125 0.277 -0.125 0.277 l -0.156 0.188 l -0.25 0.254 l -0.344 0.09 c 0 0 -0.25 0.07 -0.313 0.094 c -0.066 0.023 -0.254 0.066 -0.254 0.066 l -0.25 0.031 l -0.156 0.223 l 0.281 0.191 l 0.188 0.309 c 0 0 0.121 0.223 0.156 0.223 c 0.031 0 0.09 0.219 0.09 0.219 l -0.188 0.25 l -0.094 0 l -0.656 0.125 l -0.125 -0.281 l -0.434 0.438 l -0.191 0.719 l 0 0.598 l 0.754 0.406 l 0.594 -0.219 l 0.598 -1.066 l 0.531 -0.652 l 0.965 -0.156 l 0.219 -0.188 l 1.098 1.281 l 0.121 0.438 l 0.313 -0.156 l -0.09 -0.375 l 0.188 0 l -0.125 -0.254 l -1.063 -1 l 0.094 -0.188 l 0.344 -0.031 l 0.75 0.75 l 0.375 0.441 l 0 0.688 l 0.191 0.125 l 0.375 0.375 l 0.277 -0.094 l -0.152 -0.566 l 0.094 -0.344 l 0.188 -0.219 l 0.438 0.156 l 0.156 0.063 l -0.031 -0.5 l 0.25 -0.469 l 0.156 -0.688 l 0.563 0.094 l 0.094 0.313 l 0.219 0.156 l 0.254 -0.219 l -0.156 -0.344 l 0.656 0 l -0.223 0.375 l 0.438 0.375 l 0.375 0.188 l 0.219 0.438 l -0.5 0.121 l -0.719 -0.156 l -0.621 0 l -0.598 0.316 l -0.125 0.188 l -0.434 0.094 l 0.188 0.469 l 0.344 0.406 l 0.625 -0.219 l 0.156 0.277 l 0.277 -0.219 l 0.375 0.063 l 0.035 0.41 l -0.125 0.777 l -0.344 -0.031 l -0.41 -0.063 l -0.188 0.465 l -1.375 -0.25 l -0.25 -0.316 l -0.316 0.281 l -0.344 0.469 l -0.875 -0.5 l -0.875 -0.527 l 0 -0.941 l -0.563 0.031 l -0.031 0.313 l -1.375 -0.063 l -0.438 0.402 l -0.844 0.031 l -0.566 0.5 l -0.344 0.969 l -0.875 0.691 l -0.625 0.844 l -0.031 1.625 l -0.188 0.5 l -0.063 0.598 l 0.375 0.652 l 0.219 0.625 l 0.754 0.906 l 0.434 0.375 l 0.441 0.094 l 0.09 -0.375 l 1.563 0 l 0.41 -0.188 l 0.5 0.063 l 0.152 0.313 l 0.527 0.031 l 0.348 0.25 l 0 0.531 l -0.121 0.438 l -0.125 0.344 l 0.313 0.566 l 0.406 0.469 l 0.188 1.188 l 0.031 0.777 l -0.277 0.656 l -0.031 0.625 l 0.219 1.156 l 0.191 0.188 l 0.273 1.094 l 0.035 0.469 l 0.566 0.75 l 0.063 0.594 l 0.094 0.688 l 0.344 -0.344 l 0.875 -0.09 l 0.531 0 l 0.969 -1.5 l 0.063 -0.594 l 0.656 -0.656 l 0.031 -0.75 l 0.344 -0.754 l 0.813 -0.777 l 0 -0.875 l -0.191 -0.813 l -0.121 -1.125 l 0.594 -0.938 l 1.063 -1.313 l 0.41 -0.406 l 0.152 -0.531 l 0.254 -0.469 l 0.063 -0.691 l -0.594 0 l -0.281 0.281 l -0.563 -0.156 l -0.344 -0.563 l -0.281 -0.563 l -0.656 -0.5 l -0.152 -0.813 l -0.281 -0.473 l -0.313 -0.594 l -0.406 -0.719 l -0.094 -0.469 l 0.438 -0.063 l 0.25 0.531 l 0.5 0.938 l 0.375 0.688 l 0.41 0.75 l 0.434 0.723 l 0.602 0.598 l 0.535 -0.5 l 0.594 -0.156 l 0.434 -0.531 l 0.598 -0.344 l 0.344 -0.594 l 0.031 -0.5 l -0.281 -0.316 l -0.375 -0.438 l -0.25 0.156 l -0.156 0.254 l -0.406 -0.188 l -0.125 -0.313 l -0.281 -0.41 l -0.434 -0.406 l 0 -0.813 l 0.277 0.531 l 0.344 0.535 l 0.598 0.344 l 0.406 -0.094 l 0.25 0.281 l 1.785 -0.035 l -0.035 0.035 l 0.566 0.5 l 0.406 0.563 l 0.125 0.277 l 0.277 0 l 0.094 -0.309 l 0.094 0.465 l 0.156 0.844 l 0.34 0.813 l 0.191 0.688 l 0.277 0.656 l 0.219 0.277 l 0.313 -0.188 l 0.094 -0.313 l 0.125 -0.777 l -0.035 -0.688 l 0.254 -0.316 c 0 0 0.266 -0.359 0.313 -0.375 c 0.043 -0.012 0.621 -0.652 0.621 -0.652 l 0.281 -0.348 l 0.313 -0.188 l 0.375 -0.219 l 0.156 0 l 0.063 0.344 l 0.156 0.406 l 0.5 0.652 l 0 0.25 l 0.094 0.281 l 0.344 -0.156 l -0.035 -0.375 l 0.313 0.066 l 0.066 0.344 l -0.035 0.531 l 0.094 0.375 l 0.281 0.066 l 0.09 -0.316 l 0.344 0.219 l 0.066 0.316 l 0.309 0.469 l 0.316 0.344 l 0.219 0.191 l 0.535 -0.469 l 0.219 -0.441 l -0.094 -0.5 l -0.09 -0.656 l -0.602 -0.563 l -0.09 -0.566 l 0.25 -0.398 c 0 0 0.16 -0.32 0.316 -0.156 c 0.148 0.168 0.223 0.188 0.152 0.375 c -0.063 0.184 -0.188 0.598 -0.188 0.598 l 0.375 0.156 l 0.156 -0.531 l -0.156 -0.379 l 0.375 -0.156 l 0.688 -0.344 l 0.441 -0.531 l 0.34 -0.809 l -0.031 -0.598 l -0.344 -0.777 l -0.691 -0.816 l -0.434 -0.402 l -0.219 -0.625 l 0.406 -0.098 c 0 0 0.234 -0.398 0.434 -0.188 c 0.203 0.219 0.5 0.531 0.5 0.531 c 0 0 0.355 0.563 0.41 0.625 c 0.047 0.063 0.418 0.402 0.465 0.469 c 0.051 0.063 0.281 0.313 0.281 0.313 l 0.375 -0.527 l 0.094 -0.098 l 0 -0.188 l -0.531 -0.316 l -0.469 -0.434 l 0.344 -0.754 l 0.566 -0.277 l 0.094 -0.254 l 0 -1.469 l -0.281 -0.563 l -0.313 -0.438 c 0 0 -0.32 -0.047 -0.406 -0.031 c -0.086 0.016 -0.781 -0.5 -0.781 -0.5 l 0.066 -0.5 l 0.25 -0.438 l 1.188 -0.152 l 0.281 0.031 l 0 -0.313 l -1.719 -2.25 l -1.656 -0.188 l -1.281 -0.316 c 0 0 -0.391 0.297 -0.598 0.316 c -0.199 0.016 -0.906 0.125 -0.906 0.125 l -0.719 -0.441 l -1.5 -0.125 l -0.066 -0.031 l -1.277 -0.063 l -0.781 -0.438 m -11.73 4.895 l 3.578 -2.703 l -1.219 0.656 l -0.313 -0.223 l -0.156 -0.25 l 0.063 -0.254 l 0.688 0.035 l 0.316 -0.125 l -0.621 -0.313 l -0.875 -0.316 l -0.879 -0.156 l -0.941 0.191 l -0.969 0.781 l -0.434 0.438 l -0.656 0.719 l -0.25 0.031 l -0.094 0.344 l 0.125 0.344 c 0 0 0.133 0.156 0.156 0.156 c 0.02 0 0.25 -0.125 0.25 -0.125 c 0 0 0.027 -0.117 0.156 -0.156 c 0.133 -0.039 0.25 -0.063 0.25 -0.063 l 0.188 0.375 l 0.223 0.313 l 0.09 0.25 c 0 0 0.363 -0.223 0.379 -0.25 c 0.008 -0.031 0.031 -0.41 0.031 -0.41 l 0.273 -0.188 c 0 0 0.074 -0.133 0.066 -0.156 c -0.012 -0.02 -0.188 -0.219 -0.188 -0.219 l -0.156 -0.063 l 0.063 -0.316 c 0 0 0.125 -0.051 0.125 -0.094 c 0 -0.039 0.191 -0.188 0.191 -0.188 l 0.219 -0.277 l 0.156 -0.188 l 0.219 -0.156 l 0.254 0.188 l 0 0.125 l -0.223 0.25 l -0.066 0.25 l 0 0.344 l 0.191 0.156 l 0.344 -0.031 l 0.313 -0.063 l 0.281 0.156 l -0.066 0.219 c 0 0 -0.195 0.188 -0.25 0.219 c -0.059 0.031 -0.41 -0.063 -0.5 -0.031 c -0.09 0.031 -0.313 0.316 -0.313 0.316 c 0 0 -0.023 0.25 0 0.313 c 0.012 0.023 -0.004 0.07 -0.012 0.129 m 3.566 -2.68 l 4.09 -0.695 l -0.027 -0.156 l -0.316 -0.438 l -0.656 -0.063 c 0 0 0.156 0.664 0.156 0.75 c 0 0.082 -0.438 0.027 -0.438 0.027 l -0.75 0.035 c 0 0 -1.086 0.25 -1.219 0.25 c -0.133 0 -0.762 0.262 -0.813 0.281 l -0.023 0.004 m -25.05 -1.824 l -0.5 0.566 l 0.438 0.219 l 0.563 -0.254 l 0.031 0.625 l 0.469 0.316 l 0.496 -0.473 l 0.691 0.125 l 0.277 -0.652 l -1.125 -0.098 l -1.344 -0.375 m 3.129 0.098 l 0.438 1.094 l -0.531 0.063 l -0.406 0.5 l -0.902 -0.277 l -0.816 0.313 l -0.777 -0.188 l -0.906 -0.566 l -1.25 0.031 l -1.098 0.469 l -0.719 -0.344 l -0.441 -0.031 l 0 13.594 l 0.852 0.469 l 0.5 -0.066 l 0.719 0.344 l 1.094 0.598 l 0.156 0.723 l 0.875 0.84 l 0.5 -0.375 l 0.41 0.316 l -0.066 -0.723 l -0.777 0.191 l -0.254 -0.906 l -0.09 -0.41 l -0.688 -0.621 l 0 -0.438 l 0.531 -0.566 l -0.348 -0.402 l -0.563 0.09 l -0.848 0.844 l -0.688 -0.09 c 0 0 -0.313 -0.531 -0.379 -0.656 c -0.063 -0.125 0.191 -0.563 0.191 -0.563 l -0.066 -1.285 l 0.719 -0.5 l 0.566 -0.191 l 0.809 0 l 1.125 -0.25 l 0.406 0.531 l -0.063 0.625 l 0.469 0.406 l 0.063 -0.441 c 0 0 -0.023 -0.719 -0.094 -0.906 c -0.063 -0.188 0.566 -0.625 0.566 -0.625 l 0.496 -0.613 l 0.598 -0.727 l 0.281 -0.563 l 0.938 -0.496 l 0.625 -0.691 c 0 0 0.934 -0.148 1.121 -0.254 c 0.191 -0.09 0.066 -0.434 -0.125 -0.75 c -0.191 -0.313 0.094 -0.625 0.094 -0.625 l 0.719 -0.434 l 0.625 0.121 l 0.066 0.754 c 0 0 0.59 0.563 0.781 0.465 c 0.188 -0.09 0.273 -0.406 0.273 -0.406 l -0.313 -0.813 l 0.191 -0.809 l -0.844 0.121 l 0 -1.375 l -0.254 0.254 l -0.656 0.031 l -0.09 -0.688 l -0.438 -0.531 c 0 0 -0.43 0.25 -0.848 0.406 c -0.414 0.156 -0.309 0.469 -0.309 0.469 l -0.035 0.844 l -0.688 0.563 l -0.434 0.656 c 0 0 -0.281 -0.188 -0.281 -0.313 c 0 -0.125 -0.063 -0.469 -0.063 -0.469 l -0.719 -0.563 c 0 0 -0.566 -0.406 -0.602 -0.531 c -0.027 -0.125 0.348 -0.688 0.348 -0.688 c 0 0 0.809 -0.5 1 -0.656 c 0.188 -0.156 1.215 0.344 1.344 0.254 c 0.129 -0.094 0.625 -0.875 0.625 -0.875 l 0.434 -0.598 l -0.434 0.5 l -0.754 -0.719 l 0.125 -0.719 l -1.031 -0.156 m 2.508 0.035 l -0.25 0.625 l 0.156 0.344 l 0.563 -0.066 l 0.25 0.469 l -0.5 0.531 l -0.563 0.063 l 0.5 0.223 l 0.531 0.465 l 0.527 0.125 l 0.191 -0.719 l 0.035 -0.438 l 0.621 0.094 c 0 0 -0.191 0.313 -0.094 0.313 c 0.098 0 0.469 -0.406 0.469 -0.406 l -1.066 -1.098 c 0 0 -0.434 -0.344 -0.563 -0.25 c -0.129 0.09 -0.469 0.063 -0.469 0.063 l -0.344 -0.344 m 8.687 1.789 l -0.121 0.41 c 0.449 0.348 0.621 0.344 0.621 0.344 l 0.527 -0.125 l 0.348 -0.344 l -0.223 -0.281 l -1.152 0 m 2.777 1.781 l -0.25 0.219 c -0.066 0.305 -0.152 0.621 -0.152 0.621 l 0.469 0.223 l 0.063 0.277 l -0.25 0.254 l -0.219 0.375 l 0.152 0.156 l 0.563 -0.094 l 0.5 -0.219 l -0.277 -0.375 l -0.098 -0.656 l -0.344 -0.375 m -0.934 0.777 l -0.281 0.469 l 0.375 0.156 l 0.156 -0.281 m -15.688 0.754 l 0.656 0.277 l 0.434 0.566 l 0.281 0.434 c 0 0 -0.25 0.844 -0.313 1 c -0.063 0.156 -0.25 -0.313 -0.25 -0.313 l -0.156 -0.813 l -0.531 0.223 l -0.41 0.965 l 0.094 -0.809 l 0.125 -0.566 l -0.656 -0.25 l 0.563 -0.531 l 0.156 -0.188 m 26.383 0.754 c 0.137 -0.043 0.375 0.156 0.375 0.156 l -0.25 0.219 l 0.09 0.313 l 0.281 0.75 l 0.281 0.469 l 0.375 0.594 l -0.406 0.191 l -0.531 -0.344 l -0.223 -0.656 c 0 0 -0.301 -0.406 -0.434 -0.469 c -0.137 -0.066 -0.254 -0.281 -0.254 -0.281 l 0.125 -0.531 c 0 0 0.43 -0.359 0.563 -0.406 m -7.898 1.184 l -0.375 0.719 l 0.281 0.281 l 0.25 -0.223 l 0.031 -0.309 m -1.438 0.281 l 0 0.188 l 0.156 -0.031 m 2 0.313 l -0.188 0.063 l 0.309 0.531 l 0.281 -0.219 m -20.531 3.813 l -0.309 0.156 l 0.531 0.281 l 0.594 0.121 l 0.344 0.469 l 0.406 -0.25 l -0.063 -0.281 l -0.688 -0.5 l -0.816 0 m 1.688 3.098 l -0.816 0.441 l -0.09 0.902 l -0.188 1 l -0.563 0.75 l 0.031 1.125 l 0.465 1.156 l 0.5 1.406 l 1.313 1.313 l 0.063 0.75 l 0.094 3.383 l 0.469 1.902 c 0 0 0.285 1.102 0.223 1.188 c -0.066 0.09 0.375 0.91 0.375 0.91 l 0.875 1.375 l 1.219 0.527 l -0.5 -0.598 l -0.25 -0.688 l 0.25 -0.719 l -0.656 -0.344 c 0 0 0.434 -0.285 0.5 -0.375 c 0.066 -0.09 -0.09 -0.469 -0.09 -0.469 l -0.191 -0.465 l 0.496 -0.656 l 0.781 -0.188 l 0.125 -0.598 l -0.469 -0.219 l 0.188 -0.5 l 0.75 -0.094 l 0.656 -1.598 l 0.469 -1.094 l 0.977 -0.469 c 0 0 0.309 -0.93 0.309 -1.066 c 0 -0.129 0.094 -1.531 0.094 -1.531 l 0.75 -1.023 l 0.094 -0.691 l -0.563 -0.344 l -0.469 -0.566 l -0.852 0.066 l -1.344 -0.781 l -0.27 -0.656 c 0 0 -0.48 -0.813 -0.566 -0.813 c -0.086 0 -0.652 0.035 -0.652 0.035 l -0.531 -0.531 l -0.344 -0.656 l -1.344 -0.281 l -0.438 -0.219 l -0.875 0 m 36.438 0.492 c 0.113 0.129 0.813 2.219 0.906 2.219 c 0.09 0 0.625 0.066 0.625 0.066 l -0.281 -0.844 m -4.844 -1.375 l -0.316 0.406 l 0.156 0.598 l 0.344 -0.375 l -0.063 -0.473 m 7.969 0.563 l -1.473 0.813 c 0 0.094 -0.723 0.691 -0.723 0.691 l 0.191 0.625 l 0.41 0.465 l 0.273 0.688 l 1.875 -1.219 l -0.563 -2.063 m -4.59 0.438 l -0.434 0.066 l 1.996 3 l 0.531 0.594 l 1.313 0.063 l 0.813 0.254 l -0.879 -0.625 l -1.25 -0.344 l -0.313 -1.156 l -0.688 -0.563 l -1.094 -1.281 m -10.496 4.867 l 0 0.438 c -0.02 0.066 -0.406 0.375 -0.406 0.375 l -0.469 0.219 l -0.344 0.281 l 0.254 0.344 l 0.156 0.156 l -0.41 0.344 l 0 0.563 l 0.156 0.594 l 0.344 0.094 l 0.41 -0.625 l 0.25 -0.406 l -0.063 -0.5 l 0.375 -0.594 l 0.125 -0.281 l 0 -0.563 l -0.094 -0.438 m 15.773 0.719 c -0.004 0 -0.031 0.031 -0.031 0.031 l -0.5 1.031 c 0 0 -1.102 0.164 -1.125 0.254 c -0.02 0.086 -0.563 0.375 -0.563 0.375 c -0.113 0 -0.465 0.656 -0.465 0.656 l -0.066 2.063 l -0.121 0.75 l 0.313 0.406 l 1.527 -0.531 l 0.5 -0.563 l 0.531 0 l 0 -4.469 m -36.527 8.746 l -0.219 0.156 l -0.094 0.031 l 0.5 0.25 l -0.191 -0.434 m -0.844 0.184 l -0.219 0.5 l 0.438 -0.094 l -0.223 -0.406 m 1.504 4.125 l -0.469 0.719 l -0.875 0.406 l 0.5 0.625 l -0.75 0.375 l -2.473 -0.125 l -0.754 -0.75 l -0.652 -0.125 l 0.652 1.375 l -1.148 -0.219 l -3.973 0.125 l -0.844 1.094 l -1.219 -0.125 l -0.125 0.254 l 0 4.09 l 45.28 0 l 2.715 -1.781 l 0 -1.906 l -0.121 -1.188 l -0.969 -0.219 l -1.219 0.156 l -0.875 0.77 l -1.473 0.605 l 0.625 -0.754 l 1.344 -0.777 l 2.156 -0.5 l 0.254 -0.875 l -1 0 c 0 0 -1.344 -0.668 -1.344 -0.844 c 0 -0.176 -1.5 -0.125 -1.5 -0.125 l -1.719 0.188 l -1.652 -0.09 l -3.313 0.125 l -3.066 0.621 c 0 0 -1.477 0.793 -1.656 0.754 c -0.18 -0.043 0.625 -1.031 0.625 -1.031 l -1.438 0.09 l -0.906 -0.75 l -0.91 0.621 c 0 0 -1.215 0.094 -1.527 0.094 c -0.316 0 -0.723 0.563 -0.723 0.563 l -2.469 -0.09 l -4.25 0.188 l -1.121 0.965 l -0.281 0.035 l -3.215 -0.223 l -2.219 0.223 l -0.781 -0.379 l 0.031 -0.063 c 0 0 -0.652 -1.32 -0.652 -1.5 c 0 -0.176 -0.5 -0.621 -0.5 -0.621 m 0.332 3.188 l 1.348 0.438 l -1.656 0 l -0.656 -0.344 m 0.969 -0.094" fill="#000" stroke="none" fill-rule="nonzero" fill-opacity="0.667"/></g></g></g></g></g><g><g clip-path="url(#clipPath-608757814)"><!-- color: #5fad38 --><g><path d="m 16.1 1.906 l -0.844 0.25 l -0.977 0.066 l -0.594 0.434 l -0.781 -0.031 l 0.066 0.5 l 1.121 -0.031 l 0.41 1.094 l 0.152 0.598 l -0.621 0.344 l -0.254 0.465 l 0.188 1.063 l 0.754 0.125 l 0.719 -0.688 l 0.625 -0.656 l 0.965 -0.25 l 1.227 -0.594 l 0.719 -0.875 l 1.031 -1.254 l 0.719 -0.188 l -0.031 -0.277 l -1.121 0 l -3.469 -0.094 m -2.223 0.063 l -0.816 0.035 l -1.406 0.375 l -0.813 0.25 l -0.941 -0.375 l -0.125 0.563 l 1.125 0.656 c 0 0 2.043 -1.129 2.156 -1.129 m 21.875 -0.152 l -0.188 0.316 l 1.152 0.148 l 0.066 -0.27 m -9.91 0 c -0.055 0.02 -1.527 0.023 -1.527 0.023 l -0.379 0.098 l 0.5 0.598 l 0.531 -0.5 l 0.344 0.219 l 0.5 -0.25 c 0 0 0.09 -0.211 0.031 -0.188 m 5.625 0.465 l -0.469 0.063 l -0.406 0.25 l -0.469 0.348 l -0.277 0.5 l 0.434 0.438 l 0.375 0.031 l 0.156 -0.254 l -0.375 -0.313 l 0.219 -0.188 l 0.031 -0.152 l 0.469 -0.313 c 0 0 0.609 0.008 0.656 0 c 0.051 -0.012 0.188 -0.191 0.188 -0.191 l -0.156 -0.223 m -26.25 0.188 l -0.09 0.316 l 0.469 0.156 l 0.531 -0.25 m 30.871 -0.125 l -2.125 0.094 l -0.563 0.375 l -0.625 0.375 l -0.531 0.438 l 0.063 0.188 l -0.277 0.031 l 0 0.004 l -4.086 0.68 l -3.578 2.691 l -0.379 0.281 l -0.027 0 l -0.25 -0.094 c 0 0 -0.156 0.008 -0.223 0.066 c -0.063 0.051 -0.121 0.102 -0.313 0.121 c -0.191 0.02 -0.563 0 -0.598 0 l -0.219 0 l 0.031 -0.227 l 0.156 -0.25 l -0.277 -0.223 c 0 0 -0.184 0.23 -0.191 0.281 c -0.004 0.055 0.125 0.281 0.125 0.281 c 0 0 -0.059 0.18 -0.09 0.219 c -0.035 0.039 -0.313 0.125 -0.313 0.125 l -0.438 -0.219 c 0 0 -0.18 -0.039 -0.156 0.063 c 0.027 0.102 0.223 0.195 0.223 0.281 c 0 0.082 -0.125 0.277 -0.125 0.277 l -0.156 0.188 l -0.25 0.254 l -0.344 0.09 c 0 0 -0.25 0.07 -0.313 0.094 c -0.066 0.023 -0.254 0.066 -0.254 0.066 l -0.25 0.031 l -0.156 0.223 l 0.281 0.191 l 0.188 0.309 c 0 0 0.121 0.223 0.156 0.223 c 0.031 0 0.09 0.219 0.09 0.219 l -0.188 0.25 l -0.094 0 l -0.656 0.125 l -0.125 -0.281 l -0.434 0.438 l -0.191 0.719 l 0 0.598 l 0.754 0.406 l 0.594 -0.219 l 0.598 -1.066 l 0.531 -0.652 l 0.965 -0.156 l 0.219 -0.188 l 1.098 1.281 l 0.121 0.438 l 0.313 -0.156 l -0.09 -0.375 l 0.188 0 l -0.125 -0.254 l -1.063 -1 l 0.094 -0.188 l 0.344 -0.031 l 0.75 0.75 l 0.375 0.441 l 0 0.688 l 0.191 0.125 l 0.375 0.375 l 0.277 -0.094 l -0.152 -0.566 l 0.094 -0.344 l 0.188 -0.219 l 0.438 0.156 l 0.156 0.063 l -0.031 -0.5 l 0.25 -0.469 l 0.156 -0.688 l 0.563 0.094 l 0.094 0.313 l 0.219 0.156 l 0.254 -0.219 l -0.156 -0.344 l 0.656 0 l -0.223 0.375 l 0.438 0.375 l 0.375 0.188 l 0.219 0.438 l -0.5 0.121 l -0.719 -0.156 l -0.621 0 l -0.598 0.316 l -0.125 0.188 l -0.434 0.094 l 0.188 0.469 l 0.344 0.406 l 0.625 -0.219 l 0.156 0.277 l 0.277 -0.219 l 0.375 0.063 l 0.035 0.41 l -0.125 0.777 l -0.344 -0.031 l -0.41 -0.063 l -0.188 0.465 l -1.375 -0.25 l -0.25 -0.316 l -0.316 0.281 l -0.344 0.469 l -0.875 -0.5 l -0.875 -0.527 l 0 -0.941 l -0.563 0.031 l -0.031 0.313 l -1.375 -0.063 l -0.438 0.402 l -0.844 0.031 l -0.566 0.5 l -0.344 0.969 l -0.875 0.691 l -0.625 0.844 l -0.031 1.625 l -0.188 0.5 l -0.063 0.598 l 0.375 0.652 l 0.219 0.625 l 0.754 0.906 l 0.434 0.375 l 0.441 0.094 l 0.09 -0.375 l 1.563 0 l 0.41 -0.188 l 0.5 0.063 l 0.152 0.313 l 0.527 0.031 l 0.348 0.25 l 0 0.531 l -0.121 0.438 l -0.125 0.344 l 0.313 0.566 l 0.406 0.469 l 0.188 1.188 l 0.031 0.777 l -0.277 0.656 l -0.031 0.625 l 0.219 1.156 l 0.191 0.188 l 0.273 1.094 l 0.035 0.469 l 0.566 0.75 l 0.063 0.594 l 0.094 0.688 l 0.344 -0.344 l 0.875 -0.09 l 0.531 0 l 0.969 -1.5 l 0.063 -0.594 l 0.656 -0.656 l 0.031 -0.75 l 0.344 -0.754 l 0.813 -0.777 l 0 -0.875 l -0.191 -0.813 l -0.121 -1.125 l 0.594 -0.938 l 1.063 -1.313 l 0.41 -0.406 l 0.152 -0.531 l 0.254 -0.469 l 0.063 -0.691 l -0.594 0 l -0.281 0.281 l -0.563 -0.156 l -0.344 -0.563 l -0.281 -0.563 l -0.656 -0.5 l -0.152 -0.813 l -0.281 -0.473 l -0.313 -0.594 l -0.406 -0.719 l -0.094 -0.469 l 0.438 -0.063 l 0.25 0.531 l 0.5 0.938 l 0.375 0.688 l 0.41 0.75 l 0.434 0.723 l 0.602 0.598 l 0.535 -0.5 l 0.594 -0.156 l 0.434 -0.531 l 0.598 -0.344 l 0.344 -0.594 l 0.031 -0.5 l -0.281 -0.316 l -0.375 -0.438 l -0.25 0.156 l -0.156 0.254 l -0.406 -0.188 l -0.125 -0.313 l -0.281 -0.41 l -0.434 -0.406 l 0 -0.813 l 0.277 0.531 l 0.344 0.535 l 0.598 0.344 l 0.406 -0.094 l 0.25 0.281 l 1.785 -0.035 l -0.035 0.035 l 0.566 0.5 l 0.406 0.563 l 0.125 0.277 l 0.277 0 l 0.094 -0.309 l 0.094 0.465 l 0.156 0.844 l 0.34 0.813 l 0.191 0.688 l 0.277 0.656 l 0.219 0.277 l 0.313 -0.188 l 0.094 -0.313 l 0.125 -0.777 l -0.035 -0.688 l 0.254 -0.316 c 0 0 0.266 -0.359 0.313 -0.375 c 0.043 -0.012 0.621 -0.652 0.621 -0.652 l 0.281 -0.348 l 0.313 -0.188 l 0.375 -0.219 l 0.156 0 l 0.063 0.344 l 0.156 0.406 l 0.5 0.652 l 0 0.25 l 0.094 0.281 l 0.344 -0.156 l -0.035 -0.375 l 0.313 0.066 l 0.066 0.344 l -0.035 0.531 l 0.094 0.375 l 0.281 0.066 l 0.09 -0.316 l 0.344 0.219 l 0.066 0.316 l 0.309 0.469 l 0.316 0.344 l 0.219 0.191 l 0.535 -0.469 l 0.219 -0.441 l -0.094 -0.5 l -0.09 -0.656 l -0.602 -0.563 l -0.09 -0.566 l 0.25 -0.398 c 0 0 0.16 -0.32 0.316 -0.156 c 0.148 0.168 0.223 0.188 0.152 0.375 c -0.063 0.184 -0.188 0.598 -0.188 0.598 l 0.375 0.156 l 0.156 -0.531 l -0.156 -0.379 l 0.375 -0.156 l 0.688 -0.344 l 0.441 -0.531 l 0.34 -0.809 l -0.031 -0.598 l -0.344 -0.777 l -0.691 -0.816 l -0.434 -0.402 l -0.219 -0.625 l 0.406 -0.098 c 0 0 0.234 -0.398 0.434 -0.188 c 0.203 0.219 0.5 0.531 0.5 0.531 c 0 0 0.355 0.563 0.41 0.625 c 0.047 0.063 0.418 0.402 0.465 0.469 c 0.051 0.063 0.281 0.313 0.281 0.313 l 0.375 -0.527 l 0.094 -0.098 l 0 -0.188 l -0.531 -0.316 l -0.469 -0.434 l 0.344 -0.754 l 0.566 -0.277 l 0.094 -0.254 l 0 -1.469 l -0.281 -0.563 l -0.313 -0.438 c 0 0 -0.32 -0.047 -0.406 -0.031 c -0.086 0.016 -0.781 -0.5 -0.781 -0.5 l 0.066 -0.5 l 0.25 -0.438 l 1.188 -0.152 l 0.281 0.031 l 0 -0.313 l -1.719 -2.25 l -1.656 -0.188 l -1.281 -0.316 c 0 0 -0.391 0.297 -0.598 0.316 c -0.199 0.016 -0.906 0.125 -0.906 0.125 l -0.719 -0.441 l -1.5 -0.125 l -0.066 -0.031 l -1.277 -0.063 l -0.781 -0.438 m -11.73 4.895 l 3.578 -2.703 l -1.219 0.656 l -0.313 -0.223 l -0.156 -0.25 l 0.063 -0.254 l 0.688 0.035 l 0.316 -0.125 l -0.621 -0.313 l -0.875 -0.316 l -0.879 -0.156 l -0.941 0.191 l -0.969 0.781 l -0.434 0.438 l -0.656 0.719 l -0.25 0.031 l -0.094 0.344 l 0.125 0.344 c 0 0 0.133 0.156 0.156 0.156 c 0.02 0 0.25 -0.125 0.25 -0.125 c 0 0 0.027 -0.117 0.156 -0.156 c 0.133 -0.039 0.25 -0.063 0.25 -0.063 l 0.188 0.375 l 0.223 0.313 l 0.09 0.25 c 0 0 0.363 -0.223 0.379 -0.25 c 0.008 -0.031 0.031 -0.41 0.031 -0.41 l 0.273 -0.188 c 0 0 0.074 -0.133 0.066 -0.156 c -0.012 -0.02 -0.188 -0.219 -0.188 -0.219 l -0.156 -0.063 l 0.063 -0.316 c 0 0 0.125 -0.051 0.125 -0.094 c 0 -0.039 0.191 -0.188 0.191 -0.188 l 0.219 -0.277 l 0.156 -0.188 l 0.219 -0.156 l 0.254 0.188 l 0 0.125 l -0.223 0.25 l -0.066 0.25 l 0 0.344 l 0.191 0.156 l 0.344 -0.031 l 0.313 -0.063 l 0.281 0.156 l -0.066 0.219 c 0 0 -0.195 0.188 -0.25 0.219 c -0.059 0.031 -0.41 -0.063 -0.5 -0.031 c -0.09 0.031 -0.313 0.316 -0.313 0.316 c 0 0 -0.023 0.25 0 0.313 c 0.012 0.023 -0.004 0.07 -0.012 0.129 m 3.566 -2.68 l 4.09 -0.695 l -0.027 -0.156 l -0.316 -0.438 l -0.656 -0.063 c 0 0 0.156 0.664 0.156 0.75 c 0 0.082 -0.438 0.027 -0.438 0.027 l -0.75 0.035 c 0 0 -1.086 0.25 -1.219 0.25 c -0.133 0 -0.762 0.262 -0.813 0.281 l -0.023 0.004 m -25.05 -1.824 l -0.5 0.566 l 0.438 0.219 l 0.563 -0.254 l 0.031 0.625 l 0.469 0.316 l 0.496 -0.473 l 0.691 0.125 l 0.277 -0.652 l -1.125 -0.098 l -1.344 -0.375 m 3.129 0.098 l 0.438 1.094 l -0.531 0.063 l -0.406 0.5 l -0.902 -0.277 l -0.816 0.313 l -0.777 -0.188 l -0.906 -0.566 l -1.25 0.031 l -1.098 0.469 l -0.719 -0.344 l -0.441 -0.031 l 0 13.594 l 0.852 0.469 l 0.5 -0.066 l 0.719 0.344 l 1.094 0.598 l 0.156 0.723 l 0.875 0.84 l 0.5 -0.375 l 0.41 0.316 l -0.066 -0.723 l -0.777 0.191 l -0.254 -0.906 l -0.09 -0.41 l -0.688 -0.621 l 0 -0.438 l 0.531 -0.566 l -0.348 -0.402 l -0.563 0.09 l -0.848 0.844 l -0.688 -0.09 c 0 0 -0.313 -0.531 -0.379 -0.656 c -0.063 -0.125 0.191 -0.563 0.191 -0.563 l -0.066 -1.285 l 0.719 -0.5 l 0.566 -0.191 l 0.809 0 l 1.125 -0.25 l 0.406 0.531 l -0.063 0.625 l 0.469 0.406 l 0.063 -0.441 c 0 0 -0.023 -0.719 -0.094 -0.906 c -0.063 -0.188 0.566 -0.625 0.566 -0.625 l 0.496 -0.613 l 0.598 -0.727 l 0.281 -0.563 l 0.938 -0.496 l 0.625 -0.691 c 0 0 0.934 -0.148 1.121 -0.254 c 0.191 -0.09 0.066 -0.434 -0.125 -0.75 c -0.191 -0.313 0.094 -0.625 0.094 -0.625 l 0.719 -0.434 l 0.625 0.121 l 0.066 0.754 c 0 0 0.59 0.563 0.781 0.465 c 0.188 -0.09 0.273 -0.406 0.273 -0.406 l -0.313 -0.813 l 0.191 -0.809 l -0.844 0.121 l 0 -1.375 l -0.254 0.254 l -0.656 0.031 l -0.09 -0.688 l -0.438 -0.531 c 0 0 -0.43 0.25 -0.848 0.406 c -0.414 0.156 -0.309 0.469 -0.309 0.469 l -0.035 0.844 l -0.688 0.563 l -0.434 0.656 c 0 0 -0.281 -0.188 -0.281 -0.313 c 0 -0.125 -0.063 -0.469 -0.063 -0.469 l -0.719 -0.563 c 0 0 -0.566 -0.406 -0.602 -0.531 c -0.027 -0.125 0.348 -0.688 0.348 -0.688 c 0 0 0.809 -0.5 1 -0.656 c 0.188 -0.156 1.215 0.344 1.344 0.254 c 0.129 -0.094 0.625 -0.875 0.625 -0.875 l 0.434 -0.598 l -0.434 0.5 l -0.754 -0.719 l 0.125 -0.719 l -1.031 -0.156 m 2.508 0.035 l -0.25 0.625 l 0.156 0.344 l 0.563 -0.066 l 0.25 0.469 l -0.5 0.531 l -0.563 0.063 l 0.5 0.223 l 0.531 0.465 l 0.527 0.125 l 0.191 -0.719 l 0.035 -0.438 l 0.621 0.094 c 0 0 -0.191 0.313 -0.094 0.313 c 0.098 0 0.469 -0.406 0.469 -0.406 l -1.066 -1.098 c 0 0 -0.434 -0.344 -0.563 -0.25 c -0.129 0.09 -0.469 0.063 -0.469 0.063 l -0.344 -0.344 m 8.687 1.789 l -0.121 0.41 c 0.449 0.348 0.621 0.344 0.621 0.344 l 0.527 -0.125 l 0.348 -0.344 l -0.223 -0.281 l -1.152 0 m 2.777 1.781 l -0.25 0.219 c -0.066 0.305 -0.152 0.621 -0.152 0.621 l 0.469 0.223 l 0.063 0.277 l -0.25 0.254 l -0.219 0.375 l 0.152 0.156 l 0.563 -0.094 l 0.5 -0.219 l -0.277 -0.375 l -0.098 -0.656 l -0.344 -0.375 m -0.934 0.777 l -0.281 0.469 l 0.375 0.156 l 0.156 -0.281 m -15.688 0.754 l 0.656 0.277 l 0.434 0.566 l 0.281 0.434 c 0 0 -0.25 0.844 -0.313 1 c -0.063 0.156 -0.25 -0.313 -0.25 -0.313 l -0.156 -0.813 l -0.531 0.223 l -0.41 0.965 l 0.094 -0.809 l 0.125 -0.566 l -0.656 -0.25 l 0.563 -0.531 l 0.156 -0.188 m 26.383 0.754 c 0.137 -0.043 0.375 0.156 0.375 0.156 l -0.25 0.219 l 0.09 0.313 l 0.281 0.75 l 0.281 0.469 l 0.375 0.594 l -0.406 0.191 l -0.531 -0.344 l -0.223 -0.656 c 0 0 -0.301 -0.406 -0.434 -0.469 c -0.137 -0.066 -0.254 -0.281 -0.254 -0.281 l 0.125 -0.531 c 0 0 0.43 -0.359 0.563 -0.406 m -7.898 1.184 l -0.375 0.719 l 0.281 0.281 l 0.25 -0.223 l 0.031 -0.309 m -1.438 0.281 l 0 0.188 l 0.156 -0.031 m 2 0.313 l -0.188 0.063 l 0.309 0.531 l 0.281 -0.219 m -20.531 3.813 l -0.309 0.156 l 0.531 0.281 l 0.594 0.121 l 0.344 0.469 l 0.406 -0.25 l -0.063 -0.281 l -0.688 -0.5 l -0.816 0 m 1.688 3.098 l -0.816 0.441 l -0.09 0.902 l -0.188 1 l -0.563 0.75 l 0.031 1.125 l 0.465 1.156 l 0.5 1.406 l 1.313 1.313 l 0.063 0.75 l 0.094 3.383 l 0.469 1.902 c 0 0 0.285 1.102 0.223 1.188 c -0.066 0.09 0.375 0.91 0.375 0.91 l 0.875 1.375 l 1.219 0.527 l -0.5 -0.598 l -0.25 -0.688 l 0.25 -0.719 l -0.656 -0.344 c 0 0 0.434 -0.285 0.5 -0.375 c 0.066 -0.09 -0.09 -0.469 -0.09 -0.469 l -0.191 -0.465 l 0.496 -0.656 l 0.781 -0.188 l 0.125 -0.598 l -0.469 -0.219 l 0.188 -0.5 l 0.75 -0.094 l 0.656 -1.598 l 0.469 -1.094 l 0.977 -0.469 c 0 0 0.309 -0.93 0.309 -1.066 c 0 -0.129 0.094 -1.531 0.094 -1.531 l 0.75 -1.023 l 0.094 -0.691 l -0.563 -0.344 l -0.469 -0.566 l -0.852 0.066 l -1.344 -0.781 l -0.27 -0.656 c 0 0 -0.48 -0.813 -0.566 -0.813 c -0.086 0 -0.652 0.035 -0.652 0.035 l -0.531 -0.531 l -0.344 -0.656 l -1.344 -0.281 l -0.438 -0.219 l -0.875 0 m 36.438 0.492 c 0.113 0.129 0.813 2.219 0.906 2.219 c 0.09 0 0.625 0.066 0.625 0.066 l -0.281 -0.844 m -4.844 -1.375 l -0.316 0.406 l 0.156 0.598 l 0.344 -0.375 l -0.063 -0.473 m 7.969 0.563 l -1.473 0.813 c 0 0.094 -0.723 0.691 -0.723 0.691 l 0.191 0.625 l 0.41 0.465 l 0.273 0.688 l 1.875 -1.219 l -0.563 -2.063 m -4.59 0.438 l -0.434 0.066 l 1.996 3 l 0.531 0.594 l 1.313 0.063 l 0.813 0.254 l -0.879 -0.625 l -1.25 -0.344 l -0.313 -1.156 l -0.688 -0.563 l -1.094 -1.281 m -10.496 4.867 l 0 0.438 c -0.02 0.066 -0.406 0.375 -0.406 0.375 l -0.469 0.219 l -0.344 0.281 l 0.254 0.344 l 0.156 0.156 l -0.41 0.344 l 0 0.563 l 0.156 0.594 l 0.344 0.094 l 0.41 -0.625 l 0.25 -0.406 l -0.063 -0.5 l 0.375 -0.594 l 0.125 -0.281 l 0 -0.563 l -0.094 -0.438 m 15.773 0.719 c -0.004 0 -0.031 0.031 -0.031 0.031 l -0.5 1.031 c 0 0 -1.102 0.164 -1.125 0.254 c -0.02 0.086 -0.563 0.375 -0.563 0.375 c -0.113 0 -0.465 0.656 -0.465 0.656 l -0.066 2.063 l -0.121 0.75 l 0.313 0.406 l 1.527 -0.531 l 0.5 -0.563 l 0.531 0 l 0 -4.469 m -36.527 8.746 l -0.219 0.156 l -0.094 0.031 l 0.5 0.25 l -0.191 -0.434 m -0.844 0.184 l -0.219 0.5 l 0.438 -0.094 l -0.223 -0.406 m 1.504 4.125 l -0.469 0.719 l -0.875 0.406 l 0.5 0.625 l -0.75 0.375 l -2.473 -0.125 l -0.754 -0.75 l -0.652 -0.125 l 0.652 1.375 l -1.148 -0.219 l -3.973 0.125 l -0.844 1.094 l -1.219 -0.125 l -0.125 0.254 l 0 4.09 l 45.28 0 l 2.715 -1.781 l 0 -1.906 l -0.121 -1.188 l -0.969 -0.219 l -1.219 0.156 l -0.875 0.77 l -1.473 0.605 l 0.625 -0.754 l 1.344 -0.777 l 2.156 -0.5 l 0.254 -0.875 l -1 0 c 0 0 -1.344 -0.668 -1.344 -0.844 c 0 -0.176 -1.5 -0.125 -1.5 -0.125 l -1.719 0.188 l -1.652 -0.09 l -3.313 0.125 l -3.066 0.621 c 0 0 -1.477 0.793 -1.656 0.754 c -0.18 -0.043 0.625 -1.031 0.625 -1.031 l -1.438 0.09 l -0.906 -0.75 l -0.91 0.621 c 0 0 -1.215 0.094 -1.527 0.094 c -0.316 0 -0.723 0.563 -0.723 0.563 l -2.469 -0.09 l -4.25 0.188 l -1.121 0.965 l -0.281 0.035 l -3.215 -0.223 l -2.219 0.223 l -0.781 -0.379 l 0.031 -0.063 c 0 0 -0.652 -1.32 -0.652 -1.5 c 0 -0.176 -0.5 -0.621 -0.5 -0.621 m 0.332 3.188 l 1.348 0.438 l -1.656 0 l -0.656 -0.344 m 0.969 -0.094" fill="#f9f9f9" stroke="none" fill-rule="nonzero" fill-opacity="0.667"/></g></g></g><g><path d="m 20 4 -7.313 3.03 -5.656 5.656 -3.03 7.313 0 8 3.03 7.313 5.656 5.656 7.313 3.03 8 0 7.313 -3.03 5.656 -5.656 3.03 -7.313 0 -8 -3.03 -7.313 -5.656 -5.656 -7.313 -3.03 -8 0 z" clip-path="url(#clipPath4313)" transform="matrix(0,1,-1,0,48,0)" opacity="0.3" stroke-opacity="1" stroke-dasharray="none" visibility="visible" fill="none" display="inline" stroke="url(#linearGradient4375)" color="#000" stroke-width="1" stroke-miterlimit="4"/><path d="m 24 2.344 -4 1.656 -4.281 0 -3.03 3.03 l -4 1.656 -1.656 4 l -3.03 3.03 0 4.281 -1.656 4 1.656 4 l 0 4.281 3.03 3.03 1.656 4 4 1.656 l 3.03 3.03 4.281 0 4 1.656 4 -1.656 l 4.281 0 3.03 -3.03 4 -1.656 1.656 -4 l 3.03 -3.03 0 -4.281 1.656 -4 -1.656 -4 l 0 -4.281 -3.03 -3.03 -1.656 -4 -4 -1.656 l -3.03 -3.03 -4.281 0 -4 -1.656 z" clip-path="url(#clipPath4329)" opacity="0.2" stroke-opacity="1" visibility="visible" fill="none" display="inline" stroke="#000" color="#000" stroke-width="2"/></g></svg>