<svg viewBox="0 0 48 48" xmlns:xlink="http://www.w3.org/1999/xlink"><defs><clipPath clipPathUnits="userSpaceOnUse" id="clipPath4313"><path d="m 20 4 -7.313 3.03 -5.656 5.656 -3.03 7.313 0 8 3.03 7.313 5.656 5.656 7.313 3.03 8 0 7.313 -3.03 5.656 -5.656 3.03 -7.313 0 -8 -3.03 -7.313 -5.656 -5.656 -7.313 -3.03 -8 0 z"/></clipPath><clipPath clipPathUnits="userSpaceOnUse" id="clipPath4329"><path d="m 24 2.344 -4 1.656 -4.281 0 -3.03 3.03 l -4 1.656 -1.656 4 l -3.03 3.03 0 4.281 -1.656 4 1.656 4 l 0 4.281 3.03 3.03 1.656 4 4 1.656 l 3.03 3.03 4.281 0 4 1.656 4 -1.656 l 4.281 0 3.03 -3.03 4 -1.656 1.656 -4 l 3.03 -3.03 0 -4.281 1.656 -4 -1.656 -4 l 0 -4.281 -3.03 -3.03 -1.656 -4 -4 -1.656 l -3.03 -3.03 -4.281 0 -4 -1.656 z"/></clipPath><clipPath id="clipPath-623986279"><path d="m 24 2.344 l -4 1.656 l -4.281 0 l -3.03 3.03 l -4 1.656 l -1.656 4 l -3.03 3.03 l 0 4.281 l -1.656 4 l 1.656 4 l 0 4.281 l 3.03 3.03 l 1.656 4 l 4 1.656 l 3.03 3.03 l 4.281 0 l 4 1.656 l 4 -1.656 l 4.281 0 l 3.03 -3.03 l 4 -1.656 l 1.656 -4 l 3.03 -3.03 l 0 -4.281 l 1.656 -4 l -1.656 -4 l 0 -4.281 l -3.03 -3.03 l -1.656 -4 l -4 -1.656 l -3.03 -3.03 l -4.281 0 l -4 -1.656 z"/></clipPath><clipPath id="clipPath-629952219"><path d="m 24 2.344 l -4 1.656 l -4.281 0 l -3.03 3.03 l -4 1.656 l -1.656 4 l -3.03 3.03 l 0 4.281 l -1.656 4 l 1.656 4 l 0 4.281 l 3.03 3.03 l 1.656 4 l 4 1.656 l 3.03 3.03 l 4.281 0 l 4 1.656 l 4 -1.656 l 4.281 0 l 3.03 -3.03 l 4 -1.656 l 1.656 -4 l 3.03 -3.03 l 0 -4.281 l 1.656 -4 l -1.656 -4 l 0 -4.281 l -3.03 -3.03 l -1.656 -4 l -4 -1.656 l -3.03 -3.03 l -4.281 0 l -4 -1.656 z"/></clipPath><linearGradient id="linearGradient4317"><stop stop-color="#fff" stop-opacity="1"/><stop offset="1" stop-color="#fff" stop-opacity="0"/></linearGradient><clipPath clipPathUnits="userSpaceOnUse" id="clipPath4313"><path d="m 20 4 -7.313 3.03 -5.656 5.656 -3.03 7.313 0 8 3.03 7.313 5.656 5.656 7.313 3.03 8 0 7.313 -3.03 5.656 -5.656 3.03 -7.313 0 -8 -3.03 -7.313 -5.656 -5.656 -7.313 -3.03 -8 0 z"/></clipPath><linearGradient x2="44" x1="4" gradientUnits="userSpaceOnUse" id="linearGradient4375" xlink:href="#linearGradient4317"/><clipPath clipPathUnits="userSpaceOnUse" id="clipPath4329"><path d="m 24 2.344 -4 1.656 -4.281 0 -3.03 3.03 l -4 1.656 -1.656 4 l -3.03 3.03 0 4.281 -1.656 4 1.656 4 l 0 4.281 3.03 3.03 1.656 4 4 1.656 l 3.03 3.03 4.281 0 4 1.656 4 -1.656 l 4.281 0 3.03 -3.03 4 -1.656 1.656 -4 l 3.03 -3.03 0 -4.281 1.656 -4 -1.656 -4 l 0 -4.281 -3.03 -3.03 -1.656 -4 -4 -1.656 l -3.03 -3.03 -4.281 0 -4 -1.656 z"/></clipPath><path id="SVGCleanerId_0" d="m 24 2.344 l -4 1.656 l -4.281 0 l -3.03 3.03 l -4 1.656 l -1.656 4 l -3.03 3.03 l 0 4.281 l -1.656 4 l 1.656 4 l 0 4.281 l 3.03 3.03 l 1.656 4 l 4 1.656 l 3.03 3.03 l 4.281 0 l 4 1.656 l 4 -1.656 l 4.281 0 l 3.03 -3.03 l 4 -1.656 l 1.656 -4 l 3.03 -3.03 l 0 -4.281 l 1.656 -4 l -1.656 -4 l 0 -4.281 l -3.03 -3.03 l -1.656 -4 l -4 -1.656 l -3.03 -3.03 l -4.281 0 l -4 -1.656 z" visibility="visible" display="inline" fill-rule="nonzero" color="#000" fill-opacity="1"/></defs><g><path d="m 2.563 24.5 l -0.219 0.5 l 1.656 4 l 0 -1 l -1.438 -3.5 z m 42.875 0 l -1.438 3.5 l 0 1 l 1.656 -4 l -0.219 -0.5 z m -41.44 7.781 l 0 1 l 3.03 3.03 l 1.656 4 l 4 1.656 l 3.03 3.03 l 4.281 0 l 4 1.656 l 4 -1.656 l 4.281 0 l 3.03 -3.03 l 4 -1.656 l 1.656 -4 l 3.03 -3.03 l 0 -1 l -3.03 3.03 l -1.656 4 l -4 1.656 l -3.03 3.03 l -4.281 0 l -4 1.656 l -4 -1.656 l -4.281 0 l -3.03 -3.03 l -4 -1.656 l -1.656 -4 l -3.03 -3.03 z" opacity="0.3" visibility="visible" fill="#000" display="inline" fill-rule="nonzero" stroke="none" fill-opacity="1" color="#000"/></g><g><use fill="#6e90bb" stroke="none" xlink:href="#SVGCleanerId_0"/><path d="m 24 2.344 l -4 1.656 l 8 0 l -4 -1.656 z m 4 1.656 l 7.313 3.03 l -3.03 -3.03 l -4.281 0 z m 7.313 3.03 l 5.656 5.656 l -1.656 -4 l -4 -1.656 z m 5.656 5.656 l 3.03 7.313 l 0 -4.281 l -3.03 -3.03 z m 3.03 7.313 l 0 8 l 1.656 -4 l -1.656 -4 z m 0 8 l -3.03 7.313 l 3.03 -3.03 l 0 -4.281 z m -3.03 7.313 l -5.656 5.656 l 4 -1.656 l 1.656 -4 z m -5.656 5.656 l -7.313 3.03 l 4.281 0 l 3.03 -3.03 z m -7.313 3.03 l -8 0 l 4 1.656 l 4 -1.656 z m -8 0 l -7.313 -3.03 l 3.03 3.03 l 4.281 0 z m -7.313 -3.03 l -5.656 -5.656 l 1.656 4 l 4 1.656 z m -5.656 -5.656 l -3.03 -7.313 l 0 4.281 l 3.03 3.03 z m -3.03 -7.313 l 0 -8 l -1.656 4 l 1.656 4 z m 0 -8 l 3.03 -7.313 l -3.03 3.03 l 0 4.281 z m 3.03 -7.313 l 5.656 -5.656 l -4 1.656 l -1.656 4 z m 5.656 -5.656 l 7.313 -3.03 l -4.281 0 l -3.03 3.03 z" opacity="0.05" visibility="visible" fill="#6e90bb" display="inline" fill-rule="nonzero" stroke="none" fill-opacity="1" color="#000"/></g><g><use opacity="0.05" stroke-opacity="1" stroke-dasharray="none" fill="#000" stroke="#000" stroke-width="2" stroke-miterlimit="4" xlink:href="#SVGCleanerId_0"/><use opacity="0.1" stroke-opacity="1" stroke-dasharray="none" fill="#000" stroke="#000" stroke-width="1" stroke-miterlimit="4" xlink:href="#SVGCleanerId_0"/></g><g><g clip-path="url(#clipPath-623986279)"><g transform="translate(0,1)"><g opacity="0.1"><!-- color: #6e90bb --><g><path d="m 16.889 294.2 c -0.521 -1.265 -1.213 -2.378 -1.228 -4.441 c -0.016 -2.132 1.813 -3.513 3.259 -3.513 c 1.749 0 3.29 1.478 3.37 2.7 c 0.074 1.105 -0.319 2.711 -2.348 2.701 c -0.968 -0.008 -1.975 -0.849 -1.98 -2.104 c -0.008 -1.351 1.687 -1.484 2.116 -1.141 c 0.165 0.135 0.16 0.399 0.013 0.351 c -0.912 -0.297 -1.477 0.29 -1.433 0.871 c 0.056 0.793 0.526 1.263 1.366 1.301 c 1.213 0.059 1.552 -1.12 1.521 -1.6 c -0.039 -0.582 -0.545 -1.779 -2.124 -1.997 c -0.745 -0.104 -1.364 0.119 -1.814 0.556 c -0.452 0.44 -0.706 0.892 -0.742 1.634 c -0.039 0.767 0.128 1.217 0.588 2.225 c 0.164 0.36 0.622 1.085 0.976 1.812 l -1.539 0.642 m 0 0.003" transform="matrix(2.385496,0,0,2.368665,-25.777381,-663.452452)" stroke-opacity="1" fill="#000" fill-rule="nonzero" stroke="#6e8db2" stroke-linejoin="miter" fill-opacity="1" stroke-linecap="butt" stroke-width="0.489" stroke-miterlimit="4"/><path d="m 24.879 286.25 c 0.522 1.263 1.215 2.376 1.23 4.441 c 0.016 2.132 -1.813 3.511 -3.259 3.511 c -1.75 0 -3.29 -1.478 -3.37 -2.701 c -0.074 -1.105 0.319 -2.711 2.348 -2.7 c 0.969 0.007 1.976 0.849 1.981 2.103 c 0.007 1.352 -1.69 1.486 -2.117 1.141 c -0.165 -0.134 -0.16 -0.399 -0.015 -0.351 c 0.914 0.297 1.477 -0.289 1.436 -0.871 c -0.057 -0.792 -0.526 -1.262 -1.367 -1.301 c -1.213 -0.058 -1.552 1.121 -1.521 1.601 c 0.038 0.582 0.545 1.779 2.124 1.997 c 0.745 0.104 1.364 -0.119 1.814 -0.557 c 0.45 -0.439 0.706 -0.891 0.742 -1.633 c 0.038 -0.767 -0.129 -1.217 -0.588 -2.225 c -0.164 -0.361 -0.622 -1.085 -0.978 -1.812 l 1.541 -0.643 m -0.002 0" transform="matrix(2.385496,0,0,2.368665,-25.777381,-663.452452)" stroke-opacity="1" fill="#000" fill-rule="nonzero" stroke="#6e8db2" stroke-linejoin="miter" fill-opacity="1" stroke-linecap="butt" stroke-width="0.417" stroke-miterlimit="4"/></g></g></g></g></g><g><g clip-path="url(#clipPath-629952219)"><!-- color: #6e90bb --><g><path d="m 16.889 294.2 c -0.521 -1.265 -1.213 -2.378 -1.228 -4.441 c -0.016 -2.132 1.813 -3.513 3.259 -3.513 c 1.749 0 3.29 1.478 3.37 2.7 c 0.074 1.105 -0.319 2.711 -2.348 2.701 c -0.968 -0.008 -1.975 -0.849 -1.98 -2.104 c -0.008 -1.351 1.687 -1.484 2.116 -1.141 c 0.165 0.135 0.16 0.399 0.013 0.351 c -0.912 -0.297 -1.477 0.29 -1.433 0.871 c 0.056 0.793 0.526 1.263 1.366 1.301 c 1.213 0.059 1.552 -1.12 1.521 -1.6 c -0.039 -0.582 -0.545 -1.779 -2.124 -1.997 c -0.745 -0.104 -1.364 0.119 -1.814 0.556 c -0.452 0.44 -0.706 0.892 -0.742 1.634 c -0.039 0.767 0.128 1.217 0.588 2.225 c 0.164 0.36 0.622 1.085 0.976 1.812 l -1.539 0.642 m 0 0.003" transform="matrix(2.385496,0,0,2.368665,-25.777381,-663.452452)" stroke-opacity="1" fill="#fff" fill-rule="nonzero" stroke="#6e8db2" stroke-linejoin="miter" fill-opacity="1" stroke-linecap="butt" stroke-width="0.489" stroke-miterlimit="4"/><path d="m 24.879 286.25 c 0.522 1.263 1.215 2.376 1.23 4.441 c 0.016 2.132 -1.813 3.511 -3.259 3.511 c -1.75 0 -3.29 -1.478 -3.37 -2.701 c -0.074 -1.105 0.319 -2.711 2.348 -2.7 c 0.969 0.007 1.976 0.849 1.981 2.103 c 0.007 1.352 -1.69 1.486 -2.117 1.141 c -0.165 -0.134 -0.16 -0.399 -0.015 -0.351 c 0.914 0.297 1.477 -0.289 1.436 -0.871 c -0.057 -0.792 -0.526 -1.262 -1.367 -1.301 c -1.213 -0.058 -1.552 1.121 -1.521 1.601 c 0.038 0.582 0.545 1.779 2.124 1.997 c 0.745 0.104 1.364 -0.119 1.814 -0.557 c 0.45 -0.439 0.706 -0.891 0.742 -1.633 c 0.038 -0.767 -0.129 -1.217 -0.588 -2.225 c -0.164 -0.361 -0.622 -1.085 -0.978 -1.812 l 1.541 -0.643 m -0.002 0" transform="matrix(2.385496,0,0,2.368665,-25.777381,-663.452452)" stroke-opacity="1" fill="#a9c1e3" fill-rule="nonzero" stroke="#6e8db2" stroke-linejoin="miter" fill-opacity="1" stroke-linecap="butt" stroke-width="0.417" stroke-miterlimit="4"/></g></g></g><g><path d="m 20 4 -7.313 3.03 -5.656 5.656 -3.03 7.313 0 8 3.03 7.313 5.656 5.656 7.313 3.03 8 0 7.313 -3.03 5.656 -5.656 3.03 -7.313 0 -8 -3.03 -7.313 -5.656 -5.656 -7.313 -3.03 -8 0 z" clip-path="url(#clipPath4313)" transform="matrix(0,1,-1,0,48,0)" opacity="0.3" stroke-opacity="1" stroke-dasharray="none" visibility="visible" fill="none" display="inline" stroke="url(#linearGradient4375)" color="#000" stroke-width="1" stroke-miterlimit="4"/><path d="m 24 2.344 -4 1.656 -4.281 0 -3.03 3.03 l -4 1.656 -1.656 4 l -3.03 3.03 0 4.281 -1.656 4 1.656 4 l 0 4.281 3.03 3.03 1.656 4 4 1.656 l 3.03 3.03 4.281 0 4 1.656 4 -1.656 l 4.281 0 3.03 -3.03 4 -1.656 1.656 -4 l 3.03 -3.03 0 -4.281 1.656 -4 -1.656 -4 l 0 -4.281 -3.03 -3.03 -1.656 -4 -4 -1.656 l -3.03 -3.03 -4.281 0 -4 -1.656 z" clip-path="url(#clipPath4329)" opacity="0.2" stroke-opacity="1" visibility="visible" fill="none" display="inline" stroke="#000" color="#000" stroke-width="2"/></g></svg>