<svg viewBox="0 0 48 48" xmlns:xlink="http://www.w3.org/1999/xlink"><defs><clipPath clipPathUnits="userSpaceOnUse" id="clipPath4313"><path d="m 20 4 -7.313 3.03 -5.656 5.656 -3.03 7.313 0 8 3.03 7.313 5.656 5.656 7.313 3.03 8 0 7.313 -3.03 5.656 -5.656 3.03 -7.313 0 -8 -3.03 -7.313 -5.656 -5.656 -7.313 -3.03 -8 0 z"/></clipPath><clipPath clipPathUnits="userSpaceOnUse" id="clipPath4329"><path d="m 24 2.344 -4 1.656 -4.281 0 -3.03 3.03 l -4 1.656 -1.656 4 l -3.03 3.03 0 4.281 -1.656 4 1.656 4 l 0 4.281 3.03 3.03 1.656 4 4 1.656 l 3.03 3.03 4.281 0 4 1.656 4 -1.656 l 4.281 0 3.03 -3.03 4 -1.656 1.656 -4 l 3.03 -3.03 0 -4.281 1.656 -4 -1.656 -4 l 0 -4.281 -3.03 -3.03 -1.656 -4 -4 -1.656 l -3.03 -3.03 -4.281 0 -4 -1.656 z"/></clipPath><clipPath id="clipPath-296397061"><path d="m 24 2.344 l -4 1.656 l -4.281 0 l -3.03 3.03 l -4 1.656 l -1.656 4 l -3.03 3.03 l 0 4.281 l -1.656 4 l 1.656 4 l 0 4.281 l 3.03 3.03 l 1.656 4 l 4 1.656 l 3.03 3.03 l 4.281 0 l 4 1.656 l 4 -1.656 l 4.281 0 l 3.03 -3.03 l 4 -1.656 l 1.656 -4 l 3.03 -3.03 l 0 -4.281 l 1.656 -4 l -1.656 -4 l 0 -4.281 l -3.03 -3.03 l -1.656 -4 l -4 -1.656 l -3.03 -3.03 l -4.281 0 l -4 -1.656 z"/></clipPath><clipPath id="clipPath-302275351"><path d="m 24 2.344 l -4 1.656 l -4.281 0 l -3.03 3.03 l -4 1.656 l -1.656 4 l -3.03 3.03 l 0 4.281 l -1.656 4 l 1.656 4 l 0 4.281 l 3.03 3.03 l 1.656 4 l 4 1.656 l 3.03 3.03 l 4.281 0 l 4 1.656 l 4 -1.656 l 4.281 0 l 3.03 -3.03 l 4 -1.656 l 1.656 -4 l 3.03 -3.03 l 0 -4.281 l 1.656 -4 l -1.656 -4 l 0 -4.281 l -3.03 -3.03 l -1.656 -4 l -4 -1.656 l -3.03 -3.03 l -4.281 0 l -4 -1.656 z"/></clipPath><linearGradient id="linearGradient4317"><stop stop-color="#fff" stop-opacity="1"/><stop offset="1" stop-color="#fff" stop-opacity="0"/></linearGradient><clipPath clipPathUnits="userSpaceOnUse" id="clipPath4313"><path d="m 20 4 -7.313 3.03 -5.656 5.656 -3.03 7.313 0 8 3.03 7.313 5.656 5.656 7.313 3.03 8 0 7.313 -3.03 5.656 -5.656 3.03 -7.313 0 -8 -3.03 -7.313 -5.656 -5.656 -7.313 -3.03 -8 0 z"/></clipPath><linearGradient x2="44" x1="4" gradientUnits="userSpaceOnUse" id="linearGradient4375" xlink:href="#linearGradient4317"/><clipPath clipPathUnits="userSpaceOnUse" id="clipPath4329"><path d="m 24 2.344 -4 1.656 -4.281 0 -3.03 3.03 l -4 1.656 -1.656 4 l -3.03 3.03 0 4.281 -1.656 4 1.656 4 l 0 4.281 3.03 3.03 1.656 4 4 1.656 l 3.03 3.03 4.281 0 4 1.656 4 -1.656 l 4.281 0 3.03 -3.03 4 -1.656 1.656 -4 l 3.03 -3.03 0 -4.281 1.656 -4 -1.656 -4 l 0 -4.281 -3.03 -3.03 -1.656 -4 -4 -1.656 l -3.03 -3.03 -4.281 0 -4 -1.656 z"/></clipPath><path id="SVGCleanerId_0" d="m 24 2.344 l -4 1.656 l -4.281 0 l -3.03 3.03 l -4 1.656 l -1.656 4 l -3.03 3.03 l 0 4.281 l -1.656 4 l 1.656 4 l 0 4.281 l 3.03 3.03 l 1.656 4 l 4 1.656 l 3.03 3.03 l 4.281 0 l 4 1.656 l 4 -1.656 l 4.281 0 l 3.03 -3.03 l 4 -1.656 l 1.656 -4 l 3.03 -3.03 l 0 -4.281 l 1.656 -4 l -1.656 -4 l 0 -4.281 l -3.03 -3.03 l -1.656 -4 l -4 -1.656 l -3.03 -3.03 l -4.281 0 l -4 -1.656 z" visibility="visible" display="inline" fill-rule="nonzero" color="#000" fill-opacity="1"/></defs><g><path d="m 2.563 24.5 l -0.219 0.5 l 1.656 4 l 0 -1 l -1.438 -3.5 z m 42.875 0 l -1.438 3.5 l 0 1 l 1.656 -4 l -0.219 -0.5 z m -41.44 7.781 l 0 1 l 3.03 3.03 l 1.656 4 l 4 1.656 l 3.03 3.03 l 4.281 0 l 4 1.656 l 4 -1.656 l 4.281 0 l 3.03 -3.03 l 4 -1.656 l 1.656 -4 l 3.03 -3.03 l 0 -1 l -3.03 3.03 l -1.656 4 l -4 1.656 l -3.03 3.03 l -4.281 0 l -4 1.656 l -4 -1.656 l -4.281 0 l -3.03 -3.03 l -4 -1.656 l -1.656 -4 l -3.03 -3.03 z" opacity="0.3" visibility="visible" fill="#000" display="inline" fill-rule="nonzero" stroke="none" fill-opacity="1" color="#000"/></g><g><use fill="#2c7ea8" stroke="none" xlink:href="#SVGCleanerId_0"/><path d="m 24 2.344 l -4 1.656 l 8 0 l -4 -1.656 z m 4 1.656 l 7.313 3.03 l -3.03 -3.03 l -4.281 0 z m 7.313 3.03 l 5.656 5.656 l -1.656 -4 l -4 -1.656 z m 5.656 5.656 l 3.03 7.313 l 0 -4.281 l -3.03 -3.03 z m 3.03 7.313 l 0 8 l 1.656 -4 l -1.656 -4 z m 0 8 l -3.03 7.313 l 3.03 -3.03 l 0 -4.281 z m -3.03 7.313 l -5.656 5.656 l 4 -1.656 l 1.656 -4 z m -5.656 5.656 l -7.313 3.03 l 4.281 0 l 3.03 -3.03 z m -7.313 3.03 l -8 0 l 4 1.656 l 4 -1.656 z m -8 0 l -7.313 -3.03 l 3.03 3.03 l 4.281 0 z m -7.313 -3.03 l -5.656 -5.656 l 1.656 4 l 4 1.656 z m -5.656 -5.656 l -3.03 -7.313 l 0 4.281 l 3.03 3.03 z m -3.03 -7.313 l 0 -8 l -1.656 4 l 1.656 4 z m 0 -8 l 3.03 -7.313 l -3.03 3.03 l 0 4.281 z m 3.03 -7.313 l 5.656 -5.656 l -4 1.656 l -1.656 4 z m 5.656 -5.656 l 7.313 -3.03 l -4.281 0 l -3.03 3.03 z" opacity="0.05" visibility="visible" fill="#2c7ea8" display="inline" fill-rule="nonzero" stroke="none" fill-opacity="1" color="#000"/></g><g><use opacity="0.05" stroke-opacity="1" stroke-dasharray="none" fill="#000" stroke="#000" stroke-width="2" stroke-miterlimit="4" xlink:href="#SVGCleanerId_0"/><use opacity="0.1" stroke-opacity="1" stroke-dasharray="none" fill="#000" stroke="#000" stroke-width="1" stroke-miterlimit="4" xlink:href="#SVGCleanerId_0"/></g><g><g clip-path="url(#clipPath-296397061)"><g transform="translate(0,1)"><g opacity="0.1"><!-- color: #2c7ea8 --><g><path d="m 20.395 12 c -0.07 0 -0.148 0.023 -0.219 0.074 c -0.074 0.051 -0.133 0.145 -0.145 0.223 c -0.027 0.156 0.008 0.23 0.074 0.363 c 0.309 0.555 0.617 0.984 0.734 1.316 c 0.203 0.457 0.199 0.879 0.145 1.164 l -0.371 1.75 c -1.855 0.426 -3.645 0.859 -5.438 1.461 c -0.348 0.109 -0.617 0.223 -0.883 0.363 c -0.023 -0.004 -0.051 -0.004 -0.074 0 c -0.094 0.059 -0.098 0.141 -0.148 0.219 c -0.023 0.043 -0.066 0.09 -0.074 0.148 c -0.008 0.055 0.02 0.152 0.074 0.219 c 0.156 0.211 0.367 0.301 0.664 0.438 c 0.293 0.137 0.633 0.273 0.883 0.367 c 1.246 0.449 2.848 0.813 4.117 0.949 c -0.344 1.527 -0.672 3.035 -1.18 4.52 c -0.121 0.363 -0.277 0.742 -0.438 1.098 c -0.461 1.02 -1.051 1.949 -1.617 2.844 c -0.602 0.836 -1.105 1.652 -1.762 2.406 c -0.125 0.129 -0.32 0.242 -0.441 0.363 c -0.059 0.066 -0.102 0.164 -0.148 0.223 c -0.02 0.027 -0.055 0.039 -0.074 0.074 c -0.02 0.031 -0.008 0.051 0 0.145 c -0.004 0.023 -0.004 0.051 0 0.074 c 0.016 0.027 0.043 0.055 0.074 0.074 c 0.02 0.027 0.043 0.055 0.074 0.074 c 0.023 0.004 0.051 0.004 0.074 0 c 0.133 0.02 0.242 -0.031 0.367 -0.074 c 0.129 -0.039 0.219 -0.074 0.371 -0.145 c 0.305 -0.145 0.695 -0.301 1.027 -0.512 c 0.473 -0.297 0.828 -0.602 1.102 -0.801 c 0.484 -0.352 1.574 -1.355 2.133 -2.039 c 0.641 -0.723 1.32 -1.5 1.84 -2.48 c 0.008 -0.02 -0.012 -0.055 0 -0.074 c 0.035 -0.063 0.238 -0.449 0.293 -0.586 c 0.109 -0.273 0.184 -0.547 0.219 -0.656 l 1.617 -4.887 l 5.66 -1.313 c -0.141 1.18 -0.297 2.32 -0.438 3.5 c -0.109 0.973 -0.184 1.363 -0.293 2.406 c -0.004 0.031 0.004 0.039 0 0.074 c -0.066 0.32 -0.246 1.223 -0.297 1.461 c -0.375 1.809 -0.777 3.453 -1.613 4.887 c -0.203 0.277 -0.434 0.57 -0.664 0.801 c -0.23 -0.113 -0.555 -0.27 -1.027 -0.293 c -0.008 0 -0.051 0 -0.074 0 c -0.023 -0.004 -0.051 -0.004 -0.074 0 c 0 0 -0.074 0.07 -0.074 0.074 c -0.027 0.02 -0.059 0.043 -0.074 0.074 c -0.031 0.168 0.023 0.297 0.074 0.441 c 0.051 0.145 0.09 0.305 0.145 0.438 c 0.426 0.953 0.926 1.781 1.398 2.625 c 0.016 0.031 0.039 0.055 0.074 0.074 c 0.016 0.031 0.039 0.055 0.074 0.074 c 0.023 0.004 0.047 0.004 0.074 0 c 0.023 0.004 0.047 0.004 0.074 0 c 0.027 -0.016 0.055 -0.039 0.074 -0.074 c 0.703 -0.66 1.535 -1.73 2.133 -2.625 c 1.172 -1.746 2.164 -3.695 2.867 -5.906 c 0.105 -0.344 0.191 -0.691 0.293 -1.094 l 2.203 -8.387 c 0.094 -0.371 0.203 -0.785 0.219 -1.098 c 0.004 -0.023 0.004 -0.055 0 -0.074 c -0.043 -0.105 -0.145 -0.16 -0.219 -0.227 c -0.074 -0.051 -0.125 -0.098 -0.219 -0.145 c -0.191 -0.094 -0.441 -0.211 -0.664 -0.289 c -1.059 -0.352 -2.207 -0.676 -3.453 -0.949 c -0.137 -0.059 -0.223 -0.082 -0.367 -0.078 c -0.145 0.016 -0.355 0.043 -0.516 0.078 c -0.32 0.066 -0.648 0.168 -0.883 0.227 l -2.941 0.648 c 0.125 -0.387 0.332 -0.961 0.145 -1.676 c -0.25 -0.816 -0.898 -1.293 -1.613 -1.531 c -0.613 -0.207 -1.211 -0.391 -1.84 -0.586 c -0.102 -0.023 -0.563 -0.188 -1.027 -0.219 m -0.008 -0.023" fill="#000" stroke="none" fill-rule="nonzero" fill-opacity="1"/></g></g></g></g></g><g><g clip-path="url(#clipPath-302275351)"><!-- color: #2c7ea8 --><g><path d="m 20.395 12 c -0.07 0 -0.148 0.023 -0.219 0.074 c -0.074 0.051 -0.133 0.145 -0.145 0.223 c -0.027 0.156 0.008 0.23 0.074 0.363 c 0.309 0.555 0.617 0.984 0.734 1.316 c 0.203 0.457 0.199 0.879 0.145 1.164 l -0.371 1.75 c -1.855 0.426 -3.645 0.859 -5.438 1.461 c -0.348 0.109 -0.617 0.223 -0.883 0.363 c -0.023 -0.004 -0.051 -0.004 -0.074 0 c -0.094 0.059 -0.098 0.141 -0.148 0.219 c -0.023 0.043 -0.066 0.09 -0.074 0.148 c -0.008 0.055 0.02 0.152 0.074 0.219 c 0.156 0.211 0.367 0.301 0.664 0.438 c 0.293 0.137 0.633 0.273 0.883 0.367 c 1.246 0.449 2.848 0.813 4.117 0.949 c -0.344 1.527 -0.672 3.035 -1.18 4.52 c -0.121 0.363 -0.277 0.742 -0.438 1.098 c -0.461 1.02 -1.051 1.949 -1.617 2.844 c -0.602 0.836 -1.105 1.652 -1.762 2.406 c -0.125 0.129 -0.32 0.242 -0.441 0.363 c -0.059 0.066 -0.102 0.164 -0.148 0.223 c -0.02 0.027 -0.055 0.039 -0.074 0.074 c -0.02 0.031 -0.008 0.051 0 0.145 c -0.004 0.023 -0.004 0.051 0 0.074 c 0.016 0.027 0.043 0.055 0.074 0.074 c 0.02 0.027 0.043 0.055 0.074 0.074 c 0.023 0.004 0.051 0.004 0.074 0 c 0.133 0.02 0.242 -0.031 0.367 -0.074 c 0.129 -0.039 0.219 -0.074 0.371 -0.145 c 0.305 -0.145 0.695 -0.301 1.027 -0.512 c 0.473 -0.297 0.828 -0.602 1.102 -0.801 c 0.484 -0.352 1.574 -1.355 2.133 -2.039 c 0.641 -0.723 1.32 -1.5 1.84 -2.48 c 0.008 -0.02 -0.012 -0.055 0 -0.074 c 0.035 -0.063 0.238 -0.449 0.293 -0.586 c 0.109 -0.273 0.184 -0.547 0.219 -0.656 l 1.617 -4.887 l 5.66 -1.313 c -0.141 1.18 -0.297 2.32 -0.438 3.5 c -0.109 0.973 -0.184 1.363 -0.293 2.406 c -0.004 0.031 0.004 0.039 0 0.074 c -0.066 0.32 -0.246 1.223 -0.297 1.461 c -0.375 1.809 -0.777 3.453 -1.613 4.887 c -0.203 0.277 -0.434 0.57 -0.664 0.801 c -0.23 -0.113 -0.555 -0.27 -1.027 -0.293 c -0.008 0 -0.051 0 -0.074 0 c -0.023 -0.004 -0.051 -0.004 -0.074 0 c 0 0 -0.074 0.07 -0.074 0.074 c -0.027 0.02 -0.059 0.043 -0.074 0.074 c -0.031 0.168 0.023 0.297 0.074 0.441 c 0.051 0.145 0.09 0.305 0.145 0.438 c 0.426 0.953 0.926 1.781 1.398 2.625 c 0.016 0.031 0.039 0.055 0.074 0.074 c 0.016 0.031 0.039 0.055 0.074 0.074 c 0.023 0.004 0.047 0.004 0.074 0 c 0.023 0.004 0.047 0.004 0.074 0 c 0.027 -0.016 0.055 -0.039 0.074 -0.074 c 0.703 -0.66 1.535 -1.73 2.133 -2.625 c 1.172 -1.746 2.164 -3.695 2.867 -5.906 c 0.105 -0.344 0.191 -0.691 0.293 -1.094 l 2.203 -8.387 c 0.094 -0.371 0.203 -0.785 0.219 -1.098 c 0.004 -0.023 0.004 -0.055 0 -0.074 c -0.043 -0.105 -0.145 -0.16 -0.219 -0.227 c -0.074 -0.051 -0.125 -0.098 -0.219 -0.145 c -0.191 -0.094 -0.441 -0.211 -0.664 -0.289 c -1.059 -0.352 -2.207 -0.676 -3.453 -0.949 c -0.137 -0.059 -0.223 -0.082 -0.367 -0.078 c -0.145 0.016 -0.355 0.043 -0.516 0.078 c -0.32 0.066 -0.648 0.168 -0.883 0.227 l -2.941 0.648 c 0.125 -0.387 0.332 -0.961 0.145 -1.676 c -0.25 -0.816 -0.898 -1.293 -1.613 -1.531 c -0.613 -0.207 -1.211 -0.391 -1.84 -0.586 c -0.102 -0.023 -0.563 -0.188 -1.027 -0.219 m -0.008 -0.023" fill="#f9f9f9" stroke="none" fill-rule="nonzero" fill-opacity="1"/></g></g></g><g><path d="m 20 4 -7.313 3.03 -5.656 5.656 -3.03 7.313 0 8 3.03 7.313 5.656 5.656 7.313 3.03 8 0 7.313 -3.03 5.656 -5.656 3.03 -7.313 0 -8 -3.03 -7.313 -5.656 -5.656 -7.313 -3.03 -8 0 z" clip-path="url(#clipPath4313)" transform="matrix(0,1,-1,0,48,0)" opacity="0.3" stroke-opacity="1" stroke-dasharray="none" visibility="visible" fill="none" display="inline" stroke="url(#linearGradient4375)" color="#000" stroke-width="1" stroke-miterlimit="4"/><path d="m 24 2.344 -4 1.656 -4.281 0 -3.03 3.03 l -4 1.656 -1.656 4 l -3.03 3.03 0 4.281 -1.656 4 1.656 4 l 0 4.281 3.03 3.03 1.656 4 4 1.656 l 3.03 3.03 4.281 0 4 1.656 4 -1.656 l 4.281 0 3.03 -3.03 4 -1.656 1.656 -4 l 3.03 -3.03 0 -4.281 1.656 -4 -1.656 -4 l 0 -4.281 -3.03 -3.03 -1.656 -4 -4 -1.656 l -3.03 -3.03 -4.281 0 -4 -1.656 z" clip-path="url(#clipPath4329)" opacity="0.2" stroke-opacity="1" visibility="visible" fill="none" display="inline" stroke="#000" color="#000" stroke-width="2"/></g></svg>