<svg viewBox="0 0 48 48" xmlns:xlink="http://www.w3.org/1999/xlink"><defs><clipPath clipPathUnits="userSpaceOnUse" id="clipPath4313"><path d="m 20 4 -7.313 3.03 -5.656 5.656 -3.03 7.313 0 8 3.03 7.313 5.656 5.656 7.313 3.03 8 0 7.313 -3.03 5.656 -5.656 3.03 -7.313 0 -8 -3.03 -7.313 -5.656 -5.656 -7.313 -3.03 -8 0 z"/></clipPath><clipPath clipPathUnits="userSpaceOnUse" id="clipPath4329"><path d="m 24 2.344 -4 1.656 -4.281 0 -3.03 3.03 l -4 1.656 -1.656 4 l -3.03 3.03 0 4.281 -1.656 4 1.656 4 l 0 4.281 3.03 3.03 1.656 4 4 1.656 l 3.03 3.03 4.281 0 4 1.656 4 -1.656 l 4.281 0 3.03 -3.03 4 -1.656 1.656 -4 l 3.03 -3.03 0 -4.281 1.656 -4 -1.656 -4 l 0 -4.281 -3.03 -3.03 -1.656 -4 -4 -1.656 l -3.03 -3.03 -4.281 0 -4 -1.656 z"/></clipPath><clipPath id="clipPath-663585204"><path d="m 24 2.344 l -4 1.656 l -4.281 0 l -3.03 3.03 l -4 1.656 l -1.656 4 l -3.03 3.03 l 0 4.281 l -1.656 4 l 1.656 4 l 0 4.281 l 3.03 3.03 l 1.656 4 l 4 1.656 l 3.03 3.03 l 4.281 0 l 4 1.656 l 4 -1.656 l 4.281 0 l 3.03 -3.03 l 4 -1.656 l 1.656 -4 l 3.03 -3.03 l 0 -4.281 l 1.656 -4 l -1.656 -4 l 0 -4.281 l -3.03 -3.03 l -1.656 -4 l -4 -1.656 l -3.03 -3.03 l -4.281 0 l -4 -1.656 z"/></clipPath><clipPath id="clipPath-677610556"><path d="m 24 2.344 l -4 1.656 l -4.281 0 l -3.03 3.03 l -4 1.656 l -1.656 4 l -3.03 3.03 l 0 4.281 l -1.656 4 l 1.656 4 l 0 4.281 l 3.03 3.03 l 1.656 4 l 4 1.656 l 3.03 3.03 l 4.281 0 l 4 1.656 l 4 -1.656 l 4.281 0 l 3.03 -3.03 l 4 -1.656 l 1.656 -4 l 3.03 -3.03 l 0 -4.281 l 1.656 -4 l -1.656 -4 l 0 -4.281 l -3.03 -3.03 l -1.656 -4 l -4 -1.656 l -3.03 -3.03 l -4.281 0 l -4 -1.656 z"/></clipPath><linearGradient id="linearGradient4317"><stop stop-color="#fff" stop-opacity="1"/><stop offset="1" stop-color="#fff" stop-opacity="0"/></linearGradient><clipPath clipPathUnits="userSpaceOnUse" id="clipPath4313"><path d="m 20 4 -7.313 3.03 -5.656 5.656 -3.03 7.313 0 8 3.03 7.313 5.656 5.656 7.313 3.03 8 0 7.313 -3.03 5.656 -5.656 3.03 -7.313 0 -8 -3.03 -7.313 -5.656 -5.656 -7.313 -3.03 -8 0 z"/></clipPath><linearGradient x2="44" x1="4" gradientUnits="userSpaceOnUse" id="linearGradient4375" xlink:href="#linearGradient4317"/><clipPath clipPathUnits="userSpaceOnUse" id="clipPath4329"><path d="m 24 2.344 -4 1.656 -4.281 0 -3.03 3.03 l -4 1.656 -1.656 4 l -3.03 3.03 0 4.281 -1.656 4 1.656 4 l 0 4.281 3.03 3.03 1.656 4 4 1.656 l 3.03 3.03 4.281 0 4 1.656 4 -1.656 l 4.281 0 3.03 -3.03 4 -1.656 1.656 -4 l 3.03 -3.03 0 -4.281 1.656 -4 -1.656 -4 l 0 -4.281 -3.03 -3.03 -1.656 -4 -4 -1.656 l -3.03 -3.03 -4.281 0 -4 -1.656 z"/></clipPath><path id="SVGCleanerId_0" d="m 24 2.344 l -4 1.656 l -4.281 0 l -3.03 3.03 l -4 1.656 l -1.656 4 l -3.03 3.03 l 0 4.281 l -1.656 4 l 1.656 4 l 0 4.281 l 3.03 3.03 l 1.656 4 l 4 1.656 l 3.03 3.03 l 4.281 0 l 4 1.656 l 4 -1.656 l 4.281 0 l 3.03 -3.03 l 4 -1.656 l 1.656 -4 l 3.03 -3.03 l 0 -4.281 l 1.656 -4 l -1.656 -4 l 0 -4.281 l -3.03 -3.03 l -1.656 -4 l -4 -1.656 l -3.03 -3.03 l -4.281 0 l -4 -1.656 z" visibility="visible" display="inline" fill-rule="nonzero" color="#000" fill-opacity="1"/></defs><g><path d="m 2.563 24.5 l -0.219 0.5 l 1.656 4 l 0 -1 l -1.438 -3.5 z m 42.875 0 l -1.438 3.5 l 0 1 l 1.656 -4 l -0.219 -0.5 z m -41.44 7.781 l 0 1 l 3.03 3.03 l 1.656 4 l 4 1.656 l 3.03 3.03 l 4.281 0 l 4 1.656 l 4 -1.656 l 4.281 0 l 3.03 -3.03 l 4 -1.656 l 1.656 -4 l 3.03 -3.03 l 0 -1 l -3.03 3.03 l -1.656 4 l -4 1.656 l -3.03 3.03 l -4.281 0 l -4 1.656 l -4 -1.656 l -4.281 0 l -3.03 -3.03 l -4 -1.656 l -1.656 -4 l -3.03 -3.03 z" opacity="0.3" visibility="visible" fill="#000" display="inline" fill-rule="nonzero" stroke="none" fill-opacity="1" color="#000"/></g><g><use fill="#474747" stroke="none" xlink:href="#SVGCleanerId_0"/><path d="m 24 2.344 l -4 1.656 l 8 0 l -4 -1.656 z m 4 1.656 l 7.313 3.03 l -3.03 -3.03 l -4.281 0 z m 7.313 3.03 l 5.656 5.656 l -1.656 -4 l -4 -1.656 z m 5.656 5.656 l 3.03 7.313 l 0 -4.281 l -3.03 -3.03 z m 3.03 7.313 l 0 8 l 1.656 -4 l -1.656 -4 z m 0 8 l -3.03 7.313 l 3.03 -3.03 l 0 -4.281 z m -3.03 7.313 l -5.656 5.656 l 4 -1.656 l 1.656 -4 z m -5.656 5.656 l -7.313 3.03 l 4.281 0 l 3.03 -3.03 z m -7.313 3.03 l -8 0 l 4 1.656 l 4 -1.656 z m -8 0 l -7.313 -3.03 l 3.03 3.03 l 4.281 0 z m -7.313 -3.03 l -5.656 -5.656 l 1.656 4 l 4 1.656 z m -5.656 -5.656 l -3.03 -7.313 l 0 4.281 l 3.03 3.03 z m -3.03 -7.313 l 0 -8 l -1.656 4 l 1.656 4 z m 0 -8 l 3.03 -7.313 l -3.03 3.03 l 0 4.281 z m 3.03 -7.313 l 5.656 -5.656 l -4 1.656 l -1.656 4 z m 5.656 -5.656 l 7.313 -3.03 l -4.281 0 l -3.03 3.03 z" opacity="0.05" visibility="visible" fill="#474747" display="inline" fill-rule="nonzero" stroke="none" fill-opacity="1" color="#000"/></g><g><use opacity="0.05" stroke-opacity="1" stroke-dasharray="none" fill="#000" stroke="#000" stroke-width="2" stroke-miterlimit="4" xlink:href="#SVGCleanerId_0"/><use opacity="0.1" stroke-opacity="1" stroke-dasharray="none" fill="#000" stroke="#000" stroke-width="1" stroke-miterlimit="4" xlink:href="#SVGCleanerId_0"/></g><g><g clip-path="url(#clipPath-663585204)"><g transform="translate(0,1)"><g opacity="0.1"><!-- color: #474747 --><g><path d="m 31 24 c 0 3.867 -3.133 7 -7 7 c -3.867 0 -7 -3.133 -7 -7 c 0 -3.867 3.133 -7 7 -7 c 3.867 0 7 3.133 7 7 m 0 0" fill="#000" stroke="none" fill-rule="nonzero" fill-opacity="1"/><path d="m 400 0 c 0 220.91 -179.09 400 -400 400 c -220.91 0 -400 -179.09 -400 -400 c 0 -220.91 179.09 -400 400 -400 c 220.91 0 400 179.09 400 400 m 0 0" transform="matrix(0.03625,0,0,0.03625,24.000006,23.999994)" stroke-opacity="1" fill="#000" stroke="#f9f9f9" stroke-linejoin="miter" stroke-linecap="butt" stroke-width="27.586" stroke-miterlimit="4"/><path d="m 25.1 9.727 c 0 0.594 -0.492 1.074 -1.098 1.074 c -0.605 0 -1.105 -0.48 -1.105 -1.074 c 0 -0.594 0.492 -1.074 1.105 -1.074 c 0.602 0 1.098 0.48 1.098 1.074 m 0 0" fill="#000" stroke="none" fill-rule="nonzero" fill-opacity="1"/><path d="m 11.191 19.961 c 0 0.59 -0.488 1.07 -1.094 1.07 c -0.605 0 -1.098 -0.48 -1.098 -1.07 c 0 -0.594 0.492 -1.074 1.098 -1.074 c 0.605 0 1.094 0.48 1.094 1.074 m 0 0" fill="#000" stroke="none" fill-rule="nonzero" fill-opacity="1"/><path d="m 39 19.961 c 0 0.59 -0.492 1.07 -1.098 1.07 c -0.605 0 -1.098 -0.48 -1.098 -1.07 c 0 -0.594 0.492 -1.074 1.098 -1.074 c 0.605 0 1.098 0.48 1.098 1.074 m 0 0" fill="#000" stroke="none" fill-rule="nonzero" fill-opacity="1"/><path d="m 33.688 35.953 c 0 0.594 -0.488 1.074 -1.094 1.074 c -0.605 0 -1.098 -0.48 -1.098 -1.074 c 0 -0.59 0.492 -1.07 1.098 -1.07 c 0.605 0 1.094 0.48 1.094 1.07 m 0 0" fill="#000" stroke="none" fill-rule="nonzero" fill-opacity="1"/><path d="m 16.504 35.953 c 0 0.594 -0.492 1.074 -1.098 1.074 c -0.605 0 -1.094 -0.48 -1.094 -1.074 c 0 -0.59 0.488 -1.07 1.094 -1.07 c 0.605 0 1.098 0.48 1.098 1.07 m 0 0" fill="#000" stroke="none" fill-rule="nonzero" fill-opacity="1"/><path d="m 400 0 c 0 220.98 -179.02 400 -400 400 c -220.98 0 -400 -179.02 -400 -400 c 0 -220.98 179.02 -400 400 -400 c 220.98 0 400 179.02 400 400 m 0 0" transform="matrix(0.02625,0,0,0.02625,23.999995,24.000005)" stroke-opacity="1" fill="#000" stroke="#f9f9f9" stroke-linejoin="miter" stroke-linecap="butt" stroke-width="38.1" stroke-miterlimit="4"/><path d="m 25.1 13.648 c 0 0.594 -0.492 1.074 -1.098 1.074 c -0.605 0 -1.105 -0.48 -1.105 -1.074 c 0 -0.59 0.492 -1.07 1.105 -1.07 c 0.602 0 1.098 0.48 1.098 1.07 m 0 0" fill="#000" stroke="none" fill-rule="nonzero" fill-opacity="1"/><path d="m 25.1 34.527 c 0 0.594 -0.492 1.074 -1.098 1.074 c -0.605 0 -1.105 -0.48 -1.105 -1.074 c 0 -0.594 0.492 -1.074 1.105 -1.074 c 0.602 0 1.098 0.48 1.098 1.074 m 0 0" fill="#000" stroke="none" fill-rule="nonzero" fill-opacity="1"/></g></g></g></g></g><g><g clip-path="url(#clipPath-677610556)"><!-- color: #474747 --><g><path d="m 31 24 c 0 3.867 -3.133 7 -7 7 c -3.867 0 -7 -3.133 -7 -7 c 0 -3.867 3.133 -7 7 -7 c 3.867 0 7 3.133 7 7 m 0 0" fill="#7095c1" stroke="none" fill-rule="nonzero" fill-opacity="1"/><path d="m 400 0 c 0 220.91 -179.09 400 -400 400 c -220.91 0 -400 -179.09 -400 -400 c 0 -220.91 179.09 -400 400 -400 c 220.91 0 400 179.09 400 400 m 0 0" transform="matrix(0.03625,0,0,0.03625,24.000006,23.999994)" stroke-opacity="1" fill="none" stroke="#f9f9f9" stroke-linejoin="miter" stroke-linecap="butt" stroke-width="27.586" stroke-miterlimit="4"/><path d="m 25.1 9.727 c 0 0.594 -0.492 1.074 -1.098 1.074 c -0.605 0 -1.105 -0.48 -1.105 -1.074 c 0 -0.594 0.492 -1.074 1.105 -1.074 c 0.602 0 1.098 0.48 1.098 1.074 m 0 0" fill="#93b1d6" stroke="none" fill-rule="nonzero" fill-opacity="1"/><path d="m 11.191 19.961 c 0 0.59 -0.488 1.07 -1.094 1.07 c -0.605 0 -1.098 -0.48 -1.098 -1.07 c 0 -0.594 0.492 -1.074 1.098 -1.074 c 0.605 0 1.094 0.48 1.094 1.074 m 0 0" fill="#93b1d6" stroke="none" fill-rule="nonzero" fill-opacity="1"/><path d="m 39 19.961 c 0 0.59 -0.492 1.07 -1.098 1.07 c -0.605 0 -1.098 -0.48 -1.098 -1.07 c 0 -0.594 0.492 -1.074 1.098 -1.074 c 0.605 0 1.098 0.48 1.098 1.074 m 0 0" fill="#93b1d6" stroke="none" fill-rule="nonzero" fill-opacity="1"/><path d="m 33.688 35.953 c 0 0.594 -0.488 1.074 -1.094 1.074 c -0.605 0 -1.098 -0.48 -1.098 -1.074 c 0 -0.59 0.492 -1.07 1.098 -1.07 c 0.605 0 1.094 0.48 1.094 1.07 m 0 0" fill="#93b1d6" stroke="none" fill-rule="nonzero" fill-opacity="1"/><path d="m 16.504 35.953 c 0 0.594 -0.492 1.074 -1.098 1.074 c -0.605 0 -1.094 -0.48 -1.094 -1.074 c 0 -0.59 0.488 -1.07 1.094 -1.07 c 0.605 0 1.098 0.48 1.098 1.07 m 0 0" fill="#93b1d6" stroke="none" fill-rule="nonzero" fill-opacity="1"/><path d="m 400 0 c 0 220.98 -179.02 400 -400 400 c -220.98 0 -400 -179.02 -400 -400 c 0 -220.98 179.02 -400 400 -400 c 220.98 0 400 179.02 400 400 m 0 0" transform="matrix(0.02625,0,0,0.02625,23.999995,24.000005)" stroke-opacity="1" fill="none" stroke="#f9f9f9" stroke-linejoin="miter" stroke-linecap="butt" stroke-width="38.1" stroke-miterlimit="4"/><path d="m 25.1 13.648 c 0 0.594 -0.492 1.074 -1.098 1.074 c -0.605 0 -1.105 -0.48 -1.105 -1.074 c 0 -0.59 0.492 -1.07 1.105 -1.07 c 0.602 0 1.098 0.48 1.098 1.07 m 0 0" fill="#93b1d6" stroke="none" fill-rule="nonzero" fill-opacity="1"/><path d="m 25.1 34.527 c 0 0.594 -0.492 1.074 -1.098 1.074 c -0.605 0 -1.105 -0.48 -1.105 -1.074 c 0 -0.594 0.492 -1.074 1.105 -1.074 c 0.602 0 1.098 0.48 1.098 1.074 m 0 0" fill="#93b1d6" stroke="none" fill-rule="nonzero" fill-opacity="1"/></g></g></g><g><path d="m 20 4 -7.313 3.03 -5.656 5.656 -3.03 7.313 0 8 3.03 7.313 5.656 5.656 7.313 3.03 8 0 7.313 -3.03 5.656 -5.656 3.03 -7.313 0 -8 -3.03 -7.313 -5.656 -5.656 -7.313 -3.03 -8 0 z" clip-path="url(#clipPath4313)" transform="matrix(0,1,-1,0,48,0)" opacity="0.3" stroke-opacity="1" stroke-dasharray="none" visibility="visible" fill="none" display="inline" stroke="url(#linearGradient4375)" color="#000" stroke-width="1" stroke-miterlimit="4"/><path d="m 24 2.344 -4 1.656 -4.281 0 -3.03 3.03 l -4 1.656 -1.656 4 l -3.03 3.03 0 4.281 -1.656 4 1.656 4 l 0 4.281 3.03 3.03 1.656 4 4 1.656 l 3.03 3.03 4.281 0 4 1.656 4 -1.656 l 4.281 0 3.03 -3.03 4 -1.656 1.656 -4 l 3.03 -3.03 0 -4.281 1.656 -4 -1.656 -4 l 0 -4.281 -3.03 -3.03 -1.656 -4 -4 -1.656 l -3.03 -3.03 -4.281 0 -4 -1.656 z" clip-path="url(#clipPath4329)" opacity="0.2" stroke-opacity="1" visibility="visible" fill="none" display="inline" stroke="#000" color="#000" stroke-width="2"/></g></svg>