<svg viewBox="0 0 48 48" xmlns:xlink="http://www.w3.org/1999/xlink"><defs><clipPath clipPathUnits="userSpaceOnUse" id="clipPath4313"><path d="m 20 4 -7.313 3.03 -5.656 5.656 -3.03 7.313 0 8 3.03 7.313 5.656 5.656 7.313 3.03 8 0 7.313 -3.03 5.656 -5.656 3.03 -7.313 0 -8 -3.03 -7.313 -5.656 -5.656 -7.313 -3.03 -8 0 z"/></clipPath><clipPath clipPathUnits="userSpaceOnUse" id="clipPath4329"><path d="m 24 2.344 -4 1.656 -4.281 0 -3.03 3.03 l -4 1.656 -1.656 4 l -3.03 3.03 0 4.281 -1.656 4 1.656 4 l 0 4.281 3.03 3.03 1.656 4 4 1.656 l 3.03 3.03 4.281 0 4 1.656 4 -1.656 l 4.281 0 3.03 -3.03 4 -1.656 1.656 -4 l 3.03 -3.03 0 -4.281 1.656 -4 -1.656 -4 l 0 -4.281 -3.03 -3.03 -1.656 -4 -4 -1.656 l -3.03 -3.03 -4.281 0 -4 -1.656 z"/></clipPath><clipPath id="clipPath-494969262"><path d="m 24 2.344 l -4 1.656 l -4.281 0 l -3.03 3.03 l -4 1.656 l -1.656 4 l -3.03 3.03 l 0 4.281 l -1.656 4 l 1.656 4 l 0 4.281 l 3.03 3.03 l 1.656 4 l 4 1.656 l 3.03 3.03 l 4.281 0 l 4 1.656 l 4 -1.656 l 4.281 0 l 3.03 -3.03 l 4 -1.656 l 1.656 -4 l 3.03 -3.03 l 0 -4.281 l 1.656 -4 l -1.656 -4 l 0 -4.281 l -3.03 -3.03 l -1.656 -4 l -4 -1.656 l -3.03 -3.03 l -4.281 0 l -4 -1.656 z"/></clipPath><clipPath id="clipPath-504859582"><path d="m 24 2.344 l -4 1.656 l -4.281 0 l -3.03 3.03 l -4 1.656 l -1.656 4 l -3.03 3.03 l 0 4.281 l -1.656 4 l 1.656 4 l 0 4.281 l 3.03 3.03 l 1.656 4 l 4 1.656 l 3.03 3.03 l 4.281 0 l 4 1.656 l 4 -1.656 l 4.281 0 l 3.03 -3.03 l 4 -1.656 l 1.656 -4 l 3.03 -3.03 l 0 -4.281 l 1.656 -4 l -1.656 -4 l 0 -4.281 l -3.03 -3.03 l -1.656 -4 l -4 -1.656 l -3.03 -3.03 l -4.281 0 l -4 -1.656 z"/></clipPath><linearGradient id="linearGradient4317"><stop stop-color="#fff" stop-opacity="1"/><stop offset="1" stop-color="#fff" stop-opacity="0"/></linearGradient><clipPath clipPathUnits="userSpaceOnUse" id="clipPath4313"><path d="m 20 4 -7.313 3.03 -5.656 5.656 -3.03 7.313 0 8 3.03 7.313 5.656 5.656 7.313 3.03 8 0 7.313 -3.03 5.656 -5.656 3.03 -7.313 0 -8 -3.03 -7.313 -5.656 -5.656 -7.313 -3.03 -8 0 z"/></clipPath><linearGradient x2="44" x1="4" gradientUnits="userSpaceOnUse" id="linearGradient4375" xlink:href="#linearGradient4317"/><clipPath clipPathUnits="userSpaceOnUse" id="clipPath4329"><path d="m 24 2.344 -4 1.656 -4.281 0 -3.03 3.03 l -4 1.656 -1.656 4 l -3.03 3.03 0 4.281 -1.656 4 1.656 4 l 0 4.281 3.03 3.03 1.656 4 4 1.656 l 3.03 3.03 4.281 0 4 1.656 4 -1.656 l 4.281 0 3.03 -3.03 4 -1.656 1.656 -4 l 3.03 -3.03 0 -4.281 1.656 -4 -1.656 -4 l 0 -4.281 -3.03 -3.03 -1.656 -4 -4 -1.656 l -3.03 -3.03 -4.281 0 -4 -1.656 z"/></clipPath><path id="SVGCleanerId_0" d="m 24 2.344 l -4 1.656 l -4.281 0 l -3.03 3.03 l -4 1.656 l -1.656 4 l -3.03 3.03 l 0 4.281 l -1.656 4 l 1.656 4 l 0 4.281 l 3.03 3.03 l 1.656 4 l 4 1.656 l 3.03 3.03 l 4.281 0 l 4 1.656 l 4 -1.656 l 4.281 0 l 3.03 -3.03 l 4 -1.656 l 1.656 -4 l 3.03 -3.03 l 0 -4.281 l 1.656 -4 l -1.656 -4 l 0 -4.281 l -3.03 -3.03 l -1.656 -4 l -4 -1.656 l -3.03 -3.03 l -4.281 0 l -4 -1.656 z" visibility="visible" display="inline" fill-rule="nonzero" color="#000" fill-opacity="1"/></defs><g><path d="m 2.563 24.5 l -0.219 0.5 l 1.656 4 l 0 -1 l -1.438 -3.5 z m 42.875 0 l -1.438 3.5 l 0 1 l 1.656 -4 l -0.219 -0.5 z m -41.44 7.781 l 0 1 l 3.03 3.03 l 1.656 4 l 4 1.656 l 3.03 3.03 l 4.281 0 l 4 1.656 l 4 -1.656 l 4.281 0 l 3.03 -3.03 l 4 -1.656 l 1.656 -4 l 3.03 -3.03 l 0 -1 l -3.03 3.03 l -1.656 4 l -4 1.656 l -3.03 3.03 l -4.281 0 l -4 1.656 l -4 -1.656 l -4.281 0 l -3.03 -3.03 l -4 -1.656 l -1.656 -4 l -3.03 -3.03 z" opacity="0.3" visibility="visible" fill="#000" display="inline" fill-rule="nonzero" stroke="none" fill-opacity="1" color="#000"/></g><g><use fill="#a5cfef" stroke="none" xlink:href="#SVGCleanerId_0"/><path d="m 24 2.344 l -4 1.656 l 8 0 l -4 -1.656 z m 4 1.656 l 7.313 3.03 l -3.03 -3.03 l -4.281 0 z m 7.313 3.03 l 5.656 5.656 l -1.656 -4 l -4 -1.656 z m 5.656 5.656 l 3.03 7.313 l 0 -4.281 l -3.03 -3.03 z m 3.03 7.313 l 0 8 l 1.656 -4 l -1.656 -4 z m 0 8 l -3.03 7.313 l 3.03 -3.03 l 0 -4.281 z m -3.03 7.313 l -5.656 5.656 l 4 -1.656 l 1.656 -4 z m -5.656 5.656 l -7.313 3.03 l 4.281 0 l 3.03 -3.03 z m -7.313 3.03 l -8 0 l 4 1.656 l 4 -1.656 z m -8 0 l -7.313 -3.03 l 3.03 3.03 l 4.281 0 z m -7.313 -3.03 l -5.656 -5.656 l 1.656 4 l 4 1.656 z m -5.656 -5.656 l -3.03 -7.313 l 0 4.281 l 3.03 3.03 z m -3.03 -7.313 l 0 -8 l -1.656 4 l 1.656 4 z m 0 -8 l 3.03 -7.313 l -3.03 3.03 l 0 4.281 z m 3.03 -7.313 l 5.656 -5.656 l -4 1.656 l -1.656 4 z m 5.656 -5.656 l 7.313 -3.03 l -4.281 0 l -3.03 3.03 z" opacity="0.05" visibility="visible" fill="#a5cfef" display="inline" fill-rule="nonzero" stroke="none" fill-opacity="1" color="#000"/></g><g><use opacity="0.05" stroke-opacity="1" stroke-dasharray="none" fill="#000" stroke="#000" stroke-width="2" stroke-miterlimit="4" xlink:href="#SVGCleanerId_0"/><use opacity="0.1" stroke-opacity="1" stroke-dasharray="none" fill="#000" stroke="#000" stroke-width="1" stroke-miterlimit="4" xlink:href="#SVGCleanerId_0"/></g><g><g clip-path="url(#clipPath-494969262)"><g transform="translate(0,1)"><g opacity="0.1"><!-- color: #a5cfef --><g><path d="m 14.715 31.996 l 18.57 0 c 3.715 -1.801 7.43 -12.602 -3.711 -12.602 c -1.859 -7.199 -9.289 -7.199 -11.145 0 c -11.145 0 -7.43 10.801 -3.715 12.602 m 0 0" fill="#000" stroke="none" fill-rule="nonzero" fill-opacity="1"/><path d="m 22.254 21 c -0.141 0.027 -0.258 0.176 -0.254 0.336 l 0 7.34 c 0 0.238 0.277 0.406 0.461 0.281 l 5.41 -3.672 c 0.168 -0.121 0.168 -0.441 0 -0.566 l -5.41 -3.668 c -0.063 -0.043 -0.137 -0.063 -0.207 -0.051 m 0 0" fill="#000" stroke="none" fill-rule="nonzero" fill-opacity="1"/></g></g></g></g></g><g><g clip-path="url(#clipPath-504859582)"><!-- color: #a5cfef --><g><path d="m 14.715 31.996 l 18.57 0 c 3.715 -1.801 7.43 -12.602 -3.711 -12.602 c -1.859 -7.199 -9.289 -7.199 -11.145 0 c -11.145 0 -7.43 10.801 -3.715 12.602 m 0 0" fill="#f9f9f9" stroke="none" fill-rule="nonzero" fill-opacity="1"/><path d="m 22.254 21 c -0.141 0.027 -0.258 0.176 -0.254 0.336 l 0 7.34 c 0 0.238 0.277 0.406 0.461 0.281 l 5.41 -3.672 c 0.168 -0.121 0.168 -0.441 0 -0.566 l -5.41 -3.668 c -0.063 -0.043 -0.137 -0.063 -0.207 -0.051 m 0 0" fill="#f28536" stroke="none" fill-rule="nonzero" fill-opacity="1"/></g></g></g><g><path d="m 20 4 -7.313 3.03 -5.656 5.656 -3.03 7.313 0 8 3.03 7.313 5.656 5.656 7.313 3.03 8 0 7.313 -3.03 5.656 -5.656 3.03 -7.313 0 -8 -3.03 -7.313 -5.656 -5.656 -7.313 -3.03 -8 0 z" clip-path="url(#clipPath4313)" transform="matrix(0,1,-1,0,48,0)" opacity="0.3" stroke-opacity="1" stroke-dasharray="none" visibility="visible" fill="none" display="inline" stroke="url(#linearGradient4375)" color="#000" stroke-width="1" stroke-miterlimit="4"/><path d="m 24 2.344 -4 1.656 -4.281 0 -3.03 3.03 l -4 1.656 -1.656 4 l -3.03 3.03 0 4.281 -1.656 4 1.656 4 l 0 4.281 3.03 3.03 1.656 4 4 1.656 l 3.03 3.03 4.281 0 4 1.656 4 -1.656 l 4.281 0 3.03 -3.03 4 -1.656 1.656 -4 l 3.03 -3.03 0 -4.281 1.656 -4 -1.656 -4 l 0 -4.281 -3.03 -3.03 -1.656 -4 -4 -1.656 l -3.03 -3.03 -4.281 0 -4 -1.656 z" clip-path="url(#clipPath4329)" opacity="0.2" stroke-opacity="1" visibility="visible" fill="none" display="inline" stroke="#000" color="#000" stroke-width="2"/></g></svg>