<svg viewBox="0 0 48 48" xmlns:xlink="http://www.w3.org/1999/xlink"><defs><clipPath clipPathUnits="userSpaceOnUse" id="clipPath4313"><path d="m 20 4 -7.313 3.03 -5.656 5.656 -3.03 7.313 0 8 3.03 7.313 5.656 5.656 7.313 3.03 8 0 7.313 -3.03 5.656 -5.656 3.03 -7.313 0 -8 -3.03 -7.313 -5.656 -5.656 -7.313 -3.03 -8 0 z"/></clipPath><clipPath clipPathUnits="userSpaceOnUse" id="clipPath4329"><path d="m 24 2.344 -4 1.656 -4.281 0 -3.03 3.03 l -4 1.656 -1.656 4 l -3.03 3.03 0 4.281 -1.656 4 1.656 4 l 0 4.281 3.03 3.03 1.656 4 4 1.656 l 3.03 3.03 4.281 0 4 1.656 4 -1.656 l 4.281 0 3.03 -3.03 4 -1.656 1.656 -4 l 3.03 -3.03 0 -4.281 1.656 -4 -1.656 -4 l 0 -4.281 -3.03 -3.03 -1.656 -4 -4 -1.656 l -3.03 -3.03 -4.281 0 -4 -1.656 z"/></clipPath><clipPath id="clipPath-124363956"><path d="m 24 2.344 l -4 1.656 l -4.281 0 l -3.03 3.03 l -4 1.656 l -1.656 4 l -3.03 3.03 l 0 4.281 l -1.656 4 l 1.656 4 l 0 4.281 l 3.03 3.03 l 1.656 4 l 4 1.656 l 3.03 3.03 l 4.281 0 l 4 1.656 l 4 -1.656 l 4.281 0 l 3.03 -3.03 l 4 -1.656 l 1.656 -4 l 3.03 -3.03 l 0 -4.281 l 1.656 -4 l -1.656 -4 l 0 -4.281 l -3.03 -3.03 l -1.656 -4 l -4 -1.656 l -3.03 -3.03 l -4.281 0 l -4 -1.656 z"/></clipPath><clipPath id="clipPath-133243895"><path d="m 24 2.344 l -4 1.656 l -4.281 0 l -3.03 3.03 l -4 1.656 l -1.656 4 l -3.03 3.03 l 0 4.281 l -1.656 4 l 1.656 4 l 0 4.281 l 3.03 3.03 l 1.656 4 l 4 1.656 l 3.03 3.03 l 4.281 0 l 4 1.656 l 4 -1.656 l 4.281 0 l 3.03 -3.03 l 4 -1.656 l 1.656 -4 l 3.03 -3.03 l 0 -4.281 l 1.656 -4 l -1.656 -4 l 0 -4.281 l -3.03 -3.03 l -1.656 -4 l -4 -1.656 l -3.03 -3.03 l -4.281 0 l -4 -1.656 z"/></clipPath><linearGradient id="linearGradient4317"><stop stop-color="#fff" stop-opacity="1"/><stop offset="1" stop-color="#fff" stop-opacity="0"/></linearGradient><clipPath clipPathUnits="userSpaceOnUse" id="clipPath4313"><path d="m 20 4 -7.313 3.03 -5.656 5.656 -3.03 7.313 0 8 3.03 7.313 5.656 5.656 7.313 3.03 8 0 7.313 -3.03 5.656 -5.656 3.03 -7.313 0 -8 -3.03 -7.313 -5.656 -5.656 -7.313 -3.03 -8 0 z"/></clipPath><linearGradient x2="44" x1="4" gradientUnits="userSpaceOnUse" id="linearGradient4375" xlink:href="#linearGradient4317"/><clipPath clipPathUnits="userSpaceOnUse" id="clipPath4329"><path d="m 24 2.344 -4 1.656 -4.281 0 -3.03 3.03 l -4 1.656 -1.656 4 l -3.03 3.03 0 4.281 -1.656 4 1.656 4 l 0 4.281 3.03 3.03 1.656 4 4 1.656 l 3.03 3.03 4.281 0 4 1.656 4 -1.656 l 4.281 0 3.03 -3.03 4 -1.656 1.656 -4 l 3.03 -3.03 0 -4.281 1.656 -4 -1.656 -4 l 0 -4.281 -3.03 -3.03 -1.656 -4 -4 -1.656 l -3.03 -3.03 -4.281 0 -4 -1.656 z"/></clipPath><path id="SVGCleanerId_0" d="m 24 2.344 l -4 1.656 l -4.281 0 l -3.03 3.03 l -4 1.656 l -1.656 4 l -3.03 3.03 l 0 4.281 l -1.656 4 l 1.656 4 l 0 4.281 l 3.03 3.03 l 1.656 4 l 4 1.656 l 3.03 3.03 l 4.281 0 l 4 1.656 l 4 -1.656 l 4.281 0 l 3.03 -3.03 l 4 -1.656 l 1.656 -4 l 3.03 -3.03 l 0 -4.281 l 1.656 -4 l -1.656 -4 l 0 -4.281 l -3.03 -3.03 l -1.656 -4 l -4 -1.656 l -3.03 -3.03 l -4.281 0 l -4 -1.656 z" visibility="visible" display="inline" fill-rule="nonzero" color="#000" fill-opacity="1"/></defs><g><path d="m 2.563 24.5 l -0.219 0.5 l 1.656 4 l 0 -1 l -1.438 -3.5 z m 42.875 0 l -1.438 3.5 l 0 1 l 1.656 -4 l -0.219 -0.5 z m -41.44 7.781 l 0 1 l 3.03 3.03 l 1.656 4 l 4 1.656 l 3.03 3.03 l 4.281 0 l 4 1.656 l 4 -1.656 l 4.281 0 l 3.03 -3.03 l 4 -1.656 l 1.656 -4 l 3.03 -3.03 l 0 -1 l -3.03 3.03 l -1.656 4 l -4 1.656 l -3.03 3.03 l -4.281 0 l -4 1.656 l -4 -1.656 l -4.281 0 l -3.03 -3.03 l -4 -1.656 l -1.656 -4 l -3.03 -3.03 z" opacity="0.3" visibility="visible" fill="#000" display="inline" fill-rule="nonzero" stroke="none" fill-opacity="1" color="#000"/></g><g><use fill="#4077ce" stroke="none" xlink:href="#SVGCleanerId_0"/><path d="m 24 2.344 l -4 1.656 l 8 0 l -4 -1.656 z m 4 1.656 l 7.313 3.03 l -3.03 -3.03 l -4.281 0 z m 7.313 3.03 l 5.656 5.656 l -1.656 -4 l -4 -1.656 z m 5.656 5.656 l 3.03 7.313 l 0 -4.281 l -3.03 -3.03 z m 3.03 7.313 l 0 8 l 1.656 -4 l -1.656 -4 z m 0 8 l -3.03 7.313 l 3.03 -3.03 l 0 -4.281 z m -3.03 7.313 l -5.656 5.656 l 4 -1.656 l 1.656 -4 z m -5.656 5.656 l -7.313 3.03 l 4.281 0 l 3.03 -3.03 z m -7.313 3.03 l -8 0 l 4 1.656 l 4 -1.656 z m -8 0 l -7.313 -3.03 l 3.03 3.03 l 4.281 0 z m -7.313 -3.03 l -5.656 -5.656 l 1.656 4 l 4 1.656 z m -5.656 -5.656 l -3.03 -7.313 l 0 4.281 l 3.03 3.03 z m -3.03 -7.313 l 0 -8 l -1.656 4 l 1.656 4 z m 0 -8 l 3.03 -7.313 l -3.03 3.03 l 0 4.281 z m 3.03 -7.313 l 5.656 -5.656 l -4 1.656 l -1.656 4 z m 5.656 -5.656 l 7.313 -3.03 l -4.281 0 l -3.03 3.03 z" opacity="0.05" visibility="visible" fill="#4077ce" display="inline" fill-rule="nonzero" stroke="none" fill-opacity="1" color="#000"/></g><g><use opacity="0.05" stroke-opacity="1" stroke-dasharray="none" fill="#000" stroke="#000" stroke-width="2" stroke-miterlimit="4" xlink:href="#SVGCleanerId_0"/><use opacity="0.1" stroke-opacity="1" stroke-dasharray="none" fill="#000" stroke="#000" stroke-width="1" stroke-miterlimit="4" xlink:href="#SVGCleanerId_0"/></g><g><g clip-path="url(#clipPath-124363956)"><g transform="translate(0,1)"><g opacity="0.1"><!-- color: #4077ce --><g><path d="m 20.43 30.902 c -1.57 -0.41 -2.449 -1.711 -2.449 -3.641 c 0 -0.617 0.039 -0.914 0.191 -1.309 c 0.359 -0.977 1.324 -1.711 2.59 -1.98 c 0.629 -0.133 0.82 -0.277 0.82 -0.613 c 0 -0.105 0.074 -0.418 0.168 -0.691 c 0.414 -1.258 1.188 -2.309 2.01 -2.738 c 0.852 -0.449 1.297 -0.547 2.34 -0.543 c 1.477 0.004 2.219 0.344 3.246 1.469 l 0.563 0.621 l 0.516 -0.184 c 2.465 -0.887 4.914 0.621 5.105 3.141 l 0.063 0.691 l 0.477 0.18 c 1.395 0.52 2.035 1.602 1.918 3.195 c -0.078 1.039 -0.547 1.875 -1.277 2.285 l -0.355 0.195 l -7.75 0.012 c -5.953 0.012 -7.844 -0.008 -8.176 -0.094 m -0.004 0.004" fill="#000" stroke="none" fill-rule="nonzero" fill-opacity="1"/><path d="m 14.621 29.789 c -0.918 -0.227 -1.895 -1.07 -2.352 -2.039 c -0.258 -0.543 -0.273 -0.625 -0.273 -1.598 c 0 -0.922 0.023 -1.07 0.227 -1.527 c 0.438 -0.961 1.27 -1.66 2.313 -1.934 c 0.219 -0.059 0.43 -0.148 0.461 -0.207 c 0.031 -0.051 0.066 -0.352 0.082 -0.664 c 0.074 -1.93 1.289 -3.629 2.984 -4.176 c 0.918 -0.293 2.074 -0.223 3.07 0.191 c 0.316 0.133 0.281 0.16 0.949 -0.754 c 0.398 -0.539 1.199 -1.211 1.848 -1.555 c 0.707 -0.367 1.445 -0.539 2.324 -0.539 c 2.453 0.008 4.574 1.605 5.355 4.04 c 0.254 0.781 0.238 1 -0.055 1 c -0.129 0.004 -0.496 0.078 -0.82 0.16 l -0.586 0.16 l -0.535 -0.555 c -1.504 -1.566 -3.969 -1.906 -6.06 -0.836 c -0.836 0.426 -1.504 1.039 -2.01 1.844 c -0.359 0.57 -0.82 1.637 -0.82 1.902 c 0 0.191 -0.148 0.281 -0.77 0.496 c -1.934 0.66 -3.063 2.184 -3.059 4.129 c 0 0.711 0.176 1.578 0.418 2.074 c 0.094 0.188 0.141 0.363 0.113 0.395 c -0.074 0.078 -2.477 0.055 -2.809 -0.031 m 0.004 0.016" fill="#000" stroke="none" fill-rule="nonzero" fill-opacity="1"/></g></g></g></g></g><g><g clip-path="url(#clipPath-133243895)"><!-- color: #4077ce --><g><path d="m 20.43 30.902 c -1.57 -0.41 -2.449 -1.711 -2.449 -3.641 c 0 -0.617 0.039 -0.914 0.191 -1.309 c 0.359 -0.977 1.324 -1.711 2.59 -1.98 c 0.629 -0.133 0.82 -0.277 0.82 -0.613 c 0 -0.105 0.074 -0.418 0.168 -0.691 c 0.414 -1.258 1.188 -2.309 2.01 -2.738 c 0.852 -0.449 1.297 -0.547 2.34 -0.543 c 1.477 0.004 2.219 0.344 3.246 1.469 l 0.563 0.621 l 0.516 -0.184 c 2.465 -0.887 4.914 0.621 5.105 3.141 l 0.063 0.691 l 0.477 0.18 c 1.395 0.52 2.035 1.602 1.918 3.195 c -0.078 1.039 -0.547 1.875 -1.277 2.285 l -0.355 0.195 l -7.75 0.012 c -5.953 0.012 -7.844 -0.008 -8.176 -0.094 m -0.004 0.004" fill="#f9f9f9" stroke="none" fill-rule="nonzero" fill-opacity="1"/><path d="m 14.621 29.789 c -0.918 -0.227 -1.895 -1.07 -2.352 -2.039 c -0.258 -0.543 -0.273 -0.625 -0.273 -1.598 c 0 -0.922 0.023 -1.07 0.227 -1.527 c 0.438 -0.961 1.27 -1.66 2.313 -1.934 c 0.219 -0.059 0.43 -0.148 0.461 -0.207 c 0.031 -0.051 0.066 -0.352 0.082 -0.664 c 0.074 -1.93 1.289 -3.629 2.984 -4.176 c 0.918 -0.293 2.074 -0.223 3.07 0.191 c 0.316 0.133 0.281 0.16 0.949 -0.754 c 0.398 -0.539 1.199 -1.211 1.848 -1.555 c 0.707 -0.367 1.445 -0.539 2.324 -0.539 c 2.453 0.008 4.574 1.605 5.355 4.04 c 0.254 0.781 0.238 1 -0.055 1 c -0.129 0.004 -0.496 0.078 -0.82 0.16 l -0.586 0.16 l -0.535 -0.555 c -1.504 -1.566 -3.969 -1.906 -6.06 -0.836 c -0.836 0.426 -1.504 1.039 -2.01 1.844 c -0.359 0.57 -0.82 1.637 -0.82 1.902 c 0 0.191 -0.148 0.281 -0.77 0.496 c -1.934 0.66 -3.063 2.184 -3.059 4.129 c 0 0.711 0.176 1.578 0.418 2.074 c 0.094 0.188 0.141 0.363 0.113 0.395 c -0.074 0.078 -2.477 0.055 -2.809 -0.031 m 0.004 0.016" fill="#f9f9f9" stroke="none" fill-rule="nonzero" fill-opacity="1"/></g></g></g><g><path d="m 20 4 -7.313 3.03 -5.656 5.656 -3.03 7.313 0 8 3.03 7.313 5.656 5.656 7.313 3.03 8 0 7.313 -3.03 5.656 -5.656 3.03 -7.313 0 -8 -3.03 -7.313 -5.656 -5.656 -7.313 -3.03 -8 0 z" clip-path="url(#clipPath4313)" transform="matrix(0,1,-1,0,48,0)" opacity="0.3" stroke-opacity="1" stroke-dasharray="none" visibility="visible" fill="none" display="inline" stroke="url(#linearGradient4375)" color="#000" stroke-width="1" stroke-miterlimit="4"/><path d="m 24 2.344 -4 1.656 -4.281 0 -3.03 3.03 l -4 1.656 -1.656 4 l -3.03 3.03 0 4.281 -1.656 4 1.656 4 l 0 4.281 3.03 3.03 1.656 4 4 1.656 l 3.03 3.03 4.281 0 4 1.656 4 -1.656 l 4.281 0 3.03 -3.03 4 -1.656 1.656 -4 l 3.03 -3.03 0 -4.281 1.656 -4 -1.656 -4 l 0 -4.281 -3.03 -3.03 -1.656 -4 -4 -1.656 l -3.03 -3.03 -4.281 0 -4 -1.656 z" clip-path="url(#clipPath4329)" opacity="0.2" stroke-opacity="1" visibility="visible" fill="none" display="inline" stroke="#000" color="#000" stroke-width="2"/></g></svg>