<svg viewBox="0 0 48 48" xmlns:xlink="http://www.w3.org/1999/xlink"><defs><clipPath clipPathUnits="userSpaceOnUse" id="clipPath4313"><path d="m 20 4 -7.313 3.03 -5.656 5.656 -3.03 7.313 0 8 3.03 7.313 5.656 5.656 7.313 3.03 8 0 7.313 -3.03 5.656 -5.656 3.03 -7.313 0 -8 -3.03 -7.313 -5.656 -5.656 -7.313 -3.03 -8 0 z"/></clipPath><clipPath clipPathUnits="userSpaceOnUse" id="clipPath4329"><path d="m 24 2.344 -4 1.656 -4.281 0 -3.03 3.03 l -4 1.656 -1.656 4 l -3.03 3.03 0 4.281 -1.656 4 1.656 4 l 0 4.281 3.03 3.03 1.656 4 4 1.656 l 3.03 3.03 4.281 0 4 1.656 4 -1.656 l 4.281 0 3.03 -3.03 4 -1.656 1.656 -4 l 3.03 -3.03 0 -4.281 1.656 -4 -1.656 -4 l 0 -4.281 -3.03 -3.03 -1.656 -4 -4 -1.656 l -3.03 -3.03 -4.281 0 -4 -1.656 z"/></clipPath><clipPath id="clipPath-197718548"><path d="m 24 2.344 l -4 1.656 l -4.281 0 l -3.03 3.03 l -4 1.656 l -1.656 4 l -3.03 3.03 l 0 4.281 l -1.656 4 l 1.656 4 l 0 4.281 l 3.03 3.03 l 1.656 4 l 4 1.656 l 3.03 3.03 l 4.281 0 l 4 1.656 l 4 -1.656 l 4.281 0 l 3.03 -3.03 l 4 -1.656 l 1.656 -4 l 3.03 -3.03 l 0 -4.281 l 1.656 -4 l -1.656 -4 l 0 -4.281 l -3.03 -3.03 l -1.656 -4 l -4 -1.656 l -3.03 -3.03 l -4.281 0 l -4 -1.656 z"/></clipPath><clipPath id="clipPath-213169420"><path d="m 24 2.344 l -4 1.656 l -4.281 0 l -3.03 3.03 l -4 1.656 l -1.656 4 l -3.03 3.03 l 0 4.281 l -1.656 4 l 1.656 4 l 0 4.281 l 3.03 3.03 l 1.656 4 l 4 1.656 l 3.03 3.03 l 4.281 0 l 4 1.656 l 4 -1.656 l 4.281 0 l 3.03 -3.03 l 4 -1.656 l 1.656 -4 l 3.03 -3.03 l 0 -4.281 l 1.656 -4 l -1.656 -4 l 0 -4.281 l -3.03 -3.03 l -1.656 -4 l -4 -1.656 l -3.03 -3.03 l -4.281 0 l -4 -1.656 z"/></clipPath><linearGradient id="linearGradient4317"><stop stop-color="#fff" stop-opacity="1"/><stop offset="1" stop-color="#fff" stop-opacity="0"/></linearGradient><clipPath clipPathUnits="userSpaceOnUse" id="clipPath4313"><path d="m 20 4 -7.313 3.03 -5.656 5.656 -3.03 7.313 0 8 3.03 7.313 5.656 5.656 7.313 3.03 8 0 7.313 -3.03 5.656 -5.656 3.03 -7.313 0 -8 -3.03 -7.313 -5.656 -5.656 -7.313 -3.03 -8 0 z"/></clipPath><linearGradient x2="44" x1="4" gradientUnits="userSpaceOnUse" id="linearGradient4375" xlink:href="#linearGradient4317"/><clipPath clipPathUnits="userSpaceOnUse" id="clipPath4329"><path d="m 24 2.344 -4 1.656 -4.281 0 -3.03 3.03 l -4 1.656 -1.656 4 l -3.03 3.03 0 4.281 -1.656 4 1.656 4 l 0 4.281 3.03 3.03 1.656 4 4 1.656 l 3.03 3.03 4.281 0 4 1.656 4 -1.656 l 4.281 0 3.03 -3.03 4 -1.656 1.656 -4 l 3.03 -3.03 0 -4.281 1.656 -4 -1.656 -4 l 0 -4.281 -3.03 -3.03 -1.656 -4 -4 -1.656 l -3.03 -3.03 -4.281 0 -4 -1.656 z"/></clipPath><path id="SVGCleanerId_0" d="m 24 2.344 l -4 1.656 l -4.281 0 l -3.03 3.03 l -4 1.656 l -1.656 4 l -3.03 3.03 l 0 4.281 l -1.656 4 l 1.656 4 l 0 4.281 l 3.03 3.03 l 1.656 4 l 4 1.656 l 3.03 3.03 l 4.281 0 l 4 1.656 l 4 -1.656 l 4.281 0 l 3.03 -3.03 l 4 -1.656 l 1.656 -4 l 3.03 -3.03 l 0 -4.281 l 1.656 -4 l -1.656 -4 l 0 -4.281 l -3.03 -3.03 l -1.656 -4 l -4 -1.656 l -3.03 -3.03 l -4.281 0 l -4 -1.656 z" visibility="visible" display="inline" fill-rule="nonzero" color="#000" fill-opacity="1"/></defs><g><path d="m 2.563 24.5 l -0.219 0.5 l 1.656 4 l 0 -1 l -1.438 -3.5 z m 42.875 0 l -1.438 3.5 l 0 1 l 1.656 -4 l -0.219 -0.5 z m -41.44 7.781 l 0 1 l 3.03 3.03 l 1.656 4 l 4 1.656 l 3.03 3.03 l 4.281 0 l 4 1.656 l 4 -1.656 l 4.281 0 l 3.03 -3.03 l 4 -1.656 l 1.656 -4 l 3.03 -3.03 l 0 -1 l -3.03 3.03 l -1.656 4 l -4 1.656 l -3.03 3.03 l -4.281 0 l -4 1.656 l -4 -1.656 l -4.281 0 l -3.03 -3.03 l -4 -1.656 l -1.656 -4 l -3.03 -3.03 z" opacity="0.3" visibility="visible" fill="#000" display="inline" fill-rule="nonzero" stroke="none" fill-opacity="1" color="#000"/></g><g><use fill="#62bed6" stroke="none" xlink:href="#SVGCleanerId_0"/><path d="m 24 2.344 l -4 1.656 l 8 0 l -4 -1.656 z m 4 1.656 l 7.313 3.03 l -3.03 -3.03 l -4.281 0 z m 7.313 3.03 l 5.656 5.656 l -1.656 -4 l -4 -1.656 z m 5.656 5.656 l 3.03 7.313 l 0 -4.281 l -3.03 -3.03 z m 3.03 7.313 l 0 8 l 1.656 -4 l -1.656 -4 z m 0 8 l -3.03 7.313 l 3.03 -3.03 l 0 -4.281 z m -3.03 7.313 l -5.656 5.656 l 4 -1.656 l 1.656 -4 z m -5.656 5.656 l -7.313 3.03 l 4.281 0 l 3.03 -3.03 z m -7.313 3.03 l -8 0 l 4 1.656 l 4 -1.656 z m -8 0 l -7.313 -3.03 l 3.03 3.03 l 4.281 0 z m -7.313 -3.03 l -5.656 -5.656 l 1.656 4 l 4 1.656 z m -5.656 -5.656 l -3.03 -7.313 l 0 4.281 l 3.03 3.03 z m -3.03 -7.313 l 0 -8 l -1.656 4 l 1.656 4 z m 0 -8 l 3.03 -7.313 l -3.03 3.03 l 0 4.281 z m 3.03 -7.313 l 5.656 -5.656 l -4 1.656 l -1.656 4 z m 5.656 -5.656 l 7.313 -3.03 l -4.281 0 l -3.03 3.03 z" opacity="0.05" visibility="visible" fill="#62bed6" display="inline" fill-rule="nonzero" stroke="none" fill-opacity="1" color="#000"/></g><g><use opacity="0.05" stroke-opacity="1" stroke-dasharray="none" fill="#000" stroke="#000" stroke-width="2" stroke-miterlimit="4" xlink:href="#SVGCleanerId_0"/><use opacity="0.1" stroke-opacity="1" stroke-dasharray="none" fill="#000" stroke="#000" stroke-width="1" stroke-miterlimit="4" xlink:href="#SVGCleanerId_0"/></g><g><g clip-path="url(#clipPath-197718548)"><g transform="translate(0,1)"><g opacity="0.1"><!-- color: #62bed6 --><g><path d="m 22.648 31.961 l -1.328 -2.121 l 1.258 -2.07 c 0.695 -1.141 1.297 -2.137 1.34 -2.211 c 0.051 -0.094 0.527 0.602 1.41 2.051 c 0.73 1.203 1.328 2.207 1.328 2.234 c 0 0.063 -2.508 4.066 -2.613 4.164 c -0.035 0.039 -0.668 -0.883 -1.398 -2.047 m -6.941 1.109 l -1.648 -0.809 l 0.688 -1.281 c 0.379 -0.707 0.648 -1.316 0.605 -1.355 c -0.051 -0.039 -0.457 -0.34 -0.906 -0.66 c -4.883 -3.547 -4.516 -9.32 0.797 -12.66 c 4.414 -2.766 11.316 -3.07 16.207 -0.707 c 2.406 1.164 4.03 2.664 4.926 4.57 c 0.457 0.973 0.625 1.68 0.637 2.68 c 0.012 2.551 -1.461 4.93 -4.148 6.684 l -0.262 0.168 l 0.633 1.195 c 0.348 0.656 0.648 1.23 0.66 1.273 c 0.035 0.078 -3.246 1.719 -3.438 1.719 c -0.047 0 -1.504 -2.652 -3.227 -5.898 c -1.73 -3.246 -3.172 -5.898 -3.211 -5.898 c -0.035 0 -1.48 2.641 -3.207 5.875 c -1.832 3.434 -3.207 5.883 -3.297 5.895 c -0.086 0.023 -0.898 -0.34 -1.813 -0.785 m 4.445 -11.965 c 1.613 -2.957 2.91 -5.395 2.891 -5.418 c -0.02 -0.02 -0.477 0.023 -1.02 0.082 c -7.086 0.875 -10.668 5.48 -7.086 9.148 c 0.707 0.723 2.113 1.715 2.25 1.59 c 0.016 -0.02 1.352 -2.449 2.965 -5.402 m 12.07 4.578 c 1.188 -0.844 2.02 -2.059 2.207 -3.215 c 0.496 -3.105 -2.965 -5.938 -8.137 -6.66 c -0.664 -0.09 -1.23 -0.145 -1.262 -0.117 c -0.047 0.043 4.238 8.02 5.496 10.23 l 0.363 0.641 l 0.336 -0.199 c 0.184 -0.105 0.633 -0.418 0.996 -0.68 m 0 0" fill="#000" stroke="none" fill-rule="nonzero" fill-opacity="1"/></g></g></g></g></g><g><g clip-path="url(#clipPath-213169420)"><!-- color: #62bed6 --><g><path d="m 22.648 31.961 l -1.328 -2.121 l 1.258 -2.07 c 0.695 -1.141 1.297 -2.137 1.34 -2.211 c 0.051 -0.094 0.527 0.602 1.41 2.051 c 0.73 1.203 1.328 2.207 1.328 2.234 c 0 0.063 -2.508 4.066 -2.613 4.164 c -0.035 0.039 -0.668 -0.883 -1.398 -2.047 m -6.941 1.109 l -1.648 -0.809 l 0.688 -1.281 c 0.379 -0.707 0.648 -1.316 0.605 -1.355 c -0.051 -0.039 -0.457 -0.34 -0.906 -0.66 c -4.883 -3.547 -4.516 -9.32 0.797 -12.66 c 4.414 -2.766 11.316 -3.07 16.207 -0.707 c 2.406 1.164 4.03 2.664 4.926 4.57 c 0.457 0.973 0.625 1.68 0.637 2.68 c 0.012 2.551 -1.461 4.93 -4.148 6.684 l -0.262 0.168 l 0.633 1.195 c 0.348 0.656 0.648 1.23 0.66 1.273 c 0.035 0.078 -3.246 1.719 -3.438 1.719 c -0.047 0 -1.504 -2.652 -3.227 -5.898 c -1.73 -3.246 -3.172 -5.898 -3.211 -5.898 c -0.035 0 -1.48 2.641 -3.207 5.875 c -1.832 3.434 -3.207 5.883 -3.297 5.895 c -0.086 0.023 -0.898 -0.34 -1.813 -0.785 m 4.445 -11.965 c 1.613 -2.957 2.91 -5.395 2.891 -5.418 c -0.02 -0.02 -0.477 0.023 -1.02 0.082 c -7.086 0.875 -10.668 5.48 -7.086 9.148 c 0.707 0.723 2.113 1.715 2.25 1.59 c 0.016 -0.02 1.352 -2.449 2.965 -5.402 m 12.07 4.578 c 1.188 -0.844 2.02 -2.059 2.207 -3.215 c 0.496 -3.105 -2.965 -5.938 -8.137 -6.66 c -0.664 -0.09 -1.23 -0.145 -1.262 -0.117 c -0.047 0.043 4.238 8.02 5.496 10.23 l 0.363 0.641 l 0.336 -0.199 c 0.184 -0.105 0.633 -0.418 0.996 -0.68 m 0 0" fill="#2d2d2d" stroke="none" fill-rule="nonzero" fill-opacity="1"/></g></g></g><g><path d="m 20 4 -7.313 3.03 -5.656 5.656 -3.03 7.313 0 8 3.03 7.313 5.656 5.656 7.313 3.03 8 0 7.313 -3.03 5.656 -5.656 3.03 -7.313 0 -8 -3.03 -7.313 -5.656 -5.656 -7.313 -3.03 -8 0 z" clip-path="url(#clipPath4313)" transform="matrix(0,1,-1,0,48,0)" opacity="0.3" stroke-opacity="1" stroke-dasharray="none" visibility="visible" fill="none" display="inline" stroke="url(#linearGradient4375)" color="#000" stroke-width="1" stroke-miterlimit="4"/><path d="m 24 2.344 -4 1.656 -4.281 0 -3.03 3.03 l -4 1.656 -1.656 4 l -3.03 3.03 0 4.281 -1.656 4 1.656 4 l 0 4.281 3.03 3.03 1.656 4 4 1.656 l 3.03 3.03 4.281 0 4 1.656 4 -1.656 l 4.281 0 3.03 -3.03 4 -1.656 1.656 -4 l 3.03 -3.03 0 -4.281 1.656 -4 -1.656 -4 l 0 -4.281 -3.03 -3.03 -1.656 -4 -4 -1.656 l -3.03 -3.03 -4.281 0 -4 -1.656 z" clip-path="url(#clipPath4329)" opacity="0.2" stroke-opacity="1" visibility="visible" fill="none" display="inline" stroke="#000" color="#000" stroke-width="2"/></g></svg>