<svg viewBox="0 0 48 48" xmlns:xlink="http://www.w3.org/1999/xlink"><defs><clipPath clipPathUnits="userSpaceOnUse" id="clipPath4313"><path d="m 20 4 -7.313 3.03 -5.656 5.656 -3.03 7.313 0 8 3.03 7.313 5.656 5.656 7.313 3.03 8 0 7.313 -3.03 5.656 -5.656 3.03 -7.313 0 -8 -3.03 -7.313 -5.656 -5.656 -7.313 -3.03 -8 0 z"/></clipPath><clipPath clipPathUnits="userSpaceOnUse" id="clipPath4329"><path d="m 24 2.344 -4 1.656 -4.281 0 -3.03 3.03 l -4 1.656 -1.656 4 l -3.03 3.03 0 4.281 -1.656 4 1.656 4 l 0 4.281 3.03 3.03 1.656 4 4 1.656 l 3.03 3.03 4.281 0 4 1.656 4 -1.656 l 4.281 0 3.03 -3.03 4 -1.656 1.656 -4 l 3.03 -3.03 0 -4.281 1.656 -4 -1.656 -4 l 0 -4.281 -3.03 -3.03 -1.656 -4 -4 -1.656 l -3.03 -3.03 -4.281 0 -4 -1.656 z"/></clipPath><clipPath id="clipPath-081502615"><path d="m 24 2.344 l -4 1.656 l -4.281 0 l -3.03 3.03 l -4 1.656 l -1.656 4 l -3.03 3.03 l 0 4.281 l -1.656 4 l 1.656 4 l 0 4.281 l 3.03 3.03 l 1.656 4 l 4 1.656 l 3.03 3.03 l 4.281 0 l 4 1.656 l 4 -1.656 l 4.281 0 l 3.03 -3.03 l 4 -1.656 l 1.656 -4 l 3.03 -3.03 l 0 -4.281 l 1.656 -4 l -1.656 -4 l 0 -4.281 l -3.03 -3.03 l -1.656 -4 l -4 -1.656 l -3.03 -3.03 l -4.281 0 l -4 -1.656 z"/></clipPath><clipPath id="clipPath-093228380"><path d="m 24 2.344 l -4 1.656 l -4.281 0 l -3.03 3.03 l -4 1.656 l -1.656 4 l -3.03 3.03 l 0 4.281 l -1.656 4 l 1.656 4 l 0 4.281 l 3.03 3.03 l 1.656 4 l 4 1.656 l 3.03 3.03 l 4.281 0 l 4 1.656 l 4 -1.656 l 4.281 0 l 3.03 -3.03 l 4 -1.656 l 1.656 -4 l 3.03 -3.03 l 0 -4.281 l 1.656 -4 l -1.656 -4 l 0 -4.281 l -3.03 -3.03 l -1.656 -4 l -4 -1.656 l -3.03 -3.03 l -4.281 0 l -4 -1.656 z"/></clipPath><linearGradient id="linearGradient4317"><stop stop-color="#fff" stop-opacity="1"/><stop offset="1" stop-color="#fff" stop-opacity="0"/></linearGradient><clipPath clipPathUnits="userSpaceOnUse" id="clipPath4313"><path d="m 20 4 -7.313 3.03 -5.656 5.656 -3.03 7.313 0 8 3.03 7.313 5.656 5.656 7.313 3.03 8 0 7.313 -3.03 5.656 -5.656 3.03 -7.313 0 -8 -3.03 -7.313 -5.656 -5.656 -7.313 -3.03 -8 0 z"/></clipPath><linearGradient x2="44" x1="4" gradientUnits="userSpaceOnUse" id="linearGradient4375" xlink:href="#linearGradient4317"/><clipPath clipPathUnits="userSpaceOnUse" id="clipPath4329"><path d="m 24 2.344 -4 1.656 -4.281 0 -3.03 3.03 l -4 1.656 -1.656 4 l -3.03 3.03 0 4.281 -1.656 4 1.656 4 l 0 4.281 3.03 3.03 1.656 4 4 1.656 l 3.03 3.03 4.281 0 4 1.656 4 -1.656 l 4.281 0 3.03 -3.03 4 -1.656 1.656 -4 l 3.03 -3.03 0 -4.281 1.656 -4 -1.656 -4 l 0 -4.281 -3.03 -3.03 -1.656 -4 -4 -1.656 l -3.03 -3.03 -4.281 0 -4 -1.656 z"/></clipPath><path id="SVGCleanerId_0" d="m 24 2.344 l -4 1.656 l -4.281 0 l -3.03 3.03 l -4 1.656 l -1.656 4 l -3.03 3.03 l 0 4.281 l -1.656 4 l 1.656 4 l 0 4.281 l 3.03 3.03 l 1.656 4 l 4 1.656 l 3.03 3.03 l 4.281 0 l 4 1.656 l 4 -1.656 l 4.281 0 l 3.03 -3.03 l 4 -1.656 l 1.656 -4 l 3.03 -3.03 l 0 -4.281 l 1.656 -4 l -1.656 -4 l 0 -4.281 l -3.03 -3.03 l -1.656 -4 l -4 -1.656 l -3.03 -3.03 l -4.281 0 l -4 -1.656 z" visibility="visible" display="inline" fill-rule="nonzero" color="#000" fill-opacity="1"/><path id="SVGCleanerId_1" d="m 14.15 11 c 0 0 -1.152 0 -1.152 1.082 l 0 23.832 c 0 0 0 1.086 1.152 1.086 l 20.699 0 c 0 0 1.152 0 1.152 -1.086 l 0 -16.25 l -9.199 -8.664 c -4.273 -0.004 -10.05 -0.004 -12.648 -0.004 m -0.004 0.004" stroke="none" fill-rule="nonzero" fill-opacity="1"/><path id="SVGCleanerId_2" d="m 20.906 12.531 c -0.191 0.035 -0.391 0.215 -0.594 0.563 c -0.406 0.691 -0.582 2.613 -0.25 4.469 c 0.293 1.645 1.422 5.16 2.844 7.313 c -1.402 3.129 -3.328 6.109 -4.469 7.875 c -0.918 1.422 -3.129 3.078 -3.313 2.75 c -0.184 -0.328 0.414 -1.055 1.188 -2.219 c 0.77 -1.164 2.75 -2.375 2.75 -2.375 c 0 0 -0.836 -0.016 -3 1.875 c -2.168 1.895 -1.516 2.836 -1 3.125 c 0.371 0.211 1.242 0.84 3.531 -2 c 1.719 -0.488 4.961 -1.32 8.156 -1.625 c 4.586 -0.438 6.156 0.016 6.563 0.344 c 0.402 0.328 0.406 0.719 0.406 0.719 c 0 0 0.492 -0.512 0.156 -1.031 c -0.289 -0.535 -0.711 -0.984 -4.344 -0.875 c -3.637 0.109 -3.91 0.258 -7.25 0.875 c -1.387 0.258 -2.445 0.641 -3.25 1 c 0.793 -1.051 1.738 -2.453 2.875 -4.406 c 0.637 -1.098 1.164 -2.137 1.625 -3.145 c 1.711 1.926 5.01 3.59 7.469 4.094 c 2.359 0.477 2.996 -0.398 3.063 -0.5 c -0.09 0.074 -0.414 0.207 -1.375 0.125 c -1.258 -0.109 -6.03 -1.598 -8.75 -4.656 c 2.617 -6.285 2.156 -10.688 2.156 -10.688 c 0 0 -0.902 4.145 -2.188 8.145 c -0.188 0.582 -0.387 1.168 -0.625 1.75 c -2.258 -3.137 -2.453 -7.184 -2.625 -9.344 c -0.184 -2.293 0.82 -1.633 0.969 -1.344 c 0.113 0.098 0.223 0.289 0.281 0.469 c -0.055 -0.305 -0.133 -0.727 -0.406 -1 c -0.203 -0.199 -0.402 -0.316 -0.594 -0.281 m 0 0" stroke="none" fill-rule="nonzero" fill-opacity="1"/><path id="SVGCleanerId_3" d="m 36 19.664 l -9.199 -8.664 c -0.004 4.332 0 6.496 0 7.582 c 0 1.082 0 1.082 1.152 1.082 c 1.152 0 4.711 0.016 8.05 0 m -0.004 0" stroke="none" fill-rule="nonzero" fill-opacity="1"/></defs><g><path d="m 2.563 24.5 l -0.219 0.5 l 1.656 4 l 0 -1 l -1.438 -3.5 z m 42.875 0 l -1.438 3.5 l 0 1 l 1.656 -4 l -0.219 -0.5 z m -41.44 7.781 l 0 1 l 3.03 3.03 l 1.656 4 l 4 1.656 l 3.03 3.03 l 4.281 0 l 4 1.656 l 4 -1.656 l 4.281 0 l 3.03 -3.03 l 4 -1.656 l 1.656 -4 l 3.03 -3.03 l 0 -1 l -3.03 3.03 l -1.656 4 l -4 1.656 l -3.03 3.03 l -4.281 0 l -4 1.656 l -4 -1.656 l -4.281 0 l -3.03 -3.03 l -4 -1.656 l -1.656 -4 l -3.03 -3.03 z" opacity="0.3" visibility="visible" fill="#000" display="inline" fill-rule="nonzero" stroke="none" fill-opacity="1" color="#000"/></g><g><use fill="#474747" stroke="none" xlink:href="#SVGCleanerId_0"/><path d="m 24 2.344 l -4 1.656 l 8 0 l -4 -1.656 z m 4 1.656 l 7.313 3.03 l -3.03 -3.03 l -4.281 0 z m 7.313 3.03 l 5.656 5.656 l -1.656 -4 l -4 -1.656 z m 5.656 5.656 l 3.03 7.313 l 0 -4.281 l -3.03 -3.03 z m 3.03 7.313 l 0 8 l 1.656 -4 l -1.656 -4 z m 0 8 l -3.03 7.313 l 3.03 -3.03 l 0 -4.281 z m -3.03 7.313 l -5.656 5.656 l 4 -1.656 l 1.656 -4 z m -5.656 5.656 l -7.313 3.03 l 4.281 0 l 3.03 -3.03 z m -7.313 3.03 l -8 0 l 4 1.656 l 4 -1.656 z m -8 0 l -7.313 -3.03 l 3.03 3.03 l 4.281 0 z m -7.313 -3.03 l -5.656 -5.656 l 1.656 4 l 4 1.656 z m -5.656 -5.656 l -3.03 -7.313 l 0 4.281 l 3.03 3.03 z m -3.03 -7.313 l 0 -8 l -1.656 4 l 1.656 4 z m 0 -8 l 3.03 -7.313 l -3.03 3.03 l 0 4.281 z m 3.03 -7.313 l 5.656 -5.656 l -4 1.656 l -1.656 4 z m 5.656 -5.656 l 7.313 -3.03 l -4.281 0 l -3.03 3.03 z" opacity="0.05" visibility="visible" fill="#474747" display="inline" fill-rule="nonzero" stroke="none" fill-opacity="1" color="#000"/></g><g><use opacity="0.05" stroke-opacity="1" stroke-dasharray="none" fill="#000" stroke="#000" stroke-width="2" stroke-miterlimit="4" xlink:href="#SVGCleanerId_0"/><use opacity="0.1" stroke-opacity="1" stroke-dasharray="none" fill="#000" stroke="#000" stroke-width="1" stroke-miterlimit="4" xlink:href="#SVGCleanerId_0"/></g><g><g clip-path="url(#clipPath-081502615)"><g transform="translate(0,1)"><g opacity="0.1"><!-- color: #474747 --><g><use fill="#000" xlink:href="#SVGCleanerId_1"/><use fill="#000" xlink:href="#SVGCleanerId_3"/><use fill="#000" xlink:href="#SVGCleanerId_2"/><path d="m 32.14 20.809 c -1.328 -2.926 -4.305 -4.809 -7.656 -4.809 c -3.43 0 -6.57 2.059 -7.801 5.117 l 2.598 0.965 c 0.824 -2.043 2.918 -3.414 5.203 -3.414 c 2.203 0 4.156 1.223 5.063 3.129 l -1.895 0.727 l 4.852 2.68 l 1.422 -5.074 m -1.785 0.68" fill="#000" stroke="none" fill-rule="nonzero" fill-opacity="1"/><path d="m 24.473 29.336 c -2.188 0 -4.18 -1.262 -5.074 -3.156 l 1.867 -0.691 l -4.797 -2.625 l -1.469 4.941 l 1.793 -0.664 c 1.301 2.922 4.352 4.859 7.68 4.859 c 3.445 0 6.488 -1.977 7.77 -5.04 l -2.59 -0.988 c -0.848 2.039 -2.883 3.359 -5.176 3.359 m -0.004 0" fill="#000" stroke="none" fill-rule="nonzero" fill-opacity="1"/><use fill="#000" xlink:href="#SVGCleanerId_1"/><use fill="#000" xlink:href="#SVGCleanerId_3"/><use fill="#000" xlink:href="#SVGCleanerId_2"/></g></g></g></g></g><g><g clip-path="url(#clipPath-093228380)"><!-- color: #474747 --><g><use fill="#f9f9f9" xlink:href="#SVGCleanerId_1"/><path d="m 36 19.664 l -9.199 -8.664 c -0.004 4.332 0 6.496 0 7.582 c 0 1.082 0 1.082 1.152 1.082 c 1.152 0 4.711 0.016 8.05 0 m -0.004 0" fill="#dedede" stroke="none" fill-rule="nonzero" fill-opacity="1"/><use fill="#b20404" xlink:href="#SVGCleanerId_2"/><path d="m 32.14 20.809 c -1.328 -2.926 -4.305 -4.809 -7.656 -4.809 c -3.43 0 -6.57 2.059 -7.801 5.117 l 2.598 0.965 c 0.824 -2.043 2.918 -3.414 5.203 -3.414 c 2.203 0 4.156 1.223 5.063 3.129 l -1.895 0.727 l 4.852 2.68 l 1.422 -5.074 m -1.785 0.68" fill="#deba43" stroke="none" fill-rule="nonzero" fill-opacity="1"/><path d="m 24.473 29.336 c -2.188 0 -4.18 -1.262 -5.074 -3.156 l 1.867 -0.691 l -4.797 -2.625 l -1.469 4.941 l 1.793 -0.664 c 1.301 2.922 4.352 4.859 7.68 4.859 c 3.445 0 6.488 -1.977 7.77 -5.04 l -2.59 -0.988 c -0.848 2.039 -2.883 3.359 -5.176 3.359 m -0.004 0" fill="#355395" stroke="none" fill-rule="nonzero" fill-opacity="1"/><use fill="#f9f9f9" xlink:href="#SVGCleanerId_1"/><use fill="#dedede" xlink:href="#SVGCleanerId_3"/><use fill="#b20404" xlink:href="#SVGCleanerId_2"/></g></g></g><g><path d="m 20 4 -7.313 3.03 -5.656 5.656 -3.03 7.313 0 8 3.03 7.313 5.656 5.656 7.313 3.03 8 0 7.313 -3.03 5.656 -5.656 3.03 -7.313 0 -8 -3.03 -7.313 -5.656 -5.656 -7.313 -3.03 -8 0 z" clip-path="url(#clipPath4313)" transform="matrix(0,1,-1,0,48,0)" opacity="0.3" stroke-opacity="1" stroke-dasharray="none" visibility="visible" fill="none" display="inline" stroke="url(#linearGradient4375)" color="#000" stroke-width="1" stroke-miterlimit="4"/><path d="m 24 2.344 -4 1.656 -4.281 0 -3.03 3.03 l -4 1.656 -1.656 4 l -3.03 3.03 0 4.281 -1.656 4 1.656 4 l 0 4.281 3.03 3.03 1.656 4 4 1.656 l 3.03 3.03 4.281 0 4 1.656 4 -1.656 l 4.281 0 3.03 -3.03 4 -1.656 1.656 -4 l 3.03 -3.03 0 -4.281 1.656 -4 -1.656 -4 l 0 -4.281 -3.03 -3.03 -1.656 -4 -4 -1.656 l -3.03 -3.03 -4.281 0 -4 -1.656 z" clip-path="url(#clipPath4329)" opacity="0.2" stroke-opacity="1" visibility="visible" fill="none" display="inline" stroke="#000" color="#000" stroke-width="2"/></g></svg>