<svg viewBox="0 0 48 48" xmlns:xlink="http://www.w3.org/1999/xlink"><defs><clipPath clipPathUnits="userSpaceOnUse" id="clipPath4313"><path d="m 20 4 -7.313 3.03 -5.656 5.656 -3.03 7.313 0 8 3.03 7.313 5.656 5.656 7.313 3.03 8 0 7.313 -3.03 5.656 -5.656 3.03 -7.313 0 -8 -3.03 -7.313 -5.656 -5.656 -7.313 -3.03 -8 0 z"/></clipPath><clipPath clipPathUnits="userSpaceOnUse" id="clipPath4329"><path d="m 24 2.344 -4 1.656 -4.281 0 -3.03 3.03 l -4 1.656 -1.656 4 l -3.03 3.03 0 4.281 -1.656 4 1.656 4 l 0 4.281 3.03 3.03 1.656 4 4 1.656 l 3.03 3.03 4.281 0 4 1.656 4 -1.656 l 4.281 0 3.03 -3.03 4 -1.656 1.656 -4 l 3.03 -3.03 0 -4.281 1.656 -4 -1.656 -4 l 0 -4.281 -3.03 -3.03 -1.656 -4 -4 -1.656 l -3.03 -3.03 -4.281 0 -4 -1.656 z"/></clipPath><clipPath id="clipPath-729268209"><path d="m 24 2.344 l -4 1.656 l -4.281 0 l -3.03 3.03 l -4 1.656 l -1.656 4 l -3.03 3.03 l 0 4.281 l -1.656 4 l 1.656 4 l 0 4.281 l 3.03 3.03 l 1.656 4 l 4 1.656 l 3.03 3.03 l 4.281 0 l 4 1.656 l 4 -1.656 l 4.281 0 l 3.03 -3.03 l 4 -1.656 l 1.656 -4 l 3.03 -3.03 l 0 -4.281 l 1.656 -4 l -1.656 -4 l 0 -4.281 l -3.03 -3.03 l -1.656 -4 l -4 -1.656 l -3.03 -3.03 l -4.281 0 l -4 -1.656 z"/></clipPath><clipPath id="clipPath-740762173"><path d="m 24 2.344 l -4 1.656 l -4.281 0 l -3.03 3.03 l -4 1.656 l -1.656 4 l -3.03 3.03 l 0 4.281 l -1.656 4 l 1.656 4 l 0 4.281 l 3.03 3.03 l 1.656 4 l 4 1.656 l 3.03 3.03 l 4.281 0 l 4 1.656 l 4 -1.656 l 4.281 0 l 3.03 -3.03 l 4 -1.656 l 1.656 -4 l 3.03 -3.03 l 0 -4.281 l 1.656 -4 l -1.656 -4 l 0 -4.281 l -3.03 -3.03 l -1.656 -4 l -4 -1.656 l -3.03 -3.03 l -4.281 0 l -4 -1.656 z"/></clipPath><linearGradient id="linearGradient4317"><stop stop-color="#fff" stop-opacity="1"/><stop offset="1" stop-color="#fff" stop-opacity="0"/></linearGradient><clipPath clipPathUnits="userSpaceOnUse" id="clipPath4313"><path d="m 20 4 -7.313 3.03 -5.656 5.656 -3.03 7.313 0 8 3.03 7.313 5.656 5.656 7.313 3.03 8 0 7.313 -3.03 5.656 -5.656 3.03 -7.313 0 -8 -3.03 -7.313 -5.656 -5.656 -7.313 -3.03 -8 0 z"/></clipPath><linearGradient x2="44" x1="4" gradientUnits="userSpaceOnUse" id="linearGradient4375" xlink:href="#linearGradient4317"/><clipPath clipPathUnits="userSpaceOnUse" id="clipPath4329"><path d="m 24 2.344 -4 1.656 -4.281 0 -3.03 3.03 l -4 1.656 -1.656 4 l -3.03 3.03 0 4.281 -1.656 4 1.656 4 l 0 4.281 3.03 3.03 1.656 4 4 1.656 l 3.03 3.03 4.281 0 4 1.656 4 -1.656 l 4.281 0 3.03 -3.03 4 -1.656 1.656 -4 l 3.03 -3.03 0 -4.281 1.656 -4 -1.656 -4 l 0 -4.281 -3.03 -3.03 -1.656 -4 -4 -1.656 l -3.03 -3.03 -4.281 0 -4 -1.656 z"/></clipPath><path id="SVGCleanerId_0" d="m 24 2.344 l -4 1.656 l -4.281 0 l -3.03 3.03 l -4 1.656 l -1.656 4 l -3.03 3.03 l 0 4.281 l -1.656 4 l 1.656 4 l 0 4.281 l 3.03 3.03 l 1.656 4 l 4 1.656 l 3.03 3.03 l 4.281 0 l 4 1.656 l 4 -1.656 l 4.281 0 l 3.03 -3.03 l 4 -1.656 l 1.656 -4 l 3.03 -3.03 l 0 -4.281 l 1.656 -4 l -1.656 -4 l 0 -4.281 l -3.03 -3.03 l -1.656 -4 l -4 -1.656 l -3.03 -3.03 l -4.281 0 l -4 -1.656 z" visibility="visible" display="inline" fill-rule="nonzero" color="#000" fill-opacity="1"/></defs><g><path d="m 2.563 24.5 l -0.219 0.5 l 1.656 4 l 0 -1 l -1.438 -3.5 z m 42.875 0 l -1.438 3.5 l 0 1 l 1.656 -4 l -0.219 -0.5 z m -41.44 7.781 l 0 1 l 3.03 3.03 l 1.656 4 l 4 1.656 l 3.03 3.03 l 4.281 0 l 4 1.656 l 4 -1.656 l 4.281 0 l 3.03 -3.03 l 4 -1.656 l 1.656 -4 l 3.03 -3.03 l 0 -1 l -3.03 3.03 l -1.656 4 l -4 1.656 l -3.03 3.03 l -4.281 0 l -4 1.656 l -4 -1.656 l -4.281 0 l -3.03 -3.03 l -4 -1.656 l -1.656 -4 l -3.03 -3.03 z" opacity="0.3" visibility="visible" fill="#000" display="inline" fill-rule="nonzero" stroke="none" fill-opacity="1" color="#000"/></g><g><use fill="#eee" stroke="none" xlink:href="#SVGCleanerId_0"/><path d="m 24 2.344 l -4 1.656 l 8 0 l -4 -1.656 z m 4 1.656 l 7.313 3.03 l -3.03 -3.03 l -4.281 0 z m 7.313 3.03 l 5.656 5.656 l -1.656 -4 l -4 -1.656 z m 5.656 5.656 l 3.03 7.313 l 0 -4.281 l -3.03 -3.03 z m 3.03 7.313 l 0 8 l 1.656 -4 l -1.656 -4 z m 0 8 l -3.03 7.313 l 3.03 -3.03 l 0 -4.281 z m -3.03 7.313 l -5.656 5.656 l 4 -1.656 l 1.656 -4 z m -5.656 5.656 l -7.313 3.03 l 4.281 0 l 3.03 -3.03 z m -7.313 3.03 l -8 0 l 4 1.656 l 4 -1.656 z m -8 0 l -7.313 -3.03 l 3.03 3.03 l 4.281 0 z m -7.313 -3.03 l -5.656 -5.656 l 1.656 4 l 4 1.656 z m -5.656 -5.656 l -3.03 -7.313 l 0 4.281 l 3.03 3.03 z m -3.03 -7.313 l 0 -8 l -1.656 4 l 1.656 4 z m 0 -8 l 3.03 -7.313 l -3.03 3.03 l 0 4.281 z m 3.03 -7.313 l 5.656 -5.656 l -4 1.656 l -1.656 4 z m 5.656 -5.656 l 7.313 -3.03 l -4.281 0 l -3.03 3.03 z" opacity="0.05" visibility="visible" fill="#eee" display="inline" fill-rule="nonzero" stroke="none" fill-opacity="1" color="#000"/></g><g><use opacity="0.05" stroke-opacity="1" stroke-dasharray="none" fill="#000" stroke="#000" stroke-width="2" stroke-miterlimit="4" xlink:href="#SVGCleanerId_0"/><use opacity="0.1" stroke-opacity="1" stroke-dasharray="none" fill="#000" stroke="#000" stroke-width="1" stroke-miterlimit="4" xlink:href="#SVGCleanerId_0"/></g><g><g clip-path="url(#clipPath-729268209)"><g transform="translate(0,1)"><g opacity="0.1"><!-- color: #eeeeee --><g><path d="m 36.727 23.254 c -0.273 -0.352 -0.57 -0.68 -0.871 -1 c -1.621 -1.754 -3.48 -3.316 -5.52 -4.445 c -1.297 -0.723 -2.691 -1.309 -4.133 -1.586 c -0.734 -0.145 -1.453 -0.219 -2.207 -0.219 c -0.734 0 -1.469 0.074 -2.203 0.219 c -1.441 0.277 -2.828 0.863 -4.129 1.586 c -2.039 1.133 -3.898 2.691 -5.52 4.445 c -0.301 0.32 -0.598 0.652 -0.871 1 c -0.359 0.469 -0.359 1.023 0 1.492 c 0.832 1.07 1.82 2.02 2.82 2.891 c 2.164 1.875 4.637 3.441 7.363 4.074 c 0.844 0.195 1.691 0.293 2.543 0.293 c 0.855 0 1.699 -0.098 2.543 -0.293 c 2.727 -0.629 5.203 -2.199 7.371 -4.074 c 1 -0.871 1.992 -1.82 2.82 -2.891 c 0.359 -0.469 0.359 -1.023 0 -1.492 m -0.008 0" fill="#000" stroke="none" fill-rule="nonzero" fill-opacity="1"/><path d="m 23.648 18.05 c -1.047 0.32 -0.129 1.813 -1.625 2.543 c -1.711 0.836 -2.559 -1.273 -3.586 0.23 c -1.027 1.504 1.41 1.27 1.344 3.043 c -0.07 1.77 -2.488 1.395 -1.578 2.957 c 0.906 1.563 1.914 -0.492 3.543 0.445 c 1.641 0.934 0.07 2.664 2 2.723 c 1.934 0.059 0.5 -1.758 2.211 -2.594 c 1.707 -0.84 2.559 1.27 3.586 -0.23 c 1.027 -1.508 -1.414 -1.273 -1.344 -3.043 c 0.07 -1.77 2.484 -1.395 1.578 -2.957 c -0.906 -1.563 -1.918 0.488 -3.543 -0.445 c -1.641 -0.941 -0.07 -2.668 -2 -2.727 c -0.242 -0.008 -0.438 0.008 -0.586 0.051 m 0.016 4.508 c 0.867 -0.168 1.715 0.34 1.898 1.137 c 0.184 0.793 -0.371 1.574 -1.23 1.742 c -0.863 0.172 -1.711 -0.336 -1.895 -1.133 c -0.184 -0.793 0.367 -1.574 1.227 -1.746 m 0 0" fill="#000" stroke="none" fill-rule="nonzero" fill-opacity="1"/></g></g></g></g></g><g><g clip-path="url(#clipPath-740762173)"><!-- color: #eeeeee --><g><path d="m 36.727 23.254 c -0.273 -0.352 -0.57 -0.68 -0.871 -1 c -1.621 -1.754 -3.48 -3.316 -5.52 -4.445 c -1.297 -0.723 -2.691 -1.309 -4.133 -1.586 c -0.734 -0.145 -1.453 -0.219 -2.207 -0.219 c -0.734 0 -1.469 0.074 -2.203 0.219 c -1.441 0.277 -2.828 0.863 -4.129 1.586 c -2.039 1.133 -3.898 2.691 -5.52 4.445 c -0.301 0.32 -0.598 0.652 -0.871 1 c -0.359 0.469 -0.359 1.023 0 1.492 c 0.832 1.07 1.82 2.02 2.82 2.891 c 2.164 1.875 4.637 3.441 7.363 4.074 c 0.844 0.195 1.691 0.293 2.543 0.293 c 0.855 0 1.699 -0.098 2.543 -0.293 c 2.727 -0.629 5.203 -2.199 7.371 -4.074 c 1 -0.871 1.992 -1.82 2.82 -2.891 c 0.359 -0.469 0.359 -1.023 0 -1.492 m -0.008 0" fill="#515151" stroke="none" fill-rule="nonzero" fill-opacity="1"/><path d="m 23.648 18.05 c -1.047 0.32 -0.129 1.813 -1.625 2.543 c -1.711 0.836 -2.559 -1.273 -3.586 0.23 c -1.027 1.504 1.41 1.27 1.344 3.043 c -0.07 1.77 -2.488 1.395 -1.578 2.957 c 0.906 1.563 1.914 -0.492 3.543 0.445 c 1.641 0.934 0.07 2.664 2 2.723 c 1.934 0.059 0.5 -1.758 2.211 -2.594 c 1.707 -0.84 2.559 1.27 3.586 -0.23 c 1.027 -1.508 -1.414 -1.273 -1.344 -3.043 c 0.07 -1.77 2.484 -1.395 1.578 -2.957 c -0.906 -1.563 -1.918 0.488 -3.543 -0.445 c -1.641 -0.941 -0.07 -2.668 -2 -2.727 c -0.242 -0.008 -0.438 0.008 -0.586 0.051 m 0.016 4.508 c 0.867 -0.168 1.715 0.34 1.898 1.137 c 0.184 0.793 -0.371 1.574 -1.23 1.742 c -0.863 0.172 -1.711 -0.336 -1.895 -1.133 c -0.184 -0.793 0.367 -1.574 1.227 -1.746 m 0 0" fill="#84e55b" stroke="none" fill-rule="nonzero" fill-opacity="1"/></g></g></g><g><path d="m 20 4 -7.313 3.03 -5.656 5.656 -3.03 7.313 0 8 3.03 7.313 5.656 5.656 7.313 3.03 8 0 7.313 -3.03 5.656 -5.656 3.03 -7.313 0 -8 -3.03 -7.313 -5.656 -5.656 -7.313 -3.03 -8 0 z" clip-path="url(#clipPath4313)" transform="matrix(0,1,-1,0,48,0)" opacity="0.3" stroke-opacity="1" stroke-dasharray="none" visibility="visible" fill="none" display="inline" stroke="url(#linearGradient4375)" color="#000" stroke-width="1" stroke-miterlimit="4"/><path d="m 24 2.344 -4 1.656 -4.281 0 -3.03 3.03 l -4 1.656 -1.656 4 l -3.03 3.03 0 4.281 -1.656 4 1.656 4 l 0 4.281 3.03 3.03 1.656 4 4 1.656 l 3.03 3.03 4.281 0 4 1.656 4 -1.656 l 4.281 0 3.03 -3.03 4 -1.656 1.656 -4 l 3.03 -3.03 0 -4.281 1.656 -4 -1.656 -4 l 0 -4.281 -3.03 -3.03 -1.656 -4 -4 -1.656 l -3.03 -3.03 -4.281 0 -4 -1.656 z" clip-path="url(#clipPath4329)" opacity="0.2" stroke-opacity="1" visibility="visible" fill="none" display="inline" stroke="#000" color="#000" stroke-width="2"/></g></svg>