<svg viewBox="0 0 48 48" xmlns:xlink="http://www.w3.org/1999/xlink"><defs><clipPath clipPathUnits="userSpaceOnUse" id="clipPath4313"><path d="m 20 4 -7.313 3.03 -5.656 5.656 -3.03 7.313 0 8 3.03 7.313 5.656 5.656 7.313 3.03 8 0 7.313 -3.03 5.656 -5.656 3.03 -7.313 0 -8 -3.03 -7.313 -5.656 -5.656 -7.313 -3.03 -8 0 z"/></clipPath><clipPath clipPathUnits="userSpaceOnUse" id="clipPath4329"><path d="m 24 2.344 -4 1.656 -4.281 0 -3.03 3.03 l -4 1.656 -1.656 4 l -3.03 3.03 0 4.281 -1.656 4 1.656 4 l 0 4.281 3.03 3.03 1.656 4 4 1.656 l 3.03 3.03 4.281 0 4 1.656 4 -1.656 l 4.281 0 3.03 -3.03 4 -1.656 1.656 -4 l 3.03 -3.03 0 -4.281 1.656 -4 -1.656 -4 l 0 -4.281 -3.03 -3.03 -1.656 -4 -4 -1.656 l -3.03 -3.03 -4.281 0 -4 -1.656 z"/></clipPath><clipPath id="clipPath-130361901"><path d="m 24 2.344 l -4 1.656 l -4.281 0 l -3.03 3.03 l -4 1.656 l -1.656 4 l -3.03 3.03 l 0 4.281 l -1.656 4 l 1.656 4 l 0 4.281 l 3.03 3.03 l 1.656 4 l 4 1.656 l 3.03 3.03 l 4.281 0 l 4 1.656 l 4 -1.656 l 4.281 0 l 3.03 -3.03 l 4 -1.656 l 1.656 -4 l 3.03 -3.03 l 0 -4.281 l 1.656 -4 l -1.656 -4 l 0 -4.281 l -3.03 -3.03 l -1.656 -4 l -4 -1.656 l -3.03 -3.03 l -4.281 0 l -4 -1.656 z"/></clipPath><clipPath id="clipPath-140951146"><path d="m 24 2.344 l -4 1.656 l -4.281 0 l -3.03 3.03 l -4 1.656 l -1.656 4 l -3.03 3.03 l 0 4.281 l -1.656 4 l 1.656 4 l 0 4.281 l 3.03 3.03 l 1.656 4 l 4 1.656 l 3.03 3.03 l 4.281 0 l 4 1.656 l 4 -1.656 l 4.281 0 l 3.03 -3.03 l 4 -1.656 l 1.656 -4 l 3.03 -3.03 l 0 -4.281 l 1.656 -4 l -1.656 -4 l 0 -4.281 l -3.03 -3.03 l -1.656 -4 l -4 -1.656 l -3.03 -3.03 l -4.281 0 l -4 -1.656 z"/></clipPath><linearGradient id="linearGradient4317"><stop stop-color="#fff" stop-opacity="1"/><stop offset="1" stop-color="#fff" stop-opacity="0"/></linearGradient><clipPath clipPathUnits="userSpaceOnUse" id="clipPath4313"><path d="m 20 4 -7.313 3.03 -5.656 5.656 -3.03 7.313 0 8 3.03 7.313 5.656 5.656 7.313 3.03 8 0 7.313 -3.03 5.656 -5.656 3.03 -7.313 0 -8 -3.03 -7.313 -5.656 -5.656 -7.313 -3.03 -8 0 z"/></clipPath><linearGradient x2="44" x1="4" gradientUnits="userSpaceOnUse" id="linearGradient4375" xlink:href="#linearGradient4317"/><clipPath clipPathUnits="userSpaceOnUse" id="clipPath4329"><path d="m 24 2.344 -4 1.656 -4.281 0 -3.03 3.03 l -4 1.656 -1.656 4 l -3.03 3.03 0 4.281 -1.656 4 1.656 4 l 0 4.281 3.03 3.03 1.656 4 4 1.656 l 3.03 3.03 4.281 0 4 1.656 4 -1.656 l 4.281 0 3.03 -3.03 4 -1.656 1.656 -4 l 3.03 -3.03 0 -4.281 1.656 -4 -1.656 -4 l 0 -4.281 -3.03 -3.03 -1.656 -4 -4 -1.656 l -3.03 -3.03 -4.281 0 -4 -1.656 z"/></clipPath><path id="SVGCleanerId_0" d="m 24 2.344 l -4 1.656 l -4.281 0 l -3.03 3.03 l -4 1.656 l -1.656 4 l -3.03 3.03 l 0 4.281 l -1.656 4 l 1.656 4 l 0 4.281 l 3.03 3.03 l 1.656 4 l 4 1.656 l 3.03 3.03 l 4.281 0 l 4 1.656 l 4 -1.656 l 4.281 0 l 3.03 -3.03 l 4 -1.656 l 1.656 -4 l 3.03 -3.03 l 0 -4.281 l 1.656 -4 l -1.656 -4 l 0 -4.281 l -3.03 -3.03 l -1.656 -4 l -4 -1.656 l -3.03 -3.03 l -4.281 0 l -4 -1.656 z" visibility="visible" display="inline" fill-rule="nonzero" color="#000" fill-opacity="1"/></defs><g><path d="m 2.563 24.5 l -0.219 0.5 l 1.656 4 l 0 -1 l -1.438 -3.5 z m 42.875 0 l -1.438 3.5 l 0 1 l 1.656 -4 l -0.219 -0.5 z m -41.44 7.781 l 0 1 l 3.03 3.03 l 1.656 4 l 4 1.656 l 3.03 3.03 l 4.281 0 l 4 1.656 l 4 -1.656 l 4.281 0 l 3.03 -3.03 l 4 -1.656 l 1.656 -4 l 3.03 -3.03 l 0 -1 l -3.03 3.03 l -1.656 4 l -4 1.656 l -3.03 3.03 l -4.281 0 l -4 1.656 l -4 -1.656 l -4.281 0 l -3.03 -3.03 l -4 -1.656 l -1.656 -4 l -3.03 -3.03 z" opacity="0.3" visibility="visible" fill="#000" display="inline" fill-rule="nonzero" stroke="none" fill-opacity="1" color="#000"/></g><g><use fill="#eee" stroke="none" xlink:href="#SVGCleanerId_0"/><path d="m 24 2.344 l -4 1.656 l 8 0 l -4 -1.656 z m 4 1.656 l 7.313 3.03 l -3.03 -3.03 l -4.281 0 z m 7.313 3.03 l 5.656 5.656 l -1.656 -4 l -4 -1.656 z m 5.656 5.656 l 3.03 7.313 l 0 -4.281 l -3.03 -3.03 z m 3.03 7.313 l 0 8 l 1.656 -4 l -1.656 -4 z m 0 8 l -3.03 7.313 l 3.03 -3.03 l 0 -4.281 z m -3.03 7.313 l -5.656 5.656 l 4 -1.656 l 1.656 -4 z m -5.656 5.656 l -7.313 3.03 l 4.281 0 l 3.03 -3.03 z m -7.313 3.03 l -8 0 l 4 1.656 l 4 -1.656 z m -8 0 l -7.313 -3.03 l 3.03 3.03 l 4.281 0 z m -7.313 -3.03 l -5.656 -5.656 l 1.656 4 l 4 1.656 z m -5.656 -5.656 l -3.03 -7.313 l 0 4.281 l 3.03 3.03 z m -3.03 -7.313 l 0 -8 l -1.656 4 l 1.656 4 z m 0 -8 l 3.03 -7.313 l -3.03 3.03 l 0 4.281 z m 3.03 -7.313 l 5.656 -5.656 l -4 1.656 l -1.656 4 z m 5.656 -5.656 l 7.313 -3.03 l -4.281 0 l -3.03 3.03 z" opacity="0.05" visibility="visible" fill="#eee" display="inline" fill-rule="nonzero" stroke="none" fill-opacity="1" color="#000"/></g><g><use opacity="0.05" stroke-opacity="1" stroke-dasharray="none" fill="#000" stroke="#000" stroke-width="2" stroke-miterlimit="4" xlink:href="#SVGCleanerId_0"/><use opacity="0.1" stroke-opacity="1" stroke-dasharray="none" fill="#000" stroke="#000" stroke-width="1" stroke-miterlimit="4" xlink:href="#SVGCleanerId_0"/></g><g><g clip-path="url(#clipPath-130361901)"><g transform="translate(0,1)"><g opacity="0.1"><!-- color: #eeeeee --><g><path d="m 11.129 36.898 c -0.07 -0.074 -0.129 -3.684 -0.125 -8.02 c 0 -8.84 0.082 -9.617 1.238 -12.02 c 1.695 -3.531 5.641 -5.941 9.574 -5.855 c 0.582 0.012 1.305 0.074 1.609 0.145 c 0.543 0.121 0.531 0.137 -0.941 1.289 c -4.313 3.375 -6.621 9.238 -4.73 11.992 c 0.313 0.453 0.934 1.09 1.383 1.41 c 0.688 0.492 1.031 0.598 2.199 0.656 c 1.195 0.063 1.512 0.004 2.363 -0.438 c 2.953 -2.242 3.543 -7.02 7.465 -7.125 c 0.676 0 0.727 0.043 0.867 0.727 c 0.254 1.238 0.145 3.957 -0.211 5.199 c -1.34 4.676 -5.496 7.855 -10.293 7.871 c -0.641 0.004 -1.828 -0.172 -2.645 -0.387 c -0.82 -0.215 -1.555 -0.395 -1.641 -0.395 c -0.086 0 -0.176 1.117 -0.207 2.48 l -0.051 2.477 l -2.859 0.059 c -1.574 0.023 -2.922 -0.012 -2.996 -0.082 m 9.02 -12.04 c 20.824 7.73 10.41 3.859 0 0 m 0 0" fill="#000" stroke="none" fill-rule="nonzero" fill-opacity="1"/><path d="m 29.523 36.902 c -2.051 -0.414 -2.625 -0.578 -3.637 -1.043 c -1.523 -0.703 -2.691 -1.52 -2.336 -1.621 c 2.992 -0.875 4.117 -1.406 5.691 -2.68 l 1.031 -0.832 l 2.266 0.059 c 1.246 0.031 2.449 0.125 2.676 0.215 c 0.633 0.25 1.59 1.473 1.723 2.219 c 0.262 1.418 -0.441 2.855 -1.676 3.426 c -0.656 0.305 -1.215 0.367 -3.082 0.355 c -1.254 -0.012 -2.453 -0.055 -2.66 -0.098 m -9.43 -12.348 c -0.859 -0.512 -1.492 -1.625 -1.492 -2.641 c 0 -0.914 0.48 -2.402 1.328 -4.133 c 0.895 -1.824 3.43 -4.344 5.32 -5.289 c 2.309 -1.148 3.402 -1.352 6.918 -1.281 c 2.703 0.055 3.121 0.105 3.578 0.449 c 0.621 0.469 1.336 1.863 1.25 2.453 c -0.098 0.668 -1.277 1 -3.035 0.855 c -1.711 -0.148 -1.953 0.039 -1.156 0.852 c 0.395 0.406 0.813 0.602 1.484 0.691 c 0.512 0.066 1.063 0.145 1.219 0.168 c 0.195 0.035 0.133 0.137 -0.191 0.328 c -0.324 0.188 -1.336 0.313 -3.23 0.383 c -2.445 0.09 -2.875 0.16 -3.801 0.602 c -1.113 0.539 -2.5 1.824 -2.977 2.773 c -0.16 0.32 -0.457 1.063 -0.656 1.656 c -0.586 1.73 -1.57 2.559 -3.055 2.547 c -0.48 -0.004 -1.102 -0.172 -1.512 -0.414 m 14.254 -10.898 c 0.563 -0.578 0.016 -1.902 -0.785 -1.902 c -0.898 0 -1.406 1.188 -0.777 1.832 c 0.352 0.355 1.238 0.398 1.563 0.066 m 0 0.004" fill="#000" stroke="none" fill-rule="nonzero" fill-opacity="1"/></g></g></g></g></g><g><g clip-path="url(#clipPath-140951146)"><!-- color: #eeeeee --><g><path d="m 11.129 36.898 c -0.07 -0.074 -0.129 -3.684 -0.125 -8.02 c 0 -8.84 0.082 -9.617 1.238 -12.02 c 1.695 -3.531 5.641 -5.941 9.574 -5.855 c 0.582 0.012 1.305 0.074 1.609 0.145 c 0.543 0.121 0.531 0.137 -0.941 1.289 c -4.313 3.375 -6.621 9.238 -4.73 11.992 c 0.313 0.453 0.934 1.09 1.383 1.41 c 0.688 0.492 1.031 0.598 2.199 0.656 c 1.195 0.063 1.512 0.004 2.363 -0.438 c 2.953 -2.242 3.543 -7.02 7.465 -7.125 c 0.676 0 0.727 0.043 0.867 0.727 c 0.254 1.238 0.145 3.957 -0.211 5.199 c -1.34 4.676 -5.496 7.855 -10.293 7.871 c -0.641 0.004 -1.828 -0.172 -2.645 -0.387 c -0.82 -0.215 -1.555 -0.395 -1.641 -0.395 c -0.086 0 -0.176 1.117 -0.207 2.48 l -0.051 2.477 l -2.859 0.059 c -1.574 0.023 -2.922 -0.012 -2.996 -0.082 m 9.02 -12.04 c 20.824 7.73 10.41 3.859 0 0 m 0 0" fill="#f28e0a" stroke="none" fill-rule="nonzero" fill-opacity="1"/><path d="m 29.523 36.902 c -2.051 -0.414 -2.625 -0.578 -3.637 -1.043 c -1.523 -0.703 -2.691 -1.52 -2.336 -1.621 c 2.992 -0.875 4.117 -1.406 5.691 -2.68 l 1.031 -0.832 l 2.266 0.059 c 1.246 0.031 2.449 0.125 2.676 0.215 c 0.633 0.25 1.59 1.473 1.723 2.219 c 0.262 1.418 -0.441 2.855 -1.676 3.426 c -0.656 0.305 -1.215 0.367 -3.082 0.355 c -1.254 -0.012 -2.453 -0.055 -2.66 -0.098 m -9.43 -12.348 c -0.859 -0.512 -1.492 -1.625 -1.492 -2.641 c 0 -0.914 0.48 -2.402 1.328 -4.133 c 0.895 -1.824 3.43 -4.344 5.32 -5.289 c 2.309 -1.148 3.402 -1.352 6.918 -1.281 c 2.703 0.055 3.121 0.105 3.578 0.449 c 0.621 0.469 1.336 1.863 1.25 2.453 c -0.098 0.668 -1.277 1 -3.035 0.855 c -1.711 -0.148 -1.953 0.039 -1.156 0.852 c 0.395 0.406 0.813 0.602 1.484 0.691 c 0.512 0.066 1.063 0.145 1.219 0.168 c 0.195 0.035 0.133 0.137 -0.191 0.328 c -0.324 0.188 -1.336 0.313 -3.23 0.383 c -2.445 0.09 -2.875 0.16 -3.801 0.602 c -1.113 0.539 -2.5 1.824 -2.977 2.773 c -0.16 0.32 -0.457 1.063 -0.656 1.656 c -0.586 1.73 -1.57 2.559 -3.055 2.547 c -0.48 -0.004 -1.102 -0.172 -1.512 -0.414 m 14.254 -10.898 c 0.563 -0.578 0.016 -1.902 -0.785 -1.902 c -0.898 0 -1.406 1.188 -0.777 1.832 c 0.352 0.355 1.238 0.398 1.563 0.066 m 0 0.004" fill="#45703e" stroke="none" fill-rule="nonzero" fill-opacity="1"/></g></g></g><g><path d="m 20 4 -7.313 3.03 -5.656 5.656 -3.03 7.313 0 8 3.03 7.313 5.656 5.656 7.313 3.03 8 0 7.313 -3.03 5.656 -5.656 3.03 -7.313 0 -8 -3.03 -7.313 -5.656 -5.656 -7.313 -3.03 -8 0 z" clip-path="url(#clipPath4313)" transform="matrix(0,1,-1,0,48,0)" opacity="0.3" stroke-opacity="1" stroke-dasharray="none" visibility="visible" fill="none" display="inline" stroke="url(#linearGradient4375)" color="#000" stroke-width="1" stroke-miterlimit="4"/><path d="m 24 2.344 -4 1.656 -4.281 0 -3.03 3.03 l -4 1.656 -1.656 4 l -3.03 3.03 0 4.281 -1.656 4 1.656 4 l 0 4.281 3.03 3.03 1.656 4 4 1.656 l 3.03 3.03 4.281 0 4 1.656 4 -1.656 l 4.281 0 3.03 -3.03 4 -1.656 1.656 -4 l 3.03 -3.03 0 -4.281 1.656 -4 -1.656 -4 l 0 -4.281 -3.03 -3.03 -1.656 -4 -4 -1.656 l -3.03 -3.03 -4.281 0 -4 -1.656 z" clip-path="url(#clipPath4329)" opacity="0.2" stroke-opacity="1" visibility="visible" fill="none" display="inline" stroke="#000" color="#000" stroke-width="2"/></g></svg>