<svg viewBox="0 0 48 48" xmlns:xlink="http://www.w3.org/1999/xlink"><defs><clipPath clipPathUnits="userSpaceOnUse" id="clipPath4313"><path d="m 20 4 -7.313 3.03 -5.656 5.656 -3.03 7.313 0 8 3.03 7.313 5.656 5.656 7.313 3.03 8 0 7.313 -3.03 5.656 -5.656 3.03 -7.313 0 -8 -3.03 -7.313 -5.656 -5.656 -7.313 -3.03 -8 0 z"/></clipPath><clipPath clipPathUnits="userSpaceOnUse" id="clipPath4329"><path d="m 24 2.344 -4 1.656 -4.281 0 -3.03 3.03 l -4 1.656 -1.656 4 l -3.03 3.03 0 4.281 -1.656 4 1.656 4 l 0 4.281 3.03 3.03 1.656 4 4 1.656 l 3.03 3.03 4.281 0 4 1.656 4 -1.656 l 4.281 0 3.03 -3.03 4 -1.656 1.656 -4 l 3.03 -3.03 0 -4.281 1.656 -4 -1.656 -4 l 0 -4.281 -3.03 -3.03 -1.656 -4 -4 -1.656 l -3.03 -3.03 -4.281 0 -4 -1.656 z"/></clipPath><clipPath id="clipPath-927492601"><path d="m 24 2.344 l -4 1.656 l -4.281 0 l -3.03 3.03 l -4 1.656 l -1.656 4 l -3.03 3.03 l 0 4.281 l -1.656 4 l 1.656 4 l 0 4.281 l 3.03 3.03 l 1.656 4 l 4 1.656 l 3.03 3.03 l 4.281 0 l 4 1.656 l 4 -1.656 l 4.281 0 l 3.03 -3.03 l 4 -1.656 l 1.656 -4 l 3.03 -3.03 l 0 -4.281 l 1.656 -4 l -1.656 -4 l 0 -4.281 l -3.03 -3.03 l -1.656 -4 l -4 -1.656 l -3.03 -3.03 l -4.281 0 l -4 -1.656 z"/></clipPath><clipPath id="clipPath-937680984"><path d="m 24 2.344 l -4 1.656 l -4.281 0 l -3.03 3.03 l -4 1.656 l -1.656 4 l -3.03 3.03 l 0 4.281 l -1.656 4 l 1.656 4 l 0 4.281 l 3.03 3.03 l 1.656 4 l 4 1.656 l 3.03 3.03 l 4.281 0 l 4 1.656 l 4 -1.656 l 4.281 0 l 3.03 -3.03 l 4 -1.656 l 1.656 -4 l 3.03 -3.03 l 0 -4.281 l 1.656 -4 l -1.656 -4 l 0 -4.281 l -3.03 -3.03 l -1.656 -4 l -4 -1.656 l -3.03 -3.03 l -4.281 0 l -4 -1.656 z"/></clipPath><linearGradient id="linearGradient4317"><stop stop-color="#fff" stop-opacity="1"/><stop offset="1" stop-color="#fff" stop-opacity="0"/></linearGradient><clipPath clipPathUnits="userSpaceOnUse" id="clipPath4313"><path d="m 20 4 -7.313 3.03 -5.656 5.656 -3.03 7.313 0 8 3.03 7.313 5.656 5.656 7.313 3.03 8 0 7.313 -3.03 5.656 -5.656 3.03 -7.313 0 -8 -3.03 -7.313 -5.656 -5.656 -7.313 -3.03 -8 0 z"/></clipPath><linearGradient x2="44" x1="4" gradientUnits="userSpaceOnUse" id="linearGradient4375" xlink:href="#linearGradient4317"/><clipPath clipPathUnits="userSpaceOnUse" id="clipPath4329"><path d="m 24 2.344 -4 1.656 -4.281 0 -3.03 3.03 l -4 1.656 -1.656 4 l -3.03 3.03 0 4.281 -1.656 4 1.656 4 l 0 4.281 3.03 3.03 1.656 4 4 1.656 l 3.03 3.03 4.281 0 4 1.656 4 -1.656 l 4.281 0 3.03 -3.03 4 -1.656 1.656 -4 l 3.03 -3.03 0 -4.281 1.656 -4 -1.656 -4 l 0 -4.281 -3.03 -3.03 -1.656 -4 -4 -1.656 l -3.03 -3.03 -4.281 0 -4 -1.656 z"/></clipPath><path id="SVGCleanerId_0" d="m 24 2.344 l -4 1.656 l -4.281 0 l -3.03 3.03 l -4 1.656 l -1.656 4 l -3.03 3.03 l 0 4.281 l -1.656 4 l 1.656 4 l 0 4.281 l 3.03 3.03 l 1.656 4 l 4 1.656 l 3.03 3.03 l 4.281 0 l 4 1.656 l 4 -1.656 l 4.281 0 l 3.03 -3.03 l 4 -1.656 l 1.656 -4 l 3.03 -3.03 l 0 -4.281 l 1.656 -4 l -1.656 -4 l 0 -4.281 l -3.03 -3.03 l -1.656 -4 l -4 -1.656 l -3.03 -3.03 l -4.281 0 l -4 -1.656 z" visibility="visible" display="inline" fill-rule="nonzero" color="#000" fill-opacity="1"/></defs><g><path d="m 2.563 24.5 l -0.219 0.5 l 1.656 4 l 0 -1 l -1.438 -3.5 z m 42.875 0 l -1.438 3.5 l 0 1 l 1.656 -4 l -0.219 -0.5 z m -41.44 7.781 l 0 1 l 3.03 3.03 l 1.656 4 l 4 1.656 l 3.03 3.03 l 4.281 0 l 4 1.656 l 4 -1.656 l 4.281 0 l 3.03 -3.03 l 4 -1.656 l 1.656 -4 l 3.03 -3.03 l 0 -1 l -3.03 3.03 l -1.656 4 l -4 1.656 l -3.03 3.03 l -4.281 0 l -4 1.656 l -4 -1.656 l -4.281 0 l -3.03 -3.03 l -4 -1.656 l -1.656 -4 l -3.03 -3.03 z" opacity="0.3" visibility="visible" fill="#000" display="inline" fill-rule="nonzero" stroke="none" fill-opacity="1" color="#000"/></g><g><use fill="#4fb215" stroke="none" xlink:href="#SVGCleanerId_0"/><path d="m 24 2.344 l -4 1.656 l 8 0 l -4 -1.656 z m 4 1.656 l 7.313 3.03 l -3.03 -3.03 l -4.281 0 z m 7.313 3.03 l 5.656 5.656 l -1.656 -4 l -4 -1.656 z m 5.656 5.656 l 3.03 7.313 l 0 -4.281 l -3.03 -3.03 z m 3.03 7.313 l 0 8 l 1.656 -4 l -1.656 -4 z m 0 8 l -3.03 7.313 l 3.03 -3.03 l 0 -4.281 z m -3.03 7.313 l -5.656 5.656 l 4 -1.656 l 1.656 -4 z m -5.656 5.656 l -7.313 3.03 l 4.281 0 l 3.03 -3.03 z m -7.313 3.03 l -8 0 l 4 1.656 l 4 -1.656 z m -8 0 l -7.313 -3.03 l 3.03 3.03 l 4.281 0 z m -7.313 -3.03 l -5.656 -5.656 l 1.656 4 l 4 1.656 z m -5.656 -5.656 l -3.03 -7.313 l 0 4.281 l 3.03 3.03 z m -3.03 -7.313 l 0 -8 l -1.656 4 l 1.656 4 z m 0 -8 l 3.03 -7.313 l -3.03 3.03 l 0 4.281 z m 3.03 -7.313 l 5.656 -5.656 l -4 1.656 l -1.656 4 z m 5.656 -5.656 l 7.313 -3.03 l -4.281 0 l -3.03 3.03 z" opacity="0.05" visibility="visible" fill="#4fb215" display="inline" fill-rule="nonzero" stroke="none" fill-opacity="1" color="#000"/></g><g><use opacity="0.05" stroke-opacity="1" stroke-dasharray="none" fill="#000" stroke="#000" stroke-width="2" stroke-miterlimit="4" xlink:href="#SVGCleanerId_0"/><use opacity="0.1" stroke-opacity="1" stroke-dasharray="none" fill="#000" stroke="#000" stroke-width="1" stroke-miterlimit="4" xlink:href="#SVGCleanerId_0"/></g><g><g clip-path="url(#clipPath-927492601)"><g transform="translate(0,1)"><g opacity="0.1"><!-- color: #4fb215 --><g><use xlink:href="#SVGCleanerId_1"/><path d="m 29.2 28.551 c 0 -1.688 0 -7.098 0 -7.098 l -1.434 0 l 0 -2.367 c 2.148 0 1.434 0 2.508 -4.055 l 2.863 0 l 0 4.055 l 2.867 0 l 0 2.367 l -2.867 0 l 0 6.082 c 0 0.633 0.141 1.105 0.418 1.426 c 0.273 0.316 0.641 0.48 1.094 0.48 c 0.574 0.051 1.355 -0.215 1.355 -0.215 l 0 2.363 c -0.07 0.051 -3.527 1.043 -5.371 0 c -1.793 -1.012 -1.434 -3.039 -1.434 -3.039 m 0 0" fill="#000" stroke="none" fill-rule="nonzero" fill-opacity="1"/><path d="m 19.2 12.01 c -2.422 0 -4.227 0.867 -5.418 2.602 c -1.188 1.719 -1.781 4.207 -1.781 7.465 c 0 3.328 0.594 5.855 1.781 7.605 c 0.828 1.219 1.941 2.01 3.332 2.375 c 0 0 0.281 -0.012 0.305 0.27 c 0.48 3.68 2.914 3.684 5.688 3.684 c 0 0 0.359 0 0.359 -0.336 l 0 -2.027 c 0 -0.34 -0.359 -0.34 -0.359 -0.34 c -1.387 0 -1.746 0.086 -2.113 -1.227 c 0.477 -0.109 0.902 -0.258 1.316 -0.453 c 0.914 -0.449 1.668 -1.102 2.258 -1.965 c 0.598 -0.867 1.035 -1.938 1.32 -3.211 c 0.297 -1.27 0.441 -2.727 0.441 -4.375 c 0 -3.293 -0.602 -5.797 -1.813 -7.5 c -1.207 -1.711 -2.984 -2.566 -5.316 -2.566 m -0.02 1.648 c 0.512 0 0.895 0.168 1.223 0.52 c 0.191 0.199 0.359 0.457 0.52 0.77 c 0.086 0.227 0.176 0.473 0.242 0.75 c 0.191 0.746 0.324 1.648 0.402 2.723 c 0.078 1.074 0.109 2.293 0.109 3.656 c 0 1.371 -0.031 2.605 -0.109 3.695 c -0.078 1.086 -0.215 2 -0.402 2.766 c -0.07 0.285 -0.152 0.547 -0.242 0.785 c -0.02 0.027 -0.027 0.063 -0.043 0.094 c -0.148 0.273 -0.301 0.508 -0.477 0.695 c -0.324 0.367 -0.715 0.539 -1.223 0.539 c -0.504 0 -0.898 -0.172 -1.219 -0.539 c -0.32 -0.375 -0.582 -0.918 -0.773 -1.648 c -0.191 -0.742 -0.324 -1.645 -0.402 -2.715 c -0.074 -1.078 -0.125 -2.309 -0.125 -3.676 c 0 -1.355 0.043 -2.563 0.125 -3.625 c 0.078 -1.059 0.211 -1.953 0.402 -2.672 c 0.191 -0.719 0.457 -1.254 0.773 -1.605 c 0.32 -0.348 0.711 -0.52 1.219 -0.52 m 0 0.008" fill="#000" stroke="none" fill-rule="nonzero" fill-opacity="1"/></g></g></g></g></g><g><g clip-path="url(#clipPath-937680984)"><!-- color: #4fb215 --><g><path d="m 22.594 9 l 0 20.781 c -1.895 0.363 -3.281 1.402 -3.281 2.656 c 0 1.254 1.387 2.293 3.281 2.66 l 0 3.902 l 2.813 0 l 0 -3.902 c 1.891 -0.363 3.281 -1.406 3.281 -2.66 c 0 -1.254 -1.391 -2.293 -3.281 -2.656 l 0 -20.781 m -13.12 1.875 l 0 5.781 c -1.891 0.363 -3.273 1.402 -3.273 2.66 c 0 1.254 1.391 2.289 3.273 2.656 l 0 15.15 l 2.816 0 l 0 -15.15 c 1.895 -0.363 3.281 -1.402 3.281 -2.656 c 0 -1.258 -1.391 -2.293 -3.281 -2.66 l 0 -5.781 m 17.813 0 l 0 5.781 c -1.891 0.363 -3.277 1.402 -3.277 2.66 c 0 1.254 1.391 2.289 3.277 2.656 l 0 15.15 l 2.816 0 l 0 -15.15 c 1.895 -0.363 3.281 -1.402 3.281 -2.656 c 0 -1.258 -1.391 -2.293 -3.281 -2.66 l 0 -5.781 m -2.816 0" fill="#000" stroke="none" fill-rule="nonzero" fill-opacity="0.392" id="SVGCleanerId_1"/><path d="m 29.2 28.551 c 0 -1.688 0 -7.098 0 -7.098 l -1.434 0 l 0 -2.367 c 2.148 0 1.434 0 2.508 -4.055 l 2.863 0 l 0 4.055 l 2.867 0 l 0 2.367 l -2.867 0 l 0 6.082 c 0 0.633 0.141 1.105 0.418 1.426 c 0.273 0.316 0.641 0.48 1.094 0.48 c 0.574 0.051 1.355 -0.215 1.355 -0.215 l 0 2.363 c -0.07 0.051 -3.527 1.043 -5.371 0 c -1.793 -1.012 -1.434 -3.039 -1.434 -3.039 m 0 0" fill="#fff" stroke="none" fill-rule="nonzero" fill-opacity="1"/><path d="m 19.2 12.01 c -2.422 0 -4.227 0.867 -5.418 2.602 c -1.188 1.719 -1.781 4.207 -1.781 7.465 c 0 3.328 0.594 5.855 1.781 7.605 c 0.828 1.219 1.941 2.01 3.332 2.375 c 0 0 0.281 -0.012 0.305 0.27 c 0.48 3.68 2.914 3.684 5.688 3.684 c 0 0 0.359 0 0.359 -0.336 l 0 -2.027 c 0 -0.34 -0.359 -0.34 -0.359 -0.34 c -1.387 0 -1.746 0.086 -2.113 -1.227 c 0.477 -0.109 0.902 -0.258 1.316 -0.453 c 0.914 -0.449 1.668 -1.102 2.258 -1.965 c 0.598 -0.867 1.035 -1.938 1.32 -3.211 c 0.297 -1.27 0.441 -2.727 0.441 -4.375 c 0 -3.293 -0.602 -5.797 -1.813 -7.5 c -1.207 -1.711 -2.984 -2.566 -5.316 -2.566 m -0.02 1.648 c 0.512 0 0.895 0.168 1.223 0.52 c 0.191 0.199 0.359 0.457 0.52 0.77 c 0.086 0.227 0.176 0.473 0.242 0.75 c 0.191 0.746 0.324 1.648 0.402 2.723 c 0.078 1.074 0.109 2.293 0.109 3.656 c 0 1.371 -0.031 2.605 -0.109 3.695 c -0.078 1.086 -0.215 2 -0.402 2.766 c -0.07 0.285 -0.152 0.547 -0.242 0.785 c -0.02 0.027 -0.027 0.063 -0.043 0.094 c -0.148 0.273 -0.301 0.508 -0.477 0.695 c -0.324 0.367 -0.715 0.539 -1.223 0.539 c -0.504 0 -0.898 -0.172 -1.219 -0.539 c -0.32 -0.375 -0.582 -0.918 -0.773 -1.648 c -0.191 -0.742 -0.324 -1.645 -0.402 -2.715 c -0.074 -1.078 -0.125 -2.309 -0.125 -3.676 c 0 -1.355 0.043 -2.563 0.125 -3.625 c 0.078 -1.059 0.211 -1.953 0.402 -2.672 c 0.191 -0.719 0.457 -1.254 0.773 -1.605 c 0.32 -0.348 0.711 -0.52 1.219 -0.52 m 0 0.008" fill="#fff" stroke="none" fill-rule="nonzero" fill-opacity="1"/></g></g></g><g><path d="m 20 4 -7.313 3.03 -5.656 5.656 -3.03 7.313 0 8 3.03 7.313 5.656 5.656 7.313 3.03 8 0 7.313 -3.03 5.656 -5.656 3.03 -7.313 0 -8 -3.03 -7.313 -5.656 -5.656 -7.313 -3.03 -8 0 z" clip-path="url(#clipPath4313)" transform="matrix(0,1,-1,0,48,0)" opacity="0.3" stroke-opacity="1" stroke-dasharray="none" visibility="visible" fill="none" display="inline" stroke="url(#linearGradient4375)" color="#000" stroke-width="1" stroke-miterlimit="4"/><path d="m 24 2.344 -4 1.656 -4.281 0 -3.03 3.03 l -4 1.656 -1.656 4 l -3.03 3.03 0 4.281 -1.656 4 1.656 4 l 0 4.281 3.03 3.03 1.656 4 4 1.656 l 3.03 3.03 4.281 0 4 1.656 4 -1.656 l 4.281 0 3.03 -3.03 4 -1.656 1.656 -4 l 3.03 -3.03 0 -4.281 1.656 -4 -1.656 -4 l 0 -4.281 -3.03 -3.03 -1.656 -4 -4 -1.656 l -3.03 -3.03 -4.281 0 -4 -1.656 z" clip-path="url(#clipPath4329)" opacity="0.2" stroke-opacity="1" visibility="visible" fill="none" display="inline" stroke="#000" color="#000" stroke-width="2"/></g></svg>