<svg viewBox="0 0 48 48" xmlns:xlink="http://www.w3.org/1999/xlink"><defs><clipPath clipPathUnits="userSpaceOnUse" id="clipPath4313"><path d="m 20 4 -7.313 3.03 -5.656 5.656 -3.03 7.313 0 8 3.03 7.313 5.656 5.656 7.313 3.03 8 0 7.313 -3.03 5.656 -5.656 3.03 -7.313 0 -8 -3.03 -7.313 -5.656 -5.656 -7.313 -3.03 -8 0 z"/></clipPath><clipPath clipPathUnits="userSpaceOnUse" id="clipPath4329"><path d="m 24 2.344 -4 1.656 -4.281 0 -3.03 3.03 l -4 1.656 -1.656 4 l -3.03 3.03 0 4.281 -1.656 4 1.656 4 l 0 4.281 3.03 3.03 1.656 4 4 1.656 l 3.03 3.03 4.281 0 4 1.656 4 -1.656 l 4.281 0 3.03 -3.03 4 -1.656 1.656 -4 l 3.03 -3.03 0 -4.281 1.656 -4 -1.656 -4 l 0 -4.281 -3.03 -3.03 -1.656 -4 -4 -1.656 l -3.03 -3.03 -4.281 0 -4 -1.656 z"/></clipPath><clipPath id="clipPath-379355255"><path d="m 24 2.344 l -4 1.656 l -4.281 0 l -3.03 3.03 l -4 1.656 l -1.656 4 l -3.03 3.03 l 0 4.281 l -1.656 4 l 1.656 4 l 0 4.281 l 3.03 3.03 l 1.656 4 l 4 1.656 l 3.03 3.03 l 4.281 0 l 4 1.656 l 4 -1.656 l 4.281 0 l 3.03 -3.03 l 4 -1.656 l 1.656 -4 l 3.03 -3.03 l 0 -4.281 l 1.656 -4 l -1.656 -4 l 0 -4.281 l -3.03 -3.03 l -1.656 -4 l -4 -1.656 l -3.03 -3.03 l -4.281 0 l -4 -1.656 z"/></clipPath><clipPath id="clipPath-389881964"><path d="m 24 2.344 l -4 1.656 l -4.281 0 l -3.03 3.03 l -4 1.656 l -1.656 4 l -3.03 3.03 l 0 4.281 l -1.656 4 l 1.656 4 l 0 4.281 l 3.03 3.03 l 1.656 4 l 4 1.656 l 3.03 3.03 l 4.281 0 l 4 1.656 l 4 -1.656 l 4.281 0 l 3.03 -3.03 l 4 -1.656 l 1.656 -4 l 3.03 -3.03 l 0 -4.281 l 1.656 -4 l -1.656 -4 l 0 -4.281 l -3.03 -3.03 l -1.656 -4 l -4 -1.656 l -3.03 -3.03 l -4.281 0 l -4 -1.656 z"/></clipPath><linearGradient id="linearGradient4317"><stop stop-color="#fff" stop-opacity="1"/><stop offset="1" stop-color="#fff" stop-opacity="0"/></linearGradient><clipPath clipPathUnits="userSpaceOnUse" id="clipPath4313"><path d="m 20 4 -7.313 3.03 -5.656 5.656 -3.03 7.313 0 8 3.03 7.313 5.656 5.656 7.313 3.03 8 0 7.313 -3.03 5.656 -5.656 3.03 -7.313 0 -8 -3.03 -7.313 -5.656 -5.656 -7.313 -3.03 -8 0 z"/></clipPath><linearGradient x2="44" x1="4" gradientUnits="userSpaceOnUse" id="linearGradient4375" xlink:href="#linearGradient4317"/><clipPath clipPathUnits="userSpaceOnUse" id="clipPath4329"><path d="m 24 2.344 -4 1.656 -4.281 0 -3.03 3.03 l -4 1.656 -1.656 4 l -3.03 3.03 0 4.281 -1.656 4 1.656 4 l 0 4.281 3.03 3.03 1.656 4 4 1.656 l 3.03 3.03 4.281 0 4 1.656 4 -1.656 l 4.281 0 3.03 -3.03 4 -1.656 1.656 -4 l 3.03 -3.03 0 -4.281 1.656 -4 -1.656 -4 l 0 -4.281 -3.03 -3.03 -1.656 -4 -4 -1.656 l -3.03 -3.03 -4.281 0 -4 -1.656 z"/></clipPath><path id="SVGCleanerId_0" d="m 24 2.344 l -4 1.656 l -4.281 0 l -3.03 3.03 l -4 1.656 l -1.656 4 l -3.03 3.03 l 0 4.281 l -1.656 4 l 1.656 4 l 0 4.281 l 3.03 3.03 l 1.656 4 l 4 1.656 l 3.03 3.03 l 4.281 0 l 4 1.656 l 4 -1.656 l 4.281 0 l 3.03 -3.03 l 4 -1.656 l 1.656 -4 l 3.03 -3.03 l 0 -4.281 l 1.656 -4 l -1.656 -4 l 0 -4.281 l -3.03 -3.03 l -1.656 -4 l -4 -1.656 l -3.03 -3.03 l -4.281 0 l -4 -1.656 z" visibility="visible" display="inline" fill-rule="nonzero" color="#000" fill-opacity="1"/></defs><g><path d="m 2.563 24.5 l -0.219 0.5 l 1.656 4 l 0 -1 l -1.438 -3.5 z m 42.875 0 l -1.438 3.5 l 0 1 l 1.656 -4 l -0.219 -0.5 z m -41.44 7.781 l 0 1 l 3.03 3.03 l 1.656 4 l 4 1.656 l 3.03 3.03 l 4.281 0 l 4 1.656 l 4 -1.656 l 4.281 0 l 3.03 -3.03 l 4 -1.656 l 1.656 -4 l 3.03 -3.03 l 0 -1 l -3.03 3.03 l -1.656 4 l -4 1.656 l -3.03 3.03 l -4.281 0 l -4 1.656 l -4 -1.656 l -4.281 0 l -3.03 -3.03 l -4 -1.656 l -1.656 -4 l -3.03 -3.03 z" opacity="0.3" visibility="visible" fill="#000" display="inline" fill-rule="nonzero" stroke="none" fill-opacity="1" color="#000"/></g><g><use fill="#e8e8e8" stroke="none" xlink:href="#SVGCleanerId_0"/><path d="m 24 2.344 l -4 1.656 l 8 0 l -4 -1.656 z m 4 1.656 l 7.313 3.03 l -3.03 -3.03 l -4.281 0 z m 7.313 3.03 l 5.656 5.656 l -1.656 -4 l -4 -1.656 z m 5.656 5.656 l 3.03 7.313 l 0 -4.281 l -3.03 -3.03 z m 3.03 7.313 l 0 8 l 1.656 -4 l -1.656 -4 z m 0 8 l -3.03 7.313 l 3.03 -3.03 l 0 -4.281 z m -3.03 7.313 l -5.656 5.656 l 4 -1.656 l 1.656 -4 z m -5.656 5.656 l -7.313 3.03 l 4.281 0 l 3.03 -3.03 z m -7.313 3.03 l -8 0 l 4 1.656 l 4 -1.656 z m -8 0 l -7.313 -3.03 l 3.03 3.03 l 4.281 0 z m -7.313 -3.03 l -5.656 -5.656 l 1.656 4 l 4 1.656 z m -5.656 -5.656 l -3.03 -7.313 l 0 4.281 l 3.03 3.03 z m -3.03 -7.313 l 0 -8 l -1.656 4 l 1.656 4 z m 0 -8 l 3.03 -7.313 l -3.03 3.03 l 0 4.281 z m 3.03 -7.313 l 5.656 -5.656 l -4 1.656 l -1.656 4 z m 5.656 -5.656 l 7.313 -3.03 l -4.281 0 l -3.03 3.03 z" opacity="0.05" visibility="visible" fill="#e8e8e8" display="inline" fill-rule="nonzero" stroke="none" fill-opacity="1" color="#000"/></g><g><use opacity="0.05" stroke-opacity="1" stroke-dasharray="none" fill="#000" stroke="#000" stroke-width="2" stroke-miterlimit="4" xlink:href="#SVGCleanerId_0"/><use opacity="0.1" stroke-opacity="1" stroke-dasharray="none" fill="#000" stroke="#000" stroke-width="1" stroke-miterlimit="4" xlink:href="#SVGCleanerId_0"/></g><g><g clip-path="url(#clipPath-379355255)"><g transform="translate(0,1)"><g opacity="0.1"><!-- color: #e8e8e8 --><g><path d="m 20.223 16.785 c -3.848 0 -6.965 3.199 -6.965 7.145 c 0 0.164 0.004 0.324 0.016 0.484 c -1.355 0.668 -2.273 2.01 -2.273 3.566 c 0 2.227 1.887 4.02 4.23 4.02 l 17.543 0 c 2.344 0 4.23 -1.793 4.23 -4.02 c 0 -1.656 -1.043 -3.07 -2.539 -3.688 c 0.035 -0.25 0.059 -0.508 0.059 -0.77 c 0 -2.824 -2.238 -5.117 -4.992 -5.117 c -1.387 0 -2.641 0.578 -3.543 1.512 c -1.254 -1.891 -3.367 -3.133 -5.766 -3.133 m -2.883 2.18 c 0.754 0 1.363 0.594 1.363 1.332 c 0 0.738 -0.609 1.336 -1.363 1.336 c -0.754 0 -1.363 -0.598 -1.363 -1.336 c 0 -0.738 0.609 -1.332 1.363 -1.332 m 6.66 1.98 c 2.469 0 4.484 2.074 4.484 4.605 c 0 2.523 -2.02 4.602 -4.484 4.602 c -2.465 0 -4.484 -2.074 -4.484 -4.602 c 0 -2.531 2.02 -4.605 4.484 -4.605 m 0 1.977 c -1.422 0 -2.555 1.164 -2.555 2.629 c 0 1.465 1.133 2.625 2.555 2.625 c 1.422 0 2.555 -1.16 2.555 -2.625 c 0 -1.465 -1.133 -2.629 -2.555 -2.629 m 0 0" fill="#000" stroke="none" fill-rule="nonzero" fill-opacity="1"/><path d="m 32.3 18.313 l -0.523 -0.508 l -0.703 0.152 l 0.309 -0.664 l -0.359 -0.637 l 0.715 0.094 l 0.48 -0.547 l 0.133 0.723 l 0.656 0.301 l -0.633 0.352 m -0.074 0.734" fill="#000" stroke="none" fill-rule="nonzero" fill-opacity="1"/><path d="m 32.883 16.965 l 0.027 -0.344 l -0.262 -0.219 l 0.328 -0.078 l 0.125 -0.324 l 0.172 0.297 l 0.336 0.02 l -0.219 0.262 l 0.086 0.332 l -0.309 -0.133 m -0.285 0.188" fill="#000" stroke="none" fill-rule="nonzero" fill-opacity="1"/><path d="m 33.2 18.969 l -0.063 -0.523 l -0.457 -0.242 l 0.465 -0.227 l 0.086 -0.52 l 0.352 0.387 l 0.508 -0.078 l -0.25 0.461 l 0.23 0.473 l -0.504 -0.102 m -0.367 0.371" fill="#000" stroke="none" fill-rule="nonzero" fill-opacity="1"/></g></g></g></g></g><g><g clip-path="url(#clipPath-389881964)"><!-- color: #e8e8e8 --><g><path d="m 20.223 16.785 c -3.848 0 -6.965 3.199 -6.965 7.145 c 0 0.164 0.004 0.324 0.016 0.484 c -1.355 0.668 -2.273 2.01 -2.273 3.566 c 0 2.227 1.887 4.02 4.23 4.02 l 17.543 0 c 2.344 0 4.23 -1.793 4.23 -4.02 c 0 -1.656 -1.043 -3.07 -2.539 -3.688 c 0.035 -0.25 0.059 -0.508 0.059 -0.77 c 0 -2.824 -2.238 -5.117 -4.992 -5.117 c -1.387 0 -2.641 0.578 -3.543 1.512 c -1.254 -1.891 -3.367 -3.133 -5.766 -3.133 m -2.883 2.18 c 0.754 0 1.363 0.594 1.363 1.332 c 0 0.738 -0.609 1.336 -1.363 1.336 c -0.754 0 -1.363 -0.598 -1.363 -1.336 c 0 -0.738 0.609 -1.332 1.363 -1.332 m 6.66 1.98 c 2.469 0 4.484 2.074 4.484 4.605 c 0 2.523 -2.02 4.602 -4.484 4.602 c -2.465 0 -4.484 -2.074 -4.484 -4.602 c 0 -2.531 2.02 -4.605 4.484 -4.605 m 0 1.977 c -1.422 0 -2.555 1.164 -2.555 2.629 c 0 1.465 1.133 2.625 2.555 2.625 c 1.422 0 2.555 -1.16 2.555 -2.625 c 0 -1.465 -1.133 -2.629 -2.555 -2.629 m 0 0" fill="#4d9ade" stroke="none" fill-rule="nonzero" fill-opacity="1"/><path d="m 32.3 18.313 l -0.523 -0.508 l -0.703 0.152 l 0.309 -0.664 l -0.359 -0.637 l 0.715 0.094 l 0.48 -0.547 l 0.133 0.723 l 0.656 0.301 l -0.633 0.352 m -0.074 0.734" fill="#4d9ade" stroke="none" fill-rule="nonzero" fill-opacity="1"/><path d="m 32.883 16.965 l 0.027 -0.344 l -0.262 -0.219 l 0.328 -0.078 l 0.125 -0.324 l 0.172 0.297 l 0.336 0.02 l -0.219 0.262 l 0.086 0.332 l -0.309 -0.133 m -0.285 0.188" fill="#4d9ade" stroke="none" fill-rule="nonzero" fill-opacity="1"/><path d="m 33.2 18.969 l -0.063 -0.523 l -0.457 -0.242 l 0.465 -0.227 l 0.086 -0.52 l 0.352 0.387 l 0.508 -0.078 l -0.25 0.461 l 0.23 0.473 l -0.504 -0.102 m -0.367 0.371" fill="#4d9ade" stroke="none" fill-rule="nonzero" fill-opacity="1"/></g></g></g><g><path d="m 20 4 -7.313 3.03 -5.656 5.656 -3.03 7.313 0 8 3.03 7.313 5.656 5.656 7.313 3.03 8 0 7.313 -3.03 5.656 -5.656 3.03 -7.313 0 -8 -3.03 -7.313 -5.656 -5.656 -7.313 -3.03 -8 0 z" clip-path="url(#clipPath4313)" transform="matrix(0,1,-1,0,48,0)" opacity="0.3" stroke-opacity="1" stroke-dasharray="none" visibility="visible" fill="none" display="inline" stroke="url(#linearGradient4375)" color="#000" stroke-width="1" stroke-miterlimit="4"/><path d="m 24 2.344 -4 1.656 -4.281 0 -3.03 3.03 l -4 1.656 -1.656 4 l -3.03 3.03 0 4.281 -1.656 4 1.656 4 l 0 4.281 3.03 3.03 1.656 4 4 1.656 l 3.03 3.03 4.281 0 4 1.656 4 -1.656 l 4.281 0 3.03 -3.03 4 -1.656 1.656 -4 l 3.03 -3.03 0 -4.281 1.656 -4 -1.656 -4 l 0 -4.281 -3.03 -3.03 -1.656 -4 -4 -1.656 l -3.03 -3.03 -4.281 0 -4 -1.656 z" clip-path="url(#clipPath4329)" opacity="0.2" stroke-opacity="1" visibility="visible" fill="none" display="inline" stroke="#000" color="#000" stroke-width="2"/></g></svg>