<svg viewBox="0 0 48 48" xmlns:xlink="http://www.w3.org/1999/xlink"><defs><clipPath clipPathUnits="userSpaceOnUse" id="clipPath4313"><path d="m 20 4 -7.313 3.03 -5.656 5.656 -3.03 7.313 0 8 3.03 7.313 5.656 5.656 7.313 3.03 8 0 7.313 -3.03 5.656 -5.656 3.03 -7.313 0 -8 -3.03 -7.313 -5.656 -5.656 -7.313 -3.03 -8 0 z"/></clipPath><clipPath clipPathUnits="userSpaceOnUse" id="clipPath4329"><path d="m 24 2.344 -4 1.656 -4.281 0 -3.03 3.03 l -4 1.656 -1.656 4 l -3.03 3.03 0 4.281 -1.656 4 1.656 4 l 0 4.281 3.03 3.03 1.656 4 4 1.656 l 3.03 3.03 4.281 0 4 1.656 4 -1.656 l 4.281 0 3.03 -3.03 4 -1.656 1.656 -4 l 3.03 -3.03 0 -4.281 1.656 -4 -1.656 -4 l 0 -4.281 -3.03 -3.03 -1.656 -4 -4 -1.656 l -3.03 -3.03 -4.281 0 -4 -1.656 z"/></clipPath><clipPath id="clipPath-488622692"><path d="m 24 2.344 l -4 1.656 l -4.281 0 l -3.03 3.03 l -4 1.656 l -1.656 4 l -3.03 3.03 l 0 4.281 l -1.656 4 l 1.656 4 l 0 4.281 l 3.03 3.03 l 1.656 4 l 4 1.656 l 3.03 3.03 l 4.281 0 l 4 1.656 l 4 -1.656 l 4.281 0 l 3.03 -3.03 l 4 -1.656 l 1.656 -4 l 3.03 -3.03 l 0 -4.281 l 1.656 -4 l -1.656 -4 l 0 -4.281 l -3.03 -3.03 l -1.656 -4 l -4 -1.656 l -3.03 -3.03 l -4.281 0 l -4 -1.656 z"/></clipPath><clipPath id="clipPath-503760046"><path d="m 24 2.344 l -4 1.656 l -4.281 0 l -3.03 3.03 l -4 1.656 l -1.656 4 l -3.03 3.03 l 0 4.281 l -1.656 4 l 1.656 4 l 0 4.281 l 3.03 3.03 l 1.656 4 l 4 1.656 l 3.03 3.03 l 4.281 0 l 4 1.656 l 4 -1.656 l 4.281 0 l 3.03 -3.03 l 4 -1.656 l 1.656 -4 l 3.03 -3.03 l 0 -4.281 l 1.656 -4 l -1.656 -4 l 0 -4.281 l -3.03 -3.03 l -1.656 -4 l -4 -1.656 l -3.03 -3.03 l -4.281 0 l -4 -1.656 z"/></clipPath><linearGradient id="linearGradient4317"><stop stop-color="#fff" stop-opacity="1"/><stop offset="1" stop-color="#fff" stop-opacity="0"/></linearGradient><clipPath clipPathUnits="userSpaceOnUse" id="clipPath4313"><path d="m 20 4 -7.313 3.03 -5.656 5.656 -3.03 7.313 0 8 3.03 7.313 5.656 5.656 7.313 3.03 8 0 7.313 -3.03 5.656 -5.656 3.03 -7.313 0 -8 -3.03 -7.313 -5.656 -5.656 -7.313 -3.03 -8 0 z"/></clipPath><linearGradient x2="44" x1="4" gradientUnits="userSpaceOnUse" id="linearGradient4375" xlink:href="#linearGradient4317"/><clipPath clipPathUnits="userSpaceOnUse" id="clipPath4329"><path d="m 24 2.344 -4 1.656 -4.281 0 -3.03 3.03 l -4 1.656 -1.656 4 l -3.03 3.03 0 4.281 -1.656 4 1.656 4 l 0 4.281 3.03 3.03 1.656 4 4 1.656 l 3.03 3.03 4.281 0 4 1.656 4 -1.656 l 4.281 0 3.03 -3.03 4 -1.656 1.656 -4 l 3.03 -3.03 0 -4.281 1.656 -4 -1.656 -4 l 0 -4.281 -3.03 -3.03 -1.656 -4 -4 -1.656 l -3.03 -3.03 -4.281 0 -4 -1.656 z"/></clipPath><linearGradient id="linear0" gradientUnits="userSpaceOnUse" x1="6.778" y1="3.487" x2="6.769" y2="10.518" gradientTransform="matrix(3.729797,0,0,3.401575,-1.263157,-0.00000203445)"><stop stop-color="#e24571" stop-opacity="1"/><stop offset="1" stop-color="#7f263e" stop-opacity="1"/></linearGradient><linearGradient id="linear0" gradientUnits="userSpaceOnUse" x1="6.778" y1="3.487" x2="6.769" y2="10.518" gradientTransform="matrix(3.729797,0,0,3.401575,-1.263157,-0.00000203445)"><stop stop-color="#e24571" stop-opacity="1"/><stop offset="1" stop-color="#7f263e" stop-opacity="1"/></linearGradient><path id="SVGCleanerId_0" d="m 24 2.344 l -4 1.656 l -4.281 0 l -3.03 3.03 l -4 1.656 l -1.656 4 l -3.03 3.03 l 0 4.281 l -1.656 4 l 1.656 4 l 0 4.281 l 3.03 3.03 l 1.656 4 l 4 1.656 l 3.03 3.03 l 4.281 0 l 4 1.656 l 4 -1.656 l 4.281 0 l 3.03 -3.03 l 4 -1.656 l 1.656 -4 l 3.03 -3.03 l 0 -4.281 l 1.656 -4 l -1.656 -4 l 0 -4.281 l -3.03 -3.03 l -1.656 -4 l -4 -1.656 l -3.03 -3.03 l -4.281 0 l -4 -1.656 z" visibility="visible" display="inline" fill-rule="nonzero" color="#000" fill-opacity="1"/></defs><g><path d="m 2.563 24.5 l -0.219 0.5 l 1.656 4 l 0 -1 l -1.438 -3.5 z m 42.875 0 l -1.438 3.5 l 0 1 l 1.656 -4 l -0.219 -0.5 z m -41.44 7.781 l 0 1 l 3.03 3.03 l 1.656 4 l 4 1.656 l 3.03 3.03 l 4.281 0 l 4 1.656 l 4 -1.656 l 4.281 0 l 3.03 -3.03 l 4 -1.656 l 1.656 -4 l 3.03 -3.03 l 0 -1 l -3.03 3.03 l -1.656 4 l -4 1.656 l -3.03 3.03 l -4.281 0 l -4 1.656 l -4 -1.656 l -4.281 0 l -3.03 -3.03 l -4 -1.656 l -1.656 -4 l -3.03 -3.03 z" opacity="0.3" visibility="visible" fill="#000" display="inline" fill-rule="nonzero" stroke="none" fill-opacity="1" color="#000"/></g><g><use fill="#eee" stroke="none" xlink:href="#SVGCleanerId_0"/><path d="m 24 2.344 l -4 1.656 l 8 0 l -4 -1.656 z m 4 1.656 l 7.313 3.03 l -3.03 -3.03 l -4.281 0 z m 7.313 3.03 l 5.656 5.656 l -1.656 -4 l -4 -1.656 z m 5.656 5.656 l 3.03 7.313 l 0 -4.281 l -3.03 -3.03 z m 3.03 7.313 l 0 8 l 1.656 -4 l -1.656 -4 z m 0 8 l -3.03 7.313 l 3.03 -3.03 l 0 -4.281 z m -3.03 7.313 l -5.656 5.656 l 4 -1.656 l 1.656 -4 z m -5.656 5.656 l -7.313 3.03 l 4.281 0 l 3.03 -3.03 z m -7.313 3.03 l -8 0 l 4 1.656 l 4 -1.656 z m -8 0 l -7.313 -3.03 l 3.03 3.03 l 4.281 0 z m -7.313 -3.03 l -5.656 -5.656 l 1.656 4 l 4 1.656 z m -5.656 -5.656 l -3.03 -7.313 l 0 4.281 l 3.03 3.03 z m -3.03 -7.313 l 0 -8 l -1.656 4 l 1.656 4 z m 0 -8 l 3.03 -7.313 l -3.03 3.03 l 0 4.281 z m 3.03 -7.313 l 5.656 -5.656 l -4 1.656 l -1.656 4 z m 5.656 -5.656 l 7.313 -3.03 l -4.281 0 l -3.03 3.03 z" opacity="0.05" visibility="visible" fill="#eee" display="inline" fill-rule="nonzero" stroke="none" fill-opacity="1" color="#000"/></g><g><use opacity="0.05" stroke-opacity="1" stroke-dasharray="none" fill="#000" stroke="#000" stroke-width="2" stroke-miterlimit="4" xlink:href="#SVGCleanerId_0"/><use opacity="0.1" stroke-opacity="1" stroke-dasharray="none" fill="#000" stroke="#000" stroke-width="1" stroke-miterlimit="4" xlink:href="#SVGCleanerId_0"/></g><g><g clip-path="url(#clipPath-488622692)"><g transform="translate(0,1)"><g opacity="0.1"><!-- color: #eeeeee --><g><path d="m 14.03 12 c -0.055 3.418 -0.051 6.832 0 10.25 c 0.047 3.289 0.219 5.867 1.656 7.875 c 1.727 2.422 4.602 4.16 8.313 5.875 c 3.703 -1.715 6.582 -3.457 8.313 -5.875 c 1.434 -2.01 1.609 -4.586 1.656 -7.875 c 0.047 -3.418 0.051 -6.832 0 -10.25 m -9.969 1 c 0.551 0 1 0.449 1 1 c 0 0.551 -0.449 1 -1 1 c -0.555 0 -1 -0.449 -1 -1 c 0 -0.551 0.445 -1 1 -1 m 0 4 c 0.551 0 1 0.449 1 1 c 0 0.551 -0.449 1 -1 1 c -0.555 0 -1 -0.449 -1 -1 c 0 -0.551 0.445 -1 1 -1 m -8 4 c 0.551 0 1 0.449 1 1 c 0 0.551 -0.449 1 -1 1 c -0.555 0 -1 -0.449 -1 -1 c 0 -0.551 0.445 -1 1 -1 m 4 0 c 0.551 0 1 0.449 1 1 c 0 0.551 -0.449 1 -1 1 c -0.555 0 -1 -0.449 -1 -1 c 0 -0.551 0.445 -1 1 -1 m 4 0 c 0.551 0 1 0.449 1 1 c 0 0.551 -0.449 1 -1 1 c -0.555 0 -1 -0.449 -1 -1 c 0 -0.551 0.445 -1 1 -1 m 4 0 c 0.551 0 1 0.449 1 1 c 0 0.551 -0.449 1 -1 1 c -0.555 0 -1 -0.449 -1 -1 c 0 -0.551 0.445 -1 1 -1 m 4 0 c 0.551 0 1 0.449 1 1 c 0 0.551 -0.449 1 -1 1 c -0.555 0 -1 -0.449 -1 -1 c 0 -0.551 0.445 -1 1 -1 m -8 4 c 0.551 0 1 0.449 1 1 c 0 0.551 -0.449 1 -1 1 c -0.555 0 -1 -0.449 -1 -1 c 0 -0.551 0.445 -1 1 -1 m 0 4 c 0.551 0 1 0.449 1 1 c 0 0.551 -0.449 1 -1 1 c -0.555 0 -1 -0.449 -1 -1 c 0 -0.551 0.445 -1 1 -1 m 0 4 c 0.551 0 1 0.449 1 1 c 0 0.551 -0.449 1 -1 1 c -0.555 0 -1 -0.449 -1 -1 c 0 -0.551 0.445 -1 1 -1 m 0 0" fill="#000" stroke="none" fill-rule="nonzero"/></g></g></g></g></g><g><g clip-path="url(#clipPath-503760046)"><!-- color: #eeeeee --><g><path d="m 14.03 12 c -0.055 3.418 -0.051 6.832 0 10.25 c 0.047 3.289 0.219 5.867 1.656 7.875 c 1.727 2.422 4.602 4.16 8.313 5.875 c 3.703 -1.715 6.582 -3.457 8.313 -5.875 c 1.434 -2.01 1.609 -4.586 1.656 -7.875 c 0.047 -3.418 0.051 -6.832 0 -10.25 m -9.969 1 c 0.551 0 1 0.449 1 1 c 0 0.551 -0.449 1 -1 1 c -0.555 0 -1 -0.449 -1 -1 c 0 -0.551 0.445 -1 1 -1 m 0 4 c 0.551 0 1 0.449 1 1 c 0 0.551 -0.449 1 -1 1 c -0.555 0 -1 -0.449 -1 -1 c 0 -0.551 0.445 -1 1 -1 m -8 4 c 0.551 0 1 0.449 1 1 c 0 0.551 -0.449 1 -1 1 c -0.555 0 -1 -0.449 -1 -1 c 0 -0.551 0.445 -1 1 -1 m 4 0 c 0.551 0 1 0.449 1 1 c 0 0.551 -0.449 1 -1 1 c -0.555 0 -1 -0.449 -1 -1 c 0 -0.551 0.445 -1 1 -1 m 4 0 c 0.551 0 1 0.449 1 1 c 0 0.551 -0.449 1 -1 1 c -0.555 0 -1 -0.449 -1 -1 c 0 -0.551 0.445 -1 1 -1 m 4 0 c 0.551 0 1 0.449 1 1 c 0 0.551 -0.449 1 -1 1 c -0.555 0 -1 -0.449 -1 -1 c 0 -0.551 0.445 -1 1 -1 m 4 0 c 0.551 0 1 0.449 1 1 c 0 0.551 -0.449 1 -1 1 c -0.555 0 -1 -0.449 -1 -1 c 0 -0.551 0.445 -1 1 -1 m -8 4 c 0.551 0 1 0.449 1 1 c 0 0.551 -0.449 1 -1 1 c -0.555 0 -1 -0.449 -1 -1 c 0 -0.551 0.445 -1 1 -1 m 0 4 c 0.551 0 1 0.449 1 1 c 0 0.551 -0.449 1 -1 1 c -0.555 0 -1 -0.449 -1 -1 c 0 -0.551 0.445 -1 1 -1 m 0 4 c 0.551 0 1 0.449 1 1 c 0 0.551 -0.449 1 -1 1 c -0.555 0 -1 -0.449 -1 -1 c 0 -0.551 0.445 -1 1 -1 m 0 0" fill="url(#linear0)" stroke="none" fill-rule="nonzero"/></g></g></g><g><path d="m 20 4 -7.313 3.03 -5.656 5.656 -3.03 7.313 0 8 3.03 7.313 5.656 5.656 7.313 3.03 8 0 7.313 -3.03 5.656 -5.656 3.03 -7.313 0 -8 -3.03 -7.313 -5.656 -5.656 -7.313 -3.03 -8 0 z" clip-path="url(#clipPath4313)" transform="matrix(0,1,-1,0,48,0)" opacity="0.3" stroke-opacity="1" stroke-dasharray="none" visibility="visible" fill="none" display="inline" stroke="url(#linearGradient4375)" color="#000" stroke-width="1" stroke-miterlimit="4"/><path d="m 24 2.344 -4 1.656 -4.281 0 -3.03 3.03 l -4 1.656 -1.656 4 l -3.03 3.03 0 4.281 -1.656 4 1.656 4 l 0 4.281 3.03 3.03 1.656 4 4 1.656 l 3.03 3.03 4.281 0 4 1.656 4 -1.656 l 4.281 0 3.03 -3.03 4 -1.656 1.656 -4 l 3.03 -3.03 0 -4.281 1.656 -4 -1.656 -4 l 0 -4.281 -3.03 -3.03 -1.656 -4 -4 -1.656 l -3.03 -3.03 -4.281 0 -4 -1.656 z" clip-path="url(#clipPath4329)" opacity="0.2" stroke-opacity="1" visibility="visible" fill="none" display="inline" stroke="#000" color="#000" stroke-width="2"/></g></svg>