<svg viewBox="0 0 48 48" xmlns:xlink="http://www.w3.org/1999/xlink"><defs><clipPath clipPathUnits="userSpaceOnUse" id="clipPath4313"><path d="m 20 4 -7.313 3.03 -5.656 5.656 -3.03 7.313 0 8 3.03 7.313 5.656 5.656 7.313 3.03 8 0 7.313 -3.03 5.656 -5.656 3.03 -7.313 0 -8 -3.03 -7.313 -5.656 -5.656 -7.313 -3.03 -8 0 z"/></clipPath><clipPath clipPathUnits="userSpaceOnUse" id="clipPath4329"><path d="m 24 2.344 -4 1.656 -4.281 0 -3.03 3.03 l -4 1.656 -1.656 4 l -3.03 3.03 0 4.281 -1.656 4 1.656 4 l 0 4.281 3.03 3.03 1.656 4 4 1.656 l 3.03 3.03 4.281 0 4 1.656 4 -1.656 l 4.281 0 3.03 -3.03 4 -1.656 1.656 -4 l 3.03 -3.03 0 -4.281 1.656 -4 -1.656 -4 l 0 -4.281 -3.03 -3.03 -1.656 -4 -4 -1.656 l -3.03 -3.03 -4.281 0 -4 -1.656 z"/></clipPath><clipPath id="clipPath-723926328"><path d="m 24 2.344 l -4 1.656 l -4.281 0 l -3.03 3.03 l -4 1.656 l -1.656 4 l -3.03 3.03 l 0 4.281 l -1.656 4 l 1.656 4 l 0 4.281 l 3.03 3.03 l 1.656 4 l 4 1.656 l 3.03 3.03 l 4.281 0 l 4 1.656 l 4 -1.656 l 4.281 0 l 3.03 -3.03 l 4 -1.656 l 1.656 -4 l 3.03 -3.03 l 0 -4.281 l 1.656 -4 l -1.656 -4 l 0 -4.281 l -3.03 -3.03 l -1.656 -4 l -4 -1.656 l -3.03 -3.03 l -4.281 0 l -4 -1.656 z"/></clipPath><clipPath id="clipPath-733249643"><path d="m 24 2.344 l -4 1.656 l -4.281 0 l -3.03 3.03 l -4 1.656 l -1.656 4 l -3.03 3.03 l 0 4.281 l -1.656 4 l 1.656 4 l 0 4.281 l 3.03 3.03 l 1.656 4 l 4 1.656 l 3.03 3.03 l 4.281 0 l 4 1.656 l 4 -1.656 l 4.281 0 l 3.03 -3.03 l 4 -1.656 l 1.656 -4 l 3.03 -3.03 l 0 -4.281 l 1.656 -4 l -1.656 -4 l 0 -4.281 l -3.03 -3.03 l -1.656 -4 l -4 -1.656 l -3.03 -3.03 l -4.281 0 l -4 -1.656 z"/></clipPath><linearGradient id="linearGradient4317"><stop stop-color="#fff" stop-opacity="1"/><stop offset="1" stop-color="#fff" stop-opacity="0"/></linearGradient><clipPath clipPathUnits="userSpaceOnUse" id="clipPath4313"><path d="m 20 4 -7.313 3.03 -5.656 5.656 -3.03 7.313 0 8 3.03 7.313 5.656 5.656 7.313 3.03 8 0 7.313 -3.03 5.656 -5.656 3.03 -7.313 0 -8 -3.03 -7.313 -5.656 -5.656 -7.313 -3.03 -8 0 z"/></clipPath><linearGradient x2="44" x1="4" gradientUnits="userSpaceOnUse" id="linearGradient4375" xlink:href="#linearGradient4317"/><clipPath clipPathUnits="userSpaceOnUse" id="clipPath4329"><path d="m 24 2.344 -4 1.656 -4.281 0 -3.03 3.03 l -4 1.656 -1.656 4 l -3.03 3.03 0 4.281 -1.656 4 1.656 4 l 0 4.281 3.03 3.03 1.656 4 4 1.656 l 3.03 3.03 4.281 0 4 1.656 4 -1.656 l 4.281 0 3.03 -3.03 4 -1.656 1.656 -4 l 3.03 -3.03 0 -4.281 1.656 -4 -1.656 -4 l 0 -4.281 -3.03 -3.03 -1.656 -4 -4 -1.656 l -3.03 -3.03 -4.281 0 -4 -1.656 z"/></clipPath><path id="SVGCleanerId_0" d="m 24 2.344 l -4 1.656 l -4.281 0 l -3.03 3.03 l -4 1.656 l -1.656 4 l -3.03 3.03 l 0 4.281 l -1.656 4 l 1.656 4 l 0 4.281 l 3.03 3.03 l 1.656 4 l 4 1.656 l 3.03 3.03 l 4.281 0 l 4 1.656 l 4 -1.656 l 4.281 0 l 3.03 -3.03 l 4 -1.656 l 1.656 -4 l 3.03 -3.03 l 0 -4.281 l 1.656 -4 l -1.656 -4 l 0 -4.281 l -3.03 -3.03 l -1.656 -4 l -4 -1.656 l -3.03 -3.03 l -4.281 0 l -4 -1.656 z" visibility="visible" display="inline" fill-rule="nonzero" color="#000" fill-opacity="1"/></defs><g><path d="m 2.563 24.5 l -0.219 0.5 l 1.656 4 l 0 -1 l -1.438 -3.5 z m 42.875 0 l -1.438 3.5 l 0 1 l 1.656 -4 l -0.219 -0.5 z m -41.44 7.781 l 0 1 l 3.03 3.03 l 1.656 4 l 4 1.656 l 3.03 3.03 l 4.281 0 l 4 1.656 l 4 -1.656 l 4.281 0 l 3.03 -3.03 l 4 -1.656 l 1.656 -4 l 3.03 -3.03 l 0 -1 l -3.03 3.03 l -1.656 4 l -4 1.656 l -3.03 3.03 l -4.281 0 l -4 1.656 l -4 -1.656 l -4.281 0 l -3.03 -3.03 l -4 -1.656 l -1.656 -4 l -3.03 -3.03 z" opacity="0.3" visibility="visible" fill="#000" display="inline" fill-rule="nonzero" stroke="none" fill-opacity="1" color="#000"/></g><g><use fill="#474747" stroke="none" xlink:href="#SVGCleanerId_0"/><path d="m 24 2.344 l -4 1.656 l 8 0 l -4 -1.656 z m 4 1.656 l 7.313 3.03 l -3.03 -3.03 l -4.281 0 z m 7.313 3.03 l 5.656 5.656 l -1.656 -4 l -4 -1.656 z m 5.656 5.656 l 3.03 7.313 l 0 -4.281 l -3.03 -3.03 z m 3.03 7.313 l 0 8 l 1.656 -4 l -1.656 -4 z m 0 8 l -3.03 7.313 l 3.03 -3.03 l 0 -4.281 z m -3.03 7.313 l -5.656 5.656 l 4 -1.656 l 1.656 -4 z m -5.656 5.656 l -7.313 3.03 l 4.281 0 l 3.03 -3.03 z m -7.313 3.03 l -8 0 l 4 1.656 l 4 -1.656 z m -8 0 l -7.313 -3.03 l 3.03 3.03 l 4.281 0 z m -7.313 -3.03 l -5.656 -5.656 l 1.656 4 l 4 1.656 z m -5.656 -5.656 l -3.03 -7.313 l 0 4.281 l 3.03 3.03 z m -3.03 -7.313 l 0 -8 l -1.656 4 l 1.656 4 z m 0 -8 l 3.03 -7.313 l -3.03 3.03 l 0 4.281 z m 3.03 -7.313 l 5.656 -5.656 l -4 1.656 l -1.656 4 z m 5.656 -5.656 l 7.313 -3.03 l -4.281 0 l -3.03 3.03 z" opacity="0.05" visibility="visible" fill="#474747" display="inline" fill-rule="nonzero" stroke="none" fill-opacity="1" color="#000"/></g><g><use opacity="0.05" stroke-opacity="1" stroke-dasharray="none" fill="#000" stroke="#000" stroke-width="2" stroke-miterlimit="4" xlink:href="#SVGCleanerId_0"/><use opacity="0.1" stroke-opacity="1" stroke-dasharray="none" fill="#000" stroke="#000" stroke-width="1" stroke-miterlimit="4" xlink:href="#SVGCleanerId_0"/></g><g><g clip-path="url(#clipPath-723926328)"><g transform="translate(0,1)"><g opacity="0.1"><!-- color: #474747 --><g><path d="m 34 24 c 0.043 3.602 -1.855 6.949 -4.965 8.762 c -3.113 1.813 -6.957 1.813 -10.07 0 c -3.109 -1.813 -5.01 -5.16 -4.965 -8.762 c -0.043 -3.602 1.855 -6.949 4.965 -8.762 c 3.113 -1.813 6.957 -1.813 10.07 0 c 3.109 1.813 5.01 5.16 4.965 8.762 m 0 0" fill="#000" stroke="none" fill-rule="nonzero" fill-opacity="1"/><path d="m 18.06 11 c -3.898 0 -7.05 3.156 -7.05 7.05 c 0 1.203 0.305 2.367 0.836 3.359 c -0.176 0.84 -0.273 1.695 -0.273 2.586 c 0 6.863 5.566 12.43 12.438 12.43 c 0.887 0 1.746 -0.094 2.582 -0.27 c 0.996 0.539 2.145 0.84 3.355 0.84 c 3.898 0 7.05 -3.156 7.05 -7.05 c 0 -1.211 -0.305 -2.367 -0.84 -3.363 c 0.176 -0.836 0.27 -1.695 0.27 -2.582 c 0 -6.859 -5.566 -12.43 -12.43 -12.43 c -0.891 0 -1.75 0.09 -2.586 0.27 c -0.992 -0.531 -2.156 -0.84 -3.359 -0.84 m 5.703 5.16 c 3.883 0 5.887 2.043 5.887 3.242 c 0 1.203 -0.578 1.383 -1.531 1.383 c -1.852 0 -1.094 -2.223 -4.563 -2.223 c -1.148 0 -2.582 0.523 -2.582 1.859 c 0 1.074 1.27 1.469 3.512 2.02 c 3.379 0.902 5.914 1.801 5.914 4.891 c 0 3 -2.453 4.504 -6.336 4.504 c -3.883 0 -6.363 -2.313 -6.363 -3.512 c 0 -1.199 0.457 -1.5 1.41 -1.5 c 1.855 0 1.605 2.523 5.074 2.523 c 1.152 0 2.852 -0.523 2.852 -1.863 c 0 -1.07 -0.09 -1.441 -2.551 -2.102 c -2.629 -0.355 -6.875 -1.207 -6.875 -4.473 c 0 -3 2.273 -4.746 6.156 -4.746 m 0 0" fill="#000" stroke="none" fill-rule="nonzero" fill-opacity="1"/></g></g></g></g></g><g><g clip-path="url(#clipPath-733249643)"><!-- color: #474747 --><g><path d="m 34 24 c 0.043 3.602 -1.855 6.949 -4.965 8.762 c -3.113 1.813 -6.957 1.813 -10.07 0 c -3.109 -1.813 -5.01 -5.16 -4.965 -8.762 c -0.043 -3.602 1.855 -6.949 4.965 -8.762 c 3.113 -1.813 6.957 -1.813 10.07 0 c 3.109 1.813 5.01 5.16 4.965 8.762 m 0 0" fill="#f9f9f9" stroke="none" fill-rule="nonzero" fill-opacity="1"/><path d="m 18.06 11 c -3.898 0 -7.05 3.156 -7.05 7.05 c 0 1.203 0.305 2.367 0.836 3.359 c -0.176 0.84 -0.273 1.695 -0.273 2.586 c 0 6.863 5.566 12.43 12.438 12.43 c 0.887 0 1.746 -0.094 2.582 -0.27 c 0.996 0.539 2.145 0.84 3.355 0.84 c 3.898 0 7.05 -3.156 7.05 -7.05 c 0 -1.211 -0.305 -2.367 -0.84 -3.363 c 0.176 -0.836 0.27 -1.695 0.27 -2.582 c 0 -6.859 -5.566 -12.43 -12.43 -12.43 c -0.891 0 -1.75 0.09 -2.586 0.27 c -0.992 -0.531 -2.156 -0.84 -3.359 -0.84 m 5.703 5.16 c 3.883 0 5.887 2.043 5.887 3.242 c 0 1.203 -0.578 1.383 -1.531 1.383 c -1.852 0 -1.094 -2.223 -4.563 -2.223 c -1.148 0 -2.582 0.523 -2.582 1.859 c 0 1.074 1.27 1.469 3.512 2.02 c 3.379 0.902 5.914 1.801 5.914 4.891 c 0 3 -2.453 4.504 -6.336 4.504 c -3.883 0 -6.363 -2.313 -6.363 -3.512 c 0 -1.199 0.457 -1.5 1.41 -1.5 c 1.855 0 1.605 2.523 5.074 2.523 c 1.152 0 2.852 -0.523 2.852 -1.863 c 0 -1.07 -0.09 -1.441 -2.551 -2.102 c -2.629 -0.355 -6.875 -1.207 -6.875 -4.473 c 0 -3 2.273 -4.746 6.156 -4.746 m 0 0" fill="#e33d3d" stroke="none" fill-rule="nonzero" fill-opacity="1"/></g></g></g><g><path d="m 20 4 -7.313 3.03 -5.656 5.656 -3.03 7.313 0 8 3.03 7.313 5.656 5.656 7.313 3.03 8 0 7.313 -3.03 5.656 -5.656 3.03 -7.313 0 -8 -3.03 -7.313 -5.656 -5.656 -7.313 -3.03 -8 0 z" clip-path="url(#clipPath4313)" transform="matrix(0,1,-1,0,48,0)" opacity="0.3" stroke-opacity="1" stroke-dasharray="none" visibility="visible" fill="none" display="inline" stroke="url(#linearGradient4375)" color="#000" stroke-width="1" stroke-miterlimit="4"/><path d="m 24 2.344 -4 1.656 -4.281 0 -3.03 3.03 l -4 1.656 -1.656 4 l -3.03 3.03 0 4.281 -1.656 4 1.656 4 l 0 4.281 3.03 3.03 1.656 4 4 1.656 l 3.03 3.03 4.281 0 4 1.656 4 -1.656 l 4.281 0 3.03 -3.03 4 -1.656 1.656 -4 l 3.03 -3.03 0 -4.281 1.656 -4 -1.656 -4 l 0 -4.281 -3.03 -3.03 -1.656 -4 -4 -1.656 l -3.03 -3.03 -4.281 0 -4 -1.656 z" clip-path="url(#clipPath4329)" opacity="0.2" stroke-opacity="1" visibility="visible" fill="none" display="inline" stroke="#000" color="#000" stroke-width="2"/></g></svg>