<svg viewBox="0 0 48 48" xmlns:xlink="http://www.w3.org/1999/xlink"><defs><clipPath clipPathUnits="userSpaceOnUse" id="clipPath4313"><path d="m 20 4 -7.313 3.03 -5.656 5.656 -3.03 7.313 0 8 3.03 7.313 5.656 5.656 7.313 3.03 8 0 7.313 -3.03 5.656 -5.656 3.03 -7.313 0 -8 -3.03 -7.313 -5.656 -5.656 -7.313 -3.03 -8 0 z"/></clipPath><clipPath clipPathUnits="userSpaceOnUse" id="clipPath4329"><path d="m 24 2.344 -4 1.656 -4.281 0 -3.03 3.03 l -4 1.656 -1.656 4 l -3.03 3.03 0 4.281 -1.656 4 1.656 4 l 0 4.281 3.03 3.03 1.656 4 4 1.656 l 3.03 3.03 4.281 0 4 1.656 4 -1.656 l 4.281 0 3.03 -3.03 4 -1.656 1.656 -4 l 3.03 -3.03 0 -4.281 1.656 -4 -1.656 -4 l 0 -4.281 -3.03 -3.03 -1.656 -4 -4 -1.656 l -3.03 -3.03 -4.281 0 -4 -1.656 z"/></clipPath><clipPath id="clipPath-554775035"><path d="m 24 2.344 l -4 1.656 l -4.281 0 l -3.03 3.03 l -4 1.656 l -1.656 4 l -3.03 3.03 l 0 4.281 l -1.656 4 l 1.656 4 l 0 4.281 l 3.03 3.03 l 1.656 4 l 4 1.656 l 3.03 3.03 l 4.281 0 l 4 1.656 l 4 -1.656 l 4.281 0 l 3.03 -3.03 l 4 -1.656 l 1.656 -4 l 3.03 -3.03 l 0 -4.281 l 1.656 -4 l -1.656 -4 l 0 -4.281 l -3.03 -3.03 l -1.656 -4 l -4 -1.656 l -3.03 -3.03 l -4.281 0 l -4 -1.656 z"/></clipPath><clipPath id="clipPath-561947289"><path d="m 24 2.344 l -4 1.656 l -4.281 0 l -3.03 3.03 l -4 1.656 l -1.656 4 l -3.03 3.03 l 0 4.281 l -1.656 4 l 1.656 4 l 0 4.281 l 3.03 3.03 l 1.656 4 l 4 1.656 l 3.03 3.03 l 4.281 0 l 4 1.656 l 4 -1.656 l 4.281 0 l 3.03 -3.03 l 4 -1.656 l 1.656 -4 l 3.03 -3.03 l 0 -4.281 l 1.656 -4 l -1.656 -4 l 0 -4.281 l -3.03 -3.03 l -1.656 -4 l -4 -1.656 l -3.03 -3.03 l -4.281 0 l -4 -1.656 z"/></clipPath><linearGradient id="linearGradient4317"><stop stop-color="#fff" stop-opacity="1"/><stop offset="1" stop-color="#fff" stop-opacity="0"/></linearGradient><clipPath clipPathUnits="userSpaceOnUse" id="clipPath4313"><path d="m 20 4 -7.313 3.03 -5.656 5.656 -3.03 7.313 0 8 3.03 7.313 5.656 5.656 7.313 3.03 8 0 7.313 -3.03 5.656 -5.656 3.03 -7.313 0 -8 -3.03 -7.313 -5.656 -5.656 -7.313 -3.03 -8 0 z"/></clipPath><linearGradient x2="44" x1="4" gradientUnits="userSpaceOnUse" id="linearGradient4375" xlink:href="#linearGradient4317"/><clipPath clipPathUnits="userSpaceOnUse" id="clipPath4329"><path d="m 24 2.344 -4 1.656 -4.281 0 -3.03 3.03 l -4 1.656 -1.656 4 l -3.03 3.03 0 4.281 -1.656 4 1.656 4 l 0 4.281 3.03 3.03 1.656 4 4 1.656 l 3.03 3.03 4.281 0 4 1.656 4 -1.656 l 4.281 0 3.03 -3.03 4 -1.656 1.656 -4 l 3.03 -3.03 0 -4.281 1.656 -4 -1.656 -4 l 0 -4.281 -3.03 -3.03 -1.656 -4 -4 -1.656 l -3.03 -3.03 -4.281 0 -4 -1.656 z"/></clipPath><path id="SVGCleanerId_0" d="m 24 2.344 l -4 1.656 l -4.281 0 l -3.03 3.03 l -4 1.656 l -1.656 4 l -3.03 3.03 l 0 4.281 l -1.656 4 l 1.656 4 l 0 4.281 l 3.03 3.03 l 1.656 4 l 4 1.656 l 3.03 3.03 l 4.281 0 l 4 1.656 l 4 -1.656 l 4.281 0 l 3.03 -3.03 l 4 -1.656 l 1.656 -4 l 3.03 -3.03 l 0 -4.281 l 1.656 -4 l -1.656 -4 l 0 -4.281 l -3.03 -3.03 l -1.656 -4 l -4 -1.656 l -3.03 -3.03 l -4.281 0 l -4 -1.656 z" visibility="visible" display="inline" fill-rule="nonzero" color="#000" fill-opacity="1"/></defs><g><path d="m 2.563 24.5 l -0.219 0.5 l 1.656 4 l 0 -1 l -1.438 -3.5 z m 42.875 0 l -1.438 3.5 l 0 1 l 1.656 -4 l -0.219 -0.5 z m -41.44 7.781 l 0 1 l 3.03 3.03 l 1.656 4 l 4 1.656 l 3.03 3.03 l 4.281 0 l 4 1.656 l 4 -1.656 l 4.281 0 l 3.03 -3.03 l 4 -1.656 l 1.656 -4 l 3.03 -3.03 l 0 -1 l -3.03 3.03 l -1.656 4 l -4 1.656 l -3.03 3.03 l -4.281 0 l -4 1.656 l -4 -1.656 l -4.281 0 l -3.03 -3.03 l -4 -1.656 l -1.656 -4 l -3.03 -3.03 z" opacity="0.3" visibility="visible" fill="#000" display="inline" fill-rule="nonzero" stroke="none" fill-opacity="1" color="#000"/></g><g><use fill="#f7b754" stroke="none" xlink:href="#SVGCleanerId_0"/><path d="m 24 2.344 l -4 1.656 l 8 0 l -4 -1.656 z m 4 1.656 l 7.313 3.03 l -3.03 -3.03 l -4.281 0 z m 7.313 3.03 l 5.656 5.656 l -1.656 -4 l -4 -1.656 z m 5.656 5.656 l 3.03 7.313 l 0 -4.281 l -3.03 -3.03 z m 3.03 7.313 l 0 8 l 1.656 -4 l -1.656 -4 z m 0 8 l -3.03 7.313 l 3.03 -3.03 l 0 -4.281 z m -3.03 7.313 l -5.656 5.656 l 4 -1.656 l 1.656 -4 z m -5.656 5.656 l -7.313 3.03 l 4.281 0 l 3.03 -3.03 z m -7.313 3.03 l -8 0 l 4 1.656 l 4 -1.656 z m -8 0 l -7.313 -3.03 l 3.03 3.03 l 4.281 0 z m -7.313 -3.03 l -5.656 -5.656 l 1.656 4 l 4 1.656 z m -5.656 -5.656 l -3.03 -7.313 l 0 4.281 l 3.03 3.03 z m -3.03 -7.313 l 0 -8 l -1.656 4 l 1.656 4 z m 0 -8 l 3.03 -7.313 l -3.03 3.03 l 0 4.281 z m 3.03 -7.313 l 5.656 -5.656 l -4 1.656 l -1.656 4 z m 5.656 -5.656 l 7.313 -3.03 l -4.281 0 l -3.03 3.03 z" opacity="0.05" visibility="visible" fill="#f7b754" display="inline" fill-rule="nonzero" stroke="none" fill-opacity="1" color="#000"/></g><g><use opacity="0.05" stroke-opacity="1" stroke-dasharray="none" fill="#000" stroke="#000" stroke-width="2" stroke-miterlimit="4" xlink:href="#SVGCleanerId_0"/><use opacity="0.1" stroke-opacity="1" stroke-dasharray="none" fill="#000" stroke="#000" stroke-width="1" stroke-miterlimit="4" xlink:href="#SVGCleanerId_0"/></g><g><g clip-path="url(#clipPath-554775035)"><g transform="translate(0,1)"><g opacity="0.1"><!-- color: #f7b754 --><g><path d="m 11.08 15 c -0.586 -0.031 -1.145 0.648 -1.066 1.098 c 1.01 6.68 1.063 12.918 0 19.801 c -0.074 0.453 0.48 1.121 1.066 1.098 c 8.617 0 17.227 0 25.836 0 c 0.598 0.023 1.148 -0.645 1.078 -1.098 c -1.063 -6.879 -1.078 -13.199 0 -19.801 c 0.078 -0.453 -0.48 -1.133 -1.078 -1.098 c -8.738 0.473 -17.32 0.395 -25.836 0 m 0 0" fill="#000" stroke="none" fill-rule="nonzero" fill-opacity="1"/><path d="m 17 19.5 c 0 0.828 -0.672 1.5 -1.5 1.5 c -0.828 0 -1.5 -0.672 -1.5 -1.5 c 0 -0.828 0.672 -1.5 1.5 -1.5 c 0.828 0 1.5 0.672 1.5 1.5 m 0 0" fill="#000" stroke="none" fill-rule="nonzero" fill-opacity="1"/><path d="m 34 19.5 c 0 0.828 -0.672 1.5 -1.5 1.5 c -0.828 0 -1.5 -0.672 -1.5 -1.5 c 0 -0.828 0.672 -1.5 1.5 -1.5 c 0.828 0 1.5 0.672 1.5 1.5 m 0 0" fill="#000" stroke="none" fill-rule="nonzero" fill-opacity="1"/><path d="m 15.5 20 c -0.5 0 -0.5 -0.578 -0.5 -1 c 0 -4.01 3 -9 9 -9 c 5.996 0 9 4.988 9 9 c 0 0.422 0 1 -0.5 1 c -0.5 0 -0.5 -0.578 -0.5 -1 c 0 -3.168 -3 -8 -8 -8 c -5 0 -8 4.832 -8 8 c 0 0.422 0 1 -0.496 1 m 0 0" fill="#000" stroke="none" fill-rule="nonzero" fill-opacity="1"/><path d="m 27.313 20.04 c -0.43 0.035 -0.832 0.262 -1.063 0.656 c -0.371 0.641 -0.141 1.445 0.5 1.816 c 0.637 0.367 1.445 0.168 1.813 -0.469 c 0.367 -0.637 0.137 -1.473 -0.5 -1.844 c -0.242 -0.137 -0.492 -0.172 -0.75 -0.156 m -3.313 1.406 c -0.926 0 -1.789 0.207 -2.563 0.594 l 0.938 1.688 c 0.5 -0.234 1.039 -0.375 1.629 -0.375 c 2.035 0 3.699 1.566 3.875 3.578 l 1.906 -0.031 c -0.094 -1.473 -0.73 -2.813 -1.719 -3.781 c -0.508 0.191 -1.086 0.164 -1.594 -0.125 c -0.508 -0.293 -0.82 -0.777 -0.906 -1.313 c -0.492 -0.137 -1.027 -0.219 -1.563 -0.219 m -3.223 0.98 c -1.168 0.781 -2.043 1.945 -2.406 3.348 c 0.422 0.344 0.719 0.883 0.719 1.469 c 0 0.59 -0.297 1.129 -0.719 1.473 c 0.363 1.398 1.238 2.559 2.406 3.344 l 0.969 -1.625 c -1 -0.707 -1.656 -1.871 -1.656 -3.191 c 0 -1.316 0.652 -2.512 1.656 -3.219 m -4.547 1.871 c -0.738 0 -1.344 0.609 -1.344 1.344 c 0 0.738 0.605 1.313 1.344 1.313 c 0.738 0 1.313 -0.574 1.313 -1.313 c 0 -0.734 -0.574 -1.344 -1.313 -1.344 m 10.664 1.688 c -0.172 1.992 -1.84 3.578 -3.875 3.578 c -0.59 0 -1.129 -0.141 -1.625 -0.375 l -0.941 1.688 c 0.777 0.391 1.641 0.602 2.563 0.602 c 0.539 0 1.07 -0.078 1.563 -0.227 c 0.09 -0.527 0.402 -1.02 0.906 -1.309 c 0.508 -0.297 1.09 -0.348 1.594 -0.156 c 0.988 -0.973 1.629 -2.281 1.719 -3.75 m -2.559 4.172 c -0.172 0.023 -0.305 0.102 -0.465 0.191 c -0.641 0.367 -0.871 1.172 -0.5 1.813 c 0.367 0.641 1.172 0.867 1.813 0.5 c 0.637 -0.363 0.867 -1.199 0.5 -1.844 c -0.277 -0.477 -0.828 -0.719 -1.344 -0.656 m -0.004 0" fill="#000" stroke="none" fill-rule="nonzero" fill-opacity="1"/></g></g></g></g></g><g><g clip-path="url(#clipPath-561947289)"><!-- color: #f7b754 --><g><path d="m 11.08 15 c -0.586 -0.031 -1.145 0.648 -1.066 1.098 c 1.01 6.68 1.063 12.918 0 19.801 c -0.074 0.453 0.48 1.121 1.066 1.098 c 8.617 0 17.227 0 25.836 0 c 0.598 0.023 1.148 -0.645 1.078 -1.098 c -1.063 -6.879 -1.078 -13.199 0 -19.801 c 0.078 -0.453 -0.48 -1.133 -1.078 -1.098 c -8.738 0.473 -17.32 0.395 -25.836 0 m 0 0" fill="#f8ecde" stroke="none" fill-rule="nonzero" fill-opacity="1"/><path d="m 17 19.5 c 0 0.828 -0.672 1.5 -1.5 1.5 c -0.828 0 -1.5 -0.672 -1.5 -1.5 c 0 -0.828 0.672 -1.5 1.5 -1.5 c 0.828 0 1.5 0.672 1.5 1.5 m 0 0" fill="#a9946f" stroke="none" fill-rule="nonzero" fill-opacity="1"/><path d="m 34 19.5 c 0 0.828 -0.672 1.5 -1.5 1.5 c -0.828 0 -1.5 -0.672 -1.5 -1.5 c 0 -0.828 0.672 -1.5 1.5 -1.5 c 0.828 0 1.5 0.672 1.5 1.5 m 0 0" fill="#a9946f" stroke="none" fill-rule="nonzero" fill-opacity="1"/><path d="m 15.5 20 c -0.5 0 -0.5 -0.578 -0.5 -1 c 0 -4.01 3 -9 9 -9 c 5.996 0 9 4.988 9 9 c 0 0.422 0 1 -0.5 1 c -0.5 0 -0.5 -0.578 -0.5 -1 c 0 -3.168 -3 -8 -8 -8 c -5 0 -8 4.832 -8 8 c 0 0.422 0 1 -0.496 1 m 0 0" fill="#e5d6be" stroke="none" fill-rule="nonzero" fill-opacity="1"/><path d="m 27.313 20.04 c -0.43 0.035 -0.832 0.262 -1.063 0.656 c -0.371 0.641 -0.141 1.445 0.5 1.816 c 0.637 0.367 1.445 0.168 1.813 -0.469 c 0.367 -0.637 0.137 -1.473 -0.5 -1.844 c -0.242 -0.137 -0.492 -0.172 -0.75 -0.156 m -3.313 1.406 c -0.926 0 -1.789 0.207 -2.563 0.594 l 0.938 1.688 c 0.5 -0.234 1.039 -0.375 1.629 -0.375 c 2.035 0 3.699 1.566 3.875 3.578 l 1.906 -0.031 c -0.094 -1.473 -0.73 -2.813 -1.719 -3.781 c -0.508 0.191 -1.086 0.164 -1.594 -0.125 c -0.508 -0.293 -0.82 -0.777 -0.906 -1.313 c -0.492 -0.137 -1.027 -0.219 -1.563 -0.219 m -3.223 0.98 c -1.168 0.781 -2.043 1.945 -2.406 3.348 c 0.422 0.344 0.719 0.883 0.719 1.469 c 0 0.59 -0.297 1.129 -0.719 1.473 c 0.363 1.398 1.238 2.559 2.406 3.344 l 0.969 -1.625 c -1 -0.707 -1.656 -1.871 -1.656 -3.191 c 0 -1.316 0.652 -2.512 1.656 -3.219 m -4.547 1.871 c -0.738 0 -1.344 0.609 -1.344 1.344 c 0 0.738 0.605 1.313 1.344 1.313 c 0.738 0 1.313 -0.574 1.313 -1.313 c 0 -0.734 -0.574 -1.344 -1.313 -1.344 m 10.664 1.688 c -0.172 1.992 -1.84 3.578 -3.875 3.578 c -0.59 0 -1.129 -0.141 -1.625 -0.375 l -0.941 1.688 c 0.777 0.391 1.641 0.602 2.563 0.602 c 0.539 0 1.07 -0.078 1.563 -0.227 c 0.09 -0.527 0.402 -1.02 0.906 -1.309 c 0.508 -0.297 1.09 -0.348 1.594 -0.156 c 0.988 -0.973 1.629 -2.281 1.719 -3.75 m -2.559 4.172 c -0.172 0.023 -0.305 0.102 -0.465 0.191 c -0.641 0.367 -0.871 1.172 -0.5 1.813 c 0.367 0.641 1.172 0.867 1.813 0.5 c 0.637 -0.363 0.867 -1.199 0.5 -1.844 c -0.277 -0.477 -0.828 -0.719 -1.344 -0.656 m -0.004 0" fill="#dd4512" stroke="none" fill-rule="nonzero" fill-opacity="1"/></g></g></g><g><path d="m 20 4 -7.313 3.03 -5.656 5.656 -3.03 7.313 0 8 3.03 7.313 5.656 5.656 7.313 3.03 8 0 7.313 -3.03 5.656 -5.656 3.03 -7.313 0 -8 -3.03 -7.313 -5.656 -5.656 -7.313 -3.03 -8 0 z" clip-path="url(#clipPath4313)" transform="matrix(0,1,-1,0,48,0)" opacity="0.3" stroke-opacity="1" stroke-dasharray="none" visibility="visible" fill="none" display="inline" stroke="url(#linearGradient4375)" color="#000" stroke-width="1" stroke-miterlimit="4"/><path d="m 24 2.344 -4 1.656 -4.281 0 -3.03 3.03 l -4 1.656 -1.656 4 l -3.03 3.03 0 4.281 -1.656 4 1.656 4 l 0 4.281 3.03 3.03 1.656 4 4 1.656 l 3.03 3.03 4.281 0 4 1.656 4 -1.656 l 4.281 0 3.03 -3.03 4 -1.656 1.656 -4 l 3.03 -3.03 0 -4.281 1.656 -4 -1.656 -4 l 0 -4.281 -3.03 -3.03 -1.656 -4 -4 -1.656 l -3.03 -3.03 -4.281 0 -4 -1.656 z" clip-path="url(#clipPath4329)" opacity="0.2" stroke-opacity="1" visibility="visible" fill="none" display="inline" stroke="#000" color="#000" stroke-width="2"/></g></svg>