<svg viewBox="0 0 48 48" xmlns:xlink="http://www.w3.org/1999/xlink"><defs><clipPath clipPathUnits="userSpaceOnUse" id="clipPath4313"><path d="m 20 4 -7.313 3.03 -5.656 5.656 -3.03 7.313 0 8 3.03 7.313 5.656 5.656 7.313 3.03 8 0 7.313 -3.03 5.656 -5.656 3.03 -7.313 0 -8 -3.03 -7.313 -5.656 -5.656 -7.313 -3.03 -8 0 z"/></clipPath><clipPath clipPathUnits="userSpaceOnUse" id="clipPath4329"><path d="m 24 2.344 -4 1.656 -4.281 0 -3.03 3.03 l -4 1.656 -1.656 4 l -3.03 3.03 0 4.281 -1.656 4 1.656 4 l 0 4.281 3.03 3.03 1.656 4 4 1.656 l 3.03 3.03 4.281 0 4 1.656 4 -1.656 l 4.281 0 3.03 -3.03 4 -1.656 1.656 -4 l 3.03 -3.03 0 -4.281 1.656 -4 -1.656 -4 l 0 -4.281 -3.03 -3.03 -1.656 -4 -4 -1.656 l -3.03 -3.03 -4.281 0 -4 -1.656 z"/></clipPath><clipPath id="clipPath-204686817"><path d="m 24 2.344 l -4 1.656 l -4.281 0 l -3.03 3.03 l -4 1.656 l -1.656 4 l -3.03 3.03 l 0 4.281 l -1.656 4 l 1.656 4 l 0 4.281 l 3.03 3.03 l 1.656 4 l 4 1.656 l 3.03 3.03 l 4.281 0 l 4 1.656 l 4 -1.656 l 4.281 0 l 3.03 -3.03 l 4 -1.656 l 1.656 -4 l 3.03 -3.03 l 0 -4.281 l 1.656 -4 l -1.656 -4 l 0 -4.281 l -3.03 -3.03 l -1.656 -4 l -4 -1.656 l -3.03 -3.03 l -4.281 0 l -4 -1.656 z"/></clipPath><clipPath id="clipPath-215929852"><path d="m 24 2.344 l -4 1.656 l -4.281 0 l -3.03 3.03 l -4 1.656 l -1.656 4 l -3.03 3.03 l 0 4.281 l -1.656 4 l 1.656 4 l 0 4.281 l 3.03 3.03 l 1.656 4 l 4 1.656 l 3.03 3.03 l 4.281 0 l 4 1.656 l 4 -1.656 l 4.281 0 l 3.03 -3.03 l 4 -1.656 l 1.656 -4 l 3.03 -3.03 l 0 -4.281 l 1.656 -4 l -1.656 -4 l 0 -4.281 l -3.03 -3.03 l -1.656 -4 l -4 -1.656 l -3.03 -3.03 l -4.281 0 l -4 -1.656 z"/></clipPath><linearGradient id="linearGradient4317"><stop stop-color="#fff" stop-opacity="1"/><stop offset="1" stop-color="#fff" stop-opacity="0"/></linearGradient><clipPath clipPathUnits="userSpaceOnUse" id="clipPath4313"><path d="m 20 4 -7.313 3.03 -5.656 5.656 -3.03 7.313 0 8 3.03 7.313 5.656 5.656 7.313 3.03 8 0 7.313 -3.03 5.656 -5.656 3.03 -7.313 0 -8 -3.03 -7.313 -5.656 -5.656 -7.313 -3.03 -8 0 z"/></clipPath><linearGradient x2="44" x1="4" gradientUnits="userSpaceOnUse" id="linearGradient4375" xlink:href="#linearGradient4317"/><clipPath clipPathUnits="userSpaceOnUse" id="clipPath4329"><path d="m 24 2.344 -4 1.656 -4.281 0 -3.03 3.03 l -4 1.656 -1.656 4 l -3.03 3.03 0 4.281 -1.656 4 1.656 4 l 0 4.281 3.03 3.03 1.656 4 4 1.656 l 3.03 3.03 4.281 0 4 1.656 4 -1.656 l 4.281 0 3.03 -3.03 4 -1.656 1.656 -4 l 3.03 -3.03 0 -4.281 1.656 -4 -1.656 -4 l 0 -4.281 -3.03 -3.03 -1.656 -4 -4 -1.656 l -3.03 -3.03 -4.281 0 -4 -1.656 z"/></clipPath><path id="SVGCleanerId_0" d="m 24 2.344 l -4 1.656 l -4.281 0 l -3.03 3.03 l -4 1.656 l -1.656 4 l -3.03 3.03 l 0 4.281 l -1.656 4 l 1.656 4 l 0 4.281 l 3.03 3.03 l 1.656 4 l 4 1.656 l 3.03 3.03 l 4.281 0 l 4 1.656 l 4 -1.656 l 4.281 0 l 3.03 -3.03 l 4 -1.656 l 1.656 -4 l 3.03 -3.03 l 0 -4.281 l 1.656 -4 l -1.656 -4 l 0 -4.281 l -3.03 -3.03 l -1.656 -4 l -4 -1.656 l -3.03 -3.03 l -4.281 0 l -4 -1.656 z" visibility="visible" display="inline" fill-rule="nonzero" color="#000" fill-opacity="1"/></defs><g><path d="m 2.563 24.5 l -0.219 0.5 l 1.656 4 l 0 -1 l -1.438 -3.5 z m 42.875 0 l -1.438 3.5 l 0 1 l 1.656 -4 l -0.219 -0.5 z m -41.44 7.781 l 0 1 l 3.03 3.03 l 1.656 4 l 4 1.656 l 3.03 3.03 l 4.281 0 l 4 1.656 l 4 -1.656 l 4.281 0 l 3.03 -3.03 l 4 -1.656 l 1.656 -4 l 3.03 -3.03 l 0 -1 l -3.03 3.03 l -1.656 4 l -4 1.656 l -3.03 3.03 l -4.281 0 l -4 1.656 l -4 -1.656 l -4.281 0 l -3.03 -3.03 l -4 -1.656 l -1.656 -4 l -3.03 -3.03 z" opacity="0.3" visibility="visible" fill="#000" display="inline" fill-rule="nonzero" stroke="none" fill-opacity="1" color="#000"/></g><g><use fill="#474747" stroke="none" xlink:href="#SVGCleanerId_0"/><path d="m 24 2.344 l -4 1.656 l 8 0 l -4 -1.656 z m 4 1.656 l 7.313 3.03 l -3.03 -3.03 l -4.281 0 z m 7.313 3.03 l 5.656 5.656 l -1.656 -4 l -4 -1.656 z m 5.656 5.656 l 3.03 7.313 l 0 -4.281 l -3.03 -3.03 z m 3.03 7.313 l 0 8 l 1.656 -4 l -1.656 -4 z m 0 8 l -3.03 7.313 l 3.03 -3.03 l 0 -4.281 z m -3.03 7.313 l -5.656 5.656 l 4 -1.656 l 1.656 -4 z m -5.656 5.656 l -7.313 3.03 l 4.281 0 l 3.03 -3.03 z m -7.313 3.03 l -8 0 l 4 1.656 l 4 -1.656 z m -8 0 l -7.313 -3.03 l 3.03 3.03 l 4.281 0 z m -7.313 -3.03 l -5.656 -5.656 l 1.656 4 l 4 1.656 z m -5.656 -5.656 l -3.03 -7.313 l 0 4.281 l 3.03 3.03 z m -3.03 -7.313 l 0 -8 l -1.656 4 l 1.656 4 z m 0 -8 l 3.03 -7.313 l -3.03 3.03 l 0 4.281 z m 3.03 -7.313 l 5.656 -5.656 l -4 1.656 l -1.656 4 z m 5.656 -5.656 l 7.313 -3.03 l -4.281 0 l -3.03 3.03 z" opacity="0.05" visibility="visible" fill="#474747" display="inline" fill-rule="nonzero" stroke="none" fill-opacity="1" color="#000"/></g><g><use opacity="0.05" stroke-opacity="1" stroke-dasharray="none" fill="#000" stroke="#000" stroke-width="2" stroke-miterlimit="4" xlink:href="#SVGCleanerId_0"/><use opacity="0.1" stroke-opacity="1" stroke-dasharray="none" fill="#000" stroke="#000" stroke-width="1" stroke-miterlimit="4" xlink:href="#SVGCleanerId_0"/></g><g><g clip-path="url(#clipPath-204686817)"><g transform="translate(0,1)"><g opacity="0.1"><!-- color: #474747 --><g><path d="m 22.867 12.766 c 0.004 0.449 -0.273 0.867 -0.727 1.094 c -0.453 0.223 -1.016 0.223 -1.469 0 c -0.453 -0.227 -0.73 -0.645 -0.727 -1.094 c -0.004 -0.449 0.273 -0.867 0.727 -1.094 c 0.453 -0.223 1.016 -0.223 1.469 0 c 0.453 0.227 0.73 0.645 0.727 1.094 m 0 0" fill="#000" stroke="none" fill-rule="nonzero" fill-opacity="1"/><path d="m 34.539 24.578 c 0.844 -0.52 1.461 -1.652 1.461 -2.68 c 0 -0.934 -0.469 -2.445 -1.297 -4.203 c -0.875 -1.855 -3.355 -4.414 -5.207 -5.375 c -2.254 -1.168 -3.324 -1.379 -6.762 -1.305 c -2.645 0.059 -3.051 0.109 -3.5 0.457 c -0.613 0.477 -1.309 1.895 -1.227 2.496 c 0.094 0.68 1.246 1.016 2.969 0.867 c 1.668 -0.145 1.91 0.039 1.129 0.871 c -0.387 0.414 -0.793 0.609 -1.453 0.703 c -0.5 0.07 -1.035 0.148 -1.188 0.172 c -0.191 0.031 -0.133 0.137 0.184 0.332 c 0.316 0.191 1.309 0.313 3.16 0.387 c 2.391 0.094 2.809 0.164 3.715 0.613 c 1.094 0.547 2.449 1.855 2.918 2.816 c 0.156 0.324 0.445 1.082 0.641 1.684 c 0.57 1.762 1.535 2.598 2.988 2.59 c 0.469 -0.004 1.078 -0.176 1.473 -0.422 m -13.93 -11.07 c -0.547 -0.586 -0.016 -1.934 0.766 -1.934 c 0.883 0 1.379 1.207 0.762 1.863 c -0.348 0.367 -1.211 0.406 -1.527 0.074 m 0 -0.004" fill="#000" stroke="none" fill-rule="nonzero" fill-opacity="1"/><path d="m 37 27 c 0.035 3.594 -1.867 6.93 -4.973 8.738 c -3.109 1.805 -6.945 1.805 -10.05 0 c -3.105 -1.809 -5 -5.145 -4.973 -8.738 c -0.031 -3.594 1.867 -6.93 4.973 -8.738 c 3.109 -1.805 6.945 -1.805 10.05 0 c 3.105 1.809 5.01 5.145 4.973 8.738 m 0 0" fill="#000" stroke="none" fill-rule="nonzero" fill-opacity="1"/><path d="m 14.207 17 l 13.578 0 c 1.773 0 3.211 1.281 3.211 2.855 l 0 0.289 c 0 1.578 -1.438 2.855 -3.211 2.855 l -13.578 0 c -1.77 0 -3.207 -1.277 -3.207 -2.855 l 0 -0.289 c 0 -1.574 1.438 -2.855 3.207 -2.855 m 0 0" fill="#000" stroke="none" fill-rule="nonzero" fill-opacity="1"/><path d="m 12.699 27.25 l 11.668 -6.781 c 1.527 -0.887 3.387 -0.48 4.156 0.906 l 0.141 0.25 c 0.773 1.387 0.16 3.23 -1.363 4.117 l -11.668 6.785 c -1.523 0.883 -3.387 0.477 -4.156 -0.91 l -0.141 -0.25 c -0.77 -1.387 -0.16 -3.23 1.363 -4.117 m 0 0" fill="#000" stroke="none" fill-rule="nonzero" fill-opacity="1"/><path d="m 32 27 c 0.016 1.797 -0.934 3.465 -2.488 4.367 c -1.551 0.906 -3.473 0.906 -5.02 0 c -1.555 -0.902 -2.504 -2.57 -2.488 -4.367 c -0.016 -1.797 0.934 -3.465 2.488 -4.367 c 1.551 -0.906 3.473 -0.906 5.02 0 c 1.555 0.902 2.504 2.57 2.488 4.367 m 0 0" fill="#000" stroke="none" fill-rule="nonzero" fill-opacity="1"/></g></g></g></g></g><g><g clip-path="url(#clipPath-215929852)"><!-- color: #474747 --><g><path d="m 22.867 12.766 c 0.004 0.449 -0.273 0.867 -0.727 1.094 c -0.453 0.223 -1.016 0.223 -1.469 0 c -0.453 -0.227 -0.73 -0.645 -0.727 -1.094 c -0.004 -0.449 0.273 -0.867 0.727 -1.094 c 0.453 -0.223 1.016 -0.223 1.469 0 c 0.453 0.227 0.73 0.645 0.727 1.094 m 0 0" fill="#f9f9f9" stroke="none" fill-rule="nonzero" fill-opacity="1"/><path d="m 34.539 24.578 c 0.844 -0.52 1.461 -1.652 1.461 -2.68 c 0 -0.934 -0.469 -2.445 -1.297 -4.203 c -0.875 -1.855 -3.355 -4.414 -5.207 -5.375 c -2.254 -1.168 -3.324 -1.379 -6.762 -1.305 c -2.645 0.059 -3.051 0.109 -3.5 0.457 c -0.613 0.477 -1.309 1.895 -1.227 2.496 c 0.094 0.68 1.246 1.016 2.969 0.867 c 1.668 -0.145 1.91 0.039 1.129 0.871 c -0.387 0.414 -0.793 0.609 -1.453 0.703 c -0.5 0.07 -1.035 0.148 -1.188 0.172 c -0.191 0.031 -0.133 0.137 0.184 0.332 c 0.316 0.191 1.309 0.313 3.16 0.387 c 2.391 0.094 2.809 0.164 3.715 0.613 c 1.094 0.547 2.449 1.855 2.918 2.816 c 0.156 0.324 0.445 1.082 0.641 1.684 c 0.57 1.762 1.535 2.598 2.988 2.59 c 0.469 -0.004 1.078 -0.176 1.473 -0.422 m -13.93 -11.07 c -0.547 -0.586 -0.016 -1.934 0.766 -1.934 c 0.883 0 1.379 1.207 0.762 1.863 c -0.348 0.367 -1.211 0.406 -1.527 0.074 m 0 -0.004" fill="#3c9d17" stroke="none" fill-rule="nonzero" fill-opacity="1"/><path d="m 37 27 c 0.035 3.594 -1.867 6.93 -4.973 8.738 c -3.109 1.805 -6.945 1.805 -10.05 0 c -3.105 -1.809 -5 -5.145 -4.973 -8.738 c -0.031 -3.594 1.867 -6.93 4.973 -8.738 c 3.109 -1.805 6.945 -1.805 10.05 0 c 3.105 1.809 5.01 5.145 4.973 8.738 m 0 0" fill="#dc9d00" stroke="none" fill-rule="nonzero" fill-opacity="1"/><path d="m 14.207 17 l 13.578 0 c 1.773 0 3.211 1.281 3.211 2.855 l 0 0.289 c 0 1.578 -1.438 2.855 -3.211 2.855 l -13.578 0 c -1.77 0 -3.207 -1.277 -3.207 -2.855 l 0 -0.289 c 0 -1.574 1.438 -2.855 3.207 -2.855 m 0 0" fill="#dc9d00" stroke="none" fill-rule="nonzero" fill-opacity="1"/><path d="m 12.699 27.25 l 11.668 -6.781 c 1.527 -0.887 3.387 -0.48 4.156 0.906 l 0.141 0.25 c 0.773 1.387 0.16 3.23 -1.363 4.117 l -11.668 6.785 c -1.523 0.883 -3.387 0.477 -4.156 -0.91 l -0.141 -0.25 c -0.77 -1.387 -0.16 -3.23 1.363 -4.117 m 0 0" fill="#dc9d00" stroke="none" fill-rule="nonzero" fill-opacity="1"/><path d="m 32 27 c 0.016 1.797 -0.934 3.465 -2.488 4.367 c -1.551 0.906 -3.473 0.906 -5.02 0 c -1.555 -0.902 -2.504 -2.57 -2.488 -4.367 c -0.016 -1.797 0.934 -3.465 2.488 -4.367 c 1.551 -0.906 3.473 -0.906 5.02 0 c 1.555 0.902 2.504 2.57 2.488 4.367 m 0 0" fill="#0070b9" stroke="none" fill-rule="nonzero" fill-opacity="1"/></g></g></g><g><path d="m 20 4 -7.313 3.03 -5.656 5.656 -3.03 7.313 0 8 3.03 7.313 5.656 5.656 7.313 3.03 8 0 7.313 -3.03 5.656 -5.656 3.03 -7.313 0 -8 -3.03 -7.313 -5.656 -5.656 -7.313 -3.03 -8 0 z" clip-path="url(#clipPath4313)" transform="matrix(0,1,-1,0,48,0)" opacity="0.3" stroke-opacity="1" stroke-dasharray="none" visibility="visible" fill="none" display="inline" stroke="url(#linearGradient4375)" color="#000" stroke-width="1" stroke-miterlimit="4"/><path d="m 24 2.344 -4 1.656 -4.281 0 -3.03 3.03 l -4 1.656 -1.656 4 l -3.03 3.03 0 4.281 -1.656 4 1.656 4 l 0 4.281 3.03 3.03 1.656 4 4 1.656 l 3.03 3.03 4.281 0 4 1.656 4 -1.656 l 4.281 0 3.03 -3.03 4 -1.656 1.656 -4 l 3.03 -3.03 0 -4.281 1.656 -4 -1.656 -4 l 0 -4.281 -3.03 -3.03 -1.656 -4 -4 -1.656 l -3.03 -3.03 -4.281 0 -4 -1.656 z" clip-path="url(#clipPath4329)" opacity="0.2" stroke-opacity="1" visibility="visible" fill="none" display="inline" stroke="#000" color="#000" stroke-width="2"/></g></svg>