<svg viewBox="0 0 48 48" xmlns:xlink="http://www.w3.org/1999/xlink"><defs><clipPath clipPathUnits="userSpaceOnUse" id="clipPath4313"><path d="m 20 4 -7.313 3.03 -5.656 5.656 -3.03 7.313 0 8 3.03 7.313 5.656 5.656 7.313 3.03 8 0 7.313 -3.03 5.656 -5.656 3.03 -7.313 0 -8 -3.03 -7.313 -5.656 -5.656 -7.313 -3.03 -8 0 z"/></clipPath><clipPath clipPathUnits="userSpaceOnUse" id="clipPath4329"><path d="m 24 2.344 -4 1.656 -4.281 0 -3.03 3.03 l -4 1.656 -1.656 4 l -3.03 3.03 0 4.281 -1.656 4 1.656 4 l 0 4.281 3.03 3.03 1.656 4 4 1.656 l 3.03 3.03 4.281 0 4 1.656 4 -1.656 l 4.281 0 3.03 -3.03 4 -1.656 1.656 -4 l 3.03 -3.03 0 -4.281 1.656 -4 -1.656 -4 l 0 -4.281 -3.03 -3.03 -1.656 -4 -4 -1.656 l -3.03 -3.03 -4.281 0 -4 -1.656 z"/></clipPath><clipPath id="clipPath-081841456"><path d="m 24 2.344 l -4 1.656 l -4.281 0 l -3.03 3.03 l -4 1.656 l -1.656 4 l -3.03 3.03 l 0 4.281 l -1.656 4 l 1.656 4 l 0 4.281 l 3.03 3.03 l 1.656 4 l 4 1.656 l 3.03 3.03 l 4.281 0 l 4 1.656 l 4 -1.656 l 4.281 0 l 3.03 -3.03 l 4 -1.656 l 1.656 -4 l 3.03 -3.03 l 0 -4.281 l 1.656 -4 l -1.656 -4 l 0 -4.281 l -3.03 -3.03 l -1.656 -4 l -4 -1.656 l -3.03 -3.03 l -4.281 0 l -4 -1.656 z"/></clipPath><clipPath id="clipPath-094356563"><path d="m 24 2.344 l -4 1.656 l -4.281 0 l -3.03 3.03 l -4 1.656 l -1.656 4 l -3.03 3.03 l 0 4.281 l -1.656 4 l 1.656 4 l 0 4.281 l 3.03 3.03 l 1.656 4 l 4 1.656 l 3.03 3.03 l 4.281 0 l 4 1.656 l 4 -1.656 l 4.281 0 l 3.03 -3.03 l 4 -1.656 l 1.656 -4 l 3.03 -3.03 l 0 -4.281 l 1.656 -4 l -1.656 -4 l 0 -4.281 l -3.03 -3.03 l -1.656 -4 l -4 -1.656 l -3.03 -3.03 l -4.281 0 l -4 -1.656 z"/></clipPath><linearGradient id="linearGradient4317"><stop stop-color="#fff" stop-opacity="1"/><stop offset="1" stop-color="#fff" stop-opacity="0"/></linearGradient><clipPath clipPathUnits="userSpaceOnUse" id="clipPath4313"><path d="m 20 4 -7.313 3.03 -5.656 5.656 -3.03 7.313 0 8 3.03 7.313 5.656 5.656 7.313 3.03 8 0 7.313 -3.03 5.656 -5.656 3.03 -7.313 0 -8 -3.03 -7.313 -5.656 -5.656 -7.313 -3.03 -8 0 z"/></clipPath><linearGradient x2="44" x1="4" gradientUnits="userSpaceOnUse" id="linearGradient4375" xlink:href="#linearGradient4317"/><clipPath clipPathUnits="userSpaceOnUse" id="clipPath4329"><path d="m 24 2.344 -4 1.656 -4.281 0 -3.03 3.03 l -4 1.656 -1.656 4 l -3.03 3.03 0 4.281 -1.656 4 1.656 4 l 0 4.281 3.03 3.03 1.656 4 4 1.656 l 3.03 3.03 4.281 0 4 1.656 4 -1.656 l 4.281 0 3.03 -3.03 4 -1.656 1.656 -4 l 3.03 -3.03 0 -4.281 1.656 -4 -1.656 -4 l 0 -4.281 -3.03 -3.03 -1.656 -4 -4 -1.656 l -3.03 -3.03 -4.281 0 -4 -1.656 z"/></clipPath><path id="SVGCleanerId_0" d="m 24 2.344 l -4 1.656 l -4.281 0 l -3.03 3.03 l -4 1.656 l -1.656 4 l -3.03 3.03 l 0 4.281 l -1.656 4 l 1.656 4 l 0 4.281 l 3.03 3.03 l 1.656 4 l 4 1.656 l 3.03 3.03 l 4.281 0 l 4 1.656 l 4 -1.656 l 4.281 0 l 3.03 -3.03 l 4 -1.656 l 1.656 -4 l 3.03 -3.03 l 0 -4.281 l 1.656 -4 l -1.656 -4 l 0 -4.281 l -3.03 -3.03 l -1.656 -4 l -4 -1.656 l -3.03 -3.03 l -4.281 0 l -4 -1.656 z" visibility="visible" display="inline" fill-rule="nonzero" color="#000" fill-opacity="1"/></defs><g><path d="m 2.563 24.5 l -0.219 0.5 l 1.656 4 l 0 -1 l -1.438 -3.5 z m 42.875 0 l -1.438 3.5 l 0 1 l 1.656 -4 l -0.219 -0.5 z m -41.44 7.781 l 0 1 l 3.03 3.03 l 1.656 4 l 4 1.656 l 3.03 3.03 l 4.281 0 l 4 1.656 l 4 -1.656 l 4.281 0 l 3.03 -3.03 l 4 -1.656 l 1.656 -4 l 3.03 -3.03 l 0 -1 l -3.03 3.03 l -1.656 4 l -4 1.656 l -3.03 3.03 l -4.281 0 l -4 1.656 l -4 -1.656 l -4.281 0 l -3.03 -3.03 l -4 -1.656 l -1.656 -4 l -3.03 -3.03 z" opacity="0.3" visibility="visible" fill="#000" display="inline" fill-rule="nonzero" stroke="none" fill-opacity="1" color="#000"/></g><g><use fill="#db6d6d" stroke="none" xlink:href="#SVGCleanerId_0"/><path d="m 24 2.344 l -4 1.656 l 8 0 l -4 -1.656 z m 4 1.656 l 7.313 3.03 l -3.03 -3.03 l -4.281 0 z m 7.313 3.03 l 5.656 5.656 l -1.656 -4 l -4 -1.656 z m 5.656 5.656 l 3.03 7.313 l 0 -4.281 l -3.03 -3.03 z m 3.03 7.313 l 0 8 l 1.656 -4 l -1.656 -4 z m 0 8 l -3.03 7.313 l 3.03 -3.03 l 0 -4.281 z m -3.03 7.313 l -5.656 5.656 l 4 -1.656 l 1.656 -4 z m -5.656 5.656 l -7.313 3.03 l 4.281 0 l 3.03 -3.03 z m -7.313 3.03 l -8 0 l 4 1.656 l 4 -1.656 z m -8 0 l -7.313 -3.03 l 3.03 3.03 l 4.281 0 z m -7.313 -3.03 l -5.656 -5.656 l 1.656 4 l 4 1.656 z m -5.656 -5.656 l -3.03 -7.313 l 0 4.281 l 3.03 3.03 z m -3.03 -7.313 l 0 -8 l -1.656 4 l 1.656 4 z m 0 -8 l 3.03 -7.313 l -3.03 3.03 l 0 4.281 z m 3.03 -7.313 l 5.656 -5.656 l -4 1.656 l -1.656 4 z m 5.656 -5.656 l 7.313 -3.03 l -4.281 0 l -3.03 3.03 z" opacity="0.05" visibility="visible" fill="#db6d6d" display="inline" fill-rule="nonzero" stroke="none" fill-opacity="1" color="#000"/></g><g><use opacity="0.05" stroke-opacity="1" stroke-dasharray="none" fill="#000" stroke="#000" stroke-width="2" stroke-miterlimit="4" xlink:href="#SVGCleanerId_0"/><use opacity="0.1" stroke-opacity="1" stroke-dasharray="none" fill="#000" stroke="#000" stroke-width="1" stroke-miterlimit="4" xlink:href="#SVGCleanerId_0"/></g><g><g clip-path="url(#clipPath-081841456)"><g transform="translate(0,1)"><g opacity="0.1"><!-- color: #db6d6d --><g><path d="m 36.04 27 c 0 4.969 -5.371 9 -12 9 c -6.625 0 -12 -4.03 -12 -9 c 0 -4.973 5.375 -9 12 -9 c 6.629 0 12 4.03 12 9 m 0 0" fill="#000" stroke="none" fill-rule="nonzero" fill-opacity="1"/><path d="m 15.06 31.996 l 0 -9.738 c 0 0 -4.063 0 -4.063 4.867 c 0 4.871 4.063 4.871 4.063 4.871 m 0 0" fill="#000" stroke="none" fill-rule="nonzero" fill-opacity="1"/><path d="m 32.938 31.996 l 0 -9.738 c 0 0 4.066 0 4.066 4.867 c 0 4.871 -4.066 4.871 -4.066 4.871 m 0 0" fill="#000" stroke="none" fill-rule="nonzero" fill-opacity="1"/><path d="m 24.01 11 c -5.574 -0.055 -8.402 3.082 -9.605 6.109 c -1.191 3.035 -0.977 6.02 -0.977 6.02 l 1.625 -0.113 c 0 0 -0.172 -2.688 0.859 -5.313 c 1.039 -2.621 3.074 -5.113 8.06 -5.07 c 4.992 0.051 7.05 2.559 8.09 5.156 c 1.039 2.598 0.863 5.223 0.863 5.223 l 1.629 0.113 c 0 0 0.219 -2.938 -0.98 -5.941 c -1.195 -3 -4 -6.133 -9.574 -6.188 m 0 0.008" fill="#000" stroke="none" fill-rule="nonzero" fill-opacity="1"/><path d="m 22 24.996 c 0 1.105 -0.895 2 -2 2 c -1.105 0 -2 -0.895 -2 -2 c 0 -1.102 0.895 -2 2 -2 c 1.105 0 2 0.898 2 2 m 0 0" fill="#000" stroke="none" fill-rule="nonzero" fill-opacity="1"/><path d="m 30 24.996 c 0 1.105 -0.895 2 -2 2 c -1.105 0 -2 -0.895 -2 -2 c 0 -1.102 0.895 -2 2 -2 c 1.105 0 2 0.898 2 2 m 0 0" fill="#000" stroke="none" fill-rule="nonzero" fill-opacity="1"/><path d="m 28 30.996 c 0 2.207 -1.789 4 -4 4 c -2.211 0 -4 -1.793 -4 -4 c 0 -2.211 1.789 -4 4 -4 c 2.211 0 4 1.789 4 4 m 0 0" fill="#000" stroke="none" fill-rule="nonzero" fill-opacity="1"/><path d="m 23 31 c 0 0.551 -0.449 1 -1 1 c -0.551 0 -1 -0.449 -1 -1 c 0 -0.555 0.449 -1 1 -1 c 0.551 0 1 0.445 1 1 m 0 0" fill="#000" stroke="none" fill-rule="nonzero" fill-opacity="1"/><path d="m 27 31 c 0 0.551 -0.449 1 -1 1 c -0.551 0 -1 -0.449 -1 -1 c 0 -0.555 0.449 -1 1 -1 c 0.551 0 1 0.445 1 1 m 0 0" fill="#000" stroke="none" fill-rule="nonzero" fill-opacity="1"/><path d="m 28 21 c -1.105 0 -2 0.898 -2 2 c 0 0.086 0.023 0.168 0.031 0.25 c 0.125 -0.984 0.949 -1.75 1.973 -1.75 c 1.02 0 1.844 0.766 1.969 1.75 c 0.012 -0.082 0.031 -0.16 0.031 -0.25 c 0 -1.105 -0.895 -2 -1.996 -2 m -0.008 0" fill="#000" stroke="none" fill-rule="nonzero" fill-opacity="1"/><path d="m 20 21 c -1.105 0 -2 0.898 -2 2 c 0 0.086 0.02 0.168 0.031 0.25 c 0.125 -0.984 0.949 -1.75 1.973 -1.75 c 1.02 0 1.844 0.766 1.969 1.75 c 0.012 -0.082 0.031 -0.16 0.031 -0.25 c 0 -1.105 -0.895 -2 -2 -2 m -0.004 0" fill="#000" stroke="none" fill-rule="nonzero" fill-opacity="1"/></g></g></g></g></g><g><g clip-path="url(#clipPath-094356563)"><!-- color: #db6d6d --><g><path d="m 36.04 27 c 0 4.969 -5.371 9 -12 9 c -6.625 0 -12 -4.03 -12 -9 c 0 -4.973 5.375 -9 12 -9 c 6.629 0 12 4.03 12 9 m 0 0" fill="#ffdec6" stroke="none" fill-rule="nonzero" fill-opacity="1"/><path d="m 15.06 31.996 l 0 -9.738 c 0 0 -4.063 0 -4.063 4.867 c 0 4.871 4.063 4.871 4.063 4.871 m 0 0" fill="#2d2d2d" stroke="none" fill-rule="nonzero" fill-opacity="1"/><path d="m 32.938 31.996 l 0 -9.738 c 0 0 4.066 0 4.066 4.867 c 0 4.871 -4.066 4.871 -4.066 4.871 m 0 0" fill="#2d2d2d" stroke="none" fill-rule="nonzero" fill-opacity="1"/><path d="m 24.01 11 c -5.574 -0.055 -8.402 3.082 -9.605 6.109 c -1.191 3.035 -0.977 6.02 -0.977 6.02 l 1.625 -0.113 c 0 0 -0.172 -2.688 0.859 -5.313 c 1.039 -2.621 3.074 -5.113 8.06 -5.07 c 4.992 0.051 7.05 2.559 8.09 5.156 c 1.039 2.598 0.863 5.223 0.863 5.223 l 1.629 0.113 c 0 0 0.219 -2.938 -0.98 -5.941 c -1.195 -3 -4 -6.133 -9.574 -6.188 m 0 0.008" fill="#2d2d2d" stroke="none" fill-rule="nonzero" fill-opacity="1"/><path d="m 22 24.996 c 0 1.105 -0.895 2 -2 2 c -1.105 0 -2 -0.895 -2 -2 c 0 -1.102 0.895 -2 2 -2 c 1.105 0 2 0.898 2 2 m 0 0" fill="#2d2d2d" stroke="none" fill-rule="nonzero" fill-opacity="1"/><path d="m 30 24.996 c 0 1.105 -0.895 2 -2 2 c -1.105 0 -2 -0.895 -2 -2 c 0 -1.102 0.895 -2 2 -2 c 1.105 0 2 0.898 2 2 m 0 0" fill="#2d2d2d" stroke="none" fill-rule="nonzero" fill-opacity="1"/><path d="m 28 30.996 c 0 2.207 -1.789 4 -4 4 c -2.211 0 -4 -1.793 -4 -4 c 0 -2.211 1.789 -4 4 -4 c 2.211 0 4 1.789 4 4 m 0 0" fill="#ffaba2" stroke="none" fill-rule="nonzero" fill-opacity="1"/><path d="m 23 31 c 0 0.551 -0.449 1 -1 1 c -0.551 0 -1 -0.449 -1 -1 c 0 -0.555 0.449 -1 1 -1 c 0.551 0 1 0.445 1 1 m 0 0" fill="#a42828" stroke="none" fill-rule="nonzero" fill-opacity="1"/><path d="m 27 31 c 0 0.551 -0.449 1 -1 1 c -0.551 0 -1 -0.449 -1 -1 c 0 -0.555 0.449 -1 1 -1 c 0.551 0 1 0.445 1 1 m 0 0" fill="#a42828" stroke="none" fill-rule="nonzero" fill-opacity="1"/><path d="m 28 21 c -1.105 0 -2 0.898 -2 2 c 0 0.086 0.023 0.168 0.031 0.25 c 0.125 -0.984 0.949 -1.75 1.973 -1.75 c 1.02 0 1.844 0.766 1.969 1.75 c 0.012 -0.082 0.031 -0.16 0.031 -0.25 c 0 -1.105 -0.895 -2 -1.996 -2 m -0.008 0" fill="#2d2d2d" stroke="none" fill-rule="nonzero" fill-opacity="1"/><path d="m 20 21 c -1.105 0 -2 0.898 -2 2 c 0 0.086 0.02 0.168 0.031 0.25 c 0.125 -0.984 0.949 -1.75 1.973 -1.75 c 1.02 0 1.844 0.766 1.969 1.75 c 0.012 -0.082 0.031 -0.16 0.031 -0.25 c 0 -1.105 -0.895 -2 -2 -2 m -0.004 0" fill="#2d2d2d" stroke="none" fill-rule="nonzero" fill-opacity="1"/></g></g></g><g><path d="m 20 4 -7.313 3.03 -5.656 5.656 -3.03 7.313 0 8 3.03 7.313 5.656 5.656 7.313 3.03 8 0 7.313 -3.03 5.656 -5.656 3.03 -7.313 0 -8 -3.03 -7.313 -5.656 -5.656 -7.313 -3.03 -8 0 z" clip-path="url(#clipPath4313)" transform="matrix(0,1,-1,0,48,0)" opacity="0.3" stroke-opacity="1" stroke-dasharray="none" visibility="visible" fill="none" display="inline" stroke="url(#linearGradient4375)" color="#000" stroke-width="1" stroke-miterlimit="4"/><path d="m 24 2.344 -4 1.656 -4.281 0 -3.03 3.03 l -4 1.656 -1.656 4 l -3.03 3.03 0 4.281 -1.656 4 1.656 4 l 0 4.281 3.03 3.03 1.656 4 4 1.656 l 3.03 3.03 4.281 0 4 1.656 4 -1.656 l 4.281 0 3.03 -3.03 4 -1.656 1.656 -4 l 3.03 -3.03 0 -4.281 1.656 -4 -1.656 -4 l 0 -4.281 -3.03 -3.03 -1.656 -4 -4 -1.656 l -3.03 -3.03 -4.281 0 -4 -1.656 z" clip-path="url(#clipPath4329)" opacity="0.2" stroke-opacity="1" visibility="visible" fill="none" display="inline" stroke="#000" color="#000" stroke-width="2"/></g></svg>