<svg viewBox="0 0 48 48" xmlns:xlink="http://www.w3.org/1999/xlink"><defs><clipPath clipPathUnits="userSpaceOnUse" id="clipPath4313"><path d="m 20 4 -7.313 3.03 -5.656 5.656 -3.03 7.313 0 8 3.03 7.313 5.656 5.656 7.313 3.03 8 0 7.313 -3.03 5.656 -5.656 3.03 -7.313 0 -8 -3.03 -7.313 -5.656 -5.656 -7.313 -3.03 -8 0 z"/></clipPath><clipPath clipPathUnits="userSpaceOnUse" id="clipPath4329"><path d="m 24 2.344 -4 1.656 -4.281 0 -3.03 3.03 l -4 1.656 -1.656 4 l -3.03 3.03 0 4.281 -1.656 4 1.656 4 l 0 4.281 3.03 3.03 1.656 4 4 1.656 l 3.03 3.03 4.281 0 4 1.656 4 -1.656 l 4.281 0 3.03 -3.03 4 -1.656 1.656 -4 l 3.03 -3.03 0 -4.281 1.656 -4 -1.656 -4 l 0 -4.281 -3.03 -3.03 -1.656 -4 -4 -1.656 l -3.03 -3.03 -4.281 0 -4 -1.656 z"/></clipPath><clipPath id="clipPath-446585739"><path d="m 24 2.344 l -4 1.656 l -4.281 0 l -3.03 3.03 l -4 1.656 l -1.656 4 l -3.03 3.03 l 0 4.281 l -1.656 4 l 1.656 4 l 0 4.281 l 3.03 3.03 l 1.656 4 l 4 1.656 l 3.03 3.03 l 4.281 0 l 4 1.656 l 4 -1.656 l 4.281 0 l 3.03 -3.03 l 4 -1.656 l 1.656 -4 l 3.03 -3.03 l 0 -4.281 l 1.656 -4 l -1.656 -4 l 0 -4.281 l -3.03 -3.03 l -1.656 -4 l -4 -1.656 l -3.03 -3.03 l -4.281 0 l -4 -1.656 z"/></clipPath><clipPath id="clipPath-459768556"><path d="m 24 2.344 l -4 1.656 l -4.281 0 l -3.03 3.03 l -4 1.656 l -1.656 4 l -3.03 3.03 l 0 4.281 l -1.656 4 l 1.656 4 l 0 4.281 l 3.03 3.03 l 1.656 4 l 4 1.656 l 3.03 3.03 l 4.281 0 l 4 1.656 l 4 -1.656 l 4.281 0 l 3.03 -3.03 l 4 -1.656 l 1.656 -4 l 3.03 -3.03 l 0 -4.281 l 1.656 -4 l -1.656 -4 l 0 -4.281 l -3.03 -3.03 l -1.656 -4 l -4 -1.656 l -3.03 -3.03 l -4.281 0 l -4 -1.656 z"/></clipPath><linearGradient id="linearGradient4317"><stop stop-color="#fff" stop-opacity="1"/><stop offset="1" stop-color="#fff" stop-opacity="0"/></linearGradient><clipPath clipPathUnits="userSpaceOnUse" id="clipPath4313"><path d="m 20 4 -7.313 3.03 -5.656 5.656 -3.03 7.313 0 8 3.03 7.313 5.656 5.656 7.313 3.03 8 0 7.313 -3.03 5.656 -5.656 3.03 -7.313 0 -8 -3.03 -7.313 -5.656 -5.656 -7.313 -3.03 -8 0 z"/></clipPath><linearGradient x2="44" x1="4" gradientUnits="userSpaceOnUse" id="linearGradient4375" xlink:href="#linearGradient4317"/><clipPath clipPathUnits="userSpaceOnUse" id="clipPath4329"><path d="m 24 2.344 -4 1.656 -4.281 0 -3.03 3.03 l -4 1.656 -1.656 4 l -3.03 3.03 0 4.281 -1.656 4 1.656 4 l 0 4.281 3.03 3.03 1.656 4 4 1.656 l 3.03 3.03 4.281 0 4 1.656 4 -1.656 l 4.281 0 3.03 -3.03 4 -1.656 1.656 -4 l 3.03 -3.03 0 -4.281 1.656 -4 -1.656 -4 l 0 -4.281 -3.03 -3.03 -1.656 -4 -4 -1.656 l -3.03 -3.03 -4.281 0 -4 -1.656 z"/></clipPath><clipPath id="clip1"><path d="m 11 14 l 27 0 l 0 9 l -27 0 m 0 -9"/></clipPath><clipPath id="clip2"><path d="m 35.57 22.08 c -0.25 0 -0.508 -0.063 -0.738 -0.207 c -4.25 -2.563 -9.109 -3.918 -14.06 -3.918 c -2.676 0 -5.324 0.398 -7.871 1.164 c -0.777 0.234 -1.59 -0.223 -1.82 -1.02 c -0.227 -0.797 0.215 -1.633 0.992 -1.867 c 2.816 -0.852 5.746 -1.285 8.699 -1.285 c 5.473 0 10.848 1.496 15.543 4.332 c 0.699 0.422 0.934 1.344 0.523 2.066 c -0.273 0.477 -0.77 0.734 -1.273 0.734 m 0 0"/></clipPath><clipPath id="clip3"><path d="m 12 21 l 23 0 l 0 7 l -23 0 m 0 -7"/></clipPath><clipPath id="clip4"><path d="m 33.16 27.527 c -0.238 0 -0.48 -0.066 -0.699 -0.203 c -3.5 -2.25 -7.547 -3.441 -11.695 -3.441 c -2.305 0 -4.578 0.367 -6.758 1.082 c -0.691 0.23 -1.434 -0.16 -1.656 -0.875 c -0.223 -0.711 0.16 -1.473 0.852 -1.703 c 2.441 -0.801 4.984 -1.211 7.563 -1.211 c 4.645 0 9.172 1.332 13.09 3.852 c 0.617 0.395 0.805 1.23 0.418 1.867 c -0.25 0.41 -0.68 0.633 -1.117 0.633 m 0 0"/></clipPath><clipPath id="clip5"><path d="m 13 27 l 19 0 l 0 6 l -19 0 m 0 -6"/></clipPath><clipPath id="clip6"><path d="m 30.762 32.961 c -0.227 0 -0.461 -0.07 -0.664 -0.215 c -2.75 -1.961 -5.977 -2.996 -9.328 -2.996 c -1.938 0 -3.836 0.344 -5.637 1.023 c -0.609 0.227 -1.281 -0.094 -1.504 -0.719 c -0.223 -0.621 0.09 -1.313 0.695 -1.543 c 2.063 -0.773 4.23 -1.168 6.445 -1.168 c 3.832 0 7.52 1.184 10.66 3.426 c 0.535 0.375 0.664 1.125 0.297 1.672 c -0.227 0.336 -0.594 0.52 -0.965 0.52 m 0 0"/></clipPath><clipPath id="clip1"><path d="m 11 14 l 27 0 l 0 9 l -27 0 m 0 -9"/></clipPath><clipPath id="clip2"><path d="m 35.57 22.08 c -0.25 0 -0.508 -0.063 -0.738 -0.207 c -4.25 -2.563 -9.109 -3.918 -14.06 -3.918 c -2.676 0 -5.324 0.398 -7.871 1.164 c -0.777 0.234 -1.59 -0.223 -1.82 -1.02 c -0.227 -0.797 0.215 -1.633 0.992 -1.867 c 2.816 -0.852 5.746 -1.285 8.699 -1.285 c 5.473 0 10.848 1.496 15.543 4.332 c 0.699 0.422 0.934 1.344 0.523 2.066 c -0.273 0.477 -0.77 0.734 -1.273 0.734 m 0 0"/></clipPath><clipPath id="clip3"><path d="m 12 21 l 23 0 l 0 7 l -23 0 m 0 -7"/></clipPath><clipPath id="clip4"><path d="m 33.16 27.527 c -0.238 0 -0.48 -0.066 -0.699 -0.203 c -3.5 -2.25 -7.547 -3.441 -11.695 -3.441 c -2.305 0 -4.578 0.367 -6.758 1.082 c -0.691 0.23 -1.434 -0.16 -1.656 -0.875 c -0.223 -0.711 0.16 -1.473 0.852 -1.703 c 2.441 -0.801 4.984 -1.211 7.563 -1.211 c 4.645 0 9.172 1.332 13.09 3.852 c 0.617 0.395 0.805 1.23 0.418 1.867 c -0.25 0.41 -0.68 0.633 -1.117 0.633 m 0 0"/></clipPath><clipPath id="clip5"><path d="m 13 27 l 19 0 l 0 6 l -19 0 m 0 -6"/></clipPath><clipPath id="clip6"><path d="m 30.762 32.961 c -0.227 0 -0.461 -0.07 -0.664 -0.215 c -2.75 -1.961 -5.977 -2.996 -9.328 -2.996 c -1.938 0 -3.836 0.344 -5.637 1.023 c -0.609 0.227 -1.281 -0.094 -1.504 -0.719 c -0.223 -0.621 0.09 -1.313 0.695 -1.543 c 2.063 -0.773 4.23 -1.168 6.445 -1.168 c 3.832 0 7.52 1.184 10.66 3.426 c 0.535 0.375 0.664 1.125 0.297 1.672 c -0.227 0.336 -0.594 0.52 -0.965 0.52 m 0 0"/></clipPath><path id="SVGCleanerId_0" d="m 24 2.344 l -4 1.656 l -4.281 0 l -3.03 3.03 l -4 1.656 l -1.656 4 l -3.03 3.03 l 0 4.281 l -1.656 4 l 1.656 4 l 0 4.281 l 3.03 3.03 l 1.656 4 l 4 1.656 l 3.03 3.03 l 4.281 0 l 4 1.656 l 4 -1.656 l 4.281 0 l 3.03 -3.03 l 4 -1.656 l 1.656 -4 l 3.03 -3.03 l 0 -4.281 l 1.656 -4 l -1.656 -4 l 0 -4.281 l -3.03 -3.03 l -1.656 -4 l -4 -1.656 l -3.03 -3.03 l -4.281 0 l -4 -1.656 z" visibility="visible" display="inline" fill-rule="nonzero" color="#000" fill-opacity="1"/></defs><g><path d="m 2.563 24.5 l -0.219 0.5 l 1.656 4 l 0 -1 l -1.438 -3.5 z m 42.875 0 l -1.438 3.5 l 0 1 l 1.656 -4 l -0.219 -0.5 z m -41.44 7.781 l 0 1 l 3.03 3.03 l 1.656 4 l 4 1.656 l 3.03 3.03 l 4.281 0 l 4 1.656 l 4 -1.656 l 4.281 0 l 3.03 -3.03 l 4 -1.656 l 1.656 -4 l 3.03 -3.03 l 0 -1 l -3.03 3.03 l -1.656 4 l -4 1.656 l -3.03 3.03 l -4.281 0 l -4 1.656 l -4 -1.656 l -4.281 0 l -3.03 -3.03 l -4 -1.656 l -1.656 -4 l -3.03 -3.03 z" opacity="0.3" visibility="visible" fill="#000" display="inline" fill-rule="nonzero" stroke="none" fill-opacity="1" color="#000"/></g><g><use fill="#a8cd01" stroke="none" xlink:href="#SVGCleanerId_0"/><path d="m 24 2.344 l -4 1.656 l 8 0 l -4 -1.656 z m 4 1.656 l 7.313 3.03 l -3.03 -3.03 l -4.281 0 z m 7.313 3.03 l 5.656 5.656 l -1.656 -4 l -4 -1.656 z m 5.656 5.656 l 3.03 7.313 l 0 -4.281 l -3.03 -3.03 z m 3.03 7.313 l 0 8 l 1.656 -4 l -1.656 -4 z m 0 8 l -3.03 7.313 l 3.03 -3.03 l 0 -4.281 z m -3.03 7.313 l -5.656 5.656 l 4 -1.656 l 1.656 -4 z m -5.656 5.656 l -7.313 3.03 l 4.281 0 l 3.03 -3.03 z m -7.313 3.03 l -8 0 l 4 1.656 l 4 -1.656 z m -8 0 l -7.313 -3.03 l 3.03 3.03 l 4.281 0 z m -7.313 -3.03 l -5.656 -5.656 l 1.656 4 l 4 1.656 z m -5.656 -5.656 l -3.03 -7.313 l 0 4.281 l 3.03 3.03 z m -3.03 -7.313 l 0 -8 l -1.656 4 l 1.656 4 z m 0 -8 l 3.03 -7.313 l -3.03 3.03 l 0 4.281 z m 3.03 -7.313 l 5.656 -5.656 l -4 1.656 l -1.656 4 z m 5.656 -5.656 l 7.313 -3.03 l -4.281 0 l -3.03 3.03 z" opacity="0.05" visibility="visible" fill="#a8cd01" display="inline" fill-rule="nonzero" stroke="none" fill-opacity="1" color="#000"/></g><g><use opacity="0.05" stroke-opacity="1" stroke-dasharray="none" fill="#000" stroke="#000" stroke-width="2" stroke-miterlimit="4" xlink:href="#SVGCleanerId_0"/><use opacity="0.1" stroke-opacity="1" stroke-dasharray="none" fill="#000" stroke="#000" stroke-width="1" stroke-miterlimit="4" xlink:href="#SVGCleanerId_0"/></g><g><g clip-path="url(#clipPath-446585739)"><g transform="translate(0,1)"><g opacity="0.1"><!-- color: #a8cd01 --><g><g clip-path="url(#clip1)"><g clip-path="url(#clip2)"><use xlink:href="#SVGCleanerId_1"/></g></g><g clip-path="url(#clip3)"><g clip-path="url(#clip4)"><use xlink:href="#SVGCleanerId_2"/></g></g><g clip-path="url(#clip5)"><g clip-path="url(#clip6)"><use xlink:href="#SVGCleanerId_3"/></g></g></g></g></g></g></g><g><g clip-path="url(#clipPath-459768556)"><!-- color: #a8cd01 --><g><g clip-path="url(#clip1)"><g clip-path="url(#clip2)"><path d="m 35.57 22.08 c -0.25 0 -0.508 -0.063 -0.738 -0.207 c -4.25 -2.563 -9.109 -3.918 -14.06 -3.918 c -2.676 0 -5.324 0.398 -7.871 1.164 c -0.777 0.234 -1.59 -0.223 -1.82 -1.02 c -0.227 -0.797 0.215 -1.633 0.992 -1.867 c 2.816 -0.852 5.746 -1.285 8.699 -1.285 c 5.473 0 10.848 1.496 15.543 4.332 c 0.699 0.422 0.934 1.344 0.523 2.066 c -0.273 0.477 -0.77 0.734 -1.273 0.734" fill="#000" stroke="none" fill-rule="nonzero" fill-opacity="1" id="SVGCleanerId_1"/></g></g><g clip-path="url(#clip3)"><g clip-path="url(#clip4)"><path d="m 33.16 27.527 c -0.238 0 -0.48 -0.066 -0.699 -0.203 c -3.5 -2.25 -7.547 -3.441 -11.695 -3.441 c -2.305 0 -4.578 0.367 -6.758 1.082 c -0.691 0.23 -1.434 -0.16 -1.656 -0.875 c -0.223 -0.711 0.16 -1.473 0.852 -1.703 c 2.441 -0.801 4.984 -1.211 7.563 -1.211 c 4.645 0 9.172 1.332 13.09 3.852 c 0.617 0.395 0.805 1.23 0.418 1.867 c -0.25 0.41 -0.68 0.633 -1.117 0.633" fill="#000" stroke="none" fill-rule="nonzero" fill-opacity="1" id="SVGCleanerId_2"/></g></g><g clip-path="url(#clip5)"><g clip-path="url(#clip6)"><path d="m 30.762 32.961 c -0.227 0 -0.461 -0.07 -0.664 -0.215 c -2.75 -1.961 -5.977 -2.996 -9.328 -2.996 c -1.938 0 -3.836 0.344 -5.637 1.023 c -0.609 0.227 -1.281 -0.094 -1.504 -0.719 c -0.223 -0.621 0.09 -1.313 0.695 -1.543 c 2.063 -0.773 4.23 -1.168 6.445 -1.168 c 3.832 0 7.52 1.184 10.66 3.426 c 0.535 0.375 0.664 1.125 0.297 1.672 c -0.227 0.336 -0.594 0.52 -0.965 0.52" fill="#000" stroke="none" fill-rule="nonzero" fill-opacity="1" id="SVGCleanerId_3"/></g></g></g></g></g><g><path d="m 20 4 -7.313 3.03 -5.656 5.656 -3.03 7.313 0 8 3.03 7.313 5.656 5.656 7.313 3.03 8 0 7.313 -3.03 5.656 -5.656 3.03 -7.313 0 -8 -3.03 -7.313 -5.656 -5.656 -7.313 -3.03 -8 0 z" clip-path="url(#clipPath4313)" transform="matrix(0,1,-1,0,48,0)" opacity="0.3" stroke-opacity="1" stroke-dasharray="none" visibility="visible" fill="none" display="inline" stroke="url(#linearGradient4375)" color="#000" stroke-width="1" stroke-miterlimit="4"/><path d="m 24 2.344 -4 1.656 -4.281 0 -3.03 3.03 l -4 1.656 -1.656 4 l -3.03 3.03 0 4.281 -1.656 4 1.656 4 l 0 4.281 3.03 3.03 1.656 4 4 1.656 l 3.03 3.03 4.281 0 4 1.656 4 -1.656 l 4.281 0 3.03 -3.03 4 -1.656 1.656 -4 l 3.03 -3.03 0 -4.281 1.656 -4 -1.656 -4 l 0 -4.281 -3.03 -3.03 -1.656 -4 -4 -1.656 l -3.03 -3.03 -4.281 0 -4 -1.656 z" clip-path="url(#clipPath4329)" opacity="0.2" stroke-opacity="1" visibility="visible" fill="none" display="inline" stroke="#000" color="#000" stroke-width="2"/></g></svg>