<svg viewBox="0 0 48 48" xmlns:xlink="http://www.w3.org/1999/xlink"><defs><clipPath clipPathUnits="userSpaceOnUse" id="clipPath4313"><path d="m 20 4 -7.313 3.03 -5.656 5.656 -3.03 7.313 0 8 3.03 7.313 5.656 5.656 7.313 3.03 8 0 7.313 -3.03 5.656 -5.656 3.03 -7.313 0 -8 -3.03 -7.313 -5.656 -5.656 -7.313 -3.03 -8 0 z"/></clipPath><clipPath clipPathUnits="userSpaceOnUse" id="clipPath4329"><path d="m 24 2.344 -4 1.656 -4.281 0 -3.03 3.03 l -4 1.656 -1.656 4 l -3.03 3.03 0 4.281 -1.656 4 1.656 4 l 0 4.281 3.03 3.03 1.656 4 4 1.656 l 3.03 3.03 4.281 0 4 1.656 4 -1.656 l 4.281 0 3.03 -3.03 4 -1.656 1.656 -4 l 3.03 -3.03 0 -4.281 1.656 -4 -1.656 -4 l 0 -4.281 -3.03 -3.03 -1.656 -4 -4 -1.656 l -3.03 -3.03 -4.281 0 -4 -1.656 z"/></clipPath><clipPath id="clipPath-932893896"><path d="m 24 2.344 l -4 1.656 l -4.281 0 l -3.03 3.03 l -4 1.656 l -1.656 4 l -3.03 3.03 l 0 4.281 l -1.656 4 l 1.656 4 l 0 4.281 l 3.03 3.03 l 1.656 4 l 4 1.656 l 3.03 3.03 l 4.281 0 l 4 1.656 l 4 -1.656 l 4.281 0 l 3.03 -3.03 l 4 -1.656 l 1.656 -4 l 3.03 -3.03 l 0 -4.281 l 1.656 -4 l -1.656 -4 l 0 -4.281 l -3.03 -3.03 l -1.656 -4 l -4 -1.656 l -3.03 -3.03 l -4.281 0 l -4 -1.656 z"/></clipPath><clipPath id="clipPath-938939982"><path d="m 24 2.344 l -4 1.656 l -4.281 0 l -3.03 3.03 l -4 1.656 l -1.656 4 l -3.03 3.03 l 0 4.281 l -1.656 4 l 1.656 4 l 0 4.281 l 3.03 3.03 l 1.656 4 l 4 1.656 l 3.03 3.03 l 4.281 0 l 4 1.656 l 4 -1.656 l 4.281 0 l 3.03 -3.03 l 4 -1.656 l 1.656 -4 l 3.03 -3.03 l 0 -4.281 l 1.656 -4 l -1.656 -4 l 0 -4.281 l -3.03 -3.03 l -1.656 -4 l -4 -1.656 l -3.03 -3.03 l -4.281 0 l -4 -1.656 z"/></clipPath><linearGradient id="linearGradient4317"><stop stop-color="#fff" stop-opacity="1"/><stop offset="1" stop-color="#fff" stop-opacity="0"/></linearGradient><clipPath clipPathUnits="userSpaceOnUse" id="clipPath4313"><path d="m 20 4 -7.313 3.03 -5.656 5.656 -3.03 7.313 0 8 3.03 7.313 5.656 5.656 7.313 3.03 8 0 7.313 -3.03 5.656 -5.656 3.03 -7.313 0 -8 -3.03 -7.313 -5.656 -5.656 -7.313 -3.03 -8 0 z"/></clipPath><linearGradient x2="44" x1="4" gradientUnits="userSpaceOnUse" id="linearGradient4375" xlink:href="#linearGradient4317"/><clipPath clipPathUnits="userSpaceOnUse" id="clipPath4329"><path d="m 24 2.344 -4 1.656 -4.281 0 -3.03 3.03 l -4 1.656 -1.656 4 l -3.03 3.03 0 4.281 -1.656 4 1.656 4 l 0 4.281 3.03 3.03 1.656 4 4 1.656 l 3.03 3.03 4.281 0 4 1.656 4 -1.656 l 4.281 0 3.03 -3.03 4 -1.656 1.656 -4 l 3.03 -3.03 0 -4.281 1.656 -4 -1.656 -4 l 0 -4.281 -3.03 -3.03 -1.656 -4 -4 -1.656 l -3.03 -3.03 -4.281 0 -4 -1.656 z"/></clipPath><path id="SVGCleanerId_0" d="m 24 2.344 l -4 1.656 l -4.281 0 l -3.03 3.03 l -4 1.656 l -1.656 4 l -3.03 3.03 l 0 4.281 l -1.656 4 l 1.656 4 l 0 4.281 l 3.03 3.03 l 1.656 4 l 4 1.656 l 3.03 3.03 l 4.281 0 l 4 1.656 l 4 -1.656 l 4.281 0 l 3.03 -3.03 l 4 -1.656 l 1.656 -4 l 3.03 -3.03 l 0 -4.281 l 1.656 -4 l -1.656 -4 l 0 -4.281 l -3.03 -3.03 l -1.656 -4 l -4 -1.656 l -3.03 -3.03 l -4.281 0 l -4 -1.656 z" visibility="visible" display="inline" fill-rule="nonzero" color="#000" fill-opacity="1"/></defs><g><path d="m 2.563 24.5 l -0.219 0.5 l 1.656 4 l 0 -1 l -1.438 -3.5 z m 42.875 0 l -1.438 3.5 l 0 1 l 1.656 -4 l -0.219 -0.5 z m -41.44 7.781 l 0 1 l 3.03 3.03 l 1.656 4 l 4 1.656 l 3.03 3.03 l 4.281 0 l 4 1.656 l 4 -1.656 l 4.281 0 l 3.03 -3.03 l 4 -1.656 l 1.656 -4 l 3.03 -3.03 l 0 -1 l -3.03 3.03 l -1.656 4 l -4 1.656 l -3.03 3.03 l -4.281 0 l -4 1.656 l -4 -1.656 l -4.281 0 l -3.03 -3.03 l -4 -1.656 l -1.656 -4 l -3.03 -3.03 z" opacity="0.3" visibility="visible" fill="#000" display="inline" fill-rule="nonzero" stroke="none" fill-opacity="1" color="#000"/></g><g><use fill="#eee" stroke="none" xlink:href="#SVGCleanerId_0"/><path d="m 24 2.344 l -4 1.656 l 8 0 l -4 -1.656 z m 4 1.656 l 7.313 3.03 l -3.03 -3.03 l -4.281 0 z m 7.313 3.03 l 5.656 5.656 l -1.656 -4 l -4 -1.656 z m 5.656 5.656 l 3.03 7.313 l 0 -4.281 l -3.03 -3.03 z m 3.03 7.313 l 0 8 l 1.656 -4 l -1.656 -4 z m 0 8 l -3.03 7.313 l 3.03 -3.03 l 0 -4.281 z m -3.03 7.313 l -5.656 5.656 l 4 -1.656 l 1.656 -4 z m -5.656 5.656 l -7.313 3.03 l 4.281 0 l 3.03 -3.03 z m -7.313 3.03 l -8 0 l 4 1.656 l 4 -1.656 z m -8 0 l -7.313 -3.03 l 3.03 3.03 l 4.281 0 z m -7.313 -3.03 l -5.656 -5.656 l 1.656 4 l 4 1.656 z m -5.656 -5.656 l -3.03 -7.313 l 0 4.281 l 3.03 3.03 z m -3.03 -7.313 l 0 -8 l -1.656 4 l 1.656 4 z m 0 -8 l 3.03 -7.313 l -3.03 3.03 l 0 4.281 z m 3.03 -7.313 l 5.656 -5.656 l -4 1.656 l -1.656 4 z m 5.656 -5.656 l 7.313 -3.03 l -4.281 0 l -3.03 3.03 z" opacity="0.05" visibility="visible" fill="#eee" display="inline" fill-rule="nonzero" stroke="none" fill-opacity="1" color="#000"/></g><g><use opacity="0.05" stroke-opacity="1" stroke-dasharray="none" fill="#000" stroke="#000" stroke-width="2" stroke-miterlimit="4" xlink:href="#SVGCleanerId_0"/><use opacity="0.1" stroke-opacity="1" stroke-dasharray="none" fill="#000" stroke="#000" stroke-width="1" stroke-miterlimit="4" xlink:href="#SVGCleanerId_0"/></g><g><g clip-path="url(#clipPath-932893896)"><g transform="translate(0,1)"><g opacity="0.1"><!-- color: #eeeeee --><g><path d="m 21.14 36.816 c -6.203 -0.98 -9.141 -3.527 -9.141 -4.32 l 0 -4.242 l 0.684 1.141 c 2.145 3.559 11.402 5.277 17.453 3.234 c 2.965 -0.996 4.719 -2.359 4.719 -3.66 c -1.711 -3.953 -8.109 -3.66 -10.02 -4.805 l 0.137 -3.035 c 0.035 -0.777 5.301 0.797 7.219 1.789 c 2.824 1.457 3.539 2.496 3.727 5.371 c 0.207 3.254 -0.609 5.172 -2.719 6.41 c -3.055 1.797 -8.289 2.711 -12.05 2.113 m -3.148 -7.824 c -4.473 -1.434 -5.992 -3.27 -5.992 -7.23 c 0 -2.984 0.953 -4.496 3.754 -5.934 c 3.582 -1.836 8.08 -2.27 12.867 -1.246 c 4.871 1.047 7.387 2.398 7.328 3.59 c -0.016 0.938 0.113 4.531 0 4.238 c -1.953 -4.992 -14.668 -6.66 -20.953 -2.766 c -3.586 2.219 -1.535 5.102 4.41 6.207 c 1.184 0.219 3.582 0.469 4.055 0.559 l 0 3.148 c -0.973 -0.016 -4.539 -0.27 -5.465 -0.566 m -0.004 0" fill="#000" stroke="none" fill-rule="nonzero" fill-opacity="1"/><use xlink:href="#SVGCleanerId_1"/></g></g></g></g></g><g><g clip-path="url(#clipPath-938939982)"><!-- color: #eeeeee --><g><path d="m 21.14 36.816 c -6.203 -0.98 -9.141 -3.527 -9.141 -4.32 l 0 -4.242 l 0.684 1.141 c 2.145 3.559 11.402 5.277 17.453 3.234 c 2.965 -0.996 4.719 -2.359 4.719 -3.66 c -1.711 -3.953 -8.109 -3.66 -10.02 -4.805 l 0.137 -3.035 c 0.035 -0.777 5.301 0.797 7.219 1.789 c 2.824 1.457 3.539 2.496 3.727 5.371 c 0.207 3.254 -0.609 5.172 -2.719 6.41 c -3.055 1.797 -8.289 2.711 -12.05 2.113 m -3.148 -7.824 c -4.473 -1.434 -5.992 -3.27 -5.992 -7.23 c 0 -2.984 0.953 -4.496 3.754 -5.934 c 3.582 -1.836 8.08 -2.27 12.867 -1.246 c 4.871 1.047 7.387 2.398 7.328 3.59 c -0.016 0.938 0.113 4.531 0 4.238 c -1.953 -4.992 -14.668 -6.66 -20.953 -2.766 c -3.586 2.219 -1.535 5.102 4.41 6.207 c 1.184 0.219 3.582 0.469 4.055 0.559 l 0 3.148 c -0.973 -0.016 -4.539 -0.27 -5.465 -0.566 m -0.004 0" fill="#0aa3ec" stroke="none" fill-rule="nonzero" fill-opacity="1"/><path d="m 21.14 33.781 c -6.203 -0.984 -9.141 -3.531 -9.141 -4.324 l 0 -4.242 l 0.684 1.141 c 2.145 3.563 11.402 5.281 17.453 3.238 c 2.965 -1 4.719 -2.359 4.719 -3.66 c -1.711 -3.953 -7.977 -3.664 -9.887 -4.805 l 0 -2.82 c 0 -0.777 5.301 0.582 7.219 1.57 c 2.824 1.457 3.539 2.496 3.727 5.375 c 0.207 3.254 -0.609 5.172 -2.719 6.41 c -3.055 1.793 -8.289 2.711 -12.05 2.113 m -3.148 -7.824 c -4.473 -1.438 -5.992 -3.27 -5.992 -7.23 c 0 -2.988 0.953 -4.5 3.754 -5.938 c 3.582 -1.836 8.08 -2.27 12.867 -1.242 c 4.871 1.043 7.387 2.398 7.328 3.586 c -0.016 0.941 0.113 4.531 0 4.242 c -1.953 -4.996 -14.668 -6.66 -20.953 -2.77 c -3.586 2.219 -1.535 5.102 4.41 6.207 c 1.184 0.219 3.582 0.473 4.055 0.559 l 0 3.148 c -0.973 -0.012 -4.539 -0.27 -5.465 -0.566 m -0.004 0.004" fill="#000" stroke="none" fill-rule="nonzero" fill-opacity="1" id="SVGCleanerId_1"/></g></g></g><g><path d="m 20 4 -7.313 3.03 -5.656 5.656 -3.03 7.313 0 8 3.03 7.313 5.656 5.656 7.313 3.03 8 0 7.313 -3.03 5.656 -5.656 3.03 -7.313 0 -8 -3.03 -7.313 -5.656 -5.656 -7.313 -3.03 -8 0 z" clip-path="url(#clipPath4313)" transform="matrix(0,1,-1,0,48,0)" opacity="0.3" stroke-opacity="1" stroke-dasharray="none" visibility="visible" fill="none" display="inline" stroke="url(#linearGradient4375)" color="#000" stroke-width="1" stroke-miterlimit="4"/><path d="m 24 2.344 -4 1.656 -4.281 0 -3.03 3.03 l -4 1.656 -1.656 4 l -3.03 3.03 0 4.281 -1.656 4 1.656 4 l 0 4.281 3.03 3.03 1.656 4 4 1.656 l 3.03 3.03 4.281 0 4 1.656 4 -1.656 l 4.281 0 3.03 -3.03 4 -1.656 1.656 -4 l 3.03 -3.03 0 -4.281 1.656 -4 -1.656 -4 l 0 -4.281 -3.03 -3.03 -1.656 -4 -4 -1.656 l -3.03 -3.03 -4.281 0 -4 -1.656 z" clip-path="url(#clipPath4329)" opacity="0.2" stroke-opacity="1" visibility="visible" fill="none" display="inline" stroke="#000" color="#000" stroke-width="2"/></g></svg>