<svg viewBox="0 0 48 48" xmlns:xlink="http://www.w3.org/1999/xlink"><defs><clipPath clipPathUnits="userSpaceOnUse" id="clipPath4313"><path d="m 20 4 -7.313 3.03 -5.656 5.656 -3.03 7.313 0 8 3.03 7.313 5.656 5.656 7.313 3.03 8 0 7.313 -3.03 5.656 -5.656 3.03 -7.313 0 -8 -3.03 -7.313 -5.656 -5.656 -7.313 -3.03 -8 0 z"/></clipPath><clipPath clipPathUnits="userSpaceOnUse" id="clipPath4329"><path d="m 24 2.344 -4 1.656 -4.281 0 -3.03 3.03 l -4 1.656 -1.656 4 l -3.03 3.03 0 4.281 -1.656 4 1.656 4 l 0 4.281 3.03 3.03 1.656 4 4 1.656 l 3.03 3.03 4.281 0 4 1.656 4 -1.656 l 4.281 0 3.03 -3.03 4 -1.656 1.656 -4 l 3.03 -3.03 0 -4.281 1.656 -4 -1.656 -4 l 0 -4.281 -3.03 -3.03 -1.656 -4 -4 -1.656 l -3.03 -3.03 -4.281 0 -4 -1.656 z"/></clipPath><clipPath id="clipPath-089140476"><path d="m 24 2.344 l -4 1.656 l -4.281 0 l -3.03 3.03 l -4 1.656 l -1.656 4 l -3.03 3.03 l 0 4.281 l -1.656 4 l 1.656 4 l 0 4.281 l 3.03 3.03 l 1.656 4 l 4 1.656 l 3.03 3.03 l 4.281 0 l 4 1.656 l 4 -1.656 l 4.281 0 l 3.03 -3.03 l 4 -1.656 l 1.656 -4 l 3.03 -3.03 l 0 -4.281 l 1.656 -4 l -1.656 -4 l 0 -4.281 l -3.03 -3.03 l -1.656 -4 l -4 -1.656 l -3.03 -3.03 l -4.281 0 l -4 -1.656 z"/></clipPath><clipPath id="clipPath-095101259"><path d="m 24 2.344 l -4 1.656 l -4.281 0 l -3.03 3.03 l -4 1.656 l -1.656 4 l -3.03 3.03 l 0 4.281 l -1.656 4 l 1.656 4 l 0 4.281 l 3.03 3.03 l 1.656 4 l 4 1.656 l 3.03 3.03 l 4.281 0 l 4 1.656 l 4 -1.656 l 4.281 0 l 3.03 -3.03 l 4 -1.656 l 1.656 -4 l 3.03 -3.03 l 0 -4.281 l 1.656 -4 l -1.656 -4 l 0 -4.281 l -3.03 -3.03 l -1.656 -4 l -4 -1.656 l -3.03 -3.03 l -4.281 0 l -4 -1.656 z"/></clipPath><linearGradient id="linearGradient4317"><stop stop-color="#fff" stop-opacity="1"/><stop offset="1" stop-color="#fff" stop-opacity="0"/></linearGradient><clipPath clipPathUnits="userSpaceOnUse" id="clipPath4313"><path d="m 20 4 -7.313 3.03 -5.656 5.656 -3.03 7.313 0 8 3.03 7.313 5.656 5.656 7.313 3.03 8 0 7.313 -3.03 5.656 -5.656 3.03 -7.313 0 -8 -3.03 -7.313 -5.656 -5.656 -7.313 -3.03 -8 0 z"/></clipPath><linearGradient x2="44" x1="4" gradientUnits="userSpaceOnUse" id="linearGradient4375" xlink:href="#linearGradient4317"/><clipPath clipPathUnits="userSpaceOnUse" id="clipPath4329"><path d="m 24 2.344 -4 1.656 -4.281 0 -3.03 3.03 l -4 1.656 -1.656 4 l -3.03 3.03 0 4.281 -1.656 4 1.656 4 l 0 4.281 3.03 3.03 1.656 4 4 1.656 l 3.03 3.03 4.281 0 4 1.656 4 -1.656 l 4.281 0 3.03 -3.03 4 -1.656 1.656 -4 l 3.03 -3.03 0 -4.281 1.656 -4 -1.656 -4 l 0 -4.281 -3.03 -3.03 -1.656 -4 -4 -1.656 l -3.03 -3.03 -4.281 0 -4 -1.656 z"/></clipPath><path id="SVGCleanerId_0" d="m 24 2.344 l -4 1.656 l -4.281 0 l -3.03 3.03 l -4 1.656 l -1.656 4 l -3.03 3.03 l 0 4.281 l -1.656 4 l 1.656 4 l 0 4.281 l 3.03 3.03 l 1.656 4 l 4 1.656 l 3.03 3.03 l 4.281 0 l 4 1.656 l 4 -1.656 l 4.281 0 l 3.03 -3.03 l 4 -1.656 l 1.656 -4 l 3.03 -3.03 l 0 -4.281 l 1.656 -4 l -1.656 -4 l 0 -4.281 l -3.03 -3.03 l -1.656 -4 l -4 -1.656 l -3.03 -3.03 l -4.281 0 l -4 -1.656 z" visibility="visible" display="inline" fill-rule="nonzero" color="#000" fill-opacity="1"/></defs><g><path d="m 2.563 24.5 l -0.219 0.5 l 1.656 4 l 0 -1 l -1.438 -3.5 z m 42.875 0 l -1.438 3.5 l 0 1 l 1.656 -4 l -0.219 -0.5 z m -41.44 7.781 l 0 1 l 3.03 3.03 l 1.656 4 l 4 1.656 l 3.03 3.03 l 4.281 0 l 4 1.656 l 4 -1.656 l 4.281 0 l 3.03 -3.03 l 4 -1.656 l 1.656 -4 l 3.03 -3.03 l 0 -1 l -3.03 3.03 l -1.656 4 l -4 1.656 l -3.03 3.03 l -4.281 0 l -4 1.656 l -4 -1.656 l -4.281 0 l -3.03 -3.03 l -4 -1.656 l -1.656 -4 l -3.03 -3.03 z" opacity="0.3" visibility="visible" fill="#000" display="inline" fill-rule="nonzero" stroke="none" fill-opacity="1" color="#000"/></g><g><use fill="#3d3d3d" stroke="none" xlink:href="#SVGCleanerId_0"/><path d="m 24 2.344 l -4 1.656 l 8 0 l -4 -1.656 z m 4 1.656 l 7.313 3.03 l -3.03 -3.03 l -4.281 0 z m 7.313 3.03 l 5.656 5.656 l -1.656 -4 l -4 -1.656 z m 5.656 5.656 l 3.03 7.313 l 0 -4.281 l -3.03 -3.03 z m 3.03 7.313 l 0 8 l 1.656 -4 l -1.656 -4 z m 0 8 l -3.03 7.313 l 3.03 -3.03 l 0 -4.281 z m -3.03 7.313 l -5.656 5.656 l 4 -1.656 l 1.656 -4 z m -5.656 5.656 l -7.313 3.03 l 4.281 0 l 3.03 -3.03 z m -7.313 3.03 l -8 0 l 4 1.656 l 4 -1.656 z m -8 0 l -7.313 -3.03 l 3.03 3.03 l 4.281 0 z m -7.313 -3.03 l -5.656 -5.656 l 1.656 4 l 4 1.656 z m -5.656 -5.656 l -3.03 -7.313 l 0 4.281 l 3.03 3.03 z m -3.03 -7.313 l 0 -8 l -1.656 4 l 1.656 4 z m 0 -8 l 3.03 -7.313 l -3.03 3.03 l 0 4.281 z m 3.03 -7.313 l 5.656 -5.656 l -4 1.656 l -1.656 4 z m 5.656 -5.656 l 7.313 -3.03 l -4.281 0 l -3.03 3.03 z" opacity="0.05" visibility="visible" fill="#3d3d3d" display="inline" fill-rule="nonzero" stroke="none" fill-opacity="1" color="#000"/></g><g><use opacity="0.05" stroke-opacity="1" stroke-dasharray="none" fill="#000" stroke="#000" stroke-width="2" stroke-miterlimit="4" xlink:href="#SVGCleanerId_0"/><use opacity="0.1" stroke-opacity="1" stroke-dasharray="none" fill="#000" stroke="#000" stroke-width="1" stroke-miterlimit="4" xlink:href="#SVGCleanerId_0"/></g><g><g clip-path="url(#clipPath-089140476)"><g transform="translate(0,1)"><g opacity="0.1"><!-- color: #3d3d3d --><g><path d="m 31.31 12 c -3.129 0 -5.691 2.477 -5.691 5.5 c 0 3.02 2.566 5.504 5.691 5.504 c 3.125 0 5.688 -2.48 5.688 -5.504 c 0 -3.02 -2.563 -5.5 -5.688 -5.5 m 0 1.848 c 2.102 0 3.777 1.621 3.777 3.652 c 0 2.035 -1.676 3.656 -3.777 3.656 c -2.105 0 -3.781 -1.621 -3.781 -3.656 c 0 -2.031 1.676 -3.652 3.781 -3.652 m 0 0" fill="#000" stroke="none" fill-rule="nonzero" fill-opacity="1"/><path d="m 33.746 17.496 c 0 1.301 -1.09 2.355 -2.438 2.355 c -1.344 0 -2.438 -1.055 -2.438 -2.355 c 0 -1.305 1.094 -2.359 2.438 -2.359 c 1.348 0 2.438 1.055 2.438 2.359 m 0 0" fill="#000" stroke="none" fill-rule="nonzero" fill-opacity="1"/><path d="m 26.434 19.852 l 0 7.07 l 4.063 0.785 l 3.473 -5.867 l -3.625 0 m -3.91 -1.992" fill="#000" stroke="none" fill-rule="nonzero" fill-opacity="1"/><path d="m 27.25 26.14 c -2.23 0 -4.063 1.77 -4.063 3.93 c 0 2.16 1.832 3.93 4.063 3.93 c 2.234 0 4.066 -1.77 4.066 -3.93 c 0 -2.16 -1.832 -3.93 -4.066 -3.93 m 0 1.32 c 1.504 0 2.699 1.156 2.699 2.609 c 0 1.453 -1.195 2.609 -2.699 2.609 c -1.5 0 -2.699 -1.156 -2.699 -2.609 c 0 -1.453 1.199 -2.609 2.699 -2.609 m 0 0" fill="#000" stroke="none" fill-rule="nonzero" fill-opacity="1"/><path d="m 15.06 20.637 c -2.23 0 -4.063 1.773 -4.063 3.93 c 0 2.16 1.832 3.934 4.063 3.934 c 2.234 0 4.066 -1.773 4.066 -3.934 c 0 -2.156 -1.832 -3.93 -4.066 -3.93 m -0.008 1.574 c 1.629 0 2.441 0.785 2.441 2.355 c 0 1.574 -0.813 2.359 -2.441 2.359 c -1.625 0 -2.438 -0.785 -2.438 -2.359 c 0 -1.57 0.813 -2.355 2.438 -2.355 m 0 0" fill="#000" stroke="none" fill-rule="nonzero" fill-opacity="1"/><path d="m 15.953 23.16 c -0.922 -0.379 -1.984 0.035 -2.375 0.93 c -0.391 0.891 0.039 1.922 0.961 2.297 l 12.07 5.25 c 0.922 0.379 1.988 -0.035 2.379 -0.93 c 0.391 -0.891 -0.039 -1.922 -0.961 -2.297 m -12.08 -5.25" fill="#000" stroke="none" fill-rule="nonzero" fill-opacity="1"/></g></g></g></g></g><g><g clip-path="url(#clipPath-095101259)"><!-- color: #3d3d3d --><g><path d="m 31.31 12 c -3.129 0 -5.691 2.477 -5.691 5.5 c 0 3.02 2.566 5.504 5.691 5.504 c 3.125 0 5.688 -2.48 5.688 -5.504 c 0 -3.02 -2.563 -5.5 -5.688 -5.5 m 0 1.848 c 2.102 0 3.777 1.621 3.777 3.652 c 0 2.035 -1.676 3.656 -3.777 3.656 c -2.105 0 -3.781 -1.621 -3.781 -3.656 c 0 -2.031 1.676 -3.652 3.781 -3.652 m 0 0" fill="#f9f9f9" stroke="none" fill-rule="nonzero" fill-opacity="1"/><path d="m 33.746 17.496 c 0 1.301 -1.09 2.355 -2.438 2.355 c -1.344 0 -2.438 -1.055 -2.438 -2.355 c 0 -1.305 1.094 -2.359 2.438 -2.359 c 1.348 0 2.438 1.055 2.438 2.359 m 0 0" fill="#f9f9f9" stroke="none" fill-rule="nonzero" fill-opacity="1"/><path d="m 26.434 19.852 l 0 7.07 l 4.063 0.785 l 3.473 -5.867 l -3.625 0 m -3.91 -1.992" fill="#f9f9f9" stroke="none" fill-rule="nonzero" fill-opacity="1"/><path d="m 27.25 26.14 c -2.23 0 -4.063 1.77 -4.063 3.93 c 0 2.16 1.832 3.93 4.063 3.93 c 2.234 0 4.066 -1.77 4.066 -3.93 c 0 -2.16 -1.832 -3.93 -4.066 -3.93 m 0 1.32 c 1.504 0 2.699 1.156 2.699 2.609 c 0 1.453 -1.195 2.609 -2.699 2.609 c -1.5 0 -2.699 -1.156 -2.699 -2.609 c 0 -1.453 1.199 -2.609 2.699 -2.609 m 0 0" fill="#f9f9f9" stroke="none" fill-rule="nonzero" fill-opacity="1"/><path d="m 15.06 20.637 c -2.23 0 -4.063 1.773 -4.063 3.93 c 0 2.16 1.832 3.934 4.063 3.934 c 2.234 0 4.066 -1.773 4.066 -3.934 c 0 -2.156 -1.832 -3.93 -4.066 -3.93 m -0.008 1.574 c 1.629 0 2.441 0.785 2.441 2.355 c 0 1.574 -0.813 2.359 -2.441 2.359 c -1.625 0 -2.438 -0.785 -2.438 -2.359 c 0 -1.57 0.813 -2.355 2.438 -2.355 m 0 0" fill="#f9f9f9" stroke="none" fill-rule="nonzero" fill-opacity="1"/><path d="m 15.953 23.16 c -0.922 -0.379 -1.984 0.035 -2.375 0.93 c -0.391 0.891 0.039 1.922 0.961 2.297 l 12.07 5.25 c 0.922 0.379 1.988 -0.035 2.379 -0.93 c 0.391 -0.891 -0.039 -1.922 -0.961 -2.297 m -12.08 -5.25" fill="#f9f9f9" stroke="none" fill-rule="nonzero" fill-opacity="1"/></g></g></g><g><path d="m 20 4 -7.313 3.03 -5.656 5.656 -3.03 7.313 0 8 3.03 7.313 5.656 5.656 7.313 3.03 8 0 7.313 -3.03 5.656 -5.656 3.03 -7.313 0 -8 -3.03 -7.313 -5.656 -5.656 -7.313 -3.03 -8 0 z" clip-path="url(#clipPath4313)" transform="matrix(0,1,-1,0,48,0)" opacity="0.3" stroke-opacity="1" stroke-dasharray="none" visibility="visible" fill="none" display="inline" stroke="url(#linearGradient4375)" color="#000" stroke-width="1" stroke-miterlimit="4"/><path d="m 24 2.344 -4 1.656 -4.281 0 -3.03 3.03 l -4 1.656 -1.656 4 l -3.03 3.03 0 4.281 -1.656 4 1.656 4 l 0 4.281 3.03 3.03 1.656 4 4 1.656 l 3.03 3.03 4.281 0 4 1.656 4 -1.656 l 4.281 0 3.03 -3.03 4 -1.656 1.656 -4 l 3.03 -3.03 0 -4.281 1.656 -4 -1.656 -4 l 0 -4.281 -3.03 -3.03 -1.656 -4 -4 -1.656 l -3.03 -3.03 -4.281 0 -4 -1.656 z" clip-path="url(#clipPath4329)" opacity="0.2" stroke-opacity="1" visibility="visible" fill="none" display="inline" stroke="#000" color="#000" stroke-width="2"/></g></svg>