<svg viewBox="0 0 48 48" xmlns:xlink="http://www.w3.org/1999/xlink"><defs><clipPath clipPathUnits="userSpaceOnUse" id="clipPath4313"><path d="m 20 4 -7.313 3.03 -5.656 5.656 -3.03 7.313 0 8 3.03 7.313 5.656 5.656 7.313 3.03 8 0 7.313 -3.03 5.656 -5.656 3.03 -7.313 0 -8 -3.03 -7.313 -5.656 -5.656 -7.313 -3.03 -8 0 z"/></clipPath><clipPath clipPathUnits="userSpaceOnUse" id="clipPath4329"><path d="m 24 2.344 -4 1.656 -4.281 0 -3.03 3.03 l -4 1.656 -1.656 4 l -3.03 3.03 0 4.281 -1.656 4 1.656 4 l 0 4.281 3.03 3.03 1.656 4 4 1.656 l 3.03 3.03 4.281 0 4 1.656 4 -1.656 l 4.281 0 3.03 -3.03 4 -1.656 1.656 -4 l 3.03 -3.03 0 -4.281 1.656 -4 -1.656 -4 l 0 -4.281 -3.03 -3.03 -1.656 -4 -4 -1.656 l -3.03 -3.03 -4.281 0 -4 -1.656 z"/></clipPath><clipPath id="clipPath-141520780"><path d="m 24 2.344 l -4 1.656 l -4.281 0 l -3.03 3.03 l -4 1.656 l -1.656 4 l -3.03 3.03 l 0 4.281 l -1.656 4 l 1.656 4 l 0 4.281 l 3.03 3.03 l 1.656 4 l 4 1.656 l 3.03 3.03 l 4.281 0 l 4 1.656 l 4 -1.656 l 4.281 0 l 3.03 -3.03 l 4 -1.656 l 1.656 -4 l 3.03 -3.03 l 0 -4.281 l 1.656 -4 l -1.656 -4 l 0 -4.281 l -3.03 -3.03 l -1.656 -4 l -4 -1.656 l -3.03 -3.03 l -4.281 0 l -4 -1.656 z"/></clipPath><clipPath id="clipPath-147318876"><path d="m 24 2.344 l -4 1.656 l -4.281 0 l -3.03 3.03 l -4 1.656 l -1.656 4 l -3.03 3.03 l 0 4.281 l -1.656 4 l 1.656 4 l 0 4.281 l 3.03 3.03 l 1.656 4 l 4 1.656 l 3.03 3.03 l 4.281 0 l 4 1.656 l 4 -1.656 l 4.281 0 l 3.03 -3.03 l 4 -1.656 l 1.656 -4 l 3.03 -3.03 l 0 -4.281 l 1.656 -4 l -1.656 -4 l 0 -4.281 l -3.03 -3.03 l -1.656 -4 l -4 -1.656 l -3.03 -3.03 l -4.281 0 l -4 -1.656 z"/></clipPath><linearGradient id="linearGradient4317"><stop stop-color="#fff" stop-opacity="1"/><stop offset="1" stop-color="#fff" stop-opacity="0"/></linearGradient><clipPath clipPathUnits="userSpaceOnUse" id="clipPath4313"><path d="m 20 4 -7.313 3.03 -5.656 5.656 -3.03 7.313 0 8 3.03 7.313 5.656 5.656 7.313 3.03 8 0 7.313 -3.03 5.656 -5.656 3.03 -7.313 0 -8 -3.03 -7.313 -5.656 -5.656 -7.313 -3.03 -8 0 z"/></clipPath><linearGradient x2="44" x1="4" gradientUnits="userSpaceOnUse" id="linearGradient4375" xlink:href="#linearGradient4317"/><clipPath clipPathUnits="userSpaceOnUse" id="clipPath4329"><path d="m 24 2.344 -4 1.656 -4.281 0 -3.03 3.03 l -4 1.656 -1.656 4 l -3.03 3.03 0 4.281 -1.656 4 1.656 4 l 0 4.281 3.03 3.03 1.656 4 4 1.656 l 3.03 3.03 4.281 0 4 1.656 4 -1.656 l 4.281 0 3.03 -3.03 4 -1.656 1.656 -4 l 3.03 -3.03 0 -4.281 1.656 -4 -1.656 -4 l 0 -4.281 -3.03 -3.03 -1.656 -4 -4 -1.656 l -3.03 -3.03 -4.281 0 -4 -1.656 z"/></clipPath><path id="SVGCleanerId_0" d="m 24 2.344 l -4 1.656 l -4.281 0 l -3.03 3.03 l -4 1.656 l -1.656 4 l -3.03 3.03 l 0 4.281 l -1.656 4 l 1.656 4 l 0 4.281 l 3.03 3.03 l 1.656 4 l 4 1.656 l 3.03 3.03 l 4.281 0 l 4 1.656 l 4 -1.656 l 4.281 0 l 3.03 -3.03 l 4 -1.656 l 1.656 -4 l 3.03 -3.03 l 0 -4.281 l 1.656 -4 l -1.656 -4 l 0 -4.281 l -3.03 -3.03 l -1.656 -4 l -4 -1.656 l -3.03 -3.03 l -4.281 0 l -4 -1.656 z" visibility="visible" display="inline" fill-rule="nonzero" color="#000" fill-opacity="1"/></defs><g><path d="m 2.563 24.5 l -0.219 0.5 l 1.656 4 l 0 -1 l -1.438 -3.5 z m 42.875 0 l -1.438 3.5 l 0 1 l 1.656 -4 l -0.219 -0.5 z m -41.44 7.781 l 0 1 l 3.03 3.03 l 1.656 4 l 4 1.656 l 3.03 3.03 l 4.281 0 l 4 1.656 l 4 -1.656 l 4.281 0 l 3.03 -3.03 l 4 -1.656 l 1.656 -4 l 3.03 -3.03 l 0 -1 l -3.03 3.03 l -1.656 4 l -4 1.656 l -3.03 3.03 l -4.281 0 l -4 1.656 l -4 -1.656 l -4.281 0 l -3.03 -3.03 l -4 -1.656 l -1.656 -4 l -3.03 -3.03 z" opacity="0.3" visibility="visible" fill="#000" display="inline" fill-rule="nonzero" stroke="none" fill-opacity="1" color="#000"/></g><g><use fill="#f4c211" stroke="none" xlink:href="#SVGCleanerId_0"/><path d="m 24 2.344 l -4 1.656 l 8 0 l -4 -1.656 z m 4 1.656 l 7.313 3.03 l -3.03 -3.03 l -4.281 0 z m 7.313 3.03 l 5.656 5.656 l -1.656 -4 l -4 -1.656 z m 5.656 5.656 l 3.03 7.313 l 0 -4.281 l -3.03 -3.03 z m 3.03 7.313 l 0 8 l 1.656 -4 l -1.656 -4 z m 0 8 l -3.03 7.313 l 3.03 -3.03 l 0 -4.281 z m -3.03 7.313 l -5.656 5.656 l 4 -1.656 l 1.656 -4 z m -5.656 5.656 l -7.313 3.03 l 4.281 0 l 3.03 -3.03 z m -7.313 3.03 l -8 0 l 4 1.656 l 4 -1.656 z m -8 0 l -7.313 -3.03 l 3.03 3.03 l 4.281 0 z m -7.313 -3.03 l -5.656 -5.656 l 1.656 4 l 4 1.656 z m -5.656 -5.656 l -3.03 -7.313 l 0 4.281 l 3.03 3.03 z m -3.03 -7.313 l 0 -8 l -1.656 4 l 1.656 4 z m 0 -8 l 3.03 -7.313 l -3.03 3.03 l 0 4.281 z m 3.03 -7.313 l 5.656 -5.656 l -4 1.656 l -1.656 4 z m 5.656 -5.656 l 7.313 -3.03 l -4.281 0 l -3.03 3.03 z" opacity="0.05" visibility="visible" fill="#f4c211" display="inline" fill-rule="nonzero" stroke="none" fill-opacity="1" color="#000"/></g><g><use opacity="0.05" stroke-opacity="1" stroke-dasharray="none" fill="#000" stroke="#000" stroke-width="2" stroke-miterlimit="4" xlink:href="#SVGCleanerId_0"/><use opacity="0.1" stroke-opacity="1" stroke-dasharray="none" fill="#000" stroke="#000" stroke-width="1" stroke-miterlimit="4" xlink:href="#SVGCleanerId_0"/></g><g><g clip-path="url(#clipPath-141520780)"><g transform="translate(0,1)"><g opacity="0.1"><!-- color: #f4c211 --><g><path d="m 25 15.406 c -1.359 1.727 -2.277 3.734 -2.875 5.75 l 0.188 -1.531 c 0.426 -1.211 -2.676 -2.191 -2.969 -1.031 c -0.469 1.688 -1.754 3.887 -1.406 5.063 c 0.727 2.512 2.043 1.559 3.063 2.344 l 0.07 0.051 c -0.266 2.551 -0.082 4.766 -0.07 5.949 l 5 0 l 0 -3.719 c 2.426 -0.434 5.176 -0.336 6 -3.281 c 0.188 -1.266 0.027 -3.039 -0.531 -4.594 c -1.094 -1.645 -2.805 -0.926 -3.094 0.125 l -0.375 3.156 c -0.301 -0.039 -0.609 -0.074 -0.906 -0.063 c 0.23 -1.406 0.777 -3.148 1.594 -5.281 m -3.688 -2.938" stroke-opacity="1" fill="#000" fill-rule="nonzero" stroke="#2d2d2d" stroke-linejoin="miter" fill-opacity="1" stroke-linecap="butt" stroke-width="0.4" stroke-miterlimit="4"/><path d="m 24.27 12 c -6.625 0 -12.27 5.371 -12.27 12 c 0 6.629 5.371 12 12 12 c 6.629 0 12 -5.371 12 -12 l 0 -0.469 c -0.035 -0.871 -0.051 -2.859 -0.262 -3.672 l 2.949 -0.859 l -0.297 -2.703 l -5.801 0.52 c 0.289 0.824 0.371 5.895 0.41 6.809 l 0 0.375 c 0 4.973 -4.03 9 -9 9 c -4.973 0 -9 -4.03 -9 -9 c 0 -4.973 4.03 -9.484 9 -9.484 l 3.797 -0.242 l -0.629 -5.613 l -2.645 0.082 m -0.254 3.266" stroke-opacity="1" fill="#000" fill-rule="nonzero" stroke="#2d2d2d" stroke-linejoin="miter" fill-opacity="1" stroke-linecap="butt" stroke-width="0.4" stroke-miterlimit="4"/><path d="m 23.19 15 c -0.145 1.422 1.871 1.52 2.809 2.277 l 1.738 -1.672 l -1.223 -0.883 c -2.031 -1.457 -3.32 -0.488 -3.324 0.277 m 0 0" stroke-opacity="1" fill="#000" fill-rule="nonzero" stroke="#2d2d2d" stroke-linejoin="miter" fill-opacity="1" stroke-linecap="butt" stroke-width="0.1" stroke-miterlimit="4"/><path d="m 25.781 15.16 c 0.688 -0.309 0.75 -0.902 2.219 -0.852 c 0.465 0.469 1.836 1.551 1.836 2.688 l -1.105 1.496 l -2.289 -1.496 m -0.66 -1.836" stroke-opacity="1" fill="#000" fill-rule="nonzero" stroke="#2d2d2d" stroke-linejoin="miter" fill-opacity="1" stroke-linecap="butt" stroke-width="0.1" stroke-miterlimit="4"/><path d="m 25.797 15.1 c -0.305 0.137 -0.629 0.414 -0.797 0.586 l 0.719 0.938 c 0.492 0.102 0.918 0.199 1.281 0.344 c -0.609 -0.535 -0.949 -1.203 -1.203 -1.867 m 0 0" fill="#000" stroke="none" fill-rule="nonzero" fill-opacity="1"/><path d="m 24 14.492 c 0.836 -0.141 1.391 0.23 2 0.508 l 0.301 -0.164 c -1.488 -0.672 -1.984 -0.578 -2.301 -0.344 m 0 0" fill="#000" stroke="none" fill-rule="nonzero" fill-opacity="1"/><path d="m 27.367 14.566 c 0.52 0.391 1.129 0.648 1.727 0.918 c -0.148 -0.238 -0.402 -0.461 -0.633 -0.688 c -0.328 -0.023 -0.672 -0.078 -1.035 -0.176 m -0.059 -0.055" fill="#000" stroke="none" fill-rule="nonzero" fill-opacity="1"/><path d="m 24.06 16.313 c 0.996 0.652 1.531 1.246 2.473 1.906 c 1.082 0.797 1.293 1.879 1.906 2.156 c 0.195 -0.461 0.672 -0.813 1.219 -0.906 c -0.227 -0.469 -0.621 -1.078 -1.645 -1.938 c -0.77 -0.641 -1.941 -1.012 -3.941 -1.219 m -0.004 0" stroke-opacity="1" fill="#000" fill-rule="nonzero" stroke="#2d2d2d" stroke-linejoin="miter" fill-opacity="1" stroke-linecap="butt" stroke-width="0.1" stroke-miterlimit="4"/></g></g></g></g></g><g><g clip-path="url(#clipPath-147318876)"><!-- color: #f4c211 --><g><path d="m 25 15.406 c -1.359 1.727 -2.277 3.734 -2.875 5.75 l 0.188 -1.531 c 0.426 -1.211 -2.676 -2.191 -2.969 -1.031 c -0.469 1.688 -1.754 3.887 -1.406 5.063 c 0.727 2.512 2.043 1.559 3.063 2.344 l 0.07 0.051 c -0.266 2.551 -0.082 4.766 -0.07 5.949 l 5 0 l 0 -3.719 c 2.426 -0.434 5.176 -0.336 6 -3.281 c 0.188 -1.266 0.027 -3.039 -0.531 -4.594 c -1.094 -1.645 -2.805 -0.926 -3.094 0.125 l -0.375 3.156 c -0.301 -0.039 -0.609 -0.074 -0.906 -0.063 c 0.23 -1.406 0.777 -3.148 1.594 -5.281 m -3.688 -2.938" stroke-opacity="1" fill="#802020" fill-rule="nonzero" stroke="#2d2d2d" stroke-linejoin="miter" fill-opacity="1" stroke-linecap="butt" stroke-width="0.4" stroke-miterlimit="4"/><path d="m 24.27 12 c -6.625 0 -12.27 5.371 -12.27 12 c 0 6.629 5.371 12 12 12 c 6.629 0 12 -5.371 12 -12 l 0 -0.469 c -0.035 -0.871 -0.051 -2.859 -0.262 -3.672 l 2.949 -0.859 l -0.297 -2.703 l -5.801 0.52 c 0.289 0.824 0.371 5.895 0.41 6.809 l 0 0.375 c 0 4.973 -4.03 9 -9 9 c -4.973 0 -9 -4.03 -9 -9 c 0 -4.973 4.03 -9.484 9 -9.484 l 3.797 -0.242 l -0.629 -5.613 l -2.645 0.082 m -0.254 3.266" stroke-opacity="1" fill="#802020" fill-rule="nonzero" stroke="#2d2d2d" stroke-linejoin="miter" fill-opacity="1" stroke-linecap="butt" stroke-width="0.4" stroke-miterlimit="4"/><path d="m 23.19 15 c -0.145 1.422 1.871 1.52 2.809 2.277 l 1.738 -1.672 l -1.223 -0.883 c -2.031 -1.457 -3.32 -0.488 -3.324 0.277 m 0 0" stroke-opacity="1" fill="#f9f9f9" fill-rule="nonzero" stroke="#2d2d2d" stroke-linejoin="miter" fill-opacity="1" stroke-linecap="butt" stroke-width="0.1" stroke-miterlimit="4"/><path d="m 25.781 15.16 c 0.688 -0.309 0.75 -0.902 2.219 -0.852 c 0.465 0.469 1.836 1.551 1.836 2.688 l -1.105 1.496 l -2.289 -1.496 m -0.66 -1.836" stroke-opacity="1" fill="#f9f9f9" fill-rule="nonzero" stroke="#2d2d2d" stroke-linejoin="miter" fill-opacity="1" stroke-linecap="butt" stroke-width="0.1" stroke-miterlimit="4"/><path d="m 25.797 15.1 c -0.305 0.137 -0.629 0.414 -0.797 0.586 l 0.719 0.938 c 0.492 0.102 0.918 0.199 1.281 0.344 c -0.609 -0.535 -0.949 -1.203 -1.203 -1.867 m 0 0" fill="#2d2d2d" stroke="none" fill-rule="nonzero" fill-opacity="1"/><path d="m 24 14.492 c 0.836 -0.141 1.391 0.23 2 0.508 l 0.301 -0.164 c -1.488 -0.672 -1.984 -0.578 -2.301 -0.344 m 0 0" fill="#2d2d2d" stroke="none" fill-rule="nonzero" fill-opacity="1"/><path d="m 27.367 14.566 c 0.52 0.391 1.129 0.648 1.727 0.918 c -0.148 -0.238 -0.402 -0.461 -0.633 -0.688 c -0.328 -0.023 -0.672 -0.078 -1.035 -0.176 m -0.059 -0.055" fill="#2d2d2d" stroke="none" fill-rule="nonzero" fill-opacity="1"/><path d="m 24.06 16.313 c 0.996 0.652 1.531 1.246 2.473 1.906 c 1.082 0.797 1.293 1.879 1.906 2.156 c 0.195 -0.461 0.672 -0.813 1.219 -0.906 c -0.227 -0.469 -0.621 -1.078 -1.645 -1.938 c -0.77 -0.641 -1.941 -1.012 -3.941 -1.219 m -0.004 0" stroke-opacity="1" fill="#f9f9f9" fill-rule="nonzero" stroke="#2d2d2d" stroke-linejoin="miter" fill-opacity="1" stroke-linecap="butt" stroke-width="0.1" stroke-miterlimit="4"/></g></g></g><g><path d="m 20 4 -7.313 3.03 -5.656 5.656 -3.03 7.313 0 8 3.03 7.313 5.656 5.656 7.313 3.03 8 0 7.313 -3.03 5.656 -5.656 3.03 -7.313 0 -8 -3.03 -7.313 -5.656 -5.656 -7.313 -3.03 -8 0 z" clip-path="url(#clipPath4313)" transform="matrix(0,1,-1,0,48,0)" opacity="0.3" stroke-opacity="1" stroke-dasharray="none" visibility="visible" fill="none" display="inline" stroke="url(#linearGradient4375)" color="#000" stroke-width="1" stroke-miterlimit="4"/><path d="m 24 2.344 -4 1.656 -4.281 0 -3.03 3.03 l -4 1.656 -1.656 4 l -3.03 3.03 0 4.281 -1.656 4 1.656 4 l 0 4.281 3.03 3.03 1.656 4 4 1.656 l 3.03 3.03 4.281 0 4 1.656 4 -1.656 l 4.281 0 3.03 -3.03 4 -1.656 1.656 -4 l 3.03 -3.03 0 -4.281 1.656 -4 -1.656 -4 l 0 -4.281 -3.03 -3.03 -1.656 -4 -4 -1.656 l -3.03 -3.03 -4.281 0 -4 -1.656 z" clip-path="url(#clipPath4329)" opacity="0.2" stroke-opacity="1" visibility="visible" fill="none" display="inline" stroke="#000" color="#000" stroke-width="2"/></g></svg>