<svg viewBox="0 0 48 48" xmlns:xlink="http://www.w3.org/1999/xlink"><defs><clipPath clipPathUnits="userSpaceOnUse" id="clipPath4313"><path d="m 20 4 -7.313 3.03 -5.656 5.656 -3.03 7.313 0 8 3.03 7.313 5.656 5.656 7.313 3.03 8 0 7.313 -3.03 5.656 -5.656 3.03 -7.313 0 -8 -3.03 -7.313 -5.656 -5.656 -7.313 -3.03 -8 0 z"/></clipPath><clipPath clipPathUnits="userSpaceOnUse" id="clipPath4329"><path d="m 24 2.344 -4 1.656 -4.281 0 -3.03 3.03 l -4 1.656 -1.656 4 l -3.03 3.03 0 4.281 -1.656 4 1.656 4 l 0 4.281 3.03 3.03 1.656 4 4 1.656 l 3.03 3.03 4.281 0 4 1.656 4 -1.656 l 4.281 0 3.03 -3.03 4 -1.656 1.656 -4 l 3.03 -3.03 0 -4.281 1.656 -4 -1.656 -4 l 0 -4.281 -3.03 -3.03 -1.656 -4 -4 -1.656 l -3.03 -3.03 -4.281 0 -4 -1.656 z"/></clipPath><clipPath id="clipPath-501524917"><path d="m 24 2.344 l -4 1.656 l -4.281 0 l -3.03 3.03 l -4 1.656 l -1.656 4 l -3.03 3.03 l 0 4.281 l -1.656 4 l 1.656 4 l 0 4.281 l 3.03 3.03 l 1.656 4 l 4 1.656 l 3.03 3.03 l 4.281 0 l 4 1.656 l 4 -1.656 l 4.281 0 l 3.03 -3.03 l 4 -1.656 l 1.656 -4 l 3.03 -3.03 l 0 -4.281 l 1.656 -4 l -1.656 -4 l 0 -4.281 l -3.03 -3.03 l -1.656 -4 l -4 -1.656 l -3.03 -3.03 l -4.281 0 l -4 -1.656 z"/></clipPath><clipPath id="clipPath-507124102"><path d="m 24 2.344 l -4 1.656 l -4.281 0 l -3.03 3.03 l -4 1.656 l -1.656 4 l -3.03 3.03 l 0 4.281 l -1.656 4 l 1.656 4 l 0 4.281 l 3.03 3.03 l 1.656 4 l 4 1.656 l 3.03 3.03 l 4.281 0 l 4 1.656 l 4 -1.656 l 4.281 0 l 3.03 -3.03 l 4 -1.656 l 1.656 -4 l 3.03 -3.03 l 0 -4.281 l 1.656 -4 l -1.656 -4 l 0 -4.281 l -3.03 -3.03 l -1.656 -4 l -4 -1.656 l -3.03 -3.03 l -4.281 0 l -4 -1.656 z"/></clipPath><linearGradient id="linearGradient4317"><stop stop-color="#fff" stop-opacity="1"/><stop offset="1" stop-color="#fff" stop-opacity="0"/></linearGradient><clipPath clipPathUnits="userSpaceOnUse" id="clipPath4313"><path d="m 20 4 -7.313 3.03 -5.656 5.656 -3.03 7.313 0 8 3.03 7.313 5.656 5.656 7.313 3.03 8 0 7.313 -3.03 5.656 -5.656 3.03 -7.313 0 -8 -3.03 -7.313 -5.656 -5.656 -7.313 -3.03 -8 0 z"/></clipPath><linearGradient x2="44" x1="4" gradientUnits="userSpaceOnUse" id="linearGradient4375" xlink:href="#linearGradient4317"/><clipPath clipPathUnits="userSpaceOnUse" id="clipPath4329"><path d="m 24 2.344 -4 1.656 -4.281 0 -3.03 3.03 l -4 1.656 -1.656 4 l -3.03 3.03 0 4.281 -1.656 4 1.656 4 l 0 4.281 3.03 3.03 1.656 4 4 1.656 l 3.03 3.03 4.281 0 4 1.656 4 -1.656 l 4.281 0 3.03 -3.03 4 -1.656 1.656 -4 l 3.03 -3.03 0 -4.281 1.656 -4 -1.656 -4 l 0 -4.281 -3.03 -3.03 -1.656 -4 -4 -1.656 l -3.03 -3.03 -4.281 0 -4 -1.656 z"/></clipPath><path id="SVGCleanerId_0" d="m 24 2.344 l -4 1.656 l -4.281 0 l -3.03 3.03 l -4 1.656 l -1.656 4 l -3.03 3.03 l 0 4.281 l -1.656 4 l 1.656 4 l 0 4.281 l 3.03 3.03 l 1.656 4 l 4 1.656 l 3.03 3.03 l 4.281 0 l 4 1.656 l 4 -1.656 l 4.281 0 l 3.03 -3.03 l 4 -1.656 l 1.656 -4 l 3.03 -3.03 l 0 -4.281 l 1.656 -4 l -1.656 -4 l 0 -4.281 l -3.03 -3.03 l -1.656 -4 l -4 -1.656 l -3.03 -3.03 l -4.281 0 l -4 -1.656 z" visibility="visible" display="inline" fill-rule="nonzero" color="#000" fill-opacity="1"/></defs><g><path d="m 2.563 24.5 l -0.219 0.5 l 1.656 4 l 0 -1 l -1.438 -3.5 z m 42.875 0 l -1.438 3.5 l 0 1 l 1.656 -4 l -0.219 -0.5 z m -41.44 7.781 l 0 1 l 3.03 3.03 l 1.656 4 l 4 1.656 l 3.03 3.03 l 4.281 0 l 4 1.656 l 4 -1.656 l 4.281 0 l 3.03 -3.03 l 4 -1.656 l 1.656 -4 l 3.03 -3.03 l 0 -1 l -3.03 3.03 l -1.656 4 l -4 1.656 l -3.03 3.03 l -4.281 0 l -4 1.656 l -4 -1.656 l -4.281 0 l -3.03 -3.03 l -4 -1.656 l -1.656 -4 l -3.03 -3.03 z" opacity="0.3" visibility="visible" fill="#000" display="inline" fill-rule="nonzero" stroke="none" fill-opacity="1" color="#000"/></g><g><use fill="#4d4d4d" stroke="none" xlink:href="#SVGCleanerId_0"/><path d="m 24 2.344 l -4 1.656 l 8 0 l -4 -1.656 z m 4 1.656 l 7.313 3.03 l -3.03 -3.03 l -4.281 0 z m 7.313 3.03 l 5.656 5.656 l -1.656 -4 l -4 -1.656 z m 5.656 5.656 l 3.03 7.313 l 0 -4.281 l -3.03 -3.03 z m 3.03 7.313 l 0 8 l 1.656 -4 l -1.656 -4 z m 0 8 l -3.03 7.313 l 3.03 -3.03 l 0 -4.281 z m -3.03 7.313 l -5.656 5.656 l 4 -1.656 l 1.656 -4 z m -5.656 5.656 l -7.313 3.03 l 4.281 0 l 3.03 -3.03 z m -7.313 3.03 l -8 0 l 4 1.656 l 4 -1.656 z m -8 0 l -7.313 -3.03 l 3.03 3.03 l 4.281 0 z m -7.313 -3.03 l -5.656 -5.656 l 1.656 4 l 4 1.656 z m -5.656 -5.656 l -3.03 -7.313 l 0 4.281 l 3.03 3.03 z m -3.03 -7.313 l 0 -8 l -1.656 4 l 1.656 4 z m 0 -8 l 3.03 -7.313 l -3.03 3.03 l 0 4.281 z m 3.03 -7.313 l 5.656 -5.656 l -4 1.656 l -1.656 4 z m 5.656 -5.656 l 7.313 -3.03 l -4.281 0 l -3.03 3.03 z" opacity="0.05" visibility="visible" fill="#4d4d4d" display="inline" fill-rule="nonzero" stroke="none" fill-opacity="1" color="#000"/></g><g><use opacity="0.05" stroke-opacity="1" stroke-dasharray="none" fill="#000" stroke="#000" stroke-width="2" stroke-miterlimit="4" xlink:href="#SVGCleanerId_0"/><use opacity="0.1" stroke-opacity="1" stroke-dasharray="none" fill="#000" stroke="#000" stroke-width="1" stroke-miterlimit="4" xlink:href="#SVGCleanerId_0"/></g><g><g clip-path="url(#clipPath-501524917)"><g transform="translate(0,1)"><g opacity="0.1"><!-- color: #4d4d4d --><g><path d="m 21.633 36.938 c -1.223 -0.234 -2.867 -1.539 -3.863 -3.059 c -0.543 -0.828 -1.191 -2.227 -1.398 -3.01 c -0.336 -1.27 -0.48 -4.68 -0.277 -6.793 c 0.289 -3.082 1.414 -6.461 2.93 -8.816 c 0.59 -0.918 1.273 -1.773 1.414 -1.773 c 0.215 0 0.164 0.324 -0.141 0.863 c -0.18 0.316 -0.332 0.602 -0.332 0.629 c 0 0.027 0.309 -0.332 0.688 -0.793 c 0.742 -0.918 1.355 -1.496 2.25 -2.129 c 1.762 -1.242 3.875 -1.395 5.402 -0.391 c 1.586 1.051 2.906 3.375 3.445 6.094 c 0.227 1.141 0.246 1.402 0.25 3.762 c 0.008 2.801 -0.094 3.609 -0.703 5.738 c -1.324 4.629 -4.438 8.746 -7.262 9.602 c -0.477 0.148 -1.84 0.191 -2.402 0.078 m 1.605 -1.734 c 0.027 -0.047 -0.191 -0.176 -0.488 -0.289 c -1.273 -0.477 -2.141 -1.313 -2.82 -2.703 c -0.391 -0.809 -0.844 -2.441 -0.773 -2.813 c 0.074 -0.395 0.273 -0.195 0.668 0.68 c 1.273 2.781 2.98 3.973 4.586 3.191 c 0.938 -0.453 2.23 -1.898 3.332 -3.703 c 1.141 -1.852 2.07 -5.086 2.25 -7.73 c 0.066 -1.027 -0.023 -2.875 -0.145 -2.742 c -0.039 0.047 -0.121 0.469 -0.18 0.941 c -0.23 1.801 -0.867 3.777 -1.215 3.777 c -0.215 0 -0.215 -0.02 0 -1.195 c 0.699 -3.805 0.375 -6.887 -0.863 -8.203 c -0.578 -0.609 -1.18 -0.867 -2.035 -0.879 c -0.688 -0.004 -0.785 0.023 -1.434 0.375 c -0.867 0.48 -1.977 1.605 -2.688 2.73 c -1.262 1.988 -2.508 5.172 -3.102 7.906 c -0.219 1.02 -0.242 1.32 -0.242 3.043 c 0 1.754 0.02 1.988 0.234 2.824 c 0.285 1.09 0.656 1.969 1.238 2.918 c 0.457 0.75 0.898 1.145 1.734 1.539 c 0.73 0.348 1.824 0.539 1.941 0.34 m 0 -0.008" fill="#000" stroke="none" fill-rule="nonzero" fill-opacity="1"/></g></g></g></g></g><g><g clip-path="url(#clipPath-507124102)"><!-- color: #4d4d4d --><g><path d="m 21.633 36.938 c -1.223 -0.234 -2.867 -1.539 -3.863 -3.059 c -0.543 -0.828 -1.191 -2.227 -1.398 -3.01 c -0.336 -1.27 -0.48 -4.68 -0.277 -6.793 c 0.289 -3.082 1.414 -6.461 2.93 -8.816 c 0.59 -0.918 1.273 -1.773 1.414 -1.773 c 0.215 0 0.164 0.324 -0.141 0.863 c -0.18 0.316 -0.332 0.602 -0.332 0.629 c 0 0.027 0.309 -0.332 0.688 -0.793 c 0.742 -0.918 1.355 -1.496 2.25 -2.129 c 1.762 -1.242 3.875 -1.395 5.402 -0.391 c 1.586 1.051 2.906 3.375 3.445 6.094 c 0.227 1.141 0.246 1.402 0.25 3.762 c 0.008 2.801 -0.094 3.609 -0.703 5.738 c -1.324 4.629 -4.438 8.746 -7.262 9.602 c -0.477 0.148 -1.84 0.191 -2.402 0.078 m 1.605 -1.734 c 0.027 -0.047 -0.191 -0.176 -0.488 -0.289 c -1.273 -0.477 -2.141 -1.313 -2.82 -2.703 c -0.391 -0.809 -0.844 -2.441 -0.773 -2.813 c 0.074 -0.395 0.273 -0.195 0.668 0.68 c 1.273 2.781 2.98 3.973 4.586 3.191 c 0.938 -0.453 2.23 -1.898 3.332 -3.703 c 1.141 -1.852 2.07 -5.086 2.25 -7.73 c 0.066 -1.027 -0.023 -2.875 -0.145 -2.742 c -0.039 0.047 -0.121 0.469 -0.18 0.941 c -0.23 1.801 -0.867 3.777 -1.215 3.777 c -0.215 0 -0.215 -0.02 0 -1.195 c 0.699 -3.805 0.375 -6.887 -0.863 -8.203 c -0.578 -0.609 -1.18 -0.867 -2.035 -0.879 c -0.688 -0.004 -0.785 0.023 -1.434 0.375 c -0.867 0.48 -1.977 1.605 -2.688 2.73 c -1.262 1.988 -2.508 5.172 -3.102 7.906 c -0.219 1.02 -0.242 1.32 -0.242 3.043 c 0 1.754 0.02 1.988 0.234 2.824 c 0.285 1.09 0.656 1.969 1.238 2.918 c 0.457 0.75 0.898 1.145 1.734 1.539 c 0.73 0.348 1.824 0.539 1.941 0.34 m 0 -0.008" fill="#17c0e6" stroke="none" fill-rule="nonzero" fill-opacity="1"/></g></g></g><g><path d="m 20 4 -7.313 3.03 -5.656 5.656 -3.03 7.313 0 8 3.03 7.313 5.656 5.656 7.313 3.03 8 0 7.313 -3.03 5.656 -5.656 3.03 -7.313 0 -8 -3.03 -7.313 -5.656 -5.656 -7.313 -3.03 -8 0 z" clip-path="url(#clipPath4313)" transform="matrix(0,1,-1,0,48,0)" opacity="0.3" stroke-opacity="1" stroke-dasharray="none" visibility="visible" fill="none" display="inline" stroke="url(#linearGradient4375)" color="#000" stroke-width="1" stroke-miterlimit="4"/><path d="m 24 2.344 -4 1.656 -4.281 0 -3.03 3.03 l -4 1.656 -1.656 4 l -3.03 3.03 0 4.281 -1.656 4 1.656 4 l 0 4.281 3.03 3.03 1.656 4 4 1.656 l 3.03 3.03 4.281 0 4 1.656 4 -1.656 l 4.281 0 3.03 -3.03 4 -1.656 1.656 -4 l 3.03 -3.03 0 -4.281 1.656 -4 -1.656 -4 l 0 -4.281 -3.03 -3.03 -1.656 -4 -4 -1.656 l -3.03 -3.03 -4.281 0 -4 -1.656 z" clip-path="url(#clipPath4329)" opacity="0.2" stroke-opacity="1" visibility="visible" fill="none" display="inline" stroke="#000" color="#000" stroke-width="2"/></g></svg>