<svg viewBox="0 0 48 48" xmlns:xlink="http://www.w3.org/1999/xlink"><defs><clipPath clipPathUnits="userSpaceOnUse" id="clipPath4313"><path d="m 20 4 -7.313 3.03 -5.656 5.656 -3.03 7.313 0 8 3.03 7.313 5.656 5.656 7.313 3.03 8 0 7.313 -3.03 5.656 -5.656 3.03 -7.313 0 -8 -3.03 -7.313 -5.656 -5.656 -7.313 -3.03 -8 0 z"/></clipPath><clipPath clipPathUnits="userSpaceOnUse" id="clipPath4329"><path d="m 24 2.344 -4 1.656 -4.281 0 -3.03 3.03 l -4 1.656 -1.656 4 l -3.03 3.03 0 4.281 -1.656 4 1.656 4 l 0 4.281 3.03 3.03 1.656 4 4 1.656 l 3.03 3.03 4.281 0 4 1.656 4 -1.656 l 4.281 0 3.03 -3.03 4 -1.656 1.656 -4 l 3.03 -3.03 0 -4.281 1.656 -4 -1.656 -4 l 0 -4.281 -3.03 -3.03 -1.656 -4 -4 -1.656 l -3.03 -3.03 -4.281 0 -4 -1.656 z"/></clipPath><clipPath id="clipPath-759916157"><path d="m 24 2.344 l -4 1.656 l -4.281 0 l -3.03 3.03 l -4 1.656 l -1.656 4 l -3.03 3.03 l 0 4.281 l -1.656 4 l 1.656 4 l 0 4.281 l 3.03 3.03 l 1.656 4 l 4 1.656 l 3.03 3.03 l 4.281 0 l 4 1.656 l 4 -1.656 l 4.281 0 l 3.03 -3.03 l 4 -1.656 l 1.656 -4 l 3.03 -3.03 l 0 -4.281 l 1.656 -4 l -1.656 -4 l 0 -4.281 l -3.03 -3.03 l -1.656 -4 l -4 -1.656 l -3.03 -3.03 l -4.281 0 l -4 -1.656 z"/></clipPath><clipPath id="clipPath-766902758"><path d="m 24 2.344 l -4 1.656 l -4.281 0 l -3.03 3.03 l -4 1.656 l -1.656 4 l -3.03 3.03 l 0 4.281 l -1.656 4 l 1.656 4 l 0 4.281 l 3.03 3.03 l 1.656 4 l 4 1.656 l 3.03 3.03 l 4.281 0 l 4 1.656 l 4 -1.656 l 4.281 0 l 3.03 -3.03 l 4 -1.656 l 1.656 -4 l 3.03 -3.03 l 0 -4.281 l 1.656 -4 l -1.656 -4 l 0 -4.281 l -3.03 -3.03 l -1.656 -4 l -4 -1.656 l -3.03 -3.03 l -4.281 0 l -4 -1.656 z"/></clipPath><linearGradient id="linearGradient4317"><stop stop-color="#fff" stop-opacity="1"/><stop offset="1" stop-color="#fff" stop-opacity="0"/></linearGradient><clipPath clipPathUnits="userSpaceOnUse" id="clipPath4313"><path d="m 20 4 -7.313 3.03 -5.656 5.656 -3.03 7.313 0 8 3.03 7.313 5.656 5.656 7.313 3.03 8 0 7.313 -3.03 5.656 -5.656 3.03 -7.313 0 -8 -3.03 -7.313 -5.656 -5.656 -7.313 -3.03 -8 0 z"/></clipPath><linearGradient x2="44" x1="4" gradientUnits="userSpaceOnUse" id="linearGradient4375" xlink:href="#linearGradient4317"/><clipPath clipPathUnits="userSpaceOnUse" id="clipPath4329"><path d="m 24 2.344 -4 1.656 -4.281 0 -3.03 3.03 l -4 1.656 -1.656 4 l -3.03 3.03 0 4.281 -1.656 4 1.656 4 l 0 4.281 3.03 3.03 1.656 4 4 1.656 l 3.03 3.03 4.281 0 4 1.656 4 -1.656 l 4.281 0 3.03 -3.03 4 -1.656 1.656 -4 l 3.03 -3.03 0 -4.281 1.656 -4 -1.656 -4 l 0 -4.281 -3.03 -3.03 -1.656 -4 -4 -1.656 l -3.03 -3.03 -4.281 0 -4 -1.656 z"/></clipPath><path id="SVGCleanerId_0" d="m 24 2.344 l -4 1.656 l -4.281 0 l -3.03 3.03 l -4 1.656 l -1.656 4 l -3.03 3.03 l 0 4.281 l -1.656 4 l 1.656 4 l 0 4.281 l 3.03 3.03 l 1.656 4 l 4 1.656 l 3.03 3.03 l 4.281 0 l 4 1.656 l 4 -1.656 l 4.281 0 l 3.03 -3.03 l 4 -1.656 l 1.656 -4 l 3.03 -3.03 l 0 -4.281 l 1.656 -4 l -1.656 -4 l 0 -4.281 l -3.03 -3.03 l -1.656 -4 l -4 -1.656 l -3.03 -3.03 l -4.281 0 l -4 -1.656 z" visibility="visible" display="inline" fill-rule="nonzero" color="#000" fill-opacity="1"/></defs><g><path d="m 2.563 24.5 l -0.219 0.5 l 1.656 4 l 0 -1 l -1.438 -3.5 z m 42.875 0 l -1.438 3.5 l 0 1 l 1.656 -4 l -0.219 -0.5 z m -41.44 7.781 l 0 1 l 3.03 3.03 l 1.656 4 l 4 1.656 l 3.03 3.03 l 4.281 0 l 4 1.656 l 4 -1.656 l 4.281 0 l 3.03 -3.03 l 4 -1.656 l 1.656 -4 l 3.03 -3.03 l 0 -1 l -3.03 3.03 l -1.656 4 l -4 1.656 l -3.03 3.03 l -4.281 0 l -4 1.656 l -4 -1.656 l -4.281 0 l -3.03 -3.03 l -4 -1.656 l -1.656 -4 l -3.03 -3.03 z" opacity="0.3" visibility="visible" fill="#000" display="inline" fill-rule="nonzero" stroke="none" fill-opacity="1" color="#000"/></g><g><use fill="#eda63c" stroke="none" xlink:href="#SVGCleanerId_0"/><path d="m 24 2.344 l -4 1.656 l 8 0 l -4 -1.656 z m 4 1.656 l 7.313 3.03 l -3.03 -3.03 l -4.281 0 z m 7.313 3.03 l 5.656 5.656 l -1.656 -4 l -4 -1.656 z m 5.656 5.656 l 3.03 7.313 l 0 -4.281 l -3.03 -3.03 z m 3.03 7.313 l 0 8 l 1.656 -4 l -1.656 -4 z m 0 8 l -3.03 7.313 l 3.03 -3.03 l 0 -4.281 z m -3.03 7.313 l -5.656 5.656 l 4 -1.656 l 1.656 -4 z m -5.656 5.656 l -7.313 3.03 l 4.281 0 l 3.03 -3.03 z m -7.313 3.03 l -8 0 l 4 1.656 l 4 -1.656 z m -8 0 l -7.313 -3.03 l 3.03 3.03 l 4.281 0 z m -7.313 -3.03 l -5.656 -5.656 l 1.656 4 l 4 1.656 z m -5.656 -5.656 l -3.03 -7.313 l 0 4.281 l 3.03 3.03 z m -3.03 -7.313 l 0 -8 l -1.656 4 l 1.656 4 z m 0 -8 l 3.03 -7.313 l -3.03 3.03 l 0 4.281 z m 3.03 -7.313 l 5.656 -5.656 l -4 1.656 l -1.656 4 z m 5.656 -5.656 l 7.313 -3.03 l -4.281 0 l -3.03 3.03 z" opacity="0.05" visibility="visible" fill="#eda63c" display="inline" fill-rule="nonzero" stroke="none" fill-opacity="1" color="#000"/></g><g><use opacity="0.05" stroke-opacity="1" stroke-dasharray="none" fill="#000" stroke="#000" stroke-width="2" stroke-miterlimit="4" xlink:href="#SVGCleanerId_0"/><use opacity="0.1" stroke-opacity="1" stroke-dasharray="none" fill="#000" stroke="#000" stroke-width="1" stroke-miterlimit="4" xlink:href="#SVGCleanerId_0"/></g><g><g clip-path="url(#clipPath-759916157)"><g transform="translate(0,1)"><g opacity="0.1"><!-- color: #eda63c --><g><path d="m 18.418 34.543 c 0 0.582 -0.793 1.059 -1.773 1.059 c -0.98 0 -1.773 -0.477 -1.773 -1.059 c 0 -0.586 0.793 -1.059 1.773 -1.059 c 0.98 0 1.773 0.473 1.773 1.059 m 0 0" fill="#000" stroke="none" fill-rule="nonzero" fill-opacity="1"/><path d="m 34.402 34.578 c 0 0.586 -0.793 1.059 -1.773 1.059 c -0.977 0 -1.77 -0.473 -1.77 -1.059 c 0 -0.582 0.793 -1.055 1.77 -1.055 c 0.98 0 1.773 0.473 1.773 1.055 m 0 0" fill="#000" stroke="none" fill-rule="nonzero" fill-opacity="1"/><path d="m 23.629 25.449 c -0.078 0 -0.141 0.063 -0.141 0.141 l 0 1.258 c 0 0.078 0.063 0.141 0.141 0.141 l 1.258 0 c 0.078 0 0.141 -0.063 0.141 -0.141 l 0 -1.258 c 0 -0.078 -0.063 -0.141 -0.141 -0.141 m -1.254 0.008 l 1.246 0 c 0.078 0 0.137 0.063 0.137 0.137 l 0 1.246 c 0 0.078 -0.059 0.137 -0.137 0.137 l -1.246 0 c -0.074 0 -0.137 -0.059 -0.137 -0.137 l 0 -1.246 c 0 -0.074 0.063 -0.137 0.137 -0.137 m 0 0" fill="#000" stroke="none" fill-rule="nonzero" fill-opacity="0.051"/><path d="m 23.633 25.457 c -0.074 0 -0.137 0.063 -0.137 0.137 l 0 1.246 c 0 0.078 0.063 0.137 0.137 0.137 l 1.246 0 c 0.078 0 0.137 -0.059 0.137 -0.137 l 0 -1.246 c 0 -0.074 -0.059 -0.137 -0.137 -0.137 m -1.238 0.008 l 1.23 0 c 0.078 0 0.137 0.063 0.137 0.137 l 0 1.23 c 0 0.078 -0.059 0.137 -0.137 0.137 l -1.23 0 c -0.074 0 -0.137 -0.059 -0.137 -0.137 l 0 -1.23 c 0 -0.074 0.063 -0.137 0.137 -0.137 m 0 0" fill="#000" stroke="none" fill-rule="nonzero" fill-opacity="0.102"/><path d="m 23.641 25.465 c -0.074 0 -0.137 0.063 -0.137 0.137 l 0 1.23 c 0 0.078 0.063 0.137 0.137 0.137 l 1.23 0 c 0.078 0 0.137 -0.059 0.137 -0.137 l 0 -1.23 c 0 -0.074 -0.059 -0.137 -0.137 -0.137 m -1.227 0.004 l 1.227 0 c 0.074 0 0.133 0.063 0.133 0.137 l 0 1.223 c 0 0.078 -0.059 0.137 -0.133 0.137 l -1.227 0 c -0.074 0 -0.137 -0.059 -0.137 -0.137 l 0 -1.223 c 0 -0.074 0.063 -0.137 0.137 -0.137 m 0 0" fill="#000" stroke="none" fill-rule="nonzero" fill-opacity="0.2"/><path d="m 23.645 25.469 c -0.074 0 -0.137 0.063 -0.137 0.137 l 0 1.223 c 0 0.078 0.063 0.137 0.137 0.137 l 1.227 0 c 0.074 0 0.133 -0.059 0.133 -0.137 l 0 -1.223 c 0 -0.074 -0.059 -0.137 -0.133 -0.137 m -1.223 0.004 l 1.219 0 c 0.074 0 0.133 0.063 0.133 0.137 l 0 1.219 c 0 0.074 -0.059 0.133 -0.133 0.133 l -1.219 0 c -0.074 0 -0.137 -0.059 -0.137 -0.133 l 0 -1.219 c 0 -0.074 0.063 -0.137 0.137 -0.137 m 0 0" fill="#000" stroke="none" fill-rule="nonzero" fill-opacity="0.302"/><path d="m 23.648 25.473 c -0.074 0 -0.137 0.063 -0.137 0.137 l 0 1.219 c 0 0.074 0.063 0.133 0.137 0.133 l 1.219 0 c 0.074 0 0.133 -0.059 0.133 -0.133 l 0 -1.219 c 0 -0.074 -0.059 -0.137 -0.133 -0.137 m -1.215 0.004 l 1.211 0 c 0.074 0 0.133 0.063 0.133 0.137 l 0 1.211 c 0 0.074 -0.059 0.133 -0.133 0.133 l -1.211 0 c -0.074 0 -0.137 -0.059 -0.137 -0.133 l 0 -1.211 c 0 -0.074 0.063 -0.137 0.137 -0.137 m 0 0" fill="#000" stroke="none" fill-rule="nonzero" fill-opacity="0.4"/><path d="m 23.652 25.477 l 1.211 0 c 0.074 0 0.133 0.063 0.133 0.137 l 0 1.211 c 0 0.074 -0.059 0.133 -0.133 0.133 l -1.211 0 c -0.074 0 -0.137 -0.059 -0.137 -0.133 l 0 -1.211 c 0 -0.074 0.063 -0.137 0.137 -0.137 m 0 0" fill="#000" stroke="none" fill-rule="nonzero" fill-opacity="0.502"/><path d="m 23.656 25.48 l 1.203 0 c 0.074 0 0.133 0.063 0.133 0.137 l 0 1.203 c 0 0.074 -0.059 0.133 -0.133 0.133 l -1.203 0 c -0.074 0 -0.137 -0.059 -0.137 -0.133 l 0 -1.203 c 0 -0.074 0.063 -0.137 0.137 -0.137 m 0 0" fill="#000" stroke="none" fill-rule="nonzero" fill-opacity="1"/><path d="m 24.586 12 c -0.762 0 -1.484 0.156 -2.145 0.438 l 0.742 1.043 c 0 0 1.379 -0.703 2.652 0 l 0.871 -1.055 c -0.652 -0.273 -1.367 -0.426 -2.117 -0.426 m -0.004 0" fill="#000" stroke="none" fill-rule="nonzero" fill-opacity="1"/><path d="m 24.16 35.992 c -1.805 -0.016 -10.316 -0.605 -11.383 -3.832 c -0.238 -0.711 -0.867 -1 -0.746 -1.563 l 4.387 -8.656 c 0.203 -0.316 0.539 -0.52 1.039 -0.578 l 13.773 0 c 0.543 0.023 1.074 0.078 1.422 0.617 l 4.387 8.309 c 0.25 0.938 -0.578 2.074 -1.516 3.117 c -0.992 1.109 -6.762 2.719 -11.363 2.586 m 0 0" fill="#000" stroke="none" fill-rule="nonzero" fill-opacity="1"/><path d="m 24.18 35.31 c -3.957 -0.227 -12.738 -2.055 -12.156 -4.715 l 4.387 -8.656 c 0.203 -0.316 0.539 -0.516 1.039 -0.578 l 13.773 0 c 0.543 0.023 1.074 0.078 1.422 0.617 l 4.387 8.309 c 0.914 3.402 -9.102 4.934 -12.852 5.02 m 0 0" fill="#000" stroke="none" fill-rule="nonzero" fill-opacity="1"/><path d="m 24.801 33.867 c -3.957 -0.227 -7.914 -0.441 -12.773 -3.27 l 4.387 -8.656 c 0.203 -0.316 0.539 -0.516 1.039 -0.578 l 13.773 0 c 0.543 0.023 1.074 0.078 1.422 0.617 l 4.387 8.309 c -4.656 3.125 -8.484 3.48 -12.234 3.578 m 0 0" fill="#000" stroke="none" fill-rule="nonzero" fill-opacity="1"/><path d="m 27.566 25.895 c 0 0.82 -1.316 1.484 -2.941 1.484 c -1.629 0 -2.945 -0.664 -2.945 -1.484 c 0 -0.82 1.316 -1.484 2.945 -1.484 c 1.625 0 2.941 0.664 2.941 1.484 m 0 0" fill="#000" stroke="none" fill-rule="nonzero" fill-opacity="1"/><path d="m 22.395 22.301 l 0.352 1.359 l 0.652 0.324 l 0.027 0.219 c -0.609 0.207 -0.816 0.469 -0.801 0.762 c 0.016 0.508 0.191 0.453 0.313 0.602 l 0 0.898 l 3.211 0.039 l -0.027 -0.883 c 0.363 -0.09 0.41 -0.348 0.395 -0.641 c 0.016 -0.344 -0.191 -0.621 -0.762 -0.789 l -0.016 -0.23 l 0.68 -0.34 l 0.301 -1.617 l -4.273 -0.234 m -0.051 0.531" fill="#000" stroke="none" fill-rule="nonzero" fill-opacity="1"/><path d="m 22.617 30.699 l 0 -1.082 l 5.113 0.078 l 0.004 1 c 0.094 1.27 -1.297 2.32 -2.531 2.273 c -1.148 0.047 -2.613 -0.672 -2.586 -2.273 m 0 0.004" fill="#000" stroke="none" fill-rule="nonzero" fill-opacity="1"/><path d="m 27.715 29.707 c 0 1.258 -1.141 2.277 -2.547 2.277 c -1.41 0 -2.551 -1.02 -2.551 -2.277 c 0 -1.254 1.141 -2.273 2.551 -2.273 c 1.406 0 2.547 1.02 2.547 2.273 m 0 0" fill="#000" stroke="none" fill-rule="nonzero" fill-opacity="1"/><path d="m 27.902 29.19 l 0 1.168 c 0.031 1.203 1.57 1.605 2.172 1.605 c 1.238 0 2.176 -0.902 2.176 -1.813 l 0 -0.973 m -4.348 0.004" fill="#000" stroke="none" fill-rule="nonzero" fill-opacity="1"/><path d="m 32.25 29.27 c 0 1.098 -0.973 1.984 -2.172 1.984 c -1.203 0 -2.176 -0.887 -2.176 -1.984 c 0 -1.094 0.973 -1.98 2.176 -1.98 c 1.199 0 2.172 0.887 2.172 1.98 m 0 0" fill="#000" stroke="none" fill-rule="nonzero" fill-opacity="1"/><path d="m 26.746 12.246 l -0.871 1.055 c -1.273 -0.699 -2.652 0 -2.652 0 l -0.742 -1.043 c -1.961 0.836 -3.336 2.781 -3.336 5.05 c 0 3.03 2.453 5.48 5.484 5.48 c 3.03 0 5.48 -2.453 5.48 -5.48 c 0 -2.277 -1.387 -4.23 -3.363 -5.059 m 0 -0.004" fill="#000" stroke="none" fill-rule="nonzero" fill-opacity="1"/></g></g></g></g></g><g><g clip-path="url(#clipPath-766902758)"><!-- color: #eda63c --><g><path d="m 18.418 34.543 c 0 0.582 -0.793 1.059 -1.773 1.059 c -0.98 0 -1.773 -0.477 -1.773 -1.059 c 0 -0.586 0.793 -1.059 1.773 -1.059 c 0.98 0 1.773 0.473 1.773 1.059 m 0 0" fill="#2d2d2d" stroke="none" fill-rule="nonzero" fill-opacity="1"/><path d="m 34.402 34.578 c 0 0.586 -0.793 1.059 -1.773 1.059 c -0.977 0 -1.77 -0.473 -1.77 -1.059 c 0 -0.582 0.793 -1.055 1.77 -1.055 c 0.98 0 1.773 0.473 1.773 1.055 m 0 0" fill="#2d2d2d" stroke="none" fill-rule="nonzero" fill-opacity="1"/><path d="m 23.629 25.449 c -0.078 0 -0.141 0.063 -0.141 0.141 l 0 1.258 c 0 0.078 0.063 0.141 0.141 0.141 l 1.258 0 c 0.078 0 0.141 -0.063 0.141 -0.141 l 0 -1.258 c 0 -0.078 -0.063 -0.141 -0.141 -0.141 m -1.254 0.008 l 1.246 0 c 0.078 0 0.137 0.063 0.137 0.137 l 0 1.246 c 0 0.078 -0.059 0.137 -0.137 0.137 l -1.246 0 c -0.074 0 -0.137 -0.059 -0.137 -0.137 l 0 -1.246 c 0 -0.074 0.063 -0.137 0.137 -0.137 m 0 0" fill="#fcf" stroke="none" fill-rule="nonzero" fill-opacity="0.051"/><path d="m 23.633 25.457 c -0.074 0 -0.137 0.063 -0.137 0.137 l 0 1.246 c 0 0.078 0.063 0.137 0.137 0.137 l 1.246 0 c 0.078 0 0.137 -0.059 0.137 -0.137 l 0 -1.246 c 0 -0.074 -0.059 -0.137 -0.137 -0.137 m -1.238 0.008 l 1.23 0 c 0.078 0 0.137 0.063 0.137 0.137 l 0 1.23 c 0 0.078 -0.059 0.137 -0.137 0.137 l -1.23 0 c -0.074 0 -0.137 -0.059 -0.137 -0.137 l 0 -1.23 c 0 -0.074 0.063 -0.137 0.137 -0.137 m 0 0" fill="#fcf" stroke="none" fill-rule="nonzero" fill-opacity="0.102"/><path d="m 23.641 25.465 c -0.074 0 -0.137 0.063 -0.137 0.137 l 0 1.23 c 0 0.078 0.063 0.137 0.137 0.137 l 1.23 0 c 0.078 0 0.137 -0.059 0.137 -0.137 l 0 -1.23 c 0 -0.074 -0.059 -0.137 -0.137 -0.137 m -1.227 0.004 l 1.227 0 c 0.074 0 0.133 0.063 0.133 0.137 l 0 1.223 c 0 0.078 -0.059 0.137 -0.133 0.137 l -1.227 0 c -0.074 0 -0.137 -0.059 -0.137 -0.137 l 0 -1.223 c 0 -0.074 0.063 -0.137 0.137 -0.137 m 0 0" fill="#fcf" stroke="none" fill-rule="nonzero" fill-opacity="0.2"/><path d="m 23.645 25.469 c -0.074 0 -0.137 0.063 -0.137 0.137 l 0 1.223 c 0 0.078 0.063 0.137 0.137 0.137 l 1.227 0 c 0.074 0 0.133 -0.059 0.133 -0.137 l 0 -1.223 c 0 -0.074 -0.059 -0.137 -0.133 -0.137 m -1.223 0.004 l 1.219 0 c 0.074 0 0.133 0.063 0.133 0.137 l 0 1.219 c 0 0.074 -0.059 0.133 -0.133 0.133 l -1.219 0 c -0.074 0 -0.137 -0.059 -0.137 -0.133 l 0 -1.219 c 0 -0.074 0.063 -0.137 0.137 -0.137 m 0 0" fill="#fcf" stroke="none" fill-rule="nonzero" fill-opacity="0.302"/><path d="m 23.648 25.473 c -0.074 0 -0.137 0.063 -0.137 0.137 l 0 1.219 c 0 0.074 0.063 0.133 0.137 0.133 l 1.219 0 c 0.074 0 0.133 -0.059 0.133 -0.133 l 0 -1.219 c 0 -0.074 -0.059 -0.137 -0.133 -0.137 m -1.215 0.004 l 1.211 0 c 0.074 0 0.133 0.063 0.133 0.137 l 0 1.211 c 0 0.074 -0.059 0.133 -0.133 0.133 l -1.211 0 c -0.074 0 -0.137 -0.059 -0.137 -0.133 l 0 -1.211 c 0 -0.074 0.063 -0.137 0.137 -0.137 m 0 0" fill="#fcf" stroke="none" fill-rule="nonzero" fill-opacity="0.4"/><path d="m 23.652 25.477 l 1.211 0 c 0.074 0 0.133 0.063 0.133 0.137 l 0 1.211 c 0 0.074 -0.059 0.133 -0.133 0.133 l -1.211 0 c -0.074 0 -0.137 -0.059 -0.137 -0.133 l 0 -1.211 c 0 -0.074 0.063 -0.137 0.137 -0.137 m 0 0" fill="#fcf" stroke="none" fill-rule="nonzero" fill-opacity="0.502"/><path d="m 23.656 25.48 l 1.203 0 c 0.074 0 0.133 0.063 0.133 0.137 l 0 1.203 c 0 0.074 -0.059 0.133 -0.133 0.133 l -1.203 0 c -0.074 0 -0.137 -0.059 -0.137 -0.133 l 0 -1.203 c 0 -0.074 0.063 -0.137 0.137 -0.137 m 0 0" fill="#fcf" stroke="none" fill-rule="nonzero" fill-opacity="1"/><path d="m 24.586 12 c -0.762 0 -1.484 0.156 -2.145 0.438 l 0.742 1.043 c 0 0 1.379 -0.703 2.652 0 l 0.871 -1.055 c -0.652 -0.273 -1.367 -0.426 -2.117 -0.426 m -0.004 0" fill="#2d2d2d" stroke="none" fill-rule="nonzero" fill-opacity="1"/><path d="m 24.16 35.992 c -1.805 -0.016 -10.316 -0.605 -11.383 -3.832 c -0.238 -0.711 -0.867 -1 -0.746 -1.563 l 4.387 -8.656 c 0.203 -0.316 0.539 -0.52 1.039 -0.578 l 13.773 0 c 0.543 0.023 1.074 0.078 1.422 0.617 l 4.387 8.309 c 0.25 0.938 -0.578 2.074 -1.516 3.117 c -0.992 1.109 -6.762 2.719 -11.363 2.586 m 0 0" fill="#b2b9c5" stroke="none" fill-rule="nonzero" fill-opacity="1"/><path d="m 24.18 35.31 c -3.957 -0.227 -12.738 -2.055 -12.156 -4.715 l 4.387 -8.656 c 0.203 -0.316 0.539 -0.516 1.039 -0.578 l 13.773 0 c 0.543 0.023 1.074 0.078 1.422 0.617 l 4.387 8.309 c 0.914 3.402 -9.102 4.934 -12.852 5.02 m 0 0" fill="#ecf2f4" stroke="none" fill-rule="nonzero" fill-opacity="1"/><path d="m 24.801 33.867 c -3.957 -0.227 -7.914 -0.441 -12.773 -3.27 l 4.387 -8.656 c 0.203 -0.316 0.539 -0.516 1.039 -0.578 l 13.773 0 c 0.543 0.023 1.074 0.078 1.422 0.617 l 4.387 8.309 c -4.656 3.125 -8.484 3.48 -12.234 3.578 m 0 0" fill="#c6cfdb" stroke="none" fill-rule="nonzero" fill-opacity="1"/><path d="m 27.566 25.895 c 0 0.82 -1.316 1.484 -2.941 1.484 c -1.629 0 -2.945 -0.664 -2.945 -1.484 c 0 -0.82 1.316 -1.484 2.945 -1.484 c 1.625 0 2.941 0.664 2.941 1.484 m 0 0" fill="#b2b9c5" stroke="none" fill-rule="nonzero" fill-opacity="1"/><path d="m 22.395 22.301 l 0.352 1.359 l 0.652 0.324 l 0.027 0.219 c -0.609 0.207 -0.816 0.469 -0.801 0.762 c 0.016 0.508 0.191 0.453 0.313 0.602 l 0 0.898 l 3.211 0.039 l -0.027 -0.883 c 0.363 -0.09 0.41 -0.348 0.395 -0.641 c 0.016 -0.344 -0.191 -0.621 -0.762 -0.789 l -0.016 -0.23 l 0.68 -0.34 l 0.301 -1.617 l -4.273 -0.234 m -0.051 0.531" fill="#606262" stroke="none" fill-rule="nonzero" fill-opacity="1"/><path d="m 22.617 30.699 l 0 -1.082 l 5.113 0.078 l 0.004 1 c 0.094 1.27 -1.297 2.32 -2.531 2.273 c -1.148 0.047 -2.613 -0.672 -2.586 -2.273 m 0 0.004" fill="#b22d2f" stroke="none" fill-rule="nonzero" fill-opacity="1"/><path d="m 27.715 29.707 c 0 1.258 -1.141 2.277 -2.547 2.277 c -1.41 0 -2.551 -1.02 -2.551 -2.277 c 0 -1.254 1.141 -2.273 2.551 -2.273 c 1.406 0 2.547 1.02 2.547 2.273 m 0 0" fill="#d04c51" stroke="none" fill-rule="nonzero" fill-opacity="1"/><path d="m 27.902 29.19 l 0 1.168 c 0.031 1.203 1.57 1.605 2.172 1.605 c 1.238 0 2.176 -0.902 2.176 -1.813 l 0 -0.973 m -4.348 0.004" fill="#b22d2f" stroke="none" fill-rule="nonzero" fill-opacity="1"/><path d="m 32.25 29.27 c 0 1.098 -0.973 1.984 -2.172 1.984 c -1.203 0 -2.176 -0.887 -2.176 -1.984 c 0 -1.094 0.973 -1.98 2.176 -1.98 c 1.199 0 2.172 0.887 2.172 1.98 m 0 0" fill="#d04c51" stroke="none" fill-rule="nonzero" fill-opacity="1"/><path d="m 26.746 12.246 l -0.871 1.055 c -1.273 -0.699 -2.652 0 -2.652 0 l -0.742 -1.043 c -1.961 0.836 -3.336 2.781 -3.336 5.05 c 0 3.03 2.453 5.48 5.484 5.48 c 3.03 0 5.48 -2.453 5.48 -5.48 c 0 -2.277 -1.387 -4.23 -3.363 -5.059 m 0 -0.004" fill="#d04c51" stroke="none" fill-rule="nonzero" fill-opacity="1"/></g></g></g><g><path d="m 20 4 -7.313 3.03 -5.656 5.656 -3.03 7.313 0 8 3.03 7.313 5.656 5.656 7.313 3.03 8 0 7.313 -3.03 5.656 -5.656 3.03 -7.313 0 -8 -3.03 -7.313 -5.656 -5.656 -7.313 -3.03 -8 0 z" clip-path="url(#clipPath4313)" transform="matrix(0,1,-1,0,48,0)" opacity="0.3" stroke-opacity="1" stroke-dasharray="none" visibility="visible" fill="none" display="inline" stroke="url(#linearGradient4375)" color="#000" stroke-width="1" stroke-miterlimit="4"/><path d="m 24 2.344 -4 1.656 -4.281 0 -3.03 3.03 l -4 1.656 -1.656 4 l -3.03 3.03 0 4.281 -1.656 4 1.656 4 l 0 4.281 3.03 3.03 1.656 4 4 1.656 l 3.03 3.03 4.281 0 4 1.656 4 -1.656 l 4.281 0 3.03 -3.03 4 -1.656 1.656 -4 l 3.03 -3.03 0 -4.281 1.656 -4 -1.656 -4 l 0 -4.281 -3.03 -3.03 -1.656 -4 -4 -1.656 l -3.03 -3.03 -4.281 0 -4 -1.656 z" clip-path="url(#clipPath4329)" opacity="0.2" stroke-opacity="1" visibility="visible" fill="none" display="inline" stroke="#000" color="#000" stroke-width="2"/></g></svg>