<svg viewBox="0 0 48 48" xmlns:xlink="http://www.w3.org/1999/xlink"><defs><clipPath clipPathUnits="userSpaceOnUse" id="clipPath4313"><path d="m 20 4 -7.313 3.03 -5.656 5.656 -3.03 7.313 0 8 3.03 7.313 5.656 5.656 7.313 3.03 8 0 7.313 -3.03 5.656 -5.656 3.03 -7.313 0 -8 -3.03 -7.313 -5.656 -5.656 -7.313 -3.03 -8 0 z"/></clipPath><clipPath clipPathUnits="userSpaceOnUse" id="clipPath4329"><path d="m 24 2.344 -4 1.656 -4.281 0 -3.03 3.03 l -4 1.656 -1.656 4 l -3.03 3.03 0 4.281 -1.656 4 1.656 4 l 0 4.281 3.03 3.03 1.656 4 4 1.656 l 3.03 3.03 4.281 0 4 1.656 4 -1.656 l 4.281 0 3.03 -3.03 4 -1.656 1.656 -4 l 3.03 -3.03 0 -4.281 1.656 -4 -1.656 -4 l 0 -4.281 -3.03 -3.03 -1.656 -4 -4 -1.656 l -3.03 -3.03 -4.281 0 -4 -1.656 z"/></clipPath><clipPath id="clipPath-574730355"><path d="m 24 2.344 l -4 1.656 l -4.281 0 l -3.03 3.03 l -4 1.656 l -1.656 4 l -3.03 3.03 l 0 4.281 l -1.656 4 l 1.656 4 l 0 4.281 l 3.03 3.03 l 1.656 4 l 4 1.656 l 3.03 3.03 l 4.281 0 l 4 1.656 l 4 -1.656 l 4.281 0 l 3.03 -3.03 l 4 -1.656 l 1.656 -4 l 3.03 -3.03 l 0 -4.281 l 1.656 -4 l -1.656 -4 l 0 -4.281 l -3.03 -3.03 l -1.656 -4 l -4 -1.656 l -3.03 -3.03 l -4.281 0 l -4 -1.656 z"/></clipPath><clipPath id="clipPath-581997451"><path d="m 24 2.344 l -4 1.656 l -4.281 0 l -3.03 3.03 l -4 1.656 l -1.656 4 l -3.03 3.03 l 0 4.281 l -1.656 4 l 1.656 4 l 0 4.281 l 3.03 3.03 l 1.656 4 l 4 1.656 l 3.03 3.03 l 4.281 0 l 4 1.656 l 4 -1.656 l 4.281 0 l 3.03 -3.03 l 4 -1.656 l 1.656 -4 l 3.03 -3.03 l 0 -4.281 l 1.656 -4 l -1.656 -4 l 0 -4.281 l -3.03 -3.03 l -1.656 -4 l -4 -1.656 l -3.03 -3.03 l -4.281 0 l -4 -1.656 z"/></clipPath><linearGradient id="linearGradient4317"><stop stop-color="#fff" stop-opacity="1"/><stop offset="1" stop-color="#fff" stop-opacity="0"/></linearGradient><clipPath clipPathUnits="userSpaceOnUse" id="clipPath4313"><path d="m 20 4 -7.313 3.03 -5.656 5.656 -3.03 7.313 0 8 3.03 7.313 5.656 5.656 7.313 3.03 8 0 7.313 -3.03 5.656 -5.656 3.03 -7.313 0 -8 -3.03 -7.313 -5.656 -5.656 -7.313 -3.03 -8 0 z"/></clipPath><linearGradient x2="44" x1="4" gradientUnits="userSpaceOnUse" id="linearGradient4375" xlink:href="#linearGradient4317"/><clipPath clipPathUnits="userSpaceOnUse" id="clipPath4329"><path d="m 24 2.344 -4 1.656 -4.281 0 -3.03 3.03 l -4 1.656 -1.656 4 l -3.03 3.03 0 4.281 -1.656 4 1.656 4 l 0 4.281 3.03 3.03 1.656 4 4 1.656 l 3.03 3.03 4.281 0 4 1.656 4 -1.656 l 4.281 0 3.03 -3.03 4 -1.656 1.656 -4 l 3.03 -3.03 0 -4.281 1.656 -4 -1.656 -4 l 0 -4.281 -3.03 -3.03 -1.656 -4 -4 -1.656 l -3.03 -3.03 -4.281 0 -4 -1.656 z"/></clipPath><path id="SVGCleanerId_0" d="m 24 2.344 l -4 1.656 l -4.281 0 l -3.03 3.03 l -4 1.656 l -1.656 4 l -3.03 3.03 l 0 4.281 l -1.656 4 l 1.656 4 l 0 4.281 l 3.03 3.03 l 1.656 4 l 4 1.656 l 3.03 3.03 l 4.281 0 l 4 1.656 l 4 -1.656 l 4.281 0 l 3.03 -3.03 l 4 -1.656 l 1.656 -4 l 3.03 -3.03 l 0 -4.281 l 1.656 -4 l -1.656 -4 l 0 -4.281 l -3.03 -3.03 l -1.656 -4 l -4 -1.656 l -3.03 -3.03 l -4.281 0 l -4 -1.656 z" visibility="visible" display="inline" fill-rule="nonzero" color="#000" fill-opacity="1"/></defs><g><path d="m 2.563 24.5 l -0.219 0.5 l 1.656 4 l 0 -1 l -1.438 -3.5 z m 42.875 0 l -1.438 3.5 l 0 1 l 1.656 -4 l -0.219 -0.5 z m -41.44 7.781 l 0 1 l 3.03 3.03 l 1.656 4 l 4 1.656 l 3.03 3.03 l 4.281 0 l 4 1.656 l 4 -1.656 l 4.281 0 l 3.03 -3.03 l 4 -1.656 l 1.656 -4 l 3.03 -3.03 l 0 -1 l -3.03 3.03 l -1.656 4 l -4 1.656 l -3.03 3.03 l -4.281 0 l -4 1.656 l -4 -1.656 l -4.281 0 l -3.03 -3.03 l -4 -1.656 l -1.656 -4 l -3.03 -3.03 z" opacity="0.3" visibility="visible" fill="#000" display="inline" fill-rule="nonzero" stroke="none" fill-opacity="1" color="#000"/></g><g><use fill="#c01800" stroke="none" xlink:href="#SVGCleanerId_0"/><path d="m 24 2.344 l -4 1.656 l 8 0 l -4 -1.656 z m 4 1.656 l 7.313 3.03 l -3.03 -3.03 l -4.281 0 z m 7.313 3.03 l 5.656 5.656 l -1.656 -4 l -4 -1.656 z m 5.656 5.656 l 3.03 7.313 l 0 -4.281 l -3.03 -3.03 z m 3.03 7.313 l 0 8 l 1.656 -4 l -1.656 -4 z m 0 8 l -3.03 7.313 l 3.03 -3.03 l 0 -4.281 z m -3.03 7.313 l -5.656 5.656 l 4 -1.656 l 1.656 -4 z m -5.656 5.656 l -7.313 3.03 l 4.281 0 l 3.03 -3.03 z m -7.313 3.03 l -8 0 l 4 1.656 l 4 -1.656 z m -8 0 l -7.313 -3.03 l 3.03 3.03 l 4.281 0 z m -7.313 -3.03 l -5.656 -5.656 l 1.656 4 l 4 1.656 z m -5.656 -5.656 l -3.03 -7.313 l 0 4.281 l 3.03 3.03 z m -3.03 -7.313 l 0 -8 l -1.656 4 l 1.656 4 z m 0 -8 l 3.03 -7.313 l -3.03 3.03 l 0 4.281 z m 3.03 -7.313 l 5.656 -5.656 l -4 1.656 l -1.656 4 z m 5.656 -5.656 l 7.313 -3.03 l -4.281 0 l -3.03 3.03 z" opacity="0.05" visibility="visible" fill="#c01800" display="inline" fill-rule="nonzero" stroke="none" fill-opacity="1" color="#000"/></g><g><use opacity="0.05" stroke-opacity="1" stroke-dasharray="none" fill="#000" stroke="#000" stroke-width="2" stroke-miterlimit="4" xlink:href="#SVGCleanerId_0"/><use opacity="0.1" stroke-opacity="1" stroke-dasharray="none" fill="#000" stroke="#000" stroke-width="1" stroke-miterlimit="4" xlink:href="#SVGCleanerId_0"/></g><g><g clip-path="url(#clipPath-574730355)"><g transform="translate(0,1)"><g opacity="0.1"><!-- color: #c01800 --><g><use xlink:href="#SVGCleanerId_1"/><use xlink:href="#SVGCleanerId_2"/><path d="m 11.797 22.766 l 0 0.063 c -0.023 0.078 -0.023 0.164 0 0.242 c 0.023 0.098 0.078 0.176 0.137 0.254 c 0.219 0.27 0.555 0.438 0.898 0.477 c 0.348 0.039 0.703 -0.043 1.012 -0.211 c 0.27 -0.145 0.504 -0.348 0.773 -0.496 c 0.262 -0.137 0.543 -0.211 0.844 -0.23 c 0.43 -0.02 0.859 0.09 1.297 0.043 c 0.215 -0.02 0.426 -0.082 0.602 -0.211 c 0.086 -0.063 0.164 -0.141 0.219 -0.227 c 0.063 -0.102 0.098 -0.199 0.105 -0.313 c 0.012 -0.133 -0.023 -0.262 -0.078 -0.383 c -0.055 -0.117 -0.141 -0.223 -0.234 -0.313 c -0.191 -0.184 -0.422 -0.316 -0.641 -0.465 c -0.117 -0.082 -0.238 -0.172 -0.383 -0.215 c -0.168 -0.051 -0.355 -0.016 -0.535 -0.039 c -0.191 -0.02 -0.363 -0.098 -0.543 -0.148 c -0.367 -0.109 -0.758 -0.117 -1.137 -0.047 c -0.375 0.066 -0.73 0.223 -1.055 0.43 c -0.309 0.195 -0.594 0.453 -0.734 0.785 c -0.027 0.066 -0.047 0.137 -0.078 0.203 c -0.109 0.293 -0.273 0.563 -0.469 0.801" fill="#000" stroke="none" fill-rule="nonzero" fill-opacity="1"/><path d="m 13.719 18.68 c 0 0.246 -0.262 0.449 -0.586 0.449 c -0.324 0 -0.586 -0.203 -0.586 -0.449 c 0 -0.246 0.262 -0.449 0.586 -0.449 c 0.324 0 0.586 0.203 0.586 0.449 m 0 0" fill="#000" stroke="none" fill-rule="nonzero" fill-opacity="1"/><path d="m 32.23 18.898 c 0 0.25 -0.262 0.449 -0.586 0.449 c -0.32 0 -0.582 -0.199 -0.582 -0.449 c 0 -0.246 0.262 -0.449 0.582 -0.449 c 0.324 0 0.586 0.203 0.586 0.449 m 0 0" fill="#000" stroke="none" fill-rule="nonzero" fill-opacity="1"/><path d="m 30.07 31.01 c 0 0.547 -2.703 0.992 -6.04 0.992 c -3.336 0 -6.04 -0.445 -6.04 -0.992 c 0 -0.551 2.699 -0.996 6.04 -0.996 c 3.332 0 6.04 0.445 6.04 0.996 m 0 0" fill="#000" stroke="none" fill-rule="nonzero" fill-opacity="1"/><path d="m 28.824 31.01 c 0 0.426 -1.977 0.77 -4.41 0.77 c -2.434 0 -4.406 -0.348 -4.406 -0.77 c 0 -0.438 1.973 -0.777 4.406 -0.777 c 2.434 0 4.41 0.348 4.41 0.777 m 0 0" fill="#000" stroke="none" fill-rule="nonzero" fill-opacity="1"/><path d="m 26.773 31.01 c 0 0.227 -1.055 0.414 -2.359 0.414 c -1.305 0 -2.359 -0.191 -2.359 -0.414 c 0 -0.23 1.055 -0.414 2.359 -0.414 c 1.305 0 2.359 0.184 2.359 0.414 m 0 0" fill="#000" stroke="none" fill-rule="nonzero" fill-opacity="1"/><use xlink:href="#SVGCleanerId_3"/><path d="m 14.14 25.891 c 0.09 0.449 -0.176 1.113 0.227 1.398 c 2.496 1.758 7.18 2.539 10.359 2.605 c 4.207 0.023 7.523 -0.348 8.652 -1.879 c 0.246 -0.336 0.004 -1.27 0.023 -1.77 l -2.281 -0.059 l 2.289 -0.227 l -0.23 -1.832 l -10.906 0 l -0.027 2.086 l -2.441 -0.078 l 0.102 -1.906 l -5.789 -0.195 l 0.031 1.656 l 1.793 0.063 m -1.801 0.137" fill="#000" stroke="none" fill-rule="nonzero" fill-opacity="1"/></g></g></g></g></g><g><g clip-path="url(#clipPath-581997451)"><!-- color: #c01800 --><g><path d="m 30.465 22.297 c 1.934 0.031 0.305 -0.043 5 0.258 c 0.789 -0.48 1.344 -2.352 -0.051 -4.195 c -1.531 -2.059 -4 -1.172 -5 0.383 c -0.855 1.746 -0.27 2.637 0.051 3.543 m 0 0.012" fill="#000" stroke="none" fill-rule="nonzero" fill-opacity="1" id="SVGCleanerId_1"/><path d="m 11.934 22.672 c 1.988 -0.176 1.98 -0.195 5.512 -0.457 c 0.383 -0.992 0.73 -1.586 -0.664 -3.434 c -1.535 -2.059 -4 -1.172 -5 0.383 c -0.855 1.746 -0.625 2.844 0.152 3.508 m 0 0" fill="#000" stroke="none" fill-rule="nonzero" fill-opacity="1" id="SVGCleanerId_2"/><path d="m 11.797 22.766 l 0 0.063 c -0.023 0.078 -0.023 0.164 0 0.242 c 0.023 0.098 0.078 0.176 0.137 0.254 c 0.219 0.27 0.555 0.438 0.898 0.477 c 0.348 0.039 0.703 -0.043 1.012 -0.211 c 0.27 -0.145 0.504 -0.348 0.773 -0.496 c 0.262 -0.137 0.543 -0.211 0.844 -0.23 c 0.43 -0.02 0.859 0.09 1.297 0.043 c 0.215 -0.02 0.426 -0.082 0.602 -0.211 c 0.086 -0.063 0.164 -0.141 0.219 -0.227 c 0.063 -0.102 0.098 -0.199 0.105 -0.313 c 0.012 -0.133 -0.023 -0.262 -0.078 -0.383 c -0.055 -0.117 -0.141 -0.223 -0.234 -0.313 c -0.191 -0.184 -0.422 -0.316 -0.641 -0.465 c -0.117 -0.082 -0.238 -0.172 -0.383 -0.215 c -0.168 -0.051 -0.355 -0.016 -0.535 -0.039 c -0.191 -0.02 -0.363 -0.098 -0.543 -0.148 c -0.367 -0.109 -0.758 -0.117 -1.137 -0.047 c -0.375 0.066 -0.73 0.223 -1.055 0.43 c -0.309 0.195 -0.594 0.453 -0.734 0.785 c -0.027 0.066 -0.047 0.137 -0.078 0.203 c -0.109 0.293 -0.273 0.563 -0.469 0.801" fill="#952f51" stroke="none" fill-rule="nonzero" fill-opacity="1"/><path d="m 13.719 18.68 c 0 0.246 -0.262 0.449 -0.586 0.449 c -0.324 0 -0.586 -0.203 -0.586 -0.449 c 0 -0.246 0.262 -0.449 0.586 -0.449 c 0.324 0 0.586 0.203 0.586 0.449 m 0 0" fill="#deffff" stroke="none" fill-rule="nonzero" fill-opacity="1"/><path d="m 32.23 18.898 c 0 0.25 -0.262 0.449 -0.586 0.449 c -0.32 0 -0.582 -0.199 -0.582 -0.449 c 0 -0.246 0.262 -0.449 0.582 -0.449 c 0.324 0 0.586 0.203 0.586 0.449 m 0 0" fill="#deffff" stroke="none" fill-rule="nonzero" fill-opacity="1"/><path d="m 30.07 31.01 c 0 0.547 -2.703 0.992 -6.04 0.992 c -3.336 0 -6.04 -0.445 -6.04 -0.992 c 0 -0.551 2.699 -0.996 6.04 -0.996 c 3.332 0 6.04 0.445 6.04 0.996 m 0 0" fill="#a31200" stroke="none" fill-rule="nonzero" fill-opacity="1"/><path d="m 28.824 31.01 c 0 0.426 -1.977 0.77 -4.41 0.77 c -2.434 0 -4.406 -0.348 -4.406 -0.77 c 0 -0.438 1.973 -0.777 4.406 -0.777 c 2.434 0 4.41 0.348 4.41 0.777 m 0 0" fill="#8e0f00" stroke="none" fill-rule="nonzero" fill-opacity="1"/><path d="m 26.773 31.01 c 0 0.227 -1.055 0.414 -2.359 0.414 c -1.305 0 -2.359 -0.191 -2.359 -0.414 c 0 -0.23 1.055 -0.414 2.359 -0.414 c 1.305 0 2.359 0.184 2.359 0.414 m 0 0" fill="#660800" stroke="none" fill-rule="nonzero" fill-opacity="1"/><path d="m 12 24 c 7.973 -0.375 15.961 -0.566 24 0 c -1.324 6.117 -6.172 6.184 -11 6.281 c -5.43 0.266 -12.04 -1.582 -13 -6.281 m 0 0" fill="#000" stroke="none" fill-rule="nonzero" fill-opacity="1" id="SVGCleanerId_3"/><path d="m 14.14 25.891 c 0.09 0.449 -0.176 1.113 0.227 1.398 c 2.496 1.758 7.18 2.539 10.359 2.605 c 4.207 0.023 7.523 -0.348 8.652 -1.879 c 0.246 -0.336 0.004 -1.27 0.023 -1.77 l -2.281 -0.059 l 2.289 -0.227 l -0.23 -1.832 l -10.906 0 l -0.027 2.086 l -2.441 -0.078 l 0.102 -1.906 l -5.789 -0.195 l 0.031 1.656 l 1.793 0.063 m -1.801 0.137" fill="#fff4f3" stroke="none" fill-rule="nonzero" fill-opacity="1"/></g></g></g><g><path d="m 20 4 -7.313 3.03 -5.656 5.656 -3.03 7.313 0 8 3.03 7.313 5.656 5.656 7.313 3.03 8 0 7.313 -3.03 5.656 -5.656 3.03 -7.313 0 -8 -3.03 -7.313 -5.656 -5.656 -7.313 -3.03 -8 0 z" clip-path="url(#clipPath4313)" transform="matrix(0,1,-1,0,48,0)" opacity="0.3" stroke-opacity="1" stroke-dasharray="none" visibility="visible" fill="none" display="inline" stroke="url(#linearGradient4375)" color="#000" stroke-width="1" stroke-miterlimit="4"/><path d="m 24 2.344 -4 1.656 -4.281 0 -3.03 3.03 l -4 1.656 -1.656 4 l -3.03 3.03 0 4.281 -1.656 4 1.656 4 l 0 4.281 3.03 3.03 1.656 4 4 1.656 l 3.03 3.03 4.281 0 4 1.656 4 -1.656 l 4.281 0 3.03 -3.03 4 -1.656 1.656 -4 l 3.03 -3.03 0 -4.281 1.656 -4 -1.656 -4 l 0 -4.281 -3.03 -3.03 -1.656 -4 -4 -1.656 l -3.03 -3.03 -4.281 0 -4 -1.656 z" clip-path="url(#clipPath4329)" opacity="0.2" stroke-opacity="1" visibility="visible" fill="none" display="inline" stroke="#000" color="#000" stroke-width="2"/></g></svg>