<svg viewBox="0 0 48 48" xmlns:xlink="http://www.w3.org/1999/xlink"><defs><clipPath clipPathUnits="userSpaceOnUse" id="clipPath4313"><path d="m 20 4 -7.313 3.03 -5.656 5.656 -3.03 7.313 0 8 3.03 7.313 5.656 5.656 7.313 3.03 8 0 7.313 -3.03 5.656 -5.656 3.03 -7.313 0 -8 -3.03 -7.313 -5.656 -5.656 -7.313 -3.03 -8 0 z"/></clipPath><clipPath clipPathUnits="userSpaceOnUse" id="clipPath4329"><path d="m 24 2.344 -4 1.656 -4.281 0 -3.03 3.03 l -4 1.656 -1.656 4 l -3.03 3.03 0 4.281 -1.656 4 1.656 4 l 0 4.281 3.03 3.03 1.656 4 4 1.656 l 3.03 3.03 4.281 0 4 1.656 4 -1.656 l 4.281 0 3.03 -3.03 4 -1.656 1.656 -4 l 3.03 -3.03 0 -4.281 1.656 -4 -1.656 -4 l 0 -4.281 -3.03 -3.03 -1.656 -4 -4 -1.656 l -3.03 -3.03 -4.281 0 -4 -1.656 z"/></clipPath><clipPath id="clipPath-472034923"><path d="m 24 2.344 l -4 1.656 l -4.281 0 l -3.03 3.03 l -4 1.656 l -1.656 4 l -3.03 3.03 l 0 4.281 l -1.656 4 l 1.656 4 l 0 4.281 l 3.03 3.03 l 1.656 4 l 4 1.656 l 3.03 3.03 l 4.281 0 l 4 1.656 l 4 -1.656 l 4.281 0 l 3.03 -3.03 l 4 -1.656 l 1.656 -4 l 3.03 -3.03 l 0 -4.281 l 1.656 -4 l -1.656 -4 l 0 -4.281 l -3.03 -3.03 l -1.656 -4 l -4 -1.656 l -3.03 -3.03 l -4.281 0 l -4 -1.656 z"/></clipPath><clipPath id="clipPath-477960813"><path d="m 24 2.344 l -4 1.656 l -4.281 0 l -3.03 3.03 l -4 1.656 l -1.656 4 l -3.03 3.03 l 0 4.281 l -1.656 4 l 1.656 4 l 0 4.281 l 3.03 3.03 l 1.656 4 l 4 1.656 l 3.03 3.03 l 4.281 0 l 4 1.656 l 4 -1.656 l 4.281 0 l 3.03 -3.03 l 4 -1.656 l 1.656 -4 l 3.03 -3.03 l 0 -4.281 l 1.656 -4 l -1.656 -4 l 0 -4.281 l -3.03 -3.03 l -1.656 -4 l -4 -1.656 l -3.03 -3.03 l -4.281 0 l -4 -1.656 z"/></clipPath><linearGradient id="linearGradient4317"><stop stop-color="#fff" stop-opacity="1"/><stop offset="1" stop-color="#fff" stop-opacity="0"/></linearGradient><clipPath clipPathUnits="userSpaceOnUse" id="clipPath4313"><path d="m 20 4 -7.313 3.03 -5.656 5.656 -3.03 7.313 0 8 3.03 7.313 5.656 5.656 7.313 3.03 8 0 7.313 -3.03 5.656 -5.656 3.03 -7.313 0 -8 -3.03 -7.313 -5.656 -5.656 -7.313 -3.03 -8 0 z"/></clipPath><linearGradient x2="44" x1="4" gradientUnits="userSpaceOnUse" id="linearGradient4375" xlink:href="#linearGradient4317"/><clipPath clipPathUnits="userSpaceOnUse" id="clipPath4329"><path d="m 24 2.344 -4 1.656 -4.281 0 -3.03 3.03 l -4 1.656 -1.656 4 l -3.03 3.03 0 4.281 -1.656 4 1.656 4 l 0 4.281 3.03 3.03 1.656 4 4 1.656 l 3.03 3.03 4.281 0 4 1.656 4 -1.656 l 4.281 0 3.03 -3.03 4 -1.656 1.656 -4 l 3.03 -3.03 0 -4.281 1.656 -4 -1.656 -4 l 0 -4.281 -3.03 -3.03 -1.656 -4 -4 -1.656 l -3.03 -3.03 -4.281 0 -4 -1.656 z"/></clipPath><path id="SVGCleanerId_0" d="m 24 2.344 l -4 1.656 l -4.281 0 l -3.03 3.03 l -4 1.656 l -1.656 4 l -3.03 3.03 l 0 4.281 l -1.656 4 l 1.656 4 l 0 4.281 l 3.03 3.03 l 1.656 4 l 4 1.656 l 3.03 3.03 l 4.281 0 l 4 1.656 l 4 -1.656 l 4.281 0 l 3.03 -3.03 l 4 -1.656 l 1.656 -4 l 3.03 -3.03 l 0 -4.281 l 1.656 -4 l -1.656 -4 l 0 -4.281 l -3.03 -3.03 l -1.656 -4 l -4 -1.656 l -3.03 -3.03 l -4.281 0 l -4 -1.656 z" visibility="visible" display="inline" fill-rule="nonzero" color="#000" fill-opacity="1"/></defs><g><path d="m 2.563 24.5 l -0.219 0.5 l 1.656 4 l 0 -1 l -1.438 -3.5 z m 42.875 0 l -1.438 3.5 l 0 1 l 1.656 -4 l -0.219 -0.5 z m -41.44 7.781 l 0 1 l 3.03 3.03 l 1.656 4 l 4 1.656 l 3.03 3.03 l 4.281 0 l 4 1.656 l 4 -1.656 l 4.281 0 l 3.03 -3.03 l 4 -1.656 l 1.656 -4 l 3.03 -3.03 l 0 -1 l -3.03 3.03 l -1.656 4 l -4 1.656 l -3.03 3.03 l -4.281 0 l -4 1.656 l -4 -1.656 l -4.281 0 l -3.03 -3.03 l -4 -1.656 l -1.656 -4 l -3.03 -3.03 z" opacity="0.3" visibility="visible" fill="#000" display="inline" fill-rule="nonzero" stroke="none" fill-opacity="1" color="#000"/></g><g><use fill="#8d4cc4" stroke="none" xlink:href="#SVGCleanerId_0"/><path d="m 24 2.344 l -4 1.656 l 8 0 l -4 -1.656 z m 4 1.656 l 7.313 3.03 l -3.03 -3.03 l -4.281 0 z m 7.313 3.03 l 5.656 5.656 l -1.656 -4 l -4 -1.656 z m 5.656 5.656 l 3.03 7.313 l 0 -4.281 l -3.03 -3.03 z m 3.03 7.313 l 0 8 l 1.656 -4 l -1.656 -4 z m 0 8 l -3.03 7.313 l 3.03 -3.03 l 0 -4.281 z m -3.03 7.313 l -5.656 5.656 l 4 -1.656 l 1.656 -4 z m -5.656 5.656 l -7.313 3.03 l 4.281 0 l 3.03 -3.03 z m -7.313 3.03 l -8 0 l 4 1.656 l 4 -1.656 z m -8 0 l -7.313 -3.03 l 3.03 3.03 l 4.281 0 z m -7.313 -3.03 l -5.656 -5.656 l 1.656 4 l 4 1.656 z m -5.656 -5.656 l -3.03 -7.313 l 0 4.281 l 3.03 3.03 z m -3.03 -7.313 l 0 -8 l -1.656 4 l 1.656 4 z m 0 -8 l 3.03 -7.313 l -3.03 3.03 l 0 4.281 z m 3.03 -7.313 l 5.656 -5.656 l -4 1.656 l -1.656 4 z m 5.656 -5.656 l 7.313 -3.03 l -4.281 0 l -3.03 3.03 z" opacity="0.05" visibility="visible" fill="#8d4cc4" display="inline" fill-rule="nonzero" stroke="none" fill-opacity="1" color="#000"/></g><g><use opacity="0.05" stroke-opacity="1" stroke-dasharray="none" fill="#000" stroke="#000" stroke-width="2" stroke-miterlimit="4" xlink:href="#SVGCleanerId_0"/><use opacity="0.1" stroke-opacity="1" stroke-dasharray="none" fill="#000" stroke="#000" stroke-width="1" stroke-miterlimit="4" xlink:href="#SVGCleanerId_0"/></g><g><g clip-path="url(#clipPath-472034923)"><g transform="translate(0,1)"><g opacity="0.1"><!-- color: #8d4cc4 --><g><path d="m 12 20.723 c 0 -1.203 0.227 -2.336 0.68 -3.398 c 0.453 -1.059 1.078 -1.984 1.875 -2.777 c 0.797 -0.793 1.723 -1.418 2.781 -1.871 c 1.059 -0.449 2.195 -0.676 3.418 -0.676 c 1.629 0 3.117 0.41 4.453 1.234 c 1.336 0.82 2.387 1.895 3.152 3.215 c 0.184 -0.023 0.367 -0.047 0.547 -0.07 c 0.18 -0.023 0.359 -0.035 0.547 -0.035 c 0.902 0 1.75 0.172 2.543 0.512 c 0.793 0.344 1.488 0.816 2.086 1.41 c 0.594 0.594 1.063 1.289 1.406 2.086 c 0.34 0.793 0.512 1.641 0.512 2.543 c 0 0.906 -0.172 1.754 -0.512 2.547 c -0.344 0.793 -0.813 1.488 -1.406 2.078 c -0.598 0.59 -1.293 1.059 -2.086 1.406 c -0.793 0.348 -1.641 0.523 -2.543 0.523 l -0.555 0 l 1.941 -2.441 c 0.859 -0.293 1.563 -0.809 2.121 -1.551 c 0.555 -0.746 0.832 -1.605 0.832 -2.582 c 0 -0.594 -0.113 -1.156 -0.34 -1.691 c -0.227 -0.535 -0.531 -1 -0.918 -1.395 c -0.391 -0.395 -0.852 -0.707 -1.391 -0.934 c -0.539 -0.227 -1.105 -0.34 -1.691 -0.34 c -0.859 0 -1.641 0.227 -2.344 0.68 c -0.164 -0.707 -0.441 -1.367 -0.836 -1.98 c -0.391 -0.613 -0.871 -1.145 -1.441 -1.594 c -0.566 -0.449 -1.195 -0.805 -1.883 -1.063 c -0.688 -0.258 -1.422 -0.387 -2.195 -0.387 c -0.902 0 -1.754 0.172 -2.555 0.52 c -0.797 0.348 -1.492 0.82 -2.082 1.41 c -0.59 0.59 -1.055 1.281 -1.398 2.074 c -0.34 0.797 -0.512 1.645 -0.512 2.547 c 0 0.73 0.117 1.434 0.355 2.113 c 0.238 0.676 0.563 1.289 0.973 1.832 c 0.41 0.547 0.902 1.02 1.477 1.426 c 0.574 0.406 1.199 0.699 1.883 0.887 l -0.746 2.066 c -0.887 -0.289 -1.703 -0.699 -2.453 -1.234 c -0.75 -0.531 -1.402 -1.156 -1.949 -1.875 c -0.547 -0.719 -0.973 -1.523 -1.281 -2.418 c -0.309 -0.891 -0.465 -1.824 -0.465 -2.797 m 8.215 8.727 l 2.785 -7.449 l 5 0 l -3 5 l 4 0 l -7.152 9 l 1.961 -6.551 m -3.594 0" fill="#000" stroke="none" fill-rule="nonzero" fill-opacity="1"/></g></g></g></g></g><g><g clip-path="url(#clipPath-477960813)"><!-- color: #8d4cc4 --><g><path d="m 12 20.723 c 0 -1.203 0.227 -2.336 0.68 -3.398 c 0.453 -1.059 1.078 -1.984 1.875 -2.777 c 0.797 -0.793 1.723 -1.418 2.781 -1.871 c 1.059 -0.449 2.195 -0.676 3.418 -0.676 c 1.629 0 3.117 0.41 4.453 1.234 c 1.336 0.82 2.387 1.895 3.152 3.215 c 0.184 -0.023 0.367 -0.047 0.547 -0.07 c 0.18 -0.023 0.359 -0.035 0.547 -0.035 c 0.902 0 1.75 0.172 2.543 0.512 c 0.793 0.344 1.488 0.816 2.086 1.41 c 0.594 0.594 1.063 1.289 1.406 2.086 c 0.34 0.793 0.512 1.641 0.512 2.543 c 0 0.906 -0.172 1.754 -0.512 2.547 c -0.344 0.793 -0.813 1.488 -1.406 2.078 c -0.598 0.59 -1.293 1.059 -2.086 1.406 c -0.793 0.348 -1.641 0.523 -2.543 0.523 l -0.555 0 l 1.941 -2.441 c 0.859 -0.293 1.563 -0.809 2.121 -1.551 c 0.555 -0.746 0.832 -1.605 0.832 -2.582 c 0 -0.594 -0.113 -1.156 -0.34 -1.691 c -0.227 -0.535 -0.531 -1 -0.918 -1.395 c -0.391 -0.395 -0.852 -0.707 -1.391 -0.934 c -0.539 -0.227 -1.105 -0.34 -1.691 -0.34 c -0.859 0 -1.641 0.227 -2.344 0.68 c -0.164 -0.707 -0.441 -1.367 -0.836 -1.98 c -0.391 -0.613 -0.871 -1.145 -1.441 -1.594 c -0.566 -0.449 -1.195 -0.805 -1.883 -1.063 c -0.688 -0.258 -1.422 -0.387 -2.195 -0.387 c -0.902 0 -1.754 0.172 -2.555 0.52 c -0.797 0.348 -1.492 0.82 -2.082 1.41 c -0.59 0.59 -1.055 1.281 -1.398 2.074 c -0.34 0.797 -0.512 1.645 -0.512 2.547 c 0 0.73 0.117 1.434 0.355 2.113 c 0.238 0.676 0.563 1.289 0.973 1.832 c 0.41 0.547 0.902 1.02 1.477 1.426 c 0.574 0.406 1.199 0.699 1.883 0.887 l -0.746 2.066 c -0.887 -0.289 -1.703 -0.699 -2.453 -1.234 c -0.75 -0.531 -1.402 -1.156 -1.949 -1.875 c -0.547 -0.719 -0.973 -1.523 -1.281 -2.418 c -0.309 -0.891 -0.465 -1.824 -0.465 -2.797 m 8.215 8.727 l 2.785 -7.449 l 5 0 l -3 5 l 4 0 l -7.152 9 l 1.961 -6.551 m -3.594 0" fill="#fff" stroke="none" fill-rule="nonzero" fill-opacity="1"/></g></g></g><g><path d="m 20 4 -7.313 3.03 -5.656 5.656 -3.03 7.313 0 8 3.03 7.313 5.656 5.656 7.313 3.03 8 0 7.313 -3.03 5.656 -5.656 3.03 -7.313 0 -8 -3.03 -7.313 -5.656 -5.656 -7.313 -3.03 -8 0 z" clip-path="url(#clipPath4313)" transform="matrix(0,1,-1,0,48,0)" opacity="0.3" stroke-opacity="1" stroke-dasharray="none" visibility="visible" fill="none" display="inline" stroke="url(#linearGradient4375)" color="#000" stroke-width="1" stroke-miterlimit="4"/><path d="m 24 2.344 -4 1.656 -4.281 0 -3.03 3.03 l -4 1.656 -1.656 4 l -3.03 3.03 0 4.281 -1.656 4 1.656 4 l 0 4.281 3.03 3.03 1.656 4 4 1.656 l 3.03 3.03 4.281 0 4 1.656 4 -1.656 l 4.281 0 3.03 -3.03 4 -1.656 1.656 -4 l 3.03 -3.03 0 -4.281 1.656 -4 -1.656 -4 l 0 -4.281 -3.03 -3.03 -1.656 -4 -4 -1.656 l -3.03 -3.03 -4.281 0 -4 -1.656 z" clip-path="url(#clipPath4329)" opacity="0.2" stroke-opacity="1" visibility="visible" fill="none" display="inline" stroke="#000" color="#000" stroke-width="2"/></g></svg>