<svg viewBox="0 0 48 48" xmlns:xlink="http://www.w3.org/1999/xlink"><defs><clipPath clipPathUnits="userSpaceOnUse" id="clipPath4313"><path d="m 20 4 -7.313 3.03 -5.656 5.656 -3.03 7.313 0 8 3.03 7.313 5.656 5.656 7.313 3.03 8 0 7.313 -3.03 5.656 -5.656 3.03 -7.313 0 -8 -3.03 -7.313 -5.656 -5.656 -7.313 -3.03 -8 0 z"/></clipPath><clipPath clipPathUnits="userSpaceOnUse" id="clipPath4329"><path d="m 24 2.344 -4 1.656 -4.281 0 -3.03 3.03 l -4 1.656 -1.656 4 l -3.03 3.03 0 4.281 -1.656 4 1.656 4 l 0 4.281 3.03 3.03 1.656 4 4 1.656 l 3.03 3.03 4.281 0 4 1.656 4 -1.656 l 4.281 0 3.03 -3.03 4 -1.656 1.656 -4 l 3.03 -3.03 0 -4.281 1.656 -4 -1.656 -4 l 0 -4.281 -3.03 -3.03 -1.656 -4 -4 -1.656 l -3.03 -3.03 -4.281 0 -4 -1.656 z"/></clipPath><clipPath id="clipPath-693038887"><path d="m 24 2.344 l -4 1.656 l -4.281 0 l -3.03 3.03 l -4 1.656 l -1.656 4 l -3.03 3.03 l 0 4.281 l -1.656 4 l 1.656 4 l 0 4.281 l 3.03 3.03 l 1.656 4 l 4 1.656 l 3.03 3.03 l 4.281 0 l 4 1.656 l 4 -1.656 l 4.281 0 l 3.03 -3.03 l 4 -1.656 l 1.656 -4 l 3.03 -3.03 l 0 -4.281 l 1.656 -4 l -1.656 -4 l 0 -4.281 l -3.03 -3.03 l -1.656 -4 l -4 -1.656 l -3.03 -3.03 l -4.281 0 l -4 -1.656 z"/></clipPath><clipPath id="clipPath-698617832"><path d="m 24 2.344 l -4 1.656 l -4.281 0 l -3.03 3.03 l -4 1.656 l -1.656 4 l -3.03 3.03 l 0 4.281 l -1.656 4 l 1.656 4 l 0 4.281 l 3.03 3.03 l 1.656 4 l 4 1.656 l 3.03 3.03 l 4.281 0 l 4 1.656 l 4 -1.656 l 4.281 0 l 3.03 -3.03 l 4 -1.656 l 1.656 -4 l 3.03 -3.03 l 0 -4.281 l 1.656 -4 l -1.656 -4 l 0 -4.281 l -3.03 -3.03 l -1.656 -4 l -4 -1.656 l -3.03 -3.03 l -4.281 0 l -4 -1.656 z"/></clipPath><linearGradient id="linearGradient4317"><stop stop-color="#fff" stop-opacity="1"/><stop offset="1" stop-color="#fff" stop-opacity="0"/></linearGradient><clipPath clipPathUnits="userSpaceOnUse" id="clipPath4313"><path d="m 20 4 -7.313 3.03 -5.656 5.656 -3.03 7.313 0 8 3.03 7.313 5.656 5.656 7.313 3.03 8 0 7.313 -3.03 5.656 -5.656 3.03 -7.313 0 -8 -3.03 -7.313 -5.656 -5.656 -7.313 -3.03 -8 0 z"/></clipPath><linearGradient x2="44" x1="4" gradientUnits="userSpaceOnUse" id="linearGradient4375" xlink:href="#linearGradient4317"/><clipPath clipPathUnits="userSpaceOnUse" id="clipPath4329"><path d="m 24 2.344 -4 1.656 -4.281 0 -3.03 3.03 l -4 1.656 -1.656 4 l -3.03 3.03 0 4.281 -1.656 4 1.656 4 l 0 4.281 3.03 3.03 1.656 4 4 1.656 l 3.03 3.03 4.281 0 4 1.656 4 -1.656 l 4.281 0 3.03 -3.03 4 -1.656 1.656 -4 l 3.03 -3.03 0 -4.281 1.656 -4 -1.656 -4 l 0 -4.281 -3.03 -3.03 -1.656 -4 -4 -1.656 l -3.03 -3.03 -4.281 0 -4 -1.656 z"/></clipPath><path id="SVGCleanerId_0" d="m 24 2.344 l -4 1.656 l -4.281 0 l -3.03 3.03 l -4 1.656 l -1.656 4 l -3.03 3.03 l 0 4.281 l -1.656 4 l 1.656 4 l 0 4.281 l 3.03 3.03 l 1.656 4 l 4 1.656 l 3.03 3.03 l 4.281 0 l 4 1.656 l 4 -1.656 l 4.281 0 l 3.03 -3.03 l 4 -1.656 l 1.656 -4 l 3.03 -3.03 l 0 -4.281 l 1.656 -4 l -1.656 -4 l 0 -4.281 l -3.03 -3.03 l -1.656 -4 l -4 -1.656 l -3.03 -3.03 l -4.281 0 l -4 -1.656 z" visibility="visible" display="inline" fill-rule="nonzero" color="#000" fill-opacity="1"/></defs><g><path d="m 2.563 24.5 l -0.219 0.5 l 1.656 4 l 0 -1 l -1.438 -3.5 z m 42.875 0 l -1.438 3.5 l 0 1 l 1.656 -4 l -0.219 -0.5 z m -41.44 7.781 l 0 1 l 3.03 3.03 l 1.656 4 l 4 1.656 l 3.03 3.03 l 4.281 0 l 4 1.656 l 4 -1.656 l 4.281 0 l 3.03 -3.03 l 4 -1.656 l 1.656 -4 l 3.03 -3.03 l 0 -1 l -3.03 3.03 l -1.656 4 l -4 1.656 l -3.03 3.03 l -4.281 0 l -4 1.656 l -4 -1.656 l -4.281 0 l -3.03 -3.03 l -4 -1.656 l -1.656 -4 l -3.03 -3.03 z" opacity="0.3" visibility="visible" fill="#000" display="inline" fill-rule="nonzero" stroke="none" fill-opacity="1" color="#000"/></g><g><use fill="#676460" stroke="none" xlink:href="#SVGCleanerId_0"/><path d="m 24 2.344 l -4 1.656 l 8 0 l -4 -1.656 z m 4 1.656 l 7.313 3.03 l -3.03 -3.03 l -4.281 0 z m 7.313 3.03 l 5.656 5.656 l -1.656 -4 l -4 -1.656 z m 5.656 5.656 l 3.03 7.313 l 0 -4.281 l -3.03 -3.03 z m 3.03 7.313 l 0 8 l 1.656 -4 l -1.656 -4 z m 0 8 l -3.03 7.313 l 3.03 -3.03 l 0 -4.281 z m -3.03 7.313 l -5.656 5.656 l 4 -1.656 l 1.656 -4 z m -5.656 5.656 l -7.313 3.03 l 4.281 0 l 3.03 -3.03 z m -7.313 3.03 l -8 0 l 4 1.656 l 4 -1.656 z m -8 0 l -7.313 -3.03 l 3.03 3.03 l 4.281 0 z m -7.313 -3.03 l -5.656 -5.656 l 1.656 4 l 4 1.656 z m -5.656 -5.656 l -3.03 -7.313 l 0 4.281 l 3.03 3.03 z m -3.03 -7.313 l 0 -8 l -1.656 4 l 1.656 4 z m 0 -8 l 3.03 -7.313 l -3.03 3.03 l 0 4.281 z m 3.03 -7.313 l 5.656 -5.656 l -4 1.656 l -1.656 4 z m 5.656 -5.656 l 7.313 -3.03 l -4.281 0 l -3.03 3.03 z" opacity="0.05" visibility="visible" fill="#676460" display="inline" fill-rule="nonzero" stroke="none" fill-opacity="1" color="#000"/></g><g><use opacity="0.05" stroke-opacity="1" stroke-dasharray="none" fill="#000" stroke="#000" stroke-width="2" stroke-miterlimit="4" xlink:href="#SVGCleanerId_0"/><use opacity="0.1" stroke-opacity="1" stroke-dasharray="none" fill="#000" stroke="#000" stroke-width="1" stroke-miterlimit="4" xlink:href="#SVGCleanerId_0"/></g><g><g clip-path="url(#clipPath-693038887)"><g transform="translate(0,1)"><g opacity="0.1"><!-- color: #676460 --><g><path d="m 25.05 11.09 c -2.531 -0.324 -5.324 0.172 -7.488 1.75 c -1.078 0.789 -1.957 1.805 -2.457 3.02 c -0.504 1.219 -0.609 2.582 -0.223 3.891 c 0.289 0.992 0.887 1.895 1.563 2.625 c 0.676 0.727 1.418 1.297 2.234 1.75 c 1.629 0.91 3.359 1.367 4.805 1.75 c 1.438 0.387 2.625 0.68 3.578 1.168 c 0.914 0.473 1.664 1.121 1.902 1.75 c 0.16 0.434 0.164 1.063 0 1.555 c -0.172 0.5 -0.543 0.984 -1.012 1.363 c -0.93 0.758 -2.43 1.066 -3.914 0.973 c -2.113 -0.133 -4.195 -1.121 -5.473 -2.727 c -0.77 -0.992 -2.32 -1.254 -3.465 -0.582 c -1.141 0.672 -1.441 2.02 -0.672 3.02 c 2.137 2.676 5.574 4.34 9.27 4.57 c 2.641 0.164 5.461 -0.395 7.602 -2.141 c 1.066 -0.875 1.902 -2.023 2.348 -3.309 c 0.441 -1.293 0.5 -2.652 0 -3.992 c -0.723 -1.922 -2.352 -3.32 -4.02 -4.184 c -1.641 -0.848 -3.277 -1.273 -4.691 -1.656 c -1.41 -0.379 -2.664 -0.656 -3.578 -1.164 c -0.453 -0.25 -0.832 -0.57 -1.117 -0.875 c -0.277 -0.301 -0.469 -0.66 -0.559 -0.973 c -0.117 -0.406 -0.07 -0.922 0.113 -1.363 c 0.184 -0.445 0.563 -0.848 1.012 -1.164 c 0.875 -0.641 2.242 -0.949 3.578 -0.781 c 1.563 0.203 3.105 0.98 4.133 2.141 c 0.535 0.621 1.41 0.945 2.293 0.848 c 0.887 -0.102 1.641 -0.605 1.977 -1.324 c 0.332 -0.719 0.199 -1.543 -0.355 -2.145 c -1.805 -2.047 -4.465 -3.422 -7.375 -3.797 m -0.004 0.016" fill="#000" stroke="none" fill-rule="nonzero" fill-opacity="1"/></g></g></g></g></g><g><g clip-path="url(#clipPath-698617832)"><!-- color: #676460 --><g><path d="m 25.05 11.09 c -2.531 -0.324 -5.324 0.172 -7.488 1.75 c -1.078 0.789 -1.957 1.805 -2.457 3.02 c -0.504 1.219 -0.609 2.582 -0.223 3.891 c 0.289 0.992 0.887 1.895 1.563 2.625 c 0.676 0.727 1.418 1.297 2.234 1.75 c 1.629 0.91 3.359 1.367 4.805 1.75 c 1.438 0.387 2.625 0.68 3.578 1.168 c 0.914 0.473 1.664 1.121 1.902 1.75 c 0.16 0.434 0.164 1.063 0 1.555 c -0.172 0.5 -0.543 0.984 -1.012 1.363 c -0.93 0.758 -2.43 1.066 -3.914 0.973 c -2.113 -0.133 -4.195 -1.121 -5.473 -2.727 c -0.77 -0.992 -2.32 -1.254 -3.465 -0.582 c -1.141 0.672 -1.441 2.02 -0.672 3.02 c 2.137 2.676 5.574 4.34 9.27 4.57 c 2.641 0.164 5.461 -0.395 7.602 -2.141 c 1.066 -0.875 1.902 -2.023 2.348 -3.309 c 0.441 -1.293 0.5 -2.652 0 -3.992 c -0.723 -1.922 -2.352 -3.32 -4.02 -4.184 c -1.641 -0.848 -3.277 -1.273 -4.691 -1.656 c -1.41 -0.379 -2.664 -0.656 -3.578 -1.164 c -0.453 -0.25 -0.832 -0.57 -1.117 -0.875 c -0.277 -0.301 -0.469 -0.66 -0.559 -0.973 c -0.117 -0.406 -0.07 -0.922 0.113 -1.363 c 0.184 -0.445 0.563 -0.848 1.012 -1.164 c 0.875 -0.641 2.242 -0.949 3.578 -0.781 c 1.563 0.203 3.105 0.98 4.133 2.141 c 0.535 0.621 1.41 0.945 2.293 0.848 c 0.887 -0.102 1.641 -0.605 1.977 -1.324 c 0.332 -0.719 0.199 -1.543 -0.355 -2.145 c -1.805 -2.047 -4.465 -3.422 -7.375 -3.797 m -0.004 0.016" fill="#ff9c2f" stroke="none" fill-rule="nonzero" fill-opacity="1"/></g></g></g><g><path d="m 20 4 -7.313 3.03 -5.656 5.656 -3.03 7.313 0 8 3.03 7.313 5.656 5.656 7.313 3.03 8 0 7.313 -3.03 5.656 -5.656 3.03 -7.313 0 -8 -3.03 -7.313 -5.656 -5.656 -7.313 -3.03 -8 0 z" clip-path="url(#clipPath4313)" transform="matrix(0,1,-1,0,48,0)" opacity="0.3" stroke-opacity="1" stroke-dasharray="none" visibility="visible" fill="none" display="inline" stroke="url(#linearGradient4375)" color="#000" stroke-width="1" stroke-miterlimit="4"/><path d="m 24 2.344 -4 1.656 -4.281 0 -3.03 3.03 l -4 1.656 -1.656 4 l -3.03 3.03 0 4.281 -1.656 4 1.656 4 l 0 4.281 3.03 3.03 1.656 4 4 1.656 l 3.03 3.03 4.281 0 4 1.656 4 -1.656 l 4.281 0 3.03 -3.03 4 -1.656 1.656 -4 l 3.03 -3.03 0 -4.281 1.656 -4 -1.656 -4 l 0 -4.281 -3.03 -3.03 -1.656 -4 -4 -1.656 l -3.03 -3.03 -4.281 0 -4 -1.656 z" clip-path="url(#clipPath4329)" opacity="0.2" stroke-opacity="1" visibility="visible" fill="none" display="inline" stroke="#000" color="#000" stroke-width="2"/></g></svg>