<svg viewBox="0 0 48 48" xmlns:xlink="http://www.w3.org/1999/xlink"><defs><clipPath clipPathUnits="userSpaceOnUse" id="clipPath4313"><path d="m 20 4 -7.313 3.03 -5.656 5.656 -3.03 7.313 0 8 3.03 7.313 5.656 5.656 7.313 3.03 8 0 7.313 -3.03 5.656 -5.656 3.03 -7.313 0 -8 -3.03 -7.313 -5.656 -5.656 -7.313 -3.03 -8 0 z"/></clipPath><clipPath clipPathUnits="userSpaceOnUse" id="clipPath4329"><path d="m 24 2.344 -4 1.656 -4.281 0 -3.03 3.03 l -4 1.656 -1.656 4 l -3.03 3.03 0 4.281 -1.656 4 1.656 4 l 0 4.281 3.03 3.03 1.656 4 4 1.656 l 3.03 3.03 4.281 0 4 1.656 4 -1.656 l 4.281 0 3.03 -3.03 4 -1.656 1.656 -4 l 3.03 -3.03 0 -4.281 1.656 -4 -1.656 -4 l 0 -4.281 -3.03 -3.03 -1.656 -4 -4 -1.656 l -3.03 -3.03 -4.281 0 -4 -1.656 z"/></clipPath><clipPath id="clipPath-234853893"><path d="m 24 2.344 l -4 1.656 l -4.281 0 l -3.03 3.03 l -4 1.656 l -1.656 4 l -3.03 3.03 l 0 4.281 l -1.656 4 l 1.656 4 l 0 4.281 l 3.03 3.03 l 1.656 4 l 4 1.656 l 3.03 3.03 l 4.281 0 l 4 1.656 l 4 -1.656 l 4.281 0 l 3.03 -3.03 l 4 -1.656 l 1.656 -4 l 3.03 -3.03 l 0 -4.281 l 1.656 -4 l -1.656 -4 l 0 -4.281 l -3.03 -3.03 l -1.656 -4 l -4 -1.656 l -3.03 -3.03 l -4.281 0 l -4 -1.656 z"/></clipPath><clipPath id="clipPath-241676399"><path d="m 24 2.344 l -4 1.656 l -4.281 0 l -3.03 3.03 l -4 1.656 l -1.656 4 l -3.03 3.03 l 0 4.281 l -1.656 4 l 1.656 4 l 0 4.281 l 3.03 3.03 l 1.656 4 l 4 1.656 l 3.03 3.03 l 4.281 0 l 4 1.656 l 4 -1.656 l 4.281 0 l 3.03 -3.03 l 4 -1.656 l 1.656 -4 l 3.03 -3.03 l 0 -4.281 l 1.656 -4 l -1.656 -4 l 0 -4.281 l -3.03 -3.03 l -1.656 -4 l -4 -1.656 l -3.03 -3.03 l -4.281 0 l -4 -1.656 z"/></clipPath><linearGradient id="linearGradient4317"><stop stop-color="#fff" stop-opacity="1"/><stop offset="1" stop-color="#fff" stop-opacity="0"/></linearGradient><clipPath clipPathUnits="userSpaceOnUse" id="clipPath4313"><path d="m 20 4 -7.313 3.03 -5.656 5.656 -3.03 7.313 0 8 3.03 7.313 5.656 5.656 7.313 3.03 8 0 7.313 -3.03 5.656 -5.656 3.03 -7.313 0 -8 -3.03 -7.313 -5.656 -5.656 -7.313 -3.03 -8 0 z"/></clipPath><linearGradient x2="44" x1="4" gradientUnits="userSpaceOnUse" id="linearGradient4375" xlink:href="#linearGradient4317"/><clipPath clipPathUnits="userSpaceOnUse" id="clipPath4329"><path d="m 24 2.344 -4 1.656 -4.281 0 -3.03 3.03 l -4 1.656 -1.656 4 l -3.03 3.03 0 4.281 -1.656 4 1.656 4 l 0 4.281 3.03 3.03 1.656 4 4 1.656 l 3.03 3.03 4.281 0 4 1.656 4 -1.656 l 4.281 0 3.03 -3.03 4 -1.656 1.656 -4 l 3.03 -3.03 0 -4.281 1.656 -4 -1.656 -4 l 0 -4.281 -3.03 -3.03 -1.656 -4 -4 -1.656 l -3.03 -3.03 -4.281 0 -4 -1.656 z"/></clipPath><clipPath id="clip1"><path d="m 14 10 l 20 0 l 0 27 l -20 0 m 0 -27"/></clipPath><clipPath id="clip2"><path d="m 22.711 10.992 l 0 2.926 c -4.234 0.516 -7.668 3.555 -8.711 7.535 l 2.676 0 c 1.098 -2.875 4.01 -5.117 7.184 -5.094 c 0.078 -0.004 0.156 -0.004 0.23 -0.004 c 1.156 0.008 2.289 0.289 3.316 0.793 c 1.852 0.82 3.227 2.438 3.895 4.305 l 2.699 0 c -1.043 -3.98 -4.477 -7.02 -8.711 -7.535 l 0 -2.926 m -11.289 15.539 c 1.043 3.98 4.477 7.02 8.711 7.535 l 0 2.926 l 2.578 0 l 0 -2.926 c 4.234 -0.52 7.668 -3.555 8.711 -7.535 l -2.66 0 c -1.043 3.02 -4.27 5.203 -7.527 5.09 c -3.176 0.016 -6.05 -2.215 -7.129 -5.09 m -2.684 0"/></clipPath><clipPath id="clip3"><path d="m 18 18 l 12 0 l 0 12 l -12 0 m 0 -12"/></clipPath><clipPath id="clip4"><path d="m 24 18.34 c -3.141 0 -5.684 2.492 -5.684 5.59 c 0 0 -0.039 0.523 0.125 1.117 l 8.73 0 c -0.238 0.648 -0.66 1.23 -1.234 1.617 c -1.32 1.027 -3.32 0.652 -4.445 -0.496 l -2.703 0 c 0.879 1.973 2.879 3.352 5.211 3.352 c 3.141 0 5.684 -2.5 5.684 -5.59 c 0 0 0 -0.574 -0.113 -1.117 l -8.734 0 c 0.492 -1.223 1.668 -2.211 3.03 -2.223 c 0.066 -0.004 0.137 -0.004 0.203 -0.004 c 0.914 0.02 1.801 0.445 2.418 1.109 l 2.723 0 c -0.879 -1.973 -2.883 -3.355 -5.211 -3.355 m 0 0"/></clipPath><clipPath id="clip1"><path d="m 14 10 l 20 0 l 0 27 l -20 0 m 0 -27"/></clipPath><clipPath id="clip2"><path d="m 22.711 10.992 l 0 2.926 c -4.234 0.516 -7.668 3.555 -8.711 7.535 l 2.676 0 c 1.098 -2.875 4.01 -5.117 7.184 -5.094 c 0.078 -0.004 0.156 -0.004 0.23 -0.004 c 1.156 0.008 2.289 0.289 3.316 0.793 c 1.852 0.82 3.227 2.438 3.895 4.305 l 2.699 0 c -1.043 -3.98 -4.477 -7.02 -8.711 -7.535 l 0 -2.926 m -11.289 15.539 c 1.043 3.98 4.477 7.02 8.711 7.535 l 0 2.926 l 2.578 0 l 0 -2.926 c 4.234 -0.52 7.668 -3.555 8.711 -7.535 l -2.66 0 c -1.043 3.02 -4.27 5.203 -7.527 5.09 c -3.176 0.016 -6.05 -2.215 -7.129 -5.09 m -2.684 0"/></clipPath><clipPath id="clip3"><path d="m 18 18 l 12 0 l 0 12 l -12 0 m 0 -12"/></clipPath><clipPath id="clip4"><path d="m 24 18.34 c -3.141 0 -5.684 2.492 -5.684 5.59 c 0 0 -0.039 0.523 0.125 1.117 l 8.73 0 c -0.238 0.648 -0.66 1.23 -1.234 1.617 c -1.32 1.027 -3.32 0.652 -4.445 -0.496 l -2.703 0 c 0.879 1.973 2.879 3.352 5.211 3.352 c 3.141 0 5.684 -2.5 5.684 -5.59 c 0 0 0 -0.574 -0.113 -1.117 l -8.734 0 c 0.492 -1.223 1.668 -2.211 3.03 -2.223 c 0.066 -0.004 0.137 -0.004 0.203 -0.004 c 0.914 0.02 1.801 0.445 2.418 1.109 l 2.723 0 c -0.879 -1.973 -2.883 -3.355 -5.211 -3.355 m 0 0"/></clipPath><path id="SVGCleanerId_0" d="m 24 2.344 l -4 1.656 l -4.281 0 l -3.03 3.03 l -4 1.656 l -1.656 4 l -3.03 3.03 l 0 4.281 l -1.656 4 l 1.656 4 l 0 4.281 l 3.03 3.03 l 1.656 4 l 4 1.656 l 3.03 3.03 l 4.281 0 l 4 1.656 l 4 -1.656 l 4.281 0 l 3.03 -3.03 l 4 -1.656 l 1.656 -4 l 3.03 -3.03 l 0 -4.281 l 1.656 -4 l -1.656 -4 l 0 -4.281 l -3.03 -3.03 l -1.656 -4 l -4 -1.656 l -3.03 -3.03 l -4.281 0 l -4 -1.656 z" visibility="visible" display="inline" fill-rule="nonzero" color="#000" fill-opacity="1"/></defs><g><path d="m 2.563 24.5 l -0.219 0.5 l 1.656 4 l 0 -1 l -1.438 -3.5 z m 42.875 0 l -1.438 3.5 l 0 1 l 1.656 -4 l -0.219 -0.5 z m -41.44 7.781 l 0 1 l 3.03 3.03 l 1.656 4 l 4 1.656 l 3.03 3.03 l 4.281 0 l 4 1.656 l 4 -1.656 l 4.281 0 l 3.03 -3.03 l 4 -1.656 l 1.656 -4 l 3.03 -3.03 l 0 -1 l -3.03 3.03 l -1.656 4 l -4 1.656 l -3.03 3.03 l -4.281 0 l -4 1.656 l -4 -1.656 l -4.281 0 l -3.03 -3.03 l -4 -1.656 l -1.656 -4 l -3.03 -3.03 z" opacity="0.3" visibility="visible" fill="#000" display="inline" fill-rule="nonzero" stroke="none" fill-opacity="1" color="#000"/></g><g><use fill="#e3e3e3" stroke="none" xlink:href="#SVGCleanerId_0"/><path d="m 24 2.344 l -4 1.656 l 8 0 l -4 -1.656 z m 4 1.656 l 7.313 3.03 l -3.03 -3.03 l -4.281 0 z m 7.313 3.03 l 5.656 5.656 l -1.656 -4 l -4 -1.656 z m 5.656 5.656 l 3.03 7.313 l 0 -4.281 l -3.03 -3.03 z m 3.03 7.313 l 0 8 l 1.656 -4 l -1.656 -4 z m 0 8 l -3.03 7.313 l 3.03 -3.03 l 0 -4.281 z m -3.03 7.313 l -5.656 5.656 l 4 -1.656 l 1.656 -4 z m -5.656 5.656 l -7.313 3.03 l 4.281 0 l 3.03 -3.03 z m -7.313 3.03 l -8 0 l 4 1.656 l 4 -1.656 z m -8 0 l -7.313 -3.03 l 3.03 3.03 l 4.281 0 z m -7.313 -3.03 l -5.656 -5.656 l 1.656 4 l 4 1.656 z m -5.656 -5.656 l -3.03 -7.313 l 0 4.281 l 3.03 3.03 z m -3.03 -7.313 l 0 -8 l -1.656 4 l 1.656 4 z m 0 -8 l 3.03 -7.313 l -3.03 3.03 l 0 4.281 z m 3.03 -7.313 l 5.656 -5.656 l -4 1.656 l -1.656 4 z m 5.656 -5.656 l 7.313 -3.03 l -4.281 0 l -3.03 3.03 z" opacity="0.05" visibility="visible" fill="#e3e3e3" display="inline" fill-rule="nonzero" stroke="none" fill-opacity="1" color="#000"/></g><g><use opacity="0.05" stroke-opacity="1" stroke-dasharray="none" fill="#000" stroke="#000" stroke-width="2" stroke-miterlimit="4" xlink:href="#SVGCleanerId_0"/><use opacity="0.1" stroke-opacity="1" stroke-dasharray="none" fill="#000" stroke="#000" stroke-width="1" stroke-miterlimit="4" xlink:href="#SVGCleanerId_0"/></g><g><g clip-path="url(#clipPath-234853893)"><g transform="translate(0,1)"><g opacity="0.1"><!-- color: #e3e3e3 --><g><g clip-path="url(#clip1)"><g clip-path="url(#clip2)"><path d="m 22.711 10.992 l 0 2.926 c -4.234 0.516 -7.668 3.555 -8.711 7.535 l 2.676 0 c 1.098 -2.875 4.01 -5.117 7.184 -5.094 c 0.078 -0.004 0.156 -0.004 0.23 -0.004 c 1.156 0.008 2.289 0.289 3.316 0.793 c 1.852 0.82 3.227 2.438 3.895 4.305 l 2.699 0 c -1.043 -3.98 -4.477 -7.02 -8.711 -7.535 l 0 -2.926 m -11.289 15.539 c 1.043 3.98 4.477 7.02 8.711 7.535 l 0 2.926 l 2.578 0 l 0 -2.926 c 4.234 -0.52 7.668 -3.555 8.711 -7.535 l -2.66 0 c -1.043 3.02 -4.27 5.203 -7.527 5.09 c -3.176 0.016 -6.05 -2.215 -7.129 -5.09 m -2.684 0" fill="#000" stroke="none" fill-rule="nonzero" fill-opacity="1"/></g></g><g clip-path="url(#clip3)"><g clip-path="url(#clip4)"><path d="m 24 18.465 c -3.141 0 -5.684 2.492 -5.684 5.59 c 0 0 -0.039 0.523 0.125 1.117 l 8.73 0 c -0.238 0.648 -0.66 1.23 -1.234 1.617 c -1.32 1.027 -3.32 0.652 -4.445 -0.496 l -2.703 0 c 0.879 1.973 2.879 3.352 5.211 3.352 c 3.141 0 5.684 -2.5 5.684 -5.59 c 0 0 0 -0.574 -0.113 -1.117 l -8.734 0 c 0.492 -1.223 1.668 -2.211 3.03 -2.223 c 0.066 -0.004 0.137 -0.004 0.203 -0.004 c 0.914 0.02 1.801 0.445 2.418 1.109 l 2.723 0 c -0.879 -1.973 -2.883 -3.355 -5.211 -3.355 m 0 0" fill="#000" stroke="none" fill-rule="nonzero" fill-opacity="1"/></g></g></g></g></g></g></g><g><g clip-path="url(#clipPath-241676399)"><!-- color: #e3e3e3 --><g><g clip-path="url(#clip1)"><g clip-path="url(#clip2)"><path d="m 22.711 10.992 l 0 2.926 c -4.234 0.516 -7.668 3.555 -8.711 7.535 l 2.676 0 c 1.098 -2.875 4.01 -5.117 7.184 -5.094 c 0.078 -0.004 0.156 -0.004 0.23 -0.004 c 1.156 0.008 2.289 0.289 3.316 0.793 c 1.852 0.82 3.227 2.438 3.895 4.305 l 2.699 0 c -1.043 -3.98 -4.477 -7.02 -8.711 -7.535 l 0 -2.926 m -11.289 15.539 c 1.043 3.98 4.477 7.02 8.711 7.535 l 0 2.926 l 2.578 0 l 0 -2.926 c 4.234 -0.52 7.668 -3.555 8.711 -7.535 l -2.66 0 c -1.043 3.02 -4.27 5.203 -7.527 5.09 c -3.176 0.016 -6.05 -2.215 -7.129 -5.09 m -2.684 0" fill="#20b293" stroke="none" fill-rule="nonzero" fill-opacity="1"/></g></g><g clip-path="url(#clip3)"><g clip-path="url(#clip4)"><path d="m 24 18.465 c -3.141 0 -5.684 2.492 -5.684 5.59 c 0 0 -0.039 0.523 0.125 1.117 l 8.73 0 c -0.238 0.648 -0.66 1.23 -1.234 1.617 c -1.32 1.027 -3.32 0.652 -4.445 -0.496 l -2.703 0 c 0.879 1.973 2.879 3.352 5.211 3.352 c 3.141 0 5.684 -2.5 5.684 -5.59 c 0 0 0 -0.574 -0.113 -1.117 l -8.734 0 c 0.492 -1.223 1.668 -2.211 3.03 -2.223 c 0.066 -0.004 0.137 -0.004 0.203 -0.004 c 0.914 0.02 1.801 0.445 2.418 1.109 l 2.723 0 c -0.879 -1.973 -2.883 -3.355 -5.211 -3.355 m 0 0" fill="#20b293" stroke="none" fill-rule="nonzero" fill-opacity="1"/></g></g></g></g></g><g><path d="m 20 4 -7.313 3.03 -5.656 5.656 -3.03 7.313 0 8 3.03 7.313 5.656 5.656 7.313 3.03 8 0 7.313 -3.03 5.656 -5.656 3.03 -7.313 0 -8 -3.03 -7.313 -5.656 -5.656 -7.313 -3.03 -8 0 z" clip-path="url(#clipPath4313)" transform="matrix(0,1,-1,0,48,0)" opacity="0.3" stroke-opacity="1" stroke-dasharray="none" visibility="visible" fill="none" display="inline" stroke="url(#linearGradient4375)" color="#000" stroke-width="1" stroke-miterlimit="4"/><path d="m 24 2.344 -4 1.656 -4.281 0 -3.03 3.03 l -4 1.656 -1.656 4 l -3.03 3.03 0 4.281 -1.656 4 1.656 4 l 0 4.281 3.03 3.03 1.656 4 4 1.656 l 3.03 3.03 4.281 0 4 1.656 4 -1.656 l 4.281 0 3.03 -3.03 4 -1.656 1.656 -4 l 3.03 -3.03 0 -4.281 1.656 -4 -1.656 -4 l 0 -4.281 -3.03 -3.03 -1.656 -4 -4 -1.656 l -3.03 -3.03 -4.281 0 -4 -1.656 z" clip-path="url(#clipPath4329)" opacity="0.2" stroke-opacity="1" visibility="visible" fill="none" display="inline" stroke="#000" color="#000" stroke-width="2"/></g></svg>