<svg viewBox="0 0 48 48" xmlns:xlink="http://www.w3.org/1999/xlink"><defs><clipPath clipPathUnits="userSpaceOnUse" id="clipPath4313"><path d="m 20 4 -7.313 3.03 -5.656 5.656 -3.03 7.313 0 8 3.03 7.313 5.656 5.656 7.313 3.03 8 0 7.313 -3.03 5.656 -5.656 3.03 -7.313 0 -8 -3.03 -7.313 -5.656 -5.656 -7.313 -3.03 -8 0 z"/></clipPath><clipPath clipPathUnits="userSpaceOnUse" id="clipPath4329"><path d="m 24 2.344 -4 1.656 -4.281 0 -3.03 3.03 l -4 1.656 -1.656 4 l -3.03 3.03 0 4.281 -1.656 4 1.656 4 l 0 4.281 3.03 3.03 1.656 4 4 1.656 l 3.03 3.03 4.281 0 4 1.656 4 -1.656 l 4.281 0 3.03 -3.03 4 -1.656 1.656 -4 l 3.03 -3.03 0 -4.281 1.656 -4 -1.656 -4 l 0 -4.281 -3.03 -3.03 -1.656 -4 -4 -1.656 l -3.03 -3.03 -4.281 0 -4 -1.656 z"/></clipPath><clipPath id="clipPath-350594168"><path d="m 24 2.344 l -4 1.656 l -4.281 0 l -3.03 3.03 l -4 1.656 l -1.656 4 l -3.03 3.03 l 0 4.281 l -1.656 4 l 1.656 4 l 0 4.281 l 3.03 3.03 l 1.656 4 l 4 1.656 l 3.03 3.03 l 4.281 0 l 4 1.656 l 4 -1.656 l 4.281 0 l 3.03 -3.03 l 4 -1.656 l 1.656 -4 l 3.03 -3.03 l 0 -4.281 l 1.656 -4 l -1.656 -4 l 0 -4.281 l -3.03 -3.03 l -1.656 -4 l -4 -1.656 l -3.03 -3.03 l -4.281 0 l -4 -1.656 z"/></clipPath><clipPath id="clipPath-361089536"><path d="m 24 2.344 l -4 1.656 l -4.281 0 l -3.03 3.03 l -4 1.656 l -1.656 4 l -3.03 3.03 l 0 4.281 l -1.656 4 l 1.656 4 l 0 4.281 l 3.03 3.03 l 1.656 4 l 4 1.656 l 3.03 3.03 l 4.281 0 l 4 1.656 l 4 -1.656 l 4.281 0 l 3.03 -3.03 l 4 -1.656 l 1.656 -4 l 3.03 -3.03 l 0 -4.281 l 1.656 -4 l -1.656 -4 l 0 -4.281 l -3.03 -3.03 l -1.656 -4 l -4 -1.656 l -3.03 -3.03 l -4.281 0 l -4 -1.656 z"/></clipPath><linearGradient id="linearGradient4317"><stop stop-color="#fff" stop-opacity="1"/><stop offset="1" stop-color="#fff" stop-opacity="0"/></linearGradient><clipPath clipPathUnits="userSpaceOnUse" id="clipPath4313"><path d="m 20 4 -7.313 3.03 -5.656 5.656 -3.03 7.313 0 8 3.03 7.313 5.656 5.656 7.313 3.03 8 0 7.313 -3.03 5.656 -5.656 3.03 -7.313 0 -8 -3.03 -7.313 -5.656 -5.656 -7.313 -3.03 -8 0 z"/></clipPath><linearGradient x2="44" x1="4" gradientUnits="userSpaceOnUse" id="linearGradient4375" xlink:href="#linearGradient4317"/><clipPath clipPathUnits="userSpaceOnUse" id="clipPath4329"><path d="m 24 2.344 -4 1.656 -4.281 0 -3.03 3.03 l -4 1.656 -1.656 4 l -3.03 3.03 0 4.281 -1.656 4 1.656 4 l 0 4.281 3.03 3.03 1.656 4 4 1.656 l 3.03 3.03 4.281 0 4 1.656 4 -1.656 l 4.281 0 3.03 -3.03 4 -1.656 1.656 -4 l 3.03 -3.03 0 -4.281 1.656 -4 -1.656 -4 l 0 -4.281 -3.03 -3.03 -1.656 -4 -4 -1.656 l -3.03 -3.03 -4.281 0 -4 -1.656 z"/></clipPath><path id="SVGCleanerId_0" d="m 24 2.344 l -4 1.656 l -4.281 0 l -3.03 3.03 l -4 1.656 l -1.656 4 l -3.03 3.03 l 0 4.281 l -1.656 4 l 1.656 4 l 0 4.281 l 3.03 3.03 l 1.656 4 l 4 1.656 l 3.03 3.03 l 4.281 0 l 4 1.656 l 4 -1.656 l 4.281 0 l 3.03 -3.03 l 4 -1.656 l 1.656 -4 l 3.03 -3.03 l 0 -4.281 l 1.656 -4 l -1.656 -4 l 0 -4.281 l -3.03 -3.03 l -1.656 -4 l -4 -1.656 l -3.03 -3.03 l -4.281 0 l -4 -1.656 z" visibility="visible" display="inline" fill-rule="nonzero" color="#000" fill-opacity="1"/></defs><g><path d="m 2.563 24.5 l -0.219 0.5 l 1.656 4 l 0 -1 l -1.438 -3.5 z m 42.875 0 l -1.438 3.5 l 0 1 l 1.656 -4 l -0.219 -0.5 z m -41.44 7.781 l 0 1 l 3.03 3.03 l 1.656 4 l 4 1.656 l 3.03 3.03 l 4.281 0 l 4 1.656 l 4 -1.656 l 4.281 0 l 3.03 -3.03 l 4 -1.656 l 1.656 -4 l 3.03 -3.03 l 0 -1 l -3.03 3.03 l -1.656 4 l -4 1.656 l -3.03 3.03 l -4.281 0 l -4 1.656 l -4 -1.656 l -4.281 0 l -3.03 -3.03 l -4 -1.656 l -1.656 -4 l -3.03 -3.03 z" opacity="0.3" visibility="visible" fill="#000" display="inline" fill-rule="nonzero" stroke="none" fill-opacity="1" color="#000"/></g><g><use fill="#63acdd" stroke="none" xlink:href="#SVGCleanerId_0"/><path d="m 24 2.344 l -4 1.656 l 8 0 l -4 -1.656 z m 4 1.656 l 7.313 3.03 l -3.03 -3.03 l -4.281 0 z m 7.313 3.03 l 5.656 5.656 l -1.656 -4 l -4 -1.656 z m 5.656 5.656 l 3.03 7.313 l 0 -4.281 l -3.03 -3.03 z m 3.03 7.313 l 0 8 l 1.656 -4 l -1.656 -4 z m 0 8 l -3.03 7.313 l 3.03 -3.03 l 0 -4.281 z m -3.03 7.313 l -5.656 5.656 l 4 -1.656 l 1.656 -4 z m -5.656 5.656 l -7.313 3.03 l 4.281 0 l 3.03 -3.03 z m -7.313 3.03 l -8 0 l 4 1.656 l 4 -1.656 z m -8 0 l -7.313 -3.03 l 3.03 3.03 l 4.281 0 z m -7.313 -3.03 l -5.656 -5.656 l 1.656 4 l 4 1.656 z m -5.656 -5.656 l -3.03 -7.313 l 0 4.281 l 3.03 3.03 z m -3.03 -7.313 l 0 -8 l -1.656 4 l 1.656 4 z m 0 -8 l 3.03 -7.313 l -3.03 3.03 l 0 4.281 z m 3.03 -7.313 l 5.656 -5.656 l -4 1.656 l -1.656 4 z m 5.656 -5.656 l 7.313 -3.03 l -4.281 0 l -3.03 3.03 z" opacity="0.05" visibility="visible" fill="#63acdd" display="inline" fill-rule="nonzero" stroke="none" fill-opacity="1" color="#000"/></g><g><use opacity="0.05" stroke-opacity="1" stroke-dasharray="none" fill="#000" stroke="#000" stroke-width="2" stroke-miterlimit="4" xlink:href="#SVGCleanerId_0"/><use opacity="0.1" stroke-opacity="1" stroke-dasharray="none" fill="#000" stroke="#000" stroke-width="1" stroke-miterlimit="4" xlink:href="#SVGCleanerId_0"/></g><g><g clip-path="url(#clipPath-350594168)"><g transform="translate(0,1)"><g opacity="0.1"><!-- color: #63acdd --><g><path d="m 22.781 28.16 l -5.328 -6.406 l -0.637 -6.555 l 7.684 -2.105 l 5.066 1.543 l 1.785 3.953 l -1.391 2.664 l -6.191 6.973 m -0.988 -0.066" fill="#000" stroke="none" fill-rule="nonzero" fill-opacity="0.941"/><path d="m 10 37 l 28 0 l 0 -2.152 c -0.734 -3.234 -4.488 -6.953 -9.172 -8.867 l -3.059 2.969 l -0.965 -0.641 l -2.684 -0.059 l -0.859 0.988 l -3.25 -3.223 c -3.582 1.578 -7.273 5.03 -8.01 8.828 m 0 2.156" fill="#000" stroke="none" fill-rule="nonzero" fill-opacity="1"/><path d="m 23.41 11.512 c 3.109 0 5.633 2.621 5.633 5.852 l 0 2.641 c 0 3.23 -2.523 5.848 -5.633 5.848 c -3.113 0 -5.637 -2.617 -5.637 -5.848 l 0 -2.641 c 0 -3.23 2.523 -5.852 5.637 -5.852 m 0 0" fill="#000" stroke="none" fill-rule="nonzero" fill-opacity="1"/><path d="m 27.324 24.23 c 0.605 -0.594 2.156 -1.84 2.324 -2.66 l -0.059 -4.707 l -8.969 -3.332 l -1.457 1.234 l -2.418 3.148 l 0.594 3.551 l 0.313 0.91 l 1.828 1.848 m 7.844 0.008" fill="#000" stroke="none" fill-rule="nonzero" fill-opacity="1"/><path d="m 17.699 22.391 l 0 -4.383 c 0.445 -1.914 2.301 -3.852 3.223 -3.828 c 1.578 0.199 2.68 1.598 3.625 2.953 c 1.188 1.012 4.152 1.07 4.926 0 c 0 1.633 0 3.27 0 4.906 c 0.879 -0.344 1.977 -1.652 2.164 -2.777 c -0.223 -13.594 -15.445 -13.34 -15.859 -1.254 c 0.129 1.52 1.039 3.664 1.922 4.383 m 0 0" fill="#000" stroke="none" fill-rule="nonzero" fill-opacity="1"/><path d="m 23.414 28.27 l 3.914 -4.059 l 1.957 2.031 l -3.914 4.059 m -1.957 -2.031" fill="#000" stroke="none" fill-rule="nonzero" fill-opacity="1"/><path d="m 19.496 24.22 l 3.918 4.055 l -1.961 2.031 l -3.914 -4.059 m 1.957 -2.027" fill="#000" stroke="none" fill-rule="nonzero" fill-opacity="1"/></g></g></g></g></g><g><g clip-path="url(#clipPath-361089536)"><!-- color: #63acdd --><g><path d="m 22.781 28.16 l -5.328 -6.406 l -0.637 -6.555 l 7.684 -2.105 l 5.066 1.543 l 1.785 3.953 l -1.391 2.664 l -6.191 6.973 m -0.988 -0.066" fill="#cf8e92" stroke="none" fill-rule="nonzero" fill-opacity="0.941"/><path d="m 10 37 l 28 0 l 0 -2.152 c -0.734 -3.234 -4.488 -6.953 -9.172 -8.867 l -3.059 2.969 l -0.965 -0.641 l -2.684 -0.059 l -0.859 0.988 l -3.25 -3.223 c -3.582 1.578 -7.273 5.03 -8.01 8.828 m 0 2.156" fill="#cf362d" stroke="none" fill-rule="nonzero" fill-opacity="1"/><path d="m 23.41 11.512 c 3.109 0 5.633 2.621 5.633 5.852 l 0 2.641 c 0 3.23 -2.523 5.848 -5.633 5.848 c -3.113 0 -5.637 -2.617 -5.637 -5.848 l 0 -2.641 c 0 -3.23 2.523 -5.852 5.637 -5.852 m 0 0" fill="#ffcdce" stroke="none" fill-rule="nonzero" fill-opacity="1"/><path d="m 27.324 24.23 c 0.605 -0.594 2.156 -1.84 2.324 -2.66 l -0.059 -4.707 l -8.969 -3.332 l -1.457 1.234 l -2.418 3.148 l 0.594 3.551 l 0.313 0.91 l 1.828 1.848 m 7.844 0.008" fill="#ffcdce" stroke="none" fill-rule="nonzero" fill-opacity="1"/><path d="m 17.699 22.391 l 0 -4.383 c 0.445 -1.914 2.301 -3.852 3.223 -3.828 c 1.578 0.199 2.68 1.598 3.625 2.953 c 1.188 1.012 4.152 1.07 4.926 0 c 0 1.633 0 3.27 0 4.906 c 0.879 -0.344 1.977 -1.652 2.164 -2.777 c -0.223 -13.594 -15.445 -13.34 -15.859 -1.254 c 0.129 1.52 1.039 3.664 1.922 4.383 m 0 0" fill="#d0362d" stroke="none" fill-rule="nonzero" fill-opacity="1"/><path d="m 23.414 28.27 l 3.914 -4.059 l 1.957 2.031 l -3.914 4.059 m -1.957 -2.031" fill="#b2d4cf" stroke="none" fill-rule="nonzero" fill-opacity="1"/><path d="m 19.496 24.22 l 3.918 4.055 l -1.961 2.031 l -3.914 -4.059 m 1.957 -2.027" fill="#b2d4cf" stroke="none" fill-rule="nonzero" fill-opacity="1"/></g></g></g><g><path d="m 20 4 -7.313 3.03 -5.656 5.656 -3.03 7.313 0 8 3.03 7.313 5.656 5.656 7.313 3.03 8 0 7.313 -3.03 5.656 -5.656 3.03 -7.313 0 -8 -3.03 -7.313 -5.656 -5.656 -7.313 -3.03 -8 0 z" clip-path="url(#clipPath4313)" transform="matrix(0,1,-1,0,48,0)" opacity="0.3" stroke-opacity="1" stroke-dasharray="none" visibility="visible" fill="none" display="inline" stroke="url(#linearGradient4375)" color="#000" stroke-width="1" stroke-miterlimit="4"/><path d="m 24 2.344 -4 1.656 -4.281 0 -3.03 3.03 l -4 1.656 -1.656 4 l -3.03 3.03 0 4.281 -1.656 4 1.656 4 l 0 4.281 3.03 3.03 1.656 4 4 1.656 l 3.03 3.03 4.281 0 4 1.656 4 -1.656 l 4.281 0 3.03 -3.03 4 -1.656 1.656 -4 l 3.03 -3.03 0 -4.281 1.656 -4 -1.656 -4 l 0 -4.281 -3.03 -3.03 -1.656 -4 -4 -1.656 l -3.03 -3.03 -4.281 0 -4 -1.656 z" clip-path="url(#clipPath4329)" opacity="0.2" stroke-opacity="1" visibility="visible" fill="none" display="inline" stroke="#000" color="#000" stroke-width="2"/></g></svg>