<svg viewBox="0 0 48 48" xmlns:xlink="http://www.w3.org/1999/xlink"><defs><clipPath clipPathUnits="userSpaceOnUse" id="clipPath4313"><path d="m 20 4 -7.313 3.03 -5.656 5.656 -3.03 7.313 0 8 3.03 7.313 5.656 5.656 7.313 3.03 8 0 7.313 -3.03 5.656 -5.656 3.03 -7.313 0 -8 -3.03 -7.313 -5.656 -5.656 -7.313 -3.03 -8 0 z"/></clipPath><clipPath clipPathUnits="userSpaceOnUse" id="clipPath4329"><path d="m 24 2.344 -4 1.656 -4.281 0 -3.03 3.03 l -4 1.656 -1.656 4 l -3.03 3.03 0 4.281 -1.656 4 1.656 4 l 0 4.281 3.03 3.03 1.656 4 4 1.656 l 3.03 3.03 4.281 0 4 1.656 4 -1.656 l 4.281 0 3.03 -3.03 4 -1.656 1.656 -4 l 3.03 -3.03 0 -4.281 1.656 -4 -1.656 -4 l 0 -4.281 -3.03 -3.03 -1.656 -4 -4 -1.656 l -3.03 -3.03 -4.281 0 -4 -1.656 z"/></clipPath><clipPath id="clipPath-659465969"><path d="m 24 2.344 l -4 1.656 l -4.281 0 l -3.03 3.03 l -4 1.656 l -1.656 4 l -3.03 3.03 l 0 4.281 l -1.656 4 l 1.656 4 l 0 4.281 l 3.03 3.03 l 1.656 4 l 4 1.656 l 3.03 3.03 l 4.281 0 l 4 1.656 l 4 -1.656 l 4.281 0 l 3.03 -3.03 l 4 -1.656 l 1.656 -4 l 3.03 -3.03 l 0 -4.281 l 1.656 -4 l -1.656 -4 l 0 -4.281 l -3.03 -3.03 l -1.656 -4 l -4 -1.656 l -3.03 -3.03 l -4.281 0 l -4 -1.656 z"/></clipPath><clipPath id="clipPath-671505966"><path d="m 24 2.344 l -4 1.656 l -4.281 0 l -3.03 3.03 l -4 1.656 l -1.656 4 l -3.03 3.03 l 0 4.281 l -1.656 4 l 1.656 4 l 0 4.281 l 3.03 3.03 l 1.656 4 l 4 1.656 l 3.03 3.03 l 4.281 0 l 4 1.656 l 4 -1.656 l 4.281 0 l 3.03 -3.03 l 4 -1.656 l 1.656 -4 l 3.03 -3.03 l 0 -4.281 l 1.656 -4 l -1.656 -4 l 0 -4.281 l -3.03 -3.03 l -1.656 -4 l -4 -1.656 l -3.03 -3.03 l -4.281 0 l -4 -1.656 z"/></clipPath><linearGradient id="linearGradient4317"><stop stop-color="#fff" stop-opacity="1"/><stop offset="1" stop-color="#fff" stop-opacity="0"/></linearGradient><clipPath clipPathUnits="userSpaceOnUse" id="clipPath4313"><path d="m 20 4 -7.313 3.03 -5.656 5.656 -3.03 7.313 0 8 3.03 7.313 5.656 5.656 7.313 3.03 8 0 7.313 -3.03 5.656 -5.656 3.03 -7.313 0 -8 -3.03 -7.313 -5.656 -5.656 -7.313 -3.03 -8 0 z"/></clipPath><linearGradient x2="44" x1="4" gradientUnits="userSpaceOnUse" id="linearGradient4375" xlink:href="#linearGradient4317"/><clipPath clipPathUnits="userSpaceOnUse" id="clipPath4329"><path d="m 24 2.344 -4 1.656 -4.281 0 -3.03 3.03 l -4 1.656 -1.656 4 l -3.03 3.03 0 4.281 -1.656 4 1.656 4 l 0 4.281 3.03 3.03 1.656 4 4 1.656 l 3.03 3.03 4.281 0 4 1.656 4 -1.656 l 4.281 0 3.03 -3.03 4 -1.656 1.656 -4 l 3.03 -3.03 0 -4.281 1.656 -4 -1.656 -4 l 0 -4.281 -3.03 -3.03 -1.656 -4 -4 -1.656 l -3.03 -3.03 -4.281 0 -4 -1.656 z"/></clipPath><path id="SVGCleanerId_0" d="m 24 2.344 l -4 1.656 l -4.281 0 l -3.03 3.03 l -4 1.656 l -1.656 4 l -3.03 3.03 l 0 4.281 l -1.656 4 l 1.656 4 l 0 4.281 l 3.03 3.03 l 1.656 4 l 4 1.656 l 3.03 3.03 l 4.281 0 l 4 1.656 l 4 -1.656 l 4.281 0 l 3.03 -3.03 l 4 -1.656 l 1.656 -4 l 3.03 -3.03 l 0 -4.281 l 1.656 -4 l -1.656 -4 l 0 -4.281 l -3.03 -3.03 l -1.656 -4 l -4 -1.656 l -3.03 -3.03 l -4.281 0 l -4 -1.656 z" visibility="visible" display="inline" fill-rule="nonzero" color="#000" fill-opacity="1"/></defs><g><path d="m 2.563 24.5 l -0.219 0.5 l 1.656 4 l 0 -1 l -1.438 -3.5 z m 42.875 0 l -1.438 3.5 l 0 1 l 1.656 -4 l -0.219 -0.5 z m -41.44 7.781 l 0 1 l 3.03 3.03 l 1.656 4 l 4 1.656 l 3.03 3.03 l 4.281 0 l 4 1.656 l 4 -1.656 l 4.281 0 l 3.03 -3.03 l 4 -1.656 l 1.656 -4 l 3.03 -3.03 l 0 -1 l -3.03 3.03 l -1.656 4 l -4 1.656 l -3.03 3.03 l -4.281 0 l -4 1.656 l -4 -1.656 l -4.281 0 l -3.03 -3.03 l -4 -1.656 l -1.656 -4 l -3.03 -3.03 z" opacity="0.3" visibility="visible" fill="#000" display="inline" fill-rule="nonzero" stroke="none" fill-opacity="1" color="#000"/></g><g><use fill="#f7d9cc" stroke="none" xlink:href="#SVGCleanerId_0"/><path d="m 24 2.344 l -4 1.656 l 8 0 l -4 -1.656 z m 4 1.656 l 7.313 3.03 l -3.03 -3.03 l -4.281 0 z m 7.313 3.03 l 5.656 5.656 l -1.656 -4 l -4 -1.656 z m 5.656 5.656 l 3.03 7.313 l 0 -4.281 l -3.03 -3.03 z m 3.03 7.313 l 0 8 l 1.656 -4 l -1.656 -4 z m 0 8 l -3.03 7.313 l 3.03 -3.03 l 0 -4.281 z m -3.03 7.313 l -5.656 5.656 l 4 -1.656 l 1.656 -4 z m -5.656 5.656 l -7.313 3.03 l 4.281 0 l 3.03 -3.03 z m -7.313 3.03 l -8 0 l 4 1.656 l 4 -1.656 z m -8 0 l -7.313 -3.03 l 3.03 3.03 l 4.281 0 z m -7.313 -3.03 l -5.656 -5.656 l 1.656 4 l 4 1.656 z m -5.656 -5.656 l -3.03 -7.313 l 0 4.281 l 3.03 3.03 z m -3.03 -7.313 l 0 -8 l -1.656 4 l 1.656 4 z m 0 -8 l 3.03 -7.313 l -3.03 3.03 l 0 4.281 z m 3.03 -7.313 l 5.656 -5.656 l -4 1.656 l -1.656 4 z m 5.656 -5.656 l 7.313 -3.03 l -4.281 0 l -3.03 3.03 z" opacity="0.05" visibility="visible" fill="#f7d9cc" display="inline" fill-rule="nonzero" stroke="none" fill-opacity="1" color="#000"/></g><g><use opacity="0.05" stroke-opacity="1" stroke-dasharray="none" fill="#000" stroke="#000" stroke-width="2" stroke-miterlimit="4" xlink:href="#SVGCleanerId_0"/><use opacity="0.1" stroke-opacity="1" stroke-dasharray="none" fill="#000" stroke="#000" stroke-width="1" stroke-miterlimit="4" xlink:href="#SVGCleanerId_0"/></g><g><g clip-path="url(#clipPath-659465969)"><g transform="translate(0,1)"><g opacity="0.1"><!-- color: #f7d9cce --><g><path d="m 20.2 17.02 l -8.938 0 l -0.262 3.441 l 0.277 0 c 0.199 -2.578 0.422 -3.03 2.82 -3.03 c 0.277 0 0.73 0 0.855 0 c 0.297 0.047 0.297 0.238 0.297 0.594 l 0 8.473 c 0 0.566 -0.047 0.734 -1.352 0.734 l -0.441 0 l 0 0.375 c 0.746 -0.016 1.52 -0.031 2.277 -0.031 c 0.758 0 1.535 0.023 2.277 0.031 l 0 -0.375 l -0.441 0 c -1.285 0 -1.332 -0.172 -1.332 -0.734 l 0 -8.473 c 0 -0.344 0 -0.527 0.281 -0.594 l 0.848 0 c 2.367 0 2.605 0.449 2.809 3.03 l 0.27 0" fill="#000" stroke="none" fill-rule="nonzero" fill-opacity="1"/><path d="m 27.969 27.07 l -0.277 0 c -0.34 2.309 -0.543 3.563 -3.266 3.563 l -2.148 0 c -0.617 0 -0.645 -0.078 -0.645 -0.613 l 0 -4.352 l 1.457 0 c 1.461 0 1.602 0.539 1.602 1.852 l 0.25 0 l 0 -4.047 l -0.25 0 c 0 1.289 -0.141 1.82 -1.602 1.82 l -1.457 0 l 0 -3.859 c 0 -0.523 0.027 -0.602 0.645 -0.602 l 2.117 0 c 2.395 0 2.676 0.957 2.891 3.01 l 0.281 0 l -0.371 -3.441 l -7.84 0 l 0 0.43 c 1.098 0 1.273 0 1.273 0.699 l 0 8.398 c 0 0.699 -0.176 0.699 -1.273 0.699 l 0 0.375 l 8.05 0" fill="#000" stroke="none" fill-rule="nonzero" fill-opacity="1"/><path d="m 32.14 21.719 l 2.289 -3.328 c 0.23 -0.324 0.699 -0.996 1.969 -1.016 l 0 -0.375 c -0.355 0.031 -0.945 0.031 -1.316 0.031 c -0.508 0 -1.145 0 -1.531 -0.031 l 0 0.375 c 0.496 0.047 0.621 0.359 0.621 0.609 c 0 0.188 -0.078 0.313 -0.188 0.465 l -2.043 2.98 l -2.289 -3.367 c -0.109 -0.172 -0.125 -0.219 -0.125 -0.266 c 0 -0.141 0.168 -0.406 0.684 -0.422 l 0 -0.375 c -0.496 0.031 -1.25 0.031 -1.766 0.031 c -0.398 0 -1.172 0 -1.547 -0.031 l 0 0.375 c 0.852 0 1.129 0.031 1.469 0.516 l 2.988 4.41 l -2.695 3.957 c -0.664 0.965 -1.668 0.984 -1.965 0.984 l 0 0.375 c 0.355 -0.031 0.941 -0.031 1.316 -0.031 c 0.414 0 1.145 0 1.527 0.031 l 0 -0.375 c -0.477 -0.047 -0.617 -0.359 -0.617 -0.609 c 0 -0.203 0.078 -0.313 0.156 -0.422 l 2.477 -3.633 l 2.691 3.977 c 0.121 0.172 0.121 0.219 0.121 0.266 c 0 0.125 -0.137 0.391 -0.68 0.422 l 0 0.379 c 0.496 -0.031 1.25 -0.031 1.762 -0.031 c 0.402 0 1.176 0 1.551 0.031 l 0 -0.379 c -0.992 0 -1.148 -0.074 -1.453 -0.516" fill="#000" stroke="none" fill-rule="nonzero" fill-opacity="1"/></g></g></g></g></g><g><g clip-path="url(#clipPath-671505966)"><!-- color: #f7d9cce --><g><path d="m 20.2 17.02 l -8.938 0 l -0.262 3.441 l 0.277 0 c 0.199 -2.578 0.422 -3.03 2.82 -3.03 c 0.277 0 0.73 0 0.855 0 c 0.297 0.047 0.297 0.238 0.297 0.594 l 0 8.473 c 0 0.566 -0.047 0.734 -1.352 0.734 l -0.441 0 l 0 0.375 c 0.746 -0.016 1.52 -0.031 2.277 -0.031 c 0.758 0 1.535 0.023 2.277 0.031 l 0 -0.375 l -0.441 0 c -1.285 0 -1.332 -0.172 -1.332 -0.734 l 0 -8.473 c 0 -0.344 0 -0.527 0.281 -0.594 l 0.848 0 c 2.367 0 2.605 0.449 2.809 3.03 l 0.27 0" fill="#fff" stroke="none" fill-rule="nonzero" fill-opacity="1"/><path d="m 27.969 27.07 l -0.277 0 c -0.34 2.309 -0.543 3.563 -3.266 3.563 l -2.148 0 c -0.617 0 -0.645 -0.078 -0.645 -0.613 l 0 -4.352 l 1.457 0 c 1.461 0 1.602 0.539 1.602 1.852 l 0.25 0 l 0 -4.047 l -0.25 0 c 0 1.289 -0.141 1.82 -1.602 1.82 l -1.457 0 l 0 -3.859 c 0 -0.523 0.027 -0.602 0.645 -0.602 l 2.117 0 c 2.395 0 2.676 0.957 2.891 3.01 l 0.281 0 l -0.371 -3.441 l -7.84 0 l 0 0.43 c 1.098 0 1.273 0 1.273 0.699 l 0 8.398 c 0 0.699 -0.176 0.699 -1.273 0.699 l 0 0.375 l 8.05 0" fill="#fff" stroke="none" fill-rule="nonzero" fill-opacity="1"/><path d="m 32.14 21.719 l 2.289 -3.328 c 0.23 -0.324 0.699 -0.996 1.969 -1.016 l 0 -0.375 c -0.355 0.031 -0.945 0.031 -1.316 0.031 c -0.508 0 -1.145 0 -1.531 -0.031 l 0 0.375 c 0.496 0.047 0.621 0.359 0.621 0.609 c 0 0.188 -0.078 0.313 -0.188 0.465 l -2.043 2.98 l -2.289 -3.367 c -0.109 -0.172 -0.125 -0.219 -0.125 -0.266 c 0 -0.141 0.168 -0.406 0.684 -0.422 l 0 -0.375 c -0.496 0.031 -1.25 0.031 -1.766 0.031 c -0.398 0 -1.172 0 -1.547 -0.031 l 0 0.375 c 0.852 0 1.129 0.031 1.469 0.516 l 2.988 4.41 l -2.695 3.957 c -0.664 0.965 -1.668 0.984 -1.965 0.984 l 0 0.375 c 0.355 -0.031 0.941 -0.031 1.316 -0.031 c 0.414 0 1.145 0 1.527 0.031 l 0 -0.375 c -0.477 -0.047 -0.617 -0.359 -0.617 -0.609 c 0 -0.203 0.078 -0.313 0.156 -0.422 l 2.477 -3.633 l 2.691 3.977 c 0.121 0.172 0.121 0.219 0.121 0.266 c 0 0.125 -0.137 0.391 -0.68 0.422 l 0 0.379 c 0.496 -0.031 1.25 -0.031 1.762 -0.031 c 0.402 0 1.176 0 1.551 0.031 l 0 -0.379 c -0.992 0 -1.148 -0.074 -1.453 -0.516" fill="#fff" stroke="none" fill-rule="nonzero" fill-opacity="1"/></g></g></g><g><path d="m 20 4 -7.313 3.03 -5.656 5.656 -3.03 7.313 0 8 3.03 7.313 5.656 5.656 7.313 3.03 8 0 7.313 -3.03 5.656 -5.656 3.03 -7.313 0 -8 -3.03 -7.313 -5.656 -5.656 -7.313 -3.03 -8 0 z" clip-path="url(#clipPath4313)" transform="matrix(0,1,-1,0,48,0)" opacity="0.3" stroke-opacity="1" stroke-dasharray="none" visibility="visible" fill="none" display="inline" stroke="url(#linearGradient4375)" color="#000" stroke-width="1" stroke-miterlimit="4"/><path d="m 24 2.344 -4 1.656 -4.281 0 -3.03 3.03 l -4 1.656 -1.656 4 l -3.03 3.03 0 4.281 -1.656 4 1.656 4 l 0 4.281 3.03 3.03 1.656 4 4 1.656 l 3.03 3.03 4.281 0 4 1.656 4 -1.656 l 4.281 0 3.03 -3.03 4 -1.656 1.656 -4 l 3.03 -3.03 0 -4.281 1.656 -4 -1.656 -4 l 0 -4.281 -3.03 -3.03 -1.656 -4 -4 -1.656 l -3.03 -3.03 -4.281 0 -4 -1.656 z" clip-path="url(#clipPath4329)" opacity="0.2" stroke-opacity="1" visibility="visible" fill="none" display="inline" stroke="#000" color="#000" stroke-width="2"/></g></svg>