<svg viewBox="0 0 48 48" xmlns:xlink="http://www.w3.org/1999/xlink"><defs><clipPath clipPathUnits="userSpaceOnUse" id="clipPath4313"><path d="m 20 4 -7.313 3.03 -5.656 5.656 -3.03 7.313 0 8 3.03 7.313 5.656 5.656 7.313 3.03 8 0 7.313 -3.03 5.656 -5.656 3.03 -7.313 0 -8 -3.03 -7.313 -5.656 -5.656 -7.313 -3.03 -8 0 z"/></clipPath><clipPath clipPathUnits="userSpaceOnUse" id="clipPath4329"><path d="m 24 2.344 -4 1.656 -4.281 0 -3.03 3.03 l -4 1.656 -1.656 4 l -3.03 3.03 0 4.281 -1.656 4 1.656 4 l 0 4.281 3.03 3.03 1.656 4 4 1.656 l 3.03 3.03 4.281 0 4 1.656 4 -1.656 l 4.281 0 3.03 -3.03 4 -1.656 1.656 -4 l 3.03 -3.03 0 -4.281 1.656 -4 -1.656 -4 l 0 -4.281 -3.03 -3.03 -1.656 -4 -4 -1.656 l -3.03 -3.03 -4.281 0 -4 -1.656 z"/></clipPath><clipPath id="clipPath-729655237"><path d="m 24 2.344 l -4 1.656 l -4.281 0 l -3.03 3.03 l -4 1.656 l -1.656 4 l -3.03 3.03 l 0 4.281 l -1.656 4 l 1.656 4 l 0 4.281 l 3.03 3.03 l 1.656 4 l 4 1.656 l 3.03 3.03 l 4.281 0 l 4 1.656 l 4 -1.656 l 4.281 0 l 3.03 -3.03 l 4 -1.656 l 1.656 -4 l 3.03 -3.03 l 0 -4.281 l 1.656 -4 l -1.656 -4 l 0 -4.281 l -3.03 -3.03 l -1.656 -4 l -4 -1.656 l -3.03 -3.03 l -4.281 0 l -4 -1.656 z"/></clipPath><clipPath id="clipPath-735825033"><path d="m 24 2.344 l -4 1.656 l -4.281 0 l -3.03 3.03 l -4 1.656 l -1.656 4 l -3.03 3.03 l 0 4.281 l -1.656 4 l 1.656 4 l 0 4.281 l 3.03 3.03 l 1.656 4 l 4 1.656 l 3.03 3.03 l 4.281 0 l 4 1.656 l 4 -1.656 l 4.281 0 l 3.03 -3.03 l 4 -1.656 l 1.656 -4 l 3.03 -3.03 l 0 -4.281 l 1.656 -4 l -1.656 -4 l 0 -4.281 l -3.03 -3.03 l -1.656 -4 l -4 -1.656 l -3.03 -3.03 l -4.281 0 l -4 -1.656 z"/></clipPath><linearGradient id="linearGradient4317"><stop stop-color="#fff" stop-opacity="1"/><stop offset="1" stop-color="#fff" stop-opacity="0"/></linearGradient><clipPath clipPathUnits="userSpaceOnUse" id="clipPath4313"><path d="m 20 4 -7.313 3.03 -5.656 5.656 -3.03 7.313 0 8 3.03 7.313 5.656 5.656 7.313 3.03 8 0 7.313 -3.03 5.656 -5.656 3.03 -7.313 0 -8 -3.03 -7.313 -5.656 -5.656 -7.313 -3.03 -8 0 z"/></clipPath><linearGradient x2="44" x1="4" gradientUnits="userSpaceOnUse" id="linearGradient4375" xlink:href="#linearGradient4317"/><clipPath clipPathUnits="userSpaceOnUse" id="clipPath4329"><path d="m 24 2.344 -4 1.656 -4.281 0 -3.03 3.03 l -4 1.656 -1.656 4 l -3.03 3.03 0 4.281 -1.656 4 1.656 4 l 0 4.281 3.03 3.03 1.656 4 4 1.656 l 3.03 3.03 4.281 0 4 1.656 4 -1.656 l 4.281 0 3.03 -3.03 4 -1.656 1.656 -4 l 3.03 -3.03 0 -4.281 1.656 -4 -1.656 -4 l 0 -4.281 -3.03 -3.03 -1.656 -4 -4 -1.656 l -3.03 -3.03 -4.281 0 -4 -1.656 z"/></clipPath><path id="SVGCleanerId_0" d="m 24 2.344 l -4 1.656 l -4.281 0 l -3.03 3.03 l -4 1.656 l -1.656 4 l -3.03 3.03 l 0 4.281 l -1.656 4 l 1.656 4 l 0 4.281 l 3.03 3.03 l 1.656 4 l 4 1.656 l 3.03 3.03 l 4.281 0 l 4 1.656 l 4 -1.656 l 4.281 0 l 3.03 -3.03 l 4 -1.656 l 1.656 -4 l 3.03 -3.03 l 0 -4.281 l 1.656 -4 l -1.656 -4 l 0 -4.281 l -3.03 -3.03 l -1.656 -4 l -4 -1.656 l -3.03 -3.03 l -4.281 0 l -4 -1.656 z" visibility="visible" display="inline" fill-rule="nonzero" color="#000" fill-opacity="1"/></defs><g><path d="m 2.563 24.5 l -0.219 0.5 l 1.656 4 l 0 -1 l -1.438 -3.5 z m 42.875 0 l -1.438 3.5 l 0 1 l 1.656 -4 l -0.219 -0.5 z m -41.44 7.781 l 0 1 l 3.03 3.03 l 1.656 4 l 4 1.656 l 3.03 3.03 l 4.281 0 l 4 1.656 l 4 -1.656 l 4.281 0 l 3.03 -3.03 l 4 -1.656 l 1.656 -4 l 3.03 -3.03 l 0 -1 l -3.03 3.03 l -1.656 4 l -4 1.656 l -3.03 3.03 l -4.281 0 l -4 1.656 l -4 -1.656 l -4.281 0 l -3.03 -3.03 l -4 -1.656 l -1.656 -4 l -3.03 -3.03 z" opacity="0.3" visibility="visible" fill="#000" display="inline" fill-rule="nonzero" stroke="none" fill-opacity="1" color="#000"/></g><g><use fill="#e1e1dd" stroke="none" xlink:href="#SVGCleanerId_0"/><path d="m 24 2.344 l -4 1.656 l 8 0 l -4 -1.656 z m 4 1.656 l 7.313 3.03 l -3.03 -3.03 l -4.281 0 z m 7.313 3.03 l 5.656 5.656 l -1.656 -4 l -4 -1.656 z m 5.656 5.656 l 3.03 7.313 l 0 -4.281 l -3.03 -3.03 z m 3.03 7.313 l 0 8 l 1.656 -4 l -1.656 -4 z m 0 8 l -3.03 7.313 l 3.03 -3.03 l 0 -4.281 z m -3.03 7.313 l -5.656 5.656 l 4 -1.656 l 1.656 -4 z m -5.656 5.656 l -7.313 3.03 l 4.281 0 l 3.03 -3.03 z m -7.313 3.03 l -8 0 l 4 1.656 l 4 -1.656 z m -8 0 l -7.313 -3.03 l 3.03 3.03 l 4.281 0 z m -7.313 -3.03 l -5.656 -5.656 l 1.656 4 l 4 1.656 z m -5.656 -5.656 l -3.03 -7.313 l 0 4.281 l 3.03 3.03 z m -3.03 -7.313 l 0 -8 l -1.656 4 l 1.656 4 z m 0 -8 l 3.03 -7.313 l -3.03 3.03 l 0 4.281 z m 3.03 -7.313 l 5.656 -5.656 l -4 1.656 l -1.656 4 z m 5.656 -5.656 l 7.313 -3.03 l -4.281 0 l -3.03 3.03 z" opacity="0.05" visibility="visible" fill="#e1e1dd" display="inline" fill-rule="nonzero" stroke="none" fill-opacity="1" color="#000"/></g><g><use opacity="0.05" stroke-opacity="1" stroke-dasharray="none" fill="#000" stroke="#000" stroke-width="2" stroke-miterlimit="4" xlink:href="#SVGCleanerId_0"/><use opacity="0.1" stroke-opacity="1" stroke-dasharray="none" fill="#000" stroke="#000" stroke-width="1" stroke-miterlimit="4" xlink:href="#SVGCleanerId_0"/></g><g><g clip-path="url(#clipPath-729655237)"><g transform="translate(0,1)"><g opacity="0.1"><!-- color: #e1e1dd --><g><path d="m 18.887 28 l 4.227 0 c 0.488 0 0.887 0.395 0.887 0.887 l 0 0.227 c 0 0.488 -0.398 0.883 -0.887 0.883 l -4.227 0 c -0.488 0 -0.887 -0.395 -0.887 -0.883 l 0 -0.227 c 0 -0.492 0.398 -0.887 0.887 -0.887 m 0 0" fill="#000" stroke="none" fill-rule="nonzero" fill-opacity="1"/><path d="m 12 23 l 12 -9 l 12 9 l 0 3 l -24 0 m -0.004 -3" fill="#000" stroke="none" fill-rule="nonzero" fill-opacity="1"/><path d="m 14.887 16 l 18.227 0 c 0.488 0 0.883 0.398 0.883 0.887 l 0 18.227 c 0 0.488 -0.395 0.887 -0.883 0.887 l -18.227 0 c -0.492 0 -0.887 -0.398 -0.887 -0.887 l 0 -18.227 c 0 -0.488 0.395 -0.887 0.887 -0.887 m 0 0" fill="#000" stroke="none" fill-rule="nonzero" fill-opacity="1"/><path d="m 19 30 c 0 0 1.461 -3.5 1.801 -4.137 c 0 0 -1.012 -2.977 1.031 -5.594 l 0.84 -1.336 c 0 0 -0.461 1.234 0.129 2.238 c 0 0 0.02 -2.09 0.531 -3.02 c 0 0 2.406 -3.223 5.285 -4.988 c 0 0 -0.477 1.02 -0.336 1.906 c 0 0 0.938 -2.668 1.738 -2.973 c 0 0 2.48 -2.148 4.98 -2.105 c 0 0 -4.164 4.01 -6.684 7.473 c 0 0 -1.547 2.219 -2.25 2.457 c 0 0 -1.047 0.488 -1.402 0.504 c 0 0 1.027 0.035 1.625 -0.141 c 0 0 -1.023 1.527 -1.348 2.379 c 0 0 -0.871 1.648 -1.539 2.16 c 0 0 -1.133 0.918 -1.98 1.156 l -0.84 1.918 c 0 0 -0.988 1.066 -1.582 2.09 m 0 0.004" fill="#000" stroke="none" fill-rule="nonzero" fill-opacity="1"/><path d="m 12 23 l 0 14 l 24 0 l 0 -14 l -12 6 m -12 -6" fill="#000" stroke="none" fill-rule="nonzero" fill-opacity="1"/></g></g></g></g></g><g><g clip-path="url(#clipPath-735825033)"><!-- color: #e1e1dd --><g><path d="m 18.887 28 l 4.227 0 c 0.488 0 0.887 0.395 0.887 0.887 l 0 0.227 c 0 0.488 -0.398 0.883 -0.887 0.883 l -4.227 0 c -0.488 0 -0.887 -0.395 -0.887 -0.883 l 0 -0.227 c 0 -0.492 0.398 -0.887 0.887 -0.887 m 0 0" fill="#e55353" stroke="none" fill-rule="nonzero" fill-opacity="1"/><path d="m 12 23 l 12 -9 l 12 9 l 0 3 l -24 0 m -0.004 -3" fill="#c83e44" stroke="none" fill-rule="nonzero" fill-opacity="1"/><path d="m 14.887 16 l 18.227 0 c 0.488 0 0.883 0.398 0.883 0.887 l 0 18.227 c 0 0.488 -0.395 0.887 -0.883 0.887 l -18.227 0 c -0.492 0 -0.887 -0.398 -0.887 -0.887 l 0 -18.227 c 0 -0.488 0.395 -0.887 0.887 -0.887 m 0 0" fill="#f3f3f3" stroke="none" fill-rule="nonzero" fill-opacity="1"/><path d="m 19 30 c 0 0 1.461 -3.5 1.801 -4.137 c 0 0 -1.012 -2.977 1.031 -5.594 l 0.84 -1.336 c 0 0 -0.461 1.234 0.129 2.238 c 0 0 0.02 -2.09 0.531 -3.02 c 0 0 2.406 -3.223 5.285 -4.988 c 0 0 -0.477 1.02 -0.336 1.906 c 0 0 0.938 -2.668 1.738 -2.973 c 0 0 2.48 -2.148 4.98 -2.105 c 0 0 -4.164 4.01 -6.684 7.473 c 0 0 -1.547 2.219 -2.25 2.457 c 0 0 -1.047 0.488 -1.402 0.504 c 0 0 1.027 0.035 1.625 -0.141 c 0 0 -1.023 1.527 -1.348 2.379 c 0 0 -0.871 1.648 -1.539 2.16 c 0 0 -1.133 0.918 -1.98 1.156 l -0.84 1.918 c 0 0 -0.988 1.066 -1.582 2.09 m 0 0.004" fill="#26a3cf" stroke="none" fill-rule="nonzero" fill-opacity="1"/><path d="m 12 23 l 0 14 l 24 0 l 0 -14 l -12 6 m -12 -6" fill="#fa535a" stroke="none" fill-rule="nonzero" fill-opacity="1"/></g></g></g><g><path d="m 20 4 -7.313 3.03 -5.656 5.656 -3.03 7.313 0 8 3.03 7.313 5.656 5.656 7.313 3.03 8 0 7.313 -3.03 5.656 -5.656 3.03 -7.313 0 -8 -3.03 -7.313 -5.656 -5.656 -7.313 -3.03 -8 0 z" clip-path="url(#clipPath4313)" transform="matrix(0,1,-1,0,48,0)" opacity="0.3" stroke-opacity="1" stroke-dasharray="none" visibility="visible" fill="none" display="inline" stroke="url(#linearGradient4375)" color="#000" stroke-width="1" stroke-miterlimit="4"/><path d="m 24 2.344 -4 1.656 -4.281 0 -3.03 3.03 l -4 1.656 -1.656 4 l -3.03 3.03 0 4.281 -1.656 4 1.656 4 l 0 4.281 3.03 3.03 1.656 4 4 1.656 l 3.03 3.03 4.281 0 4 1.656 4 -1.656 l 4.281 0 3.03 -3.03 4 -1.656 1.656 -4 l 3.03 -3.03 0 -4.281 1.656 -4 -1.656 -4 l 0 -4.281 -3.03 -3.03 -1.656 -4 -4 -1.656 l -3.03 -3.03 -4.281 0 -4 -1.656 z" clip-path="url(#clipPath4329)" opacity="0.2" stroke-opacity="1" visibility="visible" fill="none" display="inline" stroke="#000" color="#000" stroke-width="2"/></g></svg>