<svg viewBox="0 0 48 48" xmlns:xlink="http://www.w3.org/1999/xlink"><defs><clipPath clipPathUnits="userSpaceOnUse" id="clipPath4313"><path d="m 20 4 -7.313 3.03 -5.656 5.656 -3.03 7.313 0 8 3.03 7.313 5.656 5.656 7.313 3.03 8 0 7.313 -3.03 5.656 -5.656 3.03 -7.313 0 -8 -3.03 -7.313 -5.656 -5.656 -7.313 -3.03 -8 0 z"/></clipPath><clipPath clipPathUnits="userSpaceOnUse" id="clipPath4329"><path d="m 24 2.344 -4 1.656 -4.281 0 -3.03 3.03 l -4 1.656 -1.656 4 l -3.03 3.03 0 4.281 -1.656 4 1.656 4 l 0 4.281 3.03 3.03 1.656 4 4 1.656 l 3.03 3.03 4.281 0 4 1.656 4 -1.656 l 4.281 0 3.03 -3.03 4 -1.656 1.656 -4 l 3.03 -3.03 0 -4.281 1.656 -4 -1.656 -4 l 0 -4.281 -3.03 -3.03 -1.656 -4 -4 -1.656 l -3.03 -3.03 -4.281 0 -4 -1.656 z"/></clipPath><clipPath id="clipPath-828647692"><path d="m 24 2.344 l -4 1.656 l -4.281 0 l -3.03 3.03 l -4 1.656 l -1.656 4 l -3.03 3.03 l 0 4.281 l -1.656 4 l 1.656 4 l 0 4.281 l 3.03 3.03 l 1.656 4 l 4 1.656 l 3.03 3.03 l 4.281 0 l 4 1.656 l 4 -1.656 l 4.281 0 l 3.03 -3.03 l 4 -1.656 l 1.656 -4 l 3.03 -3.03 l 0 -4.281 l 1.656 -4 l -1.656 -4 l 0 -4.281 l -3.03 -3.03 l -1.656 -4 l -4 -1.656 l -3.03 -3.03 l -4.281 0 l -4 -1.656 z"/></clipPath><clipPath id="clipPath-842661880"><path d="m 24 2.344 l -4 1.656 l -4.281 0 l -3.03 3.03 l -4 1.656 l -1.656 4 l -3.03 3.03 l 0 4.281 l -1.656 4 l 1.656 4 l 0 4.281 l 3.03 3.03 l 1.656 4 l 4 1.656 l 3.03 3.03 l 4.281 0 l 4 1.656 l 4 -1.656 l 4.281 0 l 3.03 -3.03 l 4 -1.656 l 1.656 -4 l 3.03 -3.03 l 0 -4.281 l 1.656 -4 l -1.656 -4 l 0 -4.281 l -3.03 -3.03 l -1.656 -4 l -4 -1.656 l -3.03 -3.03 l -4.281 0 l -4 -1.656 z"/></clipPath><linearGradient id="linearGradient4317"><stop stop-color="#fff" stop-opacity="1"/><stop offset="1" stop-color="#fff" stop-opacity="0"/></linearGradient><clipPath clipPathUnits="userSpaceOnUse" id="clipPath4313"><path d="m 20 4 -7.313 3.03 -5.656 5.656 -3.03 7.313 0 8 3.03 7.313 5.656 5.656 7.313 3.03 8 0 7.313 -3.03 5.656 -5.656 3.03 -7.313 0 -8 -3.03 -7.313 -5.656 -5.656 -7.313 -3.03 -8 0 z"/></clipPath><linearGradient x2="44" x1="4" gradientUnits="userSpaceOnUse" id="linearGradient4375" xlink:href="#linearGradient4317"/><clipPath clipPathUnits="userSpaceOnUse" id="clipPath4329"><path d="m 24 2.344 -4 1.656 -4.281 0 -3.03 3.03 l -4 1.656 -1.656 4 l -3.03 3.03 0 4.281 -1.656 4 1.656 4 l 0 4.281 3.03 3.03 1.656 4 4 1.656 l 3.03 3.03 4.281 0 4 1.656 4 -1.656 l 4.281 0 3.03 -3.03 4 -1.656 1.656 -4 l 3.03 -3.03 0 -4.281 1.656 -4 -1.656 -4 l 0 -4.281 -3.03 -3.03 -1.656 -4 -4 -1.656 l -3.03 -3.03 -4.281 0 -4 -1.656 z"/></clipPath><linearGradient id="linear0" gradientUnits="userSpaceOnUse" y1="272" x2="0" y2="37" gradientTransform="matrix(0.153409,0,0,0.15,1.909134,0.600007)"><stop stop-color="#ffc87f" stop-opacity="1"/><stop offset="1" stop-color="#ffecd6" stop-opacity="1"/></linearGradient><linearGradient id="linear0" gradientUnits="userSpaceOnUse" y1="272" x2="0" y2="37" gradientTransform="matrix(0.153409,0,0,0.15,1.909134,0.600007)"><stop stop-color="#ffc87f" stop-opacity="1"/><stop offset="1" stop-color="#ffecd6" stop-opacity="1"/></linearGradient><path id="SVGCleanerId_0" d="m 24 2.344 l -4 1.656 l -4.281 0 l -3.03 3.03 l -4 1.656 l -1.656 4 l -3.03 3.03 l 0 4.281 l -1.656 4 l 1.656 4 l 0 4.281 l 3.03 3.03 l 1.656 4 l 4 1.656 l 3.03 3.03 l 4.281 0 l 4 1.656 l 4 -1.656 l 4.281 0 l 3.03 -3.03 l 4 -1.656 l 1.656 -4 l 3.03 -3.03 l 0 -4.281 l 1.656 -4 l -1.656 -4 l 0 -4.281 l -3.03 -3.03 l -1.656 -4 l -4 -1.656 l -3.03 -3.03 l -4.281 0 l -4 -1.656 z" visibility="visible" display="inline" fill-rule="nonzero" color="#000" fill-opacity="1"/></defs><g><path d="m 2.563 24.5 l -0.219 0.5 l 1.656 4 l 0 -1 l -1.438 -3.5 z m 42.875 0 l -1.438 3.5 l 0 1 l 1.656 -4 l -0.219 -0.5 z m -41.44 7.781 l 0 1 l 3.03 3.03 l 1.656 4 l 4 1.656 l 3.03 3.03 l 4.281 0 l 4 1.656 l 4 -1.656 l 4.281 0 l 3.03 -3.03 l 4 -1.656 l 1.656 -4 l 3.03 -3.03 l 0 -1 l -3.03 3.03 l -1.656 4 l -4 1.656 l -3.03 3.03 l -4.281 0 l -4 1.656 l -4 -1.656 l -4.281 0 l -3.03 -3.03 l -4 -1.656 l -1.656 -4 l -3.03 -3.03 z" opacity="0.3" visibility="visible" fill="#000" display="inline" fill-rule="nonzero" stroke="none" fill-opacity="1" color="#000"/></g><g><use fill="#5782cb" stroke="none" xlink:href="#SVGCleanerId_0"/><path d="m 24 2.344 l -4 1.656 l 8 0 l -4 -1.656 z m 4 1.656 l 7.313 3.03 l -3.03 -3.03 l -4.281 0 z m 7.313 3.03 l 5.656 5.656 l -1.656 -4 l -4 -1.656 z m 5.656 5.656 l 3.03 7.313 l 0 -4.281 l -3.03 -3.03 z m 3.03 7.313 l 0 8 l 1.656 -4 l -1.656 -4 z m 0 8 l -3.03 7.313 l 3.03 -3.03 l 0 -4.281 z m -3.03 7.313 l -5.656 5.656 l 4 -1.656 l 1.656 -4 z m -5.656 5.656 l -7.313 3.03 l 4.281 0 l 3.03 -3.03 z m -7.313 3.03 l -8 0 l 4 1.656 l 4 -1.656 z m -8 0 l -7.313 -3.03 l 3.03 3.03 l 4.281 0 z m -7.313 -3.03 l -5.656 -5.656 l 1.656 4 l 4 1.656 z m -5.656 -5.656 l -3.03 -7.313 l 0 4.281 l 3.03 3.03 z m -3.03 -7.313 l 0 -8 l -1.656 4 l 1.656 4 z m 0 -8 l 3.03 -7.313 l -3.03 3.03 l 0 4.281 z m 3.03 -7.313 l 5.656 -5.656 l -4 1.656 l -1.656 4 z m 5.656 -5.656 l 7.313 -3.03 l -4.281 0 l -3.03 3.03 z" opacity="0.05" visibility="visible" fill="#5782cb" display="inline" fill-rule="nonzero" stroke="none" fill-opacity="1" color="#000"/></g><g><use opacity="0.05" stroke-opacity="1" stroke-dasharray="none" fill="#000" stroke="#000" stroke-width="2" stroke-miterlimit="4" xlink:href="#SVGCleanerId_0"/><use opacity="0.1" stroke-opacity="1" stroke-dasharray="none" fill="#000" stroke="#000" stroke-width="1" stroke-miterlimit="4" xlink:href="#SVGCleanerId_0"/></g><g><g clip-path="url(#clipPath-828647692)"><g transform="translate(0,1)"><g opacity="0.1"><!-- color: #5782cb --><g><path d="m 33 26.801 c 0.051 4.945 -3.254 9.199 -8.797 9.199 c -5.539 0 -9.238 -2.805 -9.203 -9.598 c 0.035 -6.813 4.617 -14.316 8.793 -14.402 c 4.453 -0.105 9.125 7.277 9.207 14.801 m 0 0" fill="#000" stroke="none" fill-rule="evenodd"/><path d="m 28.875 14.938 l -1.969 1.973 l -0.125 0.09 l 0.09 0.094 l 0.813 0.906 l -1.531 0.75 l -0.125 0.094 c -0.004 -0.004 -0.023 0.004 -0.031 0 c -0.086 -0.063 -0.176 -0.133 -0.313 -0.188 c -0.09 -0.039 -0.203 -0.082 -0.309 -0.125 c -0.414 -0.191 -0.797 -0.355 -1.285 -0.625 c -0.012 -0.004 -0.016 -0.023 -0.031 -0.031 l -0.09 0.125 l -0.125 0.094 c 0.012 0.016 0.047 0.012 0.063 0.031 c 0.098 0.109 0.211 0.199 0.375 0.277 c 0.191 0.098 0.43 0.191 0.656 0.281 c 0.215 0.086 0.422 0.176 0.594 0.25 c 0.008 0.004 0.027 0 0.035 0 c 0.07 0.035 0.074 0.039 0.121 0.066 l -1.184 0.531 l 0.063 0.156 l 0.063 0.125 c 0.238 -0.098 0.602 -0.215 0.906 -0.344 c 0.129 -0.055 0.219 -0.109 0.313 -0.156 l 0 0.652 l 0.313 0 c 0.004 -0.422 0.039 -0.578 0.066 -0.84 l 1.906 -0.941 l 0.188 -0.09 l -0.121 -0.156 l -0.844 -0.91 c 0.566 -0.594 0.855 -0.969 1.75 -1.871 c -0.203 -0.188 -0.137 -0.137 -0.219 -0.223 m -0.008 0.004" fill="#000" stroke="none" fill-rule="nonzero" fill-opacity="1"/></g></g></g></g></g><g><g clip-path="url(#clipPath-842661880)"><!-- color: #5782cb --><g><path d="m 33 26.801 c 0.051 4.945 -3.254 9.199 -8.797 9.199 c -5.539 0 -9.238 -2.805 -9.203 -9.598 c 0.035 -6.813 4.617 -14.316 8.793 -14.402 c 4.453 -0.105 9.125 7.277 9.207 14.801 m 0 0" fill="url(#linear0)" stroke="none" fill-rule="evenodd"/><path d="m 28.875 14.938 l -1.969 1.973 l -0.125 0.09 l 0.09 0.094 l 0.813 0.906 l -1.531 0.75 l -0.125 0.094 c -0.004 -0.004 -0.023 0.004 -0.031 0 c -0.086 -0.063 -0.176 -0.133 -0.313 -0.188 c -0.09 -0.039 -0.203 -0.082 -0.309 -0.125 c -0.414 -0.191 -0.797 -0.355 -1.285 -0.625 c -0.012 -0.004 -0.016 -0.023 -0.031 -0.031 l -0.09 0.125 l -0.125 0.094 c 0.012 0.016 0.047 0.012 0.063 0.031 c 0.098 0.109 0.211 0.199 0.375 0.277 c 0.191 0.098 0.43 0.191 0.656 0.281 c 0.215 0.086 0.422 0.176 0.594 0.25 c 0.008 0.004 0.027 0 0.035 0 c 0.07 0.035 0.074 0.039 0.121 0.066 l -1.184 0.531 l 0.063 0.156 l 0.063 0.125 c 0.238 -0.098 0.602 -0.215 0.906 -0.344 c 0.129 -0.055 0.219 -0.109 0.313 -0.156 l 0 0.652 l 0.313 0 c 0.004 -0.422 0.039 -0.578 0.066 -0.84 l 1.906 -0.941 l 0.188 -0.09 l -0.121 -0.156 l -0.844 -0.91 c 0.566 -0.594 0.855 -0.969 1.75 -1.871 c -0.203 -0.188 -0.137 -0.137 -0.219 -0.223 m -0.008 0.004" fill="#2f2f2f" stroke="none" fill-rule="nonzero" fill-opacity="1"/></g></g></g><g><path d="m 20 4 -7.313 3.03 -5.656 5.656 -3.03 7.313 0 8 3.03 7.313 5.656 5.656 7.313 3.03 8 0 7.313 -3.03 5.656 -5.656 3.03 -7.313 0 -8 -3.03 -7.313 -5.656 -5.656 -7.313 -3.03 -8 0 z" clip-path="url(#clipPath4313)" transform="matrix(0,1,-1,0,48,0)" opacity="0.3" stroke-opacity="1" stroke-dasharray="none" visibility="visible" fill="none" display="inline" stroke="url(#linearGradient4375)" color="#000" stroke-width="1" stroke-miterlimit="4"/><path d="m 24 2.344 -4 1.656 -4.281 0 -3.03 3.03 l -4 1.656 -1.656 4 l -3.03 3.03 0 4.281 -1.656 4 1.656 4 l 0 4.281 3.03 3.03 1.656 4 4 1.656 l 3.03 3.03 4.281 0 4 1.656 4 -1.656 l 4.281 0 3.03 -3.03 4 -1.656 1.656 -4 l 3.03 -3.03 0 -4.281 1.656 -4 -1.656 -4 l 0 -4.281 -3.03 -3.03 -1.656 -4 -4 -1.656 l -3.03 -3.03 -4.281 0 -4 -1.656 z" clip-path="url(#clipPath4329)" opacity="0.2" stroke-opacity="1" visibility="visible" fill="none" display="inline" stroke="#000" color="#000" stroke-width="2"/></g></svg>