<svg viewBox="0 0 48 48" xmlns:xlink="http://www.w3.org/1999/xlink"><defs><clipPath clipPathUnits="userSpaceOnUse" id="clipPath4313"><path d="m 20 4 -7.313 3.03 -5.656 5.656 -3.03 7.313 0 8 3.03 7.313 5.656 5.656 7.313 3.03 8 0 7.313 -3.03 5.656 -5.656 3.03 -7.313 0 -8 -3.03 -7.313 -5.656 -5.656 -7.313 -3.03 -8 0 z"/></clipPath><clipPath clipPathUnits="userSpaceOnUse" id="clipPath4329"><path d="m 24 2.344 -4 1.656 -4.281 0 -3.03 3.03 l -4 1.656 -1.656 4 l -3.03 3.03 0 4.281 -1.656 4 1.656 4 l 0 4.281 3.03 3.03 1.656 4 4 1.656 l 3.03 3.03 4.281 0 4 1.656 4 -1.656 l 4.281 0 3.03 -3.03 4 -1.656 1.656 -4 l 3.03 -3.03 0 -4.281 1.656 -4 -1.656 -4 l 0 -4.281 -3.03 -3.03 -1.656 -4 -4 -1.656 l -3.03 -3.03 -4.281 0 -4 -1.656 z"/></clipPath><clipPath id="clipPath-357808955"><path d="m 24 2.344 l -4 1.656 l -4.281 0 l -3.03 3.03 l -4 1.656 l -1.656 4 l -3.03 3.03 l 0 4.281 l -1.656 4 l 1.656 4 l 0 4.281 l 3.03 3.03 l 1.656 4 l 4 1.656 l 3.03 3.03 l 4.281 0 l 4 1.656 l 4 -1.656 l 4.281 0 l 3.03 -3.03 l 4 -1.656 l 1.656 -4 l 3.03 -3.03 l 0 -4.281 l 1.656 -4 l -1.656 -4 l 0 -4.281 l -3.03 -3.03 l -1.656 -4 l -4 -1.656 l -3.03 -3.03 l -4.281 0 l -4 -1.656 z"/></clipPath><clipPath id="clipPath-366445959"><path d="m 24 2.344 l -4 1.656 l -4.281 0 l -3.03 3.03 l -4 1.656 l -1.656 4 l -3.03 3.03 l 0 4.281 l -1.656 4 l 1.656 4 l 0 4.281 l 3.03 3.03 l 1.656 4 l 4 1.656 l 3.03 3.03 l 4.281 0 l 4 1.656 l 4 -1.656 l 4.281 0 l 3.03 -3.03 l 4 -1.656 l 1.656 -4 l 3.03 -3.03 l 0 -4.281 l 1.656 -4 l -1.656 -4 l 0 -4.281 l -3.03 -3.03 l -1.656 -4 l -4 -1.656 l -3.03 -3.03 l -4.281 0 l -4 -1.656 z"/></clipPath><linearGradient id="linearGradient4317"><stop stop-color="#fff" stop-opacity="1"/><stop offset="1" stop-color="#fff" stop-opacity="0"/></linearGradient><clipPath clipPathUnits="userSpaceOnUse" id="clipPath4313"><path d="m 20 4 -7.313 3.03 -5.656 5.656 -3.03 7.313 0 8 3.03 7.313 5.656 5.656 7.313 3.03 8 0 7.313 -3.03 5.656 -5.656 3.03 -7.313 0 -8 -3.03 -7.313 -5.656 -5.656 -7.313 -3.03 -8 0 z"/></clipPath><linearGradient x2="44" x1="4" gradientUnits="userSpaceOnUse" id="linearGradient4375" xlink:href="#linearGradient4317"/><clipPath clipPathUnits="userSpaceOnUse" id="clipPath4329"><path d="m 24 2.344 -4 1.656 -4.281 0 -3.03 3.03 l -4 1.656 -1.656 4 l -3.03 3.03 0 4.281 -1.656 4 1.656 4 l 0 4.281 3.03 3.03 1.656 4 4 1.656 l 3.03 3.03 4.281 0 4 1.656 4 -1.656 l 4.281 0 3.03 -3.03 4 -1.656 1.656 -4 l 3.03 -3.03 0 -4.281 1.656 -4 -1.656 -4 l 0 -4.281 -3.03 -3.03 -1.656 -4 -4 -1.656 l -3.03 -3.03 -4.281 0 -4 -1.656 z"/></clipPath><path id="SVGCleanerId_0" d="m 24 2.344 l -4 1.656 l -4.281 0 l -3.03 3.03 l -4 1.656 l -1.656 4 l -3.03 3.03 l 0 4.281 l -1.656 4 l 1.656 4 l 0 4.281 l 3.03 3.03 l 1.656 4 l 4 1.656 l 3.03 3.03 l 4.281 0 l 4 1.656 l 4 -1.656 l 4.281 0 l 3.03 -3.03 l 4 -1.656 l 1.656 -4 l 3.03 -3.03 l 0 -4.281 l 1.656 -4 l -1.656 -4 l 0 -4.281 l -3.03 -3.03 l -1.656 -4 l -4 -1.656 l -3.03 -3.03 l -4.281 0 l -4 -1.656 z" visibility="visible" display="inline" fill-rule="nonzero" color="#000" fill-opacity="1"/></defs><g><path d="m 2.563 24.5 l -0.219 0.5 l 1.656 4 l 0 -1 l -1.438 -3.5 z m 42.875 0 l -1.438 3.5 l 0 1 l 1.656 -4 l -0.219 -0.5 z m -41.44 7.781 l 0 1 l 3.03 3.03 l 1.656 4 l 4 1.656 l 3.03 3.03 l 4.281 0 l 4 1.656 l 4 -1.656 l 4.281 0 l 3.03 -3.03 l 4 -1.656 l 1.656 -4 l 3.03 -3.03 l 0 -1 l -3.03 3.03 l -1.656 4 l -4 1.656 l -3.03 3.03 l -4.281 0 l -4 1.656 l -4 -1.656 l -4.281 0 l -3.03 -3.03 l -4 -1.656 l -1.656 -4 l -3.03 -3.03 z" opacity="0.3" visibility="visible" fill="#000" display="inline" fill-rule="nonzero" stroke="none" fill-opacity="1" color="#000"/></g><g><use fill="#555" stroke="none" xlink:href="#SVGCleanerId_0"/><path d="m 24 2.344 l -4 1.656 l 8 0 l -4 -1.656 z m 4 1.656 l 7.313 3.03 l -3.03 -3.03 l -4.281 0 z m 7.313 3.03 l 5.656 5.656 l -1.656 -4 l -4 -1.656 z m 5.656 5.656 l 3.03 7.313 l 0 -4.281 l -3.03 -3.03 z m 3.03 7.313 l 0 8 l 1.656 -4 l -1.656 -4 z m 0 8 l -3.03 7.313 l 3.03 -3.03 l 0 -4.281 z m -3.03 7.313 l -5.656 5.656 l 4 -1.656 l 1.656 -4 z m -5.656 5.656 l -7.313 3.03 l 4.281 0 l 3.03 -3.03 z m -7.313 3.03 l -8 0 l 4 1.656 l 4 -1.656 z m -8 0 l -7.313 -3.03 l 3.03 3.03 l 4.281 0 z m -7.313 -3.03 l -5.656 -5.656 l 1.656 4 l 4 1.656 z m -5.656 -5.656 l -3.03 -7.313 l 0 4.281 l 3.03 3.03 z m -3.03 -7.313 l 0 -8 l -1.656 4 l 1.656 4 z m 0 -8 l 3.03 -7.313 l -3.03 3.03 l 0 4.281 z m 3.03 -7.313 l 5.656 -5.656 l -4 1.656 l -1.656 4 z m 5.656 -5.656 l 7.313 -3.03 l -4.281 0 l -3.03 3.03 z" opacity="0.05" visibility="visible" fill="#555" display="inline" fill-rule="nonzero" stroke="none" fill-opacity="1" color="#000"/></g><g><use opacity="0.05" stroke-opacity="1" stroke-dasharray="none" fill="#000" stroke="#000" stroke-width="2" stroke-miterlimit="4" xlink:href="#SVGCleanerId_0"/><use opacity="0.1" stroke-opacity="1" stroke-dasharray="none" fill="#000" stroke="#000" stroke-width="1" stroke-miterlimit="4" xlink:href="#SVGCleanerId_0"/></g><g><g clip-path="url(#clipPath-357808955)"><g transform="translate(0,1)"><g opacity="0.1"><!-- color: #555555 --><g><path d="m 13.453 32.988 l 8.16 0 l 2.387 3.01 l 2.379 -3.01 l 8.05 0 c 0.914 0 1.563 -0.688 1.563 -1.352 l 0 -18.293 c 0 -0.617 -0.59 -1.348 -1.547 -1.348 l -20.855 0 c -0.766 0 -1.602 0.551 -1.602 1.402 l 0 18.313 c 0 0.746 0.914 1.273 1.457 1.273 m 0.004 0.004" fill="#000" stroke="none" fill-rule="nonzero" fill-opacity="1"/><path d="m 26.27 16.16 c -1.625 0.555 -2.652 1.992 -2.535 3.563 l 0.039 0.605 l -0.648 -0.074 c -2.367 -0.285 -4.438 -1.25 -6.191 -2.871 l -0.859 -0.801 l -0.219 0.594 c -0.469 1.32 -0.172 2.719 0.805 3.66 c 0.523 0.52 0.402 0.594 -0.484 0.281 c -0.316 -0.098 -0.586 -0.172 -0.613 -0.133 c -0.09 0.086 0.223 1.211 0.469 1.656 c 0.34 0.617 1.027 1.223 1.781 1.582 l 0.637 0.285 l -0.754 0.012 c -0.727 0 -0.754 0.012 -0.676 0.273 c 0.262 0.801 1.289 1.656 2.434 2.027 l 0.805 0.258 l -0.703 0.398 c -1.039 0.563 -2.262 0.887 -3.484 0.914 c -0.586 0.012 -1.066 0.063 -1.066 0.098 c 0 0.125 1.586 0.816 2.508 1.09 c 2.773 0.805 6.06 0.457 8.531 -0.918 c 1.758 -0.977 3.512 -2.918 4.332 -4.797 c 0.441 -1 0.883 -2.832 0.883 -3.711 c 0 -0.566 0.039 -0.641 0.77 -1.32 c 0.43 -0.398 0.832 -0.828 0.91 -0.953 c 0.129 -0.234 0.117 -0.234 -0.547 -0.023 c -1.105 0.371 -1.262 0.32 -0.715 -0.238 c 0.402 -0.395 0.883 -1.109 0.883 -1.32 c 0 -0.039 -0.195 0.023 -0.414 0.137 c -0.234 0.121 -0.754 0.309 -1.145 0.418 l -0.703 0.211 l -0.637 -0.406 c -0.352 -0.223 -0.848 -0.473 -1.105 -0.547 c -0.664 -0.172 -1.68 -0.148 -2.277 0.051 m 0 0" fill="#000" stroke="none" fill-rule="nonzero" fill-opacity="1"/></g></g></g></g></g><g><g clip-path="url(#clipPath-366445959)"><!-- color: #555555 --><g><path d="m 13.453 32.988 l 8.16 0 l 2.387 3.01 l 2.379 -3.01 l 8.05 0 c 0.914 0 1.563 -0.688 1.563 -1.352 l 0 -18.293 c 0 -0.617 -0.59 -1.348 -1.547 -1.348 l -20.855 0 c -0.766 0 -1.602 0.551 -1.602 1.402 l 0 18.313 c 0 0.746 0.914 1.273 1.457 1.273 m 0.004 0.004" fill="#17baff" stroke="none" fill-rule="nonzero" fill-opacity="1"/><path d="m 26.27 16.16 c -1.625 0.555 -2.652 1.992 -2.535 3.563 l 0.039 0.605 l -0.648 -0.074 c -2.367 -0.285 -4.438 -1.25 -6.191 -2.871 l -0.859 -0.801 l -0.219 0.594 c -0.469 1.32 -0.172 2.719 0.805 3.66 c 0.523 0.52 0.402 0.594 -0.484 0.281 c -0.316 -0.098 -0.586 -0.172 -0.613 -0.133 c -0.09 0.086 0.223 1.211 0.469 1.656 c 0.34 0.617 1.027 1.223 1.781 1.582 l 0.637 0.285 l -0.754 0.012 c -0.727 0 -0.754 0.012 -0.676 0.273 c 0.262 0.801 1.289 1.656 2.434 2.027 l 0.805 0.258 l -0.703 0.398 c -1.039 0.563 -2.262 0.887 -3.484 0.914 c -0.586 0.012 -1.066 0.063 -1.066 0.098 c 0 0.125 1.586 0.816 2.508 1.09 c 2.773 0.805 6.06 0.457 8.531 -0.918 c 1.758 -0.977 3.512 -2.918 4.332 -4.797 c 0.441 -1 0.883 -2.832 0.883 -3.711 c 0 -0.566 0.039 -0.641 0.77 -1.32 c 0.43 -0.398 0.832 -0.828 0.91 -0.953 c 0.129 -0.234 0.117 -0.234 -0.547 -0.023 c -1.105 0.371 -1.262 0.32 -0.715 -0.238 c 0.402 -0.395 0.883 -1.109 0.883 -1.32 c 0 -0.039 -0.195 0.023 -0.414 0.137 c -0.234 0.121 -0.754 0.309 -1.145 0.418 l -0.703 0.211 l -0.637 -0.406 c -0.352 -0.223 -0.848 -0.473 -1.105 -0.547 c -0.664 -0.172 -1.68 -0.148 -2.277 0.051 m 0 0" fill="#007fb2" stroke="none" fill-rule="nonzero" fill-opacity="1"/></g></g></g><g><path d="m 20 4 -7.313 3.03 -5.656 5.656 -3.03 7.313 0 8 3.03 7.313 5.656 5.656 7.313 3.03 8 0 7.313 -3.03 5.656 -5.656 3.03 -7.313 0 -8 -3.03 -7.313 -5.656 -5.656 -7.313 -3.03 -8 0 z" clip-path="url(#clipPath4313)" transform="matrix(0,1,-1,0,48,0)" opacity="0.3" stroke-opacity="1" stroke-dasharray="none" visibility="visible" fill="none" display="inline" stroke="url(#linearGradient4375)" color="#000" stroke-width="1" stroke-miterlimit="4"/><path d="m 24 2.344 -4 1.656 -4.281 0 -3.03 3.03 l -4 1.656 -1.656 4 l -3.03 3.03 0 4.281 -1.656 4 1.656 4 l 0 4.281 3.03 3.03 1.656 4 4 1.656 l 3.03 3.03 4.281 0 4 1.656 4 -1.656 l 4.281 0 3.03 -3.03 4 -1.656 1.656 -4 l 3.03 -3.03 0 -4.281 1.656 -4 -1.656 -4 l 0 -4.281 -3.03 -3.03 -1.656 -4 -4 -1.656 l -3.03 -3.03 -4.281 0 -4 -1.656 z" clip-path="url(#clipPath4329)" opacity="0.2" stroke-opacity="1" visibility="visible" fill="none" display="inline" stroke="#000" color="#000" stroke-width="2"/></g></svg>