<svg viewBox="0 0 48 48" xmlns:xlink="http://www.w3.org/1999/xlink"><defs><clipPath clipPathUnits="userSpaceOnUse" id="clipPath4313"><path d="m 20 4 -7.313 3.03 -5.656 5.656 -3.03 7.313 0 8 3.03 7.313 5.656 5.656 7.313 3.03 8 0 7.313 -3.03 5.656 -5.656 3.03 -7.313 0 -8 -3.03 -7.313 -5.656 -5.656 -7.313 -3.03 -8 0 z"/></clipPath><clipPath clipPathUnits="userSpaceOnUse" id="clipPath4329"><path d="m 24 2.344 -4 1.656 -4.281 0 -3.03 3.03 l -4 1.656 -1.656 4 l -3.03 3.03 0 4.281 -1.656 4 1.656 4 l 0 4.281 3.03 3.03 1.656 4 4 1.656 l 3.03 3.03 4.281 0 4 1.656 4 -1.656 l 4.281 0 3.03 -3.03 4 -1.656 1.656 -4 l 3.03 -3.03 0 -4.281 1.656 -4 -1.656 -4 l 0 -4.281 -3.03 -3.03 -1.656 -4 -4 -1.656 l -3.03 -3.03 -4.281 0 -4 -1.656 z"/></clipPath><clipPath id="clipPath-022790623"><path d="m 24 2.344 l -4 1.656 l -4.281 0 l -3.03 3.03 l -4 1.656 l -1.656 4 l -3.03 3.03 l 0 4.281 l -1.656 4 l 1.656 4 l 0 4.281 l 3.03 3.03 l 1.656 4 l 4 1.656 l 3.03 3.03 l 4.281 0 l 4 1.656 l 4 -1.656 l 4.281 0 l 3.03 -3.03 l 4 -1.656 l 1.656 -4 l 3.03 -3.03 l 0 -4.281 l 1.656 -4 l -1.656 -4 l 0 -4.281 l -3.03 -3.03 l -1.656 -4 l -4 -1.656 l -3.03 -3.03 l -4.281 0 l -4 -1.656 z"/></clipPath><clipPath id="clipPath-034009417"><path d="m 24 2.344 l -4 1.656 l -4.281 0 l -3.03 3.03 l -4 1.656 l -1.656 4 l -3.03 3.03 l 0 4.281 l -1.656 4 l 1.656 4 l 0 4.281 l 3.03 3.03 l 1.656 4 l 4 1.656 l 3.03 3.03 l 4.281 0 l 4 1.656 l 4 -1.656 l 4.281 0 l 3.03 -3.03 l 4 -1.656 l 1.656 -4 l 3.03 -3.03 l 0 -4.281 l 1.656 -4 l -1.656 -4 l 0 -4.281 l -3.03 -3.03 l -1.656 -4 l -4 -1.656 l -3.03 -3.03 l -4.281 0 l -4 -1.656 z"/></clipPath><linearGradient id="linearGradient4317"><stop stop-color="#fff" stop-opacity="1"/><stop offset="1" stop-color="#fff" stop-opacity="0"/></linearGradient><clipPath clipPathUnits="userSpaceOnUse" id="clipPath4313"><path d="m 20 4 -7.313 3.03 -5.656 5.656 -3.03 7.313 0 8 3.03 7.313 5.656 5.656 7.313 3.03 8 0 7.313 -3.03 5.656 -5.656 3.03 -7.313 0 -8 -3.03 -7.313 -5.656 -5.656 -7.313 -3.03 -8 0 z"/></clipPath><linearGradient x2="44" x1="4" gradientUnits="userSpaceOnUse" id="linearGradient4375" xlink:href="#linearGradient4317"/><clipPath clipPathUnits="userSpaceOnUse" id="clipPath4329"><path d="m 24 2.344 -4 1.656 -4.281 0 -3.03 3.03 l -4 1.656 -1.656 4 l -3.03 3.03 0 4.281 -1.656 4 1.656 4 l 0 4.281 3.03 3.03 1.656 4 4 1.656 l 3.03 3.03 4.281 0 4 1.656 4 -1.656 l 4.281 0 3.03 -3.03 4 -1.656 1.656 -4 l 3.03 -3.03 0 -4.281 1.656 -4 -1.656 -4 l 0 -4.281 -3.03 -3.03 -1.656 -4 -4 -1.656 l -3.03 -3.03 -4.281 0 -4 -1.656 z"/></clipPath><path id="SVGCleanerId_0" d="m 24 2.344 l -4 1.656 l -4.281 0 l -3.03 3.03 l -4 1.656 l -1.656 4 l -3.03 3.03 l 0 4.281 l -1.656 4 l 1.656 4 l 0 4.281 l 3.03 3.03 l 1.656 4 l 4 1.656 l 3.03 3.03 l 4.281 0 l 4 1.656 l 4 -1.656 l 4.281 0 l 3.03 -3.03 l 4 -1.656 l 1.656 -4 l 3.03 -3.03 l 0 -4.281 l 1.656 -4 l -1.656 -4 l 0 -4.281 l -3.03 -3.03 l -1.656 -4 l -4 -1.656 l -3.03 -3.03 l -4.281 0 l -4 -1.656 z" visibility="visible" display="inline" fill-rule="nonzero" color="#000" fill-opacity="1"/></defs><g><path d="m 2.563 24.5 l -0.219 0.5 l 1.656 4 l 0 -1 l -1.438 -3.5 z m 42.875 0 l -1.438 3.5 l 0 1 l 1.656 -4 l -0.219 -0.5 z m -41.44 7.781 l 0 1 l 3.03 3.03 l 1.656 4 l 4 1.656 l 3.03 3.03 l 4.281 0 l 4 1.656 l 4 -1.656 l 4.281 0 l 3.03 -3.03 l 4 -1.656 l 1.656 -4 l 3.03 -3.03 l 0 -1 l -3.03 3.03 l -1.656 4 l -4 1.656 l -3.03 3.03 l -4.281 0 l -4 1.656 l -4 -1.656 l -4.281 0 l -3.03 -3.03 l -4 -1.656 l -1.656 -4 l -3.03 -3.03 z" opacity="0.3" visibility="visible" fill="#000" display="inline" fill-rule="nonzero" stroke="none" fill-opacity="1" color="#000"/></g><g><use fill="#f3612d" stroke="none" xlink:href="#SVGCleanerId_0"/><path d="m 24 2.344 l -4 1.656 l 8 0 l -4 -1.656 z m 4 1.656 l 7.313 3.03 l -3.03 -3.03 l -4.281 0 z m 7.313 3.03 l 5.656 5.656 l -1.656 -4 l -4 -1.656 z m 5.656 5.656 l 3.03 7.313 l 0 -4.281 l -3.03 -3.03 z m 3.03 7.313 l 0 8 l 1.656 -4 l -1.656 -4 z m 0 8 l -3.03 7.313 l 3.03 -3.03 l 0 -4.281 z m -3.03 7.313 l -5.656 5.656 l 4 -1.656 l 1.656 -4 z m -5.656 5.656 l -7.313 3.03 l 4.281 0 l 3.03 -3.03 z m -7.313 3.03 l -8 0 l 4 1.656 l 4 -1.656 z m -8 0 l -7.313 -3.03 l 3.03 3.03 l 4.281 0 z m -7.313 -3.03 l -5.656 -5.656 l 1.656 4 l 4 1.656 z m -5.656 -5.656 l -3.03 -7.313 l 0 4.281 l 3.03 3.03 z m -3.03 -7.313 l 0 -8 l -1.656 4 l 1.656 4 z m 0 -8 l 3.03 -7.313 l -3.03 3.03 l 0 4.281 z m 3.03 -7.313 l 5.656 -5.656 l -4 1.656 l -1.656 4 z m 5.656 -5.656 l 7.313 -3.03 l -4.281 0 l -3.03 3.03 z" opacity="0.05" visibility="visible" fill="#f3612d" display="inline" fill-rule="nonzero" stroke="none" fill-opacity="1" color="#000"/></g><g><use opacity="0.05" stroke-opacity="1" stroke-dasharray="none" fill="#000" stroke="#000" stroke-width="2" stroke-miterlimit="4" xlink:href="#SVGCleanerId_0"/><use opacity="0.1" stroke-opacity="1" stroke-dasharray="none" fill="#000" stroke="#000" stroke-width="1" stroke-miterlimit="4" xlink:href="#SVGCleanerId_0"/></g><g><g clip-path="url(#clipPath-022790623)"><g transform="translate(0,1)"><g opacity="0.1"><!-- color: #f3612d --><g><path d="m 21.254 9 c -0.313 0 -0.586 0.379 -0.586 0.879 l 0 2.953 c 0 0.043 0.027 0.078 0.031 0.121 c -0.863 0.242 -1.695 0.594 -2.469 1.012 l -1.918 -1.855 c -0.125 -0.125 -0.246 -0.188 -0.391 -0.254 c -0.316 -0.207 -0.629 -0.27 -0.809 -0.094 l -3.934 3.801 c -0.23 0.215 -0.105 0.684 0.258 1.039 l 2.02 1.949 c 0.027 0.023 0.039 0.039 0.066 0.063 c -0.297 0.531 -0.574 1.086 -0.781 1.664 l -2.695 0 c -0.371 0 -0.68 0.172 -0.813 0.41 c -0.137 0.117 -0.227 0.273 -0.227 0.441 l 0 6.438 c 0 0.371 0.379 0.66 0.879 0.66 l 2.762 0 c 0.105 0 0.203 -0.039 0.297 -0.066 c 0.219 0.543 0.48 1.066 0.777 1.566 c -0.035 0.031 -0.066 0.066 -0.105 0.098 l -1.977 1.918 c -0.289 0.273 -0.398 0.578 -0.328 0.816 c -0.035 0.172 -0.004 0.34 0.102 0.441 l 3.902 3.801 c 0.223 0.215 0.707 0.098 1.07 -0.25 l 2.02 -1.949 c 0.109 -0.109 0.164 -0.227 0.227 -0.348 c 0.656 0.32 1.355 0.582 2.078 0.785 c -0.004 0.043 -0.031 0.082 -0.031 0.125 l 0 2.918 c 0 0.5 0.273 0.91 0.586 0.91 l 5.492 0 c 0.309 0 0.551 -0.41 0.551 -0.91 l 0 -2.918 c 0 -0.043 0.004 -0.082 0 -0.125 c 0.824 -0.23 1.629 -0.52 2.375 -0.91 c 0.055 0.16 0.141 0.328 0.293 0.473 l 2.02 1.949 c 0.363 0.352 0.82 0.465 1.043 0.25 l 3.934 -3.801 c 0.109 -0.109 0.141 -0.289 0.098 -0.473 c 0.047 -0.234 -0.09 -0.523 -0.355 -0.785 l -1.984 -1.918 c -0.102 -0.098 -0.215 -0.195 -0.328 -0.25 c 0.262 -0.457 0.484 -0.922 0.691 -1.414 c 0.094 0.023 0.188 0.063 0.293 0.063 l 2.727 0 c 0.5 0 0.91 -0.293 0.91 -0.66 l 0 -6.438 c 0 -0.176 -0.109 -0.32 -0.258 -0.438 c -0.004 -0.008 0.004 -0.027 0 -0.035 c -0.012 -0.004 -0.023 -0.023 -0.031 -0.031 c -0.145 -0.203 -0.445 -0.348 -0.781 -0.348 l -2.664 0 c -0.176 -0.5 -0.438 -0.977 -0.684 -1.445 c 0.125 -0.059 0.242 -0.141 0.355 -0.25 l 2.02 -1.949 c 0.363 -0.352 0.449 -0.82 0.23 -1.039 l -3.902 -3.801 c -0.168 -0.164 -0.48 -0.137 -0.781 0.031 c -0.168 0.055 -0.328 0.133 -0.488 0.285 l -1.98 1.914 c -0.02 0.02 -0.02 0.047 -0.031 0.066 c -0.836 -0.477 -1.746 -0.867 -2.695 -1.133 c 0.004 -0.043 0 -0.082 0 -0.121 l 0 -2.953 c 0 -0.5 -0.242 -0.879 -0.555 -0.879 m 0.992 7 c 0.316 -0.02 0.652 0.059 0.941 0.223 c 0.781 0.434 1.031 1.41 0.586 2.168 c -0.449 0.758 -1.43 1 -2.211 0.566 c -0.781 -0.438 -1.07 -1.379 -0.617 -2.137 c 0.285 -0.477 0.773 -0.781 1.301 -0.82 m -3.773 1.539 c 0.531 0 1.059 0.043 1.563 0.156 c 0.043 0.738 0.457 1.457 1.172 1.852 c 0.715 0.402 1.559 0.402 2.242 0.066 c 1.063 1.094 1.688 2.469 1.816 3.957 l -2.797 0 c -0.273 -1.895 -1.961 -3.332 -3.996 -3.332 c -0.527 0 -1.027 0.102 -1.492 0.285 l -1.434 -2.355 c 0.898 -0.41 1.902 -0.629 2.926 -0.629 m -3.898 1.164 l 1.395 2.355 c -0.938 0.715 -1.559 1.832 -1.559 3.078 c 0 1.246 0.617 2.355 1.559 3.078 l -1.395 2.352 c -0.324 -0.223 -0.652 -0.473 -0.941 -0.754 c -0.813 -0.781 -1.367 -1.727 -1.691 -2.762 c 0.645 -0.406 1.074 -1.117 1.074 -1.918 c 0 -0.797 -0.426 -1.48 -1.074 -1.891 c 0.324 -1.027 0.879 -2.01 1.691 -2.793 c 0.289 -0.277 0.613 -0.527 0.941 -0.754 m -3.934 3.859 c 0.902 0 1.656 0.699 1.656 1.57 c 0 0.871 -0.754 1.57 -1.656 1.57 c -0.902 0 -1.629 -0.699 -1.629 -1.57 c 0 -0.871 0.727 -1.57 1.629 -1.57 m 11.828 2.137 l 2.797 0 c -0.129 1.492 -0.75 2.863 -1.816 3.957 c -0.688 -0.336 -1.531 -0.336 -2.242 0.066 c -0.719 0.398 -1.133 1.113 -1.172 1.852 c -0.508 0.113 -1.027 0.156 -1.563 0.156 c -1.02 0 -2.023 -0.219 -2.926 -0.625 l 1.398 -2.328 c 0.465 0.191 0.996 0.285 1.523 0.285 c 2.035 0 3.727 -1.465 3.996 -3.363 m 0.035 4.398 c 0.527 0.035 1.023 0.313 1.301 0.785 c 0.453 0.754 0.168 1.73 -0.613 2.168 c -0.781 0.438 -1.789 0.191 -2.242 -0.566 c -0.449 -0.758 -0.164 -1.727 0.617 -2.168 c 0.293 -0.164 0.629 -0.242 0.938 -0.219 m 0 0" fill="#000" stroke="none" fill-rule="nonzero" fill-opacity="1"/></g></g></g></g></g><g><g clip-path="url(#clipPath-034009417)"><!-- color: #f3612d --><g><path d="m 21.254 9 c -0.313 0 -0.586 0.379 -0.586 0.879 l 0 2.953 c 0 0.043 0.027 0.078 0.031 0.121 c -0.863 0.242 -1.695 0.594 -2.469 1.012 l -1.918 -1.855 c -0.125 -0.125 -0.246 -0.188 -0.391 -0.254 c -0.316 -0.207 -0.629 -0.27 -0.809 -0.094 l -3.934 3.801 c -0.23 0.215 -0.105 0.684 0.258 1.039 l 2.02 1.949 c 0.027 0.023 0.039 0.039 0.066 0.063 c -0.297 0.531 -0.574 1.086 -0.781 1.664 l -2.695 0 c -0.371 0 -0.68 0.172 -0.813 0.41 c -0.137 0.117 -0.227 0.273 -0.227 0.441 l 0 6.438 c 0 0.371 0.379 0.66 0.879 0.66 l 2.762 0 c 0.105 0 0.203 -0.039 0.297 -0.066 c 0.219 0.543 0.48 1.066 0.777 1.566 c -0.035 0.031 -0.066 0.066 -0.105 0.098 l -1.977 1.918 c -0.289 0.273 -0.398 0.578 -0.328 0.816 c -0.035 0.172 -0.004 0.34 0.102 0.441 l 3.902 3.801 c 0.223 0.215 0.707 0.098 1.07 -0.25 l 2.02 -1.949 c 0.109 -0.109 0.164 -0.227 0.227 -0.348 c 0.656 0.32 1.355 0.582 2.078 0.785 c -0.004 0.043 -0.031 0.082 -0.031 0.125 l 0 2.918 c 0 0.5 0.273 0.91 0.586 0.91 l 5.492 0 c 0.309 0 0.551 -0.41 0.551 -0.91 l 0 -2.918 c 0 -0.043 0.004 -0.082 0 -0.125 c 0.824 -0.23 1.629 -0.52 2.375 -0.91 c 0.055 0.16 0.141 0.328 0.293 0.473 l 2.02 1.949 c 0.363 0.352 0.82 0.465 1.043 0.25 l 3.934 -3.801 c 0.109 -0.109 0.141 -0.289 0.098 -0.473 c 0.047 -0.234 -0.09 -0.523 -0.355 -0.785 l -1.984 -1.918 c -0.102 -0.098 -0.215 -0.195 -0.328 -0.25 c 0.262 -0.457 0.484 -0.922 0.691 -1.414 c 0.094 0.023 0.188 0.063 0.293 0.063 l 2.727 0 c 0.5 0 0.91 -0.293 0.91 -0.66 l 0 -6.438 c 0 -0.176 -0.109 -0.32 -0.258 -0.438 c -0.004 -0.008 0.004 -0.027 0 -0.035 c -0.012 -0.004 -0.023 -0.023 -0.031 -0.031 c -0.145 -0.203 -0.445 -0.348 -0.781 -0.348 l -2.664 0 c -0.176 -0.5 -0.438 -0.977 -0.684 -1.445 c 0.125 -0.059 0.242 -0.141 0.355 -0.25 l 2.02 -1.949 c 0.363 -0.352 0.449 -0.82 0.23 -1.039 l -3.902 -3.801 c -0.168 -0.164 -0.48 -0.137 -0.781 0.031 c -0.168 0.055 -0.328 0.133 -0.488 0.285 l -1.98 1.914 c -0.02 0.02 -0.02 0.047 -0.031 0.066 c -0.836 -0.477 -1.746 -0.867 -2.695 -1.133 c 0.004 -0.043 0 -0.082 0 -0.121 l 0 -2.953 c 0 -0.5 -0.242 -0.879 -0.555 -0.879 m 0.992 7 c 0.316 -0.02 0.652 0.059 0.941 0.223 c 0.781 0.434 1.031 1.41 0.586 2.168 c -0.449 0.758 -1.43 1 -2.211 0.566 c -0.781 -0.438 -1.07 -1.379 -0.617 -2.137 c 0.285 -0.477 0.773 -0.781 1.301 -0.82 m -3.773 1.539 c 0.531 0 1.059 0.043 1.563 0.156 c 0.043 0.738 0.457 1.457 1.172 1.852 c 0.715 0.402 1.559 0.402 2.242 0.066 c 1.063 1.094 1.688 2.469 1.816 3.957 l -2.797 0 c -0.273 -1.895 -1.961 -3.332 -3.996 -3.332 c -0.527 0 -1.027 0.102 -1.492 0.285 l -1.434 -2.355 c 0.898 -0.41 1.902 -0.629 2.926 -0.629 m -3.898 1.164 l 1.395 2.355 c -0.938 0.715 -1.559 1.832 -1.559 3.078 c 0 1.246 0.617 2.355 1.559 3.078 l -1.395 2.352 c -0.324 -0.223 -0.652 -0.473 -0.941 -0.754 c -0.813 -0.781 -1.367 -1.727 -1.691 -2.762 c 0.645 -0.406 1.074 -1.117 1.074 -1.918 c 0 -0.797 -0.426 -1.48 -1.074 -1.891 c 0.324 -1.027 0.879 -2.01 1.691 -2.793 c 0.289 -0.277 0.613 -0.527 0.941 -0.754 m -3.934 3.859 c 0.902 0 1.656 0.699 1.656 1.57 c 0 0.871 -0.754 1.57 -1.656 1.57 c -0.902 0 -1.629 -0.699 -1.629 -1.57 c 0 -0.871 0.727 -1.57 1.629 -1.57 m 11.828 2.137 l 2.797 0 c -0.129 1.492 -0.75 2.863 -1.816 3.957 c -0.688 -0.336 -1.531 -0.336 -2.242 0.066 c -0.719 0.398 -1.133 1.113 -1.172 1.852 c -0.508 0.113 -1.027 0.156 -1.563 0.156 c -1.02 0 -2.023 -0.219 -2.926 -0.625 l 1.398 -2.328 c 0.465 0.191 0.996 0.285 1.523 0.285 c 2.035 0 3.727 -1.465 3.996 -3.363 m 0.035 4.398 c 0.527 0.035 1.023 0.313 1.301 0.785 c 0.453 0.754 0.168 1.73 -0.613 2.168 c -0.781 0.438 -1.789 0.191 -2.242 -0.566 c -0.449 -0.758 -0.164 -1.727 0.617 -2.168 c 0.293 -0.164 0.629 -0.242 0.938 -0.219 m 0 0" fill="#f9f9f9" stroke="none" fill-rule="nonzero" fill-opacity="1"/></g></g></g><g><path d="m 20 4 -7.313 3.03 -5.656 5.656 -3.03 7.313 0 8 3.03 7.313 5.656 5.656 7.313 3.03 8 0 7.313 -3.03 5.656 -5.656 3.03 -7.313 0 -8 -3.03 -7.313 -5.656 -5.656 -7.313 -3.03 -8 0 z" clip-path="url(#clipPath4313)" transform="matrix(0,1,-1,0,48,0)" opacity="0.3" stroke-opacity="1" stroke-dasharray="none" visibility="visible" fill="none" display="inline" stroke="url(#linearGradient4375)" color="#000" stroke-width="1" stroke-miterlimit="4"/><path d="m 24 2.344 -4 1.656 -4.281 0 -3.03 3.03 l -4 1.656 -1.656 4 l -3.03 3.03 0 4.281 -1.656 4 1.656 4 l 0 4.281 3.03 3.03 1.656 4 4 1.656 l 3.03 3.03 4.281 0 4 1.656 4 -1.656 l 4.281 0 3.03 -3.03 4 -1.656 1.656 -4 l 3.03 -3.03 0 -4.281 1.656 -4 -1.656 -4 l 0 -4.281 -3.03 -3.03 -1.656 -4 -4 -1.656 l -3.03 -3.03 -4.281 0 -4 -1.656 z" clip-path="url(#clipPath4329)" opacity="0.2" stroke-opacity="1" visibility="visible" fill="none" display="inline" stroke="#000" color="#000" stroke-width="2"/></g></svg>