<svg viewBox="0 0 48 48" xmlns:xlink="http://www.w3.org/1999/xlink"><defs><clipPath clipPathUnits="userSpaceOnUse" id="clipPath4313"><path d="m 20 4 -7.313 3.03 -5.656 5.656 -3.03 7.313 0 8 3.03 7.313 5.656 5.656 7.313 3.03 8 0 7.313 -3.03 5.656 -5.656 3.03 -7.313 0 -8 -3.03 -7.313 -5.656 -5.656 -7.313 -3.03 -8 0 z"/></clipPath><clipPath clipPathUnits="userSpaceOnUse" id="clipPath4329"><path d="m 24 2.344 -4 1.656 -4.281 0 -3.03 3.03 l -4 1.656 -1.656 4 l -3.03 3.03 0 4.281 -1.656 4 1.656 4 l 0 4.281 3.03 3.03 1.656 4 4 1.656 l 3.03 3.03 4.281 0 4 1.656 4 -1.656 l 4.281 0 3.03 -3.03 4 -1.656 1.656 -4 l 3.03 -3.03 0 -4.281 1.656 -4 -1.656 -4 l 0 -4.281 -3.03 -3.03 -1.656 -4 -4 -1.656 l -3.03 -3.03 -4.281 0 -4 -1.656 z"/></clipPath><clipPath id="clipPath-418259656"><path d="m 24 2.344 l -4 1.656 l -4.281 0 l -3.03 3.03 l -4 1.656 l -1.656 4 l -3.03 3.03 l 0 4.281 l -1.656 4 l 1.656 4 l 0 4.281 l 3.03 3.03 l 1.656 4 l 4 1.656 l 3.03 3.03 l 4.281 0 l 4 1.656 l 4 -1.656 l 4.281 0 l 3.03 -3.03 l 4 -1.656 l 1.656 -4 l 3.03 -3.03 l 0 -4.281 l 1.656 -4 l -1.656 -4 l 0 -4.281 l -3.03 -3.03 l -1.656 -4 l -4 -1.656 l -3.03 -3.03 l -4.281 0 l -4 -1.656 z"/></clipPath><clipPath id="clipPath-425967642"><path d="m 24 2.344 l -4 1.656 l -4.281 0 l -3.03 3.03 l -4 1.656 l -1.656 4 l -3.03 3.03 l 0 4.281 l -1.656 4 l 1.656 4 l 0 4.281 l 3.03 3.03 l 1.656 4 l 4 1.656 l 3.03 3.03 l 4.281 0 l 4 1.656 l 4 -1.656 l 4.281 0 l 3.03 -3.03 l 4 -1.656 l 1.656 -4 l 3.03 -3.03 l 0 -4.281 l 1.656 -4 l -1.656 -4 l 0 -4.281 l -3.03 -3.03 l -1.656 -4 l -4 -1.656 l -3.03 -3.03 l -4.281 0 l -4 -1.656 z"/></clipPath><linearGradient id="linearGradient4317"><stop stop-color="#fff" stop-opacity="1"/><stop offset="1" stop-color="#fff" stop-opacity="0"/></linearGradient><clipPath clipPathUnits="userSpaceOnUse" id="clipPath4313"><path d="m 20 4 -7.313 3.03 -5.656 5.656 -3.03 7.313 0 8 3.03 7.313 5.656 5.656 7.313 3.03 8 0 7.313 -3.03 5.656 -5.656 3.03 -7.313 0 -8 -3.03 -7.313 -5.656 -5.656 -7.313 -3.03 -8 0 z"/></clipPath><linearGradient x2="44" x1="4" gradientUnits="userSpaceOnUse" id="linearGradient4375" xlink:href="#linearGradient4317"/><clipPath clipPathUnits="userSpaceOnUse" id="clipPath4329"><path d="m 24 2.344 -4 1.656 -4.281 0 -3.03 3.03 l -4 1.656 -1.656 4 l -3.03 3.03 0 4.281 -1.656 4 1.656 4 l 0 4.281 3.03 3.03 1.656 4 4 1.656 l 3.03 3.03 4.281 0 4 1.656 4 -1.656 l 4.281 0 3.03 -3.03 4 -1.656 1.656 -4 l 3.03 -3.03 0 -4.281 1.656 -4 -1.656 -4 l 0 -4.281 -3.03 -3.03 -1.656 -4 -4 -1.656 l -3.03 -3.03 -4.281 0 -4 -1.656 z"/></clipPath><path id="SVGCleanerId_0" d="m 24 2.344 l -4 1.656 l -4.281 0 l -3.03 3.03 l -4 1.656 l -1.656 4 l -3.03 3.03 l 0 4.281 l -1.656 4 l 1.656 4 l 0 4.281 l 3.03 3.03 l 1.656 4 l 4 1.656 l 3.03 3.03 l 4.281 0 l 4 1.656 l 4 -1.656 l 4.281 0 l 3.03 -3.03 l 4 -1.656 l 1.656 -4 l 3.03 -3.03 l 0 -4.281 l 1.656 -4 l -1.656 -4 l 0 -4.281 l -3.03 -3.03 l -1.656 -4 l -4 -1.656 l -3.03 -3.03 l -4.281 0 l -4 -1.656 z" visibility="visible" display="inline" fill-rule="nonzero" color="#000" fill-opacity="1"/></defs><g><path d="m 2.563 24.5 l -0.219 0.5 l 1.656 4 l 0 -1 l -1.438 -3.5 z m 42.875 0 l -1.438 3.5 l 0 1 l 1.656 -4 l -0.219 -0.5 z m -41.44 7.781 l 0 1 l 3.03 3.03 l 1.656 4 l 4 1.656 l 3.03 3.03 l 4.281 0 l 4 1.656 l 4 -1.656 l 4.281 0 l 3.03 -3.03 l 4 -1.656 l 1.656 -4 l 3.03 -3.03 l 0 -1 l -3.03 3.03 l -1.656 4 l -4 1.656 l -3.03 3.03 l -4.281 0 l -4 1.656 l -4 -1.656 l -4.281 0 l -3.03 -3.03 l -4 -1.656 l -1.656 -4 l -3.03 -3.03 z" opacity="0.3" visibility="visible" fill="#000" display="inline" fill-rule="nonzero" stroke="none" fill-opacity="1" color="#000"/></g><g><use fill="#eee" stroke="none" xlink:href="#SVGCleanerId_0"/><path d="m 24 2.344 l -4 1.656 l 8 0 l -4 -1.656 z m 4 1.656 l 7.313 3.03 l -3.03 -3.03 l -4.281 0 z m 7.313 3.03 l 5.656 5.656 l -1.656 -4 l -4 -1.656 z m 5.656 5.656 l 3.03 7.313 l 0 -4.281 l -3.03 -3.03 z m 3.03 7.313 l 0 8 l 1.656 -4 l -1.656 -4 z m 0 8 l -3.03 7.313 l 3.03 -3.03 l 0 -4.281 z m -3.03 7.313 l -5.656 5.656 l 4 -1.656 l 1.656 -4 z m -5.656 5.656 l -7.313 3.03 l 4.281 0 l 3.03 -3.03 z m -7.313 3.03 l -8 0 l 4 1.656 l 4 -1.656 z m -8 0 l -7.313 -3.03 l 3.03 3.03 l 4.281 0 z m -7.313 -3.03 l -5.656 -5.656 l 1.656 4 l 4 1.656 z m -5.656 -5.656 l -3.03 -7.313 l 0 4.281 l 3.03 3.03 z m -3.03 -7.313 l 0 -8 l -1.656 4 l 1.656 4 z m 0 -8 l 3.03 -7.313 l -3.03 3.03 l 0 4.281 z m 3.03 -7.313 l 5.656 -5.656 l -4 1.656 l -1.656 4 z m 5.656 -5.656 l 7.313 -3.03 l -4.281 0 l -3.03 3.03 z" opacity="0.05" visibility="visible" fill="#eee" display="inline" fill-rule="nonzero" stroke="none" fill-opacity="1" color="#000"/></g><g><use opacity="0.05" stroke-opacity="1" stroke-dasharray="none" fill="#000" stroke="#000" stroke-width="2" stroke-miterlimit="4" xlink:href="#SVGCleanerId_0"/><use opacity="0.1" stroke-opacity="1" stroke-dasharray="none" fill="#000" stroke="#000" stroke-width="1" stroke-miterlimit="4" xlink:href="#SVGCleanerId_0"/></g><g><g clip-path="url(#clipPath-418259656)"><g transform="translate(0,1)"><g opacity="0.1"><!-- color: #eeeeee --><g><path d="m 22.762 13.199 c 0 1.215 -0.977 2.199 -2.184 2.199 c -1.203 0 -2.18 -0.984 -2.18 -2.199 c 0 -1.215 0.973 -2.199 2.18 -2.199 c 1.207 0 2.184 0.984 2.184 2.199 m 0 0" fill="#000" stroke="none" fill-rule="nonzero" fill-opacity="1"/><path d="m 26.371 19.309 c 0 1.012 -0.813 1.832 -1.816 1.832 c -1 0 -1.82 -0.82 -1.82 -1.832 c 0 -1.012 0.813 -1.832 1.82 -1.832 c 1 0 1.816 0.82 1.816 1.832 m 0 0" fill="#000" stroke="none" fill-rule="nonzero" fill-opacity="1"/><path d="m 36 20.867 c 0 2.027 -1.625 3.668 -3.637 3.668 c -2.01 0 -3.637 -1.641 -3.637 -3.668 c 0 -2.023 1.625 -3.664 3.637 -3.664 c 2.01 0 3.637 1.641 3.637 3.664 m 0 0" fill="#000" stroke="none" fill-rule="nonzero" fill-opacity="1"/><path d="m 25.09 26.734 c 0 3.645 -2.926 6.602 -6.547 6.602 c -3.613 0 -6.547 -2.957 -6.547 -6.602 c 0 -3.645 2.926 -6.598 6.547 -6.598 c 3.617 0 6.547 2.953 6.547 6.598 m 0 0" fill="#000" stroke="none" fill-rule="nonzero" fill-opacity="1"/><path d="m 25.816 35.535 c 0 0.809 -0.648 1.465 -1.453 1.465 c -0.805 0 -1.453 -0.656 -1.453 -1.465 c 0 -0.813 0.648 -1.469 1.453 -1.469 c 0.805 0 1.453 0.656 1.453 1.469 m 0 0" fill="#000" stroke="none" fill-rule="nonzero" fill-opacity="1"/><path d="m 19.703 14.234 l -1.023 7.309 l 0.727 0.094 l 1.023 -7.309 m -0.727 -0.094" fill="#000" stroke="none" fill-rule="nonzero" fill-opacity="1"/><path d="m 23.418 19.836 l -1.047 2.84 l 0.723 0.246 l 1.047 -2.844 m -0.723 -0.242" fill="#000" stroke="none" fill-rule="nonzero" fill-opacity="1"/><path d="m 29.941 21.621 l -6.363 5.277 l 0.484 0.57 l 6.363 -5.277 m -0.484 -0.57" fill="#000" stroke="none" fill-rule="nonzero" fill-opacity="1"/><path d="m 22.934 29.25 l -0.645 0.164 l 1.289 5.113 l 0.645 -0.164 m -1.289 -5.113" fill="#000" stroke="none" fill-rule="nonzero" fill-opacity="1"/></g></g></g></g></g><g><g clip-path="url(#clipPath-425967642)"><!-- color: #eeeeee --><g><path d="m 22.762 13.199 c 0 1.215 -0.977 2.199 -2.184 2.199 c -1.203 0 -2.18 -0.984 -2.18 -2.199 c 0 -1.215 0.973 -2.199 2.18 -2.199 c 1.207 0 2.184 0.984 2.184 2.199 m 0 0" fill="#f36f20" stroke="none" fill-rule="nonzero" fill-opacity="1"/><path d="m 26.371 19.309 c 0 1.012 -0.813 1.832 -1.816 1.832 c -1 0 -1.82 -0.82 -1.82 -1.832 c 0 -1.012 0.813 -1.832 1.82 -1.832 c 1 0 1.816 0.82 1.816 1.832 m 0 0" fill="#f36f20" stroke="none" fill-rule="nonzero" fill-opacity="1"/><path d="m 36 20.867 c 0 2.027 -1.625 3.668 -3.637 3.668 c -2.01 0 -3.637 -1.641 -3.637 -3.668 c 0 -2.023 1.625 -3.664 3.637 -3.664 c 2.01 0 3.637 1.641 3.637 3.664 m 0 0" fill="#f36f20" stroke="none" fill-rule="nonzero" fill-opacity="1"/><path d="m 25.09 26.734 c 0 3.645 -2.926 6.602 -6.547 6.602 c -3.613 0 -6.547 -2.957 -6.547 -6.602 c 0 -3.645 2.926 -6.598 6.547 -6.598 c 3.617 0 6.547 2.953 6.547 6.598 m 0 0" fill="#f36f20" stroke="none" fill-rule="nonzero" fill-opacity="1"/><path d="m 25.816 35.535 c 0 0.809 -0.648 1.465 -1.453 1.465 c -0.805 0 -1.453 -0.656 -1.453 -1.465 c 0 -0.813 0.648 -1.469 1.453 -1.469 c 0.805 0 1.453 0.656 1.453 1.469 m 0 0" fill="#f36f20" stroke="none" fill-rule="nonzero" fill-opacity="1"/><path d="m 19.703 14.234 l -1.023 7.309 l 0.727 0.094 l 1.023 -7.309 m -0.727 -0.094" fill="#f36f20" stroke="none" fill-rule="nonzero" fill-opacity="1"/><path d="m 23.418 19.836 l -1.047 2.84 l 0.723 0.246 l 1.047 -2.844 m -0.723 -0.242" fill="#f36f20" stroke="none" fill-rule="nonzero" fill-opacity="1"/><path d="m 29.941 21.621 l -6.363 5.277 l 0.484 0.57 l 6.363 -5.277 m -0.484 -0.57" fill="#f36f20" stroke="none" fill-rule="nonzero" fill-opacity="1"/><path d="m 22.934 29.25 l -0.645 0.164 l 1.289 5.113 l 0.645 -0.164 m -1.289 -5.113" fill="#f36f20" stroke="none" fill-rule="nonzero" fill-opacity="1"/></g></g></g><g><path d="m 20 4 -7.313 3.03 -5.656 5.656 -3.03 7.313 0 8 3.03 7.313 5.656 5.656 7.313 3.03 8 0 7.313 -3.03 5.656 -5.656 3.03 -7.313 0 -8 -3.03 -7.313 -5.656 -5.656 -7.313 -3.03 -8 0 z" clip-path="url(#clipPath4313)" transform="matrix(0,1,-1,0,48,0)" opacity="0.3" stroke-opacity="1" stroke-dasharray="none" visibility="visible" fill="none" display="inline" stroke="url(#linearGradient4375)" color="#000" stroke-width="1" stroke-miterlimit="4"/><path d="m 24 2.344 -4 1.656 -4.281 0 -3.03 3.03 l -4 1.656 -1.656 4 l -3.03 3.03 0 4.281 -1.656 4 1.656 4 l 0 4.281 3.03 3.03 1.656 4 4 1.656 l 3.03 3.03 4.281 0 4 1.656 4 -1.656 l 4.281 0 3.03 -3.03 4 -1.656 1.656 -4 l 3.03 -3.03 0 -4.281 1.656 -4 -1.656 -4 l 0 -4.281 -3.03 -3.03 -1.656 -4 -4 -1.656 l -3.03 -3.03 -4.281 0 -4 -1.656 z" clip-path="url(#clipPath4329)" opacity="0.2" stroke-opacity="1" visibility="visible" fill="none" display="inline" stroke="#000" color="#000" stroke-width="2"/></g></svg>