<svg viewBox="0 0 48 48" xmlns:xlink="http://www.w3.org/1999/xlink"><defs><clipPath clipPathUnits="userSpaceOnUse" id="clipPath4313"><path d="m 20 4 -7.313 3.03 -5.656 5.656 -3.03 7.313 0 8 3.03 7.313 5.656 5.656 7.313 3.03 8 0 7.313 -3.03 5.656 -5.656 3.03 -7.313 0 -8 -3.03 -7.313 -5.656 -5.656 -7.313 -3.03 -8 0 z"/></clipPath><clipPath clipPathUnits="userSpaceOnUse" id="clipPath4329"><path d="m 24 2.344 -4 1.656 -4.281 0 -3.03 3.03 l -4 1.656 -1.656 4 l -3.03 3.03 0 4.281 -1.656 4 1.656 4 l 0 4.281 3.03 3.03 1.656 4 4 1.656 l 3.03 3.03 4.281 0 4 1.656 4 -1.656 l 4.281 0 3.03 -3.03 4 -1.656 1.656 -4 l 3.03 -3.03 0 -4.281 1.656 -4 -1.656 -4 l 0 -4.281 -3.03 -3.03 -1.656 -4 -4 -1.656 l -3.03 -3.03 -4.281 0 -4 -1.656 z"/></clipPath><clipPath id="clipPath-228138569"><path d="m 24 2.344 l -4 1.656 l -4.281 0 l -3.03 3.03 l -4 1.656 l -1.656 4 l -3.03 3.03 l 0 4.281 l -1.656 4 l 1.656 4 l 0 4.281 l 3.03 3.03 l 1.656 4 l 4 1.656 l 3.03 3.03 l 4.281 0 l 4 1.656 l 4 -1.656 l 4.281 0 l 3.03 -3.03 l 4 -1.656 l 1.656 -4 l 3.03 -3.03 l 0 -4.281 l 1.656 -4 l -1.656 -4 l 0 -4.281 l -3.03 -3.03 l -1.656 -4 l -4 -1.656 l -3.03 -3.03 l -4.281 0 l -4 -1.656 z"/></clipPath><clipPath id="clipPath-239682703"><path d="m 24 2.344 l -4 1.656 l -4.281 0 l -3.03 3.03 l -4 1.656 l -1.656 4 l -3.03 3.03 l 0 4.281 l -1.656 4 l 1.656 4 l 0 4.281 l 3.03 3.03 l 1.656 4 l 4 1.656 l 3.03 3.03 l 4.281 0 l 4 1.656 l 4 -1.656 l 4.281 0 l 3.03 -3.03 l 4 -1.656 l 1.656 -4 l 3.03 -3.03 l 0 -4.281 l 1.656 -4 l -1.656 -4 l 0 -4.281 l -3.03 -3.03 l -1.656 -4 l -4 -1.656 l -3.03 -3.03 l -4.281 0 l -4 -1.656 z"/></clipPath><linearGradient id="linearGradient4317"><stop stop-color="#fff" stop-opacity="1"/><stop offset="1" stop-color="#fff" stop-opacity="0"/></linearGradient><clipPath clipPathUnits="userSpaceOnUse" id="clipPath4313"><path d="m 20 4 -7.313 3.03 -5.656 5.656 -3.03 7.313 0 8 3.03 7.313 5.656 5.656 7.313 3.03 8 0 7.313 -3.03 5.656 -5.656 3.03 -7.313 0 -8 -3.03 -7.313 -5.656 -5.656 -7.313 -3.03 -8 0 z"/></clipPath><linearGradient x2="44" x1="4" gradientUnits="userSpaceOnUse" id="linearGradient4375" xlink:href="#linearGradient4317"/><clipPath clipPathUnits="userSpaceOnUse" id="clipPath4329"><path d="m 24 2.344 -4 1.656 -4.281 0 -3.03 3.03 l -4 1.656 -1.656 4 l -3.03 3.03 0 4.281 -1.656 4 1.656 4 l 0 4.281 3.03 3.03 1.656 4 4 1.656 l 3.03 3.03 4.281 0 4 1.656 4 -1.656 l 4.281 0 3.03 -3.03 4 -1.656 1.656 -4 l 3.03 -3.03 0 -4.281 1.656 -4 -1.656 -4 l 0 -4.281 -3.03 -3.03 -1.656 -4 -4 -1.656 l -3.03 -3.03 -4.281 0 -4 -1.656 z"/></clipPath><path id="SVGCleanerId_0" d="m 24 2.344 l -4 1.656 l -4.281 0 l -3.03 3.03 l -4 1.656 l -1.656 4 l -3.03 3.03 l 0 4.281 l -1.656 4 l 1.656 4 l 0 4.281 l 3.03 3.03 l 1.656 4 l 4 1.656 l 3.03 3.03 l 4.281 0 l 4 1.656 l 4 -1.656 l 4.281 0 l 3.03 -3.03 l 4 -1.656 l 1.656 -4 l 3.03 -3.03 l 0 -4.281 l 1.656 -4 l -1.656 -4 l 0 -4.281 l -3.03 -3.03 l -1.656 -4 l -4 -1.656 l -3.03 -3.03 l -4.281 0 l -4 -1.656 z" visibility="visible" display="inline" fill-rule="nonzero" color="#000" fill-opacity="1"/></defs><g><path d="m 2.563 24.5 l -0.219 0.5 l 1.656 4 l 0 -1 l -1.438 -3.5 z m 42.875 0 l -1.438 3.5 l 0 1 l 1.656 -4 l -0.219 -0.5 z m -41.44 7.781 l 0 1 l 3.03 3.03 l 1.656 4 l 4 1.656 l 3.03 3.03 l 4.281 0 l 4 1.656 l 4 -1.656 l 4.281 0 l 3.03 -3.03 l 4 -1.656 l 1.656 -4 l 3.03 -3.03 l 0 -1 l -3.03 3.03 l -1.656 4 l -4 1.656 l -3.03 3.03 l -4.281 0 l -4 1.656 l -4 -1.656 l -4.281 0 l -3.03 -3.03 l -4 -1.656 l -1.656 -4 l -3.03 -3.03 z" opacity="0.3" visibility="visible" fill="#000" display="inline" fill-rule="nonzero" stroke="none" fill-opacity="1" color="#000"/></g><g><use fill="#0084c8" stroke="none" xlink:href="#SVGCleanerId_0"/><path d="m 24 2.344 l -4 1.656 l 8 0 l -4 -1.656 z m 4 1.656 l 7.313 3.03 l -3.03 -3.03 l -4.281 0 z m 7.313 3.03 l 5.656 5.656 l -1.656 -4 l -4 -1.656 z m 5.656 5.656 l 3.03 7.313 l 0 -4.281 l -3.03 -3.03 z m 3.03 7.313 l 0 8 l 1.656 -4 l -1.656 -4 z m 0 8 l -3.03 7.313 l 3.03 -3.03 l 0 -4.281 z m -3.03 7.313 l -5.656 5.656 l 4 -1.656 l 1.656 -4 z m -5.656 5.656 l -7.313 3.03 l 4.281 0 l 3.03 -3.03 z m -7.313 3.03 l -8 0 l 4 1.656 l 4 -1.656 z m -8 0 l -7.313 -3.03 l 3.03 3.03 l 4.281 0 z m -7.313 -3.03 l -5.656 -5.656 l 1.656 4 l 4 1.656 z m -5.656 -5.656 l -3.03 -7.313 l 0 4.281 l 3.03 3.03 z m -3.03 -7.313 l 0 -8 l -1.656 4 l 1.656 4 z m 0 -8 l 3.03 -7.313 l -3.03 3.03 l 0 4.281 z m 3.03 -7.313 l 5.656 -5.656 l -4 1.656 l -1.656 4 z m 5.656 -5.656 l 7.313 -3.03 l -4.281 0 l -3.03 3.03 z" opacity="0.05" visibility="visible" fill="#0084c8" display="inline" fill-rule="nonzero" stroke="none" fill-opacity="1" color="#000"/></g><g><use opacity="0.05" stroke-opacity="1" stroke-dasharray="none" fill="#000" stroke="#000" stroke-width="2" stroke-miterlimit="4" xlink:href="#SVGCleanerId_0"/><use opacity="0.1" stroke-opacity="1" stroke-dasharray="none" fill="#000" stroke="#000" stroke-width="1" stroke-miterlimit="4" xlink:href="#SVGCleanerId_0"/></g><g><g clip-path="url(#clipPath-228138569)"><g transform="translate(0,1)"><g opacity="0.1"><!-- color: #0084c8 --><g><path d="m 12.04 16.297 c 0.367 0.168 0.754 0.605 0.754 0.605 l 6.871 1.32 c 0 0 0.121 -0.203 0.25 -0.379 l 0.23 -0.32 l 4.281 0 l 0.066 -0.293 l 0.066 -0.289 l 4.379 0 l 0.07 0.324 l 0.066 0.332 l 1.406 0.016 l 1.406 0.023 l 0.02 1.605 l 0.02 1.609 l -1.949 0 l 0.074 0.313 l 0.078 0.313 l 6.01 0 l 0.582 2.68 l 0.754 0.043 c 1.031 0.133 1.648 0.492 2.234 1.313 c 0.066 0.094 0.301 0.734 0.301 1.203 c -0.039 0.684 -0.242 1.238 -0.605 1.805 c -0.188 0.297 -0.438 0.629 -0.867 0.91 c -0.211 0.145 -0.523 0.398 -0.719 0.574 c -0.57 0.523 -1.227 0.953 -1.84 1.41 c -0.352 0.262 -0.805 0.434 -1.293 0.539 c -0.168 0.035 -4.926 0.063 -10.582 0.055 c -9.418 -0.012 -10.313 -0.027 -10.699 -0.145 c -0.637 -0.195 -1.301 -0.578 -1.516 -0.789 c -0.898 -0.738 -2.234 -1.813 -2.754 -2.145 c -0.523 -0.328 -0.672 -0.691 -0.855 -1.02 c -0.082 -0.141 -0.168 -0.426 -0.199 -0.625 c -0.07 -0.461 -0.098 -0.848 -0.027 -1.281 c 0.063 -0.434 0.395 -1.129 0.645 -1.328 c 0.563 -0.449 1.324 -0.629 2.742 -0.629 l 0.852 -0.004 l -0.113 -0.57 l 2.813 -1.895 l 4.113 -0.211 l -0.953 -1.195 l 0.707 -0.953 l -6.152 -1.57 c 0 0 -0.488 0.168 -0.883 0.133 c -0.391 -0.035 -1.355 -0.371 -1.355 -0.371 l 0.211 -1.402 c 0 0 0.93 0.145 1.375 0.289 m 24.563 13.645 c -0.324 0 -0.453 0.027 -0.453 0.102 c 0 0.059 -0.082 0.266 -0.18 0.465 c -0.105 0.199 -0.176 0.363 -0.172 0.359 c 0.004 0 0.098 -0.074 0.199 -0.152 c 0.102 -0.086 0.215 -0.152 0.242 -0.152 c 0.066 -0.004 0.813 -0.547 0.813 -0.594 c 0 -0.016 -0.203 -0.031 -0.453 -0.031 m -24.672 0.004 c -0.035 0 -0.074 0 -0.121 0 c -0.199 0 -0.363 0.012 -0.363 0.027 c 0 0.016 0.195 0.184 0.438 0.375 c 0.234 0.191 0.52 0.395 0.621 0.449 l 0.188 0.102 l -0.164 -0.168 c -0.094 -0.09 -0.211 -0.305 -0.262 -0.473 c -0.078 -0.27 -0.09 -0.305 -0.336 -0.313 m 16.14 0.852 c -0.016 0 -0.027 0.031 -0.051 0.078 c -0.027 0.066 -0.184 0.25 -0.348 0.41 l -0.309 0.289 l 0.75 -0.004 l 0.746 -0.004 l -0.188 -0.156 c -0.398 -0.32 -0.504 -0.43 -0.559 -0.539 c -0.02 -0.051 -0.031 -0.074 -0.051 -0.074 m -3.852 0.004 c -0.016 0 -0.027 0.023 -0.047 0.074 c -0.066 0.141 -0.313 0.387 -0.563 0.563 c -0.184 0.125 -0.168 0.129 0.563 0.133 l 0.754 0.004 l -0.309 -0.289 c -0.168 -0.16 -0.328 -0.344 -0.352 -0.41 c -0.023 -0.047 -0.035 -0.066 -0.051 -0.066 m 7.781 0.004 c -0.012 0 -0.027 0.02 -0.047 0.063 c -0.043 0.105 -0.145 0.195 -0.555 0.543 l -0.188 0.156 l 0.746 0.004 l 0.754 0.004 l -0.305 -0.289 c -0.168 -0.156 -0.328 -0.344 -0.352 -0.406 c -0.023 -0.043 -0.035 -0.07 -0.055 -0.074 m -15.566 0.004 c -0.016 -0.004 -0.027 0.016 -0.043 0.055 c -0.098 0.203 -0.426 0.559 -0.527 0.559 c -0.055 0 -0.121 0.035 -0.148 0.078 c -0.027 0.051 0.23 0.074 0.734 0.074 c 0.637 -0.004 0.75 -0.02 0.629 -0.094 c -0.203 -0.129 -0.535 -0.457 -0.594 -0.598 c -0.016 -0.047 -0.035 -0.066 -0.051 -0.07 m 3.813 0.055 c -0.012 0 -0.02 0.008 -0.023 0.02 c -0.02 0.059 -0.168 0.238 -0.328 0.398 l -0.297 0.289 l 1.457 0 l -0.398 -0.395 c -0.219 -0.215 -0.355 -0.32 -0.41 -0.316 m 0 0" fill="#000" stroke="none" fill-rule="nonzero" fill-opacity="1"/><path d="m 18 26 c 0 1 -0.258 0.938 -1 1 l -2 0 l 0 1 l 3 0 l 0 2 l -4.996 -0.004 l -0.004 -2.996 c 0 -1 0.492 -1 1 -1 l 1.301 0 c 0.379 0 0.57 -0.027 0.57 -0.207 l 0 -0.48 c 0 -0.164 -0.191 -0.313 -0.57 -0.313 l -2.301 0 l 0.02 -1 c 1.309 0 2.73 0 3.977 0.004 c 1 0 1 0.75 1 1 l 0 1" fill="#000" stroke="none" fill-rule="nonzero" fill-opacity="1"/><path d="m 23 30 l -2 0 l 0 -5 l -2 0 l 0 -1 l 3.996 0 l 0 6" fill="#000" stroke="none" fill-rule="nonzero" fill-opacity="1"/><path d="m 28.973 29.22 c 0.027 0.777 -0.57 0.777 -0.926 0.766 l -3 0 c -0.961 0 -1.047 -0.258 -1.047 -0.77 l 0 -4.438 c 0 -0.781 0.707 -0.781 1.047 -0.781 l 2.953 0.012 c 1 0 1 0.48 0.973 0.793 l 0 4.43 m -1.977 -0.516 l 0 -3.398 c 0 -0.184 -0.109 -0.313 -0.496 -0.313 c -0.379 0 -0.5 0.133 -0.5 0.313 l 0 3.398 c 0 0.148 0.121 0.281 0.5 0.281 c 0.387 0 0.496 -0.133 0.496 -0.281" fill="#000" stroke="none" fill-rule="nonzero" fill-opacity="1"/><path d="m 35 29.01 c 0 0.215 0 1 -1 1 l -3 0 c -1 0 -1 -0.617 -1 -1 l 0 -4.23 c 0 -0.773 0.613 -0.773 1 -0.773 l 3 0 c 0.188 0 1 0 1 0.895 m -2 0.422 c 0 -0.188 -0.109 -0.313 -0.496 -0.313 c -0.379 0 -0.5 0.188 -0.5 0.371 l 0 3.313 c 0 0.16 0.121 0.316 0.5 0.316 c 0.387 0 0.496 -0.109 0.496 -0.273" fill="#000" stroke="none" fill-rule="nonzero" fill-opacity="1"/></g></g></g></g></g><g><g clip-path="url(#clipPath-239682703)"><!-- color: #0084c8 --><g><path d="m 12.04 16.297 c 0.367 0.168 0.754 0.605 0.754 0.605 l 6.871 1.32 c 0 0 0.121 -0.203 0.25 -0.379 l 0.23 -0.32 l 4.281 0 l 0.066 -0.293 l 0.066 -0.289 l 4.379 0 l 0.07 0.324 l 0.066 0.332 l 1.406 0.016 l 1.406 0.023 l 0.02 1.605 l 0.02 1.609 l -1.949 0 l 0.074 0.313 l 0.078 0.313 l 6.01 0 l 0.582 2.68 l 0.754 0.043 c 1.031 0.133 1.648 0.492 2.234 1.313 c 0.066 0.094 0.301 0.734 0.301 1.203 c -0.039 0.684 -0.242 1.238 -0.605 1.805 c -0.188 0.297 -0.438 0.629 -0.867 0.91 c -0.211 0.145 -0.523 0.398 -0.719 0.574 c -0.57 0.523 -1.227 0.953 -1.84 1.41 c -0.352 0.262 -0.805 0.434 -1.293 0.539 c -0.168 0.035 -4.926 0.063 -10.582 0.055 c -9.418 -0.012 -10.313 -0.027 -10.699 -0.145 c -0.637 -0.195 -1.301 -0.578 -1.516 -0.789 c -0.898 -0.738 -2.234 -1.813 -2.754 -2.145 c -0.523 -0.328 -0.672 -0.691 -0.855 -1.02 c -0.082 -0.141 -0.168 -0.426 -0.199 -0.625 c -0.07 -0.461 -0.098 -0.848 -0.027 -1.281 c 0.063 -0.434 0.395 -1.129 0.645 -1.328 c 0.563 -0.449 1.324 -0.629 2.742 -0.629 l 0.852 -0.004 l -0.113 -0.57 l 2.813 -1.895 l 4.113 -0.211 l -0.953 -1.195 l 0.707 -0.953 l -6.152 -1.57 c 0 0 -0.488 0.168 -0.883 0.133 c -0.391 -0.035 -1.355 -0.371 -1.355 -0.371 l 0.211 -1.402 c 0 0 0.93 0.145 1.375 0.289 m 24.563 13.645 c -0.324 0 -0.453 0.027 -0.453 0.102 c 0 0.059 -0.082 0.266 -0.18 0.465 c -0.105 0.199 -0.176 0.363 -0.172 0.359 c 0.004 0 0.098 -0.074 0.199 -0.152 c 0.102 -0.086 0.215 -0.152 0.242 -0.152 c 0.066 -0.004 0.813 -0.547 0.813 -0.594 c 0 -0.016 -0.203 -0.031 -0.453 -0.031 m -24.672 0.004 c -0.035 0 -0.074 0 -0.121 0 c -0.199 0 -0.363 0.012 -0.363 0.027 c 0 0.016 0.195 0.184 0.438 0.375 c 0.234 0.191 0.52 0.395 0.621 0.449 l 0.188 0.102 l -0.164 -0.168 c -0.094 -0.09 -0.211 -0.305 -0.262 -0.473 c -0.078 -0.27 -0.09 -0.305 -0.336 -0.313 m 16.14 0.852 c -0.016 0 -0.027 0.031 -0.051 0.078 c -0.027 0.066 -0.184 0.25 -0.348 0.41 l -0.309 0.289 l 0.75 -0.004 l 0.746 -0.004 l -0.188 -0.156 c -0.398 -0.32 -0.504 -0.43 -0.559 -0.539 c -0.02 -0.051 -0.031 -0.074 -0.051 -0.074 m -3.852 0.004 c -0.016 0 -0.027 0.023 -0.047 0.074 c -0.066 0.141 -0.313 0.387 -0.563 0.563 c -0.184 0.125 -0.168 0.129 0.563 0.133 l 0.754 0.004 l -0.309 -0.289 c -0.168 -0.16 -0.328 -0.344 -0.352 -0.41 c -0.023 -0.047 -0.035 -0.066 -0.051 -0.066 m 7.781 0.004 c -0.012 0 -0.027 0.02 -0.047 0.063 c -0.043 0.105 -0.145 0.195 -0.555 0.543 l -0.188 0.156 l 0.746 0.004 l 0.754 0.004 l -0.305 -0.289 c -0.168 -0.156 -0.328 -0.344 -0.352 -0.406 c -0.023 -0.043 -0.035 -0.07 -0.055 -0.074 m -15.566 0.004 c -0.016 -0.004 -0.027 0.016 -0.043 0.055 c -0.098 0.203 -0.426 0.559 -0.527 0.559 c -0.055 0 -0.121 0.035 -0.148 0.078 c -0.027 0.051 0.23 0.074 0.734 0.074 c 0.637 -0.004 0.75 -0.02 0.629 -0.094 c -0.203 -0.129 -0.535 -0.457 -0.594 -0.598 c -0.016 -0.047 -0.035 -0.066 -0.051 -0.07 m 3.813 0.055 c -0.012 0 -0.02 0.008 -0.023 0.02 c -0.02 0.059 -0.168 0.238 -0.328 0.398 l -0.297 0.289 l 1.457 0 l -0.398 -0.395 c -0.219 -0.215 -0.355 -0.32 -0.41 -0.316 m 0 0" fill="#00436e" stroke="none" fill-rule="nonzero" fill-opacity="1"/><path d="m 18 26 c 0 1 -0.258 0.938 -1 1 l -2 0 l 0 1 l 3 0 l 0 2 l -4.996 -0.004 l -0.004 -2.996 c 0 -1 0.492 -1 1 -1 l 1.301 0 c 0.379 0 0.57 -0.027 0.57 -0.207 l 0 -0.48 c 0 -0.164 -0.191 -0.313 -0.57 -0.313 l -2.301 0 l 0.02 -1 c 1.309 0 2.73 0 3.977 0.004 c 1 0 1 0.75 1 1 l 0 1" fill="#fff" stroke="none" fill-rule="nonzero" fill-opacity="1"/><path d="m 23 30 l -2 0 l 0 -5 l -2 0 l 0 -1 l 3.996 0 l 0 6" fill="#fff" stroke="none" fill-rule="nonzero" fill-opacity="1"/><path d="m 28.973 29.22 c 0.027 0.777 -0.57 0.777 -0.926 0.766 l -3 0 c -0.961 0 -1.047 -0.258 -1.047 -0.77 l 0 -4.438 c 0 -0.781 0.707 -0.781 1.047 -0.781 l 2.953 0.012 c 1 0 1 0.48 0.973 0.793 l 0 4.43 m -1.977 -0.516 l 0 -3.398 c 0 -0.184 -0.109 -0.313 -0.496 -0.313 c -0.379 0 -0.5 0.133 -0.5 0.313 l 0 3.398 c 0 0.148 0.121 0.281 0.5 0.281 c 0.387 0 0.496 -0.133 0.496 -0.281" fill="#fff" stroke="none" fill-rule="nonzero" fill-opacity="1"/><path d="m 35 29.01 c 0 0.215 0 1 -1 1 l -3 0 c -1 0 -1 -0.617 -1 -1 l 0 -4.23 c 0 -0.773 0.613 -0.773 1 -0.773 l 3 0 c 0.188 0 1 0 1 0.895 m -2 0.422 c 0 -0.188 -0.109 -0.313 -0.496 -0.313 c -0.379 0 -0.5 0.188 -0.5 0.371 l 0 3.313 c 0 0.16 0.121 0.316 0.5 0.316 c 0.387 0 0.496 -0.109 0.496 -0.273" fill="#fff" stroke="none" fill-rule="nonzero" fill-opacity="1"/></g></g></g><g><path d="m 20 4 -7.313 3.03 -5.656 5.656 -3.03 7.313 0 8 3.03 7.313 5.656 5.656 7.313 3.03 8 0 7.313 -3.03 5.656 -5.656 3.03 -7.313 0 -8 -3.03 -7.313 -5.656 -5.656 -7.313 -3.03 -8 0 z" clip-path="url(#clipPath4313)" transform="matrix(0,1,-1,0,48,0)" opacity="0.3" stroke-opacity="1" stroke-dasharray="none" visibility="visible" fill="none" display="inline" stroke="url(#linearGradient4375)" color="#000" stroke-width="1" stroke-miterlimit="4"/><path d="m 24 2.344 -4 1.656 -4.281 0 -3.03 3.03 l -4 1.656 -1.656 4 l -3.03 3.03 0 4.281 -1.656 4 1.656 4 l 0 4.281 3.03 3.03 1.656 4 4 1.656 l 3.03 3.03 4.281 0 4 1.656 4 -1.656 l 4.281 0 3.03 -3.03 4 -1.656 1.656 -4 l 3.03 -3.03 0 -4.281 1.656 -4 -1.656 -4 l 0 -4.281 -3.03 -3.03 -1.656 -4 -4 -1.656 l -3.03 -3.03 -4.281 0 -4 -1.656 z" clip-path="url(#clipPath4329)" opacity="0.2" stroke-opacity="1" visibility="visible" fill="none" display="inline" stroke="#000" color="#000" stroke-width="2"/></g></svg>