<svg viewBox="0 0 48 48" xmlns:xlink="http://www.w3.org/1999/xlink"><defs><clipPath clipPathUnits="userSpaceOnUse" id="clipPath4313"><path d="m 20 4 -7.313 3.03 -5.656 5.656 -3.03 7.313 0 8 3.03 7.313 5.656 5.656 7.313 3.03 8 0 7.313 -3.03 5.656 -5.656 3.03 -7.313 0 -8 -3.03 -7.313 -5.656 -5.656 -7.313 -3.03 -8 0 z"/></clipPath><clipPath clipPathUnits="userSpaceOnUse" id="clipPath4329"><path d="m 24 2.344 -4 1.656 -4.281 0 -3.03 3.03 l -4 1.656 -1.656 4 l -3.03 3.03 0 4.281 -1.656 4 1.656 4 l 0 4.281 3.03 3.03 1.656 4 4 1.656 l 3.03 3.03 4.281 0 4 1.656 4 -1.656 l 4.281 0 3.03 -3.03 4 -1.656 1.656 -4 l 3.03 -3.03 0 -4.281 1.656 -4 -1.656 -4 l 0 -4.281 -3.03 -3.03 -1.656 -4 -4 -1.656 l -3.03 -3.03 -4.281 0 -4 -1.656 z"/></clipPath><clipPath id="clipPath-939665731"><path d="m 24 2.344 l -4 1.656 l -4.281 0 l -3.03 3.03 l -4 1.656 l -1.656 4 l -3.03 3.03 l 0 4.281 l -1.656 4 l 1.656 4 l 0 4.281 l 3.03 3.03 l 1.656 4 l 4 1.656 l 3.03 3.03 l 4.281 0 l 4 1.656 l 4 -1.656 l 4.281 0 l 3.03 -3.03 l 4 -1.656 l 1.656 -4 l 3.03 -3.03 l 0 -4.281 l 1.656 -4 l -1.656 -4 l 0 -4.281 l -3.03 -3.03 l -1.656 -4 l -4 -1.656 l -3.03 -3.03 l -4.281 0 l -4 -1.656 z"/></clipPath><clipPath id="clipPath-947671519"><path d="m 24 2.344 l -4 1.656 l -4.281 0 l -3.03 3.03 l -4 1.656 l -1.656 4 l -3.03 3.03 l 0 4.281 l -1.656 4 l 1.656 4 l 0 4.281 l 3.03 3.03 l 1.656 4 l 4 1.656 l 3.03 3.03 l 4.281 0 l 4 1.656 l 4 -1.656 l 4.281 0 l 3.03 -3.03 l 4 -1.656 l 1.656 -4 l 3.03 -3.03 l 0 -4.281 l 1.656 -4 l -1.656 -4 l 0 -4.281 l -3.03 -3.03 l -1.656 -4 l -4 -1.656 l -3.03 -3.03 l -4.281 0 l -4 -1.656 z"/></clipPath><linearGradient id="linearGradient4317"><stop stop-color="#fff" stop-opacity="1"/><stop offset="1" stop-color="#fff" stop-opacity="0"/></linearGradient><clipPath clipPathUnits="userSpaceOnUse" id="clipPath4313"><path d="m 20 4 -7.313 3.03 -5.656 5.656 -3.03 7.313 0 8 3.03 7.313 5.656 5.656 7.313 3.03 8 0 7.313 -3.03 5.656 -5.656 3.03 -7.313 0 -8 -3.03 -7.313 -5.656 -5.656 -7.313 -3.03 -8 0 z"/></clipPath><linearGradient x2="44" x1="4" gradientUnits="userSpaceOnUse" id="linearGradient4375" xlink:href="#linearGradient4317"/><clipPath clipPathUnits="userSpaceOnUse" id="clipPath4329"><path d="m 24 2.344 -4 1.656 -4.281 0 -3.03 3.03 l -4 1.656 -1.656 4 l -3.03 3.03 0 4.281 -1.656 4 1.656 4 l 0 4.281 3.03 3.03 1.656 4 4 1.656 l 3.03 3.03 4.281 0 4 1.656 4 -1.656 l 4.281 0 3.03 -3.03 4 -1.656 1.656 -4 l 3.03 -3.03 0 -4.281 1.656 -4 -1.656 -4 l 0 -4.281 -3.03 -3.03 -1.656 -4 -4 -1.656 l -3.03 -3.03 -4.281 0 -4 -1.656 z"/></clipPath><path id="SVGCleanerId_0" d="m 24 2.344 l -4 1.656 l -4.281 0 l -3.03 3.03 l -4 1.656 l -1.656 4 l -3.03 3.03 l 0 4.281 l -1.656 4 l 1.656 4 l 0 4.281 l 3.03 3.03 l 1.656 4 l 4 1.656 l 3.03 3.03 l 4.281 0 l 4 1.656 l 4 -1.656 l 4.281 0 l 3.03 -3.03 l 4 -1.656 l 1.656 -4 l 3.03 -3.03 l 0 -4.281 l 1.656 -4 l -1.656 -4 l 0 -4.281 l -3.03 -3.03 l -1.656 -4 l -4 -1.656 l -3.03 -3.03 l -4.281 0 l -4 -1.656 z" visibility="visible" display="inline" fill-rule="nonzero" color="#000" fill-opacity="1"/></defs><g><path d="m 2.563 24.5 l -0.219 0.5 l 1.656 4 l 0 -1 l -1.438 -3.5 z m 42.875 0 l -1.438 3.5 l 0 1 l 1.656 -4 l -0.219 -0.5 z m -41.44 7.781 l 0 1 l 3.03 3.03 l 1.656 4 l 4 1.656 l 3.03 3.03 l 4.281 0 l 4 1.656 l 4 -1.656 l 4.281 0 l 3.03 -3.03 l 4 -1.656 l 1.656 -4 l 3.03 -3.03 l 0 -1 l -3.03 3.03 l -1.656 4 l -4 1.656 l -3.03 3.03 l -4.281 0 l -4 1.656 l -4 -1.656 l -4.281 0 l -3.03 -3.03 l -4 -1.656 l -1.656 -4 l -3.03 -3.03 z" opacity="0.3" visibility="visible" fill="#000" display="inline" fill-rule="nonzero" stroke="none" fill-opacity="1" color="#000"/></g><g><use fill="#cfe4f8" stroke="none" xlink:href="#SVGCleanerId_0"/><path d="m 24 2.344 l -4 1.656 l 8 0 l -4 -1.656 z m 4 1.656 l 7.313 3.03 l -3.03 -3.03 l -4.281 0 z m 7.313 3.03 l 5.656 5.656 l -1.656 -4 l -4 -1.656 z m 5.656 5.656 l 3.03 7.313 l 0 -4.281 l -3.03 -3.03 z m 3.03 7.313 l 0 8 l 1.656 -4 l -1.656 -4 z m 0 8 l -3.03 7.313 l 3.03 -3.03 l 0 -4.281 z m -3.03 7.313 l -5.656 5.656 l 4 -1.656 l 1.656 -4 z m -5.656 5.656 l -7.313 3.03 l 4.281 0 l 3.03 -3.03 z m -7.313 3.03 l -8 0 l 4 1.656 l 4 -1.656 z m -8 0 l -7.313 -3.03 l 3.03 3.03 l 4.281 0 z m -7.313 -3.03 l -5.656 -5.656 l 1.656 4 l 4 1.656 z m -5.656 -5.656 l -3.03 -7.313 l 0 4.281 l 3.03 3.03 z m -3.03 -7.313 l 0 -8 l -1.656 4 l 1.656 4 z m 0 -8 l 3.03 -7.313 l -3.03 3.03 l 0 4.281 z m 3.03 -7.313 l 5.656 -5.656 l -4 1.656 l -1.656 4 z m 5.656 -5.656 l 7.313 -3.03 l -4.281 0 l -3.03 3.03 z" opacity="0.05" visibility="visible" fill="#cfe4f8" display="inline" fill-rule="nonzero" stroke="none" fill-opacity="1" color="#000"/></g><g><use opacity="0.05" stroke-opacity="1" stroke-dasharray="none" fill="#000" stroke="#000" stroke-width="2" stroke-miterlimit="4" xlink:href="#SVGCleanerId_0"/><use opacity="0.1" stroke-opacity="1" stroke-dasharray="none" fill="#000" stroke="#000" stroke-width="1" stroke-miterlimit="4" xlink:href="#SVGCleanerId_0"/></g><g><g clip-path="url(#clipPath-939665731)"><g transform="translate(0,1)"><g opacity="0.1"><!-- color: #cfe4f8 --><g><path d="m 369.28 125.3 c 0.071 8.965 -4.483 17.262 -11.92 21.782 c -7.437 4.482 -16.581 4.482 -24.02 0 c -7.437 -4.519 -11.956 -12.817 -11.92 -21.782 c -0.036 -8.965 4.483 -17.3 11.92 -21.782 c 7.437 -4.519 16.581 -4.519 24.02 0 c 7.437 4.482 11.991 12.817 11.92 21.782 m 0 0" transform="matrix(0.109781,0,0,0.105449,-23.786475,10.103772)" stroke-opacity="1" fill="#000" fill-rule="nonzero" stroke="#000" stroke-linejoin="miter" fill-opacity="1" stroke-linecap="butt" stroke-width="9.295" stroke-miterlimit="4"/><path d="m 369.28 125.3 c 0.071 8.965 -4.483 17.262 -11.92 21.782 c -7.401 4.482 -16.581 4.482 -24.02 0 c -7.401 -4.519 -11.956 -12.817 -11.92 -21.782 c -0.036 -8.965 4.519 -17.3 11.92 -21.782 c 7.437 -4.519 16.617 -4.519 24.02 0 c 7.437 4.482 11.991 12.817 11.92 21.782 m 0 0" transform="matrix(0.109781,0,0,0.105449,-4.03982,10.162209)" stroke-opacity="1" fill="#000" fill-rule="nonzero" stroke="#000" stroke-linejoin="miter" fill-opacity="1" stroke-linecap="butt" stroke-width="9.295" stroke-miterlimit="4"/><path d="m 169.02 -152.1 c -15.286 -6.257 -30.812 -13.671 -42.494 -5.568 c -13.514 6.225 -12.853 26.591 -11.832 47.36" transform="matrix(0.130075,0,0,0.124866,7.350661,33.988003)" stroke-opacity="1" fill="#000" stroke="#000" stroke-linejoin="miter" stroke-linecap="butt" stroke-width="7.847" stroke-miterlimit="4"/><path d="m 497.87 154.19 c 0 32.17 -36.954 58.23 -82.5 58.23 c -45.575 0 -82.5 -26.07 -82.5 -58.23 c 0 -32.14 36.924 -58.2 82.5 -58.2 c 45.545 0 82.5 26.07 82.5 58.2 m 0 0" transform="matrix(0.131394,0,0,0.126176,-30.514581,7.696688)" stroke-opacity="1" fill="#000" fill-rule="nonzero" stroke="#000" stroke-linejoin="miter" fill-opacity="1" stroke-linecap="round" stroke-width="7.767" stroke-miterlimit="4"/><path d="m 509.3 71.35 c 0 10.849 -8.163 19.644 -18.235 19.644 c -10.04 0 -18.204 -8.795 -18.204 -19.644 c 0 -10.849 8.163 -19.644 18.204 -19.644 c 10.07 0 18.235 8.795 18.235 19.644 m 0 0" transform="matrix(0.126815,0,0,0.121696,-31.196779,7.203927)" stroke-opacity="1" fill="#000" fill-rule="nonzero" stroke="#000" stroke-linejoin="miter" fill-opacity="1" stroke-linecap="round" stroke-width="8.05" stroke-miterlimit="4"/><path d="m 21.12 25.676 c 0 0.84 -0.691 1.523 -1.547 1.523 c -0.855 0 -1.551 -0.684 -1.551 -1.523 c 0 -0.84 0.695 -1.52 1.551 -1.52 c 0.855 0 1.547 0.68 1.547 1.52 m 0 0" fill="#000" stroke="none" fill-rule="nonzero" fill-opacity="1"/><path d="m 29.17 25.547 c 0 0.84 -0.695 1.52 -1.555 1.52 c -0.852 0 -1.551 -0.68 -1.551 -1.52 c 0 -0.84 0.695 -1.523 1.551 -1.523 c 0.855 0 1.555 0.684 1.555 1.523 m 0 0" fill="#000" stroke="none" fill-rule="nonzero" fill-opacity="1"/><path d="m 93.19 -34.19 c 26.427 18.676 46.34 11.293 65.44 0.688" transform="matrix(0.130075,0,0,0.124866,7.350661,33.988003)" stroke-opacity="1" fill="#000" stroke="#000" stroke-linejoin="miter" stroke-linecap="round" stroke-width="7.847" stroke-miterlimit="4"/></g></g></g></g></g><g><g clip-path="url(#clipPath-947671519)"><!-- color: #cfe4f8 --><g><path d="m 369.28 125.3 c 0.071 8.965 -4.483 17.262 -11.92 21.782 c -7.437 4.482 -16.581 4.482 -24.02 0 c -7.437 -4.519 -11.956 -12.817 -11.92 -21.782 c -0.036 -8.965 4.483 -17.3 11.92 -21.782 c 7.437 -4.519 16.581 -4.519 24.02 0 c 7.437 4.482 11.991 12.817 11.92 21.782 m 0 0" transform="matrix(0.109781,0,0,0.105449,-23.786475,10.103772)" stroke-opacity="1" fill="#fff" fill-rule="nonzero" stroke="#000" stroke-linejoin="miter" fill-opacity="1" stroke-linecap="butt" stroke-width="9.295" stroke-miterlimit="4"/><path d="m 369.28 125.3 c 0.071 8.965 -4.483 17.262 -11.92 21.782 c -7.401 4.482 -16.581 4.482 -24.02 0 c -7.401 -4.519 -11.956 -12.817 -11.92 -21.782 c -0.036 -8.965 4.519 -17.3 11.92 -21.782 c 7.437 -4.519 16.617 -4.519 24.02 0 c 7.437 4.482 11.991 12.817 11.92 21.782 m 0 0" transform="matrix(0.109781,0,0,0.105449,-4.03982,10.162209)" stroke-opacity="1" fill="#fff" fill-rule="nonzero" stroke="#000" stroke-linejoin="miter" fill-opacity="1" stroke-linecap="butt" stroke-width="9.295" stroke-miterlimit="4"/><path d="m 169.02 -152.1 c -15.286 -6.257 -30.812 -13.671 -42.494 -5.568 c -13.514 6.225 -12.853 26.591 -11.832 47.36" transform="matrix(0.130075,0,0,0.124866,7.350661,33.988003)" stroke-opacity="1" fill="none" stroke="#000" stroke-linejoin="miter" stroke-linecap="butt" stroke-width="7.847" stroke-miterlimit="4"/><path d="m 497.87 154.19 c 0 32.17 -36.954 58.23 -82.5 58.23 c -45.575 0 -82.5 -26.07 -82.5 -58.23 c 0 -32.14 36.924 -58.2 82.5 -58.2 c 45.545 0 82.5 26.07 82.5 58.2 m 0 0" transform="matrix(0.131394,0,0,0.126176,-30.514581,7.696688)" stroke-opacity="1" fill="#fff" fill-rule="nonzero" stroke="#000" stroke-linejoin="miter" fill-opacity="1" stroke-linecap="round" stroke-width="7.767" stroke-miterlimit="4"/><path d="m 509.3 71.35 c 0 10.849 -8.163 19.644 -18.235 19.644 c -10.04 0 -18.204 -8.795 -18.204 -19.644 c 0 -10.849 8.163 -19.644 18.204 -19.644 c 10.07 0 18.235 8.795 18.235 19.644 m 0 0" transform="matrix(0.126815,0,0,0.121696,-31.196779,7.203927)" stroke-opacity="1" fill="#fff" fill-rule="nonzero" stroke="#000" stroke-linejoin="miter" fill-opacity="1" stroke-linecap="round" stroke-width="8.05" stroke-miterlimit="4"/><path d="m 21.12 25.676 c 0 0.84 -0.691 1.523 -1.547 1.523 c -0.855 0 -1.551 -0.684 -1.551 -1.523 c 0 -0.84 0.695 -1.52 1.551 -1.52 c 0.855 0 1.547 0.68 1.547 1.52 m 0 0" fill="#ff4500" stroke="none" fill-rule="nonzero" fill-opacity="1"/><path d="m 29.17 25.547 c 0 0.84 -0.695 1.52 -1.555 1.52 c -0.852 0 -1.551 -0.68 -1.551 -1.52 c 0 -0.84 0.695 -1.523 1.551 -1.523 c 0.855 0 1.555 0.684 1.555 1.523 m 0 0" fill="#ff4500" stroke="none" fill-rule="nonzero" fill-opacity="1"/><path d="m 93.19 -34.19 c 26.427 18.676 46.34 11.293 65.44 0.688" transform="matrix(0.130075,0,0,0.124866,7.350661,33.988003)" stroke-opacity="1" fill="none" stroke="#000" stroke-linejoin="miter" stroke-linecap="round" stroke-width="7.847" stroke-miterlimit="4"/></g></g></g><g><path d="m 20 4 -7.313 3.03 -5.656 5.656 -3.03 7.313 0 8 3.03 7.313 5.656 5.656 7.313 3.03 8 0 7.313 -3.03 5.656 -5.656 3.03 -7.313 0 -8 -3.03 -7.313 -5.656 -5.656 -7.313 -3.03 -8 0 z" clip-path="url(#clipPath4313)" transform="matrix(0,1,-1,0,48,0)" opacity="0.3" stroke-opacity="1" stroke-dasharray="none" visibility="visible" fill="none" display="inline" stroke="url(#linearGradient4375)" color="#000" stroke-width="1" stroke-miterlimit="4"/><path d="m 24 2.344 -4 1.656 -4.281 0 -3.03 3.03 l -4 1.656 -1.656 4 l -3.03 3.03 0 4.281 -1.656 4 1.656 4 l 0 4.281 3.03 3.03 1.656 4 4 1.656 l 3.03 3.03 4.281 0 4 1.656 4 -1.656 l 4.281 0 3.03 -3.03 4 -1.656 1.656 -4 l 3.03 -3.03 0 -4.281 1.656 -4 -1.656 -4 l 0 -4.281 -3.03 -3.03 -1.656 -4 -4 -1.656 l -3.03 -3.03 -4.281 0 -4 -1.656 z" clip-path="url(#clipPath4329)" opacity="0.2" stroke-opacity="1" visibility="visible" fill="none" display="inline" stroke="#000" color="#000" stroke-width="2"/></g></svg>