<svg viewBox="0 0 48 48" xmlns:xlink="http://www.w3.org/1999/xlink"><defs><clipPath clipPathUnits="userSpaceOnUse" id="clipPath4313"><path d="m 20 4 -7.313 3.03 -5.656 5.656 -3.03 7.313 0 8 3.03 7.313 5.656 5.656 7.313 3.03 8 0 7.313 -3.03 5.656 -5.656 3.03 -7.313 0 -8 -3.03 -7.313 -5.656 -5.656 -7.313 -3.03 -8 0 z"/></clipPath><clipPath clipPathUnits="userSpaceOnUse" id="clipPath4329"><path d="m 24 2.344 -4 1.656 -4.281 0 -3.03 3.03 l -4 1.656 -1.656 4 l -3.03 3.03 0 4.281 -1.656 4 1.656 4 l 0 4.281 3.03 3.03 1.656 4 4 1.656 l 3.03 3.03 4.281 0 4 1.656 4 -1.656 l 4.281 0 3.03 -3.03 4 -1.656 1.656 -4 l 3.03 -3.03 0 -4.281 1.656 -4 -1.656 -4 l 0 -4.281 -3.03 -3.03 -1.656 -4 -4 -1.656 l -3.03 -3.03 -4.281 0 -4 -1.656 z"/></clipPath><clipPath id="clipPath-348146015"><path d="m 24 2.344 l -4 1.656 l -4.281 0 l -3.03 3.03 l -4 1.656 l -1.656 4 l -3.03 3.03 l 0 4.281 l -1.656 4 l 1.656 4 l 0 4.281 l 3.03 3.03 l 1.656 4 l 4 1.656 l 3.03 3.03 l 4.281 0 l 4 1.656 l 4 -1.656 l 4.281 0 l 3.03 -3.03 l 4 -1.656 l 1.656 -4 l 3.03 -3.03 l 0 -4.281 l 1.656 -4 l -1.656 -4 l 0 -4.281 l -3.03 -3.03 l -1.656 -4 l -4 -1.656 l -3.03 -3.03 l -4.281 0 l -4 -1.656 z"/></clipPath><clipPath id="clipPath-359844720"><path d="m 24 2.344 l -4 1.656 l -4.281 0 l -3.03 3.03 l -4 1.656 l -1.656 4 l -3.03 3.03 l 0 4.281 l -1.656 4 l 1.656 4 l 0 4.281 l 3.03 3.03 l 1.656 4 l 4 1.656 l 3.03 3.03 l 4.281 0 l 4 1.656 l 4 -1.656 l 4.281 0 l 3.03 -3.03 l 4 -1.656 l 1.656 -4 l 3.03 -3.03 l 0 -4.281 l 1.656 -4 l -1.656 -4 l 0 -4.281 l -3.03 -3.03 l -1.656 -4 l -4 -1.656 l -3.03 -3.03 l -4.281 0 l -4 -1.656 z"/></clipPath><linearGradient id="linearGradient4317"><stop stop-color="#fff" stop-opacity="1"/><stop offset="1" stop-color="#fff" stop-opacity="0"/></linearGradient><clipPath clipPathUnits="userSpaceOnUse" id="clipPath4313"><path d="m 20 4 -7.313 3.03 -5.656 5.656 -3.03 7.313 0 8 3.03 7.313 5.656 5.656 7.313 3.03 8 0 7.313 -3.03 5.656 -5.656 3.03 -7.313 0 -8 -3.03 -7.313 -5.656 -5.656 -7.313 -3.03 -8 0 z"/></clipPath><linearGradient x2="44" x1="4" gradientUnits="userSpaceOnUse" id="linearGradient4375" xlink:href="#linearGradient4317"/><clipPath clipPathUnits="userSpaceOnUse" id="clipPath4329"><path d="m 24 2.344 -4 1.656 -4.281 0 -3.03 3.03 l -4 1.656 -1.656 4 l -3.03 3.03 0 4.281 -1.656 4 1.656 4 l 0 4.281 3.03 3.03 1.656 4 4 1.656 l 3.03 3.03 4.281 0 4 1.656 4 -1.656 l 4.281 0 3.03 -3.03 4 -1.656 1.656 -4 l 3.03 -3.03 0 -4.281 1.656 -4 -1.656 -4 l 0 -4.281 -3.03 -3.03 -1.656 -4 -4 -1.656 l -3.03 -3.03 -4.281 0 -4 -1.656 z"/></clipPath><clipPath id="clip1"><path d="m 9 9 l 30 0 l 0 30 l -30 0 m 0 -30"/></clipPath><clipPath id="clip2"><path d="m 24 9 l -3.16 7.375 l -7.445 -2.98 l 2.98 7.445 l -7.375 3.16 l 7.375 3.16 l -2.98 7.445 l 7.445 -2.98 l 3.16 7.375 l 3.16 -7.375 l 7.445 2.98 l -2.98 -7.445 l 7.375 -3.16 l -7.375 -3.16 l 2.98 -7.445 l -7.445 2.98 m -6.266 0.125 l 6.211 0 l 4.398 4.395 l 0 6.215 l -4.398 4.395 l -6.207 0 l -4.398 -4.395 l 0 -6.211 l 4.398 -4.395 m -0.004 -0.004"/></clipPath><clipPath id="clip1"><path d="m 9 9 l 30 0 l 0 30 l -30 0 m 0 -30"/></clipPath><clipPath id="clip2"><path d="m 24 9 l -3.16 7.375 l -7.445 -2.98 l 2.98 7.445 l -7.375 3.16 l 7.375 3.16 l -2.98 7.445 l 7.445 -2.98 l 3.16 7.375 l 3.16 -7.375 l 7.445 2.98 l -2.98 -7.445 l 7.375 -3.16 l -7.375 -3.16 l 2.98 -7.445 l -7.445 2.98 m -6.266 0.125 l 6.211 0 l 4.398 4.395 l 0 6.215 l -4.398 4.395 l -6.207 0 l -4.398 -4.395 l 0 -6.211 l 4.398 -4.395 m -0.004 -0.004"/></clipPath><path id="SVGCleanerId_0" d="m 24 2.344 l -4 1.656 l -4.281 0 l -3.03 3.03 l -4 1.656 l -1.656 4 l -3.03 3.03 l 0 4.281 l -1.656 4 l 1.656 4 l 0 4.281 l 3.03 3.03 l 1.656 4 l 4 1.656 l 3.03 3.03 l 4.281 0 l 4 1.656 l 4 -1.656 l 4.281 0 l 3.03 -3.03 l 4 -1.656 l 1.656 -4 l 3.03 -3.03 l 0 -4.281 l 1.656 -4 l -1.656 -4 l 0 -4.281 l -3.03 -3.03 l -1.656 -4 l -4 -1.656 l -3.03 -3.03 l -4.281 0 l -4 -1.656 z" visibility="visible" display="inline" fill-rule="nonzero" color="#000" fill-opacity="1"/></defs><g><path d="m 2.563 24.5 l -0.219 0.5 l 1.656 4 l 0 -1 l -1.438 -3.5 z m 42.875 0 l -1.438 3.5 l 0 1 l 1.656 -4 l -0.219 -0.5 z m -41.44 7.781 l 0 1 l 3.03 3.03 l 1.656 4 l 4 1.656 l 3.03 3.03 l 4.281 0 l 4 1.656 l 4 -1.656 l 4.281 0 l 3.03 -3.03 l 4 -1.656 l 1.656 -4 l 3.03 -3.03 l 0 -1 l -3.03 3.03 l -1.656 4 l -4 1.656 l -3.03 3.03 l -4.281 0 l -4 1.656 l -4 -1.656 l -4.281 0 l -3.03 -3.03 l -4 -1.656 l -1.656 -4 l -3.03 -3.03 z" opacity="0.3" visibility="visible" fill="#000" display="inline" fill-rule="nonzero" stroke="none" fill-opacity="1" color="#000"/></g><g><use fill="#ea7a2a" stroke="none" xlink:href="#SVGCleanerId_0"/><path d="m 24 2.344 l -4 1.656 l 8 0 l -4 -1.656 z m 4 1.656 l 7.313 3.03 l -3.03 -3.03 l -4.281 0 z m 7.313 3.03 l 5.656 5.656 l -1.656 -4 l -4 -1.656 z m 5.656 5.656 l 3.03 7.313 l 0 -4.281 l -3.03 -3.03 z m 3.03 7.313 l 0 8 l 1.656 -4 l -1.656 -4 z m 0 8 l -3.03 7.313 l 3.03 -3.03 l 0 -4.281 z m -3.03 7.313 l -5.656 5.656 l 4 -1.656 l 1.656 -4 z m -5.656 5.656 l -7.313 3.03 l 4.281 0 l 3.03 -3.03 z m -7.313 3.03 l -8 0 l 4 1.656 l 4 -1.656 z m -8 0 l -7.313 -3.03 l 3.03 3.03 l 4.281 0 z m -7.313 -3.03 l -5.656 -5.656 l 1.656 4 l 4 1.656 z m -5.656 -5.656 l -3.03 -7.313 l 0 4.281 l 3.03 3.03 z m -3.03 -7.313 l 0 -8 l -1.656 4 l 1.656 4 z m 0 -8 l 3.03 -7.313 l -3.03 3.03 l 0 4.281 z m 3.03 -7.313 l 5.656 -5.656 l -4 1.656 l -1.656 4 z m 5.656 -5.656 l 7.313 -3.03 l -4.281 0 l -3.03 3.03 z" opacity="0.05" visibility="visible" fill="#ea7a2a" display="inline" fill-rule="nonzero" stroke="none" fill-opacity="1" color="#000"/></g><g><use opacity="0.05" stroke-opacity="1" stroke-dasharray="none" fill="#000" stroke="#000" stroke-width="2" stroke-miterlimit="4" xlink:href="#SVGCleanerId_0"/><use opacity="0.1" stroke-opacity="1" stroke-dasharray="none" fill="#000" stroke="#000" stroke-width="1" stroke-miterlimit="4" xlink:href="#SVGCleanerId_0"/></g><g><g clip-path="url(#clipPath-348146015)"><g transform="translate(0,1)"><g opacity="0.1"><!-- color: #ea7a2a --><g><path d="m 31.5 24.14 c 0 4.141 -3.355 7.5 -7.5 7.5 c -4.141 0 -7.5 -3.359 -7.5 -7.5 c 0 -4.145 3.359 -7.504 7.5 -7.504 c 4.145 0 7.5 3.359 7.5 7.504 m 0 0" fill="#000" stroke="none" fill-rule="nonzero" fill-opacity="1"/><g clip-path="url(#clip1)"><g clip-path="url(#clip2)"><path d="m 24 9 c -8.273 0 -15 6.727 -15 15 c 0 8.273 6.727 15 15 15 c 8.273 0 15 -6.73 15 -15 c 0 -8.273 -6.73 -15 -15 -15 m 0 1.875 c 7.262 0 13.13 5.867 13.13 13.13 c 0 7.262 -5.867 13.13 -13.13 13.13 c -7.258 0 -13.12 -5.867 -13.12 -13.13 c 0 -7.258 5.867 -13.12 13.13 -13.12 m 0 0.805 c -6.797 0 -12.32 5.523 -12.32 12.32 c 0 6.797 5.523 12.324 12.32 12.324 c 6.797 0 12.324 -5.527 12.324 -12.324 c 0 -6.797 -5.527 -12.32 -12.324 -12.32 m 0 1.34 c 6.074 0 10.977 4.906 10.977 10.98 c 0 6.074 -4.902 10.977 -10.977 10.977 c -6.074 0 -10.98 -4.902 -10.98 -10.977 c 0 -6.074 4.906 -10.98 10.98 -10.98 m 0 1.203 c -5.465 0 -9.91 4.445 -9.91 9.914 c 0 5.465 4.445 9.91 9.91 9.91 c 5.469 0 9.914 -4.445 9.914 -9.91 c 0 -5.469 -4.445 -9.914 -9.914 -9.914 m 0 1.34 c 4.742 0 8.574 3.832 8.574 8.574 c 0 4.742 -3.832 8.57 -8.574 8.57 c -4.742 0 -8.57 -3.828 -8.57 -8.57 c 0 -4.742 3.828 -8.574 8.57 -8.574 m 0 0" fill="#000" stroke="none" fill-rule="nonzero" fill-opacity="1"/></g></g></g></g></g></g></g><g><g clip-path="url(#clipPath-359844720)"><!-- color: #ea7a2a --><g><path d="m 31.5 24.14 c 0 4.141 -3.355 7.5 -7.5 7.5 c -4.141 0 -7.5 -3.359 -7.5 -7.5 c 0 -4.145 3.359 -7.504 7.5 -7.504 c 4.145 0 7.5 3.359 7.5 7.504 m 0 0" fill="#fbe569" stroke="none" fill-rule="nonzero" fill-opacity="1"/><g clip-path="url(#clip1)"><g clip-path="url(#clip2)"><path d="m 24 9 c -8.273 0 -15 6.727 -15 15 c 0 8.273 6.727 15 15 15 c 8.273 0 15 -6.73 15 -15 c 0 -8.273 -6.73 -15 -15 -15 m 0 1.875 c 7.262 0 13.13 5.867 13.13 13.13 c 0 7.262 -5.867 13.13 -13.13 13.13 c -7.258 0 -13.12 -5.867 -13.12 -13.13 c 0 -7.258 5.867 -13.12 13.13 -13.12 m 0 0.805 c -6.797 0 -12.32 5.523 -12.32 12.32 c 0 6.797 5.523 12.324 12.32 12.324 c 6.797 0 12.324 -5.527 12.324 -12.324 c 0 -6.797 -5.527 -12.32 -12.324 -12.32 m 0 1.34 c 6.074 0 10.977 4.906 10.977 10.98 c 0 6.074 -4.902 10.977 -10.977 10.977 c -6.074 0 -10.98 -4.902 -10.98 -10.977 c 0 -6.074 4.906 -10.98 10.98 -10.98 m 0 1.203 c -5.465 0 -9.91 4.445 -9.91 9.914 c 0 5.465 4.445 9.91 9.91 9.91 c 5.469 0 9.914 -4.445 9.914 -9.91 c 0 -5.469 -4.445 -9.914 -9.914 -9.914 m 0 1.34 c 4.742 0 8.574 3.832 8.574 8.574 c 0 4.742 -3.832 8.57 -8.574 8.57 c -4.742 0 -8.57 -3.828 -8.57 -8.57 c 0 -4.742 3.828 -8.574 8.57 -8.574 m 0 0" fill="#fbe569" stroke="none" fill-rule="nonzero" fill-opacity="1"/></g></g></g></g></g><g><path d="m 20 4 -7.313 3.03 -5.656 5.656 -3.03 7.313 0 8 3.03 7.313 5.656 5.656 7.313 3.03 8 0 7.313 -3.03 5.656 -5.656 3.03 -7.313 0 -8 -3.03 -7.313 -5.656 -5.656 -7.313 -3.03 -8 0 z" clip-path="url(#clipPath4313)" transform="matrix(0,1,-1,0,48,0)" opacity="0.3" stroke-opacity="1" stroke-dasharray="none" visibility="visible" fill="none" display="inline" stroke="url(#linearGradient4375)" color="#000" stroke-width="1" stroke-miterlimit="4"/><path d="m 24 2.344 -4 1.656 -4.281 0 -3.03 3.03 l -4 1.656 -1.656 4 l -3.03 3.03 0 4.281 -1.656 4 1.656 4 l 0 4.281 3.03 3.03 1.656 4 4 1.656 l 3.03 3.03 4.281 0 4 1.656 4 -1.656 l 4.281 0 3.03 -3.03 4 -1.656 1.656 -4 l 3.03 -3.03 0 -4.281 1.656 -4 -1.656 -4 l 0 -4.281 -3.03 -3.03 -1.656 -4 -4 -1.656 l -3.03 -3.03 -4.281 0 -4 -1.656 z" clip-path="url(#clipPath4329)" opacity="0.2" stroke-opacity="1" visibility="visible" fill="none" display="inline" stroke="#000" color="#000" stroke-width="2"/></g></svg>