<svg viewBox="0 0 48 48" xmlns:xlink="http://www.w3.org/1999/xlink"><defs><clipPath clipPathUnits="userSpaceOnUse" id="clipPath4313"><path d="m 20 4 -7.313 3.03 -5.656 5.656 -3.03 7.313 0 8 3.03 7.313 5.656 5.656 7.313 3.03 8 0 7.313 -3.03 5.656 -5.656 3.03 -7.313 0 -8 -3.03 -7.313 -5.656 -5.656 -7.313 -3.03 -8 0 z"/></clipPath><clipPath clipPathUnits="userSpaceOnUse" id="clipPath4329"><path d="m 24 2.344 -4 1.656 -4.281 0 -3.03 3.03 l -4 1.656 -1.656 4 l -3.03 3.03 0 4.281 -1.656 4 1.656 4 l 0 4.281 3.03 3.03 1.656 4 4 1.656 l 3.03 3.03 4.281 0 4 1.656 4 -1.656 l 4.281 0 3.03 -3.03 4 -1.656 1.656 -4 l 3.03 -3.03 0 -4.281 1.656 -4 -1.656 -4 l 0 -4.281 -3.03 -3.03 -1.656 -4 -4 -1.656 l -3.03 -3.03 -4.281 0 -4 -1.656 z"/></clipPath><clipPath id="clipPath-386968967"><path d="m 24 2.344 l -4 1.656 l -4.281 0 l -3.03 3.03 l -4 1.656 l -1.656 4 l -3.03 3.03 l 0 4.281 l -1.656 4 l 1.656 4 l 0 4.281 l 3.03 3.03 l 1.656 4 l 4 1.656 l 3.03 3.03 l 4.281 0 l 4 1.656 l 4 -1.656 l 4.281 0 l 3.03 -3.03 l 4 -1.656 l 1.656 -4 l 3.03 -3.03 l 0 -4.281 l 1.656 -4 l -1.656 -4 l 0 -4.281 l -3.03 -3.03 l -1.656 -4 l -4 -1.656 l -3.03 -3.03 l -4.281 0 l -4 -1.656 z"/></clipPath><clipPath id="clipPath-397745361"><path d="m 24 2.344 l -4 1.656 l -4.281 0 l -3.03 3.03 l -4 1.656 l -1.656 4 l -3.03 3.03 l 0 4.281 l -1.656 4 l 1.656 4 l 0 4.281 l 3.03 3.03 l 1.656 4 l 4 1.656 l 3.03 3.03 l 4.281 0 l 4 1.656 l 4 -1.656 l 4.281 0 l 3.03 -3.03 l 4 -1.656 l 1.656 -4 l 3.03 -3.03 l 0 -4.281 l 1.656 -4 l -1.656 -4 l 0 -4.281 l -3.03 -3.03 l -1.656 -4 l -4 -1.656 l -3.03 -3.03 l -4.281 0 l -4 -1.656 z"/></clipPath><linearGradient id="linearGradient4317"><stop stop-color="#fff" stop-opacity="1"/><stop offset="1" stop-color="#fff" stop-opacity="0"/></linearGradient><clipPath clipPathUnits="userSpaceOnUse" id="clipPath4313"><path d="m 20 4 -7.313 3.03 -5.656 5.656 -3.03 7.313 0 8 3.03 7.313 5.656 5.656 7.313 3.03 8 0 7.313 -3.03 5.656 -5.656 3.03 -7.313 0 -8 -3.03 -7.313 -5.656 -5.656 -7.313 -3.03 -8 0 z"/></clipPath><linearGradient x2="44" x1="4" gradientUnits="userSpaceOnUse" id="linearGradient4375" xlink:href="#linearGradient4317"/><clipPath clipPathUnits="userSpaceOnUse" id="clipPath4329"><path d="m 24 2.344 -4 1.656 -4.281 0 -3.03 3.03 l -4 1.656 -1.656 4 l -3.03 3.03 0 4.281 -1.656 4 1.656 4 l 0 4.281 3.03 3.03 1.656 4 4 1.656 l 3.03 3.03 4.281 0 4 1.656 4 -1.656 l 4.281 0 3.03 -3.03 4 -1.656 1.656 -4 l 3.03 -3.03 0 -4.281 1.656 -4 -1.656 -4 l 0 -4.281 -3.03 -3.03 -1.656 -4 -4 -1.656 l -3.03 -3.03 -4.281 0 -4 -1.656 z"/></clipPath><path id="SVGCleanerId_0" d="m 24 2.344 l -4 1.656 l -4.281 0 l -3.03 3.03 l -4 1.656 l -1.656 4 l -3.03 3.03 l 0 4.281 l -1.656 4 l 1.656 4 l 0 4.281 l 3.03 3.03 l 1.656 4 l 4 1.656 l 3.03 3.03 l 4.281 0 l 4 1.656 l 4 -1.656 l 4.281 0 l 3.03 -3.03 l 4 -1.656 l 1.656 -4 l 3.03 -3.03 l 0 -4.281 l 1.656 -4 l -1.656 -4 l 0 -4.281 l -3.03 -3.03 l -1.656 -4 l -4 -1.656 l -3.03 -3.03 l -4.281 0 l -4 -1.656 z" visibility="visible" display="inline" fill-rule="nonzero" color="#000" fill-opacity="1"/></defs><g><path d="m 2.563 24.5 l -0.219 0.5 l 1.656 4 l 0 -1 l -1.438 -3.5 z m 42.875 0 l -1.438 3.5 l 0 1 l 1.656 -4 l -0.219 -0.5 z m -41.44 7.781 l 0 1 l 3.03 3.03 l 1.656 4 l 4 1.656 l 3.03 3.03 l 4.281 0 l 4 1.656 l 4 -1.656 l 4.281 0 l 3.03 -3.03 l 4 -1.656 l 1.656 -4 l 3.03 -3.03 l 0 -1 l -3.03 3.03 l -1.656 4 l -4 1.656 l -3.03 3.03 l -4.281 0 l -4 1.656 l -4 -1.656 l -4.281 0 l -3.03 -3.03 l -4 -1.656 l -1.656 -4 l -3.03 -3.03 z" opacity="0.3" visibility="visible" fill="#000" display="inline" fill-rule="nonzero" stroke="none" fill-opacity="1" color="#000"/></g><g><use fill="#eee" stroke="none" xlink:href="#SVGCleanerId_0"/><path d="m 24 2.344 l -4 1.656 l 8 0 l -4 -1.656 z m 4 1.656 l 7.313 3.03 l -3.03 -3.03 l -4.281 0 z m 7.313 3.03 l 5.656 5.656 l -1.656 -4 l -4 -1.656 z m 5.656 5.656 l 3.03 7.313 l 0 -4.281 l -3.03 -3.03 z m 3.03 7.313 l 0 8 l 1.656 -4 l -1.656 -4 z m 0 8 l -3.03 7.313 l 3.03 -3.03 l 0 -4.281 z m -3.03 7.313 l -5.656 5.656 l 4 -1.656 l 1.656 -4 z m -5.656 5.656 l -7.313 3.03 l 4.281 0 l 3.03 -3.03 z m -7.313 3.03 l -8 0 l 4 1.656 l 4 -1.656 z m -8 0 l -7.313 -3.03 l 3.03 3.03 l 4.281 0 z m -7.313 -3.03 l -5.656 -5.656 l 1.656 4 l 4 1.656 z m -5.656 -5.656 l -3.03 -7.313 l 0 4.281 l 3.03 3.03 z m -3.03 -7.313 l 0 -8 l -1.656 4 l 1.656 4 z m 0 -8 l 3.03 -7.313 l -3.03 3.03 l 0 4.281 z m 3.03 -7.313 l 5.656 -5.656 l -4 1.656 l -1.656 4 z m 5.656 -5.656 l 7.313 -3.03 l -4.281 0 l -3.03 3.03 z" opacity="0.05" visibility="visible" fill="#eee" display="inline" fill-rule="nonzero" stroke="none" fill-opacity="1" color="#000"/></g><g><use opacity="0.05" stroke-opacity="1" stroke-dasharray="none" fill="#000" stroke="#000" stroke-width="2" stroke-miterlimit="4" xlink:href="#SVGCleanerId_0"/><use opacity="0.1" stroke-opacity="1" stroke-dasharray="none" fill="#000" stroke="#000" stroke-width="1" stroke-miterlimit="4" xlink:href="#SVGCleanerId_0"/></g><g><g clip-path="url(#clipPath-386968967)"><g transform="translate(0,1)"><g opacity="0.1"><!-- color: #eeeeee --><g><path d="m 24 0 l 0 24 l 24 0 l 0 -24 m -24 0" fill="#000" stroke="none" fill-rule="evenodd" fill-opacity="1"/><path d="m 24 24 l 0 24 l 24 0 l 0 -24 m -24 0" fill="#000" stroke="none" fill-rule="evenodd" fill-opacity="1"/><path d="m 0 24 l 0 24 l 24 0 l 0 -24 m -24 0" fill="#000" stroke="none" fill-rule="evenodd" fill-opacity="1"/><path d="M 0 0 L 0 24 L 24 24 L 24 0 M 0 0 " fill="#000" stroke="none" fill-rule="evenodd" fill-opacity="1"/><path d="m 32.395 12.01 c -0.961 0.02 -1.91 0.648 -2.063 1.844 c -0.242 1.902 1.578 1.188 3.03 1.188 c 1.453 0 1.941 3.09 1.574 4.754 c -0.363 1.664 -4.227 5.59 -12.969 1.664 c -7.195 -3.234 -10.789 1.07 -10.977 1.156 c 0.688 6.426 6.234 13.391 12.977 13.391 c 7.188 0 13.03 -7.68 13.03 -14.73 c 0 -0.809 -0.094 -1.609 -0.242 -2.375 c -0.133 -0.391 -0.266 -0.777 -0.363 -1.129 c -0.176 -0.633 -0.375 -1.168 -0.547 -1.664 c -0.008 -0.016 0.008 -0.043 0 -0.059 c -0.688 -1.5 -1.652 -2.852 -2.848 -3.98 c -0.004 -0.012 -0.027 0.008 -0.031 0 c -0.188 -0.047 -0.383 -0.063 -0.574 -0.063 m 0 0.004" fill="#000" stroke="none" fill-rule="nonzero" fill-opacity="1"/><path d="m 30.395 16.527 c 0 0.395 -0.328 0.715 -0.727 0.715 c -0.402 0 -0.73 -0.32 -0.73 -0.715 c 0 -0.391 0.328 -0.711 0.73 -0.711 c 0.398 0 0.727 0.32 0.727 0.711 m 0 0" fill="#000" stroke="none" fill-rule="nonzero" fill-opacity="1"/><path d="m 28.938 13.945 c 0 0.277 -0.23 0.504 -0.516 0.504 c -0.285 0 -0.516 -0.227 -0.516 -0.504 c 0 -0.281 0.23 -0.508 0.516 -0.508 c 0.285 0 0.516 0.227 0.516 0.508 m 0 0" fill="#000" stroke="none" fill-rule="nonzero" fill-opacity="1"/></g></g></g></g></g><g><g clip-path="url(#clipPath-397745361)"><!-- color: #eeeeee --><g><path d="m 24 0 l 0 24 l 24 0 l 0 -24 m -24 0" fill="#7fcc28" stroke="none" fill-rule="evenodd" fill-opacity="1"/><path d="m 24 24 l 0 24 l 24 0 l 0 -24 m -24 0" fill="#fbb909" stroke="none" fill-rule="evenodd" fill-opacity="1"/><path d="m 0 24 l 0 24 l 24 0 l 0 -24 m -24 0" fill="#00abec" stroke="none" fill-rule="evenodd" fill-opacity="1"/><path d="M 0 0 L 0 24 L 24 24 L 24 0 M 0 0 " fill="#f15119" stroke="none" fill-rule="evenodd" fill-opacity="1"/><path d="m 32.395 12.01 c -0.961 0.02 -1.91 0.648 -2.063 1.844 c -0.242 1.902 1.578 1.188 3.03 1.188 c 1.453 0 1.941 3.09 1.574 4.754 c -0.363 1.664 -4.227 5.59 -12.969 1.664 c -7.195 -3.234 -10.789 1.07 -10.977 1.156 c 0.688 6.426 6.234 13.391 12.977 13.391 c 7.188 0 13.03 -7.68 13.03 -14.73 c 0 -0.809 -0.094 -1.609 -0.242 -2.375 c -0.133 -0.391 -0.266 -0.777 -0.363 -1.129 c -0.176 -0.633 -0.375 -1.168 -0.547 -1.664 c -0.008 -0.016 0.008 -0.043 0 -0.059 c -0.688 -1.5 -1.652 -2.852 -2.848 -3.98 c -0.004 -0.012 -0.027 0.008 -0.031 0 c -0.188 -0.047 -0.383 -0.063 -0.574 -0.063 m 0 0.004" fill="#8e0317" stroke="none" fill-rule="nonzero" fill-opacity="1"/><path d="m 30.395 16.527 c 0 0.395 -0.328 0.715 -0.727 0.715 c -0.402 0 -0.73 -0.32 -0.73 -0.715 c 0 -0.391 0.328 -0.711 0.73 -0.711 c 0.398 0 0.727 0.32 0.727 0.711 m 0 0" fill="#8e0317" stroke="none" fill-rule="nonzero" fill-opacity="1"/><path d="m 28.938 13.945 c 0 0.277 -0.23 0.504 -0.516 0.504 c -0.285 0 -0.516 -0.227 -0.516 -0.504 c 0 -0.281 0.23 -0.508 0.516 -0.508 c 0.285 0 0.516 0.227 0.516 0.508 m 0 0" fill="#8e0317" stroke="none" fill-rule="nonzero" fill-opacity="1"/></g></g></g><g><path d="m 20 4 -7.313 3.03 -5.656 5.656 -3.03 7.313 0 8 3.03 7.313 5.656 5.656 7.313 3.03 8 0 7.313 -3.03 5.656 -5.656 3.03 -7.313 0 -8 -3.03 -7.313 -5.656 -5.656 -7.313 -3.03 -8 0 z" clip-path="url(#clipPath4313)" transform="matrix(0,1,-1,0,48,0)" opacity="0.3" stroke-opacity="1" stroke-dasharray="none" visibility="visible" fill="none" display="inline" stroke="url(#linearGradient4375)" color="#000" stroke-width="1" stroke-miterlimit="4"/><path d="m 24 2.344 -4 1.656 -4.281 0 -3.03 3.03 l -4 1.656 -1.656 4 l -3.03 3.03 0 4.281 -1.656 4 1.656 4 l 0 4.281 3.03 3.03 1.656 4 4 1.656 l 3.03 3.03 4.281 0 4 1.656 4 -1.656 l 4.281 0 3.03 -3.03 4 -1.656 1.656 -4 l 3.03 -3.03 0 -4.281 1.656 -4 -1.656 -4 l 0 -4.281 -3.03 -3.03 -1.656 -4 -4 -1.656 l -3.03 -3.03 -4.281 0 -4 -1.656 z" clip-path="url(#clipPath4329)" opacity="0.2" stroke-opacity="1" visibility="visible" fill="none" display="inline" stroke="#000" color="#000" stroke-width="2"/></g></svg>