<svg viewBox="0 0 48 48" xmlns:xlink="http://www.w3.org/1999/xlink"><defs><clipPath clipPathUnits="userSpaceOnUse" id="clipPath4313"><path d="m 20 4 -7.313 3.03 -5.656 5.656 -3.03 7.313 0 8 3.03 7.313 5.656 5.656 7.313 3.03 8 0 7.313 -3.03 5.656 -5.656 3.03 -7.313 0 -8 -3.03 -7.313 -5.656 -5.656 -7.313 -3.03 -8 0 z"/></clipPath><clipPath clipPathUnits="userSpaceOnUse" id="clipPath4329"><path d="m 24 2.344 -4 1.656 -4.281 0 -3.03 3.03 l -4 1.656 -1.656 4 l -3.03 3.03 0 4.281 -1.656 4 1.656 4 l 0 4.281 3.03 3.03 1.656 4 4 1.656 l 3.03 3.03 4.281 0 4 1.656 4 -1.656 l 4.281 0 3.03 -3.03 4 -1.656 1.656 -4 l 3.03 -3.03 0 -4.281 1.656 -4 -1.656 -4 l 0 -4.281 -3.03 -3.03 -1.656 -4 -4 -1.656 l -3.03 -3.03 -4.281 0 -4 -1.656 z"/></clipPath><clipPath id="clipPath-704165029"><path d="m 24 2.344 l -4 1.656 l -4.281 0 l -3.03 3.03 l -4 1.656 l -1.656 4 l -3.03 3.03 l 0 4.281 l -1.656 4 l 1.656 4 l 0 4.281 l 3.03 3.03 l 1.656 4 l 4 1.656 l 3.03 3.03 l 4.281 0 l 4 1.656 l 4 -1.656 l 4.281 0 l 3.03 -3.03 l 4 -1.656 l 1.656 -4 l 3.03 -3.03 l 0 -4.281 l 1.656 -4 l -1.656 -4 l 0 -4.281 l -3.03 -3.03 l -1.656 -4 l -4 -1.656 l -3.03 -3.03 l -4.281 0 l -4 -1.656 z"/></clipPath><clipPath id="clipPath-713298298"><path d="m 24 2.344 l -4 1.656 l -4.281 0 l -3.03 3.03 l -4 1.656 l -1.656 4 l -3.03 3.03 l 0 4.281 l -1.656 4 l 1.656 4 l 0 4.281 l 3.03 3.03 l 1.656 4 l 4 1.656 l 3.03 3.03 l 4.281 0 l 4 1.656 l 4 -1.656 l 4.281 0 l 3.03 -3.03 l 4 -1.656 l 1.656 -4 l 3.03 -3.03 l 0 -4.281 l 1.656 -4 l -1.656 -4 l 0 -4.281 l -3.03 -3.03 l -1.656 -4 l -4 -1.656 l -3.03 -3.03 l -4.281 0 l -4 -1.656 z"/></clipPath><linearGradient id="linearGradient4317"><stop stop-color="#fff" stop-opacity="1"/><stop offset="1" stop-color="#fff" stop-opacity="0"/></linearGradient><clipPath clipPathUnits="userSpaceOnUse" id="clipPath4313"><path d="m 20 4 -7.313 3.03 -5.656 5.656 -3.03 7.313 0 8 3.03 7.313 5.656 5.656 7.313 3.03 8 0 7.313 -3.03 5.656 -5.656 3.03 -7.313 0 -8 -3.03 -7.313 -5.656 -5.656 -7.313 -3.03 -8 0 z"/></clipPath><linearGradient x2="44" x1="4" gradientUnits="userSpaceOnUse" id="linearGradient4375" xlink:href="#linearGradient4317"/><clipPath clipPathUnits="userSpaceOnUse" id="clipPath4329"><path d="m 24 2.344 -4 1.656 -4.281 0 -3.03 3.03 l -4 1.656 -1.656 4 l -3.03 3.03 0 4.281 -1.656 4 1.656 4 l 0 4.281 3.03 3.03 1.656 4 4 1.656 l 3.03 3.03 4.281 0 4 1.656 4 -1.656 l 4.281 0 3.03 -3.03 4 -1.656 1.656 -4 l 3.03 -3.03 0 -4.281 1.656 -4 -1.656 -4 l 0 -4.281 -3.03 -3.03 -1.656 -4 -4 -1.656 l -3.03 -3.03 -4.281 0 -4 -1.656 z"/></clipPath><path id="SVGCleanerId_0" d="m 24 2.344 l -4 1.656 l -4.281 0 l -3.03 3.03 l -4 1.656 l -1.656 4 l -3.03 3.03 l 0 4.281 l -1.656 4 l 1.656 4 l 0 4.281 l 3.03 3.03 l 1.656 4 l 4 1.656 l 3.03 3.03 l 4.281 0 l 4 1.656 l 4 -1.656 l 4.281 0 l 3.03 -3.03 l 4 -1.656 l 1.656 -4 l 3.03 -3.03 l 0 -4.281 l 1.656 -4 l -1.656 -4 l 0 -4.281 l -3.03 -3.03 l -1.656 -4 l -4 -1.656 l -3.03 -3.03 l -4.281 0 l -4 -1.656 z" visibility="visible" display="inline" fill-rule="nonzero" color="#000" fill-opacity="1"/></defs><g><path d="m 2.563 24.5 l -0.219 0.5 l 1.656 4 l 0 -1 l -1.438 -3.5 z m 42.875 0 l -1.438 3.5 l 0 1 l 1.656 -4 l -0.219 -0.5 z m -41.44 7.781 l 0 1 l 3.03 3.03 l 1.656 4 l 4 1.656 l 3.03 3.03 l 4.281 0 l 4 1.656 l 4 -1.656 l 4.281 0 l 3.03 -3.03 l 4 -1.656 l 1.656 -4 l 3.03 -3.03 l 0 -1 l -3.03 3.03 l -1.656 4 l -4 1.656 l -3.03 3.03 l -4.281 0 l -4 1.656 l -4 -1.656 l -4.281 0 l -3.03 -3.03 l -4 -1.656 l -1.656 -4 l -3.03 -3.03 z" opacity="0.3" visibility="visible" fill="#000" display="inline" fill-rule="nonzero" stroke="none" fill-opacity="1" color="#000"/></g><g><use fill="#0067a4" stroke="none" xlink:href="#SVGCleanerId_0"/><path d="m 24 2.344 l -4 1.656 l 8 0 l -4 -1.656 z m 4 1.656 l 7.313 3.03 l -3.03 -3.03 l -4.281 0 z m 7.313 3.03 l 5.656 5.656 l -1.656 -4 l -4 -1.656 z m 5.656 5.656 l 3.03 7.313 l 0 -4.281 l -3.03 -3.03 z m 3.03 7.313 l 0 8 l 1.656 -4 l -1.656 -4 z m 0 8 l -3.03 7.313 l 3.03 -3.03 l 0 -4.281 z m -3.03 7.313 l -5.656 5.656 l 4 -1.656 l 1.656 -4 z m -5.656 5.656 l -7.313 3.03 l 4.281 0 l 3.03 -3.03 z m -7.313 3.03 l -8 0 l 4 1.656 l 4 -1.656 z m -8 0 l -7.313 -3.03 l 3.03 3.03 l 4.281 0 z m -7.313 -3.03 l -5.656 -5.656 l 1.656 4 l 4 1.656 z m -5.656 -5.656 l -3.03 -7.313 l 0 4.281 l 3.03 3.03 z m -3.03 -7.313 l 0 -8 l -1.656 4 l 1.656 4 z m 0 -8 l 3.03 -7.313 l -3.03 3.03 l 0 4.281 z m 3.03 -7.313 l 5.656 -5.656 l -4 1.656 l -1.656 4 z m 5.656 -5.656 l 7.313 -3.03 l -4.281 0 l -3.03 3.03 z" opacity="0.05" visibility="visible" fill="#0067a4" display="inline" fill-rule="nonzero" stroke="none" fill-opacity="1" color="#000"/></g><g><use opacity="0.05" stroke-opacity="1" stroke-dasharray="none" fill="#000" stroke="#000" stroke-width="2" stroke-miterlimit="4" xlink:href="#SVGCleanerId_0"/><use opacity="0.1" stroke-opacity="1" stroke-dasharray="none" fill="#000" stroke="#000" stroke-width="1" stroke-miterlimit="4" xlink:href="#SVGCleanerId_0"/></g><g><g clip-path="url(#clipPath-704165029)"><g transform="translate(0,1)"><g opacity="0.1"><!-- color: #0067a4 --><g><path d="m 24 11.11 c 3.363 0 6.426 1.285 8.723 3.402 c -1.129 -0.035 -2.246 0.637 -2.297 2.172 c -0.09 3.094 3.707 3.754 1.66 9.984 l -1.695 5.156 l -4.613 -13.586 c -0.07 -0.211 0.012 -0.328 0.273 -0.328 l 1.305 0 c 0.066 0 0.121 -0.063 0.121 -0.133 l 0 -0.773 c 0 -0.066 -0.055 -0.129 -0.121 -0.125 c -2.473 0.109 -4.922 0.109 -7.363 0 c -0.066 -0.004 -0.121 0.059 -0.121 0.125 l 0 0.773 c 0 0.07 0.055 0.133 0.121 0.133 l 1.309 0 c 0.297 0 0.379 0.094 0.445 0.281 l 1.891 5.18 l -2.848 8.609 l -4.684 -13.805 c -0.059 -0.172 0.008 -0.27 0.18 -0.27 l 1.492 0 c 0.066 0 0.125 -0.063 0.125 -0.133 l 0 -0.773 c 0 -0.066 -0.059 -0.129 -0.125 -0.125 c -1.566 0.082 -3.137 0.098 -4.602 0.117 c 2.297 -3.543 6.285 -5.887 10.824 -5.887 m 11.34 6.762 c 0.992 1.824 1.555 3.918 1.555 6.141 c 0 4.879 -2.711 9.121 -6.711 11.316 l 4.02 -11.395 c 0.625 -1.773 1.203 -4.148 1.129 -6.066 m -7.02 18.301 c -1.352 0.48 -2.805 0.742 -4.32 0.742 c -1.309 0 -2.563 -0.195 -3.75 -0.555 l 3.973 -11.387 m -5.742 10.695 c -4.359 -2.063 -7.375 -6.512 -7.375 -11.652 c 0 -1.91 0.41 -3.73 1.156 -5.355 m 11.742 -8.758 c -7.793 0 -14.11 6.316 -14.11 14.11 c 0 7.789 6.316 14.11 14.11 14.11 c 7.789 0 14.11 -6.32 14.11 -14.11 c 0 -7.793 -6.32 -14.11 -14.11 -14.11 m 0 -0.891 c 8.281 0 14.996 6.715 14.996 15 c 0 8.277 -6.715 14.992 -14.996 14.992 c -8.285 0 -15 -6.715 -15 -14.992 c 0 -8.285 6.715 -15 15 -15 m 0 0" fill="#000" stroke="none" fill-rule="nonzero" fill-opacity="1"/></g></g></g></g></g><g><g clip-path="url(#clipPath-713298298)"><!-- color: #0067a4 --><g><path d="m 24 11.11 c 3.363 0 6.426 1.285 8.723 3.402 c -1.129 -0.035 -2.246 0.637 -2.297 2.172 c -0.09 3.094 3.707 3.754 1.66 9.984 l -1.695 5.156 l -4.613 -13.586 c -0.07 -0.211 0.012 -0.328 0.273 -0.328 l 1.305 0 c 0.066 0 0.121 -0.063 0.121 -0.133 l 0 -0.773 c 0 -0.066 -0.055 -0.129 -0.121 -0.125 c -2.473 0.109 -4.922 0.109 -7.363 0 c -0.066 -0.004 -0.121 0.059 -0.121 0.125 l 0 0.773 c 0 0.07 0.055 0.133 0.121 0.133 l 1.309 0 c 0.297 0 0.379 0.094 0.445 0.281 l 1.891 5.18 l -2.848 8.609 l -4.684 -13.805 c -0.059 -0.172 0.008 -0.27 0.18 -0.27 l 1.492 0 c 0.066 0 0.125 -0.063 0.125 -0.133 l 0 -0.773 c 0 -0.066 -0.059 -0.129 -0.125 -0.125 c -1.566 0.082 -3.137 0.098 -4.602 0.117 c 2.297 -3.543 6.285 -5.887 10.824 -5.887 m 11.34 6.762 c 0.992 1.824 1.555 3.918 1.555 6.141 c 0 4.879 -2.711 9.121 -6.711 11.316 l 4.02 -11.395 c 0.625 -1.773 1.203 -4.148 1.129 -6.066 m -7.02 18.301 c -1.352 0.48 -2.805 0.742 -4.32 0.742 c -1.309 0 -2.563 -0.195 -3.75 -0.555 l 3.973 -11.387 m -5.742 10.695 c -4.359 -2.063 -7.375 -6.512 -7.375 -11.652 c 0 -1.91 0.41 -3.73 1.156 -5.355 m 11.742 -8.758 c -7.793 0 -14.11 6.316 -14.11 14.11 c 0 7.789 6.316 14.11 14.11 14.11 c 7.789 0 14.11 -6.32 14.11 -14.11 c 0 -7.793 -6.32 -14.11 -14.11 -14.11 m 0 -0.891 c 8.281 0 14.996 6.715 14.996 15 c 0 8.277 -6.715 14.992 -14.996 14.992 c -8.285 0 -15 -6.715 -15 -14.992 c 0 -8.285 6.715 -15 15 -15 m 0 0" fill="#fff" stroke="none" fill-rule="nonzero" fill-opacity="1"/></g></g></g><g><path d="m 20 4 -7.313 3.03 -5.656 5.656 -3.03 7.313 0 8 3.03 7.313 5.656 5.656 7.313 3.03 8 0 7.313 -3.03 5.656 -5.656 3.03 -7.313 0 -8 -3.03 -7.313 -5.656 -5.656 -7.313 -3.03 -8 0 z" clip-path="url(#clipPath4313)" transform="matrix(0,1,-1,0,48,0)" opacity="0.3" stroke-opacity="1" stroke-dasharray="none" visibility="visible" fill="none" display="inline" stroke="url(#linearGradient4375)" color="#000" stroke-width="1" stroke-miterlimit="4"/><path d="m 24 2.344 -4 1.656 -4.281 0 -3.03 3.03 l -4 1.656 -1.656 4 l -3.03 3.03 0 4.281 -1.656 4 1.656 4 l 0 4.281 3.03 3.03 1.656 4 4 1.656 l 3.03 3.03 4.281 0 4 1.656 4 -1.656 l 4.281 0 3.03 -3.03 4 -1.656 1.656 -4 l 3.03 -3.03 0 -4.281 1.656 -4 -1.656 -4 l 0 -4.281 -3.03 -3.03 -1.656 -4 -4 -1.656 l -3.03 -3.03 -4.281 0 -4 -1.656 z" clip-path="url(#clipPath4329)" opacity="0.2" stroke-opacity="1" visibility="visible" fill="none" display="inline" stroke="#000" color="#000" stroke-width="2"/></g></svg>