<svg viewBox="0 0 48 48" xmlns:xlink="http://www.w3.org/1999/xlink"><defs><clipPath clipPathUnits="userSpaceOnUse" id="clipPath4313"><path d="m 20 4 -7.313 3.03 -5.656 5.656 -3.03 7.313 0 8 3.03 7.313 5.656 5.656 7.313 3.03 8 0 7.313 -3.03 5.656 -5.656 3.03 -7.313 0 -8 -3.03 -7.313 -5.656 -5.656 -7.313 -3.03 -8 0 z"/></clipPath><clipPath clipPathUnits="userSpaceOnUse" id="clipPath4329"><path d="m 24 2.344 -4 1.656 -4.281 0 -3.03 3.03 l -4 1.656 -1.656 4 l -3.03 3.03 0 4.281 -1.656 4 1.656 4 l 0 4.281 3.03 3.03 1.656 4 4 1.656 l 3.03 3.03 4.281 0 4 1.656 4 -1.656 l 4.281 0 3.03 -3.03 4 -1.656 1.656 -4 l 3.03 -3.03 0 -4.281 1.656 -4 -1.656 -4 l 0 -4.281 -3.03 -3.03 -1.656 -4 -4 -1.656 l -3.03 -3.03 -4.281 0 -4 -1.656 z"/></clipPath><clipPath id="clipPath-809250721"><path d="m 24 2.344 l -4 1.656 l -4.281 0 l -3.03 3.03 l -4 1.656 l -1.656 4 l -3.03 3.03 l 0 4.281 l -1.656 4 l 1.656 4 l 0 4.281 l 3.03 3.03 l 1.656 4 l 4 1.656 l 3.03 3.03 l 4.281 0 l 4 1.656 l 4 -1.656 l 4.281 0 l 3.03 -3.03 l 4 -1.656 l 1.656 -4 l 3.03 -3.03 l 0 -4.281 l 1.656 -4 l -1.656 -4 l 0 -4.281 l -3.03 -3.03 l -1.656 -4 l -4 -1.656 l -3.03 -3.03 l -4.281 0 l -4 -1.656 z"/></clipPath><clipPath id="clipPath-821091932"><path d="m 24 2.344 l -4 1.656 l -4.281 0 l -3.03 3.03 l -4 1.656 l -1.656 4 l -3.03 3.03 l 0 4.281 l -1.656 4 l 1.656 4 l 0 4.281 l 3.03 3.03 l 1.656 4 l 4 1.656 l 3.03 3.03 l 4.281 0 l 4 1.656 l 4 -1.656 l 4.281 0 l 3.03 -3.03 l 4 -1.656 l 1.656 -4 l 3.03 -3.03 l 0 -4.281 l 1.656 -4 l -1.656 -4 l 0 -4.281 l -3.03 -3.03 l -1.656 -4 l -4 -1.656 l -3.03 -3.03 l -4.281 0 l -4 -1.656 z"/></clipPath><linearGradient id="linearGradient4317"><stop stop-color="#fff" stop-opacity="1"/><stop offset="1" stop-color="#fff" stop-opacity="0"/></linearGradient><clipPath clipPathUnits="userSpaceOnUse" id="clipPath4313"><path d="m 20 4 -7.313 3.03 -5.656 5.656 -3.03 7.313 0 8 3.03 7.313 5.656 5.656 7.313 3.03 8 0 7.313 -3.03 5.656 -5.656 3.03 -7.313 0 -8 -3.03 -7.313 -5.656 -5.656 -7.313 -3.03 -8 0 z"/></clipPath><linearGradient x2="44" x1="4" gradientUnits="userSpaceOnUse" id="linearGradient4375" xlink:href="#linearGradient4317"/><clipPath clipPathUnits="userSpaceOnUse" id="clipPath4329"><path d="m 24 2.344 -4 1.656 -4.281 0 -3.03 3.03 l -4 1.656 -1.656 4 l -3.03 3.03 0 4.281 -1.656 4 1.656 4 l 0 4.281 3.03 3.03 1.656 4 4 1.656 l 3.03 3.03 4.281 0 4 1.656 4 -1.656 l 4.281 0 3.03 -3.03 4 -1.656 1.656 -4 l 3.03 -3.03 0 -4.281 1.656 -4 -1.656 -4 l 0 -4.281 -3.03 -3.03 -1.656 -4 -4 -1.656 l -3.03 -3.03 -4.281 0 -4 -1.656 z"/></clipPath><path id="SVGCleanerId_0" d="m 24 2.344 l -4 1.656 l -4.281 0 l -3.03 3.03 l -4 1.656 l -1.656 4 l -3.03 3.03 l 0 4.281 l -1.656 4 l 1.656 4 l 0 4.281 l 3.03 3.03 l 1.656 4 l 4 1.656 l 3.03 3.03 l 4.281 0 l 4 1.656 l 4 -1.656 l 4.281 0 l 3.03 -3.03 l 4 -1.656 l 1.656 -4 l 3.03 -3.03 l 0 -4.281 l 1.656 -4 l -1.656 -4 l 0 -4.281 l -3.03 -3.03 l -1.656 -4 l -4 -1.656 l -3.03 -3.03 l -4.281 0 l -4 -1.656 z" visibility="visible" display="inline" fill-rule="nonzero" color="#000" fill-opacity="1"/></defs><g><path d="m 2.563 24.5 l -0.219 0.5 l 1.656 4 l 0 -1 l -1.438 -3.5 z m 42.875 0 l -1.438 3.5 l 0 1 l 1.656 -4 l -0.219 -0.5 z m -41.44 7.781 l 0 1 l 3.03 3.03 l 1.656 4 l 4 1.656 l 3.03 3.03 l 4.281 0 l 4 1.656 l 4 -1.656 l 4.281 0 l 3.03 -3.03 l 4 -1.656 l 1.656 -4 l 3.03 -3.03 l 0 -1 l -3.03 3.03 l -1.656 4 l -4 1.656 l -3.03 3.03 l -4.281 0 l -4 1.656 l -4 -1.656 l -4.281 0 l -3.03 -3.03 l -4 -1.656 l -1.656 -4 l -3.03 -3.03 z" opacity="0.3" visibility="visible" fill="#000" display="inline" fill-rule="nonzero" stroke="none" fill-opacity="1" color="#000"/></g><g><use fill="#619bd0" stroke="none" xlink:href="#SVGCleanerId_0"/><path d="m 24 2.344 l -4 1.656 l 8 0 l -4 -1.656 z m 4 1.656 l 7.313 3.03 l -3.03 -3.03 l -4.281 0 z m 7.313 3.03 l 5.656 5.656 l -1.656 -4 l -4 -1.656 z m 5.656 5.656 l 3.03 7.313 l 0 -4.281 l -3.03 -3.03 z m 3.03 7.313 l 0 8 l 1.656 -4 l -1.656 -4 z m 0 8 l -3.03 7.313 l 3.03 -3.03 l 0 -4.281 z m -3.03 7.313 l -5.656 5.656 l 4 -1.656 l 1.656 -4 z m -5.656 5.656 l -7.313 3.03 l 4.281 0 l 3.03 -3.03 z m -7.313 3.03 l -8 0 l 4 1.656 l 4 -1.656 z m -8 0 l -7.313 -3.03 l 3.03 3.03 l 4.281 0 z m -7.313 -3.03 l -5.656 -5.656 l 1.656 4 l 4 1.656 z m -5.656 -5.656 l -3.03 -7.313 l 0 4.281 l 3.03 3.03 z m -3.03 -7.313 l 0 -8 l -1.656 4 l 1.656 4 z m 0 -8 l 3.03 -7.313 l -3.03 3.03 l 0 4.281 z m 3.03 -7.313 l 5.656 -5.656 l -4 1.656 l -1.656 4 z m 5.656 -5.656 l 7.313 -3.03 l -4.281 0 l -3.03 3.03 z" opacity="0.05" visibility="visible" fill="#619bd0" display="inline" fill-rule="nonzero" stroke="none" fill-opacity="1" color="#000"/></g><g><use opacity="0.05" stroke-opacity="1" stroke-dasharray="none" fill="#000" stroke="#000" stroke-width="2" stroke-miterlimit="4" xlink:href="#SVGCleanerId_0"/><use opacity="0.1" stroke-opacity="1" stroke-dasharray="none" fill="#000" stroke="#000" stroke-width="1" stroke-miterlimit="4" xlink:href="#SVGCleanerId_0"/></g><g><g clip-path="url(#clipPath-809250721)"><g transform="translate(0,1)"><g opacity="0.1"><!-- color: #619bd0 --><g><path d="m 11 11 l 4.215 6.422 c 1.449 -2.273 7.914 6.871 6.883 -3.121 l -2.16 -3.301 m 5.129 4.543 c -16.711 21.637 -8.355 10.82 0 0 m 0 0 c 0.262 0.195 0.523 0.398 0.762 0.637 c 3.824 7.762 3.344 16.281 -8.203 10.734 l -6.625 10.08 l 8.934 0 l 4.066 -6.188 l 4.063 6.188 l 8.941 0 l -8.531 -13 l 8.531 -13 l -8.941 0 m -13.05 6.129 l 4.52 6.887 l -2 3.063 c 2.102 1.168 7.391 3.32 9.176 1.535 c 2.156 -2.16 2.336 -9.926 0.176 -12.09 c -0.164 -0.168 -1.539 -0.977 -1.723 -1.117 l -1.227 1.859 l -1.844 -2.969 c -3.145 -0.195 -8.813 0.254 -7.07 2.832 m 0 -0.004" fill="#000" stroke="none" fill-rule="nonzero" fill-opacity="1"/><path d="m 23.992 12.02 c -0.652 0 -0.965 2.051 -1.078 3.02 c -0.023 0.293 -0.047 0.559 -0.047 0.828 l 0 2.902 c -0.008 0.168 -0.039 0.211 -0.137 0.297 l -2.355 1.949 c -0.16 0.105 -0.371 0.102 -0.355 -0.262 l 0 -0.258 c 0 -0.145 -0.117 -0.262 -0.27 -0.262 l -0.336 0 c -0.152 0 -0.273 0.117 -0.273 0.262 l 0 1.52 c 0 0.047 -0.008 0.051 -0.043 0.082 l -2.234 1.887 c -0.227 0.152 -0.313 0.004 -0.324 -0.262 l 0 -0.473 c 0 -0.145 -0.117 -0.262 -0.27 -0.262 l -0.336 0 c -0.152 0 -0.273 0.117 -0.273 0.262 l 0 1.574 c 0 0.02 -0.008 0.023 -0.02 0.031 l -2.395 1.969 c -0.152 0.184 -0.242 0.27 -0.234 0.582 l -0.012 0.887 c -0.02 0.117 0.102 0.168 0.184 0.129 c 0 0 4.09 -2.402 5.656 -3.063 c 1.57 -0.656 3.66 -1.109 3.66 -1.109 c 0.16 -0.035 0.305 -0.043 0.367 0.121 l 0 6.648 c 0.004 0.793 0.316 1.273 0 1.559 l -2.609 2.414 c -0.156 0.16 -0.25 0.297 -0.266 0.555 l 0.004 0.277 c 0.008 0.125 0.059 0.191 0.18 0.176 l 3.336 -0.777 c 0.086 -0.027 0.156 -0.02 0.219 0.063 l 0.34 0.715 l 0.418 -0.734 c 0.059 -0.078 0.168 -0.113 0.25 -0.086 c 1.027 0.23 2.055 0.461 3.086 0.695 c 0.129 0.016 0.238 0.012 0.254 -0.156 l 0 -0.422 c -0.066 -0.289 -0.242 -0.422 -0.426 -0.598 l -2.617 -2.121 c -0.246 -0.234 -0.004 -0.734 0.082 -1.535 l 0 -6.57 l 0.004 0 l 0 -0.008 l 0.008 0 c 0 -0.012 0.004 -0.02 0.004 -0.027 c 0.004 -0.012 0.008 -0.02 0.012 -0.027 c 0 -0.008 0.004 -0.016 0.008 -0.02 c 0.004 -0.008 0.004 -0.02 0.008 -0.023 c 0.004 -0.008 0.016 -0.016 0.02 -0.02 c 0.004 -0.008 0.008 -0.02 0.016 -0.023 c 0.004 -0.008 0.008 -0.012 0.016 -0.02 c 0.004 -0.004 0.012 -0.012 0.016 -0.016 c 0.008 -0.004 0.012 -0.008 0.02 -0.012 c 0.008 -0.008 0.016 -0.012 0.023 -0.016 c 0.008 -0.004 0.012 -0.004 0.02 -0.008 c 0.012 -0.004 0.02 -0.004 0.027 -0.008 c 0.012 0 0.02 0 0.027 -0.004 c 0.012 0 0.023 0 0.031 0 c 0.012 0 0.023 0.004 0.035 0.004 c 0.012 0 0.023 0 0.035 0.004 c 0 0 1.898 0.391 3.5 1.035 c 1.602 0.645 5.871 3.074 5.871 3.074 c 0.098 0.02 0.18 0.008 0.191 -0.086 l 0 -0.82 c 0.004 -0.219 -0.141 -0.418 -0.234 -0.504 l -2.34 -1.973 c -0.082 -0.094 -0.105 -0.113 -0.105 -0.168 l 0 -1.559 c 0 -0.145 -0.125 -0.262 -0.27 -0.262 l -0.34 0 c -0.148 0 -0.273 0.117 -0.273 0.262 l 0 0.473 c 0.027 0.281 -0.051 0.387 -0.23 0.254 l -2.305 -1.879 c -0.051 -0.043 -0.063 -0.043 -0.063 -0.086 l 0 -1.516 c 0 -0.145 -0.121 -0.262 -0.273 -0.262 l -0.336 0 c -0.145 0 -0.27 0.117 -0.27 0.262 l 0 0.258 c 0.039 0.363 -0.211 0.434 -0.379 0.262 l -2.344 -1.957 c -0.105 -0.094 -0.113 -0.148 -0.129 -0.281 l 0 -2.91 c -0.008 -0.285 -0.02 -0.609 -0.059 -0.871 c -0.137 -1.02 -0.551 -3.219 -1.066 -2.973 m 0 0" fill="#000" stroke="none" fill-rule="evenodd" fill-opacity="1"/></g></g></g></g></g><g><g clip-path="url(#clipPath-821091932)"><!-- color: #619bd0 --><g><path d="m 11 11 l 4.215 6.422 c 1.449 -2.273 7.914 6.871 6.883 -3.121 l -2.16 -3.301 m 5.129 4.543 c -16.711 21.637 -8.355 10.82 0 0 m 0 0 c 0.262 0.195 0.523 0.398 0.762 0.637 c 3.824 7.762 3.344 16.281 -8.203 10.734 l -6.625 10.08 l 8.934 0 l 4.066 -6.188 l 4.063 6.188 l 8.941 0 l -8.531 -13 l 8.531 -13 l -8.941 0 m -13.05 6.129 l 4.52 6.887 l -2 3.063 c 2.102 1.168 7.391 3.32 9.176 1.535 c 2.156 -2.16 2.336 -9.926 0.176 -12.09 c -0.164 -0.168 -1.539 -0.977 -1.723 -1.117 l -1.227 1.859 l -1.844 -2.969 c -3.145 -0.195 -8.813 0.254 -7.07 2.832 m 0 -0.004" fill="#2d2d2d" stroke="none" fill-rule="nonzero" fill-opacity="1"/><path d="m 23.992 12.02 c -0.652 0 -0.965 2.051 -1.078 3.02 c -0.023 0.293 -0.047 0.559 -0.047 0.828 l 0 2.902 c -0.008 0.168 -0.039 0.211 -0.137 0.297 l -2.355 1.949 c -0.16 0.105 -0.371 0.102 -0.355 -0.262 l 0 -0.258 c 0 -0.145 -0.117 -0.262 -0.27 -0.262 l -0.336 0 c -0.152 0 -0.273 0.117 -0.273 0.262 l 0 1.52 c 0 0.047 -0.008 0.051 -0.043 0.082 l -2.234 1.887 c -0.227 0.152 -0.313 0.004 -0.324 -0.262 l 0 -0.473 c 0 -0.145 -0.117 -0.262 -0.27 -0.262 l -0.336 0 c -0.152 0 -0.273 0.117 -0.273 0.262 l 0 1.574 c 0 0.02 -0.008 0.023 -0.02 0.031 l -2.395 1.969 c -0.152 0.184 -0.242 0.27 -0.234 0.582 l -0.012 0.887 c -0.02 0.117 0.102 0.168 0.184 0.129 c 0 0 4.09 -2.402 5.656 -3.063 c 1.57 -0.656 3.66 -1.109 3.66 -1.109 c 0.16 -0.035 0.305 -0.043 0.367 0.121 l 0 6.648 c 0.004 0.793 0.316 1.273 0 1.559 l -2.609 2.414 c -0.156 0.16 -0.25 0.297 -0.266 0.555 l 0.004 0.277 c 0.008 0.125 0.059 0.191 0.18 0.176 l 3.336 -0.777 c 0.086 -0.027 0.156 -0.02 0.219 0.063 l 0.34 0.715 l 0.418 -0.734 c 0.059 -0.078 0.168 -0.113 0.25 -0.086 c 1.027 0.23 2.055 0.461 3.086 0.695 c 0.129 0.016 0.238 0.012 0.254 -0.156 l 0 -0.422 c -0.066 -0.289 -0.242 -0.422 -0.426 -0.598 l -2.617 -2.121 c -0.246 -0.234 -0.004 -0.734 0.082 -1.535 l 0 -6.57 l 0.004 0 l 0 -0.008 l 0.008 0 c 0 -0.012 0.004 -0.02 0.004 -0.027 c 0.004 -0.012 0.008 -0.02 0.012 -0.027 c 0 -0.008 0.004 -0.016 0.008 -0.02 c 0.004 -0.008 0.004 -0.02 0.008 -0.023 c 0.004 -0.008 0.016 -0.016 0.02 -0.02 c 0.004 -0.008 0.008 -0.02 0.016 -0.023 c 0.004 -0.008 0.008 -0.012 0.016 -0.02 c 0.004 -0.004 0.012 -0.012 0.016 -0.016 c 0.008 -0.004 0.012 -0.008 0.02 -0.012 c 0.008 -0.008 0.016 -0.012 0.023 -0.016 c 0.008 -0.004 0.012 -0.004 0.02 -0.008 c 0.012 -0.004 0.02 -0.004 0.027 -0.008 c 0.012 0 0.02 0 0.027 -0.004 c 0.012 0 0.023 0 0.031 0 c 0.012 0 0.023 0.004 0.035 0.004 c 0.012 0 0.023 0 0.035 0.004 c 0 0 1.898 0.391 3.5 1.035 c 1.602 0.645 5.871 3.074 5.871 3.074 c 0.098 0.02 0.18 0.008 0.191 -0.086 l 0 -0.82 c 0.004 -0.219 -0.141 -0.418 -0.234 -0.504 l -2.34 -1.973 c -0.082 -0.094 -0.105 -0.113 -0.105 -0.168 l 0 -1.559 c 0 -0.145 -0.125 -0.262 -0.27 -0.262 l -0.34 0 c -0.148 0 -0.273 0.117 -0.273 0.262 l 0 0.473 c 0.027 0.281 -0.051 0.387 -0.23 0.254 l -2.305 -1.879 c -0.051 -0.043 -0.063 -0.043 -0.063 -0.086 l 0 -1.516 c 0 -0.145 -0.121 -0.262 -0.273 -0.262 l -0.336 0 c -0.145 0 -0.27 0.117 -0.27 0.262 l 0 0.258 c 0.039 0.363 -0.211 0.434 -0.379 0.262 l -2.344 -1.957 c -0.105 -0.094 -0.113 -0.148 -0.129 -0.281 l 0 -2.91 c -0.008 -0.285 -0.02 -0.609 -0.059 -0.871 c -0.137 -1.02 -0.551 -3.219 -1.066 -2.973 m 0 0" fill="#fff" stroke="none" fill-rule="evenodd" fill-opacity="1"/></g></g></g><g><path d="m 20 4 -7.313 3.03 -5.656 5.656 -3.03 7.313 0 8 3.03 7.313 5.656 5.656 7.313 3.03 8 0 7.313 -3.03 5.656 -5.656 3.03 -7.313 0 -8 -3.03 -7.313 -5.656 -5.656 -7.313 -3.03 -8 0 z" clip-path="url(#clipPath4313)" transform="matrix(0,1,-1,0,48,0)" opacity="0.3" stroke-opacity="1" stroke-dasharray="none" visibility="visible" fill="none" display="inline" stroke="url(#linearGradient4375)" color="#000" stroke-width="1" stroke-miterlimit="4"/><path d="m 24 2.344 -4 1.656 -4.281 0 -3.03 3.03 l -4 1.656 -1.656 4 l -3.03 3.03 0 4.281 -1.656 4 1.656 4 l 0 4.281 3.03 3.03 1.656 4 4 1.656 l 3.03 3.03 4.281 0 4 1.656 4 -1.656 l 4.281 0 3.03 -3.03 4 -1.656 1.656 -4 l 3.03 -3.03 0 -4.281 1.656 -4 -1.656 -4 l 0 -4.281 -3.03 -3.03 -1.656 -4 -4 -1.656 l -3.03 -3.03 -4.281 0 -4 -1.656 z" clip-path="url(#clipPath4329)" opacity="0.2" stroke-opacity="1" visibility="visible" fill="none" display="inline" stroke="#000" color="#000" stroke-width="2"/></g></svg>