<svg viewBox="0 0 48 48" xmlns:xlink="http://www.w3.org/1999/xlink"><defs><clipPath clipPathUnits="userSpaceOnUse" id="clipPath4313"><path d="m 20 4 -7.313 3.03 -5.656 5.656 -3.03 7.313 0 8 3.03 7.313 5.656 5.656 7.313 3.03 8 0 7.313 -3.03 5.656 -5.656 3.03 -7.313 0 -8 -3.03 -7.313 -5.656 -5.656 -7.313 -3.03 -8 0 z"/></clipPath><clipPath clipPathUnits="userSpaceOnUse" id="clipPath4329"><path d="m 24 2.344 -4 1.656 -4.281 0 -3.03 3.03 l -4 1.656 -1.656 4 l -3.03 3.03 0 4.281 -1.656 4 1.656 4 l 0 4.281 3.03 3.03 1.656 4 4 1.656 l 3.03 3.03 4.281 0 4 1.656 4 -1.656 l 4.281 0 3.03 -3.03 4 -1.656 1.656 -4 l 3.03 -3.03 0 -4.281 1.656 -4 -1.656 -4 l 0 -4.281 -3.03 -3.03 -1.656 -4 -4 -1.656 l -3.03 -3.03 -4.281 0 -4 -1.656 z"/></clipPath><clipPath id="clipPath-181408808"><path d="m 24 2.344 l -4 1.656 l -4.281 0 l -3.03 3.03 l -4 1.656 l -1.656 4 l -3.03 3.03 l 0 4.281 l -1.656 4 l 1.656 4 l 0 4.281 l 3.03 3.03 l 1.656 4 l 4 1.656 l 3.03 3.03 l 4.281 0 l 4 1.656 l 4 -1.656 l 4.281 0 l 3.03 -3.03 l 4 -1.656 l 1.656 -4 l 3.03 -3.03 l 0 -4.281 l 1.656 -4 l -1.656 -4 l 0 -4.281 l -3.03 -3.03 l -1.656 -4 l -4 -1.656 l -3.03 -3.03 l -4.281 0 l -4 -1.656 z"/></clipPath><clipPath id="clipPath-194358774"><path d="m 24 2.344 l -4 1.656 l -4.281 0 l -3.03 3.03 l -4 1.656 l -1.656 4 l -3.03 3.03 l 0 4.281 l -1.656 4 l 1.656 4 l 0 4.281 l 3.03 3.03 l 1.656 4 l 4 1.656 l 3.03 3.03 l 4.281 0 l 4 1.656 l 4 -1.656 l 4.281 0 l 3.03 -3.03 l 4 -1.656 l 1.656 -4 l 3.03 -3.03 l 0 -4.281 l 1.656 -4 l -1.656 -4 l 0 -4.281 l -3.03 -3.03 l -1.656 -4 l -4 -1.656 l -3.03 -3.03 l -4.281 0 l -4 -1.656 z"/></clipPath><linearGradient id="linearGradient4317"><stop stop-color="#fff" stop-opacity="1"/><stop offset="1" stop-color="#fff" stop-opacity="0"/></linearGradient><clipPath clipPathUnits="userSpaceOnUse" id="clipPath4313"><path d="m 20 4 -7.313 3.03 -5.656 5.656 -3.03 7.313 0 8 3.03 7.313 5.656 5.656 7.313 3.03 8 0 7.313 -3.03 5.656 -5.656 3.03 -7.313 0 -8 -3.03 -7.313 -5.656 -5.656 -7.313 -3.03 -8 0 z"/></clipPath><linearGradient x2="44" x1="4" gradientUnits="userSpaceOnUse" id="linearGradient4375" xlink:href="#linearGradient4317"/><clipPath clipPathUnits="userSpaceOnUse" id="clipPath4329"><path d="m 24 2.344 -4 1.656 -4.281 0 -3.03 3.03 l -4 1.656 -1.656 4 l -3.03 3.03 0 4.281 -1.656 4 1.656 4 l 0 4.281 3.03 3.03 1.656 4 4 1.656 l 3.03 3.03 4.281 0 4 1.656 4 -1.656 l 4.281 0 3.03 -3.03 4 -1.656 1.656 -4 l 3.03 -3.03 0 -4.281 1.656 -4 -1.656 -4 l 0 -4.281 -3.03 -3.03 -1.656 -4 -4 -1.656 l -3.03 -3.03 -4.281 0 -4 -1.656 z"/></clipPath><path id="SVGCleanerId_0" d="m 24 2.344 l -4 1.656 l -4.281 0 l -3.03 3.03 l -4 1.656 l -1.656 4 l -3.03 3.03 l 0 4.281 l -1.656 4 l 1.656 4 l 0 4.281 l 3.03 3.03 l 1.656 4 l 4 1.656 l 3.03 3.03 l 4.281 0 l 4 1.656 l 4 -1.656 l 4.281 0 l 3.03 -3.03 l 4 -1.656 l 1.656 -4 l 3.03 -3.03 l 0 -4.281 l 1.656 -4 l -1.656 -4 l 0 -4.281 l -3.03 -3.03 l -1.656 -4 l -4 -1.656 l -3.03 -3.03 l -4.281 0 l -4 -1.656 z" visibility="visible" display="inline" fill-rule="nonzero" color="#000" fill-opacity="1"/></defs><g><path d="m 2.563 24.5 l -0.219 0.5 l 1.656 4 l 0 -1 l -1.438 -3.5 z m 42.875 0 l -1.438 3.5 l 0 1 l 1.656 -4 l -0.219 -0.5 z m -41.44 7.781 l 0 1 l 3.03 3.03 l 1.656 4 l 4 1.656 l 3.03 3.03 l 4.281 0 l 4 1.656 l 4 -1.656 l 4.281 0 l 3.03 -3.03 l 4 -1.656 l 1.656 -4 l 3.03 -3.03 l 0 -1 l -3.03 3.03 l -1.656 4 l -4 1.656 l -3.03 3.03 l -4.281 0 l -4 1.656 l -4 -1.656 l -4.281 0 l -3.03 -3.03 l -4 -1.656 l -1.656 -4 l -3.03 -3.03 z" opacity="0.3" visibility="visible" fill="#000" display="inline" fill-rule="nonzero" stroke="none" fill-opacity="1" color="#000"/></g><g><use fill="#de487e" stroke="none" xlink:href="#SVGCleanerId_0"/><path d="m 24 2.344 l -4 1.656 l 8 0 l -4 -1.656 z m 4 1.656 l 7.313 3.03 l -3.03 -3.03 l -4.281 0 z m 7.313 3.03 l 5.656 5.656 l -1.656 -4 l -4 -1.656 z m 5.656 5.656 l 3.03 7.313 l 0 -4.281 l -3.03 -3.03 z m 3.03 7.313 l 0 8 l 1.656 -4 l -1.656 -4 z m 0 8 l -3.03 7.313 l 3.03 -3.03 l 0 -4.281 z m -3.03 7.313 l -5.656 5.656 l 4 -1.656 l 1.656 -4 z m -5.656 5.656 l -7.313 3.03 l 4.281 0 l 3.03 -3.03 z m -7.313 3.03 l -8 0 l 4 1.656 l 4 -1.656 z m -8 0 l -7.313 -3.03 l 3.03 3.03 l 4.281 0 z m -7.313 -3.03 l -5.656 -5.656 l 1.656 4 l 4 1.656 z m -5.656 -5.656 l -3.03 -7.313 l 0 4.281 l 3.03 3.03 z m -3.03 -7.313 l 0 -8 l -1.656 4 l 1.656 4 z m 0 -8 l 3.03 -7.313 l -3.03 3.03 l 0 4.281 z m 3.03 -7.313 l 5.656 -5.656 l -4 1.656 l -1.656 4 z m 5.656 -5.656 l 7.313 -3.03 l -4.281 0 l -3.03 3.03 z" opacity="0.05" visibility="visible" fill="#de487e" display="inline" fill-rule="nonzero" stroke="none" fill-opacity="1" color="#000"/></g><g><use opacity="0.05" stroke-opacity="1" stroke-dasharray="none" fill="#000" stroke="#000" stroke-width="2" stroke-miterlimit="4" xlink:href="#SVGCleanerId_0"/><use opacity="0.1" stroke-opacity="1" stroke-dasharray="none" fill="#000" stroke="#000" stroke-width="1" stroke-miterlimit="4" xlink:href="#SVGCleanerId_0"/></g><g><g clip-path="url(#clipPath-181408808)"><g transform="translate(0,1)"><g opacity="0.1"><!-- color: #de487e --><g><path d="m 13.875 15 c -1.102 0.16 -1.977 1.305 -1.863 2.445 c 0.113 1.141 1.195 2.082 2.309 2.01 l 1.223 0 c 0.523 0 0.707 0.125 1.094 0.492 c 0.387 0.363 0.895 1.051 1.43 1.898 c 0.426 0.672 0.898 1.438 1.535 2.176 c -0.633 0.734 -1.113 1.512 -1.535 2.176 c -0.535 0.844 -1.043 1.496 -1.43 1.859 c -0.387 0.367 -0.57 0.492 -1.094 0.492 l -1.223 0 c -1.352 -0.043 -2.32 1.352 -2.32 2.457 c 0 1.102 1.254 1.895 2.32 2 l 1.223 0 c 1.625 0 3.141 -0.824 4.094 -1.723 c 0.953 -0.895 1.547 -1.895 2.082 -2.734 c 0.535 -0.848 0.941 -1.492 1.328 -1.859 c 0.34 -0.445 0.555 -0.566 0.953 -0.684 c 0.52 0 0.809 0.316 1.191 0.684 c 0.387 0.367 0.934 1.016 1.469 1.859 c 0.535 0.844 1.094 1.84 2.043 2.734 c 0.953 0.898 2.367 1.723 3.992 1.723 l 1.328 0 c 1.066 -0.105 1.973 -1.133 1.973 -2.23 c 0 -1.102 -0.906 -2.125 -1.973 -2.227 l -1.328 0 c -0.523 0 -0.707 -0.125 -1.094 -0.492 c -0.387 -0.363 -0.793 -1.02 -1.328 -1.859 c -0.434 -0.688 -0.895 -1.492 -1.57 -2.246 c 0.223 -0.246 0.438 -0.523 0.613 -0.773 c 1.012 -1.398 1.707 -2.68 2.285 -3.227 c 0.387 -0.363 0.57 -0.492 1.094 -0.492 l 1.328 0 c 1.066 -0.102 1.969 -1.129 1.969 -2.23 c 0 -1.102 -0.902 -2.125 -1.969 -2.227 l -1.328 0 c -1.621 0 -3.039 0.824 -3.992 1.719 c -1.43 1.344 -2.063 2.887 -2.762 3.855 c -0.703 0.973 -1.164 1.418 -1.945 1.418 c -1.09 -0.426 -1.727 -1.668 -2.281 -2.539 c -0.535 -0.844 -1.129 -1.84 -2.082 -2.734 c -0.953 -0.898 -2.469 -1.719 -4.094 -1.719 l -1.223 0 c -0.078 0 -0.16 0 -0.238 0 c -0.066 0 -0.141 0 -0.207 0 m 0.004 0" fill="#000" stroke="none" fill-rule="nonzero" fill-opacity="1"/></g></g></g></g></g><g><g clip-path="url(#clipPath-194358774)"><!-- color: #de487e --><g><path d="m 13.875 15 c -1.102 0.16 -1.977 1.305 -1.863 2.445 c 0.113 1.141 1.195 2.082 2.309 2.01 l 1.223 0 c 0.523 0 0.707 0.125 1.094 0.492 c 0.387 0.363 0.895 1.051 1.43 1.898 c 0.426 0.672 0.898 1.438 1.535 2.176 c -0.633 0.734 -1.113 1.512 -1.535 2.176 c -0.535 0.844 -1.043 1.496 -1.43 1.859 c -0.387 0.367 -0.57 0.492 -1.094 0.492 l -1.223 0 c -1.352 -0.043 -2.32 1.352 -2.32 2.457 c 0 1.102 1.254 1.895 2.32 2 l 1.223 0 c 1.625 0 3.141 -0.824 4.094 -1.723 c 0.953 -0.895 1.547 -1.895 2.082 -2.734 c 0.535 -0.848 0.941 -1.492 1.328 -1.859 c 0.34 -0.445 0.555 -0.566 0.953 -0.684 c 0.52 0 0.809 0.316 1.191 0.684 c 0.387 0.367 0.934 1.016 1.469 1.859 c 0.535 0.844 1.094 1.84 2.043 2.734 c 0.953 0.898 2.367 1.723 3.992 1.723 l 1.328 0 c 1.066 -0.105 1.973 -1.133 1.973 -2.23 c 0 -1.102 -0.906 -2.125 -1.973 -2.227 l -1.328 0 c -0.523 0 -0.707 -0.125 -1.094 -0.492 c -0.387 -0.363 -0.793 -1.02 -1.328 -1.859 c -0.434 -0.688 -0.895 -1.492 -1.57 -2.246 c 0.223 -0.246 0.438 -0.523 0.613 -0.773 c 1.012 -1.398 1.707 -2.68 2.285 -3.227 c 0.387 -0.363 0.57 -0.492 1.094 -0.492 l 1.328 0 c 1.066 -0.102 1.969 -1.129 1.969 -2.23 c 0 -1.102 -0.902 -2.125 -1.969 -2.227 l -1.328 0 c -1.621 0 -3.039 0.824 -3.992 1.719 c -1.43 1.344 -2.063 2.887 -2.762 3.855 c -0.703 0.973 -1.164 1.418 -1.945 1.418 c -1.09 -0.426 -1.727 -1.668 -2.281 -2.539 c -0.535 -0.844 -1.129 -1.84 -2.082 -2.734 c -0.953 -0.898 -2.469 -1.719 -4.094 -1.719 l -1.223 0 c -0.078 0 -0.16 0 -0.238 0 c -0.066 0 -0.141 0 -0.207 0 m 0.004 0" fill="#f9f9f9" stroke="none" fill-rule="nonzero" fill-opacity="1"/></g></g></g><g><path d="m 20 4 -7.313 3.03 -5.656 5.656 -3.03 7.313 0 8 3.03 7.313 5.656 5.656 7.313 3.03 8 0 7.313 -3.03 5.656 -5.656 3.03 -7.313 0 -8 -3.03 -7.313 -5.656 -5.656 -7.313 -3.03 -8 0 z" clip-path="url(#clipPath4313)" transform="matrix(0,1,-1,0,48,0)" opacity="0.3" stroke-opacity="1" stroke-dasharray="none" visibility="visible" fill="none" display="inline" stroke="url(#linearGradient4375)" color="#000" stroke-width="1" stroke-miterlimit="4"/><path d="m 24 2.344 -4 1.656 -4.281 0 -3.03 3.03 l -4 1.656 -1.656 4 l -3.03 3.03 0 4.281 -1.656 4 1.656 4 l 0 4.281 3.03 3.03 1.656 4 4 1.656 l 3.03 3.03 4.281 0 4 1.656 4 -1.656 l 4.281 0 3.03 -3.03 4 -1.656 1.656 -4 l 3.03 -3.03 0 -4.281 1.656 -4 -1.656 -4 l 0 -4.281 -3.03 -3.03 -1.656 -4 -4 -1.656 l -3.03 -3.03 -4.281 0 -4 -1.656 z" clip-path="url(#clipPath4329)" opacity="0.2" stroke-opacity="1" visibility="visible" fill="none" display="inline" stroke="#000" color="#000" stroke-width="2"/></g></svg>