<svg viewBox="0 0 48 48" xmlns:xlink="http://www.w3.org/1999/xlink"><defs><clipPath clipPathUnits="userSpaceOnUse" id="clipPath4313"><path d="m 20 4 -7.313 3.03 -5.656 5.656 -3.03 7.313 0 8 3.03 7.313 5.656 5.656 7.313 3.03 8 0 7.313 -3.03 5.656 -5.656 3.03 -7.313 0 -8 -3.03 -7.313 -5.656 -5.656 -7.313 -3.03 -8 0 z"/></clipPath><clipPath clipPathUnits="userSpaceOnUse" id="clipPath4329"><path d="m 24 2.344 -4 1.656 -4.281 0 -3.03 3.03 l -4 1.656 -1.656 4 l -3.03 3.03 0 4.281 -1.656 4 1.656 4 l 0 4.281 3.03 3.03 1.656 4 4 1.656 l 3.03 3.03 4.281 0 4 1.656 4 -1.656 l 4.281 0 3.03 -3.03 4 -1.656 1.656 -4 l 3.03 -3.03 0 -4.281 1.656 -4 -1.656 -4 l 0 -4.281 -3.03 -3.03 -1.656 -4 -4 -1.656 l -3.03 -3.03 -4.281 0 -4 -1.656 z"/></clipPath><clipPath id="clipPath-520958774"><path d="m 24 2.344 l -4 1.656 l -4.281 0 l -3.03 3.03 l -4 1.656 l -1.656 4 l -3.03 3.03 l 0 4.281 l -1.656 4 l 1.656 4 l 0 4.281 l 3.03 3.03 l 1.656 4 l 4 1.656 l 3.03 3.03 l 4.281 0 l 4 1.656 l 4 -1.656 l 4.281 0 l 3.03 -3.03 l 4 -1.656 l 1.656 -4 l 3.03 -3.03 l 0 -4.281 l 1.656 -4 l -1.656 -4 l 0 -4.281 l -3.03 -3.03 l -1.656 -4 l -4 -1.656 l -3.03 -3.03 l -4.281 0 l -4 -1.656 z"/></clipPath><clipPath id="clipPath-533384624"><path d="m 24 2.344 l -4 1.656 l -4.281 0 l -3.03 3.03 l -4 1.656 l -1.656 4 l -3.03 3.03 l 0 4.281 l -1.656 4 l 1.656 4 l 0 4.281 l 3.03 3.03 l 1.656 4 l 4 1.656 l 3.03 3.03 l 4.281 0 l 4 1.656 l 4 -1.656 l 4.281 0 l 3.03 -3.03 l 4 -1.656 l 1.656 -4 l 3.03 -3.03 l 0 -4.281 l 1.656 -4 l -1.656 -4 l 0 -4.281 l -3.03 -3.03 l -1.656 -4 l -4 -1.656 l -3.03 -3.03 l -4.281 0 l -4 -1.656 z"/></clipPath><linearGradient id="linearGradient4317"><stop stop-color="#fff" stop-opacity="1"/><stop offset="1" stop-color="#fff" stop-opacity="0"/></linearGradient><clipPath clipPathUnits="userSpaceOnUse" id="clipPath4313"><path d="m 20 4 -7.313 3.03 -5.656 5.656 -3.03 7.313 0 8 3.03 7.313 5.656 5.656 7.313 3.03 8 0 7.313 -3.03 5.656 -5.656 3.03 -7.313 0 -8 -3.03 -7.313 -5.656 -5.656 -7.313 -3.03 -8 0 z"/></clipPath><linearGradient x2="44" x1="4" gradientUnits="userSpaceOnUse" id="linearGradient4375" xlink:href="#linearGradient4317"/><clipPath clipPathUnits="userSpaceOnUse" id="clipPath4329"><path d="m 24 2.344 -4 1.656 -4.281 0 -3.03 3.03 l -4 1.656 -1.656 4 l -3.03 3.03 0 4.281 -1.656 4 1.656 4 l 0 4.281 3.03 3.03 1.656 4 4 1.656 l 3.03 3.03 4.281 0 4 1.656 4 -1.656 l 4.281 0 3.03 -3.03 4 -1.656 1.656 -4 l 3.03 -3.03 0 -4.281 1.656 -4 -1.656 -4 l 0 -4.281 -3.03 -3.03 -1.656 -4 -4 -1.656 l -3.03 -3.03 -4.281 0 -4 -1.656 z"/></clipPath><path id="SVGCleanerId_0" d="m 24 2.344 l -4 1.656 l -4.281 0 l -3.03 3.03 l -4 1.656 l -1.656 4 l -3.03 3.03 l 0 4.281 l -1.656 4 l 1.656 4 l 0 4.281 l 3.03 3.03 l 1.656 4 l 4 1.656 l 3.03 3.03 l 4.281 0 l 4 1.656 l 4 -1.656 l 4.281 0 l 3.03 -3.03 l 4 -1.656 l 1.656 -4 l 3.03 -3.03 l 0 -4.281 l 1.656 -4 l -1.656 -4 l 0 -4.281 l -3.03 -3.03 l -1.656 -4 l -4 -1.656 l -3.03 -3.03 l -4.281 0 l -4 -1.656 z" visibility="visible" display="inline" fill-rule="nonzero" color="#000" fill-opacity="1"/></defs><g><path d="m 2.563 24.5 l -0.219 0.5 l 1.656 4 l 0 -1 l -1.438 -3.5 z m 42.875 0 l -1.438 3.5 l 0 1 l 1.656 -4 l -0.219 -0.5 z m -41.44 7.781 l 0 1 l 3.03 3.03 l 1.656 4 l 4 1.656 l 3.03 3.03 l 4.281 0 l 4 1.656 l 4 -1.656 l 4.281 0 l 3.03 -3.03 l 4 -1.656 l 1.656 -4 l 3.03 -3.03 l 0 -1 l -3.03 3.03 l -1.656 4 l -4 1.656 l -3.03 3.03 l -4.281 0 l -4 1.656 l -4 -1.656 l -4.281 0 l -3.03 -3.03 l -4 -1.656 l -1.656 -4 l -3.03 -3.03 z" opacity="0.3" visibility="visible" fill="#000" display="inline" fill-rule="nonzero" stroke="none" fill-opacity="1" color="#000"/></g><g><use fill="#aaa" stroke="none" xlink:href="#SVGCleanerId_0"/><path d="m 24 2.344 l -4 1.656 l 8 0 l -4 -1.656 z m 4 1.656 l 7.313 3.03 l -3.03 -3.03 l -4.281 0 z m 7.313 3.03 l 5.656 5.656 l -1.656 -4 l -4 -1.656 z m 5.656 5.656 l 3.03 7.313 l 0 -4.281 l -3.03 -3.03 z m 3.03 7.313 l 0 8 l 1.656 -4 l -1.656 -4 z m 0 8 l -3.03 7.313 l 3.03 -3.03 l 0 -4.281 z m -3.03 7.313 l -5.656 5.656 l 4 -1.656 l 1.656 -4 z m -5.656 5.656 l -7.313 3.03 l 4.281 0 l 3.03 -3.03 z m -7.313 3.03 l -8 0 l 4 1.656 l 4 -1.656 z m -8 0 l -7.313 -3.03 l 3.03 3.03 l 4.281 0 z m -7.313 -3.03 l -5.656 -5.656 l 1.656 4 l 4 1.656 z m -5.656 -5.656 l -3.03 -7.313 l 0 4.281 l 3.03 3.03 z m -3.03 -7.313 l 0 -8 l -1.656 4 l 1.656 4 z m 0 -8 l 3.03 -7.313 l -3.03 3.03 l 0 4.281 z m 3.03 -7.313 l 5.656 -5.656 l -4 1.656 l -1.656 4 z m 5.656 -5.656 l 7.313 -3.03 l -4.281 0 l -3.03 3.03 z" opacity="0.05" visibility="visible" fill="#aaa" display="inline" fill-rule="nonzero" stroke="none" fill-opacity="1" color="#000"/></g><g><use opacity="0.05" stroke-opacity="1" stroke-dasharray="none" fill="#000" stroke="#000" stroke-width="2" stroke-miterlimit="4" xlink:href="#SVGCleanerId_0"/><use opacity="0.1" stroke-opacity="1" stroke-dasharray="none" fill="#000" stroke="#000" stroke-width="1" stroke-miterlimit="4" xlink:href="#SVGCleanerId_0"/></g><g><g clip-path="url(#clipPath-520958774)"><g transform="translate(0,1)"><g opacity="0.1"><!-- color: #aaaaaa --><g><path d="m 13.98 21.496 c -1.625 1.621 -1.625 4.23 0 5.852 c 1.625 1.621 4.238 1.621 5.863 0 l 7.539 -7.527 c 1.625 -1.621 1.625 -4.23 0 -5.852 c -1.621 -1.621 -4.238 -1.621 -5.863 0 m -7.121 7.945 c 1.387 -1.387 3.637 -1.387 5.03 0 c 1.387 1.383 1.387 3.629 0 5.02 c -1.398 1.387 -3.648 1.387 -5.03 0 c -1.391 -1.387 -1.391 -3.633 0 -5.02 m 7.539 -7.527 c 1.391 -1.387 3.641 -1.387 5.03 0 c 1.391 1.387 1.391 3.633 0 5.02 c -1.395 1.387 -3.645 1.387 -5.03 0 c -1.387 -1.383 -1.387 -3.629 0 -5.02 m 0 0" fill="#000" stroke="none" fill-rule="nonzero" fill-opacity="1"/><path d="m 20.68 28.18 c -1.625 1.621 -1.625 4.23 0 5.852 c 1.625 1.621 4.242 1.621 5.867 0 l 7.539 -7.523 c 1.625 -1.621 1.625 -4.234 0 -5.855 c -1.625 -1.621 -4.238 -1.621 -5.863 0 m -7.121 7.945 c 1.387 -1.387 3.637 -1.387 5.02 0 c 1.391 1.387 1.391 3.633 0 5.02 c -1.387 1.395 -3.637 1.395 -5.02 0 c -1.391 -1.383 -1.391 -3.629 0 -5.02 m 7.539 -7.527 c 1.387 -1.383 3.637 -1.383 5.03 0 c 1.387 1.395 1.387 3.633 0 5.02 c -1.391 1.383 -3.641 1.383 -5.03 0 c -1.387 -1.395 -1.387 -3.633 0 -5.02 m 0 0" fill="#000" stroke="none" fill-rule="nonzero" fill-opacity="1"/><path d="m 55 33 c 0 13.805 -11.193 25 -25.01 25 c -13.806 0 -24.999 -11.194 -24.999 -25 c 0 -13.805 11.193 -25 24.999 -25 c 13.813 0 25.01 11.194 25.01 25 m 0 0" transform="matrix(0.563622,0,0,0.562504,7.120234,5.436453)" stroke-opacity="1" fill="#000" stroke="#fff" stroke-linejoin="miter" stroke-linecap="butt" stroke-width="3.333" stroke-miterlimit="4"/></g></g></g></g></g><g><g clip-path="url(#clipPath-533384624)"><!-- color: #aaaaaa --><g><path d="m 13.98 21.496 c -1.625 1.621 -1.625 4.23 0 5.852 c 1.625 1.621 4.238 1.621 5.863 0 l 7.539 -7.527 c 1.625 -1.621 1.625 -4.23 0 -5.852 c -1.621 -1.621 -4.238 -1.621 -5.863 0 m -7.121 7.945 c 1.387 -1.387 3.637 -1.387 5.03 0 c 1.387 1.383 1.387 3.629 0 5.02 c -1.398 1.387 -3.648 1.387 -5.03 0 c -1.391 -1.387 -1.391 -3.633 0 -5.02 m 7.539 -7.527 c 1.391 -1.387 3.641 -1.387 5.03 0 c 1.391 1.387 1.391 3.633 0 5.02 c -1.395 1.387 -3.645 1.387 -5.03 0 c -1.387 -1.383 -1.387 -3.629 0 -5.02 m 0 0" fill="#fff" stroke="none" fill-rule="nonzero" fill-opacity="1"/><path d="m 20.68 28.18 c -1.625 1.621 -1.625 4.23 0 5.852 c 1.625 1.621 4.242 1.621 5.867 0 l 7.539 -7.523 c 1.625 -1.621 1.625 -4.234 0 -5.855 c -1.625 -1.621 -4.238 -1.621 -5.863 0 m -7.121 7.945 c 1.387 -1.387 3.637 -1.387 5.02 0 c 1.391 1.387 1.391 3.633 0 5.02 c -1.387 1.395 -3.637 1.395 -5.02 0 c -1.391 -1.383 -1.391 -3.629 0 -5.02 m 7.539 -7.527 c 1.387 -1.383 3.637 -1.383 5.03 0 c 1.387 1.395 1.387 3.633 0 5.02 c -1.391 1.383 -3.641 1.383 -5.03 0 c -1.387 -1.395 -1.387 -3.633 0 -5.02 m 0 0" fill="#fff" stroke="none" fill-rule="nonzero" fill-opacity="1"/><path d="m 55 33 c 0 13.805 -11.193 25 -25.01 25 c -13.806 0 -24.999 -11.194 -24.999 -25 c 0 -13.805 11.193 -25 24.999 -25 c 13.813 0 25.01 11.194 25.01 25 m 0 0" transform="matrix(0.563622,0,0,0.562504,7.120234,5.436453)" stroke-opacity="1" fill="none" stroke="#fff" stroke-linejoin="miter" stroke-linecap="butt" stroke-width="3.333" stroke-miterlimit="4"/></g></g></g><g><path d="m 20 4 -7.313 3.03 -5.656 5.656 -3.03 7.313 0 8 3.03 7.313 5.656 5.656 7.313 3.03 8 0 7.313 -3.03 5.656 -5.656 3.03 -7.313 0 -8 -3.03 -7.313 -5.656 -5.656 -7.313 -3.03 -8 0 z" clip-path="url(#clipPath4313)" transform="matrix(0,1,-1,0,48,0)" opacity="0.3" stroke-opacity="1" stroke-dasharray="none" visibility="visible" fill="none" display="inline" stroke="url(#linearGradient4375)" color="#000" stroke-width="1" stroke-miterlimit="4"/><path d="m 24 2.344 -4 1.656 -4.281 0 -3.03 3.03 l -4 1.656 -1.656 4 l -3.03 3.03 0 4.281 -1.656 4 1.656 4 l 0 4.281 3.03 3.03 1.656 4 4 1.656 l 3.03 3.03 4.281 0 4 1.656 4 -1.656 l 4.281 0 3.03 -3.03 4 -1.656 1.656 -4 l 3.03 -3.03 0 -4.281 1.656 -4 -1.656 -4 l 0 -4.281 -3.03 -3.03 -1.656 -4 -4 -1.656 l -3.03 -3.03 -4.281 0 -4 -1.656 z" clip-path="url(#clipPath4329)" opacity="0.2" stroke-opacity="1" visibility="visible" fill="none" display="inline" stroke="#000" color="#000" stroke-width="2"/></g></svg>