<?xml version="1.0" encoding="UTF-8" standalone="no"?>
<svg
   xmlns:dc="http://purl.org/dc/elements/1.1/"
   xmlns:cc="http://creativecommons.org/ns#"
   xmlns:rdf="http://www.w3.org/1999/02/22-rdf-syntax-ns#"
   xmlns:svg="http://www.w3.org/2000/svg"
   xmlns="http://www.w3.org/2000/svg"
   xmlns:xlink="http://www.w3.org/1999/xlink"
   xmlns:sodipodi="http://sodipodi.sourceforge.net/DTD/sodipodi-0.dtd"
   xmlns:inkscape="http://www.inkscape.org/namespaces/inkscape"
   width="48"
   height="48"
   id="svg2"
   version="1.1"
   inkscape:version="0.48.4 r9939"
   sodipodi:docname="background.svg">
  <metadata
     id="metadata12">
    <rdf:RDF>
      <cc:Work
         rdf:about="">
        <dc:format>image/svg+xml</dc:format>
        <dc:type
           rdf:resource="http://purl.org/dc/dcmitype/StillImage" />
      </cc:Work>
    </rdf:RDF>
  </metadata>
  <defs
     id="defs10">
    <linearGradient
       inkscape:collect="always"
       id="linearGradient4317">
      <stop
         style="stop-color:#ffffff;stop-opacity:1;"
         offset="0"
         id="stop4319" />
      <stop
         style="stop-color:#ffffff;stop-opacity:0;"
         offset="1"
         id="stop4321" />
    </linearGradient>
    <clipPath
       clipPathUnits="userSpaceOnUse"
       id="clipPath4313">
      <path
         style="color:#000000;fill:#cea5d6;fill-opacity:1;fill-rule:nonzero;stroke:none;stroke-width:2;marker:none;visibility:visible;display:inline;overflow:visible;enable-background:accumulate"
         d="M 20,4 12.6875,7.03125 7.03125,12.6875 4,20 4,28 7.03125,35.3125 12.6875,40.96875 20,44 28,44 35.3125,40.96875 40.96875,35.3125 44,28 44,20 40.96875,12.6875 35.3125,7.03125 28,4 20,4 z"
         id="path4315"
         inkscape:connector-curvature="0" />
    </clipPath>
    <linearGradient
       inkscape:collect="always"
       xlink:href="#linearGradient4317"
       id="linearGradient4323"
       x1="4"
       y1="24"
       x2="44"
       y2="24"
       gradientUnits="userSpaceOnUse" />
    <clipPath
       clipPathUnits="userSpaceOnUse"
       id="clipPath4329">
      <path
         id="path4331"
         d="M 24,2.34375 20,4 15.71875,4 12.6875,7.03125 l -4,1.65625 -1.65625,4 L 4,15.71875 4,20 2.34375,24 4,28 l 0,4.28125 3.03125,3.03125 1.65625,4 4,1.65625 L 15.71875,44 20,44 24,45.65625 28,44 l 4.28125,0 3.03125,-3.03125 4,-1.65625 1.65625,-4 L 44,32.28125 44,28 45.65625,24 44,20 l 0,-4.28125 -3.03125,-3.03125 -1.65625,-4 -4,-1.65625 L 32.28125,4 28,4 24,2.34375 z"
         style="color:#000000;fill:#a348b1;fill-opacity:1;fill-rule:nonzero;stroke:none;stroke-width:2;marker:none;visibility:visible;display:inline;overflow:visible;enable-background:accumulate"
         inkscape:connector-curvature="0" />
    </clipPath>
  </defs>
  <sodipodi:namedview
     pagecolor="#ffffff"
     bordercolor="#666666"
     borderopacity="1"
     objecttolerance="10"
     gridtolerance="10"
     guidetolerance="10"
     inkscape:pageopacity="0"
     inkscape:pageshadow="2"
     inkscape:window-width="1364"
     inkscape:window-height="700"
     id="namedview8"
     showgrid="false"
     inkscape:zoom="11.313708"
     inkscape:cx="15.517179"
     inkscape:cy="18.005245"
     inkscape:window-x="0"
     inkscape:window-y="28"
     inkscape:window-maximized="1"
     inkscape:current-layer="svg2">
    <inkscape:grid
       type="xygrid"
       id="grid3761"
       empspacing="4"
       visible="true"
       enabled="true"
       snapvisiblegridlinesonly="true" />
  </sodipodi:namedview>
  <path
     style="color:#000000;fill:#a348b1;fill-opacity:1;fill-rule:nonzero;stroke:none;stroke-width:2;marker:none;visibility:visible;display:inline;overflow:visible;enable-background:accumulate"
     d="M 24 2.34375 L 20 4 L 15.71875 4 L 12.6875 7.03125 L 8.6875 8.6875 L 7.03125 12.6875 L 4 15.71875 L 4 20 L 2.34375 24 L 4 28 L 4 32.28125 L 7.03125 35.3125 L 8.6875 39.3125 L 12.6875 40.96875 L 15.71875 44 L 20 44 L 24 45.65625 L 28 44 L 32.28125 44 L 35.3125 40.96875 L 39.3125 39.3125 L 40.96875 35.3125 L 44 32.28125 L 44 28 L 45.65625 24 L 44 20 L 44 15.71875 L 40.96875 12.6875 L 39.3125 8.6875 L 35.3125 7.03125 L 32.28125 4 L 28 4 L 24 2.34375 z "
     id="path3775" />
  <path
     style="opacity:0.05;color:#000000;fill:#000000;fill-opacity:1;fill-rule:nonzero;stroke:none;stroke-width:2;marker:none;visibility:visible;display:inline;overflow:visible;enable-background:accumulate"
     d="M 24 2.34375 L 20 4 L 28 4 L 24 2.34375 z M 28 4 L 35.3125 7.03125 L 32.28125 4 L 28 4 z M 35.3125 7.03125 L 40.96875 12.6875 L 39.3125 8.6875 L 35.3125 7.03125 z M 40.96875 12.6875 L 44 20 L 44 15.71875 L 40.96875 12.6875 z M 44 20 L 44 28 L 45.65625 24 L 44 20 z M 44 28 L 40.96875 35.3125 L 44 32.28125 L 44 28 z M 40.96875 35.3125 L 35.3125 40.96875 L 39.3125 39.3125 L 40.96875 35.3125 z M 35.3125 40.96875 L 28 44 L 32.28125 44 L 35.3125 40.96875 z M 28 44 L 20 44 L 24 45.65625 L 28 44 z M 20 44 L 12.6875 40.96875 L 15.71875 44 L 20 44 z M 12.6875 40.96875 L 7.03125 35.3125 L 8.6875 39.3125 L 12.6875 40.96875 z M 7.03125 35.3125 L 4 28 L 4 32.28125 L 7.03125 35.3125 z M 4 28 L 4 20 L 2.34375 24 L 4 28 z M 4 20 L 7.03125 12.6875 L 4 15.71875 L 4 20 z M 7.03125 12.6875 L 12.6875 7.03125 L 8.6875 8.6875 L 7.03125 12.6875 z M 12.6875 7.03125 L 20 4 L 15.71875 4 L 12.6875 7.03125 z "
     id="path3773" />
</svg>
