<?xml version="1.0" encoding="UTF-8" standalone="no"?>
<svg
   xmlns:dc="http://purl.org/dc/elements/1.1/"
   xmlns:cc="http://creativecommons.org/ns#"
   xmlns:rdf="http://www.w3.org/1999/02/22-rdf-syntax-ns#"
   xmlns:svg="http://www.w3.org/2000/svg"
   xmlns="http://www.w3.org/2000/svg"
   xmlns:sodipodi="http://sodipodi.sourceforge.net/DTD/sodipodi-0.dtd"
   xmlns:inkscape="http://www.inkscape.org/namespaces/inkscape"
   width="48"
   height="48"
   id="svg2"
   version="1.1"
   inkscape:version="0.48.4 r9939"
   sodipodi:docname="background.svg">
  <metadata
     id="metadata12">
    <rdf:RDF>
      <cc:Work
         rdf:about="">
        <dc:format>image/svg+xml</dc:format>
        <dc:type
           rdf:resource="http://purl.org/dc/dcmitype/StillImage" />
        <dc:title></dc:title>
      </cc:Work>
    </rdf:RDF>
  </metadata>
  <defs
     id="defs10" />
  <sodipodi:namedview
     pagecolor="#ffffff"
     bordercolor="#666666"
     borderopacity="1"
     objecttolerance="10"
     gridtolerance="10"
     guidetolerance="10"
     inkscape:pageopacity="0"
     inkscape:pageshadow="2"
     inkscape:window-width="1364"
     inkscape:window-height="700"
     id="namedview8"
     showgrid="false"
     inkscape:zoom="4"
     inkscape:cx="29.723695"
     inkscape:cy="28.275598"
     inkscape:window-x="0"
     inkscape:window-y="28"
     inkscape:window-maximized="1"
     inkscape:current-layer="svg2">
    <inkscape:grid
       type="xygrid"
       id="grid3761"
       empspacing="4"
       visible="true"
       enabled="true"
       snapvisiblegridlinesonly="true" />
  </sodipodi:namedview>
  <path
     style="color:#000000;fill:#a348b1;fill-opacity:1;fill-rule:nonzero;stroke:none;stroke-width:2;marker:none;visibility:visible;display:inline;overflow:visible;enable-background:accumulate"
     d="M 24 2.34375 L 20 4 L 15.71875 4 L 12.6875 7.03125 L 8.6875 8.6875 L 7.03125 12.6875 L 4 15.71875 L 4 20 L 2.34375 24 L 4 28 L 4 32.28125 L 7.03125 35.3125 L 8.6875 39.3125 L 12.6875 40.96875 L 15.71875 44 L 20 44 L 24 45.65625 L 28 44 L 32.28125 44 L 35.3125 40.96875 L 39.3125 39.3125 L 40.96875 35.3125 L 44 32.28125 L 44 28 L 45.65625 24 L 44 20 L 44 15.71875 L 40.96875 12.6875 L 39.3125 8.6875 L 35.3125 7.03125 L 32.28125 4 L 28 4 L 24 2.34375 z "
     id="path3775" />
</svg>
