<?xml version="1.0" encoding="UTF-8" standalone="no"?>
<svg
   xmlns:dc="http://purl.org/dc/elements/1.1/"
   xmlns:cc="http://creativecommons.org/ns#"
   xmlns:rdf="http://www.w3.org/1999/02/22-rdf-syntax-ns#"
   xmlns:svg="http://www.w3.org/2000/svg"
   xmlns="http://www.w3.org/2000/svg"
   xmlns:sodipodi="http://sodipodi.sourceforge.net/DTD/sodipodi-0.dtd"
   xmlns:inkscape="http://www.inkscape.org/namespaces/inkscape"
   width="48"
   height="48"
   id="svg2"
   version="1.1"
   inkscape:version="0.48.4 r9939"
   sodipodi:docname="shadow.svg">
  <metadata
     id="metadata12">
    <rdf:RDF>
      <cc:Work
         rdf:about="">
        <dc:format>image/svg+xml</dc:format>
        <dc:type
           rdf:resource="http://purl.org/dc/dcmitype/StillImage" />
        <dc:title />
      </cc:Work>
    </rdf:RDF>
  </metadata>
  <defs
     id="defs10" />
  <sodipodi:namedview
     pagecolor="#ffffff"
     bordercolor="#666666"
     borderopacity="1"
     objecttolerance="10"
     gridtolerance="10"
     guidetolerance="10"
     inkscape:pageopacity="0"
     inkscape:pageshadow="2"
     inkscape:window-width="1364"
     inkscape:window-height="700"
     id="namedview8"
     showgrid="false"
     inkscape:zoom="11.313708"
     inkscape:cx="22.067165"
     inkscape:cy="19.758653"
     inkscape:window-x="0"
     inkscape:window-y="28"
     inkscape:window-maximized="1"
     inkscape:current-layer="svg2">
    <inkscape:grid
       type="xygrid"
       id="grid3761"
       empspacing="4"
       visible="true"
       enabled="true"
       snapvisiblegridlinesonly="true" />
  </sodipodi:namedview>
  <path
     style="opacity:0.3;color:#000000;fill:#000000;fill-opacity:1;fill-rule:nonzero;stroke:#000000;stroke-width:0;stroke-miterlimit:4;stroke-opacity:1;stroke-dasharray:none;marker:none;visibility:visible;display:inline;overflow:visible;enable-background:accumulate"
     d="M 2.5625 24.5 L 2.34375 25 L 4 29 L 4 28 L 2.5625 24.5 z M 45.4375 24.5 L 44 28 L 44 29 L 45.65625 25 L 45.4375 24.5 z M 4 32.28125 L 4 33.28125 L 7.03125 36.3125 L 8.6875 40.3125 L 12.6875 41.96875 L 15.71875 45 L 20 45 L 24 46.65625 L 28 45 L 32.28125 45 L 35.3125 41.96875 L 39.3125 40.3125 L 40.96875 36.3125 L 44 33.28125 L 44 32.28125 L 40.96875 35.3125 L 39.3125 39.3125 L 35.3125 40.96875 L 32.28125 44 L 28 44 L 24 45.65625 L 20 44 L 15.71875 44 L 12.6875 40.96875 L 8.6875 39.3125 L 7.03125 35.3125 L 4 32.28125 z "
     id="path3796" />
</svg>
