<?xml version="1.0" encoding="UTF-8" standalone="no"?>
<svg
   xmlns:dc="http://purl.org/dc/elements/1.1/"
   xmlns:cc="http://creativecommons.org/ns#"
   xmlns:rdf="http://www.w3.org/1999/02/22-rdf-syntax-ns#"
   xmlns:svg="http://www.w3.org/2000/svg"
   xmlns="http://www.w3.org/2000/svg"
   xmlns:sodipodi="http://sodipodi.sourceforge.net/DTD/sodipodi-0.dtd"
   xmlns:inkscape="http://www.inkscape.org/namespaces/inkscape"
   viewBox="0 0 48 48"
   id="svg2"
   version="1.1"
   inkscape:version="0.48.4 r9939"
   width="100%"
   height="100%"
   sodipodi:docname="camera-web.svg">
  <metadata
     id="metadata14">
    <rdf:RDF>
      <cc:Work
         rdf:about="">
        <dc:format>image/svg+xml</dc:format>
        <dc:type
           rdf:resource="http://purl.org/dc/dcmitype/StillImage" />
      </cc:Work>
    </rdf:RDF>
  </metadata>
  <defs
     id="defs12" />
  <sodipodi:namedview
     pagecolor="#ffffff"
     bordercolor="#666666"
     borderopacity="1"
     objecttolerance="10"
     gridtolerance="10"
     guidetolerance="10"
     inkscape:pageopacity="0"
     inkscape:pageshadow="2"
     inkscape:window-width="1280"
     inkscape:window-height="998"
     id="namedview10"
     showgrid="true"
     inkscape:zoom="9.8333333"
     inkscape:cx="19.88775"
     inkscape:cy="25.528553"
     inkscape:window-x="0"
     inkscape:window-y="0"
     inkscape:window-maximized="1"
     inkscape:current-layer="svg2">
    <inkscape:grid
       type="xygrid"
       id="grid2993" />
  </sodipodi:namedview>
  <path
     style="fill:#586e75;fill-opacity:1;stroke:none;opacity:1"
     d="M 24 8 C 17.372583 8 12 13.372583 12 20 C 12 26.627417 17.372583 32 24 32 C 30.627417 32 36 26.627417 36 20 C 36 13.372583 30.627417 8 24 8 z M 24.0625 11.9375 C 28.480778 11.9375 32.0625 15.519222 32.0625 19.9375 C 32.0625 24.355778 28.480778 27.9375 24.0625 27.9375 C 19.644222 27.9375 16.0625 24.355778 16.0625 19.9375 C 16.0625 15.519222 19.644222 11.9375 24.0625 11.9375 z M 24 14 C 20.686292 14 18 16.686292 18 20 C 18 23.313708 20.686292 26 24 26 C 27.313708 26 30 23.313708 30 20 C 30 16.686292 27.313708 14 24 14 z M 21 33 L 21 36 L 27 36 L 27 33 L 21 33 z M 16 37 L 16 39 L 32 39 L 32 37 L 16 37 z "
     id="path2995" />
</svg>
