<?xml version="1.0" encoding="UTF-8" standalone="no"?>
<svg
   xmlns:dc="http://purl.org/dc/elements/1.1/"
   xmlns:cc="http://creativecommons.org/ns#"
   xmlns:rdf="http://www.w3.org/1999/02/22-rdf-syntax-ns#"
   xmlns:svg="http://www.w3.org/2000/svg"
   xmlns="http://www.w3.org/2000/svg"
   xmlns:sodipodi="http://sodipodi.sourceforge.net/DTD/sodipodi-0.dtd"
   xmlns:inkscape="http://www.inkscape.org/namespaces/inkscape"
   viewBox="0 0 48 48"
   id="svg2"
   version="1.1"
   inkscape:version="0.48.4 r9939"
   width="100%"
   height="100%"
   sodipodi:docname="camera.svg">
  <metadata
     id="metadata26">
    <rdf:RDF>
      <cc:Work
         rdf:about="">
        <dc:format>image/svg+xml</dc:format>
        <dc:type
           rdf:resource="http://purl.org/dc/dcmitype/StillImage" />
      </cc:Work>
    </rdf:RDF>
  </metadata>
  <defs
     id="defs24" />
  <sodipodi:namedview
     pagecolor="#ffffff"
     bordercolor="#666666"
     borderopacity="1"
     objecttolerance="10"
     gridtolerance="10"
     guidetolerance="10"
     inkscape:pageopacity="0"
     inkscape:pageshadow="2"
     inkscape:window-width="1280"
     inkscape:window-height="998"
     id="namedview22"
     showgrid="true"
     inkscape:zoom="9.8333333"
     inkscape:cx="18.101695"
     inkscape:cy="23.79661"
     inkscape:window-x="0"
     inkscape:window-y="0"
     inkscape:window-maximized="1"
     inkscape:current-layer="svg2">
    <inkscape:grid
       type="xygrid"
       id="grid3003" />
  </sodipodi:namedview>
  <path
     style="fill:#657b83;fill-opacity:1;stroke:none"
     d="M 12.96875 12 C 12.41475 12 11.96875 12.446 11.96875 13 L 10 13 C 8.892 13 8 13.892 8 15 L 8 33 C 8 34.108 8.892 35 10 35 L 19.21875 35 C 14.979869 33.148567 12 28.92128 12 24 C 12 19.07872 14.979869 14.851433 19.21875 13 L 17.96875 13 C 17.96875 12.446 17.52275 12 16.96875 12 L 12.96875 12 z M 19.21875 13 L 28.78125 13 C 27.311691 12.358135 25.706137 12 24 12 C 22.293863 12 20.688309 12.358135 19.21875 13 z M 28.78125 13 C 33.020131 14.851433 36 19.07872 36 24 C 36 28.92128 33.020131 33.148567 28.78125 35 L 38 35 C 39.108 35 40 34.108 40 33 L 40 15 C 40 13.892 39.108 13 38 13 L 28.78125 13 z M 28.78125 35 L 19.21875 35 C 20.688309 35.641865 22.293863 36 24 36 C 25.706137 36 27.311691 35.641865 28.78125 35 z M 36.5 15 C 37.323747 15 37.96875 15.645003 37.96875 16.46875 C 37.96875 17.292497 37.323747 17.96875 36.5 17.96875 C 35.676253 17.96875 35 17.292497 35 16.46875 C 35 15.645003 35.676253 15 36.5 15 z M 24.0625 16.625 C 19.920365 16.625 16.5625 19.982865 16.5625 24.125 C 16.5625 28.267135 19.920365 31.625 24.0625 31.625 C 28.204635 31.625 31.5625 28.267135 31.5625 24.125 C 31.5625 19.982865 28.204635 16.625 24.0625 16.625 z "
     id="rect3807" />
</svg>
