<?xml version="1.0" encoding="UTF-8" standalone="no"?>
<svg
   xmlns:dc="http://purl.org/dc/elements/1.1/"
   xmlns:cc="http://creativecommons.org/ns#"
   xmlns:rdf="http://www.w3.org/1999/02/22-rdf-syntax-ns#"
   xmlns:svg="http://www.w3.org/2000/svg"
   xmlns="http://www.w3.org/2000/svg"
   xmlns:sodipodi="http://sodipodi.sourceforge.net/DTD/sodipodi-0.dtd"
   xmlns:inkscape="http://www.inkscape.org/namespaces/inkscape"
   viewBox="0 0 48 48"
   id="svg2"
   version="1.1"
   inkscape:version="0.48.4 r9939"
   width="100%"
   height="100%"
   sodipodi:docname="display.svg">
  <metadata
     id="metadata26">
    <rdf:RDF>
      <cc:Work
         rdf:about="">
        <dc:format>image/svg+xml</dc:format>
        <dc:type
           rdf:resource="http://purl.org/dc/dcmitype/StillImage" />
        <dc:title />
      </cc:Work>
    </rdf:RDF>
  </metadata>
  <defs
     id="defs24" />
  <sodipodi:namedview
     pagecolor="#ffffff"
     bordercolor="#666666"
     borderopacity="1"
     objecttolerance="10"
     gridtolerance="10"
     guidetolerance="10"
     inkscape:pageopacity="0"
     inkscape:pageshadow="2"
     inkscape:window-width="1280"
     inkscape:window-height="998"
     id="namedview22"
     showgrid="true"
     inkscape:zoom="4.9166665"
     inkscape:cx="49.442263"
     inkscape:cy="-5.4868468"
     inkscape:window-x="0"
     inkscape:window-y="0"
     inkscape:window-maximized="1"
     inkscape:current-layer="svg2">
    <inkscape:grid
       type="xygrid"
       id="grid3003" />
  </sodipodi:namedview>
  <path
     style="line-height:normal;color:#000000;fill:#67a6d2;fill-opacity:1"
     d="M 9.0625 9.03125 C 8.4769638 9.09325 7.9968513 9.6613 8 10.25 L 8 31.84375 C 8.0000628 32.47205 8.5591989 33.03115 9.1875 33.03125 L 20 33.03125 L 20 35.0625 L 28 35.0625 L 28 33.03125 L 38.8125 33.03125 C 39.440802 33.03115 39.999937 32.47205 40 31.84375 L 40 10.25 C 39.999937 9.6218 39.440802 9.03145 38.8125 9.03125 L 9.1875 9.03125 L 9.0625 9.03125 z M 10.65625 11.0625 C 10.7061 11.0525 10.762648 11.0525 10.8125 11.0625 L 37.1875 11.0625 C 37.606367 11.0626 37.999959 11.4561 38 11.875 L 38 30.28125 C 37.999959 30.70015 37.606367 31.09365 37.1875 31.09375 L 10.8125 31.09375 C 10.393633 31.09365 10.000042 30.70015 10 30.28125 L 10 11.875 C 9.9934 11.5017 10.289529 11.1321 10.65625 11.0625 z M 13 14 L 13 16 L 15 14 L 13 14 z M 33 14 L 35 16 L 35 14 L 33 14 z M 13 26 L 13 28 L 15 28 L 13 26 z M 35 26 L 33 28 L 35 28 L 35 26 z M 15.03125 36.0625 L 15.03125 38.09375 L 34.03125 38.09375 L 34.03125 36.0625 L 15.03125 36.0625 z "
     id="path20" />
</svg>
