<?xml version="1.0" encoding="UTF-8" standalone="no"?>
<svg
   xmlns:dc="http://purl.org/dc/elements/1.1/"
   xmlns:cc="http://creativecommons.org/ns#"
   xmlns:rdf="http://www.w3.org/1999/02/22-rdf-syntax-ns#"
   xmlns:svg="http://www.w3.org/2000/svg"
   xmlns="http://www.w3.org/2000/svg"
   xmlns:sodipodi="http://sodipodi.sourceforge.net/DTD/sodipodi-0.dtd"
   xmlns:inkscape="http://www.inkscape.org/namespaces/inkscape"
   viewBox="0 0 48 48"
   id="svg2"
   version="1.1"
   inkscape:version="0.48.4 r9939"
   width="100%"
   height="100%"
   sodipodi:docname="keyboard.svg">
  <metadata
     id="metadata12">
    <rdf:RDF>
      <cc:Work
         rdf:about="">
        <dc:format>image/svg+xml</dc:format>
        <dc:type
           rdf:resource="http://purl.org/dc/dcmitype/StillImage" />
      </cc:Work>
    </rdf:RDF>
  </metadata>
  <defs
     id="defs10" />
  <sodipodi:namedview
     pagecolor="#ffffff"
     bordercolor="#666666"
     borderopacity="1"
     objecttolerance="10"
     gridtolerance="10"
     guidetolerance="10"
     inkscape:pageopacity="0"
     inkscape:pageshadow="2"
     inkscape:window-width="1280"
     inkscape:window-height="998"
     id="namedview8"
     showgrid="true"
     inkscape:zoom="6.9532168"
     inkscape:cx="21.884455"
     inkscape:cy="37.312466"
     inkscape:window-x="0"
     inkscape:window-y="0"
     inkscape:window-maximized="1"
     inkscape:current-layer="svg2">
    <inkscape:grid
       type="xygrid"
       id="grid2989" />
  </sodipodi:namedview>
  <path
     style="fill:#6f8a93;fill-opacity:1;stroke:none"
     d="M 27.0625 13 C 26.0625 13 26.0625 14 26.0625 14 L 26.0625 16 C 26.0625 17 25.0625 17 25.0625 17 L 23.0625 17 C 22.0625 17 22.0625 16 22.0625 16 L 22.0625 15 L 20.0625 15 L 20.0625 18 C 20.0625 19 21.0625 19 21.0625 19 L 27.0625 19 C 28.0625 19 28.0625 18 28.0625 18 L 28.0625 16 C 28.0625 15 29.0625 15 29.0625 15 L 31.0625 15 C 32.0625 15 32.0625 16 32.0625 16 L 32.0625 20 L 10.125 20 C 8.9418814 20 8 20.941881 8 22.125 L 8 33.875 C 8 35.058119 8.9418814 36 10.125 36 L 37.875 36 C 39.058119 36 40 35.058119 40 33.875 L 40 22.125 C 40 20.941881 39.058119 20 37.875 20 L 34.0625 20 L 34.0625 14 C 34.0625 13 33.0625 13 33.0625 13 L 27.0625 13 z M 10 22 L 13 22 L 13 25 L 10 25 L 10 22 z M 14 22 L 17 22 L 17 25 L 14 25 L 14 22 z M 18 22 L 21 22 L 21 25 L 18 25 L 18 22 z M 22 22 L 25 22 L 25 25 L 22 25 L 22 22 z M 26 22 L 29 22 L 29 25 L 26 25 L 26 22 z M 30 22 L 33 22 L 33 25 L 30 25 L 30 22 z M 34 22 L 38 22 L 38 24 L 38 25 L 38 29 L 36 29 L 36 25 L 34 25 L 34 22 z M 10 26 L 15 26 L 15 29 L 10 29 L 10 26 z M 16 26 L 19 26 L 19 29 L 16 29 L 16 26 z M 20 26 L 23 26 L 23 29 L 20 29 L 20 26 z M 24 26 L 27 26 L 27 29 L 24 29 L 24 26 z M 28 26 L 31 26 L 31 29 L 28 29 L 28 26 z M 32 26 L 35 26 L 35 29 L 32 29 L 32 26 z M 10 30 L 13 30 L 13 33 L 10 33 L 10 30 z M 14 30 L 29 30 L 29 33 L 14 33 L 14 30 z M 30 30 L 33 30 L 33 33 L 30 33 L 30 30 z M 34 30 L 38 30 L 38 33 L 34 33 L 34 30 z "
     id="rect2991" />
</svg>
