<?xml version="1.0" encoding="UTF-8" standalone="no"?>
<svg
   xmlns:dc="http://purl.org/dc/elements/1.1/"
   xmlns:cc="http://creativecommons.org/ns#"
   xmlns:rdf="http://www.w3.org/1999/02/22-rdf-syntax-ns#"
   xmlns:svg="http://www.w3.org/2000/svg"
   xmlns="http://www.w3.org/2000/svg"
   xmlns:sodipodi="http://sodipodi.sourceforge.net/DTD/sodipodi-0.dtd"
   xmlns:inkscape="http://www.inkscape.org/namespaces/inkscape"
   viewBox="0 0 48 48"
   id="svg2"
   version="1.1"
   inkscape:version="0.48.4 r9939"
   width="100%"
   height="100%"
   sodipodi:docname="media-cdr.svg">
  <metadata
     id="metadata26">
    <rdf:RDF>
      <cc:Work
         rdf:about="">
        <dc:format>image/svg+xml</dc:format>
        <dc:type
           rdf:resource="http://purl.org/dc/dcmitype/StillImage" />
        <dc:title />
      </cc:Work>
    </rdf:RDF>
  </metadata>
  <defs
     id="defs24" />
  <sodipodi:namedview
     pagecolor="#ffffff"
     bordercolor="#666666"
     borderopacity="1"
     objecttolerance="10"
     gridtolerance="10"
     guidetolerance="10"
     inkscape:pageopacity="0"
     inkscape:pageshadow="2"
     inkscape:window-width="1280"
     inkscape:window-height="998"
     id="namedview22"
     showgrid="true"
     inkscape:zoom="3.4766083"
     inkscape:cx="-38.113302"
     inkscape:cy="5.3802758"
     inkscape:window-x="0"
     inkscape:window-y="0"
     inkscape:window-maximized="1"
     inkscape:current-layer="svg2">
    <inkscape:grid
       type="xygrid"
       id="grid3003" />
  </sodipodi:namedview>
  <path
     style="fill:#eee8d5"
     d="M 24 8 C 15.163444 8 8 15.163444 8 24 C 8 32.836556 15.163444 40 24 40 C 32.836556 40 40 32.836556 40 24 C 40 15.163444 32.836556 8 24 8 z M 24 19 C 26.761424 19 29 21.238576 29 24 C 29 26.761424 26.761424 29 24 29 C 21.238576 29 19 26.761424 19 24 C 19 23.827781 19.014138 23.667803 19.03125 23.5 C 19.2873 20.978719 21.411165 19 24 19 z M 24 20 C 22.067003 20 20.466735 21.364767 20.09375 23.1875 C 20.040617 23.448298 20 23.723112 20 24 C 20 26.209139 21.790861 28 24 28 C 26.209139 28 28 26.209139 28 24 C 28 21.790861 26.209139 20 24 20 z M 24 21.5 C 25.380712 21.5 26.5 22.619288 26.5 24 C 26.5 25.380712 25.380712 26.5 24 26.5 C 22.619288 26.5 21.5 25.380712 21.5 24 C 21.5 22.619288 22.619288 21.5 24 21.5 z "
     id="path20" />
</svg>
