<?xml version="1.0" encoding="UTF-8" standalone="no"?>
<svg
   xmlns:dc="http://purl.org/dc/elements/1.1/"
   xmlns:cc="http://creativecommons.org/ns#"
   xmlns:rdf="http://www.w3.org/1999/02/22-rdf-syntax-ns#"
   xmlns:svg="http://www.w3.org/2000/svg"
   xmlns="http://www.w3.org/2000/svg"
   xmlns:xlink="http://www.w3.org/1999/xlink"
   xmlns:sodipodi="http://sodipodi.sourceforge.net/DTD/sodipodi-0.dtd"
   xmlns:inkscape="http://www.inkscape.org/namespaces/inkscape"
   width="47.5"
   height="47.5"
   viewBox="0 0 38 38"
   id="svg3008"
   version="1.1"
   inkscape:version="0.48.4 r9939"
   sodipodi:docname="nm-device-wired.svg">
  <metadata
     id="metadata3038">
    <rdf:RDF>
      <cc:Work
         rdf:about="">
        <dc:format>image/svg+xml</dc:format>
        <dc:type
           rdf:resource="http://purl.org/dc/dcmitype/StillImage" />
      </cc:Work>
    </rdf:RDF>
  </metadata>
  <sodipodi:namedview
     pagecolor="#ffffff"
     bordercolor="#666666"
     borderopacity="1"
     objecttolerance="10"
     gridtolerance="10"
     guidetolerance="10"
     inkscape:pageopacity="0"
     inkscape:pageshadow="2"
     inkscape:window-width="640"
     inkscape:window-height="480"
     id="namedview3036"
     showgrid="false"
     inkscape:zoom="1.7566021"
     inkscape:cx="-51.209198"
     inkscape:cy="3.4810333"
     inkscape:window-x="0"
     inkscape:window-y="0"
     inkscape:window-maximized="0"
     inkscape:current-layer="svg3008" />
  <defs
     id="defs3010">
    <linearGradient
       gradientTransform="translate(0.31691,-0.51107)"
       id="linear0"
       y1="1.163"
       x1="9.326"
       y2="6.233"
       gradientUnits="userSpaceOnUse"
       x2="14.637">
      <stop
         offset="0"
         style="stop-color:#fde6b1"
         id="stop3013" />
      <stop
         offset=".5"
         style="stop-color:#b0935b"
         id="stop3015" />
      <stop
         offset="1"
         style="stop-color:#fbebbf"
         id="stop3017" />
    </linearGradient>
    <linearGradient
       gradientTransform="translate(-0.57019,0.4429)"
       id="linear1"
       y1="3.655"
       x1="6.6"
       y2="9.616"
       gradientUnits="userSpaceOnUse"
       x2="11.689">
      <stop
         offset="0"
         style="stop-color:#fde6b1"
         id="stop3020" />
      <stop
         offset=".5"
         style="stop-color:#b0935b"
         id="stop3022" />
      <stop
         offset="1"
         style="stop-color:#fbebbf"
         id="stop3024" />
    </linearGradient>
    <linearGradient
       inkscape:collect="always"
       xlink:href="#linear1"
       id="linearGradient3854"
       gradientUnits="userSpaceOnUse"
       gradientTransform="matrix(2.375,0,0,2.375,-6.1042012,5.8018875)"
       x1="6.6"
       y1="3.655"
       x2="11.689"
       y2="9.616" />
    <linearGradient
       inkscape:collect="always"
       xlink:href="#linear0"
       id="linearGradient3858"
       gradientUnits="userSpaceOnUse"
       gradientTransform="matrix(2.375,0,0,2.375,-3.9973387,3.5362088)"
       x1="9.326"
       y1="1.163"
       x2="14.637"
       y2="6.233" />
  </defs>
  <path
     style="font-size:medium;font-style:normal;font-variant:normal;font-weight:normal;font-stretch:normal;text-indent:0;text-align:start;text-decoration:none;line-height:normal;letter-spacing:normal;word-spacing:normal;text-transform:none;direction:ltr;block-progression:tb;writing-mode:lr-tb;text-anchor:start;baseline-shift:baseline;color:#000000;fill:#a2814d;fill-opacity:1;stroke:none;stroke-width:2.37500000000000000;marker:none;visibility:visible;display:inline;overflow:visible;enable-background:accumulate;font-family:Sans;-inkscape-font-specification:Sans"
     d="M 34.90625,0.125 A 1.1876187,1.1876187 0 0 0 34.125,0.46875 l -8.1875,8.1875 a 1.1876187,1.1876187 0 0 0 0.03125,1.71875 l 1.71875,1.59375 a 1.1876187,1.1876187 0 0 0 1.65625,-0.0625 L 37.53125,3.75 A 1.1876187,1.1876187 0 0 0 37.46875,2.03125 L 35.78125,0.4375 a 1.1876187,1.1876187 0 0 0 -0.875,-0.3125 z"
     id="path3028"
     inkscape:connector-curvature="0" />
  <path
     style="font-size:medium;font-style:normal;font-variant:normal;font-weight:normal;font-stretch:normal;text-indent:0;text-align:start;text-decoration:none;line-height:normal;letter-spacing:normal;word-spacing:normal;text-transform:none;direction:ltr;block-progression:tb;writing-mode:lr-tb;text-anchor:start;baseline-shift:baseline;color:#000000;fill:#a2814d;fill-opacity:1;fill-rule:nonzero;stroke:none;stroke-width:2.37500000000000000;marker:none;visibility:visible;display:inline;overflow:visible;enable-background:accumulate;font-family:Sans;-inkscape-font-specification:Sans"
     d="m 22.15625,4.9375 c -2.737211,0.095051 -5.486625,1.2227831 -7.5625,3.28125 a 1.1876187,1.1876187 0 0 0 0,1.6875 l 6.625,6.6875 0.0625,0.0625 5.9375,6.8125 a 1.1876187,1.1876187 0 0 0 1.6875,0.125 c -0.03765,0.03369 0.106224,-0.114461 0.25,-0.21875 0.143776,-0.104289 0.285834,-0.160818 0.5,-0.375 4.182353,-4.147265 4.210196,-10.94661 0.0625,-15.125 -2.088239,-2.1058987 -4.825289,-3.0325511 -7.5625,-2.9375 z m 0.03125,2.34375 c 2.124117,-0.082683 4.236676,0.660586 5.84375,2.28125 3.143185,3.166445 3.132628,8.147041 0.15625,11.40625 l -5.15625,-5.9375 a 1.1876187,1.1876187 0 0 0 -0.0625,-0.0625 l -5.6875,-5.75 c 1.483438,-1.1219723 3.164372,-1.8696958 4.90625,-1.9375 z"
     id="path3030"
     inkscape:connector-curvature="0" />
  <path
     style="font-size:medium;font-style:normal;font-variant:normal;font-weight:normal;font-stretch:normal;text-indent:0;text-align:start;text-decoration:none;line-height:normal;letter-spacing:normal;word-spacing:normal;text-transform:none;direction:ltr;block-progression:tb;writing-mode:lr-tb;text-anchor:start;baseline-shift:baseline;color:#000000;fill:#a2814d;fill-opacity:1;stroke:none;stroke-width:2.37500000000000000;marker:none;visibility:visible;display:inline;overflow:visible;enable-background:accumulate;font-family:Sans;-inkscape-font-specification:Sans"
     d="m 11.9375,23.625 a 1.1876187,1.1876187 0 0 0 -0.71875,0.34375 l -8.1875,8.1875 a 1.1876187,1.1876187 0 0 0 0.0625,1.75 l 1.71875,1.4375 a 1.1876187,1.1876187 0 0 0 1.59375,-0.0625 l 8.1875,-8.1875 a 1.1876187,1.1876187 0 0 0 -0.0625,-1.75 L 12.8125,23.90625 A 1.1876187,1.1876187 0 0 0 11.9375,23.625 z"
     id="path3032"
     inkscape:connector-curvature="0" />
  <path
     style="font-size:medium;font-style:normal;font-variant:normal;font-weight:normal;font-stretch:normal;text-indent:0;text-align:start;text-decoration:none;line-height:normal;letter-spacing:normal;word-spacing:normal;text-transform:none;direction:ltr;block-progression:tb;writing-mode:lr-tb;text-anchor:start;baseline-shift:baseline;color:#000000;fill:#a2814d;fill-opacity:1;fill-rule:nonzero;stroke:none;stroke-width:2.37500000000000000;marker:none;visibility:visible;display:inline;overflow:visible;enable-background:accumulate;font-family:Sans;-inkscape-font-specification:Sans"
     d="m 11.96875,11.96875 a 1.1876187,1.1876187 0 0 0 -0.5,0.125 c -0.0018,5.18e-4 -0.0418,0.02672 -0.0625,0.03125 -0.02823,0.0062 -0.04245,-0.01017 -0.09375,0 -0.08893,0.01763 -0.222546,0.04815 -0.375,0.09375 -0.152454,0.0456 -0.350914,0.06966 -0.65625,0.375 -4.1779007,4.147217 -4.2097765,10.942651 -0.0625,15.125 C 14.425953,31.957082 21.676417,31.667741 25.875,27.5 a 1.1876187,1.1876187 0 0 0 0,-1.65625 l -6.6875,-6.75 -3.1875,-3.375 -3.1875,-3.375 a 1.1876187,1.1876187 0 0 0 -0.84375,-0.375 z m -0.25,2.6875 2.5625,2.71875 3.1875,3.375 a 1.1876187,1.1876187 0 0 0 0.03125,0 l 5.65625,5.71875 c -3.342925,2.433682 -8.353601,2.480329 -11.25,-0.4375 -3.132973,-3.159468 -3.1304479,-8.114854 -0.1875,-11.375 z"
     id="path3034"
     inkscape:connector-curvature="0" />
</svg>
