<!-- color: #f9f9f9 -->
<svg xmlns="http://www.w3.org/2000/svg" width="48" height="48" viewBox="0 0 48 48">
 <defs>
  <clipPath>
   <rect rx="4" y="1006.36" x="2" height="44" width="44" fill="none"/>
  </clipPath>
  <clipPath>
   <rect rx="4" y="1006.36" x="2" height="44" width="44" fill="none"/>
  </clipPath>
  <clipPath>
   <rect rx="4" y="1006.36" x="2" height="44" width="44" fill="none"/>
  </clipPath>
 </defs>
 <path d="m 32,24 c 0,4.417969 -3.582031,8 -8,8 -4.417969,0 -8,-3.582031 -8,-8 0,-4.417969 3.582031,-8 8,-8 4.417969,0 8,3.582031 8,8 z" fill="#219eca"/>
 <path d="M 32,24" fill="#219eca"/>
 <path d="m 32.524557,24 a 9,9 0 1 1 -18,0 9,9 0 1 1 18,0 z" transform="matrix(1.1075372,0,0,1.1075372,-2.0543223,-2.5808366)" fill="#f9f9f9"/>
 <path d="m 39,23 a 8,8 0 1 1 -16,0 8,8 0 1 1 16,0 z" transform="matrix(0.9967835,0,0,0.9967835,-6.9002879,1.0740366)" fill="#23a0cb"/>
 <path d="M 31.36022,19.037216 48,19 C 48,13 48,6 48,0 32.666667,0 17.333333,0 2,0 l 13.141469,22.662215 c 0.201827,-1.300089 0.670054,-2.552822 1.40625,-3.656249 0.736197,-1.103428 1.740668,-2.040968 2.968749,-2.75 1.076159,-0.621321 2.214801,-1.012287 3.375,-1.156251 1.160203,-0.143961 2.356342,-0.04807 3.468753,0.250002 1.112407,0.29807 2.160967,0.795224 3.09375,1.5 0.75899,0.573466 1.34534,1.365969 1.906249,2.187499 z" fill="#da4337"/>
 <path d="M 24.674723,32.897091 16,48 c 9,0 29,0 32,0 0,-4 0,-25 0,-31 l -18.44423,0 c 1.025008,0.824819 1.964767,1.895444 2.552262,3.084722 0.587498,1.18928 0.8972,2.527948 0.897197,3.946014 0,1.242639 -0.23074,2.424216 -0.686158,3.500962 -0.455428,1.076744 -1.136541,2.064685 -1.950881,2.879022 -0.814341,0.814341 -1.769166,1.473842 -2.845914,1.929267 -0.876132,0.370573 -1.855636,0.482117 -2.847553,0.557104 z" fill="#e3a700"/>
 <path d="M 16.014466,20.177342 4,0 C 2,0 1,0 0,0 c 0,8 0,41 0,48 7,0 12,0 18,0 l 9.263179,-15.589317 c -1.226817,0.475275 -2.545837,0.696132 -3.869535,0.610278 -1.323691,-0.08585 -2.637861,-0.486974 -3.865943,-1.196011 -1.076156,-0.621323 -1.984061,-1.411934 -2.688842,-2.344713 -0.704775,-0.932779 -1.219802,-2.016615 -1.517868,-3.129023 -0.298067,-1.11241 -0.391801,-2.269064 -0.247837,-3.429267 0.117142,-0.944039 0.510293,-1.848083 0.941312,-2.744605 z" fill="#0f9052"/>
 <path d="m 33,24.001342 a 9.0000001,9.0000001 0 0 1 -18,0 9.0000001,9.0000001 0 1 1 18,0 z" fill="#f9f9f9"/>
 <path d="m 31,24 a 7,7 0 0 1 -14,0 7,7 0 1 1 14,0 z" fill="#3d7de6"/>
</svg>
