<!-- color: #737373 -->
<svg xmlns="http://www.w3.org/2000/svg" width="48" height="48" viewBox="0 0 48 48">
 <defs>
  <clipPath>
   <path d="M 15 1 L 36 1 L 36 47 L 15 47 Z M 15 1 "/>
  </clipPath>
  <clipPath>
   <path d="M 24.109375 0.644531 C 22.109375 0.644531 20.171875 0.894531 18.3125 1.363281 L 15.007812 27.015625 L 21.835938 27.015625 L 18.667969 48.160156 C 19.886719 48.445312 21.121094 48.640625 22.402344 48.730469 L 35.488281 20.136719 L 28.660156 20.136719 L 31.859375 1.933594 C 29.429688 1.097656 26.820312 0.644531 24.109375 0.644531 Z M 24.109375 0.644531 "/>
  </clipPath>
 </defs>
 <path d="M 18.71875 0 L 15 27 L 22 27 L 18.1875 48 L 23.40625 48 L 35 20 L 29 20 L 31.84375 0 L 18.71875 0 z " fill="#ffbf14"/>
</svg>
