<!-- color: #eeeeee -->
<svg xmlns="http://www.w3.org/2000/svg" width="48" height="48" viewBox="0 0 48 48">
 <g>
  <path d="M 30 30 L 30 31 C 32 31 34 29 34 27 L 33 27 C 33 28 31 30 30 30 Z M 30 30 " fill="#666666"/>
  <path d="M 30 32 L 30 33 C 34 33 36 31 36 27 L 35 27 C 35 30 33 32 30 32 Z M 30 32 " fill="#666666"/>
  <path d="M 30 34 L 30 35 C 36 35 38 33 38 27 L 37 27 C 37 32 35 34 30 34 Z M 30 34 " fill="#666666"/>
  <path d="M 19.5625 13.5625 L 18 19 L 20 25 L 25 25 L 25 19 Z M 19.5625 13.5625 " fill="#20b0cf"/>
  <path d="M 25 19 L 20 25 L 17 34 L 20 42 L 32.5 24.625 L 33 18 Z M 25 19 " fill="#1ebbe2"/>
  <path d="M 32 10 L 25 19 L 32.40625 24.78125 L 42.65625 10.5625 C 42.519531 10.371094 42.394531 10.1875 42.25 10 Z M 32 10 " fill="#169cc7"/>
  <path d="M 5.75 10 C 5.648438 10.132812 5.566406 10.273438 5.46875 10.40625 L 20 25 L 20 14 L 16 10 Z M 20 25 L 9.1875 41.59375 C 9.351562 41.730469 9.519531 41.867188 9.6875 42 L 20 42 Z M 20 25 " fill="#169cc7"/>
 </g>
</svg>
