<!-- color: #158d8d -->
<svg xmlns="http://www.w3.org/2000/svg" xmlns:xlink="http://www.w3.org/1999/xlink" width="48" height="48" viewBox="0 0 48 48">
 <defs>
  <linearGradient id="0" gradientUnits="userSpaceOnUse" x1="19.691" y1="26.17" x2="29.25" y2="27.11" gradientTransform="matrix(0.928565,0,0,0.927671,1.714394,1.722366)">
   <stop stop-color="#f9f9f9"/>
   <stop offset="1" stop-color="#6bd654"/>
  </linearGradient>
  <linearGradient xlink:href="#0" id="1" gradientUnits="userSpaceOnUse" gradientTransform="matrix(0.928565,0,0,0.927671,1.714394,1.722366)" x1="19.691" y1="26.17" x2="29.25" y2="27.11"/>
 </defs>
 <path d="m 24,10 c -3.585078,0 -7.177894,1.365393 -9.90625,4.09375 -5.4606632,5.452262 -5.4602219,14.325228 0,19.78125 l 0.71875,0.71875 1.40625,-1.4375 L 15.5,32.46875 C 10.803972,27.776334 10.804413,20.188362 15.5,15.5 a 1.0001,1.0001 0 0 0 0.03125,0 c 4.691723,-4.691724 12.245777,-4.691724 16.9375,0 a 1.0001,1.0001 0 0 0 0.03125,0 c 4.695587,4.688362 4.696028,12.276334 0,16.96875 l -0.71875,0.6875 1.40625,1.4375 0.71875,-0.71875 c 5.460222,-5.456022 5.460663,-14.328988 0,-19.78125 C 31.177894,11.365393 27.585078,10 24,10 z" color="#000000" fill="url(#1)"/>
 <path d="m 30,17 -8,7 2,2 7,-8 z m 0,0" fill="#ececec"/>
</svg>
