<!-- color: #f87b6d -->
<svg xmlns="http://www.w3.org/2000/svg" width="48" height="48" viewBox="0 0 48 48">
 <g>
  <path d="M 12 13 C 11.445312 13 11 13.445312 11 14 L 11 34 C 11 34.554688 11.445312 35 12 35 L 36 35 C 36.554688 35 37 34.554688 37 34 L 37 14 C 37 13.445312 36.554688 13 36 13 Z M 14 16 L 18 16 L 18 20 L 14 20 Z M 30 16 L 34 16 L 34 20 L 30 20 Z M 14 22 L 18 22 L 18 26 L 14 26 Z M 30 22 L 34 22 L 34 26 L 30 26 Z M 14 28 L 18 28 L 18 32 L 14 32 Z M 30 28 L 34 28 L 34 32 L 30 32 Z M 30 28 " fill="#f9f9f9"/>
 </g>
</svg>
