<!-- color: #e33a31 -->
<svg xmlns="http://www.w3.org/2000/svg" width="48" height="48" viewBox="0 0 48 48">
 <g>
  <path d="M 24.15625 15 C 21.121094 15 16.65625 15.175781 15.3125 15.21875 C 13.855469 15.347656 13.300781 15.421875 12.5 16.09375 C 11.28125 17.160156 11 19.265625 11 22.46875 L 11 25.53125 C 11 29.1875 11.5 31.039062 12.3125 31.71875 C 13.25 32.511719 13.875 32.5625 14.5 32.65625 C 14.742188 32.691406 16.449219 33 24.0625 33 C 28.808594 33 32.890625 32.773438 33.3125 32.71875 C 33.992188 32.632812 34.953125 32.523438 35.6875 31.71875 C 36.777344 30.5 37 28.460938 37 25.53125 L 37 22 C 37 20.101562 36.886719 17.402344 35.6875 16.28125 C 34.78125 15.523438 34.441406 15.3125 32.5625 15.21875 C 32.03125 15.195312 27.394531 15 24.15625 15 Z M 21 18 L 27 18 L 27 25 L 29.46875 25 L 24 30.625 L 18.53125 25 L 21 25 Z M 21 18 " fill="#f9f9f9"/>
 </g>
</svg>
