<!-- color: #319ee6 -->
<svg xmlns="http://www.w3.org/2000/svg" width="48" height="48" viewBox="0 0 48 48">
 <g>
  <path d="M 24 29 C 25.105469 29 26 29.894531 26 31 L 26 35 C 26 36.105469 25.105469 37 24 37 C 22.894531 37 22 36.105469 22 35 L 22 31 C 22 29.894531 22.894531 29 24 29 Z M 24 29 " fill="#f9f9f9"/>
  <path d="M 33 20.875 L 33 29.484375 C 33 30.324219 32.332031 31 31.5 31 L 16.5 31 C 15.667969 31 15 30.324219 15 29.484375 L 15 20.875 C 15 7.707031 33 7.707031 33 20.875 Z M 33 20.875 " fill="#f9f9f9"/>
 </g>
</svg>
