<!-- color: #01c994 -->
<svg xmlns="http://www.w3.org/2000/svg" width="48" height="48" viewBox="0 0 48 48">
 <g>
  <path d="M 22.273438 36.589844 C 23.316406 37.167969 24.5 37.140625 25.292969 36.484375 C 28.480469 33.859375 31.777344 29.433594 32.710938 27.386719 C 34.464844 27.546875 35.675781 27.136719 35.675781 27.136719 L 35.664062 23.898438 C 35.664062 23.898438 33.089844 23.945312 32.601562 23.953125 C 28.867188 24.003906 26.292969 19.675781 27.808594 16.019531 C 28.863281 13.484375 30.710938 15.308594 31.039062 16.097656 C 31.371094 16.886719 31.296875 18.996094 30.816406 20.542969 C 31.402344 21.847656 34.578125 22.539062 35.300781 21.449219 C 36.191406 19.054688 36.582031 14.738281 34.273438 12.503906 C 32.746094 11.027344 28.917969 10.277344 26.117188 11.960938 C 23.316406 13.640625 23.371094 17.210938 23.589844 18.996094 C 23.808594 20.78125 24.414062 24.5625 28.148438 26.664062 C 28.480469 27.03125 24.054688 32.523438 23.808594 32.28125 C 18.316406 26.875 16.835938 15.214844 16.835938 15.214844 L 12 15.164062 C 12 15.164062 14.636719 32.125 22.273438 36.589844 Z M 22.273438 36.589844 " fill="#ffffff"/>
 </g>
</svg>
