<!-- color: #16a3b6 -->
<svg xmlns="http://www.w3.org/2000/svg" width="48" height="48" viewBox="0 0 48 48">
 <g>
  <path d="M 24.683594 11.648438 C 24.308594 12.949219 24.042969 13.820312 24 15 C 23.953125 19.382812 24.117188 23.617188 24 28 C 23.992188 29.4375 23 29 22 29 C 20 29 18.285156 29.425781 16.949219 30.859375 C 15.90625 32 15.429688 33.804688 16.636719 35 C 17.707031 36.042969 19.359375 36.234375 20.773438 36 C 22.289062 35.660156 23.695312 35.050781 24.832031 34.003906 C 25.714844 33.203125 25.890625 32.015625 25.925781 30.832031 C 25.980469 29.191406 25.902344 27.542969 26.023438 25.910156 C 26.019531 24.714844 25.875 22.882812 27.328125 23.445312 C 28.351562 24.164062 29.261719 25.125 29.882812 26.21875 C 30.445312 27.457031 30.882812 28.824219 30.683594 30.199219 C 30.554688 31.292969 31.765625 30.992188 31.726562 30.125 C 32.390625 28.15625 31.847656 25.914062 30.515625 24.355469 C 29.140625 22.449219 27.125 21.011719 26.191406 18.792969 C 25.570312 17.453125 27.054688 16.621094 28.023438 17.707031 C 29.03125 18.691406 30.058594 19.75 30.394531 21.167969 C 30.769531 22.144531 30.847656 23.199219 30.753906 24.234375 C 31.292969 25.617188 32.003906 23.738281 31.996094 23.050781 C 32.316406 21.246094 31.644531 19.375 30.460938 18.011719 C 28 15.554688 27 13 24.683594 11.648438 Z M 24.683594 11.648438 " fill="#ffffff" fill-rule="evenodd"/>
 </g>
</svg>
