<!-- color: #6b7bda -->
<svg xmlns="http://www.w3.org/2000/svg" width="48" height="48" viewBox="0 0 48 48">
 <g>
  <path d="M 16.617188 27.003906 L 18.347656 28.003906 L 18.714844 29.371094 L 15.25 27.371094 Z M 16.617188 27.003906 " fill="#f9f9f9"/>
  <path d="M 16.617188 27.003906 L 16.117188 27.871094 L 14.25 29.101562 L 17.714844 31.101562 L 17.847656 28.871094 L 18.347656 28.003906 Z M 16.617188 27.003906 " fill="#f9f9f9"/>
  <path d="M 15.617188 28.734375 L 17.347656 29.734375 L 14.480469 32.699219 Z M 15.617188 28.734375 " fill="#f9f9f9"/>
  <path d="M 34 16 C 34 17.65625 32.65625 19 31 19 C 29.34375 19 28 17.65625 28 16 C 28 14.34375 29.34375 13 31 13 C 32.65625 13 34 14.34375 34 16 Z M 34 16 " fill="#f9f9f9"/>
  <path d="M 25 19 C 26 17 32 19 30 22 C 26 28 20 33 14 38 C 18 32 23 27 25 19 Z M 25 19 " fill="#f9f9f9"/>
  <path d="M 29 22 C 35 22 35 22 35 27 L 34 27 C 34 23 34 23 29 23 Z M 29 22 " fill="#f9f9f9"/>
  <path d="M 27 25 L 25 28 C 29 28 33 27 37 24 C 34 25 30 26 27 25 Z M 27 25 " fill="#f9f9f9"/>
  <path d="M 21 16 C 22 14 24 15 23.699219 16.523438 L 19 27 L 17 26 Z M 21 16 " fill="#f9f9f9"/>
 </g>
</svg>
