<!-- color: #f68414 -->
<svg xmlns="http://www.w3.org/2000/svg" width="48" height="48" viewBox="0 0 48 48">
 <path d="m 24,14 c -6.610612,0 -12,5.389388 -12,12 0,6.610612 5.389388,12 12,12 6.610612,0 12,-5.389388 12,-12 0,-6.610612 -5.389388,-12 -12,-12 z m 0,3 c 4.99095,0 9,4.00905 9,9 0,4.99095 -4.00905,9 -9,9 -4.99095,0 -9,-4.00905 -9,-9 0,-4.99095 4.00905,-9 9,-9 z" color="#000000" fill="#f9f9f9"/>
 <path d="m 21,26 c 0,1.105469 -0.894531,2 -2,2 -1.105469,0 -2,-0.894531 -2,-2 0,-1.105469 0.894531,-2 2,-2 1.105469,0 2,0.894531 2,2 z m 0,0" fill="#f9f9f9"/>
 <path d="m 13.5,10.109375 c 0.828125,0 1.5,0.894531 1.5,2 l 0,12.894531 c 0,1.105469 -0.671875,2 -1.5,2 -0.828125,0 -1.5,-0.894531 -1.5,-2 l 0,-12.894531 c 0,-1.105469 0.671875,-2 1.5,-2 z m 0,0" fill="#f9f9f9"/>
</svg>
