<svg width="40" xmlns="http://www.w3.org/2000/svg" viewBox="0 0 40 40" height="40">
<g transform="translate(0 -1012.3622)">
<rect width="37.054" x="1.429" y="1013.791" rx="1" height="37.054" style="fill:#393939"/>
<path style="fill:#1f1f1f" d="m 0,1012.3622 0,0 0,40 0,0 40,0 0,0 0,-40 0,0 z m 2,2 36,0 0,0 0,36 c -0.03571,0 0,0 0,0 l -36,0 0,0 z"/>
</g>
<path style="fill:#d64937;line-height:normal;color:#000" d="m 29.13352,9.7958 c -0.914683,0.025 -1.818308,0.4057 -2.463877,1.0665 L 16.596417,20.454 13.14087,16.5818 c -1.229737,-1.64 -3.926399,-1.8163 -5.3516312,-0.35 -1.4252323,1.4662 -1.2275153,4.2135 0.3923797,5.452 l 5.9579565,6.3997 c 2.342312,2.3423 3.397624,2.029 5.762435,-0.3357 0,0 8.126148,-9.7758 12.889022,-13.08 1.052818,-0.998 1.492196,-1.2755 0.94419,-2.6305 -0.548004,-1.355 -3.164817,-2.29 -4.601702,-2.2415 z"/>
</svg>
