<svg xmlns="http://www.w3.org/2000/svg" width="48" height="48">
 <g transform="translate(0,-1004.3622)">
  <path d="m 24.000079,1005.3662 c -1.04516,0 -2.02343,0.2872 -2.85582,0.7844 l -15.3386896,8.7079 c -0.0173,0.013 -0.0346,0.013 -0.0517,0.021 -1.85189,1.051 -2.84681,3.0013 -2.74567,4.9676 l 0,17.0231 c -0.0562,1.0126 0.17538,2.0491 0.7294,2.9934 0.53165,0.9035 1.28783,1.6017 2.1608,2.0613 l 15.2457796,8.6528 c 0.83241,0.4973 1.81067,0.7845 2.85582,0.7845 1.04515,0 2.02341,-0.2872 2.85581,-0.7845 l 15.24579,-8.6528 c 0.872979,-0.4596 1.629149,-1.1578 2.160789,-2.0613 0.55406,-0.9443 0.78542,-1.9808 0.72942,-2.9934 l 0,-17.0134 c 0.0562,-1.0123 -0.17536,-2.0515 -0.72942,-2.9932 -0.53164,-0.9062 -1.28781,-1.6042 -2.160789,-2.0638 l -15.24579,-8.6531 c -0.8324,-0.4973 -1.81066,-0.7845 -2.85581,-0.7845 z" fill="#1890d0"/>
 </g>
</svg>
