<?xml version="1.0" encoding="UTF-8" standalone="no"?>
<!-- Created with Inkscape (http://www.inkscape.org/) -->

<svg
   xmlns:dc="http://purl.org/dc/elements/1.1/"
   xmlns:cc="http://creativecommons.org/ns#"
   xmlns:rdf="http://www.w3.org/1999/02/22-rdf-syntax-ns#"
   xmlns:svg="http://www.w3.org/2000/svg"
   xmlns="http://www.w3.org/2000/svg"
   xmlns:sodipodi="http://sodipodi.sourceforge.net/DTD/sodipodi-0.dtd"
   xmlns:inkscape="http://www.inkscape.org/namespaces/inkscape"
   id="svg27665"
   height="22"
   width="22"
   version="1.1"
   inkscape:version="0.48.4 r9939"
   sodipodi:docname="dialog-warning.svg">
  <defs
     id="defs8" />
  <sodipodi:namedview
     pagecolor="#ffffff"
     bordercolor="#666666"
     borderopacity="1"
     objecttolerance="10"
     gridtolerance="10"
     guidetolerance="10"
     inkscape:pageopacity="0"
     inkscape:pageshadow="2"
     inkscape:window-width="1301"
     inkscape:window-height="744"
     id="namedview6"
     showgrid="true"
     inkscape:zoom="29.500054"
     inkscape:cx="10.603419"
     inkscape:cy="10.495779"
     inkscape:window-x="65"
     inkscape:window-y="24"
     inkscape:window-maximized="1"
     inkscape:current-layer="layer1"
     inkscape:snap-bbox="true">
    <inkscape:grid
       type="xygrid"
       id="grid2985"
       empspacing="5"
       visible="true"
       enabled="true"
       snapvisiblegridlinesonly="true" />
  </sodipodi:namedview>
  <metadata
     id="metadata27670">
    <rdf:RDF>
      <cc:Work
         rdf:about="">
        <dc:format>image/svg+xml</dc:format>
        <dc:type
           rdf:resource="http://purl.org/dc/dcmitype/StillImage" />
        <dc:title />
      </cc:Work>
    </rdf:RDF>
  </metadata>
  <g
     id="layer1"
     transform="translate(3364.4171,-2121.7186)">
    <path
       style="color:#000000;fill:#ff6f00;fill-opacity:1;fill-rule:nonzero;stroke:none;stroke-width:1;marker:none;visibility:visible;display:inline;overflow:visible;enable-background:accumulate"
       d="m -3354.5734,2123.7186 -8.7187,15.125 1.875,1.875 16,0 1.875,-1.875 -8.7188,-15.125 -2.3125,0 z m 0.1563,6 2,0 0,4 -2,0 0,-4 z m 0,6 2,0 0,2 -2,0 0,-2 z"
       id="path2985"
       inkscape:connector-curvature="0" />
    <path
       style="color:#000000;fill:#000000;fill-opacity:1;fill-rule:nonzero;stroke:none;stroke-width:1;marker:none;visibility:visible;display:inline;overflow:visible;enable-background:accumulate;opacity:0.2"
       d="M 9.84375 2 L 1.125 17.125 L 3 19 L 3.125 19 L 2.25 18.125 L 10.96875 3 L 12.71875 3 L 12.15625 2 L 9.84375 2 z M 12 9 L 12 12 L 11.125 12 L 11.125 13 L 13.125 13 L 13.125 9 L 12 9 z M 12 15 L 12 16 L 11.125 16 L 11.125 17 L 13.125 17 L 13.125 15 L 12 15 z "
       transform="translate(-3364.4171,2121.7186)"
       id="path3752" />
  </g>
</svg>
